<svg width="31" height="24" viewBox="0 0 31 24" fill="none" xmlns="http://www.w3.org/2000/svg">
<path d="M1.33325 8.3189H0.583252C0.583252 8.6339 0.780084 8.91533 1.07597 9.02339L1.33325 8.3189ZM1.33325 1V0.25C0.919038 0.25 0.583252 0.585786 0.583252 1L1.33325 1ZM29.3333 1H30.0833C30.0833 0.585786 29.7475 0.25 29.3333 0.25V1ZM29.3333 8.3189L29.5905 9.02339C29.8864 8.91533 30.0833 8.6339 30.0833 8.3189H29.3333ZM26.788 12L27.5381 12.0017L27.538 11.9983L26.788 12ZM29.3333 15.6811H30.0833C30.0833 15.3661 29.8864 15.0847 29.5905 14.9766L29.3333 15.6811ZM29.3333 23V23.75C29.7475 23.75 30.0833 23.4142 30.0833 23H29.3333ZM1.33325 23H0.583252C0.583252 23.4142 0.919038 23.75 1.33325 23.75L1.33325 23ZM1.33325 15.6811L1.07597 14.9766C0.780084 15.0847 0.583252 15.3661 0.583252 15.6811H1.33325ZM3.87845 12L3.12845 11.9983L3.12845 12.0017L3.87845 12ZM20.1481 5.68761C20.3853 5.34807 20.3023 4.88049 19.9628 4.64326C19.6233 4.40602 19.1557 4.48897 18.9184 4.82852L20.1481 5.68761ZM9.99344 17.6027C9.75621 17.9423 9.83915 18.4098 10.1787 18.6471C10.5182 18.8843 10.9858 18.8014 11.2231 18.4618L9.99344 17.6027ZM2.08325 8.3189V1H0.583252V8.3189H2.08325ZM1.33325 1.75H29.3333V0.25H1.33325V1.75ZM28.5833 1V8.3189H30.0833V1H28.5833ZM29.076 7.61441C28.1822 7.9408 27.4117 8.53861 26.8686 9.32414L28.1024 10.1772C28.4705 9.64482 28.9907 9.24246 29.5905 9.02339L29.076 7.61441ZM26.8686 9.32414C26.3255 10.1095 26.0359 11.0447 26.0381 12.0017L27.538 11.9983C27.5366 11.3458 27.7341 10.7097 28.1024 10.1772L26.8686 9.32414ZM26.0381 11.9983C26.0359 12.9553 26.3255 13.8905 26.8686 14.6759L28.1024 13.8228C27.7341 13.2903 27.5366 12.6542 27.538 12.0017L26.0381 11.9983ZM26.8686 14.6759C27.4117 15.4614 28.1822 16.0592 29.076 16.3856L29.5905 14.9766C28.9907 14.7575 28.4705 14.3552 28.1024 13.8228L26.8686 14.6759ZM28.5833 15.6811V23H30.0833V15.6811H28.5833ZM29.3333 22.25H1.33325V23.75H29.3333V22.25ZM2.08325 23V15.6811H0.583252V23H2.08325ZM1.59053 16.3856C2.48425 16.0592 3.25481 15.4614 3.79795 14.6759L2.56415 13.8228C2.19604 14.3552 1.67582 14.7575 1.07597 14.9766L1.59053 16.3856ZM3.79795 14.6759C4.34099 13.8905 4.63059 12.9553 4.62845 11.9983L3.12845 12.0017C3.12992 12.6542 2.93235 13.2903 2.56415 13.8228L3.79795 14.6759ZM4.62845 12.0017C4.63059 11.0447 4.34099 10.1095 3.79795 9.32414L2.56415 10.1772C2.93235 10.7097 3.12992 11.3458 3.12845 11.9983L4.62845 12.0017ZM3.79795 9.32414C3.25482 8.53861 2.48426 7.9408 1.59053 7.61441L1.07597 9.02339C1.67582 9.24246 2.19604 9.64482 2.56415 10.1772L3.79795 9.32414ZM18.9184 4.82852L9.99344 17.6027L11.2231 18.4618L20.1481 5.68761L18.9184 4.82852ZM12.4832 7.91936C12.4832 8.39676 12.1042 8.76613 11.6582 8.76613V10.2661C12.952 10.2661 13.9832 9.2057 13.9832 7.91936H12.4832ZM11.6582 8.76613C11.2123 8.76613 10.8333 8.39676 10.8333 7.91936H9.33325C9.33325 9.2057 10.3645 10.2661 11.6582 10.2661V8.76613ZM10.8333 7.91936C10.8333 7.44195 11.2123 7.07258 11.6582 7.07258V5.57258C10.3645 5.57258 9.33325 6.63301 9.33325 7.91936H10.8333ZM11.6582 7.07258C12.1042 7.07258 12.4832 7.44195 12.4832 7.91936H13.9832C13.9832 6.63301 12.952 5.57258 11.6582 5.57258V7.07258ZM19.8333 15.371C19.8333 15.8484 19.4542 16.2177 19.0082 16.2177V17.7177C20.302 17.7177 21.3333 16.6573 21.3333 15.371H19.8333ZM19.0082 16.2177C18.5623 16.2177 18.1833 15.8484 18.1833 15.371H16.6832C16.6832 16.6573 17.7145 17.7177 19.0082 17.7177V16.2177ZM18.1833 15.371C18.1833 14.8936 18.5623 14.5242 19.0082 14.5242V13.0242C17.7145 13.0242 16.6832 14.0846 16.6832 15.371H18.1833ZM19.0082 14.5242C19.4542 14.5242 19.8333 14.8936 19.8333 15.371H21.3333C21.3333 14.0846 20.302 13.0242 19.0082 13.0242V14.5242Z" fill="#101828"/>
</svg>
