<svg width="27" height="30" viewBox="0 0 27 30" fill="none" xmlns="http://www.w3.org/2000/svg">
<path d="M2.02699 8.27954L13.667 15.0129L25.307 8.27954M13.667 28.4395V14.9995M25.667 20.3329V9.66621C25.6665 9.19858 25.5431 8.73929 25.309 8.33443C25.075 7.92956 24.7386 7.59336 24.3337 7.35954L15.0003 2.02621C14.5949 1.79216 14.1351 1.66895 13.667 1.66895C13.1989 1.66895 12.739 1.79216 12.3337 2.02621L3.00033 7.35954C2.59534 7.59336 2.25897 7.92956 2.02494 8.33443C1.79092 8.73929 1.66747 9.19858 1.66699 9.66621V20.3329C1.66747 20.8005 1.79092 21.2598 2.02494 21.6647C2.25897 22.0695 2.59534 22.4057 3.00033 22.6395L12.3337 27.9729C12.739 28.2069 13.1989 28.3301 13.667 28.3301C14.1351 28.3301 14.5949 28.2069 15.0003 27.9729L24.3337 22.6395C24.7386 22.4057 25.075 22.0695 25.309 21.6647C25.5431 21.2598 25.6665 20.8005 25.667 20.3329Z" stroke="#101828" stroke-width="1.5" stroke-linecap="round" stroke-linejoin="round"/>
</svg>
