<svg width="10" height="6" viewBox="0 0 10 6" fill="none" xmlns="http://www.w3.org/2000/svg">
<path d="M5.00211 3.98378L1.26098 0.163078C1.15821 0.0578747 1.02081 0 0.874309 0C0.727724 0 0.590407 0.0578747 0.48748 0.163078L0.159837 0.497869C0.056748 0.602906 0 0.743316 0 0.892942C0 1.04257 0.056748 1.18281 0.159837 1.28793L4.61398 5.83709C4.71724 5.94262 4.8552 6.00041 5.00187 6C5.14919 6.00041 5.28699 5.9427 5.39033 5.83709L9.84016 1.29217C9.94325 1.18705 10 1.0468 10 0.897093C10 0.747467 9.94325 0.607224 9.84016 0.50202L9.51252 0.167313C9.29927 -0.0504842 8.95211 -0.0504842 8.73894 0.167313L5.00211 3.98378Z" fill="black"/>
</svg>
