<svg width="266" height="32" viewBox="0 0 266 32" fill="none" xmlns="http://www.w3.org/2000/svg">
<g clip-path="url(#clip0)">
<path fill-rule="evenodd" clip-rule="evenodd" d="M87.7939 19.7037C88.6781 20.7514 89.6445 21.5853 90.8505 22.0986C92.3391 22.7322 93.8746 22.8673 95.439 22.4322C95.7668 22.341 96.0922 22.1793 96.3703 21.982C97.6167 21.098 97.5719 19.373 96.2451 18.6239C95.6536 18.2899 94.9916 18.0708 94.3386 17.8547C94.269 17.8316 94.1995 17.8086 94.1301 17.7855C93.6303 17.6188 93.1244 17.4684 92.6186 17.3181L92.6186 17.3181C91.83 17.0837 91.0417 16.8493 90.2769 16.5535C88.421 15.8355 87.0268 14.6087 86.4927 12.5977C85.4693 8.74458 87.2046 5.12417 90.973 3.79625C95.4607 2.21488 99.7662 2.79303 103.738 5.49085C103.817 5.54453 103.889 5.60836 103.961 5.672C103.979 5.68811 103.998 5.7042 104.016 5.72011C104.042 5.7423 104.064 5.76775 104.095 5.80205C104.111 5.82057 104.13 5.84167 104.153 5.86623L100.997 9.93012C100.056 9.08713 99.0007 8.53393 97.8213 8.21229C96.6695 7.89821 95.5268 7.85687 94.3972 8.30417C93.5541 8.63805 93.0379 9.24296 92.9457 10.1551C92.8575 11.0266 93.206 11.7546 93.9723 12.1301C94.7995 12.5353 95.6752 12.8459 96.5476 13.1553C96.6674 13.1978 96.7872 13.2402 96.9068 13.283C97.3677 13.4475 97.835 13.5959 98.3021 13.7442L98.3022 13.7442C99.0073 13.968 99.7121 14.1917 100.394 14.4712C102.621 15.383 104.016 16.9935 104.232 19.4639C104.464 22.1164 103.555 24.2746 101.331 25.7993C99.477 27.0709 97.359 27.4752 95.1597 27.512C92.2747 27.5603 89.479 27.1379 86.8915 25.7659C85.9549 25.2693 85.1006 24.6592 84.3745 23.8306L87.7939 19.7037ZM60.4331 3.6039V26.8127H60.8838C61.3766 26.8127 61.8694 26.8117 62.3623 26.8106C63.7147 26.8076 65.0672 26.8047 66.4193 26.824C66.8484 26.8302 66.9184 26.6871 66.9171 26.3008C66.909 23.7662 66.9089 21.2315 66.9088 18.6968V18.6874C66.9088 17.1202 66.9087 15.553 66.9068 13.9859C66.9056 13.0628 67.0743 12.1763 67.4316 11.3293C68.1159 9.7069 69.3188 8.74191 71.0791 8.5063C73.421 8.19284 75.1763 9.33808 75.7266 11.6305C75.9303 12.4791 76.0127 13.3746 76.0193 14.2498C76.0412 17.1911 76.038 20.1325 76.0348 23.074C76.0336 24.1306 76.0324 25.1872 76.0324 26.2438L76.0324 26.7848H82.5202L82.5202 26.2524L82.5203 23.3038C82.5204 19.6201 82.5206 15.9364 82.5185 12.2526C82.5183 11.8518 82.5122 11.4494 82.4782 11.0504C82.3436 9.47282 81.9703 7.96315 81.1135 6.60942C79.8735 4.65008 78.0641 3.52985 75.8053 3.14976C73.2393 2.71798 70.7854 3.02924 68.5865 4.52183C68.1622 4.80984 67.7805 5.16071 67.3896 5.5201L67.3895 5.52025C67.2074 5.68765 67.0233 5.8569 66.832 6.0225L66.1103 3.6039H60.4331ZM159.398 22.5945C155.99 22.3357 154.19 19.7122 153.875 16.8753H171.456C171.424 16.4167 171.402 15.9617 171.38 15.51L171.38 15.5081L171.38 15.5076C171.332 14.5225 171.285 13.5538 171.137 12.601C170.643 9.43924 169.156 6.83463 166.475 4.99616C164.411 3.58045 162.085 3.00414 159.613 2.97963C156.365 2.94741 153.41 3.83777 150.986 6.06012C147.657 9.11216 146.585 12.9885 147.214 17.3598C147.736 20.9912 149.633 23.7675 152.809 25.6282C154.911 26.8594 157.215 27.3842 159.633 27.4557C162.321 27.5352 164.912 27.1359 167.308 25.8321C168.213 25.3399 169.049 24.7513 169.802 23.9827L165.49 20.4218L165.464 20.4403C165.448 20.4521 165.433 20.4624 165.419 20.4719C165.382 20.4975 165.355 20.5168 165.331 20.5405C163.693 22.2076 161.669 22.7669 159.398 22.5945ZM159.302 7.8168C163.023 7.76131 164.622 10.4391 164.876 12.7802H154.06C154.399 10.3722 156.195 7.86313 159.302 7.8168ZM40.3305 16.8965H57.8809C57.8521 16.4434 57.8325 15.995 57.8132 15.5506L57.8131 15.5505L57.8131 15.5504L57.8131 15.5503L57.8131 15.5502C57.7708 14.5801 57.7293 13.6292 57.5942 12.6919C57.2003 9.95876 56.0276 7.59182 53.9099 5.76329C51.4265 3.61893 48.4748 2.87381 45.2653 2.99518C42.2183 3.1104 39.482 4.08858 37.2599 6.21455C34.0249 9.30974 32.9971 13.1707 33.6766 17.5049C34.2375 21.0826 36.1329 23.8135 39.2741 25.6417C41.4542 26.9104 43.8423 27.4232 46.3415 27.4648C48.7227 27.5044 51.0335 27.1583 53.2035 26.1141C54.3183 25.5777 55.3286 24.8923 56.2467 23.9872L51.9366 20.426C51.912 20.4432 51.89 20.4573 51.8703 20.4699C51.834 20.4932 51.8055 20.5115 51.7823 20.535C50.121 22.2227 48.0699 22.7835 45.7709 22.5887C42.1755 22.2841 40.5494 19.3641 40.3305 16.8965ZM45.6604 7.82573C49.2451 7.7109 50.9944 10.154 51.3281 12.7862H40.4922C40.5911 10.2154 43.0027 7.91086 45.6604 7.82573ZM128.845 26.7924C128.802 26.7945 128.76 26.7972 128.718 26.8L128.718 26.8C128.628 26.8057 128.539 26.8114 128.45 26.8115C127.971 26.8119 127.493 26.8114 127.014 26.811C125.848 26.8099 124.681 26.8088 123.515 26.8197C123.215 26.8225 123.092 26.7222 123.023 26.4409C122.9 25.9471 122.764 25.4569 122.62 24.9416C122.561 24.7289 122.5 24.5118 122.439 24.2885C122.375 24.3584 122.317 24.4223 122.262 24.4822L122.262 24.4826C122.154 24.6005 122.061 24.7028 121.966 24.8033C120.392 26.4648 118.408 27.2207 116.173 27.3872C114.18 27.5356 112.273 27.2209 110.55 26.1463C108.446 24.8334 107.356 22.8569 106.971 20.4635C106.845 19.675 106.784 18.8678 106.781 18.0688C106.768 14.5692 106.77 11.0695 106.772 7.56981C106.772 6.38888 106.773 5.20794 106.773 4.02701V3.60385H113.27V4.1146C113.27 5.16191 113.269 6.20923 113.268 7.25655C113.265 10.2613 113.263 13.2661 113.281 16.2707C113.286 17.0534 113.37 17.8493 113.533 18.6148C114.101 21.2977 116.119 22.2299 118.461 21.8354C120.582 21.4781 121.699 20.0518 122.179 18.058C122.306 17.5306 122.364 16.9744 122.366 16.4311C122.378 13.3152 122.377 10.1992 122.375 7.08318V7.07759C122.375 6.10326 122.375 5.12893 122.375 4.1546V3.60771H128.845V26.7924ZM136.636 3.57503H132.504V26.7857H138.987L138.987 26.2887C138.987 25.2876 138.987 24.2866 138.987 23.2855C138.986 20.7436 138.985 18.2017 138.989 15.6598C138.991 14.4166 139.185 13.2037 139.741 12.0798C140.81 9.91947 143.006 8.88398 145.56 9.31528C145.798 9.35543 146.034 9.40647 146.284 9.46045C146.403 9.48637 146.526 9.51298 146.654 9.53938L147.604 3.34006C143.857 2.27432 141.086 3.61428 138.941 6.72859C138.873 6.44217 138.805 6.16464 138.739 5.89324C138.574 5.21957 138.419 4.58371 138.283 3.94361C138.219 3.64082 138.089 3.5535 137.799 3.56971C137.529 3.58482 137.258 3.5814 136.986 3.57797C136.87 3.5765 136.753 3.57503 136.636 3.57503Z" fill="white"/>
<path d="M177.081 3.38659C177.409 3.38659 177.714 3.3722 178.015 3.3963C178.095 3.40264 178.2 3.51569 178.23 3.6019C178.268 3.70915 178.242 3.8394 178.242 3.95972C178.242 11.6609 178.242 19.3621 178.241 27.0632C178.241 27.7572 178.315 27.6749 177.617 27.6817C177.447 27.6833 177.277 27.6819 177.081 27.6819C177.081 19.5662 177.081 11.4997 177.081 3.38659Z" fill="white"/>
<path fill-rule="evenodd" clip-rule="evenodd" d="M191.029 5.49623H191.05V4.68983C191.05 4.54993 190.937 4.43652 190.797 4.43652L184.363 4.43658V14.1044H191.05V13.039H185.665V9.67527H190.639V8.60313H185.668V5.49623H191.029ZM226.772 4.45658H225.676V5.82129H226.772V4.45658ZM225.677 7.14401H226.771V14.115H225.677V7.14401ZM257.59 24.7089C257.758 24.3413 257.917 24.2507 258.287 24.2555C258.47 24.2579 258.656 24.2597 258.87 24.2597C258.702 25.6014 257.685 26.5066 256.302 26.6197C253.477 26.8494 252.365 24.7756 252.569 22.4554C252.706 20.884 253.643 19.7568 254.958 19.4039C256.896 18.8846 258.601 20.0506 258.932 22.132C258.99 22.4984 259.045 23.3065 259.045 23.3065H253.818C253.63 24.3281 254.34 25.3557 255.35 25.5634C255.998 25.696 256.638 25.6723 257.184 25.2383C257.355 25.1032 257.503 24.8995 257.59 24.7089ZM257.737 22.2704C257.752 21.215 256.928 20.3749 255.868 20.336C254.694 20.293 253.845 21.0732 253.791 22.2704H257.737ZM241.036 22.9362C241.031 23.2765 241.064 23.6168 241.135 23.9571C241.073 23.6134 241.037 23.2723 241.036 22.9362ZM204.388 23.9092C204.278 24.8201 203.95 25.5388 203.266 26.0651C201.856 27.1486 199.458 26.6952 198.524 25.1883C197.767 23.9667 197.708 21.0166 199.417 19.8497C200.709 18.9679 202.812 19.1432 203.771 20.2502C204.125 20.6579 204.31 21.1351 204.324 21.7183C204.235 21.7183 204.145 21.7193 204.056 21.7204C203.814 21.7232 203.571 21.726 203.331 21.708C203.25 21.7019 203.138 21.5822 203.108 21.4919C202.853 20.7455 202.344 20.3608 201.554 20.3304C200.711 20.2979 199.997 20.5473 199.621 21.3442C199.103 22.4417 199.082 23.5719 199.631 24.6708C199.985 25.3797 200.731 25.7106 201.597 25.6079C202.4 25.5127 202.937 25.0801 203.129 24.2934C203.205 23.9772 203.335 23.8736 203.642 23.9045C203.8 23.9205 203.961 23.9169 204.135 23.9129C204.216 23.9111 204.3 23.9092 204.388 23.9092ZM249.655 19.4776H250.756V26.4712H249.655V19.4776ZM246.4 22.9912L246.4 22.9914V22.8393L246.4 22.8396V22.8388C246.406 22.8675 246.412 22.8971 246.419 22.9266L246.411 22.9532L246.405 22.9743L246.4 22.9916V22.9912ZM249.658 16.8117H250.753V18.1764H249.658V16.8117ZM230.034 26.5102H230.638C230.39 26.5102 230.034 26.5085 230.034 26.5085V26.5102ZM195.855 23.3183C196.965 23.3183 196.981 23.315 196.799 22.2173C196.585 20.9238 195.999 19.8514 194.678 19.4419C193.423 19.0527 192.267 19.3347 191.334 20.3133C190.074 21.6347 190.07 24.3459 191.321 25.6766C192.359 26.781 194.454 26.9769 195.68 26.0828C196.282 25.6437 196.607 25.0408 196.751 24.2623C196.655 24.2623 196.562 24.2614 196.471 24.2606C196.234 24.2583 196.014 24.2561 195.794 24.2708C195.714 24.2758 195.589 24.3687 195.571 24.443C195.33 25.4461 194.208 25.7948 193.175 25.5584C192.178 25.3304 191.509 24.3561 191.665 23.3183H195.855ZM193.664 20.3285C194.75 20.3504 195.623 21.2218 195.59 22.273H191.654C191.657 21.1441 192.535 20.3057 193.664 20.3285ZM190.004 16.8088H191.055H191.063V17.6228C191.063 17.7627 190.95 17.8761 190.81 17.8761C190.81 17.8761 188.878 17.8655 188.271 17.8669C187.924 17.8677 187.814 17.9469 187.816 18.31C187.829 20.2444 187.827 22.1789 187.826 24.1134C187.825 24.7328 187.825 25.3522 187.825 25.9716L187.825 26.4701H186.536L186.53 25.9986C186.53 25.9986 186.523 20.864 186.536 18.2968C186.537 17.9663 186.448 17.8578 186.111 17.8672C185.665 17.8796 185.218 17.8778 184.772 17.876H184.772H184.772H184.772H184.772H184.772H184.772H184.772H184.772H184.772H184.772H184.772H184.772H184.772H184.772H184.772H184.772C184.403 17.8745 184.033 17.873 183.664 17.8795C183.447 17.8834 183.325 17.8356 183.298 17.6702L183.296 17.6615L183.296 17.6565C183.293 17.643 183.291 17.6294 183.291 17.6152V16.8088H183.299H184.351H190.004ZM198.551 8.92983C198.536 8.35148 198.316 7.87277 197.887 7.52431C197.637 7.32129 197.334 7.19206 197.019 7.12713C196.75 7.0717 196.482 7.04445 196.219 7.04594L196.221 7.04439C196.221 7.04439 194.746 6.8966 193.852 8.07916V7.09276H193.024C192.885 7.09276 192.771 7.20616 192.771 7.34606L192.78 14.1113H193.901C193.901 14.1113 193.937 10.8034 193.937 10.5042C193.939 10.4104 193.942 10.3219 193.945 10.2414C193.946 10.2188 193.948 10.1966 193.95 10.1742L193.95 10.1741L193.951 10.1581L193.954 10.1268C193.955 10.1084 193.956 10.09 193.958 10.0722L193.96 10.0511L193.962 10.0359C194.174 8.12136 195.678 7.96856 195.921 7.95644C196.11 7.95497 196.3 7.97682 196.483 8.02691C197.145 8.20738 197.429 8.68957 197.429 9.63851C197.43 10.8158 197.429 14.0988 197.429 14.0988H198.566C198.566 14.0988 198.597 10.6394 198.551 8.92983ZM205.752 7.87122V4.46088H206.882V14.1118H205.777V13.3865C205.777 13.3865 205.147 13.8712 204.8 14.0257C204.796 14.0271 204.792 14.0289 204.788 14.0305C204.786 14.0318 204.783 14.0331 204.78 14.0341C204.673 14.0806 204.564 14.1211 204.452 14.154C204.416 14.1659 204.38 14.176 204.343 14.1861C204.321 14.192 204.301 14.1971 204.281 14.2022L204.256 14.2081L204.232 14.214C204.072 14.2503 203.907 14.2739 203.74 14.2832H203.735C203.677 14.2866 203.621 14.2883 203.563 14.2883C201.959 14.2883 200.622 13.0327 200.312 11.3643V11.3626C200.308 11.341 200.305 11.3194 200.302 11.2978L200.301 11.2968C200.264 11.0789 200.245 10.8543 200.245 10.6247C200.245 10.6061 200.245 10.5875 200.246 10.5689C200.273 8.57034 201.746 6.96101 203.563 6.96101C203.897 6.96101 204.219 7.01504 204.522 7.11637C204.983 7.2692 205.4 7.52926 205.752 7.87122ZM205.479 11.9546L205.482 11.9497C205.663 11.5901 205.772 11.171 205.786 10.7225V10.72C205.786 10.7147 205.786 10.7092 205.786 10.7037L205.786 10.7036L205.787 10.6944L205.787 10.6874C205.788 10.6679 205.788 10.6467 205.788 10.6246C205.788 10.6091 205.788 10.5937 205.787 10.579C205.781 10.1362 205.681 9.72196 205.512 9.36236C205.149 8.58932 204.463 8.06827 203.676 8.06827C202.559 8.06827 201.645 9.11935 201.57 10.4485C201.567 10.5007 201.564 10.5537 201.564 10.6067V10.6246C201.564 10.6524 201.564 10.6793 201.566 10.7062C201.573 10.9051 201.597 11.1049 201.641 11.3047C201.648 11.3373 201.657 11.3708 201.665 11.4042C201.666 11.4115 201.668 11.4181 201.67 11.4246C201.737 11.6839 201.836 11.9424 201.966 12.1992C202.299 12.8524 202.869 13.15 203.565 13.1786C203.584 13.1794 203.603 13.1794 203.622 13.1794C203.628 13.1794 203.635 13.1796 203.641 13.1798C203.647 13.18 203.654 13.1802 203.66 13.1802C203.703 13.18 203.746 13.1782 203.788 13.1752L203.799 13.1743L203.806 13.1736C203.844 13.1705 203.882 13.1667 203.919 13.1614L203.93 13.1597C203.968 13.1541 204.006 13.1475 204.044 13.1398L204.05 13.1386L204.056 13.1373C204.096 13.1288 204.135 13.1193 204.175 13.1084C204.184 13.106 204.194 13.1027 204.204 13.0995C204.769 12.9331 205.24 12.5156 205.479 11.9546ZM204.148 13.1157L204.121 13.1225L204.102 13.127L204.113 13.1247C204.124 13.1219 204.136 13.1189 204.148 13.1157ZM210.186 16.7761V13.3658C210.538 13.7077 210.955 13.9678 211.416 14.1206C211.719 14.222 212.041 14.276 212.375 14.276C214.192 14.276 215.665 12.6667 215.692 10.6681C215.693 10.6495 215.693 10.6309 215.693 10.6123C215.693 10.3827 215.674 10.1581 215.636 9.94024C215.633 9.91829 215.63 9.89635 215.625 9.87439V9.8727C215.316 8.20425 213.979 6.94871 212.375 6.94871C212.317 6.94871 212.261 6.95039 212.203 6.95377H212.198C212.031 6.96306 211.866 6.9867 211.706 7.02301L211.682 7.02892L211.657 7.03483L211.657 7.03491C211.637 7.03995 211.616 7.04499 211.595 7.05087C211.558 7.06101 211.522 7.07114 211.486 7.08296C211.374 7.11589 211.265 7.15641 211.158 7.20286L211.156 7.20375L211.15 7.20648C211.146 7.20815 211.142 7.20986 211.138 7.2113C210.791 7.36581 210.161 7.85047 210.161 7.85047V7.12517H209.056V16.7761H210.186ZM210.456 9.28729L210.459 9.2824C210.698 8.72138 211.169 8.30388 211.734 8.13754C211.744 8.13427 211.754 8.13101 211.763 8.12856C211.802 8.11771 211.842 8.1082 211.882 8.09971L211.888 8.09839L211.894 8.09721C211.932 8.08948 211.97 8.08288 212.008 8.07731L212.019 8.07557C212.056 8.07033 212.094 8.06648 212.132 8.06342L212.14 8.06272L212.15 8.0618C212.192 8.05877 212.235 8.05701 212.278 8.0568C212.284 8.0568 212.291 8.05701 212.297 8.05721L212.297 8.05721C212.303 8.05742 212.31 8.05762 212.316 8.05762C212.335 8.05762 212.354 8.05762 212.372 8.05844C213.069 8.08698 213.639 8.38461 213.972 9.03777C214.102 9.29463 214.201 9.55312 214.268 9.81242C214.27 9.81895 214.272 9.82548 214.273 9.83282C214.281 9.86624 214.29 9.89968 214.297 9.9323C214.341 10.1321 214.365 10.3319 214.372 10.5308C214.374 10.5577 214.374 10.5846 214.374 10.6124V10.6303C214.374 10.6833 214.371 10.7363 214.368 10.7885C214.293 12.1177 213.379 13.1687 212.262 13.1687C211.475 13.1687 210.789 12.6477 210.426 11.8747C210.256 11.515 210.157 11.1008 210.151 10.658C210.15 10.6433 210.15 10.6279 210.15 10.6124C210.15 10.5903 210.15 10.5691 210.151 10.5496C210.151 10.5443 210.151 10.5388 210.152 10.5333C210.152 10.5278 210.152 10.5223 210.152 10.517V10.5145C210.166 10.066 210.275 9.64689 210.456 9.28729ZM211.817 8.11452L211.791 8.12094C211.803 8.11789 211.814 8.11495 211.825 8.11226L211.836 8.11L211.817 8.11452ZM241.036 22.908V22.7358C241.036 22.2098 241.148 21.7108 241.35 21.2649C241.34 21.2884 241.331 21.3128 241.323 21.3371L241.323 21.3372L241.323 21.3373L241.323 21.3374L241.323 21.3376C241.141 21.8661 241.043 22.3997 241.037 22.9359L241.036 22.9257L241.036 22.9189L241.036 22.908ZM247.477 19.5433H246.428L246.417 20.1597C246.417 20.1597 245.7 19.6404 245.276 19.5163C245.193 19.4927 245.108 19.4716 245.026 19.453C245.024 19.453 245.022 19.453 245.021 19.4521C243.644 19.0587 241.956 19.7232 241.367 21.3139C241.357 21.3375 241.349 21.3619 241.34 21.3863L241.34 21.3864L241.34 21.3866C241.159 21.9151 241.061 22.4487 241.054 22.9849C241.055 23.321 241.09 23.6621 241.153 24.0057L241.153 24.0099C241.154 24.0128 241.154 24.0156 241.155 24.0184C241.186 24.1662 241.225 24.3139 241.271 24.4617C241.69 25.8059 242.775 26.5962 244.18 26.6013C245.075 26.6047 246.395 25.5433 246.395 25.5433C246.395 25.5433 246.388 25.789 246.383 25.9114C246.367 26.3294 246.332 26.7389 246.21 27.1197C245.942 27.9624 245.108 28.4572 244.263 28.4791C244.247 28.4791 244.231 28.4796 244.214 28.4798L244.195 28.48C244.164 28.48 244.132 28.4791 244.1 28.4774C242.87 28.4386 242.387 27.4524 242.331 27.3291C242.33 27.3249 242.328 27.3215 242.327 27.3198L242.327 27.3183L242.326 27.3172L242.325 27.3164C242.325 27.3164 241.686 27.3038 241.334 27.3072C241.392 28.1583 241.824 28.6995 242.524 29.017C243.583 29.4966 244.68 29.4932 245.771 29.1335C246.471 28.903 246.98 28.4183 247.197 27.7158C247.316 27.33 247.414 26.9247 247.462 26.5202C247.479 26.3708 247.49 26.2213 247.493 26.0727C247.509 25.1574 247.477 19.5433 247.477 19.5433ZM246.417 23.0406V23.4789C246.417 24.3697 245.922 25.1389 245.206 25.4935C245.052 25.5712 244.889 25.6277 244.716 25.664L244.683 25.6701C244.669 25.6726 244.655 25.6752 244.641 25.6776C244.637 25.6776 244.634 25.6784 244.631 25.6792C244.616 25.6814 244.602 25.6832 244.587 25.6849C244.573 25.6865 244.559 25.6882 244.545 25.6902L244.537 25.6909L244.529 25.6917L244.529 25.6917C244.522 25.6924 244.516 25.6931 244.508 25.6936C244.464 25.6978 244.419 25.7003 244.374 25.7012C244.333 25.7029 244.292 25.7037 244.251 25.7012H244.227L244.209 25.701C244.204 25.7009 244.199 25.7007 244.195 25.7003C243.733 25.6725 243.312 25.4876 242.976 25.1946C242.974 25.1935 242.972 25.1918 242.97 25.1903L242.97 25.1902L242.967 25.1878C242.505 24.7783 242.211 24.1653 242.211 23.4789V22.6396C242.211 22.0342 242.439 21.4853 242.812 21.0851C243.163 20.6199 243.695 20.3776 244.356 20.3767C245.076 20.3759 245.623 20.6646 245.959 21.254C246.246 21.6331 246.417 22.1152 246.417 22.6396V22.8878L246.425 22.9279C246.429 22.9437 246.432 22.9597 246.436 22.9756L246.428 23.0021C246.424 23.0148 246.421 23.0277 246.417 23.0406ZM239.838 7.4579C239.838 7.45221 239.838 7.44662 239.838 7.44124C239.838 7.34582 239.824 7.27406 239.795 7.22171C239.795 7.22109 239.794 7.22047 239.794 7.21986L239.794 7.21917C239.747 7.15331 239.671 7.11025 239.585 7.11025H239.272C239.12 7.11447 238.966 7.11363 238.807 7.1111C238.692 7.1094 238.451 7.10771 238.451 7.10771L238.426 5.2552C238.426 5.11505 238.313 5.0019 238.172 5.0019H237.261L237.263 7.10688H236.099V8.13023H237.269C237.269 8.13023 237.266 11.4477 237.28 12.8383C237.285 13.3247 237.391 13.7975 237.915 13.9875C238.416 14.1696 238.935 14.1505 239.455 14.1315C239.571 14.1272 239.688 14.1229 239.805 14.1209V13.1136C239.732 13.1136 239.663 13.1138 239.596 13.114C239.468 13.1144 239.347 13.1147 239.226 13.1136C238.532 13.1077 238.43 13.0097 238.428 12.3267C238.426 11.0694 238.453 8.13951 238.453 8.13951C238.453 8.13951 239.388 8.13951 239.467 8.14036H239.585C239.685 8.14036 239.773 8.08125 239.814 7.99513C239.827 7.9264 239.829 7.82636 239.832 7.68064C239.834 7.6205 239.835 7.55257 239.837 7.47586C239.837 7.46993 239.838 7.464 239.838 7.45818L239.838 7.4579ZM239.585 8.14057C239.552 8.14218 239.515 8.14148 239.472 8.14068L239.467 8.14057H239.585ZM234.713 14.0509C234.724 14.0197 234.732 13.995 234.732 13.9704C234.731 13.4967 234.733 13.0227 234.734 12.5488V12.5487V12.5487V12.5486V12.5485V12.5485V12.5484V12.5483V12.5483C234.737 11.3635 234.74 10.1784 234.709 8.99466C234.683 7.98565 234.179 7.34395 233.331 7.08473C232.896 6.95132 232.351 6.89053 231.815 6.98003L231.813 6.98022L231.81 6.98087H231.808L231.794 6.98344L231.79 6.98424L231.762 6.98932C231.546 7.02984 231.332 7.09486 231.129 7.18942C230.723 7.36421 230.249 7.67155 230.029 8.19336C230.032 7.92233 230.022 7.17845 230.022 7.17845H229.215C229.076 7.17845 228.962 7.29159 228.962 7.43176V14.114H230.097C230.097 14.114 230.104 10.7036 230.105 10.4638C230.107 10.376 230.11 10.289 230.113 10.2012C230.131 9.80017 230.224 9.37546 230.384 9.00141C230.591 8.57163 230.881 8.32255 231.145 8.17816C231.335 8.08106 231.545 8.0152 231.763 7.98143C231.792 7.97805 231.809 7.97805 231.809 7.97805L231.808 7.97383C232.085 7.93752 232.371 7.95187 232.641 8.02533C233.302 8.20602 233.591 8.69322 233.593 9.63805C233.593 10.5297 233.593 11.4218 233.593 12.3137L233.593 13.6513V14.1089H234.694C234.701 14.0869 234.707 14.0679 234.713 14.0509ZM219.725 26.3413C219.725 26.3659 219.717 26.3905 219.706 26.4218L219.706 26.4222C219.702 26.4334 219.698 26.4455 219.694 26.4587L219.692 26.4646L219.687 26.4798H218.585V26.0221L218.586 24.6845C218.586 23.7926 218.586 22.9006 218.585 22.0089C218.584 21.0641 218.295 20.5769 217.634 20.3962C217.364 20.3227 217.077 20.3084 216.8 20.3447L216.802 20.3489C216.802 20.3489 216.785 20.3489 216.756 20.3523C216.538 20.3861 216.328 20.4519 216.138 20.549C215.873 20.6934 215.584 20.9425 215.377 21.3723C215.216 21.7463 215.124 22.171 215.106 22.5721C215.102 22.6599 215.1 22.7469 215.097 22.8347C215.097 23.0745 215.09 26.4848 215.09 26.4848H213.955V19.8026C213.955 19.6625 214.069 19.5493 214.208 19.5493H215.015C215.015 19.5493 215.025 20.2932 215.021 20.5642C215.242 20.0424 215.716 19.7351 216.122 19.5603C216.325 19.4657 216.539 19.4007 216.755 19.3602L216.783 19.355C216.791 19.3536 216.797 19.3526 216.8 19.3517H216.803L216.806 19.3511L216.808 19.3509C217.343 19.2614 217.889 19.3222 218.324 19.4556C219.171 19.7148 219.675 20.3565 219.702 21.3655C219.733 22.5495 219.73 23.7349 219.727 24.9199L219.727 24.9225V24.9225V24.9226V24.9227V24.9227V24.9228V24.9229C219.726 25.3958 219.724 25.8686 219.725 26.3413ZM230.918 26.5099C231.058 26.5099 231.171 26.3959 231.171 26.2566L231.163 17.0244C231.163 16.8851 231.049 16.7711 230.909 16.7711H230.034V26.5082L230.918 26.5099ZM244.16 28.4306C244.134 28.4306 244.108 28.4298 244.083 28.4281C244.115 28.4298 244.146 28.4306 244.177 28.4306H244.16ZM217.057 10.6295C217.057 8.60062 218.586 6.95587 220.473 6.95587C222.359 6.95587 223.888 8.60062 223.888 10.6295C223.888 12.6584 222.359 14.3032 220.473 14.3032C218.586 14.3032 217.057 12.6584 217.057 10.6295ZM218.361 10.6295C218.361 12.0407 219.306 13.1847 220.473 13.1847C221.639 13.1847 222.584 12.0407 222.584 10.6295C222.584 9.21835 221.639 8.07437 220.473 8.07437C219.306 8.07437 218.361 9.21835 218.361 10.6295ZM224.881 19.3009C222.995 19.3009 221.465 20.9457 221.465 22.9746C221.465 25.0035 222.995 26.6482 224.881 26.6482C226.768 26.6482 228.297 25.0035 228.297 22.9746C228.297 20.9457 226.768 19.3009 224.881 19.3009ZM224.881 25.5297C223.715 25.5297 222.77 24.3857 222.77 22.9746C222.77 21.5634 223.715 20.4194 224.881 20.4194C226.047 20.4194 226.992 21.5634 226.992 22.9746C226.992 24.3857 226.047 25.5297 224.881 25.5297ZM232.962 22.9746C232.962 20.9457 234.491 19.3009 236.378 19.3009C238.264 19.3009 239.794 20.9457 239.794 22.9746C239.794 25.0035 238.264 26.6482 236.378 26.6482C234.491 26.6482 232.962 25.0035 232.962 22.9746ZM234.266 22.9746C234.266 24.3857 235.212 25.5297 236.378 25.5297C237.544 25.5297 238.489 24.3857 238.489 22.9746C238.489 21.5634 237.544 20.4194 236.378 20.4194C235.212 20.4194 234.266 21.5634 234.266 22.9746ZM266.069 24.3154L266.069 24.3155C266.027 23.7367 265.726 23.1728 265.071 22.8614C264.762 22.7152 264.427 22.6213 264.093 22.5279C264.001 22.502 263.909 22.4762 263.818 22.4494C263.595 22.3836 263.371 22.3236 263.147 22.2635C262.778 22.1647 262.409 22.0659 262.049 21.9419C261.794 21.8535 261.585 21.6894 261.509 21.4392L261.508 21.4359C261.503 21.4198 261.499 21.4031 261.495 21.3863C261.444 21.1151 261.562 20.4481 262.765 20.3949C262.804 20.3936 262.843 20.3925 262.881 20.3919C262.892 20.3918 262.902 20.3914 262.913 20.3914L262.931 20.3914C263.866 20.3947 264.292 20.8576 264.476 21.1843C264.567 21.3622 264.606 21.5003 264.606 21.5003H265.73C265.73 20.6906 265.388 20.1738 264.942 19.8437C264.761 19.7103 264.564 19.6081 264.366 19.5288C264.139 19.4384 263.911 19.3785 263.706 19.3396C263.676 19.3337 263.645 19.3284 263.615 19.3231L263.603 19.3211C263.574 19.316 263.544 19.3109 263.516 19.3067L263.5 19.3043C263.491 19.3032 263.483 19.3022 263.475 19.3012L263.471 19.3008L263.453 19.2983L263.428 19.2957C263.418 19.2933 263.408 19.2924 263.399 19.2916L263.398 19.2915C263.389 19.2906 263.38 19.289 263.372 19.289L263.346 19.2863C263.322 19.2839 263.299 19.2815 263.277 19.2797C263.255 19.2774 263.234 19.2758 263.214 19.2742L263.208 19.2738C263.179 19.2718 263.152 19.2704 263.126 19.2691L263.104 19.2679L263.097 19.2676C263.079 19.2668 263.062 19.2662 263.046 19.2662C262.975 19.2636 262.935 19.2645 262.935 19.2645C262.935 19.2645 261.439 19.2235 260.677 20.102L260.664 20.1167L260.66 20.1207C260.379 20.436 260.239 20.8436 260.24 21.3272C260.24 21.337 260.241 21.3464 260.241 21.3562L260.241 21.36L260.241 21.3641L260.242 21.3638C260.256 22.0515 260.582 22.5529 261.198 22.82C261.554 22.9747 261.932 23.0814 262.309 23.188L262.31 23.1881C262.46 23.2304 262.61 23.2728 262.758 23.3182C262.92 23.3673 263.084 23.4121 263.247 23.457C263.573 23.5464 263.9 23.6358 264.213 23.759C264.677 23.9402 264.836 24.195 264.827 24.5976V24.5977C264.826 24.6245 264.825 24.652 264.823 24.6801C264.821 24.7075 264.817 24.734 264.813 24.7598L264.811 24.7757C264.809 24.7821 264.808 24.7884 264.807 24.7946L264.805 24.8045C264.673 25.368 263.948 25.6221 263.152 25.6322C262.86 25.6312 262.569 25.5897 262.278 25.5051C262.192 25.4802 262.112 25.4507 262.035 25.417C261.267 25.0343 261.263 24.2765 261.263 24.2765H260.877C260.711 24.2707 260.545 24.2727 260.379 24.2746C260.296 24.2756 260.213 24.2765 260.131 24.2765C260.131 24.2765 259.824 26.5463 262.891 26.6462L262.909 26.6468C262.972 26.6487 263.036 26.65 263.103 26.65C266.396 26.65 266.069 24.3154 266.069 24.3154ZM210.43 19.4204C211.278 19.6796 211.782 20.3213 211.808 21.3303C211.852 22.9878 211.794 26.4445 211.794 26.4445H210.692C210.692 26.4445 210.693 23.3111 210.692 21.9737C210.69 21.0289 210.401 20.5417 209.74 20.361C209.47 20.2875 209.184 20.2732 208.907 20.3095L208.908 20.3137C208.908 20.3137 208.891 20.3137 208.862 20.3171C208.644 20.3508 208.434 20.4167 208.244 20.5138C207.98 20.6582 207.69 20.9073 207.483 21.337C207.323 21.7111 207.23 22.1358 207.212 22.5369C207.209 22.6247 207.206 22.7117 207.204 22.7995C207.203 23.0393 207.196 26.4496 207.196 26.4496H206.061V17.0617C206.061 16.9239 206.173 16.8122 206.311 16.8122H207.121H207.124V17.8643C207.126 18.9018 207.13 20.3567 207.128 20.529C207.348 20.0072 207.823 19.6998 208.228 19.5251C208.431 19.4305 208.645 19.3655 208.861 19.325C208.872 19.3229 208.881 19.3212 208.889 19.3199C208.897 19.3185 208.903 19.3174 208.907 19.3165H208.909C208.913 19.3157 208.914 19.3157 208.914 19.3157C209.45 19.2262 209.995 19.287 210.43 19.4204Z" fill="white"/>
<circle cx="14.4807" cy="15.1785" r="14.4807" fill="url(#paint0_linear)"/>
<g filter="url(#filter0_f)">
<circle cx="9.67276" cy="12.5661" r="7.25455" fill="white"/>
</g>
</g>
<defs>
<filter id="filter0_f" x="-9.6727" y="-6.77938" width="38.6908" height="38.6911" filterUnits="userSpaceOnUse" color-interpolation-filters="sRGB">
<feFlood flood-opacity="0" result="BackgroundImageFix"/>
<feBlend mode="normal" in="SourceGraphic" in2="BackgroundImageFix" result="shape"/>
<feGaussianBlur stdDeviation="6.04545" result="effect1_foregroundBlur"/>
</filter>
<linearGradient id="paint0_linear" x1="5.39449e-08" y1="15.1785" x2="28.9615" y2="15.1785" gradientUnits="userSpaceOnUse">
<stop stop-color="#2047F4"/>
<stop offset="1" stop-color="#4D6CF5"/>
</linearGradient>
<clipPath id="clip0">
<rect width="266" height="31.1893" fill="white" transform="translate(0 0.475586)"/>
</clipPath>
</defs>
</svg>
