<svg width="184" height="32" viewBox="0 0 184 32" fill="none" xmlns="http://www.w3.org/2000/svg">
<g clip-path="url(#clip0)">
<path d="M172.5 5.59999H179.5C181.9 5.59999 183.7 7.59999 183.5 9.99999L183.3 12C183.1 14 181.4 15.6 179.3 15.6H167.9L168.6 9.19999C168.7 7.09999 170.4 5.59999 172.5 5.59999Z" fill="#ED2939"/>
<path d="M177.6 8.79998C179.2 11.5 176 14.5 173.5 12.6C173.4 12.5 173.4 12.5 173.3 12.4C171.7 9.69998 174.9 6.69998 177.4 8.59998C177.5 8.69998 177.6 8.69998 177.6 8.79998Z" fill="white"/>
<path d="M178.5 8.89999C180.1 11.5 177 14.3 174.6 12.5C174.5 12.5 174.5 12.4 174.4 12.3C172.8 9.69999 175.9 6.89999 178.3 8.69999C178.4 8.79999 178.4 8.79999 178.5 8.89999Z" fill="#ED2939"/>
<path d="M175.8 10.6L175.5 10.3L175.1 10.6L175.3 10.2L175 9.89998H175.4L175.6 9.49998L175.7 9.89998H176.1L175.7 10.2L175.8 10.6Z" fill="white"/>
<path d="M41.1 25.5L43.2 5.69998H48C48.9 5.69998 49.7 5.79998 50.4 5.99998C51.1 6.19998 51.6 6.39998 52.1 6.79998C52.6 7.19998 52.9 7.69998 53.1 8.29998C53.2 8.69998 53.3 9.19998 53.3 9.79998C53.3 10.1 53.3 10.4 53.2 10.7C52.9 13.2 51.8 14.5 49.9 14.8C51 15 51.9 15.6 52.4 16.3C52.8 16.9 53 17.7 52.9 18.7C52.9 19 52.9 19.3 52.9 19.7C52.7 21.6 52.1 23 51.1 24C50.1 25 48.6 25.5 46.8 25.5H41.1ZM44.9 23H46.3C47 23 47.6 22.9 48.1 22.6C48.5 22.4 48.9 22 49.1 21.6C49.3 21.1 49.5 20.5 49.5 19.7C49.5 19.4 49.5 19.2 49.5 18.9C49.5 18.1 49.3 17.5 49 17C48.6 16.5 47.8 16.2 46.7 16.2H45.5L44.9 23ZM45.9 13.8H47C48.1 13.8 48.8 13.6 49.3 13.1C49.8 12.6 50 11.9 50.1 10.8C50.1 10.6 50.1 10.4 50.1 10.3C50.1 10.1 50.1 9.89998 50 9.69998C49.9 9.39998 49.8 9.09998 49.7 8.89998C49.6 8.69998 49.3 8.59998 49 8.49998C48.7 8.39998 48.4 8.29998 48.1 8.29998C47.8 8.29998 47.4 8.29998 46.8 8.29998H46.3L45.9 13.8Z" fill="#151E34"/>
<path d="M54.3 25.5L56.4 5.69998H64.6L64.3 8.19998H59.6L59 14H62.7L62.4 16.5H58.7L58 23.1H62.8L62.5 25.5H54.3Z" fill="#151E34"/>
<path d="M68.1 25.5L69.9 8.29998H66.6L66.9 5.69998H77L76.7 8.29998H73.5L71.7 25.5H68.1Z" fill="#151E34"/>
<path d="M80.9 25.5L87 5.79999H90.6L92.6 25.6H89.3L89 20.9H85.5L84.2 25.5H80.9ZM86.2 18.6H88.9L88.4 10.4L86.2 18.6Z" fill="#151E34"/>
<path d="M94.6 25.5L96.7 5.69998H101.3C102.5 5.69998 103.5 5.79998 104.2 6.09998C105 6.29998 105.6 6.69998 106 7.19998C106.4 7.69998 106.7 8.29998 106.8 9.09998C106.9 9.49998 106.9 9.89998 106.9 10.4C106.9 10.8 106.9 11.3 106.8 11.8L106 18.9C105.9 20 105.7 21 105.4 21.8C105.1 22.6 104.7 23.3 104.2 23.8C103.7 24.4 103 24.8 102.2 25C101.4 25.3 100.4 25.4 99.3 25.4H94.6V25.5ZM98.4 23H99.5C100 23 100.4 22.9 100.8 22.8C101.1 22.7 101.4 22.5 101.6 22.4C101.8 22.2 102 21.9 102.1 21.5C102.2 21.1 102.3 20.7 102.4 20.4C102.4 20.1 102.5 19.6 102.6 18.9L103.4 11.8C103.5 11.3 103.5 10.8 103.5 10.4C103.5 10.2 103.5 9.99998 103.5 9.79998C103.5 9.29998 103.2 8.89998 102.9 8.69998C102.5 8.49998 102 8.29998 101.1 8.29998H100.1L98.4 23Z" fill="#151E34"/>
<path d="M109.9 25.5L107.9 5.69998H111L112.2 19.5L116.1 5.69998H119.3L113.2 25.5H109.9Z" fill="#151E34"/>
<path d="M120.4 25.5L122.5 5.69998H126L123.9 25.5H120.4Z" fill="#151E34"/>
<path d="M131.6 25.5C128.4 25.5 126.9 23.8 126.9 20.4C126.9 20.2 126.9 19.9 126.9 19.6L130 19C130 19.3 130 19.6 130 19.9C130 21.9 130.6 22.9 131.9 22.9C132.5 22.9 132.9 22.7 133.2 22.4C133.5 22.1 133.7 21.6 133.7 21C133.7 20.9 133.7 20.7 133.7 20.6C133.7 20.2 133.6 19.9 133.5 19.5C133.4 19.1 133.2 18.7 132.9 18.4C132.7 18.1 132.3 17.8 131.9 17.4L129.5 15.1C128.8 14.5 128.4 13.8 128.1 13.1C127.9 12.6 127.8 12 127.8 11.3C127.8 11 127.8 10.8 127.8 10.5C128 8.99998 128.5 7.89998 129.5 6.99998C130.5 6.19998 131.7 5.79998 133.2 5.69998H133.3C134 5.69998 134.5 5.79998 135 5.89998C135.5 6.09998 135.9 6.29998 136.3 6.59998C136.6 6.89998 136.9 7.29998 137.1 7.69998C137.3 8.19998 137.4 8.59998 137.5 9.09998C137.6 9.49998 137.6 9.89998 137.6 10.4C137.6 10.5 137.6 10.6 137.6 10.7L134.6 11.3C134.6 11 134.6 10.8 134.6 10.6C134.6 10.4 134.6 10.2 134.6 10.1C134.6 9.69998 134.5 9.39998 134.4 9.09998C134.3 8.79998 134.1 8.59998 133.9 8.39998C133.7 8.29998 133.4 8.19998 133.1 8.19998H133C132.5 8.19998 132 8.39998 131.7 8.69998C131.4 8.99998 131.2 9.39998 131.1 9.99998C131.1 10.1 131.1 10.3 131.1 10.4C131.1 10.8 131.2 11.2 131.3 11.5C131.5 11.9 131.8 12.3 132.3 12.8L134.7 15.1C135.5 15.9 136.1 16.7 136.5 17.6C136.8 18.3 137 19 137 19.9C137 20.2 137 20.4 137 20.7C136.9 22.1 136.3 23.2 135.3 24.1C134.3 25.1 133.1 25.5 131.6 25.5Z" fill="#151E34"/>
<path d="M143.6 25.5C142.6 25.5 141.7 25.4 141.1 25.1C140.4 24.8 139.9 24.4 139.5 23.8C139.1 23.2 138.9 22.6 138.8 21.8C138.7 21.4 138.7 21 138.7 20.5C138.7 20.1 138.7 19.6 138.8 19.1L139.6 12C139.8 9.89998 140.4 8.39998 141.4 7.29998C142.4 6.19998 143.8 5.69998 145.8 5.69998C147.8 5.69998 149.1 6.19998 149.9 7.29998C150.5 8.09998 150.8 9.19998 150.8 10.7C150.8 11.1 150.8 11.5 150.7 12L149.9 19.1C149.7 21.2 149.1 22.7 148.1 23.8C147 25 145.5 25.5 143.6 25.5ZM143.8 23C144.1 23 144.5 22.9 144.7 22.8C145 22.7 145.2 22.6 145.3 22.4C145.4 22.2 145.6 22 145.7 21.7C145.8 21.4 145.9 21.2 146 20.9C146.1 20.6 146.1 20.3 146.1 19.9L147 11.2C147 10.9 147 10.5 147 10.2C147 9.99998 147 9.79998 147 9.59998C147 9.19998 146.8 8.79998 146.5 8.59998C146.2 8.29998 145.8 8.19998 145.2 8.19998C144.8 8.19998 144.4 8.29998 144.1 8.39998C143.8 8.49998 143.6 8.69998 143.4 8.99998C143.2 9.29998 143.1 9.59998 143 9.89998C142.9 10.2 142.9 10.6 142.8 11.1L141.9 19.8C141.9 20.2 141.9 20.5 141.9 20.8C141.9 21 141.9 21.1 141.9 21.3C141.9 21.8 142.1 22.1 142.4 22.4C142.8 22.8 143.3 23 143.8 23Z" fill="#151E34"/>
<path d="M151.6 25.5L153.7 5.69998H158.1C159.1 5.69998 160 5.79998 160.8 5.99998C161.5 6.19998 162.1 6.49998 162.7 6.89998C163.2 7.29998 163.6 7.79998 163.8 8.49998C163.9 8.99998 164 9.49998 164 9.99998C164 10.3 164 10.6 164 11C163.7 13.5 162.8 15.1 161 15.7L162.8 25.4H159.3L157.8 16.4H156.2L155.2 25.4H151.6V25.5ZM156.3 14.2H157.1C158.2 14.2 159 14 159.5 13.5C160 13.1 160.3 12.3 160.4 11.2C160.4 10.9 160.4 10.7 160.4 10.5C160.4 9.79998 160.3 9.29998 160 8.89998C159.7 8.39998 158.9 8.19998 157.9 8.19998H156.9L156.3 14.2Z" fill="#151E34"/>
<path d="M26.1 31.3H8L9.1 23.4C9.6 19.9 12.5 17.3 16 17.3H26.1C30.3 17.3 33.6 21 33 25.2C32.6 28.7 29.6 31.3 26.1 31.3Z" fill="#0A4586"/>
<path d="M26.1 31.3H12L13.1 23.4C13.6 19.9 16.5 17.3 20 17.3H26.1C30.3 17.3 33.6 21 33 25.2C32.6 28.7 29.6 31.3 26.1 31.3Z" fill="#328FD9"/>
<path d="M18.1 14H0L1.1 6.09998C1.6 2.59998 4.5 -1.52588e-05 8 -1.52588e-05H18.1C22.3 -1.52588e-05 25.6 3.69999 25 7.89998C24.6 11.4 21.6 14 18.1 14Z" fill="#B32D11"/>
<path d="M18.1 14H4L5.1 6.09998C5.5 2.59998 8.5 -1.52588e-05 12 -1.52588e-05H18.1C22.3 -1.52588e-05 25.6 3.69999 25 7.89998C24.6 11.4 21.6 14 18.1 14Z" fill="#ED2939"/>
</g>
<defs>
<clipPath id="clip0">
<rect width="183.5" height="31.3" fill="white"/>
</clipPath>
</defs>
</svg>
