<svg width="75" height="25" viewBox="0 0 75 25" fill="none" xmlns="http://www.w3.org/2000/svg">
<path d="M25.6548 0.547589V24.3261C25.6548 24.4719 25.6005 24.5999 25.4913 24.7096C25.382 24.8192 25.2422 24.8737 25.0726 24.8737H21.1424C20.9721 24.8737 20.833 24.8192 20.7237 24.7096C20.6145 24.5999 20.5602 24.4719 20.5602 24.3261V9.13124L15.2838 18.3721C15.0653 18.7624 14.7742 18.9565 14.4105 18.9565H11.3902C11.0265 18.9565 10.7354 18.7624 10.5169 18.3721L5.09459 9.13124V24.3261C5.09459 24.4719 5.0403 24.5999 4.93106 24.7096C4.82181 24.8192 4.68203 24.8737 4.51239 24.8737H0.5822C0.411883 24.8737 0.272779 24.8192 0.163532 24.7096C0.0542844 24.5999 0 24.4719 0 24.3261V0.547589C0 0.401837 0.0542844 0.273794 0.163532 0.16414C0.272779 0.0544864 0.412561 0 0.5822 0H4.73088C5.19162 0 5.53158 0.194789 5.75007 0.584367L12.8098 12.8935L19.9054 0.584367C20.0995 0.194789 20.4272 0 20.888 0H25.0726C25.2422 0 25.382 0.0544864 25.4913 0.16414C25.6005 0.273794 25.6548 0.401156 25.6548 0.547589Z" fill="white"/>
<path d="M30.0221 0H47.5621C47.7317 0 47.8715 0.0544864 47.9808 0.16414C48.09 0.273794 48.1443 0.401156 48.1443 0.547589V4.12735C48.1443 4.27378 48.09 4.40114 47.9808 4.5108C47.8715 4.62045 47.7317 4.67494 47.5621 4.67494H34.6804V10.0446H45.6703C45.8162 10.0446 45.9431 10.0991 46.0523 10.2087C46.1616 10.3184 46.2159 10.4457 46.2159 10.5922V14.1351C46.2159 14.3061 46.1609 14.4457 46.0523 14.5554C45.9431 14.665 45.8155 14.7195 45.6703 14.7195H34.6804V20.2349H47.5621C47.9502 20.2349 48.1443 20.4174 48.1443 20.7825V24.3255C48.1443 24.4712 48.09 24.5993 47.9808 24.7089C47.8715 24.8186 47.7317 24.8731 47.5621 24.8731H30.0221C29.8518 24.8731 29.7127 24.8186 29.6035 24.7089C29.4942 24.5993 29.4399 24.4712 29.4399 24.3255V0.547589C29.4399 0.401156 29.4942 0.273794 29.6035 0.16414C29.7127 0.0544864 29.8518 0 30.0221 0V0Z" fill="white"/>
<path d="M59.2039 10.0996H57.1269C56.7903 10.0996 56.5182 9.82582 56.5182 9.48869V7.4039C56.5182 7.06608 56.2454 6.79297 55.9095 6.79297H52.4699C52.1334 6.79297 51.8613 7.06676 51.8613 7.4039V9.48869C51.8613 9.8265 51.5885 10.0996 51.2526 10.0996H49.1756C48.839 10.0996 48.5669 10.3734 48.5669 10.7105V14.1629C48.5669 14.5008 48.8397 14.7739 49.1756 14.7739H51.2526C51.5892 14.7739 51.8613 15.0477 51.8613 15.3848V17.4696C51.8613 17.8074 52.1341 18.0805 52.4699 18.0805H55.9095C56.2461 18.0805 56.5182 17.8067 56.5182 17.4696V15.3848C56.5182 15.047 56.791 14.7739 57.1269 14.7739H59.2039C59.5405 14.7739 59.8126 14.5001 59.8126 14.1629V10.7105C59.8126 10.3727 59.5398 10.0996 59.2039 10.0996Z" fill="url(#paint0_linear_601_1046)"/>
<path d="M72.0155 3.79838C69.6378 1.26613 66.2294 0 61.7897 0H52.5104C52.3401 0 52.201 0.0544864 52.0918 0.16414C51.9825 0.273794 51.9282 0.401156 51.9282 0.547589V3.80656C51.9282 4.14505 52.2017 4.41953 52.5389 4.41953H61.0622C64.0703 4.41953 66.3027 5.19937 67.7582 6.75768C69.019 8.09736 69.6507 9.98464 69.6507 12.4188C69.6507 15.8767 68.4137 18.2264 65.939 19.468C64.6043 20.1252 62.9425 20.4542 60.9537 20.4542H52.5396C52.2024 20.4542 51.9289 20.7287 51.9289 21.0672V24.3261C51.9289 24.4719 51.9832 24.5999 52.0924 24.7096C52.2017 24.8192 52.3408 24.8737 52.5111 24.8737H61.3174C64.6165 24.8737 67.3341 24.2778 69.4689 23.0839C73.1561 20.9895 74.9998 17.435 74.9998 12.4181C74.9998 8.79002 74.005 5.91654 72.0155 3.7977V3.79838Z" fill="white"/>
<defs>
<linearGradient id="paint0_linear_601_1046" x1="48.5669" y1="6.79297" x2="59.8966" y2="18.081" gradientUnits="userSpaceOnUse">
<stop stop-color="#359D9E"/>
<stop offset="1" stop-color="#55C595"/>
</linearGradient>
</defs>
</svg>
