<svg width="135" height="18" viewBox="0 0 135 18" fill="none" xmlns="http://www.w3.org/2000/svg">
<path d="M17.8847 0.415039H20.4728L26.6115 16.5822H24.1014L22.3261 11.7507H15.6998L13.8725 16.5947H11.5142L17.8847 0.415039ZM21.6758 9.96612L19.0747 2.81939L16.3739 9.96612H21.6758Z" fill="white"/>
<path d="M49.1806 0.415039H51.7666L57.9073 16.5822H55.3973L53.6307 11.7383H46.9935L45.1597 16.5822H42.8101L49.1806 0.415039ZM52.9804 9.96197L50.3793 2.81525L47.6698 9.96612L52.9804 9.96197Z" fill="white"/>
<path d="M69.8356 0.881073C71.4931 1.72536 72.5047 3.20459 72.8703 5.31876H70.6095C70.3392 4.13731 69.7793 3.27644 68.9296 2.73615C68.0799 2.19587 67.0084 1.92641 65.715 1.9278C64.9794 1.91796 64.2505 2.06395 63.5808 2.3553C62.9111 2.64665 62.3172 3.07612 61.8416 3.61291C60.7867 4.73494 60.2592 6.40832 60.2592 8.63303C60.2592 10.5565 60.6927 12.1221 61.5598 13.3298C62.4268 14.5375 63.8372 15.1414 65.7909 15.1414C67.288 15.1414 68.5279 14.7172 69.5105 13.8687C70.4931 13.0203 70.9989 11.6495 71.0278 9.75645H65.7259V7.93867H73.1542V16.5943H71.6803L71.1275 14.5216C70.3645 15.3369 69.6882 15.9021 69.0987 16.2171C68.1102 16.7602 66.853 17.0317 65.327 17.0317C63.4434 17.0624 61.6207 16.3937 60.2419 15.1662C58.6913 13.6089 57.9168 11.472 57.9182 8.75532C57.9197 6.03868 58.6762 3.88375 60.1877 2.29052C61.627 0.763619 63.4889 0.000168663 65.7736 0.000168663C67.1832 -0.0340543 68.5794 0.268734 69.8356 0.881073Z" fill="white"/>
<path d="M96.9868 0.415039H99.5727L105.714 16.5822H103.201L101.443 11.7507H94.7997L92.9659 16.5947H90.6162L96.9868 0.415039ZM100.793 9.96612L98.192 2.81939L95.476 9.96612H100.793Z" fill="white"/>
<path d="M121.676 0.415039H123.986V7.1037H132.681V0.415039H134.996V16.5822H132.685V9.02925H123.986V16.5947H121.676V0.415039Z" fill="white"/>
<path d="M27.9966 0.415039H35.6872C36.9531 0.415039 37.9971 0.594675 38.8194 0.953946C40.3772 1.64485 41.1568 2.91888 41.1582 4.77604C41.1582 5.7433 40.9494 6.53577 40.5318 7.15344C40.0936 7.78803 39.4879 8.3007 38.776 8.63958C39.359 8.8437 39.8741 9.19373 40.2673 9.65314C40.6011 10.0677 40.7868 10.7468 40.8244 11.6906L40.8504 13.8877C40.8743 14.5095 38.6698 15.4339 38.6395 14.8018L38.5571 12.0803C38.5051 11.0232 38.1062 10.315 37.3606 9.95576C36.9271 9.75678 36.2595 9.65729 35.3577 9.65729H30.2877V16.5947H27.9966V0.415039ZM35.4401 7.82915C36.4849 7.82915 37.3115 7.62188 37.9198 7.20733C38.5282 6.79279 38.8324 6.05145 38.8324 4.98331C38.8324 3.83088 38.4068 3.04532 37.5557 2.62663C36.9824 2.38232 36.3576 2.26878 35.7306 2.29499H30.2877V7.82915H35.4401Z" fill="white"/>
<path d="M40.8461 13.251H38.6091V16.588H40.8461V13.251Z" fill="white"/>
<path d="M76.0283 0.415039H83.7168C84.9827 0.415039 86.0267 0.594675 86.849 0.953946C88.4096 1.64485 89.19 2.91888 89.19 4.77604C89.19 5.7433 88.9804 6.53577 88.5614 7.15344C88.1232 7.78803 87.5175 8.3007 86.8056 8.63958C87.389 8.84306 87.9042 9.19321 88.2969 9.65314C88.6307 10.0677 88.8171 10.7468 88.8562 11.6906L88.8822 13.8877C88.9038 14.5095 86.7016 15.4339 86.6691 14.8018L86.5867 12.0803C86.5347 11.0232 86.1358 10.315 85.3902 9.95576C84.9653 9.75678 84.2977 9.65729 83.3873 9.65729H78.3195V16.5947H76.0283V0.415039ZM83.4697 7.825C84.5145 7.825 85.3418 7.61773 85.9516 7.20319C86.5614 6.78864 86.8656 6.0473 86.8641 4.97916C86.8641 3.82673 86.4386 3.04117 85.5874 2.62248C85.0142 2.37817 84.3893 2.26464 83.7623 2.29085H78.3195V7.82915L83.4697 7.825Z" fill="white"/>
<path d="M88.8756 13.251H86.6387V16.588H88.8756V13.251Z" fill="white"/>
<path d="M11.1956 1.63587C10.2751 0.821982 9.06633 0.415039 7.56924 0.415039H0V16.5822H2.29115H1.90532V2.30328H3.46815V16.5822H5.36263V9.75677H7.57358C9.26719 9.75677 10.5237 9.28903 11.343 8.35354C12.1575 7.43248 12.5943 6.25981 12.5721 5.05378C12.5721 3.5863 12.1132 2.44699 11.1956 1.63587ZM9.30549 7.27988C8.66821 7.69442 7.83947 7.90169 6.81925 7.90169H5.36263V2.30536H6.81925C7.52593 2.27452 8.23126 2.38976 8.88714 2.64321C9.80186 3.06881 10.2592 3.87648 10.2592 5.06622C10.2607 6.1233 9.94276 6.86119 9.30549 7.27988Z" fill="white"/>
<path d="M107.151 0.415039H114.722C116.218 0.415039 117.427 0.821983 118.351 1.63587C119.274 2.44976 119.734 3.58906 119.731 5.05378C119.753 6.26008 119.315 7.43278 118.5 8.35355C117.679 9.28903 116.422 9.75678 114.729 9.75678H109.444V16.5967H107.151V0.415039ZM116.038 2.63906C115.382 2.38365 114.675 2.26698 113.968 2.29707H109.444V7.8934H113.97C114.992 7.8934 115.82 7.68613 116.456 7.27159C117.092 6.85705 117.411 6.11916 117.412 5.05793C117.412 3.87371 116.955 3.06881 116.04 2.64321L116.038 2.63906Z" fill="white"/>
</svg>
