<svg width="184" height="32" viewBox="0 0 184 32" fill="none" xmlns="http://www.w3.org/2000/svg">
<path d="M172.5 5.75006H179.5C180.062 5.7471 180.618 5.86228 181.132 6.08843C181.646 6.31459 182.107 6.64654 182.484 7.06256C182.861 7.47857 183.147 7.96932 183.322 8.50299C183.497 9.03665 183.558 9.60152 183.5 10.1602L183.29 12.1602C183.188 13.1485 182.722 14.0635 181.983 14.7271C181.243 15.3907 180.283 15.7553 179.29 15.7501H167.87L168.52 9.35015C168.619 8.3635 169.081 7.44846 169.817 6.78326C170.552 6.11806 171.508 5.75004 172.5 5.75006Z" fill="#ED2939"/>
<path d="M177.64 8.98013C177.986 9.54642 178.124 10.2158 178.029 10.8727C177.934 11.5296 177.614 12.1327 177.122 12.5783C176.63 13.0239 175.998 13.2836 175.335 13.3131C174.672 13.3427 174.02 13.14 173.49 12.7399C173.412 12.685 173.347 12.6132 173.3 12.5299C172.948 11.9637 172.806 11.2919 172.898 10.6315C172.99 9.97109 173.31 9.36404 173.804 8.91568C174.297 8.46732 174.933 8.20631 175.599 8.17789C176.265 8.14947 176.92 8.35522 177.45 8.75992C177.524 8.82361 177.588 8.89794 177.64 8.98013Z" fill="white"/>
<path d="M178.47 9.0602C178.81 9.59577 178.951 10.2345 178.866 10.8634C178.781 11.4924 178.476 12.0707 178.006 12.4967C177.536 12.9228 176.93 13.169 176.295 13.1916C175.661 13.2141 175.039 13.0119 174.54 12.6203C174.477 12.5737 174.423 12.5157 174.38 12.4499C174.048 11.9135 173.915 11.278 174.002 10.6535C174.09 10.029 174.394 9.45495 174.861 9.03091C175.328 8.60686 175.928 8.35976 176.558 8.33218C177.188 8.30459 177.808 8.4984 178.31 8.88003C178.373 8.93018 178.428 8.99129 178.47 9.0602Z" fill="#ED2939"/>
<path d="M175.78 10.8198L175.46 10.5498L175.08 10.8198L175.26 10.3799L174.93 10.1099H175.37L175.55 9.67969L175.64 10.1099H176.07L175.69 10.3799L175.78 10.8198Z" fill="white"/>
<path d="M178.55 10.8198L178.22 10.5498L177.84 10.8198L178.02 10.3799L177.7 10.1099H178.13L178.31 9.67969L178.4 10.1099H178.84L178.45 10.3799L178.55 10.8198Z" fill="white"/>
<path d="M177.27 9.79004L176.95 9.52002L176.57 9.79004L176.75 9.3501L176.42 9.08984H176.86L177.03 8.6499L177.12 9.08984H177.56L177.18 9.3501L177.27 9.79004Z" fill="white"/>
<path d="M176.13 12.46L175.81 12.1899L175.43 12.46L175.61 12.02L175.28 11.75H175.72L175.9 11.3198L175.99 11.75H176.42L176.04 12.02L176.13 12.46Z" fill="white"/>
<path d="M177.86 12.46L177.54 12.1899L177.16 12.46L177.34 12.02L177.01 11.75H177.45L177.63 11.3198L177.71 11.75H178.15L177.77 12.02L177.86 12.46Z" fill="white"/>
<path d="M41.11 25.6899L43.19 5.92961H48C48.7938 5.91897 49.586 6.00289 50.36 6.17961C50.9859 6.33061 51.5723 6.61367 52.08 7.00969C52.5719 7.40066 52.9229 7.94133 53.08 8.54973C53.2127 9.03187 53.28 9.52964 53.28 10.0297C53.2793 10.3407 53.2593 10.6514 53.22 10.9599C52.94 13.4199 51.8267 14.7866 49.88 15.06C50.3755 15.1325 50.8503 15.3077 51.274 15.5746C51.6976 15.8416 52.0607 16.1941 52.34 16.6098C52.7434 17.3429 52.9339 18.1741 52.89 19.0097C52.89 19.3097 52.89 19.6297 52.84 20.0097C52.7763 21.6068 52.1245 23.1242 51.01 24.2699C49.8334 25.2912 48.3057 25.8148 46.75 25.7299L41.11 25.6899ZM44.9 23.1996H46.26C46.8771 23.2273 47.4916 23.1038 48.05 22.8398C48.4813 22.6214 48.8316 22.2711 49.05 21.8398C49.2941 21.2504 49.4426 20.6258 49.49 19.9897C49.49 19.7197 49.49 19.4596 49.49 19.2196C49.536 18.5671 49.3674 17.9179 49.01 17.37C48.7188 17.0665 48.3618 16.8338 47.9665 16.6899C47.5712 16.546 47.1482 16.4947 46.73 16.54H45.58L44.9 23.1996ZM45.9 14.0097H47C47.4083 14.0509 47.8208 14.0114 48.2137 13.893C48.6067 13.7746 48.9724 13.5797 49.29 13.3197C49.8225 12.6619 50.1215 11.8461 50.14 10.9999C50.14 10.7999 50.14 10.6196 50.14 10.4496C50.1424 10.2447 50.1222 10.0403 50.08 9.83977C50.0399 9.56502 49.9335 9.30441 49.77 9.08C49.5963 8.87793 49.3666 8.73187 49.11 8.66008C48.8018 8.55809 48.4832 8.49081 48.16 8.45988C47.84 8.45988 47.42 8.41008 46.9 8.41008H46.41L45.9 14.0097Z" fill="white"/>
<path d="M54.27 25.6899L56.34 5.92969H64.55L64.29 8.43994H59.61L59 14.1699H62.72L62.47 16.6602H58.75L58.05 23.2397H62.8L62.54 25.6797L54.27 25.6899Z" fill="white"/>
<path d="M68.07 25.6899L69.87 8.52979H66.53L66.8 5.92969H76.9L76.62 8.52979H73.38L71.58 25.6899H68.07Z" fill="white"/>
<path d="M80.9 25.6899L87.01 5.92969H90.64L92.64 25.6899H89.35L89.02 21.0698H85.55L84.24 25.6899H80.9ZM86.15 18.6899H88.86L88.36 10.5298L86.15 18.6899Z" fill="white"/>
<path d="M94.59 25.6899L96.66 5.92961H101.22C102.209 5.904 103.197 6.02567 104.15 6.28996C104.849 6.47974 105.475 6.87297 105.95 7.41985C106.392 7.96815 106.682 8.62349 106.79 9.31975C106.866 9.76237 106.902 10.2111 106.9 10.6601C106.898 11.1348 106.868 11.6088 106.81 12.08L106.06 19.2099C105.974 20.1878 105.769 21.1517 105.45 22.08C105.184 22.8252 104.765 23.5065 104.22 24.08C103.667 24.6464 102.978 25.0627 102.22 25.29C101.272 25.5694 100.288 25.7006 99.3 25.6796L94.59 25.6899ZM98.38 23.2099H99.44C99.8745 23.222 100.308 23.1578 100.72 23.0199C101.022 22.9223 101.303 22.7695 101.55 22.5697C101.784 22.3258 101.953 22.0264 102.04 21.6996C102.157 21.3402 102.248 20.9729 102.31 20.6C102.36 20.28 102.41 19.7898 102.49 19.1098L103.24 12.0097C103.296 11.5316 103.326 11.051 103.33 10.5697C103.33 10.3498 103.33 10.1499 103.33 9.95989C103.324 9.73444 103.264 9.51348 103.157 9.31536C103.049 9.11723 102.896 8.94742 102.71 8.81975C102.172 8.53811 101.566 8.4135 100.96 8.45989H99.96L98.38 23.2099Z" fill="white"/>
<path d="M109.86 25.6899L107.86 5.92969H111L112.2 19.73L116.15 5.92969H119.34L113.2 25.6899H109.86Z" fill="white"/>
<path d="M120.36 25.6899L122.43 5.92969H125.9L123.83 25.6899H120.36Z" fill="white"/>
<path d="M131.63 25.69C128.47 25.69 126.89 23.9868 126.89 20.5801C126.89 20.3401 126.89 20.0898 126.89 19.8198L130 19.1699C130 19.4833 130 19.7734 130 20.0401C130 22.0401 130.62 23.0401 131.87 23.0401C132.107 23.0549 132.344 23.018 132.565 22.9317C132.786 22.8453 132.986 22.7116 133.15 22.5401C133.471 22.1599 133.66 21.6864 133.69 21.19C133.699 21.0501 133.699 20.9099 133.69 20.77C133.691 19.9939 133.439 19.2388 132.97 18.6201C132.659 18.2652 132.325 17.9312 131.97 17.6201L129.61 15.3501C129.008 14.785 128.525 14.105 128.19 13.3501C127.966 12.7805 127.857 12.172 127.87 11.5601C127.856 11.2836 127.856 11.0065 127.87 10.73C127.906 10.0692 128.074 9.42233 128.362 8.82668C128.651 8.23102 129.054 7.69821 129.55 7.25978C130.596 6.40086 131.917 5.94969 133.27 5.98976H133.37C133.956 5.97769 134.541 6.06215 135.1 6.23976C135.567 6.38126 135.997 6.62361 136.36 6.94972C136.697 7.27508 136.962 7.66703 137.14 8.10011C137.341 8.5511 137.472 9.02976 137.53 9.52003C137.59 9.96065 137.614 10.4056 137.6 10.8501V11.1997L134.6 11.7998C134.6 11.5498 134.6 11.2998 134.6 11.0698C134.615 10.8968 134.615 10.7228 134.6 10.5498C134.576 10.2102 134.512 9.87464 134.41 9.54982C134.324 9.26282 134.14 9.01539 133.89 8.85011C133.646 8.70258 133.365 8.62962 133.08 8.64015H133C132.52 8.64617 132.06 8.83171 131.71 9.16017C131.374 9.51374 131.173 9.97342 131.14 10.46C131.13 10.5998 131.13 10.7401 131.14 10.8799C131.125 11.2556 131.201 11.6291 131.36 11.9697C131.622 12.4445 131.96 12.8735 132.36 13.2398L134.73 15.5C135.474 16.2218 136.086 17.0678 136.54 18C136.841 18.6841 136.997 19.4227 137 20.1699C137.015 20.4331 137.015 20.6968 137 20.96C136.898 22.2751 136.293 23.5002 135.31 24.3799C134.296 25.2718 132.979 25.7408 131.63 25.69Z" fill="white"/>
<path d="M143.57 25.69C142.703 25.7173 141.84 25.5709 141.03 25.2598C140.384 25.0065 139.83 24.5638 139.44 23.9898C139.059 23.3824 138.814 22.7004 138.72 21.9898C138.65 21.5668 138.616 21.1388 138.62 20.71C138.623 20.2456 138.65 19.7816 138.7 19.3199L139.46 12.19C139.528 10.4796 140.149 8.83721 141.23 7.50982C141.812 6.9465 142.507 6.51345 143.269 6.23931C144.031 5.96518 144.843 5.8564 145.65 5.91998C147.65 5.91998 149 6.46008 149.74 7.52008C150.372 8.52221 150.673 9.69747 150.6 10.8799C150.601 11.3176 150.577 11.7549 150.53 12.19L149.78 19.3199C149.694 21.047 149.064 22.7028 147.98 24.0499C147.407 24.6262 146.717 25.0714 145.955 25.3545C145.194 25.6377 144.38 25.7522 143.57 25.69ZM143.84 23.1299C144.154 23.1374 144.467 23.0828 144.76 22.9698C144.999 22.8821 145.217 22.746 145.4 22.5699C145.577 22.3818 145.717 22.1611 145.81 21.92C145.921 21.6548 146.008 21.3806 146.07 21.1002C146.135 20.7697 146.182 20.4358 146.21 20.1002L147.12 11.3902C147.12 11.0402 147.12 10.7202 147.12 10.3902C147.12 10.0602 147.12 10.0101 147.12 9.83013C147.092 9.44824 146.92 9.0911 146.64 8.83013C146.273 8.55441 145.818 8.41922 145.36 8.44976C144.982 8.43805 144.607 8.51021 144.26 8.66021C143.969 8.7914 143.727 9.01199 143.57 9.29009C143.404 9.57404 143.279 9.8802 143.2 10.1998C143.105 10.5906 143.041 10.989 143.01 11.3902L142.1 20.1002C142.1 20.4702 142.1 20.8102 142.1 21.1002C142.1 21.3902 142.1 21.4399 142.1 21.6099C142.111 22.0142 142.28 22.3981 142.57 22.6797C142.913 23.003 143.369 23.1792 143.84 23.17V23.1299Z" fill="white"/>
<path d="M151.59 25.6897L153.66 5.92948H158.11C159.001 5.91374 159.891 6.0044 160.76 6.1995C161.433 6.34376 162.066 6.63803 162.61 7.05985C163.134 7.47044 163.507 8.04379 163.67 8.68973C163.809 9.19451 163.876 9.71606 163.87 10.2395C163.87 10.5395 163.87 10.8595 163.87 11.2395C163.61 13.7395 162.61 15.3198 160.87 15.9798L162.7 25.7298H159.23L157.71 16.7298H156.08L155.08 25.7298L151.59 25.6897ZM156.31 14.3699H157.14C157.566 14.4477 158.004 14.4265 158.42 14.3084C158.837 14.1903 159.221 13.978 159.542 13.6883C159.864 13.3985 160.115 13.039 160.276 12.637C160.437 12.235 160.503 11.8016 160.47 11.3699C160.47 11.0999 160.47 10.8599 160.47 10.6399C160.51 10.0885 160.373 9.53844 160.08 9.06962C159.803 8.79917 159.468 8.59572 159.101 8.4744C158.734 8.35309 158.343 8.31741 157.96 8.36991H156.96L156.31 14.3699Z" fill="white"/>
<path d="M26.11 31.46H8L9.07999 23.5098C9.30972 21.8327 10.1394 20.2959 11.4154 19.1836C12.6914 18.0712 14.3272 17.4588 16.02 17.46H26.11C27.1089 17.4595 28.0964 17.6726 29.0061 18.0855C29.9157 18.4983 30.7265 19.1009 31.3839 19.853C32.0413 20.6052 32.5301 21.4896 32.8175 22.4463C33.1049 23.403 33.1841 24.41 33.05 25.3999C32.8225 27.0788 31.9938 28.618 30.7176 29.7324C29.4414 30.8468 27.8043 31.4608 26.11 31.46Z" fill="#093B73"/>
<path d="M26.11 31.46H12L13.08 23.5098C13.3097 21.8327 14.1394 20.2959 15.4154 19.1836C16.6914 18.0712 18.3272 17.4588 20.02 17.46H26.14C27.139 17.4595 28.1264 17.6726 29.0361 18.0855C29.9457 18.4983 30.7565 19.1009 31.4139 19.853C32.0713 20.6052 32.5601 21.4896 32.8475 22.4463C33.1349 23.403 33.2141 24.41 33.08 25.3999C32.8518 27.084 32.0188 28.6276 30.7363 29.7427C29.4538 30.8577 27.8094 31.4681 26.11 31.46Z" fill="#328FD9"/>
<path d="M18.11 14.1699H0L1.07999 6.21973C1.30925 4.54603 2.13606 3.01181 3.40787 1.8999C4.67967 0.787993 6.31068 0.1736 8 0.169923H18.09C19.0889 0.169437 20.0764 0.38261 20.9861 0.795411C21.8957 1.20821 22.7065 1.81086 23.3639 2.56299C24.0213 3.31512 24.5101 4.19954 24.7975 5.15625C25.0849 6.11296 25.1641 7.11997 25.03 8.10986C24.8029 9.78538 23.9771 11.3221 22.7051 12.436C21.4331 13.55 19.8008 14.1659 18.11 14.1699Z" fill="#B32D11"/>
<path d="M18.11 14.1699H4L5.07999 6.21973C5.30925 4.54603 6.13606 3.01181 7.40787 1.8999C8.67967 0.787993 10.3107 0.1736 12 0.169923H18.12C19.1189 0.169437 20.1064 0.38261 21.0161 0.795411C21.9257 1.20821 22.7365 1.81086 23.3939 2.56299C24.0513 3.31512 24.5401 4.19954 24.8275 5.15625C25.1149 6.11296 25.1941 7.11997 25.06 8.10986C24.8323 9.7905 24.0021 11.3312 22.7238 12.4458C21.4455 13.5604 19.806 14.1732 18.11 14.1699Z" fill="#ED2939"/>
</svg>
