<svg width="220" height="26" viewBox="0 0 220 26" fill="none" xmlns="http://www.w3.org/2000/svg">
<g clip-path="url(#clip0)">
<path fill-rule="evenodd" clip-rule="evenodd" d="M72.6116 15.9033C73.3428 16.7698 74.1421 17.4595 75.1395 17.884C76.3707 18.4081 77.6407 18.5198 78.9345 18.1599C79.2057 18.0845 79.4747 17.9508 79.7048 17.7876C80.7356 17.0565 80.6986 15.6297 79.6012 15.0102C79.112 14.734 78.5645 14.5527 78.0244 14.374L77.852 14.3168C77.4386 14.1789 77.0202 14.0546 76.602 13.9302L76.6019 13.9302C75.9496 13.7363 75.2977 13.5425 74.6651 13.2978C73.1302 12.704 71.9771 11.6894 71.5353 10.0261C70.6889 6.83934 72.1241 3.84502 75.2409 2.74673C78.9525 1.43884 82.5134 1.917 85.7981 4.14828C85.8635 4.19267 85.9233 4.24545 85.9829 4.29808C85.998 4.31141 86.0131 4.32473 86.0283 4.3379C86.0494 4.35625 86.0682 4.37729 86.0935 4.40563L86.0935 4.40567C86.1072 4.42099 86.1228 4.43844 86.1417 4.45875L83.5316 7.81986C82.753 7.12265 81.8803 6.66512 80.9048 6.3991C79.9522 6.13933 79.0072 6.10514 78.0729 6.47509C77.3756 6.75123 76.9487 7.25153 76.8724 8.00594C76.7995 8.72673 77.0877 9.32886 77.7215 9.63935C78.4056 9.97452 79.1299 10.2314 79.8514 10.4873C79.9505 10.5224 80.0496 10.5576 80.1485 10.5929C80.5297 10.729 80.9161 10.8517 81.3025 10.9743L81.3025 10.9743C81.8857 11.1595 82.4686 11.3445 83.033 11.5756C84.8742 12.3298 86.0284 13.6617 86.2069 15.705C86.3986 17.8988 85.6468 19.6837 83.8079 20.9447C82.2743 21.9965 80.5225 22.3308 78.7035 22.3613C76.3175 22.4012 74.0052 22.0519 71.8651 20.9171C71.0906 20.5064 70.384 20.0018 69.7834 19.3165L72.6116 15.9033ZM49.9823 2.58783V21.7831H50.355C50.7618 21.7831 51.1686 21.7822 51.5753 21.7813L51.5779 21.7813C52.6965 21.7789 53.815 21.7764 54.9333 21.7924C55.2882 21.7975 55.346 21.6792 55.345 21.3597C55.3383 19.2634 55.3382 17.167 55.3382 15.0707C55.3381 13.7719 55.3381 12.4732 55.3364 11.1744C55.3355 10.411 55.475 9.67776 55.7705 8.97723C56.3365 7.63543 57.3314 6.83732 58.7872 6.64245C60.7242 6.3832 62.1759 7.33039 62.631 9.22638C62.7995 9.92824 62.8677 10.6689 62.8731 11.3927C62.8913 13.8255 62.8886 16.2584 62.8859 18.6913C62.8849 19.5651 62.884 20.4388 62.884 21.3126L62.884 21.76H68.2498L68.2498 21.3197L68.2499 18.8721C68.25 15.8284 68.2501 12.7847 68.2484 9.74093C68.2482 9.4094 68.2432 9.07662 68.2151 8.74658C68.1038 7.44183 67.795 6.19323 67.0864 5.0736C66.0608 3.4531 64.5643 2.52659 62.6961 2.21223C60.5739 1.85511 58.5444 2.11255 56.7257 3.34703C56.3748 3.58523 56.0591 3.87542 55.7358 4.17265L55.7358 4.17271L55.7357 4.17272C55.5851 4.31119 55.4329 4.45119 55.2746 4.58818L54.6777 2.58783H49.9823ZM131.833 18.2941C129.015 18.0801 127.526 15.9103 127.265 13.564H141.806C141.779 13.1843 141.761 12.8075 141.743 12.4335V12.4334V12.4333V12.4332V12.4331C141.703 11.6183 141.665 10.817 141.542 10.0288C141.133 7.41384 139.903 5.25966 137.686 3.73912C135.979 2.56823 134.055 2.09158 132.011 2.07131C129.324 2.04466 126.881 2.78105 124.876 4.61908C122.122 7.14333 121.236 10.3493 121.756 13.9647C122.188 16.9681 123.756 19.2643 126.383 20.8032C128.122 21.8215 130.028 22.2555 132.027 22.3147C134.251 22.3805 136.394 22.0502 138.375 20.9719C139.123 20.5648 139.815 20.078 140.438 19.4423L136.871 16.4972C136.849 16.5135 136.83 16.5268 136.813 16.5385L136.813 16.5386C136.782 16.5598 136.759 16.5758 136.74 16.5954C135.386 17.9741 133.711 18.4367 131.833 18.2941ZM131.753 6.07197C134.831 6.02608 136.153 8.2408 136.364 10.1771H127.418C127.698 8.18547 129.183 6.11029 131.753 6.07197ZM33.3561 13.5814H47.8715C47.8476 13.2066 47.8315 12.8356 47.8154 12.468C47.7804 11.6656 47.7461 10.8792 47.6344 10.104C47.3085 7.84349 46.3386 5.88586 44.5872 4.37354C42.5332 2.60001 40.092 1.98375 37.4375 2.08413C34.9174 2.17943 32.6543 2.98844 30.8165 4.74677C28.141 7.3067 27.2909 10.5 27.8529 14.0847C28.3167 17.0436 29.8844 19.3023 32.4824 20.8143C34.2854 21.8636 36.2606 22.2878 38.3276 22.3222C40.297 22.355 42.2082 22.0687 44.003 21.2051C44.925 20.7614 45.7606 20.1945 46.5198 19.4459L42.9551 16.5006C42.9348 16.5148 42.9166 16.5264 42.9004 16.5369L42.9003 16.5369L42.9003 16.5369C42.8703 16.5562 42.8467 16.5713 42.8275 16.5908C41.4535 17.9866 39.7571 18.4504 37.8557 18.2893C34.882 18.0374 33.5372 15.6224 33.3561 13.5814ZM37.7643 6.07932C40.7291 5.98435 42.1759 8.00496 42.4519 10.182H33.4899C33.5716 8.05575 35.5662 6.14973 37.7643 6.07932ZM106.563 21.7665C106.528 21.7683 106.493 21.7706 106.458 21.7728C106.384 21.7776 106.31 21.7823 106.237 21.7824C105.841 21.7827 105.445 21.7823 105.049 21.7819C104.085 21.781 103.12 21.7801 102.155 21.7892C101.908 21.7915 101.806 21.7085 101.748 21.4759C101.647 21.0676 101.534 20.6623 101.415 20.2362L101.415 20.2359C101.366 20.0599 101.316 19.8804 101.265 19.6957C101.212 19.7535 101.164 19.8064 101.119 19.856L101.118 19.8566C101.03 19.954 100.953 20.0385 100.874 20.1214C99.5725 21.4956 97.9314 22.1208 96.083 22.2585C94.4346 22.3813 92.8572 22.121 91.4328 21.2322C89.6926 20.1463 88.791 18.5116 88.4726 16.5322C88.3677 15.88 88.3179 15.2124 88.3154 14.5515C88.3048 11.6571 88.3061 8.76254 88.3075 5.86801C88.3079 4.89135 88.3084 3.9147 88.3084 2.93805V2.58806H93.6817V3.01049C93.6817 3.87679 93.681 4.7431 93.6803 5.60941C93.6782 8.09445 93.6761 10.5795 93.6911 13.0644C93.695 13.7117 93.7649 14.37 93.8992 15.0031C94.3696 17.2221 96.0385 17.9931 97.9752 17.6668C99.7292 17.3713 100.653 16.1916 101.05 14.5426C101.155 14.1064 101.204 13.6464 101.205 13.1971C101.215 10.6178 101.214 8.03852 101.213 5.45923C101.212 4.65401 101.212 3.84879 101.212 3.04357L101.212 2.59126H106.563V21.7665ZM113.008 2.56404H109.59V21.7609H114.952L114.952 21.3498C114.952 20.5229 114.952 19.6961 114.951 18.8692C114.951 16.7658 114.95 14.6624 114.954 12.559C114.955 11.5308 115.116 10.5276 115.575 9.59804C116.459 7.81133 118.276 6.9549 120.388 7.31161C120.585 7.34483 120.78 7.38704 120.986 7.43168C121.086 7.45312 121.187 7.47513 121.293 7.49696L122.079 2.36971C118.979 1.48827 116.687 2.59651 114.914 5.17225C114.857 4.93524 114.801 4.70559 114.746 4.48101C114.61 3.92397 114.482 3.39818 114.37 2.86888C114.317 2.61846 114.209 2.54624 113.969 2.55964C113.746 2.57214 113.521 2.56931 113.297 2.56648C113.2 2.56526 113.104 2.56404 113.008 2.56404Z" fill="black"/>
<path d="M146.458 2.40806C146.729 2.40806 146.981 2.39615 147.231 2.41609C147.296 2.42133 147.383 2.51483 147.408 2.58614C147.44 2.67484 147.418 2.78257 147.418 2.88208C147.418 9.25147 147.418 15.6209 147.417 21.9903C147.417 22.5642 147.479 22.4961 146.901 22.5017C146.76 22.5031 146.62 22.502 146.458 22.502C146.458 15.7897 146.458 9.11816 146.458 2.40806Z" fill="black"/>
<path fill-rule="evenodd" clip-rule="evenodd" d="M157.993 4.15295H158.012V3.486C158.012 3.3703 157.918 3.2765 157.802 3.2765L152.48 3.27655V11.2725H158.012V10.3913H153.558V7.6093H157.672V6.72256H153.56V4.15295H157.993ZM187.555 3.29307H186.65V4.42178H187.555V3.29307ZM186.65 5.51584H187.555V11.2813H186.65V5.51584ZM213.044 20.0433C213.183 19.7392 213.314 19.6643 213.621 19.6683C213.773 19.6703 213.926 19.6718 214.103 19.6718C213.964 20.7814 213.123 21.53 211.979 21.6236C209.643 21.8136 208.723 20.0985 208.891 18.1794C209.005 16.8798 209.78 15.9475 210.868 15.6556C212.47 15.2262 213.88 16.1906 214.154 17.912C214.202 18.215 214.248 18.8834 214.248 18.8834H209.925C209.769 19.7283 210.356 20.5782 211.192 20.75C211.727 20.8597 212.257 20.8401 212.708 20.4811C212.85 20.3694 212.972 20.2009 213.044 20.0433ZM213.166 18.0265C213.178 17.1536 212.497 16.4587 211.62 16.4266C210.649 16.391 209.947 17.0363 209.903 18.0265H213.166ZM199.353 18.5768C199.349 18.8582 199.376 19.1396 199.435 19.4211C199.383 19.1369 199.354 18.8547 199.353 18.5768ZM169.042 19.3819C168.952 20.1353 168.681 20.7297 168.114 21.165C166.949 22.0611 164.965 21.6861 164.193 20.4398C163.567 19.4295 163.518 16.9895 164.932 16.0244C166 15.2951 167.74 15.4401 168.533 16.3557C168.825 16.6929 168.978 17.0875 168.99 17.5699C168.916 17.5699 168.842 17.5707 168.768 17.5716L168.768 17.5716C168.568 17.5739 168.367 17.5763 168.169 17.5614C168.101 17.5563 168.009 17.4573 167.984 17.3826C167.774 16.7653 167.353 16.4471 166.699 16.422C166.002 16.3951 165.411 16.6013 165.1 17.2604C164.672 18.1682 164.655 19.103 165.108 20.0118C165.401 20.5981 166.018 20.8718 166.735 20.7868C167.398 20.7081 167.843 20.3504 168.001 19.6996C168.065 19.4382 168.172 19.3525 168.425 19.3781C168.557 19.3913 168.689 19.3883 168.833 19.385H168.833H168.833H168.833H168.833C168.9 19.3835 168.97 19.3819 169.042 19.3819ZM206.482 15.7166H207.392V21.5007H206.482V15.7166ZM203.805 18.5688L203.805 18.5691L203.798 18.591C203.795 18.6015 203.792 18.6122 203.789 18.6229L203.789 18.6223V18.4965L203.791 18.5072L203.792 18.5079L203.797 18.5354L203.8 18.5497L203.805 18.5688ZM206.484 13.5114H207.39V14.6401H206.484V13.5114ZM190.253 21.5329H190.753C190.548 21.5329 190.253 21.5315 190.253 21.5315L190.985 21.5328C191.1 21.5328 191.194 21.4386 191.194 21.3233L191.187 13.6877C191.187 13.5725 191.093 13.4782 190.978 13.4782H190.253V21.5315V21.5329ZM161.985 18.8931C162.904 18.8931 162.917 18.8903 162.766 17.9825C162.589 16.9126 162.104 16.0258 161.012 15.6871C159.974 15.3651 159.017 15.5984 158.246 16.4077C157.204 17.5006 157.201 19.743 158.235 20.8436C159.094 21.757 160.827 21.919 161.84 21.1795C162.339 20.8164 162.607 20.3177 162.726 19.6739C162.647 19.6739 162.57 19.6731 162.495 19.6724C162.299 19.6705 162.117 19.6687 161.935 19.6809C161.869 19.685 161.765 19.7619 161.751 19.8233C161.551 20.6529 160.623 20.9414 159.769 20.7458C158.944 20.5573 158.391 19.7514 158.52 18.8931H161.985ZM160.173 16.4203C161.071 16.4385 161.793 17.1592 161.766 18.0286H158.511C158.513 17.0949 159.24 16.4015 160.173 16.4203ZM157.146 13.5096H158.015H158.022V14.1828C158.022 14.2985 157.929 14.3923 157.813 14.3923C157.813 14.3923 156.215 14.3835 155.713 14.3847C155.426 14.3854 155.335 14.4508 155.337 14.7512C155.347 16.351 155.346 17.951 155.345 19.551C155.344 20.0633 155.344 20.5755 155.344 21.0878L155.344 21.5001H154.278L154.273 21.1101C154.273 21.1101 154.267 16.8635 154.278 14.7403C154.279 14.4669 154.205 14.3772 153.926 14.3849C153.557 14.3952 153.188 14.3937 152.819 14.3922H152.819H152.819H152.819H152.819H152.819H152.819H152.819H152.819H152.819H152.819H152.819H152.819H152.819H152.819H152.819H152.819C152.513 14.391 152.208 14.3897 151.903 14.3951C151.723 14.3983 151.622 14.3588 151.6 14.222L151.598 14.2148L151.598 14.2107C151.596 14.1995 151.594 14.1882 151.594 14.1765V13.5096H151.6H152.471H157.146ZM164.215 6.99251C164.203 6.51418 164.021 6.11825 163.666 5.83005C163.459 5.66214 163.209 5.55526 162.948 5.50156C162.725 5.45571 162.504 5.43318 162.286 5.43441L162.288 5.43312C162.288 5.43312 161.068 5.31089 160.329 6.28895V5.47313H159.644C159.529 5.47313 159.435 5.56692 159.435 5.68262L159.442 11.2779H160.369C160.369 11.2779 160.399 8.54208 160.399 8.29462C160.401 8.21701 160.403 8.14381 160.406 8.0773C160.407 8.05858 160.408 8.04017 160.41 8.02161L160.411 8.00838L160.413 7.98246C160.414 7.96723 160.415 7.95202 160.416 7.93735L160.418 7.91986L160.42 7.90727C160.595 6.32385 161.839 6.19747 162.039 6.18745C162.196 6.18623 162.353 6.20431 162.505 6.24573C163.052 6.39499 163.287 6.7938 163.287 7.57864C163.288 8.55232 163.287 11.2676 163.287 11.2676H164.227C164.227 11.2676 164.253 8.40647 164.215 6.99251ZM170.171 6.11705V3.29647H171.105V11.2785H170.192V10.6786C170.192 10.6786 169.671 11.0794 169.384 11.2072C169.381 11.2082 169.378 11.2093 169.375 11.2105L169.374 11.2112L169.374 11.2112L169.374 11.2113C169.371 11.2123 169.369 11.2133 169.367 11.2142C169.278 11.2526 169.188 11.2861 169.096 11.3134C169.066 11.3232 169.036 11.3315 169.005 11.3399C168.988 11.3448 168.971 11.349 168.954 11.3532C168.94 11.3567 168.928 11.3595 168.914 11.363C168.781 11.393 168.645 11.4125 168.506 11.4202H168.502C168.455 11.423 168.408 11.4244 168.361 11.4244C167.034 11.4244 165.928 10.386 165.672 9.00607V9.00467C165.668 8.98651 165.666 8.96836 165.663 8.95021C165.632 8.77004 165.616 8.58428 165.616 8.39433C165.616 8.37896 165.616 8.36361 165.617 8.34824C165.639 6.69527 166.858 5.36425 168.361 5.36425C168.636 5.36425 168.903 5.40894 169.154 5.49274C169.534 5.61914 169.879 5.83423 170.171 6.11705ZM169.945 9.49429L169.947 9.49024C170.097 9.19283 170.187 8.84617 170.199 8.47524V8.47322L170.199 8.46784L170.199 8.45973L170.199 8.45143L170.199 8.44624C170.2 8.43006 170.201 8.41253 170.2 8.39432C170.2 8.3815 170.2 8.36869 170.199 8.35654C170.195 7.99034 170.112 7.64774 169.972 7.35032C169.672 6.71097 169.105 6.28002 168.454 6.28002C167.53 6.28002 166.774 7.14934 166.712 8.24865C166.709 8.2918 166.707 8.33564 166.707 8.37947V8.39432C166.707 8.41725 166.707 8.43951 166.709 8.46176C166.714 8.62631 166.734 8.79155 166.771 8.95678C166.777 8.98376 166.784 9.01141 166.79 9.03905C166.792 9.04513 166.793 9.05052 166.795 9.05592C166.85 9.27038 166.932 9.48417 167.04 9.69662C167.315 10.2368 167.786 10.483 168.362 10.5066C168.378 10.5073 168.393 10.5073 168.409 10.5073L168.416 10.5073L168.425 10.5076L168.432 10.5078L168.441 10.5079C168.476 10.5078 168.512 10.5063 168.547 10.5038L168.555 10.503L168.561 10.5025C168.593 10.4999 168.624 10.4967 168.655 10.4924L168.664 10.491C168.696 10.4864 168.727 10.4809 168.758 10.4745L168.763 10.4735L168.768 10.4725C168.801 10.4654 168.834 10.4576 168.866 10.4486C168.874 10.4466 168.882 10.4439 168.89 10.4412C169.358 10.3036 169.748 9.95829 169.945 9.49429ZM168.844 10.4546L168.822 10.4602L168.806 10.4639L168.815 10.4621L168.825 10.4596L168.844 10.4546ZM173.838 13.4819V10.6613C174.129 10.9442 174.474 11.1593 174.855 11.2857C175.106 11.3695 175.372 11.4142 175.648 11.4142C177.151 11.4142 178.37 10.0831 178.392 8.43015C178.393 8.4148 178.393 8.39944 178.393 8.38407C178.393 8.19412 178.377 8.00836 178.346 7.82819C178.343 7.81004 178.34 7.79188 178.337 7.77372V7.77233C178.081 6.39241 176.975 5.35399 175.648 5.35399C175.601 5.35399 175.554 5.35538 175.506 5.35818H175.502C175.364 5.36586 175.228 5.38541 175.095 5.41544L175.075 5.42033L175.055 5.42522L175.054 5.42527C175.038 5.42944 175.021 5.43362 175.004 5.43848C174.973 5.44687 174.943 5.45525 174.913 5.46502C174.821 5.49226 174.731 5.52578 174.642 5.56419C174.64 5.56509 174.637 5.56613 174.635 5.56719C174.632 5.56857 174.629 5.56998 174.625 5.57117C174.338 5.69896 173.817 6.09981 173.817 6.09981V5.49994H172.904V13.4819H173.838ZM174.062 7.28815L174.064 7.28411C174.261 6.82011 174.651 6.47481 175.118 6.33723C175.126 6.33453 175.135 6.33183 175.143 6.32981C175.175 6.32083 175.208 6.31297 175.241 6.30594L175.246 6.30485L175.251 6.30388C175.282 6.29748 175.313 6.29202 175.345 6.28742L175.354 6.28598C175.385 6.28165 175.416 6.27846 175.448 6.27593L175.454 6.27535L175.462 6.27459C175.497 6.27209 175.533 6.27063 175.568 6.27046C175.574 6.27046 175.579 6.27063 175.584 6.2708C175.589 6.27097 175.594 6.27114 175.6 6.27114C175.615 6.27114 175.631 6.27114 175.646 6.27181C176.222 6.29542 176.694 6.54158 176.969 7.08178C177.077 7.29423 177.158 7.50801 177.214 7.72247C177.216 7.72787 177.217 7.73327 177.218 7.73934C177.225 7.76699 177.232 7.79464 177.238 7.82162C177.274 7.98685 177.295 8.15208 177.3 8.31664C177.301 8.33889 177.301 8.36115 177.301 8.38408V8.39892C177.301 8.44276 177.299 8.4866 177.297 8.52976C177.235 9.62906 176.479 10.4984 175.555 10.4984C174.904 10.4984 174.337 10.0674 174.037 9.42808C173.896 9.13065 173.814 8.78806 173.809 8.42185C173.809 8.40971 173.809 8.3969 173.809 8.38408C173.808 8.36587 173.809 8.34834 173.809 8.33215L173.809 8.32417L173.81 8.31866L173.81 8.31339L173.81 8.30518V8.30315C173.821 7.93222 173.912 7.58557 174.062 7.28815ZM175.187 6.31819L175.167 6.32328C175.176 6.32084 175.185 6.31848 175.194 6.31632L175.202 6.31446L175.187 6.31819ZM199.353 18.5537V18.4113C199.353 17.9762 199.446 17.5635 199.613 17.1948C199.604 17.2143 199.597 17.2346 199.59 17.2548C199.44 17.692 199.359 18.1333 199.353 18.5768L199.353 18.5689L199.353 18.5641L199.353 18.5592L199.353 18.5537ZM204.68 15.7711H203.813L203.804 16.2809C203.804 16.2809 203.211 15.8514 202.859 15.7488C202.791 15.7292 202.721 15.7118 202.653 15.6964C202.651 15.6964 202.65 15.6964 202.649 15.6957C201.51 15.3703 200.114 15.9199 199.627 17.2355C199.619 17.2551 199.612 17.2753 199.605 17.2956C199.454 17.7327 199.373 18.1741 199.368 18.6175C199.369 18.8955 199.398 19.1776 199.45 19.4618C199.45 19.4653 199.45 19.4688 199.452 19.4723C199.477 19.5945 199.51 19.7167 199.547 19.8389C199.894 20.9507 200.791 21.6043 201.953 21.6085C202.693 21.6113 203.785 20.7335 203.785 20.7335C203.785 20.7335 203.779 20.9367 203.776 21.038C203.762 21.3837 203.733 21.7223 203.633 22.0373C203.41 22.7342 202.721 23.1435 202.022 23.1616C202.009 23.1616 201.996 23.162 201.982 23.1622L201.966 23.1623C201.94 23.1623 201.914 23.1616 201.887 23.1602C200.87 23.1281 200.47 22.3124 200.424 22.2105C200.423 22.207 200.422 22.2043 200.421 22.2028L200.421 22.2028L200.42 22.2009L200.42 22.2C200.42 22.2 199.891 22.1895 199.6 22.1923C199.648 22.8963 200.005 23.3439 200.584 23.6065C201.459 24.0031 202.366 24.0003 203.269 23.7028C203.848 23.5122 204.269 23.1113 204.448 22.5303C204.547 22.2112 204.628 21.876 204.667 21.5415C204.682 21.4179 204.691 21.2943 204.693 21.1714C204.707 20.4144 204.68 15.7711 204.68 15.7711ZM203.804 18.6636V19.0261C203.804 19.7628 203.394 20.399 202.802 20.6923C202.674 20.7566 202.54 20.8033 202.396 20.8334C202.376 20.8369 202.355 20.841 202.334 20.8445C202.332 20.8445 202.329 20.8452 202.326 20.8459L202.326 20.8459C202.314 20.8477 202.302 20.8492 202.29 20.8506L202.29 20.8506C202.278 20.852 202.267 20.8533 202.255 20.855C202.246 20.8557 202.236 20.8571 202.225 20.8578C202.188 20.8613 202.151 20.8634 202.114 20.8641C202.079 20.8655 202.046 20.8662 202.012 20.8641H201.992C201.983 20.8641 201.974 20.8641 201.966 20.8634C201.584 20.8403 201.235 20.6874 200.958 20.4451C200.955 20.4437 200.952 20.4409 200.95 20.4395C200.568 20.1008 200.325 19.5938 200.325 19.0261V18.3319C200.325 17.8312 200.514 17.3773 200.822 17.0463C201.112 16.6615 201.552 16.4611 202.099 16.4604C202.695 16.4597 203.147 16.6985 203.424 17.186C203.662 17.4995 203.804 17.8983 203.804 18.3319V18.5372L203.806 18.5487C203.81 18.5688 203.814 18.5893 203.819 18.6099C203.814 18.6273 203.809 18.6455 203.804 18.6636ZM198.362 5.77539C198.362 5.77068 198.362 5.76606 198.362 5.76161C198.362 5.6827 198.351 5.62334 198.327 5.58004C198.326 5.57934 198.325 5.57864 198.325 5.57795C198.287 5.52348 198.224 5.48786 198.153 5.48786H197.894C197.768 5.49135 197.641 5.49065 197.51 5.48856C197.414 5.48716 197.215 5.48576 197.215 5.48576L197.194 3.95361C197.194 3.83769 197.101 3.74411 196.985 3.74411H196.231L196.233 5.48507H195.27V6.33145H196.237C196.237 6.33145 196.235 9.07522 196.246 10.2254C196.251 10.6276 196.338 11.0187 196.772 11.1758C197.186 11.3264 197.615 11.3107 198.045 11.2949C198.142 11.2913 198.238 11.2878 198.335 11.2861V10.453C198.275 10.453 198.218 10.4532 198.162 10.4534C198.056 10.4537 197.956 10.4539 197.856 10.453C197.282 10.4481 197.198 10.3671 197.196 9.80218C197.194 8.76236 197.216 6.33913 197.216 6.33913C197.216 6.33913 197.99 6.33913 198.055 6.33983H198.056L198.06 6.33991C198.094 6.34056 198.125 6.34114 198.152 6.33983H198.153C198.236 6.33983 198.309 6.29095 198.342 6.21972C198.353 6.16287 198.355 6.08014 198.357 5.95962V5.95943C198.359 5.90973 198.36 5.85361 198.362 5.79024C198.362 5.78526 198.362 5.78028 198.362 5.77539ZM194.124 11.2284L194.124 11.2284C194.133 11.2025 194.14 11.1822 194.14 11.1618C194.139 10.77 194.14 10.3781 194.141 9.98614V9.98609V9.98603V9.98598V9.98592V9.98587V9.98581V9.98576V9.98571C194.143 9.00576 194.146 8.02561 194.12 7.04653C194.098 6.21202 193.682 5.68129 192.98 5.4669C192.621 5.35656 192.17 5.30628 191.727 5.3803L191.726 5.38042L191.723 5.38099H191.721L191.717 5.38182L191.706 5.38378L191.683 5.38798C191.504 5.4215 191.327 5.47528 191.159 5.55349C190.824 5.69804 190.431 5.95224 190.249 6.38381C190.252 6.15965 190.244 5.54441 190.244 5.54441H189.577C189.461 5.54441 189.367 5.63798 189.367 5.75391V11.2805H190.306C190.306 11.2805 190.311 8.45997 190.312 8.26163C190.314 8.189 190.316 8.11708 190.319 8.04445C190.334 7.71275 190.411 7.36148 190.543 7.05212C190.714 6.69667 190.954 6.49066 191.172 6.37124C191.33 6.29093 191.503 6.23646 191.684 6.20853C191.708 6.20573 191.722 6.20573 191.722 6.20573L191.721 6.20224C191.95 6.17221 192.186 6.18408 192.41 6.24484C192.957 6.39428 193.195 6.79723 193.197 7.57866C193.197 8.31613 193.197 9.05392 193.197 9.79159L193.197 10.8979V11.2764H194.108C194.111 11.267 194.114 11.2584 194.116 11.2502L194.124 11.2285L194.124 11.2284ZM181.728 21.3931C181.728 21.4134 181.721 21.4338 181.712 21.4597C181.707 21.4738 181.701 21.4894 181.696 21.5076H180.785V21.1291L180.785 20.0228C180.785 19.2852 180.785 18.5474 180.785 17.8099C180.783 17.0285 180.545 16.6255 179.998 16.4761C179.774 16.4153 179.538 16.4035 179.309 16.4335L179.31 16.437C179.31 16.437 179.296 16.437 179.272 16.4398C179.091 16.4677 178.917 16.5222 178.76 16.6025C178.542 16.7219 178.302 16.9279 178.131 17.2834C177.998 17.5927 177.922 17.944 177.907 18.2757C177.904 18.3483 177.902 18.4203 177.9 18.4929C177.899 18.6912 177.894 21.5118 177.894 21.5118H176.955V15.9852C176.955 15.8692 177.049 15.7757 177.165 15.7757H177.832C177.832 15.7757 177.84 16.3909 177.837 16.6151C178.019 16.1835 178.412 15.9293 178.747 15.7847C178.915 15.7065 179.092 15.6528 179.271 15.6192L179.294 15.615L179.294 15.615L179.294 15.615L179.294 15.615L179.294 15.6149C179.301 15.6138 179.305 15.6129 179.309 15.6123H179.311C179.313 15.6116 179.315 15.6116 179.315 15.6116C179.758 15.5375 180.209 15.5878 180.568 15.6981C181.269 15.9125 181.686 16.4433 181.708 17.2778C181.734 18.2571 181.731 19.2374 181.729 20.2176V20.2176V20.2177V20.2177V20.2178V20.2178V20.2179V20.218C181.728 20.6097 181.727 21.0015 181.728 21.3931ZM201.937 23.1215C201.915 23.1215 201.894 23.1208 201.873 23.1194C201.899 23.1208 201.925 23.1215 201.951 23.1215H201.937ZM179.521 8.39856C179.521 6.72052 180.786 5.3602 182.346 5.3602C183.906 5.3602 185.171 6.72052 185.171 8.39856C185.171 10.0766 183.906 11.4369 182.346 11.4369C180.786 11.4369 179.521 10.0766 179.521 8.39856ZM180.6 8.39856C180.6 9.56569 181.381 10.5118 182.346 10.5118C183.31 10.5118 184.092 9.56569 184.092 8.39856C184.092 7.23143 183.31 6.28528 182.346 6.28528C181.381 6.28528 180.6 7.23143 180.6 8.39856ZM185.992 15.5703C184.432 15.5703 183.167 16.9306 183.167 18.6086C183.167 20.2867 184.432 21.647 185.992 21.647C187.552 21.647 188.817 20.2867 188.817 18.6086C188.817 16.9306 187.552 15.5703 185.992 15.5703ZM185.992 20.7219C185.027 20.7219 184.246 19.7758 184.246 18.6086C184.246 17.4415 185.027 16.4954 185.992 16.4954C186.956 16.4954 187.738 17.4415 187.738 18.6086C187.738 19.7758 186.956 20.7219 185.992 20.7219ZM192.675 18.6086C192.675 16.9306 193.94 15.5703 195.5 15.5703C197.061 15.5703 198.326 16.9306 198.326 18.6086C198.326 20.2867 197.061 21.647 195.5 21.647C193.94 21.647 192.675 20.2867 192.675 18.6086ZM193.754 18.6086C193.754 19.7758 194.536 20.7219 195.5 20.7219C196.465 20.7219 197.247 19.7758 197.247 18.6086C197.247 17.4415 196.465 16.4954 195.5 16.4954C194.536 16.4954 193.754 17.4415 193.754 18.6086ZM220.057 19.7178L220.057 19.718C220.023 19.2392 219.773 18.7728 219.232 18.5153C218.976 18.3944 218.699 18.3168 218.423 18.2394L218.423 18.2393C218.347 18.218 218.271 18.1967 218.195 18.1745C218.011 18.1202 217.826 18.0705 217.64 18.0208C217.335 17.9391 217.03 17.8573 216.732 17.7548C216.521 17.6817 216.349 17.546 216.285 17.339L216.285 17.3363C216.28 17.323 216.277 17.3092 216.274 17.2953C216.232 17.071 216.329 16.5194 217.325 16.4754C217.357 16.4743 217.389 16.4734 217.421 16.4729L217.431 16.4727L217.447 16.4724L217.462 16.4725C218.235 16.4752 218.587 16.858 218.74 17.1282C218.815 17.2753 218.847 17.3896 218.847 17.3896H219.777C219.777 16.7199 219.493 16.2925 219.125 16.0195C218.975 15.9091 218.813 15.8246 218.648 15.759C218.461 15.6843 218.272 15.6347 218.102 15.6026C218.078 15.5977 218.053 15.5933 218.028 15.589L218.028 15.5889L218.018 15.5872C217.993 15.583 217.969 15.5788 217.945 15.5753L217.936 15.5739C217.927 15.5726 217.917 15.5715 217.908 15.5704L217.894 15.5683L217.873 15.5662C217.864 15.5641 217.856 15.5634 217.848 15.5628C217.844 15.5624 217.84 15.5618 217.837 15.5614C217.833 15.561 217.83 15.5607 217.827 15.5607C217.799 15.5579 217.773 15.5551 217.748 15.553L217.727 15.551L217.691 15.5481C217.66 15.546 217.63 15.5446 217.604 15.5432L217.599 15.543L217.599 15.543C217.584 15.5424 217.57 15.5418 217.557 15.5418C217.498 15.5397 217.465 15.5404 217.465 15.5404C217.465 15.5404 216.228 15.5065 215.598 16.2331L215.586 16.2453L215.584 16.2486C215.351 16.5093 215.235 16.8464 215.236 17.2464C215.236 17.2488 215.236 17.2511 215.237 17.2534C215.237 17.2554 215.237 17.2574 215.237 17.2594L215.237 17.2704L215.237 17.2769L215.237 17.2767C215.249 17.8454 215.519 18.2602 216.028 18.4811C216.323 18.609 216.635 18.6972 216.948 18.7854L216.948 18.7855C217.072 18.8205 217.196 18.8556 217.319 18.8931C217.453 18.9337 217.588 18.9708 217.723 19.0079C217.993 19.0818 218.263 19.1558 218.522 19.2577C218.906 19.4076 219.038 19.6183 219.03 19.9513V19.9513C219.029 19.9614 219.029 19.9715 219.029 19.9817C219.028 19.9942 219.027 20.0068 219.026 20.0195C219.025 20.0422 219.022 20.0641 219.019 20.0854C219.017 20.0951 219.015 20.1047 219.013 20.1142L219.012 20.1224C218.903 20.5884 218.303 20.7986 217.644 20.8069C217.403 20.8061 217.162 20.7718 216.921 20.7018C216.851 20.6812 216.784 20.6568 216.721 20.6289C216.086 20.3125 216.082 19.6857 216.082 19.6857H215.763C215.626 19.6809 215.488 19.6825 215.351 19.6841C215.282 19.6849 215.214 19.6857 215.146 19.6857C215.146 19.6857 214.892 21.563 217.429 21.6456L217.443 21.6461C217.496 21.6477 217.549 21.6487 217.604 21.6487C220.327 21.6487 220.057 19.7178 220.057 19.7178ZM174.04 15.6691C174.741 15.8835 175.158 16.4142 175.179 17.2487C175.216 18.6195 175.168 21.4785 175.168 21.4785H174.256C174.256 21.4785 174.257 18.887 174.256 17.7808C174.255 16.9994 174.016 16.5965 173.469 16.447C173.246 16.3863 173.009 16.3744 172.78 16.4044L172.781 16.4079C172.781 16.4079 172.767 16.4079 172.743 16.4107C172.563 16.4386 172.389 16.4931 172.232 16.5734C172.013 16.6928 171.774 16.8988 171.603 17.2543C171.47 17.5637 171.393 17.9149 171.378 18.2466C171.376 18.3193 171.374 18.3912 171.371 18.4638C171.371 18.6621 171.365 21.4827 171.365 21.4827H170.427V13.7183C170.427 13.6043 170.519 13.5119 170.633 13.5119H171.303H171.305V14.3821C171.308 15.2402 171.31 16.4435 171.309 16.586C171.491 16.1544 171.883 15.9002 172.219 15.7557C172.387 15.6775 172.563 15.6237 172.742 15.5902C172.751 15.5885 172.759 15.5871 172.765 15.586C172.772 15.5848 172.777 15.5839 172.78 15.5832H172.782C172.785 15.5825 172.786 15.5825 172.786 15.5825C173.229 15.5084 173.68 15.5587 174.04 15.6691Z" fill="black"/>
<circle cx="11.9765" cy="12.16" r="11.9765" fill="url(#paint0_linear)"/>
<g filter="url(#filter0_f)">
<circle cx="8" cy="10" r="6" fill="white"/>
</g>
</g>
<defs>
<filter id="filter0_f" x="-8" y="-6" width="32" height="32" filterUnits="userSpaceOnUse" color-interpolation-filters="sRGB">
<feFlood flood-opacity="0" result="BackgroundImageFix"/>
<feBlend mode="normal" in="SourceGraphic" in2="BackgroundImageFix" result="shape"/>
<feGaussianBlur stdDeviation="5" result="effect1_foregroundBlur"/>
</filter>
<linearGradient id="paint0_linear" x1="4.46161e-08" y1="12.16" x2="23.9531" y2="12.16" gradientUnits="userSpaceOnUse">
<stop stop-color="#2047F4"/>
<stop offset="1" stop-color="#4D6CF5"/>
</linearGradient>
<clipPath id="clip0">
<rect width="220" height="25.7956" fill="white"/>
</clipPath>
</defs>
</svg>
