<svg width="169" height="34" viewBox="0 0 169 34" fill="none" xmlns="http://www.w3.org/2000/svg">
<path fill-rule="evenodd" clip-rule="evenodd" d="M49.6946 10.6969H46.4633L41.923 15.6199H40.6628V10.6969H38.0928V23.1766H40.6628V17.935H41.9112L46.85 23.1766H50.076L44.1356 16.7742L49.6946 10.6969ZM50.8672 23.1766H53.4372V10.6969H50.8672V23.1766ZM65.272 19.2511L58.2117 11H56V23.4802H58.5701V15.2238L65.6625 23.4802H67.8582V11H65.272V19.2511ZM75.4344 18.1263H78.8596V20.679C78.0262 20.9549 77.1265 21.0843 76.0664 21.0843C73.6716 21.0843 72.8743 20.485 72.8743 16.9368C72.8743 13.389 73.7906 12.7892 76.5442 12.7892C78.266 12.7892 79.4124 13.1379 80.3068 13.4788L81.207 13.8219V11.6833L80.819 11.5059C79.4494 10.8804 77.9739 10.6014 76.0342 10.6014C71.7502 10.6014 70.3043 12.1999 70.3043 16.9368C70.3043 21.6144 71.8286 23.2725 76.1301 23.2725C78.0951 23.2725 79.585 23.0101 80.9629 22.4225L81.3661 22.2504V15.9386H75.4344V18.1263ZM90.9523 17.7057L86.1648 10.6969H83.9078V23.1771H86.4778V15.5149L90.3216 21.185H91.5665L95.4264 15.5088V23.1771H97.9968V10.6969H95.7398L90.9523 17.7057ZM106.714 21.0843C103.752 21.0843 103.029 20.2701 103.029 16.9368C103.029 13.389 103.949 12.7892 106.714 12.7892C109.492 12.7892 110.416 13.389 110.416 16.9368C110.416 20.2317 109.655 21.0843 106.714 21.0843ZM106.714 10.6014C102.038 10.6014 100.459 12.1999 100.459 16.9368C100.459 21.6144 102.096 23.2725 106.714 23.2725C111.345 23.2725 112.986 21.6144 112.986 16.9368C112.986 12.1999 111.403 10.6014 106.714 10.6014ZM118.161 12.8851H119.521C123.278 12.8851 123.461 13.5089 123.461 14.6108C123.461 15.6849 123.196 16.337 119.521 16.337H118.161V12.8851ZM126.031 14.6108C126.031 11.3207 123.743 10.6969 119.521 10.6969H115.591V23.1771H118.161V18.5247H119.521C119.792 18.5247 120.052 18.5247 120.303 18.5191L124.197 23.1771H127.374L123.106 18.2275C125.166 17.7471 126.031 16.6439 126.031 14.6108ZM133.596 17.8504L135.685 13.7373L137.774 17.8504H133.596ZM134.428 10.6969L128.277 23.1766H131.056L132.666 20.0382H138.705L140.314 23.1766H143.095L136.926 10.6969H134.428ZM149.332 10.6014C145.06 10.6014 143.618 12.1999 143.618 16.9368C143.618 21.6148 145.113 23.2725 149.332 23.2725C151.251 23.2725 152.714 22.9875 154.075 22.3493L154.456 22.1702V20.0221L153.548 20.3825C152.674 20.7295 151.547 21.0843 149.826 21.0843C146.902 21.0843 146.188 20.2705 146.188 16.9368C146.188 13.389 147.096 12.7896 149.826 12.7896C151.515 12.7896 152.617 13.1205 153.556 13.4788L154.456 13.8219V11.6833L154.069 11.5059C152.699 10.8804 151.238 10.6014 149.332 10.6014ZM162.849 16.7742L168.408 10.6969H165.176L160.636 15.6199H159.376V10.6969H156.806V23.1766H159.376V17.935H160.624L165.563 23.1766H168.789L162.849 16.7742Z" fill="#011936"/>
<path fill-rule="evenodd" clip-rule="evenodd" d="M12.3468 17.3003L0 10.1412V24.4595L12.3468 17.3003ZM13.7242 19.5583L1.35346 26.7314L13.7242 33.8736V19.5583ZM14.984 15.7721L28.6141 7.86926L14.984 0L1.35433 7.86926L14.984 15.7721ZM16.3701 19.6315V33.8008L28.6149 26.7314L16.3701 19.6315ZM17.6212 17.3003L29.9679 24.4595V10.1412L17.6212 17.3003Z" fill="#BA2D0B"/>
</svg>
