<svg width="129" height="16" viewBox="0 0 129 16" fill="none" xmlns="http://www.w3.org/2000/svg">
<path d="M0 0.26H2.028L7.306 10.556L12.584 0.26H14.612V15.028H11.908V7.176L7.93 15.028H6.682L2.704 7.176V15.028H0V0.26Z" fill="white"/>
<path d="M16.6959 0.26H19.8679L23.3259 6.318L26.8099 0.26H29.9819L24.7299 9.048V15.028H21.9479V9.048L16.6959 0.26Z" fill="white"/>
<path d="M40.9002 0.26H43.6042L49.3242 15.028H46.3602L44.9302 11.206H39.5742L38.1442 15.028H35.1802L40.9002 0.26ZM44.1502 8.892L42.2522 3.796L40.3542 8.892H44.1502Z" fill="white"/>
<path d="M51.416 15.028V0.26H60.516C60.932 0.26 61.322 0.338 61.686 0.494C62.05 0.65 62.362 0.866667 62.622 1.144C62.8993 1.42133 63.116 1.742 63.272 2.106C63.428 2.45267 63.506 2.834 63.506 3.25V12.038C63.506 12.454 63.428 12.844 63.272 13.208C63.116 13.5547 62.8993 13.8667 62.622 14.144C62.362 14.4213 62.05 14.638 61.686 14.794C61.322 14.95 60.932 15.028 60.516 15.028H51.416ZM59.71 12.402C60.0047 12.402 60.2387 12.3067 60.412 12.116C60.5854 11.9253 60.672 11.7087 60.672 11.466V3.822C60.672 3.57933 60.5854 3.36267 60.412 3.172C60.2387 2.98133 60.0047 2.886 59.71 2.886H54.25V12.402H59.71Z" fill="white"/>
<path d="M67.8531 0.26L71.6231 10.686L75.4191 0.26H78.4611L72.7931 15.028H70.4531L64.8111 0.26H67.8531Z" fill="white"/>
<path d="M80.6691 0.26H83.5551V15.028H80.6691V0.26Z" fill="white"/>
<path d="M86.9284 10.504H89.6324V11.726C89.6324 11.9687 89.7277 12.1853 89.9184 12.376C90.109 12.5667 90.3344 12.662 90.5944 12.662H94.4944C94.7544 12.662 94.9797 12.5667 95.1704 12.376C95.361 12.1853 95.4564 11.96 95.4564 11.7V10.296C95.4564 10.1227 95.4044 9.958 95.3004 9.802C95.2137 9.62867 95.075 9.52467 94.8844 9.49L88.6964 7.826C88.1417 7.68733 87.7084 7.39267 87.3964 6.942C87.0844 6.474 86.9284 5.96267 86.9284 5.408V2.99C86.9284 2.574 87.0064 2.19267 87.1624 1.846C87.3184 1.482 87.535 1.16133 87.8124 0.883999C88.0897 0.606666 88.4017 0.39 88.7484 0.234C89.1124 0.0780001 89.5024 0 89.9184 0H95.2484C95.6644 0 96.0544 0.0780001 96.4184 0.234C96.7997 0.39 97.1204 0.606666 97.3804 0.883999C97.6577 1.16133 97.8744 1.482 98.0304 1.846C98.1864 2.19267 98.2644 2.574 98.2644 2.99V4.784H95.5344V3.562C95.5344 3.31933 95.439 3.10267 95.2484 2.912C95.075 2.72133 94.8497 2.626 94.5724 2.626H90.6984C90.4384 2.626 90.2044 2.72133 89.9964 2.912C89.8057 3.10267 89.7104 3.328 89.7104 3.588V4.992C89.7104 5.16533 89.7537 5.33 89.8404 5.486C89.9444 5.642 90.0917 5.746 90.2824 5.798L96.4704 7.462C97.025 7.618 97.4584 7.93 97.7704 8.398C98.0997 8.84867 98.2644 9.35133 98.2644 9.906V12.298C98.2644 12.714 98.1864 13.104 98.0304 13.468C97.8744 13.8147 97.6577 14.1267 97.3804 14.404C97.1204 14.6813 96.7997 14.898 96.4184 15.054C96.0544 15.21 95.6644 15.288 95.2484 15.288H89.9184C89.5024 15.288 89.1124 15.21 88.7484 15.054C88.4017 14.898 88.0897 14.6813 87.8124 14.404C87.535 14.1267 87.3184 13.8147 87.1624 13.468C87.0064 13.104 86.9284 12.714 86.9284 12.298V10.504Z" fill="white"/>
<path d="M110.794 0C111.21 0 111.591 0.0780001 111.938 0.234C112.302 0.39 112.622 0.606666 112.9 0.883999C113.177 1.16133 113.394 1.482 113.55 1.846C113.706 2.19267 113.784 2.574 113.784 2.99V12.298C113.784 12.714 113.706 13.104 113.55 13.468C113.394 13.8147 113.177 14.1267 112.9 14.404C112.622 14.6813 112.302 14.898 111.938 15.054C111.591 15.21 111.21 15.288 110.794 15.288H104.242C103.826 15.288 103.436 15.21 103.072 15.054C102.725 14.898 102.413 14.6813 102.136 14.404C101.858 14.1267 101.642 13.8147 101.486 13.468C101.33 13.104 101.252 12.714 101.252 12.298V2.99C101.252 2.574 101.33 2.19267 101.486 1.846C101.642 1.482 101.858 1.16133 102.136 0.883999C102.413 0.606666 102.725 0.39 103.072 0.234C103.436 0.0780001 103.826 0 104.242 0H110.794ZM105.022 2.626C104.744 2.626 104.51 2.72133 104.32 2.912C104.146 3.10267 104.06 3.31933 104.06 3.562V11.726C104.06 11.9687 104.146 12.1853 104.32 12.376C104.51 12.5667 104.744 12.662 105.022 12.662H110.014C110.291 12.662 110.516 12.5667 110.69 12.376C110.88 12.1853 110.976 11.9687 110.976 11.726V3.562C110.976 3.31933 110.88 3.10267 110.69 2.912C110.516 2.72133 110.291 2.626 110.014 2.626H105.022Z" fill="white"/>
<path d="M117.152 0.26H124.588C125.004 0.26 125.394 0.338 125.758 0.494C126.122 0.65 126.434 0.866667 126.694 1.144C126.972 1.42133 127.188 1.742 127.344 2.106C127.5 2.45267 127.578 2.834 127.578 3.25V6.682C127.578 7.39267 127.362 8.01667 126.928 8.554C126.495 9.074 125.949 9.40333 125.29 9.542H125.082L128.956 15.028H125.706L121.962 9.672H119.986V15.028H117.152V0.26ZM123.496 7.358C123.878 7.358 124.181 7.23667 124.406 6.994C124.649 6.75133 124.77 6.46533 124.77 6.136V3.952C124.77 3.62267 124.649 3.33667 124.406 3.094C124.181 2.834 123.878 2.704 123.496 2.704H119.986V7.358H123.496Z" fill="white"/>
</svg>
