<svg width="80" height="22" viewBox="0 0 80 22" fill="none" xmlns="http://www.w3.org/2000/svg">
<path d="M21.8563 0.466512V20.7244C21.8563 20.8486 21.8101 20.9577 21.717 21.0511C21.6239 21.1445 21.5049 21.1909 21.3603 21.1909H18.012C17.8669 21.1909 17.7484 21.1445 17.6554 21.0511C17.5623 20.9577 17.516 20.8486 17.516 20.7244V7.77927L13.0208 15.6519C12.8347 15.9844 12.5867 16.1498 12.2768 16.1498H9.70378C9.39392 16.1498 9.14592 15.9844 8.95978 15.6519L4.34028 7.77927V20.7244C4.34028 20.8486 4.29403 20.9577 4.20096 21.0511C4.10789 21.1445 3.9888 21.1909 3.84428 21.1909H0.495999C0.350899 21.1909 0.232391 21.1445 0.139319 21.0511C0.046247 20.9577 0 20.8486 0 20.7244V0.466512C0 0.342341 0.046247 0.233256 0.139319 0.139838C0.232391 0.0464191 0.351477 0 0.495999 0H4.03043C4.42295 0 4.71257 0.165948 4.89871 0.497845L10.9131 10.9845L16.9582 0.497845C17.1235 0.165948 17.4027 0 17.7953 0H21.3603C21.5049 0 21.6239 0.0464191 21.717 0.139838C21.8101 0.233256 21.8563 0.341761 21.8563 0.466512V0.466512Z" fill="white"/>
<path d="M25.5773 0H40.5203C40.6648 0 40.7839 0.0464191 40.877 0.139838C40.97 0.233256 41.0163 0.341761 41.0163 0.466512V3.51625C41.0163 3.641 40.97 3.74951 40.877 3.84292C40.7839 3.93634 40.6648 3.98276 40.5203 3.98276H29.5459V8.55737H38.9086C39.0329 8.55737 39.141 8.60379 39.234 8.69721C39.3271 8.79062 39.3734 8.89913 39.3734 9.02388V12.0423C39.3734 12.1879 39.3265 12.3069 39.234 12.4003C39.141 12.4937 39.0323 12.5401 38.9086 12.5401H29.5459V17.2389H40.5203C40.8509 17.2389 41.0163 17.3944 41.0163 17.7054V20.7238C41.0163 20.848 40.97 20.9571 40.877 21.0505C40.7839 21.1439 40.6648 21.1903 40.5203 21.1903H25.5773C25.4322 21.1903 25.3137 21.1439 25.2206 21.0505C25.1275 20.9571 25.0813 20.848 25.0813 20.7238V0.466512C25.0813 0.341761 25.1275 0.233256 25.2206 0.139838C25.3137 0.0464191 25.4322 0 25.5773 0V0Z" fill="white"/>
<path d="M50.4383 8.60417H48.6688C48.3821 8.60417 48.1502 8.37092 48.1502 8.0837V6.30758C48.1502 6.01979 47.9179 5.78711 47.6317 5.78711H44.7014C44.4146 5.78711 44.1828 6.02037 44.1828 6.30758V8.0837C44.1828 8.3715 43.9504 8.60417 43.6643 8.60417H41.8948C41.608 8.60417 41.3762 8.83743 41.3762 9.12465V12.0659C41.3762 12.3537 41.6086 12.5864 41.8948 12.5864H43.6643C43.951 12.5864 44.1828 12.8196 44.1828 13.1068V14.8829C44.1828 15.1707 44.4152 15.4034 44.7014 15.4034H47.6317C47.9184 15.4034 48.1502 15.1702 48.1502 14.8829V13.1068C48.1502 12.819 48.3826 12.5864 48.6688 12.5864H50.4383C50.725 12.5864 50.9569 12.3531 50.9569 12.0659V9.12465C50.9569 8.83685 50.7245 8.60417 50.4383 8.60417V8.60417Z" fill="url(#paint0_linear_857_10566)"/>
<path d="M61.3526 3.23599C59.327 1.07866 56.4233 0 52.6408 0H44.7355C44.5904 0 44.4719 0.0464191 44.3788 0.139838C44.2857 0.233256 44.2395 0.341761 44.2395 0.466512V3.24296C44.2395 3.53134 44.4725 3.76517 44.7598 3.76517H52.0211C54.5838 3.76517 56.4857 4.42955 57.7257 5.75713C58.7998 6.89846 59.338 8.50631 59.338 10.5801C59.338 13.526 58.2841 15.5278 56.1759 16.5856C55.0388 17.1455 53.623 17.4257 51.9286 17.4257H44.7604C44.473 17.4257 44.2401 17.6596 44.2401 17.948V20.7244C44.2401 20.8486 44.2863 20.9577 44.3794 21.0511C44.4725 21.1445 44.591 21.1909 44.7361 21.1909H52.2385C55.0492 21.1909 57.3644 20.6832 59.1831 19.666C62.3244 17.8818 63.8951 14.8535 63.8951 10.5795C63.8951 7.48857 63.0476 5.04054 61.3526 3.23541V3.23599Z" fill="white"/>
<path d="M64.281 19.9968C64.281 20.4887 64.6958 20.9035 65.1877 20.9035C65.6796 20.9035 66.0944 20.4887 66.0944 19.9968C66.0944 19.5049 65.6796 19.0901 65.1877 19.0901C64.6958 19.0901 64.281 19.5049 64.281 19.9968Z" fill="#F1F6F9"/>
<path d="M72.562 20.7877L71.2502 18.4246C71.8482 18.2124 72.5331 17.6143 72.5331 16.4955C72.5331 15.2994 71.7228 14.3541 70.2953 14.3541H67.0737V20.7877H68.7327V18.6078H69.5815L70.6618 20.7877H72.562ZM70.8451 16.4762C70.8451 16.9199 70.4786 17.1996 70.0445 17.1996H68.7327V15.7528H70.0445C70.4786 15.7528 70.8451 16.0325 70.8451 16.4762Z" fill="#F1F6F9"/>
<path d="M73.1227 17.5758C73.1227 19.5338 74.5985 20.9035 76.5662 20.9035C78.5339 20.9035 80 19.5338 80 17.5758C80 15.6177 78.5339 14.248 76.5662 14.248C74.5985 14.248 73.1227 15.6177 73.1227 17.5758ZM78.312 17.5758C78.312 18.6175 77.6272 19.4374 76.5662 19.4374C75.4955 19.4374 74.8107 18.6175 74.8107 17.5758C74.8107 16.5244 75.4955 15.7142 76.5662 15.7142C77.6272 15.7142 78.312 16.5244 78.312 17.5758Z" fill="#F1F6F9"/>
<defs>
<linearGradient id="paint0_linear_857_10566" x1="41.3762" y1="5.78711" x2="51.0285" y2="15.4038" gradientUnits="userSpaceOnUse">
<stop stop-color="#359D9E"/>
<stop offset="1" stop-color="#55C595"/>
</linearGradient>
</defs>
</svg>
