<svg width="130" height="24" viewBox="0 0 130 24" fill="none" xmlns="http://www.w3.org/2000/svg">
<circle cx="12" cy="12" r="12" fill="white"/>
<path d="M36 6.18707H37.4783L41.3256 13.5952L45.1728 6.18707H46.6511V16.8129H44.6801V11.1633L41.7804 16.8129H40.8707L37.971 11.1633V16.8129H36V6.18707Z" fill="white"/>
<path d="M48.1701 6.18707H50.4823L53.0029 10.5459L55.5425 6.18707H57.8546L54.0263 12.5102V16.8129H51.9984V12.5102L48.1701 6.18707Z" fill="white"/>
<path d="M65.8134 6.18707H67.7844L71.9539 16.8129H69.7933L68.7509 14.0629H64.8468L63.8044 16.8129H61.6439L65.8134 6.18707ZM68.1824 12.398L66.7989 8.73129L65.4154 12.398H68.1824Z" fill="white"/>
<path d="M73.4786 16.8129V6.18707H80.1119C80.4151 6.18707 80.6994 6.2432 80.9647 6.35544C81.23 6.46769 81.4575 6.62358 81.647 6.82313C81.8492 7.02268 82.0071 7.2534 82.1208 7.51531C82.2345 7.76474 82.2914 8.03912 82.2914 8.33844V14.6616C82.2914 14.9609 82.2345 15.2415 82.1208 15.5034C82.0071 15.7528 81.8492 15.9773 81.647 16.1769C81.4575 16.3764 81.23 16.5323 80.9647 16.6446C80.6994 16.7568 80.4151 16.8129 80.1119 16.8129H73.4786ZM79.5244 14.9235C79.7391 14.9235 79.9097 14.8549 80.0361 14.7177C80.1624 14.5805 80.2256 14.4246 80.2256 14.25V8.75C80.2256 8.5754 80.1624 8.4195 80.0361 8.28231C79.9097 8.14512 79.7391 8.07653 79.5244 8.07653H75.5444V14.9235H79.5244Z" fill="white"/>
<path d="M85.4601 6.18707L88.2081 13.6888L90.9752 6.18707H93.1926L89.061 16.8129H87.3553L83.2427 6.18707H85.4601Z" fill="white"/>
<path d="M94.802 6.18707H96.9057V16.8129H94.802V6.18707Z" fill="white"/>
<path d="M99.3646 13.5578H101.336V14.4371C101.336 14.6117 101.405 14.7676 101.544 14.9048C101.683 15.0419 101.847 15.1105 102.037 15.1105H104.88C105.069 15.1105 105.233 15.0419 105.372 14.9048C105.511 14.7676 105.581 14.6054 105.581 14.4184V13.4082C105.581 13.2834 105.543 13.165 105.467 13.0527C105.404 12.928 105.303 12.8532 105.164 12.8282L100.653 11.631C100.249 11.5312 99.9332 11.3192 99.7057 10.9949C99.4783 10.6582 99.3646 10.2902 99.3646 9.89116V8.15136C99.3646 7.85204 99.4214 7.57766 99.5352 7.32823C99.6489 7.06633 99.8068 6.8356 100.009 6.63605C100.211 6.43651 100.439 6.28061 100.691 6.16837C100.957 6.05612 101.241 6 101.544 6H105.429C105.733 6 106.017 6.05612 106.282 6.16837C106.56 6.28061 106.794 6.43651 106.983 6.63605C107.186 6.8356 107.343 7.06633 107.457 7.32823C107.571 7.57766 107.628 7.85204 107.628 8.15136V9.44218H105.638V8.56292C105.638 8.38832 105.568 8.23243 105.429 8.09524C105.303 7.95805 105.139 7.88946 104.937 7.88946H102.113C101.923 7.88946 101.753 7.95805 101.601 8.09524C101.462 8.23243 101.392 8.39456 101.392 8.58163V9.59184C101.392 9.71655 101.424 9.83503 101.487 9.94728C101.563 10.0595 101.67 10.1344 101.809 10.1718L106.32 11.369C106.724 11.4813 107.04 11.7058 107.268 12.0425C107.508 12.3668 107.628 12.7285 107.628 13.1276V14.8486C107.628 15.148 107.571 15.4286 107.457 15.6905C107.343 15.9399 107.186 16.1644 106.983 16.3639C106.794 16.5635 106.56 16.7194 106.282 16.8316C106.017 16.9439 105.733 17 105.429 17H101.544C101.241 17 100.957 16.9439 100.691 16.8316C100.439 16.7194 100.211 16.5635 100.009 16.3639C99.8068 16.1644 99.6489 15.9399 99.5352 15.6905C99.4214 15.4286 99.3646 15.148 99.3646 14.8486V13.5578Z" fill="white"/>
<path d="M116.761 6C117.064 6 117.342 6.05612 117.595 6.16837C117.86 6.28061 118.094 6.43651 118.296 6.63605C118.498 6.8356 118.656 7.06633 118.77 7.32823C118.883 7.57766 118.94 7.85204 118.94 8.15136V14.8486C118.94 15.148 118.883 15.4286 118.77 15.6905C118.656 15.9399 118.498 16.1644 118.296 16.3639C118.094 16.5635 117.86 16.7194 117.595 16.8316C117.342 16.9439 117.064 17 116.761 17H111.985C111.682 17 111.397 16.9439 111.132 16.8316C110.879 16.7194 110.652 16.5635 110.45 16.3639C110.248 16.1644 110.09 15.9399 109.976 15.6905C109.862 15.4286 109.805 15.148 109.805 14.8486V8.15136C109.805 7.85204 109.862 7.57766 109.976 7.32823C110.09 7.06633 110.248 6.8356 110.45 6.63605C110.652 6.43651 110.879 6.28061 111.132 6.16837C111.397 6.05612 111.682 6 111.985 6H116.761ZM112.553 7.88946C112.351 7.88946 112.181 7.95805 112.042 8.09524C111.915 8.23243 111.852 8.38832 111.852 8.56292V14.4371C111.852 14.6117 111.915 14.7676 112.042 14.9048C112.181 15.0419 112.351 15.1105 112.553 15.1105H116.192C116.394 15.1105 116.559 15.0419 116.685 14.9048C116.824 14.7676 116.893 14.6117 116.893 14.4371V8.56292C116.893 8.38832 116.824 8.23243 116.685 8.09524C116.559 7.95805 116.394 7.88946 116.192 7.88946H112.553Z" fill="white"/>
<path d="M121.396 6.18707H126.816C127.119 6.18707 127.404 6.2432 127.669 6.35544C127.934 6.46769 128.162 6.62358 128.351 6.82313C128.553 7.02268 128.711 7.2534 128.825 7.51531C128.939 7.76474 128.996 8.03912 128.996 8.33844V10.8078C128.996 11.3192 128.838 11.7681 128.522 12.1548C128.206 12.5289 127.808 12.7659 127.328 12.8656H127.176L130 16.8129H127.631L124.902 12.9592H123.462V16.8129H121.396V6.18707ZM126.02 11.2942C126.298 11.2942 126.519 11.2069 126.683 11.0323C126.86 10.8577 126.949 10.6519 126.949 10.415V8.84354C126.949 8.60658 126.86 8.40079 126.683 8.22619C126.519 8.03911 126.298 7.94558 126.02 7.94558H123.462V11.2942H126.02Z" fill="white"/>
</svg>
