<svg width="208" height="35" viewBox="0 0 208 35" fill="none" xmlns="http://www.w3.org/2000/svg">
<g clip-path="url(#clip0_401_3938)">
<circle cx="15.9687" cy="16.2132" r="15.9687" fill="url(#paint0_linear_401_3938)"/>
<g filter="url(#filter0_f_401_3938)">
<circle cx="10.667" cy="13.3329" r="8" fill="white"/>
</g>
<path fill-rule="evenodd" clip-rule="evenodd" d="M96.712 21.3439H79.8338C80.0451 23.7263 81.615 26.5453 85.0861 26.8394C87.3056 27.0274 89.2858 26.486 90.8897 24.8567C90.9119 24.8341 90.9394 24.8164 90.9743 24.7941L90.9747 24.7938C90.9936 24.7817 91.0149 24.7681 91.0386 24.7514L95.1996 28.1895C94.3133 29.0633 93.3379 29.7251 92.2618 30.2429C90.1668 31.251 87.9358 31.5852 85.637 31.547C83.2242 31.5068 80.9186 31.0117 78.8139 29.7868C75.7813 28.0219 73.9514 25.3853 73.4099 21.9314C72.7539 17.747 73.7463 14.0195 76.8693 11.0313C79.0146 8.97885 81.6563 8.03453 84.598 7.92327C87.6965 7.80609 90.5461 8.52546 92.9436 10.5957C94.9882 12.361 96.1203 14.6461 96.5006 17.2847C96.631 18.1893 96.671 19.1069 96.7119 20.0431L96.712 20.0442V20.0443V20.0444V20.0445V20.0447C96.7207 20.245 96.7152 20.4461 96.7097 20.6482C96.7035 20.8789 96.6972 21.1108 96.712 21.3439ZM89.8097 17.1136C89.5033 14.6962 87.8967 12.4525 84.6045 12.5579C82.1637 12.6361 79.9488 14.7527 79.8581 17.1136H89.8097Z" fill="black"/>
<path fill-rule="evenodd" clip-rule="evenodd" d="M139.118 24.1357C140.03 25.1285 141.027 25.9186 142.271 26.405C143.806 27.0055 145.391 27.1335 147.005 26.7211C147.342 26.6348 147.678 26.4815 147.965 26.2945C149.251 25.4569 149.205 23.8222 147.836 23.1124C147.226 22.796 146.543 22.5884 145.869 22.3836L145.868 22.3831C145.797 22.3614 145.725 22.3398 145.654 22.318C145.139 22.1601 144.616 22.0175 144.095 21.8751C143.281 21.653 142.469 21.4309 141.68 21.1505C139.765 20.4702 138.327 19.3078 137.776 17.4022C136.72 13.751 138.51 10.3204 142.398 9.06212C147.027 7.56368 151.468 8.11152 155.565 10.6679C155.646 10.7187 155.721 10.7792 155.796 10.8395V10.8395C155.81 10.8512 155.824 10.8629 155.839 10.8745L155.852 10.8851C155.879 10.9061 155.902 10.9302 155.934 10.9627V10.9628C155.95 10.9803 155.97 11.0003 155.994 11.0236L152.738 14.8745C151.767 14.0756 150.679 13.5514 149.462 13.2467C148.273 12.9491 147.095 12.9099 145.929 13.3338C145.06 13.6501 144.528 14.2233 144.432 15.0877C144.341 15.9135 144.701 16.6033 145.492 16.959C146.345 17.343 147.248 17.6373 148.148 17.9305C148.272 17.9707 148.396 18.0111 148.518 18.0515C148.994 18.2075 149.476 18.348 149.958 18.4886C150.685 18.7006 151.412 18.9126 152.116 19.1775C154.413 20.0415 155.852 21.5675 156.075 23.9085C156.314 26.4218 155.376 28.467 153.083 29.9117C151.17 31.1167 148.985 31.4998 146.716 31.5346C143.74 31.5804 140.857 31.1802 138.187 29.88C137.221 29.4095 136.34 28.8314 135.591 28.0462L139.118 24.1357Z" stroke="black" stroke-width="1.33333" stroke-miterlimit="10"/>
<path fill-rule="evenodd" clip-rule="evenodd" d="M165.88 21.5015H182.823C182.796 21.0641 182.777 20.6312 182.758 20.2023V20.2021V20.202V20.2019V20.2017C182.717 19.2652 182.677 18.3472 182.547 17.4423C182.166 14.8037 181.034 12.5186 178.99 10.7533C176.592 8.68306 173.742 7.96368 170.644 8.08087C167.702 8.19206 165.061 9.13644 162.915 11.1889C159.792 14.1771 158.8 17.9046 159.456 22.089C159.997 25.5429 161.827 28.1795 164.86 29.9443C166.965 31.1692 169.27 31.6643 171.683 31.7045C173.982 31.7428 176.213 31.4086 178.308 30.4005C179.384 29.8827 180.359 29.2209 181.246 28.3471L177.085 24.909C177.061 24.9257 177.04 24.9392 177.021 24.9514C176.985 24.9739 176.958 24.9915 176.936 25.0143C175.332 26.6436 173.351 27.185 171.132 26.997C167.661 26.7029 166.091 23.8839 165.88 21.5015Z" stroke="black" stroke-width="1.33333" stroke-miterlimit="10"/>
<path fill-rule="evenodd" clip-rule="evenodd" d="M170.814 13.5716C174.106 13.4661 175.713 15.7099 176.019 18.1273H166.067C166.158 15.7663 168.373 13.6498 170.814 13.5716Z" stroke="black" stroke-width="1.33333" stroke-miterlimit="10"/>
<path d="M203.869 23.2069C202.809 25.4261 200.541 26.9518 197.915 26.9518C194.25 26.9518 191.288 23.9797 191.288 20.324C191.288 16.6585 194.25 13.6864 197.915 13.6864C200.323 13.6864 202.423 14.9644 203.562 16.8764L207.634 12.8047C205.385 9.90194 201.868 8.03943 197.915 8.03943C191.129 8.03943 185.631 13.5378 185.631 20.324C185.631 27.1103 191.129 32.6086 197.915 32.6086C202.096 32.6086 205.782 30.5282 208.001 27.3382L203.869 23.2069Z" stroke="black" stroke-width="1.33333" stroke-miterlimit="10"/>
<path d="M68.483 -0.301758H62.1592V31.6387H68.483V-0.301758Z" fill="black"/>
<path d="M48.6576 7.91113C40.3258 7.91113 38.1166 11.8937 38.1166 11.8937L41.3264 15.1036C41.3264 15.1036 43.0205 13.0231 47.5777 13.0231C51.3027 13.0231 52.0061 14.8856 52.0061 16.3419V19.106C50.4507 17.7884 48.3306 16.9859 45.9926 16.9859C41.2076 16.9859 37.334 20.3641 37.334 24.5251C37.334 28.686 41.2076 32.0543 45.9926 32.0543C48.3306 32.0543 50.4507 31.2518 52.0061 29.9442V31.6382H58.3268V16.3419C58.3268 16.3419 58.6438 7.91113 48.6576 7.91113ZM52.0061 27.299C51.0848 28.2699 49.6978 28.8841 48.1424 28.8841C45.3685 28.8841 43.1295 26.9324 43.1295 24.5251C43.1295 22.1177 45.3685 20.1561 48.1424 20.1561C49.6978 20.1561 51.0848 20.7803 52.0061 21.7412V27.299Z" fill="black"/>
<path d="M131.141 26.3024C129.665 26.5498 128.595 26.3174 127.84 25.9444C126.847 25.4538 126.26 24.3989 126.26 23.2914V14.3273H130.707V8.51333H126.26V2.59082H119.936V8.51333H116.736V14.3273H119.936V24.4584C119.936 30.5544 123.158 31.6825 126.846 31.6825C130.534 31.6825 132.052 30.6412 132.052 30.6412L131.141 26.3024Z" fill="black"/>
<path fill-rule="evenodd" clip-rule="evenodd" d="M105.868 11.9627V8.03613H99.5439V31.5388H105.868V17.0066C105.868 17.0066 107.506 12.8522 113.45 14.2406V8.03613C113.45 8.03613 109.366 8.46454 105.868 11.9627Z" fill="black"/>
</g>
<defs>
<filter id="filter0_f_401_3938" x="-10.6663" y="-8.00045" width="42.6667" height="42.6667" filterUnits="userSpaceOnUse" color-interpolation-filters="sRGB">
<feFlood flood-opacity="0" result="BackgroundImageFix"/>
<feBlend mode="normal" in="SourceGraphic" in2="BackgroundImageFix" result="shape"/>
<feGaussianBlur stdDeviation="6.66667" result="effect1_foregroundBlur_401_3938"/>
</filter>
<linearGradient id="paint0_linear_401_3938" x1="5.94881e-08" y1="16.2132" x2="31.9375" y2="16.2132" gradientUnits="userSpaceOnUse">
<stop stop-color="#2047F4"/>
<stop offset="1" stop-color="#4D6CF5"/>
</linearGradient>
<clipPath id="clip0_401_3938">
<rect width="208" height="34.6667" fill="white"/>
</clipPath>
</defs>
</svg>
