<svg width="150" height="20" viewBox="0 0 150 20" fill="none" xmlns="http://www.w3.org/2000/svg">
<path d="M19.8721 0.481934H22.7478L29.5685 19.2678H26.7795L24.807 13.6537H17.4444L15.4141 19.2822H12.7937L19.8721 0.481934ZM24.0845 11.58L21.1943 3.27572L18.1934 11.58H24.0845Z" fill="black"/>
<path d="M54.645 0.481934H57.5183L64.3414 19.2678H61.5524L59.5896 13.6392H52.2149L50.1774 19.2678H47.5667L54.645 0.481934ZM58.867 11.5752L55.9769 3.27091L52.9664 11.58L58.867 11.5752Z" fill="black"/>
<path d="M77.5951 1.02369C79.4368 2.00473 80.5607 3.72355 80.9669 6.18016H78.4549C78.1547 4.80735 77.5325 3.80704 76.5884 3.17924C75.6443 2.55144 74.4537 2.23835 73.0167 2.23995C72.1992 2.22852 71.3894 2.39816 70.6453 2.7367C69.9012 3.07524 69.2412 3.57428 68.7128 4.19801C67.5407 5.50178 66.9546 7.44619 66.9546 10.0313C66.9546 12.2663 67.4363 14.0855 68.3997 15.4888C69.3631 16.8921 70.9302 17.5938 73.101 17.5938C74.7644 17.5938 76.142 17.1008 77.2338 16.115C78.3257 15.1291 78.8876 13.5363 78.9197 11.3366H73.0287V9.22442H81.2824V19.2821H79.6447L79.0305 16.8736C78.1828 17.8209 77.4313 18.4776 76.7762 18.8437C75.678 19.4747 74.2811 19.7902 72.5856 19.7902C70.4927 19.8259 68.4674 19.0489 66.9354 17.6227C65.2125 15.8131 64.3519 13.33 64.3535 10.1733C64.3551 7.01669 65.1957 4.51271 66.8752 2.66143C68.4744 0.887211 70.5432 0.00010314 73.0817 0.00010314C74.6479 -0.0396629 76.1993 0.312168 77.5951 1.02369Z" fill="black"/>
<path d="M107.763 0.481934H110.637L117.46 19.2678H114.668L112.715 13.6537H105.333L103.296 19.2822H100.685L107.763 0.481934ZM111.992 11.58L109.102 3.27572L106.085 11.58H111.992Z" fill="black"/>
<path d="M135.195 0.481934H137.763V8.25397H147.423V0.481934H149.995V19.2678H147.428V10.4914H137.763V19.2822H135.195V0.481934Z" fill="black"/>
<path d="M31.1074 0.481934H39.6526C41.0591 0.481934 42.2192 0.690665 43.1328 1.10813C44.8636 1.91094 45.7299 3.39133 45.7315 5.54929C45.7315 6.67323 45.4994 7.59405 45.0354 8.31177C44.5486 9.04914 43.8756 9.64485 43.0846 10.0386C43.7324 10.2758 44.3046 10.6825 44.7416 11.2163C45.1125 11.698 45.3188 12.4872 45.3606 13.5838L45.3895 16.1368C45.416 16.8593 42.9666 17.9335 42.9329 17.1989L42.8413 14.0366C42.7835 12.8083 42.3404 11.9854 41.5119 11.568C41.0302 11.3368 40.2884 11.2212 39.2865 11.2212H33.6531V19.2822H31.1074V0.481934ZM39.378 9.09692C40.5389 9.09692 41.4573 8.85608 42.1333 8.37439C42.8092 7.8927 43.1472 7.03128 43.1472 5.79013C43.1472 4.45104 42.6743 3.53824 41.7286 3.05174C41.0917 2.76786 40.3974 2.63593 39.7007 2.66639H33.6531V9.09692H39.378Z" fill="black"/>
<path d="M45.3844 15.397H42.8989V19.2746H45.3844V15.397Z" fill="black"/>
<path d="M84.4758 0.481934H93.0186C94.4251 0.481934 95.5852 0.690665 96.4988 1.10813C98.2328 1.91094 99.0999 3.39133 99.0999 5.54929C99.0999 6.67323 98.8671 7.59405 98.4014 8.31177C97.9146 9.04914 97.2416 9.64485 96.4506 10.0386C97.0988 10.2751 97.6712 10.6819 98.1076 11.2163C98.4785 11.698 98.6856 12.4872 98.729 13.5838L98.7579 16.1368C98.782 16.8593 96.335 17.9335 96.2989 17.1989L96.2073 14.0366C96.1495 12.8083 95.7064 11.9854 94.8779 11.568C94.4058 11.3368 93.664 11.2212 92.6525 11.2212H87.0216V19.2822H84.4758V0.481934ZM92.744 9.0921C93.9049 9.0921 94.8241 8.85126 95.5017 8.36957C96.1792 7.88788 96.5172 7.02646 96.5156 5.78532C96.5156 4.44622 96.0428 3.53343 95.0971 3.04692C94.4601 2.76304 93.7658 2.63112 93.0691 2.66157H87.0216V9.09692L92.744 9.0921Z" fill="black"/>
<path d="M98.7509 15.397H96.2654V19.2746H98.7509V15.397Z" fill="black"/>
<path d="M12.4396 1.9005C11.4168 0.95479 10.0737 0.481934 8.41027 0.481934H0V19.2678H2.54572H2.11702V2.67602H3.8535V19.2678H5.95848V11.3368H8.41509C10.2969 11.3368 11.693 10.7933 12.6034 9.70625C13.5084 8.63601 13.9937 7.27339 13.9689 5.87202C13.9689 4.16684 13.4592 2.84301 12.4396 1.9005ZM10.3394 8.45868C9.63135 8.94037 8.71052 9.18121 7.57695 9.18121H5.95848V2.67843H7.57695C8.36215 2.6426 9.14584 2.7765 9.8746 3.07101C10.891 3.56554 11.3991 4.50403 11.3991 5.88647C11.4007 7.11477 11.0475 7.97218 10.3394 8.45868Z" fill="black"/>
<path d="M119.056 0.481934H127.469C129.131 0.481934 130.475 0.954791 131.501 1.9005C132.527 2.84622 133.038 4.17006 133.035 5.87202C133.059 7.2737 132.573 8.63636 131.667 9.70626C130.755 10.7933 129.358 11.3368 127.476 11.3368H121.605V19.2846H119.056V0.481934ZM128.931 3.06619C128.202 2.7694 127.417 2.63384 126.631 2.6688H121.605V9.17158H126.633C127.768 9.17158 128.689 8.93074 129.396 8.44905C130.102 7.96736 130.456 7.10996 130.458 5.87684C130.458 4.50082 129.95 3.56554 128.933 3.07101L128.931 3.06619Z" fill="black"/>
</svg>
