<svg width="51" height="40" viewBox="0 0 51 40" fill="none" xmlns="http://www.w3.org/2000/svg">
<path d="M4.12647 17.2764L4.12772 17.2733L10.6755 1H20.284L15.4366 18.4321L15.2065 19.2595L15.9896 19.6119C17.8398 20.4445 19.2794 21.6271 20.2604 23.1433C21.2299 24.6415 21.7 26.539 21.7 28.7C21.7 31.8597 20.6884 34.2974 18.7929 36.1929C16.9098 38.076 14.4794 39 11.4 39C8.34947 39 5.89896 37.9938 3.89048 36.0766C1.92185 34.1975 1 31.7771 1 28.7C1 27.1894 1.18803 25.771 1.57014 24.2425C1.94932 22.7258 2.81753 20.4984 4.12647 17.2764ZM46.4929 36.1929L46.4843 36.2015L46.4759 36.2103C44.7018 38.0731 42.2854 39 39.2 39C36.1495 39 33.699 37.9938 31.6905 36.0766C29.7219 34.1975 28.8 31.7771 28.8 28.7C28.8 27.1894 28.988 25.771 29.3701 24.2425C29.7493 22.7258 30.6175 20.4984 31.9265 17.2764L31.9277 17.2733L38.4755 1H48.084L43.2366 18.4321L43.0065 19.2595L43.7896 19.6119C45.6188 20.4351 46.9678 21.6092 47.9604 23.1433C48.9299 24.6415 49.4 26.539 49.4 28.7C49.4 31.8597 48.3884 34.2974 46.4929 36.1929Z" fill="white" stroke="#FF3333" stroke-width="2"/>
</svg>
