<svg width="6" height="10" viewBox="0 0 6 10" fill="none" xmlns="http://www.w3.org/2000/svg">
<path d="M3.98378 4.99789L0.163078 8.73902C0.0578747 8.84179 0 8.97919 0 9.12569C0 9.27228 0.0578747 9.40959 0.163078 9.51252L0.497869 9.84016C0.602906 9.94325 0.743316 10 0.892942 10C1.04257 10 1.18281 9.94325 1.28793 9.84016L5.83709 5.38602C5.94262 5.28276 6.00041 5.1448 6 4.99813C6.00041 4.85081 5.9427 4.71301 5.83709 4.60967L1.29217 0.159838C1.18705 0.0567484 1.0468 0 0.897093 0C0.747467 0 0.607224 0.0567484 0.50202 0.159838L0.167313 0.487479C-0.0504842 0.700731 -0.0504842 1.04789 0.167313 1.26106L3.98378 4.99789Z" fill="white"/>
</svg>
