<?xml version="1.0" encoding="utf-8"?><svg xmlns="http://www.w3.org/2000/svg" xmlns:xlink="http://www.w3.org/1999/xlink"><symbol viewBox="0 0 24 21" id="basket" xmlns="http://www.w3.org/2000/svg"><path fill-rule="evenodd" clip-rule="evenodd" d="M17.5 19a1.5 1.5 0 1 0 3.001-.001A1.5 1.5 0 0 0 17.5 19zM6.5 19a1.5 1.5 0 1 0 3.001-.001A1.5 1.5 0 0 0 6.5 19z"/><path d="M.5.5H4l4 17h11"/><path d="M7.53 15.5H20.5l3-9H5.412"/></symbol><symbol viewBox="0 0 16 16" fill="none" id="close" xmlns="http://www.w3.org/2000/svg"><path d="M15.657.343a1.105 1.105 0 0 0-1.6 0L8 6.4 1.943.343a1.105 1.105 0 0 0-1.6 0 1.105 1.105 0 0 0 0 1.6L6.4 8 .343 14.057a1.105 1.105 0 0 0 0 1.6c.228.229.457.343.8.343s.571-.114.8-.343L8 9.6l6.057 6.057c.229.229.572.343.8.343.229 0 .572-.114.8-.343a1.105 1.105 0 0 0 0-1.6L9.6 8l6.057-6.057a1.105 1.105 0 0 0 0-1.6z" fill="#111"/></symbol><symbol viewBox="0 0 25 25" fill="none" id="contact" xmlns="http://www.w3.org/2000/svg"><g stroke="#000" stroke-width="1.5" stroke-linejoin="round"><path d="M12.5 14.5v-2.804M7.5 11.696V14.5l-5.009 1.789A3.001 3.001 0 0 0 .5 19.114V21.5h11" stroke-linecap="round"/><path clip-rule="evenodd" d="M15 6.5c0 3.313-2.239 6-5 6-2.762 0-5-2.687-5-6s2.238-6 5-6c2.761 0 5 2.687 5 6z"/><path d="M14.953 5.953c-.168.021-.284.014-.453.047-1.703.328-2.797-.289-3.734-1.93C10.203 5.148 8.444 6 7 6a4.02 4.02 0 0 1-1.936-.466"/><path clip-rule="evenodd" d="M23.512 22a1.5 1.5 0 0 1-1.5 1.5h-7a1.5 1.5 0 0 1-1.5-1.5v-4a1.5 1.5 0 0 1 1.5-1.5h7a1.5 1.5 0 0 1 1.5 1.5v4z" stroke-linecap="round"/><path d="M21.512 18.5l-3 2.5-3-2.5M15.512 21.5l1.638-1.638M21.512 21.5l-1.638-1.638" stroke-linecap="round"/></g></symbol><symbol viewBox="-53 0 490 490.66667" id="hand" xmlns="http://www.w3.org/2000/svg"><path d="M352.332 170.668c-17.664 0-32 14.336-32 32v-21.336c0-17.664-14.336-32-32-32s-32 14.336-32 32V160c0-17.664-14.336-32-32-32s-32 14.336-32 32V32c0-17.664-14.336-32-32-32s-32 14.336-32 32v266.668l-79.293-48.64h-.066c-4.692-2.989-10.453-4.696-16.641-4.696-17.707 0-32 14.293-32 32 0 6.188 1.707 12.16 4.906 17.066l-.039-.082 98.047 156.352a85.339 85.339 0 0 0 72.297 40h102.125c58.898 0 106.664-47.766 106.664-106.668V202.668c0-17.664-14.336-32-32-32zm0 0" fill="#ffcc80"/><g fill="#ffa726"><path d="M331 178.988v55.68c-5.973 0-10.668-4.695-10.668-10.668v-21.332c0-9.387 4.055-17.922 10.668-23.68zm0 0M267 157.652v77.016c-5.973 0-10.668-4.695-10.668-10.668v-42.668c0-9.387 4.055-17.918 10.668-23.68zm0 0M203 136.32v98.348c-5.973 0-10.668-4.695-10.668-10.668v-64c0-9.387 4.055-17.922 10.668-23.68zm0 0"/></g></symbol><symbol viewBox="0 0 25 23" fill="none" id="mail" xmlns="http://www.w3.org/2000/svg"><path clip-rule="evenodd" d="M23.5.5L.5 10l9 3.5 14-13z" stroke="#000" stroke-width="1.5" stroke-linejoin="round"/><path clip-rule="evenodd" d="M23.5.5l-4 18.5-10-5.5 14-13z" stroke="#000" stroke-width="1.5" stroke-linejoin="round"/><path d="M9.5 13.5v8l3.5-6" stroke="#000" stroke-width="1.5" stroke-linejoin="round"/></symbol><symbol viewBox="0 0 11 18" id="right" xmlns="http://www.w3.org/2000/svg"><path d="M1.334 1.333L10 9l-8.666 7.667"/></symbol><symbol viewBox="0 0 22 22" id="search" xmlns="http://www.w3.org/2000/svg"><path fill-rule="evenodd" clip-rule="evenodd" d="M14.75 8.083a6.667 6.667 0 1 1-13.334 0 6.667 6.667 0 0 1 13.334 0z"/><path d="M12.797 12.797l7.787 7.787"/></symbol><symbol viewBox="0 0 27 26" fill="none" id="tel" xmlns="http://www.w3.org/2000/svg"><path clip-rule="evenodd" d="M11.079 9.78c.687-.686.743-1.744.124-2.363L9.524 5.74c-.617-.619-1.676-.564-2.361.124L6.139 6.886c-.887.887-1.086 2.209-.481 3.17a33.176 33.176 0 0 0 10.287 10.286c.958.606 2.284.405 3.169-.48l1.023-1.024c.686-.687.743-1.745.123-2.362l-1.677-1.678c-.62-.618-1.676-.564-2.363.123l-.621.62a33.773 33.773 0 0 1-5.141-5.14l.62-.62z" stroke="#000" stroke-width="1.5" stroke-linecap="round" stroke-linejoin="round"/><path d="M19.5 19.5c.542.542 1.691 5.958-6.5 5.958C6.12 25.458.542 19.881.542 13 .542 6.12 6.119.542 13 .542S25.458 6.12 25.458 13c0 2.613-.803 5.039-2.18 7.042" stroke="#000" stroke-width="1.5" stroke-linecap="round" stroke-linejoin="round"/></symbol><symbol viewBox="0 0 20 21" id="user" xmlns="http://www.w3.org/2000/svg"><path d="M7.5 11.196V14l-5.009 1.789A3.001 3.001 0 0 0 .5 18.614V20.5h19v-1.886a3.001 3.001 0 0 0-1.991-2.825l-5.009-1.79v-2.803"/><path fill-rule="evenodd" clip-rule="evenodd" d="M15 6c0 3.313-2.239 6-5 6-2.762 0-5-2.687-5-6s2.238-6 5-6c2.761 0 5 2.687 5 6z"/><path d="M14.953 5.453c-.168.021-.284.014-.453.047-1.703.328-2.797-.289-3.735-1.93C10.203 4.648 8.445 5.5 7 5.5a4.02 4.02 0 0 1-1.936-.466"/></symbol></svg>