<?xml version="1.0" encoding="utf-8"?><svg xmlns="http://www.w3.org/2000/svg" xmlns:xlink="http://www.w3.org/1999/xlink"><symbol viewBox="0 0 22 16" id="back" xmlns="http://www.w3.org/2000/svg"><path d="M0 7.971l6.207 7.958.854-1.097L2.312 8.74H22V7.189H2.312l4.75-6.093L6.206 0 0 7.957l.007.005-.007.01z"/></symbol><symbol viewBox="0 0 16 16" id="close" xmlns="http://www.w3.org/2000/svg"><path d="M7.753 7.037L1.257.404.15 1.49l6.495 6.632-6.54 6.404 1.1 1.124 6.541-6.404 6.496 6.632 1.109-1.085L8.854 8.16l6.541-6.405L14.294.632l-6.54 6.405z"/></symbol><symbol viewBox="0 0 6 4" id="down" xmlns="http://www.w3.org/2000/svg"><path d="M3.008 4L6 .25H0L3.008 4z"/></symbol><symbol viewBox="0 0 8 12" id="left" xmlns="http://www.w3.org/2000/svg"><path d="M5.802 11.023l1.15-1.152L3.27 5.99l3.778-3.786-1.12-1.181L1 5.962l4.802 5.061z"/></symbol><symbol viewBox="0 0 24 18" fill="none" id="menu" xmlns="http://www.w3.org/2000/svg"><path d="M0 1h24M0 9h24M0 17h24" stroke="#000"/></symbol><symbol viewBox="0 0 15 15" id="search" xmlns="http://www.w3.org/2000/svg"><path d="M6.15 0c3.392 0 6.151 2.76 6.151 6.15 0 1.486-.529 2.85-1.409 3.914L15 14.172l-.828.828-4.108-4.108a6.122 6.122 0 0 1-3.913 1.41A6.158 6.158 0 0 1 0 6.15C0 2.759 2.76 0 6.15 0zm0 11.13a4.985 4.985 0 0 0 4.98-4.98 4.985 4.985 0 0 0-4.98-4.978A4.985 4.985 0 0 0 1.173 6.15 4.985 4.985 0 0 0 6.15 11.13z"/></symbol></svg>