<?xml version="1.0" encoding="utf-8"?><svg xmlns="http://www.w3.org/2000/svg" xmlns:xlink="http://www.w3.org/1999/xlink"><symbol viewBox="0 0 24 22" fill="none" id="attention" xmlns="http://www.w3.org/2000/svg"><path d="M23.771 18.7L13.463.844A1.67 1.67 0 0 0 12 0a1.67 1.67 0 0 0-1.463.844L.23 18.7a1.672 1.672 0 0 0 0 1.688c.304.53.853.844 1.462.844H22.31a1.67 1.67 0 0 0 1.462-.844 1.672 1.672 0 0 0 0-1.688zm-1.218.985a.272.272 0 0 1-.244.14H1.69a.272.272 0 0 1-.244-.14.278.278 0 0 1 0-.281l10.31-17.857a.273.273 0 0 1 .243-.14c.06 0 .174.018.244.14l10.309 17.857c.07.121.028.23 0 .28z" fill="#FFA0A0"/><path d="M12.703 6.404h-1.406v7.51h1.406v-7.51zM12 17.194a.938.938 0 1 0 0-1.876.938.938 0 0 0 0 1.876z" fill="#FFA0A0"/></symbol><symbol viewBox="0 0 12 12" fill="none" id="calendar" xmlns="http://www.w3.org/2000/svg"><path d="M10.315 1.453h-.912V.829A.83.83 0 0 0 8.573 0h-.032a.83.83 0 0 0-.83.83v.623H3.433V.829A.83.83 0 0 0 2.603 0H2.57a.83.83 0 0 0-.829.83v.623H.83A.83.83 0 0 0 0 2.282v8.889c0 .458.371.829.83.829h9.485a.83.83 0 0 0 .83-.83V2.283a.83.83 0 0 0-.83-.83zm-.564 9.237H1.393V3.957h8.358v6.733z" fill="#969BAF"/><path d="M2.53 7.001h1.443c.073 0 .133-.06.133-.133V5.426a.133.133 0 0 0-.133-.133H2.531a.133.133 0 0 0-.133.133v1.442c0 .073.056.133.133.133zM4.852 7.001h1.443c.073 0 .133-.06.133-.133V5.426a.133.133 0 0 0-.133-.133H4.852a.133.133 0 0 0-.132.133v1.442c0 .073.056.133.132.133zM7.174 7.001h1.443c.073 0 .133-.06.133-.133V5.426a.133.133 0 0 0-.133-.133H7.174a.133.133 0 0 0-.133.133v1.442c0 .073.057.133.133.133zM2.53 9.323h1.443c.073 0 .133-.06.133-.132V7.748a.133.133 0 0 0-.133-.133H2.531a.133.133 0 0 0-.133.133V9.19c0 .073.056.132.133.132zM4.852 9.323h1.443c.073 0 .133-.06.133-.132V7.748a.133.133 0 0 0-.133-.133H4.852a.133.133 0 0 0-.132.133V9.19c0 .073.056.132.132.132zM7.174 9.323h1.443c.073 0 .133-.06.133-.132V7.748a.133.133 0 0 0-.133-.133H7.174a.133.133 0 0 0-.133.133V9.19c0 .073.057.132.133.132z" fill="#969BAF"/></symbol><symbol viewBox="0 0 13 10" fill="none" id="card" xmlns="http://www.w3.org/2000/svg"><path d="M12.543.306A1.053 1.053 0 0 0 11.785 0H1.072C.776 0 .525.103.314.306A.996.996 0 0 0 0 1.042V8.96c0 .287.106.531.314.737.211.203.462.305.758.305h10.713c.296 0 .547-.102.758-.305a.992.992 0 0 0 .314-.737V1.042a.996.996 0 0 0-.314-.736zm-.544 8.654a.196.196 0 0 1-.064.146.207.207 0 0 1-.15.062H1.072a.207.207 0 0 1-.15-.062.196.196 0 0 1-.064-.146V5.001h11.143L12 8.961zm0-6.46H.856V1.04c0-.057.021-.105.063-.146a.21.21 0 0 1 .15-.062h10.714c.059 0 .108.02.15.062a.196.196 0 0 1 .063.146L12 2.5z" fill="#969BAF"/><path d="M3.429 7.502H1.714v.832H3.43v-.832zM6.855 7.502h-2.57v.832h2.57v-.832z" fill="#969BAF"/></symbol><symbol viewBox="0 0 18 14" id="check" xmlns="http://www.w3.org/2000/svg"><path d="M4.347 13.294c.466.452 1.09.706 1.745.706.654 0 1.28-.254 1.745-.706l9.422-9.155c.945-.918 1.017-2.43.101-3.376a2.505 2.505 0 0 0-3.547-.057L7.124 7.205a1.478 1.478 0 0 1-2.05 0l-.857-.848a2.526 2.526 0 0 0-3.49 0 2.356 2.356 0 0 0 0 3.39l3.62 3.547z"/></symbol><symbol viewBox="0 0 38 23" id="check2" xmlns="http://www.w3.org/2000/svg"><path fill-rule="evenodd" clip-rule="evenodd" d="M6.133 21.515a2.671 2.671 0 0 0 3.8 0L26.07 5.295a2.726 2.726 0 0 0-.033-3.8 2.685 2.685 0 0 0-3.77-.03L8.035 15.785l-3.476-3.5a2.677 2.677 0 0 0-3.77.03 2.715 2.715 0 0 0-.033 3.79l5.378 5.41z"/><path fill-rule="evenodd" clip-rule="evenodd" d="M17.31 21.515a2.669 2.669 0 0 0 3.8 0l16.134-16.22a2.725 2.725 0 0 0-.033-3.8 2.685 2.685 0 0 0-3.77-.03L19.21 15.785l-3.477-3.5a2.676 2.676 0 0 0-3.77.03 2.714 2.714 0 0 0-.032 3.79l5.38 5.41z"/></symbol><symbol preserveAspectRatio="xMidYMid" viewBox="0 0 11.97 12" id="close" xmlns="http://www.w3.org/2000/svg"><path d="M7.028 5.996l4.717-4.722A.75.75 0 1 0 10.684.213L5.967 4.935 1.249.213A.75.75 0 1 0 .188 1.274l4.718 4.722-4.718 4.722a.753.753 0 0 0 .531 1.283.752.752 0 0 0 .53-.22l4.718-4.723 4.717 4.723a.752.752 0 1 0 1.061-1.063L7.028 5.996z"/></symbol><symbol viewBox="0 0 31 31" fill="none" id="close2" xmlns="http://www.w3.org/2000/svg"><path fill="#fff" d="M0 24.705L24.705 0l6.19 6.19L6.188 30.893z"/><path fill="#fff" d="M30.895 24.705L6.19 0 0 6.19l24.705 24.704z"/></symbol><symbol viewBox="0 0 13 13" fill="none" id="email" xmlns="http://www.w3.org/2000/svg"><path d="M11.857 1.547H1.142c-.176 0-.34.043-.49.114l5.822 5.822 1.305-1.254 4.567-4.568a1.13 1.13 0 0 0-.49-.114zM12.886 2.203L8.588 6.501l4.298 4.298c.071-.149.115-.313.115-.49V2.693c0-.175-.044-.34-.115-.489zM.115 2.2A1.13 1.13 0 0 0 0 2.688v7.617c0 .176.043.34.114.49l4.299-4.299L.115 2.2z" fill="#969BAF"/><path d="M8.048 7.04L6.743 8.292a.38.38 0 0 1-.538 0L4.95 7.04.652 11.337c.15.071.314.115.49.115h10.715c.176 0 .34-.044.49-.115L8.047 7.04z" fill="#969BAF"/></symbol><symbol viewBox="0 0 16 20" id="login" xmlns="http://www.w3.org/2000/svg"><path d="M14.867 8.079h-.407V6.254C14.46 2.881 11.672.062 8.19 0h-.38C4.328.062 1.54 2.88 1.54 6.254V8.08h-.407C.51 8.079 0 8.695 0 9.464v9.147C0 19.375.509 20 1.133 20h13.73c.624 0 1.133-.625 1.133-1.389V9.464c.004-.769-.505-1.385-1.13-1.385zm-5.582 5.95v2.766a.6.6 0 0 1-.607.583h-1.36c-.33 0-.607-.267-.607-.583v-2.766a1.609 1.609 0 0 1-.505-1.183c0-.876.706-1.632 1.604-1.665.094-.004.286-.004.38 0a1.677 1.677 0 0 1 1.604 1.665c0 .46-.188.88-.509 1.183zm2.502-5.95H4.213V6.254c0-2.01 1.698-3.67 3.785-3.67s3.785 1.66 3.785 3.67l.004 1.825z"/></symbol><symbol viewBox="0 0 16 16" fill="none" id="logout" xmlns="http://www.w3.org/2000/svg"><g clip-path="url(#ja)" fill="#425BFF"><path d="M.522 8.52h10.087a.522.522 0 0 0 0-1.043H.522a.522.522 0 0 0 0 1.043z"/><path d="M7.826 11.304c.133 0 .267-.05.368-.153l2.783-2.782a.522.522 0 0 0 0-.738L8.194 4.848a.522.522 0 0 0-.738.738L9.87 8l-2.414 2.414a.522.522 0 0 0 .37.89z"/><path d="M8.348 15.652C12.567 15.652 16 12.22 16 8 16 3.78 12.567.348 8.348.348A7.613 7.613 0 0 0 1.226 5.2a.522.522 0 0 0 .97.381 6.575 6.575 0 0 1 6.152-4.19A6.617 6.617 0 0 1 14.956 8a6.617 6.617 0 0 1-6.608 6.609 6.575 6.575 0 0 1-6.151-4.191.522.522 0 0 0-.971.382 7.613 7.613 0 0 0 7.122 4.852z"/></g><defs><clipPath id="ja"><path fill="#fff" transform="matrix(-1 0 0 1 16 0)" d="M0 0h16v16H0z"/></clipPath></defs></symbol><symbol viewBox="0 0 16 16" fill="none" id="man" xmlns="http://www.w3.org/2000/svg"><path d="M8 7.666a3.337 3.337 0 0 1-3.333-3.333A3.337 3.337 0 0 1 8 1a3.337 3.337 0 0 1 3.333 3.333A3.337 3.337 0 0 1 8 7.666zM8 2a2.336 2.336 0 0 0-2.334 2.333A2.336 2.336 0 0 0 8 6.666a2.336 2.336 0 0 0 2.333-2.333A2.336 2.336 0 0 0 8 2zM13.5 15h-11a.5.5 0 0 1-.5-.5v-2.334A3.17 3.17 0 0 1 5.167 9h5.666A3.17 3.17 0 0 1 14 12.166V14.5a.5.5 0 0 1-.5.5zM3 14h10v-1.834A2.17 2.17 0 0 0 10.833 10H5.167A2.17 2.17 0 0 0 3 12.166V14z" fill="#425BFF"/></symbol><symbol viewBox="0 0 10 11" fill="none" id="man2" xmlns="http://www.w3.org/2000/svg"><path d="M4.904 5.219c.662 0 1.234-.239 1.703-.705a2.329 2.329 0 0 0 .705-1.703c0-.663-.238-1.235-.705-1.704A2.329 2.329 0 0 0 4.904.402c-.662 0-1.235.239-1.703.705a2.327 2.327 0 0 0-.707 1.704c0 .662.238 1.234.705 1.703a2.333 2.333 0 0 0 1.705.705zM9.117 8.09a6.3 6.3 0 0 0-.08-.633 5.03 5.03 0 0 0-.157-.635 3.054 3.054 0 0 0-.261-.592 2.252 2.252 0 0 0-.395-.513 1.757 1.757 0 0 0-.566-.356 1.973 1.973 0 0 0-.723-.13c-.101 0-.201.04-.39.165l-.409.264c-.13.084-.308.162-.527.233a2.117 2.117 0 0 1-.645.103c-.213 0-.431-.035-.644-.103a2.296 2.296 0 0 1-.528-.233c-.152-.098-.289-.185-.408-.264-.191-.125-.289-.166-.39-.166-.26 0-.504.045-.723.131-.22.088-.41.207-.566.356a2.252 2.252 0 0 0-.395.513c-.11.192-.197.391-.262.592a5.029 5.029 0 0 0-.156.635 5.339 5.339 0 0 0-.08.633 8.34 8.34 0 0 0-.02.59c0 .521.166.945.493 1.256.326.308.754.464 1.273.464h4.815c.52 0 .947-.156 1.271-.463.328-.31.494-.734.494-1.255a8.3 8.3 0 0 0-.021-.592z" fill="#969BAF"/></symbol><symbol viewBox="0 0 22 18" fill="none" id="menu" xmlns="http://www.w3.org/2000/svg"><path d="M1 1h20M1 9h20M1 17h20" stroke="#fff" stroke-width="2" stroke-linecap="round"/></symbol><symbol viewBox="0 0 12 16" fill="none" id="pass" xmlns="http://www.w3.org/2000/svg"><path d="M11.153 6.308h-.305V4.883C10.848 2.25 8.756.048 6.144 0H5.86C3.247.048 1.155 2.25 1.155 4.883v1.425H.85c-.468 0-.85.481-.85 1.081v7.142c0 .597.382 1.085.85 1.085h10.3c.468 0 .85-.488.85-1.085V7.39c.003-.6-.379-1.081-.847-1.081zm-4.187 4.646v2.16a.46.46 0 0 1-.456.455H5.49a.462.462 0 0 1-.456-.456v-2.159a1.28 1.28 0 0 1-.378-.924c0-.683.529-1.274 1.203-1.3.07-.003.215-.003.285 0 .674.026 1.204.617 1.204 1.3 0 .36-.142.687-.382.924zm1.877-4.646H3.16V4.883c0-1.569 1.274-2.865 2.84-2.865 1.566 0 2.84 1.296 2.84 2.865l.003 1.425z" fill="#969BAF"/></symbol><symbol viewBox="0 0 15 11" id="right2" xmlns="http://www.w3.org/2000/svg"><path fill-rule="evenodd" clip-rule="evenodd" d="M1 4.01a1 1 0 1 0 0 2H10.616L8.313 8.313a1 1 0 1 0 1.415 1.415l4.01-4.01a1 1 0 0 0-.004-1.418L9.728.293a1 1 0 0 0-1.415 1.414l2.303 2.303H1z"/></symbol><symbol viewBox="0 0 33 33" id="search" xmlns="http://www.w3.org/2000/svg"><path d="M32.494 28.36l-7.903-8.164c-.563-.583-1.272-.816-1.583-.525-.31.301-1.019.068-1.582-.524l-.117-.116c3.534-4.65 3.195-11.311-1.058-15.554-4.63-4.63-12.145-4.63-16.786 0-4.631 4.631-4.631 12.146 0 16.787 4.32 4.32 11.136 4.611 15.796.873l.048.049c.563.582.777 1.3.466 1.602-.31.3-.097 1.01.466 1.602l7.894 8.165a1.483 1.483 0 0 0 2.087.039l2.214-2.146a1.466 1.466 0 0 0 .058-2.087zM17.649 17.653a8.186 8.186 0 0 1-11.573 0c-3.194-3.194-3.184-8.379 0-11.573 3.185-3.194 8.379-3.184 11.564 0 3.203 3.194 3.203 8.389.01 11.573z"/></symbol><symbol viewBox="0 0 16 17" id="tel" xmlns="http://www.w3.org/2000/svg"><path d="M.038 1.88c0-.46.192-.92.5-1.266A1.838 1.838 0 0 1 1.88 0h2.532c.96 0 1.765.729 1.88 1.65.077.575.192 1.113.346 1.65a1.898 1.898 0 0 1-.46 1.88L5.14 6.216a11.748 11.748 0 0 0 4.643 4.642l1.036-1.035a1.898 1.898 0 0 1 1.88-.46 11.43 11.43 0 0 0 1.65.344c.96.116 1.65.921 1.65 1.88v2.533c0 .537-.23 1.036-.614 1.381-.384.346-.92.537-1.458.499a15.08 15.08 0 0 1-5.18-1.42c-1.573-.767-3.031-1.765-4.297-3.03A15.31 15.31 0 0 1 1.42 7.251C.652 5.602.153 3.875 0 2.072c.038-.077.038-.115.038-.192zm5.41 1.995c0-.076 0-.115-.038-.192a10.212 10.212 0 0 1-.384-1.88.62.62 0 0 0-.614-.537H1.88a.635.635 0 0 0-.46.192c-.115.115-.154.307-.154.499a14.096 14.096 0 0 0 12.777 12.777.771.771 0 0 0 .499-.154.635.635 0 0 0 .192-.46v-2.532a.62.62 0 0 0-.537-.614 10.207 10.207 0 0 1-1.88-.384.597.597 0 0 0-.614.153l-1.65 1.65-.384-.192c-2.494-1.227-4.566-3.3-5.832-5.832l-.192-.383 1.65-1.65a.737.737 0 0 0 .153-.46z"/></symbol><symbol viewBox="0 0 14 14" fill="none" id="time" xmlns="http://www.w3.org/2000/svg"><path d="M7 0C3.14 0 0 3.14 0 7s3.14 7 7 7 7-3.14 7-7-3.14-7-7-7zm0 12.502A5.51 5.51 0 0 1 1.498 7c0-3.025 2.477-5.502 5.502-5.502S12.502 3.975 12.502 7A5.51 5.51 0 0 1 7 12.502z" fill="#969BAF"/><path d="M10.645 6.782h-3.14V2.994a.578.578 0 0 0-.576-.576.578.578 0 0 0-.576.576v4.364c0 .317.259.576.576.576h3.716c.317 0 .576-.259.576-.576a.578.578 0 0 0-.576-.576z" fill="#969BAF"/></symbol><symbol viewBox="0 0 8 6" id="top" xmlns="http://www.w3.org/2000/svg"><path d="M6.981 5.879L4 2.898l-2.981 2.98-.982-.981L4 .934l3.963 3.963-.982.982z"/></symbol><symbol viewBox="0 0 16 16" fill="none" id="unsubscribe" xmlns="http://www.w3.org/2000/svg"><path d="M8 0C3.59 0 0 3.589 0 8c0 4.412 3.59 8 8 8 4.412 0 8-3.588 8-8 0-4.411-3.59-8-8-8zm0 14.76A6.768 6.768 0 0 1 1.24 8 6.768 6.768 0 0 1 8 1.24 6.768 6.768 0 0 1 14.76 8 6.768 6.768 0 0 1 8 14.76z" fill="#425BFF"/><path d="M11.098 7.324H4.901a.62.62 0 0 0 0 1.24h6.197a.62.62 0 0 0 0-1.24z" fill="#425BFF"/></symbol></svg>