<?xml version="1.0" encoding="utf-8"?><svg xmlns="http://www.w3.org/2000/svg" xmlns:xlink="http://www.w3.org/1999/xlink"><symbol viewBox="0 0 219 221" fill="none" id="1" xmlns="http://www.w3.org/2000/svg"><path d="M39.514 36.755l-1.117-1.001 1.117 1.002zm27.22 0l-1.117 1.002 1.116-1.002zm0 147.489l-1.117-1.001 1.116 1.001zm-27.22 0l1.116-1.001-1.116 1.001zm2.233-145.485l1.116 1.002-1.116-1.002zm0 143.482l-1.117 1.002 1.117-1.002zm22.754 0l1.116 1.002-1.117-1.002zm0-143.482l-1.117 1.002 1.117-1.002zM16.998 17.841l1.093 1.028-1.093-1.028zm0 185.318l1.093-1.028-1.093 1.028zm72.25 0l-1.092-1.028 1.093 1.028zm0-185.318l-1.092 1.028 1.093-1.028zm-74.434-2.056l1.092 1.028-1.092-1.028zm76.62 0l1.091-1.028-1.092 1.028zm0 189.43l-1.093-1.028 1.092 1.028zm-76.62 0l1.092-1.028-1.092 1.028zM192.737 3.902v-1.5h-1.053l-.358.99 1.411.51zm24.763 0h1.5v-1.5h-1.5v1.5zm0 213.196v1.5h1.5v-1.5h-1.5zm-36.016 0h-1.5v1.5h1.5v-1.5zm0-160.35h1.5v-1.5h-1.5v1.5zm-25.511 0h-1.5v1.5h1.5v-1.5zm0-26.421v-1.5h-1.5v1.5h1.5zm26.295-7.523l-1.017-1.103 1.017 1.103zm10.111-17.912l-1.411-.51 1.411.51zm-8.078 20.118l1.017 1.103-1.017-1.103zM194.84 6.902v-1.5h-1.048l-.36.984 1.408.516zm-35.867 26.41l-.029-1.5-1.471.03v1.47h1.5zm0 20.437h-1.5v1.5h1.5v-1.5zm25.511 0h1.5v-1.5h-1.5v1.5zm0 160.349h-1.5v1.5h1.5v-1.5zm30.016 0v1.5h1.5v-1.5h-1.5zm0-207.196h1.5v-1.5h-1.5v1.5zM53.124 30.028c-5.784 0-11.01 1.584-14.727 5.726l2.233 2.003c2.964-3.302 7.24-4.73 12.493-4.73v-3zm14.726 5.726c-3.717-4.142-8.943-5.726-14.726-5.726v3c5.253 0 9.53 1.427 12.493 4.73l2.233-2.004zm5.382 17.993c0-7.879-1.724-13.917-5.382-17.993l-2.233 2.003c2.964 3.303 4.615 8.483 4.615 15.99h3zm0 113.506V53.747h-3v113.506h3zm-5.382 17.993c3.658-4.076 5.382-10.114 5.382-17.993h-3c0 7.507-1.651 12.687-4.615 15.99l2.233 2.003zm-14.726 5.726c5.783 0 11.009-1.584 14.726-5.726l-2.233-2.003c-2.964 3.302-7.24 4.729-12.494 4.729v3zm-14.727-5.726c3.717 4.142 8.943 5.726 14.727 5.726v-3c-5.254 0-9.53-1.427-12.494-4.729l-2.233 2.003zm-5.381-17.993c0 7.879 1.723 13.917 5.381 17.993l2.233-2.003c-2.964-3.303-4.614-8.483-4.614-15.99h-3zm0-113.506v113.506h3V53.747h-3zm5.381-17.993c-3.658 4.076-5.381 10.114-5.381 17.993h3c0-7.507 1.65-12.687 4.614-15.99l-2.233-2.003zm.619 17.993c0-7.134 1.577-11.456 3.847-13.986l-2.233-2.004c-2.964 3.303-4.614 8.483-4.614 15.99h3zm0 113.506V53.747h-3v113.506h3zm3.847 13.986c-2.27-2.53-3.847-6.852-3.847-13.986h-3c0 7.507 1.65 12.687 4.614 15.99l2.233-2.004zm10.26 3.733c-4.719 0-8.048-1.268-10.26-3.733l-2.233 2.004c2.964 3.302 7.24 4.729 12.493 4.729v-3zm10.261-3.733c-2.212 2.465-5.541 3.733-10.26 3.733v3c5.253 0 9.53-1.427 12.493-4.729l-2.233-2.004zm3.848-13.986c0 7.134-1.578 11.456-3.848 13.986l2.233 2.004c2.964-3.303 4.615-8.483 4.615-15.99h-3zm0-113.506v113.506h3V53.747h-3zm-3.848-13.986c2.27 2.53 3.848 6.852 3.848 13.986h3c0-7.507-1.651-12.687-4.615-15.99l-2.233 2.004zm-10.26-3.733c4.719 0 8.048 1.268 10.26 3.733l2.233-2.004c-2.964-3.302-7.24-4.73-12.494-4.73v3zM42.862 39.76c2.212-2.465 5.541-3.733 10.26-3.733v-3c-5.253 0-9.53 1.427-12.493 4.73l2.233 2.003zM6 55.849c0-16.315 4.292-28.694 12.09-36.98l-2.184-2.056C7.427 25.82 3 39.033 3 55.849h3zm0 109.302V55.849H3v109.302h3zm12.09 36.98C10.293 193.845 6 181.466 6 165.151H3c0 16.816 4.427 30.028 12.906 39.036l2.185-2.056zM53.124 215c-15.609 0-27.26-4.611-35.032-12.869l-2.185 2.056C24.385 213.195 36.916 218 53.124 218v-3zm35.033-12.869C80.384 210.389 68.733 215 53.123 215v3c16.208 0 28.74-4.805 37.218-13.813l-2.184-2.056zm12.091-36.98c0 16.315-4.292 28.694-12.09 36.98l2.184 2.056c8.479-9.008 12.906-22.22 12.906-39.036h-3zm0-109.302v109.302h3V55.849h-3zm-12.09-36.98c7.798 8.286 12.09 20.665 12.09 36.98h3c0-16.816-4.427-30.028-12.906-39.036l-2.184 2.056zM53.123 6c15.609 0 27.26 4.611 35.032 12.869l2.185-2.056C81.862 7.805 69.331 3 53.124 3v3zM18.09 18.869C25.863 10.611 37.514 6 53.123 6V3C36.916 3 24.386 7.805 15.907 16.813l2.185 2.056zM53.123 0C36.319 0 22.909 4.997 13.722 14.757l2.184 2.056C24.385 7.805 36.916 3 53.124 3V0zm39.402 14.757C83.34 4.997 69.93 0 53.123 0v3c16.208 0 28.74 4.805 37.218 13.813l2.184-2.056zm13.722 41.092c0-17.316-4.562-31.361-13.722-41.092l-2.184 2.056c8.479 9.008 12.906 22.22 12.906 39.036h3zm0 109.302V55.849h-3v109.302h3zm-13.722 41.092c9.16-9.731 13.722-23.776 13.722-41.092h-3c0 16.816-4.427 30.028-12.906 39.036l2.184 2.056zM53.123 221c16.806 0 30.217-4.997 39.402-14.757l-2.184-2.056C81.862 213.195 69.331 218 53.124 218v3zm-39.401-14.757C22.907 216.003 36.317 221 53.123 221v-3c-16.207 0-28.738-4.805-37.217-13.813l-2.184 2.056zM0 165.151c0 17.316 4.562 31.361 13.722 41.092l2.184-2.056C7.427 195.179 3 181.967 3 165.151H0zM0 55.849v109.302h3V55.849H0zm13.722-41.092C4.562 24.488 0 38.533 0 55.849h3c0-16.816 4.427-30.028 12.906-39.036l-2.184-2.056zM193.79 2.402h-1.053v3h1.053v-3zm22.21 0h-22.21v3H216v-3zm1.5 0H216v3h1.5v-3zm1.5 3v-1.5h-3v1.5h3zm0 210.196V5.402h-3v210.196h3zm0 1.5v-1.5h-3v1.5h3zm-3 1.5h1.5v-3H216v3zm-33.016 0H216v-3h-33.016v3zm-1.5 0h1.5v-3h-1.5v3zm-1.5-3v1.5h3v-1.5h-3zm0-158.85v158.85h3V56.748h-3zm-22.511 1.5h24.011v-3h-24.011v3zm-1.5 0h1.5v-3h-1.5v3zm-1.5-3v1.5h3v-1.5h-3zm0-23.421v23.422h3V31.827h-3zm0-1.5v1.5h3v-1.5h-3zm3-1.5h-1.5v3h1.5v-3zm23.778-7.126c-4.534 4.18-11.518 7.126-23.778 7.126v3c12.756 0 20.559-3.078 25.812-7.92l-2.034-2.206zm9.717-17.319c-2.56 7.083-5.063 13.029-9.717 17.32l2.034 2.205c5.252-4.842 7.954-11.449 10.505-18.505l-2.822-1.02zm.358-.99l-.358.99 2.822 1.02.357-.99-2.821-1.02zm-6.008 22.72c5.58-5.143 8.471-11.982 10.93-18.694l-2.816-1.032c-2.451 6.69-5.145 12.91-10.147 17.52l2.033 2.207zm-26.317 8.7c12.392-.239 20.58-3.41 26.317-8.7l-2.033-2.205c-5.049 4.654-12.453 7.677-24.341 7.906l.057 3zm1.472 18.937V33.312h-3V53.75h3zm22.511-1.5h-24.011v3h24.011v-3zm1.5 0h-1.5v3h1.5v-3zm1.5 3v-1.5h-3v1.5h3zm0 158.849V55.248h-3v158.85h3zm28.516-1.5h-30.016v3H214.5v-3zM213 6.902v207.196h3V6.902h-3zm-18.16 1.5h19.66v-3h-19.66v3z" fill="#F4F4F4"/></symbol><symbol viewBox="0 0 238 221" fill="none" id="2" xmlns="http://www.w3.org/2000/svg"><path d="M39.43 36.757l1.118 1-1.118-1zm27.167 0l1.118-1-1.118 1zm0 147.486l-1.117-1 1.117 1zm-27.167 0l1.118-1-1.118 1zm2.235-145.485l1.118 1-1.118-1zm0 143.484l1.118-1-1.118 1zm22.697 0l-1.117-1 1.117 1zm0-143.484l-1.117 1 1.117-1zM16.972 17.84l-1.094-1.027 1.093 1.027zm0 185.32l1.093-1.027-1.094 1.027zm72.084 0l-1.093-1.027 1.093 1.027zm0-185.32l-1.093 1.027 1.093-1.027zm-74.272-2.054l1.094 1.027-1.094-1.027zm76.46 0l1.093-1.027-1.094 1.027zm0 189.428l-1.094-1.027 1.093 1.027zm-76.46 0l1.094-1.027-1.094 1.027zM150.305 17.825l-1.107-1.012 1.107 1.012zm-12.036 56.943h-1.5v1.5h1.5v-1.5zm28.147 0v1.5h1.5v-1.5h-1.5zm4.987-38.011l-1.118-1 1.118 1zm27.214.242l-1.165.946 1.165-.946zm-27.765 86.611l-1.107-1.012 1.107 1.012zm-.331.363l-1.108-1.011 1.108 1.011zm-32.252 90.125h-1.5v1.5h1.5v-1.5zm92.236 0v1.5h1.5v-1.5h-1.5zm0-27.028h1.5v-1.5h-1.5v1.5zm-62.023 0l-1.471.293.241 1.207h1.23v-1.5zm-.24-1.207l-1.471.294 1.471-.294zm-.329-4.737l1.5.001v-.001h-1.5zm10.548-25.804l1.2.9-1.2-.9zm14.854-17.361l1.112 1.007-1.112-1.007zm7.763-8.668l-1.129-.988 1.129.988zm20.386-111.468l-1.107 1.012 1.107-1.012zm-73.373-2.024l1.107 1.012-1.107-1.012zm75.587 0l-1.107 1.012 1.107-1.012zm-20.343 115.468l-1.128-.988 1.128.988zm-7.917 8.841l1.111 1.007-1.111-1.007zm-14.557 17.012l1.2.9-1.2-.9zm-9.853 26.948l-1.493.145.132 1.355h1.361v-1.5zm62.497 0h1.5v-1.5h-1.5v1.5zm0 33.028v1.5h1.5v-1.5h-1.5zm-98.236 0h-1.5v1.5h1.5v-1.5zm33.037-95.148l-1.108-1.012 1.108 1.012zm.143-.157l1.107 1.012-1.107-1.012zm27.839-82.902l-1.164.946 1.164-.946zm-22.65-.133l-1.118-1 1.118 1zm-4.222 39.01v1.5h1.5v-1.5h-1.5zm-34.147 0h-1.5v1.5h1.5v-1.5zm-82.255-47.74c-5.774 0-10.992 1.585-14.701 5.728l2.235 2.001c2.957-3.302 7.224-4.73 12.466-4.73v-3zm14.7 5.728c-3.709-4.143-8.926-5.728-14.7-5.728v3c5.242 0 9.509 1.427 12.466 4.73l2.235-2.002zm5.37 17.991c0-7.877-1.72-13.914-5.37-17.99l-2.234 2c2.957 3.303 4.604 8.483 4.604 15.99h3zm0 113.506V53.747h-3v113.506h3zm-5.37 17.991c3.65-4.077 5.37-10.114 5.37-17.991h-3c0 7.507-1.647 12.687-4.604 15.99l2.235 2.001zm-14.7 5.728c5.774 0 10.991-1.585 14.7-5.728l-2.234-2.001c-2.957 3.302-7.224 4.729-12.466 4.729v3zm-14.701-5.728c3.71 4.143 8.927 5.728 14.7 5.728v-3c-5.241 0-9.508-1.427-12.465-4.729l-2.235 2.001zm-5.37-17.991c0 7.877 1.72 13.914 5.37 17.991l2.235-2.001c-2.958-3.303-4.605-8.483-4.605-15.99h-3zm0-113.506v113.506h3V53.747h-3zm5.37-17.99c-3.65 4.076-5.37 10.113-5.37 17.99h3c0-7.507 1.648-12.687 4.605-15.99l-2.235-2zm.63 17.99c0-7.136 1.575-11.459 3.84-13.989l-2.235-2c-2.958 3.302-4.605 8.482-4.605 15.99h3zm0 113.506V53.747h-3v113.506h3zm3.84 13.989c-2.265-2.53-3.84-6.854-3.84-13.989h-3c0 7.507 1.648 12.687 4.605 15.99l2.235-2.001zm10.23 3.73c-4.705 0-8.024-1.267-10.23-3.73l-2.235 2.001c2.957 3.302 7.224 4.729 12.466 4.729v-3zm10.232-3.73c-2.206 2.463-5.525 3.73-10.231 3.73v3c5.242 0 9.509-1.427 12.466-4.729l-2.235-2.001zm3.84-13.989c0 7.135-1.575 11.459-3.84 13.989l2.235 2.001c2.957-3.303 4.604-8.483 4.604-15.99h-3zm0-113.506v113.506h3V53.747h-3zm-3.84-13.989c2.265 2.53 3.84 6.853 3.84 13.99h3c0-7.508-1.648-12.688-4.605-15.99l-2.235 2zm-10.231-3.73c4.706 0 8.025 1.267 10.23 3.73l2.236-2c-2.957-3.303-7.224-4.73-12.466-4.73v3zm-10.231 3.73c2.206-2.463 5.525-3.73 10.23-3.73v-3c-5.241 0-9.508 1.427-12.465 4.73l2.235 2zM6 55.85c0-16.317 4.283-28.697 12.065-36.982l-2.187-2.054C7.418 25.82 3 39.033 3 55.849h3zm0 109.302V55.849H3v109.302h3zm12.065 36.982C10.283 193.848 6 181.468 6 165.151H3c0 16.816 4.417 30.028 12.878 39.036l2.187-2.054zM53.014 215c-15.572 0-27.195-4.61-34.95-12.867l-2.186 2.054C24.338 213.195 36.84 218 53.014 218v-3zm34.949-12.867C80.209 210.39 68.586 215 53.013 215v3c16.173 0 28.676-4.805 37.137-13.813l-2.187-2.054zm12.065-36.982c0 16.317-4.284 28.697-12.065 36.982l2.187 2.054c8.46-9.008 12.878-22.22 12.878-39.036h-3zm0-109.302v109.302h3V55.849h-3zM87.963 18.867c7.781 8.285 12.065 20.665 12.065 36.982h3c0-16.816-4.418-30.028-12.878-39.036l-2.187 2.054zM53.013 6c15.573 0 27.196 4.61 34.95 12.867l2.187-2.054C81.69 7.805 69.186 3 53.014 3v3zM18.066 18.867C25.819 10.61 37.442 6 53.014 6V3C36.84 3 24.338 7.805 15.878 16.813l2.187 2.054zM53.014 0C36.242 0 22.858 4.998 13.69 14.76l2.187 2.053C24.338 7.805 36.84 3 53.014 3V0zm39.322 14.76C83.17 4.997 69.787 0 53.014 0v3C69.186 3 81.689 7.805 90.15 16.813l2.186-2.054zm13.692 41.09c0-17.315-4.552-31.36-13.692-41.09l-2.186 2.053c8.46 9.008 12.878 22.22 12.878 39.036h3zm0 109.301V55.849h-3v109.302h3zm-13.692 41.09c9.14-9.732 13.692-23.776 13.692-41.09h-3c0 16.816-4.418 30.028-12.878 39.036l2.186 2.054zM53.014 221c16.772 0 30.156-4.998 39.322-14.759l-2.186-2.054C81.69 213.195 69.186 218 53.014 218v3zM13.69 206.241C22.858 216.002 36.241 221 53.014 221v-3c-16.173 0-28.676-4.805-37.136-13.813l-2.187 2.054zM0 165.151c0 17.314 4.551 31.358 13.691 41.09l2.187-2.054C7.418 195.179 3 181.967 3 165.151H0zM0 55.849v109.302h3V55.849H0zm13.691-41.09C4.551 24.491 0 38.535 0 55.85h3c0-16.816 4.417-30.028 12.878-39.036l-2.187-2.054zm126.078 41.09c0-16.355 4.079-28.738 11.643-37.012l-2.214-2.024c-8.236 9.008-12.429 22.22-12.429 39.036h3zm0 18.92v-18.92h-3v18.92h3zm26.647-1.5h-28.147v3h28.147v-3zm-1.5-19.522v21.021h3v-21.02h-3zm5.369-17.99c-3.65 4.076-5.369 10.113-5.369 17.99h3c0-7.507 1.647-12.687 4.604-15.99l-2.235-2zm14.701-5.73c-5.774 0-10.991 1.586-14.701 5.73l2.235 2c2.957-3.302 7.224-4.73 12.466-4.73v-3zm14.795 6.026c-3.755-4.622-9.086-6.025-14.795-6.025v3c5.242 0 9.509 1.277 12.466 4.917l2.329-1.892zm5.276 20.997c0-9.68-1.661-16.545-5.276-20.996l-2.329 1.891c2.958 3.64 4.605 9.647 4.605 19.105h3zm-33.097 67.572c16.173-17.702 33.097-36.167 33.097-67.572h-3c0 30.122-16.102 47.805-32.312 65.548l2.215 2.024zm-.332.363l.332-.363-2.215-2.024-.332.364 2.215 2.023zm-31.859 64.789c0-29.654 15.512-46.895 31.859-64.789l-2.215-2.023c-16.322 17.866-32.644 35.883-32.644 66.812h3zm0 24.324v-24.324h-3v24.324h3zm90.736-1.5h-92.236v3h92.236v-3zm-1.5-25.528v27.028h3V187.07h-3zm-59.292 1.5h60.792v-3h-60.792v3zm-1.231 0h1.231v-3h-1.231v3zm-1.711-2.413l.24 1.206 2.942-.587-.24-1.206-2.942.587zm-.358-5.031c0 1.445-.004 3.216.358 5.031l2.942-.587c-.296-1.48-.3-2.963-.3-4.443l-3-.001zm0-.06v.06h3v-.06h-3zm10.848-26.644c-6.28 8.372-10.848 17.034-10.848 26.644h3c0-8.633 4.099-16.647 10.248-24.844l-2.4-1.8zm14.943-17.468c-5.435 5.998-10.679 11.785-14.943 17.468l2.4 1.8c4.164-5.551 9.308-11.23 14.766-17.254l-2.223-2.014zm7.745-8.649c-2.583 2.951-5.187 5.825-7.745 8.649l2.223 2.014c2.555-2.821 5.177-5.714 7.78-8.687l-2.258-1.976zM232 55.849c0 31.905-15.781 53.871-32.051 72.456l2.258 1.976C218.603 111.551 235 88.88 235 55.849h-3zm-11.643-37.012C227.922 27.111 232 39.494 232 55.85h3c0-16.816-4.193-30.028-12.429-39.036l-2.214 2.024zM185.885 6c15.569 0 26.948 4.607 34.472 12.837l2.214-2.024C214.336 7.805 202.057 3 185.885 3v3zm-34.473 12.837C158.936 10.607 170.316 6 185.885 6V3c-16.173 0-28.451 4.805-36.687 13.813l2.214 2.024zM185.885 0c-16.775 0-29.953 5.001-38.901 14.789l2.214 2.024C157.434 7.805 169.712 3 185.885 3V0zm38.901 14.789C215.838 5 202.659 0 185.885 0v3c16.172 0 28.451 4.805 36.686 13.813l2.215-2.024zM238 55.849c0-17.276-4.307-31.318-13.214-41.06l-2.215 2.024C230.807 25.82 235 39.033 235 55.849h3zm-33.536 76.408C220.987 113.382 238 90.005 238 55.849h-3c0 33.03-16.397 55.702-32.793 74.432l2.257 1.976zm-7.935 8.86c2.578-2.844 5.246-5.788 7.935-8.86l-2.257-1.976c-2.67 3.049-5.321 5.975-7.901 8.822l2.223 2.014zm-14.468 16.905c4.08-5.439 9.067-10.944 14.468-16.905l-2.223-2.014c-5.378 5.935-10.465 11.548-14.645 17.119l2.4 1.8zm-9.648 23.044c0-7.657 3.631-15.022 9.648-23.044l-2.4-1.8c-6.149 8.197-10.248 16.211-10.248 24.844h3zm.088 2.858c-.084-.867-.088-1.778-.088-2.858h-3c0 1.056.001 2.113.102 3.149l2.986-.291zm59.504-1.354h-60.997v3h60.997v-3zm1.5 0h-1.5v3h1.5v-3zm1.5 3v-1.5h-3v1.5h3zm0 30.028V185.57h-3v30.028h3zm0 1.5v-1.5h-3v1.5h3zm-3 1.5h1.5v-3h-1.5v3zm-95.236 0h95.236v-3h-95.236v3zm-1.5 0h1.5v-3h-1.5v3zm-1.5-3v1.5h3v-1.5h-3zm0-25.824v25.824h3v-25.824h-3zm33.429-68.836c-16.297 17.84-33.429 36.633-33.429 68.836h3c0-30.929 16.322-48.946 32.644-66.812l-2.215-2.024zm.143-.156l-.143.156 2.215 2.024.143-.157-2.215-2.023zm31.716-63.732c0 28.953-15.397 45.869-31.716 63.732l2.215 2.023c16.274-17.814 32.501-35.515 32.501-65.755h-3zm-3.933-17.213c2.299 2.83 3.933 7.976 3.933 17.213h3c0-9.458-1.647-15.464-4.605-19.105l-2.328 1.892zm-10.138-3.81c4.771 0 7.976 1.148 10.138 3.81l2.328-1.892c-2.957-3.64-7.223-4.917-12.466-4.917v3zm-10.231 3.731c2.206-2.463 5.525-3.73 10.231-3.73v-3c-5.242 0-9.509 1.427-12.466 4.73l2.235 2zm-3.839 13.99c0-7.136 1.574-11.46 3.839-13.99l-2.235-2c-2.957 3.302-4.604 8.482-4.604 15.99h3zm0 22.52v-22.52h-3v22.52h3zm0 1.5v-1.5h-3v1.5h3zm-3 1.5h1.5v-3h-1.5v3zm-31.147 0h31.147v-3h-31.147v3zm-1.5 0h1.5v-3h-1.5v3zm-1.5-3v1.5h3v-1.5h-3zm0-20.419v20.42h3v-20.42h-3zm13.215-41.06c-8.907 9.742-13.215 23.784-13.215 41.06h3c0-16.816 4.193-30.028 12.429-39.036l-2.214-2.024z" fill="#F4F4F4"/></symbol><symbol viewBox="0 0 235 219" fill="none" id="3" xmlns="http://www.w3.org/2000/svg"><path d="M167.186 89.982v-1.5h-1.5v1.5h1.5zm0 30.028h-1.5v1.5h1.5v-1.5zm-1.503 26.725h1.5v-1.5h-1.5v1.5zm-31.254 0v-1.5h-1.5v1.5h1.5zm75.431-43.241l-.575-1.385-3.257 1.351 3.232 1.409.6-1.375zM134.429 66.26h-1.5v1.5h1.5v-1.5zm31.254 0v1.5h1.5v-1.5h-1.5zM.5 54.85V164.15h3V54.849h-3zM52.187.5C35.66.5 22.674 5.4 13.83 14.784 5 24.154.5 37.783.5 54.85h3c0-16.565 4.365-29.36 12.514-38.007C24.15 8.208 36.257 3.5 52.187 3.5v-3zm51.687 54.35c0-17.067-4.5-30.696-13.331-40.066C81.7 5.401 68.713.5 52.187.5v3c15.93 0 28.037 4.708 36.173 13.342 8.149 8.647 12.514 21.442 12.514 38.007h3zm0 109.301V54.849h-3v109.302h3zM52.187 218.5c16.526 0 29.513-4.901 38.356-14.284 8.83-9.37 13.331-22.999 13.331-40.065h-3c0 16.565-4.365 29.36-12.514 38.007-8.136 8.634-20.243 13.342-36.173 13.342v3zM.5 164.151c0 17.066 4.5 30.695 13.33 40.065 8.844 9.383 21.83 14.284 38.357 14.284v-3c-15.93 0-28.037-4.708-36.173-13.342C7.864 193.511 3.5 180.716 3.5 164.151h-3zm36.057 2.102V52.747h-3v113.506h3zm15.63 19.219c-4.994 0-8.802-1.348-11.393-4.232-2.62-2.916-4.237-7.667-4.237-14.987h-3c0 7.693 1.69 13.302 5.005 16.992 3.344 3.722 8.1 5.227 13.625 5.227v-3zm15.63-19.219c0 7.32-1.616 12.071-4.237 14.987-2.591 2.884-6.4 4.232-11.393 4.232v3c5.525 0 10.28-1.505 13.625-5.227 3.315-3.69 5.005-9.299 5.005-16.992h-3zm0-113.506v113.506h3V52.747h-3zm-15.63-19.22c4.994 0 8.802 1.349 11.393 4.233 2.62 2.916 4.237 7.667 4.237 14.987h3c0-7.693-1.69-13.302-5.005-16.992-3.344-3.722-8.1-5.227-13.625-5.227v3zm-15.63 19.22c0-7.32 1.616-12.07 4.236-14.987 2.592-2.884 6.4-4.232 11.394-4.232v-3c-5.525 0-10.281 1.505-13.625 5.227-3.315 3.69-5.005 9.299-5.005 16.992h3zm164.886 15.014v-11.71h-3v11.71h3zm-21.335 23.72c6.347 0 11.782-1.388 15.604-5.248 3.815-3.854 5.731-9.878 5.731-18.472h-3c0 8.222-1.841 13.309-4.863 16.361-3.015 3.046-7.497 4.36-13.472 4.36v3zm-12.922 0h12.922v-3h-12.922v3zm1.5 28.529V89.982h-3v30.028h3zm9.619-1.5h-11.119v3h11.119v-3zm23.138 28.225c0-9.862-1.657-16.988-5.531-21.642-3.936-4.727-9.876-6.583-17.607-6.583v3c7.295 0 12.174 1.747 15.301 5.503 3.187 3.828 4.837 10.065 4.837 19.722h3zm0 16.515v-16.515h-3v16.515h3zm-18.63 25.222c5.491 0 10.301-1.338 13.667-5.426 3.302-4.009 4.963-10.372 4.963-19.796h-3c0 9.193-1.645 14.691-4.279 17.889-2.569 3.119-6.323 4.333-11.351 4.333v3zm-18.63-22.219c0 7.693 1.69 13.302 5.005 16.992 3.344 3.722 8.101 5.227 13.625 5.227v-3c-4.994 0-8.802-1.348-11.393-4.232-2.62-2.916-4.237-7.667-4.237-14.987h-3zm0-19.518v19.518h3v-19.518h-3zm-29.754 1.5h31.254v-3h-31.254v3zm1.5 15.916v-17.416h-3v17.416h3zm47.786 51.349c-15.929 0-27.801-4.707-35.709-13.327-7.927-8.641-12.077-21.438-12.077-38.022h-3c0 17.047 4.265 30.675 12.867 40.05 8.62 9.397 21.391 14.299 37.919 14.299v-3zm47.785-51.349c0 16.584-4.149 29.381-12.077 38.022-7.908 8.62-19.78 13.327-35.708 13.327v3c16.528 0 29.298-4.902 37.919-14.299 8.601-9.375 12.866-23.003 12.866-40.05h-3zm0-16.516v16.516h3v-16.516h-3zm-22.24-42.766c15.748 6.866 22.24 21.737 22.24 42.766h3c0-21.61-6.731-37.968-24.041-45.516l-1.199 2.75zm22.24-44.615c0 11.116-1.782 20.008-5.423 26.887-3.621 6.843-9.131 11.79-16.792 14.968l1.15 2.771c8.266-3.429 14.327-8.84 18.294-16.336 3.947-7.46 5.771-16.885 5.771-28.29h-3zm0-5.405v5.405h3V54.85h-3zM183.715 3.5c15.928 0 27.8 4.707 35.708 13.327 7.928 8.641 12.077 21.438 12.077 38.022h3c0-17.047-4.265-30.675-12.866-40.05C213.013 5.402 200.243.5 183.715.5v3zm-47.786 51.35c0-16.585 4.15-29.382 12.077-38.023 7.908-8.62 19.78-13.327 35.709-13.327v-3c-16.528 0-29.299 4.902-37.919 14.299-8.602 9.375-12.867 23.003-12.867 40.05h3zm0 11.41V54.85h-3v11.41h3zm29.754-1.5h-31.254v3h31.254v-3zm-1.5-12.013V66.26h3V52.747h-3zm18.63-22.22c-5.524 0-10.281 1.506-13.625 5.228-3.315 3.69-5.005 9.299-5.005 16.992h3c0-7.32 1.617-12.07 4.237-14.987 2.591-2.884 6.399-4.232 11.393-4.232v-3zm18.63 25.523c0-9.57-1.66-16.006-4.958-20.053-3.366-4.13-8.18-5.47-13.672-5.47v3c5.026 0 8.778 1.214 11.347 4.366 2.637 3.235 4.283 8.81 4.283 18.157h3z" fill="#F4F4F4"/></symbol><symbol viewBox="0 0 244 221" fill="none" id="4" xmlns="http://www.w3.org/2000/svg"><path d="M39.528 36.755l-1.116-1.002 1.116 1.002zm27.228 0l-1.116 1.002 1.116-1.002zm0 147.49l-1.116-1.002 1.116 1.002zm-27.228 0l1.116-1.002-1.116 1.002zM41.76 38.759l1.117 1.002-1.117-1.002zm0 143.482l1.117-1.002-1.117 1.002zm22.764 0l-1.116-1.002 1.116 1.002zm0-143.482l-1.116 1.002 1.116-1.002zM17.003 17.841l1.092 1.028-1.092-1.028zm0 185.318l-1.092 1.028 1.092-1.028zm72.278 0l1.092 1.028-1.092-1.028zm0-185.318L88.19 18.87l1.092-1.028zM14.82 15.785l-1.092-1.029 1.092 1.029zm76.647 0l-1.093 1.028 1.093-1.028zm0 189.43l-1.093-1.028 1.093 1.028zm-76.647 0l1.092-1.028-1.092 1.028zM188.362 3.902v-1.5h-.994l-.387.916 1.381.584zm38.525 0h1.5v-1.5h-1.5v1.5zm0 142.032h-1.5v1.5h1.5v-1.5zm15.613 0h1.5v-1.5h-1.5v1.5zm0 33.028v1.5h1.5v-1.5h-1.5zm-15.613 0v-1.5h-1.5v1.5h1.5zm0 38.136v1.5h1.5v-1.5h-1.5zm-35.427 0h-1.5v1.5h1.5v-1.5zm0-38.136h1.5v-1.5h-1.5v1.5zm-63.654 0h-1.5v1.5h1.5v-1.5zm0-31.832l-1.381-.584-.119.28v.304h1.5zm.119-.28l-1.382-.584 1.382.584zm60.05-142.032l-1.382-.584 1.382.584zm-57.169 142.92l-1.381-.584-.119.28v.304h1.5zM190.351 6.902v-1.5h-.994l-.388.916 1.382.584zm-59.545 169.06h-1.5v1.5h1.5v-1.5zm63.654 0h1.5v-1.5h-1.5v1.5zm0 38.136h-1.5v1.5h1.5v-1.5zm29.427 0v1.5h1.5v-1.5h-1.5zm0-38.136v-1.5h-1.5v1.5h1.5zm15.613 0v1.5h1.5v-1.5h-1.5zm0-27.028h1.5v-1.5h-1.5v1.5zm-15.613 0h-1.5v1.5h1.5v-1.5zm0-142.032h1.5v-1.5h-1.5v1.5zm-32.309 60.976l.297-1.47-1.202-.244-.477 1.13 1.382.584zM158.25 146.85l1.382.583-1.382-.583zm36.21-78.39h1.5v-1.227l-1.203-.243-.297 1.47zm0 80.473v1.5h1.5v-1.5h-1.5zm-37.09 0l-1.381-.583-.88 2.083h2.261v-1.5zm34.09-3v1.5h1.5v-1.5h-1.5zm-29.567 0l-1.382-.583-.879 2.083h2.261v-1.5zm29.567-70.06h1.5l-2.882-.584 1.382.583zM53.142 30.027c-5.785 0-11.012 1.583-14.73 5.725l2.232 2.004c2.965-3.302 7.243-4.73 12.498-4.73v-3zm14.73 5.725c-3.717-4.142-8.945-5.725-14.73-5.725v3c5.255 0 9.533 1.427 12.498 4.73l2.233-2.005zm5.385 17.994c0-7.879-1.725-13.917-5.384-17.994l-2.233 2.004c2.965 3.303 4.617 8.483 4.617 15.99h3zm0 113.506V53.747h-3v113.506h3zm-5.384 17.994c3.659-4.077 5.383-10.115 5.383-17.994h-3c0 7.507-1.651 12.687-4.616 15.99l2.233 2.004zm-14.73 5.725c5.784 0 11.012-1.583 14.73-5.725l-2.233-2.004c-2.965 3.302-7.243 4.729-12.498 4.729v3zm-14.731-5.725c3.718 4.142 8.945 5.725 14.73 5.725v-3c-5.255 0-9.533-1.427-12.498-4.729l-2.232 2.004zm-5.384-17.994c0 7.879 1.724 13.917 5.384 17.994l2.232-2.004c-2.965-3.303-4.616-8.483-4.616-15.99h-3zm0-113.506v113.506h3V53.747h-3zm5.384-17.994c-3.66 4.077-5.384 10.115-5.384 17.994h3c0-7.507 1.651-12.687 4.616-15.99l-2.232-2.004zm.616 17.994c0-7.134 1.578-11.456 3.849-13.986l-2.233-2.004c-2.965 3.303-4.616 8.483-4.616 15.99h3zm0 113.506V53.747h-3v113.506h3zm3.849 13.986c-2.271-2.53-3.85-6.852-3.85-13.986h-3c0 7.507 1.652 12.687 4.617 15.99l2.233-2.004zm10.265 3.733c-4.722 0-8.053-1.268-10.265-3.733l-2.233 2.004c2.965 3.302 7.243 4.729 12.498 4.729v-3zm10.266-3.733c-2.213 2.465-5.544 3.733-10.266 3.733v3c5.255 0 9.534-1.427 12.498-4.729l-2.232-2.004zm3.849-13.986c0 7.134-1.578 11.456-3.85 13.986l2.233 2.004c2.965-3.303 4.617-8.483 4.617-15.99h-3zm0-113.506v113.506h3V53.747h-3zm-3.85-13.986c2.272 2.53 3.85 6.852 3.85 13.986h3c0-7.507-1.652-12.687-4.617-15.99l-2.232 2.004zm-10.265-3.733c4.722 0 8.053 1.268 10.266 3.733l2.232-2.004c-2.964-3.302-7.242-4.73-12.498-4.73v3zM42.877 39.76c2.212-2.465 5.543-3.733 10.265-3.733v-3c-5.255 0-9.533 1.427-12.498 4.73l2.233 2.003zM6 55.85c0-16.315 4.293-28.694 12.095-36.98l-2.184-2.056C7.429 25.82 3 39.033 3 55.849h3zm0 109.302V55.849H3v109.302h3zm12.095 36.98C10.293 193.845 6 181.466 6 165.151H3c0 16.816 4.429 30.028 12.91 39.036l2.185-2.056zM53.142 215c-15.616 0-27.272-4.612-35.047-12.869l-2.184 2.056C24.393 213.195 36.928 218 53.142 218v-3zm35.047-12.869C80.414 210.388 68.758 215 53.142 215v3c16.214 0 28.75-4.805 37.231-13.813l-2.184-2.056zm12.095-36.98c0 16.315-4.293 28.694-12.095 36.98l2.184 2.056c8.483-9.008 12.911-22.22 12.911-39.036h-3zm0-109.302v109.302h3V55.849h-3zM88.189 18.87c7.802 8.286 12.095 20.665 12.095 36.98h3c0-16.816-4.428-30.028-12.91-39.036l-2.185 2.056zM53.142 6c15.616 0 27.272 4.612 35.047 12.87l2.184-2.057C81.891 7.805 69.356 3 53.143 3v3zM18.095 18.87C25.87 10.611 37.526 6 53.142 6V3c-16.214 0-28.75 4.805-37.231 13.813l2.184 2.056zM53.142 0C36.331 0 22.916 4.997 13.727 14.756l2.184 2.057C24.393 7.805 36.928 3 53.142 3V0zm39.416 14.756C83.368 4.997 69.953 0 53.142 0v3c16.214 0 28.75 4.805 37.231 13.813l2.185-2.057zm13.726 41.093c0-17.316-4.564-31.361-13.726-41.093l-2.185 2.057c8.483 9.008 12.911 22.22 12.911 39.036h3zm0 109.302V55.849h-3v109.302h3zm-13.726 41.093c9.162-9.732 13.726-23.777 13.726-41.093h-3c0 16.816-4.428 30.028-12.91 39.036l2.184 2.057zM53.142 221c16.811 0 30.226-4.997 39.416-14.756l-2.185-2.057C81.891 213.195 69.356 218 53.143 218v3zm-39.415-14.756C22.916 216.003 36.33 221 53.142 221v-3c-16.214 0-28.75-4.805-37.231-13.813l-2.184 2.057zM0 165.151c0 17.316 4.564 31.361 13.727 41.093l2.184-2.057C7.429 195.179 3 181.967 3 165.151H0zM0 55.849v109.302h3V55.849H0zm13.727-41.093C4.564 24.488 0 38.533 0 55.85h3c0-16.816 4.429-30.028 12.91-39.036l-2.183-2.057zm175.63-12.354h-.995v3h.995v-3zm36.03 0h-36.03v3h36.03v-3zm1.5 0h-1.5v3h1.5v-3zm1.5 3v-1.5h-3v1.5h3zm0 140.532V5.402h-3v140.532h3zm12.613-1.5h-14.113v3H241v-3zm1.5 0H241v3h1.5v-3zm1.5 3v-1.5h-3v1.5h3zm0 30.028v-30.028h-3v30.028h3zm0 1.5v-1.5h-3v1.5h3zm-3 1.5h1.5v-3H241v3zm-14.113 0H241v-3h-14.113v3zm1.5 35.136v-36.636h-3v36.636h3zm0 1.5v-1.5h-3v1.5h3zm-3 1.5h1.5v-3h-1.5v3zm-32.427 0h32.427v-3H192.96v3zm-1.5 0h1.5v-3h-1.5v3zm-1.5-3v1.5h3v-1.5h-3zm0-36.636v36.636h3v-36.636h-3zm-60.654 1.5h62.154v-3h-62.154v3zm-1.5 0h1.5v-3h-1.5v3zm-1.5-3v1.5h3v-1.5h-3zm0-30.028v30.028h3v-30.028h-3zm0-.304v.304h3v-.304h-3zm.237-.864l-.118.28 2.763 1.168.118-.28-2.763-1.168zm60.05-142.032l-60.05 142.032 2.763 1.168L189.357 5.402l-2.764-1.168zm.388-.916l-.388.916 2.764 1.168.387-.916-2.763-1.168zm-54.793 145.005L191.733 7.486l-2.764-1.168-59.544 140.836 2.763 1.169zm.118 27.639v-28.224h-3v28.224h3zm60.654-1.5h-62.154v3h62.154v-3zm1.5 0h-1.5v3h1.5v-3zm1.5 3v-1.5h-3v1.5h3zm0 36.636v-36.636h-3v36.636h3zm27.927-1.5H194.46v3h29.427v-3zm-1.5-35.136v36.636h3v-36.636h-3zm0-1.5v1.5h3v-1.5h-3zm3-1.5h-1.5v3h1.5v-3zm14.113 0h-14.113v3H239.5v-3zm-1.5-25.528v27.028h3v-27.028h-3zm-12.613 1.5H239.5v-3h-14.113v3zm-1.5 0h1.5v-3h-1.5v3zm-1.5-3v1.5h3v-1.5h-3zm0-140.532v140.532h3V6.902h-3zm-32.036 1.5h33.536v-3h-33.536v3zm-.155 58.892l-33.328 78.974 2.764 1.166 33.328-78.973-2.764-1.166zm4.561-.303l-2.882-.584-.595 2.94 2.882.584.595-2.94zm1.203 80.443V68.461h-3v78.973h3zm0 1.5v-1.5h-3v1.5h3zm-3 1.5h1.5v-3h-1.5v3zm-33.328 0h33.328v-3h-33.328v3zm-2.262 0h2.262v-3h-2.262v3zm-.502-4.166l-.879 2.083 2.763 1.167.88-2.084-2.764-1.166zm34.592-1.834h-29.567v3h29.567v-3zm-1.5-68.56v70.06h3v-70.06h-3zm-26.685 70.644l29.567-70.062-2.764-1.166-29.567 70.061 2.764 1.167z" fill="#F4F4F4"/></symbol><symbol viewBox="0 0 24 24" fill="none" id="fb" xmlns="http://www.w3.org/2000/svg"><path d="M20.766 0H3.234A3.234 3.234 0 0 0 0 3.234v17.532A3.234 3.234 0 0 0 3.234 24h8.647l.014-8.576H9.667a.526.526 0 0 1-.525-.524l-.011-2.765a.526.526 0 0 1 .526-.527h2.224V8.937c0-3.1 1.893-4.788 4.658-4.788h2.27c.29 0 .525.235.525.525v2.331c0 .29-.235.526-.525.526h-1.393c-1.504 0-1.795.715-1.795 1.764v2.313h3.305c.315 0 .559.275.522.587l-.328 2.765a.526.526 0 0 1-.522.464h-2.962L15.62 24h5.145A3.234 3.234 0 0 0 24 20.766V3.234A3.234 3.234 0 0 0 20.766 0z" fill="#475993"/></symbol><symbol viewBox="0 0 6 10" id="right" xmlns="http://www.w3.org/2000/svg"><path d="M3.984 4.998L.164 8.739a.537.537 0 0 0 0 .774l.334.327a.56.56 0 0 0 .395.16.56.56 0 0 0 .395-.16l4.55-4.454A.537.537 0 0 0 6 4.998a.537.537 0 0 0-.163-.388L1.292.16A.56.56 0 0 0 .897 0a.56.56 0 0 0-.395.16L.167.487a.54.54 0 0 0 0 .774l3.817 3.737z"/></symbol><symbol viewBox="0 0 16 16" id="search" xmlns="http://www.w3.org/2000/svg"><path fill-rule="evenodd" clip-rule="evenodd" d="M12.433 10.573l3.146 3.054c.535.539.535 1.413 0 1.952-.535.539-1.403.539-1.938 0l-3.146-3.054c-.01-.01-.02-.022-.028-.034l-.022-.027a6.672 6.672 0 0 1-3.704 1.118C3.018 13.582 0 10.542 0 6.792 0 3.04 3.018 0 6.741 0s6.741 3.04 6.741 6.791c0 1.379-.41 2.661-1.11 3.732a.411.411 0 0 0 .027.021c.011.01.023.018.034.03zM2.337 6.791c0 2.45 1.972 4.437 4.404 4.437s4.404-1.986 4.404-4.437c0-2.45-1.972-4.437-4.404-4.437S2.337 4.341 2.337 6.791z"/></symbol><symbol viewBox="0 0 24 17" fill="none" id="yt" xmlns="http://www.w3.org/2000/svg"><path fill-rule="evenodd" clip-rule="evenodd" d="M4.984 0h14.031A4.987 4.987 0 0 1 24 4.99v7.02A4.987 4.987 0 0 1 19.015 17H4.986A4.987 4.987 0 0 1 0 12.01V4.99A4.987 4.987 0 0 1 4.984 0zm4.098 11.975l6.563-3.133a.264.264 0 0 0 .005-.474L9.087 5.04a.263.263 0 0 0-.382.236v6.462c0 .194.202.321.377.238z" fill="#F61C0D"/></symbol></svg>