<?xml version="1.0" encoding="utf-8"?><svg xmlns="http://www.w3.org/2000/svg" xmlns:xlink="http://www.w3.org/1999/xlink"><symbol viewBox="0 0 20 16" id="account" xmlns="http://www.w3.org/2000/svg"><path d="M18.894 7.124h-1.24V5.948a.885.885 0 0 0-.272-.636.946.946 0 0 0-.658-.264.946.946 0 0 0-.658.264.885.885 0 0 0-.272.636v1.176h-1.24a.957.957 0 0 0-.647.278.897.897 0 0 0-.265.634c0 .236.095.464.265.634.17.17.402.27.646.277h1.24v1.177c0 .239.099.468.273.637a.946.946 0 0 0 .658.263.946.946 0 0 0 .658-.263.886.886 0 0 0 .272-.637V8.947h1.24a.957.957 0 0 0 .647-.277.897.897 0 0 0 .265-.634.897.897 0 0 0-.265-.634.957.957 0 0 0-.647-.278zM6.905 10.31c-3.432 0-6.363.53-6.363 2.652s2.912 2.67 6.363 2.67c3.433 0 6.364-.53 6.364-2.652 0-2.12-2.913-2.67-6.364-2.67zM6.905 8.288a4.344 4.344 0 0 0 1.616-.315c.512-.207.976-.51 1.367-.89.391-.381.701-.833.911-1.33a3.97 3.97 0 0 0 .316-1.565V4.16a3.958 3.958 0 0 0-.29-1.571 4.06 4.06 0 0 0-.89-1.344A4.216 4.216 0 0 0 8.577.335 4.331 4.331 0 0 0 5.342.291c-.515.2-.985.496-1.382.872a4.072 4.072 0 0 0-.93 1.318 3.96 3.96 0 0 0-.335 1.563v.115A3.969 3.969 0 0 0 3 5.726c.207.498.513.951.901 1.334.388.384.85.69 1.36.9.51.21 1.059.32 1.613.326h.031"/></symbol><symbol viewBox="0 0 18 18" id="all" xmlns="http://www.w3.org/2000/svg"><path d="M16.633 0H1.367C.613 0 0 .52 0 1.16v1.68C0 3.48.613 4 1.367 4h15.266C17.387 4 18 3.48 18 2.84V1.16C18 .52 17.387 0 16.633 0zM16.633 7H1.367C.613 7 0 7.52 0 8.16v1.68C0 10.48.613 11 1.367 11h15.266C17.387 11 18 10.48 18 9.84V8.16C18 7.52 17.387 7 16.633 7zM16.633 14H1.367C.613 14 0 14.52 0 15.16v1.68C0 17.48.613 18 1.367 18h15.266c.754 0 1.367-.52 1.367-1.16v-1.68c0-.64-.613-1.16-1.367-1.16z"/></symbol><symbol viewBox="0 0 24 24" id="casino" xmlns="http://www.w3.org/2000/svg"><path d="M12 0C5.382 0 0 5.382 0 12s5.382 12 12 12 12-5.382 12-12S18.618 0 12 0zm6.036 21.018A10.8 10.8 0 0 1 12 22.836a10.842 10.842 0 0 1-7.673-3.163A10.842 10.842 0 0 1 1.164 12a10.8 10.8 0 0 1 1.818-6.036 10.93 10.93 0 0 1 4.873-4c2-.837 4.145-1.019 6.254-.582a10.974 10.974 0 0 1 5.564 2.982 10.974 10.974 0 0 1 2.982 5.563c.4 2.11.218 4.291-.619 6.255-.836 1.963-2.218 3.673-4 4.836z"/><path d="M7.854 11.273a.232.232 0 0 0 .218 0c.073-.037.146-.073.182-.11l2.036.692c-.036.327.037.654.182.981.146.291.4.546.728.655l-.51 2.11a.278.278 0 0 0-.181.072c-.037.036-.11.109-.11.145-.036.073-.036.146-.036.218 0 .073.037.146.073.182.036.037.109.11.182.11a.232.232 0 0 0 .218 0 .2.2 0 0 0 .182-.11c.036-.036.072-.109.109-.182a.232.232 0 0 0 0-.218c-.037-.072-.073-.145-.146-.182l.691-2.036c.327.036.655-.036.982-.182.291-.145.546-.4.655-.727l2.109.51c0 .072.036.18.109.217a.33.33 0 0 0 .254.11c.073 0 .182 0 .255-.073.073-.037.109-.146.145-.219 0-.036.037-.109.037-.145 0-.036-.037-.11-.037-.146a56.11 56.11 0 0 1-.109-.109c-.036-.036-.072-.036-.145-.072a.232.232 0 0 0-.218 0c-.073.036-.146.072-.182.145l-2.073-.69c.036-.328-.036-.655-.182-.983-.182-.29-.4-.509-.727-.654l.51-2.11c.072 0 .18-.036.217-.108a.33.33 0 0 0 .11-.255c0-.073 0-.182-.073-.254-.037-.073-.146-.11-.219-.146-.036-.036-.109-.036-.145-.036h-.146c-.036 0-.072.036-.145.073-.036.036-.073.072-.073.109-.036.036-.036.109-.036.145v.146c0 .036.036.072.073.145.036.036.072.073.109.073l-.691 2.036c-.327-.036-.655.036-.982.182-.29.182-.545.436-.655.727L8.29 10.8a.278.278 0 0 0-.072-.182c-.037-.036-.11-.109-.146-.109-.036.037-.109.037-.182.037a.278.278 0 0 0-.181.072c-.037.037-.11.11-.11.182a.232.232 0 0 0 0 .218.2.2 0 0 0 .11.182c.036.036.072.073.145.073z"/><path fill-rule="evenodd" clip-rule="evenodd" d="M3.345 12c0-4.8 3.854-8.655 8.654-8.655S20.654 7.2 20.654 12c0 4.8-3.891 8.654-8.655 8.654-4.763 0-8.654-3.854-8.654-8.654zM17.49 6.218l-.327.073-.073.327.255.255.327-.073.073-.327-.255-.255zM12.218 4h-.328l-.182.29.182.292h.327l.182-.291L12.218 4zM6.944 6.29l-.328-.072-.254.255.073.327.327.073.254-.255-.072-.327zm-2.473 5.965l.29-.182v-.328l-.29-.181-.29.181v.328l.29.181zm2.145 5.309l.328-.073.072-.327-.254-.255-.327.073-.073.327.254.255zm5.273 2.218h.327l.182-.291-.181-.291h-.328l-.182.29.182.292zm5.31-2.255l.326.073.219-.29-.073-.328-.327-.073-.255.255.11.363zm2.145-5.454l.29.181.291-.181v-.328l-.29-.181-.291.181v.328zM12 18.667a6.667 6.667 0 1 0 0-13.334 6.667 6.667 0 0 0 0 13.334z"/></symbol><symbol viewBox="0 0 18 18" fill="none" id="close" xmlns="http://www.w3.org/2000/svg"><path d="M17.133 1.133l-16 16M1.133 1.133l16 16"/></symbol><symbol viewBox="0 0 19 19" id="close2" xmlns="http://www.w3.org/2000/svg"><path d="M.853.853C.388 1.318.425 2.13.935 2.64l14.621 14.62c.51.51 1.323.548 1.788.083.465-.465.428-1.278-.082-1.788L2.64.936C2.13.424 1.318.387.853.852z"/><path d="M15.556 1.033L.936 15.654c-.511.51-.548 1.323-.083 1.788.465.465 1.278.428 1.788-.082L17.26 2.738c.51-.51.548-1.322.083-1.787-.465-.466-1.278-.428-1.788.082z"/></symbol><symbol viewBox="0 0 10 6" fill="none" id="down" xmlns="http://www.w3.org/2000/svg"><path d="M9 .996l-4 4-4-4"/></symbol><symbol viewBox="0 0 22 24" id="gambling" xmlns="http://www.w3.org/2000/svg"><path d="M11.194 8.24a3.99 3.99 0 0 1 1.832-1.048V2.006A2.005 2.005 0 0 0 11.021 0H2A2.004 2.004 0 0 0 0 2.006v9.02c0 1.108.897 2.005 2.006 2.005h4.402l4.786-4.791zM9.02 3.006a1.001 1.001 0 1 1-.001 2.003 1.001 1.001 0 0 1 .001-2.003zm0 4.008a1.001 1.001 0 1 1-.001 2.002 1.001 1.001 0 0 1 .001-2.002zM4.007 3.006a1.001 1.001 0 1 1-.002 2.003 1.001 1.001 0 0 1 .002-2.003zm0 7.014a1.001 1.001 0 0 1 0-2.001c.55 0 1 .45 1 1a.995.995 0 0 1-1 1.001zM21.116 13.91L15.99 8.78a1.97 1.97 0 0 0-.588-.409c-1.268-.573-2.612-.31-3.495.578l-5.134 5.125c-.17.17-.31.366-.409.587-.573 1.269-.31 2.612.578 3.495l5.13 5.135c.169.169.366.31.587.408 1.268.573 2.612.31 3.495-.577l5.13-5.13c.169-.17.31-.367.409-.587.573-1.269.31-2.612-.578-3.495zm-7.084 3.128a1.001 1.001 0 0 1 0-2.001c.55 0 1 .451 1 1 0 .55-.45 1.001-1 1.001z"/></symbol><symbol viewBox="0 0 17 8" id="left" xmlns="http://www.w3.org/2000/svg"><path d="M.646 3.646a.5.5 0 0 0 0 .708l3.182 3.182a.5.5 0 1 0 .708-.708L1.707 4l2.829-2.828a.5.5 0 1 0-.708-.708L.646 3.646zM17 3.5H1v1h16v-1z"/></symbol><symbol viewBox="0 0 7 10" fill="none" id="left2" xmlns="http://www.w3.org/2000/svg"><path d="M6 9L2 5l4-4"/></symbol><symbol viewBox="0 0 24 24" id="legislations" xmlns="http://www.w3.org/2000/svg"><path d="M18.328 23.25c0-1.167-.942-2.11-2.11-2.11H7.782c-1.167 0-2.11.943-2.11 2.11V24h12.657v-.75zM22.594 5.672V4.266h-8.616a2.096 2.096 0 0 0-1.275-1.275V0h-1.406v2.99c-.595.212-1.064.68-1.275 1.276H1.406v1.406h1.758L0 13.406a3.517 3.517 0 0 0 3.516 3.516h1.406a3.517 3.517 0 0 0 3.516-3.516L5.258 5.672h4.763c.21.595.68 1.064 1.275 1.275v10.05a3.523 3.523 0 0 0-2.742 2.737h6.89a3.53 3.53 0 0 0-2.742-2.737V6.947a2.096 2.096 0 0 0 1.275-1.275h4.749l-3.165 7.734a3.517 3.517 0 0 0 3.516 3.516h1.406A3.517 3.517 0 0 0 24 13.406l-3.178-7.734h1.772zM6.68 12.703H1.758l2.46-5.906 2.462 5.906zm15.562 0H17.32l2.461-5.906 2.461 5.906z"/></symbol><symbol viewBox="0 0 16 13" id="load" xmlns="http://www.w3.org/2000/svg"><path fill-rule="evenodd" clip-rule="evenodd" d="M15.76 6.892L14.2 5.194a.553.553 0 0 0-.776 0l-1.564 1.698a.541.541 0 0 0 0 .772h1.294a5.345 5.345 0 0 1-3.79 3.79 5.379 5.379 0 0 1-5.766-2.12l-1.091.752a6.709 6.709 0 0 0 7.196 2.643 6.666 6.666 0 0 0 4.813-5.065h1.245a.546.546 0 0 0 0-.772zM4.44 6.005a.543.543 0 0 0 0-.772H2.983a5.339 5.339 0 0 1 3.771-3.738 5.373 5.373 0 0 1 5.766 2.12l1.092-.751A6.712 6.712 0 0 0 6.413.219a6.67 6.67 0 0 0-4.8 5.014H.161a.543.543 0 0 0 0 .772L1.8 7.642a.553.553 0 0 0 .776 0L4.44 6.005z"/></symbol><symbol viewBox="0 0 14 12" id="mail" xmlns="http://www.w3.org/2000/svg"><path d="M14 8.027c0 1.742-1.54 3.173-3.5 3.173H3.57C1.61 11.2.07 9.769 0 8.089V3.92c0-.187.14-.311.35-.311.07 0 .14 0 .21.062 1.68 1.182 4.62 3.298 4.69 3.36.49.373 1.12.56 1.75.56.63 0 1.26-.187 1.75-.56.07 0 2.94-2.115 4.62-3.298.14-.124.35-.062.49.063.07.062.07.124.07.186.07 1.37.07 4.045.07 4.045z"/><path d="M13.65 1.68C13.02.684 11.83 0 10.57 0h-7C2.24 0 1.05.622.49 1.68c-.14.249-.07.498.14.684l5.18 3.672c.35.248.77.373 1.26.373.42 0 .91-.125 1.26-.373l5.18-3.672c.21-.186.28-.497.14-.684z"/></symbol><symbol viewBox="0 0 24 18" id="menu" xmlns="http://www.w3.org/2000/svg"><path d="M1.322 18H22c.721 0 1.322-.548 1.322-1.206 0-.658-.6-1.206-1.322-1.206H1.322c-.72 0-1.322.548-1.322 1.206C0 17.452.601 18 1.322 18zM0 9c0 .658.601 1.206 1.322 1.206H22c.721 0 1.322-.548 1.322-1.206 0-.658-.6-1.206-1.322-1.206H1.322C.602 7.794 0 8.342 0 9zM22 0H1.322C.602 0 0 .548 0 1.206c0 .658.601 1.206 1.322 1.206H22c.721 0 1.322-.548 1.322-1.206C23.322.548 22.722 0 22 0z"/></symbol><symbol viewBox="0 0 84 70" id="quote" xmlns="http://www.w3.org/2000/svg"><path d="M37.512 70H0V41.261c0-10.583 2.214-18.932 6.641-25.048S18.656 4.693 29.405 0l8.108 15.269c-6.61 3.087-11.18 6.161-13.71 9.221a18.583 18.583 0 0 0-4.228 10.852h17.938L37.512 70zM83.67 70H46.158V41.261c0-10.583 2.214-18.932 6.641-25.048S64.814 4.693 75.563 0l8.108 15.269c-6.61 3.087-11.18 6.161-13.71 9.221a18.581 18.581 0 0 0-4.228 10.852h17.938L83.67 70z"/></symbol><symbol viewBox="0 0 19 24" id="results" xmlns="http://www.w3.org/2000/svg"><path d="M16.852 1.505h-2.743v.801c0 1.167-.942 2.11-2.109 2.11H6.727a2.107 2.107 0 0 1-2.11-2.11v-.801H1.875C.839 1.505 0 2.344 0 3.38v18.745C0 23.161.84 24 1.875 24h14.977c1.035 0 1.875-.84 1.875-1.875V3.38c0-1.036-.84-1.875-1.875-1.875zm-4.688 18.778c0 .389-.314.703-.703.703H6.516a.702.702 0 0 1-.704-.703v-4.946c0-.389.315-.703.704-.703h4.945c.389 0 .703.314.703.704v4.945zm.549-13.219l-.549.549v4.228c0 .389-.314.703-.703.703H6.516a.702.702 0 0 1-.704-.703V6.89c0-.39.315-.703.704-.703h4.945a.99.99 0 0 1 .122.009l.131-.131a.699.699 0 0 1 .994 0 .713.713 0 0 1 .005.998z"/><path d="M9.202 10.28a.707.707 0 0 1-.497-.207L7.95 9.32a.699.699 0 0 1 0-.994.699.699 0 0 1 .994 0l.258.258.989-.99H7.219v3.54h3.539V9.014l-1.06 1.06a.687.687 0 0 1-.496.206zM7.219 16.04h3.539v3.54h-3.54v-3.54zM6.727 3.014H12c.39 0 .703-.314.703-.703V.703A.702.702 0 0 0 12 0H6.727a.702.702 0 0 0-.704.703v1.608c0 .389.315.703.704.703z"/></symbol><symbol viewBox="0 0 14 14" fill="none" id="search" xmlns="http://www.w3.org/2000/svg"><path d="M5.829 10.658a4.829 4.829 0 1 0 0-9.658 4.829 4.829 0 0 0 0 9.658zM9.342 9.342L13 13"/></symbol><symbol viewBox="0 0 24 24" id="sports" xmlns="http://www.w3.org/2000/svg"><path d="M6.207 5.78a8.481 8.481 0 0 1 5.494-2.28V0a11.938 11.938 0 0 0-7.974 3.3l2.48 2.48zM5.78 6.207L3.3 3.727a11.936 11.936 0 0 0-3.3 7.97h3.5a8.443 8.443 0 0 1 2.28-5.49zM3.5 12.299H0a11.916 11.916 0 0 0 3.3 7.97l2.475-2.476A8.476 8.476 0 0 1 3.5 12.299zM20.269 3.3a11.916 11.916 0 0 0-7.97-3.3v3.5a8.466 8.466 0 0 1 5.494 2.28l2.476-2.48zM18.22 6.207a8.481 8.481 0 0 1 2.28 5.494H24a11.916 11.916 0 0 0-3.3-7.97l-2.48 2.476zM3.727 20.695a11.892 11.892 0 0 0 7.97 3.3v-3.5a8.466 8.466 0 0 1-5.495-2.28l-2.475 2.48zM12.299 20.495v3.5a11.916 11.916 0 0 0 7.97-3.3l-2.476-2.475a8.476 8.476 0 0 1-5.494 2.275zM18.22 17.793l2.476 2.476a11.892 11.892 0 0 0 3.299-7.97h-3.5a8.476 8.476 0 0 1-2.275 5.494zM11.997 5.017a6.978 6.978 0 0 0-6.98 6.98 6.978 6.978 0 0 0 6.98 6.981 6.979 6.979 0 0 0 6.98-6.98 6.988 6.988 0 0 0-6.98-6.981zm.251 2.014l2.426-.97c.276.126.542.267.798.432l.005.005c.252.161.492.337.718.528l.02.015c.101.085.201.176.297.271l.035.035c.1.1.2.201.291.306.01.01.015.02.025.026.086.095.161.19.242.286l.055.07c.085.11.166.221.24.332l-.481 2.053-2.38.794-2.296-1.833.005-2.35zM6.835 8.035l.055-.07c.075-.096.155-.191.236-.286.01-.01.015-.02.025-.03.095-.106.19-.206.291-.307l.035-.035c.096-.09.196-.18.297-.266l.025-.02c.226-.191.462-.367.713-.523l.01-.005c.256-.16.517-.306.793-.427l2.436.965v2.35l-2.295 1.833-2.38-.793-.482-2.054c.075-.116.155-.226.24-.332zm-.282 7.533a5.441 5.441 0 0 1-.196-.316l-.015-.025a6.75 6.75 0 0 1-.175-.327v-.005a6.504 6.504 0 0 1-.422-1.08l-.015-.045c-.03-.11-.06-.226-.086-.341 0-.01-.005-.02-.005-.035a5.979 5.979 0 0 1-.12-.789l1.421-1.702 2.365.788.688 2.742-1.125 1.502-2.315-.367zm6.996 2.757c-.116.03-.236.055-.357.076-.015.005-.035.005-.05.01-.1.02-.206.035-.306.045-.025.005-.055.005-.08.01-.096.01-.191.02-.292.025-.03 0-.06.005-.09.005-.126.01-.246.01-.372.01-.115 0-.23-.005-.341-.01-.015 0-.025 0-.04-.005-.1-.005-.201-.015-.302-.025h-.01a7.458 7.458 0 0 1-.658-.106l-1.376-2.154 1.11-1.482h3.244l1.13 1.492-1.21 2.11zm4.811-4.931c0 .01-.005.02-.005.035a6.923 6.923 0 0 1-.085.341l-.01.045c-.036.12-.07.242-.116.357-.085.246-.19.487-.306.723v.005c-.056.11-.116.221-.176.327l-.015.025c-.06.11-.126.216-.196.316l-2.295.362-1.135-1.497.688-2.742 2.365-.788 1.422 1.702a8.377 8.377 0 0 1-.136.789z"/></symbol><symbol viewBox="0 0 15 15" id="tel" xmlns="http://www.w3.org/2000/svg"><path d="M11.322 9.165a1.6 1.6 0 0 0-1.172.308c-.337.2-.98.717-1.346.584a8.352 8.352 0 0 1-4.42-4.312c-.134-.375.384-1.02.578-1.362.25-.34.359-.761.305-1.179A9.587 9.587 0 0 0 3.637.931 1.34 1.34 0 0 0 2.819.5C1.768.457.595 1.859.389 2.194a2.727 2.727 0 0 0 .009 2.821c1.26 3.1 6.01 7.778 9.12 9.081a3.751 3.751 0 0 0 1.572.4c.439.007.869-.128 1.226-.384.267-.153 1.726-1.385 1.688-2.464a1.359 1.359 0 0 0-.426-.816 9.664 9.664 0 0 0-2.257-1.67"/></symbol></svg>