<?xml version="1.0" encoding="utf-8"?><svg xmlns="http://www.w3.org/2000/svg" xmlns:xlink="http://www.w3.org/1999/xlink"><symbol viewBox="0 0 80 80" fill="none" id="addv" xmlns="http://www.w3.org/2000/svg"><path d="M40 80c22.091 0 40-17.909 40-40S62.091 0 40 0 0 17.909 0 40s17.909 40 40 40z" fill="#fff"/><path d="M31.734 46.267h-12.8c-1.733 0-3.067-1.334-3.067-3.067V27.6c0-1.734 1.334-3.067 3.067-3.067H61.2c1.734 0 3.067 1.333 3.067 3.067v15.6c0 1.733-1.333 3.066-3.066 3.066H31.733z" stroke="#ED2939" stroke-width="2" stroke-linejoin="round"/><path d="M28.933 58h-4.8c-.8 0-1.6-.533-1.6-1.334v-2.133" stroke="#ED2939" stroke-width="2" stroke-linecap="round" stroke-linejoin="round"/><path d="M61.867 46.267v13.466c0 1.734-1.334 3.067-3.067 3.067H21.067c-1.6 0-3.067-1.333-3.067-3.067V46.267M30.4 22.8v-2.267c0-1.733 1.467-3.2 3.2-3.2h12.934c1.733 0 3.2 1.467 3.2 3.2V22.8M35.467 41.467h9.066" stroke="#ED2939" stroke-width="2" stroke-linecap="round" stroke-linejoin="round"/></symbol><symbol viewBox="0 0 19 20" fill="none" id="arrow" xmlns="http://www.w3.org/2000/svg"><path d="M10.7 9.704h-8l-1.8-7.6c-.2-.6.2-1.3.9-1.4.3-.1.6 0 .8.1l14.3 7.8c.6.3.8 1 .5 1.6-.1.2-.3.4-.5.5l-14.3 7.8c-.6.3-1.3.1-1.6-.5-.1-.3-.2-.6-.1-.8l1.9-7.5" stroke="#fff" stroke-width="1.5" stroke-miterlimit="10" stroke-linecap="round" stroke-linejoin="round"/></symbol><symbol viewBox="0 0 20 22" fill="none" id="calendar" xmlns="http://www.w3.org/2000/svg"><path d="M18.7 8.9H.8c-.4 0-.8-.3-.8-.8s.3-.8.8-.8h17.8c.4 0 .8.3.8.8s-.3.8-.7.8zM14.2 12.8c-.4 0-.8-.3-.8-.8s.3-.8.7-.8c.4 0 .8.3.8.8s-.3.8-.7.8z" fill="#0A4586"/><path d="M9.8 12.8c-.4 0-.8-.3-.8-.8s.3-.8.7-.8c.4 0 .8.3.8.8s-.3.8-.7.8z" fill="#F33"/><path d="M5.3 12.8c-.4 0-.8-.3-.8-.8s.3-.8.7-.8c.4 0 .8.3.8.8s-.3.8-.7.8zM14.2 16.7c-.4 0-.8-.3-.8-.8s.3-.8.7-.8c.4 0 .8.3.8.8s-.3.8-.7.8zM9.8 16.7c-.4 0-.8-.3-.8-.8s.3-.8.7-.8c.4 0 .8.3.8.8s-.3.8-.7.8zM5.3 16.7c-.4 0-.8-.3-.8-.8s.3-.8.7-.8c.4 0 .8.3.8.8s-.3.8-.7.8zM13.8 4.8c-.4 0-.8-.3-.8-.8V.8c0-.5.4-.8.8-.8s.8.3.8.8V4c-.1.5-.4.8-.8.8zM5.7 4.8c-.4 0-.7-.3-.7-.8V.8c0-.5.3-.8.7-.8.4 0 .8.3.8.8V4c0 .5-.4.8-.8.8z" fill="#0A4586"/><path d="M14 21.5H5.5C2.1 21.5 0 19.4 0 16V7c0-3.3 2.1-5.4 5.5-5.4H14c1.7 0 3.1.5 4.1 1.5.9.9 1.4 2.3 1.4 3.9v9.1c0 3.3-2.1 5.4-5.5 5.4zM5.5 3.1c-2.6 0-4 1.4-4 3.9v9c0 2.6 1.4 4 4 4H14c2.6 0 4-1.4 4-3.9V7c0-1.2-.3-2.2-1-2.9-.7-.7-1.7-1-3-1H5.5z" fill="#0A4586"/></symbol><symbol viewBox="0 0 80 80" fill="none" id="careers" xmlns="http://www.w3.org/2000/svg"><path d="M40 80c22.091 0 40-17.909 40-40S62.091 0 40 0 0 17.909 0 40s17.909 40 40 40z" fill="#fff"/><path d="M40 38.667c4.639 0 8.4-4.776 8.4-10.667S44.639 17.333 40 17.333c-4.64 0-8.4 4.776-8.4 10.667s3.76 10.667 8.4 10.667zM43.733 48.533l-3.734-3.2-3.733 3.067-3.333-5.333c-.267-.4 0-.8.533-.8h13.2c.4 0 .667.533.533.8l-3.466 5.466zM35.2 36.666c0 1.734-1.2 5.6-1.2 5.6M44.799 36.666c0 1.734 1.2 5.6 1.2 5.6" stroke="#ED2939" stroke-width="2" stroke-linecap="round" stroke-linejoin="round"/><path d="M53.866 46.933c-3.733-1.733-7.6-2.533-7.6-2.533l-2.533 4.133-3.734-3.2-3.733 3.067-2.533-4.133s-15.067 3.2-15.067 10.4V60.8c0 .933.8 1.733 1.733 1.733h39.2c.934 0 1.734-.8 1.734-1.733v-1.6" stroke="#ED2939" stroke-width="2" stroke-linecap="round" stroke-linejoin="round"/><path d="M60.932 50.4L55.2 56.133 51.466 52.4l-5.2 5.2" stroke="#ED2939" stroke-width="2" stroke-linecap="round" stroke-linejoin="round"/><path d="M60.8 54.267v-3.734h-3.734" stroke="#ED2939" stroke-width="2" stroke-linecap="round" stroke-linejoin="round"/></symbol><symbol viewBox="0 0 20 20" fill="none" id="check" xmlns="http://www.w3.org/2000/svg"><path d="M19.935 17.786a2.149 2.149 0 0 1-2.148 2.149H2.148A2.149 2.149 0 0 1 0 17.785V2.149A2.15 2.15 0 0 1 2.148 0h15.639a2.15 2.15 0 0 1 2.148 2.148v15.638z" fill="#3BA8FF"/><path d="M15.421 5.313a1.307 1.307 0 0 0-1.841.144l-5.626 6.58L4.928 9.51a1.192 1.192 0 1 0-1.529 1.83l4.055 3.385a1.186 1.186 0 0 0 .908.266 1.306 1.306 0 0 0 .892-.454l6.31-7.382a1.308 1.308 0 0 0-.144-1.842" fill="#EFF5FC"/></symbol><symbol viewBox="0 0 22 22" fill="none" id="close" xmlns="http://www.w3.org/2000/svg"><path d="M20.842 22c-.347 0-.579-.116-.81-.347l-5.79-5.79a1.12 1.12 0 0 1 0-1.62 1.12 1.12 0 0 1 1.621 0l5.79 5.789a1.12 1.12 0 0 1 0 1.62c-.232.232-.463.348-.81.348z" fill="#F33"/><path d="M10.421 11.579c-.347 0-.579-.116-.81-.347L.347 1.968a1.12 1.12 0 0 1 0-1.62 1.12 1.12 0 0 1 1.621 0l9.264 9.263a1.12 1.12 0 0 1 0 1.62c-.232.232-.464.348-.81.348z" fill="#26314D"/><path d="M1.158 22c-.347 0-.58-.116-.81-.347a1.12 1.12 0 0 1 0-1.621L20.031.347a1.12 1.12 0 0 1 1.62 0 1.12 1.12 0 0 1 0 1.621L1.969 21.653c-.231.231-.463.347-.81.347z" fill="#26314D"/></symbol><symbol viewBox="0 0 26 22" id="contacts" xmlns="http://www.w3.org/2000/svg"><path d="M12.993 13.078c-.91 0-1.689-.244-2.469-.733L5.197 8.433c-.52-.366-.65-1.1-.13-1.588.39-.49 1.17-.612 1.69-.123l5.327 3.911c.52.367 1.299.367 1.819 0l5.197-3.91c.52-.367 1.3-.367 1.689.122.39.488.39 1.222-.13 1.588l-5.197 3.912c-.78.489-1.56.733-2.469.733z"/><path d="M7.146 21.878c-1.949 0-3.638-.611-4.937-1.834C.779 18.7 0 16.744 0 14.667V7.21C0 3.056 3.118 0 7.146 0H18.71c1.949 0 3.898.856 5.327 2.2 1.3 1.344 2.079 3.178 1.949 5.133v7.456c.13 1.833-.65 3.667-1.949 5.011-1.3 1.345-3.248 2.2-5.327 2.2H7.146v-.122zM18.71 2.2H7.146C4.418 2.2 2.34 4.278 2.34 7.089v7.455c0 1.467.52 2.811 1.559 3.667.91.856 1.949 1.222 3.248 1.222H18.71c1.3 0 2.598-.488 3.508-1.466.91-.978 1.43-2.2 1.3-3.423V6.967a4.114 4.114 0 0 0-1.3-3.423C21.308 2.69 20.009 2.2 18.71 2.2z"/></symbol><symbol viewBox="0 0 20 20" id="dots" xmlns="http://www.w3.org/2000/svg"><path d="M5.7 20.004c-1.5 0-3.001-.5-4.101-1.7s-1.6-2.7-1.6-4.3v-8.2c-.1-1.6.5-3.1 1.6-4.3 1.1-1.1 2.6-1.7 4.1-1.7h8.7c1.5 0 3 .5 4.1 1.7 1.1 1.2 1.6 2.7 1.6 4.3v8.2c.1 1.6-.5 3.1-1.6 4.3-1.1 1.1-2.6 1.7-4.1 1.7H5.7zm-4.2-14.1v8.2c-.1 1.2.399 2.3 1.099 3.2.8.8 1.9 1.2 3 1.2h8.7c2.5 0 4.2-1.7 4.2-4.4v-8.2c.1-1.2-.4-2.3-1.1-3.2-.8-.8-1.9-1.2-3-1.2H5.7c-2.6 0-4.2 1.7-4.2 4.4zm11.8 4.1c0-.7.5-1.2 1.2-1.2s1.2.5 1.2 1.2-.5 1.2-1.2 1.2-1.2-.5-1.2-1.2zm-4.5 0c0-.7.5-1.2 1.2-1.2s1.2.5 1.2 1.2-.5 1.2-1.2 1.2-1.2-.5-1.2-1.2zm-4.5 0c0-.7.5-1.2 1.2-1.2s1.2.5 1.2 1.2-.5 1.2-1.2 1.2-1.2-.5-1.2-1.2z"/></symbol><symbol viewBox="0 0 8 6" id="down" xmlns="http://www.w3.org/2000/svg"><path d="M4 5.449L.055 1.504.69.86 4 4.17 7.31.86l.635.644L4 5.449z"/></symbol><symbol viewBox="0 0 31 14" id="left" xmlns="http://www.w3.org/2000/svg"><path d="M31 7H1M7 13L1 7l6-6"/></symbol><symbol viewBox="0 0 16 20" id="man" xmlns="http://www.w3.org/2000/svg"><path d="M6.7 19.904h-.8c-.8-.1-1.6-.2-2.3-.3l-.3-.1c-1.2-.1-2.3-.8-3-1.9-.2-.4-.3-.8-.3-1.3 0-.4.1-.9.3-1.3.7-1.1 1.9-1.8 3.2-1.9.8-.2 1.6-.3 2.3-.3.7-.1 1.4-.1 2.2-.1.8 0 1.5 0 2.2.1h.5c.6.1 1.3.2 1.9.3 1.7.4 2.7 1 3.2 2 .4.8.4 1.7 0 2.5-.5 1-1.5 1.6-3.2 1.9l-.5.1c-.6.1-1.2.2-1.9.2-.7.1-1.4.1-2.2.1-.4.1-.9 0-1.3 0zm-.8-5.7c-.7.1-1.4.2-2.2.3-.9.1-1.7.5-2.2 1.2-.1.2-.1.4-.1.6 0 .2 0 .4.1.6.3.5 1 .9 2.2 1.2l.4.1c.6.1 1.2.2 1.9.2h2c.7 0 1.4 0 2-.1.7 0 1.5-.2 2.2-.3h.2c1.1-.2 1.7-.6 2-1.1.2-.4.2-.9 0-1.3-.2-.5-1-.9-2.2-1.2-.7-.1-1.4-.3-2.2-.3-.7-.1-1.4-.1-2-.1-.6 0-1.4.2-2.1.2zm-3.2-8.9c0-2.9 2.4-5.3 5.3-5.3s5.3 2.4 5.3 5.3-2.4 5.3-5.3 5.3-5.3-2.4-5.3-5.3zm1.4 0c0 2.1 1.7 3.9 3.9 3.9 2.1 0 3.9-1.7 3.9-3.9 0-2.1-1.7-3.9-3.9-3.9-2.1 0-3.9 1.7-3.9 3.9z"/></symbol><symbol viewBox="0 0 18 20" id="message" xmlns="http://www.w3.org/2000/svg"><path d="M5.1 20.004c-.4 0-.8 0-1.2-.1h-.2c-1.1-.2-2.1-.8-2.8-1.7-.7-1-1-2.2-1-3.4v-9.6c0-.3 0-.6.1-1 .3-2.7 2.2-4.2 5.1-4.2h7.7c3.2 0 5.1 1.9 5.1 5.1v9.7c0 3.3-1.9 5.2-5.1 5.2H5.1zm-3.7-14.8v9.6c0 2.5 1.2 3.8 3.7 3.8h7.7c2.5 0 3.7-1.3 3.7-3.8v-9.6c0-2.5-1.2-3.8-3.7-3.8H5.1c-2.4.1-3.7 1.3-3.7 3.8zm4 9.8c-.4 0-.7-.3-.7-.7 0-.4.3-.7.7-.7h7.2c.4 0 .7.3.7.7 0 .4-.3.7-.7.7H5.4zm7.2-4.3H5.4c-.4-.1-.7-.4-.6-.8 0-.3.3-.6.6-.6h7.2c.3 0 .5.1.7.3.1.2.1.5 0 .8-.2.2-.4.4-.7.3zm-7.2-4.2c-.4 0-.7-.4-.6-.8 0-.3.3-.6.6-.6h2.7c.4 0 .7.4.6.8 0 .3-.3.6-.6.6H5.4z"/></symbol><symbol viewBox="0 0 24 22" fill="none" id="mobile" xmlns="http://www.w3.org/2000/svg"><path d="M1.36 22h21.28c.741 0 1.36-.611 1.36-1.344 0-.734-.619-1.345-1.36-1.345H1.36c-.741 0-1.36.611-1.36 1.345C0 21.389.619 22 1.36 22z" fill="#E93F33"/><path d="M0 11c0 .733.619 1.344 1.36 1.344h21.28c.741 0 1.36-.61 1.36-1.344 0-.733-.619-1.344-1.36-1.344H1.36C.62 9.656 0 10.266 0 11zM22.64 0H1.36C.62 0 0 .611 0 1.344 0 2.078.619 2.69 1.36 2.69h21.28c.741 0 1.36-.611 1.36-1.345C24 .611 23.381 0 22.64 0z" fill="#151E34"/></symbol><symbol viewBox="0 0 9 15" id="right" xmlns="http://www.w3.org/2000/svg"><path d="M8.53 7.3l-7 7-1.14-1.14L6.25 7.3.39 1.43 1.53.3l7 7z"/></symbol><symbol viewBox="0 0 61 14" id="right2" xmlns="http://www.w3.org/2000/svg"><path d="M0 7h60M54 1l6 6-6 6"/></symbol><symbol viewBox="0 0 18 10" fill="none" id="see" xmlns="http://www.w3.org/2000/svg"><path d="M18 5a11.08 11.08 0 0 1-9 5c-7 0-9-5-9-5a10.6 10.6 0 0 1 18 0z" fill="#328FD9"/><path d="M9 9a4 4 0 1 0 0-8 4 4 0 0 0 0 8z" fill="#fff"/><path d="M9 7a2 2 0 1 0 0-4 2 2 0 0 0 0 4z" fill="#328FD9"/></symbol><symbol viewBox="0 0 80 80" fill="none" id="support" xmlns="http://www.w3.org/2000/svg"><path d="M40 80c22.091 0 40-17.909 40-40S62.091 0 40 0 0 17.909 0 40s17.909 40 40 40z" fill="#fff"/><path d="M57.867 41.2v-6.667c0-.4-.266-.666-.666-.666h-3.734c-.4 0-.666.266-.666.666v12.4c0 .4.266.667.666.667h3.734c.4 0 .666-.267.666-.667 0-.267.134-.533.4-.666 2.134-.8 3.734-2.934 3.734-5.467 0-2.667-1.733-4.8-4.133-5.6M22.133 41.2v-6.667c0-.4.267-.666.667-.666h3.733c.4 0 .667.266.667.666v12.4c0 .4-.267.667-.667.667H22.8c-.4 0-.667-.267-.667-.667a.733.733 0 0 0-.4-.666C19.6 45.467 18 43.333 18 40.8c0-2.667 1.733-4.8 4.133-5.6M24.666 32.533c0-8.4 6.8-15.2 15.2-15.2 8.4 0 15.2 6.8 15.2 15.2" stroke="#ED2939" stroke-width="2" stroke-linecap="round" stroke-linejoin="round"/><path d="M39.866 17.333c-4.266 0-8.133 1.734-10.8 4.534l1.867 1.866c.4.4 1.067.4 1.467.134 2-1.734 4.666-2.8 7.6-2.8 2.933 0 5.466 1.066 7.6 2.8.4.4 1.066.266 1.466-.134l1.867-1.866c-2.933-2.8-6.8-4.534-11.067-4.534zM39.867 62.666a2.533 2.533 0 1 0 0-5.066 2.533 2.533 0 0 0 0 5.066zM42.4 59.867c7.2-1.2 12.667-3.467 12.667-11.067" stroke="#ED2939" stroke-width="2" stroke-linecap="round" stroke-linejoin="round"/></symbol></svg>