<?xml version="1.0" encoding="utf-8"?><svg xmlns="http://www.w3.org/2000/svg" xmlns:xlink="http://www.w3.org/1999/xlink"><symbol viewBox="0 0 24 21" id="basket" xmlns="http://www.w3.org/2000/svg"><path fill-rule="evenodd" clip-rule="evenodd" d="M17.5 19a1.5 1.5 0 1 0 3.001-.001A1.5 1.5 0 0 0 17.5 19zM6.5 19a1.5 1.5 0 1 0 3.001-.001A1.5 1.5 0 0 0 6.5 19z"/><path d="M.5.5H4l4 17h11"/><path d="M7.53 15.5H20.5l3-9H5.412"/></symbol><symbol viewBox="0 0 16 16" id="close" xmlns="http://www.w3.org/2000/svg"><path d="M15.657.343a1.105 1.105 0 0 0-1.6 0L8 6.4 1.943.343a1.105 1.105 0 0 0-1.6 0 1.105 1.105 0 0 0 0 1.6L6.4 8 .343 14.057a1.105 1.105 0 0 0 0 1.6c.228.229.457.343.8.343s.571-.114.8-.343L8 9.6l6.057 6.057c.229.229.572.343.8.343.229 0 .572-.114.8-.343a1.105 1.105 0 0 0 0-1.6L9.6 8l6.057-6.057a1.105 1.105 0 0 0 0-1.6z"/></symbol><symbol viewBox="0 0 25 25" fill="none" id="contact" xmlns="http://www.w3.org/2000/svg"><g stroke="#000" stroke-width="1.5" stroke-linejoin="round"><path d="M12.5 14.5v-2.804M7.5 11.696V14.5l-5.009 1.789A3.001 3.001 0 0 0 .5 19.114V21.5h11" stroke-linecap="round"/><path clip-rule="evenodd" d="M15 6.5c0 3.313-2.239 6-5 6-2.762 0-5-2.687-5-6s2.238-6 5-6c2.761 0 5 2.687 5 6z"/><path d="M14.953 5.953c-.168.021-.284.014-.453.047-1.703.328-2.797-.289-3.734-1.93C10.203 5.148 8.444 6 7 6a4.02 4.02 0 0 1-1.936-.466"/><path clip-rule="evenodd" d="M23.512 22a1.5 1.5 0 0 1-1.5 1.5h-7a1.5 1.5 0 0 1-1.5-1.5v-4a1.5 1.5 0 0 1 1.5-1.5h7a1.5 1.5 0 0 1 1.5 1.5v4z" stroke-linecap="round"/><path d="M21.512 18.5l-3 2.5-3-2.5M15.512 21.5l1.638-1.638M21.512 21.5l-1.638-1.638" stroke-linecap="round"/></g></symbol><symbol viewBox="0 0 34 34" fill="none" id="download" xmlns="http://www.w3.org/2000/svg"><path clip-rule="evenodd" d="M33.292 24.792c0 4.696-3.804 8.5-8.5 8.5a8.498 8.498 0 0 1-8.5-8.5c0-4.695 3.803-8.5 8.5-8.5 4.696 0 8.5 3.805 8.5 8.5z" stroke="#000" stroke-linecap="round" stroke-linejoin="round"/><path d="M29.042 21.958l-5.667 5.667-2.833-2.833M15.584 33.292H.708V3.542h2.834M23.375 3.542h2.834v9.916" stroke="#000" stroke-linecap="round" stroke-linejoin="round"/><path clip-rule="evenodd" d="M16.292 3.542a2.833 2.833 0 1 0-5.667 0h-4.25v4.25h14.167v-4.25h-4.25z" stroke="#000" stroke-linecap="round" stroke-linejoin="round"/><path d="M23.375 13.458V6.375h-2.833M6.375 6.375H3.542v24.083h11.333M7.792 13.458h11.333M7.792 16.292H17M7.792 19.125h7.083M7.792 21.958h6.375" stroke="#000" stroke-linecap="round" stroke-linejoin="round"/></symbol><symbol viewBox="0 0 43 45" fill="none" id="facts" xmlns="http://www.w3.org/2000/svg"><path fill-rule="evenodd" clip-rule="evenodd" d="M21.5 8C14.056 8 8 14.04 8 21.464c0 5.867 3.803 11.018 9.346 12.804v1.696c0 .572.465 1.036 1.039 1.036h6.23c.572 0 1.039-.464 1.039-1.036v-1.696C31.195 32.48 35 27.33 35 21.464 35 14.04 28.944 8 21.5 8zM23 43h-2a1 1 0 0 0 0 2h2c.55 0 1-.448 1-1s-.45-1-1-1zM25 39h-6a1 1 0 0 0 0 2h6c.55 0 1-.448 1-1s-.45-1-1-1zM22 6c.55 0 1-.448 1-1V1a1 1 0 0 0-2 0v4a1 1 0 0 0 1 1zM42 20h-4a1 1 0 0 0 0 2h4c.55 0 1-.448 1-1s-.45-1-1-1zM5 20H1a1 1 0 0 0 0 2h4c.55 0 1-.448 1-1s-.45-1-1-1zM9.36 10.72a.966.966 0 0 0 1.359 0 .963.963 0 0 0 0-1.36L6.64 5.281a.96.96 0 0 0-1.36 0 .963.963 0 0 0 0 1.36L9.36 10.72zM32.961 11a.965.965 0 0 0 .68-.28l4.078-4.077a.963.963 0 0 0 0-1.36.958.958 0 0 0-1.359 0l-4.079 4.076a.963.963 0 0 0 0 1.36c.188.187.434.281.68.281z" fill="#70b62f"/></symbol><symbol viewBox="0 0 9 17" id="fb" xmlns="http://www.w3.org/2000/svg"><path d="M8.212.364L6.165.36c-2.3 0-3.785 1.562-3.785 3.98v1.834H.322a.326.326 0 0 0-.322.33v2.658c0 .182.144.33.322.33H2.38v6.707c0 .182.144.33.322.33h2.685a.326.326 0 0 0 .321-.33V9.492h2.407a.326.326 0 0 0 .321-.33l.001-2.658a.334.334 0 0 0-.094-.233.318.318 0 0 0-.228-.097H5.708V4.619c0-.748.174-1.127 1.125-1.127h1.379a.326.326 0 0 0 .321-.33V.693a.326.326 0 0 0-.321-.33z"/></symbol><symbol viewBox="-53 0 490 490.66667" id="hand" xmlns="http://www.w3.org/2000/svg"><path d="M352.332 170.668c-17.664 0-32 14.336-32 32v-21.336c0-17.664-14.336-32-32-32s-32 14.336-32 32V160c0-17.664-14.336-32-32-32s-32 14.336-32 32V32c0-17.664-14.336-32-32-32s-32 14.336-32 32v266.668l-79.293-48.64h-.066c-4.692-2.989-10.453-4.696-16.641-4.696-17.707 0-32 14.293-32 32 0 6.188 1.707 12.16 4.906 17.066l-.039-.082 98.047 156.352a85.339 85.339 0 0 0 72.297 40h102.125c58.898 0 106.664-47.766 106.664-106.668V202.668c0-17.664-14.336-32-32-32zm0 0" fill="#ffcc80"/><g fill="#ffa726"><path d="M331 178.988v55.68c-5.973 0-10.668-4.695-10.668-10.668v-21.332c0-9.387 4.055-17.922 10.668-23.68zm0 0M267 157.652v77.016c-5.973 0-10.668-4.695-10.668-10.668v-42.668c0-9.387 4.055-17.918 10.668-23.68zm0 0M203 136.32v98.348c-5.973 0-10.668-4.695-10.668-10.668v-64c0-9.387 4.055-17.922 10.668-23.68zm0 0"/></g></symbol><symbol viewBox="0 0 10 12" id="lock" xmlns="http://www.w3.org/2000/svg"><path fill-rule="evenodd" clip-rule="evenodd" d="M8 5h1a1 1 0 0 1 1 1v5a1 1 0 0 1-1 1H1a1 1 0 0 1-1-1V6a1 1 0 0 1 1-1h1V3a3 3 0 0 1 6 0v2zM4 3v2h2V3a1 1 0 0 0-2 0z"/></symbol><symbol viewBox="0 0 25 23" fill="none" id="mail" xmlns="http://www.w3.org/2000/svg"><path clip-rule="evenodd" d="M23.5.5L.5 10l9 3.5 14-13z" stroke="#000" stroke-width="1.5" stroke-linejoin="round"/><path clip-rule="evenodd" d="M23.5.5l-4 18.5-10-5.5 14-13z" stroke="#000" stroke-width="1.5" stroke-linejoin="round"/><path d="M9.5 13.5v8l3.5-6" stroke="#000" stroke-width="1.5" stroke-linejoin="round"/></symbol><symbol viewBox="0 0 12 2" id="minus" xmlns="http://www.w3.org/2000/svg"><path d="M11 2H1a1 1 0 0 1 0-2h10a1 1 0 1 1 0 2z"/></symbol><symbol viewBox="0 0 50 57" fill="none" id="pay1" xmlns="http://www.w3.org/2000/svg"><path clip-rule="evenodd" d="M1.321 8.821v18.51c0 11.977 7.369 22.717 18.535 27.017l2.528.972a7.28 7.28 0 0 0 5.232 0l2.528-.972c11.166-4.3 18.534-15.04 18.535-27.017V8.821A3.615 3.615 0 0 0 46.57 5.51 52.653 52.653 0 0 0 25 1.107 52.653 52.653 0 0 0 3.43 5.51 3.615 3.615 0 0 0 1.32 8.82z" stroke="#60ba4b" stroke-width="1.5" stroke-linecap="round" stroke-linejoin="round"/><rect x="14.071" y="22.987" width="21.857" height="18.233" rx="1.5" stroke="#60ba4b" stroke-width="1.5" stroke-linecap="round" stroke-linejoin="round"/><path clip-rule="evenodd" d="M25 12.047a7.29 7.29 0 0 0-7.286 7.293v3.647h14.572V19.34A7.29 7.29 0 0 0 25 12.047z" stroke="#60ba4b" stroke-width="1.5" stroke-linecap="round" stroke-linejoin="round"/><path d="M25 31.262A.911.911 0 1 1 25 33.085.911.911 0 0 1 25 31.262" stroke="#60ba4b" stroke-width="1.5" stroke-linecap="round" stroke-linejoin="round"/></symbol><symbol viewBox="0 0 54 48" fill="none" id="pay2" xmlns="http://www.w3.org/2000/svg"><path fill-rule="evenodd" clip-rule="evenodd" d="M35.331 13.479c-.24 1.276-1.598 2.153-2.878 1.834a2.353 2.353 0 0 1-1.837-2.871c.239-1.276 1.518-2.153 2.877-1.835a2.493 2.493 0 0 1 1.838 2.872zm-1.518-4.387c-2.238-.478-4.318.957-4.717 3.11-.48 2.154.88 4.307 3.118 4.706 2.238.478 4.317-.957 4.716-3.11.4-2.154-.958-4.307-3.117-4.706z" fill="#60ba4b"/><mask id="la" maskUnits="userSpaceOnUse" x="13" y="33" width="41" height="15"><path fill-rule="evenodd" clip-rule="evenodd" d="M13.572 33.686h39.755V48H13.572V33.686z" fill="#fff"/></mask><g mask="url(#la)"><path fill-rule="evenodd" clip-rule="evenodd" d="M49.256 46.12c-4.34-2.211-12.38-2.054-16.64-1.421-1.126.236-2.734.315-3.699-.395-1.125-.948-9.165-5.053-12.702-6.79-.723-.316-1.446-.868-1.044-1.5.402-.552.964-.71 1.527-.473l9.888 3.237c.242 1.105 1.367 2.13 3.135 2.289 1.126.079 2.251.079 3.377-.079.401-.08.803-.395.724-.87-.081-.394-.402-.789-.885-.709-1.206.079-2.412.079-3.135.079-2.17-.079-2.252-2.21-.08-2.21 5.787-.237 11.093-1.658 11.415-1.737 1.528-.554 3.136-.08 4.421.868 1.689 1.263 3.618 2.369 5.79 3.315l-2.092 6.396zm-8.521-12.158c-.08 0-5.386 1.5-10.933 1.658-.804 0-2.332.315-2.895 1.5l-9.486-3.08c-2.733-1.184-6.11 2.764-1.768 4.816 1.286.632 11.254 5.685 12.38 6.632.884.71 2.814 1.184 4.985.71 4.422-.631 12.46-.789 16.32 1.658a.79.79 0 0 0 1.206-.394l2.732-7.974c.16-.395-.08-.79-.402-.948a34.062 34.062 0 0 1-6.11-3.473c-2.09-1.421-4.26-1.659-6.03-1.105z" fill="#60ba4b"/></g><path fill-rule="evenodd" clip-rule="evenodd" d="M1.627 12.704c5.207-.317 6.915-2.455 9.193-3.405 1.302-.713 3.498-1.426 4.8-.871 0 .079-1.22 5.543-1.14 5.147-.731-.079-1.057-.475-1.057-.475-.244-.317-.732-.475-1.139-.237-.407.237-.488.712-.244 1.108 1.302 1.98 5.126.871 7.566 1.188.814 0 1.546.634 1.546 1.505 0 .871-.651 1.505-1.546 1.505h-6.752c-.326 0-.57.079-.814.158-.325.158-.895.475-1.301 1.109-.977 1.584-3.743 2.534-5.695 2.534-1.22 0-2.44-.317-3.498-1.03v-8.236h.081zm21.152 3.802c-.081-1.505-1.22-2.693-2.766-2.851l1.22-5.544a3.51 3.51 0 0 0 3.173-1.98l18.955 3.88c0 .634.244 1.268.57 1.822.406.554.895.95 1.464 1.267l-1.139 5.148c-1.302 0-2.603.792-3.173 1.98L22.78 16.505zm-3.986-14.81L50.276 8.19l-3.58 16.552c-1.708-.317-27.334-5.623-25.707-5.306a3.41 3.41 0 0 0 1.464-1.347L41.49 21.97c.407.08.895-.158.976-.633.244-1.03 1.22-1.664 2.278-1.426.407.08.895-.159.976-.634l1.383-6.573c.082-.396-.162-.871-.65-.95-.489-.08-.977-.396-1.22-.792-.245-.396-.407-.95-.245-1.426.082-.237 0-.396-.081-.633-.081-.159-.325-.317-.488-.317l-20.42-4.118c-.407-.08-.895.158-.976.633-.244 1.03-1.302 1.663-2.278 1.426-.244-.08-.407 0-.65.079-.163.08-.326.317-.326.475l-1.383 6.494h-2.197c3.58-16.235 2.36-10.612 2.604-11.88zm7.647 22.096c.081.554-.326 1.03-.895 1.108-.57.08-1.058-.316-1.14-.87l-.243-2.298h.081l1.953.396.244 1.663zm-8.054 2.296c-.326.396-.976.475-1.383.159-.407-.317-.488-.95-.163-1.347l3.336-3.96 2.196.476-3.986 4.672zm-3.661-4.276l1.464-1.743 2.197.476-2.115 2.534c-.326.396-.977.475-1.383.158-.407-.396-.489-.95-.163-1.425zm-14.4.237c1.465 1.03 3.092 1.505 4.8 1.505 2.44 0 5.776-1.188 7.078-3.326.163-.317.407-.476.488-.476H14.4l-.894 1.11c-.895 1.108-.733 2.692.325 3.563.325.317.813.475 1.22.555-.162.87.082 1.821.895 2.454 1.14.872 2.766.713 3.661-.316l3.091-3.643.082.792c.163 1.425 1.546 2.376 2.929 2.217 1.464-.158 2.44-1.425 2.277-2.85l-.08-1.11 19.198 3.96c.407.08.895-.158.977-.633l3.905-18.057c.08-.396-.163-.871-.651-.95L18.304.033c-.244-.08-.406 0-.65.079-.163.08-.326.317-.326.475l-1.383 6.257c-1.87-.555-4.23.158-5.939 1.03-1.79.633-4.067 3.246-9.192 3.246a.748.748 0 0 0-.57.238.71.71 0 0 0-.244.554v9.425c0 .316.163.554.325.712z" fill="#60ba4b"/></symbol><symbol viewBox="0 0 488.8 488.8" id="paypal" xmlns="http://www.w3.org/2000/svg"><path d="M381.6 200.4c-12 0-21.6 3.2-29.6 4.8l-2.4 18.4c4-1.6 15.2-4.8 24.8-5.6 9.6 0 15.2 1.6 13.6 10.4-28.8 0-48 5.6-52 24.8-5.6 32 29.6 32.8 43.2 18.4l-1.6 8.8h25.6l11.2-52c4-21.6-15.2-28.8-32.8-28zm1.6 53.6c-1.6 6.4-7.2 8.8-13.6 9.6-5.6 0-10.4-3.2-7.2-9.6 3.2-4.8 10.4-4.8 16-4.8h6.4c-.8-.8-1.6 2.4-1.6 4.8z" fill="#32a6ce"/><path d="M349.6 223.6c4-1.6 15.2-4.8 24.8-5.6 9.6 0 15.2 1.6 13.6 10.4-28.8 0-48 5.6-52 24.8-5.6 32 29.6 32.8 43.2 18.4l-1.6 8.8h25.6l11.2-52c4.8-21.6-15.2-27.2-32.8-27.2m1.6 52.8c-1.6 6.4-7.2 8.8-13.6 9.6-5.6 0-10.4-3.2-7.2-9.6 3.2-4.8 10.4-4.8 16-4.8h6.4c-.8-.8-1.6 2.4-1.6 4.8z" fill="#1a80ad"/><path fill="#32a6ce" d="M436 176.4l-20.8 104h25.6l21.6-104z"/><path fill="#1a80ad" d="M454.4 176.4l-39.2 104h25.6l21.6-104H436z"/><path d="M316.8 176.4h-47.2l-20.8 104h28l7.2-32h20c19.2 0 35.2-11.2 39.2-31.2 4-23.2-12.8-40.8-26.4-40.8zm-.8 36c-1.6 7.2-8.8 12-16 12h-12.8l5.6-24h13.6c7.2 0 11.2 4.8 9.6 12z" fill="#32a6ce"/><path d="M316.8 176.4h-32l-36.8 104h28l7.2-32h20c19.2 0 35.2-11.2 39.2-31.2 4.8-23.2-12-40.8-25.6-40.8zm-.8 36c-1.6 7.2-8.8 12-16 12h-12.8l5.6-24h13.6c7.2 0 11.2 4.8 9.6 12z" fill="#1a80ad"/><path d="M132 200.4c-12 0-21.6 3.2-28.8 4.8l-2.4 18.4c3.2-1.6 15.2-4.8 24.8-5.6 9.6 0 15.2 1.6 13.6 10.4-28 0-47.2 5.6-51.2 24.8-5.6 32 28.8 32.8 42.4 18.4l-1.6 8.8h25.6l11.2-52c4-21.6-16-28.8-33.6-28zm2.4 53.6c-1.6 6.4-7.2 8.8-13.6 9.6-5.6 0-10.4-3.2-6.4-9.6 3.2-4.8 10.4-4.8 15.2-4.8h6.4c-.8-.8-1.6 2.4-1.6 4.8z" fill="#21789e"/><path d="M101.6 223.6c3.2-1.6 15.2-4.8 24.8-5.6 9.6 0 15.2 1.6 13.6 10.4-28 0-47.2 5.6-51.2 24.8-5.6 32 28.8 32.8 42.4 18.4l-2.4 8.8h25.6l11.2-52c4.8-21.6-15.2-27.2-32.8-27.2m1.6 52.8c-1.6 6.4-7.2 8.8-13.6 9.6-5.6 0-10.4-3.2-6.4-9.6 3.2-4.8 10.4-4.8 15.2-4.8h6.4c-.8-.8-1.6 2.4-1.6 4.8z" fill="#1a5b80"/><path fill="#21789e" d="M176 200.4h25.6l4 44.8 25.6-44.8h26.4l-60.8 112H168l18.4-33.6z"/><path fill="#1a5b80" d="M201.6 202l4 44 25.6-45.6h26.4l-60.8 112H168l18.4-32.8"/><path d="M68.8 176.4h-48L0 280.4h28l7.2-32h20c19.2 0 35.2-11.2 39.2-31.2 4.8-23.2-12-40.8-25.6-40.8zm-.8 36c-1.6 7.2-8.8 12-16 12H39.2l5.6-24h13.6c7.2 0 11.2 4.8 9.6 12z" fill="#21789e"/><path d="M68.8 176.4H47.2L0 280.4h28l7.2-32h20c19.2 0 35.2-11.2 39.2-31.2 4.8-23.2-12-40.8-25.6-40.8zm-.8 36c-1.6 7.2-8.8 12-16 12H39.2l5.6-24h13.6c7.2 0 11.2 4.8 9.6 12z" fill="#1a5b80"/><path d="M127.2 228.4c-21.6 1.6-36 8-39.2 24-5.6 32 28.8 32.8 42.4 18.4l-1.6 9.6h25.6l4-19.2-31.2-32.8zm7.2 25.6c-1.6 6.4-7.2 8.8-13.6 9.6-5.6 0-10.4-3.2-6.4-9.6 3.2-4.8 10.4-4.8 15.2-4.8h6.4c-.8-.8-1.6 2.4-1.6 4.8zM207.2 244.4l-1.6 2.4 16.8 16 35.2-62.4h-26.4zM28 280.4l7.2-32-32.8 32z" fill="#06435e"/><path fill="#2273aa" d="M276 280.4l7.2-33.6v.8l-32.8 32.8zM376 228.4c-21.6 1.6-36 8-39.2 24-5.6 32 29.6 32.8 43.2 18.4l-2.4 9.6h25.6l4-19.2-31.2-32.8zm7.2 25.6c-1.6 6.4-7.2 8.8-13.6 9.6-5.6 0-10.4-3.2-7.2-9.6 3.2-4.8 10.4-4.8 16-4.8h6.4c-.8-.8-1.6 2.4-1.6 4.8zM433.6 233.2l-18.4 47.2h25.6l7.2-32z"/><path d="M468 193.2V182h-4v-1.6h10.4v1.6h-4v11.2H468zM476 193.2v-12.8h2.4l3.2 8.8c0 .8.8 1.6.8 1.6 0-.8 0-.8.8-2.4l3.2-8.8h2.4v12.8h-1.6v-11.2l-4 11.2h-2.4l-4-11.2v11.2h-.8v.8z" fill="#32a6ce"/></symbol><symbol viewBox="0 0 12 12" id="plus" xmlns="http://www.w3.org/2000/svg"><path d="M11 5H7V1a1 1 0 0 0-2 0v4H1a1 1 0 0 0 0 2h4v4a1 1 0 1 0 2 0V7h4a1 1 0 1 0 0-2z"/></symbol><symbol viewBox="0 0 44 44" fill="none" id="plus2" xmlns="http://www.w3.org/2000/svg"><circle cx="22" cy="22" r="22" fill="#ECF5EA"/><path fill="#D8D8D8" d="M21 15h2v16h-2z"/><path fill="#D8D8D8" d="M30 22v2H14v-2z"/></symbol><symbol viewBox="0 0 11 18" id="right" xmlns="http://www.w3.org/2000/svg"><path d="M1.334 1.333L10 9l-8.666 7.667"/></symbol><symbol viewBox="0 0 22 22" id="search" xmlns="http://www.w3.org/2000/svg"><path fill-rule="evenodd" clip-rule="evenodd" d="M14.75 8.083a6.667 6.667 0 1 1-13.334 0 6.667 6.667 0 0 1 13.334 0z"/><path d="M12.797 12.797l7.787 7.787"/></symbol><symbol viewBox="0 0 27 26" fill="none" id="tel" xmlns="http://www.w3.org/2000/svg"><path clip-rule="evenodd" d="M11.079 9.78c.687-.686.743-1.744.124-2.363L9.524 5.74c-.617-.619-1.676-.564-2.361.124L6.139 6.886c-.887.887-1.086 2.209-.481 3.17a33.176 33.176 0 0 0 10.287 10.286c.958.606 2.284.405 3.169-.48l1.023-1.024c.686-.687.743-1.745.123-2.362l-1.677-1.678c-.62-.618-1.676-.564-2.363.123l-.621.62a33.773 33.773 0 0 1-5.141-5.14l.62-.62z" stroke="#000" stroke-width="1.5" stroke-linecap="round" stroke-linejoin="round"/><path d="M19.5 19.5c.542.542 1.691 5.958-6.5 5.958C6.12 25.458.542 19.881.542 13 .542 6.12 6.119.542 13 .542S25.458 6.12 25.458 13c0 2.613-.803 5.039-2.18 7.042" stroke="#000" stroke-width="1.5" stroke-linecap="round" stroke-linejoin="round"/></symbol><symbol viewBox="0 0 20 21" id="user" xmlns="http://www.w3.org/2000/svg"><path d="M7.5 11.196V14l-5.009 1.789A3.001 3.001 0 0 0 .5 18.614V20.5h19v-1.886a3.001 3.001 0 0 0-1.991-2.825l-5.009-1.79v-2.803"/><path fill-rule="evenodd" clip-rule="evenodd" d="M15 6c0 3.313-2.239 6-5 6-2.762 0-5-2.687-5-6s2.238-6 5-6c2.761 0 5 2.687 5 6z"/><path d="M14.953 5.453c-.168.021-.284.014-.453.047-1.703.328-2.797-.289-3.735-1.93C10.203 4.648 8.445 5.5 7 5.5a4.02 4.02 0 0 1-1.936-.466"/></symbol></svg>