<?xml version="1.0" encoding="utf-8"?><svg xmlns="http://www.w3.org/2000/svg" xmlns:xlink="http://www.w3.org/1999/xlink"><symbol viewBox="0 0 19 22" id="basket" xmlns="http://www.w3.org/2000/svg"><path fill-rule="evenodd" clip-rule="evenodd" d="M6 4c0-.27.118-.762.521-1.182C6.901 2.423 7.621 2 9 2s2.1.423 2.479.818c.403.42.521.913.521 1.182H6zM4 6v2h2V6h6v2h2V6h1.571l.929 12.533c-.006.294-.084.714-.267 1.03-.16.279-.362.437-.733.437H3c-.37 0-.573-.158-.733-.437-.183-.316-.261-.736-.267-1.03L2.93 6H4zm0-2c0-.73.282-1.738 1.079-2.568C5.899.577 7.179 0 9 0c1.822 0 3.1.577 3.921 1.432C13.718 2.262 14 3.27 14 4H17.429l.068.926 1 13.5.003.037v.037c0 .538-.123 1.348-.534 2.062C17.527 21.325 16.73 22 15.5 22H3c-1.23 0-2.027-.675-2.467-1.438C.123 19.848 0 19.038 0 18.5v-.037l.003-.037 1-13.5L1.07 4H4z"/></symbol><symbol preserveAspectRatio="xMidYMid" viewBox="0 0 11.97 12" id="close" xmlns="http://www.w3.org/2000/svg"><path d="M7.028 5.996l4.717-4.722A.75.75 0 1 0 10.684.213L5.967 4.935 1.249.213A.75.75 0 1 0 .188 1.274l4.718 4.722-4.718 4.722a.753.753 0 0 0 .531 1.283.752.752 0 0 0 .53-.22l4.718-4.723 4.717 4.723a.752.752 0 1 0 1.061-1.063L7.028 5.996z"/></symbol><symbol viewBox="0 0 387 158" fill="none" id="decor1" xmlns="http://www.w3.org/2000/svg"><path d="M306.319 155.996c56.614-71.432 1.41-72.093-21.236-58.418-22.645 13.676 59.14-70.096 10.251-90.94-39.872-16.994-76.675 84.727-87.998 76.03-11.323-8.695-15.714-53.452-48.272-41.025-32.574 12.426-58.054 98.195-60.888 119.333 67.114 10.208 185.483 23.605 208.143-4.98z" fill="#F7EDFF"/><path d="M255.116 170.24c-15.244-48.209 32.397-100.487 32.397-100.487s10.794 65.968-5.081 92.878c-15.891 26.896-16.522 21.314-16.522 21.314l-10.794-13.705zM157.897 175.749c-25.621-43.589 9.146-105.183 9.146-105.183s25.249 61.893 15.782 91.668c-9.485 29.764-11.346 24.464-11.346 24.464l-13.582-10.949z" fill="#fff"/><path d="M102.228 90.366c4.333.793 8.283 3.158 11.925 6.522 1.851 1.675 3.613 3.614 5.302 5.729 1.703 2.115 3.245 4.436 4.875 6.845l-.205-1.146c-.147-.72-.309-1.763-.499-3.026-.382-2.512-.896-5.846-1.41-9.18-.47-3.35-.881-6.698-1.205-9.21-.161-1.264-.293-2.306-.396-3.041-.088-.734-.132-1.16-.132-1.16-.588.088-4.979-1.117-9.032-5.582-3.569-3.863-6.109-9.372-7.475-12.589-.544-1.278-.294-2.511.455-2.306 3.348.926 6.286 3.07 8.856 6.023 1.292 1.483 2.467 3.158 3.598 4.994a59.482 59.482 0 0 1 3.216 5.92s-.176-1.602-.426-4.01c-.279-2.41-.558-5.612-.837-8.829-.147-1.6-.294-3.216-.426-4.715a806.89 806.89 0 0 1-.308-4.127l-.294-4.025c-.191.206-.47.279-.778.103-2.703-1.543-4.92-3.746-6.638-6.64-1.748-2.893-2.938-6.507-3.598-10.84-.147-1.014.411-1.704 1.057-1.307 5.155 3.202 8.107 8.328 9.707 15.13 0 0-.176-3.115-.367-6.229l-.294-6.228c-.161-.103-.308-.28-.425-.544-2.982-7.212-3.32-14.806-.529-22.488.323-.896 1.087-.882 1.395 0 2.687 7.3 2.996 14.674.529 22.415-.088.28-.221.47-.382.573 0 0 .147 3.011.279 6.022l.352 6.023c.808-6.845 3.349-12.016 8.078-15.394.602-.44 1.233.206 1.174 1.19-.161 2.482-.719 6.874-2.452 10.752-1.762 3.878-4.332 6.272-5.816 7.418-.249.19-.499.19-.705.059l.294 4.01c.088 1.204.191 2.614.308 4.113.133 1.498.28 3.099.426 4.715.279 3.202.558 6.419.837 8.813.265 2.394.426 3.996.426 3.996.368-2.336.837-4.583 1.425-6.684a36.999 36.999 0 0 1 2.232-5.876c1.762-3.584 4.068-6.448 7.137-8.284.676-.397 1.175.66.94 1.998a70.407 70.407 0 0 1-1.38 6.463c-.676 2.482-1.571 5.14-2.702 7.52-2.614 5.406-6.653 8.594-7.284 8.403 0 0 .044.425.132 1.19.102.749.235 1.835.396 3.128.353 2.585.749 6.037 1.248 9.475.529 3.437 1.043 6.874 1.44 9.444.176 1.293.396 2.351.528 3.1.133.749.206 1.175.206 1.175.191-.97.47-2.145.852-3.423a58.288 58.288 0 0 1 1.439-4.127c1.101-2.865 2.497-5.832 4.068-8.211 3.437-5.097 7.27-7.345 9.414-8.285.851-.367 1.321.882.881 2.35-1.557 5.039-3.128 9.034-4.891 12.28-1.747 3.232-3.539 5.656-5.125 7.418-3.216 3.54-5.889 4.48-6.241 4.216.514 2.806.939 5.435 1.453 7.873.514 2.439.999 4.701 1.454 6.801.837 4.231 1.807 7.756 2.556 10.782 1.439 6.052 2.717 9.871 3.422 12.368 1.453 4.98 1.233 4.524 1.013 4.598-.22.073-.147.587-1.66-4.466-.719-2.526-2.012-6.419-3.451-12.559-.764-3.07-1.703-6.654-2.555-10.943-.455-2.145-.94-4.436-1.469-6.904-.484-2.482-.94-5.141-1.454-7.991-.279.309-1.924.147-4.185-.661-2.247-.808-5.184-2.276-7.828-4.553-4.743-4.04-8.782-10.092-10.765-13.646-.763-1.455-.631-2.894.294-2.718z" fill="#6F49BC"/><path d="M114.374 171.244c-3.422.573-34.13 4.554-60.3-22.753C29.09 122.408 36.256 43.965 36.957 36.909l77.417 134.335zm0 0c3.422-.558 27.301-8.534 27.301-8.534l-27.301 8.534zm-73.52-51.91c2.818 11.757 7.129 22.075 13.58 28.811 26.003 27.131 56.503 23.168 59.858 22.606h.002c.814-.133 2.91-.724 5.644-1.554a599.114 599.114 0 0 0 9.216-2.905 1428.415 1428.415 0 0 0 11.331-3.713l.673-.224c-2.967-62.77-38.621-103.956-71.306-114.67l-28.874-9.459-3.534-1.158a185.448 185.448 0 0 0-.277 3.069c-.198 2.367-.45 5.78-.673 9.961-.444 8.364-.764 19.798-.267 32.082.497 12.286 1.81 25.408 4.626 37.154z" fill="#fff" stroke="#333"/><path d="M127.46 169.658c.161 0 .323-.03.484-.103.632-.265.94-.999.661-1.631-.352-.852-36.42-86.004-76.058-115.44a1.246 1.246 0 0 0-1.748.264 1.246 1.246 0 0 0 .265 1.748c39.094 29.04 74.898 113.561 75.25 114.412.191.456.661.75 1.146.75z" fill="#333"/><path d="M98.822 114.78c1.175 0 1.909-.03 2.085-.03l.984-.044.191-.969c.191-.941 4.332-23.224-9.913-51.162a1.242 1.242 0 0 0-1.674-.544 1.242 1.242 0 0 0-.543 1.675c12.204 23.928 10.456 43.964 9.84 48.562-5.817.044-35.144-.573-54.588-16.525-.529-.441-1.322-.353-1.763.176-.44.529-.352 1.322.177 1.763 19.4 15.922 47.332 17.098 55.204 17.098zM89.189 152.574c14.612 0 30.517-3.07 31.442-3.246l.485-.088.294-.397c.293-.411 7.298-10.517 6.726-37.926a1.25 1.25 0 1 0-2.497.058c.499 23.635-4.788 33.946-6.006 36.018-4.127.763-31.472 5.537-45.292 1.454-14.965-4.436-23.468-10.033-23.556-10.092a1.254 1.254 0 0 0-1.733.353 1.253 1.253 0 0 0 .353 1.733c.352.235 8.87 5.847 24.231 10.4 4.347 1.278 9.855 1.733 15.553 1.733z" fill="#333"/><path d="M48.787 159.757c2.526-2.306 5.654-3.599 9.282-4.025 1.791-.191 3.7-.161 5.683.059 1.953.279 4.039.661 6.08 1.322 0 0-.925-.852-2.38-2.042-.733-.587-1.556-1.322-2.481-2.041-.925-.72-1.924-1.484-2.908-2.248-2.027-1.469-4.068-2.923-5.654-3.936-.778-.514-1.44-.955-1.91-1.234-.469-.279-.733-.456-.733-.456-.118.206-.881.852-2.16 1.513a19.18 19.18 0 0 1-5.183 1.807c-1.836.323-3.804.514-5.537.529-1.777.088-3.319 0-4.464 0-.896-.029-1.498-.573-1.131-1.043 3.319-4.201 9.34-5.376 16.213-4.186 0 0-1.043-.588-2.6-1.469-1.586-.852-3.7-1.954-5.874-2.953a80.675 80.675 0 0 0-6.065-2.541 44.516 44.516 0 0 0-2.041-.749c-.5-.162-.779-.264-.779-.264.088.205.044.426-.161.587-3.701 3.026-8.224 4.172-13.746 4.084-.646 0-1.014-.514-.676-.97 2.614-3.643 6.903-5.112 12.057-4.509 0 0-.558-.162-1.38-.412-.837-.235-1.953-.514-3.07-.808-1.13-.235-2.261-.514-3.113-.661-.852-.146-1.425-.249-1.425-.249a.89.89 0 0 1-.455.235c-2.834.631-5.492.94-8.092.984-1.307.015-2.584.015-3.906-.059-1.307-.015-2.614-.117-3.98.088-.631.103-1.072-.308-.602-.925.999-1.234 2.423-2.057 3.833-2.6a13.84 13.84 0 0 1 4.391-.823c2.952-.073 5.874.72 8.532 2.248.191.117.309.25.368.382 0 0 .558.103 1.38.249.837.133 1.924.412 3.025.632 1.087.279 2.174.558 2.996.764.808.235 1.352.396 1.352.396-4.568-2.379-7.872-5.141-10.12-9.268-.293-.529.324-.926 1.161-.735 2.07.5 5.64 1.748 8.165 4.084 2.541 2.306 3.481 4.877 3.819 6.301.059.235-.015.412-.176.529 0 0 .278.103.778.265.5.161 1.204.426 2.041.749a87.365 87.365 0 0 1 6.08 2.556c2.188.998 4.303 2.115 5.89 2.952 1.57.881 2.613 1.469 2.613 1.469-4.875-5.097-9.002-10.15-9.678-15.805-.073-.617.94-.603 1.85.088 2.365 1.645 6.14 4.979 8.254 8.622 2.409 4.172 2.247 8.182 1.836 8.461 0 0 .279.162.764.47.484.279 1.16.735 1.968 1.278 1.63 1.043 3.744 2.556 5.83 4.084 4.17 3.084 8.004 6.58 8.004 6.58-1.234-2.717-3.422-7.976-4.392-12.471-1.072-4.73-.543-8.255-.058-10.018.19-.705 1.307-.293 2.026.838 4.935 7.609 5.743 13.425 5.537 17.171-.25 3.775-1.527 5.582-1.865 5.597 1.586 1.424 2.966 2.835 4.318 4.112 1.277 1.337 2.482 2.586 3.583 3.746 1.072 1.19 2.056 2.306 2.981 3.32.896 1.028 1.69 2.012 2.438 2.908 1.513 1.763 2.629 3.305 3.598 4.539.97 1.234 1.674 2.248 2.232 3.026 2.247 3.158 1.968 2.879 1.821 2.982-.147.103.03.455-2.261-2.717-.573-.794-1.278-1.807-2.262-3.056-.984-1.248-2.115-2.805-3.627-4.597-2.967-3.614-7.108-8.447-13.467-14.219-.03.323-1.131 1.013-2.85 1.66-1.718.646-4.053 1.248-6.608 1.498-4.494.338-9.267-.147-11.852-.47-.998-.059-1.586-.72-1.057-1.205z" fill="#6C48BA"/><path d="M83.372 9.724c3.407 4.04 9.032 4.892 9.032 4.892s.088-5.685-3.319-9.725C85.678.852 80.053 0 80.053 0s-.088 5.685 3.32 9.724zM4.185 109.521c3.437 4.069 8.283 5.64 8.283 5.64s-.749-5.038-4.185-9.107C4.846 101.985 0 100.414 0 100.414s.749 5.038 4.185 9.107zM83.783 41.217c3.04 4.025 7.505 5.802 7.505 5.802s-.47-4.774-3.525-8.798c-3.04-4.04-7.505-5.803-7.505-5.803s.485 4.76 3.525 8.799zM131.6 14.086c-1.909 4.686-1.131 9.416-1.131 9.416s3.863-2.85 5.757-7.535c1.895-4.686 1.131-9.416 1.131-9.416s-3.848 2.85-5.757 7.535z" fill="#6F49BC"/><path d="M274.03 174.668c6.99-51.764 43.206-70.537 43.206-70.537s-4.45 37.046-20.325 56.332c-15.891 19.272-22.881 14.205-22.881 14.205zM177.322 175.842c-4.743-52.018 26.368-78.401 26.368-78.401s3.933 37.104-7.236 59.448c-11.187 22.333-19.132 18.953-19.132 18.953z" fill="#fff"/><path d="M316.878 166.998c12.806-62.53 68.157-51.763 69.171-35.356 1.028 16.408-19.474 14.351-33.308 20.506-13.834 6.155-17.931 19.992-17.931 19.992l-17.932-5.142z" fill="#F7EDFF"/><path d="M320.975 178.28c.558 0 1.087-.309 1.366-.838l7.181-13.837c4.744-9.151 18.416-30.744 42.883-33.52a1.537 1.537 0 0 0 1.351-1.704 1.537 1.537 0 0 0-1.704-1.351c-25.935 2.952-40.298 25.573-45.262 35.165l-7.181 13.837a1.526 1.526 0 0 0 .661 2.071c.22.118.47.177.705.177z" fill="#fff"/></symbol><symbol viewBox="0 0 357 155" fill="none" id="decor2" xmlns="http://www.w3.org/2000/svg"><path d="M.28 138.241c4.12-22.482 53.834-54.196 65.641-28.793 5.557 11.972 6.552-82.304 83.751-72.496 41.636 5.282-5.788 42.694-9.144 56.18-3.338 13.486 7.795-3.264 28.959-6.978s30.077 25.584 38.973 53.512c8.913 27.909 2.219 34.436 2.219 34.436-31.604-.848-63.191-1.695-94.795-2.524-30.592-.812-108.342 8.834-115.657-27.946-.32-1.713-.302-3.516.053-5.391z" fill="#FFA9B8"/><path d="M95.269 124.298l.413-.282-.002-.002-.005-.008-.021-.031-.086-.128a109.568 109.568 0 0 1-1.565-2.432 153.94 153.94 0 0 1-4.132-7.03c-3.264-5.899-7.231-13.94-10.06-22.53-2.832-8.597-4.506-17.695-3.231-25.727 1.27-8 5.464-14.956 14.434-19.34 12.21-5.96 23.499-1.066 31.823 5.433 4.156 3.245 7.544 6.87 9.895 9.689a67.864 67.864 0 0 1 2.708 3.463c.309.425.545.763.703.992l.179.263.044.066.011.016.002.004.001.001.06-.04-.06.04.905-.388-.001-.003-.003-.013-.012-.055-.049-.222a43.22 43.22 0 0 1-.174-.87 66.67 66.67 0 0 1-.536-3.305 89.786 89.786 0 0 1-.823-11.672c-.057-9.583 1.375-22.136 7.312-34.077C147.218 7.62 155.81 2.77 166.118 1.7c10.31-1.07 22.291 1.65 33.158 8.266 21.703 13.21 38.979 41.965 29.431 87.004l-.008.04-.002.039-3.136 62.807-.664-.026-3.284-.13a35861.983 35861.983 0 0 0-48.238-1.871c-26.93-1.023-55.083-2.046-59.889-2.046-1.055 0-2.135-.44-3.234-1.273-1.099-.834-2.189-2.04-3.252-3.517-2.124-2.953-4.085-6.911-5.757-10.896-1.67-3.98-3.044-7.963-4-10.953a146.764 146.764 0 0 1-1.393-4.621l-.074-.265-.018-.068-.005-.017-.001-.004v-.001l-.483.13zm0 0l.413-.281.048.069.022.082-.483.13z" fill="#fff" stroke="#333"/><path d="M198.408 166.655h2.806c3.391-.505 7.918-2.669 13.991-7.392 27.68-21.6 59.497-90.292 56.213-114.451-3.303-24.16-54.882 32.074-79.686 104.228 0 0-2.13 16.154 6.676 17.615z" fill="#FFA9B8"/><path d="M303.599 89.957c22.915 5.424 39.087 14.137 47.132 21.733 2.008 1.897 3.498 3.712 4.46 5.375.964 1.668 1.381 3.15 1.299 4.395-.08 1.223-.644 2.266-1.752 3.087-1.124.832-2.825 1.445-5.169 1.73h-.001c-4.728.579-10.707.246-17.376-.251-1.015-.076-2.047-.155-3.091-.236-5.795-.446-11.998-.925-18.217-.966-14.667-.097-29.59 2.231-39.693 13.277h-.001c-10.587 11.592-20.756 21.409-27.933 28.053h-52.369c12.608-33.974 29.434-55.657 48.7-67.543 19.383-11.959 41.298-14.039 64.011-8.654z" fill="#fff" stroke="#333"/><path d="M347.978 111.52c-.888-.54-22.034-13.107-45.063-12.332-10.12.343-31.178 1.064-53.087 11.773-22.408 10.962-40.269 29.677-53.266 55.693h2.557c31.782-62.706 83.573-64.455 103.867-65.14 22.354-.739 43.607 11.881 43.82 12.008a1.15 1.15 0 0 0 1.58-.415 1.167 1.167 0 0 0-.408-1.587z" fill="#333"/><path d="M315.965 119.382c-.266 0-.515-.09-.746-.271-18.501-15.775-62.924-8.365-63.368-8.293l-2.503.433 1.349-2.2c.444-.721 10.92-17.525 31.356-21.076a1.162 1.162 0 0 1 1.331.955 1.177 1.177 0 0 1-.941 1.352c-15.109 2.633-24.697 13.198-28.248 17.832 10.174-1.407 45.702-5.121 62.516 9.213.479.414.55 1.153.142 1.64a1.124 1.124 0 0 1-.888.415zM213.358 140.963l14.293-33.319a1.119 1.119 0 0 1 1.509-.595c.586.253.852.938.586 1.533l-11.861 27.621c6.588-2.65 24.023-8.005 42.062.343.569.27.835.955.569 1.55a1.15 1.15 0 0 1-1.527.577c-21.431-9.916-42.595.721-42.808.829l-2.823 1.461z" fill="#333"/><path d="M148.553 71.76c.231.126.426.18.586.144 0 0 .409.523 1.03 1.298.604.794 1.403 1.857 2.219 2.903a274.21 274.21 0 0 0 2.167 2.957c.568.811.958 1.352.958 1.352-4.367-4.219-9.108-6.112-14.257-5.337-.657.108-.728.884-.124 1.46 1.491 1.48 4.332 3.967 7.67 5.518 3.356 1.55 6.498 1.694 8.203 1.64.284-.018.461-.162.532-.36 0 0 3.214 4.687 6.09 9.591 1.439 2.452 2.859 4.904 3.853 6.797.497.938.924 1.713 1.225 2.272.285.559.444.866.444.866-5.717-6.112-12.233-9.808-18.572-8.817-.692.108-.532 1.1.32 1.875 2.131 1.93 5.984 5.247 10.032 7.428 2.326 1.208 4.634 1.912 6.392 2.254 1.775.325 3.036.289 3.231.072 0 0 .178.343.479.938.284.613.693 1.478 1.19 2.524 1.012 2.073 2.237 4.886 3.444 7.716 2.397 5.662 4.333 11.503 4.333 11.503-2.255-2.686-7.369-7.013-11.985-8.978-5.007-2.092-8.949-1.803-11.061-1.407-.835.163-.622 1.244.355 2.074 6.764 5.589 12.393 8.474 16.494 9.718 4.084 1.262 6.658.847 6.818.486 2.557 7.789 4.066 14.081 5.078 19.076h.586c-1.047-5.121-2.61-11.629-5.291-19.743.355.127 1.616-.721 3.072-2.362 1.473-1.64 3.142-4.092 4.243-7.121 2.042-5.427 2.22-12.17 2.06-16.028-.054-1.533-.888-2.597-1.509-2.002-5.877 5.644-7.653 15.145-8.576 25.422 0 0-.462-1.424-1.261-3.534-.746-2.127-1.864-4.904-3-7.662-1.19-2.741-2.38-5.499-3.356-7.519-.48-1.009-.888-1.857-1.154-2.452a25.63 25.63 0 0 1-.462-.919c.48-.235 3.32-3.354 4.102-8.835.71-4.76-.302-10.313-1.083-13.45-.302-1.262-1.19-2.019-1.616-1.46-3.889 5.156-3.871 12.675-2.823 20.914 0 0-.16-.324-.444-.865-.302-.541-.728-1.334-1.225-2.272-.995-1.893-2.415-4.363-3.871-6.833a212.516 212.516 0 0 0-4.137-6.653l-1.971-2.957c.249.036.497-.072.622-.378 2.166-5.229 1.473-11.431-2.841-18.192-.515-.775-1.332-.902-1.527-.234-1.58 5.372-.657 10.6 1.953 16.208 0 0-.391-.559-.994-1.406-.604-.83-1.421-1.947-2.237-3.065-.835-1.1-1.669-2.2-2.291-3.011l-1.065-1.353c.053-.162.053-.378-.018-.63-2.13-6.617-6.623-11.936-13.298-14.767-.782-.324-1.226.217-.87.956 2.894 6.238 6.96 11.016 13.138 14.64z" fill="#F15A89"/><path d="M140.031 124.695c5.309-1.677 8.167-3.93 8.203-4.453 1.882 1.965 3.675 3.75 5.273 5.517 1.563 1.785 3.089 3.389 4.403 4.976 1.314 1.587 2.522 3.047 3.658 4.399 1.065 1.388 2.06 2.686 2.965 3.858 3.569 4.76 5.735 7.933 7.084 10.025.071.09.125.18.178.27h.994c-.16-.234-.319-.505-.515-.793-.692-1.064-1.544-2.416-2.77-4.075-1.225-1.658-2.574-3.75-4.474-6.112-.923-1.19-1.935-2.488-3.036-3.912-1.154-1.37-2.397-2.867-3.729-4.471-1.349-1.605-2.894-3.246-4.492-5.049a252.17 252.17 0 0 0-5.397-5.589c.923-.252 4.545-7.103 4.545-15.235-.035-3.569-.657-7.302-1.616-10.547a54.505 54.505 0 0 0-1.527-4.58c-.55-1.37-1.1-2.596-1.58-3.605-.763-1.623-2.184-2.218-2.627-1.1-1.048 2.614-1.705 5.319-2.042 8.06-.338 2.74-.338 5.498-.16 8.347.195 2.83.639 5.625 1.189 8.492.285 1.424.604 2.848.977 4.255a128.84 128.84 0 0 0 1.136 4.291s-.284-.289-.799-.776c-.515-.487-1.225-1.208-2.13-2.019-1.811-1.623-4.191-3.804-6.694-5.842-.621-.522-1.243-1.045-1.847-1.55-.621-.487-1.242-.974-1.828-1.442-1.19-.92-2.291-1.821-3.267-2.525-1.953-1.424-3.249-2.379-3.249-2.379.461-.65 2.29-6.058.745-12.675-1.367-5.661-5.024-11.124-7.386-13.955-.941-1.154-2.237-1.352-2.45-.397-1.776 8.727 1.598 17.02 6.285 25.08 0 0-5.06-3.516-10.387-6.581-5.308-3.12-10.848-5.788-10.848-5.788.284-.162.479-.469.479-.901-.071-7.483-3.817-13.865-11.754-18.066-.923-.505-1.828.018-1.686.938 1.118 7.32 4.563 12.404 9.89 16.55 0 0-2.7-1.261-5.434-2.397-2.734-1.154-5.522-2.2-5.522-2.2-.017-.234-.124-.469-.32-.685-5.343-5.715-12.712-8.113-20.648-5.877-.924.27-1.03 1.244-.302 1.802 6.09 4.67 12.322 6.69 20.33 5.788.283-.036.514-.144.674-.307 0 0 2.681 1.01 5.327 2.11 2.645 1.1 5.238 2.308 5.238 2.308-6.499-1.226-12.252.45-16.974 5.48-.604.65-.302 1.57.55 1.731 2.166.397 6.09.92 10.227-.09 2.06-.486 3.924-1.298 5.522-2.181a25.547 25.547 0 0 0 3.728-2.488c.284-.235.409-.523.409-.83 0 0 5.504 2.669 10.777 5.77 5.309 3.047 10.334 6.544 10.334 6.544-8.949-2.253-17.578-1.208-23.757 4.85-.692.685-.089 1.587 1.119 1.767 3.018.415 8.469.974 13.813.144 6.055-.937 11.381-4.074 11.612-4.831 0 0 1.332.973 3.338 2.434 1.953 1.514 4.617 3.497 7.12 5.661 2.574 2.091 4.989 4.363 6.836 6.004 1.793 1.73 2.983 2.866 2.983 2.866-1.918-.541-4.741-1.1-7.919-1.244a39.309 39.309 0 0 0-4.83 0c-1.633.126-3.267.343-4.776.685-3.231.703-5.948 1.984-8.114 3.246a29.148 29.148 0 0 0-4.865 3.606c-.852.793-.248 1.784 1.172 1.875 2.45.126 4.705.216 6.871.144 2.184-.072 4.191-.18 6.09-.379 3.8-.396 7.031-1.1 9.677-1.947zM149.174 33.719c.391 5.589-2.059 10.33-2.059 10.33s-3.09-4.327-3.481-9.934c-.39-5.607 2.06-10.33 2.06-10.33s3.09 4.345 3.48 9.934zM85.468 48.935c2.486 4.255 1.456 9.538 1.456 9.538s-5.06-1.605-7.546-5.86c-2.485-4.255-1.456-9.537-1.456-9.537s5.06 1.604 7.546 5.86zM97.667 119.07c4.456-1.442 8.948.162 8.948.162s-2.752 3.949-7.208 5.391c-4.457 1.442-8.949-.162-8.949-.162s2.752-3.949 7.209-5.391z" fill="#F15A89"/></symbol><symbol viewBox="0 0 330 135" fill="none" id="decor3" xmlns="http://www.w3.org/2000/svg"><path d="M249.346 9.25l.063-.496-.062.497c10.643 1.33 15.325 4.654 16.622 8.86.656 2.126.48 4.558-.329 7.219-.809 2.66-2.239 5.51-4.041 8.45-3.116 5.08-7.304 10.354-11.215 15.28-.617.778-1.228 1.547-1.826 2.306-2.189 2.773-4.216 5.404-5.804 7.772-1.581 2.357-2.759 4.5-3.211 6.293-.43 1.71-.643 2.995-.614 3.904.014.456.09.862.264 1.189.185.345.469.581.836.688.345.101.724.077 1.104-.007.384-.085.808-.24 1.266-.444.913-.405 2.025-1.033 3.308-1.78l1.027-.602c5.189-3.048 13.027-7.65 23.09-9.396 5.301-.92 9.817.196 13.767 2.817 3.966 2.63 7.384 6.79 10.435 11.989 5.877 10.013 10.313 23.726 14.717 37.338l.516 1.595c4.555 14.068 5.107 22.695 4.547 27.777-.28 2.538-.838 4.19-1.312 5.193a6.801 6.801 0 0 1-.604 1.054c-.035.048-.067.089-.094.124l-97.036-2.557c-5.406-.141-12.247.03-19.892.222-3.477.087-7.12.178-10.87.246-12.01.218-25.14.197-37.518-.956-12.385-1.155-23.975-3.44-32.922-7.73-8.935-4.283-15.185-10.537-17.02-19.628-.3-1.624-.285-3.391.054-5.238 1.029-5.541 4.933-11.72 10.471-17.488 5.528-5.76 12.637-11.06 19.99-14.859 7.359-3.801 14.918-6.072 21.353-5.827 6.403.244 11.676 2.972 14.612 9.191.188.4.39.73.618.963.233.238.541.418.913.384.352-.031.63-.245.841-.478.215-.24.415-.561.605-.935.754-1.479 1.586-4.227 2.646-7.74l.054-.179c2.133-7.074 5.252-17.413 10.617-27.814 5.41-10.489 13.091-21.012 24.319-28.3 11.218-7.282 26.016-11.36 45.715-8.896z" fill="#fff" stroke="#333"/><path d="M151.561 143.243C194.801 33.326 78.594 0 78.594 0s-23.398 126.118 72.967 143.243z" fill="#FFC5CF"/><path d="M145.72 133.547a.654.654 0 0 1-.628-.453c-.227-.61-22.492-61.42-61.634-120.12a.677.677 0 0 1 .192-.941.677.677 0 0 1 .942.192c39.229 58.839 61.546 119.805 61.773 120.416a.692.692 0 0 1-.401.871c-.105.035-.175.035-.244.035z" fill="#333"/><path d="M110.466 58.35c-2.755 0-13.861-1.185-30.53-18.24a.67.67 0 0 1 .018-.96.669.669 0 0 1 .96.018C97.371 56.014 108.355 56.99 110.57 56.99c.925-2.72 5.684-17.944 2.093-31.145a.685.685 0 0 1 .47-.837.7.7 0 0 1 .837.47c4.063 14.893-2.214 32.227-2.266 32.402a.665.665 0 0 1-.558.436 4.41 4.41 0 0 1-.68.035zM123.403 89.113c-6.573 0-20.26-1.169-32.133-9.749a.691.691 0 0 1-.157-.941.69.69 0 0 1 .941-.157c14.716 10.62 32.256 9.574 34.801 9.364 1.203-1.918 8.631-15.119 7.811-45.288a.681.681 0 0 1 .663-.698c.383.035.68.28.697.663.889 33.186-7.863 45.83-8.229 46.352a.638.638 0 0 1-.471.28c-.052.017-1.517.174-3.923.174zM140.315 118.236c-1.43-.035-34.505-.959-44.007-5.93a.665.665 0 0 1-.279-.906.665.665 0 0 1 .907-.279c8.665 4.534 39.124 5.65 42.995 5.772 1.569-2.738 11.873-21.642 11.873-42.551a.681.681 0 0 1 1.36 0c0 22.897-12.135 43.388-12.257 43.597a.785.785 0 0 1-.592.297z" fill="#333"/><path d="M48.392 56.94l-.103-.456.33-.022a58.555 58.555 0 0 1 2.565-.096c2.226-.039 5.438.01 9.373.36 7.872.7 18.628 2.606 30.167 7.424 22.959 9.588 49.068 30.727 61.693 77.009-43.102 2.453-69.12-18.726-84.4-40.592-7.68-10.99-12.642-22.154-15.686-30.572a126.28 126.28 0 0 1-3.222-10.194 84.625 84.625 0 0 1-.717-2.861z" fill="#fff" stroke="#333"/><path d="M53.14 134.071C36.191 94.868-12.628 106.238 3.064 115.08c15.71 8.841 35.917 6.749 41.322 13.986 5.405 7.254 8.962 9.539 8.962 9.539s11.28-.924 11.542-3.279c.261-2.354-1.779-18.764.61-25.408 2.389-6.644 7.34-26.106-9.502-15.556-16.843 10.568-2.86 39.709-2.86 39.709zM248.536 146.234c-15.203-9.957 21.272-82.486 56.7-77.394 35.429 5.092 27.705 24.78 4.603 36.692-23.102 11.893-36.614 46.37-43.553 47.242-6.905.889-17.75-6.54-17.75-6.54z" fill="#FFC5CF"/><path d="M258.161 134.254c-8.456-61.943-64.58-43.528-51.696-30.03 11.682 12.242 30.896 15.433 37.312 50.608 1.116 6.121 14.384-20.578 14.384-20.578z" fill="#FFC4CF"/><path d="M275.369 113.766c-4.446-.401-8.839.715-13.163 2.948-4.324 2.232-8.299 5.685-12.187 9.748 0 0 .523-1.517 1.307-3.802.802-2.267 1.779-5.336 2.929-8.336 2.337-5.999 4.673-11.98 4.673-11.98.54.244 5.265.244 10.409-2.441 2.232-1.169 4.359-2.704 6.189-4.22a54.466 54.466 0 0 0 4.656-3.942c.906-.837 1.046-1.936.279-2.058-3.47-.505-6.94.227-10.374 1.901-1.761.82-3.365 1.953-4.987 3.244-1.621 1.29-3.225 2.79-4.795 4.412 0 0 .628-1.413 1.552-3.523.942-2.093 2.11-4.953 3.539-7.673 1.395-2.738 2.72-5.51 3.819-7.551 1.15-2.005 1.9-3.348 1.9-3.348.105.261.331.436.68.4a20.41 20.41 0 0 0 4.533-.819c1.447-.453 2.86-1.064 4.307-1.761a23.114 23.114 0 0 0 4.097-2.703c.331-.262.663-.54.977-.837.331-.28.68-.558 1.011-.837a28.016 28.016 0 0 0 1.97-1.866c.61-.628.453-1.43-.262-1.517-2.911-.314-5.736.104-8.369 1.29-1.29.628-2.528 1.412-3.748 2.354-1.203.96-2.458 2.006-3.505 3.314 0 0 .088-.157.262-.454.174-.279.366-.697.697-1.168.611-.942 1.43-2.18 2.249-3.436.837-1.238 1.587-2.528 2.285-3.418.679-.889 1.133-1.5 1.133-1.5.192.018.418-.052.662-.191 1.622-1.012 3.034-2.128 4.499-3.174 1.429-1.081 2.65-2.32 3.923-3.453.627-.593 1.203-1.238 1.778-1.866.61-.593 1.186-1.22 1.744-1.883.557-.68 1.168-1.256 1.743-1.954.296-.348.61-.627.907-.976.314-.349.627-.663.976-.96.575-.54.558-1.307-.506-1.272-1.063.017-2.022.261-3.033.505-.924.314-1.901.663-2.79 1.1-.854.47-1.691.976-2.511 1.516-.819.54-1.482 1.204-2.196 1.866-1.43 1.29-2.529 2.843-3.505 4.465-1.029 1.604-1.691 3.418-2.214 5.301-.07.279-.07.488.017.663 0 0-1.796 2.302-3.33 4.76-.785 1.221-1.587 2.424-2.179 3.349a9.526 9.526 0 0 0-.68 1.116l-.244.436c1.115-3.087 1.9-5.964 1.987-8.824.209-2.808-.07-5.58-1.046-8.388-.244-.733-1.168-.506-1.709.4-.68 1.152-1.621 2.756-2.371 4.64-.68 1.883-1.238 4.028-1.429 6.138-.227 2.11.122 3.993.557 5.528a16.702 16.702 0 0 0 1.465 3.54c.157.262.384.366.628.349 0 0-.767 1.343-1.918 3.348-1.081 2.04-2.424 4.813-3.818 7.569-1.448 2.738-2.598 5.58-3.54 7.69-.924 2.11-1.552 3.523-1.552 3.523.297-2.232.471-4.412.506-6.54.017-1.063 0-2.11-.07-3.121-.052-1.012-.087-2.006-.192-2.965-.418-3.871-1.569-7.376-3.748-10.254-.488-.645-1.395.192-1.691 1.57a57.75 57.75 0 0 0-1.099 6.644c-.157 1.29-.192 2.633-.157 3.993.035 1.36.14 2.703.349 3.994.942 5.894 4.062 9.801 4.742 9.801 0 0-2.406 6.173-4.812 12.364-1.15 3.104-2.179 6.26-3.016 8.597-.802 2.354-1.343 3.906-1.343 3.906-.244-3.749-1.621-10.916-3.8-16.148-2.284-5.598-5.527-8.719-7.428-10.132-.75-.576-1.552.593-1.482 2.162.122 2.686.366 5.11.75 7.307.436 2.198.959 4.151 1.552 5.895 1.168 3.487 2.58 6.103 3.957 8.056 2.755 3.889 5.353 5.093 5.754 4.901-1.726 5.144-3.016 9.678-4.254 13.602a473.696 473.696 0 0 0-1.674 5.459c-.506 1.674.174 1.586.697-.105.524-1.692 1.081-3.54 1.692-5.528.61-1.988 1.255-4.116 1.952-6.418.715-2.284 1.413-4.761 2.354-7.359.471.663 6.8.244 12.833-2.912 2.685-1.395 5.23-3.227 7.444-5.005a70.836 70.836 0 0 0 5.562-4.691c1.029-1.012 1.186-2.267.244-2.355z" fill="#FF395D"/></symbol><symbol viewBox="0 0 288 159" fill="none" id="decor4" xmlns="http://www.w3.org/2000/svg"><path d="M163.441 117.558l.433.249.001-.001.004-.007.016-.027.063-.108.255-.426a81.82 81.82 0 0 1 1.005-1.618 126.839 126.839 0 0 1 3.878-5.729c3.375-4.712 8.265-10.913 14.329-16.875 12.152-11.947 28.896-22.82 47.554-19.085l.098-.49-.098.49c16.993 3.4 26.424 12.367 31.749 22.898 5.34 10.562 6.564 22.726 7.053 32.52.292 5.954-1.051 13.137-2.714 19.473-1.592 6.062-3.465 11.31-4.437 13.894H30.938c1.294-11.38 1.463-22.876.292-34.317-2.947-28.815 11.92-46.339 28.474-53.388 8.29-3.53 16.99-4.427 24.087-2.813 7.093 1.613 12.535 5.715 14.469 12.16l7.714 25.739.964 3.218.12.402.011.036.005.014v.001l.001.004v.002h.001v.001c.18.257.479.356.479-.144m55.886 3.927l-.476-.154.001-.001.001-.004.005-.016.021-.066.083-.259.319-1.013c.277-.887.679-2.187 1.176-3.84a526.714 526.714 0 0 0 3.903-13.652c3.061-11.267 6.731-26.202 9.171-40.887 2.441-14.64.961-30.417-7.02-41.664C162.674 4.8 148.18-2.03 124.293 1.382c-11.771 1.68-18.695 9.41-22.467 20.18-3.78 10.797-4.368 24.595-3.451 38.236.916 13.63 3.331 27.055 5.518 37.075a299.164 299.164 0 0 0 2.891 12.068 202.383 202.383 0 0 0 1.228 4.473l.017.056.002.01.002.004v.002l.001.001v.001l-.479.143m55.886 3.927l.433.25-.909-.404.476.154zm-55.886-3.927l.479-.142.19.642h-.669v-.5z" fill="#fff" stroke="#333"/><path d="M132.728 170.374a.722.722 0 0 1-.652-.4c-.148-.282-3.511-7.336-4.978-36.574-.607-12.137.43-26.304 1.63-42.694 1.704-23.267 3.615-49.63 1.318-77.86a.754.754 0 0 1 .667-.8c.4-.045.756.266.8.666 2.311 28.35.385 54.772-1.318 78.097-1.201 16.361-2.223 30.483-1.63 42.517 1.437 28.749 4.785 35.921 4.83 35.981.178.37.029.8-.341.978a.546.546 0 0 1-.326.089z" fill="#333"/><path d="M130.268 68.418a.683.683 0 0 1-.489-.193c-.237-.207-23.276-21.058-26.698-46.043-.06-.4.222-.771.622-.83.4-.045.77.222.83.622 3.081 22.496 22.49 41.627 25.765 44.71 3.719-3.127 27.291-23.415 32.61-38.486a.715.715 0 0 1 .934-.444.726.726 0 0 1 .444.933c-5.882 16.672-32.432 38.62-33.558 39.538a.596.596 0 0 1-.46.193zM127.334 110.578a.777.777 0 0 1-.355-.089c-.178-.088-17.513-9.751-27.78-36.662a.729.729 0 0 1 .43-.949c.384-.148.799.045.947.43 9.246 24.215 24.239 34.158 26.743 35.685 3.201-1.971 25.958-16.331 32.196-27.92a.733.733 0 1 1 1.289.697c-6.875 12.774-32.033 28.067-33.099 28.719a.964.964 0 0 1-.371.089zM197.904 164.505a.742.742 0 0 1-.622-1.126c.311-.519 31.232-51.586 29.795-77.52a.722.722 0 0 1 .697-.77c.4-.03.755.281.77.696 1.289 23.148-21.78 64.36-28.328 75.564 9.586-6.462 41.603-28.379 46.078-35.7a.725.725 0 0 1 1.007-.237c.341.207.46.667.237 1.008-5.408 8.862-47.441 36.796-49.234 37.981a.88.88 0 0 1-.4.104z" fill="#333"/><path d="M197.904 164.506a.707.707 0 0 1-.652-.4c-4.326-8.655-16.727-31.536-22.135-33.462a.731.731 0 0 1 .489-1.378c5.986 2.134 17.853 24.303 21.72 31.772.489-9.292 1.586-40.753-4.548-63.248a.735.735 0 0 1 .518-.904c.386-.104.8.118.904.518 7.305 26.779 4.46 66.035 4.43 66.42a.739.739 0 0 1-.592.667c-.03 0-.075.015-.134.015z" fill="#333"/><path d="M218.648 77.1c12.795 7.45 20.056 20.055 25.797 33.755 1.24-7.035 4.014-18.84 7.276-29.34-1.727-.549-14.611-8.177-16.5-30.245-.147-1.719.915-2.785 1.963-2.015 9.489 6.962 13.651 17.344 15.703 28.453 2.612-8.25 6.272-18.5 9.725-27.031-.413.06-.871-.089-1.254-.504-6.745-7.168-9.254-15.744-6.656-25.475.31-1.14 1.549-1.377 2.317-.444 6.213 7.39 8.117 14.811 7.069 22.735 3.276-7.865 2.11-5.11 5.446-12.767-1.078-1.23-2.288-15.375 10.433-23.387.96-.608 2.081.074 2.111 1.214.339 9.45-2.922 16.796-10.729 22.365-.281.208-.591.267-.886.267-2.125 4.888-3.35 7.628-5.254 12.323 4.811-6.073 11.379-9.11 20.396-8.502 1.151.074 1.786 1.2 1.181 2.088-1.535 2.222-4.575 6.014-9.298 8.369-4.619 2.325-12.854 3.421-13.961 2.207-3.217 7.983-6.907 18.159-9.681 26.927 7.143-8.235 16.248-13.478 27.641-12.308 1.255.133 1.52 1.525.487 2.606-2.597 2.74-7.467 7.376-13.518 10.339-6.892 3.332-14.861 3.777-15.761 3.154-4.044 13.109-6.774 26.098-7.394 30.082 7.777-8.946 21.414-15.73 37.057-13.67 1.55.207 1.683 1.643.266 2.71-18.92 14.219-36.6 14.708-37.766 13.434-3.099 18.573-2.597 30.763-.561 43.293 1.329 5.658 1.063 5.155.694 5.258-1.402.385-6.051-20.336-1.033-49.396-1.402.4-19.953-6.65-27.125-33.784-.531-2.044.443-3.51 1.815-2.71zM29.032 117.611c8.774 2.427 14.678 8.671 19.76 15.774 0-4.262.418-11.527 1.3-18.097-1.136-.059-9.985-2.589-13.587-15.108-.284-.976.27-1.746 1.002-1.465 6.666 2.634 10.403 8.035 12.899 14.191a233.329 233.329 0 0 1 3.079-17.135.956.956 0 0 1-.837-.104c-4.992-3.151-7.489-7.768-6.935-13.805.06-.71.807-1.021 1.39-.607 4.678 3.374 6.666 7.398 6.905 12.148 1.181-5.045.748-3.285 1.988-8.212-.807-.562-3.109-8.582 3.916-15.123.523-.488 1.3-.266 1.45.4 1.24 5.43.03 10.18-4.215 14.575a.874.874 0 0 1-.523.281c-.792 3.152-1.24 4.928-1.913 7.931 2.331-4.232 6.068-6.969 11.748-7.946.733-.133 1.24.43.972 1.036-.718 1.524-2.182 4.158-4.858 6.23-2.616 2.042-7.623 3.891-8.445 3.344-1.121 5.105-2.302 11.556-3.064 17.061 3.542-5.845 8.624-10.225 15.844-11.246.792-.118 1.106.651.582 1.45-1.315 1.968-3.826 5.386-7.279 8.005-3.93 2.96-8.834 4.395-9.461 4.173-1.077 8.212-1.346 16.158-1.286 18.555 3.857-6.347 11.6-12.296 21.54-13.42.986-.104 1.225.71.462 1.524-10.208 11.053-21.15 13.953-22.017 13.391.105 11.246 1.764 18.245 4.41 25.214 1.45 3.093 1.225 2.826 1.001 2.945-.837.429-5.994-10.906-6.068-28.514-.822.444-13.139-.903-20.583-15.581-.568-1.125-.12-2.116.823-1.865z" fill="#A6B6B6"/><path d="M17.09 141.455c6.356-3.309 13.484-2.686 19.382.164-2.89-4.541-5.631-8.014-8.847-12.155-.756.653-6.86 3.369-15.93-.029-.696-.267-.903-.905-.37-1.217 4.698-2.775 9.988-2.434 15.04-.267-2.578-3.072-4.09-4.912-9.602-10.655a.673.673 0 0 1-.444.474c-2.164.787-4.283 1.099-6.313.891-3.023-.327-7.705-2.464-5.794-3.324 4.075-1.826 7.765-1.484 11.159.549-3.69-3.636-2.55-2.523-4.994-4.823a.68.68 0 0 1-.46.029c-4.49-1.157-7.542-3.724-9.439-8.132-.222-.505.134-1.009.697-.905 4.593.816 7.942 3.606 9.513 8.191a.7.7 0 0 1 0 .461c1.63 1.484 2.756 2.611 4.845 4.674-1.956-3.383-2.489-6.945-1.185-11.189.637-2.063 3.497 2.819 3.971 5.906.37 2.285-.252 6.574-1.2 6.901 5.646 5.862 7.276 7.895 9.617 10.67-1.704-5.239-2.252-10.552.207-15.523 1.038-2.078 3.468 5.224 3.423 9.453-.044 4.007-1.867 7.391-2.34 7.598 2.34 3.013 5.526 6.946 9.112 12.57-.103-6.96.92-14.247 5.335-19.604.474-.579 1.185-.074 1.334.95 1.644 12.139-4.624 19.782-5.987 19.722 4.045 6.07 7.35 12.971 9.825 19.337 1.037 2.716.874 2.464.696 2.538-.178.074-.133.356-1.215-2.375-1.645-4.199-2.667-7.761-9.899-19.514-.31.549-4.949 1.899-9.572 1.78-4.194-.089-7.958-1.187-10.15-1.81-.86-.312-1.068-.994-.416-1.336z" fill="#A6B6B6"/></symbol><symbol viewBox="0 0 213 206" fill="none" id="decor5" xmlns="http://www.w3.org/2000/svg"><path fill-rule="evenodd" clip-rule="evenodd" d="M179.412 206c.907-.979 1.797-1.992 2.737-2.954 2.104-2.13 4.243-4.242 6.33-6.372.633-.652 1.334-1.048 2.224-1.288 6.517-1.717 13.018-3.486 19.518-5.255.616-.172 1.215-.344 1.967-.567-.205-.79-.359-1.477-.547-2.147-1.728-6.475-3.438-12.967-5.183-19.425-.24-.893-.257-1.683 0-2.576 1.847-6.819 3.643-13.637 5.457-20.455.068-.275.136-.567.256-1.065-.53-.189-1.06-.395-1.591-.533-6.5-1.751-13.018-3.52-19.518-5.255-1.112-.292-2.002-.79-2.823-1.632-4.653-4.74-9.357-9.429-14.044-14.117-.445-.447-.924-.859-1.471-1.392-.548.516-1.027.928-1.471 1.392-4.688 4.705-9.392 9.394-14.045 14.117-.821.825-1.71 1.34-2.822 1.632a3483.775 3483.775 0 0 0-19.365 5.204c-.547.154-1.095.326-1.745.532.188.79.342 1.477.514 2.147 1.71 6.475 3.421 12.967 5.183 19.425.239.893.239 1.7 0 2.576a2734.328 2734.328 0 0 0-5.184 19.425c-.188.67-.342 1.34-.547 2.13 1.146.326 2.156.635 3.165.91 6.107 1.649 12.214 3.28 18.321 4.963.65.172 1.368.447 1.847.911 3.097 3.04 6.159 6.148 9.221 9.223.119.12.171.292.256.446h-2.104c-2.686-2.714-5.354-5.462-8.074-8.124-.548-.532-1.369-.876-2.138-1.082-6.894-1.889-13.805-3.744-20.699-5.616-.548-.154-1.095-.343-1.745-.532 1.009-3.762 1.967-7.403 2.925-11.026 1.027-3.865 2.036-7.746 3.096-11.593.257-.945.24-1.804-.017-2.766-1.881-6.921-3.712-13.86-5.559-20.798-.154-.55-.257-1.117-.411-1.838a94.747 94.747 0 0 1 1.899-.55c6.843-1.837 13.685-3.709 20.545-5.513a5.279 5.279 0 0 0 2.514-1.477c4.961-5.015 9.939-9.996 14.9-15.011.445-.446.77-1.03 1.249-1.7.77.721 1.232 1.134 1.659 1.58 4.893 4.912 9.802 9.807 14.661 14.753 1.026 1.048 2.172 1.666 3.575 2.044 6.688 1.752 13.36 3.555 20.049 5.359.547.154 1.094.343 1.761.549-.29 1.117-.53 2.147-.804 3.143-1.727 6.475-3.438 12.967-5.2 19.425-.257.945-.274 1.803-.017 2.765 1.882 6.922 3.712 13.86 5.56 20.799.154.567.273 1.133.427 1.838-.598.188-1.129.377-1.693.532-6.911 1.872-13.805 3.744-20.716 5.582-.992.257-1.813.687-2.532 1.443-2.532 2.627-5.115 5.186-7.681 7.78-.667.034-1.368.034-2.07.034zM131.292 38.768c2.994-.807 5.799-1.58 8.622-2.336 4.635-1.254 9.271-2.524 13.924-3.727.958-.24 1.694-.687 2.378-1.374 4.995-5.05 10.024-10.081 15.037-15.114.444-.446.923-.875 1.471-1.408.53.498 1.009.91 1.454 1.357 5.012 5.032 10.041 10.064 15.036 15.114.736.738 1.523 1.185 2.532 1.46a4466.367 4466.367 0 0 1 20.374 5.478c.667.172 1.317.378 2.087.584-.53 2.044-1.009 3.916-1.505 5.771-1.506 5.633-2.977 11.25-4.516 16.866a4.993 4.993 0 0 0 0 2.748c1.881 6.921 3.712 13.86 5.559 20.781.154.567.257 1.134.428 1.82-.616.19-1.146.379-1.694.533a4087.103 4087.103 0 0 1-20.716 5.582c-.992.258-1.796.704-2.531 1.443-4.944 5.015-9.939 9.996-14.9 15.011-.462.463-.804 1.013-1.317 1.666-.719-.653-1.181-1.065-1.625-1.495-5.013-5.032-10.042-10.064-15.037-15.113-.77-.79-1.625-1.254-2.686-1.529-6.859-1.82-13.685-3.675-20.545-5.53-.547-.155-1.094-.327-1.779-.533.274-1.099.514-2.112.787-3.125 1.728-6.527 3.473-13.07 5.235-19.597.239-.893.239-1.7 0-2.576-1.882-6.922-3.712-13.86-5.543-20.782-.205-.584-.325-1.15-.53-1.975zm1.984 1.185c.189.79.308 1.374.462 1.94 1.66 6.252 3.302 12.504 5.03 18.739.41 1.477.427 2.816.034 4.293-1.745 6.286-3.404 12.607-5.081 18.91-.154.601-.274 1.202-.41 1.872.752.223 1.3.395 1.864.55 6.501 1.751 13.001 3.52 19.519 5.238.958.257 1.693.704 2.377 1.391 4.756 4.792 9.529 9.584 14.301 14.358.445.447.907.859 1.643 1.529.496-.653.838-1.22 1.3-1.683 4.584-4.638 9.22-9.223 13.788-13.878.94-.961 1.984-1.545 3.267-1.889 6.346-1.666 12.676-3.383 19.022-5.084.599-.154 1.181-.36 1.831-.566-.223-.876-.377-1.563-.565-2.233-1.711-6.424-3.387-12.847-5.132-19.253-.256-.945-.256-1.803.017-2.748 1.762-6.475 3.473-12.95 5.184-19.425.171-.653.307-1.322.496-2.06-.685-.207-1.198-.362-1.694-.499-6.449-1.735-12.898-3.486-19.364-5.204-1.181-.31-2.105-.859-2.96-1.735-4.653-4.74-9.357-9.429-14.044-14.117-.445-.447-.924-.842-1.694-1.563-.479.67-.804 1.27-1.249 1.717-4.584 4.637-9.22 9.223-13.77 13.878-.941.961-1.985 1.528-3.285 1.872-6.346 1.666-12.676 3.4-19.022 5.1a30.26 30.26 0 0 0-1.865.55zM131.292-65.088c.753-.206 1.403-.413 2.07-.584 6.791-1.838 13.565-3.676 20.374-5.479a5.325 5.325 0 0 0 2.531-1.46c4.944-5.015 9.939-9.996 14.9-14.993.445-.464.804-1.014 1.334-1.666.685.635 1.147 1.047 1.591 1.494 5.013 5.032 10.042 10.064 15.037 15.114.77.772 1.608 1.27 2.668 1.545 6.792 1.787 13.583 3.641 20.374 5.462.616.172 1.215.36 2.002.601-.171.687-.325 1.305-.479 1.906-1.848 6.94-3.678 13.86-5.543 20.8a4.718 4.718 0 0 0 0 2.575c1.865 6.922 3.712 13.86 5.543 20.8.154.566.291 1.133.479 1.888-.565.19-1.095.395-1.625.533a4076.618 4076.618 0 0 1-20.716 5.582c-1.061.274-1.916.738-2.686 1.528-4.944 5.015-9.922 9.996-14.9 14.994-.444.446-.906.893-1.471 1.425-.547-.515-1.026-.927-1.471-1.374-4.978-4.997-9.956-9.978-14.9-14.993-.821-.825-1.71-1.323-2.839-1.615-6.86-1.803-13.686-3.675-20.528-5.53-.548-.155-1.095-.343-1.745-.55.992-3.76 1.95-7.385 2.925-11.009 1.044-3.916 2.121-7.831 3.096-11.764a5.096 5.096 0 0 0 0-2.388c-1.813-6.99-3.695-13.98-5.559-20.97-.154-.584-.274-1.151-.462-1.872zm1.95 1.15c.223.894.394 1.563.582 2.25 1.727 6.475 3.421 12.967 5.183 19.425.222.825.222 1.58 0 2.405-1.762 6.526-3.49 13.07-5.235 19.596-.171.653-.325 1.323-.496 2.061.804.24 1.403.43 2.019.601 6.398 1.735 12.778 3.47 19.176 5.153 1.078.274 1.916.755 2.669 1.545 4.704 4.775 9.443 9.498 14.181 14.238.445.447.907.86 1.694 1.615.479-.67.787-1.254 1.231-1.718 4.705-4.757 9.46-9.497 14.164-14.255.685-.687 1.42-1.133 2.378-1.374 6.518-1.717 13.018-3.486 19.519-5.255.598-.155 1.197-.361 1.881-.55-.222-.859-.376-1.546-.547-2.215-1.728-6.475-3.438-12.967-5.183-19.425-.223-.825-.24-1.563-.017-2.405 1.779-6.526 3.489-13.07 5.234-19.596.171-.67.325-1.34.496-2.096-.889-.257-1.608-.48-2.343-.67-6.278-1.683-12.556-3.383-18.852-5.049-1.06-.275-1.916-.755-2.685-1.546-4.705-4.774-9.443-9.497-14.164-14.237-.445-.447-.924-.86-1.455-1.34-.581.567-1.043 1.013-1.488 1.46-4.687 4.706-9.391 9.394-14.044 14.117-.77.79-1.625 1.271-2.669 1.546-6.295 1.649-12.573 3.366-18.851 5.05-.719.189-1.437.412-2.378.67zM83.377-37.231c.376.532.684 1.133 1.129 1.58 4.96 5.015 9.956 9.995 14.9 15.01.77.79 1.625 1.271 2.668 1.546 6.74 1.786 13.48 3.59 20.22 5.41.667.172 1.334.378 2.104.619-.171.72-.291 1.356-.444 1.958-1.848 6.938-3.678 13.877-5.56 20.798a4.424 4.424 0 0 0 0 2.405c1.882 6.921 3.712 13.86 5.56 20.799.153.566.29 1.133.478 1.906-.65.206-1.231.395-1.83.55-6.911 1.854-13.805 3.744-20.716 5.564a5.12 5.12 0 0 0-2.378 1.374c-4.995 5.05-10.024 10.082-15.036 15.114-.445.447-.924.876-1.471 1.408-.53-.498-1.01-.927-1.454-1.374-4.978-4.998-9.956-9.978-14.917-14.993-.77-.773-1.574-1.288-2.652-1.58-6.86-1.804-13.702-3.659-20.544-5.514-.565-.154-1.112-.326-1.865-.55.154-.652.29-1.27.462-1.854 1.847-6.939 3.678-13.877 5.56-20.799.239-.893.222-1.7-.018-2.576-1.864-6.87-3.678-13.74-5.508-20.627-.171-.618-.29-1.236-.479-1.992.753-.224 1.403-.447 2.07-.619 6.74-1.803 13.48-3.623 20.22-5.41 1.112-.292 2.001-.824 2.822-1.648 4.91-4.981 9.854-9.91 14.78-14.874.445-.464.804-1.013 1.198-1.528.222-.035.462-.07.701-.103zM43.485-11.933c.24.893.41 1.58.581 2.25 1.711 6.423 3.405 12.847 5.15 19.27.239.893.239 1.683 0 2.577-1.763 6.474-3.473 12.95-5.2 19.424-.172.67-.326 1.34-.514 2.113.838.24 1.505.43 2.19.618 6.346 1.7 12.675 3.435 19.022 5.101a5.47 5.47 0 0 1 2.668 1.546c4.705 4.774 9.443 9.497 14.165 14.238.444.446.906.858 1.727 1.631.462-.67.77-1.27 1.215-1.734 4.704-4.758 9.443-9.498 14.164-14.255.684-.688 1.42-1.134 2.378-1.374 6.466-1.7 12.898-3.453 19.347-5.187.667-.172 1.3-.395 2.036-.619-.205-.858-.359-1.545-.547-2.215-1.711-6.424-3.405-12.847-5.15-19.253-.239-.893-.256-1.683-.017-2.576 1.762-6.475 3.473-12.95 5.201-19.425.171-.67.325-1.34.496-2.078-.719-.206-1.266-.395-1.831-.533-6.449-1.752-12.898-3.503-19.364-5.204-1.061-.274-1.916-.738-2.686-1.528-4.704-4.775-9.443-9.515-14.164-14.255-.445-.447-.907-.86-1.437-1.357-.582.567-1.043 1.013-1.488 1.46-4.687 4.706-9.392 9.394-14.045 14.117-.77.79-1.625 1.271-2.668 1.546-4.482 1.168-8.947 2.387-13.429 3.59-2.497.652-5.029 1.356-7.8 2.112zM41.552 90.808c1.266-.36 2.395-.687 3.507-.996 6.278-1.683 12.573-3.384 18.85-5.033 1.062-.274 1.9-.772 2.67-1.545 4.943-5.015 9.938-9.996 14.9-15.011.444-.447.786-1.013 1.265-1.615.736.687 1.215 1.1 1.642 1.546 4.978 4.998 9.973 9.979 14.917 14.994.821.824 1.711 1.34 2.823 1.649 6.74 1.786 13.48 3.59 20.22 5.41.667.171 1.317.395 2.104.635-.65 2.473-1.249 4.792-1.882 7.11-1.369 5.17-2.737 10.34-4.157 15.509-.239.894-.257 1.684-.017 2.577 1.865 6.87 3.678 13.74 5.508 20.627.154.618.308 1.236.496 2.026-.667.189-1.266.378-1.864.55-6.672 1.786-13.343 3.607-20.032 5.358-1.351.361-2.429.962-3.421 1.976-4.807 4.912-9.683 9.755-14.524 14.633-.462.463-.838.996-1.368 1.648-.65-.601-1.13-1.013-1.574-1.442-5.012-5.033-10.041-10.065-15.036-15.114-.77-.79-1.608-1.254-2.686-1.546-6.86-1.803-13.703-3.675-20.545-5.513-.565-.155-1.112-.344-1.813-.567.17-.687.325-1.288.479-1.906 1.847-6.939 3.677-13.878 5.56-20.799a4.418 4.418 0 0 0 0-2.405c-1.883-6.921-3.713-13.86-5.56-20.798-.137-.584-.274-1.151-.462-1.958zm1.95 46.715c.735.224 1.283.413 1.847.567 6.347 1.7 12.676 3.418 19.023 5.084 1.283.343 2.326.91 3.284 1.872 4.602 4.706 9.272 9.343 13.908 13.997.445.447.924.859 1.454 1.357.564-.532 1.026-.962 1.488-1.425 4.722-4.74 9.46-9.481 14.181-14.238.685-.687 1.42-1.134 2.378-1.391 6.466-1.701 12.898-3.452 19.348-5.204.667-.172 1.317-.395 2.052-.601-.171-.739-.273-1.306-.427-1.855-1.677-6.303-3.353-12.624-5.081-18.91-.376-1.339-.411-2.576-.034-3.95 1.745-6.286 3.404-12.606 5.098-18.91.171-.6.273-1.219.444-1.94-.684-.206-1.231-.378-1.779-.533-6.449-1.734-12.898-3.503-19.364-5.204-1.129-.292-2.002-.824-2.806-1.648-4.653-4.724-9.357-9.43-14.044-14.118-.445-.447-.924-.859-1.471-1.374-.548.55-1.01.979-1.472 1.442-4.687 4.706-9.39 9.395-14.044 14.118-.77.79-1.608 1.288-2.668 1.563-6.57 1.735-13.138 3.52-19.707 5.29-.496.137-.975.326-1.557.532.206.79.377 1.46.548 2.13 1.693 6.303 3.352 12.624 5.08 18.91.308 1.116.342 2.146.017 3.263-.923 3.28-1.796 6.578-2.668 9.875-1.01 3.693-2.002 7.386-3.028 11.301zM124.569 42.632c1.009 3.744 1.967 7.316 2.925 10.889.719 2.662 1.471 5.324 2.121 8.02.171.722.24 1.546.069 2.233-1.608 6.2-3.285 12.4-4.944 18.583-.034.172-.154.31-.308.584-.53-.12-1.095-.206-1.642-.36-5.662-1.512-11.325-3.023-16.97-4.586-.752-.206-1.573-.567-2.121-1.117-4.516-4.448-8.98-8.965-13.463-13.465-.154-.171-.29-.36-.513-.618.36-.395.667-.79 1.026-1.15 4.192-4.208 8.383-8.4 12.557-12.624a5.324 5.324 0 0 1 2.531-1.46c5.782-1.529 11.547-3.109 17.329-4.654.394-.086.787-.155 1.403-.275zm-1.215 2.044c-.325.051-.547.068-.769.12-5.492 1.46-10.983 2.902-16.457 4.431-.684.189-1.351.704-1.864 1.22-3.798 3.76-7.561 7.556-11.325 11.335-.308.309-.581.687-.906 1.065.427.463.786.858 1.146 1.236 3.643 3.659 7.304 7.3 10.914 10.992.769.79 1.625 1.271 2.685 1.546 4.636 1.202 9.272 2.473 13.925 3.71l2.583.687c.188-.498.359-.86.479-1.254 1.42-5.273 2.805-10.563 4.242-15.835.24-.893.137-1.718-.102-2.594-1.352-4.998-2.686-9.995-4.02-14.976-.171-.55-.342-1.1-.531-1.683zM131.258 31.038c-.222-.704-.427-1.253-.564-1.803a2065.04 2065.04 0 0 1-4.516-17.055c-.189-.704-.291-1.545-.103-2.232 1.591-6.149 3.25-12.28 4.892-18.412.052-.223.189-.412.325-.704.479.103.941.172 1.369.292 5.833 1.563 11.667 3.109 17.483 4.706.65.172 1.351.498 1.813.962 4.67 4.62 9.306 9.291 14.027 14.032-.376.429-.701.824-1.077 1.185-4.191 4.207-8.365 8.415-12.574 12.606-.513.515-1.18 1.03-1.864 1.22-6.313 1.734-12.659 3.417-19.211 5.203zm1.061-2.06c.701-.155 1.214-.258 1.728-.396 5.029-1.356 10.058-2.73 15.087-4.053.958-.24 1.694-.687 2.378-1.374 3.661-3.727 7.373-7.402 11.051-11.112.359-.36.701-.773 1.061-1.15-.154-.207-.24-.361-.36-.482-4.02-4.036-8.005-8.089-12.06-12.09-.513-.499-1.248-.86-1.95-1.066-5.132-1.425-10.281-2.782-15.43-4.156-.445-.12-.889-.154-1.42-.258-.154.396-.308.705-.393 1.031-1.437 5.341-2.874 10.666-4.243 16.007-.171.687-.102 1.511.069 2.233.53 2.232 1.163 4.43 1.762 6.646.872 3.367 1.779 6.698 2.72 10.22zM41.57 42.7c.478.087.94.155 1.385.275 5.833 1.563 11.666 3.126 17.483 4.724.598.171 1.265.429 1.693.841 4.704 4.672 9.374 9.378 14.164 14.187-.308.377-.564.755-.872 1.064-4.311 4.329-8.605 8.674-12.95 12.985-.479.48-1.112.91-1.745 1.099-6.33 1.752-12.659 3.435-19.142 5.187-.17-.447-.359-.86-.479-1.288-1.59-5.909-3.182-11.817-4.738-17.725-.171-.653-.257-1.426-.086-2.078 1.608-6.2 3.285-12.383 4.944-18.583.051-.224.188-.413.342-.687zm32.467 20.284c-.274-.395-.36-.55-.496-.67-4.054-4.087-8.091-8.175-12.197-12.211-.479-.464-1.163-.773-1.813-.962-5.132-1.425-10.281-2.8-15.43-4.173-.48-.138-.992-.172-1.488-.24-.12.343-.223.549-.291.79-1.471 5.444-2.943 10.888-4.345 16.35-.171.704-.103 1.528.068 2.233 1.334 5.17 2.737 10.339 4.123 15.508.12.447.308.86.479 1.357.359-.051.65-.068.924-.137 5.371-1.443 10.742-2.868 16.097-4.362.735-.207 1.488-.688 2.035-1.237 3.028-2.954 5.97-5.977 8.964-8.965 1.095-1.117 2.207-2.165 3.37-3.28zM131.257 94.69c.53.12.975.188 1.42.309 5.833 1.563 11.667 3.108 17.483 4.706.599.154 1.266.429 1.693.858 4.722 4.672 9.392 9.378 14.13 14.152-.393.43-.735.825-1.112 1.203-4.191 4.207-8.365 8.432-12.573 12.589-.564.549-1.3 1.047-2.036 1.254-5.987 1.665-11.991 3.263-17.996 4.877-.273.069-.564.138-.94.223-.154-.309-.343-.601-.428-.927a2171.607 2171.607 0 0 1-4.807-18.068c-.171-.653-.205-1.425-.034-2.061 1.591-6.149 3.25-12.28 4.892-18.411.052-.19.137-.344.308-.705zm1.095 38.128c.376-.069.65-.103.924-.172 5.422-1.46 10.862-2.885 16.268-4.397.684-.189 1.351-.67 1.882-1.185 3.797-3.761 7.544-7.557 11.324-11.335.308-.309.565-.687.89-1.065-4.26-4.277-8.434-8.485-12.642-12.658-.428-.429-1.078-.687-1.676-.842a2659.338 2659.338 0 0 0-15.602-4.207c-.427-.12-.889-.12-1.334-.19-.12.327-.239.533-.291.756-1.471 5.445-2.942 10.889-4.345 16.351-.171.687-.068 1.511.12 2.233 1.283 4.946 2.634 9.875 3.952 14.821.137.602.325 1.203.53 1.89zM34.64 31.004c-4.96-1.322-9.784-2.817-14.694-3.881-3.78-.808-6.74-2.542-9.306-5.428-2.96-3.332-6.26-6.372-9.408-9.532A31.72 31.72 0 0 1 0 10.841C3.455 7.354 6.86 3.954 10.247.536c1.454-1.46 2.737-3.229 4.447-4.225 1.711-.996 3.884-1.237 5.868-1.77 4.242-1.15 8.485-2.283 12.744-3.417.445-.12.89-.206 1.437-.31.154.447.325.808.428 1.186 1.59 5.908 3.182 11.816 4.721 17.724.171.653.223 1.426.069 2.061-1.608 6.2-3.285 12.384-4.944 18.584-.069.154-.188.309-.376.635zM2.327 10.806c.24.292.36.499.53.653 3.97 4.002 7.938 8.004 11.941 11.954a4.22 4.22 0 0 0 1.796.996c5.132 1.425 10.281 2.8 15.43 4.19.496.138 1.01.207 1.557.327.12-.292.24-.498.29-.704 1.489-5.496 2.977-11.01 4.397-16.523.171-.635.069-1.408-.085-2.06-1.352-5.17-2.737-10.34-4.123-15.51-.12-.429-.308-.858-.462-1.27-.274.017-.445-.017-.616.034A2676.657 2676.657 0 0 0 16.2-2.573c-.48.138-.958.447-1.317.79-4.174 4.157-8.297 8.33-12.557 12.59zM214.311-9.185c.256.962.496 1.855.735 2.765 1.42 5.341 2.874 10.666 4.26 16.024.188.704.273 1.546.085 2.233-1.591 6.148-3.25 12.28-4.892 18.411-.052.224-.188.413-.359.756-1.54-.412-3.062-.807-4.568-1.22-4.704-1.253-9.408-2.49-14.096-3.812-.752-.206-1.556-.584-2.104-1.134-4.482-4.414-8.895-8.88-13.326-13.345-.154-.171-.307-.36-.547-.635.308-.344.599-.67.907-.979 4.225-4.242 8.45-8.502 12.71-12.727.564-.55 1.283-1.064 2.035-1.27 6.09-1.7 12.214-3.315 18.321-4.964.171-.052.36-.052.839-.103zm-1.283 38.197c.171-.43.273-.636.325-.859 1.471-5.444 2.942-10.889 4.362-16.35.171-.687.085-1.529-.103-2.233-1.317-5.118-2.703-10.22-4.071-15.337-.12-.447-.291-.876-.462-1.426-.565.12-1.078.206-1.574.327-4.413 1.185-8.793 2.473-13.24 3.52-2.327.55-4.14 1.598-5.782 3.332-3.456 3.676-7.082 7.18-10.726 10.82.445.481.838.91 1.232 1.323 2.566 2.576 5.132 5.17 7.698 7.729 1.402 1.408 2.651 3.125 4.328 4.104 1.659.98 3.763 1.203 5.679 1.718 4.088 1.133 8.16 2.215 12.334 3.332zM179.481 114.698c4.756-4.775 9.391-9.447 14.044-14.084.394-.395.958-.704 1.489-.859a3239.86 3239.86 0 0 1 18.509-4.98c.171-.052.342-.035.633-.052.137.344.342.687.445 1.065 1.608 5.96 3.216 11.919 4.772 17.896.154.601.223 1.306.069 1.907-1.625 6.2-3.285 12.383-4.944 18.583-.051.206-.205.395-.376.704-2.464-.653-4.876-1.305-7.305-1.958-3.849-1.03-7.715-2.044-11.547-3.126a4.593 4.593 0 0 1-1.933-1.082c-4.43-4.379-8.81-8.81-13.206-13.224-.188-.224-.359-.447-.65-.79zm33.683-18c-.479.069-.77.086-1.044.155-5.371 1.443-10.743 2.85-16.114 4.362-.736.206-1.471.722-2.019 1.271a1702.61 1702.61 0 0 0-11.068 11.095c-.359.361-.701.756-1.06 1.151.205.24.325.446.496.601 3.969 4.002 7.937 8.004 11.94 11.954.513.498 1.266.841 1.967 1.047 5.081 1.409 10.162 2.766 15.259 4.14.497.137 1.01.206 1.591.343.188-.567.36-1.065.496-1.563.924-3.452 1.865-6.921 2.789-10.391.547-2.043 1.454-4.087 1.454-6.148 0-2.044-.924-4.105-1.471-6.149a1216.366 1216.366 0 0 1-3.216-11.868z" fill="#fff"/><path fill-rule="evenodd" clip-rule="evenodd" d="M143.455 149.666l8.228-2.25c2.429-.653 4.858-1.322 7.305-1.941.941-.24 1.693-.687 2.378-1.391 3.25-3.315 6.534-6.578 9.802-9.875.444-.464.804-1.014 1.334-1.684.65.602 1.078.962 1.471 1.357 3.37 3.366 6.74 6.716 10.059 10.116.769.79 1.625 1.271 2.685 1.546 4.482 1.168 8.93 2.387 13.412 3.589.564.155 1.112.327 1.847.533-.102.532-.154 1.048-.273 1.528-1.249 4.724-2.481 9.447-3.781 14.152-.257.945-.24 1.821.017 2.766 1.283 4.706 2.515 9.429 3.781 14.152.102.395.188.79.308 1.374-.497.172-.958.378-1.437.515-4.636 1.254-9.272 2.542-13.925 3.744-1.078.275-1.899.79-2.669 1.563-3.66 3.727-7.355 7.42-11.187 11.267-.462-.43-.873-.79-1.266-1.185-3.404-3.401-6.809-6.802-10.196-10.237-.684-.687-1.437-1.116-2.377-1.374-4.705-1.236-9.392-2.507-14.096-3.778-.394-.103-.787-.24-1.334-.412.085-.515.154-1.013.273-1.494 1.249-4.723 2.481-9.447 3.781-14.153.256-.944.239-1.82-.017-2.765a1814.565 1814.565 0 0 1-3.729-13.98c-.172-.532-.257-1.048-.394-1.683zm2.002 32.821c.667.206 1.197.412 1.761.55 4.123 1.116 8.263 2.25 12.403 3.314 1.06.275 1.916.756 2.668 1.546 3.045 3.109 6.124 6.166 9.186 9.24.394.395.839.756 1.301 1.168.547-.515.975-.91 1.385-1.322 3.028-3.04 6.073-6.063 9.067-9.12.718-.739 1.522-1.22 2.514-1.477 4.14-1.082 8.263-2.199 12.402-3.315.599-.155 1.198-.344 1.899-.55-.171-.755-.291-1.322-.445-1.872-1.111-4.208-2.206-8.415-3.352-12.606-.257-.945-.24-1.821.017-2.765 1.146-4.191 2.258-8.399 3.353-12.606.153-.55.256-1.117.393-1.77-.479-.171-.838-.326-1.215-.429-4.242-1.151-8.467-2.336-12.727-3.418-1.249-.309-2.224-.91-3.113-1.82-2.908-2.989-5.868-5.926-8.81-8.88-.445-.446-.924-.841-1.694-1.545-.478.652-.821 1.236-1.265 1.683-2.96 3.005-5.971 5.977-8.93 9.017-.736.738-1.522 1.202-2.532 1.459-4.362 1.151-8.707 2.336-13.069 3.521-.376.103-.736.275-1.197.447.153.652.273 1.219.41 1.769 1.112 4.208 2.207 8.416 3.37 12.606a4.9 4.9 0 0 1-.017 2.765c-1.163 4.191-2.258 8.399-3.353 12.607-.137.566-.257 1.133-.41 1.803zM143.438 45.775c5.183-1.391 10.076-2.748 15.019-4.019 1.301-.326 2.327-.927 3.268-1.89 3.182-3.28 6.449-6.508 9.682-9.754.411-.413.838-.79 1.334-1.237.496.464.941.842 1.335 1.237 3.318 3.332 6.654 6.63 9.939 9.995.769.79 1.625 1.271 2.668 1.546 4.533 1.185 9.067 2.405 13.583 3.624.547.155 1.094.343 1.744.55-.136.6-.239 1.116-.376 1.614-1.232 4.654-2.446 9.326-3.729 13.98a5.055 5.055 0 0 0 0 2.765c1.266 4.655 2.497 9.31 3.729 13.98.137.499.223.997.359 1.615-.65.206-1.197.378-1.744.533-4.585 1.236-9.152 2.507-13.754 3.692-.958.24-1.694.687-2.378 1.374-3.336 3.384-6.706 6.75-10.058 10.116-.411.413-.839.79-1.335 1.237-.496-.464-.923-.842-1.334-1.254-3.353-3.366-6.723-6.732-10.059-10.116-.684-.687-1.419-1.133-2.377-1.374-4.602-1.202-9.17-2.456-13.754-3.693-.547-.154-1.095-.343-1.745-.532.137-.618.222-1.116.359-1.614 1.232-4.655 2.447-9.326 3.73-13.98a5.074 5.074 0 0 0 0-2.766 1873.036 1873.036 0 0 1-3.73-13.98c-.119-.481-.222-.98-.376-1.649zm56.605 1.22c-.564-.172-.889-.292-1.214-.395-4.345-1.168-8.707-2.37-13.07-3.504-.992-.258-1.796-.704-2.531-1.46-2.994-3.074-6.039-6.097-9.067-9.12-.445-.446-.924-.859-1.437-1.34-.53.516-.975.893-1.385 1.306-3.028 3.04-6.073 6.045-9.067 9.12-.77.79-1.625 1.253-2.686 1.528-4.02 1.03-8.04 2.13-12.042 3.212-.668.189-1.318.412-2.087.635.154.67.256 1.237.41 1.804 1.095 4.156 2.173 8.312 3.319 12.434.291 1.065.325 2.027.017 3.092-1.163 4.19-2.258 8.398-3.37 12.606-.137.55-.222 1.1-.342 1.718.718.223 1.283.395 1.83.55 4.123 1.116 8.263 2.25 12.402 3.314a5.02 5.02 0 0 1 2.515 1.477c3.045 3.109 6.124 6.166 9.186 9.24.394.395.838.773 1.317 1.202.514-.48.941-.876 1.352-1.288 3.028-3.04 6.073-6.063 9.066-9.12a5.47 5.47 0 0 1 2.669-1.545c4.14-1.065 8.262-2.199 12.402-3.315.547-.155 1.095-.344 1.762-.55-.154-.67-.274-1.236-.428-1.786-1.112-4.208-2.206-8.416-3.353-12.606-.256-.945-.273-1.804-.017-2.765 1.078-3.916 2.104-7.832 3.148-11.748.256-.842.445-1.683.701-2.697zM112.304-6.024c-.239.962-.41 1.752-.633 2.542-1.111 4.14-2.172 8.296-3.352 12.435-.394 1.357-.36 2.61.034 3.95 1.214 4.362 2.361 8.742 3.524 13.122.137.55.256 1.116.41 1.786-1.881.515-3.626 1.013-5.371 1.477-3.285.876-6.552 1.786-9.853 2.61-1.112.292-2.019.79-2.84 1.632-3.199 3.28-6.466 6.492-9.682 9.755-.445.464-.77 1.048-1.266 1.7-.77-.704-1.232-1.116-1.677-1.545-3.147-3.16-6.329-6.286-9.425-9.498-1.06-1.099-2.224-1.786-3.695-2.164-4.43-1.116-8.827-2.353-13.24-3.538-.445-.12-.89-.275-1.438-.446.069-.498.103-.945.206-1.374 1.248-4.724 2.48-9.447 3.78-14.153.257-.944.274-1.803.017-2.747C56.537 4.934 55.34.314 54.125-4.29c-.154-.55-.256-1.116-.41-1.786 2.925-.79 5.68-1.546 8.45-2.302 2.31-.618 4.636-1.253 6.963-1.854.992-.258 1.796-.705 2.531-1.46 3.285-3.367 6.62-6.664 9.922-10.013.41-.412.719-.945 1.163-1.529.685.618 1.112.98 1.506 1.374 3.319 3.332 6.654 6.63 9.922 9.996.855.893 1.83 1.374 2.976 1.683 4.431 1.15 8.827 2.353 13.24 3.555.565.172 1.13.36 1.916.601zm-2.035 32.667c-.154-.687-.257-1.254-.411-1.803-1.112-4.208-2.207-8.433-3.353-12.624-.273-.945-.239-1.803.017-2.748a1040.26 1040.26 0 0 0 3.353-12.623c.154-.55.223-1.1.342-1.718-.667-.206-1.163-.36-1.676-.498-4.191-1.134-8.365-2.284-12.573-3.383-1.01-.258-1.796-.739-2.532-1.478-2.994-3.074-6.039-6.097-9.066-9.12-.445-.446-.907-.84-1.745-1.614-.462.67-.77 1.271-1.215 1.735-3.01 3.057-6.055 6.08-9.066 9.137-.65.652-1.352 1.065-2.241 1.288-4.311 1.133-8.605 2.301-12.916 3.47-.496.137-.957.326-1.522.532.171.704.29 1.27.445 1.837 1.112 4.208 2.258 8.416 3.318 12.624.189.756.206 1.649.018 2.387-1.078 4.277-2.241 8.536-3.37 12.796-.137.55-.257 1.116-.394 1.751.701.224 1.249.412 1.813.567 4.072 1.1 8.143 2.216 12.232 3.263 1.111.292 2.018.79 2.822 1.615 2.994 3.074 6.039 6.097 9.066 9.137.411.412.839.773 1.335 1.236.496-.463.924-.841 1.334-1.253 3.028-3.04 6.073-6.063 9.066-9.12a5.666 5.666 0 0 1 2.67-1.58c4.088-1.048 8.159-2.164 12.23-3.264.667-.137 1.266-.326 2.019-.55zM53.715 97.798c3.866-1.048 7.527-2.027 11.205-3.04 1.864-.498 3.917-.704 5.525-1.632 1.608-.927 2.823-2.61 4.208-3.967 2.327-2.319 4.636-4.655 6.962-6.99.411-.413.839-.808 1.352-1.289.479.43.907.79 1.317 1.203 3.37 3.366 6.74 6.715 10.059 10.116.735.755 1.54 1.202 2.531 1.46a3059.09 3059.09 0 0 1 13.412 3.589c.616.172 1.232.343 2.001.567-.154.652-.256 1.22-.41 1.769-1.215 4.603-2.412 9.205-3.678 13.808-.257.945-.24 1.804.017 2.748 1.266 4.586 2.463 9.206 3.678 13.809.137.498.239 1.013.393 1.666-.616.189-1.163.395-1.71.532-4.585 1.237-9.152 2.508-13.754 3.693-1.01.257-1.796.738-2.515 1.477-3.25 3.315-6.534 6.578-9.819 9.875-.444.447-.906.894-1.47 1.443-.531-.498-1.01-.91-1.455-1.357-3.284-3.28-6.569-6.543-9.819-9.875-.821-.842-1.71-1.34-2.823-1.632-4.481-1.168-8.93-2.387-13.411-3.589-.565-.155-1.095-.327-1.796-.55.137-.635.24-1.202.393-1.752 1.13-4.259 2.207-8.536 3.439-12.778.479-1.649.445-3.177-.017-4.809-1.232-4.294-2.327-8.622-3.473-12.95-.12-.429-.205-.893-.342-1.545zm56.571 32.735c-.188-.807-.291-1.374-.445-1.924-1.095-4.156-2.172-8.312-3.319-12.451-.256-.945-.29-1.804-.017-2.748 1.181-4.26 2.293-8.519 3.405-12.796.136-.498.188-.996.29-1.614-.667-.206-1.214-.378-1.762-.533-4.122-1.116-8.245-2.267-12.402-3.332-1.078-.274-1.899-.79-2.668-1.562-2.96-3.023-5.953-6.012-8.947-9-.445-.447-.924-.859-1.454-1.357-.513.498-.958.876-1.369 1.288-3.028 3.04-6.072 6.063-9.066 9.12-.77.79-1.625 1.254-2.686 1.529-4.26 1.099-8.485 2.267-12.744 3.417-.428.12-.855.31-1.386.499.154.652.257 1.219.394 1.769 1.112 4.207 2.206 8.415 3.37 12.623.24.893.24 1.7 0 2.593-1.163 4.26-2.293 8.519-3.422 12.796-.136.532-.205 1.099-.325 1.7.822.223 1.42.412 2.053.584 4.072 1.099 8.143 2.198 12.231 3.263a4.85 4.85 0 0 1 2.378 1.374c3.08 3.143 6.21 6.252 9.323 9.378.394.395.838.755 1.317 1.202 2.156-2.164 4.174-4.208 6.21-6.235 1.796-1.786 3.353-3.967 5.474-5.186 2.053-1.203 4.687-1.409 7.065-2.061 2.771-.773 5.542-1.529 8.502-2.336zM118.069 71.88c-2.959-.79-5.73-1.528-8.502-2.283a1.703 1.703 0 0 1-.752-.413c-2.07-2.06-4.14-4.139-6.33-6.354 1.215-1.237 2.447-2.319 3.49-3.573 1.916-2.318 4.26-3.727 7.236-4.225 1.608-.257 3.165-.824 4.893-1.288.376 1.374.769 2.662 1.111 3.95.445 1.7 1.232 3.418 1.232 5.118 0 1.718-.77 3.418-1.232 5.118-.359 1.306-.752 2.577-1.146 3.95zm-1.094-16.16c-2.361.635-4.499 1.219-6.638 1.82-.325.086-.633.309-.872.55-1.557 1.51-3.079 3.04-4.739 4.688 1.762 1.752 3.404 3.418 5.064 5.067a.656.656 0 0 0 .291.189c2.241.618 4.481 1.219 6.894 1.889a769.47 769.47 0 0 0 1.813-6.801c.051-.224.034-.481-.017-.687a557.711 557.711 0 0 0-1.796-6.716zM153.223 10.858c-2.19 2.199-4.226 4.225-6.261 6.252-.206.189-.479.36-.753.447-2.806.773-5.628 1.511-8.605 2.301-.564-2.113-1.009-4.122-1.659-6.046-.667-1.975-.684-3.847-.017-5.839.65-1.94 1.095-3.95 1.676-6.097 2.994.807 5.868 1.58 8.725 2.387.308.086.598.361.838.601a968.836 968.836 0 0 1 6.056 5.994zm-14.473 7.025c2.361-.636 4.499-1.202 6.638-1.786.273-.069.547-.24.752-.447 1.591-1.563 3.148-3.143 4.842-4.843-1.626-1.58-3.131-3.057-4.636-4.517-.24-.24-.531-.498-.856-.584-2.189-.618-4.379-1.202-6.722-1.838-.633 2.37-1.232 4.569-1.797 6.784-.051.206 0 .464.052.687.513 2.079 1.095 4.174 1.727 6.544zM63.568 62.76c-2.241 2.25-4.311 4.329-6.381 6.39a2.052 2.052 0 0 1-.753.43c-2.77.755-5.525 1.493-8.399 2.266-.188-.43-.41-.773-.513-1.15-.616-2.267-1.232-4.535-1.796-6.819-.137-.55-.223-1.168-.086-1.7.633-2.576 1.334-5.118 2.036-7.677.051-.224.188-.413.342-.722 2.857.773 5.68 1.512 8.485 2.302.325.086.633.326.872.567 2.002 1.958 4.003 3.95 6.193 6.114zm-2.19-.034c-.838-.755-1.59-1.27-2.121-1.957-1.95-2.456-4.43-3.916-7.544-4.346-.89-.12-1.762-.412-2.72-.635-.616 2.301-1.18 4.397-1.745 6.492-.068.223-.137.48-.068.687.581 2.25 1.197 4.517 1.83 6.939 2.378-.653 4.585-1.237 6.774-1.855.257-.07.514-.292.719-.498 1.54-1.512 3.079-3.04 4.875-4.827zM137.605 123.749c-.804-2.988-1.557-5.822-2.31-8.656a1.561 1.561 0 0 1 0-.687c.736-2.834 1.506-5.668 2.293-8.656 3.027.824 5.901 1.597 8.775 2.387.257.069.513.292.719.498a1016.99 1016.99 0 0 1 6.124 6.097c-1.386 1.392-2.789 2.645-4.003 4.054-1.642 1.906-3.592 3.074-6.073 3.503-1.762.31-3.507.911-5.525 1.46zm13.36-9.051a1041.532 1041.532 0 0 0-4.756-4.654c-.205-.206-.462-.395-.718-.481-2.19-.618-4.397-1.202-6.74-1.838a1080.66 1080.66 0 0 0-1.796 6.767c-.052.155-.035.361 0 .515.581 2.199 1.163 4.397 1.796 6.733 2.343-.636 4.482-1.202 6.62-1.786.274-.069.547-.241.753-.43 1.574-1.563 3.147-3.143 4.841-4.826zM28.398 1.876c.803 3.04 1.556 5.857 2.309 8.69.051.172.068.361.034.516-.753 2.885-1.522 5.753-2.343 8.793-3.028-.807-5.885-1.58-8.742-2.353-.222-.051-.428-.206-.599-.36-2.07-2.061-4.122-4.122-6.26-6.27 2.138-2.146 4.156-4.19 6.192-6.2.274-.274.684-.463 1.06-.566 2.703-.756 5.423-1.46 8.349-2.25zM27.25 17.883c.633-2.37 1.198-4.465 1.762-6.56.069-.224.103-.482.052-.688-.582-2.215-1.18-4.414-1.797-6.767-2.343.636-4.55 1.22-6.74 1.838-.256.069-.513.275-.718.48-1.557 1.512-3.096 3.024-4.756 4.638 1.694 1.7 3.268 3.28 4.842 4.843.205.207.479.361.752.447 2.104.567 4.243 1.133 6.603 1.769zM207.758 19.841c-2.908-.773-5.73-1.511-8.536-2.284-.274-.069-.547-.258-.735-.447-2.053-2.026-4.072-4.053-6.227-6.2 2.172-2.164 4.225-4.242 6.295-6.286.239-.223.599-.378.924-.464 2.703-.738 5.422-1.46 8.245-2.215.188.48.376.893.496 1.322.582 2.096 1.112 4.208 1.711 6.303.239.876.273 1.7.034 2.577-.599 2.095-1.146 4.208-1.711 6.303-.119.412-.308.841-.496 1.391zm-13.24-9.034c.65.67 1.231 1.168 1.693 1.752 2.087 2.662 4.773 4.242 8.109 4.723.787.103 1.556.326 2.412.515.616-2.284 1.18-4.397 1.728-6.492.051-.223.102-.48.034-.687-.582-2.215-1.181-4.414-1.796-6.732-2.31.618-4.448 1.185-6.586 1.786-.325.086-.65.292-.89.532-1.539 1.477-3.079 3.006-4.704 4.603zM192.277 114.75c2.155-2.147 4.208-4.225 6.278-6.269.239-.223.599-.378.924-.464 2.702-.738 5.405-1.46 8.245-2.215.188.463.393.858.513 1.288.599 2.147 1.146 4.311 1.745 6.458.222.824.24 1.58.017 2.404-.718 2.525-1.385 5.067-2.121 7.78-1.676-.429-3.216-.944-4.807-1.219-2.994-.515-5.44-1.872-7.373-4.277-.992-1.236-2.207-2.267-3.421-3.486zm14.438-7.008c-2.293.619-4.38 1.168-6.467 1.752a2.204 2.204 0 0 0-.906.481c-1.574 1.546-3.131 3.126-4.79 4.775 1.642 1.631 3.182 3.177 4.704 4.706.171.154.36.343.565.395 2.241.635 4.499 1.254 6.894 1.906.65-2.404 1.231-4.62 1.813-6.818.051-.206 0-.464-.068-.687a1785.32 1785.32 0 0 1-1.745-6.51z" fill="#fff"/><path fill-rule="evenodd" clip-rule="evenodd" d="M190.943 156.175c-.856 3.246-1.694 6.303-2.447 9.378a4.846 4.846 0 0 0 0 2.215c.753 3.075 1.591 6.149 2.447 9.361-.514.189-.976.395-1.455.532-2.429.67-4.858 1.34-7.304 1.941-1.18.292-2.138.807-2.976 1.717-1.643 1.752-3.388 3.435-5.081 5.136-.411.412-.838.79-1.352 1.27-.444-.395-.838-.704-1.214-1.064-1.916-1.907-3.798-3.865-5.748-5.72-.513-.498-1.231-.893-1.933-1.099-2.532-.755-5.08-1.391-7.629-2.095-.565-.155-1.095-.344-1.745-.55.804-3.005 1.539-5.908 2.361-8.793a5.878 5.878 0 0 0 0-3.435c-.822-2.868-1.557-5.771-2.361-8.794.718-.223 1.317-.446 1.916-.601 2.429-.652 4.858-1.322 7.304-1.941a4.564 4.564 0 0 0 2.224-1.288c2.173-2.232 4.379-4.431 6.654-6.732.411.326.787.584 1.095.91 1.916 1.906 3.849 3.796 5.714 5.754.684.704 1.437 1.15 2.378 1.391 2.668.687 5.32 1.425 7.988 2.147.325.068.65.189 1.164.36zm-34.453 19.837c.496.189.855.361 1.232.447 2.087.567 4.174 1.185 6.278 1.683 1.249.292 2.258.841 3.13 1.786 1.472 1.597 3.045 3.109 4.585 4.637.308.309.684.567 1.146.928 1.779-1.804 3.507-3.487 5.115-5.256 1.026-1.133 2.207-1.82 3.712-2.164 2.378-.549 4.738-1.254 7.185-1.923-.086-.533-.137-.928-.24-1.306-.513-1.992-.975-4.001-1.591-5.959-.462-1.46-.496-2.817-.034-4.294.736-2.336 1.283-4.74 1.933-7.213-.547-.207-.975-.378-1.403-.499-2.138-.583-4.293-1.202-6.449-1.734-.992-.241-1.813-.67-2.532-1.443-1.573-1.666-3.216-3.263-4.841-4.878-.308-.309-.684-.566-1.146-.927-1.933 1.975-3.814 3.847-5.628 5.754a5.029 5.029 0 0 1-2.514 1.477c-2.224.549-4.414 1.168-6.621 1.769-.427.12-.838.326-1.3.515.65 2.456 1.198 4.809 1.899 7.11.445 1.46.479 2.817.017 4.294-.735 2.336-1.283 4.74-1.933 7.196zM154.523 73.308c.718-2.749 1.334-5.445 2.155-8.073.496-1.648.531-3.16.017-4.809-.821-2.627-1.436-5.324-2.172-8.14.684-.224 1.283-.43 1.882-.602 2.326-.635 4.636-1.288 6.962-1.855 1.129-.274 2.036-.772 2.84-1.614 1.693-1.786 3.472-3.504 5.217-5.256.411-.412.838-.79 1.369-1.288 1.556 1.563 3.164 2.937 4.499 4.552 2.001 2.421 4.482 3.795 7.561 4.345 2.001.36 3.951 1.048 6.038 1.614-.102.601-.171 1.1-.308 1.598-.615 2.335-1.18 4.688-1.898 6.973-.445 1.425-.377 2.73.034 4.122.667 2.198 1.214 4.43 1.796 6.646.154.55.257 1.134.411 1.838-1.814.498-3.524 1.15-5.304 1.443-3.712.584-6.671 2.301-8.997 5.238-1.095 1.374-2.361 2.593-3.61 3.95-.599-.498-.958-.755-1.283-1.082a453.188 453.188 0 0 1-5.714-5.753c-.632-.653-1.334-1.082-2.223-1.306-2.566-.635-5.098-1.356-7.647-2.06-.53-.087-1.009-.275-1.625-.481zm18.253-29.421c-1.968 1.975-3.781 3.727-5.509 5.547-.923.98-1.933 1.615-3.25 1.907-2.053.463-4.071 1.082-6.107 1.631-.445.12-.855.31-1.403.498.223.825.411 1.546.599 2.285.616 2.335 1.711 4.671 1.694 6.99-.018 2.387-1.095 4.774-1.728 7.179-.188.721-.359 1.443-.53 2.095.239.19.325.292.427.327 1.352.377 2.686.91 4.072 1.099 3.472.515 6.209 2.181 8.416 4.895.958 1.168 2.121 2.147 3.284 3.297 1.249-1.236 2.481-2.25 3.456-3.469 2.138-2.628 4.807-4.174 8.143-4.689 1.522-.24 3.01-.807 4.652-1.254-.461-1.769-.735-3.4-1.317-4.912-1.163-3.057-1.129-6.028.017-9.068.565-1.511.856-3.143 1.283-4.774-.598-.207-1.026-.361-1.471-.499-2.087-.584-4.174-1.185-6.278-1.683-1.146-.275-2.018-.807-2.805-1.648-1.814-1.872-3.644-3.693-5.645-5.754zM64.816.468c.496-.171.924-.343 1.352-.463 2.6-.705 5.2-1.426 7.8-2.096.89-.223 1.591-.635 2.241-1.288 2.156-2.233 4.362-4.431 6.655-6.715.427.343.804.6 1.129.91a451.496 451.496 0 0 1 5.713 5.754 4.844 4.844 0 0 0 2.378 1.374c2.617.652 5.218 1.39 7.818 2.095.393.103.752.258 1.3.447-.513 1.975-.873 3.933-1.557 5.787-1.146 3.126-1.146 6.132 0 9.24.667 1.804 1.027 3.728 1.574 5.806-.667.206-1.249.395-1.847.566-2.481.67-4.996 1.306-7.459 2.044a5.347 5.347 0 0 0-2.07 1.203c-1.882 1.768-3.66 3.64-5.491 5.478-.41.413-.838.79-1.403 1.323-1.163-1.168-2.275-2.285-3.387-3.384-1.471-1.442-2.754-3.211-4.465-4.208-1.659-.979-3.78-1.15-5.696-1.683-1.471-.395-2.925-.807-4.567-1.254.12-.618.205-1.185.342-1.717.667-2.559 1.402-5.1 2.018-7.677a4.846 4.846 0 0 0 0-2.216c-.599-2.507-1.317-5.015-1.967-7.505-.137-.584-.257-1.15-.41-1.82zm18.236 29.266c2.036-2.095 3.917-3.95 5.713-5.874.753-.807 1.626-1.27 2.686-1.528 2.156-.55 4.294-1.134 6.45-1.735.427-.12.838-.309 1.35-.498-.341-1.305-.666-2.49-.974-3.675-.48-1.82-1.335-3.641-1.317-5.462 0-1.872.838-3.761 1.317-5.633.308-1.237.633-2.456.975-3.813-2.036-.55-3.866-1.168-5.748-1.529-2.515-.48-4.55-1.597-6.21-3.59-1.266-1.51-2.771-2.816-4.26-4.31-1.47 1.46-2.89 2.68-4.07 4.105-1.78 2.13-3.952 3.349-6.655 3.847-1.813.326-3.592.962-5.525 1.494.684 2.594 1.265 5.032 1.984 7.437.394 1.288.394 2.473.017 3.778-.718 2.405-1.3 4.844-1.967 7.368.496.19.855.361 1.231.464 2.036.567 4.055 1.185 6.107 1.649 1.438.326 2.55 1.013 3.542 2.078 1.625 1.77 3.404 3.47 5.354 5.427zM82.984 93.762c.496.463.94.841 1.35 1.236 1.712 1.7 3.44 3.384 5.081 5.136a5.8 5.8 0 0 0 2.96 1.734c2.566.619 5.098 1.357 7.647 2.044.342.086.65.223 1.094.395-.119.584-.188 1.151-.342 1.7-.616 2.336-1.197 4.672-1.899 6.973-.376 1.237-.325 2.388.035 3.607.65 2.25 1.231 4.534 1.847 6.819.154.549.257 1.133.411 1.837-1.933.533-3.764 1.202-5.646 1.529-3.387.567-6.124 2.078-8.279 4.774-1.215 1.495-2.634 2.834-4.02 4.311-.547-.463-.924-.721-1.232-1.047-1.881-1.872-3.763-3.71-5.594-5.634-.752-.807-1.625-1.271-2.685-1.545-2.395-.584-4.756-1.254-7.134-1.89-.564-.154-1.094-.343-1.779-.566.41-1.563.787-3.023 1.164-4.483.513-1.992 1.437-3.985 1.42-5.977 0-1.992-.924-3.985-1.455-5.977-.376-1.425-.752-2.834-1.146-4.362.48-.172.907-.361 1.335-.481 2.548-.704 5.08-1.426 7.646-2.061 1.078-.258 1.916-.773 2.669-1.563 1.71-1.786 3.472-3.504 5.217-5.255.41-.413.838-.773 1.335-1.254zm16.268 11.679c-.992-.292-1.865-.567-2.754-.808-2.19-.618-4.62-.841-6.535-1.94-1.916-1.117-3.319-3.109-4.944-4.706-.65-.653-1.317-1.288-2.172-2.13-.839.927-1.506 1.752-2.241 2.49-1.489 1.495-2.789 3.332-4.568 4.346-1.83 1.047-4.105 1.271-6.192 1.872-.992.292-2.002.584-3.097.893.565 2.129.958 4.156 1.643 6.08.77 2.215.735 4.293-.017 6.509-.668 1.924-1.061 3.933-1.626 6.045 1.728.481 3.268 1.065 4.859 1.323 3.216.515 5.782 1.992 7.817 4.534 1.027 1.254 2.276 2.319 3.507 3.538.548-.498.992-.876 1.386-1.288 1.54-1.529 3.079-3.057 4.584-4.62a4.468 4.468 0 0 1 2.224-1.305 263.96 263.96 0 0 0 6.962-1.872c.36-.103.702-.309 1.112-.498-.65-2.491-1.231-4.895-1.933-7.248-.393-1.288-.41-2.473-.017-3.779.736-2.387 1.317-4.843 2.002-7.436z" fill="#fff"/><path fill-rule="evenodd" clip-rule="evenodd" d="M179.994 162.616c-1.283 2.765-1.265 5.393-.017 8.106-1.522.464-2.959.67-4.122 1.34-1.129.653-1.985 1.786-3.131 2.868-1.847-2.147-3.986-3.916-7.099-3.933.376-1.683.924-3.04.941-4.397 0-1.288-.565-2.593-.907-4.019 1.437-.446 2.874-.652 4.054-1.322 1.129-.653 1.968-1.786 3.045-2.8 1.078 1.014 1.968 2.164 3.131 2.851 1.078.67 2.497.825 4.105 1.306zm-7.253 10.184c1.317-1.94 3.028-2.73 5.269-3.125-1.112-2.061-.753-3.985-.188-6.046-2.19-.275-3.781-1.271-5.166-3.091-1.215 2.009-3.045 2.713-5.235 3.211 1.078 2.027.804 3.899.12 6.029 2.207.171 3.798 1.168 5.2 3.022zM165.625 58.725c1.454-.446 2.891-.652 4.054-1.322 1.129-.653 1.967-1.786 3.028-2.8 1.078 1.014 1.984 2.164 3.148 2.852 1.112.652 2.514.824 3.951 1.253-.342 1.443-.889 2.783-.889 4.14 0 1.305.564 2.61.923 4.139-2.805.532-5.32 1.545-6.962 4.208-1.163-1.083-2.036-2.25-3.199-2.937-1.163-.687-2.617-.893-4.037-1.34.325-1.46.89-2.817.89-4.174 0-1.305-.565-2.61-.907-4.019zm12.351 7.162c-1.009-2.18-.702-4.104-.154-6.148-2.224-.223-3.764-1.305-5.132-2.971-1.3 1.803-2.959 2.696-5.132 3.04.787 2.06.77 3.984-.017 6.097 2.292.189 3.849 1.34 5.252 2.936 1.317-1.768 2.873-2.713 5.183-2.954zM82.778 2.546c1.334 1.237 2.24 2.37 3.404 3.058 1.112.652 2.515.824 4.037 1.27-1.214 2.68-1.214 5.308.052 8.09-3.063.446-5.475 1.631-7.151 4.173-1.18-1.116-2.07-2.267-3.233-2.954-1.112-.652-2.532-.824-4.037-1.27.924-2.628 1.283-5.256-.171-8.021 2.925-.67 5.542-1.512 7.099-4.346zm5.474 11.301c-.992-2.112-.684-4.001-.137-6.114-2.378.138-3.695-1.357-5.2-2.765-1.266 1.786-2.96 2.61-5.098 2.971.855 2.027.719 3.899.068 5.908 2.207.258 3.781 1.254 5.132 2.989 1.318-1.718 2.891-2.73 5.235-2.989zM90.117 118.923c-2.977.309-5.303 1.615-7.116 4.225-1.83-2.542-4.123-3.933-7.15-4.208.358-1.528.906-2.816.923-4.122 0-1.305-.53-2.61-.856-4.087 1.369-.412 2.806-.618 3.986-1.288 1.13-.653 1.985-1.786 3.08-2.834 1.043.979 1.933 2.13 3.079 2.817 1.129.652 2.531.841 4.003 1.288-.308 1.374-.856 2.713-.856 4.07 0 1.288.548 2.594.907 4.139zm-1.899-7.179c-2.36-.189-3.866-1.339-5.286-2.937-1.3 1.786-2.96 2.662-5.132 2.989.821 2.009.736 3.898.052 5.925 2.258.223 3.814 1.391 5.251 3.006 1.232-1.958 3.028-2.628 5.08-3.109-.803-1.958-.803-3.796.035-5.874z" fill="#fff"/></symbol><symbol viewBox="0 0 18 18" id="letter" xmlns="http://www.w3.org/2000/svg"><path fill-rule="evenodd" clip-rule="evenodd" d="M17.177.064a.563.563 0 0 1 .817.582L15.931 14.52a.566.566 0 0 1-.737.449L7.33 12.283l7.731-9.314-9.99 8.542L.38 9.908a.563.563 0 0 1-.078-1.032L17.177.064zM6.562 16.687V13.21l3.05 1.043-2.035 2.768a.562.562 0 0 1-1.015-.332z"/></symbol><symbol viewBox="0 0 19 19" id="menu" xmlns="http://www.w3.org/2000/svg"><circle cx="1.5" cy="1.5" r="1.5"/><circle cx="9.5" cy="1.5" r="1.5"/><circle cx="17.5" cy="1.5" r="1.5"/><circle cx="1.5" cy="9.5" r="1.5"/><circle cx="9.5" cy="9.5" r="1.5"/><circle cx="17.5" cy="9.5" r="1.5"/><circle cx="1.5" cy="17.5" r="1.5"/><circle cx="9.5" cy="17.5" r="1.5"/><circle cx="17.5" cy="17.5" r="1.5"/></symbol><symbol viewBox="0 0 15 21" id="remove" xmlns="http://www.w3.org/2000/svg"><path fill-rule="evenodd" clip-rule="evenodd" d="M9.994 2.4h2.887C14.049 2.4 15 3.429 15 4.69v.118c0 .964-.556 1.79-1.34 2.126V17.75c0 1.262-.95 2.289-2.118 2.289H3.458c-1.168 0-2.119-1.027-2.119-2.29V6.935C.556 6.598 0 5.772 0 4.808V4.69C0 3.428.95 2.4 2.119 2.4h2.888C5.15 1.053 6.213 0 7.5 0s2.35 1.052 2.494 2.4zm-1.016 0c-.135-.747-.746-1.314-1.478-1.314S6.157 1.652 6.022 2.4h2.956zm2.564 16.553c.614 0 1.114-.54 1.114-1.203V7.097H2.344V17.75c0 .664.5 1.204 1.114 1.204h8.084zM12.88 6.011c.614 0 1.114-.54 1.114-1.203V4.69c0-.663-.5-1.203-1.114-1.203H2.119c-.614 0-1.114.54-1.114 1.203v.118c0 .663.5 1.203 1.114 1.203h10.762zM6 17.225c0 .324-.224.587-.5.587s-.5-.263-.5-.587v-6.618c0-.324.224-.587.5-.587s.5.263.5.587v6.618zm1.5.587c.276 0 .5-.263.5-.587v-6.618c0-.324-.224-.587-.5-.587s-.5.263-.5.587v6.618c0 .324.224.587.5.587zm2.5-.587c0 .324-.224.587-.5.587s-.5-.263-.5-.587v-6.618c0-.324.224-.587.5-.587s.5.263.5.587v6.618z"/></symbol><symbol viewBox="0 0 36 12" id="right" xmlns="http://www.w3.org/2000/svg"><path fill-rule="evenodd" clip-rule="evenodd" d="M35.35 5.997l-5.09-5-.702.714 4.22 4.143H.89v1h32.886l-4.219 4.143.701.713 5.088-4.997a.5.5 0 0 0 .003-.716z"/></symbol><symbol viewBox="0 0 23 23" id="search" xmlns="http://www.w3.org/2000/svg"><path fill-rule="evenodd" clip-rule="evenodd" d="M16 9A7 7 0 1 1 2 9a7 7 0 0 1 14 0zm-1.382 7.032a9 9 0 1 1 1.414-1.414l6.175 6.175-1.414 1.414-6.175-6.175z"/></symbol><symbol viewBox="0 0 10 7" id="top" xmlns="http://www.w3.org/2000/svg"><path d="M1 6l4-4 4 4"/></symbol></svg>