<svg width="24" height="24" viewBox="0 0 24 24" fill="none" xmlns="http://www.w3.org/2000/svg">
<path d="M11.5159 1.41073C11.8171 1.24406 12.1829 1.24406 12.4841 1.41073L20.8764 6.05414C21.1947 6.23026 21.3923 6.56535 21.3923 6.92914V16.0709C21.3923 16.4346 21.1947 16.7697 20.8764 16.9459L12.4841 21.5893C12.1829 21.7559 11.8171 21.7559 11.5159 21.5893L3.12356 16.9459C2.80525 16.7697 2.6077 16.4347 2.6077 16.0709V6.92914C2.6077 6.56535 2.80525 6.23026 3.12357 6.05414L11.5159 1.41073Z" fill="#F7B202" stroke="#F69402" stroke-width="2"/>
<path d="M10.068 15.5L10.74 13.472H11.976L12.276 12.5H11.064L11.724 10.508H12.924L13.212 9.548H12.048L12.744 7.496H11.604L10.932 9.548H9.804L10.476 7.496H9.348L8.676 9.548H7.464L7.164 10.508H8.34L7.692 12.5H6.516L6.204 13.472H7.356L6.672 15.5H7.8L8.484 13.472H9.624L8.928 15.5H10.068ZM9.936 12.5H8.82L9.468 10.508H10.596L9.936 12.5ZM17.558 15.5V7.496H16.07L13.55 10.028L14.522 11.048L15.842 9.692V15.5H17.558Z" fill="white"/>
</svg>
