<svg width="24" height="24" viewBox="0 0 24 24" fill="none" xmlns="http://www.w3.org/2000/svg">
<path d="M11.5159 1.41073C11.8171 1.24406 12.1829 1.24406 12.4841 1.41073L20.8764 6.05414C21.1947 6.23026 21.3923 6.56535 21.3923 6.92914V16.0709C21.3923 16.4346 21.1947 16.7697 20.8764 16.9459L12.4841 21.5893C12.1829 21.7559 11.8171 21.7559 11.5159 21.5893L3.12356 16.9459C2.80525 16.7697 2.6077 16.4347 2.6077 16.0709V6.92914C2.6077 6.56535 2.80525 6.23026 3.12357 6.05414L11.5159 1.41073Z" fill="#A6ADB3" stroke="#8F959A" stroke-width="2"/>
<path d="M8.068 15.5L8.74 13.472H9.976L10.276 12.5H9.064L9.724 10.508H10.924L11.212 9.548H10.048L10.744 7.496H9.604L8.932 9.548H7.804L8.476 7.496H7.348L6.676 9.548H5.464L5.164 10.508H6.34L5.692 12.5H4.516L4.204 13.472H5.356L4.672 15.5H5.8L6.484 13.472H7.624L6.928 15.5H8.068ZM7.936 12.5H6.82L7.468 10.508H8.596L7.936 12.5ZM18.006 15.5V14H14.67C16.818 12.488 17.946 11.3 17.946 9.932C17.946 8.336 16.59 7.376 14.886 7.376C13.77 7.376 12.582 7.784 11.802 8.684L12.774 9.812C13.314 9.248 14.01 8.888 14.91 8.888C15.582 8.888 16.218 9.236 16.218 9.932C16.218 10.916 15.258 11.744 11.982 14.156V15.5H18.006Z" fill="white"/>
</svg>
