<svg width="54" height="54" viewBox="0 0 54 54" fill="none" xmlns="http://www.w3.org/2000/svg">
<rect width="54" height="54" rx="27" fill="#0D4EE3"/>
<g clip-path="url(#clip0_387_24356)">
<path d="M41.3983 24.8685H40.767C40.6056 24.4169 40.2502 24.0614 39.7985 23.9V20.6023C39.8034 15.6121 35.9814 11.4517 31.0086 11.0341C26.0359 10.6165 21.5736 14.0813 20.7462 19.0024H13.1348C11.9567 19.0024 11.0017 19.9575 11.0017 21.1355V35.0007C11.0017 36.1788 11.9567 37.1338 13.1348 37.1338H14.2014V41.7733C14.2002 42.2782 14.5093 42.732 14.9796 42.916C15.4499 43.0998 15.9849 42.976 16.3264 42.6041L21.3675 37.1338H32.3327C33.5107 37.1338 34.4658 36.1788 34.4658 35.0007V21.1356C34.4658 19.9575 33.5107 19.0025 32.3327 19.0025H24.004C24.8104 15.8834 27.8099 13.85 31.006 14.256C34.202 14.6621 36.5979 17.3806 36.5989 20.6023V23.9001C35.962 24.1253 35.5352 24.7263 35.5323 25.4018V31.8011C35.5353 32.4679 35.9517 33.0629 36.577 33.2943C36.3584 36.5067 33.787 39.0564 30.5729 39.2477C30.3807 38.9303 30.0374 38.7357 29.6663 38.7337H25.9334C25.3443 38.7337 24.8668 39.2112 24.8668 39.8002V41.9333C24.8668 42.5224 25.3443 42.9999 25.9334 42.9999H29.6663C30.0537 42.9986 30.4097 42.7865 30.5953 42.4463C35.5595 42.237 39.5428 38.2728 39.7761 33.3097C40.2378 33.1526 40.6026 32.7935 40.767 32.3344H41.3983C42.2819 32.3344 42.9981 31.6181 42.9981 30.7345V26.4683C42.9981 25.5847 42.2819 24.8685 41.3983 24.8685ZM29.6663 41.9333H25.9334V39.8002H29.6663V41.9333ZM33.3992 21.1356V35.0008C33.3992 35.5898 32.9217 36.0673 32.3326 36.0673H19.0008C18.7062 36.0673 18.4675 36.3061 18.4675 36.6006C18.4675 36.8951 18.7063 37.1338 19.0008 37.1338H19.9169L15.5441 41.88C15.5018 41.9303 15.4314 41.9466 15.3713 41.92C15.308 41.8996 15.2658 41.8398 15.2679 41.7733V37.1338H16.8677C17.1622 37.1338 17.4009 36.8951 17.4009 36.6006C17.4009 36.3061 17.1622 36.0673 16.8677 36.0673H13.1348C12.5457 36.0673 12.0682 35.5898 12.0682 35.0008V21.1356C12.0682 20.5465 12.5457 20.069 13.1348 20.069H32.3327C32.9217 20.069 33.3992 20.5465 33.3992 21.1356ZM30.1995 13.1365C26.7022 13.1603 23.6824 15.591 22.9118 19.0025H21.8271C22.6549 14.6844 26.6297 11.7032 31.0068 12.1174C35.384 12.5316 38.7289 16.2055 38.732 20.6023V23.8019H37.6654V20.6023C37.661 16.4809 34.321 13.1408 30.1995 13.1365ZM30.7329 41.3728V40.3062C34.4296 40.0377 37.3697 37.0977 37.6382 33.4009H38.7048C38.4315 37.6853 35.0173 41.0995 30.7329 41.3728ZM39.2652 32.3344H37.1322C36.8376 32.3344 36.5989 32.0956 36.5989 31.8011V25.4018C36.5989 25.1073 36.8377 24.8686 37.1322 24.8686H39.2652C39.5598 24.8686 39.7985 25.1073 39.7985 25.4018V31.8011C39.7985 32.0956 39.5598 32.3344 39.2652 32.3344ZM41.9316 30.7345C41.9316 31.0291 41.6929 31.2678 41.3984 31.2678H40.8651V25.9351H41.3984C41.6929 25.9351 41.9316 26.1739 41.9316 26.4683V30.7345Z" fill="white"/>
<path fill-rule="evenodd" clip-rule="evenodd" d="M16.867 27.5358H18.4668C18.7613 27.5358 19.0001 27.2971 19.0001 27.0025C19.0001 26.708 18.7613 26.4693 18.4668 26.4693H17.4002V22.7364C17.4002 22.4418 17.1615 22.2031 16.867 22.2031C16.5725 22.2031 16.3337 22.4419 16.3337 22.7364V27.0026C16.3337 27.297 16.5725 27.5358 16.867 27.5358Z" fill="white"/>
<path fill-rule="evenodd" clip-rule="evenodd" d="M20.5994 27.5359C20.8939 27.5359 21.1327 27.2971 21.1327 27.0026V22.7364C21.1327 22.4418 20.8939 22.2031 20.5994 22.2031C20.3049 22.2031 20.0662 22.4419 20.0662 22.7364V27.0026C20.0662 27.2971 20.3049 27.5359 20.5994 27.5359Z" fill="white"/>
<path fill-rule="evenodd" clip-rule="evenodd" d="M23.8008 27.5358C24.227 27.5406 24.5934 27.235 24.6652 26.8149L25.3915 22.8319C25.4345 22.6409 25.3693 22.4418 25.2218 22.3131C25.0743 22.1844 24.8682 22.1469 24.6848 22.2153C24.5015 22.2837 24.3703 22.4471 24.3431 22.6409L23.8008 25.6118L23.2585 22.6409C23.2313 22.4471 23.1001 22.2837 22.9168 22.2153C22.7334 22.1469 22.5272 22.1844 22.3797 22.3131C22.2323 22.4418 22.1671 22.6409 22.21 22.8319L22.9363 26.8149C23.0082 27.2349 23.3746 27.5406 23.8008 27.5358Z" fill="white"/>
<path fill-rule="evenodd" clip-rule="evenodd" d="M26.9998 27.5359H28.5996C28.8942 27.5359 29.1329 27.2971 29.1329 27.0026C29.1329 26.7081 28.8941 26.4693 28.5996 26.4693H27.5331V25.4028H28.0663C28.3608 25.4028 28.5996 25.164 28.5996 24.8695C28.5996 24.5751 28.3608 24.3363 28.0663 24.3363H27.5331V23.2696H28.5996C28.8942 23.2696 29.1329 23.0309 29.1329 22.7364C29.1329 22.4418 28.8941 22.2031 28.5996 22.2031H26.9998C26.7053 22.2031 26.4666 22.4419 26.4666 22.7364V27.0026C26.4666 27.2971 26.7053 27.5359 26.9998 27.5359Z" fill="white"/>
<path fill-rule="evenodd" clip-rule="evenodd" d="M14.7342 30.7364H30.7324C31.027 30.7364 31.2657 30.4976 31.2657 30.2032C31.2657 29.9087 31.0269 29.6699 30.7324 29.6699H14.7342C14.4397 29.6699 14.2009 29.9086 14.2009 30.2032C14.2009 30.4977 14.4397 30.7364 14.7342 30.7364Z" fill="white"/>
<path fill-rule="evenodd" clip-rule="evenodd" d="M14.7342 33.4024H30.7324C31.027 33.4024 31.2657 33.1637 31.2657 32.8692C31.2657 32.5747 31.0269 32.3359 30.7324 32.3359H14.7342C14.4397 32.3359 14.2009 32.5747 14.2009 32.8692C14.2009 33.1637 14.4397 33.4024 14.7342 33.4024Z" fill="white"/>
</g>
<defs>
<clipPath id="clip0_387_24356">
<rect width="32" height="32" fill="white" transform="translate(11 11)"/>
</clipPath>
</defs>
</svg>
