<svg width="36" height="36" viewBox="0 0 36 36" fill="none" xmlns="http://www.w3.org/2000/svg">
<rect width="36" height="36" rx="18" fill="#0D4EE3"/>
<path d="M15.2327 20.0026C15.8751 19.5896 16.5391 19.1623 16.5391 18.3824C16.5913 17.4164 15.8555 16.5887 14.89 16.5273C13.9245 16.5887 13.1887 17.4164 13.2409 18.3824C13.2409 18.5848 13.405 18.7489 13.6074 18.7489C13.8098 18.7489 13.9738 18.5848 13.9738 18.3824C13.9235 17.8215 14.3304 17.3232 14.89 17.2603C15.4496 17.3232 15.8564 17.8215 15.8061 18.3824C15.8061 18.7368 15.4397 18.9981 14.8364 19.3862C14.1654 19.8175 13.405 20.3064 13.2464 21.2291C13.228 21.3356 13.2576 21.4448 13.3271 21.5274C13.3967 21.6101 13.4993 21.6578 13.6073 21.6579H16.1726C16.375 21.6579 16.539 21.4938 16.539 21.2914C16.539 21.089 16.3749 20.925 16.1726 20.925H14.1361C14.4339 20.545 14.8073 20.2309 15.2327 20.0026Z" fill="white"/>
<path d="M20.2025 19.4591H19.836V16.8938C19.836 16.7361 19.7351 16.596 19.5854 16.5462C19.4358 16.4963 19.271 16.5478 19.1764 16.6739L16.9776 19.6057C16.8943 19.7167 16.8809 19.8653 16.943 19.9894C17.005 20.1136 17.1319 20.192 17.2707 20.192H19.1031V21.2914C19.1031 21.4938 19.2671 21.6579 19.4695 21.6579C19.6719 21.6579 19.836 21.4938 19.836 21.2914V20.192H20.2024C20.4048 20.192 20.5689 20.028 20.5689 19.8256C20.5689 19.6232 20.4048 19.4591 20.2025 19.4591ZM19.1031 19.4591H18.0037L19.1031 17.9932V19.4591Z" fill="white"/>
<path d="M26.4332 7H21.3026C19.8866 7.00163 18.739 8.14917 18.7374 9.56525V9.78002C14.2398 8.82389 9.68782 11.1514 7.82962 15.3572C5.97142 19.5631 7.31582 24.4956 11.0511 27.1769C14.7864 29.8583 19.8899 29.554 23.2803 26.4481C26.6707 23.3421 27.4197 18.2847 25.075 14.3294H26.4332C27.8492 14.3277 28.9968 13.1802 28.9984 11.7641V9.5653C28.9968 8.14917 27.8492 7.00163 26.4332 7ZM25.7003 19.2767C25.7077 23.1043 23.2924 26.5175 19.6803 27.7837C16.0681 29.0499 12.0503 27.8919 9.66631 24.8974C7.28228 21.9029 7.05407 17.7278 9.09758 14.4913C11.1411 11.2548 15.0088 9.66583 18.7373 10.5309V11.7641C18.7374 11.9982 18.7699 12.2311 18.8337 12.4563C16.0644 11.6 13.0522 12.5023 11.2096 14.74C9.36706 16.9777 9.05957 20.107 10.4313 22.6606C11.8031 25.2141 14.5821 26.6855 17.4651 26.3846C20.3481 26.0837 22.7634 24.0703 23.5784 21.2886C23.6351 21.0943 23.5235 20.8908 23.3292 20.8342C23.1349 20.7775 22.9314 20.889 22.8747 21.0834C21.9434 24.2553 18.7536 26.1996 15.5076 25.5739C12.2615 24.9483 10.0228 21.9576 10.3372 18.6668C10.6516 15.376 13.4159 12.8633 16.7218 12.8635C17.6319 12.863 18.5317 13.0576 19.3603 13.4341C19.7627 13.9049 20.323 14.2127 20.9361 14.2997V15.4288C20.9341 15.7156 21.1014 15.9766 21.3627 16.0947C21.6247 16.217 21.9343 16.1722 22.1509 15.9807L22.1876 15.9466C22.6784 16.7277 22.9852 17.6101 23.0847 18.5273L22.6596 18.1021C22.5158 17.9633 22.2872 17.9652 22.1459 18.1066C22.0045 18.248 22.0025 18.4765 22.1414 18.6203L23.2408 19.7197C23.3839 19.8628 23.6159 19.8628 23.759 19.7197L24.8584 18.6203C24.9973 18.4765 24.9953 18.2479 24.8539 18.1066C24.7126 17.9652 24.484 17.9633 24.3402 18.1021L23.8352 18.6071C23.729 17.4822 23.3571 16.3986 22.7501 15.4456L24.0034 14.3294H24.2057C25.182 15.7944 25.7021 17.5161 25.7003 19.2767ZM28.2655 11.7641C28.2643 12.7755 27.4446 13.5952 26.4332 13.5964H24.0035C23.8262 13.597 23.6551 13.6613 23.5212 13.7774L21.6691 15.4287V14.2996C21.6676 13.9369 21.401 13.6297 21.0421 13.5773C20.1418 13.4447 19.4738 12.674 19.4703 11.7641V9.56525C19.4715 8.55381 20.2912 7.73415 21.3026 7.73291H26.4332C27.4446 7.73411 28.2643 8.55376 28.2655 9.56525V11.7641H28.2655Z" fill="white"/>
<path d="M20.9368 9.56494H21.3032C21.5056 9.56494 21.6697 9.40084 21.6697 9.19848C21.6697 8.99613 21.5056 8.83203 21.3032 8.83203H20.9368C20.7344 8.83203 20.5703 8.99613 20.5703 9.19848C20.5703 9.40084 20.7344 9.56494 20.9368 9.56494Z" fill="white"/>
<path d="M26.7999 8.83203H22.7688C22.5664 8.83203 22.4023 8.99613 22.4023 9.19848C22.4023 9.40084 22.5664 9.56494 22.7688 9.56494H26.7999C27.0023 9.56494 27.1664 9.40084 27.1664 9.19848C27.1664 8.99613 27.0023 8.83203 26.7999 8.83203Z" fill="white"/>
<path d="M26.8003 10.2988H20.9368C20.7344 10.2988 20.5703 10.4629 20.5703 10.6653C20.5703 10.8676 20.7344 11.0317 20.9368 11.0317H26.8002C27.0026 11.0317 27.1667 10.8676 27.1667 10.6653C27.1667 10.4629 27.0026 10.2988 26.8003 10.2988Z" fill="white"/>
<path d="M23.502 11.7637H20.9368C20.7344 11.7637 20.5703 11.9278 20.5703 12.1301C20.5703 12.3325 20.7344 12.4966 20.9368 12.4966H23.502C23.7044 12.4966 23.8685 12.3325 23.8685 12.1301C23.8685 11.9278 23.7044 11.7637 23.502 11.7637Z" fill="white"/>
</svg>
