<svg width="24" height="24" viewBox="0 0 24 24" fill="none" xmlns="http://www.w3.org/2000/svg">
<path d="M11.5159 1.41073C11.8171 1.24406 12.1829 1.24406 12.4841 1.41073L20.8764 6.05414C21.1947 6.23026 21.3923 6.56535 21.3923 6.92914V16.0709C21.3923 16.4346 21.1947 16.7697 20.8764 16.9459L12.4841 21.5893C12.1829 21.7559 11.8171 21.7559 11.5159 21.5893L3.12356 16.9459C2.80525 16.7697 2.6077 16.4347 2.6077 16.0709V6.92914C2.6077 6.56535 2.80525 6.23026 3.12357 6.05414L11.5159 1.41073Z" fill="#CE852F" stroke="#B66821" stroke-width="2"/>
<path d="M8.068 15.5L8.74 13.472H9.976L10.276 12.5H9.064L9.724 10.508H10.924L11.212 9.548H10.048L10.744 7.496H9.604L8.932 9.548H7.804L8.476 7.496H7.348L6.676 9.548H5.464L5.164 10.508H6.34L5.692 12.5H4.516L4.204 13.472H5.356L4.672 15.5H5.8L6.484 13.472H7.624L6.928 15.5H8.068ZM7.936 12.5H6.82L7.468 10.508H8.596L7.936 12.5ZM11.658 14.36C12.246 15.08 13.338 15.644 14.814 15.644C16.734 15.644 17.97 14.672 17.97 13.292C17.97 12.092 16.914 11.456 16.098 11.372C16.986 11.216 17.85 10.556 17.85 9.548C17.85 8.216 16.698 7.376 14.826 7.376C13.422 7.376 12.414 7.916 11.766 8.648L12.606 9.704C13.17 9.164 13.866 8.864 14.646 8.864C15.486 8.864 16.134 9.188 16.134 9.824C16.134 10.424 15.546 10.712 14.658 10.712C14.346 10.712 13.806 10.712 13.662 10.7V12.188C13.782 12.176 14.322 12.176 14.658 12.176C15.774 12.176 16.266 12.476 16.266 13.124C16.266 13.736 15.726 14.156 14.754 14.156C13.974 14.156 13.098 13.82 12.546 13.244L11.658 14.36Z" fill="white"/>
</svg>
