<svg width="125" height="125" viewBox="0 0 125 125" fill="none" xmlns="http://www.w3.org/2000/svg">
<rect width="125" height="125" rx="62.5" fill="#F8F8F8"/>
<circle cx="62" cy="62" r="44" fill="white"/>
<path d="M60.1786 112C60.0891 112 59.9907 112 59.9012 111.991C58.1469 111.91 56.5001 111.105 55.3635 109.762C54.1015 108.268 52.0071 107.856 50.2708 108.76C48.7135 109.574 46.8787 109.7 45.2319 109.109C43.5851 108.518 42.2425 107.256 41.5534 105.645C40.7837 103.846 38.9041 102.835 36.9888 103.193C35.2614 103.506 33.4714 103.086 32.0662 102.038C30.661 100.991 29.7571 99.3892 29.5691 97.6439C29.3633 95.7017 27.8686 94.1802 25.9264 93.9475C24.1901 93.7417 22.597 92.8108 21.5677 91.3967C20.5384 89.9826 20.1446 88.1836 20.4847 86.4652C20.8606 84.5499 19.8851 82.6524 18.095 81.8648C16.493 81.1488 15.2489 79.7973 14.685 78.1326C14.1212 76.4768 14.2733 74.642 15.0967 73.0937C16.0276 71.3752 15.6427 69.272 14.1659 67.9921C12.8413 66.8375 12.0537 65.1817 12 63.4275C11.9463 61.6733 12.6355 59.9638 13.8795 58.7376C15.2757 57.3683 15.5263 55.2471 14.4971 53.5913C13.5752 52.1056 13.3067 50.2797 13.7721 48.5882C14.2465 46.9055 15.401 45.4735 16.9584 44.668C18.6947 43.773 19.5629 41.8219 19.0617 39.9334C18.6141 38.2418 18.9006 36.416 19.8493 34.9392C20.789 33.4624 22.3195 32.4332 24.0469 32.1288C25.9712 31.7798 27.3763 30.1777 27.4569 28.2176C27.5285 26.4634 28.343 24.8076 29.6765 23.6799C31.0101 22.5432 32.7822 22.0152 34.5186 22.23C36.4607 22.4627 38.2687 21.3439 38.931 19.5002C39.5217 17.8534 40.7747 16.5019 42.3947 15.8127C44.0057 15.1236 45.8494 15.1325 47.4515 15.8485C49.2416 16.6451 51.3001 16.1081 52.4726 14.5418C53.5197 13.1366 55.1218 12.2237 56.8671 12.0447C58.6124 11.8568 60.3666 12.4206 61.6823 13.5752C63.1501 14.864 65.2802 14.9535 66.8644 13.8079C68.2785 12.7786 70.0775 12.3759 71.7959 12.716C73.5144 13.0561 75.0269 14.1033 75.9488 15.5979C76.9781 17.2627 78.9829 17.9787 80.8356 17.3432C82.4914 16.7704 84.3261 16.9225 85.8745 17.7549C87.4229 18.5873 88.5595 20.0372 88.9981 21.7288C89.4904 23.6262 91.1909 24.8971 93.151 24.8345C94.8963 24.7808 96.6147 25.461 97.8409 26.7051C99.076 27.9491 99.7293 29.6765 99.6488 31.4218C99.5593 33.3729 100.812 35.1003 102.701 35.6194C104.392 36.0848 105.824 37.2394 106.63 38.7967C107.435 40.354 107.561 42.1888 106.97 43.8356C106.308 45.6794 106.997 47.6932 108.653 48.7403C110.129 49.6801 111.159 51.2106 111.472 52.929C111.785 54.6564 111.365 56.4464 110.308 57.8516C109.136 59.4178 109.199 61.548 110.47 63.0337C111.606 64.3673 112.134 66.1305 111.928 67.8757C111.723 69.6121 110.783 71.2052 109.369 72.2345L108.733 71.3573L109.369 72.2345C107.784 73.3801 107.221 75.4386 107.99 77.2376C108.679 78.8486 108.671 80.6923 107.963 82.2944C107.247 83.8965 105.896 85.1406 104.231 85.7044C102.379 86.3309 101.233 88.1299 101.439 90.081C101.627 91.8263 101.072 93.5806 99.9173 94.9052C98.7627 96.2298 97.098 97.0085 95.3438 97.0622C93.3926 97.1159 91.7637 98.5031 91.3878 100.418C91.0566 102.137 90.0095 103.658 88.5148 104.58C87.0201 105.502 85.2032 105.762 83.5117 105.296C81.6232 104.777 79.6631 105.61 78.7412 107.337C77.9178 108.885 76.4679 110.022 74.7674 110.461C73.0668 110.899 71.25 110.613 69.7732 109.673C68.1264 108.617 66.0052 108.841 64.6179 110.219C63.4365 111.347 61.8344 112 60.1786 112ZM52.213 106.129C54.012 106.129 55.7752 106.907 57.0103 108.375C57.7621 109.27 58.8272 109.789 59.9996 109.843C61.1721 109.897 62.273 109.467 63.1053 108.644C65.2176 106.549 68.4396 106.209 70.9457 107.811C71.9302 108.438 73.0937 108.626 74.2304 108.33C75.367 108.035 76.2889 107.301 76.8438 106.272C78.249 103.649 81.2294 102.379 84.0845 103.166C85.2122 103.479 86.3847 103.309 87.3781 102.692C88.3716 102.074 89.0429 101.108 89.2666 99.9531C89.8305 97.0353 92.3007 94.941 95.2722 94.8515C96.4446 94.8157 97.5097 94.3145 98.2794 93.4284C99.0491 92.5423 99.4071 91.4236 99.2818 90.2601C98.9686 87.3065 100.705 84.5767 103.524 83.619C104.634 83.2431 105.502 82.4466 105.977 81.3726C106.451 80.3075 106.46 79.1261 105.994 78.0431C104.822 75.3133 105.681 72.1897 108.089 70.4444C109.037 69.7553 109.637 68.7349 109.771 67.5804C109.915 66.4169 109.566 65.2891 108.814 64.3941C106.889 62.1297 106.791 58.8898 108.572 56.518C109.279 55.5782 109.548 54.4326 109.333 53.278C109.127 52.1235 108.465 51.1479 107.48 50.5214C104.974 48.9283 103.927 45.8584 104.929 43.0659C105.323 41.9651 105.243 40.7836 104.706 39.7454C104.169 38.7072 103.247 37.9643 102.119 37.66C99.255 36.8724 97.3486 34.259 97.4828 31.2875C97.5365 30.1151 97.1159 29.0142 96.2925 28.1818C95.4691 27.3495 94.3682 26.902 93.2047 26.9467C90.2332 27.0273 87.6377 25.103 86.8948 22.221C86.5995 21.0844 85.8745 20.1625 84.8452 19.6076C83.816 19.0527 82.6346 18.9542 81.5337 19.3391C78.7233 20.3057 75.6713 19.2138 74.114 16.6898C73.4965 15.6964 72.5298 15.0251 71.3842 14.7924C70.2386 14.5687 69.084 14.8193 68.1353 15.5084C65.7367 17.2627 62.4967 17.1195 60.2592 15.1594C59.3821 14.3897 58.2544 14.0317 57.0908 14.157C55.9273 14.2823 54.898 14.864 54.1999 15.8038C52.4189 18.1845 49.2863 18.999 46.5744 17.7907C45.5093 17.3164 44.3279 17.3074 43.245 17.7639C42.1709 18.2203 41.3565 19.0885 40.9716 20.1894C39.9781 22.9907 37.2215 24.6913 34.268 24.3333C33.1044 24.1901 31.9767 24.5302 31.0817 25.2909C30.1867 26.0517 29.6676 27.1078 29.6228 28.2803C29.4975 31.2517 27.3674 33.6862 24.4407 34.2142C23.2861 34.4201 22.3106 35.0824 21.6751 36.0669C21.0486 37.0514 20.8606 38.2239 21.156 39.3516C21.9078 42.2246 20.5921 45.1871 17.9518 46.5565C16.9136 47.0935 16.1708 48.0154 15.8575 49.1431C15.5442 50.2708 15.7143 51.4433 16.3319 52.4367C17.8981 54.9607 17.5133 58.1827 15.3921 60.2592C14.5597 61.0826 14.1212 62.1745 14.157 63.347C14.1928 64.5194 14.7029 65.5845 15.58 66.3542C17.8265 68.3053 18.3993 71.4916 16.9942 74.105C16.4393 75.1343 16.3408 76.3157 16.7167 77.4166C17.0926 78.5264 17.8981 79.3946 18.9632 79.8689C21.684 81.0683 23.1787 83.9502 22.597 86.859C22.3732 88.0046 22.6238 89.1592 23.313 90.1079C24.0021 91.0566 25.0225 91.6473 26.186 91.7905C29.1395 92.1396 31.4129 94.4487 31.7172 97.4023C31.8425 98.5658 32.4242 99.5951 33.355 100.293C34.2948 100.991 35.4404 101.269 36.595 101.054C39.5127 100.517 42.3678 102.047 43.5403 104.786C43.9968 105.86 44.856 106.675 45.9568 107.068C47.0577 107.462 48.2391 107.382 49.2774 106.836C50.2171 106.37 51.2195 106.129 52.213 106.129Z" fill="#6C41BF"/>
<path d="M97.723 53.9073C97.13 53.9073 96.6016 53.4996 96.4727 52.9135C92.9538 37.0522 78.4659 25.5353 62.0188 25.5353C46.0872 25.5353 32.0891 36.1732 27.9774 51.4102C27.7969 52.0854 27.088 52.4931 26.4048 52.3148C25.7217 52.1364 25.3092 51.4357 25.4897 50.7605C29.9108 34.415 44.9272 23 62.0188 23C79.6646 23 95.2095 35.3451 98.9732 52.3657C99.1279 53.0537 98.6897 53.7289 97.9936 53.8818C97.9034 53.8945 97.8132 53.9073 97.723 53.9073Z" fill="#6C41BF"/>
<path d="M97.7238 53.9074C97.5304 53.9074 97.3371 53.8692 97.1566 53.78L91.1372 50.8625C90.5056 50.5568 90.2349 49.7924 90.5443 49.1681C90.8536 48.5439 91.627 48.2763 92.2586 48.5821L97.1437 50.9517L99.567 46.1997C99.8892 45.5754 100.663 45.3206 101.294 45.6391C101.926 45.9576 102.184 46.722 101.861 47.3463L98.871 53.2322C98.6518 53.6526 98.1878 53.9074 97.7238 53.9074Z" fill="#6C41BF"/>
<path d="M61.9797 100.74C44.3338 100.74 28.789 88.3946 25.0252 71.374C24.8705 70.686 25.3088 70.0108 26.0048 69.8579C26.7008 69.7178 27.384 70.1382 27.5387 70.8262C31.0575 86.6875 45.5454 98.2044 61.9926 98.2044C77.9241 98.2044 91.9222 87.5665 96.034 72.3295C96.2144 71.6543 96.9234 71.2466 97.6065 71.425C98.2897 71.6033 98.7021 72.304 98.5217 72.9792C94.1005 89.3247 79.0842 100.74 61.9797 100.74Z" fill="#6C41BF"/>
<path d="M23.2862 78.2406C23.0929 78.2406 22.8995 78.2023 22.7062 78.1004C22.0746 77.7819 21.8168 77.0175 22.1391 76.3933L25.1294 70.5074C25.4517 69.8831 26.2122 69.6283 26.8438 69.9341L32.8632 72.8515C33.4948 73.1573 33.7655 73.9217 33.4561 74.5459C33.1468 75.1702 32.3734 75.4377 31.7418 75.132L26.8566 72.7624L24.4334 77.5144C24.2143 77.9858 23.7631 78.2406 23.2862 78.2406Z" fill="#6C41BF"/>
<path d="M62.0057 90.3437C46.1128 90.3437 33.1846 77.5654 33.1846 61.857C33.1846 46.1486 46.1128 33.3704 62.0057 33.3704C77.8986 33.3704 90.8268 46.1486 90.8268 61.857C90.8139 77.5654 77.8986 90.3437 62.0057 90.3437ZM62.0057 35.9184C47.5307 35.9184 35.7625 47.5627 35.7625 61.857C35.7625 76.164 47.5436 87.7957 62.0057 87.7957C76.4807 87.7957 88.2489 76.1513 88.2489 61.857C88.2489 47.5627 76.4807 35.9184 62.0057 35.9184Z" fill="#6C41BF"/>
<path d="M53.4261 66.392C49.9541 66.392 47.1728 65.2347 45.0821 62.92L48.4981 59.504C49.9541 60.9973 51.5128 61.744 53.1741 61.744C53.9395 61.744 54.5461 61.5667 54.9941 61.212C55.4608 60.8387 55.6941 60.3347 55.6941 59.7C55.6941 59.0653 55.4141 58.5707 54.8541 58.216C54.2941 57.8613 53.5101 57.684 52.5021 57.684H50.2061L49.4221 54.856L53.9301 50.796H46.4261V46.4H60.5941V50.292L55.9181 54.296C59.2968 55.0427 60.9861 56.9 60.9861 59.868C60.9861 61.828 60.2768 63.4053 58.8581 64.6C57.4581 65.7947 55.6475 66.392 53.4261 66.392ZM78.7408 63.452C77.0794 65.412 74.8861 66.392 72.1608 66.392C69.4354 66.392 67.2421 65.4213 65.5808 63.48C63.9381 61.52 63.1168 59.0933 63.1168 56.2C63.1168 53.344 63.9568 50.936 65.6368 48.976C67.3168 46.9973 69.5101 46.008 72.2168 46.008C74.9421 46.008 77.1261 46.988 78.7688 48.948C80.4301 50.908 81.2608 53.3253 81.2608 56.2C81.2608 59.056 80.4208 61.4733 78.7408 63.452ZM69.5848 60.092C70.2568 61.0813 71.1341 61.576 72.2168 61.576C73.2994 61.576 74.1674 61.0813 74.8208 60.092C75.4741 59.084 75.8008 57.7867 75.8008 56.2C75.8008 54.632 75.4554 53.344 74.7648 52.336C74.0928 51.328 73.2248 50.824 72.1608 50.824C71.0781 50.824 70.2101 51.3187 69.5568 52.308C68.9034 53.2973 68.5768 54.5947 68.5768 56.2C68.5768 57.7867 68.9128 59.084 69.5848 60.092Z" fill="#333333"/>
<path d="M48.5135 80V70.2H52.2935C54.0108 70.2 55.3595 70.648 56.3395 71.544C57.3288 72.44 57.8235 73.616 57.8235 75.072C57.8235 76.5187 57.3242 77.704 56.3255 78.628C55.3268 79.5427 53.9642 80 52.2375 80H48.5135ZM51.2295 77.592H52.3355C53.1568 77.592 53.8102 77.3727 54.2955 76.934C54.7902 76.4953 55.0375 75.8793 55.0375 75.086C55.0375 74.3113 54.7902 73.7 54.2955 73.252C53.8102 72.804 53.1568 72.58 52.3355 72.58H51.2295V77.592ZM57.7373 80L61.9093 70.13H64.5273L68.6993 80H65.7873L65.0733 78.25H61.2933L60.5933 80H57.7373ZM62.0913 76.136H64.2893L63.1973 73.35L62.0913 76.136ZM70.9333 80V76.332L67.2093 70.2H70.3033L72.3193 73.77L74.3493 70.2H77.3873L73.6633 76.29V80H70.9333Z" fill="#333333"/>
</svg>
