<svg width="64" height="64" viewBox="0 0 64 64" fill="none" xmlns="http://www.w3.org/2000/svg">
<path d="M31.9987 13.9153C41.9706 13.9153 50.0834 22.028 50.0834 31.9999C50.0834 35.2019 49.2439 38.3369 47.6558 41.0661C47.4605 41.4018 47.5743 41.8322 47.9099 42.0274C48.2455 42.2227 48.6759 42.109 48.8712 41.7734C50.5841 38.8296 51.4895 35.45 51.4895 31.9999C51.4895 21.2526 42.7459 12.509 31.9986 12.509C21.2513 12.509 12.5078 21.2526 12.5078 31.9999C12.5078 36.4004 14.0223 40.7173 16.7723 44.1553C16.9112 44.3289 17.1156 44.4192 17.3219 44.4192C17.4759 44.4192 17.631 44.3688 17.7606 44.2652C18.0639 44.0226 18.1131 43.5801 17.8705 43.2768C15.2822 40.041 13.9141 36.1415 13.9141 31.9999C13.9141 22.028 22.0268 13.9153 31.9987 13.9153V13.9153Z" fill="#6C41BF"/>
<path d="M56 32C56 18.7663 45.2337 8 32 8C18.7663 8 8 18.7663 8 32C8 45.2337 18.7663 56 32 56C32.3883 56 32.7031 55.6852 32.7031 55.2969V50.7878C32.7031 50.3995 32.3883 50.0847 32 50.0847C27.6352 50.0847 23.4176 48.5018 20.1238 45.6276C19.8313 45.3723 19.3872 45.4024 19.1318 45.6951C18.8764 45.9877 18.9067 46.4319 19.1993 46.6872C22.5719 49.6302 26.844 51.3171 31.2969 51.4782V54.5829C19.1622 54.2106 9.40625 44.2233 9.40625 32C9.40625 19.5417 19.5417 9.40625 32 9.40625C44.4583 9.40625 54.5938 19.5417 54.5938 32C54.5938 34.6972 54.1284 37.3282 53.2104 39.8201C52.2961 42.3022 50.953 44.5917 49.2186 46.6253C48.9764 46.9091 48.9982 47.3325 49.268 47.5902L50.3502 48.6233L43.8328 49.9958L44.9015 43.4218L46.0017 44.472C46.2825 44.7401 46.7276 44.7298 46.9958 44.449C47.2639 44.1681 47.2536 43.7231 46.9727 43.4548L44.9072 41.483C44.7184 41.3028 44.4455 41.2419 44.1981 41.3249C43.9507 41.4079 43.7697 41.6211 43.7278 41.8787L42.2803 50.7823C42.2431 51.0112 42.3211 51.2437 42.4888 51.4037C42.6566 51.5638 42.8924 51.6311 43.1192 51.5832L51.9461 49.7243C52.2014 49.6706 52.406 49.4798 52.4774 49.2287C52.5489 48.9778 52.4755 48.7078 52.2867 48.5277L50.7134 47.0257C52.3516 44.9955 53.6342 42.738 54.53 40.3061C55.5055 37.6582 56 34.8636 56 32V32Z" fill="#6C41BF"/>
<path d="M34.3472 31.2294C33.7646 31.0235 33.2388 30.8291 32.7622 30.643V23.2231C34.3808 23.3546 35.3634 24.214 35.4245 24.269C35.7099 24.53 36.1531 24.5113 36.4158 24.2268C36.679 23.9413 36.6611 23.4965 36.3757 23.2332C36.3017 23.165 34.9552 21.9518 32.7622 21.8112V19.976C32.7622 19.5876 32.4473 19.2728 32.059 19.2728C31.6707 19.2728 31.3559 19.5876 31.3559 19.976V21.8732C31.0214 21.923 30.6741 21.9982 30.3136 22.1068C28.6417 22.6105 27.3909 24.0483 27.0497 25.8592C26.7424 27.4902 27.2511 29.0522 28.3774 29.9356C29.101 30.5031 30.0282 31.0226 31.3559 31.5879V40.5863C29.8492 40.5607 29.0133 40.3623 27.5002 39.3725C27.1752 39.1599 26.7395 39.251 26.5269 39.576C26.3143 39.9009 26.4054 40.3368 26.7304 40.5493C28.525 41.7233 29.6358 41.9624 31.3559 41.992V44.0243C31.3559 44.4126 31.6707 44.7275 32.059 44.7275C32.4473 44.7275 32.7622 44.4126 32.7622 44.0243V41.9506C33.9947 41.8066 35.109 41.3025 36.0155 40.4697C36.988 39.5761 37.6445 38.3652 37.8639 37.06C38.3061 34.4295 36.9257 32.1409 34.3472 31.2294V31.2294ZM29.2452 28.829C28.5336 28.2708 28.2218 27.2326 28.4316 26.1195C28.6225 25.1061 29.3238 23.8735 30.7191 23.4531C30.9378 23.3873 31.1496 23.3377 31.3558 23.2995V30.0524C30.4421 29.6343 29.7726 29.2426 29.2452 28.829V28.829ZM36.477 36.8268C36.203 38.4567 34.9358 40.2057 32.7621 40.5337V32.1485C33.1117 32.2802 33.4826 32.4154 33.8784 32.5552C36.1867 33.3711 36.7342 35.2968 36.477 36.8268V36.8268Z" fill="#6C41BF"/>
</svg>
