<svg width="500" height="228" viewBox="0 0 500 228" fill="none" xmlns="http://www.w3.org/2000/svg">
<path d="M0.46582 178.419V138.672L76.2794 19.4316H112.346V72.4275H91.7365L50.8855 137.2V138.672H162.766V178.419H0.46582ZM92.1045 207.861V166.274L93.2086 148.977V19.4316H141.052V207.861H92.1045Z" fill="white"/>
<path d="M337.233 178.419V138.672L413.047 19.4316H449.114V72.4275H428.504L387.653 137.2V138.672H499.533V178.419H337.233ZM428.872 207.861V166.274L429.976 148.977V19.4316H477.82V207.861H428.872Z" fill="white"/>
<g clip-path="url(#clip0_387_22370)">
<path d="M355.751 178.616C390.371 126.747 375.813 55.776 323.234 20.0981C270.655 -15.5797 199.966 -2.45413 165.346 49.4149C130.726 101.284 145.284 172.255 197.862 207.932C250.441 243.61 321.13 230.485 355.751 178.616Z" fill="#011955"/>
<path d="M347.73 174.285C379.215 127.114 365.476 62.2325 317.043 29.3682C268.611 -3.49611 203.825 8.1018 172.34 55.2729C140.855 102.444 154.594 167.325 203.027 200.19C251.459 233.054 316.245 221.456 347.73 174.285Z" fill="white"/>
<path d="M290.831 135.305C279.447 152.364 256.502 156.886 239.583 145.408C222.664 133.93 218.179 110.795 229.563 93.736C240.947 76.6769 263.892 72.1543 280.81 83.6324C297.729 95.1105 302.215 118.245 290.831 135.305Z" fill="#0D4EE3"/>
<path d="M294.286 85.5439C296.313 88.1077 298.015 90.8879 299.378 93.8239L318.396 84.446C316.004 80.0377 313.107 75.8499 309.722 71.9844L294.286 85.5439Z" fill="#011955"/>
<path d="M285.774 77.4915C288.493 79.4045 290.912 81.6003 293.021 84.0166L308.398 70.509C305.04 66.8889 301.242 63.5723 297.018 60.6445L285.774 77.4915Z" fill="#011955"/>
<path d="M300.177 95.6473C301.391 98.6146 302.274 101.721 302.816 104.905L324.658 100.598C323.435 95.6473 321.649 90.8149 319.321 86.207L300.177 95.6473Z" fill="#011955"/>
<path d="M232.833 81.4394C235.165 79.3704 237.667 77.5718 240.29 76.0517L229.952 54.7383C225.326 56.9466 220.948 59.7184 216.929 63.0308L232.835 81.4373L232.833 81.4394Z" fill="#011955"/>
<path d="M252.605 71.178C255.699 70.4627 258.854 70.0905 262.007 70.0718L263.474 48.5962C258.388 48.1948 253.306 48.3778 248.328 49.1264L252.605 71.178Z" fill="#0D4EE3"/>
<path d="M263.982 70.1071C267.178 70.2381 270.362 70.7392 273.472 71.6208L280.125 52.0686C275.303 50.4072 270.375 49.3176 265.435 48.7832L263.979 70.1091L263.982 70.1071Z" fill="#011955"/>
<path d="M275.365 72.2054C278.391 73.2243 281.329 74.6154 284.128 76.3912L295.376 59.5379C291.078 56.7329 286.588 54.4705 281.989 52.7363L275.365 72.2033V72.2054Z" fill="#011955"/>
<path d="M278.132 154.066C275.305 155.52 272.356 156.661 269.339 157.474L273.641 179.659C278.72 178.769 283.678 177.289 288.401 175.234L278.132 154.066Z" fill="#011955"/>
<path d="M217.135 112.391L193.803 110.771C193.675 115.918 194.151 121.071 195.211 126.119L217.247 121.775C216.888 118.686 216.849 115.539 217.135 112.391Z" fill="#011955"/>
<path d="M326.53 119.984L303.076 118.355C302.68 121.423 301.974 124.485 300.945 127.488L323.843 135.408C325.375 130.36 326.262 125.18 326.53 119.984Z" fill="#011955"/>
<path d="M242.024 75.0982C244.808 73.6447 247.714 72.4969 250.688 71.6672L246.38 49.4492C241.344 50.36 236.429 51.855 231.75 53.9157L242.026 75.0982H242.024Z" fill="#011955"/>
<path d="M303.285 116.373L326.599 117.991C326.706 112.807 326.201 107.619 325.104 102.539L303.102 106.877C303.491 110 303.555 113.183 303.283 116.373H303.285Z" fill="#011955"/>
<path d="M244.538 156.662C241.523 155.602 238.595 154.169 235.813 152.352L224.569 169.201C228.851 172.043 233.33 174.343 237.919 176.115L244.536 156.664L244.538 156.662Z" fill="#011955"/>
<path d="M267.421 157.943C264.293 158.638 261.106 158.983 257.922 158.966L256.46 180.403C261.572 180.841 266.685 180.69 271.692 179.968L267.421 157.943Z" fill="#011955"/>
<path d="M287.461 147.691C285.09 149.783 282.545 151.596 279.874 153.121L290.204 174.415C294.879 172.209 299.303 169.429 303.363 166.096L287.461 147.691Z" fill="#011955"/>
<path d="M294.941 139.291C293.13 141.888 291.107 144.244 288.917 146.348L304.873 164.813C308.744 161.426 312.254 157.517 315.298 153.102L294.941 139.291Z" fill="#011955"/>
<path d="M255.947 158.91C252.734 158.742 249.537 158.199 246.421 157.271L239.776 176.799C244.604 178.502 249.541 179.633 254.493 180.205L255.947 158.91Z" fill="#0D4EE3"/>
<path d="M300.257 129.355C299.148 132.194 297.745 134.97 296.042 137.64L316.399 151.451C319.307 146.943 321.577 142.191 323.231 137.303L300.257 129.355Z" fill="#011955"/>
<path d="M220.188 99.5502C221.289 96.7577 222.673 94.0254 224.352 91.3971L203.995 77.5859C201.112 82.0524 198.858 86.758 197.208 91.6008L220.188 99.5502Z" fill="#011955"/>
<path d="M225.454 89.7469C227.238 87.1913 229.226 84.8687 231.377 82.7873L215.417 64.3184C211.59 67.6828 208.115 71.5629 205.098 75.9358L225.454 89.7469Z" fill="#011955"/>
<path d="M217.361 110.412C217.769 107.388 218.479 104.373 219.501 101.417L196.598 93.4941C195.068 98.4971 194.17 103.629 193.884 108.782L217.359 110.41L217.361 110.412Z" fill="#011955"/>
<path d="M220.044 132.949C218.873 129.996 218.027 126.909 217.52 123.75L195.649 128.063C196.837 132.993 198.584 137.809 200.867 142.408L220.046 132.951L220.044 132.949Z" fill="#011955"/>
<path d="M234.184 151.229C231.499 149.285 229.113 147.062 227.036 144.621L211.646 158.141C214.972 161.784 218.742 165.126 222.937 168.083L234.182 151.229H234.184Z" fill="#011955"/>
<path d="M225.789 143.078C223.807 140.506 222.149 137.719 220.823 134.783L201.777 144.176C204.13 148.586 206.989 152.78 210.33 156.658L225.786 143.08L225.789 143.078Z" fill="#011955"/>
<path d="M309.721 71.983C313.105 75.8506 316.002 80.0364 318.395 84.4446L349.308 69.1988C345.543 62.1518 340.933 55.4708 335.514 49.3242L309.721 71.983Z" fill="#000C28"/>
<path d="M297.014 60.6433C301.237 63.5731 305.036 66.8876 308.393 70.5078L334.188 47.849C328.876 42.0475 322.825 36.7472 316.065 32.0957L297.014 60.6433Z" fill="#F3C934"/>
<path d="M281.984 52.7385C286.583 54.4727 291.073 56.735 295.371 59.5401L314.424 30.9904C307.59 26.4678 300.427 22.8518 293.086 20.1133L281.984 52.7385Z" fill="#000C28"/>
<path d="M248.325 49.1264C253.301 48.3778 258.385 48.1948 263.47 48.5961L265.832 13.9789C257.719 13.2865 249.604 13.5714 241.668 14.7982L248.325 49.1264Z" fill="#000C28"/>
<path d="M265.438 48.7812C270.377 49.3176 275.306 50.4072 280.127 52.0666L291.23 19.4393C283.546 16.7382 275.681 14.9915 267.801 14.166L265.44 48.7812H265.438Z" fill="#F3C934"/>
<path d="M231.749 53.9139C236.429 51.8554 241.343 50.3603 246.379 49.4475L239.722 15.1172C231.675 16.5228 223.828 18.9037 216.377 22.2224L231.749 53.9139Z" fill="#F3C934"/>
<path d="M193.801 110.774L158.895 108.352C158.651 116.563 159.42 124.787 161.161 132.834L195.209 126.122C194.149 121.073 193.673 115.92 193.801 110.774Z" fill="#000C28"/>
<path d="M288.399 175.23C283.677 177.285 278.721 178.765 273.64 179.655L280.297 213.984C288.387 212.603 296.277 210.237 303.772 206.924L288.397 175.233L288.399 175.23Z" fill="#F3C934"/>
<path d="M326.597 117.99L361.505 120.413C361.726 112.164 360.927 103.904 359.15 95.8262L325.104 102.538C326.201 107.618 326.706 112.806 326.599 117.99H326.597Z" fill="#000C28"/>
<path d="M319.32 86.2087C321.649 90.8165 323.437 95.649 324.657 100.6L358.706 93.8877C356.809 85.9945 353.971 78.2925 350.232 70.9648L319.32 86.2087Z" fill="#F3C934"/>
<path d="M361.432 122.403L326.526 119.98C326.26 125.179 325.371 130.359 323.839 135.405L357.145 146.927C359.63 138.909 361.045 130.668 361.432 122.401V122.403Z" fill="#F3C934"/>
<path d="M216.923 63.0309C220.942 59.7164 225.32 56.9446 229.946 54.7384L214.572 23.0469C207.17 26.5236 200.181 30.9401 193.792 36.2633L216.923 63.0309Z" fill="#000C28"/>
<path d="M271.687 179.969C266.678 180.692 261.566 180.844 256.455 180.403L254.092 215.018C262.232 215.75 270.378 215.499 278.344 214.299L271.687 179.969Z" fill="#000C28"/>
<path d="M254.492 180.205C249.54 179.633 244.603 178.502 239.775 176.799L228.674 209.424C236.362 212.171 244.236 213.959 252.13 214.822L254.494 180.205H254.492Z" fill="#F3C934"/>
<path d="M303.362 166.096C299.301 169.429 294.877 172.209 290.202 174.415L305.574 206.107C313.025 202.632 320.062 198.205 326.492 192.865L303.362 166.096Z" fill="#000C28"/>
<path d="M323.233 137.301C321.579 142.191 319.308 146.943 316.4 151.449L345.675 171.311C350.341 164.162 353.95 156.606 356.539 148.823L323.233 137.301Z" fill="#000C28"/>
<path d="M315.298 153.104C312.252 157.518 308.742 161.427 304.873 164.815L328.004 191.582C334.18 186.234 339.763 180.017 344.572 172.964L315.298 153.102V153.104Z" fill="#F3C934"/>
<path d="M237.918 176.113C233.327 174.341 228.85 172.042 224.569 169.199L205.518 197.747C212.338 202.307 219.485 205.962 226.817 208.74L237.918 176.113Z" fill="#000C28"/>
<path d="M193.88 108.784C194.167 103.631 195.062 98.4993 196.594 93.4964L163.288 81.9746C160.805 89.9469 159.38 98.1396 158.972 106.361L193.88 108.784Z" fill="#F3C934"/>
<path d="M197.203 91.6016C198.853 86.7587 201.107 82.0532 203.99 77.5867L174.716 57.7246C170.076 64.8319 166.482 72.3425 163.896 80.0798L197.201 91.6016H197.203Z" fill="#000C28"/>
<path d="M222.937 168.082C218.742 165.125 214.972 161.784 211.646 158.141L185.853 180.799C191.134 186.624 197.154 191.951 203.883 196.632L222.937 168.082Z" fill="#F3C934"/>
<path d="M205.097 75.9359C208.115 71.561 211.589 67.6829 215.417 64.3185L192.286 37.5488C186.153 42.8762 180.606 49.0623 175.823 56.0759L205.097 75.938V75.9359Z" fill="#F3C934"/>
<path d="M200.862 142.408C198.58 137.811 196.833 132.993 195.645 128.062L161.599 134.775C163.461 142.649 166.257 150.335 169.949 157.654L200.862 142.408Z" fill="#F3C934"/>
<path d="M210.328 156.658C206.987 152.78 204.129 148.588 201.776 144.176L170.864 159.42C174.591 166.469 179.159 173.158 184.533 179.317L210.328 156.658Z" fill="#000C28"/>
<path d="M275.914 120.979C274.837 120.249 273.495 120.222 272.422 120.792L267.762 117.629C269.003 114.566 268.294 111.019 265.959 108.682L269.098 103.978C270.325 104.126 271.589 103.591 272.328 102.487C273.377 100.915 272.963 98.7839 271.404 97.7255C269.845 96.6671 267.731 97.085 266.681 98.657C265.943 99.7633 265.928 101.144 266.526 102.236L263.388 106.939C260.362 105.64 256.836 106.313 254.489 108.626L249.876 105.496C249.995 104.28 249.465 103.036 248.389 102.306C246.83 101.248 244.716 101.666 243.666 103.238C242.616 104.81 243.031 106.941 244.59 108C245.706 108.757 247.104 108.759 248.195 108.122L252.724 111.194C251.356 114.304 252.045 117.966 254.433 120.359L251.746 124.387C250.519 124.239 249.255 124.774 248.516 125.878C247.467 127.45 247.881 129.581 249.44 130.64C250.999 131.698 253.113 131.28 254.163 129.708C254.901 128.602 254.916 127.221 254.318 126.13L257.005 122.102C260.102 123.433 263.726 122.694 266.069 120.247L270.645 123.352C270.472 124.61 271.002 125.915 272.115 126.672C273.674 127.731 275.788 127.313 276.838 125.741C277.888 124.169 277.473 122.037 275.914 120.979Z" fill="#F3C934"/>
</g>
<defs>
<clipPath id="clip0_387_22370">
<rect width="228" height="228" fill="white" transform="translate(146.544)"/>
</clipPath>
</defs>
</svg>
