<svg width="979" height="365" viewBox="0 0 979 365" fill="none" xmlns="http://www.w3.org/2000/svg">
<path d="M386.102 281.022V250.743H406.204V213.267H386.102V115.482H326.788L264 217.486V250.743H343.168V281.022H386.102ZM343.168 213.267H305.445L343.168 152.71V213.267Z" fill="#215273"/>
<path d="M488.899 284C537.293 284 559.877 242.057 559.877 198.376C559.877 154.695 537.293 113 488.899 113C440.505 113 417.921 154.695 417.921 198.376C417.921 242.057 440.505 284 488.899 284ZM488.899 246.276C469.045 246.276 461.104 227.662 461.104 198.376C461.104 169.09 469.045 150.724 488.899 150.724C508.753 150.724 516.695 169.09 516.695 198.376C516.695 227.662 508.753 246.276 488.899 246.276Z" fill="#215273"/>
<path d="M693.898 281.022V250.743H714V213.267H693.898V115.482H634.584L571.796 217.486V250.743H650.964V281.022H693.898ZM650.964 213.267H613.241L650.964 152.71V213.267Z" fill="#215273"/>
<mask id="mask0_702_9123" style="mask-type:alpha" maskUnits="userSpaceOnUse" x="0" y="0" width="979" height="365">
<rect width="979" height="365" fill="url(#paint0_linear_702_9123)"/>
</mask>
<g mask="url(#mask0_702_9123)">
<path d="M-1 230.88H70.8562C71.399 230.88 71.9039 230.598 72.189 230.131L80.6249 216.326C81.2603 215.286 82.7922 215.344 83.3452 216.429L100.433 249.812C101.086 251.087 102.968 250.884 103.332 249.496L125.137 166.388C125.573 164.722 127.991 164.887 128.197 166.597L148.315 355.862C148.538 357.717 151.245 357.683 151.42 355.821L182.326 6.41472C182.505 4.52557 185.263 4.529 185.435 6.42158L211.824 296.718C211.982 298.446 214.414 298.666 214.881 296.996L240.666 204.851C241.072 203.405 243.088 203.308 243.627 204.71L261.739 251.818C262.21 253.041 263.889 253.175 264.545 252.042L276.375 231.659C276.653 231.178 277.168 230.883 277.725 230.883H355.145" stroke="url(#paint1_linear_702_9123)" stroke-width="3" stroke-miterlimit="10"/>
<path d="M355.145 230.879H434.283C434.825 230.879 435.33 230.598 435.615 230.131L444.051 216.326C444.687 215.285 446.219 215.344 446.772 216.429L463.86 249.812C464.512 251.086 466.395 250.884 466.759 249.496L488.563 166.387C488.999 164.722 491.417 164.886 491.623 166.597L504.679 274.828C504.871 276.411 507.063 276.659 507.602 275.158L522.715 233.037C523.179 231.745 524.405 230.879 525.779 230.879H624.674" stroke="url(#paint2_linear_702_9123)" stroke-width="3" stroke-miterlimit="10"/>
<path d="M624.676 230.88H700.293C700.836 230.88 701.341 230.598 701.626 230.131L710.062 216.326C710.697 215.286 712.229 215.344 712.782 216.429L729.87 249.812C730.523 251.087 732.405 250.884 732.769 249.496L754.573 166.388C755.01 164.722 757.428 164.887 757.634 166.597L777.752 355.862C777.975 357.717 780.681 357.683 780.857 355.821L811.763 6.41472C811.942 4.52557 814.7 4.529 814.872 6.42158L841.261 296.718C841.419 298.446 843.851 298.666 844.318 296.996L870.103 204.851C870.509 203.405 872.525 203.308 873.064 204.71L891.176 251.818C891.646 253.041 893.326 253.175 893.982 252.042L905.812 231.659C906.09 231.178 906.605 230.883 907.162 230.883H978.997" stroke="url(#paint3_linear_702_9123)" stroke-width="3" stroke-miterlimit="10"/>
</g>
<defs>
<linearGradient id="paint0_linear_702_9123" x1="4.40667e-06" y1="232" x2="979" y2="232" gradientUnits="userSpaceOnUse">
<stop stop-opacity="0"/>
<stop offset="0.208333"/>
<stop offset="0.796875"/>
<stop offset="1" stop-opacity="0"/>
</linearGradient>
<linearGradient id="paint1_linear_702_9123" x1="-1" y1="5" x2="352.533" y2="362.466" gradientUnits="userSpaceOnUse">
<stop stop-color="#7CE495"/>
<stop offset="1" stop-color="#359D9E"/>
</linearGradient>
<linearGradient id="paint2_linear_702_9123" x1="355.145" y1="165.222" x2="433.528" y2="355.666" gradientUnits="userSpaceOnUse">
<stop stop-color="#359D9E"/>
<stop offset="1" stop-color="#7CE495"/>
</linearGradient>
<linearGradient id="paint3_linear_702_9123" x1="624.676" y1="5" x2="978.224" y2="360.65" gradientUnits="userSpaceOnUse">
<stop stop-color="#7CE495"/>
<stop offset="1" stop-color="#359D9E"/>
</linearGradient>
</defs>
</svg>
