<svg width="51" height="27" viewBox="0 0 51 27" fill="none" xmlns="http://www.w3.org/2000/svg">
<path d="M0 17.1399L14.33 0.139893H18.24V16.6399H21.9299V20.29H18.24V26.1399H13.86V20.29H2.16003L0 17.1399ZM5.38 16.6799H13.86V6.44995L5.38 16.6799Z" fill="white"/>
<path d="M27.13 0.360107H32.12L27.13 5.36011V0.360107Z" fill="#3BA8FF"/>
<path d="M49.47 8.16002C48.8272 6.6185 47.878 5.22377 46.6799 4.06017C45.4241 2.87713 43.9454 1.95594 42.33 1.35021C40.5508 0.676341 38.6624 0.337307 36.76 0.350208H35.45L27.13 8.67003V26.17H36.76C38.6629 26.1878 40.5521 25.8486 42.33 25.17C43.951 24.5663 45.4313 23.6372 46.6799 22.4401C47.878 21.2764 48.8272 19.8817 49.47 18.3402C50.8162 15.0769 50.8162 11.4133 49.47 8.15001V8.16002ZM43.24 19.6002C42.378 20.4255 41.3575 21.0673 40.2402 21.4867C39.123 21.9061 37.9322 22.0943 36.74 22.0401H31.65V4.51012H36.74C37.9358 4.46134 39.1291 4.65694 40.2467 5.08507C41.3643 5.51321 42.3828 6.16487 43.24 7.00011C44.8319 8.71773 45.7164 10.9732 45.7164 13.3151C45.7164 15.6569 44.8319 17.9124 43.24 19.63V19.6002Z" fill="white"/>
</svg>
