<svg width="54" height="54" viewBox="0 0 54 54" fill="none" xmlns="http://www.w3.org/2000/svg">
<rect width="54" height="54" rx="27" fill="#0D4EE3"/>
<g clip-path="url(#clip0_387_22125)">
<path d="M27 39C24.6266 39 22.3066 38.2962 20.3332 36.9776C18.3598 35.6591 16.8217 33.7849 15.9135 31.5922C15.0052 29.3995 14.7676 26.9867 15.2306 24.6589C15.6936 22.3312 16.8365 20.193 18.5147 18.5147C20.193 16.8365 22.3312 15.6936 24.6589 15.2306C26.9867 14.7676 29.3995 15.0052 31.5922 15.9135C33.7849 16.8217 35.6591 18.3598 36.9776 20.3332C38.2962 22.3066 39 24.6266 39 27C38.9966 30.1815 37.7312 33.2318 35.4815 35.4815C33.2318 37.7312 30.1815 38.9966 27 39ZM27 17C25.0222 17 23.0888 17.5865 21.4443 18.6853C19.7998 19.7841 18.5181 21.3459 17.7612 23.1732C17.0043 25.0004 16.8063 27.0111 17.1922 28.9509C17.578 30.8907 18.5304 32.6725 19.9289 34.0711C21.3275 35.4696 23.1093 36.422 25.0491 36.8079C26.9889 37.1937 28.9996 36.9957 30.8268 36.2388C32.6541 35.4819 34.2159 34.2002 35.3147 32.5557C36.4135 30.9112 37 28.9778 37 27C36.9971 24.3487 35.9426 21.8069 34.0679 19.9322C32.1931 18.0574 29.6513 17.0029 27 17ZM27 35C25.4178 35 23.871 34.5308 22.5554 33.6518C21.2399 32.7727 20.2145 31.5233 19.609 30.0615C19.0035 28.5997 18.845 26.9911 19.1537 25.4393C19.4624 23.8874 20.2243 22.462 21.3432 21.3432C22.462 20.2243 23.8874 19.4624 25.4393 19.1537C26.9911 18.845 28.5997 19.0035 30.0615 19.609C31.5233 20.2145 32.7727 21.2399 33.6518 22.5554C34.5308 23.871 35 25.4178 35 27C34.9976 29.121 34.154 31.1545 32.6542 32.6542C31.1545 34.154 29.121 34.9976 27 35ZM27 21C25.8133 21 24.6533 21.3519 23.6666 22.0112C22.6799 22.6705 21.9109 23.6075 21.4567 24.7039C21.0026 25.8003 20.8838 27.0067 21.1153 28.1705C21.3468 29.3344 21.9182 30.4035 22.7574 31.2426C23.5965 32.0818 24.6656 32.6532 25.8295 32.8847C26.9934 33.1162 28.1997 32.9974 29.2961 32.5433C30.3925 32.0892 31.3295 31.3201 31.9888 30.3334C32.6481 29.3467 33 28.1867 33 27C32.9984 25.4092 32.3658 23.884 31.2409 22.7591C30.116 21.6342 28.5908 21.0016 27 21ZM30 25.448V24H24V26H27.462L25.112 30.54L26.888 31.46L30 25.448Z" fill="white"/>
</g>
<defs>
<clipPath id="clip0_387_22125">
<rect width="24" height="24" fill="white" transform="translate(15 15)"/>
</clipPath>
</defs>
</svg>
