<svg width="88" height="88" viewBox="0 0 88 88" fill="none" xmlns="http://www.w3.org/2000/svg">
<rect width="88" height="88" rx="44" fill="#0D4EE3"/>
<g clip-path="url(#clip0_387_36496)">
<path d="M26.6379 45.5824L28.2149 44.8038L29.7921 45.5824C29.939 45.6549 30.0972 45.6907 30.2547 45.6906C30.4709 45.6906 30.6857 45.6231 30.8679 45.4909C31.1826 45.2622 31.3433 44.881 31.2873 44.4961L31.0342 42.7555L32.262 41.4962C32.5336 41.2176 32.6277 40.8148 32.5075 40.4449C32.3873 40.0748 32.0744 39.8042 31.6909 39.7385L29.9574 39.4414L29.139 37.8845C28.958 37.5401 28.604 37.3262 28.2149 37.3262C27.826 37.3262 27.4719 37.5401 27.2909 37.8845L26.4726 39.4414L24.739 39.7385C24.3555 39.8042 24.0427 40.0748 23.9225 40.4449C23.8023 40.8148 23.8964 41.2176 24.1679 41.4962L25.3958 42.7555L25.1427 44.4961C25.0867 44.881 25.2474 45.2622 25.5621 45.4909C25.8768 45.7195 26.2889 45.7545 26.6379 45.5824ZM27.8942 38.5386L27.8946 38.5395C27.8945 38.5392 27.8944 38.5389 27.8942 38.5386ZM26.8864 40.7972C27.2045 40.7426 27.484 40.5395 27.6342 40.2539L28.2149 39.1489L28.7956 40.2536C28.9456 40.5394 29.2252 40.7425 29.5435 40.7972L30.7739 41.008L29.9025 41.9017C29.6772 42.1328 29.5704 42.4615 29.6169 42.7808L29.7965 44.0162L28.677 43.4635C28.5324 43.3921 28.3738 43.3565 28.215 43.3565C28.0563 43.3565 27.8976 43.3922 27.7529 43.4636L26.6335 44.0163L26.8131 42.781C26.8596 42.4616 26.7528 42.1329 26.5275 41.9018L25.656 41.008L26.8864 40.7972Z" fill="white"/>
<path d="M48.2924 40.4448C48.1722 40.0748 47.8592 39.8042 47.4759 39.7385L45.7424 39.4414L44.924 37.8845H44.9241C44.7431 37.5401 44.389 37.3262 44 37.3262C43.6109 37.3262 43.2569 37.5401 43.0759 37.8845L42.2577 39.4414L40.5241 39.7385C40.1407 39.8042 39.8279 40.0748 39.7077 40.4448C39.5875 40.8147 39.6815 41.2175 39.953 41.4962L41.1809 42.7555L40.9278 44.496C40.8718 44.8809 41.0324 45.2622 41.3473 45.4909C41.5294 45.6232 41.7442 45.6907 41.9605 45.6907C42.1179 45.6907 42.2761 45.6549 42.423 45.5824L43.9999 44.8038L45.577 45.5824C45.9258 45.7547 46.3381 45.7195 46.6528 45.4909C46.9675 45.2622 47.1282 44.8809 47.0722 44.4961L46.8191 42.7555L48.047 41.4962C48.3185 41.2175 48.4125 40.8147 48.2924 40.4448ZM45.6872 41.9019C45.4621 42.1329 45.3554 42.4615 45.4018 42.7809L45.5814 44.0163L44.462 43.4637C44.1726 43.3208 43.827 43.3207 43.5378 43.4637L42.4184 44.0164L42.5982 42.7809C42.6445 42.4616 42.5377 42.1331 42.3125 41.902L41.441 41.0082L42.6714 40.7974C42.9895 40.7428 43.2689 40.5397 43.4191 40.2541L43.9999 39.1489L44.5807 40.2539C44.7309 40.5395 45.0104 40.7426 45.3284 40.7972L46.5589 41.008L45.6872 41.9019Z" fill="white"/>
<path d="M62.9585 40.1447L61.225 39.8476L60.4066 38.2907C60.2256 37.9464 59.8716 37.7324 59.4825 37.7324C59.0935 37.7324 58.7394 37.9464 58.5584 38.2907L57.7402 39.8476L56.0066 40.1447C55.6231 40.2104 55.3103 40.4811 55.1901 40.8511C55.0699 41.221 55.1639 41.6239 55.4355 41.9025L56.6634 43.1619L56.4102 44.9024C56.3543 45.2874 56.5151 45.6685 56.8298 45.8972C57.0119 46.0295 57.2267 46.097 57.4429 46.097C57.6003 46.097 57.7586 46.0613 57.9055 45.9887L59.4826 45.2101L61.0598 45.9887C61.4084 46.1608 61.8207 46.1259 62.1356 45.8972C62.4503 45.6685 62.611 45.2874 62.555 44.9024L62.3019 43.1619L63.5297 41.9025C63.8013 41.624 63.8952 41.2211 63.7751 40.8512C63.6548 40.4812 63.3419 40.2104 62.9585 40.1447ZM61.17 42.3082C60.9448 42.5392 60.8381 42.8678 60.8845 43.1872L61.0642 44.4225L59.9449 43.87C59.8001 43.7985 59.6414 43.7627 59.4826 43.7627C59.3239 43.7627 59.1652 43.7984 59.0205 43.8699L57.9011 44.4224L58.0809 43.1869C58.1273 42.8676 58.0205 42.539 57.7952 42.308L56.9237 41.4142L58.1542 41.2033C58.4723 41.1488 58.7517 40.9457 58.9018 40.66L59.4826 39.555L60.0634 40.66C60.2136 40.9457 60.4931 41.1488 60.8111 41.2033L62.0416 41.4142L61.17 42.3082Z" fill="white"/>
<path d="M64.4524 32.5549H60.4962C59.6747 29.5753 58.0584 26.8722 55.8063 24.725C55.5253 24.4572 55.0802 24.4677 54.8122 24.7487C54.5442 25.0298 54.5548 25.4748 54.8359 25.7428C56.8089 27.6238 58.251 29.9686 59.0338 32.5549H57.0123C56.1121 29.9921 54.4345 27.7017 52.2482 26.0666C49.8521 24.2747 46.9998 23.3276 43.9996 23.3276C40.9926 23.3276 38.1351 24.2787 35.7359 26.078C33.5563 27.7126 31.8845 29.9978 30.9862 32.555H28.9652C29.8832 29.5329 31.7223 26.8147 34.2105 24.8291C37.0165 22.5898 40.4016 21.4062 43.9996 21.4062C47.1844 21.4062 50.2507 22.354 52.8671 24.1469C53.1875 24.3664 53.6251 24.2847 53.8446 23.9644C54.0641 23.6441 53.9824 23.2064 53.662 22.987C50.8105 21.0328 47.4694 20 43.9996 20C40.0795 20 36.3911 21.2898 33.3334 23.7298C30.5118 25.9814 28.4564 29.0988 27.5015 32.5549H23.5468C21.6256 32.5549 20.0625 34.1179 20.0625 36.0391V47.6962C20.0625 49.6174 21.6255 51.1804 23.5468 51.1804H26.0946V65.2976C26.0946 66.7876 27.3068 67.9999 28.797 67.9999H59.2022C60.6923 67.9999 61.9045 66.7876 61.9045 65.2976V51.1805H64.4523C66.3735 51.1805 67.9365 49.6175 67.9365 47.6963V36.0392C67.9366 34.118 66.3736 32.5549 64.4524 32.5549ZM36.5797 27.2029C38.7335 25.5876 41.2993 24.7337 43.9996 24.7337C46.6939 24.7337 49.2549 25.584 51.406 27.1927C53.237 28.5619 54.6706 30.4422 55.5114 32.5548H32.4872C33.3261 30.4473 34.7547 28.5716 36.5797 27.2029ZM36.5361 49.7553V33.9613H51.4631V49.7553H36.5361ZM21.4688 47.6963V36.0392C21.4688 34.8934 22.401 33.9613 23.5469 33.9613H35.1299V49.7553L23.5469 49.7743C22.401 49.7743 21.4688 48.842 21.4688 47.6963ZM60.4984 65.2977C60.4984 66.0123 59.9169 66.5938 59.2023 66.5938H28.797C28.0822 66.5938 27.5008 66.0123 27.5008 65.2977V51.1805H32.3436V56.1777C32.3436 57.2532 33.2184 58.128 34.2938 58.128H37.6318C38.0201 58.128 38.3349 57.8132 38.3349 57.4249C38.3349 57.0366 38.0201 56.7218 37.6318 56.7218H34.2938C33.9938 56.7218 33.7498 56.4777 33.7498 56.1777V51.1994H54.2493V56.1777C54.2493 56.4777 54.0052 56.7218 53.7053 56.7218H40.4444C40.0561 56.7218 39.7413 57.0366 39.7413 57.4249C39.7413 57.8132 40.0561 58.128 40.4444 58.128H53.7053C54.7807 58.128 55.6555 57.2532 55.6555 56.1777V51.1805H60.4983V65.2977H60.4984ZM66.5303 47.6963C66.5303 48.8421 65.5982 49.7743 64.4524 49.7743L52.8694 49.7553V33.9613H64.4524C65.5982 33.9613 66.5303 34.8934 66.5303 36.0392V47.6963Z" fill="white"/>
<path d="M35.3942 59.3301C33.7725 59.3301 32.4531 60.6494 32.4531 62.2712C32.4531 63.8929 33.7725 65.2123 35.3942 65.2123C37.016 65.2123 38.3354 63.893 38.3354 62.2712C38.3354 60.6494 37.016 59.3301 35.3942 59.3301ZM35.3942 63.806C34.5479 63.806 33.8594 63.1175 33.8594 62.2711C33.8594 61.4248 34.5479 60.7362 35.3942 60.7362C36.2406 60.7362 36.9291 61.4248 36.9291 62.2711C36.9291 63.1175 36.2406 63.806 35.3942 63.806Z" fill="white"/>
<path d="M43.9997 59.3301C42.3779 59.3301 41.0586 60.6494 41.0586 62.2712C41.0586 63.8929 42.3779 65.2123 43.9997 65.2123C45.6214 65.2123 46.9408 63.893 46.9408 62.2712C46.9408 60.6494 45.6215 59.3301 43.9997 59.3301ZM43.9997 63.806C43.1533 63.806 42.4648 63.1175 42.4648 62.2711C42.4648 61.4248 43.1533 60.7362 43.9997 60.7362C44.846 60.7362 45.5346 61.4248 45.5346 62.2711C45.5346 63.1175 44.8461 63.806 43.9997 63.806Z" fill="white"/>
<path d="M52.6052 59.3301C50.9834 59.3301 49.6641 60.6494 49.6641 62.2712C49.6641 63.8929 50.9834 65.2123 52.6052 65.2123C54.227 65.2123 55.5463 63.893 55.5463 62.2712C55.5463 60.6494 54.227 59.3301 52.6052 59.3301ZM52.6052 63.806C51.7588 63.806 51.0703 63.1175 51.0703 62.2711C51.0703 61.4248 51.7588 60.7362 52.6052 60.7362C53.4516 60.7362 54.1401 61.4248 54.1401 62.2711C54.1401 63.1175 53.4516 63.806 52.6052 63.806Z" fill="white"/>
<path d="M41.7617 28.0156H46.2377C46.626 28.0156 46.9408 27.7008 46.9408 27.3125C46.9408 26.9242 46.626 26.6094 46.2377 26.6094H41.7617C41.3734 26.6094 41.0586 26.9242 41.0586 27.3125C41.0586 27.7008 41.3734 28.0156 41.7617 28.0156Z" fill="white"/>
<path d="M48.9753 29.4531H39.0254C38.6371 29.4531 38.3223 29.7679 38.3223 30.1562C38.3223 30.5446 38.6371 30.8594 39.0254 30.8594H48.9752C49.3635 30.8594 49.6783 30.5446 49.6783 30.1562C49.6784 29.7679 49.3636 29.4531 48.9753 29.4531Z" fill="white"/>
</g>
<defs>
<clipPath id="clip0_387_36496">
<rect width="48" height="48" fill="white" transform="translate(20 20)"/>
</clipPath>
</defs>
</svg>
