<svg width="37" height="36" viewBox="0 0 37 36" fill="none" xmlns="http://www.w3.org/2000/svg">
<path d="M12.259 13.8323V14.5186C12.2588 14.5759 12.2472 14.6326 12.225 14.6854C12.2028 14.7382 12.1704 14.7861 12.1296 14.8264C12.0889 14.8666 12.0405 14.8984 11.9874 14.9199C11.9344 14.9414 11.8775 14.9522 11.8202 14.9517H11.584C11.5267 14.9522 11.4699 14.9414 11.4168 14.9199C11.3637 14.8984 11.3153 14.8666 11.2746 14.8264C11.2338 14.7861 11.2014 14.7382 11.1792 14.6854C11.157 14.6326 11.1455 14.5759 11.1452 14.5186V13.8323C11.1454 13.716 11.1917 13.6045 11.2739 13.5223C11.3562 13.44 11.4677 13.3937 11.584 13.3936H11.8202C11.9366 13.3937 12.0481 13.44 12.1303 13.5223C12.2126 13.6045 12.2588 13.716 12.259 13.8323ZM10.0613 12.02C9.99978 12.0197 9.94004 11.9993 9.89123 11.9618C9.84243 11.9243 9.80726 11.8719 9.79111 11.8125C9.77496 11.7532 9.77872 11.6902 9.80182 11.6331C9.82492 11.5761 9.86607 11.5282 9.91898 11.4968C10.2848 11.33 10.6803 11.2379 11.0822 11.2258C11.4841 11.2138 11.8843 11.282 12.2595 11.4265C12.3307 11.4489 12.3901 11.4986 12.4246 11.5648C12.4591 11.6309 12.4659 11.7081 12.4435 11.7792C12.4211 11.8504 12.3714 11.9097 12.3052 11.9442C12.2391 11.9787 12.162 11.9855 12.0908 11.9632C11.4817 11.7227 10.8026 11.7304 10.1991 11.9845C10.157 12.008 10.1095 12.0202 10.0613 12.02ZM18.2609 11.8973C18.2246 11.8975 18.1887 11.8906 18.1551 11.8771C17.6354 11.6662 16.5345 11.6031 16.2347 11.8248C16.2052 11.8469 16.1716 11.8631 16.1358 11.8722C16.1 11.8814 16.0628 11.8834 16.0262 11.8782C15.9896 11.873 15.9545 11.8606 15.9227 11.8418C15.8909 11.823 15.8631 11.7981 15.841 11.7685C15.8188 11.739 15.8027 11.7054 15.7935 11.6696C15.7844 11.6338 15.7823 11.5966 15.7876 11.56C15.7928 11.5234 15.8052 11.4883 15.824 11.4565C15.8428 11.4247 15.8677 11.3969 15.8972 11.3748C16.4474 10.967 17.8064 11.1306 18.3638 11.3568C18.4241 11.3814 18.474 11.4261 18.505 11.4834C18.536 11.5407 18.5461 11.6069 18.5337 11.6708C18.5213 11.7348 18.4871 11.7924 18.4369 11.8339C18.3867 11.8754 18.3237 11.8982 18.2586 11.8985L18.2609 11.8973Z" fill="black"/>
<path d="M12.1056 13.6412C12.042 13.6411 11.9804 13.6195 11.9306 13.5799C11.7595 13.4422 11.5464 13.3672 11.3268 13.3672C11.1072 13.3672 10.8941 13.4422 10.723 13.5799C10.6941 13.603 10.6609 13.6201 10.6254 13.6304C10.5899 13.6407 10.5527 13.6439 10.516 13.6398C10.4792 13.6357 10.4436 13.6244 10.4112 13.6065C10.3789 13.5887 10.3503 13.5646 10.3272 13.5357C10.3042 13.5069 10.287 13.4737 10.2767 13.4382C10.2664 13.4027 10.2633 13.3655 10.2674 13.3287C10.2756 13.2545 10.3131 13.1866 10.3714 13.14C10.6428 12.9229 10.9801 12.8047 11.3276 12.8047C11.6752 12.8047 12.0124 12.9229 12.2839 13.14C12.3296 13.1764 12.3628 13.2261 12.3789 13.2822C12.395 13.3383 12.3933 13.3981 12.374 13.4532C12.3546 13.5083 12.3186 13.556 12.2709 13.5897C12.2232 13.6233 12.1662 13.6414 12.1078 13.6412H12.1056ZM18.1187 13.6581C18.0551 13.658 17.9935 13.6364 17.9438 13.5968C17.7713 13.4593 17.5574 13.3845 17.3368 13.3845C17.1163 13.3845 16.9023 13.4593 16.7299 13.5968C16.6714 13.6427 16.5972 13.6636 16.5234 13.655C16.4495 13.6463 16.3821 13.6088 16.3359 13.5506C16.2896 13.4924 16.2683 13.4182 16.2766 13.3443C16.2849 13.2705 16.3221 13.2029 16.38 13.1563C16.6518 12.9399 16.9889 12.8221 17.3363 12.8221C17.6837 12.8221 18.0208 12.9399 18.2925 13.1563C18.338 13.1928 18.371 13.2424 18.387 13.2985C18.403 13.3545 18.4012 13.4141 18.3818 13.469C18.3625 13.524 18.3266 13.5716 18.2791 13.6052C18.2315 13.6389 18.1747 13.657 18.1165 13.657L18.1187 13.6581ZM14.2993 18.9135H14.2352C14.0465 18.9143 13.86 18.8736 13.6888 18.7943C13.5177 18.7149 13.366 18.5989 13.2446 18.4545C13.2014 18.3953 13.1829 18.3215 13.1933 18.2489C13.2037 18.1762 13.242 18.1105 13.3001 18.0658C13.3582 18.021 13.4315 18.0007 13.5044 18.0092C13.5773 18.0178 13.6439 18.0544 13.6901 18.1114C13.7621 18.1891 13.8498 18.2507 13.9473 18.2921C14.0449 18.3335 14.1501 18.3538 14.256 18.3516C14.422 18.3579 14.5874 18.3289 14.7412 18.2663C14.895 18.2038 15.0337 18.1091 15.1481 17.9888C15.1723 17.9596 15.202 17.9357 15.2356 17.9183C15.2692 17.9009 15.306 17.8905 15.3437 17.8877C15.3814 17.8849 15.4194 17.8897 15.4552 17.9019C15.491 17.914 15.524 17.9333 15.5522 17.9585C15.5804 17.9837 15.6032 18.0143 15.6193 18.0486C15.6354 18.0828 15.6444 18.1199 15.6458 18.1577C15.6472 18.1955 15.641 18.2332 15.6275 18.2686C15.614 18.3039 15.5935 18.3362 15.5672 18.3634C15.4058 18.5383 15.2097 18.6776 14.9913 18.7723C14.773 18.867 14.5373 18.9151 14.2993 18.9135ZM13.7065 17.1866C13.5483 17.1851 13.3958 17.1275 13.2761 17.0241C13.18 16.9512 13.1058 16.8532 13.062 16.7408C13.0181 16.6284 13.0062 16.5061 13.0275 16.3873C13.0468 16.3179 13.0919 16.2585 13.1537 16.2214C13.2154 16.1842 13.2891 16.1722 13.3594 16.1878C13.4297 16.2034 13.4914 16.2454 13.5317 16.3051C13.572 16.3648 13.5879 16.4378 13.576 16.5088C13.5933 16.5524 13.6248 16.5889 13.6654 16.6123C13.6773 16.6192 13.6908 16.6228 13.7045 16.6228C13.7182 16.6228 13.7317 16.6192 13.7436 16.6123C13.7773 16.5945 13.8144 16.5837 13.8524 16.5806C13.8905 16.5775 13.9288 16.5822 13.9649 16.5944C14.0011 16.6066 14.0344 16.626 14.0629 16.6515C14.0913 16.677 14.1142 16.708 14.1303 16.7426C14.1463 16.7773 14.1552 16.8148 14.1563 16.853C14.1573 16.8911 14.1506 16.9291 14.1366 16.9646C14.1225 17.0001 14.1013 17.0324 14.0744 17.0594C14.0474 17.0865 14.0153 17.1077 13.9798 17.122C13.8946 17.1635 13.8013 17.1856 13.7065 17.1866Z" fill="black"/>
<path d="M17.7084 13.377H17.4778C17.2355 13.377 17.0391 13.5734 17.0391 13.8157V14.502C17.0391 14.7443 17.2355 14.9407 17.4778 14.9407H17.7084C17.9508 14.9407 18.1472 14.7443 18.1472 14.502V13.8157C18.1472 13.5734 17.9508 13.377 17.7084 13.377Z" fill="black"/>
<path d="M34.4668 23.6811C34.422 23.1245 34.2592 22.5837 33.9892 22.0949C33.7191 21.6061 33.3481 21.1804 32.9008 20.8461C32.4205 20.4082 31.9656 19.9432 31.5384 19.4533C31.1621 19.0152 31.0884 18.1888 30.9962 17.1437C30.9326 15.9188 30.7046 14.7079 30.3183 13.5437C29.9513 12.5276 29.3175 11.6289 28.4835 10.9422C27.4586 10.0301 26.6159 8.93201 26 7.70609C23.9807 3.88109 20.4583 1.83978 16.3526 2.11203C13.5356 2.26953 11.5016 3.20159 10.133 4.9594C9.33493 5.91894 8.81148 7.07664 8.61822 8.30965C8.57267 8.58467 8.5105 8.85666 8.43203 9.12415C8.08984 10.0004 7.59336 10.8081 6.96616 11.5092C5.8721 12.8355 4.63291 14.3436 5.12172 17.497L5.15828 17.7349C5.73035 21.4198 5.73035 21.4198 3.85778 22.9875C2.4746 24.1485 1.84685 25.6926 2.18266 27.1174C2.32863 27.713 2.64031 28.2551 3.08161 28.6808C3.52291 29.1066 4.07579 29.3987 4.67622 29.5232C5.23825 29.6622 5.7666 29.9128 6.22985 30.2601C6.65073 30.5811 7.13201 30.8139 7.64492 30.9447C8.15783 31.0755 8.69184 31.1015 9.21503 31.0212C9.0876 31.3509 9.07863 31.7146 9.18964 32.0502C9.30065 32.3858 9.52475 32.6724 9.82366 32.8611C11.1658 33.7943 13.521 34.2673 16.824 34.2673C20.6782 34.2673 25.0657 32.8566 26.0113 32.2795L26.18 32.1777C26.7937 31.807 27.6988 31.2507 27.5357 30.3653C27.8693 30.1859 28.189 29.9817 28.4919 29.7544C29.4378 29.0482 30.5012 28.515 31.6329 28.1794C33.7085 27.5893 34.6822 25.1605 34.4668 23.6811ZM25.887 31.6962L25.7182 31.7997C24.7642 32.3813 20.4183 33.7048 16.824 33.7048C13.638 33.7048 11.3908 33.2655 10.1454 32.4004C9.83435 32.1822 9.48278 31.7918 9.84504 30.9548C11.9353 30.6409 12.5957 29.4703 13.1762 28.4314C13.3308 28.1552 13.8675 27.3463 13.9772 27.2001C14.4451 27.4505 14.9604 27.5999 15.4897 27.6388L15.5927 29.7887C15.5956 29.8518 15.6196 29.9121 15.6609 29.9598C15.7023 30.0076 15.7585 30.04 15.8205 30.052C15.8826 30.0639 15.9468 30.0546 16.003 30.0255C16.0591 29.9964 16.1038 29.9493 16.1298 29.8917L17.0642 27.8262C18.002 27.6919 18.9221 27.454 19.8075 27.1168C19.817 27.145 19.8221 27.1703 19.8322 27.199C20.0263 27.7271 20.2998 28.2226 20.6433 28.6682C21.8207 30.2691 23.3 31.0943 24.8953 31.0943C25.6175 31.0833 26.33 30.925 26.9889 30.6291C26.9349 31.0251 26.4596 31.3508 25.887 31.6962ZM16.1996 22.645C16.3166 22.6281 17.076 22.4807 17.3437 22.4076C17.6481 22.3243 17.9484 22.2269 18.2437 22.1157C18.2798 22.1038 18.3131 22.0848 18.3416 22.0598C18.3702 22.0347 18.3933 22.0042 18.4097 21.97C18.4261 21.9357 18.4354 21.8985 18.4371 21.8606C18.4387 21.8227 18.4327 21.7848 18.4193 21.7493C18.406 21.7138 18.3855 21.6813 18.3593 21.6539C18.333 21.6265 18.3015 21.6047 18.2666 21.5898C18.2317 21.5748 18.1941 21.5672 18.1562 21.5671C18.1182 21.5671 18.0806 21.5748 18.0457 21.5897C17.5283 21.786 16.9939 21.9341 16.4493 22.0324C16.3301 22.0549 15.9155 22.1185 15.4993 22.1449C15.2414 22.1612 14.9828 22.1627 14.7247 22.1494C12.9112 22.0403 10.7428 20.3112 10.4278 18.7255C10.2597 17.725 10.1598 16.7143 10.1285 15.7003C10.0841 14.8808 10.038 14.0331 9.92547 13.2585C9.95074 11.9341 10.1795 10.6215 10.6038 9.36659C11.1377 7.7494 11.8413 6.7189 12.5889 6.46634C12.8296 6.39883 13.0831 6.39085 13.3276 6.44308C13.5721 6.49531 13.8002 6.60618 13.9923 6.76615C14.0313 6.79277 14.0764 6.80915 14.1234 6.81377C14.1704 6.81839 14.2178 6.81111 14.2612 6.79259C15.2709 6.36115 15.9802 6.24978 16.4319 6.44834C16.9713 6.6874 17.2194 7.40459 17.5344 8.31471C17.8785 9.51063 18.4622 10.6241 19.25 11.5873C20.2063 12.6741 19.8851 14.2688 19.0571 16.4901C18.2983 18.5241 19.0189 19.7526 19.5982 20.7358C19.794 21.0339 19.9519 21.3551 20.0685 21.6921C20.3396 22.6115 20.2872 23.5961 19.92 24.4815C19.6481 25.1394 19.5604 25.8589 19.6663 26.5628C18.7621 26.92 17.8163 27.1614 16.8515 27.2811C16.8015 27.2851 16.7535 27.3025 16.7124 27.3314C16.6714 27.3603 16.6388 27.3996 16.6181 27.4453L16.0989 28.594L16.0398 27.3604C16.0366 27.2896 16.0068 27.2226 15.9563 27.1729C15.9058 27.1231 15.8384 27.0943 15.7676 27.0921C15.2747 27.0818 14.7894 26.9686 14.3428 26.7597C14.4859 26.5907 14.656 26.4466 14.8462 26.3333C15.0566 26.2253 16.8183 25.219 16.1996 22.645Z" fill="black"/>
</svg>
