<svg width="36" height="36" viewBox="0 0 36 36" fill="none" xmlns="http://www.w3.org/2000/svg">
<path d="M23.5701 15.5838C23.5281 15.5837 23.4866 15.5743 23.4487 15.5561C23.4108 15.5379 23.3775 15.5115 23.3512 15.4787C23.3248 15.446 23.3062 15.4077 23.2966 15.3668C23.287 15.3259 23.2866 15.2834 23.2956 15.2423C23.3746 14.9616 23.5505 14.7179 23.7921 14.5545C24.0337 14.3911 24.3253 14.3185 24.6153 14.3496C24.6526 14.3534 24.6887 14.3646 24.7216 14.3825C24.7546 14.4005 24.7836 14.4248 24.8069 14.4542C24.8303 14.4835 24.8476 14.5172 24.8577 14.5533C24.8679 14.5894 24.8707 14.6271 24.8661 14.6643C24.8614 14.7015 24.8494 14.7374 24.8306 14.7699C24.8119 14.8024 24.7869 14.8308 24.757 14.8535C24.7271 14.8762 24.693 14.8926 24.6567 14.9019C24.6204 14.9112 24.5826 14.9132 24.5455 14.9076C24.3947 14.8946 24.2438 14.9322 24.1168 15.0147C23.9899 15.0971 23.8941 15.2196 23.8446 15.3627C23.8309 15.4253 23.7962 15.4814 23.7463 15.5216C23.6964 15.5618 23.6342 15.5837 23.5701 15.5838ZM14.6196 19.0977H14.5561C14.2802 19.1067 14.0056 19.0582 13.7495 18.9553C13.4934 18.8523 13.2616 18.6972 13.0688 18.4998C13.0197 18.4433 12.9949 18.3696 13.0001 18.2949C13.0053 18.2202 13.0399 18.1507 13.0964 18.1015C13.1528 18.0523 13.2265 18.0276 13.3012 18.0328C13.3759 18.038 13.4455 18.0726 13.4946 18.1291C13.637 18.2659 13.8057 18.3724 13.9905 18.4421C14.1753 18.5119 14.3723 18.5433 14.5696 18.5346C15.0462 18.564 15.5169 18.4164 15.8914 18.1201C15.9169 18.0933 15.9474 18.0719 15.9812 18.0569C16.015 18.042 16.0514 18.0338 16.0883 18.0329C16.1252 18.032 16.162 18.0384 16.1964 18.0517C16.2309 18.0651 16.2624 18.085 16.2891 18.1105C16.3159 18.136 16.3373 18.1665 16.3523 18.2003C16.3672 18.234 16.3754 18.2704 16.3763 18.3074C16.3772 18.3443 16.3708 18.381 16.3575 18.4155C16.3441 18.45 16.3242 18.4815 16.2987 18.5082C15.8353 18.9128 15.2342 19.1238 14.6196 19.0977ZM14.4064 17.3241C14.1237 17.3219 13.8523 17.2126 13.6471 17.0181C13.5314 16.9276 13.4434 16.8066 13.3929 16.6688C13.3424 16.5309 13.3315 16.3817 13.3613 16.2379C13.3844 16.1686 13.4335 16.111 13.4982 16.0772C13.563 16.0435 13.6384 16.0363 13.7084 16.0571C13.7784 16.0779 13.8376 16.1252 13.8734 16.1888C13.9092 16.2525 13.9188 16.3276 13.9002 16.3983C13.9282 16.5043 13.9956 16.5956 14.0886 16.6536C14.158 16.7075 14.2401 16.7427 14.327 16.7557C14.4139 16.7687 14.5026 16.7591 14.5848 16.7279C14.6543 16.7007 14.7317 16.7023 14.8001 16.7323C14.8684 16.7622 14.9221 16.8181 14.9493 16.8876C14.9764 16.9571 14.9748 17.0346 14.9449 17.103C14.9149 17.1713 14.859 17.225 14.7895 17.2521C14.6674 17.2997 14.5375 17.3241 14.4064 17.3241ZM19.3053 12.0591C19.2477 12.0591 19.1916 12.0414 19.1444 12.0085C18.7084 11.7606 18.2181 11.6242 17.7168 11.6112C17.2155 11.5983 16.7187 11.7092 16.2706 11.9343C16.2422 11.9596 16.2089 11.9788 16.1729 11.9909C16.1368 12.003 16.0986 12.0077 16.0607 12.0046C16.0228 12.0015 15.9859 11.9908 15.9523 11.9731C15.9186 11.9553 15.8889 11.9309 15.865 11.9014C15.841 11.8718 15.8233 11.8377 15.8129 11.8011C15.8025 11.7645 15.7996 11.7262 15.8045 11.6885C15.8093 11.6508 15.8218 11.6144 15.8411 11.5816C15.8604 11.5488 15.8861 11.5203 15.9168 11.4978C16.4603 11.1927 17.0748 11.0366 17.6981 11.0453C18.3214 11.054 18.9313 11.2271 19.4661 11.5473C19.5152 11.5815 19.5521 11.6305 19.5714 11.6872C19.5907 11.7438 19.5914 11.8051 19.5735 11.8622C19.5555 11.9193 19.5198 11.9692 19.4716 12.0046C19.4234 12.04 19.3651 12.0591 19.3053 12.0591ZM12.4709 12.1323C12.4036 12.1322 12.3385 12.1081 12.2875 12.0642C11.7728 11.6215 10.2063 11.797 9.98125 11.9691C9.92158 12.0139 9.84657 12.0331 9.77273 12.0226C9.69888 12.012 9.63226 11.9726 9.5875 11.9129C9.54275 11.8532 9.52353 11.7782 9.53408 11.7044C9.54463 11.6305 9.58408 11.5639 9.64375 11.5191C10.1016 11.176 11.9528 11.032 12.6565 11.6378C12.7 11.6753 12.731 11.7251 12.7454 11.7807C12.7597 11.8363 12.7567 11.895 12.7368 11.9488C12.7168 12.0026 12.6808 12.0491 12.6337 12.0819C12.5866 12.1147 12.5305 12.1322 12.4731 12.1323H12.4709Z" fill="black"/>
<path d="M22.5248 13.8233L19.4901 14.095V13.8379C19.4901 13.6141 19.4012 13.3995 19.243 13.2413C19.0848 13.083 18.8702 12.9941 18.6464 12.9941H15.7023C15.4785 12.9941 15.2639 13.083 15.1056 13.2413C14.9474 13.3995 14.8585 13.6141 14.8585 13.8379V14.5579H13.3431V13.8379C13.3431 13.6141 13.2542 13.3995 13.096 13.2413C12.9378 13.083 12.7232 12.9941 12.4994 12.9941H9.55469C9.33091 12.9941 9.1163 13.083 8.95807 13.2413C8.79983 13.3995 8.71094 13.6141 8.71094 13.8379V15.4399C8.71094 15.6637 8.79983 15.8783 8.95807 16.0365C9.1163 16.1947 9.33091 16.2836 9.55469 16.2836H12.4994C12.7232 16.2836 12.9378 16.1947 13.096 16.0365C13.2542 15.8783 13.3431 15.6637 13.3431 15.4399V15.1204H14.8585V15.4382C14.8585 15.662 14.9474 15.8766 15.1056 16.0348C15.2639 16.1931 15.4785 16.282 15.7023 16.282H18.6464C18.8702 16.282 19.0848 16.1931 19.243 16.0348C19.4012 15.8766 19.4901 15.662 19.4901 15.4382V14.6597L22.5754 14.3835C22.6124 14.3802 22.6483 14.3696 22.6811 14.3524C22.714 14.3352 22.7431 14.3117 22.7669 14.2832C22.7907 14.2548 22.8086 14.2219 22.8197 14.1865C22.8307 14.1511 22.8347 14.1139 22.8314 14.077C22.8281 14.04 22.8175 14.0041 22.8003 13.9713C22.7831 13.9384 22.7596 13.9093 22.7311 13.8855C22.7026 13.8617 22.6698 13.8438 22.6344 13.8327C22.599 13.8217 22.5617 13.8177 22.5248 13.821V13.8233ZM12.7806 15.4382C12.7806 15.5128 12.751 15.5843 12.6982 15.6371C12.6455 15.6898 12.574 15.7195 12.4994 15.7195H9.55469C9.48009 15.7195 9.40856 15.6898 9.35581 15.6371C9.30307 15.5843 9.27344 15.5128 9.27344 15.4382V13.8379C9.27344 13.7633 9.30307 13.6918 9.35581 13.639C9.40856 13.5863 9.48009 13.5566 9.55469 13.5566H12.4994C12.574 13.5566 12.6455 13.5863 12.6982 13.639C12.751 13.6918 12.7806 13.7633 12.7806 13.8379V15.4382ZM18.9276 15.4382C18.9276 15.5128 18.898 15.5843 18.8452 15.6371C18.7925 15.6898 18.721 15.7195 18.6464 15.7195H15.7023C15.6277 15.7195 15.5561 15.6898 15.5034 15.6371C15.4506 15.5843 15.421 15.5128 15.421 15.4382V13.8379C15.421 13.7633 15.4506 13.6918 15.5034 13.639C15.5561 13.5863 15.6277 13.5566 15.7023 13.5566H18.6464C18.721 13.5566 18.7925 13.5863 18.8452 13.639C18.898 13.6918 18.9276 13.7633 18.9276 13.8379V15.4382Z" fill="black"/>
<path d="M18.4056 13.5446V14.2927C18.4056 14.4315 18.3505 14.5645 18.2524 14.6626C18.1543 14.7607 18.0212 14.8159 17.8825 14.8159C17.7438 14.8159 17.6107 14.7607 17.5126 14.6626C17.4145 14.5645 17.3594 14.4315 17.3594 14.2927V13.5446C17.3594 13.4059 17.4145 13.2728 17.5126 13.1747C17.6107 13.0766 17.7438 13.0215 17.8825 13.0215C18.0212 13.0215 18.1543 13.0766 18.2524 13.1747C18.3505 13.2728 18.4056 13.4059 18.4056 13.5446Z" fill="black"/>
<path d="M11.7397 13.0215H11.7341C11.4451 13.0215 11.2109 13.2557 11.2109 13.5446V14.2927C11.2109 14.5816 11.4451 14.8159 11.7341 14.8159H11.7397C12.0286 14.8159 12.2628 14.5816 12.2628 14.2927V13.5446C12.2628 13.2557 12.0286 13.0215 11.7397 13.0215Z" fill="black"/>
<path d="M23.3243 24.0185C23.7003 24.5452 23.9364 25.1587 24.0105 25.8016C24.0218 26.651 23.493 27.3091 22.4411 27.7535C22.368 27.7816 22.2949 27.8154 22.2161 27.8491C22.2883 28.045 22.3077 28.2565 22.2724 28.4622C22.008 29.8797 19.8986 32.9735 18.2449 34.8522C17.913 34.8804 17.913 34.8747 17.5811 34.8916C18.7849 33.3729 21.4061 30.0485 21.7155 28.3666C21.7317 28.2822 21.7295 28.1954 21.7091 28.1119C21.6888 28.0284 21.6506 27.9503 21.5974 27.8829C21.4978 27.766 21.3727 27.6737 21.2318 27.6129C21.558 27.4948 21.918 27.3654 22.2161 27.236C22.5255 27.1066 23.4593 26.7129 23.448 25.8073C23.4424 25.5035 23.2624 24.7554 22.3624 23.591C21.8659 23.0208 21.3201 22.4957 20.7311 22.0216C20.6749 21.7854 20.613 21.4872 20.5511 21.1891C21.7552 20.3966 22.6198 19.1829 22.9755 17.786C23.1296 17.8803 23.2991 17.9469 23.4761 17.9829C24.7811 18.2754 25.8668 17.1166 26.1536 15.8285C26.3425 15.0727 26.2337 14.2733 25.8499 13.5954C25.6586 13.291 25.3831 13.0487 25.0568 12.8979C25.4449 10.7266 25.9905 7.54287 25.0455 5.75975C24.9005 5.53684 24.7115 5.34599 24.4899 5.19894C24.2684 5.05189 24.0191 4.95177 23.7574 4.90475C23.223 4.736 23.2343 4.69662 23.2624 4.59537C23.3215 4.24018 23.2758 3.87545 23.131 3.54579C22.9861 3.21613 22.7484 2.93581 22.4468 2.73912C22.1395 2.52073 21.7684 2.41052 21.3917 2.42579C21.015 2.44106 20.6541 2.58094 20.3655 2.8235C20.3025 2.86099 20.232 2.88398 20.159 2.89079C20.086 2.8976 20.0125 2.88806 19.9436 2.86287C19.8804 2.84644 19.8259 2.80612 19.7918 2.75037C19.7714 2.40096 19.6319 2.06909 19.3965 1.81011C19.161 1.55113 18.8439 1.3807 18.498 1.32725C18.2123 1.24907 17.9086 1.26796 17.6348 1.38097C17.3609 1.49397 17.1323 1.69468 16.9849 1.95162C16.9433 1.97489 16.8974 1.98939 16.85 1.99423C16.8026 1.99907 16.7547 1.99414 16.7093 1.97975C16.5988 1.69737 16.4 1.45827 16.1425 1.29811C15.885 1.13795 15.5826 1.0653 15.2805 1.091C14.9907 1.09041 14.7077 1.17847 14.4694 1.34336C14.2311 1.50826 14.0489 1.7421 13.9474 2.0135C13.9341 2.02889 13.9177 2.04133 13.8993 2.05005C13.8809 2.05876 13.8609 2.06356 13.8405 2.06412C13.8274 2.0673 13.8137 2.06689 13.8008 2.06293C13.788 2.05897 13.7764 2.05161 13.7674 2.04162C13.5697 1.80093 13.2957 1.6351 12.9908 1.57166C12.6858 1.50822 12.3684 1.55099 12.0911 1.69287C11.8164 1.81398 11.5919 2.02621 11.4556 2.29371C11.3193 2.56121 11.2795 2.86756 11.343 3.161C11.3146 3.18043 11.2817 3.19207 11.2474 3.19475C10.9955 3.1102 10.7267 3.08906 10.4647 3.13322C10.2028 3.17737 9.95573 3.28544 9.74551 3.44787C9.56792 3.5862 9.42942 3.76839 9.34361 3.97649C9.2578 4.1846 9.22765 4.41146 9.25613 4.63475C9.30113 5.04537 9.28988 5.15225 8.75551 5.44475C8.5658 5.55667 8.40298 5.70888 8.27857 5.89064C8.15416 6.0724 8.07118 6.27927 8.03551 6.49662C7.73738 7.886 8.64301 10.0235 9.26176 10.9066C9.25613 11.5929 9.39113 14.0397 9.40801 14.5066C9.52613 17.7916 10.1561 19.9516 11.3824 21.3016C11.8805 21.822 12.4766 22.2385 13.1365 22.5273C13.7964 22.816 14.5069 22.9713 15.2271 22.9841C15.3615 22.9908 15.7305 22.9891 15.7896 22.9891C15.7952 23.0004 15.7952 23.0173 15.8008 23.0341C14.0627 23.7598 12.1896 24.9579 11.7283 25.9929C11.2952 26.9548 12.2064 27.3654 12.6396 27.6129C12.0996 27.7985 11.5146 28.1079 11.4921 28.5804C11.4133 30.2623 12.3246 33.3673 12.9152 34.7173C12.6846 34.6835 12.6739 34.6835 12.4601 34.6441C12.0501 34.0428 10.8564 30.0822 10.9296 28.5522C10.945 28.3471 11.0079 28.1483 11.1133 27.9716C11.2187 27.7949 11.3638 27.6451 11.5371 27.5341C11.3842 27.3965 11.2622 27.2281 11.1788 27.0401C11.0954 26.8521 11.0527 26.6486 11.0533 26.4429C9.40572 27.4972 8.06813 28.9706 7.17769 30.7122C6.68832 31.7979 6.85144 32.8216 7.59394 33.3785C8.55019 34.0872 10.3221 34.9985 13.3708 35.3529C14.0402 35.4316 15.4183 35.4991 16.0764 35.4991C16.3746 35.4991 17.2014 35.4766 17.3252 35.471C22.2021 35.2573 28.9577 33.6879 28.9577 31.286C28.9605 28.6929 26.5136 25.616 23.3243 24.0185ZM16.3943 23.1691C16.3838 23.0821 16.3688 22.9958 16.3493 22.9104C16.8072 22.8446 17.2562 22.7276 17.688 22.5616C17.7257 22.5491 17.7603 22.5288 17.7896 22.502C17.8189 22.4752 17.8421 22.4425 17.8579 22.406C17.8736 22.3696 17.8814 22.3302 17.8808 22.2905C17.8802 22.2508 17.8713 22.2117 17.8545 22.1757C17.8377 22.1397 17.8135 22.1077 17.7834 22.0818C17.7534 22.0558 17.7182 22.0365 17.6801 22.0252C17.6421 22.0138 17.6021 22.0106 17.5627 22.0158C17.5233 22.021 17.4855 22.0345 17.4518 22.0554C16.9726 22.2243 16.4766 22.3413 15.9724 22.4041C15.6456 22.4435 15.3153 22.4435 14.9886 22.4041C13.7765 22.3318 12.6368 21.8032 11.7986 20.9248C10.668 19.6816 10.083 17.6341 9.97051 14.4841C9.95363 14.0172 9.80738 11.5085 9.82426 10.811C9.79932 10.2191 9.88517 9.62767 10.0774 9.06725C10.2911 8.52725 10.8818 7.616 11.7424 7.616C12.2261 7.616 13.773 7.89725 14.4368 7.90287C15.123 7.89162 17.6824 7.4585 18.1436 7.5035C20.0168 7.68912 20.6693 9.87725 20.6805 10.8447C20.7143 13.6179 21.3161 13.9666 22.2949 14.3097C22.2949 14.3097 22.413 14.3547 22.4524 14.366C22.5167 14.3834 22.5849 14.3802 22.6474 14.3571C22.7099 14.3339 22.7637 14.2918 22.8011 14.2366C22.9255 14.0285 23.0832 13.8423 23.268 13.6854C23.4482 13.5373 23.6575 13.4288 23.8823 13.3668C24.1071 13.3047 24.3424 13.2906 24.573 13.3254C24.7373 13.3621 24.8925 13.4313 25.0297 13.5289C25.1668 13.6265 25.2831 13.7504 25.3718 13.8935C25.6767 14.4457 25.7611 15.0928 25.608 15.7047C25.383 16.7004 24.5505 17.651 23.5943 17.4372C23.3603 17.3708 23.1447 17.2515 22.9643 17.0885C22.9251 17.0576 22.8784 17.0376 22.829 17.0307C22.7795 17.0238 22.7292 17.0301 22.683 17.0491C22.6379 17.0674 22.5985 17.0974 22.5689 17.1359C22.5392 17.1745 22.5204 17.2202 22.5143 17.2685C22.5086 17.2966 22.098 19.8616 19.8705 20.936C19.8047 20.9687 19.7544 21.0259 19.7302 21.0953C19.706 21.1646 19.7099 21.2407 19.7411 21.3073C19.7643 21.355 19.8002 21.3955 19.8448 21.4243C19.8895 21.4531 19.9412 21.469 19.9943 21.4704C20.0055 21.4704 20.0168 21.4591 20.0336 21.4591C20.1518 22.0441 20.2755 22.5616 20.3149 22.7135C20.5174 23.4785 20.3768 24.5023 19.8761 25.9254C19.4202 26.413 18.8333 26.7588 18.1858 26.9214C17.5384 27.084 16.8578 27.0565 16.2255 26.8423C15.7024 26.6679 15.3874 26.3923 15.3536 26.0998C15.5449 25.6104 15.7361 25.166 15.8993 24.7891C16.2761 23.9341 16.4618 23.4672 16.3943 23.1691ZM15.8993 34.9366C15.3986 34.931 14.9036 34.9141 14.4086 34.8804C14.1724 31.2297 14.3243 29.6716 14.6618 28.2598C14.7805 27.7687 14.9251 27.2843 15.0949 26.8085C15.362 27.0709 15.6879 27.2657 16.0455 27.3766C16.4636 27.5106 16.9003 27.577 17.3393 27.5735C18.0788 27.5797 18.8067 27.3895 19.4486 27.0223C19.353 27.2473 16.2649 34.121 15.8993 34.9366Z" fill="black"/>
</svg>
