<svg width="55" height="55" viewBox="0 0 55 55" fill="none" xmlns="http://www.w3.org/2000/svg">
<g clip-path="url(#clip0)">
<path d="M50.4131 4.58984H43.5381V6.87793H50.4131C51.6807 6.87793 52.7012 7.90918 52.7012 9.16602V41.2529C52.7012 42.5205 51.6699 43.541 50.4131 43.541H4.58691C3.31934 43.541 2.29883 42.5098 2.29883 41.2529V9.16602C2.29883 7.89844 3.33008 6.87793 4.58691 6.87793H11.4619V4.58984H4.58691C2.05176 4.58984 0 6.6416 0 9.16602V41.2529C0 43.7881 2.05176 45.8398 4.58691 45.8398H50.4238C52.959 45.8398 55.0107 43.7881 55.0107 41.2529V9.16602C55 6.6416 52.9482 4.58984 50.4131 4.58984Z" fill="#425BFF"/>
<path d="M43.5381 48.125H11.4619C9.56055 48.125 8.02441 49.6611 8.02441 51.5625C8.02441 53.4639 9.56055 55 11.4619 55H43.5488C45.4502 55 46.9863 53.4639 46.9863 51.5625C46.9863 49.6611 45.4394 48.125 43.5381 48.125ZM43.5381 52.7119H11.4619C10.8281 52.7119 10.3125 52.1963 10.3125 51.5625C10.3125 50.9287 10.8281 50.4131 11.4619 50.4131H43.5488C44.1826 50.4131 44.6982 50.9287 44.6982 51.5625C44.6875 52.1963 44.1719 52.7119 43.5381 52.7119Z" fill="#425BFF"/>
<path d="M34.375 43.5391H20.625C19.9912 43.5391 19.4756 44.0547 19.4756 44.6885V49.2754C19.4756 49.9092 19.9912 50.4248 20.625 50.4248H34.375C35.0088 50.4248 35.5244 49.9092 35.5244 49.2754V44.6885C35.5244 44.0547 35.0088 43.5391 34.375 43.5391ZM33.2256 48.126H21.7744V45.8379H33.2363L33.2256 48.126Z" fill="#425BFF"/>
<path d="M37.8125 36.6641C37.5117 36.6641 37.2217 36.7822 37.0068 36.9971L35.0518 38.9522H19.9482L17.9932 36.9971C17.7783 36.7822 17.4883 36.6641 17.1875 36.6641H0V38.9522H16.7148L18.6699 40.9072C18.8848 41.1221 19.1748 41.2402 19.4756 41.2402H35.5137C35.8145 41.2402 36.1045 41.1221 36.3193 40.9072L38.2744 38.9522H55V36.6641H37.8125Z" fill="#425BFF"/>
<path d="M43.9033 9.22789C39.3486 7.86363 35.2129 5.37145 31.8936 1.96617C31.7432 1.80504 31.5928 1.64391 31.4209 1.49352C28.9932 -0.676406 25.2656 -0.461563 23.1064 1.96617C19.7871 5.37145 15.6514 7.86363 11.0967 9.22789C10.624 9.37828 10.3125 9.81871 10.3125 10.3129C10.3125 10.5277 10.5059 31.8509 27.1885 36.6205C27.2852 36.6527 27.3926 36.6634 27.5 36.6634C27.6074 36.6634 27.7148 36.6527 27.8115 36.6205C44.4941 31.8509 44.6875 10.5277 44.6875 10.3129C44.6875 9.81871 44.376 9.37828 43.9033 9.22789ZM27.5 34.3324C14.5342 30.39 12.8477 14.8568 12.6328 11.1185C17.2412 9.61461 21.4199 7.00426 24.793 3.51305C24.8896 3.40563 24.9971 3.2982 25.1152 3.19078C26.6084 1.88023 28.8857 2.01988 30.1963 3.51305C33.5693 7.00426 37.748 9.61461 42.3564 11.1185C42.1523 14.8461 40.4658 30.3793 27.5 34.3324Z" fill="#425BFF"/>
<path d="M39.1768 12.3311C35.1377 10.6982 31.5068 8.2168 28.5098 5.05859L26.8125 6.60547C29.8203 9.7959 33.4512 12.3418 37.4688 14.0928C36.7061 18.959 34.418 26.5859 27.5 29.4756C20.1631 26.4141 18.0361 18.0244 17.4131 13.2441L15.1357 13.5342C15.8232 18.916 18.3047 28.4228 27.0811 31.7744C27.21 31.8281 27.3496 31.8496 27.4893 31.8496C27.6289 31.8496 27.7686 31.8281 27.8975 31.7744C36.6953 28.4228 39.166 18.9053 39.8535 13.5234C39.9287 13.0186 39.6387 12.5244 39.1768 12.3311Z" fill="#425BFF"/>
<path d="M6.875 32.0898H4.58691V34.3779H6.875V32.0898Z" fill="#425BFF"/>
<path d="M11.4512 32.0898H9.16309V34.3779H11.4512V32.0898Z" fill="#425BFF"/>
<path d="M6.875 27.5H4.58691V29.7881H6.875V27.5Z" fill="#425BFF"/>
<path d="M50.4131 32.0898H48.125V34.3779H50.4131V32.0898Z" fill="#425BFF"/>
<path d="M45.8262 32.0898H43.5381V34.3779H45.8262V32.0898Z" fill="#425BFF"/>
<path d="M50.4131 27.5H48.125V29.7881H50.4131V27.5Z" fill="#425BFF"/>
</g>
<defs>
<clipPath id="clip0">
<rect width="55" height="55" fill="white"/>
</clipPath>
</defs>
</svg>
