<svg width="40" height="32" viewBox="0 0 40 32" fill="none" xmlns="http://www.w3.org/2000/svg">
<path d="M8.19374 6.90177C4.72725 9.9985 2.79526 15.055 4.82893 19.1315C5.63316 20.7492 6.98278 22.0619 8.32315 23.3283C12.0577 26.8318 16.4578 30.3445 21.7269 30.5293C27.7262 30.7327 33.1155 26.2401 35.0475 20.8786C37.34 14.5188 35.1122 6.75387 29.27 2.90838C22.753 -1.36233 13.4258 2.22433 8.19374 6.90177Z" fill="#F3F8F9"/>
<path d="M20.1976 26.2961C17.9182 27.7907 14.8466 27.7982 12.5672 26.2961C5.46749 21.6327 12.8139 8.41966 16.3787 2.8445C17.9331 5.26588 20.1901 9.12963 21.6773 13.1055C21.7745 12.8215 21.8791 12.545 21.9912 12.2685C20.4816 8.41219 18.3218 4.75769 16.842 2.4484C16.7449 2.29894 16.6851 2.20926 16.6627 2.17189C16.6178 2.06726 16.5057 2 16.3861 2C16.2666 2 16.1545 2.06726 16.1096 2.17189C16.0872 2.20926 16.0274 2.30641 15.9303 2.45588C12.2982 8.11325 4.66036 21.8045 12.2235 26.7744C13.4715 27.589 14.9288 28 16.3861 28C17.8435 28 19.3008 27.589 20.5488 26.7744C22.9702 25.1825 23.8371 22.7013 23.7699 19.8764C23.5681 19.8316 23.3663 19.7718 23.172 19.697C23.2692 22.4174 22.477 24.7939 20.1976 26.2961Z" fill="#329EA1"/>
<path d="M13.6957 25.1525C10.3775 23.0001 11.3789 17.1186 11.3864 17.0588C11.4163 16.9018 11.3042 16.7524 11.1398 16.7299C10.9753 16.7 10.8184 16.8121 10.7885 16.9691C10.7437 17.2232 9.7198 23.2692 13.3519 25.6308C13.4042 25.6681 13.464 25.6831 13.5238 25.6831C13.6209 25.6831 13.7181 25.6382 13.7779 25.556C13.875 25.4215 13.8377 25.2422 13.6957 25.1525Z" fill="#329EA1"/>
<path d="M24.5246 7.51562C24.5097 7.56794 23.015 9.73523 21.9911 12.2687C21.879 12.5452 21.7744 12.8217 21.6773 13.1057C20.8402 15.5196 20.6086 18.0905 22.5741 19.3759C22.7609 19.503 22.9627 19.6076 23.1719 19.6898C23.3663 19.7645 23.568 19.8318 23.7698 19.8692C24.689 20.0635 25.6755 19.8991 26.4752 19.3759C30.7649 16.551 24.5545 7.62025 24.5246 7.51562Z" fill="#1F5274"/>
</svg>
