<svg width="21" height="21" viewBox="0 0 21 21" fill="none" xmlns="http://www.w3.org/2000/svg">
<path fill-rule="evenodd" clip-rule="evenodd" d="M11.4451 12.936L13.3736 11.0075C13.9062 10.4749 14.0383 9.66117 13.7014 8.98744L13.5921 8.7689C13.2553 8.09517 13.3873 7.28147 13.9199 6.74884L16.3111 4.35763C16.482 4.18678 16.759 4.18678 16.9299 4.35763C16.9631 4.39088 16.9908 4.42928 17.0118 4.47134L17.9778 6.40329C18.7168 7.88126 18.4271 9.66629 17.2587 10.8347L12.0097 16.0837C10.7379 17.3555 8.85658 17.7997 7.15022 17.2309L5.03755 16.5266C4.80833 16.4502 4.68444 16.2025 4.76085 15.9732C4.78233 15.9088 4.81851 15.8503 4.86654 15.8022L7.1864 13.4824C7.71903 12.9497 8.53273 12.8177 9.20646 13.1546L9.425 13.2638C10.0987 13.6007 10.9124 13.4687 11.4451 12.936Z" fill="#3800D8"/>
<path opacity="0.3" fill-rule="evenodd" clip-rule="evenodd" d="M12.5246 3.51198L12.6865 1.76949C9.85374 1.50626 7.03659 2.49581 4.98531 4.54708C2.93687 6.59552 1.94715 9.40777 2.20667 12.2369L3.94935 12.0771C3.73683 9.76024 4.54586 7.46141 6.22275 5.78452C7.90196 4.10531 10.2048 3.29642 12.5246 3.51198ZM12.2128 6.9982L12.3803 5.25623C10.5718 5.08238 8.77024 5.71191 7.46019 7.02196C6.15444 8.32771 5.52462 10.1218 5.69283 11.9248L7.43526 11.7623C7.31493 10.4725 7.76411 9.19291 8.69762 8.25939C9.63421 7.32281 10.9191 6.87383 12.2128 6.9982Z" fill="#3800D8"/>
</svg>
