<svg width="24" height="26" viewBox="0 0 24 26" fill="none" xmlns="http://www.w3.org/2000/svg">
<g clip-path="url(#clip0_229_6939)">
<path d="M11.9999 12.8263C12.4178 12.8263 12.8315 12.744 13.2175 12.5841C13.6036 12.4242 13.9543 12.1898 14.2498 11.8943C14.5453 11.5989 14.7796 11.2481 14.9395 10.8621C15.0994 10.476 15.1817 10.0623 15.1817 9.64444C15.1817 9.2266 15.0994 8.81285 14.9395 8.42681C14.7796 8.04078 14.5453 7.69002 14.2498 7.39456C13.9543 7.0991 13.6036 6.86473 13.2175 6.70483C12.8315 6.54492 12.4178 6.46262 11.9999 6.46262C11.156 6.46262 10.3467 6.79785 9.75003 7.39456C9.15332 7.99126 8.81809 8.80057 8.81809 9.64444C8.81809 10.0623 8.90039 10.476 9.06029 10.8621C9.22019 11.2481 9.45457 11.5989 9.75003 11.8943C10.3467 12.491 11.156 12.8263 11.9999 12.8263ZM11.9999 0.735352C16.9126 0.735352 20.909 4.71899 20.909 9.64444C20.909 16.3263 11.9999 26.1899 11.9999 26.1899C11.9999 26.1899 3.09082 16.3263 3.09082 9.64444C3.09082 7.2816 4.02945 5.01554 5.70023 3.34476C7.37101 1.67399 9.63707 0.735352 11.9999 0.735352Z" fill="#FFBD13"/>
</g>
<defs>
<clipPath id="clip0_229_6939">
<rect width="24" height="26" fill="white"/>
</clipPath>
</defs>
</svg>
