<svg width="78" height="136" viewBox="0 0 78 136" fill="none" xmlns="http://www.w3.org/2000/svg">
<path d="M70.753 53.1654L49.7403 44.7854V26.798C50.83 26.7402 51.8561 26.2665 52.6077 25.4741C53.3594 24.6818 53.7795 23.6311 53.7816 22.5381V13.3506C53.7778 12.2581 53.3571 11.2083 52.6058 10.4164C51.8545 9.62442 50.8293 9.15012 49.7403 9.0906V1.69754C49.7403 1.47431 49.6964 1.25328 49.611 1.04709C49.5256 0.840903 49.4004 0.653609 49.2427 0.495931C49.085 0.338254 48.8977 0.213288 48.6917 0.12819C48.4857 0.0430923 48.2649 -0.000468141 48.0421 3.794e-06H29.9708C29.5211 2.79135e-06 29.0896 0.178736 28.7713 0.496983C28.4529 0.815229 28.2736 1.247 28.2726 1.69754V9.0906C27.1833 9.14927 26.1576 9.6233 25.4062 10.4155C24.6547 11.2076 24.2343 12.2578 24.2313 13.3506V22.5381C24.2334 23.6311 24.6535 24.6818 25.4052 25.4741C26.1568 26.2665 27.183 26.7402 28.2726 26.798V44.789L7.26351 53.1654C4.99755 54.0639 3.07532 55.6605 1.77446 57.7248C0.473594 59.7891 -0.138566 62.2142 0.0264014 64.6498L4.29343 129.091C4.42295 130.963 5.2555 132.717 6.62352 133.998C7.99154 135.28 9.79348 135.995 11.6667 136H66.3355C68.2093 135.995 70.0117 135.28 71.3798 133.997C72.7479 132.715 73.5801 130.96 73.7087 129.088L77.9722 64.6498C78.1419 62.2139 77.5322 59.7871 76.2314 57.722C74.9306 55.6568 73.0066 54.0607 70.7387 53.1654H70.753ZM46.3331 35.824H31.669V26.8196H46.3331V35.824ZM46.3331 3.39866V9.06907H31.669V3.4166L46.3331 3.39866ZM27.6241 22.5381V13.3506C27.6251 13.1167 27.7182 12.8927 27.8833 12.7273C28.0484 12.562 28.272 12.4687 28.5055 12.4677H49.4967C49.7304 12.4677 49.9546 12.5607 50.1199 12.7263C50.2852 12.8919 50.378 13.1164 50.378 13.3506V22.5381C50.378 22.7726 50.2853 22.9975 50.1201 23.1636C49.9549 23.3298 49.7308 23.4236 49.4967 23.4245H28.5055C28.2714 23.4236 28.0472 23.3298 27.8821 23.1636C27.7169 22.9975 27.6241 22.7726 27.6241 22.5381ZM70.3231 128.862C70.2576 129.877 69.8093 130.83 69.069 131.527C68.3286 132.224 67.3515 132.613 66.3355 132.616H11.6667C10.6538 132.609 9.68112 132.218 8.94456 131.521C8.20799 130.825 7.76223 129.874 7.69702 128.862L3.41566 64.4273C3.29845 62.7092 3.72997 60.9982 4.64779 59.5421C5.5656 58.0859 6.92211 56.96 8.52104 56.3272L30.6014 47.5237C30.9178 47.3986 31.1895 47.1812 31.3811 46.8997C31.5727 46.6181 31.6755 46.2854 31.6762 45.9446V39.2263H46.3439V45.9411C46.3445 46.2818 46.4473 46.6145 46.639 46.8961C46.8306 47.1777 47.1023 47.3951 47.4187 47.5202L69.499 56.3236C71.0959 56.9589 72.4498 58.0864 73.3649 59.5431C74.2801 60.9998 74.7092 62.7103 74.5901 64.4273L70.3231 128.862Z" fill="#0B1014"/>
<path d="M61.5042 66.9973L47.1733 61.2838C45.754 60.7186 44.2403 60.4287 42.7129 60.4297H35.2894C33.762 60.4284 32.2482 60.7182 30.8289 61.2838L16.498 66.9973C15.599 67.3579 14.8372 67.9947 14.3222 68.8162C13.8072 69.6378 13.5655 70.6017 13.6319 71.5695L16.5876 116.211C16.6501 117.127 17.0567 117.985 17.7255 118.612C18.3943 119.24 19.2756 119.59 20.1918 119.592H57.8284C58.7465 119.592 59.6304 119.244 60.3015 118.616C60.9726 117.988 61.3807 117.129 61.4433 116.211L64.3991 71.5731C64.4647 70.6031 64.2206 69.6373 63.7021 68.8154C63.1837 67.9935 62.4177 67.358 61.515 67.0009L61.5042 66.9973ZM58.0433 115.985C58.0397 116.041 58.0151 116.093 57.9745 116.131C57.9339 116.169 57.8804 116.19 57.8248 116.19H20.1847C20.1291 116.19 20.0756 116.169 20.035 116.131C19.9944 116.093 19.9698 116.041 19.9661 115.985L17.0175 71.3434C17.0008 71.0911 17.0648 70.8399 17.2 70.6264C17.3353 70.4128 17.5349 70.2479 17.7699 70.1555L32.1008 64.442C33.1206 64.0335 34.209 63.824 35.3074 63.8248H42.7308C43.829 63.8247 44.9173 64.0342 45.9373 64.442L60.2682 70.1555C60.5029 70.248 60.702 70.4131 60.8367 70.6267C60.9714 70.8403 61.0345 71.0914 61.017 71.3434L58.0433 115.985Z" fill="#0B1014"/>
</svg>
