<svg width="458" height="428" viewBox="0 0 458 428" fill="none" xmlns="http://www.w3.org/2000/svg">
<path fill-rule="evenodd" clip-rule="evenodd" d="M228.247 1.32658C291.393 7.47512 336.616 55.2946 377.179 104.126C419.279 154.809 469.832 210.597 455.524 274.936C441.167 339.495 372.508 370.524 312.018 397.133C255.049 422.192 192.098 441.685 135.551 415.686C77.9685 389.212 48.4983 329.049 31.212 268.027C12.3787 201.544 -3.11342 126.656 37.9352 71.0938C80.197 13.8896 157.504 -5.56173 228.247 1.32658Z" fill="#EAEFDC"/>
<path d="M49.032 122.757C47.3572 131.459 53.0498 139.871 61.7467 141.547C70.4436 143.223 78.8515 137.527 80.5262 128.825C82.201 120.123 76.5084 111.71 67.8115 110.034C59.1146 108.358 50.7067 114.054 49.032 122.757Z" fill="#F8D671"/>
<path d="M9.26213 178.28C4.14671 178.28 -0.000152588 182.43 -0.000152588 187.548C-0.000152588 192.667 4.14671 196.816 9.26213 196.816C14.3776 196.816 18.5244 192.667 18.5244 187.548C18.5244 182.43 14.3776 178.28 9.26213 178.28Z" fill="#94B052"/>
<path d="M167.067 366.099C164.403 366.099 162.243 368.26 162.243 370.926C162.243 373.591 164.403 375.752 167.067 375.752C169.731 375.752 171.891 373.591 171.891 370.926C171.891 368.26 169.731 366.099 167.067 366.099Z" fill="#94B052"/>
<path d="M414.824 153C412.16 153 410 155.161 410 157.826C410 160.492 412.16 162.653 414.824 162.653C417.488 162.653 419.647 160.492 419.647 157.826C419.647 155.161 417.488 153 414.824 153Z" fill="#94B052"/>
<path d="M405 97C396.716 97 390 103.94 390 112.5C390 121.06 396.716 128 405 128C413.284 128 420 121.06 420 112.5C420 103.94 413.284 97 405 97Z" fill="#2A393F"/>
<path d="M419.722 289.117C417.067 291.774 417.067 296.081 419.722 298.738C422.378 301.395 426.683 301.395 429.338 298.738C431.993 296.081 431.993 291.774 429.338 289.117C426.683 286.46 422.378 286.46 419.722 289.117Z" fill="#F8D671"/>
<path d="M406.052 336.539C400.6 338.927 398.114 345.284 400.5 350.74C402.886 356.195 409.24 358.682 414.692 356.295C420.145 353.908 422.63 347.55 420.244 342.094C417.858 336.639 411.504 334.152 406.052 336.539Z" fill="#FBE698"/>
<path d="M221 331.597C328.143 331.597 415 320.974 415 307.87C415 294.766 328.143 284.144 221 284.144C113.857 284.144 27 294.766 27 307.87C27 320.974 113.857 331.597 221 331.597Z" fill="#D4DCBD"/>
<path d="M95.4688 154.994C95.4688 154.994 30.3745 206.336 45.6009 243.731C52.6475 249.015 90.344 196.983 90.344 196.983L95.4688 154.994Z" fill="#0E6A41"/>
<path d="M176.527 155.503C176.527 155.503 200.327 135.14 217.771 123.868L242.327 131.957C234.886 147.414 182.867 194.441 182.867 194.441L176.527 155.503Z" fill="#0E6A41"/>
<path d="M95.3001 302.901C95.4643 302.901 95.645 302.901 95.8093 302.901C126.394 308.447 151.229 310.268 173.321 310.12C174.257 310.12 175.194 310.104 176.13 310.087L175.292 291.874L175.21 290.135L173.682 257.088C169.182 257.613 164.698 258.04 160.23 258.368C158.965 258.466 157.684 258.548 156.419 258.63C142.934 259.467 129.531 259.467 116.226 258.63C114.222 258.499 112.235 258.368 110.231 258.204C106.026 257.859 101.821 257.432 97.6325 256.924L95.9571 290.053L95.3001 302.901Z" fill="#201D40"/>
<path d="M122.486 153.387H151.543L154.039 180.461L160.609 263.357L110.183 261.946L111.333 170.19L122.486 153.387Z" fill="#95A6DB"/>
<path d="M153.92 105.457C149.781 100.715 146.529 105.309 140.632 99.4347C134.735 93.5605 130.005 89.3271 124.962 95.5295C119.919 101.732 117.324 102.602 113.645 102.241C109.982 101.88 109.998 116.975 109.998 116.975C109.998 116.975 95.5604 113.366 97.4822 102.831C99.6339 91.1484 104.939 94.4957 107.929 85.0445C110.902 75.5768 122.383 70.244 127.639 72.5248C133.175 74.9204 136.082 77.5458 144.147 75.5932C152.212 73.6405 159.16 76.0034 159.143 86.4556C159.127 96.9078 171.43 93.7902 167.488 106.835C165.96 111.889 161.673 116.549 159.685 116.155C157.057 115.613 156.581 108.525 153.92 105.457Z" fill="#2C2858"/>
<path d="M146.191 157.438C146.191 157.438 144.072 166.611 134.512 165.364C124.953 164.117 125.38 157.438 125.38 157.438L124 137.502H147.587L146.191 157.438Z" fill="#EFAE95"/>
<path d="M175.509 150.122C175.509 150.122 192.493 233.838 186.678 281.816C174.26 297.617 157.966 296.945 157.966 296.945C157.966 296.945 153.498 183.759 151.56 153.387C160.101 152.419 175.509 150.122 175.509 150.122Z" fill="#3F964F"/>
<path d="M95.4635 154.995C95.4635 154.995 74.9316 266.015 87.3657 281.816C99.7834 297.618 116.077 296.945 116.077 296.945C116.077 296.945 115.158 194.54 122.483 153.387C114.78 153.633 95.4635 154.995 95.4635 154.995Z" fill="#3F964F"/>
<path d="M133.474 85.4875C163.91 84.7655 156.962 125.721 154.745 132.153C153.529 135.665 145.809 149.12 133.391 149.316C120.974 149.12 113.418 135.665 112.203 132.153C109.985 125.721 101.986 85.9797 133.474 85.4875Z" fill="#FEC5A7"/>
<path d="M138.943 111.955C138.631 111.791 138.385 111.512 138.27 111.151C138.024 110.413 138.434 109.625 139.173 109.379C139.403 109.314 144.659 107.64 149.456 111.069C150.08 111.529 150.228 112.398 149.784 113.022C149.324 113.645 148.454 113.793 147.83 113.35C144.183 110.741 140.11 112.037 140.06 112.054C139.666 112.169 139.272 112.136 138.943 111.955Z" fill="#2C2858"/>
<path d="M124.26 111.742C124.572 111.578 124.818 111.299 124.933 110.938C125.18 110.199 124.769 109.412 124.03 109.166C123.8 109.1 118.544 107.41 113.748 110.856C113.123 111.315 112.976 112.185 113.419 112.808C113.879 113.432 114.749 113.579 115.374 113.136C119.02 110.527 123.094 111.824 123.143 111.84C123.537 111.955 123.931 111.922 124.26 111.742Z" fill="#2C2858"/>
<path d="M118.562 117.073C118.562 118.435 119.679 119.551 121.042 119.551C122.406 119.551 123.522 118.435 123.522 117.073C123.522 115.711 122.406 114.596 121.042 114.596C119.662 114.596 118.562 115.695 118.562 117.073Z" fill="black"/>
<path d="M140.045 116.484C140.045 117.845 141.162 118.961 142.526 118.961C143.889 118.961 145.006 117.845 145.006 116.484C145.006 115.122 143.889 114.006 142.526 114.006C141.162 114.006 140.045 115.122 140.045 116.484Z" fill="black"/>
<path d="M130.322 118.617C128.318 121.784 125.805 125.64 125.805 125.64C125.805 125.64 126.955 128.987 131.373 129.052C129.501 128.281 127.661 127.018 128.433 124.524C129.205 122.046 130.322 118.617 130.322 118.617Z" fill="#EFAE95"/>
<path d="M124.508 135.468C124.097 134.796 124.475 133.828 125.099 133.893C126.709 134.074 129.353 134.32 131.867 134.205C134.38 134.09 137.008 133.631 138.584 133.302C139.209 133.171 139.652 134.106 139.307 134.812C138.24 136.962 135.989 140.26 132.129 140.424C128.286 140.621 125.756 137.519 124.508 135.468Z" fill="white"/>
<path d="M157.557 112.841C154.124 113.99 153.138 89.4101 139.768 98.3199C130.356 104.588 113.011 106.163 116.51 97.6471C113.701 99.731 110.514 103.013 110.514 103.013L115.475 86.6206C115.475 86.6206 141 78.6133 150.05 86.7191C159.117 94.8413 157.557 112.841 157.557 112.841Z" fill="#2C2858"/>
<path d="M153.839 126C150.363 124.23 149.186 119.581 151.209 115.617C153.232 111.653 157.689 109.875 161.165 111.644C164.64 113.414 165.817 118.063 163.794 122.027C161.771 125.991 157.314 127.77 153.839 126Z" fill="#FEC5A7"/>
<path d="M156.473 123.933C156.555 123.933 156.653 123.917 156.735 123.9C157.212 123.752 157.491 123.244 157.343 122.752C156.604 120.323 156.67 118.485 157.54 117.452C158.706 116.04 161.055 116.287 161.088 116.287C161.597 116.336 162.041 115.975 162.09 115.483C162.139 114.974 161.794 114.531 161.285 114.482C161.154 114.465 157.951 114.121 156.144 116.287C154.846 117.845 154.666 120.208 155.602 123.309C155.717 123.687 156.078 123.933 156.473 123.933Z" fill="#EFAE95"/>
<path d="M95.4632 215.854L50.3916 224.37C50.3916 224.37 42.8851 237.775 48.5684 252.592C56.6169 253.134 86.0021 247.67 98.2227 224.96C96.6787 220.53 95.4632 215.854 95.4632 215.854Z" fill="#0E6A41"/>
<path d="M103.518 235.609C102.27 235.231 101.416 234.214 101.399 233.065C101.383 232.13 101.941 231.244 102.828 230.735L101.268 198.985V198.952C101.252 197.672 101.728 196.458 102.648 195.424C102.812 195.244 103.009 195.063 103.19 194.883C104.602 193.652 105.456 191.913 105.522 190.108L106.015 175.816C105.473 175.291 105.489 174.536 105.506 174.142C105.506 174.044 105.506 173.946 105.506 173.847V173.437C105.489 172.682 105.654 172.091 105.982 171.648C105.982 171.517 105.966 171.402 105.966 171.304C105.966 170.91 105.966 170.483 106.146 170.073C106.393 169.499 106.935 169.154 107.625 169.154L114.277 169.072C114.474 169.072 114.671 169.089 114.852 169.154C115.262 169.269 115.575 169.548 115.788 169.909C116.018 170.319 116.051 170.812 116.051 171.173C116.051 171.369 116.051 171.55 116.018 171.714C116.33 172.141 116.494 172.699 116.494 173.289V173.782C116.494 174.274 116.511 174.996 115.985 175.57L116.708 190.042C116.79 191.814 117.661 193.504 119.09 194.67C120.387 195.736 121.11 197.164 121.126 198.69C121.126 198.69 121.126 198.706 120.716 230.752C121.389 231.26 121.8 232.015 121.816 232.786C121.833 234.296 120.42 235.543 118.679 235.559L104.619 235.724C104.225 235.756 103.863 235.707 103.518 235.609Z" fill="white"/>
<path d="M115.459 185.136L115.738 190.272C115.853 192.241 116.773 194.111 118.35 195.309C119.467 196.162 120.157 197.377 120.173 198.722L119.763 231.293C120.42 231.605 120.847 232.163 120.863 232.819C120.88 233.804 119.894 234.624 118.662 234.64L104.602 234.804C103.37 234.821 102.368 234.033 102.368 233.049C102.352 232.261 102.976 231.588 103.83 231.342L103.419 223.007L102.614 206.647L102.237 198.935C102.22 197.59 102.894 196.359 103.978 195.473C105.472 194.259 106.425 192.487 106.507 190.551L106.852 182.248C108.166 182.986 109.086 184.742 110.696 184.923C112.256 185.103 114.786 182.986 115.459 185.136Z" fill="#FFA823"/>
<path d="M116.956 197.95C117.531 197.95 118.008 198.36 118.073 198.902C118.073 198.935 118.073 198.968 118.073 199.017C118.073 199.099 118.073 199.181 118.04 199.263C117.925 199.739 117.498 200.116 116.973 200.116C116.858 200.116 116.743 200.1 116.628 200.067C116.398 200.001 116.217 199.87 116.069 199.689C115.938 199.509 115.856 199.279 115.839 199.05C115.839 198.459 116.332 197.967 116.956 197.95Z" fill="#FFBF5E"/>
<path d="M114.688 230.733C114.737 230.471 114.869 230.225 115.066 230.028C115.328 229.765 115.69 229.601 116.084 229.601C116.347 229.601 116.593 229.667 116.807 229.782C116.905 229.847 117.004 229.913 117.102 229.995C117.316 230.192 117.464 230.454 117.513 230.75C117.529 230.832 117.546 230.914 117.546 230.996C117.546 231.078 117.546 231.16 117.529 231.242C117.48 231.521 117.349 231.783 117.135 231.997C117.02 232.112 116.889 232.21 116.741 232.276C116.544 232.374 116.33 232.423 116.117 232.423C115.969 232.423 115.821 232.407 115.673 232.358C115.46 232.292 115.263 232.177 115.098 232.013C114.901 231.816 114.754 231.587 114.704 231.324C114.688 231.226 114.671 231.127 114.671 231.029C114.655 230.93 114.671 230.832 114.688 230.733Z" fill="#FFBF5E"/>
<path d="M107.079 221.546C107.868 221.53 108.525 222.17 108.541 222.941C108.541 223.318 108.393 223.679 108.13 223.942C107.868 224.204 107.506 224.368 107.112 224.368C106.964 224.368 106.816 224.352 106.669 224.303C106.373 224.221 106.126 224.04 105.946 223.811C105.765 223.581 105.65 223.286 105.65 222.974C105.65 222.203 106.291 221.563 107.079 221.546Z" fill="#FFBF5E"/>
<path d="M112.289 225.845C112.503 225.632 112.782 225.517 113.078 225.517C113.373 225.517 113.669 225.632 113.883 225.829C114.096 226.042 114.211 226.305 114.228 226.616C114.228 227.224 113.735 227.732 113.111 227.732C112.996 227.732 112.881 227.716 112.766 227.683C112.306 227.552 111.977 227.125 111.961 226.633C111.961 226.338 112.076 226.059 112.289 225.845Z" fill="#FFBF5E"/>
<path d="M116.259 219.085C116.292 219.035 116.325 218.986 116.374 218.953C116.555 218.773 116.785 218.674 117.048 218.674C117.08 218.674 117.13 218.674 117.162 218.674C117.639 218.724 118 219.117 118.017 219.593C118.017 219.823 117.934 220.036 117.787 220.217C117.77 220.233 117.754 220.25 117.737 220.266C117.573 220.43 117.343 220.545 117.097 220.545C117.08 220.545 117.08 220.545 117.064 220.545C116.965 220.545 116.867 220.528 116.768 220.512C116.62 220.463 116.489 220.397 116.39 220.282C116.21 220.102 116.095 219.872 116.095 219.61C116.095 219.429 116.144 219.232 116.259 219.085Z" fill="#FFBF5E"/>
<path d="M115.246 216.836C115.279 216.803 115.328 216.77 115.378 216.738C115.542 216.623 115.723 216.557 115.92 216.557C116.183 216.557 116.413 216.656 116.61 216.82C116.79 217 116.905 217.23 116.905 217.492C116.905 217.591 116.889 217.689 116.856 217.788C116.856 217.804 116.84 217.821 116.84 217.853C116.79 217.968 116.725 218.083 116.626 218.165C116.445 218.346 116.215 218.444 115.953 218.444C115.854 218.444 115.756 218.428 115.657 218.411C115.509 218.362 115.378 218.28 115.263 218.182C115.082 218.017 114.967 217.771 114.967 217.509C114.967 217.263 115.066 217.017 115.246 216.836Z" fill="#FFBF5E"/>
<path d="M106.113 196.851C106.294 196.671 106.524 196.572 106.787 196.572C107.05 196.572 107.28 196.671 107.477 196.835C107.657 197.015 107.772 197.245 107.772 197.508C107.772 197.754 107.674 198 107.493 198.18C107.313 198.361 107.083 198.459 106.82 198.459C106.721 198.459 106.623 198.443 106.524 198.426C106.376 198.377 106.245 198.312 106.13 198.197C105.949 198.016 105.834 197.786 105.834 197.524C105.834 197.278 105.933 197.032 106.113 196.851Z" fill="#FFBF5E"/>
<path d="M109.531 201.018C110.057 201.018 110.5 201.428 110.5 201.953C110.5 202.478 110.073 202.905 109.547 202.905C109.449 202.905 109.35 202.889 109.252 202.872C109.055 202.807 108.89 202.692 108.775 202.544C108.66 202.38 108.578 202.199 108.578 201.986C108.578 201.461 109.005 201.018 109.531 201.018Z" fill="#FFBF5E"/>
<path d="M117.1 213.981C117.166 213.899 117.248 213.834 117.347 213.784C117.445 213.735 117.544 213.719 117.643 213.719C117.84 213.719 118.02 213.784 118.152 213.916C118.3 214.047 118.365 214.227 118.365 214.408C118.365 214.605 118.3 214.769 118.152 214.917C118.02 215.048 117.84 215.13 117.643 215.13C117.56 215.13 117.495 215.113 117.429 215.097C117.38 215.081 117.33 215.064 117.281 215.031C117.199 214.982 117.133 214.917 117.068 214.851C116.969 214.736 116.92 214.588 116.92 214.424C116.953 214.26 117.002 214.113 117.1 213.981Z" fill="#FFBF5E"/>
<path d="M109.744 191.42C109.875 191.289 110.056 191.207 110.253 191.207C110.647 191.207 110.976 191.518 110.976 191.912C110.976 192.306 110.664 192.618 110.269 192.634C110.187 192.634 110.121 192.618 110.056 192.601C109.908 192.552 109.793 192.47 109.694 192.355C109.596 192.24 109.547 192.093 109.547 191.929C109.53 191.732 109.596 191.551 109.744 191.42Z" fill="#FFBF5E"/>
<path d="M112.287 202.184C112.418 202.052 112.599 201.97 112.796 201.97C113.19 201.97 113.519 202.282 113.519 202.676C113.519 203.07 113.206 203.398 112.812 203.398C112.73 203.398 112.664 203.381 112.582 203.365C112.484 203.332 112.369 203.283 112.287 203.201C112.155 203.07 112.073 202.889 112.073 202.692C112.073 202.495 112.155 202.315 112.287 202.184Z" fill="#FFBF5E"/>
<path d="M109.461 177.654C109.461 178.212 109.938 178.655 110.496 178.639C111.071 178.639 111.515 178.179 111.515 177.621C111.515 177.063 111.038 176.62 110.48 176.637C109.905 176.637 109.461 177.096 109.461 177.654Z" fill="#FFA823"/>
<path d="M109.038 182.658C109.038 183.068 109.383 183.397 109.793 183.38C110.204 183.38 110.549 183.036 110.533 182.625C110.533 182.215 110.188 181.887 109.777 181.903C109.366 181.903 109.038 182.248 109.038 182.658Z" fill="#FFA823"/>
<path d="M112.368 175.603C112.368 175.948 112.664 176.227 113.009 176.21C113.354 176.21 113.633 175.931 113.633 175.587C113.633 175.242 113.337 174.963 112.992 174.98C112.647 174.98 112.368 175.275 112.368 175.603Z" fill="#FFA823"/>
<path d="M110.038 173.782C110.038 174.307 110.482 174.717 111.007 174.701C111.533 174.701 111.96 174.274 111.96 173.749C111.96 173.224 111.516 172.814 110.991 172.83C110.449 172.846 110.022 173.273 110.038 173.782Z" fill="#FFA823"/>
<path d="M107.467 178.31C107.352 178.277 107.254 178.162 107.254 178.031C107.254 177.867 107.385 177.736 107.55 177.719L114.136 177.637C114.3 177.637 114.432 177.768 114.448 177.933C114.448 178.097 114.317 178.228 114.153 178.244L107.566 178.326C107.533 178.326 107.5 178.326 107.467 178.31Z" fill="#95A6DB"/>
<path d="M106.227 174.405C106.112 174.372 106.013 174.257 106.013 174.126C106.013 173.962 106.144 173.831 106.309 173.814L111.286 173.749C111.45 173.749 111.581 173.88 111.598 174.044C111.598 174.208 111.466 174.339 111.302 174.356L106.325 174.421C106.292 174.421 106.259 174.421 106.227 174.405Z" fill="#95A6DB"/>
<path d="M105.867 231.441C105.752 231.408 105.653 231.294 105.653 231.162C105.653 230.998 105.784 230.867 105.949 230.85L117.331 230.719C117.496 230.719 117.627 230.85 117.644 231.015C117.644 231.179 117.512 231.31 117.348 231.326L105.965 231.458C105.932 231.441 105.899 231.441 105.867 231.441Z" fill="#FF7023"/>
<path d="M110.183 193.898C110.068 193.865 109.969 193.751 109.969 193.619C109.969 193.455 110.1 193.324 110.265 193.308L114.88 193.258C115.045 193.258 115.176 193.39 115.192 193.554C115.192 193.718 115.061 193.849 114.897 193.865L110.281 193.915C110.248 193.915 110.215 193.898 110.183 193.898Z" fill="#FF7023"/>
<path d="M96.1434 228.536C94.583 223.368 92.7762 220.463 95.9463 214.146C97.0961 211.849 96.3241 209.568 97.7367 206.795C98.9686 204.383 100.513 204.039 101.498 204.317L101.728 210.323C102.451 211.947 104.652 213.457 111.78 211.619C117.234 210.208 120.7 207.107 122.178 209.831C123.147 211.603 120.272 212.358 116.56 213.473C121.406 213.293 121.455 211.34 122.917 213.424C124.674 215.935 117.513 217.953 113.916 218.396C119.205 219.495 121.833 215.672 122.966 217.297C124.149 219.2 121.324 222.482 115.263 222.252C120.617 223.368 121.981 220.677 122.687 222.465C123.41 224.319 116.79 228.865 108.463 229.209C106.344 229.275 96.1434 228.536 96.1434 228.536Z" fill="#FEC5A7"/>
<path d="M251.277 159.586C251.277 159.586 248.518 164.033 244.428 167.249C235.164 165.625 234.507 162.376 234.408 162.31L237.184 171.367C237.184 171.367 230.893 174.469 226.935 175.798C204.81 184.691 185.855 178.653 174.718 172.828C175.852 170.99 177.691 167.872 178.463 165.838C177.576 167.741 172.123 170.186 170.842 170.514C167.885 168.562 164.124 165.887 164.124 165.887C164.124 165.887 175.047 155.32 172.32 135.531C169.593 115.743 188.696 104.257 203.052 104.503C242.999 105.176 235.361 131.117 240.946 143.046C247.105 156.239 251.277 159.586 251.277 159.586Z" fill="black"/>
<path d="M208.836 115.102C201.86 115.102 196.204 109.453 196.204 102.484C196.204 95.5155 201.86 89.8662 208.836 89.8662C215.812 89.8662 221.467 95.5155 221.467 102.484C221.467 109.453 215.812 115.102 208.836 115.102Z" fill="black"/>
<path d="M203.58 161.752L217.969 159.603L216.819 172.943C216.819 172.943 209.526 186.053 202.627 183.805C195.712 181.541 199.079 175.749 199.079 175.749L203.58 161.752Z" fill="#FEC5A7"/>
<path d="M178.879 153.531C179.405 151.595 180.883 150.052 182.772 149.429C183.215 149.281 183.692 149.183 184.168 149.15C184.332 149.133 184.497 149.133 184.661 149.133C187.962 149.133 190.64 151.808 190.64 155.106C190.64 156.977 189.769 158.65 188.422 159.733C187.387 160.57 186.09 161.062 184.661 161.062C181.359 161.062 178.682 158.388 178.682 155.09C178.682 154.548 178.748 154.023 178.879 153.531ZM184.661 160.094C185.86 160.094 186.96 159.668 187.814 158.978C188.948 158.06 189.671 156.665 189.671 155.09C189.671 152.333 187.42 150.085 184.661 150.085C184.119 150.085 183.593 150.167 183.1 150.331C182.838 150.413 182.575 150.528 182.328 150.659C181.721 150.987 181.179 151.43 180.752 151.956C180.062 152.809 179.651 153.892 179.651 155.073C179.635 157.863 181.885 160.094 184.661 160.094Z" fill="#F7D743"/>
<path d="M181.038 139.919C180.29 124.006 189.828 110.629 202.342 110.042C214.856 109.455 225.607 121.879 226.355 137.793C227.103 153.707 217.565 167.083 205.051 167.671C192.537 168.258 181.786 155.833 181.038 139.919Z" fill="#FEC5A7"/>
<path d="M209.913 136.566C209.732 136.55 209.551 136.468 209.42 136.337C207.4 134.384 204.246 135.073 204.213 135.073C203.77 135.172 203.326 134.893 203.228 134.45C203.129 134.007 203.408 133.564 203.835 133.465C204 133.432 207.876 132.563 210.553 135.139C210.882 135.451 210.882 135.976 210.57 136.304C210.405 136.517 210.159 136.599 209.913 136.566Z" fill="black"/>
<path d="M182.715 141.44C182.633 141.423 182.551 141.391 182.469 141.341C182.074 141.128 181.926 140.619 182.156 140.226C183.865 137.157 187.117 137.288 187.248 137.288C187.692 137.305 188.053 137.699 188.02 138.142C188.004 138.585 187.61 138.946 187.166 138.913C187.068 138.913 184.785 138.847 183.569 141.013C183.405 141.358 183.043 141.505 182.715 141.44Z" fill="black"/>
<path d="M195.232 145.786C194.46 147.23 193.836 148.657 192.982 149.625C192.686 149.954 192.719 150.446 193.031 150.758C194.312 152.005 197.121 152.53 198.829 152.727C199.076 152.759 199.174 152.415 198.944 152.316C197.039 151.414 196.086 150.626 195.659 150.167C195.446 149.937 195.364 149.625 195.413 149.314C195.544 148.608 195.807 147.164 195.922 145.999C195.971 145.589 195.413 145.425 195.232 145.786Z" fill="#EFAE95"/>
<path d="M207.716 155.468C207.929 154.927 207.404 154.402 206.878 154.615C205.515 155.14 203.248 155.977 201.014 156.551C198.797 157.126 196.399 157.503 194.953 157.7C194.378 157.782 194.181 158.504 194.641 158.865C196.021 159.981 198.682 161.523 202.082 160.637C205.482 159.751 207.059 157.109 207.716 155.468Z" fill="white"/>
<path d="M231.028 135.416C216.525 137.582 194.991 128.049 191.279 121.207C191.443 111.657 197.652 105.061 206.949 106.767C216.262 108.49 233.755 122.667 231.028 135.416Z" fill="black"/>
<path d="M195.281 124.242C195.281 124.242 188.432 134.612 180.153 138.304C181.188 127.573 181.845 119.467 186.559 115.955C191.273 112.444 196.924 110.885 196.924 110.885L195.281 124.242Z" fill="black"/>
<path d="M222.515 136.056C220.314 139.092 220.544 143.013 223.025 144.802C225.505 146.607 229.315 145.606 231.517 142.57C233.718 139.535 233.488 135.613 231.007 133.825C228.527 132.02 224.716 133.021 222.515 136.056Z" fill="#FEC5A7"/>
<path d="M226.332 143.129C226.217 143.112 226.085 143.063 225.987 142.981C224.475 141.849 223.901 140.241 224.443 138.698C225.001 137.123 226.578 136.007 228.188 136.073C228.647 136.089 228.992 136.467 228.976 136.926C228.96 137.386 228.582 137.73 228.122 137.714C227.235 137.681 226.299 138.354 225.987 139.256C225.674 140.11 226.036 140.979 226.972 141.685C227.333 141.964 227.399 142.472 227.136 142.833C226.939 143.063 226.627 143.178 226.332 143.129Z" fill="#EFAE95"/>
<path d="M208.836 139.24C209.099 140.602 208.212 141.931 206.848 142.194C205.485 142.456 204.154 141.57 203.892 140.208C203.629 138.846 204.516 137.517 205.879 137.255C207.242 136.992 208.573 137.878 208.836 139.24Z" fill="black"/>
<path d="M190.832 142.768C191.095 144.13 190.208 145.459 188.844 145.721C187.481 145.984 186.151 145.098 185.888 143.736C185.625 142.374 186.512 141.045 187.875 140.782C189.239 140.52 190.569 141.406 190.832 142.768Z" fill="black"/>
<path d="M223.516 145.113C224.255 144.473 225.159 144.014 226.144 143.801C226.555 143.702 226.999 143.653 227.442 143.653C227.508 143.653 227.557 143.653 227.623 143.653C228.444 143.669 229.232 143.866 229.955 144.194C229.972 144.194 229.972 144.211 229.988 144.211C230.793 144.588 231.483 145.13 232.041 145.802C232.895 146.836 233.421 148.165 233.421 149.609C233.421 152.907 230.744 155.582 227.442 155.582C226.194 155.582 225.011 155.188 224.058 154.532C223.796 154.351 223.549 154.154 223.319 153.925C222.186 152.842 221.463 151.299 221.463 149.609C221.463 147.837 222.268 146.213 223.516 145.113ZM223.73 152.989C224.026 153.317 224.354 153.596 224.715 153.826C225.504 154.335 226.424 154.63 227.426 154.63C230.185 154.63 232.435 152.382 232.435 149.626C232.435 148.461 232.041 147.394 231.384 146.557C230.776 145.77 229.922 145.179 228.953 144.867C228.526 144.736 228.083 144.654 227.623 144.637C227.557 144.637 227.491 144.637 227.426 144.637C226.933 144.637 226.456 144.703 225.997 144.851C225.471 145.015 224.995 145.244 224.551 145.556C223.254 146.459 222.416 147.952 222.416 149.658C222.432 150.922 222.925 152.103 223.73 152.989Z" fill="#F7D743"/>
<path d="M228.839 144.917C228.839 144.917 229.758 144.49 230.087 144.113C229.381 143.702 227.492 143.522 227.492 143.522C227.492 143.522 228.132 144.08 227.442 144.917C227.82 144.95 228.839 144.917 228.839 144.917Z" fill="#FEC5A7"/>
<path d="M177.561 310.069C184.476 309.937 191.128 309.626 197.617 309.183C202.314 308.854 206.93 308.477 211.496 308.034L203.086 275.89L202.446 273.478L187.515 272.428L178.678 271.804L178.349 271.788C178.349 271.788 178.267 272.526 178.136 273.954C177.873 276.841 177.462 282.552 177.331 290.592C177.232 296.039 177.265 302.586 177.561 310.069Z" fill="#FEC5A7"/>
<path d="M189.008 276.119C189.008 276.119 190.651 288.672 197.599 309.183C202.297 308.854 206.912 308.477 211.478 308.034C222.056 307.017 232.372 305.753 242.9 304.49C240.289 292.561 237.053 281.075 232.947 271.788L203.069 275.906L198.995 276.464L189.008 276.119Z" fill="#FEC5A7"/>
<path d="M173.324 310.118C174.26 310.118 175.197 310.102 176.133 310.085C176.609 310.085 177.086 310.069 177.562 310.069C184.477 309.938 191.129 309.626 197.617 309.183C202.315 308.855 206.931 308.477 211.497 308.034C222.075 307.017 232.39 305.754 242.919 304.49C247.452 303.949 252.019 303.407 256.667 302.882C254.63 285.604 250.458 268.999 242.114 258.399C240.849 256.791 239.486 255.33 238.024 254.018L187.877 254.493L186.251 254.51C184.789 256.43 183.475 258.727 182.309 261.319C180.929 264.388 179.73 267.916 178.695 271.788C178.515 272.494 178.334 273.199 178.153 273.921C176.954 278.844 176.001 284.291 175.229 290.1C175.147 290.74 175.065 291.38 174.983 292.036C174.244 297.795 173.718 303.867 173.324 310.118Z" fill="#070635"/>
<path d="M182.112 246.993C181.389 235.753 170.532 219.542 174.474 207.892C177.283 198.539 182.637 177.503 189.832 175.649C192.755 174.894 195.548 174.304 199.572 174.205C199.572 174.205 198.537 183.525 203.383 183.607C212.696 183.755 216.934 171.547 216.934 171.547C221.894 170.743 240.619 174.911 241.687 179.161C242.59 193.895 237.466 212.158 234.591 228.337C234.394 236.492 236.694 242.924 237.811 247.469C239.601 252.162 242.377 257.281 242.459 258.315C242.459 258.315 204.91 273.034 182.276 262.434C182.243 262.401 182.605 254.59 182.112 246.993Z" fill="#FEDA34"/>
<path d="M245.4 185.905C244.891 202.823 220.713 240.037 202.94 246.486C193.775 240.48 190.178 230.52 190.178 230.52C190.178 230.52 215.112 198.343 219.727 188.646C221.583 184.74 225.69 173.763 231.981 174.059C241.54 174.485 245.532 181.689 245.4 185.905Z" fill="#FEC5A7"/>
<path d="M147.273 236.198C147.273 236.198 183.326 231.358 190.718 229.651C198.454 227.863 202.462 238.889 202.938 246.486C180.748 250.523 162.811 248.8 143.987 244.796C145.926 240.3 147.273 236.198 147.273 236.198Z" fill="#FEC5A7"/>
<path d="M220.299 132.316C220.578 132.546 220.857 132.825 221.071 133.186C221.284 133.547 221.399 133.973 221.432 134.351C221.465 134.728 221.416 135.073 221.334 135.384C221.268 135.696 221.169 135.959 221.054 136.221C220.841 136.73 220.578 137.173 220.332 137.583C220.069 137.993 219.806 138.403 219.543 138.781C218.492 140.323 217.441 141.8 216.751 143.424C216.406 144.228 216.143 145.082 216.061 145.951C215.962 146.821 216.028 147.707 216.307 148.544C216.439 148.971 216.619 149.381 216.817 149.775C217.03 150.168 217.276 150.562 217.539 150.923C218.098 151.662 218.738 152.318 219.428 152.941C218.673 152.416 217.933 151.809 217.293 151.136C216.981 150.792 216.669 150.414 216.406 150.021C216.143 149.627 215.897 149.2 215.716 148.757C215.322 147.871 215.125 146.887 215.125 145.902C215.125 144.918 215.305 143.933 215.585 142.998C216.16 141.127 217.096 139.437 217.95 137.813C218.163 137.403 218.377 137.009 218.558 136.599C218.738 136.205 218.903 135.811 219.018 135.45C219.133 135.089 219.149 134.761 219.116 134.597C219.1 134.515 219.067 134.498 219.034 134.465C219.001 134.433 218.935 134.383 218.853 134.334L220.299 132.316Z" fill="black"/>
<path d="M126.748 226.473L129.549 226.265L130.935 244.886L128.134 245.094L126.748 226.473Z" fill="white"/>
<path d="M122.797 246.076C122.682 244.878 125.59 243.631 129.269 243.303C132.948 242.975 136.02 243.681 136.135 244.878L122.797 246.076Z" fill="white"/>
<path d="M127.939 227.731L111.415 215.507C110.922 215.146 111.152 214.358 111.76 214.326L141.309 212.488C141.917 212.455 142.245 213.177 141.818 213.604L127.939 227.731Z" fill="white"/>
<path d="M136.218 210.804L136.937 211.234L131.892 219.634L131.174 219.204L136.218 210.804Z" fill="#FEC5A7"/>
<path d="M140.225 210.141C139.322 211.7 137.482 212.324 136.102 211.536C134.723 210.748 134.345 208.829 135.248 207.27C136.152 205.711 137.991 205.087 139.371 205.875C140.751 206.679 141.128 208.582 140.225 210.141Z" fill="#6AA35D"/>
<path d="M139.623 207.024C139.557 207.352 139.032 207.516 138.44 207.401C137.865 207.286 137.438 206.909 137.504 206.58C137.57 206.252 138.095 206.088 138.687 206.203C139.278 206.334 139.689 206.695 139.623 207.024Z" fill="#56854C"/>
<path d="M128.122 225.778L115.293 216.671C114.932 216.392 115.096 215.818 115.556 215.785L137.566 214.423C138.01 214.39 138.256 214.932 137.944 215.26L128.122 225.778Z" fill="#92C985"/>
<path d="M147.606 243.219C138.983 247.666 135.78 242.99 134.498 241.267C133.102 239.38 130.622 237.509 128.717 238.034C126.762 238.559 125.169 239.593 124.233 238.165C122.935 236.164 128.24 232.931 132.018 235.573C132.018 235.573 129.094 233.44 127.025 234.162C124.758 234.949 123.083 235.524 122.114 234.506C121.604 233.965 121.588 232.898 122.393 232.258C121.259 232.308 119.338 231.586 120.044 230.404C122.278 226.647 128.093 224.071 133.841 226.876C128.667 221.412 124.167 226.302 122.245 224.973C121.095 224.169 122.064 222.741 122.968 222.036C125.908 219.788 129.899 219.46 133.267 221.002C136.634 222.545 140.362 226.745 140.116 230.421C140.116 230.421 144.682 235.442 148.017 236.098L147.606 243.219Z" fill="#FEC5A7"/>
<path d="M178.961 203.184L183.543 206.286L189.785 196.44L182.016 192.667L178.961 203.184Z" fill="#FEC5A7"/>
<path d="M181.915 205.958C187.73 212.653 220.219 241.712 232.785 239.727C235.708 231.949 237.121 219.971 231.257 214.392C218.971 206.598 189.29 194.587 189.29 194.587L181.915 205.958Z" fill="#EA8249"/>
<path d="M251.278 173.387C251.278 173.387 267.671 188.204 264.09 205.974C260.509 223.744 244.609 242.959 232.274 239.447C216.522 219.15 244.15 181.23 251.278 173.387Z" fill="#EA8249"/>
<path d="M172.981 186.645C174.837 187.613 181.029 189.976 182.77 193.372C183.821 195.407 182.606 198.672 181.308 200.773C181.768 205.498 171.207 208.6 171.207 208.6L168.792 191.912L172.981 186.645Z" fill="#FEC5A7"/>
<path d="M170.553 214.032C171.851 213.687 172.623 212.342 172.262 211.045C171.276 207.567 169.716 201.02 170.488 197.197C171.9 190.207 171.128 188.221 167.449 177.769C167.022 176.571 165.757 175.898 164.525 176.226C164.525 176.226 160.862 176.456 157.002 177.506C153.142 178.556 150.777 179.951 150.777 179.951C149.545 180.279 148.79 181.51 149.036 182.757C151.155 193.636 151.483 195.736 156.23 201.069C158.826 203.973 160.78 210.422 161.7 213.917C162.045 215.213 163.375 216.001 164.689 215.64L170.553 214.032Z" fill="white"/>
<path d="M169.052 198.018C168.494 201.349 169.873 207.092 170.744 210.16C171.056 211.309 170.465 212.457 169.397 212.753L164.617 214.049C163.566 214.328 162.449 213.639 162.153 212.49C161.349 209.422 159.64 203.744 157.472 201.168C154.515 197.64 153.596 195.721 152.512 191.011C155.074 189.649 158.688 188.796 162.794 189.288C165.767 189.633 167.607 189.075 168.691 188.452C169.693 191.947 169.726 194.063 169.052 198.018Z" fill="#FFA823"/>
<path d="M157.319 193.833C157.451 194.309 157.171 194.801 156.679 194.932C156.202 195.064 155.71 194.785 155.578 194.293C155.447 193.817 155.726 193.325 156.219 193.193C156.695 193.078 157.188 193.357 157.319 193.833Z" fill="#FFBF5E"/>
<path d="M164.088 200.61C164.219 201.086 163.94 201.578 163.447 201.709C162.971 201.841 162.478 201.562 162.347 201.069C162.215 200.594 162.494 200.101 162.987 199.97C163.464 199.855 163.956 200.134 164.088 200.61Z" fill="#FFBF5E"/>
<path d="M166.964 193.866C167.095 194.342 166.816 194.834 166.323 194.965C165.83 195.097 165.354 194.818 165.223 194.325C165.091 193.849 165.37 193.357 165.863 193.226C166.34 193.111 166.832 193.39 166.964 193.866Z" fill="#FFBF5E"/>
<path d="M159.247 186.663C159.412 187.27 159.05 187.894 158.443 188.058C157.835 188.222 157.211 187.861 157.047 187.254C156.882 186.647 157.244 186.023 157.851 185.859C158.459 185.695 159.083 186.04 159.247 186.663Z" fill="#FFBF5E"/>
<path d="M159.128 192.259C159.407 192.423 159.505 192.768 159.341 193.047C159.177 193.326 158.832 193.424 158.553 193.26C158.274 193.096 158.175 192.752 158.339 192.473C158.503 192.21 158.865 192.112 159.128 192.259Z" fill="#FFBF5E"/>
<path d="M152.628 184.76C153.055 184.645 153.482 184.891 153.597 185.318C153.712 185.745 153.465 186.171 153.038 186.286C152.611 186.401 152.184 186.155 152.069 185.728C151.954 185.302 152.201 184.875 152.628 184.76Z" fill="#FFBF5E"/>
<path d="M158.946 183.546C159.307 183.448 159.685 183.661 159.784 184.022C159.882 184.383 159.669 184.76 159.307 184.859C158.946 184.957 158.568 184.744 158.47 184.383C158.371 184.005 158.584 183.644 158.946 183.546Z" fill="#FFBF5E"/>
<path d="M165.714 180.691C166.157 180.576 166.633 180.838 166.748 181.281C166.863 181.724 166.601 182.2 166.157 182.315C165.714 182.43 165.237 182.167 165.122 181.724C165.007 181.265 165.27 180.805 165.714 180.691Z" fill="#FFBF5E"/>
<path d="M161.853 195.54C162.099 195.344 162.461 195.393 162.658 195.639C162.855 195.885 162.805 196.246 162.559 196.443C162.313 196.64 161.951 196.591 161.754 196.344C161.557 196.098 161.59 195.737 161.853 195.54Z" fill="#FFBF5E"/>
<path d="M163.023 186.778C163.367 186.515 163.844 186.581 164.107 186.926C164.369 187.27 164.304 187.746 163.959 188.009C163.614 188.271 163.138 188.206 162.875 187.861C162.612 187.533 162.678 187.041 163.023 186.778Z" fill="#FFBF5E"/>
<path d="M164.025 211.555C164.271 211.358 164.632 211.407 164.83 211.654C165.027 211.9 164.977 212.261 164.731 212.458C164.485 212.654 164.123 212.605 163.926 212.359C163.713 212.113 163.762 211.752 164.025 211.555Z" fill="#FFBF5E"/>
<path d="M162.071 202.892C162.35 203.056 162.449 203.4 162.285 203.679C162.12 203.958 161.775 204.057 161.496 203.893C161.217 203.728 161.118 203.384 161.283 203.105C161.447 202.826 161.808 202.728 162.071 202.892Z" fill="#FFBF5E"/>
<path d="M166.765 206.911C167.045 207.075 167.143 207.419 166.979 207.698C166.815 207.977 166.47 208.076 166.19 207.912C165.911 207.748 165.813 207.403 165.977 207.124C166.141 206.845 166.486 206.747 166.765 206.911Z" fill="#FFBF5E"/>
<path d="M152.755 181.919C161.411 181.919 165.436 177.915 165.616 177.735C165.748 177.604 165.748 177.39 165.616 177.259C165.485 177.128 165.271 177.128 165.14 177.259C165.091 177.308 160.393 181.968 150.373 181.148C150.193 181.132 150.028 181.263 150.012 181.46C149.996 181.64 150.127 181.804 150.324 181.821C151.178 181.903 151.983 181.919 152.755 181.919Z" fill="#B5C3E5"/>
<path d="M160.711 200.938C162.239 201.808 162.765 204.449 161.828 206.632C161.713 206.632 161.73 206.763 161.73 206.763C161.96 206.746 162.091 206.878 162.354 207.009C163.537 207.895 164.079 209.864 163.372 211.374C162.666 212.883 161.155 213.622 159.857 212.736C158.823 212.112 158.231 210.537 158.494 209.191C158.149 209.208 157.656 209.093 157.279 208.847C156.244 208.223 155.652 206.648 155.751 205.04C155.505 204.925 155.242 204.794 154.995 204.679C153.698 203.809 153.123 201.561 153.731 199.527C153.271 199.543 152.893 199.428 152.515 199.182C151.086 198.181 150.495 195.933 151.25 194.03C152.006 192.127 153.862 191.372 155.422 192.356C156.72 193.226 157.311 194.801 157.098 196.426C157.558 196.409 158.051 196.508 158.428 196.77C159.463 197.394 160.054 198.969 159.956 200.577C160.219 200.708 160.465 200.823 160.711 200.938Z" fill="#FEC5A7"/>
<path d="M172.88 186.596C174.243 187.532 174.145 190.009 172.683 192.126C171.221 194.259 168.938 195.227 167.591 194.308C166.244 193.39 166.326 190.895 167.788 188.779C169.234 186.629 171.517 185.661 172.88 186.596Z" fill="#FEC5A7"/>
<path d="M283.557 283.111C280.436 289.904 276.757 298.075 273.028 306.739C283.82 308.413 295.613 308.905 307.095 308.708C314.371 308.593 321.533 308.199 328.201 307.691C334.377 296.697 338.418 289.1 338.418 289.1L333.917 286.737L309.706 274.037L292.18 264.832C292.18 264.815 288.599 272.166 283.557 283.111Z" fill="#2E5BE6"/>
<path d="M302.379 275.792C302.379 275.792 302.904 280.075 303.874 286.983C304.678 292.726 305.762 300.273 307.109 308.691C314.386 308.576 321.547 308.182 328.216 307.674C340.519 306.722 351.195 305.294 358.127 304.244C358.176 293.365 358.094 283.471 357.995 276.038C357.88 267.637 357.749 262.386 357.749 262.386L337.71 267.227L333.932 268.146L309.721 274.003L302.379 275.792Z" fill="#4E73E6"/>
<path d="M307.34 154.943L265.981 165.543L251.28 173.403C253.005 197.802 281.043 282.503 281.043 282.503C281.043 282.503 309.295 289.723 325.408 288.164C347.5 286.014 363.104 272.248 363.104 272.248C361.166 246.454 351.492 215.294 337.185 184.15C331.715 172.254 319.117 158.176 307.34 154.943Z" fill="#F29456"/>
<path d="M276.907 143.704L266.838 145.64L269.023 169.793C269.023 169.793 269.779 175.487 280.258 175.192C289.259 174.945 293.3 165.297 293.3 165.297L286.812 141.882L276.907 143.704Z" fill="#FEC5A7"/>
<path d="M295.993 129.132C292.97 146.525 281.423 158.996 267.741 156.633C254.058 154.27 245.418 138.256 248.441 120.846C251.463 103.453 264.981 91.2616 278.664 93.6244C292.346 96.0037 299.015 111.739 295.993 129.132Z" fill="#FEC5A7"/>
<path d="M264.442 127.623C261.781 130.806 258.431 134.695 258.431 134.695C258.431 134.695 259.203 138.551 264.065 139.256C262.126 138.124 260.287 136.467 261.486 133.841C262.701 131.216 264.442 127.623 264.442 127.623Z" fill="#EFAE95"/>
<path d="M304.188 115.579C306.34 98.974 291.212 92.9029 291.212 92.9029C291.212 92.9029 294.694 91.8363 294.053 86.7661C291.573 88.1608 288.584 88.7351 285.759 88.3413C266.771 85.6996 254.632 88.3577 256.242 95.9056C256.817 98.5966 244.383 99.4663 249.195 117.302C250.46 115.268 251.823 107.49 255.601 105.915C259.396 104.34 256.948 110.345 265.407 109.722C273.949 109.098 279.615 105.8 285.676 109.393C290.505 112.626 295.893 133.153 295.565 134.531C296.353 131.381 303.252 122.881 304.188 115.579Z" fill="#181B47"/>
<path d="M247.933 130.396C247.933 130.396 249.181 139.962 251.152 142.588C251.76 138.518 260.646 141.439 264.539 141.931C271.586 142.834 279.01 136.845 281.03 146.214C292.873 147.888 294.072 127.426 294.072 127.426C295.255 143.178 289.144 163.64 265.837 162.59C250.824 161.9 244.763 144.721 247.933 130.396Z" fill="#181B47"/>
<path d="M250.344 121.929C250.755 121.978 251.182 121.798 251.445 121.453C252.168 120.485 252.989 119.944 253.86 119.845C255.371 119.681 256.734 120.813 256.75 120.83C257.26 121.256 258.015 121.207 258.442 120.698C258.869 120.19 258.82 119.435 258.327 119.008C258.245 118.926 256.192 117.17 253.613 117.449C252.036 117.614 250.657 118.483 249.507 120.026C249.113 120.551 249.211 121.322 249.753 121.716C249.934 121.831 250.147 121.913 250.344 121.929Z" fill="#181B47"/>
<path d="M279.023 123.456C279.286 123.472 279.565 123.39 279.795 123.226C280.337 122.832 280.452 122.078 280.058 121.536C278.563 119.501 276.855 118.336 274.983 118.123C272.568 117.828 270.843 119.255 270.778 119.321C270.269 119.748 270.203 120.502 270.63 121.011C271.057 121.52 271.813 121.585 272.322 121.159C272.355 121.126 273.389 120.338 274.736 120.519C275.902 120.666 277.052 121.487 278.12 122.964C278.317 123.275 278.662 123.44 279.023 123.456Z" fill="#181B47"/>
<path d="M294.283 127.509C291.162 130.249 290.456 134.531 292.69 137.091C294.94 139.651 299.293 139.487 302.414 136.747C305.535 134.006 306.241 129.724 304.007 127.164C301.757 124.621 297.404 124.768 294.283 127.509Z" fill="#FEC5A7"/>
<path d="M296.665 136.073C296.534 136.024 296.419 135.942 296.337 135.827C294.973 134.236 294.743 132.365 295.712 130.823C296.714 129.247 298.685 128.443 300.41 128.886C300.903 129.018 301.182 129.51 301.051 130.002C300.919 130.495 300.426 130.773 299.934 130.642C298.997 130.396 297.815 130.888 297.24 131.791C296.698 132.644 296.862 133.661 297.7 134.646C298.028 135.023 297.979 135.598 297.601 135.926C297.338 136.155 296.977 136.205 296.665 136.073Z" fill="#EFAE95"/>
<path d="M272.453 147.904C272.897 147.412 272.535 146.608 271.862 146.641C270.154 146.69 267.329 146.706 264.651 146.444C261.974 146.198 259.198 145.656 257.523 145.295C256.865 145.148 256.356 145.87 256.718 146.444C257.802 148.2 260.101 150.94 264.208 151.334C268.298 151.711 271.057 149.447 272.453 147.904Z" fill="white"/>
<path d="M270.679 128.165C269.956 126.902 270.4 125.294 271.664 124.572C272.929 123.85 274.539 124.293 275.261 125.556C275.984 126.82 275.541 128.428 274.276 129.15C273.028 129.855 271.418 129.429 270.679 128.165Z" fill="black"/>
<path d="M255.651 127.392C254.485 128.049 253.007 127.655 252.35 126.49C251.693 125.325 252.087 123.848 253.253 123.192C254.419 122.535 255.898 122.929 256.555 124.094C257.212 125.259 256.801 126.736 255.651 127.392Z" fill="black"/>
<path d="M358.417 250.178C356.446 261.303 347.987 262.255 345.474 262.222C342.731 262.173 339.248 263.157 338.394 265.274C337.507 267.456 337.327 269.671 335.339 269.507C332.563 269.294 333.319 262.091 338.444 260.466C338.444 260.466 334.403 261.68 333.598 264.092C332.728 266.734 332.071 268.703 330.461 268.884C329.59 268.982 328.605 268.244 328.572 267.03C327.816 268.096 325.796 269.376 325.188 267.899C323.283 263.174 325.008 255.97 331.643 252.639C322.922 253.575 324.285 261.188 321.69 262.025C320.129 262.517 319.489 260.614 319.472 259.268C319.456 254.969 321.985 251.031 325.78 249.013C329.59 246.995 336.111 246.503 339.363 249.341C339.363 249.341 344.735 249.833 345.934 246.306L358.417 250.178Z" fill="#FEC5A7"/>
<path d="M307.715 154.943C307.715 154.943 345.888 161.112 375.438 195.767C368.407 214.391 353.92 208.221 353.92 208.221L315.534 191.731C315.534 191.731 305.153 183.182 303.724 170.908C302.361 159.029 307.715 154.943 307.715 154.943Z" fill="#EA8249"/>
<path d="M343.077 245.797L355.873 207.368C355.873 207.368 355.314 193.979 375.435 195.751C378.934 205.399 381.02 224.925 358.534 250.998C352.588 250.67 343.077 245.797 343.077 245.797Z" fill="#EA8249"/>
</svg>
