<svg width="48" height="48" viewBox="0 0 48 48" fill="none" xmlns="http://www.w3.org/2000/svg">
<g clip-path="url(#clip0_387_25586)">
<path d="M19.2 25.5992H4V13.5992C4 13.1574 4.35817 12.7992 4.8 12.7992H7.2C7.64183 12.7992 8 12.441 8 11.9992C8 11.5574 7.64183 11.1992 7.2 11.1992H4.8C3.47452 11.1992 2.4 12.2737 2.4 13.5992V25.7128C0.991452 26.0765 0.00545186 27.3445 0 28.7992V38.3992C0 40.1665 1.43269 41.5992 3.2 41.5992H8V43.1992C6.67452 43.1992 5.6 44.2737 5.6 45.5992V46.3992C5.6 47.2829 6.31634 47.9992 7.2 47.9992H15.2C16.0837 47.9992 16.8 47.2829 16.8 46.3992V45.5992C16.8 44.2737 15.7255 43.1992 14.4 43.1992V41.5992H19.2C20.9673 41.5992 22.4 40.1665 22.4 38.3992V28.7992C22.4 27.0319 20.9673 25.5992 19.2 25.5992ZM14.4 44.7992C14.8418 44.7992 15.2 45.1574 15.2 45.5992V46.3992H7.2V45.5992C7.2 45.1574 7.55817 44.7992 8 44.7992C8.88366 44.7992 9.6 44.0829 9.6 43.1992V41.5992H12.8V43.1992C12.8 44.0829 13.5163 44.7992 14.4 44.7992ZM13.6 39.9992H7.2V39.1992C7.20062 37.9346 7.79927 36.7447 8.8144 35.9904C10.2217 37.0697 12.1783 37.0697 13.5856 35.9904C14.6007 36.7447 15.1994 37.9346 15.2 39.1992V39.9992H13.6ZM11.2 35.1992C9.87452 35.1992 8.8 34.1247 8.8 32.7992C8.8 31.4737 9.87452 30.3992 11.2 30.3992C12.5255 30.3992 13.6 31.4737 13.6 32.7992C13.6 34.1247 12.5255 35.1992 11.2 35.1992ZM20.8 38.3992C20.8 39.2829 20.0837 39.9992 19.2 39.9992H16.8V39.1992C16.7964 37.4794 16.0019 35.8568 14.6456 34.7992C15.0053 34.1939 15.1967 33.5034 15.2 32.7992C15.2 30.5901 13.4091 28.7992 11.2 28.7992C8.99086 28.7992 7.2 30.5901 7.2 32.7992C7.20328 33.5034 7.39469 34.1939 7.7544 34.7992C6.39811 35.8568 5.60362 37.4794 5.6 39.1992V39.9992H3.2C2.31634 39.9992 1.6 39.2829 1.6 38.3992V28.7992C1.6 27.9156 2.31634 27.1992 3.2 27.1992H19.2C20.0837 27.1992 20.8 27.9156 20.8 28.7992V38.3992Z" fill="#0D4EE3"/>
<path d="M45.5996 25.714V12.8004C45.5996 11.4749 44.5251 10.4004 43.1996 10.4004H39.1996C38.7578 10.4004 38.3996 10.7586 38.3996 11.2004C38.3996 11.6422 38.7578 12.0004 39.1996 12.0004H43.1996C43.6414 12.0004 43.9996 12.3586 43.9996 12.8004V25.6004H28.7996C27.0323 25.6004 25.5996 27.0331 25.5996 28.8004V38.4004C25.5996 40.1677 27.0323 41.6004 28.7996 41.6004H33.5996V43.2004C32.2741 43.2004 31.1996 44.2749 31.1996 45.6004V46.4004C31.1996 47.284 31.916 48.0004 32.7996 48.0004H40.7996C41.6833 48.0004 42.3996 47.284 42.3996 46.4004V45.6004C42.3996 44.2749 41.3251 43.2004 39.9996 43.2004V41.6004H44.7996C46.5669 41.6004 47.9996 40.1677 47.9996 38.4004V28.8004C47.9942 27.3457 47.0082 26.0777 45.5996 25.714ZM39.9996 44.8004C40.4414 44.8004 40.7996 45.1586 40.7996 45.6004V46.4004H32.7996V45.6004C32.7996 45.1586 33.1578 44.8004 33.5996 44.8004C34.4833 44.8004 35.1996 44.084 35.1996 43.2004V41.6004H38.3996V43.2004C38.3996 44.084 39.116 44.8004 39.9996 44.8004ZM39.1996 40.0004H32.7996V39.2004C32.8002 37.9357 33.3989 36.7458 34.414 35.9916C35.8213 37.0709 37.7779 37.0709 39.1852 35.9916C40.2003 36.7458 40.799 37.9357 40.7996 39.2004V40.0004H39.1996ZM36.7996 35.2004C35.4741 35.2004 34.3996 34.1259 34.3996 32.8004C34.3996 31.4749 35.4741 30.4004 36.7996 30.4004C38.1251 30.4004 39.1996 31.4749 39.1996 32.8004C39.1996 34.1259 38.1251 35.2004 36.7996 35.2004ZM46.3996 38.4004C46.3996 39.284 45.6833 40.0004 44.7996 40.0004H42.3996V39.2004C42.396 37.4805 41.6015 35.8579 40.2452 34.8004C40.6049 34.195 40.7963 33.5046 40.7996 32.8004C40.7996 30.5913 39.0087 28.8004 36.7996 28.8004C34.5905 28.8004 32.7996 30.5913 32.7996 32.8004C32.8036 33.5032 32.995 34.1922 33.354 34.7964C31.9966 35.8548 31.202 37.4791 31.1996 39.2004V40.0004H28.7996C27.916 40.0004 27.1996 39.284 27.1996 38.4004V28.8004C27.1996 27.9167 27.916 27.2004 28.7996 27.2004H44.7996C45.6833 27.2004 46.3996 27.9167 46.3996 28.8004V38.4004Z" fill="#0D4EE3"/>
<path d="M25.5996 0H11.9996C10.6741 0 9.59961 1.07452 9.59961 2.4V21.6C9.59961 22.9255 10.6741 24 11.9996 24H25.5996C26.9251 24 27.9996 22.9255 27.9996 21.6V20.9856L30.3196 23.3016C31.25 24.2307 32.7572 24.2307 33.6876 23.3016L39.3052 17.684C40.2339 16.7534 40.2339 15.2466 39.3052 14.316L33.6876 8.6984C32.757 7.76971 31.2502 7.76971 30.3196 8.6984L27.9996 11.0184V2.4C27.9996 1.07452 26.9251 0 25.5996 0ZM26.3996 21.6C26.3996 22.0418 26.0414 22.4 25.5996 22.4H11.9996C11.5578 22.4 11.1996 22.0418 11.1996 21.6V2.4C11.1996 1.95817 11.5578 1.6 11.9996 1.6H25.5996C26.0414 1.6 26.3996 1.95817 26.3996 2.4V12.6144L24.698 14.32C23.7693 15.2506 23.7693 16.7574 24.698 17.688L26.3996 19.3856V21.6ZM31.4468 9.8296C31.7523 9.52464 32.247 9.52464 32.5524 9.8296L38.17 15.4472C38.475 15.7526 38.475 16.2474 38.17 16.5528L32.5524 22.1704C32.247 22.4754 31.7523 22.4754 31.4468 22.1704L25.8292 16.5528C25.5242 16.2474 25.5242 15.7526 25.8292 15.4472L31.4468 9.8296Z" fill="#0D4EE3"/>
<path d="M19.5205 6.04148C19.3701 5.78926 19.0981 5.63477 18.8045 5.63477C18.5108 5.63477 18.2388 5.78926 18.0885 6.04148L15.2885 11.6415C15.176 11.8666 15.176 12.1315 15.2885 12.3567L18.0885 17.9567C18.2238 18.2282 18.5011 18.3998 18.8045 18.3998C19.1079 18.3998 19.3851 18.2282 19.5205 17.9567L22.3205 12.3567C22.433 12.1315 22.433 11.8666 22.3205 11.6415L19.5205 6.04148ZM18.8005 15.8103L16.8949 11.9991L18.8005 8.18788L20.7061 11.9991L18.8005 15.8103Z" fill="#0D4EE3"/>
<path d="M15.1998 19.1992H13.5998C13.158 19.1992 12.7998 19.5574 12.7998 19.9992C12.7998 20.441 13.158 20.7992 13.5998 20.7992H15.1998C15.6416 20.7992 15.9998 20.441 15.9998 19.9992C15.9998 19.5574 15.6416 19.1992 15.1998 19.1992Z" fill="#0D4EE3"/>
<path d="M24.7996 3.99922C24.7996 3.55739 24.4414 3.19922 23.9996 3.19922H22.3996C21.9578 3.19922 21.5996 3.55739 21.5996 3.99922C21.5996 4.44105 21.9578 4.79922 22.3996 4.79922H23.9996C24.4414 4.79922 24.7996 4.44105 24.7996 3.99922Z" fill="#0D4EE3"/>
<path d="M32.5658 16.565C32.7947 16.3362 32.8632 15.9921 32.7393 15.6931C32.6155 15.3942 32.3238 15.1992 32.0002 15.1992C31.6766 15.1992 31.3849 15.3942 31.2611 15.6931C31.1373 15.9921 31.2058 16.3362 31.4346 16.565C31.747 16.8773 32.2534 16.8773 32.5658 16.565Z" fill="#0D4EE3"/>
<path d="M35.766 16.565C35.9949 16.3362 36.0634 15.9921 35.9395 15.6931C35.8157 15.3942 35.524 15.1992 35.2004 15.1992C34.8768 15.1992 34.5851 15.3942 34.4613 15.6931C34.3375 15.9921 34.406 16.3362 34.6348 16.565C34.9472 16.8773 35.4536 16.8773 35.766 16.565Z" fill="#0D4EE3"/>
<path d="M32.5658 13.3658C32.7947 13.137 32.8632 12.7929 32.7393 12.4939C32.6155 12.1949 32.3238 12 32.0002 12C31.6766 12 31.3849 12.1949 31.2611 12.4939C31.1373 12.7929 31.2058 13.137 31.4346 13.3658C31.747 13.6781 32.2534 13.6781 32.5658 13.3658Z" fill="#0D4EE3"/>
<path d="M29.3656 16.565C29.5945 16.3362 29.663 15.9921 29.5391 15.6931C29.4153 15.3942 29.1236 15.1992 28.8 15.1992C28.4764 15.1992 28.1847 15.3942 28.0609 15.6931C27.9371 15.9921 28.0056 16.3362 28.2344 16.565C28.5468 16.8773 29.0532 16.8773 29.3656 16.565Z" fill="#0D4EE3"/>
<path d="M32.5658 19.7662C32.7947 19.5374 32.8632 19.1933 32.7393 18.8943C32.6155 18.5953 32.3238 18.4004 32.0002 18.4004C31.6766 18.4004 31.3849 18.5953 31.2611 18.8943C31.1373 19.1933 31.2058 19.5374 31.4346 19.7662C31.747 20.0785 32.2534 20.0785 32.5658 19.7662Z" fill="#0D4EE3"/>
</g>
<defs>
<clipPath id="clip0_387_25586">
<rect width="48" height="48" fill="white"/>
</clipPath>
</defs>
</svg>
