<svg width="48" height="48" viewBox="0 0 48 48" fill="none" xmlns="http://www.w3.org/2000/svg">
<g clip-path="url(#clip0_387_25569)">
<path d="M44 0H3.99999C1.79193 0.00260616 0.00260616 1.79193 0 3.99999V37.6C0.00260616 39.808 1.79193 41.5974 3.99999 41.6H15.9999V43.2H12.8C11.0327 43.2 9.6 44.6327 9.6 46.4C9.6 47.2836 10.3164 48 11.2 48H36.8C37.6836 48 38.4 47.2836 38.4 46.4C38.4 44.6327 36.9673 43.2 35.2 43.2H32V41.6H43.9999C46.208 41.5973 47.9973 39.808 47.9999 37.6V3.99999C47.9973 1.79193 46.208 0.00260616 44 0ZM3.99999 1.60003H43.9999C45.3254 1.60003 46.3999 2.67456 46.3999 3.99999V33.6H1.60003V3.99999C1.60003 2.67448 2.67448 1.60003 3.99999 1.60003ZM36.8 46.4H11.2C11.2 45.5163 11.9164 44.7999 12.8001 44.7999H35.2C36.0836 44.7999 36.8 45.5163 36.8 46.4ZM30.4 43.2H17.6V41.6H30.3999L30.4 43.2ZM44 39.9999H3.99999C2.67448 39.9999 1.60003 38.9254 1.60003 37.6V35.2H46.4V37.6C46.4001 38.9254 45.3254 39.9999 44 39.9999Z" fill="#0D4EE3"/>
<path fill-rule="evenodd" clip-rule="evenodd" d="M26.3998 36.7988H21.5998C21.158 36.7988 20.7998 37.157 20.7998 37.5988C20.7998 38.0407 21.158 38.3989 21.5998 38.3989H26.3998C26.8417 38.3989 27.1998 38.0407 27.1998 37.5988C27.1998 37.157 26.8417 36.7988 26.3998 36.7988Z" fill="#0D4EE3"/>
<path fill-rule="evenodd" clip-rule="evenodd" d="M4.00021 7.99846H44.0002C44.442 7.99846 44.8002 7.64031 44.8002 7.19845C44.8002 6.75659 44.442 6.39844 44.0002 6.39844H4.00021C3.55835 6.39844 3.2002 6.75659 3.2002 7.19845C3.2002 7.64031 3.55842 7.99846 4.00021 7.99846Z" fill="#0D4EE3"/>
<path d="M4.80001 4.79924C5.24185 4.79924 5.60003 4.44107 5.60003 3.99923C5.60003 3.5574 5.24185 3.19922 4.80001 3.19922C4.35818 3.19922 4 3.5574 4 3.99923C4 4.44107 4.35818 4.79924 4.80001 4.79924Z" fill="#0D4EE3"/>
<path d="M8.00021 4.79924C8.44204 4.79924 8.80022 4.44107 8.80022 3.99923C8.80022 3.5574 8.44204 3.19922 8.00021 3.19922C7.55837 3.19922 7.2002 3.5574 7.2002 3.99923C7.2002 4.44107 7.55837 4.79924 8.00021 4.79924Z" fill="#0D4EE3"/>
<path d="M11.2004 4.79924C11.6422 4.79924 12.0004 4.44107 12.0004 3.99923C12.0004 3.5574 11.6422 3.19922 11.2004 3.19922C10.7586 3.19922 10.4004 3.5574 10.4004 3.99923C10.4004 4.44107 10.7586 4.79924 11.2004 4.79924Z" fill="#0D4EE3"/>
<path d="M14.4002 31.9997H33.6002C39.7858 31.9997 44.8002 26.9852 44.8002 20.7996C44.8002 14.614 39.7858 9.59961 33.6002 9.59961H14.4002C8.21461 9.59961 3.2002 14.614 3.2002 20.7996C3.2002 26.9852 8.21461 31.9997 14.4002 31.9997ZM14.4002 11.1997H33.6002C38.9022 11.1997 43.2002 15.4978 43.2002 20.7997C43.2002 26.1017 38.9022 30.3997 33.6002 30.3997H14.4002C9.09826 30.3997 4.80022 26.1017 4.80022 20.7997C4.80022 15.4978 9.09826 11.1997 14.4002 11.1997Z" fill="#0D4EE3"/>
<path d="M22.3998 20.0001H25.5998C26.4835 20.0001 27.1998 19.2837 27.1998 18.4V13.6C27.1998 12.7164 26.4835 12 25.5998 12H22.3998C21.5162 12 20.7998 12.7164 20.7998 13.6V18.4C20.7998 19.2837 21.5163 20.0001 22.3998 20.0001ZM22.3998 13.6H25.5998V18.4H22.3998V13.6Z" fill="#0D4EE3"/>
<path d="M10.3998 22.4004H11.9999V25.6004C11.9999 26.4841 12.7162 27.2004 13.5999 27.2004H16.7999C17.6835 27.2004 18.3999 26.4841 18.3999 25.6004V20.8004C18.3999 19.9168 17.6835 19.2004 16.7999 19.2004H15.1998V16.0004C15.1998 15.1168 14.4835 14.4004 13.5998 14.4004H10.3998C9.51618 14.4004 8.7998 15.1168 8.7998 16.0004V20.8004C8.7998 21.6841 9.51618 22.4004 10.3998 22.4004ZM16.7998 20.8004V25.6004H13.5998V22.4004C14.4835 22.4004 15.1998 21.6841 15.1998 20.8004H16.7998ZM10.3998 16.0004H13.5998V20.8004H10.3998V16.0004Z" fill="#0D4EE3"/>
<path d="M31.1996 22.4004H32.7997V25.6004C32.7997 26.4841 33.516 27.2004 34.3997 27.2004H37.5997C38.4833 27.2004 39.1997 26.4841 39.1997 25.6004V20.8004C39.1997 19.9168 38.4833 19.2004 37.5997 19.2004H35.9996V16.0004C35.9996 15.1168 35.2833 14.4004 34.3996 14.4004H31.1996C30.316 14.4004 29.5996 15.1168 29.5996 16.0004V20.8004C29.5996 21.6841 30.316 22.4004 31.1996 22.4004ZM37.5997 20.8004V25.6004H34.3997V22.4004C35.2833 22.4004 35.9997 21.6841 35.9997 20.8004H37.5997ZM31.1996 16.0004H34.3996V20.8004H31.1996V16.0004Z" fill="#0D4EE3"/>
<path d="M22.3998 29.5997H25.5998C26.4835 29.5997 27.1998 28.8833 27.1998 27.9996V23.1996C27.1998 22.316 26.4835 21.5996 25.5998 21.5996H22.3998C21.5162 21.5996 20.7998 22.316 20.7998 23.1996V27.9996C20.7998 28.8834 21.5163 29.5997 22.3998 29.5997ZM22.3998 23.1997H25.5998V27.9997H22.3998V23.1997Z" fill="#0D4EE3"/>
</g>
<defs>
<clipPath id="clip0_387_25569">
<rect width="48" height="48" fill="white"/>
</clipPath>
</defs>
</svg>
