<svg width="48" height="48" viewBox="0 0 48 48" fill="none" xmlns="http://www.w3.org/2000/svg">
<g clip-path="url(#clip0_387_25600)">
<path d="M4.00003 45.6003H44.0001C46.2081 45.5976 47.9974 43.8083 48.0001 41.6002V39.2002C48.0001 38.3166 47.2837 37.6002 46.4001 37.6002H45.6V9.60027C45.6 8.27484 44.5254 7.20027 43.2 7.20027H35.7352C29.2205 0.80043 18.7794 0.80043 12.2648 7.20027H4.8C3.47456 7.20027 2.4 8.27484 2.4 9.60027V37.6003H1.60003C0.716344 37.6003 0 38.3166 0 39.2003V41.6003C0.002625 43.8083 1.79194 45.5976 4.00003 45.6003ZM30.54 32.9003L29.6216 30.6819C30.6459 30.1786 31.5986 29.541 32.4545 28.7859L34.1505 30.482C33.0685 31.4563 31.8528 32.2707 30.54 32.9003ZM18.94 33.5147L19.8584 31.2979C20.9374 31.6679 22.0614 31.8905 23.2 31.9595V34.3595C21.7456 34.2854 20.3096 34.0008 18.9368 33.5147H18.94ZM13.8496 30.4803L15.5456 28.7842C16.4015 29.5393 17.3542 30.1769 18.3785 30.6802L17.4601 32.8986C16.1472 32.2691 14.9315 31.4547 13.8496 30.4803ZM10.3 25.7395L12.5184 24.8203C13.0218 25.8446 13.6594 26.7973 14.4144 27.6531L12.7184 29.3492C11.7443 28.268 10.9299 27.0531 10.3 25.7412V25.7395ZM17.46 5.49955L18.3736 7.70671C17.7304 8.0234 17.1149 8.39343 16.5336 8.81315C16.488 8.81315 16.4448 8.79955 16.3984 8.79955C15.9357 8.80284 15.4813 8.92227 15.0768 9.14671L13.8496 7.92027C14.9311 6.94509 16.1469 6.13012 17.46 5.5003V5.49955ZM34.1504 7.92027L32.4544 9.6163C31.5985 8.86124 30.6458 8.22365 29.6215 7.7203L30.5399 5.5019C31.8528 6.13152 33.0685 6.94593 34.1504 7.92027ZM35.2 19.2003C35.1985 23.7281 32.471 27.8096 28.2881 29.5431C24.1053 31.2767 19.2902 30.3212 16.0862 27.1219C12.8822 23.9226 11.9198 19.1088 13.6473 14.9234L13.6521 14.9146V14.9034C13.8543 14.4218 14.0906 13.9553 14.3592 13.5074C15.0544 14.2579 16.1043 14.5681 17.0957 14.3159C18.0871 14.0637 18.8612 13.2896 19.1134 12.2982C19.3656 11.3068 19.0553 10.2569 18.3049 9.56174C18.7528 9.29315 19.2193 9.0568 19.7009 8.85459H19.7121H19.7184C23.1735 7.42518 27.1141 7.81424 30.2229 9.89174C33.3318 11.9692 35.1988 15.4612 35.2 19.2003ZM16.4 10.4003C17.0627 10.4003 17.6 10.9376 17.6 11.6003C17.6 12.2631 17.0627 12.8003 16.4 12.8003C15.7373 12.8003 15.2 12.2631 15.2 11.6003C15.2 10.9375 15.7373 10.4003 16.4 10.4003ZM28.1448 7.10268C27.0648 6.73237 25.9397 6.5098 24.8 6.44109V4.04109C26.2544 4.11515 27.6904 4.39968 29.0632 4.88587L28.1448 7.10268ZM23.2 6.43227C22.0586 6.49884 20.9314 6.71896 19.8488 7.08665L18.9368 4.88587C20.3096 4.39968 21.7456 4.11515 23.2 4.04109V6.43227ZM13.9472 10.2787C13.7225 10.6832 13.6031 11.1377 13.6 11.6003C13.6 11.6467 13.6112 11.69 13.6136 11.7355C13.194 12.3168 12.8239 12.9323 12.5072 13.5756L10.3 12.6611C10.9302 11.3481 11.7452 10.132 12.72 9.04996L13.9472 10.2787ZM9.68559 14.1371L11.8872 15.0491C11.5188 16.1316 11.2984 17.2588 11.232 18.4003H8.84081C8.91488 16.9459 9.19941 15.5099 9.68559 14.1371ZM11.2408 20.0003C11.3095 21.14 11.5321 22.2651 11.9024 23.3451L9.68559 24.2635C9.19941 22.8907 8.91488 21.4548 8.84081 20.0003H11.2408ZM24.8 31.9596C25.9396 31.8908 27.0648 31.6683 28.1448 31.298L29.0632 33.5148C27.6904 34.001 26.2544 34.2855 24.8 34.3596V31.9596ZM35.28 29.3507L33.584 27.6546C34.339 26.7988 34.9766 25.8461 35.48 24.8218L37.6984 25.741C37.0686 27.0535 36.2542 28.269 35.28 29.3507ZM38.3128 24.2635L36.096 23.3451C36.4669 22.2652 36.69 21.1401 36.7592 20.0003H39.1592C39.0851 21.4548 38.8005 22.8907 38.3144 24.2635H38.3128ZM36.7592 18.4003C36.6905 17.2607 36.4679 16.1355 36.0976 15.0555L38.3144 14.1371C38.8006 15.5099 39.0851 16.9459 39.1592 18.4003H36.7592ZM35.4792 13.5787C34.9759 12.5544 34.3383 11.6017 33.5832 10.7459L35.2793 9.04987C36.2534 10.1316 37.0678 11.347 37.6976 12.6594L35.4792 13.5787ZM4.00003 9.60027C4.00003 9.15843 4.35825 8.8003 4.8 8.8003H10.8312C8.47547 11.7544 7.19484 15.422 7.2 19.2003C7.2 28.4786 14.7217 36.0003 24 36.0003C33.2783 36.0003 40.8 28.4786 40.8 19.2003C40.8051 15.422 39.5245 11.7544 37.1688 8.8003H43.2C43.6418 8.8003 44 9.15852 44 9.60027V37.6003H4.00003V9.60027ZM32.4944 39.2003L31.92 40.358C31.7838 40.6305 31.5047 40.8021 31.2 40.8004H16.8C16.4968 40.8005 16.2195 40.6292 16.084 40.358L15.5056 39.2003H32.4944ZM1.60003 39.2003H13.7168L14.6528 41.0739C15.0573 41.8892 15.89 42.4036 16.8 42.4003H31.2C32.11 42.4036 32.9428 41.8892 33.3472 41.0739L34.2832 39.2003H46.4V41.6003C46.4 42.9258 45.3254 44.0003 44 44.0003H4.00003C2.67459 44.0003 1.60003 42.9258 1.60003 41.6003V39.2003Z" fill="#0D4EE3"/>
<path d="M4.00016 42.4007C4.44197 42.4007 4.80013 42.0426 4.80013 41.6007C4.80013 41.1589 4.44197 40.8008 4.00016 40.8008C3.55835 40.8008 3.2002 41.1589 3.2002 41.6007C3.2002 42.0426 3.55835 42.4007 4.00016 42.4007Z" fill="#0D4EE3"/>
<path d="M7.20036 42.4007C7.64217 42.4007 8.00033 42.0426 8.00033 41.6007C8.00033 41.1589 7.64217 40.8008 7.20036 40.8008C6.75855 40.8008 6.40039 41.1589 6.40039 41.6007C6.40039 42.0426 6.75855 42.4007 7.20036 42.4007Z" fill="#0D4EE3"/>
<path d="M10.3996 42.4007H11.9996C12.4415 42.4007 12.7996 42.0426 12.7996 41.6007C12.7996 41.1589 12.4414 40.8008 11.9996 40.8008H10.3996C9.95773 40.8008 9.59961 41.1589 9.59961 41.6007C9.59961 42.0426 9.95783 42.4007 10.3996 42.4007Z" fill="#0D4EE3"/>
<path d="M28.9468 18.3998H27.0859C26.7932 17.2803 25.919 16.4061 24.7996 16.1134V14.2526C25.9016 13.863 26.5626 12.7361 26.365 11.584C26.1674 10.4319 25.1685 9.58984 23.9996 9.58984C22.8307 9.58984 21.8318 10.4319 21.6342 11.584C21.4366 12.7361 22.0976 13.863 23.1996 14.2526V16.1134C22.0801 16.4061 21.2059 17.2803 20.9132 18.3998H19.0524C18.6628 17.2978 17.5359 16.6368 16.3838 16.8344C15.2317 17.032 14.3896 18.0309 14.3896 19.1998C14.3896 20.3687 15.2317 21.3676 16.3838 21.5652C17.5359 21.7628 18.6628 21.1018 19.0524 19.9998H20.9132C21.2059 21.1192 22.0801 21.9934 23.1996 22.2861V24.147C22.0976 24.5366 21.4366 25.6635 21.6342 26.8156C21.8318 27.9677 22.8307 28.8097 23.9996 28.8097C25.1685 28.8097 26.1674 27.9677 26.365 26.8156C26.5626 25.6635 25.9016 24.5366 24.7996 24.147V22.2861C25.919 21.9934 26.7932 21.1192 27.0859 19.9998H28.9468C29.3364 21.1018 30.4633 21.7628 31.6154 21.5652C32.7675 21.3676 33.6095 20.3687 33.6095 19.1998C33.6095 18.0309 32.7675 17.032 31.6154 16.8344C30.4634 16.6368 29.3364 17.2978 28.9468 18.3998ZM23.9996 11.1998C24.4414 11.1998 24.7996 11.558 24.7996 11.9998C24.7996 12.4415 24.4413 12.7998 23.9996 12.7998C23.5577 12.7998 23.1996 12.4416 23.1996 11.9998C23.1996 11.5579 23.5577 11.1998 23.9996 11.1998ZM16.7996 19.9998C16.3577 19.9998 15.9996 19.6417 15.9996 19.1999C15.9996 18.758 16.3578 18.3999 16.7996 18.3999C17.2413 18.3999 17.5996 18.7581 17.5996 19.1999C17.5996 19.6416 17.2414 19.9998 16.7996 19.9998ZM23.9996 27.1998C23.5577 27.1998 23.1996 26.8416 23.1996 26.3999C23.1996 25.958 23.5578 25.5999 23.9996 25.5999C24.4414 25.5999 24.7996 25.9581 24.7996 26.3999C24.7996 26.8416 24.4414 27.1998 23.9996 27.1998ZM23.9996 20.7998C23.1159 20.7998 22.3996 20.0835 22.3996 19.1998C22.3996 18.3161 23.1159 17.5998 23.9996 17.5998C24.8833 17.5998 25.5996 18.3161 25.5996 19.1998C25.5996 20.0835 24.8833 20.7998 23.9996 20.7998ZM31.9996 19.1998C31.9996 19.6416 31.6414 19.9998 31.1996 19.9998C30.7577 19.9998 30.3996 19.6416 30.3996 19.1998C30.3996 18.7579 30.7577 18.3998 31.1996 18.3998C31.6414 18.3998 31.9996 18.758 31.9996 19.1998Z" fill="#0D4EE3"/>
</g>
<defs>
<clipPath id="clip0_387_25600">
<rect width="48" height="48" fill="white"/>
</clipPath>
</defs>
</svg>
