<svg width="30" height="30" viewBox="0 0 30 30" fill="none" xmlns="http://www.w3.org/2000/svg">
<g clip-path="url(#clip0)">
<path d="M6.84565 8.15434L4.42954 5.73823C4.02686 5.33555 3.32216 5.33555 2.91948 5.83891C1.30874 7.953 0.302027 10.3691 1.30888e-05 12.8859C-0.100658 13.5906 0.402698 14.0939 1.00672 14.0939H4.32887C4.83223 14.0939 5.23491 13.7919 5.33558 13.2886C5.53693 11.8792 6.14095 10.5704 6.94632 9.3624C7.24834 8.95971 7.14766 8.45636 6.84565 8.15434Z" fill="#0A4586"/>
<path d="M14.0939 4.32881V1.00666C14.0939 0.402637 13.5906 -0.100719 12.8859 -4.79463e-05C10.2684 0.301966 7.85233 1.30868 5.83891 2.91942C5.33555 3.3221 5.33555 4.0268 5.73823 4.42948L8.15434 6.84559C8.45636 7.1476 9.06038 7.24827 9.46307 6.94626C10.6711 6.14089 11.9798 5.53687 13.3892 5.33552C13.7919 5.23485 14.0939 4.83217 14.0939 4.32881Z" fill="#0A4586"/>
<path d="M24.161 2.91942C22.0469 1.30868 19.6308 0.301966 17.1141 -4.79463e-05C16.51 -0.100719 15.906 0.402637 15.906 1.00666V4.32881C15.906 4.83217 16.208 5.23485 16.7114 5.33552C18.1208 5.53687 19.4295 6.14089 20.6375 6.94626C21.0402 7.24827 21.5436 7.1476 21.9463 6.84559L24.3624 4.42948C24.6644 4.0268 24.6644 3.3221 24.161 2.91942Z" fill="#0A4586"/>
<path d="M4.32887 15.906H1.00672C0.402698 15.906 -0.100658 16.4094 1.30888e-05 17.1141C0.302027 19.7315 1.30874 22.1476 2.91948 24.161C3.32216 24.6644 4.02686 24.7651 4.42954 24.2617L6.84565 21.8456C7.14766 21.5436 7.24834 20.9396 6.94632 20.5369C6.14095 19.3288 5.53693 18.0201 5.33558 16.6107C5.23491 16.208 4.83223 15.906 4.32887 15.906Z" fill="#0A4586"/>
<path d="M25.6711 14.094H28.9933C29.5973 14.094 30.1007 13.5906 30 12.8859C29.698 10.2685 28.6913 7.85237 27.0805 5.83895C26.6779 5.3356 25.9732 5.23492 25.5705 5.73828L23.1544 8.15439C22.8524 8.4564 22.7517 9.06043 23.0537 9.46311C23.8591 10.6712 24.4631 11.9799 24.6644 13.3893C24.7651 13.792 25.1678 14.094 25.6711 14.094Z" fill="#0A4586"/>
<path d="M5.83891 27.0805C7.95301 28.6913 10.3691 29.698 12.8859 30C13.4899 30.1007 14.0939 29.5973 14.0939 28.9933V25.6711C14.0939 25.1678 13.7919 24.7651 13.2886 24.6644C11.8792 24.4631 10.5705 23.8591 9.3624 23.0537C8.95972 22.7517 8.45636 22.8524 8.05368 23.1544L5.63757 25.5705C5.33556 25.9732 5.33556 26.6779 5.83891 27.0805Z" fill="#0A4586"/>
<path d="M23.1544 21.8456L25.5705 24.2617C25.9732 24.6644 26.6779 24.6644 27.0805 24.161C28.6913 22.0469 29.698 19.6308 30 17.1141C30.1007 16.51 29.5973 15.906 28.9933 15.906H25.6711C25.1678 15.906 24.7651 16.208 24.6644 16.7114C24.4631 18.1208 23.8591 19.4295 23.0537 20.6375C22.7517 21.0402 22.8524 21.5436 23.1544 21.8456Z" fill="#0A4586"/>
<path d="M15.906 25.6711V28.9933C15.906 29.5973 16.4094 30.1007 17.1141 30C19.7315 29.698 22.1476 28.6913 24.161 27.0805C24.6644 26.6779 24.7651 25.9732 24.2617 25.5705L21.8456 23.1544C21.5436 22.8524 20.9396 22.7517 20.5369 23.0537C19.3288 23.8591 18.0201 24.4631 16.6107 24.6644C16.208 24.7651 15.906 25.1678 15.906 25.6711Z" fill="#0A4586"/>
<path d="M15 15.9061C15.5004 15.9061 15.906 15.5004 15.906 15C15.906 14.4996 15.5004 14.094 15 14.094C14.4996 14.094 14.0939 14.4996 14.0939 15C14.0939 15.5004 14.4996 15.9061 15 15.9061Z" fill="#FF3333"/>
<path d="M20.6376 9.36245C17.5168 6.24165 12.4832 6.24165 9.36239 9.36245C6.24159 12.4833 6.24159 17.5168 9.36239 20.6376C12.4832 23.7584 17.5168 23.7584 20.6376 20.6376C23.7584 17.5168 23.7584 12.4833 20.6376 9.36245ZM19.4295 15.9061H17.5168C17.2147 16.7114 16.6107 17.2148 15.906 17.5168V19.4296H14.0939V17.5168C13.2886 17.2148 12.7852 16.6108 12.4832 15.9061H10.5704V14.094H12.4832C12.7852 13.2886 13.3892 12.7853 14.0939 12.4833V10.5705H15.906V12.4833C16.7114 12.7853 17.2147 13.3893 17.5168 14.094H19.4295V15.9061Z" fill="#FF3333"/>
</g>
<defs>
<clipPath id="clip0">
<rect width="30" height="30" fill="white"/>
</clipPath>
</defs>
</svg>
