<svg width="79" height="24" viewBox="0 0 79 24" fill="none" xmlns="http://www.w3.org/2000/svg">
<path d="M49.0639 18.7687C44.4814 22.1799 37.8394 23.9999 32.1207 23.9999C24.1022 23.9999 16.8835 21.0047 11.4223 16.0231C10.9932 15.6313 11.3776 15.0975 11.8925 15.4025C17.7863 18.8658 25.0736 20.9492 32.6013 20.9492C37.678 20.9492 43.2628 19.8884 48.398 17.6871C49.1737 17.3543 49.8225 18.2002 49.0639 18.7687Z" fill="#FF9900"/>
<path d="M50.969 16.5673C50.3854 15.8115 47.097 16.2102 45.621 16.387C45.1713 16.4425 45.1027 16.0473 45.5077 15.763C48.1268 13.9014 52.4244 14.4387 52.9255 15.0627C53.4267 15.6902 52.7951 20.0409 50.3339 22.1174C49.9563 22.4364 49.5959 22.2665 49.7641 21.8436C50.3168 20.45 51.5559 17.3265 50.969 16.5673Z" fill="#FF9900"/>
<path d="M45.7241 2.6211V0.811485C45.7241 0.537616 45.9301 0.353882 46.1772 0.353882H54.1991C54.4566 0.353882 54.6625 0.541083 54.6625 0.811485V2.3611C54.6591 2.6211 54.4429 2.96083 54.0584 3.49817L49.9016 9.49209C51.4462 9.45395 53.0767 9.68622 54.4772 10.4836C54.793 10.6638 54.8788 10.9273 54.9028 11.1873V13.1182C54.9028 13.3817 54.6145 13.6903 54.3124 13.5308C51.8444 12.2238 48.5663 12.0817 45.8374 13.5447C45.5593 13.6972 45.2676 13.3921 45.2676 13.1286V11.2948C45.2676 11.0001 45.271 10.4974 45.5628 10.0502L50.3787 3.07524H46.1875C45.9301 3.07524 45.7241 2.8915 45.7241 2.6211Z" fill="#221F1F"/>
<path d="M16.4624 13.9117H14.0219C13.7885 13.8944 13.6031 13.7176 13.5859 13.4923V0.84229C13.5859 0.589222 13.7953 0.388152 14.0562 0.388152H16.332C16.5688 0.398545 16.7576 0.582286 16.7748 0.811088V2.4647H16.8194C17.4133 0.866555 18.5288 0.121216 20.0323 0.121216C21.5598 0.121216 22.5141 0.866555 23.2006 2.4647C23.791 0.866555 25.1331 0.121216 26.5714 0.121216C27.5943 0.121216 28.7133 0.547619 29.3964 1.50443C30.1687 2.5687 30.0108 4.11485 30.0108 5.47033L30.0074 13.4541C30.0074 13.7072 29.798 13.9117 29.5371 13.9117H27.1C26.8563 13.8944 26.6606 13.6968 26.6606 13.4541V6.74954C26.6606 6.21566 26.7087 4.88445 26.592 4.37832C26.41 3.52898 25.8643 3.28977 25.1571 3.28977C24.5667 3.28977 23.9489 3.68844 23.6983 4.32632C23.4477 4.96419 23.4718 6.03193 23.4718 6.74954V13.4541C23.4718 13.7072 23.2624 13.9117 23.0015 13.9117H20.5644C20.3172 13.8944 20.125 13.6968 20.125 13.4541L20.1216 6.74954C20.1216 5.33859 20.3515 3.26204 18.6181 3.26204C16.864 3.26204 16.9327 5.28659 16.9327 6.74954V13.4541C16.9327 13.7072 16.7233 13.9117 16.4624 13.9117Z" fill="#221F1F"/>
<path d="M61.5683 0.121277C65.1897 0.121277 67.1497 3.2621 67.1497 7.25573C67.1497 11.1142 64.9837 14.1753 61.5683 14.1753C58.0121 14.1753 56.0762 11.0344 56.0762 7.12053C56.0762 3.18237 58.0362 0.121277 61.5683 0.121277ZM61.5889 2.70396C59.7902 2.70396 59.6769 5.17918 59.6769 6.72186C59.6769 8.26801 59.6529 11.5683 61.5683 11.5683C63.4596 11.5683 63.5489 8.90588 63.5489 7.28346C63.5489 6.21572 63.5043 4.93998 63.185 3.92771C62.9104 3.04717 62.3647 2.70396 61.5889 2.70396Z" fill="#221F1F"/>
<path d="M71.8457 13.9118H69.4155C69.1717 13.8945 68.9761 13.6969 68.9761 13.4542L68.9727 0.800749C68.9933 0.56848 69.1958 0.388213 69.4429 0.388213H71.705C71.9178 0.398606 72.0929 0.544214 72.1409 0.741816V2.67623H72.1855C72.8686 0.94635 73.8263 0.121277 75.5117 0.121277C76.6067 0.121277 77.6742 0.519947 78.3607 1.61195C78.9992 2.62423 78.9992 4.32638 78.9992 5.55012V13.5131C78.9718 13.735 78.7692 13.9118 78.5289 13.9118H76.0815C75.8584 13.8945 75.673 13.7281 75.649 13.5131V6.64213C75.649 5.25892 75.8069 3.23437 74.1215 3.23437C73.5277 3.23437 72.9819 3.63651 72.7107 4.24664C72.3675 5.01972 72.3229 5.78932 72.3229 6.64213V13.4542C72.3194 13.7073 72.1066 13.9118 71.8457 13.9118Z" fill="#221F1F"/>
<path d="M7.33382 7.8694V7.33553C5.56948 7.33553 3.70559 7.71686 3.70559 9.81768C3.70559 10.882 4.25137 11.603 5.18846 11.603C5.87498 11.603 6.48941 11.1766 6.87729 10.4833C7.35785 9.63048 7.33382 8.82967 7.33382 7.8694ZM9.79498 13.8772C9.63365 14.0228 9.40023 14.0332 9.21831 13.9361C8.40822 13.2566 8.26405 12.9412 7.81782 12.2929C6.47911 13.6726 5.53172 14.0852 3.79484 14.0852C1.74216 14.0852 0.142578 12.806 0.142578 10.2441C0.142578 8.2438 1.21697 6.88139 2.74447 6.21578C4.06944 5.62644 5.9196 5.52244 7.33382 5.35951V5.04057C7.33382 4.4547 7.37845 3.76136 7.03862 3.25523C6.73999 2.80109 6.17018 2.61389 5.66902 2.61389C4.7388 2.61389 3.90811 3.09576 3.70559 4.09416C3.6644 4.31603 3.50307 4.53444 3.28338 4.54484L0.914908 4.2883C0.715818 4.24324 0.496133 4.0803 0.551054 3.77176C1.09683 0.873609 3.68843 0 6.00885 0C7.19652 0 8.74804 0.318936 9.68514 1.22721C10.8728 2.34695 10.7595 3.8411 10.7595 5.46698V9.30807C10.7595 10.4625 11.2332 10.9686 11.6795 11.5926C11.8374 11.8145 11.8717 12.0814 11.6726 12.2478C11.1749 12.6673 10.2893 13.4473 9.80184 13.8841L9.79498 13.8772" fill="#221F1F"/>
<path d="M38.9715 7.8694V7.33553C37.2072 7.33553 35.3433 7.71686 35.3433 9.81768C35.3433 10.882 35.8891 11.603 36.8262 11.603C37.5127 11.603 38.1271 11.1766 38.515 10.4833C38.9955 9.63048 38.9715 8.82967 38.9715 7.8694ZM41.4327 13.8772C41.2713 14.0228 41.0379 14.0332 40.856 13.9361C40.0459 13.2566 39.9017 12.9412 39.4555 12.2929C38.1168 13.6726 37.1694 14.0852 35.4325 14.0852C33.3799 14.0852 31.7803 12.806 31.7803 10.2441C31.7803 8.2438 32.8547 6.88139 34.3822 6.21578C35.7071 5.62644 37.5573 5.52244 38.9715 5.35951V5.04057C38.9715 4.4547 39.0161 3.76136 38.6763 3.25523C38.3777 2.80109 37.8079 2.61389 37.3067 2.61389C36.3765 2.61389 35.5458 3.09576 35.3433 4.09416C35.3021 4.31603 35.1408 4.53444 34.9211 4.54484L32.5526 4.2883C32.3535 4.24324 32.1338 4.0803 32.1887 3.77176C32.7345 0.873609 35.3261 0 37.6465 0C38.8342 0 40.3857 0.318936 41.3228 1.22721C42.5105 2.34695 42.3972 3.8411 42.3972 5.46698V9.30807C42.3972 10.4625 42.8709 10.9686 43.3172 11.5926C43.4751 11.8145 43.5094 12.0814 43.3103 12.2478C42.8126 12.6673 41.927 13.4473 41.4395 13.8841L41.4327 13.8772" fill="#221F1F"/>
</svg>
