<svg width="44" height="32" viewBox="0 0 44 32" fill="none" xmlns="http://www.w3.org/2000/svg">
<rect x="0.5" y="0.5" width="43" height="31" rx="3.5" fill="#1F72CD"/>
<rect x="0.5" y="0.5" width="43" height="31" rx="3.5" stroke="#1F72CD"/>
<path fill-rule="evenodd" clip-rule="evenodd" d="M7.77387 11.332L3.7168 20.9944H8.57368L9.17579 19.4538H10.5521L11.1542 20.9944H16.5003V19.8185L16.9766 20.9944H19.742L20.2184 19.7937V20.9944H31.3367L32.6887 19.4938L33.9546 20.9944L39.6652 21.0068L35.5953 16.1902L39.6652 11.332H34.0431L32.7271 12.8049L31.5011 11.332H19.4058L18.3671 13.826L17.3041 11.332H12.4574V12.4678L11.9182 11.332H7.77387ZM8.71407 12.7031H11.0815L13.7726 19.2552V12.7031H16.3661L18.4446 17.4009L20.3602 12.7031H22.9407V19.6365H21.3705L21.3577 14.2035L19.0685 19.6365H17.6639L15.3619 14.2035V19.6365H12.1317L11.5193 18.0821H8.21081L7.59969 19.6351H5.86897L8.71407 12.7031ZM30.762 12.7031H24.3773V19.6324H30.6631L32.6891 17.3359L34.6419 19.6324H36.6833L33.7162 16.1878L36.6833 12.7031H34.7305L32.7148 14.9732L30.762 12.7031ZM9.86593 13.875L8.7759 16.644H10.9547L9.86593 13.875ZM25.9522 15.4075V14.1418V14.1406H29.936L31.6744 16.1648L29.859 18.2H25.9522V16.8182H29.4353V15.4075H25.9522Z" fill="white"/>
</svg>
