<svg width="24" height="24" viewBox="0 0 24 24" fill="none" xmlns="http://www.w3.org/2000/svg">
<path d="M17.27 6.20694C18.2632 5.11955 18.8728 3.73673 19.0056 2.27002C19.0441 1.96758 19.0129 1.66033 18.9144 1.3718C18.8159 1.08327 18.6527 0.821104 18.4372 0.605373C18.2218 0.389641 17.9598 0.226064 17.6714 0.127163C17.383 0.0282616 17.0758 -0.00334114 16.7733 0.0347738C15.8636 0.10622 14.9802 0.37404 14.1839 0.819783C13.3876 1.26553 12.6975 1.8786 12.161 2.61675C11.8213 1.76679 11.3409 0.980069 10.7401 0.289574C10.5536 0.104748 10.3019 0.000728146 10.0394 3.80826e-06C9.77684 -0.000720529 9.52456 0.101909 9.33709 0.285703C9.14962 0.469498 9.04202 0.71969 9.03755 0.982189C9.03307 1.24469 9.13209 1.4984 9.31319 1.68848C10.3038 2.92194 10.8834 4.43452 10.9709 6.01409H8.5308C6.21352 6.0849 4.01869 7.07099 2.42685 8.75647C0.835007 10.442 -0.0241591 12.6895 0.0374523 15.007C-0.123422 20.6027 5.67703 25.7716 10.779 23.3855C11.1687 23.1377 11.6216 23.0077 12.0833 23.0111C12.5451 23.0144 12.996 23.151 13.382 23.4045C14.0343 23.7816 14.7719 23.9866 15.5253 24C25.7813 23.7162 27.0823 8.59407 17.27 6.20694ZM14.2493 3.18431C15.0244 2.50654 15.9976 2.0972 17.0241 2.01722C16.9422 3.04158 16.5334 4.01254 15.8581 4.78705C15.0823 5.46441 14.1089 5.87367 13.0822 5.95414C13.1634 4.92941 13.5727 3.95812 14.2493 3.18431ZM15.5253 22.0016C15.085 21.9846 14.6566 21.8534 14.2823 21.6209C13.5964 21.2247 12.8201 21.0117 12.0281 21.0023C11.2782 21.0198 10.5444 21.2234 9.89273 21.5949C6.03775 23.2616 1.93596 19.1448 2.03589 15.007C1.97427 13.2195 2.6229 11.4802 3.83998 10.1695C5.05705 8.85882 6.74357 8.0833 8.5308 8.01252H15.5253C24.1186 8.33327 24.1186 21.6838 15.5253 22.0016Z" fill="#50B1AF"/>
</svg>
