<svg width="32" height="23" viewBox="0 0 32 23" fill="none" xmlns="http://www.w3.org/2000/svg">
<path d="M8.96874 16.082H6.2763C5.98523 16.082 5.74873 15.8455 5.74873 15.5544V13.9353H4.12962C3.83855 13.9353 3.60205 13.6988 3.60205 13.4077V10.7153C3.60205 10.4242 3.83855 10.1877 4.12962 10.1877H5.74873V8.56859C5.74873 8.27751 5.98523 8.04102 6.2763 8.04102H8.96874C9.25982 8.04102 9.49632 8.27751 9.49632 8.56859V10.1877H11.1154C11.4065 10.1877 11.643 10.4242 11.643 10.7153V13.4077C11.643 13.6988 11.4065 13.9353 11.1154 13.9353H9.49632V15.5544C9.49632 15.8455 9.25982 16.082 8.96874 16.082ZM6.80387 15.0268H8.44117V13.4077C8.44117 13.1166 8.67767 12.8801 8.96874 12.8801H10.5878V11.2428H8.96874C8.67767 11.2428 8.44117 11.0063 8.44117 10.7153V9.09616H6.80387V10.7153C6.80387 11.0063 6.56738 11.2428 6.2763 11.2428H4.6572V12.8801H6.2763C6.56738 12.8801 6.80387 13.1166 6.80387 13.4077V15.0268Z" fill="#359D9E"/>
<path d="M23.304 15.6635H13.9714C13.6803 15.6635 13.4438 15.427 13.4438 15.136C13.4438 14.8449 13.6803 14.6084 13.9714 14.6084H23.304C23.5951 14.6084 23.8316 14.8449 23.8316 15.136C23.8316 15.427 23.5951 15.6635 23.304 15.6635Z" fill="#359D9E"/>
<path d="M23.304 12.3886H13.9714C13.6803 12.3886 13.4438 12.1521 13.4438 11.8611C13.4438 11.57 13.6803 11.3335 13.9714 11.3335H23.304C23.5951 11.3335 23.8316 11.57 23.8316 11.8611C23.8316 12.1521 23.5951 12.3886 23.304 12.3886Z" fill="#359D9E"/>
<path d="M23.3041 18.9018H4.14769C3.85662 18.9018 3.62012 18.6653 3.62012 18.3743C3.62012 18.0832 3.85662 17.8467 4.14769 17.8467H23.3041C23.5951 17.8467 23.8316 18.0832 23.8316 18.3743C23.8316 18.6653 23.5951 18.9018 23.3041 18.9018Z" fill="#359D9E"/>
<path d="M23.304 9.11423H13.9714C13.6803 9.11423 13.4438 8.87773 13.4438 8.58666C13.4438 8.29558 13.6803 8.05908 13.9714 8.05908H23.304C23.5951 8.05908 23.8316 8.29558 23.8316 8.58666C23.8316 8.87773 23.5951 9.11423 23.304 9.11423Z" fill="#359D9E"/>
<path d="M31.1633 16.5367C31.0542 16.5367 30.945 16.5003 30.8359 16.4275C30.5994 16.2456 30.563 15.9182 30.7449 15.6998C30.8723 15.5179 30.945 15.3178 30.945 15.0995V2.05572C30.945 1.50995 30.5084 1.05515 29.9445 1.05515H7.14968C6.89499 1.05515 6.65849 1.14611 6.47657 1.30984C6.25826 1.50995 5.9308 1.49176 5.73069 1.27345C5.53058 1.05515 5.54877 0.727687 5.76708 0.527573C6.14911 0.181922 6.6403 0 7.14968 0H29.9627C31.0906 0 32.0002 0.909609 32.0002 2.03752V15.0631C32.0002 15.5179 31.8547 15.9545 31.5818 16.3184C31.4726 16.4457 31.3271 16.5185 31.1633 16.5185V16.5367Z" fill="#359D9E"/>
<path d="M24.8687 22.067H2.03752C0.909609 22.067 0 21.1573 0 20.0294V7.00383C0 5.87592 0.909609 4.96631 2.03752 4.96631H24.8687C25.9966 4.96631 26.9062 5.87592 26.9062 7.00383V20.0294C26.9062 21.1573 25.9966 22.067 24.8687 22.067ZM2.03752 6.00326C1.49176 6.00326 1.03695 6.45807 1.03695 7.00383V20.0294C1.03695 20.5752 1.49176 21.03 2.03752 21.03H24.8687C25.4145 21.03 25.8693 20.5934 25.8693 20.0294V7.00383C25.8693 6.45807 25.4327 6.00326 24.8687 6.00326H2.03752Z" fill="#359D9E"/>
<path d="M28.416 19.229C28.2704 19.229 28.1249 19.1744 28.0157 19.0471C27.8156 18.8288 27.8338 18.5013 28.0521 18.3012C28.2704 18.1193 28.3796 17.8464 28.3796 17.5553V4.52971C28.3796 3.98395 27.943 3.52914 27.379 3.52914H4.6024C4.34771 3.52914 4.09302 3.6201 3.9111 3.80202C3.71099 4.00214 3.36534 4.00214 3.16522 3.80202C2.96511 3.60191 2.96511 3.25626 3.16522 3.05614C3.54726 2.6923 4.05664 2.49219 4.58421 2.49219H27.4154C28.5433 2.49219 29.4529 3.4018 29.4529 4.52971V17.5553C29.4529 18.1375 29.1982 18.7014 28.7616 19.0834C28.6707 19.1744 28.5433 19.2108 28.416 19.2108V19.229Z" fill="#359D9E"/>
</svg>
