<svg width="42" height="42" viewBox="0 0 42 42" fill="none" xmlns="http://www.w3.org/2000/svg">
<g clip-path="url(#clip0)">
<path d="M20.927 33.8569C21.3198 33.8594 21.6303 34.1739 21.6279 34.5578L21.6163 36.3881C21.6146 36.6471 21.7471 36.8801 21.9695 37.0065C23.028 37.6293 23.3585 39.0153 22.6644 40.0556C22.0694 40.9447 20.8799 41.2586 19.9277 40.7704C18.8151 40.2097 18.4221 38.8322 19.036 37.7736C19.2256 37.4444 19.4951 37.1782 19.8267 36.9929C20.0507 36.8693 20.1861 36.6291 20.1877 36.3791L20.1993 34.5487C20.2018 34.1559 20.5252 33.8544 20.9091 33.8568C20.9091 33.8568 20.918 33.8569 20.927 33.8569C20.918 33.8569 20.918 33.8569 20.927 33.8569Z" fill="#B32D11"/>
<path d="M16.7004 23.1157C15.513 23.1081 14.5515 24.0574 14.544 25.2449C14.5364 26.4323 15.4857 27.3937 16.6732 27.4013C17.8607 27.4088 18.8221 26.4596 18.8296 25.2721C18.8372 24.0846 17.879 23.1232 16.7004 23.1157Z" fill="#0A4586"/>
<path d="M37.4901 28.1765C36.8318 27.7884 36.0104 27.7831 35.3473 28.1629C35.1233 28.2864 34.8554 28.2847 34.633 28.1583L33.0496 27.2286C32.7205 27.0301 32.2912 27.1434 32.0926 27.4814C32.0836 27.4903 32.0836 27.4992 32.0746 27.5081C31.8761 27.8372 31.9894 28.2665 32.3275 28.4651L33.9109 29.3948C34.1333 29.5212 34.2657 29.7631 34.2641 30.0131C34.2592 30.781 34.6654 31.4889 35.3237 31.8771C36.3821 32.5177 37.7864 32.1338 38.3561 31.0035C38.7902 30.1401 38.5826 29.0763 37.8545 28.4377C37.7391 28.3388 37.6147 28.2487 37.4901 28.1765Z" fill="#B32D11"/>
<path d="M9.81635 27.3399C9.62208 26.9994 9.1942 26.8895 8.86266 27.0749L7.26756 27.9845C7.04355 28.108 6.7757 28.1063 6.55329 27.9799C5.46805 27.3391 4.0456 27.7765 3.51128 28.9606C3.26675 29.5037 3.26278 30.1287 3.50044 30.6659C4.01967 31.8568 5.43644 32.3122 6.52974 31.6852C7.19288 31.3055 7.60807 30.6028 7.61295 29.8349C7.61459 29.576 7.74999 29.3447 7.974 29.2211L9.5691 28.3116C9.90962 28.1173 10.0195 27.6894 9.83409 27.3579C9.82516 27.3578 9.82522 27.3489 9.81635 27.3399Z" fill="#B32D11"/>
<path d="M4.50924 13.8237C5.16751 14.2118 5.98892 14.217 6.65206 13.8373C6.87606 13.7137 7.14391 13.7154 7.36633 13.8419L8.94087 14.7626C9.26997 14.9611 9.69927 14.8478 9.89785 14.5097C9.90684 14.5009 9.90689 14.4919 9.91588 14.4831C10.1144 14.154 10.0011 13.7247 9.66303 13.5261L8.07956 12.6053C7.85714 12.4789 7.72475 12.237 7.72634 11.987C7.73122 11.2191 7.325 10.5112 6.66674 10.123C5.65276 9.50945 4.33819 9.83146 3.72459 10.8454C3.11099 11.8594 3.43299 13.174 4.44697 13.7876C4.46477 13.7966 4.48257 13.8057 4.50924 13.8237Z" fill="#B32D11"/>
<path d="M32.1746 14.6513C32.3688 14.9918 32.7967 15.1017 33.1283 14.9163L34.7234 14.0068C34.9474 13.8832 35.2152 13.8849 35.4376 14.0113C36.4606 14.6071 37.7753 14.2672 38.3711 13.2442C38.7592 12.5859 38.7645 11.7645 38.3847 11.1014C37.802 10.0709 36.4917 9.71433 35.4612 10.2971C34.7981 10.6768 34.3829 11.3795 34.378 12.1474C34.3764 12.4063 34.241 12.6376 34.017 12.7612L32.4219 13.6707C32.0813 13.865 31.9715 14.2928 32.1569 14.6244C32.1657 14.6423 32.1746 14.6513 32.1746 14.6513Z" fill="#B32D11"/>
<path d="M20.0302 4.99362C20.2526 5.12004 20.385 5.36196 20.3834 5.61195L20.3718 7.43334C20.3693 7.82619 20.6888 8.1318 21.0728 8.13424L21.0817 8.1343L21.0906 8.13436C21.4835 8.13685 21.7979 7.82635 21.8004 7.44242L21.812 5.62103C21.8136 5.36211 21.949 5.13082 22.173 5.00724C23.2394 4.39794 23.5875 3.01619 22.9066 1.9672C22.323 1.07062 21.1376 0.741648 20.1792 1.21771C19.0596 1.76418 18.6491 3.13659 19.2495 4.20293C19.4349 4.52555 19.701 4.80403 20.0302 4.99362Z" fill="#B32D11"/>
<path d="M39.9399 19.2634C38.9169 18.6676 37.6022 19.0074 37.0064 20.0304C36.88 20.2529 36.6381 20.3852 36.3881 20.3837L33.0578 20.3625C32.6917 20.3602 32.3898 20.0904 32.3565 19.7241C32.0012 16.6146 30.3942 13.774 27.8973 11.8831C27.6129 11.667 27.5262 11.2646 27.7157 10.9533L29.3946 8.08896C29.521 7.86655 29.763 7.73415 30.013 7.73574C30.7808 7.74062 31.4888 7.3344 31.8769 6.67614C32.4727 5.65312 32.1328 4.33843 31.1098 3.74263C30.4515 3.35451 29.6301 3.34929 28.967 3.72901C27.9365 4.31176 27.5799 5.62202 28.1627 6.65253C28.2862 6.87653 28.2845 7.14439 28.1581 7.3668L26.4792 10.2312C26.2986 10.5425 25.9049 10.674 25.5755 10.5201C22.6995 9.26965 19.4406 9.24893 16.5579 10.4628C16.2266 10.6035 15.8345 10.476 15.658 10.1624L14.0156 7.27691C13.892 7.05291 13.8937 6.78506 14.0201 6.56264C14.4082 5.90438 14.4134 5.08297 14.0337 4.41983C13.451 3.38932 12.1407 3.03277 11.1102 3.61551C10.0797 4.19826 9.72314 5.50852 10.3059 6.53903C10.6856 7.20217 11.3883 7.61736 12.1562 7.62224C12.4151 7.62389 12.6464 7.75929 12.77 7.9833L14.4124 10.8688C14.589 11.1824 14.506 11.5837 14.219 11.7962C11.6982 13.6552 10.0552 16.4751 9.66049 19.5798C9.61357 19.9367 9.30825 20.2115 8.95111 20.2093L5.62082 20.1881C5.3619 20.1865 5.13061 20.0511 5.00704 19.8271C4.82164 19.4955 4.55549 19.226 4.22633 19.0364C3.16777 18.4135 1.79024 18.8066 1.22959 19.9191C0.750312 20.8714 1.05526 22.0609 1.94435 22.6559C2.97568 23.3499 4.37066 23.0195 4.99347 21.9609C5.11989 21.7385 5.36181 21.6061 5.6118 21.6077L8.93316 21.6288C9.29923 21.6312 9.60109 21.9009 9.63448 22.2672C9.98972 25.3767 11.5967 28.2173 14.0937 30.1082C14.378 30.3243 14.4647 30.7267 14.2753 31.038L12.5963 33.9024C12.4699 34.1248 12.228 34.2572 11.978 34.2556C11.2101 34.2507 10.5022 34.6569 10.1141 35.3152C9.51825 36.3382 9.85812 37.6529 10.8811 38.2487C11.5394 38.6368 12.3608 38.642 13.024 38.2623C14.0545 37.6796 14.411 36.3693 13.8283 35.3388C13.7047 35.1148 13.7064 34.8469 13.8328 34.6245L15.5118 31.7601C15.6923 31.4488 16.086 31.3173 16.4154 31.4712C19.2914 32.7217 22.5503 32.7424 25.4331 31.5285C25.7643 31.3878 26.1564 31.5153 26.333 31.8289L27.9754 34.7144C28.099 34.9384 28.0973 35.2063 27.9708 35.4287C27.5827 36.0869 27.5775 36.9083 27.9572 37.5715C28.54 38.602 29.8502 38.9585 30.8807 38.3758C31.9112 37.7931 32.2678 36.4828 31.685 35.4523C31.3053 34.7891 30.6026 34.374 29.8348 34.3691C29.5758 34.3674 29.3445 34.232 29.221 34.008L27.5785 31.1315C27.4019 30.8178 27.4848 30.4166 27.7719 30.2041C30.2927 28.3451 31.9356 25.5251 32.3304 22.4204C32.3773 22.0636 32.6826 21.7887 33.0398 21.791L36.3611 21.8121C36.62 21.8137 36.8513 21.9491 36.9749 22.1731C37.3546 22.8363 38.0574 23.2515 38.8252 23.2563C40.0127 23.2639 40.9741 22.3146 40.9816 21.1272C41.0044 20.3594 40.5982 19.6515 39.9399 19.2634ZM16.6643 28.8299C14.6912 28.8174 13.1031 27.209 13.1157 25.2358C13.1282 23.2627 14.7366 21.6746 16.7097 21.6872C18.6829 21.6997 20.2709 23.3081 20.2584 25.2812C20.2459 27.2544 18.6375 28.8424 16.6643 28.8299ZM16.7188 20.2586C14.7456 20.2461 13.1576 18.6378 13.1702 16.6646C13.1827 14.6914 14.791 13.1034 16.7642 13.1159C18.7374 13.1285 20.3254 14.7368 20.3129 16.71C20.3003 18.6832 18.692 20.2712 16.7188 20.2586ZM25.2356 28.8844C23.2624 28.8718 21.6744 27.2635 21.6869 25.2903C21.6995 23.3171 23.3078 21.7291 25.281 21.7417C27.2542 21.7542 28.8422 23.3625 28.8296 25.3357C28.8171 27.3089 27.2088 28.8969 25.2356 28.8844ZM25.2901 20.3131C23.3169 20.3006 21.7289 18.6922 21.7414 16.7191C21.754 14.7459 23.3623 13.1579 25.3355 13.1704C27.3086 13.1829 28.8967 14.7913 28.8841 16.7645C28.8716 18.7376 27.2632 20.3257 25.2901 20.3131Z" fill="#ED2939"/>
<path d="M25.1301 23.0263C23.9426 23.0188 22.9812 23.968 22.9737 25.1555C22.9661 26.343 23.9154 27.3044 25.1029 27.3119C26.2903 27.3195 27.2518 26.3702 27.2593 25.1827C27.2668 23.9953 26.3087 23.0338 25.1301 23.0263Z" fill="#0A4586"/>
<path d="M25.3264 14.5988C24.1389 14.5913 23.1775 15.5405 23.17 16.728C23.1624 17.9155 24.1117 18.8769 25.2992 18.8845C26.4866 18.892 27.448 17.9427 27.4556 16.7553C27.4631 15.5678 26.5049 14.6063 25.3264 14.5988Z" fill="#0A4586"/>
<path d="M16.7551 14.5444C15.5676 14.5368 14.6062 15.4861 14.5987 16.6736C14.5911 17.8611 15.5404 18.8225 16.7279 18.83C17.9154 18.8376 18.8768 17.8883 18.8843 16.7008C18.8919 15.5133 17.9337 14.5519 16.7551 14.5444Z" fill="#0A4586"/>
</g>
<defs>
<clipPath id="clip0">
<rect width="40" height="40" fill="white" transform="translate(1.12744 0.873291) rotate(0.364165)"/>
</clipPath>
</defs>
</svg>
