<svg width="34" height="35" viewBox="0 0 34 35" fill="none" xmlns="http://www.w3.org/2000/svg">
<path d="M24.519 2.2778L32.519 10.2778V25.3138L24.519 33.3138H9.48291L1.48291 25.3138V10.2778L9.48291 2.2778H24.519ZM25.1309 0.799805H8.86987L0 9.6698V25.9308L8.86987 34.8008H25.1309L34.001 25.9308V9.6698L25.1309 0.799805Z" fill="#D92400"/>
<path d="M6.84106 12.1696C7.419 12.244 8.00331 12.0945 8.47461 11.7519C8.94591 11.4092 9.26844 10.8993 9.37598 10.3267H10.926V24.9886H8.62598V13.8036H6.84497L6.84106 12.1696Z" fill="white"/>
<path d="M17.021 25.1556C14.696 25.1556 13.4209 23.8156 13.4209 21.4696V20.3196C13.3525 19.728 13.4494 19.129 13.7009 18.5891C13.9525 18.0493 14.3489 17.5898 14.8459 17.2616C14.3512 16.9569 13.9539 16.5168 13.7014 15.9935C13.4489 15.4702 13.3516 14.8855 13.4209 14.3086V13.8476C13.4209 11.5016 14.699 10.1616 17.021 10.1616C19.343 10.1616 20.6209 11.5026 20.6209 13.8476V14.3086C20.6855 14.885 20.5861 15.4678 20.3342 15.9902C20.0823 16.5126 19.6883 16.9533 19.197 17.2616C19.6938 17.59 20.0897 18.0496 20.3411 18.5894C20.5924 19.1292 20.6893 19.7281 20.6209 20.3196V21.4716C20.6228 23.8196 19.346 25.1556 17.021 25.1556ZM15.7209 14.7456C15.7209 15.9186 16.265 16.2956 17.021 16.2956C17.754 16.2956 18.3208 15.9186 18.3208 14.7456V13.9286C18.3208 12.6096 17.756 12.2526 17.021 12.2526C16.286 12.2526 15.7209 12.6086 15.7209 13.9286V14.7456ZM17.021 23.0616C17.754 23.0616 18.2988 22.7056 18.3208 21.4066V20.0456C18.3208 18.8936 17.839 18.3906 17.021 18.3906C16.203 18.3906 15.7209 18.8906 15.7209 20.0456V21.4066C15.7219 22.7056 16.288 23.0616 17.021 23.0616Z" fill="white"/>
<path d="M26.1321 16.8407H28.9392V18.4747H26.1321V21.3437H24.498V18.4747H21.6912V16.8407H24.498V14.0127H26.1321V16.8407Z" fill="white"/>
</svg>
