<svg width="54" height="54" viewBox="0 0 54 54" fill="none" xmlns="http://www.w3.org/2000/svg">
<rect width="54" height="54" rx="27" fill="#FF3D00"/>
<g clip-path="url(#clip0_929_26082)">
<path d="M40.4644 38.6138L39.7108 34.2977C39.38 32.4039 37.6265 31.109 35.7197 31.35L34.8181 31.464L32.6074 29.7713C31.4741 28.9036 29.9345 28.7888 28.6848 29.4787L27.692 30.027L24.776 23.7806C25.1205 23.5464 25.3072 23.1464 25.2778 22.7413C25.2778 22.7413 26.4699 22.1834 26.4817 22.1764C26.5355 22.182 26.9274 22.2236 27.3013 22.0387C28.0705 21.6583 28.4155 20.7474 28.0523 19.9699C27.6889 19.1927 26.761 18.8557 25.9836 19.2189C25.7235 19.3404 25.507 19.5269 25.3512 19.7592C25.3416 19.7629 24.1465 20.3205 24.1465 20.3205C23.4429 19.7079 22.727 20.1612 22.727 20.1612C22.2516 19.1034 21.511 17.6452 20.4895 16.1644C20.7468 15.5891 20.7633 14.9098 20.4762 14.2953C19.9517 13.1731 18.612 12.6866 17.4897 13.2112C16.9461 13.4652 16.534 13.9157 16.3291 14.4798C16.1244 15.0438 16.1763 15.6429 16.4055 16.1975C16.8281 17.2196 17.7787 17.3934 17.8314 17.4083C18.309 19.1312 18.9466 20.6276 19.4613 21.6872C19.4613 21.6872 18.569 21.9775 18.6722 22.8786C18.6722 22.8786 17.4844 23.435 17.4708 23.4434C17.1984 23.4143 16.9151 23.4566 16.6494 23.5808C15.872 23.9441 15.5351 24.8721 15.8984 25.6496C16.1624 26.2145 16.7246 26.5468 17.3106 26.5468C17.5309 26.5468 17.7546 26.4999 17.967 26.4006C18.2262 26.2795 18.4422 26.094 18.5979 25.8628L19.8029 25.2996C20.0192 25.5092 20.3738 25.7419 20.9236 25.582L22.9154 29.8442L21.941 29.6879C20.2781 29.421 18.6774 30.4415 18.2175 32.0616L17.6437 34.0828L16.8134 34.2116C14.5313 34.5832 14.0567 36.8186 14.0567 36.8186C13.992 37.0357 14.1157 37.2641 14.3328 37.3287C14.3718 37.3403 14.7318 37.4132 14.8429 37.0526C14.8429 37.0526 15.069 36.3059 15.328 35.9861C15.9949 36.3583 16.938 36.8929 18.1399 37.5797C18.425 37.7427 18.7373 37.8241 19.0494 37.8241C19.3655 37.8241 19.6815 37.7406 19.969 37.5738C20.5406 37.2421 20.8819 36.6494 20.8819 35.9884V30.5237C21.1798 30.4586 21.4938 30.447 21.8109 30.4979L23.3352 30.7425L24.3328 32.8774C24.0773 32.8932 22.2605 32.897 21.5338 34.9497L19.5903 40.1797H15.5425C15.1548 40.1797 14.7996 40.0015 14.5679 39.6908C14.3362 39.38 14.2667 38.9888 14.3773 38.6172C14.4419 38.4001 14.3183 38.1717 14.1012 38.1071C13.884 38.0424 13.6556 38.1661 13.591 38.3832C13.4059 39.0054 13.5223 39.6608 13.9104 40.1812C14.2985 40.7016 14.8934 41.0001 15.5426 41.0001H38.4587C39.0614 41.0001 39.6296 40.7355 40.0174 40.2741C40.4051 39.8126 40.568 39.2075 40.4644 38.6138ZM25.9507 20.3777C26.0178 20.193 26.1527 20.0454 26.3308 19.9621C26.4313 19.9152 26.537 19.8929 26.6412 19.8929C26.9183 19.8929 27.1842 20.0501 27.3091 20.3172C27.4808 20.6848 27.3215 21.1237 26.954 21.2955C26.7758 21.3787 26.5761 21.3875 26.3913 21.3205C26.2065 21.2534 26.0589 21.1184 25.9757 20.9403C25.8925 20.7623 25.8836 20.5625 25.9507 20.3777ZM17.6198 25.6574C17.2519 25.8293 16.8133 25.6699 16.6415 25.3024C16.4697 24.9348 16.629 24.4959 16.9966 24.3241C17.0971 24.2771 17.7089 24.0711 17.9749 24.6792C18.1407 25.0583 17.9874 25.4857 17.6198 25.6574ZM18.8572 24.8361C18.84 24.6637 18.7936 24.4936 18.7181 24.332C18.6416 24.1682 18.5397 24.0243 18.4198 23.9021L18.9508 23.654L19.3874 24.5884L18.8572 24.8361ZM18.5468 36.8676C17.4751 36.2551 16.6086 35.7635 15.9587 35.3991C16.2508 35.2085 16.5837 35.0774 16.9389 35.0224L17.7782 34.8923L19.2558 36.9807C19.0177 37.0312 18.7676 36.9938 18.5468 36.8676ZM20.0616 35.9884C20.0616 36.1744 20.0125 36.3505 19.9227 36.5028L18.4146 34.3712L19.0067 32.2856C19.179 31.6787 19.564 31.1837 20.0616 30.864V35.9884ZM34.9212 32.2777L35.8224 32.1639C36.7397 32.0479 37.6104 32.3922 38.1983 33.0217L33.5376 35.1561C33.3838 34.9814 33.2168 34.8225 33.0391 34.6804L34.9212 32.2777ZM32.1087 30.4227L34.1237 31.9654L32.345 34.2361C32.0496 34.0883 31.7368 33.9788 31.4138 33.9098L31.2006 29.9627C31.5233 30.057 31.8317 30.2106 32.1087 30.4227ZM29.0813 30.1968C29.4857 29.9735 29.9295 29.8599 30.373 29.852L30.5875 33.8232C30.2086 33.8085 29.5291 33.9624 29.5291 33.9624L28.0396 30.7719L29.0813 30.1968ZM25.0933 20.7835C25.1107 20.956 25.157 21.1261 25.2325 21.2877C25.308 21.4493 25.4088 21.594 25.5299 21.7179L24.9998 21.9657L24.5631 21.0313L25.0933 20.7835ZM17.9542 16.587C17.5961 16.457 17.3101 16.1953 17.1489 15.8502C16.9876 15.5051 16.9703 15.1178 17.1003 14.7598C17.2302 14.4016 17.4919 14.1156 17.837 13.9544C18.0317 13.8634 18.2367 13.8203 18.4387 13.8203C18.9756 13.8203 19.491 14.1249 19.7329 14.6426C20.0658 15.355 19.757 16.2056 19.0446 16.5385C18.6996 16.6998 18.3123 16.717 17.9542 16.587ZM18.7041 17.4781C18.9393 17.4501 19.1711 17.3848 19.3919 17.2816C19.6153 17.1772 19.813 17.04 19.9831 16.8792C20.8872 18.2293 21.5501 19.5426 21.9836 20.5086L20.2046 21.3399C19.7342 20.3728 19.1568 19.0279 18.7041 17.4781ZM20.7498 24.7744C20.5824 24.8526 20.3826 24.7801 20.3043 24.6127L19.5204 22.9351C19.4825 22.854 19.435 22.6247 19.682 22.4897L23.2009 20.8453C23.2467 20.8239 23.2948 20.8138 23.3423 20.8138C23.4684 20.8138 23.5895 20.8854 23.6463 21.007L24.4302 22.6844C24.4302 22.6845 24.4302 22.6846 24.4302 22.6846C24.4302 22.6846 24.4302 22.6847 24.4303 22.6847C24.5084 22.852 24.4359 23.0517 24.2686 23.13L20.7498 24.7744ZM21.6732 25.2483L22.4848 24.869L24.5034 29.1886C24.6851 29.5063 24.9925 29.4128 25.0486 29.3866C25.2539 29.2907 25.3425 29.0466 25.2466 28.8414L23.228 24.5217L24.0395 24.1425L28.7073 34.1414L27.8141 34.3357L25.9561 30.3597C25.8601 30.1544 25.6159 30.0658 25.4108 30.1617C25.2056 30.2576 25.117 30.5017 25.2129 30.7069L26.5637 33.5974C26.5637 33.5974 25.8377 33.0338 25.278 32.9623L21.6732 25.2483ZM25.8751 34.1176L27.1346 34.9949L26.6762 37.7862C26.6255 37.7326 24.8572 34.8666 24.1747 33.7186C24.7684 33.629 25.3721 33.7672 25.8751 34.1176ZM20.4654 40.1797L22.3028 35.2355C22.504 34.6941 22.886 34.2569 23.3799 33.9865C24.0695 35.1509 25.0817 36.805 25.8416 38.0393C26.1442 38.531 26.6461 38.8549 27.2187 38.9281C27.3001 38.9386 28.0575 39.0403 28.7751 38.4143C29.0357 38.187 29.4099 37.8052 29.6973 37.5288C29.8605 37.3718 29.8656 37.1121 29.7085 36.9489C29.5515 36.7857 29.292 36.7806 29.1286 36.9375C28.8415 37.2137 28.4566 37.5831 28.2072 37.8223C28.0019 38.0193 27.7324 38.1253 27.4522 38.1229L27.9409 35.1476C27.9409 35.1476 30.1086 34.682 30.1137 34.681C30.6279 34.5741 30.9755 34.6402 31.3906 34.7507C31.0666 35.0659 30.7084 35.4131 30.3202 35.7884C30.1572 35.9459 30.1528 36.2055 30.3103 36.3684C30.3907 36.4516 30.6553 36.5702 30.8902 36.3783C31.4185 35.9466 31.8227 35.4753 32.2092 35.0985C32.503 35.2784 32.7698 35.5088 32.9965 35.7859L36.5917 40.1796H20.4654V40.1797ZM39.3894 39.7462C39.1578 40.0217 38.8186 40.1797 38.4587 40.1797H37.6518L34.0773 35.8112L38.6681 33.7089C38.7769 33.9351 38.8574 34.1794 38.9027 34.4387L39.6563 38.7549C39.7182 39.1093 39.6209 39.4707 39.3894 39.7462Z" fill="white"/>
<path d="M18.4414 15.6567C18.6679 15.6567 18.8516 15.4731 18.8516 15.2466C18.8516 15.0201 18.6679 14.8364 18.4414 14.8364C18.2149 14.8364 18.0312 15.0201 18.0312 15.2466C18.0312 15.4731 18.2149 15.6567 18.4414 15.6567Z" fill="white"/>
</g>
<defs>
<clipPath id="clip0_929_26082">
<rect width="28" height="28" fill="white" transform="translate(13 13)"/>
</clipPath>
</defs>
</svg>
