<svg width="64" height="64" viewBox="0 0 64 64" fill="none" xmlns="http://www.w3.org/2000/svg">
<rect x="0.5" y="0.5" width="63" height="63" rx="31.5" fill="white"/>
<path fill-rule="evenodd" clip-rule="evenodd" d="M53.9188 33.5779C54.9893 33.2335 57.3818 32.4795 57.3818 32.4795L53.9839 31.139C53.9839 31.139 56.274 30.115 57.3073 29.6402L53.7885 28.7C54.7473 28.0856 56.9256 26.8754 56.9256 26.8754L53.323 26.2796L56.1995 24.1013L52.5876 23.943L55.2407 21.4575L51.6194 21.6995C52.3455 20.8524 53.2299 19.7819 53.9746 18.9534L50.3999 19.5771L52.42 16.5702L48.9477 17.6035C49.4411 16.5982 50.6234 14.3733 50.6234 14.3733L47.4303 15.6207L48.594 12.4091L45.4475 14.1592C45.7361 13.07 46.1364 11.7667 46.4063 10.6683L43.4367 12.7721C43.4367 12.7721 43.8184 10.2587 43.986 9.18812L41.2677 11.5992L41.4539 7.96862L41.2677 8.18273C40.5137 9.00193 39.7876 9.92353 39.0056 10.659L38.7915 7.07495L36.669 10.0073C36.4735 8.89953 36.2222 7.58695 36.0733 6.46055L34.2487 9.58841L33.234 6.14404L31.8097 9.43946L30.4226 6.14404L29.3707 9.59772L27.6206 6.44193L26.969 9.97939L24.8837 7.03772L24.6045 10.6403L22.212 7.95001L22.333 11.5712L19.6334 9.17881L20.164 12.7442L17.2503 10.6217L18.1346 14.1406C18.1346 14.1406 15.9935 12.9118 15.0161 12.3532L16.3007 15.751L12.9774 14.3267L14.6158 17.5291L11.1714 16.4864L13.1822 19.484L9.61682 18.8323L11.9255 21.6344L8.34148 21.3458L10.9294 23.8872L7.32679 23.9803L10.194 26.2238L6.61929 26.7264L9.72853 28.6162C8.65799 28.942 7.28955 29.2306 6.219 29.5378L9.48649 31.0272C8.45319 31.4462 6.14453 32.3491 6.14453 32.3491C6.14453 32.3491 8.58351 33.0846 9.5982 33.5035L6.35864 35.1605C6.35864 35.1605 8.83486 35.6818 9.93333 35.9145C9.01173 36.5382 6.88926 37.9253 6.88926 37.9253L10.5291 38.279C9.69129 39.0144 7.72708 40.6342 7.72708 40.6342L11.3855 40.6063L8.85348 43.2315L12.4747 42.7753C11.7951 43.669 10.2498 45.6704 10.2498 45.6704L13.8245 44.8512L11.9162 47.9512L15.3885 46.741L13.8338 50.0178C13.8338 50.0178 16.1332 48.8542 17.1293 48.4446L15.9656 51.9075L19.0283 49.9619L18.2929 53.5273L21.1229 51.2931L20.7691 54.8771L23.385 52.252L23.357 55.9291C23.357 55.9291 24.9675 53.8904 25.675 53.0805C25.8333 54.1976 26.1218 56.711 26.1218 56.711L28.0581 53.6018L28.8401 57.1765L28.9983 56.8972L30.5157 53.8438L31.7259 57.344L32.9919 53.9648L34.5652 57.1951L35.4123 53.6204C35.4123 53.6204 36.7714 55.7708 37.3393 56.739L37.7954 53.0805C37.7954 53.0805 39.3407 55.1006 40.0669 55.9663L40.1693 52.4009L42.6734 54.8771L42.3755 51.3211L45.1589 53.5646C44.9355 52.5406 44.4142 49.9526 44.4142 49.9526C45.3451 50.595 46.5553 51.3304 47.4955 51.9448L46.3598 48.5004L49.6366 50.1109C49.6366 50.1109 48.5381 47.7929 48.1099 46.7875C49.1153 47.1506 50.5303 47.6533 51.5357 48.0536C51.6567 48.1467 49.7483 44.9071 49.7483 44.9071L53.2299 45.7635L51.0795 42.8405L54.6449 43.3152L52.1221 40.6528L55.7806 40.7366L52.9972 38.3628L56.6277 38.037L53.6116 35.9797L57.1677 35.2815L53.9188 33.5779ZM56.4509 32.3305L51.6939 32.1536L53.835 31.2972C54.7101 31.6416 55.5758 31.9861 56.4509 32.3305ZM50.8189 36.864L52.5783 38.2139L50.3348 38.3721C50.3348 38.3814 50.6792 37.376 50.8189 36.864ZM49.9624 24.064L52.1966 24.1013C51.6381 24.6133 51.1074 25.1253 50.5023 25.5814L49.9624 24.064ZM50.6699 26.0655L52.8762 26.4006C52.2338 26.8382 51.7125 27.2757 51.0516 27.676L50.6699 26.0655ZM51.275 34.723L53.2206 35.9424L50.9585 36.3055L51.275 34.723ZM51.1819 28.2252L53.3137 28.7744L51.4239 29.8078L51.1819 28.2252ZM51.4798 32.5726L53.5743 33.55C52.8575 33.7827 52.0849 33.9596 51.3588 34.1644L51.4798 32.5726ZM51.4519 30.3849L53.6209 31.1296C52.9413 31.4275 52.2059 31.7161 51.4984 32.0047L51.4519 30.3849ZM56.3578 29.603L51.6194 29.966L53.6395 28.8862L56.3578 29.603ZM55.9482 26.9312L51.3029 27.7877L53.1741 26.4658L55.9482 26.9312ZM55.2965 24.2875L50.7816 25.6652L52.5224 24.1571L55.2965 24.2875ZM54.3563 21.7275L49.9903 23.6265L51.5543 21.895C51.545 21.895 53.4254 21.7833 54.3563 21.7275ZM49.739 23.552L48.985 22.1091C49.7483 22.0254 51.2191 21.895 51.2191 21.895C51.2191 21.895 50.2417 22.9749 49.739 23.552ZM53.053 19.3257L48.8826 21.7275L50.2138 19.8191C51.1447 19.6608 52.1407 19.5026 53.053 19.3257ZM48.6964 21.6251L47.7934 20.2101L49.9252 19.8843L48.6964 21.6251ZM51.6194 17.0357L47.7841 19.8098L48.9477 17.8176C49.8507 17.557 50.7444 17.315 51.6194 17.0357ZM47.5234 19.8098H47.4769L46.4808 18.5717L48.6778 17.8176L47.5234 19.8098ZM49.86 14.9318L46.397 18.1342L47.3559 15.9279L49.86 14.9318ZM46.1178 18.19L44.9355 17.0636C45.6151 16.7099 46.3412 16.3747 47.058 16.0675L46.1178 18.19ZM45.5034 14.4291L47.9423 13.0328L44.7959 16.6168L45.5034 14.4291ZM44.5445 16.6726L43.2506 15.6952L45.2055 14.4757C45.0472 15.1832 44.7493 15.9279 44.5445 16.6726ZM43.5205 12.9862L45.764 11.3851L43.0644 15.2856L43.5205 12.9862ZM42.8223 15.3507C42.3662 15.118 41.9101 14.7736 41.426 14.5315L43.2506 13.0886C43.1016 13.8334 42.962 14.5967 42.8223 15.3507ZM41.3794 11.8505L43.4554 9.97008L41.1839 14.1406L41.3794 11.8505ZM41.0164 8.79713L39.2104 13.191C39.2011 12.4928 39.1453 11.655 39.1732 10.8731L41.0164 8.79713ZM41.1374 11.9343L40.9419 14.2523L39.4804 13.5727L41.1374 11.9343ZM38.9218 11.0127L38.9591 13.3493L37.451 12.8373V12.7721L38.9218 11.0127ZM38.4285 7.9407L37.1066 12.4928L36.8087 10.1749L38.4285 7.9407ZM36.6039 10.3518L36.9204 12.6697L35.3006 12.3346L36.6039 10.3518ZM35.7754 7.43801L34.9655 12.0088L34.4255 9.81183L35.7754 7.43801ZM34.2021 9.97008L34.7886 12.2322L33.1502 12.0553L34.2021 9.97008ZM33.085 7.03772L32.7871 11.7947L31.9586 9.67219L33.085 7.03772ZM31.8097 9.93284C31.8097 9.93284 32.3775 11.2827 32.6196 12.0367L30.9905 12.0088L31.8097 9.93284ZM30.3482 7.05633L30.5902 11.7947L29.5662 9.73735L30.3482 7.05633ZM29.4079 9.97008L30.4506 12.0646L28.8122 12.2415L29.4079 9.97008ZM27.6485 7.35422C27.6485 7.35422 28.1605 10.4728 28.4026 12.0367L27.1645 10.1097L27.6485 7.35422ZM27.0341 10.3331L28.3002 12.3067L26.7176 12.6697L27.0341 10.3331ZM24.9861 7.95932L26.2522 12.4928L24.7999 10.7986L24.9861 7.95932ZM24.7534 11.1151L26.187 12.7907C25.6936 12.9862 25.1537 13.1445 24.651 13.3493L24.7534 11.1151ZM24.1855 13.2283L22.5285 11.7109L22.4261 8.84368L24.1855 13.2283ZM24.1576 13.5541L22.6589 14.2336L22.5192 12.0088L24.1576 13.5541ZM12.093 31.9209C11.3669 31.6789 10.6408 31.3438 9.91471 31.0645C10.6222 30.7759 11.3855 30.5525 12.1303 30.3011C12.0372 30.8131 12.1023 31.4089 12.093 31.9209ZM12.2141 34.1086L9.96126 33.4476C9.96126 33.4476 11.3762 32.7867 12.0837 32.4702L12.2141 34.1086ZM10.1102 28.6441L12.3723 28.1321L12.1768 29.7333L10.1102 28.6441ZM12.2792 34.6206L12.5957 36.2403L10.2964 35.84L12.2792 34.6206ZM10.5757 26.2796C11.339 26.1679 12.1303 26.112 12.9122 26.0376L12.4933 27.6201L10.5757 26.2796ZM12.6981 36.7616C12.875 37.2457 13.0239 37.795 13.2101 38.307L10.8922 38.1859L12.6981 36.7616ZM13.0239 25.5814L11.46 24.092L13.6477 23.9989L13.0239 25.5814ZM20.4061 13.1166L22.2586 14.4757L20.7877 15.3507L20.4061 13.1166ZM20.4154 15.6114L19.0842 16.6447L18.4511 14.5315L20.4154 15.6114ZM19.9592 10.0166L22.2027 14.1778L20.3688 12.8187L19.9592 10.0166ZM17.6692 11.4502L20.3502 15.3507L18.3953 14.2336L17.6692 11.4502ZM15.5281 13.1072L18.628 16.7285L16.5707 15.8069L15.5281 13.1072ZM18.7118 16.9705L17.4923 18.1435L16.6266 16.0955L18.7118 16.9705ZM13.5732 15.0156C14.7182 16.1234 15.9098 17.1474 17.0641 18.2552L14.923 17.5849L13.5732 15.0156ZM17.1293 18.5251C16.7848 18.9534 16.4311 19.3816 16.0866 19.8005L15.0347 17.9014L17.1293 18.5251ZM11.8417 17.1102C13.1077 18.069 14.4017 18.9906 15.6584 19.968L13.4335 19.484L11.8417 17.1102ZM15.7701 20.2101L14.8951 21.5692L14.8765 21.6158L13.5546 19.7353L15.7701 20.2101ZM10.3802 19.4095L14.4762 21.8019L12.242 21.6344L10.3802 19.4095ZM14.5972 22.0347L13.8711 23.5055L12.3816 21.8764L14.5972 22.0347ZM9.1886 21.8392C10.6408 22.4722 12.0186 23.1238 13.4708 23.7475L11.2273 23.8406L9.1886 21.8392ZM8.18322 24.3806L12.7167 25.8235L10.4267 26.0655L8.18322 24.3806ZM7.52228 27.0057L12.1768 27.9459L9.88679 28.43L7.52228 27.0057ZM7.15922 29.724L11.8882 30.1429L9.69129 30.8783L7.15922 29.724ZM7.08475 32.4236L11.8417 32.3305L9.77508 33.28L7.08475 32.4236ZM7.33609 35.1419L12.0093 34.4995L10.0916 35.7004L7.33609 35.1419ZM7.8574 37.8229L12.4561 36.6779L10.6501 38.0649L7.8574 37.8229ZM8.6766 40.4015L13.1077 38.7631L11.4786 40.3456L8.6766 40.4015ZM13.3777 38.819L14.0386 40.3363L11.7207 40.4294L13.3777 38.819ZM9.77508 42.8963L13.9921 40.7739L12.5492 42.5333L9.77508 42.8963ZM14.2527 40.8204C14.5413 41.2579 14.8113 41.742 15.0813 42.2075L12.7819 42.5891L14.2527 40.8204ZM11.1528 45.2329L15.0813 42.6729L13.8338 44.6092L11.1528 45.2329ZM15.3791 42.7008L16.3566 43.9948L14.1503 44.572L15.3791 42.7008ZM12.7447 47.4299L16.4311 44.4323L15.4071 46.4803L12.7447 47.4299ZM16.6917 44.423L17.7902 45.596L15.7143 46.4152L16.6917 44.423ZM17.1199 48.156L14.6065 49.3568L17.9205 46.0242L17.1199 48.156ZM18.1905 46.0149L19.41 47.0575L17.4085 48.0629L18.1905 46.0149ZM18.9911 49.7199L16.6452 51.2L19.5682 47.4671L18.9911 49.7199ZM19.8382 47.4019L21.1508 48.3235L19.2797 49.5803L19.8382 47.4019ZM21.1042 51.0232L18.8701 52.764L21.3835 48.7052L21.1042 51.0232ZM21.6162 48.6494L23.0312 49.4127L21.2997 50.9208L21.6162 48.6494ZM21.2811 54.0393L23.3105 49.7758L23.3384 51.9913L21.2811 54.0393ZM23.7201 55.0819L25.3492 50.5763C25.4423 51.349 25.6098 52.8012 25.6098 52.8012L23.7201 55.0819ZM23.5525 51.8424L23.5711 49.6454L25.0327 50.2598L23.5525 51.8424ZM25.8239 52.5778L25.5726 50.4553L27.1086 50.8928L25.8239 52.5778ZM26.3825 55.8267L27.4717 51.1535L27.9371 53.3318L26.3825 55.8267ZM28.114 53.0991L27.6671 51.0139L29.2311 51.2745L28.114 53.0991ZM29.0821 56.2549L29.65 51.5166L30.3016 53.7135L29.0821 56.2549ZM30.4971 53.518L29.8082 51.3583L31.4466 51.4514L30.4971 53.518ZM31.8469 56.3945L31.8655 51.6376L32.7871 53.8159L31.8469 56.3945ZM32.9454 53.5552C32.9454 53.5552 32.3682 52.131 32.0052 51.4514C32.5451 51.4235 33.625 51.3583 33.625 51.3583L32.9454 53.5552ZM34.5466 56.2363L34.0346 51.5166L35.1703 53.4994L34.5466 56.2363ZM35.3285 53.276L34.1835 51.3024L35.7661 51.0325L35.3285 53.276ZM37.2276 55.7894L36.2036 51.1349L37.572 53.0153L37.2276 55.7894ZM37.7023 52.7733L36.3339 50.9115L37.8699 50.4739L37.7023 52.7733ZM39.8434 55.0168L38.3261 50.5298L39.9086 52.2613L39.8434 55.0168ZM38.4285 50.2971L39.89 49.692L39.9272 51.9168L38.4285 50.2971ZM31.7631 50.2133C21.5697 50.2133 13.3032 41.9468 13.3032 31.7534C13.3032 21.5599 21.5697 13.2934 31.7631 13.2934C41.9566 13.2934 50.2231 21.5599 50.2231 31.7534C50.2231 41.9468 41.9566 50.2133 31.7631 50.2133ZM51.7311 40.4853L49.5156 40.3736L50.1579 38.9214L51.7311 40.4853ZM50.6513 42.5984L48.4543 42.3006C48.7895 41.742 49.2363 40.9042 49.2363 40.9042L50.6513 42.5984ZM49.3573 44.6278L47.1604 44.0693L48.1099 42.7753L49.3573 44.6278ZM47.8399 46.5548L45.7454 45.6984L46.7973 44.4975L47.8399 46.5548ZM45.2799 46.08L46.1085 48.2211L44.107 47.1227L45.2799 46.08ZM43.6229 47.4764L44.2001 49.692L42.329 48.398L43.6229 47.4764ZM42.1335 50.9394L40.4299 49.4499L41.8263 48.6959L42.1335 50.9394ZM42.3941 54.0952L40.3554 49.692L42.1428 51.2838L42.3941 54.0952ZM44.74 52.6988L42.2824 48.64L44.1349 49.934L44.74 52.6988ZM46.9835 51.1535L44.0791 47.374L46.1085 48.5004L46.9835 51.1535ZM49.0501 49.3568L45.7454 45.9404L47.8586 46.8155L49.0501 49.3568ZM50.9026 47.3554L47.2162 44.302L49.469 44.8885L50.9026 47.3554ZM52.4759 45.1584L48.5009 42.5426L50.7723 42.8498L52.4759 45.1584ZM53.8164 42.7939L49.5994 40.6342L51.8335 40.7273L53.8164 42.7939ZM54.9149 40.2991L50.4744 38.6235L52.7272 38.4373L54.9149 40.2991ZM55.7713 37.7391L51.1074 36.5196L53.4254 36.1566L55.7713 37.7391ZM51.517 34.3599L53.7419 33.7362L56.2274 35.0395L51.517 34.3599Z" fill="#6C41BF"/>
<path fill-rule="evenodd" clip-rule="evenodd" d="M40.8124 19.1302L42.0599 18.4692L41.6875 18.2086L40.8776 18.6927L41.0452 17.7524L40.6728 17.5011L40.4773 18.8975L39.9746 19.605L40.319 19.847L40.8124 19.1302Z" fill="#6C41BF"/>
<path fill-rule="evenodd" clip-rule="evenodd" d="M34.1191 16.4213L34.417 16.4771L34.6776 17.3801L35.1524 17.4639L34.8359 16.4771C34.8917 16.4678 34.9383 16.4492 34.9941 16.4306C35.05 16.4026 35.0965 16.3747 35.1338 16.3375C35.1803 16.3002 35.2176 16.2537 35.2455 16.1978C35.2734 16.142 35.3013 16.0768 35.3107 16.0023C35.3293 15.9093 35.3293 15.8255 35.3107 15.7417C35.292 15.6579 35.2641 15.5834 35.2083 15.5183C35.1617 15.4531 35.0965 15.3879 35.0221 15.3414C34.9476 15.2949 34.8545 15.2576 34.7428 15.239L33.9236 15.0994L33.5605 17.1939L33.9701 17.2684L34.1191 16.4213ZM34.2773 15.5276L34.659 15.5927C34.7521 15.6114 34.8173 15.6486 34.8638 15.7045C34.9104 15.7696 34.929 15.8348 34.9104 15.9186C34.8917 16.0023 34.8545 16.0675 34.7893 16.1047C34.7242 16.142 34.6497 16.1606 34.5566 16.142L34.1656 16.0768L34.2773 15.5276Z" fill="#6C41BF"/>
<path d="M42.6135 20.2939L42.5566 21.3164L43.5791 21.3732L43.6359 20.3508L42.6135 20.2939Z" fill="#6C41BF"/>
<path fill-rule="evenodd" clip-rule="evenodd" d="M17.1202 30.5432L16.7478 30.5339L16.7199 31.5113L16.1986 31.502L16.2265 30.6642L15.8635 30.6456L15.8355 31.4834L15.3328 31.4741L15.3701 30.4873L14.9977 30.478L14.9512 31.8744L17.0736 31.9396L17.1202 30.5432Z" fill="#6C41BF"/>
<path fill-rule="evenodd" clip-rule="evenodd" d="M38.2435 18.5996L38.9975 17.0171L39.5002 17.2498L39.6584 16.9147L38.2807 16.2631L38.1224 16.5982L38.6251 16.8309L37.8711 18.4228L38.2435 18.5996Z" fill="#6C41BF"/>
<path fill-rule="evenodd" clip-rule="evenodd" d="M40.4473 43.6131L40.68 43.9017L41.4433 43.278L41.7692 43.6783L41.1175 44.2089L41.3502 44.4975L42.0019 43.9669L42.3184 44.3485L41.555 44.9723L41.7878 45.2608L42.8769 44.3765L41.5271 42.7288L40.4473 43.6131Z" fill="#6C41BF"/>
<path fill-rule="evenodd" clip-rule="evenodd" d="M44.9258 25.2277L45.112 25.6652L45.9498 25.749L45.4285 26.4192L45.6147 26.8568L46.3594 25.8235L47.5603 25.991L47.3741 25.5535L46.6014 25.479L47.0855 24.8739L46.8993 24.4364L46.1918 25.4139L44.9258 25.2277Z" fill="#6C41BF"/>
<path fill-rule="evenodd" clip-rule="evenodd" d="M44.3683 41.984C44.3217 41.9281 44.2752 41.8723 44.21 41.8164C44.1542 41.7606 44.089 41.7047 44.0238 41.6395C43.9587 41.5744 43.8935 41.5185 43.8283 41.472C43.7632 41.4161 43.7073 41.3789 43.6515 41.3416C43.5956 41.3044 43.5304 41.2765 43.4653 41.2579C43.4001 41.2392 43.335 41.2299 43.2512 41.2392C43.1488 41.2486 43.0464 41.2672 42.9533 41.3137C42.8602 41.3603 42.7764 41.4254 42.7019 41.5092C42.6368 41.5837 42.5902 41.6582 42.5437 41.7419C42.5064 41.8257 42.4878 41.9095 42.4785 42.0026C42.4785 42.0957 42.4878 42.1795 42.5251 42.2726C42.553 42.3657 42.6088 42.4494 42.6833 42.5425L42.9626 42.226C42.916 42.1515 42.8881 42.0771 42.8788 41.9933C42.8695 41.9095 42.9067 41.835 42.9719 41.7512C43.0091 41.7047 43.0557 41.6768 43.0929 41.6582C43.1395 41.6395 43.186 41.6302 43.2232 41.6302C43.2512 41.6302 43.2791 41.6302 43.3163 41.6395C43.3443 41.6488 43.3815 41.6582 43.4187 41.6861C43.456 41.7047 43.5025 41.7419 43.5584 41.7885C43.6142 41.835 43.6701 41.8909 43.7539 41.956C43.8283 42.0212 43.8935 42.0771 43.94 42.1236C43.9866 42.1702 44.0238 42.2074 44.0518 42.2446C44.0797 42.2819 44.0983 42.3098 44.1076 42.3377C44.1169 42.3657 44.1262 42.3936 44.1262 42.4215C44.1355 42.4681 44.1262 42.5146 44.1076 42.5611C44.089 42.6077 44.0704 42.6542 44.0331 42.7008C43.9587 42.7753 43.8842 42.8218 43.8097 42.8218C43.7259 42.8218 43.6515 42.8032 43.5677 42.7659L43.2884 43.0825C43.3815 43.1383 43.4746 43.1849 43.5677 43.2035C43.6608 43.2221 43.7539 43.2314 43.8376 43.2128C43.9307 43.2035 44.0052 43.1662 44.089 43.1197C44.1635 43.0731 44.2379 43.0173 44.3031 42.9428C44.3776 42.859 44.4334 42.7659 44.4707 42.6635C44.5079 42.5704 44.5172 42.4681 44.5079 42.3563C44.5079 42.2819 44.4893 42.2074 44.4614 42.1515C44.4334 42.0957 44.4055 42.0398 44.3683 41.984Z" fill="#6C41BF"/>
<path fill-rule="evenodd" clip-rule="evenodd" d="M47.3278 27.1547C47.2533 27.164 47.1789 27.1733 47.1044 27.1919C47.0299 27.2105 46.9461 27.2291 46.853 27.2477C46.7599 27.2664 46.6855 27.2943 46.6017 27.3129C46.5272 27.3315 46.4527 27.3595 46.3876 27.3874C46.3224 27.4153 46.2666 27.4525 46.2107 27.4898C46.1549 27.5363 46.1176 27.5829 46.0711 27.648C46.0152 27.7411 45.978 27.8342 45.9687 27.9366C45.9501 28.039 45.9594 28.1507 45.9873 28.2624C46.0059 28.3555 46.0431 28.4393 46.0897 28.5231C46.1362 28.6069 46.2014 28.672 46.2666 28.7186C46.341 28.7744 46.4155 28.8117 46.5086 28.8396C46.6017 28.8675 46.7041 28.8768 46.8158 28.8675L46.7134 28.4579C46.6203 28.4579 46.5458 28.4393 46.4807 28.3928C46.4062 28.3555 46.3597 28.2811 46.341 28.1787C46.3317 28.1228 46.3224 28.0669 46.3317 28.0204C46.341 27.9739 46.3597 27.9273 46.3876 27.8901C46.4062 27.8621 46.4248 27.8435 46.4434 27.8249C46.4621 27.8063 46.4993 27.7877 46.5365 27.769C46.5738 27.7504 46.6296 27.7318 46.6948 27.7132C46.7599 27.6946 46.8437 27.676 46.9368 27.648C47.0392 27.6201 47.1137 27.6015 47.1882 27.5922C47.2533 27.5829 47.3092 27.5736 47.3557 27.5643C47.4023 27.5643 47.4395 27.5643 47.4674 27.5736C47.4954 27.5829 47.5233 27.5922 47.5512 27.6015C47.5885 27.6201 47.6257 27.648 47.6536 27.6946C47.6815 27.7318 47.7095 27.7784 47.7188 27.8342C47.7467 27.9366 47.7374 28.0204 47.6909 28.0856C47.6536 28.1507 47.5885 28.2066 47.514 28.2531L47.6164 28.6627C47.7188 28.6162 47.8026 28.5603 47.877 28.4952C47.9515 28.43 47.9981 28.3555 48.0446 28.2811C48.0818 28.1973 48.1098 28.1135 48.1098 28.0204C48.1191 27.9273 48.1098 27.8342 48.0818 27.7411C48.0539 27.6294 48.0074 27.527 47.9515 27.4432C47.8863 27.3594 47.8119 27.2943 47.7188 27.2384C47.6536 27.2012 47.5885 27.1733 47.5233 27.1547C47.4674 27.1547 47.393 27.1453 47.3278 27.1547Z" fill="#6C41BF"/>
<path fill-rule="evenodd" clip-rule="evenodd" d="M44.862 24.334L44.3314 23.5055L44.7689 23.2262L45.2158 23.9337L45.5323 23.7382L45.0854 23.0214L45.5043 22.7608L46.035 23.5893L46.3422 23.3938L45.5881 22.2115L43.8008 23.3473L44.5455 24.5295L44.862 24.334Z" fill="#6C41BF"/>
<path d="M38.43 45.6244L38.1523 46.6101L39.138 46.8877L39.4157 45.902L38.43 45.6244Z" fill="#6C41BF"/>
<path d="M36.7215 15.7151L36.0703 17.7352L36.469 17.8638L37.1202 15.8436L36.7215 15.7151Z" fill="#6C41BF"/>
<path d="M20.7406 20.2929L19.7168 20.3125L19.7364 21.3363L20.7602 21.3167L20.7406 20.2929Z" fill="#6C41BF"/>
<path d="M21.8867 18.1716L21.5508 18.4219L22.8245 20.1311L23.1604 19.8808L21.8867 18.1716Z" fill="#6C41BF"/>
<path fill-rule="evenodd" clip-rule="evenodd" d="M24.4085 19.0651L23.7848 17.9108L25.144 18.6555L25.4698 18.4786L24.4551 16.6168L24.092 16.8123L24.7157 17.9573L23.3473 17.2126L23.0215 17.3895L24.0362 19.2606L24.4085 19.0651Z" fill="#6C41BF"/>
<path fill-rule="evenodd" clip-rule="evenodd" d="M19.578 23.5614L19.2615 23.3659L18.7495 24.213L18.3027 23.943L18.7402 23.2262L18.4237 23.0307L17.9862 23.7569L17.558 23.4962L18.07 22.6491L17.7535 22.4629L17.0273 23.6638L18.8519 24.7622L19.578 23.5614Z" fill="#6C41BF"/>
<path fill-rule="evenodd" clip-rule="evenodd" d="M26.2986 16.2629L26.8571 17.9292L27.2574 17.7989L26.6896 16.1325L27.2202 15.9557L27.0992 15.6019L25.6562 16.0953L25.7773 16.4397L26.2986 16.2629Z" fill="#6C41BF"/>
<path fill-rule="evenodd" clip-rule="evenodd" d="M27.2858 21.9881C27.3882 22.2022 27.5371 22.3884 27.7233 22.5187C27.9095 22.6584 28.1236 22.7608 28.3563 22.8259C28.5891 22.8911 28.8497 22.9283 29.1197 22.9283C29.3059 22.9283 29.5014 22.9097 29.6782 22.8818C29.8644 22.8539 30.0227 22.798 30.153 22.7328C30.1809 22.7142 30.1995 22.6956 30.2089 22.677C30.2182 22.6584 30.2182 22.6211 30.2182 22.556V22.0905C30.2182 21.8392 30.2182 21.6064 30.2182 21.5227V21.2248C30.2182 21.1968 30.1995 21.1689 30.1623 21.1689C30.0506 21.1782 29.9761 21.1782 29.9389 21.1782C29.911 21.1782 29.8365 21.1782 29.7062 21.1782C29.52 21.1689 29.399 21.1689 29.3152 21.1689C29.2128 21.1689 29.1942 21.2061 29.1942 21.2434C29.1942 21.262 29.2035 21.3085 29.2872 21.3085C29.3617 21.3085 29.4176 21.3085 29.4455 21.3179C29.5014 21.3272 29.5479 21.3551 29.5665 21.383C29.5851 21.4109 29.6038 21.4668 29.6038 21.532C29.6038 21.6157 29.6131 21.8485 29.6131 22.0905V22.4908C29.6131 22.556 29.5944 22.6025 29.5479 22.6211C29.5107 22.6397 29.4548 22.6491 29.399 22.6584C29.3431 22.6677 29.2686 22.6677 29.1942 22.6677C28.98 22.6677 28.7752 22.6304 28.5984 22.5467C28.4215 22.4722 28.2632 22.3605 28.1329 22.2208C28.0026 22.0812 27.9095 21.9136 27.835 21.7181C27.7699 21.5227 27.7326 21.3179 27.7326 21.0944C27.7326 20.8431 27.7699 20.6383 27.835 20.4707C27.9002 20.3032 27.9933 20.1728 28.1143 20.0704C28.2446 19.968 28.375 19.8936 28.5053 19.8656C28.8218 19.7912 29.2221 19.8005 29.5107 19.9215C29.6782 19.9867 29.7992 20.0611 29.8737 20.1449C29.9203 20.1915 29.9482 20.2473 29.9668 20.2939C29.9854 20.3497 29.9947 20.4149 30.0134 20.48C30.0227 20.5452 30.0599 20.5545 30.0878 20.5545C30.1251 20.5545 30.1623 20.5359 30.1623 20.4335C30.1623 20.2566 30.1623 20.117 30.1716 20.0239C30.1809 19.9308 30.1809 19.847 30.1902 19.7912C30.1902 19.7632 30.1902 19.7539 30.1902 19.7446C30.1902 19.726 30.1809 19.6701 30.1065 19.6608C30.0599 19.6608 30.0134 19.6515 29.9482 19.6422C29.883 19.6329 29.8272 19.6236 29.7713 19.6143C29.7527 19.605 29.7062 19.605 29.6596 19.5957C29.6038 19.5864 29.5386 19.5771 29.4641 19.5677C29.3803 19.5584 29.3059 19.5491 29.2314 19.5491C28.9335 19.5305 28.6542 19.5491 28.4122 19.5957C28.226 19.6329 28.0398 19.7074 27.8536 19.8191C27.6395 19.9494 27.4534 20.1356 27.3137 20.3776C27.1741 20.6197 27.0996 20.9083 27.0996 21.2341C27.1275 21.5133 27.1834 21.7647 27.2858 21.9881Z" fill="#333333"/>
<path fill-rule="evenodd" clip-rule="evenodd" d="M32.3768 22.7236L32.2744 22.7142C32.2185 22.7049 32.1906 22.6863 32.172 22.6677C32.1534 22.6398 32.1347 22.5932 32.1254 22.5374C32.1161 22.4536 32.1161 22.3512 32.1068 22.2116C32.1068 22.0719 32.1068 21.8764 32.1068 21.6065V20.2008C32.1068 20.1077 32.1068 20.0239 32.1161 19.9588C32.1254 19.8843 32.1347 19.8377 32.1534 19.8005C32.172 19.7726 32.1999 19.754 32.2465 19.7446C32.293 19.7353 32.3395 19.7353 32.3675 19.7353C32.4513 19.7353 32.4606 19.6888 32.4606 19.6609C32.4606 19.5957 32.3675 19.5957 32.3395 19.5957C32.2837 19.5957 32.172 19.5957 32.0323 19.605C31.9299 19.605 31.8555 19.605 31.8275 19.605C31.7903 19.605 31.7065 19.605 31.5855 19.605C31.4273 19.5957 31.3249 19.5957 31.269 19.5957C31.2318 19.5957 31.1387 19.5957 31.1387 19.6609C31.1387 19.6795 31.148 19.7353 31.2318 19.7353C31.2876 19.7353 31.3342 19.7446 31.3807 19.754C31.4552 19.7726 31.4924 19.8377 31.5017 19.9681C31.511 20.0425 31.511 20.117 31.511 20.2101V21.6158C31.511 21.8764 31.511 22.0719 31.511 22.2116C31.511 22.3512 31.5017 22.4536 31.4924 22.5374C31.4831 22.6491 31.4459 22.7142 31.39 22.7236C31.3435 22.7329 31.2876 22.7422 31.2411 22.7422C31.1573 22.7422 31.148 22.7794 31.148 22.8073C31.148 22.8353 31.1666 22.8818 31.2597 22.8818C31.3155 22.8818 31.4273 22.8818 31.5948 22.8725C31.7065 22.8725 31.7717 22.8725 31.7903 22.8725C31.8275 22.8725 31.8927 22.8725 31.9858 22.8725C32.1813 22.8818 32.3302 22.8818 32.4513 22.8818C32.5443 22.8818 32.563 22.8446 32.563 22.8073C32.563 22.7794 32.5537 22.7422 32.4699 22.7422C32.4513 22.7329 32.414 22.7329 32.3768 22.7236Z" fill="#333333"/>
<path fill-rule="evenodd" clip-rule="evenodd" d="M16.2272 26.4099C16.2737 26.4564 16.3296 26.503 16.3855 26.5402C16.4506 26.5774 16.5158 26.6147 16.5903 26.6426C16.6647 26.6705 16.7392 26.7078 16.8323 26.7357C16.9161 26.7729 16.9999 26.8008 17.0743 26.8288C17.1488 26.8567 17.2233 26.8753 17.2884 26.8939C17.3536 26.9126 17.4281 26.9126 17.4932 26.9126C17.5584 26.9126 17.6329 26.8939 17.698 26.8567C17.8004 26.8102 17.8842 26.7543 17.9494 26.6798C18.0239 26.6054 18.0797 26.5123 18.1169 26.4099C18.1635 26.3075 18.1821 26.1958 18.1821 26.0934C18.1821 25.991 18.1635 25.8792 18.1076 25.7675C18.0611 25.6744 17.9959 25.5907 17.9121 25.5255C17.8284 25.4603 17.7167 25.3952 17.577 25.3393L17.2884 25.2276L16.9905 25.9723L17.3164 26.1027L17.456 25.7396L17.5305 25.7675C17.5863 25.7862 17.6236 25.8141 17.6701 25.842C17.7073 25.8699 17.7353 25.9165 17.7632 25.9537C17.7818 26.0003 17.8004 26.0468 17.8004 26.1027C17.8004 26.1585 17.7911 26.2144 17.7725 26.2702C17.7539 26.3261 17.726 26.3633 17.6887 26.4006C17.6515 26.4378 17.6143 26.4564 17.577 26.475C17.5491 26.4843 17.5212 26.4936 17.4932 26.4936C17.4653 26.4936 17.4281 26.4936 17.3815 26.4843C17.335 26.475 17.2884 26.4564 17.2233 26.4378C17.1581 26.4192 17.0836 26.3819 16.9812 26.3447C16.8881 26.3075 16.8137 26.2795 16.7485 26.2516C16.6833 26.2237 16.6368 26.1958 16.5996 26.1771C16.5623 26.1492 16.5344 26.1306 16.5158 26.112C16.4972 26.0934 16.4785 26.0654 16.4692 26.0375C16.4506 26.0003 16.4413 25.9537 16.432 25.9072C16.432 25.8606 16.4413 25.8048 16.4599 25.7489C16.4972 25.6465 16.553 25.5814 16.6275 25.5441C16.702 25.5069 16.7857 25.4976 16.8881 25.5069L17.0464 25.1159C16.9533 25.0973 16.8695 25.088 16.7764 25.0973C16.6833 25.1066 16.5996 25.1252 16.5158 25.1624C16.432 25.1997 16.3575 25.2555 16.2831 25.33C16.2086 25.4045 16.1527 25.4976 16.1062 25.6093C16.0596 25.721 16.041 25.8234 16.041 25.9258C16.041 26.0282 16.0689 26.1306 16.1062 26.2237C16.1434 26.2982 16.1807 26.3633 16.2272 26.4099Z" fill="#6C41BF"/>
<path fill-rule="evenodd" clip-rule="evenodd" d="M33.0008 22.8632C33.0753 22.8632 33.1498 22.8632 33.2336 22.8632C33.308 22.8632 33.3732 22.8632 33.4197 22.8632C33.4663 22.8632 33.4942 22.8632 33.5035 22.8632C33.5408 22.8632 33.6152 22.8632 33.7269 22.8725C33.8293 22.8725 33.9038 22.8725 33.9597 22.8725C34.0435 22.8725 34.0621 22.826 34.0621 22.798C34.0621 22.7794 34.0528 22.7329 33.969 22.7329H33.9038C33.848 22.7329 33.8107 22.7236 33.7921 22.705C33.7735 22.6863 33.7642 22.6584 33.7642 22.6305C33.7642 22.5653 33.7828 22.4815 33.8293 22.3791L34.0714 21.7461L35.0395 21.7554L35.3747 22.6584C35.3747 22.6584 35.3933 22.7236 35.4119 22.7701C35.4305 22.8167 35.4491 22.8539 35.4957 22.8539C35.5422 22.8539 35.5888 22.8539 35.6446 22.8539C35.7005 22.8539 35.7656 22.8539 35.8308 22.8539L36.2404 22.8632C36.3242 22.8632 36.38 22.8632 36.408 22.8539C36.4638 22.8446 36.4731 22.8074 36.4731 22.7887C36.4731 22.7701 36.4638 22.7236 36.3893 22.7236C36.3242 22.7236 36.2683 22.7143 36.2125 22.705C36.1566 22.6956 36.1008 22.6584 36.0449 22.6026C35.9891 22.5467 35.9239 22.4257 35.8587 22.2581L34.9278 19.9495C34.8627 19.7819 34.8161 19.6795 34.7975 19.6423C34.7509 19.5399 34.7137 19.484 34.6672 19.484C34.6485 19.484 34.6206 19.4933 34.5927 19.5306C34.5741 19.5585 34.5555 19.5957 34.5275 19.6702L33.457 22.3419C33.4104 22.4629 33.3639 22.556 33.308 22.6119C33.2615 22.6677 33.1963 22.6956 33.1125 22.705C33.066 22.7143 33.0288 22.7143 32.9822 22.7143C32.9077 22.7143 32.8984 22.7608 32.8984 22.7794C32.8984 22.8167 32.9077 22.8632 33.0008 22.8632ZM34.5461 20.4522L34.9278 21.4855L34.1552 21.4948L34.5461 20.4522Z" fill="#333333"/>
<path fill-rule="evenodd" clip-rule="evenodd" d="M30.0772 17.1754L30.012 16.803L29.0439 16.9706L28.9601 16.4586L29.7886 16.319L29.7234 15.9559L28.8949 16.0955L28.8112 15.6022L29.7886 15.4346L29.7234 15.0715L28.3457 15.3043L28.6901 17.3988L30.0772 17.1754Z" fill="#6C41BF"/>
<path fill-rule="evenodd" clip-rule="evenodd" d="M17.39 28.8024C17.4086 28.6907 17.4179 28.5883 17.3993 28.4859C17.39 28.3835 17.3527 28.2904 17.2969 28.2159C17.2503 28.1414 17.1945 28.0856 17.1386 28.0483C17.0735 28.0018 17.0083 27.9739 16.9431 27.9459C16.878 27.918 16.8035 27.8994 16.7197 27.8808L16.487 27.8342L16.2543 27.7877C16.1798 27.7691 16.1053 27.7598 16.0308 27.7598C15.9564 27.7598 15.8912 27.7598 15.8167 27.7784C15.7423 27.797 15.6771 27.8249 15.6026 27.8715C15.5188 27.9273 15.4537 28.0018 15.4071 28.0856C15.3513 28.1694 15.314 28.2718 15.2954 28.3835L15.1465 29.1375L17.2317 29.5564L17.39 28.8024ZM17.0176 28.7651L16.9524 29.0723L15.5933 28.8024L15.6585 28.4952C15.6678 28.4207 15.6957 28.3649 15.7236 28.3183C15.7516 28.2718 15.7981 28.2345 15.8447 28.2159C15.8726 28.1973 15.9005 28.188 15.9284 28.188C15.9564 28.1787 16.0029 28.1787 16.0402 28.188C16.0867 28.188 16.1332 28.1973 16.1891 28.2066C16.245 28.2159 16.3194 28.2252 16.3939 28.2438C16.5522 28.2718 16.6732 28.309 16.757 28.3369C16.8407 28.3649 16.8966 28.4021 16.9431 28.4486C16.9804 28.4952 16.999 28.5417 17.0176 28.5976C17.0269 28.6348 17.0269 28.7 17.0176 28.7651Z" fill="#6C41BF"/>
<path fill-rule="evenodd" clip-rule="evenodd" d="M30.9807 16.3003C30.9807 16.384 30.99 16.4585 31.0087 16.5237C31.018 16.5981 31.0459 16.654 31.0738 16.7192C31.1017 16.7843 31.1483 16.8402 31.2041 16.8867C31.2786 16.9612 31.3624 17.0171 31.4648 17.0543C31.5579 17.0915 31.6696 17.1102 31.7813 17.1102C31.893 17.1102 32.0047 17.0915 32.0978 17.0543C32.2002 17.0171 32.2933 16.9519 32.3771 16.8588C32.4516 16.7843 32.4981 16.6912 32.526 16.5888C32.554 16.4864 32.5726 16.3561 32.5726 16.2072V15.9L31.772 15.9093V16.2537L32.163 16.2444V16.3282C32.163 16.384 32.1537 16.4306 32.1444 16.4864C32.1351 16.533 32.1071 16.5795 32.0699 16.6168C32.0327 16.654 31.9954 16.6819 31.9489 16.7099C31.9023 16.7285 31.8465 16.7378 31.7813 16.7471C31.7255 16.7471 31.6696 16.7378 31.6231 16.7192C31.5765 16.7005 31.5393 16.6726 31.5113 16.6354C31.4927 16.6168 31.4741 16.5888 31.4648 16.5609C31.4555 16.533 31.4369 16.4957 31.4276 16.4585C31.4183 16.412 31.4089 16.3561 31.4089 16.2909C31.4089 16.2258 31.3996 16.142 31.3996 16.0396C31.3996 15.9372 31.3996 15.8534 31.3996 15.7883C31.3996 15.7231 31.4089 15.6672 31.4183 15.6207C31.4276 15.5741 31.4369 15.5369 31.4462 15.5183C31.4555 15.4904 31.4741 15.4717 31.4927 15.4438C31.5207 15.4066 31.5579 15.3787 31.6044 15.36C31.651 15.3414 31.6975 15.3321 31.7627 15.3228C31.8651 15.3228 31.9582 15.3507 32.014 15.3973C32.0792 15.4531 32.1164 15.5276 32.1444 15.63L32.5633 15.6207C32.5447 15.5276 32.5167 15.4438 32.4795 15.3693C32.4423 15.2856 32.3864 15.2204 32.3212 15.1552C32.2561 15.0901 32.1723 15.0435 32.0792 15.0063C31.9861 14.9691 31.8744 14.9504 31.7534 14.9504C31.6324 14.9504 31.53 14.9691 31.4369 15.0156C31.3438 15.0528 31.26 15.118 31.1855 15.1925C31.1297 15.2483 31.0924 15.3042 31.0645 15.3693C31.0366 15.4345 31.018 15.4997 31.0087 15.5648C30.9993 15.6393 30.99 15.7138 30.99 15.7883C30.99 15.872 30.99 15.9558 30.99 16.0489C30.9714 16.1327 30.9714 16.2165 30.9807 16.3003Z" fill="#6C41BF"/>
<path fill-rule="evenodd" clip-rule="evenodd" d="M45.875 35.8399L46.2381 35.9237L46.4522 34.9835L48.165 35.3745L48.2581 34.9742L46.1915 34.4901L45.875 35.8399Z" fill="#6C41BF"/>
<path fill-rule="evenodd" clip-rule="evenodd" d="M17.1117 32.8798L16.7487 32.9263L16.8697 33.8851L15.1289 34.1086L15.1755 34.5182L17.2886 34.2482L17.1117 32.8798Z" fill="#6C41BF"/>
<path fill-rule="evenodd" clip-rule="evenodd" d="M18.6742 40.0756C18.7393 40.0384 18.8045 39.9918 18.8604 39.9453C18.9162 39.8988 18.9628 39.8522 19 39.7964C19.0372 39.7405 19.0652 39.6753 19.0838 39.6009C19.1117 39.4985 19.121 39.3961 19.1117 39.2937C19.1024 39.1913 19.0652 39.0889 19.0093 38.9865C18.9535 38.8841 18.879 38.8003 18.7952 38.7351C18.7114 38.67 18.6276 38.6327 18.5252 38.6048C18.4508 38.5862 18.3856 38.5769 18.3111 38.5862C18.2367 38.5955 18.1808 38.6048 18.1063 38.6327C18.0412 38.6606 17.9667 38.6886 17.9015 38.7258C17.8271 38.763 17.7526 38.8003 17.6781 38.8468C17.5943 38.8934 17.5292 38.9306 17.4547 38.9772C17.3895 39.0144 17.3244 39.0609 17.2685 39.1075C17.2127 39.154 17.1661 39.2006 17.1289 39.2564C17.0916 39.3123 17.0637 39.3774 17.0451 39.4519C17.0172 39.5543 17.0079 39.6567 17.0172 39.7591C17.0265 39.8615 17.0637 39.9639 17.1196 40.0663C17.1754 40.1687 17.2499 40.2525 17.3337 40.3177C17.4175 40.3828 17.5105 40.4294 17.6129 40.4573C17.6874 40.4759 17.7526 40.4852 17.8271 40.4759C17.8922 40.4666 17.9574 40.4573 18.0319 40.4294C18.097 40.4014 18.1622 40.3735 18.2367 40.3363C18.3111 40.299 18.3856 40.2618 18.4601 40.2153C18.5252 40.1594 18.5997 40.1129 18.6742 40.0756ZM18.0225 39.9639C17.9667 39.9918 17.9108 40.0198 17.8736 40.0291C17.8271 40.0477 17.7991 40.0477 17.7619 40.057C17.734 40.057 17.706 40.057 17.6781 40.0477C17.6316 40.0384 17.5943 40.0198 17.5478 39.9918C17.5105 39.9639 17.4733 39.9267 17.4454 39.8708C17.4175 39.8243 17.3988 39.7684 17.3988 39.7219C17.3988 39.6753 17.3988 39.6288 17.4175 39.5822C17.4268 39.5543 17.4361 39.5264 17.4547 39.4985C17.4733 39.4705 17.5012 39.4426 17.5292 39.4147C17.5664 39.3868 17.6129 39.3495 17.6688 39.3216C17.7247 39.2844 17.7991 39.2471 17.8829 39.1913C17.9667 39.1447 18.0412 39.0982 18.1063 39.0702C18.1622 39.0423 18.218 39.0144 18.2553 39.0051C18.3018 38.9865 18.3297 38.9865 18.367 38.9865C18.3949 38.9865 18.4321 38.9865 18.4601 38.9958C18.5066 39.0051 18.5439 39.0237 18.5904 39.0516C18.6276 39.0796 18.6649 39.1168 18.6928 39.1726C18.7207 39.2192 18.7393 39.275 18.7393 39.3216C18.7393 39.3681 18.7393 39.4147 18.7207 39.4612C18.7114 39.4892 18.7021 39.5171 18.6835 39.5357C18.6649 39.5636 18.6463 39.5916 18.609 39.6195C18.5718 39.6474 18.5252 39.6846 18.4694 39.7126C18.4135 39.7498 18.3391 39.787 18.2553 39.8429C18.1529 39.8894 18.0784 39.9267 18.0225 39.9639Z" fill="#6C41BF"/>
<path fill-rule="evenodd" clip-rule="evenodd" d="M17.9491 36.7522L16.5993 36.7801L17.7071 36.0075L17.5954 35.6724L15.3984 35.8027L15.5381 36.2123L16.9158 36.1099L15.7615 36.9012L15.8546 37.1897L17.2509 37.1432L16.078 37.8693L16.2176 38.2882L18.0608 37.078L17.9491 36.7522Z" fill="#6C41BF"/>
<path fill-rule="evenodd" clip-rule="evenodd" d="M45.0762 37.9718L45.4206 38.1115L45.793 37.1992L46.2677 37.3947L45.9512 38.1766L46.2957 38.3163L46.6122 37.5343L47.0776 37.7205L46.7053 38.6328L47.0497 38.7724L47.571 37.4784L45.6068 36.6779L45.0762 37.9718Z" fill="#6C41BF"/>
<path fill-rule="evenodd" clip-rule="evenodd" d="M44.4431 39.1542L45.5509 39.843L43.9963 39.871L43.8008 40.1875L45.6067 41.3046L45.8302 40.9601L44.7224 40.2712L46.2677 40.2433L46.4725 39.9268L44.6572 38.8004L44.4431 39.1542Z" fill="#6C41BF"/>
<path fill-rule="evenodd" clip-rule="evenodd" d="M20.7236 41.444L19.7182 42.2725L20.1836 40.7924L19.9509 40.5038L18.3125 41.8629L18.5732 42.1887L19.5785 41.3509L19.1131 42.8311L19.3551 43.1196L20.9842 41.7605L20.7236 41.444Z" fill="#6C41BF"/>
<path fill-rule="evenodd" clip-rule="evenodd" d="M33.5228 47.374C33.5879 47.3274 33.6438 47.2716 33.681 47.1971C33.7183 47.1226 33.7369 47.0296 33.7276 46.9178C33.7183 46.8248 33.6996 46.7503 33.6624 46.6758C33.6252 46.6013 33.5786 46.5455 33.5135 46.4989C33.4483 46.4524 33.3831 46.4152 33.2993 46.3965C33.2156 46.3779 33.1318 46.3686 33.0387 46.3779C32.9456 46.3872 32.8711 46.4058 32.7873 46.4431C32.7129 46.4803 32.6477 46.5269 32.5918 46.5827C32.536 46.6386 32.4988 46.7037 32.4708 46.7875C32.4429 46.862 32.4336 46.9551 32.4336 47.0482L32.8246 47.0109C32.8246 46.9272 32.8432 46.862 32.8897 46.8154C32.9363 46.7689 32.9921 46.741 33.0666 46.7317C33.1318 46.7224 33.1969 46.741 33.2528 46.7875C33.3087 46.8248 33.3366 46.8899 33.3459 46.983C33.3552 47.0575 33.3366 47.1226 33.2993 47.1785C33.2621 47.2344 33.1969 47.2623 33.1039 47.2716L33.048 47.2809L33.0759 47.616L33.1318 47.6067C33.2249 47.5974 33.2993 47.616 33.3552 47.6719C33.4111 47.7184 33.439 47.7929 33.4483 47.8767C33.4576 47.9698 33.439 48.0442 33.3831 48.1001C33.3366 48.1559 33.2714 48.1839 33.1876 48.1932C33.1504 48.1932 33.1132 48.1932 33.0759 48.1839C33.0387 48.1746 33.0108 48.1653 32.9828 48.1373C32.9549 48.1187 32.927 48.0908 32.9084 48.0535C32.8897 48.0163 32.8804 47.9791 32.8711 47.9325L32.4801 47.9698C32.4894 48.0815 32.5174 48.1746 32.5639 48.249C32.6105 48.3235 32.6663 48.3887 32.7315 48.4259C32.7967 48.4725 32.8711 48.5004 32.9549 48.519C33.0387 48.5376 33.1225 48.5376 33.2063 48.5283C33.2993 48.519 33.3831 48.5004 33.4576 48.4631C33.5321 48.4352 33.6065 48.3887 33.6624 48.3235C33.7183 48.2677 33.7648 48.1932 33.7927 48.1094C33.8207 48.0256 33.83 47.9325 33.8207 47.8301C33.8113 47.6998 33.7741 47.5974 33.7183 47.5322C33.6717 47.4671 33.6065 47.4112 33.5228 47.374Z" fill="#6C41BF"/>
<path fill-rule="evenodd" clip-rule="evenodd" d="M35.2922 46.0241L34.957 46.4896L35.0594 46.8992L35.3852 46.4244L35.8042 48.0908L36.1765 47.9977L35.6645 45.931L35.2922 46.0241Z" fill="#6C41BF"/>
<path fill-rule="evenodd" clip-rule="evenodd" d="M22.2028 43.7342L21.7839 43.8086L21.9794 42.7195L21.607 42.403L21.365 43.8738L20.2852 44.0693L20.6761 44.3951L21.8398 44.1624L21.2533 44.8792L21.5698 45.1398L22.9289 43.5107L22.6124 43.2408L22.2028 43.7342Z" fill="#6C41BF"/>
<path fill-rule="evenodd" clip-rule="evenodd" d="M31.0749 46.5921C31.019 46.5362 30.9539 46.4897 30.8794 46.4524C30.8049 46.4152 30.7118 46.3966 30.6187 46.3873C30.5256 46.378 30.4419 46.3873 30.3581 46.4152C30.2743 46.4338 30.1998 46.4804 30.1347 46.5269C30.0695 46.5828 30.0229 46.6479 29.9764 46.7224C29.9392 46.8062 29.9112 46.89 29.9019 47.0017C29.8926 47.1041 29.9019 47.1879 29.9299 47.2716C29.9578 47.3554 29.995 47.4206 30.0416 47.4764C30.0881 47.5323 30.144 47.5788 30.2091 47.6161C30.2743 47.6533 30.3395 47.6719 30.4139 47.6719C30.4419 47.6719 30.4698 47.6719 30.4977 47.6719C30.5256 47.6719 30.5536 47.6626 30.5815 47.6533L30.0788 48.5004L30.4977 48.5284L31.0097 47.644C31.0656 47.5509 31.1121 47.4578 31.1587 47.374C31.1959 47.281 31.2238 47.1879 31.2331 47.0948C31.2424 46.9924 31.2331 46.89 31.2052 46.8155C31.1773 46.7224 31.1307 46.6479 31.0749 46.5921ZM30.7491 47.2903C30.6932 47.3368 30.628 47.3647 30.5443 47.3554C30.4605 47.3461 30.3953 47.3182 30.3488 47.2623C30.3022 47.2065 30.2836 47.1227 30.2929 47.0296C30.3022 46.9272 30.3301 46.8527 30.386 46.8062C30.4419 46.7596 30.507 46.7317 30.5908 46.741C30.6746 46.7503 30.7304 46.7783 30.777 46.8341C30.8235 46.89 30.8421 46.9738 30.8328 47.0668C30.8421 47.1599 30.8049 47.2437 30.7491 47.2903Z" fill="#6C41BF"/>
<path fill-rule="evenodd" clip-rule="evenodd" d="M27.7982 46.3221L27.7051 46.7317L28.2078 46.4617L27.8261 48.1281L28.2078 48.2118L28.6825 46.1359L28.3009 46.0521L27.7982 46.3221Z" fill="#6C41BF"/>
<path d="M25.2578 45.6115L24.2852 45.932L24.6057 46.9046L25.5783 46.5841L25.2578 45.6115Z" fill="#6C41BF"/>
<path fill-rule="evenodd" clip-rule="evenodd" d="M46.332 33.6152L46.7044 33.6431L46.7696 32.6843L48.529 32.8053L48.5569 32.3957L46.4344 32.2374L46.332 33.6152Z" fill="#6C41BF"/>
<path fill-rule="evenodd" clip-rule="evenodd" d="M46.4433 31.3066L46.8063 31.2787L46.7319 30.2919L47.2439 30.2547L47.309 31.0925L47.6814 31.0553L47.6162 30.2175L48.1096 30.1802L48.1934 31.167L48.5658 31.1298L48.4447 29.7334L46.3223 29.9103L46.4433 31.3066Z" fill="#6C41BF"/>
<path fill-rule="evenodd" clip-rule="evenodd" d="M36.5479 36.1008L36.762 35.8495L36.6038 35.7192L37.032 35.2165L36.5852 34.8441L36.1569 35.3468L35.9987 35.2072L35.8125 35.4306C35.8125 35.4306 35.8125 35.4306 35.8218 35.4399C36.0452 35.5982 36.3245 35.803 36.5479 36.1008Z" fill="#333333"/>
<path fill-rule="evenodd" clip-rule="evenodd" d="M35.031 37.4878L35.4779 36.9572L35.6827 37.1341L35.8316 36.9572C35.7571 36.6966 35.5337 36.5197 35.1986 36.2683C35.18 36.2497 35.1614 36.2404 35.1427 36.2218L34.91 36.4918L35.1148 36.6593L34.668 37.1899L35.031 37.4878Z" fill="#333333"/>
<path fill-rule="evenodd" clip-rule="evenodd" d="M34.8907 38.6886L34.6487 39.3403H35.9333L35.8216 38.7538C36.2498 38.5397 36.585 37.9998 36.6501 37.3295C36.6594 37.2736 36.6594 37.2178 36.6594 37.1619C36.6594 37.1433 36.6594 37.1154 36.6594 37.0875C36.6594 37.0595 36.6594 37.0316 36.6594 37.0037C36.6594 36.9758 36.6501 36.9478 36.6501 36.9106C36.6501 36.892 36.6501 36.8734 36.6408 36.8547C36.6315 36.8268 36.6315 36.7896 36.6222 36.7616C36.6222 36.7523 36.6222 36.7337 36.6129 36.7244C36.6036 36.6872 36.5943 36.6592 36.5757 36.622C36.5757 36.6127 36.5663 36.6034 36.5663 36.6034C36.557 36.5662 36.5384 36.5289 36.5198 36.501C36.5198 36.501 36.5198 36.4917 36.5105 36.4917C36.4919 36.4544 36.4733 36.4172 36.4546 36.3893C36.4546 36.3893 36.4546 36.3893 36.4546 36.38C36.436 36.3427 36.4081 36.3148 36.3895 36.2776C36.1847 35.989 35.9054 35.7842 35.6727 35.6073C35.6634 35.598 35.6634 35.598 35.6541 35.598C35.5889 35.5515 35.533 35.5049 35.4772 35.4584L35.1141 35.9145C35.17 35.9518 35.2258 35.9983 35.2817 36.0448C35.3003 36.0542 35.3096 36.0728 35.3282 36.0821C35.5982 36.2776 35.8589 36.4731 35.9892 36.7523C35.9892 36.7523 35.9892 36.7523 35.9892 36.7616C36.0171 36.8175 36.0357 36.8734 36.045 36.9292C36.0543 36.9571 36.0543 36.9851 36.0637 37.013C36.0637 37.0316 36.0637 37.0595 36.073 37.0782C36.073 37.134 36.0823 37.1992 36.073 37.255C36.0171 37.8229 35.682 38.3163 35.1607 38.2697L33.8853 37.1992L33.5781 37.5622L34.8907 38.6886Z" fill="#333333"/>
<path fill-rule="evenodd" clip-rule="evenodd" d="M34.5084 38.67L33.5775 37.8881L33.3262 38.428L34.015 39.0051L34.5084 38.67Z" fill="#333333"/>
<path fill-rule="evenodd" clip-rule="evenodd" d="M27.2765 36.6872L26.1222 35.9425L25.2285 36.6128V36.6872H27.2765Z" fill="#333333"/>
<path fill-rule="evenodd" clip-rule="evenodd" d="M29.203 35.8401H26.5312L27.788 36.65L29.203 35.8401Z" fill="#333333"/>
<path fill-rule="evenodd" clip-rule="evenodd" d="M27.9082 37.0038V39.6383L29.3046 37.0038H27.9082Z" fill="#333333"/>
<path fill-rule="evenodd" clip-rule="evenodd" d="M25.2285 37.0038V37.1062C25.2285 37.1062 26.4294 38.4467 27.1369 39.2287L26.057 37.0038H25.2285Z" fill="#333333"/>
<path fill-rule="evenodd" clip-rule="evenodd" d="M36.3611 39.5544H33.4752L33.2891 40.0571H36.4635L36.3611 39.5544Z" fill="#333333"/>
<path fill-rule="evenodd" clip-rule="evenodd" d="M41.8541 24.3433L41.8354 24.2502H21.6161L21.5975 24.3433C21.5882 24.3806 20.9272 28.309 21.8302 32.7774C22.668 36.9106 25.0698 42.3657 31.7165 44.9071L31.7537 44.9257L31.7909 44.9071C38.5307 42.2726 40.9045 36.8175 41.7051 32.7122C42.5895 28.2532 41.8634 24.3806 41.8541 24.3433ZM31.1207 43.3246C26.9595 41.4441 24.5112 38.6049 23.3476 34.2854H31.1207V43.3246ZM28.2721 29.1096C28.2349 29.1748 28.1976 29.2492 28.2069 29.2958C28.2162 29.333 28.2442 29.3796 28.2442 29.4168C28.2442 29.454 28.2907 29.482 28.3 29.482C28.3186 29.4726 28.3279 29.4726 28.3466 29.4633C28.4024 29.4447 28.4117 29.482 28.4769 29.482C28.4862 29.482 28.5234 29.4913 28.5514 29.5099C28.5886 29.5285 28.5793 29.5844 28.5514 29.6123C28.5327 29.6402 28.5141 29.6588 28.4955 29.6681C28.3652 29.6961 28.2349 29.6123 28.2721 29.8636C28.2814 29.9195 28.3 29.966 28.3279 29.994C28.0952 30.0591 27.909 30.1243 27.6018 30.2267C27.6298 29.8916 27.667 29.575 27.7322 29.2865C27.9649 29.212 28.1325 29.1561 28.2721 29.1096ZM27.8066 29.0165C27.8253 28.942 27.8532 28.8676 27.8718 28.8024C28.2349 28.5976 28.4117 28.8117 28.449 28.8117C28.2255 28.8862 28.0673 28.9327 27.8066 29.0165ZM28.5607 30.1708C28.5234 30.2546 28.5141 30.3756 28.5327 30.4315C28.5421 30.478 28.5979 30.4594 28.6165 30.4966C28.6351 30.5246 28.6165 30.6177 28.6351 30.6456C28.6631 30.6921 28.7282 30.7573 28.7282 30.7666C28.7841 30.8318 28.8213 30.9435 28.8679 30.9528C28.8958 30.9528 28.9423 30.9621 28.961 30.99C28.9703 31.0086 29.0447 31.0086 29.0634 31.0273C29.1006 31.0645 29.1285 31.0831 29.1565 31.0738C29.1658 31.111 29.1658 31.1483 29.1751 31.1762C28.4303 31.3903 28.2255 31.4555 27.6205 31.651C27.6205 31.5951 27.6111 31.5393 27.6111 31.4834C27.7787 31.4462 27.7415 31.2879 27.7415 31.2786C27.7415 31.2321 27.7973 31.0924 27.7973 31.0924C27.9183 31.0738 27.8532 30.8225 27.9183 30.7666C27.9835 30.7201 27.909 30.5897 27.8532 30.6084C27.8066 30.627 27.7694 30.6549 27.7508 30.6921C27.7322 30.7294 27.667 30.7108 27.667 30.6921C27.667 30.6735 27.6391 30.6084 27.6018 30.5897C27.6018 30.5525 27.6018 30.506 27.6018 30.4687C28.0487 30.3291 28.2814 30.2546 28.5607 30.1708ZM29.6312 30.6363C29.6405 30.5618 29.7615 30.2639 29.6871 30.2081C29.6033 30.1429 29.8639 29.994 29.9291 30.0033C29.985 30.0126 29.985 29.9753 29.9943 29.9381C29.9943 29.9288 30.0129 29.845 30.0222 29.7892C30.2642 29.7333 30.5156 29.6774 30.7576 29.6309C30.8414 29.966 30.9345 30.3384 31.0369 30.7387C30.2829 30.8969 30.0781 30.9528 29.4357 31.111C29.4264 31.0645 29.4264 31.018 29.4171 30.9714H29.4264C29.5195 30.9528 29.5288 31.018 29.6219 30.8504C29.6498 30.7852 29.6126 30.7294 29.6312 30.6363ZM36.2127 32.1444C36.2034 32.1444 36.3989 32.135 36.3989 32.1444C36.4269 32.1723 36.4175 32.3305 36.4641 32.3398C36.5479 32.3585 36.5572 32.4329 36.6037 32.4981C36.6223 32.526 36.6782 32.5167 36.7154 32.554C36.7713 32.6098 36.8271 32.7215 36.8551 32.7588C36.9202 32.8518 37.0133 32.8239 37.0692 32.796C37.0878 32.8705 37.0971 32.9449 37.1157 33.0101H36.2407C36.2314 32.9822 36.2127 32.9356 36.2221 32.9077C36.2314 32.8891 36.25 32.8891 36.2593 32.8705C36.2779 32.8239 36.3151 32.7774 36.3245 32.7122C36.3338 32.6657 36.2407 32.5446 36.25 32.5074C36.25 32.4888 36.2965 32.5167 36.3431 32.5074C36.3617 32.4981 36.371 32.4422 36.371 32.4422C36.3245 32.4143 36.2034 32.3957 36.1103 32.3492C36.0917 32.3398 36.101 32.3026 36.0731 32.2933C35.9707 32.2561 35.8683 32.2468 35.8404 32.2095C35.7845 32.1444 35.8031 32.0513 35.8776 32.042C35.9335 32.0606 36.101 32.1071 36.2127 32.1444ZM35.8776 29.2492C35.8869 29.2399 35.8962 29.2399 35.9055 29.2306C35.9521 29.2027 36.0173 29.1748 36.0731 29.1654C36.129 29.1654 36.1848 29.1748 36.25 29.1841C36.2593 29.1841 36.2593 29.1934 36.2686 29.1934C36.2779 29.2027 36.3989 29.4633 36.3896 29.5192C36.371 29.575 36.1755 29.5471 36.0731 29.5564C36.0079 29.454 35.9428 29.3516 35.8776 29.2492ZM36.1383 32.8612C36.0917 32.8891 36.0079 32.8891 35.9428 32.8891C35.9055 32.8891 35.859 32.917 35.859 32.9822C35.859 33.0008 35.859 33.0101 35.859 33.0194H35.7007C35.6821 32.9263 35.6635 32.8239 35.6356 32.7308C35.6077 32.5912 35.5704 32.4609 35.5425 32.3212C35.6077 32.3957 35.6728 32.4516 35.7752 32.4609C35.8218 32.4609 35.859 32.4702 35.8962 32.4795C35.9428 32.4888 35.98 32.5353 36.0266 32.554C36.0824 32.5726 36.1383 32.6564 36.1569 32.7029C36.1755 32.7215 36.1941 32.8332 36.1383 32.8612ZM35.6821 29.9102C35.6821 30.1801 35.7752 30.0033 35.7845 30.0964C35.7845 30.1243 35.7659 30.1615 35.738 30.1894C35.5146 30.1894 35.2911 30.1988 35.0677 30.2081C35.0863 30.0684 35.2911 30.1336 35.3005 30.0033C35.3005 29.9846 35.1981 29.9753 35.2353 29.9288C35.2911 29.8636 35.1887 29.7985 35.1701 29.7519C35.1608 29.7147 35.3191 29.5285 35.2539 29.4726C35.2353 29.454 35.0305 29.3609 35.0305 29.3423C35.0305 29.3423 35.0119 29.1841 34.9933 29.1282C35.1422 29.1282 35.2632 29.1282 35.4122 29.1282C35.4122 29.1561 35.4029 29.1934 35.3935 29.2306C35.3656 29.3423 35.5704 29.3516 35.5797 29.3516C35.589 29.3516 35.617 29.3423 35.6449 29.3423C35.7007 29.4261 35.7473 29.5006 35.8031 29.5844C35.738 29.6216 35.6821 29.8543 35.6821 29.9102ZM35.5239 28.7652C35.4308 28.6441 35.3284 28.5324 35.226 28.4207C35.3191 28.3369 35.5146 28.2438 35.5704 28.3276C35.6356 28.4207 35.5146 28.6721 35.5239 28.7652ZM35.3284 28.8955C35.2353 28.8955 35.1515 28.8955 35.077 28.8955C35.0398 28.8955 35.0026 28.8955 34.9653 28.8955C34.9933 28.821 35.0305 28.7838 35.0119 28.6534C35.0119 28.6441 35.0398 28.6162 35.0584 28.5883C35.1608 28.6907 35.2446 28.7931 35.3284 28.8955ZM35.0584 32.3864C35.1329 32.3212 35.1701 32.1909 35.2446 32.1444C35.3005 32.3492 35.347 32.5633 35.3935 32.7774C35.4122 32.8612 35.4308 32.9449 35.4494 33.0194H34.565C34.565 33.0008 34.5743 32.9822 34.6023 32.9636C34.6581 32.917 34.6488 32.8518 34.6954 32.7774C34.7326 32.7215 34.8257 32.675 34.8257 32.6284C34.8257 32.6005 34.7698 32.5353 34.7698 32.4888C34.7698 32.4422 34.8164 32.4143 34.8443 32.3957C34.9095 32.3585 35.0119 32.4236 35.0584 32.3864ZM34.3882 31.2134C34.3509 31.2228 34.1927 31.3624 34.1554 31.2786C34.1275 31.2134 34.1834 31.1297 34.1461 31.0738C34.1275 31.0459 34.0717 31.0459 34.0437 31.0552C34.0344 31.0645 34.0158 31.0459 34.0158 31.0273C33.9599 30.8876 33.6434 30.7666 33.5503 30.6921C33.5131 30.6642 33.5224 30.627 33.5317 30.5897C33.9879 30.5339 34.2206 30.5153 34.6954 30.4873C34.6954 30.4966 34.6954 30.506 34.7047 30.506C34.714 30.5525 34.6581 30.5711 34.6767 30.6084C34.7978 30.7759 34.7885 30.7759 34.6302 30.8597C34.565 30.8876 34.4068 30.99 34.4068 31.0738C34.4161 31.139 34.4906 31.1762 34.3882 31.2134ZM30.9997 29.575C31.1765 29.5378 31.3255 29.5099 31.4465 29.4913C31.3999 29.5471 31.3255 29.6123 31.2882 29.6309C31.2696 29.6402 31.1858 29.8078 31.2231 29.8636C31.2603 29.9102 31.2882 29.9753 31.3441 30.0126C31.3162 30.0405 31.5117 29.9102 31.5023 29.966C31.4744 30.087 31.6606 29.9195 31.6699 29.9102C31.7816 29.8078 31.9026 29.6681 32.005 29.575C32.0423 29.5471 31.9492 29.4726 31.8654 29.4168C32.033 29.3889 32.2098 29.3609 32.4519 29.333C32.5915 29.6681 32.7311 30.0312 32.8615 30.4222C32.3495 30.4966 31.8189 30.5804 31.2789 30.6828C31.1858 30.2918 31.0927 29.9288 30.9997 29.575ZM31.3999 32.3212C30.8321 32.4329 30.2642 32.5726 29.7057 32.7215C29.6126 32.2374 29.5288 31.7813 29.4637 31.3531C30.0036 31.2134 30.5528 31.0831 31.0834 30.9714C31.1858 31.3996 31.2882 31.8558 31.3999 32.3212ZM30.8879 28.6721C30.8786 28.6534 30.9159 28.5883 30.8879 28.5697C30.8693 28.5604 30.8321 28.5138 30.8042 28.4766C31.1858 28.4021 31.5582 28.3369 31.9306 28.2904C32.0702 28.5324 32.2098 28.8024 32.3402 29.1003C31.8654 29.1654 31.3906 29.2492 30.9252 29.3423C30.8879 29.1934 30.8414 29.0444 30.8042 28.8955C30.8786 28.8303 30.9345 28.7465 30.8879 28.6721ZM34.4533 28.3556C34.5092 28.4952 34.4254 28.4021 34.3882 28.5883C34.3509 28.7652 34.4719 28.6721 34.323 28.821C34.3044 28.8396 34.2858 28.8769 34.2671 28.9234C34.2485 28.9234 34.2206 28.9234 34.202 28.9234C34.0251 28.6348 33.8296 28.3742 33.6341 28.1321C34.0251 28.1135 34.1741 28.1135 34.4813 28.1228C34.5092 28.1694 34.444 28.1973 34.4347 28.2345C34.444 28.2438 34.4347 28.3276 34.4533 28.3556ZM33.9227 28.942C33.3549 28.9886 33.1594 29.0072 32.6101 29.0724C32.4705 28.7745 32.3402 28.5045 32.2005 28.2625C32.6008 28.2159 32.9825 28.1787 33.3362 28.1508C33.541 28.3742 33.7365 28.6441 33.9227 28.942ZM32.7125 29.2958C33.178 29.2399 33.6248 29.1934 34.0623 29.1654C34.081 29.1934 34.0903 29.212 34.1089 29.2399C34.0437 29.3237 34.0996 29.3237 34.081 29.3889C34.0717 29.4261 33.9786 29.482 33.9599 29.5564C33.9041 29.7333 34.1182 29.9195 34.0996 29.9288C34.0996 29.9288 34.0903 29.9474 34.0996 29.9474C34.1182 29.9753 34.1461 30.0498 34.1834 30.087C34.2206 30.1243 34.2578 30.1336 34.2858 30.1336C34.2951 30.1336 34.3044 30.1243 34.3137 30.1243C34.3137 30.1243 34.3323 30.1243 34.3509 30.1243C34.3695 30.1243 34.3882 30.1243 34.4254 30.1057C34.4533 30.087 34.4813 30.0591 34.5092 30.0312C34.5371 30.0964 34.565 30.1615 34.6023 30.236C34.0623 30.2732 33.8203 30.3012 33.4014 30.3477C33.3921 30.3105 33.3549 30.2639 33.3176 30.236C33.299 30.2174 33.1594 30.3012 33.1128 30.3477C32.9825 29.9753 32.8429 29.6216 32.7125 29.2958ZM33.6527 31.381C33.6714 31.3624 33.7924 31.4462 33.6527 31.502C33.569 31.5393 33.6807 31.6044 33.7086 31.623C33.7924 31.6789 33.8948 31.2972 34.1089 31.4741C34.1275 31.4927 34.1089 31.5113 34.0903 31.5393C34.0717 31.5672 34.081 31.5765 34.0437 31.6044C33.9972 31.6324 33.9879 31.6417 33.9506 31.651C33.932 31.651 33.9599 31.7534 33.9693 31.7627C33.9879 31.8092 33.8669 31.893 33.7924 31.9489C33.7179 31.9582 33.6527 31.9675 33.5876 31.9768C33.5224 31.7348 33.4666 31.5113 33.4014 31.2879C33.6341 31.1762 33.5503 31.4648 33.6527 31.381ZM34.0623 32.1537C34.0717 32.1723 34.081 32.2002 34.0903 32.2095C34.1275 32.2374 34.1741 32.2374 34.1834 32.284C34.1927 32.3305 34.2485 32.3864 34.2765 32.4422C34.2951 32.4795 34.323 32.4888 34.3137 32.5167C34.3044 32.5353 34.2392 32.6005 34.2113 32.6098C34.1927 32.6098 34.1647 32.5819 34.1089 32.5912C34.053 32.6098 33.932 32.5912 33.9041 32.6284C33.8855 32.647 33.8017 32.675 33.7551 32.6843C33.7179 32.526 33.6807 32.3678 33.6434 32.2095C33.7831 32.1909 33.9227 32.1723 34.0623 32.1537ZM34.6395 27.7225C34.6395 27.7412 34.6209 27.797 34.6302 27.8063C34.6395 27.8156 34.6209 27.8156 34.593 27.8342C34.3602 27.6574 34.2299 27.5643 34.0623 27.4619C34.1834 27.4712 34.3044 27.4898 34.4161 27.5084C34.5464 27.5643 34.6674 27.6201 34.7978 27.6853C34.8164 27.7039 34.8257 27.7318 34.8071 27.7412C34.7885 27.7412 34.6767 27.6946 34.6395 27.7225ZM34.3044 27.8901C34.0251 27.8901 33.7365 27.8994 33.4293 27.9087C33.2525 27.7225 33.0756 27.5643 32.8987 27.4246C33.1221 27.4153 33.3455 27.4153 33.5503 27.4246C33.811 27.555 34.0623 27.7132 34.3044 27.8901ZM32.6101 27.2292C32.517 27.1733 32.4239 27.1268 32.3309 27.0802C32.3681 27.0802 32.4146 27.0802 32.4519 27.0802C32.6474 27.1081 32.8335 27.1547 33.029 27.2105C32.8987 27.2105 32.7777 27.2198 32.6101 27.2292ZM32.545 27.4526C32.7405 27.5829 32.9359 27.7505 33.1314 27.9366C32.787 27.9646 32.4239 28.0018 32.0702 28.0484C31.9492 27.8529 31.8282 27.6853 31.6978 27.5364C32.0609 27.4898 32.1912 27.4712 32.545 27.4526ZM31.5117 27.3316C31.4093 27.2385 31.3441 27.1733 31.2789 27.1268C31.4372 27.1081 31.5861 27.0988 31.7258 27.0895C31.884 27.1268 32.0423 27.1826 32.2098 27.2571C31.9864 27.2757 31.7537 27.3036 31.5117 27.3316ZM31.4186 27.5643C31.5489 27.7039 31.6792 27.8808 31.8002 28.0763C31.4558 28.1228 31.1114 28.1787 30.7669 28.2532C30.7483 28.1787 30.7204 28.067 30.7949 27.9553C30.8042 27.946 30.8135 27.8994 30.8135 27.8715C30.8228 27.8249 30.7483 27.7691 30.7297 27.7412C30.7204 27.7225 30.6925 27.7132 30.6552 27.6946C30.9252 27.6388 31.1765 27.6015 31.4186 27.5643ZM30.6831 27.4619C30.6738 27.4619 30.6645 27.4526 30.6645 27.4433C30.6645 27.4433 30.6366 27.4153 30.6087 27.4153C30.5528 27.4153 30.4877 27.434 30.4504 27.4246C30.4132 27.4153 30.4225 27.406 30.4318 27.3781C30.4504 27.3316 30.5621 27.3781 30.5714 27.2571C30.5714 27.2478 30.5714 27.2292 30.5807 27.2198C30.6925 27.2012 30.8135 27.1826 30.9252 27.164C31.0276 27.2105 31.1207 27.2757 31.2231 27.3595C31.0462 27.3967 30.8693 27.4246 30.6831 27.4619ZM30.6087 29.091C30.6366 29.1841 30.6645 29.2865 30.6925 29.3982C30.5249 29.4354 30.3573 29.4726 30.1898 29.5099V29.5006C30.3108 29.1748 30.5063 29.1561 30.6087 29.091ZM29.4543 32.7867C29.2216 32.8518 28.9889 32.917 28.7562 32.9915C28.7748 32.9542 28.8027 32.8891 28.8027 32.8705C28.8027 32.8146 28.6351 32.6377 28.6165 32.6284C28.5514 32.5912 28.4117 32.6284 28.3373 32.6098C28.3279 32.6098 28.1883 32.5353 28.1325 32.5074C28.1138 32.4981 28.1325 32.4888 28.1418 32.4795C28.1604 32.4702 28.1883 32.4516 28.1976 32.4516C28.2069 32.4516 28.1697 32.3771 28.1511 32.3678C28.1325 32.3492 28.1138 32.3212 28.0952 32.2933C28.0766 32.2654 28.0487 32.2188 28.0487 32.2188C28.0021 32.135 28.0487 32.0792 27.9277 32.0699C27.8997 32.0699 27.7694 32.284 27.6763 32.284C27.667 32.1537 27.6484 32.0326 27.6391 31.9116C28.3652 31.6696 28.5886 31.6044 29.2123 31.4276C29.2775 31.8651 29.3613 32.3212 29.4543 32.7867ZM27.5367 29.1096L27.4901 29.1282C27.4343 29.1468 27.3784 29.1654 27.3226 29.1934C27.0526 29.2958 26.8013 29.3889 26.5685 29.4913C26.6895 29.2306 26.8385 28.9886 26.9967 28.7745C27.0154 28.7652 27.034 28.7652 27.0433 28.7558C27.0619 28.8117 27.0712 28.8676 27.1178 28.8676C27.2015 28.8676 27.2946 28.9886 27.3412 28.9979C27.397 28.9979 27.5087 28.8955 27.6018 28.8862C27.5832 28.9513 27.5553 29.0258 27.5367 29.1096ZM26.7361 31.7999C26.8292 31.7534 26.8757 31.8837 26.8943 31.9116C26.7361 31.9768 26.5778 32.0326 26.4196 32.0978C26.3917 32.1071 26.3544 32.1257 26.3265 32.135C26.3265 32.014 26.3544 32.0606 26.373 31.9768C26.3823 31.9582 26.2706 31.9209 26.2334 31.9023C26.0938 31.7999 26.1496 31.6417 26.1869 31.5951C26.2241 31.5579 26.4661 31.3345 26.3917 31.2972C26.2427 31.2321 26.5127 30.9342 26.6058 30.9714C26.6989 31.0086 26.8106 30.7852 26.913 30.8225C27.0247 30.8597 26.9781 30.869 27.0061 30.9435C27.0247 30.99 26.9874 31.0552 26.9781 31.1017C26.9688 31.1483 26.885 31.1669 26.9037 31.2507C26.9223 31.3345 26.6802 31.623 26.6616 31.6417C26.6244 31.6696 26.6244 31.8558 26.7361 31.7999ZM26.6337 32.7215C26.7454 32.8146 26.6616 32.9077 26.5685 33.0194H26.0007C25.9914 32.8612 25.9821 32.7029 25.9821 32.5446C26.2334 32.4329 26.5034 32.3212 26.7826 32.2188C26.7919 32.2747 26.8013 32.3678 26.8013 32.3864C26.7919 32.5446 26.5034 32.6191 26.6337 32.7215ZM26.9595 30.115C26.9409 30.115 26.8106 30.0777 26.7547 30.0405C26.7175 30.0126 26.522 29.9102 26.4847 29.9102C26.4475 29.9102 26.4103 29.9288 26.3823 29.9474C26.401 29.9009 26.4196 29.845 26.4382 29.7892C26.7268 29.6588 27.0433 29.5378 27.3784 29.4075C27.4157 29.3982 27.4436 29.3889 27.4808 29.3702C27.425 29.6588 27.3877 29.9753 27.3598 30.3012C27.3133 30.3198 27.2667 30.3384 27.2202 30.3477C27.1736 30.3105 27.1643 30.2267 27.1457 30.2081C27.1085 30.1615 27.0433 30.1894 27.0247 30.1801C26.9967 30.1708 26.9967 30.115 26.9595 30.115ZM26.3637 29.3982C26.3265 29.3609 26.2706 29.3237 26.2427 29.3237C26.2334 29.3237 26.1682 29.2958 26.1124 29.2678C26.131 29.2399 26.1589 29.212 26.1775 29.1934C26.3079 29.1096 26.4568 29.0351 26.6151 28.9606C26.522 29.091 26.4382 29.2399 26.3637 29.3982ZM26.2334 29.5378C26.2427 29.5471 26.2613 29.5657 26.2799 29.5657C26.2706 29.5844 26.2613 29.5937 26.2613 29.6123C26.0379 29.7147 25.8145 29.8171 25.619 29.9288C25.6935 29.8078 25.7773 29.6868 25.861 29.5657C25.8797 29.5564 25.8983 29.5471 25.9076 29.5378C25.9262 29.5378 26.2148 29.5099 26.2334 29.5378ZM26.1403 29.9195C26.1124 29.994 26.0845 30.0777 26.0658 30.1522C26.0379 30.1429 26.01 30.1336 25.9727 30.1615C25.9076 30.2081 25.9541 30.2267 25.8517 30.2825C25.8424 30.2918 25.7028 30.4687 25.7307 30.5153C25.7586 30.5618 25.6655 30.7759 25.7214 30.8038C25.7773 30.8318 25.6842 30.9062 25.6842 30.9249C25.6842 30.9342 25.5538 30.9249 25.5259 30.869C25.4514 30.748 25.5538 30.6363 25.5445 30.599C25.5166 30.5339 25.4142 30.4687 25.349 30.4594C25.377 30.4129 25.3956 30.357 25.4235 30.3105C25.6283 30.1801 25.8703 30.0498 26.1403 29.9195ZM25.7493 33.0194H25.3397C25.3211 32.9822 25.3025 32.9263 25.3025 32.8705C25.4421 32.796 25.5911 32.7308 25.74 32.6564C25.74 32.7774 25.74 32.8984 25.7493 33.0194ZM25.3397 30.9249C25.3211 30.9993 25.2653 31.0366 25.2466 31.1017C25.228 31.1576 25.2187 31.1855 25.1908 31.2321C25.1256 31.2693 25.0605 31.3065 24.9953 31.3345C25.0605 31.1204 25.1349 30.9156 25.2187 30.7108C25.2653 30.7759 25.3583 30.8411 25.3397 30.9249ZM25.1815 31.7441C25.1815 31.7534 25.1349 31.7534 25.1163 31.7534C25.0977 31.7534 25.0884 31.7627 25.0791 31.772C25.0698 31.7813 25.0698 31.8278 25.0791 31.8558C25.0884 31.8837 24.9674 32.0606 24.9487 32.0792C24.9394 32.0885 24.865 32.0978 24.8091 32.0792C24.837 31.9302 24.865 31.7906 24.9022 31.651C24.9674 31.6137 25.0325 31.5765 25.0977 31.5393C25.2187 31.6137 25.1815 31.7348 25.1815 31.7441ZM24.7067 31.5113C24.6229 31.5672 24.5578 31.6044 24.5019 31.6417C24.5112 31.6044 24.5205 31.5579 24.4926 31.5206C24.474 31.502 24.4274 31.4276 24.4088 31.3438C24.474 31.2134 24.5578 31.0552 24.6788 30.8318C24.8557 30.6828 24.9301 30.627 25.0605 30.5432C24.9208 30.8411 24.7998 31.1669 24.7067 31.5113ZM29.7615 33.0194C29.7615 33.0008 29.7522 32.9915 29.7522 32.9729C30.3108 32.8239 30.8786 32.6936 31.4558 32.5726C31.4837 32.7215 31.521 32.8705 31.5582 33.0194H29.7615ZM31.3441 30.9249C31.8747 30.8225 32.4146 30.7294 32.9453 30.6549C32.9825 30.7666 33.0197 30.8783 33.0477 30.99C33.0197 30.9993 32.9918 31.0086 32.9825 31.018C32.9359 31.0273 32.9546 31.1855 32.9546 31.1948C32.9359 31.2321 32.9546 31.2879 32.9639 31.3345C32.9825 31.381 33.0383 31.3438 33.0477 31.3624C33.0849 31.4276 32.9359 31.6137 33.0663 31.623C33.0942 31.623 33.1501 31.6044 33.1966 31.5672C33.2338 31.7068 33.2711 31.8465 33.3083 31.9861C32.7498 32.0606 32.1912 32.1537 31.642 32.2654C31.5396 31.7441 31.4372 31.3065 31.3441 30.9249ZM31.7351 32.6377L31.7071 32.5167C32.4984 32.3678 32.7311 32.3305 33.3828 32.2374C33.4386 32.4609 33.4945 32.6936 33.5503 32.9542C33.5503 32.9729 33.5597 32.9915 33.5597 33.0194H31.8189C31.7909 32.8891 31.763 32.7681 31.7351 32.6377ZM32.3867 43.3246V34.2948H40.0853C39.052 37.7484 36.8365 41.2207 32.3867 43.3246ZM38.2421 32.405C38.2701 32.3864 38.2887 32.3771 38.3073 32.3771C38.3259 32.3771 38.2794 32.4422 38.2887 32.4981C38.298 32.554 38.3631 32.6191 38.3725 32.6843C38.3911 32.8146 38.3538 32.9542 38.3445 32.9915C38.3445 33.0008 38.3352 33.0101 38.3352 33.0194H37.3671C37.3485 32.917 37.3205 32.8053 37.3019 32.7029C37.274 32.5726 37.2367 32.4329 37.2088 32.3026C37.274 32.3119 37.395 32.3492 37.4136 32.3957C37.4322 32.4329 37.3857 32.4795 37.4136 32.4981C37.4415 32.5167 37.4788 32.5353 37.516 32.554C37.5533 32.5726 37.516 32.6191 37.5533 32.6377C37.6091 32.6657 37.6091 32.6377 37.665 32.675C37.7767 32.7588 37.8046 32.5633 37.8325 32.5446C37.907 32.4981 37.9629 32.5912 38.0559 32.5912C38.0932 32.5912 38.177 32.4609 38.2421 32.405ZM38.2328 31.3158C38.4004 31.3438 38.7634 31.3252 38.8845 31.6044C38.9869 31.8465 38.5586 31.7068 38.3818 31.6975C38.3352 31.5765 38.2794 31.4462 38.2328 31.3158ZM37.9349 31.7068C37.8046 31.6789 37.7394 31.7441 37.665 31.8092C37.516 31.7999 37.3578 31.7813 37.1902 31.772V31.7627C37.2461 31.6137 37.1902 31.4369 37.2554 31.2786C37.274 31.2414 37.3485 31.1669 37.4136 31.1762C37.4415 31.1762 37.4509 31.2414 37.4974 31.26C37.516 31.2693 37.5253 31.3065 37.5346 31.3438C37.5346 31.3624 37.5812 31.3345 37.6184 31.3438C37.665 31.3624 37.7301 31.4089 37.7674 31.381C37.8325 31.3345 37.8977 31.2786 37.9442 31.26H37.9535C38.0094 31.3996 38.0653 31.5486 38.1211 31.6882C38.0653 31.6975 37.9815 31.7161 37.9349 31.7068ZM40.4205 33.0194H40.3925C39.2661 29.3051 35.8125 26.5868 31.7258 26.5868C27.6484 26.5868 24.1854 29.2958 23.059 33.0194H23.0497C23.0497 33.0101 23.0404 32.9915 23.0404 32.9822C22.4167 29.845 22.547 26.9592 22.6866 25.4604H40.7742C40.979 27.2478 41.0814 30.0591 40.4205 33.0194Z" fill="#333333"/>
<path fill-rule="evenodd" clip-rule="evenodd" d="M27.6302 39.5731V37.0131H26.3828L27.6302 39.5731Z" fill="#333333"/>
<path fill-rule="evenodd" clip-rule="evenodd" d="M28.4395 39.2659L30.4316 37.1062V37.0131H29.631L28.4395 39.2659Z" fill="#333333"/>
<path fill-rule="evenodd" clip-rule="evenodd" d="M30.4309 36.6873V36.6128L29.5652 35.9891L28.3457 36.6873H30.4309Z" fill="#333333"/>
<rect x="0.5" y="0.5" width="63" height="63" rx="31.5" stroke="#E9E9E9"/>
</svg>
