<svg width="350" height="310" viewBox="0 0 350 310" fill="none" xmlns="http://www.w3.org/2000/svg">
<path d="M188.968 119.44V34.8721H58.7383V291.603H217.264V183.199L188.968 119.44Z" fill="#000066"/>
<path opacity="0.2" d="M217.254 183.199V291.603H103.513L90.5528 267.615L122.367 249.002L86.1197 219.053L113.501 185.243L82.1865 157.47L98.9851 108.993L74.3579 110.63V61.0836L58.7383 77.1606V34.8721H188.958V119.44L217.254 183.199Z" fill="black"/>
<path opacity="0.2" d="M188.957 34.8719H113.5V119.43H188.957V34.8719Z" fill="white"/>
<path opacity="0.4" d="M113.5 119.44L141.796 183.199H217.263L188.966 119.44H113.5Z" fill="white"/>
<path opacity="0.2" d="M217.254 183.199H141.797V291.603H217.254V183.199Z" fill="white"/>
<path opacity="0.3" d="M169.047 132.574L184.346 168.144H201.39L184.346 132.574H169.047Z" fill="black"/>
<path d="M196.909 147.478C193.806 139.908 189.203 135.498 184.166 133.416H170.961L186.052 167.34H199.257C200.738 162.362 199.729 154.329 196.909 147.478Z" fill="#000066"/>
<path opacity="0.7" d="M199.22 167.34H186.015L170.924 133.416H184.129C185.166 133.845 186.163 134.364 187.109 134.968C190.708 137.356 193.606 140.666 195.504 144.554C196.008 145.505 196.465 146.481 196.872 147.478C198.438 151.285 199.421 155.308 199.786 159.41C200.082 162.066 199.89 164.754 199.22 167.34V167.34Z" fill="white"/>
<path opacity="0.1" d="M186.015 167.34L170.924 133.416C175.961 135.498 180.563 139.945 183.667 147.478C186.525 154.329 187.534 162.362 186.015 167.34Z" fill="black"/>
<path opacity="0.4" d="M191.889 147.014C191.767 147.572 188.777 143.588 187.749 142.982C186.721 142.377 187.286 147.581 185.438 145.358C184.166 143.894 182.692 142.619 181.061 141.573C178.439 137.787 176.496 136.898 176.496 136.898C177.147 135.062 179.08 136.236 180.071 135.952C181.061 135.668 180.326 134.059 181.693 134.684C183.061 135.308 184.523 137.343 185.211 135.952C185.457 135.441 186.249 135.138 187.145 135.005C190.744 137.394 193.642 140.703 195.54 144.591C194.269 143.663 193.05 142.665 191.889 141.601C190.899 140.532 192.012 146.455 191.889 147.014Z" fill="#000066"/>
<path opacity="0.4" d="M199.221 167.34H186.469C186.779 164.718 186.865 162.074 186.723 159.438C186.723 159.438 189.855 157.688 190.006 158.189C190.157 158.691 190.128 160.555 191.194 160.309C192.26 160.063 194.184 158.123 194.345 159.211C194.505 160.299 194.646 163.431 196.127 162.428C197.608 161.425 198.589 158.114 199.825 159.41C200.108 162.068 199.904 164.756 199.221 167.34V167.34Z" fill="#000066"/>
<path opacity="0.3" d="M150.182 132.574L165.481 168.144H182.524L165.481 132.574H150.182Z" fill="black"/>
<path d="M178.045 147.478C174.942 139.908 170.339 135.498 165.303 133.416H152.098L167.189 167.34H180.394C181.875 162.362 180.866 154.329 178.045 147.478Z" fill="#000066"/>
<path opacity="0.7" d="M178.045 147.478C174.942 139.908 170.339 135.498 165.303 133.416H152.098L167.189 167.34H180.394C181.875 162.362 180.866 154.329 178.045 147.478Z" fill="white"/>
<path opacity="0.1" d="M167.15 167.34L152.059 133.416C157.095 135.498 161.698 139.945 164.801 147.478C167.659 154.329 168.669 162.362 167.15 167.34Z" fill="black"/>
<path d="M168.885 141.564L175.289 146.636L173.356 152.171L166.574 146.863L168.885 141.564Z" fill="#000066"/>
<path d="M157.746 133.416C158.342 134.253 159.141 134.925 160.066 135.369C160.991 135.812 162.014 136.013 163.038 135.952C166.518 135.697 163.905 133.416 163.905 133.416H157.746Z" fill="#000066"/>
<path d="M171.49 167.34L170.934 164.274H172.99L174.357 165.807H175.848L177.093 164.274H179.526L178.206 167.34H171.49Z" fill="#000066"/>
<path opacity="0.3" d="M131.318 132.574L146.617 168.144H163.661L146.617 132.574H131.318Z" fill="black"/>
<path d="M159.182 147.478C156.079 139.908 151.476 135.498 146.439 133.416H133.234L148.326 167.34H161.531C163.012 162.362 162.002 154.329 159.182 147.478Z" fill="#000066"/>
<path opacity="0.7" d="M159.182 147.478C156.079 139.908 151.476 135.498 146.439 133.416H133.234L148.326 167.34H161.531C163.012 162.362 162.002 154.329 159.182 147.478Z" fill="white"/>
<path opacity="0.1" d="M148.287 167.34L133.195 133.416C138.232 135.498 142.835 139.945 145.938 147.478C148.796 154.329 149.805 162.362 148.287 167.34Z" fill="black"/>
<path d="M150.022 141.564L156.426 146.636L154.493 152.171L147.711 146.863L150.022 141.564Z" fill="#000066"/>
<path d="M138.883 133.416C139.479 134.253 140.277 134.925 141.203 135.369C142.128 135.812 143.15 136.013 144.174 135.952C147.655 135.697 145.042 133.416 145.042 133.416H138.883Z" fill="#000066"/>
<path d="M152.627 167.339L152.07 164.274H154.127L155.494 165.807H156.984L158.229 164.274H160.663L159.342 167.339H152.627Z" fill="#000066"/>
<path d="M162.199 172.383H192.269L195.476 177.994H164.878L162.199 172.383Z" fill="#000066"/>
<path d="M122.367 122.723L125.225 128.335H142.759L139.901 122.723H122.367Z" fill="#000066"/>
<path opacity="0.3" d="M182.523 58.6426H120.809V101.688H182.523V58.6426Z" fill="white"/>
<path opacity="0.4" d="M169.047 44.2308H135.922V49.8422H169.047V44.2308Z" fill="black"/>
<path opacity="0.1" d="M131.62 63.5061H126.518V68.6254H131.62V63.5061Z" fill="black"/>
<path opacity="0.1" d="M132.682 75.7914L129.074 72.1715L125.466 75.7914L129.074 79.4113L132.682 75.7914Z" fill="black"/>
<path opacity="0.1" d="M131.809 85.5255C131.809 86.0683 131.648 86.5988 131.348 87.0501C131.047 87.5014 130.62 87.8531 130.12 88.0608C129.62 88.2685 129.07 88.3229 128.54 88.217C128.009 88.1111 127.522 87.8497 127.139 87.466C126.757 87.0822 126.496 86.5932 126.39 86.0609C126.285 85.5286 126.339 84.9768 126.546 84.4754C126.753 83.974 127.104 83.5454 127.554 83.2438C128.003 82.9423 128.532 82.7814 129.073 82.7814C129.799 82.7814 130.494 83.0705 131.007 83.5851C131.52 84.0997 131.809 84.7977 131.809 85.5255V85.5255Z" fill="black"/>
<path opacity="0.1" d="M132.326 93.2001H125.809V97.3163H132.326V93.2001Z" fill="black"/>
<path opacity="0.1" d="M174.735 65.2473H136.422V66.0611H174.735V65.2473Z" fill="black"/>
<path opacity="0.1" d="M174.735 75.3911H136.422V76.2049H174.735V75.3911Z" fill="black"/>
<path opacity="0.1" d="M174.735 84.5792H136.422V85.393H174.735V84.5792Z" fill="black"/>
<path opacity="0.1" d="M174.735 94.714H136.422V95.5278H174.735V94.714Z" fill="black"/>
<path d="M201.38 12.0388H58.7383V34.8722H201.38V12.0388Z" fill="#000066"/>
<path opacity="0.3" d="M201.389 12.0388H122.367V34.8722H201.389V12.0388Z" fill="white"/>
<path opacity="0.7" d="M198.551 32.0336V14.8778L125.188 14.8778V32.0336H198.551Z" fill="white"/>
<path opacity="0.2" d="M113.5 34.8719L122.366 44.2305H189.089V34.8719H113.5Z" fill="black"/>
<g opacity="0.2">
<path d="M200.4 260.055H165.879V199.494H200.4V260.055ZM166.822 259.108H199.457V200.44H166.822V259.108Z" fill="black"/>
</g>
<path opacity="0.2" d="M58.7383 85.5257L69.1325 76.1956V120.973L87.0441 119.44L72.8865 160.659L98.9757 187.23L74.7446 221.674L106.503 247.876L79.9511 263.225L93.7597 291.603H58.7383V85.5257Z" fill="white"/>
<path d="M97.0619 134.145H91.4027C83.3288 134.145 76.7734 147.165 76.7734 163.233C76.7734 179.301 83.3288 192.369 91.4027 192.369H97.0619C105.145 192.369 111.691 179.348 111.691 163.271C111.691 147.194 105.145 134.145 97.0619 134.145Z" fill="#0A2234"/>
<path opacity="0.2" d="M91.4027 192.33C99.4821 192.33 106.032 179.303 106.032 163.233C106.032 147.163 99.4821 134.135 91.4027 134.135C83.3232 134.135 76.7734 147.163 76.7734 163.233C76.7734 179.303 83.3232 192.33 91.4027 192.33Z" fill="white"/>
<path d="M88.996 146.512H85.7419C81.1013 146.512 77.3379 153.997 77.3379 163.233C77.3379 172.468 81.1107 179.953 85.7419 179.953H88.996C93.6366 179.953 97.4094 172.468 97.4094 163.233C97.4094 153.997 93.6366 146.512 88.996 146.512Z" fill="#0A2234"/>
<path opacity="0.3" d="M85.7419 179.953C90.3833 179.953 94.1459 172.467 94.1459 163.233C94.1459 153.998 90.3833 146.512 85.7419 146.512C81.1005 146.512 77.3379 153.998 77.3379 163.233C77.3379 172.467 81.1005 179.953 85.7419 179.953Z" fill="white"/>
<path d="M84.3837 153.127H82.4218C79.5922 153.127 77.3379 157.65 77.3379 163.233C77.3379 168.816 79.611 173.339 82.4218 173.339H84.3837C87.2133 173.339 89.4676 168.816 89.4676 163.233C89.4676 157.65 87.1945 153.127 84.3837 153.127Z" fill="#0A2234"/>
<path opacity="0.2" d="M87.4963 163.233C87.4963 168.816 85.2231 173.339 82.4218 173.339C79.6205 173.339 77.3379 168.816 77.3379 163.233C77.3379 157.65 79.611 153.127 82.4218 153.127C85.2326 153.127 87.4963 157.65 87.4963 163.233Z" fill="white"/>
<path d="M83.1393 162.656C83.2089 161.703 82.9004 160.761 82.281 160.035H79.1401V86.5288C80.0349 86.0426 80.7426 85.2708 81.1511 84.3357C81.5596 83.4007 81.6457 82.3556 81.3957 81.3659C81.1457 80.3763 80.5739 79.4985 79.7707 78.8715C78.9676 78.2445 77.979 77.9041 76.9613 77.9041C75.9436 77.9041 74.955 78.2445 74.1519 78.8715C73.3488 79.4985 72.7769 80.3763 72.5269 81.3659C72.2769 82.3556 72.363 83.4007 72.7715 84.3357C73.18 85.2708 73.8877 86.0426 74.7825 86.5288V164.615C74.7879 165.131 74.9757 165.629 75.3123 166.02C75.649 166.411 76.1129 166.67 76.6216 166.751C77.1304 166.831 77.6511 166.728 78.0914 166.46C78.5317 166.192 78.8632 165.776 79.0269 165.286H82.281C82.9001 164.556 83.2083 163.612 83.1393 162.656V162.656Z" fill="#0A2234"/>
<path d="M173.65 128.836C173.555 128.837 173.463 128.807 173.386 128.751C172.673 128.242 171.93 127.778 171.16 127.36C171.049 127.304 170.965 127.205 170.926 127.086C170.887 126.967 170.897 126.838 170.953 126.726C171.009 126.615 171.107 126.53 171.226 126.491C171.344 126.452 171.473 126.462 171.584 126.518C172.399 126.963 173.181 127.465 173.924 128.023C174.024 128.095 174.092 128.204 174.113 128.326C174.134 128.448 174.107 128.574 174.037 128.676C173.989 128.73 173.929 128.774 173.862 128.801C173.795 128.829 173.723 128.841 173.65 128.836Z" fill="white"/>
<path d="M189.627 153.997C189.52 153.998 189.416 153.962 189.332 153.895C189.248 153.827 189.189 153.734 189.165 153.628C186.515 141.62 180.299 134.372 175.545 130.417C175.45 130.334 175.391 130.218 175.381 130.092C175.37 129.967 175.409 129.842 175.489 129.745C175.528 129.697 175.576 129.657 175.631 129.628C175.685 129.599 175.745 129.582 175.807 129.576C175.868 129.571 175.93 129.578 175.989 129.597C176.048 129.617 176.102 129.647 176.149 129.688C181.016 133.747 187.373 141.157 190.09 153.42C190.103 153.481 190.105 153.544 190.095 153.606C190.084 153.667 190.062 153.726 190.028 153.779C189.995 153.832 189.952 153.877 189.901 153.913C189.85 153.949 189.792 153.975 189.731 153.988L189.627 153.997Z" fill="white"/>
<path d="M190.722 161.416C190.604 161.417 190.489 161.372 190.402 161.291C190.314 161.21 190.26 161.1 190.251 160.981C190.147 159.628 189.996 158.284 189.798 156.978C189.787 156.917 189.789 156.855 189.803 156.794C189.816 156.734 189.842 156.677 189.878 156.627C189.914 156.576 189.96 156.534 190.012 156.502C190.065 156.469 190.124 156.448 190.185 156.439C190.246 156.429 190.309 156.432 190.369 156.447C190.429 156.462 190.486 156.489 190.536 156.526C190.586 156.563 190.628 156.609 190.66 156.662C190.692 156.716 190.713 156.775 190.722 156.836C190.93 158.161 191.081 159.533 191.194 160.905C191.2 161.03 191.158 161.152 191.077 161.246C190.997 161.341 190.884 161.402 190.76 161.416H190.722Z" fill="white"/>
<path d="M179.384 124.37C179.273 124.369 179.166 124.329 179.082 124.256C178.372 123.66 177.633 123.101 176.866 122.581C176.768 122.51 176.701 122.405 176.678 122.285C176.656 122.166 176.68 122.043 176.745 121.941C176.81 121.839 176.912 121.767 177.029 121.738C177.146 121.709 177.27 121.726 177.375 121.786C178.175 122.326 178.947 122.907 179.686 123.527C179.781 123.61 179.84 123.726 179.851 123.852C179.861 123.977 179.823 124.102 179.743 124.199C179.7 124.253 179.645 124.296 179.583 124.326C179.521 124.355 179.453 124.37 179.384 124.37V124.37Z" fill="white"/>
<path d="M188.251 134.363C188.173 134.363 188.097 134.343 188.029 134.304C187.962 134.266 187.905 134.211 187.864 134.145C186.328 131.808 184.582 129.616 182.648 127.597C182.6 127.553 182.561 127.5 182.535 127.441C182.508 127.382 182.493 127.318 182.492 127.252C182.491 127.187 182.504 127.123 182.529 127.063C182.554 127.003 182.591 126.948 182.637 126.903C182.684 126.858 182.74 126.823 182.801 126.801C182.862 126.779 182.927 126.769 182.991 126.773C183.056 126.776 183.119 126.794 183.177 126.823C183.235 126.853 183.286 126.894 183.328 126.944C185.301 129.003 187.081 131.239 188.647 133.624C188.716 133.729 188.74 133.856 188.715 133.978C188.69 134.101 188.619 134.208 188.515 134.277C188.438 134.332 188.346 134.362 188.251 134.363Z" fill="white"/>
<path d="M194.068 147.033C193.965 147.034 193.864 147.001 193.781 146.939C193.698 146.878 193.637 146.791 193.606 146.692C192.565 143.019 191.063 139.492 189.135 136.198C189.073 136.091 189.054 135.964 189.084 135.844C189.114 135.723 189.19 135.62 189.296 135.555C189.405 135.492 189.534 135.475 189.656 135.507C189.777 135.539 189.882 135.617 189.947 135.725C191.908 139.088 193.445 142.683 194.521 146.427C194.538 146.488 194.543 146.551 194.536 146.613C194.529 146.675 194.509 146.735 194.478 146.79C194.448 146.845 194.406 146.893 194.357 146.931C194.308 146.969 194.251 146.998 194.191 147.014C194.152 147.029 194.11 147.036 194.068 147.033Z" fill="white"/>
<path d="M195.533 154.338C195.417 154.339 195.305 154.297 195.218 154.22C195.131 154.143 195.075 154.037 195.061 153.922C194.865 152.277 194.582 150.644 194.212 149.029C194.185 148.904 194.208 148.773 194.277 148.664C194.346 148.556 194.455 148.48 194.58 148.452C194.705 148.425 194.836 148.448 194.944 148.517C195.052 148.586 195.128 148.696 195.156 148.821C195.524 150.449 195.816 152.124 196.023 153.808C196.031 153.87 196.027 153.933 196.01 153.994C195.993 154.054 195.965 154.111 195.926 154.16C195.888 154.209 195.84 154.251 195.785 154.281C195.731 154.312 195.671 154.331 195.608 154.338H195.533Z" fill="white"/>
<path d="M190.523 129.659C190.455 129.659 190.389 129.644 190.327 129.616C190.265 129.589 190.21 129.549 190.165 129.498C189.627 128.858 189.057 128.245 188.457 127.663C188.412 127.62 188.376 127.569 188.352 127.512C188.327 127.455 188.314 127.394 188.314 127.332C188.314 127.269 188.327 127.208 188.352 127.151C188.376 127.094 188.412 127.043 188.457 127C188.501 126.956 188.553 126.921 188.611 126.897C188.668 126.873 188.73 126.86 188.792 126.86C188.854 126.86 188.916 126.873 188.974 126.897C189.031 126.921 189.083 126.956 189.127 127C189.754 127.599 190.349 128.231 190.91 128.893C190.989 128.989 191.028 129.112 191.017 129.236C191.006 129.36 190.947 129.474 190.853 129.555C190.761 129.631 190.642 129.669 190.523 129.659V129.659Z" fill="white"/>
<path d="M200.643 150.648C200.535 150.648 200.429 150.61 200.345 150.541C200.261 150.472 200.203 150.376 200.181 150.269C198.754 143.293 195.774 136.73 191.466 131.07C191.399 130.97 191.372 130.848 191.391 130.729C191.41 130.61 191.473 130.503 191.568 130.43C191.663 130.356 191.783 130.321 191.902 130.333C192.022 130.345 192.132 130.402 192.211 130.492C196.612 136.264 199.653 142.961 201.106 150.08C201.128 150.203 201.102 150.329 201.034 150.434C200.965 150.538 200.859 150.611 200.738 150.638L200.643 150.648Z" fill="white"/>
<path d="M201.558 157.574C201.438 157.574 201.322 157.529 201.235 157.446C201.147 157.363 201.094 157.25 201.087 157.13C201.002 155.748 200.86 154.347 200.662 152.985C200.646 152.861 200.678 152.736 200.752 152.635C200.826 152.534 200.936 152.466 201.059 152.445C201.182 152.429 201.307 152.461 201.407 152.535C201.508 152.609 201.575 152.72 201.596 152.843C201.794 154.243 201.945 155.682 202.03 157.073C202.035 157.135 202.028 157.198 202.008 157.257C201.988 157.317 201.957 157.372 201.915 157.419C201.874 157.465 201.823 157.503 201.767 157.53C201.71 157.557 201.649 157.572 201.587 157.574H201.558Z" fill="white"/>
<path d="M229.819 91.4869C229.819 91.4869 215.529 109.665 206.173 110.043L205.314 117.102H211.549C211.549 117.102 230.366 99.8708 231.602 95.9155C232.837 91.9601 229.819 91.4869 229.819 91.4869Z" fill="#000066"/>
<path d="M248.729 88.0238C248.729 88.0238 275.865 87.2857 277.686 85.0147C279.506 82.7436 272.272 51.7819 272.272 51.7819C272.232 50.0289 271.796 48.3078 270.998 46.7478C270.304 45.1433 269.458 43.6096 268.471 42.1678L261.613 49.4257C262.831 50.9006 263.971 52.4388 265.028 54.034C265.735 55.3114 268.027 55.4912 268.027 55.4912C268.027 55.4912 271.395 79.479 270.395 79.6872C269.395 79.8954 246.428 77.8704 246.428 77.8704L248.729 88.0238Z" fill="#E4897B"/>
<path d="M274.639 57.6204L267.178 57.3649L268.923 77.5108C268.923 77.5108 259.378 76.1577 250.059 75.3439L253.643 89.9542C262.009 89.0079 279.11 86.8978 280.241 85.5257C281.788 83.7089 274.639 57.6204 274.639 57.6204Z" fill="#000066"/>
<path opacity="0.7" d="M280.234 85.5257C279.677 86.1881 275.461 87.0113 270.302 87.7967C264.708 88.6484 257.993 89.4527 253.635 89.9542L250.051 75.3439C259.379 76.1577 268.915 77.5108 268.915 77.5108L267.17 57.3649L274.631 57.6204C274.631 57.6204 281.79 83.7089 280.234 85.5257Z" fill="white"/>
<path opacity="0.2" d="M270.302 87.7966C264.708 88.6482 257.993 89.4525 253.635 89.9541L250.051 75.3438C250.051 75.3438 262.303 79.0342 270.302 87.7966Z" fill="black"/>
<path d="M215.728 65.6539C215.605 67.2634 215.288 68.852 214.785 70.3853C215.198 70.6311 215.67 70.757 216.15 70.7486C216.63 70.7402 217.098 70.598 217.502 70.3379L215.728 65.6539Z" fill="#DE5753"/>
<path d="M213.794 64.6226C213.888 65.2471 214.303 65.6918 214.737 65.6256C215.171 65.5594 215.407 65.0105 215.313 64.3954C215.218 63.7804 214.803 63.3262 214.369 63.3924C213.936 63.4586 213.7 64.0264 213.794 64.6226Z" fill="#0A2234"/>
<path d="M212.964 61.3672C212.886 61.3715 212.81 61.3485 212.748 61.3021C212.686 61.2557 212.642 61.1889 212.624 61.1134C212.606 61.0379 212.615 60.9585 212.65 60.889C212.684 60.8195 212.742 60.7644 212.813 60.7332C213.322 60.4367 213.891 60.2612 214.478 60.2201C215.065 60.1791 215.654 60.2737 216.199 60.4966C216.237 60.5171 216.271 60.545 216.299 60.5787C216.327 60.6124 216.347 60.6512 216.36 60.693C216.373 60.7347 216.377 60.7785 216.373 60.822C216.369 60.8654 216.356 60.9076 216.336 60.9461C216.315 60.9846 216.287 61.0187 216.254 61.0465C216.22 61.0742 216.182 61.0951 216.14 61.1078C216.098 61.1205 216.055 61.1249 216.011 61.1207C215.968 61.1165 215.926 61.1038 215.888 61.0833C215.436 60.9161 214.952 60.8522 214.472 60.8964C213.993 60.9406 213.529 61.0918 213.115 61.3388C213.066 61.3574 213.015 61.367 212.964 61.3672Z" fill="#0A2234"/>
<path d="M218.198 71.975C218.406 72.276 218.633 72.5636 218.877 72.8361C220.241 74.4182 222.054 75.5441 224.074 76.0629C224.581 76.2025 225.098 76.3006 225.621 76.3562C227.002 76.5161 228.402 76.3655 229.719 75.9154C231.035 75.4653 232.236 74.727 233.232 73.754C234.124 72.867 234.832 71.8123 235.317 70.6503C237.411 65.7865 235.741 61.7743 233.431 54.7719C232.972 53.2536 232.157 51.8679 231.054 50.7314C229.215 48.8247 226.7 47.7232 224.056 47.6665C221.412 47.6098 218.852 48.6024 216.934 50.4286C211.275 55.8318 214.312 66.3921 218.198 71.975Z" fill="#E4897B"/>
<path opacity="0.2" d="M224.074 76.063C224.581 76.2026 225.098 76.3007 225.621 76.3563C227.003 76.5162 228.403 76.3656 229.719 75.9155C231.036 75.4654 232.236 74.7271 233.233 73.7541C232.607 73.0364 231.894 72.4005 231.111 71.8616C228.412 72.5556 225.969 74.0141 224.074 76.063Z" fill="black"/>
<path d="M241.277 79.5641C239.107 83.9547 230.42 86.046 230.42 86.046C230.42 86.046 224.761 86.6516 225.176 84.6171C228.006 82.9233 228.949 80.9362 228.826 78.8828C228.723 77.6256 228.367 76.4024 227.779 75.287C227.478 74.6562 227.141 74.0433 226.77 73.4512L234.014 61.8784C234.627 67.4046 236.57 77.2363 241.277 79.5641Z" fill="#E4897B"/>
<path d="M236.327 69.5902C236.327 69.5902 245.175 55.3962 232.715 46.085C233.999 46.316 235.193 46.899 236.167 47.7693C236.167 47.7693 235.177 41.7889 224.773 42.9434C214.369 44.0978 212.087 49.4158 212.087 49.4158L212.304 46.8325C212.304 46.8325 205.484 53.2576 213.898 56.8724C213.898 56.8724 215.86 54.8474 216.152 57.4591C216.445 60.0707 219.048 63.941 221.491 65.313C223.934 66.6851 227.357 72.5047 227.357 72.5047C227.357 72.5047 231.885 69.2968 236.327 69.5902Z" fill="#0A2234"/>
<path d="M223.535 63.2505C223.659 63.9463 223.626 64.661 223.438 65.3422C223.251 66.0234 222.913 66.6538 222.451 67.187C221.291 68.3225 219.621 66.7138 219.008 64.5753C218.489 62.6827 218.433 59.7304 220.055 59.4938C221.677 59.2573 223.319 61.216 223.535 63.2505Z" fill="#E4897B"/>
<path d="M224.535 80.6143C224.535 80.6143 229.628 74.6339 236.561 73.1767C243.494 71.7194 245.163 77.1605 245.163 77.1605L224.535 80.6143Z" fill="#000066"/>
<path opacity="0.7" d="M224.535 80.6143C224.535 80.6143 229.628 74.6339 236.561 73.1767C243.494 71.7194 245.163 77.1605 245.163 77.1605L224.535 80.6143Z" fill="white"/>
<path opacity="0.2" d="M243.873 75.0312C239.157 73.7538 225.15 80.3682 225.15 80.3682L229.791 82.7527C229.791 82.7527 247.74 76.0816 243.873 75.0312Z" fill="black"/>
<path d="M224.3 284.553L216.65 285.357L216.264 280.91L215.217 268.807L222.866 267.993L224.026 281.364L224.3 284.553Z" fill="#E4897B"/>
<path d="M290.776 283.578H283.363L282.995 281.903L282.948 281.695L280.646 270.955L280.59 270.738L279.703 266.621H287.126L290.776 283.578Z" fill="#E4897B"/>
<path opacity="0.2" d="M222.866 267.993L224.026 281.364L216.264 280.91L215.217 268.807L222.866 267.993Z" fill="black"/>
<path opacity="0.2" d="M290.562 282.642H290.552L282.959 281.695H282.95L280.705 271.334H280.715L288.251 271.93L290.496 282.311L290.562 282.642Z" fill="black"/>
<path d="M282.334 283.134H291.342C291.49 283.133 291.634 283.183 291.749 283.276C291.864 283.369 291.944 283.5 291.974 283.645L293.436 290.269C293.466 290.429 293.461 290.595 293.421 290.753C293.381 290.912 293.306 291.059 293.203 291.186C293.099 291.312 292.969 291.414 292.822 291.484C292.675 291.555 292.514 291.592 292.351 291.593C289.437 291.546 287.315 291.366 283.655 291.366C281.401 291.366 274.6 291.603 271.487 291.603C268.375 291.603 267.969 288.518 269.243 288.234C274.958 286.985 279.26 285.253 281.089 283.607C281.428 283.294 281.874 283.124 282.334 283.134V283.134Z" fill="#0A2234"/>
<path d="M215.838 282.897H224.846C224.994 282.896 225.138 282.947 225.253 283.04C225.368 283.133 225.447 283.263 225.478 283.408L226.94 290.032C226.97 290.193 226.965 290.358 226.925 290.517C226.884 290.675 226.81 290.823 226.706 290.949C226.603 291.075 226.473 291.178 226.326 291.248C226.179 291.318 226.018 291.356 225.855 291.357C222.941 291.31 220.818 291.13 217.159 291.13C214.905 291.13 208.104 291.366 204.991 291.366C201.879 291.366 201.473 288.282 202.747 287.998C208.462 286.749 212.763 285.017 214.593 283.37C214.932 283.057 215.378 282.888 215.838 282.897V282.897Z" fill="#0A2234"/>
<path d="M214.519 277.901L225.46 278.26C221.48 204.868 219.622 201.121 255.134 166.459C255.964 176.944 256.898 187.816 257.813 196.882C258.388 202.493 258.558 207.395 259.491 210.99C265.811 235.3 281.016 278.317 281.016 278.317L291.693 278.8C291.693 278.8 278.327 219.81 276.95 200.619C275.149 175.411 281.016 148.121 277.686 128.391L240.382 134.741C206.558 184.4 200.361 195.131 214.519 277.901Z" fill="#0A2234"/>
<path opacity="0.2" d="M255.133 166.412C255.963 176.897 256.897 187.798 257.812 196.863C259.151 183.776 260.792 174.446 260.792 174.446C260.792 174.446 262.33 173.178 266.555 166.412C270.781 159.647 266.555 147.014 266.555 147.014C266.687 158.748 255.133 166.412 255.133 166.412Z" fill="black"/>
<path d="M213.293 276.718L213.831 279.793H226.677V276.955L213.293 276.718Z" fill="#000066"/>
<path d="M279.75 277.901L280.986 280.74H292.681L292.464 277.901H279.75Z" fill="#000066"/>
<path d="M219.66 82.772C219.66 82.772 239.383 73.0728 251.324 75.3911C263.265 77.7095 277.073 107.715 280.431 133.7L236.893 137.977C236.893 137.977 234.535 119.44 227.017 107.574L219.66 82.772Z" fill="#000066"/>
<path opacity="0.7" d="M280.431 133.7L236.893 137.977C236.145 132.781 235.013 127.647 233.506 122.619C232.017 117.338 229.834 112.279 227.017 107.574L224.914 100.495L219.66 82.772C219.66 82.772 239.383 73.0728 251.324 75.3911C263.265 77.7095 277.073 107.715 280.431 133.7Z" fill="white"/>
<path opacity="0.2" d="M233.507 122.619C232.017 117.338 229.835 112.279 227.017 107.574L224.914 100.495L233.233 99.4167C233.233 99.4167 236.27 113.346 233.507 122.619Z" fill="black"/>
<path d="M230.799 99.5396C230.799 99.5396 229.158 126.726 226.837 128.476C224.517 130.227 193.91 121.938 193.91 121.938C192.166 121.834 190.468 121.339 188.939 120.49C187.365 119.734 185.865 118.831 184.459 117.793L191.92 111.169C193.35 112.439 194.846 113.633 196.4 114.746C197.645 115.494 197.749 117.793 197.749 117.793C197.749 117.793 221.527 121.985 221.772 120.982C222.018 119.979 220.773 96.8995 220.773 96.8995L230.799 99.5396Z" fill="#E4897B"/>
<path d="M219.659 82.7717C215.613 81.9106 219.659 119.439 219.659 119.439L199.645 117.008V124.492C199.645 124.492 225.422 132.545 227.309 131.05C229.195 129.555 233.261 99.9748 233.261 99.9748C233.261 99.9748 228.469 84.6547 219.659 82.7717Z" fill="#000066"/>
<path opacity="0.7" d="M219.659 82.7717C215.613 81.9106 219.659 119.439 219.659 119.439L199.645 117.008V124.492C199.645 124.492 225.422 132.545 227.309 131.05C229.195 129.555 233.261 99.9748 233.261 99.9748C233.261 99.9748 228.469 84.6547 219.659 82.7717Z" fill="white"/>
<path d="M349.923 136.047C349.037 139.747 347.499 145.793 345.5 152.436C345.497 152.458 345.497 152.48 345.5 152.502C342.274 163.205 337.86 175.468 332.993 181.988C331.823 183.745 330.239 185.186 328.38 186.18C316.59 191.46 272.269 193.655 267.006 189.255C266.383 188.745 265.805 188.181 265.28 187.571C257.904 179.055 267.732 167.945 286.747 159.874C303.272 152.862 302.112 132.546 311.761 132.29C319.307 132.082 338.699 132.196 346.99 132.29C347.445 132.298 347.893 132.409 348.301 132.612C348.709 132.816 349.066 133.109 349.347 133.468C349.628 133.828 349.826 134.246 349.925 134.692C350.025 135.138 350.024 135.601 349.923 136.047V136.047Z" fill="#000066"/>
<path opacity="0.2" d="M332.946 181.959C331.776 183.717 330.192 185.157 328.333 186.151C316.543 191.431 272.222 193.627 266.959 189.227C266.336 188.716 265.758 188.153 265.232 187.542C273.325 184.391 296.255 180.275 296.255 180.275C296.255 180.275 319.297 184.571 332.946 181.959Z" fill="black"/>
<path d="M303.773 280.891V190.996L305.97 188.347C301.066 186.691 293.973 189.53 293.973 189.53L296.802 191.318V206.004H296.708V280.939L270.996 289.833V291.631H278.796L296.783 287.846H303.707L321.779 291.631H329.504V289.833L303.773 280.891Z" fill="#0A2234"/>
<path opacity="0.4" d="M303.773 280.891V190.996L305.97 188.347C301.066 186.691 293.973 189.53 293.973 189.53L296.802 191.318V206.004H296.708V280.939L270.996 289.833V291.631H278.796L296.783 287.846H303.707L321.779 291.631H329.504V289.833L303.773 280.891Z" fill="white"/>
<path d="M31.4472 248.586C31.4472 248.586 33.2298 235.499 41.5772 234.071C49.9247 232.642 47.3969 226.302 49.5757 223.86C51.7545 221.419 57.4232 228.592 52.5657 235.632C47.7081 242.672 51.679 240.439 49.5757 246.987C47.4723 253.535 30.6832 259.44 31.4472 248.586Z" fill="#0A2234"/>
<path opacity="0.2" d="M31.4472 248.586C31.4472 248.586 33.2298 235.499 41.5772 234.071C49.9247 232.642 47.3969 226.302 49.5757 223.86C51.7545 221.419 57.4232 228.592 52.5657 235.632C47.7081 242.672 51.679 240.439 49.5757 246.987C47.4723 253.535 30.6832 259.44 31.4472 248.586Z" fill="white"/>
<path d="M34.2215 257.424H34.0518C33.9941 257.401 33.9416 257.367 33.8971 257.324C33.8526 257.281 33.8171 257.229 33.7926 257.172C33.768 257.115 33.755 257.053 33.7541 256.991C33.7533 256.929 33.7647 256.867 33.7877 256.809C33.7877 256.677 38.9848 242.871 33.9952 221.864C32.4572 215.828 30.2851 209.972 27.5153 204.396C22.7143 193.921 18.5642 184.884 24.6857 168.012C26.5721 162.779 28.5717 157.896 30.4864 153.184C37.5605 135.735 43.1537 121.957 37.2398 109.164C37.1913 109.049 37.1887 108.92 37.2326 108.804C37.2766 108.688 37.3636 108.593 37.4756 108.539C37.5312 108.512 37.5916 108.497 37.6533 108.494C37.715 108.49 37.7766 108.5 37.8347 108.521C37.8927 108.542 37.9459 108.575 37.9911 108.617C38.0364 108.659 38.0728 108.71 38.0981 108.766C44.1818 121.919 38.5226 135.877 31.3542 153.534C29.4677 158.265 27.4681 163.12 25.5723 168.334C19.5829 184.799 23.4595 193.315 28.3736 203.97C31.1493 209.61 33.3336 215.525 34.8912 221.618C39.9468 242.937 34.6931 256.98 34.6365 257.122C34.6029 257.206 34.5461 257.28 34.4726 257.333C34.3992 257.387 34.3121 257.418 34.2215 257.424V257.424Z" fill="#0A2234"/>
<path d="M36.6179 254.472C36.6179 254.472 42.0131 246.315 34.2222 242.123C26.4312 237.931 24.8844 241.309 20.074 238.291C15.2636 235.272 11.5851 227.977 10.7833 232.613C9.98162 237.25 15.4994 239.947 13.5658 242.076C11.6322 244.205 26.6482 258.143 36.6179 254.472Z" fill="#0A2234"/>
<path d="M40.5488 115.541C40.5488 115.541 44.5103 99.152 32.5692 99.7766C20.6282 100.401 34.8895 114.283 40.5488 115.541Z" fill="#0A2234"/>
<path d="M31.1183 128.657C31.1183 128.657 26.4023 114.463 18.1963 118.163C9.9904 121.863 22.752 129.603 31.1183 128.657Z" fill="#0A2234"/>
<path d="M45.5958 128.761C45.5958 128.761 43.3981 117.273 52.3492 116.317C61.3003 115.361 58.1216 125.865 45.5958 128.761Z" fill="#0A2234"/>
<path d="M41.4941 152.881C41.4941 152.881 52.6712 141.138 57.6419 148.812C62.6127 156.486 49.3605 159.25 41.4941 152.881Z" fill="#0A2234"/>
<path d="M20.0635 152.682C20.0635 152.682 16.3661 134.978 7.09436 141.375C-2.17741 147.771 11.735 155.152 20.0635 152.682Z" fill="#0A2234"/>
<path d="M13.5558 178.979C13.5558 178.979 19.2905 160.328 6.10444 163.441C-7.08166 166.555 3.76527 175.336 13.5558 178.979Z" fill="#0A2234"/>
<path d="M34.543 183.776C34.543 183.776 44.7485 169.582 53.6902 173.084C62.6318 176.585 56.6613 190.476 34.543 183.776Z" fill="#0A2234"/>
<path d="M26.6648 214.133C26.6648 214.133 15.3463 193.514 7.40446 201.406C-0.537381 209.298 14.2805 218.93 26.6648 214.133Z" fill="#0A2234"/>
<path d="M40.5501 211.739C40.5501 211.739 36.683 195.349 46.2943 195.917C55.9056 196.485 54.1984 206.837 40.5501 211.739Z" fill="#0A2234"/>
<g opacity="0.2">
<path d="M40.5488 115.541C40.5488 115.541 44.5103 99.152 32.5692 99.7766C20.6282 100.401 34.8895 114.283 40.5488 115.541Z" fill="white"/>
<path d="M31.1183 128.657C31.1183 128.657 26.4023 114.463 18.1963 118.163C9.9904 121.863 22.752 129.603 31.1183 128.657Z" fill="white"/>
<path d="M45.5958 128.761C45.5958 128.761 43.3981 117.273 52.3492 116.317C61.3003 115.361 58.1216 125.865 45.5958 128.761Z" fill="white"/>
<path d="M41.4941 152.881C41.4941 152.881 52.6712 141.138 57.6419 148.812C62.6127 156.486 49.3605 159.25 41.4941 152.881Z" fill="white"/>
<path d="M20.0635 152.682C20.0635 152.682 16.3661 134.978 7.09436 141.375C-2.17741 147.771 11.735 155.152 20.0635 152.682Z" fill="white"/>
<path d="M13.5558 178.979C13.5558 178.979 19.2905 160.328 6.10444 163.441C-7.08166 166.555 3.76527 175.336 13.5558 178.979Z" fill="white"/>
<path d="M34.543 183.776C34.543 183.776 44.7485 169.582 53.6902 173.084C62.6318 176.585 56.6613 190.476 34.543 183.776Z" fill="white"/>
<path d="M26.6648 214.133C26.6648 214.133 15.3463 193.514 7.40446 201.406C-0.537381 209.298 14.2805 218.93 26.6648 214.133Z" fill="white"/>
<path d="M40.5501 211.739C40.5501 211.739 36.683 195.349 46.2943 195.917C55.9056 196.485 54.1984 206.837 40.5501 211.739Z" fill="white"/>
</g>
<path d="M37.0708 137.741H36.9765C36.9141 137.73 36.8547 137.706 36.8026 137.67C36.7504 137.634 36.7068 137.587 36.6746 137.533C36.618 137.448 31.3455 129.016 27.7141 127.218C27.6582 127.191 27.6084 127.153 27.5675 127.106C27.5266 127.059 27.4956 127.005 27.4762 126.946C27.4568 126.886 27.4495 126.824 27.4548 126.762C27.46 126.7 27.4776 126.639 27.5066 126.584C27.5338 126.528 27.5717 126.478 27.6182 126.437C27.6647 126.396 27.7188 126.364 27.7776 126.344C27.8363 126.324 27.8984 126.315 27.9603 126.319C28.0223 126.323 28.0829 126.339 28.1386 126.367C31.5624 128.07 36.071 134.836 37.2123 136.615C43.5129 132.186 47.8328 124.578 47.8706 124.493C47.9337 124.386 48.0357 124.307 48.1552 124.274C48.2748 124.24 48.4026 124.255 48.5119 124.313C48.6206 124.375 48.7005 124.477 48.7341 124.598C48.7677 124.719 48.7523 124.848 48.6912 124.957C48.5119 125.297 44.0506 133.161 37.3726 137.675C37.2835 137.733 37.1761 137.757 37.0708 137.741V137.741Z" fill="#0A2234"/>
<path d="M27.9213 160.82C27.856 160.814 27.7928 160.794 27.7359 160.761C27.679 160.728 27.6296 160.684 27.5911 160.631C27.5251 160.536 21.0547 151.405 13.443 147.667C13.3872 147.64 13.3373 147.602 13.2961 147.555C13.255 147.508 13.2234 147.454 13.2033 147.395C13.1831 147.336 13.1748 147.274 13.1787 147.212C13.1826 147.15 13.1987 147.089 13.226 147.033C13.2523 146.977 13.2893 146.927 13.3349 146.886C13.3805 146.845 13.4339 146.814 13.4918 146.793C13.5498 146.773 13.6112 146.765 13.6724 146.768C13.7337 146.772 13.7935 146.788 13.8486 146.815C20.8661 150.231 26.7045 157.764 28.1005 159.656C37.759 151.32 50.6244 150.61 50.7376 150.6C50.7998 150.597 50.8622 150.605 50.9209 150.626C50.9797 150.647 51.0336 150.68 51.0794 150.723C51.1252 150.765 51.162 150.816 51.1876 150.873C51.2131 150.93 51.2269 150.992 51.228 151.055C51.2306 151.117 51.2208 151.179 51.1995 151.237C51.1781 151.296 51.1454 151.349 51.1034 151.395C51.0613 151.441 51.0107 151.477 50.9544 151.504C50.8981 151.53 50.8372 151.544 50.7753 151.547C50.6527 151.547 37.759 152.275 28.3174 160.707C28.2632 160.753 28.1999 160.787 28.1315 160.806C28.0632 160.826 27.9916 160.831 27.9213 160.82V160.82Z" fill="#0A2234"/>
<path d="M23.3183 190.703C23.2235 190.704 23.1309 190.674 23.0542 190.618C15.4331 185.432 8.79285 171.551 8.48159 170.936C8.45472 170.88 8.43927 170.819 8.43614 170.757C8.43301 170.696 8.44227 170.634 8.46337 170.575C8.48447 170.517 8.51699 170.464 8.559 170.419C8.60101 170.373 8.65166 170.337 8.70796 170.311C8.76368 170.284 8.82425 170.268 8.8862 170.264C8.94815 170.26 9.01027 170.268 9.06898 170.288C9.1277 170.309 9.18185 170.34 9.22834 170.381C9.27483 170.423 9.31275 170.473 9.33992 170.529C9.40594 170.671 15.9424 184.467 23.29 189.653C25.3556 188.252 38.0513 179.887 48.2097 178.875C48.2706 178.867 48.3326 178.872 48.3917 178.889C48.4508 178.905 48.5059 178.934 48.5535 178.973C48.6012 179.012 48.6404 179.06 48.6689 179.115C48.6973 179.17 48.7144 179.23 48.719 179.291C48.7323 179.415 48.6961 179.54 48.6183 179.637C48.5406 179.735 48.4276 179.797 48.304 179.812C37.7212 180.871 23.7239 190.523 23.573 190.618C23.4984 190.671 23.4097 190.701 23.3183 190.703V190.703Z" fill="#0A2234"/>
<path d="M34.2226 220.34C34.155 220.34 34.0883 220.325 34.0266 220.297C33.9649 220.27 33.9096 220.23 33.8642 220.179C33.8076 220.104 28.1483 213.461 17.1504 211.095C17.0254 211.069 16.9158 210.994 16.846 210.886C16.7761 210.779 16.7516 210.648 16.7779 210.523C16.8041 210.397 16.879 210.287 16.986 210.217C17.093 210.147 17.2234 210.123 17.3485 210.149C23.7817 211.406 29.6938 214.563 34.3263 219.214C39.297 215.372 45.145 201.33 45.2016 201.188C45.2491 201.071 45.3409 200.978 45.4567 200.929C45.5726 200.881 45.703 200.88 45.8194 200.928C45.9357 200.975 46.0284 201.067 46.077 201.184C46.1256 201.3 46.1263 201.431 46.0787 201.547C45.8241 202.163 39.7875 216.64 34.5244 220.246C34.4392 220.314 34.3315 220.348 34.2226 220.34V220.34Z" fill="#0A2234"/>
<path d="M35.8359 252.523C35.8359 252.523 40.4577 245.142 45.6831 244.092C50.9085 243.041 53.1533 237.004 55.1152 240.638C57.0771 244.271 51.6536 256.298 35.8359 252.523Z" fill="#0A2234"/>
<path d="M57.4524 251.359L55.8867 264.9L55.6792 266.688L55.0283 272.366L54.5567 276.378L54.2549 278.99L52.7363 292.162H13.6497L12.1311 278.99L11.8293 276.378L11.3576 272.366L10.7068 266.688L10.4993 264.9L8.93359 251.359H57.4524Z" fill="#000066"/>
<path opacity="0.4" d="M55.0301 272.366L54.5585 276.378H11.831L11.3594 272.366H55.0301Z" fill="white"/>
<path opacity="0.4" d="M54.2547 278.989L52.7361 292.161H13.6494L12.1309 278.989H54.2547Z" fill="white"/>
<path opacity="0.4" d="M55.8873 264.9L55.6798 266.688H10.7075L10.5 264.9H55.8873Z" fill="white"/>
</svg>
