<svg width="58" height="45" viewBox="0 0 58 45" fill="none" xmlns="http://www.w3.org/2000/svg">
<path d="M20.8006 7.10019C22.2918 7.10019 23.5006 5.89136 23.5006 4.40019C23.5006 2.90903 22.2918 1.7002 20.8006 1.7002C19.3094 1.7002 18.1006 2.90903 18.1006 4.40019C18.1006 5.89136 19.3094 7.10019 20.8006 7.10019Z" stroke="#3DA8FB" stroke-width="2" stroke-miterlimit="10"/>
<path d="M14.5 11.6001V15.5001C14.5 16.4001 15.2 17.1001 16.1 17.1001C17 17.1001 17.7 16.4001 17.7 15.5001V11.6001" stroke="#3DA8FB" stroke-width="2" stroke-miterlimit="10"/>
<path d="M24 11.6001V15.5001C24 16.4001 24.7 17.1001 25.6 17.1001C26.5 17.1001 27.2 16.4001 27.2 15.5001V11.6001" stroke="#3DA8FB" stroke-width="2" stroke-miterlimit="10"/>
<path d="M27.2004 11.6003C27.2004 7.50029 24.4004 7.30029 20.8004 7.30029C17.2004 7.30029 14.4004 7.50029 14.4004 11.6003" stroke="#3DA8FB" stroke-width="2" stroke-miterlimit="10"/>
<path d="M17.6006 13.9004H24.0006" stroke="#3DA8FB" stroke-width="2" stroke-miterlimit="10"/>
<path d="M37.2 7.10019C38.6912 7.10019 39.9 5.89136 39.9 4.40019C39.9 2.90903 38.6912 1.7002 37.2 1.7002C35.7088 1.7002 34.5 2.90903 34.5 4.40019C34.5 5.89136 35.7088 7.10019 37.2 7.10019Z" stroke="#ED2939" stroke-width="2" stroke-miterlimit="10"/>
<path d="M30.7998 11.6001V15.5001C30.7998 16.4001 31.4998 17.1001 32.3998 17.1001C33.2998 17.1001 33.9998 16.4001 33.9998 15.5001V11.6001" stroke="#ED2939" stroke-width="2" stroke-miterlimit="10"/>
<path d="M40.4004 11.6001V15.5001C40.4004 16.4001 41.1004 17.1001 42.0004 17.1001C42.9004 17.1001 43.6004 16.4001 43.6004 15.5001V11.6001" stroke="#ED2939" stroke-width="2" stroke-miterlimit="10"/>
<path d="M43.5002 11.6003C43.5002 7.50029 40.7002 7.30029 37.1002 7.30029C33.6002 7.30029 30.7002 7.50029 30.7002 11.6003" stroke="#ED2939" stroke-width="2" stroke-miterlimit="10"/>
<path d="M34 13.9004H40.4" stroke="#ED2939" stroke-width="2" stroke-miterlimit="10"/>
<path d="M37.2 29.8004C38.6912 29.8004 39.9 28.5916 39.9 27.1004C39.9 25.6092 38.6912 24.4004 37.2 24.4004C35.7088 24.4004 34.5 25.6092 34.5 27.1004C34.5 28.5916 35.7088 29.8004 37.2 29.8004Z" stroke="white" stroke-width="2" stroke-miterlimit="10"/>
<path d="M30.7998 33.4004V37.3004C30.7998 38.2004 31.5998 38.9004 32.6998 38.9004" stroke="white" stroke-width="2" stroke-miterlimit="10"/>
<path d="M43.4996 33.4004V37.3004C43.4996 38.2004 42.6996 38.9004 41.5996 38.9004" stroke="white" stroke-width="2" stroke-miterlimit="10"/>
<path d="M33.0996 44.4003V30.7003C33.0996 30.2003 33.4996 29.8003 33.9996 29.8003H40.3996C40.8996 29.8003 41.2996 30.2003 41.2996 30.7003V44.3003" stroke="white" stroke-width="2" stroke-miterlimit="10"/>
<path d="M41.2996 38.9004H33.0996" stroke="white" stroke-width="2" stroke-miterlimit="10"/>
<path d="M43.5002 33.4002C43.5002 31.8002 42.6002 31.0002 41.2002 30.7002" stroke="white" stroke-width="2" stroke-miterlimit="10"/>
<path d="M33.0998 30.6001C31.6998 31.0001 30.7998 31.7001 30.7998 33.3001" stroke="white" stroke-width="2" stroke-miterlimit="10"/>
<path d="M20.7996 29.8004C22.2908 29.8004 23.4996 28.5916 23.4996 27.1004C23.4996 25.6092 22.2908 24.4004 20.7996 24.4004C19.3084 24.4004 18.0996 25.6092 18.0996 27.1004C18.0996 28.5916 19.3084 29.8004 20.7996 29.8004Z" stroke="white" stroke-width="2" stroke-miterlimit="10"/>
<path d="M14.5 33.4004V37.3004C14.5 38.2004 15.3 38.9004 16.4 38.9004" stroke="white" stroke-width="2" stroke-miterlimit="10"/>
<path d="M27.1998 33.4004V37.3004C27.1998 38.2004 26.3998 38.9004 25.2998 38.9004" stroke="white" stroke-width="2" stroke-miterlimit="10"/>
<path d="M16.7002 44.4003V30.7003C16.7002 30.2003 17.1002 29.8003 17.6002 29.8003H24.0002C24.5002 29.8003 24.9002 30.2003 24.9002 30.7003V44.3003" stroke="white" stroke-width="2" stroke-miterlimit="10"/>
<path d="M24.9002 38.9004H16.7002" stroke="white" stroke-width="2" stroke-miterlimit="10"/>
<path d="M27.2004 33.4002C27.2004 31.8002 26.3004 31.0002 24.9004 30.7002" stroke="white" stroke-width="2" stroke-miterlimit="10"/>
<path d="M16.7004 30.6001C15.3004 31.0001 14.4004 31.7001 14.4004 33.3001" stroke="white" stroke-width="2" stroke-miterlimit="10"/>
<path d="M47 13.9004C52.5 13.9004 57 18.4004 57 23.9004C57 29.4004 52.5 33.9004 47 33.9004" stroke="white" stroke-width="2" stroke-miterlimit="10"/>
<path d="M11 33.9004C5.5 33.9004 1 29.4004 1 23.9004C1 18.4004 5.5 13.9004 11 13.9004" stroke="white" stroke-width="2" stroke-miterlimit="10"/>
</svg>
