<svg width="55" height="54" viewBox="0 0 55 54" fill="none" xmlns="http://www.w3.org/2000/svg">
<g clip-path="url(#clip0_461_4323)">
<path d="M1.67818 9.3916C5.80427 9.3916 48.8043 9.3916 53.326 9.3916C53.326 12.6445 53.326 15.9017 53.326 19.1546C53.326 29.1577 47.3869 38.2307 38.139 42.3493C31.3782 45.3622 23.626 45.3622 16.8608 42.3493C7.6173 38.2307 1.67383 29.1534 1.67383 19.1546V9.3916H1.67818Z" stroke="#000066" stroke-width="1.76087" stroke-miterlimit="10" stroke-linecap="round" stroke-linejoin="round"/>
<path d="M11.4526 33.182C8.23975 29.4576 6.36914 24.6521 6.36914 19.568V14.0869H48.63V19.568C48.63 25.0491 46.4526 30.2134 42.7626 34.0434" stroke="#000066" stroke-width="1.76087" stroke-miterlimit="10" stroke-linecap="round" stroke-linejoin="round"/>
<path d="M16.9359 22.4953V27.0004H12.2402V21.1309H14.9737" stroke="#000066" stroke-width="1.76087" stroke-miterlimit="10" stroke-linecap="round" stroke-linejoin="round"/>
<path d="M26.3265 22.4953V27.0004H21.6309V21.1309H24.3643" stroke="#CB0101" stroke-width="1.76087" stroke-miterlimit="10" stroke-linecap="round" stroke-linejoin="round"/>
<path d="M25.1507 33.3327V38.7388H21.664H20.4551V31.6953H23.1868" stroke="#000066" stroke-width="1.76087" stroke-miterlimit="10" stroke-linecap="round" stroke-linejoin="round"/>
<path d="M35.7192 33.3327V38.7388H29.8496V31.6953H33.2642" stroke="#000066" stroke-width="1.76087" stroke-miterlimit="10" stroke-linecap="round" stroke-linejoin="round"/>
<path d="M34.5453 22.4953V27.0004H29.8496V21.1309H32.5813" stroke="#CB0101" stroke-width="1.76087" stroke-miterlimit="10" stroke-linecap="round" stroke-linejoin="round"/>
<path d="M42.7601 22.4953V27.0004H38.0645V21.1309H40.7979" stroke="#000066" stroke-width="1.76087" stroke-miterlimit="10" stroke-linecap="round" stroke-linejoin="round"/>
<path d="M19.0254 9.3916V11.7943" stroke="#000066" stroke-width="1.76087" stroke-miterlimit="10" stroke-linecap="round" stroke-linejoin="round"/>
<path d="M21.498 9.3916V11.7943" stroke="#000066" stroke-width="1.76087" stroke-miterlimit="10" stroke-linecap="round" stroke-linejoin="round"/>
<path d="M23.9688 9.3916V11.7943" stroke="#000066" stroke-width="1.76087" stroke-miterlimit="10" stroke-linecap="round" stroke-linejoin="round"/>
<path d="M26.4395 9.3916V11.7943" stroke="#000066" stroke-width="1.76087" stroke-miterlimit="10" stroke-linecap="round" stroke-linejoin="round"/>
<path d="M28.9082 9.3916V11.7943" stroke="#000066" stroke-width="1.76087" stroke-miterlimit="10" stroke-linecap="round" stroke-linejoin="round"/>
<path d="M31.3809 9.3916V11.7943" stroke="#000066" stroke-width="1.76087" stroke-miterlimit="10" stroke-linecap="round" stroke-linejoin="round"/>
<path d="M33.8516 9.3916V11.7943" stroke="#000066" stroke-width="1.76087" stroke-miterlimit="10" stroke-linecap="round" stroke-linejoin="round"/>
<path d="M36.3242 9.3916V11.7943" stroke="#000066" stroke-width="1.76087" stroke-miterlimit="10" stroke-linecap="round" stroke-linejoin="round"/>
</g>
<defs>
<clipPath id="clip0_461_4323">
<rect width="54" height="54" fill="white" transform="translate(0.5)"/>
</clipPath>
</defs>
</svg>
