<svg width="40" height="40" viewBox="0 0 40 40" fill="none" xmlns="http://www.w3.org/2000/svg">
<path d="M0.0286993 28.8652C0.0188884 27.892 0.299003 26.9378 0.83336 26.1244C1.36772 25.311 2.13212 24.6749 3.0292 24.2975C3.92627 23.92 4.9154 23.8182 5.87058 24.0049C6.82576 24.1915 7.70376 24.6584 8.3927 25.3458C8.55192 25.5025 8.76634 25.5903 8.98971 25.5903C9.21308 25.5903 9.42749 25.5025 9.58672 25.3458C10.4964 24.4365 11.7284 23.9232 13.0146 23.9175C13.6621 23.9198 14.3028 24.0496 14.9001 24.2994C15.4974 24.5493 16.0397 24.9144 16.4959 25.3739C16.9521 25.8333 17.3134 26.378 17.5591 26.977C17.8048 27.5761 17.9301 28.2177 17.9279 28.8652C17.9279 33.9727 11.3521 38.6174 9.46677 39.8458C9.31736 39.9408 9.14395 39.9912 8.96687 39.9912C8.78979 39.9912 8.61638 39.9408 8.46697 39.8458C6.57593 38.6174 0.00585938 33.9727 0.00585938 28.8652" fill="#ED2939"/>
<path d="M6.9412 24.3517C6.31296 24.0669 5.63137 23.9189 4.94161 23.9175C4.29414 23.9197 3.65344 24.0495 3.05612 24.2994C2.45879 24.5492 1.91653 24.9144 1.46029 25.3738C1.00405 25.8332 0.642797 26.3779 0.397101 26.977C0.151405 27.576 0.0260955 28.2176 0.0283502 28.8651C0.0283502 33.9726 6.59842 38.6174 8.48946 39.8457C8.63746 39.9419 8.81 39.9934 8.9865 39.9942C2.2736 30.8247 4.66167 25.6943 6.9412 24.3517Z" fill="#B32D11"/>
<path d="M35.2208 29.7107C34.5195 29.6695 33.8215 29.834 33.2125 30.1842C32.6035 30.5344 32.1101 31.0549 31.7929 31.6817C31.6579 31.9513 31.4217 32.1567 31.1359 32.253C31.0792 32.2707 31.019 32.2738 30.9608 32.2622C30.9026 32.2506 30.8483 32.2245 30.8028 32.1864C30.7573 32.1483 30.7221 32.0994 30.7004 32.0442C30.6788 31.9889 30.6713 31.9291 30.6788 31.8702C30.7622 31.3132 30.8941 30.7645 31.0731 30.2305C31.1706 29.9468 31.3758 29.713 31.6444 29.5793C32.2718 29.2623 32.793 28.7691 33.1441 28.1602C33.4953 27.5513 33.661 26.8532 33.6211 26.1514C33.5682 25.2106 33.1502 24.3277 32.4561 23.6904C31.762 23.0532 30.8465 22.712 29.9046 22.7396C28.9628 22.7671 28.0689 23.1611 27.4132 23.8379C26.7575 24.5146 26.3918 25.4205 26.394 26.3627C26.394 27.0314 26.5799 27.6869 26.931 28.2559C27.2821 28.8249 27.7845 29.2851 28.3821 29.585C28.6496 29.7173 28.8546 29.949 28.9534 30.2305C29.1336 30.7665 29.2674 31.3171 29.3534 31.876C29.3609 31.9348 29.3534 31.9946 29.3318 32.0499C29.3101 32.1051 29.2749 32.154 29.2294 32.1922C29.1839 32.2303 29.1296 32.2563 29.0714 32.2679C29.0132 32.2795 28.953 32.2764 28.8963 32.2587C28.6105 32.1624 28.3743 31.9571 28.2393 31.6874C27.9221 31.0606 27.4287 30.5401 26.8197 30.1899C26.2108 29.8398 25.5127 29.6752 24.8114 29.7164C23.914 29.7701 23.0681 30.1531 22.4355 30.7919C21.803 31.4308 21.4284 32.2807 21.3836 33.1786C21.3329 34.0135 21.5737 34.84 22.0649 35.5171C22.556 36.1942 23.267 36.6797 24.0764 36.8908C24.8858 37.1019 25.7433 37.0256 26.5026 36.6746C27.2618 36.3237 27.8757 35.72 28.2393 34.9667C28.3068 34.8326 28.4002 34.7131 28.5139 34.6151C28.6276 34.517 28.7595 34.4424 28.902 34.3954C28.959 34.3769 29.0196 34.3734 29.0783 34.3852C29.1369 34.397 29.1916 34.4237 29.2369 34.4628C29.2823 34.5018 29.3168 34.5519 29.3372 34.6081C29.3576 34.6643 29.3632 34.7248 29.3534 34.7838C29.0995 36.4543 28.4143 38.0297 27.3653 39.3543C27.3193 39.4133 27.2908 39.484 27.283 39.5584C27.2753 39.6327 27.2885 39.7078 27.3212 39.775C27.3539 39.8422 27.4049 39.899 27.4682 39.9387C27.5315 39.9785 27.6047 39.9997 27.6794 40H32.3528C32.4276 39.9997 32.5007 39.9785 32.564 39.9387C32.6274 39.899 32.6783 39.8422 32.711 39.775C32.7438 39.7078 32.757 39.6327 32.7492 39.5584C32.7414 39.484 32.7129 39.4133 32.667 39.3543C31.618 38.0297 30.9327 36.4543 30.6788 34.7838C30.669 34.7248 30.6746 34.6643 30.695 34.6081C30.7154 34.5519 30.7499 34.5018 30.7953 34.4628C30.8406 34.4237 30.8953 34.397 30.9539 34.3852C31.0126 34.3734 31.0733 34.3769 31.1302 34.3954C31.2728 34.4424 31.4046 34.517 31.5183 34.6151C31.6321 34.7131 31.7254 34.8326 31.7929 34.9667C32.1662 35.7022 32.7799 36.2876 33.5322 36.6258C34.2844 36.964 35.1297 37.0345 35.9275 36.8255C36.7254 36.6166 37.4276 36.1407 37.9175 35.4772C38.4073 34.8137 38.6553 34.0026 38.6201 33.1786C38.5773 32.2843 38.2073 31.4367 37.5806 30.7974C36.9538 30.158 36.114 29.7713 35.2208 29.7107Z" fill="#0A4586"/>
<path d="M23.7719 33.1728C23.8055 32.4498 24.0539 31.7532 24.4854 31.1721C24.9169 30.591 25.5119 30.1517 26.1942 29.9105C25.7438 29.7509 25.266 29.683 24.7888 29.7106C23.8914 29.7643 23.0454 30.1473 22.4129 30.7861C21.7803 31.425 21.4058 32.2749 21.361 33.1728C21.3388 33.7614 21.4604 34.3464 21.7155 34.8774C21.9705 35.4083 22.3511 35.8691 22.8244 36.2197C23.2977 36.5703 23.8494 36.8002 24.4316 36.8895C25.0139 36.9788 25.609 36.9248 26.1656 36.732C25.4386 36.4726 24.8138 35.9869 24.383 35.3463C23.9521 34.7057 23.738 33.944 23.7719 33.1728Z" fill="#093B73"/>
<path d="M29.2053 28.7394C28.9726 27.9678 28.8269 27.1724 28.7711 26.3684C28.7379 25.6093 28.9578 24.8608 29.3963 24.2403C29.8347 23.6199 30.4669 23.1626 31.1935 22.9405C30.8592 22.8201 30.5087 22.7508 30.1537 22.7349C29.3434 22.7007 28.5451 22.9403 27.8875 23.4152C27.23 23.89 26.7514 24.5724 26.529 25.3524C26.3066 26.1324 26.3533 26.9646 26.6616 27.7148C26.9699 28.465 27.5218 29.0894 28.2284 29.4877L28.3769 29.5678C28.6443 29.7001 28.8494 29.9317 28.9482 30.2133C29.1284 30.7493 29.2622 31.2998 29.3482 31.8587C29.3547 31.9089 29.3504 31.9598 29.3355 32.0082C29.3207 32.0566 29.2956 32.1013 29.262 32.1392C29.2285 32.1771 29.1872 32.2075 29.141 32.2281C29.0947 32.2487 29.0446 32.259 28.9939 32.2586C29.0796 32.2586 29.6053 32.3443 29.7138 32.0016C29.7408 30.8925 29.5686 29.7876 29.2053 28.7394Z" fill="#093B73"/>
<path d="M35.2214 29.7108C34.5202 29.6696 33.8221 29.8342 33.2131 30.1843C32.6042 30.5345 32.1108 31.055 31.7936 31.6818C31.6586 31.9515 31.4224 32.1568 31.1366 32.2531C31.0967 32.2585 31.0564 32.2585 31.0166 32.2531C31.4933 32.2745 31.9672 32.1714 32.3919 31.9541C32.8167 31.7367 33.1776 31.4126 33.439 31.0134C33.684 30.6493 34.008 30.3452 34.3869 30.1237C34.7657 29.9021 35.1896 29.7688 35.627 29.7337C35.4956 29.7394 35.3586 29.7222 35.2214 29.7108Z" fill="#093B73"/>
<path d="M35.2214 36.9263C34.5209 36.9672 33.8236 36.8032 33.2148 36.4541C32.606 36.1051 32.1122 35.5862 31.7936 34.961C31.6586 34.6913 31.4224 34.4859 31.1366 34.3897C31.0966 34.387 31.0565 34.387 31.0166 34.3897C31.4935 34.3705 31.9672 34.4752 32.3917 34.6935C32.8162 34.9117 33.177 35.2361 33.439 35.6351C33.6849 35.9983 34.0091 36.3018 34.3878 36.5233C34.7664 36.7448 35.1899 36.8785 35.627 36.9148C35.4922 36.9273 35.3568 36.9312 35.2214 36.9263Z" fill="#093B73"/>
<path d="M29.1145 39.3485C29.5716 38.2059 30.0343 34.9608 29.2516 34.4695C29.308 34.5565 29.3396 34.6572 29.343 34.7609C29.0892 36.4314 28.4039 38.0067 27.3549 39.3313C27.309 39.3903 27.2805 39.461 27.2727 39.5354C27.2649 39.6098 27.2782 39.6849 27.3109 39.7522C27.3436 39.8194 27.3945 39.876 27.4578 39.9158C27.5212 39.9555 27.5943 39.9767 27.6691 39.977H29.4288C29.0974 39.9941 28.9888 39.657 29.1145 39.3485Z" fill="#093B73"/>
<path d="M30.5249 0.259643C33.0332 3.41918 35.8951 6.28101 39.0546 8.78928C39.1341 8.85066 39.1984 8.92943 39.2426 9.01956C39.2869 9.10968 39.3099 9.20885 39.3099 9.30926C39.3099 9.40966 39.2869 9.50869 39.2426 9.59882C39.1984 9.68894 39.1341 9.76771 39.0546 9.8291C35.8951 12.3374 33.0332 15.1992 30.5249 18.3587C30.4649 18.4402 30.3866 18.5065 30.2963 18.5522C30.206 18.5978 30.1063 18.6217 30.0051 18.6217C29.9039 18.6217 29.8041 18.5978 29.7138 18.5522C29.6234 18.5065 29.5451 18.4402 29.4851 18.3587C26.9784 15.1979 24.1163 12.3359 20.9554 9.8291C20.876 9.76771 20.8117 9.68894 20.7674 9.59882C20.7232 9.50869 20.7002 9.40966 20.7002 9.30926C20.7002 9.20885 20.7232 9.10968 20.7674 9.01956C20.8117 8.92943 20.876 8.85066 20.9554 8.78928C24.1163 6.28251 26.9784 3.42052 29.4851 0.259643C29.5465 0.180193 29.6253 0.11588 29.7154 0.071624C29.8056 0.0273676 29.9047 0.00439453 30.0051 0.00439453C30.1055 0.00439453 30.2045 0.0273676 30.2946 0.071624C30.3847 0.11588 30.4635 0.180193 30.5249 0.259643Z" fill="#ED2939"/>
<path d="M29.9251 18.3587C28.8665 15.4061 27.5512 12.552 25.9944 9.82906C25.9156 9.66708 25.8747 9.48935 25.8747 9.30921C25.8747 9.12908 25.9156 8.95121 25.9944 8.78923C27.5512 6.06625 28.8665 3.21215 29.9251 0.259599C29.944 0.203604 29.9763 0.153104 30.0191 0.112308C30.0619 0.0715123 30.1139 0.0416871 30.1707 0.0254122C30.0461 -0.00781559 29.9144 -0.0033171 29.7924 0.0383838C29.6703 0.0800847 29.5634 0.15706 29.4851 0.259599C26.9784 3.42048 24.1163 6.28247 20.9554 8.78923C20.876 8.85062 20.8117 8.92939 20.7674 9.01951C20.7232 9.10964 20.7002 9.20881 20.7002 9.30921C20.7002 9.40962 20.7232 9.50865 20.7674 9.59877C20.8117 9.6889 20.876 9.76767 20.9554 9.82906C24.1163 12.3358 26.9784 15.1978 29.4851 18.3587C29.5634 18.4612 29.6703 18.5382 29.7924 18.5799C29.9144 18.6216 30.0461 18.6262 30.1707 18.593C30.1129 18.5787 30.0599 18.5494 30.0168 18.5083C29.9738 18.4673 29.9422 18.4157 29.9251 18.3587Z" fill="#B32D11"/>
<path d="M9.34092 0.100217C9.23511 0.0356025 9.11354 0.00146484 8.98957 0.00146484C8.86559 0.00146484 8.74402 0.0356025 8.63822 0.100217C6.98142 1.11144 0 5.68192 0 10.9551C-8.76194e-07 12.2633 0.519257 13.518 1.44372 14.4435C2.36819 15.3691 3.62226 15.8898 4.93042 15.8913C5.78872 15.8941 6.63242 15.6693 7.37561 15.24C7.42203 15.2135 7.47555 15.2021 7.52872 15.2075C7.5819 15.2128 7.6321 15.2346 7.67232 15.2698C7.71254 15.305 7.74079 15.3518 7.75315 15.4038C7.7655 15.4558 7.76134 15.5104 7.74125 15.5599C7.36206 16.6187 6.82255 17.6128 6.14159 18.5078C6.08263 18.5842 6.04635 18.6756 6.03688 18.7716C6.02741 18.8676 6.04513 18.9644 6.08803 19.0508C6.13094 19.1372 6.19729 19.2098 6.2795 19.2603C6.36171 19.3108 6.45645 19.337 6.55292 19.3362H11.4776C11.5732 19.3349 11.6666 19.3073 11.7475 19.2564C11.8284 19.2055 11.8937 19.1332 11.9362 19.0476C11.9787 18.962 11.9968 18.8664 11.9885 18.7712C11.9801 18.6759 11.9457 18.5848 11.889 18.5078C11.2141 17.6233 10.6785 16.6408 10.3007 15.5942C10.2819 15.5454 10.2784 15.4918 10.2907 15.4409C10.303 15.3901 10.3306 15.3442 10.3698 15.3094C10.4089 15.2746 10.4577 15.2527 10.5097 15.2464C10.5617 15.2401 10.6143 15.2498 10.6606 15.2743C11.4112 15.6905 12.2576 15.9033 13.1158 15.8916C13.974 15.8799 14.8142 15.6441 15.5532 15.2076C16.2922 14.7711 16.9043 14.1492 17.3288 13.4033C17.7533 12.6574 17.9755 11.8134 17.9734 10.9551C17.9734 5.68192 10.9863 1.11144 9.34092 0.100217Z" fill="#0A4586"/>
<path d="M6.95284 15.4279C1.41684 12.36 6.61578 3.1676 9.03814 0.00254185C8.89855 -0.00965886 8.75865 0.0222672 8.63822 0.0939014C6.98142 1.10512 0 5.67561 0 10.9488C-8.76194e-07 12.257 0.519257 13.5117 1.44372 14.4372C2.36819 15.3627 3.62226 15.8835 4.93042 15.885C5.6295 15.8791 6.31917 15.7233 6.95284 15.4279Z" fill="#093B73"/>
<path d="M8.06097 18.5873C8.38091 15.9364 8.36376 15.1594 7.54678 15.1594C7.58392 15.167 7.61899 15.1824 7.64958 15.2048C7.68017 15.2271 7.70557 15.2559 7.72403 15.289C7.74248 15.3221 7.75355 15.3588 7.75649 15.3965C7.75942 15.4343 7.75416 15.4723 7.74104 15.5078C7.36184 16.5666 6.82234 17.5609 6.14138 18.4559C6.08242 18.5323 6.04613 18.6236 6.03666 18.7197C6.02719 18.8157 6.04491 18.9123 6.08782 18.9988C6.13072 19.0852 6.19708 19.1578 6.27929 19.2083C6.3615 19.2587 6.45624 19.2851 6.55271 19.2843H8.41518C8.04383 19.3071 8.0267 18.8501 8.06097 18.5873Z" fill="#093B73"/>
</svg>
