<svg width="70" height="71" viewBox="0 0 70 71" fill="none" xmlns="http://www.w3.org/2000/svg">
<path d="M0.820007 50.82C0.802835 49.1165 1.29314 47.4464 2.22845 46.0226C3.16377 44.5988 4.50175 43.4856 6.07196 42.8249C7.64217 42.1642 9.3735 41.9859 11.0454 42.3127C12.7173 42.6394 14.2541 43.4565 15.46 44.6598C15.7387 44.934 16.114 45.0878 16.505 45.0878C16.896 45.0878 17.2713 44.934 17.55 44.6598C19.1423 43.0682 21.2986 42.1697 23.55 42.1598C24.6833 42.1638 25.8048 42.391 26.8503 42.8283C27.8959 43.2656 28.845 43.9047 29.6436 44.7089C30.4421 45.5131 31.0745 46.4665 31.5045 47.5151C31.9346 48.5636 32.154 49.6867 32.15 50.82C32.15 59.76 20.64 67.89 17.34 70.04C17.0785 70.2063 16.775 70.2946 16.465 70.2946C16.1551 70.2946 15.8515 70.2063 15.59 70.04C12.28 67.89 0.780029 59.76 0.780029 50.82" fill="#ED2939"/>
<path d="M12.92 42.9199C11.8203 42.4215 10.6273 42.1624 9.41997 42.1599C8.28666 42.1638 7.16522 42.391 6.11968 42.8284C5.07415 43.2657 4.12499 43.9048 3.32641 44.709C2.52782 45.5131 1.8955 46.4666 1.46545 47.5151C1.03539 48.5637 0.816052 49.6868 0.819999 50.8201C0.819999 59.7601 12.32 67.89 15.63 70.04C15.889 70.2084 16.1911 70.2986 16.5 70.3C4.74999 54.25 8.92997 45.2699 12.92 42.9199Z" fill="#B32D11"/>
<path d="M62.42 52.3001C61.1926 52.228 59.9707 52.516 58.9048 53.1289C57.8388 53.7418 56.9752 54.6529 56.42 55.75C56.1837 56.2221 55.7703 56.5815 55.27 56.75C55.1709 56.781 55.0655 56.7865 54.9636 56.7661C54.8617 56.7458 54.7667 56.7003 54.687 56.6336C54.6074 56.5669 54.5457 56.4813 54.5078 56.3845C54.4699 56.2878 54.4569 56.1832 54.47 56.0801C54.6159 55.1052 54.8469 54.1447 55.16 53.21C55.3308 52.7134 55.69 52.3041 56.16 52.0701C57.2582 51.5153 58.1705 50.652 58.7852 49.5862C59.3998 48.5204 59.6899 47.2984 59.62 46.0701C59.5274 44.4234 58.7958 42.8779 57.5808 41.7625C56.3659 40.6471 54.7635 40.0499 53.1149 40.0982C51.4663 40.1464 49.9016 40.836 48.7539 42.0205C47.6062 43.205 46.9662 44.7907 46.97 46.44C46.9699 47.6103 47.2954 48.7577 47.9099 49.7537C48.5245 50.7497 49.4039 51.5552 50.45 52.0801C50.918 52.3118 51.2769 52.7172 51.45 53.21C51.7653 54.1482 51.9996 55.1118 52.15 56.0901C52.1631 56.1932 52.1501 56.2978 52.1122 56.3946C52.0743 56.4913 52.0126 56.5769 51.933 56.6436C51.8533 56.7103 51.7582 56.7558 51.6564 56.7761C51.5545 56.7965 51.4491 56.791 51.35 56.76C50.8497 56.5915 50.4363 56.2321 50.2 55.76C49.6448 54.6629 48.7812 53.7519 47.7152 53.1389C46.6493 52.526 45.4274 52.238 44.2 52.3101C42.6292 52.4042 41.1484 53.0744 40.0413 54.1926C38.9341 55.3109 38.2784 56.7985 38.2 58.3701C38.1113 59.8315 38.5328 61.2783 39.3925 62.4634C40.2521 63.6486 41.4966 64.4984 42.9133 64.8679C44.33 65.2375 45.831 65.1038 47.16 64.4895C48.489 63.8752 49.5635 62.8185 50.2 61.5C50.3181 61.2653 50.4815 61.0561 50.6805 60.8845C50.8796 60.713 51.1104 60.5823 51.36 60.5C51.4596 60.4677 51.5658 60.4615 51.6685 60.4822C51.7711 60.5029 51.8668 60.5496 51.9462 60.6179C52.0255 60.6863 52.086 60.7739 52.1217 60.8723C52.1574 60.9708 52.1672 61.0766 52.15 61.18C51.7057 64.1039 50.5062 66.8614 48.67 69.18C48.5897 69.2832 48.5397 69.407 48.5261 69.5371C48.5125 69.6673 48.5356 69.7986 48.5929 69.9163C48.6502 70.034 48.7394 70.1333 48.8502 70.2029C48.9611 70.2725 49.0891 70.3096 49.22 70.3101H57.4C57.5309 70.3096 57.6589 70.2725 57.7698 70.2029C57.8806 70.1333 57.9698 70.034 58.0271 69.9163C58.0844 69.7986 58.1075 69.6673 58.0939 69.5371C58.0803 69.407 58.0303 69.2832 57.95 69.18C56.1138 66.8614 54.9143 64.1039 54.47 61.18C54.4528 61.0766 54.4626 60.9708 54.4983 60.8723C54.534 60.7739 54.5945 60.6863 54.6738 60.6179C54.7532 60.5496 54.8489 60.5029 54.9515 60.4822C55.0542 60.4615 55.1604 60.4677 55.26 60.5C55.5096 60.5823 55.7404 60.713 55.9395 60.8845C56.1385 61.0561 56.3019 61.2653 56.42 61.5C57.0734 62.7873 58.1477 63.8121 59.4644 64.4041C60.781 64.996 62.2606 65.1195 63.6571 64.7537C65.0536 64.3879 66.2828 63.555 67.1403 62.3936C67.9977 61.2322 68.4316 59.8124 68.37 58.3701C68.2951 56.8048 67.6476 55.3213 66.5505 54.2022C65.4535 53.083 63.9836 52.4062 62.42 52.3001Z" fill="#0A4586"/>
<path d="M42.38 58.3601C42.4388 57.0946 42.8736 55.8753 43.6289 54.8582C44.3842 53.841 45.4256 53.0722 46.62 52.6499C45.8315 52.3706 44.9952 52.2517 44.16 52.3001C42.5892 52.3941 41.1084 53.0644 40.0012 54.1826C38.8941 55.3008 38.2385 56.7885 38.16 58.3601C38.1212 59.3904 38.3341 60.4144 38.7805 61.3438C39.2269 62.2731 39.8931 63.0797 40.7215 63.6934C41.55 64.3071 42.5157 64.7095 43.5348 64.8657C44.5539 65.022 45.5957 64.9274 46.5699 64.5901C45.2973 64.136 44.2037 63.2858 43.4496 62.1646C42.6955 61.0433 42.3207 59.7101 42.38 58.3601Z" fill="#093B73"/>
<path d="M51.89 50.6001C51.4826 49.2495 51.2277 47.8573 51.13 46.45C51.0719 45.1214 51.4568 43.8112 52.2242 42.7251C52.9917 41.6391 54.0983 40.8388 55.37 40.45C54.7849 40.2392 54.1713 40.118 53.55 40.0901C52.1316 40.0302 50.7343 40.4496 49.5834 41.2808C48.4324 42.1119 47.5947 43.3064 47.2054 44.6716C46.8162 46.0369 46.898 47.4935 47.4376 48.8067C47.9772 50.1198 48.9433 51.2128 50.18 51.9099L50.4399 52.0501C50.908 52.2817 51.2669 52.6872 51.4399 53.1799C51.7553 54.1181 51.9895 55.0818 52.14 56.0601C52.1514 56.1479 52.1439 56.2371 52.1179 56.3218C52.0919 56.4065 52.048 56.4847 51.9892 56.551C51.9305 56.6174 51.8583 56.6705 51.7773 56.7066C51.6964 56.7426 51.6086 56.7608 51.52 56.76C51.67 56.76 52.59 56.9101 52.78 56.3101C52.8273 54.3688 52.5259 52.4349 51.89 50.6001Z" fill="#093B73"/>
<path d="M62.42 52.3002C61.1926 52.2281 59.9707 52.5161 58.9048 53.129C57.8388 53.7419 56.9752 54.653 56.42 55.7501C56.1837 56.2222 55.7703 56.5816 55.27 56.7501C55.2003 56.7596 55.1297 56.7596 55.0601 56.7501C55.8944 56.7876 56.724 56.6072 57.4674 56.2267C58.2109 55.8462 58.8425 55.2789 59.3 54.5802C59.729 53.943 60.2961 53.4106 60.9592 53.0228C61.6223 52.635 62.3643 52.4017 63.13 52.3402C62.9 52.3502 62.66 52.3202 62.42 52.3002Z" fill="#093B73"/>
<path d="M62.42 64.9299C61.1938 65.0016 59.9733 64.7144 58.9077 64.1035C57.8421 63.4926 56.9777 62.5844 56.42 61.49C56.1837 61.0179 55.7703 60.6585 55.27 60.49C55.2001 60.4853 55.13 60.4853 55.0601 60.49C55.8948 60.4565 56.724 60.6397 57.467 61.0217C58.21 61.4037 58.8416 61.9715 59.3 62.6699C59.7306 63.3056 60.298 63.837 60.9608 64.2246C61.6236 64.6122 62.3648 64.8463 63.13 64.9099C62.894 64.9318 62.6569 64.9385 62.42 64.9299Z" fill="#093B73"/>
<path d="M51.73 69.1699C52.53 67.1699 53.34 61.4899 51.97 60.6299C52.0686 60.7822 52.1239 60.9585 52.13 61.1399C51.6857 64.0639 50.4862 66.8213 48.65 69.1399C48.5696 69.2432 48.5197 69.3669 48.5061 69.4971C48.4925 69.6272 48.5157 69.7588 48.573 69.8765C48.6303 69.9941 48.7194 70.0933 48.8302 70.1628C48.941 70.2324 49.0691 70.2696 49.2 70.27H52.28C51.7 70.3 51.51 69.7099 51.73 69.1699Z" fill="#093B73"/>
<path d="M54.2 0.75C58.5903 6.28032 63.5997 11.2896 69.13 15.6799C69.2691 15.7874 69.3816 15.9253 69.4591 16.083C69.5366 16.2408 69.5769 16.4143 69.5769 16.5901C69.5769 16.7658 69.5366 16.9392 69.4591 17.0969C69.3816 17.2547 69.2691 17.3925 69.13 17.5C63.5997 21.8904 58.5903 26.8996 54.2 32.4299C54.0949 32.5726 53.9579 32.6886 53.7998 32.7686C53.6417 32.8485 53.4672 32.8901 53.29 32.8901C53.1129 32.8901 52.9382 32.8485 52.7802 32.7686C52.6221 32.6886 52.485 32.5726 52.38 32.4299C47.9923 26.8973 42.9826 21.8877 37.45 17.5C37.3109 17.3925 37.1983 17.2547 37.1208 17.0969C37.0434 16.9392 37.0032 16.7658 37.0032 16.5901C37.0032 16.4143 37.0434 16.2408 37.1208 16.083C37.1983 15.9253 37.3109 15.7874 37.45 15.6799C42.9826 11.2922 47.9923 6.28267 52.38 0.75C52.4875 0.610933 52.6253 0.498363 52.7831 0.420898C52.9408 0.343434 53.1143 0.303223 53.29 0.303223C53.4658 0.303223 53.6391 0.343434 53.7969 0.420898C53.9546 0.498363 54.0925 0.610933 54.2 0.75Z" fill="#ED2939"/>
<path d="M53.15 32.4299C51.2971 27.2618 48.995 22.2661 46.27 17.4999C46.1321 17.2164 46.0604 16.9053 46.0604 16.59C46.0604 16.2747 46.1321 15.9634 46.27 15.6799C48.995 10.9137 51.2971 5.91796 53.15 0.749924C53.1832 0.651912 53.2397 0.563519 53.3146 0.492111C53.3895 0.420703 53.4805 0.368498 53.58 0.340011C53.3618 0.281851 53.1314 0.289725 52.9177 0.362717C52.7041 0.435708 52.5169 0.570443 52.38 0.749924C47.9923 6.2826 42.9826 11.2921 37.45 15.6799C37.3109 15.7873 37.1983 15.9252 37.1208 16.0829C37.0434 16.2407 37.0032 16.4143 37.0032 16.59C37.0032 16.7658 37.0434 16.9391 37.1208 17.0968C37.1983 17.2546 37.3109 17.3925 37.45 17.4999C42.9826 21.8877 47.9923 26.8972 52.38 32.4299C52.5169 32.6093 52.7041 32.7441 52.9177 32.8171C53.1314 32.8901 53.3618 32.8982 53.58 32.84C53.4789 32.8149 53.3861 32.7637 53.3107 32.6918C53.2353 32.6199 53.1799 32.5296 53.15 32.4299Z" fill="#B32D11"/>
<path d="M17.12 0.469971C16.9348 0.356872 16.722 0.297119 16.505 0.297119C16.288 0.297119 16.0752 0.356872 15.89 0.469971C12.99 2.23997 0.77002 10.24 0.77002 19.47C0.770018 21.7597 1.67891 23.9559 3.29706 25.5759C4.91521 27.196 7.11029 28.1075 9.40002 28.1101C10.9024 28.115 12.3791 27.7215 13.68 26.97C13.7612 26.9236 13.8549 26.9037 13.948 26.9131C14.0411 26.9224 14.1289 26.9606 14.1993 27.0222C14.2697 27.0838 14.3192 27.1658 14.3408 27.2568C14.3624 27.3478 14.3552 27.4433 14.32 27.53C13.6563 29.3832 12.7119 31.1234 11.52 32.6899C11.4168 32.8236 11.3533 32.9836 11.3367 33.1516C11.3202 33.3197 11.3512 33.4891 11.4263 33.6404C11.5014 33.7916 11.6175 33.9187 11.7614 34.0071C11.9053 34.0954 12.0711 34.1413 12.24 34.1399H20.86C21.0273 34.1376 21.1907 34.0894 21.3323 34.0002C21.4739 33.9111 21.5882 33.7846 21.6627 33.6348C21.7371 33.4849 21.7687 33.3176 21.7542 33.1509C21.7396 32.9842 21.6793 32.8246 21.58 32.6899C20.3988 31.1416 19.4612 29.4219 18.8 27.5901C18.767 27.5046 18.7609 27.4109 18.7825 27.3218C18.8041 27.2327 18.8523 27.1524 18.9208 27.0916C18.9893 27.0307 19.0748 26.9922 19.1658 26.9812C19.2568 26.9702 19.349 26.9872 19.43 27.03C20.7438 27.7585 22.2252 28.131 23.7274 28.1106C25.2295 28.0901 26.7001 27.6773 27.9937 26.9133C29.2872 26.1494 30.3586 25.0608 31.1017 23.7551C31.8448 22.4495 32.2337 20.9722 32.23 19.47C32.23 10.24 20 2.23997 17.12 0.469971Z" fill="#0A4586"/>
<path d="M12.94 27.3001C3.25 21.9301 12.35 5.8401 16.59 0.300103C16.3457 0.278748 16.1008 0.33463 15.89 0.460016C12.99 2.23002 0.77002 10.23 0.77002 19.46C0.770018 21.7498 1.67891 23.9459 3.29706 25.566C4.91521 27.186 7.11029 28.0975 9.40002 28.1002C10.6237 28.0899 11.8308 27.817 12.94 27.3001Z" fill="#093B73"/>
<path d="M14.88 32.8301C15.44 28.1901 15.41 26.8301 13.98 26.8301C14.045 26.8433 14.1064 26.8703 14.1599 26.9094C14.2135 26.9486 14.2579 26.9989 14.2902 27.0569C14.3225 27.1148 14.3419 27.179 14.3471 27.2451C14.3522 27.3113 14.343 27.3777 14.32 27.4399C13.6563 29.2931 12.712 31.0335 11.52 32.6001C11.4168 32.7338 11.3533 32.8937 11.3367 33.0618C11.3202 33.2298 11.3512 33.3991 11.4263 33.5503C11.5014 33.7015 11.6175 33.8286 11.7614 33.917C11.9053 34.0054 12.0712 34.0515 12.24 34.05H15.5C14.85 34.09 14.82 33.2901 14.88 32.8301Z" fill="#093B73"/>
</svg>
