<svg width="25" height="25" viewBox="0 0 25 25" fill="none" xmlns="http://www.w3.org/2000/svg">
<rect width="25" height="25" fill="#F3C934"/>
<g clip-path="url(#clip0_501_19412)">
<path d="M12.5 5.5C11.1155 5.5 9.76216 5.91054 8.61101 6.67971C7.45987 7.44888 6.56266 8.54213 6.03285 9.82122C5.50303 11.1003 5.36441 12.5078 5.63451 13.8656C5.9046 15.2235 6.57129 16.4708 7.55026 17.4497C8.52922 18.4287 9.7765 19.0954 11.1344 19.3655C12.4922 19.6356 13.8997 19.497 15.1788 18.9672C16.4579 18.4373 17.5511 17.5401 18.3203 16.389C19.0895 15.2378 19.5 13.8845 19.5 12.5C19.498 10.6441 18.7599 8.86479 17.4475 7.55247C16.1352 6.24015 14.3559 5.50201 12.5 5.5V5.5ZM17.2991 9.19192C17.9095 10.0759 18.2621 11.1122 18.3176 12.185L16.7216 11.0609L17.2991 9.19192ZM14.0814 6.89067L12.5 8.03983L10.9186 6.89067C11.9517 6.59201 13.0483 6.59201 14.0814 6.89067ZM13.9583 11.9493L13.403 13.6667H11.5947L11.0417 11.9493L12.5 10.8877L13.9583 11.9493ZM8.27842 11.0609L6.68242 12.185C6.73794 11.1123 7.09034 10.0761 7.70034 9.19192L8.27842 11.0609ZM7.83742 15.9913L9.8645 16L10.4974 17.9717C9.43837 17.5818 8.51462 16.894 7.83742 15.9913ZM11.8251 18.2908L10.7162 14.8333L7.15142 14.8228C6.97503 14.4159 6.84604 13.99 6.767 13.5535L9.64167 11.5264L8.60567 8.16933C8.92656 7.87851 9.27871 7.62418 9.65567 7.411L12.4749 9.46667L9.66734 11.5083L10.75 14.8333H14.25L15.3321 11.5037L12.5251 9.46667L15.3467 7.41333C15.7236 7.62651 16.0758 7.88085 16.3967 8.17167L15.3583 11.5264L18.2348 13.5529C18.1557 13.9892 18.0268 14.4149 17.8503 14.8217L14.2838 14.8333L13.1755 18.2908C12.7273 18.3475 12.2738 18.3475 11.8257 18.2908H11.8251ZM14.502 17.9717L15.1355 16L17.1626 15.9936C16.4852 16.8959 15.5612 17.5829 14.502 17.9717Z" fill="#000C28"/>
</g>
<defs>
<clipPath id="clip0_501_19412">
<rect width="14" height="14" fill="white" transform="translate(5.5 5.5)"/>
</clipPath>
</defs>
</svg>
