<svg width="54" height="55" viewBox="0 0 54 55" fill="none" xmlns="http://www.w3.org/2000/svg">
<rect y="0.166016" width="54" height="54" rx="27" fill="white"/>
<g clip-path="url(#clip0_387_24454)">
<path d="M42.3936 16.9399L30.8667 11.4268C30.5073 11.2557 30.1143 11.1666 29.7163 11.166H24.2837C23.8857 11.1666 23.4927 11.2557 23.1333 11.4268L11.6069 16.9399C11.2368 17.1177 11.001 17.4914 11 17.902V19.166C11 19.7551 11.4776 20.2327 12.0667 20.2327H12.6981C12.5504 20.6307 12.57 21.0715 12.7525 21.4549C12.9349 21.8382 13.2646 22.1315 13.6667 22.2679V35.7975C13.2646 35.9339 12.9349 36.2271 12.7525 36.6105C12.57 36.9938 12.5504 37.4347 12.6981 37.8327H12.6C12.0109 37.8327 11.5333 38.3102 11.5333 38.8994V40.1143C11.2044 40.3033 11.0011 40.6533 11 41.0327V42.0993C11 42.6885 11.4776 43.166 12.0667 43.166H41.9333C42.5224 43.166 43 42.6885 43 42.0993V41.0327C42.9989 40.6533 42.7956 40.3033 42.4667 40.1143V38.8994C42.4667 38.3102 41.9891 37.8327 41.4 37.8327H41.3019C41.4496 37.4347 41.43 36.9938 41.2475 36.6105C41.0651 36.2271 40.7354 35.9339 40.3333 35.7975V22.2679C40.7354 22.1315 41.0651 21.8382 41.2475 21.4549C41.43 21.0715 41.4496 20.6307 41.3019 20.2327H41.9333C42.5224 20.2327 43 19.7551 43 19.166V17.902C42.9989 17.4916 42.7634 17.1179 42.3936 16.9399ZM23.5936 12.3895C23.8092 12.2867 24.0449 12.2331 24.2837 12.2327H29.7163C29.9551 12.2331 30.1908 12.2867 30.4064 12.3895L40.1152 17.0327H13.8848L23.5936 12.3895ZM14.2 36.766H17.4C17.6946 36.766 17.9333 37.0048 17.9333 37.2994C17.9333 37.5939 17.6946 37.8327 17.4 37.8327H14.2C13.9054 37.8327 13.6667 37.5939 13.6667 37.2994C13.6667 37.0048 13.9054 36.766 14.2 36.766ZM18.9019 20.2327H35.0981C34.9504 20.6307 34.97 21.0715 35.1525 21.4549C35.3349 21.8382 35.6646 22.1315 36.0667 22.2679V35.7975C35.6646 35.9339 35.3349 36.2271 35.1525 36.6105C34.97 36.9938 34.9504 37.4347 35.0981 37.8327H18.9019C19.0496 37.4347 19.03 36.9938 18.8475 36.6105C18.6651 36.2271 18.3354 35.9339 17.9333 35.7975V22.2679C18.3354 22.1315 18.6651 21.8382 18.8475 21.4549C19.03 21.0715 19.0496 20.6307 18.9019 20.2327ZM39.8 36.766C40.0946 36.766 40.3333 37.0048 40.3333 37.2994C40.3333 37.5939 40.0946 37.8327 39.8 37.8327H36.6C36.3054 37.8327 36.0667 37.5939 36.0667 37.2994C36.0667 37.0048 36.3054 36.766 36.6 36.766H39.8ZM37.1333 35.6994V22.366H39.2667V35.6994H37.1333ZM17.4 21.2993H14.2C13.9054 21.2993 13.6667 21.0606 13.6667 20.766C13.6667 20.4715 13.9054 20.2327 14.2 20.2327H17.4C17.6946 20.2327 17.9333 20.4715 17.9333 20.766C17.9333 21.0606 17.6946 21.2993 17.4 21.2993ZM16.8667 22.366V35.6994H14.7333V22.366H16.8667ZM41.9333 41.0327V42.0993H12.0667V41.0327H41.9333ZM41.4 38.8994V39.966H12.6V38.8994H41.4ZM39.8 21.2993H36.6C36.3054 21.2993 36.0667 21.0606 36.0667 20.766C36.0667 20.4715 36.3054 20.2327 36.6 20.2327H39.8C40.0946 20.2327 40.3333 20.4715 40.3333 20.766C40.3333 21.0606 40.0946 21.2993 39.8 21.2993ZM41.9333 19.166H12.0667V18.0993H41.9333V19.166Z" fill="#0D4EE3"/>
<path d="M26.4791 36.6318C26.8027 36.809 27.1944 36.809 27.518 36.6318C31.138 34.6348 33.3897 30.8312 33.3996 26.6969V24.0372C33.4001 23.5083 33.0129 23.0589 32.4897 22.9812C30.754 22.7697 29.0708 22.2457 27.5217 21.4345C27.1978 21.251 26.8014 21.251 26.4775 21.4345C24.9284 22.2457 23.2453 22.7697 21.5095 22.9812C20.9863 23.0589 20.5992 23.5083 20.5996 24.0372V26.6969C20.5972 28.9352 21.2617 31.1234 22.5084 32.9822C23.5253 34.4952 24.8859 35.7459 26.4791 36.6318ZM21.6604 24.0366C23.5278 23.8128 25.3379 23.2461 26.9996 22.3652C28.6599 23.2447 30.4677 23.8115 32.333 24.0372V26.6969C32.3228 30.4436 30.2809 33.8899 26.9996 35.6985H26.9948C25.5495 34.895 24.3151 33.7605 23.3927 32.3881C22.2645 30.7047 21.6634 28.7234 21.6663 26.6969L21.6604 24.0366Z" fill="#0D4EE3"/>
<path d="M27.0005 31.4335C26.4114 31.4335 25.9339 30.9559 25.9339 30.3668C25.9339 30.0722 25.6951 29.8335 25.4005 29.8335C25.106 29.8335 24.8672 30.0722 24.8672 30.3668C24.8708 31.3366 25.5282 32.1819 26.4672 32.4244V33.0335C26.4672 33.328 26.706 33.5668 27.0005 33.5668C27.2951 33.5668 27.5339 33.328 27.5339 33.0335V32.4244C28.5729 32.157 29.2507 31.1581 29.1152 30.0938C28.9798 29.0294 28.0735 28.2321 27.0005 28.2335C26.4114 28.2335 25.9339 27.7559 25.9339 27.1668C25.9339 26.5777 26.4114 26.1001 27.0005 26.1001C27.5896 26.1001 28.0672 26.5777 28.0672 27.1668C28.0672 27.4613 28.306 27.7001 28.6005 27.7001C28.8951 27.7001 29.1339 27.4613 29.1339 27.1668C29.1302 26.197 28.4729 25.3516 27.5339 25.1092V24.5001C27.5339 24.2056 27.2951 23.9668 27.0005 23.9668C26.706 23.9668 26.4672 24.2056 26.4672 24.5001V25.1092C25.4281 25.3766 24.7504 26.3755 24.8858 27.4398C25.0213 28.5042 25.9276 29.3015 27.0005 29.3001C27.5896 29.3001 28.0672 29.7777 28.0672 30.3668C28.0672 30.9559 27.5896 31.4335 27.0005 31.4335Z" fill="#0D4EE3"/>
</g>
<defs>
<clipPath id="clip0_387_24454">
<rect width="32" height="32" fill="white" transform="translate(11 11.166)"/>
</clipPath>
</defs>
</svg>
