<svg width="75" height="75" viewBox="0 0 75 75" fill="none" xmlns="http://www.w3.org/2000/svg">
<circle cx="37.5" cy="37.5" r="37.5" fill="#6C41BF"/>
<path d="M34.7173 41.6178L27.2735 34.1741C26.8933 33.7939 26.273 33.7939 25.8928 34.1741L25.8408 34.2261C25.4606 34.6063 25.4606 35.2266 25.8408 35.6068L33.2846 43.0506C33.6728 43.4388 34.2931 43.4227 34.6813 43.0306C34.6853 43.0265 34.6893 43.0225 34.6973 43.0145C35.0895 42.6263 35.1055 42.006 34.7173 41.6178Z" fill="white"/>
<path d="M41.3891 57.7779C45.838 57.7779 49.4446 54.1713 49.4446 49.7223C49.4446 45.2733 45.838 41.6667 41.3891 41.6667C36.9401 41.6667 33.3335 45.2733 33.3335 49.7223C33.3335 54.1713 36.9401 57.7779 41.3891 57.7779Z" fill="white"/>
<path d="M41.2058 17.7778C36.2539 17.7818 31.6876 19.9241 28.5917 23.5456C28.1029 24.1185 28.3374 24.9817 29.0487 25.2485C29.0567 25.2524 29.0646 25.2563 29.0726 25.2563C29.3985 25.378 29.7641 25.2642 29.9827 24.9974C31.4094 23.2788 33.2057 21.9212 35.2286 21.0227L35.2326 21.0306C39.3856 19.2885 43.336 20.7637 45.4065 22.9963C47.4532 25.2014 47.8228 28.101 46.3961 30.7534C44.6156 34.0611 44.3295 36.8115 45.5416 38.9342C46.6266 40.8294 48.9396 42.0536 51.7334 42.2105C51.8765 42.2184 52.0196 42.2223 52.1587 42.2223C55.4731 42.2223 56.8403 39.9819 57.1185 38.7067C57.7424 36.5918 57.9292 34.3553 57.655 32.1228C56.6614 23.9772 49.5119 17.77 41.2058 17.7778ZM55.1791 38.1848L55.1552 38.2751C55.1393 38.3614 54.7061 40.386 51.8447 40.2251C51.0578 40.182 48.3951 39.8877 47.2943 37.9573C46.4517 36.4859 46.7577 34.3122 48.1726 31.6794C50.0166 28.254 49.5357 24.503 46.8889 21.6544C46.4676 21.1993 45.9828 20.7716 45.4463 20.3792C51.4115 22.1723 55.7672 27.6537 55.7672 34.1238C55.7672 35.505 55.5685 36.8704 55.1791 38.1848Z" fill="white"/>
<path d="M25.8334 42.2223C30.2823 42.2223 33.8889 38.6157 33.8889 34.1668C33.8889 29.7178 30.2823 26.1112 25.8334 26.1112C21.3844 26.1112 17.7778 29.7178 17.7778 34.1668C17.7778 38.6157 21.3844 42.2223 25.8334 42.2223Z" fill="white"/>
</svg>
