<svg width="343" height="318" viewBox="0 0 343 318" fill="none" xmlns="http://www.w3.org/2000/svg">
<path d="M123.837 131.704C141.2 131.704 155.275 120.085 155.275 105.753C155.275 91.4203 141.2 79.8015 123.837 79.8015C106.474 79.8015 92.3982 91.4203 92.3982 105.753C92.3982 120.085 106.474 131.704 123.837 131.704Z" fill="#333333"/>
<path d="M162.383 65.9661C158.097 68.9625 150.937 73.8869 146.938 76.1277C157.052 89.5724 172.941 113.335 176.025 117.921L189.091 116.54L200.094 114.638L203.177 109.479C192.776 96.6074 176.887 79.5149 162.383 65.9661Z" fill="#F9806D"/>
<mask id="path-3-inside-1" fill="white">
<path fill-rule="evenodd" clip-rule="evenodd" d="M90.6039 7.51702C85.9438 1.94128 67.8883 -1.24864 63.3379 0.462385C60.9665 1.35921 62.1915 1.67494 64.7037 2.32241C67.0087 2.91646 70.3972 3.78977 73.0856 5.64738C75.2522 7.13747 76.1406 8.43947 76.8414 9.46647C77.9664 11.1152 78.6078 12.0552 83.2776 11.9267C84.8506 11.8782 86.0893 11.6648 87.0646 11.3566C91.9671 18.9177 102.64 31.5811 109.528 39.7538C111.386 41.9587 112.969 43.8368 114.089 45.1996C117.765 49.6742 122.113 52.9087 126.723 56.3387C131.911 60.1988 137.433 64.3065 142.705 70.708C152.688 82.8238 176.547 118.702 176.547 118.702L204.876 112.527C176.576 73.5564 109.649 19.3704 90.6039 7.51702Z"/>
</mask>
<path fill-rule="evenodd" clip-rule="evenodd" d="M90.6039 7.51702C85.9438 1.94128 67.8883 -1.24864 63.3379 0.462385C60.9665 1.35921 62.1915 1.67494 64.7037 2.32241C67.0087 2.91646 70.3972 3.78977 73.0856 5.64738C75.2522 7.13747 76.1406 8.43947 76.8414 9.46647C77.9664 11.1152 78.6078 12.0552 83.2776 11.9267C84.8506 11.8782 86.0893 11.6648 87.0646 11.3566C91.9671 18.9177 102.64 31.5811 109.528 39.7538C111.386 41.9587 112.969 43.8368 114.089 45.1996C117.765 49.6742 122.113 52.9087 126.723 56.3387C131.911 60.1988 137.433 64.3065 142.705 70.708C152.688 82.8238 176.547 118.702 176.547 118.702L204.876 112.527C176.576 73.5564 109.649 19.3704 90.6039 7.51702Z" fill="white"/>
<path d="M90.6039 7.51702L89.8366 8.15831L89.9394 8.28131L90.0755 8.36601L90.6039 7.51702ZM63.3379 0.462385L62.986 -0.473632L62.9842 -0.472963L63.3379 0.462385ZM64.7037 2.32241L64.9533 1.35405L64.7037 2.32241ZM73.0856 5.64738L72.5172 6.4701L72.519 6.47132L73.0856 5.64738ZM76.8414 9.46647L77.6674 8.90283L77.6674 8.90283L76.8414 9.46647ZM83.2776 11.9267L83.3051 12.9264L83.3085 12.9263L83.2776 11.9267ZM87.0646 11.3566L87.9037 10.8126L87.4894 10.1737L86.7634 10.4031L87.0646 11.3566ZM109.528 39.7538L110.293 39.1093L110.293 39.1093L109.528 39.7538ZM114.089 45.1996L114.861 44.5648L114.861 44.5648L114.089 45.1996ZM126.723 56.3387L126.126 57.141L126.126 57.141L126.723 56.3387ZM142.705 70.708L141.933 71.3437L141.933 71.3439L142.705 70.708ZM176.547 118.702L175.715 119.256L176.093 119.825L176.76 119.679L176.547 118.702ZM204.876 112.527L205.089 113.504L206.585 113.178L205.685 111.94L204.876 112.527ZM91.3712 6.87572C90.0569 5.30317 87.8843 3.98256 85.4177 2.90542C82.9263 1.81745 80.027 0.932039 77.1502 0.281773C74.2723 -0.368766 71.3893 -0.790184 68.923 -0.939431C66.506 -1.08569 64.3378 -0.981935 62.986 -0.47363L63.6899 1.3984C64.6133 1.05119 66.4083 0.912054 68.8022 1.05692C71.1467 1.1988 73.9221 1.60252 76.7093 2.23256C79.4977 2.86286 82.2705 3.71344 84.6173 4.73828C86.989 5.77397 88.8209 6.943 89.8366 8.15831L91.3712 6.87572ZM62.9842 -0.472963C62.4008 -0.252332 61.8583 -0.00782095 61.5188 0.306016C61.3423 0.469176 61.0646 0.794714 61.0656 1.2763C61.0665 1.77288 61.3609 2.0959 61.5464 2.25169C61.7373 2.41198 61.9599 2.52369 62.1463 2.60407C62.3441 2.68934 62.5671 2.76687 62.7988 2.83925C63.2594 2.98314 63.835 3.13119 64.4542 3.29076L64.9533 1.35405C64.3164 1.18989 63.7967 1.05567 63.3952 0.930233C63.1958 0.867952 63.0461 0.814052 62.9383 0.767568C62.8192 0.716186 62.8036 0.695807 62.8326 0.720115C62.8562 0.739923 63.0649 0.923062 63.0656 1.2723C63.0659 1.43647 63.017 1.56632 62.9702 1.64979C62.9266 1.72757 62.8838 1.76776 62.8764 1.7746C62.8676 1.78282 62.9107 1.74347 63.0654 1.6649C63.2103 1.59133 63.4143 1.50261 63.6917 1.39773L62.9842 -0.472963ZM64.4542 3.29076C66.7846 3.89138 69.9981 4.72951 72.5172 6.47009L73.6541 4.82467C70.7963 2.85004 67.2328 1.94154 64.9533 1.35405L64.4542 3.29076ZM72.519 6.47132C74.5379 7.85986 75.3439 9.04595 76.0154 10.0301L77.6674 8.90283C76.9374 7.83299 75.9666 6.41507 73.6523 4.82344L72.519 6.47132ZM76.0154 10.0301C76.5638 10.8339 77.139 11.708 78.2972 12.2644C79.4083 12.7982 80.9396 12.9914 83.3051 12.9264L83.2502 10.9271C80.9459 10.9905 79.8216 10.778 79.1633 10.4617C78.552 10.168 78.244 9.74782 77.6674 8.90283L76.0154 10.0301ZM83.3085 12.9263C84.9538 12.8755 86.2861 12.6513 87.3659 12.3102L86.7634 10.4031C85.8924 10.6782 84.7473 10.8809 83.2468 10.9272L83.3085 12.9263ZM86.2256 11.9007C91.1709 19.5277 101.896 32.2496 108.763 40.3982L110.293 39.1093C103.384 30.9125 92.7634 18.3077 87.9037 10.8126L86.2256 11.9007ZM108.763 40.3982C110.623 42.6053 112.201 44.4776 113.316 45.8345L114.861 44.5648C113.737 43.196 112.149 41.3122 110.293 39.1093L108.763 40.3982ZM113.316 45.8345C117.082 50.4182 121.529 53.7211 126.126 57.141L127.32 55.5364C122.696 52.0963 118.448 48.9303 114.861 44.5648L113.316 45.8345ZM126.126 57.141C131.316 61.0022 136.747 65.0463 141.933 71.3437L143.477 70.0723C138.119 63.5667 132.507 59.3954 127.32 55.5364L126.126 57.141ZM141.933 71.3439C146.892 77.3622 155.328 89.3233 162.546 99.8154C166.15 105.054 169.442 109.915 171.834 113.466C173.03 115.241 174 116.689 174.671 117.693C175.007 118.195 175.268 118.586 175.445 118.851C175.534 118.984 175.601 119.085 175.646 119.153C175.669 119.187 175.686 119.213 175.698 119.23C175.703 119.239 175.708 119.245 175.711 119.25C175.712 119.252 175.713 119.253 175.714 119.255C175.714 119.255 175.714 119.255 175.715 119.256C175.715 119.256 175.715 119.256 176.547 118.702C177.38 118.149 177.38 118.148 177.38 118.148C177.38 118.148 177.379 118.147 177.379 118.147C177.378 118.146 177.377 118.144 177.376 118.142C177.373 118.138 177.368 118.131 177.363 118.122C177.351 118.105 177.334 118.079 177.311 118.045C177.266 117.976 177.198 117.875 177.109 117.742C176.932 117.476 176.67 117.084 176.334 116.581C175.662 115.576 174.69 114.126 173.493 112.348C171.099 108.794 167.802 103.927 164.194 98.6818C156.986 88.2058 148.501 76.1696 143.477 70.0721L141.933 71.3439ZM176.76 119.679L205.089 113.504L204.663 111.55L176.334 117.725L176.76 119.679ZM205.685 111.94C191.467 92.3606 167.591 69.0117 144.929 49.1019C122.268 29.1922 100.726 12.6389 91.1323 6.66803L90.0755 8.36601C99.5271 14.2486 120.971 30.715 143.609 50.6044C166.247 70.4936 189.985 93.723 204.067 113.115L205.685 111.94Z" fill="#333333" mask="url(#path-3-inside-1)"/>
<path d="M128.196 88.6873L128.196 88.6872L128.196 88.6872L128.216 88.677L128.234 88.6651C136.153 83.6135 145.497 85.2748 152.923 88.4939C156.626 90.099 159.82 92.0783 162.068 93.7591C163.193 94.6 164.073 95.36 164.659 95.9543C164.953 96.2528 165.163 96.4989 165.292 96.6845C165.356 96.7774 165.392 96.8429 165.409 96.883C165.165 98.7628 164.447 100.298 163.784 101.37C163.45 101.909 163.131 102.328 162.898 102.61C162.782 102.751 162.687 102.858 162.622 102.928C162.59 102.963 162.565 102.988 162.549 103.005L162.532 103.023L162.529 103.026L162.528 103.026L162.528 103.026L162.528 103.026L162.528 103.026L162.148 103.401L162.548 103.756L162.88 103.382C162.548 103.756 162.548 103.756 162.549 103.757L162.549 103.757L162.551 103.759L162.555 103.763L162.569 103.774C162.573 103.778 162.578 103.782 162.584 103.786C162.593 103.794 162.603 103.803 162.616 103.813C162.656 103.845 162.712 103.889 162.786 103.943C162.934 104.05 163.152 104.196 163.441 104.361C164.019 104.69 164.882 105.093 166.045 105.408C168.375 106.039 171.884 106.309 176.683 104.957L176.685 104.957C185.906 102.327 202.278 104.511 212.129 121.172L212.129 121.172C215.851 127.456 219.993 137.707 223.459 148.169C226.924 158.628 229.697 169.246 230.697 176.252C231.684 183.162 229.387 192.346 225.725 199.912C223.897 203.687 221.743 207.029 219.519 209.461C217.279 211.911 215.038 213.361 213.043 213.515C212.1 213.588 210.89 213.202 209.45 212.373C208.023 211.551 206.432 210.331 204.748 208.829C201.381 205.827 197.694 201.75 194.268 197.637C190.844 193.527 187.693 189.394 185.396 186.287C184.248 184.734 183.314 183.439 182.667 182.531C182.344 182.078 182.092 181.721 181.922 181.479C181.888 181.431 181.858 181.387 181.831 181.349C181.842 181.327 181.854 181.304 181.867 181.28C181.978 181.067 182.148 180.757 182.379 180.376C182.842 179.613 183.551 178.566 184.527 177.436C186.482 175.175 189.497 172.598 193.759 171.292C194.926 170.934 195.794 170.36 196.317 169.587C196.844 168.806 196.979 167.881 196.793 166.91C196.428 165.005 194.819 162.854 192.313 160.86C187.272 156.847 178.318 153.234 167.006 153.299H167.006C164.045 153.317 161.96 151.481 160.466 148.482C158.968 145.474 158.123 141.394 157.643 137.181C157.165 132.978 157.053 128.69 156.995 125.288C156.988 124.889 156.982 124.501 156.976 124.127C156.956 122.912 156.94 121.84 156.907 120.973C156.886 120.406 156.858 119.917 156.817 119.526C156.779 119.157 156.724 118.815 156.622 118.582C155.622 116.247 154.379 114.649 152.888 113.604C151.397 112.558 149.702 112.095 147.851 111.957C146.008 111.82 143.986 112.003 141.829 112.268C141.198 112.345 140.556 112.43 139.902 112.516C138.303 112.726 136.632 112.946 134.874 113.097C127.29 113.749 121.63 110.887 118.526 107.261C115.386 103.593 114.951 99.3202 117.369 96.9093L117.37 96.9076C120.034 94.2264 122.745 92.1684 124.79 90.7809C125.812 90.0874 126.667 89.5623 127.265 89.2113C127.564 89.0358 127.798 88.9039 127.957 88.8163C128.037 88.7726 128.097 88.7398 128.138 88.7183L128.183 88.6944L128.193 88.6887L128.196 88.6875L128.196 88.6873ZM165.418 96.9081C165.418 96.9081 165.417 96.9068 165.417 96.904C165.417 96.9067 165.418 96.908 165.418 96.9081Z" fill="white" stroke="#333333"/>
<path d="M261.502 214.111C245.885 215.483 228.305 216.414 215.075 214.12C211.816 213.551 209.45 212.482 207.781 211.077C206.117 209.676 205.117 207.917 204.626 205.913C203.636 201.876 204.709 196.844 206.652 191.859C208.587 186.892 211.351 182.059 213.637 178.46C214.779 176.662 215.799 175.177 216.533 174.141C216.9 173.623 217.196 173.218 217.399 172.943C217.496 172.812 217.572 172.71 217.625 172.64C223.459 170.551 232.384 169.886 242.633 170.185C252.946 170.486 264.538 171.761 275.544 173.499C286.55 175.238 296.958 177.438 304.903 179.588C308.877 180.663 312.225 181.722 314.72 182.702C315.968 183.192 316.993 183.658 317.772 184.091C318.566 184.532 319.053 184.912 319.282 185.212C320.583 186.92 321.611 189.785 322.389 193.574C323.163 197.347 323.677 201.973 323.989 207.151C324.612 217.504 324.425 230.011 323.914 242.201C323.403 254.388 322.569 266.246 321.904 275.298C321.819 276.459 321.736 277.574 321.658 278.638C321.429 281.72 321.233 284.371 321.094 286.463C321.001 287.869 320.933 289.027 320.898 289.895C320.881 290.328 320.872 290.693 320.873 290.982C320.874 291.262 320.883 291.501 320.912 291.665C321.112 292.828 321.736 293.944 322.611 294.996C323.487 296.05 324.637 297.067 325.931 298.034C328.518 299.967 331.739 301.74 334.654 303.239C335.702 303.778 336.705 304.279 337.626 304.739C339.292 305.57 340.69 306.269 341.602 306.816C341.855 306.968 342.058 307.101 342.213 307.215C342.067 307.228 341.884 307.235 341.658 307.235C340.217 307.235 337.959 307.32 335.279 307.42C334.437 307.451 333.552 307.484 332.638 307.517C328.808 307.652 324.445 307.779 320.409 307.743C316.364 307.708 312.684 307.509 310.204 307.004C308.95 306.748 308.081 306.428 307.616 306.068C307.393 305.895 307.302 305.743 307.273 305.619C307.244 305.501 307.254 305.333 307.39 305.086C307.39 305.085 307.39 305.085 307.391 305.085L307.451 304.977C308.842 302.49 309.623 301.096 309.7 299.391C309.739 298.528 309.599 297.609 309.312 296.453C309.027 295.303 308.587 293.884 308.01 292.021L308.006 292.007C305.515 283.928 303.18 277.391 301.145 271.689C300.897 270.997 300.655 270.316 300.416 269.647C298.215 263.465 296.416 258.237 295.2 252.936C292.774 242.361 292.66 231.447 296.441 212.103L296.546 211.57L296.005 211.51C293.344 211.217 288.591 211.532 282.608 212.081C280.099 212.312 277.373 212.583 274.481 212.872C270.433 213.275 266.061 213.711 261.502 214.111Z" fill="white" stroke="#333333"/>
<mask id="path-7-inside-2" fill="white">
<path fill-rule="evenodd" clip-rule="evenodd" d="M113.316 174.113C124.309 155.747 140.378 128.903 156.163 120.891L169.596 118.729L178.272 154.19C178.272 154.19 168.289 153.773 161.782 157.655C158.606 159.551 150.634 167.773 141.509 177.184C131.941 187.052 121.106 198.228 113.2 204.79C110.221 207.263 106.853 210.187 103.249 213.316C94.017 221.332 83.2399 230.689 73.5037 237.229C72.0651 238.194 70.7437 239.031 69.5392 239.746C68.7667 245.328 65.2044 250.432 60.2803 252.993C54.2174 256.145 60.8814 249.006 60.8814 249.006C60.8814 249.006 47.1875 262.685 47.1875 258.569C47.1875 257.735 50.3496 245.88 55.1843 242.492C56.9534 241.259 59.3804 239.916 61.7519 238.706C62.2937 237.774 62.9181 236.675 63.6054 235.465C66.6199 230.158 70.8429 222.724 74.6012 217.974C78.7338 212.747 85.9617 206.111 93.5677 199.126C96.3511 196.57 99.1852 193.968 101.937 191.371C104.33 189.124 108.293 182.503 113.316 174.113Z"/>
</mask>
<path fill-rule="evenodd" clip-rule="evenodd" d="M113.316 174.113C124.309 155.747 140.378 128.903 156.163 120.891L169.596 118.729L178.272 154.19C178.272 154.19 168.289 153.773 161.782 157.655C158.606 159.551 150.634 167.773 141.509 177.184C131.941 187.052 121.106 198.228 113.2 204.79C110.221 207.263 106.853 210.187 103.249 213.316C94.017 221.332 83.2399 230.689 73.5037 237.229C72.0651 238.194 70.7437 239.031 69.5392 239.746C68.7667 245.328 65.2044 250.432 60.2803 252.993C54.2174 256.145 60.8814 249.006 60.8814 249.006C60.8814 249.006 47.1875 262.685 47.1875 258.569C47.1875 257.735 50.3496 245.88 55.1843 242.492C56.9534 241.259 59.3804 239.916 61.7519 238.706C62.2937 237.774 62.9181 236.675 63.6054 235.465C66.6199 230.158 70.8429 222.724 74.6012 217.974C78.7338 212.747 85.9617 206.111 93.5677 199.126C96.3511 196.57 99.1852 193.968 101.937 191.371C104.33 189.124 108.293 182.503 113.316 174.113Z" fill="white"/>
<path d="M156.163 120.891L156.004 119.904L155.85 119.929L155.711 119.999L156.163 120.891ZM113.316 174.113L114.174 174.626L114.174 174.626L113.316 174.113ZM169.596 118.729L170.567 118.491L170.348 117.595L169.437 117.741L169.596 118.729ZM178.272 154.19L178.23 155.189L179.56 155.245L179.244 153.952L178.272 154.19ZM161.782 157.655L161.27 156.797L161.27 156.797L161.782 157.655ZM141.509 177.184L140.791 176.488L140.791 176.488L141.509 177.184ZM113.2 204.79L112.561 204.02L112.561 204.02L113.2 204.79ZM103.249 213.316L103.904 214.071L103.904 214.071L103.249 213.316ZM73.5037 237.229L74.0608 238.06L74.0613 238.059L73.5037 237.229ZM69.5392 239.746L69.0289 238.886L68.6147 239.132L68.5487 239.609L69.5392 239.746ZM60.2803 252.993L60.7416 253.88L60.7416 253.88L60.2803 252.993ZM60.8814 249.006L61.6124 249.689L60.1746 248.299L60.8814 249.006ZM55.1843 242.492L54.6126 241.672L54.6105 241.673L55.1843 242.492ZM61.7519 238.706L62.2063 239.597L62.4684 239.463L62.6163 239.209L61.7519 238.706ZM63.6054 235.465L64.4749 235.959L64.4749 235.959L63.6054 235.465ZM74.6012 217.974L75.3855 218.595L75.3857 218.594L74.6012 217.974ZM93.5677 199.126L92.8913 198.39L92.8913 198.39L93.5677 199.126ZM101.937 191.371L101.252 190.642L101.25 190.644L101.937 191.371ZM155.711 119.999C147.592 124.12 139.511 133.005 132.137 143.027C124.74 153.079 117.951 164.423 112.458 173.599L114.174 174.626C119.675 165.437 126.416 154.176 133.748 144.212C141.103 134.217 148.949 125.674 156.616 121.783L155.711 119.999ZM169.437 117.741L156.004 119.904L156.322 121.878L169.755 119.716L169.437 117.741ZM179.244 153.952L170.567 118.491L168.625 118.966L177.301 154.428L179.244 153.952ZM162.294 158.514C165.367 156.681 169.322 155.836 172.582 155.46C174.199 155.274 175.618 155.206 176.631 155.185C177.138 155.175 177.542 155.176 177.817 155.18C177.955 155.182 178.06 155.184 178.13 155.186C178.165 155.187 178.191 155.188 178.208 155.188C178.217 155.189 178.223 155.189 178.226 155.189C178.228 155.189 178.23 155.189 178.23 155.189C178.231 155.189 178.231 155.189 178.231 155.189C178.231 155.189 178.231 155.189 178.231 155.189C178.231 155.189 178.23 155.189 178.272 154.19C178.314 153.191 178.314 153.191 178.313 153.191C178.313 153.191 178.313 153.191 178.313 153.191C178.312 153.191 178.311 153.191 178.31 153.191C178.309 153.191 178.306 153.191 178.303 153.191C178.297 153.19 178.289 153.19 178.278 153.19C178.257 153.189 178.226 153.188 178.187 153.187C178.107 153.185 177.992 153.182 177.844 153.18C177.548 153.176 177.121 153.175 176.59 153.186C175.528 153.208 174.045 153.279 172.353 153.474C168.994 153.86 164.704 154.747 161.27 156.797L162.294 158.514ZM142.227 177.88C146.792 173.172 151.057 168.773 154.577 165.315C158.134 161.82 160.831 159.388 162.294 158.514L161.27 156.797C159.557 157.819 156.679 160.445 153.175 163.888C149.634 167.367 145.351 171.785 140.791 176.488L142.227 177.88ZM113.839 205.559C121.796 198.955 132.675 187.732 142.227 177.88L140.791 176.488C131.207 186.373 120.415 197.502 112.561 204.02L113.839 205.559ZM103.904 214.071C107.511 210.94 110.87 208.024 113.839 205.559L112.561 204.02C109.572 206.502 106.195 209.434 102.593 212.561L103.904 214.071ZM74.0613 238.059C83.8591 231.478 94.6855 222.076 103.904 214.071L102.593 212.561C93.3485 220.588 82.6207 229.9 72.946 236.399L74.0613 238.059ZM70.0496 240.606C71.2723 239.88 72.6093 239.033 74.0608 238.06L72.9465 236.399C71.5208 237.355 70.2151 238.182 69.0289 238.886L70.0496 240.606ZM68.5487 239.609C67.8196 244.877 64.4495 249.698 59.8189 252.105L60.7416 253.88C65.9593 251.167 69.7138 245.779 70.5298 239.883L68.5487 239.609ZM59.8189 252.105C59.0825 252.488 58.5996 252.682 58.3069 252.761C58.1591 252.8 58.1117 252.796 58.1319 252.797C58.1526 252.798 58.3403 252.811 58.5205 252.99C58.71 253.178 58.733 253.39 58.7331 253.464C58.7332 253.526 58.72 253.531 58.7478 253.453C58.8023 253.301 58.9307 253.056 59.1445 252.728C59.5623 252.089 60.1717 251.334 60.695 250.722C60.9531 250.42 61.1838 250.16 61.3497 249.976C61.4326 249.884 61.499 249.812 61.5444 249.762C61.5671 249.737 61.5845 249.719 61.596 249.706C61.6018 249.7 61.6061 249.695 61.6088 249.692C61.6102 249.691 61.6112 249.69 61.6118 249.689C61.6121 249.689 61.6123 249.689 61.6124 249.689C61.6124 249.688 61.6124 249.688 61.6125 249.688C61.6124 249.688 61.6124 249.689 60.8814 249.006C60.1504 248.324 60.1502 248.324 60.1501 248.324C60.15 248.324 60.1499 248.324 60.1497 248.324C60.1494 248.325 60.149 248.325 60.1485 248.326C60.1475 248.327 60.1461 248.328 60.1443 248.33C60.1407 248.334 60.1355 248.34 60.1288 248.347C60.1155 248.361 60.0962 248.382 60.0716 248.409C60.0223 248.463 59.9515 248.54 59.864 248.637C59.6892 248.831 59.4466 249.105 59.1747 249.423C58.638 250.051 57.9603 250.884 57.4699 251.635C57.2296 252.003 56.9988 252.404 56.8644 252.78C56.7978 252.967 56.7328 253.207 56.7331 253.466C56.7335 253.738 56.8089 254.109 57.1123 254.41C57.4064 254.702 57.7696 254.782 58.0368 254.794C58.3035 254.807 58.5737 254.76 58.8239 254.693C59.3273 254.558 59.9623 254.285 60.7416 253.88L59.8189 252.105ZM60.8814 249.006C60.1746 248.299 60.1746 248.299 60.1746 248.299C60.1745 248.299 60.1744 248.299 60.1742 248.299C60.1739 248.299 60.1733 248.3 60.1726 248.301C60.171 248.302 60.1687 248.305 60.1656 248.308C60.1593 248.314 60.1497 248.324 60.1371 248.336C60.1118 248.361 60.0739 248.399 60.0244 248.448C59.9254 248.546 59.7797 248.689 59.594 248.871C59.2224 249.234 58.6911 249.749 58.0534 250.354C56.7763 251.566 55.0794 253.133 53.3874 254.569C51.6783 256.019 50.0335 257.284 48.8466 257.934C48.5553 258.094 48.3139 258.204 48.1229 258.27C48.0286 258.303 47.9555 258.322 47.902 258.332C47.8474 258.342 47.8253 258.341 47.8291 258.341C47.8512 258.342 48.0031 258.365 48.1236 258.517C48.2193 258.637 48.1875 258.708 48.1875 258.569H46.1875C46.1875 258.944 46.2627 259.39 46.559 259.763C46.88 260.166 47.3261 260.317 47.7227 260.338C48.0929 260.358 48.4598 260.271 48.7795 260.159C49.1101 260.045 49.4571 259.88 49.8077 259.688C51.1885 258.932 52.9671 257.548 54.6815 256.094C56.4129 254.624 58.1395 253.029 59.43 251.805C60.0761 251.192 60.6146 250.67 60.992 250.301C61.1807 250.117 61.3292 249.97 61.4307 249.87C61.4815 249.82 61.5206 249.781 61.5471 249.754C61.5603 249.741 61.5705 249.731 61.5773 249.724C61.5808 249.721 61.5834 249.718 61.5852 249.717C61.5861 249.716 61.5868 249.715 61.5873 249.714C61.5875 249.714 61.5877 249.714 61.5878 249.714C61.588 249.714 61.5881 249.714 60.8814 249.006ZM48.1875 258.569C48.1875 258.618 48.1828 258.605 48.208 258.467C48.2284 258.355 48.2609 258.2 48.3066 258.005C48.3977 257.615 48.5353 257.088 48.7175 256.46C49.0818 255.205 49.6179 253.57 50.3015 251.859C50.9863 250.145 51.8112 248.374 52.7489 246.837C53.695 245.285 54.7132 244.043 55.7581 243.311L54.6105 241.673C53.2381 242.635 52.0479 244.145 51.0414 245.795C50.0265 247.459 49.1543 249.34 48.4443 251.117C47.7331 252.897 47.1765 254.594 46.7968 255.902C46.6069 256.556 46.4598 257.119 46.359 257.55C46.3088 257.765 46.2687 257.954 46.2404 258.108C46.2169 258.238 46.1875 258.415 46.1875 258.569H48.1875ZM55.756 243.313C57.4676 242.12 59.8452 240.802 62.2063 239.597L61.2974 237.815C58.9155 239.031 56.4393 240.399 54.6126 241.672L55.756 243.313ZM62.7359 234.971C62.0479 236.183 61.4261 237.277 60.8874 238.204L62.6163 239.209C63.1612 238.272 63.7884 237.168 64.4749 235.959L62.7359 234.971ZM73.817 217.354C70.0008 222.177 65.7373 229.687 62.7359 234.971L64.4749 235.959C67.5025 230.629 71.685 223.271 75.3855 218.595L73.817 217.354ZM92.8913 198.39C85.3119 205.349 78.0108 212.049 73.8168 217.354L75.3857 218.594C79.4567 213.446 86.6114 206.872 94.244 199.863L92.8913 198.39ZM101.25 190.644C98.5046 193.235 95.6756 195.833 92.8913 198.39L94.244 199.863C97.0266 197.308 99.8657 194.701 102.623 192.099L101.25 190.644ZM112.458 173.599C109.944 177.799 107.706 181.537 105.799 184.505C103.872 187.504 102.345 189.616 101.252 190.642L102.621 192.1C103.922 190.879 105.572 188.558 107.481 185.586C109.41 182.585 111.665 178.817 114.174 174.626L112.458 173.599Z" fill="#333333" mask="url(#path-7-inside-2)"/>
<mask id="path-9-inside-3" fill="white">
<path fill-rule="evenodd" clip-rule="evenodd" d="M119.603 226.39C141.555 201.611 178.586 172.194 195.573 170.97L217.917 202.731C217.917 202.731 217.054 208.776 207.803 217.427C198.552 226.077 136.381 263.258 105.726 265.577C91.2221 266.672 75.1763 272.665 60.2019 280.09C56.3993 281.974 52.5083 283.862 48.644 285.737C37.6583 291.067 26.8882 296.292 18.976 301.023C19.4493 301.593 20.0744 302.443 20.8067 303.439C22.883 306.263 25.8215 310.259 28.6066 312.373C35.8456 317.845 29.2077 319.2 19.9304 316.985C12.7176 315.266 3.46637 310.94 0.565566 307.188C-1.34369 304.705 1.92575 302.99 5.23456 301.254C7.02107 300.317 8.81906 299.374 9.81959 298.3C12.032 294.777 15.1663 290.366 19.0158 285.301C19.649 284.465 20.2964 283.599 20.9611 282.711C25.8653 276.153 31.7139 268.334 39.7918 261.565C56.4587 247.57 71.0601 245.079 84.2653 242.825C97.1695 240.624 108.741 238.649 119.603 226.39Z"/>
</mask>
<path fill-rule="evenodd" clip-rule="evenodd" d="M119.603 226.39C141.555 201.611 178.586 172.194 195.573 170.97L217.917 202.731C217.917 202.731 217.054 208.776 207.803 217.427C198.552 226.077 136.381 263.258 105.726 265.577C91.2221 266.672 75.1763 272.665 60.2019 280.09C56.3993 281.974 52.5083 283.862 48.644 285.737C37.6583 291.067 26.8882 296.292 18.976 301.023C19.4493 301.593 20.0744 302.443 20.8067 303.439C22.883 306.263 25.8215 310.259 28.6066 312.373C35.8456 317.845 29.2077 319.2 19.9304 316.985C12.7176 315.266 3.46637 310.94 0.565566 307.188C-1.34369 304.705 1.92575 302.99 5.23456 301.254C7.02107 300.317 8.81906 299.374 9.81959 298.3C12.032 294.777 15.1663 290.366 19.0158 285.301C19.649 284.465 20.2964 283.599 20.9611 282.711C25.8653 276.153 31.7139 268.334 39.7918 261.565C56.4587 247.57 71.0601 245.079 84.2653 242.825C97.1695 240.624 108.741 238.649 119.603 226.39Z" fill="white"/>
<path d="M195.573 170.97L196.39 170.394L196.065 169.932L195.501 169.972L195.573 170.97ZM119.603 226.39L120.351 227.053L120.351 227.053L119.603 226.39ZM217.917 202.731L218.907 202.873L218.963 202.48L218.734 202.156L217.917 202.731ZM207.803 217.427L208.486 218.157L208.486 218.157L207.803 217.427ZM105.726 265.577L105.801 266.575L105.802 266.575L105.726 265.577ZM60.2019 280.09L60.6458 280.986L60.6462 280.986L60.2019 280.09ZM48.644 285.737L49.0805 286.637L49.0805 286.637L48.644 285.737ZM18.976 301.023L18.4629 300.164L17.4612 300.763L18.2066 301.661L18.976 301.023ZM20.8067 303.439L21.6123 302.847L21.6123 302.847L20.8067 303.439ZM28.6066 312.373L28.002 313.17L28.0036 313.171L28.6066 312.373ZM19.9304 316.985L20.1626 316.013L20.1623 316.012L19.9304 316.985ZM0.565566 307.188L-0.227166 307.798L-0.225564 307.8L0.565566 307.188ZM5.23456 301.254L4.76998 300.369L4.76997 300.369L5.23456 301.254ZM9.81959 298.3L10.5511 298.982L10.6159 298.913L10.6664 298.832L9.81959 298.3ZM19.0158 285.301L19.8119 285.907L19.8131 285.905L19.0158 285.301ZM20.9611 282.711L20.1603 282.112L20.1603 282.112L20.9611 282.711ZM39.7918 261.565L40.434 262.331L40.4348 262.331L39.7918 261.565ZM84.2653 242.825L84.4334 243.811L84.4334 243.811L84.2653 242.825ZM195.501 169.972C191.039 170.294 185.388 172.445 179.152 175.779C172.889 179.128 165.938 183.725 158.849 189.047C144.673 199.69 129.877 213.284 118.854 225.727L120.351 227.053C131.281 214.716 145.976 201.213 160.05 190.647C167.087 185.364 173.95 180.829 180.095 177.543C186.265 174.243 191.613 172.258 195.644 171.967L195.501 169.972ZM218.734 202.156L196.39 170.394L194.755 171.545L217.099 203.307L218.734 202.156ZM208.486 218.157C213.186 213.762 215.785 210.001 217.213 207.303C217.926 205.955 218.346 204.874 218.589 204.117C218.711 203.738 218.788 203.441 218.836 203.231C218.86 203.126 218.877 203.043 218.888 202.983C218.893 202.953 218.898 202.929 218.901 202.91C218.902 202.901 218.903 202.893 218.904 202.887C218.905 202.884 218.905 202.881 218.906 202.879C218.906 202.878 218.906 202.876 218.906 202.875C218.906 202.875 218.906 202.874 218.906 202.874C218.906 202.873 218.907 202.873 217.917 202.731C216.927 202.59 216.927 202.59 216.927 202.589C216.927 202.589 216.927 202.588 216.927 202.588C216.927 202.587 216.927 202.587 216.927 202.586C216.927 202.585 216.927 202.585 216.927 202.585C216.927 202.584 216.927 202.585 216.927 202.588C216.926 202.593 216.924 202.603 216.921 202.62C216.915 202.652 216.904 202.708 216.887 202.785C216.851 202.94 216.789 203.182 216.685 203.505C216.478 204.152 216.103 205.123 215.445 206.367C214.129 208.854 211.671 212.441 207.12 216.696L208.486 218.157ZM105.802 266.575C113.611 265.984 123.352 263.184 133.665 259.226C143.995 255.261 154.965 250.108 165.252 244.764C175.54 239.419 185.16 233.875 192.79 229.122C200.392 224.388 206.092 220.396 208.486 218.157L207.12 216.696C204.888 218.783 199.348 222.682 191.733 227.425C184.146 232.15 174.572 237.668 164.33 242.989C154.086 248.311 143.187 253.429 132.949 257.358C122.694 261.294 113.168 264.012 105.651 264.58L105.802 266.575ZM60.6462 280.986C75.5795 273.581 91.4884 267.655 105.801 266.575L105.651 264.58C90.9559 265.689 74.7731 271.748 59.7576 279.194L60.6462 280.986ZM49.0805 286.637C52.9442 284.762 56.8389 282.872 60.6458 280.986L59.758 279.194C55.9597 281.076 52.0725 282.962 48.2075 284.837L49.0805 286.637ZM19.4892 301.881C27.3555 297.178 38.0807 291.973 49.0805 286.637L48.2075 284.837C37.236 290.16 26.4208 295.407 18.4629 300.164L19.4892 301.881ZM21.6123 302.847C20.8879 301.861 20.2422 300.983 19.7455 300.384L18.2066 301.661C18.6565 302.204 19.2608 303.025 20.001 304.031L21.6123 302.847ZM29.2113 311.577C26.5668 309.569 23.7191 305.712 21.6123 302.847L20.001 304.031C22.0469 306.814 25.0762 310.949 28.002 313.17L29.2113 311.577ZM19.6982 317.958C22.0621 318.522 24.2771 318.864 26.1634 318.967C28.0188 319.068 29.6655 318.945 30.8251 318.493C31.4105 318.265 31.9735 317.914 32.3289 317.363C32.7088 316.775 32.7627 316.098 32.5697 315.434C32.3867 314.805 31.9845 314.183 31.441 313.57C30.8902 312.949 30.1475 312.285 29.2096 311.576L28.0036 313.171C28.8754 313.83 29.5089 314.405 29.9444 314.897C30.3872 315.396 30.5816 315.76 30.6493 315.993C30.707 316.192 30.6658 316.252 30.6486 316.279C30.6069 316.343 30.4708 316.485 30.0991 316.63C29.3444 316.924 28.0446 317.067 26.2723 316.97C24.531 316.875 22.4372 316.556 20.1626 316.013L19.6982 317.958ZM-0.225564 307.8C1.37339 309.868 4.59083 311.97 8.18842 313.746C11.8265 315.541 16.0129 317.079 19.6984 317.958L20.1623 316.012C16.635 315.171 12.5894 313.687 9.07351 311.952C5.5171 310.197 2.65855 308.261 1.3567 306.577L-0.225564 307.8ZM4.76997 300.369C3.16509 301.211 1.36815 302.143 0.249409 303.221C-0.322375 303.772 -0.822349 304.457 -0.962006 305.293C-1.10833 306.169 -0.82881 307.015 -0.227163 307.798L1.3583 306.579C1.00531 306.12 0.977538 305.821 1.01066 305.623C1.05044 305.384 1.21664 305.066 1.63717 304.661C2.50304 303.827 3.99522 303.034 5.69915 302.14L4.76997 300.369ZM9.0881 297.618C8.68029 298.056 8.07164 298.504 7.3007 298.975C6.53571 299.442 5.66971 299.897 4.76998 300.369L5.69914 302.14C6.58592 301.674 7.51217 301.189 8.34293 300.682C9.16774 300.178 9.95835 299.618 10.5511 298.982L9.0881 297.618ZM18.2197 284.696C14.362 289.771 11.2078 294.21 8.97275 297.768L10.6664 298.832C12.8563 295.345 15.9705 290.96 19.8119 285.907L18.2197 284.696ZM20.1603 282.112C19.4952 283.001 18.8496 283.864 18.2184 284.698L19.8131 285.905C20.4484 285.066 21.0975 284.198 21.7619 283.31L20.1603 282.112ZM39.1495 260.798C30.9709 267.652 25.0595 275.561 20.1603 282.112L21.7619 283.31C26.6712 276.746 32.4568 269.016 40.434 262.331L39.1495 260.798ZM84.0971 241.84C70.8573 244.099 56.03 246.624 39.1487 260.799L40.4348 262.331C56.8874 248.516 71.2628 246.058 84.4334 243.811L84.0971 241.84ZM118.854 225.727C108.244 237.702 96.9973 239.639 84.0971 241.84L84.4334 243.811C97.3418 241.609 109.237 239.597 120.351 227.053L118.854 225.727Z" fill="#333333" mask="url(#path-9-inside-3)"/>
<path d="M226.52 158.144C227.683 162.173 228.673 166.023 229.423 169.486L229.521 169.938L229.979 169.876C244.5 167.907 265.867 170.446 284.143 174.153C293.273 176.005 301.611 178.145 307.913 180.149C311.064 181.152 313.697 182.117 315.662 182.993C316.644 183.431 317.451 183.842 318.068 184.221C318.696 184.605 319.088 184.931 319.282 185.186L319.68 184.883L319.282 185.186C319.931 186.04 320.532 187.323 321.073 188.993C321.613 190.656 322.086 192.672 322.495 194.969C323.314 199.562 323.874 205.242 324.221 211.391C324.909 223.576 324.762 237.562 324.162 248.5C322.526 249.24 319.921 249.781 316.609 250.147C313.134 250.532 308.938 250.721 304.386 250.773C299.905 250.823 296.272 249.876 293.501 248.492C292.636 243.217 292.913 236.426 293.635 229.795C294.368 223.071 295.554 216.554 296.441 212.025L296.546 211.492L296.005 211.432C293.344 211.139 288.591 211.454 282.608 212.003C280.099 212.234 277.373 212.505 274.481 212.794C270.433 213.197 266.061 213.633 261.502 214.033C245.885 215.405 228.305 216.335 215.075 214.042L215.071 214.041C215.026 214.034 214.972 214.032 214.95 214.031C214.93 214.03 214.906 214.029 214.881 214.028C214.862 214.028 214.842 214.027 214.821 214.027C214.721 214.024 214.586 214.021 214.43 214.018C214.117 214.011 213.707 214.001 213.276 213.98C212.844 213.959 212.396 213.928 212.007 213.881C211.603 213.832 211.309 213.771 211.155 213.707L210.829 213.574L210.594 213.835C209.663 214.866 208.601 215.95 207.41 217.061L207.409 217.062C205.137 219.186 199.557 223.109 191.945 227.849C184.347 232.581 174.762 238.105 164.508 243.433C154.253 248.76 143.337 253.887 133.076 257.825C122.806 261.767 113.227 264.505 105.636 265.079C93.5297 265.991 80.3613 270.319 67.6843 275.984C67.5736 275.917 67.4627 275.85 67.3514 275.784C66.9226 275.527 66.4881 275.267 66.0372 274.979L66.0327 274.976C56.1176 268.794 53.4096 258.412 52.668 253.183C64.1213 246.774 74.5427 244.993 84.2901 243.327C85.8293 243.063 87.3516 242.803 88.8586 242.528C99.9956 240.495 110.249 237.646 119.925 226.722C129.951 215.425 143.106 203.161 156.056 193.055C169.022 182.938 181.724 175.03 190.851 172.388L190.894 172.375L190.935 172.355C191.799 171.924 192.74 171.544 193.733 171.239L193.738 171.238C194.698 170.932 195.45 170.489 195.976 169.908C196.427 169.409 196.695 168.827 196.793 168.191C198.321 167.69 199.799 167.261 201.228 166.923L201.253 166.917L201.277 166.908L226.52 158.144Z" fill="white" stroke="#333333"/>
<path d="M218.042 206.529L218.043 206.529C220.243 203.05 223.89 196.852 226.638 189.968C229.326 183.232 231.117 175.927 229.935 169.885L229.528 169.967L229.423 169.487C229.204 168.484 228.949 167.427 228.686 166.338C228.641 166.152 228.596 165.964 228.55 165.775M218.042 206.529L228.553 165.781C228.552 165.779 228.551 165.777 228.55 165.775M218.042 206.529C215.605 210.395 213.779 212.19 212.597 213.014C212.008 213.424 211.587 213.587 211.336 213.65C211.313 213.656 211.291 213.661 211.271 213.665M218.042 206.529L52.668 253.184C53.4096 258.412 56.1176 268.794 66.0327 274.976L66.0372 274.979C66.4881 275.267 66.9226 275.527 67.3515 275.784C67.4627 275.851 67.5736 275.917 67.6844 275.984C80.3614 270.319 93.5298 265.991 105.636 265.079M228.55 165.775C228.547 165.759 228.543 165.743 228.539 165.727L228.57 165.814C228.57 165.813 228.569 165.812 228.566 165.807L228.561 165.797L228.557 165.787L228.556 165.786M228.55 165.775L228.552 165.778L228.553 165.78C228.554 165.782 228.555 165.784 228.556 165.786M228.556 165.786L228.555 165.785M228.556 165.786L228.555 165.785M228.525 165.724L214.207 162.422L201.277 166.908L201.253 166.917L201.228 166.923C199.799 167.261 198.321 167.69 196.793 168.191C196.695 168.828 196.427 169.409 195.976 169.908C195.45 170.489 194.698 170.933 193.738 171.238L193.733 171.239C192.74 171.544 191.799 171.924 190.935 172.355L190.894 172.375L190.851 172.388C181.724 175.03 169.022 182.938 156.056 193.055C143.106 203.161 129.951 215.425 119.925 226.722C119.925 226.722 119.925 226.722 119.925 226.722L119.551 226.39C108.693 238.65 97.1193 240.627 84.2137 242.832L228.525 165.724ZM228.525 165.724L228.527 165.729L228.537 165.748L228.539 165.753L228.525 165.724ZM105.636 265.079L105.674 265.578L105.636 265.079C105.636 265.079 105.636 265.079 105.636 265.079ZM105.636 265.079C113.227 264.505 122.806 261.767 133.076 257.825C143.337 253.887 154.253 248.76 164.508 243.433C174.762 238.106 184.347 232.581 191.945 227.849C199.557 223.109 205.137 219.186 207.409 217.062L207.41 217.061C208.601 215.95 209.663 214.866 210.594 213.835L211.084 213.292L211.271 213.665M211.271 213.665C211.182 213.684 211.122 213.687 211.092 213.688C211.08 213.688 211.075 213.687 211.075 213.687C211.075 213.687 211.078 213.687 211.083 213.688C211.088 213.689 211.109 213.693 211.137 213.703C211.151 213.707 211.18 213.718 211.215 213.738C211.228 213.745 211.342 213.806 211.412 213.946L211.271 213.665ZM228.549 165.772L228.547 165.768L228.544 165.763L228.549 165.772ZM228.549 165.772C228.548 165.771 228.549 165.773 228.554 165.783M228.549 165.772L228.554 165.783M228.554 165.783L228.555 165.785M228.554 165.783L228.555 165.785M210.628 214.539C210.742 214.416 210.854 214.292 210.965 214.17L210.518 214.394C210.55 214.458 210.591 214.505 210.628 214.539ZM228.542 165.758C228.551 165.776 228.545 165.764 228.541 165.757L228.542 165.758Z" fill="white" stroke="#333333"/>
<path d="M230.042 169.954C226.802 154.894 219.066 131.913 212.533 120.891C210.364 117.243 207.907 114.325 205.268 111.928C204.484 110.86 203.648 109.791 202.811 108.723C199.074 103.955 193.43 100.985 187.367 100.698C183.865 100.542 180.677 100.724 178.272 101.297C169.596 103.304 167.688 105.284 167.688 105.284C175.607 105.935 178.115 102.756 182.741 104.763C187.367 106.769 183.76 112.553 176.234 115.706C169.335 118.624 161.233 119.093 156.373 120.709C156.373 120.761 156.373 120.787 156.373 120.839L156.137 120.865C142.94 127.561 129.534 147.442 119.08 164.508C121.615 166.723 124.777 169.016 128.541 171.022C132.8 173.289 137.922 174.826 142.783 175.842C151.381 166.983 158.777 159.427 161.808 157.603C165.781 155.232 171.007 154.477 174.509 154.242C192.149 156.822 200.747 168.443 193.038 170.814C192.018 171.126 195.573 170.944 195.573 170.944C195.573 170.944 203.726 173.341 215.303 173.914C221.497 174.253 225.783 173.575 230.042 169.954Z" fill="#333333"/>
<path d="M132.304 75.0593C151.956 71.3073 143.881 92.3602 141.842 96.3988C139.83 100.437 146.755 105.336 145.318 112.84C143.881 120.344 109.463 122.923 106.562 109.088C103.661 95.2524 96.7362 94.1059 101.074 87.7483C105.412 81.3908 132.304 75.0593 132.304 75.0593Z" fill="#333333"/>
<path d="M114.507 80.6873C65.5068 93.22 49.0167 125.659 63.7559 139.078C78.4951 152.496 32.9708 157.681 18.2055 153.356C3.46628 149.031 7.36015 164.612 27.326 173.237C47.2658 181.887 92.398 179.724 101.074 165.446C109.751 151.168 91.0914 138.635 109.306 139.938C127.521 141.24 144.43 125.242 144.43 125.242L114.507 80.6873Z" fill="#333333"/>
<path d="M26.2025 146.321C11.1497 140.693 6.62865 130.557 4.74705 135.821C2.86545 141.084 11.1497 145.201 19.434 147.832C27.6921 150.438 27.6137 146.842 26.2025 146.321Z" fill="#333333"/>
<path d="M93.365 176.78C84.4535 187.15 70.0279 188.036 72.2754 183.164C74.5229 178.292 79.4359 181.288 85.0807 177.901C90.7255 174.54 95.6125 174.149 93.365 176.78Z" fill="#333333"/>
<path d="M32.7358 179.334C24.2163 172.038 15.0435 175.582 23.3278 180.089C31.612 184.571 38.0147 183.841 32.7358 179.334Z" fill="#333333"/>
</svg>
