<svg width="50" height="50" viewBox="0 0 50 50" fill="none" xmlns="http://www.w3.org/2000/svg">
<rect width="50" height="50" rx="10" fill="url(#paint0_linear_438_10081)"/>
<g clip-path="url(#clip0_438_10081)">
<path fill-rule="evenodd" clip-rule="evenodd" d="M29.5827 20.5C29.0304 20.5 28.5827 20.0523 28.5827 19.5C28.5827 18.9477 29.0304 18.5 29.5827 18.5H35.0827C35.635 18.5 36.0827 18.9477 36.0827 19.5V25C36.0827 25.5523 35.635 26 35.0827 26C34.5304 26 34.0827 25.5523 34.0827 25V21.9142L27.0815 28.9154C26.8939 29.103 26.6396 29.2083 26.3743 29.2083C26.1091 29.2083 25.8548 29.103 25.6672 28.9154L21.791 25.0392L15.6231 31.2071C15.2326 31.5976 14.5994 31.5976 14.2089 31.2071C13.8184 30.8166 13.8184 30.1834 14.2089 29.7929L21.0839 22.9179C21.2714 22.7304 21.5258 22.625 21.791 22.625C22.0562 22.625 22.3106 22.7304 22.4981 22.9179L26.3743 26.7941L32.6685 20.5H29.5827Z" fill="white"/>
</g>
<defs>
<linearGradient id="paint0_linear_438_10081" x1="0" y1="50" x2="50" y2="0" gradientUnits="userSpaceOnUse">
<stop stop-color="#FFB199"/>
<stop offset="1" stop-color="#FF0844"/>
</linearGradient>
<clipPath id="clip0_438_10081">
<rect width="22" height="22" fill="white" transform="translate(14 14)"/>
</clipPath>
</defs>
</svg>
