<svg width="50" height="50" viewBox="0 0 50 50" fill="none" xmlns="http://www.w3.org/2000/svg">
<rect width="50" height="50" rx="10" fill="url(#paint0_linear_438_10080)"/>
<g clip-path="url(#clip0_438_10080)">
<path d="M24.0728 15.7667C28.0212 15.1241 32.0508 14.5623 35.9992 14V14.1607V24.438C32.0502 24.438 28.0212 24.5183 24.0723 24.5183C24.0728 21.628 24.0728 18.6569 24.0728 15.7667Z" fill="white"/>
<path d="M14 17.1312C16.9815 16.6498 19.9634 16.2481 23.0255 15.9268C23.0255 18.8176 23.0255 21.6275 23.0255 24.5183C19.9634 24.5183 16.9815 24.5986 14 24.5986V17.1312Z" fill="white"/>
<path d="M14 25.4817C16.9815 25.4817 19.9634 25.562 23.0255 25.4817C23.0255 28.3724 23.0255 31.2627 23.0255 34.1534C19.9634 33.7518 16.9815 33.3507 14 32.949V25.4817Z" fill="white"/>
<path d="M24.0742 25.5621C28.0231 25.5621 32.0522 25.5621 36.0011 25.5621V35.5186V36.0006C32.0522 35.3585 28.0231 34.8765 24.0742 34.3142C24.0742 31.4234 24.0742 28.5332 24.0742 25.5621Z" fill="white"/>
</g>
<defs>
<linearGradient id="paint0_linear_438_10080" x1="25" y1="1.31481e-06" x2="47.0588" y2="28.5294" gradientUnits="userSpaceOnUse">
<stop stop-color="#2F87F7"/>
<stop offset="1" stop-color="#00BBF9"/>
</linearGradient>
<clipPath id="clip0_438_10080">
<rect width="22" height="22" fill="white" transform="translate(14 14)"/>
</clipPath>
</defs>
</svg>
