<svg width="50" height="50" viewBox="0 0 50 50" fill="none" xmlns="http://www.w3.org/2000/svg">
<rect width="50" height="50" rx="10" fill="url(#paint0_linear_438_10082)"/>
<path d="M24.3658 34.2875C23.8623 33.8847 23.4161 33.4151 23.0397 32.8915C22.8923 32.6866 22.6071 32.6401 22.4025 32.7878C22.198 32.9355 22.1516 33.2213 22.2989 33.4263C22.7239 34.0174 23.2277 34.5477 23.7962 35.0024C23.8803 35.0697 23.9808 35.1023 24.0806 35.1023C24.2148 35.1023 24.3476 35.0435 24.4377 34.9303C24.595 34.7329 24.5628 34.4451 24.3658 34.2875Z" fill="white"/>
<path fill-rule="evenodd" clip-rule="evenodd" d="M24.6867 35.1294C24.9538 34.7942 24.899 34.3056 24.5646 34.0381L24.6867 35.1294ZM23.7962 35.0024C23.2277 34.5477 22.7239 34.0174 22.2989 33.4263C22.1516 33.2213 22.198 32.9355 22.4025 32.7878C22.6071 32.6401 22.8923 32.6866 23.0397 32.8915C23.4161 33.4151 23.8623 33.8847 24.3658 34.2875C24.5628 34.4451 24.595 34.7329 24.4377 34.9303C24.3476 35.0435 24.2148 35.1023 24.0806 35.1023C23.9808 35.1023 23.8803 35.0697 23.7962 35.0024ZM23.2982 32.705C23.048 32.357 22.5637 32.278 22.2162 32.5288L23.2982 32.705ZM24.5646 34.0381C24.0838 33.6534 23.6576 33.2049 23.2982 32.705L24.5646 34.0381ZM22.2162 32.5288C21.869 32.7795 21.7903 33.2649 22.0404 33.6129L22.2162 32.5288ZM22.0404 33.6129C22.4824 34.2276 23.0063 34.779 23.5974 35.2519L22.0404 33.6129ZM23.5974 35.2519C23.74 35.3659 23.9112 35.4216 24.0806 35.4216L23.5974 35.2519ZM24.0806 35.4216C24.3074 35.4216 24.5336 35.3217 24.6867 35.1294L24.0806 35.4216Z" fill="white"/>
<path fill-rule="evenodd" clip-rule="evenodd" d="M24.6867 35.1294L24.5646 34.0381C24.0838 33.6534 23.6576 33.2049 23.2982 32.705L22.2162 32.5288L22.0404 33.6129L23.5974 35.2519L24.0806 35.4216L24.6867 35.1294ZM23.0397 32.8915C23.4161 33.4151 23.8623 33.8847 24.3658 34.2875C24.5628 34.4451 24.595 34.7329 24.4377 34.9303C24.3476 35.0435 24.2148 35.1023 24.0806 35.1023C23.9808 35.1023 23.8803 35.0697 23.7962 35.0024C23.2277 34.5477 22.7239 34.0174 22.2989 33.4263C22.1516 33.2213 22.198 32.9355 22.4025 32.7878C22.6071 32.6401 22.8923 32.6866 23.0397 32.8915Z" fill="white"/>
<path d="M32.1576 22.972C32.7153 23.2951 33.2263 23.693 33.6763 24.1546C33.8524 24.3353 34.1414 24.3388 34.3218 24.1622C34.5021 23.9857 34.5055 23.6961 34.3293 23.5154C33.8213 22.9942 33.2444 22.545 32.6147 22.1801C32.5215 22.1261 32.4172 22.1088 32.3185 22.1237C32.1859 22.1437 32.0633 22.2217 31.991 22.347C31.8647 22.5657 31.9394 22.8455 32.1576 22.972Z" fill="white"/>
<path fill-rule="evenodd" clip-rule="evenodd" d="M31.7152 22.1873C31.5009 22.5586 31.6276 23.0335 31.998 23.2483L31.7152 22.1873ZM32.6147 22.1801C33.2444 22.545 33.8213 22.9942 34.3293 23.5154C34.5055 23.6961 34.5021 23.9857 34.3218 24.1622C34.1414 24.3388 33.8524 24.3353 33.6763 24.1546C33.2263 23.693 32.7153 23.2951 32.1576 22.972C31.9394 22.8455 31.8647 22.5657 31.991 22.347C32.0633 22.2217 32.1859 22.1437 32.3185 22.1237C32.4172 22.1088 32.5215 22.1261 32.6147 22.1801ZM33.4484 24.3777C33.7474 24.6844 34.2381 24.6904 34.5444 24.3905L33.4484 24.3777ZM31.998 23.2483C32.5306 23.5569 33.0187 23.9369 33.4484 24.3777L31.998 23.2483ZM34.5444 24.3905C34.8505 24.0908 34.8563 23.5991 34.5572 23.2923L34.5444 24.3905ZM34.5572 23.2923C34.0289 22.7504 33.429 22.2832 32.7742 21.9037L34.5572 23.2923ZM32.7742 21.9037C32.6163 21.8123 32.4387 21.7827 32.2711 21.808L32.7742 21.9037ZM32.2711 21.808C32.0469 21.8418 31.8381 21.9743 31.7152 22.1873L32.2711 21.808Z" fill="white"/>
<path fill-rule="evenodd" clip-rule="evenodd" d="M31.7152 22.1873L31.998 23.2483C32.5306 23.5569 33.0187 23.9369 33.4484 24.3777L34.5444 24.3905L34.5572 23.2923L32.7742 21.9037L32.2711 21.808L31.7152 22.1873ZM33.6763 24.1546C33.2263 23.693 32.7153 23.2951 32.1576 22.972C31.9394 22.8455 31.8647 22.5657 31.991 22.347C32.0633 22.2217 32.1859 22.1437 32.3185 22.1237C32.4172 22.1088 32.5215 22.1261 32.6147 22.1801C33.2444 22.545 33.8213 22.9942 34.3293 23.5154C34.5055 23.6961 34.5021 23.9857 34.3218 24.1622C34.1414 24.3388 33.8524 24.3353 33.6763 24.1546Z" fill="white"/>
<path d="M34.9206 25.4088C35.2294 25.9754 35.4583 26.5814 35.601 27.2099C35.6492 27.4221 35.8374 27.5659 36.0457 27.5659C36.0792 27.5659 36.1133 27.5622 36.1474 27.5544C36.3932 27.4983 36.5472 27.2533 36.4913 27.0069C36.3299 26.2962 36.071 25.611 35.7219 24.9705C35.6011 24.7487 35.3236 24.667 35.1025 24.7882L34.8647 25.187C34.8642 25.2621 34.8822 25.3383 34.9206 25.4088Z" fill="white"/>
<path d="M34.6411 25.5619C34.9357 26.1027 35.1542 26.681 35.2903 27.2807L36.218 27.8657L36.8019 26.9361L36.0015 24.8176L34.9496 24.5082L35.1025 24.7882C35.3236 24.667 35.6011 24.7487 35.7219 24.9705C36.071 25.611 36.3299 26.2962 36.4913 27.0069C36.5472 27.2533 36.3932 27.4983 36.1474 27.5544C36.1133 27.5622 36.0792 27.5659 36.0457 27.5659C35.8374 27.5659 35.6492 27.4221 35.601 27.2099C35.4583 26.5814 35.2294 25.9754 34.9206 25.4088C34.8822 25.3383 34.8642 25.2621 34.8647 25.187L34.6411 25.5619Z" fill="white"/>
<path d="M36.0015 24.8176C35.7965 24.4412 35.3253 24.3022 34.9496 24.5082L36.0015 24.8176Z" fill="white"/>
<path d="M35.1025 24.7882L34.9496 24.5082C34.5738 24.7137 34.4358 25.1855 34.6411 25.5619L34.8647 25.187C34.8658 25.0262 34.9516 24.8708 35.1025 24.7882Z" fill="white"/>
<path d="M35.1025 24.7882L34.8647 25.187C34.8658 25.0262 34.9516 24.8708 35.1025 24.7882Z" fill="white"/>
<path d="M36.0457 27.8851C36.1027 27.8851 36.1605 27.8788 36.218 27.8657L35.2903 27.2807C35.3723 27.6414 35.6919 27.8851 36.0457 27.8851Z" fill="white"/>
<path d="M36.218 27.8657C36.6354 27.7705 36.8968 27.3544 36.8019 26.9361L36.218 27.8657Z" fill="white"/>
<path d="M27.873 35.7694C27.2335 35.69 26.609 35.5228 26.0166 35.2724C25.7842 35.1743 25.5166 35.2833 25.4186 35.5161C25.3206 35.7489 25.4294 36.0171 25.6618 36.1153C26.3316 36.3984 27.0377 36.5875 27.7607 36.6773C27.7797 36.6796 27.7987 36.6808 27.8174 36.6808C28.0445 36.6808 28.2412 36.5112 28.2698 36.2796C28.3009 36.0289 28.1232 35.8005 27.873 35.7694Z" fill="white"/>
<path fill-rule="evenodd" clip-rule="evenodd" d="M26.0166 35.2724C26.609 35.5228 27.2335 35.69 27.873 35.7694C28.1232 35.8005 28.3009 36.0289 28.2698 36.2796C28.2412 36.5112 28.0445 36.6808 27.8174 36.6808C27.7987 36.6808 27.7797 36.6796 27.7607 36.6773C27.0377 36.5875 26.3316 36.3984 25.6618 36.1153C25.4294 36.0171 25.3206 35.7489 25.4186 35.5161C25.5166 35.2833 25.7842 35.1743 26.0166 35.2724ZM27.7215 36.9941C27.7537 36.9981 27.7858 37 27.8174 37C28.2032 37 28.5373 36.7124 28.586 36.319M27.7215 36.9941C26.9695 36.9007 26.2348 36.7039 25.5379 36.4094C25.1435 36.2427 24.9586 35.7872 25.1251 35.392C25.2915 34.9968 25.7459 34.8117 26.1404 34.9783C26.7056 35.2172 27.3018 35.3769 27.9122 35.4526C28.3369 35.5054 28.6387 35.8933 28.586 36.319" fill="white"/>
<path d="M31.036 21.62C31.0979 21.3751 30.95 21.1263 30.7057 21.0642C30.2116 20.9387 29.7041 20.8619 29.192 20.8335C28.9611 16.6509 25.4925 13.3192 21.2616 13.3192C16.8818 13.3192 13.3186 16.8895 13.3186 21.278C13.3186 25.525 16.6558 29.0055 20.8408 29.2255C20.8285 29.2728 20.8232 29.3227 20.827 29.3742C20.8808 30.103 21.034 30.8191 21.2825 31.5025C21.35 31.6882 21.525 31.8035 21.7114 31.8035C21.7633 31.8035 21.8161 31.7946 21.8676 31.7758C22.1045 31.6893 22.2266 31.4268 22.1403 31.1895C21.9206 30.5851 21.7851 29.9516 21.7375 29.3068C21.7354 29.2779 21.7303 29.2499 21.7232 29.2229C25.7278 28.9918 28.9462 25.7749 29.1893 21.7657C29.1897 21.7601 29.1906 21.7548 29.191 21.7491C29.6276 21.7764 30.0601 21.8439 30.4814 21.9509C30.7259 22.0131 30.974 21.8648 31.036 21.62ZM21.7338 28.3062C21.9672 24.7985 24.7752 21.985 28.276 21.751C28.0425 25.2587 25.2345 28.0723 21.7338 28.3062ZM20.8194 28.3084C17.1483 28.0789 14.2316 25.0131 14.2316 21.278C14.2316 17.3939 17.3852 14.234 21.2616 14.234C24.9894 14.234 28.0488 17.156 28.2778 20.8344C24.2716 21.0698 21.0543 24.2942 20.8194 28.3084Z" fill="white"/>
<path fill-rule="evenodd" clip-rule="evenodd" d="M31.3448 21.6984C31.2396 22.114 30.8183 22.3659 30.403 22.2603C30.1032 22.1841 29.7971 22.1289 29.4878 22.0949L29.4623 22.4907L29.4378 22.4661C28.8991 26.2049 25.8586 29.1427 22.0764 29.5155C22.1346 30.0509 22.2565 30.5762 22.4397 31.0802C22.5861 31.4832 22.3788 31.9289 21.9767 32.0757C21.8897 32.1074 21.7999 32.1227 21.7114 32.1227C21.3954 32.1227 21.0979 31.9275 20.9831 31.6117C20.7388 30.9397 20.583 30.2375 20.5195 29.5226C16.3101 29.1453 13 25.5922 13 21.278C13 16.7132 16.7059 13 21.2616 13C25.5675 13 29.1136 16.317 29.4898 20.535C29.9269 20.5739 30.36 20.6471 30.784 20.7548L30.7057 21.0642C30.2116 20.9387 29.7041 20.8619 29.192 20.8335C28.9611 16.6509 25.4925 13.3192 21.2616 13.3192C16.8818 13.3192 13.3186 16.8895 13.3186 21.278C13.3186 25.4159 16.4865 28.8261 20.5199 29.2021C20.6262 29.212 20.7332 29.2198 20.8408 29.2255C20.8285 29.2728 20.8232 29.3227 20.827 29.3742C20.8281 29.3896 20.8293 29.405 20.8305 29.4203C20.8873 30.1332 21.0393 30.8335 21.2825 31.5025C21.35 31.6882 21.525 31.8035 21.7114 31.8035C21.7633 31.8035 21.8161 31.7946 21.8676 31.7758C22.1045 31.6893 22.2266 31.4268 22.1403 31.1895C21.9473 30.6583 21.8192 30.1047 21.7587 29.5406C21.7504 29.4628 21.7433 29.3849 21.7375 29.3068C21.7354 29.2779 21.7303 29.2499 21.7232 29.2229C21.8307 29.2167 21.9377 29.2084 22.044 29.1979C25.7607 28.8321 28.7334 25.889 29.1532 22.181C29.1688 22.0439 29.1809 21.9048 29.1893 21.7657L29.191 21.7491C29.1956 21.7494 29.2003 21.7497 29.205 21.75C29.3061 21.7565 29.4078 21.7653 29.5084 21.7761C29.8371 21.8115 30.1625 21.8699 30.4814 21.9509C30.7259 22.0131 30.974 21.8648 31.036 21.62C31.0979 21.3751 30.95 21.1263 30.7057 21.0642L30.784 20.7548C31.1989 20.8602 31.4499 21.2827 31.3448 21.6984ZM20.5019 28.2811C16.9813 27.9005 14.2316 24.9049 14.2316 21.278C14.2316 17.3939 17.3852 14.234 21.2616 14.234C24.8814 14.234 27.871 16.9892 28.2509 20.5167C28.2622 20.6219 28.2712 20.7278 28.2778 20.8344L28.2768 20.8349C28.1707 20.8412 28.0652 20.8495 27.9602 20.8599C24.2082 21.2319 21.2156 24.2304 20.8444 27.9898C20.834 28.095 20.8257 28.2007 20.8195 28.307L20.8194 28.3084C20.7131 28.3017 20.6069 28.2924 20.5019 28.2811ZM20.527 27.9627C17.1707 27.5952 14.5501 24.737 14.5501 21.278C14.5501 17.5702 17.5612 14.5532 21.2616 14.5532C24.7138 14.5532 27.5663 17.179 27.9331 20.5419C24.0267 20.927 20.9113 24.0485 20.527 27.9627ZM21.7626 27.9841C21.7506 28.0908 21.741 28.1981 21.7338 28.3062C21.8416 28.299 21.9487 28.2893 22.0552 28.2773C25.2986 27.9104 27.8809 25.3229 28.2471 22.0731C28.2591 21.9664 28.2688 21.8591 28.276 21.751C28.1682 21.7582 28.061 21.7679 27.9546 21.7799C24.7111 22.1469 22.1288 24.7343 21.7626 27.9841ZM27.9225 22.1052C27.5476 25.1527 25.1287 27.5764 22.0872 27.9521C22.4621 24.9045 24.881 22.4808 27.9225 22.1052Z" fill="white"/>
<path d="M36.2471 28.6949C35.9946 28.6819 35.7812 28.8771 35.7689 29.1295C35.7375 29.7757 35.6179 30.4125 35.4138 31.0219C35.3336 31.2614 35.4623 31.5207 35.7014 31.6011C35.7496 31.6173 35.7985 31.625 35.8467 31.625C36.0375 31.625 36.2153 31.5042 36.2794 31.313C36.5102 30.6239 36.6453 29.9042 36.6809 29.174C36.6932 28.9218 36.499 28.7072 36.2471 28.6949Z" fill="white"/>
<path fill-rule="evenodd" clip-rule="evenodd" d="M36.2794 31.313C36.2153 31.5042 36.0375 31.625 35.8467 31.625C35.7985 31.625 35.7496 31.6173 35.7014 31.6011C35.4623 31.5207 35.3336 31.2614 35.4138 31.0219C35.6179 30.4125 35.7375 29.7757 35.7689 29.1295C35.7812 28.8771 35.9946 28.6819 36.2471 28.6949C36.499 28.7072 36.6932 28.9218 36.6809 29.174C36.6453 29.9042 36.5102 30.6239 36.2794 31.313ZM36.9991 29.1896C37.02 28.7612 36.6903 28.3972 36.2631 28.3761C35.8333 28.3542 35.4716 28.6866 35.4507 29.1139C35.4207 29.731 35.3065 30.3388 35.1118 30.9204C34.9756 31.327 35.1942 31.7673 35.6 31.9037C35.6812 31.931 35.7645 31.9442 35.8467 31.9442C36.1703 31.9442 36.4725 31.7396 36.5814 31.4146C36.8215 30.6975 36.9621 29.9489 36.9991 29.1896Z" fill="white"/>
<path d="M35.1916 32.6261C35.1794 32.6177 35.1668 32.61 35.1541 32.603C34.9504 32.4905 34.691 32.5497 34.5572 32.746C34.1944 33.2786 33.7602 33.7593 33.2667 34.1748C33.0851 34.3277 33.0523 34.5923 33.1842 34.7841C33.1925 34.7961 33.2014 34.8078 33.211 34.8192C33.3012 34.9269 33.4305 34.9823 33.5606 34.9823C33.6643 34.9823 33.7686 34.9471 33.8541 34.8751C34.4112 34.4059 34.9014 33.8632 35.3112 33.2618C35.4534 33.0531 35.3998 32.7686 35.1916 32.6261Z" fill="white"/>
<path fill-rule="evenodd" clip-rule="evenodd" d="M35.3713 32.3625C35.7247 32.6043 35.8157 33.0875 35.5743 33.4418C35.1482 34.0672 34.6384 34.6316 34.0591 35.1194C33.914 35.2416 33.7365 35.3015 33.5606 35.3015C33.3405 35.3015 33.1205 35.2075 32.9671 35.0246M33.8541 34.8751C34.4112 34.4059 34.9014 33.8632 35.3112 33.2618C35.4534 33.0531 35.3998 32.7686 35.1916 32.6261C35.1794 32.6177 35.1668 32.61 35.1541 32.603C34.9504 32.4905 34.691 32.5497 34.5572 32.746C34.1944 33.2786 33.7602 33.7593 33.2667 34.1748C33.0851 34.3277 33.0523 34.5923 33.1842 34.7841C33.1925 34.7961 33.2014 34.8078 33.211 34.8192C33.3012 34.9269 33.4305 34.9823 33.5606 34.9823C33.6643 34.9823 33.7686 34.9471 33.8541 34.8751ZM35.3713 32.3625C35.0177 32.1207 34.5355 32.2118 34.2942 32.5659L35.3713 32.3625ZM34.2942 32.5659C33.9477 33.0745 33.533 33.5336 33.0618 33.9304L34.2942 32.5659ZM33.0618 33.9304C32.734 34.2064 32.6917 34.6963 32.9671 35.0246L33.0618 33.9304Z" fill="white"/>
<path d="M34.5572 32.746C34.691 32.5497 34.9504 32.4905 35.1541 32.603L35.3713 32.3625L34.2942 32.5659C33.9477 33.0745 33.533 33.5336 33.0618 33.9304L32.9671 35.0246L33.1842 34.7841C33.0523 34.5923 33.0851 34.3277 33.2667 34.1748C33.7602 33.7593 34.1944 33.2786 34.5572 32.746Z" fill="white"/>
<path d="M31.6406 35.201C31.4768 35.2753 31.3103 35.343 31.1416 35.4042C30.7064 35.5621 30.2561 35.6764 29.797 35.7452C29.5476 35.7825 29.3757 36.0154 29.4131 36.2652C29.4469 36.4921 29.6417 36.655 29.8639 36.655C29.8864 36.655 29.9092 36.6533 29.932 36.6499C30.0403 36.6337 30.1481 36.6152 30.2554 36.5945C30.8623 36.4776 31.4534 36.2898 32.0167 36.0346C32.2464 35.9305 32.3485 35.6595 32.2446 35.4294C32.1407 35.1992 31.8703 35.0972 31.6406 35.201Z" fill="white"/>
<path fill-rule="evenodd" clip-rule="evenodd" d="M31.5095 34.9101C31.8993 34.7338 32.3584 34.9069 32.5349 35.2978C32.7113 35.6887 32.538 36.1488 32.148 36.3255C31.4582 36.6379 30.7285 36.8533 29.9792 36.9656M31.5095 34.9101C30.9501 35.1636 30.358 35.3384 29.7499 35.4295L31.5095 34.9101ZM29.7499 35.4295C29.3266 35.4929 29.0346 35.8882 29.098 36.3124L29.7499 35.4295ZM31.6406 35.201C31.4768 35.2753 31.3103 35.343 31.1416 35.4042C30.7064 35.5621 30.2561 35.6764 29.797 35.7452C29.5476 35.7825 29.3757 36.0154 29.4131 36.2652C29.4469 36.4921 29.6417 36.655 29.8639 36.655C29.8864 36.655 29.9092 36.6533 29.932 36.6499C30.0403 36.6337 30.1481 36.6152 30.2554 36.5945C30.8623 36.4776 31.4534 36.2898 32.0167 36.0346C32.2464 35.9305 32.3485 35.6595 32.2446 35.4294C32.1407 35.1992 31.8703 35.0972 31.6406 35.201ZM29.098 36.3124C29.1555 36.698 29.4864 36.9742 29.8639 36.9742L29.098 36.3124ZM29.8639 36.9742C29.9019 36.9742 29.9405 36.9714 29.9792 36.9656L29.8639 36.9742Z" fill="white"/>
<path d="M29.797 35.7452C30.2561 35.6764 30.7064 35.5621 31.1416 35.4042L31.5095 34.9101C30.9501 35.1636 30.358 35.3384 29.7499 35.4295L29.098 36.3124L29.8639 36.9742L29.9792 36.9656L30.2554 36.5945C30.1481 36.6152 30.0403 36.6337 29.932 36.6499C29.9092 36.6533 29.8864 36.655 29.8639 36.655C29.6417 36.655 29.4469 36.4921 29.4131 36.2652C29.3757 36.0154 29.5476 35.7825 29.797 35.7452Z" fill="white"/>
<path d="M18.5726 17.6326C17.1576 18.7598 16.346 20.4441 16.346 22.2535C16.346 22.5061 16.5505 22.7109 16.8025 22.7109C17.0546 22.7109 17.259 22.5061 17.259 22.2535C17.259 20.7246 17.9449 19.3013 19.1408 18.3487C19.3382 18.1915 19.371 17.9037 19.2141 17.706C19.0572 17.5082 18.77 17.4753 18.5726 17.6326Z" fill="white"/>
<path fill-rule="evenodd" clip-rule="evenodd" d="M19.3391 18.5985C18.2191 19.4907 17.5776 20.822 17.5776 22.2535C17.5776 22.6825 17.2305 23.0301 16.8025 23.0301C16.3745 23.0301 16.0275 22.6824 16.0275 22.2535C16.0275 20.3466 16.8834 18.5704 18.3744 17.3827M19.3391 18.5985C19.6741 18.3316 19.7299 17.8431 19.4635 17.5073L19.3391 18.5985ZM19.4635 17.5073C19.1971 17.1716 18.7095 17.1158 18.3744 17.3827L19.4635 17.5073ZM19.2141 17.706C19.371 17.9037 19.3382 18.1915 19.1408 18.3487C17.9449 19.3013 17.259 20.7246 17.259 22.2535C17.259 22.5061 17.0546 22.7109 16.8025 22.7109C16.5505 22.7109 16.346 22.5061 16.346 22.2535C16.346 20.4441 17.1576 18.7598 18.5726 17.6326C18.77 17.4753 19.0572 17.5082 19.2141 17.706Z" fill="white"/>
<path d="M18.5726 17.6326C18.77 17.4753 19.0572 17.5082 19.2141 17.706C19.371 17.9037 19.3382 18.1915 19.1408 18.3487L19.3391 18.5985L19.4635 17.5073L18.3744 17.3827L18.5726 17.6326Z" fill="white"/>
<path d="M22.2356 16.3531C21.6808 16.3531 21.1314 16.4304 20.6028 16.583C20.3606 16.6529 20.2208 16.9063 20.2905 17.1491C20.3481 17.3495 20.5306 17.48 20.7289 17.48C20.7707 17.48 20.8133 17.4742 20.8556 17.4621C21.302 17.3333 21.7663 17.2679 22.2356 17.2679C22.4877 17.2679 22.6921 17.0631 22.6921 16.8105C22.6921 16.558 22.4877 16.3531 22.2356 16.3531Z" fill="white"/>
<path fill-rule="evenodd" clip-rule="evenodd" d="M20.9435 17.7689C20.8725 17.7893 20.8003 17.7992 20.7289 17.7992C20.3925 17.7992 20.0823 17.5782 19.9844 17.2374M20.5147 16.2762C21.0722 16.1153 21.6512 16.0339 22.2356 16.0339C22.6637 16.0339 23.0107 16.3817 23.0107 16.8105C23.0107 17.2394 22.6637 17.5871 22.2356 17.5871C21.7958 17.5871 21.361 17.6484 20.9435 17.7689M20.5147 16.2762C20.1033 16.3949 19.866 16.8253 19.9844 17.2374L20.5147 16.2762ZM20.6028 16.583C21.1314 16.4304 21.6808 16.3531 22.2356 16.3531C22.4877 16.3531 22.6921 16.558 22.6921 16.8105C22.6921 17.0631 22.4877 17.2679 22.2356 17.2679C21.7663 17.2679 21.302 17.3333 20.8556 17.4621C20.8133 17.4742 20.7707 17.48 20.7289 17.48C20.5306 17.48 20.3481 17.3495 20.2905 17.1491C20.2208 16.9063 20.3606 16.6529 20.6028 16.583Z" fill="white"/>
<path d="M20.2905 17.1491C20.2208 16.9063 20.3606 16.6529 20.6028 16.583L20.5147 16.2762L19.9844 17.2374L20.9435 17.7689L20.8556 17.4621C20.8133 17.4742 20.7707 17.48 20.7289 17.48C20.5306 17.48 20.3481 17.3495 20.2905 17.1491Z" fill="white"/>
<defs>
<linearGradient id="paint0_linear_438_10082" x1="9.31322e-08" y1="25" x2="50" y2="25" gradientUnits="userSpaceOnUse">
<stop stop-color="#F4C520"/>
<stop offset="1" stop-color="#F5A84D"/>
</linearGradient>
</defs>
</svg>
