<svg width="50" height="50" viewBox="0 0 50 50" fill="none" xmlns="http://www.w3.org/2000/svg">
<rect width="50" height="50" rx="10" fill="url(#paint0_linear_438_10083)"/>
<path d="M17.5 34.75H16.75C16.1533 34.75 15.581 34.5129 15.159 34.091C14.7371 33.669 14.5 33.0967 14.5 32.5V17.5C14.5 16.9033 14.7371 16.331 15.159 15.909C15.581 15.4871 16.1533 15.25 16.75 15.25H31.75C32.3467 15.25 32.919 15.4871 33.341 15.909C33.7629 16.331 34 16.9033 34 17.5V25.8325C34 26.0314 33.921 26.2222 33.7803 26.3628C33.6397 26.5035 33.4489 26.5825 33.25 26.5825C33.0511 26.5825 32.8603 26.5035 32.7197 26.3628C32.579 26.2222 32.5 26.0314 32.5 25.8325V17.5C32.5 17.3011 32.421 17.1103 32.2803 16.9697C32.1397 16.829 31.9489 16.75 31.75 16.75H16.75C16.5511 16.75 16.3603 16.829 16.2197 16.9697C16.079 17.1103 16 17.3011 16 17.5V32.5C16 32.6989 16.079 32.8897 16.2197 33.0303C16.3603 33.171 16.5511 33.25 16.75 33.25H17.5C17.6989 33.25 17.8897 33.329 18.0303 33.4697C18.171 33.6103 18.25 33.8011 18.25 34C18.25 34.1989 18.171 34.3897 18.0303 34.5303C17.8897 34.671 17.6989 34.75 17.5 34.75ZM26.8 34.75H22C21.8011 34.75 21.6103 34.671 21.4697 34.5303C21.329 34.3897 21.25 34.1989 21.25 34C21.25 33.8011 21.329 33.6103 21.4697 33.4697C21.6103 33.329 21.8011 33.25 22 33.25H26.8C26.9989 33.25 27.1897 33.329 27.3303 33.4697C27.471 33.6103 27.55 33.8011 27.55 34C27.55 34.1989 27.471 34.3897 27.3303 34.5303C27.1897 34.671 26.9989 34.75 26.8 34.75Z" fill="white"/>
<path d="M26.5007 22.8025C26.3807 22.803 26.2624 22.7747 26.1557 22.72L24.2507 21.7225L22.3457 22.75C22.229 22.8106 22.0983 22.8395 21.967 22.8337C21.8356 22.8279 21.708 22.7876 21.5971 22.717C21.4861 22.6463 21.3957 22.5477 21.3349 22.4311C21.2741 22.3145 21.2451 22.1839 21.2507 22.0525V16C21.2507 15.8011 21.3297 15.6103 21.4703 15.4697C21.611 15.329 21.8018 15.25 22.0007 15.25H26.5007C26.6996 15.25 26.8904 15.329 27.031 15.4697C27.1717 15.6103 27.2507 15.8011 27.2507 16V22.0525C27.2514 22.1819 27.2187 22.3094 27.1556 22.4224C27.0925 22.5354 27.0012 22.6302 26.8907 22.6975C26.7718 22.7652 26.6375 22.8013 26.5007 22.8025ZM24.2507 20.125C24.3706 20.1245 24.4889 20.1528 24.5957 20.2075L25.7507 20.815V16.75H22.7507V20.815L23.9057 20.2075C24.0124 20.1528 24.1307 20.1245 24.2507 20.125ZM29.5007 35.5C28.314 35.5 27.154 35.1481 26.1673 34.4888C25.1806 33.8295 24.4115 32.8925 23.9574 31.7961C23.5033 30.6997 23.3845 29.4933 23.616 28.3295C23.8475 27.1656 24.4189 26.0965 25.258 25.2574C26.0972 24.4182 27.1663 23.8468 28.3301 23.6153C29.494 23.3838 30.7004 23.5026 31.7968 23.9567C32.8931 24.4108 33.8302 25.1799 34.4895 26.1666C35.1488 27.1533 35.5007 28.3133 35.5007 29.5C35.5007 31.0913 34.8685 32.6174 33.7433 33.7426C32.6181 34.8679 31.092 35.5 29.5007 35.5ZM29.5007 25C28.6107 25 27.7406 25.2639 27.0006 25.7584C26.2606 26.2529 25.6838 26.9557 25.3432 27.7779C25.0026 28.6002 24.9135 29.505 25.0871 30.3779C25.2608 31.2508 25.6894 32.0526 26.3187 32.682C26.948 33.3113 27.7499 33.7399 28.6228 33.9135C29.4957 34.0872 30.4005 33.9981 31.2228 33.6575C32.045 33.3169 32.7478 32.7401 33.2423 32.0001C33.7368 31.26 34.0007 30.39 34.0007 29.5C34.0007 28.3065 33.5266 27.1619 32.6827 26.318C31.8387 25.4741 30.6942 25 29.5007 25Z" fill="white"/>
<path d="M29.5 30.25C29.3769 30.2494 29.2558 30.2185 29.1475 30.16C29.0277 30.0962 28.9275 30.0012 28.8575 29.8849C28.7875 29.7687 28.7504 29.6357 28.75 29.5V26.5C28.75 26.3011 28.829 26.1103 28.9697 25.9697C29.1103 25.829 29.3011 25.75 29.5 25.75C29.6989 25.75 29.8897 25.829 30.0303 25.9697C30.171 26.1103 30.25 26.3011 30.25 26.5V28.0975L31.3375 27.3475C31.5022 27.2592 31.6939 27.2355 31.8751 27.2811C32.0563 27.3267 32.214 27.4384 32.3172 27.5941C32.4204 27.7499 32.4618 27.9386 32.4332 28.1233C32.4046 28.3079 32.308 28.4753 32.1625 28.5925L29.9125 30.0925C29.7939 30.1852 29.6502 30.2401 29.5 30.25Z" fill="white"/>
<path d="M19.75 34.75C20.1642 34.75 20.5 34.4142 20.5 34C20.5 33.5858 20.1642 33.25 19.75 33.25C19.3358 33.25 19 33.5858 19 34C19 34.4142 19.3358 34.75 19.75 34.75Z" fill="white"/>
<defs>
<linearGradient id="paint0_linear_438_10083" x1="25" y1="0" x2="39.1176" y2="47.0588" gradientUnits="userSpaceOnUse">
<stop stop-color="#3BCFF0"/>
<stop offset="1" stop-color="#57C2FE"/>
</linearGradient>
</defs>
</svg>
