<svg width="64" height="64" viewBox="0 0 64 64" fill="none" xmlns="http://www.w3.org/2000/svg">
<g clip-path="url(#clip0)">
<path d="M63.5005 31.0031C62.4516 30.2182 59.021 27.7099 55.7682 25.9731C56.8904 24.3421 57.7906 22.8603 58.1821 22.201C58.3742 21.8739 58.402 21.4699 58.2562 21.1203C58.111 20.7715 57.8056 20.5076 57.4389 20.414C56.6979 20.2253 55.0144 19.8148 53.0687 19.4551C54.1424 15.9211 54.7931 11.7261 54.9787 10.4342C55.0359 10.0466 54.9046 9.64988 54.6275 9.37275C54.3505 9.09562 53.9545 8.964 53.569 9.02087C52.2739 9.20712 48.0779 9.85812 44.5449 10.9314C44.1852 8.9855 43.7746 7.30188 43.5858 6.5605C43.4921 6.19438 43.2281 5.88912 42.8795 5.74388C42.53 5.59812 42.1262 5.62587 41.7951 5.82025C41.1379 6.2105 39.6569 7.11025 38.0262 8.23213C36.2882 4.97663 33.7814 1.54825 32.9991 0.502875C32.7656 0.188 32.3923 0 32.0001 0C32.0001 0 32.0001 0 32 0C31.608 0 31.2345 0.187875 31.0031 0.499625C30.2186 1.548 27.7114 4.97713 25.9736 8.232C24.3424 7.10975 22.8603 6.20925 22.2008 5.81775C21.8738 5.62575 21.4695 5.59812 21.1201 5.74388C20.7715 5.88925 20.5075 6.1945 20.414 6.56112C20.2253 7.30225 19.8148 8.98575 19.4551 10.9312C15.9219 9.858 11.7264 9.207 10.4339 9.02125C10.0465 8.96425 9.6495 9.09562 9.3725 9.37263C9.0955 9.64963 8.96412 10.0464 9.02063 10.4305C9.10612 11.0267 9.25237 11.9819 9.46375 13.1464C9.546 13.5991 9.94063 13.9165 10.3851 13.9165C10.4408 13.9165 10.4971 13.9115 10.5538 13.9012C11.0631 13.8088 11.4011 13.3207 11.3086 12.8114C11.1835 12.1225 11.082 11.5093 11.0026 11.0031C12.8024 11.2854 16.256 11.8946 19.1435 12.7974C18.9789 13.9129 18.855 15.0432 18.8159 16.0794C17.821 16.9046 16.9045 17.8211 16.0793 18.816C15.0431 18.8552 13.9128 18.979 12.7972 19.1436C12.6015 18.5171 12.4069 17.8245 12.2163 17.0723C12.089 16.5704 11.5789 16.2668 11.0771 16.3939C10.5752 16.5211 10.2715 17.0311 10.3988 17.533C10.573 18.2204 10.751 18.8631 10.931 19.4554C8.98537 19.815 7.30188 20.2255 6.56063 20.4142C6.1945 20.5077 5.88912 20.7716 5.74388 21.1203C5.59812 21.4698 5.62575 21.8738 5.82013 22.2049C6.21038 22.8621 7.11013 24.343 8.232 25.9737C4.97713 27.7114 1.54825 30.2185 0.502625 31.001C0.187875 31.2345 0 31.608 0 32C0 32.392 0.187875 32.7655 0.499625 32.9969C1.548 33.7814 4.97713 36.2886 8.232 38.0264C7.10975 39.6576 6.20925 41.1398 5.81775 41.7993C5.62575 42.1264 5.59812 42.5304 5.74388 42.8799C5.88925 43.2285 6.1945 43.4925 6.56112 43.586C7.30225 43.7747 8.98575 44.1852 10.9312 44.5449C9.858 48.0781 9.207 52.2736 9.02112 53.5661C8.96412 53.9538 9.0955 54.3504 9.3725 54.6275C9.60713 54.8621 9.9275 54.9921 10.2537 54.9921C10.3127 54.9921 10.3719 54.9879 10.4309 54.9793C11.7261 54.793 15.9219 54.142 19.4551 53.0687C19.8148 55.0144 20.2253 56.698 20.4141 57.4394C20.5076 57.8055 20.7715 58.1109 21.1201 58.2561C21.2682 58.3179 21.4261 58.3485 21.5841 58.3485C21.799 58.3485 22.014 58.2919 22.2048 58.1799C22.862 57.7897 24.3426 56.8901 25.9731 55.7684C27.7099 59.021 30.218 62.4514 31.0009 63.4975C31.2345 63.8123 31.608 64.0001 32.0001 64C32.3923 63.9999 32.7656 63.812 32.9969 63.5004C33.7817 62.4517 36.2897 59.0216 38.0269 55.7682C39.658 56.8904 41.1399 57.7907 41.7991 58.1821C41.9873 58.2926 42.2007 58.3488 42.4149 58.3488C42.5729 58.3488 42.7311 58.3181 42.8796 58.2562C43.2282 58.111 43.4922 57.8057 43.586 57.4389C43.7747 56.6979 44.1854 55.0145 44.545 53.0687C48.078 54.142 52.2738 54.7929 53.5661 54.9787C53.626 54.9875 53.6857 54.9917 53.7455 54.9917C54.0732 54.9917 54.3935 54.8616 54.6278 54.6271C54.9049 54.35 55.0361 53.9533 54.9794 53.569C54.7932 52.274 54.1425 48.0788 53.0689 44.5448C55.0145 44.1851 56.6981 43.7745 57.4395 43.5858C57.8057 43.4923 58.1111 43.2284 58.2564 42.8796C58.4021 42.53 58.3744 42.126 58.1801 41.795C57.7899 41.1377 56.8903 39.657 55.7685 38.0267C59.0211 36.2901 62.4515 33.7819 63.4976 32.999C63.8124 32.7654 64.0003 32.392 64.0003 31.9999C64.0003 31.6077 63.8121 31.2345 63.5005 31.0031ZM52.213 27.6248C51.6796 25.1586 50.706 22.8546 49.3774 20.8002C51.8474 21.0549 54.5602 21.6469 56.1035 22.0159C55.2749 23.366 53.7783 25.6986 52.213 27.6248ZM50.8052 32C50.8052 33.7607 49.3729 35.1931 47.6121 35.1931C45.8514 35.1931 44.419 33.7607 44.419 32C44.419 30.2393 45.8515 28.8069 47.6123 28.8069C49.373 28.8069 50.8052 30.2393 50.8052 32ZM47.6121 26.9319C46.1598 26.9319 44.8491 27.5468 43.9243 28.5289C43.6681 27.6504 43.3174 26.8119 42.8838 26.025C42.9356 26.0265 42.9873 26.0287 43.0394 26.0287C44.3931 26.0287 45.666 25.5015 46.6231 24.5443C47.3064 23.861 47.7691 23.0166 47.9789 22.0971C49.042 23.8064 49.8384 25.6976 50.3101 27.7127C49.5282 27.2189 48.6034 26.9319 47.6121 26.9319ZM45.2975 45.2974C44.0524 46.5421 42.0267 46.5424 40.7816 45.2974C40.1785 44.6942 39.8464 43.8924 39.8464 43.0395C39.8464 42.1865 40.1785 41.3846 40.7815 40.7816H40.7816C41.404 40.1591 42.2218 39.8479 43.0394 39.8479C43.8571 39.8479 44.6749 40.1591 45.2974 40.7816C45.9004 41.3848 46.2325 42.1866 46.2325 43.0395C46.2326 43.8924 45.9005 44.6942 45.2975 45.2974ZM18.7026 45.2974C17.4576 44.0524 17.4576 42.0265 18.7026 40.7815C19.3057 40.1784 20.1076 39.8462 20.9605 39.8462C21.8135 39.8462 22.6154 40.1784 23.2184 40.7815C23.8215 41.3846 24.1536 42.1865 24.1536 43.0394C24.1536 43.8923 23.8214 44.6941 23.2184 45.2972C21.9736 46.5424 19.9478 46.5425 18.7026 45.2974ZM20.9605 17.7689C21.7781 17.7689 22.596 18.0801 23.2184 18.7026C23.8215 19.3057 24.1536 20.1076 24.1536 20.9605C24.1536 21.8135 23.8215 22.6154 23.2184 23.2184C22.6152 23.8215 21.8134 24.1536 20.9605 24.1536C20.1076 24.1536 19.3057 23.8214 18.7026 23.2184C17.4576 21.9734 17.4576 19.9475 18.7026 18.7025C19.3253 18.08 20.1427 17.7689 20.9605 17.7689ZM21.4562 32C21.4562 26.1861 26.1861 21.4562 32 21.4562C37.8139 21.4562 42.5438 26.1861 42.5438 32C42.5438 37.8139 37.8139 42.5438 32 42.5438C26.1861 42.5438 21.4562 37.8139 21.4562 32ZM32 13.1946C33.7607 13.1946 35.1931 14.627 35.1931 16.3878C35.1931 18.1485 33.7607 19.581 32 19.581C30.2393 19.581 28.8069 18.1486 28.8069 16.3879C28.8069 14.6271 30.2393 13.1946 32 13.1946ZM45.2974 18.7026C45.9005 19.3057 46.2326 20.1076 46.2326 20.9605C46.2326 21.8135 45.9005 22.6154 45.2974 23.2184C44.0524 24.4634 42.0264 24.4632 40.7816 23.2184C40.7816 23.2184 40.7816 23.2184 40.7815 23.2184C40.1785 22.6152 39.8464 21.8134 39.8464 20.9605C39.8464 20.1076 40.1785 19.3057 40.7815 18.7026C41.4041 18.0801 42.2216 17.7689 43.0395 17.7689C43.857 17.7689 44.6749 18.0802 45.2974 18.7026ZM39.4557 17.3768C38.4986 18.334 37.9714 19.6068 37.9714 20.9605C37.9714 21.0126 37.9736 21.0644 37.9751 21.1161C37.1882 20.6825 36.3498 20.3318 35.4711 20.0755C36.4531 19.1506 37.0681 17.84 37.0681 16.3878C37.0681 15.3956 36.7805 14.4699 36.2858 13.6875C38.304 14.1597 40.1978 14.9584 41.9092 16.0238C41.0096 16.2283 40.1549 16.6776 39.4557 17.3768ZM28.5287 20.0756C27.6502 20.3317 26.8118 20.6825 26.0249 21.1161C26.0264 21.0643 26.0286 21.0126 26.0286 20.9605C26.0286 19.6068 25.5014 18.334 24.5441 17.3768C23.7789 16.6115 22.8865 16.2029 21.9655 16.1024C23.7094 14.9978 25.6462 14.1723 27.7135 13.6885C27.2191 14.4708 26.9317 15.3961 26.9317 16.3879C26.9319 17.8401 27.5467 19.1507 28.5287 20.0756ZM16.1024 21.9655C16.2029 22.8865 16.6115 23.779 17.3768 24.5443C18.334 25.5015 19.6068 26.0287 20.9605 26.0287C21.0126 26.0287 21.0643 26.0265 21.1161 26.025C20.6825 26.8118 20.3317 27.6502 20.0756 28.5289C19.1507 27.5469 17.8401 26.9319 16.3879 26.9319C15.396 26.9319 14.4706 27.2194 13.6884 27.7138C14.1721 25.6464 14.9978 23.7094 16.1024 21.9655ZM19.581 32C19.581 33.7607 18.1486 35.1931 16.3879 35.1931C14.6271 35.1931 13.1946 33.7607 13.1946 32C13.1946 30.2393 14.627 28.8069 16.3878 28.8069C18.1485 28.8069 19.581 30.2393 19.581 32ZM16.3879 37.0681C17.8401 37.0681 19.1507 36.4533 20.0756 35.4711C20.3317 36.3496 20.6825 37.1881 21.1161 37.975C21.0643 37.9735 21.0126 37.9712 20.9605 37.9712C19.6068 37.9712 18.334 38.4985 17.3768 39.4557C16.6111 40.2214 16.2025 41.1141 16.1022 42.0355C14.9974 40.2914 14.1718 38.3536 13.6879 36.286C14.4703 36.7806 15.3958 37.0681 16.3879 37.0681ZM24.5443 46.6232C25.5015 45.666 26.0287 44.3932 26.0287 43.0395C26.0287 42.9874 26.0265 42.9358 26.025 42.8839C26.8116 43.3175 27.6501 43.6681 28.5285 43.9243C27.5464 44.8493 26.9314 46.16 26.9314 47.6125C26.9314 48.6041 27.2189 49.5295 27.7134 50.3116C25.6961 49.8395 23.803 49.0419 22.0923 47.9771C22.9914 47.7725 23.8454 47.3221 24.5443 46.6232ZM36.0008 49.0051C35.562 48.7307 34.9835 48.864 34.7089 49.303C34.1209 50.2435 33.1081 50.805 32 50.805C30.239 50.805 28.8062 49.3729 28.8062 47.6125C28.8062 45.8515 30.2389 44.4188 32 44.4188C33.1086 44.4188 34.1213 44.9805 34.7085 45.9214C34.9827 46.3606 35.5609 46.4942 36.0003 46.2202C36.4395 45.9461 36.5732 45.3677 36.2991 44.9286C36.0651 44.5537 35.7885 44.217 35.4776 43.9225C36.3539 43.6665 37.1903 43.3165 37.9751 42.8839C37.9736 42.9358 37.9714 42.9875 37.9714 43.0395C37.9714 44.3932 38.4986 45.666 39.4559 46.6232C40.1548 47.3221 41.0089 47.7726 41.908 47.9771C40.1979 49.0415 38.3055 49.8392 36.2891 50.3114C36.2922 50.3065 36.2958 50.3019 36.2988 50.297C36.5733 49.858 36.4399 49.2795 36.0008 49.0051ZM47.9789 41.9027C47.7691 40.9834 47.3064 40.139 46.6232 39.4557C45.666 38.4985 44.3931 37.9712 43.0394 37.9712C42.9873 37.9712 42.9356 37.9735 42.8838 37.975C43.3174 37.1882 43.6681 36.3496 43.9243 35.4711C44.8491 36.4531 46.1598 37.0681 47.6121 37.0681C48.6035 37.0681 49.5285 36.7809 50.3105 36.2869C49.8389 38.3022 49.0421 40.1934 47.9789 41.9027ZM52.997 11.0031C52.7148 12.8026 52.1058 16.2555 51.2028 19.1436C50.0872 18.979 48.9569 18.8551 47.9207 18.816C47.0955 17.8213 46.179 16.9048 45.1842 16.0795C45.145 15.0431 45.0212 13.9129 44.8566 12.7974C47.7427 11.8949 51.195 11.2858 52.997 11.0031ZM41.9841 7.8965C42.3532 9.43987 42.9451 12.1525 43.1997 14.6226C41.1454 13.294 38.8415 12.3204 36.3754 11.787C38.3026 10.2205 40.6364 8.72363 41.9841 7.8965ZM32 2.3065C33.0735 3.77975 35.0846 6.653 36.4865 9.33113C35.5854 10.0005 34.7025 10.7091 33.9439 11.4117C33.3037 11.3517 32.6556 11.3197 32 11.3197C31.3444 11.3197 30.6963 11.3519 30.0561 11.4117C29.2975 10.7092 28.4146 10.0006 27.5135 9.33125C28.9145 6.65462 30.9249 3.78212 32 2.3065ZM22.0159 7.8965C23.3659 8.72513 25.6984 10.2214 27.6246 11.787C25.1585 12.3204 22.8546 13.294 20.8002 14.6226C21.0549 12.1526 21.6469 9.43975 22.0159 7.8965ZM14.6226 20.8002C13.294 22.8546 12.3204 25.1585 11.787 27.6246C10.2205 25.6974 8.72363 23.3636 7.8965 22.0159C9.44 21.6469 12.1529 21.0549 14.6226 20.8002ZM2.3065 32C3.78 30.9264 6.65363 28.9151 9.33113 27.5135C10.0005 28.4145 10.7091 29.2975 11.4117 30.0561C11.3517 30.6963 11.3197 31.3445 11.3197 32.0001C11.3197 32.6558 11.3519 33.3039 11.4117 33.9441C10.7092 34.7028 10.0006 35.5856 9.33125 36.4868C6.65462 35.0855 3.782 33.0751 2.3065 32ZM11.787 36.3754C12.3204 38.8415 13.294 41.1454 14.6226 43.1997C12.1528 42.9451 9.43975 42.3531 7.8965 41.9841C8.725 40.634 10.2214 38.3016 11.787 36.3754ZM11.0031 52.9969C11.2854 51.197 11.8946 47.7438 12.7972 44.8564C13.9128 45.021 15.0431 45.1449 16.0793 45.184C16.9045 46.1789 17.821 47.0954 18.8159 47.9206C18.8551 48.9569 18.9789 50.0871 19.1435 51.2026C16.2571 52.1051 12.8051 52.7143 11.0031 52.9969ZM22.0159 56.1036C21.6467 54.56 21.0549 51.8471 20.8002 49.3775C22.8546 50.7061 25.1585 51.6797 27.6246 52.2131C25.6974 53.7795 23.3636 55.2764 22.0159 56.1036ZM32 61.6935C30.9261 60.2195 28.9139 57.3449 27.5131 54.6691C28.4144 53.9996 29.2974 53.2909 30.0561 52.5882C30.6963 52.6483 31.3445 52.6802 32 52.6802C32.6556 52.6802 33.3037 52.6481 33.9439 52.5882C34.7026 53.2909 35.5856 53.9996 36.487 54.6691C35.0865 57.3442 33.0755 60.2174 32 61.6935ZM41.9841 56.1035C40.6341 55.2749 38.3015 53.7785 36.3754 52.213C38.8415 51.6796 41.1454 50.706 43.1997 49.3774C42.9451 51.8476 42.3531 54.5606 41.9841 56.1035ZM52.997 52.9969C51.1971 52.7145 47.7437 52.1054 44.8565 51.2028C45.0211 50.0872 45.1449 48.957 45.1841 47.9206C46.179 47.0954 47.0954 46.1789 47.9206 45.1841C48.9569 45.1449 50.0871 45.0211 51.2026 44.8565C52.1054 47.7434 52.7143 51.1949 52.997 52.9969ZM49.3774 43.1997C50.706 41.1454 51.6796 38.8414 52.213 36.3753C53.7793 38.3024 55.2762 40.6361 56.1035 41.984C54.56 42.3531 51.8473 42.9451 49.3774 43.1997ZM54.6691 36.487C53.9995 35.5858 53.2909 34.7025 52.5882 33.9439C52.6483 33.3037 52.6802 32.6556 52.6802 32C52.6802 31.3444 52.6481 30.6963 52.5882 30.0561C53.2909 29.2975 53.9996 28.4144 54.6691 27.513C57.3438 28.9132 60.2174 30.9245 61.6936 32C60.2196 33.074 57.3449 35.0863 54.6691 36.487Z" fill="url(#paint0_linear)"/>
</g>
<defs>
<linearGradient id="paint0_linear" x1="64.0003" y1="32" x2="0" y2="32" gradientUnits="userSpaceOnUse">
<stop stop-color="#BA58E1"/>
<stop offset="1" stop-color="#6F49BC"/>
</linearGradient>
<clipPath id="clip0">
<rect width="64" height="64" fill="white"/>
</clipPath>
</defs>
</svg>
