<svg width="50" height="50" viewBox="0 0 50 50" fill="none" xmlns="http://www.w3.org/2000/svg">
<rect width="50" height="50" rx="10" fill="url(#paint0_linear_438_10084)"/>
<path d="M15.7042 14.7144C14.6854 14.7144 13.8574 15.5718 13.8574 16.6267V21.0438C13.8574 21.4575 14.0109 21.8188 14.2274 22.1319C14.0109 22.4451 13.8574 22.8064 13.8574 23.2201V27.6372C13.8574 28.0509 14.0109 28.4122 14.2274 28.7253C14.0109 29.0385 13.8574 29.3998 13.8574 29.8135V34.2306C13.8574 35.2855 14.6854 36.1429 15.7042 36.1429H34.2964C35.3151 36.1429 36.1431 35.2855 36.1431 34.2306V29.8135C36.1431 29.3998 35.9896 29.0385 35.7732 28.7253C35.9896 28.4122 36.1431 28.0509 36.1431 27.6372V23.2201C36.1431 22.8064 35.9896 22.4451 35.7732 22.1319C35.9896 21.8188 36.1431 21.4575 36.1431 21.0438V16.6267C36.1431 15.5718 35.3151 14.7144 34.2964 14.7144H15.7042ZM15.7042 16.3627H34.2964C34.438 16.3627 34.5513 16.48 34.5513 16.6267V21.0438C34.5513 21.1905 34.438 21.3078 34.2964 21.3078H15.7042C15.5625 21.3078 15.4493 21.1905 15.4493 21.0438V16.6267C15.4493 16.48 15.5625 16.3627 15.7042 16.3627ZM17.0411 18.0111V19.6594H23.4084V18.0111H17.0411ZM31.3676 18.0111V19.6594H32.9595V18.0111H31.3676ZM15.7042 22.9561H34.2964C34.438 22.9561 34.5513 23.0734 34.5513 23.2201V27.6372C34.5513 27.7839 34.438 27.9012 34.2964 27.9012H15.7042C15.5625 27.9012 15.4493 27.7839 15.4493 27.6372V23.2201C15.4493 23.0734 15.5625 22.9561 15.7042 22.9561ZM17.0411 24.6045V26.2528H23.4084V24.6045H17.0411ZM31.3676 24.7268V26.3752H32.9595V24.7268H31.3676ZM15.7042 29.5495H34.2964C34.438 29.5495 34.5513 29.6668 34.5513 29.8135V34.2306C34.5513 34.3773 34.438 34.4946 34.2964 34.4946H15.7042C15.5625 34.4946 15.4493 34.3773 15.4493 34.2306V29.8135C15.4493 29.6668 15.5625 29.5495 15.7042 29.5495ZM17.0411 31.1979V32.8462H23.4084V31.1979H17.0411ZM31.3676 31.4039V33.0523H32.9595V31.4039H31.3676Z" fill="white"/>
<defs>
<linearGradient id="paint0_linear_438_10084" x1="9.31322e-08" y1="25" x2="50" y2="25" gradientUnits="userSpaceOnUse">
<stop stop-color="#26D04C"/>
<stop offset="1" stop-color="#4BE793"/>
</linearGradient>
</defs>
</svg>
