<svg width="50" height="50" viewBox="0 0 50 50" fill="none" xmlns="http://www.w3.org/2000/svg">
<rect width="50" height="50" rx="10" fill="url(#paint0_linear_438_10078)"/>
<path fill-rule="evenodd" clip-rule="evenodd" d="M20.8787 15.8787C21.4413 15.3161 22.2044 15 23 15H27C27.7956 15 28.5587 15.3161 29.1213 15.8787C29.6839 16.4413 30 17.2043 30 18V19H33C34.6569 19 36 20.3431 36 22V32C36 33.6569 34.6569 35 33 35H17C15.3431 35 14 33.6569 14 32V22C14 20.3431 15.3431 19 17 19H20V18C20 17.2043 20.3161 16.4413 20.8787 15.8787ZM20 21H17C16.4477 21 16 21.4477 16 22V32C16 32.5523 16.4477 33 17 33H20V21ZM22 33V21H28V33H22ZM30 33H33C33.5523 33 34 32.5523 34 32V22C34 21.4477 33.5523 21 33 21H30V33ZM28 19H22V18C22 17.7348 22.1054 17.4804 22.2929 17.2929C22.4804 17.1054 22.7348 17 23 17H27C27.2652 17 27.5196 17.1054 27.7071 17.2929C27.8946 17.4804 28 17.7348 28 18V19Z" fill="white"/>
<defs>
<linearGradient id="paint0_linear_438_10078" x1="25" y1="0" x2="39.1176" y2="47.0588" gradientUnits="userSpaceOnUse">
<stop stop-color="#3BCFF0"/>
<stop offset="1" stop-color="#57C2FE"/>
</linearGradient>
</defs>
</svg>
