<svg width="16" height="16" viewBox="0 0 16 16" fill="none" xmlns="http://www.w3.org/2000/svg">
<path d="M0.342793 4.60274L7.02858 14.6849L3.54283 6.48402L0.342793 4.60274Z" fill="#0B1014"/>
<path d="M5.5619 2.57534L1.82852 1.36983L0 3.98177L3.61909 6.10052L5.5619 2.57534Z" fill="#0B1014"/>
<path d="M10.3239 2.2831L13.6762 1.15072L10.3239 0H5.67618L2.34281 1.13252L5.86666 2.2831H10.3239Z" fill="#0B1014"/>
<path d="M4.01902 6.17352H12.1715L10.2476 2.6484H5.94278L4.01902 6.17352Z" fill="#0B1014"/>
<path d="M10.6286 2.57534L12.5714 6.10046L16 3.9817L14.1715 1.36977L10.6286 2.57534Z" fill="#0B1014"/>
<path d="M3.98093 6.53881L8.00002 16L12.2096 6.53881H3.98093Z" fill="#0B1014"/>
<path d="M9.08574 14.5205L15.6382 4.63927L12.6478 6.48399L9.08574 14.5205Z" fill="#0B1014"/>
</svg>
