<svg width="64" height="64" viewBox="0 0 64 64" fill="none" xmlns="http://www.w3.org/2000/svg">
<path d="M50.8787 22.1109L49.0374 20.27C48.3213 19.554 47.9121 18.5824 47.9121 17.5622V14.9261C47.9121 10.6816 44.4596 7.23237 40.2143 7.23237H37.5801C36.5572 7.23237 35.5853 6.82071 34.8693 6.10478L33.0023 4.2408C29.9846 1.24924 25.0999 1.24924 22.1077 4.26382L20.2664 6.10478C19.5503 6.82071 18.5785 7.23237 17.5555 7.23237H14.9214C10.6761 7.23237 7.22357 10.6816 7.22357 14.9261V17.5341C7.22357 18.5824 6.81438 19.554 6.0983 20.27L4.23139 22.139C1.23921 25.1536 1.26478 30.0398 4.25696 33.0288L6.0983 34.8442C6.81438 35.5857 7.22357 36.5574 7.22357 37.5827V40.2137C7.22357 44.4581 10.6761 47.9125 14.9214 47.9125H17.5555C18.5785 47.9125 19.5503 48.3191 20.2664 49.035L22.1333 50.9041C23.6422 52.3871 25.6114 53.126 27.5806 53.126C29.5498 53.126 31.519 52.3871 33.0279 50.8759L34.8693 49.035C35.5853 48.3191 36.5572 47.9125 37.5801 47.9125H40.2143C44.4596 47.9125 47.9121 44.4581 47.9121 40.2137V37.5827C47.9121 36.5574 48.3213 35.5857 49.0374 34.8698L50.8531 33.0544C50.8787 33.0288 50.9043 33.0058 50.9299 32.9777C52.362 31.5228 53.1548 29.577 53.1292 27.5315C53.1292 25.486 52.3364 23.5428 50.8787 22.1109V22.1109Z" fill="url(#paint0_linear_433_7531)"/>
<mask id="path-2-outside-1_433_7531" maskUnits="userSpaceOnUse" x="9.86719" y="9.87305" width="54" height="54" fill="black">
<rect fill="white" x="9.86719" y="9.87305" width="54" height="54"/>
<path d="M59.7459 30.984L57.9046 29.143C57.1885 28.4271 56.7793 27.4555 56.7793 26.4353V23.7991C56.7793 19.5547 53.3268 16.1054 49.0815 16.1054H46.4473C45.4244 16.1054 44.4525 15.6938 43.7365 14.9778L41.8695 13.1139C38.8518 10.1223 33.9671 10.1223 30.9749 13.1369L29.1336 14.9778C28.4175 15.6938 27.4457 16.1054 26.4227 16.1054H23.7886C19.5433 16.1054 16.0908 19.5547 16.0908 23.7991V26.4071C16.0908 27.4555 15.6816 28.4271 14.9655 29.143L13.0986 31.0121C10.1064 34.0267 10.132 38.9129 13.1242 41.9019L14.9655 43.7173C15.6816 44.4588 16.0908 45.4304 16.0908 46.4557V49.0868C16.0908 53.3312 19.5433 56.7856 23.7886 56.7856H26.4227C27.4457 56.7856 28.4175 57.1921 29.1336 57.908L31.0005 59.7771C32.5094 61.2601 34.4786 61.9991 36.4478 61.9991C38.417 61.9991 40.3862 61.2601 41.8951 59.749L43.7365 57.908C44.4525 57.1921 45.4244 56.7856 46.4473 56.7856H49.0815C53.3268 56.7856 56.7793 53.3312 56.7793 49.0868V46.4557C56.7793 45.4304 57.1885 44.4588 57.9046 43.7429L59.7203 41.9275C59.7459 41.9019 59.7715 41.8789 59.797 41.8508C61.2292 40.3959 62.022 38.4501 61.9964 36.4046C61.9964 34.3591 61.2036 32.4158 59.7459 30.984V30.984Z"/>
</mask>
<path d="M59.7459 30.984L57.9046 29.143C57.1885 28.4271 56.7793 27.4555 56.7793 26.4353V23.7991C56.7793 19.5547 53.3268 16.1054 49.0815 16.1054H46.4473C45.4244 16.1054 44.4525 15.6938 43.7365 14.9778L41.8695 13.1139C38.8518 10.1223 33.9671 10.1223 30.9749 13.1369L29.1336 14.9778C28.4175 15.6938 27.4457 16.1054 26.4227 16.1054H23.7886C19.5433 16.1054 16.0908 19.5547 16.0908 23.7991V26.4071C16.0908 27.4555 15.6816 28.4271 14.9655 29.143L13.0986 31.0121C10.1064 34.0267 10.132 38.9129 13.1242 41.9019L14.9655 43.7173C15.6816 44.4588 16.0908 45.4304 16.0908 46.4557V49.0868C16.0908 53.3312 19.5433 56.7856 23.7886 56.7856H26.4227C27.4457 56.7856 28.4175 57.1921 29.1336 57.908L31.0005 59.7771C32.5094 61.2601 34.4786 61.9991 36.4478 61.9991C38.417 61.9991 40.3862 61.2601 41.8951 59.749L43.7365 57.908C44.4525 57.1921 45.4244 56.7856 46.4473 56.7856H49.0815C53.3268 56.7856 56.7793 53.3312 56.7793 49.0868V46.4557C56.7793 45.4304 57.1885 44.4588 57.9046 43.7429L59.7203 41.9275C59.7459 41.9019 59.7715 41.8789 59.797 41.8508C61.2292 40.3959 62.022 38.4501 61.9964 36.4046C61.9964 34.3591 61.2036 32.4158 59.7459 30.984V30.984Z" fill="#BA90FF"/>
<path d="M57.9046 29.143L58.6116 28.4358L57.9046 29.143ZM43.7365 14.9778L44.4435 14.2706L44.443 14.2702L43.7365 14.9778ZM41.8695 13.1139L42.5761 12.4062L42.5736 12.4037L41.8695 13.1139ZM30.9749 13.1369L31.682 13.844L31.6847 13.8413L30.9749 13.1369ZM29.1336 14.9778L29.8406 15.685L29.1336 14.9778ZM14.9655 29.143L14.2585 28.4358L14.258 28.4363L14.9655 29.143ZM13.0986 31.0121L12.3911 30.3054L12.3888 30.3076L13.0986 31.0121ZM13.1242 41.9019L12.4174 42.6094L12.4221 42.614L13.1242 41.9019ZM14.9655 43.7173L15.6848 43.0226C15.6791 43.0167 15.6734 43.0109 15.6676 43.0052L14.9655 43.7173ZM29.1336 57.908L29.8411 57.2013L29.8406 57.2009L29.1336 57.908ZM31.0005 59.7771L30.293 60.4838L30.2995 60.4903L31.0005 59.7771ZM41.8951 59.749L41.1881 59.0418L41.1875 59.0424L41.8951 59.749ZM43.7365 57.908L44.4435 58.6152L43.7365 57.908ZM57.9046 43.7429L58.6116 44.45L57.9046 43.7429ZM59.7203 41.9275L59.0133 41.2203V41.2203L59.7203 41.9275ZM59.797 41.8508L59.0844 41.1492C59.0751 41.1586 59.0661 41.1682 59.0572 41.178L59.797 41.8508ZM61.9964 36.4046H60.9963L60.9965 36.4171L61.9964 36.4046ZM60.4529 30.2768L58.6116 28.4358L57.1975 29.8502L59.0389 31.6911L60.4529 30.2768ZM58.6116 28.4358C58.0807 27.905 57.7793 27.1868 57.7793 26.4353H55.7793C55.7793 27.7241 56.2963 28.9491 57.1975 29.8502L58.6116 28.4358ZM57.7793 26.4353V23.7991H55.7793V26.4353H57.7793ZM57.7793 23.7991C57.7793 19.0017 53.8784 15.1054 49.0815 15.1054V17.1054C52.7751 17.1054 55.7793 20.1076 55.7793 23.7991H57.7793ZM49.0815 15.1054H46.4473V17.1054H49.0815V15.1054ZM46.4473 15.1054C45.6942 15.1054 44.9754 14.8024 44.4435 14.2706L43.0294 15.685C43.9297 16.5851 45.1545 17.1054 46.4473 17.1054V15.1054ZM44.443 14.2702L42.5761 12.4062L41.163 13.8215L43.0299 15.6855L44.443 14.2702ZM42.5736 12.4037C39.1672 9.0269 33.6497 9.02257 30.2652 12.4324L31.6847 13.8413C34.2845 11.222 38.5363 11.2177 41.1655 13.824L42.5736 12.4037ZM30.2679 12.4297L28.4266 14.2706L29.8406 15.685L31.682 13.844L30.2679 12.4297ZM28.4266 14.2706C27.8947 14.8024 27.1758 15.1054 26.4227 15.1054V17.1054C27.7156 17.1054 28.9404 16.5851 29.8406 15.685L28.4266 14.2706ZM26.4227 15.1054H23.7886V17.1054H26.4227V15.1054ZM23.7886 15.1054C18.9916 15.1054 15.0908 19.0017 15.0908 23.7991H17.0908C17.0908 20.1076 20.0949 17.1054 23.7886 17.1054V15.1054ZM15.0908 23.7991V26.4071H17.0908V23.7991H15.0908ZM15.0908 26.4071C15.0908 27.1907 14.7866 27.9078 14.2585 28.4358L15.6725 29.8502C16.5765 28.9464 17.0908 27.7202 17.0908 26.4071H15.0908ZM14.258 28.4363L12.3911 30.3054L13.8061 31.7188L15.673 29.8497L14.258 28.4363ZM12.3888 30.3076C9.007 33.7148 9.03687 39.2324 12.4174 42.6094L13.8309 41.1944C11.2271 38.5934 11.2058 34.3386 13.8083 31.7166L12.3888 30.3076ZM12.4221 42.614L14.2634 44.4294L15.6676 43.0052L13.8262 41.1898L12.4221 42.614ZM14.2462 44.412C14.7905 44.9756 15.0908 45.7012 15.0908 46.4557H17.0908C17.0908 45.1596 16.5727 43.942 15.6848 43.0226L14.2462 44.412ZM15.0908 46.4557V49.0868H17.0908V46.4557H15.0908ZM15.0908 49.0868C15.0908 53.8832 18.9907 57.7856 23.7886 57.7856V55.7856C20.0958 55.7856 17.0908 52.7791 17.0908 49.0868H15.0908ZM23.7886 57.7856H26.4227V55.7856H23.7886V57.7856ZM26.4227 57.7856C27.1792 57.7856 27.8971 58.0859 28.4266 58.6152L29.8406 57.2009C28.9379 56.2983 27.7122 55.7856 26.4227 55.7856V57.7856ZM28.4261 58.6147L30.293 60.4838L31.708 59.0704L29.8411 57.2013L28.4261 58.6147ZM30.2995 60.4903C32.0041 62.1656 34.2288 62.9991 36.4478 62.9991V60.9991C34.7284 60.9991 33.0147 60.3546 31.7015 59.0639L30.2995 60.4903ZM36.4478 62.9991C38.6679 62.9991 40.8962 62.1646 42.6027 60.4556L41.1875 59.0424C39.8762 60.3556 38.1661 60.9991 36.4478 60.9991V62.9991ZM42.6021 60.4562L44.4435 58.6152L43.0294 57.2009L41.1881 59.0418L42.6021 60.4562ZM44.4435 58.6152C44.9729 58.0859 45.6908 57.7856 46.4473 57.7856V55.7856C45.1579 55.7856 43.9321 56.2983 43.0294 57.2009L44.4435 58.6152ZM46.4473 57.7856H49.0815V55.7856H46.4473V57.7856ZM49.0815 57.7856C53.8793 57.7856 57.7793 53.8832 57.7793 49.0868H55.7793C55.7793 52.7791 52.7743 55.7856 49.0815 55.7856V57.7856ZM57.7793 49.0868V46.4557H55.7793V49.0868H57.7793ZM57.7793 46.4557C57.7793 45.6983 58.0812 44.9803 58.6116 44.45L57.1975 43.0357C56.2958 43.9372 55.7793 45.1625 55.7793 46.4557H57.7793ZM58.6116 44.45L60.4274 42.6346L59.0133 41.2203L57.1975 43.0357L58.6116 44.45ZM60.4274 42.6346C60.4349 42.6271 60.4309 42.6313 60.4567 42.6062C60.475 42.5883 60.5043 42.5594 60.5369 42.5235L59.0572 41.178C59.0643 41.1702 59.068 41.1669 59.0607 41.174C59.0589 41.1757 59.0569 41.1777 59.054 41.1805C59.0516 41.1828 59.0473 41.1869 59.0438 41.1903C59.0362 41.1977 59.0253 41.2083 59.0133 41.2203L60.4274 42.6346ZM60.5097 42.5523C62.1269 40.9094 63.0253 38.7074 62.9963 36.3921L60.9965 36.4171C61.0187 38.1927 60.3315 39.8823 59.0844 41.1492L60.5097 42.5523ZM62.9964 36.4046C62.9964 34.0984 62.1012 31.8958 60.4466 30.2706L59.0451 31.6974C60.306 32.9359 60.9964 34.6197 60.9964 36.4046H62.9964Z" fill="url(#paint1_linear_433_7531)" mask="url(#path-2-outside-1_433_7531)"/>
<g filter="url(#filter0_bd_433_7531)">
<path fill-rule="evenodd" clip-rule="evenodd" d="M31.4365 44.5861C31.0273 45.0208 30.4646 45.2509 29.8509 45.2509C29.2627 45.2509 28.7 45.0208 28.2908 44.5861C27.4213 43.7168 27.4213 42.2849 28.2908 41.4156L41.436 28.2731C42.3055 27.4064 43.7121 27.4064 44.5816 28.2731C45.4511 29.1425 45.4511 30.5769 44.5816 31.4462L31.4365 44.5861ZM43.0222 45.2508C41.7689 45.2508 40.7713 44.2537 40.7713 43.0008C40.7713 41.776 41.7689 40.7763 43.0222 40.7763C44.2499 40.7763 45.2475 41.776 45.2475 43.0008C45.2475 44.2537 44.2499 45.2508 43.0222 45.2508ZM32.1012 29.8593C32.1012 28.632 31.1036 27.6348 29.8759 27.6348C28.6481 27.6348 27.625 28.632 27.625 29.8593C27.625 31.1147 28.6481 32.1093 29.8759 32.1093C31.1036 32.1093 32.1012 31.1147 32.1012 29.8593Z" fill="url(#paint2_linear_433_7531)"/>
</g>
<defs>
<filter id="filter0_bd_433_7531" x="12.625" y="12.623" width="47.623" height="47.6279" filterUnits="userSpaceOnUse" color-interpolation-filters="sRGB">
<feFlood flood-opacity="0" result="BackgroundImageFix"/>
<feGaussianBlur in="BackgroundImage" stdDeviation="7.5"/>
<feComposite in2="SourceAlpha" operator="in" result="effect1_backgroundBlur_433_7531"/>
<feColorMatrix in="SourceAlpha" type="matrix" values="0 0 0 0 0 0 0 0 0 0 0 0 0 0 0 0 0 0 127 0" result="hardAlpha"/>
<feOffset dx="5" dy="5"/>
<feGaussianBlur stdDeviation="5"/>
<feColorMatrix type="matrix" values="0 0 0 0 0.577356 0 0 0 0 0.359375 0 0 0 0 0.9375 0 0 0 0.5 0"/>
<feBlend mode="normal" in2="effect1_backgroundBlur_433_7531" result="effect2_dropShadow_433_7531"/>
<feBlend mode="normal" in="SourceGraphic" in2="effect2_dropShadow_433_7531" result="shape"/>
</filter>
<linearGradient id="paint0_linear_433_7531" x1="27.5649" y1="2" x2="27.5649" y2="53.126" gradientUnits="userSpaceOnUse">
<stop stop-color="#A471FA"/>
<stop offset="1" stop-color="#7B3FE1"/>
</linearGradient>
<linearGradient id="paint1_linear_433_7531" x1="19.0062" y1="16.8293" x2="51.6187" y2="57.2236" gradientUnits="userSpaceOnUse">
<stop stop-color="white" stop-opacity="0.25"/>
<stop offset="1" stop-color="white" stop-opacity="0"/>
</linearGradient>
<linearGradient id="paint2_linear_433_7531" x1="43.9981" y1="30.8063" x2="24.3683" y2="31.4461" gradientUnits="userSpaceOnUse">
<stop stop-color="white"/>
<stop offset="1" stop-color="white" stop-opacity="0.2"/>
</linearGradient>
</defs>
</svg>
