<svg width="16" height="16" viewBox="0 0 16 16" fill="none" xmlns="http://www.w3.org/2000/svg">
<g clip-path="url(#clip0_916_842)">
<path d="M12.0537 0.0831705C12.0444 0.0735276 12.0353 0.0735276 12.0261 0.067233C12.0015 0.0480811 11.977 0.0320108 11.9494 0.0223662C11.931 0.0159375 11.9156 0.0127232 11.8972 0.0095089C11.8818 0.00629458 11.8666 0 11.8481 0H4.15236C4.13399 0 4.11858 0.00642864 4.10022 0.00964296C4.08494 0.0128573 4.06645 0.0160716 4.05116 0.0225002C4.02355 0.0321432 3.99594 0.0480808 3.97141 0.067367C3.96525 0.0737957 3.95305 0.07701 3.94688 0.0833046L1.70064 2.20798C1.59328 2.31044 1.56875 2.47356 1.64233 2.6048L4.39777 7.58417C5.24769 6.69462 6.39836 6.12499 7.67488 6.03862L6.19584 3.36657H9.80435L8.32531 6.03862C9.60183 6.12501 10.7525 6.69462 11.6024 7.58417L14.3579 2.6048C14.4314 2.47355 14.4069 2.31043 14.2996 2.20798L12.0537 0.0831705Z" fill="#0B1014"/>
<path d="M8.0001 6.4C5.35434 6.4 3.2001 8.55424 3.2001 11.2C3.2001 13.8458 5.35434 16 8.0001 16C10.6457 16 12.8001 13.8458 12.8001 11.2C12.8001 8.55424 10.6457 6.4 8.0001 6.4ZM8.2326 7.83912C8.50346 7.83441 8.72481 8.05555 8.7201 8.32662V8.79912H9.1926C9.84057 8.79098 9.84057 9.76724 9.1926 9.75912C8.71345 9.75912 8.24033 9.75934 7.76203 9.75912C7.49568 9.75912 7.28761 9.96677 7.28761 10.2391C7.28761 10.5115 7.49568 10.7191 7.76203 10.7191H8.23839C9.02652 10.7191 9.6728 11.371 9.6728 12.1591C9.6728 12.9468 9.028 13.5987 8.24031 13.5991V14.0727C8.2476 14.7196 7.27302 14.7196 7.28031 14.0727V13.5991H6.80781C6.15984 13.6073 6.15984 12.631 6.80781 12.6391H8.23837C8.50473 12.6391 8.7128 12.4315 8.7128 12.1591C8.7128 11.8868 8.50473 11.6791 8.23837 11.6791H7.76202C6.97388 11.6791 6.32761 11.0273 6.32761 10.2391C6.32761 9.45165 6.97284 8.79912 7.7601 8.79912V8.32662C7.75538 8.06155 7.96752 7.84383 8.2326 7.83912Z" fill="#0B1014"/>
</g>
<defs>
<clipPath id="clip0_916_842">
<rect width="16" height="16" fill="white"/>
</clipPath>
</defs>
</svg>
