<svg width="54" height="54" viewBox="0 0 54 54" fill="none" xmlns="http://www.w3.org/2000/svg">
<rect width="54" height="54" rx="27" fill="#0D4EE3"/>
<g clip-path="url(#clip0_387_26336)">
<path fill-rule="evenodd" clip-rule="evenodd" d="M28.8682 39.2676H17.1349C16.8403 39.2676 16.6016 39.5063 16.6016 39.8009C16.6016 40.0954 16.8403 40.3343 17.1349 40.3343H28.8682C29.1628 40.3343 29.4016 40.0955 29.4016 39.8009C29.4016 39.5063 29.1628 39.2676 28.8682 39.2676Z" fill="white"/>
<path d="M13.4009 29.1333V39.2667C13.4035 41.3274 15.0735 42.9974 17.1342 43H28.8676C29.8592 43.0012 30.8099 42.6049 31.507 41.8997C31.5326 41.9349 31.5513 41.9733 31.5785 42.0064C31.5916 42.0258 31.6057 42.0445 31.6206 42.0624C32.1306 42.6564 32.874 42.9986 33.6569 43H39.5289C41.2969 42.9997 42.731 41.568 42.7342 39.8V33.1333C42.7342 32.6383 42.5375 32.1635 42.1875 31.8134C41.8374 31.4633 41.3626 31.2667 40.8675 31.2667C40.5873 31.2683 40.3112 31.3338 40.0601 31.4582C40.0198 30.4596 39.2002 29.6699 38.2008 29.6667C37.9206 29.6683 37.6445 29.7338 37.3933 29.8582C37.3739 29.231 37.0376 28.6565 36.5003 28.3324C35.9631 28.0083 35.298 27.9788 34.7342 28.254V18.4667C34.7342 17.2885 33.779 16.3334 32.6008 16.3334V14.7333C32.5983 12.6726 30.9283 11.0026 28.8676 11H17.1342C15.0735 11.0026 13.4035 12.6726 13.4009 14.7333V16.3333C12.2227 16.3333 11.2676 17.2884 11.2676 18.4666V26.9999C11.2676 28.1782 12.2227 29.1333 13.4009 29.1333ZM28.8676 41.9333H17.1342C15.6622 41.9315 14.4693 40.7387 14.4676 39.2667V29.1333H30.9795V34.128L28.9209 33.1029C28.2312 32.7421 27.4031 32.7683 26.7377 33.172C26.0722 33.5756 25.6663 34.2979 25.6676 35.0763C25.6649 35.7766 25.9958 36.4363 26.5588 36.8528C27.7406 37.7213 28.866 38.664 29.9283 39.6752C30.3103 40.0626 30.6456 40.4934 30.9273 40.9589C30.4228 41.5777 29.6659 41.9357 28.8676 41.9333ZM35.5342 29.1333C35.9761 29.1333 36.3342 29.4915 36.3342 29.9333V34.4667C36.3342 34.7613 36.573 35 36.8676 35C37.1622 35 37.4009 34.7613 37.4009 34.4667V31.5334C37.4009 31.0915 37.7591 30.7333 38.2009 30.7333C38.6428 30.7333 39.0009 31.0915 39.0009 31.5334V34.4667C39.0009 34.7613 39.2397 35 39.5343 35C39.8289 35 40.0676 34.7613 40.0676 34.4667V33.1333C40.0676 32.6915 40.4258 32.3333 40.8676 32.3333C41.3095 32.3333 41.6677 32.6915 41.6677 33.1333V39.8C41.665 40.9792 40.7082 41.9336 39.529 41.9333H33.6569C33.2013 41.935 32.7665 41.7424 32.4617 41.4037C32.4526 41.3899 32.4419 41.3771 32.4318 41.3642C32.3614 41.2817 32.2994 41.1924 32.2468 41.0976C31.832 40.2981 31.3033 39.5631 30.6772 38.9157C29.5802 37.8706 28.4179 36.8964 27.1972 35.9989C26.9043 35.7823 26.7323 35.4389 26.7342 35.0746C26.7366 34.8347 26.8109 34.6009 26.9476 34.4037C27.294 33.9328 27.9328 33.7861 28.45 34.0586L31.2766 35.4672C31.4424 35.5498 31.6391 35.5405 31.7964 35.4426C31.9536 35.3448 32.0488 35.1724 32.0479 34.9872V25.6666C32.0468 25.4533 32.1329 25.2487 32.2863 25.1002C32.5182 24.8732 32.863 24.8058 33.1633 24.929C33.4636 25.0521 33.6619 25.3421 33.6676 25.6666V34.4666C33.6676 34.7612 33.9064 35 34.201 35C34.4955 35 34.7343 34.7612 34.7343 34.4666V29.9333C34.7342 29.4915 35.0924 29.1333 35.5342 29.1333ZM28.0798 12.0667L27.7065 12.9963C27.5461 13.4018 27.1537 13.6678 26.7177 13.6667H19.284C18.8475 13.6682 18.4547 13.4022 18.2942 12.9963L17.9219 12.0667H28.0798ZM14.4676 14.7333C14.4717 13.3988 15.4636 12.2735 16.7871 12.1019L17.3033 13.392C17.6249 14.2039 18.4108 14.7361 19.2841 14.7333H26.7178C27.5911 14.7361 28.377 14.2039 28.6985 13.392L29.2148 12.1019C30.5383 12.2735 31.5302 13.3987 31.5343 14.7333V16.3333H14.4676V14.7333ZM12.3343 18.4667C12.3343 17.8776 12.8118 17.4 13.4009 17.4H32.6009C33.19 17.4 33.6676 17.8776 33.6676 18.4667V23.9904C32.9545 23.6399 32.0976 23.7809 31.5343 24.3413C31.1771 24.6895 30.9769 25.1679 30.9796 25.6667V28.0667H13.4009C12.8118 28.0667 12.3342 27.5891 12.3342 27L12.3343 18.4667Z" fill="white"/>
<path d="M15.5333 26.4667H17.6667C18.5563 26.4707 19.3541 25.9198 19.6657 25.0866C19.9774 24.2534 19.7367 23.3142 19.0629 22.7334C19.7367 22.1526 19.9774 21.2134 19.6657 20.3801C19.3541 19.5468 18.5562 18.9961 17.6667 19H15.5333C15.2388 19 15 19.2388 15 19.5334V25.9334C15 26.2279 15.2388 26.4667 15.5333 26.4667ZM18.7333 24.3334C18.7333 24.9225 18.2557 25.4001 17.6666 25.4001H16.0666V23.2668H17.6666C18.2558 23.2667 18.7333 23.7443 18.7333 24.3334ZM16.0666 20.0667H17.6666C18.2557 20.0667 18.7333 20.5443 18.7333 21.1334C18.7333 21.7225 18.2557 22.2001 17.6666 22.2001H16.0666V20.0667Z" fill="white"/>
<path fill-rule="evenodd" clip-rule="evenodd" d="M21.4005 26.4667H24.6005C24.8951 26.4667 25.1339 26.2279 25.1339 25.9333C25.1339 25.6388 24.8951 25.4 24.6005 25.4H21.9339V23.2667H24.6005C24.8951 23.2667 25.1339 23.0279 25.1339 22.7333C25.1339 22.4388 24.8951 22.2 24.6005 22.2H21.9339V20.0667H24.6005C24.8951 20.0667 25.1339 19.8279 25.1339 19.5333C25.1339 19.2388 24.8951 19 24.6005 19H21.4005C21.106 19 20.8672 19.2388 20.8672 19.5333V25.9333C20.8672 26.2279 21.106 26.4667 21.4005 26.4667Z" fill="white"/>
<path fill-rule="evenodd" clip-rule="evenodd" d="M26.7345 20.0667H28.3345V25.9333C28.3345 26.2279 28.5733 26.4667 28.8678 26.4667C29.1624 26.4667 29.4012 26.2279 29.4012 25.9333V20.0667H31.0011C31.2957 20.0667 31.5345 19.8279 31.5345 19.5333C31.5345 19.2388 31.2957 19 31.0011 19H26.7345C26.4399 19 26.2012 19.2388 26.2012 19.5333C26.2012 19.8279 26.4399 20.0667 26.7345 20.0667Z" fill="white"/>
</g>
<defs>
<clipPath id="clip0_387_26336">
<rect width="32" height="32" fill="white" transform="translate(11 11)"/>
</clipPath>
</defs>
</svg>
