<svg width="80" height="80" viewBox="0 0 80 80" fill="none" xmlns="http://www.w3.org/2000/svg">
<path d="M0 10.2774C0 4.7545 4.47715 0.277344 10 0.277344H70C75.5229 0.277344 80 4.7545 80 10.2773V69.9996C80 75.5224 75.5229 79.9996 70 79.9996H10C4.47715 79.9996 0 75.5224 0 69.9996V10.2774Z" fill="url(#paint0_linear_335_7672)"/>
<path d="M53.4808 24.1094H53.5558C54.1383 24.1094 54.6105 23.6372 54.6105 23.0547C54.6105 22.4722 54.1383 22 53.5558 22H29.2677C27.1288 22 25.3887 23.7401 25.3887 25.879V54.1212C25.3887 56.26 27.1288 58 29.2677 58H50.7316C52.8705 58 54.6106 56.26 54.6106 54.1212V31.5273C54.6106 30.462 54.1786 29.4957 53.4809 28.7941V24.1094H53.4808ZM46.9492 42.1845L44.2396 44.8258L44.8694 48.4978C44.8867 48.5736 44.8958 48.6524 44.8958 48.7334C44.8958 49.3154 44.4244 49.7874 43.8425 49.7881C43.8416 49.7881 43.8406 49.7881 43.8397 49.7881C43.6718 49.7881 43.5033 49.7481 43.349 49.667L39.9997 47.9061L36.6503 49.667C36.295 49.8537 35.8644 49.8227 35.5396 49.5867C35.2148 49.3508 35.0521 48.9509 35.1201 48.5551L35.7598 44.8258L33.0502 42.1846C32.7627 41.9044 32.6593 41.4853 32.7833 41.1034C32.9074 40.7216 33.2374 40.4433 33.6347 40.3857L37.3793 39.8417L39.0538 36.4484C39.2315 36.0884 39.5981 35.8606 39.9996 35.8606C40.401 35.8606 40.7677 36.0884 40.9453 36.4484L42.62 39.8417L46.3645 40.3857C46.7618 40.4433 47.0919 40.7216 47.2159 41.1034C47.34 41.4852 47.2367 41.9043 46.9492 42.1845ZM51.3715 27.7023C51.1631 27.6676 50.9496 27.6486 50.7315 27.6486H29.2677C28.2919 27.6486 27.498 26.8547 27.498 25.879C27.498 24.9032 28.2919 24.1094 29.2677 24.1094H51.3715V27.7023Z" fill="white"/>
<defs>
<linearGradient id="paint0_linear_335_7672" x1="0" y1="40.1385" x2="80" y2="40.1385" gradientUnits="userSpaceOnUse">
<stop stop-color="#DE4624"/>
<stop offset="1" stop-color="#D11C3A"/>
</linearGradient>
</defs>
</svg>
