<svg width="448" height="428" viewBox="0 0 448 428" fill="none" xmlns="http://www.w3.org/2000/svg">
<path fill-rule="evenodd" clip-rule="evenodd" d="M229.753 426.673C166.607 420.525 121.384 372.705 80.8212 323.874C38.7206 273.191 -11.8322 217.403 2.47626 153.064C16.8332 88.5054 85.4919 57.4758 145.982 30.8673C202.951 5.8078 265.902 -13.6848 322.449 12.3139C380.031 38.7883 409.502 98.9505 426.788 159.973C445.621 226.456 461.113 301.344 420.065 356.906C377.803 414.11 300.496 433.562 229.753 426.673Z" fill="#EAEFDC"/>
<path d="M295.97 339.316H318.699C322.021 336.43 324.818 332.668 326.741 329.17C331.2 321.21 334.347 312.113 340.99 305.902C344.138 302.928 347.984 300.742 351.568 298.293C359.348 292.869 366.342 285.085 367.478 275.638C368.265 268.903 366.079 262.167 366.342 255.345C367.216 232.515 394.578 217.12 394.49 194.29C394.49 188.605 391.693 182.044 386.098 180.995C383.476 180.47 380.766 181.257 378.493 182.482C370.975 186.505 366.779 194.728 362.67 202.25C358.562 209.773 353.229 217.645 345.012 219.919C342.914 220.531 340.728 220.706 338.63 221.319C329.014 224.293 324.731 235.576 323.682 245.635C322.633 255.695 323.07 266.453 317.65 274.938C311.705 284.122 300.166 288.408 294.134 297.505C290.026 303.716 288.977 311.501 289.938 318.848C290.638 324.534 291.949 333.631 295.97 339.316Z" fill="#2A393F"/>
<path d="M325.605 287.359L324.993 286.747C331.375 280.624 337.931 274.413 342.652 266.803C347.547 258.931 350.344 249.834 353.054 241C355.677 232.34 358.474 223.331 363.282 215.458C366.342 210.385 370.276 205.749 374.122 201.288C379.455 195.078 384.962 188.605 388.022 180.907L388.809 181.257C385.661 189.042 380.154 195.602 374.734 201.813C370.975 206.274 367.041 210.822 363.982 215.808C359.261 223.593 356.551 232.515 353.929 241.175C351.219 250.009 348.421 259.193 343.438 267.241C338.63 274.938 331.987 281.323 325.605 287.359Z" fill="#94B052"/>
<path d="M336.007 277.3L335.221 276.862C337.231 273.364 340.553 270.652 344.4 269.34C345.361 268.99 346.41 268.728 347.372 268.465C348.596 268.203 349.82 267.853 350.956 267.416C355.414 265.666 358.474 261.643 361.184 258.144L361.883 258.669C359.173 262.08 355.851 266.366 351.218 268.203C349.994 268.728 348.771 268.99 347.547 269.34C346.585 269.602 345.536 269.865 344.574 270.127C341.078 271.439 337.931 274.063 336.007 277.3Z" fill="#94B052"/>
<path d="M350.169 251.758L349.295 251.496C350.956 246.335 350.169 240.912 349.208 236.189L349.033 235.139C347.984 230.066 346.847 224.73 349.295 220.182L350.082 220.619C347.809 224.905 348.858 229.978 349.907 234.964L350.082 236.014C351.043 240.825 351.918 246.423 350.169 251.758Z" fill="#94B052"/>
<path d="M361.971 220.007L361.097 219.832C361.534 217.295 363.195 214.846 365.905 212.834C367.566 211.61 369.401 210.735 371.15 209.86C371.849 209.51 372.549 209.16 373.248 208.811C380.853 204.787 386.535 198.926 389.158 192.191L389.945 192.541C387.147 199.451 381.378 205.487 373.597 209.598C372.898 209.948 372.199 210.298 371.499 210.647C369.751 211.522 367.915 212.397 366.342 213.534C363.894 215.458 362.321 217.732 361.971 220.007Z" fill="#94B052"/>
<path d="M2 355L412.341 354.65L419.16 319.574H79.2778L2 355Z" fill="#D4DCBD"/>
<path d="M267.227 278.288C268.276 279.95 269.15 282.05 268.363 283.887C267.489 286.073 264.692 286.773 262.331 286.773C259.971 286.773 257.348 286.511 255.425 287.91C253.24 289.485 252.715 292.721 253.589 295.258C254.464 297.794 256.299 299.894 258.135 301.905C260.146 304.092 262.331 306.979 264.692 309.865C268.888 315.113 273.521 320.449 278.766 322.811H297.386C300.358 321.761 303.068 320.012 305.079 317.475C307.614 314.326 308.925 310.478 310.324 306.716C311.46 303.48 312.597 300.244 313.733 297.095C314.345 295.433 314.87 293.421 313.733 292.021C312.247 290.184 309.362 291.059 307.527 292.459C305.691 293.858 303.855 295.783 301.582 295.608C299.397 295.52 297.736 293.508 297.211 291.409C296.687 289.31 297.124 287.123 297.648 285.024C299.484 277.064 302.019 269.192 305.166 261.582C306.215 258.958 307.439 256.246 307.264 253.447C307.09 250.648 305.079 247.674 302.282 247.586C299.484 247.499 297.474 249.861 295.463 251.785C293.452 253.709 290.218 255.284 288.12 253.534C286.896 252.485 286.634 250.735 286.459 249.161C284.536 230.88 285.235 212.073 279.028 194.754C277.717 191.081 275.969 187.407 273.171 184.695C270.374 181.984 266.178 180.409 262.419 181.459C256.212 183.296 253.939 190.993 253.764 197.466C253.415 208.312 255.25 221.17 259.621 230.967C260.933 233.941 261.457 237.965 259.009 240.151C256.474 242.251 252.103 241.376 250.18 243.913C249.306 245.137 249.219 246.799 249.306 248.286C250.268 260.182 261.195 268.142 267.227 278.288Z" fill="#FBE698"/>
<path d="M281.651 278.114C277.28 270.241 277.105 261.057 276.93 252.135C276.843 246.537 276.668 240.764 275.532 235.341C274.308 229.393 271.773 223.62 269.412 218.109C268.276 215.485 267.052 212.773 266.003 209.974C261.894 199.215 261.282 190.468 264.08 183.208L264.779 183.471C261.982 190.556 262.681 199.128 266.702 209.712C267.751 212.423 268.888 215.135 270.112 217.759C272.559 223.357 275.094 229.13 276.318 235.166C277.455 240.676 277.542 246.449 277.717 252.047C277.892 261.232 278.067 269.979 282.35 277.676L281.651 278.114Z" fill="#889B6D"/>
<path d="M239.078 290.797C242.051 298.057 236.98 306.541 239.428 314.064C240.39 316.863 242.313 319.225 244.761 321.061H265.828C266.265 320.274 266.615 319.312 266.877 318.262C267.839 314.764 267.577 311.002 267.14 307.329C266.615 302.868 265.741 298.144 263.031 294.558C261.37 292.284 259.097 290.622 257.349 288.435C254.202 284.499 253.065 279.251 252.978 274.177C252.89 269.104 253.677 264.118 253.939 259.045C254.202 254.759 253.765 249.948 250.443 247.324C247.558 245.05 243.362 245.137 240.564 242.863C236.98 239.976 236.805 234.816 236.543 230.18C236.106 222.745 234.62 215.397 232.085 208.487C231.036 205.601 229.287 202.277 226.228 201.927C224.13 201.664 222.207 202.976 220.72 204.376C217.049 207.962 215.126 213.123 215.388 218.196C215.912 228.518 225.179 237.265 224.217 247.499C223.955 250.473 222.819 253.359 221.944 256.246C220.021 263.156 220.458 271.203 224.917 276.714C229.2 281.962 236.543 284.586 239.078 290.797Z" fill="#2A393F"/>
<path d="M260.933 312.752H260.408C260.671 308.378 256.912 304.005 253.852 300.506C253.502 300.156 253.153 299.719 252.89 299.369C246.159 291.584 243.886 280.913 242.488 271.641C242.225 269.979 242.051 268.229 241.788 266.48C240.739 258.433 239.603 250.036 236.281 242.513C234.62 238.752 232.435 235.253 230.249 231.842C228.938 229.742 227.627 227.643 226.403 225.456C222.381 218.284 220.808 212.073 221.595 206.475L222.119 206.563C221.332 212.073 222.906 218.196 226.84 225.194C228.064 227.381 229.375 229.48 230.686 231.579C232.872 234.991 235.057 238.577 236.718 242.338C240.127 249.948 241.176 258.345 242.313 266.393C242.575 268.142 242.75 269.804 243.012 271.466C244.411 280.738 246.684 291.234 253.24 298.931C253.59 299.281 253.852 299.719 254.202 300.069C257.349 303.655 261.195 308.116 260.933 312.752Z" fill="#94B052"/>
<path d="M246.334 287.998C245.985 287.035 245.723 286.161 245.548 285.373C244.848 283.099 244.411 281.437 243.1 280.213C241.701 278.901 240.04 277.939 238.379 276.976C237.942 276.714 237.418 276.452 236.981 276.189C235.057 275.052 232.697 273.478 231.648 271.028C231.124 269.804 230.949 268.492 230.774 267.267C230.512 265.605 230.337 264.031 229.375 262.719C228.589 261.669 227.365 260.882 226.228 260.095C224.567 259.045 222.819 257.908 222.382 255.983L222.906 255.896C223.256 257.645 224.83 258.608 226.491 259.745C227.714 260.532 228.938 261.319 229.812 262.456C230.861 263.856 231.036 265.605 231.299 267.267C231.473 268.492 231.648 269.804 232.173 270.853C233.222 273.215 235.495 274.702 237.33 275.752C237.767 276.014 238.292 276.277 238.729 276.539C240.39 277.501 242.226 278.463 243.624 279.863C245.023 281.175 245.548 283.012 246.16 285.286C246.422 286.073 246.684 286.948 246.946 287.91L246.334 287.998Z" fill="#222955"/>
<path d="M243.187 276.014L243.099 275.314C242.75 272.515 242.225 268.754 243.362 266.392C243.624 265.78 243.973 265.168 244.411 264.643C244.848 263.943 245.285 263.331 245.547 262.544C246.421 260.182 245.809 257.558 245.285 255.021C244.673 252.222 243.973 249.336 245.197 246.799L245.722 247.061C244.585 249.423 245.197 252.135 245.809 254.934C246.421 257.558 247.033 260.269 246.072 262.806C245.809 263.593 245.372 264.293 244.935 264.993C244.585 265.518 244.236 266.13 243.973 266.742C242.924 269.017 243.362 272.69 243.711 275.402L243.799 276.102L243.187 276.014Z" fill="#222955"/>
<path d="M234.096 239.627C232.26 236.215 230.337 233.066 227.277 231.667C226.84 231.492 226.403 231.317 225.966 231.142C225.267 230.88 224.567 230.705 223.955 230.267C222.032 229.13 220.983 227.031 220.109 225.281L217.312 219.683L217.836 219.421L220.633 225.019C221.508 226.681 222.469 228.693 224.305 229.742C224.917 230.092 225.529 230.267 226.228 230.53C226.665 230.705 227.102 230.792 227.539 231.054C230.861 232.454 232.785 235.778 234.62 239.189L234.096 239.627Z" fill="#222955"/>
<path d="M261.807 320.799C261.457 319.662 261.37 318.35 261.195 317.213C260.932 315.026 260.758 313.014 259.446 311.352C258.048 309.603 255.862 308.991 253.502 308.291C251.491 307.766 249.481 307.154 247.907 305.754C247.12 305.054 246.508 304.18 245.984 303.48L245.897 303.392C244.498 301.293 242.837 298.931 240.477 298.757L240.564 298.232C243.274 298.494 244.935 300.943 246.421 303.13L246.508 303.218C247.033 303.917 247.557 304.792 248.344 305.404C249.83 306.716 251.841 307.241 253.764 307.766C256.037 308.378 258.485 309.078 259.971 311.002C261.37 312.752 261.544 314.939 261.807 317.125C261.894 318.262 262.069 319.487 262.331 320.624L261.807 320.799Z" fill="#94B052"/>
<path d="M282 322.024H308.313C310.149 320.012 311.81 317.825 313.209 315.551C314.345 313.714 315.307 311.615 315.219 309.516C315.219 309.078 315.132 308.641 314.782 308.378C314.432 308.116 313.995 308.204 313.558 308.204C311.722 308.466 309.887 308.641 308.051 308.903C309.45 301.818 315.132 296.395 320.115 291.234C321.338 289.922 322.65 288.61 323.087 286.861C323.524 285.111 322.912 283.012 321.251 282.4C318.366 281.35 314.782 285.111 312.509 283.012C311.897 282.487 311.722 281.7 311.548 280.913C310.673 276.364 312.422 271.816 313.908 267.355C316.356 259.92 317.842 252.135 318.454 244.263C318.629 241.901 318.629 239.539 317.842 237.353C316.968 235.166 314.957 233.329 312.684 233.241C311.023 233.241 309.45 234.204 308.138 235.253C300.795 241.464 299.659 252.222 294.851 260.532C294.239 261.669 293.102 262.894 291.879 262.544C291.092 262.282 290.655 261.494 290.043 260.97C288.557 259.832 286.196 260.532 285.06 262.107C283.923 263.594 283.661 265.605 283.486 267.442C282.962 272.341 282.787 277.326 283.574 282.225C283.923 284.237 284.361 286.248 284.098 288.26C283.836 290.272 282.7 292.371 280.864 292.984C279.378 293.508 277.542 293.159 276.58 294.383C276.143 294.908 275.968 295.608 275.881 296.308C275.094 301.206 275.706 306.367 277.454 311.003C278.678 314.676 280.951 318.263 282 322.024Z" fill="#2A393F"/>
<path d="M294.238 322.024C299.221 312.227 300.445 300.594 301.057 289.31V288.785C301.232 285.899 301.319 282.925 302.019 280.125C302.281 278.901 302.718 277.676 303.068 276.539C303.417 275.402 303.854 274.265 304.117 273.128C305.166 268.842 305.078 264.381 304.991 260.095C304.991 258.695 304.903 257.296 304.991 255.809C305.078 248.374 306.564 243.3 309.624 239.714C310.061 239.189 310.673 238.665 311.11 238.14C312.684 236.565 314.257 234.991 314.607 232.804L314.17 232.717C313.82 234.728 312.247 236.303 310.76 237.79C310.236 238.315 309.711 238.839 309.187 239.452C305.952 243.126 304.466 248.374 304.379 255.896C304.379 257.296 304.379 258.783 304.379 260.182C304.466 264.468 304.554 268.929 303.505 273.128C303.242 274.265 302.805 275.402 302.456 276.452C302.106 277.589 301.669 278.813 301.319 280.038C300.62 282.925 300.445 285.899 300.358 288.785V289.31C299.833 300.594 298.522 312.315 293.539 322.024H294.238Z" fill="#94B052"/>
<path d="M299.309 307.066L298.872 306.979C299.047 306.542 299.134 306.104 299.309 305.667C300.62 301.381 301.844 297.357 304.729 294.033C306.565 291.934 308.925 290.272 311.111 288.698L315.307 285.724L315.569 286.074L311.373 289.047C309.187 290.622 306.827 292.284 304.991 294.296C302.107 297.62 300.883 301.556 299.659 305.842C299.571 306.104 299.484 306.629 299.309 307.066Z" fill="#222955"/>
<path d="M304.816 269.192L304.379 269.104C305.078 264.468 306.127 260.62 307.351 256.159L307.613 255.022C307.788 254.234 308.138 253.185 308.662 252.31C309.012 251.698 309.537 251.26 309.974 250.736C310.323 250.386 310.673 250.036 311.023 249.686C311.722 248.811 312.159 247.587 311.547 246.712L311.897 246.449C312.596 247.499 312.159 248.986 311.372 249.948C311.023 250.386 310.673 250.736 310.323 251.085C309.799 251.523 309.362 252.048 309.012 252.572C308.488 253.36 308.225 254.322 308.05 255.109L307.788 256.246C306.564 260.795 305.603 264.643 304.816 269.192Z" fill="#94B052"/>
<path d="M295.9 318.175L295.463 318.088C295.9 315.988 296.25 310.828 295.463 308.816C294.938 307.504 294.064 306.367 293.19 305.317C292.84 304.88 292.491 304.442 292.141 304.005C290.567 301.906 290.043 299.981 290.48 298.319L290.917 298.407C290.393 300.331 291.529 302.343 292.491 303.742C292.84 304.18 293.19 304.617 293.54 305.055C294.414 306.192 295.375 307.329 295.9 308.641C296.774 310.74 296.337 316.076 295.9 318.175Z" fill="#222955"/>
<path d="M197.118 321.674H234.27C234.62 320.537 234.707 319.312 234.707 318.088C234.882 305.142 227.714 296.92 219.497 288.173C216.262 284.674 216.524 289.223 215.388 291.234C214.426 292.809 212.066 292.984 210.493 292.109C208.832 291.234 207.87 289.573 206.821 287.998C202.275 280.825 197.118 274.09 191.523 267.705C189.949 265.956 188.376 264.206 186.19 263.331C184.092 262.457 181.295 262.632 179.809 264.381C177.973 266.48 178.235 270.154 175.788 271.466C174.476 272.078 172.99 271.816 171.591 271.291C166.783 269.542 162.762 266.218 158.129 263.944C153.496 261.669 147.639 260.795 143.53 263.856C139.859 266.655 138.81 271.991 140.296 276.365C141.782 280.738 145.191 284.149 149.125 286.686C152.971 289.135 157.342 290.885 161.451 292.896C164.248 294.208 167.308 296.395 167.133 299.457C166.958 302.693 163.374 304.617 162.413 307.679C161.451 310.565 163.112 313.714 165.56 315.464C168.007 317.213 171.067 317.738 174.039 318.088C177.711 318.525 181.382 318.788 185.054 318.7C187.589 318.7 191.873 317.476 194.32 318.438C195.981 319.138 196.768 320.275 197.118 321.674Z" fill="#FBE698"/>
<path d="M195.02 309.778C191.611 301.731 187.327 291.759 179.285 285.986C175.613 283.362 171.242 281.7 167.046 280.126C164.948 279.338 162.85 278.551 160.839 277.676C154.633 274.965 149.125 271.116 144.317 266.305L144.842 265.781C149.562 270.504 155.07 274.265 161.102 276.977C163.112 277.851 165.21 278.639 167.308 279.426C171.592 281 175.963 282.662 179.722 285.374C187.939 291.234 192.223 301.293 195.719 309.428L195.02 309.778Z" fill="#94B052"/>
<path d="M190.648 300.244C189.425 296.308 186.015 285.986 181.819 282.4C181.557 282.137 181.207 281.875 180.945 281.7C180.246 281.175 179.546 280.563 178.934 279.863C177.885 278.639 177.361 277.152 176.836 275.84L174.563 269.804L175.263 269.542L177.536 275.577C178.06 276.889 178.585 278.289 179.546 279.426C180.071 280.038 180.77 280.563 181.47 281.175C181.819 281.438 182.081 281.7 182.431 281.963C186.278 285.286 189.337 293.421 191.523 300.156L190.648 300.244Z" fill="#94B052"/>
<path d="M167.658 280.388C164.598 279.076 159.79 279.513 156.293 279.776H155.944C150.699 280.213 145.279 278.726 140.995 275.665L141.432 275.052C145.628 277.939 150.873 279.426 155.944 278.989H156.293C159.877 278.726 164.773 278.289 168.007 279.688L167.658 280.388Z" fill="#94B052"/>
<path d="M196.33 311.353C195.369 309.253 192.484 308.904 190.124 308.729L185.228 308.466C183.655 308.379 181.994 308.291 180.333 308.379C179.546 308.466 178.672 308.554 177.885 308.641C176.574 308.816 175.175 308.991 173.777 308.904C170.629 308.816 167.657 307.592 164.947 306.454L165.21 305.755C167.919 306.892 170.804 308.029 173.777 308.116C175.088 308.204 176.399 308.029 177.71 307.854C178.497 307.766 179.371 307.679 180.158 307.592C181.819 307.504 183.48 307.591 185.141 307.679L190.036 307.941C192.571 308.116 195.719 308.554 196.855 310.915L196.33 311.353Z" fill="#94B052"/>
<path d="M155.681 119.268C155.769 116.993 155.769 114.719 155.594 112.357C159.003 112.357 162.325 111.833 165.647 111.22C166.696 111.045 168.532 110.258 169.406 111.133C170.193 111.92 170.193 115.419 170.28 116.556C171.329 123.903 171.592 131.251 172.116 138.686C172.728 147.783 173.602 157.142 170.455 165.714C169.581 168.163 168.27 170.613 166.346 172.362C164.336 174.111 161.626 175.074 159.003 174.461C155.507 173.587 153.409 170 152.534 166.502C151.748 163.353 151.66 160.116 151.66 156.88C151.748 149.62 152.36 142.36 153.496 135.187C154.545 129.851 155.419 124.603 155.681 119.268Z" fill="#EFAE95"/>
<path d="M165.647 72.5583C165.734 72.3833 170.28 72.9956 174.913 72.9956C174.826 73.6954 172.465 108.596 170.804 116.031C170.28 118.305 169.755 120.667 168.357 122.591C163.287 129.676 157.08 122.329 155.943 116.556C155.244 112.882 155.594 109.033 156.118 105.36C157.08 97.6623 164.86 75.7072 165.647 72.5583Z" fill="#EFAE95"/>
<path d="M180.071 59.7876C180.334 58.9129 180.508 58.0382 179.809 57.5134C178.673 58.8255 177.799 61.8869 177.012 63.5489C176.837 63.8987 176.312 63.7238 176.4 63.3739C177.012 60.4874 180.334 51.0406 178.848 50.6033C178.498 50.5158 178.41 51.0406 178.323 51.3905L174.564 62.7616H174.477L177.099 51.6529C177.187 51.303 177.274 50.9531 177.187 50.6033C177.099 50.2534 176.75 49.991 176.4 49.991C174.564 53.7522 174.04 58.1257 172.204 61.8869C172.116 62.0619 171.941 61.9744 171.941 61.7995C172.641 58.3881 173.69 55.5891 174.214 52.3527C174.302 51.5654 174.302 50.6033 173.515 50.2534C172.903 50.2534 172.379 52.4401 172.291 52.8775C171.679 54.7144 171.155 56.6387 170.63 58.5631C170.368 59.3503 170.193 60.225 169.931 61.0122C169.843 61.4496 169.669 61.7995 169.581 62.1493C169.494 62.4118 169.406 63.3739 169.144 63.5489C168.445 62.6742 167.396 57.3385 166.871 56.1139C166.784 55.8515 166.522 55.6765 166.259 55.6765C165.035 55.5891 165.822 61.712 166.084 63.1115C166.522 66.0855 166.084 69.147 165.473 72.121C165.123 73.9578 164.598 75.9697 165.473 77.7191C166.172 79.0311 168.008 80.0808 169.494 80.0808C173.078 79.9933 174.04 75.2699 175.176 72.5583C177.012 68.0973 178.585 63.9862 180.071 59.7876Z" fill="#EFAE95"/>
<path d="M162.5 144.546C159.178 145.596 154.457 146.208 151.048 146.558C150.786 149.97 151.398 163.615 152.184 166.764C153.059 170.263 155.681 173.587 159.178 174.461C161.713 175.161 165.297 173.412 167.308 171.662C169.318 169.913 170.63 167.376 171.504 164.927C174.389 156.792 173.514 148.658 172.903 140.085C169.843 142.01 165.909 143.497 162.5 144.546Z" fill="#F29456"/>
<path d="M168.007 111.92C167.658 114.632 167.658 117.431 168.007 120.23C168.357 120.23 168.707 120.317 169.056 120.405C169.231 118.218 169.843 116.119 170.892 114.194C171.941 112.182 173.427 110.346 174.301 108.246C174.739 107.284 175.001 106.147 174.651 105.097C173.777 102.123 171.242 103.785 170.105 105.447C168.794 107.284 168.27 109.646 168.007 111.92Z" fill="#0B1033"/>
<path d="M208.132 227.993C204.635 221.695 197.03 217.934 189.949 218.896L153.059 222.483C138.46 223.882 123.599 225.369 109.699 230.092C107.514 230.792 105.066 231.842 104.367 234.029C103.492 236.565 105.241 239.277 107.251 241.114C112.759 246.274 120.015 248.986 127.095 251.173C135.925 253.972 144.841 256.246 153.933 257.995C168.182 260.795 183.218 262.194 196.855 257.208C201.314 255.546 205.684 253.097 208.132 248.986C209.443 246.799 210.143 244.263 210.493 241.726C211.017 237.178 210.405 232.192 208.132 227.993Z" fill="#FEC5A7"/>
<path d="M208.133 227.993C204.636 221.695 197.031 217.934 189.95 218.896C189.95 218.896 141.52 221.783 136.188 222.483C136.799 224.319 138.111 227.993 138.548 229.917C139.509 234.116 140.209 238.402 140.821 242.601C141.433 246.887 142.307 256.334 142.482 260.62C146.415 261.582 183.219 262.282 196.856 257.296C201.314 255.634 205.685 253.185 208.133 249.073C209.444 246.887 210.143 244.35 210.493 241.813C211.018 237.178 210.406 232.192 208.133 227.993Z" fill="#0B1033"/>
<path d="M101.308 341.005C101.57 340.83 118.092 289.135 121.326 279.163C124.124 270.766 126.222 261.932 124.91 253.185C123.861 246.099 120.365 239.014 114.333 234.903C112.147 233.329 108.388 231.317 105.678 232.629C103.318 233.766 102.794 237.003 102.619 239.364C99.9088 267.267 92.4783 308.203 88.457 336.544C90.9922 337.244 93.4399 345.203 101.308 341.005Z" fill="#FEC5A7"/>
<path d="M92.8274 308.466C91.2539 318.525 89.7678 328.147 88.5439 336.631C90.9917 337.331 93.4393 345.203 101.307 341.005C101.482 340.917 106.29 325.872 111.273 310.478C108.912 310.39 96.3242 309.865 92.8274 308.466Z" fill="white"/>
<path d="M196.593 148.57C195.194 146.821 194.932 144.721 194.407 142.36C194.233 141.397 191.61 130.726 192.659 130.464C187.064 131.688 177.623 134.137 172.64 134.75C174.476 134.575 174.564 143.672 174.651 144.634C174.738 146.646 175.001 148.832 174.826 150.932C174.651 152.506 174.564 152.419 172.903 152.943C170.805 153.556 168.794 154.256 166.696 154.868C165.647 155.218 164.598 155.48 163.811 156.18C162.849 156.967 162.325 158.104 161.888 159.241C156.468 172.537 156.818 187.582 159.79 201.577C161.538 209.624 164.336 216.884 167.57 224.407C168.269 225.981 175.175 244 175.787 243.913C185.491 242.076 191.96 233.329 201.663 231.579C202.363 231.492 203.062 231.317 203.499 230.792C203.936 230.355 204.024 229.655 204.024 228.955C204.111 226.244 203.062 223.62 202.1 221.17C199.39 214.26 196.331 206.038 197.03 198.428C197.292 195.017 198.429 191.78 199.74 188.719C203.237 180.147 208.045 172.187 211.979 163.79C212.678 162.303 213.377 160.728 213.465 159.066C213.552 157.929 213.377 156.705 212.678 155.83C211.367 154.081 209.006 153.818 206.908 153.468C203.499 152.856 200.09 151.631 197.467 149.357C197.03 149.095 196.768 148.832 196.593 148.57Z" fill="#FEC5A7"/>
<path d="M174.651 144.721C174.739 144.809 174.914 144.896 175.001 144.984C176.225 145.771 177.798 146.208 179.284 146.296C182.169 146.471 185.141 145.421 187.502 143.847C189.949 142.272 191.698 139.91 193.184 137.461C193.271 137.374 193.359 137.199 193.359 137.111C192.659 133.525 192.31 130.638 192.659 130.551C187.065 131.776 177.623 134.225 172.641 134.837C173.777 134.575 174.389 139.823 174.651 144.721Z" fill="#EFAE95"/>
<path d="M220.021 242.163C220.196 244.525 220.021 246.799 219.409 249.073C219.235 249.773 219.06 250.473 219.235 251.085C219.672 252.66 228.239 255.809 230.074 256.858C234.183 259.307 238.292 261.844 242.226 264.556C250.181 269.891 257.873 275.664 265.566 281.437C267.227 282.749 269.063 284.149 269.5 286.248C270.112 289.135 267.752 291.934 265.129 293.246C261.37 295.083 256.912 295.083 252.716 294.733C231.386 292.983 208.22 284.674 192.047 270.591C187.152 266.305 181.732 262.894 179.284 256.858C173.165 241.988 171.592 234.991 177.798 228.08C184.18 220.908 200.44 219.946 208.919 224.494C215.213 227.993 219.409 234.903 220.021 242.163Z" fill="#FEC5A7"/>
<path d="M227.364 271.028C229.987 267.442 234.445 260.794 236.194 256.683C234.707 255.809 219.497 248.024 219.671 247.411C220.283 245.137 220.109 244.437 219.934 242.163C219.322 234.991 215.126 227.993 208.744 224.582C200.265 220.033 184.005 220.995 177.623 228.168C171.417 235.166 172.203 240.939 176.225 256.508C178.847 266.742 203.412 285.723 211.979 289.485C216.524 285.111 223.693 276.102 227.364 271.028Z" fill="#11193F"/>
<path d="M336.725 319.4C336.55 319.225 325.885 310.128 325.798 310.04C316.969 299.019 289.082 277.589 260.584 280.388C255.426 280.913 243.974 282.487 245.198 289.31C246.422 296.045 260.322 299.631 265.567 301.643C278.068 306.367 315.57 321.674 329.557 326.66C330.256 325.523 336.725 319.575 336.725 319.4Z" fill="#FEC5A7"/>
<path d="M325.797 310.04C323.437 307.066 319.591 303.305 314.783 299.456C314.433 300.418 313.996 301.381 313.559 302.43C311.286 307.591 308.488 312.577 305.079 317.213C314.87 321.061 324.049 324.648 329.556 326.66C330.256 325.61 336.724 319.662 336.724 319.487C336.55 319.225 325.885 310.128 325.797 310.04Z" fill="white"/>
<path d="M70.6236 343.017C69.3997 343.279 68.1759 343.279 67.0394 343.891C65.903 344.416 64.9414 345.641 64.9414 347.128C65.0288 349.227 67.0394 350.277 68.7878 350.539C72.5468 351.064 76.3058 349.839 80.0648 349.139C83.6489 348.527 87.3205 348.352 90.992 348.877C93.6146 349.227 96.2371 349.839 98.8597 349.752C100.346 349.752 102.007 349.489 103.143 348.265C104.28 347.04 104.717 345.116 104.892 343.366C105.154 341.092 105.329 338.818 105.416 336.544C105.416 335.931 105.329 335.232 104.892 334.969C104.542 334.794 104.017 335.057 103.668 335.319C101.744 336.719 99.7339 338.031 97.5484 338.293C95.5378 338.556 93.2649 337.856 91.9536 336.106C90.7298 334.357 90.5549 330.771 88.1946 330.596C86.0966 330.421 84.4357 333.307 83.1244 334.794C81.4635 336.719 79.6277 338.468 77.6171 339.868C75.519 341.442 73.1587 342.579 70.6236 343.017Z" fill="#F29456"/>
<path d="M323.001 345.991C323.787 345.903 324.574 345.816 325.361 345.641C328.333 345.028 331.568 343.716 332.966 341.005C333.491 339.955 333.753 338.731 334.103 337.594C334.889 335.057 336.288 332.695 338.124 330.771C339.872 328.934 342.058 327.272 342.407 324.823C342.757 322.111 340.572 319.75 338.561 317.825C337.25 316.513 335.589 314.939 333.666 314.676C333.666 317.038 334.365 320.187 333.141 322.461C332.092 324.473 330.431 324.91 328.333 324.823C326.148 324.735 323.438 323.336 322.651 326.222C321.777 329.371 323.962 332.958 321.864 335.932C320.99 337.156 319.504 337.856 318.105 338.468C316.707 339.081 315.22 339.693 314.259 340.917C313.297 342.142 313.122 344.066 314.259 345.116C314.958 345.728 315.832 345.903 316.707 345.991C318.805 346.253 320.903 346.253 323.001 345.991Z" fill="#F29456"/>
<path d="M322.126 335.057C323 334.794 324.049 335.057 324.836 335.669C324.836 335.669 324.923 335.757 324.836 335.757C324.836 335.757 324.748 335.757 324.836 335.757" stroke="#EA8249" stroke-width="0.8966" stroke-miterlimit="10"/>
<path d="M322.563 333.482C322.913 333.132 323.525 333.045 323.962 333.132C324.487 333.22 324.924 333.307 325.448 333.57C325.448 333.657 325.361 333.657 325.273 333.57" stroke="#EA8249" stroke-width="0.8966" stroke-miterlimit="10"/>
<path d="M322.476 331.471C323.35 330.858 324.661 330.771 325.623 331.383C325.535 331.296 325.448 331.296 325.448 331.208" stroke="#EA8249" stroke-width="0.8966" stroke-miterlimit="10"/>
<path d="M322.301 329.546C323.35 328.846 324.749 328.934 325.71 329.634" stroke="#EA8249" stroke-width="0.8966" stroke-miterlimit="10"/>
<path d="M313.559 344.241C315.22 344.853 316.968 344.853 318.716 344.766C321.164 344.678 323.524 344.591 325.797 343.804C328.07 343.017 330.168 341.53 331.217 339.343C331.654 338.381 331.916 337.331 332.266 336.281C333.053 333.745 334.452 331.47 336.375 329.634C337.599 328.409 338.91 327.447 340.046 326.135C341.095 324.823 341.795 323.073 341.358 321.411" stroke="#EA8249" stroke-width="0.8966" stroke-miterlimit="10"/>
<path d="M323.087 328.934C322.126 328.584 321.252 327.972 320.552 327.184C320.378 326.922 320.115 326.572 320.378 326.31C320.465 326.222 320.552 326.222 320.64 326.222C321.339 326.135 322.038 326.485 322.476 327.01C323 327.534 323.262 328.147 323.612 328.759C323.175 327.972 323.525 327.097 323.962 326.31C324.224 325.785 324.574 325.348 324.836 324.823C324.923 324.648 325.098 324.473 325.36 324.473C325.623 324.473 325.797 324.823 325.885 325.085C325.972 325.61 325.71 326.135 325.36 326.572C324.923 327.272 324.399 327.884 323.962 328.497" stroke="#EA8249" stroke-width="0.8966" stroke-miterlimit="10"/>
<path d="M338.124 317.475C337.949 317.738 337.861 318.087 337.861 318.437C337.599 320.974 338.386 323.511 339.872 325.61C339.959 325.697 340.047 325.785 340.047 325.61" stroke="#EA8249" stroke-width="0.8966" stroke-miterlimit="10"/>
<path d="M315.744 339.868C317.055 339.693 318.367 340.217 319.241 341.18C320.115 342.142 320.727 343.366 320.989 344.591" stroke="#EA8249" stroke-width="0.8966" stroke-miterlimit="10"/>
<path d="M65.0293 347.565C65.9035 348.702 67.3896 349.227 68.7883 349.314C70.187 349.402 71.5857 349.139 72.9844 348.79C79.9778 347.303 87.2335 345.903 94.3144 346.865C97.1118 347.215 99.9966 347.915 102.619 347.04C103.144 346.865 103.581 346.603 104.018 346.253" stroke="#EA8249" stroke-width="0.8966" stroke-miterlimit="10"/>
<path d="M79.0156 338.906C80.1521 339.08 81.1137 339.868 81.6382 340.83" stroke="#EA8249" stroke-width="0.8966" stroke-miterlimit="10"/>
<path d="M79.8896 337.943C80.4142 337.593 81.2009 337.681 81.7254 338.031C82.2499 338.381 82.687 338.905 83.0367 339.43" stroke="#EA8249" stroke-width="0.8966" stroke-miterlimit="10"/>
<path d="M81.5508 336.456C82.0753 336.194 82.7746 336.281 83.2991 336.544C83.8237 336.806 84.2607 337.244 84.6104 337.768" stroke="#EA8249" stroke-width="0.8966" stroke-miterlimit="10"/>
<path d="M82.8623 334.969C83.4742 334.707 84.0861 334.794 84.6981 335.144C85.2226 335.494 85.6597 336.019 86.0093 336.544L85.9219 336.456" stroke="#EA8249" stroke-width="0.8966" stroke-miterlimit="10"/>
<path d="M83.7365 334.532C83.2994 333.832 82.9497 333.133 82.7749 332.345C82.6 331.558 82.8623 330.596 83.4742 330.159C83.7364 329.984 84.1735 329.809 84.4358 329.984C84.5232 330.071 84.6106 330.246 84.698 330.333C85.3974 331.646 85.4848 333.308 84.7855 334.707C85.0477 333.92 85.31 333.22 85.8345 332.608C86.2716 331.995 86.9709 331.471 87.7577 331.296C87.8451 331.296 87.9325 331.296 88.1074 331.296C88.2822 331.383 88.3696 331.471 88.457 331.646C88.8067 332.345 88.457 333.308 87.9325 333.832C87.408 334.445 86.6213 334.794 85.9219 335.057C85.6597 335.144 85.3974 335.319 85.1351 335.232" stroke="#EA8249" stroke-width="0.8966" stroke-miterlimit="10"/>
<path d="M105.154 339.955C102.444 341.355 100.521 344.241 100.259 347.303" stroke="#EA8249" stroke-width="0.8966" stroke-miterlimit="10"/>
<path d="M68.2637 343.366C69.4875 343.629 70.5365 344.416 71.1485 345.466C71.7604 346.515 72.0226 347.74 72.0226 348.965" stroke="#EA8249" stroke-width="0.8966" stroke-miterlimit="10"/>
<path d="M168.095 120.929C167.396 120.667 166.697 120.667 165.997 120.842C164.773 121.192 163.637 122.329 163.287 123.728C162.938 125.04 163.287 126.527 164.162 127.49C165.036 128.452 166.347 128.977 167.571 128.802C168.008 128.714 168.445 128.627 168.795 128.364C169.931 127.665 170.543 125.653 170.543 124.341C170.718 122.854 169.494 121.367 168.095 120.929Z" fill="#FEC5A7"/>
<path d="M170.63 125.216C170.368 124.691 169.931 124.166 169.581 123.816C168.969 123.291 168.095 122.766 167.221 123.029C166.172 123.379 165.473 124.516 165.91 125.653C166.696 127.577 168.707 127.665 170.281 126.79C170.368 126.265 170.543 125.74 170.63 125.216Z" fill="#EFAE95"/>
<path d="M167.658 123.029C167.658 122.941 167.746 122.941 167.658 122.854C167.571 122.504 166.871 122.591 166.609 122.679C165.997 122.766 165.56 123.291 165.298 123.903C165.298 123.991 165.385 123.991 165.385 123.991C165.56 123.641 166.085 123.116 166.522 123.029C166.697 123.029 167.221 122.941 167.308 123.029C167.483 123.116 167.658 123.116 167.658 123.029Z" fill="#D69580"/>
<path d="M167.658 125.653C167.745 125.215 167.745 124.691 167.483 124.341C167.396 124.253 167.308 124.341 167.308 124.428C167.396 124.778 167.396 125.303 167.308 125.653C167.221 125.915 167.133 126.265 166.959 126.44C166.871 126.527 166.784 126.615 166.696 126.702C166.609 126.79 166.696 126.877 166.784 126.877C167.396 126.79 167.571 126.09 167.658 125.653Z" fill="#D69580"/>
<path d="M196.157 109.646C198.167 112.182 198.255 115.769 197.818 119.005C197.206 123.816 195.632 128.539 192.747 132.475C189.95 136.412 185.929 140.348 181.033 140.785C178.586 140.96 172.117 140.348 170.106 138.161C168.445 136.499 168.095 133.875 167.833 131.601C167.221 126.003 167.746 120.317 169.407 114.981C169.844 113.494 170.456 111.92 171.242 110.608C172.991 107.809 175.963 105.797 179.11 104.922C184.617 103.435 192.572 105.097 196.157 109.646Z" fill="#FEC5A7"/>
<path d="M195.108 121.717C194.408 124.691 193.359 128.015 190.3 129.327C187.24 130.639 184.705 128.539 181.733 128.102C178.498 127.665 175.351 127.927 172.204 128.714C171.068 128.977 168.795 130.114 167.571 129.502C167.746 130.114 167.571 130.989 167.571 131.601C167.483 133.788 167.221 137.199 168.97 138.861C169.756 139.648 170.98 139.998 172.117 140.26C174.127 140.698 176.225 140.873 178.323 141.135C180.246 141.31 182.257 141.572 184.18 141.135C187.153 140.523 189.688 138.424 191.436 135.887C193.184 133.438 194.233 130.464 195.195 127.577C196.069 124.778 196.943 121.892 197.643 119.093C197.73 118.568 198.255 117.693 197.468 117.781C197.031 117.781 196.506 118.393 196.244 118.655C195.632 119.617 195.37 120.667 195.108 121.717Z" fill="#0B1033"/>
<path d="M176.924 125.828C177.012 125.303 177.099 124.778 177.274 124.341C177.536 123.553 177.711 122.679 177.973 121.804C178.235 120.929 178.498 119.88 178.76 119.005C178.76 118.83 179.022 118.83 179.022 119.005C179.022 119.792 178.673 120.492 178.585 121.279C178.498 121.891 178.323 122.591 178.061 123.204C177.886 123.903 177.711 124.691 177.536 125.39C177.449 125.74 177.274 126.265 177.536 126.615C177.798 127.052 178.41 127.14 178.935 127.227C179.284 127.315 179.284 127.839 178.935 127.839C178.235 127.752 177.449 127.49 177.099 126.79C176.837 126.44 176.924 126.178 176.924 125.828Z" fill="#D69580"/>
<path d="M178.061 130.201C179.285 130.114 180.509 130.114 181.732 130.026C181.732 130.551 181.295 131.076 181.033 131.426C180.771 131.776 180.421 132.038 179.984 132.213C178.76 132.913 176.75 132.301 176.487 130.639C176.487 130.464 176.487 130.289 176.487 130.201C177.012 130.289 177.536 130.289 178.061 130.201Z" fill="#D69580"/>
<path d="M176.487 130.901C176.487 130.814 176.487 130.814 176.399 130.726C176.399 130.551 176.399 130.376 176.399 130.289C176.924 130.289 177.448 130.289 177.973 130.289C179.197 130.201 180.421 130.201 181.645 130.114C181.645 130.376 181.557 130.639 181.382 130.814C180.071 131.338 177.886 131.513 176.487 130.901Z" fill="#F5F3FF"/>
<path d="M179.896 132.301C179.197 132.738 178.235 132.65 177.536 132.301C178.323 132.388 179.11 132.388 179.896 132.301Z" fill="#F5F3FF"/>
<path opacity="0.67" d="M182.781 118.393C182.781 118.218 182.956 118.13 183.131 118.043C184.005 117.518 184.879 117.518 185.841 117.693C186.715 117.868 187.414 118.13 187.939 118.918C188.026 119.005 188.026 119.093 188.026 119.18C188.026 119.442 187.851 119.617 187.676 119.792C187.152 120.142 186.54 120.055 186.016 119.967C185.316 119.88 184.617 119.705 183.917 119.442C183.48 119.267 182.956 119.093 182.781 118.655C182.781 118.568 182.694 118.48 182.781 118.393Z" fill="#04061B"/>
<path opacity="0.67" d="M170.455 116.381C170.455 116.206 170.63 116.119 170.805 116.031C171.679 115.506 172.553 115.506 173.515 115.681C174.389 115.856 175.088 116.119 175.613 116.906C175.7 116.993 175.7 117.081 175.7 117.168C175.7 117.431 175.525 117.606 175.35 117.781C174.826 118.13 174.214 118.043 173.69 117.956C172.99 117.868 172.291 117.693 171.592 117.431C171.154 117.256 170.63 117.081 170.455 116.643C170.455 116.556 170.455 116.469 170.455 116.381Z" fill="#04061B"/>
<path d="M182.694 122.504C182.782 123.204 183.393 123.641 184.093 123.554C184.792 123.466 185.229 122.854 185.142 122.154C185.054 121.454 184.443 121.017 183.743 121.104C183.131 121.192 182.607 121.892 182.694 122.504Z" fill="#04061B"/>
<path d="M172.728 121.279C172.815 121.979 173.34 122.504 173.952 122.416C174.564 122.329 174.913 121.717 174.826 121.017C174.739 120.317 174.214 119.792 173.602 119.88C173.078 119.967 172.641 120.579 172.728 121.279Z" fill="#04061B"/>
<path d="M186.978 125.128C187.589 125.478 188.114 126.09 188.027 126.79C187.939 127.052 187.852 127.315 187.677 127.49C186.803 128.539 185.229 128.627 183.918 128.452C182.519 128.277 179.722 126.352 181.82 124.865C182.869 123.991 185.754 124.428 186.978 125.128Z" fill="#EFAE95"/>
<path d="M174.738 124.078C175.35 124.428 175.875 125.041 175.787 125.74C175.7 126.003 175.612 126.265 175.438 126.44C174.563 127.49 172.99 127.577 171.679 127.402C170.28 127.227 167.483 125.303 169.581 123.816C170.717 123.029 173.602 123.466 174.738 124.078Z" fill="#EFAE95"/>
<path d="M200.615 112.707C200.702 111.395 200.615 110.083 200.09 108.946C199.653 107.896 198.866 107.022 197.992 106.234C194.583 103.173 190.212 101.598 185.841 100.636C183.743 100.199 181.907 99.3241 179.722 98.8868C177.099 98.362 174.477 98.187 171.767 98.187C169.931 98.187 168.095 98.3619 166.434 99.1492C164.948 99.8489 163.462 101.336 163.899 102.998C164.249 104.66 166.259 105.36 168.008 105.622C166.784 105.972 165.735 106.672 165.123 107.721C165.035 107.896 164.86 108.159 164.86 108.334C164.86 109.033 165.735 109.296 166.434 109.383C171.242 109.908 176.137 109.296 181.033 109.646C184.879 109.908 189.775 111.045 192.135 114.544C192.747 115.506 193.009 116.643 193.184 117.78C193.621 120.929 193.534 124.253 192.834 127.315C192.485 129.064 193.796 131.163 194.67 128.802C195.369 126.965 196.069 125.215 196.943 123.378C198.429 120.055 200.352 116.556 200.615 112.707Z" fill="#0B1033"/>
<path d="M196.769 122.941C197.468 122.854 198.167 122.941 198.692 123.291C199.828 123.816 200.528 125.04 200.528 126.265C200.528 127.49 199.916 128.714 198.867 129.414C197.818 130.114 196.506 130.289 195.37 129.939C195.02 129.851 194.583 129.676 194.321 129.327C193.359 128.452 193.272 126.702 193.621 125.478C193.884 124.078 195.457 123.116 196.769 122.941Z" fill="#FEC5A7"/>
<path d="M193.446 126.178C193.796 125.74 194.32 125.391 194.758 125.216C195.457 124.866 196.419 124.603 197.118 125.041C197.992 125.478 198.429 126.703 197.817 127.577C196.681 129.064 194.758 128.802 193.446 127.752C193.446 127.14 193.446 126.615 193.446 126.178Z" fill="#EFAE95"/>
<path d="M196.681 124.865C196.681 124.778 196.681 124.778 196.681 124.778C196.855 124.516 197.467 124.691 197.73 124.778C198.254 124.953 198.604 125.565 198.604 126.09C198.604 126.178 198.516 126.178 198.516 126.09C198.429 125.74 197.992 125.215 197.642 125.04C197.555 124.953 197.03 124.778 196.856 124.865C196.856 124.953 196.768 124.953 196.681 124.865Z" fill="#D69580"/>
<path d="M196.156 127.052C196.156 126.615 196.331 126.265 196.593 125.915C196.681 125.828 196.768 125.915 196.681 126.003C196.506 126.265 196.419 126.702 196.419 127.052C196.419 127.315 196.419 127.577 196.593 127.839C196.681 127.927 196.768 128.014 196.768 128.102C196.768 128.189 196.681 128.277 196.593 128.277C196.156 128.102 196.156 127.49 196.156 127.052Z" fill="#D69580"/>
<path d="M212.679 155.917C211.367 154.168 209.007 153.906 206.909 153.556C203.5 152.943 200.09 151.719 197.468 149.445C197.206 149.182 196.943 149.007 196.769 148.745C196.506 149.007 196.332 149.182 196.069 149.445C192.398 152.856 187.24 155.393 182.17 155.568C179.897 155.655 177.624 155.218 175.701 153.906C175.176 153.556 174.652 153.118 174.215 152.594C173.952 152.769 173.515 152.856 172.903 153.118C170.805 153.731 168.795 154.43 166.697 155.043C165.648 155.393 164.599 155.655 163.812 156.355C161.189 158.542 159.441 162.128 158.742 165.277C157.693 169.738 156.207 174.461 155.682 179.01C154.72 187.844 156.644 197.116 158.654 205.776C159.791 210.674 161.452 215.397 163.2 220.121C165.648 226.856 168.095 233.679 170.456 240.414C175.701 242.251 181.383 239.452 186.278 236.74C191.261 233.941 196.332 231.229 201.314 228.43C205.423 226.156 209.706 222.045 206.297 217.147C205.51 216.097 204.461 215.047 204.374 213.735C204.374 213.123 204.636 212.511 204.636 211.811C204.636 210.411 203.325 209.362 202.626 208.137C201.926 207 201.839 205.601 201.839 204.201C201.577 195.367 203.587 186.62 206.297 178.222C207.696 174.111 209.095 169.913 210.843 165.977C211.979 163.09 215.039 159.154 212.679 155.917Z" fill="#F29456"/>
<path d="M218.798 120.929C219.322 118.655 219.934 116.381 220.459 114.019C217.661 113.582 214.864 112.795 212.241 111.92C210.93 111.483 209.531 110.783 208.22 110.52C206.559 110.258 206.647 110.52 206.384 112.27C205.51 117.955 204.286 123.553 202.625 129.064C200.527 135.974 198.08 142.797 196.156 149.794C194.495 155.917 191.611 164.402 194.495 170.525C195.719 173.237 198.167 175.423 201.139 175.861C203.325 176.211 205.598 175.511 207.521 174.374C209.357 173.149 210.93 171.487 212.154 169.65C215.563 164.839 216.437 158.979 217.137 153.206C217.924 146.908 218.098 140.61 218.011 134.312C218.011 130.289 217.661 125.915 218.536 121.979C218.623 121.717 218.71 121.279 218.798 120.929Z" fill="#FEC5A7"/>
<path d="M196.768 144.021C196.244 145.858 189.513 162.74 193.971 170.962C195.37 173.586 198.167 175.511 201.139 175.948C203.325 176.298 206.035 175.861 207.958 174.724C209.794 173.499 211.629 172.274 213.028 170.525C218.798 163.527 218.273 150.144 218.361 148.657C211.455 148.832 202.625 147.433 196.768 144.021Z" fill="#F29456"/>
<path d="M216.525 70.3716C213.466 71.1588 210.843 71.6836 207.696 72.2085C207.608 72.9082 203.937 107.459 204.461 115.244C204.636 117.693 204.811 120.142 205.948 122.329C209.969 130.376 217.487 123.816 219.497 118.13C220.809 114.457 220.983 110.52 221.071 106.672C221.246 98.7994 216.525 70.5465 216.525 70.3716Z" fill="#FEC5A7"/>
<path d="M203.762 56.5512C203.587 55.6765 203.587 54.6269 204.374 54.277C205.336 55.764 205.685 59.0004 206.297 60.8373C206.385 61.1871 206.997 61.0997 206.997 60.7498C206.822 57.6883 204.898 47.5418 206.472 47.2794C206.822 47.1919 206.822 47.8042 206.822 48.1541L208.832 60.3999H208.92L208.046 48.5914C208.046 48.2415 207.958 47.8917 208.133 47.5418C208.308 47.1919 208.657 46.9295 209.007 47.017C210.231 51.1281 210.144 55.6765 211.455 59.7876C211.542 59.9626 211.717 59.8751 211.717 59.7002C211.542 56.1139 210.93 53.0524 210.843 49.7285C210.843 48.9413 211.018 47.8917 211.805 47.7167C212.416 47.8042 212.591 50.1659 212.679 50.5158C213.028 52.5276 213.203 54.5394 213.465 56.5512C213.553 57.4259 213.64 58.3006 213.815 59.1753C213.903 59.6127 213.903 60.05 213.99 60.3999C213.99 60.6623 213.99 61.712 214.165 61.8869C215.039 61.0997 216.962 55.764 217.662 54.6269C217.836 54.3645 218.099 54.1895 218.361 54.277C219.672 54.3645 217.836 60.4874 217.399 61.8869C216.438 64.8609 216.438 68.0973 216.613 71.1588C216.7 73.0831 216.875 75.1824 215.738 76.8443C214.864 78.0689 212.766 78.8561 211.28 78.5937C207.696 77.894 207.434 72.9956 206.647 70.0217C205.51 65.5607 204.549 61.0997 203.762 56.5512Z" fill="#FEC5A7"/>
<path d="M211.892 120.055C212.066 120.842 212.766 121.367 213.553 121.542C214.339 121.717 215.126 121.192 215.563 120.579" fill="#FEC5A7"/>
<path d="M156.818 183.033C156.906 183.558 157.605 183.733 158.13 183.733C159.878 183.733 161.626 183.471 163.287 183.033" stroke="#EA8249" stroke-width="0.8966" stroke-miterlimit="10"/>
<path d="M173.34 183.471C174.826 183.471 176.312 184.083 177.798 184.52C181.557 185.657 185.578 185.745 189.425 184.783" stroke="#EA8249" stroke-width="0.8966" stroke-miterlimit="10"/>
<path d="M197.205 144.809C203.412 148.483 211.017 149.795 218.185 148.483" stroke="#EA8249" stroke-width="0.8966" stroke-miterlimit="10"/>
<path d="M151.748 146.996C154.808 147.608 157.955 146.646 160.84 145.684C164.773 144.372 168.62 142.885 172.379 141.31" stroke="#EA8249" stroke-width="0.8966" stroke-miterlimit="10"/>
<path d="M203.324 181.459C200.877 189.943 199.128 198.778 200.265 207.525" stroke="#EA8249" stroke-width="0.8966" stroke-miterlimit="10"/>
<path d="M201.052 210.149C202.276 211.461 202.713 213.473 202.101 215.135C202.013 215.485 201.839 215.835 201.926 216.185C202.013 216.447 202.276 216.622 202.538 216.709C203.499 217.322 204.286 218.196 204.811 219.159C205.248 219.946 205.51 220.908 205.335 221.87C205.16 222.745 204.548 223.62 203.587 223.882" stroke="#EA8249" stroke-width="0.8966" stroke-miterlimit="10"/>
<path d="M237.68 121.104C237.68 120.405 237.942 114.981 237.942 114.369C242.226 114.719 247.121 114.107 251.317 113.669C250.793 130.026 251.317 148.658 249.831 163.353C249.307 168.251 248.607 173.499 245.285 177.173C244.411 178.135 243.362 179.01 242.138 179.36C239.691 180.147 236.893 178.922 235.145 176.91C233.484 174.899 232.697 172.275 232.26 169.738C229.463 153.556 237.155 137.461 237.68 121.104Z" fill="#EFD5BB"/>
<path d="M250.88 76.1446C250.967 75.9696 250.967 75.8821 251.055 75.7947C253.765 77.1942 256.475 78.5063 259.185 79.6434C259.097 80.2557 259.01 81.1304 258.835 81.6552C258.136 87.6906 254.726 111.832 252.541 118.918C251.841 121.104 251.142 123.379 249.656 125.128C244.149 131.688 238.729 123.991 238.029 118.305C237.592 114.632 238.292 110.958 239.078 107.371C240.564 100.024 249.831 79.206 250.88 76.1446Z" fill="#EFD5BB"/>
<path d="M266.003 64.7734C266.353 63.9861 266.615 63.1114 265.916 62.4991C264.779 63.7237 263.643 66.6102 262.681 68.0972C262.507 68.4471 261.982 68.1847 262.069 67.8348C262.856 65.0358 266.877 56.1138 265.479 55.5015C265.217 55.414 265.042 55.9389 264.954 56.2013L260.408 67.0476H260.321L263.73 56.3762C263.818 56.0263 263.905 55.6765 263.905 55.3266C263.818 54.9767 263.556 54.6268 263.206 54.7143C261.195 58.3006 260.234 62.4991 258.136 65.998C258.048 66.1729 257.873 65.9979 257.873 65.9105C258.835 62.5866 260.059 59.9625 260.846 56.8136C261.02 56.0263 261.02 55.0642 260.408 54.7143C259.797 54.6268 259.097 56.8136 259.01 57.1635C258.31 58.9129 257.611 60.7497 256.912 62.5866C256.65 63.3738 256.3 64.1611 256.038 64.9483C255.863 65.2982 255.775 65.7355 255.6 66.0854C255.513 66.3478 255.338 67.31 255.076 67.3975C254.464 66.5228 253.852 61.1871 253.415 59.875C253.328 59.6126 253.153 59.4377 252.891 59.3502C251.667 59.1753 252.016 65.2107 252.104 66.6102C252.366 69.5842 251.667 72.5582 250.792 75.3573C250.268 77.1067 249.656 79.031 250.355 80.7804C250.88 82.0925 252.628 83.3171 254.114 83.4045C257.611 83.5795 258.922 79.1185 260.234 76.4944C262.332 72.7332 264.255 68.797 266.003 64.7734Z" fill="#EFD5BB"/>
<path d="M271.249 238.402C267.839 232.192 260.409 228.518 253.415 229.48L217.311 232.979C202.975 234.378 188.463 235.865 174.826 240.414C172.641 241.114 170.28 242.163 169.581 244.263C168.707 246.799 170.455 249.423 172.378 251.173C177.711 256.159 184.879 258.87 191.873 261.057C200.527 263.768 209.269 266.043 218.186 267.792C232.085 270.504 246.946 271.903 260.234 267.005C264.605 265.43 268.888 262.981 271.336 258.958C272.647 256.771 273.347 254.322 273.609 251.785C274.133 247.324 273.521 242.513 271.249 238.402Z" fill="#261E60"/>
<path d="M167.919 249.598C165.122 278.726 157.604 343.541 158.216 345.116C158.828 346.69 162.674 347.478 164.335 347.128C165.821 346.865 185.403 291.409 186.452 264.818C186.627 261.057 186.627 257.208 185.403 253.622C183.917 249.073 180.245 245.137 175.874 243.388C170.367 241.114 168.444 244.35 167.919 249.598Z" fill="#F6DEC2"/>
<path d="M170.367 333.832C170.455 333.832 170.63 333.832 170.717 333.92C181.032 312.489 185.491 288.348 186.365 264.468C186.54 260.707 186.54 256.771 185.316 253.184C183.83 248.636 180.158 244.7 175.787 242.863C170.367 240.676 168.444 243.913 167.92 249.161C165.21 276.714 161.363 303.917 158.653 331.47C162.15 332.345 166.871 333.395 170.367 333.832Z" fill="#261E60"/>
<path d="M271.248 238.402C270.811 237.702 270.374 237.002 269.85 236.303C265.129 242.863 256.824 246.274 248.869 247.849C238.204 249.948 227.102 249.598 216.35 248.374C209.706 247.674 203.499 245.4 197.03 244C193.446 243.213 189.774 242.513 186.19 242.863C183.131 243.125 178.847 244.175 177.536 247.237C176.662 249.248 177.186 251.173 177.798 253.097C178.06 254.059 178.323 254.934 178.585 255.896C182.694 258.17 187.239 259.832 191.785 261.232C200.439 263.943 209.181 266.218 218.098 267.967C231.997 270.679 246.859 272.078 260.146 267.18C264.517 265.605 268.801 263.156 271.248 259.132C272.56 256.946 273.259 254.497 273.521 251.96C274.133 247.324 273.521 242.513 271.248 238.402Z" fill="#1E1A56"/>
<path d="M179.11 245.137C178.41 245.662 177.886 246.362 177.536 247.149C176.662 249.161 177.187 251.085 177.798 253.01C178.41 255.109 178.935 257.121 179.285 259.307C180.071 264.118 180.246 269.104 180.071 274.002C179.722 283.537 178.148 292.983 175.263 301.993C173.253 308.378 170.805 314.939 167.133 320.537C164.948 323.861 162.238 327.097 158.829 329.021C158.741 329.809 158.654 330.596 158.566 331.295C161.976 332.258 166.696 333.22 170.28 333.745C170.368 333.745 170.543 333.745 170.63 333.832C180.946 312.489 185.404 288.523 186.278 264.731C186.453 260.969 186.453 257.121 185.229 253.534C184.267 250.21 181.995 247.236 179.11 245.137Z" fill="#1E1A56"/>
<path d="M273.608 131.601C274.57 129.327 275.269 127.052 275.794 124.691C276.58 120.842 273.346 117.868 270.461 115.681C268.975 114.544 267.227 113.669 265.391 113.232C264.954 113.145 263.73 113.145 263.38 112.882C262.681 112.357 260.758 108.509 256.737 107.022C253.327 105.797 248.956 106.759 245.634 107.896C243.536 108.684 241.875 109.821 240.04 111.133C237.942 112.707 235.931 113.844 234.095 115.856C232.172 118.043 230.424 120.405 229.375 123.116C226.053 131.863 231.647 136.849 236.718 143.234C238.903 145.946 241.176 148.832 244.498 149.97C246.683 150.757 249.044 150.757 251.229 150.407C261.37 148.832 269.587 141.048 273.608 131.601Z" fill="#A84F00"/>
<path d="M259.447 160.903C258.747 159.416 255.163 142.972 256.125 142.797C250.618 144.022 243.537 145.946 238.641 146.471C240.564 146.208 239.515 162.478 238.554 164.227C237.155 166.764 227.277 176.123 224.654 179.535C222.556 182.159 220.371 185.308 220.895 188.632C221.332 191.343 223.43 193.617 223.955 196.329C224.217 197.903 223.955 199.478 223.78 200.965C223.168 204.551 222.644 208.137 223.081 211.724C223.518 215.572 225.004 219.246 226.49 222.92C229.812 231.055 236.281 246.012 239.603 254.147C249.131 252.397 255.513 243.825 264.954 242.076C265.653 241.988 266.353 241.814 266.79 241.289C267.227 240.851 267.314 240.152 267.314 239.539C267.402 236.915 266.44 234.379 265.391 231.929C261.545 222.133 257.086 211.986 258.398 201.577C259.534 191.606 265.741 182.771 266.79 172.799C267.052 170.525 266.877 166.939 264.779 165.452C262.419 163.528 260.845 163.965 259.447 160.903Z" fill="#F6DEC2"/>
<path d="M265.391 231.754C264.604 229.83 263.905 227.993 263.118 226.069C258.223 228.868 252.803 230.705 247.47 232.367C242.575 233.854 237.242 236.215 231.997 236.215C234.794 242.688 237.679 249.511 239.515 254.147C249.044 252.397 255.425 243.825 264.866 242.076C265.566 241.988 266.265 241.814 266.702 241.289C267.139 240.851 267.227 240.152 267.227 239.539C267.314 236.74 266.352 234.204 265.391 231.754Z" fill="#2F2369"/>
<path d="M267.227 239.452C267.315 236.828 266.353 234.291 265.304 231.842C264.517 229.917 263.818 228.081 263.031 226.156C259.01 228.43 254.726 230.005 250.356 231.492C250.705 232.017 250.88 232.629 251.055 233.329C251.929 237.352 248.695 241.201 246.509 244.263C244.236 247.412 242.138 250.823 238.991 253.185C239.166 253.534 239.253 253.884 239.428 254.234C248.957 252.485 255.338 243.913 264.78 242.163C265.479 242.076 266.178 241.901 266.615 241.376C267.14 240.676 267.227 240.064 267.227 239.452Z" fill="#261E60"/>
<path d="M262.331 181.809C260.233 186.007 257.436 191.343 252.453 192.568C250.005 193.18 247.208 192.655 245.284 191.081C243.449 189.681 242.662 187.494 242.662 185.308C242.662 182.596 243.711 179.884 244.847 177.523C246.159 174.811 247.82 172.362 249.655 170C251.404 167.726 253.24 165.627 255.075 163.353C255.95 162.303 260.32 158.279 258.135 156.967C256.736 156.18 254.201 161.428 253.414 162.653C252.628 163.877 251.753 165.189 250.967 166.414C250.53 167.114 248.956 168.776 248.956 169.563C246.508 173.237 243.973 177.085 240.302 179.622C236.63 182.071 231.472 182.946 227.801 180.409C226.927 179.797 226.14 178.922 226.14 177.873C225.703 178.31 225.178 179.01 224.741 179.535C222.643 182.159 220.458 185.308 220.982 188.632C221.419 191.343 223.517 193.617 224.042 196.329C224.304 197.903 224.042 199.478 223.867 200.965C223.517 202.977 223.255 204.989 223.08 207C224.829 207.613 226.577 208.137 228.413 208.575C236.28 210.499 244.585 210.762 252.54 209.537C254.463 209.187 256.474 208.837 258.397 208.312C258.222 206.038 258.222 203.851 258.485 201.577C259.621 191.606 265.828 182.771 266.877 172.799C266.964 172.187 266.964 171.575 266.964 170.875C265.566 174.549 264.079 178.223 262.331 181.809Z" fill="#DB7197"/>
<path d="M244.236 159.416C246.771 159.504 249.306 157.929 251.142 156.267C253.24 154.431 254.813 152.156 256.3 149.795C256.562 149.445 256.737 149.095 256.912 148.657C256.649 146.646 256.474 144.634 256.212 142.709C250.705 143.934 243.624 145.858 238.729 146.383C239.428 149.795 240.04 153.468 240.04 156.88C241.089 158.279 242.575 159.416 244.236 159.416Z" fill="#EFB59E"/>
<path d="M256.999 123.029C256.212 128.539 257.873 134.4 261.632 138.511C258.31 145.246 253.939 150.144 245.197 152.594C241.526 153.643 237.242 152.419 235.319 149.095C234.183 147.17 233.134 143.234 233.221 140.96C233.396 137.111 234.095 133.263 235.319 129.676C236.368 126.615 237.504 122.854 241.001 121.804C243.274 121.104 245.722 122.154 248.082 122.416C251.841 122.766 255.425 120.842 258.31 118.48C257.611 119.967 257.173 121.454 256.999 123.029Z" fill="#F6DEC2"/>
<path d="M241.439 136.412C241.526 135.887 241.614 135.274 241.789 134.837C242.051 133.962 242.226 133 242.488 132.126C242.838 131.163 243.013 130.114 243.275 129.064C243.362 128.889 243.624 128.889 243.624 129.064C243.624 129.851 243.275 130.726 243.1 131.513C243.012 132.213 242.75 132.913 242.575 133.613C242.313 134.4 242.226 135.187 242.051 135.974C241.963 136.412 241.789 136.936 242.051 137.374C242.313 137.811 243.012 137.986 243.537 138.073C243.974 138.161 243.887 138.773 243.537 138.686C242.75 138.598 241.963 138.336 241.526 137.549C241.264 137.111 241.352 136.761 241.439 136.412Z" fill="#D69580"/>
<path opacity="0.67" d="M253.852 132.563H253.765C252.89 131.776 252.104 130.901 251.142 130.376C250.443 130.026 249.743 129.851 249.131 129.851C249.131 129.764 249.044 129.676 249.044 129.501C249.044 129.414 249.044 129.326 249.131 129.239C249.219 129.064 249.394 129.064 249.656 129.064C250.792 128.889 251.754 129.239 252.716 129.764C253.59 130.289 254.289 130.813 254.464 131.776C254.464 131.863 254.464 131.951 254.464 132.038C254.376 132.388 254.114 132.475 253.852 132.563Z" fill="#04061B"/>
<path opacity="0.67" d="M238.816 127.402C237.942 127.402 237.242 127.577 236.718 128.015C236.63 127.927 236.543 127.84 236.456 127.84C236.368 127.752 236.368 127.665 236.368 127.577C236.368 127.402 236.456 127.315 236.63 127.14C237.33 126.528 238.204 126.265 239.078 126.265C239.952 126.265 240.739 126.353 241.351 126.965C241.438 127.052 241.438 127.052 241.526 127.14C241.526 127.227 241.526 127.315 241.526 127.402C240.827 127.665 239.865 127.402 238.816 127.402Z" fill="#04061B"/>
<path d="M252.366 137.549C252.891 137.986 253.24 138.686 252.978 139.298C252.891 139.561 252.716 139.736 252.454 139.91C251.405 140.698 249.919 140.435 248.695 139.998C247.383 139.473 245.198 137.111 247.471 136.237C248.782 135.712 251.405 136.762 252.366 137.549Z" fill="#EFAE95"/>
<path d="M239.69 134.837C240.214 135.187 240.652 135.799 240.477 136.412C240.389 136.674 240.302 136.849 240.127 137.024C239.253 137.899 237.854 137.899 236.63 137.636C235.319 137.374 232.959 135.449 234.969 134.312C236.018 133.613 238.641 134.137 239.69 134.837Z" fill="#EFAE95"/>
<path d="M242.924 141.835C242.138 141.835 241.351 141.747 240.564 141.835C240.477 141.835 240.389 141.835 240.389 141.922C240.302 142.01 240.302 142.185 240.302 142.272C240.477 143.147 240.651 144.109 241.438 144.634C242.312 145.246 243.536 144.984 244.236 144.196C244.673 143.672 245.372 142.535 245.11 141.835C244.935 141.31 244.76 141.485 244.323 141.66C243.886 141.747 243.449 141.835 242.924 141.835Z" fill="#EFAE95"/>
<path d="M244.323 141.66C243.886 141.747 243.449 141.835 242.924 141.835C242.138 141.835 241.351 141.747 240.564 141.835C240.477 141.835 240.389 141.835 240.389 141.922C240.302 142.01 240.302 142.185 240.302 142.272C240.389 142.622 240.389 142.972 240.564 143.234C241.963 142.884 243.449 143.059 244.585 143.759C244.935 143.147 245.285 142.36 245.11 141.835C245.022 141.31 244.847 141.485 244.323 141.66Z" fill="#D69580"/>
<path d="M243.712 142.447C244.149 142.185 244.498 141.922 244.761 141.485C244.673 141.485 244.498 141.572 244.323 141.66C243.886 141.747 243.449 141.835 242.925 141.835C242.225 141.835 241.439 141.747 240.739 141.835C241.439 142.709 242.575 143.059 243.712 142.447Z" fill="white"/>
<path d="M238.03 131.338C236.893 131.863 237.68 133.7 238.816 133.175C239.953 132.65 239.166 130.814 238.03 131.338Z" fill="#04061B"/>
<path d="M251.404 134.05C250.005 134.662 250.879 136.849 252.191 136.237C253.589 135.624 252.803 133.438 251.404 134.05Z" fill="#04061B"/>
<path d="M237.417 131.513C237.067 131.776 236.281 132.475 236.368 133C236.368 133.088 236.543 133.088 236.543 133C236.543 132.65 236.893 132.388 237.067 132.213C237.592 131.688 238.204 131.426 238.816 131.951C238.903 132.038 238.991 131.951 238.991 131.863C238.641 131.251 237.854 131.163 237.417 131.513Z" fill="#04061B"/>
<path d="M251.055 133.875C250.618 134.05 249.394 134.75 249.569 135.362C249.569 135.45 249.656 135.45 249.744 135.362C250.093 134.925 250.443 134.575 250.967 134.312C251.23 134.225 251.667 134.137 251.929 134.312C252.104 134.4 252.191 134.575 252.366 134.662C252.454 134.75 252.628 134.575 252.541 134.487C252.366 133.875 251.667 133.7 251.055 133.875Z" fill="#04061B"/>
<path d="M279.728 109.646C285.847 110.608 291.354 114.457 294.414 119.88C299.921 129.501 296.949 141.485 293.889 152.156C293.19 154.693 292.403 157.142 291.704 159.679C290.83 162.828 289.169 166.501 285.934 166.764C286.022 163.527 286.109 160.204 286.197 156.967C284.536 159.154 281.913 160.553 279.203 160.728C279.378 157.317 280.514 154.081 280.864 150.757C281.826 142.884 278.591 134.662 272.559 129.501C270.199 127.49 267.489 126.003 265.391 123.816C255.688 113.932 271.423 108.334 279.728 109.646Z" fill="#A84F00"/>
<path d="M282.962 252.222C283.137 254.497 282.962 256.771 282.35 259.045C282.175 259.657 282 260.357 282.175 261.057C282.612 262.631 291.004 265.693 292.753 266.743C296.774 269.104 300.795 271.641 304.642 274.265C312.422 279.513 320.027 285.199 327.545 290.797C329.206 292.021 330.955 293.508 331.479 295.52C332.091 298.407 329.818 301.118 327.196 302.43C323.524 304.267 319.153 304.18 315.044 303.917C294.152 302.168 271.423 294.033 255.6 280.213C250.792 276.014 245.984 272.428 243.099 266.743C239.165 259.133 236.805 246.449 242.924 239.627C249.219 232.629 263.817 230.53 272.122 234.991C278.241 238.315 282.35 245.137 282.962 252.222Z" fill="#2F2369"/>
<path d="M391.798 334.27C393.984 334.882 395.295 332.433 396.519 330.596C397.655 328.759 388.039 320.537 386.728 318.875C378.073 308.029 350.712 287.036 322.825 289.747C317.755 290.272 306.565 291.846 307.789 298.494C309.013 305.055 322.563 308.641 327.72 310.565C343.019 316.338 386.64 332.87 391.798 334.27Z" fill="#F6DEC2"/>
<path d="M383.669 327.359C384.98 324.91 386.116 322.461 386.903 319.837C386.99 319.662 386.99 319.487 387.078 319.312C386.903 319.137 386.728 318.962 386.641 318.787C377.986 307.941 350.624 286.948 322.738 289.66C317.668 290.185 305.604 291.234 306.828 297.969C308.052 304.53 322.476 308.553 327.546 310.478C339.785 315.114 368.108 326.485 381.833 331.383C382.532 330.333 383.144 328.497 383.669 327.359Z" fill="#2F2369"/>
<path d="M331.392 295.52C330.954 293.508 329.119 292.021 327.458 290.797C319.94 285.111 312.422 279.513 304.554 274.265C300.62 271.641 296.687 269.104 292.665 266.742C290.917 265.693 282.437 262.631 282.088 261.057C281.913 260.357 282.088 259.745 282.262 259.045C282.874 256.858 283.049 254.497 282.874 252.222C282.262 245.137 278.154 238.315 271.947 234.991C267.139 232.367 260.233 232.017 254.026 233.504C260.408 235.166 265.478 239.627 268.188 245.662C270.811 251.435 270.898 257.645 269.937 263.768C269.762 264.731 269.499 265.868 269.762 266.83C274.482 266.83 279.203 267.705 283.661 269.279C292.753 272.428 300.445 277.851 307.789 284.062C313.383 288.785 319.503 293.508 323.524 299.719C325.36 299.981 327.283 299.981 329.119 300.069C329.468 300.069 329.818 300.069 330.08 300.156C331.129 298.757 331.829 297.182 331.392 295.52Z" fill="#261E60"/>
<path d="M386.64 318.787C377.986 307.941 350.624 286.948 322.738 289.66C320.29 289.922 319.328 289.31 316.094 290.447C316.968 291.322 317.755 292.284 318.629 293.246C319.765 294.558 318.017 297.095 319.328 298.319C322.213 300.156 325.797 299.894 329.119 300.069C332.528 300.244 335.938 300.506 339.26 300.856C350.974 302.256 362.251 306.979 370.992 315.026C374.577 318.35 377.461 322.286 379.647 326.747C380.346 328.147 380.958 329.721 381.483 331.296C381.657 331.383 381.745 331.383 381.92 331.471C382.619 330.421 383.144 328.584 383.756 327.447C385.067 324.998 386.203 322.549 386.99 319.925C387.077 319.75 387.077 319.575 387.165 319.4C386.903 319.05 386.728 318.875 386.64 318.787Z" fill="#261E60"/>
<path d="M272.472 130.376C272.647 129.676 274.045 124.078 274.307 123.378C269.849 122.416 265.041 120.23 260.845 118.568C256.387 135.537 250.093 154.343 247.12 169.825C246.071 174.986 245.285 180.584 247.558 185.307C248.169 186.532 248.956 187.757 250.093 188.544C252.365 190.118 255.6 189.681 257.96 188.194C260.321 186.707 261.894 184.258 263.118 181.721C270.898 166.064 268.013 147.258 272.472 130.376Z" fill="#F6DEC2"/>
<path d="M272.822 80.3431C272.822 80.1682 272.822 80.0807 272.822 79.9058C269.675 80.5181 266.441 81.0429 263.293 81.3928C263.206 82.0925 263.031 82.9672 263.031 83.5795C261.895 89.9649 257.961 115.681 257.961 123.641C257.961 126.09 258.048 128.627 259.01 130.901C262.594 139.298 270.549 133.088 272.997 127.49C274.57 123.903 275.008 119.88 275.357 115.944C275.969 107.984 272.91 83.7545 272.822 80.3431Z" fill="#F6DEC2"/>
<path d="M260.846 64.0737C260.758 63.1115 260.758 62.1494 261.632 61.7995C262.507 63.3739 262.681 66.6978 263.206 68.5347C263.293 68.8846 263.905 68.8846 263.905 68.4472C263.905 65.2983 262.594 54.9768 264.167 54.8018C264.517 54.8018 264.517 55.3267 264.517 55.6765L265.828 68.1848H265.916L265.741 56.2014C265.741 55.8515 265.741 55.4141 265.916 55.1517C266.091 54.8018 266.44 54.5394 266.79 54.7144C267.839 59.0004 267.402 63.5489 268.538 67.7475C268.538 67.9224 268.801 67.8349 268.801 67.7475C268.801 64.0737 268.364 61.0122 268.538 57.6009C268.538 56.8137 268.888 55.764 269.675 55.5891C270.287 55.6765 270.374 58.1257 270.374 58.4756C270.549 60.4874 270.724 62.5867 270.811 64.5985C270.899 65.4732 270.899 66.3479 270.986 67.3101C270.986 67.7475 271.073 68.1848 271.073 68.6222C271.073 68.8846 270.986 69.9342 271.161 70.1092C272.035 69.4094 274.308 64.0737 275.095 62.9366C275.27 62.6742 275.532 62.5867 275.794 62.5867C277.105 62.7616 274.92 68.7971 274.395 70.1966C273.259 73.1706 272.997 76.407 272.997 79.556C272.997 81.5678 272.997 83.6671 271.773 85.2415C270.811 86.4661 268.713 87.0784 267.14 86.7285C263.556 85.8538 263.556 80.868 263.031 77.8065C262.157 73.3456 261.457 68.7096 260.846 64.0737Z" fill="#F6DEC2"/>
<path d="M229.025 194.929C231.648 196.679 235.32 196.679 238.029 195.017" stroke="#261E60" stroke-width="0.8966" stroke-miterlimit="10"/>
<path d="M265.129 128.889C265.304 129.676 265.916 130.289 266.702 130.464C267.489 130.639 268.363 130.289 268.8 129.589" stroke="#261E60" stroke-width="0.8966" stroke-miterlimit="10"/>
<path d="M222.993 206.475C234.358 209.362 246.334 209.799 257.786 207.612" stroke="#261E60" stroke-width="0.8966" stroke-miterlimit="10"/>
<path d="M145.803 347.653C145.016 347.827 144.229 347.827 143.443 348.177C142.743 348.527 142.044 349.314 142.044 350.277C142.044 351.589 143.443 352.376 144.579 352.551C147.027 352.901 149.475 352.114 151.922 351.676C154.283 351.239 156.643 351.151 159.003 351.501C160.664 351.676 162.412 352.114 164.073 352.114C165.035 352.114 166.084 351.939 166.783 351.151C167.57 350.364 167.745 349.14 167.92 348.002C168.095 346.515 168.182 345.028 168.269 343.541C168.269 343.192 168.269 342.667 167.92 342.579C167.658 342.492 167.395 342.667 167.133 342.842C165.909 343.716 164.598 344.591 163.112 344.766C161.8 344.941 160.314 344.504 159.528 343.279C158.741 342.142 158.566 339.868 157.08 339.693C155.681 339.605 154.632 341.442 153.845 342.404C152.796 343.629 151.573 344.766 150.261 345.728C148.95 346.603 147.376 347.303 145.803 347.653Z" fill="#DB7197"/>
<path d="M387.34 347.652C387.864 347.565 388.389 347.478 388.913 347.39C390.924 346.953 393.109 346.078 394.071 344.241C394.421 343.541 394.595 342.754 394.858 341.967C395.382 340.217 396.344 338.643 397.568 337.331C398.704 336.106 400.278 334.969 400.452 333.307C400.715 331.47 399.229 329.809 397.83 328.584C396.868 327.709 395.819 326.66 394.508 326.485C394.508 328.147 394.945 330.246 394.158 331.82C393.459 333.22 392.323 333.482 390.924 333.482C389.438 333.395 387.602 332.52 386.99 334.444C386.378 336.631 387.864 338.993 386.465 341.005C385.854 341.879 384.892 342.317 383.93 342.754C382.969 343.191 382.007 343.629 381.308 344.416C380.696 345.203 380.521 346.515 381.308 347.215C381.745 347.652 382.357 347.74 382.969 347.827C384.542 347.827 385.941 347.827 387.34 347.652Z" fill="#DB7197"/>
<path d="M386.815 340.13C387.427 339.955 388.127 340.13 388.651 340.567C388.651 340.567 388.651 340.567 388.651 340.655" stroke="#261E60" stroke-width="0.8966" stroke-miterlimit="10"/>
<path d="M386.99 339.08C387.252 338.818 387.602 338.818 387.952 338.818C388.302 338.818 388.651 338.905 388.913 339.08H388.826" stroke="#261E60" stroke-width="0.8966" stroke-miterlimit="10"/>
<path d="M386.99 337.768C387.602 337.331 388.476 337.331 389.088 337.681C389.001 337.681 389.001 337.593 388.913 337.593" stroke="#261E60" stroke-width="0.8966" stroke-miterlimit="10"/>
<path d="M386.815 336.369C387.515 335.931 388.476 335.932 389.176 336.456" stroke="#261E60" stroke-width="0.8966" stroke-miterlimit="10"/>
<path d="M380.871 346.428C382.008 346.865 383.231 346.865 384.368 346.778C386.029 346.69 387.69 346.603 389.263 346.078C390.837 345.553 392.235 344.504 392.935 343.017C393.285 342.317 393.372 341.617 393.634 340.917C394.159 339.168 395.12 337.594 396.432 336.369C397.218 335.582 398.18 334.882 398.879 333.92C399.579 333.045 400.103 331.82 399.753 330.683" stroke="#261E60" stroke-width="0.8966" stroke-miterlimit="10"/>
<path d="M387.427 336.019C386.728 335.757 386.116 335.319 385.679 334.794C385.504 334.619 385.417 334.357 385.591 334.182C385.679 334.095 385.679 334.095 385.766 334.095C386.203 334.007 386.728 334.27 387.078 334.619C387.427 334.969 387.602 335.407 387.864 335.844C387.602 335.319 387.777 334.707 388.127 334.182C388.301 333.832 388.476 333.482 388.738 333.22C388.826 333.132 388.913 332.958 389.088 332.958C389.263 332.958 389.438 333.132 389.438 333.395C389.438 333.745 389.263 334.095 389.088 334.444C388.826 334.882 388.476 335.319 388.127 335.757" stroke="#261E60" stroke-width="0.8966" stroke-miterlimit="10"/>
<path d="M397.655 328.147C397.568 328.322 397.481 328.584 397.481 328.846C397.306 330.596 397.83 332.345 398.792 333.745C398.792 333.832 398.967 333.832 398.967 333.745" stroke="#261E60" stroke-width="0.8966" stroke-miterlimit="10"/>
<path d="M382.444 343.454C383.319 343.279 384.193 343.716 384.805 344.329C385.417 344.941 385.766 345.816 386.028 346.69" stroke="#261E60" stroke-width="0.8966" stroke-miterlimit="10"/>
<path d="M142.132 350.539C142.744 351.239 143.618 351.589 144.58 351.676C145.541 351.764 146.415 351.501 147.29 351.326C151.835 350.364 156.556 349.489 161.189 350.102C163.025 350.364 164.861 350.801 166.609 350.189C166.959 350.102 167.221 349.927 167.483 349.664" stroke="#261E60" stroke-width="0.8966" stroke-miterlimit="10"/>
<path d="M151.223 344.941C151.922 345.028 152.621 345.553 152.884 346.165" stroke="#261E60" stroke-width="0.8966" stroke-miterlimit="10"/>
<path d="M151.747 344.329C152.097 344.154 152.621 344.154 152.971 344.416C153.321 344.591 153.583 344.941 153.845 345.291" stroke="#261E60" stroke-width="0.8966" stroke-miterlimit="10"/>
<path d="M152.884 343.367C153.233 343.192 153.671 343.279 154.02 343.454C154.37 343.629 154.632 343.891 154.894 344.241" stroke="#261E60" stroke-width="0.8966" stroke-miterlimit="10"/>
<path d="M153.671 342.404C154.021 342.229 154.458 342.317 154.807 342.492C155.157 342.667 155.419 343.016 155.682 343.366L155.594 343.279" stroke="#261E60" stroke-width="0.8966" stroke-miterlimit="10"/>
<path d="M154.283 342.142C154.02 341.704 153.758 341.18 153.671 340.655C153.583 340.13 153.758 339.518 154.108 339.255C154.283 339.08 154.545 339.08 154.72 339.168C154.807 339.255 154.895 339.343 154.895 339.43C155.332 340.305 155.419 341.355 154.982 342.229C155.157 341.704 155.332 341.267 155.681 340.83C155.944 340.392 156.381 340.043 156.905 339.955C156.993 339.955 157.08 339.955 157.08 339.955C157.167 339.955 157.255 340.13 157.342 340.217C157.605 340.655 157.342 341.267 156.993 341.617C156.643 341.967 156.118 342.229 155.681 342.404C155.506 342.492 155.332 342.579 155.157 342.492" stroke="#261E60" stroke-width="0.8966" stroke-miterlimit="10"/>
<path d="M168.182 345.641C166.434 346.603 165.21 348.44 165.035 350.364" stroke="#261E60" stroke-width="0.8966" stroke-miterlimit="10"/>
<path d="M144.229 347.827C145.016 348.002 145.716 348.527 146.065 349.227C146.502 349.927 146.677 350.714 146.677 351.501" stroke="#261E60" stroke-width="0.8966" stroke-miterlimit="10"/>
<path d="M387.074 150.172C388.748 141.47 383.056 133.057 374.359 131.382C365.662 129.706 357.254 135.402 355.579 144.104C353.905 152.806 359.597 161.219 368.294 162.895C376.991 164.57 385.399 158.874 387.074 150.172Z" fill="#F8D671"/>
<path d="M438.738 259.72C443.853 259.72 448 255.57 448 250.452C448 245.333 443.853 241.184 438.738 241.184C433.622 241.184 429.476 245.333 429.476 250.452C429.476 255.57 433.622 259.72 438.738 259.72Z" fill="#94B052"/>
<path d="M290.933 61.9012C293.597 61.9012 295.757 59.7403 295.757 57.0747C295.757 54.4091 293.597 52.2483 290.933 52.2483C288.269 52.2483 286.109 54.4091 286.109 57.0747C286.109 59.7403 288.269 61.9012 290.933 61.9012Z" fill="#94B052"/>
<path d="M112.526 80.8707C114.852 70.6834 108.484 60.5384 98.3023 58.2113C88.1211 55.8841 77.9822 62.2561 75.6564 72.4434C73.3307 82.6307 79.6988 92.7757 89.8801 95.1028C100.061 97.4299 110.2 91.058 112.526 80.8707Z" fill="#2A393F"/>
<path d="M49.6851 83.7772C55.1372 81.3898 57.6228 75.032 55.2369 69.5767C52.8509 64.1213 46.4969 61.6342 41.0448 64.0216C35.5927 66.4089 33.107 72.7667 35.493 78.222C37.8789 83.6774 44.2329 86.1645 49.6851 83.7772Z" fill="#FBE698"/>
<path d="M38.2776 138.883C40.9328 136.226 40.9328 131.918 38.2776 129.261C35.6224 126.605 31.3174 126.605 28.6622 129.261C26.007 131.918 26.007 136.226 28.6622 138.883C31.3174 141.539 35.6224 141.539 38.2776 138.883Z" fill="#F8D671"/>
</svg>
