<svg width="64" height="64" viewBox="0 0 64 64" fill="none" xmlns="http://www.w3.org/2000/svg">
<path d="M22.7832 23.1807C22.7832 20.9975 23.6251 17.3163 25.184 14.1859C25.9605 12.6266 26.8934 11.2485 27.9478 10.2696C28.9984 9.29436 30.129 8.75 31.3311 8.75C32.5331 8.75 33.6637 9.29436 34.7143 10.2696C35.7687 11.2485 36.7016 12.6266 37.4781 14.1859C39.0369 17.3163 39.8788 20.9975 39.8788 23.1806C39.8788 28.04 36.0264 31.9626 31.331 31.9626C26.6356 31.9626 22.7832 28.04 22.7832 23.1807Z" stroke="#6C41BF" stroke-width="1.5"/>
<path d="M45.9674 36.2878C47.2612 37.5816 48.9545 40.2763 49.8917 43.0728C50.3583 44.4649 50.6212 45.8355 50.5765 47.0357C50.5321 48.2306 50.1871 49.2034 49.4931 49.8975C48.799 50.5915 47.8262 50.9365 46.6313 50.9809C45.4311 51.0255 44.0605 50.7626 42.6684 50.2961C39.8719 49.3589 37.1773 47.6656 35.8835 46.3718C33.014 43.5023 32.9757 38.915 35.7432 36.1475C38.5106 33.3801 43.0979 33.4183 45.9674 36.2878Z" stroke="#6C41BF" stroke-width="1.5"/>
<path d="M28.0694 44.5384C27.0256 45.5822 24.8349 46.961 22.5577 47.7241C21.4253 48.1036 20.3183 48.3146 19.3557 48.2788C18.3984 48.2432 17.6374 47.9678 17.0993 47.4297C16.5611 46.8916 16.2857 46.1305 16.2501 45.1733C16.2144 44.2107 16.4254 43.1036 16.8049 41.9713C17.568 39.6941 18.9467 37.5034 19.9906 36.4596C22.2934 34.1568 25.9698 34.1299 28.1845 36.3445C30.3991 38.5592 30.3722 42.2356 28.0694 44.5384Z" stroke="#6C41BF" stroke-width="1.5"/>
</svg>
