<svg width="55" height="54" viewBox="0 0 55 54" fill="none" xmlns="http://www.w3.org/2000/svg">
<g clip-path="url(#clip0_461_4345)">
<path d="M24.3154 48.0911H4.10684C2.59624 48.0911 1.37109 46.8659 1.37109 45.3553V7.34025C1.37109 5.82966 2.59624 4.60449 4.10684 4.60449H28.8778C30.3884 4.60449 31.6136 5.82966 31.6136 7.34025V24.1236" stroke="#CB0101" stroke-width="1.76087" stroke-miterlimit="10" stroke-linecap="round" stroke-linejoin="round"/>
<path d="M13.06 21.4996C11.7294 21.1878 10.3199 21.8684 9.64803 23.0453C8.55021 24.9731 9.92023 26.6812 11.4089 28.0733C13.3235 29.8605 15.6596 31.5643 16.4896 34.0059C17.3151 31.5643 19.6556 29.8561 21.5702 28.0733C23.0589 26.6812 24.4289 24.9731 23.3311 23.0453C22.5451 21.6708 20.7227 21.0078 19.2648 21.684" stroke="#CB0101" stroke-width="1.65381" stroke-miterlimit="10" stroke-linecap="round" stroke-linejoin="round"/>
<path d="M6.90977 9.82123L7.03669 9.91211L7.16421 9.82209C7.25178 9.76028 7.34719 9.68764 7.43964 9.61725C7.50297 9.56902 7.56492 9.52185 7.62201 9.47995C7.77308 9.36905 7.91816 9.27294 8.06478 9.20542L8.06529 9.20519C8.43767 9.03254 8.9279 9.20254 9.13445 9.56663L9.13455 9.5668C9.276 9.81563 9.26074 10.0425 9.15494 10.2696C9.04312 10.5097 8.83155 10.7438 8.58755 10.9705L8.58739 10.9707C8.48277 11.0681 8.36994 11.1686 8.25421 11.2717C8.0342 11.4677 7.80368 11.673 7.59898 11.8843C7.39261 12.0972 7.19885 12.3289 7.04629 12.5881C6.89368 12.3293 6.69993 12.0983 6.49366 11.8858C6.29434 11.6804 6.06916 11.4792 5.85365 11.2867C5.73261 11.1785 5.61462 11.0731 5.50597 10.9712L5.50522 10.9705C5.26122 10.7438 5.04963 10.5097 4.93781 10.2696C4.83205 10.0426 4.81674 9.81586 4.95795 9.56719C5.13796 9.25334 5.51334 9.07736 5.8536 9.15805C6.03415 9.20142 6.20198 9.29454 6.37597 9.41712C6.46289 9.47835 6.54822 9.54462 6.63715 9.61405C6.64183 9.61771 6.64653 9.62138 6.65124 9.62506C6.73449 9.69008 6.82138 9.75794 6.90977 9.82123Z" fill="#CB0101" stroke="#CB0101" stroke-width="0.439125"/>
<path d="M25.0254 2.45241C25.4645 1.20529 26.7072 0.840827 27.9543 1.27995L51.9525 9.76384C53.1996 10.203 53.854 11.573 53.4105 12.8202L48.7118 26.1125" stroke="#000066" stroke-width="1.76087" stroke-miterlimit="10" stroke-linecap="round" stroke-linejoin="round"/>
<path d="M37.699 41.6932V41.4772L37.4831 41.4737C37.0598 41.4667 36.6298 41.3513 36.3407 41.1959L36.4117 40.997C36.7476 41.1682 37.1687 41.2892 37.6156 41.2892C37.9839 41.2892 38.31 41.1828 38.5482 40.9841C38.7891 40.7833 38.9285 40.4969 38.9285 40.1694C38.9285 39.8559 38.8134 39.5969 38.6001 39.3823C38.3948 39.1757 38.1037 39.0151 37.7558 38.8728L37.7558 38.8728L37.7532 38.8718C37.2927 38.6902 36.9466 38.5052 36.7165 38.2842C36.4956 38.0721 36.3772 37.8232 36.3772 37.4864C36.3772 36.8484 36.8201 36.3493 37.5812 36.2231L37.7648 36.1927V36.0065V35.2995H37.8966V35.9714V36.1841L38.1092 36.1909C38.5147 36.2037 38.8111 36.2921 39.0364 36.3968L38.9639 36.5893C38.7292 36.4811 38.3844 36.3666 37.923 36.3666C37.5247 36.3666 37.2216 36.4865 37.0171 36.6859C36.8145 36.8835 36.7285 37.1402 36.7285 37.3766C36.7285 37.6824 36.8428 37.9208 37.073 38.1209C37.2875 38.3072 37.6026 38.4602 38.0018 38.6247L38.0026 38.6251C38.463 38.8126 38.7828 39.0129 38.9875 39.2461C39.1861 39.4723 39.2886 39.7431 39.2886 40.1036C39.2886 40.7152 38.8669 41.3089 38.0186 41.4503L37.8351 41.4809V41.6669V42.4046H37.699V41.6932Z" fill="#CB0101" stroke="#CB0101" stroke-width="0.439125"/>
<path d="M41.7013 26.1172L40.8098 28.7871C40.5947 29.4326 44.2877 31.4174 44.7049 30.8817L46.4131 28.6949" stroke="#000066" stroke-width="1.31738" stroke-miterlimit="10" stroke-linecap="round" stroke-linejoin="round"/>
<path d="M29.082 28.7739L30.9263 30.9081C31.3523 31.435 35.0102 29.3843 34.7863 28.7432L33.8597 26.126" stroke="#000066" stroke-width="1.31738" stroke-miterlimit="10" stroke-linecap="round" stroke-linejoin="round"/>
<path d="M24.7188 41.3641L26.5367 41.0611L27.4941 40.9031C28.1659 40.7933 28.1878 36.5996 27.516 36.4811L24.7802 35.998" stroke="#000066" stroke-width="1.31738" stroke-miterlimit="10" stroke-linecap="round" stroke-linejoin="round"/>
<path d="M33.4921 51.4506L34.467 48.8114C34.7041 48.1747 31.0725 46.0757 30.6378 46.5982L28.8594 48.7324" stroke="#000066" stroke-width="1.31738" stroke-miterlimit="10" stroke-linecap="round" stroke-linejoin="round"/>
<path d="M46.5979 48.8341L44.7886 46.678C44.3539 46.1554 40.7311 48.2676 40.9639 48.9044L41.9343 51.504" stroke="#000066" stroke-width="1.31738" stroke-miterlimit="10" stroke-linecap="round" stroke-linejoin="round"/>
<path d="M50.8324 36.1562L48.0615 36.6569C47.394 36.7754 47.4292 40.9691 48.0966 41.0789L50.8368 41.5267" stroke="#000066" stroke-width="1.31738" stroke-miterlimit="10" stroke-linecap="round" stroke-linejoin="round"/>
<path d="M38.1165 27.9395C38.1165 28.1169 37.9733 28.2601 37.796 28.2601C37.6186 28.2601 37.4754 28.1169 37.4754 27.9395C37.4754 27.7622 37.6186 27.619 37.796 27.619C37.9733 27.619 38.1165 27.7622 38.1165 27.9395Z" fill="#000066" stroke="#000066" stroke-width="0.439125"/>
<path d="M47.4365 33.7338L47.4365 33.7338L47.4341 33.7352C47.2823 33.8226 47.0863 33.7701 46.9962 33.6138C46.9088 33.462 46.9613 33.266 47.1176 33.1759C47.2691 33.0886 47.4648 33.1408 47.5551 33.2966C47.6445 33.4553 47.5878 33.6491 47.4365 33.7338Z" fill="#000066" stroke="#000066" stroke-width="0.439125"/>
<path d="M46.9415 44.1823L46.9416 44.1823L46.9438 44.1784C47.0325 44.0245 47.2298 43.9743 47.3778 44.0636C47.5355 44.1587 47.5835 44.3557 47.4965 44.4999C47.4033 44.6543 47.2097 44.7047 47.0563 44.6163C46.9024 44.5276 46.8522 44.3302 46.9415 44.1823Z" fill="#000066" stroke="#000066" stroke-width="0.439125"/>
<path d="M37.4715 49.755C37.4715 49.5776 37.6147 49.4344 37.7921 49.4344C37.9694 49.4344 38.1126 49.5776 38.1126 49.755C38.1126 49.9323 37.9694 50.0755 37.7921 50.0755C37.618 50.0755 37.4715 49.9312 37.4715 49.755Z" fill="#000066" stroke="#000066" stroke-width="0.439125"/>
<path d="M28.2275 44.1004C28.3831 44.0116 28.5776 44.0618 28.6692 44.2149C28.7583 44.3709 28.7076 44.566 28.5535 44.6574C28.4014 44.7476 28.2065 44.6983 28.113 44.5421C28.0241 44.3865 28.0744 44.1921 28.2275 44.1004Z" fill="#000066" stroke="#000066" stroke-width="0.439125"/>
<path d="M51.1203 39.0357C51.2159 31.6807 45.3311 25.6408 37.9761 25.5452C30.6212 25.4496 24.5813 31.3344 24.4856 38.6894C24.39 46.0444 30.2749 52.0842 37.6298 52.1799C44.9848 52.2755 51.0247 46.3906 51.1203 39.0357Z" stroke="#000066" stroke-width="1.76087" stroke-miterlimit="10" stroke-linecap="round" stroke-linejoin="round"/>
<path d="M28.4486 33.2108L28.4486 33.2108L28.451 33.2122C28.603 33.2972 28.6594 33.4965 28.573 33.6511C28.488 33.803 28.2886 33.8595 28.1341 33.773C27.9823 33.6882 27.9258 33.4891 28.0119 33.3346C28.1026 33.1752 28.2977 33.1238 28.4486 33.2108Z" fill="#000066" stroke="#000066" stroke-width="0.439125"/>
<path d="M36.4531 46.5935V44.916" stroke="#000066" stroke-width="1.31738" stroke-miterlimit="10" stroke-linecap="round" stroke-linejoin="round"/>
<path d="M38.7383 46.6857V44.916" stroke="#000066" stroke-width="1.31738" stroke-miterlimit="10" stroke-linecap="round" stroke-linejoin="round"/>
<path d="M36.4531 32.6786V31.168" stroke="#000066" stroke-width="1.31738" stroke-miterlimit="10" stroke-linecap="round" stroke-linejoin="round"/>
<path d="M38.7383 32.762V31.168" stroke="#000066" stroke-width="1.31738" stroke-miterlimit="10" stroke-linecap="round" stroke-linejoin="round"/>
<path d="M45.5505 39.6562H43.8203" stroke="#000066" stroke-width="1.31738" stroke-miterlimit="10" stroke-linecap="round" stroke-linejoin="round"/>
<path d="M45.5509 37.5829H43.7812" stroke="#000066" stroke-width="1.31738" stroke-miterlimit="10" stroke-linecap="round" stroke-linejoin="round"/>
<path d="M41.4458 45.7989C45.2985 43.7826 46.7871 39.0248 44.7708 35.1721C42.7544 31.3194 37.9966 29.8307 34.1439 31.8471C30.2912 33.8635 28.8026 38.6213 30.8189 42.474C32.8353 46.3267 37.5931 47.8153 41.4458 45.7989Z" stroke="#000066" stroke-width="1.31738" stroke-miterlimit="10" stroke-linecap="round" stroke-linejoin="round"/>
<path d="M30.0859 37.5829H31.7195" stroke="#000066" stroke-width="1.31738" stroke-miterlimit="10" stroke-linecap="round" stroke-linejoin="round"/>
<path d="M29.9863 39.9277H31.7209" stroke="#000066" stroke-width="1.31738" stroke-miterlimit="10" stroke-linecap="round" stroke-linejoin="round"/>
</g>
<defs>
<clipPath id="clip0_461_4345">
<rect width="54" height="54" fill="white" transform="translate(0.5)"/>
</clipPath>
</defs>
</svg>
