<svg width="41" height="40" viewBox="0 0 41 40" fill="none" xmlns="http://www.w3.org/2000/svg">
<path d="M32.7759 39.4701C32.6842 39.4777 32.592 39.4777 32.5003 39.4701L13.0541 36.0409C12.6388 35.9685 12.2692 35.734 12.0267 35.3892C11.7842 35.0443 11.6886 34.6172 11.7609 34.2018L17.3949 1.82847C17.4596 1.46063 17.6518 1.12731 17.9377 0.886965C18.2236 0.646623 18.585 0.514611 18.9585 0.514039C19.0502 0.506062 19.1424 0.506062 19.2341 0.514039L38.6909 3.9009C39.1063 3.97336 39.4758 4.20779 39.7183 4.55268C39.9609 4.89757 40.0565 5.32467 39.9842 5.74004L34.3395 38.161C34.2737 38.5279 34.081 38.86 33.7952 39.0993C33.5094 39.3385 33.1487 39.4698 32.7759 39.4701Z" fill="#0A4586"/>
<path d="M18.9479 1.06003C19.0096 1.05479 19.0716 1.05479 19.1333 1.06003L38.5902 4.44677C38.8671 4.49467 39.1136 4.65054 39.2756 4.88012C39.4376 5.1097 39.5018 5.39423 39.4541 5.67113L33.8201 38.0445C33.7772 38.2934 33.6468 38.5188 33.4525 38.6801C33.2581 38.8414 33.0126 38.9279 32.7601 38.9242H32.5745L13.1177 35.5375C12.8418 35.4884 12.5966 35.3319 12.4357 35.1025C12.2748 34.873 12.2113 34.5893 12.2591 34.3131L17.8931 1.9345C17.9372 1.68659 18.068 1.4625 18.2622 1.30226C18.4565 1.14202 18.7014 1.05615 18.9532 1.06003H18.9479ZM18.9532 0C18.4552 0.00124987 17.9736 0.177669 17.5927 0.498441C17.2119 0.819214 16.9561 1.2639 16.8702 1.75438L11.2308 34.1276C11.1829 34.4022 11.1895 34.6836 11.2504 34.9556C11.3114 35.2276 11.4253 35.485 11.5858 35.713C11.7463 35.9409 11.9502 36.1349 12.1857 36.284C12.4213 36.4331 12.684 36.5342 12.9587 36.5816L32.4155 39.9684C32.6902 40.0163 32.9715 40.0097 33.2436 39.9488C33.5156 39.8879 33.7729 39.7739 34.0009 39.6134C34.2288 39.4529 34.4228 39.2491 34.5719 39.0135C34.7209 38.7779 34.8221 38.5152 34.8695 38.2405L40.5036 5.8673C40.5989 5.31349 40.4704 4.74443 40.1464 4.28528C39.8224 3.82612 39.3294 3.51438 38.7757 3.41857L19.3188 0.0318319C19.1981 0.0106779 19.0757 6.66268e-06 18.9532 0Z" fill="#0A4586"/>
<path d="M28.229 3.41846H8.48067C7.60251 3.41846 6.89062 4.13034 6.89062 5.0085V37.8694C6.89062 38.7476 7.60251 39.4594 8.48067 39.4594H28.229C29.1072 39.4594 29.8191 38.7476 29.8191 37.8694V5.0085C29.8191 4.13034 29.1072 3.41846 28.229 3.41846Z" fill="white"/>
<path d="M28.2288 3.9487C28.5099 3.9487 28.7795 4.06046 28.9783 4.25926C29.1771 4.45805 29.2888 4.72759 29.2888 5.00873V37.8696C29.2888 38.1508 29.1771 38.4204 28.9783 38.6192C28.7795 38.818 28.5099 38.9297 28.2288 38.9297H8.48041C8.19927 38.9297 7.92967 38.818 7.73087 38.6192C7.53208 38.4204 7.42038 38.1508 7.42038 37.8696V5.00873C7.42038 4.72759 7.53208 4.45805 7.73087 4.25926C7.92967 4.06046 8.19927 3.9487 8.48041 3.9487H28.2288ZM28.2288 2.88867H8.48041C7.91814 2.88867 7.37889 3.11207 6.9813 3.50965C6.58371 3.90724 6.36035 4.44646 6.36035 5.00873V37.8696C6.36035 38.4319 6.58371 38.9711 6.9813 39.3687C7.37889 39.7663 7.91814 39.9897 8.48041 39.9897H28.2288C28.791 39.9897 29.3302 39.7663 29.7278 39.3687C30.1254 38.9711 30.3488 38.4319 30.3488 37.8696V5.00873C30.3488 4.44646 30.1254 3.90724 29.7278 3.50965C29.3302 3.11207 28.791 2.88867 28.2288 2.88867Z" fill="#0A4586"/>
<path d="M26.7548 33.9211L26.617 33.126H25.9916L25.8538 33.9211H25.4033L26.0022 30.741H26.6064L27.2053 33.9211H26.7548ZM26.5323 32.6013L26.405 31.8647C26.405 31.8223 26.405 31.7109 26.352 31.5307C26.299 31.3505 26.3096 31.2286 26.3043 31.1703C26.3043 31.2922 26.2725 31.43 26.2513 31.5784C26.2301 31.7268 26.1718 32.0713 26.0764 32.6013H26.5323Z" fill="#0A4586"/>
<path d="M10.8545 9.01017L10.7167 8.21514H10.0912L9.95346 9.01017H9.50293L10.1018 5.83008H10.7061L11.305 9.01017H10.8545ZM10.6319 7.69043L10.5047 6.95377C10.5047 6.91137 10.4782 6.8 10.4517 6.61979C10.4252 6.43959 10.4093 6.31772 10.404 6.25942C10.404 6.38132 10.3722 6.51914 10.351 6.66754C10.3298 6.81595 10.2715 7.16042 10.1761 7.69043H10.6319Z" fill="#0A4586"/>
<path d="M26.3519 34.451C26.3373 34.4431 26.3209 34.439 26.3042 34.439C26.2876 34.439 26.2712 34.4431 26.2566 34.451C26.0287 34.5888 25.0693 35.2196 25.0693 35.9404C25.0693 36.0292 25.0869 36.1172 25.121 36.1992C25.1552 36.2812 25.2053 36.3557 25.2684 36.4182C25.3314 36.4808 25.4062 36.5303 25.4885 36.5638C25.5708 36.5973 25.6589 36.6142 25.7477 36.6135C25.8644 36.6137 25.9792 36.5845 26.0816 36.5286C26.088 36.5253 26.0952 36.5239 26.1024 36.5246C26.1095 36.5253 26.1163 36.5281 26.1219 36.5326C26.1275 36.5371 26.1318 36.5431 26.134 36.55C26.1363 36.5568 26.1365 36.5641 26.1347 36.5711C26.0816 36.716 26.0065 36.8519 25.912 36.9739C25.9044 36.9848 25.8999 36.9976 25.8989 37.0109C25.8979 37.0242 25.9006 37.0375 25.9065 37.0494C25.9125 37.0614 25.9216 37.0716 25.9328 37.0788C25.944 37.086 25.957 37.09 25.9703 37.0905H26.6488C26.6617 37.0891 26.674 37.0844 26.6845 37.0769C26.695 37.0693 26.7033 37.0592 26.7087 37.0474C26.714 37.0356 26.7162 37.0226 26.715 37.0097C26.7138 36.9968 26.7092 36.9845 26.7018 36.9739C26.6107 36.8524 26.5375 36.7186 26.4844 36.5764C26.4844 36.5446 26.4845 36.5127 26.5322 36.5286C26.6322 36.5856 26.7457 36.615 26.8608 36.6135C26.9496 36.6142 27.0377 36.5973 27.12 36.5638C27.2023 36.5303 27.2771 36.4808 27.3401 36.4182C27.4032 36.3557 27.4533 36.2812 27.4875 36.1992C27.5216 36.1172 27.5392 36.0292 27.5392 35.9404C27.5392 35.2302 26.5798 34.5994 26.3519 34.451Z" fill="#0A4586"/>
<path d="M26.0233 36.5711C25.2654 36.1524 25.9809 34.8909 26.3096 34.451C26.2922 34.446 26.2739 34.446 26.2566 34.451C26.0287 34.5888 25.0693 35.2196 25.0693 35.9404C25.0702 36.053 25.099 36.1635 25.1533 36.2622C25.2076 36.3609 25.2856 36.4445 25.3802 36.5055C25.4749 36.5665 25.5832 36.603 25.6955 36.6117C25.8078 36.6204 25.9204 36.6009 26.0233 36.5552V36.5711Z" fill="#093B73"/>
<path d="M26.1769 37.0004C26.2193 36.6347 26.2193 36.5339 26.108 36.5339C26.1128 36.541 26.1153 36.5494 26.1153 36.5579C26.1153 36.5664 26.1128 36.5746 26.108 36.5817C26.055 36.7266 25.9799 36.8625 25.8854 36.9845C25.8778 36.9954 25.8732 37.0082 25.8723 37.0215C25.8713 37.0348 25.8739 37.0481 25.8799 37.0601C25.8859 37.072 25.8949 37.0821 25.9062 37.0893C25.9174 37.0965 25.9304 37.1006 25.9437 37.1011H26.1982C26.177 37.1011 26.1716 37.0375 26.1769 37.0004Z" fill="#093B73"/>
<path d="M10.4516 9.87931C10.4378 9.86899 10.4211 9.86353 10.4039 9.86353C10.3867 9.86353 10.3699 9.86899 10.3562 9.87931C10.1283 10.0171 9.16895 10.6426 9.16895 11.3634C9.16895 11.5433 9.24044 11.716 9.36767 11.8432C9.4949 11.9704 9.66745 12.0418 9.84738 12.0418C9.96483 12.0429 10.0803 12.0118 10.1813 11.9518C10.1877 11.9484 10.1949 11.947 10.202 11.9477C10.2092 11.9484 10.216 11.9511 10.2216 11.9556C10.2272 11.9601 10.2314 11.9661 10.2337 11.973C10.2359 11.9798 10.2361 11.9871 10.2343 11.9941C10.1825 12.1412 10.1073 12.279 10.0117 12.4022C10.0035 12.4126 9.9985 12.4252 9.99729 12.4384C9.99608 12.4516 9.9987 12.465 10.0049 12.4767C10.011 12.4885 10.0204 12.4983 10.032 12.5048C10.0436 12.5113 10.0567 12.5144 10.07 12.5136H10.7484C10.7612 12.5134 10.7737 12.5095 10.7844 12.5026C10.7952 12.4957 10.8038 12.4858 10.8093 12.4743C10.8148 12.4627 10.817 12.4498 10.8156 12.4371C10.8142 12.4244 10.8093 12.4123 10.8014 12.4022C10.7095 12.2794 10.6363 12.1436 10.5841 11.9994C10.5785 11.993 10.5756 11.9848 10.5761 11.9763C10.5766 11.9679 10.5804 11.96 10.5867 11.9543C10.5931 11.9487 10.6014 11.9458 10.6098 11.9463C10.6183 11.9468 10.6262 11.9507 10.6318 11.9571C10.7328 12.0117 10.8456 12.0407 10.9604 12.0418C11.0495 12.0418 11.1377 12.0243 11.22 11.9902C11.3023 11.9561 11.3771 11.9062 11.4401 11.8432C11.5031 11.7802 11.5531 11.7054 11.5872 11.6231C11.6213 11.5408 11.6388 11.4525 11.6388 11.3634C11.6388 10.6426 10.6795 10.0171 10.4516 9.87931Z" fill="#0A4586"/>
<path d="M10.123 11.9837C9.36504 11.5597 10.0806 10.2983 10.4092 9.86366C10.3918 9.85892 10.3735 9.85892 10.3562 9.86366C10.1283 10.0015 9.16895 10.6268 9.16895 11.3476C9.16891 11.4607 9.19714 11.572 9.25105 11.6713C9.30496 11.7707 9.38287 11.8551 9.47766 11.9167C9.57245 11.9783 9.68111 12.0152 9.79381 12.0241C9.90651 12.033 10.0197 12.0137 10.123 11.9678V11.9837Z" fill="#093B73"/>
<path d="M10.2769 12.4129C10.3193 12.0525 10.3193 11.9465 10.208 11.9465C10.2128 11.9536 10.2153 11.9618 10.2153 11.9703C10.2153 11.9788 10.2128 11.9871 10.208 11.9942C10.1562 12.1413 10.081 12.2791 9.98539 12.4023C9.9772 12.4127 9.9722 12.4253 9.97099 12.4385C9.96978 12.4517 9.9724 12.4651 9.97856 12.4768C9.98472 12.4886 9.99412 12.4984 10.0057 12.5049C10.0172 12.5114 10.0304 12.5145 10.0437 12.5137H10.2981C10.2769 12.5137 10.2716 12.45 10.2769 12.4129Z" fill="#093B73"/>
<path d="M18.471 18.3968C18.4366 18.3733 18.396 18.3608 18.3544 18.3608C18.3128 18.3608 18.2721 18.3733 18.2378 18.3968C17.7078 18.7307 15.3916 20.236 15.3916 21.9638C15.393 22.3944 15.5651 22.8069 15.8701 23.1109C16.175 23.4149 16.5881 23.5857 17.0187 23.5857C17.3013 23.5879 17.5794 23.5147 17.8244 23.3737C17.8397 23.3644 17.8577 23.3602 17.8756 23.3617C17.8935 23.3632 17.9104 23.3703 17.924 23.3821C17.9376 23.3939 17.947 23.4098 17.951 23.4273C17.955 23.4448 17.9533 23.4632 17.9462 23.4797C17.8196 23.8279 17.6409 24.1549 17.4162 24.4495C17.398 24.4754 17.3872 24.5058 17.3848 24.5373C17.3824 24.5688 17.3886 24.6004 17.4028 24.6286C17.4169 24.6569 17.4384 24.6808 17.4651 24.6979C17.4917 24.7149 17.5224 24.7242 17.554 24.7252H19.1759C19.2079 24.7252 19.2392 24.7162 19.2662 24.6991C19.2933 24.6821 19.315 24.6579 19.3289 24.6291C19.3427 24.6003 19.3481 24.5681 19.3445 24.5364C19.3409 24.5046 19.3284 24.4745 19.3084 24.4495C19.0846 24.1582 18.9059 23.8349 18.7784 23.4903C18.7713 23.4738 18.7696 23.4554 18.7736 23.4379C18.7776 23.4204 18.7871 23.4045 18.8007 23.3927C18.8142 23.3809 18.8311 23.3738 18.8491 23.3723C18.867 23.3708 18.8849 23.375 18.9003 23.3843C19.1477 23.5205 19.4262 23.5898 19.7085 23.5857C19.9908 23.5815 20.2672 23.504 20.5105 23.3607C20.7538 23.2174 20.9556 23.0133 21.0961 22.7684C21.2366 22.5235 21.3109 22.2462 21.3118 21.9638C21.3171 20.236 19.0169 18.7307 18.471 18.3968Z" fill="#0A4586"/>
<path d="M17.6812 23.4425C15.858 22.4355 17.5753 19.4037 18.3703 18.3649C18.3237 18.3593 18.2767 18.3707 18.2378 18.3967C17.7078 18.7307 15.3916 20.2359 15.3916 21.9637C15.393 22.3944 15.5651 22.8068 15.8701 23.1109C16.175 23.4149 16.5881 23.5856 17.0187 23.5856C17.2475 23.588 17.4739 23.5391 17.6812 23.4425Z" fill="#093B73"/>
<path d="M18.0475 24.4866C18.1535 23.6121 18.1481 23.363 17.8831 23.363C17.9068 23.3704 17.9267 23.3867 17.9386 23.4085C17.9504 23.4302 17.9533 23.4557 17.9467 23.4796C17.8201 23.8279 17.6414 24.1548 17.4167 24.4495C17.3985 24.4753 17.3876 24.5057 17.3853 24.5372C17.3829 24.5687 17.3891 24.6003 17.4032 24.6286C17.4174 24.6568 17.4389 24.6808 17.4656 24.6978C17.4922 24.7148 17.5229 24.7242 17.5545 24.7251H18.164C18.0421 24.7251 18.0369 24.5714 18.0475 24.4866Z" fill="#093B73"/>
<path d="M21.8687 3.41846H2.12032C1.24216 3.41846 0.530273 4.13034 0.530273 5.0085V37.8694C0.530273 38.7476 1.24216 39.4594 2.12032 39.4594H21.8687C22.7468 39.4594 23.4587 38.7476 23.4587 37.8694V5.0085C23.4587 4.13034 22.7468 3.41846 21.8687 3.41846Z" fill="white"/>
<path d="M21.8684 3.9487C22.1495 3.9487 22.4192 4.06046 22.6179 4.25926C22.8167 4.45805 22.9284 4.72759 22.9284 5.00873V37.8696C22.9284 38.1508 22.8167 38.4204 22.6179 38.6192C22.4192 38.818 22.1495 38.9297 21.8684 38.9297H2.12006C1.83892 38.9297 1.56931 38.818 1.37052 38.6192C1.17173 38.4204 1.06003 38.1508 1.06003 37.8696V5.00873C1.06003 4.72759 1.17173 4.45805 1.37052 4.25926C1.56931 4.06046 1.83892 3.9487 2.12006 3.9487H21.8684ZM21.8684 2.88867H2.12006C1.55778 2.88867 1.01854 3.11207 0.620949 3.50965C0.223361 3.90724 0 4.44646 0 5.00873V37.8696C0 38.4319 0.223361 38.9711 0.620949 39.3687C1.01854 39.7663 1.55778 39.9897 2.12006 39.9897H21.8684C22.4307 39.9897 22.9699 39.7663 23.3675 39.3687C23.7651 38.9711 23.9885 38.4319 23.9885 37.8696V5.00873C23.9885 4.44646 23.7651 3.90724 23.3675 3.50965C22.9699 3.11207 22.4307 2.88867 21.8684 2.88867Z" fill="#0A4586"/>
<path d="M8.81451 20.4533C8.81181 20.1102 8.91104 19.7739 9.09964 19.4872C9.28823 19.2005 9.55771 18.9762 9.87389 18.8428C10.1901 18.7094 10.5387 18.6729 10.8757 18.7379C11.2127 18.8029 11.5228 18.9663 11.7667 19.2077C11.8232 19.2634 11.8993 19.2946 11.9787 19.2946C12.058 19.2946 12.1342 19.2634 12.1907 19.2077C12.4346 18.9663 12.7447 18.8029 13.0817 18.7379C13.4186 18.6729 13.7674 18.7094 14.0835 18.8428C14.3997 18.9762 14.6691 19.2005 14.8577 19.4872C15.0463 19.7739 15.1455 20.1102 15.1428 20.4533C15.1428 22.2554 12.8214 23.893 12.1536 24.3276C12.1014 24.3612 12.0407 24.3791 11.9787 24.3791C11.9167 24.3791 11.856 24.3612 11.8038 24.3276C11.136 23.893 8.81451 22.2554 8.81451 20.4533Z" fill="#ED2939"/>
<path d="M11.2735 18.8581C11.009 18.7377 10.7184 18.686 10.4286 18.7077C10.1387 18.7295 9.85908 18.824 9.61548 18.9826C9.37189 19.1411 9.17221 19.3585 9.03494 19.6147C8.89767 19.8709 8.82725 20.1575 8.83017 20.4481C8.83017 22.2502 11.1516 23.8878 11.8194 24.3224C11.8718 24.3558 11.9323 24.3742 11.9943 24.3755C9.62517 21.1424 10.4679 19.3298 11.2735 18.8581Z" fill="#B32D11"/>
<path d="M20.3945 33.9211L20.2567 33.126H19.6313L19.4935 33.9211H19.043L19.6419 30.741H20.246L20.845 33.9211H20.3945ZM20.1719 32.6013L20.0446 31.8647C20.0446 31.8223 20.0447 31.7109 19.9917 31.5307C19.9386 31.3505 19.9493 31.2286 19.944 31.1703C19.944 31.2922 19.9122 31.43 19.891 31.5784C19.8698 31.7268 19.8114 32.0713 19.716 32.6013H20.1719Z" fill="#FF4019"/>
<path d="M18.6455 35.511C18.6469 35.3216 18.7227 35.1405 18.8566 35.0066C18.9904 34.8727 19.1717 34.7968 19.361 34.7954C19.5478 34.7961 19.7268 34.8705 19.8592 35.0022C19.8701 35.0137 19.8832 35.0229 19.8978 35.0292C19.9124 35.0355 19.9281 35.0387 19.944 35.0387C19.9599 35.0387 19.9756 35.0355 19.9902 35.0292C20.0048 35.0229 20.0179 35.0137 20.0288 35.0022C20.1297 34.9005 20.259 34.8317 20.3997 34.8049C20.5404 34.778 20.6859 34.7942 20.8172 34.8516C20.9485 34.9089 21.0593 35.0046 21.1353 35.126C21.2112 35.2475 21.2485 35.3891 21.2425 35.5322C21.2425 36.2689 20.2885 36.942 20.0182 37.1222C19.9957 37.1353 19.9701 37.142 19.944 37.142C19.918 37.142 19.8924 37.1353 19.8698 37.1222C19.5995 36.942 18.6455 36.2689 18.6455 35.5322" fill="#ED2939"/>
<path d="M19.6472 34.838C19.5577 34.7956 19.46 34.774 19.361 34.7744C19.1717 34.7758 18.9904 34.8516 18.8566 34.9855C18.7227 35.1194 18.6469 35.3005 18.6455 35.4899C18.6455 36.2266 19.5995 36.8997 19.8698 37.0799C19.8943 37.0846 19.9195 37.0846 19.944 37.0799C18.9741 35.7708 19.3186 35.0288 19.6472 34.838Z" fill="#B32D11"/>
<path d="M4.49411 9.01017L4.35633 8.21514H3.73089L3.59311 9.01017H3.14258L3.7415 5.83008H4.34572L4.94464 9.01017H4.49411ZM4.27151 7.69043L4.14431 6.95377C4.14431 6.91137 4.11783 6.8 4.09132 6.61979C4.06482 6.43959 4.04891 6.31772 4.04361 6.25942C4.04361 6.38132 4.01182 6.51914 3.99062 6.66754C3.96942 6.81595 3.91111 7.16042 3.81571 7.69043H4.27151Z" fill="#FF4019"/>
<path d="M2.74512 10.6003C2.7465 10.411 2.82234 10.2298 2.95623 10.0959C3.09012 9.96206 3.27132 9.88615 3.46066 9.88477C3.64745 9.88547 3.82644 9.95981 3.95887 10.0915C3.96977 10.1031 3.98291 10.1123 3.9975 10.1186C4.01208 10.1249 4.02778 10.128 4.04366 10.128C4.05954 10.128 4.07524 10.1249 4.08982 10.1186C4.1044 10.1123 4.11755 10.1031 4.12845 10.0915C4.22934 9.98987 4.35864 9.92109 4.49933 9.89421C4.64003 9.86734 4.78554 9.8836 4.91681 9.94093C5.04807 9.99825 5.15895 10.0939 5.23487 10.2154C5.31078 10.3368 5.3482 10.4784 5.3422 10.6216C5.3422 11.3583 4.38818 12.0314 4.11787 12.2116C4.09531 12.2246 4.06971 12.2314 4.04366 12.2314C4.01761 12.2314 3.99201 12.2246 3.96945 12.2116C3.69914 12.0314 2.74512 11.3583 2.74512 10.6216" fill="#ED2939"/>
<path d="M3.74685 9.92707C3.6574 9.88476 3.55961 9.86309 3.46066 9.86353C3.27132 9.86492 3.09012 9.94069 2.95623 10.0746C2.82234 10.2085 2.7465 10.3896 2.74512 10.579C2.74512 11.3157 3.69914 11.9888 3.96945 12.169C3.99396 12.1737 4.01915 12.1737 4.04366 12.169C3.07373 10.8599 3.41824 10.1179 3.74685 9.92707Z" fill="#B32D11"/>
</svg>
