<svg width="55" height="54" viewBox="0 0 55 54" fill="none" xmlns="http://www.w3.org/2000/svg">
<rect x="0.5" width="54" height="54" rx="27" fill="#0D4EE3"/>
<g clip-path="url(#clip0_387_25852)">
<path d="M24.3 28.0668H14.1667V20.0668C14.1667 19.7722 14.4054 19.5335 14.7 19.5335H16.3C16.5946 19.5335 16.8333 19.2947 16.8333 19.0001C16.8333 18.7056 16.5946 18.4668 16.3 18.4668H14.7C13.8163 18.4668 13.1 19.1831 13.1 20.0668V28.1425C12.161 28.385 11.5036 29.2303 11.5 30.2001V36.6001C11.5 37.7783 12.4551 38.7335 13.6333 38.7335H16.8333V39.8001C15.9497 39.8001 15.2333 40.5165 15.2333 41.4001V41.9335C15.2333 42.5226 15.7109 43.0001 16.3 43.0001H21.6333C22.2224 43.0001 22.7 42.5226 22.7 41.9335V41.4001C22.7 40.5165 21.9837 39.8001 21.1 39.8001V38.7335H24.3C25.4782 38.7335 26.4333 37.7783 26.4333 36.6001V30.2001C26.4333 29.0219 25.4782 28.0668 24.3 28.0668ZM21.1 40.8668C21.3946 40.8668 21.6333 41.1056 21.6333 41.4001V41.9335H16.3V41.4001C16.3 41.1056 16.5388 40.8668 16.8333 40.8668C17.4224 40.8668 17.9 40.3892 17.9 39.8001V38.7335H20.0333V39.8001C20.0333 40.3892 20.5109 40.8668 21.1 40.8668ZM20.5667 37.6668H16.3V37.1335C16.3004 36.2904 16.6995 35.4971 17.3763 34.9943C18.3145 35.7138 19.6189 35.7138 20.5571 34.9943C21.2338 35.4971 21.6329 36.2904 21.6333 37.1335V37.6668H20.5667ZM18.9667 34.4668C18.083 34.4668 17.3667 33.7505 17.3667 32.8668C17.3667 31.9831 18.083 31.2668 18.9667 31.2668C19.8503 31.2668 20.5667 31.9831 20.5667 32.8668C20.5667 33.7505 19.8503 34.4668 18.9667 34.4668ZM25.3667 36.6001C25.3667 37.1892 24.8891 37.6668 24.3 37.6668H22.7V37.1335C22.6976 35.9869 22.1679 34.9052 21.2637 34.2001C21.5035 33.7966 21.6311 33.3362 21.6333 32.8668C21.6333 31.394 20.4394 30.2001 18.9667 30.2001C17.4939 30.2001 16.3 31.394 16.3 32.8668C16.3022 33.3362 16.4298 33.7966 16.6696 34.2001C15.7654 34.9052 15.2357 35.9869 15.2333 37.1335V37.6668H13.6333C13.0442 37.6668 12.5667 37.1892 12.5667 36.6001V30.2001C12.5667 29.611 13.0442 29.1335 13.6333 29.1335H24.3C24.8891 29.1335 25.3667 29.611 25.3667 30.2001V36.6001Z" fill="white"/>
<path d="M41.8997 28.1427V19.5336C41.8997 18.6499 41.1834 17.9336 40.2997 17.9336H37.6331C37.3385 17.9336 37.0997 18.1724 37.0997 18.4669C37.0997 18.7615 37.3385 19.0003 37.6331 19.0003H40.2997C40.5943 19.0003 40.8331 19.239 40.8331 19.5336V28.0669H30.6997C29.5215 28.0669 28.5664 29.0221 28.5664 30.2003V36.6003C28.5664 37.7785 29.5215 38.7336 30.6997 38.7336H33.8997V39.8003C33.0161 39.8003 32.2997 40.5166 32.2997 41.4003V41.9336C32.2997 42.5227 32.7773 43.0003 33.3664 43.0003H38.6997C39.2888 43.0003 39.7664 42.5227 39.7664 41.9336V41.4003C39.7664 40.5166 39.0501 39.8003 38.1664 39.8003V38.7336H41.3664C42.5446 38.7336 43.4997 37.7785 43.4997 36.6003V30.2003C43.4961 29.2304 42.8388 28.3851 41.8997 28.1427ZM38.1664 40.8669C38.461 40.8669 38.6997 41.1057 38.6997 41.4003V41.9336H33.3664V41.4003C33.3664 41.1057 33.6052 40.8669 33.8997 40.8669C34.4888 40.8669 34.9664 40.3894 34.9664 39.8003V38.7336H37.0997V39.8003C37.0997 40.3894 37.5773 40.8669 38.1664 40.8669ZM37.6331 37.6669H33.3664V37.1336C33.3668 36.2905 33.7659 35.4972 34.4427 34.9944C35.3809 35.7139 36.6853 35.7139 37.6235 34.9944C38.3002 35.4972 38.6993 36.2905 38.6997 37.1336V37.6669H37.6331ZM36.0331 34.4669C35.1494 34.4669 34.4331 33.7506 34.4331 32.8669C34.4331 31.9833 35.1494 31.2669 36.0331 31.2669C36.9167 31.2669 37.6331 31.9833 37.6331 32.8669C37.6331 33.7506 36.9167 34.4669 36.0331 34.4669ZM42.4331 36.6003C42.4331 37.1894 41.9555 37.6669 41.3664 37.6669H39.7664V37.1336C39.764 35.987 39.2343 34.9053 38.3301 34.2003C38.5699 33.7967 38.6976 33.3364 38.6997 32.8669C38.6997 31.3942 37.5058 30.2003 36.0331 30.2003C34.5603 30.2003 33.3664 31.3942 33.3664 32.8669C33.3691 33.3355 33.4967 33.7948 33.736 34.1976C32.8311 34.9032 32.3013 35.9861 32.2997 37.1336V37.6669H30.6997C30.1106 37.6669 29.6331 37.1894 29.6331 36.6003V30.2003C29.6331 29.6112 30.1106 29.1336 30.6997 29.1336H41.3664C41.9555 29.1336 42.4331 29.6112 42.4331 30.2003V36.6003Z" fill="white"/>
<path d="M28.5671 11H19.5004C18.6167 11 17.9004 11.7163 17.9004 12.6V25.4C17.9004 26.2837 18.6167 27 19.5004 27H28.5671C29.4507 27 30.1671 26.2837 30.1671 25.4V24.9904L31.7137 26.5344C32.334 27.1538 33.3388 27.1538 33.9591 26.5344L37.7041 22.7893C38.3233 22.1689 38.3233 21.1644 37.7041 20.544L33.9591 16.7989C33.3387 16.1798 32.3341 16.1798 31.7137 16.7989L30.1671 18.3456V12.6C30.1671 11.7163 29.4507 11 28.5671 11ZM29.1004 25.4C29.1004 25.6946 28.8616 25.9333 28.5671 25.9333H19.5004C19.2058 25.9333 18.9671 25.6946 18.9671 25.4V12.6C18.9671 12.3054 19.2058 12.0667 19.5004 12.0667H28.5671C28.8616 12.0667 29.1004 12.3054 29.1004 12.6V19.4096L27.966 20.5467C27.3469 21.1671 27.3469 22.1716 27.966 22.792L29.1004 23.9237V25.4ZM32.4652 17.5531C32.6688 17.3498 32.9986 17.3498 33.2023 17.5531L36.9473 21.2981C37.1506 21.5018 37.1506 21.8316 36.9473 22.0352L33.2023 25.7803C32.9986 25.9836 32.6688 25.9836 32.4652 25.7803L28.7201 22.0352C28.5168 21.8316 28.5168 21.5018 28.7201 21.2981L32.4652 17.5531Z" fill="white"/>
<path d="M24.5133 15.029C24.4131 14.8608 24.2318 14.7578 24.036 14.7578C23.8402 14.7578 23.6589 14.8608 23.5587 15.029L21.692 18.7623C21.617 18.9124 21.617 19.089 21.692 19.2391L23.5587 22.9724C23.6489 23.1534 23.8337 23.2679 24.036 23.2679C24.2382 23.2679 24.4231 23.1534 24.5133 22.9724L26.38 19.2391C26.455 19.089 26.455 18.9124 26.38 18.7623L24.5133 15.029ZM24.0333 21.5415L22.7629 19.0007L24.0333 16.4599L25.3037 19.0007L24.0333 21.5415Z" fill="white"/>
<path d="M21.6332 23.8008H20.5665C20.272 23.8008 20.0332 24.0396 20.0332 24.3341C20.0332 24.6287 20.272 24.8674 20.5665 24.8674H21.6332C21.9278 24.8674 22.1665 24.6287 22.1665 24.3341C22.1665 24.0396 21.9278 23.8008 21.6332 23.8008Z" fill="white"/>
<path d="M28.0337 13.6661C28.0337 13.3716 27.7949 13.1328 27.5004 13.1328H26.4337C26.1392 13.1328 25.9004 13.3716 25.9004 13.6661C25.9004 13.9607 26.1392 14.1995 26.4337 14.1995H27.5004C27.7949 14.1995 28.0337 13.9607 28.0337 13.6661Z" fill="white"/>
<path d="M33.2102 22.0433C33.3628 21.8908 33.4084 21.6614 33.3259 21.4621C33.2434 21.2628 33.0489 21.1328 32.8332 21.1328C32.6174 21.1328 32.4229 21.2628 32.3404 21.4621C32.2579 21.6614 32.3035 21.8908 32.4561 22.0433C32.6644 22.2515 33.002 22.2515 33.2102 22.0433Z" fill="white"/>
<path d="M35.344 22.0433C35.4966 21.8908 35.5422 21.6614 35.4597 21.4621C35.3772 21.2628 35.1827 21.1328 34.9669 21.1328C34.7512 21.1328 34.5567 21.2628 34.4742 21.4621C34.3917 21.6614 34.4373 21.8908 34.5899 22.0433C34.7981 22.2515 35.1357 22.2515 35.344 22.0433Z" fill="white"/>
<path d="M33.2102 19.9105C33.3628 19.758 33.4084 19.5286 33.3259 19.3293C33.2434 19.13 33.0489 19 32.8332 19C32.6174 19 32.4229 19.13 32.3404 19.3293C32.2579 19.5286 32.3035 19.758 32.4561 19.9105C32.6644 20.1187 33.002 20.1187 33.2102 19.9105Z" fill="white"/>
<path d="M31.0774 22.0433C31.23 21.8908 31.2756 21.6614 31.1931 21.4621C31.1106 21.2628 30.9161 21.1328 30.7003 21.1328C30.4846 21.1328 30.2901 21.2628 30.2076 21.4621C30.125 21.6614 30.1707 21.8908 30.3233 22.0433C30.5315 22.2515 30.8691 22.2515 31.0774 22.0433Z" fill="white"/>
<path d="M33.2102 24.1761C33.3628 24.0236 33.4084 23.7942 33.3259 23.5949C33.2434 23.3956 33.0489 23.2656 32.8332 23.2656C32.6174 23.2656 32.4229 23.3956 32.3404 23.5949C32.2579 23.7942 32.3035 24.0236 32.4561 24.1761C32.6644 24.3843 33.002 24.3843 33.2102 24.1761Z" fill="white"/>
</g>
<defs>
<clipPath id="clip0_387_25852">
<rect width="32" height="32" fill="white" transform="translate(11.5 11)"/>
</clipPath>
</defs>
</svg>
