<svg width="77" height="76" viewBox="0 0 77 76" fill="none" xmlns="http://www.w3.org/2000/svg">
<path d="M61.84 74.47C61.6669 74.4844 61.493 74.4844 61.3199 74.47L24.63 68.0001C23.8463 67.8634 23.1491 67.421 22.6915 66.7703C22.2339 66.1196 22.0535 65.3138 22.19 64.5301L32.8199 3.45001C32.9421 2.75599 33.3047 2.1271 33.8441 1.67364C34.3835 1.22018 35.0653 0.971106 35.77 0.970028C35.943 0.954978 36.117 0.954978 36.29 0.970028L73 7.36016C73.7836 7.49686 74.4809 7.93918 74.9385 8.5899C75.396 9.24062 75.5765 10.0464 75.44 10.8301L64.79 72.0001C64.6658 72.6922 64.3022 73.3189 63.763 73.7703C63.2239 74.2218 62.5432 74.4694 61.84 74.47Z" fill="#0A4586"/>
<path d="M35.75 2C35.8665 1.99012 35.9835 1.99012 36.1 2L72.8101 8.38989C73.3325 8.48028 73.7975 8.77437 74.1032 9.20752C74.4088 9.64067 74.53 10.1775 74.4401 10.7L63.8101 71.78C63.7291 72.2496 63.4832 72.6749 63.1165 72.9792C62.7498 73.2836 62.2866 73.4469 61.8101 73.4399H61.46L24.75 67.05C24.2295 66.9573 23.7669 66.6621 23.4633 66.2292C23.1597 65.7964 23.0399 65.261 23.13 64.74L33.76 3.6499C33.8431 3.18215 34.09 2.75936 34.4565 2.45703C34.8229 2.1547 35.285 1.99268 35.76 2H35.75ZM35.76 0C34.8206 0.00235818 33.9118 0.335215 33.1933 0.94043C32.4747 1.54564 31.992 2.38465 31.83 3.31006L21.19 64.3899C21.0995 64.908 21.1121 65.4389 21.227 65.9521C21.3419 66.4654 21.557 66.951 21.8598 67.3811C22.1626 67.8112 22.5472 68.1773 22.9917 68.4585C23.4361 68.7397 23.9317 68.9306 24.45 69.02L61.1601 75.4099C61.6782 75.5004 62.2091 75.488 62.7223 75.373C63.2356 75.2581 63.7211 75.043 64.1512 74.7402C64.5812 74.4374 64.9473 74.0529 65.2285 73.6084C65.5098 73.1639 65.7006 72.6682 65.7901 72.1499L76.4201 11.0701C76.5999 10.0252 76.3575 8.95151 75.7462 8.08521C75.135 7.2189 74.2048 6.63073 73.1601 6.44995L36.45 0.0600586C36.2221 0.0201464 35.9913 1.25707e-05 35.76 0Z" fill="#0A4586"/>
<path d="M53.26 6.44995H16C14.3431 6.44995 13 7.7931 13 9.44995V71.45C13 73.1068 14.3431 74.45 16 74.45H53.26C54.9169 74.45 56.26 73.1068 56.26 71.45V9.44995C56.26 7.7931 54.9169 6.44995 53.26 6.44995Z" fill="white"/>
<path d="M53.26 7.44995C53.7904 7.44995 54.2991 7.66082 54.6742 8.03589C55.0493 8.41096 55.26 8.91952 55.26 9.44995V71.45C55.26 71.9804 55.0493 72.4892 54.6742 72.8643C54.2991 73.2393 53.7904 73.45 53.26 73.45H16C15.4696 73.45 14.9609 73.2393 14.5858 72.8643C14.2107 72.4892 14 71.9804 14 71.45V9.44995C14 8.91952 14.2107 8.41096 14.5858 8.03589C14.9609 7.66082 15.4696 7.44995 16 7.44995H53.26ZM53.26 5.44995H16C14.9391 5.44995 13.9217 5.87144 13.1716 6.62158C12.4214 7.37173 12 8.38909 12 9.44995V71.45C12 72.5108 12.4214 73.5282 13.1716 74.2783C13.9217 75.0285 14.9391 75.45 16 75.45H53.26C54.3209 75.45 55.3382 75.0285 56.0884 74.2783C56.8385 73.5282 57.26 72.5108 57.26 71.45V9.44995C57.26 8.38909 56.8385 7.37173 56.0884 6.62158C55.3382 5.87144 54.3209 5.44995 53.26 5.44995Z" fill="#0A4586"/>
<path d="M50.48 64L50.22 62.5H49.04L48.78 64H47.9301L49.0601 58H50.2L51.33 64H50.48ZM50.0601 61.51L49.8199 60.1201C49.8199 60.0401 49.82 59.83 49.72 59.49C49.62 59.15 49.64 58.9201 49.63 58.8101C49.63 59.0401 49.57 59.3001 49.53 59.5801C49.49 59.8601 49.38 60.51 49.2 61.51H50.0601Z" fill="#0A4586"/>
<path d="M20.48 17L20.22 15.5H19.04L18.78 17H17.93L19.06 11H20.2L21.33 17H20.48ZM20.06 14.51L19.82 13.1201C19.82 13.0401 19.77 12.83 19.72 12.49C19.67 12.15 19.64 11.9201 19.63 11.8101C19.63 12.0401 19.57 12.3001 19.53 12.5801C19.49 12.8601 19.38 13.51 19.2 14.51H20.06Z" fill="#0A4586"/>
<path d="M49.72 65C49.6923 64.9851 49.6614 64.9773 49.63 64.9773C49.5986 64.9773 49.5677 64.9851 49.54 65C49.11 65.26 47.3 66.4501 47.3 67.8101C47.3 67.9777 47.3331 68.1436 47.3976 68.2983C47.462 68.4531 47.5565 68.5936 47.6755 68.7117C47.7945 68.8297 47.9357 68.9231 48.0909 68.9863C48.2462 69.0496 48.4123 69.0814 48.58 69.0801C48.8001 69.0805 49.0167 69.0253 49.21 68.9199C49.222 68.9137 49.2356 68.911 49.2491 68.9124C49.2626 68.9137 49.2754 68.919 49.286 68.9275C49.2966 68.936 49.3046 68.9473 49.3088 68.9602C49.3131 68.9731 49.3135 68.9869 49.3101 69C49.21 69.2734 49.0683 69.5298 48.89 69.76C48.8756 69.7807 48.8671 69.8047 48.8652 69.8298C48.8634 69.8549 48.8684 69.8801 48.8796 69.9026C48.8909 69.9251 48.908 69.9444 48.9292 69.958C48.9504 69.9716 48.9748 69.9791 49 69.98H50.28C50.3043 69.9775 50.3276 69.9686 50.3474 69.9543C50.3672 69.9401 50.383 69.9209 50.3931 69.8987C50.4032 69.8764 50.4073 69.852 50.405 69.8276C50.4027 69.8033 50.3941 69.78 50.38 69.76C50.2082 69.5309 50.0701 69.2783 49.97 69.01C49.97 68.95 49.9701 68.8899 50.0601 68.9199C50.2488 69.0275 50.4628 69.0829 50.6801 69.0801C50.8477 69.0814 51.0138 69.0496 51.1691 68.9863C51.3243 68.9231 51.4655 68.8297 51.5845 68.7117C51.7035 68.5936 51.798 68.4531 51.8624 68.2983C51.9269 68.1436 51.96 67.9777 51.96 67.8101C51.96 66.4701 50.15 65.28 49.72 65Z" fill="#0A4586"/>
<path d="M49.1 69C47.67 68.21 49.02 65.83 49.64 65C49.6074 64.9906 49.5727 64.9906 49.54 65C49.11 65.26 47.3 66.4501 47.3 67.8101C47.3016 68.0225 47.3561 68.2311 47.4585 68.4172C47.5609 68.6034 47.708 68.7611 47.8866 68.8762C48.0652 68.9913 48.2696 69.0603 48.4814 69.0767C48.6933 69.093 48.9058 69.0563 49.1 68.97V69Z" fill="#093B73"/>
<path d="M49.39 69.8101C49.47 69.1201 49.47 68.9299 49.26 68.9299C49.269 68.9432 49.2738 68.959 49.2738 68.9751C49.2738 68.9911 49.269 69.0067 49.26 69.02C49.1599 69.2935 49.0182 69.5498 48.84 69.78C48.8256 69.8007 48.817 69.8247 48.8152 69.8499C48.8134 69.875 48.8183 69.9001 48.8296 69.9226C48.8409 69.9451 48.858 69.9642 48.8792 69.9778C48.9003 69.9914 48.9248 69.9991 48.95 70H49.4301C49.3901 70 49.38 69.8801 49.39 69.8101Z" fill="#093B73"/>
<path d="M19.72 18.6399C19.6941 18.6204 19.6625 18.6101 19.63 18.6101C19.5975 18.6101 19.5659 18.6204 19.54 18.6399C19.11 18.8999 17.3 20.0799 17.3 21.4399C17.3 21.7794 17.4349 22.1052 17.6749 22.3452C17.915 22.5853 18.2405 22.72 18.58 22.72C18.8016 22.7221 19.0196 22.6633 19.21 22.55C19.2221 22.5438 19.2356 22.5412 19.2491 22.5425C19.2626 22.5438 19.2755 22.5489 19.2861 22.5574C19.2967 22.5658 19.3046 22.5772 19.3088 22.5901C19.3131 22.603 19.3135 22.6168 19.31 22.6299C19.2123 22.9074 19.0705 23.1675 18.89 23.3999C18.8746 23.4196 18.8651 23.4433 18.8629 23.4683C18.8606 23.4932 18.8655 23.5183 18.8771 23.5405C18.8888 23.5627 18.9065 23.5812 18.9283 23.5935C18.9501 23.6058 18.975 23.6116 19 23.6101H20.28C20.3042 23.6097 20.3277 23.6024 20.348 23.5894C20.3683 23.5763 20.3845 23.5577 20.3949 23.5359C20.4053 23.5141 20.4094 23.4898 20.4068 23.4658C20.4042 23.4418 20.3949 23.4189 20.38 23.3999C20.2066 23.1682 20.0684 22.9121 19.97 22.6399C19.9594 22.628 19.954 22.6124 19.9549 22.5964C19.9558 22.5805 19.963 22.5655 19.975 22.5549C19.9869 22.5443 20.0026 22.5389 20.0186 22.5398C20.0345 22.5407 20.0494 22.5481 20.06 22.5601C20.2506 22.6631 20.4634 22.7179 20.68 22.72C20.8481 22.72 21.0146 22.6869 21.1699 22.6226C21.3252 22.5582 21.4662 22.4641 21.5851 22.3452C21.7039 22.2264 21.7982 22.0852 21.8625 21.9299C21.9269 21.7746 21.96 21.608 21.96 21.4399C21.96 20.0799 20.15 18.8999 19.72 18.6399Z" fill="#0A4586"/>
<path d="M19.1 22.6102C17.67 21.8102 19.02 19.4302 19.64 18.6102C19.6073 18.6013 19.5727 18.6013 19.54 18.6102C19.11 18.8702 17.3 20.05 17.3 21.41C17.2999 21.6233 17.3532 21.8334 17.4549 22.0209C17.5566 22.2084 17.7036 22.3675 17.8824 22.4837C18.0613 22.6 18.2663 22.6695 18.4789 22.6864C18.6916 22.7032 18.9051 22.6668 19.1 22.5802V22.6102Z" fill="#093B73"/>
<path d="M19.39 23.4199C19.47 22.7399 19.47 22.54 19.26 22.54C19.269 22.5533 19.2739 22.5689 19.2739 22.585C19.2739 22.601 19.269 22.6166 19.26 22.6299C19.1623 22.9074 19.0205 23.1675 18.84 23.3999C18.8246 23.4196 18.8151 23.4433 18.8129 23.4683C18.8106 23.4932 18.8155 23.5183 18.8271 23.5405C18.8388 23.5627 18.8565 23.5812 18.8783 23.5935C18.9001 23.6058 18.925 23.6116 18.95 23.6101H19.43C19.39 23.6101 19.38 23.4899 19.39 23.4199Z" fill="#093B73"/>
<path d="M34.85 34.71C34.7852 34.6657 34.7085 34.6421 34.63 34.6421C34.5515 34.6421 34.4749 34.6657 34.41 34.71C33.41 35.34 29.04 38.1799 29.04 41.4399C29.0427 42.2524 29.3673 43.0307 29.9427 43.6042C30.5182 44.1778 31.2975 44.5 32.11 44.5C32.6432 44.5041 33.1679 44.3661 33.63 44.1001C33.659 44.0825 33.6929 44.0745 33.7267 44.0774C33.7605 44.0803 33.7924 44.0937 33.818 44.116C33.8436 44.1382 33.8615 44.1681 33.869 44.2012C33.8766 44.2342 33.8734 44.2689 33.86 44.3C33.621 44.9571 33.2838 45.5739 32.86 46.1299C32.8256 46.1786 32.8051 46.2359 32.8007 46.2954C32.7962 46.3549 32.8079 46.4144 32.8346 46.4678C32.8613 46.5211 32.9019 46.5663 32.9521 46.5984C33.0024 46.6305 33.0604 46.6481 33.12 46.6499H36.1801C36.2404 46.6499 36.2994 46.6329 36.3505 46.6008C36.4015 46.5687 36.4425 46.5231 36.4686 46.4688C36.4948 46.4144 36.505 46.3536 36.4982 46.2937C36.4913 46.2338 36.4677 46.177 36.4301 46.1299C36.0077 45.5802 35.6706 44.9702 35.4301 44.3201C35.4167 44.2889 35.4135 44.2543 35.421 44.2212C35.4286 44.1881 35.4465 44.1582 35.472 44.136C35.4976 44.1137 35.5296 44.1003 35.5634 44.0974C35.5971 44.0945 35.631 44.1025 35.66 44.1201C36.1268 44.3769 36.6523 44.5078 37.1849 44.5C37.7176 44.4922 38.2391 44.3458 38.6981 44.0754C39.1571 43.8051 39.5379 43.4201 39.803 42.958C40.0681 42.4959 40.2083 41.9727 40.21 41.4399C40.22 38.1799 35.88 35.34 34.85 34.71Z" fill="#0A4586"/>
<path d="M33.36 44.2299C29.92 42.3299 33.16 36.6098 34.66 34.6498C34.5722 34.6393 34.4835 34.6607 34.41 34.7099C33.41 35.3399 29.04 38.1799 29.04 41.4399C29.0427 42.2524 29.3673 43.0306 29.9427 43.6042C30.5182 44.1778 31.2975 44.4999 32.11 44.4999C32.5416 44.5044 32.9687 44.4121 33.36 44.2299Z" fill="#093B73"/>
<path d="M34.05 46.2C34.25 44.55 34.2399 44.0801 33.7399 44.0801C33.7846 44.094 33.8222 44.1247 33.8446 44.1658C33.867 44.2068 33.8724 44.255 33.8599 44.3C33.621 44.9571 33.2838 45.5739 32.8599 46.1299C32.8256 46.1786 32.8051 46.2359 32.8006 46.2954C32.7961 46.3549 32.8079 46.4144 32.8345 46.4678C32.8612 46.5211 32.9018 46.5663 32.9521 46.5984C33.0024 46.6305 33.0603 46.6481 33.1199 46.6499H34.27C34.04 46.6499 34.03 46.36 34.05 46.2Z" fill="#093B73"/>
<path d="M41.26 6.44995H4C2.34315 6.44995 1 7.7931 1 9.44995V71.45C1 73.1068 2.34315 74.45 4 74.45H41.26C42.9169 74.45 44.26 73.1068 44.26 71.45V9.44995C44.26 7.7931 42.9169 6.44995 41.26 6.44995Z" fill="white"/>
<path d="M41.26 7.44995C41.7904 7.44995 42.2991 7.66082 42.6742 8.03589C43.0493 8.41096 43.26 8.91952 43.26 9.44995V71.45C43.26 71.9804 43.0493 72.4892 42.6742 72.8643C42.2991 73.2393 41.7904 73.45 41.26 73.45H4C3.46957 73.45 2.96089 73.2393 2.58582 72.8643C2.21074 72.4892 2 71.9804 2 71.45V9.44995C2 8.91952 2.21074 8.41096 2.58582 8.03589C2.96089 7.66082 3.46957 7.44995 4 7.44995H41.26ZM41.26 5.44995H4C2.93913 5.44995 1.92172 5.87144 1.17157 6.62158C0.421424 7.37173 0 8.38909 0 9.44995V71.45C0 72.5108 0.421424 73.5282 1.17157 74.2783C1.92172 75.0285 2.93913 75.45 4 75.45H41.26C42.3209 75.45 43.3382 75.0285 44.0884 74.2783C44.8385 73.5282 45.26 72.5108 45.26 71.45V9.44995C45.26 8.38909 44.8385 7.37173 44.0884 6.62158C43.3382 5.87144 42.3209 5.44995 41.26 5.44995Z" fill="#0A4586"/>
<path d="M16.63 38.5901C16.6249 37.9427 16.8121 37.3083 17.1679 36.7674C17.5238 36.2265 18.0322 35.8033 18.6288 35.5516C19.2253 35.2999 19.8831 35.231 20.5189 35.3536C21.1547 35.4761 21.7398 35.7846 22.2 36.24C22.3066 36.3451 22.4503 36.4039 22.6 36.4039C22.7496 36.4039 22.8933 36.3451 23 36.24C23.4602 35.7846 24.0452 35.4761 24.681 35.3536C25.3168 35.231 25.9747 35.2999 26.5713 35.5516C27.1678 35.8033 27.6761 36.2265 28.032 36.7674C28.3878 37.3083 28.575 37.9427 28.5699 38.5901C28.5699 41.9901 24.19 45.08 22.93 45.9C22.8316 45.9633 22.717 45.9971 22.6 45.9971C22.4829 45.9971 22.3684 45.9633 22.27 45.9C21.01 45.08 16.63 41.9901 16.63 38.5901Z" fill="#ED2939"/>
<path d="M21.27 35.5802C20.7709 35.3531 20.2226 35.2554 19.6758 35.2965C19.129 35.3376 18.6013 35.516 18.1417 35.8151C17.6821 36.1141 17.3054 36.5244 17.0464 37.0077C16.7874 37.491 16.6545 38.0319 16.66 38.5802C16.66 41.9802 21.04 45.07 22.3 45.89C22.3987 45.9529 22.5129 45.9876 22.63 45.9901C18.16 39.8901 19.75 36.4702 21.27 35.5802Z" fill="#B32D11"/>
<path d="M38.48 64L38.22 62.5H37.04L36.78 64H35.9301L37.0601 58H38.2L39.33 64H38.48ZM38.0601 61.51L37.8199 60.1201C37.8199 60.0401 37.82 59.83 37.72 59.49C37.62 59.15 37.64 58.9201 37.63 58.8101C37.63 59.0401 37.57 59.3001 37.53 59.5801C37.49 59.8601 37.38 60.51 37.2 61.51H38.0601Z" fill="#FF4019"/>
<path d="M35.1801 66.9999C35.1827 66.6427 35.3256 66.3008 35.5782 66.0482C35.8309 65.7956 36.1728 65.6524 36.53 65.6498C36.8825 65.6511 37.2201 65.7914 37.47 66.0399C37.4905 66.0617 37.5153 66.0791 37.5428 66.091C37.5704 66.1028 37.6 66.1088 37.63 66.1088C37.66 66.1088 37.6897 66.1028 37.7172 66.091C37.7447 66.0791 37.7695 66.0617 37.79 66.0399C37.9804 65.8481 38.2243 65.7183 38.4897 65.6676C38.7552 65.6169 39.0298 65.6476 39.2775 65.7557C39.5251 65.8639 39.7343 66.0444 39.8776 66.2736C40.0208 66.5027 40.0913 66.7699 40.08 67.0399C40.08 68.4299 38.28 69.6999 37.77 70.0399C37.7275 70.0645 37.6792 70.0773 37.63 70.0773C37.5809 70.0773 37.5326 70.0645 37.49 70.0399C36.98 69.6999 35.1801 68.4299 35.1801 67.0399" fill="#ED2939"/>
<path d="M37.0699 65.73C36.9012 65.6502 36.7167 65.6093 36.53 65.6101C36.1728 65.6127 35.8309 65.7557 35.5782 66.0083C35.3256 66.2609 35.1827 66.6027 35.1801 66.96C35.1801 68.35 36.98 69.62 37.49 69.96C37.5362 69.9689 37.5838 69.9689 37.63 69.96C35.8 67.49 36.4499 66.09 37.0699 65.73Z" fill="#B32D11"/>
<path d="M8.47998 17L8.22003 15.5H7.03998L6.78003 17H5.92999L7.06 11H8.20001L9.33002 17H8.47998ZM8.06 14.51L7.82001 13.1201C7.82001 13.0401 7.77003 12.83 7.72003 12.49C7.67003 12.15 7.64 11.9201 7.63 11.8101C7.63 12.0401 7.57003 12.3001 7.53003 12.5801C7.49003 12.8601 7.38001 13.51 7.20001 14.51H8.06Z" fill="#FF4019"/>
<path d="M5.17999 19.9999C5.18261 19.6427 5.3257 19.3008 5.57831 19.0482C5.83092 18.7956 6.1728 18.6524 6.53003 18.6498C6.88246 18.6511 7.22018 18.7914 7.47003 19.0399C7.4906 19.0617 7.51539 19.0791 7.54291 19.091C7.57042 19.1028 7.60004 19.1088 7.63 19.1088C7.65997 19.1088 7.68959 19.1028 7.7171 19.091C7.74462 19.0791 7.76941 19.0617 7.78998 19.0399C7.98034 18.8481 8.22429 18.7183 8.48975 18.6676C8.7552 18.6169 9.02974 18.6476 9.2774 18.7557C9.52507 18.8639 9.73427 19.0444 9.8775 19.2736C10.0207 19.5027 10.0913 19.7699 10.08 20.0399C10.08 21.4299 8.28002 22.6999 7.77002 23.0399C7.72745 23.0645 7.67916 23.0773 7.63 23.0773C7.58085 23.0773 7.53256 23.0645 7.48999 23.0399C6.97999 22.6999 5.17999 21.4299 5.17999 20.0399" fill="#ED2939"/>
<path d="M7.07001 18.73C6.90123 18.6502 6.71673 18.6093 6.53003 18.6101C6.1728 18.6127 5.83092 18.7557 5.57831 19.0083C5.3257 19.2609 5.18261 19.6027 5.17999 19.96C5.17999 21.35 6.97999 22.62 7.48999 22.96C7.53623 22.9689 7.58376 22.9689 7.63 22.96C5.8 20.49 6.45001 19.09 7.07001 18.73Z" fill="#B32D11"/>
</svg>
