<svg width="38" height="36" viewBox="0 0 38 36" fill="none" xmlns="http://www.w3.org/2000/svg">
<path d="M9.60439 0L13.6758 3.1108C12.9799 4.07367 12.1447 5.555 11.1703 7.5548C10.196 9.48054 9.36081 11.6285 8.66483 13.9986C7.96886 16.2947 7.65568 18.5167 7.72528 20.6646C8.21245 20.5165 8.59524 20.4424 8.87363 20.4424C9.22161 20.3683 9.5696 20.3313 9.91758 20.3313C11.7967 20.3313 13.467 20.9238 14.9286 22.1089C16.3901 23.2199 17.1209 25.0716 17.1209 27.6639C17.1209 29.8859 16.4249 31.8487 15.033 33.5522C13.7106 35.1817 11.9011 35.9964 9.60439 35.9964C6.40293 36.0705 4.00183 34.9965 2.4011 32.7745C0.800366 30.4784 0 27.6639 0 24.3309C0 21.9608 0.347985 19.4425 1.04396 16.7761C1.73993 14.1097 2.78388 11.3692 4.17582 8.5547C5.63736 5.6661 7.44689 2.81453 9.60439 0ZM30.4835 0L34.5549 3.1108C33.859 4.07367 33.0238 5.555 32.0494 7.5548C31.0751 9.48054 30.2399 11.6285 29.544 13.9986C28.848 16.2947 28.5348 18.5167 28.6044 20.6646C29.0916 20.5165 29.4744 20.4424 29.7527 20.4424C30.1007 20.3683 30.4487 20.3313 30.7967 20.3313C32.6758 20.3313 34.3462 20.9238 35.8077 22.1089C37.2692 23.2199 38 25.0716 38 27.6639C38 29.8859 37.304 31.8487 35.9121 33.5522C34.5897 35.1817 32.7802 35.9964 30.4835 35.9964C27.282 36.0705 24.881 34.9965 23.2802 32.7745C21.6795 30.4784 20.8791 27.6639 20.8791 24.3309C20.8791 21.9608 21.2271 19.4425 21.9231 16.7761C22.619 14.1097 23.663 11.3692 25.0549 8.5547C26.5165 5.6661 28.326 2.81453 30.4835 0Z" fill="#E28B60"/>
</svg>
