<svg width="414" height="280" viewBox="0 0 414 280" fill="none" xmlns="http://www.w3.org/2000/svg">
<path d="M228.202 253.378C231.169 237.429 266.973 214.931 275.477 232.952C279.479 241.445 280.196 174.565 335.795 181.523C365.782 185.271 331.626 211.81 329.21 221.377C326.806 230.944 334.823 219.062 350.066 216.427C365.309 213.793 371.728 234.576 378.134 254.388C384.554 274.187 379.733 278.817 379.733 278.817C356.971 278.216 334.222 277.615 311.461 277.027C289.428 276.451 233.432 283.294 228.164 257.202C227.933 255.987 227.946 254.708 228.202 253.378Z" fill="#F7EDFF"/>
<path d="M296.613 243.486C297.024 243.202 297.024 243.201 297.024 243.201L297.023 243.2L297.019 243.195L297.004 243.172L296.942 243.082C296.888 243.003 296.808 242.884 296.704 242.727C296.496 242.415 296.193 241.953 295.818 241.361C295.066 240.177 294.02 238.469 292.846 236.381C290.498 232.201 287.645 226.505 285.612 220.424C283.576 214.334 282.378 207.907 283.291 202.245C284.198 196.615 287.19 191.721 293.607 188.632C302.333 184.437 310.407 187.875 316.384 192.471C319.367 194.765 321.8 197.33 323.489 199.324C324.332 200.32 324.989 201.172 325.433 201.773C325.655 202.074 325.824 202.312 325.938 202.474C325.994 202.555 326.037 202.617 326.065 202.658L326.096 202.705L326.104 202.716L326.105 202.719L326.106 202.719L326.106 202.719L326.106 202.719L327.008 202.327L327.009 202.327L327.009 202.327L327.009 202.327L327.008 202.325L327.006 202.316L326.997 202.277C326.99 202.243 326.978 202.191 326.963 202.122C326.933 201.984 326.89 201.777 326.838 201.507C326.734 200.968 326.594 200.176 326.453 199.171C326.171 197.16 325.883 194.301 325.862 190.911C325.821 184.127 326.85 175.248 331.112 166.805L331.112 166.805C334.122 160.839 340.259 157.416 347.653 156.66C355.046 155.904 363.646 157.826 371.45 162.505C387.025 171.843 399.443 192.177 392.579 224.068L392.571 224.107L392.569 224.148L390.318 268.56L389.977 268.547L387.612 268.455C385.57 268.375 382.647 268.262 379.117 268.126C372.057 267.854 362.572 267.491 352.87 267.128C333.477 266.402 313.198 265.676 309.733 265.676C309.011 265.676 308.262 265.38 307.486 264.8C306.709 264.22 305.933 263.376 305.173 262.336C303.653 260.254 302.246 257.458 301.043 254.635C299.843 251.817 298.855 248.996 298.167 246.877C297.824 245.818 297.555 244.936 297.373 244.319C297.282 244.011 297.212 243.769 297.165 243.604C297.142 243.522 297.124 243.459 297.112 243.417L297.099 243.369L297.096 243.358L297.095 243.355L297.095 243.354C297.095 243.354 297.095 243.354 296.613 243.486ZM296.613 243.486L297.024 243.202L297.072 243.272L297.095 243.354L296.613 243.486Z" fill="white" stroke="#333333"/>
<path d="M370.894 273.535H372.914C375.357 273.177 378.618 271.642 382.991 268.291C402.927 252.968 425.842 204.238 423.476 187.099C421.097 169.961 383.95 209.853 366.086 261.039C366.086 261.039 364.552 272.499 370.894 273.535Z" fill="#F7EDFF"/>
<path d="M446.623 219.268L446.623 219.268C463.113 223.113 474.735 229.286 480.505 234.652C481.945 235.992 483.007 237.268 483.691 238.433C484.377 239.601 484.663 240.622 484.606 241.464C484.552 242.284 484.171 242.986 483.404 243.546C482.62 244.117 481.421 244.547 479.745 244.748L479.745 244.748C476.355 245.156 472.062 244.922 467.256 244.569C466.526 244.515 465.783 244.459 465.031 244.402C460.858 244.085 456.385 243.745 451.901 243.716C441.331 243.647 430.531 245.297 423.212 253.179L423.212 253.179C415.609 261.378 408.307 268.324 403.142 273.036H365.683C374.747 249.069 386.82 233.779 400.623 225.391C414.546 216.93 430.292 215.455 446.623 219.268Z" fill="white" stroke="#333333"/>
<path d="M478.616 234.422C477.977 234.039 462.747 225.124 446.162 225.674C438.873 225.917 423.707 226.428 407.928 234.026C391.79 241.802 378.926 255.078 369.565 273.534H371.407C394.296 229.05 431.597 227.81 446.213 227.324C462.313 226.799 477.619 235.752 477.773 235.842C478.169 236.072 478.668 235.944 478.911 235.548C479.141 235.164 479.013 234.652 478.616 234.422Z" fill="#333333"/>
<path d="M455.558 239.999C455.367 239.999 455.188 239.935 455.021 239.807C441.697 228.616 409.703 233.873 409.383 233.924L407.58 234.231L408.552 232.67C408.872 232.159 416.416 220.238 431.135 217.719C431.582 217.642 432.017 217.949 432.094 218.397C432.17 218.844 431.863 219.279 431.416 219.356C420.534 221.223 413.629 228.718 411.071 232.005C418.398 231.008 443.986 228.373 456.096 238.541C456.441 238.835 456.492 239.36 456.198 239.705C456.032 239.91 455.789 239.999 455.558 239.999Z" fill="#333333"/>
<path d="M381.661 255.308L391.955 231.672C392.134 231.25 392.62 231.058 393.042 231.25C393.464 231.429 393.656 231.915 393.464 232.337L384.922 251.932C389.666 250.052 402.223 246.253 415.215 252.175C415.624 252.367 415.816 252.853 415.624 253.275C415.433 253.684 414.947 253.876 414.525 253.684C399.09 246.65 383.848 254.196 383.694 254.272L381.661 255.308Z" fill="#333333"/>
<path d="M334.989 206.216C335.156 206.305 335.296 206.344 335.411 206.318C335.411 206.318 335.706 206.689 336.153 207.239C336.588 207.802 337.163 208.556 337.752 209.298C338.314 210.065 338.877 210.82 339.312 211.396C339.721 211.971 340.002 212.355 340.002 212.355C336.856 209.362 333.442 208.019 329.734 208.569C329.261 208.646 329.21 209.196 329.644 209.605C330.718 210.654 332.764 212.419 335.169 213.519C337.585 214.619 339.849 214.721 341.076 214.683C341.281 214.67 341.409 214.568 341.46 214.427C341.46 214.427 343.774 217.752 345.846 221.231C346.882 222.971 347.905 224.71 348.621 226.053C348.979 226.718 349.286 227.268 349.503 227.665C349.708 228.061 349.823 228.279 349.823 228.279C345.705 223.943 341.012 221.321 336.447 222.024C335.949 222.101 336.064 222.804 336.677 223.354C338.212 224.723 340.987 227.076 343.902 228.624C345.577 229.481 347.24 229.98 348.506 230.223C349.785 230.453 350.692 230.427 350.833 230.274C350.833 230.274 350.961 230.517 351.178 230.939C351.383 231.374 351.677 231.988 352.035 232.729C352.764 234.2 353.646 236.196 354.516 238.204C356.242 242.22 357.636 246.364 357.636 246.364C356.012 244.458 352.329 241.388 349.004 239.994C345.398 238.511 342.56 238.715 341.038 238.997C340.437 239.112 340.59 239.879 341.294 240.467C346.166 244.432 350.219 246.479 353.173 247.361C356.114 248.257 357.968 247.962 358.084 247.707C359.925 253.232 361.012 257.696 361.741 261.239H362.163C361.408 257.606 360.283 252.989 358.352 247.233C358.608 247.323 359.516 246.722 360.564 245.558C361.626 244.394 362.828 242.655 363.621 240.506C365.091 236.656 365.219 231.873 365.104 229.135C365.065 228.048 364.464 227.294 364.017 227.716C359.784 231.719 358.506 238.459 357.841 245.75C357.841 245.75 357.508 244.739 356.933 243.243C356.396 241.734 355.59 239.764 354.772 237.807C353.915 235.863 353.058 233.906 352.355 232.474C352.01 231.757 351.715 231.156 351.524 230.734C351.306 230.325 351.191 230.082 351.191 230.082C351.536 229.916 353.582 227.703 354.145 223.815C354.657 220.438 353.928 216.499 353.365 214.273C353.148 213.378 352.508 212.841 352.201 213.237C349.401 216.895 349.414 222.229 350.168 228.074C350.168 228.074 350.053 227.844 349.848 227.46C349.631 227.076 349.324 226.513 348.966 225.848C348.25 224.505 347.227 222.753 346.178 221.001C345.13 219.262 344.03 217.548 343.199 216.281C342.342 215.015 341.78 214.184 341.78 214.184C341.959 214.209 342.138 214.133 342.227 213.915C343.787 210.206 343.289 205.806 340.181 201.01C339.81 200.46 339.222 200.371 339.081 200.844C337.943 204.655 338.608 208.364 340.488 212.342C340.488 212.342 340.207 211.946 339.772 211.344C339.337 210.756 338.749 209.963 338.161 209.17C337.56 208.39 336.959 207.61 336.511 207.034C336.051 206.459 335.744 206.075 335.744 206.075C335.782 205.96 335.782 205.806 335.731 205.627C334.197 200.933 330.961 197.16 326.153 195.152C325.591 194.922 325.271 195.306 325.527 195.83C327.611 200.255 330.539 203.645 334.989 206.216Z" fill="url(#paint0_linear)"/>
<path d="M328.852 243.767C332.675 242.578 334.734 240.979 334.76 240.608C336.115 242.002 337.407 243.269 338.558 244.522C339.683 245.788 340.783 246.926 341.729 248.052C342.675 249.178 343.545 250.214 344.363 251.173C345.13 252.158 345.847 253.078 346.499 253.91C349.069 257.286 350.629 259.537 351.601 261.021C351.652 261.085 351.69 261.149 351.729 261.213H352.445C352.33 261.047 352.215 260.855 352.074 260.65C351.575 259.896 350.961 258.936 350.079 257.76C349.197 256.583 348.225 255.099 346.857 253.424C346.192 252.58 345.463 251.659 344.67 250.648C343.839 249.676 342.944 248.615 341.985 247.476C341.013 246.338 339.9 245.174 338.75 243.895C337.56 242.642 336.269 241.324 334.862 239.93C335.527 239.751 338.136 234.891 338.136 229.123C338.11 226.59 337.663 223.943 336.972 221.641C336.64 220.477 336.256 219.389 335.872 218.392C335.476 217.42 335.08 216.55 334.734 215.834C334.184 214.683 333.161 214.261 332.842 215.054C332.087 216.908 331.614 218.827 331.371 220.771C331.128 222.715 331.128 224.672 331.256 226.693C331.397 228.701 331.716 230.683 332.113 232.717C332.317 233.727 332.548 234.738 332.816 235.735C333.072 236.746 333.34 237.769 333.635 238.779C333.635 238.779 333.43 238.575 333.059 238.229C332.688 237.884 332.177 237.372 331.525 236.797C330.22 235.646 328.507 234.098 326.704 232.653C326.256 232.282 325.809 231.911 325.374 231.553C324.926 231.207 324.479 230.862 324.057 230.53C323.2 229.877 322.407 229.238 321.704 228.739C320.297 227.729 319.364 227.051 319.364 227.051C319.696 226.59 321.013 222.753 319.901 218.059C318.916 214.043 316.282 210.168 314.581 208.16C313.904 207.341 312.97 207.201 312.817 207.878C311.538 214.069 313.968 219.952 317.343 225.669C317.343 225.669 313.699 223.175 309.863 221.001C306.039 218.788 302.05 216.895 302.05 216.895C302.254 216.78 302.395 216.563 302.395 216.256C302.344 210.948 299.646 206.42 293.93 203.44C293.265 203.082 292.613 203.453 292.715 204.105C293.52 209.298 296.001 212.905 299.837 215.847C299.837 215.847 297.894 214.951 295.924 214.146C293.955 213.327 291.948 212.585 291.948 212.585C291.935 212.419 291.858 212.253 291.717 212.099C287.868 208.045 282.562 206.344 276.846 207.93C276.181 208.121 276.104 208.812 276.628 209.209C281.014 212.521 285.503 213.954 291.27 213.314C291.474 213.289 291.641 213.212 291.756 213.097C291.756 213.097 293.687 213.813 295.592 214.593C297.497 215.373 299.364 216.23 299.364 216.23C294.684 215.361 290.541 216.55 287.14 220.118C286.705 220.579 286.922 221.231 287.536 221.346C289.096 221.628 291.922 221.999 294.901 221.282C296.385 220.937 297.727 220.362 298.878 219.735C300.016 219.121 300.937 218.469 301.564 217.97C301.768 217.803 301.858 217.599 301.858 217.381C301.858 217.381 305.822 219.274 309.62 221.474C313.443 223.636 317.062 226.117 317.062 226.117C310.617 224.518 304.403 225.26 299.953 229.558C299.454 230.044 299.889 230.683 300.758 230.811C302.932 231.105 306.858 231.502 310.707 230.913C315.067 230.248 318.903 228.023 319.07 227.486C319.07 227.486 320.029 228.176 321.474 229.212C322.88 230.287 324.798 231.693 326.601 233.228C328.456 234.712 330.195 236.323 331.525 237.487C332.816 238.715 333.673 239.521 333.673 239.521C332.292 239.137 330.259 238.741 327.97 238.639C326.832 238.575 325.668 238.562 324.492 238.639C323.315 238.728 322.139 238.882 321.052 239.125C318.724 239.623 316.768 240.531 315.208 241.427C313.648 242.335 312.484 243.281 311.704 243.985C311.09 244.548 311.525 245.251 312.548 245.315C314.313 245.404 315.937 245.468 317.497 245.417C319.07 245.366 320.515 245.289 321.883 245.149C324.619 244.867 326.947 244.368 328.852 243.767Z" fill="url(#paint1_linear)"/>
<path d="M335.435 179.229C335.716 183.194 333.952 186.558 333.952 186.558C333.952 186.558 331.727 183.488 331.445 179.51C331.164 175.533 332.929 172.182 332.929 172.182C332.929 172.182 335.154 175.264 335.435 179.229Z" fill="url(#paint2_linear)"/>
<path d="M289.556 190.024C291.346 193.042 290.604 196.79 290.604 196.79C290.604 196.79 286.96 195.652 285.17 192.633C283.379 189.615 284.121 185.867 284.121 185.867C284.121 185.867 287.765 187.006 289.556 190.024Z" fill="url(#paint3_linear)"/>
<path d="M298.339 239.776C301.549 238.753 304.784 239.891 304.784 239.891C304.784 239.891 302.802 242.692 299.592 243.716C296.383 244.739 293.147 243.601 293.147 243.601C293.147 243.601 295.13 240.8 298.339 239.776Z" fill="url(#paint4_linear)"/>
<path d="M172.141 257.416C208.947 210.976 173.058 210.546 158.335 219.437C143.613 228.328 196.783 173.867 165 160.316C139.078 149.267 115.152 215.398 107.791 209.744C100.43 204.091 97.5748 174.994 76.4079 183.072C55.2315 191.151 38.6665 246.911 36.8238 260.653C80.4561 267.29 157.409 275.999 172.141 257.416Z" fill="#F7EDFF"/>
<path d="M138.853 266.676C128.943 235.334 159.915 201.348 159.915 201.348C159.915 201.348 166.932 244.235 156.611 261.729C146.281 279.215 145.87 275.586 145.87 275.586L138.853 266.676Z" fill="white"/>
<path d="M75.6508 270.258C58.9937 241.92 81.5968 201.877 81.5968 201.877C81.5968 201.877 98.0115 242.115 91.8568 261.472C85.6906 280.822 84.4803 277.376 84.4803 277.376L75.6508 270.258Z" fill="white"/>
<path d="M39.4605 214.749C42.277 215.264 44.8453 216.802 47.2131 218.989C48.4161 220.077 49.5618 221.338 50.6598 222.713C51.7673 224.088 52.7698 225.597 53.8296 227.163C53.8296 227.163 53.7818 226.896 53.6959 226.418C53.6004 225.95 53.4954 225.272 53.3713 224.451C53.123 222.818 52.7889 220.65 52.4547 218.482C52.1492 216.305 51.8818 214.128 51.6718 212.495C51.5668 211.674 51.4809 210.996 51.414 210.518C51.3567 210.041 51.3281 209.764 51.3281 209.764C50.9462 209.821 48.0915 209.038 45.4563 206.135C43.1363 203.623 41.4846 200.042 40.5966 197.951C40.2434 197.12 40.4057 196.318 40.8926 196.452C43.0695 197.053 44.979 198.447 46.6498 200.367C47.49 201.331 48.2538 202.42 48.9889 203.614C49.7336 204.807 50.4306 206.097 51.0799 207.462C51.0799 207.462 50.9653 206.421 50.803 204.855C50.6216 203.289 50.4402 201.207 50.2588 199.116C50.1633 198.075 50.0678 197.025 49.9819 196.051C49.9055 195.067 49.8387 194.16 49.7814 193.367C49.6668 191.801 49.5904 190.751 49.5904 190.751C49.4663 190.884 49.2849 190.932 49.0844 190.817C47.3277 189.815 45.886 188.382 44.7689 186.501C43.6328 184.62 42.8594 182.271 42.4298 179.453C42.3343 178.795 42.6971 178.346 43.1172 178.604C46.4684 180.685 48.3874 184.018 49.4281 188.44C49.4281 188.44 49.3136 186.415 49.1894 184.391C49.094 182.366 48.9985 180.342 48.9985 180.342C48.8935 180.275 48.798 180.16 48.7216 179.988C46.7835 175.299 46.5639 170.362 48.3779 165.368C48.5879 164.785 49.0844 164.795 49.2849 165.368C51.0321 170.114 51.2326 174.908 49.6286 179.94C49.5713 180.122 49.4854 180.246 49.3804 180.313C49.3804 180.313 49.4759 182.271 49.5618 184.228C49.6764 186.186 49.7909 188.144 49.7909 188.144C50.3161 183.693 51.9678 180.332 55.0421 178.136C55.4335 177.849 55.8441 178.269 55.8059 178.909C55.7009 180.523 55.3381 183.378 54.2114 185.899C53.0657 188.42 51.3949 189.977 50.4306 190.722C50.2683 190.846 50.106 190.846 49.9723 190.76C49.9723 190.76 50.0487 191.801 50.1633 193.367C50.2206 194.15 50.2874 195.067 50.3638 196.041C50.4497 197.015 50.5452 198.056 50.6407 199.106C50.8221 201.188 51.0035 203.28 51.1849 204.836C51.3567 206.393 51.4618 207.434 51.4618 207.434C51.7005 205.915 52.006 204.454 52.3879 203.089C52.7793 201.723 53.2758 200.434 53.8391 199.269C54.9848 196.939 56.4838 195.076 58.4792 193.883C58.9184 193.625 59.243 194.313 59.0902 195.182C58.9088 196.27 58.6224 197.769 58.1928 199.383C57.7536 200.997 57.1712 202.726 56.436 204.273C54.7366 207.787 52.111 209.859 51.7005 209.735C51.7005 209.735 51.7291 210.012 51.7864 210.509C51.8532 210.996 51.9391 211.702 52.0442 212.543C52.2733 214.223 52.5311 216.467 52.8557 218.702C53.1994 220.937 53.5336 223.171 53.7914 224.842C53.9059 225.683 54.0491 226.37 54.1351 226.857C54.221 227.344 54.2687 227.621 54.2687 227.621C54.3929 226.991 54.5743 226.227 54.8225 225.396C55.0803 224.556 55.3954 223.639 55.7582 222.713C56.4742 220.851 57.3812 218.922 58.4028 217.375C60.637 214.061 63.1289 212.6 64.5228 211.989C65.0766 211.75 65.3821 212.562 65.0957 213.517C64.0836 216.792 63.062 219.39 61.9163 221.5C60.7802 223.601 59.6154 225.177 58.5842 226.323C56.4933 228.624 54.7557 229.235 54.5265 229.063C54.8607 230.887 55.1376 232.597 55.4717 234.182C55.8059 235.767 56.121 237.238 56.4169 238.603C56.9611 241.354 57.5913 243.645 58.0782 245.613C59.0139 249.547 59.8445 252.03 60.3028 253.653C61.248 256.891 61.1048 256.595 60.9616 256.642C60.8184 256.69 60.8661 257.024 59.8827 253.739C59.4149 252.097 58.5747 249.566 57.639 245.574C57.1425 243.579 56.5315 241.249 55.9778 238.46C55.6818 237.066 55.3667 235.576 55.023 233.972C54.7079 232.358 54.4119 230.629 54.0778 228.777C53.8964 228.977 52.8271 228.872 51.3567 228.347C49.896 227.822 47.9865 226.867 46.2679 225.387C43.184 222.761 40.5585 218.826 39.2695 216.515C38.7731 215.57 38.859 214.634 39.4605 214.749Z" fill="url(#paint5_linear)"/>
<path d="M18.3587 187.168L-0.412956 181.018L-2.50336 180.333C-2.50343 180.334 -2.50351 180.334 -2.50358 180.335C-2.54259 180.741 -2.59768 181.34 -2.66181 182.108C-2.79008 183.646 -2.95448 185.863 -3.09874 188.579C-3.3873 194.013 -3.595 201.44 -3.27238 209.419C-2.94967 217.401 -2.09682 225.919 -0.269623 233.54C1.56018 241.172 4.35358 247.845 8.51638 252.191C25.3615 269.767 45.1171 267.197 47.275 266.836L47.2771 266.835C47.7923 266.751 49.1419 266.372 50.924 265.83C52.6882 265.294 54.8341 264.613 56.9127 263.943C58.9909 263.272 60.9998 262.613 62.4893 262.122C63.234 261.876 63.8488 261.672 64.2774 261.53L64.5893 261.426C62.6194 220.751 39.503 194.098 18.3587 187.168Z" fill="white" stroke="#333333"/>
<path d="M55.8639 266.298C55.969 266.298 56.074 266.279 56.179 266.231C56.5895 266.059 56.7901 265.582 56.6086 265.171C56.3795 264.617 32.9307 209.259 7.16187 190.121C6.79907 189.854 6.29305 189.93 6.02571 190.293C5.75838 190.656 5.83477 191.162 6.19757 191.43C31.6132 210.309 54.8901 265.257 55.1192 265.811C55.2433 266.107 55.5489 266.298 55.8639 266.298Z" fill="#333333"/>
<path d="M37.2454 230.621C38.0092 230.621 38.4866 230.601 38.6011 230.601L39.2408 230.573L39.3649 229.943C39.489 229.331 42.1814 214.845 32.9203 196.682C32.7198 196.28 32.2329 196.128 31.8319 196.328C31.4309 196.529 31.2781 197.016 31.4786 197.417C39.4127 212.973 38.2765 225.999 37.8755 228.988C34.0947 229.016 15.0282 228.615 2.38725 218.244C2.04354 217.958 1.52797 218.015 1.24155 218.359C0.95512 218.703 1.0124 219.218 1.35611 219.505C13.9684 229.857 32.1279 230.621 37.2454 230.621Z" fill="#333333"/>
<path d="M30.9834 255.192C40.4833 255.192 50.8233 253.196 51.4248 253.081L51.7398 253.024L51.9308 252.766C52.1217 252.499 56.6759 245.929 56.3036 228.109C56.294 227.66 55.9217 227.307 55.4729 227.317C55.0242 227.326 54.6709 227.699 54.6805 228.147C55.0051 243.513 51.568 250.216 50.7755 251.563C48.0927 252.059 30.3151 255.163 21.3309 252.508C11.6019 249.624 6.07389 245.986 6.01661 245.948C5.64426 245.699 5.13823 245.805 4.88999 246.177C4.64175 246.549 4.74678 247.056 5.11914 247.304C5.34828 247.457 10.8859 251.105 20.8726 254.065C23.6987 254.896 27.279 255.192 30.9834 255.192Z" fill="#333333"/>
<path d="M4.71651 259.861C6.35868 258.361 8.39232 257.521 10.7506 257.244C11.9154 257.12 13.1565 257.139 14.4455 257.282C15.7153 257.464 17.071 257.712 18.3982 258.142C18.3982 258.142 17.7967 257.588 16.8515 256.814C16.3741 256.432 15.8394 255.955 15.2379 255.487C14.6364 255.019 13.9872 254.522 13.3475 254.026C12.0299 253.071 10.7028 252.125 9.67169 251.467C9.16567 251.132 8.73602 250.846 8.4305 250.664C8.12498 250.483 7.95312 250.368 7.95312 250.368C7.87674 250.502 7.38027 250.922 6.54963 251.352C5.72854 251.782 4.56374 252.259 3.17935 252.527C1.9859 252.737 0.706528 252.861 -0.420082 252.87C-1.57534 252.928 -2.57782 252.87 -3.32253 252.87C-3.90493 252.851 -4.29639 252.498 -4.0577 252.192C-1.89995 249.461 2.01455 248.697 6.48281 249.471C6.48281 249.471 5.80493 249.089 4.79289 248.516C3.76175 247.962 2.38691 247.246 0.973866 246.596C-0.439171 245.937 -1.87131 245.345 -2.96928 244.944C-3.51349 244.734 -3.97177 244.562 -4.29639 244.457C-4.621 244.352 -4.80241 244.285 -4.80241 244.285C-4.74512 244.419 -4.77377 244.562 -4.90743 244.667C-7.31341 246.635 -10.2541 247.379 -13.8439 247.322C-14.264 247.322 -14.5027 246.988 -14.2831 246.692C-12.5837 244.324 -9.79578 243.369 -6.44459 243.76C-6.44459 243.76 -6.8074 243.655 -7.34206 243.493C-7.88627 243.34 -8.61188 243.158 -9.33749 242.967C-10.0727 242.815 -10.8078 242.633 -11.3616 242.538C-11.9153 242.442 -12.2877 242.375 -12.2877 242.375C-12.3545 242.442 -12.45 242.5 -12.5837 242.528C-14.4263 242.939 -16.1544 243.139 -17.8444 243.168C-18.6941 243.178 -19.5247 243.178 -20.384 243.13C-21.2337 243.12 -22.0835 243.053 -22.9714 243.187C-23.3819 243.254 -23.6684 242.987 -23.3629 242.586C-22.7136 241.783 -21.7875 241.249 -20.8709 240.895C-19.9448 240.561 -18.971 240.38 -18.0162 240.36C-16.0972 240.313 -14.1972 240.828 -12.4691 241.822C-12.345 241.898 -12.2686 241.984 -12.2304 242.07C-12.2304 242.07 -11.8676 242.137 -11.3329 242.232C-10.7887 242.318 -10.0822 242.5 -9.36613 242.643C-8.65961 242.824 -7.9531 243.006 -7.41844 243.139C-6.89333 243.292 -6.54005 243.397 -6.54005 243.397C-9.50934 241.85 -11.6575 240.055 -13.1183 237.371C-13.3093 237.028 -12.9083 236.77 -12.3641 236.894C-11.0179 237.219 -8.69781 238.03 -7.05563 239.549C-5.4039 241.048 -4.79285 242.719 -4.57326 243.646C-4.53507 243.798 -4.58282 243.913 -4.68784 243.989C-4.68784 243.989 -4.50644 244.056 -4.18182 244.161C-3.8572 244.266 -3.39891 244.438 -2.8547 244.648C-1.75673 245.059 -0.315048 245.651 1.09799 246.31C2.52057 246.959 3.89542 247.685 4.92655 248.229C5.94814 248.802 6.62601 249.184 6.62601 249.184C3.45623 245.871 0.773369 242.586 0.334183 238.909C0.286446 238.508 0.945221 238.517 1.53717 238.966C3.07433 240.036 5.52804 242.204 6.90289 244.572C8.46869 247.284 8.36366 249.891 8.09633 250.072C8.09633 250.072 8.27774 250.177 8.59281 250.378C8.90788 250.559 9.34706 250.855 9.87218 251.209C10.932 251.887 12.3068 252.87 13.6626 253.864C16.3741 255.869 18.866 258.142 18.866 258.142C18.064 256.375 16.6414 252.956 16.0113 250.034C15.3143 246.959 15.658 244.667 15.9731 243.521C16.0972 243.063 16.8228 243.33 17.2906 244.066C20.4986 249.012 21.0237 252.794 20.8901 255.229C20.7278 257.683 19.8971 258.858 19.6775 258.867C20.7087 259.794 21.6061 260.711 22.4845 261.541C23.3151 262.41 24.098 263.222 24.8141 263.976C25.5111 264.75 26.1508 265.476 26.7523 266.135C27.3347 266.803 27.8502 267.443 28.3372 268.025C29.3206 269.171 30.0462 270.174 30.6763 270.976C31.3064 271.778 31.7647 272.437 32.1275 272.943C33.5883 274.997 33.4069 274.815 33.3114 274.882C33.2159 274.949 33.3305 275.178 31.8411 273.115C31.4688 272.6 31.0105 271.941 30.3708 271.129C29.7311 270.317 28.9959 269.305 28.0125 268.14C26.0839 265.791 23.3915 262.649 19.2574 258.896C19.2383 259.106 18.5223 259.555 17.4052 259.975C16.2881 260.395 14.7701 260.787 13.1088 260.949C10.1872 261.169 7.0843 260.854 5.40393 260.644C4.7547 260.605 4.37279 260.176 4.71651 259.861Z" fill="url(#paint6_linear)"/>
<path d="M27.2023 162.322C29.4174 164.948 33.0741 165.502 33.0741 165.502C33.0741 165.502 33.1314 161.806 30.9163 159.18C28.7013 156.554 25.0446 156 25.0446 156C25.0446 156 24.9873 159.696 27.2023 162.322Z" fill="url(#paint7_linear)"/>
<path d="M27.4689 182.796C29.4452 185.413 32.3477 186.568 32.3477 186.568C32.3477 186.568 32.0421 183.465 30.0562 180.848C28.0799 178.222 25.1774 177.076 25.1774 177.076C25.1774 177.076 25.4925 180.17 27.4689 182.796Z" fill="url(#paint8_linear)"/>
<path d="M58.553 165.158C57.3118 168.204 57.8178 171.279 57.8178 171.279C57.8178 171.279 60.3288 169.426 61.5605 166.38C62.7921 163.334 62.2956 160.259 62.2956 160.259C62.2956 160.259 59.7942 162.111 58.553 165.158Z" fill="url(#paint9_linear)"/>
<path d="M151.151 269.555C155.696 235.903 179.24 223.698 179.24 223.698C179.24 223.698 176.347 247.782 166.026 260.321C155.696 272.85 151.151 269.555 151.151 269.555Z" fill="white"/>
<path d="M88.2784 270.318C85.1954 236.5 105.421 219.348 105.421 219.348C105.421 219.348 107.978 243.47 100.716 257.996C93.4438 272.515 88.2784 270.318 88.2784 270.318Z" fill="white"/>
<path d="M179.007 264.569C187.332 223.917 223.317 230.917 223.976 241.584C224.644 252.25 211.316 250.914 202.322 254.915C193.328 258.916 190.664 267.912 190.664 267.912L179.007 264.569Z" fill="#F7EDFF"/>
<path d="M181.67 271.903C182.033 271.903 182.377 271.702 182.558 271.358L187.227 262.363C190.311 256.413 199.199 242.376 215.106 240.571C215.65 240.504 216.051 240.017 215.984 239.463C215.917 238.919 215.43 238.518 214.876 238.584C198.015 240.504 188.678 255.21 185.451 261.446L180.782 270.442C180.524 270.929 180.715 271.53 181.212 271.788C181.355 271.865 181.517 271.903 181.67 271.903Z" fill="white"/>
<path fill-rule="evenodd" clip-rule="evenodd" d="M239.529 31.935C249.255 39.3422 251.332 52.3836 256.19 63.605C260.236 72.9471 265.095 81.7348 265.497 91.9087C265.941 103.154 265.108 114.943 258.58 124.112C251.749 133.707 240.819 139.46 229.453 142.538C217.844 145.681 205.267 146.394 194.271 141.524C183.425 136.72 177.834 125.565 170.349 116.359C161.443 105.407 147.818 96.7306 146.423 82.6802C144.96 67.9481 153.313 53.8284 163.031 42.6585C172.678 31.5691 185.595 22.9649 200.147 20.925C213.986 18.9851 228.412 23.4694 239.529 31.935Z" fill="#F7EDFF"/>
<path d="M219.81 23.1518C219.974 24.1761 220.139 25.206 220.114 26.2576C220.095 26.9932 220.15 27.7288 220.207 28.4671C220.311 29.7857 220.278 31.1152 220.344 32.4393C220.415 33.8886 220.462 35.3516 220.251 36.8038C220.111 37.7682 220.103 38.7517 219.947 39.7107C219.638 41.6123 219.309 43.514 218.816 45.3802C218.301 47.3336 217.674 49.2543 217.017 51.1641C216.683 52.1313 216.294 53.0766 215.845 53.9975C215.035 55.6648 214.035 57.2232 212.932 58.7134C212.053 59.9013 211.165 61.0918 210.073 62.1026C209.547 62.5903 208.988 63.0425 208.424 63.4866C207.189 64.4592 205.908 65.3583 204.432 65.9522C202.619 66.6823 200.787 66.9602 198.879 66.3745C198.317 66.2028 197.737 66.0911 197.173 65.9222C195.62 65.459 194.084 64.9469 192.764 63.9688C191.707 63.1869 190.79 62.2633 189.947 61.2553C188.898 60.0021 187.874 58.7325 186.984 57.3648C186.307 56.3241 185.697 55.2453 185.051 54.1855C183.98 52.4282 183.169 50.5484 182.285 48.7067C181.589 47.2573 181.025 45.7453 180.483 44.2305C180.031 42.9636 179.588 41.6886 179.336 40.3618C179.27 40.0213 179.158 39.6889 179.111 39.3484C179.081 39.125 179.062 38.9015 178.985 38.689C179.018 39.1685 179.057 39.6453 179.103 40.1221C179.503 44.3068 180.445 48.3743 181.967 52.3029C183.487 56.2179 185.508 59.8386 188.342 62.9717C190.13 64.9469 192.156 66.6387 194.563 67.8184C199.413 70.1995 204.194 70.0442 208.865 67.3198C211.182 65.9685 213.09 64.1513 214.739 62.059C217.707 58.2966 219.618 54.0193 220.875 49.4368C222.129 44.8653 222.644 40.2011 222.565 35.4688C222.472 29.8647 221.513 24.4213 219.566 19.1551C219.002 17.6321 218.351 16.1691 217.595 14.7715C218.006 15.9484 218.403 17.1281 218.72 18.3323C219.15 19.9261 219.547 21.5253 219.81 23.1518Z" fill="white"/>
<path d="M217.571 87.5501C216.16 89.9149 215.328 92.503 214.682 95.1621C213.948 98.1834 213.551 101.243 213.523 104.948C213.526 107.081 213.847 109.787 214.35 112.465C215.073 116.298 215.955 120.096 217.206 123.796C219.109 129.411 220.862 135.072 222.412 140.79C223.592 145.149 224.441 149.579 224.939 154.069C225.068 155.224 225.093 156.39 225.128 157.554C225.23 157.851 225.38 158.186 225.558 158.3C226.098 158.643 225.851 157.409 225.859 157.249C226.484 145.1 223.852 132.416 220.109 120.875C216.954 111.149 214.394 99.6301 218.932 89.8903C220.599 86.3077 223.203 83.2373 225.977 80.4121C227.352 79.0118 228.781 77.655 230.377 76.5108C231.133 75.9686 232.001 75.312 232.27 74.4893C230.26 75.6335 228.294 76.8459 226.407 78.1836C222.836 80.7118 219.819 83.7795 217.571 87.5501Z" fill="white"/>
<path d="M254.447 66.0688C253.48 67.3738 252.806 68.8368 252.177 70.3298C251.525 71.8745 250.799 73.3893 250.065 74.8986C249.362 76.348 248.239 77.4432 246.933 78.3586C246.703 78.5194 246.443 78.642 246.183 78.7564C246.018 78.8299 245.848 78.8327 245.706 78.7646C245.531 79.1542 245.451 79.5546 245.561 79.9252C245.769 80.6199 246.623 80.9468 247.338 80.816C250.076 80.3175 251.588 76.9474 252.765 74.8087C254.211 72.1797 255.441 69.4389 256.733 66.7336C257.757 64.5867 258.817 62.4535 260.049 60.4184C260.827 59.1325 263.037 56.7486 262.826 54.9805C262.111 55.8986 261.394 56.814 260.693 57.743C258.601 60.5083 256.514 63.279 254.447 66.0688Z" fill="white"/>
<path d="M271.045 13.6585C270.555 14.247 269.953 14.593 269.556 15.3204C268.972 16.3884 268.663 17.549 268.504 18.7395C268.214 20.9191 267.957 23.1068 267.707 25.2917C267.464 27.414 267.119 29.5146 266.538 31.5633C266.563 31.6015 266.587 31.6341 266.623 31.6532C267.036 31.8957 267.68 31.1301 267.825 30.8196C268.143 30.1439 268.236 29.3811 268.471 28.6754C269.23 26.4115 269.821 24.014 270.15 21.7091C270.372 20.1562 270.298 18.5434 270.793 17.0368C271.037 16.293 271.401 15.5901 272.028 15.097C272.472 14.7483 273.595 14.5222 273.296 13.7457C272.984 12.9365 272.176 12.8848 271.322 13.1572C271.322 13.1681 271.327 13.179 271.327 13.1872C271.325 13.3643 271.193 13.4787 271.045 13.6585Z" fill="white"/>
<path d="M147.706 13.2215C149.305 18.605 151.339 23.8113 154.108 28.718C154.321 29.0939 154.546 29.4672 154.54 30.0883C154.368 29.775 154.269 29.5925 154.162 29.4127C153.084 27.6173 152.065 25.7865 150.904 24.0429C150.159 22.9232 149.223 21.9287 148.344 20.9016C148.108 20.6265 147.793 20.3976 147.473 20.2205C146.996 19.959 146.602 20.1715 146.509 20.7082C146.476 20.8962 146.482 21.1032 146.515 21.2912C146.588 21.6972 146.671 22.1058 146.786 22.5009C147.867 26.1625 149.466 29.587 151.55 32.7909C153.423 35.6706 155.575 38.3351 157.843 40.9097C158.04 41.1358 158.218 41.3974 158.333 41.6698C159.349 44.1081 160.521 46.4702 161.805 48.7778C161.895 48.9412 161.975 49.1129 162.06 49.2791C161.786 49.1428 161.602 48.9467 161.419 48.7451C160.036 47.2276 158.664 45.6992 157.265 44.198C155.847 42.6751 154.231 41.3674 152.563 40.125C152.284 39.918 151.98 39.7436 151.673 39.5747C151.408 39.4276 151.123 39.4058 150.874 39.6183C150.627 39.8308 150.611 40.1196 150.699 40.4002C150.789 40.689 150.898 40.9778 151.041 41.2475C151.747 42.5797 152.52 43.8766 153.544 44.9963C154.59 46.1378 155.647 47.2766 156.769 48.3446C159.275 50.7257 161.964 52.8943 164.705 54.9976C165.893 55.9103 167.002 56.8747 167.802 58.1579C167.985 58.4521 168.226 58.7137 168.434 58.9943C168.511 59.0978 168.571 59.215 168.64 59.3267C168.292 59.1632 168.021 58.9425 167.736 58.7409C165.901 57.4359 164.086 56.1037 162.218 54.8477C161.559 54.4037 160.781 54.1203 160.036 53.8125C159.765 53.7008 159.434 53.6871 159.135 53.698C158.525 53.7198 158.237 54.1748 158.459 54.7388C158.535 54.9376 158.661 55.1256 158.793 55.2973C160.658 57.6893 162.777 59.8116 165.329 61.4898C167.895 63.1735 170.6 64.6011 173.396 65.8571C174.031 66.1431 174.697 66.3747 175.365 66.5763C175.729 66.6853 176.049 66.8297 176.348 67.064C177.605 68.0529 178.916 68.9629 180.381 69.6249C180.978 69.8946 181.6 70.1071 182.216 70.3278C182.435 70.4068 182.66 70.3741 182.799 70.1562C182.953 69.9164 182.884 69.6876 182.692 69.5078C182.534 69.3607 182.35 69.2353 182.167 69.1209C180.997 68.3935 179.828 67.6688 178.656 66.9468C178.204 66.6689 177.879 66.3284 177.909 65.7454C177.917 65.5792 177.846 65.4048 177.799 65.2359C176.742 61.4735 176.069 57.6375 175.485 53.7771C175.173 51.7119 174.732 49.6659 174.313 47.6172C174.152 46.8271 173.883 46.0561 173.402 45.3913C173.177 45.0807 172.895 44.7811 172.575 44.574C172.106 44.2716 171.608 44.4514 171.381 44.9609C171.268 45.2142 171.189 45.503 171.175 45.7782C171.132 46.6255 171.079 47.4755 171.115 48.3228C171.227 51.0581 171.728 53.7307 172.481 56.3571C173.256 59.0624 174.116 61.7378 175.548 64.1897C175.576 64.236 175.559 64.3042 175.567 64.4022C175.447 64.3096 175.357 64.2469 175.28 64.1734C173.475 62.4815 171.786 60.6834 170.253 58.7464C170.014 58.4467 169.847 58.0762 169.71 57.7138C168.711 55.0766 168.119 52.3277 167.487 49.5896C166.865 46.8952 166.285 44.1899 165.636 41.5009C165.247 39.888 164.697 38.3215 163.875 36.8694C163.612 36.4062 163.251 35.9649 162.84 35.6243C162.202 35.0958 161.545 35.3328 161.337 36.1256C161.233 36.5207 161.186 36.9429 161.183 37.3516C161.172 39.5039 161.452 41.6235 162.175 43.6504C162.985 45.9253 163.911 48.1621 164.787 50.4179C164.864 50.614 164.946 50.8074 165.025 51.0009C163.672 49.1592 160.712 43.5605 159.951 41.5472C159.883 41.3674 159.831 41.1685 159.825 40.9778C159.779 39.5638 159.68 38.1471 159.721 36.7332C159.806 33.8153 159.998 30.9002 160.088 27.9824C160.148 26.0671 160.187 24.1464 160.096 22.2366C160.047 21.2068 159.732 20.1851 159.472 19.1771C159.365 18.7684 159.121 18.3734 158.861 18.0328C158.366 17.379 157.741 17.4416 157.355 18.1554C157.232 18.3843 157.142 18.6349 157.073 18.8856C156.129 22.2802 155.77 25.7266 156.134 29.2383C156.189 29.7805 156.246 30.3199 156.301 30.8621C156.005 30.1673 155.838 29.4481 155.636 28.7398C155.392 27.887 155.299 27.037 155.512 26.1625C155.595 25.8246 155.622 25.4732 155.663 25.1272C155.992 22.2693 156.446 19.4332 157.049 16.6161C157.774 13.227 158.399 9.81876 158.609 6.35331C158.653 5.63952 158.593 4.92027 158.555 4.20648C158.544 4.01577 158.473 3.81961 158.385 3.64798C158.141 3.15758 157.692 3.08947 157.336 3.50086C157.169 3.69429 157.027 3.92859 156.936 4.17106C156.537 5.23085 156.098 6.27975 155.792 7.36679C155.162 9.59535 154.932 11.9002 154.612 14.186C154.502 14.9624 154.54 15.7798 154.308 16.5126C154.064 17.2809 154.012 18.0437 153.971 18.8202C153.949 19.267 153.932 19.7111 153.916 20.1579C153.771 20.0598 153.722 19.9508 153.697 19.8364C153.116 17.3109 152.569 14.7772 151.95 12.2625C151.443 10.2111 150.838 8.18139 149.872 6.2852C149.507 5.57141 149.064 4.8903 148.601 4.23372C148.297 3.80327 147.881 3.4164 147.273 3.60438C146.646 3.79782 146.523 4.36722 146.479 4.91482C146.435 5.45426 146.441 6.00731 146.49 6.54674C146.695 8.808 147.059 11.042 147.706 13.2215ZM172.134 47.8188C172.098 47.1077 172.117 46.4021 172.251 45.5766C172.67 45.9852 172.87 46.3939 172.983 46.8244C173.276 47.9604 173.574 49.0992 173.785 50.2544C174.423 53.7226 175.017 57.1989 175.639 60.6698C175.756 61.3291 175.915 61.983 175.954 62.675C175.874 62.5387 175.776 62.408 175.718 62.2636C173.796 57.6239 172.38 52.8644 172.134 47.8188ZM172.936 64.0889C173.114 64.2279 173.273 64.3941 173.371 64.6365C173.276 64.6011 173.177 64.5711 173.087 64.5276C170.524 63.3043 167.999 62.0157 165.625 60.4464C163.379 58.9616 161.482 57.1144 159.803 55.0303C159.751 54.9649 159.713 54.8886 159.603 54.7142C160.373 54.8614 160.926 55.1692 161.441 55.5261C162.93 56.5559 164.425 57.5803 165.874 58.6646C168.248 60.4491 170.587 62.2772 172.936 64.0889ZM162.583 41.7379C162.175 40.1986 162.019 38.613 162.084 37.0165C162.092 36.8449 162.114 36.6705 162.147 36.5016C162.158 36.4471 162.218 36.4008 162.273 36.3272C162.703 36.5697 162.955 36.9593 163.128 37.3734C163.599 38.5177 164.133 39.6537 164.45 40.8416C165.126 43.3834 165.685 45.9553 166.288 48.5162C166.668 50.1236 167.041 51.7337 167.418 53.3439C167.462 53.5319 167.503 53.7198 167.574 54.0468C167.438 53.8969 167.377 53.8506 167.347 53.7934C165.354 49.9329 163.694 45.9389 162.583 41.7379ZM163.763 52.8725C163.582 52.8072 163.522 52.8017 163.484 52.769C161.041 50.7857 158.579 48.8241 156.32 46.6282C154.702 45.0535 153.204 43.3834 152.114 41.3892C152.029 41.2366 151.944 41.084 151.871 40.9288C151.857 40.8988 151.882 40.8497 151.903 40.719C152.185 40.9342 152.437 41.1195 152.684 41.3156C154.305 42.6152 155.857 43.991 157.246 45.5412C159.256 47.7861 161.263 50.0337 163.27 52.2786C163.41 52.4366 163.541 52.6056 163.763 52.8725ZM156.835 25.8928C156.909 23.6887 157.246 21.5201 157.818 19.3896C157.884 19.1498 157.98 18.9183 158.086 18.6131C158.453 18.9591 158.563 19.3378 158.67 19.7029C159.02 20.8989 159.212 22.1304 159.193 23.3727C159.163 25.4378 159.072 27.5056 158.996 29.5707C158.9 32.1807 158.793 34.7879 158.692 37.3979C158.689 37.4824 158.675 37.5696 158.667 37.654C158.626 37.654 158.582 37.6567 158.541 37.6567C158.212 36.24 157.862 34.8315 157.563 33.4067C157.046 30.9329 156.75 28.4292 156.835 25.8928ZM154.957 21.6018C155.055 19.6893 155.088 17.7686 155.296 15.8642C155.562 13.4204 155.901 10.9794 156.339 8.5628C156.569 7.28778 157.079 6.06452 157.47 4.81947C157.52 4.66145 157.618 4.51706 157.73 4.29366C157.947 4.76226 157.895 5.17637 157.851 5.57413C157.681 7.06711 157.536 8.56553 157.284 10.0449C156.709 13.434 156.071 16.815 155.469 20.2015C155.329 20.9915 155.219 21.7871 155.014 22.5826C154.992 22.2557 154.94 21.9287 154.957 21.6018ZM155.904 35.0631C156.378 36.0739 156.673 37.1691 157.051 38.2234C153.253 34.6899 147.47 24.4297 147.363 21.1141C147.577 21.3185 147.755 21.4656 147.908 21.6345C148.853 22.6671 149.713 23.7595 150.458 24.9474C152.498 28.2003 154.275 31.5949 155.904 35.0631ZM147.451 4.49799C147.514 4.47619 147.574 4.4544 147.637 4.4326C147.93 4.85489 148.289 5.24993 148.505 5.70763C149.042 6.84915 149.592 7.9934 149.998 9.18397C151.178 12.6494 151.991 16.2157 152.755 19.7928C153.053 21.1986 153.357 22.6017 153.629 24.0102C153.793 24.8602 153.894 25.7211 154.023 26.5766C153.979 26.5902 153.935 26.6065 153.891 26.6202C153.834 26.5439 153.763 26.4758 153.724 26.3913C151.586 21.6427 149.573 16.845 148.24 11.7994C147.733 9.87869 147.454 7.91984 147.281 5.94192C147.237 5.45153 147.237 4.95569 147.451 4.49799Z" fill="black"/>
<path d="M222.277 67.5161C222.225 67.7231 222.031 67.9274 221.847 68.0609C221.3 68.4587 220.736 68.8347 220.161 69.1943C219.438 69.6438 218.693 70.0634 217.967 70.5102C217.784 70.6219 217.584 70.7581 217.482 70.9352C217.4 71.0769 217.398 71.3248 217.469 71.4692C217.526 71.5809 217.756 71.6517 217.91 71.6572C218.074 71.6626 218.244 71.5727 218.411 71.5182C220.377 70.8807 222.083 69.7855 223.698 68.535C224.12 68.2081 224.55 67.9629 225.078 67.8348C225.626 67.704 226.157 67.4779 226.675 67.2491C229.317 66.0776 231.867 64.7317 234.317 63.1979C237.097 61.457 239.416 59.2339 241.418 56.662C241.563 56.474 241.705 56.2697 241.79 56.0518C242.012 55.4878 241.716 55.0192 241.106 55.0192C240.698 55.0192 240.257 55.0682 239.89 55.229C239.131 55.5586 238.365 55.9101 237.685 56.376C235.829 57.651 234.019 58.9887 232.19 60.3018C232.009 60.4326 231.823 60.5579 231.639 60.6887C232.094 59.9422 232.62 59.2747 233.104 58.5773C233.458 58.0678 233.879 57.6428 234.364 57.2587C236.144 55.8447 237.921 54.428 239.682 52.9895C241.867 51.2023 243.975 49.3334 245.892 47.2601C247.143 45.9061 248.225 44.4294 249.079 42.7975C249.271 42.4324 249.457 42.051 249.55 41.656C249.704 41.0103 249.238 40.6289 248.625 40.8823C248.307 41.0157 248.006 41.2092 247.727 41.4162C246.04 42.6667 244.408 43.9908 242.973 45.5301C241.557 47.0476 240.174 48.5923 238.775 50.1262C238.608 50.3087 238.436 50.4858 238.266 50.6656C238.236 50.4912 238.282 50.3768 238.343 50.2706C239.679 47.8894 240.889 45.4511 241.935 42.931C242.026 42.7158 242.162 42.5087 242.313 42.3262C243.403 41.0185 244.523 39.7326 245.591 38.4085C248.417 34.9049 250.777 31.118 252.395 26.9088C252.918 25.552 253.285 24.1326 253.699 22.7377C253.77 22.498 253.762 22.2146 253.712 21.964C253.619 21.4954 253.25 21.3019 252.825 21.5226C252.502 21.6915 252.176 21.9122 251.941 22.1846C251.045 23.2254 250.093 24.2361 249.334 25.3722C248.173 27.1131 247.154 28.9466 246.075 30.742C245.969 30.9164 245.876 31.0989 245.774 31.2787C245.711 31.0689 245.73 30.8973 245.791 30.742C245.867 30.5404 245.966 30.3415 246.073 30.1535C247.102 28.3527 248.033 26.5056 248.858 24.6012C250.561 20.6535 252.105 16.6514 253.058 12.4476C253.488 10.5542 253.786 8.63617 253.792 6.68822C253.792 6.34494 253.748 5.98532 253.644 5.66112C253.376 4.83017 252.653 4.61222 252.015 5.19252C251.634 5.53852 251.275 5.95808 251.043 6.41033C250.473 7.51099 249.887 8.6171 249.471 9.78042C248.157 13.4611 247.341 17.278 246.563 21.0976C246.535 21.2311 246.483 21.3591 246.442 21.4926C246.316 20.9423 246.311 20.4083 246.273 19.8743C246.232 19.3322 246.177 18.79 246.092 18.2533C246.032 17.8719 245.881 17.5041 245.826 17.1227C245.703 16.2591 245.646 15.3872 245.503 14.5291C245.172 12.5539 244.882 10.5678 244.427 8.61982C244.153 7.44288 243.614 6.32587 243.162 5.19524C243.025 4.85197 242.79 4.50597 242.338 4.57408C241.891 4.64219 241.815 5.04813 241.711 5.40502C241.691 5.46768 241.681 5.53307 241.678 5.59846C241.653 6.206 241.587 6.81627 241.618 7.42108C241.754 10.1237 242.182 12.7936 242.699 15.4445C243.386 18.9508 244.115 22.4435 244.542 25.9988C244.901 28.9902 244.961 28.9848 244.186 31.7119C244.14 31.8781 244.068 32.0361 244.011 32.1968C244 31.6111 244.068 31.0526 244.123 30.4914C244.471 26.9796 244.109 23.5332 243.154 20.1413C243.088 19.9125 243.003 19.6836 242.888 19.4766C242.513 18.7873 241.922 18.7165 241.418 19.3077C241.251 19.5038 241.097 19.73 240.996 19.967C240.81 20.4056 240.632 20.8551 240.514 21.3183C240.147 22.7404 239.986 24.1925 240.04 25.6583C240.169 29.0992 240.309 32.5401 240.465 35.9783C240.555 38.0053 240.626 40.0295 240.432 42.051C240.394 42.4542 240.292 42.8683 240.131 43.2389C238.827 46.2439 237.264 49.1181 235.582 51.927C235.489 52.0823 235.38 52.224 235.278 52.3711C235.306 52.115 235.402 51.8998 235.489 51.6791C236.267 49.7148 237.064 47.7559 237.814 45.7807C238.537 43.8709 238.929 41.8848 239.033 39.8497C239.071 39.095 239.052 38.3186 238.929 37.5748C238.773 36.624 238.022 36.3843 237.297 37.0327C236.913 37.3732 236.565 37.8009 236.341 38.2586C235.881 39.1958 235.459 40.1603 235.125 41.1465C234.254 43.732 233.712 46.4019 233.151 49.0664C232.45 52.3901 231.738 55.7139 230.593 58.926C230.407 59.4491 230.15 59.915 229.799 60.34C228.364 62.0754 226.836 63.7264 225.204 65.2793C225.048 65.4264 224.884 65.5654 224.722 65.7071C224.709 65.6825 224.695 65.6607 224.679 65.6362C225.087 64.7944 225.544 63.9743 225.894 63.1107C227.499 59.1766 228.674 55.1282 229.046 50.8781C229.156 49.6412 229.265 48.3989 229.079 47.1593C229.035 46.8596 228.98 46.5517 228.86 46.2766C228.635 45.7671 228.132 45.5928 227.666 45.8979C227.346 46.1049 227.066 46.4046 226.842 46.7179C226.363 47.3827 226.089 48.1537 225.933 48.9438C225.473 51.2731 225.007 53.5998 224.629 55.9428C224.178 58.738 223.734 61.5333 223.038 64.2849C222.767 65.3529 222.554 66.4426 222.277 67.5161ZM246.478 25.9852C247.341 21.964 248.074 17.9128 249.211 13.9569C249.715 12.2024 250.284 10.4615 250.917 8.75059C251.229 7.90058 251.738 7.1214 252.185 6.32315C252.302 6.11064 252.508 5.94446 252.729 5.69381C253.017 6.24687 253.031 6.74271 252.97 7.2331C252.803 8.59258 252.661 9.96023 252.412 11.3061C251.777 14.7252 250.574 17.9754 249.298 21.193C248.471 23.2771 247.56 25.3259 246.681 27.391C246.601 27.5817 246.489 27.7588 246.393 27.9413C246.352 27.9304 246.311 27.9168 246.27 27.9059C246.333 27.2629 246.344 26.6091 246.478 25.9852ZM244.309 18.8173C243.819 16.052 243.293 13.2922 242.833 10.5242C242.625 9.27913 242.521 8.01773 242.393 6.76178C242.357 6.4076 242.313 6.03436 242.532 5.56849C242.669 5.87907 242.768 6.08885 242.855 6.30135C243.597 8.10764 244.014 9.99565 244.301 11.9164C244.783 15.1066 245.128 18.3078 245.27 21.5308C245.306 22.31 245.276 23.0946 245.276 23.8765C245.243 23.882 245.21 23.8847 245.177 23.8901C244.89 22.201 244.608 20.5091 244.309 18.8173ZM244.402 36.2535C245.963 32.9461 247.655 29.7013 249.589 26.5873C250.375 25.3232 251.259 24.1408 252.253 23.0374C252.426 22.844 252.587 22.6423 252.754 22.4435C252.817 22.4762 252.88 22.5061 252.943 22.5388C252.877 22.8303 252.828 23.1273 252.743 23.4134C251.711 26.8107 250.183 29.9792 248.266 32.9624C246.815 35.2182 245.202 37.3596 243.48 39.4192C243.428 39.4792 243.373 39.5364 243.318 39.5963C243.277 39.5745 243.236 39.5555 243.198 39.5337C243.589 38.4357 243.907 37.3024 244.402 36.2535ZM241.448 21.4899C241.571 20.9668 241.705 20.4383 242.143 19.907C242.277 20.2966 242.403 20.6018 242.486 20.9178C243.2 23.6531 243.529 26.4293 243.4 29.2545C243.28 31.8944 242.798 34.4799 242.162 37.0408C242.004 37.6865 241.842 38.3349 241.683 38.9806C241.65 38.9779 241.62 38.9724 241.587 38.9697C241.576 38.8744 241.56 38.7763 241.555 38.6809C241.388 34.4635 241.223 30.2434 241.053 26.0261C240.996 24.4977 241.097 22.9802 241.448 21.4899ZM236.856 53.7387C239.265 51.0606 241.631 48.3417 244.109 45.729C245.29 44.4839 246.683 43.4377 247.984 42.3044C248.088 42.2145 248.222 42.1545 248.343 42.081C248.367 42.1028 248.392 42.1246 248.417 42.1464C248.324 42.3316 248.233 42.5196 248.135 42.7022C247.174 44.4594 245.895 45.9742 244.487 47.3881C242.696 49.1835 240.769 50.8318 238.797 52.4256C238.085 53.0031 237.379 53.5862 236.596 54.1147C236.68 53.9894 236.754 53.8504 236.856 53.7387ZM233.824 50.4558C234.435 47.8295 234.991 45.1895 235.678 42.5823C236.026 41.2664 236.598 40.0077 237.099 38.7327C237.272 38.2913 237.557 37.9045 238.061 37.5503C238.107 37.9017 238.162 38.1497 238.17 38.3976C238.228 40.4382 237.937 42.4406 237.321 44.3804C236.193 47.9303 234.824 51.3876 233.118 54.7086C233.022 54.8966 232.91 55.0791 232.803 55.2617C232.773 55.2453 232.743 55.229 232.713 55.2126C233.082 53.627 233.455 52.0414 233.824 50.4558ZM227.348 65.3719C229.594 63.6392 231.831 61.8929 234.098 60.1901C235.563 59.0895 237.064 58.0378 238.573 56.9944C239.052 56.662 239.602 56.4277 240.125 56.1634C240.251 56.1008 240.405 56.0926 240.635 56.0409C240.528 56.2098 240.481 56.3024 240.415 56.3814C238.679 58.5337 236.702 60.4217 234.367 61.931C232.072 63.4158 229.643 64.6554 227.179 65.8324C227.086 65.8787 226.984 65.9087 226.886 65.9468C226.864 65.9114 226.839 65.876 226.817 65.8405C226.995 65.6825 227.162 65.5163 227.348 65.3719ZM224.257 63.6011C224.772 60.7977 225.284 57.9915 225.807 55.1908C226.19 53.1366 226.563 51.0797 227.003 49.0391C227.143 48.3934 227.488 47.7886 227.737 47.1647C227.77 47.083 227.806 47.0013 227.839 46.9195C227.891 46.9441 227.943 46.9686 227.995 46.9931C228.022 47.1511 228.08 47.3091 228.077 47.4671C228.058 48.5542 228.093 49.6467 227.992 50.7255C227.576 55.1663 226.264 59.3755 224.577 63.4839C224.506 63.6583 224.399 63.819 224.312 63.9852C224.287 63.9771 224.262 63.9689 224.238 63.9607C224.241 63.8408 224.235 63.7182 224.257 63.6011Z" fill="black"/>
<path d="M219.822 56.9824C222.563 51.4001 223.908 45.4609 224.283 39.2874C224.524 35.3125 224.291 31.3593 223.631 27.4335C222.799 22.4996 221.317 17.7755 218.924 13.3592C216.95 9.71394 214.458 6.4828 211.139 3.93548C207.497 1.13751 203.401 -0.249208 198.776 0.0368548C196.311 0.189422 193.987 0.794239 191.884 2.13192C190.216 3.19172 188.688 4.4286 187.272 5.79897C184.238 8.72771 182.064 12.234 180.432 16.0863C177.921 22.0174 176.881 28.2345 176.837 34.773C176.878 41.001 177.951 47.1718 180.304 53.1001C181.9 57.1241 184.036 60.8347 186.993 64.0386C188.787 65.9784 190.81 67.6294 193.168 68.8499C196.791 70.7297 200.6 71.3754 204.622 70.4954C207.727 69.8171 210.43 68.3377 212.829 66.2889C215.852 63.7035 218.086 60.5241 219.822 56.9824ZM181.632 17.8408C182.757 14.7514 184.211 11.8226 186.215 9.20448C188.453 6.28392 191.3 4.10439 194.731 2.74764C197.256 1.75051 199.871 1.59521 202.527 2.28994C206.12 3.22713 209.22 5.00617 211.955 7.49355C214.302 9.62676 216.145 12.0733 217.601 14.7732C218.357 16.1708 219.009 17.6338 219.573 19.1567C221.52 24.423 222.478 29.8664 222.571 35.4705C222.651 40.2055 222.133 44.867 220.882 49.4385C219.625 54.021 217.716 58.2983 214.745 62.0607C213.094 64.153 211.188 65.9702 208.872 67.3215C204.2 70.0432 199.419 70.1985 194.57 67.8201C192.16 66.6377 190.137 64.9485 188.349 62.9734C185.512 59.8376 183.491 56.2196 181.974 52.3046C180.451 48.376 179.509 44.3112 179.11 40.1238C179.063 39.647 179.025 39.1675 178.992 38.6907C178.893 37.3013 178.83 35.9091 178.743 34.5197C178.803 28.793 179.668 23.2243 181.632 17.8408Z" fill="black"/>
<path d="M249.412 60.854C252.134 57.5793 254.831 54.2882 257.241 50.771C258.3 49.2208 259.483 47.7524 260.885 46.4882C261.512 45.9243 262.227 45.4257 262.972 45.0361C263.897 44.5512 264.809 44.9953 265.059 46.0087C265.201 46.5918 265.245 47.2129 265.234 47.815C265.212 48.8857 264.815 49.8501 264.245 50.7519C263.134 52.5092 261.863 54.1438 260.497 55.7076C257.906 58.6663 255.499 61.7721 253.185 64.9515C252.153 66.3709 251.332 67.9075 250.724 69.5531C250.565 69.9835 250.395 70.4085 250.223 70.8308C249.171 73.4135 247.92 75.871 245.798 77.778C245.732 77.8353 245.674 77.9034 245.62 77.9715C245.461 78.1704 245.349 78.4019 245.529 78.6253C245.581 78.6907 245.644 78.737 245.713 78.7697C245.858 78.8378 246.025 78.8351 246.189 78.7616C246.447 78.6471 246.709 78.5245 246.939 78.3638C248.246 77.4457 249.368 76.3532 250.072 74.9038C250.803 73.3945 251.532 71.8797 252.183 70.335C252.813 68.842 253.487 67.3763 254.453 66.074C256.518 63.2842 258.607 60.5135 260.702 57.7482C261.403 56.8219 262.123 55.9038 262.835 54.9857C263.38 54.2855 263.922 53.5826 264.453 52.8715C264.96 52.1931 265.417 51.463 265.801 50.7056C266.636 49.0573 266.929 47.3273 266.4 45.5129C266.11 44.5158 265.477 43.8483 264.483 43.5295C263.673 43.268 262.882 43.347 262.123 43.7175C261.209 44.1616 260.401 44.7501 259.681 45.4639C258.172 46.9596 256.764 48.5506 255.546 50.2806C253.303 53.46 250.82 56.4487 248.355 59.4537C244.092 64.6518 238.99 68.842 233.056 72.0241C230.682 73.2964 228.404 74.7213 226.17 76.217C222.615 78.5981 219.724 81.6467 217.295 85.1258C215.425 87.8039 214.297 90.8171 213.489 93.9692C212.054 99.5815 211.75 105.232 212.739 110.945C213.47 115.179 214.601 119.32 215.638 123.48C217.18 129.651 218.878 135.783 220.458 141.943C221.454 145.828 222.262 149.754 222.813 153.729C223.007 155.129 223.295 156.516 223.557 157.908C223.609 158.181 223.705 158.464 223.853 158.696C224.116 159.115 224.694 159.162 224.965 158.786C225.094 158.606 225.165 158.341 225.157 158.118C225.151 157.933 225.146 157.745 225.14 157.56C225.105 156.396 225.077 155.23 224.951 154.075C224.456 149.585 223.607 145.155 222.424 140.796C220.874 135.078 219.119 129.416 217.218 123.801C215.964 120.102 215.085 116.304 214.362 112.471C213.858 109.793 213.538 107.087 213.535 104.954C213.565 101.249 213.96 98.1893 214.694 95.1679C215.34 92.5089 216.172 89.9234 217.583 87.5559C219.831 83.7854 222.845 80.7177 226.419 78.1867C228.306 76.8517 230.272 75.6367 232.282 74.4924C232.802 74.1982 233.322 73.9067 233.845 73.6206C239.836 70.3404 245.045 66.104 249.412 60.854Z" fill="black"/>
<path d="M274.682 12.5078C274.025 13.257 274.34 14.7691 274.261 15.7199C274.165 16.9159 274.077 18.1119 274.02 19.3079C273.861 22.5718 273.798 25.8411 273.612 29.1022C273.431 32.2407 272.941 35.3411 272.084 38.3706C271.087 41.8987 269.762 45.3124 268.206 48.6334C266.856 51.5131 266.163 54.5536 265.851 57.6975C265.682 59.4085 265.553 61.1276 265.32 62.8303C265.065 64.6965 264.567 66.5028 263.59 68.1402C262.648 69.7149 261.632 71.2433 260.402 72.6109C257.713 75.5969 255.068 78.621 252.218 81.4598C249.337 84.3286 246.536 87.2682 243.986 90.4394C242.56 92.2158 241.297 94.0901 240.213 96.0926C236.459 103.018 235.996 110.268 238.011 117.768C238.072 117.994 238.165 118.247 238.324 118.4C238.477 118.547 238.762 118.678 238.945 118.637C239.129 118.596 239.277 118.34 239.408 118.155C239.463 118.079 239.449 117.942 239.444 117.836C239.381 116.357 239.422 114.864 239.227 113.401C238.795 110.161 238.959 106.968 239.646 103.789C240.52 99.7324 242.349 96.1171 244.8 92.7988C246.708 90.2133 248.792 87.775 251.035 85.4674C254.523 81.8794 257.875 78.1687 261.095 74.3409C262.505 72.6654 263.757 70.8837 264.835 68.9793C265.4 67.9876 265.818 66.9387 266.131 65.8435C266.741 63.694 267.007 61.4899 267.168 59.2695C267.431 55.6542 268.187 52.1697 269.751 48.865C271.339 45.5085 272.587 42.0159 273.477 38.4142C274.564 34.0143 274.959 29.5245 275.027 25.0019C275.06 22.8442 275.071 20.6865 275.057 18.5315C275.049 16.6625 275.463 14.2732 274.682 12.5078Z" fill="black"/>
<path d="M263.935 36.6095C264.036 36.6667 264.258 36.6449 264.346 36.5686C264.521 36.4134 264.68 36.2172 264.778 36.0047C265.203 35.0975 265.66 34.2011 265.997 33.2612C266.197 32.7 266.375 32.1333 266.536 31.5639C267.117 29.5152 267.462 27.4146 267.706 25.2923C267.955 23.1074 268.212 20.9197 268.502 18.7401C268.661 17.5496 268.971 16.389 269.554 15.321C269.951 14.5936 270.556 14.2476 271.044 13.6591C271.191 13.482 271.323 13.3676 271.32 13.1905C271.32 13.1823 271.315 13.1687 271.315 13.1605C271.312 13.1251 271.306 13.0897 271.293 13.0461C270.134 12.8827 269.099 13.8771 268.538 14.7244C268.029 15.4954 267.678 16.3399 267.434 17.2254C266.939 19.018 266.72 20.8543 266.517 22.6987C266.298 24.712 266.087 26.7308 265.792 28.7333C265.441 31.0871 264.751 33.362 263.973 35.6124C263.902 35.8194 263.809 36.0238 263.784 36.2363C263.773 36.3589 263.842 36.555 263.935 36.6095Z" fill="black"/>
<path d="M176.744 140.518C178.294 134.799 180.05 129.138 181.95 123.523C183.204 119.823 184.083 116.025 184.806 112.192C185.31 109.514 185.63 106.809 185.633 104.675C185.603 100.97 185.208 97.9107 184.475 94.8894C183.828 92.2304 182.996 89.6449 181.586 87.2774C179.338 83.5068 176.323 80.4391 172.749 77.9082C170.863 76.5732 168.897 75.3581 166.887 74.2139C167.155 75.0366 168.023 75.6932 168.779 76.2354C170.375 77.3796 171.805 78.7364 173.179 80.1367C175.953 82.9619 178.554 86.0323 180.225 89.6149C184.762 99.3574 182.202 110.876 179.047 120.6C175.307 132.137 172.673 144.825 173.297 156.973C173.305 157.134 173.056 158.368 173.598 158.025C173.776 157.91 173.927 157.575 174.028 157.278C174.064 156.115 174.091 154.949 174.217 153.794C174.713 149.309 175.564 144.877 176.744 140.518Z" fill="white"/>
<path d="M152.973 78.4829C152.715 78.3685 152.452 78.2459 152.222 78.0852C150.916 77.167 149.793 76.0746 149.09 74.6252C148.359 73.1158 147.63 71.6011 146.978 70.0563C146.349 68.5634 145.675 67.0976 144.708 65.7954C142.644 63.0056 140.554 60.2349 138.46 57.4696C137.759 56.5433 137.039 55.6252 136.327 54.707C136.116 56.4752 138.326 58.8618 139.103 60.1449C140.335 62.1801 141.395 64.316 142.419 66.4601C143.712 69.1655 144.941 71.9062 146.387 74.5353C147.564 76.6739 149.076 80.044 151.814 80.5426C152.529 80.6734 153.386 80.3464 153.591 79.6517C153.701 79.2839 153.619 78.8834 153.446 78.4911C153.307 78.5592 153.137 78.5565 152.973 78.4829Z" fill="white"/>
<path d="M127.137 14.8247C127.764 15.3206 128.126 16.0208 128.372 16.7645C128.868 18.2711 128.794 19.884 129.016 21.4369C129.344 23.7417 129.936 26.1392 130.694 28.4032C130.927 29.1061 131.023 29.8716 131.34 30.5473C131.485 30.8552 132.129 31.6207 132.542 31.381C132.575 31.3619 132.603 31.3292 132.627 31.2911C132.047 29.2423 131.702 27.1418 131.458 25.0195C131.209 22.8345 130.951 20.6468 130.661 18.4673C130.502 17.2767 130.193 16.1161 129.61 15.0481C129.213 14.3207 128.608 13.9747 128.12 13.3863C127.972 13.2092 127.841 13.0947 127.844 12.9177C127.844 12.9095 127.849 12.8959 127.849 12.8877C126.995 12.6153 126.184 12.667 125.875 13.4762C125.571 14.2499 126.693 14.476 127.137 14.8247Z" fill="white"/>
<path d="M181.875 84.8455C179.446 81.3664 176.554 78.3178 173 75.9367C170.766 74.441 168.487 73.0161 166.113 71.7438C160.179 68.5617 155.078 64.3716 150.815 59.1734C148.35 56.1684 145.867 53.1824 143.624 50.0003C142.403 48.2703 140.998 46.6793 139.489 45.1836C138.769 44.4698 137.961 43.8786 137.047 43.4372C136.288 43.0694 135.497 42.9904 134.686 43.2493C133.692 43.568 133.06 44.2355 132.769 45.2326C132.241 47.0471 132.537 48.7798 133.369 50.4253C133.752 51.18 134.21 51.9101 134.716 52.5912C135.248 53.3023 135.79 54.0052 136.335 54.7054C137.049 55.6235 137.767 56.5389 138.468 57.4679C140.562 60.2359 142.652 63.0066 144.716 65.7937C145.683 67.0987 146.357 68.5617 146.986 70.0547C147.638 71.5994 148.364 73.1142 149.098 74.6235C149.801 76.0729 150.924 77.1681 152.23 78.0835C152.46 78.2442 152.72 78.3668 152.981 78.4813C153.145 78.5548 153.315 78.5575 153.457 78.4894C153.525 78.4567 153.586 78.4104 153.64 78.345C153.821 78.1216 153.709 77.8928 153.55 77.6912C153.495 77.6231 153.438 77.5577 153.372 77.4978C151.25 75.5907 149.999 73.1333 148.947 70.5505C148.775 70.1255 148.605 69.7005 148.446 69.2728C147.838 67.6272 147.017 66.0907 145.984 64.6712C143.67 61.4946 141.266 58.3888 138.673 55.4273C137.304 53.8635 136.033 52.2289 134.924 50.4716C134.355 49.5699 133.955 48.6054 133.936 47.5347C133.925 46.9326 133.969 46.3115 134.111 45.7285C134.358 44.7177 135.269 44.2709 136.198 44.7558C136.945 45.1454 137.66 45.644 138.284 46.208C139.686 47.4694 140.869 48.9405 141.929 50.4907C144.339 54.0079 147.036 57.3017 149.758 60.5737C154.125 65.8237 159.333 70.0601 165.333 73.3376C165.856 73.6236 166.379 73.9152 166.896 74.2094C168.906 75.3536 170.872 76.566 172.759 77.9037C176.332 80.4347 179.347 83.5023 181.595 87.2729C183.006 89.6377 183.838 92.2259 184.484 94.8849C185.218 97.9063 185.615 100.966 185.643 104.671C185.64 106.804 185.319 109.51 184.816 112.188C184.093 116.021 183.211 119.819 181.96 123.518C180.056 129.133 178.304 134.795 176.754 140.513C175.574 144.872 174.725 149.302 174.227 153.792C174.098 154.947 174.073 156.113 174.038 157.277C174.032 157.462 174.027 157.65 174.021 157.835C174.013 158.058 174.084 158.323 174.213 158.503C174.484 158.878 175.062 158.829 175.325 158.413C175.473 158.178 175.568 157.898 175.62 157.625C175.883 156.236 176.171 154.846 176.365 153.446C176.916 149.468 177.723 145.543 178.72 141.66C180.303 135.5 182.001 129.368 183.54 123.197C184.577 119.037 185.708 114.893 186.439 110.662C187.428 104.946 187.124 99.2984 185.689 93.6862C184.873 90.5368 183.742 87.5236 181.875 84.8455Z" fill="black"/>
<path d="M155.174 90.1728C152.625 87.0016 149.823 84.0593 146.943 81.1932C144.092 78.3544 141.447 75.3303 138.758 72.3443C137.526 70.9767 136.51 69.4483 135.571 67.8736C134.59 66.2335 134.095 64.4272 133.84 62.5637C133.607 60.861 133.479 59.1419 133.309 57.4309C132.997 54.287 132.304 51.2465 130.954 48.3668C129.399 45.0458 128.073 41.6321 127.077 38.104C126.219 35.0745 125.729 31.9741 125.549 28.8356C125.362 25.5745 125.299 22.3052 125.141 19.0413C125.083 17.8426 124.995 16.6466 124.9 15.4533C124.823 14.5025 125.135 12.9904 124.478 12.2412C123.698 14.0066 124.111 16.3959 124.097 18.2785C124.084 20.4362 124.092 22.594 124.127 24.749C124.199 29.2687 124.593 33.7586 125.677 38.1612C126.567 41.7656 127.816 45.2556 129.404 48.612C130.968 51.9167 131.726 55.3985 131.986 59.0165C132.148 61.2369 132.413 63.4382 133.024 65.5905C133.333 66.6857 133.755 67.7346 134.319 68.7263C135.401 70.628 136.65 72.4097 138.06 74.088C141.283 77.9157 144.632 81.6264 148.12 85.2144C150.363 87.5193 152.447 89.9604 154.355 92.5458C156.806 95.8641 158.635 99.4794 159.509 103.536C160.193 106.718 160.357 109.911 159.928 113.148C159.733 114.611 159.774 116.104 159.711 117.583C159.706 117.692 159.692 117.826 159.747 117.902C159.878 118.087 160.026 118.34 160.21 118.384C160.396 118.425 160.678 118.294 160.831 118.147C160.993 117.992 161.083 117.741 161.143 117.515C163.159 110.015 162.696 102.762 158.942 95.8396C157.863 93.8235 156.601 91.9464 155.174 90.1728Z" fill="black"/>
<path d="M128.114 13.387C128.604 13.9754 129.206 14.3214 129.603 15.0488C130.186 16.1168 130.496 17.2774 130.655 18.468C130.945 20.6475 131.202 22.8352 131.451 25.0202C131.695 27.1425 132.04 29.243 132.621 31.2917C132.782 31.8612 132.958 32.4278 133.16 32.9891C133.497 33.929 133.957 34.8253 134.379 35.7325C134.477 35.945 134.636 36.1412 134.811 36.2965C134.899 36.3728 135.121 36.3946 135.222 36.3373C135.318 36.2829 135.386 36.084 135.373 35.9614C135.348 35.7489 135.255 35.5445 135.184 35.3375C134.406 33.0899 133.716 30.815 133.366 28.4584C133.067 26.4559 132.859 24.4371 132.64 22.4238C132.44 20.5821 132.221 18.7431 131.723 16.9505C131.476 16.0623 131.128 15.2205 130.619 14.4495C130.058 13.6022 129.023 12.6051 127.864 12.7712C127.848 12.8121 127.845 12.8503 127.842 12.8857C127.842 12.8966 127.837 12.9075 127.837 12.9156C127.834 13.0927 127.966 13.2072 128.114 13.387Z" fill="black"/>
<defs>
<linearGradient id="paint0_linear" x1="365.136" y1="228.161" x2="325.437" y2="228.161" gradientUnits="userSpaceOnUse">
<stop stop-color="#BA58E1"/>
<stop offset="1" stop-color="#6F49BC"/>
</linearGradient>
<linearGradient id="paint1_linear" x1="352.445" y1="232.257" x2="276.284" y2="232.257" gradientUnits="userSpaceOnUse">
<stop stop-color="#BA58E1"/>
<stop offset="1" stop-color="#6F49BC"/>
</linearGradient>
<linearGradient id="paint2_linear" x1="335.465" y1="179.37" x2="331.415" y2="179.37" gradientUnits="userSpaceOnUse">
<stop stop-color="#BA58E1"/>
<stop offset="1" stop-color="#6F49BC"/>
</linearGradient>
<linearGradient id="paint3_linear" x1="290.757" y1="191.329" x2="283.969" y2="191.329" gradientUnits="userSpaceOnUse">
<stop stop-color="#BA58E1"/>
<stop offset="1" stop-color="#6F49BC"/>
</linearGradient>
<linearGradient id="paint4_linear" x1="304.784" y1="241.746" x2="293.147" y2="241.746" gradientUnits="userSpaceOnUse">
<stop stop-color="#BA58E1"/>
<stop offset="1" stop-color="#6F49BC"/>
</linearGradient>
<linearGradient id="paint5_linear" x1="38.9467" y1="210.804" x2="65.2051" y2="210.804" gradientUnits="userSpaceOnUse">
<stop stop-color="#BA58E1"/>
<stop offset="1" stop-color="#6F49BC"/>
</linearGradient>
<linearGradient id="paint6_linear" x1="-23.4907" y1="255.893" x2="33.374" y2="255.893" gradientUnits="userSpaceOnUse">
<stop stop-color="#BA58E1"/>
<stop offset="1" stop-color="#6F49BC"/>
</linearGradient>
<linearGradient id="paint7_linear" x1="25.0444" y1="160.751" x2="33.0742" y2="160.751" gradientUnits="userSpaceOnUse">
<stop stop-color="#BA58E1"/>
<stop offset="1" stop-color="#6F49BC"/>
</linearGradient>
<linearGradient id="paint8_linear" x1="25.1774" y1="181.822" x2="32.3477" y2="181.822" gradientUnits="userSpaceOnUse">
<stop stop-color="#BA58E1"/>
<stop offset="1" stop-color="#6F49BC"/>
</linearGradient>
<linearGradient id="paint9_linear" x1="57.7157" y1="165.769" x2="62.3945" y2="165.769" gradientUnits="userSpaceOnUse">
<stop stop-color="#BA58E1"/>
<stop offset="1" stop-color="#6F49BC"/>
</linearGradient>
</defs>
</svg>
