<svg width="170" height="260" viewBox="0 0 170 260" fill="none" xmlns="http://www.w3.org/2000/svg">
<g clip-path="url(#clip0_1245_100926)">
<rect width="170" height="260" rx="5" fill="#F9F9FA"/>
<path d="M152.736 79.9125C152.736 79.9125 175.709 146.163 98.8256 188.146C21.9419 230.129 -14.5974 170.918 -14.5974 170.918L152.736 79.9125Z" fill="#F31C45"/>
<path d="M-8.12096 167.389L142.973 85.22C143.935 107.962 136.844 144.859 88.7562 170.998C40.8799 197.022 8.69625 181.607 -8.12096 167.389Z" fill="#0B1014"/>
<path d="M47.8489 181.336C47.8161 182.437 47.7483 183.536 47.6962 184.637C47.2038 184.687 46.7176 184.729 46.2313 184.771C46.841 171.24 46.2491 157.678 44.4629 144.247C44.2398 142.56 43.9687 140.884 43.7044 139.203L45.0674 138.459C47.3309 152.635 48.2623 166.991 47.8489 181.336V181.336Z" fill="#F31C45"/>
<path d="M62.7341 135.752L59.9439 130.392L61.2325 129.688L81.6449 169.005C82.4199 170.512 83.2024 172.018 83.9923 173.522C83.5452 173.744 83.1091 173.941 82.6625 174.143C76.0198 161.34 69.377 148.542 62.7341 135.752Z" fill="#F31C45"/>
<path d="M118.552 148.82L74.0455 122.706L75.563 121.88L111.941 143.238L119.587 147.72C119.258 148.089 118.909 148.454 118.552 148.82Z" fill="#F31C45"/>
<path d="M134.201 107.878C134.042 115.852 116.02 113.265 107.527 111.604C107.246 111.547 106.991 111.399 106.801 111.182C106.611 110.966 106.495 110.693 106.472 110.405C106.449 110.116 106.52 109.829 106.674 109.585C106.828 109.342 107.056 109.156 107.324 109.056C115.799 105.897 134.359 99.8092 134.201 107.878Z" fill="#F31C45"/>
<path d="M121.668 129.124C118.014 135.585 105.017 126.409 99.1281 121.75C98.9504 121.609 98.8228 121.413 98.7647 121.193C98.7066 120.973 98.7212 120.739 98.8062 120.528C98.8912 120.317 99.0421 120.14 99.2358 120.024C99.4296 119.908 99.6557 119.859 99.8799 119.885C108.359 120.839 125.668 122.04 121.668 129.124Z" fill="#F31C45"/>
<path d="M95.2235 157.924C89.0442 161.6 82.438 147.976 79.4711 140.792C79.3699 140.547 79.3504 140.275 79.4156 140.018C79.4809 139.761 79.6273 139.533 79.8327 139.368C80.0381 139.203 80.2912 139.111 80.5538 139.105C80.8163 139.098 81.074 139.179 81.2876 139.334C88.3468 144.496 102.012 153.873 95.2235 157.924Z" fill="#F31C45"/>
<path d="M55.7013 151.012C55.7018 150.791 55.7735 150.576 55.9057 150.401C56.0379 150.225 56.2233 150.097 56.4338 150.038C56.6443 149.978 56.8685 149.99 57.0724 150.071C57.2763 150.151 57.4488 150.297 57.5638 150.485C62.0084 157.81 71.8612 172.483 63.8274 173.625C56.4939 174.672 55.6812 158.526 55.7013 151.012Z" fill="#F31C45"/>
<path d="M24.6149 177.345C19.0578 172.468 30.3383 161.454 36.0018 156.492C36.1771 156.34 36.3971 156.249 36.6283 156.235C36.8596 156.22 37.0894 156.282 37.2828 156.412C37.4763 156.541 37.6228 156.731 37.6999 156.952C37.7771 157.173 37.7808 157.414 37.7104 157.637C35.1564 165.891 30.7026 182.684 24.6149 177.345Z" fill="#F31C45"/>
<path d="M8.49079 171.615C4.75514 164.862 19.2021 157.99 26.0887 155.177C26.2956 155.092 26.5242 155.078 26.7403 155.136C26.9563 155.194 27.1482 155.321 27.287 155.499C27.4258 155.676 27.5041 155.894 27.5102 156.12C27.5162 156.345 27.4497 156.567 27.3206 156.751C22.3136 163.83 12.6009 179.039 8.49079 171.615Z" fill="#F31C45"/>
<path d="M173.836 14C173.836 14 98.4146 32.1948 105.738 129.248C113.061 226.301 190.114 225.013 190.114 225.013L173.836 14Z" fill="#1BA098"/>
<path d="M189.484 216.847L174.783 26.313C153.068 39.0481 123.042 67.7646 127.733 128.397C132.398 188.764 166.135 209.634 189.484 216.847Z" fill="#0B1014"/>
<path d="M142.811 172.846C141.807 173.537 140.828 174.259 139.838 174.962C140.086 175.456 140.342 175.933 140.595 176.415C152.795 167.748 165.747 160.184 179.297 153.814C180.995 153.013 182.703 152.266 184.438 151.502L184.305 149.787C169.778 156.156 155.885 163.877 142.811 172.846Z" fill="#1BA098"/>
<path d="M176.173 131.628L182.85 131.019L182.727 129.395C166.455 130.878 150.191 132.359 133.936 133.838C132.064 134.013 130.195 134.184 128.327 134.353C128.389 134.901 128.47 135.431 128.534 135.971L176.173 131.628Z" fill="#1BA098"/>
<path d="M130.394 87.2416L181.476 113.224L181.327 111.313L139.558 90.065L130.787 85.6004C130.65 86.1436 130.519 86.6907 130.394 87.2416Z" fill="#1BA098"/>
<path d="M158.971 48.0676C151.65 52.9906 164.924 68.3076 171.586 75.2488C171.804 75.487 172.097 75.6455 172.416 75.6993C172.736 75.753 173.065 75.6989 173.351 75.5455C173.637 75.3921 173.863 75.1482 173.994 74.8525C174.125 74.5568 174.154 74.2263 174.075 73.9133C171.918 64.087 166.388 43.0817 158.971 48.0676Z" fill="#1BA098"/>
<path d="M146.807 72.5196C143.003 79.806 159.361 86.4584 167.249 89.1848C167.487 89.2673 167.746 89.2698 167.987 89.1921C168.227 89.1143 168.435 88.9605 168.58 88.7541C168.725 88.5477 168.798 88.3 168.788 88.0489C168.778 87.7977 168.686 87.5568 168.526 87.363C162.522 80.0062 150.974 64.5274 146.807 72.5196Z" fill="#1BA098"/>
<path d="M136.017 114.511C136.327 122.489 152.957 120.509 161.419 118.983C161.709 118.933 161.976 118.79 162.177 118.575C162.379 118.361 162.504 118.086 162.534 117.794C162.564 117.503 162.497 117.209 162.343 116.959C162.189 116.71 161.957 116.517 161.682 116.412C152.619 112.901 135.674 105.738 136.017 114.511Z" fill="#1BA098"/>
<path d="M166.259 147.352C166.464 147.219 166.62 147.023 166.704 146.794C166.787 146.566 166.794 146.316 166.722 146.084C166.65 145.851 166.504 145.649 166.307 145.506C166.109 145.364 165.869 145.29 165.625 145.296C156.144 145.523 136.581 145.1 140.358 153.288C143.796 160.779 159.277 151.868 166.259 147.352Z" fill="#1BA098"/>
<path d="M160.53 192.204C168.391 194.486 171.85 177.348 173.043 169.07C173.079 168.815 173.029 168.556 172.903 168.331C172.777 168.107 172.58 167.93 172.344 167.827C172.107 167.724 171.843 167.701 171.591 167.761C171.339 167.821 171.114 167.96 170.949 168.159C164.812 175.5 151.886 189.711 160.53 192.204Z" fill="#1BA098"/>
<path d="M175.549 203.856C184.085 203.293 181.757 185.666 180.222 177.549C180.173 177.309 180.048 177.091 179.865 176.928C179.683 176.765 179.452 176.664 179.207 176.641C178.963 176.618 178.717 176.673 178.506 176.8C178.294 176.926 178.129 177.116 178.034 177.342C174.455 186.264 166.18 204.463 175.549 203.856Z" fill="#1BA098"/>
<path d="M208.68 225.494C206.465 227.421 198.025 226.968 194.68 227.308C192.389 227.806 190.159 228.567 188.034 229.574C185.463 230.29 182.812 230.655 180.148 230.662C169.359 230.912 159.39 228.396 148.712 228.033C142.953 227.852 138.522 229.461 133.205 231.025C127.545 232.514 121.696 233.11 115.86 232.793C110.587 232.408 105.346 231.651 100.175 230.526C97.6192 230.009 95.0262 229.706 92.4219 229.62C89.7857 229.62 87.3932 230.504 84.6462 230.549C79.4181 230.549 75.4971 227.806 70.3133 227.874C65.1295 227.942 60.278 229.801 55.1385 230.141C54.2081 230.141 45.9451 228.69 45.4355 228.554C52.0814 220.439 56.1133 210.421 58.3728 206.341C62.8034 198.611 64.1104 195.846 72.5507 192.536C80.2821 189.522 83.8044 185.079 88.4787 178.46C90.561 175.491 92.7099 170.663 95.8999 168.736C99.0899 166.809 102.789 167.308 106.002 166.174C114.132 163.296 115.505 154.682 123.724 151.758C131.411 148.993 137.171 154.614 142.31 160.326C148.203 166.832 151.526 171.819 159.501 176.193C167.055 180.228 170.134 185.645 176.027 191.244C181.92 196.843 191.711 197.659 196.341 204.187C198.734 207.542 198.933 211.758 200.772 215.249C202.832 219.238 206.133 221.845 208.813 225.041L208.68 225.494Z" fill="#DEB992"/>
<path d="M164.091 219.012C164.001 218.724 163.85 218.461 163.649 218.241L163.316 217.969C163.054 217.815 162.755 217.737 162.453 217.742C162.231 217.73 162.01 217.777 161.811 217.878C161.599 217.95 161.409 218.074 161.257 218.241C161.101 218.398 160.987 218.593 160.925 218.808C160.817 219.009 160.764 219.236 160.77 219.465V219.918C160.843 220.208 160.988 220.473 161.191 220.689L161.545 220.961C161.804 221.104 162.092 221.182 162.386 221.188C162.61 221.194 162.832 221.139 163.029 221.029C163.238 220.966 163.429 220.849 163.582 220.689C163.745 220.533 163.867 220.339 163.936 220.122C164.035 219.919 164.081 219.692 164.069 219.465L164.091 219.012Z" fill="#F31C45"/>
<path d="M113.842 196.048C113.438 196.096 113.065 196.295 112.794 196.606C112.523 196.917 112.373 197.32 112.373 197.737C112.373 198.154 112.523 198.556 112.794 198.867C113.065 199.179 113.438 199.377 113.842 199.425C114.247 199.377 114.62 199.179 114.891 198.867C115.162 198.556 115.312 198.154 115.312 197.737C115.312 197.32 115.162 196.917 114.891 196.606C114.62 196.295 114.247 196.096 113.842 196.048Z" fill="#F31C45"/>
<path d="M83.3625 211.8C82.9635 211.848 82.5956 212.044 82.3286 212.351C82.0616 212.658 81.9141 213.055 81.9141 213.466C81.9141 213.878 82.0616 214.274 82.3286 214.581C82.5956 214.889 82.9635 215.085 83.3625 215.132C83.7614 215.085 84.1292 214.889 84.3962 214.581C84.6632 214.274 84.8108 213.878 84.8108 213.466C84.8108 213.055 84.6632 212.658 84.3962 212.351C84.1292 212.044 83.7614 211.848 83.3625 211.8V211.8Z" fill="#1BA098"/>
<path d="M93.9473 182.426L93.7701 182.018C93.6657 181.81 93.5137 181.631 93.3273 181.497C93.1531 181.347 92.949 181.239 92.7294 181.179H92.353C92.1839 181.157 92.0128 181.157 91.8438 181.179C91.517 181.17 91.1944 181.257 90.9137 181.429V181.429H90.7587C90.5097 181.581 90.3034 181.797 90.1598 182.055C90.0163 182.313 89.9403 182.605 89.9395 182.902C89.9387 183.202 90.0137 183.498 90.1572 183.76C90.3008 184.022 90.5079 184.242 90.7587 184.398H90.9137C91.1985 184.559 91.5183 184.645 91.8438 184.647C92.0128 184.669 92.1839 184.669 92.353 184.647H92.7294L93.1502 184.489C93.3481 184.373 93.5153 184.21 93.6373 184.012C93.7399 183.904 93.8158 183.772 93.8587 183.627C93.9647 183.409 94.0178 183.168 94.0137 182.925L93.9473 182.426Z" fill="#1BA098"/>
<path d="M120.545 183.603C120.309 183.639 120.094 183.761 119.938 183.946C119.783 184.131 119.697 184.367 119.697 184.612C119.697 184.856 119.783 185.092 119.938 185.277C120.094 185.462 120.309 185.584 120.545 185.62C120.781 185.584 120.996 185.462 121.151 185.277C121.307 185.092 121.392 184.856 121.392 184.612C121.392 184.367 121.307 184.131 121.151 183.946C120.996 183.761 120.781 183.639 120.545 183.603V183.603Z" fill="#F31C45"/>
<path d="M114.719 205.957C114.302 205.957 113.902 206.126 113.607 206.428C113.312 206.73 113.146 207.139 113.146 207.566C113.146 207.993 113.312 208.402 113.607 208.704C113.902 209.006 114.302 209.175 114.719 209.175C115.136 209.175 115.535 209.006 115.83 208.704C116.125 208.402 116.291 207.993 116.291 207.566C116.291 207.139 116.125 206.73 115.83 206.428C115.535 206.126 115.136 205.957 114.719 205.957V205.957Z" fill="#F31C45"/>
<path d="M138.909 194.347C138.569 194.347 138.242 194.486 138.001 194.732C137.76 194.979 137.625 195.313 137.625 195.662C137.625 196.011 137.76 196.345 138.001 196.592C138.242 196.838 138.569 196.977 138.909 196.977C139.25 196.977 139.577 196.838 139.817 196.592C140.058 196.345 140.194 196.011 140.194 195.662C140.194 195.313 140.058 194.979 139.817 194.732C139.577 194.486 139.25 194.347 138.909 194.347Z" fill="#F31C45"/>
<path d="M129.295 167.241C128.979 167.241 128.675 167.37 128.451 167.599C128.227 167.829 128.102 168.14 128.102 168.465C128.102 168.789 128.227 169.101 128.451 169.33C128.675 169.56 128.979 169.689 129.295 169.689C129.612 169.689 129.916 169.56 130.14 169.33C130.364 169.101 130.489 168.789 130.489 168.465C130.489 168.14 130.364 167.829 130.14 167.599C129.916 167.37 129.612 167.241 129.295 167.241V167.241Z" fill="#F31C45"/>
<path d="M157.285 177.824C157.217 177.575 157.088 177.349 156.909 177.167L156.621 176.917C156.391 176.784 156.132 176.714 155.868 176.713C155.669 176.712 155.471 176.759 155.292 176.849C155.106 176.911 154.939 177.02 154.805 177.167C154.669 177.296 154.569 177.46 154.517 177.643C154.409 177.818 154.362 178.026 154.385 178.232V178.64C154.457 178.894 154.586 179.126 154.761 179.32L155.071 179.547C155.3 179.682 155.56 179.753 155.824 179.751C156.024 179.762 156.224 179.715 156.4 179.615C156.578 179.562 156.739 179.46 156.864 179.32C157.003 179.18 157.109 179.009 157.175 178.821C157.263 178.638 157.308 178.436 157.307 178.232L157.285 177.824Z" fill="#F31C45"/>
<path d="M126.762 195.936C126.672 195.564 126.48 195.226 126.209 194.962L125.788 194.622C125.457 194.43 125.083 194.328 124.703 194.327C124.419 194.305 124.134 194.368 123.884 194.508C123.612 194.592 123.368 194.749 123.175 194.962C122.976 195.157 122.824 195.397 122.732 195.664C122.609 195.925 122.548 196.213 122.555 196.503V197.092C122.657 197.46 122.847 197.795 123.109 198.067L123.552 198.407C123.879 198.607 124.255 198.709 124.637 198.702C124.921 198.723 125.206 198.66 125.456 198.52C125.719 198.433 125.956 198.276 126.142 198.067C126.356 197.884 126.511 197.639 126.585 197.364C126.718 197.098 126.787 196.802 126.784 196.503L126.762 195.936Z" fill="#F31C45"/>
<path d="M58.0682 229.503C57.9669 229.136 57.7764 228.801 57.5147 228.529L57.0719 228.189C56.7443 227.988 56.3684 227.886 55.9869 227.894C55.7027 227.875 55.4188 227.938 55.1676 228.075C54.9071 228.169 54.6718 228.324 54.4812 228.529C54.274 228.717 54.121 228.96 54.0384 229.231C53.9023 229.496 53.8409 229.794 53.8612 230.093V230.659C53.9626 231.027 54.153 231.362 54.4148 231.634L54.8355 231.974C55.1679 232.165 55.5395 232.274 55.9204 232.291C56.2129 232.294 56.5015 232.224 56.7619 232.087C57.0266 232.003 57.2639 231.846 57.4483 231.634C57.648 231.439 57.7998 231.198 57.8911 230.931C58.0254 230.674 58.0867 230.384 58.0682 230.093V229.503Z" fill="#1BA098"/>
<path d="M95.8133 202.486C95.7411 202.232 95.6123 201.999 95.4369 201.806L95.1491 201.579C94.9196 201.446 94.6602 201.375 94.3962 201.375H93.9976C93.8078 201.419 93.6324 201.513 93.4884 201.647C93.3824 201.736 93.2925 201.844 93.2227 201.964V201.964C93.1415 202.038 93.0804 202.131 93.0455 202.236C92.9644 202.381 92.926 202.546 92.9348 202.712V203.03C92.987 203.17 93.0619 203.3 93.1563 203.415C93.1563 203.415 93.1563 203.415 93.1563 203.415L93.3112 203.642C93.454 203.776 93.6189 203.884 93.7984 203.959C93.9773 204.05 94.1745 204.096 94.3741 204.095C94.5737 204.096 94.7708 204.05 94.9498 203.959C95.125 203.888 95.2835 203.78 95.4148 203.642C95.5629 203.51 95.6706 203.336 95.7247 203.143C95.8129 202.968 95.8586 202.773 95.8577 202.576L95.8133 202.486Z" fill="#1BA098"/>
<path d="M143.424 168.415C143.35 168.126 143.205 167.86 143.003 167.644L142.649 167.395C142.395 167.237 142.104 167.151 141.807 167.146C141.576 167.138 141.347 167.193 141.143 167.304C140.94 167.368 140.757 167.485 140.611 167.644C140.446 167.797 140.323 167.993 140.257 168.211C140.149 168.42 140.095 168.654 140.102 168.891V169.344C140.175 169.639 140.328 169.907 140.545 170.115L140.877 170.387C141.14 170.541 141.438 170.619 141.741 170.614C141.963 170.626 142.184 170.579 142.383 170.478C142.594 170.406 142.784 170.282 142.936 170.115C143.099 169.96 143.221 169.765 143.291 169.548C143.39 169.345 143.436 169.118 143.424 168.891V168.415Z" fill="#F31C45"/>
<path d="M110.19 165.065C109.75 165.065 109.327 165.244 109.016 165.563C108.704 165.882 108.529 166.314 108.529 166.765C108.529 167.216 108.704 167.648 109.016 167.967C109.327 168.286 109.75 168.465 110.19 168.465C110.63 168.465 111.053 168.286 111.364 167.967C111.676 167.648 111.851 167.216 111.851 166.765C111.851 166.314 111.676 165.882 111.364 165.563C111.053 165.244 110.63 165.065 110.19 165.065Z" fill="#1BA098"/>
<path d="M117.858 174.576C117.418 174.576 116.995 174.755 116.684 175.074C116.372 175.393 116.197 175.825 116.197 176.276C116.197 176.727 116.372 177.159 116.684 177.478C116.995 177.797 117.418 177.976 117.858 177.976C118.298 177.976 118.721 177.797 119.032 177.478C119.344 177.159 119.519 176.727 119.519 176.276C119.519 175.825 119.344 175.393 119.032 175.074C118.721 174.755 118.298 174.576 117.858 174.576Z" fill="#1BA098"/>
<path d="M134.686 214.229C134.21 214.229 133.754 214.422 133.418 214.767C133.082 215.111 132.893 215.578 132.893 216.065C132.893 216.552 133.082 217.019 133.418 217.363C133.754 217.708 134.21 217.901 134.686 217.901C135.162 217.901 135.618 217.708 135.954 217.363C136.291 217.019 136.48 216.552 136.48 216.065C136.48 215.578 136.291 215.111 135.954 214.767C135.618 214.422 135.162 214.229 134.686 214.229Z" fill="#F31C45"/>
<path d="M161.732 197.747C161.687 197.53 161.579 197.333 161.422 197.18L161.179 196.999C160.992 196.885 160.778 196.822 160.56 196.818C160.399 196.821 160.241 196.859 160.096 196.931C159.945 196.978 159.808 197.064 159.698 197.18C159.584 197.293 159.501 197.434 159.455 197.589C159.377 197.734 159.339 197.899 159.344 198.064V198.404C159.398 198.611 159.505 198.799 159.654 198.949L159.897 199.153C160.084 199.267 160.298 199.329 160.516 199.334C160.677 199.334 160.836 199.296 160.98 199.221C161.137 199.174 161.276 199.079 161.378 198.949C161.497 198.846 161.589 198.713 161.643 198.563C161.688 198.4 161.688 198.228 161.643 198.064L161.732 197.747Z" fill="#F31C45"/>
<path d="M86.3618 219.279C85.939 219.279 85.5335 219.451 85.2345 219.757C84.9355 220.063 84.7676 220.478 84.7676 220.911C84.7676 221.344 84.9355 221.759 85.2345 222.065C85.5335 222.371 85.939 222.543 86.3618 222.543C86.7847 222.543 87.1902 222.371 87.4892 222.065C87.7881 221.759 87.9561 221.344 87.9561 220.911C87.9561 220.478 87.7881 220.063 87.4892 219.757C87.1902 219.451 86.7847 219.279 86.3618 219.279Z" fill="#1BA098"/>
<path d="M133.04 151.009C132.958 150.718 132.806 150.452 132.597 150.238L132.265 149.966C132.006 149.823 131.718 149.745 131.424 149.739C131.2 149.733 130.978 149.788 130.781 149.898C130.572 149.961 130.381 150.078 130.228 150.238C130.072 150.395 129.958 150.59 129.896 150.805C129.788 151.006 129.734 151.233 129.741 151.462V151.915C129.81 152.2 129.955 152.459 130.161 152.663L130.516 152.935C130.767 153.1 131.059 153.186 131.357 153.185C131.581 153.189 131.802 153.134 131.999 153.026C132.208 152.962 132.393 152.836 132.531 152.663C132.699 152.523 132.823 152.333 132.885 152.119C132.991 151.917 133.044 151.691 133.04 151.462V151.009Z" fill="#1BA098"/>
<path d="M122.247 160.956C121.876 161.002 121.534 161.185 121.287 161.471C121.039 161.757 120.902 162.126 120.902 162.509C120.902 162.891 121.039 163.26 121.287 163.546C121.534 163.832 121.876 164.016 122.247 164.061C122.617 164.016 122.959 163.832 123.206 163.546C123.454 163.26 123.591 162.891 123.591 162.509C123.591 162.126 123.454 161.757 123.206 161.471C122.959 161.185 122.617 161.002 122.247 160.956V160.956Z" fill="#1BA098"/>
<path d="M112.773 187.23C112.701 186.928 112.547 186.653 112.33 186.436L111.953 186.142C111.685 185.98 111.379 185.894 111.068 185.892C110.829 185.885 110.593 185.94 110.381 186.051C110.162 186.13 109.964 186.262 109.805 186.436C109.635 186.599 109.506 186.801 109.429 187.026C109.32 187.243 109.267 187.484 109.274 187.728V188.204C109.358 188.513 109.518 188.794 109.739 189.02L110.093 189.292C110.366 189.464 110.681 189.551 111.001 189.542C111.24 189.556 111.478 189.501 111.688 189.383C111.907 189.315 112.105 189.19 112.263 189.02C112.429 188.858 112.551 188.655 112.618 188.431C112.733 188.216 112.787 187.973 112.773 187.728V187.23Z" fill="#1BA098"/>
<path d="M79.3715 190.13C79.2932 189.862 79.1482 189.62 78.9508 189.427L78.6408 189.155C78.3963 189.019 78.122 188.949 77.8437 188.951C77.6351 188.926 77.4243 188.974 77.2458 189.087C77.0488 189.151 76.8727 189.268 76.7365 189.427C76.5869 189.563 76.4727 189.734 76.4043 189.926C76.3159 190.125 76.2706 190.342 76.2715 190.561V190.991C76.3374 191.259 76.4755 191.503 76.6701 191.694L76.9801 191.943C77.2184 192.097 77.4956 192.176 77.7772 192.17C77.9911 192.171 78.2026 192.125 78.3972 192.034C78.5848 191.964 78.7523 191.847 78.8844 191.694C79.0396 191.555 79.1544 191.374 79.2165 191.173C79.327 190.99 79.3738 190.774 79.3493 190.561L79.3715 190.13Z" fill="#1BA098"/>
<path d="M52.4907 216.271C52.1031 216.271 51.7314 216.428 51.4573 216.709C51.1832 216.989 51.0293 217.37 51.0293 217.767C51.0293 218.163 51.1832 218.544 51.4573 218.824C51.7314 219.105 52.1031 219.263 52.4907 219.263C52.8783 219.263 53.25 219.105 53.524 218.824C53.7981 218.544 53.9521 218.163 53.9521 217.767C53.9521 217.37 53.7981 216.989 53.524 216.709C53.25 216.428 52.8783 216.271 52.4907 216.271V216.271Z" fill="#1BA098"/>
<path d="M70.2826 205.07C70.2136 204.833 70.0924 204.616 69.9283 204.435V204.435C69.7571 204.259 69.543 204.134 69.3083 204.072C69.0692 204.005 68.8167 204.005 68.5776 204.072H68.312L68.0019 204.208C67.8635 204.297 67.7431 204.412 67.6476 204.548C67.5749 204.633 67.5219 204.734 67.4926 204.843C67.412 204.996 67.3737 205.168 67.382 205.341V205.704L67.5148 205.999C67.5869 206.157 67.7022 206.291 67.8469 206.384C67.9667 206.494 68.1113 206.572 68.2676 206.611H68.5333C68.7724 206.678 69.025 206.678 69.264 206.611C69.4987 206.549 69.7129 206.424 69.884 206.248V206.248C70.0124 206.121 70.1108 205.966 70.1719 205.795C70.245 205.623 70.2826 205.438 70.2826 205.251V205.07Z" fill="#1BA098"/>
<path d="M101.462 222.252C101.086 222.252 100.726 222.405 100.46 222.677C100.194 222.949 100.045 223.318 100.045 223.703C100.045 224.088 100.194 224.457 100.46 224.729C100.726 225.001 101.086 225.154 101.462 225.154C101.838 225.154 102.198 225.001 102.464 224.729C102.73 224.457 102.879 224.088 102.879 223.703C102.879 223.318 102.73 222.949 102.464 222.677C102.198 222.405 101.838 222.252 101.462 222.252V222.252Z" fill="#1BA098"/>
<path d="M163.773 226.985C163.397 226.985 163.036 227.138 162.77 227.41C162.505 227.682 162.355 228.051 162.355 228.435C162.355 228.82 162.505 229.189 162.77 229.461C163.036 229.733 163.397 229.886 163.773 229.886C164.148 229.886 164.509 229.733 164.775 229.461C165.04 229.189 165.19 228.82 165.19 228.435C165.19 228.051 165.04 227.682 164.775 227.41C164.509 227.138 164.148 226.985 163.773 226.985V226.985Z" fill="#F31C45"/>
<path d="M101.499 208.834C101.185 208.877 100.897 209.034 100.688 209.278C100.479 209.522 100.363 209.836 100.363 210.16C100.363 210.485 100.479 210.799 100.688 211.043C100.897 211.287 101.185 211.444 101.499 211.487C101.813 211.444 102.102 211.287 102.311 211.043C102.52 210.799 102.635 210.485 102.635 210.16C102.635 209.836 102.52 209.522 102.311 209.278C102.102 209.034 101.813 208.877 101.499 208.834Z" fill="#1BA098"/>
<path d="M101.456 175.125C101.226 175.16 101.016 175.28 100.864 175.46C100.712 175.641 100.629 175.872 100.629 176.11C100.629 176.349 100.712 176.58 100.864 176.76C101.016 176.941 101.226 177.061 101.456 177.096C101.686 177.061 101.896 176.941 102.048 176.76C102.2 176.58 102.283 176.349 102.283 176.11C102.283 175.872 102.2 175.641 102.048 175.46C101.896 175.28 101.686 175.16 101.456 175.125Z" fill="#1BA098"/>
<path d="M118.201 153.842C117.965 153.878 117.75 154 117.595 154.185C117.439 154.37 117.354 154.606 117.354 154.851C117.354 155.095 117.439 155.331 117.595 155.516C117.75 155.701 117.965 155.823 118.201 155.859C118.437 155.823 118.652 155.701 118.808 155.516C118.963 155.331 119.049 155.095 119.049 154.851C119.049 154.606 118.963 154.37 118.808 154.185C118.652 154 118.437 153.878 118.201 153.842Z" fill="#1BA098"/>
<path d="M140.829 160.303C140.74 160.155 140.619 160.031 140.475 159.94L140.231 159.759C140.048 159.651 139.844 159.589 139.633 159.577C139.423 159.589 139.218 159.651 139.035 159.759C138.853 159.861 138.701 160.012 138.596 160.195C138.491 160.379 138.436 160.588 138.438 160.801C138.439 161.017 138.495 161.228 138.599 161.415C138.704 161.601 138.854 161.757 139.035 161.867C139.216 161.976 139.423 162.031 139.633 162.025C139.843 162.031 140.051 161.976 140.231 161.867L140.475 161.685C140.619 161.594 140.74 161.47 140.829 161.323C140.917 161.164 140.963 160.984 140.962 160.801C140.962 160.626 140.916 160.453 140.829 160.303V160.303Z" fill="#F31C45"/>
<path d="M169.194 181.638C168.874 181.681 168.58 181.841 168.367 182.089C168.154 182.337 168.037 182.657 168.037 182.987C168.037 183.317 168.154 183.636 168.367 183.885C168.58 184.133 168.874 184.293 169.194 184.336C169.513 184.293 169.807 184.133 170.02 183.885C170.233 183.636 170.35 183.317 170.35 182.987C170.35 182.657 170.233 182.337 170.02 182.089C169.807 181.841 169.513 181.681 169.194 181.638V181.638Z" fill="#F31C45"/>
<path d="M147.618 183.716C147.542 183.416 147.389 183.142 147.175 182.922L146.821 182.65C146.556 182.479 146.248 182.392 145.935 182.401C145.703 182.382 145.471 182.438 145.271 182.56C145.049 182.621 144.849 182.747 144.695 182.922C144.532 183.078 144.411 183.273 144.341 183.489C144.235 183.707 144.182 183.948 144.186 184.192V184.668C144.271 184.957 144.423 185.222 144.629 185.438L144.983 185.733C145.258 185.879 145.56 185.964 145.869 185.982C146.107 185.987 146.342 185.932 146.555 185.824C146.769 185.747 146.96 185.614 147.109 185.438C147.279 185.29 147.402 185.092 147.463 184.872C147.571 184.663 147.625 184.428 147.618 184.192V183.716Z" fill="#F31C45"/>
<path d="M148.097 209.698C148.06 209.569 147.992 209.452 147.898 209.358L147.676 209.199C147.52 209.09 147.334 209.034 147.145 209.041H146.858C146.685 209.08 146.53 209.175 146.415 209.313L146.238 209.539C146.169 209.655 146.13 209.788 146.127 209.925C146.127 209.925 146.127 209.925 146.127 210.061C146.106 210.15 146.106 210.243 146.127 210.333C146.108 210.422 146.108 210.515 146.127 210.605C146.15 210.697 146.205 210.778 146.282 210.831H146.415C146.531 210.865 146.653 210.865 146.769 210.831V210.831C146.864 210.855 146.962 210.855 147.057 210.831V210.831C147.187 210.868 147.325 210.868 147.455 210.831C147.589 210.787 147.711 210.709 147.809 210.605C147.908 210.515 147.978 210.396 148.008 210.265C148.075 210.139 148.113 210 148.119 209.857C148.116 209.803 148.108 209.75 148.097 209.698Z" fill="#F31C45"/>
<path d="M132.255 178.684C131.958 178.725 131.685 178.875 131.488 179.106C131.291 179.338 131.182 179.635 131.182 179.942C131.182 180.249 131.291 180.546 131.488 180.778C131.685 181.009 131.958 181.159 132.255 181.2C132.553 181.159 132.825 181.009 133.023 180.778C133.22 180.546 133.329 180.249 133.329 179.942C133.329 179.635 133.22 179.338 133.023 179.106C132.825 178.875 132.553 178.725 132.255 178.684Z" fill="#F31C45"/>
<path d="M155.433 225.562C155.136 225.603 154.863 225.754 154.666 225.985C154.468 226.216 154.359 226.513 154.359 226.82C154.359 227.128 154.468 227.425 154.666 227.656C154.863 227.887 155.136 228.038 155.433 228.078C155.731 228.038 156.003 227.887 156.201 227.656C156.398 227.425 156.507 227.128 156.507 226.82C156.507 226.513 156.398 226.216 156.201 225.985C156.003 225.754 155.731 225.603 155.433 225.562Z" fill="#F31C45"/>
<path d="M124.376 211.965C124.326 211.805 124.243 211.658 124.133 211.534L123.933 211.376C123.786 211.286 123.618 211.239 123.447 211.24C123.324 211.206 123.194 211.206 123.071 211.24C122.955 211.286 122.85 211.355 122.761 211.444C122.674 211.535 122.607 211.643 122.562 211.761C122.529 211.887 122.529 212.02 122.562 212.146V212.418C122.607 212.58 122.691 212.728 122.805 212.849L123.004 213.008C123.152 213.097 123.32 213.144 123.491 213.144C123.614 213.177 123.744 213.177 123.867 213.144C123.983 213.097 124.088 213.028 124.177 212.94C124.263 212.848 124.331 212.741 124.376 212.622C124.409 212.496 124.409 212.363 124.376 212.237V211.965Z" fill="#F31C45"/>
<path d="M110.276 216.223C110.223 216.059 110.132 215.912 110.01 215.792L109.811 215.633C109.665 215.541 109.496 215.493 109.324 215.497C109.201 215.466 109.072 215.466 108.948 215.497C108.825 215.525 108.715 215.598 108.639 215.701C108.548 215.789 108.479 215.898 108.439 216.019C108.406 216.145 108.406 216.278 108.439 216.404V216.653C108.485 216.822 108.568 216.977 108.683 217.107L108.882 217.243C109.029 217.332 109.198 217.379 109.369 217.379C109.492 217.413 109.622 217.413 109.745 217.379C109.863 217.338 109.969 217.268 110.055 217.175C110.16 217.091 110.232 216.97 110.254 216.835C110.287 216.716 110.287 216.591 110.254 216.472L110.276 216.223Z" fill="#1BA098"/>
<path d="M148.772 220.298C148.727 220.137 148.644 219.989 148.529 219.868L148.33 219.709C148.183 219.62 148.014 219.573 147.843 219.573C147.72 219.539 147.59 219.539 147.467 219.573C147.342 219.597 147.231 219.67 147.157 219.777C147.053 219.852 146.981 219.966 146.958 220.094C146.925 220.221 146.925 220.354 146.958 220.48V220.729C147.011 220.899 147.102 221.054 147.224 221.183L147.423 221.341C147.569 221.434 147.738 221.481 147.91 221.477C148.033 221.509 148.162 221.509 148.286 221.477C148.401 221.431 148.507 221.362 148.595 221.273C148.682 221.182 148.75 221.074 148.795 220.956C148.815 220.828 148.815 220.698 148.795 220.57L148.772 220.298Z" fill="#F31C45"/>
<path d="M153.616 170.819C153.571 170.658 153.487 170.51 153.373 170.389L153.174 170.23C153.026 170.141 152.858 170.094 152.687 170.094C152.564 170.06 152.434 170.06 152.311 170.094C152.193 170.135 152.086 170.205 152.001 170.298C151.897 170.373 151.825 170.487 151.802 170.615C151.769 170.742 151.769 170.875 151.802 171.001V171.25C151.846 171.424 151.938 171.582 152.067 171.703L152.267 171.862C152.413 171.955 152.582 172.002 152.753 171.998C152.877 172.03 153.006 172.03 153.129 171.998C153.245 171.952 153.35 171.883 153.439 171.794C153.526 171.703 153.593 171.595 153.638 171.477C153.67 171.35 153.67 171.218 153.638 171.091L153.616 170.819Z" fill="#F31C45"/>
<path d="M133.49 158.419C133.444 158.25 133.361 158.095 133.246 157.966L133.047 157.83C132.898 157.743 132.731 157.696 132.56 157.694C132.437 157.659 132.307 157.659 132.184 157.694C132.066 157.734 131.96 157.804 131.874 157.898C131.769 157.981 131.698 158.103 131.675 158.238C131.642 158.356 131.642 158.482 131.675 158.6V158.963C131.715 159.132 131.808 159.284 131.941 159.394L132.118 159.552C132.273 159.642 132.448 159.689 132.627 159.688C132.742 159.722 132.865 159.722 132.981 159.688C133.112 159.665 133.231 159.593 133.312 159.484C133.404 159.397 133.472 159.288 133.512 159.167C133.546 159.041 133.546 158.908 133.512 158.782L133.49 158.419Z" fill="#F31C45"/>
<path d="M130.554 203.327C130.509 203.165 130.425 203.017 130.31 202.896L130.111 202.737C129.963 202.651 129.795 202.604 129.625 202.601C129.501 202.568 129.372 202.568 129.248 202.601C129.123 202.625 129.012 202.698 128.939 202.805C128.834 202.88 128.763 202.994 128.739 203.123C128.707 203.249 128.707 203.382 128.739 203.508V203.757C128.783 203.932 128.875 204.089 129.005 204.211L129.182 204.347C129.337 204.437 129.513 204.484 129.691 204.483C129.807 204.517 129.929 204.517 130.045 204.483C130.169 204.442 130.283 204.372 130.377 204.279C130.463 204.188 130.531 204.08 130.576 203.961C130.608 203.835 130.608 203.702 130.576 203.576L130.554 203.327Z" fill="#F31C45"/>
<path d="M165.027 188.43C164.97 188.2 164.855 187.99 164.695 187.818L164.429 187.614C164.218 187.499 163.983 187.436 163.743 187.433C163.566 187.413 163.387 187.453 163.234 187.546C163.07 187.593 162.924 187.687 162.813 187.818C162.685 187.945 162.586 188.1 162.525 188.271C162.492 188.444 162.492 188.621 162.525 188.793V189.155C162.585 189.383 162.708 189.587 162.879 189.745L163.145 189.971C163.349 190.087 163.577 190.149 163.809 190.153C163.993 190.162 164.176 190.123 164.341 190.039C164.499 189.97 164.641 189.87 164.761 189.745C164.894 189.635 164.987 189.484 165.027 189.314C165.115 189.155 165.161 188.975 165.16 188.793L165.027 188.43Z" fill="#F31C45"/>
<path d="M111.526 175.92C111.256 175.92 110.997 176.03 110.806 176.225C110.615 176.421 110.508 176.686 110.508 176.963C110.508 177.239 110.615 177.504 110.806 177.7C110.997 177.895 111.256 178.005 111.526 178.005C111.795 178.005 112.054 177.895 112.245 177.7C112.436 177.504 112.543 177.239 112.543 176.963C112.543 176.686 112.436 176.421 112.245 176.225C112.054 176.03 111.795 175.92 111.526 175.92Z" fill="#F31C45"/>
<path d="M87.6326 194.897C87.5832 194.682 87.476 194.486 87.3231 194.33L87.0799 194.149C86.9365 194.066 86.7788 194.012 86.6156 193.99C86.5137 193.967 86.408 193.967 86.3061 193.99V193.99C86.162 193.945 86.0079 193.945 85.8639 193.99C85.7275 194.03 85.6048 194.108 85.5101 194.217C85.4086 194.317 85.3327 194.442 85.2891 194.579C85.2448 194.727 85.2448 194.885 85.2891 195.033V195.033V195.237C85.2776 195.403 85.3162 195.569 85.3996 195.713C85.4455 195.868 85.5292 196.008 85.6428 196.121C85.7513 196.244 85.8881 196.338 86.0408 196.393C86.1933 196.465 86.3591 196.504 86.5272 196.506C86.6878 196.501 86.8457 196.462 86.9914 196.393C87.1441 196.338 87.2809 196.244 87.3894 196.121L87.5884 195.871C87.6941 195.678 87.7476 195.459 87.7431 195.237L87.6326 194.897Z" fill="#1BA098"/>
<path d="M104.874 199.287C104.56 199.329 104.271 199.487 104.063 199.731C103.854 199.974 103.738 200.288 103.738 200.613C103.738 200.937 103.854 201.251 104.063 201.495C104.271 201.739 104.56 201.896 104.874 201.939C105.188 201.896 105.477 201.739 105.686 201.495C105.895 201.251 106.01 200.937 106.01 200.613C106.01 200.288 105.895 199.974 105.686 199.731C105.477 199.487 105.188 199.329 104.874 199.287V199.287Z" fill="#1BA098"/>
<path d="M94.3595 169.144C94.0175 169.188 93.703 169.359 93.475 169.624C93.2469 169.889 93.1211 170.23 93.1211 170.583C93.1211 170.937 93.2469 171.278 93.475 171.543C93.703 171.808 94.0175 171.979 94.3595 172.023C94.7015 171.979 95.016 171.808 95.2441 171.543C95.4721 171.278 95.5979 170.937 95.5979 170.583C95.5979 170.23 95.4721 169.889 95.2441 169.624C95.016 169.359 94.7015 169.188 94.3595 169.144Z" fill="#1BA098"/>
<path d="M63.6678 216.494C63.3394 216.494 63.0245 216.628 62.7923 216.866C62.5602 217.104 62.4297 217.427 62.4297 217.763C62.4297 218.1 62.5602 218.423 62.7923 218.661C63.0245 218.899 63.3394 219.033 63.6678 219.033C63.9961 219.033 64.311 218.899 64.5432 218.661C64.7754 218.423 64.9058 218.1 64.9058 217.763C64.9058 217.427 64.7754 217.104 64.5432 216.866C64.311 216.628 63.9961 216.494 63.6678 216.494Z" fill="#1BA098"/>
<path d="M71.9255 227.324C71.5972 227.324 71.2823 227.458 71.0501 227.696C70.8179 227.934 70.6875 228.257 70.6875 228.594C70.6875 228.93 70.8179 229.253 71.0501 229.491C71.2823 229.729 71.5972 229.863 71.9255 229.863C72.2539 229.863 72.5688 229.729 72.8009 229.491C73.0331 229.253 73.1636 228.93 73.1636 228.594C73.1636 228.257 73.0331 227.934 72.8009 227.696C72.5688 227.458 72.2539 227.324 71.9255 227.324Z" fill="#1BA098"/>
<path d="M63.2941 201.149C62.9535 201.149 62.6268 201.287 62.3859 201.534C62.1451 201.781 62.0098 202.115 62.0098 202.464C62.0098 202.812 62.1451 203.147 62.3859 203.393C62.6268 203.64 62.9535 203.778 63.2941 203.778C63.6347 203.778 63.9613 203.64 64.2021 203.393C64.443 203.147 64.5783 202.812 64.5783 202.464C64.5783 202.115 64.443 201.781 64.2021 201.534C63.9613 201.287 63.6347 201.149 63.2941 201.149V201.149Z" fill="#1BA098"/>
<path d="M81.1756 200.764C80.8472 200.764 80.5323 200.897 80.3001 201.135C80.0679 201.374 79.9375 201.696 79.9375 202.033C79.9375 202.37 80.0679 202.693 80.3001 202.931C80.5323 203.169 80.8472 203.302 81.1756 203.302C81.5039 203.302 81.8188 203.169 82.051 202.931C82.2832 202.693 82.4136 202.37 82.4136 202.033C82.4136 201.696 82.2832 201.374 82.051 201.135C81.8188 200.897 81.5039 200.764 81.1756 200.764V200.764Z" fill="#1BA098"/>
<path d="M73.1408 215.294L72.9194 214.977C72.786 214.83 72.6183 214.721 72.4322 214.659C72.3188 214.588 72.1889 214.549 72.0559 214.546C71.859 214.501 71.6548 214.501 71.458 214.546H71.1923L70.8602 214.705C70.6941 214.781 70.5549 214.907 70.4616 215.067C70.3752 215.158 70.3074 215.266 70.2623 215.385C70.1703 215.558 70.1317 215.755 70.1516 215.951V216.337L70.3066 216.677C70.3809 216.847 70.5047 216.989 70.6609 217.085C70.7969 217.218 70.965 217.312 71.148 217.357H71.4137H71.8123C72.0119 217.358 72.209 217.311 72.388 217.221C72.5127 217.18 72.6264 217.11 72.7201 217.017C72.8785 216.907 73.0079 216.759 73.0965 216.586V216.586C73.2432 216.357 73.3202 216.089 73.3179 215.815C73.2949 215.631 73.2346 215.453 73.1408 215.294V215.294Z" fill="#1BA098"/>
<path d="M95.5669 215.206C95.5134 214.993 95.4068 214.797 95.2574 214.639L95.0142 214.458C94.8228 214.353 94.6118 214.291 94.3952 214.276H94.0857C93.9296 214.315 93.7852 214.393 93.6656 214.503C93.5292 214.589 93.4214 214.716 93.3561 214.866C93.2965 214.953 93.2585 215.054 93.2456 215.16C93.2228 215.242 93.2228 215.328 93.2456 215.41V215.636C93.2662 215.772 93.3111 215.903 93.3782 216.022L93.5772 216.271C93.6749 216.391 93.806 216.478 93.953 216.52C94.0988 216.59 94.2567 216.628 94.4173 216.634C94.5786 216.634 94.7378 216.595 94.8816 216.52C95.0328 216.473 95.1697 216.388 95.2795 216.271C95.3931 216.159 95.4768 216.018 95.5227 215.863C95.5958 215.716 95.6338 215.553 95.6333 215.387L95.5669 215.206Z" fill="#1BA098"/>
<path d="M119.328 220.167C118.969 220.213 118.638 220.391 118.398 220.669C118.158 220.946 118.025 221.304 118.025 221.675C118.025 222.046 118.158 222.403 118.398 222.681C118.638 222.959 118.969 223.137 119.328 223.182C119.687 223.137 120.018 222.959 120.258 222.681C120.498 222.403 120.631 222.046 120.631 221.675C120.631 221.304 120.498 220.946 120.258 220.669C120.018 220.391 119.687 220.213 119.328 220.167V220.167Z" fill="#F31C45"/>
<path d="M133.47 207.949C133.129 207.949 132.803 208.088 132.562 208.334C132.321 208.581 132.186 208.915 132.186 209.264C132.186 209.613 132.321 209.947 132.562 210.194C132.803 210.44 133.129 210.579 133.47 210.579C133.81 210.579 134.137 210.44 134.378 210.194C134.619 209.947 134.754 209.613 134.754 209.264C134.754 208.915 134.619 208.581 134.378 208.334C134.137 208.088 133.81 207.949 133.47 207.949V207.949Z" fill="#F31C45"/>
<path d="M145.118 199.585C144.877 199.656 144.666 199.804 144.515 200.009C144.365 200.213 144.283 200.463 144.283 200.719C144.283 200.975 144.365 201.224 144.515 201.429C144.666 201.633 144.877 201.782 145.118 201.852C145.358 201.782 145.57 201.633 145.72 201.429C145.871 201.224 145.952 200.975 145.952 200.719C145.952 200.463 145.871 200.213 145.72 200.009C145.57 199.804 145.358 199.656 145.118 199.585V199.585Z" fill="#F31C45"/>
<path d="M153.213 193.168C153.104 192.98 152.949 192.824 152.763 192.716C152.576 192.609 152.366 192.554 152.152 192.556C151.941 192.553 151.733 192.608 151.55 192.716C151.367 192.824 151.216 192.98 151.113 193.168C150.991 193.356 150.929 193.578 150.936 193.803C150.929 194.028 150.991 194.25 151.113 194.438L151.246 194.778C151.335 194.938 151.465 195.071 151.621 195.163C151.784 195.257 151.966 195.311 152.152 195.322C152.339 195.318 152.522 195.263 152.683 195.163C152.845 195.072 152.982 194.939 153.08 194.778L153.213 194.438C153.325 194.245 153.386 194.027 153.39 193.803C153.386 193.579 153.325 193.361 153.213 193.168V193.168Z" fill="#F31C45"/>
<path d="M160.894 205.817C160.442 205.817 160.009 206.001 159.689 206.329C159.369 206.656 159.189 207.1 159.189 207.563C159.189 208.026 159.369 208.47 159.689 208.797C160.009 209.124 160.442 209.308 160.894 209.308C161.347 209.308 161.78 209.124 162.1 208.797C162.42 208.47 162.599 208.026 162.599 207.563C162.599 207.1 162.42 206.656 162.1 206.329C161.78 206.001 161.347 205.817 160.894 205.817Z" fill="#F31C45"/>
<path d="M133.201 184.452C132.767 184.452 132.35 184.629 132.042 184.943C131.735 185.258 131.562 185.685 131.562 186.129C131.562 186.574 131.735 187.001 132.042 187.316C132.35 187.63 132.767 187.807 133.201 187.807C133.636 187.807 134.052 187.63 134.36 187.316C134.667 187.001 134.84 186.574 134.84 186.129C134.84 185.685 134.667 185.258 134.36 184.943C134.052 184.629 133.636 184.452 133.201 184.452Z" fill="#F31C45"/>
<path d="M143.025 228.954C142.717 228.995 142.434 229.151 142.228 229.39C142.023 229.63 141.91 229.938 141.91 230.257C141.91 230.576 142.023 230.884 142.228 231.124C142.434 231.363 142.717 231.519 143.025 231.56C143.334 231.519 143.617 231.363 143.822 231.124C144.027 230.884 144.141 230.576 144.141 230.257C144.141 229.938 144.027 229.63 143.822 229.39C143.617 229.151 143.334 228.995 143.025 228.954V228.954Z" fill="#F31C45"/>
<path d="M78.5898 228.576C78.2304 228.621 77.8994 228.799 77.6595 229.077C77.4196 229.354 77.2871 229.712 77.2871 230.083C77.2871 230.454 77.4196 230.812 77.6595 231.089C77.8994 231.367 78.2304 231.545 78.5898 231.59C78.9492 231.545 79.28 231.367 79.52 231.089C79.7599 230.812 79.8924 230.454 79.8924 230.083C79.8924 229.712 79.7599 229.354 79.52 229.077C79.28 228.799 78.9492 228.621 78.5898 228.576V228.576Z" fill="#1BA098"/>
<path d="M107.816 231.095C107.766 230.935 107.683 230.788 107.573 230.664L107.374 230.505C107.226 230.416 107.058 230.369 106.887 230.369C106.764 230.338 106.634 230.338 106.511 230.369C106.395 230.416 106.29 230.485 106.201 230.573C106.115 230.665 106.047 230.773 106.002 230.891C105.968 231.017 105.968 231.15 106.002 231.276V231.526C106.047 231.694 106.131 231.849 106.245 231.979L106.444 232.138C106.597 232.21 106.763 232.249 106.931 232.251C107.054 232.286 107.184 232.286 107.307 232.251C107.423 232.205 107.528 232.135 107.617 232.047C107.703 231.956 107.771 231.848 107.816 231.73C107.847 231.603 107.847 231.471 107.816 231.344V231.095Z" fill="#1BA098"/>
<path d="M62.4019 228.075C62.1555 228.075 61.9191 228.175 61.7448 228.354C61.5706 228.532 61.4727 228.774 61.4727 229.027C61.4727 229.279 61.5706 229.521 61.7448 229.7C61.9191 229.878 62.1555 229.979 62.4019 229.979C62.6484 229.979 62.8847 229.878 63.059 229.7C63.2332 229.521 63.3311 229.279 63.3311 229.027C63.3311 228.774 63.2332 228.532 63.059 228.354C62.8847 228.175 62.6484 228.075 62.4019 228.075V228.075Z" fill="#1BA098"/>
<path d="M120.669 232.268C120.608 232.028 120.486 231.809 120.315 231.634L120.027 231.43C119.822 231.294 119.584 231.223 119.34 231.226C119.157 231.22 118.975 231.258 118.809 231.339C118.644 231.407 118.494 231.508 118.366 231.634C118.243 231.765 118.145 231.919 118.078 232.087C117.999 232.257 117.961 232.443 117.967 232.631V233.016C118.041 233.244 118.162 233.453 118.322 233.628L118.61 233.855C118.82 233.973 119.056 234.036 119.296 234.036C119.48 234.058 119.667 234.018 119.827 233.923C119.995 233.861 120.146 233.76 120.27 233.628C120.399 233.502 120.497 233.347 120.558 233.175C120.651 233.011 120.69 232.82 120.669 232.631V232.268Z" fill="#1BA098"/>
<path d="M88.2232 229.776C87.7475 229.776 87.2914 229.969 86.955 230.314C86.6186 230.658 86.4297 231.125 86.4297 231.612C86.4297 232.099 86.6186 232.566 86.955 232.91C87.2914 233.254 87.7475 233.448 88.2232 233.448C88.6989 233.448 89.1551 233.254 89.4914 232.91C89.8278 232.566 90.0168 232.099 90.0168 231.612C90.0168 231.125 89.8278 230.658 89.4914 230.314C89.1551 229.969 88.6989 229.776 88.2232 229.776Z" fill="#1BA098"/>
<path d="M110.416 230.749C110.118 230.79 109.846 230.94 109.648 231.171C109.451 231.403 109.342 231.7 109.342 232.007C109.342 232.314 109.451 232.611 109.648 232.843C109.846 233.074 110.118 233.224 110.416 233.265C110.713 233.224 110.986 233.074 111.183 232.843C111.381 232.611 111.489 232.314 111.489 232.007C111.489 231.7 111.381 231.403 111.183 231.171C110.986 230.94 110.713 230.79 110.416 230.749Z" fill="#1BA098"/>
<path d="M129.923 221.479C129.626 221.52 129.353 221.67 129.156 221.901C128.958 222.133 128.85 222.43 128.85 222.737C128.85 223.044 128.958 223.341 129.156 223.573C129.353 223.804 129.626 223.954 129.923 223.995C130.221 223.954 130.493 223.804 130.691 223.573C130.888 223.341 130.997 223.044 130.997 222.737C130.997 222.43 130.888 222.133 130.691 221.901C130.493 221.67 130.221 221.52 129.923 221.479V221.479Z" fill="#F31C45"/>
<path d="M16.174 221.639C16.8364 226.494 18.1172 230.948 20.0164 234.999C20.872 236.824 22.8064 238.016 24.9484 238L261.774 236.235C264.294 236.216 266.424 234.554 266.937 232.268C267.704 228.835 268.056 225.034 267.993 220.864C267.954 218.197 265.571 216.068 262.692 216.068H21.4315C18.2215 216.068 15.7726 218.688 16.174 221.639Z" fill="#DEB992"/>
<path d="M262.689 216.068H21.4295C20.1776 216.06 18.9598 216.482 17.9746 217.267C39.6169 219.86 88.0056 224.852 130.151 223.484C173.952 222.067 238.513 218.197 264.983 216.557C264.26 216.235 263.479 216.069 262.689 216.068V216.068Z" fill="#0B1014"/>
<path d="M47.2495 234.804C41.4092 231.981 35.2356 229.567 28.6885 228.629C25.0135 228.103 21.2688 228.065 17.6465 228.681C17.7131 228.911 17.7875 229.136 17.8573 229.363C21.1199 228.837 24.4394 228.784 27.7167 229.205C34.2684 230.013 40.4652 232.354 46.3025 235.143C48.0834 235.993 49.8379 236.887 51.5832 237.795L53.1223 237.784C51.1787 236.771 49.2288 235.761 47.2495 234.804Z" fill="#F31C45"/>
<path d="M150.225 236.03C137.256 232.98 123.674 234.681 110.594 236.098C97.3165 237.535 83.5713 238.746 70.6228 234.868C58.223 231.156 47.4785 223.828 34.9051 220.541C29.3686 219.091 23.5469 218.494 17.8554 219.477C17.3346 219.566 16.8184 219.678 16.3054 219.792C16.2306 220.049 16.1788 220.312 16.1504 220.579C21.3428 219.404 27.0002 219.546 32.1151 220.615C44.5847 223.224 55.2098 230.219 67.0113 234.434C71.3179 235.956 75.771 237.012 80.2962 237.583L104.786 237.4C104.919 237.387 105.054 237.376 105.187 237.362C118.542 236.069 132.112 233.831 145.522 235.846C147.502 236.143 149.466 236.546 151.404 237.052L153.911 237.033C152.695 236.658 151.466 236.324 150.225 236.03Z" fill="#1BA098"/>
<path d="M197.624 228.034C201.403 229.14 205.337 229.601 209.265 229.399C217.634 229.004 225.539 226.109 232.947 222.675C237.552 220.54 242.05 218.218 246.639 216.062H244.888C241.952 217.465 239.052 218.931 236.127 220.354C228.624 224.007 220.782 227.414 212.285 228.43C208.198 228.918 204.015 228.834 200.002 227.916C196.48 227.11 193.156 225.729 189.907 224.261C183.654 221.427 177.287 217.963 170.162 217.657C169.301 217.621 168.439 217.632 167.579 217.692C167.09 217.727 167.087 218.437 167.579 218.404C174.864 217.905 181.473 221.165 187.782 224.072C190.981 225.561 194.213 227.021 197.624 228.034Z" fill="#F31C45"/>
<path d="M164.215 227.296C159.237 225.277 153.939 223.633 148.441 223.711C146.329 223.741 144.032 224.026 142.333 225.285C140.608 226.578 140.375 228.749 141.648 230.407C143.182 232.406 145.805 232.9 148.286 233.108C151.076 233.341 153.866 233.557 156.656 233.908C162.022 234.591 167.345 235.59 172.598 236.9L175.341 236.879C170.924 235.692 166.441 234.71 161.912 233.965C159.226 233.523 156.52 233.16 153.796 232.875C152.412 232.73 151.026 232.607 149.638 232.504C148.28 232.403 146.905 232.332 145.585 231.997C144.362 231.682 143.226 231.132 142.43 230.196C141.713 229.349 141.356 228.248 141.748 227.204C142.434 225.379 144.901 224.693 146.763 224.504C152.14 223.959 157.6 225.501 162.507 227.385C167.711 229.382 172.663 231.896 177.826 233.979C180.324 234.988 182.855 235.923 185.41 236.803L187.597 236.788C184.932 235.908 182.291 234.972 179.692 233.954C174.43 231.899 169.416 229.408 164.215 227.296Z" fill="#F31C45"/>
<path d="M70.3298 225.311C78.6978 227.882 87.3488 229.384 96.0826 229.782C104.913 230.197 113.759 229.442 122.397 227.535C132.196 225.356 141.545 221.811 151.098 218.896C154.554 217.842 158.072 216.865 161.637 216.062H158.553C157.446 216.34 156.345 216.63 155.248 216.933C145.639 219.599 136.37 223.193 126.729 225.74C117.993 228.071 108.993 229.224 99.9607 229.17C91.1642 229.096 82.4119 227.895 73.9118 225.594C65.8594 223.425 58.1121 220.222 50.8574 216.062H49.4082C56.0043 219.961 63.0256 223.065 70.3298 225.311V225.311Z" fill="#F31C45"/>
</g>
<defs>
<clipPath id="clip0_1245_100926">
<rect width="170" height="260" rx="5" fill="white"/>
</clipPath>
</defs>
</svg>
