<svg width="170" height="260" viewBox="0 0 170 260" fill="none" xmlns="http://www.w3.org/2000/svg">
<g clip-path="url(#clip0_1245_101172)">
<rect width="170" height="260" rx="5" fill="#F9F9FA"/>
<path d="M81.1459 103.158L80.8009 103.066C80.4472 102.971 80.1349 102.759 79.9141 102.463C79.6933 102.167 79.5767 101.805 79.5831 101.434C79.914 81.6857 78.745 62.9096 74.6442 45.6633C74.6436 45.6595 74.6416 45.656 74.6388 45.6534C74.6359 45.6508 74.6323 45.6492 74.6285 45.6489H54.6635C54.6598 45.6491 54.6564 45.6505 54.6535 45.6528C54.6507 45.655 54.6487 45.6582 54.6477 45.6617C49.7183 61.2648 48.2878 80.3494 48.7352 101.243C48.744 101.62 48.6284 101.988 48.4068 102.289C48.1852 102.591 47.8704 102.809 47.5127 102.908C43.0192 104.127 39.0259 106.769 36.1125 110.448C33.1991 114.128 31.5173 118.653 31.3113 123.368C28.8395 153.283 29.1908 186.249 31.3223 221.136C31.379 222.068 31.7644 222.948 32.408 223.616C33.0517 224.283 33.9106 224.693 34.8276 224.77C54.9218 226.399 74.5277 226.498 93.59 224.802C94.5072 224.715 95.3627 224.296 95.9995 223.62C96.6362 222.945 97.0113 222.059 97.0559 221.125C98.9716 182.707 100.24 146.353 97.2481 123.616C97.0485 118.914 95.381 114.399 92.4867 110.722C89.5923 107.044 85.6208 104.396 81.1459 103.158Z" fill="#F31C45"/>
<path d="M51.9534 32.5334C51.7769 35.9622 51.9534 39.9521 52.8986 44.0698L77.4748 43.7421C78.4752 39.7459 78.9588 35.9094 78.5067 32.4087C78.3844 31.4042 77.952 30.4648 77.2714 29.7249C76.5909 28.9849 75.697 28.4824 74.7179 28.2894C68.7581 27.1224 62.7322 27.1448 55.9155 28.1663C54.86 28.3189 53.889 28.837 53.1669 29.6329C52.4448 30.4288 52.0161 31.4535 51.9534 32.5334Z" fill="#0B1014"/>
<path d="M55.916 28.1672C55.2524 28.2717 54.6188 28.5204 54.0586 28.8962C56.8029 29.5452 60.4862 30.0583 65.2896 30.0583C68.8213 30.0766 72.3383 29.5956 75.7393 28.6292C75.4128 28.4773 75.0703 28.3636 74.7184 28.2903C68.7602 27.1234 62.7328 27.1458 55.916 28.1672Z" fill="#F31C45"/>
<path d="M56.9414 28.0295C56.9414 31.6901 58.5168 35.2356 59.6007 38.7043C60.1316 40.4147 60.5459 42.1779 60.5822 43.9666L61.2832 43.957C61.195 40.2629 59.5912 36.7893 58.5389 33.263C58.0237 31.535 57.644 29.7335 57.6629 27.9336L56.9414 28.0295Z" fill="#F31C45"/>
<path d="M52.442 30.7134C52.3111 30.9735 52.2056 31.246 52.127 31.527C52.2983 31.7873 52.484 32.0376 52.6831 32.2767C53.6283 33.4133 54.7405 34.3868 55.596 35.6016C56.4936 36.8718 57.1796 38.2828 57.6267 39.7785C58.0205 41.1037 58.3246 42.6878 57.7685 44.005L58.5184 43.9954C58.7284 43.3443 58.8129 42.6583 58.7673 41.9749C58.5845 38.8993 56.9634 35.8638 54.9249 33.6466C54.071 32.7163 53.0785 31.8195 52.442 30.7134Z" fill="#F31C45"/>
<path d="M78.1741 40.5273C77.0304 40.8758 76.0458 41.6607 75.3227 42.6214C75.0506 42.9853 74.8112 43.3731 74.6074 43.7803L75.4251 43.7707C75.4503 43.726 75.4723 43.6812 75.4975 43.638C76.0899 42.647 76.95 41.7854 78.0182 41.3474C78.0764 41.0772 78.1253 40.7991 78.1741 40.5273Z" fill="#F31C45"/>
<path d="M53.5924 44.0616C53.4349 43.0497 53.9075 41.8748 53.98 40.8645C54.064 39.4127 53.8014 37.9617 53.2143 36.6349C52.8786 35.8766 52.4331 35.1735 51.8926 34.5488C51.8926 34.9474 51.8926 35.3507 51.8926 35.7589C52.2452 36.2686 52.5357 36.8199 52.7575 37.4006C53.3093 38.88 53.4296 40.4893 53.1041 42.0363C52.9812 42.6149 52.83 43.2 52.8378 43.7946C52.8599 43.8889 52.8756 43.9832 52.8977 44.0775L53.5924 44.0616Z" fill="#F31C45"/>
<path d="M71.1105 43.8277L71.9581 43.8149C72.7804 42.7167 73.6453 41.6297 73.5587 40.1687C73.4988 39.1504 72.8655 38.1977 71.8588 37.9308C70.8521 37.6638 70.0692 38.3112 69.5997 39.1616C69.3492 39.6156 69.1617 40.1127 68.8467 40.5267C68.5217 40.9272 68.1147 41.2512 67.6541 41.4763C66.9436 41.8503 66.1732 42.0853 65.4312 42.3858C64.9349 39.9769 63.5108 37.91 62.4269 35.7408C61.8204 34.5275 61.3131 33.2295 61.2139 31.8596C61.136 30.5358 61.3396 29.2105 61.8109 27.9736C61.8676 27.8138 61.9401 27.6715 62.0031 27.5181C61.74 27.5341 61.4785 27.5452 61.2154 27.5644C60.4072 29.708 60.234 32.0147 61.0075 34.2302C61.9259 36.8646 63.7518 39.0705 64.5537 41.7528C64.6441 42.0575 64.7177 42.367 64.7742 42.6799L64.7254 42.7023C64.1395 43.0026 63.6189 43.419 63.1941 43.9268L64.1945 43.9124C64.3071 43.8121 64.4255 43.7187 64.549 43.6326C64.6529 43.5639 64.7648 43.508 64.8735 43.4488C64.8845 43.6007 64.8861 43.7509 64.8877 43.9028L65.5982 43.8948C65.5986 43.6337 65.585 43.3727 65.5572 43.1131C66.8758 42.552 68.352 42.2419 69.3035 41.0974C69.8628 40.4276 70.0487 39.4078 70.7214 38.8467C71.6666 38.0554 72.7836 39.176 72.8497 40.1623C72.9348 41.4715 72.0463 42.568 71.3122 43.5447C71.2428 43.6342 71.1783 43.7349 71.1105 43.8277Z" fill="#F31C45"/>
<path d="M74.7654 41.7674C75.2822 40.9577 75.7403 40.1109 76.136 39.2337C76.4999 38.4345 76.8418 37.5841 77.3963 36.8999C77.7331 36.4907 78.1668 36.175 78.6566 35.9823C78.6661 35.7266 78.6755 35.4708 78.6755 35.2183C78.5684 35.2502 78.4613 35.2678 78.3605 35.311C76.4983 36.0575 75.9249 38.1467 75.0805 39.798C74.3317 41.253 73.4014 42.6042 72.3125 43.8182L73.2577 43.807C73.8026 43.1605 74.3062 42.4792 74.7654 41.7674Z" fill="#F31C45"/>
<path d="M66.5754 28.5483C65.2771 29.0903 64.2146 30.0884 63.5821 31.3601C62.952 32.6149 62.7755 34.1255 63.2954 35.4507C63.8862 36.9549 65.2646 37.6582 66.8227 37.4488C69.8837 37.0348 72.2468 34.466 74.7895 32.925C75.8729 32.242 77.0861 31.7986 78.3499 31.6238C78.2801 31.3848 78.1916 31.1517 78.0852 30.9269C77.6306 30.9845 77.182 31.0829 76.7445 31.221C73.8726 32.145 71.7553 34.4548 69.137 35.8567C67.8168 36.5648 65.7845 37.3817 64.5368 36.1093C63.4907 35.0431 63.5254 33.2591 64.0784 31.9627C64.362 31.295 64.7808 30.6953 65.3076 30.2023C65.8344 29.7094 66.4574 29.3343 67.1362 29.1014C66.6636 29.7792 66.0775 30.3802 65.6994 31.1059C64.8046 32.8323 66.243 34.5891 68.0373 34.5731C70.1862 34.5539 71.645 32.6405 73.0896 31.2978C74.0502 30.4092 75.0561 29.5725 76.1034 28.7913C75.8644 28.6608 75.6151 28.5507 75.3582 28.462C74.8068 28.8824 74.2554 29.314 73.7355 29.7648C72.962 30.4266 72.2216 31.1251 71.4953 31.8428C70.7423 32.5878 69.9451 33.371 68.918 33.7019C68.0058 33.9944 66.9361 33.8714 66.3627 33.0146C65.7577 32.1098 66.4131 31.221 66.9928 30.5145C67.4055 30.0151 67.7745 29.4803 68.0956 28.916C69.4631 28.7657 70.8715 29.103 72.2421 28.9863C73.0232 28.9268 73.7774 28.6708 74.4366 28.2414C74.0506 28.1679 73.6615 28.1055 73.274 28.0432C72.687 28.2283 72.0734 28.3116 71.4591 28.2894C70.4603 28.275 69.4505 28.1295 68.4564 28.1775C68.5541 27.9665 68.6281 27.7443 68.71 27.5269C68.4658 27.5109 68.2248 27.4869 67.979 27.4741C67.8735 27.7395 67.7695 28.0048 67.6403 28.2606C67.2757 28.315 66.9184 28.4116 66.5754 28.5483Z" fill="#F31C45"/>
<path d="M53.3768 43.0835C52.9563 44.6108 52.737 46.1878 52.7246 47.7735C52.7246 48.5904 53.2918 49.2729 54.0086 49.3561C60.8568 50.1553 67.8721 50.101 75.0322 49.3561C75.7916 49.2761 76.3729 48.528 76.3335 47.6664C76.2661 46.0611 76.0015 44.4705 75.5458 42.9316L53.3768 43.0835Z" fill="#0B1014"/>
<path d="M78.6851 43.6006C78.6851 45.4405 77.376 46.5883 66.041 46.5883C54.706 46.5883 50.6855 45.4405 50.6855 43.6006C50.6855 41.7608 52.2767 40.2773 63.6133 40.2773C74.9499 40.2773 78.6851 41.7624 78.6851 43.6006Z" fill="#F31C45"/>
<path d="M61.0293 27.192L61.2829 53.4443H68.1123L68.7503 27.1456C66.2219 26.4367 63.5493 26.4527 61.0293 27.192Z" fill="#0B1014"/>
<path d="M42.2379 210.768C41.3383 212.723 41.3604 214.951 41.8818 217.322C57.2546 218.811 72.7502 218.92 88.4002 217.322C88.8839 214.951 88.8729 212.724 87.9513 210.768C72.8463 210.249 57.6085 210.249 42.2379 210.768Z" fill="#0B1014"/>
<path d="M77.6281 61.9893C68.7235 61.4634 59.7968 61.4474 50.8904 61.9414C49.2898 71.9656 48.6423 82.9314 48.6565 94.5398C58.8288 95.5117 69.1571 95.4317 79.6272 94.4023C79.6005 83.2207 79.0239 72.3844 77.6281 61.9893Z" fill="#0B1014"/>
<path d="M48.7539 86.9722C59.0933 89.111 69.3491 89.0854 79.5167 86.7852C79.3939 82.1602 79.1565 77.6033 78.8046 73.1147C69.0415 72.5539 59.2524 72.6532 49.5022 73.412C49.1115 77.7984 48.8736 82.3269 48.7539 86.9722Z" fill="#F31C45"/>
<path d="M64.1443 68.2354C59.5757 71.784 56.3225 74.858 53.627 79.2347C56.4516 83.3461 59.2023 87.1569 63.7363 90.4706C68.3044 87.6675 72.0695 83.6994 74.657 78.9613C71.7315 74.7733 67.8969 71.7521 64.1443 68.2354Z" fill="#F31C45"/>
<path d="M63.8423 87.603L63.7462 87.5342C60.5182 85.1812 58.5143 82.4542 56.4095 79.3914L56.3418 79.2923L56.4048 79.1916C58.4134 75.9291 60.9057 73.6416 64.0313 71.2119L64.151 71.1191L64.2613 71.223C64.8663 71.7905 65.4744 72.342 66.0778 72.8839C68.2077 74.8021 70.2179 76.6244 71.8705 78.9806L71.9351 79.0733L71.8815 79.174C70.0009 82.6194 67.2633 85.5047 63.9415 87.5422L63.8423 87.603ZM56.7703 79.2907C58.8798 82.3583 60.7624 84.8967 63.8596 87.1794C67.0493 85.1967 69.6848 82.4174 71.5145 79.1069C69.8981 76.8274 67.9257 75.0467 65.843 73.162C65.2759 72.6489 64.704 72.1326 64.1337 71.6003C61.0396 74.0061 58.7191 76.1497 56.7703 79.2811V79.2907Z" fill="#0B1014"/>
<path d="M50.4805 64.7511C54.6868 64.473 58.8999 64.3504 63.1199 64.3835C68.095 64.4282 73.0633 64.692 78.0247 65.1747C77.9948 64.9318 77.9633 64.6952 77.9334 64.4458C77.2323 64.3771 76.5313 64.3099 75.8302 64.2508C68.4002 63.627 60.9381 63.4935 53.4911 63.8512C52.5238 63.897 51.5565 63.9503 50.5892 64.011C50.5529 64.2636 50.5151 64.5066 50.4805 64.7511Z" fill="#F31C45"/>
<path d="M61.5046 93.1327C67.5425 93.2392 73.5816 93.162 79.6217 92.9009C79.6217 92.6579 79.6217 92.4214 79.6217 92.1752C79.0199 92.2008 78.4196 92.2295 77.8194 92.2519C68.1223 92.6089 58.4236 92.4981 48.7234 91.9194H48.6855V92.634C52.9507 92.8887 57.2237 93.0549 61.5046 93.1327Z" fill="#F31C45"/>
<path d="M30.0269 194.036C50.8931 199.216 73.7112 199.722 98.1708 196.3C99.1791 170.745 99.4988 147.386 97.9376 130.047C75.7135 124.177 53.3428 124.145 30.8036 130.114C29.4424 150.229 29.2864 171.646 30.0269 194.036Z" fill="#F31C45"/>
<path d="M38.4615 125.629C35.9304 148.137 36.1971 170.534 39.2618 192.82C39.3075 196.636 42.0487 200.026 46.1447 201.369C58.1067 205.285 70.1648 205.685 82.3033 202.196C86.571 200.966 89.4792 197.509 89.5501 193.589C91.9132 168.702 92.8411 145.495 90.8278 125.74C90.9065 121.532 87.6959 117.844 83.0532 116.694C70.6753 113.635 58.384 113.576 46.1888 116.651C41.5902 117.805 38.4127 121.458 38.4615 125.629Z" fill="#0B1014"/>
<path d="M65.5073 201.088C59.7996 201.088 54.0573 200.104 48.3276 198.136C44.6317 196.867 42.2166 193.722 42.1835 190.126C39.4931 169.64 39.2551 148.9 41.4746 128.356C41.4352 124.494 44.2725 121.038 48.3795 119.953C58.9788 117.151 69.8837 117.163 80.7918 119.993C84.9556 121.072 87.8134 124.558 87.7425 128.465C89.3399 144.899 88.9839 164.721 86.6224 190.831C86.5562 194.493 83.9442 197.735 80.1412 198.886C75.3945 200.337 70.4648 201.079 65.5073 201.088ZM64.3951 118.206C59.0256 118.207 53.6783 118.905 48.4835 120.284C44.545 121.327 41.8117 124.654 41.8542 128.372V128.39C39.6348 148.915 39.8696 169.637 42.5537 190.105C42.5947 193.527 44.9688 196.622 48.4646 197.823C59.0371 201.454 69.6522 201.71 80.0104 198.582C83.6685 197.476 86.1702 194.36 86.2333 190.827C88.5964 164.725 88.9492 144.92 87.3534 128.486C87.4195 124.707 84.6752 121.356 80.6784 120.319C75.3593 118.925 69.8887 118.214 64.3951 118.202V118.206Z" fill="#F31C45"/>
<path d="M70.4763 159.417C73.0158 156.38 72.8016 149.917 72.8016 149.917C68.548 153.491 65.7564 158.915 65.7564 158.915C67.3318 153.983 63.9337 140.61 63.9337 140.61C60.5324 146.774 61.747 158.421 61.747 158.421C59.8045 154.477 55.7353 149.485 55.7353 149.485C56.4631 157.497 59.2579 161.009 59.2579 161.009C57.0712 157.989 51.666 155.71 51.666 155.71C54.7633 162.981 60.9609 165.955 60.9609 165.955L66.6701 166.001C71.1033 165.138 76.9953 156.448 76.9953 156.448C73.3734 157.149 71.3506 158.619 70.4763 159.417Z" fill="#F31C45"/>
<path d="M43.8027 173.511V179.721C43.8027 179.721 77.6314 180.899 83.9595 179.721V172.874C83.9595 172.874 47.2919 172.227 43.8027 173.511Z" fill="#F31C45"/>
<path d="M47.9219 131.442L50.7151 134.215C50.7151 134.215 57.7776 128.362 64.2982 128.545C70.8187 128.729 77.3046 134.46 77.3046 134.46L80.2979 130.825C80.2979 130.825 73.0101 125.401 64.8102 125.647C56.6102 125.893 47.9219 131.442 47.9219 131.442Z" fill="#F31C45"/>
<path d="M150.524 108.704C138.551 83.553 134.473 70.9248 130.769 32.7988C130.683 31.9112 130.273 31.0884 129.619 30.4923C128.966 29.8962 128.116 29.5699 127.237 29.5778L116.795 29.6881C115.94 29.6986 115.118 30.0247 114.483 30.6055C113.848 31.1863 113.444 31.9819 113.345 32.8435C109.767 64.0768 106.18 83.609 91.5791 108.613C91.2685 109.142 91.0986 109.744 91.086 110.36L88.9813 220.887C88.9621 221.793 89.2838 222.672 89.8809 223.345C90.478 224.018 91.3056 224.435 92.1951 224.511C110.81 226.036 129.778 225.931 149.039 224.486C149.93 224.416 150.762 224.005 151.364 223.336C151.967 222.667 152.296 221.789 152.284 220.882L150.879 110.215C150.871 109.691 150.75 109.175 150.524 108.704Z" fill="#DEB992"/>
<path d="M97.2281 210.767C96.3286 212.722 96.3506 214.95 96.8721 217.321C112.245 218.811 127.74 218.92 143.39 217.321C143.874 214.95 143.863 212.724 142.941 210.767C127.837 210.248 112.599 210.248 97.2281 210.767Z" fill="#0B1014"/>
<path d="M134.421 47.1558L108.844 47.3577C107.641 48.4001 106.863 49.6425 106.591 50.9581C106.439 51.6658 106.701 52.3859 107.319 52.9626C107.936 53.5393 108.861 53.9263 109.892 54.0398C117.649 54.9133 125.562 54.9054 133.315 54.0165C135.458 53.7724 136.977 52.3863 136.612 50.9203C136.285 49.6287 135.49 48.3791 134.421 47.1558Z" fill="#0B1014"/>
<path d="M118.963 24.9563L118.176 59.345C120.43 61.1482 122.793 61.2393 125.281 59.345V24.9563C123.208 24.4221 121.036 24.4221 118.963 24.9563Z" fill="#1BA098"/>
<path d="M144.196 170.895C137.528 166.782 130.317 163.704 122.791 161.756C122.172 161.596 121.524 161.596 120.905 161.756C112.103 164.044 104.685 166.871 99.0195 170.371C99.1735 178.891 99.4815 187.128 99.9866 195.028H101.408C101.542 193.33 102.852 191.99 104.468 191.99C106.083 191.99 107.394 193.328 107.528 195.028H109.847C109.981 193.33 111.291 191.99 112.906 191.99C114.522 191.99 115.832 193.328 115.966 195.028H118.285C118.419 193.33 119.73 191.99 121.345 191.99C122.961 191.99 124.271 193.328 124.403 195.028H126.724C126.856 193.33 128.167 191.99 129.784 191.99C131.401 191.99 132.71 193.328 132.842 195.028H135.163C135.295 193.33 136.606 191.99 138.221 191.99C139.836 191.99 141.147 193.328 141.281 195.028H143.437C143.848 187.395 144.083 179.321 144.196 170.895Z" fill="#1BA098"/>
<path d="M101.529 181.044V187.255C101.529 187.255 135.358 188.432 141.686 187.255V180.408C141.686 180.408 105.018 179.761 101.529 181.044Z" fill="#1BA098"/>
<path d="M144.196 141.595C144.072 135.935 141.638 130.546 137.416 126.585C133.193 122.623 127.518 120.405 121.608 120.405C115.697 120.405 110.022 122.623 105.8 126.585C101.577 130.546 99.1429 135.935 99.0195 141.595C99.0195 141.878 99.0195 142.161 99.0195 142.444C99.0195 142.727 99.0195 142.727 99.0195 142.868V190.716H144.166V142.793C144.186 142.397 144.196 142 144.196 141.595Z" fill="#1BA098"/>
<path d="M141.932 188.519H101.146V144.754C101.146 144.669 101.146 144.584 101.146 144.499V144.358C101.146 144.122 101.146 143.867 101.146 143.603C101.146 132.551 110.302 123.564 121.554 123.564C132.806 123.564 141.962 132.551 141.962 143.603C141.962 143.968 141.962 144.336 141.962 144.707L141.932 188.519ZM102.042 187.576H141.036V144.678C141.036 144.329 141.036 143.971 141.036 143.622C141.119 141.118 140.676 138.623 139.733 136.286C138.79 133.949 137.366 131.817 135.546 130.017C133.726 128.218 131.547 126.787 129.138 125.809C126.73 124.832 124.14 124.329 121.525 124.329C118.909 124.329 116.32 124.832 113.911 125.809C111.502 126.787 109.323 128.218 107.503 130.017C105.683 131.817 104.259 133.949 103.316 136.286C102.373 138.623 101.93 141.118 102.013 143.622C102.013 143.867 102.013 144.122 102.013 144.367V144.575C102.013 144.641 102.013 144.707 102.013 144.773L102.042 187.576Z" fill="#DEB992"/>
<path d="M122.854 131.65L123.582 130.414L123.139 131.772L122.854 131.65Z" fill="#DEB992"/>
<path d="M121.619 134.836L122.358 133.6L121.915 134.949L121.619 134.836Z" fill="#DEB992"/>
<path d="M123.814 134.524L124.927 133.6L124.041 134.732L123.814 134.524Z" fill="#DEB992"/>
<path d="M123.814 137.617L124.927 136.692L124.041 137.824L123.814 137.617Z" fill="#DEB992"/>
<path d="M123.854 140.484L124.966 139.55L124.09 140.691L123.854 140.484Z" fill="#DEB992"/>
<path d="M123.854 142.758L124.966 141.824L124.09 142.956L123.854 142.758Z" fill="#DEB992"/>
<path d="M123.854 145.887L124.966 144.953L124.09 146.094L123.854 145.887Z" fill="#DEB992"/>
<path d="M130.207 145.887L131.32 144.953L130.443 146.094L130.207 145.887Z" fill="#DEB992"/>
<path d="M128.98 144.691L129.581 143.389L129.276 144.785L128.98 144.691Z" fill="#DEB992"/>
<path d="M128.042 144.539L127.697 143.162L128.337 144.435L128.042 144.539Z" fill="#DEB992"/>
<path d="M126.884 146.208L126.529 144.831L127.179 146.104L126.884 146.208Z" fill="#DEB992"/>
<path d="M126.377 148.208L125.422 147.123L126.594 147.981L126.377 148.208Z" fill="#DEB992"/>
<path d="M126.192 151.045L125.236 149.96L126.408 150.828L126.192 151.045Z" fill="#DEB992"/>
<path d="M130.207 148.99L131.32 148.065L130.443 149.197L130.207 148.99Z" fill="#DEB992"/>
<path d="M129.639 151.611L131.057 151.206L129.767 151.894L129.639 151.611Z" fill="#DEB992"/>
<path d="M120.971 131.412L121.128 129.997L121.286 131.412H120.971Z" fill="#DEB992"/>
<path d="M119.379 133.883L118.148 133.09L119.527 133.619L119.379 133.883Z" fill="#DEB992"/>
<path d="M119.25 136.147L118.029 135.354L119.398 135.882L119.25 136.147Z" fill="#DEB992"/>
<path d="M119.055 138.616L117.834 137.824L119.203 138.343L119.055 138.616Z" fill="#DEB992"/>
<path d="M118.565 141.964L117.344 141.181L118.713 141.7L118.565 141.964Z" fill="#DEB992"/>
<path d="M117.344 145.993L117.59 144.596L117.659 146.011L117.344 145.993Z" fill="#DEB992"/>
<path d="M116.295 144.057L116.876 142.755L116.6 144.142L116.295 144.057Z" fill="#DEB992"/>
<path d="M115.727 141.737L116.308 140.426L116.032 141.822L115.727 141.737Z" fill="#DEB992"/>
<path d="M114.559 139.656L115.14 138.354L114.864 139.741L114.559 139.656Z" fill="#DEB992"/>
<path d="M112.855 139.551L112.441 138.192L113.15 139.437L112.855 139.551Z" fill="#DEB992"/>
<path d="M111.975 140.954L110.932 139.945L112.182 140.719L111.975 140.954Z" fill="#DEB992"/>
<path d="M111.517 142.569L110.168 141.974L111.616 142.276L111.517 142.569Z" fill="#DEB992"/>
<path d="M112.251 145.247L110.902 144.662L112.35 144.964L112.251 145.247Z" fill="#DEB992"/>
<path d="M114.547 148.933L113.09 148.697L114.567 148.631L114.547 148.933Z" fill="#DEB992"/>
<path d="M116.282 150.659L114.814 150.423L116.301 150.357L116.282 150.659Z" fill="#DEB992"/>
<path d="M118.057 151.856L116.6 151.62L118.077 151.554L118.057 151.856Z" fill="#DEB992"/>
<path d="M119.789 132.29L118.834 131.205L120.006 132.073L119.789 132.29Z" fill="#DEB992"/>
<path d="M130.352 144.748C130.222 144.558 130.051 144.397 129.85 144.275C129.65 144.153 129.425 144.073 129.191 144.04C128.904 143.995 128.611 144.015 128.334 144.097C127.735 144.312 127.25 144.746 126.985 145.304C126.642 145.976 126.426 146.701 126.346 147.445C126.346 147.445 125.194 153.103 124.633 153.961C124.524 150.792 124.426 147.624 124.377 144.455V144.38C124.327 141.315 124.229 138.25 124.229 135.195V134.742C124.285 134.237 124.233 133.725 124.078 133.239C123.922 132.753 123.666 132.302 123.323 131.913L123.176 131.791C122.905 131.612 122.61 131.47 122.299 131.366L121.935 131.272C121.742 131.248 121.547 131.248 121.354 131.272C121.059 131.269 120.768 131.337 120.508 131.47C120.288 131.58 120.097 131.734 119.947 131.923C119.714 132.25 119.553 132.619 119.474 133.007C119.356 133.585 119.309 134.173 119.336 134.761C119.179 136.393 118.952 138.024 118.696 139.684C118.376 142.151 118.277 144.64 118.401 147.124C117.331 145.823 116.586 144.303 116.225 142.683C116.009 141.494 115.733 140.07 114.827 139.307C114.534 139.059 114.177 138.89 113.794 138.816C113.642 138.779 113.487 138.757 113.331 138.75H113.243C112.948 138.755 112.661 138.84 112.416 138.995C112.154 139.173 111.933 139.399 111.764 139.66C111.595 139.92 111.482 140.211 111.431 140.514C111.229 141.623 111.252 142.76 111.5 143.861C111.5 144.154 111.608 144.455 111.687 144.804C111.687 144.804 113.794 150.104 118.529 152.226C118.614 156.092 118.729 159.958 118.874 163.825V165.22H125.538C125.302 163.064 125.062 160.911 124.82 158.761C124.81 158.714 124.81 158.666 124.82 158.619C124.879 158.402 125.519 158.195 125.706 158.072C126.576 157.465 127.377 156.773 128.098 156.007C129.719 154.112 130.664 151.769 130.795 149.321C130.795 148.925 130.904 148.378 130.933 147.756C131.073 146.72 130.87 145.667 130.352 144.748Z" fill="#DEB992"/>
<path d="M107.629 165.152C108.022 164.629 108.599 164.26 109.253 164.114C112.164 163.625 115.144 163.65 118.045 164.19C120.915 164.556 123.814 164.682 126.708 164.567C128.273 164.567 129.838 164.567 131.404 164.642C132.201 164.69 133.008 164.756 133.796 164.85C134.473 164.851 135.144 164.986 135.765 165.246C136.483 165.737 135.765 166.992 135.223 167.322C134.956 167.45 134.665 167.527 134.367 167.548C133.304 167.68 132.24 167.775 131.167 167.813C129.294 167.721 127.416 167.791 125.556 168.02C123.87 168.329 122.151 168.44 120.437 168.35C119.974 168.35 119.265 167.879 119.866 167.463C119.338 167.43 118.809 167.43 118.281 167.463L116.381 167.577C114.088 167.77 111.782 167.77 109.49 167.577C108.89 167.559 108.312 167.361 107.836 167.011C107.693 166.903 107.573 166.769 107.485 166.617C107.397 166.464 107.341 166.297 107.322 166.123C107.303 165.95 107.32 165.775 107.373 165.608C107.426 165.441 107.513 165.286 107.629 165.152Z" fill="#DEB992"/>
<rect x="110.039" y="176.208" width="22.0081" height="2.13792" rx="1.06896" fill="#DEB992"/>
<rect x="112.244" y="179.948" width="17.0562" height="2.13792" rx="1.06896" fill="#DEB992"/>
<path d="M120.757 14.8056C120.828 14.195 120.909 13.5859 121 12.9785C120.797 12.9785 120.595 12.9785 120.39 12.9945C119.483 19.3348 119.546 25.7794 120.579 32.0999V32.1223H121.209C120.247 26.4013 120.095 20.5702 120.757 14.8056Z" fill="#F2A52A"/>
<path d="M124.17 32.1251C124.23 26.9124 124.184 21.6997 124.003 16.4917C123.962 15.344 123.916 14.1973 123.865 13.0517C123.657 13.0341 123.45 13.0166 123.234 13.0054C123.521 19.3717 123.629 25.745 123.559 32.1251H124.17Z" fill="#F2A52A"/>
<path d="M132.464 25.2837C132.404 25.085 132.355 24.8962 132.296 24.7074C132.137 24.1908 131.969 23.7139 131.792 23.1774L131.584 22.5912C131.396 22.1043 131.208 21.5976 131.001 21.1406C130.793 20.6836 130.595 20.2265 130.388 19.7794C130.18 19.3324 130.062 19.1336 129.894 18.7859C129.726 18.4382 129.429 17.9414 129.182 17.534C128.935 17.1267 128.777 16.8882 128.569 16.5405C126.701 13.8083 124.447 12 122.026 12C119.604 12 117.301 13.848 115.423 16.6299C115.205 16.9379 115.008 17.2658 114.8 17.6235C114.593 17.9811 114.355 18.3885 114.148 18.7859C113.94 19.1833 113.812 19.4218 113.654 19.7794C113.495 20.1371 113.248 20.6538 113.051 21.1108C112.724 21.8758 112.428 22.6707 112.151 23.4754C111.953 24.0418 111.776 24.6279 111.608 25.2141C111.272 26.361 110.998 27.5251 110.787 28.7015C114.85 30.2699 119.14 31.1625 123.489 31.3443C125.821 31.4834 128.154 31.4834 130.497 31.5132C131.551 31.5528 132.607 31.5329 133.66 31.4536C133.441 29.3658 133.041 27.3012 132.464 25.2837Z" fill="#1BA098"/>
<path d="M105.826 37.3832H106.498L106.162 36.3892L105.826 37.3832Z" fill="#1BA098"/>
<path d="M112.012 37.4038H112.822L112.407 36.2109L112.012 37.4038Z" fill="#1BA098"/>
<path d="M118.656 37.4033H119.002L118.834 36.8765L118.656 37.4033Z" fill="#1BA098"/>
<path d="M125.41 37.4025H125.677L125.549 37.0347L125.41 37.4025Z" fill="#1BA098"/>
<path d="M132.34 37.4022H132.399V37.3135L132.34 37.4022Z" fill="#E30613"/>
<path d="M102.023 37.2844C102.369 37.334 103.753 37.3639 105.829 37.3837L106.166 36.3902L103.199 27.3887H102.873L100.322 35.0986C100.866 36.3107 101.459 37.2049 102.023 37.2844Z" fill="#1BA098"/>
<path d="M106.492 37.3838H112.009L112.405 36.1717L109.696 27.9849H108.954L106.156 36.4002L106.492 37.3838Z" fill="#1BA098"/>
<path d="M112.821 37.4044H118.663L118.841 36.8778L116.004 28.3433H115.016L112.406 36.2121L112.821 37.4044Z" fill="#1BA098"/>
<path d="M118.998 37.4037H125.403L125.522 37.036L122.705 28.4419H121.617L118.83 36.8671L118.998 37.4037Z" fill="#1BA098"/>
<path d="M125.668 37.4038H132.36V37.3143L129.394 28.293H128.406L125.52 36.9964L125.668 37.4038Z" fill="#1BA098"/>
<path d="M132.399 37.4032C134.919 37.4032 137.133 37.4032 138.804 37.4032L139.061 36.6283L136.165 27.895L135.483 27.9546L132.369 37.3436L132.399 37.4032Z" fill="#1BA098"/>
<path d="M139.322 37.3629C140.795 37.3629 141.774 37.3629 142.05 37.2834C142.841 37.184 143.692 35.4453 144.443 33.3092L142.406 27.1592H142.189L139.064 36.5581L139.322 37.3629Z" fill="#1BA098"/>
<path d="M138.809 37.3738H139.323L139.066 36.6084L138.809 37.3738Z" fill="#1BA098"/>
<path d="M129.896 18.7765C129.672 18.3523 129.435 17.9348 129.185 17.5239C126.744 17.8597 124.284 18.0258 121.821 18.021C119.476 18.0209 117.133 17.8915 114.803 17.6333C114.585 18.011 114.358 18.3987 114.15 18.7963C119.377 19.4833 124.671 19.4766 129.896 18.7765Z" fill="#1BA098"/>
<path d="M115.485 21.5189L116.473 21.6382C116.473 21.6382 116.849 21.6879 117.462 21.7276L118.45 21.8072C118.816 21.8072 119.201 21.8072 119.587 21.8668C120.358 21.8668 121.129 21.8668 121.712 21.8668H122.701H123.689H124.677L125.824 21.7873L126.961 21.6978L127.949 21.5785L128.938 21.4692H129.204L129.896 21.3698L131.112 21.171C130.915 20.7137 130.707 20.2564 130.499 19.8091C127.813 20.2153 125.1 20.4147 122.384 20.4055C119.502 20.4041 116.623 20.2148 113.765 19.8389C113.557 20.2664 113.36 20.7137 113.162 21.171L113.528 21.2505C114.16 21.3101 114.922 21.4394 115.485 21.5189Z" fill="#1BA098"/>
<path d="M128.566 16.5835C126.698 13.8497 124.444 12.0405 122.023 12.0405C119.601 12.0405 117.298 13.8895 115.42 16.6729C119.792 17.1292 124.201 17.0992 128.566 16.5835Z" fill="#DEB992"/>
<path d="M111.615 25.2065H111.724L111.981 25.2661L112.604 25.3954C112.604 25.3954 112.357 24.4013 112.159 23.4072C111.961 24.0335 111.833 24.62 111.615 25.2065Z" fill="#DEB992"/>
<path d="M114.974 22.6427L114.816 22.0264C114.816 22.0264 114.302 22.8813 113.748 23.7362C113.195 24.5911 112.602 25.4162 112.602 25.4162H112.71L113.551 25.5653L114.866 25.774H115.054L115.963 25.8834C115.963 25.8834 115.637 24.8893 115.35 23.9449C115.212 23.4976 115.073 23.0105 114.974 22.6427Z" fill="#DEB992"/>
<path d="M118.122 22.9714C117.993 22.6136 117.914 22.375 117.914 22.375C117.914 22.375 117.46 23.2697 116.975 24.1643C116.491 25.059 115.986 25.9238 115.986 25.9238L116.461 25.9835H116.58L117.371 26.0431L118.082 26.1028H118.152H118.745H118.824H119.358C119.358 26.1028 118.962 25.1584 118.606 24.214C118.419 23.8164 118.241 23.2995 118.122 22.9714Z" fill="#DEB992"/>
<path d="M121.851 24.3628C121.426 23.4383 121.04 22.5039 121.04 22.5039C121.04 22.5039 120.645 23.4383 120.22 24.3529C119.795 25.2674 119.35 26.172 119.35 26.172H119.874H119.992H120.793H122.711L122.434 25.6054C122.276 25.2873 122.059 24.83 121.851 24.3628Z" fill="#DEB992"/>
<path d="M124.184 22.4453C124.184 22.4453 123.838 23.3897 123.472 24.3341C123.106 25.2784 122.711 26.2129 122.711 26.2129H123.888H124.728H124.985L125.974 26.1333H126.023C126.023 26.1333 125.529 25.2486 125.034 24.344C124.54 23.4394 124.184 22.4453 124.184 22.4453Z" fill="#DEB992"/>
<path d="M127.303 22.2158C127.303 22.2158 127.016 23.2099 126.7 24.1344C126.383 25.0589 126.037 26.043 126.037 26.043H126.65H126.868H127.105H127.303L128.242 25.9436L129.339 25.8144C129.339 25.8144 128.806 24.9396 128.291 24.0648C127.777 23.19 127.303 22.2158 127.303 22.2158Z" fill="#DEB992"/>
<path d="M130.431 21.8081C130.431 21.8081 130.194 22.8022 129.927 23.7963C129.66 24.7903 129.363 25.7844 129.363 25.7844H129.432H129.62H129.877L130.312 25.7248H130.392H130.599H130.856L132.458 25.4762C132.399 25.2774 132.349 25.0886 132.29 24.8997C132.072 24.5816 131.796 24.1641 131.519 23.7366C130.965 22.663 130.431 21.8081 130.431 21.8081Z" fill="#DEB992"/>
<path d="M130.394 19.7402C130.236 19.4121 130.068 19.094 129.9 18.7461C124.674 19.4397 119.38 19.4397 114.154 18.7461C113.986 19.0642 113.818 19.3823 113.66 19.7402C116.518 20.1161 119.397 20.3053 122.279 20.3068C124.995 20.3258 127.708 20.1364 130.394 19.7402Z" fill="#DEB992"/>
<path d="M135.481 27.9258C133.504 28.0847 131.477 28.204 129.371 28.2934L132.337 37.3148L135.481 27.9258Z" fill="#DEB992"/>
<path d="M115.023 28.3134C113.193 28.2339 111.414 28.1345 109.693 28.0054L112.402 36.212L115.023 28.3134Z" fill="#DEB992"/>
<path d="M142.191 27.1997C140.303 27.458 138.286 27.6865 136.17 27.8654L139.067 36.5986L142.191 27.1997Z" fill="#DEB992"/>
<path d="M121.62 28.453C119.712 28.453 117.833 28.453 115.994 28.3438L118.832 36.8783L121.62 28.453Z" fill="#DEB992"/>
<path d="M108.958 27.9553C106.934 27.7964 105.006 27.601 103.174 27.3691L106.14 36.3707L108.958 27.9553Z" fill="#DEB992"/>
<path d="M128.41 28.3335C126.542 28.403 124.633 28.4428 122.676 28.4428L125.523 37.0369L128.41 28.3335Z" fill="#DEB992"/>
<path d="M146.359 26.5435C145.113 26.772 143.788 26.9807 142.404 27.1795L144.451 33.331C145.272 30.9757 145.983 28.1435 146.359 26.5435Z" fill="#DEB992"/>
<path d="M97.7051 26.5435C98.3433 29.4395 99.2095 32.2801 100.296 35.0383L102.846 27.3284C101.017 27.0998 99.2969 26.8316 97.7051 26.5435Z" fill="#DEB992"/>
<path d="M101.204 29.3669C101.204 29.5497 101.15 29.7285 101.049 29.8805C100.948 30.0325 100.805 30.151 100.637 30.221C100.469 30.291 100.284 30.3093 100.105 30.2736C99.927 30.2379 99.7632 30.1499 99.6346 30.0206C99.506 29.8913 99.4184 29.7266 99.3829 29.5472C99.3474 29.3679 99.3657 29.182 99.4352 29.0131C99.5048 28.8442 99.6227 28.6998 99.7739 28.5982C99.9251 28.4966 100.103 28.4424 100.285 28.4424C100.529 28.4424 100.763 28.5398 100.935 28.7132C101.107 28.8865 101.204 29.1217 101.204 29.3669Z" fill="#1BA098"/>
<path d="M107.409 29.9321C107.411 30.1154 107.359 30.2951 107.259 30.4484C107.159 30.6018 107.016 30.7218 106.849 30.7933C106.681 30.8648 106.496 30.8845 106.317 30.85C106.138 30.8154 105.973 30.7282 105.843 30.5993C105.714 30.4704 105.625 30.3057 105.589 30.1261C105.552 29.9465 105.57 29.7601 105.639 29.5906C105.709 29.4211 105.827 29.2761 105.978 29.1741C106.129 29.0721 106.308 29.0176 106.49 29.0176C106.732 29.0176 106.964 29.1136 107.136 29.2848C107.309 29.4561 107.407 29.6887 107.409 29.9321Z" fill="#1BA098"/>
<path d="M113.323 30.7072C113.323 30.8901 113.269 31.0688 113.168 31.2208C113.067 31.3729 112.924 31.4913 112.756 31.5613C112.588 31.6313 112.403 31.6496 112.224 31.6139C112.046 31.5783 111.882 31.4902 111.754 31.3609C111.625 31.2316 111.538 31.0669 111.502 30.8876C111.467 30.7082 111.485 30.5223 111.554 30.3534C111.624 30.1845 111.742 30.0401 111.893 29.9385C112.044 29.8369 112.222 29.7827 112.404 29.7827C112.648 29.7827 112.882 29.8801 113.054 30.0535C113.227 30.2269 113.323 30.462 113.323 30.7072Z" fill="#1BA098"/>
<path d="M119.917 30.7072C119.917 30.8901 119.863 31.0688 119.762 31.2208C119.661 31.3729 119.518 31.4913 119.35 31.5613C119.182 31.6313 118.997 31.6496 118.818 31.6139C118.64 31.5783 118.476 31.4902 118.347 31.3609C118.219 31.2316 118.131 31.0669 118.096 30.8876C118.06 30.7082 118.079 30.5223 118.148 30.3534C118.218 30.1845 118.336 30.0401 118.487 29.9385C118.638 29.8369 118.816 29.7827 118.998 29.7827C119.242 29.7827 119.475 29.8801 119.648 30.0535C119.82 30.2269 119.917 30.462 119.917 30.7072Z" fill="#1BA098"/>
<path d="M125.546 31.7806C126.054 31.7806 126.466 31.3667 126.466 30.8561C126.466 30.3455 126.054 29.9316 125.546 29.9316C125.039 29.9316 124.627 30.3455 124.627 30.8561C124.627 31.3667 125.039 31.7806 125.546 31.7806Z" fill="#1BA098"/>
<path d="M132.455 31.7806C132.962 31.7806 133.374 31.3667 133.374 30.8561C133.374 30.3455 132.962 29.9316 132.455 29.9316C131.947 29.9316 131.535 30.3455 131.535 30.8561C131.535 31.3667 131.947 31.7806 132.455 31.7806Z" fill="#1BA098"/>
<path d="M139.187 31.2045C139.695 31.2045 140.107 30.7905 140.107 30.28C140.107 29.7694 139.695 29.3555 139.187 29.3555C138.679 29.3555 138.268 29.7694 138.268 30.28C138.268 30.7905 138.679 31.2045 139.187 31.2045Z" fill="#1BA098"/>
<path d="M145.501 29.0182C145.501 29.2011 145.447 29.3798 145.346 29.5319C145.245 29.6839 145.102 29.8024 144.933 29.8724C144.765 29.9423 144.581 29.9606 144.402 29.925C144.224 29.8893 144.06 29.8012 143.931 29.672C143.803 29.5427 143.715 29.3779 143.68 29.1986C143.644 29.0193 143.663 28.8334 143.732 28.6645C143.802 28.4955 143.92 28.3511 144.071 28.2496C144.222 28.148 144.4 28.0938 144.582 28.0938C144.825 28.0938 145.059 28.1912 145.232 28.3645C145.404 28.5379 145.501 28.773 145.501 29.0182Z" fill="#1BA098"/>
<path d="M112.556 23.237C112.602 23.3076 112.663 23.3682 112.733 23.4151C112.803 23.4619 112.882 23.4942 112.965 23.5099C113.048 23.5257 113.133 23.5246 113.216 23.5068C113.298 23.4889 113.377 23.4546 113.446 23.406C113.587 23.3039 113.684 23.1504 113.716 22.9779C113.747 22.8054 113.71 22.6274 113.614 22.4815C113.572 22.4095 113.515 22.3472 113.448 22.2989C113.38 22.2506 113.303 22.2173 113.222 22.2013C113.14 22.1853 113.056 22.187 112.976 22.2061C112.895 22.2253 112.819 22.2616 112.754 22.3125C112.611 22.4132 112.511 22.5644 112.474 22.7358C112.438 22.9072 112.467 23.0862 112.556 23.237Z" fill="#DEB992"/>
<path d="M115.685 23.091C115.731 23.1617 115.792 23.2222 115.862 23.2691C115.932 23.3159 116.011 23.3482 116.094 23.3639C116.177 23.3797 116.262 23.3786 116.345 23.3608C116.427 23.3429 116.505 23.3086 116.575 23.26C116.716 23.1579 116.813 23.0044 116.845 22.8319C116.876 22.6594 116.839 22.4814 116.743 22.3355C116.701 22.2635 116.644 22.2012 116.577 22.1529C116.509 22.1046 116.432 22.0713 116.351 22.0553C116.269 22.0393 116.185 22.041 116.105 22.0601C116.024 22.0793 115.948 22.1156 115.882 22.1665C115.74 22.2672 115.64 22.4184 115.603 22.5898C115.567 22.7612 115.596 22.9402 115.685 23.091Z" fill="#DEB992"/>
<path d="M122.077 23.091C122.124 23.1617 122.184 23.2222 122.255 23.2691C122.325 23.3159 122.404 23.3482 122.487 23.3639C122.57 23.3797 122.655 23.3786 122.737 23.3608C122.82 23.3429 122.898 23.3086 122.967 23.26C123.109 23.1579 123.206 23.0044 123.237 22.8319C123.268 22.6594 123.232 22.4814 123.135 22.3355C123.093 22.2635 123.037 22.2012 122.969 22.1529C122.902 22.1046 122.825 22.0713 122.743 22.0553C122.662 22.0393 122.578 22.041 122.497 22.0601C122.416 22.0793 122.341 22.1156 122.275 22.1665C122.132 22.2672 122.033 22.4184 121.996 22.5898C121.959 22.7612 121.988 22.9402 122.077 23.091Z" fill="#DEB992"/>
<path d="M128.48 23.091C128.526 23.1617 128.587 23.2222 128.657 23.2691C128.727 23.3159 128.806 23.3482 128.889 23.3639C128.972 23.3797 129.057 23.3786 129.14 23.3608C129.222 23.3429 129.3 23.3086 129.369 23.26C129.511 23.1579 129.608 23.0044 129.639 22.8319C129.671 22.6594 129.634 22.4814 129.538 22.3355C129.496 22.2635 129.439 22.2012 129.372 22.1529C129.304 22.1046 129.227 22.0713 129.145 22.0553C129.064 22.0393 128.98 22.041 128.899 22.0601C128.819 22.0793 128.743 22.1156 128.677 22.1665C128.535 22.2672 128.435 22.4184 128.398 22.5898C128.362 22.7612 128.391 22.9402 128.48 23.091Z" fill="#DEB992"/>
<path d="M119.022 23.0872C118.903 23.213 118.836 23.3803 118.836 23.5544C118.836 23.7285 118.903 23.8958 119.022 24.0216C119.08 24.0839 119.149 24.1337 119.227 24.1677C119.304 24.2017 119.388 24.2193 119.472 24.2193C119.557 24.2193 119.64 24.2017 119.718 24.1677C119.795 24.1337 119.865 24.0839 119.922 24.0216C120.04 23.893 120.106 23.7245 120.106 23.5494C120.106 23.3744 120.04 23.2058 119.922 23.0772C119.866 23.0127 119.796 22.9612 119.718 22.9262C119.64 22.8912 119.555 22.8736 119.47 22.8745C119.385 22.8755 119.3 22.895 119.223 22.9317C119.146 22.9684 119.077 23.0214 119.022 23.0872Z" fill="#DEB992"/>
<path d="M125.372 23.0174C125.262 23.1518 125.207 23.323 125.218 23.4964C125.229 23.6699 125.305 23.8327 125.431 23.9519C125.494 24.0103 125.568 24.055 125.649 24.0833C125.73 24.1116 125.816 24.1228 125.901 24.1163C125.986 24.1097 126.069 24.0856 126.145 24.0453C126.221 24.0051 126.287 23.9496 126.341 23.8823C126.448 23.7455 126.5 23.5729 126.485 23.3994C126.47 23.2258 126.39 23.0644 126.262 22.9479C126.2 22.8913 126.127 22.8481 126.048 22.8209C125.969 22.7936 125.885 22.7829 125.802 22.7895C125.718 22.796 125.637 22.8196 125.563 22.8588C125.489 22.898 125.424 22.952 125.372 23.0174Z" fill="#DEB992"/>
<path d="M-33.9561 221.388C-33.2829 226.318 -31.9811 230.84 -30.0507 234.953C-29.1811 236.806 -27.215 238.016 -25.0378 238L215.672 236.208C218.234 236.189 220.398 234.501 220.92 232.18C221.699 228.695 222.057 224.836 221.993 220.602C221.953 217.894 219.532 215.733 216.605 215.733H-28.6124C-31.875 215.733 -34.3642 218.393 -33.9561 221.388Z" fill="#DEB992"/>
<path d="M216.602 215.733H-28.6154C-29.8878 215.724 -31.1256 216.153 -32.127 216.95C-10.1297 219.582 39.0527 224.651 81.8894 223.262C126.409 221.823 192.029 217.894 218.933 216.229C218.198 215.902 217.404 215.734 216.602 215.733Z" fill="#0B1014"/>
<path d="M-2.37239 234.755C-8.30849 231.889 -14.5833 229.438 -21.2378 228.485C-24.9731 227.951 -28.7792 227.913 -32.4609 228.538C-32.3932 228.772 -32.3176 229 -32.2467 229.23C-28.9306 228.697 -25.5566 228.643 -22.2256 229.07C-15.5664 229.89 -9.26791 232.267 -3.33495 235.098C-1.52482 235.962 0.25853 236.87 2.03243 237.792L3.59681 237.781C1.62125 236.751 -0.3606 235.727 -2.37239 234.755Z" fill="#F31C45"/>
<path d="M102.293 235.999C89.1118 232.903 75.3065 234.629 62.0118 236.068C48.5169 237.527 34.5462 238.757 21.3854 234.82C8.78217 231.05 -2.1385 223.611 -14.9181 220.273C-20.5455 218.801 -26.4627 218.195 -32.2475 219.193C-32.7769 219.284 -33.3015 219.397 -33.8229 219.512C-33.8989 219.773 -33.9516 220.041 -33.9805 220.311C-28.7029 219.119 -22.9527 219.263 -17.7539 220.348C-5.07977 222.997 5.71959 230.099 17.7147 234.378C22.0919 235.924 26.618 236.996 31.2174 237.575L56.1087 237.39C56.2442 237.377 56.3813 237.366 56.5168 237.352C70.0904 236.039 83.883 233.766 97.5134 235.812C99.526 236.114 101.522 236.523 103.492 237.037L106.039 237.018C104.803 236.637 103.555 236.298 102.293 235.999Z" fill="#1BA098"/>
<path d="M134.616 226.664C135.947 224.586 139.073 225.593 140.927 226.344C143.536 227.401 146.126 228.459 148.804 229.381C151.482 230.304 154.173 231.14 156.906 231.87C162.355 233.338 167.897 234.418 173.494 235.102C178.964 235.769 184.599 235.982 190.015 234.84C194.584 233.881 198.68 231.832 202.417 229.281C208.29 225.284 213.416 220.121 219.689 216.63C219.446 216.475 219.192 216.34 218.928 216.226C213.769 219.188 209.301 223.273 204.617 226.793C201.152 229.397 197.418 231.813 193.191 233.231C187.863 235.016 182.097 235.17 176.506 234.695C170.731 234.204 164.987 233.149 159.388 231.762C153.823 230.385 148.363 228.606 143.049 226.438C140.992 225.598 138.704 224.405 136.368 224.782C134.032 225.16 133.049 227.34 133.532 229.322C134.098 231.626 136.404 233.318 138.216 234.821C139.029 235.492 139.867 236.137 140.713 236.773L141.917 236.763C140.142 235.474 138.435 234.091 136.803 232.622C135.185 231.154 133.223 228.825 134.616 226.664Z" fill="#1BA098"/>
<path d="M150.471 227.882C154.312 229.004 158.31 229.472 162.302 229.268C170.809 228.866 178.844 225.927 186.372 222.44C191.053 220.273 195.625 217.915 200.29 215.727H198.509C195.525 217.151 192.578 218.639 189.605 220.084C181.979 223.793 174.009 227.252 165.372 228.283C161.218 228.778 156.966 228.694 152.887 227.762C149.308 226.943 145.929 225.541 142.627 224.05C136.272 221.173 129.8 217.656 122.558 217.346C121.683 217.309 120.807 217.321 119.933 217.381C119.435 217.416 119.432 218.137 119.933 218.104C127.338 217.597 134.055 220.907 140.467 223.858C143.719 225.37 147.003 226.852 150.471 227.882Z" fill="#F31C45"/>
<path d="M116.513 227.132C111.453 225.082 106.068 223.414 100.48 223.492C98.3328 223.522 95.998 223.812 94.2714 225.09C92.518 226.403 92.2817 228.607 93.5751 230.29C95.1347 232.32 97.8003 232.822 100.322 233.033C103.158 233.27 105.994 233.489 108.83 233.845C114.284 234.539 119.694 235.553 125.033 236.883L127.821 236.862C123.331 235.657 118.775 234.659 114.172 233.903C111.441 233.454 108.692 233.086 105.923 232.797C104.516 232.65 103.107 232.524 101.696 232.42C100.316 232.317 98.9188 232.245 97.5766 231.905C96.3336 231.585 95.1788 231.027 94.3706 230.076C93.6412 229.216 93.2789 228.099 93.6775 227.039C94.3738 225.186 96.8818 224.489 98.7739 224.298C104.239 223.744 109.789 225.309 114.777 227.223C120.065 229.25 125.099 231.803 130.346 233.917C132.886 234.942 135.459 235.891 138.055 236.785L140.278 236.769C137.57 235.876 134.885 234.926 132.243 233.892C126.895 231.806 121.798 229.277 116.513 227.132Z" fill="#F31C45"/>
<path d="M21.089 225.116C29.5942 227.727 38.3871 229.252 47.2642 229.656C56.2392 230.077 65.23 229.31 74.0098 227.375C83.9694 225.163 93.4722 221.563 103.181 218.604C106.695 217.533 110.271 216.542 113.894 215.727H110.759C109.634 216.008 108.515 216.303 107.4 216.611C97.6329 219.317 88.212 222.966 78.413 225.553C69.5337 227.919 60.3861 229.089 51.2059 229.034C42.265 228.96 33.3693 227.74 24.7297 225.404C16.5452 223.202 8.67086 219.95 1.29722 215.727H-0.175781C6.52851 219.685 13.665 222.836 21.089 225.116Z" fill="#F31C45"/>
</g>
<defs>
<clipPath id="clip0_1245_101172">
<rect width="170" height="260" rx="5" fill="white"/>
</clipPath>
</defs>
</svg>
