<svg width="170" height="260" viewBox="0 0 170 260" fill="none" xmlns="http://www.w3.org/2000/svg">
<g clip-path="url(#clip0_1245_101141)">
<rect width="170" height="260" rx="5" fill="#F9F9FA"/>
<path d="M37.884 224.146V174.154C63.6582 171.663 83.9806 143.414 83.9806 108.933C83.9806 93.1824 79.7449 78.7335 72.6829 67.4473H-4.32659C-11.3913 78.7335 -15.627 93.1824 -15.627 108.933C-15.627 143.416 4.69542 171.663 30.4696 174.154V224.136C11.2512 224.366 -3.77332 226.376 -3.77332 228.822C-3.77332 231.423 13.2164 233.527 34.1781 233.527C55.1399 233.527 72.1296 231.421 72.1296 228.822C72.1296 226.386 57.1051 224.376 37.884 224.146Z" fill="#DEB992"/>
<path d="M71.1652 140.579L53.7598 120.862L34.0727 138.294L51.4781 158.011L71.1652 140.579Z" fill="#0B1014"/>
<path d="M46.7873 140.481L20.6094 138.187L18.3191 164.405L44.497 166.699L46.7873 140.481Z" fill="#0B1014"/>
<path d="M10.1684 115.855L-4.20117 137.889L17.7998 152.281L32.1694 130.246L10.1684 115.855Z" fill="#5A5E62"/>
<path d="M55.37 107.539L34.5195 91.521L18.5262 112.403L39.3766 128.421L55.37 107.539Z" fill="#0B1014"/>
<path d="M75.4797 95.1375L56.8984 76.5278L38.3171 95.1375L56.8984 113.747L75.4797 95.1375Z" fill="#5A5E62"/>
<path d="M35.0884 129.733C34.5978 129.793 34.0993 129.85 33.6009 129.892C28.679 130.36 23.7135 129.848 18.9902 128.385C14.2669 126.922 9.8792 124.538 6.07975 121.37C2.28029 118.202 -0.855822 114.313 -3.14799 109.925C-5.44015 105.538 -6.84308 100.74 -7.27596 95.808C-7.70885 90.8756 -7.16314 85.9061 -5.67027 81.1858C-4.1774 76.4655 -1.76687 72.0876 1.42251 68.3042C4.61188 64.5209 8.51708 61.4069 12.9132 59.1415C17.3093 56.8761 22.1095 55.5041 27.0373 55.1046C27.5357 55.0575 28.0316 55.0235 28.5301 55L28.791 58.5992L31.6618 91.2948L31.7035 91.2451L32.2986 98.0409L32.2516 97.9965L34.7205 126.136H34.7648L35.0884 129.733Z" fill="#F31C45"/>
<path d="M2.59096 73.0879C-1.96676 79.6102 -4.07783 87.5351 -3.36978 95.4643C-3.34369 95.7597 -3.31498 96.0551 -3.28105 96.3504L27.1072 93.6739L2.59096 73.0879Z" fill="#1BA098"/>
<path d="M26.0299 58.8452C17.5168 59.9385 9.73889 64.2376 4.27734 70.8685L28.9006 91.5382L26.0299 58.8452Z" fill="#1BA098"/>
<path d="M-2.85156 99.1094C-1.33919 106.767 2.77132 113.666 8.78285 118.634L27.3515 96.4512L-2.85156 99.1094Z" fill="#1BA098"/>
<path d="M11.0059 120.324C17.1272 124.614 24.4976 126.746 31.9598 126.386L29.4883 98.2432L11.0059 120.324Z" fill="#1BA098"/>
<path d="M77.7018 111.785L75.7966 114.26C75.7867 114.251 75.7763 114.242 75.7653 114.234L58.452 136.712L54.9079 141.378L40.0322 160.683L38.127 163.156C37.7747 162.894 37.425 162.649 37.0831 162.371C30.3469 157.087 25.9702 149.349 24.9074 140.846C23.8446 132.342 26.182 123.763 31.4098 116.978C36.6377 110.194 44.3318 105.755 52.8145 104.629C61.2972 103.503 69.8802 105.782 76.6918 110.969C77.0398 111.238 77.3764 111.509 77.7018 111.785Z" fill="#1BA098"/>
<path d="M50.6298 108.05C43.9153 109.519 37.9338 113.314 33.7393 118.766C33.5827 118.97 33.4287 119.177 33.2773 119.383L54.1556 135.526L50.6298 108.05Z" fill="#F31C45"/>
<path d="M73.8606 112.758C67.8088 108.457 60.3504 106.623 52.998 107.627L56.5578 135.226L73.8606 112.758Z" fill="#F31C45"/>
<path d="M31.9304 121.399C28.4097 127.155 26.9851 133.954 27.8983 140.642L52.6912 137.442L31.9304 121.399Z" fill="#F31C45"/>
<path d="M28.3262 143.018C29.7063 149.34 33.1442 155.024 38.0998 159.176L53.0017 139.834L28.3262 143.018Z" fill="#F31C45"/>
<path d="M139.386 194.309C147.874 184.224 147.158 162.766 147.158 162.766C132.94 174.634 123.609 192.642 123.609 192.642C128.875 176.268 117.516 131.866 117.516 131.866C106.147 152.331 110.207 191.002 110.207 191.002C103.714 177.908 90.1118 161.333 90.1118 161.333C92.5447 187.934 101.887 199.595 101.887 199.595C94.5773 189.569 76.5098 182 76.5098 182C86.8627 206.144 107.579 216.016 107.579 216.016L126.663 216.17C141.481 213.304 161.176 184.452 161.176 184.452C149.07 186.777 142.308 191.66 139.386 194.309Z" fill="#F31C45"/>
<path d="M159.093 179.291C168.33 177.813 170.873 195.875 170.873 195.875C170.873 195.875 174.08 172.778 158.161 171.593C152.58 171.177 148.004 176.628 144.409 183.883C146.69 168.456 150.553 160.174 150.553 160.174C143.545 165.462 139.529 175.829 137.228 186.265C131.087 159.788 112.697 156.661 112.697 156.661C123.01 162.058 128.215 178.755 130.833 193.189C127.498 183.466 122.915 174.215 117.394 173.423C105.454 171.716 98.9219 187.044 98.9219 187.044C100.545 184.534 102.786 182.53 105.406 181.244C108.027 179.959 110.931 179.438 113.811 179.738C119.441 180.25 124.017 191.71 126.99 201.86C122.671 194.82 117.029 188 111.569 188.519C100.513 189.57 101.393 213.862 101.393 213.862C101.393 213.862 107.674 196.022 112.7 196.022C116.703 196.022 124.76 210.1 127.88 215.849C132.485 215.877 137.091 215.972 141.693 216.095L144.744 216.17C146.071 212.043 149.461 203.095 154.295 201.812C160.612 200.132 165.605 212.965 165.605 212.965C165.605 212.965 167.115 194.803 155.051 192.823C152.398 192.39 150.083 193.288 148.079 194.957C151.228 187.04 155.126 179.929 159.093 179.291Z" fill="#1BA098"/>
<path d="M-47.9565 219.597C-47.2885 224.465 -45.9969 228.93 -44.0816 232.991C-43.2187 234.821 -41.268 236.016 -39.1078 236L199.722 234.23C202.263 234.212 204.411 232.545 204.928 230.253C205.701 226.812 206.056 223.001 205.993 218.821C205.954 216.147 203.551 214.013 200.647 214.013H-42.6545C-45.8916 214.013 -48.3613 216.639 -47.9565 219.597Z" fill="#DEB992"/>
<path d="M200.643 214.013H-42.6584C-43.9209 214.004 -45.1491 214.427 -46.1426 215.214C-24.3171 217.814 24.481 222.819 66.983 221.447C111.154 220.027 176.262 216.147 202.956 214.502C202.227 214.18 201.439 214.013 200.643 214.013V214.013Z" fill="#0B1014"/>
<path d="M87.2285 234.025C74.1501 230.968 60.4527 232.672 47.2618 234.093C33.8724 235.534 20.0109 236.748 6.95282 232.86C-5.55191 229.138 -16.3873 221.792 -29.0671 218.497C-34.6504 217.043 -40.5214 216.445 -46.2611 217.43C-46.7863 217.52 -47.3068 217.632 -47.8242 217.745C-47.8995 218.003 -47.9518 218.267 -47.9805 218.534C-42.7441 217.357 -37.0388 217.499 -31.8806 218.571C-19.3056 221.186 -8.59057 228.199 3.31081 232.424C7.65383 233.951 12.1446 235.009 16.7081 235.581L41.4049 235.398C41.5393 235.386 41.6753 235.374 41.8098 235.36C55.2774 234.064 68.9622 231.82 82.4861 233.84C84.483 234.138 86.463 234.542 88.418 235.049L90.9455 235.03C89.719 234.655 88.48 234.32 87.2285 234.025Z" fill="#1BA098"/>
<path d="M119.298 224.807C120.619 222.755 123.72 223.749 125.56 224.491C128.148 225.534 130.718 226.579 133.375 227.49C136.033 228.401 138.702 229.226 141.414 229.947C146.82 231.396 152.319 232.463 157.872 233.139C163.299 233.797 168.89 234.007 174.264 232.88C178.797 231.933 182.861 229.91 186.569 227.39C192.396 223.444 197.482 218.346 203.707 214.899C203.466 214.746 203.213 214.613 202.952 214.5C197.833 217.424 193.4 221.459 188.753 224.934C185.314 227.506 181.609 229.891 177.415 231.291C172.129 233.054 166.408 233.205 160.861 232.736C155.13 232.252 149.431 231.21 143.876 229.84C138.355 228.481 132.938 226.724 127.665 224.584C125.624 223.754 123.354 222.576 121.036 222.949C118.718 223.321 117.743 225.474 118.223 227.431C118.784 229.706 121.072 231.377 122.87 232.861C123.676 233.524 124.508 234.16 125.347 234.788L126.541 234.779C124.781 233.506 123.088 232.14 121.468 230.689C119.862 229.24 117.916 226.941 119.298 224.807Z" fill="#1BA098"/>
<path d="M135.03 226.009C138.841 227.117 142.808 227.58 146.769 227.378C155.209 226.981 163.181 224.079 170.651 220.636C175.295 218.496 179.831 216.168 184.46 214.007H182.693C179.733 215.413 176.808 216.883 173.859 218.31C166.292 221.971 158.384 225.387 149.815 226.405C145.693 226.895 141.475 226.811 137.428 225.891C133.876 225.083 130.524 223.698 127.247 222.226C120.942 219.384 114.521 215.912 107.335 215.606C106.467 215.569 105.598 215.581 104.731 215.641C104.237 215.675 104.234 216.387 104.731 216.354C112.078 215.854 118.743 219.122 125.104 222.036C128.331 223.529 131.59 224.993 135.03 226.009Z" fill="#F31C45"/>
<path d="M101.337 225.269C96.3164 223.245 90.9737 221.597 85.4294 221.674C83.2989 221.704 80.9824 221.99 79.2693 223.253C77.5296 224.549 77.2951 226.725 78.5784 228.387C80.1259 230.392 82.7706 230.888 85.2731 231.096C88.0867 231.33 90.9003 231.546 93.7138 231.898C99.1255 232.583 104.493 233.584 109.79 234.897L112.557 234.876C108.102 233.686 103.582 232.701 99.0143 231.955C96.3049 231.512 93.5768 231.148 90.8299 230.862C89.4336 230.717 88.0356 230.593 86.6361 230.49C85.2669 230.389 83.8804 230.318 82.5487 229.982C81.3154 229.666 80.1696 229.115 79.3678 228.176C78.6441 227.327 78.2845 226.223 78.68 225.177C79.3709 223.348 81.8593 222.659 83.7366 222.47C89.159 221.924 94.6657 223.469 99.6145 225.358C104.862 227.36 109.856 229.881 115.063 231.969C117.582 232.981 120.135 233.918 122.711 234.8L124.916 234.785C122.229 233.902 119.566 232.965 116.944 231.944C111.638 229.884 106.581 227.387 101.337 225.269Z" fill="#F31C45"/>
<path d="M6.6572 223.278C15.096 225.857 23.8202 227.362 32.628 227.761C41.5328 228.177 50.4534 227.42 59.1646 225.509C69.0464 223.324 78.475 219.77 88.1083 216.848C91.594 215.79 95.1422 214.812 98.7373 214.007H95.6268C94.5107 214.285 93.3999 214.576 92.2943 214.88C82.6031 217.552 73.2558 221.155 63.5334 223.709C54.7234 226.046 45.6474 227.201 36.5388 227.147C27.6678 227.074 18.8416 225.869 10.2695 223.563C2.14894 221.388 -5.66388 218.177 -12.9799 214.007H-14.4414C-7.7895 217.915 -0.708771 221.027 6.6572 223.278V223.278Z" fill="#F31C45"/>
</g>
<defs>
<clipPath id="clip0_1245_101141">
<rect width="170" height="260" rx="5" fill="white"/>
</clipPath>
</defs>
</svg>
