<svg width="1006" height="249" viewBox="0 0 1006 249" fill="none" xmlns="http://www.w3.org/2000/svg">
<path d="M633.293 205.261C637.597 182.124 689.537 149.488 701.872 175.63C707.679 187.95 708.717 90.9315 789.373 101.025C832.873 106.461 783.326 144.961 779.82 158.839C776.332 172.717 787.963 155.481 810.075 151.658C832.186 147.836 841.499 177.986 850.792 206.726C860.104 235.448 853.111 242.164 853.111 242.164C820.092 241.292 787.091 240.42 754.072 239.567C722.111 238.732 640.88 248.658 633.237 210.808C632.903 209.046 632.922 207.19 633.293 205.261Z" fill="#F7EDFF"/>
<path d="M732.533 190.912C732.945 190.627 732.944 190.627 732.944 190.627L732.943 190.625L732.937 190.617L732.915 190.584C732.895 190.555 732.865 190.511 732.825 190.453C732.746 190.336 732.629 190.163 732.478 189.936C732.175 189.481 731.736 188.81 731.19 187.95C730.097 186.229 728.578 183.748 726.873 180.714C723.462 174.644 719.317 166.367 716.361 157.528C713.403 148.68 711.653 139.315 712.985 131.049C714.312 122.815 718.695 115.651 728.076 111.135C740.847 104.994 752.654 110.039 761.352 116.728C765.696 120.069 769.237 123.801 771.693 126.702C772.921 128.151 773.876 129.391 774.523 130.267C774.847 130.705 775.093 131.052 775.258 131.288C775.341 131.407 775.403 131.498 775.445 131.558L775.491 131.627L775.502 131.644L775.505 131.648L775.505 131.648C775.505 131.649 775.505 131.649 775.624 131.57L775.505 131.649L776.408 131.256L776.408 131.256L776.407 131.253L776.404 131.239L776.391 131.182C776.38 131.132 776.363 131.055 776.341 130.954C776.297 130.752 776.234 130.451 776.158 130.058C776.007 129.272 775.803 128.119 775.598 126.657C775.187 123.733 774.769 119.574 774.739 114.645C774.679 104.783 776.175 91.8626 782.379 79.5724L782.379 79.5723C786.789 70.8315 795.773 65.8358 806.551 64.7332C817.33 63.6306 829.853 66.433 841.212 73.2426C863.895 86.8423 881.943 116.44 871.968 162.79L871.959 162.83L871.957 162.87L868.68 227.519L867.964 227.491L864.532 227.357C861.571 227.242 857.33 227.078 852.209 226.88C841.968 226.485 828.208 225.959 814.135 225.433C785.999 224.38 756.587 223.326 751.566 223.326C750.455 223.326 749.322 222.871 748.171 222.011C747.02 221.152 745.88 219.909 744.77 218.389C742.549 215.348 740.501 211.274 738.753 207.173C737.008 203.077 735.573 198.978 734.574 195.9C734.075 194.362 733.685 193.081 733.42 192.184C733.287 191.736 733.186 191.384 733.118 191.145C733.084 191.025 733.058 190.933 733.041 190.872L733.022 190.802L733.017 190.785L733.016 190.781L733.016 190.78C733.016 190.78 733.016 190.78 732.533 190.912ZM732.533 190.912L732.945 190.627L732.993 190.697L733.016 190.78L732.533 190.912Z" fill="white" stroke="#333333"/>
<path d="M840.29 234.501H843.221C846.764 233.981 851.495 231.755 857.839 226.894C886.758 204.666 920 133.976 916.568 109.114C913.118 84.2514 859.23 142.121 833.315 216.374C833.315 216.374 831.09 232.998 840.29 234.501Z" fill="#F7EDFF"/>
<path d="M950.198 155.559L950.198 155.559C974.141 161.141 991.042 170.11 999.451 177.93C1001.55 179.883 1003.11 181.752 1004.11 183.465C1005.12 185.183 1005.56 186.709 1005.47 187.992C1005.39 189.253 1004.8 190.33 1003.64 191.178C1002.46 192.039 1000.67 192.67 998.222 192.964L998.222 192.964C993.279 193.56 987.029 193.217 980.062 192.706C979.001 192.628 977.923 192.546 976.832 192.463C970.778 192.003 964.298 191.511 957.802 191.469C942.481 191.369 926.899 193.764 916.351 205.124L916.351 205.125C905.285 217.058 894.657 227.163 887.159 234.001H832.405C845.579 199.029 863.163 176.705 883.299 164.468C903.557 152.157 926.462 150.017 950.198 155.559Z" fill="white" stroke="#333333"/>
<path d="M996.558 177.763C995.63 177.207 973.537 164.275 949.478 165.073C938.904 165.425 916.904 166.167 894.013 177.188C870.603 188.469 851.942 207.728 838.363 234.501H841.034C874.239 169.971 928.349 168.171 949.552 167.466C972.907 166.705 995.111 179.693 995.334 179.823C995.909 180.157 996.632 179.971 996.985 179.396C997.319 178.84 997.133 178.097 996.558 177.763Z" fill="#333333"/>
<path d="M963.11 185.853C962.832 185.853 962.572 185.76 962.331 185.574C943.002 169.34 896.59 176.965 896.126 177.04L893.51 177.485L894.92 175.221C895.384 174.479 906.328 157.187 927.68 153.532C928.329 153.42 928.96 153.866 929.071 154.515C929.182 155.164 928.737 155.795 928.088 155.907C912.302 158.615 902.285 169.488 898.575 174.256C909.204 172.809 946.322 168.987 963.889 183.737C964.39 184.164 964.464 184.925 964.038 185.426C963.797 185.723 963.444 185.853 963.11 185.853Z" fill="#333333"/>
<path d="M855.909 208.062L870.842 173.774C871.102 173.162 871.807 172.884 872.419 173.162C873.031 173.422 873.309 174.127 873.031 174.739L860.64 203.163C867.522 200.436 885.738 194.926 904.585 203.516C905.178 203.794 905.457 204.499 905.178 205.112C904.9 205.705 904.195 205.984 903.583 205.705C881.193 195.501 859.081 206.448 858.859 206.559L855.909 208.062Z" fill="#333333"/>
<path d="M788.205 136.845C788.446 136.975 788.651 137.031 788.817 136.994C788.817 136.994 789.244 137.532 789.893 138.33C790.524 139.146 791.359 140.241 792.212 141.317C793.028 142.43 793.845 143.525 794.475 144.36C795.069 145.195 795.477 145.751 795.477 145.751C790.914 141.41 785.961 139.462 780.581 140.259C779.895 140.371 779.821 141.168 780.451 141.762C782.01 143.284 784.978 145.844 788.465 147.44C791.971 149.035 795.254 149.184 797.035 149.128C797.332 149.11 797.517 148.961 797.592 148.757C797.592 148.757 800.949 153.581 803.954 158.628C805.457 161.151 806.941 163.674 807.98 165.623C808.499 166.587 808.944 167.385 809.26 167.96C809.556 168.535 809.723 168.851 809.723 168.851C803.75 162.561 796.942 158.758 790.32 159.778C789.597 159.889 789.764 160.91 790.654 161.708C792.88 163.693 796.905 167.107 801.135 169.352C803.565 170.595 805.976 171.319 807.813 171.671C809.668 172.005 810.985 171.968 811.189 171.745C811.189 171.745 811.374 172.098 811.69 172.71C811.987 173.341 812.413 174.232 812.933 175.308C813.99 177.441 815.27 180.336 816.531 183.249C819.036 189.075 821.057 195.086 821.057 195.086C818.702 192.322 813.359 187.869 808.536 185.846C803.305 183.694 799.187 183.991 796.98 184.399C796.108 184.566 796.33 185.679 797.351 186.533C804.418 192.284 810.298 195.253 814.584 196.533C818.85 197.832 821.54 197.405 821.707 197.034C824.378 205.05 825.955 211.525 827.012 216.664H827.624C826.53 211.395 824.897 204.697 822.096 196.348C822.467 196.478 823.784 195.606 825.305 193.917C826.845 192.229 828.589 189.705 829.739 186.588C831.872 181.004 832.058 174.065 831.891 170.094C831.835 168.517 830.963 167.422 830.314 168.035C824.174 173.842 822.319 183.62 821.354 194.196C821.354 194.196 820.872 192.73 820.037 190.559C819.258 188.37 818.089 185.512 816.902 182.674C815.659 179.853 814.417 177.015 813.396 174.937C812.895 173.898 812.469 173.026 812.191 172.413C811.875 171.82 811.708 171.467 811.708 171.467C812.209 171.226 815.177 168.016 815.993 162.376C816.735 157.477 815.678 151.763 814.862 148.534C814.546 147.236 813.619 146.456 813.174 147.032C809.111 152.338 809.13 160.075 810.224 168.554C810.224 168.554 810.057 168.22 809.761 167.663C809.445 167.107 809 166.29 808.481 165.326C807.442 163.377 805.958 160.836 804.437 158.294C802.916 155.77 801.32 153.284 800.114 151.447C798.872 149.611 798.055 148.405 798.055 148.405C798.315 148.442 798.575 148.33 798.705 148.015C800.968 142.634 800.244 136.252 795.737 129.294C795.199 128.496 794.345 128.366 794.141 129.053C792.49 134.582 793.455 139.962 796.182 145.733C796.182 145.733 795.774 145.158 795.143 144.286C794.512 143.432 793.659 142.282 792.806 141.131C791.934 140 791.062 138.868 790.413 138.033C789.745 137.198 789.3 136.641 789.3 136.641C789.355 136.474 789.355 136.252 789.281 135.992C787.055 129.183 782.362 123.709 775.387 120.796C774.571 120.462 774.107 121.019 774.478 121.78C777.502 128.199 781.75 133.116 788.205 136.845Z" fill="url(#paint0_linear)"/>
<path d="M779.301 191.32C784.847 189.594 787.834 187.275 787.871 186.737C789.837 188.76 791.711 190.596 793.38 192.415C795.013 194.251 796.608 195.903 797.981 197.536C799.353 199.168 800.615 200.671 801.802 202.063C802.915 203.491 803.954 204.827 804.9 206.033C808.628 210.931 810.891 214.197 812.301 216.349C812.375 216.442 812.431 216.535 812.487 216.627H813.526C813.359 216.386 813.192 216.108 812.988 215.811C812.264 214.716 811.374 213.325 810.094 211.618C808.814 209.911 807.404 207.759 805.419 205.328C804.455 204.104 803.397 202.768 802.247 201.302C801.041 199.892 799.743 198.352 798.352 196.701C796.942 195.049 795.328 193.361 793.658 191.505C791.933 189.687 790.06 187.776 788.019 185.754C788.984 185.494 792.768 178.444 792.768 170.076C792.731 166.402 792.082 162.561 791.08 159.222C790.598 157.533 790.041 155.956 789.485 154.509C788.91 153.099 788.335 151.837 787.834 150.798C787.036 149.128 785.552 148.516 785.088 149.666C783.994 152.357 783.308 155.14 782.955 157.96C782.603 160.78 782.603 163.619 782.788 166.55C782.992 169.463 783.456 172.339 784.031 175.289C784.328 176.755 784.662 178.221 785.051 179.668C785.422 181.134 785.812 182.618 786.238 184.084C786.238 184.084 785.942 183.787 785.404 183.286C784.866 182.785 784.124 182.043 783.178 181.208C781.286 179.538 778.8 177.293 776.184 175.197C775.535 174.659 774.886 174.12 774.255 173.601C773.606 173.1 772.957 172.599 772.344 172.117C771.102 171.17 769.952 170.243 768.931 169.519C766.891 168.053 765.537 167.07 765.537 167.07C766.019 166.402 767.93 160.836 766.316 154.027C764.887 148.201 761.066 142.579 758.599 139.666C757.616 138.478 756.262 138.274 756.039 139.258C754.184 148.238 757.708 156.773 762.606 165.066C762.606 165.066 757.319 161.448 751.754 158.294C746.207 155.084 740.42 152.338 740.42 152.338C740.717 152.171 740.921 151.856 740.921 151.411C740.847 143.711 736.932 137.143 728.641 132.819C727.676 132.3 726.73 132.838 726.878 133.784C728.047 141.317 731.646 146.549 737.211 150.817C737.211 150.817 734.391 149.518 731.534 148.349C728.678 147.162 725.765 146.086 725.765 146.086C725.747 145.844 725.635 145.603 725.431 145.38C719.848 139.499 712.15 137.031 703.858 139.332C702.893 139.61 702.782 140.612 703.542 141.187C709.905 145.993 716.416 148.071 724.782 147.143C725.079 147.106 725.32 146.995 725.487 146.828C725.487 146.828 728.288 147.867 731.052 148.999C733.816 150.13 736.524 151.373 736.524 151.373C729.735 150.112 723.725 151.837 718.791 157.014C718.16 157.682 718.475 158.628 719.366 158.795C721.629 159.203 725.728 159.741 730.05 158.702C732.202 158.201 734.15 157.366 735.819 156.457C737.47 155.567 738.806 154.62 739.715 153.897C740.012 153.656 740.142 153.359 740.142 153.043C740.142 153.043 745.892 155.789 751.401 158.98C756.948 162.116 762.198 165.716 762.198 165.716C752.848 163.396 743.833 164.472 737.378 170.707C736.654 171.412 737.285 172.339 738.546 172.525C741.7 172.952 747.395 173.527 752.978 172.673C759.304 171.708 764.869 168.48 765.11 167.701C765.11 167.701 766.501 168.703 768.597 170.206C770.638 171.764 773.42 173.805 776.036 176.032C778.726 178.184 781.249 180.522 783.178 182.21C785.051 183.991 786.294 185.16 786.294 185.16C784.291 184.603 781.341 184.028 778.021 183.88C776.37 183.787 774.682 183.769 772.975 183.88C771.269 184.01 769.562 184.232 767.985 184.585C764.609 185.308 761.771 186.626 759.508 187.925C757.245 189.242 755.557 190.615 754.425 191.635C753.535 192.452 754.165 193.472 755.649 193.565C758.209 193.695 760.565 193.788 762.828 193.713C765.11 193.639 767.206 193.528 769.191 193.324C773.161 192.916 776.537 192.192 779.301 191.32Z" fill="url(#paint1_linear)"/>
<path d="M788.851 97.6978C789.26 103.45 786.7 108.329 786.7 108.329C786.7 108.329 783.472 103.876 783.064 98.106C782.656 92.3357 785.216 87.4746 785.216 87.4746C785.216 87.4746 788.443 91.9461 788.851 97.6978Z" fill="url(#paint2_linear)"/>
<path d="M722.295 113.357C724.892 117.736 723.817 123.172 723.817 123.172C723.817 123.172 718.53 121.521 715.933 117.142C713.336 112.763 714.412 107.327 714.412 107.327C714.412 107.327 719.698 108.978 722.295 113.357Z" fill="url(#paint3_linear)"/>
<path d="M735.039 185.531C739.695 184.047 744.388 185.698 744.388 185.698C744.388 185.698 741.513 189.761 736.857 191.246C732.2 192.73 727.507 191.079 727.507 191.079C727.507 191.079 730.383 187.015 735.039 185.531Z" fill="url(#paint4_linear)"/>
<path d="M312.598 213.194C370.373 140.297 314.037 139.623 290.927 153.579C267.817 167.534 351.279 82.0457 301.388 60.7747C260.698 43.4311 223.14 147.238 211.585 138.364C200.03 129.489 195.549 83.8145 162.323 96.4961C129.082 109.178 103.079 196.705 100.187 218.276C168.678 228.694 289.473 242.365 312.598 213.194Z" fill="#F7EDFF"/>
<path d="M260.343 227.731C244.787 178.533 293.405 125.184 293.405 125.184C293.405 125.184 304.42 192.504 288.219 219.966C272.003 247.413 271.359 241.717 271.359 241.717L260.343 227.731Z" fill="white"/>
<path d="M161.134 233.353C134.987 188.87 170.468 126.013 170.468 126.013C170.468 126.013 196.234 189.175 186.573 219.561C176.894 249.935 174.994 244.527 174.994 244.527L161.134 233.353Z" fill="white"/>
<path d="M104.324 146.22C108.745 147.029 112.777 149.442 116.493 152.875C118.382 154.584 120.18 156.563 121.904 158.721C123.642 160.88 125.216 163.248 126.879 165.707C126.879 165.707 126.804 165.287 126.67 164.537C126.52 163.803 126.355 162.739 126.16 161.449C125.77 158.886 125.246 155.483 124.721 152.081C124.242 148.663 123.822 145.245 123.492 142.682C123.327 141.393 123.193 140.328 123.088 139.579C122.998 138.829 122.953 138.395 122.953 138.395C122.353 138.485 117.872 137.255 113.736 132.698C110.094 128.756 107.501 123.135 106.107 119.852C105.553 118.548 105.808 117.289 106.572 117.498C109.989 118.443 112.986 120.631 115.609 123.644C116.928 125.158 118.127 126.867 119.281 128.741C120.45 130.615 121.544 132.638 122.563 134.782C122.563 134.782 122.383 133.148 122.129 130.69C121.844 128.231 121.559 124.964 121.274 121.681C121.124 120.047 120.975 118.398 120.84 116.869C120.72 115.325 120.615 113.901 120.525 112.657C120.345 110.198 120.225 108.549 120.225 108.549C120.03 108.759 119.746 108.834 119.431 108.654C116.673 107.08 114.41 104.832 112.657 101.879C110.873 98.9257 109.659 95.2381 108.985 90.816C108.835 89.7817 109.405 89.0772 110.064 89.4819C115.324 92.7497 118.337 97.9813 119.97 104.922C119.97 104.922 119.791 101.744 119.596 98.5659C119.446 95.388 119.296 92.2101 119.296 92.2101C119.131 92.1052 118.981 91.9253 118.861 91.6555C115.819 84.2953 115.474 76.5454 118.322 68.7056C118.652 67.7912 119.431 67.8062 119.746 68.7056C122.488 76.1557 122.803 83.6807 120.285 91.5805C120.195 91.8653 120.06 92.0602 119.895 92.1651C119.895 92.1651 120.045 95.2381 120.18 98.3111C120.36 101.384 120.54 104.457 120.54 104.457C121.364 97.4716 123.957 92.1951 128.783 88.7474C129.397 88.2977 130.042 88.9573 129.982 89.9616C129.817 92.4949 129.247 96.977 127.479 100.934C125.68 104.892 123.058 107.335 121.544 108.504C121.289 108.699 121.034 108.699 120.825 108.564C120.825 108.564 120.945 110.198 121.124 112.657C121.214 113.886 121.319 115.325 121.439 116.854C121.574 118.383 121.724 120.017 121.874 121.666C122.159 124.934 122.443 128.216 122.728 130.66C122.998 133.103 123.163 134.737 123.163 134.737C123.537 132.354 124.017 130.06 124.616 127.917C125.231 125.773 126.01 123.749 126.894 121.921C128.693 118.263 131.046 115.34 134.178 113.466C134.867 113.061 135.377 114.141 135.137 115.505C134.852 117.214 134.403 119.567 133.728 122.1C133.039 124.634 132.125 127.347 130.971 129.775C128.303 135.292 124.182 138.545 123.537 138.35C123.537 138.35 123.582 138.784 123.672 139.564C123.777 140.328 123.912 141.438 124.077 142.757C124.437 145.395 124.841 148.918 125.351 152.425C125.89 155.933 126.415 159.441 126.819 162.064C126.999 163.383 127.224 164.463 127.359 165.227C127.494 165.992 127.569 166.426 127.569 166.426C127.764 165.437 128.048 164.238 128.438 162.934C128.843 161.614 129.337 160.175 129.907 158.721C131.031 155.798 132.455 152.77 134.058 150.342C137.565 145.14 141.477 142.847 143.665 141.887C144.534 141.513 145.014 142.787 144.564 144.286C142.975 149.427 141.372 153.505 139.573 156.818C137.79 160.115 135.962 162.589 134.343 164.388C131.061 168 128.333 168.96 127.973 168.69C128.498 171.553 128.933 174.236 129.457 176.724C129.982 179.213 130.476 181.521 130.941 183.665C131.795 187.982 132.784 191.58 133.549 194.668C135.017 200.844 136.321 204.741 137.041 207.289C138.524 212.371 138.3 211.906 138.075 211.981C137.85 212.056 137.925 212.581 136.381 207.424C135.647 204.846 134.328 200.874 132.859 194.608C132.08 191.475 131.121 187.817 130.251 183.44C129.787 181.251 129.292 178.913 128.753 176.395C128.258 173.861 127.794 171.148 127.269 168.24C126.984 168.555 125.306 168.39 122.998 167.565C120.705 166.741 117.707 165.242 115.01 162.919C110.169 158.796 106.047 152.62 104.024 148.993C103.245 147.509 103.38 146.04 104.324 146.22Z" fill="url(#paint5_linear)"/>
<path d="M38.2018 91.815C38.1914 91.921 38.1797 92.0404 38.167 92.1726C38.1057 92.8111 38.0191 93.7519 37.9183 94.9597C37.7168 97.3752 37.4585 100.858 37.2319 105.126C36.7786 113.661 36.4522 125.329 36.9591 137.866C37.4661 150.404 38.8061 163.796 41.6802 175.784C44.557 187.782 48.957 198.314 55.5431 205.19C82.0813 232.881 113.211 228.836 116.636 228.263L116.638 228.262C117.47 228.127 119.61 227.524 122.4 226.676C125.171 225.834 128.542 224.765 131.805 223.712C135.068 222.659 138.222 221.624 140.561 220.853C141.73 220.467 142.695 220.147 143.368 219.923C143.655 219.828 143.889 219.75 144.063 219.692C141.037 155.628 104.649 113.589 71.2873 102.654C71.2873 102.654 71.2873 102.654 71.2872 102.654L41.821 93.0007L38.2018 91.815Z" fill="white" stroke="#333333"/>
<path d="M130.072 227.137C130.237 227.137 130.402 227.107 130.567 227.032C131.211 226.762 131.526 226.013 131.241 225.368C130.881 224.499 94.0733 137.601 53.6233 107.561C53.0538 107.141 52.2595 107.261 51.8398 107.831C51.4202 108.4 51.5401 109.195 52.1096 109.615C92.0051 139.25 128.543 225.503 128.903 226.373C129.098 226.837 129.577 227.137 130.072 227.137Z" fill="#333333"/>
<path d="M100.846 171.134C102.045 171.134 102.795 171.104 102.974 171.104L103.979 171.059L104.173 170.069C104.368 169.11 108.594 146.37 94.0571 117.859C93.7424 117.229 92.978 116.989 92.3486 117.304C91.7191 117.619 91.4793 118.383 91.7941 119.013C104.248 143.432 102.465 163.878 101.835 168.57C95.9005 168.615 65.9714 167.986 46.1286 151.706C45.5891 151.257 44.7798 151.347 44.3302 151.886C43.8806 152.426 43.9705 153.235 44.51 153.685C64.3079 169.934 92.8132 171.134 100.846 171.134Z" fill="#333333"/>
<path d="M91.0175 209.704C105.93 209.704 122.16 206.571 123.105 206.391L123.599 206.301L123.899 205.896C124.199 205.477 131.348 195.163 130.763 167.192C130.748 166.487 130.164 165.933 129.459 165.948C128.755 165.963 128.2 166.547 128.215 167.252C128.725 191.371 123.329 201.894 122.086 204.008C117.874 204.787 89.9684 209.659 75.8656 205.492C60.5938 200.965 51.9164 195.253 51.8264 195.193C51.242 194.804 50.4476 194.968 50.058 195.553C49.6683 196.138 49.8332 196.932 50.4177 197.322C50.7773 197.562 59.4698 203.288 75.1462 207.935C79.5824 209.239 85.2025 209.704 91.0175 209.704Z" fill="#333333"/>
<path d="M49.7858 217.033C52.3635 214.679 55.5558 213.36 59.2576 212.925C61.086 212.73 63.0343 212.76 65.0575 212.985C67.0508 213.27 69.179 213.66 71.2622 214.334C71.2622 214.334 70.318 213.465 68.8343 212.251C68.0849 211.651 67.2457 210.902 66.3015 210.167C65.3573 209.433 64.3382 208.653 63.334 207.874C61.2658 206.375 59.1826 204.891 57.564 203.856C56.7697 203.332 56.0953 202.882 55.6157 202.597C55.1361 202.312 54.8664 202.132 54.8664 202.132C54.7465 202.342 53.9671 203.002 52.6633 203.676C51.3744 204.351 49.546 205.1 47.3729 205.52C45.4995 205.85 43.4912 206.045 41.7228 206.06C39.9093 206.15 38.3357 206.06 37.1667 206.06C36.2525 206.03 35.638 205.475 36.0127 204.996C39.3998 200.708 45.5445 199.509 52.5584 200.723C52.5584 200.723 51.4943 200.124 49.9057 199.224C48.2871 198.355 46.1289 197.231 43.9109 196.211C41.6928 195.177 39.4447 194.248 37.7212 193.618C36.867 193.288 36.1476 193.018 35.638 192.854C35.1285 192.689 34.8437 192.584 34.8437 192.584C34.9336 192.794 34.8887 193.018 34.6789 193.183C30.9021 196.271 26.2861 197.441 20.651 197.351C19.9916 197.351 19.6169 196.826 19.9616 196.361C22.6293 192.644 27.0055 191.145 32.2659 191.759C32.2659 191.759 31.6964 191.594 30.8572 191.34C30.0029 191.1 28.8639 190.815 27.7249 190.515C26.5709 190.275 25.4169 189.99 24.5476 189.841C23.6784 189.691 23.0939 189.586 23.0939 189.586C22.989 189.691 22.8391 189.781 22.6293 189.826C19.7368 190.47 17.0241 190.785 14.3715 190.83C13.0376 190.845 11.7337 190.845 10.3849 190.77C9.05108 190.755 7.71722 190.65 6.32343 190.86C5.67899 190.965 5.22937 190.545 5.70895 189.915C6.72807 188.656 8.18182 187.817 9.62057 187.262C11.0743 186.738 12.603 186.453 14.1017 186.423C17.1141 186.348 20.0965 187.157 22.8091 188.716C23.004 188.836 23.1239 188.971 23.1838 189.106C23.1838 189.106 23.7533 189.211 24.5926 189.361C25.4469 189.496 26.5559 189.781 27.6799 190.005C28.789 190.29 29.898 190.575 30.7373 190.785C31.5616 191.025 32.1161 191.19 32.1161 191.19C27.4551 188.761 24.0831 185.943 21.79 181.731C21.4903 181.191 22.1197 180.786 22.974 180.981C25.0872 181.491 28.729 182.765 31.3068 185.149C33.8995 187.502 34.8587 190.125 35.2034 191.579C35.2634 191.819 35.1884 191.999 35.0236 192.119C35.0236 192.119 35.3083 192.224 35.8179 192.389C36.3274 192.554 37.0468 192.824 37.9011 193.153C39.6246 193.798 41.8876 194.727 44.1057 195.762C46.3388 196.781 48.4969 197.92 50.1155 198.775C51.7191 199.674 52.7832 200.274 52.7832 200.274C47.8075 195.072 43.5961 189.915 42.9067 184.144C42.8318 183.515 43.8659 183.53 44.7951 184.234C47.208 185.913 51.0597 189.316 53.2178 193.033C55.6757 197.291 55.5108 201.383 55.0912 201.668C55.0912 201.668 55.3759 201.833 55.8705 202.147C56.3651 202.432 57.0545 202.897 57.8787 203.452C59.5423 204.516 61.7004 206.06 63.8286 207.619C68.0849 210.767 71.9965 214.334 71.9965 214.334C70.7376 211.561 68.5046 206.195 67.5154 201.608C66.4214 196.781 66.9609 193.183 67.4555 191.385C67.6503 190.665 68.7893 191.085 69.5237 192.239C74.5593 200.004 75.3836 205.94 75.1738 209.762C74.919 213.615 73.6151 215.459 73.2704 215.474C74.889 216.928 76.2978 218.367 77.6766 219.671C78.9805 221.035 80.2094 222.309 81.3334 223.493C82.4275 224.708 83.4316 225.847 84.3758 226.881C85.29 227.93 86.0993 228.935 86.8637 229.849C88.4073 231.648 89.5463 233.222 90.5355 234.481C91.5246 235.74 92.244 236.775 92.8135 237.569C95.1065 240.792 94.8217 240.507 94.6719 240.612C94.522 240.717 94.7019 241.077 92.3639 237.839C91.7794 237.029 91.06 235.995 90.0559 234.721C89.0517 233.447 87.8977 231.858 86.3541 230.029C83.3267 226.341 79.1004 221.41 72.611 215.519C72.581 215.848 71.457 216.553 69.7035 217.213C67.95 217.872 65.5671 218.487 62.9593 218.741C58.3733 219.086 53.5026 218.592 50.8648 218.262C49.8457 218.202 49.2462 217.527 49.7858 217.033Z" fill="url(#paint6_linear)"/>
<path d="M85.0829 63.9235C88.5599 68.0457 94.3 68.9152 94.3 68.9152C94.3 68.9152 94.3899 63.114 90.9129 58.9917C87.4359 54.8694 81.6959 54 81.6959 54C81.6959 54 81.606 59.8012 85.0829 63.9235Z" fill="url(#paint7_linear)"/>
<path d="M4.27132 165.767C7.77828 169.919 12.724 171.523 12.724 171.523C12.724 171.523 11.9597 166.381 8.45269 162.229C4.94572 158.077 4.76837e-06 156.473 4.76837e-06 156.473C4.76837e-06 156.473 0.764352 161.614 4.27132 165.767Z" fill="url(#paint8_linear)"/>
<path d="M85.5007 96.0621C88.603 100.169 93.1591 101.983 93.1591 101.983C93.1591 101.983 92.6795 97.1114 89.5622 93.0041C86.4599 88.8818 81.9038 87.083 81.9038 87.083C81.9038 87.083 82.3984 91.9398 85.5007 96.0621Z" fill="url(#paint9_linear)"/>
<path d="M134.295 68.3755C132.346 73.1573 133.141 77.9841 133.141 77.9841C133.141 77.9841 137.082 75.076 139.016 70.2942C140.949 65.5123 140.17 60.6855 140.17 60.6855C140.17 60.6855 136.243 63.5936 134.295 68.3755Z" fill="url(#paint10_linear)"/>
<path d="M279.649 232.249C286.783 179.424 323.741 160.267 323.741 160.267C323.741 160.267 319.2 198.072 302.999 217.754C286.783 237.421 279.649 232.249 279.649 232.249Z" fill="white"/>
<path d="M180.956 233.448C176.116 180.363 207.865 153.438 207.865 153.438C207.865 153.438 211.878 191.303 200.48 214.105C189.064 236.896 180.956 233.448 180.956 233.448Z" fill="white"/>
<path d="M323.374 224.423C336.442 160.61 392.929 171.598 393.963 188.342C395.012 205.086 374.09 202.987 359.972 209.268C345.854 215.549 341.673 229.67 341.673 229.67L323.374 224.423Z" fill="#F8F8F8"/>
<path d="M327.556 235.935C328.125 235.935 328.665 235.62 328.95 235.081L336.278 220.96C341.119 211.621 355.072 189.586 380.04 186.752C380.895 186.647 381.524 185.883 381.419 185.014C381.314 184.159 380.55 183.53 379.681 183.634C353.214 186.647 338.556 209.732 333.491 219.521L326.162 233.642C325.757 234.406 326.057 235.35 326.837 235.755C327.061 235.875 327.316 235.935 327.556 235.935Z" fill="white"/>
<path fill-rule="evenodd" clip-rule="evenodd" d="M535.623 31.935C545.35 39.3422 547.426 52.3836 552.285 63.605C556.33 72.9471 561.19 81.7348 561.592 91.9087C562.036 103.154 561.202 114.943 554.675 124.112C547.844 133.707 536.914 139.46 525.548 142.538C513.938 145.681 501.361 146.394 490.366 141.524C479.519 136.72 473.929 125.565 466.443 116.359C457.538 105.407 443.912 96.7306 442.517 82.6802C441.054 67.9481 449.408 53.8284 459.125 42.6585C468.773 31.5691 481.69 22.9649 496.242 20.925C510.08 18.9851 524.507 23.4694 535.623 31.935Z" fill="#F7EDFF"/>
<path d="M515.904 23.1518C516.069 24.1761 516.233 25.206 516.208 26.2576C516.189 26.9932 516.244 27.7288 516.302 28.4671C516.406 29.7857 516.373 31.1152 516.438 32.4393C516.51 33.8886 516.556 35.3516 516.345 36.8038C516.206 37.7682 516.197 38.7517 516.041 39.7107C515.732 41.6123 515.403 43.514 514.91 45.3802C514.396 47.3336 513.769 49.2543 513.111 51.1641C512.777 52.1313 512.389 53.0766 511.939 53.9975C511.129 55.6648 510.129 57.2232 509.026 58.7134C508.147 59.9013 507.26 61.0918 506.167 62.1026C505.641 62.5903 505.083 63.0425 504.519 63.4866C503.284 64.4592 502.002 65.3583 500.526 65.9522C498.714 66.6823 496.882 66.9602 494.973 66.3745C494.412 66.2028 493.831 66.0911 493.267 65.9222C491.715 65.459 490.178 64.9469 488.859 63.9688C487.802 63.1869 486.884 62.2633 486.041 61.2553C484.992 60.0021 483.968 58.7325 483.078 57.3648C482.402 56.3241 481.791 55.2453 481.145 54.1855C480.074 52.4282 479.264 50.5484 478.379 48.7067C477.684 47.2573 477.12 45.7453 476.578 44.2305C476.126 42.9636 475.682 41.6886 475.43 40.3618C475.364 40.0213 475.252 39.6889 475.206 39.3484C475.176 39.125 475.156 38.9015 475.08 38.689C475.113 39.1685 475.151 39.6453 475.197 40.1221C475.597 44.3068 476.539 48.3743 478.062 52.3029C479.581 56.2179 481.602 59.8386 484.436 62.9717C486.224 64.9469 488.251 66.6387 490.658 67.8184C495.507 70.1995 500.288 70.0442 504.96 67.3198C507.276 65.9685 509.185 64.1513 510.833 62.059C513.801 58.2966 515.713 54.0193 516.97 49.4368C518.224 44.8653 518.739 40.2011 518.659 35.4688C518.566 29.8647 517.608 24.4213 515.661 19.1551C515.097 17.6321 514.445 16.1691 513.689 14.7715C514.1 15.9484 514.497 17.1281 514.815 18.3323C515.245 19.9261 515.642 21.5253 515.904 23.1518Z" fill="white"/>
<path d="M513.664 87.5501C512.254 89.9149 511.422 92.503 510.776 95.1621C510.042 98.1834 509.645 101.243 509.617 104.948C509.62 107.081 509.94 109.787 510.444 112.465C511.167 116.298 512.049 120.096 513.3 123.796C515.203 129.411 516.956 135.072 518.506 140.79C519.686 145.149 520.535 149.579 521.033 154.069C521.162 155.224 521.186 156.39 521.222 157.554C521.323 157.851 521.474 158.186 521.652 158.3C522.191 158.643 521.945 157.409 521.953 157.249C522.578 145.1 519.946 132.416 516.203 120.875C513.048 111.149 510.488 99.6301 515.025 89.8903C516.693 86.3077 519.297 83.2373 522.071 80.4121C523.446 79.0118 524.875 77.655 526.471 76.5108C527.227 75.9686 528.095 75.312 528.363 74.4893C526.354 75.6335 524.387 76.8459 522.501 78.1836C518.93 80.7118 515.913 83.7795 513.664 87.5501Z" fill="white"/>
<path d="M550.541 66.0688C549.574 67.3738 548.901 68.8368 548.271 70.3298C547.619 71.8745 546.894 73.3893 546.16 74.8986C545.456 76.348 544.333 77.4432 543.027 78.3586C542.797 78.5194 542.537 78.642 542.277 78.7564C542.113 78.8299 541.943 78.8327 541.8 78.7646C541.625 79.1542 541.546 79.5546 541.655 79.9252C541.863 80.6199 542.718 80.9468 543.432 80.816C546.171 80.3175 547.682 76.9474 548.86 74.8087C550.305 72.1797 551.535 69.4389 552.827 66.7336C553.852 64.5867 554.911 62.4535 556.143 60.4184C556.921 59.1325 559.131 56.7486 558.92 54.9805C558.205 55.8986 557.488 56.814 556.787 57.743C554.695 60.5083 552.608 63.279 550.541 66.0688Z" fill="white"/>
<path d="M567.14 13.6585C566.65 14.247 566.047 14.593 565.65 15.3204C565.067 16.3884 564.757 17.549 564.599 18.7395C564.308 20.9191 564.051 23.1068 563.802 25.2917C563.558 27.414 563.213 29.5146 562.632 31.5633C562.657 31.6015 562.682 31.6341 562.717 31.6532C563.131 31.8957 563.774 31.1301 563.919 30.8196C564.237 30.1439 564.33 29.3811 564.566 28.6754C565.324 26.4115 565.916 24.014 566.244 21.7091C566.466 20.1562 566.392 18.5434 566.888 17.0368C567.131 16.293 567.496 15.5901 568.123 15.097C568.566 14.7483 569.689 14.5222 569.391 13.7457C569.078 12.9365 568.271 12.8848 567.416 13.1572C567.416 13.1681 567.422 13.179 567.422 13.1872C567.419 13.3643 567.288 13.4787 567.14 13.6585Z" fill="white"/>
<path d="M443.8 13.2215C445.399 18.605 447.434 23.8113 450.202 28.718C450.416 29.0939 450.64 29.4672 450.635 30.0883C450.462 29.775 450.364 29.5925 450.257 29.4127C449.178 27.6173 448.159 25.7865 446.998 24.0429C446.254 22.9232 445.317 21.9287 444.438 20.9016C444.203 20.6265 443.888 20.3976 443.567 20.2205C443.091 19.959 442.697 20.1715 442.603 20.7082C442.571 20.8962 442.576 21.1032 442.609 21.2912C442.683 21.6972 442.765 22.1058 442.88 22.5009C443.962 26.1625 445.561 29.587 447.645 32.7909C449.518 35.6706 451.67 38.3351 453.937 40.9097C454.134 41.1358 454.312 41.3974 454.427 41.6698C455.443 44.1081 456.615 46.4702 457.899 48.7778C457.99 48.9412 458.069 49.1129 458.154 49.2791C457.88 49.1428 457.697 48.9467 457.513 48.7451C456.13 47.2276 454.759 45.6992 453.359 44.198C451.941 42.6751 450.325 41.3674 448.658 40.125C448.378 39.918 448.074 39.7436 447.768 39.5747C447.502 39.4276 447.217 39.4058 446.968 39.6183C446.722 39.8308 446.705 40.1196 446.793 40.4002C446.883 40.689 446.993 40.9778 447.135 41.2475C447.842 42.5797 448.614 43.8766 449.638 44.9963C450.684 46.1378 451.741 47.2766 452.864 48.3446C455.369 50.7257 458.058 52.8943 460.799 54.9976C461.988 55.9103 463.097 56.8747 463.896 58.1579C464.08 58.4521 464.321 58.7137 464.529 58.9943C464.605 59.0978 464.666 59.215 464.734 59.3267C464.386 59.1632 464.115 58.9425 463.83 58.7409C461.996 57.4359 460.18 56.1037 458.313 54.8477C457.653 54.4037 456.875 54.1203 456.13 53.8125C455.859 53.7008 455.528 53.6871 455.23 53.698C454.619 53.7198 454.331 54.1748 454.553 54.7388C454.63 54.9376 454.756 55.1256 454.887 55.2973C456.752 57.6893 458.871 59.8116 461.423 61.4898C463.989 63.1735 466.695 64.6011 469.49 65.8571C470.126 66.1431 470.791 66.3747 471.459 66.5763C471.823 66.6853 472.144 66.8297 472.442 67.064C473.699 68.0529 475.011 68.9629 476.476 69.6249C477.073 69.8946 477.694 70.1071 478.31 70.3278C478.529 70.4068 478.754 70.3741 478.894 70.1562C479.047 69.9164 478.978 69.6876 478.787 69.5078C478.628 69.3607 478.445 69.2353 478.261 69.1209C477.092 68.3935 475.923 67.6688 474.751 66.9468C474.299 66.6689 473.973 66.3284 474.003 65.7454C474.011 65.5792 473.94 65.4048 473.894 65.2359C472.837 61.4735 472.163 57.6375 471.58 53.7771C471.268 51.7119 470.827 49.6659 470.408 47.6172C470.246 46.8271 469.978 46.0561 469.496 45.3913C469.271 45.0807 468.989 44.7811 468.669 44.574C468.201 44.2716 467.702 44.4514 467.475 44.9609C467.363 45.2142 467.283 45.503 467.27 45.7782C467.226 46.6255 467.174 47.4755 467.209 48.3228C467.322 51.0581 467.823 53.7307 468.576 56.3571C469.351 59.0624 470.211 61.7378 471.643 64.1897C471.67 64.236 471.654 64.3042 471.662 64.4022C471.541 64.3096 471.451 64.2469 471.374 64.1734C469.57 62.4815 467.88 60.6834 466.347 58.7464C466.109 58.4467 465.942 58.0762 465.805 57.7138C464.805 55.0766 464.214 52.3277 463.581 49.5896C462.96 46.8952 462.379 44.1899 461.73 41.5009C461.341 39.888 460.791 38.3215 459.969 36.8694C459.707 36.4062 459.345 35.9649 458.934 35.6243C458.296 35.0958 457.639 35.3328 457.431 36.1256C457.327 36.5207 457.28 36.9429 457.278 37.3516C457.267 39.5039 457.546 41.6235 458.269 43.6504C459.08 45.9253 460.005 48.1621 460.881 50.4179C460.958 50.614 461.04 50.8074 461.12 51.0009C459.767 49.1592 456.807 43.5605 456.046 41.5472C455.977 41.3674 455.925 41.1685 455.92 40.9778C455.873 39.5638 455.774 38.1471 455.816 36.7332C455.9 33.8153 456.092 30.9002 456.182 27.9824C456.243 26.0671 456.281 24.1464 456.191 22.2366C456.141 21.2068 455.826 20.1851 455.566 19.1771C455.46 18.7684 455.216 18.3734 454.956 18.0328C454.46 17.379 453.836 17.4416 453.45 18.1554C453.326 18.3843 453.236 18.6349 453.168 18.8856C452.223 22.2802 451.864 25.7266 452.228 29.2383C452.283 29.7805 452.341 30.3199 452.395 30.8621C452.1 30.1673 451.933 29.4481 451.73 28.7398C451.486 27.887 451.393 27.037 451.607 26.1625C451.689 25.8246 451.716 25.4732 451.757 25.1272C452.086 22.2693 452.541 19.4332 453.143 16.6161C453.869 13.227 454.493 9.81876 454.704 6.35331C454.748 5.63952 454.687 4.92027 454.649 4.20648C454.638 4.01577 454.567 3.81961 454.479 3.64798C454.236 3.15758 453.786 3.08947 453.43 3.50086C453.263 3.69429 453.121 3.92859 453.031 4.17106C452.631 5.23085 452.193 6.27975 451.886 7.36679C451.256 9.59535 451.026 11.9002 450.706 14.186C450.596 14.9624 450.635 15.7798 450.402 16.5126C450.158 17.2809 450.106 18.0437 450.065 18.8202C450.043 19.267 450.027 19.7111 450.01 20.1579C449.865 20.0598 449.816 19.9508 449.791 19.8364C449.211 17.3109 448.663 14.7772 448.044 12.2625C447.538 10.2111 446.933 8.18139 445.966 6.2852C445.602 5.57141 445.158 4.8903 444.695 4.23372C444.391 3.80327 443.975 3.4164 443.367 3.60438C442.74 3.79782 442.617 4.36722 442.573 4.91482C442.529 5.45426 442.535 6.00731 442.584 6.54674C442.79 8.808 443.154 11.042 443.8 13.2215ZM468.228 47.8188C468.192 47.1077 468.212 46.4021 468.346 45.5766C468.765 45.9852 468.965 46.3939 469.077 46.8244C469.37 47.9604 469.668 49.0992 469.879 50.2544C470.517 53.7226 471.111 57.1989 471.733 60.6698C471.851 61.3291 472.01 61.983 472.048 62.675C471.969 62.5387 471.87 62.408 471.812 62.2636C469.89 57.6239 468.475 52.8644 468.228 47.8188ZM469.03 64.0889C469.208 64.2279 469.367 64.3941 469.466 64.6365C469.37 64.6011 469.271 64.5711 469.181 64.5276C466.618 63.3043 464.093 62.0157 461.719 60.4464C459.474 58.9616 457.576 57.1144 455.898 55.0303C455.846 54.9649 455.807 54.8886 455.698 54.7142C456.467 54.8614 457.02 55.1692 457.535 55.5261C459.025 56.5559 460.52 57.5803 461.968 58.6646C464.342 60.4491 466.681 62.2772 469.03 64.0889ZM458.677 41.7379C458.269 40.1986 458.113 38.613 458.179 37.0165C458.187 36.8449 458.209 36.6705 458.242 36.5016C458.253 36.4471 458.313 36.4008 458.368 36.3272C458.797 36.5697 459.049 36.9593 459.222 37.3734C459.693 38.5177 460.227 39.6537 460.545 40.8416C461.221 43.3834 461.779 45.9553 462.382 48.5162C462.762 50.1236 463.135 51.7337 463.513 53.3439C463.557 53.5319 463.598 53.7198 463.669 54.0468C463.532 53.8969 463.472 53.8506 463.442 53.7934C461.448 49.9329 459.789 45.9389 458.677 41.7379ZM459.857 52.8725C459.676 52.8072 459.616 52.8017 459.578 52.769C457.135 50.7857 454.674 48.8241 452.415 46.6282C450.796 45.0535 449.298 43.3834 448.209 41.3892C448.124 41.2366 448.039 41.084 447.965 40.9288C447.951 40.8988 447.976 40.8497 447.998 40.719C448.28 40.9342 448.532 41.1195 448.778 41.3156C450.399 42.6152 451.952 43.991 453.34 45.5412C455.35 47.7861 457.357 50.0337 459.364 52.2786C459.504 52.4366 459.635 52.6056 459.857 52.8725ZM452.929 25.8928C453.003 23.6887 453.34 21.5201 453.912 19.3896C453.978 19.1498 454.074 18.9183 454.181 18.6131C454.548 18.9591 454.657 19.3378 454.764 19.7029C455.115 20.8989 455.306 22.1304 455.287 23.3727C455.257 25.4378 455.167 27.5056 455.09 29.5707C454.994 32.1807 454.887 34.7879 454.786 37.3979C454.783 37.4824 454.77 37.5696 454.761 37.654C454.72 37.654 454.676 37.6567 454.635 37.6567C454.307 36.24 453.956 34.8315 453.658 33.4067C453.14 30.9329 452.845 28.4292 452.929 25.8928ZM451.051 21.6018C451.15 19.6893 451.182 17.7686 451.39 15.8642C451.656 13.4204 451.996 10.9794 452.434 8.5628C452.664 7.28778 453.173 6.06452 453.565 4.81947C453.614 4.66145 453.713 4.51706 453.825 4.29366C454.041 4.76226 453.989 5.17637 453.945 5.57413C453.776 7.06711 453.63 8.56553 453.378 10.0449C452.803 13.434 452.165 16.815 451.563 20.2015C451.423 20.9915 451.314 21.7871 451.108 22.5826C451.087 22.2557 451.035 21.9287 451.051 21.6018ZM451.998 35.0631C452.472 36.0739 452.768 37.1691 453.146 38.2234C449.348 34.6899 443.565 24.4297 443.458 21.1141C443.671 21.3185 443.849 21.4656 444.003 21.6345C444.947 22.6671 445.807 23.7595 446.552 24.9474C448.592 28.2003 450.369 31.5949 451.998 35.0631ZM443.545 4.49799C443.608 4.47619 443.669 4.4544 443.732 4.4326C444.025 4.85489 444.383 5.24993 444.6 5.70763C445.136 6.84915 445.687 7.9934 446.092 9.18397C447.272 12.6494 448.085 16.2157 448.849 19.7928C449.148 21.1986 449.452 22.6017 449.723 24.0102C449.887 24.8602 449.988 25.7211 450.117 26.5766C450.073 26.5902 450.03 26.6065 449.986 26.6202C449.928 26.5439 449.857 26.4758 449.819 26.3913C447.68 21.6427 445.668 16.845 444.334 11.7994C443.827 9.87869 443.548 7.91984 443.376 5.94192C443.332 5.45153 443.332 4.95569 443.545 4.49799Z" fill="black"/>
<path d="M518.371 67.5161C518.319 67.7231 518.125 67.9274 517.941 68.0609C517.394 68.4587 516.83 68.8347 516.255 69.1943C515.532 69.6438 514.787 70.0634 514.061 70.5102C513.878 70.6219 513.678 70.7581 513.576 70.9352C513.494 71.0769 513.492 71.3248 513.563 71.4692C513.62 71.5809 513.85 71.6517 514.004 71.6572C514.168 71.6626 514.338 71.5727 514.505 71.5182C516.471 70.8807 518.177 69.7855 519.792 68.535C520.214 68.2081 520.644 67.9629 521.172 67.8348C521.72 67.704 522.251 67.4779 522.769 67.2491C525.411 66.0776 527.961 64.7317 530.411 63.1979C533.191 61.457 535.51 59.2339 537.512 56.662C537.657 56.474 537.799 56.2697 537.884 56.0518C538.106 55.4878 537.81 55.0192 537.2 55.0192C536.792 55.0192 536.351 55.0682 535.984 55.229C535.225 55.5586 534.459 55.9101 533.779 56.376C531.923 57.651 530.113 58.9887 528.284 60.3018C528.103 60.4326 527.917 60.5579 527.733 60.6887C528.188 59.9422 528.714 59.2747 529.198 58.5773C529.552 58.0678 529.973 57.6428 530.458 57.2587C532.238 55.8447 534.015 54.428 535.776 52.9895C537.961 51.2023 540.069 49.3334 541.986 47.2601C543.237 45.9061 544.319 44.4294 545.173 42.7975C545.365 42.4324 545.551 42.051 545.644 41.656C545.798 41.0103 545.332 40.6289 544.719 40.8823C544.401 41.0157 544.1 41.2092 543.821 41.4162C542.134 42.6667 540.502 43.9908 539.067 45.5301C537.651 47.0476 536.268 48.5923 534.869 50.1262C534.702 50.3087 534.53 50.4858 534.36 50.6656C534.33 50.4912 534.376 50.3768 534.437 50.2706C535.773 47.8894 536.983 45.4511 538.029 42.931C538.12 42.7158 538.256 42.5087 538.407 42.3262C539.497 41.0185 540.617 39.7326 541.685 38.4085C544.511 34.9049 546.871 31.118 548.489 26.9088C549.012 25.552 549.379 24.1326 549.793 22.7377C549.864 22.498 549.856 22.2146 549.806 21.964C549.713 21.4954 549.344 21.3019 548.919 21.5226C548.596 21.6915 548.27 21.9122 548.035 22.1846C547.139 23.2254 546.186 24.2361 545.428 25.3722C544.267 27.1131 543.248 28.9466 542.169 30.742C542.063 30.9164 541.97 31.0989 541.868 31.2787C541.805 31.0689 541.824 30.8973 541.885 30.742C541.961 30.5404 542.06 30.3415 542.167 30.1535C543.196 28.3527 544.127 26.5056 544.952 24.6012C546.655 20.6535 548.199 16.6514 549.152 12.4476C549.582 10.5542 549.88 8.63617 549.886 6.68822C549.886 6.34494 549.842 5.98532 549.738 5.66112C549.47 4.83017 548.747 4.61222 548.109 5.19252C547.728 5.53852 547.369 5.95808 547.137 6.41033C546.567 7.51099 545.981 8.6171 545.565 9.78042C544.251 13.4611 543.435 17.278 542.657 21.0976C542.629 21.2311 542.577 21.3591 542.536 21.4926C542.41 20.9423 542.405 20.4083 542.367 19.8743C542.326 19.3322 542.271 18.79 542.186 18.2533C542.126 17.8719 541.975 17.5041 541.92 17.1227C541.797 16.2591 541.74 15.3872 541.597 14.5291C541.266 12.5539 540.976 10.5678 540.521 8.61982C540.247 7.44288 539.708 6.32587 539.256 5.19524C539.119 4.85197 538.884 4.50597 538.432 4.57408C537.985 4.64219 537.909 5.04813 537.805 5.40502C537.785 5.46768 537.775 5.53307 537.772 5.59846C537.747 6.206 537.681 6.81627 537.712 7.42108C537.848 10.1237 538.276 12.7936 538.793 15.4445C539.48 18.9508 540.209 22.4435 540.636 25.9988C540.995 28.9902 541.055 28.9848 540.28 31.7119C540.234 31.8781 540.162 32.0361 540.105 32.1968C540.094 31.6111 540.162 31.0526 540.217 30.4914C540.565 26.9796 540.203 23.5332 539.248 20.1413C539.182 19.9125 539.097 19.6836 538.982 19.4766C538.607 18.7873 538.016 18.7165 537.512 19.3077C537.345 19.5038 537.191 19.73 537.09 19.967C536.904 20.4056 536.726 20.8551 536.608 21.3183C536.241 22.7404 536.08 24.1925 536.134 25.6583C536.263 29.0992 536.403 32.5401 536.559 35.9783C536.649 38.0053 536.72 40.0295 536.526 42.051C536.488 42.4542 536.386 42.8683 536.225 43.2389C534.921 46.2439 533.358 49.1181 531.676 51.927C531.583 52.0823 531.474 52.224 531.372 52.3711C531.4 52.115 531.496 51.8998 531.583 51.6791C532.361 49.7148 533.158 47.7559 533.908 45.7807C534.631 43.8709 535.023 41.8848 535.127 39.8497C535.165 39.095 535.146 38.3186 535.023 37.5748C534.867 36.624 534.116 36.3843 533.391 37.0327C533.007 37.3732 532.659 37.8009 532.435 38.2586C531.975 39.1958 531.553 40.1603 531.219 41.1465C530.348 43.732 529.806 46.4019 529.245 49.0664C528.544 52.3901 527.832 55.7139 526.687 58.926C526.501 59.4491 526.244 59.915 525.893 60.34C524.458 62.0754 522.93 63.7264 521.298 65.2793C521.142 65.4264 520.978 65.5654 520.816 65.7071C520.803 65.6825 520.789 65.6607 520.773 65.6362C521.181 64.7944 521.638 63.9743 521.988 63.1107C523.593 59.1766 524.768 55.1282 525.14 50.8781C525.25 49.6412 525.359 48.3989 525.173 47.1593C525.129 46.8596 525.074 46.5517 524.954 46.2766C524.729 45.7671 524.226 45.5928 523.76 45.8979C523.44 46.1049 523.16 46.4046 522.936 46.7179C522.457 47.3827 522.183 48.1537 522.027 48.9438C521.567 51.2731 521.101 53.5998 520.723 55.9428C520.272 58.738 519.828 61.5333 519.132 64.2849C518.861 65.3529 518.648 66.4426 518.371 67.5161ZM542.572 25.9852C543.435 21.964 544.168 17.9128 545.305 13.9569C545.809 12.2024 546.378 10.4615 547.011 8.75059C547.323 7.90058 547.832 7.1214 548.279 6.32315C548.396 6.11064 548.602 5.94446 548.823 5.69381C549.111 6.24687 549.125 6.74271 549.064 7.2331C548.897 8.59258 548.755 9.96023 548.506 11.3061C547.871 14.7252 546.668 17.9754 545.392 21.193C544.565 23.2771 543.654 25.3259 542.775 27.391C542.695 27.5817 542.583 27.7588 542.487 27.9413C542.446 27.9304 542.405 27.9168 542.364 27.9059C542.427 27.2629 542.438 26.6091 542.572 25.9852ZM540.403 18.8173C539.913 16.052 539.387 13.2922 538.927 10.5242C538.719 9.27913 538.615 8.01773 538.486 6.76178C538.451 6.4076 538.407 6.03436 538.626 5.56849C538.763 5.87907 538.862 6.08885 538.949 6.30135C539.691 8.10764 540.108 9.99565 540.395 11.9164C540.877 15.1066 541.222 18.3078 541.364 21.5308C541.4 22.31 541.37 23.0946 541.37 23.8765C541.337 23.882 541.304 23.8847 541.271 23.8901C540.984 22.201 540.702 20.5091 540.403 18.8173ZM540.496 36.2535C542.057 32.9461 543.749 29.7013 545.683 26.5873C546.469 25.3232 547.353 24.1408 548.347 23.0374C548.52 22.844 548.681 22.6423 548.848 22.4435C548.911 22.4762 548.974 22.5061 549.037 22.5388C548.971 22.8303 548.922 23.1273 548.837 23.4134C547.805 26.8107 546.277 29.9792 544.36 32.9624C542.909 35.2182 541.296 37.3596 539.574 39.4192C539.522 39.4792 539.467 39.5364 539.412 39.5963C539.371 39.5745 539.33 39.5555 539.292 39.5337C539.683 38.4357 540.001 37.3024 540.496 36.2535ZM537.542 21.4899C537.665 20.9668 537.799 20.4383 538.237 19.907C538.371 20.2966 538.497 20.6018 538.58 20.9178C539.294 23.6531 539.623 26.4293 539.494 29.2545C539.374 31.8944 538.892 34.4799 538.256 37.0408C538.098 37.6865 537.936 38.3349 537.777 38.9806C537.744 38.9779 537.714 38.9724 537.681 38.9697C537.67 38.8744 537.654 38.7763 537.649 38.6809C537.482 34.4635 537.317 30.2434 537.147 26.0261C537.09 24.4977 537.191 22.9802 537.542 21.4899ZM532.95 53.7387C535.359 51.0606 537.725 48.3417 540.203 45.729C541.384 44.4839 542.777 43.4377 544.078 42.3044C544.182 42.2145 544.316 42.1545 544.437 42.081C544.461 42.1028 544.486 42.1246 544.511 42.1464C544.418 42.3316 544.327 42.5196 544.229 42.7022C543.268 44.4594 541.989 45.9742 540.581 47.3881C538.79 49.1835 536.863 50.8318 534.891 52.4256C534.179 53.0031 533.473 53.5862 532.69 54.1147C532.774 53.9894 532.848 53.8504 532.95 53.7387ZM529.918 50.4558C530.529 47.8295 531.085 45.1895 531.772 42.5823C532.12 41.2664 532.692 40.0077 533.193 38.7327C533.366 38.2913 533.651 37.9045 534.155 37.5503C534.201 37.9017 534.256 38.1497 534.264 38.3976C534.322 40.4382 534.031 42.4406 533.415 44.3804C532.287 47.9303 530.918 51.3876 529.212 54.7086C529.116 54.8966 529.004 55.0791 528.897 55.2617C528.867 55.2453 528.837 55.229 528.807 55.2126C529.176 53.627 529.549 52.0414 529.918 50.4558ZM523.442 65.3719C525.688 63.6392 527.925 61.8929 530.192 60.1901C531.657 59.0895 533.158 58.0378 534.667 56.9944C535.146 56.662 535.696 56.4277 536.219 56.1634C536.345 56.1008 536.499 56.0926 536.729 56.0409C536.622 56.2098 536.575 56.3024 536.509 56.3814C534.773 58.5337 532.796 60.4217 530.461 61.931C528.166 63.4158 525.737 64.6554 523.273 65.8324C523.18 65.8787 523.078 65.9087 522.98 65.9468C522.958 65.9114 522.933 65.876 522.911 65.8405C523.089 65.6825 523.256 65.5163 523.442 65.3719ZM520.351 63.6011C520.866 60.7977 521.378 57.9915 521.901 55.1908C522.284 53.1366 522.657 51.0797 523.097 49.0391C523.237 48.3934 523.582 47.7886 523.831 47.1647C523.864 47.083 523.9 47.0013 523.933 46.9195C523.985 46.9441 524.037 46.9686 524.089 46.9931C524.116 47.1511 524.174 47.3091 524.171 47.4671C524.152 48.5542 524.187 49.6467 524.086 50.7255C523.67 55.1663 522.358 59.3755 520.671 63.4839C520.6 63.6583 520.493 63.819 520.406 63.9852C520.381 63.9771 520.356 63.9689 520.332 63.9607C520.335 63.8408 520.329 63.7182 520.351 63.6011Z" fill="black"/>
<path d="M515.916 56.9824C518.657 51.4001 520.001 45.4609 520.377 39.2874C520.618 35.3125 520.385 31.3593 519.725 27.4335C518.892 22.4996 517.411 17.7755 515.018 13.3592C513.043 9.71394 510.552 6.4828 507.233 3.93548C503.591 1.13751 499.495 -0.249208 494.87 0.0368548C492.405 0.189422 490.08 0.794239 487.977 2.13192C486.31 3.19172 484.782 4.4286 483.366 5.79897C480.332 8.72771 478.158 12.234 476.526 16.0863C474.015 22.0174 472.974 28.2345 472.931 34.773C472.972 41.001 474.045 47.1718 476.397 53.1001C477.994 57.1241 480.13 60.8347 483.087 64.0386C484.88 65.9784 486.904 67.6294 489.262 68.8499C492.884 70.7297 496.693 71.3754 500.716 70.4954C503.821 69.8171 506.524 68.3377 508.922 66.2889C511.945 63.7035 514.18 60.5241 515.916 56.9824ZM477.725 17.8408C478.851 14.7514 480.305 11.8226 482.309 9.20448C484.546 6.28392 487.394 4.10439 490.825 2.74764C493.35 1.75051 495.965 1.59521 498.621 2.28994C502.214 3.22713 505.313 5.00617 508.049 7.49355C510.396 9.62676 512.238 12.0733 513.695 14.7732C514.451 16.1708 515.103 17.6338 515.667 19.1567C517.614 24.423 518.572 29.8664 518.665 35.4705C518.745 40.2055 518.227 44.867 516.976 49.4385C515.719 54.021 513.81 58.2983 510.839 62.0607C509.188 64.153 507.282 65.9702 504.966 67.3215C500.294 70.0432 495.513 70.1985 490.664 67.8201C488.254 66.6377 486.23 64.9485 484.442 62.9734C481.605 59.8376 479.585 56.2196 478.068 52.3046C476.545 48.376 475.603 44.3112 475.203 40.1238C475.157 39.647 475.119 39.1675 475.086 38.6907C474.987 37.3013 474.924 35.9091 474.836 34.5197C474.897 28.793 475.762 23.2243 477.725 17.8408Z" fill="black"/>
<path d="M545.506 60.854C548.228 57.5793 550.925 54.2882 553.335 50.771C554.394 49.2208 555.577 47.7524 556.979 46.4882C557.606 45.9243 558.321 45.4257 559.066 45.0361C559.991 44.5512 560.903 44.9953 561.152 46.0087C561.295 46.5918 561.338 47.2129 561.328 47.815C561.306 48.8857 560.909 49.8501 560.339 50.7519C559.227 52.5092 557.957 54.1438 556.59 55.7076C554 58.6663 551.593 61.7721 549.279 64.9515C548.247 66.3709 547.425 67.9075 546.817 69.5531C546.659 69.9835 546.489 70.4085 546.316 70.8308C545.265 73.4135 544.013 75.871 541.891 77.778C541.826 77.8353 541.768 77.9034 541.713 77.9715C541.555 78.1704 541.442 78.4019 541.623 78.6253C541.675 78.6907 541.738 78.737 541.806 78.7697C541.952 78.8378 542.119 78.8351 542.283 78.7616C542.54 78.6471 542.803 78.5245 543.033 78.3638C544.339 77.4457 545.462 76.3532 546.166 74.9038C546.897 73.3945 547.625 71.8797 548.277 70.335C548.907 68.842 549.58 67.3763 550.547 66.074C552.612 63.2842 554.701 60.5135 556.796 57.7482C557.497 56.8219 558.217 55.9038 558.929 54.9857C559.474 54.2855 560.016 53.5826 560.547 52.8715C561.054 52.1931 561.511 51.463 561.894 50.7056C562.73 49.0573 563.023 47.3273 562.494 45.5129C562.204 44.5158 561.571 43.8483 560.577 43.5295C559.767 43.268 558.975 43.347 558.217 43.7175C557.302 44.1616 556.494 44.7501 555.774 45.4639C554.266 46.9596 552.858 48.5506 551.64 50.2806C549.397 53.46 546.913 56.4487 544.449 59.4537C540.185 64.6518 535.084 68.842 529.15 72.0241C526.776 73.2964 524.498 74.7213 522.263 76.217C518.709 78.5981 515.818 81.6467 513.389 85.1258C511.519 87.8039 510.39 90.8171 509.583 93.9692C508.148 99.5815 507.844 105.232 508.832 110.945C509.563 115.179 510.694 119.32 511.732 123.48C513.274 129.651 514.971 135.783 516.551 141.943C517.548 145.828 518.356 149.754 518.906 153.729C519.101 155.129 519.388 156.516 519.651 157.908C519.703 158.181 519.799 158.464 519.947 158.696C520.21 159.115 520.788 159.162 521.059 158.786C521.187 158.606 521.259 158.341 521.25 158.118C521.245 157.933 521.239 157.745 521.234 157.56C521.198 156.396 521.171 155.23 521.045 154.075C520.549 149.585 519.7 145.155 518.518 140.796C516.968 135.078 515.212 129.416 513.312 123.801C512.058 120.102 511.179 116.304 510.456 112.471C509.952 109.793 509.632 107.087 509.629 104.954C509.659 101.249 510.054 98.1893 510.787 95.1679C511.434 92.5089 512.266 89.9234 513.676 87.5559C515.924 83.7854 518.939 80.7177 522.513 78.1867C524.399 76.8517 526.365 75.6367 528.375 74.4924C528.896 74.1982 529.416 73.9067 529.939 73.6206C535.93 70.3404 541.138 66.104 545.506 60.854Z" fill="black"/>
<path d="M570.776 12.5078C570.119 13.257 570.434 14.7691 570.354 15.7199C570.258 16.9159 570.171 18.1119 570.113 19.3079C569.954 22.5718 569.892 25.8411 569.705 29.1022C569.525 32.2407 569.034 35.3411 568.177 38.3706C567.181 41.8987 565.855 45.3124 564.3 48.6334C562.95 51.5131 562.257 54.5536 561.945 57.6975C561.775 59.4085 561.647 61.1276 561.414 62.8303C561.159 64.6965 560.661 66.5028 559.683 68.1402C558.741 69.7149 557.725 71.2433 556.496 72.6109C553.807 75.5969 551.162 78.621 548.311 81.4598C545.431 84.3286 542.629 87.2682 540.08 90.4394C538.653 92.2158 537.391 94.0901 536.307 96.0926C532.553 103.018 532.09 110.268 534.105 117.768C534.165 117.994 534.259 118.247 534.417 118.4C534.571 118.547 534.855 118.678 535.039 118.637C535.222 118.596 535.37 118.34 535.502 118.155C535.556 118.079 535.543 117.942 535.537 117.836C535.474 116.357 535.515 114.864 535.321 113.401C534.888 110.161 535.053 106.968 535.74 103.789C536.613 99.7324 538.443 96.1171 540.893 92.7988C542.802 90.2133 544.886 87.775 547.128 85.4674C550.617 81.8794 553.969 78.1687 557.189 74.3409C558.599 72.6654 559.85 70.8837 560.929 68.9793C561.493 67.9876 561.912 66.9387 562.224 65.8435C562.835 63.694 563.101 61.4899 563.262 59.2695C563.525 55.6542 564.281 52.1697 565.844 48.865C567.433 45.5085 568.681 42.0159 569.571 38.4142C570.658 34.0143 571.053 29.5245 571.121 25.0019C571.154 22.8442 571.165 20.6865 571.151 18.5315C571.143 16.6625 571.556 14.2732 570.776 12.5078Z" fill="black"/>
<path d="M560.029 36.6095C560.13 36.6667 560.352 36.6449 560.44 36.5686C560.615 36.4134 560.774 36.2172 560.872 36.0047C561.297 35.0975 561.754 34.2011 562.091 33.2612C562.291 32.7 562.469 32.1333 562.63 31.5639C563.211 29.5152 563.556 27.4146 563.799 25.2923C564.049 23.1074 564.306 20.9197 564.596 18.7401C564.755 17.5496 565.065 16.389 565.648 15.321C566.045 14.5936 566.65 14.2476 567.137 13.6591C567.285 13.482 567.417 13.3676 567.414 13.1905C567.414 13.1823 567.408 13.1687 567.408 13.1605C567.406 13.1251 567.4 13.0897 567.387 13.0461C566.228 12.8827 565.193 13.8771 564.632 14.7244C564.123 15.4954 563.772 16.3399 563.528 17.2254C563.033 19.018 562.814 20.8543 562.611 22.6987C562.392 24.712 562.181 26.7308 561.885 28.7333C561.535 31.0871 560.845 33.362 560.067 35.6124C559.996 35.8194 559.903 36.0238 559.878 36.2363C559.867 36.3589 559.936 36.555 560.029 36.6095Z" fill="black"/>
<path d="M472.839 140.518C474.389 134.799 476.144 129.138 478.044 123.523C479.298 119.823 480.177 116.025 480.9 112.192C481.404 109.514 481.724 106.809 481.727 104.675C481.697 100.97 481.303 97.9107 480.569 94.8894C479.923 92.2304 479.09 89.6449 477.68 87.2774C475.432 83.5068 472.417 80.4391 468.844 77.9082C466.957 76.5732 464.991 75.3581 462.981 74.2139C463.249 75.0366 464.117 75.6932 464.873 76.2354C466.47 77.3796 467.899 78.7364 469.274 80.1367C472.047 82.9619 474.649 86.0323 476.319 89.6149C480.856 99.3574 478.296 110.876 475.142 120.6C471.401 132.137 468.767 144.825 469.391 156.973C469.4 157.134 469.15 158.368 469.693 158.025C469.871 157.91 470.021 157.575 470.122 157.278C470.158 156.115 470.185 154.949 470.311 153.794C470.807 149.309 471.659 144.877 472.839 140.518Z" fill="white"/>
<path d="M449.066 78.4829C448.809 78.3685 448.546 78.2459 448.316 78.0852C447.01 77.167 445.887 76.0746 445.184 74.6252C444.453 73.1158 443.724 71.6011 443.072 70.0563C442.443 68.5634 441.769 67.0976 440.802 65.7954C438.738 63.0056 436.648 60.2349 434.554 57.4696C433.853 56.5433 433.133 55.6252 432.421 54.707C432.21 56.4752 434.42 58.8618 435.197 60.1449C436.429 62.1801 437.489 64.316 438.513 66.4601C439.806 69.1655 441.035 71.9062 442.481 74.5353C443.658 76.6739 445.17 80.044 447.908 80.5426C448.623 80.6734 449.48 80.3464 449.685 79.6517C449.795 79.2839 449.713 78.8834 449.54 78.4911C449.401 78.5592 449.231 78.5565 449.066 78.4829Z" fill="white"/>
<path d="M423.231 14.8247C423.858 15.3206 424.22 16.0208 424.466 16.7645C424.962 18.2711 424.888 19.884 425.11 21.4369C425.438 23.7417 426.03 26.1392 426.788 28.4032C427.021 29.1061 427.117 29.8716 427.435 30.5473C427.58 30.8552 428.223 31.6207 428.637 31.381C428.67 31.3619 428.697 31.3292 428.722 31.2911C428.141 29.2423 427.796 27.1418 427.552 25.0195C427.303 22.8345 427.046 20.6468 426.756 18.4673C426.597 17.2767 426.287 16.1161 425.704 15.0481C425.307 14.3207 424.702 13.9747 424.214 13.3863C424.067 13.2092 423.935 13.0947 423.938 12.9177C423.938 12.9095 423.943 12.8959 423.943 12.8877C423.089 12.6153 422.278 12.667 421.969 13.4762C421.665 14.2499 422.788 14.476 423.231 14.8247Z" fill="white"/>
<path d="M477.969 84.8455C475.54 81.3664 472.648 78.3178 469.094 75.9367C466.86 74.441 464.581 73.0161 462.207 71.7438C456.274 68.5617 451.172 64.3716 446.909 59.1734C444.444 56.1684 441.961 53.1824 439.718 50.0003C438.497 48.2703 437.092 46.6793 435.583 45.1836C434.863 44.4698 434.055 43.8786 433.141 43.4372C432.382 43.0694 431.591 42.9904 430.78 43.2493C429.786 43.568 429.154 44.2355 428.864 45.2326C428.335 47.0471 428.631 48.7798 429.463 50.4253C429.847 51.18 430.304 51.9101 430.81 52.5912C431.342 53.3023 431.884 54.0052 432.429 54.7054C433.143 55.6235 433.861 56.5389 434.562 57.4679C436.657 60.2359 438.746 63.0066 440.811 65.7937C441.777 67.0987 442.451 68.5617 443.081 70.0547C443.732 71.5994 444.458 73.1142 445.192 74.6235C445.896 76.0729 447.018 77.1681 448.324 78.0835C448.554 78.2442 448.815 78.3668 449.075 78.4813C449.239 78.5548 449.409 78.5575 449.551 78.4894C449.62 78.4567 449.68 78.4104 449.735 78.345C449.915 78.1216 449.803 77.8928 449.644 77.6912C449.589 77.6231 449.532 77.5577 449.466 77.4978C447.344 75.5907 446.093 73.1333 445.041 70.5505C444.869 70.1255 444.699 69.7005 444.54 69.2728C443.932 67.6272 443.111 66.0907 442.078 64.6712C439.765 61.4946 437.36 58.3888 434.767 55.4273C433.398 53.8635 432.128 52.2289 431.019 50.4716C430.449 49.5699 430.049 48.6054 430.03 47.5347C430.019 46.9326 430.063 46.3115 430.205 45.7285C430.452 44.7177 431.364 44.2709 432.292 44.7558C433.039 45.1454 433.754 45.644 434.378 46.208C435.78 47.4694 436.963 48.9405 438.023 50.4907C440.433 54.0079 443.13 57.3017 445.852 60.5737C450.219 65.8237 455.427 70.0601 461.427 73.3376C461.95 73.6236 462.473 73.9152 462.99 74.2094C465 75.3536 466.966 76.566 468.853 77.9037C472.427 80.4347 475.441 83.5023 477.689 87.2729C479.1 89.6377 479.932 92.2259 480.578 94.8849C481.312 97.9063 481.709 100.966 481.737 104.671C481.734 106.804 481.414 109.51 480.91 112.188C480.187 116.021 479.305 119.819 478.054 123.518C476.151 129.133 474.398 134.795 472.848 140.513C471.668 144.872 470.819 149.302 470.321 153.792C470.192 154.947 470.167 156.113 470.132 157.277C470.126 157.462 470.121 157.65 470.115 157.835C470.107 158.058 470.178 158.323 470.307 158.503C470.578 158.878 471.156 158.829 471.419 158.413C471.567 158.178 471.663 157.898 471.715 157.625C471.977 156.236 472.265 154.846 472.459 153.446C473.01 149.468 473.818 145.543 474.814 141.66C476.397 135.5 478.095 129.368 479.634 123.197C480.671 119.037 481.802 114.893 482.533 110.662C483.522 104.946 483.218 99.2984 481.783 93.6862C480.967 90.5368 479.836 87.5236 477.969 84.8455Z" fill="black"/>
<path d="M451.268 90.1728C448.719 87.0016 445.917 84.0593 443.037 81.1932C440.186 78.3544 437.541 75.3303 434.852 72.3443C433.62 70.9767 432.604 69.4483 431.665 67.8736C430.684 66.2335 430.189 64.4272 429.934 62.5637C429.701 60.861 429.573 59.1419 429.403 57.4309C429.091 54.287 428.398 51.2465 427.048 48.3668C425.493 45.0458 424.167 41.6321 423.171 38.104C422.313 35.0745 421.823 31.9741 421.643 28.8356C421.456 25.5745 421.393 22.3052 421.235 19.0413C421.177 17.8426 421.089 16.6466 420.994 15.4533C420.917 14.5025 421.229 12.9904 420.572 12.2412C419.792 14.0066 420.205 16.3959 420.191 18.2785C420.178 20.4362 420.186 22.594 420.221 24.749C420.293 29.2687 420.687 33.7586 421.771 38.1612C422.661 41.7656 423.91 45.2556 425.498 48.612C427.062 51.9167 427.82 55.3985 428.08 59.0165C428.242 61.2369 428.507 63.4382 429.118 65.5905C429.427 66.6857 429.849 67.7346 430.413 68.7263C431.495 70.628 432.744 72.4097 434.154 74.088C437.377 77.9157 440.726 81.6264 444.214 85.2144C446.457 87.5193 448.541 89.9604 450.449 92.5458C452.9 95.8641 454.729 99.4794 455.603 103.536C456.287 106.718 456.451 109.911 456.022 113.148C455.827 114.611 455.868 116.104 455.805 117.583C455.8 117.692 455.786 117.826 455.841 117.902C455.972 118.087 456.12 118.34 456.304 118.384C456.49 118.425 456.772 118.294 456.925 118.147C457.087 117.992 457.177 117.741 457.237 117.515C459.253 110.015 458.79 102.762 455.036 95.8396C453.957 93.8235 452.695 91.9464 451.268 90.1728Z" fill="black"/>
<path d="M424.208 13.387C424.698 13.9754 425.3 14.3214 425.697 15.0488C426.281 16.1168 426.59 17.2774 426.749 18.468C427.039 20.6475 427.297 22.8352 427.546 25.0202C427.789 27.1425 428.134 29.243 428.715 31.2917C428.876 31.8612 429.052 32.4278 429.254 32.9891C429.591 33.929 430.051 34.8253 430.473 35.7325C430.571 35.945 430.73 36.1412 430.906 36.2965C430.993 36.3728 431.215 36.3946 431.316 36.3373C431.412 36.2829 431.481 36.084 431.467 35.9614C431.442 35.7489 431.349 35.5445 431.278 35.3375C430.5 33.0899 429.81 30.815 429.46 28.4584C429.161 26.4559 428.953 24.4371 428.734 22.4238C428.534 20.5821 428.315 18.7431 427.817 16.9505C427.57 16.0623 427.223 15.2205 426.713 14.4495C426.152 13.6022 425.117 12.6051 423.959 12.7712C423.942 12.8121 423.939 12.8503 423.937 12.8857C423.937 12.8966 423.931 12.9075 423.931 12.9156C423.928 13.0927 424.06 13.2072 424.208 13.387Z" fill="black"/>
<defs>
<linearGradient id="paint0_linear" x1="831.937" y1="168.681" x2="774.349" y2="168.681" gradientUnits="userSpaceOnUse">
<stop stop-color="#BA58E1"/>
<stop offset="1" stop-color="#6F49BC"/>
</linearGradient>
<linearGradient id="paint1_linear" x1="813.526" y1="174.622" x2="703.043" y2="174.622" gradientUnits="userSpaceOnUse">
<stop stop-color="#BA58E1"/>
<stop offset="1" stop-color="#6F49BC"/>
</linearGradient>
<linearGradient id="paint2_linear" x1="788.896" y1="97.9019" x2="783.02" y2="97.9019" gradientUnits="userSpaceOnUse">
<stop stop-color="#BA58E1"/>
<stop offset="1" stop-color="#6F49BC"/>
</linearGradient>
<linearGradient id="paint3_linear" x1="724.037" y1="115.25" x2="714.191" y2="115.25" gradientUnits="userSpaceOnUse">
<stop stop-color="#BA58E1"/>
<stop offset="1" stop-color="#6F49BC"/>
</linearGradient>
<linearGradient id="paint4_linear" x1="744.388" y1="188.388" x2="727.507" y2="188.388" gradientUnits="userSpaceOnUse">
<stop stop-color="#BA58E1"/>
<stop offset="1" stop-color="#6F49BC"/>
</linearGradient>
<linearGradient id="paint5_linear" x1="103.518" y1="140.028" x2="144.736" y2="140.028" gradientUnits="userSpaceOnUse">
<stop stop-color="#BA58E1"/>
<stop offset="1" stop-color="#6F49BC"/>
</linearGradient>
<linearGradient id="paint6_linear" x1="5.50823" y1="210.805" x2="94.7701" y2="210.805" gradientUnits="userSpaceOnUse">
<stop stop-color="#BA58E1"/>
<stop offset="1" stop-color="#6F49BC"/>
</linearGradient>
<linearGradient id="paint7_linear" x1="81.6957" y1="61.4576" x2="94.3002" y2="61.4576" gradientUnits="userSpaceOnUse">
<stop stop-color="#BA58E1"/>
<stop offset="1" stop-color="#6F49BC"/>
</linearGradient>
<linearGradient id="paint8_linear" x1="3.8147e-06" y1="163.998" x2="12.724" y2="163.998" gradientUnits="userSpaceOnUse">
<stop stop-color="#BA58E1"/>
<stop offset="1" stop-color="#6F49BC"/>
</linearGradient>
<linearGradient id="paint9_linear" x1="81.9038" y1="94.5331" x2="93.1591" y2="94.5331" gradientUnits="userSpaceOnUse">
<stop stop-color="#BA58E1"/>
<stop offset="1" stop-color="#6F49BC"/>
</linearGradient>
<linearGradient id="paint10_linear" x1="132.98" y1="69.3348" x2="140.325" y2="69.3348" gradientUnits="userSpaceOnUse">
<stop stop-color="#BA58E1"/>
<stop offset="1" stop-color="#6F49BC"/>
</linearGradient>
</defs>
</svg>
