<svg width="152" height="32" viewBox="0 0 152 32" fill="none" xmlns="http://www.w3.org/2000/svg">
<g clip-path="url(#clip0_1118_27572)">
<path d="M4.54716 14.184C4.54716 14.5783 4.80811 14.9005 5.33555 15.1504C5.863 15.4003 6.50149 15.6169 7.25102 15.8057C8.00611 15.9945 8.75564 16.2333 9.51072 16.5166C10.2658 16.8053 10.9043 17.283 11.4262 17.9605C11.9536 18.6325 12.2146 19.4766 12.2146 20.4874C12.2146 22.0146 11.6427 23.1865 10.5045 24.0084C9.36637 24.8303 7.94503 25.2413 6.24054 25.2413C3.19245 25.2413 1.11042 24.0639 0 21.7036L3.3257 19.8321C3.75876 21.1205 4.73038 21.7647 6.23499 21.7647C7.6008 21.7647 8.28371 21.3371 8.28371 20.4874C8.28371 20.0931 8.02276 19.771 7.49532 19.5211C6.96787 19.2712 6.32938 19.049 5.57985 18.8546C4.82476 18.6547 4.07523 18.4103 3.32015 18.1104C2.56506 17.8106 1.92657 17.344 1.40468 16.6998C0.87723 16.0556 0.616282 15.2503 0.616282 14.2784C0.616282 12.8123 1.15483 11.6571 2.23749 10.8185C3.3146 9.97438 4.6582 9.55786 6.26275 9.55786C7.47311 9.55786 8.57242 9.82999 9.56069 10.3742C10.549 10.9185 11.3318 11.696 11.9092 12.7068L8.63905 14.4895C8.16157 13.4787 7.37317 12.9733 6.26275 12.9733C5.76862 12.9733 5.35776 13.0844 5.03019 13.301C4.70262 13.5176 4.54161 13.8175 4.54161 14.1951L4.54716 14.184Z" fill="white"/>
<path d="M30.4874 9.96313H34.1684L29.8378 24.8246H26.079L23.2696 15.8222L20.4603 24.8246H16.7015L12.332 9.96313H16.3851L18.9279 19.0877L21.6318 9.96313H25.2573L27.9612 19.1211L30.4818 9.96313H30.4874Z" fill="white"/>
<path d="M57.4143 12.5233C58.0472 11.5737 58.8467 10.8572 59.8072 10.3852C60.7678 9.90757 61.756 9.67432 62.7665 9.67432L62.2779 11.3626C61.9004 12.6622 60.9121 13.7451 59.6018 14.0895C59.1243 14.2116 58.6524 14.406 58.1805 14.6726C57.0812 15.289 56.3205 16.3053 55.9097 17.7326L53.8388 24.8357H50.0078L54.3384 9.97421H58.1694L57.4254 12.5289L57.4143 12.5233Z" fill="white"/>
<path d="M74.0823 4.02075H77.9132V24.8246H74.0823V23.0697C72.9552 24.5136 71.3506 25.2412 69.2686 25.2412C67.1866 25.2412 65.5598 24.4859 64.144 22.9697C62.7282 21.4536 62.0176 19.5987 62.0176 17.3994C62.0176 15.2002 62.7227 13.3453 64.144 11.8292C65.5654 10.313 67.2699 9.55772 69.2686 9.55772C71.2674 9.55772 72.9552 10.2797 74.0823 11.7292V4.02075ZM67.0256 20.4095C67.8084 21.1926 68.7911 21.5813 69.9848 21.5813C71.1785 21.5813 72.1557 21.1926 72.9274 20.4095C73.6992 19.6264 74.0878 18.6212 74.0878 17.3939C74.0878 16.1665 73.6992 15.1613 72.9274 14.3783C72.1557 13.5952 71.173 13.2065 69.9848 13.2065C68.7967 13.2065 67.8084 13.5952 67.0256 14.3783C66.2427 15.1613 65.8541 16.1665 65.8541 17.3939C65.8541 18.6212 66.2427 19.6264 67.0256 20.4095Z" fill="white"/>
<path d="M82.3095 8.18048C81.6765 8.18048 81.1269 7.94723 80.6605 7.48073C80.1941 7.01422 79.9609 6.46441 79.9609 5.8313C79.9609 5.19818 80.1941 4.64282 80.6605 4.16521C81.1269 3.6876 81.6765 3.45435 82.3095 3.45435C82.9424 3.45435 83.5198 3.69315 83.9862 4.16521C84.4526 4.64282 84.6858 5.19818 84.6858 5.8313C84.6858 6.46441 84.4526 7.01422 83.9862 7.48073C83.5198 7.94723 82.9591 8.18048 82.3095 8.18048ZM80.4051 24.8247V9.9632H84.236V24.8247H80.4051Z" fill="white"/>
<path d="M90.6546 14.184C90.6546 14.5783 90.9155 14.9005 91.443 15.1504C91.9649 15.4003 92.6034 15.6169 93.3584 15.8057C94.1135 15.9945 94.8631 16.2333 95.6181 16.5166C96.3732 16.8053 97.0117 17.283 97.5336 17.9605C98.0611 18.6325 98.322 19.4766 98.322 20.4874C98.322 22.0146 97.7501 23.1865 96.612 24.0084C95.4738 24.8303 94.0525 25.2413 92.348 25.2413C89.2999 25.2413 87.2178 24.0639 86.1074 21.7036L89.4331 19.8321C89.8662 21.1205 90.8378 21.7647 92.3424 21.7647C93.7082 21.7647 94.3911 21.3371 94.3911 20.4874C94.3911 20.0931 94.1302 19.771 93.6027 19.5211C93.0753 19.2712 92.4368 19.049 91.6873 18.8546C90.9322 18.6547 90.1827 18.4103 89.4276 18.1104C88.6725 17.8106 88.034 17.344 87.5121 16.6998C86.9847 16.0556 86.7237 15.2503 86.7237 14.2784C86.7237 12.8123 87.2623 11.6571 88.3449 10.8185C89.422 9.97438 90.7656 9.55786 92.3702 9.55786C93.5805 9.55786 94.6798 9.82999 95.6681 10.3742C96.6564 10.9185 97.4392 11.696 98.0166 12.7068L94.7465 14.4895C94.269 13.4787 93.4806 12.9733 92.3702 12.9733C91.876 12.9733 91.4652 13.0844 91.1376 13.301C90.81 13.5176 90.649 13.8175 90.649 14.1951L90.6546 14.184Z" fill="white"/>
<path d="M45.9553 18.5991C45.9442 18.6379 45.9331 18.6768 45.922 18.7157L44.0898 24.9968C45.4279 24.6636 46.6216 23.9972 47.6543 22.9698C49.1811 21.4536 49.9417 19.5987 49.9417 17.3995C49.9417 15.2002 49.2422 13.5286 47.8653 12.0569L45.9553 18.5991Z" fill="white"/>
<path d="M38.4314 24.397L39.5308 20.6372C39.4197 20.5428 39.3087 20.4484 39.2032 20.3373C38.4425 19.5654 38.0595 18.5824 38.0595 17.3939C38.0595 16.2054 38.4425 15.2224 39.2032 14.4505C39.875 13.7674 40.6967 13.3897 41.6683 13.3064L42.7565 9.5744C42.5289 9.55774 42.3012 9.54663 42.0681 9.54663C39.8694 9.54663 38.015 10.3019 36.4993 11.8181C34.9836 13.3342 34.2285 15.1891 34.2285 17.3884C34.2285 19.5876 34.9836 21.4425 36.4993 22.9586C37.0934 23.5529 37.7374 24.0249 38.437 24.3859L38.4314 24.397Z" fill="white"/>
<path d="M43.9611 8.8747L37.5762 30.7726C39.847 30.7726 41.8457 29.2732 42.4842 27.0906L48.6526 5.94238L45.4046 7.27525C44.705 7.56404 44.1776 8.15273 43.9666 8.8747H43.9611Z" fill="white"/>
<path d="M49.2074 4.02083L50.3789 0H47.4752C46.9255 0 46.4425 0.360986 46.287 0.88858L45.371 4.02083H41.5955C40.9126 4.02083 40.3574 4.57619 40.3574 5.25929V5.93683H52.2111C52.894 5.93683 53.4492 5.38146 53.4492 4.69837V4.02083H49.2074ZM47.8416 1.16626L48.6856 2.01041L47.8416 2.85456L46.9977 2.01041L47.8416 1.16626Z" fill="white"/>
<path d="M111.264 4.02075C110.937 5.03707 110.609 6.05893 110.293 7.09746C109.976 8.13599 109.66 9.17452 109.355 10.2242L107.922 14.9614L109.51 13.6396C110.398 12.9121 111.103 12.4123 111.625 12.1513C112.147 11.8902 112.658 11.757 113.152 11.757C114.079 11.757 114.768 12.1402 115.234 12.9066C115.701 13.673 115.85 14.7004 115.689 15.9888C115.556 17.0662 115.251 18.1214 114.762 19.1488C114.274 20.1818 113.635 21.1315 112.847 22.0034C111.897 23.053 110.865 23.8583 109.738 24.4192C108.611 24.9801 107.467 25.2578 106.301 25.2578C105.529 25.2578 104.818 25.0801 104.18 24.7191C103.542 24.3581 103.014 23.8472 102.598 23.1808L107.1 7.90829C107.178 7.65282 107.239 7.41402 107.289 7.19743C107.339 6.98084 107.372 6.80867 107.384 6.68649C107.417 6.39215 107.372 6.18667 107.245 6.05893C107.117 5.93675 106.884 5.87011 106.534 5.87011C106.412 5.87011 106.201 5.88122 105.901 5.90899C105.846 5.90899 105.796 5.90899 105.751 5.92009C105.751 5.35362 106.162 4.8649 106.728 4.79826C107.295 4.73162 107.867 4.64831 108.444 4.5539C109.366 4.40951 110.304 4.23179 111.264 4.02631V4.02075ZM106.001 22.3255C106.24 22.692 106.517 22.9642 106.828 23.153C107.139 23.3418 107.478 23.4307 107.839 23.4307C108.872 23.4307 109.826 22.7698 110.709 21.4425C111.592 20.1152 112.153 18.4713 112.397 16.5053C112.491 15.7389 112.458 15.1613 112.303 14.7726C112.147 14.3838 111.864 14.1839 111.453 14.1839C111.131 14.1839 110.693 14.3505 110.137 14.6837C109.582 15.0169 108.711 15.6556 107.528 16.5997L106.706 19.4932C106.49 20.304 106.334 20.9038 106.24 21.2981C106.145 21.6924 106.062 22.0367 106.001 22.32V22.3255Z" fill="#0D9A88"/>
<path d="M120.87 22.5533L119.626 23.5696C118.927 24.1416 118.333 24.5526 117.855 24.8025C117.372 25.058 116.945 25.1801 116.561 25.1801C116.017 25.1801 115.607 24.9358 115.318 24.4415C115.029 23.9472 114.935 23.3086 115.035 22.5255C115.107 21.9368 115.457 20.6761 116.084 18.7379C116.439 17.655 116.711 16.7942 116.906 16.161L117.544 14.0007C118.233 11.7792 118.749 10.0854 119.088 8.91911C119.426 7.75285 119.615 7.00867 119.654 6.67545C119.687 6.41998 119.632 6.22005 119.493 6.07566C119.354 5.93126 119.149 5.86462 118.871 5.86462C118.771 5.86462 118.594 5.87573 118.333 5.89239C118.233 5.90349 118.155 5.90905 118.105 5.92015C118.094 5.35368 118.51 4.86497 119.071 4.79277C119.632 4.72057 120.193 4.64282 120.775 4.55396C121.703 4.40957 122.669 4.23185 123.663 4.02637C121.375 11.2017 119.915 15.85 119.271 17.9715C118.627 20.093 118.277 21.3759 118.227 21.8202C118.194 22.1034 118.222 22.3311 118.31 22.4922C118.399 22.6588 118.538 22.7365 118.716 22.7365C118.816 22.7365 118.949 22.6921 119.127 22.5977C119.304 22.5033 119.51 22.37 119.743 22.1923L120.581 21.5647L120.875 22.5533H120.87Z" fill="#0D9A88"/>
<path d="M120.564 20.254C120.714 19.0433 121.108 17.8771 121.746 16.7441C122.385 15.6167 123.223 14.6282 124.25 13.784C125.017 13.1454 125.816 12.6567 126.66 12.329C127.504 12.0013 128.353 11.8347 129.208 11.8347C130.674 11.8347 131.773 12.2735 132.506 13.1565C133.239 14.0395 133.511 15.2446 133.323 16.783C133.039 19.0766 132.051 21.0648 130.358 22.7531C128.659 24.4415 126.771 25.28 124.695 25.28C123.229 25.28 122.124 24.8302 121.386 23.925C120.647 23.0197 120.375 21.7979 120.564 20.2485V20.254ZM125.572 23.6695C126.588 23.6695 127.521 22.9864 128.381 21.6258C129.242 20.2651 129.797 18.5879 130.041 16.5942C130.169 15.5723 130.086 14.7948 129.808 14.2672C129.525 13.7396 129.053 13.473 128.387 13.473C127.337 13.473 126.377 14.1395 125.505 15.4668C124.633 16.7941 124.078 18.4713 123.828 20.4873C123.701 21.5258 123.784 22.32 124.084 22.8531C124.384 23.3918 124.878 23.6584 125.572 23.6584V23.6695Z" fill="#0D9A88"/>
<path d="M147.603 11.9626L146.87 13.6842C146.764 13.6953 146.648 13.7009 146.52 13.7064C146.392 13.7064 146.209 13.712 145.959 13.712C145.632 13.712 145.304 13.6953 144.982 13.6675C144.66 13.6342 144.349 13.5898 144.044 13.5287C144.455 13.8564 144.749 14.234 144.915 14.6505C145.082 15.0671 145.132 15.5613 145.06 16.1333C144.938 17.1497 144.516 18.0327 143.799 18.7935C143.083 19.5544 142.062 20.1986 140.735 20.7206C140.418 20.8373 139.991 20.9983 139.447 21.1983C138.181 21.6537 137.537 21.9924 137.509 22.2146C137.47 22.5367 138.225 22.9865 139.769 23.5752C139.974 23.653 140.118 23.714 140.213 23.7474C141.801 24.3527 142.828 24.897 143.294 25.3801C143.761 25.8633 143.949 26.4686 143.86 27.1851C143.705 28.4568 142.783 29.5787 141.101 30.545C139.419 31.5113 137.481 32.0001 135.294 32.0001C133.7 32.0001 132.445 31.6891 131.529 31.0615C130.608 30.4339 130.208 29.6342 130.33 28.6679C130.419 27.957 130.791 27.3406 131.446 26.8185C132.101 26.2965 133.522 25.6023 135.71 24.7304C134.888 24.386 134.339 24.0917 134.05 23.8473C133.761 23.6085 133.639 23.3475 133.672 23.0587C133.733 22.5422 134.816 21.8702 136.92 21.0428C137.198 20.9372 137.42 20.8539 137.581 20.7873C137.553 20.7873 137.509 20.7873 137.448 20.7984C137.176 20.8262 136.976 20.8373 136.843 20.8373C135.943 20.8373 135.255 20.5263 134.777 19.9098C134.3 19.2934 134.122 18.4825 134.244 17.4773C134.433 15.9279 135.199 14.6061 136.548 13.5009C137.892 12.3958 139.424 11.8459 141.14 11.8459C141.701 11.8459 142.45 11.9126 143.4 12.0403C144.343 12.1681 145.015 12.2347 145.415 12.2347C145.726 12.2347 146.065 12.2125 146.426 12.1681C146.786 12.1236 147.181 12.0514 147.614 11.957L147.603 11.9626ZM136.77 25.2468C135.493 25.8689 134.627 26.3742 134.178 26.763C133.722 27.1517 133.473 27.5683 133.417 28.0126C133.345 28.6179 133.645 29.1399 134.316 29.5787C134.988 30.0174 135.865 30.2396 136.943 30.2396C138.02 30.2396 138.891 30.0285 139.613 29.612C140.335 29.1955 140.735 28.6679 140.812 28.0403C140.901 27.3295 139.918 26.552 137.87 25.7078C137.398 25.5134 137.026 25.3635 136.765 25.2524L136.77 25.2468ZM140.662 13.1066C139.863 13.1066 139.13 13.5676 138.475 14.4895C137.814 15.4114 137.403 16.5443 137.237 17.8994C137.148 18.6103 137.226 19.1545 137.47 19.5266C137.714 19.8987 138.12 20.0875 138.686 20.0875C139.541 20.0875 140.29 19.6543 140.946 18.7824C141.601 17.9105 142.012 16.7942 142.178 15.4336C142.273 14.6783 142.189 14.1007 141.928 13.7064C141.673 13.3121 141.245 13.1122 140.662 13.1122V13.1066Z" fill="#0D9A88"/>
<path d="M129.408 29.7675H106.4C104.135 29.7675 102.253 28.9233 101.104 27.385C99.8712 25.7411 99.5936 23.4919 100.31 21.0538L103.941 8.70814C103.741 8.58596 103.536 8.46933 103.336 8.34715C103.241 8.29161 103.152 8.22497 103.058 8.16943L99.3493 20.7762C97.7281 26.2965 100.882 30.7671 106.4 30.7671H129.847C129.63 30.4339 129.492 30.0952 129.414 29.7675H129.408Z" fill="#0D9A88"/>
<path d="M143.61 0H105.457L104.424 3.521C104.79 3.44325 105.157 3.37661 105.523 3.32107L106.206 1.00521H143.616C145.892 1.00521 147.78 1.85491 148.929 3.39327C150.162 5.04269 150.445 7.29747 149.729 9.74662L144.06 29.0288C143.977 29.2621 143.821 29.6008 143.555 29.9118C143.272 30.2117 142.955 30.5005 142.583 30.7782H144.588L150.689 10.0299C152.316 4.49288 149.151 0.00555363 143.616 0.00555363L143.61 0Z" fill="#0D9A88"/>
<path d="M107.311 2.50464L95.8457 4.44285L104.701 9.3356C104.868 8.76358 104.618 8.14712 104.096 7.85834L98.8383 4.95379L106.422 3.6709C106.978 3.57649 107.361 3.07666 107.316 2.51575V2.50464H107.311Z" fill="#0D9A88"/>
</g>
<defs>
<clipPath id="clip0_1118_27572">
<rect width="151.111" height="32" fill="white"/>
</clipPath>
</defs>
</svg>
