<svg width="48" height="48" viewBox="0 0 48 48" fill="none" xmlns="http://www.w3.org/2000/svg">
<circle cx="24" cy="24" r="24" fill="white"/>
<path fill-rule="evenodd" clip-rule="evenodd" d="M24.0001 25.1382C24.5452 24.1241 25.2422 23.1843 26.0792 22.3478C26.8278 21.5997 27.6589 20.9641 28.5519 20.4483C28.028 19.1429 27.2451 17.9539 26.235 16.9437L24.4972 15.206C24.2227 14.9313 23.7774 14.9313 23.5029 15.206L21.7651 16.9437C20.7547 17.954 19.9717 19.1429 19.4481 20.4481C20.3411 20.9639 21.1724 21.5995 21.9211 22.3478C22.7579 23.1843 23.455 24.1241 24.0001 25.1382ZM17.3925 17.2803L19.2882 17.7547C18.8528 18.4044 18.4842 19.0943 18.1867 19.8166C17.5458 19.5425 16.8811 19.3259 16.1981 19.1694L16.5394 17.7931C16.6332 17.4154 17.0166 17.1862 17.3925 17.2803ZM31.4607 17.7931L31.802 19.1694C31.119 19.3259 30.4544 19.5425 29.8135 19.8166C29.516 19.0943 29.1474 18.4044 28.7119 17.7547L30.6076 17.2803C30.9835 17.1862 31.367 17.4154 31.4607 17.7931ZM34.4938 20.2718H35.2969C35.6852 20.2718 36 20.5865 36 20.9749V23.2342C36 29.0379 31.3028 33.728 25.5062 33.728H22.4938C16.6972 33.728 12 29.0379 12 23.2342V20.9749C12 20.5865 12.3148 20.2718 12.7031 20.2718H13.5062C19.3026 20.2718 24 24.962 24 30.7655C24 24.962 28.6974 20.2718 34.4938 20.2718Z" fill="#6C41BF"/>
</svg>
