<svg width="54" height="54" viewBox="0 0 54 54" fill="none" xmlns="http://www.w3.org/2000/svg">
<rect width="54" height="54" rx="27" fill="#0D4EE3"/>
<path fill-rule="evenodd" clip-rule="evenodd" d="M20.5996 39.8009C20.5996 40.0954 20.8384 40.3343 21.133 40.3343H32.8663C33.1608 40.3343 33.3996 40.0955 33.3996 39.8009C33.3996 39.5063 33.1608 39.2676 32.8663 39.2676H21.133C20.8384 39.2676 20.5996 39.5063 20.5996 39.8009Z" fill="white"/>
<path d="M14.2035 21.6891C14.1974 21.9342 14.2759 22.174 14.4259 22.368L17.3992 26.1419V39.2667C17.4016 41.3275 19.0716 42.9976 21.1326 43H32.8659C34.9267 42.9976 36.5968 41.3276 36.5992 39.2667V26.1424L39.5758 22.3648C39.7241 22.1719 39.8013 21.9338 39.7944 21.6906C39.7944 21.6821 39.7992 21.6752 39.7992 21.6666C39.7992 21.6581 39.7955 21.6538 39.7955 21.6474C39.7788 21.3841 39.6663 21.1359 39.4792 20.9498L36.5992 18.1786V14.7333C36.5968 12.6724 34.9267 11.0024 32.8659 11H21.1326C19.0717 11.0024 17.4016 12.6724 17.3992 14.7333V18.1792L14.5117 20.9568C14.3271 21.1421 14.217 21.3889 14.2024 21.6502C14.2024 21.656 14.1992 21.6614 14.1992 21.6672C14.1992 21.6731 14.2035 21.6811 14.2035 21.6891ZM18.3022 18.7904L18.3139 18.7786L19.3539 17.7781L20.8451 21.1333H15.867L18.3022 18.7904ZM35.6808 18.7733C35.6879 18.7808 35.6953 18.788 35.7032 18.7946L38.1367 21.1333H33.1533L34.6466 17.7776L35.6808 18.7733ZM28.3325 34.8986L32.7128 22.2H38.3475L28.3325 34.8986ZM22.4125 22.2H31.5859L26.9992 35.4976L22.4125 22.2ZM32.1422 20.7786L28.3859 17.4H33.6425L32.1422 20.7786ZM30.9427 21.1333H23.0558L26.9992 17.584L30.9427 21.1333ZM21.8547 20.7786L20.3533 17.4H25.6125L21.8547 20.7786ZM21.2856 22.2L25.6718 34.9205L18.3277 25.6096C18.3192 25.5995 18.3128 25.5877 18.3032 25.5781L15.6392 22.2H21.2856ZM35.5325 39.2667C35.5307 40.7387 34.3379 41.9316 32.8659 41.9333H21.1326C19.6605 41.9315 18.4676 40.7387 18.4659 39.2667V27.496L26.1545 37.256C26.3567 37.5163 26.6676 37.6688 26.9973 37.6693C27.3269 37.6698 27.6383 37.5183 27.8414 37.2586L35.5326 27.496L35.5325 39.2667ZM32.0781 12.0667L31.7048 12.9963C31.5444 13.4018 31.1521 13.6678 30.716 13.6667H23.2824C22.8459 13.6682 22.4531 13.4022 22.2925 12.9963L21.9208 12.0667H32.0781ZM18.4659 14.7333C18.4701 13.3988 19.4619 12.2735 20.7854 12.1019L21.3017 13.392C21.6233 14.2039 22.4092 14.7361 23.2825 14.7333H30.716C31.5892 14.7362 32.375 14.2043 32.6968 13.3925L33.2131 12.1019C34.5366 12.2735 35.5284 13.3987 35.5326 14.7333V17.1525L34.8392 16.4832C34.7435 16.3906 34.6166 16.3371 34.4835 16.3334H19.5149C19.3827 16.3378 19.2569 16.3912 19.1619 16.4832L18.4659 17.1525V14.7333Z" fill="white"/>
</svg>
