<svg width="21" height="21" viewBox="0 0 21 21" fill="none" xmlns="http://www.w3.org/2000/svg">
<path d="M4.57235 5.44477L2.96161 3.83403C2.69316 3.56558 2.22336 3.56558 1.9549 3.90115C0.881078 5.31054 0.209937 6.92128 0.00859434 8.59914C-0.0585198 9.06893 0.277051 9.4045 0.679735 9.4045H2.8945C3.23007 9.4045 3.49853 9.20316 3.56564 8.86759C3.69987 7.92799 4.10255 7.05551 4.63947 6.25014C4.84081 5.98169 4.7737 5.64612 4.57235 5.44477Z" fill="#0A4586"/>
<path d="M9.40475 2.8945V0.679735C9.40475 0.277051 9.06918 -0.0585198 8.59938 0.00859434C6.85441 0.209937 5.24367 0.881078 3.90139 1.9549C3.56582 2.22336 3.56582 2.69316 3.83428 2.96161L5.44502 4.57235C5.64636 4.7737 6.04904 4.84081 6.3175 4.63947C7.12287 4.10255 7.99535 3.69987 8.93495 3.56564C9.20341 3.49853 9.40475 3.23007 9.40475 2.8945Z" fill="#0A4586"/>
<path d="M16.1161 1.9549C14.7068 0.881078 13.096 0.209937 11.4182 0.00859434C11.0155 -0.0585198 10.6128 0.277051 10.6128 0.679735V2.8945C10.6128 3.23007 10.8141 3.49853 11.1497 3.56564C12.0893 3.69987 12.9618 4.10255 13.7672 4.63947C14.0356 4.84081 14.3712 4.7737 14.6396 4.57235L16.2504 2.96161C16.4517 2.69316 16.4517 2.22336 16.1161 1.9549Z" fill="#0A4586"/>
<path d="M2.8945 10.6125H0.679735C0.277051 10.6125 -0.0585198 10.9481 0.00859434 11.4179C0.209937 13.1629 0.881078 14.7736 1.9549 16.1159C2.22336 16.4515 2.69316 16.5186 2.96161 16.183L4.57235 14.5723C4.7737 14.3709 4.84081 13.9683 4.63947 13.6998C4.10255 12.8944 3.69987 12.0219 3.56564 11.0823C3.49853 10.8139 3.23007 10.6125 2.8945 10.6125Z" fill="#0A4586"/>
<path d="M17.1229 9.40462H19.3376C19.7403 9.40462 20.0759 9.06905 20.0088 8.59925C19.8074 6.85428 19.1363 5.24354 18.0625 3.90126C17.794 3.56569 17.3242 3.49858 17.0558 3.83415L15.445 5.44488C15.2437 5.64623 15.1766 6.04891 15.3779 6.31737C15.9148 7.12274 16.3175 7.99522 16.4517 8.93482C16.5189 9.20327 16.7873 9.40462 17.1229 9.40462Z" fill="#0A4586"/>
<path d="M3.90103 18.0622C5.31043 19.1361 6.92116 19.8072 8.59902 20.0085C9.0017 20.0757 9.40439 19.7401 9.40439 19.3374V17.1226C9.40439 16.7871 9.20304 16.5186 8.86747 16.4515C7.92788 16.3173 7.05539 15.9146 6.25002 15.3777C5.98157 15.1763 5.646 15.2434 5.37754 15.4448L3.7668 17.0555C3.56546 17.324 3.56546 17.7938 3.90103 18.0622Z" fill="#0A4586"/>
<path d="M15.445 14.5723L17.0558 16.183C17.3242 16.4515 17.794 16.4515 18.0625 16.1159C19.1363 14.7065 19.8074 13.0958 20.0088 11.4179C20.0759 11.0152 19.7403 10.6125 19.3376 10.6125H17.1229C16.7873 10.6125 16.5189 10.8139 16.4517 11.1495C16.3175 12.0891 15.9148 12.9615 15.3779 13.7669C15.1766 14.0354 15.2437 14.3709 15.445 14.5723Z" fill="#0A4586"/>
<path d="M10.6128 17.1226V19.3374C10.6128 19.7401 10.9484 20.0757 11.4182 20.0085C13.1631 19.8072 14.7739 19.1361 16.1161 18.0622C16.4517 17.7938 16.5188 17.324 16.1833 17.0555L14.5725 15.4448C14.3712 15.2434 13.9685 15.1763 13.7 15.3777C12.8947 15.9146 12.0222 16.3173 11.0826 16.4515C10.8141 16.5186 10.6128 16.7871 10.6128 17.1226Z" fill="#0A4586"/>
<path d="M10.0088 10.6126C10.3424 10.6126 10.6128 10.3422 10.6128 10.0086C10.6128 9.67497 10.3424 9.40454 10.0088 9.40454C9.67522 9.40454 9.40479 9.67497 9.40479 10.0086C9.40479 10.3422 9.67522 10.6126 10.0088 10.6126Z" fill="#FF3333"/>
<path d="M13.7671 6.25022C11.6866 4.16968 8.33088 4.16968 6.25034 6.25022C4.16981 8.33076 4.16981 11.6865 6.25034 13.767C8.33088 15.8475 11.6866 15.8475 13.7671 13.767C15.8477 11.6865 15.8477 8.33076 13.7671 6.25022ZM12.9618 10.6126H11.6866C11.4852 11.1496 11.0826 11.4851 10.6128 11.6865V12.9616H9.40471V11.6865C8.86779 11.4851 8.53222 11.0824 8.33088 10.6126H7.05571V9.40458H8.33088C8.53222 8.86767 8.93491 8.5321 9.40471 8.33076V7.05559H10.6128V8.33076C11.1497 8.5321 11.4852 8.93479 11.6866 9.40458H12.9618V10.6126Z" fill="#FF3333"/>
</svg>
