<svg width="17" height="17" viewBox="0 0 17 17" fill="none" xmlns="http://www.w3.org/2000/svg">
<g clip-path="url(#clip0_387_37297)">
<path d="M2.23177 9.83333H8.23177V16.5H2.23177V9.83333ZM9.5651 16.5H15.5651V9.83333H9.5651V16.5ZM16.8984 7.16667V8.5H9.5651V6.46867C9.34777 6.488 9.12644 6.5 8.89844 6.5C8.67044 6.5 8.4491 6.488 8.23177 6.46867V8.5H0.898438V7.16667C0.898438 6.63623 1.10915 6.12753 1.48422 5.75245C1.8593 5.37738 2.368 5.16667 2.89844 5.16667H4.98777C4.52571 4.74539 4.15955 4.22974 3.9141 3.65464C3.66865 3.07955 3.54963 2.45843 3.5651 1.83333H4.89844C4.89844 3.754 6.21244 4.70467 7.66644 5.03333C7.22985 4.25453 6.9678 3.39013 6.89844 2.5C6.89844 1.96957 7.10915 1.46086 7.48422 1.08579C7.8593 0.710714 8.368 0.5 8.89844 0.5C9.42887 0.5 9.93758 0.710714 10.3127 1.08579C10.6877 1.46086 10.8984 1.96957 10.8984 2.5C10.8291 3.39013 10.567 4.25453 10.1304 5.03333C11.5844 4.70467 12.8984 3.754 12.8984 1.83333H14.2318C14.2472 2.45843 14.1282 3.07955 13.8828 3.65464C13.6373 4.22974 13.2712 4.74539 12.8091 5.16667H14.8984C15.4289 5.16667 15.9376 5.37738 16.3127 5.75245C16.6877 6.12753 16.8984 6.63623 16.8984 7.16667ZM8.23177 2.5C8.31225 3.20855 8.53928 3.89261 8.89844 4.50867C9.25759 3.89261 9.48463 3.20855 9.5651 2.5C9.5651 2.32319 9.49487 2.15362 9.36984 2.0286C9.24482 1.90357 9.07525 1.83333 8.89844 1.83333C8.72163 1.83333 8.55206 1.90357 8.42703 2.0286C8.30201 2.15362 8.23177 2.32319 8.23177 2.5Z" fill="#011955"/>
</g>
<defs>
<clipPath id="clip0_387_37297">
<rect width="16" height="16" fill="white" transform="translate(0.898438 0.5)"/>
</clipPath>
</defs>
</svg>
