<svg width="18" height="19" viewBox="0 0 18 19" fill="none" xmlns="http://www.w3.org/2000/svg">
<path fill-rule="evenodd" clip-rule="evenodd" d="M12.75 8V12.5H13.3636C14.4244 12.5 15 11.9244 15 10.8636V5.13636C15 4.07563 14.4244 3.5 13.3636 3.5H7.63636C6.57563 3.5 6 4.07563 6 5.13636V5.75H10.5C11.7426 5.75 12.75 6.75736 12.75 8ZM4.5 11.75V7.25H3.88636C2.82563 7.25 2.25 7.82563 2.25 8.88636V14.6136C2.25 15.6744 2.82563 16.25 3.88636 16.25H9.61364C10.6744 16.25 11.25 15.6744 11.25 14.6136V14H6.75C5.50736 14 4.5 12.9926 4.5 11.75Z" fill="#3800D8"/>
<path opacity="0.3" fill-rule="evenodd" clip-rule="evenodd" d="M6.95455 7.25H10.2955C10.9142 7.25 11.25 7.58579 11.25 8.20455V11.5455C11.25 12.1642 10.9142 12.5 10.2955 12.5H6.95455C6.33579 12.5 6 12.1642 6 11.5455V8.20455C6 7.58579 6.33579 7.25 6.95455 7.25Z" fill="#3800D8"/>
</svg>
