<svg width="36" height="36" viewBox="0 0 36 36" fill="none" xmlns="http://www.w3.org/2000/svg">
<path d="M29.2887 10.9221C28.9861 10.623 28.5334 10.5348 28.1407 10.6988C27.7479 10.8627 27.4922 11.2464 27.4922 11.6719V14.8359H24.3281C23.2394 14.8359 22.1704 15.0244 21.1641 15.3814V8.4375H24.3281C24.7549 8.4375 25.1395 8.18069 25.3026 7.78656C25.4666 7.39105 25.3746 6.93759 25.0741 6.63712L18.746 0.30899C18.334 -0.102997 17.6663 -0.102997 17.2543 0.30899L10.9262 6.63712C10.6257 6.93732 10.5337 7.39078 10.6974 7.78656C10.8608 8.18069 11.2453 8.4375 11.6719 8.4375H14.8359V15.3787C13.8458 15.0276 12.7809 14.8359 11.6719 14.8359H8.4375V11.6719C8.4375 11.2453 8.18042 10.8608 7.78656 10.6977C7.39215 10.5342 6.93869 10.6246 6.63712 10.9262L0.30899 17.2543C-0.102997 17.6663 -0.102997 18.334 0.30899 18.746L6.63712 25.0741C6.93869 25.3757 7.39243 25.466 7.78656 25.3026C8.18042 25.1395 8.4375 24.7547 8.4375 24.3281V21.1641H11.6719C13.4168 21.1641 14.8359 22.5835 14.8359 24.3281V34.9453C14.8359 35.5279 15.3083 36 15.8906 36H20.1094C20.6919 36 21.1641 35.5279 21.1641 34.9453V24.3281C21.1641 22.5835 22.5835 21.1641 24.3281 21.1641H27.4922V24.3281C27.4922 24.7538 27.7479 25.1375 28.1407 25.3015C28.5334 25.4655 28.9861 25.3773 29.2887 25.0782L35.6872 18.7501C35.8874 18.5518 36 18.2818 36 18C36 17.7185 35.8874 17.4482 35.6872 17.2502L29.2887 10.9221ZM14.2182 6.32812L18 2.54636L21.782 6.32812C19.7034 6.32812 16.6476 6.32812 14.2182 6.32812ZM16.9453 8.4375H19.0547V16.4408C18.6861 16.6874 18.3334 16.9604 18 17.259C17.6688 16.9618 17.3161 16.6882 16.9453 16.4397V8.4375ZM19.0547 33.8906H16.9453V24.3281C16.9453 21.4203 14.5797 19.0547 11.6719 19.0547H7.38281C6.80054 19.0547 6.32812 19.5271 6.32812 20.1094V21.782L2.54636 18L6.32812 14.2182V15.8906C6.32812 16.4732 6.80054 16.9453 7.38281 16.9453H11.6719C15.7489 16.9453 19.0547 20.2632 19.0547 24.3281V33.8906ZM29.6016 21.8018V20.1094C29.6016 19.5271 29.1294 19.0547 28.5469 19.0547H24.3281C22.8024 19.0547 21.4258 19.7062 20.462 20.7452C20.1835 20.0643 19.8279 19.4225 19.4062 18.8308C20.7545 17.6237 22.5055 16.9453 24.3281 16.9453H28.5469C29.1294 16.9453 29.6016 16.4732 29.6016 15.8906V14.1985L33.4457 18L29.6016 21.8018Z" fill="#F4BBB3"/>
</svg>
