<svg width="224" height="89" viewBox="0 0 224 89" fill="none" xmlns="http://www.w3.org/2000/svg">
<g style="mix-blend-mode:multiply">
<path d="M254.859 30.8099C255.212 28.3401 262.385 26.8506 260.947 25.2419C260.446 24.6829 259.935 24.1471 259.24 23.8607C259.262 22.8534 256.835 23.0191 253.935 23.6127C254.113 22.9817 253.729 22.5658 251.901 22.6935C250.718 23.263 250.126 23.5478 249.725 24.0602C249.352 24.4077 249.063 24.6816 248.846 24.9446C247.726 25.296 246.717 25.6393 245.934 25.9267C246.225 23.4446 253.297 21.8051 251.834 20.2264C251.205 19.5474 250.577 18.8685 249.578 18.7278L246.714 21.2066C238.094 23.9702 249.12 17.306 242.781 17.892C241.611 18.4943 241.026 18.7954 240.665 19.3105C238.385 21.4882 239.375 21.652 241.38 21.9496C233.858 25.504 234.242 19.3744 230.403 20.6657C230.322 20.4694 230.868 20.261 231.303 20.0607C231.107 19.9121 231.774 19.5769 231.893 19.6806C231.918 19.5552 232.022 19.4352 232.365 19.2922C232.863 19.3346 232.255 19.6261 232.272 19.7147C232.504 19.5798 233.038 19.4341 233.073 19.2856C232.486 19.4912 233.473 19.0035 232.908 19.0279C232.711 19.1096 232.89 19.1697 232.625 19.3182C232.476 19.1886 232.605 19.0387 232.83 18.8875C233.194 18.7935 233.343 19.058 233.435 19.0962C233.614 18.9258 234.124 18.9055 234.297 18.5839C233.933 18.9082 233.178 19.0307 233.318 18.7227C233.681 18.5333 233.55 18.8181 233.697 18.7568C233.85 18.6165 234.456 18.2295 234.415 18.5921C234.774 18.3468 234.668 18.2759 234.41 18.2104C234.838 17.9938 234.873 18.171 234.728 18.3277C234.953 18.1765 234.958 18.3278 235.154 18.246C235.273 18.0239 234.856 18.0824 234.939 17.9134C235.135 17.8316 235.199 17.9393 235.318 17.9475C235.625 17.7622 235.685 17.5837 236.143 17.393C236.511 17.5853 236.725 17.1314 237.22 17.2133C237.139 17.1124 236.969 17.1642 237.21 17.0061C237.406 16.9244 237.393 17.122 237.589 17.0403C237.509 16.9394 237.451 16.8481 237.641 16.75C237.654 16.7827 237.678 16.7922 237.759 16.7582C237.787 16.8236 237.551 16.9026 237.657 16.9735C238.727 16.3168 238.959 16.1819 239.867 16.1494C239.9 15.9054 240.46 15.7297 240.765 15.6793C240.606 15.573 240.818 15.4844 240.817 15.389C240.403 15.6383 240.524 15.3767 240.5 15.2717C240.136 15.3657 240.016 15.4924 239.628 15.5768C239.739 15.7036 239.372 15.8371 239.268 15.957C239.146 15.8929 238.945 15.9188 238.771 15.9147C238.802 16.036 238.192 16.3671 238.089 16.3521C238.107 16.2103 238.776 16.066 238.524 15.9214C238.163 16.2062 238.095 16.0426 238.355 15.8382C237.161 16.3355 237.227 16.3082 236.253 16.8287C236.147 16.7578 236.368 16.5507 236.186 16.5302C236.181 16.8396 235.388 16.8244 234.946 17.0083C235.077 16.9538 235.289 16.8653 235.279 16.793C235.077 16.7235 235.024 16.9184 234.838 16.842C234.979 16.7643 234.804 16.7602 234.69 16.8079C234.62 17.0096 234.716 17.0083 234.675 17.1405C233.857 17.481 232.57 17.9401 232.033 17.6646C232.49 17.6089 232.715 17.2272 233.273 17.1865C233.177 17.0924 233.38 17.027 233.227 16.937C232.618 17.1332 232.248 17.3062 231.56 17.4969C231.631 17.3906 231.594 17.3483 231.391 17.4137C231.411 17.4628 231.439 17.5282 231.268 17.5799C231.339 17.4736 231.302 17.4314 231.099 17.4968C231.199 17.5513 230.758 17.8306 230.668 17.7529C231.188 17.4791 230.585 17.4612 230.921 17.2064C231.356 17.0061 231.308 17.3523 231.48 17.1656C231.335 17.1874 231.467 16.998 231.192 17.0742C231.326 16.9802 231.585 16.6804 231.796 16.7268C231.657 16.8999 231.898 16.9722 232.134 16.8932C231.827 16.8481 231.894 16.6859 231.919 16.5605C232.344 16.3834 232.833 16.0837 233.007 16.2227C232.906 16.3031 232.884 16.389 232.941 16.4803C233.305 16.3864 232.906 16.3031 233.141 16.2241C233.272 16.1696 233.485 16.0811 233.474 16.0088C233.221 15.9992 233.122 16.2705 232.972 16.1409C233.306 16.0211 233.282 15.9161 233.576 15.7935C233.631 15.9244 233.86 15.829 233.914 15.9599C233.629 16.0593 233.907 16.1739 233.924 16.1671C233.857 16.0989 234.551 15.8292 234.124 15.9109C234.145 15.9599 234.004 16.0376 233.944 15.9858C234.092 15.9245 233.923 15.8413 234.047 15.7704C234.214 15.7582 234.453 15.6397 234.585 15.6806C234.619 15.7624 234.337 15.8223 234.364 15.8877C234.671 15.9328 234.993 15.1845 235.313 15.4927C235.196 15.5799 234.809 15.6643 234.882 15.7488C235.264 15.7435 235.53 15.46 235.97 15.411C235.88 15.3333 235.902 15.2475 236.035 15.1534C236.106 15.2775 236.513 15.1467 236.635 14.9805C236.882 14.9737 236.648 15.1481 236.861 15.155C236.84 15.0105 237.354 14.8157 237.333 14.7666C237.219 14.8143 237.104 14.862 237.103 14.7666C237.209 14.6071 237.362 14.6971 237.652 14.5186C237.617 14.3414 237.216 14.6235 237.093 14.5594C237.64 14.351 237.098 14.3849 237.098 14.3849C237.219 14.1232 237.641 14.216 237.755 14.3033C237.549 14.1778 237.847 13.8808 237.441 14.0115C237.425 14.2487 237.054 14.0959 236.851 14.3917C236.81 14.2935 236.734 14.2485 236.563 14.3003C236.391 14.487 236.834 14.3985 236.511 14.5906C235.706 14.8685 236.026 14.2552 236.629 14.0427C236.349 14.0631 236.396 14.0822 236.049 14.2647C236.259 13.9853 235.812 14.2483 235.67 14.2306C235.835 14.0275 236.619 13.8355 236.593 13.6351C236.004 13.8803 235.492 14.1705 235.187 14.2209C235.257 14.1146 235.351 14.0178 235.492 13.9402C235.492 13.9402 235.499 13.9565 235.506 13.9729C236.389 13.6051 237.384 13.2291 238.435 12.8491C238.419 12.8559 238.393 12.8859 238.383 12.909C238.498 12.8613 238.612 12.8137 238.614 12.9091C238.829 12.781 239.024 12.6038 239.115 12.777C238.63 12.9023 239.283 12.7647 239.243 12.9924C239.374 12.9379 239.587 12.8493 239.576 12.7771C239.003 13.0155 240.035 12.4514 239.566 12.5699C239.598 12.6912 239.213 12.7361 239.238 12.6107C239.729 12.4064 239.944 12.5086 240.376 12.3479C240.326 12.2729 240.387 12.1898 240.488 12.1094C241.074 11.9037 241.644 11.7048 242.221 11.5223C242.253 11.5087 242.302 11.4883 242.319 11.4814C243.229 11.1791 244.124 10.8835 244.952 10.6151C244.858 10.7119 244.702 10.7964 244.775 10.8809C244.974 10.7596 245.108 10.6656 245.195 10.5525C245.503 10.4626 245.821 10.3496 246.112 10.2665C246.615 9.99943 247.046 9.74328 247.461 9.49393C247.495 9.57573 247.571 9.62072 247.673 9.63574C247.788 9.58806 247.935 9.52676 247.924 9.45451C247.728 9.53625 247.638 9.45854 247.503 9.45714C248.133 9.07972 248.681 8.73635 249.108 8.42431C249.108 8.42431 249.14 8.41068 249.157 8.40387C249.15 8.38751 249.176 8.35753 249.192 8.35072C249.267 8.30031 249.358 8.24308 249.427 8.1763C249.459 8.16268 249.476 8.15587 249.485 8.1327C250.449 7.40505 250.883 6.879 250.91 6.48372C250.992 6.44966 251.074 6.41561 251.188 6.36793C251.161 6.30249 251.301 6.22484 251.29 6.15259C251.14 6.25342 251.033 6.31746 250.918 6.36514C250.873 5.98074 250.413 5.75028 249.664 5.65878C250.479 5.35773 251.289 4.90539 252.004 4.68474C252.084 4.78562 252.254 4.73386 252.132 4.90013C252.404 4.63303 252.884 4.35644 253.301 4.29792C253.214 4.18068 253.453 4.06215 253.675 3.95043C253.702 4.01587 253.588 4.06354 253.671 4.1249C253.802 4.07041 253.853 4.01045 253.922 3.94367C253.942 3.99275 253.883 4.03636 253.881 4.07588C254.108 3.88511 254.412 3.96969 254.423 3.81158C254.302 3.8429 254.197 3.8674 254.095 3.85239C254.275 3.77746 254.264 3.70522 254.427 3.6371C254.404 3.85791 254.739 3.6031 254.745 3.7544C254.994 3.47775 255.135 3.4001 255.643 3.28436C255.553 3.20664 255.575 3.12076 255.709 3.02674C255.585 3.32795 256.464 2.90425 256.58 2.72163C256.607 2.78706 256.588 2.8334 256.576 2.8961C257.154 2.57864 257.759 2.32661 258.304 2.25314C258.124 2.0977 258.815 1.86751 259.068 1.78169C259.055 1.84439 259.034 1.93025 258.965 1.99703C259.042 1.81167 258.492 2.05963 258.575 2.12099C259.078 1.85394 258.99 2.10199 259.171 2.12248C259.308 1.75857 259.43 1.82267 259.095 1.61677C258.824 1.74892 258.07 2.1972 258.126 1.96276C258.262 2.05957 258.222 1.82648 258.377 1.78153C258.792 1.6276 258.746 1.60851 259.129 1.4682C259.046 1.40684 259.203 1.32236 259.231 1.25285C259.051 1.32778 259.072 1.1465 258.866 1.25141C259.008 1.49952 258.009 1.58925 257.672 1.97901C257.784 2.20121 256.413 2.82927 255.96 2.84552C256.348 2.62615 256.6 2.54034 256.76 2.41634C256.613 2.47764 256.624 2.31953 256.493 2.37403C256.362 2.42852 255.875 2.68874 256.021 2.76238C255.77 2.71325 255.54 2.94356 255.323 2.97622C255.525 3.04579 255.163 3.33059 255.041 3.2665C255.106 3.23925 255.221 3.19157 255.2 3.14249C254.061 3.30988 253.139 4.23109 252.113 4.25539C251.911 4.41618 252.332 4.41356 252.159 4.50485C251.589 4.47337 250.888 5.18744 250.102 5.18862C250.122 5.23769 250.189 5.30587 250.098 5.36309C249.989 5.33172 249.655 5.45159 249.423 5.58648C249.225 5.5728 249.021 5.54277 248.791 5.54272C249.118 5.40649 249.497 5.44065 249.662 5.23759C249.558 5.12716 248.956 5.33966 248.751 5.53998C245.666 5.46157 240.104 6.53027 237.436 7.31477C237.458 7.22891 237.496 7.13623 237.534 7.04355C237.688 6.9986 237.849 6.97001 238.003 6.92507C237.981 6.78058 237.698 6.97543 237.556 6.95768C237.575 6.91134 237.594 6.86499 237.62 6.83501C237.767 6.77371 237.914 6.71241 238.055 6.63475C238.096 6.7329 238.172 6.77789 238.342 6.72614C238.018 6.36212 239.931 5.93048 240.229 5.40304C240.224 5.4821 240.162 5.56524 240.164 5.66065C240.337 5.56937 240.38 5.62798 240.492 5.61983C240.678 5.46585 240.241 5.57071 240.483 5.41265C240.869 5.23281 240.712 5.31728 240.631 5.44676C241.031 5.29964 240.667 5.16325 241.066 5.01613C241.172 5.31739 241.537 4.76271 241.723 4.9345C241.838 4.65646 242.181 4.74377 242.544 4.55439C242.577 4.31041 242.053 4.75874 242.005 4.64423C242.136 4.58974 242.037 4.53519 242.128 4.47796C241.95 4.41794 241.83 4.31433 241.58 4.36062C241.752 4.63463 241.272 4.45051 241.088 4.6999C241.133 4.62358 241.103 4.59768 241.047 4.60176C242.852 3.77343 244.521 3.07866 243.804 2.18704C243.79 2.15433 243.76 2.12842 243.73 2.10252C243.835 2.07801 243.94 2.0535 244.036 2.05216C243.981 1.92129 243.822 2.04528 243.928 1.88583C243.846 1.91989 243.741 1.9444 243.613 1.95937C243.57 1.90075 243.519 1.82576 243.459 1.77395C243.609 1.67312 243.71 1.59272 243.669 1.49457C243.578 1.5518 243.486 1.60903 243.379 1.67307C243.108 1.3445 242.801 1.0691 242.452 0.83048C242.531 0.835951 242.61 0.841421 242.673 0.853703C242.823 0.752871 243.035 0.664323 243.083 0.548473C242.772 0.677892 242.639 0.541552 242.286 0.707763C242.11 0.608219 241.908 0.538651 241.69 0.475899C242.56 0.0753612 243.487 -0.464196 244.222 -0.63577C244.025 -0.554032 244.075 -0.804824 243.904 -0.753067C243.675 -0.427348 243.187 -0.262529 242.775 -0.283072C242.271 0.118915 241.21 0.522133 240.626 0.823234C240.442 0.611915 239.577 0.933395 239.601 0.712584C239.332 0.80521 238.905 1.11725 238.75 1.06679C239.005 0.941443 238.934 0.817383 239.11 0.68657C238.867 0.749214 238.65 0.781878 238.314 0.941278C238.266 0.826769 238.4 0.732751 238.108 0.815829C237.385 1.15506 236.592 1.6006 235.712 1.69854C235.815 1.57861 235.919 1.45868 236.016 1.3224C236.228 1.23385 236.441 1.14531 236.568 1.03493C236.157 1.1098 237.009 0.851016 236.88 0.770564C236.618 0.879549 236.502 0.601456 236.701 0.48019C236.928 0.424357 237.086 0.4353 237.138 0.605695C237.367 0.510334 237.598 0.375441 237.511 0.258197C237.028 0.574316 237.269 0.0904814 237.095 0.181766C237.09 0.260823 237.012 0.35077 236.895 0.437979C236.845 0.362998 236.756 0.380702 236.69 0.407948C236.79 0.232136 236.857 0.0699385 236.875 -0.0718162C237.053 -0.242158 237.248 -0.419304 237.47 -0.531023C237.436 -0.612815 237.36 -0.657812 237.265 -0.656472C238.051 -1.11837 238.802 -1.75748 239.346 -1.69601C239.637 -1.87451 240.236 -2.04747 240.32 -2.21647C239.979 -2.11296 239.841 -2.30519 239.633 -2.16075C239.916 -2.3556 240.081 -2.55866 240.207 -2.76445C240.376 -2.68126 240.877 -3.04372 241.114 -3.02731C241.244 -2.94686 240.673 -2.8434 240.802 -2.76295C241.925 -2.92353 243.488 -3.91957 244.581 -4.10605C244.462 -3.8839 243.706 -3.85681 243.719 -3.59373C244.136 -3.65225 244.56 -3.92477 245.115 -4.02141C245.282 -3.8987 245.089 -3.76107 244.755 -3.6412C244.597 -3.8825 243.445 -3.1917 243.669 -3.66872C243.291 -3.37711 242.772 -3.10325 242.36 -3.12379C242.194 -3.01615 242.386 -2.92342 242.078 -2.83353C241.995 -2.89489 242.152 -2.97936 242.18 -3.04887C241.795 -2.63868 240.003 -2.008 239.484 -1.50379C239.417 -1.57196 239.341 -1.61695 239.196 -1.59518C239.195 -1.46023 238.956 -1.3417 238.971 -1.21357C239.288 -1.42205 239.316 -1.2612 239.51 -1.30341C239.499 -1.37566 239.876 -1.66726 240.039 -1.60043C240.129 -1.52272 239.804 -1.42601 239.838 -1.34422C239.92 -1.37828 240.018 -1.41914 240.048 -1.39324C239.983 -1.36599 239.868 -1.31831 239.889 -1.26924C240.314 -1.44634 240.659 -1.95468 241.058 -1.87144C240.685 -1.75431 240.963 -1.63975 240.797 -1.53211C240.321 -1.42999 239.725 -0.970769 239.565 -0.846767C240.127 -1.15741 240.184 -0.83572 240.581 -0.943309C240.272 -0.718476 240.337 -0.976078 240.063 -0.804396C240.139 -0.529039 240.468 -0.569855 240.78 -0.603858C240.511 -0.511233 240.657 -0.43759 240.579 -0.347646C240.868 -0.391197 241.335 -0.700502 241.175 -0.346142C241.453 -0.461937 241.861 -0.727641 241.971 -0.60085C241.849 -0.434585 241.193 -0.257539 241.34 -0.0884845C242.626 -1.33403 243.974 -0.494069 245.278 -1.55559C245.285 -1.30888 245.605 -1.46146 245.813 -1.47095C245.75 -1.25288 245.582 -1.01029 245.408 -0.784062C245.177 -0.784116 245.179 -0.688702 244.956 -0.576982C244.651 -0.52662 244.881 -0.756924 244.577 -0.611147C244.611 -0.529355 244.688 -0.484356 244.783 -0.485697C244.378 -0.259522 244.211 -0.247295 243.543 -0.00755129C243.48 0.210525 243.218 0.319509 243.45 0.414978C244.037 0.0743492 244.384 0.122141 244.854 -0.361637C244.682 -0.174938 245.405 -0.053466 245.45 -0.360145C245.303 -0.298842 245.12 -0.184377 245.06 -0.236188C245.033 -0.301621 244.926 -0.372532 245.05 -0.443383C245.457 -0.574142 245.604 -0.865808 245.748 -0.657225C245.597 -0.651808 245.368 -0.556445 245.416 -0.441936C245.743 -0.578166 245.45 -0.360135 245.781 -0.440479C245.939 -0.659895 246.655 -1.01549 246.971 -0.99361C246.991 -0.944535 247.012 -0.895456 247.042 -0.869551C246.583 -0.774244 246.557 -0.283548 246.632 -0.564322C247.376 -0.759066 247.467 -1.27701 247.488 -1.45829C247.736 -1.59999 247.67 -1.34239 247.867 -1.42413C247.778 -1.63679 248.246 -1.85068 248.411 -2.05374C248.277 -1.95972 248.006 -2.05793 248.205 -2.1792C248.821 -2.35898 249.879 -2.95302 250.415 -3.00332C250.383 -2.89429 250.181 -2.73349 250.522 -2.83701C250.376 -3.141 251.344 -3.12169 251.496 -3.35747C251.477 -3.54149 251.089 -3.22671 251.08 -3.4339C251.568 -3.59871 251.286 -3.76917 251.576 -3.94766C252.046 -3.97073 253.207 -4.54976 253.526 -4.79776C253.284 -4.87006 253.046 -4.52117 252.807 -4.63299C252.914 -4.79245 252.757 -4.93834 252.863 -5.09779C253.064 -5.12364 253.497 -5.41933 253.627 -5.56923C253.253 -5.4521 253.095 -5.46304 253.421 -5.69468C252.615 -5.4168 252.265 -5.05976 251.417 -4.74509C251.451 -4.6633 251.445 -4.58425 251.351 -4.48749C251.252 -4.54204 250.917 -4.28722 250.85 -4.35539C250.782 -4.51897 251.372 -4.66877 251.271 -4.81874C250.986 -4.7193 250.257 -4.16606 250.204 -4.43187C250.04 -4.36376 249.893 -4.30245 249.736 -4.21798C249.964 -3.94804 248.656 -3.53806 248.865 -3.91285C248.41 -3.76166 247.787 -3.36788 247.629 -3.60918C248.252 -3.7726 248.673 -4.00559 249.07 -4.34354C248.89 -4.26861 248.826 -4.37631 248.568 -4.21143C248.697 -4.13098 248.429 -4.03835 248.368 -3.95522C248.278 -4.03294 247.945 -3.81766 247.829 -3.86539C247.817 -4.03305 247.595 -3.92133 247.512 -3.98269C247.859 -4.30021 248.444 -4.37095 248.85 -4.5017C248.792 -4.68846 248.31 -4.27693 248.193 -4.42007C248.159 -4.50187 248.441 -4.56178 248.414 -4.62721C248.259 -4.67768 247.78 -4.30568 247.618 -4.3725C247.803 -4.52649 248.219 -4.68041 248.151 -4.84399C248.492 -4.94751 248.804 -4.98151 249.116 -5.01552C248.835 -5.09055 249.453 -5.40527 249.393 -5.68744C249.043 -5.3304 248.523 -4.82618 247.952 -4.95308C247.528 -4.68057 246.806 -4.34134 246.433 -4.35914C246.635 -4.51994 246.804 -4.66711 246.855 -4.82249C246.551 -4.90707 246.219 -4.36601 245.845 -4.34429C245.959 -4.39197 246.05 -4.4492 245.967 -4.51056C245.689 -4.39476 245.697 -4.28299 245.594 -4.16306C245.407 -4.10449 245.005 -4.14821 245.219 -4.3717C246.451 -4.73126 247.384 -5.34987 248.706 -5.63172C248.034 -5.2175 247.07 -5.18093 246.896 -4.72434C247.26 -5.04867 247.565 -4.86867 247.696 -5.15352C248.132 -5.25837 248.312 -5.10294 248.624 -5.3673C248.317 -5.18199 248.462 -5.43413 248.553 -5.49136C248.878 -5.58806 248.852 -5.55808 249.251 -5.7052C249.182 -5.9642 250.073 -6.22024 249.948 -6.47517C249.204 -5.81971 248.067 -5.69184 247.213 -5.52847C247.002 -5.34451 247.485 -5.43027 247.26 -5.27902C247.122 -5.24089 246.987 -5.24228 246.894 -5.28047C247.028 -5.60485 246.744 -5.40999 246.371 -5.52322C246.837 -5.83252 246.796 -5.46996 247.14 -5.613C247.355 -5.74108 247.594 -6.08997 247.791 -6.07629C247.819 -6.01086 247.648 -5.95911 247.669 -5.91003C247.823 -5.95498 247.935 -5.96312 248.095 -5.99171C248.005 -6.06942 248.027 -6.15529 248.161 -6.24931C248.354 -6.06116 248.661 -6.01611 249.135 -6.21364C249.118 -6.30224 248.924 -6.26004 249.065 -6.3377C249.442 -6.39895 249.959 -6.63328 250.301 -6.64138C250.387 -6.84991 250.726 -6.81848 250.983 -7.07876C251.071 -6.8661 251.796 -7.47522 251.911 -7.29255C251.897 -7.32526 251.956 -7.36887 252.07 -7.41655C251.936 -7.87866 250.754 -6.9834 250.357 -7.10617C250.88 -7.32413 250.636 -7.35691 250.361 -7.28064C250.956 -7.83527 252.061 -7.62374 251.971 -7.93181C252.216 -8.03398 252.95 -8.07061 252.781 -8.1538C252.319 -8.01896 252.685 -8.15246 252.555 -8.32832C252.399 -8.37879 252.036 -7.95906 251.802 -8.015C251.775 -8.08043 252.445 -8.3597 252.114 -8.27935C251.726 -8.05999 251.738 -8.12269 251.524 -7.8992C251.356 -7.88697 251.276 -7.98786 251.108 -7.97563C250.975 -7.88161 251.269 -7.77386 250.945 -7.67716C250.534 -8.063 249.486 -7.26176 248.841 -7.24283C250.052 -7.97724 251.336 -8.39676 252.232 -8.82728C252.133 -8.78641 252.067 -8.85458 252.191 -8.92543C252.289 -8.9663 252.371 -9.00036 252.469 -9.04123C252.51 -8.94308 252.593 -8.88172 252.695 -8.8667C252.991 -9.12425 253.138 -8.9552 253.505 -9.0887C254.137 -9.50565 255.967 -10.229 256.613 -10.3829C257.071 -10.5736 258.62 -11.372 259.249 -11.2887C259.222 -11.3541 259.116 -11.425 259.24 -11.4959C259.735 -11.6443 261.199 -12.1388 261.215 -12.1456C261.237 -12.2315 261.042 -12.2847 261.205 -12.3528C261.415 -12.4018 261.519 -12.2914 261.703 -12.3104C262.006 -12.782 262.86 -12.6196 263.354 -13.0938C263.118 -13.2452 262.908 -12.9658 262.978 -12.9371C262.807 -12.8854 262.585 -12.7737 262.46 -12.7982C262.852 -12.9617 262.432 -12.8637 262.389 -12.9223C262.492 -13.0422 262.591 -13.0831 262.758 -13.0953C262.559 -13.4348 261.76 -12.6798 261.351 -12.5095C260.893 -12.3188 260.921 -12.7141 260.434 -12.4538C260.475 -12.3557 260.615 -12.4334 260.701 -12.4115C260.326 -12.1595 259.86 -11.8501 259.474 -11.9007C259.781 -12.086 259.442 -12.1174 259.187 -11.9921C259.071 -11.8094 258.887 -11.7904 258.633 -11.5696C258.75 -11.8872 258.054 -11.3476 258.295 -11.736C257.811 -11.5153 258.202 -11.5438 257.935 -11.3558C257.582 -11.42 257.949 -11.3231 257.603 -11.1405C257.496 -11.2114 257.274 -11.0997 257.397 -11.266C256.873 -11.048 256.65 -10.8013 256.207 -10.7128C256.152 -10.6133 256.137 -10.5111 256.043 -10.4144C255.63 -10.3 255.24 -10.176 254.704 -9.89535C254.561 -10.2389 253.182 -9.58765 252.612 -9.61913C252.633 -9.57006 252.699 -9.50189 252.608 -9.44467C252.363 -9.34249 252.254 -9.60422 252.07 -9.35483C252.089 -9.17081 252.483 -9.46923 252.485 -9.2784C252.022 -9.00862 251.249 -8.51401 250.675 -8.37102C251.022 -8.45817 251.107 -8.76212 250.937 -8.71037C250.758 -8.54002 250.675 -8.37102 250.305 -8.198C250.36 -8.29749 250.303 -8.38882 250.357 -8.48832C249.837 -8.30988 249.368 -7.96104 248.978 -7.83709C248.957 -7.88617 249.042 -7.95976 249.1 -8.00336C249.728 -8.34126 250.882 -8.61087 251.091 -8.98567C250.477 -8.61506 249.529 -8.45034 248.772 -7.96254C248.67 -8.20792 247.583 -7.314 247.166 -7.48584C246.336 -6.85221 244.554 -6.24471 243.766 -6.10858C243.832 -6.13583 243.844 -6.19853 243.807 -6.24079C243.562 -6.13862 243.386 -6.00781 243.315 -5.9015C243.43 -5.94918 243.544 -5.99686 243.545 -5.90145C242.905 -5.59627 242.698 -5.58678 242.319 -5.39058C242.324 -5.46964 242.385 -5.55277 242.384 -5.64818C241.862 -5.3348 241.741 -5.53385 241.242 -5.21092C241.362 -5.1073 241.617 -5.23263 241.37 -4.99551C241.315 -5.12638 241.051 -4.97787 240.893 -4.98881C240.763 -4.8389 241.164 -4.89061 240.841 -4.69849C240.236 -4.44647 240.256 -4.39739 239.671 -4.09629C239.613 -4.28304 239.021 -3.9983 239.198 -4.26406C238.626 -4.02566 238.414 -4.07206 238.225 -3.7436C238.278 -3.93851 237.928 -3.81182 238.121 -4.08438C237.941 -4.00946 237.952 -3.93721 237.789 -3.8691C237.895 -3.79819 238.146 -3.74906 237.855 -3.57057C236.804 -3.19052 235.458 -2.78328 234.896 -2.24227C234.846 -2.31725 234.835 -2.3895 234.886 -2.44946C234.723 -2.38135 234.576 -2.32004 234.419 -2.23557C234.548 -2.15512 234.487 -2.07199 234.218 -1.97937C234.333 -2.25741 233.972 -1.97261 233.88 -2.14574C234.235 -2.44689 234.679 -2.43997 235.24 -2.61568C235.304 -2.9687 236.558 -3.41413 236.799 -3.34183C236.258 -3.44282 234.904 -2.82157 234.553 -2.55995C233.923 -2.41288 233.361 -2.3326 232.618 -2.04244C232.748 -1.96199 232.479 -1.86936 232.418 -1.78622C232.43 -1.61856 232.652 -1.73029 232.674 -1.5858C233.054 -1.68658 232.783 -1.78478 233.084 -1.89103C233.082 -1.62115 233.534 -1.96316 233.557 -1.72326C233.109 -1.5557 232.38 -1.46319 232.367 -1.17014C232.204 -1.10202 232.056 -1.04072 231.916 -0.963058C231.971 -1.06255 231.913 -1.15389 231.968 -1.25338C231.428 -1.0286 232.201 -1.06249 231.645 -0.830896C231.421 -0.814591 231.341 -0.915479 231.255 -0.70695C230.883 -0.724757 231.3 -1.01363 231.076 -0.997326C231.11 -0.915535 230.496 -0.640342 230.436 -0.692153C230.346 -0.769869 230.368 -0.855734 230.501 -0.949754C230.482 -0.673056 231.037 -1.23042 231.322 -1.32985C231.464 -1.3121 231.544 -1.21121 231.737 -1.25342C231.642 -1.48244 232.224 -1.51366 232.378 -1.55861C232.125 -1.79856 231.635 -1.4988 231.399 -1.4198C231.305 -1.5534 231.706 -1.6051 231.759 -1.80001C231.404 -1.59427 231.089 -1.29039 230.827 -1.41176C230.858 -1.29044 230.149 -1.14884 230.467 -1.03155C230.766 -1.09827 230.864 -1.36949 231.01 -1.29585C230.755 -0.940152 230.404 -1.04383 230.04 -0.949859C230.02 -0.768576 230.358 -1.06292 230.328 -0.858469C230.23 -0.8176 230.25 -0.768524 230.168 -0.734467C229.675 -0.490593 229.552 -0.554683 229.112 -0.505716C228.864 -0.364015 229.303 -0.508401 229.281 -0.422533C229.15 -0.368041 229.098 -0.308079 229.03 -0.241305C228.869 -0.212718 228.699 -0.16096 228.651 -0.275469C228.555 -0.369543 228.991 -0.474393 228.815 -0.573938C228.475 -0.37501 228.368 -0.310977 228.062 -0.260614C227.887 -0.129801 228.013 -0.00981909 227.702 0.1196C227.506 0.201338 227.442 0.0936446 227.262 0.168571C227.159 0.288497 226.653 0.595063 226.17 0.680823C226.129 0.813031 225.93 0.9343 225.81 1.06104C226.282 0.903032 226.431 0.706782 226.681 0.755911C226.581 0.836308 226.512 0.903086 226.461 0.963048C226.69 0.867687 226.705 0.765462 226.871 0.657819C226.921 0.963157 227.46 0.412602 227.589 0.493053C227.6 0.565298 227.516 0.638878 227.599 0.700236C228.061 0.335042 228.845 -0.08732 229.307 0.00820267C229.051 -0.192228 230.247 -0.498639 229.943 -0.122504C230.427 -0.343207 230.036 -0.314677 230.303 -0.502718C230.387 -0.44136 230.573 -0.499928 230.621 -0.385419C229.912 0.21689 229.288 0.284898 228.411 0.43872C227.884 0.83116 227.604 0.851538 227.278 1.08318C227.258 1.03411 227.221 0.991847 227.191 0.965942C227.213 1.11043 226.195 1.47686 226.56 1.47831C226.692 1.28887 227.318 1.08592 227.431 1.17318C226.863 1.46747 226.501 1.52191 225.933 1.8162C225.986 1.62129 225.829 1.70577 225.615 1.6989C225.709 1.8325 225.576 1.92652 225.428 1.98783C224.458 1.08661 223.559 0.309463 221.718 0.960578C218.95 2.28619 218.591 3.45289 218.876 4.50525C218.424 4.71233 217.966 4.90305 217.677 4.9466C217.476 5.10739 216.832 5.4521 216.201 5.73411C211.71 5.08969 203.865 6.30235 197.491 8.41906C194.203 10.2489 190.44 11.3548 186.497 12.4403C186.759 12.3313 187.074 12.0274 187.076 11.7575C187.085 11.4086 187.529 11.1851 188.001 11.0271C188.213 10.9386 188.446 10.8991 188.673 10.8433C189.771 10.5777 190.047 10.5014 190.089 10.0039C190.172 9.37422 190.861 9.41391 191.278 9.12504C191.904 8.69173 193.107 8.17132 192.611 7.53329C192.524 7.41605 192.776 7.09987 192.935 6.88046C193.112 6.6147 193.014 6.42521 192.763 6.37608C192.05 6.23143 191.295 6.12357 190.514 6.04569C190.254 6.01973 189.866 6.10415 189.542 6.20085C188.86 6.40788 188.167 6.67761 187.499 6.91735C186.804 6.63094 186.081 7.66125 185.394 7.48662C184.272 8.20333 183.042 8.29301 181.882 8.64168C181.266 8.82146 180.601 8.79131 179.907 9.06104C179.237 9.34031 178.509 9.52825 177.875 9.84978C177.182 10.2149 176.599 9.92036 175.989 10.3469C175.722 10.5349 175.508 10.7584 175.252 10.558C175.026 10.3834 175.32 10.0305 175.86 9.80569C176.645 9.47874 177.444 9.1845 178.229 8.85755C178.442 8.769 178.736 8.6464 178.817 8.51692C179.004 8.228 178.521 8.31376 178.411 8.18697C178.18 7.95656 178.061 7.62258 177.713 7.47937C177.296 7.30753 176.974 7.13434 177.379 6.67781C177.707 6.31122 177.375 5.93085 178.009 5.60932C178.388 5.41312 179.04 5.18019 179.267 5.21977C179.571 5.30435 179.064 5.51551 178.823 5.67357C178.689 5.76759 178.632 5.90661 178.545 6.01972C179.29 5.92039 180.054 5.90967 180.808 5.69175C181.706 5.45206 182.625 5.03109 183.529 4.71235C183.627 4.67148 183.736 4.70285 183.838 4.71787C183.734 4.8378 183.668 4.99999 183.537 5.05448C182.866 5.33375 182.195 5.61302 181.525 5.89229C181.132 6.05577 180.855 6.26698 180.842 6.46462C180.822 6.74132 180.841 7.1557 181.284 7.0672C182.075 6.89155 182.688 7.21201 183.512 6.79238C184.45 6.32507 185.28 6.38251 186.168 6.16599C187.179 5.91815 188.17 5.25593 189.197 5.32705C189.214 5.32024 189.38 5.2126 189.399 5.16626C189.417 5.0245 189.51 4.83233 189.394 4.7846C189.195 4.67551 188.905 4.62364 188.595 4.61811C188.095 4.61527 185.657 5.39983 184.846 5.75676C184.732 5.80444 184.547 5.72807 184.414 5.68715C184.345 5.65851 184.311 5.57671 184.339 5.5072C184.476 5.1433 184.635 4.78894 184.788 4.41822C184.884 4.18652 185.145 4.07753 185.262 4.22068C185.564 4.57515 186.035 4.64751 186.833 4.25786C188.016 3.68837 189.042 3.43372 189.643 4.04724C191.094 3.98078 192.509 3.96748 194.112 3.53031C194.315 3.46493 194.57 3.33959 194.69 3.21286C194.81 3.08612 194.853 2.91438 194.812 2.81623C194.765 2.70172 194.628 2.60491 194.454 2.60078C193.868 2.57611 193.246 2.60459 192.641 2.62626C192.495 2.0919 191.577 2.51288 191.03 2.49094C190.546 2.48129 189.952 2.5752 189.552 2.49196C189.239 2.43055 189.135 2.08975 188.642 2.56398C188.08 3.10499 187.104 3.20427 186.553 3.81752C186.288 4.10097 186.099 3.83377 185.973 3.71379C185.936 3.67152 185.853 3.61017 185.781 3.62106C185.233 3.73406 184.666 3.89341 184.137 3.96008C183.608 4.02674 183.714 3.40657 182.922 3.71717C182.595 3.8534 182.257 3.91738 181.909 4.00453C181.811 4.0454 181.712 3.99086 181.6 3.99901C181.668 3.93224 181.723 3.83274 181.814 3.77552C182.997 3.20603 184.213 2.62292 185.455 2.47055C186.04 2.39981 186.558 2.2609 187.128 2.06202C188.473 1.55937 189.759 1.0049 191.168 0.8403C191.865 0.761405 192.733 0.26545 193.495 -0.0710494C193.61 -0.11873 193.721 -0.357238 193.713 -0.469011C193.689 -0.573973 193.492 -0.722593 193.404 -0.704894C192.507 -0.369789 191.692 -0.2991 190.867 -0.205241C190.848 0.071457 190.611 0.2854 190.125 0.410689C189.778 0.497844 189.56 0.435092 189.501 0.248338C189.46 0.150188 189.413 0.0356816 189.355 -0.0556572C188.923 0.105084 188.475 0.272631 188.036 0.417014C188.015 0.367939 187.972 0.309318 187.9 0.320206C186.605 0.437126 185.882 0.77636 185.315 1.62678C185.183 1.81622 185.102 1.94569 184.905 1.93201C184.028 1.85548 183.149 1.81847 182.046 2.25848C181.801 2.36065 181.362 2.27468 181.219 2.16151C180.702 1.70476 179.938 1.85043 178.963 2.27548C178.079 2.6433 177.153 2.9525 176.269 3.32032C175.828 3.50423 175.567 3.70863 175.398 4.08616C175.028 4.95026 174.938 4.87254 173.363 5.37514C172.275 5.71293 171.457 5.59279 170.476 5.77112C169.993 5.85688 169.618 5.87861 169.291 6.24519C169.058 6.51503 168.815 6.57767 168.476 6.54624C168.034 6.49979 167.666 6.30751 167.047 6.52682C167.065 6.84578 167.378 7.13755 166.581 7.5272C166.533 7.64305 166.513 7.82434 166.405 7.88838C166.075 8.06414 165.997 7.92372 165.894 7.81329C165.534 7.96314 165.339 8.14029 165.339 8.37065C165.339 8.60101 165.61 8.69921 165.935 8.60251C166.502 8.44316 167.061 8.17205 167.637 7.98953C167.784 7.92823 167.937 8.01822 168.102 8.04552C168.034 8.1123 167.97 8.23496 167.888 8.26902C166.661 8.77988 165.434 9.29074 164.196 9.72936C162.805 10.2129 161.609 10.8451 160.558 11.6859C160.34 11.8535 160.19 12.1847 159.741 12.1219C158.953 12.0276 158.486 12.4719 158.002 12.9229C157.254 12.8314 156.475 13.1747 155.683 13.4853C154.214 14.0589 152.744 14.6324 151.277 15.1663C150.731 15.3748 150.067 15.6704 149.613 15.6866C148.794 15.7014 148.048 16.0311 147.272 16.3349C143.093 17.9601 138.93 19.5784 134.743 21.1872C133.902 21.5183 133.895 21.5019 133.427 20.9293C133.346 20.8284 133.191 20.7779 133.068 20.7138C132.941 20.8242 132.759 20.9387 132.695 21.0613C132.276 21.7155 131.11 22.3736 130.34 22.368C130.308 22.3816 130.257 22.3066 130.293 22.2535C130.338 22.1771 130.425 22.064 130.514 22.0463C131.581 21.6595 132.227 21.2752 131.846 20.5895C131.711 20.3578 132.086 19.8753 132.222 19.5114C132.349 19.1707 132.698 19.1789 132.975 19.1981C133.268 19.2104 133.438 19.1587 133.445 18.9447C133.442 18.7538 133.374 18.5903 133.339 18.4131C131.752 19.0738 130.013 19.4141 128.683 20.6011C128.378 20.8818 127.516 21.1637 127.072 21.1568C126.309 21.1675 125.526 21.455 124.778 21.5938C124.633 21.6156 124.537 21.5215 124.414 21.4574C124.012 21.6441 123.486 21.6712 123.214 22.0337C122.797 22.553 122.166 23.0653 122.065 23.6064C122.047 23.7482 121.918 23.8981 121.844 24.0439C121.652 23.9512 121.486 23.8285 121.244 23.7562C120.864 23.6266 120.458 23.7573 120.084 24.1048C119.932 24.2452 119.701 24.4755 119.606 24.4769C118.991 24.5217 118.154 24.6782 117.865 24.4914C117.37 24.1792 117.244 24.2896 116.75 24.7638C116.331 25.1876 116.811 25.6021 115.958 25.9958C115.945 26.0585 115.966 26.1076 115.921 26.1839C115.465 27.0262 114.209 26.3593 113.717 27.1594C113.558 27.1484 113.384 27.1443 113.268 27.0965C113.113 27.0461 113.031 26.8498 112.91 26.8811C111.444 27.2801 110.109 27.2989 108.684 27.5657C108.595 27.5834 108.478 27.6706 108.41 27.7374C108.241 27.8846 108.34 27.9391 108.584 27.9719C108.71 27.9965 108.792 28.1928 108.775 28.1996C107.855 28.7555 106.876 29.1247 105.836 29.3466C105.377 29.4419 105.689 29.4079 105.789 29.2321C106.067 28.6556 105.872 28.6024 105.103 28.9225C104.661 29.1064 104.16 29.2385 103.778 29.4742C103.314 29.744 103.008 30.39 102.434 30.3027C101.553 30.1702 101.306 30.8681 100.73 31.0506C100.291 31.195 99.841 31.2671 99.3884 31.3788C99.1949 31.421 98.8827 31.455 98.8377 31.5313C98.3128 32.1146 97.7485 32.2344 97.0438 32.2015C96.7739 32.1987 96.3608 32.3131 96.0568 32.4589C94.785 33.0461 93.261 33.2584 92.2289 34.2832C92.1185 34.3867 91.7941 34.4834 91.5841 34.5325C91.1343 34.6046 90.6845 34.6767 90.2797 34.6725C89.0161 34.6804 87.8724 35.0223 86.7954 35.893C86.6359 36.017 86.4177 36.1846 86.2146 36.25C84.4548 36.7717 83.0247 37.8086 81.4297 38.5879C80.5504 39.0116 79.5798 39.4926 79.2512 40.2245C78.6882 40.4397 77.9793 40.8116 77.6072 40.7938C76.8725 40.7351 76.4075 41.3701 75.835 41.3782C75.1372 41.3617 74.4474 41.6873 73.823 41.9856C72.9437 42.4093 72.2991 42.1979 71.5289 42.4226C71.3026 42.4785 71.064 42.597 70.8582 42.7019C70.3129 43.0058 69.8698 43.555 69.1242 43.4239C68.662 44.0195 67.6969 44.191 67.0588 44.687C66.1114 45.4079 64.7659 45.9105 64.2 46.8563C64.1195 46.9858 63.5403 46.7471 63.089 47.1846C62.7741 47.4885 62.7194 48.0487 61.9493 48.0431C61.1955 48.0306 61.0727 48.6576 60.5247 48.7706C60.3148 48.8196 60.0326 48.8795 59.9331 48.825C59.8105 48.7609 59.7819 48.6 59.8392 48.461C59.9033 48.3384 60.1514 48.1967 60.3041 48.0563C60.4799 47.9255 60.649 47.7783 60.8085 47.6543C60.634 47.6502 60.4555 47.5902 60.2851 47.6419C59.7153 47.8408 59.1523 48.056 58.5729 48.2781C57.9022 48.5573 57.1879 48.778 56.5608 49.1159C56.0578 49.3829 55.7578 49.815 55.1294 50.0574C54.4683 50.3135 53.8044 50.6092 53.1705 50.9307C52.9742 51.0124 52.8487 51.2182 52.7192 51.3681C52.6224 51.5044 52.5651 51.6434 52.5174 51.7593C52.5174 51.7593 52.715 51.773 52.82 51.7485C54.5225 51.3658 55.7645 50.292 57.2818 49.6027C57.6417 49.4528 57.7004 48.9485 58.311 49.0781C58.5618 49.1273 58.146 49.5115 57.5052 50.0471C56.9654 50.5022 56.3914 50.8756 55.7098 51.0826C54.1831 51.5648 53.0011 52.46 51.6651 53.1699C51.5343 53.2244 51.4388 53.4561 51.4633 53.561C51.4878 53.666 51.6664 53.726 51.8054 53.7833C51.8681 53.7956 52.0221 53.7506 52.1271 53.7261C52.3438 53.6934 52.551 53.6839 52.7582 53.6745C52.6219 53.808 52.5155 53.9675 52.3519 54.0356C51.9239 54.2522 51.4522 54.4102 51.0173 54.6105C50.1708 55.0206 49.0326 55.2834 48.4451 55.1633C47.983 55.0678 47.4937 55.1372 46.868 55.3401C45.3085 55.8359 44.2097 56.7925 42.8901 57.4955C41.4559 58.2463 40.2862 59.3092 38.6218 59.8295C36.9014 60.3539 35.6636 61.2532 34.6056 62.308C34.307 62.605 34.0548 62.9212 33.5436 63.0765C33.2191 63.1732 32.6589 63.3489 32.6085 63.2739C32.4613 63.1049 32.8934 62.9441 33.1511 62.7792C33.2588 62.7152 33.2929 62.5666 33.3638 62.4603L30.8284 63.0554C30.6538 63.2816 30.4957 63.501 30.3211 63.7273C30.5379 63.6946 30.7451 63.6851 30.9618 63.6525C31.1622 63.6266 31.3694 63.6171 31.5861 63.5844C31.4797 63.7439 31.3829 63.8802 31.2766 64.0396C30.9602 64.4785 30.3904 64.6773 29.8179 64.9157C28.2734 65.5397 27.439 66.5781 26.2229 67.3916C26.1614 68.1658 25.1812 68.9003 24.599 69.6226C24.1463 70.1949 23.939 70.6651 24.1952 71.0959C24.5017 71.6017 24.5548 72.0979 23.2257 72.5937C22.1173 73.5735 20.7513 74.4878 19.9073 75.5494C19.8364 75.6557 19.8677 75.7771 19.9086 75.8752C19.9222 75.9079 20.113 75.9052 20.2112 75.8644C20.781 75.6655 21.3563 75.3876 21.9138 75.2514C22.4713 75.1152 22.992 75.1671 23.285 75.4098C23.4581 75.5489 23.0981 76.1595 22.685 76.5042C22.2719 76.849 21.8507 76.8516 21.4363 76.8706C20.992 76.8637 20.5912 76.9154 20.2381 77.312C19.9627 77.6186 19.754 77.9934 19.3914 78.1828C18.3036 78.7509 18.6157 78.9473 19.0872 79.25C19.2467 79.3563 18.7095 80.0023 18.858 80.0364C19.789 80.2438 19.6539 80.9335 19.9113 81.4597C20.0667 81.7405 20.1825 82.0186 20.5995 82.1905C21.2715 82.4673 21.4949 82.9117 20.2475 83.6039C20.1071 83.6815 20.0116 83.9132 20.0198 84.025C20.0606 84.3535 20.19 84.6643 20.2799 84.9724C20.3807 85.3527 20.7569 85.4264 21.4385 85.2194C21.7956 85.1091 21.797 85.2045 21.6551 85.4171C21.5133 85.6297 21.3374 85.9909 21.4696 86.0318C22.1634 86.2228 21.8021 86.7379 21.8278 87.1687C21.8428 87.5271 21.536 87.9428 21.5891 88.2086C21.6462 88.5303 22.2146 88.6967 22.648 88.8618C23.2436 89.0936 23.283 89.5571 23.4111 90.0028C23.4383 90.0683 23.1261 90.3326 23.0866 90.3299C22.3424 90.2943 22.131 90.4783 22.21 90.9444C22.3243 91.5878 22.9103 92.0732 22.3826 92.9264C22.2476 93.1553 23.169 93.6163 23.7633 93.5224C24.8401 93.3427 24.671 93.7202 24.3819 94.2245C24.3369 94.3008 24.2565 94.4303 24.2729 94.4235C24.8276 94.5572 25.0811 94.7971 25.1873 95.0984C24.9256 95.2074 24.6366 95.2509 24.3136 95.2127C23.951 95.1717 23.5476 95.0326 23.2163 95.1129C22.5211 95.2872 22.8563 95.9539 22.7907 96.4418C22.6979 97.0947 22.4401 97.7203 22.2451 98.3582C22.0186 99.1051 21.5592 99.2004 20.8055 99.1879C19.7096 99.1836 19.2294 100.612 18.0994 100.756C17.9318 100.768 17.7954 101.132 17.6931 101.348C17.6549 101.44 17.7298 101.62 17.8102 101.721C17.9642 101.907 18.2027 102.249 18.3403 102.211C19.5508 101.937 20.8621 101.813 21.518 100.484C21.8126 99.901 22.2747 99.9966 22.8158 100.098C23.1688 100.162 23.8135 100.143 23.864 99.9874C24.0236 99.4027 24.4176 99.1043 24.8525 98.904C24.9342 99.1003 25.0487 99.283 25.4208 99.3008C26.6066 99.3828 26.9568 99.9472 26.9239 100.652C26.0597 100.973 25.239 101.354 24.3884 101.708C23.8649 101.926 23.7476 102.474 23.5634 102.953C23.4298 103.278 23.4856 103.504 23.78 103.612C24.2693 103.773 24.7763 104.022 25.2466 103.999C25.7332 103.969 26.1626 103.618 26.637 103.42C26.9806 103.277 27.3623 103.041 27.6921 103.096C28.1869 103.178 28.8479 103.383 29.0673 103.771C29.2226 104.052 28.9484 104.915 28.6158 105.13C27.7842 105.668 26.815 106.014 25.9125 106.428C25.265 106.717 25.1 107.151 25.217 107.985C25.3599 109.019 24.4901 109.881 24.7638 111.091C24.9435 111.938 25.1355 112.491 25.9588 112.532C26.5613 112.55 27.1788 112.466 27.7772 112.428C28.4243 113.751 29.2341 113.069 30.0534 112.823C30.735 112.616 30.9301 111.979 31.3282 111.506C31.7945 110.966 32.5399 111.558 33.1274 111.447C33.3442 111.415 33.5882 111.217 33.7137 111.011C34.0409 110.415 34.5331 110.075 35.1315 109.807C37.5226 108.773 40.0962 108.085 42.0568 106.155C42.1413 106.082 42.2558 106.034 42.4003 106.012C42.3594 106.145 42.2626 106.281 42.1426 106.408C42.0908 106.468 42.0553 106.521 42.0362 106.567C41.1283 107.06 40.2803 107.605 39.4964 108.258C39.4637 108.272 39.4405 108.262 39.4078 108.276C39.2279 108.351 39.0493 108.521 38.8898 108.645C38.9389 108.625 39.0015 108.637 39.0574 108.633C38.5666 109.067 38.0963 109.551 37.6695 110.094C38.0756 110.654 38.5185 111.026 38.9996 111.306C37.6881 112.121 36.487 113.062 35.4931 114.225C35.4017 114.282 35.3336 114.349 35.2586 114.399C34.8714 114.714 34.6014 115.172 34.2374 115.496C33.8052 115.887 33.0298 115.039 32.6275 115.917C32.3438 116.572 31.7184 115.854 31.2794 115.998C30.9291 116.125 30.5856 116.268 30.2488 116.427C30.1507 116.468 30.1302 116.65 30.0661 116.772C29.6761 117.587 29.4155 118.483 28.7066 119.085C28.5212 119.239 28.7256 119.499 29.0745 119.508C29.4071 119.523 29.8543 119.26 29.9564 119.736C30.0204 120.074 29.6985 120.822 29.6126 120.8C28.6095 120.604 28.1948 122.005 27.5473 121.833C26.1503 121.474 25.9484 122.326 26.0504 123.262C26.1483 124.143 25.8702 124.489 25.2254 124.738C24.8818 124.881 24.5083 124.998 24.1921 125.207C24.0585 125.301 24.0066 125.591 23.9834 125.812C23.9711 125.875 24.1673 126.023 24.2927 126.048C24.9197 126.171 25.5358 126.221 26.1532 126.367C27.3486 126.657 28.7294 126.331 29.5892 127.797C29.7036 127.979 30.2721 127.915 30.6305 127.9C30.9958 127.902 31.4961 127.674 31.6828 127.846C32.0494 128.173 32.3301 128.709 32.4554 129.194C32.5643 129.687 32.4565 130.211 32.4441 130.735C33.2061 130.629 33.8139 131.258 34.5199 131.387C35.4072 131.536 36.1748 130.89 37.118 131.265C37.6209 131.458 38.1021 131.047 37.9374 130.328C37.7767 129.666 38.0712 129.313 38.5783 129.102C39.6252 128.666 39.9145 127.24 41.1018 126.957C41.1673 126.93 41.1837 126.462 41.0952 126.25C41.0066 126.037 40.7695 125.79 40.5746 125.737C40.0826 125.615 39.5728 125.636 39.0808 125.514C38.5587 125.367 38.2044 124.977 37.9469 124.451C37.6894 123.925 37.6923 123.194 38.0618 123.021C38.7584 122.712 39.4386 122.409 40.1556 122.149C40.8495 121.879 41.2829 122.275 41.3154 123.183C41.3628 124.449 41.356 124.433 42.6045 124.757C42.9711 124.854 43.3486 125.023 43.6934 125.206C44.1705 125.43 44.488 125.547 44.9012 124.972C45.5952 124.011 46.8071 123.372 47.8471 123.611C49.4118 123.957 50.5066 122.715 51.8792 122.968C53.4562 123.252 54.4842 122.172 55.8023 121.834C56.1663 121.74 56.4989 121.525 56.8629 121.431C57.2173 121.36 57.6631 121.232 57.9547 121.379C59.2413 122.072 60.4245 121.963 61.5832 121.289C63.3905 121.803 64.8014 121.273 65.9059 119.777C66.0027 119.64 66.5847 119.84 66.909 119.973C67.4188 120.183 67.3083 120.517 66.9961 120.782C66.4139 121.273 66.0566 122.305 64.969 121.722C64.8927 121.677 64.6636 121.772 64.6418 121.858C64.3417 122.751 63.7651 122.933 62.9214 122.613C62.7824 122.555 62.5302 122.871 62.3516 123.042C62.3189 123.055 62.3774 123.242 62.4279 123.317C63.7306 124.924 64.1722 124.971 65.5042 123.744C66.7517 122.592 68.1599 121.871 70.5426 121.647C71.1737 121.595 71.2516 120.584 72.038 121.043C72.5191 121.323 72.5492 120.657 72.796 120.42C73.0687 120.153 73.3618 119.935 73.802 120.117C74.4903 120.387 75.0478 120.25 75.3901 119.551C75.6902 118.889 76.3213 118.607 76.9061 118.536C78.3414 118.342 79.9838 118.829 80.7708 116.985C80.8376 116.822 81.4768 116.882 81.8367 116.963C82.6954 117.181 83.5692 116.837 83.9141 116.328C84.8782 114.91 86.3585 114.639 87.7258 114.05C90.0283 113.034 92.3539 112.027 94.6768 111.06C95.3802 110.767 95.98 110.364 96.415 109.703C97.4972 110.135 98.078 109.548 98.5062 108.64C100.146 108.475 100.712 106.608 102.167 106.137C103.012 105.862 103.771 105.334 104.604 105.122C105.663 104.854 105.955 103.619 106.918 103.256C107.497 103.034 108.009 102.744 108.436 102.202C109.254 101.17 110.408 100.575 111.709 100.704C112.688 100.796 113.314 100.593 114.014 99.879C114.887 98.9782 115.632 97.6317 117.259 97.9905C117.408 98.0247 117.66 97.7085 117.769 97.5095C118.26 96.6141 118.981 96.1794 119.983 96.5109C120.697 96.751 121.452 96.6285 121.708 96.1378C122.337 94.9739 123.385 94.6334 124.409 94.1879C125.318 93.7901 126.125 93.3773 126.871 92.5869C127.695 91.7065 128.901 91.1466 130.276 91.3609C131.345 91.5302 132.257 91.0928 132.89 90.2152C133.206 89.7763 133.611 89.5502 134.035 89.2777C134.583 88.9343 135.304 89.8818 135.72 89.0368C136.107 88.2613 136.895 88.1252 137.575 87.8227C139.655 86.9181 141.763 86.079 143.873 85.2003C151.333 82.0942 158.778 78.9555 166.208 75.8235C166.895 75.5375 167.76 75.3114 168.118 74.7403C168.626 73.9335 169.951 74.7639 170.045 73.5154C170.856 73.1585 171.661 72.7852 172.456 72.4351C174.314 71.6422 176.178 70.8657 178.03 70.0564C178.602 69.818 179.337 69.6465 179.64 69.1749C180.255 68.2086 181.195 67.9322 182.111 67.5507C182.798 67.2646 183.694 67.0645 184.084 66.4798C184.89 65.2805 186.093 64.9904 187.232 64.4973C188.442 63.9932 189.669 63.4824 190.873 62.962C192.151 62.8518 193.484 62.8726 194.906 63.106L193.524 62.8753C193.213 62.544 194.009 62.059 194.619 61.6325C194.493 61.6079 194.361 61.567 194.236 61.5424C196.788 60.4798 199.333 59.4009 201.878 58.3219C202.908 57.8928 203.84 57.4091 204.709 56.5479C205.546 55.7002 206.936 55.4866 208.097 55.003C210.584 55.4452 212.37 53.7418 214.47 53.0212C215.284 51.4729 216.898 51.3384 218.228 50.7076C219.255 50.2226 220.512 49.968 221.218 49.1748C221.39 48.9881 221.552 48.8246 221.721 48.6774C223.196 48.4856 225.24 48.0948 228.666 47.1483C234.224 43.8551 240.768 39.7483 247.927 37.3047C250.517 36.3798 253.332 36.6857 253.145 37.4354C256.119 36.0049 260.484 34.2257 263.666 33.0161C276.098 24.9796 259.972 28.8919 254.811 30.6954L254.859 30.8099ZM239.919 15.6287C239.871 15.5142 240.216 15.4666 240.295 15.472C240.266 15.5415 240.084 15.656 240.254 15.6042C240.206 15.7201 239.889 15.8331 239.762 15.9435C239.481 15.8685 240.247 15.5879 239.926 15.6451L239.919 15.6287ZM237.503 16.3274C237.683 16.2525 237.879 16.1707 238.053 16.0794C237.986 16.2416 237.87 16.4242 237.668 16.585C237.341 16.7213 237.511 16.4392 237.503 16.3274ZM236.473 16.7565C236.403 16.9582 236.764 16.6734 237.052 16.5345C237.285 16.495 237.002 16.6898 237.221 16.6176C237.341 16.7213 236.698 16.8356 236.811 16.9229C236.586 17.0741 236.58 16.9228 236.384 17.0046C236.185 17.1258 236.542 17.0155 236.38 17.179C236.291 17.1967 236.196 17.1981 236.072 17.2689C236.117 17.1926 236.106 17.1204 236.062 17.0617C235.75 17.3261 236.016 17.273 235.458 17.4092C235.411 17.2947 235.712 17.1884 235.951 17.0699C235.855 17.0712 235.743 17.0794 235.622 17.1107C235.773 16.8749 236.095 17.0481 236.473 16.7565ZM235.015 17.2673C235.198 17.1529 235.268 17.1815 235.405 17.1434C235.426 17.1924 235.262 17.2606 235.154 17.3246C234.988 17.4322 235.276 17.5236 234.872 17.6149C234.852 17.5658 234.815 17.5235 234.785 17.4976C234.981 17.4159 235.073 17.3586 235.006 17.2905L235.015 17.2673ZM235.948 14.8058C236.292 14.8931 236.533 14.5047 236.913 14.6343C236.397 14.8686 236.209 15.0621 235.903 15.1125C235.902 15.0171 236.108 14.9122 235.955 14.8222L235.948 14.8058ZM240.458 -1.0074C240.055 -0.916168 240.914 -1.1586 240.52 -1.09054C240.63 -1.1941 240.998 -1.23218 241.181 -1.34663C241.201 -1.29756 241.038 -1.22944 240.923 -1.18176C240.825 -1.14089 240.915 -1.06318 240.8 -1.0155C240.776 -0.890107 240.762 -1.15318 240.435 -1.01695L240.458 -1.0074ZM241.1 -0.756445C241.1 -0.756445 241.167 -0.688281 241.249 -0.722338C240.803 -0.363956 241.077 -0.996349 241.531 -1.0126C241.605 -0.928073 241.218 -0.843654 241.1 -0.756445ZM242.065 -0.927972C241.951 -0.880291 242.029 -0.73987 242.153 -0.81072C241.761 -0.551829 241.978 -0.814851 241.655 -0.853092C241.813 -0.84215 242.097 -1.03701 242.255 -1.02606C242.282 -0.96063 242.095 -0.902062 242.075 -0.951137L242.065 -0.927972ZM242.173 -1.68309C242.164 -1.89027 242.549 -1.83975 242.875 -2.07139C243.042 -1.94868 242.285 -1.69124 242.173 -1.68309ZM242.374 -1.93929C241.921 -1.82762 241.914 -1.84398 241.507 -1.80864C241.445 -1.95586 241.872 -2.03754 241.995 -1.97345C242.295 -2.40547 243.031 -2.48164 243.497 -2.79094C243.677 -2.63551 243.847 -2.91763 244.154 -2.87257C243.862 -2.55914 242.704 -2.3454 242.38 -1.92293L242.374 -1.93929ZM244.425 -3.00473C244.378 -3.11924 244.449 -3.22554 244.687 -3.34407C244.789 -3.32906 244.882 -3.29087 244.913 -3.16955C244.707 -3.06464 244.553 -3.01969 244.425 -3.00473ZM250.282 -7.05576C250.552 -7.05297 250.357 -6.87581 250.46 -6.76538C250.035 -6.58828 250.165 -6.73819 249.708 -6.45205C249.467 -6.52435 249.998 -6.63054 249.908 -6.70826C249.854 -6.83913 249.337 -6.37444 249.37 -6.61842C249.756 -6.79826 250.019 -6.81183 250.289 -7.0394L250.282 -7.05576ZM257.41 -11.0029C257.425 -10.8748 257.131 -10.7521 256.939 -10.6145C256.775 -10.7768 257.191 -10.9307 257.41 -11.0029ZM253.801 -9.5766C253.57 -9.3463 253.343 -9.38588 253.062 -9.23056C253.035 -9.29599 252.998 -9.33826 252.954 -9.39688C253.324 -9.5699 253.58 -9.59982 253.801 -9.5766ZM249.186 -6.36903C249.051 -6.37042 248.829 -6.2587 248.607 -6.14698C248.545 -6.29421 249.142 -6.65801 249.186 -6.36903ZM248 -6.91181C248.169 -6.82862 247.473 -6.51936 247.508 -6.57252C247.325 -6.68842 247.834 -6.80416 248 -6.91181ZM246.287 -6.60142C246.234 -6.40652 245.666 -6.24717 245.436 -6.24722C245.294 -6.49533 246.105 -6.62191 246.287 -6.60142ZM247.442 -4.24168C247.28 -4.07815 246.755 -3.9556 246.596 -4.06196C246.928 -4.04689 247.216 -4.41621 247.442 -4.24168ZM247.504 -1.92582C247.339 -1.72276 247.451 -1.73092 247.608 -1.58504C247.124 -1.36433 246.948 -1.46387 246.808 -1.15585C246.388 -1.05781 245.729 -1.30195 246.386 -1.61394C246.384 -1.34405 247.188 -1.9477 247.504 -1.92582ZM246.787 -2.12637C246.884 -2.03229 246.362 -1.94926 246.587 -1.87015C246.459 -1.85519 246.305 -1.81024 246.099 -1.70533C245.836 -1.92212 246.557 -2.12642 246.781 -2.14272L246.787 -2.12637ZM245.812 -3.63959C245.836 -3.53463 245.367 -3.41615 245.208 -3.29215C245.11 -3.48164 245.63 -3.66008 245.812 -3.63959ZM242.58 -3.65671C243.015 -3.85698 243.433 -4.05043 243.868 -4.2507C243.97 -4.00532 244.191 -4.21246 244.505 -4.3814C244.777 -4.41814 243.965 -4.15663 244.439 -4.1238C244.096 -3.98076 243.92 -4.0803 243.643 -3.86909C243.623 -3.91817 243.602 -3.96725 243.572 -3.99315C243.268 -3.84737 243.146 -3.6811 242.752 -3.61304C242.67 -3.57898 242.713 -3.52037 242.711 -3.48084C242.426 -3.3814 242.735 -3.60624 242.603 -3.64716L242.58 -3.65671ZM242.051 -3.35968C242.107 -3.59411 242.255 -3.32965 242.379 -3.4005C242.369 -3.24238 241.976 -3.07891 241.728 -2.93721C241.45 -3.05177 242.442 -3.38821 242.051 -3.35968ZM239.743 -2.49467C239.903 -2.38831 239.759 -2.27112 239.728 -2.16208C239.434 -2.03948 239.203 -2.03953 239.119 -2.19631C239.331 -2.28486 239.554 -2.39658 239.759 -2.50149L239.743 -2.49467ZM238.922 -2.11457C238.782 -1.80655 239.29 -2.15265 239.318 -1.85685C238.654 -1.79158 237.825 -1.52326 237.173 -1.29033C237.606 -1.68143 238.509 -1.76982 238.906 -2.10776L238.922 -2.11457ZM187.226 0.869365C187.497 0.737211 187.799 0.630963 188.093 0.508356C188.093 0.508356 188.086 0.491998 188.079 0.475639L188.159 0.481109C188.159 0.481109 188.109 0.501541 188.077 0.515164C188.097 0.564239 188.085 0.626937 188.073 0.689635C188.003 0.891353 187.739 1.03987 187.372 1.17336C187.29 1.20742 187.099 1.2101 187.102 1.17057C187.101 1.07516 187.128 0.910236 187.21 0.876178L187.226 0.869365ZM179.93 4.36801C179.542 4.58737 179.137 4.81355 179.055 4.84761C178.272 5.13503 177.814 5.32575 177.474 5.19891C177.404 5.17027 177.37 5.08847 177.399 5.01896C177.447 4.90311 177.598 4.66734 177.637 4.67008C177.966 4.62926 178.259 4.6416 178.587 4.60078C179.028 4.55181 179.589 4.01081 179.923 4.35165L179.93 4.36801ZM176.569 4.27045C176.569 4.27045 176.82 4.08922 176.97 3.98839C176.97 3.98839 176.956 3.95567 176.989 3.94205C177.005 3.93524 177.038 3.92161 177.054 3.9148C177.079 3.7894 177.071 3.67763 177.188 3.59042C177.364 3.45961 177.585 3.48283 177.488 3.61912C177.433 3.71861 177.227 3.82352 177.054 3.9148C177.054 3.9148 177.068 3.94752 177.035 3.96114C177.019 3.96795 176.986 3.98157 176.97 3.98839C176.951 4.03473 176.955 4.09061 176.936 4.13695C176.923 4.19965 176.895 4.26916 176.836 4.31276C176.683 4.45312 176.472 4.40673 176.569 4.27045ZM37.0526 125.207C37.0526 125.207 36.8277 125.128 36.7705 125.037C36.7568 125.004 36.7432 124.971 36.7555 124.909C36.7514 124.853 36.7705 124.806 36.7828 124.744C36.7828 124.744 36.8646 124.71 36.8973 124.696C36.93 124.682 36.9627 124.669 37.0091 124.688C37.2503 124.76 37.2762 124.961 37.0689 125.2L37.0526 125.207ZM230.143 20.6398C230.241 20.5989 230.262 20.648 230.308 20.6671C230.21 20.7079 230.121 20.7256 230.007 20.7733C227.699 22.099 227.187 23.1757 227.345 24.1081C226.874 24.2661 226.289 24.5672 225.779 24.5875C225.453 24.8192 225.074 25.2457 224.769 25.0657C224.474 25.1884 224.594 25.292 224.395 25.4132C224.192 25.4786 224.27 25.1583 224.057 25.2469C224.112 25.3777 223.806 25.4281 223.697 25.6271C223.433 25.5452 222.965 25.7591 222.743 25.6405C222.978 25.4661 223.617 25.0655 223.189 25.0517C223.057 25.4715 222.469 25.8122 221.925 25.9811C221.662 25.9946 221.39 26.0314 221.133 26.0613C221.071 26.049 221.008 26.0367 220.955 26.0013C220.84 26.049 220.854 26.0817 220.877 26.0912C220.709 26.1035 220.532 26.1388 220.364 26.1511C220.334 26.1252 220.305 26.0993 220.268 26.057C220.399 26.0025 220.513 25.9548 220.637 25.884C220.48 25.5077 220.046 25.708 219.555 25.9123C219.609 25.8129 219.68 25.7066 219.705 25.5812C220.068 25.3918 220.586 25.2529 221.142 25.0213C221.204 24.8032 221.054 24.904 220.824 24.904C221.012 24.7105 221.307 24.5879 221.631 24.4912C221.639 24.6029 221.641 24.6983 221.649 24.8101C221.525 24.881 221.407 24.9682 221.26 25.0295C221.288 25.0949 221.367 25.1004 221.429 25.1127C221.495 25.0854 221.56 25.0582 221.609 25.0377C221.526 24.9764 221.562 24.9232 221.637 24.8728C221.651 25.001 221.666 25.1291 221.681 25.2572C221.609 25.2681 221.553 25.2722 221.507 25.2531C221.131 25.4097 221.026 25.6646 220.707 25.6823C220.633 25.8281 220.899 25.775 220.655 25.9726C221.052 25.865 221.326 25.6933 220.937 25.6823C221.15 25.5938 221.411 25.4848 221.69 25.369C221.71 25.4181 222.043 25.4331 222.231 25.47C222.223 25.3582 222.221 25.2628 222.213 25.151C222.54 25.0148 222.837 24.8527 223.019 24.6428C222.846 24.7341 222.786 24.6823 222.629 24.7667C222.649 24.8158 222.434 24.9439 222.212 25.0556C222.204 24.9438 222.195 24.8321 222.197 24.6971C222.197 24.6971 222.167 24.6712 222.144 24.6617C222.209 24.6344 222.258 24.614 222.291 24.6004C222.242 24.6208 222.176 24.648 222.172 24.5922C222.287 24.5445 222.434 24.4832 222.423 24.4109C222.302 24.4422 222.178 24.5131 222.047 24.5676C221.964 24.5062 221.904 24.4544 221.821 24.3931C222.243 24.2555 222.666 24.1179 222.862 23.8058C222.617 23.908 222.341 23.9843 221.954 24.0687C223.609 23.3412 224.445 23.0892 226.056 22.3031C226.083 22.3685 225.943 22.4462 225.954 22.5184C226.333 22.3223 226.347 22.1246 226.758 21.9148C226.795 21.9571 226.813 22.0457 226.927 21.998C226.9 21.9325 227.11 21.8835 227.205 21.8822C227.193 21.7145 226.874 21.9625 226.826 21.848C227.294 21.4038 228.089 21.284 228.76 20.7744C228.994 20.8303 229.422 20.6137 229.725 20.6029C229.718 20.3561 229.462 20.3861 229.781 20.1381C230.075 20.2458 230.608 20.235 230.104 20.637L230.143 20.6398ZM234.282 13.5228C234.277 13.6973 233.971 13.6522 233.892 13.6468C233.93 13.5541 234.152 13.4423 234.302 13.3415C234.323 13.3906 234.201 13.4219 234.143 13.4655C234.163 13.5146 234.209 13.5337 234.291 13.4996L234.282 13.5228ZM233.944 13.3564C233.498 13.2541 232.94 13.851 232.713 14.0418C232.518 13.9886 232.245 14.0253 232.005 14.0484C232.023 14.137 232.216 14.0948 232.076 14.1725C231.782 14.2951 231.626 14.2446 231.419 14.2541C231.473 14.385 231.415 14.4286 231.274 14.5062C230.819 14.1967 230.369 14.0385 229.921 13.9757C230.312 13.7168 230.968 13.5397 231.267 13.473C231.528 13.364 231.095 13.4294 231.196 13.349C232.298 13.1393 233.348 13.1246 234.143 13.2352C234.107 13.2883 234.042 13.3156 233.95 13.3728L233.944 13.3564ZM220.876 18.0682C220.876 18.0682 221.023 18.0069 221.089 17.9797C221.014 18.0301 220.939 18.0805 220.864 18.1309C220.864 18.1309 220.883 18.0846 220.876 18.0682ZM222.625 19.3172C222.88 19.1919 222.987 19.1278 223.128 19.0501C223.141 19.0829 223.155 19.1156 223.169 19.1483C222.967 19.3091 222.735 19.444 222.634 19.294L222.625 19.3172ZM230.626 20.0933C230.38 20.1955 230.394 19.9978 230.149 20.1C230.235 19.8915 230.847 19.8861 230.626 20.0933ZM231.81 19.1585C231.937 19.2785 231.731 19.3834 231.914 19.4993C231.613 19.6055 231.149 19.8753 231.006 19.7621C231.805 19.4679 231.485 19.3901 231.81 19.1585ZM233.994 15.5046C233.728 15.5577 233.695 15.8017 233.526 15.7185C233.492 15.6367 233.816 15.54 233.726 15.4623C233.439 15.6013 233.377 15.4541 233.028 15.6762C233.016 15.9692 231.69 16.6559 231.747 16.2865C231.402 16.5645 231.15 16.6503 231.604 16.6341C231.21 16.7021 230.655 17.0291 230.84 17.1055C230.774 17.0373 230.523 17.2186 230.475 17.104C230.483 16.9855 231.031 16.8725 230.849 16.7566C230.761 16.6393 230.238 17.0876 230.151 16.9704C230.396 16.8682 230.125 16.77 230.433 16.6801C230.298 16.9091 230.658 16.7592 230.86 16.5984C230.73 16.7483 230.928 16.762 231.225 16.5999C230.885 16.5685 230.963 16.4785 231.24 16.2673C230.691 16.5153 230.114 16.6978 229.63 16.9185C229.81 16.8435 229.376 17.1392 229.466 17.2169C228.797 17.5916 228.519 17.4771 227.856 17.8681C227.983 17.7577 227.881 17.7427 227.795 17.7209C227.861 17.6936 227.91 17.6732 227.959 17.6528C228.192 17.6133 228.58 17.3939 228.597 17.3871C228.482 17.4348 228.511 17.3653 228.556 17.289C228.347 17.4334 228.167 17.5083 228.016 17.5138C228.054 17.4211 228.072 17.2793 228.076 17.1049C228.109 17.0912 228.142 17.0776 228.174 17.064C228.208 17.1458 228.285 17.1908 228.38 17.1894C228.546 17.0818 229.055 16.966 228.872 16.8501C228.259 17.2208 228.444 16.8364 228.063 16.8418C228.049 16.8091 228.058 16.7859 228.061 16.7464C228.041 16.6973 228.076 16.6441 228.088 16.5814C228.334 16.4793 228.563 16.3839 228.789 16.3281C228.684 16.3526 228.615 16.3239 228.762 16.2626C229.024 16.1536 229.234 16.1046 229.399 16.1319C229.258 15.9792 229.358 16.0338 229.619 15.9248C229.585 15.843 229.464 15.8743 229.414 15.7993C229.757 15.6563 230.024 15.4683 230.27 15.3661C230.435 15.3934 230.606 15.437 230.799 15.5298C230.852 15.5652 230.908 15.5612 230.961 15.5966C230.403 15.9631 229.527 16.117 229.161 16.3459C229.405 16.3786 229.81 16.1525 230.028 16.2152C229.348 16.5177 229.007 16.3908 228.582 16.5679C228.766 16.7792 229.205 16.6349 229.556 16.6036C229.845 16.7904 228.812 17.0287 228.741 17.3653C229.212 17.1119 229.685 16.819 229.963 16.4728C230.411 16.5356 230.734 16.3435 231.311 16.161C230.991 16.0832 231.059 16.2468 231.055 15.9606C230.805 16.0069 230.782 16.2277 230.678 16.1172C230.696 15.9755 231.096 15.8284 231.113 15.6866C231.353 15.6635 231.449 15.6621 231.693 15.4646C231.693 15.4646 231.686 15.4482 231.663 15.4387C231.712 15.4182 231.731 15.3719 231.773 15.3351C231.773 15.3351 231.764 15.3583 231.787 15.3678C231.924 15.3297 232.017 15.3679 232.074 15.4592C231.829 15.5614 231.59 15.6799 231.335 15.8052C231.577 15.8775 231.389 16.0711 231.808 15.973C231.777 15.8517 231.588 15.9498 231.582 15.7985C231.877 15.6759 232.38 15.4088 232.429 15.6188C232.318 15.492 233.519 15.2414 232.982 15.1963C233.162 15.1214 233.293 15.0669 233.409 15.1147C233.552 15.2278 233.465 15.3409 233.512 15.4554C233.741 15.3601 233.932 15.3574 234.149 15.3247C234.002 15.386 234.171 15.4692 234.047 15.5401L233.994 15.5046ZM233.865 15.2892C233.945 15.0644 234.258 15.1258 234.127 14.9499C234.523 14.7469 234.622 14.8014 234.866 14.6038C234.926 14.886 234.324 15.0985 233.882 15.2824L233.865 15.2892ZM234.584 15.1245C235.167 14.9583 234.547 15.3126 234.272 15.3888C234.303 15.2798 234.39 15.1667 234.533 15.0495C234.753 14.9773 235.031 14.8615 235.231 14.8357C235.205 15.096 234.891 14.9392 234.591 15.1408L234.584 15.1245ZM233.615 14.549C233.615 14.549 233.826 14.5954 233.686 14.6731C233.412 14.6144 233.211 14.8706 232.835 15.0273C232.752 14.9659 232.688 14.8582 232.456 14.9931C232.708 15.1377 232.108 15.3106 232.025 15.2493C232.039 15.282 232.059 15.3311 231.984 15.3815C231.799 15.3051 232.335 15.0244 232.036 15.0912C232.064 15.1566 231.9 15.2247 231.809 15.2819C231.889 15.1525 231.92 15.0434 231.903 14.9548C232.103 14.929 231.957 15.0857 232.308 14.959C232.181 14.839 232.64 14.5134 232.877 14.5298C232.862 14.632 232.62 14.6946 232.873 14.7042C233.021 14.4126 233.507 14.3827 233.37 14.1905C233.849 14.1443 233.882 13.9003 234.437 13.8036C234.487 13.6483 234.294 13.6905 234.427 13.5964C234.592 13.6237 234.689 13.4874 234.806 13.4002C235.11 13.4848 235.349 13.5967 235.45 13.7466C235.004 14.105 234.148 14.5383 233.612 14.5886L233.615 14.549ZM238.445 6.28044C238.322 5.98599 238.871 5.9684 239.368 5.685C239.314 5.8799 238.649 6.08012 238.445 6.28044ZM241.235 4.86896C241.235 4.86896 241.404 4.72178 241.568 4.65367C241.628 4.70548 241.52 4.76952 241.564 4.82814C241.584 4.87722 241.692 4.81317 241.774 4.77912C241.723 4.93449 241.189 5.08022 241.235 4.86896C240.566 5.24364 240.008 5.37982 239.248 5.58137C239.786 5.26118 240.394 4.96962 240.993 4.70124C240.98 4.76393 240.768 4.85249 240.795 4.91792C240.975 4.843 241.204 4.74763 241.235 4.86896ZM241.044 0.860141C241.208 0.792026 241.388 0.717094 241.567 0.642168L241.033 1.01825C241.033 1.01825 240.953 0.917368 241.044 0.860141ZM240.958 1.06867L240.557 1.35072C240.452 1.37523 240.357 1.37658 240.294 1.3643C240.458 1.29619 240.735 1.08497 240.958 1.06867ZM236.786 2.01911C237.016 2.01916 237.193 1.98376 236.945 1.8951C237.362 1.83659 238.041 1.43874 238.355 1.50015C238.419 1.60785 238.285 1.70187 238.421 1.79868C238.008 2.14343 237.121 2.45537 236.529 2.74011C236.596 2.80828 236.672 2.85328 236.817 2.8315C236.743 2.74698 236.804 2.66384 237.017 2.57529C237.156 2.63257 237.163 2.64894 237.145 2.79069C237.367 2.67897 237.59 2.56725 237.647 2.65859C237.516 2.71308 237.401 2.76077 237.277 2.83162C237.373 3.06064 238.152 2.81273 238.354 2.65194C238.2 2.69689 238.082 2.68868 237.989 2.65049C238.113 2.57964 238.102 2.5074 238.21 2.44336C238.593 2.30305 238.418 2.52928 238.626 2.51979C238.735 2.3208 238.765 2.57707 238.856 2.51984C238.894 2.42716 238.909 2.32494 239.138 2.22957C239.152 2.26229 239.165 2.29501 239.195 2.32092L238.635 2.72697C238.635 2.72697 238.581 2.59611 238.388 2.73373C238.402 2.76645 238.402 2.76645 238.432 2.79236C237.343 3.03473 236.588 3.15722 236.061 3.18436C236.205 3.06717 236.348 2.94998 236.554 2.84507C236.164 2.96902 235.677 2.9989 235.257 3.09694C235.151 3.02604 235.101 2.95105 235.109 2.83247C235.141 2.81884 235.158 2.81203 235.2 2.77524C235.227 2.84067 235.113 2.88836 235.196 2.94972C235.935 2.60367 235.702 3.10386 236.483 2.72102C236.596 2.57793 236.597 2.44298 236.806 2.29854C236.57 2.37754 236.668 2.10632 236.76 2.04909L236.786 2.01911ZM236.94 -0.329419C236.94 -0.329419 236.913 -0.394852 236.899 -0.427569C236.991 -0.484796 237.098 -0.548833 237.262 -0.616948C237.319 -0.525609 237.12 -0.404342 236.956 -0.336227L236.94 -0.329419ZM237.051 -1.12406C236.71 -1.02054 236.853 -1.13773 236.471 -0.902009C236.315 -1.04789 237.062 -1.28217 237.051 -1.12406ZM230.696 -0.435838C230.756 -0.614385 231.219 -0.653796 231.234 -0.525665C230.909 -0.29402 230.941 -0.53801 230.696 -0.435838ZM220.035 7.15122C220.024 7.30934 219.99 7.45791 219.9 7.61055C219.859 7.5124 219.779 7.41151 219.738 7.31336C219.754 7.30655 219.757 7.26702 219.79 7.2534C219.871 7.21934 219.953 7.18528 220.035 7.15122ZM149.702 23.4616C149.702 23.4616 149.67 23.4752 149.653 23.482C149.735 23.6783 149.6 23.9073 149.273 24.0435C148.635 24.3092 147.97 24.5094 147.314 24.6864C147.216 24.7273 147.099 24.5841 147.009 24.5064C146.992 24.5132 146.96 24.5269 146.943 24.5337C146.943 24.5337 146.93 24.501 146.907 24.4914C146.746 24.52 146.559 24.5786 146.466 24.5404C146.327 24.4831 146.457 24.3332 146.648 24.3305C146.766 24.3387 146.84 24.4232 146.907 24.4914C146.939 24.4778 146.956 24.471 146.988 24.4574C146.988 24.4574 146.988 24.4574 146.995 24.4737C147.161 24.3661 147.351 24.268 147.438 24.1549C147.895 23.6384 148.432 23.4531 149.088 23.5064C149.246 23.5174 149.456 23.4683 149.64 23.4493C149.656 23.4425 149.689 23.4289 149.705 23.4221C149.724 23.3757 149.72 23.3198 149.739 23.2735C149.752 23.2108 149.78 23.1413 149.839 23.0977C150.015 22.9669 150.212 22.9805 150.122 23.1332C150.051 23.2395 149.878 23.3308 149.722 23.4152C149.722 23.4152 149.728 23.4316 149.719 23.4548L149.702 23.4616ZM144.872 21.4036C144.872 21.4036 144.685 21.4622 144.606 21.4567C144.416 21.4594 144.192 21.4757 144.037 21.4252C143.911 21.4006 143.864 21.2861 143.78 21.2248C143.963 21.1103 144.153 21.0122 144.319 20.9046C144.702 20.7643 144.962 20.7902 144.995 21.007C145.019 21.1119 144.929 21.2646 144.872 21.4036ZM186.622 12.4648C186.363 12.5343 186.104 12.6037 185.852 12.6896C185.864 12.6269 185.86 12.571 185.856 12.5151C186.043 12.4565 186.25 12.447 186.452 12.5166C186.498 12.5357 186.564 12.5084 186.629 12.4812L186.622 12.4648ZM173.931 6.00229C174.753 5.48724 175.429 5.81999 176.228 5.52575C176.31 5.49169 176.453 5.60486 176.552 5.65941C176.369 5.77386 176.177 5.91149 175.995 6.02594C175.704 6.20444 175.572 6.39387 175.558 6.59151C175.558 6.59151 175.575 6.5847 175.591 6.57789C175.591 6.57789 175.605 6.61061 175.611 6.62697C175.89 6.51117 176.184 6.38856 176.476 6.30548C176.557 6.27143 176.739 6.29191 176.739 6.29191C176.701 6.38459 176.666 6.53316 176.575 6.59039C176.311 6.7389 176.003 6.82879 175.708 6.9514C175.708 6.9514 175.715 6.96776 175.722 6.98411C175.722 6.98411 175.722 6.98412 175.705 6.99093C175.914 7.07685 176.122 7.16277 176.298 7.26232C176.421 7.32641 176.629 7.41233 176.582 7.52818C176.321 8.19329 175.8 8.83245 174.857 9.37882C174.742 9.4265 174.515 9.38692 174.331 9.40596C174.657 8.94395 174.973 8.50512 174.211 8.3809C173.614 8.28398 173.01 8.40107 172.307 8.69396C172.209 8.73483 172.1 8.70346 171.967 8.66253C171.928 8.6598 171.882 8.6407 171.842 8.63797C171.884 8.60117 171.903 8.55484 171.946 8.51805C171.988 8.48125 172.014 8.45127 172.063 8.43084C173.257 7.9336 174.481 7.46226 175.689 6.99774C175.689 6.99774 175.666 6.98819 175.643 6.97864C175.659 6.97183 175.675 6.96502 175.692 6.95821C175.644 6.8437 175.62 6.73874 175.588 6.61742C175.572 6.62423 175.539 6.63785 175.523 6.64466C175.516 6.62831 175.542 6.59833 175.535 6.58197C174.667 6.84756 174.205 6.52168 173.549 6.46837C173.47 6.46289 173.41 6.41109 173.341 6.38245C173.523 6.26799 173.716 6.13037 173.898 6.01591L173.931 6.00229ZM169.085 7.73225C169.085 7.73225 169.175 7.57961 169.266 7.52238C169.315 7.50195 169.446 7.44745 169.492 7.46655C169.873 7.59613 170.175 7.81565 170.617 7.8621C171.263 7.93858 171.229 7.62643 171.264 7.34292C171.279 7.2407 171.455 7.10988 171.575 6.98314C171.698 7.04724 171.877 7.10725 171.917 7.2054C172.171 7.90608 172.086 7.97967 170.544 8.56406C169.713 8.87192 169.515 8.85824 169.335 8.47245C169.24 8.24344 169.138 7.99806 169.085 7.73225ZM164.132 10.3127C164.132 10.3127 164.26 10.2978 164.333 10.2869C164.346 10.3196 164.383 10.3619 164.373 10.385C164.277 10.5213 164.123 10.5663 163.97 10.4763C163.97 10.4763 164.074 10.3563 164.149 10.3059L164.132 10.3127ZM163.809 12.8084C163.897 12.5604 164.053 12.3805 164.436 12.2402C164.877 12.0563 165.416 11.7361 165.774 11.7212C167.024 11.6806 168.238 11.137 169.466 10.7215C169.629 10.6534 169.887 10.7189 169.977 10.7966C170.134 10.9425 170.084 11.1933 169.745 11.3922C169.324 11.6252 168.928 11.8282 169.025 12.1527C169.827 12.0493 170.579 12.1966 171.4 11.3558C171.734 11.0056 172.655 10.7754 173.34 10.5289C173.47 10.4744 173.686 10.5767 173.783 10.6708C173.986 10.8357 173.792 11.1083 173.465 11.2445C170.997 12.2335 168.493 13.1803 166.019 14.1529C165.512 14.3641 165.196 14.3422 164.991 14.0818C164.874 13.9387 164.551 13.9004 164.3 13.8513C164.043 13.7858 163.556 13.8157 163.541 13.6876C163.502 13.4545 163.763 13.1151 163.855 12.8275L163.809 12.8084ZM141.357 19.9688C141.8 19.8803 142.224 19.8382 142.674 19.766C143.245 19.6626 143.805 19.4869 144.261 19.1053C144.42 18.9813 144.651 18.751 144.746 18.7497C146.503 18.7283 148.083 17.5905 149.761 17.1029C150.872 16.7747 151.904 16.2106 153.11 16.1114C153.886 16.0379 154.892 15.5039 155.789 15.1688C157.567 14.5054 159.302 13.6484 161.139 13.4975C161.698 13.4568 162.377 12.8285 162.924 13.0808C162.421 13.5782 161.666 13.7007 161.028 13.9664C160.471 14.198 159.908 14.4132 159.345 14.6285C158.439 14.9867 157.542 15.3218 156.635 15.6801C155.965 15.9594 155.343 16.2182 154.81 16.6897C154.404 17.0508 153.714 17.3764 153.259 17.2973C152.599 17.1881 152.307 17.7319 151.864 17.8204C151.316 17.9334 150.764 17.9905 150.273 17.9645C149.694 17.9562 149.165 18.2532 148.608 18.3894C147.873 18.5609 147.524 19.2437 146.87 19.2859C146.041 19.3238 145.29 19.7326 144.517 19.9968C143.842 20.2202 143.148 20.4899 142.477 20.7692C141.872 21.0212 141.341 21.1274 140.888 21.0087C140.654 20.9528 140.464 20.8205 140.363 20.6706C140.256 20.5043 140.832 20.0914 141.331 19.9988L141.357 19.9688ZM128.645 21.6152C128.927 21.3249 128.986 20.8206 129.76 20.8821C130.218 20.9217 130.282 20.5687 130.551 20.4761C130.698 20.4148 131.024 20.4135 131.021 20.453C131 20.6343 131.007 20.881 130.822 21.035C130.61 21.219 130.214 21.3266 129.952 21.4355C129.562 21.5595 129.235 21.6957 128.904 21.7761C128.596 21.866 128.466 21.7855 128.628 21.622L128.645 21.6152ZM125.616 24.0666C125.616 24.0666 125.779 23.9985 125.828 23.9781C126.019 23.9754 126.004 24.0776 125.779 24.2289C125.746 24.2425 125.621 24.2179 125.568 24.1825C125.561 24.1661 125.606 24.0898 125.632 24.0598L125.616 24.0666ZM123.303 23.6285C123.303 23.6285 123.556 23.6381 123.553 23.6777C123.574 23.7267 123.411 23.8903 123.372 23.8875C123.037 23.912 123.019 23.8234 123.303 23.6285ZM121.628 25.5541C121.628 25.5541 121.865 25.5706 121.879 25.6033C121.899 25.6523 121.737 25.8159 121.698 25.8131C121.362 25.8376 121.345 25.749 121.628 25.5541ZM120.772 25.066C120.772 25.066 120.986 25.0728 121 25.1056C121.014 25.1383 120.896 25.2255 120.828 25.2923C120.756 25.3031 120.684 25.314 120.605 25.3086C120.666 25.2254 120.704 25.1327 120.766 25.0496L120.772 25.066ZM117.733 27.5406C117.733 27.5406 117.898 27.5679 117.961 27.5802C117.909 27.6401 117.841 27.7069 117.789 27.7669C117.717 27.7778 117.661 27.7818 117.589 27.7927C117.634 27.7164 117.695 27.6333 117.74 27.5569L117.733 27.5406ZM103.614 31.8459C103.818 31.6456 104.139 31.493 104.439 31.2914C104.767 31.2505 105.063 31.2234 105.375 31.1894C105.216 31.3134 105.063 31.4537 104.887 31.5845C104.711 31.7153 104.528 31.8298 104.346 31.9442C104.254 32.0015 104.17 32.0751 104.085 32.1486C103.9 32.3026 103.69 32.3517 103.58 32.2249C103.506 32.1403 103.503 31.9495 103.614 31.8459ZM101.623 35.1318C101.623 35.1318 101.675 35.0719 101.724 35.0514C101.773 35.031 101.868 35.0297 101.924 35.0256C101.938 35.0583 101.951 35.091 101.949 35.1305C101.811 35.1687 101.667 35.1904 101.529 35.2286C101.562 35.215 101.581 35.1686 101.623 35.1318ZM95.8222 33.094C95.8222 33.094 95.9872 33.1213 96.0662 33.1268C95.9981 33.1936 95.9463 33.2536 95.8781 33.3203C95.8058 33.3312 95.7336 33.3421 95.6613 33.353C95.7227 33.2699 95.7677 33.1935 95.8222 33.094ZM93.5644 35.6465C93.5644 35.6465 93.713 35.6807 93.822 35.712C93.7538 35.7788 93.657 35.9151 93.6175 35.9124C93.2822 35.9368 93.2645 35.8482 93.5644 35.6465ZM88.6009 38.3851C88.6009 38.3851 88.6036 38.3456 88.6199 38.3388C88.6199 38.3388 88.669 38.3184 88.7017 38.3047C88.6418 38.0226 88.9418 37.8209 89.3902 37.6534C89.472 37.6193 89.5906 37.6275 89.6765 37.6493C89.8414 37.6766 89.8168 37.802 89.5687 37.9437C89.3043 38.0922 88.9962 38.1821 88.7017 38.3047C88.7017 38.3047 88.7085 38.3211 88.7154 38.3375C88.6826 38.3511 88.6499 38.3647 88.6172 38.3783C88.5858 38.4874 88.5545 38.5964 88.4999 38.6959C88.4999 38.6959 88.2873 38.7845 88.2804 38.7681C88.1496 38.5922 88.3718 38.4805 88.6172 38.3783L88.6009 38.3851ZM79.3534 40.2395C79.3534 40.2395 79.3602 40.2558 79.367 40.2722C79.9982 39.9902 80.7943 39.7355 81.1678 39.388C81.7036 38.877 82.3537 39.2397 82.8623 38.6632C83.1991 38.2735 84.0769 37.9847 84.5718 37.6059C85.1512 37.1535 85.8164 36.9533 86.4776 36.6972C86.8375 36.5473 87.1237 36.5433 87.2777 36.7287C87.4385 36.9305 87.2313 37.1703 86.9109 37.3229C86.3683 37.5872 85.7985 37.7861 85.2492 38.0341C85.151 38.0749 85.1074 38.2467 85.1087 38.3421C85.1155 38.3584 85.2968 38.3789 85.4017 38.3544C85.7357 38.2345 86.0793 38.0915 86.42 37.988C86.5182 37.9471 86.6272 37.9785 86.7226 37.9771C86.8876 38.0044 86.8535 38.153 86.559 38.2756C85.7056 38.6693 84.8414 38.9908 84.0929 39.5904C83.6635 39.942 82.6888 40.367 82.1953 40.3805C81.2412 40.3939 79.8603 40.9498 79.4065 40.2749C79.3902 40.2817 79.3575 40.2954 79.3247 40.309L79.3766 40.249L79.3534 40.2395ZM21.3078 84.3524C21.3078 84.3524 21.1265 84.332 21.0475 84.3265C21.1156 84.2597 21.177 84.1766 21.2615 84.103C21.3474 84.1248 21.4333 84.1466 21.5355 84.1617C21.4673 84.2284 21.3964 84.3347 21.3146 84.3688L21.3078 84.3524ZM23.2813 91.3045C23.2268 91.1737 23.2841 91.0347 23.404 90.9079C23.524 90.7812 23.7135 90.6831 23.9725 90.6136C24.0352 90.6259 24.1374 90.6409 24.2233 90.6628C24.3092 90.6846 24.3719 90.6969 24.3555 90.7037C24.1292 90.9899 23.8729 91.2502 23.6234 91.5268C23.517 91.4559 23.329 91.419 23.3044 91.3141L23.2813 91.3045ZM23.8167 98.03C23.8659 97.7792 23.9082 97.5121 24.0105 97.2967C24.1605 96.9656 24.3269 96.6276 24.5736 96.3904C24.7945 96.1833 25.0644 96.1861 25.2674 96.3511C25.1801 96.6945 25.0996 97.0544 25.1105 97.357C25.1295 97.541 25.0204 97.74 24.9181 97.9553C24.7873 98.0098 24.6564 98.0643 24.5255 98.1188C24.2815 98.086 24.0444 98.0696 23.8004 98.0368L23.8167 98.03ZM35.5904 105.93C35.5086 105.964 35.3655 105.851 35.2497 105.804C35.2974 105.688 35.3411 105.516 35.4229 105.482C35.5047 105.448 35.6478 105.561 35.78 105.602C35.6995 105.731 35.6722 105.896 35.5904 105.93ZM43.9439 115.159C43.7231 115.136 43.4791 115.103 43.2583 115.08C43.4137 114.9 43.5351 114.638 43.7314 114.556C43.9277 114.475 44.1893 114.596 44.4333 114.629C44.2779 114.809 44.1061 114.995 43.9507 115.175L43.9439 115.159ZM45.3277 113.642C45.3277 113.642 45.1819 113.569 45.1056 113.524C45.2228 113.436 45.3469 113.365 45.4478 113.285C45.4818 113.367 45.3687 113.51 45.3046 113.633L45.3277 113.642ZM68.0329 116.818C68.0329 116.818 67.8312 116.748 67.7413 116.671C67.7045 116.628 67.729 116.503 67.7345 116.424C67.8163 116.39 67.9008 116.316 67.9635 116.329C68.198 116.385 68.2238 116.585 68.0166 116.825L68.0329 116.818ZM70.8022 119.043C70.7462 119.278 70.5622 119.297 70.3387 119.083C70.3319 119.066 70.4015 118.864 70.4696 118.798C70.5119 118.761 70.6278 118.809 70.7068 118.814C70.7409 118.896 70.8145 118.98 70.8022 119.043ZM66.8671 101.065C66.6545 101.153 66.4568 101.14 66.2715 101.063C66.5604 101.02 66.859 100.953 67.1439 100.854C67.0661 100.943 66.9748 101.001 66.8671 101.065ZM75.2814 118.138C75.1492 118.097 75.0006 118.063 74.8684 118.022C74.8998 117.913 74.9544 117.813 74.9857 117.704C75.0852 117.759 75.1847 117.813 75.2842 117.868L75.2746 118.121L75.2814 118.138ZM74.7197 101.346C74.7197 101.346 74.5043 101.244 74.4048 101.189C74.4594 101.09 74.4799 100.908 74.5521 100.898C74.6339 100.863 74.7606 100.983 74.8765 101.031C74.8219 101.131 74.7742 101.247 74.7033 101.353L74.7197 101.346ZM82.4981 97.992C82.4272 98.0983 82.3931 98.2468 82.3018 98.304C81.5165 98.8614 80.7109 98.9089 79.8687 98.2231C79.7856 98.1617 79.7147 98.0376 79.7202 97.9586C79.7447 97.8332 79.8375 97.641 79.9165 97.6465C80.4727 97.6453 81.0193 97.6672 81.5726 97.7055C81.683 97.8323 81.7934 97.9591 81.8779 98.1158C82.0306 97.9755 82.1737 97.8583 82.3101 97.7247C82.3496 97.7275 82.4055 97.7234 82.445 97.7261C82.445 97.7261 82.4736 97.887 82.4913 97.9756L82.4981 97.992ZM84.5252 97.2823C84.5252 97.2823 84.3234 97.2127 84.2335 97.135C84.1967 97.0927 84.2444 96.9769 84.2594 96.8746C84.3249 96.8474 84.4162 96.7902 84.4789 96.8025C84.7202 96.8748 84.7392 97.0588 84.5183 97.2659L84.5252 97.2823ZM227.256 26.4294C227.256 26.4294 227.094 26.3626 227.001 26.3244C226.933 26.1608 226.868 25.9577 226.8 25.7941C227.159 25.6442 227.506 25.4617 227.844 25.3977C227.844 25.3977 227.877 25.3841 227.87 25.3677C227.904 25.4495 227.971 25.5177 228.005 25.5995C227.722 25.8897 227.473 26.1664 227.247 26.4526L227.256 26.4294Z" fill="#FF3D00"/>
<path d="M210.554 3.19069C211.716 2.70708 212.535 1.77084 214.868 1.0108C214.767 1.09119 214.692 1.14161 214.524 1.15384C214.572 1.26835 214.733 1.23976 214.964 1.10487C214.944 1.05579 214.93 1.02308 214.966 0.969928C215.048 0.93587 215.129 0.901811 215.218 0.884112C215.616 0.411221 215.643 0.0159422 215.442 -0.283979C216.008 -0.538741 216.84 -0.751188 217.284 -1.07004C216.691 -0.880714 216.055 -0.654591 215.401 -0.38213C214.906 -0.924746 213.551 -1.09 212.273 -0.749529C211.639 0.493439 207.764 2.75931 210.571 3.18388L210.554 3.19069Z" fill="#FF3D00"/>
<path d="M22.692 69.9752C22.8897 69.7585 23.0042 69.4805 22.5026 69.6126C22.0337 69.7311 21.6792 69.8019 21.4953 69.5906C20.9609 69.9666 20.4265 70.3427 19.9316 70.7215C19.8825 70.742 19.9874 70.9478 20.1128 70.9724C21.1651 71.1485 21.8916 70.8651 22.6988 69.9916L22.692 69.9752Z" fill="#FF3D00"/>
<path d="M190.926 -0.248797C190.935 -0.732683 191.614 -0.900181 192.138 -1.11815C191.948 -1.48077 191.327 -1.45229 190.739 -1.34202C190.362 -1.28077 189.868 -1.0369 189.566 -0.795706C189.204 -0.51091 189.444 -0.303666 189.507 -0.061026C189.98 -0.123616 190.46 -0.169847 190.933 -0.232438L190.926 -0.248797Z" fill="#FF3D00"/>
<path d="M19.1898 84.5238C18.916 84.4651 18.6422 84.4065 18.3398 84.4173C18.1655 84.4132 17.8576 84.503 17.7077 84.6038C17.2581 84.9061 17.6791 84.9035 17.8125 85.0397C18.0154 85.2046 18.1434 85.4198 18.2973 85.6051C18.5098 85.5166 18.7196 85.4677 18.9253 85.3628C19.5915 85.0279 19.7047 84.6547 19.1803 84.5469L19.1898 84.5238Z" fill="#FF3D00"/>
<path d="M18.3132 85.5994C18.3132 85.5994 18.2812 85.6127 18.2652 85.6194C18.2652 85.6194 18.2718 85.6354 18.2785 85.6514C18.2945 85.6448 18.3106 85.6381 18.3426 85.6247C18.3426 85.6247 18.3359 85.6087 18.3293 85.5927L18.3132 85.5994Z" fill="#FF3D00"/>
<path d="M165.998 7.78843C166.227 7.69313 166.44 7.60464 166.675 7.52569C166.573 7.28047 166.494 7.0448 166.409 6.79277C166.212 6.87446 165.986 6.93026 165.79 7.01194C165.11 7.31419 165.11 7.31418 165.633 7.55677C165.756 7.62082 165.862 7.69168 165.985 7.75573L165.998 7.78843Z" fill="#FF3D00"/>
<path d="M17.3206 76.5302C17.4174 76.394 17.4024 76.266 17.4365 76.1175C17.2949 76.0998 17.0769 76.0371 17.0442 76.0507C16.8685 76.1814 16.7227 76.338 16.6259 76.4742C16.5455 76.6036 16.4719 76.7493 16.4733 76.8447C16.4882 76.9727 17.1558 76.7331 17.3234 76.4907L17.3206 76.5302Z" fill="#FF3D00"/>
<path d="M19.1272 87.2752C19.1272 87.2752 19.307 87.2003 19.3166 87.1771C19.3466 86.9728 19.3998 86.778 19.3644 86.601C19.3113 86.3353 19.0893 86.2168 18.5853 86.3883C18.6846 86.673 18.7677 86.9645 18.8834 87.2424C18.9038 87.2915 19.0387 87.2929 19.134 87.2915L19.1272 87.2752Z" fill="#FF3D00"/>
<path d="M18.5769 86.3718L18.5635 86.3398C18.5315 86.3531 18.5315 86.3531 18.4994 86.3665L18.5128 86.3985C18.5128 86.3985 18.5448 86.3852 18.5769 86.3718Z" fill="#FF3D00"/>
<path d="M19.8603 89.3123C19.803 89.4513 19.6804 89.6174 19.7144 89.6992C19.8301 89.9771 20.2279 89.9649 20.7075 89.6885C20.7919 89.615 20.8601 89.5482 20.9445 89.4747C20.6871 89.4092 20.4297 89.3438 20.1627 89.3015C20.0769 89.2797 19.9556 89.311 19.8535 89.296L19.8603 89.3123Z" fill="#FF3D00"/>
<path d="M147.398 12.6739C147.123 12.5199 146.846 12.731 146.582 12.8794C146.5 12.9135 146.462 13.0061 146.394 13.0728C146.666 13.0361 146.955 12.9926 147.237 12.9327C147.286 12.9123 147.369 12.7434 147.414 12.6671L147.398 12.6739Z" fill="#FF3D00"/>
<path d="M115.568 25.4287C115.434 25.5227 115.226 25.6671 115.22 25.7462C115.241 26.0256 115.447 26.1511 115.967 25.9726C115.899 25.809 115.88 25.625 115.796 25.4682C115.775 25.4192 115.578 25.4055 115.552 25.4355L115.568 25.4287Z" fill="#FF3D00"/>
<path d="M115.984 25.9658C115.984 25.9658 115.99 25.9812 115.997 25.9966C116.012 25.9902 116.027 25.9838 116.043 25.9774C116.043 25.9774 116.043 25.9774 116.036 25.962C116.021 25.9684 116.006 25.9748 115.99 25.9812L115.984 25.9658Z" fill="#FF3D00"/>
<path d="M166.866 6.04559C166.866 6.04559 166.596 6.0428 166.452 6.06457C166.419 6.0782 166.315 6.19812 166.319 6.25401C166.348 6.41486 166.4 6.58525 166.452 6.75565C166.664 6.6671 166.861 6.58536 167.073 6.49681C167.005 6.33323 166.977 6.17238 166.882 6.03878L166.866 6.04559Z" fill="#FF3D00"/>
<path d="M207.665 2.93518C207.734 2.73346 207.827 2.54129 207.848 2.36C207.834 2.32729 207.545 2.37084 207.394 2.37625C207.032 2.66105 207.264 2.75652 207.414 2.88604C207.467 2.9215 207.579 2.91334 207.648 2.94198L207.665 2.93518Z" fill="#FF3D00"/>
<path d="M18.4921 86.3498C18.4131 86.1141 18.3342 85.8784 18.2716 85.636C17.9773 85.7585 17.7661 85.9423 17.7688 86.133C17.7892 86.4123 18.0207 86.5077 18.4921 86.3498Z" fill="#FF3D00"/>
<path d="M80.2264 36.344C80.2264 36.344 80.0547 36.3004 79.9689 36.2786C79.9008 36.3453 79.7836 36.4325 79.7877 36.4883C79.8013 36.521 79.9362 36.5224 80.022 36.5442C80.0901 36.4775 80.1582 36.4108 80.2195 36.3277L80.2264 36.344Z" fill="#FF3D00"/>
<path d="M82.8833 35.2569C82.8833 35.2569 82.7348 35.2229 82.6721 35.2106C82.6204 35.2705 82.5522 35.3372 82.5005 35.3972C82.5958 35.3958 82.7143 35.404 82.8097 35.4027C82.8287 35.3564 82.8642 35.3033 82.8833 35.2569Z" fill="#FF3D00"/>
<path d="M77.643 37.7461C77.643 37.7461 77.4482 37.693 77.3665 37.727C77.3011 37.7542 77.2302 37.8605 77.1621 37.9272C77.2411 37.9327 77.3433 37.9477 77.4386 37.9463C77.4904 37.8864 77.5749 37.8129 77.643 37.7461Z" fill="#FF3D00"/>
<path d="M85.2059 35.2113C85.2059 35.2113 85.0438 35.1445 84.9621 35.1785C84.8967 35.2057 84.8422 35.3052 84.7741 35.3719C84.8858 35.3637 85.0043 35.3719 85.1323 35.357C85.1514 35.3107 85.1868 35.2576 85.2059 35.2113Z" fill="#FF3D00"/>
<path d="M87.0968 34.4048C87.0968 34.4048 86.966 34.4592 86.9006 34.4865C86.8815 34.5328 86.8134 34.5995 86.8434 34.6254C86.8965 34.6608 87.0218 34.6854 87.0545 34.6718C87.2793 34.5206 87.2779 34.4253 87.1036 34.4211L87.0968 34.4048Z" fill="#FF3D00"/>
<path d="M83.8658 36.0955C83.8658 36.0955 83.7146 36.1009 83.6656 36.1213C83.5839 36.1554 83.5389 36.2317 83.4871 36.2916L83.9067 36.1936C83.9067 36.1936 83.8795 36.1282 83.8658 36.0955Z" fill="#FF3D00"/>
<path d="M124.861 20.9643C124.861 20.9643 124.667 21.0065 124.658 21.0296C124.61 21.1454 124.579 21.2544 124.541 21.347C124.786 21.2449 124.985 21.1237 124.861 20.9643Z" fill="#FF3D00"/>
<path d="M124.545 21.3645C124.545 21.3645 124.465 21.3978 124.433 21.4111C124.433 21.4111 124.462 21.4365 124.485 21.4458C124.485 21.4458 124.517 21.4325 124.533 21.4258C124.533 21.4258 124.552 21.3805 124.545 21.3645Z" fill="#FF3D00"/>
<path d="M140.585 14.9349C140.585 14.9349 140.437 14.9008 140.351 14.879C140.283 14.9457 140.156 15.056 140.186 15.0819C140.343 15.2277 140.513 15.176 140.585 14.9349Z" fill="#FF3D00"/>
<path d="M133.502 18.3066C133.502 18.3066 133.439 18.3331 133.407 18.3463C133.407 18.3463 133.413 18.3622 133.42 18.3781C133.436 18.3715 133.468 18.3582 133.484 18.3516C133.484 18.3516 133.493 18.3291 133.502 18.3066Z" fill="#FF3D00"/>
<path d="M133.835 17.8994C133.835 17.8994 133.625 17.9484 133.615 17.9715C133.568 18.0873 133.536 18.1963 133.489 18.312C133.75 18.2031 133.956 18.0983 133.818 17.9062L133.835 17.8994Z" fill="#FF3D00"/>
<path d="M137.14 16.849C137.209 16.7823 137.342 16.6883 137.338 16.6325C137.318 16.5835 137.183 16.5821 137.081 16.5671C137.012 16.6338 136.902 16.7373 136.899 16.7768C136.92 16.8258 137.055 16.8272 137.14 16.849Z" fill="#FF3D00"/>
<path d="M145.449 13.5239C145.449 13.5239 145.415 13.4421 145.401 13.4094C145.329 13.4203 145.243 13.3985 145.201 13.4353C145.119 13.4693 145.006 13.6123 145.029 13.6218C145.182 13.7118 145.343 13.6832 145.456 13.5402L145.449 13.5239Z" fill="#FF3D00"/>
<path d="M150.503 12.3405C150.503 12.3405 150.325 12.2806 150.236 12.2983C150.171 12.3255 150.051 12.4521 150.048 12.4916C150.062 12.5243 150.197 12.5257 150.283 12.5475C150.351 12.4808 150.435 12.4073 150.503 12.3405Z" fill="#FF3D00"/>
<path d="M152.526 11.575C152.526 11.575 152.355 11.5314 152.269 11.5096C152.201 11.5763 152.084 11.6634 152.088 11.7193C152.101 11.752 152.236 11.7534 152.322 11.7752C152.39 11.7085 152.458 11.6417 152.503 11.5655L152.526 11.575Z" fill="#FF3D00"/>
<path d="M159.957 9.22945C159.957 9.22945 160.07 9.08644 160.138 9.01971C160.076 9.00744 159.937 8.9502 159.904 8.96381C159.598 9.14899 159.622 9.25389 159.957 9.22945Z" fill="#FF3D00"/>
<path d="M152.561 14.0558C152.561 14.0558 152.396 14.0285 152.334 14.0163C152.266 14.083 152.214 14.1429 152.146 14.2097C152.264 14.2179 152.376 14.2097 152.495 14.2179C152.514 14.1716 152.549 14.1185 152.568 14.0722L152.561 14.0558Z" fill="#FF3D00"/>
<path d="M21.5474 69.492C21.5474 69.492 21.4833 69.5187 21.4353 69.5387C21.442 69.5547 21.4647 69.564 21.4873 69.5734C21.4873 69.5734 21.5193 69.5601 21.5354 69.5534C21.5354 69.5534 21.554 69.508 21.5474 69.492Z" fill="#FF3D00"/>
<path d="M21.87 69.1082C21.87 69.1082 21.6602 69.1572 21.6574 69.1967C21.6029 69.2961 21.5716 69.4051 21.5402 69.514C21.7691 69.4187 21.9911 69.3071 21.8604 69.1313L21.87 69.1082Z" fill="#FF3D00"/>
<path d="M181.138 8.14528C181.138 8.14528 181.193 8.04585 181.212 7.99955C181.133 7.99408 181.056 7.94911 180.984 7.95999C180.912 7.97087 180.857 8.07029 180.806 8.13022C180.917 8.12207 181.036 8.13027 181.131 8.12893L181.138 8.14528Z" fill="#FF3D00"/>
<path d="M198.177 3.89128C198.177 3.89128 197.968 3.94027 197.958 3.96342C197.904 4.06285 197.889 4.165 197.857 4.27397C198.086 4.17867 198.315 4.08337 198.184 3.90762L198.177 3.89128Z" fill="#FF3D00"/>
<path d="M197.848 4.25893C197.848 4.25893 197.784 4.2856 197.752 4.29893C197.752 4.29893 197.733 4.34427 197.74 4.36028C197.772 4.34695 197.804 4.33362 197.836 4.32029L197.854 4.27494L197.848 4.25893Z" fill="#FF3D00"/>
<path d="M17.65 74.6466C17.65 74.6466 17.5015 74.6126 17.4157 74.5907C17.3475 74.6575 17.2372 74.761 17.2345 74.8005C17.2481 74.8332 17.3897 74.8509 17.4687 74.8564C17.5369 74.7896 17.5818 74.7134 17.65 74.6466Z" fill="#FF3D00"/>
<path d="M197.616 4.66242C197.616 4.66242 197.685 4.46084 197.717 4.35187C197.488 4.44717 197.282 4.55201 197.396 4.73457C197.396 4.73457 197.606 4.68557 197.609 4.64607L197.616 4.66242Z" fill="#FF3D00"/>
<path d="M200.446 3.48418C200.446 3.48418 200.297 3.45009 200.218 3.44462C200.157 3.5277 200.112 3.60397 200.05 3.68705C200.123 3.67617 200.179 3.67209 200.258 3.67756C200.309 3.61764 200.377 3.55091 200.429 3.49098L200.446 3.48418Z" fill="#FF3D00"/>
<path d="M201.389 4.32003C201.389 4.32003 201.237 4.32544 201.188 4.34586C201.107 4.37989 201.062 4.45617 200.994 4.5229C201.131 4.48479 201.276 4.46303 201.413 4.42492C201.4 4.39222 201.386 4.35953 201.372 4.32683L201.389 4.32003Z" fill="#FF3D00"/>
<path d="M18.2111 77.1002C18.2111 77.1002 18.331 76.9735 18.3991 76.9068C18.3133 76.885 18.1975 76.8373 18.1648 76.8509C17.8583 77.0361 17.876 77.1246 18.2111 77.1002Z" fill="#FF3D00"/>
<path d="M166.537 12.4017C166.537 12.4017 166.363 12.3975 166.321 12.4343C166.239 12.4683 166.194 12.5446 166.126 12.6113C166.27 12.5896 166.408 12.5515 166.552 12.5297C166.539 12.497 166.541 12.4575 166.544 12.418L166.537 12.4017Z" fill="#FF3D00"/>
<path d="M167.718 12.3323C167.718 12.3323 167.7 12.4739 167.733 12.4603C167.884 12.4549 168.045 12.4263 168.206 12.3978C168.151 12.267 168.087 12.1594 167.718 12.3323Z" fill="#FF3D00"/>
<path d="M168.803 12.4947C168.885 12.4607 168.879 12.3094 168.904 12.184C168.708 12.2657 168.511 12.3475 168.315 12.4292C168.386 12.5533 168.463 12.6937 168.81 12.5111L168.803 12.4947Z" fill="#FF3D00"/>
<path d="M168.305 12.412C168.305 12.412 168.292 12.3802 168.285 12.3643C168.253 12.3775 168.238 12.3841 168.199 12.3815C168.206 12.3974 168.219 12.4292 168.226 12.4451C168.257 12.4318 168.273 12.4252 168.305 12.412Z" fill="#FF3D00"/>
<path d="M168.906 12.1446C168.906 12.1446 168.913 12.1605 168.903 12.183C168.935 12.1698 168.951 12.1632 168.983 12.1499L168.906 12.1446Z" fill="#FF3D00"/>
<path d="M82.6302 39.7196C82.6302 39.7196 82.7501 39.5929 82.8182 39.5262C82.7392 39.5207 82.6534 39.4989 82.5907 39.4866C82.5294 39.5697 82.4844 39.646 82.4231 39.729C82.4231 39.729 82.5675 39.7073 82.6465 39.7127L82.6302 39.7196Z" fill="#FF3D00"/>
<path d="M223.25 24.7384C223.021 24.8337 222.895 24.944 222.84 25.0434C223.014 25.0475 223.337 24.8555 223.25 24.7384Z" fill="#FF3D00"/>
<path d="M193.147 9.42155C192.793 9.4923 192.206 9.83271 191.948 9.76727C192.015 9.83539 191.907 9.89939 191.958 9.97432C192.364 9.61344 193.039 9.71576 193.147 9.42155Z" fill="#FF3D00"/>
<path d="M217.054 4.87954C217.918 4.55827 217.824 4.65495 218.392 4.36086C218.004 4.34987 217.809 4.52691 217.414 4.49957C217.913 4.63727 216.862 4.55666 217.054 4.87954Z" fill="#FF3D00"/>
<path d="M216.454 5.0528C216.454 5.0528 216.386 4.88932 216.248 4.92743C216.172 5.11267 215.498 5.1057 215.547 5.31548C215.513 5.23374 215.352 5.26231 215.337 5.36447C215.451 5.31682 215.554 5.33183 215.604 5.40676C215.816 5.31827 215.831 5.21611 216.132 5.10993C216.252 5.21349 216.319 5.0514 216.511 5.14407C216.391 5.04052 216.928 5.0856 216.844 4.92893C216.664 5.0038 216.684 4.82264 216.479 4.92748C216.492 4.96018 216.513 5.00922 216.438 5.0596L216.454 5.0528Z" fill="#FF3D00"/>
<path d="M224.43 24.8995C224.265 24.8722 224.091 24.8681 223.933 24.8572C224.053 24.9607 223.617 25.0655 223.651 25.1473C224.076 24.9703 224.339 24.9567 224.677 24.8928C224.764 24.7797 224.602 24.7129 224.451 24.7183C224.471 24.7674 224.538 24.8355 224.447 24.8927L224.43 24.8995Z" fill="#FF3D00"/>
</g>
</svg>
