<svg width="32" height="32" viewBox="0 0 32 32" fill="none" xmlns="http://www.w3.org/2000/svg">
<path fill-rule="evenodd" clip-rule="evenodd" d="M12.0007 5.33317L9.20065 9.0665C8.82806 9.56329 8.34493 9.9665 7.78951 10.2442C7.23408 10.5219 6.62163 10.6665 6.00065 10.6665H5.33398C4.98036 10.6665 4.64122 10.807 4.39118 11.057C4.14113 11.3071 4.00065 11.6462 4.00065 11.9998V25.3332C4.00065 25.6868 4.14113 26.0259 4.39118 26.276C4.64122 26.526 4.98036 26.6665 5.33398 26.6665H26.6673C27.0209 26.6665 27.3601 26.526 27.6101 26.276C27.8602 26.0259 28.0006 25.6868 28.0006 25.3332V11.9998C28.0006 11.6462 27.8602 11.3071 27.6101 11.057C27.3601 10.807 27.0209 10.6665 26.6673 10.6665H26.0006C25.3797 10.6665 24.7672 10.5219 24.2118 10.2442C23.6564 9.9665 23.1732 9.56329 22.8006 9.0665L20.0006 5.33317H12.0007ZM10.7799 2.89173C11.0762 2.74361 11.4028 2.6665 11.734 2.6665H20.2673C20.5985 2.6665 20.9251 2.74361 21.2214 2.89173C21.5176 3.03984 21.7753 3.25489 21.974 3.51984L24.934 7.4665C25.0582 7.6321 25.2192 7.7665 25.4044 7.85907C25.5895 7.95164 25.7937 7.99984 26.0006 7.99984H26.6673C27.7282 7.99984 28.7456 8.42126 29.4957 9.17141C30.2459 9.92156 30.6673 10.939 30.6673 11.9998V25.3332C30.6673 26.394 30.2459 27.4115 29.4957 28.1616C28.7456 28.9117 27.7282 29.3332 26.6673 29.3332H5.33398C4.27312 29.3332 3.2557 28.9117 2.50556 28.1616C1.75541 27.4115 1.33398 26.394 1.33398 25.3332V11.9998C1.33398 10.939 1.75541 9.92156 2.50556 9.17141C3.2557 8.42126 4.27312 7.99984 5.33398 7.99984H6.00065C6.20764 7.99984 6.4118 7.95164 6.59694 7.85907C6.78207 7.7665 6.94312 7.6321 7.06732 7.4665L10.0273 3.51984C10.226 3.25489 10.4837 3.03984 10.7799 2.89173Z" fill="black"/>
<path fill-rule="evenodd" clip-rule="evenodd" d="M11.2866 12.6191C12.5368 11.3689 14.2325 10.6665 16.0007 10.6665C17.7688 10.6665 19.4645 11.3689 20.7147 12.6191C21.9649 13.8694 22.6673 15.5651 22.6673 17.3332C22.6673 19.1013 21.9649 20.797 20.7147 22.0472C19.4645 23.2975 17.7688 23.9998 16.0007 23.9998C14.2325 23.9998 12.5368 23.2975 11.2866 22.0472C10.0364 20.797 9.33398 19.1013 9.33398 17.3332C9.33398 15.5651 10.0364 13.8694 11.2866 12.6191ZM16.0007 13.3332C14.9398 13.3332 13.9224 13.7546 13.1722 14.5047C12.4221 15.2549 12.0007 16.2723 12.0007 17.3332C12.0007 18.394 12.4221 19.4115 13.1722 20.1616C13.9224 20.9117 14.9398 21.3332 16.0007 21.3332C17.0615 21.3332 18.0789 20.9117 18.8291 20.1616C19.5792 19.4115 20.0006 18.394 20.0006 17.3332C20.0006 16.2723 19.5792 15.2549 18.8291 14.5047C18.0789 13.7546 17.0615 13.3332 16.0007 13.3332Z" fill="black"/>
</svg>
