<svg width="32" height="32" viewBox="0 0 32 32" fill="none" xmlns="http://www.w3.org/2000/svg">
<path d="M29.0008 18.0008C28.9985 20.1218 28.1549 22.1553 26.6551 23.6551C25.1553 25.1549 23.1218 25.9985 21.0008 26.0008H10.0008C9.73557 26.0008 9.48122 25.8954 9.29368 25.7079C9.10614 25.5204 9.00079 25.266 9.00079 25.0008C9.00079 24.7356 9.10614 24.4812 9.29368 24.2937C9.48122 24.1061 9.73557 24.0008 10.0008 24.0008H21.0008C22.5921 24.0008 24.1182 23.3686 25.2434 22.2434C26.3686 21.1182 27.0008 19.5921 27.0008 18.0008C27.0008 16.4095 26.3686 14.8834 25.2434 13.7581C24.1182 12.6329 22.5921 12.0008 21.0008 12.0008H11.0008V17.0008C11.0009 17.1987 10.9424 17.3922 10.8325 17.5568C10.7226 17.7214 10.5664 17.8497 10.3836 17.9254C10.2008 18.0012 9.99956 18.021 9.80548 17.9823C9.6114 17.9437 9.43314 17.8483 9.29329 17.7083L3.29329 11.7083C3.20031 11.6154 3.12655 11.5051 3.07623 11.3837C3.0259 11.2623 3 11.1322 3 11.0008C3 10.8694 3.0259 10.7392 3.07623 10.6178C3.12655 10.4964 3.20031 10.3862 3.29329 10.2933L9.29329 4.29329C9.43314 4.15328 9.6114 4.05791 9.80548 4.01926C9.99956 3.98061 10.2008 4.00041 10.3836 4.07616C10.5664 4.15192 10.7226 4.28021 10.8325 4.44481C10.9424 4.6094 11.0009 4.80289 11.0008 5.00079V10.0008H21.0008C23.1218 10.0031 25.1553 10.8467 26.6551 12.3465C28.1549 13.8463 28.9985 15.8798 29.0008 18.0008Z" fill="black"/>
</svg>
