<svg width="24" height="22" viewBox="0 0 24 22" fill="none" xmlns="http://www.w3.org/2000/svg">
<path id="Vector" d="M9.75 19.9375C9.75 20.2589 9.6547 20.5731 9.47614 20.8403C9.29758 21.1075 9.04379 21.3158 8.74686 21.4388C8.44993 21.5618 8.1232 21.594 7.80798 21.5313C7.49276 21.4686 7.20321 21.3138 6.97595 21.0865C6.74869 20.8593 6.59392 20.5697 6.53122 20.2545C6.46852 19.9393 6.5007 19.6126 6.6237 19.3156C6.74669 19.0187 6.95497 18.7649 7.2222 18.5864C7.48943 18.4078 7.80361 18.3125 8.125 18.3125C8.55598 18.3125 8.9693 18.4837 9.27405 18.7885C9.57879 19.0932 9.75 19.5065 9.75 19.9375ZM18.6875 18.3125C18.3661 18.3125 18.0519 18.4078 17.7847 18.5864C17.5175 18.7649 17.3092 19.0187 17.1862 19.3156C17.0632 19.6126 17.031 19.9393 17.0937 20.2545C17.1564 20.5697 17.3112 20.8593 17.5385 21.0865C17.7657 21.3138 18.0553 21.4686 18.3705 21.5313C18.6857 21.594 19.0124 21.5618 19.3094 21.4388C19.6063 21.3158 19.8601 21.1075 20.0386 20.8403C20.2172 20.5731 20.3125 20.2589 20.3125 19.9375C20.3125 19.5065 20.1413 19.0932 19.8365 18.7885C19.5318 18.4837 19.1185 18.3125 18.6875 18.3125ZM23.4041 4.83008C23.3285 4.72768 23.23 4.64447 23.1163 4.58713C23.0027 4.5298 22.8773 4.49996 22.75 4.5H4.9075L4.08383 1.61562C3.98553 1.27676 3.78012 0.978836 3.49835 0.766459C3.21659 0.554082 2.87362 0.43867 2.52078 0.4375H0.8125C0.597012 0.4375 0.390349 0.523102 0.237976 0.675476C0.0856024 0.827849 0 1.03451 0 1.25C0 1.46549 0.0856024 1.67215 0.237976 1.82452C0.390349 1.9769 0.597012 2.0625 0.8125 2.0625H2.52078L6.19531 14.9193C6.34236 15.4276 6.65013 15.8746 7.07252 16.1934C7.49491 16.5122 8.00919 16.6855 8.53836 16.6875H18.2995C18.8212 16.6893 19.3296 16.5229 19.7493 16.213C20.169 15.9031 20.4776 15.4662 20.6294 14.967L23.527 5.55117C23.5643 5.42974 23.5726 5.30125 23.5512 5.17601C23.5299 5.05078 23.4795 4.9323 23.4041 4.83008Z" fill="white"/>
</svg>
