<svg width="29" height="28" viewBox="0 0 29 28" fill="none" xmlns="http://www.w3.org/2000/svg">
<g id="Frame 166">
<g id="Vector">
<path fill-rule="evenodd" clip-rule="evenodd" d="M6.9737 10.2051C6.9868 10.0244 7.14394 9.88845 7.32469 9.90155L8.80344 10.0087C8.98418 10.0218 9.12008 10.179 9.10698 10.3597C9.09388 10.5405 8.93674 10.6764 8.75599 10.6633L7.27724 10.5561C7.0965 10.543 6.9606 10.3858 6.9737 10.2051ZM9.12452 12.007C9.23699 12.1491 9.21297 12.3554 9.07088 12.4679L7.99025 13.3232C7.84816 13.4357 7.64179 13.4116 7.52932 13.2696C7.41686 13.1275 7.44087 12.9211 7.58297 12.8086L8.66359 11.9533C8.80569 11.8408 9.01205 11.8649 9.12452 12.007ZM10.7351 12.4168C10.9136 12.4481 11.0329 12.6181 11.0017 12.7966L10.7479 14.2447C10.7166 14.4232 10.5466 14.5426 10.3681 14.5113C10.1896 14.48 10.0702 14.31 10.1015 14.1315L10.3553 12.6833C10.3865 12.5048 10.5566 12.3855 10.7351 12.4168Z" fill="#01231F"/>
<path fill-rule="evenodd" clip-rule="evenodd" d="M20.9891 1.85764L20.322 2.52472L20.9891 3.1918L21.6562 2.52472L20.9891 1.85764ZM20.9891 1.23892L22.2749 2.52472L20.9891 3.81052L19.7033 2.52472L20.9891 1.23892Z" fill="#01231F"/>
<path d="M15.3021 0.554688L14.8643 0.992431L15.3021 1.43017L15.7398 0.992431L15.3021 0.554688Z" fill="#01231F"/>
<path d="M21.8639 5.58591L21.4261 6.02365L21.8639 6.46139L22.3016 6.02365L21.8639 5.58591Z" fill="#01231F"/>
<path d="M24.5494 12.4753C24.5472 13.2956 23.8603 13.7112 23.2238 13.4006C22.4778 13.0375 21.7407 12.6612 20.9991 12.2915C19.8157 11.6987 18.63 11.1081 17.4466 10.5153C17.65 10.0997 17.8535 9.68185 18.0657 9.2706C18.1925 9.0256 18.3172 8.97747 18.5535 9.09341C20.3757 9.98591 22.1978 10.8828 24.0178 11.7797C24.3613 11.9481 24.545 12.2237 24.5494 12.4775V12.4753Z" fill="#01231F"/>
<path d="M15.5172 12.4425L18.9713 5.29376C19.2316 4.75345 18.9472 4.07751 18.3369 3.7822L18.0919 3.66408C17.7507 3.50001 17.3635 3.48251 17.0397 3.61814L13.1372 5.25001C12.9032 5.34845 12.7172 5.51908 12.6122 5.73783L12.2137 6.56259L12.0203 6.47016L12.0212 6.46818C11.8219 6.37293 11.5827 6.45744 11.4874 6.65679L11.1064 7.45418C11.0112 7.65353 11.0957 7.89271 11.295 7.98797L11.4818 8.07724L10.5363 10.0341C10.276 10.5744 10.5604 11.2503 11.1707 11.5456L13.9401 12.8844C14.5504 13.1797 15.2569 12.9806 15.5172 12.4425Z" fill="#01231F"/>
<path fill-rule="evenodd" clip-rule="evenodd" d="M25.3347 16.1897C24.7506 18.7272 22.8956 20.4882 20.776 20.4882V20.486H18.9713C18.9658 20.498 18.9609 20.5101 18.956 20.5221C18.951 20.5341 18.9461 20.5461 18.9406 20.5582C18.3894 21.8969 19.1922 23.4894 20.3931 23.4894H20.5878C20.8263 23.4894 21.021 23.7322 21.021 24.0319V27.9388H12.085V24.5569C12.085 24.1676 12.341 23.8591 12.6516 23.8591C13.4435 23.8569 14.0844 23.0497 14.0844 22.0566C14.0844 21.0613 13.4391 20.2541 12.645 20.2541H10.615C8.5894 20.2541 6.62502 19.3901 5.04565 17.8019L3.87315 16.6229C3.68502 16.4347 3.80315 16.0563 4.04158 16.076L10.125 16.5507H12.0828C12.0828 15.9491 12.4722 15.4613 12.9535 15.4613H24.941C25.2406 15.4613 25.4463 15.8419 25.3347 16.1897ZM14.9 15.9686L14.2813 16.5873L14.9 17.206L15.5187 16.5873L14.9 15.9686Z" fill="#01231F"/>
<path d="M15.8125 14.7468L16.1219 14.4374L16.4312 14.7468L16.1219 15.0561L15.8125 14.7468Z" fill="#01231F"/>
<path d="M12.9688 14.0905L13.2781 13.7812L13.5875 14.0905L13.2781 14.3999L12.9688 14.0905Z" fill="#01231F"/>
</g>
</g>
</svg>
