<svg width="27" height="27" viewBox="0 0 27 27" fill="none" xmlns="http://www.w3.org/2000/svg">
<g clip-path="url(#clip0_387_25015)">
<path d="M10.8 14.4008H2.25V7.65078C2.25 7.40225 2.45147 7.20078 2.7 7.20078H4.05C4.29853 7.20078 4.5 6.99931 4.5 6.75078C4.5 6.50225 4.29853 6.30078 4.05 6.30078H2.7C1.95442 6.30078 1.35 6.9052 1.35 7.65078V14.4647C0.557692 14.6692 0.00306667 15.3825 0 16.2008V21.6008C0 22.5949 0.805887 23.4008 1.8 23.4008H4.5V24.3008C3.75442 24.3008 3.15 24.9052 3.15 25.6508V26.1008C3.15 26.5978 3.55294 27.0008 4.05 27.0008H8.55C9.04706 27.0008 9.45 26.5978 9.45 26.1008V25.6508C9.45 24.9052 8.84558 24.3008 8.1 24.3008V23.4008H10.8C11.7941 23.4008 12.6 22.5949 12.6 21.6008V16.2008C12.6 15.2067 11.7941 14.4008 10.8 14.4008ZM8.1 25.2008C8.34853 25.2008 8.55 25.4023 8.55 25.6508V26.1008H4.05V25.6508C4.05 25.4023 4.25147 25.2008 4.5 25.2008C4.99706 25.2008 5.4 24.7978 5.4 24.3008V23.4008H7.2V24.3008C7.2 24.7978 7.60294 25.2008 8.1 25.2008ZM7.65 22.5008H4.05V22.0508C4.05035 21.3394 4.38709 20.6701 4.9581 20.2458C5.7497 20.8529 6.8503 20.8529 7.6419 20.2458C8.21291 20.6701 8.54965 21.3394 8.55 22.0508V22.5008H7.65ZM6.3 19.8008C5.55442 19.8008 4.95 19.1964 4.95 18.4508C4.95 17.7052 5.55442 17.1008 6.3 17.1008C7.04558 17.1008 7.65 17.7052 7.65 18.4508C7.65 19.1964 7.04558 19.8008 6.3 19.8008ZM11.7 21.6008C11.7 22.0978 11.2971 22.5008 10.8 22.5008H9.45V22.0508C9.44796 21.0834 9.00106 20.1706 8.23815 19.5758C8.44049 19.2353 8.54815 18.8469 8.55 18.4508C8.55 17.2081 7.54264 16.2008 6.3 16.2008C5.05736 16.2008 4.05 17.2081 4.05 18.4508C4.05185 18.8469 4.15951 19.2353 4.36185 19.5758C3.59894 20.1706 3.15204 21.0834 3.15 22.0508V22.5008H1.8C1.30294 22.5008 0.9 22.0978 0.9 21.6008V16.2008C0.9 15.7037 1.30294 15.3008 1.8 15.3008H10.8C11.2971 15.3008 11.7 15.7037 11.7 16.2008V21.6008Z" fill="#000C28"/>
<path d="M25.6494 14.4635V7.19961C25.6494 6.45403 25.045 5.84961 24.2994 5.84961H22.0494C21.8009 5.84961 21.5994 6.05108 21.5994 6.29961C21.5994 6.54814 21.8009 6.74961 22.0494 6.74961H24.2994C24.5479 6.74961 24.7494 6.95108 24.7494 7.19961V14.3996H16.1994C15.2053 14.3996 14.3994 15.2055 14.3994 16.1996V21.5996C14.3994 22.5937 15.2053 23.3996 16.1994 23.3996H18.8994V24.2996C18.1538 24.2996 17.5494 24.904 17.5494 25.6496V26.0996C17.5494 26.5967 17.9524 26.9996 18.4494 26.9996H22.9494C23.4465 26.9996 23.8494 26.5967 23.8494 26.0996V25.6496C23.8494 24.904 23.245 24.2996 22.4994 24.2996V23.3996H25.1994C26.1935 23.3996 26.9994 22.5937 26.9994 21.5996V16.1996C26.9963 15.3813 26.4417 14.6681 25.6494 14.4635ZM22.4994 25.1996C22.7479 25.1996 22.9494 25.4011 22.9494 25.6496V26.0996H18.4494V25.6496C18.4494 25.4011 18.6509 25.1996 18.8994 25.1996C19.3965 25.1996 19.7994 24.7967 19.7994 24.2996V23.3996H21.5994V24.2996C21.5994 24.7967 22.0024 25.1996 22.4994 25.1996ZM22.0494 22.4996H18.4494V22.0496C18.4498 21.3382 18.7865 20.6689 19.3575 20.2447C20.1491 20.8518 21.2497 20.8518 22.0413 20.2447C22.6123 20.6689 22.9491 21.3382 22.9494 22.0496V22.4996H22.0494ZM20.6994 19.7996C19.9538 19.7996 19.3494 19.1952 19.3494 18.4496C19.3494 17.704 19.9538 17.0996 20.6994 17.0996C21.445 17.0996 22.0494 17.704 22.0494 18.4496C22.0494 19.1952 21.445 19.7996 20.6994 19.7996ZM26.0994 21.5996C26.0994 22.0967 25.6965 22.4996 25.1994 22.4996H23.8494V22.0496C23.8474 21.0822 23.4005 20.1695 22.6376 19.5746C22.8399 19.2341 22.9476 18.8457 22.9494 18.4496C22.9494 17.207 21.9421 16.1996 20.6994 16.1996C19.4568 16.1996 18.4494 17.207 18.4494 18.4496C18.4517 18.8449 18.5593 19.2325 18.7613 19.5724C17.9977 20.1677 17.5508 21.0814 17.5494 22.0496V22.4996H16.1994C15.7024 22.4996 15.2994 22.0967 15.2994 21.5996V16.1996C15.2994 15.7026 15.7024 15.2996 16.1994 15.2996H25.1994C25.6965 15.2996 26.0994 15.7026 26.0994 16.1996V21.5996Z" fill="#000C28"/>
<path d="M14.4004 0H6.75039C6.00481 0 5.40039 0.604416 5.40039 1.35V12.15C5.40039 12.8956 6.00481 13.5 6.75039 13.5H14.4004C15.146 13.5 15.7504 12.8956 15.7504 12.15V11.8044L17.0554 13.1072C17.5788 13.6298 18.4265 13.6298 18.9499 13.1072L22.1098 9.94725C22.6322 9.42378 22.6322 8.57622 22.1098 8.05275L18.9499 4.89285C18.4264 4.37046 17.5789 4.37046 17.0554 4.89285L15.7504 6.19785V1.35C15.7504 0.604416 15.146 0 14.4004 0ZM14.8504 12.15C14.8504 12.3985 14.6489 12.6 14.4004 12.6H6.75039C6.50186 12.6 6.30039 12.3985 6.30039 12.15V1.35C6.30039 1.10147 6.50186 0.9 6.75039 0.9H14.4004C14.6489 0.9 14.8504 1.10147 14.8504 1.35V7.0956L13.8932 8.055C13.3709 8.57847 13.3709 9.42603 13.8932 9.9495L14.8504 10.9044V12.15ZM17.6894 5.52915C17.8613 5.35761 18.1395 5.35761 18.3113 5.52915L21.4712 8.68905C21.6428 8.86086 21.6428 9.13914 21.4712 9.31095L18.3113 12.4708C18.1395 12.6424 17.8613 12.6424 17.6894 12.4708L14.5295 9.31095C14.358 9.13914 14.358 8.86086 14.5295 8.68905L17.6894 5.52915Z" fill="#000C28"/>
<path d="M10.9797 3.3987C10.8951 3.25683 10.7421 3.16992 10.577 3.16992C10.4118 3.16992 10.2588 3.25683 10.1742 3.3987L8.59922 6.5487C8.53594 6.67533 8.53594 6.82436 8.59922 6.951L10.1742 10.101C10.2503 10.2537 10.4063 10.3503 10.577 10.3503C10.7476 10.3503 10.9036 10.2537 10.9797 10.101L12.5547 6.951C12.618 6.82436 12.618 6.67533 12.5547 6.5487L10.9797 3.3987ZM10.5747 8.89365L9.50282 6.74985L10.5747 4.60605L11.6466 6.74985L10.5747 8.89365Z" fill="#000C28"/>
<path d="M8.5502 10.8008H7.6502C7.40167 10.8008 7.2002 11.0023 7.2002 11.2508C7.2002 11.4993 7.40167 11.7008 7.6502 11.7008H8.5502C8.79872 11.7008 9.0002 11.4993 9.0002 11.2508C9.0002 11.0023 8.79872 10.8008 8.5502 10.8008Z" fill="#000C28"/>
<path d="M13.9504 2.25078C13.9504 2.00225 13.7489 1.80078 13.5004 1.80078H12.6004C12.3519 1.80078 12.1504 2.00225 12.1504 2.25078C12.1504 2.49931 12.3519 2.70078 12.6004 2.70078H13.5004C13.7489 2.70078 13.9504 2.49931 13.9504 2.25078Z" fill="#000C28"/>
<path d="M18.318 9.31903C18.4467 9.19034 18.4852 8.99678 18.4156 8.8286C18.3459 8.66043 18.1818 8.55078 17.9998 8.55078C17.8178 8.55078 17.6537 8.66043 17.5841 8.8286C17.5144 8.99678 17.5529 9.19034 17.6817 9.31903C17.8574 9.4947 18.1422 9.4947 18.318 9.31903Z" fill="#000C28"/>
<path d="M20.1187 9.31903C20.2475 9.19034 20.286 8.99678 20.2164 8.8286C20.1467 8.66043 19.9826 8.55078 19.8006 8.55078C19.6186 8.55078 19.4545 8.66043 19.3848 8.8286C19.3152 8.99678 19.3537 9.19034 19.4824 9.31903C19.6582 9.4947 19.943 9.4947 20.1187 9.31903Z" fill="#000C28"/>
<path d="M18.318 7.51825C18.4467 7.38956 18.4852 7.19599 18.4156 7.02782C18.3459 6.85965 18.1818 6.75 17.9998 6.75C17.8178 6.75 17.6537 6.85965 17.5841 7.02782C17.5144 7.19599 17.5529 7.38956 17.6817 7.51825C17.8574 7.69392 18.1422 7.69392 18.318 7.51825Z" fill="#000C28"/>
<path d="M16.5182 9.31903C16.6469 9.19034 16.6854 8.99678 16.6158 8.8286C16.5461 8.66043 16.382 8.55078 16.2 8.55078C16.018 8.55078 15.8539 8.66043 15.7843 8.8286C15.7146 8.99678 15.7531 9.19034 15.8819 9.31903C16.0576 9.4947 16.3424 9.4947 16.5182 9.31903Z" fill="#000C28"/>
<path d="M18.318 11.1179C18.4467 10.9892 18.4852 10.7956 18.4156 10.6274C18.3459 10.4593 18.1818 10.3496 17.9998 10.3496C17.8178 10.3496 17.6537 10.4593 17.5841 10.6274C17.5144 10.7956 17.5529 10.9892 17.6817 11.1179C17.8574 11.2935 18.1422 11.2935 18.318 11.1179Z" fill="#000C28"/>
</g>
<defs>
<clipPath id="clip0_387_25015">
<rect width="27" height="27" fill="white"/>
</clipPath>
</defs>
</svg>
