<svg width="54" height="54" viewBox="0 0 54 54" fill="none" xmlns="http://www.w3.org/2000/svg">
<rect width="54" height="54" rx="27" fill="#0D4EE3"/>
<g clip-path="url(#clip0_387_25508)">
<path d="M27 36.8868C27.259 36.8868 27.4688 36.6769 27.4688 36.418C27.4688 36.1591 27.259 35.9492 27 35.9492C26.7411 35.9492 26.5312 36.1591 26.5312 36.418C26.5312 36.6769 26.7411 36.8868 27 36.8868Z" fill="white"/>
<path d="M27 38.9278C27.259 38.9278 27.4688 38.7179 27.4688 38.459C27.4688 38.2001 27.259 37.9902 27 37.9902C26.7411 37.9902 26.5312 38.2001 26.5312 38.459C26.5312 38.7179 26.7411 38.9278 27 38.9278Z" fill="white"/>
<path d="M27 40.9688C27.259 40.9688 27.4688 40.759 27.4688 40.5C27.4688 40.2411 27.259 40.0312 27 40.0312C26.7411 40.0312 26.5312 40.2411 26.5312 40.5C26.5312 40.759 26.7411 40.9688 27 40.9688Z" fill="white"/>
<path d="M38.5434 35.4953C38.1545 34.5884 37.405 33.8607 36.487 33.4988L31.3317 31.4661L31.3265 28.4849C32.0894 27.7429 32.6784 26.8586 33.083 25.8402C33.2025 25.5393 33.3057 25.2261 33.3934 24.9018C33.3965 24.9018 33.3997 24.902 33.4029 24.902C34.8767 24.902 36.0757 23.703 36.0757 22.2292C36.0757 21.2598 35.5446 20.3718 34.7188 19.903C34.8659 19.5157 34.9864 19.1363 35.0791 18.7664C35.411 17.4419 35.3891 16.2386 35.0141 15.1901C34.4531 13.6216 33.1155 12.4192 31.0384 11.6162C27.1329 10.1064 24.1404 11.7201 23.303 12.7382C23.159 12.9133 22.94 13.0229 22.7023 13.0388C22.0701 13.0811 20.8818 13.3068 20.0254 14.3426C19.8605 14.5421 19.8885 14.8377 20.0881 15.0026C20.2876 15.1676 20.5831 15.1395 20.7481 14.9399C21.3489 14.2131 22.1765 14.0136 22.7649 13.9742C23.2595 13.9412 23.7195 13.7076 24.0271 13.3337C24.5375 12.713 25.6848 12.2837 26.2201 12.1433C27.1938 11.888 28.7616 11.7411 30.7002 12.4906C32.5117 13.191 33.6661 14.2054 34.1312 15.5058C34.7836 17.33 34.0062 19.4727 33.1637 21.0447C33.1622 21.0451 33.1608 21.0455 33.1592 21.0459C33.1579 21.0462 33.1566 21.0464 33.1553 21.0467C32.741 21.1548 32.312 21.2095 31.8804 21.2095C29.9994 21.2095 28.2885 20.1731 27.4151 18.5048C27.3342 18.3502 27.1742 18.2534 26.9998 18.2534C26.8254 18.2534 26.6653 18.3502 26.5845 18.5048C25.7112 20.173 24.0002 21.2094 22.1192 21.2094C21.6876 21.2094 21.2587 21.1547 20.8443 21.0466C20.8411 21.0457 20.8379 21.0454 20.8346 21.0446C20.3727 19.9381 19.8079 17.7674 20.1385 16.2222C20.1927 15.969 20.0313 15.7198 19.7781 15.6657C19.5251 15.6114 19.2758 15.7729 19.2216 16.026C18.9822 17.1454 19.1406 18.5496 19.4364 19.7579C18.4395 20.1677 17.7836 21.1355 17.7836 22.2291C17.7836 22.6068 17.8628 22.9663 18.0048 23.2923C17.1479 24.0421 16.6593 25.112 16.6593 26.2572C16.6593 28.4306 18.4276 30.1988 20.6009 30.1988C21.3334 30.1988 22.0491 29.991 22.6655 29.6127L22.6688 31.4656L17.5126 33.4987C16.5946 33.8606 15.8451 34.5883 15.4563 35.4951C14.5755 37.5488 14.1289 39.7231 14.1289 41.9577C14.1289 42.5323 14.5964 42.9998 15.1711 42.9998H19.5454C19.8043 42.9998 20.0142 42.7899 20.0142 42.531C20.0142 42.2721 19.8043 42.0622 19.5454 42.0622H15.1713C15.1136 42.0622 15.0667 42.0153 15.0667 41.9577C15.0667 39.8508 15.4878 37.8008 16.3182 35.8647C16.6091 35.1862 17.1699 34.6417 17.8567 34.3709L22.6605 32.4767V35.2224C22.6605 35.5444 22.827 35.8327 23.1058 35.9937C23.2452 36.0742 23.3981 36.1144 23.5511 36.1144C23.704 36.1144 23.857 36.0742 23.9964 35.9937L26.9999 34.2596L30.0035 35.9937C30.1429 36.0742 30.2958 36.1144 30.4488 36.1144C30.6017 36.1144 30.7546 36.0742 30.894 35.9937C31.1728 35.8327 31.3393 35.5444 31.3393 35.2224V32.4767L36.1431 34.3709C36.8285 34.6412 37.3884 35.184 37.6799 35.8607C37.8327 36.2526 38.9331 39.6709 38.9331 41.9577C38.9331 42.0154 38.8862 42.0622 38.8285 42.0622H36.0757V40.3947C36.0757 39.7982 35.5904 39.3129 34.9939 39.3129H31.4735C30.877 39.3129 30.3917 39.7982 30.3917 40.3947V42.0622H21.4208C21.1619 42.0622 20.952 42.2721 20.952 42.531C20.952 42.7899 21.1619 42.9998 21.4208 42.9998H38.8285C39.4032 42.9998 39.8706 42.5323 39.8706 41.9577C39.8707 39.2655 38.5566 35.5261 38.5434 35.4953ZM30.393 30.7806C30.2588 30.7892 30.1259 30.8288 30.0035 30.8995L26.9999 32.6336L23.9964 30.8995C23.8734 30.8285 23.74 30.7889 23.6053 30.7805L23.6027 29.2571C23.7208 29.341 23.841 29.4233 23.9652 29.502C24.8871 30.0861 25.9433 30.3782 26.9999 30.3782C28.0562 30.3781 29.1129 30.086 30.0346 29.502C30.1564 29.4248 30.2743 29.3441 30.3903 29.262L30.393 30.7806ZM35.1381 22.2293C35.1381 23.1199 34.4635 23.8556 33.5985 23.9531C33.7065 23.3034 33.7578 22.6151 33.7515 21.8918C33.775 21.8661 33.7966 21.8381 33.8145 21.8065C34.0115 21.4583 34.1894 21.1141 34.3484 20.7747C34.8321 21.0905 35.1381 21.6363 35.1381 22.2293ZM27 19.6201C28.1112 21.196 29.9178 22.1472 31.8805 22.1472C32.1941 22.1472 32.5066 22.1225 32.8147 22.074C32.8013 25.1062 31.6991 27.3373 29.5328 28.7101C27.9942 29.685 26.0058 29.6851 24.4672 28.7101C22.3015 27.3377 21.1994 25.1062 21.1856 22.0741C21.4936 22.1225 21.8059 22.1472 22.1194 22.1472C24.0821 22.1472 25.8887 21.196 27 19.6201ZM19.6965 20.6696C19.8395 21.1061 19.9938 21.4892 20.142 21.7854C20.1689 21.8393 20.2055 21.8848 20.2477 21.9228C20.2431 22.6385 20.2952 23.3196 20.4029 23.9631C19.4709 23.9345 18.7214 23.168 18.7214 22.2292C18.7215 21.5558 19.1049 20.9567 19.6965 20.6696ZM17.5971 26.2573C17.5971 25.4261 17.9354 24.6471 18.5319 24.081C19.0185 24.5865 19.7012 24.902 20.4566 24.902C20.5061 24.902 20.5556 24.9002 20.6051 24.8974C20.6979 25.2414 20.8084 25.5728 20.937 25.8904C21.3358 26.8752 21.9087 27.7335 22.6455 28.4576C22.0886 28.977 21.3704 29.2613 20.6012 29.2613C18.9447 29.2614 17.5971 27.9137 17.5971 26.2573ZM23.5981 35.1412V31.876C23.604 31.8462 23.6072 31.8154 23.6071 31.7839L23.607 31.7574L26.4832 33.4179C26.4829 33.4276 26.4822 33.4371 26.4822 33.4467C26.4822 33.4564 26.4829 33.4659 26.4832 33.4755L23.5981 35.1412ZM27.5167 33.4755C27.517 33.4658 27.5176 33.4563 27.5176 33.4466C27.5176 33.437 27.5169 33.4274 27.5167 33.4179L30.3947 31.7563L30.3948 31.7854C30.3948 31.8118 30.3976 31.8374 30.4018 31.8626V35.1411L27.5167 33.4755ZM31.3293 42.0624V40.3949C31.3293 40.3154 31.394 40.2507 31.4735 40.2507H34.9939C35.0734 40.2507 35.1381 40.3154 35.1381 40.3949V42.0624H31.3293Z" fill="white"/>
<path d="M26.8328 26.9548C27.5712 26.9548 28.2343 26.5154 28.522 25.8352C28.6228 25.5967 28.5113 25.3216 28.2728 25.2207C28.0344 25.1199 27.7594 25.2314 27.6584 25.4699C27.5178 25.8023 27.1937 26.0172 26.8328 26.0172C26.4718 26.0172 26.1477 25.8023 26.0071 25.4699C25.9062 25.2314 25.6313 25.1199 25.3928 25.2207C25.1543 25.3216 25.0427 25.5966 25.1436 25.8351C25.4312 26.5153 26.0943 26.9548 26.8328 26.9548Z" fill="white"/>
</g>
<defs>
<clipPath id="clip0_387_25508">
<rect width="32" height="32" fill="white" transform="translate(11 11)"/>
</clipPath>
</defs>
</svg>
