<svg width="43" height="32" viewBox="0 0 43 32" fill="none" xmlns="http://www.w3.org/2000/svg">
<g clip-path="url(#clip0)">
<path d="M34.5517 31.459H8.27148V3.63286C8.27148 1.93238 9.66279 0.541077 11.3633 0.541077H31.4599C33.1604 0.541077 34.5517 1.93238 34.5517 3.63286V31.459Z" stroke="#0A4586" stroke-width="1.4" stroke-miterlimit="10" stroke-linecap="round" stroke-linejoin="round"/>
<path d="M24.1157 14.4541H18.7051V25.2754H24.1157V14.4541Z" stroke="#3BA8FF" stroke-width="1.4" stroke-miterlimit="10" stroke-linecap="round" stroke-linejoin="round"/>
<path d="M29.5268 5.56525H13.2949V10.2029H29.5268V5.56525Z" stroke="#E93F38" stroke-width="1.4" stroke-miterlimit="10" stroke-linecap="round" stroke-linejoin="round"/>
<path d="M29.5259 14.4541H24.1152V25.2754H29.5259V14.4541Z" stroke="#3BA8FF" stroke-width="1.4" stroke-miterlimit="10" stroke-linecap="round" stroke-linejoin="round"/>
<path d="M18.7055 14.4541H13.2949V25.2754H18.7055V14.4541Z" stroke="#3BA8FF" stroke-width="1.4" stroke-miterlimit="10" stroke-linecap="round" stroke-linejoin="round"/>
<path d="M40.3477 21.7971V7.11115" stroke="#E93F38" stroke-width="1.4" stroke-miterlimit="10" stroke-linecap="round" stroke-linejoin="round"/>
<path d="M40.3486 7.11114C41.2024 7.11114 41.8945 6.41901 41.8945 5.56524C41.8945 4.71147 41.2024 4.01935 40.3486 4.01935C39.4949 4.01935 38.8027 4.71147 38.8027 5.56524C38.8027 6.41901 39.4949 7.11114 40.3486 7.11114Z" stroke="#E93F38" stroke-width="1.4" stroke-miterlimit="10" stroke-linecap="round" stroke-linejoin="round"/>
<path d="M38.4155 20.2512H34.5508V27.9807H38.4155V20.2512Z" stroke="#0A4586" stroke-width="1.4" stroke-miterlimit="10" stroke-linecap="round" stroke-linejoin="round"/>
<path d="M38.4146 26.4348H42.2793V21.7971H38.4146V26.4348Z" stroke="#0A4586" stroke-width="1.4" stroke-miterlimit="10" stroke-linecap="round" stroke-linejoin="round"/>
<path d="M2.47266 21.7971V7.11115" stroke="#E93F38" stroke-width="1.4" stroke-miterlimit="10" stroke-linecap="round" stroke-linejoin="round"/>
<path d="M2.47363 7.11114C3.3274 7.11114 4.01952 6.41901 4.01952 5.56524C4.01952 4.71147 3.3274 4.01935 2.47363 4.01935C1.61985 4.01935 0.927734 4.71147 0.927734 5.56524C0.927734 6.41901 1.61985 7.11114 2.47363 7.11114Z" stroke="#E93F38" stroke-width="1.4" stroke-miterlimit="10" stroke-linecap="round" stroke-linejoin="round"/>
<path d="M4.4048 27.9807L8.26953 27.9807L8.26953 20.2512L4.4048 20.2512L4.4048 27.9807Z" stroke="#0A4586" stroke-width="1.4" stroke-miterlimit="10" stroke-linecap="round" stroke-linejoin="round"/>
<path d="M4.40575 21.7971H0.541016V26.4348H4.40575V21.7971Z" stroke="#0A4586" stroke-width="1.4" stroke-miterlimit="10" stroke-linecap="round" stroke-linejoin="round"/>
<path d="M34.551 21.6425L32.3867 19.4783L34.551 17.314V21.6425Z" stroke="#0A4586" stroke-width="1.4" stroke-miterlimit="10" stroke-linecap="round" stroke-linejoin="round"/>
<path d="M8.27148 17.314L10.4357 19.4783L8.27148 21.6425V17.314Z" stroke="#0A4586" stroke-width="1.4" stroke-miterlimit="10" stroke-linecap="round" stroke-linejoin="round"/>
</g>
<defs>
<clipPath id="clip0">
<rect width="42.8213" height="32" fill="white"/>
</clipPath>
</defs>
</svg>
