<svg width="34" height="34" viewBox="0 0 34 34" fill="none" xmlns="http://www.w3.org/2000/svg">
<g clip-path="url(#clip0_527_8349)">
<path d="M17.0001 33.9983C26.389 33.9983 34.0002 26.3871 34.0002 16.9982C34.0002 7.60926 26.389 -0.00195312 17.0001 -0.00195312C7.61121 -0.00195312 0 7.60926 0 16.9982C0 26.3871 7.61121 33.9983 17.0001 33.9983Z" fill="url(#paint0_linear_527_8349)"/>
<path d="M17.4988 33.9749C17.8992 33.9689 18.2993 33.9489 18.6982 33.9147C19.2617 33.8583 19.822 33.7738 20.3771 33.6615C20.933 33.5487 21.4829 33.4081 22.0248 33.2402C22.5661 33.0726 23.0987 32.878 23.6206 32.6571C24.1424 32.4365 24.6528 32.1899 25.15 31.9183C25.6481 31.6467 26.1322 31.3502 26.6006 31.0302C27.0677 30.7104 27.5186 30.3676 27.9515 30.0029C28.3857 29.6373 28.8012 29.2501 29.1967 28.8429C29.5912 28.4364 29.9652 28.0105 30.3173 27.5667C30.6694 27.1227 30.999 26.6614 31.3051 26.1846C31.6117 25.7079 31.8942 25.2161 32.1517 24.7112C32.4085 24.2056 32.6398 23.6876 32.8448 23.1589C33.0501 22.6307 33.2288 22.0926 33.3802 21.5465C33.5323 21.0004 33.657 20.447 33.7538 19.8884C33.8497 19.3298 33.9175 18.7667 33.9572 18.2013C33.9688 17.9863 33.9765 17.7712 33.98 17.5559L25.2123 8.78821C23.0998 6.67575 20.1848 5.36621 16.9738 5.36621C10.5517 5.36621 5.36719 10.6047 5.36719 17.0267C5.36719 20.2377 6.66347 23.1396 8.76221 25.2383L17.4988 33.9749Z" fill="#482764" fill-opacity="0.25"/>
<path d="M16.9732 5.36621C10.5512 5.36621 5.36719 10.6052 5.36719 17.0273C5.36719 23.4493 10.5512 28.6333 16.9732 28.6333C23.3953 28.6333 28.6343 23.4503 28.6343 17.0273C28.6343 10.6052 23.3953 5.36621 16.9732 5.36621ZM16.9732 6.87358C17.6493 6.88739 18.3254 6.97343 19.0014 7.11379L18.488 9.55642C17.9982 9.45654 17.4908 9.40415 16.9714 9.40415C16.4466 9.40415 15.9341 9.45837 15.4402 9.56005L14.9451 7.05698C15.6211 6.91566 16.2972 6.85934 16.9732 6.87358ZM22.5498 8.52219C23.7328 9.31174 24.6901 10.2677 25.4234 11.4508L23.2998 12.8389C22.7316 11.9753 21.9982 11.231 21.1378 10.6604L22.5498 8.52219ZM11.3949 8.57745L12.783 10.679C11.9318 11.2501 11.2052 11.9895 10.6448 12.8501L8.52314 11.4509C9.25548 10.268 10.2682 9.31163 11.3949 8.57745ZM16.9714 10.3433C17.4242 10.3433 17.8659 10.389 18.2936 10.4753L16.9292 16.9615L16.9732 17.0274L16.9237 16.9944L16.9163 17.0274L16.9067 16.9838L11.4219 13.3639C11.9117 12.6078 12.5497 11.959 13.296 11.4586L16.8921 16.9049L15.6212 10.4812C16.0564 10.3919 16.5078 10.3437 16.9709 10.3437L16.9714 10.3433ZM20.6262 11.4363C21.386 11.9339 22.0396 12.5783 22.5425 13.3343L16.9732 16.9725L23.5125 15.643C23.6068 16.0893 23.6574 16.5515 23.6574 17.0257C23.6574 17.4798 23.6118 17.9223 23.5254 18.3497L17.0539 16.989L22.5645 20.6639C22.0652 21.4194 21.4169 22.0653 20.6573 22.5618L17.0374 16.9854L16.9733 16.9725L20.6262 11.4364V11.4363ZM26.9436 14.9444C27.1689 16.2955 27.1684 17.7037 26.8867 19.0558L24.4423 18.5421C24.5424 18.0525 24.5963 17.5455 24.5963 17.0257C24.5963 16.9633 24.5838 16.9016 24.5597 16.8441C24.5479 16.3718 24.4885 15.9112 24.3946 15.4633L26.9436 14.9444H26.9436ZM7.05794 14.9997L9.55372 15.5242C9.45714 16.0103 9.40519 16.512 9.40519 17.026C9.40519 17.5517 9.45651 18.0642 9.5574 18.5591L7.05794 19.056C6.77628 17.7049 6.77628 16.3517 7.05794 14.9997ZM10.4725 15.7166L16.9494 17.0791L17.0283 17.0282L18.3211 23.5235C17.8853 23.6117 17.4337 23.6574 16.9714 23.6574C16.5225 23.6574 16.0846 23.6117 15.6621 23.529L17.0283 17.0283L13.3277 22.5791C12.5741 22.0869 11.9302 21.4475 11.4352 20.6958L16.9274 17.0942L10.4798 18.376C10.3918 17.9409 10.3441 17.4897 10.3441 17.0263C10.3441 16.5782 10.3898 16.1404 10.4724 15.717L10.4725 15.7166ZM23.3402 21.1814L25.4784 22.6063C24.6897 23.733 23.7328 24.6893 22.5498 25.478L21.1653 23.3452C22.03 22.7788 22.7695 22.0414 23.3402 21.1814ZM10.6577 21.2048C11.2224 22.0597 11.9563 22.7893 12.8124 23.3522L11.3949 25.4774C10.2682 24.746 9.25548 23.7316 8.52314 22.604L10.6577 21.2048ZM18.5026 24.4432C18.5032 24.4431 18.5037 24.4433 18.5048 24.4432L19.0017 26.9427C17.706 27.2253 16.2973 27.2253 14.9453 26.9427L15.4698 24.445C15.955 24.5417 16.457 24.5955 16.9717 24.5955C17.4959 24.5955 18.0077 24.5434 18.5029 24.4432H18.5026Z" fill="white"/>
</g>
<defs>
<linearGradient id="paint0_linear_527_8349" x1="8.07589e-08" y1="15.4518" x2="34.0002" y2="15.4518" gradientUnits="userSpaceOnUse">
<stop stop-color="#F92984"/>
<stop offset="1" stop-color="#963CFF"/>
</linearGradient>
<clipPath id="clip0_527_8349">
<rect width="34" height="34" fill="white"/>
</clipPath>
</defs>
</svg>
