<svg width="16" height="17" viewBox="0 0 16 17" fill="none" xmlns="http://www.w3.org/2000/svg">
<path d="M8.00008 0.5C3.58884 0.5 0 4.08884 0 8.50008C0 12.9113 3.58884 16.5002 8.00001 16.5002C12.4112 16.5002 16.0001 12.9113 16.0001 8.50008C16.0001 4.08884 12.4113 0.5 8.00008 0.5ZM7.3566 1.12286H8.59763V2.36389H7.3566V1.12286ZM13.5872 8.50008C13.5872 11.5809 11.0808 14.0872 8.00008 14.0872C4.91936 14.0872 2.41304 11.5808 2.41304 8.50008C2.41304 5.41936 4.91943 2.91297 8.00008 2.91297C11.0808 2.91297 13.5872 5.41936 13.5872 8.50008ZM3.2224 2.84485L4.09994 3.7224L3.2224 4.59994L2.34485 3.7224L3.2224 2.84485ZM1.84093 9.12059H0.599899V7.87956H1.84093V9.12059ZM3.2224 14.1554L2.34485 13.2778L3.2224 12.4003L4.09994 13.2778L3.2224 14.1554ZM8.59763 15.8773H7.3566V14.6363H8.59763V15.8773ZM12.7778 14.1554L11.9002 13.2778L12.7778 12.4003L13.6553 13.2778L12.7778 14.1554ZM12.7778 4.59994L11.9002 3.7224L12.7778 2.84485L13.6553 3.7224L12.7778 4.59994ZM14.1133 9.12059V7.87956H15.3543V9.12059H14.1133Z" fill="white"/>
<path d="M3.44922 8.50018C3.44922 11.0106 5.49161 13.0531 8.00207 13.0531C10.5125 13.0531 12.555 11.0106 12.555 8.50018C12.555 5.98972 10.5125 3.94727 8.00207 3.94727C5.49161 3.94727 3.44922 5.98972 3.44922 8.50018ZM10.1791 8.11422C10.3939 8.4635 10.4631 8.77417 10.4631 9.14324C10.4631 10.0554 9.81941 10.5458 9.08762 10.5458C8.58845 10.5458 8.30419 10.3099 8.14913 10.1137L8.41374 11.0512H7.58198L7.84073 10.1352C7.68085 10.3255 7.40093 10.5641 6.91996 10.5641C6.18817 10.5641 5.54097 10.0646 5.54097 9.15241C5.54097 8.78327 5.60847 8.46343 5.82317 8.11415C6.15797 7.56941 8.00689 6.00144 8.00689 6.00144C8.00689 6.00144 9.8443 7.56948 10.1791 8.11422Z" fill="white"/>
</svg>
