<svg width="27" height="27" viewBox="0 0 27 27" fill="none" xmlns="http://www.w3.org/2000/svg">
<g clip-path="url(#clip0_387_25001)">
<path d="M2.25002 25.6495H24.75C25.992 25.6481 26.9985 24.6416 27.0001 23.3995V22.0495C27.0001 21.5525 26.5971 21.1495 26.1 21.1495H25.65V5.39954C25.65 4.65398 25.0456 4.04954 24.3 4.04954H20.101C16.4365 0.449631 10.5634 0.449631 6.89892 4.04954H2.7C1.95444 4.04954 1.35 4.65398 1.35 5.39954V21.1496H0.900018C0.402943 21.1496 0 21.5525 0 22.0496V23.3996C0.00147656 24.6416 1.00796 25.6481 2.25002 25.6495ZM17.1788 18.5058L16.6622 17.258C17.2383 16.9748 17.7742 16.6162 18.2556 16.1915L19.2097 17.1455C18.601 17.6936 17.9172 18.1517 17.1788 18.5058ZM10.6538 18.8514L11.1704 17.6044C11.7773 17.8126 12.4096 17.9378 13.05 17.9766V19.3266C12.2319 19.2849 11.4242 19.1248 10.652 18.8514H10.6538ZM7.7904 17.1445L8.74441 16.1905C9.22583 16.6152 9.76171 16.9739 10.3379 17.257L9.8213 18.5049C9.08281 18.1508 8.39895 17.6927 7.7904 17.1445ZM5.79377 14.4779L7.04162 13.9608C7.32475 14.537 7.6834 15.0729 8.10812 15.5543L7.1541 16.5083C6.60619 15.9001 6.14809 15.2167 5.79377 14.4788V14.4779ZM9.82125 3.09289L10.3351 4.33441C9.97334 4.51255 9.62714 4.72069 9.30013 4.95678C9.2745 4.95678 9.25019 4.94914 9.22409 4.94914C8.96384 4.95098 8.70824 5.01817 8.48069 5.14441L7.7904 4.45454C8.39874 3.906 9.08265 3.44758 9.82125 3.09331V3.09289ZM19.2096 4.45454L18.2556 5.40856C17.7742 4.98384 17.2383 4.62519 16.6621 4.34206L17.1787 3.09421C17.9172 3.44837 18.601 3.90647 19.2096 4.45454ZM19.8 10.7995C19.7992 13.3465 18.2649 15.6423 15.9121 16.6174C13.5592 17.5925 10.8507 17.0551 9.04848 15.2554C7.24623 13.4558 6.70486 10.7481 7.6766 8.3938L7.67929 8.38884V8.38257C7.79303 8.11167 7.92598 7.84927 8.07706 7.5973C8.46809 8.01944 9.05866 8.19394 9.61632 8.05208C10.174 7.91023 10.6094 7.4748 10.7513 6.91713C10.8931 6.35947 10.7186 5.76889 10.2965 5.37787C10.5485 5.22678 10.8109 5.09384 11.0818 4.98009H11.088H11.0916C13.0351 4.17605 15.2517 4.3949 17.0004 5.56349C18.7491 6.73209 19.7993 8.69634 19.8 10.7995ZM9.22498 5.84958C9.59776 5.84958 9.89998 6.1518 9.89998 6.52458C9.89998 6.89736 9.59776 7.19958 9.22498 7.19958C8.8522 7.19958 8.54998 6.89736 8.54998 6.52458C8.54998 6.15175 8.8522 5.84958 9.22498 5.84958ZM15.8314 3.99465C15.2239 3.78635 14.5911 3.66115 13.95 3.6225V2.2725C14.7681 2.31416 15.5758 2.47421 16.348 2.74769L15.8314 3.99465ZM13.05 3.61754C12.408 3.65498 11.7739 3.7788 11.165 3.98563L10.652 2.74769C11.4242 2.47421 12.2319 2.31416 13.05 2.2725V3.61754ZM7.84529 5.78118C7.71889 6.00868 7.65176 6.26433 7.65002 6.52458C7.65002 6.55068 7.65629 6.57499 7.65766 6.60062C7.42163 6.92757 7.21343 7.27383 7.03529 7.63564L5.79377 7.12127C6.14825 6.38267 6.60667 5.69865 7.155 5.08999L7.84529 5.78118ZM5.44815 7.95152L6.68656 8.46452C6.47931 9.07339 6.35534 9.70747 6.318 10.3496H4.97296C5.01462 9.53144 5.17467 8.72371 5.44815 7.95152ZM6.32296 11.2496C6.36161 11.8906 6.4868 12.5235 6.6951 13.131L5.44815 13.6476C5.17467 12.8754 5.01462 12.0677 4.97296 11.2496H6.32296ZM13.95 17.9766C14.591 17.938 15.2239 17.8128 15.8314 17.6045L16.348 18.8514C15.5758 19.1249 14.7681 19.285 13.95 19.3266V17.9766ZM19.845 16.5091L18.891 15.5551C19.3157 15.0737 19.6744 14.5378 19.9575 13.9617L21.2053 14.4787C20.8511 15.217 20.393 15.9007 19.845 16.5091ZM21.551 13.6476L20.304 13.131C20.5126 12.5236 20.6381 11.8907 20.677 11.2496H22.027C21.9854 12.0677 21.8253 12.8754 21.5519 13.6476H21.551ZM20.677 10.3496C20.6384 9.70852 20.5132 9.0756 20.3049 8.4681L21.5519 7.95152C21.8253 8.72371 21.9854 9.53144 22.027 10.3496H20.677ZM19.9571 7.63743C19.6739 7.06126 19.3153 6.52537 18.8906 6.04396L19.8446 5.08994C20.3925 5.69839 20.8506 6.38209 21.2049 7.12032L19.9571 7.63743ZM2.25002 5.39954C2.25002 5.15101 2.45152 4.94956 2.7 4.94956H6.09256C4.76745 6.61122 4.0471 8.67424 4.05 10.7995C4.05 16.0186 8.28093 20.2495 13.5 20.2495C18.7191 20.2495 22.95 16.0186 22.95 10.7995C22.9528 8.67424 22.2325 6.61122 20.9074 4.94956H24.3C24.5485 4.94956 24.75 5.15106 24.75 5.39954V21.1496H2.25002V5.39954ZM18.2781 22.0496L17.955 22.7007C17.8784 22.854 17.7214 22.9505 17.55 22.9496H9.45C9.27946 22.9496 9.12347 22.8533 9.04727 22.7007L8.7219 22.0496H18.2781ZM0.900018 22.0496H7.71572L8.24222 23.1035C8.46972 23.5621 8.93811 23.8514 9.45 23.8496H17.55C18.0619 23.8514 18.5303 23.5621 18.7578 23.1035L19.2843 22.0496H26.1V23.3996C26.1 24.1451 25.4955 24.7496 24.75 24.7496H2.25002C1.50446 24.7496 0.900018 24.1451 0.900018 23.3996V22.0496Z" fill="#000C28"/>
<path d="M2.25076 23.8492C2.49928 23.8492 2.70075 23.6477 2.70075 23.3992C2.70075 23.1507 2.49928 22.9492 2.25076 22.9492C2.00225 22.9492 1.80078 23.1507 1.80078 23.3992C1.80078 23.6477 2.00225 23.8492 2.25076 23.8492Z" fill="#000C28"/>
<path d="M4.04959 23.8492C4.29811 23.8492 4.49957 23.6477 4.49957 23.3992C4.49957 23.1507 4.29811 22.9492 4.04959 22.9492C3.80107 22.9492 3.59961 23.1507 3.59961 23.3992C3.59961 23.6477 3.80107 23.8492 4.04959 23.8492Z" fill="#000C28"/>
<path d="M5.85037 23.8492H6.75039C6.99893 23.8492 7.20037 23.6477 7.20037 23.3992C7.20037 23.1507 6.99887 22.9492 6.75039 22.9492H5.85037C5.60184 22.9492 5.40039 23.1507 5.40039 23.3992C5.40039 23.6477 5.60189 23.8492 5.85037 23.8492Z" fill="#000C28"/>
<path d="M16.2831 10.3501H15.2364C15.0717 9.72044 14.58 9.22869 13.9503 9.06405V8.01733C14.5702 7.79816 14.942 7.1643 14.8309 6.51624C14.7197 5.86819 14.1578 5.39453 13.5003 5.39453C12.8428 5.39453 12.2809 5.86819 12.1698 6.51624C12.0586 7.1643 12.4304 7.79816 13.0503 8.01733V9.06405C12.4206 9.22869 11.9289 9.72044 11.7642 10.3501H10.7175C10.4984 9.73025 9.86449 9.35842 9.21644 9.46958C8.56839 9.58074 8.09473 10.1426 8.09473 10.8001C8.09473 11.4576 8.56839 12.0195 9.21644 12.1307C9.86449 12.2418 10.4984 11.87 10.7175 11.2501H11.7642C11.9289 11.8798 12.4206 12.3716 13.0503 12.5362V13.5829C12.4304 13.8021 12.0586 14.4359 12.1698 15.084C12.2809 15.7321 12.8428 16.2057 13.5003 16.2057C14.1578 16.2057 14.7197 15.7321 14.8309 15.084C14.942 14.4359 14.5702 13.8021 13.9503 13.5829V12.5362C14.58 12.3716 15.0717 11.8798 15.2364 11.2501H16.2831C16.5023 11.87 17.1361 12.2418 17.7842 12.1307C18.4322 12.0195 18.9059 11.4576 18.9059 10.8001C18.9059 10.1426 18.4322 9.58074 17.7842 9.46958C17.1362 9.35842 16.5023 9.73025 16.2831 10.3501ZM13.5003 6.30014C13.7489 6.30014 13.9503 6.50164 13.9503 6.75012C13.9503 6.99861 13.7488 7.2001 13.5003 7.2001C13.2518 7.2001 13.0503 6.99866 13.0503 6.75012C13.0503 6.50158 13.2518 6.30014 13.5003 6.30014ZM9.45032 11.2502C9.20178 11.2502 9.00033 11.0487 9.00033 10.8002C9.00033 10.5516 9.20183 10.3502 9.45032 10.3502C9.6988 10.3502 9.9003 10.5517 9.9003 10.8002C9.9003 11.0487 9.69885 11.2502 9.45032 11.2502ZM13.5003 15.3002C13.2518 15.3002 13.0503 15.0987 13.0503 14.8502C13.0503 14.6016 13.2518 14.4002 13.5003 14.4002C13.7489 14.4002 13.9503 14.6017 13.9503 14.8502C13.9503 15.0987 13.7489 15.3002 13.5003 15.3002ZM13.5003 11.7001C13.0032 11.7001 12.6003 11.2972 12.6003 10.8001C12.6003 10.303 13.0032 9.9001 13.5003 9.9001C13.9974 9.9001 14.4003 10.303 14.4003 10.8001C14.4003 11.2972 13.9974 11.7001 13.5003 11.7001ZM18.0003 10.8001C18.0003 11.0487 17.7989 11.2501 17.5503 11.2501C17.3018 11.2501 17.1003 11.0487 17.1003 10.8001C17.1003 10.5516 17.3018 10.3501 17.5503 10.3501C17.7989 10.3501 18.0003 10.5516 18.0003 10.8001Z" fill="#000C28"/>
</g>
<defs>
<clipPath id="clip0_387_25001">
<rect width="27" height="27" fill="white"/>
</clipPath>
</defs>
</svg>
