<svg width="45" height="32" viewBox="0 0 45 32" fill="none" xmlns="http://www.w3.org/2000/svg">
<path d="M18.4741 20.4058C19.5562 21.0242 20.8702 21.4107 22.2615 21.4107C26.4355 21.4107 29.9137 18.0097 29.9137 13.7585C29.9137 9.58458 26.5128 6.10632 22.2615 6.10632C18.0876 6.10632 14.6094 9.50729 14.6094 13.7585C14.6094 15.8455 15.4596 17.7005 16.7736 19.0918" stroke="#3BA8FF" stroke-width="1.4" stroke-miterlimit="10" stroke-linecap="round" stroke-linejoin="round"/>
<path d="M22.2614 23.4203C27.5975 23.4203 31.9233 19.0945 31.9233 13.7585C31.9233 8.42237 27.5975 4.09662 22.2614 4.09662C16.9254 4.09662 12.5996 8.42237 12.5996 13.7585C12.5996 19.0945 16.9254 23.4203 22.2614 23.4203Z" stroke="#ED2939" stroke-width="1.4" stroke-miterlimit="10" stroke-linecap="round" stroke-linejoin="round"/>
<path d="M22.2605 16.2319C23.6266 16.2319 24.734 15.1245 24.734 13.7585C24.734 12.3924 23.6266 11.285 22.2605 11.285C20.8945 11.285 19.7871 12.3924 19.7871 13.7585C19.7871 15.1245 20.8945 16.2319 22.2605 16.2319Z" stroke="#3BA8FF" stroke-width="1.4" stroke-miterlimit="10" stroke-linecap="round" stroke-linejoin="round"/>
<path d="M19.9415 14.7633L15.2266 16.6957" stroke="#3BA8FF" stroke-width="1.4" stroke-miterlimit="10" stroke-linecap="round" stroke-linejoin="round"/>
<path d="M29.2951 10.8986L24.5801 12.8309" stroke="#3BA8FF" stroke-width="1.4" stroke-miterlimit="10" stroke-linecap="round" stroke-linejoin="round"/>
<path d="M21.3339 11.4396L19.3242 6.72467" stroke="#3BA8FF" stroke-width="1.4" stroke-miterlimit="10" stroke-linecap="round" stroke-linejoin="round"/>
<path d="M25.1972 20.7923L23.1875 16.0773" stroke="#3BA8FF" stroke-width="1.4" stroke-miterlimit="10" stroke-linecap="round" stroke-linejoin="round"/>
<path d="M23.1875 11.4396L25.1972 6.72467" stroke="#3BA8FF" stroke-width="1.4" stroke-miterlimit="10" stroke-linecap="round" stroke-linejoin="round"/>
<path d="M19.3242 20.7923L21.3339 16.0773" stroke="#3BA8FF" stroke-width="1.4" stroke-miterlimit="10" stroke-linecap="round" stroke-linejoin="round"/>
<path d="M23.1875 11.4396L25.1972 6.72467" stroke="#3BA8FF" stroke-width="1.4" stroke-miterlimit="10" stroke-linecap="round" stroke-linejoin="round"/>
<path d="M19.3242 20.7923L21.3339 16.0773" stroke="#3BA8FF" stroke-width="1.4" stroke-miterlimit="10" stroke-linecap="round" stroke-linejoin="round"/>
<path d="M24.5801 14.7633L29.2951 16.6957" stroke="#3BA8FF" stroke-width="1.4" stroke-miterlimit="10" stroke-linecap="round" stroke-linejoin="round"/>
<path d="M15.2266 10.8986L19.9415 12.8309" stroke="#3BA8FF" stroke-width="1.4" stroke-miterlimit="10" stroke-linecap="round" stroke-linejoin="round"/>
<path d="M22.2617 4.09662V7.49758" stroke="#ED2939" stroke-width="1.4" stroke-miterlimit="10" stroke-linecap="round" stroke-linejoin="round"/>
<path d="M3.94141 25.5073V2.55074C3.94141 1.46861 4.79165 0.541077 5.95107 0.541077H38.183C39.2651 0.541077 40.1926 1.39132 40.1926 2.55074V25.7391" stroke="#0A4586" stroke-width="1.4" stroke-miterlimit="10" stroke-linecap="round" stroke-linejoin="round"/>
<path d="M6.41602 14.9952V4.09662C6.41602 3.63285 6.72519 3.32367 7.18896 3.32367H13.2179" stroke="#3BA8FF" stroke-width="0.75" stroke-miterlimit="10" stroke-linecap="round" stroke-linejoin="round"/>
<path d="M3.09174 31.4589H40.9661C42.3574 31.4589 43.5169 30.2995 43.5169 28.9082V28.5217H24.0386C23.884 29.4493 20.2512 29.4493 20.0966 28.5217H0.541016V28.9082C0.541016 30.2995 1.70044 31.4589 3.09174 31.4589Z" stroke="#0A4586" stroke-width="1.4" stroke-miterlimit="10" stroke-linecap="round" stroke-linejoin="round"/>
</svg>
