<svg width="54" height="54" viewBox="0 0 54 54" fill="none" xmlns="http://www.w3.org/2000/svg">
<rect width="54" height="54" rx="27" fill="#4D6562"/>
<g clip-path="url(#clip0_929_26063)">
<path d="M22.378 31.6224C22.1502 31.3946 21.8517 31.2808 21.5532 31.2808C21.2546 31.2808 20.9562 31.3946 20.7284 31.6224C20.2728 32.0779 20.2728 32.8164 20.7284 33.2719C20.9562 33.4997 21.2546 33.6136 21.5532 33.6136C21.8517 33.6136 22.1502 33.4997 22.378 33.2719C22.8335 32.8164 22.8335 32.0779 22.378 31.6224ZM21.798 32.6919C21.7097 32.7801 21.6068 32.7933 21.5532 32.7933C21.4997 32.7933 21.3967 32.7801 21.3085 32.6919C21.2203 32.6037 21.2071 32.5007 21.2071 32.4471C21.2071 32.3936 21.2203 32.2906 21.3085 32.2024C21.3967 32.1142 21.4997 32.101 21.5532 32.101C21.6068 32.101 21.7097 32.1142 21.798 32.2024C21.8862 32.2906 21.8993 32.3936 21.8993 32.4471C21.8993 32.5007 21.8861 32.6037 21.798 32.6919Z" fill="white"/>
<path d="M40.7385 13.2626C40.5036 13.0277 40.1607 12.9429 39.8435 13.0412L37.8294 13.6655C37.2726 13.838 36.7605 14.1471 36.3482 14.5593L21.282 29.6252C20.7431 28.889 20.2879 28.1156 19.925 27.3188C19.7573 26.9502 19.456 26.669 19.0766 26.527C18.6972 26.385 18.2853 26.3993 17.9167 26.5671C17.1558 26.9136 16.8187 27.8145 17.1652 28.5754C17.2953 28.8612 17.4371 29.1485 17.5866 29.4292C17.6931 29.629 17.9413 29.7049 18.1414 29.5984C18.3414 29.4919 18.4171 29.2435 18.3107 29.0436C18.1691 28.7778 18.0349 28.5058 17.9118 28.2354C17.7527 27.8862 17.9075 27.4727 18.2567 27.3137C18.4259 27.2366 18.615 27.2301 18.7891 27.2953C18.9632 27.3604 19.1015 27.4895 19.1785 27.6587C19.5729 28.525 20.0694 29.3641 20.6577 30.1607C20.351 30.2803 20.0635 30.4632 19.8162 30.7105C19.7219 30.8048 19.6368 30.9056 19.5601 31.0115C19.3994 30.7952 19.2437 30.5759 19.0962 30.355C18.9704 30.1667 18.7157 30.1159 18.5274 30.2418C18.339 30.3675 18.2883 30.6223 18.4141 30.8106C18.6496 31.1633 18.9037 31.5124 19.1692 31.8514C19.1281 32.0169 19.1047 32.1877 19.0988 32.3616L19.0868 32.3496L14.7818 36.6546C14.364 36.7338 13.9649 36.9344 13.6423 37.2571C13.2281 37.6713 13 38.2219 13 38.8077C13 39.3933 13.2281 39.944 13.6423 40.3581C14.0697 40.7856 14.6312 40.9993 15.1928 40.9993C15.7543 40.9993 16.3158 40.7856 16.7433 40.3581C17.0659 40.0355 17.2667 39.6364 17.3457 39.2186L18.3769 38.1876C18.5371 38.0274 18.5371 37.7678 18.3769 37.6076C18.2168 37.4474 17.957 37.4474 17.7969 37.6076L17.2766 38.1278C17.1733 37.8093 16.996 37.5097 16.7434 37.2571C16.4908 37.0046 16.1913 36.8272 15.8728 36.7239L19.262 33.3347C19.3838 33.6495 19.5705 33.9385 19.8164 34.1844C20.0661 34.4341 20.3568 34.6181 20.6669 34.7376L18.9922 36.4123C18.832 36.5724 18.832 36.8321 18.9922 36.9923C19.0723 37.0724 19.3576 37.1858 19.5722 36.9923L21.6646 34.8999C21.8268 34.8927 21.9884 34.8694 22.1468 34.8302C23.1811 35.641 24.283 36.315 25.4254 36.8352C25.6285 36.9277 25.8416 36.9715 26.0514 36.9715C26.6277 36.9715 27.1797 36.6414 27.4337 36.0836C27.6015 35.7149 27.6157 35.303 27.4737 34.9237C27.3317 34.5444 27.0505 34.2431 26.6819 34.0754C25.8851 33.7126 25.1116 33.2574 24.3754 32.7186L39.4417 17.6527C39.8538 17.2406 40.1629 16.7284 40.3355 16.1717L40.9598 14.1575C41.0581 13.8403 40.9733 13.4974 40.7385 13.2626ZM16.1632 37.8372C16.6983 38.3723 16.6983 39.243 16.1632 39.7781C15.6282 40.3132 14.7574 40.3132 14.2223 39.7781C13.9631 39.5189 13.8203 39.1743 13.8203 38.8077C13.8203 38.4411 13.963 38.0965 14.2223 37.8373C14.4899 37.5697 14.8413 37.436 15.1928 37.436C15.5442 37.4359 15.8958 37.5697 16.1632 37.8372ZM20.3962 33.6043C20.0872 33.2953 19.917 32.8844 19.917 32.4474C19.917 32.0104 20.0872 31.5996 20.3963 31.2906C20.7152 30.9716 21.1342 30.8121 21.5531 30.8121C21.9721 30.8121 22.391 30.9716 22.71 31.2906C23.019 31.5995 23.1892 32.0104 23.1892 32.4474C23.1892 32.8844 23.0191 33.2952 22.71 33.6043C22.0721 34.2422 21.0341 34.2422 20.3962 33.6043ZM26.3421 34.8221C26.5113 34.899 26.6402 35.0372 26.7053 35.2113C26.7705 35.3855 26.764 35.5746 26.687 35.7438C26.528 36.0929 26.1146 36.2477 25.7652 36.0887C24.8044 35.6512 23.8729 35.0979 22.9885 34.4406C23.0941 34.3645 23.1952 34.2793 23.2901 34.1844C23.5336 33.9408 23.7191 33.6549 23.841 33.3436C24.6373 33.9315 25.4762 34.4278 26.3421 34.8221ZM39.5519 15.9287C39.4186 16.3587 39.1799 16.7543 38.8616 17.0726L23.9635 31.9704C23.8987 31.6394 23.7661 31.3273 23.5734 31.05L32.905 21.7186C33.0652 21.5584 33.0652 21.2987 32.905 21.1385C32.7448 20.9784 32.4851 20.9784 32.3249 21.1385L23.0005 30.4626C22.7056 30.2472 22.3732 30.1059 22.029 30.0384L36.9282 15.1394C37.2466 14.8211 37.6422 14.5824 38.0722 14.4491L39.4377 14.0259L33.6406 19.8228C33.4804 19.9829 33.4804 20.2426 33.6406 20.4028C33.7207 20.4829 33.9729 20.6016 34.2206 20.4028L39.9368 14.6868L39.5519 15.9287Z" fill="white"/>
</g>
<defs>
<clipPath id="clip0_929_26063">
<rect width="28" height="28" fill="white" transform="translate(13 13)"/>
</clipPath>
</defs>
</svg>
