<svg width="24" height="25" viewBox="0 0 24 25" fill="none" xmlns="http://www.w3.org/2000/svg">
<path d="M11.0317 1.03573C11.6342 0.702388 12.3658 0.702389 12.9683 1.03573L21.3606 5.67915C21.9972 6.03139 22.3923 6.70156 22.3923 7.42914V16.5709C22.3923 17.2984 21.9972 17.9686 21.3606 18.3209L12.9683 22.9643C12.3658 23.2976 11.6342 23.2976 11.0317 22.9643L2.63943 18.3209C2.00281 17.9686 1.6077 17.2984 1.6077 16.5709V7.42914C1.6077 6.70156 2.00281 6.03138 2.63944 5.67914L11.0317 1.03573Z" fill="#55C595"/>
<path d="M12.8947 16.3333C11.1842 16.3333 9.69263 15.3867 8.95368 14H12.8947L13.5789 12.6667H8.50211C8.46789 12.4467 8.44737 12.2267 8.44737 12C8.44737 11.7733 8.46789 11.5533 8.50211 11.3333H12.8947L13.5789 10H8.95368C9.69263 8.61333 11.1842 7.66667 12.8947 7.66667C13.9963 7.66667 15.0089 8.06 15.7889 8.71333L17 7.53333C15.9121 6.58 14.4684 6 12.8947 6C10.2126 6 7.94105 7.66667 7.07895 10H4.68421L4 11.3333H6.77789C6.73684 11.5533 6.73684 11.7733 6.73684 12C6.73684 12.2267 6.73684 12.4467 6.77789 12.6667H4.68421L4 14H7.07895C7.94105 16.3333 10.2126 18 12.8947 18C14.4753 18 15.9121 17.42 17 16.4667L15.7821 15.2867C15.0089 15.94 14.0032 16.3333 12.8947 16.3333Z" fill="white"/>
</svg>
