<svg width="115" height="114" viewBox="0 0 115 114" fill="none" xmlns="http://www.w3.org/2000/svg">
<path fill-rule="evenodd" clip-rule="evenodd" d="M42.6933 36.5526C50.8819 37.2275 59.5342 29.7291 66.5957 33.9296C73.6331 38.1157 72.6951 48.4813 75.6102 56.1331C78.7379 64.3429 86.0626 71.7377 84.2767 80.3397C82.4548 89.1151 73.9764 94.6451 66.5676 99.6886C59.3649 104.592 51.2038 110.515 42.6933 108.647C34.3599 106.818 30.9111 97.1505 25.3869 90.6486C21.3722 85.9234 18.3131 81.0183 14.8494 75.8755C9.63723 68.1363 -0.178798 62.2862 0.00247619 52.9573C0.188703 43.3736 6.79824 33.1768 15.7459 29.7385C24.6115 26.3318 33.2278 35.7724 42.6933 36.5526Z" fill="#E5EFCF"/>
<g clip-path="url(#clip0)">
<path d="M47.3796 45.7401C47.3655 45.7582 47.3615 45.7844 47.3394 45.8407C47.3414 45.8407 47.3434 45.8427 47.3454 45.8427C47.4158 45.8165 47.468 45.8045 47.5123 45.7804C51.359 43.7193 55.2982 41.8633 59.4124 40.3913C60.0317 40.1702 60.6531 39.947 61.2744 39.7258C61.5399 39.5166 61.759 39.2794 61.8978 38.9999C62.0084 38.7807 61.932 38.4248 61.6444 38.3765C60.4842 38.1875 59.3279 39.1185 58.3346 39.6373C57.0959 40.2828 55.8572 40.9282 54.6166 41.5717C53.3779 42.2172 52.1473 42.8747 50.9166 43.5383C50.3556 43.8419 49.7986 44.1616 49.2255 44.4432C48.8475 44.6282 48.4493 44.7689 48.0592 44.9258C47.9104 45.0866 47.7636 45.2495 47.6249 45.4204C47.5404 45.523 47.46 45.6316 47.3796 45.7401Z" fill="#E5EFCF"/>
<path d="M42.8753 52.0546C43.8686 51.4996 44.864 50.9446 45.8533 50.3816C46.2253 50.1705 46.5853 49.9352 46.9492 49.71C48.759 48.5859 50.6894 47.7333 52.7082 47.0637C55.1474 46.2534 57.5704 45.3947 60.0055 44.5683C60.5123 44.3974 61.021 44.2325 61.5297 44.0696C61.5116 43.9087 61.4031 43.772 61.198 43.7981C58.055 44.1963 54.7915 45.5335 51.9502 46.9029C50.3495 47.675 48.8032 48.5538 47.2428 49.4043C45.7045 50.2429 44.0818 51.013 42.6259 51.9943C42.6058 52.0526 42.5837 52.1129 42.5596 52.1773C42.7084 52.121 42.7989 52.0989 42.8753 52.0546Z" fill="#E5EFCF"/>
<path d="M40.5288 56.2354C40.7882 56.4365 41.0879 56.5833 41.3734 56.7563C41.4076 56.7361 41.4498 56.7281 41.4659 56.702C41.488 56.6658 41.5142 56.6336 41.5383 56.5974C41.5363 56.5954 41.5343 56.5914 41.5343 56.5894C41.5403 56.5873 41.5443 56.5833 41.5503 56.5813C41.9183 56.0625 42.4432 55.7589 43.0343 55.5498C43.6235 55.3426 44.2127 55.1335 44.8119 54.9646C46.0647 54.6107 47.2531 54.0919 48.4435 53.5751C49.9134 52.9357 51.3793 52.2802 52.8713 51.697C54.5162 51.0535 56.2475 50.6936 57.9728 50.3256C58.0251 50.3136 58.0774 50.3075 58.1296 50.2955C58.1256 50.2633 58.1156 50.2311 58.0995 50.203C59.3542 49.9697 60.6593 49.8873 61.9321 49.6942C62.5313 49.5696 63.1286 49.4268 63.7278 49.2961C64.0053 49.1292 63.8987 48.6647 63.5428 48.6466C61.7029 48.5521 59.68 49.0005 57.8783 49.3524C55.9539 49.7284 54.0979 50.3035 52.2842 51.0455C48.5963 52.5576 44.822 54.1563 41.3111 56.0464C40.9511 56.0866 40.5992 56.0585 40.2554 55.9439C40.3217 56.0444 40.4102 56.143 40.5288 56.2354Z" fill="#E5EFCF"/>
<path d="M42.3271 57.4596C42.502 57.5621 42.7071 57.6285 42.9082 57.6707C43.5858 57.8115 44.2796 57.8336 44.9552 57.7029C46.1677 57.4676 47.3742 57.1962 48.5767 56.9066C50.6358 56.4099 52.6848 55.8811 54.7439 55.3804C56.1857 55.0305 57.6637 54.8837 59.1275 54.6565C59.3327 54.6243 59.5398 54.6002 59.7449 54.572C59.6886 54.3569 59.4915 54.1678 59.212 54.2282C56.3023 54.8535 53.3927 55.4769 50.481 56.1023C49.0593 56.4079 47.6417 56.7357 46.224 57.0574C44.7903 57.3832 43.4411 57.8014 42.132 57.0051C42.0556 57.1861 42.1119 57.3349 42.3271 57.4596Z" fill="#E5EFCF"/>
<path d="M68.7893 53.7928C69.9757 53.4509 71.1762 53.1553 72.3686 52.8376C73.5389 52.5259 74.6911 52.1539 75.8132 51.6934C75.9419 51.6412 76.0907 51.5205 76.2173 51.6251C76.2958 51.3898 76.1771 51.0862 75.8775 51.1163C74.3251 51.2772 72.7205 52.168 71.2647 52.7129C69.7545 53.278 68.2283 53.7847 66.7523 54.4362C66.6096 54.4985 66.7162 54.7057 66.8529 54.6775C66.9957 54.573 67.1424 54.4744 67.2993 54.396C67.7759 54.1527 68.2766 53.9395 68.7893 53.7928Z" fill="#E5EFCF"/>
<path d="M91.1353 49.5182C91.8854 48.3197 92.4826 47.0469 93.0396 45.7519C93.6006 44.4489 94.1697 43.1438 94.8091 41.877C95.708 40.0934 96.8039 38.4707 98.0808 36.9967C97.9561 36.9525 97.8173 36.9605 97.6886 37.053C96.3615 38.0142 95.346 39.645 94.5216 41.0365C93.669 42.4762 93.0135 44.0206 92.4545 45.597C91.8432 47.3183 91.2459 48.9793 90.0716 50.409C88.9717 51.7482 87.6868 52.8722 86.1103 53.6182C86.056 53.6444 86.05 53.7067 86.0721 53.755C88.2659 52.9607 89.9047 51.4868 91.1353 49.5182Z" fill="#E5EFCF"/>
<path d="M9.14187 68.7266C9.12578 68.7346 9.11372 68.7467 9.10567 68.7608C9.05339 68.7447 9.00111 68.7306 8.95084 68.7165C9.39523 68.8834 9.84164 69.0543 10.284 69.2253C12.1099 69.9331 13.9538 70.6127 15.7293 71.4352C18.5867 72.7603 21.3677 74.2342 23.9134 76.1144C26.0811 77.717 28.0155 79.5649 29.8313 81.5496C31.1042 82.9411 32.4032 84.3105 33.7363 85.6477C34.7015 86.6149 35.7311 87.4876 36.8209 88.2718C36.6319 87.8737 36.2901 87.5117 36.0126 87.19C35.7753 86.9145 35.524 86.6551 35.2626 86.4038C35.2585 86.3977 35.2565 86.3917 35.2525 86.3857C34.3738 85.0967 33.2135 83.9867 32.1397 82.8627C31.0901 81.7648 30.0284 80.6789 28.9385 79.6192C26.7326 77.4757 24.4121 75.4226 21.8825 73.6692C19.3328 71.8997 16.5799 70.4116 13.6522 69.37C10.9355 68.4048 7.99167 67.5724 5.1001 67.2969C6.12763 67.6689 7.15517 68.0449 8.18069 68.427C8.4984 68.5255 8.82013 68.624 9.14187 68.7266Z" fill="#E5EFCF"/>
<path d="M68.2963 93.0893C69.3179 93.0994 70.3233 93.2321 71.3226 93.4191C71.3086 93.3386 71.2663 93.2582 71.1799 93.1979C70.2187 92.5243 68.6482 92.4036 67.5141 92.1141C66.1206 91.7601 64.7311 91.3902 63.3336 91.0503C60.629 90.3908 57.9024 89.7332 55.2722 88.8103C55.1938 88.7821 55.1395 88.8203 55.1113 88.8766C55.4894 88.9832 55.8654 89.0918 56.2354 89.2225C58.198 89.9182 60.2108 90.4431 62.2156 90.994C62.841 91.1649 63.4583 91.368 64.0696 91.5812C64.7915 91.8325 65.447 92.2166 66.0764 92.6489C66.4182 92.7374 66.7601 92.8259 67.1019 92.9144C67.3412 92.9767 67.5926 93.0551 67.852 93.1396C67.856 93.1376 67.858 93.1335 67.864 93.1335C67.9987 93.0933 68.1516 93.0873 68.2963 93.0893Z" fill="#E5EFCF"/>
<path d="M65.6303 87.898C67.2511 88.5616 68.9583 88.8914 70.6494 89.2955C72.5456 89.748 74.3473 90.4477 76.0163 91.4471C76.6738 91.8412 77.3455 92.0926 78.0854 92.2253C78.4393 92.2876 78.7912 92.35 79.1451 92.3801C79.1451 92.2494 79.0848 92.1147 78.942 92.0142C75.9318 89.8827 71.8921 89.002 68.3812 88.089C64.6169 87.1118 60.6455 86.2753 57.1668 84.4696C57.0682 84.4193 56.9818 84.4796 56.9536 84.56C58.9061 85.4528 60.9471 86.1245 62.9318 86.9328C63.8166 87.2928 64.7476 87.5361 65.6303 87.898Z" fill="#E5EFCF"/>
<path d="M69.1089 84.5958C70.4682 85.2513 71.8637 85.8143 73.2793 86.3291C74.4577 86.7554 75.5878 87.2822 76.6937 87.8614C76.8264 87.9297 76.9471 87.9961 77.1079 87.9358C77.5785 87.7628 78.0691 87.7407 78.5638 87.7407C78.7327 87.3607 78.5356 86.8117 77.9827 86.7695C74.2968 86.492 71.3067 84.5395 68.0532 82.9831C65.1757 81.6077 62.1474 80.6284 58.9884 80.2343C58.9361 80.2282 58.9019 80.2544 58.8838 80.2906C61.1641 81.0507 63.4464 81.8027 65.5959 82.9127C66.7502 83.5099 67.9406 84.0327 69.1089 84.5958Z" fill="#E5EFCF"/>
<path d="M66.8109 78.9976C67.1668 79.1323 67.5267 79.251 67.8907 79.3395C68.3411 79.4481 68.5965 78.8448 68.2044 78.5955C67.0803 77.8816 65.7753 77.4151 64.5708 76.846C63.3502 76.2709 62.1498 75.6576 60.9493 75.0463C58.5745 73.8358 56.3344 72.3418 53.9194 71.2197C55.3431 72.5227 56.9598 73.5523 58.6368 74.4813C61.3595 75.9894 64.0641 77.5337 66.8109 78.9976Z" fill="#E5EFCF"/>
<path d="M26.6583 36.9465C26.5739 37.2501 26.4834 37.5517 26.3849 37.8514C26.1778 38.2133 26.035 38.6235 25.8882 39.0016C25.8098 39.1986 25.7374 39.3997 25.669 39.6008C25.5725 39.8019 25.476 40.0009 25.3754 40.198C23.4993 44.5615 21.1527 48.6636 18.4079 52.5405C18.0339 53.0693 17.5996 53.5559 17.1974 54.0647C17.117 54.1672 17.0426 54.2818 16.9943 54.4025C16.9702 54.4588 16.942 54.5131 16.9038 54.5533C17.0224 54.6277 17.1411 54.7021 17.2597 54.7785C17.3201 54.7805 17.3864 54.7504 17.4105 54.6901C17.4125 54.684 17.4146 54.68 17.4166 54.674C17.4467 54.6458 17.4749 54.6157 17.499 54.5774C17.5553 54.4849 17.5855 54.3904 17.6116 54.2879C17.6197 54.2617 17.6217 54.2356 17.6237 54.2095C18.6492 52.0679 20.4067 50.407 21.774 48.4806C22.508 47.445 23.1535 46.3572 23.7185 45.219C24.0523 44.5454 24.4645 43.7934 24.7259 43.0313C25.7434 41.7101 26.2843 39.8743 26.771 38.3118C27.3179 36.5564 27.7422 34.6964 27.7663 32.8504C27.7663 32.8042 27.7382 32.77 27.702 32.7539C27.6959 33.2526 27.6014 33.7412 27.4808 34.2238C27.2515 35.1488 26.972 36.0537 26.6583 36.9465Z" fill="#E5EFCF"/>
<path d="M54.8745 61.4523C54.8363 61.2492 54.778 61.0461 54.6975 60.8551C54.5146 60.4248 54.1607 60.3745 53.8389 60.7184C53.8289 60.7304 53.8148 60.7425 53.8027 60.7546C53.8128 60.7586 53.8228 60.7646 53.8349 60.7686C53.857 60.7767 53.8791 60.7867 53.9013 60.7968C53.8269 60.8873 53.7987 61.02 53.861 61.1185C54.1124 61.5147 54.41 61.8505 54.5508 62.3069C54.6855 62.7413 54.6634 63.1676 54.8363 63.5918C54.8685 63.6703 54.9449 63.7346 55.0273 63.7507C55.0595 62.9846 55.0213 62.2164 54.8745 61.4523Z" fill="#E5EFCF"/>
<path d="M53.6759 60.3105C53.6075 60.4071 53.5995 60.5398 53.6658 60.6443C53.6477 60.5177 53.6498 60.4071 53.6759 60.3105Z" fill="#E5EFCF"/>
<path d="M94.0811 51.133C94.437 49.8179 94.6662 48.4787 94.8532 47.1315C94.8693 47.0108 94.8613 46.8861 94.8753 46.7655C94.8975 46.5745 94.9216 46.3814 94.9618 46.1944C95.0322 45.8787 95.0644 45.5731 94.9196 45.2614C94.8391 45.0864 94.7688 44.9095 94.7125 44.7285C94.5134 45.199 94.3203 45.6736 94.1173 46.1421C94.0268 47.7769 93.9684 49.4017 93.6708 51.0385C93.2747 53.2202 92.6634 55.3497 91.9275 57.441C90.908 60.3325 89.6452 63.4513 89.2993 66.5882C89.8141 64.131 90.5943 61.7482 91.4509 59.3895C92.4402 56.6728 93.327 53.924 94.0811 51.133Z" fill="#E5EFCF"/>
<path d="M54.7978 65.5758C54.7616 65.8573 54.8622 66.0484 55.0572 66.1288C55.2523 66.2092 55.4694 66.1509 55.6424 65.9418C55.9661 65.5477 56.2034 65.1154 56.2557 64.5925C56.3502 63.6615 56.3482 62.7325 56.1672 61.8136C56.0868 61.4094 55.9661 61.0032 55.7952 60.6292C55.6786 60.3718 55.4775 60.1325 55.2603 59.9455C54.9004 59.6358 54.3474 59.6539 53.9613 59.9274C53.8105 60.036 53.716 60.1587 53.6738 60.3095C53.6476 60.406 53.6456 60.5166 53.6637 60.6433C53.6738 60.7056 53.6858 60.7699 53.706 60.8403C53.7462 60.8041 53.7743 60.778 53.7985 60.7559C53.8105 60.7438 53.8246 60.7317 53.8346 60.7197C54.1564 60.3758 54.5103 60.4261 54.6933 60.8564C54.7737 61.0454 54.832 61.2505 54.8702 61.4536C55.017 62.2177 55.0572 62.9859 55.021 63.756C55.009 63.9993 54.9909 64.2447 54.9647 64.488C54.9285 64.8519 54.8461 65.2119 54.7978 65.5758Z" fill="black"/>
<path d="M41.3314 57.2479C41.4782 58.006 42.0131 58.3257 42.6847 58.4926C42.7913 58.5188 42.8978 58.5449 43.0064 58.565C43.9334 58.7319 44.8644 58.7219 45.7834 58.5308C47.9631 58.0764 50.1429 57.6119 52.3146 57.1132C53.4467 56.8538 54.5526 56.4758 55.6847 56.2144C57.5206 55.7921 59.3706 55.4301 61.2125 55.026C62.1314 54.8249 63.0444 54.5896 63.9593 54.3624C64.1041 54.3262 64.2388 54.2518 64.3795 54.1935C64.3735 54.1673 64.3675 54.1412 64.3614 54.1151C64.283 54.1151 64.2046 54.107 64.1282 54.1171C63.8246 54.1513 63.5209 54.1975 63.2153 54.2257C62.057 54.3302 60.8968 54.4207 59.7426 54.5735C59.5375 54.6017 59.3303 54.6258 59.1252 54.658C57.6614 54.8852 56.1854 55.032 54.7416 55.3819C52.6846 55.8806 50.6335 56.4114 48.5744 56.9081C47.3719 57.1977 46.1654 57.4691 44.9529 57.7044C44.2773 57.8351 43.5855 57.813 42.9059 57.6722C42.7048 57.63 42.4997 57.5636 42.3248 57.4611C42.1116 57.3364 42.0533 57.1876 42.1277 57.0066C42.1478 56.9564 42.176 56.9041 42.2162 56.8478C42.4293 56.5502 42.7149 56.3411 43.0567 56.2164C43.298 56.1279 43.5453 56.0575 43.7947 55.9992C45.5682 55.593 47.2734 54.9998 48.9203 54.2257C49.9619 53.737 51.0156 53.2705 52.0793 52.8321C53.7845 52.1284 55.5822 51.7423 57.3798 51.3602C58.6487 51.0908 59.9195 50.8294 61.2105 50.6765C61.9042 50.5941 62.5799 50.4151 63.2354 50.1618C63.7019 49.9808 64.1785 49.8199 64.651 49.649C64.7194 49.6249 64.7938 49.6068 64.8561 49.5686C65.021 49.468 65.015 49.275 64.832 49.1986C64.7355 49.1564 64.6168 49.1443 64.5102 49.1543C64.2911 49.1785 64.0759 49.2207 63.8607 49.2669C63.8165 49.277 63.7743 49.2871 63.73 49.2951C63.1308 49.4238 62.5336 49.5686 61.9344 49.6932C61.6187 49.7576 61.305 49.8199 60.9873 49.8662C60.0341 50.0049 59.077 50.1055 58.1319 50.2945C58.0796 50.3045 58.0273 50.3126 57.975 50.3246C56.2498 50.6926 54.5204 51.0526 52.8736 51.696C51.3815 52.2792 49.9156 52.9347 48.4457 53.5741C47.2553 54.0929 46.0669 54.6097 44.8142 54.9636C44.2149 55.1325 43.6238 55.3417 43.0366 55.5488C42.4454 55.7579 41.9206 56.0615 41.5526 56.5803C41.5486 56.5864 41.5446 56.5904 41.5405 56.5964C41.5164 56.6306 41.4903 56.6628 41.4681 56.701C41.4521 56.7271 41.4098 56.7372 41.3756 56.7553C41.0901 56.5823 40.7905 56.4335 40.5311 56.2345C40.4125 56.142 40.322 56.0434 40.2596 55.9409C40.0988 55.6815 40.1149 55.3899 40.322 55.0722C40.5331 54.7465 40.7885 54.4408 41.062 54.1673C41.5184 53.7129 42.0774 53.4012 42.6646 53.1458C44.038 52.5466 45.349 51.8348 46.6098 51.0284C48.6026 49.7556 50.728 48.7803 52.9741 48.0383C55.6807 47.1435 58.3812 46.2185 61.0114 45.1065C61.8781 44.7406 62.7045 44.2801 63.543 43.8518C63.7321 43.7553 63.9211 43.6386 64.0659 43.4014C63.9452 43.3913 63.8648 43.3652 63.7924 43.3813C63.5893 43.4255 63.3882 43.4798 63.1911 43.5441C62.6402 43.7211 62.0872 43.894 61.5362 44.071C61.0275 44.2338 60.5187 44.3987 60.012 44.5696C57.5769 45.3961 55.1539 46.2547 52.7147 47.0651C50.6938 47.7347 48.7634 48.5893 46.9557 49.7113C46.5917 49.9366 46.2318 50.1718 45.8598 50.383C44.8705 50.946 43.8771 51.501 42.8818 52.056C42.8033 52.1002 42.7149 52.1203 42.5661 52.1786C42.5902 52.1143 42.6123 52.054 42.6324 51.9956C42.6988 51.8086 42.7531 51.6518 42.8214 51.501C43.2839 50.4976 43.9073 49.6209 44.7538 48.8949C46.4309 47.4592 48.2728 46.2849 50.2575 45.3277C53.2476 43.888 56.2859 42.5568 59.3505 41.2799C60.6153 40.7531 61.8861 40.2283 62.9961 39.3978C63.0544 39.3536 63.1007 39.2952 63.1811 39.2148C62.8875 39.1304 62.6724 39.2349 62.4592 39.3093C62.0651 39.4481 61.671 39.5868 61.2768 39.7276C60.6555 39.9488 60.0361 40.17 59.4148 40.3932C55.3006 41.8651 51.3614 43.7211 47.5147 45.7822C47.4705 45.8063 47.4182 45.8184 47.3478 45.8445C47.3458 45.8445 47.3438 45.8465 47.3398 45.8465C47.3398 45.8445 47.3418 45.8425 47.3418 45.8425C47.3639 45.7842 47.3679 45.7601 47.382 45.742C47.4624 45.6334 47.5429 45.5248 47.6293 45.4222C47.7701 45.2513 47.9149 45.0884 48.0637 44.9276C48.9183 44.0086 49.9116 43.2546 50.9975 42.6111C52.4935 41.7243 53.9896 40.8396 55.4836 39.9468C56.2095 39.5144 56.9133 39.0419 57.6513 38.6337C59.7305 37.4835 61.8218 36.3574 63.909 35.2213C64.0659 35.1368 64.2187 35.0484 64.3735 34.9599C64.2649 34.9036 64.1825 34.8996 64.1061 34.9217C63.6838 35.0443 63.2555 35.1549 62.8413 35.3037C60.6092 36.1 58.4617 37.0853 56.4126 38.2697C54.3777 39.4461 52.3668 40.6686 50.352 41.8792C49.3385 42.4884 48.4256 43.2284 47.6132 44.0871C46.9597 44.7768 46.4088 45.5409 46.1011 46.4518C46.0367 46.6408 45.9302 46.7574 45.7794 46.8741C45.1178 47.3808 44.4361 47.8634 43.8188 48.4184C42.8033 49.3313 42.1619 50.4674 42.003 51.8489C41.9789 52.068 41.9427 52.2852 41.9125 52.4903C41.5405 52.7417 41.1665 52.9749 40.8146 53.2383C40.3079 53.6184 39.9057 54.095 39.6202 54.662C39.2804 55.3417 39.3749 56.0093 39.8896 56.5622C40.2717 56.9785 40.706 57.3042 41.3314 57.2479Z" fill="black"/>
<path d="M80.3855 90.5436C79.8104 89.8499 79.0885 89.317 78.3284 88.8384C78.2198 88.7701 78.1192 88.6917 78.0127 88.6193C78.2158 88.567 78.3947 88.5891 78.5717 88.5911C78.9618 88.5971 79.3579 88.6293 79.744 88.5831C80.3995 88.5026 80.7534 88.0562 80.7554 87.3967C80.7575 86.904 80.5403 86.4978 80.2547 86.1198C79.6113 85.2692 78.7848 84.6579 77.8136 84.2256C76.404 83.5982 74.9964 82.9668 73.5969 82.3193C72.1732 81.6618 70.7455 81.0163 69.346 80.3105C68.4954 79.8822 67.6509 79.4418 66.8103 78.9934C64.0615 77.5315 61.357 75.9872 58.6343 74.4771C56.9573 73.5461 55.3406 72.5185 53.9169 71.2155C53.9028 71.2014 53.8867 71.1894 53.8727 71.1773C53.8023 71.113 53.7178 71.0486 53.6293 71.0185C53.557 70.9943 53.4423 70.9963 53.3941 71.0386C53.3518 71.0768 53.3418 71.2035 53.374 71.2638C53.4564 71.4267 53.5489 71.5895 53.6716 71.7243C54.3975 72.5246 55.1716 73.2766 56.0785 73.8698C56.6918 74.272 57.3192 74.6601 57.9566 75.024C59.2094 75.7439 60.4823 76.4316 61.733 77.1515C64.5884 78.7964 67.4799 80.3769 70.47 81.7643C72.7021 82.7999 74.9562 83.7913 77.2003 84.8027C77.4577 84.9193 77.7151 85.034 77.9624 85.1667C78.632 85.5266 79.197 86.0092 79.6153 86.6466C79.738 86.8336 79.8224 87.0649 79.8606 87.2861C79.9049 87.5314 79.7963 87.6541 79.5469 87.6862C79.2554 87.7224 78.9618 87.7365 78.6682 87.7345C78.634 87.7345 78.5998 87.7345 78.5656 87.7345C78.071 87.7345 77.5803 87.7586 77.1098 87.9295C76.9489 87.9879 76.8283 87.9235 76.6956 87.8551C75.5876 87.276 74.4575 86.7492 73.2812 86.3229C71.8656 85.8101 70.468 85.2451 69.1107 84.5896C67.9424 84.0265 66.752 83.5037 65.5978 82.9085C63.4502 81.7985 61.1679 81.0465 58.8857 80.2864C58.7851 80.2522 58.6866 80.22 58.586 80.1858C58.4091 80.1275 58.214 80.1195 58.025 80.0873C58.1477 80.401 58.1819 80.4452 58.4493 80.5759C58.8012 80.7469 59.1571 80.9138 59.5211 81.0565C62.3161 82.1544 65.0207 83.4534 67.7192 84.7645C69.5169 85.6372 71.3307 86.4637 73.2088 87.1473C75.095 87.833 76.8665 88.75 78.5114 89.8961C78.9899 90.2299 79.4142 90.6462 79.8244 91.0664C80.0416 91.2876 80.1924 91.5832 80.3312 91.8668C80.488 92.1905 80.4035 92.3152 80.0557 92.3654C79.9712 92.3775 79.8848 92.3775 79.7983 92.3835C79.5791 92.3976 79.3619 92.3916 79.1448 92.3735C78.7889 92.3433 78.437 92.281 78.0851 92.2186C77.3451 92.0859 76.6735 91.8346 76.0159 91.4405C74.3469 90.4411 72.5452 89.7413 70.649 89.2889C68.9599 88.8847 67.2507 88.5549 65.63 87.8913C64.7472 87.5294 63.8162 87.2861 62.9335 86.9261C60.9468 86.1178 58.9078 85.4442 56.9553 84.5534C56.8788 84.5192 56.8024 84.485 56.726 84.4508C56.6154 84.3985 56.4948 84.3462 56.3781 84.3462C56.2856 84.3462 56.163 84.4026 56.1127 84.4749C56.0805 84.5232 56.1288 84.666 56.1831 84.7263C56.2736 84.8228 56.3942 84.8932 56.5109 84.9596C57.6208 85.5869 58.7489 86.1741 59.9293 86.6567C62.0386 87.5193 64.1741 88.3056 66.3398 89.0114C67.0255 89.2346 67.7233 89.4357 68.4311 89.5684C70.5947 89.9766 72.7001 90.5476 74.6948 91.5028C75.5635 91.919 76.3698 92.4197 77.0977 93.0451C77.323 93.2402 77.514 93.4613 77.6125 93.7489C77.699 94.0002 77.6387 94.1611 77.3913 94.2456C77.2083 94.3079 77.0093 94.3521 76.8182 94.3461C76.4161 94.334 76.0079 94.318 75.6117 94.2476C74.3469 94.0183 73.0861 93.771 71.8274 93.5116C71.6584 93.4774 71.4895 93.4453 71.3206 93.4131C70.3212 93.2261 69.3158 93.0914 68.2943 93.0833C68.1495 93.0813 67.9967 93.0873 67.858 93.1235C67.854 93.1255 67.8499 93.1275 67.8459 93.1296C67.7413 93.1658 67.7233 93.2723 67.8097 93.3528C67.8781 93.4171 67.9726 93.4613 68.0651 93.4895C68.3225 93.5659 68.5819 93.6383 68.8453 93.6966C69.9191 93.9399 70.9989 94.1671 72.0707 94.4205C73.4782 94.7543 74.8899 95.0559 76.3296 95.2047C76.7599 95.249 77.1882 95.2429 77.6025 95.1022C78.4189 94.8287 78.7104 94.1088 78.3244 93.3407C78.2721 93.2361 78.2138 93.1316 78.1333 92.9767C78.2761 93.0109 78.3686 93.029 78.4591 93.0531C78.998 93.204 79.5469 93.2261 80.0999 93.1758C81.045 93.0914 81.4492 92.4358 81.053 91.5792C80.8821 91.2173 80.6489 90.8593 80.3855 90.5436Z" fill="black"/>
<path d="M102.175 34.749C103.605 33.6068 105.123 32.5994 106.683 31.6483C108.304 30.659 109.921 29.6556 111.385 28.439C112.599 27.4296 113.776 26.3739 114.968 25.3383C114.982 25.3262 114.98 25.2961 115 25.2217C114.815 25.276 114.642 25.2961 114.502 25.3725C114.083 25.6017 113.665 25.833 113.267 26.0964C110.677 27.8217 108.059 29.5027 105.366 31.0652C104.071 31.8172 102.847 32.6698 101.668 33.5928C100.349 34.6263 99.1529 35.7584 98.0811 36.9971C96.8042 38.471 95.7103 40.0958 94.8095 41.8774C94.17 43.1442 93.601 44.4492 93.04 45.7523C92.4809 47.0472 91.8837 48.3201 91.1357 49.5185C89.9031 51.4871 88.2642 52.9631 86.0764 53.7534C85.996 53.7815 85.9176 53.8117 85.8351 53.8398C84.8136 54.1796 83.7921 54.5336 82.7505 54.803C80.4099 55.4083 78.1176 56.1483 75.8956 57.1014C74.1603 57.8454 72.3927 58.4909 70.587 59.0459C69.2136 59.4681 67.8241 59.8039 66.4045 60.0131C65.8334 60.0975 65.2643 60.1498 64.6852 60.0352C64.0015 59.9005 63.529 59.5325 63.2917 58.8729C63.2173 58.6658 63.1449 58.4567 63.0705 58.2496C63.0404 58.1691 63.0202 58.0786 62.968 58.0163C62.9097 57.9479 62.8111 57.8514 62.7488 57.8615C62.6603 57.8776 62.5437 57.9681 62.5155 58.0525C62.4673 58.1993 62.4592 58.3662 62.4713 58.521C62.4914 58.7885 62.5517 59.0539 62.5779 59.3213C62.606 59.6149 62.7287 59.8602 62.9056 60.0855C63.161 60.4092 63.4767 60.6565 63.8507 60.8275C64.3916 61.0768 64.9587 61.2155 65.5559 61.2155C66.7523 61.2135 67.9267 61.0064 69.0749 60.7128C71.329 60.1357 73.5429 59.4199 75.7005 58.5411C77.7657 57.7006 79.8529 56.9244 81.9945 56.2971C83.1808 55.9492 84.3572 55.5651 85.5275 55.169C87.1542 54.616 88.6704 53.8599 89.9312 52.6615C91.005 51.642 91.93 50.5018 92.6418 49.2028C93.1003 48.3663 93.5065 47.4997 93.9026 46.631C93.977 46.4701 94.0474 46.3052 94.1178 46.1424C94.3208 45.6738 94.5139 45.1993 94.713 44.7287C94.7693 44.9097 94.8396 45.0867 94.9201 45.2616C95.0649 45.5713 95.0327 45.8769 94.9623 46.1946C94.9201 46.3816 94.898 46.5747 94.8758 46.7657C94.8618 46.8864 94.8698 47.011 94.8537 47.1317C94.6647 48.4789 94.4355 49.8182 94.0816 51.1332C93.3275 53.9243 92.4407 56.6731 91.4534 59.3917C90.5968 61.7504 89.8166 64.1333 89.3018 66.5905C89.1993 67.0852 89.1007 67.5818 89.0223 68.0825C88.8755 69.0035 88.7529 69.9285 88.8413 70.8615C88.8735 71.1973 88.9419 71.5472 89.0726 71.8569C89.4003 72.631 90.1645 72.7436 90.7094 72.1082C90.8984 71.887 91.0613 71.6316 91.1799 71.3662C91.4916 70.6745 91.7973 69.9787 92.0627 69.2669C92.7604 67.3928 93.1928 65.4403 93.6915 63.5079C94.0775 62.0118 94.2847 60.4816 94.5461 58.9614C94.9342 56.7153 95.2539 54.4612 95.467 52.1909C95.5113 51.7284 95.5676 51.268 95.6279 50.7391C95.6842 50.8397 95.7103 50.8678 95.7184 50.902C95.7546 51.095 95.7908 51.2881 95.8169 51.4811C96.199 54.2701 96.1507 57.0551 95.7103 59.8301C95.3504 62.0923 94.9321 64.3444 94.5461 66.6005C94.0534 69.474 93.5728 72.3495 93.3577 75.2612C93.2893 76.1902 93.2732 77.1212 93.4019 78.0502C93.4602 78.4644 93.5427 78.8726 93.7739 79.2326C94.1338 79.7916 94.7572 79.8881 95.2519 79.4437C95.4208 79.2909 95.5676 79.0979 95.6782 78.8988C95.8491 78.5891 96.0019 78.2654 96.1266 77.9356C97.126 75.3135 97.5885 72.5767 97.8036 69.7958C97.9946 67.3265 97.9765 64.8491 97.8941 62.3738C97.8881 62.1667 97.8941 61.9595 97.8941 61.7504C97.9082 61.7524 97.9222 61.7544 97.9343 61.7565C97.9685 62.1586 98.0087 62.5608 98.0328 62.963C98.1173 64.3444 98.1957 65.7258 98.2762 67.1093C98.3847 68.9432 98.5315 70.777 98.5919 72.6129C98.6663 74.8289 98.6723 77.0468 98.6964 79.2648C98.7025 79.8399 98.6864 80.417 98.6522 80.9921C98.5315 83.0471 98.3807 85.1002 98.2762 87.1553C98.238 87.8993 98.2681 88.6493 98.3284 89.3933C98.3948 90.2278 98.612 91.0362 98.9799 91.7922C99.1127 92.0637 99.2776 92.3331 99.4827 92.5523C99.8949 92.9927 100.454 92.9947 100.88 92.5664C101.065 92.3794 101.214 92.1441 101.339 91.9089C101.588 91.4383 101.703 90.9215 101.777 90.3987C102.05 88.4723 102.055 86.5399 101.89 84.6055C101.771 83.214 101.628 81.8245 101.495 80.4351C101.226 77.63 100.848 74.8389 100.406 72.0559C100.323 71.5412 100.247 71.0264 100.166 70.5116C100.249 70.6162 100.287 70.7308 100.319 70.8474C100.478 71.4386 100.627 72.0318 100.792 72.623C102.065 77.1896 103.223 81.7843 103.947 86.4756C104.317 88.8745 104.598 91.2815 104.725 93.7065C104.811 95.3474 104.968 96.9802 105.171 98.6089C105.191 98.7658 105.222 98.9246 105.276 99.0734C105.334 99.2363 105.463 99.3308 105.646 99.3127C105.831 99.2946 105.929 99.178 105.966 99.0071C105.988 98.9005 105.994 98.7879 105.994 98.6773C105.996 98.3475 105.99 98.0158 105.986 97.684C105.956 95.1825 105.736 92.6931 105.471 90.2077C105.171 87.4046 104.711 84.6276 104.16 81.8627C103.561 78.8566 102.764 75.9026 101.96 72.9487C101.751 72.1826 101.552 71.4145 101.349 70.6483C101.504 70.8152 101.602 71.0043 101.697 71.1953C102.797 73.4253 103.876 75.6654 105.004 77.8793C105.785 79.4095 106.698 80.8634 107.787 82.1965C108.049 82.5163 108.358 82.8018 108.668 83.0773C108.907 83.2924 109.205 83.4171 109.529 83.4634C110.156 83.5559 110.647 83.1879 110.721 82.5585C110.739 82.4017 110.729 82.2388 110.707 82.0839C110.593 81.2474 110.263 80.4813 109.911 79.7252C108.61 76.9282 106.991 74.3181 105.248 71.7804C104.208 70.2663 103.144 68.7682 102.113 67.246C100.969 65.5569 99.9773 63.7874 99.3178 61.8449C99.1066 61.2216 99.0021 60.5761 98.8955 59.9246C99.0745 60.1759 99.2212 60.4414 99.368 60.7068C101.417 64.449 104.138 67.6401 107.379 70.397C108.101 71.0103 108.871 71.5512 109.75 71.9212C109.953 72.0057 110.162 72.0821 110.375 72.1263C110.914 72.2389 111.284 71.9272 111.226 71.3823C111.196 71.0948 111.113 70.8012 110.995 70.5378C110.798 70.1034 110.568 69.6832 110.321 69.275C108.688 66.5865 106.756 64.1172 104.745 61.7082C103.106 59.7416 101.423 57.8112 99.7702 55.8547C98.7547 54.6542 97.8579 53.3693 97.1441 51.9637C97.0294 51.7365 96.939 51.4912 96.8766 51.2458C96.7157 50.5923 96.577 49.9328 96.4302 49.2752C96.4 49.1425 96.382 49.0098 96.3558 48.8771C96.4744 48.9495 96.5368 49.0359 96.5991 49.1244C97.6347 50.5823 98.6522 52.0542 99.7099 53.496C100.8 54.98 101.996 56.3694 103.394 57.584C105.342 59.2791 107.484 60.7008 109.692 62.0259C109.879 62.1385 110.082 62.2391 110.293 62.2974C110.538 62.3637 110.798 62.4039 111.051 62.4019C111.445 62.3979 111.68 62.1445 111.698 61.7484C111.704 61.5916 111.69 61.4287 111.664 61.2739C111.554 60.6143 111.296 60.007 110.981 59.4219C109.67 56.9948 107.926 54.9277 105.758 53.2265C103.808 51.6983 101.723 50.3651 99.6194 49.0601C99.0785 48.7243 98.5476 48.3704 98.0308 47.9984C97.3934 47.5399 96.8827 46.9648 96.5971 46.2208C96.3699 45.6276 96.1768 45.0203 95.9617 44.4231C95.8511 44.1134 95.7546 43.7917 95.5957 43.5082C95.5273 43.3875 95.4751 43.2689 95.4389 43.1462C97.0576 39.8545 99.2896 37.0534 102.175 34.749ZM100.361 66.0134C101.238 67.5034 102.209 68.9311 103.227 70.3266C105.433 73.3529 107.403 76.52 109.03 79.8962C109.354 80.5698 109.664 81.2494 109.826 81.9854C109.869 82.1764 109.897 82.3675 109.84 82.5585C109.597 82.6208 109.428 82.5042 109.294 82.3715C109.022 82.1081 108.739 81.8447 108.525 81.535C107.916 80.6462 107.309 79.7554 106.758 78.8304C105.541 76.7874 104.524 74.6378 103.482 72.5023C102.579 70.6524 101.634 68.8245 100.544 67.0771C100.303 66.691 100.267 66.2507 100.207 65.8002C100.259 65.8726 100.317 65.939 100.361 66.0134ZM99.2253 86.8858C99.3158 85.3334 99.4706 83.7831 99.539 82.2307C99.6194 80.4089 99.6616 78.5831 99.6717 76.7573C99.6837 74.7002 99.6234 72.6411 99.4404 70.59C99.4284 70.4573 99.4384 70.3226 99.4827 70.1818C99.5611 70.6604 99.6536 71.139 99.7119 71.6196C100.03 74.2457 100.361 76.8699 100.645 79.5C100.852 81.4365 101.017 83.3769 101.154 85.3194C101.264 86.8838 101.262 88.4543 101.045 90.0147C100.977 90.5013 100.876 90.9819 100.661 91.4263C100.56 91.6334 100.454 91.8405 100.215 91.9752C99.9693 91.8103 99.8748 91.5811 99.7762 91.3599C99.4344 90.5898 99.2434 89.7794 99.2092 88.9409C99.181 88.2572 99.1851 87.5695 99.2253 86.8858ZM105.901 54.5315C107.671 56.0155 109.163 57.7408 110.285 59.7698C110.546 60.2443 110.767 60.7329 110.866 61.2698C110.878 61.3382 110.88 61.4106 110.888 61.5212C110.765 61.4951 110.671 61.491 110.588 61.4548C110.422 61.3804 110.255 61.3 110.102 61.1995C108.097 59.8985 106.151 58.521 104.329 56.9687C103.074 55.8989 101.962 54.6944 100.957 53.3934C99.8627 51.9798 98.805 50.538 97.7332 49.1083C97.6769 49.0319 97.6267 48.9495 97.5744 48.8711C100.48 50.5903 103.325 52.3699 105.901 54.5315ZM97.7131 54.5838C97.7433 54.618 97.7795 54.6522 97.8056 54.6904C99.0805 56.4921 100.514 58.1671 101.96 59.8301C104.669 62.9469 107.267 66.1501 109.549 69.5967C109.778 69.9425 109.995 70.3005 110.2 70.6604C110.313 70.8575 110.391 71.0767 110.434 71.3421C110.339 71.3099 110.241 71.2858 110.152 71.2436C109.521 70.9379 108.946 70.5458 108.413 70.0893C107.305 69.1382 106.279 68.1046 105.276 67.047C102.441 64.0609 100.277 60.6223 98.4551 56.9506C98.1153 56.2649 97.8358 55.5671 97.691 54.8171C97.6769 54.7467 97.6669 54.6763 97.6548 54.6059C97.6749 54.5979 97.693 54.5919 97.7131 54.5838ZM96.5308 60.1015C96.6474 59.3897 96.7158 58.6718 96.8545 57.952C96.8967 58.4245 96.949 58.895 96.9792 59.3696C97.1601 62.1828 97.2004 64.9959 97.0918 67.8131C97.0073 69.9968 96.7801 72.1585 96.3357 74.298C96.1065 75.402 95.8129 76.4878 95.3846 77.5334C95.2639 77.827 95.1212 78.1126 94.9704 78.3921C94.898 78.5248 94.7833 78.6334 94.6546 78.7922C94.4234 78.4343 94.3731 78.1025 94.3591 77.7767C94.3269 77.0066 94.2826 76.2344 94.3229 75.4663C94.4616 72.8341 94.8477 70.2301 95.274 67.6321C95.6882 65.1226 96.1205 62.6131 96.5308 60.1015ZM94.7713 52.201C94.5219 54.5637 94.17 56.9124 93.792 59.259C93.3014 62.3054 92.4628 65.2573 91.5479 68.1911C91.2543 69.1342 90.82 70.033 90.4379 70.948C90.3414 71.1792 90.2147 71.4044 89.9855 71.5874C89.8266 71.32 89.8045 71.0565 89.7904 70.7911C89.7402 69.8299 89.891 68.8869 90.0519 67.9438C90.5164 65.2171 91.3488 62.591 92.2557 59.9889C93.1666 57.3749 94.0273 54.7467 94.6727 52.0522C94.6888 51.9818 94.717 51.9155 94.7894 51.8471C94.7854 51.9657 94.7833 52.0844 94.7713 52.201Z" fill="black"/>
<path d="M68.2966 94.164C68.1538 94.3751 68.0332 94.6044 67.9407 94.8416C67.814 95.1714 67.5948 95.3805 67.2509 95.4248C66.887 95.471 66.519 95.5173 66.155 95.5092C65.0873 95.4831 64.0276 95.3484 62.984 95.1312C61.0636 94.729 59.1212 94.4696 57.1807 94.2102C55.6645 94.0071 54.1363 93.8805 52.6161 93.6995C50.3881 93.4361 48.1702 93.1204 46.0166 92.4608C44.611 92.0305 43.1833 91.6726 41.828 91.0914C40.0424 90.3273 38.3694 89.3903 36.819 88.2743C35.7292 87.49 34.6976 86.6173 33.7344 85.6501C32.4033 84.3149 31.1043 82.9456 29.8294 81.5521C28.0136 79.5674 26.0792 77.7174 23.9115 76.1168C21.3658 74.2346 18.5848 72.7607 15.7274 71.4376C13.9519 70.6151 12.11 69.9335 10.2821 69.2277C9.83772 69.0567 9.39332 68.8858 8.94893 68.7189C8.69154 68.6224 8.43215 68.5259 8.17476 68.4294C7.14924 68.0473 6.1217 67.6733 5.09417 67.2993C5.02178 67.2731 4.94738 67.247 4.87499 67.2188C3.97816 66.8931 3.06926 66.6015 2.15835 66.31C1.78836 66.1913 1.4063 66.1169 1.02827 66.0244C1.01821 66.0606 1.00816 66.0988 0.996094 66.135C1.20321 66.2335 1.4063 66.3381 1.61744 66.4266C2.39563 66.7543 3.19192 67.0439 3.95403 67.4059C6.83353 68.7712 9.80554 69.9174 12.7474 71.1339C12.8942 71.1943 13.041 71.2586 13.1878 71.3189C13.1837 71.3491 13.1797 71.3813 13.1757 71.4114C13.0892 72.0911 13.0088 72.7728 12.9203 73.4524C12.7353 74.8721 12.5302 76.2917 12.3633 77.7134C12.2346 78.8193 12.1441 79.9313 12.0496 81.0413C11.8787 83.0541 11.6796 85.067 11.565 87.0839C11.4484 89.1369 11.4042 91.196 11.3579 93.2531C11.3418 93.9991 11.3981 94.7471 11.4484 95.4911C11.4705 95.831 11.6314 95.9878 11.8445 95.9717C12.0476 95.9556 12.1522 95.8149 12.1703 95.475C12.2185 94.5943 12.2628 93.7136 12.299 92.8328C12.3854 90.7395 12.4377 88.6463 12.5564 86.555C12.6489 84.892 12.8117 83.2331 12.9545 81.5742C13.1636 79.1572 13.3768 76.7421 13.598 74.3271C13.6844 73.3841 13.7146 72.443 13.6 71.4899C16.0451 72.5395 18.422 73.7219 20.7143 75.0651C23.4933 76.6939 25.9244 78.759 28.082 81.1519C29.6565 82.8993 31.2108 84.6648 32.8939 86.3117C34.8766 88.2521 37.0664 89.903 39.5176 91.2121C41.082 92.0486 42.7389 92.6277 44.424 93.1606C47.1366 94.0192 49.9055 94.546 52.7327 94.7954C54.6973 94.9683 56.6619 95.1272 58.6245 95.3222C59.6842 95.4268 60.7439 95.5575 61.7915 95.7465C63.1066 95.9838 64.4157 96.2351 65.7509 96.3256C66.3642 96.3658 66.9734 96.3638 67.5767 96.213C68.4957 95.9838 68.8134 95.0849 68.8194 94.4616C68.8194 94.3791 68.8013 94.2887 68.7671 94.2122C68.6666 93.973 68.4474 93.9408 68.2966 94.164Z" fill="black"/>
<path d="M11.3136 51.6223C12.1641 52.2637 12.9966 52.9313 13.8754 53.5326C15.3895 54.5722 16.9419 55.5575 18.4641 56.587C20.1873 57.7533 21.8885 58.9578 23.6138 60.1221C25.2385 61.22 26.9055 62.2475 28.6871 63.08C30.4225 63.8904 32.184 64.6102 34.058 65.0446C36.6621 65.6478 39.3003 65.7061 41.9506 65.5795C43.0263 65.5272 44.1001 65.4065 45.1759 65.3563C45.932 65.3221 46.6961 65.3241 47.4522 65.3703C48.912 65.4588 50.2854 65.9032 51.6287 66.4562C52.2842 66.7276 52.9357 67.0112 53.5933 67.2806C53.7541 67.347 53.9271 67.3832 54.094 67.4314C54.106 67.4093 54.1181 67.3872 54.1301 67.3651C54.0799 67.3007 54.0417 67.2243 53.9793 67.1761C53.7501 66.9931 53.5209 66.8081 53.2755 66.6452C50.6213 64.8857 47.7136 64.0934 44.5284 64.3267C42.5116 64.4755 40.4947 64.5881 38.4698 64.5197C36.9094 64.4675 35.3691 64.2543 33.855 63.8843C31.0679 63.2027 28.5041 61.9962 26.065 60.5102C25.0616 59.8989 24.0723 59.2594 23.099 58.5999C21.1727 57.2948 19.2221 56.024 17.2576 54.7773C17.1389 54.7029 17.0203 54.6265 16.9017 54.5521C16.9378 54.5118 16.968 54.4596 16.9921 54.4013C17.0424 54.2806 17.1148 54.166 17.1952 54.0634C17.5974 53.5527 18.0297 53.0681 18.4058 52.5392C21.1525 48.6623 23.4992 44.5602 25.3733 40.1967C25.4537 40.0118 25.5341 39.8247 25.6126 39.6377C25.9846 38.7489 26.3385 37.8521 26.6562 36.9452C26.9699 36.0524 27.2494 35.1476 27.4786 34.2266C27.5993 33.744 27.6938 33.2554 27.6998 32.7567C27.7018 32.6662 27.6998 32.5737 27.6958 32.4832C27.6797 32.1796 27.6174 31.882 27.2976 31.7533C26.9819 31.6266 26.7145 31.7794 26.5014 31.9946C26.2239 32.2701 25.9584 32.5596 25.7151 32.8673C24.9973 33.7721 24.4061 34.7595 23.837 35.7609C22.4837 38.1377 21.3757 40.6351 20.2235 43.1104C20.1692 43.2291 20.0928 43.3397 20.0245 43.4523C20.0566 43.3216 20.0808 43.1868 20.129 43.0622C21.1827 40.2792 22.2303 37.4942 23.2961 34.7172C24.213 32.3264 25.128 29.9375 25.7996 27.4642C26.0932 26.3844 26.3324 25.2985 26.3204 24.1724C26.3184 23.905 26.3063 23.6295 26.248 23.3701C26.1032 22.7267 25.5301 22.5557 25.0616 23.0162C24.8806 23.1952 24.7238 23.4083 24.5991 23.6295C24.2794 24.1946 23.9818 24.7717 23.6761 25.3427C23.6279 25.4332 23.5736 25.5177 23.5213 25.6062C23.5816 25.1618 23.6942 24.7375 23.8068 24.3152C24.2734 22.5638 24.7499 20.8164 25.2003 19.0609C25.3652 18.4215 25.502 17.7679 25.4638 17.1004C25.4497 16.8591 25.4095 16.6097 25.323 16.3865C25.1239 15.8858 24.6393 15.7571 24.2191 16.0889C24.03 16.2377 23.8491 16.4227 23.7264 16.6278C23.4067 17.1627 23.0689 17.6956 22.8316 18.2686C22.4475 19.1956 22.1117 20.1427 21.8041 21.0979C21.1727 23.0584 20.7383 25.0693 20.3864 27.0982C20.3643 27.2269 20.3321 27.3536 20.304 27.4823C20.2477 27.4059 20.2436 27.3455 20.2416 27.2852C20.1833 24.6892 20.123 22.0932 19.8757 19.5033C19.7711 18.4034 19.6263 17.3135 19.375 16.2377C19.3508 16.1311 19.3267 16.0185 19.2744 15.926C19.204 15.7993 19.0412 15.8114 18.9869 15.9481C18.9527 16.0346 18.9467 16.1392 18.9527 16.2357C18.9688 16.5051 18.9969 16.7726 19.0231 17.042C19.1337 18.1882 19.2845 19.3304 19.3468 20.4806C19.4252 21.9243 19.4333 23.3701 19.4695 24.8159C19.4715 24.8903 19.4594 24.9647 19.4554 25.0411C19.389 24.9848 19.373 24.9285 19.3609 24.8702C18.9688 23.2113 18.5103 21.5745 17.893 19.9839C17.5451 19.0931 17.1791 18.2083 16.6282 17.4201C16.4492 17.1647 16.224 16.9194 15.9747 16.7364C15.5041 16.3905 14.921 16.483 14.5791 16.9576C14.4122 17.1888 14.2916 17.4724 14.2212 17.7519C14.0402 18.4597 14.1528 19.1655 14.3258 19.8592C14.6455 21.1461 15.1301 22.3768 15.6489 23.5953C17.1309 27.0781 18.2047 30.6875 18.9487 34.3955C19.003 34.669 19.0392 34.9545 19.0291 35.232C19.015 35.6221 18.9507 36.0122 18.9044 36.4003C18.8803 36.6054 18.8461 36.8105 18.816 37.0156C18.7375 36.9412 18.7215 36.8749 18.7114 36.8045C18.5344 35.5799 18.3937 34.3513 18.1765 33.1347C17.8407 31.2626 17.34 29.4328 16.6463 27.6592C16.3768 26.9735 16.0511 26.312 15.5805 25.7389C15.3955 25.5137 15.1864 25.2945 14.9491 25.1316C14.5249 24.84 14.1026 24.9909 13.9136 25.4694C13.8733 25.57 13.8351 25.6806 13.8311 25.7871C13.815 26.2878 13.7829 26.7905 13.809 27.2892C13.8914 28.8356 14.1931 30.3517 14.551 31.8518C15.2568 34.8178 15.9686 37.7817 16.5337 40.7799C16.8735 42.5876 17.1329 44.4034 17.2817 46.2373C17.3058 46.5289 17.2676 46.8084 17.1409 47.0798C17.1027 46.9893 17.0907 46.9009 17.0806 46.8104C17.0183 46.2514 16.964 45.6903 16.8936 45.1313C16.6684 43.3799 16.2883 41.6566 15.8922 39.9394C15.5041 38.2643 15.0054 36.6275 14.2232 35.0892C14.0523 34.7514 13.8532 34.4257 13.6361 34.116C13.5194 33.9511 13.3545 33.8043 13.1796 33.6998C12.8277 33.4866 12.4617 33.6052 12.2989 33.9813C12.2224 34.1562 12.1742 34.3573 12.1661 34.5483C12.1501 34.9022 12.1501 35.2602 12.1842 35.6121C12.3089 36.893 12.4436 38.1718 12.5884 39.4487C12.9725 42.8772 13.5878 46.2554 14.7098 49.529C15.102 50.6752 15.4217 51.8455 15.7494 53.0138C15.8641 53.42 16.0571 53.7839 16.2562 54.1439C14.7279 53.1827 13.1897 52.2356 11.6453 51.3005C11.5408 51.2382 11.4362 51.1678 11.3216 51.1296C11.2532 51.1075 11.1084 51.1236 11.0964 51.1558C11.0682 51.2342 11.0763 51.3448 11.1145 51.4192C11.1507 51.4996 11.2371 51.564 11.3136 51.6223ZM20.3844 33.195C20.5553 31.6869 20.672 30.1708 20.9153 28.6747C21.426 25.5318 22.1338 22.4311 23.2579 19.441C23.5414 18.6849 23.8531 17.9389 24.2935 17.2552C24.3759 17.1245 24.4724 17.0038 24.5609 16.8772C24.5891 16.8832 24.6152 16.8892 24.6433 16.8952C24.6514 17.0581 24.6876 17.225 24.6614 17.3799C24.5368 18.1138 24.4382 18.8578 24.2492 19.5757C22.9985 24.2931 21.7256 29.0065 20.4608 33.7199C20.4327 33.8224 20.3985 33.925 20.3683 34.0275C20.3482 34.0235 20.3301 34.0215 20.31 34.0175C20.3341 33.744 20.3542 33.4685 20.3844 33.195ZM25.3994 23.9472C25.4819 24.6329 25.4095 25.2985 25.2667 25.956C24.9168 27.5486 24.4362 29.107 23.8752 30.6353C22.6184 34.0597 21.3275 37.4721 20.0506 40.8905C19.9139 41.2565 19.7791 41.6204 19.6122 41.9763C20.5111 35.6342 22.16 29.5373 25.3994 23.9472ZM20.0044 43.5146C19.9863 43.6011 19.9682 43.6875 19.9501 43.774C19.9259 43.766 19.9038 43.7579 19.8797 43.7499C19.9199 43.6695 19.9621 43.593 20.0044 43.5146ZM18.8079 30.5186C18.1443 27.9649 17.2234 25.5016 16.1576 23.0906C15.663 21.9706 15.2045 20.8345 14.9129 19.64C14.7782 19.0911 14.6777 18.5341 14.7983 17.969C14.8406 17.77 14.9109 17.5649 15.0155 17.3919C15.1743 17.1285 15.4036 17.0903 15.6328 17.2914C15.8138 17.4502 15.9887 17.6393 16.1034 17.8484C16.3969 18.3853 16.6945 18.9242 16.9197 19.4892C17.9513 22.0812 18.7034 24.7536 18.9929 27.5366C19.1377 28.924 19.2121 30.3196 19.3146 31.711C19.3247 31.8538 19.3167 31.9986 19.3167 32.1434C19.2865 32.1434 19.2563 32.1434 19.2262 32.1454C19.0854 31.6045 18.9487 31.0615 18.8079 30.5186ZM20.7826 44.1581C22.0393 41.0896 23.4529 38.0854 25.1018 35.2018C25.5201 34.4699 26.0107 33.7802 26.4792 33.0784C26.6059 32.8874 26.7728 32.7205 26.9659 32.4892C26.99 32.63 27.0222 32.7064 27.0101 32.7768C26.8995 33.378 26.8191 33.9873 26.6602 34.5745C26.0509 36.8387 25.1601 38.9983 24.1708 41.1197C22.6928 44.2868 20.9756 47.3211 19.1015 50.267C18.7536 50.8139 18.4138 51.3669 18.0679 51.9159C18.0076 52.0124 17.9392 52.1049 17.8286 52.2637C17.8447 52.1451 17.8427 52.1089 17.8548 52.0767C18.822 49.4345 19.7168 46.7601 20.7826 44.1581ZM15.6308 33.1689C15.2327 31.6568 14.917 30.1185 14.6294 28.5802C14.4866 27.8141 14.4806 27.0238 14.4283 26.2416C14.4163 26.0666 14.4665 25.8857 14.4866 25.7087C14.5248 25.6987 14.5631 25.6886 14.6013 25.6786C14.7521 25.8495 14.917 26.0103 15.0537 26.1913C15.4679 26.7463 15.7535 27.3697 15.9887 28.0151C16.6061 29.7103 17.0384 31.4557 17.3742 33.2252C17.8447 35.7086 18.1202 38.2121 18.2147 40.7377C18.2187 40.8603 18.2248 40.985 18.2067 41.1036C18.1001 41.8054 17.9875 42.5052 17.8628 43.2814C17.8045 43.1667 17.7663 43.1225 17.7583 43.0742C17.2133 39.7363 16.4935 36.4385 15.6308 33.1689ZM14.8225 46.8667C14.2775 45.0831 13.9115 43.2592 13.6341 41.4193C13.3405 39.4708 13.1012 37.5143 12.8438 35.5598C12.7895 35.1516 12.7774 34.7414 12.8337 34.2929C13.069 34.3854 13.1575 34.5523 13.2359 34.7072C13.4772 35.1878 13.7185 35.6704 13.9256 36.165C14.5832 37.7435 14.9572 39.4045 15.3091 41.0694C15.6529 42.6982 15.9948 44.331 16.1476 45.9899C16.2984 47.6107 16.3949 49.2354 16.4995 50.8602C16.5176 51.1437 16.4512 51.4313 16.4251 51.7188C16.405 51.7188 16.3869 51.7208 16.3668 51.7208C16.3446 51.6786 16.3185 51.6404 16.3044 51.5961C15.8078 50.0196 15.3051 48.4452 14.8225 46.8667Z" fill="black"/>
<path d="M66.9573 34.685C67.5706 34.5664 68.1859 34.4618 68.7912 34.313C71.2384 33.7118 73.6835 33.0925 76.1307 32.4872C78.4733 31.9061 80.6631 30.9288 82.8429 29.9214C84.4676 29.1693 85.9496 28.2001 87.3109 27.0479C88.0952 26.3843 88.8673 25.6966 89.5771 24.9546C90.6449 23.8426 91.6704 22.6864 92.6839 21.5221C93.1725 20.9611 93.6048 20.3458 94.0452 19.7426C94.6223 18.9503 95.1713 18.1379 95.7504 17.3497C96.3617 16.5192 96.8624 15.6264 97.3289 14.6934C97.0815 14.7255 96.9207 14.8884 96.7659 15.0533C96.4662 15.377 96.1747 15.7088 95.8811 16.0366C95.1954 16.8027 94.4634 17.5347 93.8361 18.347C92.7341 19.7707 91.5296 21.0999 90.3232 22.431C90.3493 22.0128 90.3734 21.5945 90.3895 21.1743C90.4157 20.4886 90.3935 19.8029 90.3935 19.1152C90.3955 17.9871 90.3996 16.861 90.3976 15.733C90.3976 15.5721 90.3654 15.4092 90.3473 15.2423C90.11 15.2725 90.108 15.4273 90.0879 15.55C89.9853 16.1291 89.8747 16.7062 89.8003 17.2893C89.6033 18.8236 89.551 20.3659 89.5309 21.9102C89.5249 22.3566 89.543 22.803 89.5671 23.2494C88.2178 24.6751 86.774 26.0003 85.1895 27.1665C84.6184 27.5868 84.0313 27.993 83.418 28.3469C81.8033 29.2779 80.1222 30.0843 78.3627 30.6976C75.4611 31.709 72.5354 32.64 69.5633 33.4222C68.6424 33.6655 67.7435 33.9933 66.8367 34.2909C66.6838 34.3412 66.4385 34.3794 66.5069 34.6006C66.5672 34.8017 66.7944 34.7172 66.9573 34.685Z" fill="black"/>
<path d="M71.9199 79.8619C71.8515 79.9062 71.7771 80.0228 71.7912 80.0871C71.8073 80.1615 71.9099 80.238 71.9923 80.2742C72.1914 80.3606 72.3784 80.2802 72.5513 80.1837C73.0802 79.8921 73.4944 79.4879 73.7558 78.9369C74.0072 78.4041 73.9629 77.8913 73.6472 77.4007C73.424 77.0528 73.1324 76.7693 72.7685 76.5823C72.2477 76.3148 71.7148 76.0635 71.1739 75.8362C69.7422 75.233 68.2944 74.6639 66.8687 74.0466C65.2922 73.3629 63.7881 72.5445 62.4047 71.515C62.0025 71.2153 61.5782 70.9439 61.158 70.6704C59.6719 69.7032 58.1015 68.9149 56.3762 68.4665C56.2013 68.4203 56.0243 68.3821 55.8494 68.3398C55.8353 68.374 55.8212 68.4082 55.8071 68.4424C56.0947 68.6194 56.3742 68.8124 56.6718 68.9712C58.6243 70.0109 60.424 71.2817 62.1533 72.6511C62.8189 73.1779 63.5146 73.6525 64.2586 74.0567C66.2976 75.1646 68.4392 76.0333 70.627 76.7934C71.0894 76.9543 71.5479 77.1272 71.9963 77.3222C72.2175 77.4188 72.4327 77.5515 72.6177 77.7063C73.0178 78.0441 73.0701 78.3538 72.8147 78.8103C72.5875 79.2165 72.3281 79.6025 71.9199 79.8619Z" fill="black"/>
<path d="M66.5411 55.6199C66.9031 55.4892 67.2329 55.3625 67.5707 55.2539C68.0473 55.1011 68.5198 54.9322 69.0064 54.8216C70.0802 54.5783 71.1641 54.3893 72.2358 54.1359C73.386 53.8645 74.4799 53.4382 75.4532 52.7525C75.7086 52.5715 75.9338 52.3382 76.1449 52.105C76.2515 51.9883 76.3963 51.8194 76.2495 51.6505C76.2394 51.6385 76.2294 51.6324 76.2173 51.6224C76.0886 51.5178 75.9398 51.6385 75.8131 51.6907C74.6911 52.1512 73.5409 52.5252 72.3685 52.8349C71.1741 53.1526 69.9756 53.4462 68.7893 53.7901C68.2765 53.9389 67.7738 54.152 67.2972 54.3933C67.1404 54.4717 66.9956 54.5703 66.8508 54.6748C66.6779 54.8015 66.509 54.9382 66.34 55.0689C66.2315 55.1534 66.1591 55.2962 66.2556 55.4269C66.3219 55.5113 66.4426 55.5556 66.5411 55.6199Z" fill="black"/>
<path d="M62.2138 90.9921C60.209 90.4412 58.1961 89.9184 56.2336 89.2206C55.8656 89.0899 55.4875 88.9813 55.1095 88.8747C54.9225 88.8225 54.7335 88.7682 54.5465 88.7139C54.4299 88.6797 54.3072 88.6556 54.1865 88.6515C54.0418 88.6475 53.901 88.7119 53.8829 88.8627C53.8708 88.9672 53.9131 89.11 53.9855 89.1844C54.094 89.295 54.2388 89.3775 54.3836 89.4398C55.1155 89.7495 55.8435 90.0692 56.5895 90.3426C57.8302 90.7991 59.0829 91.2174 60.3839 91.4747C61.3552 91.6658 62.3224 91.885 63.2916 92.0921C64.1924 92.2851 65.047 92.6209 65.9057 92.9426C66.0927 93.013 66.2897 93.0573 66.4828 93.1156C66.4989 93.0874 66.515 93.0573 66.529 93.0291C66.3863 92.9065 66.2515 92.7717 66.0987 92.6651C66.0887 92.6591 66.0806 92.6531 66.0706 92.6471C65.4432 92.2147 64.7856 91.8307 64.0637 91.5793C63.4565 91.3641 62.8392 91.1631 62.2138 90.9921Z" fill="black"/>
</g>
<defs>
<clipPath id="clip0">
<rect width="114" height="114" fill="white" transform="translate(1)"/>
</clipPath>
</defs>
</svg>
