<svg width="108" height="108" viewBox="0 0 108 108" fill="none" xmlns="http://www.w3.org/2000/svg">
<path fill-rule="evenodd" clip-rule="evenodd" d="M54.3129 13.2592C63.2198 14.8323 65.546 27.0565 73.3141 31.6897C82.4659 37.1481 97.042 33.0923 102.703 42.1208C108.226 50.9289 102.531 62.5992 98.7726 72.2925C95.1969 81.514 90.2563 90.532 81.8874 95.802C73.8094 100.889 63.7199 101.913 54.3129 100.29C45.8828 98.835 40.2727 91.6543 32.8826 87.3446C24.3007 82.3398 10.7323 82.453 7.57441 73.033C4.42221 63.6299 15.0836 55.4624 19.1647 46.4237C22.6507 38.7028 23.5566 29.8032 29.7179 23.9897C36.3871 17.6969 45.2838 11.6645 54.3129 13.2592Z" fill="#F29FA4"/>
<path d="M57.956 87.9794C58.398 87.6365 58.8285 87.2765 59.2933 86.9659C60.3563 86.2592 61.3526 85.4724 62.2879 84.6018C63.0766 83.8684 63.9034 83.175 64.6844 82.4339C65.2521 81.8967 65.8084 81.3405 66.3151 80.7461C66.477 80.5556 66.6371 80.3651 66.7952 80.1727C66.7704 79.9765 66.7437 79.7822 66.7152 79.5859C66.3437 80.0108 66.0046 80.4832 65.6903 80.809C64.7949 81.7405 63.8691 82.6435 62.9128 83.5141C61.0649 85.2 59.1809 86.9278 57.2226 88.4804C57.1521 88.5357 57.2435 88.65 57.3178 88.6043C57.4645 88.5147 57.6093 88.4252 57.756 88.3357C57.7407 88.3033 57.7255 88.2709 57.7102 88.2366C57.7922 88.1528 57.8626 88.0518 57.956 87.9794Z" fill="#F29FA4"/>
<path d="M84.7379 51.6064C84.7436 52.4294 84.7588 53.2543 84.7284 54.0772C84.696 54.9269 84.5169 55.807 84.7284 56.6414C84.736 56.6737 84.7512 56.7023 84.7665 56.7309C85.2618 53.8696 85.5723 50.9854 85.7018 48.0765C85.7609 46.7354 85.8009 45.3904 85.7761 44.0474C85.7437 42.2948 85.4199 40.5689 85.1494 38.8391C84.8141 36.696 84.4636 34.5548 84.1645 32.406C83.6749 28.9046 84.1397 25.5061 85.4161 22.2218C85.9876 20.7512 86.6277 19.3053 87.2563 17.8556C87.5935 16.905 87.9478 15.9582 88.3155 15.0191C88.5289 14.3123 88.706 13.5979 88.847 12.874C86.1285 17.6137 83.4387 22.3247 82.7281 27.8759C81.9261 34.1548 83.7149 40.2546 84.4236 46.4439C84.6179 48.1546 84.7246 49.8824 84.7379 51.6064Z" fill="#F29FA4"/>
<path d="M95.0939 91.4683C94.7167 89.2299 94.2233 87.0182 93.4308 84.8827C92.8917 83.4311 92.2193 82.0519 91.2877 80.8079C90.6419 79.945 89.9904 79.0858 89.337 78.2286C88.2683 76.8303 87.4015 75.3177 86.6928 73.708C85.527 71.0563 85.287 68.3054 85.8204 65.4841C85.9232 64.9374 86.0452 64.3945 86.1728 63.8516C86.1423 63.8763 86.1156 63.9087 86.1004 63.9544C85.346 66.2042 85.0374 68.5245 85.2927 70.9077C85.546 73.2642 86.2223 75.5425 87.3939 77.6075C88.6836 79.8821 90.7829 81.5509 92.0249 83.8407C92.6288 84.9532 93.0308 86.18 93.3756 87.3935C93.4404 87.6183 93.4956 87.8545 93.5508 88.0965C93.608 89.1156 93.7318 90.1291 93.9433 91.1406C94.1338 92.0417 94.3662 92.9294 94.671 93.7981C94.9205 94.5125 95.1072 95.4421 95.7759 95.8631C95.553 94.4001 95.3415 92.9313 95.0939 91.4683Z" fill="#F29FA4"/>
<path d="M41.3026 31.7479C41.5445 30.1268 41.836 28.1513 41.4969 26.4558C41.4588 25.4938 41.1407 24.4518 40.8968 23.7717C40.752 23.3678 40.5768 22.9678 40.373 22.583C39.9272 21.2438 39.2471 20.0341 38.2679 19.0092C38.2355 18.9578 38.2013 18.9063 38.1689 18.8568C35.8162 15.2545 33.7455 11.5683 32.3167 7.4935C32.2996 7.44588 32.2119 7.44778 32.2196 7.50684C32.332 8.37171 32.3815 9.19276 32.5815 10.0519C32.6234 10.2329 32.6711 10.4139 32.7206 10.5948C32.7472 10.6672 32.772 10.7415 32.7987 10.8139C33.9626 13.9876 35.4333 17.0242 36.9763 20.0246C37.6107 21.2571 38.2165 22.503 38.7061 23.8022C39.7729 26.6349 39.8624 29.5057 39.1023 32.4261C38.8242 33.4967 38.4737 34.533 38.066 35.5446C37.9612 35.8418 37.8526 36.137 37.7402 36.4323C37.4012 37.3105 37.0202 38.1754 36.6087 39.025C36.4334 39.1869 36.2658 39.3603 36.1019 39.5413C35.9457 39.8137 35.7857 40.0861 35.62 40.3566C34.2674 42.5893 32.7092 44.6752 31.1318 46.7479C29.4268 48.9881 27.6552 51.1751 25.9597 53.4211C24.3996 55.488 22.8432 57.5625 21.3897 59.7038C20.1609 61.5154 19.0751 63.3956 18.1188 65.3368C18.214 65.2435 18.3112 65.152 18.4064 65.0606C18.3702 65.1235 18.3302 65.1863 18.294 65.2492C17.7511 66.196 17.2806 67.1694 16.8348 68.1543C16.0423 70.0441 15.3603 71.9853 14.7812 73.9741C14.6136 74.5475 14.4612 75.1247 14.3164 75.7019C14.926 74.3189 15.5947 72.9663 16.2824 71.6195C17.1682 69.8841 18.275 68.2877 19.2865 66.6246C21.3497 63.228 23.7347 60.0676 26.2493 56.9948C31.1928 50.956 36.5915 45.1248 39.5786 37.802C40.3749 35.8532 40.9921 33.8358 41.3026 31.7479Z" fill="#F29FA4"/>
<path d="M57.4697 99.2574C57.4678 97.5924 57.4183 95.9294 57.3211 94.2663C57.1325 91.0259 56.8373 87.8007 55.8562 84.707C55.8276 84.7604 55.7991 84.8137 55.7705 84.869C55.7571 84.8956 55.7438 84.9204 55.7305 84.9471C55.8791 85.7014 56.02 86.4558 56.1458 87.214C56.6049 89.9763 56.9173 92.7595 57.0544 95.5598C57.1402 97.2934 57.2506 99.0269 57.3268 100.76C57.363 101.578 57.3745 102.395 57.3497 103.208C57.6012 101.934 57.4716 100.501 57.4697 99.2574Z" fill="#F29FA4"/>
<path d="M68.0463 40.0806C69.1684 40.7588 71.1305 41.5703 72.4354 41.056C72.685 40.9569 72.8145 40.7188 72.7955 40.4959C72.7917 40.4902 72.7898 40.4864 72.786 40.4806C72.7326 40.4806 72.6869 40.4692 72.6507 40.4825C71.8811 40.7816 71.121 40.7054 70.3514 40.4673C67.8558 39.6939 66.3394 38.0022 65.7432 35.4934C65.4346 34.1922 65.5736 32.8759 65.8975 31.5881C66.1051 30.7613 66.3585 29.9479 66.6042 29.1307C66.6328 29.0354 66.669 28.9421 66.7109 28.8525C64.4116 30.5347 63.9791 34.2418 65.0459 36.7068C65.6575 38.1108 66.7414 39.2919 68.0463 40.0806Z" fill="#F29FA4"/>
<path d="M70.2105 48.3661C70.1248 48.5262 70.039 48.6862 69.9533 48.8462C69.7857 49.3034 69.6104 49.7473 69.4047 50.1816C69.3894 50.1149 69.2809 50.0921 69.2485 50.1606C69.0142 50.6559 68.7989 51.1379 68.5512 51.5989C68.5151 51.6465 68.4808 51.6942 68.4427 51.7418C67.6902 52.6886 66.8196 53.3401 65.89 54.0068C65.6499 54.0906 65.4137 54.243 65.2118 54.3497C65.1756 54.3688 65.1394 54.3878 65.1032 54.4069C65.0422 54.4107 64.9794 54.4164 64.9184 54.424C64.4727 54.6183 64.004 54.7822 63.5106 54.9117C62.642 55.1403 61.7485 55.2832 60.8722 55.487C60.7617 55.5232 60.6493 55.5556 60.5388 55.5937C59.7692 55.8547 58.7977 56.3557 58.3748 57.1177C58.3443 57.1977 58.3195 57.2796 58.2967 57.3653C58.2528 57.5368 58.2071 57.7082 58.1633 57.8778C58.1614 57.9463 58.1633 58.0149 58.169 58.0873C58.1786 58.1864 58.3062 58.234 58.3633 58.1407C59.2244 56.7405 60.6608 56.5786 62.1543 56.2128C63.3068 55.9309 65.0575 55.7442 65.9281 54.8907C65.9662 54.8545 65.9871 54.8088 65.9947 54.7612C68.5189 53.6487 70.7306 50.2749 70.5267 47.6289C70.5077 47.6842 70.4867 47.7394 70.4677 47.7927C70.3953 47.9889 70.3096 48.1814 70.2105 48.3661Z" fill="#F29FA4"/>
<path d="M16.8344 68.1567C17.2326 67.2042 17.6612 66.265 18.1184 65.3392C19.0766 63.398 20.1605 61.5177 21.3893 59.7061C22.8428 57.563 24.3992 55.4903 25.9594 53.4234C27.6548 51.1774 29.4284 48.9905 31.1314 46.7502C32.7088 44.6776 34.267 42.5916 35.6196 40.3589C35.7834 40.0884 35.9434 39.816 36.1016 39.5436C36.8445 38.2501 37.5113 36.9242 38.0656 35.5488C38.4752 34.5373 38.8238 33.499 39.1019 32.4303C39.862 29.51 39.7725 26.6392 38.7057 23.8064C38.2161 22.5072 37.6103 21.2613 36.976 20.0288C35.4329 17.0265 33.9642 13.99 32.7983 10.8182C32.7716 10.7458 32.7469 10.6715 32.7202 10.5991C32.2878 9.40845 31.8877 8.2083 31.4629 7.01578C31.3334 6.65192 31.1733 6.29759 31.0266 5.93945C30.9905 5.94707 30.9562 5.9566 30.92 5.96422C30.9333 6.08614 30.9371 6.21187 30.9638 6.32998C31.3543 7.99304 31.7067 9.66372 32.1487 11.3134C33.0155 14.5558 34.328 17.6342 35.7225 20.6784C36.2349 21.7966 36.7359 22.9244 37.1703 24.075C37.8161 25.7819 38.1247 27.5535 37.9646 29.39C37.8599 30.5806 37.6008 31.7388 37.2541 32.8818C36.4997 35.3659 35.3262 37.6519 33.9527 39.8427C32.4554 42.2315 30.7523 44.4737 29.0131 46.6854C26.668 49.6687 24.302 52.6347 22.0427 55.6827C20.2463 58.104 18.568 60.5995 17.1697 63.2741C14.1712 69.0082 12.291 75.0851 11.6052 81.5221C11.2604 84.7568 11.1556 88.0029 11.3347 91.2528C11.4242 92.874 11.5519 94.4932 11.8395 96.0953C11.8681 96.2592 11.8986 96.4325 11.9786 96.5754C12.03 96.6668 12.1653 96.743 12.2739 96.764C12.4282 96.7926 12.5425 96.6802 12.5806 96.5335C12.6225 96.3716 12.6549 96.2039 12.6587 96.0382C12.6758 95.1143 12.6968 94.1903 12.6891 93.2664C12.6834 92.4968 12.6301 91.7272 12.6187 90.9576C12.5806 88.603 12.7063 86.256 12.9216 83.911C13.1787 81.1354 13.6359 78.4017 14.3179 75.7062C14.4646 75.1289 14.617 74.5536 14.7827 73.9783C15.3619 71.9895 16.0438 70.0483 16.8344 68.1567Z" fill="black"/>
<path d="M87.3897 17.5414C87.344 17.6462 87.2983 17.751 87.2526 17.8538C86.6239 19.3016 85.9838 20.7475 85.4123 22.2201C84.1379 25.5043 83.6712 28.9028 84.1608 32.4042C84.4618 34.553 84.8104 36.6943 85.1456 38.8374C85.4162 40.5671 85.74 42.2911 85.7724 44.0456C85.7972 45.3887 85.7591 46.7336 85.6981 48.0747C85.5686 50.9836 85.258 53.8678 84.7627 56.7291C84.557 57.9216 84.3227 59.1104 84.0503 60.2934C83.7302 61.684 83.4254 63.0785 83.134 64.4748C83.0387 64.9358 82.972 65.4064 83.0197 65.8807C83.054 65.8883 83.0863 65.8979 83.1206 65.9074C83.2045 65.6883 83.2978 65.473 83.374 65.2521C83.6655 64.4062 83.9569 63.5585 84.2408 62.7089C84.7227 61.263 85.2447 59.8266 85.6695 58.3636C86.6182 55.0851 87.1345 51.7266 87.4431 48.3319C87.7174 45.3182 87.6431 42.3254 87.1459 39.3346C86.7192 36.7666 86.3591 34.1873 85.9838 31.6117C85.5724 28.7923 85.8105 26.0187 86.6811 23.3136C87.1383 21.8905 87.6964 20.4961 88.2584 19.1092C89.1137 17.0023 89.8738 14.8706 90.1824 12.6056C90.3444 11.4264 90.5025 10.2434 90.4415 9.05085C90.3691 7.63544 90.091 6.2467 89.7881 4.86557C89.7595 4.73222 89.7062 4.59316 89.63 4.48076C89.4757 4.25216 89.209 4.2655 89.1004 4.51696C89.0242 4.69031 88.9899 4.89605 88.9956 5.08655C89.0109 5.57614 89.0547 6.06382 89.0928 6.5534C89.188 7.79546 89.289 9.03942 89.1976 10.2853C89.1328 11.1616 89.0128 12.0245 88.8451 12.8761C88.7042 13.6 88.527 14.3144 88.3137 15.0211C88.0546 15.8726 87.7479 16.7147 87.3897 17.5414Z" fill="black"/>
<path d="M57.3271 100.761C57.2509 99.0279 57.1385 97.2944 57.0547 95.5608C56.9175 92.7605 56.6051 89.9773 56.146 87.215C56.0203 86.4569 55.8793 85.7006 55.7307 84.9481C55.744 84.9214 55.7574 84.8967 55.7707 84.87C55.7993 84.8167 55.8279 84.7633 55.8564 84.7081C56.247 83.9708 56.6375 83.2317 57.028 82.4945C57.7233 81.1838 58.4244 79.877 59.1121 78.5625C59.6969 77.4443 60.1693 76.2785 60.617 75.1012C61.6248 72.4418 62.0324 69.6948 61.8438 66.8621C61.7562 65.5362 61.6381 64.2103 61.5276 62.8863C61.5028 62.5949 61.4838 62.2977 61.4133 62.0138C61.2876 61.5071 60.8475 61.3814 60.4551 61.7281C60.3103 61.8576 60.1846 62.0119 60.0608 62.1624C58.3767 64.2294 56.9308 66.4639 55.5954 68.7632C54.5382 70.5825 53.6943 72.5047 53.2752 74.5868C53.2637 74.644 53.2428 74.6992 53.2256 74.7545C53.1856 74.5354 53.1875 74.3277 53.1837 74.1182C53.1723 73.5162 53.1799 72.9142 53.1399 72.3142C53.0828 71.4722 53.1132 70.634 53.2256 69.7996C53.4371 68.2184 53.6485 66.6373 53.8981 65.0618C54.2048 63.1187 54.1896 61.1852 53.78 59.2611C53.2694 56.8704 52.9208 54.4472 52.2827 52.0793C52.2865 52.0736 52.2922 52.0545 52.3017 52.0507C52.3951 52.0221 52.4884 51.9955 52.5837 51.9726C53.2828 51.7993 53.8981 51.4659 54.3458 50.9001C55.4716 49.479 55.9536 47.8731 55.5954 46.0671C55.4488 45.3261 55.1173 44.6631 54.5629 44.1316C54.0562 43.6459 53.4542 43.5963 52.8865 44.004C52.6389 44.1831 52.4217 44.406 52.195 44.6136C51.9721 44.8155 51.9455 44.8155 51.6959 44.6422C51.4768 44.4917 51.2654 44.324 51.0273 44.2117C50.311 43.8707 49.7014 44.0821 49.3318 44.7755C49.2671 44.8955 49.208 45.0194 49.1356 45.1584C48.9908 45.0803 48.8727 45.0118 48.7489 44.9508C48.3527 44.7565 47.9736 44.8479 47.7183 45.2137C47.6326 45.3375 47.564 45.4823 47.5183 45.6271C47.324 46.2233 47.2706 46.8291 47.4325 47.4444C47.4973 47.6883 47.5526 47.934 47.6307 48.174C48.2536 50.0809 49.4499 51.4221 51.4197 51.9936C51.5988 52.045 51.6654 52.1479 51.694 52.3136C51.7645 52.727 51.8483 53.1385 51.9188 53.5518C52.216 55.2759 52.4979 57.0018 52.8103 58.722C53.0809 60.2117 53.3685 61.7014 53.2294 63.2216C53.119 64.4332 52.9494 65.6391 52.7932 66.8468C52.6599 67.8736 52.496 68.8966 52.3646 69.9234C52.2522 70.8111 52.275 71.7008 52.3246 72.5923C51.8293 71.495 51.2635 70.4301 50.6196 69.3957C49.608 67.7688 48.4898 66.2029 47.6516 64.4713C47.5849 64.3341 47.4897 64.2084 47.3944 64.0884C47.3259 64.0027 47.244 63.9131 47.1487 63.8636C47.0592 63.8179 46.9163 63.7798 46.8496 63.8217C46.7868 63.8617 46.7544 64.0179 46.7715 64.1112C46.8306 64.4408 46.9258 64.7647 46.9906 65.0942C47.1354 65.841 47.3754 66.5554 47.7221 67.2335C48.0707 67.9117 48.4193 68.5918 48.7679 69.27C48.0059 68.1746 47.1887 67.1173 46.3105 66.1001C44.4569 63.9608 42.4796 61.9415 40.4469 59.9755C40.1669 59.705 39.8507 59.4669 39.5306 59.2421C39.363 59.124 39.1592 59.0382 38.961 58.9868C38.561 58.8839 38.2524 59.0954 38.22 59.505C38.199 59.7812 38.1971 60.0746 38.2733 60.3375C38.4715 61.0213 38.662 61.7148 38.9515 62.3606C39.9593 64.6027 41.2394 66.6868 42.6929 68.6661C43.2987 69.491 44.0112 70.2225 44.7598 70.9235C46.5829 72.6342 48.6194 74.0706 50.6367 75.5336C50.8044 75.6555 50.9815 75.7565 51.1663 75.8422C51.2521 75.926 51.3435 76.0041 51.4368 76.0765C51.7093 76.2842 51.8502 76.5471 51.9302 76.8747C52.1226 77.6634 52.3417 78.4444 52.5455 79.2312C53.4866 82.864 54.3553 86.5102 54.822 90.244C55.1249 92.6614 55.4621 95.0732 55.6412 97.5039C55.7574 99.0813 55.9002 100.657 56.0069 102.236C56.1098 103.758 56.2622 105.278 56.1327 106.806C56.125 106.903 56.1269 107.002 56.1403 107.099C56.1631 107.254 56.1955 107.418 56.3841 107.45C56.5784 107.484 56.7118 107.374 56.7823 107.208C56.8585 107.029 56.9175 106.84 56.9594 106.65C57.2071 105.509 57.3195 104.358 57.3557 103.204C57.3766 102.396 57.3633 101.579 57.3271 100.761ZM51.0939 50.9077C50.6501 50.6753 50.2024 50.4334 49.81 50.1267C48.5946 49.1799 48.1164 47.8807 48.1355 46.3738C48.1412 46.0023 48.1964 45.8557 48.385 45.5661C48.526 45.6404 48.6689 45.7223 48.8156 45.7928C49.2994 46.029 49.61 45.9185 49.8309 45.4347C49.8957 45.2956 49.949 45.1489 50.031 45.0213C50.1815 44.7851 50.3434 44.7317 50.6025 44.8346C50.7434 44.8917 50.8749 44.9756 51.0006 45.0613C51.1035 45.1318 51.193 45.2232 51.2902 45.3032C51.8102 45.7299 52.2388 45.7223 52.7494 45.2746C52.917 45.128 53.0732 44.966 53.2466 44.8251C53.5762 44.5603 53.7552 44.5774 54.0219 44.9089C54.5363 45.5471 54.7306 46.2995 54.7325 47.0996C54.7382 48.1798 54.3991 49.1608 53.8028 50.0524C53.5495 50.4296 53.2142 50.721 52.7913 50.9077C52.2236 51.1592 51.6502 51.1992 51.0939 50.9077ZM60.4894 64.2389C60.5313 64.1112 60.5922 63.9912 60.6437 63.8674C60.8456 65.5095 61.0133 67.125 60.9732 68.7518C60.9142 71.0854 60.4246 73.3295 59.5312 75.4841C59.2797 76.0918 59.0397 76.7052 58.7425 77.29C57.9043 78.934 57.0394 80.5666 56.1822 82.2011C56.1327 82.2963 56.0641 82.3802 55.9688 82.4545C56.1288 81.6772 56.3003 80.9 56.447 80.1189C56.9937 77.2329 57.5462 74.3468 58.3024 71.5083C58.7996 69.6453 59.3883 67.8069 59.9426 65.9572C60.116 65.3819 60.3046 64.8104 60.4894 64.2389ZM56.5117 68.9214C57.4433 67.4088 58.4606 65.9515 59.4416 64.4694C59.4702 64.4256 59.5083 64.3856 59.5426 64.3437C58.7234 67.4374 57.6947 70.4549 57.0166 73.5734C56.3974 76.4232 55.7764 79.2788 55.144 82.1916C54.742 80.4275 54.2962 78.6711 53.8333 76.9204C53.8619 75.9279 53.9991 74.9278 54.2696 73.9201C54.7496 72.137 55.5497 70.4835 56.5117 68.9214ZM46.7848 71.7046C45.0208 70.3025 43.4492 68.7156 42.2681 66.7763C41.569 65.6295 40.8546 64.4903 40.1955 63.3207C39.8049 62.6292 39.4868 61.8919 39.182 61.1585C39.022 60.7756 38.9553 60.3546 38.8524 59.9488C38.8334 59.8764 38.8505 59.7945 38.8505 59.6669C38.9839 59.7336 39.0772 59.7621 39.1477 59.8193C39.3744 60.0041 39.6106 60.185 39.8145 60.3946C41.8223 62.4844 43.8283 64.5742 45.6742 66.8106C47.0592 68.4889 48.2955 70.2663 49.3852 72.1465C49.8443 72.939 50.29 73.7353 50.732 74.5182C50.7015 74.5621 50.6787 74.6059 50.6596 74.6497C50.4767 74.5087 50.29 74.3658 50.0976 74.2192C48.9908 73.3829 47.8688 72.5675 46.7848 71.7046Z" fill="black"/>
<path d="M96.7507 96.1915C96.6897 94.9894 96.6135 93.7874 96.5392 92.5872C96.3906 90.1603 95.9411 87.7847 95.2762 85.4473C94.6647 83.3004 93.7598 81.2963 92.4168 79.5018C91.931 78.8522 91.4567 78.1931 90.9652 77.5454C90.0984 76.4043 89.3593 75.187 88.6849 73.924C87.3019 71.3294 86.7247 68.5805 87.0238 65.6506C87.0923 64.9686 87.1723 64.2866 87.2219 63.6027C87.2885 62.6807 87.3381 61.7587 87.38 60.8366C87.3952 60.5052 87.3743 60.1718 87.1228 59.8594C87.0961 59.9337 87.0619 60.0061 87.0466 60.0823C86.9552 60.4918 86.8714 60.9033 86.778 61.311C86.5837 62.1587 86.3703 63.0045 86.1741 63.8522C86.0484 64.3952 85.9265 64.9381 85.8217 65.4848C85.2883 68.3061 85.5283 71.0569 86.6942 73.7087C87.4029 75.3184 88.2696 76.831 89.3383 78.2293C89.9937 79.0865 90.6433 79.9457 91.289 80.8086C92.2187 82.0526 92.8931 83.4318 93.4322 84.8834C94.2247 87.0189 94.7181 89.2306 95.0952 91.469C95.341 92.932 95.5524 94.4008 95.7791 95.8676C95.802 96.02 95.8249 96.1724 95.8496 96.3229C95.8801 96.5153 95.9296 96.7077 95.9982 96.8887C96.0592 97.0487 96.1811 97.2164 96.3678 97.1592C96.4897 97.1211 96.623 96.9763 96.665 96.8506C96.7316 96.643 96.7621 96.4106 96.7507 96.1915Z" fill="black"/>
<path d="M76.1712 30.4647C76.2264 30.6266 76.3198 30.8019 76.5541 30.8019C76.7579 30.5885 76.7674 30.318 76.7808 30.057C76.796 29.7503 76.7808 29.4417 76.7941 29.1331C76.8379 28.0968 76.9465 27.07 77.1751 26.0546C77.5218 24.5097 78.1505 23.0867 78.9182 21.7074C79.703 20.2977 80.366 18.8271 80.7241 17.2459C81.3071 14.6609 81.2918 12.0777 80.5584 9.52117C79.8726 7.13231 79.4725 4.692 79.1887 2.22884C79.1411 1.81165 79.0858 1.39636 79.0153 0.982975C78.9868 0.815335 78.9734 0.611501 78.6743 0.541016C78.6382 0.6877 78.5982 0.80581 78.581 0.92392C78.3086 2.77748 78.3086 4.63295 78.5067 6.49223C78.6477 7.81811 78.9696 9.10779 79.2611 10.4051C79.8631 13.0949 79.7088 15.7429 78.7791 18.3413C78.3791 19.4634 77.8781 20.5397 77.3485 21.6084C76.9884 22.3342 76.6703 23.0828 76.3807 23.8391C75.9483 24.9688 75.9102 26.167 75.8759 27.3558C75.853 28.1082 75.9083 28.8645 75.9616 29.617C75.9807 29.9027 76.0759 30.1904 76.1712 30.4647Z" fill="black"/>
<path d="M76.1102 40.0233C76.2303 40.2328 76.4055 40.3662 76.6551 40.3433C76.9046 40.3185 77.0532 40.1585 77.1237 39.9242C77.1523 39.8309 77.177 39.7356 77.1885 39.6385C77.2761 38.8479 77.358 38.0554 77.4475 37.2648C77.4761 37.0153 77.5009 36.7638 77.5542 36.52C77.6037 36.2895 77.6361 36.0704 77.4323 35.9028C77.2113 35.7218 76.9618 35.7504 76.7198 35.8609C76.3827 36.0152 76.1807 36.2971 76.0474 36.6305C75.8512 37.1143 75.7597 37.6211 75.7388 38.3945C75.7978 38.6993 75.9026 39.246 76.015 39.7909C76.0283 39.8728 76.0683 39.9509 76.1102 40.0233Z" fill="black"/>
<path d="M84.9495 74.0772C84.6409 73.9362 84.2809 73.9 83.9418 73.8296C83.8275 73.8067 83.7037 73.8257 83.5475 73.8257C83.616 73.6486 83.6713 73.5229 83.7151 73.3914C83.9227 72.7666 83.9265 72.1513 83.6027 71.5626C83.2998 71.014 82.7531 70.8635 82.2044 71.1664C81.8387 71.3683 81.5682 71.6655 81.3719 72.0331C81.3091 72.1513 81.2462 72.2713 81.1891 72.3799C80.8843 72.1017 80.6214 71.8103 80.309 71.5893C79.827 71.2502 79.2879 71.1892 78.7659 71.4959C78.2535 71.7969 78.0039 72.2732 78.023 72.8656C78.0477 73.6371 78.3525 74.2734 78.9983 74.7249C79.0688 74.7744 79.1317 74.8316 79.2612 74.9345C76.097 75.5364 73.0909 76.3822 70.363 78.0091C70.4734 77.851 70.5858 77.691 70.6925 77.5291C72.2203 76.0546 73.712 74.5401 75.375 73.2085C76.2932 72.4732 77.181 71.6998 77.9639 70.8178C78.6459 70.0481 79.2441 69.2214 79.627 68.2612C79.7489 67.9545 79.8194 67.6155 79.8518 67.2859C79.8899 66.9049 79.7622 66.562 79.3927 66.3677C79.1183 66.2229 78.8269 66.2286 78.5335 66.3048C78.1315 66.4077 77.7925 66.6268 77.4724 66.8839C76.8457 67.3869 76.3066 67.9736 75.836 68.6232C75.4417 69.1699 75.0588 69.7262 74.6702 70.2786C74.6664 70.2748 74.6625 70.271 74.6587 70.2691C74.6168 70.2424 74.5425 70.2405 74.4682 70.2539C75.0397 68.3603 75.6189 66.5429 76.1065 64.7046C76.6361 62.7101 77.0571 60.6889 77.5239 58.6829C78.023 58.7096 78.3278 58.6372 78.6573 58.4162C79.5546 57.8162 79.8251 56.4789 79.2307 55.5797C78.9355 55.1339 78.5106 54.9015 77.9868 54.9301C77.179 54.9758 76.6418 55.433 76.3294 56.1588C76.0379 56.8389 76.0837 57.4771 76.6476 58.0067C76.7942 58.1438 76.8171 58.2772 76.7771 58.4543C76.6895 58.8372 76.6018 59.2182 76.5294 59.603C75.9979 62.3672 75.3083 65.0913 74.4358 67.7698C74.3997 67.8783 74.3501 67.9812 74.3082 68.0879C74.2606 67.9736 74.2625 67.8764 74.2739 67.7812C74.3673 67.0878 74.4797 66.3963 74.554 65.7009C74.7406 63.9445 74.853 62.1843 74.674 60.4203C74.5997 59.6812 74.4587 58.9515 74.1101 58.281C73.9063 57.8905 73.6243 57.5704 73.1519 57.5647C72.6756 57.559 72.3651 57.8695 72.1879 58.2676C71.9784 58.7382 71.7746 59.2239 71.6717 59.725C71.3097 61.4947 71.0697 63.2854 70.9916 65.0932C70.864 68.0155 70.7573 70.9397 70.6449 73.8638C70.6239 74.4125 70.5458 74.9421 70.3915 75.445C69.6448 76.4927 68.8847 77.531 68.0979 78.5482C68.1151 77.6567 68.1684 76.7652 68.136 75.8755C68.0331 73.0028 67.6826 70.1567 67.1073 67.3392C66.9473 66.5582 66.7587 65.779 66.4044 65.059C66.271 64.7884 66.1015 64.5141 65.8843 64.3084C65.5147 63.956 64.989 64.0722 64.7699 64.5351C64.6823 64.7199 64.6175 64.9351 64.6156 65.139C64.6042 65.9505 64.5775 66.7639 64.6384 67.5716C64.7851 69.5281 65.1414 71.4559 65.49 73.3838C65.8653 75.4583 66.4063 77.5024 66.713 79.5903C66.7416 79.7846 66.7682 79.9808 66.793 80.177C66.633 80.3694 66.4749 80.5618 66.3129 80.7504C65.8062 81.3448 65.2499 81.901 64.6823 82.4382C63.8993 83.1774 63.0725 83.8708 62.2858 84.6061C61.3523 85.4767 60.3541 86.2616 59.2911 86.9702C58.8263 87.2788 58.3958 87.6389 57.9538 87.9837C57.8605 88.0561 57.79 88.157 57.71 88.2447C57.7252 88.277 57.7404 88.3094 57.7557 88.3437C57.7595 88.3513 57.7633 88.359 57.7671 88.3685C58.0357 88.3113 58.3196 88.2904 58.5729 88.1913C60.0912 87.597 61.539 86.8807 62.7944 85.8158C63.1449 85.5186 63.4973 85.2271 63.8517 84.9338C63.865 84.9395 63.8783 84.9471 63.8917 84.9528C63.9812 84.9871 64.0803 85.0119 64.1755 85.0157C64.4117 85.0252 64.6499 85.0271 64.888 85.0214C65.3566 85.0119 65.4004 85.05 65.4119 85.5015C65.4214 85.8653 65.429 86.2292 65.4462 86.593C65.49 87.5265 65.6824 88.4237 66.1205 89.2581C66.5472 90.0696 67.1226 90.7364 67.9569 91.1574C68.0636 91.2107 68.1551 91.3041 68.2446 91.386C68.4294 91.5536 68.5646 91.5803 68.7723 91.4508C68.8771 91.386 68.9761 91.3003 69.0542 91.2031C69.8048 90.2754 70.1439 89.2353 69.9305 88.0351C69.7419 86.9664 69.138 86.1739 68.3132 85.5186C68.197 85.4253 68.077 85.3376 67.9588 85.2462C70.4601 85.4424 72.8318 86.0215 75.0645 87.2255C74.5501 88.0008 74.3082 88.8104 74.2092 89.6715C74.0377 91.1707 74.2396 92.5995 74.9502 93.9463C75.2093 94.4378 75.5617 94.8455 75.9922 95.1922C76.1427 95.3141 76.2837 95.4475 76.4209 95.5827C76.5694 95.7294 76.7333 95.7675 76.9162 95.6722C77.0266 95.6151 77.1352 95.5446 77.2248 95.4608C78.103 94.6378 78.5887 93.6339 78.6326 92.4223C78.6726 91.3117 78.3582 90.2963 77.8534 89.3248C77.7963 89.2162 77.6762 89.1171 77.741 88.9305C78.9012 89.8239 79.9413 90.7916 80.8081 91.9404C80.9205 92.0889 80.8881 92.209 80.8424 92.3671C80.6538 93.0052 80.5985 93.6548 80.6938 94.3178C80.8995 95.7694 81.551 97.0057 82.5359 98.063C82.8845 98.4383 83.315 98.7412 83.738 99.0365C84.1323 99.3108 84.3495 99.2632 84.7076 98.9317C84.9838 98.6764 85.1553 98.3583 85.2505 98.0021C85.5344 96.9486 85.4486 95.9218 84.98 94.935C84.479 93.8834 83.6865 93.0814 82.7607 92.4033C82.3549 92.1061 81.9339 91.8242 81.4901 91.5936C81.2976 91.4946 81.1357 91.3974 81.0062 91.2279C80.389 90.4259 79.6689 89.7229 78.9088 89.0562C78.804 88.9647 78.703 88.8714 78.5621 88.7457C78.6383 88.7171 78.663 88.698 78.6859 88.7C78.825 88.7114 78.964 88.7304 79.1031 88.7438C80.1813 88.8371 81.2615 88.8847 82.3168 88.6104C83.3684 88.338 84.2409 87.7875 84.78 86.8007C84.9533 86.4825 85.0372 86.1434 84.98 85.7891C84.9533 85.6234 84.8733 85.4081 84.7457 85.3262C84.3742 85.0824 83.9875 84.8309 83.5684 84.6976C82.8007 84.4556 81.9987 84.4175 81.2005 84.5433C80.1718 84.7033 79.2498 85.1357 78.3906 85.7034C77.6934 86.1644 77.0095 86.6464 76.2856 87.1436C75.0435 86.3797 73.691 85.7339 72.2165 85.2252C72.3251 85.17 72.3708 85.1357 72.4242 85.1205C73.6357 84.7414 74.613 84.006 75.4664 83.0974C76.3485 82.1601 77.0705 81.1181 77.4 79.8493C77.5219 79.3807 77.3124 79.1007 76.8285 79.1312C76.1732 79.1731 75.5141 79.2131 74.8645 79.3121C73.5634 79.5103 72.5061 80.1484 71.6907 81.1866C71.325 81.6515 71.0354 82.1601 70.8144 82.7087C70.5592 83.3412 70.2925 83.9679 70.0334 84.5909C69.9591 84.5909 69.9172 84.5985 69.8772 84.589C68.7494 84.3604 67.6064 84.2537 66.4596 84.2118C65.871 84.1908 65.2804 84.2099 64.6918 84.2308C65.0575 83.926 65.4233 83.6212 65.7833 83.3088C66.2996 82.8611 66.7911 82.3773 67.2464 81.8667C67.8979 81.1371 68.5342 80.3942 69.1438 79.6322C71.5917 78.0167 74.2682 76.9328 77.179 76.2508C77.0228 76.487 76.8838 76.6604 76.7847 76.8547C76.5161 77.3786 76.6456 77.9005 77.1486 78.1996C77.3676 78.3292 77.6401 78.4168 77.8934 78.4339C78.5068 78.4758 79.0421 78.2453 79.5127 77.8548C79.6098 77.7748 79.6784 77.6262 79.8518 77.6586C79.8613 77.8129 79.8575 77.9539 79.8803 78.091C80.0194 78.9902 80.5376 79.7636 81.4672 79.9979C82.4083 80.2361 83.6313 79.4988 83.3627 78.232C83.2998 77.9367 83.2046 77.6472 83.1188 77.329C83.2198 77.3328 83.2998 77.3386 83.3817 77.3405C84.3476 77.3538 85.0848 76.948 85.5687 76.1117C86.0011 75.3688 85.7249 74.4315 84.9495 74.0772ZM77.1409 56.8027C77.2 56.5417 77.3314 56.2807 77.4915 56.0636C77.6515 55.8464 77.9068 55.7435 78.1982 55.814C78.4973 55.8864 78.6135 56.1226 78.6954 56.3817C78.7278 56.4865 78.7221 56.6008 78.7411 56.776C78.7049 56.9056 78.6802 57.1037 78.5983 57.2751C78.4116 57.6657 78.1658 57.7914 77.8534 57.6961C77.3867 57.5533 77.0571 57.1799 77.1409 56.8027ZM82.153 92.5766C83.1512 93.2872 84.037 94.1025 84.5304 95.2627C84.8695 96.0609 84.8981 96.8895 84.6752 97.722C84.6238 97.9163 84.5133 98.0954 84.3476 98.2707C84.319 98.1868 84.2847 98.1049 84.2599 98.0211C84.0123 97.1353 83.7913 96.2418 83.5132 95.3655C83.2465 94.5235 82.8083 93.7577 82.3283 93.0186C82.2463 92.8929 82.1682 92.7633 82.0901 92.6376C82.1111 92.6147 82.132 92.5957 82.153 92.5766ZM81.431 92.8433C81.5224 92.9462 81.5967 93.0148 81.6539 93.0948C82.3702 94.1406 82.9302 95.2589 83.2522 96.4895C83.3684 96.9314 83.4941 97.3696 83.6275 97.8554C82.4787 97.0857 81.1624 94.8817 81.431 92.8433ZM83.6922 85.3815C81.8787 86.0768 80.0346 86.553 78.1449 86.8026C79.0498 85.5891 82.212 84.7604 83.6922 85.3815ZM84.2942 85.9244C84.3837 86.1987 84.2847 86.3721 84.1952 86.5416C83.7437 87.3931 83.0007 87.896 82.092 88.0694C80.4556 88.3818 78.8326 88.2885 77.2667 87.6541C77.2419 87.6446 77.2248 87.6179 77.1429 87.5455C79.6136 87.2503 81.9949 86.7892 84.2942 85.9244ZM76.2761 88.1208C77.28 89.1991 77.9201 90.4487 78.0172 91.9365C78.082 92.9443 77.7905 93.8434 77.1467 94.6264C77.1105 94.6702 77.0743 94.7121 77.0324 94.7502C77.0133 94.7674 76.9847 94.775 76.9238 94.8017C76.6075 92.5004 76.2913 90.2087 75.9675 87.856C76.0913 87.9589 76.1923 88.0313 76.2761 88.1208ZM76.2342 94.3902C74.8854 92.7309 74.5025 89.5991 75.4741 88.1627C75.7274 90.2506 75.9751 92.2756 76.2342 94.3902ZM70.9668 84.7947C72.9138 83.6231 74.7387 82.3277 76.4056 80.8209C75.5636 82.8345 72.4223 85.1243 70.9668 84.7947ZM70.8887 83.9775C71.0716 83.5546 71.2469 83.1278 71.4488 82.7126C71.6069 82.3868 71.786 82.0687 71.9803 81.7639C72.7442 80.5675 73.8586 79.9694 75.2588 79.8646C75.6017 79.8379 75.9446 79.8093 76.2875 79.7827C76.2989 79.817 76.3123 79.8512 76.3237 79.8874C74.6911 81.5505 72.7728 82.8573 70.8259 84.2632C70.8564 84.1127 70.8602 84.0403 70.8887 83.9775ZM68.5246 86.6007C69.1057 87.1817 69.3514 87.8846 69.3838 88.6809C69.4105 89.3267 69.1761 89.8963 68.8085 90.4297C68.658 89.4562 68.5284 88.4904 68.1017 87.597C67.6826 86.7226 67.1073 85.9644 66.4272 85.2672C67.2216 85.572 67.9227 85.9987 68.5246 86.6007ZM68.016 90.4011C66.6711 89.2886 66.3186 87.7608 66.2577 86.1111C67.2959 87.355 67.936 88.7647 68.016 90.4011ZM76.3504 68.9585C76.8342 68.3374 77.3734 67.7679 78.023 67.3183C78.2363 67.1697 78.4859 67.0554 78.7354 66.9792C79.0326 66.8897 79.1964 67.0287 79.1183 67.3259C79.0136 67.7259 78.8726 68.1298 78.6745 68.4937C78.2763 69.2214 77.7658 69.8767 77.16 70.4425C76.3942 71.1588 75.5998 71.8445 74.813 72.538C74.2149 73.0657 73.611 73.5857 73.009 74.1077C72.948 74.161 72.8833 74.2106 72.8204 74.2639C72.8871 74.0696 72.9652 73.8848 73.0471 73.7019C73.3919 73.1228 73.7367 72.5437 74.0853 71.9665C74.2206 71.7741 74.3558 71.5836 74.4911 71.3912C75.0778 70.5587 75.7217 69.7643 76.3504 68.9585ZM71.6717 64.7923C71.7384 63.154 71.9632 61.5309 72.268 59.9212C72.3384 59.5535 72.4756 59.1954 72.6032 58.841C72.6585 58.6867 72.7518 58.5382 72.8547 58.4067C73.03 58.1857 73.2147 58.1838 73.3538 58.4277C73.491 58.6677 73.5957 58.9325 73.6662 59.1992C73.8663 59.9612 73.931 60.7422 73.9234 61.529C73.9063 63.112 73.7901 64.6875 73.5843 66.2591C73.3119 68.3432 72.9176 70.4044 72.3423 72.4256C72.2908 72.6027 72.2356 72.778 72.1784 72.9533C71.887 73.3495 71.5974 73.7476 71.3116 74.1477C71.405 73.3304 71.4183 72.4999 71.4488 71.6731C71.5345 69.3814 71.5784 67.0859 71.6717 64.7923ZM65.2728 65.398C65.2804 65.2113 65.3204 65.0285 65.3528 64.7846C65.6081 64.9485 65.6976 65.1447 65.7529 65.3352C65.9605 66.0305 66.2024 66.722 66.3263 67.4345C66.8959 70.692 67.1778 73.98 67.1969 77.2871C67.1969 77.4129 67.1969 77.5386 67.1378 77.6815C67.1073 77.5919 67.0635 77.5024 67.0464 77.4109C66.6082 75.0888 66.1529 72.7704 65.7414 70.4425C65.45 68.7775 65.1947 67.1011 65.2728 65.398ZM82.0349 72.418C82.1435 72.1989 82.3149 71.9989 82.4997 71.8369C82.7321 71.6312 82.8883 71.6922 83.0007 71.9931C83.1265 72.3322 83.1245 72.6789 83.0255 73.0237C82.8636 73.5819 82.5111 74.0029 82.0635 74.3858C81.892 74.2296 81.7568 74.1077 81.6005 73.9667C81.6844 73.4409 81.793 72.9075 82.0349 72.418ZM78.7983 72.8123C78.7869 72.5113 78.905 72.2598 79.1774 72.117C79.4422 71.976 79.6955 72.0541 79.9261 72.216C80.4766 72.6008 80.7509 73.1399 80.81 73.7667C80.4575 73.9686 80.1356 74.1534 79.7603 74.3687C79.1679 74.0715 78.8269 73.5438 78.7983 72.8123ZM78.7811 77.4109C78.503 77.5938 78.1887 77.6567 77.861 77.6091C77.5048 77.5576 77.4019 77.3424 77.6153 77.0566C78.1087 76.3918 78.7716 75.9936 79.6022 75.8222C79.7279 76.0127 79.827 76.1632 79.9413 76.3365C79.5832 76.7309 79.2269 77.1195 78.7811 77.4109ZM80.3394 75.3326C80.3909 74.7344 80.6138 74.4982 81.1643 74.4963C81.6139 74.4944 81.8425 74.803 81.8177 75.3231C81.7987 75.7403 81.4577 76.0527 81.0405 76.0336C80.6709 76.0184 80.309 75.6774 80.3394 75.3326ZM81.8711 79.2931C81.4881 79.2645 81.1776 79.095 80.9738 78.7578C80.7776 78.4282 80.6519 78.0758 80.6823 77.6853C80.7052 77.3824 80.7357 77.0795 80.7623 76.7842C81.1148 76.7156 81.4234 76.6566 81.751 76.5918C82.0768 77.0661 82.3511 77.5653 82.5359 78.1101C82.5797 78.2415 82.6083 78.3806 82.6216 78.5178C82.6712 78.9997 82.3568 79.3293 81.8711 79.2931ZM84.8943 75.9308C84.4542 76.5994 83.5417 76.7994 82.8083 76.3746C82.6312 76.2718 82.4768 76.127 82.3092 75.9993C82.3702 75.7841 82.4521 75.6355 82.4464 75.4888C82.433 75.1478 82.6388 75.0068 82.8959 74.8659C83.3951 74.5916 83.9075 74.4563 84.4657 74.6525C85.0543 74.8602 85.2353 75.4107 84.8943 75.9308Z" fill="black"/>
<path d="M65.8995 31.5877C65.5756 32.8755 65.4365 34.1919 65.7451 35.493C66.3414 38.0019 67.8578 39.6935 70.3533 40.4669C71.123 40.705 71.883 40.7812 72.6527 40.4822C72.687 40.4688 72.7327 40.4803 72.7879 40.4803C72.7917 40.486 72.7936 40.4898 72.7974 40.4955C73.1022 40.9832 73.268 41.5223 73.4147 42.0709C73.508 42.4214 73.5804 42.7777 73.668 43.132C73.6947 43.2387 73.7157 43.3625 73.9176 43.3111C73.9138 42.2309 73.7633 41.1794 73.2813 40.1793C73.4813 39.9126 73.5023 39.6211 73.4242 39.3049C73.1651 38.2457 72.9556 37.1751 72.6584 36.1273C72.2317 34.6243 71.6316 33.1917 70.5991 31.9916C70.0066 31.3039 69.3685 30.6543 68.7474 29.9932C68.3931 29.6161 68.0273 29.2503 67.6692 28.8788C67.5435 28.7474 67.4273 28.6083 67.2958 28.4826C67.1301 28.3264 66.9986 28.334 66.8881 28.5264C66.8272 28.6331 66.7681 28.7436 66.7186 28.856C66.6767 28.9474 66.6405 29.0407 66.6119 29.1341C66.3605 29.9456 66.1071 30.761 65.8995 31.5877ZM67.6254 30.0561C67.6959 30.0942 67.7378 30.1056 67.7625 30.1304C68.5703 31.001 69.3951 31.8582 70.1781 32.7517C70.7458 33.3975 71.1172 34.1728 71.4449 34.9634C71.9935 36.2835 72.3555 37.659 72.6698 39.0496C72.6298 39.082 72.5898 39.1163 72.5498 39.1487C72.5212 39.0839 72.5079 39.002 72.4603 38.9544C71.7668 38.2647 71.1039 37.5389 70.361 36.9065C69.3342 36.0321 68.6484 34.9672 68.254 33.6927C67.9188 32.605 67.7454 31.4868 67.6254 30.3609C67.6159 30.2714 67.6254 30.1799 67.6254 30.0561ZM67.6959 34.1176C68.1283 35.4225 68.8579 36.514 69.9152 37.4075C70.6486 38.0285 71.3192 38.7258 72.0145 39.3944C72.1231 39.4973 72.205 39.6268 72.3155 39.7621C71.9688 39.943 71.6297 39.9202 71.3077 39.8668C68.7227 39.4439 67.071 37.7561 66.4824 35.6435C66.2195 34.7005 66.2443 33.7328 66.3986 32.7726C66.5091 32.0849 66.6615 31.4048 66.9434 30.6524C66.9891 30.8486 67.0234 30.9476 67.0367 31.0505C67.1606 32.0926 67.3644 33.1174 67.6959 34.1176Z" fill="black"/>
<path d="M57.7212 58.5882C57.8145 58.5977 57.9364 58.4967 58.0164 58.4148C58.0679 58.3634 58.0641 58.2586 58.085 58.1767C58.1117 58.0776 58.1365 57.9767 58.1631 57.8776C58.2069 57.7062 58.2527 57.5347 58.2965 57.3652C58.3174 57.2794 58.3441 57.1975 58.3746 57.1175C58.5765 56.5765 58.9594 56.1803 59.4985 55.9383C59.9043 55.7554 60.3329 55.6145 60.7653 55.5116C60.7996 55.504 60.8358 55.4964 60.872 55.4887C61.7483 55.2849 62.6399 55.142 63.5104 54.9134C64.0038 54.7839 64.4725 54.6201 64.9182 54.4257C66.6156 53.6847 67.9605 52.4769 68.9111 50.7662C69.2654 50.13 69.6102 49.4899 69.9531 48.8479C70.0388 48.6879 70.1246 48.5279 70.2103 48.3678C70.3094 48.1831 70.3951 47.9907 70.4694 47.7944C70.4884 47.7411 70.5113 47.6859 70.5284 47.6306C70.5913 47.4439 70.6218 47.2534 70.4541 47.0858C70.2255 46.8572 69.9798 47.002 69.7607 47.1182C68.6977 47.6782 67.5605 47.9983 66.3813 48.2097C65.1983 48.4212 64.0191 48.6574 62.8932 49.107C61.6893 49.589 60.7177 50.3586 59.9576 51.4025C59.3194 52.2788 58.788 53.2199 58.4736 54.2581C58.1269 55.4087 57.8431 56.5765 57.5345 57.7385C57.4983 57.8738 57.4792 58.0129 57.4659 58.0738C57.4659 58.2205 57.4392 58.3081 57.4716 58.3558C57.5364 58.4491 57.6278 58.5786 57.7212 58.5882ZM59.4623 53.3189C60.03 52.174 60.7692 51.1682 61.8436 50.4386C62.7732 49.8061 63.8248 49.4689 64.903 49.2118C65.6231 49.0403 66.3546 48.9127 67.0785 48.7565C67.9281 48.5736 68.7568 48.324 69.5436 47.9449C69.5874 47.924 69.635 47.9087 69.7436 47.8687C69.6788 48.0288 69.6521 48.1354 69.5988 48.225C69.0254 49.2175 68.4863 50.2347 67.8576 51.1911C67.1204 52.315 66.0822 53.1208 64.8649 53.6885C63.8305 54.1705 62.7351 54.4543 61.6112 54.6353C60.9177 54.7458 60.2377 54.8963 59.5804 55.1477C59.5328 55.1668 59.4757 55.1611 59.3309 55.1763C59.4928 54.9953 59.5976 54.8715 59.7119 54.7572C60.3024 54.1667 60.9997 53.7247 61.7293 53.3342C62.3332 53.0103 62.9542 52.7189 63.5562 52.3893C64.0838 52.1016 64.602 51.793 65.1087 51.473C65.5754 51.1777 65.9507 50.7815 66.2498 50.3148C66.2879 50.2557 66.3279 50.1986 66.3603 50.1357C66.4308 50.0004 66.5432 49.8347 66.3927 49.7204C66.2098 49.5813 66.1298 49.8023 66.0365 49.9033C65.5393 50.4462 64.9563 50.8767 64.3048 51.2158C63.6362 51.5663 62.958 51.9016 62.2893 52.2502C61.093 52.8732 59.9367 53.5494 59.0223 54.5705C59.0089 54.5858 58.9746 54.5839 58.8889 54.6029C59.0889 54.1514 59.2604 53.7285 59.4623 53.3189Z" fill="black"/>
</svg>
