<svg width="111" height="115" viewBox="0 0 111 115" fill="none" xmlns="http://www.w3.org/2000/svg">
<path fill-rule="evenodd" clip-rule="evenodd" d="M39.1282 21.7893C47.1859 17.0055 57.1321 24.726 65.6196 28.6104C72.708 31.8545 78.5307 36.5933 83.854 42.2587C89.5867 48.3599 98.0493 54.2105 97.5268 62.5683C97.0019 70.9644 86.5239 74.6106 81.4109 81.3377C76.8547 87.3323 75.7979 95.9149 69.2859 99.725C62.3267 103.797 53.7433 103.584 45.8237 102.159C37.3792 100.639 28.5094 98.0945 23.1792 91.4267C17.8723 84.788 16.2732 75.5148 17.8357 67.1476C19.2341 59.6589 27.8364 56.0259 31.0801 49.1162C35.2214 40.2941 30.7176 26.7825 39.1282 21.7893Z" fill="#F4BBB3"/>
<path d="M22.8492 53.9868C23.2036 54.6172 23.7361 55.0284 24.4938 55.1204C25.2516 55.2124 26.0014 55.3651 26.7572 55.465C28.3333 55.6725 29.8487 55.4258 31.3074 54.8091C31.8282 54.5878 32.3059 54.2981 32.7288 53.9221C33.1067 53.5854 33.4846 53.2525 33.8625 52.9177C32.8091 53.3113 31.8576 53.9672 30.7827 54.3509C29.6314 54.7621 28.4195 55.0166 27.1977 55.0832C25.8722 55.1537 24.3137 55.1321 23.3328 54.1062C22.395 53.1233 22.1737 51.5217 22.0269 50.2178C22.0249 50.2276 22.023 50.2393 22.021 50.2491C21.8193 51.5981 22.1992 52.8296 22.8492 53.9868Z" fill="#F4BBB3"/>
<path d="M17.9268 43.4968C17.4334 42.6373 17.0829 41.721 17.0027 40.744C16.9948 40.746 16.989 40.7499 16.9831 40.7518C16.9831 40.6951 16.989 40.6402 16.9929 40.5854C16.9811 40.3524 16.985 40.1155 17.0066 39.8747C17.1456 38.3182 17.8367 37.1023 19.3463 36.5227C20.523 36.0705 21.731 36.0822 22.8979 36.6226C23.2445 36.7831 23.5813 36.9652 23.9102 37.1571C24.9263 37.7484 26.0071 38.185 27.1368 38.5061C28.476 38.8879 29.7232 39.4518 30.898 40.2154C32.1471 41.026 33.4452 41.766 34.7492 42.4866C36.0062 43.1816 37.3846 43.5203 38.808 43.6789C39.1134 43.7122 39.4169 43.7553 39.7145 43.814C39.3758 43.6437 39.0507 43.4459 38.6866 43.3245C38.1227 43.1366 37.5706 42.9819 37.0243 42.7333C36.153 42.3378 35.2367 41.9618 34.434 41.4391C33.7291 40.9809 33.177 40.3368 32.4056 39.9785C31.6909 39.6456 30.8784 39.3226 30.1246 39.1092C30.0776 39.0954 30.0326 39.0915 29.9915 39.0954C29.6782 38.9525 29.3806 38.8233 29.13 38.7039C27.7399 38.0343 26.3282 37.3999 24.9126 36.7812C22.8001 35.859 20.6483 35.1111 18.5181 36.4346C14.753 38.7743 15.779 45.3432 20.4858 45.6192C20.5289 45.6212 20.5602 45.5918 20.5759 45.5546C19.4442 45.2374 18.5396 44.5659 17.9268 43.4968Z" fill="#F4BBB3"/>
<path d="M53.958 64.6396C53.9795 64.7513 54.0011 64.8609 54.0207 64.9725C54.005 64.8609 53.9835 64.7513 53.958 64.6396Z" fill="#F4BBB3"/>
<path d="M53.6664 104.755C54.0227 105.38 54.4789 105.901 55.078 106.298C55.4794 106.564 55.7163 106.578 56.0766 106.253C56.3742 105.983 56.6542 105.679 56.8813 105.349C57.7467 104.101 58.2322 102.696 58.5338 101.223C58.7335 100.25 58.9332 99.277 59.1309 98.302C58.6532 99.4278 58.3243 100.634 57.9131 101.781C57.639 102.547 57.4256 103.479 56.8167 104.066C55.9689 104.886 54.9586 104.25 54.3321 103.52C52.4133 101.28 51.5323 98.2785 51.1211 95.416C51.1211 95.4141 51.1211 95.4141 51.1191 95.4121C51.2699 96.9256 51.5381 98.4175 51.8866 99.8957C52.2919 101.585 52.799 103.236 53.6664 104.755Z" fill="#F4BBB3"/>
<path d="M59.9003 97.9515C59.9061 97.9103 59.9022 97.8712 59.8924 97.834C59.7789 98.3724 59.6673 98.9089 59.5537 99.4473C59.6966 98.952 59.8219 98.4546 59.9003 97.9515Z" fill="#F4BBB3"/>
<path d="M53.7095 109.377C53.825 109.504 53.9464 109.614 54.0737 109.708C54.0972 109.717 54.1187 109.727 54.1422 109.739C54.1363 109.741 54.1305 109.745 54.1265 109.747C54.5769 110.062 55.0938 110.162 55.6165 110.025C55.6048 110.003 55.5911 109.982 55.5715 109.966C55.6987 109.954 55.8221 109.937 55.9415 109.909C56.106 109.835 56.2685 109.739 56.429 109.617C56.9342 109.234 57.3708 108.777 57.7076 108.229C58.1873 107.45 58.5945 106.641 58.9313 105.807C58.8549 105.792 58.7707 105.815 58.7159 105.897C57.8524 107.211 57.1221 109.173 55.2563 109.218C53.4158 109.263 52.3292 107.364 51.734 105.876C51.7261 105.858 51.7124 105.85 51.6987 105.844C52.1608 106.929 52.7306 107.959 53.3767 108.952C53.4765 109.104 53.5901 109.243 53.7095 109.377Z" fill="#F4BBB3"/>
<path d="M48.6089 74.7858C48.791 74.547 49.0338 74.5313 49.2648 74.7251C49.3999 74.8387 49.5408 74.964 49.627 75.1148C49.8463 75.4966 50.0499 75.8881 50.2359 76.2876C50.4415 76.732 50.6138 77.1902 50.8115 77.6366C51.0308 78.1339 51.3558 78.5587 51.7415 78.9425C52.0372 79.2362 52.3563 79.3732 52.6637 79.3928C53.0083 79.3419 53.3451 79.2107 53.6466 79.0188C53.7621 78.9112 53.8659 78.7839 53.9501 78.6429C54.1615 78.2866 54.2692 77.9009 54.3221 77.4936C54.4121 76.8044 54.4239 76.1113 54.3632 75.4202C54.2555 74.1828 54.1459 72.9474 54.0166 71.7119C53.907 70.6742 53.7954 69.6365 53.6799 68.5988C53.6779 68.5988 53.6779 68.6008 53.676 68.6008C53.676 68.5812 53.674 68.5636 53.674 68.544C53.5839 67.7374 53.4939 66.9307 53.394 66.126C53.1826 64.3874 52.7636 62.7016 51.9628 61.1274C51.3715 59.9644 50.8448 58.7721 50.6432 57.472C50.6412 57.4603 50.6392 57.4485 50.6373 57.4348C50.6255 57.3937 50.6118 57.3526 50.6001 57.3095C50.5903 57.196 50.5805 57.0804 50.5727 56.9669C50.4924 56.3423 50.4376 55.7138 50.3965 55.0873C50.3318 54.122 50.3299 53.1509 50.1047 52.2052C50.0323 51.8978 49.9422 51.5963 49.8463 51.2987C49.8365 51.3105 49.8267 51.3242 49.8189 51.3379C49.7738 51.1519 49.7229 50.9678 49.6662 50.7838C49.2511 49.6854 48.6735 48.6653 47.9236 47.7392C47.4929 47.2067 46.9505 46.7525 46.3318 46.4216C46.1595 46.3295 45.9872 46.2395 45.8149 46.1494C47.2188 47.24 48.3132 48.7456 48.8752 50.4353C49.5448 52.448 49.2217 54.5704 49.4782 56.6419C49.6994 58.4314 50.5394 59.9135 51.4518 61.4348C52.5658 63.289 53.3784 65.0687 53.0905 67.2812C53.0847 67.3262 53.0905 67.3673 53.1023 67.4045C52.8517 68.454 52.8027 69.5739 52.8615 70.6233C52.9594 72.3502 53.6192 73.8558 53.9364 75.5298C54.1126 76.4677 54.0793 77.7736 53.1199 78.2964C51.9001 78.9601 51.3852 77.6229 51.1483 76.7203C50.8742 75.6806 50.5727 74.5998 49.4704 74.175C49.3666 74.1358 49.2804 74.1867 49.2335 74.267C49.1786 74.2846 49.1238 74.3062 49.0729 74.3375C48.7185 74.4197 48.372 74.6547 48.2016 74.9092C47.9373 75.3027 47.9217 75.8901 48.1449 76.3306C48.1879 76.0017 48.2486 75.6747 48.3211 75.3536C48.3622 75.15 48.4816 74.9523 48.6089 74.7858Z" fill="#F4BBB3"/>
<path d="M60.4017 48.9517C59.6577 49.8015 59.1819 50.8255 58.9137 51.9806C58.7257 52.7873 58.6592 53.6077 58.6376 54.4319C58.6004 55.9376 58.4007 57.4295 58.2323 58.9234C58.0405 60.615 57.5608 62.2421 57.1574 63.8867C56.9147 64.8755 56.7522 65.872 56.7052 66.8902C56.6758 67.5108 56.5975 68.1295 56.5936 68.7482C56.5877 69.6665 56.6151 70.5867 56.6562 71.5049C56.7189 72.852 56.7933 74.199 56.7287 75.55C56.7208 75.7008 56.7208 75.8515 56.7247 76.0003C56.7287 76.0434 56.7326 76.0845 56.7365 76.1276C56.7345 76.1315 56.7306 76.1374 56.7287 76.1413C56.7522 76.6836 56.852 77.2142 57.0537 77.7272C57.132 77.9269 57.2358 78.1149 57.3395 78.3028C57.3493 78.3204 57.3591 78.3342 57.3709 78.3498C57.4668 78.4066 57.5706 78.4516 57.6802 78.4849C57.7096 78.483 57.7389 78.481 57.7703 78.4751C58.3733 78.3557 58.8765 78.0933 59.1604 77.5177C59.4188 76.993 59.6616 76.4624 59.9142 75.9357C60.0434 75.6675 60.153 75.3836 60.3195 75.1408C60.4644 74.9293 60.6543 74.7277 60.8677 74.5906C61.3748 74.2695 61.9504 74.4399 62.2402 74.9665C62.4301 75.3131 62.526 75.689 62.573 76.0786C62.7081 75.6831 62.6004 75.2485 62.3616 74.9137C62.3518 74.8882 62.342 74.8628 62.3322 74.8373C62.3577 74.7845 62.3557 74.714 62.3126 74.6631C61.6743 73.8819 60.6327 74.2734 60.0982 74.9607C59.6929 75.4834 59.5539 76.1276 59.2465 76.7013C59.0449 77.0772 58.7062 77.6489 58.1893 77.6039C57.5451 77.5471 57.5608 76.9049 57.4511 76.4448C57.3865 73.9034 57.0654 71.3659 56.8775 68.8265C57.0106 68.3175 57.085 67.7908 57.1124 67.2778C57.6215 65.4021 57.7429 63.3444 58.0385 61.4334C58.3674 59.2934 58.6964 57.1534 59.0272 55.0134C59.319 53.1299 59.6322 51.2484 60.8129 49.6879C62.0581 48.0433 63.8163 46.8019 65.3905 45.4921C65.4942 45.406 65.3552 45.2239 65.2456 45.3041C64.294 46.0109 63.2622 46.6786 62.2813 47.3972C62.2108 47.45 62.1403 47.5009 62.0718 47.5518C61.4805 47.9943 60.9147 48.4525 60.4017 48.9517Z" fill="#F4BBB3"/>
<path d="M71.6378 43.2526C73.0729 43.0783 74.4474 42.6926 75.7044 41.9701C77.0083 41.2222 78.3103 40.4704 79.5752 39.6617C80.6128 38.998 81.7171 38.5105 82.8919 38.1718C84.1939 37.7958 85.4371 37.2927 86.6021 36.5976C87.1053 36.298 87.6339 36.0455 88.2135 35.926C88.4837 35.8712 88.7538 35.836 89.0201 35.8223C89.0808 35.8066 89.1415 35.7949 89.2022 35.7831C89.2277 35.7949 89.2551 35.8066 89.2825 35.8184C89.9482 35.8203 90.5962 35.9593 91.2149 36.2667C91.2933 36.3059 91.3696 36.3489 91.444 36.392C91.489 36.3881 91.5341 36.3822 91.5791 36.3744C91.7553 36.5154 91.9198 36.6779 92.0705 36.8619C92.6344 37.3984 92.981 38.1032 93.1435 38.9216C93.3216 39.8125 93.2688 40.7053 92.9477 41.5668C92.7813 42.0132 92.6442 42.4792 92.4171 42.8923C91.5615 44.4528 90.2301 45.2809 88.4445 45.326C88.3231 45.3299 88.1998 45.3221 88.0764 45.3123C87.9374 45.324 87.7984 45.3338 87.6555 45.3377C87.5634 45.3397 87.5536 45.4611 87.6339 45.4904C89.443 46.1777 91.4009 45.1733 92.517 43.7303C93.7387 42.1502 94.2243 39.9026 93.7034 37.9662C93.2492 36.2745 91.8356 34.8198 90.0363 34.6554C87.9707 34.4654 86.4181 36.2941 84.6109 36.9911C84.6031 36.9931 84.5972 36.999 84.5894 37.0009C84.0568 37.1576 83.5341 37.3573 83.0211 37.5354C82.0108 37.884 81.0397 38.301 80.0764 38.767C79.0994 39.2388 78.1518 39.7694 77.2257 40.3353C76.8243 40.58 76.3955 40.8267 75.9883 41.1047C75.2325 41.508 74.4552 41.8742 73.6251 42.1894C71.8766 42.8531 70.044 43.1037 68.4718 44.1512C68.4464 44.1689 68.4444 44.1982 68.4581 44.2217C68.697 44.069 68.9496 43.9339 69.2061 43.8184C69.9775 43.4699 70.8076 43.3544 71.6378 43.2526Z" fill="#F4BBB3"/>
<path d="M49.0319 44.6969C50.8175 45.2608 52.6481 45.4644 54.5121 45.2706C55.5321 45.1648 56.5444 44.9945 57.5645 44.8809C58.1322 44.8163 58.7079 44.7967 59.2796 44.7772C59.4891 44.7693 59.6966 44.7556 59.9022 44.738C60.1137 44.7028 60.3251 44.6675 60.5366 44.6303C61.2277 44.5089 61.9188 44.4854 62.471 44.0312C62.6394 43.8922 62.5278 43.6377 62.3516 43.5789C61.772 43.3831 61.2571 43.5574 60.6638 43.6631C59.9786 43.7865 59.2952 43.9079 58.608 44.0155C57.0906 44.2564 55.5595 44.4463 54.0226 44.5148C51.2913 44.6401 48.4778 44.4443 45.8777 43.5515C45.8307 43.5359 45.7915 43.575 45.7856 43.6161C45.8953 43.6514 46.0069 43.6847 46.1165 43.7199C47.0935 44.0273 48.0549 44.3875 49.0319 44.6969Z" fill="#F4BBB3"/>
<path d="M77.4099 53.4579C78.0227 54.012 78.7412 54.3723 79.5127 54.6483C81.0731 55.2083 82.6649 55.2435 84.2782 54.9675C84.7951 54.8794 85.312 54.7834 85.8308 54.7071C86.3125 54.6346 86.7099 54.4193 87.031 54.057C87.0937 53.9846 87.1622 53.9161 87.2112 53.8358C87.4912 53.3835 87.7241 52.9254 87.8964 52.4574C87.7966 52.4339 87.6869 52.4574 87.5969 52.5573C84.1138 56.383 78.287 53.9376 74.7393 51.1006C75.3012 51.5901 75.8553 52.0913 76.4192 52.5788C76.754 52.8666 77.0829 53.1623 77.4099 53.4579Z" fill="#F4BBB3"/>
<path d="M73.8287 50.3203C73.8189 50.3125 73.8091 50.3105 73.7974 50.3105C73.8639 50.3654 73.9325 50.4182 73.999 50.4731C73.9423 50.4222 73.8855 50.3712 73.8287 50.3203Z" fill="#F4BBB3"/>
<path d="M49.414 16.7309C49.365 16.5253 49.3258 16.3197 49.2926 16.1141C49.1203 15.3408 49.1359 14.5184 49.3141 13.7372C49.4081 13.2086 49.5647 12.6839 49.784 12.167C48.5583 13.5395 48.1296 15.3838 48.7992 17.1597C49.3963 18.7495 50.9548 20.2649 52.6895 20.4646C52.7228 20.4685 52.7561 20.4646 52.7855 20.4588C52.529 20.3276 52.2745 20.1944 52.0219 20.0593C50.6631 19.3349 49.7703 18.2326 49.414 16.7309Z" fill="#F4BBB3"/>
<path d="M53.0674 19.9632C53.0459 19.8672 52.9891 19.7811 52.8873 19.738C52.6719 19.646 52.4624 19.5539 52.2568 19.458C52.2686 19.4658 52.2803 19.4737 52.2921 19.4815C52.5603 19.6303 52.8227 19.783 53.0674 19.9632Z" fill="#F4BBB3"/>
<path d="M59.8712 15.3639C59.8516 16.2176 59.7263 17.0555 59.3465 17.8309C58.8491 18.8451 58.1188 19.6419 57.1086 20.1686C56.8854 20.2841 56.6622 20.3977 56.439 20.5132C56.4781 20.572 56.5408 20.615 56.6211 20.6189C58.1345 20.6836 59.4678 18.8549 59.9475 17.6018C60.5055 16.1432 60.4527 14.4241 59.6069 13.1123C59.8105 13.825 59.8908 14.5788 59.8712 15.3639Z" fill="#F4BBB3"/>
<path d="M41.4984 16.4482C41.3848 16.879 41.3789 17.3293 41.4573 17.7796C41.5865 18.1536 41.7314 18.5217 41.8958 18.8819C42.3305 19.8256 42.9668 20.6303 43.7363 21.3254C44.5449 22.0557 45.5258 22.4003 46.589 22.5452C48.1592 22.7606 49.6883 22.5824 51.1666 22.0283C51.3878 21.9461 51.5973 21.8364 51.8048 21.7209C51.842 21.6641 51.8734 21.6034 51.9008 21.5408C51.9811 21.3528 51.891 21.1296 51.6639 21.1257C51.192 21.1198 50.869 21.3509 50.4363 21.531C49.8508 21.7757 49.2459 21.9461 48.6134 22.0107C47.4583 22.1262 46.2796 21.9402 45.2341 21.4311C44.2121 20.9358 43.3564 20.1644 42.7358 19.2148C42.2013 18.3964 42.0486 17.4918 41.7079 16.6186C41.6903 16.6049 41.6707 16.5912 41.6531 16.5775C41.5982 16.5383 41.5473 16.4933 41.4984 16.4482Z" fill="#F4BBB3"/>
<path d="M63.5321 22.4465C64.3721 22.2331 65.075 21.7632 65.6819 21.1484C65.8816 20.9467 66.0637 20.7333 66.238 20.516C66.3241 20.3848 66.4083 20.2536 66.4905 20.1264C66.7313 19.7524 66.978 19.3686 67.2071 18.9731C67.444 18.4798 67.6379 17.9609 67.7886 17.4186C67.8474 17.2032 67.91 16.9898 67.9727 16.7764C67.9687 16.7803 67.9648 16.7822 67.9609 16.7862C67.3716 17.5517 66.9056 18.4132 66.3633 19.212C65.7818 20.0657 65.1552 21.1562 64.188 21.6065C63.3128 22.0138 62.3339 21.8454 61.4078 21.7593C60.3388 21.6594 59.1934 21.4401 58.1244 21.538C57.8464 21.5635 57.6799 21.8082 57.6878 22.0373C59.5399 22.8674 61.4959 22.9634 63.5321 22.4465Z" fill="#F4BBB3"/>
<path d="M47.9236 26.4567C48.6011 25.7068 49.4998 25.4464 50.4533 25.3367C51.211 25.2486 51.9413 25.09 52.5795 24.6573C52.8419 24.4792 53.0945 24.2658 53.2961 24.021C53.6525 23.5864 53.9462 23.1047 54.1204 22.5643C54.1576 22.4488 54.1811 22.3313 54.2066 22.2119C54.0715 22.2237 53.9403 22.3039 53.8796 22.4645C53.5663 23.2907 53.0905 23.927 52.4621 24.3891C52.2095 24.5536 51.953 24.7161 51.6593 24.8257C51.068 25.0431 50.418 25.0489 49.7993 25.1488C49.0338 25.2721 48.3191 25.5404 47.861 26.1649C47.8394 26.2667 47.8199 26.3686 47.8042 26.4743C47.8629 26.4645 47.908 26.4743 47.9236 26.4567Z" fill="#F4BBB3"/>
<path d="M58.0892 25.2885C58.5846 25.3512 59.078 25.453 59.5635 25.5705C60.0706 25.6958 60.5033 25.9718 60.8773 26.3399C60.9282 26.3889 60.983 26.4339 61.0398 26.4789C61.0417 26.4809 61.0456 26.4789 61.0496 26.4789C60.7265 25.6938 60.1019 25.265 59.2992 24.9733C58.6081 24.7227 57.866 24.6639 57.1945 24.3546C56.4974 24.0335 56.0197 23.5166 55.587 22.8959C55.3932 22.616 55.0721 22.6884 54.9448 22.9038C55.497 24.2567 56.5895 25.0966 58.0892 25.2885Z" fill="#F4BBB3"/>
<path d="M62.9042 14.5581C62.681 15.3335 62.2483 15.9815 61.6473 16.52C61.3399 16.796 61.0383 17.0799 60.7349 17.3619C61.8411 16.9292 62.728 16.3653 63.288 15.2571C63.8734 14.1 63.9752 12.6413 63.3976 11.4646C63.2234 11.1103 62.7065 11.3667 62.7848 11.7231C62.9219 12.3437 63.0158 12.9272 62.9982 13.5048C63.0256 13.8553 63.0041 14.2057 62.9042 14.5581Z" fill="#F4BBB3"/>
<path d="M45.9542 11.9094C44.8127 13.5834 46.332 16.6965 48.2312 17.1135C47.9982 16.8942 47.7672 16.673 47.5264 16.4595C46.3829 15.4493 45.8426 14.2373 46.2008 12.6925C46.2615 12.4341 46.3359 12.1835 46.4221 11.9387C46.334 11.7586 46.0912 11.7077 45.9542 11.9094Z" fill="#F4BBB3"/>
<path d="M49.014 75.225C49.2998 75.6773 49.523 76.1354 49.7286 76.6014C49.9029 76.9949 50.0556 77.3963 50.2201 77.7918C50.4942 78.4536 50.919 79.0116 51.4203 79.5128C52.3327 80.4252 53.664 80.2255 54.3787 79.2465C54.6273 78.9059 54.831 78.5339 54.8975 78.1168C54.9895 77.5529 55.0816 76.9812 55.0914 76.4134C55.1148 74.8491 55.0189 73.2866 54.8564 71.7301C54.7096 70.3302 54.5255 68.9322 54.3845 67.5323C54.2984 66.6728 54.179 65.8192 54.0204 64.9733C53.9988 64.8617 53.9793 64.7521 53.9577 64.6405C53.8422 64.0649 53.7051 63.4932 53.5446 62.9254C53.2509 61.8857 52.8163 60.9068 52.3601 59.9337C51.6826 58.4868 51.3459 56.9616 51.2284 55.3737C51.1618 54.4711 51.0639 53.5665 50.921 52.6718C50.7213 51.4285 50.1417 50.3242 49.5387 49.2356C49.4702 49.1103 49.4114 48.9792 49.3468 48.8539C49.1941 48.5582 49.0766 48.2352 48.8769 47.9767C48.4991 47.4872 48.0801 47.0271 47.665 46.5651C47.3321 46.195 46.9131 45.9405 46.4511 45.7623C46.1182 45.6331 45.7795 45.5156 45.4447 45.3903C44.7986 45.1475 44.1231 44.9733 43.5377 44.5856C43.4222 44.5092 43.2812 44.474 43.152 44.4192C43.1324 44.4466 43.1128 44.472 43.0933 44.4995C43.4379 44.8029 43.7864 45.0986 44.2014 45.312C44.7399 45.5881 45.2744 45.868 45.8108 46.15C45.9831 46.24 46.1554 46.3301 46.3277 46.4221C46.9464 46.753 47.4888 47.2053 47.9195 47.7398C48.6694 48.6659 49.247 49.686 49.6621 50.7844C49.7267 50.9547 49.7854 51.125 49.8422 51.2993C49.9381 51.5969 50.0282 51.8984 50.1006 52.2058C50.3258 53.1515 50.3277 54.1226 50.3924 55.0878C50.4335 55.7144 50.4883 56.3429 50.5686 56.9674C50.5882 57.1241 50.6097 57.2788 50.6332 57.4354C50.6351 57.4471 50.6371 57.4589 50.6391 57.4726C50.8407 58.7726 51.3674 59.965 51.9587 61.128C52.7595 62.7022 53.1785 64.3879 53.3899 66.1266C53.4878 66.9313 53.5798 67.7379 53.6699 68.5446C53.6719 68.5622 53.6738 68.5818 53.6758 68.5994C53.7913 69.6371 53.9029 70.6748 54.0125 71.7125C54.1418 72.946 54.2514 74.1834 54.3591 75.4208C54.4198 76.1119 54.408 76.8031 54.318 77.4942C54.2651 77.9014 54.1574 78.2872 53.946 78.6435C53.8618 78.7845 53.76 78.9117 53.6425 79.0194C53.3703 79.27 53.0238 79.4149 52.6596 79.3934C52.3522 79.3758 52.0331 79.2367 51.7375 78.9431C51.3537 78.5613 51.0287 78.1344 50.8074 77.6371C50.6097 77.1907 50.4374 76.7306 50.2318 76.2881C50.0458 75.8887 49.8422 75.4971 49.6229 75.1153C49.5368 74.9646 49.3958 74.8393 49.2607 74.7257C49.0297 74.5319 48.7869 74.5475 48.6048 74.7864C48.4775 74.9528 48.3581 75.1506 48.3131 75.3522C48.2406 75.6753 48.178 76.0023 48.1368 76.3292C48.1212 76.4487 48.1075 76.5701 48.0977 76.6895C48.0448 77.3415 48.2171 77.97 48.4051 78.5867C48.9474 80.3665 49.2744 82.1795 49.2548 84.0473C49.2489 84.619 49.294 85.1927 49.3488 85.7625C49.4526 86.8432 49.5877 87.922 49.6953 89.0009C49.7795 89.8565 49.8324 90.714 49.9185 91.5696C50.0399 92.7933 50.1868 94.0131 50.3101 95.2368C50.5216 97.3416 50.8564 99.4228 51.4575 101.457C51.8412 102.757 52.3366 104.004 52.9807 105.195C53.4134 105.996 54.0282 106.606 54.8192 107.051C55.3048 107.323 55.7786 107.298 56.2426 107.01C56.3836 106.922 56.5265 106.824 56.6342 106.7C56.9181 106.379 57.2137 106.062 57.4506 105.708C58.179 104.615 58.6861 103.417 58.97 102.136C59.1697 101.24 59.3616 100.341 59.5495 99.4424C59.6631 98.904 59.7766 98.3675 59.8882 97.8291C59.9881 97.3513 60.0879 96.8736 60.1898 96.3959C60.4325 95.2525 60.6851 94.111 60.9161 92.9637C61.1648 91.7341 61.296 90.4889 61.4213 89.2397C61.5348 88.112 61.7111 86.9901 61.8246 85.8623C62.0733 83.3914 62.3043 80.9205 62.5275 78.4477C62.598 77.6645 62.6606 76.8775 62.5647 76.0884C62.5647 76.0845 62.5627 76.0806 62.5627 76.0767C62.5138 75.6851 62.4198 75.3092 62.2299 74.9646C61.9401 74.4379 61.3645 74.2676 60.8574 74.5887C60.644 74.7237 60.4541 74.9274 60.3092 75.1388C60.1428 75.3816 60.0331 75.6655 59.9039 75.9337C59.6513 76.4604 59.4086 76.991 59.1501 77.5157C58.8662 78.0914 58.363 78.3537 57.76 78.4732C57.7287 78.479 57.6993 78.4829 57.6699 78.4829C57.5427 78.4908 57.4369 78.4516 57.3606 78.3478C57.3508 78.3341 57.339 78.3185 57.3293 78.3009C57.2235 78.1149 57.1198 77.9249 57.0434 77.7252C56.8417 77.2103 56.7438 76.6797 56.7184 76.1393C56.7164 76.0923 56.7164 76.0453 56.7145 75.9964C56.7105 75.8476 56.7125 75.6968 56.7184 75.5461C56.783 74.1971 56.7086 72.85 56.6459 71.501C56.6029 70.5828 56.5774 69.6645 56.5833 68.7443C56.5872 68.1256 56.6675 67.5049 56.6949 66.8862C56.7419 65.8681 56.9063 64.8735 57.1472 63.8828C57.5485 62.2381 58.0282 60.6111 58.2221 58.9195C58.3924 57.4256 58.5901 55.9337 58.6273 54.428C58.6489 53.6037 58.7154 52.7834 58.9034 51.9767C59.1716 50.8216 59.6474 49.7956 60.3914 48.9478C60.7047 48.5915 61.063 48.2645 61.4741 47.9748C61.6699 47.8357 61.8638 47.6948 62.0576 47.5518C62.1281 47.5009 62.1986 47.45 62.2671 47.3972C62.97 46.8705 63.6553 46.3223 64.3307 45.7604C64.8594 45.3218 65.3214 44.8303 65.7444 44.2958C65.7816 44.2488 65.8325 44.2019 65.8423 44.149C65.8579 44.0766 65.8403 43.9982 65.8383 43.9219C65.762 43.9336 65.6719 43.9238 65.6132 43.961C65.5035 44.0315 65.4135 44.1294 65.3156 44.2175C64.9025 44.5797 64.505 44.9596 64.0762 45.3002C63.0757 46.0932 62.0361 46.8352 60.9514 47.5127C60.0919 48.0511 59.4555 48.803 58.9543 49.6742C58.2475 50.9057 57.9558 52.2547 57.9029 53.6507C57.8266 55.6106 57.6229 57.5548 57.3371 59.4912C57.1726 60.617 56.8417 61.7017 56.5735 62.802C56.3425 63.7516 56.1036 64.7012 55.9313 65.6625C55.8177 66.293 55.8275 66.9469 55.7668 67.5872C55.6572 68.7541 55.6396 69.923 55.7081 71.0918C55.804 72.7365 55.9215 74.3792 55.8941 76.0297C55.8804 76.8148 56.0644 77.5706 56.3816 78.2872C56.4815 78.5143 56.6107 78.7355 56.7615 78.9313C56.9944 79.2367 57.3214 79.3797 57.7071 79.3327C58.5392 79.2309 59.2539 78.9039 59.7062 78.1658C59.9842 77.7096 60.223 77.226 60.4619 76.7463C60.6068 76.4585 60.7125 76.153 60.8496 75.8613C60.9201 75.7105 61.0043 75.5617 61.108 75.4345C61.3116 75.1858 61.4683 75.2015 61.5623 75.501C61.6582 75.8045 61.7424 76.1256 61.7522 76.4408C61.7718 77.0243 61.7541 77.6117 61.715 78.1932C61.621 79.5735 61.5133 80.9558 61.3919 82.3342C61.2686 83.7497 61.1276 85.1633 60.9827 86.575C60.8848 87.5246 60.7771 88.4742 60.6597 89.4198C60.5187 90.5574 60.4169 91.7008 60.2035 92.8246C59.8569 94.6494 59.4908 96.4703 59.1188 98.2911C58.921 99.2642 58.7213 100.239 58.5216 101.212C58.2201 102.685 57.7326 104.092 56.8691 105.338C56.6401 105.667 56.362 105.972 56.0644 106.242C55.7042 106.569 55.4673 106.554 55.0659 106.287C54.4668 105.89 54.0106 105.371 53.6542 104.744C52.7869 103.223 52.2778 101.575 51.8804 99.8849C51.5319 98.4067 51.2636 96.9128 51.1129 95.4013C51.0992 95.2603 51.0835 95.1213 51.0718 94.9803C50.9367 93.3866 50.7859 91.7948 50.643 90.201C50.5647 89.3337 50.5177 88.4605 50.4061 87.599C50.224 86.201 50.0908 84.8011 50.0752 83.3895C50.0615 82.0229 49.897 80.6758 49.5035 79.362C49.3527 78.8589 49.2196 78.3498 49.061 77.8505C48.8495 77.1888 48.8123 76.5152 48.8789 75.8319C48.9122 75.6342 48.9729 75.4306 49.014 75.225Z" fill="black"/>
<path d="M66.8099 46.5539C66.6102 46.5284 66.6102 46.736 66.5906 46.8613C66.5044 47.4389 66.4046 48.0184 66.3654 48.5999C66.2695 50.0644 66.2323 51.5309 66.011 52.9876C65.7311 54.8398 65.2866 56.6352 64.4447 58.321C64.0355 59.1433 63.6185 59.9656 63.2758 60.8153C62.1167 63.7052 61.453 66.7145 61.2083 69.8178C61.1202 70.9162 61.3982 71.8952 62.06 72.7743C62.2029 72.9642 62.3419 73.16 62.4692 73.3617C62.8529 73.9647 63.0898 74.6147 63.1544 75.3352C63.2445 76.3651 63.2014 77.3891 63.0879 78.4092C62.8979 80.1047 62.665 81.7963 62.4555 83.4899C62.2009 85.5516 61.9562 87.6133 61.6997 89.675C61.547 90.9183 61.3982 92.1635 61.22 93.4029C60.94 95.351 60.6366 97.2971 60.3409 99.2414C60.153 100.479 59.9787 101.72 59.7575 102.952C59.5793 103.938 59.2993 104.888 58.9312 105.802C58.5944 106.638 58.1852 107.445 57.7075 108.224C57.3708 108.772 56.9341 109.229 56.429 109.612C56.2684 109.736 56.104 109.832 55.9415 109.904C55.8338 109.953 55.7241 109.992 55.6165 110.02C55.0917 110.157 54.5768 110.055 54.1265 109.742C54.1089 109.73 54.0912 109.716 54.0736 109.702C53.9464 109.609 53.825 109.499 53.7094 109.372C53.59 109.238 53.4765 109.097 53.3786 108.949C52.7324 107.956 52.1647 106.924 51.7006 105.841C51.5636 105.52 51.4363 105.197 51.3188 104.866C50.8489 103.539 50.473 102.184 50.2204 100.796C50.0168 99.6819 49.776 98.5757 49.5626 97.4636C49.5019 97.1483 49.4804 96.8233 49.4255 96.5061C48.9987 94.0235 48.6952 91.5233 48.3878 89.023C47.9963 85.8375 47.5851 82.652 47.1974 79.4645C47.0623 78.3504 46.9958 77.2305 47.0349 76.1047C47.0702 75.1042 47.3834 74.2114 47.9786 73.4126C48.0707 73.2872 48.1627 73.1619 48.2508 73.0347C48.7892 72.2691 49.0849 71.4253 49.0163 70.4816C48.9654 69.7924 48.8989 69.1012 48.8088 68.416C48.3937 65.2696 47.5596 62.2485 46.1147 59.4056C45.3785 57.9548 44.75 56.4609 44.4661 54.8437C44.194 53.2911 43.9492 51.7365 43.9179 50.1545C43.9003 49.2127 43.8435 48.269 43.6516 47.341C43.6321 47.247 43.6223 47.1471 43.5772 47.0669C43.544 47.0062 43.4637 46.9709 43.403 46.9239C43.3619 46.9768 43.2953 47.0258 43.2875 47.0845C43.2659 47.2255 43.2659 47.3703 43.2679 47.5133C43.2757 48.2064 43.3031 48.8975 43.2933 49.5906C43.2757 51.0865 43.3834 52.5706 43.5675 54.0547C43.7652 55.6425 44.147 57.1717 44.7911 58.6362C45.2043 59.576 45.637 60.5079 46.009 61.4634C47.1093 64.2965 47.7339 67.2412 48.0335 70.2623C48.1294 71.2295 47.9316 72.0792 47.3345 72.8467C47.1367 73.0993 46.9801 73.3851 46.8195 73.6632C46.4691 74.2721 46.2302 74.9221 46.2067 75.627C46.1793 76.4845 46.1167 77.3499 46.193 78.2016C46.3653 80.091 46.6081 81.9726 46.8372 83.8561C47.0036 85.2305 47.2053 86.6011 47.3756 87.9736C47.589 89.6906 47.775 91.4117 47.9943 93.1287C48.1509 94.3485 48.3467 95.5624 48.5249 96.7783C48.7422 98.2526 48.9419 99.7289 49.3002 101.182C49.7819 103.134 50.3712 105.043 51.2386 106.862C51.7437 107.923 52.3409 108.923 53.1084 109.818C53.4628 110.231 53.868 110.574 54.3712 110.795C54.9371 111.042 55.5029 111.055 56.0766 110.83C56.6777 110.595 57.1848 110.225 57.6057 109.738C58.2655 108.974 58.7961 108.128 59.1994 107.2C59.7692 105.892 60.1901 104.534 60.4701 103.142C60.8793 101.107 61.2161 99.0593 61.5764 97.0152C62.0502 94.3231 62.3595 91.6074 62.6943 88.8938C63.0526 85.9804 63.4442 83.069 63.8143 80.1576C64.0022 78.6872 64.1158 77.2129 64.0609 75.7288C64.0257 74.7929 63.8123 73.9099 63.3111 73.1091C63.1074 72.786 62.896 72.4669 62.6806 72.1536C62.2577 71.5369 62.0932 70.8496 62.1716 70.1154C62.2597 69.2735 62.3615 68.4316 62.4868 67.5936C62.8823 64.9367 63.6048 62.3699 64.6953 59.9108C65.0145 59.1903 65.3336 58.4717 65.6312 57.7414C65.9738 56.8995 66.2636 56.038 66.4163 55.1413C66.7413 53.2323 66.9743 51.3136 66.9528 49.3713C66.9528 48.5471 66.9567 47.7247 66.9489 46.9004C66.9508 46.7791 67.0037 46.5794 66.8099 46.5539Z" fill="black"/>
<path d="M96.0568 49.7988C96.8575 47.4493 97.2413 45.0313 97.2158 42.5525C97.2021 41.227 97.1395 39.9015 96.8047 38.6093C96.3974 37.041 95.7454 35.5941 94.6608 34.3685C93.7758 33.368 92.6989 32.6749 91.393 32.3499C89.7895 31.9524 88.1977 32.017 86.6196 32.4771C85.1903 32.8942 83.855 33.5324 82.6059 34.3352C81.0396 35.3415 79.4967 36.3851 77.948 37.4169C76.1056 38.6426 74.0752 39.3005 71.8745 39.4453C69.1511 39.6235 66.5666 39.0205 64.0507 38.0356C63.8099 37.9417 63.5593 37.8712 63.3126 37.7889C63.3008 37.8164 63.2871 37.8438 63.2754 37.8712C63.5887 38.0396 63.898 38.2138 64.2152 38.3783C65.1902 38.8854 66.1711 39.3709 67.248 39.6353C67.945 39.8056 68.6479 39.9231 69.3625 39.9916C70.6156 40.111 71.8648 40.1012 73.112 39.925C75.2578 39.6235 77.1942 38.8168 78.972 37.5853C80.3367 36.6416 81.7229 35.7312 83.111 34.8227C84.043 34.2118 85.0396 33.7321 86.0871 33.3484C87.1992 32.9392 88.3426 32.7414 89.5271 32.8041C90.649 32.8628 91.72 33.1017 92.697 33.6969C93.7777 34.3567 94.5805 35.2672 95.1561 36.3812C95.9295 37.8751 96.3387 39.4649 96.4679 41.1448C96.6892 44.019 96.3309 46.813 95.3911 49.5345C95.0171 50.6172 94.6608 51.7058 94.4121 52.8257C94.1067 54.1923 94.3357 55.4806 95.023 56.6906C95.1032 56.8336 95.2246 56.9569 95.3402 57.0744C95.3891 57.1233 95.4753 57.137 95.6045 57.1919C95.5614 57.0411 95.5418 56.953 95.5105 56.8688C95.4283 56.6573 95.3323 56.4518 95.2579 56.2364C94.8448 55.044 94.7312 53.8438 95.1444 52.6221C95.4635 51.6882 95.7376 50.7366 96.0568 49.7988Z" fill="black"/>
<path d="M15.8669 53.5324C15.6613 52.3674 15.2893 51.2436 14.8957 50.1295C13.8052 47.0497 13.443 43.8896 13.8483 40.6454C14.0362 39.1358 14.5081 37.7124 15.2775 36.3986C16.0842 35.0222 17.2257 34.0198 18.7626 33.5303C20.0392 33.125 21.3471 33.0956 22.6569 33.3325C23.8649 33.5518 24.9947 34.0119 26.0598 34.6091C26.8508 35.0516 27.6144 35.5411 28.3721 36.0384C29.5194 36.7902 30.6472 37.5734 31.7925 38.3311C33.4313 39.4158 35.2385 40.0541 37.1827 40.3262C38.4925 40.5103 39.8004 40.4887 41.1103 40.3654C41.958 40.2851 42.7882 40.1246 43.5537 39.733C44.4465 39.2768 45.3354 38.8167 46.2243 38.3566C46.2948 38.3194 46.3575 38.2645 46.424 38.2175C46.4103 38.1901 46.3966 38.1627 46.3829 38.1353C46.1343 38.241 45.8876 38.3507 45.635 38.4486C44.9595 38.7168 44.2899 39.0027 43.6027 39.2415C42.4318 39.6488 41.214 39.7878 39.9805 39.8504C38.89 39.9053 37.8112 39.827 36.7382 39.6351C34.9565 39.3159 33.3569 38.5739 31.8767 37.5499C30.8664 36.8509 29.8444 36.1656 28.8185 35.4882C27.4636 34.5915 26.0656 33.7711 24.5404 33.1857C23.1718 32.661 21.7621 32.4162 20.2976 32.5083C18.2457 32.6375 16.5561 33.4676 15.2736 35.0966C14.7372 35.778 14.3162 36.52 13.9755 37.3149C13.3607 38.7501 13.116 40.2577 13.0338 41.8084C12.8771 44.7668 13.2628 47.639 14.2438 50.4369C14.5746 51.3826 14.8546 52.3439 15.1483 53.3013C15.3735 54.0355 15.4068 54.7874 15.2403 55.5314C15.117 56.0874 14.9134 56.6259 14.743 57.1721C14.7058 57.2916 14.6588 57.4071 14.5884 57.6068C14.745 57.5343 14.8311 57.5187 14.8781 57.4678C14.9995 57.3385 15.1248 57.2035 15.211 57.0507C15.8395 55.9543 16.0881 54.7776 15.8669 53.5324Z" fill="black"/>
<path d="M41.5053 47.4327C40.6987 47.8967 39.8881 48.3549 39.099 48.8463C37.6482 49.7489 36.2424 50.7122 34.9913 51.8889C34.6213 52.2394 34.2414 52.58 33.8616 52.9188C33.4837 53.2536 33.1039 53.5864 32.728 53.9232C32.3051 54.2991 31.8293 54.5908 31.3065 54.8101C29.8459 55.4268 28.3325 55.6735 26.7563 55.466C26.0006 55.3661 25.2507 55.2134 24.493 55.1214C23.7353 55.0294 23.2027 54.6182 22.8483 53.9878C22.1983 52.8306 21.8185 51.5991 22.0221 50.2501C22.0241 50.2403 22.026 50.2286 22.028 50.2188C22.1552 49.3984 22.4352 48.6427 23.097 48.0866C23.8782 47.4288 24.7436 47.0803 25.8009 47.2428C27.3222 47.4777 28.8494 47.6618 30.3902 47.7166C31.0912 47.7401 31.7882 47.8693 32.4832 47.9809C33.241 48.1023 33.8753 48.4606 34.3687 49.0578C34.4059 49.1028 34.449 49.1459 34.4881 49.1909C34.8034 49.5511 35.1989 49.6902 35.6727 49.651C36.4539 49.5883 37.1568 49.2673 37.8146 48.8972C38.633 48.4371 39.3966 47.8771 40.1818 47.3563C40.2503 47.3113 40.3149 47.2526 40.3658 47.1879C40.3971 47.1468 40.403 47.0842 40.4402 46.9647C40.2914 47.0039 40.1876 47.0117 40.1034 47.0568C39.6375 47.2995 39.1734 47.5404 38.7172 47.8008C38.3335 48.0181 37.983 48.302 37.5836 48.4821C37.0432 48.7249 36.4754 48.9148 35.9076 49.0891C35.518 49.2085 35.193 49.0832 34.9541 48.7171C34.4764 47.9829 33.7911 47.509 32.9434 47.327C32.1876 47.1645 31.4162 47.0587 30.6467 46.9784C29.7226 46.8825 28.7906 46.8375 27.8626 46.7709C27.0774 46.7161 26.2923 46.6436 25.5052 46.6182C25.2018 46.6084 24.8865 46.6711 24.5948 46.7611C24.0446 46.9315 23.5395 47.2056 23.0833 47.5599C22.4685 48.0396 21.9986 48.6309 21.7284 49.371C21.3936 50.2873 21.2742 51.2173 21.4915 52.1826C21.7088 53.1439 21.9908 54.0759 22.5977 54.8747C23.003 55.4092 23.5238 55.7558 24.1973 55.8693C24.7142 55.9574 25.2253 56.0827 25.7402 56.1767C26.7407 56.3588 27.747 56.488 28.7652 56.3647C29.611 56.2629 30.4216 56.0162 31.2165 55.7186C32.029 55.4151 32.773 54.9941 33.4211 54.4126C34.2199 53.6941 35.0305 52.9873 35.8156 52.255C36.5694 51.5541 37.3584 50.9002 38.1984 50.3089C38.6859 49.9643 39.1754 49.6236 39.6512 49.2614C40.3345 48.7406 41.008 48.2061 41.6796 47.6715C41.8107 47.5678 41.9184 47.4346 42.0359 47.3152C42.0183 47.2898 42.0007 47.2643 41.9811 47.2369C41.8244 47.3015 41.6522 47.3485 41.5053 47.4327Z" fill="black"/>
<path d="M85.0442 46.2444C84.4725 46.17 83.8793 46.26 83.2958 46.2992C82.1778 46.3736 81.0579 46.4539 79.9419 46.5557C79.1705 46.6262 78.3971 46.7084 77.6355 46.8415C76.6859 47.006 75.8616 47.4328 75.3193 48.2591C75.0451 48.678 74.7005 48.7857 74.2502 48.6898C74.1112 48.6604 73.9761 48.6095 73.8371 48.5723C73.0402 48.3628 72.3491 47.9458 71.6599 47.5111C71.1861 47.2135 70.6849 46.961 70.1895 46.6986C70.0838 46.6418 69.9565 46.6262 69.8018 46.5792C69.8097 46.8239 69.9506 46.9061 70.072 46.9864C70.538 47.2997 71.0275 47.5777 71.4719 47.9184C72.214 48.4881 73.052 48.8543 73.9233 49.146C74.6868 49.4025 75.3702 49.3085 75.9086 48.6115C76.3237 48.0731 76.9012 47.7441 77.5689 47.6267C78.307 47.4974 79.053 47.3721 79.8009 47.331C81.3516 47.2468 82.8964 47.1098 84.4255 46.8396C85.9057 46.5792 87.5504 47.6384 87.9831 48.9541C88.3884 50.1915 88.31 51.3486 87.9008 52.4529C87.7266 52.9208 87.4955 53.3809 87.2156 53.8313C87.1647 53.9115 87.0981 53.982 87.0354 54.0525C86.7143 54.4167 86.3169 54.6321 85.8352 54.7025C85.3164 54.7789 84.7995 54.8748 84.2826 54.9629C82.6673 55.239 81.0775 55.2057 79.517 54.6438C78.7456 54.3658 78.027 54.0075 77.4142 53.4534C77.0872 53.1577 76.7583 52.8621 76.4235 52.5723C75.8596 52.0848 75.3075 51.5836 74.7436 51.0941C74.4989 50.8827 74.2522 50.6732 74.0035 50.4676C73.937 50.4128 73.8684 50.3599 73.8019 50.3051C73.6805 50.2072 73.5591 50.1054 73.4357 50.0094C72.1122 48.9874 70.6751 48.1279 69.2262 47.2958C68.958 47.1411 68.6721 47.0177 68.3902 46.8885C68.3393 46.865 68.2707 46.8768 68.21 46.8729C68.1983 46.8944 68.1866 46.9159 68.1748 46.9375C68.3667 47.1078 68.5507 47.2918 68.7544 47.4485C69.8371 48.2708 70.9198 49.097 72.0162 49.9017C72.817 50.4891 73.5924 51.1 74.3188 51.7774C75.1235 52.5253 75.9673 53.2302 76.7603 53.9879C78.0231 55.194 81.0168 56.2943 83.2292 55.9536C84.1827 55.8068 85.1323 55.6247 86.0839 55.4583C86.73 55.3467 87.2214 54.9923 87.6189 54.4872C87.9713 54.0408 88.2063 53.5317 88.3923 53.0011C88.7682 51.9282 88.962 50.8474 88.7212 49.7001C88.263 47.5307 86.4109 46.4206 85.0442 46.2444Z" fill="black"/>
<path d="M41.9812 44.7616C41.713 44.5658 41.4232 44.3935 41.1217 44.2545C40.6694 44.045 40.1956 43.908 39.7139 43.814C39.4144 43.7552 39.1109 43.7122 38.8074 43.6789C37.384 43.5203 36.0057 43.1816 34.7487 42.4865C33.4447 41.766 32.1466 41.0259 30.8975 40.2153C29.7227 39.4537 28.4755 38.8898 27.1363 38.5061C26.0085 38.185 24.9278 37.7484 23.9097 37.1571C23.5807 36.9652 23.244 36.7831 22.8974 36.6226C21.7305 36.0822 20.5225 36.0704 19.3458 36.5227C17.8362 37.1023 17.147 38.3181 17.0061 39.8747C16.9845 40.1155 16.9806 40.3524 16.9923 40.5854C16.9943 40.6382 17.0002 40.6911 17.0041 40.744C17.0824 41.721 17.4329 42.6373 17.9282 43.4968C18.543 44.5658 19.4456 45.2374 20.5773 45.5526C20.8103 45.6172 21.0531 45.6681 21.3076 45.7034C21.9106 45.7876 22.496 45.6427 23.0873 45.5878C23.1794 45.58 23.2655 45.5037 23.3849 45.443C23.2224 45.2628 23.054 45.2667 22.8896 45.2589C22.4608 45.2374 22.0301 45.2374 21.6032 45.1923C20.266 45.0514 19.2126 44.4268 18.592 43.2227C17.9909 42.0577 17.6933 40.8027 17.8734 39.4831C18.0046 38.5198 18.4882 37.7366 19.3693 37.2961C20.3345 36.8125 21.3624 36.7283 22.3825 37.1512C22.7878 37.3196 23.1813 37.5291 23.5592 37.7542C24.6008 38.3749 25.709 38.8331 26.8681 39.1816C27.9449 39.5046 28.9826 39.9197 29.9302 40.5443C30.7369 41.0768 31.5553 41.5917 32.3874 42.0812C33.4036 42.6803 34.4276 43.2716 35.5495 43.6632C36.7966 44.0998 38.085 44.323 39.3928 44.4679C40.1192 44.5482 40.8182 44.7538 41.4839 45.0612C41.7247 45.1708 41.9009 45.3294 41.9616 45.6016C41.9851 45.7092 42.0478 45.8071 42.0928 45.9089C42.1261 45.905 42.1613 45.9031 42.1946 45.8992C42.2318 45.8287 42.2866 45.7621 42.3023 45.6877C42.3787 45.3177 42.2886 44.9848 41.9812 44.7616Z" fill="black"/>
<path d="M68.6991 44.6897C68.9517 44.582 69.2042 44.4762 69.4627 44.3862C70.1656 44.1395 70.9017 44.0533 71.636 43.9672C73.2375 43.7773 74.7667 43.3485 76.2018 42.5986C77.5469 41.8957 78.8489 41.1223 80.1059 40.2746C81.0046 39.6676 81.9816 39.2349 83.0036 38.8962C83.4441 38.7493 83.8905 38.6182 84.3311 38.4694C85.3335 38.1326 86.2479 37.6157 87.1524 37.0832C88.0217 36.5702 88.94 36.4038 89.9385 36.5839C91.2562 36.8228 92.2469 37.8839 92.3742 39.2232C92.4799 40.3353 92.2547 41.3886 91.8397 42.4048C91.219 43.9261 90.0403 44.6975 88.4211 44.8247C88.0296 44.8561 87.6341 44.86 87.2405 44.8874C87.1211 44.8952 87.0036 44.9422 86.8822 44.9716C86.9292 45.1889 87.0741 45.1928 87.1994 45.2085C87.4911 45.2437 87.7848 45.2946 88.0765 45.3181C88.1999 45.3279 88.3213 45.3358 88.4446 45.3318C90.2303 45.2868 91.5616 44.4586 92.4172 42.8982C92.6444 42.4831 92.7814 42.0191 92.9478 41.5727C93.2689 40.7112 93.3218 39.8203 93.1436 38.9275C92.9811 38.1091 92.6346 37.4043 92.0707 36.8678C91.8867 36.6916 91.6772 36.5349 91.4442 36.3979C91.3698 36.3548 91.2934 36.3117 91.2151 36.2726C90.5964 35.9652 89.9464 35.8262 89.2826 35.8242C89.1945 35.8242 89.1084 35.8242 89.0203 35.8281C88.754 35.8418 88.4838 35.8751 88.2136 35.9319C87.6341 36.0513 87.1054 36.3019 86.6022 36.6035C85.4373 37.2985 84.194 37.8017 82.892 38.1776C81.7192 38.5144 80.613 39.0039 79.5753 39.6676C78.3105 40.4762 77.0065 41.23 75.7045 41.976C74.4456 42.6985 73.0731 43.0842 71.6379 43.2584C70.8078 43.3583 69.9776 43.4738 69.2081 43.8223C68.9517 43.9378 68.6991 44.0729 68.4602 44.2256C68.3878 44.2726 68.3173 44.3196 68.2488 44.3686C67.9257 44.5996 67.8161 45.0245 67.9433 45.3593C67.9668 45.4239 68.0393 45.4689 68.1293 45.5668C68.194 45.4043 68.2488 45.3005 68.2742 45.1909C68.329 44.9422 68.4798 44.7836 68.6991 44.6897Z" fill="black"/>
<path d="M21.1335 50.7071C21.1002 50.6327 21.0493 50.5622 20.9964 50.4995C20.7537 50.2059 20.5089 49.9122 20.2603 49.6224C20.0919 49.4266 19.9157 49.2347 19.6983 48.992C19.8628 48.9998 19.9529 49.0096 20.0429 49.0076C20.2564 48.9998 20.4874 49.035 20.6753 48.9626C21.1178 48.7942 21.5584 48.6004 21.9656 48.3615C22.2025 48.2205 22.4003 47.9895 22.5686 47.7624C22.7547 47.5118 22.643 47.2553 22.3357 47.2005C22.0811 47.1554 21.8149 47.1574 21.5544 47.1554C21.3293 47.1535 21.1022 47.1809 20.877 47.1868C20.8222 47.1887 20.7674 47.1574 20.7106 47.1417C21.0336 47.036 21.3508 47.0008 21.668 46.9675C22.5354 46.8735 23.2774 46.5465 23.8139 45.8299C23.9744 45.6165 23.9999 45.4599 23.8883 45.3874C23.714 45.2739 23.6005 45.4246 23.481 45.5108C22.8623 45.9533 22.2201 46.3292 21.4311 46.3625C21.3371 46.3664 21.2412 46.3821 21.1492 46.4075C20.8046 46.5015 20.4521 46.5759 20.1213 46.7051C19.7649 46.8422 19.7336 47.1163 20.0332 47.3591C20.178 47.4746 20.3542 47.5823 20.5324 47.6175C20.785 47.6665 21.0513 47.6567 21.3117 47.6508C21.529 47.6449 21.7483 47.5881 22.0263 47.6371C21.9225 47.733 21.8716 47.7996 21.8051 47.8387C21.1531 48.2205 20.4991 48.5925 19.6964 48.4927C19.6259 48.4849 19.5476 48.4692 19.483 48.4907C19.3655 48.5318 19.2265 48.571 19.154 48.6572C19.0562 48.7746 19.1501 48.9039 19.2343 49.0096C19.5026 49.3444 19.7747 49.6792 20.0429 50.014C20.135 50.1275 20.2211 50.247 20.3092 50.3625C20.2896 50.3821 20.2701 50.3997 20.2505 50.4193C20.0116 50.2666 19.7747 50.1138 19.5339 49.965C19.4027 49.8848 19.2715 49.7908 19.1266 49.7477C19.0444 49.7223 18.8976 49.7555 18.8467 49.8182C18.7957 49.8808 18.7977 50.0277 18.8369 50.106C18.8917 50.2196 18.9974 50.3116 19.0894 50.4036C19.8863 51.1966 20.3347 52.1696 20.552 53.2602C20.5951 53.4736 20.597 53.687 20.5442 53.9024C20.4658 53.7986 20.4169 53.6909 20.368 53.5852C20.0606 52.9039 19.667 52.2793 19.1031 51.78C18.8819 51.5842 18.6293 51.4198 18.3768 51.2651C18.3063 51.222 18.1633 51.2299 18.087 51.2729C17.9773 51.3317 18.0008 51.455 18.0557 51.5588C18.0889 51.6214 18.1203 51.686 18.1516 51.7507C18.3063 52.0737 18.4649 52.3948 18.6156 52.7198C18.9583 53.4638 19.1775 54.2411 19.248 55.0576C19.2637 55.2377 19.25 55.4198 19.25 55.6782C19.1227 55.5412 19.0562 55.4746 18.9955 55.4041C18.4629 54.7698 18.1418 54.0297 17.9323 53.2367C17.8227 52.8216 17.7365 52.4007 17.6406 51.9817C17.6132 51.8681 17.5544 51.7781 17.4252 51.782C17.2744 51.7859 17.2177 51.8897 17.2157 52.0208C17.2138 52.199 17.2138 52.3811 17.2392 52.5554C17.3782 53.4795 17.4017 54.4095 17.4095 55.3395C17.4115 55.6254 17.3782 55.9112 17.3528 56.1951C17.3469 56.2695 17.3116 56.342 17.2666 56.4908C17.0924 56.2421 16.9592 56.0483 16.8241 55.8564C16.7243 55.7135 16.6577 55.5079 16.4404 55.5275C16.2152 55.549 16.1976 55.7683 16.1486 55.9327C15.9861 56.4712 15.8119 57.0018 15.5084 57.4815C15.4771 57.5324 15.479 57.6048 15.4634 57.6675C15.4869 57.6792 15.5104 57.691 15.5358 57.7047C16.0586 57.3738 16.2309 56.7962 16.4697 56.2166C16.5402 56.3204 16.5813 56.387 16.6303 56.4496C16.7615 56.62 16.879 56.8021 17.0317 56.9509C17.2862 57.2015 17.576 57.1329 17.7071 56.8001C17.7502 56.6905 17.7776 56.571 17.7874 56.4536C17.8148 56.0737 17.8325 55.6919 17.8501 55.3101C17.856 55.1966 17.8501 55.0811 17.8501 54.9675C17.8697 54.9616 17.8873 54.9577 17.9069 54.9518C17.9617 55.038 18.0087 55.1281 18.0713 55.2083C18.3454 55.5529 18.6 55.9171 18.9093 56.2264C19.2617 56.5789 19.6396 56.4399 19.7316 55.9425C19.7708 55.735 19.7747 55.5138 19.7571 55.3023C19.6925 54.4878 19.5006 53.7027 19.1756 52.9509C19.1247 52.8353 19.0816 52.7159 19.0346 52.6004C19.158 52.6728 19.2382 52.7707 19.3048 52.8784C19.6435 53.4149 19.9235 53.9807 20.1369 54.5798C20.1839 54.7149 20.227 54.8539 20.2994 54.9773C20.4482 55.2338 20.7145 55.222 20.8594 54.9616C20.8946 54.899 20.922 54.8304 20.9357 54.7619C20.9867 54.5054 21.0532 54.2489 21.0728 53.9885C21.1433 53.0253 20.8339 52.1559 20.3836 51.3238C20.3327 51.2279 20.2838 51.13 20.2231 51.0125C20.4639 51.0576 20.6597 51.1182 20.8594 51.1261C21.1178 51.128 21.2353 50.9362 21.1335 50.7071Z" fill="black"/>
<path d="M94.0853 55.559C94.0344 55.3946 94.0285 55.1773 93.8072 55.1381C93.5625 55.095 93.5018 55.3221 93.3941 55.469C93.259 55.6569 93.1259 55.8469 92.9458 56.1014C92.9066 55.935 92.8733 55.8586 92.8733 55.7823C92.8596 55.1636 92.8263 54.5429 92.8459 53.9242C92.8675 53.3172 92.9477 52.7123 92.9967 52.1073C93.0104 51.9408 93.03 51.7705 93.0045 51.608C92.9908 51.5238 92.8949 51.4005 92.8244 51.3907C92.7558 51.3809 92.6462 51.4827 92.6012 51.561C92.5503 51.6491 92.5522 51.7685 92.5268 51.8723C92.4269 52.2776 92.3427 52.6868 92.2233 53.0862C92.0216 53.7656 91.724 54.4019 91.2698 54.956C91.1974 55.0441 91.1171 55.1264 91.0388 55.2125C91.0016 55.1714 90.9781 55.1557 90.9742 55.1361C90.9663 55.0774 90.9604 55.0167 90.9624 54.958C90.9879 54.3471 91.0662 53.7402 91.2894 53.1704C91.54 52.5262 91.8395 51.9017 92.1176 51.2693C92.1743 51.142 92.2899 51.0108 92.1528 50.8796C92.006 50.7406 91.8572 50.8366 91.7319 50.9247C91.5087 51.0813 91.2815 51.2379 91.0779 51.422C90.5121 51.9369 90.1283 52.5811 89.817 53.2722C89.7818 53.3505 89.7348 53.423 89.6937 53.4993C89.6447 53.376 89.6428 53.2703 89.6467 53.1645C89.6506 53.0686 89.6545 52.9726 89.6721 52.8787C89.8816 51.8136 90.3065 50.8561 91.076 50.0691C91.168 49.9751 91.26 49.8811 91.3462 49.7813C91.4382 49.6755 91.495 49.5541 91.401 49.4249C91.2952 49.28 91.1445 49.3016 91.0153 49.374C90.8077 49.4895 90.6119 49.6266 90.4083 49.7538C90.2713 49.838 90.1342 49.9203 89.9952 50.0025C89.9756 49.979 89.958 49.9575 89.9384 49.934C90.1851 49.6207 90.4298 49.3074 90.6765 48.9961C90.7803 48.865 90.89 48.7396 90.9957 48.6085C91.0818 48.5027 91.1719 48.3716 91.074 48.256C91.0016 48.1699 90.8606 48.1307 90.7412 48.0975C90.6648 48.0759 90.5747 48.0994 90.4925 48.1053C89.6545 48.1719 88.9712 47.794 88.3114 47.3495C88.2859 47.3319 88.2722 47.2947 88.2037 47.1929C88.3995 47.2086 88.5268 47.2223 88.654 47.2301C88.9164 47.2458 89.1787 47.2673 89.4391 47.2673C89.7093 47.2673 89.9521 47.1694 90.1636 46.9991C90.5082 46.7171 90.4788 46.4332 90.0579 46.2864C89.678 46.1533 89.2806 46.024 88.8831 45.9888C88.0764 45.9183 87.397 45.5874 86.7607 45.1234C86.6315 45.0294 86.4866 44.8532 86.328 45.0177C86.1792 45.1723 86.3378 45.327 86.4338 45.4582C86.9213 46.1043 87.5928 46.4274 88.376 46.5487C88.7695 46.6094 89.1748 46.5938 89.5566 46.7504C89.3432 46.7817 89.1298 46.7837 88.9183 46.7798C88.656 46.7759 88.3936 46.7563 88.1313 46.7661C87.9296 46.7739 87.7064 46.7876 87.6105 47.0069C87.5047 47.2477 87.6594 47.4279 87.8121 47.5747C88.5052 48.2443 89.2982 48.6848 90.3026 48.6104C90.3555 48.6065 90.4064 48.6143 90.5062 48.6183C90.3887 48.7534 90.3026 48.8493 90.2204 48.9472C89.866 49.3662 89.5116 49.7852 89.1611 50.2081C89.0652 50.3236 88.9986 50.4802 89.1122 50.5977C89.1885 50.676 89.3413 50.7113 89.4587 50.7093C89.631 50.7054 89.8014 50.6506 90.0206 50.6095C89.9384 50.7524 89.8777 50.8522 89.8229 50.956C89.3804 51.7901 89.0691 52.6633 89.1572 53.6246C89.1866 53.9399 89.2629 54.2629 89.3765 54.5586C89.4842 54.8385 89.774 54.8366 89.9267 54.5801C89.9932 54.4685 90.0226 54.3373 90.0794 54.2179C90.3437 53.6579 90.608 53.098 90.8821 52.5419C90.937 52.4283 91.029 52.3324 91.1053 52.2286C91.1092 52.399 91.0623 52.5302 91.0074 52.6613C90.702 53.3819 90.5258 54.1356 90.469 54.9149C90.4514 55.1616 90.4651 55.42 90.5219 55.6589C90.61 56.0211 90.9428 56.1171 91.2483 55.8958C91.3246 55.841 91.401 55.7764 91.4597 55.7039C91.7103 55.3868 91.9531 55.0617 92.1998 54.7426C92.2448 54.6839 92.2918 54.629 92.3486 54.5546C92.378 55.0676 92.4015 55.5434 92.4348 56.0192C92.4445 56.1484 92.4719 56.2815 92.5189 56.401C92.6521 56.7416 92.9281 56.8082 93.1905 56.5615C93.3197 56.4401 93.4235 56.2913 93.5331 56.1503C93.6036 56.0603 93.6624 55.9604 93.7505 55.8273C93.8503 56.0642 93.9286 56.258 94.0148 56.4499C94.1421 56.7358 94.2967 57.004 94.5473 57.2017C94.6002 57.2448 94.6785 57.2566 94.798 57.3016C94.7549 57.1841 94.7431 57.1234 94.7138 57.0764C94.4162 56.6065 94.2458 56.0857 94.0853 55.559Z" fill="black"/>
<path d="M68.0395 41.9516C67.9592 41.9281 67.877 41.8792 67.8007 41.889C67.6479 41.9105 67.4991 41.9555 67.3523 42.0045C66.3205 42.353 65.3376 42.8072 64.386 43.3378C63.5833 43.7862 62.7747 44.2267 61.8643 44.4225C61.2142 44.5635 60.5622 44.6751 59.9024 44.7358C59.6949 44.7553 59.4873 44.769 59.2798 44.7749C58.7081 44.7945 58.1344 44.8141 57.5647 44.8787C56.5446 44.9922 55.5324 45.1606 54.5123 45.2683C52.6483 45.4641 50.8177 45.2605 49.0321 44.6946C48.0551 44.3853 47.0937 44.025 46.1148 43.7196C46.0051 43.6844 45.8935 43.6511 45.7839 43.6158C44.6424 43.2575 43.501 42.8953 42.3145 42.7093C41.919 42.6467 41.5235 42.5899 41.1299 42.5312C41.1241 42.5586 41.1162 42.584 41.1104 42.6114C41.2533 42.6584 41.3943 42.7093 41.5372 42.7524C42.2675 42.9717 43.0154 43.1479 43.7281 43.4142C45.1593 43.9448 46.5808 44.5028 47.9905 45.0862C49.7232 45.8028 51.5206 46.2022 53.3924 46.1591C54.3674 46.1356 55.3385 45.979 56.3096 45.8596C57.1613 45.7558 58.0072 45.6109 58.8589 45.4993C59.3914 45.4288 59.9298 45.4054 60.4585 45.3231C61.7057 45.1293 62.8961 44.7671 63.9827 44.0975C65.2045 43.3437 66.5084 42.7504 67.8183 42.1729C67.8985 42.1376 67.969 42.0808 68.0434 42.0339C68.0434 42.0064 68.0415 41.979 68.0395 41.9516Z" fill="black"/>
<path d="M62.4791 33.6991C61.8212 34.7153 61.1046 35.6805 60.1824 36.4774C60.0473 36.5949 59.926 36.7261 59.8006 36.8553C59.7419 36.914 59.6871 36.9786 59.6421 37.0491C59.5637 37.1685 59.5559 37.2997 59.6401 37.4192C59.7262 37.5406 59.8555 37.5738 59.9906 37.5327C60.1139 37.4955 60.2333 37.4348 60.3508 37.3761C60.9793 37.0589 61.6019 36.73 62.2363 36.4226C63.4717 35.8235 64.7248 35.2615 65.9485 34.6389C69.9054 32.6242 73.8193 30.5253 77.6666 28.307C79.0959 27.4827 80.4977 26.6213 81.8154 25.6266C82.158 25.3682 82.4909 25.0921 82.7944 24.7926C82.9686 24.6222 83.1135 24.399 83.2055 24.1739C83.3661 23.7862 83.1566 23.4964 82.7395 23.516C82.4674 23.5278 82.1894 23.5708 81.9309 23.655C81.1732 23.9056 80.4155 24.166 79.6715 24.4578C76.4664 25.7148 73.4845 27.3927 70.6103 29.2703C68.6112 30.5763 66.624 31.8978 64.7287 33.3545C64.6817 33.3917 64.6347 33.427 64.5838 33.4583C64.5447 33.4818 64.5016 33.4955 64.4605 33.5131C65.1066 32.8102 65.6626 32.0427 66.3929 31.4377C66.9353 30.9874 67.4267 30.4784 67.9749 30.0359C70.714 27.8215 73.4512 25.6051 76.2138 23.422C78.7983 21.378 81.1517 19.099 83.2878 16.5928C83.7929 16.0015 84.2393 15.3652 84.5956 14.6721C84.6877 14.4939 84.7679 14.3001 84.811 14.1063C84.8874 13.7597 84.6681 13.5032 84.3157 13.5424C84.1081 13.5659 83.8888 13.6266 83.7067 13.7304C83.3015 13.9575 82.9001 14.1983 82.5261 14.4724C79.3484 16.8004 76.4096 19.3985 73.741 22.2982C72.9089 23.2027 72.0846 24.1151 71.2564 25.0256C71.1644 25.1274 71.0665 25.2253 70.9725 25.3251C70.9568 25.2409 70.9764 25.1881 71.0058 25.1411C71.4913 24.3325 71.9769 23.5238 72.4644 22.7172C72.5016 22.6565 72.5408 22.5919 72.5936 22.5468C72.9167 22.263 73.1203 21.8988 73.2926 21.517C73.5413 20.9668 73.8937 20.4891 74.3088 20.0544C75.8418 18.445 77.4453 16.91 79.1624 15.4984C81.1654 13.8518 83.3054 12.3872 85.3749 10.8326C86.532 9.96334 87.6891 9.09989 88.6798 8.03871C88.9716 7.72544 89.2379 7.38672 89.5002 7.04604C89.6549 6.84438 89.7449 6.60943 89.7371 6.34707C89.7273 6.01031 89.5374 5.80864 89.1987 5.81256C89.046 5.81452 88.8854 5.83997 88.7445 5.89675C88.3803 6.04555 88.0161 6.19827 87.6696 6.38035C85.3925 7.57468 83.3367 9.07836 81.4747 10.8503C79.3856 12.8376 77.4551 14.9658 75.7224 17.2703C75.6617 17.3525 75.5912 17.4269 75.5246 17.5052C75.4913 17.4445 75.4913 17.4191 75.5031 17.3995C75.6539 17.1293 75.8046 16.8572 75.9613 16.5889C77.1614 14.5116 78.2892 12.397 79.2975 10.2159C80.3665 7.89969 81.0694 5.48167 81.5628 2.9912C81.7018 2.28635 81.7821 1.57563 81.7312 0.85512C81.7195 0.678907 81.6842 0.496821 81.6137 0.336272C81.4786 0.0288799 81.1693 -0.0807632 80.8678 0.0699961C80.7229 0.142439 80.58 0.250124 80.4781 0.375431C80.3156 0.579054 80.1492 0.794424 80.0513 1.03329C79.7655 1.72639 79.4796 2.42537 79.2525 3.14001C78.8139 4.51642 78.4498 5.91633 77.9936 7.28491C77.3102 9.33484 76.5702 11.3652 75.8575 13.4034C75.2505 15.1381 74.7865 16.9198 74.0679 18.6154C73.8447 19.1401 73.5354 19.6041 73.2104 20.1543C73.2104 20.0407 73.2045 20.0172 73.2123 19.9976C73.2691 19.841 73.3259 19.6844 73.3866 19.5277C74.7336 16.0877 75.323 12.5204 75.1115 8.83166C75.0743 8.19338 74.9294 7.55902 74.808 6.92661C74.7708 6.73278 74.6769 6.53894 74.5711 6.37056C74.3636 6.04555 74.0151 5.97898 73.7038 6.21001C73.5648 6.31378 73.4414 6.45671 73.3513 6.60551C73.2476 6.77585 73.1556 6.96773 73.1105 7.16156C72.9206 7.96235 72.6954 8.75922 72.5858 9.57175C72.4311 10.7289 72.3469 11.8978 72.2686 13.0647C72.1433 14.9462 72.0239 16.8278 71.9456 18.7133C71.8966 19.9115 71.7909 21.0941 71.4424 22.2473C71.3053 22.7035 71.2094 23.1734 71.0626 23.6276C70.9568 23.9546 70.8374 24.2855 70.6612 24.5792C69.7586 26.0868 68.7718 27.5376 67.6695 28.9062C67.597 28.9962 67.5168 29.0784 67.4404 29.1666C67.4247 29.1509 67.411 29.1352 67.3954 29.1196C67.507 28.9375 67.6186 28.7534 67.7341 28.5713C68.6367 27.1323 69.4414 25.6443 70.0738 24.0642C70.53 22.9189 70.9372 21.7617 71.0841 20.5282C71.0998 20.399 71.1115 20.2659 71.1037 20.1367C71.0919 19.9526 71.0391 19.7744 70.8413 19.7059C70.6475 19.6393 70.4869 19.7216 70.3655 19.8684C70.2383 20.0251 70.1149 20.1876 70.0092 20.3599C68.6328 22.5978 67.3112 24.867 66.1384 27.2184C65.0244 29.4367 63.83 31.612 62.4791 33.6991ZM76.7385 16.6202C78.7317 14.2042 80.858 11.9154 83.2603 9.89677C84.7738 8.62412 86.4282 7.56097 88.1767 6.64467C88.3979 6.52915 88.6289 6.43126 88.8639 6.34315C88.9794 6.30008 89.1086 6.30204 89.2418 6.28246C89.2829 6.50957 89.1811 6.64859 89.0812 6.77389C88.8737 7.0343 88.6603 7.29274 88.4312 7.53552C87.4405 8.57909 86.2971 9.43861 85.1439 10.2903C82.8688 11.9682 80.5173 13.5463 78.3538 15.3731C77.8702 15.7803 77.4062 16.2091 76.9304 16.6281C76.8266 16.7201 76.719 16.8102 76.6132 16.9022C76.5995 16.8846 76.5858 16.8669 76.5702 16.8493C76.6269 16.773 76.6798 16.6946 76.7385 16.6202ZM75.9867 14.9247C76.6485 13.0333 77.3005 11.1381 77.9759 9.25065C78.6299 7.41805 79.2075 5.5639 79.7028 3.68039C79.8908 2.96771 80.1492 2.27069 80.3979 1.57563C80.4899 1.3211 80.6367 1.08224 80.7797 0.849246C80.8482 0.735687 80.9676 0.653454 81.1223 0.498779C81.1536 0.720024 81.1869 0.857078 81.1908 0.994132C81.2124 1.65395 81.1164 2.30398 80.9735 2.94421C80.4938 5.08813 79.9671 7.22226 79.0469 9.22912C78.5065 10.4097 77.8937 11.559 77.3083 12.7201C76.905 13.5189 76.4977 14.3158 76.0885 15.1107C76.0298 15.2242 75.9573 15.33 75.8908 15.4416C75.8712 15.4337 75.8516 15.4259 75.8301 15.4181C75.8829 15.2536 75.9299 15.0892 75.9867 14.9247ZM72.5388 18.1415C72.6054 17.0451 72.672 15.9487 72.7424 14.8542C72.8286 13.5209 72.9245 12.1875 73.0087 10.8522C73.0714 9.84978 73.2202 8.85907 73.4473 7.88011C73.5197 7.56685 73.6274 7.26141 73.739 6.95989C73.7958 6.80913 73.8702 6.64859 74.1208 6.61139C74.1835 6.76802 74.2774 6.92269 74.3068 7.08912C74.4125 7.71173 74.5555 8.33435 74.5809 8.96284C74.7278 12.5262 74.1521 15.978 72.8952 19.3163C72.7933 19.5845 72.6935 19.8528 72.5897 20.119C72.5467 20.2267 72.4938 20.3285 72.4018 20.4166C72.4468 19.6589 72.4918 18.8993 72.5388 18.1415ZM69.0674 28.1798C69.4042 27.7764 69.7312 27.3653 70.0856 26.9796C71.6401 25.2821 73.1888 23.5767 74.7669 21.9007C77.2437 19.2713 79.9593 16.9081 82.8785 14.7778C83.1957 14.5468 83.5364 14.3471 83.8751 14.1474C83.9906 14.0789 84.1297 14.0515 84.2589 14.0064C84.2765 14.026 84.2922 14.0456 84.3098 14.0671C84.2471 14.2022 84.1943 14.3432 84.1218 14.4744C83.7557 15.1361 83.3112 15.7411 82.812 16.305C80.6132 18.7837 78.2246 21.0569 75.6088 23.097C73.7273 24.5635 71.8888 26.0868 70.0327 27.5846C69.6901 27.8606 69.3474 28.1347 68.9598 28.3756C68.995 28.309 69.0204 28.2365 69.0674 28.1798ZM70.4419 30.0535C73.2476 28.1445 76.161 26.4157 79.2956 25.0921C80.1845 24.7162 81.1008 24.4108 82.0112 24.0858C82.2168 24.0133 82.4459 24.0016 82.6632 23.9605C82.6788 23.984 82.6945 24.0094 82.7102 24.0329C82.624 24.1523 82.5535 24.2913 82.4459 24.3873C82.1424 24.6555 81.833 24.9198 81.5061 25.1587C80.0122 26.2551 78.4165 27.1891 76.809 28.1054C73.1614 30.1886 69.4375 32.1289 65.7077 34.0594C64.8716 34.4921 64.0102 34.8797 63.1604 35.285C63.0997 35.3144 63.0351 35.3301 62.9705 35.3536C62.9646 35.3399 62.9588 35.3261 62.9529 35.3144C63.0057 35.2694 63.0527 35.2224 63.1095 35.1832C65.553 33.47 67.9769 31.7314 70.4419 30.0535ZM70.2657 20.9355C70.3244 20.8395 70.391 20.7475 70.4536 20.6535C70.4791 20.6633 70.5026 20.6731 70.528 20.6849C70.485 20.9022 70.4536 21.1215 70.3988 21.3369C70.0288 22.8268 69.4355 24.2326 68.76 25.6051C68.0415 27.0638 67.1859 28.4421 66.2852 29.7931C65.7214 30.6369 65.1438 31.4691 64.5662 32.3031C64.2823 32.7123 63.9495 33.0804 63.5461 33.3898C63.5755 33.331 63.6029 33.2684 63.6382 33.2136C64.8951 31.1812 65.972 29.053 67.0116 26.9032C67.9984 24.8631 69.0948 22.8777 70.2657 20.9355Z" fill="black"/>
<path d="M19.8806 7.58807C20.0039 7.76232 20.1331 7.93462 20.2741 8.09713C21.0494 8.99581 21.9285 9.78681 22.8742 10.4995C24.419 11.6625 25.9814 12.804 27.5282 13.963C28.4445 14.6503 29.3686 15.3316 30.2556 16.056C31.9589 17.4481 33.5409 18.9714 35.0564 20.5651C35.4616 20.9919 35.8082 21.4579 36.0549 21.9983C36.2331 22.3899 36.4406 22.7658 36.7715 23.0595C36.8322 23.1124 36.8733 23.1907 36.9164 23.2612C37.3804 24.0267 37.8425 24.7942 38.3026 25.5617C38.3378 25.6205 38.3574 25.6909 38.3848 25.7556C38.236 25.6812 38.1401 25.5754 38.0461 25.4697C37.4274 24.7903 36.8048 24.1129 36.19 23.4295C33.4548 20.3772 30.4259 17.6478 27.1405 15.2044C26.7196 14.8911 26.2829 14.5974 25.8307 14.3311C25.5996 14.1941 25.3275 14.1001 25.0632 14.0551C24.6951 13.9944 24.4582 14.2626 24.5522 14.6268C24.6207 14.8891 24.7244 15.1534 24.8713 15.3806C25.2394 15.9503 25.6016 16.5338 26.0363 17.0526C28.1077 19.5196 30.4063 21.7536 32.9281 23.7624C35.7201 25.9866 38.5042 28.2206 41.2806 30.4643C41.9756 31.0263 42.655 31.6136 43.2992 32.2343C43.8572 32.7727 44.3525 33.3738 44.8733 33.9494C44.8812 33.9572 44.8675 33.9866 44.8596 34.0258C44.7852 33.9749 44.7167 33.9318 44.6501 33.8848C43.0779 32.7786 41.5233 31.6469 39.9316 30.572C37.4763 28.9156 34.9585 27.3552 32.2683 26.0982C30.7959 25.411 29.3099 24.757 27.7612 24.2617C27.4107 24.1501 27.0446 24.0678 26.6804 24.0306C26.1733 23.9797 25.9619 24.3224 26.1831 24.7903C26.2242 24.8764 26.2692 24.9646 26.3319 25.0331C26.5414 25.2602 26.7411 25.5049 26.98 25.6968C27.4851 26.0982 28.0079 26.4761 28.5326 26.85C29.8581 27.7937 31.2835 28.5749 32.6892 29.3836C36.188 31.3963 39.7514 33.2896 43.3481 35.1183C45.263 36.0914 47.2052 37.0096 49.1357 37.9534C49.167 37.969 49.2003 37.9866 49.2317 38.0003C49.3942 38.0728 49.5567 38.0982 49.6918 37.9494C49.8053 37.8261 49.7936 37.6342 49.6409 37.4639C49.4744 37.2779 49.2982 37.0958 49.1103 36.9313C48.3056 36.2226 47.6516 35.3924 47.0642 34.4996C45.9287 32.7727 44.8773 30.993 43.9492 29.1467C42.5493 26.3605 41.0613 23.6253 39.4166 20.9763C39.2913 20.7746 39.1543 20.5769 39.0074 20.3889C38.8821 20.2303 38.7137 20.1324 38.5042 20.2107C38.3085 20.2851 38.2517 20.4653 38.2536 20.6493C38.2556 20.8862 38.281 21.1251 38.3182 21.36C38.5317 22.7169 39.029 23.9836 39.5654 25.2367C40.1685 26.6444 40.9262 27.9719 41.7426 29.2661C41.8072 29.3679 41.8621 29.4736 41.9228 29.5774C41.9012 29.5911 41.8797 29.6029 41.8562 29.6166C41.7524 29.4873 41.6389 29.364 41.5429 29.2308C40.8087 28.201 40.051 27.1848 39.352 26.1315C38.4279 24.7414 38.4396 24.7316 38.0187 23.1143C37.8346 22.4114 37.6291 21.7046 37.5429 20.9861C37.4254 20.0052 37.4078 19.0105 37.355 18.0218C37.2923 16.8784 37.2512 15.731 37.1729 14.5876C37.0808 13.266 36.9712 11.9464 36.8459 10.6267C36.748 9.57927 36.5522 8.54549 36.2037 7.54891C36.1215 7.31592 36.0059 7.08293 35.8513 6.89301C35.4695 6.42115 34.933 6.49164 34.6922 7.04964C34.5571 7.36487 34.467 7.70554 34.4063 8.04426C34.1538 9.4383 34.1401 10.846 34.2438 12.2557C34.4416 14.9635 34.98 17.5969 36.004 20.1207C36.051 20.2381 36.0882 20.3595 36.1293 20.4809C36.1097 20.4907 36.0901 20.5005 36.0706 20.5083C36.0079 20.4144 35.9413 20.3204 35.8806 20.2244C35.2717 19.2827 34.9232 18.2254 34.561 17.1779C33.9462 15.408 33.3843 13.6204 32.7813 11.8446C32.2017 10.1373 31.5791 8.44563 31.0133 6.73442C30.6687 5.69281 30.4024 4.62574 30.093 3.57239C29.8777 2.83817 29.6329 2.11178 29.259 1.44218C29.1102 1.1759 28.9242 0.911582 28.699 0.709917C28.2761 0.330082 27.8042 0.494546 27.6731 1.04668C27.6241 1.25226 27.6182 1.47155 27.6143 1.68692C27.5987 2.45638 27.7279 3.20821 27.8884 3.95614C28.2467 5.62624 28.6227 7.29634 29.2864 8.87638C29.911 10.3605 30.5688 11.8348 31.2952 13.2719C32.0392 14.7403 32.885 16.1579 33.6858 17.5969C33.7739 17.7555 33.8581 17.9161 33.9775 18.1393C33.8894 18.0825 33.864 18.0727 33.8503 18.0551C33.7896 17.9807 33.7309 17.9063 33.6741 17.8299C31.8924 15.455 29.9051 13.2641 27.7455 11.2298C25.8914 9.48333 23.8453 8.00706 21.584 6.83623C21.2257 6.65023 20.8458 6.50338 20.464 6.36633C20.2095 6.27627 19.9315 6.2606 19.7376 6.49947C19.5399 6.74225 19.6006 7.01636 19.7063 7.28068C19.7533 7.38444 19.812 7.49017 19.8806 7.58807ZM46.3966 35.8114C46.3868 35.829 46.377 35.8466 46.3672 35.8643C46.2419 35.8094 46.1147 35.7546 45.9893 35.6959C43.1347 34.3841 40.376 32.8843 37.6154 31.3924C35.1699 30.0708 32.746 28.7042 30.3378 27.316C29.4097 26.7815 28.5443 26.1354 27.6594 25.5265C27.395 25.3444 27.1562 25.1231 26.9193 24.9058C26.8116 24.806 26.7372 24.6689 26.6471 24.5495C26.6608 24.526 26.6726 24.5025 26.6863 24.4809C26.8096 24.4947 26.9369 24.4888 27.0544 24.524C27.6476 24.7042 28.2487 24.8627 28.8263 25.0879C31.7064 26.2098 34.4142 27.6665 37.0201 29.3229C39.7416 31.0517 42.377 32.9059 44.983 34.805C45.3589 35.0791 45.7466 35.3395 46.1264 35.6058C46.2165 35.6724 46.3065 35.7429 46.3966 35.8114ZM40.9379 26.7795C40.2644 25.5265 39.6966 24.2264 39.2522 22.8755C39.1073 22.4349 39.0035 21.9807 38.886 21.5304C38.8586 21.4207 38.8528 21.3052 38.8371 21.1936C38.8606 21.1838 38.8841 21.174 38.9095 21.1623C38.9761 21.268 39.0466 21.3718 39.1112 21.4795C40.5189 23.8094 41.7877 26.2137 42.9605 28.6689C43.7573 30.339 44.6501 31.9563 45.6076 33.5402C45.6683 33.6401 45.7211 33.7419 45.7446 33.877C45.6859 33.83 45.6213 33.7928 45.5723 33.738C45.3511 33.4893 45.1122 33.2504 44.9184 32.9803C43.4871 30.9793 42.1029 28.9489 40.9379 26.7795ZM40.4582 28.8706C40.4426 28.8902 40.4269 28.9117 40.4113 28.9313C40.3506 28.896 40.2859 28.8686 40.2331 28.8236C38.7529 27.6175 37.2806 26.4036 35.7945 25.2054C34.6707 24.2989 33.5116 23.4374 32.4014 22.5152C30.2869 20.7609 28.3192 18.848 26.5199 16.7687C26.0852 16.2655 25.721 15.6997 25.3373 15.1554C25.2159 14.9831 25.1376 14.7795 25.0416 14.5915C25.0632 14.5641 25.0847 14.5367 25.1043 14.5073C25.2433 14.5602 25.3921 14.5954 25.5194 14.6718C25.8463 14.8676 26.1753 15.0634 26.4827 15.2885C29.9051 17.7888 33.0299 20.618 35.8571 23.7761C36.9301 24.9763 38.0441 26.1413 39.1288 27.3297C39.585 27.8329 40.0158 28.3576 40.4582 28.8706ZM34.8155 12.3419C34.7118 10.9811 34.6981 9.62626 34.9036 8.27334C34.9408 8.02664 34.9957 7.77994 35.0622 7.53912C35.1014 7.39619 35.1797 7.2611 35.2463 7.10642C35.5067 7.18082 35.5791 7.35312 35.6398 7.51758C35.7455 7.80931 35.8415 8.10496 35.9139 8.40452C36.2311 9.72024 36.3466 11.0634 36.4308 12.4104C36.5561 14.3859 36.6618 16.3634 36.7813 18.3409C36.8322 19.175 36.8968 20.0071 36.9555 20.8392C36.9575 20.8706 36.9497 20.9019 36.9379 21.0057C36.8635 20.8412 36.8107 20.7374 36.7676 20.6317C35.6829 17.9709 35.0329 15.2102 34.8155 12.3419ZM33.2903 15.6664C33.026 15.1593 32.7656 14.6483 32.5032 14.1412C32.0392 13.2406 31.583 12.3341 31.1092 11.4393C30.0343 9.4011 29.2766 7.24543 28.748 5.0095C28.5385 4.11669 28.3662 3.21409 28.2017 2.31345C28.1488 2.02368 28.1684 1.7202 28.1665 1.4226C28.1665 1.31295 28.2056 1.20331 28.2311 1.07409C28.4621 1.15632 28.562 1.30904 28.6422 1.46371C28.8028 1.76915 28.977 2.07458 29.0808 2.40155C29.3765 3.31982 29.6623 4.24395 29.9129 5.17592C30.4337 7.1123 31.1092 8.99777 31.7808 10.8852C32.3192 12.4026 32.842 13.9258 33.3686 15.4452C33.4215 15.5999 33.4665 15.7584 33.4646 15.9444C33.4058 15.8505 33.3393 15.7624 33.2903 15.6664ZM20.5384 6.8656C20.8243 6.98307 21.1062 7.11425 21.3803 7.25718C23.9824 8.61793 26.2732 10.3957 28.3564 12.4554C29.817 13.9004 31.2012 15.4138 32.5091 16.9958C32.5855 17.0879 32.656 17.1838 32.7245 17.2797C32.7343 17.2915 32.7186 17.3209 32.7127 17.3659C32.6423 17.3111 32.5737 17.27 32.5169 17.2171C30.8351 15.6547 29.0221 14.2606 27.1483 12.9371C25.7641 11.9601 24.4092 10.9439 23.0524 9.92973C22.1517 9.25621 21.3177 8.50829 20.5756 7.66051C20.4112 7.47255 20.278 7.25914 20.141 7.0516C20.1057 6.99678 20.1038 6.92042 20.0666 6.7677C20.2702 6.81078 20.4131 6.81469 20.5384 6.8656Z" fill="black"/>
<path d="M54.1187 22.5641C53.9445 23.1045 53.6488 23.5861 53.2944 24.0208C53.0947 24.2655 52.8402 24.4789 52.5778 24.6571C51.9396 25.0898 51.2112 25.2503 50.4515 25.3365C49.498 25.4461 48.5994 25.7065 47.9219 26.4564C47.9063 26.474 47.8632 26.4662 47.8005 26.4721C47.8142 26.3663 47.8338 26.2645 47.8573 26.1627C47.9846 25.5812 48.2391 25.0761 48.6581 24.6434C48.8245 24.4711 48.9909 24.3007 49.1456 24.1187C49.2298 24.0208 49.312 23.9052 49.1887 23.7682C48.9733 23.7329 48.8304 23.8837 48.6796 23.9875C47.8475 24.5611 47.3091 25.3169 47.313 26.3644C47.313 26.6052 47.3933 26.8597 47.4912 27.0829C47.6047 27.3453 47.7477 27.3629 47.9689 27.1847C48.1823 27.0124 48.382 26.8245 48.5837 26.6385C48.8441 26.3977 49.1437 26.2254 49.4863 26.1451C49.8093 26.0687 50.1422 26.0276 50.4711 25.9708C50.9391 25.8886 51.4246 25.8592 51.8749 25.7143C52.9479 25.3678 53.7291 24.6571 54.2362 23.6488C54.2969 23.5274 54.3693 23.4099 54.4574 23.2513C54.6336 23.5469 54.7746 23.7936 54.9254 24.0345C55.1799 24.4417 55.4638 24.8235 55.8671 25.0996C56.5387 25.5597 57.2592 25.8847 58.0835 25.9317C58.2734 25.9434 58.4653 25.961 58.6532 25.9826C59.3561 26.0629 60.0101 26.2547 60.5132 26.7971C60.6346 26.9283 60.7756 27.0399 60.9146 27.1534C61.1789 27.3707 61.316 27.3472 61.4668 27.0359C61.6058 26.7501 61.6469 26.4447 61.6097 26.1294C61.4824 25.0506 60.8578 24.3281 59.9513 23.8073C59.8887 23.7701 59.8006 23.778 59.732 23.7662C59.6263 23.9346 59.7085 24.0423 59.7947 24.1421C59.9278 24.2949 60.0766 24.4339 60.2039 24.5905C60.3977 24.8313 60.6033 25.0682 60.7599 25.3306C60.9655 25.6771 61.0869 26.0609 61.0987 26.4701C61.0732 26.4721 61.0595 26.476 61.0517 26.476C61.0478 26.476 61.0438 26.4779 61.0419 26.476C60.9871 26.4309 60.9303 26.3859 60.8794 26.337C60.5054 25.9708 60.0727 25.6928 59.5656 25.5675C59.0801 25.4481 58.5867 25.3482 58.0913 25.2856C56.5916 25.0956 55.499 24.2537 54.9469 22.8989C54.8392 22.6346 54.7511 22.3546 54.6845 22.0511C54.6611 21.9473 54.6376 21.8396 54.5906 21.7457C54.5318 21.6282 54.4046 21.6223 54.338 21.7378C54.291 21.8181 54.2734 21.914 54.2499 22.0061C54.2342 22.0726 54.2186 22.1412 54.2049 22.2097C54.1794 22.3311 54.1559 22.4486 54.1187 22.5641Z" fill="black"/>
<path d="M42.5297 21.4365C43.3051 22.3665 44.2723 22.9872 45.447 23.273C47.1994 23.6979 48.9262 23.5883 50.6296 23.0068C51.3834 22.7503 52.0804 22.3939 52.6894 21.879C52.8617 21.7341 53.0124 21.5618 53.1553 21.3876C53.1984 21.3367 53.2141 21.1976 53.1808 21.1663C53.124 21.1135 53.0046 21.0782 52.9361 21.1037C52.7696 21.1644 52.6189 21.2662 52.4622 21.3504C52.241 21.4678 52.0256 21.599 51.8063 21.7224C51.5988 21.8379 51.3873 21.9475 51.1681 22.0298C49.6898 22.5819 48.1607 22.762 46.5905 22.5466C45.5273 22.3998 44.5464 22.0552 43.7378 21.3269C42.9683 20.6318 42.332 19.8271 41.8973 18.8834C41.7309 18.5231 41.586 18.1531 41.4588 17.7811C41.2414 17.1526 41.0711 16.5084 40.9164 15.8604L40.9243 15.8702V15.8682L40.9223 15.8662C40.8694 15.7272 40.8166 15.5902 40.7637 15.4512C40.6776 15.6019 40.6423 15.7507 40.6364 15.8995C40.609 16.5848 40.7226 17.2544 40.8577 17.9221C41.12 19.2319 41.6722 20.4066 42.5297 21.4365Z" fill="black"/>
<path d="M67.9729 16.7773C67.9103 16.9907 67.8476 17.2061 67.7889 17.4195C67.6381 17.9618 67.4462 18.4807 67.2074 18.9741C66.943 19.5223 66.62 20.0353 66.2382 20.5169C66.0639 20.7343 65.8819 20.9457 65.6822 21.1493C65.0752 21.7661 64.3723 22.236 63.5324 22.4474C61.4961 22.9643 59.5402 22.8664 57.686 22.0363C57.3356 21.8796 56.9871 21.6975 56.6444 21.4881C56.5426 21.4254 56.4408 21.3627 56.337 21.306C56.2744 21.2727 56.2078 21.2296 56.1413 21.2257C56.0669 21.2218 55.9572 21.2335 55.9239 21.2825C55.8887 21.3334 55.9004 21.445 55.9318 21.5096C55.9787 21.6036 56.0531 21.6878 56.1295 21.7602C56.5974 22.2105 57.1241 22.5786 57.7193 22.8429C59.3875 23.585 61.13 23.8121 62.9332 23.5497C64.3801 23.3402 65.6117 22.7157 66.5534 21.5722C67.2289 20.7519 67.7497 19.8493 68.0375 18.8194C68.2862 17.9325 68.4761 17.0338 68.4663 16.1057C68.4643 15.9354 68.4291 15.7631 68.4095 15.5928C68.3782 15.5967 68.3469 15.5986 68.3155 15.6026C68.202 15.9941 68.0865 16.3857 67.9729 16.7773Z" fill="black"/>
<path d="M50.8862 10.5078C50.4339 10.9895 50.0561 11.5279 49.7957 12.1368C49.7917 12.1466 49.7878 12.1564 49.7839 12.1662C49.5646 12.6831 49.408 13.2078 49.314 13.7364C49.173 14.5177 49.1672 15.3126 49.2925 16.1134C49.3238 16.3189 49.3649 16.5226 49.4139 16.7301C49.7702 18.2338 50.663 19.3341 52.0218 20.0585C52.2763 20.1936 52.5309 20.3268 52.7854 20.458C52.9322 20.5343 53.0811 20.6087 53.2299 20.6812C53.363 20.7458 53.5333 20.9357 53.6665 20.7419C53.782 20.5735 53.5979 20.4403 53.4863 20.3229C53.3571 20.1878 53.2142 20.0723 53.0654 19.9626C52.8206 19.7825 52.5583 19.6298 52.292 19.481C52.2803 19.4731 52.2685 19.4653 52.2568 19.4575C51.2582 18.8858 50.6121 18.0223 50.2793 16.9337C49.9366 15.8079 49.9053 14.6567 50.0952 13.4956C50.2479 12.5656 50.6297 11.7433 51.2054 11.0052C51.2856 10.9014 51.3718 10.8015 51.4599 10.7036C52.0825 10.0086 52.7325 9.3468 53.4687 8.76726C53.7056 8.58126 53.9465 8.39134 54.0933 8.09961C54.0541 8.11527 54.013 8.12898 53.9758 8.14856C52.8089 8.75943 51.7829 9.55042 50.8862 10.5078Z" fill="black"/>
<path d="M57.7251 10.9383C58.2302 11.5218 58.6199 12.1757 58.8333 12.9237C59.1955 14.1904 59.2092 15.4709 58.8998 16.7455C58.5866 18.0377 57.8661 19.0382 56.6796 19.6765C56.5327 19.7548 56.38 19.8312 56.2488 19.931C56.0041 20.119 55.7672 20.3187 55.5342 20.5243C55.4343 20.6124 55.3345 20.7377 55.4226 20.8669C55.5224 21.0157 55.6615 20.91 55.7731 20.8552C55.9963 20.7436 56.2175 20.6261 56.4387 20.5125C56.6619 20.397 56.8871 20.2835 57.1083 20.1679C58.1186 19.6413 58.8489 18.8444 59.3462 17.8302C59.7261 17.0529 59.8514 16.2169 59.871 15.3632C59.8886 14.5781 59.8103 13.8243 59.6066 13.1097C59.3795 12.3069 58.9958 11.557 58.4104 10.8737C57.7388 10.0906 56.9654 9.41703 56.0981 8.85707C55.7398 8.62603 55.3638 8.42045 54.9958 8.20312C54.9742 8.23054 54.9527 8.25795 54.9312 8.28536C55.1798 8.50464 55.4206 8.73372 55.6791 8.9393C56.4289 9.53646 57.0986 10.2159 57.7251 10.9383Z" fill="black"/>
<path d="M65.8507 10.3692C65.833 10.8332 65.833 11.2992 65.837 11.7633C65.8448 12.5503 65.8996 13.3394 65.8624 14.1245C65.8037 15.3795 65.2653 16.3467 64.0318 16.8225C63.6872 16.9556 63.3445 17.0966 62.9902 17.2004C62.3989 17.3707 61.9114 17.7016 61.4708 18.1128C61.3514 18.2244 61.2339 18.3477 61.2574 18.6199C61.3906 18.5376 61.4826 18.4926 61.5629 18.43C62.0053 18.0893 62.4987 17.8504 63.045 17.7447C63.6128 17.635 64.1395 17.4158 64.6661 17.1886C65.4767 16.8401 66.0504 16.2625 66.3382 15.4246C66.4459 15.1113 66.532 14.7843 66.581 14.4554C66.6965 13.6566 66.6064 12.8597 66.5281 12.0628C66.4517 11.2797 66.3636 10.4984 66.2775 9.71528C66.2736 9.67416 66.2403 9.63696 66.1913 9.53711C66.0934 9.67808 66.0014 9.76814 65.9584 9.87974C65.9035 10.0383 65.8565 10.2048 65.8507 10.3692Z" fill="black"/>
<path d="M44.7188 17.1859C45.1906 17.3484 45.6644 17.511 46.1481 17.6402C46.6414 17.7714 47.0879 17.9769 47.4951 18.2824C47.5852 18.3509 47.685 18.4077 47.8162 18.4938C47.8632 18.2315 47.7418 18.1003 47.6145 17.9809C47.1388 17.5305 46.5925 17.2173 45.9581 17.0254C45.4824 16.8825 45.0223 16.671 44.5778 16.4458C44.0707 16.1913 43.7163 15.7762 43.5068 15.2417C43.3404 14.8149 43.219 14.3783 43.221 13.9201C43.2229 13.1683 43.2484 12.4165 43.2543 11.6666C43.2582 11.1536 43.2543 10.6406 43.2249 10.1316C43.2131 9.94949 43.1211 9.7674 43.0448 9.5951C43.0193 9.53832 42.9292 9.51091 42.8274 9.44043C42.8 9.82614 42.7863 10.157 42.7511 10.486C42.6865 11.0675 42.5886 11.645 42.5377 12.2265C42.475 12.9392 42.4026 13.6519 42.5083 14.3685C42.708 15.7293 43.3776 16.7239 44.7188 17.1859Z" fill="black"/>
<path d="M47.5282 16.4603C47.767 16.6717 48 16.893 48.233 17.1142C48.3211 17.1964 48.4073 17.2806 48.4954 17.3609C48.5659 17.4255 48.6442 17.4823 48.7205 17.541C48.746 17.5234 48.7734 17.5038 48.7989 17.4862C48.7597 17.357 48.744 17.2121 48.6775 17.1005C48.5541 16.8969 48.4092 16.707 48.2585 16.5229C48.092 16.3193 47.9041 16.1352 47.7357 15.9336C46.9212 14.9605 46.5688 13.8797 46.9055 12.6071C47.1268 11.7671 47.4714 10.9859 47.8825 10.2302C48.3113 9.44505 48.7636 8.67168 49.1944 7.88851C49.3843 7.54588 49.5194 7.17779 49.5742 6.78816C49.5487 6.77837 49.5252 6.76663 49.4998 6.75684C49.4352 6.85277 49.3706 6.94871 49.3079 7.04661C49.12 7.33638 48.9359 7.63007 48.744 7.91788C48.3348 8.53462 47.906 9.13766 47.5145 9.76615C47.0837 10.4573 46.696 11.1719 46.4259 11.9375C46.3397 12.1822 46.2653 12.4348 46.2046 12.6913C45.8424 14.238 46.3847 15.45 47.5282 16.4603Z" fill="black"/>
<path d="M61.4333 10.7908C61.8288 11.529 62.1205 12.3082 62.2634 13.1423C62.3907 13.8765 62.2889 14.5598 61.9247 15.2157C61.6663 15.6797 61.3452 16.089 60.9927 16.4786C60.793 16.6998 60.6129 16.9367 60.4387 17.1776C60.3447 17.3087 60.2722 17.4634 60.3643 17.667C60.4445 17.6083 60.5131 17.5672 60.5698 17.5143C60.6247 17.4634 60.6775 17.4125 60.7323 17.3636C61.0358 17.0816 61.3354 16.7977 61.6447 16.5217C62.2458 15.9832 62.6805 15.3352 62.9017 14.5598C63.0035 14.2074 63.0251 13.855 62.9976 13.5065C62.9683 13.1384 62.886 12.7722 62.7803 12.41C62.5062 11.4741 62.0481 10.6244 61.5253 9.80796C60.9144 8.85446 60.282 7.91466 59.6575 6.96899C59.634 6.93179 59.5968 6.90242 59.5654 6.87109C59.5968 7.42518 59.816 7.89704 60.0725 8.35519C60.5287 9.16381 60.9927 9.97047 61.4333 10.7908Z" fill="black"/>
<path d="M64.985 10.0021C65.3002 9.82003 65.5743 9.55963 65.8464 9.31293C65.9678 9.20329 66.1812 9.03883 66.0442 8.87045C65.8915 8.68444 65.729 8.9096 65.5919 8.99575C65.169 9.26007 64.7539 9.54005 64.333 9.81024C63.8728 10.1078 63.4069 10.3957 62.9507 10.6991C62.7784 10.8147 62.5943 10.938 62.563 11.2376C62.6687 11.2102 62.7294 11.2043 62.7784 11.1788C63.5165 10.7892 64.2625 10.4172 64.985 10.0021Z" fill="black"/>
<path d="M57.3649 9.15763C57.7428 8.34118 58.289 7.63438 58.8216 6.91778C58.9489 6.74744 59.0526 6.55752 59.1525 6.36956C59.2054 6.26971 59.2993 6.13462 59.174 6.04651C59.0311 5.9447 58.9293 6.08958 58.851 6.18356C58.5671 6.52032 58.291 6.86296 58.0169 7.20755C57.7271 7.57368 57.502 7.98093 57.3512 8.42341C57.2572 8.69948 57.1672 8.98338 57.2592 9.29664C57.2964 9.24965 57.3414 9.20854 57.3649 9.15763Z" fill="black"/>
<path d="M43.9431 10.2292C44.5403 10.5287 45.1473 10.8067 45.7542 11.0828C45.8776 11.1396 46.044 11.2434 46.1458 11.0946C46.2593 10.9262 46.1008 10.7911 45.9774 10.7167C45.6837 10.5366 45.3802 10.3682 45.065 10.2311C44.5736 10.0197 44.0685 9.83562 43.5672 9.6457C43.485 9.61438 43.3949 9.60459 43.2324 9.56543C43.3147 9.70053 43.3401 9.78472 43.3969 9.82975C43.5711 9.97267 43.7434 10.1293 43.9431 10.2292Z" fill="black"/>
<path d="M50.3963 7.86359C50.6156 8.20035 50.8329 8.53907 51.0463 8.87975C51.1031 8.96981 51.1325 9.07946 51.1951 9.16365C51.2402 9.22239 51.3204 9.25371 51.3851 9.29679C51.4164 9.21847 51.4908 9.12645 51.4712 9.06184C51.3733 8.73486 51.3067 8.37657 51.1227 8.09854C50.7722 7.56599 50.3493 7.08043 49.9538 6.57529C49.9421 6.55962 49.9108 6.55962 49.8462 6.53809C49.7502 6.74758 49.7933 6.93554 49.8853 7.09609C50.04 7.36041 50.2279 7.60515 50.3963 7.86359Z" fill="black"/>
<path d="M65.9272 16.8056C66.1015 16.7821 66.2483 16.7841 66.3776 16.741C67.1372 16.4806 67.7775 16.044 68.2728 15.4077C68.3237 15.3431 68.3648 15.2667 68.3883 15.1884C68.4275 15.065 68.3335 14.9769 68.2082 15.018C68.1534 15.0357 68.1025 15.0709 68.0555 15.1061C67.3565 15.6387 66.6595 16.1713 65.9625 16.7058C65.9566 16.7097 65.9547 16.7253 65.9272 16.8056Z" fill="black"/>
<path d="M41.498 16.4477C41.5489 16.4927 41.5978 16.5397 41.6507 16.5809C41.6683 16.5946 41.6879 16.6083 41.7055 16.622C42.0129 16.855 42.3732 16.994 42.7667 17.0155C42.8999 17.0233 43.0526 17.0508 43.1701 16.8843C43.1015 16.8275 43.0487 16.761 42.9821 16.7336C42.4104 16.5084 41.8798 16.2186 41.453 15.7683C41.4373 15.7507 41.4158 15.739 41.3962 15.7252C41.1416 15.551 41.0633 15.5764 40.9224 15.8682C41.1142 16.06 41.2963 16.2637 41.498 16.4477Z" fill="black"/>
<path d="M58.4381 30.0866C58.3011 30.1571 58.1581 30.2335 58.0465 30.3372C57.6628 30.6936 57.2575 31.0343 56.9227 31.4337C55.7009 32.9001 54.8434 34.5702 54.2423 36.3774C54.1992 36.5086 54.1522 36.6397 54.1033 36.7768C54.0504 36.7474 54.023 36.7396 54.0113 36.722C53.9545 36.63 53.9036 36.536 53.8507 36.444C52.9599 34.8855 51.9554 33.4072 50.7787 32.0504C50.346 31.5511 49.8585 31.1126 49.3064 30.7523C49.1282 30.6368 48.9344 30.5311 48.7327 30.4684C48.2844 30.3314 47.975 30.5741 47.9887 31.048C47.9946 31.2242 48.0279 31.4063 48.0827 31.5727C48.349 32.393 48.7034 33.1723 49.1928 33.8889C49.6804 34.6035 50.254 35.2379 50.8727 35.839C51.56 36.5086 52.3372 37.0646 53.1224 37.607C53.4082 37.8047 53.7313 37.9574 54.0915 37.9261C54.6358 37.8791 55.1527 37.7225 55.5737 37.3603C56.026 36.9726 56.4939 36.5947 56.8874 36.1503C57.7313 35.2007 58.4244 34.1395 58.955 32.9824C59.1527 32.5516 59.3152 32.0954 59.4268 31.6353C59.5052 31.3181 59.5071 30.9716 59.4778 30.6427C59.4229 30.0201 58.9902 29.8008 58.4381 30.0866ZM53.557 37.3857C53.4787 37.3407 53.4043 37.3113 53.3456 37.2624C52.3627 36.4479 51.3661 35.651 50.5105 34.6955C49.6804 33.7695 49.0245 32.7415 48.6113 31.5648C48.5467 31.3788 48.4527 31.1928 48.5193 30.9266C48.672 31.001 48.8228 31.0401 48.9324 31.1321C49.3436 31.4767 49.7528 31.8233 50.1365 32.1973C50.3911 32.4459 50.6104 32.7337 50.8257 33.0196C51.7871 34.3 52.676 35.6255 53.4337 37.0392C53.4787 37.1234 53.5218 37.2075 53.5629 37.2937C53.5688 37.3094 53.5609 37.3348 53.557 37.3857ZM58.8786 31.2163C58.8414 31.4513 58.8101 31.6921 58.7259 31.9134C58.0074 33.7929 56.9579 35.4474 55.3818 36.7318C55.2526 36.8375 55.1136 36.9315 54.9726 37.0196C54.8864 37.0724 54.7886 37.1038 54.6926 37.1468C54.677 37.094 54.6613 37.0685 54.6672 37.0529C55.2095 35.8096 55.6637 34.5232 56.4077 33.374C56.8424 32.7024 57.281 32.0347 57.8233 31.4454C58.1053 31.14 58.3989 30.8463 58.8003 30.6564C58.906 30.8424 58.908 31.0323 58.8786 31.2163Z" fill="black"/>
</svg>
