<svg width="96" height="93" viewBox="0 0 96 93" fill="none" xmlns="http://www.w3.org/2000/svg">
<path fill-rule="evenodd" clip-rule="evenodd" d="M40.8938 16.2392C47.9476 17.3882 51.2096 25.3308 57.1224 29.3075C63.3427 33.491 72.1919 33.787 76.2771 40.0366C80.7997 46.9553 82.3333 56.0777 79.74 63.9083C77.1493 71.7314 69.3161 76.1314 62.6799 81.0947C55.9007 86.165 49.3667 93.5963 40.8938 92.9619C32.4833 92.3322 28.2503 82.842 21.3778 78.0022C14.4003 73.0884 2.76724 72.584 0.393519 64.4403C-1.99222 56.2553 7.09694 49.4263 10.8082 41.7402C13.8858 35.3664 14.8359 27.8972 20.257 23.3021C25.9241 18.4986 33.5317 15.0399 40.8938 16.2392Z" fill="#BFE8D7"/>
<path d="M14.0319 61.4807C12.7958 59.4031 11.5572 57.3231 10.3211 55.2455C9.12507 53.2341 7.94091 51.2132 6.72838 49.2136C5.66948 47.4669 4.67677 45.4791 3.31533 43.9238C3.16406 43.9286 3.01279 43.9333 2.86152 43.938C2.83079 43.9404 2.80007 43.9711 2.73389 44.0089C2.82134 44.1673 2.90407 44.328 2.99625 44.4864C4.28441 46.6893 5.57021 48.8921 6.86074 51.0926C8.62872 54.1086 10.4085 57.1175 12.167 60.1405C13.4599 62.3623 14.7245 64.5983 15.9984 66.8296C16.1024 67.0139 16.1899 67.1652 16.4452 67.2006C16.7122 67.2385 16.977 67.2834 17.2417 67.3283C17.0668 66.2505 16.2372 65.2412 15.6935 64.3076C15.1428 63.3621 14.5897 62.4214 14.0319 61.4807Z" fill="#BFE8D7"/>
<path d="M5.07122 21.4482C4.93177 23.0248 4.7545 24.5989 4.63632 26.1778C4.49923 28.0049 4.42832 29.8367 4.29596 31.6661C4.19433 33.0607 4.06905 34.4528 3.9036 35.8426C3.71924 37.3979 3.48288 38.9484 3.25597 40.4989C3.14252 41.2624 2.99598 42.0187 2.85889 42.8105C3.00307 42.82 3.11179 42.8365 3.21815 42.8294C4.52287 39.4849 5.1445 35.7032 5.44468 32.1554C5.74013 28.5816 5.58886 24.9937 5.07122 21.4482Z" fill="#BFE8D7"/>
<path d="M20.7917 54.8034C20.319 52.8156 19.8557 50.8207 19.5059 48.8069C19.1584 46.8097 19.0284 44.7651 18.6243 42.7773C18.4493 42.9404 18.2744 43.1059 18.0972 43.2737C19.3546 50.8302 20.6097 58.3748 21.8718 65.9525C21.912 66.1156 21.9475 66.2811 21.99 66.4441C21.9853 66.4985 21.9829 66.5505 21.9806 66.6049C22.0397 66.9547 22.0964 67.3045 22.1555 67.6567C22.2855 67.5645 22.3777 67.503 22.4627 67.4345C22.822 67.1343 23.1813 66.8365 23.5406 66.5363C23.1978 64.6643 22.666 62.7995 22.2406 60.9535C21.7678 58.8995 21.2786 56.8503 20.7917 54.8034Z" fill="#BFE8D7"/>
<path d="M18.7305 41.0213C18.357 38.7522 17.5109 36.4855 16.8892 34.2685C16.2794 32.0963 15.6507 29.9312 15.0291 27.7638C13.9064 23.8568 12.8735 19.9639 11.9847 16.0072C11.7838 15.9789 11.5806 15.9623 11.3726 15.9694C13.4076 24.6557 15.4592 33.2947 18.2105 41.7777C18.2152 41.7777 18.2199 41.7753 18.2247 41.7753C18.3594 41.6571 18.4965 41.5413 18.6288 41.4184C18.6572 41.3924 18.6879 41.364 18.7163 41.338C18.7399 41.2435 18.7494 41.1395 18.7305 41.0213Z" fill="#BFE8D7"/>
<path d="M52.5867 4.38757C52.7711 4.68775 57.9474 1.87505 58.335 1.63869C58.3421 1.63397 58.3469 1.62924 58.354 1.62451C58.8503 2.18705 59.6941 2.54632 60.3039 2.85831C61.1667 3.30031 62.0554 3.67612 62.963 4.00939C63.1025 3.82976 63.2419 3.65249 63.3814 3.47285C63.1994 3.37594 63.0386 3.27904 62.8708 3.20104C61.3628 2.50614 59.8478 1.82542 58.3469 1.11397C57.9994 0.950884 57.73 0.965065 57.399 1.15179C56.2503 1.80651 55.0827 2.42341 53.9293 3.06868C53.3218 3.40903 52.7333 3.78012 52.062 4.17957C52.2487 4.3143 52.4378 4.44666 52.6245 4.58138C52.634 4.51993 52.6269 4.45375 52.5867 4.38757Z" fill="#BFE8D7"/>
<path d="M59.8481 10.0532C59.8552 9.89481 59.7772 9.7979 59.6708 9.75772C59.7063 9.597 59.7394 9.43864 59.763 9.28027C59.6921 9.36773 59.6236 9.45518 59.5526 9.54027C59.3045 9.84518 58.9145 10.0934 58.8034 10.4361C58.6852 10.8048 58.8247 11.2539 58.8436 11.6699C58.9877 14.7284 59.1485 17.7845 59.2667 20.843C59.4297 25.055 59.5763 29.2669 59.6992 33.4789C59.7536 35.3556 59.8174 37.2347 59.763 39.1137C59.7772 39.2059 59.789 39.3005 59.8032 39.3926C59.7843 39.4588 59.763 39.525 59.7441 39.5912C59.7228 40.123 59.6921 40.6548 59.6472 41.1843C59.6448 41.2055 59.6472 41.2315 59.6496 41.2552C59.6921 41.2953 59.7417 41.3308 59.7937 41.3615C59.8079 41.3544 59.8245 41.3473 59.8339 41.3379C60.3894 40.8392 60.9354 40.3334 61.479 39.8228C59.7843 29.9784 59.425 20.0229 59.8481 10.0532Z" fill="#BFE8D7"/>
<path d="M57.8954 75.7646C57.9781 72.0135 58.1649 68.2625 58.4438 64.5209C58.725 60.7793 59.1292 57.0495 59.5807 53.3245C60.0179 49.7058 60.6987 46.0588 60.8806 42.4117C60.9846 41.9815 61.0839 41.5608 61.1926 41.1543C61.299 41.0905 61.3841 41.003 61.4455 40.9014C60.9326 41.3646 60.4127 41.8232 59.8761 42.2628C59.6941 42.4141 59.635 42.5677 59.6421 42.7946C59.6516 43.1326 59.6445 43.4777 59.5972 43.8133C59.3774 45.3473 59.1907 46.886 58.8999 48.4082C58.1909 52.1238 57.73 55.8748 57.288 59.6259C57.2478 59.9757 57.21 60.3255 57.1698 60.6753C57.1083 61.2828 57.0492 61.8926 56.9925 62.5C56.9689 62.6017 56.9476 62.7056 56.9263 62.8096C56.8152 63.8047 56.7041 64.8022 56.5954 65.7973C56.5907 65.8942 56.5836 65.9934 56.5789 66.0903C56.5647 66.1471 56.5552 66.2038 56.5434 66.2605C56.4702 66.9412 56.3945 67.622 56.3212 68.3003C55.9927 71.3068 55.6618 74.311 55.3451 77.3175C55.2553 78.1636 55.1702 79.0075 55.0851 79.8536C55.0874 80.1396 55.0851 80.4256 55.0922 80.7116C55.0898 80.7163 55.0874 80.7187 55.0851 80.7234C55.0425 80.8227 55.0047 80.9243 54.9669 81.026C54.8723 81.988 54.7778 82.9523 54.6833 83.9143C54.5864 84.9094 54.5084 85.9068 54.4209 86.9019C54.4233 86.9043 54.428 86.9043 54.4304 86.9066C54.4989 86.8452 54.5698 86.7837 54.6407 86.7246C54.7187 86.6584 54.8014 86.597 54.8842 86.5355C54.8983 86.5237 54.9125 86.5143 54.9267 86.5024C55.7469 85.5594 56.5505 84.5997 57.399 83.6827C58.0585 81.1583 57.841 78.1896 57.8954 75.7646Z" fill="#BFE8D7"/>
<path d="M58.4297 22.1904C58.4321 24.1995 58.4911 26.2086 58.6093 28.2153C58.5526 26.2062 58.4935 24.1995 58.4297 22.1904Z" fill="#BFE8D7"/>
<path d="M39.729 84.2818C39.8802 82.4595 39.5281 80.5048 39.3839 78.6824C39.2373 76.8152 39.0908 74.9503 38.9443 73.083C38.6583 69.4265 38.3723 65.7724 38.0839 62.1159C37.5143 54.862 37.0723 47.523 35.9212 40.3329C35.9141 40.2903 35.8999 40.2525 35.8787 40.2241L35.8763 40.2218C35.8598 40.1981 35.8408 40.1839 35.8196 40.1674C35.8007 40.1674 35.7818 40.1674 35.7652 40.165C35.7652 40.2359 35.7628 40.3092 35.7652 40.3801C35.9401 43.5899 36.1198 46.7973 36.2923 50.0071C36.5972 55.6892 36.8997 61.3713 37.2046 67.0535C37.4836 72.2818 37.779 77.5101 38.0272 82.7407C38.0603 83.4569 38.273 83.9202 38.8426 84.3882C39.0341 84.5465 39.2208 84.7073 39.4099 84.868C39.5824 84.7309 39.7077 84.5323 39.729 84.2818Z" fill="#BFE8D7"/>
<path d="M27.0414 54.0328C27.9939 56.5618 28.9653 59.0885 29.9817 61.5916C31.9624 66.4677 34.2764 71.2209 36.6494 75.9174C36.6542 75.9268 36.6612 75.9339 36.666 75.9458C36.6494 75.6196 36.6352 75.291 36.6329 74.9625C36.6234 74.0407 36.5383 73.1543 35.9545 72.3885C35.8978 72.3153 35.8671 72.2207 35.8222 72.138C33.5578 67.8173 31.5866 63.3619 29.7808 58.8309C28.2232 54.9191 26.5663 51.0428 25.3254 47.0128C25.2994 46.9278 25.2545 46.8474 25.167 46.6465C25.115 46.9278 25.0796 47.0885 25.0559 47.2492C25.0323 47.4005 25.011 47.5518 24.9897 47.7007C25.063 47.9039 25.141 48.1001 25.1977 48.275C25.5145 50.251 26.3488 52.1868 27.0414 54.0328Z" fill="#BFE8D7"/>
<path d="M92.007 43.2547C90.986 43.4556 89.7923 43.5667 88.88 44.0772C88.828 44.1056 88.7855 44.141 88.75 44.1788C88.8469 44.4246 88.9438 44.6681 89.0431 44.9139C90.9198 44.5783 92.7303 44.2403 94.5668 43.5359C94.139 41.8459 93.7206 40.1914 93.2976 38.5156C93.2148 38.5251 93.1321 38.5322 93.0494 38.5416C93.1085 39.9645 93.359 41.586 93.7845 42.9852C93.1983 42.9474 92.5601 43.1459 92.007 43.2547Z" fill="#BFE8D7"/>
<path d="M70.6402 74.336C70.7347 74.2722 70.8292 74.206 70.9214 74.1398C71.2382 73.9909 71.5383 73.816 71.7889 73.5867C71.8291 73.5489 71.8551 73.504 71.8716 73.4544C72.8478 72.7359 73.8027 71.9866 74.7599 71.261C76.9061 69.6301 79.0428 67.9874 81.1771 66.3423C81.2008 66.3234 81.2244 66.3045 81.2457 66.2832C81.0046 66.2927 80.7635 66.3021 80.5224 66.3116C80.2931 66.3187 80.1371 66.4132 79.9717 66.5479C79.4139 67.0017 78.8631 67.4626 78.2841 67.8881C75.2846 70.0957 72.2781 72.2915 69.274 74.492C68.8627 74.7922 68.4538 75.0947 68.0449 75.3949C68.0567 75.4185 68.0709 75.4422 68.0827 75.4658C68.1347 75.4564 68.1915 75.454 68.2411 75.4375C68.7445 75.2578 69.248 75.09 69.7538 74.9198C69.9736 74.778 70.1911 74.6362 70.4062 74.4896C70.4913 74.4447 70.5692 74.3927 70.6402 74.336Z" fill="#BFE8D7"/>
<path d="M83.4108 61.9938C84.1482 60.214 84.8762 58.4271 85.5853 56.6355C86.2944 54.8415 86.9775 53.0357 87.618 51.2158C88.2349 49.4643 89.0031 47.6278 89.2867 45.7842C89.1544 45.8149 89.022 45.8433 88.8896 45.874C86.6088 52.5654 83.8433 59.0369 80.6335 65.3974C80.6288 65.4163 80.6241 65.4376 80.6217 65.4565C80.6146 65.4612 80.6052 65.4683 80.5981 65.473C80.5768 65.5156 80.5579 65.5558 80.5366 65.5983C80.8368 65.5983 81.0566 65.6101 81.2717 65.5959C81.4537 65.5841 81.6381 65.5605 81.8201 65.5369C82.073 65.1256 82.2408 64.66 82.4582 64.1801C82.7844 63.4522 83.1082 62.7265 83.4108 61.9938Z" fill="#BFE8D7"/>
<path d="M69.9238 51.7097C70.978 51.1826 71.9731 50.379 72.9114 49.7692C74.417 48.7906 75.9227 47.8144 77.4188 46.8217C80.3473 44.8812 83.2758 42.9383 86.202 40.9978C86.3533 40.8985 86.4171 40.7543 86.4218 40.6125C86.2682 40.2367 86.1098 39.8562 85.9444 39.4473C81.5788 42.5365 77.2439 45.6045 72.9043 48.6724C72.6916 48.8379 72.4765 48.9986 72.2638 49.1641C72.252 49.1735 72.2472 49.183 72.2402 49.1924C72.0298 49.3272 71.8147 49.4619 71.5949 49.599C70.5573 50.3317 69.522 51.0668 68.4844 51.7995C68.5695 51.9413 68.664 52.0997 68.7633 52.2557C68.7656 52.2604 68.768 52.2628 68.7704 52.2675C69.1651 52.1304 69.6355 51.998 69.9191 51.7144C69.9215 51.712 69.9238 51.7097 69.9238 51.7097Z" fill="#BFE8D7"/>
<path d="M76.4073 33.793C77.4473 32.0109 78.4495 30.2074 79.4091 28.3827C80.3853 26.5273 81.5151 24.7357 82.4605 22.8684C82.5172 22.7597 82.5267 22.6439 82.5125 22.5352C82.4676 22.5682 82.4227 22.6013 82.3778 22.6344C82.2596 22.7242 82.1272 22.8117 82.0469 22.9322C81.5174 23.7146 80.9809 24.4922 80.4822 25.2935C79.9031 26.2247 79.3524 27.1726 78.8016 28.1204C75.8093 33.2659 72.8194 38.4139 69.8388 43.5642C69.7207 43.7675 69.6734 44.0227 69.6356 44.2591C69.619 44.3607 69.6025 44.4647 69.5859 44.5664C70.7819 42.9189 71.8219 41.1391 72.9233 39.4326C74.1217 37.5772 75.2964 35.6981 76.4073 33.793Z" fill="#BFE8D7"/>
<path d="M89.6669 18.4058C89.6054 18.1434 89.544 17.8763 89.4802 17.6045C84.649 26.8746 80.0021 36.1446 75.5869 45.5967C75.7098 45.5258 75.7902 45.4832 75.8635 45.4336C78.532 40.6284 80.7821 35.5986 83.1977 30.6611C85.2257 26.5129 87.4262 22.4475 89.6669 18.4058Z" fill="#BFE8D7"/>
<path d="M37.2661 30.5835C37.3158 30.7159 37.3938 30.8151 37.4836 30.8931C37.5545 30.7466 37.6254 30.6024 37.694 30.4559C37.7554 30.3282 37.7318 30.1226 37.675 29.9831C37.3158 29.0897 36.9352 28.2057 36.5594 27.3194C35.3138 24.3814 34.0965 21.434 33.0991 18.3991C31.9551 14.9175 30.6362 11.5021 29.1566 8.14814C29.0762 7.96614 28.9864 7.78887 28.8446 7.48633C28.8186 7.59033 28.7879 7.69433 28.7524 7.7936C28.6815 8.07014 28.613 8.34668 28.5444 8.62322C29.6766 11.6912 31.09 14.6551 32.2837 17.7018C33.9642 21.9894 35.6187 26.2865 37.2661 30.5835Z" fill="#BFE8D7"/>
<path d="M38.1762 29.0425C38.1951 29.0921 38.2353 29.1347 38.3038 29.2411C37.0984 26.3055 35.9095 23.3604 34.7017 20.4248C35.8173 23.3131 37.0156 26.1707 38.1762 29.0425Z" fill="#BFE8D7"/>
<path d="M95.3611 43.3257C95.0326 41.9477 94.7064 40.5697 94.3708 39.1941C94.2857 38.8466 94.1841 38.4992 94.0517 38.1683C93.8579 37.6861 93.6404 37.5798 93.1204 37.6459C92.7824 37.6885 92.4468 37.7428 92.1088 37.7783C90.8892 37.913 89.6672 38.043 88.4452 38.1683C88.2703 38.1872 88.0907 38.1707 87.8945 38.1707C87.9158 38.0407 87.9158 37.9839 87.9347 37.9343C88.7738 35.6865 89.6058 33.4363 90.4566 31.1933C91.005 29.7444 91.5723 28.3026 92.1466 26.8631C92.3523 26.3479 92.4279 25.8539 92.1726 25.3315C92.0899 25.1661 92.0615 24.9723 92.019 24.7879C91.6739 23.2397 91.3194 21.6916 90.9956 20.1387C90.7237 18.8387 90.3479 17.5789 89.7499 16.3876C89.5987 16.0851 89.4096 15.9764 89.1212 16.0851C88.9652 16.1442 88.8139 16.2364 88.6816 16.338C88.0552 16.8249 87.4194 17.3 86.8214 17.82C85.096 19.3209 83.3847 20.8383 81.6711 22.3534C81.5293 22.4787 81.3899 22.6134 81.2882 22.767C80.5768 23.8354 79.8299 24.8848 79.1775 25.9886C77.6199 28.624 76.1072 31.2855 74.5827 33.9398C73.1149 36.4949 71.6542 39.057 70.1887 41.6144C70.1533 41.6782 70.0871 41.7255 69.9736 41.8461C69.9949 41.6381 70.002 41.5246 70.0209 41.4159C70.5267 38.4708 70.9451 35.5163 71.1814 32.5382C71.2949 31.1082 71.3634 29.6664 71.1082 28.2411C70.9451 27.3311 70.7134 26.433 70.4842 25.5372C69.9429 23.4146 69.3118 21.311 68.8556 19.1696C68.0898 15.5816 67.1468 12.0433 66.0737 8.53809C65.6199 7.05848 65.1708 5.57649 64.7713 4.08033C64.5893 3.39488 64.3742 2.85362 63.6392 2.53453C61.961 1.80654 60.3207 0.986367 58.6661 0.201649C58.1272 -0.0536207 57.6238 -0.00162118 57.0991 0.286739C55.9574 0.917822 54.7922 1.49927 53.6506 2.12799C53.0218 2.47308 52.4073 2.85125 51.8188 3.26016C51.4997 3.48234 51.1735 3.75652 50.9797 4.08269C50.4526 4.97614 49.9893 5.9074 49.5095 6.82921C49.3181 7.19793 49.1668 7.58556 48.9706 7.94956C48.2166 9.34645 47.4106 10.715 46.7039 12.1331C45.463 14.6173 44.2812 17.1322 43.0711 19.6329C42.9836 19.8125 42.8843 19.9874 42.7472 20.245C42.6551 20.0465 42.596 19.9354 42.5511 19.8196C41.7971 17.8436 41.0738 15.8535 40.282 13.8917C39.8447 12.8091 39.3011 11.7691 38.7976 10.7126C38.5258 10.143 38.0838 9.74117 37.5166 9.47881C37.0013 9.24245 36.4884 8.99664 35.959 8.79809C33.8388 7.99683 31.7116 7.21684 29.6599 6.24303C29.5583 6.1934 29.4519 6.15321 29.3432 6.12012C28.6318 5.89794 28.3954 6.03976 28.204 6.75594C27.5729 9.129 26.9512 11.5044 26.2942 13.8704C25.942 15.1444 25.5307 16.4018 25.1431 17.6664C25.0509 17.9665 25.0178 18.2549 25.1785 18.5432C25.3724 18.8883 25.5496 19.2452 25.7529 19.5832C27.1002 21.8168 28.4167 24.0694 29.8089 26.2746C31.3523 28.7186 32.8461 31.198 34.607 33.4978C34.9379 33.9327 35.2499 34.3818 35.5855 34.8403C35.4248 35.1476 35.2664 35.4478 35.1128 35.748C34.9332 36.1001 34.7559 36.457 34.5786 36.8116C34.4533 37.0621 34.4155 37.2961 34.6117 37.5514C34.7015 37.6696 34.7157 37.8657 34.7228 38.0288C34.7653 39.2556 34.7772 40.4846 34.8386 41.7113C35.0041 44.9778 35.1908 48.242 35.3657 51.5085C35.3751 51.6881 35.3681 51.8701 35.3681 52.0734C32.7066 50.0738 30.0878 48.1073 27.5067 46.1667C27.5067 45.7767 27.5138 45.4175 27.5043 45.0606C27.4831 44.0962 27.4547 43.1342 27.4287 42.1699C27.3814 40.3924 27.3507 38.6174 27.2822 36.8399C27.2467 35.8992 27.268 34.9301 27.0434 34.0296C26.8189 33.1291 26.3154 32.2971 25.9349 31.4344C25.9042 31.3658 25.8711 31.2973 25.838 31.2287C24.2922 27.863 22.7488 24.4972 20.9855 21.2354C20.3473 20.0583 19.7966 18.8316 19.2199 17.6214C19.0095 17.1818 18.7094 16.8911 18.2224 16.7824C17.8915 16.7091 17.5701 16.5909 17.2463 16.494C16.0337 16.1324 14.8307 15.74 13.6087 15.4233C13.032 15.2744 12.4198 15.2649 11.8218 15.1917C11.7296 15.1798 11.6303 15.1822 11.5476 15.1467C11.3065 15.0357 11.0962 15.1089 10.9118 15.2531C10.5691 15.5178 10.2264 15.7873 9.90491 16.078C8.51511 17.3331 7.07331 18.5243 5.5417 19.6069C5.25097 19.8149 4.97916 20.0512 4.70971 20.2876C4.4568 20.5074 4.31971 20.791 4.28898 21.1267C4.10226 23.1216 3.88953 25.1141 3.73354 27.1113C3.55627 29.3898 3.49481 31.6802 3.26318 33.954C2.95355 36.9983 2.5541 40.0332 2.12392 43.0633C2.05301 43.5691 2.09319 43.9969 2.28937 44.4177C2.77627 45.4624 3.28445 46.4953 3.81154 47.5211C5.4117 50.6316 7.14659 53.6665 8.93111 56.673C10.8976 59.9891 12.8547 63.3124 14.8212 66.6261C15.0221 66.9665 15.2632 67.2832 15.5138 67.5928C15.613 67.7181 15.769 67.8316 15.9203 67.8741C16.7948 68.1105 17.667 68.3657 18.5557 68.5288C19.3499 68.6754 20.1653 68.7723 20.9737 68.7841C21.8695 68.7959 22.7369 68.5903 23.4437 67.971C24.0842 67.4109 24.7224 66.8507 25.3558 66.2858C25.7931 65.8981 26.202 65.4727 26.6629 65.1158C26.9749 64.8747 27.1451 64.5958 27.1829 64.22C27.2112 63.9245 27.2278 63.6267 27.2491 63.3289C27.2869 63.3147 27.3247 63.3029 27.3625 63.2887C27.4571 63.4471 27.5611 63.6007 27.6485 63.7614C28.1614 64.7092 28.6554 65.6665 29.1825 66.6049C31.5296 70.7695 33.8861 74.9295 36.245 79.0894C36.3371 79.2525 36.4293 79.4558 36.5782 79.5362C36.9115 79.7182 36.9115 80.0065 36.928 80.3114C36.9895 81.3869 37.0533 82.4623 37.1171 83.5378C37.1431 83.9656 37.1928 84.3745 37.7128 84.5045C37.7931 84.5234 37.8498 84.6297 37.9207 84.6936C39.7833 86.3552 41.6458 88.0144 43.5083 89.676C43.7872 89.9242 44.0661 90.1322 44.4679 89.9006C44.5696 89.8438 44.7279 89.8864 44.8579 89.8817C45.3496 89.8675 45.8412 89.8722 46.3305 89.832C47.8928 89.7068 49.4575 89.5791 51.0175 89.4255C51.8802 89.3404 52.7382 89.1891 53.6009 89.0875C53.9318 89.0497 54.0996 88.8748 54.2036 88.577C54.2651 88.4044 54.3455 88.2248 54.466 88.0924C55.5225 86.9319 56.572 85.7643 57.6545 84.6297C59.5218 82.6727 61.4103 80.7392 63.2894 78.7964C63.3815 78.7018 63.469 78.6002 63.5777 78.5269C64.0906 78.1771 64.6059 77.8296 65.1282 77.4916C65.3481 77.3498 65.5773 77.2056 65.8208 77.1135C66.4022 76.8913 66.9908 76.6786 67.584 76.4966C70.3069 75.6551 73.0345 74.8231 75.7621 73.9935C76.4097 73.7973 77.0857 73.6555 77.4639 72.9984C77.4828 72.9677 77.5183 72.9464 77.549 72.9228C78.4141 72.2184 79.2744 71.5117 80.1442 70.8121C81.8957 69.401 83.6589 68.0041 85.4009 66.5836C85.6727 66.3638 85.954 66.0872 86.084 65.7752C86.7954 64.0876 87.4431 62.374 88.1498 60.6817C89.3434 57.8241 90.537 54.9641 91.785 52.1278C92.8959 49.6034 94.0777 47.1122 95.0184 44.5146C95.0444 44.4437 95.0657 44.3491 95.12 44.3184C95.5597 44.0749 95.4486 43.6991 95.3611 43.3257ZM93.0495 38.5417C93.1323 38.5323 93.215 38.5252 93.2977 38.5157C93.7208 40.1915 94.1392 41.8461 94.567 43.536C92.7304 44.2404 90.9199 44.5784 89.0432 44.914C88.9463 44.6682 88.847 44.4248 88.7501 44.1789C88.0907 42.5268 87.436 40.8841 86.7718 39.2177C88.8612 38.9908 90.9294 38.7687 93.0495 38.5417ZM79.9528 65.0402C79.8842 65.1725 79.7991 65.2954 79.6833 65.4892C79.3028 65.2387 78.9577 65.0401 78.6457 64.8014C76.5776 63.2249 74.6678 61.4876 73.252 59.2729C72.1245 57.5073 70.9971 55.7393 69.8673 53.9737C69.5033 53.4041 69.1369 52.8368 68.7729 52.2672C68.7706 52.2625 68.7682 52.2601 68.7658 52.2554C68.6666 52.0994 68.572 51.9387 68.4869 51.7992C69.5246 51.0641 70.5622 50.3314 71.5974 49.5987C72.0323 49.2914 72.4696 48.9818 72.9045 48.6745C77.2441 45.6042 81.5789 42.5386 85.9445 39.4494C86.1123 39.8583 86.2707 40.2388 86.422 40.6146C86.4976 40.8013 86.5732 40.9881 86.6465 41.1748C87.1665 42.4913 87.6818 43.8102 88.1899 45.1315C88.2372 45.2567 88.249 45.4317 88.2018 45.5546C86.8994 48.9771 85.6231 52.4114 84.2711 55.8126C83.016 58.9704 81.508 62.0171 79.9528 65.0402ZM91.4352 25.4663C91.5392 25.8539 91.5439 26.1919 91.3997 26.563C90.5583 28.7091 89.7192 30.8553 88.899 33.0085C88.327 34.5094 87.7834 36.0198 87.2303 37.5278C87.1523 37.7381 87.0932 37.9556 87.0129 38.2132C86.5898 38.1163 86.2589 38.3432 85.9162 38.537C84.316 39.4399 82.8317 40.513 81.3449 41.5861C79.5368 42.8908 77.6979 44.1529 75.8708 45.4317C75.8685 45.4317 75.8685 45.434 75.8661 45.434C75.7928 45.4837 75.7125 45.5262 75.5896 45.5971C80.0048 36.145 84.6516 26.875 89.4828 17.6049C89.5467 17.8791 89.6081 18.1438 89.6696 18.4062C89.7925 18.9427 89.913 19.4603 90.0407 19.9756C90.4945 21.8074 90.9483 23.6416 91.4352 25.4663ZM87.7716 18.1367C87.9323 17.9902 88.0978 17.8507 88.2632 17.7065C88.2892 17.7254 88.3152 17.7467 88.3389 17.7656C88.2585 17.9476 88.1876 18.1343 88.0978 18.3116C85.8098 22.8285 83.484 27.3264 81.2433 31.8669C79.1113 36.1852 77.0385 40.5366 75.001 44.9022C74.4716 46.0344 73.8027 46.9231 72.7509 47.6298C71.3894 48.5445 70.1438 49.6294 68.8462 50.641C68.7918 50.6836 68.728 50.7167 68.6051 50.7923C68.6287 50.582 68.6358 50.4401 68.6595 50.3007C68.9667 48.3885 69.274 46.4787 69.5884 44.5689C69.6049 44.4673 69.6215 44.3633 69.638 44.2617C69.6782 44.0253 69.7255 43.77 69.8413 43.5668C72.8218 38.4141 75.8117 33.2685 78.8041 28.123C79.3548 27.1751 79.9055 26.2273 80.4846 25.2961C80.9833 24.4948 81.5199 23.7172 82.0493 22.9348C82.1297 22.8167 82.262 22.7268 82.3802 22.637C82.4251 22.6039 82.47 22.5708 82.5149 22.5377C83.2737 21.9728 84.0536 21.4339 84.7745 20.8265C85.8003 19.9614 86.7742 19.0349 87.7716 18.1367ZM65.1731 8.78391C65.965 11.5612 66.7875 14.3313 67.5249 17.1251C68.0946 19.2783 68.5366 21.4647 69.0707 23.6274C69.3544 24.7808 69.7231 25.9153 70.0304 27.0641C70.2596 27.9197 70.4534 28.7848 70.6449 29.5742C69.4725 30.9782 68.3286 32.3065 67.2271 33.6751C65.4615 35.8709 63.5233 37.8965 61.4812 39.8228C60.9399 40.3334 60.3916 40.8392 59.8361 41.3379C59.8243 41.3473 59.8101 41.3544 59.7959 41.3615C59.7629 41.3804 59.7227 41.397 59.6659 41.423C59.6612 41.3544 59.6541 41.3024 59.6518 41.2552C59.6494 41.2315 59.647 41.2079 59.6494 41.1843C59.6943 40.6524 59.725 40.1206 59.7463 39.5912C59.7534 39.4328 59.7605 39.2721 59.7652 39.1137C59.8196 37.2347 59.7558 35.358 59.7014 33.4789C59.5785 29.2669 59.4319 25.055 59.2689 20.843C59.1507 17.7845 58.9899 14.726 58.8458 11.6699C58.8269 11.2539 58.6874 10.8048 58.8056 10.4361C58.9143 10.0933 59.3067 9.84753 59.5548 9.54027C59.6258 9.45281 59.6943 9.36536 59.7652 9.28027C61.0723 7.66356 62.3746 6.03976 63.6793 4.42069C63.7219 4.36633 63.781 4.32614 63.8897 4.22451C63.9724 4.5696 64.0315 4.85796 64.1143 5.14159C64.4641 6.35649 64.8281 7.56665 65.1731 8.78391ZM52.0599 4.18196C52.7311 3.78251 53.3197 3.41143 53.9271 3.07107C55.0805 2.4258 56.2482 1.80654 57.3969 1.15418C57.7278 0.965094 57.9996 0.950913 58.3447 1.11637C59.8456 1.82545 61.3607 2.50853 62.8686 3.20343C63.0364 3.28143 63.1972 3.37834 63.3792 3.47525C63.2397 3.65488 63.1003 3.83215 62.9608 4.01179C61.5285 5.85304 60.1032 7.66592 58.5692 9.45045C56.8178 7.53356 54.7355 6.0894 52.62 4.58614C52.4333 4.44905 52.2466 4.31669 52.0599 4.18196ZM30.1303 7.38702C31.4185 7.92828 32.7019 8.47428 33.9924 9.00845C34.9521 9.40554 35.9164 9.79081 36.8808 10.1761C37.4149 10.3888 37.7931 10.7386 38.0271 11.2799C38.9513 13.4095 39.9015 15.5296 40.8351 17.6569C41.2983 18.7111 41.7333 19.7794 42.2107 20.8265C42.3242 21.0747 42.2745 21.2519 42.1705 21.4623C41.1093 23.6132 40.0551 25.7688 38.9938 27.9197C38.7787 28.3546 38.5495 28.78 38.306 29.248C38.306 29.2457 38.3037 29.2457 38.3037 29.2433C38.2351 29.1369 38.1973 29.0944 38.176 29.0448C37.0155 26.173 35.8195 23.3154 34.7015 20.427C34.5857 20.1292 34.4675 19.8314 34.3541 19.5312C33.1226 16.2836 32.0141 12.9888 30.8394 9.7199C30.5912 9.02736 30.2816 8.3561 30.0027 7.67538C29.9625 7.57611 29.9294 7.47211 29.8703 7.30665C30.005 7.34684 30.0688 7.36102 30.1303 7.38702ZM30.7756 26.1446C29.1116 23.5139 27.6792 20.739 25.8144 18.2194C27.0411 15.1609 27.7312 11.9275 28.549 8.62318C28.6176 8.34664 28.6861 8.0701 28.757 7.79356C28.7854 7.68483 28.8114 7.57611 28.8398 7.46738C28.8421 7.47447 28.8445 7.4792 28.8492 7.48629C28.9934 7.78883 29.0832 7.96847 29.1612 8.1481C30.6408 11.5021 31.9597 14.9175 33.1037 18.3991C34.1012 21.4339 35.3184 24.3814 36.564 27.3193C36.9399 28.2057 37.318 29.0897 37.6797 29.9831C37.7364 30.1226 37.76 30.3282 37.6986 30.4558C37.63 30.6024 37.5568 30.7466 37.4882 30.8931C36.9895 31.9402 36.479 32.9802 35.9684 34.0202C35.9542 34.0509 35.9164 34.0722 35.8668 34.1171C34.1461 31.4273 32.449 28.7919 30.7756 26.1446ZM35.6186 36.821C37.0439 34.0083 38.4526 31.1838 39.8967 28.3806C42.6338 23.0743 45.2243 17.6971 47.751 12.2868C48.3655 10.9702 49.0746 9.69626 49.7246 8.39628C50.2068 7.43429 50.6677 6.46048 51.138 5.49377C51.2279 5.30704 51.3129 5.12032 51.4359 4.85796C53.7475 6.63539 56.1654 8.20955 58.1698 10.351C58.1414 11.1002 58.0634 11.8944 58.0871 12.6839C58.1532 14.9695 58.269 17.2527 58.3447 19.5383C58.373 20.4223 58.399 21.3063 58.4274 22.1903C58.4912 24.197 58.5503 26.2061 58.607 28.2151C58.633 29.1771 58.6638 30.1391 58.6874 31.1035C58.756 33.824 58.782 36.5445 58.8198 39.2674C58.8316 40.1537 58.8221 41.0377 58.8221 41.891C53.0927 44.4058 47.4934 47.0011 41.6222 48.9865C40.9202 47.1287 40.0125 45.4766 39.0742 43.8362C38.1169 42.1652 37.1833 40.4799 36.252 38.7946C36.0157 38.3645 35.8337 37.9059 35.6115 37.4687C35.4957 37.2418 35.5099 37.0361 35.6186 36.821ZM33.3424 51.6669C33.9972 52.1774 34.5928 52.7612 35.2215 53.3025C35.4248 53.4774 35.4815 53.6925 35.4957 53.9525C35.7084 57.9351 35.9282 61.9155 36.1457 65.8981C36.2284 67.3896 36.3088 68.8786 36.3868 70.3701C36.401 70.6277 36.3891 70.8901 36.3891 71.1477C36.3513 71.1548 36.3135 71.1619 36.2757 71.1713C32.2906 62.92 28.9698 54.3874 25.6253 45.7649C25.7482 45.8217 25.8096 45.8382 25.8545 45.8737C28.3505 47.8047 30.8559 49.724 33.3424 51.6669ZM17.8703 17.6356C18.2674 17.7467 18.499 17.9476 18.6644 18.34C19.2388 19.6967 19.8321 21.0439 20.4679 22.3723C21.8388 25.2346 23.2357 28.0828 24.6302 30.9309C25.1525 31.9969 25.7033 33.0511 26.2705 34.1691C25.3724 35.0743 24.4695 36.0363 23.5098 36.9392C21.9286 38.4259 20.3142 39.8748 18.7117 41.3403C18.6834 41.3663 18.6526 41.3946 18.6243 41.4206C18.4919 41.5435 18.3524 41.6593 18.2201 41.7775C18.2154 41.7799 18.213 41.7846 18.2083 41.787C18.2083 41.7846 18.2059 41.7822 18.2059 41.7799C15.4547 33.2969 13.4031 24.6579 11.368 15.9716C11.576 15.9646 11.7793 15.9811 11.9802 16.0095C12.2803 16.0496 12.5734 16.1182 12.8618 16.2009C14.5352 16.6689 16.1992 17.1676 17.8703 17.6356ZM5.4377 20.8383C6.16805 20.2687 6.91732 19.7251 7.62876 19.1318C8.67348 18.2596 9.68983 17.3567 10.718 16.468C10.7842 16.4089 10.8574 16.3593 10.9827 16.2624C11.0442 16.832 11.0607 17.3402 11.1576 17.8342C11.6729 20.446 12.1929 23.0577 12.7412 25.6624C13.7505 30.4558 15.2656 35.1121 16.5868 39.8204C16.7806 40.5106 16.9745 41.2032 17.1612 41.8957C17.2085 42.073 17.2321 42.2573 17.2652 42.4299C16.3363 43.0397 15.3672 43.3328 14.3012 43.3848C12.6325 43.4699 10.978 43.3351 9.32583 43.1295C7.29786 42.879 5.26752 42.7017 3.22063 42.8317C3.21827 42.8317 3.21591 42.8317 3.21591 42.8317C3.10954 42.8388 3.00082 42.8199 2.85664 42.8128C2.99373 42.021 3.14263 41.2622 3.25372 40.5012C3.48299 38.9506 3.71699 37.4001 3.90135 35.8449C4.06681 34.4574 4.19208 33.0629 4.29371 31.6684C4.42607 29.8413 4.49698 28.0071 4.63407 26.1801C4.75225 24.6012 4.92952 23.027 5.06897 21.4505C5.07134 21.4292 5.0737 21.4056 5.07606 21.3843C5.0997 21.1149 5.25806 20.9778 5.4377 20.8383ZM19.0095 67.6307C18.4186 67.5385 17.8301 67.4274 17.2392 67.3281C16.9745 67.2832 16.7074 67.2383 16.4427 67.2005C16.1874 67.1627 16.1023 67.0114 15.9959 66.8294C14.7219 64.5982 13.4574 62.3622 12.1645 60.1404C10.406 57.1173 8.6262 54.1085 6.85822 51.0925C5.5677 48.892 4.28189 46.6891 2.99373 44.4862C2.90155 44.3279 2.81646 44.1671 2.73137 44.0088C2.79991 43.9709 2.82827 43.9379 2.859 43.9379C3.01027 43.9308 3.16154 43.9284 3.31281 43.9237C5.63624 43.8457 7.95258 43.867 10.2713 44.1246C11.7887 44.2924 13.3274 44.2688 14.8567 44.3066C15.5279 44.3231 16.1661 44.1529 16.7641 43.8362C16.9106 43.7582 17.0666 43.6991 17.3006 43.5951C17.6032 45.5073 17.8939 47.3344 18.1799 49.1638C18.5344 51.4234 18.8559 53.6877 19.2412 55.9403C19.7942 59.1619 20.3851 62.374 20.976 65.5885C21.1155 66.3449 21.3282 67.0894 21.515 67.8836C20.6451 67.9001 19.8273 67.7607 19.0095 67.6307ZM26.4691 62.1684C26.4005 62.7498 26.3769 63.336 26.2894 63.9151C26.2587 64.1183 26.1358 64.35 25.9798 64.4823C25.1738 65.1725 24.3584 65.8532 23.5406 66.534C23.1813 66.8341 22.822 67.1319 22.4628 67.4321C22.3777 67.503 22.2855 67.5621 22.1555 67.6543C22.0964 67.3045 22.0397 66.9547 21.9806 66.6025C21.9451 66.385 21.9073 66.1676 21.8719 65.9501C20.6097 58.3724 19.3546 50.8278 18.0972 43.2713C18.2744 43.1035 18.4494 42.938 18.6243 42.775C19.2861 42.151 19.9266 41.5506 20.5601 40.9432C21.366 40.1726 22.1579 39.3879 22.9662 38.6221C23.9802 37.6601 25.0036 36.7099 26.0247 35.755C26.1145 35.67 26.2162 35.5967 26.3249 35.5069C26.3958 38.8608 26.4667 42.1746 26.5376 45.5333C25.9207 45.1693 25.3369 44.7202 24.7507 44.1411C24.6845 44.3704 24.6255 44.5217 24.5971 44.68C24.0511 47.8236 23.5122 50.9696 22.9591 54.1108C22.8598 54.6757 22.9142 55.2052 23.1742 55.7063C23.5926 56.5099 24.018 57.3112 24.46 58.1006C25.058 59.1737 25.6678 60.2373 26.2847 61.3009C26.4431 61.5798 26.5069 61.854 26.4691 62.1684ZM36.6633 77.9029C36.609 77.8155 36.5522 77.7304 36.5026 77.6405C34.7961 74.5679 33.1014 71.4904 31.3854 68.4248C29.1896 64.5013 26.9772 60.5871 24.7767 56.6659C24.5167 56.205 24.2804 55.7323 24.0298 55.2666C23.8455 54.9215 23.7887 54.5599 23.862 54.1699C24.1669 52.5367 24.4695 50.9034 24.7602 49.2654C24.8524 48.7454 24.9209 48.2231 24.9965 47.7007C25.0178 47.5495 25.0391 47.3982 25.0627 47.2493C25.0864 47.0885 25.1218 46.9278 25.1738 46.6465C25.2613 46.8475 25.3038 46.9278 25.3322 47.0129C26.5731 51.0452 28.23 54.9192 29.7876 58.831C31.591 63.362 33.5646 67.815 35.829 72.1381C35.8739 72.2208 35.9046 72.3153 35.9613 72.3886C36.5451 73.1544 36.6302 74.0384 36.6397 74.9626C36.642 75.2911 36.6562 75.6173 36.6728 75.9458C36.6988 76.4682 36.7366 76.9906 36.7626 77.5106C36.7626 77.6311 36.7579 77.754 36.6633 77.9029ZM43.4918 88.4588C42.1327 87.2581 40.7949 86.0337 39.4098 84.8661C39.2207 84.7054 39.034 84.5446 38.8426 84.3863C38.2753 83.9207 38.0626 83.455 38.0271 82.7388C37.7789 77.5082 37.4835 72.2799 37.2046 67.0516C36.902 61.3695 36.5995 55.6874 36.2922 50.0052C36.1197 46.7955 35.9424 43.588 35.7651 40.3783C35.7604 40.3074 35.7651 40.2341 35.7651 40.1632C35.784 40.1632 35.803 40.1632 35.8195 40.1655C35.829 40.1655 35.836 40.1655 35.8455 40.1655C35.855 40.1844 35.8668 40.201 35.8762 40.2199L35.8786 40.2223C37.2944 42.6497 38.6889 45.0913 40.1402 47.4951C40.6696 48.372 40.9674 49.2536 41.0242 50.2841C41.1707 52.9456 41.4071 55.5999 41.6174 58.2566C41.8136 60.7431 42.024 63.2296 42.2225 65.7161C42.3998 67.9403 42.5723 70.1621 42.7402 72.3862C42.9127 74.6671 43.0711 76.948 43.2412 79.2289C43.4138 81.5287 43.5863 83.8285 43.766 86.1259C43.8132 86.7286 43.8818 87.329 43.9385 87.9317C43.9645 88.2106 43.9905 88.4919 44.0307 88.9173C43.7896 88.7141 43.6383 88.5888 43.4918 88.4588ZM53.4331 87.8986C53.3882 88.3406 53.2747 88.3973 52.8658 88.4375C51.5328 88.5722 50.1997 88.7259 48.8643 88.8582C47.6045 88.9835 46.3447 89.0946 45.0825 89.208C44.9714 89.2175 44.8579 89.2104 44.7516 89.2104C43.7447 76.0002 42.7378 62.7971 41.7285 49.5798C41.8278 49.5278 41.8609 49.4994 41.894 49.4971C43.643 49.4262 45.2479 48.8022 46.8646 48.2183C49.3559 47.3178 51.7408 46.1738 54.1233 45.0251C55.5013 44.3609 56.884 43.7062 58.2667 43.0491C58.399 42.9853 58.5456 42.9475 58.7772 42.8648C58.7465 43.2902 58.7512 43.659 58.6921 44.0182C58.3281 46.2755 57.9287 48.5256 57.5812 50.7852C57.1912 53.3048 56.8131 55.8292 56.4845 58.3582C56.0898 61.3931 55.7305 64.4351 55.3973 67.477C55.0853 70.3323 54.8134 73.1922 54.5464 76.0522C54.2793 78.9122 54.0476 81.7769 53.7876 84.6368C53.6884 85.7241 53.5418 86.809 53.4331 87.8986ZM63.4714 74.2913C63.2421 75.4188 63.1286 76.5675 62.9537 77.7044C62.9324 77.8414 62.8734 77.9951 62.7812 78.0967C62.4597 78.4678 62.1217 78.8247 61.779 79.1769C60.3821 80.6116 58.9592 82.0227 57.586 83.4834C57.5221 83.5496 57.4631 83.6205 57.3992 83.6867C56.5507 84.6037 55.7494 85.5634 54.9269 86.5064C54.8915 86.549 54.8536 86.5915 54.8182 86.6317C54.7236 86.7404 54.6267 86.8492 54.5322 86.9555C54.4991 86.939 54.466 86.9248 54.4329 86.9082C54.4306 86.9059 54.4258 86.9059 54.4235 86.9035C54.5109 85.9084 54.5889 84.911 54.6858 83.9159C54.7804 82.9539 54.8749 81.9896 54.9695 81.0276C55.0073 80.6352 55.0475 80.2452 55.0876 79.8529C55.1727 79.0067 55.2578 78.1629 55.3476 77.3167C55.6644 74.3102 55.9953 71.3037 56.3238 68.2996C56.3994 67.6189 56.4727 66.9405 56.546 66.2598C56.5625 66.1061 56.5791 65.9501 56.5956 65.7965C56.7043 64.7991 56.8154 63.804 56.9265 62.8089C57.0045 62.0975 57.0849 61.386 57.1676 60.6746C57.2078 60.3248 57.2456 59.9749 57.2858 59.6251C57.7278 55.8717 58.1887 52.123 58.8978 48.4074C59.1885 46.8876 59.3752 45.3466 59.595 43.8126C59.6423 43.477 59.6494 43.1342 59.6399 42.7939C59.6329 42.5646 59.6896 42.411 59.8739 42.2621C60.4105 41.8201 60.9305 41.3639 61.4434 40.9006C63.9322 38.6505 66.1753 36.1592 68.3286 33.5829C68.9809 32.8029 69.6569 32.0418 70.392 31.1886C70.4109 31.3635 70.4345 31.4438 70.4251 31.5171C70.2124 33.2425 70.0138 34.968 69.7751 36.691C69.5056 38.6363 69.1984 40.5792 68.9076 42.5221C68.624 44.4271 68.3829 46.3416 68.0402 48.2373C67.7471 49.8729 67.3193 51.4825 66.986 53.111C66.2817 56.5548 65.7144 60.0246 65.315 63.5156C64.9013 67.139 64.197 70.7152 63.4714 74.2913ZM64.041 77.0756C63.9984 76.0853 64.1568 75.1989 64.3506 74.3102C64.9013 71.8001 65.4757 69.2946 65.9366 66.7679C66.3053 64.7423 66.492 62.686 66.8088 60.6509C67.1988 58.1313 67.6384 55.6164 68.0591 53.1016C68.0733 53.0165 68.1182 52.9361 68.182 52.7636C68.3309 53.0377 68.4326 53.2316 68.5413 53.4254C69.8909 55.8363 71.3729 58.162 72.9967 60.398C74.3747 62.2936 76.067 63.8867 77.8633 65.3711C78.2533 65.6949 78.7024 65.9454 79.1373 66.2385C74.1147 69.843 69.0967 73.4451 64.041 77.0756ZM84.29 66.5032C82.6615 67.7938 81.033 69.089 79.395 70.3677C78.4992 71.0674 77.6128 71.7717 76.8872 72.6557C76.8092 72.7502 76.691 72.8401 76.5752 72.8708C74.2825 73.4924 72.0063 74.166 69.7562 74.92C69.2504 75.0902 68.7446 75.258 68.2435 75.4377C68.1938 75.4566 68.1371 75.4566 68.0851 75.466C68.0733 75.4424 68.0591 75.4188 68.0473 75.3951C68.4562 75.0949 68.8675 74.7924 69.2764 74.4922C72.2805 72.2917 75.287 70.0959 78.2864 67.8883C78.8655 67.4628 79.4162 67.0019 79.9741 66.5481C80.1395 66.4134 80.2955 66.3189 80.5248 66.3118C80.7659 66.3047 81.007 66.2929 81.248 66.2834C82.2904 66.2432 83.3351 66.1983 84.3775 66.1534C84.4318 66.151 84.4885 66.1629 84.6138 66.177C84.4838 66.3118 84.3964 66.4205 84.29 66.5032ZM93.9642 45.2166C93.3355 46.6938 92.6997 48.1687 92.0757 49.6483C90.7167 52.8676 89.3552 56.0868 88.0103 59.3131C87.306 61.0055 86.6371 62.712 85.9493 64.4091C85.8713 64.6005 85.7767 64.7872 85.6964 64.9787C85.6089 65.1914 85.4718 65.286 85.2236 65.2978C84.186 65.3498 83.1484 65.4254 82.1131 65.4987C82.0138 65.5058 81.9146 65.5176 81.8153 65.5318C81.6333 65.553 81.4513 65.5767 81.267 65.5909C81.0495 65.605 80.832 65.5932 80.5319 65.5932C80.5531 65.5507 80.5721 65.5105 80.5933 65.468C80.6051 65.442 80.617 65.4183 80.6311 65.3923C83.8409 59.0319 86.6063 52.5627 88.8872 45.8689C89.0196 45.8382 89.1519 45.8098 89.2843 45.7791C90.8892 45.4198 92.5012 45.0606 94.1462 44.6942C94.0848 44.8762 94.0328 45.0511 93.9642 45.2166Z" fill="black"/>
<path d="M38.6319 33.694C40.5819 30.1534 42.442 26.5678 44.1344 22.8971C44.1746 22.812 44.236 22.7222 44.236 22.6371C44.236 22.5213 44.184 22.4078 44.1557 22.292C44.0375 22.3274 43.8744 22.3298 43.8129 22.4078C43.6262 22.6418 43.4537 22.8971 43.3189 23.1642C42.2411 25.3056 41.1491 27.4399 40.1092 29.6003C39.4781 30.9097 38.9297 32.257 38.3506 33.59C38.2655 33.7839 38.223 33.9966 38.1592 34.1999C38.1946 34.2164 38.2324 34.2306 38.2679 34.2471C38.3908 34.0651 38.5255 33.8879 38.6319 33.694Z" fill="black"/>
<path d="M54.5485 63.8516C54.4752 64.1754 54.3854 64.4945 54.3311 64.8206C53.9151 67.3355 53.4683 69.8457 53.1043 72.3676C52.79 74.5351 52.5654 76.7143 52.3102 78.8888C52.2511 79.3876 52.3362 79.6003 52.5631 79.5932C52.9318 79.5814 52.9318 79.2717 52.9743 79.0165C53.1233 78.123 53.2982 77.2319 53.4045 76.3314C53.7898 73.0696 54.1609 69.8055 54.5178 66.539C54.6147 65.6597 54.6383 64.7734 54.6974 63.8894C54.6478 63.8776 54.5981 63.8657 54.5485 63.8516Z" fill="black"/>
<path d="M65.4378 16.0494C65.9838 18.8314 66.6976 21.5684 67.5981 24.2559C67.669 24.4709 67.7376 24.6908 67.8534 24.8822C67.9054 24.9697 68.0803 25.0548 68.1701 25.0311C68.2599 25.0075 68.3403 24.8539 68.371 24.7428C68.3994 24.6411 68.3639 24.5182 68.3379 24.4095C68.1583 23.6366 67.9834 22.8637 67.7896 22.0955C67.2743 20.0652 66.7425 18.0396 66.2272 16.0116C65.7356 14.0734 65.2652 12.1282 64.776 10.19C64.7051 9.91349 64.5845 9.6464 64.4876 9.37695C64.4214 9.39586 64.3552 9.41241 64.2891 9.43132C64.3505 10.0269 64.3718 10.632 64.4805 11.2182C64.7831 12.8325 65.1211 14.4374 65.4378 16.0494Z" fill="black"/>
<path d="M84.8761 50.5035C84.7579 50.4515 84.5594 50.4231 84.479 50.4917C84.3112 50.6311 84.1623 50.8202 84.0654 51.0188C83.6754 51.8129 83.2783 52.6071 82.9332 53.4249C82.0256 55.5805 81.1416 57.7456 80.2552 59.9107C80.0472 60.4165 79.8511 60.927 79.6714 61.4447C79.5816 61.7046 79.5414 61.9812 79.48 62.2506C79.5391 62.2696 79.5982 62.2885 79.6573 62.305C79.7542 62.1301 79.8605 61.9599 79.9432 61.7779C80.7469 60.0288 81.5505 58.2821 82.3423 56.5283C83.1956 54.6375 84.037 52.7418 84.8761 50.8462C84.921 50.7446 84.921 50.5224 84.8761 50.5035Z" fill="black"/>
<path d="M14.2398 39.7733C14.2682 39.8631 14.3037 39.9506 14.3462 40.0357C14.4266 40.1964 14.5447 40.3618 14.7315 40.2578C14.8307 40.2035 14.8922 40.0191 14.904 39.8868C14.9182 39.7426 14.8686 39.5889 14.8307 39.4424C14.5164 38.237 14.2469 37.015 13.8687 35.8308C13.1242 33.4908 12.3182 31.1698 11.5335 28.844C11.4697 28.6549 11.3822 28.4729 11.2711 28.2129C11.1742 28.3571 11.1364 28.3878 11.1388 28.4162C11.1435 28.5083 11.1577 28.6029 11.1742 28.6951C11.8951 32.4697 13.0888 36.1144 14.2398 39.7733Z" fill="black"/>
<path d="M19.4069 63.8582C18.8373 60.9888 18.2677 58.117 17.6933 55.2476C17.6555 55.0538 17.5917 54.8624 17.5421 54.6709C17.5184 54.6756 17.4948 54.6827 17.4711 54.6874C17.4711 54.8884 17.4475 55.0916 17.4759 55.2902C17.7761 57.4789 18.0668 59.6699 18.4024 61.8515C18.5182 62.615 18.7451 63.3619 18.9248 64.1135C18.9673 64.2955 19.0122 64.5248 19.2651 64.4822C19.5275 64.4373 19.4731 64.2152 19.4424 64.0261C19.4306 63.9693 19.4188 63.915 19.4069 63.8582Z" fill="black"/>
<path d="M23.1388 32.7695C23.2002 32.9066 23.2664 33.0508 23.3633 33.1595C23.4271 33.2328 23.5902 33.3084 23.6446 33.2777C23.7344 33.221 23.8337 33.0768 23.8242 32.9799C23.8029 32.7577 23.7297 32.5379 23.654 32.3252C22.581 29.295 21.1911 26.3973 19.8841 23.464C19.8273 23.334 19.7352 23.2182 19.6595 23.0977C19.6193 23.1118 19.5792 23.126 19.5366 23.1402C19.5768 23.3198 19.6004 23.5018 19.6572 23.6744C20.6688 26.7636 21.7868 29.8103 23.1388 32.7695Z" fill="black"/>
<path d="M89.7287 27.3432C88.8565 29.1419 87.982 30.9383 87.1311 32.7464C86.8332 33.3775 86.5969 34.0346 86.3416 34.6846C86.2731 34.8595 86.2163 35.0769 86.4362 35.1833C86.6678 35.2968 86.7694 35.0958 86.864 34.9304C86.9278 34.8146 86.9869 34.6964 87.0436 34.5782C87.7598 33.0395 88.4949 31.5103 89.178 29.9574C89.5112 29.201 89.7476 28.4021 90.0194 27.6174C90.0903 27.4094 90.121 27.1872 90.1707 26.9721C90.121 26.9461 90.0714 26.9225 90.0218 26.8965C89.9225 27.0454 89.8067 27.1848 89.7287 27.3432Z" fill="black"/>
<path d="M33.6897 14.686C34.2593 16.7399 34.81 18.7986 35.3726 20.855C35.4364 21.0913 35.5215 21.323 35.6066 21.5522C35.668 21.7177 35.7531 21.8666 36.0415 21.7792C36.0415 21.6019 36.0793 21.3986 36.0368 21.2143C35.1528 17.4041 34.2924 13.5869 32.5197 10.0557C32.5126 10.7789 32.7206 11.4596 32.9239 12.1404C33.1768 12.9889 33.4533 13.8327 33.6897 14.686Z" fill="black"/>
<path d="M31.8605 58.8875C32.104 59.521 32.4207 60.1261 32.7304 60.7311C32.884 61.0313 33.1038 61.1093 33.2669 60.9817C33.4867 60.8091 33.378 60.6153 33.2905 60.4215C33.1109 60.0268 32.9123 59.6392 32.7634 59.235C31.7424 56.4885 30.596 53.794 29.3079 51.1609C29.1802 50.9009 29.0266 50.6504 28.8871 50.3975C28.8328 50.4211 28.776 50.4447 28.7217 50.4684C28.7713 50.6433 28.8068 50.8229 28.8706 50.9907C29.8609 53.6261 30.8489 56.2616 31.8605 58.8875Z" fill="black"/>
</svg>
