<svg width="414" height="173" viewBox="0 0 414 173" fill="none" xmlns="http://www.w3.org/2000/svg">
<g clip-path="url(#clip0)">
<path d="M27.4936 102.55C-38.509 100.777 -60.3051 78.6574 -62.9528 67.819L-54.7284 -22.7428L614.211 -31.9006C608.718 4.97927 487.019 236.221 342.967 157.321C222.988 91.6062 109.997 104.765 27.4936 102.55Z" fill="#FFFBF9"/>
<g clip-path="url(#clip1)">
<path fill-rule="evenodd" clip-rule="evenodd" d="M447.587 218.529C448.54 217.505 449.474 216.444 450.463 215.438C452.674 213.209 454.92 210.998 457.113 208.769C457.778 208.086 458.515 207.673 459.45 207.421C466.298 205.624 473.129 203.772 479.959 201.921C480.606 201.741 481.235 201.561 482.026 201.328C481.81 200.501 481.649 199.782 481.451 199.081C479.635 192.305 477.838 185.51 476.005 178.752C475.753 177.817 475.735 176.99 476.005 176.056C477.946 168.92 479.833 161.784 481.738 154.648C481.81 154.36 481.882 154.055 482.008 153.533C481.451 153.336 480.894 153.12 480.336 152.976C473.506 151.143 466.658 149.291 459.827 147.476C458.659 147.17 457.724 146.649 456.862 145.768C451.973 140.807 447.03 135.9 442.105 130.993C441.637 130.526 441.134 130.095 440.559 129.537C439.984 130.077 439.48 130.508 439.013 130.993C434.088 135.918 429.145 140.825 424.256 145.768C423.393 146.631 422.458 147.17 421.29 147.476C414.496 149.273 407.719 151.089 400.943 152.922C400.368 153.084 399.792 153.264 399.109 153.48C399.307 154.306 399.469 155.025 399.649 155.726C401.446 162.503 403.244 169.297 405.095 176.056C405.347 176.99 405.347 177.835 405.095 178.752C403.244 185.528 401.446 192.305 399.649 199.081C399.451 199.782 399.289 200.483 399.074 201.31C400.278 201.651 401.338 201.975 402.399 202.262C408.816 203.988 415.233 205.696 421.65 207.457C422.333 207.637 423.088 207.924 423.591 208.41C426.844 211.591 430.062 214.845 433.279 218.062C433.405 218.188 433.459 218.368 433.549 218.529C432.812 218.529 432.075 218.529 431.338 218.529C428.516 215.689 425.712 212.813 422.854 210.027C422.279 209.47 421.416 209.111 420.607 208.895C413.363 206.918 406.102 204.977 398.858 203.017C398.283 202.856 397.707 202.658 397.024 202.46C398.085 198.524 399.092 194.713 400.098 190.921C401.177 186.876 402.237 182.814 403.351 178.788C403.621 177.799 403.603 176.9 403.333 175.894C401.356 168.65 399.433 161.388 397.492 154.127C397.33 153.551 397.222 152.958 397.06 152.203C397.779 151.988 398.408 151.808 399.056 151.628C406.245 149.705 413.435 147.746 420.643 145.858C421.703 145.571 422.53 145.085 423.285 144.313C428.498 139.064 433.728 133.851 438.941 128.603C439.408 128.135 439.75 127.524 440.253 126.823C441.062 127.578 441.547 128.01 441.997 128.477C447.137 133.618 452.296 138.74 457.401 143.917C458.479 145.014 459.684 145.661 461.158 146.056C468.186 147.889 475.196 149.777 482.224 151.664C482.799 151.826 483.374 152.024 484.075 152.239C483.77 153.408 483.518 154.486 483.23 155.529C481.415 162.305 479.617 169.099 477.766 175.858C477.496 176.846 477.479 177.745 477.748 178.752C479.725 185.995 481.649 193.257 483.59 200.519C483.752 201.112 483.877 201.705 484.039 202.442C483.41 202.64 482.853 202.838 482.26 202.999C474.998 204.959 467.754 206.918 460.493 208.841C459.45 209.111 458.587 209.56 457.832 210.351C455.172 213.101 452.458 215.779 449.762 218.493C449.061 218.529 448.324 218.529 447.587 218.529Z" fill="#FADBC3"/>
<path fill-rule="evenodd" clip-rule="evenodd" d="M244.223 0.731669C244.672 0.983317 245.194 1.16305 245.553 1.50456C247.243 3.12227 248.878 4.81188 250.532 6.44756C250.964 6.87895 251.413 7.27439 251.952 7.79565C252.491 7.29236 252.995 6.86098 253.462 6.39364C258.387 1.46862 263.33 -3.42046 268.219 -8.38144C269.118 -9.29814 270.106 -9.83735 271.347 -10.1609C278.015 -11.9044 284.666 -13.7199 291.316 -15.4993C291.963 -15.6791 292.611 -15.8768 293.437 -16.1285C293.258 -16.9014 293.096 -17.6024 292.916 -18.2854C291.101 -25.1157 289.267 -31.964 287.416 -38.7943C287.182 -39.6571 287.182 -40.448 287.416 -41.3108C289.285 -48.1411 291.083 -54.9714 292.916 -61.8197C293.096 -62.4668 293.24 -63.1139 293.437 -63.9227C292.88 -64.1205 292.377 -64.3182 291.856 -64.462C285.025 -66.2954 278.195 -68.1468 271.347 -69.9442C270.106 -70.2678 269.118 -70.825 268.219 -71.7417C263.366 -76.6487 258.477 -81.5019 253.606 -86.4089C253.138 -86.8762 252.815 -87.5233 252.383 -88.1345C251.629 -87.5233 251.233 -87.2537 250.91 -86.9302C249.166 -85.2046 247.44 -83.4431 245.679 -81.7175C245.248 -81.3041 244.708 -80.9986 244.223 -80.6391C244.223 -81.5019 244.223 -82.3646 244.223 -83.2274C244.708 -83.533 245.284 -83.7487 245.697 -84.1441C247.333 -85.7259 248.932 -87.3615 250.55 -88.9613C250.981 -89.3927 251.431 -89.8061 251.97 -90.3094C252.509 -89.8061 253.013 -89.3747 253.462 -88.9074C258.746 -83.6408 264.013 -78.3743 269.262 -73.0898C270.035 -72.3169 270.861 -71.8315 271.922 -71.5619C279.13 -69.6746 286.319 -67.7333 293.509 -65.7921C294.156 -65.6303 294.785 -65.4326 295.54 -65.2169C294.983 -63.0779 294.48 -61.1367 293.959 -59.1775C292.377 -53.2818 290.831 -47.4041 289.213 -41.5265C288.944 -40.5379 288.944 -39.6392 289.213 -38.6326C291.191 -31.3888 293.114 -24.1271 295.037 -16.8654C295.199 -16.2723 295.325 -15.6791 295.486 -14.9601C294.857 -14.7624 294.282 -14.5647 293.707 -14.4029C286.463 -12.4437 279.202 -10.4844 271.94 -8.56116C270.897 -8.27357 270.052 -7.80625 269.28 -7.03334C264.085 -1.78478 258.836 3.42785 253.624 8.67642C253.156 9.16173 252.815 9.77287 252.366 10.402C251.647 9.8268 251.251 9.55716 250.91 9.23362C249.166 7.50807 247.441 5.74657 245.661 4.02101C245.23 3.6076 244.69 3.32002 244.205 2.96052C244.223 2.22357 244.223 1.4866 244.223 0.731669Z" fill="#FADBC3"/>
<path fill-rule="evenodd" clip-rule="evenodd" d="M244.223 109.46C244.672 109.711 245.194 109.891 245.553 110.233C247.243 111.85 248.878 113.522 250.532 115.176C250.964 115.607 251.413 116.003 251.952 116.524C252.491 116.02 252.995 115.589 253.462 115.122C258.351 110.251 263.24 105.398 268.075 100.473C269.064 99.4659 270.16 98.8548 271.508 98.4953C278.123 96.7697 284.702 94.9723 291.298 93.2108C291.945 93.031 292.575 92.8333 293.419 92.5817C293.24 91.8088 293.078 91.1078 292.898 90.4247C291.083 83.6483 289.285 76.8719 287.434 70.0955C287.164 69.1069 287.164 68.2082 287.434 67.2196C289.267 60.5151 291.047 53.7926 292.844 47.0701C293.042 46.3691 293.222 45.6501 293.437 44.8053C292.844 44.6076 292.359 44.4099 291.838 44.2661C285.007 42.4327 278.177 40.5813 271.329 38.7838C270.088 38.4603 269.1 37.9031 268.201 36.9864C263.348 32.0793 258.459 27.2262 253.588 22.3371C253.12 21.8698 252.797 21.2227 252.366 20.6116C251.611 21.2227 251.215 21.4923 250.892 21.8159C249.148 23.5414 247.423 25.3029 245.661 27.0285C245.23 27.4419 244.69 27.7475 244.205 28.107C244.205 27.2442 244.205 26.3814 244.205 25.5186C244.654 25.267 245.176 25.0872 245.553 24.7277C247.243 23.11 248.878 21.4384 250.532 19.7847C250.964 19.3533 251.413 18.9579 251.952 18.4366C252.491 18.9399 252.995 19.3713 253.462 19.8387C258.746 25.1052 264.013 30.3718 269.262 35.6563C270.035 36.4292 270.861 36.9145 271.922 37.1841C279.13 39.0714 286.319 41.0127 293.509 42.954C294.156 43.1157 294.785 43.3134 295.54 43.5471C294.983 45.6861 294.48 47.6273 293.959 49.5865C292.377 55.4822 290.831 61.3599 289.213 67.2376C288.944 68.2262 288.944 69.1249 289.213 70.1315C291.191 77.3752 293.114 84.6369 295.037 91.8986C295.199 92.4918 295.307 93.085 295.486 93.8039C294.839 94.0017 294.282 94.1994 293.707 94.3611C286.445 96.3204 279.202 98.2616 271.94 100.203C270.897 100.472 270.052 100.958 269.28 101.731C264.085 106.979 258.836 112.192 253.624 117.44C253.138 117.908 252.815 118.537 252.366 119.166C251.647 118.591 251.251 118.321 250.928 117.998C249.184 116.272 247.458 114.511 245.679 112.785C245.248 112.372 244.708 112.066 244.223 111.725C244.223 110.934 244.223 110.197 244.223 109.46Z" fill="#FADBC3"/>
<path fill-rule="evenodd" clip-rule="evenodd" d="M259.016 218.529C259.321 218.152 259.591 217.738 259.933 217.397C262.791 214.521 265.684 211.663 268.542 208.769C269.207 208.086 269.944 207.655 270.879 207.403C277.709 205.605 284.54 203.754 291.37 201.921C292.017 201.741 292.646 201.543 293.455 201.31C293.275 200.573 293.132 199.926 292.952 199.278C291.19 192.682 289.447 186.085 287.613 179.506C287.2 178.015 287.236 176.667 287.631 175.193C289.447 168.614 291.19 162.017 292.952 155.421C293.114 154.827 293.221 154.234 293.383 153.533C292.88 153.354 292.449 153.138 291.981 153.012C285.097 151.161 278.195 149.291 271.293 147.476C270.052 147.152 269.082 146.595 268.165 145.678C263.33 140.771 258.423 135.918 253.57 131.029C253.102 130.562 252.779 129.915 252.347 129.304C251.592 129.915 251.197 130.184 250.855 130.508C249.112 132.233 247.368 133.995 245.625 135.72C245.193 136.134 244.654 136.439 244.169 136.799C244.169 135.936 244.169 135.073 244.169 134.211C244.654 133.905 245.229 133.689 245.643 133.294C247.279 131.712 248.878 130.076 250.496 128.477C250.927 128.045 251.377 127.632 251.916 127.129C252.455 127.632 252.959 128.063 253.408 128.531C258.692 133.797 263.959 139.064 269.207 144.348C269.98 145.121 270.807 145.606 271.868 145.876C279.076 147.763 286.265 149.705 293.455 151.646C294.102 151.826 294.731 152.005 295.45 152.221C295.271 152.976 295.145 153.569 295.001 154.162C293.078 161.424 291.136 168.668 289.177 175.93C288.908 176.918 288.908 177.817 289.177 178.823C291.154 186.067 293.078 193.329 295.001 200.591C295.163 201.184 295.289 201.777 295.45 202.496C294.821 202.694 294.246 202.891 293.671 203.053C286.409 205.012 279.165 206.972 271.904 208.895C270.861 209.164 269.998 209.632 269.243 210.405C266.583 213.155 263.869 215.833 261.191 218.547C260.49 218.529 259.753 218.529 259.016 218.529Z" fill="#FADBC3"/>
<path fill-rule="evenodd" clip-rule="evenodd" d="M244.223 203.377C244.762 203.736 245.373 204.024 245.822 204.455C247.854 206.414 249.831 208.428 251.898 210.513C252.401 210.063 252.832 209.74 253.21 209.362C256.481 206.109 259.753 202.855 263.006 199.566C263.761 198.793 264.606 198.29 265.648 198.02C269.998 196.888 274.33 195.72 278.662 194.551C279.255 194.389 279.83 194.21 280.603 193.976C280.477 193.329 280.405 192.754 280.244 192.179C279.057 187.721 277.889 183.245 276.667 178.805C276.379 177.817 276.397 176.9 276.685 175.912C277.889 171.526 279.039 167.122 280.208 162.718C280.369 162.143 280.477 161.55 280.639 160.867C280.154 160.687 279.758 160.525 279.363 160.418C274.851 159.195 270.34 157.955 265.81 156.787C264.624 156.481 263.707 155.924 262.862 155.061C259.807 151.934 256.697 148.86 253.605 145.786C253.138 145.319 252.653 144.852 252.096 144.312C251.646 144.672 251.251 144.941 250.909 145.283C249.202 146.973 247.53 148.68 245.804 150.37C245.337 150.837 244.762 151.197 244.241 151.61C244.241 150.747 244.241 149.884 244.241 149.022C244.726 148.698 245.283 148.446 245.715 148.033C247.35 146.451 248.95 144.816 250.568 143.216C250.999 142.785 251.448 142.389 251.988 141.868C252.491 142.317 252.958 142.713 253.372 143.126C256.859 146.613 260.364 150.064 263.797 153.587C264.66 154.468 265.612 154.989 266.763 155.277C271.472 156.499 276.163 157.775 280.855 159.033C281.448 159.195 282.023 159.393 282.742 159.609C282.616 160.202 282.526 160.723 282.383 161.244C281.088 166.115 279.812 171.005 278.464 175.876C278.177 176.936 278.195 177.889 278.482 178.949C279.812 183.82 281.106 188.691 282.401 193.581C282.526 194.048 282.616 194.533 282.742 195.108C282.221 195.306 281.789 195.504 281.34 195.63C276.415 196.96 271.49 198.308 266.547 199.602C265.487 199.872 264.66 200.375 263.905 201.148C260.454 204.653 256.949 208.122 253.462 211.609C253.03 212.04 252.581 212.454 251.988 213.011C250.46 211.501 249.022 210.009 247.53 208.571C246.469 207.547 245.355 206.612 244.259 205.624C244.223 204.851 244.223 204.114 244.223 203.377Z" fill="#FADBC3"/>
<path fill-rule="evenodd" clip-rule="evenodd" d="M244.223 94.6666C244.762 95.0261 245.373 95.3137 245.822 95.7451C247.854 97.7043 249.831 99.7175 251.898 101.803C252.401 101.353 252.832 101.03 253.21 100.652C256.481 97.3987 259.753 94.1454 262.988 90.8381C263.761 90.0651 264.588 89.5619 265.63 89.2922C269.98 88.1598 274.312 86.9735 278.644 85.8231C279.237 85.6614 279.812 85.4816 280.585 85.2659C280.459 84.6188 280.387 84.0437 280.226 83.4685C279.039 79.0108 277.871 74.5351 276.649 70.0954C276.361 69.1068 276.397 68.1901 276.667 67.2015C277.871 62.8157 279.021 58.412 280.19 54.0082C280.351 53.433 280.459 52.8399 280.621 52.1568C280.136 51.9771 279.74 51.8153 279.345 51.7075C274.833 50.4852 270.322 49.2449 265.792 48.0766C264.606 47.771 263.689 47.2138 262.844 46.3511C259.789 43.2235 256.679 40.1498 253.587 37.0762C253.12 36.6088 252.635 36.1415 252.078 35.6023C251.628 35.9617 251.233 36.2314 250.891 36.5729C249.184 38.2625 247.512 39.9701 245.786 41.6597C245.319 42.127 244.744 42.4865 244.223 42.8999C244.223 42.0371 244.223 41.1744 244.223 40.3116C244.708 39.9881 245.265 39.7184 245.697 39.323C247.332 37.7412 248.932 36.1055 250.55 34.5058C250.981 34.0744 251.43 33.679 251.97 33.1577C252.473 33.6071 252.94 33.9846 253.354 34.416C256.841 37.903 260.346 41.3541 263.779 44.8771C264.642 45.7579 265.594 46.2791 266.745 46.5667C271.454 47.789 276.145 49.0652 280.837 50.3234C281.412 50.4852 282.005 50.6829 282.742 50.9166C282.58 51.5637 282.455 52.1568 282.311 52.732C281.035 57.5492 279.758 62.3664 278.446 67.1835C278.159 68.244 278.177 69.1967 278.464 70.2572C279.794 75.1283 281.088 79.9994 282.383 84.8885C282.508 85.3558 282.598 85.8231 282.724 86.4163C282.203 86.596 281.771 86.8117 281.322 86.9376C276.397 88.2677 271.472 89.6158 266.529 90.9099C265.469 91.1796 264.642 91.6828 263.887 92.4558C260.436 95.9608 256.931 99.4299 253.444 102.917C253.012 103.348 252.563 103.762 251.97 104.319C250.442 102.809 249.004 101.317 247.512 99.8792C246.452 98.8547 245.337 97.92 244.241 96.9314C244.223 96.1405 244.223 95.4036 244.223 94.6666Z" fill="#FADBC3"/>
<path fill-rule="evenodd" clip-rule="evenodd" d="M244.223 80.97C244.96 81.6171 245.751 82.2102 246.434 82.8933C248.231 84.6548 249.975 86.4702 251.844 88.3396C252.33 87.9441 252.725 87.6745 253.049 87.351C254.756 85.6614 256.464 83.9717 258.135 82.2462C258.836 81.5092 259.627 81.0419 260.634 80.7903C263.366 80.1072 266.098 79.3343 268.92 78.5614C268.848 78.0581 268.83 77.6447 268.722 77.2673C268.147 75.0564 267.608 72.8455 266.961 70.6706C266.547 69.3225 266.529 68.0823 266.943 66.7162C267.716 64.1818 268.327 61.6114 269.046 58.9332C268.543 58.7355 268.111 58.5198 267.662 58.394C265.415 57.7649 263.168 57.1178 260.885 56.5786C259.681 56.3089 258.764 55.7338 257.938 54.853C256.068 52.8938 254.163 50.9885 252.168 48.9574C251.665 49.3528 251.269 49.6224 250.946 49.946C249.202 51.6715 247.476 53.433 245.697 55.1586C245.284 55.572 244.726 55.8416 244.223 56.1831C244.223 55.4462 244.223 54.7092 244.223 53.9723C244.96 53.3252 245.733 52.732 246.434 52.049C248.231 50.2875 249.993 48.4721 251.862 46.6027C252.294 46.9622 252.689 47.2318 253.013 47.5554C254.972 49.4966 256.967 51.4378 258.872 53.433C259.663 54.2598 260.562 54.7811 261.676 55.0687C264.48 55.7697 267.266 56.5426 270.052 57.2976C270.34 57.3695 270.628 57.4953 271.041 57.6391C270.915 58.2682 270.807 58.8613 270.664 59.4185C270.052 61.7372 269.513 64.0739 268.776 66.3567C268.291 67.8845 268.291 69.3225 268.758 70.8503C269.459 73.1331 270.034 75.4698 270.646 77.7885C270.807 78.3637 270.915 78.9569 271.077 79.7298C269.531 80.1432 268.057 80.5386 266.583 80.952C264.444 81.5452 262.108 81.7609 260.256 82.8393C258.351 83.9538 256.913 85.895 255.295 87.4948C254.253 88.5373 253.246 89.5978 252.132 90.7482C251.629 90.3527 251.251 90.0831 250.91 89.7416C249.166 88.016 247.44 86.2545 245.679 84.529C245.266 84.1335 244.708 83.8639 244.205 83.5404C244.223 82.6956 244.223 81.8328 244.223 80.97Z" fill="#FADBC3"/>
<path fill-rule="evenodd" clip-rule="evenodd" d="M244.223 189.68C244.96 190.309 245.751 190.92 246.434 191.603C248.231 193.365 249.975 195.18 251.862 197.068C252.383 196.618 252.797 196.295 253.174 195.917C254.882 194.228 256.535 192.484 258.297 190.848C258.89 190.291 259.681 189.824 260.472 189.59C263.24 188.763 266.026 188.044 268.938 187.253C268.866 186.75 268.848 186.355 268.74 185.959C268.165 183.748 267.626 181.538 266.978 179.363C266.565 178.015 266.547 176.756 266.96 175.408C267.733 172.874 268.345 170.303 269.064 167.643C268.56 167.446 268.129 167.23 267.679 167.104C265.433 166.475 263.186 165.828 260.903 165.307C259.699 165.037 258.782 164.462 257.955 163.581C256.086 161.622 254.163 159.716 252.185 157.685C251.7 158.081 251.305 158.35 250.963 158.674C249.22 160.399 247.494 162.161 245.715 163.887C245.301 164.3 244.744 164.57 244.241 164.911C244.241 164.174 244.241 163.437 244.241 162.7C244.978 162.053 245.751 161.46 246.452 160.777C248.249 159.015 250.01 157.2 251.88 155.331C252.311 155.69 252.707 155.96 253.03 156.283C254.989 158.225 256.985 160.166 258.89 162.161C259.681 162.988 260.58 163.509 261.694 163.797C264.498 164.498 267.284 165.271 270.07 166.026C270.358 166.097 270.627 166.223 271.041 166.349C270.933 166.924 270.879 167.446 270.735 167.967C270.088 170.411 269.477 172.856 268.74 175.264C268.309 176.666 268.273 177.979 268.704 179.399C269.423 181.753 270.016 184.144 270.645 186.517C270.807 187.092 270.915 187.703 271.077 188.44C269.585 188.853 268.183 189.249 266.763 189.644C264.57 190.255 262.161 190.471 260.256 191.567C258.297 192.718 256.823 194.695 255.169 196.349C254.181 197.337 253.246 198.416 252.221 199.53C251.646 199.063 251.251 198.793 250.927 198.47C249.184 196.744 247.458 194.983 245.697 193.257C245.283 192.862 244.726 192.592 244.223 192.268C244.223 191.406 244.223 190.561 244.223 189.68Z" fill="#FADBC3"/>
<path fill-rule="evenodd" clip-rule="evenodd" d="M244.223 64.3436C244.528 64.2717 244.816 64.1998 245.121 64.1459C247.566 63.7684 249.687 62.7978 251.215 60.7667C251.359 60.569 251.592 60.4432 251.772 60.2994C251.826 60.2634 251.88 60.2634 252.113 60.2274C253.102 61.1442 254.037 62.3484 255.259 63.0674C256.427 63.7505 257.901 63.9302 259.411 64.3796C259.052 65.8715 258.476 67.2914 258.476 68.7114C258.476 70.0775 259.07 71.4436 259.447 73.0433C256.499 73.6005 253.857 74.661 252.149 77.4291C250.873 76.2787 249.921 74.9846 248.626 74.3195C247.314 73.6365 245.697 73.5825 244.223 73.241C244.223 72.8636 244.223 72.5041 244.223 72.1266C245.894 70.3651 245.858 67.0937 244.223 65.0986C244.223 64.8289 244.223 64.5953 244.223 64.3436ZM246.416 65.5659C247.602 67.7049 247.188 69.736 246.595 71.9109C248.932 72.0906 250.568 73.223 252.078 75.0924C253.282 72.8995 255.295 72.3243 257.434 71.7312C256.517 69.6102 256.643 67.6509 257.416 65.512C255.061 65.2244 253.39 64.092 251.898 62.3485C250.568 64.3077 248.77 65.1345 246.416 65.5659Z" fill="#FADBC3"/>
<path fill-rule="evenodd" clip-rule="evenodd" d="M244.223 173.054C244.528 172.982 244.816 172.91 245.121 172.856C247.566 172.478 249.687 171.508 251.215 169.477C251.395 169.243 251.664 169.099 252.006 168.83C253.12 169.854 254.055 171.058 255.277 171.777C256.445 172.46 257.919 172.64 259.429 173.09C259.088 174.581 258.494 176.001 258.494 177.421C258.494 178.788 259.088 180.154 259.465 181.753C256.517 182.311 253.875 183.371 252.167 186.139C250.891 184.989 249.939 183.695 248.644 183.029C247.332 182.346 245.715 182.293 244.241 181.951C244.241 181.574 244.241 181.214 244.241 180.837C245.912 179.075 245.876 175.804 244.241 173.809C244.223 173.539 244.223 173.287 244.223 173.054ZM246.487 180.603C248.914 180.837 250.568 181.897 251.988 183.731C253.372 181.789 255.223 180.944 257.326 180.513C257.074 179.345 256.697 178.41 256.715 177.457C256.715 176.451 257.074 175.444 257.308 174.24C255.097 173.934 253.372 172.874 251.916 171.058C250.55 173 248.788 173.88 246.452 174.276C247.44 176.343 247.386 178.32 246.487 180.603Z" fill="#FADBC3"/>
<path fill-rule="evenodd" clip-rule="evenodd" d="M397.025 43.5112C400.171 42.6664 403.119 41.8575 406.085 41.0666C410.956 39.7545 415.827 38.4244 420.716 37.1662C421.722 36.9145 422.495 36.4472 423.214 35.7282C428.463 30.4437 433.747 25.1771 439.014 19.9106C439.481 19.4432 439.985 18.9939 440.56 18.4367C441.117 18.9579 441.62 19.3893 442.088 19.8567C447.354 25.1232 452.639 30.3897 457.887 35.6743C458.66 36.4472 459.487 36.9145 460.547 37.2021C467.683 39.0894 474.819 41.0127 481.955 42.936C482.656 43.1157 483.339 43.3314 484.148 43.5471C483.591 45.6861 483.088 47.6453 482.566 49.5866C480.985 55.4822 479.439 61.3599 477.821 67.2376C477.551 68.2262 477.551 69.1249 477.821 70.1135C479.798 77.3572 481.721 84.619 483.663 91.8627C483.825 92.4559 483.932 93.049 484.112 93.768C483.465 93.9657 482.908 94.1634 482.333 94.3252C475.089 96.2844 467.827 98.2437 460.565 100.167C459.523 100.437 458.678 100.904 457.905 101.677C452.711 106.925 447.462 112.138 442.249 117.387C441.764 117.872 441.405 118.447 440.865 119.13C440.11 118.447 439.625 118.016 439.158 117.566C433.891 112.3 428.607 107.033 423.358 101.749C422.549 100.922 421.651 100.437 420.536 100.149C413.328 98.2437 406.156 96.3024 398.949 94.3612C398.373 94.1994 397.798 94.0196 397.079 93.804C397.367 92.6536 397.619 91.5931 397.906 90.5326C399.722 83.7022 401.555 76.854 403.406 70.0236C403.658 69.089 403.658 68.2442 403.406 67.3275C401.429 60.0837 399.506 52.822 397.583 45.5782C397.367 44.9671 397.241 44.3739 397.025 43.5112ZM399.11 44.7514C399.308 45.5782 399.434 46.1894 399.596 46.7825C401.339 53.3253 403.065 59.868 404.88 66.3928C405.312 67.9386 405.33 69.3406 404.916 70.8864C403.083 77.4651 401.339 84.0797 399.578 90.6764C399.416 91.3055 399.29 91.9346 399.146 92.6356C399.937 92.8693 400.512 93.049 401.106 93.2108C407.936 95.0442 414.766 96.8956 421.615 98.693C422.621 98.9627 423.394 99.43 424.113 100.149C429.11 105.164 434.125 110.179 439.14 115.176C439.607 115.643 440.092 116.074 440.865 116.775C441.387 116.092 441.746 115.499 442.231 115.014C447.049 110.161 451.92 105.362 456.719 100.49C457.707 99.4839 458.804 98.8728 460.152 98.5133C466.821 96.7698 473.471 94.9723 480.14 93.1928C480.769 93.0311 481.38 92.8154 482.063 92.5997C481.829 91.683 481.668 90.964 481.47 90.263C479.672 83.5405 477.911 76.818 476.077 70.1135C475.808 69.1249 475.808 68.2262 476.095 67.2376C477.947 60.4612 479.744 53.6848 481.542 46.9084C481.721 46.2253 481.865 45.5243 482.063 44.7514C481.344 44.5357 480.805 44.3739 480.284 44.2301C473.507 42.4147 466.731 40.5813 459.936 38.7839C458.696 38.4603 457.725 37.8851 456.827 36.9684C451.938 32.0075 446.995 27.1004 442.07 22.1934C441.602 21.726 441.099 21.3126 440.29 20.5577C439.787 21.2587 439.445 21.8878 438.978 22.3551C434.161 27.2082 429.29 32.0075 424.508 36.8786C423.52 37.8851 422.423 38.4783 421.057 38.8378C414.389 40.5813 407.738 42.3967 401.07 44.1762C400.423 44.338 399.847 44.5177 399.11 44.7514Z" fill="#FADBC3"/>
<path fill-rule="evenodd" clip-rule="evenodd" d="M397.024 -65.1808C397.815 -65.3965 398.498 -65.6121 399.199 -65.7919C406.335 -67.7152 413.453 -69.6385 420.607 -71.5258C421.65 -71.7954 422.494 -72.2807 423.267 -73.0536C428.462 -78.3022 433.71 -83.5148 438.923 -88.7454C439.39 -89.2307 439.768 -89.8059 440.325 -90.4889C441.044 -89.8239 441.529 -89.3925 441.997 -88.9252C447.263 -83.6586 452.548 -78.3921 457.796 -73.1075C458.605 -72.2987 459.486 -71.7774 460.6 -71.4898C467.736 -69.6205 474.872 -67.6792 482.008 -65.7739C482.655 -65.5942 483.284 -65.3965 484.111 -65.1448C483.931 -64.4259 483.77 -63.7788 483.608 -63.1497C481.667 -55.8879 479.743 -48.6442 477.784 -41.3825C477.532 -40.4478 477.532 -39.603 477.784 -38.6863C479.743 -31.4426 481.684 -24.1808 483.608 -16.9191C483.77 -16.326 483.913 -15.7328 484.111 -14.9419C483.518 -14.7442 482.961 -14.5285 482.403 -14.3847C475.16 -12.4255 467.898 -10.4663 460.636 -8.54298C459.522 -8.25539 458.623 -7.77008 457.814 -6.94325C452.62 -1.69468 447.389 3.51793 442.158 8.74852C441.691 9.21586 441.206 9.68321 440.613 10.2404C440.037 9.70118 439.534 9.26981 439.067 8.80247C433.836 3.57188 428.606 -1.64076 423.411 -6.88932C422.548 -7.7521 421.614 -8.27337 420.427 -8.57893C413.219 -10.4663 406.048 -12.4255 398.858 -14.3667C398.283 -14.5285 397.707 -14.7262 397.024 -14.9419C398.067 -18.8783 399.074 -22.671 400.098 -26.4636C401.194 -30.5618 402.327 -34.66 403.351 -38.7761C403.549 -39.567 403.549 -40.5017 403.351 -41.2746C401.446 -48.5902 399.469 -55.9059 397.51 -63.2215C397.348 -63.8327 397.222 -64.4258 397.024 -65.1808ZM399.074 -63.9765C399.307 -63.0418 399.487 -62.3408 399.685 -61.6218C401.5 -54.8454 403.28 -48.051 405.131 -41.2926C405.365 -40.4298 405.365 -39.6389 405.131 -38.7761C403.28 -31.9458 401.464 -25.0975 399.631 -18.2672C399.451 -17.5842 399.289 -16.8831 399.109 -16.1102C399.954 -15.8586 400.583 -15.6609 401.23 -15.4812C407.953 -13.6657 414.657 -11.8503 421.38 -10.0888C422.512 -9.80119 423.393 -9.29789 424.184 -8.47106C429.127 -3.47414 434.106 1.46885 439.085 6.42982C439.552 6.89716 440.037 7.32856 440.864 8.11943C441.368 7.41842 441.691 6.80729 442.158 6.32198C447.101 1.34303 452.098 -3.61795 457.041 -8.59691C457.76 -9.31588 458.533 -9.78323 459.54 -10.0349C466.388 -11.8323 473.218 -13.6837 480.049 -15.5351C480.678 -15.6969 481.307 -15.9125 482.026 -16.1103C481.792 -17.009 481.631 -17.728 481.451 -18.429C479.635 -25.2054 477.838 -31.9998 476.005 -38.7582C475.771 -39.621 475.753 -40.3939 475.987 -41.2746C477.856 -48.1049 479.653 -54.9533 481.487 -61.7836C481.667 -62.4846 481.828 -63.1856 482.008 -63.9765C481.073 -64.2461 480.318 -64.4798 479.546 -64.6775C472.949 -66.439 466.352 -68.2185 459.738 -69.962C458.623 -70.2496 457.724 -70.7529 456.916 -71.5797C451.973 -76.5766 446.994 -81.5196 442.033 -86.4806C441.565 -86.9479 441.062 -87.3793 440.505 -87.8826C439.894 -87.2895 439.408 -86.8221 438.941 -86.3548C434.016 -81.4298 429.073 -76.5227 424.184 -71.5797C423.375 -70.7529 422.476 -70.2496 421.38 -69.962C414.765 -68.2364 408.169 -66.439 401.572 -64.6775C400.817 -64.4798 400.062 -64.2461 399.074 -63.9765Z" fill="#FADBC3"/>
<path fill-rule="evenodd" clip-rule="evenodd" d="M346.678 -36.0263C347.073 -35.4691 347.397 -34.84 347.864 -34.3727C353.077 -29.1241 358.325 -23.9115 363.52 -18.6629C364.329 -17.8361 365.228 -17.3328 366.324 -17.0452C373.406 -15.1759 380.488 -13.2885 387.57 -11.3832C388.271 -11.2035 388.972 -10.9878 389.781 -10.7362C389.601 -9.98122 389.475 -9.31616 389.313 -8.68706C387.372 -1.42533 385.449 5.83639 383.472 13.0801C383.238 13.9609 383.238 14.7338 383.472 15.5966C385.449 22.8403 387.372 30.1021 389.313 37.3638C389.475 37.9569 389.619 38.5501 389.817 39.359C389.134 39.5746 388.523 39.7723 387.893 39.9341C380.632 41.8754 373.388 43.8526 366.126 45.7579C365.138 46.0275 364.347 46.4768 363.628 47.1958C358.379 52.4803 353.095 57.7469 347.828 63.0134C347.361 63.4808 346.858 63.9302 346.282 64.4874C345.725 63.9661 345.222 63.5167 344.755 63.0494C339.524 57.8188 334.293 52.6062 329.081 47.3576C328.272 46.5488 327.427 46.0095 326.295 45.704C319.087 43.8166 311.897 41.8754 304.707 39.9341C304.114 39.7723 303.539 39.5926 302.748 39.359C302.91 38.6759 303.054 38.0288 303.233 37.4177C305.175 30.156 307.098 22.8943 309.075 15.6505C309.327 14.7158 309.309 13.871 309.057 12.9543C307.098 5.7645 305.193 -1.42534 303.269 -8.63313C303.09 -9.28022 302.964 -9.92728 302.766 -10.7182C303.557 -10.9518 304.24 -11.1855 304.941 -11.3652C312.023 -13.2526 319.105 -15.1579 326.187 -17.0272C327.355 -17.3328 328.29 -17.89 329.153 -18.7528C334.311 -23.9654 339.506 -29.1241 344.683 -34.3188C345.15 -34.8041 345.527 -35.3793 345.941 -35.9185C346.175 -35.9544 346.426 -35.9904 346.678 -36.0263ZM304.761 -9.54983C305.013 -8.61515 305.193 -7.89617 305.372 -7.19516C307.17 -0.472681 308.949 6.24981 310.783 12.9723C311.034 13.907 311.034 14.7338 310.783 15.6685C308.931 22.4449 307.134 29.2213 305.318 35.9977C305.139 36.6987 304.977 37.3997 304.779 38.2086C305.66 38.4602 306.361 38.6579 307.08 38.8556C313.748 40.6351 320.399 42.4505 327.068 44.1941C328.182 44.4817 329.063 44.985 329.872 45.8118C334.815 50.8087 339.794 55.7517 344.755 60.7127C345.222 61.18 345.707 61.6114 346.57 62.4203C347.055 61.7193 347.379 61.0902 347.846 60.6049C352.789 55.6259 357.768 50.6649 362.729 45.686C363.448 44.967 364.221 44.4996 365.228 44.248C372.022 42.4685 378.78 40.6351 385.557 38.8197C386.258 38.64 386.923 38.4063 387.696 38.1726C387.48 37.2739 387.318 36.5549 387.121 35.8539C385.323 29.1314 383.544 22.4089 381.71 15.7044C381.459 14.7698 381.441 13.9429 381.692 13.0082C383.544 6.23184 385.341 -0.544565 387.157 -7.32097C387.336 -8.02198 387.498 -8.723 387.678 -9.4959C386.923 -9.7116 386.348 -9.90931 385.755 -10.0531C378.978 -11.8865 372.202 -13.7199 365.407 -15.4994C364.293 -15.787 363.394 -16.2723 362.585 -17.0991C357.642 -22.0961 352.663 -27.057 347.702 -32.018C347.235 -32.4854 346.75 -32.9167 346.193 -33.438C345.581 -32.8448 345.096 -32.3775 344.629 -31.9102C339.704 -26.9851 334.761 -22.0781 329.872 -17.1351C329.063 -16.3083 328.164 -15.805 327.068 -15.5174C322.358 -14.2951 317.667 -13.0189 312.958 -11.7607C310.333 -11.0777 307.673 -10.3407 304.761 -9.54983Z" fill="#FADBC3"/>
<path fill-rule="evenodd" clip-rule="evenodd" d="M302.73 97.9738C304.06 97.5964 305.246 97.2549 306.415 96.9314C313.011 95.1698 319.626 93.3903 326.223 91.6648C327.337 91.3772 328.218 90.8559 329.027 90.0471C334.221 84.7985 339.47 79.5859 344.682 74.3373C345.15 73.87 345.509 73.2768 346.013 72.6477C346.785 73.3667 347.289 73.7981 347.738 74.2654C352.969 79.496 358.217 84.7086 363.412 89.9572C364.275 90.82 365.209 91.3592 366.378 91.6827C373.46 93.5521 380.542 95.4394 387.624 97.3447C388.325 97.5245 389.008 97.7581 389.835 98.0098C389.151 100.598 388.522 103.025 387.857 105.451C386.419 110.862 384.981 116.272 383.489 121.682C383.238 122.617 383.22 123.444 383.472 124.378C385.431 131.568 387.336 138.758 389.259 145.966C389.421 146.613 389.583 147.26 389.781 148.087C389.08 148.285 388.45 148.482 387.821 148.662C380.811 150.531 373.801 152.437 366.773 154.27C365.353 154.648 364.221 155.277 363.178 156.337C358.127 161.478 353.005 166.547 347.918 171.651C347.433 172.137 347.037 172.694 346.48 173.377C345.797 172.748 345.294 172.317 344.826 171.867C339.56 166.601 334.275 161.334 329.027 156.05C328.218 155.223 327.337 154.737 326.205 154.432C318.997 152.545 311.807 150.585 304.617 148.662C304.024 148.5 303.449 148.303 302.712 148.069C302.892 147.35 303.053 146.721 303.215 146.074C305.156 138.812 307.08 131.55 309.057 124.307C309.291 123.444 309.291 122.653 309.057 121.79C307.08 114.546 305.156 107.285 303.215 100.023C303.071 99.4118 302.928 98.8187 302.73 97.9738ZM304.779 146.865C305.552 147.098 306.127 147.296 306.72 147.458C313.389 149.237 320.039 151.035 326.708 152.778C328.056 153.138 329.152 153.731 330.159 154.737C334.994 159.662 339.901 164.516 344.772 169.387C345.24 169.854 345.743 170.285 346.3 170.807C346.893 170.249 347.379 169.8 347.864 169.315C352.825 164.354 357.804 159.393 362.765 154.414C363.484 153.695 364.257 153.228 365.263 152.958C372.058 151.178 378.816 149.345 385.593 147.512C386.294 147.332 386.977 147.098 387.749 146.883C387.57 146.11 387.462 145.516 387.3 144.941C385.539 138.345 383.777 131.73 381.962 125.151C381.566 123.749 381.53 122.455 381.926 121.017C383.759 114.439 385.503 107.824 387.282 101.227C387.462 100.598 387.57 99.951 387.749 99.1961C387.03 98.9804 386.455 98.8007 385.88 98.6389C379.104 96.8235 372.327 94.9721 365.533 93.1926C364.347 92.8871 363.43 92.3298 362.585 91.4671C357.696 86.5241 352.753 81.599 347.828 76.692C347.361 76.2247 346.857 75.7933 346.282 75.254C345.707 75.8292 345.222 76.2786 344.736 76.7639C339.811 81.6889 334.868 86.596 329.979 91.539C329.17 92.3658 328.29 92.8871 327.175 93.1746C320.273 94.9901 313.371 96.8594 306.469 98.7108C305.947 98.8546 305.444 99.0523 304.833 99.268C305.049 100.095 305.228 100.796 305.408 101.497C307.188 108.094 308.931 114.708 310.747 121.287C311.07 122.455 311.106 123.534 310.764 124.702C309.794 128.135 308.877 131.586 307.96 135.037C306.9 138.902 305.857 142.766 304.779 146.865Z" fill="#FADBC3"/>
<path fill-rule="evenodd" clip-rule="evenodd" d="M389.961 47.5554C391.021 51.4738 392.028 55.2125 393.034 58.9512C393.789 61.7373 394.58 64.5233 395.263 67.3453C395.443 68.1003 395.515 68.963 395.335 69.682C393.646 76.1708 391.884 82.6596 390.141 89.1305C390.105 89.3102 389.979 89.454 389.817 89.7416C389.26 89.6158 388.667 89.5259 388.091 89.3641C382.142 87.7824 376.192 86.2006 370.261 84.5649C369.47 84.3492 368.607 83.9718 368.032 83.3966C363.287 78.7412 358.595 74.0139 353.886 69.3045C353.724 69.1248 353.58 68.9271 353.347 68.6575C353.724 68.244 354.048 67.8306 354.425 67.4532C358.829 63.0494 363.233 58.6636 367.618 54.2419C368.391 53.469 369.236 52.9837 370.279 52.714C376.354 51.1143 382.412 49.4606 388.487 47.8429C388.9 47.7531 389.314 47.6812 389.961 47.5554ZM388.685 49.6943C388.343 49.7483 388.109 49.7662 387.876 49.8201C382.106 51.348 376.336 52.8578 370.584 54.4576C369.865 54.6553 369.164 55.1945 368.625 55.7338C364.635 59.6702 360.68 63.6426 356.726 67.597C356.402 67.9205 356.115 68.3159 355.773 68.7114C356.223 69.1967 356.6 69.6101 356.978 70.0055C360.806 73.8341 364.653 77.6447 368.445 81.5093C369.254 82.3361 370.153 82.8394 371.267 83.127C376.138 84.3852 381.01 85.7153 385.899 87.0095C386.779 87.2431 387.66 87.4768 388.613 87.7285C388.81 87.2072 388.99 86.8297 389.116 86.4163C390.608 80.8981 392.064 75.362 393.574 69.8438C393.825 68.9091 393.718 68.0463 393.466 67.1296C392.046 61.899 390.644 56.6685 389.242 51.4558C389.062 50.8807 388.882 50.3055 388.685 49.6943Z" fill="#FADBC3"/>
<path fill-rule="evenodd" clip-rule="evenodd" d="M389.96 156.265C391.021 160.202 392.028 163.941 393.034 167.679C393.789 170.465 394.58 173.251 395.263 176.073C395.443 176.81 395.515 177.691 395.335 178.428C393.663 184.863 391.92 191.28 390.194 197.697C390.14 197.931 389.996 198.146 389.853 198.47C389.259 198.344 388.666 198.236 388.091 198.092C382.142 196.511 376.192 194.929 370.26 193.293C369.469 193.077 368.607 192.7 368.031 192.125C363.286 187.469 358.595 182.742 353.886 178.033C353.724 177.853 353.58 177.655 353.364 177.386C353.742 176.972 354.083 176.559 354.461 176.181C358.864 171.778 363.268 167.374 367.654 162.97C368.319 162.305 369.002 161.784 369.955 161.532C376.156 159.914 382.321 158.225 388.522 156.571C388.9 156.445 389.331 156.391 389.96 156.265ZM388.648 196.457C388.846 195.935 388.972 195.666 389.044 195.378C390.572 189.734 392.099 184.09 393.573 178.446C393.753 177.709 393.699 176.846 393.519 176.109C392.099 170.627 390.608 165.181 389.134 159.717C389.008 159.267 388.792 158.854 388.612 158.404C388.001 158.548 387.534 158.638 387.049 158.764C381.764 160.184 376.48 161.622 371.177 163.006C370.117 163.276 369.29 163.761 368.517 164.534C364.67 168.434 360.788 172.299 356.905 176.163C356.528 176.541 356.186 176.954 355.827 177.35C355.971 177.583 356.042 177.763 356.168 177.889C360.464 182.203 364.76 186.535 369.11 190.813C369.523 191.208 370.135 191.478 370.71 191.639C373.37 192.394 376.048 193.095 378.726 193.814C381.962 194.677 385.233 195.54 388.648 196.457Z" fill="#FADBC3"/>
<path fill-rule="evenodd" clip-rule="evenodd" d="M396.989 35.4227C396.755 34.6857 396.539 34.1105 396.396 33.5353C394.796 27.5858 393.196 21.6362 391.65 15.6866C391.453 14.9496 391.345 14.0689 391.542 13.3499C393.214 6.91503 394.958 0.498114 396.683 -5.9188C396.737 -6.15247 396.881 -6.3502 397.025 -6.65576C397.528 -6.54792 398.013 -6.47602 398.463 -6.3502C404.592 -4.71452 410.721 -3.0968 416.833 -1.42517C417.516 -1.24543 418.253 -0.903914 418.738 -0.418602C423.645 4.41655 428.516 9.30562 433.477 14.2666C433.082 14.716 432.74 15.1294 432.345 15.5068C427.941 19.9106 423.555 24.3144 419.133 28.7002C418.594 29.2394 417.893 29.7786 417.174 29.9764C410.541 31.7918 403.873 33.5533 396.989 35.4227ZM398.103 33.2657C398.84 33.1039 399.379 32.9961 399.919 32.8523C405.203 31.4323 410.488 29.9943 415.772 28.6103C416.779 28.3586 417.552 27.8913 418.271 27.1723C422.117 23.2718 426.018 19.4253 429.882 15.5428C430.26 15.1653 430.619 14.7339 430.997 14.3385C430.835 14.1228 430.745 13.961 430.619 13.8352C426.395 9.61118 422.207 5.3692 417.947 1.18113C417.408 0.659871 416.635 0.282414 415.898 0.0667197C410.506 -1.42517 405.095 -2.84518 399.685 -4.28314C399.218 -4.40896 398.75 -4.4449 398.193 -4.55275C398.031 -4.13933 397.869 -3.81578 397.78 -3.47426C396.27 2.11582 394.76 7.68792 393.322 13.278C393.142 13.997 393.214 14.8598 393.394 15.6147C393.951 17.9514 394.616 20.2521 395.245 22.5708C396.162 26.0939 397.115 29.5809 398.103 33.2657Z" fill="#FADBC3"/>
<path fill-rule="evenodd" clip-rule="evenodd" d="M302.748 47.6273C303.251 47.7171 303.736 47.789 304.204 47.9149C310.333 49.5505 316.462 51.1862 322.574 52.8579C323.203 53.0376 323.904 53.3072 324.353 53.7386C329.296 58.6277 334.203 63.5527 339.236 68.5856C338.913 68.981 338.643 69.3764 338.319 69.7C333.79 74.2296 329.278 78.7771 324.713 83.2887C324.209 83.792 323.544 84.2414 322.879 84.4391C316.229 86.2725 309.578 88.034 302.766 89.8674C302.586 89.4001 302.388 88.9687 302.262 88.5193C300.591 82.3361 298.919 76.1529 297.284 69.9696C297.104 69.2866 297.014 68.4777 297.194 67.7947C298.883 61.3059 300.645 54.8351 302.388 48.3463C302.442 48.1126 302.586 47.9149 302.748 47.6273ZM336.864 68.8552C336.576 68.4418 336.486 68.28 336.342 68.1542C332.082 63.8762 327.84 59.5983 323.526 55.3743C323.023 54.889 322.304 54.5654 321.621 54.3677C316.229 52.8758 310.818 51.4379 305.408 49.9999C304.905 49.8561 304.366 49.8202 303.844 49.7483C303.718 50.1078 303.611 50.3234 303.539 50.5751C301.993 56.273 300.447 61.9709 298.973 67.6868C298.793 68.4238 298.865 69.2866 299.045 70.0235C300.447 75.4339 301.921 80.8442 303.377 86.2545C303.503 86.7219 303.7 87.1533 303.88 87.6745C304.258 87.6206 304.563 87.6026 304.851 87.5307C310.495 86.0209 316.139 84.529 321.765 82.9652C322.538 82.7495 323.329 82.2462 323.904 81.671C327.085 78.5794 330.177 75.4159 333.323 72.2883C334.473 71.12 335.641 70.0235 336.864 68.8552Z" fill="#FADBC3"/>
<path fill-rule="evenodd" clip-rule="evenodd" d="M396.989 102.036C397.546 102.162 398.013 102.234 398.481 102.36C404.61 103.995 410.739 105.613 416.851 107.285C417.48 107.447 418.181 107.734 418.63 108.184C423.591 113.073 428.498 117.998 433.477 122.995C433.064 123.444 432.704 123.857 432.309 124.253C427.905 128.657 423.519 133.078 419.097 137.428C418.504 138.003 417.731 138.525 416.958 138.74C410.667 140.484 404.358 142.155 398.049 143.845C397.762 143.917 397.456 143.989 397.061 144.079C396.899 143.755 396.701 143.45 396.611 143.108C394.904 136.817 393.214 130.508 391.56 124.199C391.381 123.516 391.345 122.707 391.524 122.042C393.196 115.607 394.94 109.19 396.665 102.773C396.719 102.576 396.809 102.414 396.989 102.036ZM398.139 141.94C398.534 141.868 398.822 141.832 399.11 141.76C404.808 140.232 410.524 138.74 416.203 137.159C416.922 136.961 417.623 136.458 418.181 135.918C422.171 131.982 426.107 128.009 430.08 124.055C430.403 123.732 430.673 123.336 431.014 122.941C426.539 118.465 422.153 114.061 417.731 109.693C417.282 109.244 416.599 108.974 415.97 108.813C410.506 107.321 405.041 105.865 399.577 104.409C399.128 104.283 398.642 104.283 398.175 104.211C398.049 104.553 397.923 104.768 397.869 105.002C396.324 110.7 394.778 116.398 393.304 122.114C393.124 122.833 393.232 123.696 393.43 124.451C394.778 129.627 396.198 134.786 397.582 139.963C397.726 140.592 397.923 141.221 398.139 141.94Z" fill="#FADBC3"/>
<path fill-rule="evenodd" clip-rule="evenodd" d="M302.677 156.301C303.324 156.427 303.809 156.499 304.258 156.625C310.334 158.243 316.391 159.86 322.449 161.532C323.185 161.73 323.976 162.089 324.516 162.61C329.297 167.32 334.024 172.083 338.787 176.846C338.913 176.972 339.021 177.134 339.183 177.368C338.877 177.727 338.59 178.105 338.248 178.446C333.772 182.94 329.297 187.433 324.785 191.891C324.192 192.466 323.419 192.987 322.628 193.203C316.229 194.983 309.794 196.672 303.378 198.38C303.198 198.434 303.018 198.434 302.694 198.47C302.497 197.912 302.281 197.355 302.137 196.798C300.52 190.795 298.902 184.791 297.338 178.788C297.122 177.997 297.068 177.062 297.266 176.271C298.902 169.962 300.627 163.671 302.317 157.362C302.389 157.038 302.515 156.769 302.677 156.301ZM303.881 196.367C304.384 196.277 304.798 196.223 305.193 196.115C310.657 194.659 316.121 193.185 321.604 191.747C322.538 191.496 323.275 191.064 323.94 190.381C327.841 186.445 331.759 182.544 335.678 178.626C336.055 178.248 336.397 177.817 336.792 177.385C336.523 177.062 336.343 176.828 336.127 176.613C331.993 172.478 327.877 168.326 323.707 164.228C323.132 163.671 322.287 163.258 321.496 163.042C316.229 161.586 310.927 160.184 305.642 158.764C305.067 158.62 304.492 158.53 303.899 158.422C303.755 158.8 303.647 159.016 303.575 159.249C302.029 164.947 300.484 170.645 299.01 176.361C298.812 177.134 298.92 178.069 299.136 178.877C300.502 184.18 301.94 189.464 303.378 194.749C303.485 195.252 303.683 195.774 303.881 196.367Z" fill="#FADBC3"/>
<path fill-rule="evenodd" clip-rule="evenodd" d="M295.523 144.097C293.869 143.647 292.287 143.234 290.688 142.803C285.745 141.49 280.802 140.178 275.877 138.83C275.14 138.632 274.331 138.291 273.792 137.77C269.01 133.06 264.265 128.297 259.52 123.534C259.394 123.408 259.304 123.246 259.106 122.977C259.376 122.689 259.628 122.383 259.933 122.096C264.427 117.602 268.885 113.109 273.414 108.651C274.007 108.076 274.78 107.536 275.553 107.321C281.898 105.559 288.279 103.888 294.642 102.18C294.876 102.108 295.127 102.09 295.487 102.036C295.649 102.396 295.864 102.755 295.972 103.151C297.662 109.388 299.351 115.625 300.987 121.88C301.167 122.563 301.203 123.372 301.023 124.037C299.351 130.418 297.644 136.763 295.936 143.126C295.846 143.414 295.703 143.683 295.523 144.097ZM294.462 104.121C293.941 104.193 293.636 104.211 293.348 104.301C287.704 105.811 282.06 107.303 276.416 108.867C275.643 109.082 274.888 109.622 274.295 110.215C270.394 114.061 266.53 117.944 262.665 121.826C262.288 122.204 261.946 122.617 261.551 123.031C261.767 123.3 261.91 123.498 262.072 123.678C266.242 127.866 270.412 132.054 274.618 136.206C275.122 136.691 275.823 137.051 276.506 137.23C281.898 138.722 287.309 140.16 292.719 141.616C293.24 141.76 293.761 141.832 294.373 141.958C294.516 141.58 294.642 141.311 294.714 141.023C296.242 135.379 297.77 129.753 299.244 124.091C299.441 123.354 299.351 122.509 299.172 121.754C298.615 119.418 297.949 117.117 297.32 114.798C296.386 111.275 295.451 107.788 294.462 104.121Z" fill="#FADBC3"/>
<path fill-rule="evenodd" clip-rule="evenodd" d="M295.469 35.3866C290.256 34.0026 285.187 32.4388 280.029 31.3244C276.056 30.4796 272.947 28.6641 270.25 25.6444C267.141 22.1574 263.672 18.9759 260.364 15.6685C259.933 15.2372 259.52 14.7878 259.07 14.2845C262.701 10.6357 266.278 7.0767 269.837 3.49977C271.365 1.97193 272.713 0.12057 274.51 -0.921954C276.308 -1.96448 278.591 -2.21612 280.676 -2.77333C285.133 -3.97762 289.591 -5.16395 294.067 -6.35027C294.534 -6.4761 295.001 -6.56596 295.577 -6.6738C295.738 -6.20647 295.918 -5.82902 296.026 -5.43358C297.698 0.749657 299.369 6.93291 300.987 13.1162C301.167 13.7992 301.221 14.608 301.059 15.2731C299.369 21.7619 297.608 28.2327 295.864 34.7216C295.792 34.8833 295.666 35.0451 295.469 35.3866ZM261.515 14.2486C261.766 14.5541 261.892 14.7698 262.072 14.9316C266.242 19.1196 270.412 23.3077 274.618 27.4419C275.122 27.9272 275.823 28.3046 276.506 28.4844C281.898 29.9763 287.308 31.4142 292.719 32.8702C293.24 33.014 293.779 33.0858 294.354 33.2117C294.48 32.9061 294.606 32.6904 294.66 32.4747C296.224 26.7229 297.787 20.953 299.279 15.1832C299.459 14.5182 299.351 13.7093 299.189 13.0263C297.77 7.61594 296.314 2.2056 294.858 -3.20473C294.732 -3.65409 294.534 -4.10347 294.372 -4.53486C294.085 -4.51688 293.905 -4.55282 293.725 -4.4989C287.848 -2.93511 281.952 -1.35335 276.092 0.24638C275.589 0.390177 275.086 0.713731 274.708 1.07322C270.322 5.42306 265.991 9.79088 261.515 14.2486Z" fill="#FADBC3"/>
<path fill-rule="evenodd" clip-rule="evenodd" d="M409.805 159.573C412.77 158.764 415.61 157.991 418.45 157.218C421.003 156.535 423.555 155.834 426.126 155.187C427.114 154.935 427.905 154.468 428.624 153.731C432.039 150.262 435.49 146.847 438.923 143.396C439.391 142.91 439.768 142.335 440.325 141.634C441.008 142.263 441.458 142.641 441.871 143.054C445.412 146.577 448.953 150.082 452.44 153.641C453.249 154.468 454.148 154.971 455.262 155.259C459.972 156.481 464.645 157.757 469.354 159.016C469.948 159.177 470.523 159.357 471.296 159.573C471.188 160.13 471.134 160.669 471.008 161.173C469.696 166.116 468.402 171.059 467.036 175.984C466.766 176.972 466.784 177.889 467.054 178.878C468.402 183.803 469.696 188.746 471.026 193.689C471.134 194.102 471.224 194.515 471.35 195.127C470.828 195.306 470.343 195.522 469.84 195.666C464.969 196.978 460.097 198.326 455.208 199.584C454.076 199.872 453.213 200.411 452.404 201.22C448.558 205.12 444.675 208.985 440.649 213.011C440.164 212.562 439.732 212.184 439.319 211.771C435.742 208.212 432.165 204.653 428.606 201.058C427.887 200.339 427.096 199.89 426.108 199.62C421.165 198.326 416.24 196.996 411.297 195.666C410.883 195.558 410.47 195.414 409.895 195.234C409.984 194.695 410.056 194.174 410.182 193.671C411.494 188.728 412.788 183.785 414.155 178.86C414.424 177.871 414.406 176.954 414.137 175.966C412.806 171.095 411.512 166.223 410.218 161.334C410.038 160.777 409.948 160.238 409.805 159.573ZM411.908 193.922C412.609 194.138 413.166 194.354 413.759 194.497C418.091 195.666 422.441 196.852 426.791 197.966C427.905 198.254 428.804 198.757 429.595 199.584C432.794 202.838 436.03 206.037 439.247 209.254C439.66 209.668 440.128 210.045 440.613 210.477C441.188 209.938 441.638 209.524 442.069 209.093C445.25 205.911 448.45 202.748 451.595 199.548C452.35 198.775 453.195 198.272 454.238 198.002C458.588 196.87 462.919 195.702 467.269 194.533C467.898 194.372 468.528 194.174 469.264 193.958C469.085 193.167 468.959 192.574 468.797 191.999C467.629 187.595 466.478 183.191 465.274 178.806C465.005 177.817 465.022 176.9 465.292 175.912C466.496 171.526 467.665 167.122 468.815 162.718C468.977 162.143 469.085 161.55 469.229 160.867C468.725 160.687 468.348 160.526 467.952 160.418C463.495 159.213 459.055 157.973 454.579 156.841C453.267 156.517 452.243 155.888 451.308 154.935C448.252 151.808 445.143 148.734 442.051 145.643C441.584 145.175 441.08 144.762 440.272 144.025C439.768 144.708 439.409 145.319 438.941 145.786C435.832 148.932 432.668 152.042 429.559 155.223C428.786 155.996 427.959 156.481 426.898 156.751C422.315 157.955 417.749 159.195 413.166 160.436C412.77 160.543 412.393 160.723 411.908 160.903C412.069 161.586 412.195 162.179 412.339 162.754C413.507 167.158 414.658 171.562 415.88 175.948C416.15 176.936 416.15 177.835 415.862 178.842C414.64 183.227 413.489 187.631 412.339 192.035C412.195 192.628 412.069 193.221 411.908 193.922Z" fill="#FADBC3"/>
<path fill-rule="evenodd" clip-rule="evenodd" d="M409.786 50.8448C415.232 49.3888 420.373 47.9688 425.568 46.6387C426.934 46.2972 428.012 45.6681 429.001 44.6615C432.344 41.2284 435.777 37.8491 439.175 34.452C439.606 34.0206 440.055 33.6251 440.577 33.1578C441.098 33.6431 441.565 34.0385 441.979 34.452C445.466 37.939 448.971 41.3901 452.422 44.9132C453.231 45.74 454.129 46.2433 455.226 46.5309C459.989 47.7711 464.752 49.0473 469.498 50.3235C470.073 50.4853 470.648 50.683 471.331 50.8987C471.187 51.5278 471.079 52.067 470.936 52.5883C469.641 57.4594 468.365 62.3485 467.017 67.2196C466.747 68.2082 466.747 69.1249 467.017 70.1134C468.347 74.9846 469.641 79.8557 470.936 84.7448C471.079 85.266 471.169 85.7873 471.313 86.4343C470.63 86.65 470.055 86.8298 469.48 86.9916C464.662 88.2857 459.863 89.6158 455.028 90.8561C454.021 91.1077 453.249 91.5751 452.53 92.2941C449.025 95.835 445.484 99.3581 441.961 102.881C441.529 103.312 441.08 103.708 440.559 104.175C440.037 103.69 439.588 103.294 439.157 102.863C435.634 99.3401 432.093 95.8171 428.588 92.2761C427.869 91.5571 427.096 91.0898 426.089 90.8381C421.254 89.5799 416.455 88.2677 411.638 86.9736C411.062 86.8118 410.487 86.6141 409.804 86.4164C409.948 85.7693 410.038 85.248 410.182 84.7268C411.476 79.8557 412.752 74.9666 414.1 70.0955C414.37 69.1069 414.37 68.1902 414.1 67.2016C412.77 62.3305 411.476 57.4594 410.182 52.5703C410.056 52.067 409.948 51.5458 409.786 50.8448ZM469.264 52.1209C468.671 51.9412 468.329 51.8154 467.988 51.7075C463.422 50.4853 458.839 49.227 454.255 48.0407C453.213 47.7711 452.368 47.3038 451.595 46.5129C448.449 43.2954 445.25 40.1319 442.068 36.9684C441.601 36.5011 441.098 36.0697 440.559 35.5664C440.001 36.1056 439.534 36.5011 439.103 36.9324C435.921 40.1139 432.722 43.2595 429.576 46.4769C428.767 47.3038 427.869 47.7891 426.754 48.0767C422.53 49.1551 418.306 50.3055 414.1 51.4379C413.399 51.6356 412.716 51.8693 411.907 52.103C412.069 52.804 412.177 53.3971 412.339 53.9903C413.489 58.3401 414.621 62.69 415.826 67.0039C416.131 68.1183 416.167 69.1249 415.844 70.2393C414.621 74.6251 413.471 79.0288 412.303 83.4326C412.159 84.0078 412.069 84.583 411.943 85.23C412.698 85.4637 413.291 85.6435 413.866 85.8052C418.198 86.9736 422.548 88.1599 426.898 89.2743C427.958 89.5439 428.785 90.0293 429.54 90.8201C432.74 94.0735 435.975 97.273 439.193 100.49C439.606 100.904 440.073 101.299 440.577 101.749C441.116 101.245 441.565 100.832 441.997 100.401C445.178 97.2191 448.377 94.0556 451.523 90.8561C452.332 90.0293 453.213 89.526 454.327 89.2384C458.677 88.124 463.009 86.9376 467.359 85.7693C467.934 85.6075 468.509 85.4098 469.21 85.1941C469.048 84.4931 468.922 83.8999 468.761 83.3248C467.592 78.921 466.442 74.5172 465.238 70.1314C464.968 69.1428 464.95 68.2441 465.22 67.2375C466.352 63.1393 467.431 59.0412 468.527 54.943C468.797 54.0622 468.994 53.1814 469.264 52.1209Z" fill="#FADBC3"/>
<path fill-rule="evenodd" clip-rule="evenodd" d="M377.073 -3.36636C376.821 -2.35978 376.641 -1.53296 376.408 -0.706129C375.239 3.62574 374.125 7.97559 372.885 12.3074C372.471 13.7274 372.507 15.0396 372.92 16.4416C374.197 21.0071 375.401 25.5906 376.623 30.1742C376.767 30.7493 376.893 31.3425 377.055 32.0435C375.077 32.5827 373.244 33.104 371.411 33.5893C367.959 34.506 364.526 35.4587 361.057 36.3214C359.889 36.627 358.936 37.1483 358.073 38.029C354.712 41.4622 351.279 44.8234 347.9 48.2385C347.433 48.7239 347.091 49.335 346.57 50.018C345.761 49.2811 345.276 48.8497 344.808 48.4003C341.501 45.093 338.158 41.8217 334.904 38.4604C333.79 37.31 332.568 36.591 331.022 36.1956C326.366 35.0273 321.747 33.7331 317.11 32.4929C316.642 32.367 316.175 32.2053 315.6 32.0255C315.672 31.5043 315.707 31.0369 315.815 30.5876C317.127 25.6446 318.422 20.7015 319.788 15.7765C320.057 14.7879 320.075 13.8892 319.806 12.9006C318.476 8.1014 317.217 3.26624 315.941 -1.55094C315.779 -2.12613 315.672 -2.71927 315.51 -3.42028C318.583 -4.24711 321.477 -5.03801 324.389 -5.82889C326.816 -6.47597 329.26 -7.14101 331.705 -7.77012C332.747 -8.03974 333.592 -8.50708 334.365 -9.29796C337.816 -12.821 341.321 -16.2721 344.79 -19.7771C345.222 -20.2085 345.545 -20.7657 346.013 -21.3769C346.732 -20.7298 347.181 -20.3523 347.594 -19.9389C351.081 -16.4518 354.586 -13.0007 358.02 -9.47772C358.918 -8.54304 359.943 -8.03973 361.147 -7.71619C365.803 -6.5119 370.422 -5.25369 375.059 -3.99548C375.653 -3.81573 376.246 -3.618 377.073 -3.36636ZM374.934 30.8212C374.772 30.1023 374.664 29.5091 374.502 28.9339C373.334 24.5301 372.183 20.1084 370.979 15.7226C370.692 14.734 370.728 13.8353 370.997 12.8467C372.201 8.4609 373.37 4.03915 374.52 -0.364609C374.682 -0.939795 374.754 -1.51498 374.88 -2.16206C374.179 -2.37776 373.657 -2.53955 373.118 -2.68334C368.714 -3.86966 364.329 -5.07393 359.907 -6.2243C358.846 -6.49392 358.02 -6.99721 357.247 -7.77011C354.101 -10.9876 350.902 -14.1511 347.72 -17.3146C347.253 -17.782 346.767 -18.1954 345.887 -19.0042C345.401 -18.3032 345.078 -17.6741 344.611 -17.1888C341.447 -13.9893 338.248 -10.8258 335.084 -7.62634C334.401 -6.94331 333.664 -6.51192 332.729 -6.27825C328.2 -5.09193 323.688 -3.86966 319.159 -2.64739C318.637 -2.50359 318.152 -2.30588 317.559 -2.09018C317.739 -1.35323 317.864 -0.760053 318.026 -0.166892C319.195 4.23687 320.399 8.64062 321.513 13.0444C321.711 13.8353 321.729 14.77 321.531 15.5429C320.399 20.0185 319.177 24.4762 317.99 28.9339C317.846 29.5091 317.721 30.1022 317.577 30.7673C318.314 31.001 318.889 31.1987 319.482 31.3604C323.76 32.5108 328.038 33.6792 332.334 34.7756C333.502 35.0812 334.455 35.6025 335.3 36.4652C338.445 39.6827 341.645 42.8462 344.826 46.0277C345.258 46.4591 345.707 46.8365 346.228 47.3219C346.75 46.8365 347.199 46.4411 347.63 46.0097C350.812 42.8282 354.011 39.6647 357.157 36.4652C357.966 35.6384 358.846 35.1171 359.961 34.8116C364.257 33.7151 368.535 32.5468 372.813 31.3964C373.514 31.2526 374.143 31.0549 374.934 30.8212Z" fill="#FADBC3"/>
<path fill-rule="evenodd" clip-rule="evenodd" d="M315.51 105.29C319.572 104.193 323.419 103.169 327.283 102.108C329.242 101.587 331.399 101.371 333.089 100.401C334.778 99.4299 336.055 97.6684 337.511 96.2485C339.955 93.8219 342.382 91.3773 344.826 88.9328C345.258 88.5014 345.707 88.088 346.246 87.5847C346.75 88.0341 347.199 88.4116 347.63 88.843C351.171 92.366 354.712 95.871 358.199 99.43C358.972 100.221 359.817 100.688 360.86 100.958C365.569 102.198 370.26 103.456 374.952 104.714C375.599 104.894 376.246 105.074 377.055 105.308C376.893 105.991 376.785 106.584 376.623 107.159C375.347 111.976 374.089 116.793 372.759 121.611C372.489 122.599 372.507 123.498 372.777 124.486C374.107 129.286 375.365 134.121 376.641 138.938C376.785 139.459 376.893 139.998 377.055 140.682C376.408 140.879 375.832 141.095 375.257 141.239C370.44 142.533 365.641 143.863 360.806 145.103C359.745 145.373 358.918 145.876 358.163 146.649C354.748 150.118 351.297 153.533 347.846 156.984C347.379 157.452 346.893 157.919 346.3 158.494C345.743 157.973 345.24 157.542 344.772 157.074C341.321 153.641 337.87 150.226 334.455 146.739C333.592 145.858 332.657 145.337 331.489 145.031C326.78 143.809 322.106 142.533 317.397 141.275C316.804 141.113 316.247 140.933 315.51 140.699C315.654 140.034 315.761 139.441 315.923 138.866C317.109 134.408 318.242 129.933 319.536 125.493C320.039 123.767 320.003 122.168 319.518 120.46C318.224 115.967 317.074 111.437 315.869 106.907C315.743 106.458 315.654 105.973 315.51 105.29ZM374.952 139.549C374.754 138.704 374.646 138.111 374.484 137.536C373.334 133.186 372.201 128.836 370.997 124.504C370.728 123.516 370.692 122.617 370.979 121.628C372.219 117.171 373.388 112.713 374.556 108.237C374.7 107.716 374.754 107.195 374.862 106.548C374.161 106.332 373.586 106.152 373.01 105.991C368.678 104.822 364.347 103.618 359.979 102.504C358.846 102.216 357.984 101.677 357.175 100.868C354.065 97.7044 350.92 94.5768 347.774 91.4493C347.307 90.9819 346.803 90.5505 346.246 90.0293C345.707 90.5505 345.24 90.946 344.808 91.3773C341.627 94.5588 338.427 97.7224 335.282 100.922C334.473 101.749 333.574 102.234 332.46 102.522C327.984 103.672 323.544 104.894 319.069 106.098C318.619 106.224 318.17 106.422 317.613 106.62C317.775 107.303 317.882 107.896 318.026 108.471C319.195 112.875 320.345 117.279 321.567 121.682C321.819 122.617 321.819 123.462 321.567 124.397C320.345 128.854 319.159 133.312 317.972 137.788C317.828 138.345 317.757 138.938 317.631 139.567C318.494 139.801 319.123 139.998 319.788 140.178C324.066 141.329 328.344 142.479 332.64 143.593C333.628 143.845 334.419 144.294 335.138 145.031C338.373 148.321 341.663 151.574 344.934 154.845C345.348 155.259 345.815 155.636 346.318 156.104C348.583 153.839 350.704 151.7 352.843 149.579C354.73 147.71 356.366 145.427 358.595 144.151C360.752 142.892 363.52 142.677 366.018 141.994C368.93 141.185 371.842 140.394 374.952 139.549Z" fill="#FADBC3"/>
<path fill-rule="evenodd" clip-rule="evenodd" d="M383.13 78.1659C380.02 77.3391 377.108 76.5662 374.196 75.7753C373.909 75.7034 373.603 75.5416 373.405 75.3439C371.231 73.187 369.056 71.0121 366.755 68.6933C368.031 67.3992 369.325 66.2668 370.422 64.9546C372.435 62.5281 374.897 61.0542 378.025 60.5329C379.715 60.2633 381.35 59.6702 383.166 59.1848C383.561 60.6228 383.974 61.9709 384.334 63.319C384.801 65.0984 385.628 66.8959 385.628 68.6754C385.628 70.4728 384.819 72.2523 384.334 74.0318C383.957 75.3978 383.543 76.728 383.13 78.1659ZM381.979 61.2519C379.499 61.917 377.252 62.5281 375.005 63.1572C374.664 63.2471 374.34 63.4808 374.089 63.7324C372.453 65.3142 370.853 66.9139 369.11 68.6394C370.961 70.4728 372.686 72.2163 374.43 73.9419C374.502 74.0318 374.628 74.1037 374.736 74.1396C377.09 74.7867 379.445 75.4158 381.979 76.1168C382.662 73.6184 383.273 71.3176 383.885 68.9989C383.939 68.7652 383.921 68.4956 383.867 68.2799C383.274 65.9972 382.662 63.7504 381.979 61.2519Z" fill="#FADBC3"/>
<path fill-rule="evenodd" clip-rule="evenodd" d="M366.684 177.332C368.966 175.085 371.051 173 373.172 170.933C373.478 170.645 373.855 170.376 374.251 170.268C377.145 169.459 380.057 168.704 383.13 167.877C383.508 169.189 383.885 170.412 384.209 171.652C384.712 173.557 385.575 175.462 385.575 177.368C385.575 179.273 384.712 181.178 384.209 183.084C383.903 184.27 383.544 185.438 383.166 186.804C382.016 186.517 380.955 186.265 379.913 185.995C377.846 185.438 375.563 185.205 373.748 184.18C371.986 183.173 370.692 181.34 369.218 179.866C368.427 179.111 367.654 178.32 366.684 177.332ZM368.787 177.547C369.721 178.266 370.476 178.644 370.962 179.255C373.172 182.023 375.976 183.677 379.499 184.162C380.326 184.27 381.117 184.504 382.016 184.683C382.663 182.293 383.256 180.1 383.849 177.907C383.921 177.673 383.975 177.404 383.921 177.188C383.292 174.815 382.663 172.461 381.998 169.98C379.553 170.645 377.307 171.238 375.06 171.867C374.718 171.957 374.395 172.191 374.125 172.425C372.471 173.97 370.836 175.57 368.787 177.547Z" fill="#FADBC3"/>
<path fill-rule="evenodd" clip-rule="evenodd" d="M420.068 14.3026C417.767 16.6033 415.628 18.7243 413.489 20.8453C413.274 21.043 412.986 21.2228 412.698 21.3126C409.751 22.1215 406.785 22.8944 403.657 23.7212C403.064 21.5103 402.597 19.4073 401.914 17.3942C401.213 15.3271 401.195 13.3679 401.896 11.2828C402.579 9.25172 403.046 7.1487 403.657 4.90189C406.803 5.74669 409.823 6.55554 412.824 7.40034C413.148 7.49021 413.453 7.77781 413.705 8.02946C415.79 10.0606 417.839 12.0917 420.068 14.3026ZM404.862 21.6542C407.342 20.9891 409.589 20.3959 411.836 19.7848C412.123 19.7129 412.411 19.5331 412.627 19.3175C414.298 17.6818 415.934 16.0281 417.713 14.2487C416.006 12.595 414.424 11.0492 412.842 9.52135C412.591 9.2697 412.285 9.00009 411.944 8.91022C409.643 8.26314 407.342 7.65199 404.88 6.98694C404.214 9.46742 403.585 11.7682 402.992 14.0869C402.938 14.3026 402.992 14.5722 403.046 14.8059C403.585 16.9808 404.196 19.1737 404.862 21.6542Z" fill="#FADBC3"/>
<path fill-rule="evenodd" clip-rule="evenodd" d="M325.863 68.6215C323.509 70.9762 321.334 73.1511 319.159 75.3081C318.943 75.5058 318.655 75.6675 318.368 75.7574C315.456 76.5483 312.562 77.3212 309.542 78.13C309.345 77.6807 309.111 77.3212 309.003 76.9258C308.356 74.5531 307.709 72.1805 307.116 69.7899C306.972 69.2147 306.882 68.5676 307.026 68.0104C307.691 65.3142 308.428 62.654 309.165 59.9758C309.219 59.7421 309.363 59.5444 309.524 59.2208C312.526 60.0297 315.492 60.8026 318.44 61.6294C318.781 61.7193 319.105 61.9709 319.356 62.2226C321.46 64.2717 323.563 66.3567 325.863 68.6215ZM323.563 68.5856C322.682 67.7947 321.891 67.2555 321.334 66.5365C319.285 63.9661 316.678 62.4383 313.407 61.9889C312.472 61.8631 311.556 61.5575 310.549 61.3238C309.902 63.7324 309.309 65.9253 308.716 68.1182C308.644 68.3519 308.572 68.6215 308.644 68.8372C309.255 71.1919 309.902 73.5645 310.567 76.0989C313.065 75.4159 315.384 74.8047 317.685 74.1577C317.954 74.0858 318.224 73.8521 318.44 73.6364C320.058 72.0546 321.675 70.4549 323.563 68.5856Z" fill="#FADBC3"/>
<path fill-rule="evenodd" clip-rule="evenodd" d="M403.657 132.449C402.813 129.321 402.022 126.356 401.231 123.39C401.177 123.156 401.177 122.887 401.231 122.671C402.004 119.705 402.813 116.739 403.639 113.612C406.821 114.475 409.841 115.283 412.86 116.11C413.13 116.182 413.4 116.416 413.615 116.631C415.718 118.699 417.821 120.784 420.05 123.012C418.594 124.468 417.12 125.781 415.844 127.254C414.119 129.25 412.07 130.472 409.463 130.921C407.612 131.245 405.778 131.874 403.657 132.449ZM417.696 122.976C415.97 121.287 414.334 119.687 412.699 118.105C412.483 117.89 412.213 117.692 411.944 117.602C409.643 116.955 407.324 116.344 404.862 115.679C404.197 118.141 403.586 120.442 402.974 122.761C402.92 122.923 402.938 123.138 402.974 123.3C403.586 125.601 404.197 127.902 404.862 130.346C407.324 129.681 409.571 129.088 411.818 128.477C412.105 128.405 412.393 128.225 412.609 128.027C414.262 126.392 415.916 124.738 417.696 122.976Z" fill="#FADBC3"/>
<path fill-rule="evenodd" clip-rule="evenodd" d="M309.363 186.894C308.5 183.659 307.673 180.639 306.882 177.619C306.81 177.349 306.918 177.008 306.99 176.72C307.691 174.042 308.41 171.364 309.147 168.686C309.201 168.452 309.345 168.254 309.506 167.913C312.508 168.722 315.456 169.513 318.422 170.304C318.655 170.375 318.907 170.483 319.069 170.645C321.298 172.838 323.509 175.049 325.827 177.367C323.527 179.668 321.352 181.843 319.177 184C318.961 184.198 318.673 184.36 318.386 184.449C315.474 185.258 312.562 186.031 309.363 186.894ZM323.419 177.385C321.657 175.624 320.022 173.988 318.35 172.335C318.188 172.173 317.972 171.993 317.757 171.921C315.402 171.256 313.047 170.627 310.567 169.944C309.902 172.407 309.273 174.653 308.698 176.9C308.626 177.188 308.626 177.511 308.698 177.799C309.291 180.046 309.902 182.292 310.567 184.773C313.065 184.09 315.42 183.461 317.775 182.814C317.954 182.76 318.116 182.652 318.242 182.526C319.932 180.855 321.621 179.183 323.419 177.385Z" fill="#FADBC3"/>
<path fill-rule="evenodd" clip-rule="evenodd" d="M288.889 132.431C285.762 131.604 282.85 130.831 279.956 130.041C279.614 129.951 279.273 129.753 279.003 129.501C276.864 127.398 274.743 125.277 272.479 123.03C274.743 120.766 276.9 118.609 279.075 116.47C279.291 116.272 279.578 116.11 279.866 116.038C282.814 115.229 285.762 114.439 288.871 113.612C289.411 115.589 289.788 117.458 290.435 119.22C291.352 121.754 291.388 124.181 290.453 126.733C289.806 128.513 289.446 130.382 288.889 132.431ZM274.887 122.959C275.57 123.642 276.181 124.163 276.667 124.792C278.859 127.578 281.681 129.232 285.187 129.717C286.013 129.825 286.822 130.058 287.721 130.256C288.368 127.848 288.961 125.655 289.536 123.462C289.608 123.228 289.644 122.959 289.572 122.743C288.961 120.424 288.332 118.123 287.685 115.697C285.258 116.344 283.012 116.937 280.765 117.566C280.423 117.656 280.082 117.872 279.83 118.123C278.212 119.687 276.595 121.287 274.887 122.959Z" fill="#FADBC3"/>
<path fill-rule="evenodd" clip-rule="evenodd" d="M288.908 4.90179C289.753 8.08329 290.544 11.0311 291.335 13.9969C291.389 14.1767 291.407 14.3744 291.371 14.5361C290.58 17.5559 289.771 20.5576 288.908 23.7391C285.727 22.8943 282.725 22.0854 279.723 21.2766C279.49 21.2227 279.274 21.0609 279.094 20.8991C276.919 18.7422 274.762 16.5852 272.516 14.3384C274.762 12.0916 276.883 9.95264 279.022 7.84962C279.31 7.56202 279.741 7.36433 280.137 7.25648C282.977 6.4656 285.835 5.72862 288.908 4.90179ZM287.704 21.6541C288.369 19.1736 288.962 16.9807 289.555 14.7878C289.627 14.5541 289.663 14.2845 289.609 14.0688C288.998 11.7501 288.369 9.44936 287.722 6.98685C285.26 7.6519 282.941 8.26305 280.64 8.91013C280.371 8.98203 280.101 9.19773 279.885 9.41342C278.25 10.9952 276.632 12.5769 274.888 14.2665C276.668 16.046 278.321 17.6997 279.975 19.3353C280.191 19.551 280.478 19.7128 280.766 19.8027C282.977 20.3959 285.224 20.989 287.704 21.6541Z" fill="#FADBC3"/>
<path fill-rule="evenodd" clip-rule="evenodd" d="M327.176 3.42793C327.697 3.24819 328.146 3.06844 328.596 2.94261C331.328 2.20566 334.06 1.45072 336.792 0.749717C337.727 0.516047 338.464 0.0846587 339.147 -0.598375C341.412 -2.93507 343.73 -5.23582 346.139 -7.62643C346.588 -7.26694 346.984 -6.9973 347.325 -6.67375C349.338 -4.67858 351.352 -2.68342 353.329 -0.652294C354.048 0.0846626 354.839 0.534032 355.827 0.785676C358.577 1.46871 361.309 2.24162 364.042 2.97858C364.455 3.08642 364.832 3.24818 365.408 3.4459C364.868 5.51298 364.491 7.5621 363.772 9.50335C362.568 12.7747 362.568 15.9202 363.772 19.1736C364.473 21.061 364.85 23.0741 365.426 25.249C364.725 25.4647 364.113 25.6625 363.484 25.8422C360.878 26.5432 358.236 27.2083 355.647 27.9812C354.857 28.2149 354.066 28.6822 353.473 29.2394C351.495 31.0908 349.626 33.05 347.703 34.9733C347.271 35.4047 346.822 35.8001 346.229 36.3573C345.007 35.135 343.838 33.9667 342.67 32.8163C341.124 31.3065 339.776 29.4551 337.978 28.4126C336.235 27.388 334.006 27.2083 331.993 26.6511C330.447 26.2376 328.919 25.8063 327.194 25.3389C327.32 24.6918 327.409 24.0987 327.553 23.5415C328.254 20.8633 329.027 18.203 329.674 15.5068C329.854 14.7699 329.854 13.9251 329.674 13.1881C329.045 10.5638 328.29 7.93954 327.607 5.33323C327.463 4.7221 327.338 4.12894 327.176 3.42793ZM346.337 34.0566C348.476 31.8637 350.453 29.9224 352.34 27.9093C353.131 27.0645 354.048 26.5792 355.162 26.3095C357.427 25.7344 359.674 25.1232 361.939 24.4941C362.388 24.3683 362.819 24.1706 363.359 23.9728C362.999 22.6068 362.658 21.3665 362.334 20.1263C361.831 18.221 360.932 16.3157 360.95 14.4104C360.95 12.4512 361.831 10.474 362.334 8.51474C362.658 7.22057 362.999 5.94438 363.359 4.52439C361.22 3.9492 359.296 3.30212 357.319 2.92465C354.677 2.42136 352.538 1.25302 350.794 -0.832023C349.464 -2.41378 347.882 -3.77987 346.319 -5.34366C344.773 -3.81582 343.281 -2.53963 342.041 -1.04774C340.171 1.18111 337.889 2.45731 335.049 2.97857C333.143 3.32009 331.274 3.98514 329.243 4.54235C329.962 7.25651 330.573 9.8089 331.328 12.3253C331.741 13.6734 331.741 14.9137 331.346 16.2797C330.591 18.7962 329.98 21.3486 329.279 23.9908C329.8 24.1886 330.178 24.3683 330.573 24.4761C332.712 25.0693 334.833 25.7164 336.99 26.2017C338.5 26.5432 339.668 27.2622 340.711 28.3766C342.418 30.228 344.288 32.0075 346.337 34.0566Z" fill="#FADBC3"/>
<path fill-rule="evenodd" clip-rule="evenodd" d="M346.265 101.066C346.786 101.551 347.253 101.946 347.685 102.36C349.482 104.139 351.297 105.901 353.023 107.734C353.904 108.669 354.892 109.244 356.133 109.55C358.829 110.197 361.489 110.97 364.167 111.688C364.527 111.778 364.85 111.922 365.318 112.102C365.192 112.713 365.12 113.306 364.958 113.881C364.311 116.326 363.7 118.77 362.963 121.179C362.567 122.473 362.621 123.678 362.999 124.954C363.682 127.308 364.293 129.699 364.94 132.09C365.102 132.665 365.21 133.276 365.371 134.013C363.34 134.57 361.417 135.271 359.44 135.613C355.881 136.206 353.005 137.787 350.74 140.609C349.464 142.173 347.972 143.575 346.516 145.121C345.941 144.636 345.546 144.366 345.222 144.025C343.245 142.065 341.268 140.142 339.344 138.129C338.553 137.284 337.637 136.799 336.522 136.511C334.006 135.9 331.525 135.199 329.027 134.534C328.434 134.372 327.877 134.175 327.158 133.941C327.589 132.305 327.984 130.777 328.38 129.25C328.919 127.165 329.89 125.08 329.872 122.994C329.872 120.909 328.901 118.824 328.344 116.739C327.948 115.247 327.553 113.774 327.14 112.174C327.643 111.994 328.092 111.796 328.542 111.671C331.22 110.934 333.88 110.179 336.576 109.514C337.709 109.244 338.589 108.705 339.38 107.878C341.178 106.009 343.029 104.211 344.863 102.378C345.294 101.946 345.743 101.569 346.265 101.066ZM363.358 113.288C362.316 112.983 361.399 112.695 360.464 112.443C358.164 111.796 355.611 111.563 353.598 110.412C351.585 109.244 350.111 107.159 348.404 105.487C347.72 104.804 347.019 104.139 346.121 103.258C345.24 104.229 344.539 105.092 343.766 105.865C342.202 107.429 340.836 109.352 338.967 110.412C337.044 111.509 334.653 111.742 332.46 112.372C331.418 112.677 330.357 112.983 329.207 113.306C329.8 115.535 330.213 117.656 330.932 119.669C331.741 121.988 331.705 124.163 330.914 126.482C330.213 128.495 329.8 130.598 329.207 132.809C331.022 133.312 332.64 133.923 334.311 134.193C337.691 134.732 340.387 136.278 342.526 138.938C343.604 140.25 344.916 141.364 346.211 142.641C346.786 142.119 347.253 141.724 347.667 141.293C349.284 139.693 350.902 138.093 352.484 136.457C353.149 135.756 353.904 135.325 354.82 135.091C357.265 134.48 359.692 133.815 362.136 133.132C362.514 133.024 362.873 132.809 363.304 132.611C362.621 130.005 362.01 127.488 361.273 125.026C360.86 123.677 360.842 122.437 361.255 121.071C362.028 118.573 362.639 116.002 363.358 113.288Z" fill="#FADBC3"/>
<path fill-rule="evenodd" clip-rule="evenodd" d="M346.048 5.60285C347.45 6.89702 348.403 8.08337 349.625 8.80235C350.794 9.48538 352.268 9.66511 353.867 10.1325C352.591 12.9365 352.591 15.6866 353.921 18.5985C350.704 19.0658 348.169 20.3061 346.408 22.9663C345.168 21.7979 344.233 20.5936 343.011 19.8747C341.842 19.1916 340.35 19.0119 338.769 18.5446C339.739 15.7944 340.117 13.0443 338.589 10.1504C341.663 9.44943 344.413 8.56865 346.048 5.60285ZM351.8 17.4301C350.758 15.2192 351.081 13.2421 351.656 11.0312C349.158 11.175 347.774 9.61118 346.192 8.13727C344.862 10.0066 343.083 10.8694 340.836 11.2469C341.734 13.3679 341.591 15.3271 340.908 17.4301C343.226 17.6997 344.88 18.7423 346.3 20.5577C347.684 18.7602 349.338 17.6997 351.8 17.4301Z" fill="#FADBC3"/>
<path fill-rule="evenodd" clip-rule="evenodd" d="M353.759 127.398C350.632 127.722 348.187 129.088 346.282 131.82C344.359 129.16 341.95 127.704 338.769 127.416C339.146 125.816 339.721 124.468 339.739 123.102C339.739 121.736 339.182 120.37 338.84 118.824C340.278 118.393 341.788 118.177 343.029 117.476C344.215 116.793 345.114 115.607 346.264 114.51C347.36 115.535 348.295 116.739 349.499 117.458C350.686 118.141 352.16 118.339 353.705 118.806C353.382 120.244 352.807 121.646 352.807 123.066C352.807 124.414 353.382 125.781 353.759 127.398ZM351.764 119.885C349.284 119.687 347.702 118.483 346.21 116.811C344.844 118.681 343.1 119.597 340.818 119.939C341.68 122.042 341.591 124.019 340.872 126.14C343.244 126.374 344.88 127.596 346.39 129.286C347.684 127.236 349.571 126.535 351.728 126.032C350.883 123.983 350.883 122.06 351.764 119.885Z" fill="#FADBC3"/>
</g>
</g>
<defs>
<clipPath id="clip0">
<rect width="414" height="173" fill="white"/>
</clipPath>
<clipPath id="clip1">
<rect x="200" y="-42.4193" width="429.328" height="429.328" rx="214.664" transform="rotate(-45 200 -42.4193)" fill="white"/>
</clipPath>
</defs>
</svg>
