<svg width="116" height="120" viewBox="0 0 116 120" fill="none" xmlns="http://www.w3.org/2000/svg">
<path d="M31.6669 41.4001C32.4645 36.6787 32.4978 31.861 33.8231 27.2398C34.9649 23.2699 36.7836 19.8237 40.9441 18.1563C44.3606 16.766 47.1847 18.201 49.655 20.2995C53.8068 23.7902 56.6781 28.3333 58.9341 33.2036C61.4762 38.7506 64.6461 43.8709 68.1776 48.8008C72.9997 55.5456 78.3831 61.8553 82.5068 69.0516C85.1868 73.773 86.5327 78.8995 87.4172 84.2038C88.4589 90.4047 88.0214 96.554 86.2255 102.498C84.0254 109.774 79.3053 114.811 71.6258 116.27C64.2248 117.664 57.2416 116.278 50.9674 111.947C44.0454 107.129 39.9173 100.236 36.6498 92.6754C33.9006 86.3605 32.3109 79.6859 31.2032 72.9372C29.4923 62.4033 29.8712 51.8967 31.6669 41.4001Z" fill="#FADBC3"/>
<path d="M68.4916 56.7935C69.9525 55.2098 70.6912 53.1351 71.44 51.1565C72.3199 48.8321 73.1997 46.5098 74.0795 44.1854C74.5112 43.0437 74.8795 41.8446 75.4463 40.7602C76.0295 39.6451 76.8458 38.9146 77.9037 38.2599C78.0756 38.1535 78.0244 37.8158 77.7912 37.8445C77.341 37.9018 76.9338 38.0552 76.5635 38.2742C76.5492 38.3458 76.5144 38.4317 76.453 38.534C76.1952 38.9678 75.919 39.3873 75.6652 39.8231C75.3317 40.4001 74.9962 40.9771 74.6933 41.5705C74.2186 42.5014 73.7767 43.4488 73.3122 44.3839C72.6431 45.7322 72.193 47.1604 71.7735 48.5988C71.1822 50.6347 70.4681 52.6215 69.4164 54.4712C69.1566 54.9295 68.8578 55.3694 68.5489 55.7971C68.2133 56.2636 67.7673 56.6114 67.2557 56.8774C66.5253 57.258 65.7744 57.569 64.9498 57.6733C64.7042 57.704 64.4669 57.6877 64.2336 57.6386C64.0945 57.7081 63.9636 57.7879 63.8408 57.8861C63.583 58.0948 63.7057 58.4877 63.939 58.6432C65.2976 59.5537 67.6036 57.7552 68.4916 56.7935Z" fill="#FADBC3"/>
<path d="M45.4094 58.0256C44.8263 57.731 44.3516 57.3054 43.9628 56.7816C43.7009 56.4256 43.4697 56.0552 43.263 55.6726C42.3893 54.3979 41.9576 52.8183 41.6793 51.3246C41.6486 51.165 41.62 51.0034 41.5914 50.8438C41.4338 50.1522 41.2967 49.4565 41.1678 48.7588C40.8568 47.0748 40.4783 45.4073 39.977 43.7683C39.9054 43.5351 39.8235 43.3059 39.7355 43.0829C39.5657 42.6982 39.3754 42.3197 39.1647 41.9514C38.9335 41.581 38.6654 41.2332 38.3503 40.9099C38.1744 40.7299 38.0045 40.5375 37.7651 40.4209C37.7672 40.4352 37.7692 40.4475 37.7754 40.4618C38.7861 42.7739 39.6967 44.994 40.0506 47.5127C40.3801 49.8617 40.4946 52.274 41.3683 54.5043C42.0415 56.223 43.1791 57.8865 44.8774 58.7193C46.4979 59.5132 48.6116 59.6339 50.0356 58.3796C50.3569 58.0972 50.2382 57.7228 49.9702 57.5284C49.121 57.7985 48.276 58.0768 47.4187 58.3162C46.721 58.5065 46.0457 58.3469 45.4094 58.0256Z" fill="#FADBC3"/>
<path d="M50.9336 28.0046C51.5638 27.1862 52.1653 26.3452 52.8324 25.5575C53.217 25.1012 53.5342 24.6224 53.792 24.1211C52.0098 26.7258 50.0558 29.1648 47.7273 31.3234C45.0858 33.7726 42.2151 35.9599 39.0784 37.7379C38.6017 38.008 38.7879 38.6178 39.1766 38.7815C42.1005 37.2632 44.5784 35.1639 46.8945 32.8416C48.3862 31.3459 49.6527 29.6701 50.9336 28.0046Z" fill="#FADBC3"/>
<path d="M58.2033 23.3011C58.901 24.449 59.7645 25.4598 60.7753 26.3478C63.0649 28.3591 65.332 30.3929 67.6236 32.4002C68.6855 33.3291 69.7884 34.211 71.0549 34.8534C71.4457 35.0519 71.8529 35.234 72.2703 35.3629C73.2443 35.6617 74.2284 35.9256 75.2106 36.1977C75.3559 36.2387 75.5093 36.2427 75.6566 36.2734C75.7855 36.3 75.9247 36.3696 75.9042 36.5108C75.894 36.5804 75.8469 36.6683 75.7876 36.7277C76.1211 36.611 76.2193 36.0279 75.8592 35.8622C74.077 35.0417 72.2621 34.4238 70.5618 33.4089C68.8124 32.3633 67.153 31.2011 65.5345 29.9653C62.2485 27.4568 58.4489 24.7886 57.1905 20.631C57.1312 20.4325 56.8488 20.5164 56.8856 20.7148C56.9081 20.8417 56.9347 20.9686 56.9634 21.0934C57.0923 21.3103 57.2212 21.5292 57.346 21.7502C57.6345 22.2637 57.8964 22.7957 58.2033 23.3011Z" fill="#FADBC3"/>
<path d="M54.5838 62.6577C54.8396 60.7467 54.3649 59.1282 53.1658 57.8003C53.1679 57.8166 53.172 57.8309 53.174 57.8473C53.1515 57.8084 53.127 57.7716 53.1045 57.7348C52.8732 57.4852 52.6195 57.2458 52.3372 57.0166C52.0957 56.8222 51.844 56.6381 51.5903 56.458C52.595 57.7532 53.3745 59.1977 53.7224 60.8326C53.9822 62.0562 53.9843 63.3268 53.7531 64.5545C53.5751 65.4916 53.0288 66.4164 52.9326 67.3535C53.1454 66.8379 53.3766 66.3305 53.5996 65.819C54.0436 64.8 54.4344 63.7667 54.5838 62.6577Z" fill="#FADBC3"/>
<path d="M55.4086 62.531C55.4004 62.6088 55.3882 62.6865 55.3779 62.7643C55.5334 62.3244 55.513 61.8333 55.4516 61.3545C55.4639 61.7351 55.4516 62.1259 55.4086 62.531Z" fill="#FADBC3"/>
<path d="M54.6165 58.2258C54.6022 58.1972 54.5858 58.1726 54.5674 58.1562C54.5919 58.1972 54.6165 58.2401 54.639 58.2811C54.6308 58.2647 54.6247 58.2442 54.6165 58.2258Z" fill="#FADBC3"/>
<path d="M45.6222 83.4521C45.3951 82.1999 45.1046 80.96 44.7506 79.7364C44.4068 78.5476 43.9874 77.3875 43.5086 76.2519C43.2037 75.2411 42.8538 74.2569 42.4508 73.283C41.5791 70.2875 40.5499 67.3267 39.2732 64.5011C39.265 64.4806 39.2507 64.4683 39.2363 64.4561C39.7397 65.8986 40.1346 67.382 40.5192 68.8634C41.5034 72.6384 42.7045 76.3521 43.6723 80.1292C44.2125 82.2347 44.5951 84.3831 45.0186 86.5172C45.2805 87.839 45.4729 89.171 45.567 90.5173C45.5915 90.8775 45.6099 91.2396 45.6304 91.5997C45.6509 91.5956 45.6713 91.5874 45.6897 91.5793C45.6979 92.054 45.702 92.5266 45.6959 93.0013C45.6959 93.0238 45.6938 93.0463 45.6938 93.0688C45.7409 94.4459 45.7491 95.8229 45.7082 97.1999C45.6631 98.6833 45.524 100.157 45.2396 101.611C46.0008 98.8716 46.4202 96.0357 46.5061 93.1936C46.5593 91.4094 46.4959 89.6293 46.3138 87.8533C46.1644 86.4087 46.0171 84.8721 45.6222 83.4521ZM44.7874 82.5211C44.7813 82.4291 44.7731 82.337 44.7649 82.2449C44.7833 82.3288 44.7997 82.4127 44.8181 82.4966C44.8058 82.5048 44.7976 82.513 44.7874 82.5211Z" fill="#FADBC3"/>
<path d="M69.5166 96.361C69.58 96.6864 69.6475 97.0097 69.7212 97.3329C69.7253 97.3411 69.7314 97.3493 69.7355 97.3555C69.6066 96.6536 69.4736 95.9518 69.3468 95.25C69.3427 95.2582 69.3386 95.2664 69.3345 95.2766C69.3877 95.6388 69.447 96.0009 69.5166 96.361Z" fill="#FADBC3"/>
<path d="M69.181 97.5971C68.8147 96.2058 68.5426 94.7919 68.4035 93.3515C68.1641 90.8695 68.0433 88.3794 68.2091 85.8832C68.4301 82.5726 68.8925 79.2968 69.6598 76.0701C70.1836 73.8664 70.822 71.6934 71.5361 69.5409C71.7652 68.8473 71.9064 68.125 72.0906 67.415C70.7299 69.6412 69.848 72.2295 69.1155 74.7115C68.3155 77.4225 67.7753 80.2298 67.5052 83.0452C67.2331 85.8689 67.2085 88.717 67.4398 91.5468C67.6628 94.2784 68.0024 97.2534 69.0194 99.8253C69.0746 99.2749 69.0869 98.7204 69.1257 98.168C69.138 97.9757 69.1585 97.7874 69.181 97.5971Z" fill="#FADBC3"/>
<path d="M69.8154 99.7275C69.8113 99.9035 69.8092 100.077 69.8256 100.249C69.8297 100.29 69.8338 100.331 69.8379 100.372C69.8931 100.345 69.9463 100.309 69.9913 100.264C69.9893 100.255 69.9872 100.245 69.9852 100.235C69.9279 100.069 69.8727 99.8994 69.8154 99.7275Z" fill="#FADBC3"/>
<path d="M58.633 77.7154C58.5041 77.5394 58.3957 77.3552 58.3057 77.167C58.6064 77.9486 59.1671 78.5829 60.0592 78.6811C60.1308 78.6893 60.1962 78.677 60.2535 78.6545C60.0469 78.6013 59.8402 78.544 59.6377 78.4827C59.2182 78.3537 58.8929 78.0693 58.633 77.7154Z" fill="#FADBC3"/>
<path d="M58.666 74.7875C58.576 75.4014 58.5698 76.0172 58.7765 76.6167C59.0016 77.2695 59.4046 77.7564 60.0635 78.0101C60.2292 78.0736 60.395 78.135 60.5587 78.1984C60.5689 78.0552 60.528 77.9099 60.4195 77.8076C59.9776 77.3963 59.5561 77.1385 59.3351 76.5451C59.0998 75.9149 59.0936 75.2254 59.1571 74.5625C59.2798 73.2775 59.7484 71.7757 60.4359 70.6789C60.4605 70.6401 60.4584 70.6012 60.4441 70.5664C60.2845 70.8283 60.1249 71.0882 59.9653 71.3501C59.3208 72.4161 58.8481 73.5496 58.666 74.7875Z" fill="#FADBC3"/>
<path d="M62.2203 53.5488C62.1467 53.6245 62.075 53.7002 61.9993 53.7739C61.6413 54.1279 61.2914 54.4921 60.9599 54.8686C60.2172 55.7095 59.7834 56.706 59.546 57.7945C59.409 58.4247 59.4396 59.0529 59.6586 59.6565C59.8202 60.1025 59.9941 60.5465 60.1865 60.9823C60.2213 60.9598 60.252 60.9312 60.2745 60.8923C60.5609 60.4238 60.3665 60.0329 60.3092 59.503C60.2294 58.7725 60.2479 58.0421 60.3993 57.3198C60.696 55.9141 61.3466 54.6783 62.2203 53.5488Z" fill="#FADBC3"/>
<path d="M61.5674 82.4869C61.1623 82.3191 60.7367 82.1922 60.3091 82.0961C59.5745 81.9283 58.8277 81.8116 58.0911 81.65C56.6036 81.3247 55.3473 80.6249 54.4101 79.387C53.2705 77.8811 52.7508 76.1562 52.583 74.3045C52.4234 72.551 52.6669 70.8404 53.1579 69.1565C53.4833 68.0413 53.9702 66.9896 54.4286 65.9277C54.8685 64.9088 55.2286 63.8673 55.3759 62.7644C55.3861 62.6867 55.3984 62.6089 55.4066 62.5312C55.4496 62.1281 55.4618 61.7373 55.4496 61.3547C55.4148 60.2354 55.1488 59.2103 54.6373 58.2835C54.6148 58.2405 54.5902 58.1996 54.5656 58.1586C54.1462 57.4343 53.5753 56.7714 52.849 56.1719C52.5973 55.9632 52.3354 55.7647 52.0653 55.5806C50.5062 54.5207 49.2315 53.1682 48.0979 51.6766C47.8319 51.3267 47.5905 50.9543 47.3756 50.5717C46.4978 49.0064 46.0538 47.3122 45.97 45.526C45.8902 43.8236 46.0968 42.156 46.7147 40.558C47.4084 38.7636 48.5808 37.317 50.0417 36.0955C51.3901 34.9681 52.8919 34.121 54.6004 33.6626C54.6802 33.6401 54.7559 33.5972 54.8992 33.5358C54.7621 33.503 54.6925 33.4662 54.625 33.4724C54.2874 33.501 53.9416 33.503 53.6163 33.5828C50.2095 34.4238 47.0708 37.2617 45.8472 40.6071C45.0942 42.6696 44.9101 44.8017 45.2006 46.9685C45.4359 48.724 45.9843 50.3855 46.9951 51.8525C48.0938 53.4465 49.3604 54.8931 50.9584 56.0164C51.1671 56.1637 51.3778 56.309 51.5865 56.4563C51.8402 56.6363 52.0919 56.8184 52.3333 57.0149C52.6157 57.244 52.8694 57.4834 53.1006 57.7331C53.1211 57.7556 53.1416 57.776 53.162 57.7985C54.359 59.1265 54.8357 60.747 54.58 62.656C54.4306 63.767 54.0418 64.8003 53.5978 65.8172C53.3748 66.3288 53.1436 66.8362 52.9308 67.3518C52.8756 67.4869 52.8203 67.6239 52.7671 67.761C51.8259 70.2102 51.3962 72.731 51.8259 75.35C52.1021 77.0401 52.6853 78.6054 53.7636 79.962C54.6107 81.028 55.6644 81.7932 56.9739 82.1759C57.6123 82.3621 58.265 82.5135 58.9177 82.6362C59.7587 82.7938 60.6058 82.9084 61.4058 83.2398C62.2447 83.5877 62.8544 84.1851 63.2841 84.9708C63.6176 85.5765 63.7302 86.2231 63.5378 86.9044C63.4703 87.1459 63.4048 87.3893 63.3434 87.6328C63.2657 87.95 63.1879 88.2692 63.1225 88.5884C63.0897 88.748 63.059 88.9137 63.2596 89.0999C63.3373 89.016 63.4192 88.9567 63.458 88.8789C63.8345 88.0912 64.1496 87.2809 64.2274 86.4052C64.254 86.0982 64.2396 85.7688 64.1619 85.4721C63.7936 84.0562 62.926 83.0455 61.5674 82.4869Z" fill="black"/>
<path d="M45.6935 93.0692C45.6772 92.5802 45.6567 92.0911 45.6281 91.6021C45.6076 91.242 45.5892 90.8798 45.5646 90.5197C45.4705 89.1734 45.2782 87.8393 45.0163 86.5196C44.5948 84.3855 44.2101 82.2371 43.6699 80.1316C42.7021 76.3545 41.5011 72.6408 40.5169 68.8658C40.1302 67.3864 39.7373 65.901 39.234 64.4585C39.2074 64.3827 39.1828 64.307 39.1562 64.2313C38.5588 62.5638 37.8119 60.9494 37.1265 59.3125C36.5106 57.8373 35.8149 56.3927 35.2911 54.8847C34.4277 52.4007 33.7954 49.8452 33.2327 47.2732C33.1591 46.9315 33.0813 46.5898 33.0077 46.2481C32.9668 46.2481 32.9258 46.2481 32.8849 46.2481C32.8563 46.3995 32.7969 46.553 32.801 46.7044C32.8215 47.308 32.8297 47.9136 32.9033 48.5111C33.0077 49.352 33.1693 50.1848 33.3514 51.0114C33.3166 50.9419 33.2819 50.8703 33.2471 50.8007C32.5944 49.438 31.7698 48.196 30.6485 47.1729C29.2408 45.89 28.1011 44.3964 27.1006 42.7861C27.0412 42.6899 26.9778 42.5917 26.8919 42.5201C26.6954 42.3544 26.4499 42.4567 26.4294 42.7124C26.4192 42.8352 26.4397 42.9641 26.4663 43.0869C26.5543 43.5043 26.6463 43.9217 26.7425 44.3391C27.0842 45.843 27.5712 47.2937 28.3446 48.6339C28.9912 49.7551 29.7728 50.7802 30.8818 51.482C31.7084 52.0058 32.5821 52.458 33.4476 52.9184C33.5745 52.9859 33.7095 53.0432 33.8486 53.0964C33.8609 53.1455 33.8732 53.1926 33.8834 53.2417C34.1699 54.4162 34.5095 55.5743 34.974 56.6935C35.5285 58.0296 36.0502 59.38 36.6293 60.7059C37.6217 62.9791 38.4749 65.3015 39.101 67.6995C38.8575 67.2923 38.6161 66.8851 38.3685 66.4821C37.683 65.369 36.7111 64.6037 35.4998 64.1311C35.019 63.9428 34.532 63.7751 34.0532 63.5807C33.7177 63.4456 33.3923 63.286 33.0568 63.1346C33.11 62.9423 33.155 62.7868 33.1959 62.6313C33.4046 61.8169 33.3473 61.0312 32.9156 60.2946C32.5227 59.6235 32.0112 59.0547 31.3687 58.6107C31.2255 58.5125 31.0659 58.4224 30.9002 58.3774C30.5176 58.2731 30.1881 58.5043 30.1431 58.8992C30.1268 59.0465 30.1513 59.2 30.1718 59.3473C30.1881 59.468 30.2291 59.5867 30.2802 59.7954C29.961 59.6255 29.7237 59.4844 29.4741 59.3739C29.2817 59.2879 29.0751 59.2081 28.8684 59.1795C28.4674 59.1243 28.2464 59.3677 28.2996 59.7647C28.3119 59.8588 28.3303 59.9509 28.3466 60.0532C28.142 60.043 27.9681 60.0184 27.7942 60.0307C27.5221 60.0491 27.3481 60.223 27.342 60.4931C27.3379 60.6527 27.3604 60.8266 27.4279 60.9678C27.5487 61.2276 27.6939 61.4834 27.8597 61.7187C28.586 62.7459 29.5927 63.4252 30.7038 63.9613C30.9391 64.0738 31.1989 64.1474 31.4567 64.1986C32.0378 64.3152 32.2302 64.215 32.535 63.6932C32.5534 63.6605 32.578 63.6318 32.5985 63.6052C32.6291 63.6073 32.6578 63.6011 32.6762 63.6114C33.3985 64.0595 34.2026 64.3234 34.9985 64.5976C36.3081 65.0498 37.3372 65.8539 38.0861 67.0202C38.303 67.3598 38.5465 67.6811 38.7757 68.0125C38.8104 68.0637 38.8391 68.1189 38.9066 68.2356C38.7859 68.1762 38.7388 68.1578 38.6979 68.1333C37.6053 67.4642 36.4329 67.1184 35.1397 67.2227C34.8553 67.2453 34.5566 67.2207 34.2783 67.1593C33.1264 66.9056 32.1647 66.302 31.3278 65.4876C30.9759 65.1459 30.6587 64.7695 30.3252 64.4093C30.1963 64.2702 30.0736 64.127 29.9344 63.9981C29.7503 63.8262 29.603 63.7996 29.4618 63.8958C29.2858 64.0165 29.2879 64.1884 29.3411 64.3684C29.384 64.5137 29.427 64.659 29.4843 64.7981C29.826 65.637 30.1636 66.478 30.5196 67.3107C30.9534 68.3195 31.4731 69.2811 32.1585 70.1466C32.7662 70.9139 33.5192 71.4889 34.4195 71.8654C35.1356 72.1641 35.8804 72.336 36.6661 72.2398C38.0411 72.072 39.0887 71.4275 39.7414 70.208C39.9604 71.0019 40.2079 71.7876 40.5189 72.5549C40.6315 72.8332 40.7031 73.1299 40.789 73.4184C40.8791 73.7171 40.967 74.0179 41.055 74.3186C40.9998 74.3309 40.9384 74.3473 40.8709 74.3718C40.7542 74.4169 40.6417 74.4762 40.5292 74.5314C40.077 74.7483 39.6268 74.9591 39.1214 75.0552C38.0104 75.2619 37.0856 75.8225 36.3019 76.6328C35.1234 77.8482 34.3929 79.3071 33.9223 80.9112C33.5028 82.3394 33.3821 83.7901 33.7832 85.2346C34.1637 86.6035 34.6159 87.9519 35.0374 89.3105C35.0558 89.3698 35.0804 89.4292 35.1111 89.4824C35.1888 89.6153 35.3034 89.689 35.4569 89.6317C35.6062 89.5765 35.6635 89.4517 35.639 89.2982C35.6226 89.2 35.5837 89.1038 35.5633 89.0056C35.4671 88.5248 35.3566 88.046 35.287 87.5631C35.1704 86.7508 35.3934 85.9856 35.6922 85.2449C36.2017 83.9804 36.5986 82.6831 36.8707 81.3491C37.0856 80.2933 37.593 79.3971 38.393 78.6707C38.6447 78.4416 38.8984 78.2165 39.148 77.9853C39.9317 77.265 40.5946 76.4405 41.1573 75.5422C41.2146 75.4501 41.2719 75.3601 41.3333 75.2783C41.6934 76.5182 42.0597 77.7582 42.52 78.9674C42.6674 79.3541 42.8167 79.747 42.9088 80.1501C43.1891 81.3757 43.4572 82.6054 43.7047 83.8392C44.2367 86.5053 44.7298 89.1775 44.8976 91.9009C45.0695 94.6938 45.1922 97.4826 44.8771 100.274C44.8567 100.449 44.8362 100.628 44.8137 100.803C44.6971 101.196 44.4802 101.542 44.2203 101.888C43.1625 103.294 42.0106 104.603 40.6069 105.673C39.8969 106.215 39.1706 106.737 38.4565 107.275C36.8891 108.458 35.3116 109.63 33.7647 110.838C33.2614 111.23 32.8235 111.707 32.3775 112.168C32.2138 112.335 32.089 112.552 31.9908 112.767C31.8128 113.16 31.9335 113.524 32.2936 113.747C32.4204 113.825 32.5657 113.88 32.7089 113.921C33.1836 114.054 33.6583 113.997 34.1249 113.872C35.4917 113.508 36.7255 112.861 37.8917 112.082C39.6862 110.885 41.1287 109.334 42.3727 107.584C42.4505 107.474 42.5282 107.363 42.606 107.255C42.6244 107.263 42.6448 107.271 42.6633 107.281C42.6285 107.398 42.5937 107.517 42.5589 107.633C42.4116 108.141 42.254 108.646 42.1169 109.156C41.7118 110.655 41.4295 112.176 41.4315 113.735C41.4315 114.134 41.4745 114.543 41.5727 114.93C41.7077 115.472 42.1599 115.578 42.5282 115.163C42.741 114.922 42.9088 114.631 43.0459 114.336C43.4142 113.545 43.627 112.702 43.8173 111.854C44.1365 110.428 44.3697 108.988 44.5129 107.533C44.6644 106.005 44.8342 104.478 44.9958 102.952C45.0122 102.807 45.0286 102.661 45.0429 102.518C45.1145 102.217 45.18 101.915 45.2393 101.61C45.5237 100.155 45.6629 98.6817 45.7079 97.1982C45.7508 95.8232 45.7406 94.4462 45.6935 93.0692ZM32.9627 51.748C32.5964 51.4247 32.2302 51.1117 31.8741 50.7864C31.512 50.4549 31.1519 50.1214 30.8102 49.7694C30.4685 49.4196 30.1534 49.0431 29.8198 48.683C29.4945 48.3331 29.3288 47.8482 28.9052 47.5269C28.7988 47.7602 28.9032 47.9157 28.9728 48.063C29.2449 48.6339 29.5702 49.172 30.0122 49.6283C30.5544 50.1869 31.1109 50.7352 31.6634 51.2856C31.7043 51.3265 31.7473 51.3654 31.7718 51.4268C31.3647 51.2488 31.0045 51.0032 30.6772 50.7168C29.7626 49.9209 29.0669 48.9571 28.5206 47.8809C27.9661 46.7883 27.5753 45.6343 27.2929 44.4434C27.2786 44.3861 27.2827 44.3227 27.2704 44.1836C27.3809 44.337 27.4505 44.4209 27.5077 44.513C28.1195 45.489 28.8582 46.3606 29.6848 47.1607C29.9017 47.3714 30.1104 47.5883 30.3355 47.7909C31.4915 48.8426 32.2956 50.1418 32.9668 51.5332C32.9893 51.5782 33.0015 51.6273 33.0159 51.6744C33.0138 51.6846 32.9974 51.6969 32.9627 51.748ZM32.6946 62.2528C32.6823 62.3387 32.6557 62.4267 32.6169 62.5024C32.4532 62.8236 32.2813 63.1428 32.1115 63.462C31.9764 63.7157 31.913 63.7505 31.6306 63.6871C31.4711 63.6502 31.3135 63.6073 31.1641 63.5438C30.0122 63.0528 29.0034 62.3653 28.2362 61.3566C28.0479 61.109 27.8719 60.8532 27.7962 60.5176C27.9211 60.5176 28.009 60.5033 28.0888 60.5217C28.1973 60.5483 28.3016 60.5995 28.406 60.6404C28.5942 60.7141 28.7927 60.8246 28.9605 60.6302C29.1221 60.4481 29.0178 60.2517 28.9359 60.0655C28.8868 59.9529 28.8398 59.8363 28.76 59.6399C28.9482 59.7053 29.0771 59.734 29.1917 59.7954C29.5027 59.9611 29.8055 60.1412 30.1124 60.311C30.3007 60.4153 30.5012 60.5402 30.7099 60.3928C30.9268 60.2414 30.9125 60.0041 30.8634 59.7749C30.8224 59.5785 30.7651 59.3841 30.7222 59.1877C30.7038 59.1079 30.7058 59.0219 30.6915 58.8583C30.8531 58.9503 30.9616 58.9994 31.0557 59.069C31.6081 59.4803 32.0562 59.9857 32.4082 60.577C32.7151 61.1008 32.7847 61.6635 32.6946 62.2528ZM40.3409 75.7919C39.7967 76.5366 39.1767 77.2118 38.4667 77.8032C38.3705 77.883 38.2764 77.9689 38.1802 78.0487C37.1776 78.8876 36.5393 79.9454 36.2774 81.2243C36.0114 82.5215 35.6308 83.7839 35.1479 85.0157C34.9842 85.4352 34.8737 85.8751 34.7387 86.3068C34.0205 85.0689 33.9837 82.5788 34.6548 80.5593C35.2768 78.6891 36.2651 77.0891 37.949 76.0026C37.9715 76.021 37.994 76.0415 38.0166 76.0599C37.9081 76.152 37.7997 76.2481 37.6892 76.3382C37.1817 76.7494 36.7787 77.2405 36.5086 77.838C36.1751 78.5705 35.8395 79.303 35.5203 80.0396C35.4344 80.238 35.3525 80.4529 35.4344 80.7066C35.6431 80.6288 35.6922 80.4529 35.7699 80.3035C36.1137 79.6324 36.4554 78.9592 36.7971 78.286C37.1449 77.5986 37.6257 77.0236 38.258 76.5837C38.8248 76.1888 39.4038 75.8103 39.9808 75.4317C40.1916 75.2926 40.4289 75.221 40.7399 75.2455C40.5885 75.4501 40.4657 75.622 40.3409 75.7919ZM35.8763 69.5921C36.0011 69.6883 36.1628 69.7538 36.3162 69.7906C37.2186 70.0055 38.125 70.1119 39.0355 69.8315C39.0948 69.8131 39.1583 69.8049 39.2197 69.7947C39.2442 69.7906 39.2688 69.7988 39.3506 69.809C39.0457 70.3267 38.702 70.7707 38.1925 71.0572C37.149 71.6464 36.0625 71.6874 34.9556 71.2679C34.1044 70.9446 33.3821 70.431 32.799 69.7292C32.224 69.0376 31.7636 68.2724 31.3667 67.4703C31.0987 66.9302 30.8552 66.3757 30.6035 65.8273C30.5687 65.7516 30.5523 65.6698 30.5278 65.59C30.5503 65.5715 30.5749 65.5552 30.5974 65.5368C30.6833 65.6431 30.7611 65.7577 30.8552 65.8559C31.5611 66.5905 32.3816 67.1614 33.331 67.544C33.8527 67.7547 34.3868 67.8714 34.9494 67.8468C35.2768 67.8325 35.6042 67.8304 35.9295 67.8141C36.4922 67.7875 37.0406 67.8755 37.548 68.1087C38.1066 68.3645 38.6467 68.6612 39.191 68.9476C39.2851 68.9967 39.367 69.0786 39.4693 69.1604C39.4713 69.1686 39.4734 69.1768 39.4754 69.187C38.3971 69.5246 36.4431 69.4735 35.9602 69.1113C35.7085 69.2709 35.6697 69.4346 35.8763 69.5921ZM37.3147 111.752C36.2528 112.458 35.1172 113.027 33.8732 113.344C33.5438 113.428 33.2062 113.481 32.8665 113.401C32.7806 113.381 32.6946 113.36 32.6169 113.322C32.4225 113.221 32.3693 113.111 32.4859 112.927C32.6373 112.683 32.8031 112.434 33.0118 112.243C33.597 111.711 34.1842 111.173 34.8144 110.696C36.4492 109.461 38.1066 108.253 39.7598 107.04C40.9466 106.166 42.121 105.278 43.0929 104.157C43.4633 103.729 43.8173 103.289 44.1774 102.856C44.1999 102.862 44.2244 102.868 44.2469 102.874C44.0342 103.408 43.8582 103.959 43.6045 104.472C42.1374 107.439 40.0872 109.911 37.3147 111.752ZM43.7293 109.72C43.5329 111.038 43.2832 112.348 42.8392 113.61C42.7308 113.917 42.5998 114.218 42.4586 114.51C42.385 114.662 42.2622 114.789 42.1129 114.993C41.9533 114.631 41.9389 114.345 41.9348 114.058C41.9226 113.174 42.029 112.301 42.1927 111.435C42.5876 109.336 43.2525 107.312 43.9605 105.305C44.1221 105.059 44.2633 104.806 44.384 104.544C44.3431 104.898 44.3042 105.252 44.2592 105.606C44.0874 106.977 43.9339 108.352 43.7293 109.72Z" fill="black"/>
<path d="M59.5459 57.7943C59.7832 56.7058 60.217 55.7093 60.9598 54.8684C61.2933 54.4919 61.6411 54.1277 61.9992 53.7737C62.0749 53.7 62.1465 53.6243 62.2202 53.5486C63.7015 52.0099 64.698 50.1971 65.2934 48.1326C65.7599 46.5161 65.8765 44.9018 65.5819 43.2444C65.0131 40.0504 63.5133 37.3864 61.105 35.2237C60.8043 34.9536 60.483 34.7183 60.0533 34.6426C60.2927 34.8431 60.5567 35.0191 60.7654 35.2482C61.5081 36.0708 62.2386 36.9035 62.8381 37.8406C63.9205 39.5307 64.567 41.3845 64.8903 43.3569C65.0949 44.5989 65.1358 45.845 64.7982 47.0665C64.565 47.9136 64.2601 48.7423 63.9552 49.5669C63.6954 50.2667 63.2984 50.8969 62.8483 51.4923C62.2222 52.3189 61.502 53.0575 60.7551 53.7696C59.7628 54.7149 59.1183 55.8587 58.7541 57.1764C58.484 58.1544 58.4799 59.1202 58.8277 60.0716C59.0528 60.6854 59.3045 61.2911 59.5766 61.8845C60.1618 63.1674 60.5362 64.5055 60.7101 65.903C60.8759 67.2391 60.706 68.5159 59.996 69.6883C59.8262 69.9686 59.6625 70.253 59.505 70.5395C59.2738 70.9589 59.0323 71.3722 58.8298 71.804C58.2609 73.0275 57.9029 74.3043 57.9499 75.6691C57.9684 76.2011 58.0829 76.7003 58.308 77.1648C58.4001 77.353 58.5065 77.5372 58.6354 77.7131C58.8952 78.0671 59.2185 78.3515 59.64 78.4804C59.8446 78.5418 60.0492 78.5991 60.2559 78.6523C60.5955 78.7403 60.9393 78.8221 61.281 78.904C61.3362 78.9163 61.4426 78.8753 61.4631 78.8303C61.4877 78.7792 61.4692 78.6666 61.4263 78.6298C61.326 78.5398 61.2073 78.4579 61.0825 78.4068C60.9086 78.3331 60.7347 78.2656 60.5587 78.1981C60.393 78.1346 60.2272 78.0733 60.0636 78.0098C59.4047 77.7582 59.0016 77.2691 58.7766 76.6164C58.5699 76.0169 58.576 75.399 58.6661 74.7872C58.8482 73.5493 59.3208 72.4158 59.9654 71.3497C60.1249 71.0878 60.2845 70.828 60.4441 70.5661C60.5464 70.3983 60.6487 70.2285 60.7531 70.0607C61.5736 68.7389 61.7946 67.3005 61.6104 65.7782C61.4201 64.217 60.9986 62.7234 60.3296 61.2972C60.2805 61.1929 60.2334 61.0865 60.1863 60.9821C59.994 60.5483 59.8201 60.1043 59.6584 59.6562C59.4415 59.0526 59.4088 58.4245 59.5459 57.7943Z" fill="black"/>
<path d="M56.0574 10.1152C56.2395 10.6759 56.4257 11.2365 56.6201 11.7951C56.9597 12.769 57.3342 13.7307 57.6452 14.7149C58.0462 15.9876 58.392 17.2746 58.7705 18.5554C59.0222 19.4046 59.4785 20.133 60.0985 20.7652C60.9681 21.6512 61.94 22.4103 63.0142 23.0282C64.7268 24.0144 66.4516 24.9782 68.1704 25.9501C69.9116 26.9342 71.659 27.9123 73.3961 28.9046C74.8816 29.7538 76.3609 30.6152 77.8341 31.4868C78.7569 32.0331 79.6143 32.6715 80.4327 33.3672C81.1877 34.0097 81.7156 34.7749 81.91 35.7591C81.9652 36.0415 82.0532 36.3197 82.1432 36.5939C82.2087 36.7965 82.2926 36.995 82.3867 37.1873C82.4583 37.3346 82.5504 37.4737 82.8205 37.5065C82.8205 37.353 82.841 37.22 82.8164 37.0973C82.6998 36.4671 82.5606 35.841 82.4543 35.2087C82.3765 34.7524 82.2394 34.3227 81.9673 33.9524C81.6767 33.5595 81.3719 33.1708 81.0261 32.825C80.2015 32.0025 79.2603 31.3211 78.2556 30.74C75.1394 28.9394 72.0252 27.1348 68.8845 25.3771C67.0716 24.3623 65.2547 23.3617 63.4889 22.265C62.4576 21.6246 61.498 20.8962 60.6714 20.002C60.2458 19.5416 59.9205 19.024 59.7199 18.4306C59.5747 18.0009 59.4376 17.5692 59.3066 17.1354C58.8135 15.5231 58.3797 13.8923 57.6656 12.3557C57.2155 11.3859 56.7695 10.416 56.3091 9.45023C56.2129 9.24767 56.0738 9.06352 55.9428 8.88142C55.8978 8.82003 55.8119 8.79139 55.6646 8.69727C55.7137 8.89983 55.7382 9.01851 55.773 9.13513C55.863 9.46456 55.9531 9.79193 56.0574 10.1152Z" fill="black"/>
<path d="M68.9477 34.7097C70.7524 36.095 72.8251 36.7559 75.0758 36.8889C75.2825 36.9011 75.5035 36.8582 75.7019 36.7906C75.7326 36.7804 75.7613 36.7559 75.7879 36.7272C75.8452 36.6679 75.8943 36.5819 75.9045 36.5103C75.925 36.3691 75.7858 36.2996 75.6569 36.273C75.5096 36.2423 75.3561 36.2361 75.2109 36.1973C74.2287 35.9251 73.2446 35.6612 72.2706 35.3625C71.8532 35.2336 71.446 35.0535 71.0552 34.853C69.7887 34.2085 68.6838 33.3286 67.6239 32.3997C65.3323 30.3925 63.0631 28.3586 60.7756 26.3473C59.7627 25.4593 58.9013 24.4485 58.2036 23.3007C57.8967 22.7953 57.6348 22.2633 57.3443 21.7497C57.2194 21.5287 57.0926 21.3118 56.9616 21.0929C56.8716 20.9435 56.7816 20.7942 56.6915 20.6448C56.622 20.5323 56.5197 20.4402 56.4317 20.3379C56.4092 20.3481 56.3887 20.3604 56.3662 20.3706C56.3969 20.4873 56.4194 20.6059 56.4583 20.7185C56.6568 21.2893 56.8409 21.8663 57.068 22.4249C57.2767 22.9364 57.5182 23.4357 57.7739 23.9247C58.4573 25.2383 59.4354 26.3187 60.5239 27.3049C62.5086 29.1075 64.4811 30.9244 66.4822 32.7107C67.274 33.4146 68.1109 34.0652 68.9477 34.7097Z" fill="black"/>
<path d="M54.6618 20.7802C54.5942 21.9792 54.3201 23.0964 53.7922 24.1215C53.5343 24.6228 53.2172 25.1016 52.8325 25.5579C52.1675 26.3456 51.5639 27.1866 50.9337 28.005C49.6508 29.6706 48.3863 31.3484 46.8947 32.842C44.5785 35.1644 42.1007 37.2637 39.1768 38.7819C39.0868 38.8289 38.9968 38.876 38.9067 38.9231C38.6612 39.0458 38.43 39.2034 38.2029 39.3609C38.1087 39.4264 38.0412 39.5287 37.9614 39.6147C37.9798 39.6515 37.9983 39.6883 38.0187 39.7272C38.164 39.7129 38.3134 39.719 38.4504 39.6801C38.6694 39.6208 38.8822 39.543 39.0909 39.4592C40.5457 38.8699 41.8981 38.1128 43.1483 37.1552C45.4747 35.369 47.6334 33.4027 49.4769 31.1213C50.9726 29.2716 52.3803 27.3503 53.8085 25.4474C54.451 24.5921 54.85 23.6161 55.0853 22.5706C55.4024 21.169 55.3984 19.7469 55.3615 18.3229C55.3513 17.9075 55.3288 17.4921 55.2981 17.0788C55.2838 16.8906 55.2633 16.6941 55.0935 16.5264C54.8827 16.8517 54.8745 17.1791 54.8541 17.5024C54.7866 18.5929 54.7231 19.6876 54.6618 20.7802Z" fill="black"/>
<path d="M50.0848 56.9413C49.7472 56.9536 49.4035 56.9475 49.0741 57.0129C48.5687 57.1132 48.0756 57.2666 47.5783 57.4017C47.1528 57.5183 46.7333 57.5101 46.3139 57.3771C45.6673 57.1705 45.1353 56.7879 44.769 56.2252C44.3946 55.6461 44.0222 55.0528 43.7501 54.4226C43.392 53.5939 43.0769 52.7366 42.8477 51.8629C42.4938 50.5145 42.2298 49.1415 41.9249 47.7788C41.5812 46.2443 41.2088 44.7158 40.6502 43.2406C40.2349 42.1418 39.5842 41.217 38.6409 40.5131C38.4343 40.3596 38.1867 40.2512 37.9453 40.153C37.8082 40.0977 37.6465 40.108 37.5381 40.3351C37.622 40.3556 37.6956 40.3842 37.7652 40.4169C38.0066 40.5356 38.1744 40.7259 38.3504 40.906C38.6655 41.2292 38.9335 41.5771 39.1647 41.9474C39.3878 42.3055 39.576 42.684 39.7356 43.0789C39.8256 43.3019 39.9054 43.5311 39.977 43.7644C40.4763 45.4033 40.8569 47.0709 41.1679 48.7548C41.2968 49.4526 41.4339 50.1482 41.5914 50.8398C41.7879 51.7053 42.015 52.5626 42.2994 53.4077C42.5633 54.1913 42.8702 54.9504 43.2611 55.6707C43.4677 56.0533 43.6989 56.4237 43.9608 56.7797C44.3496 57.3055 44.8222 57.7311 45.4074 58.0237C46.0438 58.3449 46.719 58.5045 47.4167 58.3102C48.274 58.0708 49.1191 57.7925 49.9682 57.5224C50.0296 57.502 50.091 57.4835 50.1544 57.4631C50.3058 57.416 50.4368 57.3219 50.404 57.1377C50.3774 56.9679 50.2281 56.9372 50.0848 56.9413Z" fill="black"/>
<path d="M64.9515 57.6739C65.776 57.5696 66.529 57.2586 67.2574 56.878C67.7689 56.612 68.215 56.2642 68.5506 55.7976C68.8595 55.37 69.1582 54.9301 69.4181 54.4718C70.4698 52.6221 71.1839 50.6353 71.7752 48.5994C72.1926 47.161 72.6448 45.7328 73.3139 44.3845C73.7784 43.4494 74.2203 42.502 74.695 41.5711C74.9978 40.9777 75.3334 40.4007 75.6669 39.8237C75.9186 39.3879 76.1969 38.9664 76.4547 38.5346C76.514 38.4323 76.5508 38.3484 76.5652 38.2748C76.5877 38.1622 76.5549 38.0804 76.4772 38.0231C76.3483 37.929 76.1846 37.9658 75.9902 38.1868C75.3334 38.9336 74.65 39.6641 74.1978 40.5623C73.4796 41.9905 72.7614 43.4187 72.0862 44.8673C71.4212 46.2976 71.0263 47.8281 70.5782 49.336C70.0872 50.9832 69.4468 52.5668 68.616 54.0707C68.3725 54.5106 68.1004 54.9383 67.7935 55.3332C67.5807 55.6074 67.3147 55.859 67.0221 56.0452C66.1607 56.5956 65.2584 57.0683 64.2353 57.2565C64.0982 57.2811 63.9714 57.3609 63.8384 57.4141C63.8445 57.4529 63.8507 57.4939 63.8568 57.5327C63.9816 57.5798 64.1064 57.6125 64.2353 57.6391C64.4665 57.6882 64.7039 57.7046 64.9515 57.6739Z" fill="black"/>
<path d="M54.0375 73.3306C54.0927 74.3577 54.3403 75.344 54.7781 76.279C55.1874 77.1527 55.836 77.8341 56.5439 78.4684C56.6585 78.5707 56.7936 78.6893 56.9982 78.587C56.6217 78.1144 56.2677 77.6745 55.9158 77.2346C55.5168 76.7374 55.2344 76.1788 55.0319 75.5772C54.4078 73.7316 54.5203 71.9597 55.5639 70.2819C55.7173 70.0364 55.8667 69.7888 56.0283 69.5473C56.3987 68.9928 56.7813 68.4445 57.1496 67.8879C57.6427 67.1411 58.099 66.3759 58.4304 65.539C58.7455 64.7472 58.8478 63.939 58.7333 63.096C58.631 62.3389 58.4018 61.6248 58.0601 60.9455C57.6407 60.1148 57.2212 59.282 56.8017 58.4513C56.4805 57.817 56.3577 57.1418 56.4212 56.4379C56.4805 55.7873 56.5664 55.1366 56.6381 54.488C56.6626 54.2711 56.7199 54.0501 56.6319 53.8066C56.37 53.8844 56.3127 54.0849 56.2739 54.2752C56.1347 54.9402 56.0099 55.6072 55.883 56.2742C55.7726 56.8533 55.793 57.4344 55.969 57.993C56.0999 58.4104 56.282 58.8155 56.4682 59.2125C56.8488 60.0207 57.2805 60.8064 57.6304 61.6269C58.1951 62.9589 58.2913 64.3073 57.5997 65.6393C57.4483 65.9298 57.3174 66.2306 57.1434 66.5068C56.6299 67.3273 56.0877 68.1335 55.5782 68.956C55.2344 69.5126 54.8948 70.0752 54.6124 70.6625C54.2114 71.4993 53.9863 72.3935 54.0375 73.3306Z" fill="black"/>
<path d="M58.5905 5.50611C58.8892 5.87236 59.2227 6.1936 59.6381 6.41458C59.8366 6.52098 59.9225 6.66625 59.9839 6.86882C60.3829 8.16809 60.7921 9.46328 61.1952 10.7585C61.2116 10.8096 61.2197 10.8649 61.2443 10.9713C60.9435 10.7707 60.698 10.5989 60.4422 10.4413C59.6033 9.91956 58.6723 9.65766 57.7004 9.55945C57.2176 9.51034 57.0641 9.77838 57.3117 10.1876C58.0953 11.4828 59.1429 12.5222 60.4279 13.3141C61.0294 13.6844 61.676 13.8358 62.3717 13.49C63.4684 15.6589 64.7636 17.6743 66.3534 19.5056C66.2245 19.4872 66.1079 19.4503 65.9974 19.4053C65.1667 19.0554 64.3012 18.8406 63.407 18.7669C63.049 18.7383 62.6786 18.7874 62.3205 18.8385C62.208 18.8549 62.075 18.9715 62.0218 19.0779C61.9563 19.2089 62.0852 19.2887 62.1916 19.3705C62.2858 19.4422 62.3553 19.5547 62.4167 19.659C62.9794 20.6268 63.6976 21.4207 64.7452 21.8954C65.4756 22.2269 66.2327 22.3415 67.0205 22.3497C67.6097 22.3558 68.1008 22.1532 68.51 21.6663C68.866 21.9589 69.1975 22.2474 69.5454 22.5175C71.5035 24.0438 73.5782 25.4004 75.7041 26.6813C76.4428 27.1253 77.1262 27.6327 77.7236 28.2547C77.8546 28.3898 77.9937 28.5187 78.137 28.6435C78.2495 28.7417 78.3886 28.8727 78.5319 28.7376C78.6874 28.5903 78.5298 28.4737 78.4357 28.357C77.7093 27.4588 76.8704 26.6833 75.8719 26.0961C75.4975 25.8772 75.2417 25.5743 75.0392 25.1835C75.3317 25.0137 75.4156 24.7436 75.3747 24.4408C75.2847 23.7799 75.211 23.1149 75.0698 22.4663C74.7588 21.0197 73.9997 19.8473 72.815 18.9531C72.416 18.6524 72.1726 18.681 71.8595 19.0739C71.5362 19.479 71.438 19.9516 71.4073 20.4488C71.3439 21.4821 71.659 22.409 72.2073 23.2684C72.3056 23.4218 72.4058 23.5712 72.5552 23.7983C72.4304 23.7369 72.3854 23.7226 72.3506 23.6981C70.7832 22.5747 69.2323 21.4351 67.8941 20.0335C67.6875 19.8166 67.5258 19.5895 67.4931 19.3951C67.7877 18.6196 68.1233 17.9464 68.2972 17.2344C68.6901 15.6118 68.641 13.9913 68.0312 12.4097C67.9187 12.1191 67.7591 11.8859 67.487 11.6669C67.2864 11.847 67.0818 12.0127 66.8997 12.1969C66.29 12.8148 65.7907 13.4982 65.6127 14.3739C65.4716 15.0676 65.5309 15.7551 65.7007 16.4323C65.8399 16.9889 66.0199 17.5352 66.1816 18.0835C66.1775 18.0835 66.159 18.0876 66.155 18.0835C66.0813 17.9976 66.0076 17.9117 65.9381 17.8237C64.6449 16.1725 63.5605 14.3903 62.6418 12.5058C62.6029 12.4281 62.5599 12.3462 62.5477 12.2603C62.5395 12.1928 62.5559 12.1069 62.5947 12.0516C62.8914 11.6465 63.182 11.2352 63.5012 10.8485C64.2275 9.96867 64.7227 8.9804 65.0153 7.87959C65.1953 7.20438 65.183 6.5353 65.0398 5.86008C64.9743 5.54703 64.8864 5.48974 64.5631 5.54089C64.3523 5.57568 64.1416 5.62069 63.9411 5.68821C63.008 6.0074 62.472 6.71536 62.1282 7.59109C61.8295 8.3502 61.7129 9.14409 61.7415 9.96049C61.7435 10.0526 61.7415 10.1426 61.7415 10.2347C61.6228 10.1058 61.5614 9.97072 61.5144 9.83363C61.1931 8.86786 60.8801 7.89801 60.5507 6.93225C60.4218 6.55576 60.3767 6.18542 60.4177 5.78643C60.5343 4.6406 60.3992 3.53571 59.9184 2.46764C59.3721 1.25634 58.349 0.795967 57.1418 0.593403C56.8349 0.54225 56.7265 0.66297 56.7306 0.969886C56.7306 1.0947 56.7408 1.22156 56.7613 1.34637C56.9986 2.89323 57.594 4.28663 58.5905 5.50611ZM72.8519 19.7573C74.0959 20.5266 74.8877 22.8673 74.8407 24.6515C74.6647 24.7191 74.546 24.6311 74.4642 24.4919C74.235 24.1032 73.9772 23.7247 73.7972 23.3134C73.3061 22.2024 73.0524 21.0217 72.8416 19.8309C72.8355 19.8064 72.8478 19.7818 72.8519 19.7573ZM72.2053 19.4401C72.3751 20.2156 72.5061 20.9767 72.7127 21.7174C72.9214 22.4602 73.2058 23.1804 73.4493 23.8904C72.1275 22.984 71.4175 20.5348 72.2053 19.4401ZM66.9529 20.4816C65.5575 20.4509 64.3216 19.923 63.1247 19.2764C64.5078 19.3378 65.7641 19.7982 66.9529 20.4816ZM67.7305 21.0463C67.8266 21.0647 67.9432 21.1343 67.9883 21.2161C68.0578 21.3389 67.9944 21.476 67.8716 21.5333C67.6588 21.6335 67.4358 21.7727 67.2128 21.7829C65.6271 21.8627 64.2684 21.3839 63.272 20.0867C63.2352 20.0376 63.2045 19.9844 63.1717 19.9332C63.1881 19.9168 63.2045 19.9005 63.2229 19.8841C63.4152 19.9741 63.6075 20.0601 63.7978 20.1521C64.8168 20.6494 65.8951 20.9051 67.0225 20.9726C67.2578 20.987 67.4972 21.0033 67.7305 21.0463ZM67.665 12.8926C67.7202 13.0296 67.7611 13.1135 67.7877 13.2015C68.1622 14.4722 68.1745 15.7612 67.9064 17.0441C67.798 17.5638 67.5524 18.0569 67.3683 18.5603C67.3356 18.5541 67.3008 18.55 67.268 18.5439C66.7995 16.6431 67.0839 14.7893 67.665 12.8926ZM66.0936 15.8083C65.8664 14.5765 66.29 13.5596 67.1003 12.6634C67.1125 12.6491 67.1453 12.6511 67.221 12.6327C66.7545 14.2553 66.3841 15.8717 66.6174 17.5638C66.3452 17.0032 66.2041 16.4119 66.0936 15.8083ZM64.6449 6.41253C64.6879 6.7481 64.6961 7.04274 64.6367 7.33328C64.4403 8.29086 64.1232 9.19933 63.5441 10.0014C63.2679 10.384 62.9794 10.7564 62.6643 11.1759C62.5804 10.1528 63.7139 7.44173 64.6449 6.41253ZM62.7032 7.72613C62.9814 7.08366 63.3702 6.5353 64.0741 6.27749C63.362 7.43763 62.7134 8.62028 62.386 9.96662C62.1957 9.62083 62.3451 8.55072 62.7032 7.72613ZM61.7415 12.5161C61.9195 12.5509 62.0607 12.7841 62.0361 12.9744C62.0075 13.1749 61.852 13.1852 61.6985 13.1974C61.3589 13.224 61.054 13.1135 60.7635 12.9539C59.8263 12.4383 59.0672 11.714 58.3531 10.9344C58.3695 10.914 58.3859 10.8935 58.4002 10.8751C58.5005 10.9426 58.6048 11.0081 58.703 11.0777C59.632 11.7345 60.6039 12.2992 61.7415 12.5161ZM58.1731 10.1344C59.4683 10.4004 60.6202 10.9181 61.4571 11.9943C60.2233 11.6219 59.2043 10.869 58.1731 10.1344ZM58.9915 1.90291C59.6135 2.59245 60.0862 4.08406 59.9471 5.03755C59.3701 3.6196 58.6764 2.28144 57.6309 1.14381C58.1588 1.2768 58.6273 1.49983 58.9915 1.90291ZM59.6688 5.87032C59.4151 5.74346 59.2739 5.59614 59.1429 5.44063C58.2324 4.3562 57.5388 3.16127 57.281 1.74741C57.2339 1.4896 57.1807 1.23179 57.1112 0.888042C58.2958 2.41853 59.1163 4.02882 59.6688 5.87032Z" fill="black"/>
<path d="M92.1627 30.3476C91.9417 30.2494 91.6798 30.2392 91.4322 30.2044C91.3053 30.188 91.1744 30.2065 91.0087 30.2105C91.0926 30.0244 91.1539 29.9016 91.2051 29.7747C91.3524 29.4208 91.4404 29.0565 91.3422 28.6719C91.2317 28.2483 91.0373 27.8841 90.5626 27.7961C90.092 27.7082 89.7687 27.9537 89.5232 28.3281C89.4679 28.412 89.4229 28.502 89.3697 28.588C89.3268 28.6555 89.2817 28.721 89.206 28.8315C89.1488 28.6187 89.1181 28.4611 89.0628 28.3118C88.9789 28.0887 88.893 27.8637 88.7784 27.657C88.6045 27.348 88.3405 27.17 87.9661 27.2335C87.5978 27.2948 87.4505 27.567 87.3707 27.8862C87.2684 28.2974 87.2991 28.7108 87.3891 29.12C87.4177 29.2468 87.4484 29.3757 87.4914 29.564C87.2213 29.4146 87.0228 29.2775 86.8039 29.1916C86.5502 29.0913 86.2801 28.9849 86.0141 28.9747C85.3962 28.9542 85.0565 29.5333 85.3573 30.0714C85.4514 30.2433 85.609 30.3804 85.7461 30.5277C85.8115 30.5973 85.8954 30.6505 85.9711 30.7139C85.7788 30.7998 85.5987 30.8571 85.4432 30.9574C85.1957 31.1149 85.0463 31.3461 85.0627 31.651C85.079 31.9559 85.2877 32.1175 85.5435 32.2239C85.6826 32.2812 85.83 32.316 85.9732 32.361C86.055 32.3856 86.1348 32.4101 86.2351 32.4408C86.1573 32.5697 86.0775 32.67 86.0346 32.7866C85.9486 33.0199 85.8402 33.2572 85.8156 33.5007C85.7706 33.9713 86.1021 34.2455 86.5563 34.1309C86.7855 34.0736 87.0024 33.9631 87.2234 33.8751C87.3093 33.8403 87.3911 33.7994 87.4955 33.7524C87.4566 33.9672 87.4157 34.1391 87.3973 34.311C87.3768 34.5074 87.4157 34.6956 87.5998 34.8061C87.8045 34.9268 88.0029 34.8532 88.1543 34.712C88.2996 34.5769 88.4121 34.4071 88.5247 34.2414C88.6065 34.1207 88.6659 33.9856 88.7723 33.7831C89.0771 35.3033 88.8398 36.6537 88.1953 37.9428C87.7022 38.927 87.1006 39.8395 86.3599 40.6559C85.9793 41.0754 85.5947 41.4928 85.1895 41.8897C84.0232 43.0376 83.0718 44.3471 82.2165 45.7344C81.7705 46.4587 81.4288 47.2301 81.2303 48.0526C81.1341 48.4496 80.9623 48.7728 80.6922 49.0654C80.6206 49.1432 80.553 49.223 80.4876 49.3089C80.5469 49.1002 80.6021 48.8915 80.6533 48.6787C80.7351 48.3288 80.8027 47.9769 80.8763 47.627C80.7208 47.8112 80.6308 48.0137 80.5469 48.2204C80.2502 48.9427 79.972 49.6711 79.6589 50.3852C78.5581 52.9019 77.2956 55.3368 75.9657 57.7389C74.2879 60.7692 72.9968 63.9611 72.1149 67.3126C72.1067 67.3454 72.0985 67.3801 72.0903 67.4129C71.9082 68.1229 71.7671 68.8452 71.5358 69.5388C70.8238 71.6913 70.1834 73.8643 69.6596 76.0679C68.8923 79.2946 68.4298 82.5705 68.2089 85.8811C68.0431 88.3773 68.1618 90.8674 68.4033 93.3494C68.5424 94.7898 68.8145 96.2016 69.1808 97.595C69.1562 97.7833 69.1358 97.9715 69.1235 98.1618C69.0846 98.7142 69.0723 99.2687 69.0171 99.8192C69.0109 99.8826 69.0069 99.944 68.9987 100.007C68.7981 101.657 68.5874 103.304 68.4974 104.965C68.4012 106.751 68.2948 108.536 68.4483 110.324C68.5117 111.067 68.6386 111.797 68.9066 112.495C69.0048 112.751 69.1235 113.008 69.281 113.231C69.7025 113.827 70.3368 113.747 70.6253 113.074C70.7031 112.89 70.7706 112.691 70.787 112.495C70.834 111.932 70.877 111.365 70.875 110.801C70.8709 109.045 70.5517 107.318 70.3757 105.579C70.1997 103.842 70.0115 102.107 69.8376 100.37C69.8335 100.329 69.8294 100.288 69.8253 100.247C69.8089 100.075 69.811 99.8989 69.8151 99.725C69.8703 99.8949 69.9276 100.065 69.9849 100.235C69.9869 100.245 69.989 100.253 69.991 100.263C70.0176 100.4 70.0463 100.535 70.0831 100.668C70.5435 102.319 71.0898 103.938 71.943 105.438C72.1926 105.876 72.4341 106.316 72.6714 106.76C73.5431 108.388 74.7175 109.776 76.0823 111.009C76.5693 111.449 77.1033 111.828 77.6946 112.118C77.8951 112.217 78.112 112.292 78.3269 112.356C78.599 112.433 78.865 112.395 79.0471 112.163C79.221 111.938 79.1208 111.697 78.9878 111.494C78.7545 111.136 78.5233 110.772 78.245 110.451C77.5187 109.614 76.7636 108.802 76.0291 107.975C74.695 106.475 73.5369 104.846 72.473 103.146C71.6341 101.806 70.8975 100.417 70.2959 98.9598C70.877 99.6943 71.5768 100.316 72.3134 100.904C72.7635 101.26 73.2914 101.483 73.85 101.595C74.2919 101.683 74.7462 101.718 75.1963 101.745C75.583 101.769 75.9739 101.749 76.3749 101.749C76.3831 102.277 76.645 102.6 77.0767 102.806C77.2854 102.907 77.49 102.899 77.6926 102.79C78.1345 102.555 78.3924 102 78.2798 101.505C78.2082 101.192 78.0384 100.94 77.7233 100.846C77.402 100.75 77.1156 100.875 76.9171 101.129C76.8066 101.27 76.6879 101.313 76.5345 101.303C75.7324 101.251 74.9242 101.233 74.1283 101.131C73.539 101.055 72.9906 100.799 72.5221 100.419C71.7016 99.7516 70.8934 99.0641 70.2775 98.1905C70.0852 97.9183 69.9051 97.6359 69.7271 97.3536C69.723 97.3454 69.7169 97.3372 69.7128 97.3311C69.6411 97.0078 69.5716 96.6845 69.5081 96.3592C69.4386 95.9991 69.3792 95.6369 69.326 95.2727C69.3301 95.2645 69.3342 95.2563 69.3383 95.2461C69.3588 95.2011 69.3772 95.1561 69.3977 95.1131C69.6105 95.1131 69.7619 95.1049 69.9112 95.1151C70.6601 95.1581 71.3967 95.0763 72.1067 94.841C72.8454 94.5954 73.586 94.3499 74.3104 94.0655C75.139 93.7402 75.9861 93.5315 76.8803 93.5356C76.9437 93.5356 77.0051 93.5335 77.0685 93.5315C77.2077 93.5253 77.3366 93.466 77.3325 93.3207C77.3284 93.2307 77.2383 93.1325 77.1647 93.0588C77.1156 93.0097 77.0296 92.9974 76.958 92.9749C76.3708 92.7887 75.7856 92.5943 75.1943 92.4245C74.6091 92.2567 74.0075 92.1851 73.4019 92.2486C72.9804 92.2936 72.565 92.3897 72.1394 92.4634C72.164 92.4347 72.1763 92.4102 72.1967 92.3979C72.4505 92.2363 72.7083 92.0767 72.962 91.913C74.4209 90.9595 75.8122 89.9201 76.9069 88.543C77.3468 87.9906 77.8072 87.4627 78.3126 86.9716C79.1146 86.1921 79.7673 85.3061 80.1704 84.2503C80.5039 83.3746 80.7413 82.4743 80.8047 81.5413C80.8334 81.1095 80.7638 80.6635 80.686 80.2338C80.6308 79.931 80.4037 79.8778 80.1888 80.066C79.1024 81.0216 78.3105 82.1899 77.7315 83.5096C77.1933 84.7312 77.089 86.0366 76.999 87.344C76.9826 87.5855 76.9192 87.7737 76.7718 87.9599C76.2624 88.6024 75.7058 89.1999 75.0838 89.7359C74.1385 90.5523 73.1113 91.2562 72.0453 91.9048C70.9343 92.58 70.0422 93.4885 69.2278 94.4829C69.1276 93.599 69.0662 92.711 69.0109 91.823C68.8022 88.4817 68.9086 85.1608 69.4058 81.842C69.4468 81.572 69.4938 81.3019 69.5368 81.0318C69.5716 80.9499 69.6105 80.8701 69.6432 80.7863C70.1404 79.5524 71.0079 78.732 72.2847 78.333C72.9477 78.1263 73.4776 77.7007 73.9421 77.1851C74.4209 76.6531 74.738 76.025 75.0429 75.3886C75.225 75.0101 75.3457 74.9426 75.7488 75.0346C76.068 75.1083 76.381 75.2004 76.7023 75.2699C77.4716 75.4377 78.2512 75.493 79.0266 75.3334C80.7331 74.9835 82.2431 74.2448 83.434 72.9476C84.1133 72.2049 84.7517 71.4253 85.4003 70.656C85.5619 70.4636 85.697 70.2488 85.8341 70.038C85.9016 69.9337 85.9568 69.8171 85.9916 69.6984C86.0694 69.4283 85.9323 69.2708 85.6581 69.328C85.4903 69.3649 85.3143 69.4324 85.1752 69.5306C84.6412 69.9091 84.1071 70.2877 83.5997 70.6969C82.7055 71.4171 81.7868 72.0964 80.7822 72.6571C79.7407 73.2382 78.6522 73.6105 77.4389 73.5655C76.9028 73.5451 76.3913 73.6883 75.9084 73.9216C75.8511 73.9502 75.7877 73.9645 75.6751 74.0014C75.9698 73.3732 76.3728 72.9108 76.87 72.5363C77.1708 72.3092 77.4921 72.1087 77.8072 71.9C78.421 71.4949 78.9796 71.0284 79.3929 70.4104C80.2379 69.1521 80.8252 67.7832 81.1423 66.3019C81.2364 65.8599 81.3019 65.4118 81.3838 64.9391C81.4697 64.9207 81.5168 64.9085 81.5659 64.9003C82.7976 64.7345 83.6099 63.9959 84.1747 62.9483C84.2831 62.7498 84.324 62.49 84.3179 62.2587C84.3077 61.7963 83.9046 61.5753 83.4872 61.7759C83.3664 61.8332 83.2519 61.9068 83.1148 61.9825C83.1148 61.8168 83.1189 61.6838 83.1148 61.5487C83.0984 61.1907 82.8549 61.0065 82.5275 61.1497C82.2697 61.2643 82.0426 61.4526 81.8073 61.6183C81.7214 61.6797 81.6498 61.7636 81.5556 61.8536C81.4022 61.6183 81.2815 61.4137 81.1423 61.2214C80.8354 60.7917 80.3934 60.7528 80.019 61.1211C79.9208 61.2173 79.8226 61.3278 79.7755 61.4526C79.6691 61.7329 79.5545 62.0193 79.5198 62.3119C79.4359 62.9994 79.6425 63.6317 79.976 64.2251C80.1929 64.6118 80.5551 64.8021 80.9602 64.8859C80.9704 64.9371 80.9827 64.9617 80.9807 64.9842C80.8088 66.2241 80.5244 67.4293 80.019 68.5812C79.4175 69.9562 78.5949 71.1204 77.2281 71.8407C76.7125 72.1107 76.2705 72.4893 75.8879 72.9333C75.849 72.9804 75.7917 73.011 75.7488 73.0417C75.8347 72.3399 75.9288 71.6545 76.0025 70.969C76.1355 69.7311 76.5243 68.5894 77.2445 67.5663C77.4327 67.2983 77.6107 67.0241 77.7847 66.7459C78.0056 66.3898 78.1816 66.0093 78.2246 65.5898C78.2471 65.3565 78.2368 65.109 78.1796 64.8839C78.1079 64.6015 77.8481 64.534 77.6189 64.7202C77.4859 64.8307 77.3795 64.976 77.2711 65.1151C76.7862 65.7433 76.3033 66.3714 75.8265 67.0037C75.6137 67.284 75.3968 67.5643 75.2107 67.861C74.5907 68.8533 74.3042 69.9214 74.4536 71.102C74.5641 71.988 74.65 72.878 74.5641 73.7763C74.515 74.3021 74.5007 74.83 74.4638 75.3579C74.4597 75.4295 74.4352 75.5052 74.4004 75.5707C73.9093 76.4997 73.2464 77.2465 72.2438 77.6434C71.9287 77.7682 71.6075 77.8869 71.3046 78.0383C70.6928 78.3432 70.1793 78.7647 69.8314 79.354C70.3859 76.469 71.1368 73.6351 72.033 70.834C72.4689 69.4692 72.9702 68.127 73.3303 66.7336C74.0771 63.8445 75.2495 61.117 76.5897 58.4591C77.49 56.6729 78.4087 54.8927 79.133 53.0247C79.5218 52.0241 79.9269 51.0317 80.2605 50.0128C80.3198 50.1212 80.4364 50.201 80.5981 50.2256C80.7699 50.2501 80.952 50.246 81.126 50.2276C82.0303 50.1315 82.9183 49.9371 83.7593 49.5933C87.4484 48.0874 90.1432 45.542 91.7473 41.8754C91.999 41.2984 92.2036 40.703 92.2834 40.0728C92.2957 39.9725 92.3141 39.8702 92.2998 39.7741C92.2629 39.506 92.0481 39.416 91.8353 39.5817C91.7473 39.6492 91.6655 39.7352 91.6061 39.8293C91.3279 40.2754 90.9186 40.5536 90.448 40.7562C90.2741 40.8319 90.1104 40.924 89.9385 41.0038C88.1318 41.8468 86.497 42.9558 85.0524 44.3205C84.011 45.3047 83.0616 46.3871 82.0733 47.4265C82.0303 47.4715 81.9915 47.5227 81.9485 47.5677C81.9055 47.6107 81.8564 47.6516 81.8094 47.6925C82.0078 47.0705 82.3147 46.5242 82.6626 46.0024C83.5588 44.6581 84.5286 43.3752 85.6683 42.2253C85.9609 41.9307 86.2392 41.6217 86.5175 41.3127C87.4505 40.2754 88.2096 39.1214 88.7743 37.8446C89.2449 36.7786 89.4741 35.6675 89.3534 34.4971C89.3309 34.2782 89.3411 34.0552 89.3349 33.7953C89.4516 33.8608 89.5436 33.9161 89.6398 33.9693C89.9529 34.1452 90.2884 34.2414 90.6506 34.2291C91.3258 34.2066 91.6389 33.648 91.2972 33.0731C91.1969 32.9032 91.0741 32.7457 90.9473 32.5615C91.0823 32.5267 91.1908 32.5022 91.2972 32.4674C91.7494 32.3242 92.1565 32.1012 92.4614 31.7308C92.8768 31.2377 92.7397 30.6034 92.1627 30.3476ZM70.3409 112C70.3225 112.247 70.2632 112.495 70.1977 112.736C70.1629 112.863 70.079 112.976 70.0054 113.113C69.725 113.025 69.6473 112.832 69.5634 112.654C69.2749 112.045 69.1337 111.396 69.0519 110.731C68.882 109.352 68.923 107.967 68.9966 106.586C69.0723 105.153 69.1849 103.725 69.2831 102.295C69.2954 102.111 69.3322 101.927 69.3997 101.747C69.459 102.299 69.5102 102.854 69.5777 103.406C69.7639 104.916 69.9644 106.424 70.1486 107.934C70.3143 109.286 70.4432 110.639 70.3409 112ZM77.179 101.405C77.443 101.073 77.7744 101.141 77.9177 101.54C78.0363 101.871 77.8399 102.332 77.5084 102.45C77.4286 102.479 77.2977 102.469 77.2322 102.42C77.0767 102.305 76.9458 102.158 76.8005 102.019C76.9458 101.785 77.0419 101.579 77.179 101.405ZM80.3382 80.6451C80.7392 82.2144 79.5648 85.4432 78.2143 86.5563C78.7177 84.5163 79.6241 82.6421 80.3382 80.6451ZM79.5586 81.4656C79.5423 81.5392 79.5361 81.6149 79.5095 81.6845C79.4031 81.9669 79.2988 82.2513 79.176 82.5254C78.7341 83.5137 78.3371 84.5184 78.0343 85.5578C77.9115 85.9772 77.754 86.3885 77.4777 86.8182C77.5944 84.77 78.29 83.0124 79.5586 81.4656ZM70.4084 93.8957C71.2023 93.4066 72.0146 92.9483 72.9518 92.8051C73.8991 92.6598 74.8199 92.8051 75.7345 93.1304C75.0572 93.3821 74.4147 93.6297 73.7641 93.8568C73.0193 94.1166 72.2704 94.3704 71.5154 94.6057C70.9547 94.7796 70.3757 94.7591 69.7966 94.71C69.8478 94.4727 70.124 94.0696 70.4084 93.8957ZM80.4712 64.0041C80.1397 63.4209 79.9576 62.7969 80.0927 62.1237C80.1377 61.8986 80.2543 61.6776 80.3853 61.4853C80.4978 61.3196 80.6308 61.3462 80.7474 61.516C80.86 61.6817 80.9479 61.8659 81.0666 62.0275C81.394 62.4777 81.6784 62.4838 82.0324 62.0623C82.3802 61.647 82.3864 61.6429 82.769 61.5037C82.7485 61.7083 82.7199 61.8679 82.7158 62.0275C82.7117 62.3651 82.9409 62.5022 83.2416 62.3426C83.3746 62.2731 83.4851 62.1646 83.6161 62.0889C83.8473 61.9559 84.0212 62.0459 84.0192 62.3099C84.0192 62.4429 83.9864 62.5882 83.9291 62.7089C83.567 63.468 82.9797 64 82.2206 64.3355C81.8421 64.5033 81.4308 64.4706 81.0318 64.4194C80.7761 64.3887 80.5919 64.2169 80.4712 64.0041ZM76.0721 74.3267C76.5283 74.1282 77.0133 74.03 77.5064 74.0484C78.642 74.0914 79.6589 73.7456 80.6287 73.1931C81.7602 72.5507 82.8058 71.7895 83.8023 70.9567C84.1501 70.6662 84.5 70.3797 84.8622 70.1076C85.0811 69.9419 85.3246 69.8089 85.6069 69.7066C85.5722 69.7741 85.5476 69.8518 85.4985 69.9091C85.2877 70.1588 85.0749 70.4084 84.854 70.6498C84.3281 71.2268 83.7879 71.7895 83.2723 72.3747C82.2227 73.5614 80.8968 74.298 79.399 74.7461C78.5499 74.9999 77.6864 74.9937 76.8209 74.8341C76.4404 74.7645 76.0639 74.6827 75.5974 74.5906C75.7979 74.4781 75.9288 74.3881 76.0721 74.3267ZM74.9856 69.7004C75.1084 69.1152 75.3334 68.571 75.6731 68.0799C75.9002 67.7485 76.1601 67.4395 76.3994 67.1162C76.8148 66.5494 77.2261 65.9786 77.6373 65.4077C77.6926 65.332 77.7478 65.2542 77.842 65.1253C77.9013 65.4036 77.8542 65.6144 77.7765 65.7985C77.621 66.1668 77.4532 66.5351 77.2445 66.8768C76.8598 67.5111 76.4383 68.1208 76.1682 68.8186C75.8613 69.6125 75.6935 70.435 75.6322 71.278C75.5605 72.2622 75.3232 73.2116 75.092 74.165C75.0777 74.2223 75.0408 74.2735 74.959 74.3165C74.9794 74.1548 74.9938 73.9932 75.0183 73.8315C75.1452 73.0151 75.0879 72.2028 74.9856 71.3885C74.916 70.8278 74.8669 70.2652 74.9856 69.7004ZM76.3033 108.91C76.868 109.536 77.4389 110.158 77.9893 110.794C78.2021 111.04 78.3719 111.322 78.554 111.592C78.599 111.66 78.6154 111.748 78.6522 111.848C78.4271 111.881 78.2614 111.787 78.0977 111.701C77.5043 111.39 76.9621 111.001 76.4629 110.557C75.1288 109.368 73.9809 108.026 73.1175 106.451C72.9722 106.185 72.8208 105.923 72.6694 105.661C72.6714 105.659 72.6735 105.659 72.6755 105.657C72.608 105.471 72.5466 105.28 72.4689 105.098C72.2499 104.591 72.0269 104.083 71.7977 103.578C71.4172 102.737 71.0755 101.884 70.7726 101.018C72.254 103.899 74.1303 106.506 76.3033 108.91ZM90.27 41.4294C88.3057 44.0381 85.7481 45.9185 82.8529 47.449C84.9501 44.9343 87.3134 42.8166 90.27 41.4294ZM83.4606 47.6843C84.1092 47.2771 84.7803 46.9027 85.4371 46.5098C86.6525 45.7855 87.7574 44.92 88.7457 43.9011C89.6296 42.9885 90.4869 42.0514 91.2542 41.0365C91.3626 40.8933 91.4936 40.7705 91.6143 40.6375C91.6409 40.6539 91.6655 40.6703 91.6921 40.6866C91.6409 40.8503 91.6 41.0181 91.5366 41.1777C90.4623 43.9092 88.7866 46.1641 86.2924 47.76C85.2857 48.4045 84.2463 48.9979 83.08 49.311C82.546 49.4542 82.0017 49.5565 81.4615 49.6649C81.3162 49.6936 81.1628 49.6752 80.9316 49.6813C81.1526 49.3683 81.3469 49.1084 81.615 48.9222C82.2227 48.4987 82.8345 48.0792 83.4606 47.6843ZM89.826 28.7558C89.9017 28.6023 90.0081 28.4509 90.135 28.3363C90.3519 28.1399 90.6342 28.1829 90.7734 28.4386C90.8654 28.6084 90.935 28.8151 90.9411 29.0054C90.9575 29.5067 90.5401 30.1819 90.092 30.4581C89.8403 30.2699 89.5928 30.0857 89.3206 29.8852C89.4782 29.5251 89.6398 29.1363 89.826 28.7558ZM87.784 27.9946C87.7942 27.923 87.827 27.8493 87.8658 27.7859C87.9784 27.6018 88.1666 27.5649 88.3017 27.7327C88.4306 27.8964 88.5492 28.0908 88.5983 28.2913C88.7252 28.7987 88.8111 29.3184 88.9134 29.8341C88.6659 29.9057 88.4653 29.963 88.228 30.0325C87.8679 29.4023 87.6715 28.7333 87.784 27.9946ZM85.7563 29.8463C85.6274 29.6335 85.7358 29.433 85.9834 29.4248C86.1287 29.4208 86.2924 29.4474 86.4172 29.5169C86.8858 29.7747 87.3441 30.0571 87.8167 30.3374C87.6858 30.54 87.5814 30.7037 87.4709 30.8755C86.9819 30.7118 86.5175 30.5216 86.1103 30.2249C85.9711 30.1246 85.8443 29.9916 85.7563 29.8463ZM85.7829 31.8106C85.6908 31.7717 85.5701 31.6694 85.566 31.5917C85.5619 31.5078 85.6622 31.3768 85.7481 31.338C85.9036 31.2704 86.0857 31.2172 86.2535 31.2254C86.6157 31.2438 86.9737 31.3073 87.3686 31.3564C87.3727 31.5323 87.3748 31.6571 87.3789 31.784C86.851 32.0541 86.3149 32.0316 85.7829 31.8106ZM86.3231 33.7135C86.2003 33.071 86.63 32.4674 87.209 32.3937C87.3195 32.3794 87.4239 32.3303 87.5692 32.2853C87.6735 32.404 87.8106 32.5615 87.9743 32.7477C87.5262 33.2327 87.0269 33.6153 86.3231 33.7135ZM87.9702 34.2659C87.9436 34.2557 87.9149 34.2455 87.8883 34.2332C87.9231 34.09 87.9375 33.9406 87.9947 33.8076C88.1073 33.5416 88.2362 33.2818 88.3753 33.028C88.4019 32.9769 88.4981 32.9646 88.5942 32.9687C88.4347 33.4393 88.2628 33.8833 87.9702 34.2659ZM87.9641 31.8106C87.7758 31.3154 88.0009 30.6259 88.4224 30.4172C89.0935 30.0816 89.7994 30.5379 89.8117 31.3134C89.8199 31.6019 89.7298 31.8597 89.5457 32.0786C89.0628 32.6495 88.23 32.5083 87.9641 31.8106ZM90.6363 33.7912C90.1882 33.7851 89.8096 33.6091 89.515 33.2695C89.425 33.1651 89.3452 33.0546 89.2551 32.938C89.5273 32.7354 89.7646 32.5595 90.0122 32.3753C90.3846 32.6004 90.6915 32.9073 90.9227 33.2858C91.1089 33.5907 90.9964 33.7953 90.6363 33.7912ZM92.0808 31.518C91.6368 31.9313 90.9923 32.273 90.2618 31.8965C90.2741 31.5999 90.2884 31.3032 90.3028 30.9799C90.6936 30.7589 91.1314 30.63 91.6061 30.6423C91.7043 30.6443 91.8066 30.6648 91.8987 30.6996C92.3202 30.8612 92.4062 31.2152 92.0808 31.518Z" fill="black"/>
<path d="M86.4787 52.6582C86.3805 52.6418 86.2782 52.6418 86.1779 52.6398C85.3697 52.6152 84.5697 52.7032 83.784 52.8853C82.3067 53.227 81.1568 54.0107 80.5265 55.4348C80.2585 56.0425 80.0314 56.6706 79.8084 57.2967C79.7286 57.5177 79.6979 57.7632 79.6876 57.9985C79.6835 58.1008 79.7695 58.2625 79.8554 58.2952C79.9434 58.33 80.0907 58.2584 80.191 58.1991C80.2728 58.15 80.3219 58.0497 80.3874 57.9719C80.7475 57.5402 81.1547 57.1699 81.7051 57.0021C82.2207 56.8445 82.7363 56.6747 83.2642 56.5785C85.2285 56.2184 86.0858 55.2731 86.7345 53.3396C86.7651 53.2454 86.7713 53.1431 86.7815 53.0756C86.7917 52.7789 86.7365 52.7012 86.4787 52.6582ZM80.7189 56.4599C81.0565 55.3816 81.5905 54.4588 82.6238 53.9084C83.3788 53.5073 84.1891 53.3048 85.0771 53.1759C85.0219 53.2332 85.0014 53.2639 84.9707 53.2843C84.94 53.3048 84.9032 53.315 84.8684 53.3334C84.4223 53.5626 83.9742 53.7917 83.5282 54.023C82.4724 54.5713 81.6008 55.3366 80.8703 56.2696C80.8212 56.3351 80.77 56.3964 80.7189 56.4599ZM83.6244 55.9606C83.4034 56.0097 83.1824 56.0588 82.9614 56.0977C82.4151 56.1939 81.8852 56.3494 81.3818 56.5826C81.2959 56.6215 81.2059 56.6522 81.0892 56.642C81.1424 56.5765 81.1915 56.5069 81.2468 56.4455C81.9691 55.6639 82.7711 54.9887 83.7348 54.5161C84.5226 54.1294 85.3042 53.7283 86.0899 53.3334C86.1083 53.3539 86.1288 53.3723 86.1472 53.3928C85.7155 54.647 85.0239 55.6476 83.6244 55.9606Z" fill="black"/>
<path d="M32.3733 30.7961C32.4838 30.6918 32.5943 30.5874 32.6864 30.4688C33.3432 29.6258 34.1576 28.9608 35.0128 28.3285C37.2226 26.6978 39.3915 25.0159 41.3169 23.0455C41.3517 23.0107 41.3946 22.9841 41.4315 22.9534C41.9225 23.3606 42.2315 23.512 42.7267 23.4936C43.5246 23.4649 44.294 23.3176 45.0183 22.9432C46.0884 22.3928 46.8045 21.5334 47.3017 20.4653C47.3754 20.3078 47.4347 20.1543 47.5923 20.0397C47.7662 19.9108 47.7192 19.7185 47.5166 19.6264C47.4388 19.5917 47.3488 19.5753 47.2629 19.5671C46.8332 19.5241 46.4096 19.5446 45.9881 19.6489C45.2045 19.8433 44.4392 20.0889 43.7252 20.4735C43.631 20.5247 43.5287 20.5615 43.4285 20.6065C44.8341 18.6177 45.9411 16.4857 46.8475 14.2513C47.3611 14.4457 47.7519 14.458 48.2082 14.2247C48.5642 14.0426 48.9141 13.8257 49.2128 13.5659C50.1029 12.7924 50.8599 11.9024 51.4288 10.863C51.5188 10.6972 51.6068 10.5274 51.6641 10.3494C51.7316 10.1325 51.6252 9.96471 51.4001 9.94221C51.2282 9.92584 51.0441 9.93607 50.8783 9.98108C49.8348 10.2634 48.8547 10.6747 48.0404 11.4134C47.9606 11.485 47.8706 11.5484 47.7764 11.6221C47.7642 11.5709 47.7498 11.5443 47.7539 11.5238C48.0568 10.1345 48.3637 8.74728 48.6645 7.35797C48.6992 7.19837 48.7893 7.1063 48.91 7.00195C49.221 6.73186 49.5525 6.46382 49.7939 6.13644C50.7617 4.81261 51.2835 3.31895 51.3776 1.68002C51.3858 1.52861 51.3919 1.3772 51.3776 1.22783C51.3551 1.00276 51.2896 0.945468 51.0584 0.951606C50.9479 0.953652 50.8333 0.980252 50.7269 1.01504C50.4998 1.0887 50.2747 1.17054 50.0517 1.25852C49.2722 1.56544 48.7218 2.10357 48.4128 2.88518C48.0609 3.77933 47.8972 4.69803 48.024 5.6597C48.0731 6.02186 48.1284 6.38198 48.1693 6.74414C48.1857 6.89146 48.1979 7.04901 48.1652 7.19224C47.9013 8.3442 47.6271 9.49615 47.3529 10.6461C47.3263 10.7606 47.2792 10.8691 47.2424 10.9816C47.1503 10.5908 47.1299 10.2041 47.0562 9.82967C46.8639 8.84958 46.5099 7.9452 45.7549 7.24339C45.2413 6.7646 44.6275 6.54567 43.9359 6.5293C43.631 6.52111 43.5574 6.5825 43.5246 6.89146C43.4633 7.44391 43.4469 8.00045 43.6126 8.54062C43.8561 9.34065 44.1753 10.112 44.693 10.7709C45.229 11.4522 45.804 12.1049 46.3953 12.7392C46.5672 12.9254 46.5836 13.0605 46.5038 13.2671C45.7406 15.2457 44.8055 17.1404 43.6433 18.9164C43.5962 18.988 43.5328 19.0515 43.4264 19.1804C43.5328 18.7261 43.6269 18.364 43.7006 17.9936C43.8418 17.2734 43.9114 16.547 43.7845 15.8166C43.6044 14.7792 42.9926 14.0119 42.211 13.3572C42.0126 13.1914 41.7957 13.0462 41.5256 12.8456C41.3701 13.1321 41.2207 13.3265 41.1552 13.5454C40.4473 15.9209 40.8401 18.1532 42.1026 20.2464C42.2826 20.5451 42.2172 20.7538 42.0965 21.0014C42.0535 21.0894 41.9757 21.161 41.9123 21.2408C40.699 22.7693 39.2401 24.046 37.7648 25.3064C37.7301 25.3351 37.6891 25.3555 37.6462 25.3821C37.6359 25.3494 37.6257 25.3351 37.6298 25.3269C37.7178 25.1612 37.8119 24.9975 37.8978 24.8297C38.4257 23.8128 38.6303 22.7488 38.3684 21.6132C38.2764 21.2081 38.0902 20.8602 37.7955 20.5697C37.5214 20.2996 37.2635 20.2853 36.9689 20.5513C36.0482 21.3799 35.3893 22.3682 35.1008 23.5897C34.9146 24.3795 34.843 25.1775 34.8287 25.9857C34.8225 26.3929 34.7939 26.8042 35.2256 27.0231C35.0497 27.4221 34.8328 27.727 34.5054 27.9705C34.0839 28.2856 33.6665 28.6232 33.3084 29.0078C32.8644 29.4846 32.4797 30.0186 32.0705 30.5281C31.9969 30.6202 31.9314 30.7286 32.0337 30.8309C32.1565 30.9516 32.2751 30.8882 32.3733 30.7961ZM50.9581 1.30968C50.9356 3.50515 49.8553 5.59832 48.8813 6.4229C49.2619 4.55889 49.9412 2.88518 50.9581 1.30968ZM49.0103 2.7399C49.3151 2.14449 49.8266 1.79051 50.463 1.5859C49.5422 2.80743 48.9755 4.18855 48.5356 5.71495C48.4864 5.584 48.4476 5.5267 48.4455 5.46941C48.3821 4.50774 48.5724 3.59518 49.0103 2.7399ZM50.6819 10.5847C49.7448 11.4031 48.8056 12.2134 47.6373 12.6881C48.3535 11.5566 49.442 10.955 50.6819 10.5847ZM47.3468 13.2549C48.5683 12.9172 49.5504 12.1786 50.4937 11.3765C50.5121 11.3602 50.5387 11.354 50.5612 11.3438C50.5817 11.3643 50.6001 11.3827 50.6205 11.4031C50.3443 11.7244 50.0763 12.0538 49.7898 12.3668C49.356 12.8415 48.8977 13.2896 48.3453 13.6293C48.0731 13.7971 47.7867 13.9178 47.4593 13.9137C47.3222 13.9117 47.1728 13.9117 47.1319 13.7316C47.093 13.5577 47.1933 13.2958 47.3468 13.2549ZM44.0116 7.41322C45.1165 8.77592 46.0127 10.2041 46.4137 11.976C44.9815 10.8159 43.8111 8.58768 44.0116 7.41322ZM45.6669 8.93757C45.3232 8.35033 44.9058 7.80607 44.4843 7.19019C44.8178 7.2659 45.0469 7.40503 45.2556 7.58509C45.7099 7.98203 46.0188 8.47515 46.2378 9.03373C46.4526 9.58618 46.5938 10.153 46.6102 10.8118C46.2807 10.1489 46.0107 9.52275 45.6669 8.93757ZM46.6061 20.0889C45.6546 20.8398 43.8663 21.5805 42.8944 21.6418C43.3262 21.1242 45.6669 20.0786 46.6061 20.0889ZM43.3487 16.5307C43.3487 17.2509 43.2116 17.9527 43.0315 18.6484C43.0233 18.6811 42.9947 18.7098 42.921 18.8244C42.9456 17.8975 42.9272 17.0524 42.7041 16.236C42.4852 15.4319 42.2254 14.6421 41.9635 13.7828C42.833 14.5459 43.3507 15.4115 43.3487 16.5307ZM41.5276 14.1654C42.2683 15.9639 42.6919 17.7808 42.3931 19.7451C41.2535 18.3926 41.0407 15.4544 41.5276 14.1654ZM41.9103 22.4501C41.9491 22.3641 42.0576 22.2782 42.1517 22.2536C42.4913 22.1697 42.8371 22.092 43.185 22.049C44.2674 21.9119 45.2311 21.4741 46.16 20.9339C46.2685 20.8705 46.3769 20.807 46.4854 20.7436C46.5058 20.7313 46.5324 20.7272 46.557 20.7191C46.3544 21.1958 46.0577 21.5948 45.6649 21.9099C44.8341 22.5769 43.8786 22.9104 42.8167 22.9493C42.5445 22.9595 42.2929 22.8961 42.0617 22.7611C41.9409 22.6915 41.853 22.579 41.9103 22.4501ZM37.5418 21.026C37.7362 21.1999 37.8058 21.3677 37.8651 21.5436C38.0226 22.0183 38.0411 22.5074 37.9879 22.9984C37.8897 23.8905 37.3188 25.0282 36.662 25.6154C37.2206 24.1565 37.3945 22.624 37.5418 21.026ZM36.9689 21.3861C36.9321 21.738 36.9055 22.0429 36.8707 22.3457C36.7704 23.2214 36.6313 24.0931 36.3469 24.9279C36.1934 25.376 35.9704 25.8036 35.7699 26.2354C35.7003 26.3868 35.596 26.5198 35.3914 26.4645C35.0149 25.022 35.8599 22.227 36.9689 21.3861Z" fill="black"/>
<path d="M25.6336 37.7446C25.6213 37.6341 25.5988 37.5257 25.5702 37.3558C25.7462 37.4131 25.8648 37.4499 25.9815 37.4909C26.8511 37.7957 27.604 38.2909 28.2751 38.9129C28.9135 39.5022 29.556 40.0874 30.1842 40.6869C30.5443 41.0306 30.8942 41.3826 31.2461 41.7365C31.2481 41.7447 31.2481 41.7529 31.2502 41.7611C31.3054 42.0926 31.4139 42.4179 31.5285 42.735C31.596 42.9233 31.731 43.0829 32.0154 43.0788C32.0154 42.9233 32.0277 42.778 32.0134 42.6368C31.9684 42.199 31.8742 41.7652 31.8681 41.3273C31.8497 39.9216 32.0707 38.5712 32.8646 37.3599C33.4006 36.5435 34.0063 35.7865 34.7531 35.1624C36.1342 34.0084 37.5297 32.8687 38.9395 31.7515C40.3799 30.6098 41.8634 29.5233 43.2977 28.3755C44.644 27.2972 45.976 26.2004 47.2671 25.0567C48.3147 24.1298 49.2641 23.0965 50.0539 21.9364C51.6294 19.6222 52.7016 17.0789 53.4157 14.3842C53.9436 12.3913 54.4183 10.382 54.9155 8.3809C54.9605 8.19879 55.0035 8.0126 55.0301 7.8264C55.0464 7.71182 55.0342 7.59314 55.0342 7.47652C55.0055 7.47038 54.9748 7.46219 54.9462 7.45605C54.8807 7.57064 54.803 7.68113 54.7538 7.80185C54.4838 8.46683 54.1809 9.11954 53.964 9.80089C53.6264 10.8669 53.3195 11.9473 53.0515 13.0337C52.5481 15.0717 51.8115 17.0216 50.8928 18.904C50.3302 20.0601 49.6693 21.167 48.8038 22.1266C47.6129 23.4464 46.3321 24.6781 44.953 25.7994C42.7452 27.5938 40.4945 29.3351 38.2295 31.0579C36.8483 32.1096 35.5245 33.2391 34.1986 34.3603C33.505 34.9476 32.9075 35.633 32.394 36.386C31.9377 37.055 31.5591 37.7569 31.332 38.5242C31.2052 37.8326 31.0231 37.1533 30.7489 36.4944C30.2803 35.3772 29.5417 34.4913 28.5186 33.857C27.8782 33.46 27.203 33.1183 26.5421 32.7521C26.4541 32.703 26.362 32.66 26.2659 32.6314C26.1288 32.5904 25.9855 32.5843 25.8873 32.7153C25.7891 32.8442 25.8198 32.9792 25.9078 33.0999C25.9978 33.2206 26.094 33.3373 26.1943 33.4519C26.7385 34.08 27.2746 34.7143 27.8332 35.3302C28.9688 36.5783 29.4619 38.1333 29.9775 39.7395C29.8527 39.6331 29.7586 39.5574 29.6726 39.4756C29.3514 39.1728 29.0342 38.8699 28.7151 38.5651C27.5611 37.4602 26.1983 36.7952 24.6106 36.5804C23.8494 36.478 23.2622 37.0141 23.3399 37.7753C23.3747 38.1149 23.5261 38.3993 23.7635 38.6387C24.1052 38.9845 24.5962 39.0725 25.0136 38.8679C25.4045 38.6756 25.6786 38.1825 25.6336 37.7446ZM27.8168 34.4197C27.6593 34.2498 27.5058 34.0739 27.3933 33.8488C27.4567 33.8774 27.5201 33.904 27.5836 33.9327C28.9974 34.5977 29.957 35.6657 30.4706 37.1471C30.8266 38.1763 30.9658 39.2403 31.0681 40.3125C31.0292 40.3227 30.9903 40.335 30.9515 40.3452C30.7346 39.8828 30.5136 39.4224 30.3008 38.9579C30.2435 38.8331 30.1985 38.7001 30.1698 38.5651C29.7974 36.9487 28.9279 35.6166 27.8168 34.4197ZM24.5205 38.3421C24.23 38.3318 23.9292 37.9615 23.9313 37.6177C23.9333 37.3415 24.1215 37.1676 24.4182 37.1655C24.7292 37.1635 25.0402 37.5093 25.03 37.8428C25.0198 38.117 24.7804 38.3523 24.5205 38.3421Z" fill="black"/>
<path d="M32.7929 97.9697C33.6134 97.3068 33.5111 96.296 32.574 95.8274C32.265 95.674 31.9847 95.7251 31.7658 95.9911C31.6942 96.0771 31.6512 96.1855 31.5898 96.2796C31.4057 96.5722 31.242 96.875 30.8675 96.9876C30.5831 97.0735 30.3601 97.2781 30.2066 97.5277C29.9918 97.8797 29.7811 98.2418 29.6215 98.6204C29.2941 99.404 29.1324 100.229 29.0936 101.1C29.0506 101.027 28.9933 100.959 28.9667 100.881C28.801 100.382 28.6127 99.8849 28.4859 99.3754C28.2813 98.5528 28.0194 97.7569 27.5958 97.0183C27.2828 96.472 26.9697 95.9256 26.6566 95.3814C26.5687 95.2279 26.4786 95.0765 26.3927 94.923C26.3231 94.7982 26.2474 94.6775 26.0817 94.6939C25.918 94.7102 25.8587 94.8432 25.8096 94.9762C25.7584 95.1174 25.7073 95.2607 25.6745 95.408C25.4658 96.3615 25.5313 97.3088 25.7523 98.2521C26.2229 100.249 27.1539 101.911 29.1099 102.817C29.2511 102.882 29.3105 102.983 29.3596 103.118C29.4025 103.232 29.5048 103.259 29.601 103.165C29.8445 102.932 29.9181 102.488 29.7933 102.154C29.7381 102.005 29.7054 101.845 29.691 101.687C29.6706 101.475 29.6808 101.26 29.6726 101.047C29.6296 100.053 29.8915 99.1278 30.3396 98.2541C30.4419 98.0556 30.5831 97.8735 30.7284 97.6996C30.8491 97.5564 31.0005 97.4398 31.2113 97.4377C31.2747 97.54 31.3259 97.6403 31.3934 97.7283C31.7453 98.1948 32.3796 98.3032 32.7929 97.9697ZM26.9861 98.9396C27.295 99.6537 27.6081 100.368 27.9211 101.082C27.9559 101.16 27.9907 101.237 28.0398 101.346C26.7774 100.47 25.652 97.008 26.1656 95.6187C27.1354 97.1267 27.9457 98.6858 28.2096 100.538C28.0787 100.284 27.9682 100.077 27.8659 99.8664C27.6838 99.4941 27.5058 99.1176 27.3237 98.7452C27.2787 98.6552 27.2337 98.561 27.1661 98.4915C27.1232 98.4485 27.0229 98.4178 26.9718 98.4383C26.9247 98.4567 26.8817 98.5569 26.8879 98.6163C26.9001 98.7268 26.9411 98.8352 26.9861 98.9396ZM32.0359 97.5318C31.8251 97.4173 31.7126 97.2331 31.776 97.049C31.8742 96.7686 31.9827 96.4863 32.2323 96.2632C32.2957 96.2858 32.3326 96.2919 32.3632 96.3103C32.9157 96.6172 32.9689 97.0428 32.5106 97.4786C32.3612 97.6198 32.2262 97.6362 32.0359 97.5318Z" fill="black"/>
<path d="M36.394 99.3544C36.703 99.1989 37.0283 99.1314 37.37 99.0946C37.6565 99.0639 37.9511 99.0291 38.2192 98.9329C40.2059 98.2127 41.3906 96.8172 41.6525 94.7057C41.7671 93.7829 41.6259 92.8724 41.2924 92.0007C41.1983 91.7572 41.0673 91.5219 40.9241 91.303C40.742 91.0247 40.5497 90.9756 40.2407 91.0922C40.1466 91.127 40.0586 91.1761 39.9706 91.2252C39.3425 91.5628 38.8923 92.0826 38.5179 92.6739C38.0452 93.4187 37.6442 94.2023 37.3189 95.0208C37.0815 95.6162 36.8687 96.2218 36.6273 96.8152C36.3265 97.5559 36.0994 98.3068 36.2038 99.113C36.0626 99.2214 35.9398 99.3156 35.7925 99.4281C36.0953 99.4915 36.1076 99.4997 36.394 99.3544ZM40.5783 91.7265C41.2188 92.5122 41.3886 94.5952 40.8832 95.786C40.255 97.2633 39.2013 98.2618 37.548 98.5401C38.4013 97.5927 39.0683 96.5369 39.5532 95.3645C40.0361 94.1982 40.2816 92.9665 40.5783 91.7265ZM36.8176 97.8158C37.3823 96.2709 37.8856 94.6995 38.7532 93.2857C39.0131 92.8601 39.3384 92.4734 39.6494 92.0805C39.7456 91.9577 39.8908 91.8759 40.0402 91.7961C39.5921 94.3906 38.7205 96.7722 36.7889 98.6465C36.7501 98.6362 36.7132 98.626 36.6744 98.6158C36.7194 98.3477 36.7255 98.0654 36.8176 97.8158Z" fill="black"/>
<path d="M25.9098 79.8765C26.0284 79.7353 26.1573 79.6452 26.3435 79.6064C26.9696 79.4795 27.5037 79.1644 27.9129 78.6877C28.2628 78.2805 28.5615 77.8242 28.8459 77.3679C29.247 76.7275 29.38 76.0175 29.3022 75.2666C29.2838 75.0906 29.2572 74.9167 29.2306 74.7428C29.1221 74.0573 28.9625 73.3862 28.6986 72.7417C28.5022 72.2649 28.2157 71.8557 27.7697 71.5815C27.4095 71.3605 27.1333 71.4976 27.0474 71.9069C27.0085 72.089 26.9451 72.2649 26.8898 72.4429C26.7077 73.0179 26.4745 73.5806 26.3538 74.1678C26.1164 75.3136 25.9241 76.4676 25.7522 77.6237C25.6704 78.1679 25.6519 78.7265 25.6622 79.2769C25.6663 79.4918 25.654 79.6637 25.5271 79.8335C25.388 80.0197 25.2632 80.2182 25.1343 80.4105C25.4883 80.3389 25.5599 80.2877 25.9098 79.8765ZM27.5876 73.7504C27.5773 73.2245 27.5855 72.6967 27.5855 72.1319C27.6653 72.1892 27.7492 72.222 27.7881 72.2833C27.9334 72.5023 28.095 72.7171 28.1932 72.9586C28.5349 73.7913 28.7272 74.6609 28.7968 75.5571C28.8295 75.9786 28.7641 76.3858 28.5881 76.7725C28.2382 77.5337 27.827 78.2518 27.117 78.7429C26.9553 78.8554 26.7753 78.9434 26.5338 79.0826C26.7732 78.436 27.0003 77.8938 27.1763 77.3331C27.5446 76.1689 27.6142 74.9658 27.5876 73.7504ZM27.0269 73.5315C27.2704 74.7121 26.763 77.7546 26.2023 78.4687C26.1635 77.8447 26.81 73.9714 27.0269 73.5315Z" fill="black"/>
<path d="M87.3525 94.354C87.1745 93.6419 87.1152 92.9197 87.1663 92.1851C87.195 91.7964 87.2052 91.4055 87.1786 91.0168C87.1193 90.1226 86.7366 89.4024 85.9673 88.9113C85.734 88.764 85.4926 88.629 85.2573 88.4837C84.5555 88.0499 84.5228 87.9865 84.5862 87.1762C84.6046 86.9389 84.6435 86.7015 84.6537 86.4621C84.6619 86.28 84.5514 86.1491 84.402 86.1389C84.2424 86.1266 84.136 86.2125 84.0931 86.3598C84.0542 86.4928 84.0276 86.6279 84.0112 86.765C83.9539 87.2765 83.8823 87.7778 83.7002 88.2689C83.4854 88.8479 83.3974 89.4617 83.3994 90.0858C83.4383 91.3789 83.8394 92.5616 84.578 93.6092C85.2409 94.5484 86.1555 95.1458 87.3095 95.3341C87.4548 95.3586 87.6206 95.4262 87.7167 95.2543C87.8006 95.1029 87.6717 95.0087 87.6001 94.8901C87.4957 94.7264 87.3996 94.5422 87.3525 94.354ZM86.6589 94.6138C86.0246 94.2844 85.4619 93.8588 85.0691 93.2552C84.4143 92.2506 83.9683 91.1641 83.913 89.9487C83.8966 89.6029 83.9314 89.253 84.0112 88.895C84.044 89.0095 84.0788 89.1241 84.1074 89.2408C84.3141 90.0387 84.5739 90.8101 85.1632 91.4219C85.2594 91.5201 85.3535 91.6306 85.4721 91.692C85.5417 91.7288 85.687 91.7186 85.7402 91.6695C85.7893 91.6245 85.7852 91.4894 85.7627 91.4055C85.7381 91.3135 85.6665 91.2296 85.6092 91.1477C85.1489 90.4705 84.9054 89.7052 84.7049 88.9216C84.6905 88.8663 84.7028 88.8049 84.7028 88.717C85.0466 88.9052 85.3678 89.0771 85.6829 89.2571C86.3847 89.6582 86.7346 90.2822 86.798 91.0741C86.8164 91.3114 86.8205 91.5529 86.8062 91.7902C86.7489 92.7232 86.7694 93.6522 86.9822 94.5668C86.9924 94.6118 86.9883 94.6589 86.9944 94.7468C86.8635 94.6936 86.755 94.663 86.6589 94.6138Z" fill="black"/>
<path d="M74.9554 82.922C75.3789 82.4412 75.8311 81.9808 76.2178 81.4734C76.9032 80.5731 77.0076 79.5378 76.8091 78.4554C76.7498 78.1321 76.6229 78.0523 76.3037 78.1198C75.4403 78.2999 74.7528 78.7582 74.2351 79.4662C73.6909 80.211 73.3921 81.0621 73.1998 81.9563C73.0791 82.5128 73.0095 83.0714 73.1343 83.6402C73.1978 83.9308 73.2673 84.2091 73.5865 84.3154C73.6008 84.4075 73.609 84.4812 73.6254 84.5528C73.652 84.6715 73.7031 84.7717 73.8464 84.7635C74.0019 84.7574 74.0674 84.651 74.0837 84.516C74.094 84.43 74.0939 84.338 74.0735 84.2541C74.0223 84.0617 74.0858 83.9103 74.2085 83.7712C74.4582 83.4888 74.7078 83.2044 74.9554 82.922ZM73.6315 82.8955C73.7727 81.4161 74.1451 80.0473 75.4014 79.0958C74.5543 80.2416 73.8852 81.4714 73.6315 82.8955ZM76.2833 78.8667C76.4163 79.7424 76.2239 80.4729 75.7554 81.1133C75.3994 81.5982 74.9799 82.0361 74.583 82.4883C74.4295 82.6642 74.2535 82.8218 74.0653 82.9691C74.3395 81.3731 75.1641 80.08 76.2833 78.8667Z" fill="black"/>
<path d="M57.6754 96.5701C57.614 95.7291 57.5117 94.8882 57.5076 94.0472C57.4974 92.1464 57.5362 90.2456 57.5526 88.3468C57.5588 87.5672 57.5628 86.7856 57.5547 86.006C57.5526 85.7605 57.5097 85.517 57.4851 85.2715C57.4503 85.2735 57.4155 85.2756 57.3807 85.2776C57.3644 85.3595 57.3419 85.4393 57.3357 85.5232C57.303 85.9508 57.2764 86.3764 57.2457 86.804C57.1414 88.2588 57.0165 89.7136 56.9327 91.1704C56.8569 92.5147 56.8467 93.8631 56.9572 95.2074C57.0124 95.8724 57.0534 96.5374 57.1209 97.2023C57.2559 98.5425 57.4053 99.8807 57.5506 101.219C57.5608 101.317 57.571 101.428 57.6181 101.509C57.6549 101.573 57.7572 101.638 57.8227 101.632C57.8882 101.624 57.9843 101.532 57.9925 101.468C58.015 101.297 58.0068 101.117 57.9946 100.943C57.8902 99.4817 57.7797 98.0249 57.6754 96.5701Z" fill="black"/>
</svg>
