<svg width="113" height="111" viewBox="0 0 113 111" fill="none" xmlns="http://www.w3.org/2000/svg">
<path fill-rule="evenodd" clip-rule="evenodd" d="M79.8471 24.9719C86.2327 29.8349 87.596 38.3968 90.7859 45.7638C93.4416 51.897 96.6322 57.6663 96.896 64.3457C97.1876 71.7283 96.6401 79.4683 92.3549 85.4875C87.8703 91.7869 80.6946 95.5642 73.2326 97.5846C65.6106 99.6484 57.3538 100.117 50.135 96.9192C43.0139 93.7651 39.3436 86.4413 34.4295 80.3979C28.5827 73.2076 19.6373 67.5114 18.7214 58.287C17.7611 48.6151 23.2454 39.3453 29.6251 32.0121C35.9588 24.7317 44.4391 19.0829 53.9927 17.7437C63.078 16.4701 72.5492 19.4141 79.8471 24.9719Z" fill="#F29FA4"/>
<path d="M66.7806 19.2049C66.8885 19.8774 66.9964 20.5535 66.9802 21.2439C66.9676 21.7269 67.0036 22.2098 67.0413 22.6945C67.1096 23.5602 67.088 24.433 67.1312 25.3023C67.1779 26.2539 67.2085 27.2143 67.0701 28.1677C66.9784 28.8008 66.973 29.4465 66.8705 30.0761C66.6674 31.3246 66.4517 32.573 66.1281 33.7982C65.7901 35.0807 65.3784 36.3417 64.947 37.5955C64.7277 38.2304 64.4724 38.8511 64.1776 39.4556C63.6454 40.5503 62.9893 41.5734 62.2648 42.5517C61.6877 43.3316 61.1053 44.1132 60.388 44.7768C60.0428 45.0969 59.6761 45.3939 59.3057 45.6854C58.495 46.3239 57.6536 46.9142 56.6847 47.3041C55.4946 47.7834 54.2919 47.9659 53.0389 47.5813C52.6704 47.4687 52.2893 47.3953 51.9189 47.2844C50.8996 46.9804 49.8911 46.6441 49.0246 46.002C48.3307 45.4887 47.7285 44.8823 47.1748 44.2205C46.4862 43.3978 45.8139 42.5643 45.2296 41.6664C44.7856 40.9831 44.3847 40.2748 43.9605 39.5791C43.2575 38.4254 42.7254 37.1913 42.1448 35.9821C41.6881 35.0306 41.3178 34.0379 40.9619 33.0435C40.6652 32.2117 40.374 31.3747 40.2086 30.5036C40.1655 30.28 40.0918 30.0618 40.0612 29.8382C40.0414 29.6916 40.0289 29.5449 39.9785 29.4054C40.0001 29.7202 40.0253 30.0332 40.0558 30.3462C40.3183 33.0935 40.9367 35.7639 41.9362 38.3431C42.934 40.9134 44.2607 43.2904 46.1213 45.3474C47.2952 46.6441 48.6255 47.7548 50.2057 48.5293C53.3895 50.0926 56.5283 49.9906 59.5952 48.202C61.116 47.3148 62.369 46.1218 63.4513 44.7482C65.4 42.2781 66.6548 39.47 67.48 36.4615C68.3033 33.4602 68.6413 30.3981 68.5891 27.2913C68.528 23.6121 67.8988 20.0384 66.6206 16.581C66.2503 15.5812 65.8225 14.6207 65.3263 13.7031C65.596 14.4758 65.8566 15.2503 66.0652 16.0408C66.3474 17.0872 66.6081 18.1371 66.7806 19.2049Z" fill="#F29FA4"/>
<path d="M65.3103 61.4848C64.3845 63.0373 63.838 64.7365 63.4138 66.4822C62.932 68.4658 62.6713 70.4744 62.6533 72.9069C62.6551 74.3074 62.8655 76.0835 63.1962 77.8417C63.6708 80.3583 64.2497 82.8516 65.0712 85.2806C66.3207 88.9669 67.4712 92.6837 68.4887 96.438C69.2635 99.2998 69.8208 102.208 70.148 105.156C70.2325 105.914 70.2487 106.68 70.272 107.443C70.3385 107.638 70.4374 107.858 70.5543 107.933C70.9084 108.159 70.7466 107.349 70.752 107.243C71.1619 99.2676 69.4343 90.9398 66.9768 83.3632C64.9059 76.9778 63.225 69.4155 66.2038 63.0212C67.2986 60.6692 69.0082 58.6534 70.8293 56.7986C71.7318 55.8793 72.6702 54.9885 73.7183 54.2373C74.2144 53.8814 74.7843 53.4503 74.9605 52.9102C73.641 53.6614 72.3502 54.4573 71.1116 55.3355C68.7673 56.9954 66.7863 59.0093 65.3103 61.4848Z" fill="#F29FA4"/>
<path d="M89.5203 47.3803C88.8857 48.237 88.4435 49.1975 88.03 50.1777C87.6022 51.1918 87.1258 52.1863 86.644 53.1772C86.182 54.1287 85.4449 54.8478 84.5874 55.4487C84.4364 55.5543 84.2656 55.6348 84.0948 55.7099C83.987 55.7582 83.8755 55.76 83.782 55.7152C83.667 55.971 83.6148 56.2339 83.6867 56.4772C83.8234 56.9333 84.3843 57.1479 84.8535 57.0621C86.6512 56.7348 87.6435 54.5222 88.4165 53.1182C89.3657 51.3921 90.1729 49.5928 91.0214 47.8167C91.6938 46.4073 92.3895 45.0068 93.1985 43.6707C93.709 42.8264 95.1598 41.2614 95.0214 40.1006C94.5522 40.7034 94.0812 41.3043 93.6209 41.9142C92.2475 43.7297 90.8776 45.5487 89.5203 47.3803Z" fill="#F29FA4"/>
<path d="M100.418 12.9734C100.096 13.3598 99.7003 13.5869 99.4396 14.0645C99.0567 14.7656 98.8535 15.5276 98.7493 16.3092C98.5587 17.7401 98.3897 19.1764 98.2261 20.6108C98.0661 22.0042 97.8396 23.3832 97.4585 24.7282C97.4747 24.7533 97.4909 24.7747 97.5142 24.7873C97.7857 24.9464 98.2082 24.4438 98.3034 24.2399C98.512 23.7964 98.5731 23.2955 98.7277 22.8323C99.2257 21.346 99.614 19.772 99.8297 18.2588C99.9753 17.2393 99.9268 16.1804 100.252 15.1913C100.412 14.703 100.651 14.2416 101.063 13.9178C101.354 13.6889 102.091 13.5404 101.895 13.0307C101.69 12.4994 101.16 12.4655 100.599 12.6443C100.599 12.6515 100.603 12.6586 100.603 12.664C100.601 12.7803 100.515 12.8554 100.418 12.9734Z" fill="#F29FA4"/>
<path d="M19.4435 12.6866C20.4934 16.2209 21.8291 19.6389 23.6466 22.8602C23.7868 23.1071 23.9342 23.3521 23.9306 23.7599C23.8174 23.5542 23.7527 23.4344 23.6825 23.3163C22.9742 22.1376 22.3055 20.9357 21.5433 19.791C21.0543 19.0559 20.4395 18.403 19.8624 17.7287C19.7078 17.5481 19.5011 17.3978 19.2907 17.2816C18.9779 17.1098 18.7191 17.2494 18.6579 17.6017C18.6364 17.7251 18.64 17.8611 18.6615 17.9845C18.7101 18.251 18.764 18.5193 18.8395 18.7786C19.5496 21.1825 20.5995 23.4308 21.9675 25.5342C23.1972 27.4248 24.6102 29.1741 26.0987 30.8643C26.2281 31.0128 26.345 31.1845 26.4205 31.3633C27.0874 32.9642 27.8568 34.5149 28.7 36.0298C28.7593 36.1372 28.8114 36.2498 28.8672 36.3589C28.6874 36.2695 28.5669 36.1407 28.4465 36.0084C27.5386 35.0121 26.638 34.0087 25.7194 33.0232C24.7881 32.0233 23.7275 31.1648 22.6327 30.3492C22.4493 30.2133 22.2498 30.0988 22.0484 29.9879C21.874 29.8913 21.6871 29.877 21.5235 30.0165C21.3617 30.156 21.3509 30.3456 21.4084 30.5298C21.4678 30.7194 21.5397 30.909 21.6331 31.0861C22.097 31.9607 22.6039 32.8121 23.2763 33.5472C23.963 34.2967 24.6569 35.0443 25.394 35.7455C27.0389 37.3087 28.8042 38.7324 30.6037 40.1133C31.384 40.7124 32.112 41.3456 32.637 42.1881C32.7574 42.3812 32.9156 42.5529 33.0522 42.7372C33.1026 42.8051 33.1421 42.882 33.1871 42.9554C32.9588 42.8481 32.7808 42.7032 32.5938 42.5708C31.3893 41.7141 30.1975 40.8394 28.9714 40.0149C28.5382 39.7233 28.0276 39.5373 27.5386 39.3352C27.3607 39.2619 27.1431 39.2529 26.9472 39.2601C26.5463 39.2744 26.3575 39.5731 26.5032 39.9433C26.5535 40.0739 26.6362 40.1973 26.7225 40.31C27.9467 41.8804 29.3382 43.2737 31.0136 44.3755C32.6981 45.4809 34.4742 46.4181 36.3097 47.2427C36.7268 47.4305 37.1636 47.5825 37.6022 47.7149C37.8413 47.7864 38.0517 47.8812 38.2476 48.035C39.0728 48.6843 39.9339 49.2817 40.8957 49.7163C41.2876 49.8934 41.6956 50.0329 42.1001 50.1778C42.2439 50.2297 42.3914 50.2082 42.483 50.0651C42.5837 49.9077 42.5388 49.7575 42.4129 49.6394C42.3087 49.5429 42.1882 49.4606 42.0678 49.3854C41.3001 48.9079 40.5325 48.4321 39.7631 47.9581C39.4665 47.7757 39.2526 47.5521 39.2723 47.1694C39.2777 47.0602 39.231 46.9458 39.2004 46.8349C38.5065 44.3648 38.0643 41.8464 37.6813 39.312C37.4764 37.9562 37.187 36.6129 36.9119 35.2679C36.8059 34.7492 36.6297 34.243 36.3133 33.8066C36.1659 33.6027 35.9807 33.4059 35.7704 33.27C35.463 33.0715 35.1358 33.1895 34.9866 33.524C34.9129 33.6903 34.8607 33.8799 34.8517 34.0606C34.823 34.6168 34.7888 35.1749 34.8122 35.7311C34.8859 37.5269 35.2149 39.2815 35.7093 41.0058C36.218 42.7819 36.7825 44.5383 37.7227 46.1481C37.7407 46.1785 37.7299 46.2232 37.7353 46.2876C37.6562 46.2268 37.5969 46.1856 37.5465 46.1373C36.3618 45.0266 35.2526 43.8461 34.2459 42.5744C34.0895 42.3776 33.9799 42.1344 33.89 41.8965C33.2338 40.1651 32.8455 38.3604 32.4302 36.5628C32.0221 34.7939 31.641 33.0178 31.215 31.2524C30.9597 30.1936 30.5984 29.1651 30.059 28.2118C29.8865 27.9077 29.6492 27.618 29.3795 27.3944C28.9606 27.0474 28.5292 27.203 28.3926 27.7235C28.3242 27.9829 28.2937 28.2601 28.2919 28.5284C28.2847 29.9414 28.4681 31.3329 28.9427 32.6637C29.4748 34.1572 30.0824 35.6256 30.6577 37.1066C30.708 37.2354 30.7619 37.3624 30.8141 37.4894C29.926 36.2802 27.9827 32.6046 27.4829 31.2828C27.438 31.1648 27.4038 31.0342 27.4002 30.909C27.3697 29.9807 27.3049 29.0507 27.3319 28.1224C27.3876 26.2068 27.5135 24.2929 27.5728 22.3773C27.6123 21.1199 27.6375 19.8589 27.5782 18.6051C27.5458 17.929 27.3391 17.2583 27.1683 16.5965C27.0982 16.3282 26.9382 16.0689 26.7674 15.8453C26.442 15.416 26.0322 15.4572 25.7787 15.9258C25.6978 16.076 25.6385 16.2406 25.5935 16.4051C24.9733 18.6337 24.7378 20.8963 24.9769 23.2019C25.0129 23.5578 25.0506 23.912 25.0866 24.2679C24.8924 23.8118 24.7827 23.3396 24.6497 22.8746C24.4897 22.3147 24.4286 21.7567 24.5688 21.1825C24.6227 20.9607 24.6407 20.73 24.6677 20.5029C24.8834 18.6266 25.1818 16.7646 25.5773 14.9152C26.0537 12.6902 26.4636 10.4526 26.602 8.17749C26.6308 7.70887 26.5912 7.23667 26.5661 6.76805C26.5589 6.64285 26.5121 6.51407 26.4546 6.40139C26.2946 6.07944 25.9998 6.03472 25.7661 6.3048C25.6564 6.43179 25.563 6.58562 25.5036 6.7448C25.2412 7.44058 24.9535 8.12919 24.7522 8.84285C24.3387 10.3059 24.1877 11.8191 23.9774 13.3198C23.9055 13.8295 23.9306 14.3661 23.7778 14.8472C23.6178 15.3516 23.5837 15.8524 23.5567 16.3622C23.5423 16.6555 23.5315 16.9471 23.5207 17.2404C23.4255 17.176 23.3931 17.1045 23.3769 17.0294C22.9958 15.3713 22.6363 13.7079 22.23 12.057C21.8974 10.7102 21.5001 9.37765 20.8655 8.13277C20.6264 7.66415 20.3352 7.217 20.0314 6.78594C19.8318 6.50334 19.5586 6.24936 19.1595 6.37277C18.7478 6.49976 18.6669 6.87358 18.6382 7.2331C18.6094 7.58724 18.613 7.95033 18.6453 8.30448C18.7802 9.78903 19.0193 11.2557 19.4435 12.6866ZM35.4809 35.4002C35.4576 34.9334 35.4702 34.4702 35.5582 33.9282C35.8333 34.1965 35.9645 34.4648 36.0382 34.7474C36.2306 35.4933 36.4265 36.2409 36.565 36.9993C36.9838 39.2762 37.3739 41.5585 37.782 43.8372C37.8593 44.27 37.9636 44.6993 37.9888 45.1536C37.9366 45.0641 37.8719 44.9783 37.8342 44.8835C36.5722 41.8375 35.6427 38.7128 35.4809 35.4002ZM36.0077 46.0819C36.1245 46.1731 36.2288 46.2822 36.2935 46.4414C36.2306 46.4181 36.1659 46.3985 36.1066 46.3698C34.4239 45.5668 32.7664 44.7207 31.2078 43.6905C29.7337 42.7157 28.4878 41.503 27.3858 40.1347C27.3517 40.0918 27.3265 40.0417 27.2546 39.9272C27.7598 40.0238 28.1229 40.2259 28.4609 40.4603C29.4388 41.1363 30.4204 41.8089 31.3714 42.5207C32.93 43.6923 34.4652 44.8924 36.0077 46.0819ZM29.2105 31.4081C28.9427 30.3975 28.8402 29.3565 28.8833 28.3084C28.8887 28.1957 28.9031 28.0812 28.9247 27.9703C28.9319 27.9346 28.9714 27.9042 29.0074 27.8559C29.2896 28.015 29.455 28.2708 29.5683 28.5427C29.8775 29.2939 30.228 30.0398 30.4366 30.8196C30.8806 32.4884 31.2473 34.1768 31.6428 35.8581C31.8927 36.9134 32.1372 37.9705 32.3853 39.0276C32.414 39.151 32.441 39.2744 32.4878 39.489C32.3979 39.3907 32.3583 39.3602 32.3385 39.3227C31.0298 36.7882 29.9404 34.1661 29.2105 31.4081ZM29.9853 38.7181C29.8667 38.6752 29.8271 38.6716 29.802 38.6502C28.1984 37.3481 26.5823 36.0602 25.0991 34.6186C24.0367 33.5848 23.0533 32.4884 22.3379 31.1791C22.2821 31.0789 22.2264 30.9788 22.1779 30.8768C22.1689 30.8572 22.185 30.825 22.1994 30.7391C22.3846 30.8804 22.55 31.002 22.7118 31.1308C23.776 31.984 24.7953 32.8872 25.7068 33.905C27.0263 35.3788 28.344 36.8544 29.6617 38.3282C29.7534 38.432 29.8397 38.5429 29.9853 38.7181ZM25.4371 21.0055C25.4857 19.5585 25.7068 18.1347 26.0825 16.736C26.1256 16.5786 26.1886 16.4266 26.2587 16.2263C26.4996 16.4534 26.5715 16.702 26.6416 16.9417C26.8717 17.7269 26.9975 18.5354 26.9849 19.351C26.9652 20.7068 26.9058 22.0643 26.8555 23.4201C26.7926 25.1336 26.7225 26.8453 26.656 28.5588C26.6542 28.6142 26.6452 28.6715 26.6398 28.7269C26.6128 28.7269 26.5841 28.7287 26.5571 28.7287C26.3414 27.7986 26.1113 26.8739 25.9153 25.9385C25.5755 24.3144 25.3814 22.6707 25.4371 21.0055ZM24.2039 18.1884C24.2686 16.9328 24.2902 15.6718 24.4268 14.4215C24.6012 12.8172 24.8241 11.2146 25.1117 9.62806C25.2627 8.79098 25.5971 7.98789 25.8542 7.17049C25.8865 7.06675 25.9513 6.97196 26.025 6.82529C26.167 7.13293 26.1328 7.4048 26.1041 7.66594C25.9926 8.6461 25.8973 9.62984 25.7319 10.6011C25.3544 12.8261 24.9355 15.0458 24.5401 17.269C24.4484 17.7877 24.3765 18.31 24.2416 18.8323C24.2273 18.6176 24.1931 18.403 24.2039 18.1884ZM24.8259 27.0259C25.1369 27.6895 25.331 28.4085 25.5791 29.1007C23.0857 26.7809 19.2889 20.045 19.2188 17.8682C19.359 18.0024 19.4759 18.0989 19.5766 18.2098C20.1968 18.8877 20.7613 19.605 21.2502 20.3848C22.5895 22.5204 23.7563 24.749 24.8259 27.0259ZM19.2763 6.95944C19.3177 6.94513 19.3572 6.93082 19.3986 6.91651C19.5909 7.19375 19.8264 7.4531 19.9685 7.75358C20.3208 8.50301 20.6822 9.25423 20.9482 10.0359C21.723 12.311 22.257 14.6523 22.7585 17.0007C22.9545 17.9237 23.154 18.8448 23.332 19.7695C23.4399 20.3276 23.5064 20.8928 23.5909 21.4544C23.5621 21.4633 23.5333 21.4741 23.5046 21.483C23.4668 21.4329 23.4201 21.3882 23.3949 21.3328C21.9909 18.2152 20.6696 15.0655 19.7941 11.7529C19.4615 10.492 19.2781 9.20594 19.1649 7.9074C19.1361 7.58545 19.1361 7.25992 19.2763 6.95944Z" fill="black"/>
<path d="M68.4006 48.3301C68.3664 48.466 68.2388 48.6002 68.1184 48.6878C67.7588 48.9489 67.3885 49.1958 67.011 49.4319C66.5364 49.727 66.0474 50.0024 65.571 50.2958C65.4506 50.3691 65.3193 50.4585 65.2528 50.5748C65.1989 50.6678 65.1971 50.8306 65.2438 50.9254C65.2816 50.9987 65.4326 51.0452 65.5332 51.0488C65.6411 51.0524 65.7526 50.9933 65.8622 50.9576C67.153 50.539 68.273 49.82 69.3336 48.999C69.6105 48.7844 69.8927 48.6234 70.2397 48.5394C70.5992 48.4535 70.948 48.305 71.2877 48.1548C73.0225 47.3857 74.6962 46.5021 76.3052 45.4951C78.1299 44.3522 79.6525 42.8927 80.9667 41.2042C81.0619 41.0808 81.1554 40.9467 81.2111 40.8036C81.3568 40.4333 81.1626 40.1257 80.7617 40.1257C80.4939 40.1257 80.2044 40.1579 79.9635 40.2634C79.4656 40.4798 78.9622 40.7106 78.5164 41.0164C77.2975 41.8535 76.1092 42.7317 74.9083 43.5938C74.7897 43.6797 74.6674 43.762 74.547 43.8478C74.8454 43.3577 75.1906 42.9195 75.5088 42.4616C75.7407 42.1272 76.0175 41.8481 76.3357 41.5959C77.5043 40.6676 78.671 39.7376 79.8269 38.7932C81.2615 37.6198 82.6457 36.3928 83.9041 35.0317C84.7257 34.1428 85.4358 33.1733 85.9967 32.1019C86.1225 31.8623 86.2448 31.6119 86.3059 31.3525C86.4065 30.9286 86.1009 30.6782 85.6982 30.8445C85.4897 30.9322 85.292 31.0592 85.1086 31.1951C84.0012 32.0161 82.9298 32.8854 81.9878 33.8959C81.0583 34.8922 80.1505 35.9063 79.2319 36.9133C79.1222 37.0332 79.0089 37.1494 78.8975 37.2675C78.8777 37.153 78.9083 37.0779 78.9478 37.0081C79.8251 35.4449 80.6197 33.8441 81.3064 32.1896C81.3657 32.0483 81.4556 31.9124 81.5545 31.7925C82.27 30.934 83.0053 30.0898 83.7064 29.2205C85.5616 26.9203 87.1113 24.4341 88.1737 21.6707C88.5171 20.78 88.758 19.8481 89.0294 18.9324C89.0762 18.775 89.0708 18.5889 89.0384 18.4244C88.9773 18.1167 88.7346 17.9897 88.4559 18.1346C88.2438 18.2455 88.0299 18.3904 87.8753 18.5693C87.2874 19.2525 86.6618 19.9161 86.1639 20.6619C85.4016 21.8049 84.7329 23.0086 84.0246 24.1873C83.9545 24.3018 83.8933 24.4216 83.8268 24.5397C83.7855 24.4019 83.7981 24.2893 83.8376 24.1873C83.8879 24.055 83.9527 23.9244 84.0228 23.801C84.6987 22.6187 85.3099 21.406 85.8511 20.1558C86.9692 17.5641 87.9831 14.9366 88.6087 12.1767C88.891 10.9336 89.0869 9.67446 89.0905 8.3956C89.0905 8.17023 89.0618 7.93414 88.9935 7.72129C88.8173 7.17576 88.3427 7.03267 87.9238 7.41365C87.6739 7.6408 87.4384 7.91625 87.2856 8.21316C86.9117 8.93576 86.527 9.66194 86.2537 10.4257C85.3908 12.8421 84.8551 15.348 84.3446 17.8556C84.3266 17.9432 84.2924 18.0273 84.2655 18.115C84.1828 17.7537 84.1792 17.4031 84.154 17.0525C84.127 16.6966 84.0911 16.3406 84.0354 15.9883C83.9958 15.7379 83.8969 15.4964 83.861 15.246C83.7801 14.679 83.7423 14.1067 83.6488 13.5432C83.4313 12.2465 83.2408 10.9426 82.9423 9.66373C82.7626 8.89105 82.4084 8.15771 82.1118 7.41544C82.0219 7.19007 81.8673 6.96292 81.5707 7.00763C81.2777 7.05235 81.2273 7.31885 81.159 7.55316C81.1464 7.5943 81.1392 7.63722 81.1374 7.68015C81.1213 8.07901 81.0781 8.47966 81.0979 8.87674C81.1878 10.651 81.4682 12.4039 81.808 14.1442C82.2592 16.4462 82.7374 18.7392 83.0178 21.0733C83.2533 23.0372 83.2929 23.0337 82.7841 24.8241C82.7536 24.9332 82.7068 25.0369 82.6691 25.1424C82.6619 24.7579 82.7068 24.3912 82.7428 24.0228C82.9711 21.7172 82.7338 19.4546 82.1064 17.2278C82.0633 17.0776 82.0075 16.9273 81.932 16.7914C81.6857 16.3389 81.2974 16.2923 80.9667 16.6805C80.857 16.8093 80.7563 16.9577 80.6898 17.1133C80.5676 17.4013 80.4507 17.6964 80.3734 18.0005C80.1325 18.9341 80.0264 19.8875 80.0624 20.8497C80.1469 23.1088 80.2386 25.3678 80.341 27.625C80.4004 28.9558 80.4471 30.2847 80.3195 31.6119C80.2943 31.8766 80.2278 32.1485 80.1217 32.3917C79.266 34.3646 78.2395 36.2515 77.1357 38.0956C77.0746 38.1976 77.0027 38.2906 76.9362 38.3872C76.9541 38.219 77.0171 38.0777 77.0746 37.9328C77.5851 36.6432 78.1083 35.3572 78.6009 34.0605C79.0755 32.8067 79.3325 31.5028 79.4008 30.1667C79.426 29.6712 79.4134 29.1615 79.3325 28.6732C79.2301 28.0489 78.7375 27.8915 78.2611 28.3172C78.0094 28.5408 77.7811 28.8216 77.6337 29.1221C77.3317 29.7374 77.0548 30.3706 76.8355 31.018C76.2638 32.7154 75.9079 34.4683 75.5393 36.2176C75.0791 38.3997 74.6117 40.5818 73.8603 42.6906C73.738 43.034 73.569 43.3398 73.3389 43.6189C72.3969 44.7582 71.3938 45.8421 70.3224 46.8616C70.2199 46.9582 70.112 47.0494 70.006 47.1424C69.997 47.1263 69.988 47.112 69.9772 47.0959C70.2451 46.5433 70.5453 46.0049 70.7754 45.4379C71.8289 42.8551 72.6001 40.1972 72.8446 37.407C72.9165 36.595 72.9884 35.7793 72.8661 34.9655C72.8374 34.7688 72.8014 34.5667 72.7223 34.386C72.5749 34.0515 72.2441 33.9371 71.9385 34.1374C71.7282 34.2733 71.5448 34.4701 71.3974 34.6758C71.0828 35.1122 70.903 35.6184 70.8006 36.1371C70.4985 37.6663 70.1929 39.1938 69.9448 40.732C69.6482 42.5672 69.357 44.4023 68.9004 46.2088C68.7224 46.9099 68.5822 47.6254 68.4006 48.3301ZM84.2888 21.0644C84.8551 18.4244 85.3369 15.7647 86.083 13.1676C86.4137 12.0158 86.7877 10.8728 87.2029 9.74958C87.4079 9.19153 87.7423 8.67999 88.0353 8.15592C88.1126 8.01641 88.2474 7.90731 88.393 7.74275C88.5818 8.10584 88.5908 8.43137 88.5512 8.75332C88.4416 9.64584 88.3481 10.5437 88.1845 11.4273C87.7674 13.672 86.9782 15.8058 86.1405 17.9182C85.5976 19.2865 84.9989 20.6315 84.4219 21.9873C84.3697 22.1125 84.296 22.2288 84.2331 22.3486C84.2061 22.3415 84.1792 22.3325 84.1522 22.3254C84.1936 21.9032 84.2007 21.474 84.2888 21.0644ZM82.865 16.3585C82.5433 14.5431 82.1981 12.7312 81.8961 10.914C81.7594 10.0966 81.6911 9.26845 81.6066 8.44389C81.5833 8.21137 81.5545 7.96633 81.6983 7.66048C81.7882 7.86438 81.8529 8.0021 81.9105 8.14162C82.3976 9.32747 82.6709 10.567 82.8597 11.828C83.1761 13.9224 83.4026 16.0241 83.496 18.14C83.5194 18.6515 83.4996 19.1667 83.4996 19.68C83.4781 19.6836 83.4565 19.6854 83.4349 19.6889C83.2462 18.58 83.061 17.4693 82.865 16.3585ZM82.9262 27.8057C83.9509 25.6343 85.0619 23.5041 86.331 21.4597C86.847 20.6297 87.4276 19.8535 88.0802 19.1291C88.1935 19.0021 88.2995 18.8697 88.4092 18.7392C88.4506 18.7606 88.4919 18.7803 88.5332 18.8018C88.4901 18.9932 88.4577 19.1881 88.402 19.3759C87.7243 21.6063 86.7211 23.6865 85.4627 25.645C84.51 27.126 83.4511 28.5319 82.3203 29.8841C82.2862 29.9234 82.2502 29.961 82.2143 30.0003C82.1873 29.986 82.1603 29.9735 82.1352 29.9592C82.3922 29.2384 82.6008 28.4943 82.9262 27.8057ZM80.9864 18.1132C81.0673 17.7697 81.1554 17.4228 81.4431 17.074C81.5311 17.3297 81.6138 17.5301 81.6678 17.7376C82.137 19.5333 82.3527 21.3559 82.2682 23.2107C82.1891 24.9439 81.8727 26.6413 81.4556 28.3226C81.3514 28.7465 81.2453 29.1722 81.141 29.5961C81.1195 29.5943 81.0997 29.5907 81.0781 29.5889C81.0709 29.5263 81.0601 29.4619 81.0565 29.3993C80.9469 26.6306 80.839 23.86 80.7276 21.0912C80.6898 20.0878 80.7563 19.0915 80.9864 18.1132ZM77.9717 39.285C79.5536 37.5268 81.1069 35.7418 82.7338 34.0265C83.5086 33.2091 84.4237 32.5223 85.2776 31.7782C85.3459 31.7192 85.434 31.6798 85.5131 31.6315C85.5293 31.6459 85.5454 31.6602 85.5616 31.6745C85.5005 31.7961 85.4412 31.9195 85.3765 32.0393C84.7455 33.193 83.9059 34.1875 82.9819 35.1158C81.8062 36.2945 80.5406 37.3766 79.2462 38.4229C78.7788 38.8021 78.315 39.1849 77.8009 39.5319C77.8566 39.4496 77.9051 39.3584 77.9717 39.285ZM75.9816 37.1298C76.3825 35.4055 76.7474 33.6724 77.1986 31.9606C77.4269 31.0967 77.8027 30.2704 78.1317 29.4333C78.2449 29.1436 78.4319 28.8896 78.7627 28.6571C78.7932 28.8878 78.8292 29.0506 78.8346 29.2133C78.8723 30.553 78.6818 31.8676 78.2773 33.1411C77.5366 35.4717 76.6377 37.7415 75.5178 39.9218C75.4548 40.0452 75.3811 40.165 75.311 40.2849C75.2913 40.2741 75.2715 40.2634 75.2517 40.2527C75.4944 39.2117 75.7389 38.1707 75.9816 37.1298ZM71.73 46.9224C73.2041 45.7849 74.6728 44.6384 76.1614 43.5205C77.1231 42.7979 78.1083 42.1075 79.0988 41.4224C79.4134 41.2042 79.7748 41.0504 80.1181 40.8769C80.2008 40.8358 80.3015 40.8304 80.4525 40.7964C80.3824 40.9073 80.3518 40.9681 80.3087 41.02C79.1689 42.433 77.871 43.6725 76.3375 44.6634C74.831 45.6382 73.2365 46.452 71.6185 47.2247C71.5574 47.2551 71.4909 47.2748 71.4262 47.2998C71.4118 47.2766 71.3956 47.2533 71.3812 47.2301C71.4981 47.1263 71.6077 47.0172 71.73 46.9224ZM69.7004 45.7598C70.0383 43.9193 70.3745 42.0771 70.7179 40.2384C70.9695 38.8898 71.214 37.5393 71.5035 36.1997C71.5952 35.7758 71.8217 35.3787 71.9853 34.9691C72.0068 34.9154 72.0302 34.8618 72.0518 34.8081C72.0859 34.8242 72.1201 34.8403 72.1542 34.8564C72.1722 34.9602 72.21 35.0639 72.2082 35.1676C72.1956 35.8813 72.219 36.5985 72.1524 37.3068C71.8792 40.2223 71.0181 42.9857 69.9107 45.6829C69.864 45.7974 69.7938 45.9029 69.7363 46.012C69.7201 46.0067 69.704 46.0013 69.6878 45.9959C69.6896 45.9172 69.686 45.8367 69.7004 45.7598Z" fill="black"/>
<path d="M66.7889 41.4157C68.5884 37.7509 69.4711 33.8517 69.7174 29.7987C69.8756 27.1891 69.7228 24.5938 69.2895 22.0164C68.743 18.7772 67.7705 15.6757 66.1992 12.7764C64.9031 10.3832 63.2672 8.26192 61.0883 6.58957C58.6974 4.75266 56.008 3.84225 52.9717 4.03006C51.3537 4.13022 49.8275 4.52729 48.4468 5.4055C47.352 6.10127 46.3489 6.91331 45.4195 7.81298C43.4276 9.73575 42.0002 12.0377 40.9288 14.5668C39.2803 18.4606 38.5971 22.5422 38.5684 26.8349C38.5953 30.9237 39.3 34.9749 40.8443 38.867C41.8923 41.5088 43.2946 43.9448 45.2361 46.0483C46.4136 47.3218 47.7421 48.4057 49.2899 49.207C51.6683 50.4411 54.1689 50.865 56.8098 50.2873C58.8484 49.8419 60.6227 48.8707 62.1975 47.5257C64.1822 45.8283 65.6491 43.7409 66.7889 41.4157ZM41.7162 15.7187C42.455 13.6904 43.4096 11.7676 44.7255 10.0488C46.1943 8.13136 48.0639 6.70046 50.3164 5.80973C51.9739 5.1551 53.6907 5.05314 55.4345 5.50924C57.7931 6.12453 59.8281 7.29249 61.6241 8.9255C63.1647 10.326 64.3746 11.9322 65.331 13.7047C65.8271 14.6222 66.255 15.5827 66.6253 16.5826C67.9035 20.04 68.5327 23.6136 68.5938 27.2928C68.6459 30.4014 68.3062 33.4618 67.4846 36.4631C66.6595 39.4715 65.4065 42.2796 63.4559 44.7497C62.3719 46.1234 61.1207 47.3164 59.5998 48.2035C56.5329 49.9904 53.3941 50.0923 50.2104 48.5309C48.6284 47.7546 47.2999 46.6457 46.126 45.3489C44.2635 43.2902 42.9368 40.9149 41.9409 38.3447C40.9413 35.7655 40.3229 33.0969 40.0605 30.3478C40.0299 30.0348 40.0047 29.72 39.9832 29.407C39.9184 28.4948 39.8771 27.5808 39.8196 26.6686C39.8591 22.9089 40.4272 19.253 41.7162 15.7187Z" fill="black"/>
<path d="M86.215 43.9571C88.0019 41.8071 89.7727 39.6465 91.3547 37.3374C92.0504 36.3197 92.827 35.3556 93.7474 34.5257C94.1591 34.1554 94.6283 33.8281 95.1173 33.5723C95.7249 33.254 96.3235 33.5455 96.4871 34.2109C96.5806 34.5936 96.6094 35.0014 96.6022 35.3967C96.5878 36.0997 96.3271 36.7328 95.9532 37.3249C95.2234 38.4785 94.3892 39.5517 93.4921 40.5784C91.7915 42.5208 90.2113 44.5598 88.6922 46.6471C88.0145 47.579 87.4752 48.5878 87.0761 49.6681C86.9718 49.9507 86.8604 50.2297 86.7471 50.507C86.0568 52.2026 85.2352 53.8159 83.842 55.068C83.7989 55.1055 83.7611 55.1502 83.7252 55.1949C83.6209 55.3255 83.5472 55.4775 83.6658 55.6242C83.7 55.6671 83.7413 55.6975 83.7863 55.719C83.8816 55.7637 83.9912 55.7619 84.0991 55.7136C84.2681 55.6385 84.4406 55.558 84.5917 55.4525C85.4492 54.8497 86.1862 54.1325 86.6482 53.181C87.1282 52.1901 87.6064 51.1956 88.0343 50.1814C88.4478 49.2013 88.89 48.239 89.5246 47.384C90.8801 45.5525 92.2517 43.7335 93.627 41.918C94.0872 41.3099 94.56 40.7071 95.0274 40.1044C95.3851 39.6447 95.7411 39.1832 96.0899 38.7164C96.4224 38.271 96.7226 37.7917 96.9743 37.2944C97.5226 36.2123 97.715 35.0766 97.368 33.8853C97.1775 33.2307 96.7622 32.7925 96.1096 32.5832C95.5775 32.4115 95.058 32.4634 94.56 32.7066C93.9596 32.9982 93.4292 33.3845 92.9564 33.8531C91.9659 34.8351 91.0419 35.8797 90.2419 37.0154C88.7696 39.1027 87.139 41.0649 85.5211 43.0377C82.722 46.4504 79.3729 49.2013 75.4772 51.2904C73.9186 52.1257 72.4229 53.0611 70.956 54.0431C68.6226 55.6063 66.7242 57.6078 65.1296 59.8919C63.9017 61.6501 63.1611 63.6283 62.6308 65.6977C61.6888 69.3823 61.4892 73.0919 62.1382 76.8426C62.6182 79.6221 63.3606 82.3408 64.042 85.072C65.0541 89.1232 66.1687 93.1494 67.2059 97.1935C67.8603 99.7441 68.3906 102.321 68.752 104.931C68.8796 105.85 69.0684 106.761 69.241 107.675C69.2751 107.854 69.338 108.04 69.4351 108.192C69.6077 108.467 69.987 108.498 70.165 108.251C70.2495 108.133 70.2962 107.959 70.2908 107.813C70.2872 107.691 70.2836 107.567 70.28 107.446C70.2567 106.682 70.2387 105.917 70.156 105.158C69.8306 102.211 69.2733 99.3023 68.4967 96.4405C67.4792 92.6862 66.3269 88.9694 65.0793 85.2831C64.2559 82.8541 63.6788 80.3608 63.2042 77.8442C62.8735 76.086 62.6631 74.3099 62.6613 72.9094C62.6811 70.4769 62.94 68.4683 63.4218 66.4847C63.846 64.739 64.3925 63.0416 65.3183 61.4873C66.7943 59.0119 68.7736 56.9979 71.1196 55.3362C72.3582 54.4598 73.649 53.6621 74.9685 52.9109C75.3101 52.7177 75.6516 52.5263 75.995 52.3385C79.9284 50.185 83.3476 47.4037 86.215 43.9571Z" fill="black"/>
<path d="M102.805 12.2168C102.374 12.7087 102.581 13.7013 102.528 14.3256C102.466 15.1108 102.408 15.896 102.37 16.6812C102.266 18.824 102.225 20.9703 102.102 23.1113C101.984 25.1718 101.662 27.2072 101.099 29.1961C100.445 31.5124 99.5748 33.7535 98.5537 35.9339C97.6675 37.8244 97.2126 39.8205 97.0077 41.8846C96.8962 43.0079 96.8118 44.1365 96.6589 45.2544C96.4918 46.4796 96.1646 47.6654 95.5228 48.7404C94.9044 49.7742 94.2374 50.7776 93.4303 51.6755C91.6649 53.6358 89.9283 55.6212 88.0569 57.4849C86.1657 59.3683 84.3266 61.2983 82.653 63.3802C81.7164 64.5464 80.8876 65.777 80.1757 67.0916C77.7111 71.6383 77.4072 76.3978 78.7304 81.3218C78.7699 81.4703 78.831 81.6366 78.9353 81.7368C79.036 81.8334 79.2229 81.9192 79.3434 81.8924C79.4638 81.8656 79.5609 81.6974 79.6472 81.5758C79.6831 81.5257 79.6742 81.4363 79.6706 81.3665C79.6292 80.3953 79.6562 79.4152 79.5285 78.4547C79.2445 76.328 79.3524 74.2318 79.8036 72.1444C80.3771 69.4812 81.5779 67.1077 83.1869 64.9292C84.4399 63.2318 85.808 61.6309 87.2803 60.116C89.5706 57.7604 91.771 55.3243 93.8851 52.8113C94.8109 51.7113 95.6325 50.5415 96.3408 49.2913C96.7111 48.6402 96.9861 47.9516 97.1911 47.2326C97.592 45.8214 97.7663 44.3744 97.8724 42.9166C98.045 40.5431 98.5412 38.2555 99.5676 36.0859C100.61 33.8823 101.43 31.5893 102.014 29.2248C102.728 26.3361 102.987 23.3885 103.032 20.4194C103.053 19.0028 103.061 17.5862 103.052 16.1714C103.046 14.9444 103.318 13.3758 102.805 12.2168Z" fill="black"/>
<path d="M95.749 28.04C95.8156 28.0776 95.9612 28.0633 96.0187 28.0132C96.1338 27.9113 96.238 27.7825 96.3027 27.643C96.5814 27.0474 96.8816 26.4589 97.1027 25.8418C97.234 25.4734 97.3508 25.1013 97.4569 24.7275C97.838 23.3825 98.0645 22.0035 98.2245 20.6101C98.3881 19.1756 98.5571 17.7394 98.7476 16.3085C98.8519 15.5269 99.0551 14.7649 99.438 14.0638C99.6986 13.5862 100.096 13.3591 100.416 12.9727C100.513 12.8565 100.599 12.7813 100.598 12.6651C100.598 12.6597 100.594 12.6508 100.594 12.6454C100.592 12.6221 100.589 12.5989 100.58 12.5703C99.8191 12.463 99.1396 13.1158 98.771 13.6721C98.4366 14.1782 98.2065 14.7327 98.0465 15.314C97.7212 16.4909 97.5773 17.6965 97.4443 18.9074C97.3005 20.2291 97.1621 21.5545 96.9679 22.8691C96.7378 24.4145 96.2848 25.908 95.7742 27.3854C95.7275 27.5213 95.6663 27.6555 95.6502 27.795C95.643 27.8755 95.6879 28.0043 95.749 28.04Z" fill="black"/>
<path d="M38.5079 96.2581C39.5254 92.5038 40.6778 88.787 41.9254 85.1007C42.7487 82.6718 43.3258 80.1784 43.8004 77.6618C44.1312 75.9036 44.3415 74.1275 44.3433 72.727C44.3235 70.2945 44.0647 68.2859 43.5829 66.3023C43.1586 64.5566 42.6121 62.8592 41.6863 61.3049C40.2103 58.8295 38.2311 56.8155 35.885 55.1539C34.6464 54.2775 33.3557 53.4797 32.0361 52.7285C32.2123 53.2687 32.7822 53.6997 33.2784 54.0557C34.3264 54.8069 35.2648 55.6976 36.1673 56.617C37.9884 58.4718 39.6962 60.4875 40.7928 62.8396C43.7716 69.2357 42.0908 76.7979 40.0198 83.1815C37.5641 90.7563 35.8347 99.0859 36.2446 107.061C36.25 107.167 36.0864 107.977 36.4423 107.752C36.5592 107.677 36.6581 107.457 36.7246 107.262C36.7479 106.498 36.7659 105.732 36.8486 104.974C37.174 102.03 37.7331 99.1199 38.5079 96.2581Z" fill="#F29FA4"/>
<path d="M22.9009 55.5311C22.732 55.456 22.5594 55.3755 22.4084 55.27C21.5509 54.6672 20.8138 53.95 20.3518 52.9985C19.8718 52.0076 19.3936 51.0131 18.9658 49.999C18.5523 49.0188 18.11 48.0565 17.4754 47.2016C16.12 45.37 14.7483 43.551 13.3731 41.7355C12.9128 41.1274 12.44 40.5246 11.9726 39.9219C11.8342 41.0827 13.285 42.6495 13.7955 43.492C14.6045 44.8281 15.3002 46.2303 15.9726 47.638C16.8211 49.4141 17.6283 51.2134 18.5774 52.9394C19.3505 54.3435 20.3428 56.556 22.1405 56.8833C22.6097 56.9692 23.1724 56.7546 23.3072 56.2985C23.3791 56.057 23.3252 55.7941 23.212 55.5365C23.1203 55.5812 23.0088 55.5794 22.9009 55.5311Z" fill="#F29FA4"/>
<path d="M5.93969 13.7383C6.35136 14.0638 6.58866 14.5235 6.75046 15.0118C7.07584 16.0009 7.02731 17.0598 7.17292 18.0793C7.38865 19.5924 7.77695 21.1664 8.27492 22.6528C8.42773 23.1142 8.49065 23.6168 8.69918 24.0604C8.79446 24.2625 9.21692 24.7651 9.48838 24.6077C9.50995 24.5952 9.52793 24.5737 9.54411 24.5487C9.16299 23.2037 8.93648 21.8246 8.77648 20.4313C8.61289 18.9968 8.4439 17.5606 8.25335 16.1297C8.14908 15.3481 7.94594 14.5861 7.56302 13.885C7.30236 13.4074 6.90506 13.1802 6.58507 12.7939C6.48799 12.6776 6.4017 12.6025 6.4035 12.4863C6.4035 12.4809 6.40709 12.472 6.40709 12.4666C5.84621 12.2877 5.31408 12.3217 5.11094 12.8529C4.91139 13.3609 5.64846 13.5094 5.93969 13.7383Z" fill="#F29FA4"/>
<path d="M41.8755 59.7089C40.2809 57.4249 38.3825 55.4234 36.0491 53.8601C34.5821 52.8782 33.0864 51.9427 31.5278 51.1075C27.6322 49.0184 24.283 46.2675 21.484 42.8548C19.866 40.8819 18.2355 38.9216 16.7632 36.8325C15.9614 35.6967 15.0392 34.6522 14.0486 33.6702C13.5758 33.2016 13.0455 32.8135 12.4451 32.5237C11.9471 32.2823 11.4276 32.2304 10.8954 32.4003C10.2429 32.6096 9.8276 33.0478 9.63704 33.7024C9.29008 34.8936 9.48423 36.0312 10.0307 37.1115C10.2824 37.607 10.5826 38.0863 10.9152 38.5335C11.264 39.0003 11.6199 39.4618 11.9777 39.9214C12.4469 40.5242 12.9179 41.1252 13.3781 41.7351C14.7533 43.5523 16.125 45.3714 17.4805 47.2011C18.1151 48.0579 18.5573 49.0184 18.9708 49.9985C19.3986 51.0127 19.875 52.0071 20.3568 52.998C20.8188 53.9496 21.5559 54.6686 22.4134 55.2696C22.5644 55.3751 22.7352 55.4556 22.906 55.5307C23.0138 55.579 23.1253 55.5808 23.2188 55.5361C23.2637 55.5146 23.3033 55.4842 23.3392 55.4413C23.4579 55.2946 23.3842 55.1444 23.2799 55.012C23.2439 54.9673 23.2062 54.9244 23.1631 54.885C21.7698 53.633 20.9483 52.0197 20.2579 50.324C20.1447 50.045 20.0332 49.766 19.929 49.4852C19.5299 48.4049 18.9906 47.3961 18.3128 46.4642C16.7937 44.3787 15.2154 42.3397 13.5129 40.3954C12.6141 39.3688 11.7799 38.2956 11.0518 37.1419C10.6779 36.5499 10.4155 35.9167 10.4029 35.2138C10.3957 34.8185 10.4244 34.4107 10.5179 34.0279C10.6797 33.3644 11.2784 33.071 11.8878 33.3894C12.3786 33.6452 12.8478 33.9725 13.2576 34.3427C14.1781 35.1709 14.9547 36.1367 15.6504 37.1545C17.2324 39.4636 19.0031 41.626 20.7901 43.7741C23.6574 47.2208 27.0767 50.0021 31.0155 52.1538C31.3588 52.3416 31.7022 52.533 32.042 52.7262C33.3615 53.4774 34.6523 54.2733 35.8909 55.1515C38.2369 56.8131 40.2162 58.8271 41.6921 61.3026C42.6179 62.8551 43.1644 64.5543 43.5887 66.3C44.0705 68.2836 44.3312 70.2922 44.3491 72.7247C44.3473 74.1252 44.137 75.9013 43.8062 77.6595C43.3316 80.1761 42.7528 82.6694 41.9312 85.0983C40.6818 88.7847 39.5313 92.5014 38.5137 96.2557C37.7389 99.1175 37.1816 102.026 36.8545 104.973C36.77 105.732 36.7538 106.497 36.7304 107.261C36.7268 107.383 36.7232 107.506 36.7196 107.628C36.7142 107.774 36.761 107.948 36.8455 108.066C37.0234 108.313 37.4028 108.281 37.5753 108.007C37.6724 107.853 37.7353 107.669 37.7695 107.49C37.9421 106.578 38.1308 105.666 38.2585 104.746C38.6198 102.135 39.1501 99.5575 39.8045 97.0087C40.8436 92.9647 41.9582 88.9385 42.9685 84.8873C43.6498 82.1561 44.3923 79.4356 44.8723 76.6579C45.5212 72.9053 45.3217 69.1975 44.3797 65.513C43.844 63.4453 43.1015 61.4671 41.8755 59.7089Z" fill="black"/>
<path d="M24.3461 63.2064C22.6724 61.1244 20.8333 59.1927 18.9421 57.3111C17.0707 55.4474 15.3341 53.462 13.5688 51.5017C12.7598 50.6038 12.0928 49.6004 11.4762 48.5665C10.8326 47.4898 10.5072 46.3039 10.3401 45.0805C10.1873 43.9626 10.1028 42.834 9.9913 41.7108C9.78636 39.6467 9.33154 37.6506 8.44527 35.76C7.42416 33.5797 6.55407 31.3386 5.8997 29.0223C5.33702 27.0334 5.01523 24.9979 4.89658 22.9374C4.77433 20.7965 4.73298 18.6501 4.62872 16.5074C4.59096 15.7204 4.53344 14.9352 4.47052 14.1517C4.42018 13.5275 4.62512 12.5348 4.19367 12.043C3.68132 13.202 3.95278 14.7706 3.94379 16.0065C3.9348 17.4231 3.94019 18.8397 3.96356 20.2545C4.0103 23.2218 4.26917 26.1695 4.98107 29.0599C5.56533 31.4262 6.38508 33.7174 7.42776 35.921C8.45425 38.0906 8.95222 40.3765 9.123 42.7517C9.22907 44.2095 9.40345 45.6547 9.80434 47.0677C10.0075 47.7867 10.2843 48.4753 10.6547 49.1264C11.3648 50.3748 12.1845 51.5446 13.1103 52.6464C15.2262 55.1594 17.4249 57.5955 19.7151 59.9511C21.1875 61.4643 22.5555 63.0669 23.8085 64.7643C25.4175 66.9428 26.6184 69.3163 27.1918 71.9795C27.6413 74.0687 27.7491 76.1649 27.4669 78.2898C27.3393 79.2503 27.3662 80.2304 27.3249 81.2017C27.3213 81.2732 27.3123 81.3609 27.3482 81.4109C27.4345 81.5326 27.5316 81.6989 27.6521 81.7275C27.7743 81.7543 27.9595 81.6685 28.0601 81.5719C28.1662 81.47 28.2255 81.3054 28.2651 81.1569C29.5882 76.2329 29.2844 71.4716 26.8197 66.9267C26.1114 65.6031 25.2827 64.3708 24.3461 63.2064Z" fill="black"/>
<path d="M6.58052 12.7952C6.90231 13.1815 7.29781 13.4087 7.55848 13.8862C7.94139 14.5874 8.14453 15.3493 8.2488 16.1309C8.43936 17.5618 8.60834 18.9981 8.77194 20.4326C8.93193 21.8259 9.15845 23.2049 9.53956 24.5499C9.64563 24.9238 9.76068 25.2958 9.89371 25.6643C10.1148 26.2813 10.4168 26.8698 10.6937 27.4654C10.7584 27.6049 10.8627 27.7337 10.9777 27.8356C11.0353 27.8857 11.1809 27.9 11.2474 27.8625C11.3103 27.8267 11.3553 27.6961 11.3463 27.6156C11.3301 27.4761 11.269 27.342 11.2222 27.206C10.7117 25.7304 10.2586 24.2369 10.0285 22.6898C9.83259 21.3752 9.69596 20.0498 9.55214 18.728C9.42091 17.5189 9.27709 16.3116 8.94991 15.1347C8.78812 14.5516 8.55981 13.9989 8.22543 13.4927C7.8569 12.9365 7.17736 12.2818 6.41693 12.3909C6.40614 12.4178 6.40435 12.4428 6.40255 12.4661C6.40255 12.4732 6.39895 12.4804 6.39895 12.4857C6.39716 12.602 6.48345 12.6771 6.58052 12.7952Z" fill="black"/>
</svg>
