<svg width="414" height="173" viewBox="0 0 414 173" fill="none" xmlns="http://www.w3.org/2000/svg">
<g clip-path="url(#clip0)">
<path d="M27.4936 102.55C-38.509 100.777 -60.3051 78.6574 -62.9528 67.819L-54.7284 -22.7428L614.211 -31.9006C608.718 4.97927 487.019 236.221 342.967 157.321C222.988 91.6062 109.997 104.765 27.4936 102.55Z" fill="#F9FDFB"/>
<g clip-path="url(#clip1)">
<path fill-rule="evenodd" clip-rule="evenodd" d="M447.586 218.529C448.539 217.505 449.473 216.444 450.462 215.438C452.673 213.209 454.919 210.998 457.112 208.769C457.777 208.086 458.514 207.673 459.449 207.421C466.297 205.624 473.128 203.772 479.958 201.921C480.605 201.741 481.234 201.561 482.025 201.328C481.809 200.501 481.648 199.782 481.45 199.081C479.634 192.305 477.837 185.51 476.004 178.752C475.752 177.817 475.734 176.99 476.004 176.056C477.945 168.92 479.832 161.784 481.738 154.648C481.809 154.36 481.881 154.055 482.007 153.533C481.45 153.336 480.893 153.12 480.335 152.976C473.505 151.143 466.657 149.291 459.827 147.476C458.658 147.17 457.724 146.649 456.861 145.768C451.972 140.807 447.029 135.9 442.104 130.993C441.636 130.526 441.133 130.095 440.558 129.537C439.983 130.077 439.479 130.508 439.012 130.993C434.087 135.918 429.144 140.825 424.255 145.768C423.392 146.631 422.457 147.17 421.289 147.476C414.495 149.273 407.718 151.089 400.942 152.922C400.367 153.084 399.792 153.264 399.108 153.48C399.306 154.306 399.468 155.025 399.648 155.726C401.445 162.503 403.243 169.297 405.094 176.056C405.346 176.99 405.346 177.835 405.094 178.752C403.243 185.528 401.445 192.305 399.648 199.081C399.45 199.782 399.288 200.483 399.073 201.31C400.277 201.651 401.337 201.975 402.398 202.262C408.815 203.988 415.232 205.696 421.649 207.457C422.332 207.637 423.087 207.924 423.59 208.41C426.843 211.591 430.061 214.845 433.278 218.062C433.404 218.188 433.458 218.368 433.548 218.529C432.811 218.529 432.074 218.529 431.337 218.529C428.515 215.689 425.711 212.813 422.853 210.027C422.278 209.47 421.415 209.111 420.606 208.895C413.362 206.918 406.101 204.977 398.857 203.017C398.282 202.856 397.706 202.658 397.023 202.46C398.084 198.524 399.091 194.713 400.097 190.921C401.176 186.876 402.236 182.814 403.35 178.788C403.62 177.799 403.602 176.9 403.333 175.894C401.355 168.65 399.432 161.388 397.491 154.127C397.329 153.551 397.221 152.958 397.059 152.203C397.778 151.988 398.407 151.808 399.055 151.628C406.244 149.705 413.434 147.746 420.642 145.858C421.703 145.571 422.529 145.085 423.284 144.313C428.497 139.064 433.727 133.851 438.94 128.603C439.407 128.135 439.749 127.524 440.252 126.823C441.061 127.578 441.546 128.01 441.996 128.477C447.136 133.618 452.295 138.74 457.4 143.917C458.478 145.014 459.683 145.661 461.157 146.056C468.185 147.889 475.195 149.777 482.223 151.664C482.798 151.826 483.373 152.024 484.074 152.239C483.769 153.408 483.517 154.486 483.229 155.529C481.414 162.305 479.617 169.099 477.765 175.858C477.496 176.846 477.478 177.745 477.747 178.752C479.724 185.995 481.648 193.257 483.589 200.519C483.751 201.112 483.876 201.705 484.038 202.442C483.409 202.64 482.852 202.838 482.259 202.999C474.997 204.959 467.753 206.918 460.492 208.841C459.449 209.111 458.586 209.56 457.831 210.351C455.171 213.101 452.457 215.779 449.761 218.493C449.06 218.529 448.323 218.529 447.586 218.529Z" fill="#BFE8D7"/>
<path fill-rule="evenodd" clip-rule="evenodd" d="M244.221 0.731669C244.67 0.983317 245.192 1.16305 245.551 1.50456C247.241 3.12227 248.877 4.81188 250.53 6.44756C250.962 6.87895 251.411 7.27439 251.95 7.79565C252.489 7.29236 252.993 6.86098 253.46 6.39364C258.385 1.46862 263.328 -3.42046 268.217 -8.38144C269.116 -9.29814 270.104 -9.83735 271.345 -10.1609C278.013 -11.9044 284.664 -13.7199 291.314 -15.4993C291.962 -15.6791 292.609 -15.8768 293.435 -16.1285C293.256 -16.9014 293.094 -17.6024 292.914 -18.2854C291.099 -25.1157 289.265 -31.964 287.414 -38.7943C287.18 -39.6571 287.18 -40.448 287.414 -41.3108C289.283 -48.1411 291.081 -54.9714 292.914 -61.8197C293.094 -62.4668 293.238 -63.1139 293.435 -63.9227C292.878 -64.1205 292.375 -64.3182 291.854 -64.462C285.023 -66.2954 278.193 -68.1468 271.345 -69.9442C270.104 -70.2678 269.116 -70.825 268.217 -71.7417C263.364 -76.6487 258.475 -81.5019 253.604 -86.4089C253.136 -86.8762 252.813 -87.5233 252.382 -88.1345C251.627 -87.5233 251.231 -87.2537 250.908 -86.9302C249.164 -85.2046 247.439 -83.4431 245.677 -81.7175C245.246 -81.3041 244.706 -80.9986 244.221 -80.6391C244.221 -81.5019 244.221 -82.3646 244.221 -83.2274C244.706 -83.533 245.282 -83.7487 245.695 -84.1441C247.331 -85.7259 248.93 -87.3615 250.548 -88.9613C250.98 -89.3927 251.429 -89.8061 251.968 -90.3094C252.507 -89.8061 253.011 -89.3747 253.46 -88.9074C258.745 -83.6408 264.011 -78.3743 269.26 -73.0898C270.033 -72.3169 270.859 -71.8315 271.92 -71.5619C279.128 -69.6746 286.317 -67.7333 293.507 -65.7921C294.154 -65.6303 294.784 -65.4326 295.538 -65.2169C294.981 -63.0779 294.478 -61.1367 293.957 -59.1775C292.375 -53.2818 290.829 -47.4041 289.211 -41.5265C288.942 -40.5379 288.942 -39.6392 289.211 -38.6326C291.189 -31.3888 293.112 -24.1271 295.035 -16.8654C295.197 -16.2723 295.323 -15.6791 295.485 -14.9601C294.855 -14.7624 294.28 -14.5647 293.705 -14.4029C286.461 -12.4437 279.2 -10.4844 271.938 -8.56116C270.895 -8.27357 270.051 -7.80625 269.278 -7.03334C264.083 -1.78478 258.834 3.42785 253.622 8.67642C253.154 9.16173 252.813 9.77287 252.364 10.402C251.645 9.8268 251.249 9.55716 250.908 9.23362C249.164 7.50807 247.439 5.74657 245.659 4.02101C245.228 3.6076 244.688 3.32002 244.203 2.96052C244.221 2.22357 244.221 1.4866 244.221 0.731669Z" fill="#BFE8D7"/>
<path fill-rule="evenodd" clip-rule="evenodd" d="M244.221 109.46C244.67 109.711 245.192 109.891 245.551 110.233C247.241 111.85 248.877 113.522 250.53 115.176C250.962 115.607 251.411 116.003 251.95 116.524C252.489 116.02 252.993 115.589 253.46 115.122C258.349 110.251 263.238 105.398 268.073 100.473C269.062 99.4659 270.158 98.8548 271.506 98.4953C278.121 96.7697 284.7 94.9723 291.296 93.2108C291.944 93.031 292.573 92.8333 293.417 92.5817C293.238 91.8088 293.076 91.1078 292.896 90.4247C291.081 83.6483 289.283 76.8719 287.432 70.0955C287.162 69.1069 287.162 68.2082 287.432 67.2196C289.265 60.5151 291.045 53.7926 292.842 47.0701C293.04 46.3691 293.22 45.6501 293.435 44.8053C292.842 44.6076 292.357 44.4099 291.836 44.2661C285.005 42.4327 278.175 40.5813 271.327 38.7838C270.086 38.4603 269.098 37.9031 268.199 36.9864C263.346 32.0793 258.457 27.2262 253.586 22.3371C253.119 21.8698 252.795 21.2227 252.364 20.6116C251.609 21.2227 251.213 21.4923 250.89 21.8159C249.146 23.5414 247.421 25.3029 245.659 27.0285C245.228 27.4419 244.688 27.7475 244.203 28.107C244.203 27.2442 244.203 26.3814 244.203 25.5186C244.652 25.267 245.174 25.0872 245.551 24.7277C247.241 23.11 248.877 21.4384 250.53 19.7847C250.962 19.3533 251.411 18.9579 251.95 18.4366C252.489 18.9399 252.993 19.3713 253.46 19.8387C258.745 25.1052 264.011 30.3718 269.26 35.6563C270.033 36.4292 270.859 36.9145 271.92 37.1841C279.128 39.0714 286.317 41.0127 293.507 42.954C294.154 43.1157 294.784 43.3134 295.538 43.5471C294.981 45.6861 294.478 47.6273 293.957 49.5865C292.375 55.4822 290.829 61.3599 289.211 67.2376C288.942 68.2262 288.942 69.1249 289.211 70.1315C291.189 77.3752 293.112 84.6369 295.035 91.8986C295.197 92.4918 295.305 93.085 295.485 93.8039C294.837 94.0017 294.28 94.1994 293.705 94.3611C286.443 96.3204 279.2 98.2616 271.938 100.203C270.895 100.472 270.051 100.958 269.278 101.731C264.083 106.979 258.834 112.192 253.622 117.44C253.136 117.908 252.813 118.537 252.364 119.166C251.645 118.591 251.249 118.321 250.926 117.998C249.182 116.272 247.457 114.511 245.677 112.785C245.246 112.372 244.706 112.066 244.221 111.725C244.221 110.934 244.221 110.197 244.221 109.46Z" fill="#BFE8D7"/>
<path fill-rule="evenodd" clip-rule="evenodd" d="M259.015 218.529C259.321 218.152 259.59 217.738 259.932 217.397C262.79 214.521 265.684 211.663 268.541 208.769C269.207 208.086 269.943 207.655 270.878 207.403C277.708 205.605 284.539 203.754 291.369 201.921C292.016 201.741 292.645 201.543 293.454 201.31C293.274 200.573 293.131 199.926 292.951 199.278C291.189 192.682 289.446 186.085 287.612 179.506C287.199 178.015 287.235 176.667 287.63 175.193C289.446 168.614 291.189 162.017 292.951 155.421C293.113 154.827 293.221 154.234 293.382 153.533C292.879 153.354 292.448 153.138 291.98 153.012C285.096 151.161 278.194 149.291 271.292 147.476C270.051 147.152 269.081 146.595 268.164 145.678C263.329 140.771 258.422 135.918 253.569 131.029C253.101 130.562 252.778 129.915 252.346 129.304C251.591 129.915 251.196 130.184 250.855 130.508C249.111 132.233 247.367 133.995 245.624 135.72C245.193 136.134 244.653 136.439 244.168 136.799C244.168 135.936 244.168 135.073 244.168 134.211C244.653 133.905 245.228 133.689 245.642 133.294C247.278 131.712 248.877 130.076 250.495 128.477C250.926 128.045 251.376 127.632 251.915 127.129C252.454 127.632 252.958 128.063 253.407 128.531C258.691 133.797 263.958 139.064 269.207 144.348C269.979 145.121 270.806 145.606 271.867 145.876C279.075 147.763 286.264 149.705 293.454 151.646C294.101 151.826 294.73 152.005 295.449 152.221C295.27 152.976 295.144 153.569 295 154.162C293.077 161.424 291.135 168.668 289.176 175.93C288.907 176.918 288.907 177.817 289.176 178.823C291.153 186.067 293.077 193.329 295 200.591C295.162 201.184 295.288 201.777 295.449 202.496C294.82 202.694 294.245 202.891 293.67 203.053C286.408 205.012 279.164 206.972 271.903 208.895C270.86 209.164 269.997 209.632 269.242 210.405C266.582 213.155 263.868 215.833 261.19 218.547C260.489 218.529 259.752 218.529 259.015 218.529Z" fill="#BFE8D7"/>
<path fill-rule="evenodd" clip-rule="evenodd" d="M244.223 203.377C244.762 203.736 245.373 204.024 245.822 204.455C247.854 206.414 249.831 208.428 251.898 210.513C252.401 210.063 252.832 209.74 253.21 209.362C256.481 206.109 259.753 202.855 263.006 199.566C263.761 198.793 264.606 198.29 265.648 198.02C269.998 196.888 274.33 195.72 278.662 194.551C279.255 194.389 279.83 194.21 280.603 193.976C280.477 193.329 280.405 192.754 280.244 192.179C279.057 187.721 277.889 183.245 276.667 178.805C276.379 177.817 276.397 176.9 276.685 175.912C277.889 171.526 279.039 167.122 280.208 162.718C280.369 162.143 280.477 161.55 280.639 160.867C280.154 160.687 279.758 160.525 279.363 160.418C274.851 159.195 270.34 157.955 265.81 156.787C264.624 156.481 263.707 155.924 262.862 155.061C259.807 151.934 256.697 148.86 253.605 145.786C253.138 145.319 252.653 144.852 252.096 144.312C251.646 144.672 251.251 144.941 250.909 145.283C249.202 146.973 247.53 148.68 245.804 150.37C245.337 150.837 244.762 151.197 244.241 151.61C244.241 150.747 244.241 149.884 244.241 149.022C244.726 148.698 245.283 148.446 245.715 148.033C247.35 146.451 248.95 144.816 250.568 143.216C250.999 142.785 251.448 142.389 251.988 141.868C252.491 142.317 252.958 142.713 253.372 143.126C256.859 146.613 260.364 150.064 263.797 153.587C264.66 154.468 265.612 154.989 266.763 155.277C271.472 156.499 276.163 157.775 280.855 159.033C281.448 159.195 282.023 159.393 282.742 159.609C282.616 160.202 282.526 160.723 282.383 161.244C281.088 166.115 279.812 171.005 278.464 175.876C278.177 176.936 278.195 177.889 278.482 178.949C279.812 183.82 281.106 188.691 282.401 193.581C282.526 194.048 282.616 194.533 282.742 195.108C282.221 195.306 281.789 195.504 281.34 195.63C276.415 196.96 271.49 198.308 266.547 199.602C265.487 199.872 264.66 200.375 263.905 201.148C260.454 204.653 256.949 208.122 253.462 211.609C253.03 212.04 252.581 212.454 251.988 213.011C250.46 211.501 249.022 210.009 247.53 208.571C246.469 207.547 245.355 206.612 244.259 205.624C244.223 204.851 244.223 204.114 244.223 203.377Z" fill="#BFE8D7"/>
<path fill-rule="evenodd" clip-rule="evenodd" d="M244.223 94.6666C244.762 95.0261 245.373 95.3137 245.822 95.7451C247.854 97.7043 249.831 99.7175 251.898 101.803C252.401 101.353 252.832 101.03 253.21 100.652C256.481 97.3987 259.753 94.1454 262.988 90.8381C263.761 90.0651 264.588 89.5619 265.63 89.2922C269.98 88.1598 274.312 86.9735 278.644 85.8231C279.237 85.6614 279.812 85.4816 280.585 85.2659C280.459 84.6188 280.387 84.0437 280.226 83.4685C279.039 79.0108 277.871 74.5351 276.649 70.0954C276.361 69.1068 276.397 68.1901 276.667 67.2015C277.871 62.8157 279.021 58.412 280.19 54.0082C280.351 53.433 280.459 52.8399 280.621 52.1568C280.136 51.9771 279.74 51.8153 279.345 51.7075C274.833 50.4852 270.322 49.2449 265.792 48.0766C264.606 47.771 263.689 47.2138 262.844 46.3511C259.789 43.2235 256.679 40.1498 253.587 37.0762C253.12 36.6088 252.635 36.1415 252.078 35.6023C251.628 35.9617 251.233 36.2314 250.891 36.5729C249.184 38.2625 247.512 39.9701 245.786 41.6597C245.319 42.127 244.744 42.4865 244.223 42.8999C244.223 42.0371 244.223 41.1744 244.223 40.3116C244.708 39.9881 245.265 39.7184 245.697 39.323C247.332 37.7412 248.932 36.1055 250.55 34.5058C250.981 34.0744 251.43 33.679 251.97 33.1577C252.473 33.6071 252.94 33.9846 253.354 34.416C256.841 37.903 260.346 41.3541 263.779 44.8771C264.642 45.7579 265.594 46.2791 266.745 46.5667C271.454 47.789 276.145 49.0652 280.837 50.3234C281.412 50.4852 282.005 50.6829 282.742 50.9166C282.58 51.5637 282.455 52.1568 282.311 52.732C281.035 57.5492 279.758 62.3664 278.446 67.1835C278.159 68.244 278.177 69.1967 278.464 70.2572C279.794 75.1283 281.088 79.9994 282.383 84.8885C282.508 85.3558 282.598 85.8231 282.724 86.4163C282.203 86.596 281.771 86.8117 281.322 86.9376C276.397 88.2677 271.472 89.6158 266.529 90.9099C265.469 91.1796 264.642 91.6828 263.887 92.4558C260.436 95.9608 256.931 99.4299 253.444 102.917C253.012 103.348 252.563 103.762 251.97 104.319C250.442 102.809 249.004 101.317 247.512 99.8792C246.452 98.8547 245.337 97.92 244.241 96.9314C244.223 96.1405 244.223 95.4036 244.223 94.6666Z" fill="#BFE8D7"/>
<path fill-rule="evenodd" clip-rule="evenodd" d="M244.221 80.97C244.958 81.6171 245.749 82.2102 246.432 82.8933C248.229 84.6548 249.973 86.4702 251.842 88.3396C252.328 87.9441 252.723 87.6745 253.047 87.351C254.754 85.6614 256.462 83.9717 258.133 82.2462C258.834 81.5092 259.625 81.0419 260.632 80.7903C263.364 80.1072 266.096 79.3343 268.918 78.5614C268.846 78.0581 268.828 77.6447 268.72 77.2673C268.145 75.0564 267.606 72.8455 266.959 70.6706C266.545 69.3225 266.527 68.0823 266.941 66.7162C267.714 64.1818 268.325 61.6114 269.044 58.9332C268.541 58.7355 268.109 58.5198 267.66 58.394C265.413 57.7649 263.166 57.1178 260.883 56.5786C259.679 56.3089 258.763 55.7338 257.936 54.853C256.066 52.8938 254.161 50.9885 252.166 48.9574C251.663 49.3528 251.267 49.6224 250.944 49.946C249.2 51.6715 247.474 53.433 245.695 55.1586C245.282 55.572 244.724 55.8416 244.221 56.1831C244.221 55.4462 244.221 54.7092 244.221 53.9723C244.958 53.3252 245.731 52.732 246.432 52.049C248.229 50.2875 249.991 48.4721 251.86 46.6027C252.292 46.9622 252.687 47.2318 253.011 47.5554C254.97 49.4966 256.965 51.4378 258.87 53.433C259.661 54.2598 260.56 54.7811 261.674 55.0687C264.478 55.7697 267.264 56.5426 270.051 57.2976C270.338 57.3695 270.626 57.4953 271.039 57.6391C270.913 58.2682 270.805 58.8613 270.662 59.4185C270.051 61.7372 269.511 64.0739 268.774 66.3567C268.289 67.8845 268.289 69.3225 268.756 70.8503C269.457 73.1331 270.033 75.4698 270.644 77.7885C270.805 78.3637 270.913 78.9569 271.075 79.7298C269.529 80.1432 268.055 80.5386 266.581 80.952C264.442 81.5452 262.106 81.7609 260.254 82.8393C258.349 83.9538 256.911 85.895 255.293 87.4948C254.251 88.5373 253.244 89.5978 252.13 90.7482C251.627 90.3527 251.249 90.0831 250.908 89.7416C249.164 88.016 247.439 86.2545 245.677 84.529C245.264 84.1335 244.706 83.8639 244.203 83.5404C244.221 82.6956 244.221 81.8328 244.221 80.97Z" fill="#BFE8D7"/>
<path fill-rule="evenodd" clip-rule="evenodd" d="M244.223 189.68C244.96 190.309 245.751 190.92 246.434 191.603C248.231 193.365 249.975 195.18 251.862 197.068C252.383 196.618 252.797 196.295 253.174 195.917C254.882 194.228 256.535 192.484 258.297 190.848C258.89 190.291 259.681 189.824 260.472 189.59C263.24 188.763 266.026 188.044 268.938 187.253C268.866 186.75 268.848 186.355 268.74 185.959C268.165 183.748 267.626 181.538 266.978 179.363C266.565 178.015 266.547 176.756 266.96 175.408C267.733 172.874 268.345 170.303 269.064 167.643C268.56 167.446 268.129 167.23 267.679 167.104C265.433 166.475 263.186 165.828 260.903 165.307C259.699 165.037 258.782 164.462 257.955 163.581C256.086 161.622 254.163 159.716 252.185 157.685C251.7 158.081 251.305 158.35 250.963 158.674C249.22 160.399 247.494 162.161 245.715 163.887C245.301 164.3 244.744 164.57 244.241 164.911C244.241 164.174 244.241 163.437 244.241 162.7C244.978 162.053 245.751 161.46 246.452 160.777C248.249 159.015 250.01 157.2 251.88 155.331C252.311 155.69 252.707 155.96 253.03 156.283C254.989 158.225 256.985 160.166 258.89 162.161C259.681 162.988 260.58 163.509 261.694 163.797C264.498 164.498 267.284 165.271 270.07 166.026C270.358 166.097 270.627 166.223 271.041 166.349C270.933 166.924 270.879 167.446 270.735 167.967C270.088 170.411 269.477 172.856 268.74 175.264C268.309 176.666 268.273 177.979 268.704 179.399C269.423 181.753 270.016 184.144 270.645 186.517C270.807 187.092 270.915 187.703 271.077 188.44C269.585 188.853 268.183 189.249 266.763 189.644C264.57 190.255 262.161 190.471 260.256 191.567C258.297 192.718 256.823 194.695 255.169 196.349C254.181 197.337 253.246 198.416 252.221 199.53C251.646 199.063 251.251 198.793 250.927 198.47C249.184 196.744 247.458 194.983 245.697 193.257C245.283 192.862 244.726 192.592 244.223 192.268C244.223 191.406 244.223 190.561 244.223 189.68Z" fill="#BFE8D7"/>
<path fill-rule="evenodd" clip-rule="evenodd" d="M244.223 64.3436C244.528 64.2717 244.816 64.1998 245.121 64.1459C247.566 63.7684 249.687 62.7978 251.215 60.7667C251.359 60.569 251.592 60.4432 251.772 60.2994C251.826 60.2634 251.88 60.2634 252.113 60.2274C253.102 61.1442 254.037 62.3484 255.259 63.0674C256.427 63.7505 257.901 63.9302 259.411 64.3796C259.052 65.8715 258.476 67.2914 258.476 68.7114C258.476 70.0775 259.07 71.4436 259.447 73.0433C256.499 73.6005 253.857 74.661 252.149 77.4291C250.873 76.2787 249.921 74.9846 248.626 74.3195C247.314 73.6365 245.697 73.5825 244.223 73.241C244.223 72.8636 244.223 72.5041 244.223 72.1266C245.894 70.3651 245.858 67.0937 244.223 65.0986C244.223 64.8289 244.223 64.5953 244.223 64.3436ZM246.416 65.5659C247.602 67.7049 247.188 69.736 246.595 71.9109C248.932 72.0906 250.568 73.223 252.078 75.0924C253.282 72.8995 255.295 72.3243 257.434 71.7312C256.517 69.6102 256.643 67.6509 257.416 65.512C255.061 65.2244 253.39 64.092 251.898 62.3485C250.568 64.3077 248.77 65.1345 246.416 65.5659Z" fill="#BFE8D7"/>
<path fill-rule="evenodd" clip-rule="evenodd" d="M244.223 173.054C244.528 172.982 244.816 172.91 245.121 172.856C247.566 172.478 249.687 171.508 251.215 169.477C251.395 169.243 251.664 169.099 252.006 168.83C253.12 169.854 254.055 171.058 255.277 171.777C256.445 172.46 257.919 172.64 259.429 173.09C259.088 174.581 258.494 176.001 258.494 177.421C258.494 178.788 259.088 180.154 259.465 181.753C256.517 182.311 253.875 183.371 252.167 186.139C250.891 184.989 249.939 183.695 248.644 183.029C247.332 182.346 245.715 182.293 244.241 181.951C244.241 181.574 244.241 181.214 244.241 180.837C245.912 179.075 245.876 175.804 244.241 173.809C244.223 173.539 244.223 173.287 244.223 173.054ZM246.487 180.603C248.914 180.837 250.568 181.897 251.988 183.731C253.372 181.789 255.223 180.944 257.326 180.513C257.074 179.345 256.697 178.41 256.715 177.457C256.715 176.451 257.074 175.444 257.308 174.24C255.097 173.934 253.372 172.874 251.916 171.058C250.55 173 248.788 173.88 246.452 174.276C247.44 176.343 247.386 178.32 246.487 180.603Z" fill="#BFE8D7"/>
<path fill-rule="evenodd" clip-rule="evenodd" d="M397.023 43.5112C400.169 42.6664 403.117 41.8575 406.083 41.0666C410.954 39.7545 415.825 38.4244 420.714 37.1662C421.72 36.9145 422.493 36.4472 423.212 35.7282C428.461 30.4437 433.745 25.1771 439.012 19.9106C439.479 19.4432 439.983 18.9939 440.558 18.4367C441.115 18.9579 441.618 19.3893 442.086 19.8567C447.352 25.1232 452.637 30.3897 457.885 35.6743C458.658 36.4472 459.485 36.9145 460.545 37.2021C467.681 39.0894 474.817 41.0127 481.953 42.936C482.654 43.1157 483.337 43.3314 484.146 43.5471C483.589 45.6861 483.086 47.6453 482.564 49.5866C480.983 55.4822 479.437 61.3599 477.819 67.2376C477.549 68.2262 477.549 69.1249 477.819 70.1135C479.796 77.3572 481.72 84.619 483.661 91.8627C483.823 92.4559 483.93 93.049 484.11 93.768C483.463 93.9657 482.906 94.1634 482.331 94.3252C475.087 96.2844 467.825 98.2437 460.563 100.167C459.521 100.437 458.676 100.904 457.903 101.677C452.709 106.925 447.46 112.138 442.247 117.387C441.762 117.872 441.403 118.447 440.863 119.13C440.108 118.447 439.623 118.016 439.156 117.566C433.889 112.3 428.605 107.033 423.356 101.749C422.547 100.922 421.649 100.437 420.534 100.149C413.326 98.2437 406.155 96.3024 398.947 94.3612C398.372 94.1994 397.796 94.0196 397.077 93.804C397.365 92.6536 397.617 91.5931 397.904 90.5326C399.72 83.7022 401.553 76.854 403.404 70.0236C403.656 69.089 403.656 68.2442 403.404 67.3275C401.427 60.0837 399.504 52.822 397.581 45.5782C397.365 44.9671 397.239 44.3739 397.023 43.5112ZM399.108 44.7514C399.306 45.5782 399.432 46.1894 399.594 46.7825C401.337 53.3253 403.063 59.868 404.878 66.3928C405.31 67.9386 405.328 69.3406 404.914 70.8864C403.081 77.4651 401.337 84.0797 399.576 90.6764C399.414 91.3055 399.288 91.9346 399.144 92.6356C399.935 92.8693 400.511 93.049 401.104 93.2108C407.934 95.0442 414.764 96.8956 421.613 98.693C422.619 98.9627 423.392 99.43 424.111 100.149C429.108 105.164 434.123 110.179 439.138 115.176C439.605 115.643 440.09 116.074 440.863 116.775C441.385 116.092 441.744 115.499 442.229 115.014C447.047 110.161 451.918 105.362 456.717 100.49C457.706 99.4839 458.802 98.8728 460.15 98.5133C466.819 96.7698 473.469 94.9723 480.138 93.1928C480.767 93.0311 481.378 92.8154 482.061 92.5997C481.827 91.683 481.666 90.964 481.468 90.263C479.67 83.5405 477.909 76.818 476.076 70.1135C475.806 69.1249 475.806 68.2262 476.093 67.2376C477.945 60.4612 479.742 53.6848 481.54 46.9084C481.72 46.2253 481.863 45.5243 482.061 44.7514C481.342 44.5357 480.803 44.3739 480.282 44.2301C473.505 42.4147 466.729 40.5813 459.934 38.7839C458.694 38.4603 457.723 37.8851 456.825 36.9684C451.936 32.0075 446.993 27.1004 442.068 22.1934C441.6 21.726 441.097 21.3126 440.288 20.5577C439.785 21.2587 439.443 21.8878 438.976 22.3551C434.159 27.2082 429.288 32.0075 424.507 36.8786C423.518 37.8851 422.421 38.4783 421.055 38.8378C414.387 40.5813 407.736 42.3967 401.068 44.1762C400.421 44.338 399.845 44.5177 399.108 44.7514Z" fill="#BFE8D7"/>
<path fill-rule="evenodd" clip-rule="evenodd" d="M397.023 -65.1808C397.814 -65.3965 398.497 -65.6121 399.198 -65.7919C406.334 -67.7152 413.452 -69.6385 420.606 -71.5258C421.649 -71.7954 422.493 -72.2807 423.266 -73.0536C428.461 -78.3022 433.709 -83.5148 438.922 -88.7454C439.389 -89.2307 439.767 -89.8059 440.324 -90.4889C441.043 -89.8239 441.528 -89.3925 441.996 -88.9252C447.262 -83.6586 452.547 -78.3921 457.795 -73.1075C458.604 -72.2987 459.485 -71.7774 460.599 -71.4898C467.735 -69.6205 474.871 -67.6792 482.007 -65.7739C482.654 -65.5942 483.283 -65.3965 484.11 -65.1448C483.93 -64.4259 483.769 -63.7788 483.607 -63.1497C481.666 -55.8879 479.742 -48.6442 477.783 -41.3825C477.531 -40.4478 477.531 -39.603 477.783 -38.6863C479.742 -31.4426 481.684 -24.1808 483.607 -16.9191C483.769 -16.326 483.912 -15.7328 484.11 -14.9419C483.517 -14.7442 482.96 -14.5285 482.403 -14.3847C475.159 -12.4255 467.897 -10.4663 460.635 -8.54298C459.521 -8.25539 458.622 -7.77008 457.813 -6.94325C452.619 -1.69468 447.388 3.51793 442.158 8.74852C441.69 9.21586 441.205 9.68321 440.612 10.2404C440.037 9.70118 439.533 9.26981 439.066 8.80247C433.835 3.57188 428.605 -1.64076 423.41 -6.88932C422.547 -7.7521 421.613 -8.27337 420.426 -8.57893C413.218 -10.4663 406.047 -12.4255 398.857 -14.3667C398.282 -14.5285 397.706 -14.7262 397.023 -14.9419C398.066 -18.8783 399.073 -22.671 400.097 -26.4636C401.194 -30.5618 402.326 -34.66 403.35 -38.7761C403.548 -39.567 403.548 -40.5017 403.35 -41.2746C401.445 -48.5902 399.468 -55.9059 397.509 -63.2215C397.347 -63.8327 397.221 -64.4258 397.023 -65.1808ZM399.073 -63.9765C399.306 -63.0418 399.486 -62.3408 399.684 -61.6218C401.499 -54.8454 403.279 -48.051 405.13 -41.2926C405.364 -40.4298 405.364 -39.6389 405.13 -38.7761C403.279 -31.9458 401.463 -25.0975 399.63 -18.2672C399.45 -17.5842 399.288 -16.8831 399.108 -16.1102C399.953 -15.8586 400.582 -15.6609 401.229 -15.4812C407.952 -13.6657 414.656 -11.8503 421.379 -10.0888C422.511 -9.80119 423.392 -9.29789 424.183 -8.47106C429.126 -3.47414 434.105 1.46885 439.084 6.42982C439.551 6.89716 440.037 7.32856 440.863 8.11943C441.367 7.41842 441.69 6.80729 442.158 6.32198C447.101 1.34303 452.097 -3.61795 457.04 -8.59691C457.759 -9.31588 458.532 -9.78323 459.539 -10.0349C466.387 -11.8323 473.218 -13.6837 480.048 -15.5351C480.677 -15.6969 481.306 -15.9125 482.025 -16.1103C481.791 -17.009 481.63 -17.728 481.45 -18.429C479.634 -25.2054 477.837 -31.9998 476.004 -38.7582C475.77 -39.621 475.752 -40.3939 475.986 -41.2746C477.855 -48.1049 479.652 -54.9533 481.486 -61.7836C481.666 -62.4846 481.827 -63.1856 482.007 -63.9765C481.072 -64.2461 480.317 -64.4798 479.545 -64.6775C472.948 -66.439 466.351 -68.2185 459.737 -69.962C458.622 -70.2496 457.723 -70.7529 456.915 -71.5797C451.972 -76.5766 446.993 -81.5196 442.032 -86.4806C441.564 -86.9479 441.061 -87.3793 440.504 -87.8826C439.893 -87.2895 439.407 -86.8221 438.94 -86.3548C434.015 -81.4298 429.072 -76.5227 424.183 -71.5797C423.374 -70.7529 422.475 -70.2496 421.379 -69.962C414.764 -68.2364 408.168 -66.439 401.571 -64.6775C400.816 -64.4798 400.061 -64.2461 399.073 -63.9765Z" fill="#BFE8D7"/>
<path fill-rule="evenodd" clip-rule="evenodd" d="M346.676 -36.0263C347.071 -35.4691 347.395 -34.84 347.862 -34.3727C353.075 -29.1241 358.323 -23.9115 363.518 -18.6629C364.327 -17.8361 365.226 -17.3328 366.322 -17.0452C373.404 -15.1759 380.486 -13.2885 387.568 -11.3832C388.269 -11.2035 388.97 -10.9878 389.779 -10.7362C389.599 -9.98122 389.473 -9.31616 389.312 -8.68706C387.37 -1.42533 385.447 5.83639 383.47 13.0801C383.236 13.9609 383.236 14.7338 383.47 15.5966C385.447 22.8403 387.37 30.1021 389.312 37.3638C389.473 37.9569 389.617 38.5501 389.815 39.359C389.132 39.5746 388.521 39.7723 387.892 39.9341C380.63 41.8754 373.386 43.8526 366.124 45.7579C365.136 46.0275 364.345 46.4768 363.626 47.1958C358.377 52.4803 353.093 57.7469 347.826 63.0134C347.359 63.4808 346.856 63.9302 346.28 64.4874C345.723 63.9661 345.22 63.5167 344.753 63.0494C339.522 57.8188 334.291 52.6062 329.079 47.3576C328.27 46.5488 327.425 46.0095 326.293 45.704C319.085 43.8166 311.895 41.8754 304.705 39.9341C304.112 39.7723 303.537 39.5926 302.746 39.359C302.908 38.6759 303.052 38.0288 303.231 37.4177C305.173 30.156 307.096 22.8943 309.073 15.6505C309.325 14.7158 309.307 13.871 309.055 12.9543C307.096 5.7645 305.191 -1.42534 303.267 -8.63313C303.088 -9.28022 302.962 -9.92728 302.764 -10.7182C303.555 -10.9518 304.238 -11.1855 304.939 -11.3652C312.021 -13.2526 319.103 -15.1579 326.185 -17.0272C327.353 -17.3328 328.288 -17.89 329.151 -18.7528C334.309 -23.9654 339.504 -29.1241 344.681 -34.3188C345.148 -34.8041 345.526 -35.3793 345.939 -35.9185C346.173 -35.9544 346.424 -35.9904 346.676 -36.0263ZM304.759 -9.54983C305.011 -8.61515 305.191 -7.89617 305.37 -7.19516C307.168 -0.472681 308.947 6.24981 310.781 12.9723C311.032 13.907 311.032 14.7338 310.781 15.6685C308.929 22.4449 307.132 29.2213 305.316 35.9977C305.137 36.6987 304.975 37.3997 304.777 38.2086C305.658 38.4602 306.359 38.6579 307.078 38.8556C313.747 40.6351 320.397 42.4505 327.066 44.1941C328.18 44.4817 329.061 44.985 329.87 45.8118C334.813 50.8087 339.792 55.7517 344.753 60.7127C345.22 61.18 345.705 61.6114 346.568 62.4203C347.053 61.7193 347.377 61.0902 347.844 60.6049C352.787 55.6259 357.766 50.6649 362.727 45.686C363.446 44.967 364.219 44.4996 365.226 44.248C372.02 42.4685 378.778 40.6351 385.555 38.8197C386.256 38.64 386.921 38.4063 387.694 38.1726C387.478 37.2739 387.316 36.5549 387.119 35.8539C385.321 29.1314 383.542 22.4089 381.708 15.7044C381.457 14.7698 381.439 13.9429 381.69 13.0082C383.542 6.23184 385.339 -0.544565 387.155 -7.32097C387.334 -8.02198 387.496 -8.723 387.676 -9.4959C386.921 -9.7116 386.346 -9.90931 385.753 -10.0531C378.976 -11.8865 372.2 -13.7199 365.405 -15.4994C364.291 -15.787 363.392 -16.2723 362.583 -17.0991C357.64 -22.0961 352.661 -27.057 347.7 -32.018C347.233 -32.4854 346.748 -32.9167 346.191 -33.438C345.579 -32.8448 345.094 -32.3775 344.627 -31.9102C339.702 -26.9851 334.759 -22.0781 329.87 -17.1351C329.061 -16.3083 328.162 -15.805 327.066 -15.5174C322.356 -14.2951 317.665 -13.0189 312.956 -11.7607C310.331 -11.0777 307.671 -10.3407 304.759 -9.54983Z" fill="#BFE8D7"/>
<path fill-rule="evenodd" clip-rule="evenodd" d="M302.729 97.9738C304.059 97.5964 305.245 97.2549 306.414 96.9314C313.01 95.1698 319.625 93.3903 326.222 91.6648C327.336 91.3772 328.217 90.8559 329.026 90.0471C334.22 84.7985 339.469 79.5859 344.681 74.3373C345.149 73.87 345.508 73.2768 346.012 72.6477C346.785 73.3667 347.288 73.7981 347.737 74.2654C352.968 79.496 358.216 84.7086 363.411 89.9572C364.274 90.82 365.208 91.3592 366.377 91.6827C373.459 93.5521 380.541 95.4394 387.623 97.3447C388.324 97.5245 389.007 97.7581 389.834 98.0098C389.151 100.598 388.521 103.025 387.856 105.451C386.418 110.862 384.98 116.272 383.489 121.682C383.237 122.617 383.219 123.444 383.471 124.378C385.43 131.568 387.335 138.758 389.258 145.966C389.42 146.613 389.582 147.26 389.78 148.087C389.079 148.285 388.449 148.482 387.82 148.662C380.81 150.531 373.8 152.437 366.772 154.27C365.352 154.648 364.22 155.277 363.177 156.337C358.126 161.478 353.004 166.547 347.917 171.651C347.432 172.137 347.036 172.694 346.479 173.377C345.796 172.748 345.293 172.317 344.825 171.867C339.559 166.601 334.274 161.334 329.026 156.05C328.217 155.223 327.336 154.737 326.204 154.432C318.996 152.545 311.806 150.585 304.616 148.662C304.023 148.5 303.448 148.303 302.711 148.069C302.891 147.35 303.052 146.721 303.214 146.074C305.155 138.812 307.079 131.55 309.056 124.307C309.29 123.444 309.29 122.653 309.056 121.79C307.079 114.546 305.155 107.285 303.214 100.023C303.07 99.4118 302.927 98.8187 302.729 97.9738ZM304.778 146.865C305.551 147.098 306.126 147.296 306.719 147.458C313.388 149.237 320.038 151.035 326.707 152.778C328.055 153.138 329.151 153.731 330.158 154.737C334.993 159.662 339.9 164.516 344.771 169.387C345.239 169.854 345.742 170.285 346.299 170.807C346.892 170.249 347.378 169.8 347.863 169.315C352.824 164.354 357.803 159.393 362.764 154.414C363.483 153.695 364.256 153.228 365.262 152.958C372.057 151.178 378.815 149.345 385.592 147.512C386.293 147.332 386.976 147.098 387.748 146.883C387.569 146.11 387.461 145.516 387.299 144.941C385.538 138.345 383.776 131.73 381.961 125.151C381.565 123.749 381.529 122.455 381.925 121.017C383.758 114.439 385.502 107.824 387.281 101.227C387.461 100.598 387.569 99.951 387.748 99.1961C387.03 98.9804 386.454 98.8007 385.879 98.6389C379.103 96.8235 372.326 94.9721 365.532 93.1926C364.346 92.8871 363.429 92.3298 362.584 91.4671C357.695 86.5241 352.752 81.599 347.827 76.692C347.36 76.2247 346.856 75.7933 346.281 75.254C345.706 75.8292 345.221 76.2786 344.735 76.7639C339.81 81.6889 334.867 86.596 329.978 91.539C329.169 92.3658 328.289 92.8871 327.174 93.1746C320.272 94.9901 313.37 96.8594 306.468 98.7108C305.946 98.8546 305.443 99.0523 304.832 99.268C305.048 100.095 305.227 100.796 305.407 101.497C307.187 108.094 308.93 114.708 310.746 121.287C311.069 122.455 311.105 123.534 310.764 124.702C309.793 128.135 308.876 131.586 307.959 135.037C306.899 138.902 305.856 142.766 304.778 146.865Z" fill="#BFE8D7"/>
<path fill-rule="evenodd" clip-rule="evenodd" d="M389.96 47.5554C391.02 51.4738 392.027 55.2125 393.034 58.9512C393.788 61.7373 394.579 64.5233 395.262 67.3453C395.442 68.1003 395.514 68.963 395.334 69.682C393.645 76.1708 391.883 82.6596 390.14 89.1305C390.104 89.3102 389.978 89.454 389.816 89.7416C389.259 89.6158 388.666 89.5259 388.091 89.3641C382.141 87.7824 376.191 86.2006 370.26 84.5649C369.469 84.3492 368.606 83.9718 368.031 83.3966C363.286 78.7412 358.594 74.0139 353.885 69.3045C353.723 69.1248 353.579 68.9271 353.346 68.6575C353.723 68.244 354.047 67.8306 354.424 67.4532C358.828 63.0494 363.232 58.6636 367.618 54.2419C368.39 53.469 369.235 52.9837 370.278 52.714C376.353 51.1143 382.411 49.4606 388.486 47.8429C388.899 47.7531 389.313 47.6812 389.96 47.5554ZM388.684 49.6943C388.342 49.7483 388.108 49.7662 387.875 49.8201C382.105 51.348 376.335 52.8578 370.583 54.4576C369.864 54.6553 369.163 55.1945 368.624 55.7338C364.634 59.6702 360.679 63.6426 356.725 67.597C356.401 67.9205 356.114 68.3159 355.772 68.7114C356.222 69.1967 356.599 69.6101 356.977 70.0055C360.805 73.8341 364.652 77.6447 368.444 81.5093C369.253 82.3361 370.152 82.8394 371.266 83.127C376.137 84.3852 381.009 85.7153 385.898 87.0095C386.778 87.2431 387.659 87.4768 388.612 87.7285C388.81 87.2072 388.989 86.8297 389.115 86.4163C390.607 80.8981 392.063 75.362 393.573 69.8438C393.824 68.9091 393.717 68.0463 393.465 67.1296C392.045 61.899 390.643 56.6685 389.241 51.4558C389.061 50.8807 388.881 50.3055 388.684 49.6943Z" fill="#BFE8D7"/>
<path fill-rule="evenodd" clip-rule="evenodd" d="M389.959 156.265C391.02 160.202 392.027 163.941 393.033 167.679C393.788 170.465 394.579 173.251 395.262 176.073C395.442 176.81 395.514 177.691 395.334 178.428C393.662 184.863 391.919 191.28 390.193 197.697C390.139 197.931 389.995 198.146 389.852 198.47C389.258 198.344 388.665 198.236 388.09 198.092C382.141 196.511 376.191 194.929 370.259 193.293C369.468 193.077 368.606 192.7 368.031 192.125C363.285 187.469 358.594 182.742 353.885 178.033C353.723 177.853 353.579 177.655 353.363 177.386C353.741 176.972 354.082 176.559 354.46 176.181C358.864 171.778 363.267 167.374 367.653 162.97C368.318 162.305 369.001 161.784 369.954 161.532C376.155 159.914 382.32 158.225 388.522 156.571C388.899 156.445 389.33 156.391 389.959 156.265ZM388.647 196.457C388.845 195.935 388.971 195.666 389.043 195.378C390.571 189.734 392.098 184.09 393.572 178.446C393.752 177.709 393.698 176.846 393.518 176.109C392.098 170.627 390.607 165.181 389.133 159.717C389.007 159.267 388.791 158.854 388.611 158.404C388 158.548 387.533 158.638 387.048 158.764C381.763 160.184 376.479 161.622 371.176 163.006C370.116 163.276 369.289 163.761 368.516 164.534C364.669 168.434 360.787 172.299 356.904 176.163C356.527 176.541 356.185 176.954 355.826 177.35C355.97 177.583 356.041 177.763 356.167 177.889C360.463 182.203 364.759 186.535 369.109 190.813C369.522 191.208 370.134 191.478 370.709 191.639C373.369 192.394 376.047 193.095 378.725 193.814C381.961 194.677 385.232 195.54 388.647 196.457Z" fill="#BFE8D7"/>
<path fill-rule="evenodd" clip-rule="evenodd" d="M396.987 35.4227C396.753 34.6857 396.537 34.1105 396.394 33.5353C394.794 27.5858 393.194 21.6362 391.648 15.6866C391.451 14.9496 391.343 14.0689 391.54 13.3499C393.212 6.91503 394.956 0.498114 396.681 -5.9188C396.735 -6.15247 396.879 -6.3502 397.023 -6.65576C397.526 -6.54792 398.011 -6.47602 398.461 -6.3502C404.59 -4.71452 410.719 -3.0968 416.831 -1.42517C417.514 -1.24543 418.251 -0.903914 418.736 -0.418602C423.643 4.41655 428.514 9.30562 433.475 14.2666C433.08 14.716 432.738 15.1294 432.343 15.5068C427.939 19.9106 423.553 24.3144 419.131 28.7002C418.592 29.2394 417.891 29.7786 417.172 29.9764C410.54 31.7918 403.871 33.5533 396.987 35.4227ZM398.101 33.2657C398.838 33.1039 399.377 32.9961 399.917 32.8523C405.201 31.4323 410.486 29.9943 415.77 28.6103C416.777 28.3586 417.55 27.8913 418.269 27.1723C422.115 23.2718 426.016 19.4253 429.88 15.5428C430.258 15.1653 430.617 14.7339 430.995 14.3385C430.833 14.1228 430.743 13.961 430.617 13.8352C426.393 9.61118 422.205 5.3692 417.945 1.18113C417.406 0.659871 416.633 0.282414 415.896 0.0667197C410.504 -1.42517 405.093 -2.84518 399.683 -4.28314C399.216 -4.40896 398.748 -4.4449 398.191 -4.55275C398.029 -4.13933 397.867 -3.81578 397.778 -3.47426C396.268 2.11582 394.758 7.68792 393.32 13.278C393.14 13.997 393.212 14.8598 393.392 15.6147C393.949 17.9514 394.614 20.2521 395.243 22.5708C396.16 26.0939 397.113 29.5809 398.101 33.2657Z" fill="#BFE8D7"/>
<path fill-rule="evenodd" clip-rule="evenodd" d="M302.748 47.6273C303.251 47.7171 303.736 47.789 304.204 47.9149C310.333 49.5505 316.462 51.1862 322.574 52.8579C323.203 53.0376 323.904 53.3072 324.353 53.7386C329.296 58.6277 334.203 63.5527 339.236 68.5856C338.913 68.981 338.643 69.3764 338.319 69.7C333.79 74.2296 329.278 78.7771 324.713 83.2887C324.209 83.792 323.544 84.2414 322.879 84.4391C316.229 86.2725 309.578 88.034 302.766 89.8674C302.586 89.4001 302.388 88.9687 302.262 88.5193C300.591 82.3361 298.919 76.1529 297.284 69.9696C297.104 69.2866 297.014 68.4777 297.194 67.7947C298.883 61.3059 300.645 54.8351 302.388 48.3463C302.442 48.1126 302.586 47.9149 302.748 47.6273ZM336.864 68.8552C336.576 68.4418 336.486 68.28 336.342 68.1542C332.082 63.8762 327.84 59.5983 323.526 55.3743C323.023 54.889 322.304 54.5654 321.621 54.3677C316.229 52.8758 310.818 51.4379 305.408 49.9999C304.905 49.8561 304.366 49.8202 303.844 49.7483C303.718 50.1078 303.611 50.3234 303.539 50.5751C301.993 56.273 300.447 61.9709 298.973 67.6868C298.793 68.4238 298.865 69.2866 299.045 70.0235C300.447 75.4339 301.921 80.8442 303.377 86.2545C303.503 86.7219 303.7 87.1533 303.88 87.6745C304.258 87.6206 304.563 87.6026 304.851 87.5307C310.495 86.0209 316.139 84.529 321.765 82.9652C322.538 82.7495 323.329 82.2462 323.904 81.671C327.085 78.5794 330.177 75.4159 333.323 72.2883C334.473 71.12 335.641 70.0235 336.864 68.8552Z" fill="#BFE8D7"/>
<path fill-rule="evenodd" clip-rule="evenodd" d="M396.987 102.036C397.544 102.162 398.011 102.234 398.479 102.36C404.608 103.995 410.737 105.613 416.849 107.285C417.478 107.447 418.179 107.734 418.628 108.184C423.589 113.073 428.496 117.998 433.475 122.995C433.062 123.444 432.702 123.857 432.307 124.253C427.903 128.657 423.517 133.078 419.095 137.428C418.502 138.003 417.729 138.525 416.956 138.74C410.665 140.484 404.356 142.155 398.047 143.845C397.76 143.917 397.454 143.989 397.059 144.079C396.897 143.755 396.699 143.45 396.609 143.108C394.902 136.817 393.212 130.508 391.558 124.199C391.379 123.516 391.343 122.707 391.522 122.042C393.194 115.607 394.938 109.19 396.663 102.773C396.717 102.576 396.807 102.414 396.987 102.036ZM398.137 141.94C398.533 141.868 398.82 141.832 399.108 141.76C404.806 140.232 410.522 138.74 416.202 137.159C416.92 136.961 417.621 136.458 418.179 135.918C422.169 131.982 426.105 128.009 430.078 124.055C430.401 123.732 430.671 123.336 431.013 122.941C426.537 118.465 422.151 114.061 417.729 109.693C417.28 109.244 416.597 108.974 415.968 108.813C410.504 107.321 405.039 105.865 399.575 104.409C399.126 104.283 398.64 104.283 398.173 104.211C398.047 104.553 397.921 104.768 397.867 105.002C396.322 110.7 394.776 116.398 393.302 122.114C393.122 122.833 393.23 123.696 393.428 124.451C394.776 129.627 396.196 134.786 397.58 139.963C397.724 140.592 397.921 141.221 398.137 141.94Z" fill="#BFE8D7"/>
<path fill-rule="evenodd" clip-rule="evenodd" d="M302.676 156.301C303.323 156.427 303.808 156.499 304.257 156.625C310.333 158.243 316.39 159.86 322.448 161.532C323.185 161.73 323.975 162.089 324.515 162.61C329.296 167.32 334.023 172.083 338.786 176.846C338.912 176.972 339.02 177.134 339.182 177.368C338.876 177.727 338.589 178.105 338.247 178.446C333.772 182.94 329.296 187.433 324.784 191.891C324.191 192.466 323.418 192.987 322.627 193.203C316.228 194.983 309.793 196.672 303.377 198.38C303.197 198.434 303.017 198.434 302.694 198.47C302.496 197.912 302.28 197.355 302.136 196.798C300.519 190.795 298.901 184.791 297.337 178.788C297.121 177.997 297.067 177.062 297.265 176.271C298.901 169.962 300.626 163.671 302.316 157.362C302.388 157.038 302.514 156.769 302.676 156.301ZM303.88 196.367C304.383 196.277 304.797 196.223 305.192 196.115C310.656 194.659 316.121 193.185 321.603 191.747C322.537 191.496 323.274 191.064 323.939 190.381C327.84 186.445 331.758 182.544 335.677 178.626C336.054 178.248 336.396 177.817 336.791 177.385C336.522 177.062 336.342 176.828 336.126 176.613C331.992 172.478 327.876 168.326 323.706 164.228C323.131 163.671 322.286 163.258 321.495 163.042C316.228 161.586 310.926 160.184 305.641 158.764C305.066 158.62 304.491 158.53 303.898 158.422C303.754 158.8 303.646 159.016 303.574 159.249C302.028 164.947 300.483 170.645 299.009 176.361C298.811 177.134 298.919 178.069 299.135 178.877C300.501 184.18 301.939 189.464 303.377 194.749C303.484 195.252 303.682 195.774 303.88 196.367Z" fill="#BFE8D7"/>
<path fill-rule="evenodd" clip-rule="evenodd" d="M295.522 144.097C293.868 143.647 292.287 143.234 290.687 142.803C285.744 141.49 280.801 140.178 275.876 138.83C275.139 138.632 274.33 138.291 273.791 137.77C269.009 133.06 264.264 128.297 259.519 123.534C259.393 123.408 259.303 123.246 259.105 122.977C259.375 122.689 259.627 122.383 259.932 122.096C264.426 117.602 268.884 113.109 273.413 108.651C274.006 108.076 274.779 107.536 275.552 107.321C281.897 105.559 288.278 103.888 294.641 102.18C294.875 102.108 295.126 102.09 295.486 102.036C295.648 102.396 295.863 102.755 295.971 103.151C297.661 109.388 299.351 115.625 300.986 121.88C301.166 122.563 301.202 123.372 301.022 124.037C299.351 130.418 297.643 136.763 295.935 143.126C295.845 143.414 295.702 143.683 295.522 144.097ZM294.461 104.121C293.94 104.193 293.635 104.211 293.347 104.301C287.703 105.811 282.059 107.303 276.415 108.867C275.642 109.082 274.887 109.622 274.294 110.215C270.393 114.061 266.529 117.944 262.664 121.826C262.287 122.204 261.945 122.617 261.55 123.031C261.766 123.3 261.91 123.498 262.071 123.678C266.241 127.866 270.411 132.054 274.618 136.206C275.121 136.691 275.822 137.051 276.505 137.23C281.897 138.722 287.308 140.16 292.718 141.616C293.239 141.76 293.76 141.832 294.372 141.958C294.515 141.58 294.641 141.311 294.713 141.023C296.241 135.379 297.769 129.753 299.243 124.091C299.44 123.354 299.351 122.509 299.171 121.754C298.614 119.418 297.948 117.117 297.319 114.798C296.385 111.275 295.45 107.788 294.461 104.121Z" fill="#BFE8D7"/>
<path fill-rule="evenodd" clip-rule="evenodd" d="M295.467 35.3866C290.254 34.0026 285.185 32.4388 280.027 31.3244C276.054 30.4796 272.945 28.6641 270.249 25.6444C267.139 22.1574 263.67 18.9759 260.363 15.6685C259.931 15.2372 259.518 14.7878 259.068 14.2845C262.699 10.6357 266.276 7.0767 269.835 3.49977C271.363 1.97193 272.711 0.12057 274.508 -0.921954C276.306 -1.96448 278.589 -2.21612 280.674 -2.77333C285.131 -3.97762 289.589 -5.16395 294.065 -6.35027C294.532 -6.4761 294.999 -6.56596 295.575 -6.6738C295.736 -6.20647 295.916 -5.82902 296.024 -5.43358C297.696 0.749657 299.367 6.93291 300.985 13.1162C301.165 13.7992 301.219 14.608 301.057 15.2731C299.367 21.7619 297.606 28.2327 295.862 34.7216C295.79 34.8833 295.665 35.0451 295.467 35.3866ZM261.513 14.2486C261.765 14.5541 261.89 14.7698 262.07 14.9316C266.24 19.1196 270.41 23.3077 274.616 27.4419C275.12 27.9272 275.821 28.3046 276.504 28.4844C281.896 29.9763 287.306 31.4142 292.717 32.8702C293.238 33.014 293.777 33.0858 294.352 33.2117C294.478 32.9061 294.604 32.6904 294.658 32.4747C296.222 26.7229 297.786 20.953 299.277 15.1832C299.457 14.5182 299.349 13.7093 299.188 13.0263C297.768 7.61594 296.312 2.2056 294.856 -3.20473C294.73 -3.65409 294.532 -4.10347 294.37 -4.53486C294.083 -4.51688 293.903 -4.55282 293.723 -4.4989C287.846 -2.93511 281.95 -1.35335 276.09 0.24638C275.587 0.390177 275.084 0.713731 274.706 1.07322C270.32 5.42306 265.989 9.79088 261.513 14.2486Z" fill="#BFE8D7"/>
<path fill-rule="evenodd" clip-rule="evenodd" d="M409.803 159.573C412.769 158.764 415.609 157.991 418.448 157.218C421.001 156.535 423.553 155.834 426.124 155.187C427.112 154.935 427.903 154.468 428.622 153.731C432.037 150.262 435.488 146.847 438.921 143.396C439.389 142.91 439.766 142.335 440.324 141.634C441.007 142.263 441.456 142.641 441.869 143.054C445.41 146.577 448.951 150.082 452.438 153.641C453.247 154.468 454.146 154.971 455.26 155.259C459.97 156.481 464.643 157.757 469.352 159.016C469.946 159.177 470.521 159.357 471.294 159.573C471.186 160.13 471.132 160.669 471.006 161.173C469.694 166.116 468.4 171.059 467.034 175.984C466.764 176.972 466.782 177.889 467.052 178.878C468.4 183.803 469.694 188.746 471.024 193.689C471.132 194.102 471.222 194.515 471.348 195.127C470.826 195.306 470.341 195.522 469.838 195.666C464.967 196.978 460.095 198.326 455.206 199.584C454.074 199.872 453.211 200.411 452.402 201.22C448.556 205.12 444.673 208.985 440.647 213.011C440.162 212.562 439.73 212.184 439.317 211.771C435.74 208.212 432.163 204.653 428.604 201.058C427.885 200.339 427.094 199.89 426.106 199.62C421.163 198.326 416.238 196.996 411.295 195.666C410.881 195.558 410.468 195.414 409.893 195.234C409.982 194.695 410.054 194.174 410.18 193.671C411.492 188.728 412.786 183.785 414.153 178.86C414.422 177.871 414.404 176.954 414.135 175.966C412.804 171.095 411.51 166.223 410.216 161.334C410.036 160.777 409.947 160.238 409.803 159.573ZM411.906 193.922C412.607 194.138 413.164 194.354 413.757 194.497C418.089 195.666 422.439 196.852 426.789 197.966C427.903 198.254 428.802 198.757 429.593 199.584C432.792 202.838 436.028 206.037 439.245 209.254C439.658 209.668 440.126 210.045 440.611 210.477C441.186 209.938 441.636 209.524 442.067 209.093C445.249 205.911 448.448 202.748 451.594 199.548C452.348 198.775 453.193 198.272 454.236 198.002C458.586 196.87 462.917 195.702 467.267 194.533C467.896 194.372 468.526 194.174 469.263 193.958C469.083 193.167 468.957 192.574 468.795 191.999C467.627 187.595 466.476 183.191 465.272 178.806C465.003 177.817 465.021 176.9 465.29 175.912C466.494 171.526 467.663 167.122 468.813 162.718C468.975 162.143 469.083 161.55 469.227 160.867C468.723 160.687 468.346 160.526 467.95 160.418C463.493 159.213 459.053 157.973 454.577 156.841C453.265 156.517 452.241 155.888 451.306 154.935C448.25 151.808 445.141 148.734 442.049 145.643C441.582 145.175 441.078 144.762 440.27 144.025C439.766 144.708 439.407 145.319 438.939 145.786C435.83 148.932 432.666 152.042 429.557 155.223C428.784 155.996 427.957 156.481 426.897 156.751C422.313 157.955 417.747 159.195 413.164 160.436C412.769 160.543 412.391 160.723 411.906 160.903C412.068 161.586 412.193 162.179 412.337 162.754C413.505 167.158 414.656 171.562 415.878 175.948C416.148 176.936 416.148 177.835 415.86 178.842C414.638 183.227 413.488 187.631 412.337 192.035C412.193 192.628 412.068 193.221 411.906 193.922Z" fill="#BFE8D7"/>
<path fill-rule="evenodd" clip-rule="evenodd" d="M409.785 50.8448C415.231 49.3888 420.372 47.9688 425.567 46.6387C426.933 46.2972 428.011 45.6681 429 44.6615C432.343 41.2284 435.776 37.8491 439.174 34.452C439.605 34.0206 440.054 33.6251 440.576 33.1578C441.097 33.6431 441.564 34.0385 441.978 34.452C445.465 37.939 448.97 41.3901 452.421 44.9132C453.23 45.74 454.128 46.2433 455.225 46.5309C459.988 47.7711 464.751 49.0473 469.497 50.3235C470.072 50.4853 470.647 50.683 471.33 50.8987C471.186 51.5278 471.078 52.067 470.935 52.5883C469.64 57.4594 468.364 62.3485 467.016 67.2196C466.746 68.2082 466.746 69.1249 467.016 70.1134C468.346 74.9846 469.64 79.8557 470.935 84.7448C471.078 85.266 471.168 85.7873 471.312 86.4343C470.629 86.65 470.054 86.8298 469.479 86.9916C464.661 88.2857 459.862 89.6158 455.027 90.8561C454.021 91.1077 453.248 91.5751 452.529 92.2941C449.024 95.835 445.483 99.3581 441.96 102.881C441.528 103.312 441.079 103.708 440.558 104.175C440.036 103.69 439.587 103.294 439.156 102.863C435.633 99.3401 432.092 95.8171 428.587 92.2761C427.868 91.5571 427.095 91.0898 426.088 90.8381C421.253 89.5799 416.454 88.2677 411.637 86.9736C411.061 86.8118 410.486 86.6141 409.803 86.4164C409.947 85.7693 410.037 85.248 410.181 84.7268C411.475 79.8557 412.751 74.9666 414.099 70.0955C414.369 69.1069 414.369 68.1902 414.099 67.2016C412.769 62.3305 411.475 57.4594 410.181 52.5703C410.055 52.067 409.947 51.5458 409.785 50.8448ZM469.263 52.1209C468.67 51.9412 468.328 51.8154 467.987 51.7075C463.421 50.4853 458.838 49.227 454.254 48.0407C453.212 47.7711 452.367 47.3038 451.594 46.5129C448.448 43.2954 445.249 40.1319 442.067 36.9684C441.6 36.5011 441.097 36.0697 440.558 35.5664C440 36.1056 439.533 36.5011 439.102 36.9324C435.92 40.1139 432.721 43.2595 429.575 46.4769C428.766 47.3038 427.868 47.7891 426.753 48.0767C422.529 49.1551 418.305 50.3055 414.099 51.4379C413.398 51.6356 412.715 51.8693 411.906 52.103C412.068 52.804 412.176 53.3971 412.338 53.9903C413.488 58.3401 414.62 62.69 415.825 67.0039C416.13 68.1183 416.166 69.1249 415.843 70.2393C414.62 74.6251 413.47 79.0288 412.302 83.4326C412.158 84.0078 412.068 84.583 411.942 85.23C412.697 85.4637 413.29 85.6435 413.865 85.8052C418.197 86.9736 422.547 88.1599 426.897 89.2743C427.957 89.5439 428.784 90.0293 429.539 90.8201C432.739 94.0735 435.974 97.273 439.192 100.49C439.605 100.904 440.072 101.299 440.576 101.749C441.115 101.245 441.564 100.832 441.996 100.401C445.177 97.2191 448.377 94.0556 451.522 90.8561C452.331 90.0293 453.212 89.526 454.326 89.2384C458.676 88.124 463.008 86.9376 467.358 85.7693C467.933 85.6075 468.508 85.4098 469.209 85.1941C469.047 84.4931 468.921 83.8999 468.76 83.3248C467.591 78.921 466.441 74.5172 465.237 70.1314C464.967 69.1428 464.949 68.2441 465.219 67.2375C466.351 63.1393 467.43 59.0412 468.526 54.943C468.796 54.0622 468.993 53.1814 469.263 52.1209Z" fill="#BFE8D7"/>
<path fill-rule="evenodd" clip-rule="evenodd" d="M377.071 -3.36636C376.819 -2.35978 376.639 -1.53296 376.406 -0.706129C375.237 3.62574 374.123 7.97559 372.883 12.3074C372.469 13.7274 372.505 15.0396 372.919 16.4416C374.195 21.0071 375.399 25.5906 376.621 30.1742C376.765 30.7493 376.891 31.3425 377.053 32.0435C375.075 32.5827 373.242 33.104 371.409 33.5893C367.958 34.506 364.524 35.4587 361.055 36.3214C359.887 36.627 358.934 37.1483 358.072 38.029C354.71 41.4622 351.277 44.8234 347.898 48.2385C347.431 48.7239 347.089 49.335 346.568 50.018C345.759 49.2811 345.274 48.8497 344.806 48.4003C341.499 45.093 338.156 41.8217 334.902 38.4604C333.788 37.31 332.566 36.591 331.02 36.1956C326.364 35.0273 321.745 33.7331 317.108 32.4929C316.64 32.367 316.173 32.2053 315.598 32.0255C315.67 31.5043 315.706 31.0369 315.813 30.5876C317.126 25.6446 318.42 20.7015 319.786 15.7765C320.055 14.7879 320.073 13.8892 319.804 12.9006C318.474 8.1014 317.215 3.26624 315.939 -1.55094C315.777 -2.12613 315.67 -2.71927 315.508 -3.42028C318.581 -4.24711 321.475 -5.03801 324.387 -5.82889C326.814 -6.47597 329.258 -7.14101 331.703 -7.77012C332.745 -8.03974 333.59 -8.50708 334.363 -9.29796C337.814 -12.821 341.319 -16.2721 344.788 -19.7771C345.22 -20.2085 345.543 -20.7657 346.011 -21.3769C346.73 -20.7298 347.179 -20.3523 347.592 -19.9389C351.079 -16.4518 354.584 -13.0007 358.018 -9.47772C358.916 -8.54304 359.941 -8.03973 361.145 -7.71619C365.801 -6.5119 370.42 -5.25369 375.057 -3.99548C375.651 -3.81573 376.244 -3.618 377.071 -3.36636ZM374.932 30.8212C374.77 30.1023 374.662 29.5091 374.5 28.9339C373.332 24.5301 372.182 20.1084 370.977 15.7226C370.69 14.734 370.726 13.8353 370.995 12.8467C372.2 8.4609 373.368 4.03915 374.518 -0.364609C374.68 -0.939795 374.752 -1.51498 374.878 -2.16206C374.177 -2.37776 373.655 -2.53955 373.116 -2.68334C368.712 -3.86966 364.327 -5.07393 359.905 -6.2243C358.844 -6.49392 358.018 -6.99721 357.245 -7.77011C354.099 -10.9876 350.9 -14.1511 347.718 -17.3146C347.251 -17.782 346.766 -18.1954 345.885 -19.0042C345.399 -18.3032 345.076 -17.6741 344.609 -17.1888C341.445 -13.9893 338.246 -10.8258 335.082 -7.62634C334.399 -6.94331 333.662 -6.51192 332.727 -6.27825C328.198 -5.09193 323.686 -3.86966 319.157 -2.64739C318.635 -2.50359 318.15 -2.30588 317.557 -2.09018C317.737 -1.35323 317.862 -0.760053 318.024 -0.166892C319.193 4.23687 320.397 8.64062 321.511 13.0444C321.709 13.8353 321.727 14.77 321.529 15.5429C320.397 20.0185 319.175 24.4762 317.988 28.9339C317.845 29.5091 317.719 30.1022 317.575 30.7673C318.312 31.001 318.887 31.1987 319.48 31.3604C323.758 32.5108 328.036 33.6792 332.332 34.7756C333.5 35.0812 334.453 35.6025 335.298 36.4652C338.443 39.6827 341.643 42.8462 344.824 46.0277C345.256 46.4591 345.705 46.8365 346.226 47.3219C346.748 46.8365 347.197 46.4411 347.628 46.0097C350.81 42.8282 354.009 39.6647 357.155 36.4652C357.964 35.6384 358.844 35.1171 359.959 34.8116C364.255 33.7151 368.533 32.5468 372.811 31.3964C373.512 31.2526 374.141 31.0549 374.932 30.8212Z" fill="#BFE8D7"/>
<path fill-rule="evenodd" clip-rule="evenodd" d="M315.51 105.29C319.572 104.193 323.419 103.169 327.283 102.108C329.242 101.587 331.399 101.371 333.089 100.401C334.778 99.4299 336.055 97.6684 337.511 96.2485C339.955 93.8219 342.382 91.3773 344.826 88.9328C345.258 88.5014 345.707 88.088 346.246 87.5847C346.75 88.0341 347.199 88.4116 347.63 88.843C351.171 92.366 354.712 95.871 358.199 99.43C358.972 100.221 359.817 100.688 360.86 100.958C365.569 102.198 370.26 103.456 374.952 104.714C375.599 104.894 376.246 105.074 377.055 105.308C376.893 105.991 376.785 106.584 376.623 107.159C375.347 111.976 374.089 116.793 372.759 121.611C372.489 122.599 372.507 123.498 372.777 124.486C374.107 129.286 375.365 134.121 376.641 138.938C376.785 139.459 376.893 139.998 377.055 140.682C376.408 140.879 375.832 141.095 375.257 141.239C370.44 142.533 365.641 143.863 360.806 145.103C359.745 145.373 358.918 145.876 358.163 146.649C354.748 150.118 351.297 153.533 347.846 156.984C347.379 157.452 346.893 157.919 346.3 158.494C345.743 157.973 345.24 157.542 344.772 157.074C341.321 153.641 337.87 150.226 334.455 146.739C333.592 145.858 332.657 145.337 331.489 145.031C326.78 143.809 322.106 142.533 317.397 141.275C316.804 141.113 316.247 140.933 315.51 140.699C315.654 140.034 315.761 139.441 315.923 138.866C317.109 134.408 318.242 129.933 319.536 125.493C320.039 123.767 320.003 122.168 319.518 120.46C318.224 115.967 317.074 111.437 315.869 106.907C315.743 106.458 315.654 105.973 315.51 105.29ZM374.952 139.549C374.754 138.704 374.646 138.111 374.484 137.536C373.334 133.186 372.201 128.836 370.997 124.504C370.728 123.516 370.692 122.617 370.979 121.628C372.219 117.171 373.388 112.713 374.556 108.237C374.7 107.716 374.754 107.195 374.862 106.548C374.161 106.332 373.586 106.152 373.01 105.991C368.678 104.822 364.347 103.618 359.979 102.504C358.846 102.216 357.984 101.677 357.175 100.868C354.065 97.7044 350.92 94.5768 347.774 91.4493C347.307 90.9819 346.803 90.5505 346.246 90.0293C345.707 90.5505 345.24 90.946 344.808 91.3773C341.627 94.5588 338.427 97.7224 335.282 100.922C334.473 101.749 333.574 102.234 332.46 102.522C327.984 103.672 323.544 104.894 319.069 106.098C318.619 106.224 318.17 106.422 317.613 106.62C317.775 107.303 317.882 107.896 318.026 108.471C319.195 112.875 320.345 117.279 321.567 121.682C321.819 122.617 321.819 123.462 321.567 124.397C320.345 128.854 319.159 133.312 317.972 137.788C317.828 138.345 317.757 138.938 317.631 139.567C318.494 139.801 319.123 139.998 319.788 140.178C324.066 141.329 328.344 142.479 332.64 143.593C333.628 143.845 334.419 144.294 335.138 145.031C338.373 148.321 341.663 151.574 344.934 154.845C345.348 155.259 345.815 155.636 346.318 156.104C348.583 153.839 350.704 151.7 352.843 149.579C354.73 147.71 356.366 145.427 358.595 144.151C360.752 142.892 363.52 142.677 366.018 141.994C368.93 141.185 371.842 140.394 374.952 139.549Z" fill="#BFE8D7"/>
<path fill-rule="evenodd" clip-rule="evenodd" d="M383.129 78.1659C380.019 77.3391 377.107 76.5662 374.195 75.7753C373.908 75.7034 373.602 75.5416 373.405 75.3439C371.23 73.187 369.055 71.0121 366.754 68.6933C368.03 67.3992 369.324 66.2668 370.421 64.9546C372.434 62.5281 374.896 61.0542 378.024 60.5329C379.714 60.2633 381.349 59.6702 383.165 59.1848C383.56 60.6228 383.974 61.9709 384.333 63.319C384.8 65.0984 385.627 66.8959 385.627 68.6754C385.627 70.4728 384.818 72.2523 384.333 74.0318C383.956 75.3978 383.542 76.728 383.129 78.1659ZM381.978 61.2519C379.498 61.917 377.251 62.5281 375.004 63.1572C374.663 63.2471 374.339 63.4808 374.088 63.7324C372.452 65.3142 370.852 66.9139 369.109 68.6394C370.96 70.4728 372.686 72.2163 374.429 73.9419C374.501 74.0318 374.627 74.1037 374.735 74.1396C377.089 74.7867 379.444 75.4158 381.978 76.1168C382.661 73.6184 383.273 71.3176 383.884 68.9989C383.938 68.7652 383.92 68.4956 383.866 68.2799C383.273 65.9972 382.661 63.7504 381.978 61.2519Z" fill="#BFE8D7"/>
<path fill-rule="evenodd" clip-rule="evenodd" d="M366.684 177.332C368.966 175.085 371.051 173 373.172 170.933C373.478 170.645 373.855 170.376 374.251 170.268C377.145 169.459 380.057 168.704 383.13 167.877C383.508 169.189 383.885 170.412 384.209 171.652C384.712 173.557 385.575 175.462 385.575 177.368C385.575 179.273 384.712 181.178 384.209 183.084C383.903 184.27 383.544 185.438 383.166 186.804C382.016 186.517 380.955 186.265 379.913 185.995C377.846 185.438 375.563 185.205 373.748 184.18C371.986 183.173 370.692 181.34 369.218 179.866C368.427 179.111 367.654 178.32 366.684 177.332ZM368.787 177.547C369.721 178.266 370.476 178.644 370.962 179.255C373.172 182.023 375.976 183.677 379.499 184.162C380.326 184.27 381.117 184.504 382.016 184.683C382.663 182.293 383.256 180.1 383.849 177.907C383.921 177.673 383.975 177.404 383.921 177.188C383.292 174.815 382.663 172.461 381.998 169.98C379.553 170.645 377.307 171.238 375.06 171.867C374.718 171.957 374.395 172.191 374.125 172.425C372.471 173.97 370.836 175.57 368.787 177.547Z" fill="#BFE8D7"/>
<path fill-rule="evenodd" clip-rule="evenodd" d="M420.066 14.3026C417.765 16.6033 415.626 18.7243 413.487 20.8453C413.272 21.043 412.984 21.2228 412.697 21.3126C409.749 22.1215 406.783 22.8944 403.655 23.7212C403.062 21.5103 402.595 19.4073 401.912 17.3942C401.211 15.3271 401.193 13.3679 401.894 11.2828C402.577 9.25172 403.044 7.1487 403.655 4.90189C406.801 5.74669 409.821 6.55554 412.822 7.40034C413.146 7.49021 413.451 7.77781 413.703 8.02946C415.788 10.0606 417.837 12.0917 420.066 14.3026ZM404.86 21.6542C407.34 20.9891 409.587 20.3959 411.834 19.7848C412.121 19.7129 412.409 19.5331 412.625 19.3175C414.296 17.6818 415.932 16.0281 417.711 14.2487C416.004 12.595 414.422 11.0492 412.84 9.52135C412.589 9.2697 412.283 9.00009 411.942 8.91022C409.641 8.26314 407.34 7.65199 404.878 6.98694C404.213 9.46742 403.583 11.7682 402.99 14.0869C402.936 14.3026 402.99 14.5722 403.044 14.8059C403.583 16.9808 404.195 19.1737 404.86 21.6542Z" fill="#BFE8D7"/>
<path fill-rule="evenodd" clip-rule="evenodd" d="M325.863 68.6215C323.509 70.9762 321.334 73.1511 319.159 75.3081C318.943 75.5058 318.655 75.6675 318.368 75.7574C315.456 76.5483 312.562 77.3212 309.542 78.13C309.345 77.6807 309.111 77.3212 309.003 76.9258C308.356 74.5531 307.709 72.1805 307.116 69.7899C306.972 69.2147 306.882 68.5676 307.026 68.0104C307.691 65.3142 308.428 62.654 309.165 59.9758C309.219 59.7421 309.363 59.5444 309.524 59.2208C312.526 60.0297 315.492 60.8026 318.44 61.6294C318.781 61.7193 319.105 61.9709 319.356 62.2226C321.46 64.2717 323.563 66.3567 325.863 68.6215ZM323.563 68.5856C322.682 67.7947 321.891 67.2555 321.334 66.5365C319.285 63.9661 316.678 62.4383 313.407 61.9889C312.472 61.8631 311.556 61.5575 310.549 61.3238C309.902 63.7324 309.309 65.9253 308.716 68.1182C308.644 68.3519 308.572 68.6215 308.644 68.8372C309.255 71.1919 309.902 73.5645 310.567 76.0989C313.065 75.4159 315.384 74.8047 317.685 74.1577C317.954 74.0858 318.224 73.8521 318.44 73.6364C320.058 72.0546 321.675 70.4549 323.563 68.5856Z" fill="#BFE8D7"/>
<path fill-rule="evenodd" clip-rule="evenodd" d="M403.656 132.449C402.812 129.321 402.021 126.356 401.23 123.39C401.176 123.156 401.176 122.887 401.23 122.671C402.003 119.705 402.812 116.739 403.638 113.612C406.82 114.475 409.84 115.283 412.859 116.11C413.129 116.182 413.399 116.416 413.614 116.631C415.717 118.699 417.82 120.784 420.049 123.012C418.593 124.468 417.119 125.781 415.843 127.254C414.118 129.25 412.069 130.472 409.462 130.921C407.611 131.245 405.777 131.874 403.656 132.449ZM417.695 122.976C415.969 121.287 414.333 119.687 412.698 118.105C412.482 117.89 412.212 117.692 411.943 117.602C409.642 116.955 407.323 116.344 404.861 115.679C404.196 118.141 403.585 120.442 402.973 122.761C402.92 122.923 402.937 123.138 402.973 123.3C403.585 125.601 404.196 127.902 404.861 130.346C407.323 129.681 409.57 129.088 411.817 128.477C412.105 128.405 412.392 128.225 412.608 128.027C414.261 126.392 415.915 124.738 417.695 122.976Z" fill="#BFE8D7"/>
<path fill-rule="evenodd" clip-rule="evenodd" d="M309.362 186.894C308.499 183.659 307.672 180.639 306.881 177.619C306.809 177.349 306.917 177.008 306.989 176.72C307.69 174.042 308.409 171.364 309.146 168.686C309.2 168.452 309.344 168.254 309.505 167.913C312.507 168.722 315.455 169.513 318.421 170.304C318.654 170.375 318.906 170.483 319.068 170.645C321.297 172.838 323.508 175.049 325.826 177.367C323.526 179.668 321.351 181.843 319.176 184C318.96 184.198 318.672 184.36 318.385 184.449C315.473 185.258 312.561 186.031 309.362 186.894ZM323.418 177.385C321.656 175.624 320.021 173.988 318.349 172.335C318.187 172.173 317.971 171.993 317.756 171.921C315.401 171.256 313.046 170.627 310.566 169.944C309.901 172.407 309.272 174.653 308.697 176.9C308.625 177.188 308.625 177.511 308.697 177.799C309.29 180.046 309.901 182.292 310.566 184.773C313.064 184.09 315.419 183.461 317.774 182.814C317.953 182.76 318.115 182.652 318.241 182.526C319.931 180.855 321.62 179.183 323.418 177.385Z" fill="#BFE8D7"/>
<path fill-rule="evenodd" clip-rule="evenodd" d="M288.889 132.431C285.762 131.604 282.85 130.831 279.956 130.041C279.614 129.951 279.273 129.753 279.003 129.501C276.864 127.398 274.743 125.277 272.479 123.03C274.743 120.766 276.9 118.609 279.075 116.47C279.291 116.272 279.578 116.11 279.866 116.038C282.814 115.229 285.762 114.439 288.871 113.612C289.411 115.589 289.788 117.458 290.435 119.22C291.352 121.754 291.388 124.181 290.453 126.733C289.806 128.513 289.446 130.382 288.889 132.431ZM274.887 122.959C275.57 123.642 276.181 124.163 276.667 124.792C278.859 127.578 281.681 129.232 285.187 129.717C286.013 129.825 286.822 130.058 287.721 130.256C288.368 127.848 288.961 125.655 289.536 123.462C289.608 123.228 289.644 122.959 289.572 122.743C288.961 120.424 288.332 118.123 287.685 115.697C285.258 116.344 283.012 116.937 280.765 117.566C280.423 117.656 280.082 117.872 279.83 118.123C278.212 119.687 276.595 121.287 274.887 122.959Z" fill="#BFE8D7"/>
<path fill-rule="evenodd" clip-rule="evenodd" d="M288.906 4.90179C289.751 8.08329 290.542 11.0311 291.333 13.9969C291.387 14.1767 291.405 14.3744 291.369 14.5361C290.578 17.5559 289.769 20.5576 288.906 23.7391C285.725 22.8943 282.723 22.0854 279.721 21.2766C279.488 21.2227 279.272 21.0609 279.092 20.8991C276.917 18.7422 274.76 16.5852 272.514 14.3384C274.76 12.0916 276.881 9.95264 279.02 7.84962C279.308 7.56202 279.739 7.36433 280.135 7.25648C282.975 6.4656 285.833 5.72862 288.906 4.90179ZM287.702 21.6541C288.367 19.1736 288.96 16.9807 289.554 14.7878C289.625 14.5541 289.661 14.2845 289.607 14.0688C288.996 11.7501 288.367 9.44936 287.72 6.98685C285.258 7.6519 282.939 8.26305 280.638 8.91013C280.369 8.98203 280.099 9.19773 279.883 9.41342C278.248 10.9952 276.63 12.5769 274.886 14.2665C276.666 16.046 278.319 17.6997 279.973 19.3353C280.189 19.551 280.476 19.7128 280.764 19.8027C282.975 20.3959 285.222 20.989 287.702 21.6541Z" fill="#BFE8D7"/>
<path fill-rule="evenodd" clip-rule="evenodd" d="M327.176 3.42793C327.697 3.24819 328.146 3.06844 328.596 2.94261C331.328 2.20566 334.06 1.45072 336.792 0.749717C337.727 0.516047 338.464 0.0846587 339.147 -0.598375C341.412 -2.93507 343.73 -5.23582 346.139 -7.62643C346.588 -7.26694 346.984 -6.9973 347.325 -6.67375C349.338 -4.67858 351.352 -2.68342 353.329 -0.652294C354.048 0.0846626 354.839 0.534032 355.827 0.785676C358.577 1.46871 361.309 2.24162 364.042 2.97858C364.455 3.08642 364.832 3.24818 365.408 3.4459C364.868 5.51298 364.491 7.5621 363.772 9.50335C362.568 12.7747 362.568 15.9202 363.772 19.1736C364.473 21.061 364.85 23.0741 365.426 25.249C364.725 25.4647 364.113 25.6625 363.484 25.8422C360.878 26.5432 358.236 27.2083 355.647 27.9812C354.857 28.2149 354.066 28.6822 353.473 29.2394C351.495 31.0908 349.626 33.05 347.703 34.9733C347.271 35.4047 346.822 35.8001 346.229 36.3573C345.007 35.135 343.838 33.9667 342.67 32.8163C341.124 31.3065 339.776 29.4551 337.978 28.4126C336.235 27.388 334.006 27.2083 331.993 26.6511C330.447 26.2376 328.919 25.8063 327.194 25.3389C327.32 24.6918 327.409 24.0987 327.553 23.5415C328.254 20.8633 329.027 18.203 329.674 15.5068C329.854 14.7699 329.854 13.9251 329.674 13.1881C329.045 10.5638 328.29 7.93954 327.607 5.33323C327.463 4.7221 327.338 4.12894 327.176 3.42793ZM346.337 34.0566C348.476 31.8637 350.453 29.9224 352.34 27.9093C353.131 27.0645 354.048 26.5792 355.162 26.3095C357.427 25.7344 359.674 25.1232 361.939 24.4941C362.388 24.3683 362.819 24.1706 363.359 23.9728C362.999 22.6068 362.658 21.3665 362.334 20.1263C361.831 18.221 360.932 16.3157 360.95 14.4104C360.95 12.4512 361.831 10.474 362.334 8.51474C362.658 7.22057 362.999 5.94438 363.359 4.52439C361.22 3.9492 359.296 3.30212 357.319 2.92465C354.677 2.42136 352.538 1.25302 350.794 -0.832023C349.464 -2.41378 347.882 -3.77987 346.319 -5.34366C344.773 -3.81582 343.281 -2.53963 342.041 -1.04774C340.171 1.18111 337.889 2.45731 335.049 2.97857C333.143 3.32009 331.274 3.98514 329.243 4.54235C329.962 7.25651 330.573 9.8089 331.328 12.3253C331.741 13.6734 331.741 14.9137 331.346 16.2797C330.591 18.7962 329.98 21.3486 329.279 23.9908C329.8 24.1886 330.178 24.3683 330.573 24.4761C332.712 25.0693 334.833 25.7164 336.99 26.2017C338.5 26.5432 339.668 27.2622 340.711 28.3766C342.418 30.228 344.288 32.0075 346.337 34.0566Z" fill="#BFE8D7"/>
<path fill-rule="evenodd" clip-rule="evenodd" d="M346.264 101.066C346.785 101.551 347.252 101.946 347.684 102.36C349.481 104.139 351.296 105.901 353.022 107.734C353.903 108.669 354.891 109.244 356.132 109.55C358.828 110.197 361.488 110.97 364.166 111.688C364.526 111.778 364.849 111.922 365.317 112.102C365.191 112.713 365.119 113.306 364.957 113.881C364.31 116.326 363.699 118.77 362.962 121.179C362.566 122.473 362.62 123.678 362.998 124.954C363.681 127.308 364.292 129.699 364.939 132.09C365.101 132.665 365.209 133.276 365.371 134.013C363.339 134.57 361.416 135.271 359.439 135.613C355.88 136.206 353.004 137.787 350.739 140.609C349.463 142.173 347.971 143.575 346.515 145.121C345.94 144.636 345.545 144.366 345.221 144.025C343.244 142.065 341.267 140.142 339.343 138.129C338.552 137.284 337.636 136.799 336.521 136.511C334.005 135.9 331.524 135.199 329.026 134.534C328.433 134.372 327.876 134.175 327.157 133.941C327.588 132.305 327.983 130.777 328.379 129.25C328.918 127.165 329.889 125.08 329.871 122.994C329.871 120.909 328.9 118.824 328.343 116.739C327.948 115.247 327.552 113.774 327.139 112.174C327.642 111.994 328.091 111.796 328.541 111.671C331.219 110.934 333.879 110.179 336.575 109.514C337.708 109.244 338.588 108.705 339.379 107.878C341.177 106.009 343.028 104.211 344.862 102.378C345.293 101.946 345.742 101.569 346.264 101.066ZM363.357 113.288C362.315 112.983 361.398 112.695 360.463 112.443C358.163 111.796 355.61 111.563 353.597 110.412C351.584 109.244 350.11 107.159 348.403 105.487C347.72 104.804 347.019 104.139 346.12 103.258C345.239 104.229 344.538 105.092 343.765 105.865C342.201 107.429 340.835 109.352 338.966 110.412C337.043 111.509 334.652 111.742 332.459 112.372C331.417 112.677 330.356 112.983 329.206 113.306C329.799 115.535 330.212 117.656 330.931 119.669C331.74 121.988 331.704 124.163 330.913 126.482C330.212 128.495 329.799 130.598 329.206 132.809C331.021 133.312 332.639 133.923 334.31 134.193C337.69 134.732 340.386 136.278 342.525 138.938C343.603 140.25 344.915 141.364 346.21 142.641C346.785 142.119 347.252 141.724 347.666 141.293C349.283 139.693 350.901 138.093 352.483 136.457C353.148 135.756 353.903 135.325 354.819 135.091C357.264 134.48 359.691 133.815 362.135 133.132C362.513 133.024 362.872 132.809 363.303 132.611C362.62 130.005 362.009 127.488 361.272 125.026C360.859 123.677 360.841 122.437 361.254 121.071C362.027 118.573 362.638 116.002 363.357 113.288Z" fill="#BFE8D7"/>
<path fill-rule="evenodd" clip-rule="evenodd" d="M346.047 5.60285C347.449 6.89702 348.402 8.08337 349.624 8.80235C350.793 9.48538 352.267 9.66511 353.866 10.1325C352.59 12.9365 352.59 15.6866 353.92 18.5985C350.703 19.0658 348.168 20.3061 346.407 22.9663C345.167 21.7979 344.232 20.5936 343.01 19.8747C341.841 19.1916 340.349 19.0119 338.768 18.5446C339.738 15.7944 340.116 13.0443 338.588 10.1504C341.662 9.44943 344.412 8.56865 346.047 5.60285ZM351.799 17.4301C350.757 15.2192 351.08 13.2421 351.655 11.0312C349.157 11.175 347.773 9.61118 346.191 8.13727C344.861 10.0066 343.082 10.8694 340.835 11.2469C341.733 13.3679 341.59 15.3271 340.907 17.4301C343.225 17.6997 344.879 18.7423 346.299 20.5577C347.683 18.7602 349.337 17.6997 351.799 17.4301Z" fill="#BFE8D7"/>
<path fill-rule="evenodd" clip-rule="evenodd" d="M353.758 127.398C350.631 127.722 348.186 129.088 346.281 131.82C344.358 129.16 341.949 127.704 338.768 127.416C339.145 125.816 339.72 124.468 339.738 123.102C339.738 121.736 339.181 120.37 338.839 118.824C340.277 118.393 341.787 118.177 343.028 117.476C344.214 116.793 345.113 115.607 346.263 114.51C347.359 115.535 348.294 116.739 349.498 117.458C350.685 118.141 352.159 118.339 353.704 118.806C353.381 120.244 352.806 121.646 352.806 123.066C352.806 124.414 353.381 125.781 353.758 127.398ZM351.763 119.885C349.283 119.687 347.701 118.483 346.209 116.811C344.843 118.681 343.099 119.597 340.817 119.939C341.679 122.042 341.59 124.019 340.871 126.14C343.243 126.374 344.879 127.596 346.389 129.286C347.683 127.236 349.57 126.535 351.727 126.032C350.882 123.983 350.882 122.06 351.763 119.885Z" fill="#BFE8D7"/>
</g>
</g>
<defs>
<clipPath id="clip0">
<rect width="414" height="173" fill="white"/>
</clipPath>
<clipPath id="clip1">
<rect x="200" y="-42.4193" width="429.328" height="429.328" rx="214.664" transform="rotate(-45 200 -42.4193)" fill="white"/>
</clipPath>
</defs>
</svg>
