<svg width="116" height="118" viewBox="0 0 116 118" fill="none" xmlns="http://www.w3.org/2000/svg">
<path fill-rule="evenodd" clip-rule="evenodd" d="M53.4074 26.1281C62.8774 24.678 69.3987 35.8694 75.7723 43.0102C80.9317 48.7906 82.8697 56.1382 86.3631 63.0504C90.7164 71.664 100.759 79.0083 98.7334 88.4418C96.7235 97.8027 85.1118 101.035 77.083 106.27C69.5221 111.201 62.4386 117.96 53.4074 118C44.3611 118.039 35.2286 113.533 29.5801 106.479C24.4505 100.073 27.8816 90.6424 25.2739 82.8653C22.6265 74.97 11.9304 69.0392 14.3549 61.0728C16.7684 53.1426 29.3454 54.705 35.5277 49.173C42.9572 42.525 43.5456 27.6383 53.4074 26.1281Z" fill="#FADBC3"/>
<path d="M40.9321 107.18C42.1516 107.837 43.3629 108.51 44.5926 109.144C45.6095 109.67 46.6858 110.055 47.7907 110.361C49.6342 110.871 51.4471 111.497 53.3336 111.849C56.5091 112.438 59.6867 113.026 62.9196 113.177C64.1718 113.236 65.4343 113.206 66.6865 113.144C68.8553 113.038 71.0242 112.919 73.1869 112.727C75.7384 112.502 78.2899 112.516 80.8435 112.534C80.8332 112.457 80.7657 112.379 80.6368 112.301C80.4506 112.191 80.2481 112.117 80.0373 112.08C79.448 111.978 78.8506 111.941 78.2552 111.906C77.6577 111.872 77.0561 111.945 76.4607 111.829C76.3502 111.808 76.2275 111.806 76.119 111.835C75.8101 111.917 75.495 111.89 75.1819 111.898C74.6397 111.912 74.0995 111.835 73.5593 111.833C72.3624 111.826 71.1633 111.784 69.9643 111.88C69.1725 111.943 68.3704 111.9 67.5704 111.839C66.5903 111.763 65.6041 111.843 64.6199 111.747C63.9263 111.679 63.2245 111.708 62.5267 111.673C61.6449 111.63 60.763 111.552 59.877 111.554C58.9788 111.556 58.0826 111.558 57.1823 111.501C56.2697 111.442 55.3756 111.28 54.4692 111.188C53.6937 111.11 52.9264 110.934 52.1591 110.787C51.1524 110.595 50.1457 110.384 49.1779 110.038C47.7293 109.521 46.2663 109.038 44.8688 108.377C43.8949 107.916 42.9966 107.356 42.1168 106.744C41.3413 106.204 40.6968 105.512 39.9664 104.921C39.1909 104.295 38.4215 103.66 37.6502 103.03C37.5826 102.975 37.5192 102.922 37.4312 102.905C37.2225 102.867 37.1345 102.955 37.2041 103.161C37.3003 103.444 37.4026 103.724 37.5642 103.98C37.91 104.528 38.4052 104.947 38.8164 105.436C39.0824 105.754 39.4139 106.016 39.6738 106.335C39.7781 106.462 39.8845 106.586 39.9909 106.711C39.995 106.705 39.9991 106.697 40.0032 106.691C40.3162 106.852 40.6252 107.014 40.9321 107.18Z" fill="#FADBC3"/>
<path d="M84.1832 59.0074C83.1663 57.9803 81.9734 57.2478 80.5738 56.8917C79.6183 56.6483 78.7671 56.194 77.9057 55.7459C77.5394 55.5556 77.2816 55.2405 77.1875 54.8293C77.122 54.5387 77.0647 54.2441 77.0852 53.9392C77.0893 53.8778 77.0893 53.8144 77.0873 53.751C77.0647 53.796 77.0422 53.839 77.0197 53.884C76.4059 55.0912 76.8294 56.1797 77.6663 57.0943C78.2065 57.6836 78.9103 58.0458 79.6674 58.2954C79.9518 58.3895 80.2383 58.4795 80.5227 58.5736C81.3166 58.8356 82.0409 59.2243 82.7161 59.7195C83.2747 60.1307 83.6246 60.6627 83.7658 61.3318C83.8394 61.6796 83.9151 62.0357 83.9315 62.3896C83.9397 62.5717 83.9499 62.7518 83.9581 62.9339C84.0706 63.4066 84.1054 63.8956 84.0277 64.4071C84.0174 64.4746 84.0052 64.5421 83.9949 64.6097C83.9827 65.0823 83.9458 65.555 83.8619 66.0235C83.7085 66.8788 83.4343 67.7116 83.2235 68.5566C82.5974 71.0713 81.689 73.4939 80.848 75.939C80.181 77.8848 79.5139 79.8327 79.1129 81.8584C78.7712 83.5791 78.5891 85.3061 78.8837 87.0534C78.9206 87.2703 78.9615 87.4852 79.0065 87.698C78.9308 87.125 78.8551 86.5521 78.8121 85.9772C78.7139 84.6452 78.8837 83.3316 79.1866 82.0364C79.5446 80.5079 80.2178 79.1043 80.9667 77.7395C81.5048 76.7615 81.957 75.7487 82.3969 74.7256C82.8143 73.7578 83.1888 72.7696 83.643 71.8161C84.1013 70.8503 84.5187 69.8641 84.8359 68.841C85.1694 67.7668 85.4681 66.6824 85.7014 65.5816C85.8221 65.0107 85.9674 64.4439 85.9981 63.8588C86.0492 62.8398 85.8139 61.8761 85.3965 60.9553C85.0835 60.2535 84.7356 59.566 84.1832 59.0074Z" fill="#FADBC3"/>
<path d="M43.3549 78.3374C42.5958 77.8095 42.0475 77.1097 41.6464 76.2851C40.7993 74.548 40.4372 72.7188 40.6111 70.7954C40.8525 68.113 41.6485 65.6085 42.9089 63.2228C43.979 61.1951 45.2537 59.3229 46.6594 57.5469C46.2931 57.8722 45.933 58.2057 45.5934 58.5617C45.5238 58.6334 45.4501 58.7029 45.3765 58.7684C44.7156 59.3536 44.0424 59.9265 43.3918 60.524C42.381 61.4529 41.6546 62.5946 41.0162 63.7957C40.4781 64.8065 40.0668 65.8704 39.7681 66.9753C39.4469 68.16 39.1931 69.357 39.2136 70.7013C39.1665 71.2394 39.2525 71.8799 39.3302 72.5121C39.4469 73.4595 39.7272 74.372 40.0709 75.2703C40.6827 76.8683 41.7549 78.0141 43.2608 78.8039C44.1815 79.2868 45.1555 79.5957 46.1519 79.8392C46.5939 79.9477 47.0441 80.0602 47.5065 80.0684C46.866 79.9436 46.2358 79.7758 45.6159 79.5405C44.8138 79.2356 44.0629 78.8284 43.3549 78.3374Z" fill="#FADBC3"/>
<path d="M45.9697 60.7118C46.4731 60.1389 46.9641 59.5558 47.4593 58.9747C47.9013 58.4529 48.3739 57.9578 48.7852 57.4115C49.1617 56.9102 49.5402 56.413 49.9637 55.9465C50.2502 55.6314 50.4875 55.2712 50.7433 54.9295C50.8579 54.7781 50.9172 54.6001 50.9274 54.4139C50.9274 54.4078 50.9274 54.4016 50.9274 54.3955C50.0169 55.5045 49.1064 56.6114 48.1877 57.7143C47.3877 58.6719 46.649 59.6724 45.9697 60.7118Z" fill="#FADBC3"/>
<path d="M72.9579 94.7714C72.2929 94.7284 71.6177 94.8226 70.9486 94.8614C69.9215 94.9208 68.8964 94.9944 67.8692 95.0456C65.8988 95.1438 64.3847 94.2844 63.1243 92.8276C61.911 91.424 61.0884 89.8014 60.3212 88.1359C59.9037 87.2295 59.4127 86.3681 58.8521 85.5537C59.0362 86.0407 59.1937 86.5379 59.3431 87.0392C59.7789 88.5001 60.1616 89.9753 60.6935 91.4076C61.2358 92.8726 62.0174 94.133 63.3228 95.0579C64.7019 96.0338 66.1873 96.6293 67.8938 96.6088C68.5056 96.6006 69.1174 96.574 69.7292 96.5474C70.8811 96.4963 71.9881 96.2589 73.0745 95.907C73.5943 95.7392 74.1262 95.6594 74.6623 95.5858C75.2823 95.4978 75.9064 95.4528 76.5304 95.3955C77.0911 95.3423 77.6496 95.2788 78.2123 95.2543C78.0548 95.2277 77.8972 95.2052 77.7376 95.1888C76.1458 95.0272 74.5539 94.8737 72.9579 94.7714Z" fill="#FADBC3"/>
<path d="M41.0774 33.4515C41.6012 33.1916 42.0657 32.8254 42.4667 32.3936C42.7368 32.101 42.9824 31.7859 43.232 31.4749C43.9727 30.5562 44.5783 29.5557 44.9139 28.4221C45.3374 26.996 45.54 25.531 45.5257 24.0394C45.5216 23.6117 45.5093 23.1862 45.4602 22.7606C45.3763 22.0199 45.495 21.2771 45.5605 20.5426C45.5932 20.1641 45.6055 19.7773 45.6689 19.3968C45.806 18.5824 45.9881 17.7783 46.1313 16.966C46.2602 16.2376 46.3482 15.503 46.4792 14.7767C46.561 14.3142 46.6858 13.862 46.7902 13.4037C46.8106 13.3096 46.8577 13.1889 46.7288 13.1459C46.6592 13.1234 46.6203 13.15 46.5897 13.1909C46.1559 14.4861 45.7589 15.7936 45.3825 17.1092C45.1451 17.9358 44.8955 18.7584 44.6397 19.5789C44.6295 19.6321 44.6172 19.6832 44.609 19.7344C44.5967 19.7998 44.5783 19.8612 44.5354 19.9103C44.4433 20.207 44.3512 20.5037 44.2571 20.7983C44.165 21.0869 44.0811 21.3774 44.0054 21.67C43.9584 22.4987 43.8724 23.3232 43.8254 24.1519C43.809 24.4466 43.7824 24.7473 43.7374 25.044C43.633 25.7192 43.4939 26.3863 43.3486 27.0533C43.1788 27.8247 42.9496 28.5654 42.6325 29.2692C42.3481 29.9997 41.9859 30.7015 41.5296 31.3747C40.6866 32.6208 39.551 33.4474 38.2395 34.098C36.5617 34.9328 34.8798 35.7615 33.2061 36.6045C33.2122 36.6045 33.2204 36.6045 33.2265 36.6066C33.7728 36.5636 34.3294 36.4347 34.8573 36.2239C35.5202 35.96 36.1831 35.7104 36.8788 35.5385C37.6707 35.3421 38.4032 34.9758 39.1111 34.5768C39.7679 34.2044 40.3981 33.787 41.0774 33.4515Z" fill="#FADBC3"/>
<path d="M56.4315 31.0462C56.4397 31.0871 56.4335 31.1281 56.3844 31.1444C56.3803 31.1465 56.3722 31.1383 56.366 31.1301C56.321 31.3265 56.2842 31.5291 56.2555 31.7317C56.2903 31.8156 56.2576 31.8892 56.2412 31.9649C56.2248 32.0345 56.2085 32.1041 56.1901 32.1736C56.1 32.7629 55.9609 33.3379 55.789 33.9046C55.5578 35.0177 55.2079 36.0919 54.725 37.117C54.1255 38.3897 53.2825 39.5048 52.3209 40.5299C52.2329 40.6241 52.1388 40.712 52.0528 40.8082C51.9894 40.8798 51.9833 40.9637 52.0426 41.0415C52.0917 41.1049 52.1572 41.109 52.2349 41.0844C52.3986 41.0333 52.5562 40.976 52.7014 40.8757C53.2437 40.4931 53.6979 40.0123 54.1194 39.5151C55.2366 38.1994 55.9548 36.6689 56.3619 34.9973C56.6177 33.9476 56.8203 32.8857 56.9471 31.8094C57.0678 30.7823 57.3993 29.8124 57.8331 28.8753C57.9292 28.6686 58.0131 28.4559 58.0991 28.2451C58.1216 28.1919 58.1339 28.1305 58.0848 28.0855C58.0213 28.0262 57.9518 28.0487 57.8945 28.0957C57.7287 28.2328 57.5916 28.3965 57.4975 28.595C57.254 29.1106 56.9635 29.6037 56.7589 30.1398C56.7343 30.2053 56.7057 30.283 56.6075 30.3096C56.5256 30.5408 56.4561 30.7741 56.3967 31.0114C56.411 31.0196 56.4294 31.0319 56.4315 31.0462Z" fill="#FADBC3"/>
<path d="M55.4701 30.2619C55.5397 29.8465 55.5376 29.4046 55.4885 28.9851C55.3228 27.5835 55.4046 26.1881 55.5131 24.7926C55.6584 22.9123 55.8752 21.038 55.7995 19.1474C55.7975 19.1208 55.8159 19.0942 55.8405 19.0185C56.1187 19.131 56.1903 19.3602 56.2292 19.573C56.3417 20.1746 56.4911 20.7823 56.5054 21.39C56.5402 22.8447 56.5013 24.3036 56.4993 25.7604C56.4973 26.362 56.5013 26.9636 56.5054 27.5651C56.5054 27.0822 56.5054 26.5993 56.5034 26.1165C56.5034 26.0019 56.5013 25.8873 56.5157 25.7748C56.6016 24.9972 56.6773 24.2177 56.6773 23.434C56.6773 22.4908 56.6732 21.5475 56.6712 20.6042C56.6712 20.504 56.6773 20.4037 56.665 20.3035C56.5402 19.2579 56.3806 18.2164 56.0532 17.2118C55.9346 16.8455 55.8364 16.4711 55.6502 16.1294C55.6011 16.0394 55.5479 15.935 55.4292 15.9759C55.3003 16.0189 55.3453 16.1355 55.3596 16.2317C55.421 16.6819 55.4599 17.1361 55.5151 17.5862C55.5704 18.0261 55.5683 18.4681 55.6236 18.906C55.7075 19.5464 55.6849 20.1909 55.6461 20.8293C55.597 21.6375 55.5028 22.4437 55.4169 23.2499C55.3535 23.8432 55.2941 24.4387 55.198 25.0279C55.0404 25.9978 54.9258 26.9717 54.9074 27.9559C54.8972 28.4265 54.9422 28.8951 54.9729 29.3636C55.022 30.133 54.8808 30.8962 54.7622 31.6553C54.6496 32.3735 54.3939 33.0589 54.2199 33.7628C54.1524 34.0369 54.1647 34.2191 54.2588 34.3398C54.5207 33.6093 54.7785 32.8768 55.02 32.1382C55.2225 31.5243 55.3658 30.8941 55.4701 30.2619Z" fill="#FADBC3"/>
<path d="M75.037 30.4976C75.127 30.3605 75.1045 30.2787 75.0779 30.1968C74.9633 29.8408 74.7976 29.5093 74.597 29.1963C74.1449 28.4863 73.662 27.7988 73.1423 27.1379C72.7024 26.5773 72.2768 26.0044 71.7632 25.5092C71.1575 24.9261 70.47 24.437 69.8337 23.8928C68.7881 22.9986 67.6566 22.2375 66.4801 21.5377C65.3855 20.887 64.3829 20.1157 63.411 19.2993C62.9301 18.8962 62.4513 18.4931 61.9889 18.0675C61.3403 17.47 60.6446 16.9258 60.0799 16.2362C59.1612 15.115 58.4676 13.8914 58.1606 12.4632C58.0706 12.0458 57.9663 11.6325 57.8599 11.2192C57.7821 10.9245 57.6389 10.6586 57.4036 10.4601C57.0783 10.188 56.6752 10.2821 56.4767 10.6565C56.4481 10.7118 56.4255 10.765 56.4092 10.8202C56.4726 10.8918 56.5279 10.9675 56.5606 11.0494C56.6649 11.3092 56.7263 11.5977 56.7488 11.8801C56.8818 13.5313 57.5693 14.9145 58.7008 16.1135C59.7259 17.202 60.8881 18.1228 62.0933 18.9944C63.2739 19.8476 64.4668 20.6865 65.6556 21.5275C66.5292 22.1454 67.4459 22.7122 68.2766 23.3853C69.138 24.0831 69.9953 24.7931 70.822 25.5338C71.0634 25.722 71.2987 25.9184 71.5177 26.1374C71.6691 26.2888 71.8164 26.4422 71.9596 26.5977C72.7064 27.3364 73.3796 28.1364 73.9259 29.0244C74.0692 29.2168 74.2124 29.4111 74.3556 29.6055C74.5704 29.8961 74.7341 30.2316 75.037 30.4976Z" fill="#FADBC3"/>
<path d="M77.7584 52.384C77.7482 52.4045 77.7379 52.427 77.7277 52.4474C77.7809 52.3697 77.8321 52.294 77.8873 52.2183C78.8285 50.9476 79.7513 49.6668 80.5554 48.3C81.1734 47.2483 81.4946 46.1393 81.4578 44.8482C81.5028 44.2364 81.378 43.5591 81.2675 42.888C81.1386 42.1003 80.936 41.333 80.4879 40.6455C80.1667 40.1524 79.8127 39.694 79.3851 39.2889C79.2111 39.1232 79.0147 38.9697 78.894 38.7549C78.5932 38.2188 78.2842 37.6888 78.0346 37.1282C77.8382 36.6863 77.6418 36.2443 77.6725 35.7348C77.6868 35.4975 77.6213 35.256 77.5865 35.0166C77.5742 34.9266 77.5251 34.855 77.431 34.8325C77.3328 34.81 77.2612 34.8611 77.2203 34.9409C77.1753 35.0289 77.1323 35.123 77.1139 35.2171C76.8949 36.3609 77.0668 37.431 77.6336 38.4561C77.9691 38.851 78.2863 39.2644 78.585 39.692C79.1334 40.4736 79.4096 41.3493 79.4137 42.3069C79.4137 42.4624 79.4137 42.6179 79.4117 42.7734C79.4219 42.8471 79.4342 42.9187 79.4403 42.9924C79.5262 43.8661 79.6899 44.7275 79.6142 45.6196C79.5631 46.2293 79.4239 46.8063 79.2193 47.3649C79.2009 47.7639 79.1743 48.1649 79.1027 48.5537C78.8613 49.9 78.3395 51.1543 77.7584 52.384Z" fill="#FADBC3"/>
<path d="M56.3866 31.1438C56.4336 31.1295 56.4418 31.0865 56.4336 31.0456C56.4296 31.0313 56.4111 31.019 56.3989 31.0088C56.3886 31.0497 56.3784 31.0886 56.3682 31.1295C56.3743 31.1377 56.3825 31.1438 56.3866 31.1438Z" fill="white"/>
<path d="M65.8762 57.4343C64.9472 59.2288 64.1984 61.0928 63.6357 63.0345C63.163 64.6632 62.8418 66.3103 62.9952 68.0209C63.1119 69.3222 63.4597 70.5396 64.2413 71.6179C64.9309 72.5694 65.8536 72.9418 66.9954 72.8415C67.6072 72.7883 68.2149 72.7003 68.8266 72.6471C69.3382 72.6021 69.8517 72.5448 70.3653 72.5551C71.8385 72.5837 72.9209 73.4042 73.3363 74.771C73.4795 75.2416 73.5163 75.7224 73.4856 76.2114C73.4345 77.0176 73.2299 77.789 72.9761 78.5481C72.6303 79.5793 72.3705 80.6331 72.2191 81.7093C72.1352 82.3007 72.1127 82.9022 72.0759 83.4997C72.0636 83.7002 72.0984 83.8987 72.3664 83.9805C72.4053 83.8925 72.4544 83.823 72.4687 83.7473C72.5424 83.3401 72.6324 82.9329 72.6733 82.5216C72.7899 81.3492 73.0498 80.2116 73.4181 79.0965C73.5654 78.6484 73.725 78.2044 73.8437 77.7481C74.0749 76.8601 74.2324 75.9639 74.0606 75.037C73.7741 73.4799 72.6897 72.2809 71.1919 71.9842C70.6538 71.8778 70.085 71.8819 69.5325 71.8942C68.5913 71.9146 67.6501 71.9965 66.7089 72.0251C66.0153 72.0476 65.4772 71.7387 65.07 71.1739C64.673 70.6235 64.3743 70.0281 64.1943 69.3734C63.8178 67.9963 63.8178 66.6029 64.0674 65.2095C64.3825 63.4622 64.8797 61.7598 65.5304 60.1106C66.0603 58.7704 66.6619 57.4568 67.2307 56.133C67.7299 54.9728 68.1023 53.7759 68.2619 52.5196C68.3049 52.182 68.2906 51.8362 68.2803 51.4945C68.2762 51.3737 68.2619 51.2162 68.0716 51.165C68.0716 52.3395 67.7381 53.4199 67.2962 54.4593C66.8706 55.4721 66.3815 56.4583 65.8762 57.4343Z" fill="black"/>
<path d="M34.5469 29.4029C34.7331 29.3988 34.8292 29.2822 34.8742 29.1165C34.909 28.9937 34.9397 28.8668 34.9561 28.74C35.2078 26.8985 36.0651 25.3987 37.4933 24.2181C37.6692 24.0728 37.8411 23.9214 38.0068 23.7638C38.2769 23.5081 38.545 23.2523 38.8028 22.9843C39.9138 21.8426 40.456 20.4676 40.4438 18.8777C40.4376 18.1064 40.4028 17.337 40.3803 16.5656C40.3619 16.5656 40.3435 16.5656 40.3251 16.5677C40.3046 15.6531 40.2862 14.7405 40.2657 13.8259C40.2596 13.5845 40.2944 13.3041 40.0059 13.2059C39.7112 13.1057 39.5701 13.3492 39.433 13.5497C38.6555 14.6791 37.8738 15.8065 37.1127 16.9462C36.6932 17.5764 36.2983 18.223 35.9116 18.8736C34.907 20.5699 34.5141 22.4175 34.5653 24.3756C34.5735 24.7132 34.5244 25.0549 34.4834 25.3925C34.3709 26.3563 34.2379 27.3179 34.1376 28.2817C34.111 28.5456 34.1581 28.8218 34.199 29.0899C34.2256 29.274 34.3382 29.407 34.5469 29.4029ZM35.1668 25.2575C35.4083 24.1506 35.8011 23.0968 36.2758 22.0717C36.5582 21.464 36.8303 20.8502 37.0943 20.2343C37.1618 20.0747 37.3091 19.8517 37.0943 19.7392C36.8508 19.6102 36.7464 19.8721 36.6605 20.0358C36.2513 20.8031 35.8564 21.5766 35.4574 22.35C35.394 22.4728 35.3387 22.5976 35.1996 22.6978C35.2446 22.44 35.2773 22.1781 35.3367 21.9244C35.5883 20.8297 36.0139 19.8046 36.6257 18.8634C37.5035 17.5109 38.4038 16.1728 39.2938 14.8285C39.3941 14.6791 39.4964 14.5298 39.5967 14.3804C39.6233 14.3927 39.6519 14.4049 39.6785 14.4193C39.7337 15.8311 39.7992 17.2409 39.8422 18.6527C39.8913 20.2364 39.345 21.5868 38.2012 22.6896C37.9966 22.8881 37.8002 23.0968 37.5853 23.283C36.6891 24.0605 35.8175 24.8585 35.173 25.9736C35.0829 25.6811 35.1198 25.4703 35.1668 25.2575Z" fill="black"/>
<path d="M97.9985 63.0827C97.9433 62.5282 97.843 61.9778 97.8246 61.4233C97.798 60.697 97.8062 59.9665 97.8451 59.2401C97.9699 56.9158 97.3683 54.8349 95.8297 53.0568C95.5207 52.7008 95.2117 52.3448 94.8926 51.999C94.2869 51.3401 93.7754 50.6281 93.5176 49.7564C93.4644 49.5784 93.3907 49.4065 93.315 49.2388C93.2393 49.071 93.1186 48.9523 92.914 49.0014C92.7339 49.0464 92.6378 49.2203 92.7012 49.4495C92.7769 49.7237 92.8894 49.9876 92.9795 50.2577C93.1104 50.6485 93.2659 51.0352 93.3559 51.4363C93.6035 52.535 93.5421 53.6502 93.5278 54.7632C93.5278 55.5346 93.5012 56.306 93.5339 57.0753C93.5708 57.9143 93.849 58.6897 94.2317 59.4366C95.0276 60.9875 96.1529 62.3011 97.2231 63.6556C97.2578 63.7006 97.2988 63.7416 97.3438 63.7763C97.6179 63.9912 97.9269 63.8889 97.9903 63.5513C98.019 63.3999 98.0149 63.2362 97.9985 63.0827ZM97.2742 62.4689C97.2169 62.432 97.176 62.4177 97.1535 62.3891C96.4169 61.4602 95.7048 60.5149 95.1156 59.4795C94.5815 58.5383 94.2705 57.548 94.2419 56.4677C94.2112 55.3689 94.1826 54.2701 94.1498 53.0977C94.2358 53.2246 94.2951 53.2941 94.336 53.3719C94.8639 54.4072 95.2977 55.4732 95.5207 56.6211C95.58 56.926 95.7069 57.2206 95.8174 57.5132C95.8644 57.6401 95.9545 57.7506 96.022 57.8631C96.2778 57.7976 96.2553 57.6339 96.245 57.4784C96.1509 56.0932 95.8112 54.7755 95.1442 53.5499C95.0849 53.4415 95.0399 53.3248 95.0215 53.1898C95.4961 53.6502 95.9402 54.131 96.2634 54.7141C97.0021 56.0482 97.3335 57.4743 97.264 58.9966C97.2374 59.5818 97.2128 60.167 97.2149 60.7522C97.2149 61.1798 97.2599 61.6075 97.2803 62.0351C97.2803 62.1701 97.2742 62.3052 97.2742 62.4689Z" fill="black"/>
<path d="M79.1186 81.8586C79.5196 79.8329 80.1846 77.885 80.8537 75.9392C81.6926 73.4941 82.601 71.0715 83.2292 68.5568C83.4399 67.7118 83.7141 66.879 83.8676 66.0237C83.9515 65.5552 83.9883 65.0825 84.0006 64.6099C84.0149 64.0533 83.9924 63.4927 83.9637 62.9341C83.9555 62.752 83.9453 62.5719 83.9371 62.3898C83.9208 62.0359 83.8451 61.6819 83.7714 61.332C83.6282 60.6629 83.2783 60.1309 82.7218 59.7197C82.0465 59.2225 81.3222 58.8357 80.5283 58.5738C80.2439 58.4797 79.9575 58.3897 79.673 58.2956C78.916 58.046 78.2121 57.6838 77.672 57.0945C76.8351 56.1799 76.4095 55.0914 77.0254 53.8842C77.0479 53.8392 77.0704 53.7962 77.0929 53.7512C77.3118 53.3194 77.5267 52.8857 77.7333 52.4478C77.7436 52.4273 77.7538 52.4048 77.764 52.3844C78.3451 51.1547 78.8648 49.8984 79.1145 48.5561C79.1861 48.1653 79.2127 47.7663 79.2311 47.3673C79.2393 47.2098 79.2454 47.0543 79.2536 46.8967C79.2638 46.7207 79.2536 46.5182 78.9774 46.3545C78.8812 46.5284 78.7789 46.6757 78.7155 46.8394C77.9298 48.8201 77.0499 50.7557 76.0269 52.6279C75.81 53.0268 75.6443 53.4586 75.499 53.8903C75.3005 54.4816 75.235 55.0975 75.4294 55.7032C75.7875 56.8183 76.3624 57.78 77.3671 58.449C78.0423 58.8992 78.7666 59.2163 79.5482 59.4209C80.4362 59.6521 81.2874 59.9632 82.0977 60.4092C82.6972 60.7386 83.0348 61.2072 83.1964 61.8558C83.4317 62.7991 83.3274 63.728 83.1494 64.659C82.9673 65.6227 82.5744 66.5107 82.2164 67.4151C81.3734 69.5389 80.5611 71.6771 79.6956 73.7908C78.4495 76.8354 77.5799 79.9782 77.1359 83.2376C76.8985 84.9871 76.9845 86.7181 77.5369 88.4081C78.0096 89.8507 78.5722 91.2502 79.4562 92.5065C79.8572 93.0774 80.1784 93.7055 80.5324 94.3091C80.5692 94.3726 80.5795 94.4524 80.6204 94.5833C80.469 94.5076 80.3851 94.4605 80.2951 94.4237C79.7303 94.1843 79.184 93.8794 78.5988 93.7178C76.0187 93.0119 73.4017 92.8339 70.7459 93.2308C69.7024 93.3863 68.6466 93.4764 67.5928 93.5582C66.9504 93.6094 66.2874 93.593 65.7165 93.2451C65.2439 92.9566 64.759 92.6518 64.3804 92.2548C63.6397 91.4794 62.9911 90.622 62.5267 89.644C62.1829 88.9217 61.8514 88.1933 61.5016 87.4731C60.6381 85.6909 59.5905 84.0274 58.2789 82.5338C56.3474 80.3342 53.9248 79.0595 51.0214 78.7035C50.1559 78.5971 49.2863 78.548 48.4208 78.4416C46.9394 78.2615 45.5522 77.8093 44.3163 76.9438C43.8641 76.6267 43.4979 76.2379 43.2175 75.7612C42.4953 74.5233 42.1167 73.1871 42.1126 71.759C42.1024 69.2832 42.7551 66.9527 43.7618 64.7183C44.3941 63.3167 45.1347 61.9847 45.9696 60.7079C46.6489 59.6706 47.3875 58.67 48.1896 57.7083C49.1083 56.6075 50.0188 55.4985 50.9293 54.3896C52.0219 53.0575 53.1125 51.7235 54.2031 50.3894C54.5182 50.0027 54.8128 49.5955 55.085 49.1781C55.2384 48.9428 55.3428 48.6707 55.441 48.4026C55.5085 48.2164 55.5167 48.0139 55.3305 47.8318C55.2405 47.8932 55.1504 47.9341 55.087 48.0016C54.1847 48.9776 53.2762 49.9475 52.3902 50.9378C51.314 52.1409 50.2807 53.3829 49.1942 54.5758C48.3144 55.5395 47.4673 56.5257 46.6611 57.5426C45.2555 59.3186 43.9807 61.1929 42.9106 63.2185C41.6502 65.6043 40.8543 68.1108 40.6129 70.7912C40.4389 72.7145 40.8011 74.5458 41.6482 76.2809C42.0492 77.1054 42.5976 77.8052 43.3567 78.3331C44.0646 78.8242 44.8156 79.2314 45.6217 79.5383C46.2396 79.7736 46.8719 79.9414 47.5123 80.0662C48.2285 80.2053 48.9548 80.2871 49.6873 80.3342C51.6475 80.459 53.4747 81.0258 55.1811 81.9854C55.9955 82.4437 56.7341 83.0044 57.3684 83.6919C57.9127 84.2791 58.4038 84.9011 58.8539 85.5538C59.4145 86.3682 59.9056 87.2296 60.323 88.136C61.0903 89.8015 61.9108 91.4241 63.1262 92.8277C64.3866 94.2846 65.9007 95.1439 67.8711 95.0457C68.8982 94.9946 69.9233 94.9209 70.9505 94.8616C71.6196 94.8227 72.2948 94.7286 72.9598 94.7715C74.5557 94.8738 76.1497 95.0273 77.7395 95.1889C77.8991 95.2053 78.0566 95.2278 78.2142 95.2544C79.1595 95.414 80.0475 95.7578 80.87 96.2775C81.1422 96.4494 81.4368 96.5414 81.7601 96.5476C81.9667 96.5517 82.1059 96.4616 82.2184 96.2918C82.4148 95.9972 82.3862 95.6902 82.2737 95.3874C82.1018 94.9332 81.9258 94.479 81.7212 94.039C81.3038 93.1469 80.9334 92.2221 80.4219 91.3852C79.716 90.2292 79.2843 88.9933 79.0122 87.6961C78.9671 87.4833 78.9262 87.2685 78.8894 87.0516C78.5947 85.3063 78.7769 83.5793 79.1186 81.8586Z" fill="black"/>
<path d="M95.136 91.5841C94.8291 89.7262 94.3994 87.8867 93.9861 86.0473C93.1268 82.2293 92.2367 78.4174 91.3691 74.5993C90.9436 72.7333 90.5057 70.8693 90.2704 68.9643C90.033 67.0512 89.8202 65.132 89.5174 63.227C89.1819 61.1073 89.1839 58.9896 89.3435 56.8596C89.4663 55.2349 89.5624 53.6103 89.4274 51.9796C89.2862 50.2834 88.9527 48.6465 88.1772 47.1139C87.811 46.3876 87.5204 45.6244 87.1705 44.8878C86.481 43.435 86.0206 41.9086 85.6462 40.3475C85.2472 38.6799 84.75 37.0389 84.0789 35.4552C83.5489 34.2071 82.8778 33.0551 81.867 32.1262C81.4394 31.7333 80.9647 31.4285 80.4061 31.2607C79.1887 30.8944 78.096 31.3425 77.5293 32.4843C77.3267 32.8894 77.2039 33.3375 77.0566 33.7692C77.0137 33.8981 76.9666 34.0516 77.1814 34.1825C77.2674 34.068 77.3513 33.9452 77.4454 33.8306C77.7707 33.4337 78.0674 33.0081 78.4336 32.6561C78.8756 32.2305 79.4199 32.1569 79.9805 32.4433C80.2199 32.5661 80.4634 32.6991 80.668 32.871C81.2368 33.3539 81.7463 33.9022 82.0962 34.5652C82.4277 35.1954 82.7673 35.8337 83.0047 36.5028C83.5285 37.9822 84.0113 39.4799 84.4738 40.9797C84.8236 42.1153 85.1797 43.2407 85.7198 44.3046C86.3664 45.5773 86.9905 46.8643 87.5961 48.1575C87.813 48.6199 87.9787 49.113 88.1117 49.6061C88.3798 50.6046 88.4514 51.6317 88.5046 52.6609C88.5926 54.394 88.3982 56.1148 88.2898 57.8396C88.1056 60.7247 88.0831 63.6076 88.3 66.4906C88.3982 67.7858 88.5639 69.0769 88.7072 70.368C88.9343 72.412 89.1409 74.4602 89.4049 76.5002C89.6545 78.4296 90.1763 80.308 90.6346 82.1945C91.4715 85.6524 92.3595 89.096 93.182 92.558C93.8204 95.2405 94.4076 97.9331 94.9867 100.63C95.2895 102.04 95.5575 103.456 95.5944 104.908C95.6291 106.257 95.4082 107.554 95.0051 108.829C94.9539 108.99 94.8864 109.152 94.7984 109.297C94.2398 110.212 93.6894 111.135 92.8014 111.787C92.6991 111.863 92.605 111.953 92.5191 112.049C92.4188 112.162 92.341 112.315 92.4577 112.432C92.5436 112.516 92.7012 112.534 92.8321 112.563C92.8812 112.573 92.9467 112.544 92.9938 112.518C93.315 112.338 93.6751 112.199 93.9472 111.959C94.9519 111.073 95.6823 109.993 96.0936 108.708C96.4292 107.664 96.5458 106.584 96.5908 105.5C96.6665 103.611 96.5744 101.725 96.333 99.8524C95.9729 97.0922 95.5903 94.332 95.136 91.5841Z" fill="black"/>
<path d="M41.5278 31.3748C41.984 30.7016 42.3442 29.9998 42.6306 29.2694C42.915 28.5409 43.1237 27.7818 43.271 26.9982C43.2874 26.9122 43.2731 26.8202 43.2731 26.7301C43.2485 26.726 43.224 26.7199 43.1994 26.7158C43.1544 26.812 43.1012 26.9061 43.0664 27.0043C42.8229 27.745 42.4321 28.4079 41.9861 29.0402C41.714 29.4249 41.4336 29.8034 41.1533 30.184C40.5968 30.939 39.94 31.5917 39.1338 32.0766C38.387 32.5268 37.6402 32.9728 36.879 33.3964C35.2053 34.3294 33.5173 35.2399 31.6962 35.8558C29.9488 36.4471 28.3426 37.3003 26.8081 38.3091C24.6433 39.7311 22.6688 41.37 21.0646 43.4121C18.7341 46.381 17.5781 49.7182 18.1162 53.526C18.2717 54.6268 18.5029 55.7194 18.728 56.81C18.8528 57.4095 19.0533 57.9947 19.1904 58.5921C19.7244 60.9452 20.2482 63.3023 20.7741 65.6574C20.8764 66.1177 21.0135 66.574 21.0687 67.0385C21.2999 68.9659 21.6191 70.8831 21.7419 72.8249C21.8647 74.7912 22.0754 76.7534 22.2411 78.7177C22.3598 80.1274 22.4887 81.5351 22.5767 82.947C22.6524 84.1439 22.7363 85.343 22.5931 86.542C22.5869 86.589 22.6156 86.6402 22.6401 86.7302C22.9307 86.5563 23.0084 86.2903 23.0555 86.0366C23.166 85.4473 23.2785 84.8539 23.3154 84.2585C23.4279 82.4334 23.4995 80.6062 23.5998 78.779C23.6632 77.6209 23.6468 76.4669 23.5159 75.3129C23.387 74.1773 23.2622 73.0418 23.1619 71.9041C23.0698 70.8504 22.9655 69.8007 22.7547 68.7613C22.6013 68.0063 22.4765 67.2431 22.3762 66.4799C22.0284 63.8568 21.5148 61.2664 20.8375 58.7088C20.416 57.1189 20.0641 55.5168 19.7776 53.8963C19.3561 51.5106 19.6078 49.221 20.7475 47.0664C21.9792 44.74 23.5957 42.7164 25.697 41.1143C27.4035 39.813 29.2041 38.6467 31.1151 37.6645C31.8108 37.3065 32.5106 36.9525 33.2083 36.6006C34.882 35.7576 36.5639 34.9289 38.2417 34.0941C39.5492 33.4475 40.6848 32.6209 41.5278 31.3748Z" fill="black"/>
<path d="M44.5357 19.9105C44.5705 19.8 44.6053 19.6896 44.64 19.5791C44.8958 18.7586 45.1475 17.936 45.3828 17.1094C45.7593 15.7938 46.1562 14.4863 46.59 13.1911C47.0524 11.8059 47.5578 10.433 48.1246 9.08253C48.8632 7.32492 49.6919 5.61642 50.8561 4.09821C51.2101 3.63579 51.6111 3.20201 52.0367 2.80507C52.6076 2.27308 53.2889 2.14827 54.0255 2.44495C54.2506 2.53498 54.4839 2.61683 54.6885 2.74164C55.5847 3.28386 56.4215 3.90178 57.1193 4.69158C57.6574 5.30337 58.1832 5.92743 58.7357 6.52285C62.4617 10.5332 66.2858 14.4454 70.3023 18.1693C70.6993 18.5376 71.084 18.9243 71.4482 19.3274C72.5571 20.5591 73.6539 21.8011 74.7506 23.0431C75.4217 23.8043 76.0969 24.5613 76.7476 25.3389C77.6376 26.4049 78.5768 27.4136 79.6531 28.3016C80.5227 29.0198 81.3513 29.7891 82.1698 30.5646C82.8429 31.203 83.4854 31.8741 84.1238 32.5473C84.4062 32.846 84.711 33.1529 84.8931 33.5131C85.2307 34.1719 85.5233 34.8614 85.7668 35.5612C86.2497 36.9505 86.6917 38.3541 87.1418 39.7537C87.504 40.875 87.6247 42.0126 87.3526 43.1748C87.3198 43.3119 87.3075 43.4571 87.3014 43.5983C87.2932 43.7538 87.3546 43.8827 87.5122 43.9359C87.6861 43.9953 87.8375 43.9237 87.9132 43.7743C87.9991 43.5983 88.0748 43.4039 88.0953 43.2116C88.2385 41.8203 88.1874 40.4412 87.7679 39.0969C87.4099 37.9511 87.0743 36.7971 86.6548 35.6737C85.9837 33.8732 84.9934 32.267 83.5775 30.935C82.1002 29.5436 80.6475 28.1297 79.1906 26.7159C78.9246 26.4581 78.6873 26.1696 78.4561 25.879C77.7318 24.9767 77.0422 24.0437 76.2913 23.1659C75.0473 21.7111 73.7664 20.287 72.4937 18.8568C72.1704 18.4946 71.8369 18.1406 71.487 17.803C70.0057 16.3769 68.512 14.961 67.0306 13.5349C63.9205 10.5414 60.8636 7.49475 58.0195 4.24553C57.2113 3.32273 56.264 2.56977 55.2512 1.89455C54.9913 1.72063 54.7028 1.58763 54.4184 1.45668C53.2337 0.916511 52.1493 1.12112 51.2019 1.97639C50.76 2.37539 50.3569 2.82962 49.9947 3.30432C49.2233 4.31919 48.5727 5.41181 48.0264 6.56581C46.8151 9.12959 45.8595 11.7936 45.08 14.5149C44.6094 16.16 44.2943 17.8501 43.8891 19.5156C43.6354 20.5591 43.4124 21.6068 43.4001 22.683C43.396 23.1495 43.4553 23.6181 43.4901 24.1685C43.5986 24.06 43.6293 24.0437 43.6313 24.0232C43.6477 23.925 43.662 23.8247 43.6661 23.7265C43.7009 23.0247 43.8236 22.3413 43.9996 21.6681C44.0753 21.3755 44.1592 21.085 44.2513 20.7965C44.3515 20.5019 44.4436 20.2052 44.5357 19.9105Z" fill="black"/>
<path d="M84.6722 112.992C83.596 112.769 82.5197 112.543 81.4107 112.537C81.2225 112.535 81.0342 112.535 80.846 112.533C78.2924 112.515 75.7389 112.498 73.1895 112.726C71.0267 112.918 68.8578 113.037 66.689 113.143C65.4347 113.204 64.1743 113.233 62.9221 113.176C59.6892 113.024 56.5116 112.437 53.3361 111.848C51.4496 111.498 49.6367 110.872 47.7932 110.36C46.6883 110.055 45.612 109.669 44.5951 109.143C43.3654 108.509 42.1541 107.833 40.9346 107.179C40.6277 107.013 40.3187 106.851 40.0098 106.688C40.0057 106.696 40.0016 106.702 39.9975 106.708C39.9914 106.72 39.9832 106.733 39.9771 106.747C40.1939 107.025 40.4026 107.307 40.6277 107.58C40.8262 107.821 41.0103 108.089 41.2538 108.275C42.7904 109.452 44.3946 110.53 46.2136 111.216C47.7891 111.809 49.3973 112.322 51.0076 112.818C52.9084 113.403 54.8727 113.718 56.8247 114.08C60.5813 114.774 64.3564 115.046 68.1704 114.678C70.5295 114.45 72.8948 114.279 75.256 114.049C77.0648 113.875 78.8776 113.826 80.6905 113.824C81.9325 113.822 83.1765 113.832 84.4185 113.83C84.617 113.83 84.8216 113.822 85.0119 113.771C85.1162 113.742 85.2615 113.62 85.2676 113.532C85.2779 113.415 85.1981 113.255 85.1039 113.176C84.9873 113.075 84.8216 113.022 84.6722 112.992Z" fill="black"/>
<path d="M78.591 39.6939C78.2903 39.2662 77.9752 38.855 77.6396 38.458C77.081 37.7992 76.4692 37.1894 75.792 36.637C73.6947 34.9285 72.0762 32.8558 70.9979 30.3657C70.822 29.9585 70.6378 29.5575 70.4414 29.1605C70.1918 28.6551 69.7784 28.3482 69.2239 28.2357C68.9723 28.1845 68.7186 28.1415 68.4648 28.0986C67.7037 27.9676 66.9344 27.849 66.2346 27.5073C65.4898 27.143 64.7512 26.7666 64.0391 26.343C63.3107 25.9113 62.5414 25.6432 61.7045 25.5532C59.9755 25.365 58.5453 25.9072 57.5038 27.3292C57.2194 27.718 56.9985 28.1559 56.7488 28.5712C56.7038 28.6469 56.6506 28.7206 56.5585 28.8618C56.534 28.6797 56.5115 28.5856 56.5115 28.4914C56.5094 28.1804 56.5074 27.8674 56.5053 27.5564C56.5012 26.9548 56.4992 26.3532 56.4992 25.7517C56.5033 24.2949 56.5401 22.838 56.5053 21.3812C56.491 20.7735 56.3416 20.1658 56.2291 19.5643C56.1882 19.3515 56.1186 19.1223 55.8404 19.0098C55.8158 19.0855 55.7994 19.1121 55.7994 19.1387C55.8751 21.0293 55.6582 22.9056 55.513 24.7839C55.4045 26.1814 55.3227 27.5768 55.4884 28.9764C55.5375 29.3958 55.5375 29.8378 55.47 30.2531C55.3657 30.8854 55.2204 31.5176 55.0219 32.1253C54.7805 32.864 54.5247 33.5965 54.2608 34.3269C54.1073 34.7525 53.9538 35.1761 53.7983 35.6017C53.2029 37.2324 52.3374 38.6974 51.0913 39.9251C50.899 40.1133 50.7333 40.3343 50.5798 40.5553C50.4018 40.811 50.4018 41.032 50.5471 41.1834C50.6821 41.3246 50.897 41.3615 51.1425 41.2203C51.4248 41.0586 51.7093 40.8806 51.9446 40.6576C53.3727 39.3153 54.4408 37.7357 55.1099 35.882C55.3493 35.2231 55.5887 34.5643 55.7892 33.8972C55.9611 33.3305 56.1002 32.7555 56.1902 32.1662C56.2046 32.0742 56.2209 31.9841 56.2312 31.89C56.2373 31.8348 56.2475 31.7795 56.2557 31.7243C56.2844 31.5217 56.3212 31.3212 56.3662 31.1227C56.3764 31.0818 56.3867 31.0429 56.3969 31.002C56.4562 30.7647 56.5258 30.5294 56.6076 30.3002C56.7488 29.9032 56.9187 29.5145 57.1212 29.136C57.4997 28.4219 57.9683 27.7794 58.5883 27.2556C59.0016 26.9057 59.4701 26.6683 60.0001 26.5742C61.1275 26.3737 62.1874 26.564 63.1695 27.1656C63.8754 27.5993 64.5854 28.0229 65.2954 28.4526C65.7783 28.7451 66.296 28.9518 66.8505 29.0357C67.5564 29.14 68.2664 29.2239 68.9764 29.2955C69.2956 29.3283 69.5186 29.4613 69.6291 29.76C69.76 30.1079 69.8971 30.4536 70.0035 30.8076C70.3125 31.845 70.8138 32.7862 71.4235 33.6742C72.4445 35.1658 73.752 36.3771 75.172 37.4698C76.15 38.2227 77.0258 39.0821 77.8299 40.0131C78.2841 40.5389 78.6135 41.1405 78.7793 41.8177C78.943 42.4868 79.0248 43.1661 78.9982 43.8557C78.9941 43.958 79.0166 44.0623 79.0289 44.1953C79.3379 44.0807 79.3829 43.8454 79.3972 43.6265C79.4136 43.34 79.4197 43.0536 79.4218 42.7651C79.4218 42.6096 79.4238 42.4541 79.4238 42.2986C79.4177 41.3512 79.1414 40.4755 78.591 39.6939Z" fill="black"/>
<path d="M71.8962 26.5317C71.5464 26.19 71.1862 25.8585 70.82 25.5311C69.9934 24.7904 69.136 24.0804 68.2746 23.3827C67.4439 22.7096 66.5273 22.1448 65.6536 21.5249C64.4648 20.6839 63.2719 19.845 62.0913 18.9918C60.8861 18.1201 59.724 17.1994 58.6989 16.1109C57.5694 14.9118 56.8819 13.5307 56.7469 11.8775C56.7244 11.5951 56.663 11.3066 56.5586 11.0467C56.5259 10.9649 56.4706 10.8892 56.4072 10.8176C56.3377 10.7398 56.2558 10.6702 56.174 10.613C56.0328 10.5127 55.8855 10.5986 55.863 10.7726C55.777 11.3946 55.7034 12.0166 55.6604 12.3603C55.6481 14.0422 56.1167 15.2781 56.9617 16.3748C57.6901 17.3201 58.5311 18.157 59.4928 18.8608C60.9332 19.9146 62.3941 20.9438 63.855 21.9689C64.4873 22.4108 65.1216 22.8569 65.7948 23.2293C67.3416 24.0845 68.735 25.1465 70.1059 26.2493C71.3192 27.2274 72.3587 28.3527 73.2385 29.6315C73.5618 30.1021 73.8687 30.585 74.1838 31.0618C74.2472 31.1579 74.3066 31.2541 74.3741 31.3462C74.4764 31.4833 74.5869 31.6572 74.7853 31.5631C75.0084 31.4567 74.9327 31.2521 74.8815 31.072C74.859 30.9902 74.8242 30.9104 74.7956 30.8306C74.5664 30.1881 74.2697 29.5886 73.9219 29.0218C73.3756 28.1338 72.7024 27.3338 71.9556 26.5951C71.9372 26.5746 71.9167 26.5521 71.8962 26.5317Z" fill="black"/>
<path d="M68.2926 40.557C68.3335 40.5447 68.3724 40.5325 68.4133 40.5202C68.4296 40.3995 68.4542 40.2808 68.4603 40.1601C68.4849 39.7754 68.4808 39.3887 68.5299 39.0081C68.7059 37.672 69.1253 37.0889 70.3346 36.7717C70.4717 36.7349 70.6067 36.6899 70.7377 36.6326C70.8543 36.5814 70.975 36.5262 71.0712 36.4464C71.1326 36.3952 71.153 36.297 71.2328 36.1436C70.8379 36.162 70.5228 36.1476 70.2179 36.1968C69.4507 36.3216 68.7754 36.5896 68.3703 37.3385C67.8506 38.2981 67.959 39.2925 68.1186 40.2972C68.133 40.3913 68.2332 40.4711 68.2926 40.557Z" fill="black"/>
</svg>
