<svg width="114" height="114" viewBox="0 0 114 114" fill="none" xmlns="http://www.w3.org/2000/svg">
<path fill-rule="evenodd" clip-rule="evenodd" d="M46.6142 17.002C53.6678 16.8659 58.4367 23.6367 64.5936 27.0444C71.9205 31.0995 82.2264 31.4606 86.0757 38.8422C89.9847 46.3385 87.3244 55.837 83.5527 63.4019C80.0865 70.3541 73.5577 75.3613 66.3511 78.404C60.1455 81.0241 53.359 78.8216 46.6142 78.9978C39.6069 79.181 32.0708 83.0969 26.1049 79.4559C20.0863 75.7827 18.9247 67.7728 17.1322 61.0049C15.4417 54.6224 13.8689 47.9359 16.1107 41.7218C18.3193 35.5997 24.0543 31.8475 29.1371 27.7284C34.5737 23.3226 39.588 17.1376 46.6142 17.002Z" fill="#BFE8D7"/>
<path d="M101.623 84.453C100.713 85.3539 99.5603 85.8526 98.3377 86.1844C97.8792 86.309 97.4087 86.2929 96.9442 86.2447C95.5226 86.0959 94.1632 85.6877 92.828 85.2051C90.8795 84.4993 89.0095 83.6185 87.1495 82.7016C84.9355 81.6117 82.9146 80.2303 80.9139 78.8066C79.0217 77.4594 77.2682 75.9392 75.5309 74.4029C73.2043 72.3478 70.8919 70.2747 68.6599 68.1171C66.0196 65.5633 63.4297 62.9573 60.8377 60.3553C58.1754 57.6808 55.5452 54.9743 52.8809 52.2999C51.2682 50.6791 49.6012 49.1127 48.0227 47.4538C46.6071 45.9658 45.1935 44.4777 43.7979 42.9716C43.1283 42.2497 42.4648 41.5218 41.8173 40.7798C40.1141 38.8333 38.4089 36.8869 36.7258 34.9243C35.2901 33.2513 33.9549 31.4998 32.8329 29.5936C32.1009 28.3489 31.4615 27.072 31.2463 25.6202C31.2041 25.3346 31.1538 25.0511 31.1036 24.7676C30.3897 25.0089 29.893 25.588 30.1685 26.7402C30.3656 27.5586 30.6531 28.3428 31.0835 29.0627C31.8978 30.424 32.7022 31.7934 33.591 33.1045C35.4811 35.8895 37.7534 38.3668 40.0216 40.8422C41.771 42.7504 43.5948 44.5924 45.2779 46.5569C48.0931 49.8446 51.055 52.9896 54.1095 56.0521C58.8611 60.8198 63.5946 65.6035 68.3582 70.3551C71.7304 73.7192 75.2614 76.9084 78.9815 79.8864C82.7156 82.8745 86.7352 85.3941 91.143 87.2843C92.9688 88.0665 94.853 88.4848 96.8356 88.4667C97.0689 88.4667 97.3042 88.4667 97.5374 88.4667C99.504 88.4626 101.093 87.6684 102.327 86.1522C102.581 85.8425 102.836 85.5288 103.045 85.191C104.02 83.6065 104.35 81.9274 103.775 80.1097C103.369 78.8247 102.772 77.6444 102.034 76.5404C102.46 77.5338 102.794 78.5573 103.051 79.611C103.52 81.5152 102.981 83.1118 101.623 84.453Z" fill="#BFE8D7"/>
<path d="M21.6607 82.6517C19.7242 80.3553 18.2 77.7955 16.9573 75.0588C15.4372 71.7107 14.7012 68.1918 14.5805 64.5361C14.5102 62.4348 14.5021 60.3314 14.7515 58.2362C14.9123 56.8929 15.1396 55.5638 15.4814 54.2527C15.9379 52.5073 16.5109 50.7981 17.1705 49.1191C17.7938 47.5325 18.4816 45.9761 19.4146 44.5404C20.9549 42.1696 22.8913 40.1528 25.0188 38.3088C25.1917 38.158 25.3807 38.0173 25.5536 37.8242C24.9745 37.977 24.4014 38.1882 23.8384 38.4576C21.0976 39.7707 18.8837 41.7071 17.271 44.3031C16.3601 45.769 15.6041 47.3093 14.9928 48.922C13.4123 53.0965 12.7467 57.4278 12.7648 61.8758C12.7648 62.2256 12.7567 62.5775 12.7668 62.9274C12.8955 67.6448 13.7501 72.2154 15.5799 76.583C16.8025 79.5007 18.3991 82.1871 20.5829 84.4976C22.0307 86.0278 23.6594 87.3208 25.5918 88.1895C27.102 88.8671 28.594 89.2251 30.07 89.2713C29.2073 88.9194 28.3688 88.5112 27.5826 88.0025C25.3204 86.5386 23.386 84.6987 21.6607 82.6517Z" fill="#BFE8D7"/>
<path d="M12.0811 70.0557C12.2902 71.2079 12.5657 72.344 12.9176 73.466C13.1367 74.1617 13.378 74.8494 13.6415 75.5251C13.4444 74.9882 13.2574 74.4453 13.0845 73.8943C12.6823 72.6255 12.3485 71.3446 12.0811 70.0557Z" fill="#BFE8D7"/>
<path d="M18.4026 84.0326C18.4428 84.0869 18.4851 84.1412 18.5293 84.1895C18.4831 84.1332 18.4388 84.0749 18.3926 84.0186C18.3966 84.0226 18.3986 84.0286 18.4026 84.0326Z" fill="#BFE8D7"/>
<path d="M96.2467 36.6647C96.3512 36.6889 96.5282 36.5863 96.6046 36.4878C96.6911 36.3772 96.7031 36.2103 96.7393 36.0635C96.9203 35.3577 97.238 34.7223 97.7126 34.1633C97.8694 33.9783 98.0403 33.8335 98.2957 33.8174C98.8266 33.7852 99.3655 33.6746 99.8883 33.7269C101.597 33.8978 102.8 34.7927 103.435 36.4074C103.737 37.1735 103.737 37.9718 103.671 38.7781C103.594 39.6931 103.528 40.608 103.492 41.0685C103.407 43.5458 103.886 44.7724 104.638 46.6566C104.817 47.105 105.209 47.1191 105.464 46.7109C105.561 46.556 105.627 46.3831 105.706 46.2162C106.062 45.4621 106.413 44.7061 106.771 43.952C106.942 43.5901 107.145 43.2422 107.296 42.8722C107.928 41.3098 108.191 39.6971 107.883 38.02C107.465 35.7317 106.279 33.9501 104.348 32.6552C103.427 32.0378 102.488 31.4668 101.374 31.2777C99.5344 30.9661 98.3862 31.324 97.1877 33.0855C97.1495 33.1398 97.1194 33.2001 97.0832 33.2564C96.5382 34.1351 96.2507 35.1084 96.0194 36.1037C96.0013 36.1842 95.9672 36.2847 95.9973 36.349C96.0576 36.4717 96.1421 36.6406 96.2467 36.6647ZM99.9727 31.8347C100.805 31.7684 101.604 31.9111 102.366 32.247C103.604 32.7919 104.716 33.5459 105.605 34.5594C107.029 36.1842 107.6 38.1146 107.391 40.2661C107.274 41.4626 106.888 42.5746 106.321 43.6303C105.919 44.3783 105.549 45.1444 105.126 45.9729C105.054 45.804 104.996 45.6813 104.948 45.5546C104.199 43.6202 104.125 41.6194 104.362 39.5865C104.459 38.756 104.511 37.9195 104.354 37.091C103.866 34.5091 101.638 32.9246 99.0317 33.2966C98.9834 33.3026 98.9331 33.3026 98.8849 33.3067C99.4318 32.9306 100.037 32.814 100.687 32.8663C102.01 32.9709 103.116 33.55 104.079 34.4267C104.853 35.1305 105.215 36.0575 105.43 37.0549C105.525 37.4952 105.609 37.9376 105.712 38.376C105.744 38.5107 105.816 38.6354 105.872 38.7741C106.118 38.6957 106.12 38.5409 106.11 38.3941C106.035 37.27 105.868 36.16 105.326 35.1586C104.485 33.6083 103.134 32.7155 101.437 32.3535C100.423 32.1384 99.8581 32.074 98.3822 32.7477C98.724 32.2108 99.275 31.891 99.9727 31.8347Z" fill="black"/>
<path d="M44.7831 33.7051C46.8945 35.3117 49.03 36.8922 51.1575 38.4788C52.0804 39.1665 53.0416 39.81 53.9384 40.5298C57.7429 43.5783 61.5313 46.6468 65.3238 49.7133C66.9204 51.0043 68.5089 52.3073 70.1075 53.5962C70.3126 53.7611 70.5479 53.8958 70.7872 54.0125C70.8696 54.0527 71.0446 54.0326 71.0969 53.9702C71.1451 53.9119 71.117 53.7491 71.0687 53.6606C71.0064 53.548 70.8978 53.4575 70.7972 53.369C67.7146 50.6282 64.6582 47.8593 61.4248 45.2915C58.4306 42.9127 55.4908 40.4655 52.3559 38.2697C50.1279 36.7073 47.8979 35.1468 45.7021 33.5402C43.1403 31.6661 40.5624 29.8222 37.882 28.123C37.7895 28.0647 37.693 28.0104 37.5984 27.9541C37.5723 27.9883 37.5462 28.0245 37.52 28.0587C37.7332 28.2376 37.9403 28.4246 38.1615 28.5956C40.3674 30.2987 42.5652 32.016 44.7831 33.7051Z" fill="black"/>
<path d="M112.612 63.2221C112.439 63.2704 112.277 63.3468 112.039 63.4373C112.039 63.198 112.053 63.019 112.035 62.8441C112.013 62.6128 111.995 62.3756 111.925 62.1584C111.77 61.6778 111.428 61.5511 110.986 61.7904C110.845 61.8668 110.71 61.9553 110.541 62.0579C110.503 61.9432 110.479 61.8688 110.455 61.7944C110.276 61.2495 109.858 61.0444 109.317 61.2334C108.784 61.4204 108.355 61.9915 108.315 62.5565C108.297 62.822 108.271 63.0874 108.233 63.3508C108.082 64.4226 108.008 65.4823 108.667 66.4133C108.643 66.4736 108.635 66.5098 108.617 66.536C108.534 66.6405 108.45 66.7431 108.364 66.8456C107.119 68.3256 105.575 69.4195 103.875 70.3103C103.091 70.7205 102.307 71.1327 101.629 71.7098C101.299 71.9893 100.976 72.2849 100.7 72.6147C100.62 72.7132 100.551 72.8158 100.497 72.9204C99.3449 71.6495 98.1103 70.4571 96.7912 69.3531C96.8073 69.3351 96.8234 69.317 96.8395 69.2989C95.8501 67.8651 94.8608 66.4294 93.8715 64.9957C93.9398 64.9514 93.964 64.9273 93.9941 64.9173C95.7999 64.2597 97.0224 62.9547 97.9474 61.332C98.0661 61.1228 98.1344 60.8634 98.1566 60.6221C98.1907 60.2461 98.0922 60.1395 97.7202 60.0993C97.3884 60.0631 97.0526 60.039 96.7208 60.0571C95.4258 60.1234 93.8594 60.9479 93.4029 62.5968C93.3366 62.8381 93.2843 63.0834 93.23 63.3267C93.2079 63.4252 93.1938 63.5258 93.1757 63.6263C92.2688 61.7904 91.8124 59.8781 91.6958 57.8351C91.9692 57.9336 92.1663 58.0342 92.3734 58.0764C93.3949 58.2835 94.4345 58.3941 95.456 58.1568C96.7268 57.8633 97.867 57.3384 98.3818 55.9952C98.4099 55.9208 98.4783 55.8605 98.5225 55.7901C98.6774 55.5448 98.6713 55.4 98.4381 55.2371C98.249 55.1044 98.0339 54.9998 97.8187 54.9154C96.6243 54.4449 95.3816 54.3825 94.1228 54.5253C93.2702 54.6218 92.5765 55.022 92.0215 55.6715C91.929 55.78 91.8305 55.8846 91.736 55.9912C91.7862 54.3745 92.1723 52.8583 92.7273 51.4588C93.4391 51.4688 94.0907 51.5352 94.7301 51.4769C96.7228 51.2979 98.1968 50.2865 99.1881 48.5612C99.3188 48.3339 99.4254 48.0886 99.3932 47.8252C98.7799 47.4472 98.0842 47.3426 97.2416 47.5256C95.9527 47.8051 94.7643 48.3158 93.775 49.2207C93.7468 49.2469 93.6985 49.2529 93.6121 49.2851C93.7388 48.9151 93.8614 48.5893 93.9599 48.2575C94.0685 47.8916 94.2274 47.5899 94.6296 47.4592C94.7965 47.4049 94.9533 47.2783 95.082 47.1516C96.3207 45.9431 96.9541 44.4912 96.8012 42.7418C96.7671 42.3537 96.6283 41.9958 96.3247 41.7203C96.1598 41.5715 95.9728 41.4951 95.7757 41.5977C95.4982 41.7424 95.2047 41.8852 94.9815 42.0963C93.7609 43.2566 93.2924 44.7044 93.4291 46.3633C93.4693 46.8399 93.6503 47.3285 93.5739 47.781C93.4954 48.2575 93.1858 48.6959 92.9827 49.1524C92.8098 49.5445 92.6449 49.9406 92.4398 50.4252C92.3432 50.1899 92.2789 50.0411 92.2226 49.8923C91.9913 49.2891 91.6636 48.7421 91.1749 48.3259C90.449 47.7066 89.6568 47.1777 88.7479 46.854C88.1426 46.6388 87.8249 46.8258 87.7163 47.4472C87.3745 49.4138 88.5186 51.5472 90.3585 52.3194C90.6562 52.4441 91 52.4622 91.3258 52.5185C91.4303 52.5366 91.5409 52.5205 91.6756 52.5205C91.2534 54.0186 90.996 55.5046 91.004 57.0147C90.9417 57.0248 90.9196 57.0368 90.9135 57.0308C90.8432 56.9604 90.7688 56.892 90.7064 56.8156C90.2882 56.2928 89.7553 55.9309 89.1319 55.7016C88.7881 55.5749 88.4463 55.4362 88.0923 55.3397C87.5937 55.2029 87.0889 55.0843 86.5822 54.9938C86.168 54.9194 86.1036 55.0159 86.2001 55.4121C86.3007 55.8283 86.4897 56.1963 86.7753 56.51C87.1352 56.9041 87.4931 57.3043 87.8812 57.6682C88.8484 58.5771 89.882 59.3814 91.2634 59.5423C91.3801 60.1134 91.4927 60.6623 91.6254 61.3058C90.6662 60.7468 89.7251 60.592 88.6875 60.8835C88.6071 61.4828 88.8786 61.9814 89.2586 62.4017C90.1655 63.4051 91.193 64.2054 92.6489 64.1169C93.0068 64.6699 93.3265 65.239 93.7187 65.7558C94.4888 66.7733 95.2931 67.7666 96.0894 68.766C92.5041 65.79 88.8866 62.8501 85.3013 59.8741C82.1644 57.2701 78.8767 54.8611 75.6192 52.4139C73.5078 50.8274 71.3844 49.2569 69.2609 47.6885C69.4881 47.2059 69.7435 46.9867 70.4533 46.4478C71.7564 45.4564 73.2082 44.7627 74.7626 44.264C77.1977 43.4818 79.5584 42.5166 81.7964 41.2719C84.5915 39.7155 86.8678 37.5961 88.6152 34.9157C89.4094 33.6971 89.9323 32.37 90.0871 30.9101C90.0971 30.8096 90.1253 30.711 90.1615 30.5321C90.2721 30.7352 90.3244 30.8578 90.3988 30.9644C90.6823 31.3746 90.9357 31.813 91.2695 32.1769C91.6354 32.5771 92.1401 32.5972 92.5443 32.3217C92.9183 32.0663 93.0531 31.6682 92.8439 31.1675C92.6851 30.7894 92.4337 30.4496 92.2105 30.0997C92.116 29.9529 91.9893 29.8303 91.8023 29.6071C92.0034 29.6473 92.0818 29.6614 92.1603 29.6775C92.5865 29.7559 93.0088 29.8645 93.4391 29.9047C93.9861 29.955 94.5049 29.8182 94.9372 29.4603C95.4037 29.0742 95.4379 28.5353 95.0136 28.107C94.8528 27.9461 94.6517 27.8034 94.4405 27.7149C93.5176 27.3248 92.5564 27.1378 91.557 27.2906C91.2674 27.3348 91.0724 27.2866 90.8432 27.0935C90.0549 26.432 88.9389 26.7115 88.587 27.4294C88.5589 27.4877 88.5086 27.5379 88.5046 27.544C88.1828 27.6023 87.8913 27.6123 87.6359 27.7109C86.8758 28.0044 86.2967 28.5313 85.9267 29.2532C85.794 29.5106 85.7216 29.8263 85.7216 30.1158C85.7216 30.7935 86.2605 31.1755 86.916 31.0026C87.0688 30.9624 87.2156 30.9 87.4308 30.8256C87.3805 30.9885 87.3463 31.077 87.3282 31.1695C87.2739 31.4289 87.1855 31.6883 87.1814 31.9497C87.1734 32.4987 87.5735 32.7279 88.0622 32.4725C88.207 32.3961 88.3558 32.2976 88.4603 32.1749C88.7418 31.8471 89.0012 31.4993 89.2687 31.1594C89.333 31.079 89.3933 30.9966 89.4577 30.9161C89.4999 31.1092 89.4879 31.2741 89.4597 31.4349C89.1802 33.0034 88.4382 34.3607 87.475 35.5973C85.8784 37.6484 83.9722 39.3556 81.7039 40.6405C79.679 41.7867 77.5496 42.6996 75.3537 43.4557C74.0929 43.89 72.8241 44.3002 71.6538 44.9618C70.8796 45.4001 70.0673 45.7762 69.3514 46.488C69.3956 46.3211 69.4037 46.2568 69.4298 46.1984C70.1537 44.5315 70.8274 42.8383 71.6156 41.2015C72.7175 38.9132 73.9723 36.7033 75.6051 34.7387C76.7673 33.3392 77.9799 31.9819 79.1763 30.6105C79.3955 30.3591 79.6589 30.144 79.864 29.8846C79.9525 29.774 80.0028 29.5729 79.9686 29.4382C79.9203 29.2552 79.7233 29.2371 79.5483 29.2793C78.5429 29.5166 77.5093 29.6754 76.5361 30.0133C73.542 31.0529 71.0888 32.8325 69.4318 35.5813C67.6643 38.513 67.0349 41.7083 67.413 45.1005C67.4652 45.565 67.5497 46.0255 67.6402 46.486C66.0657 45.3237 64.4932 44.1574 62.9248 42.9871C62.9067 42.9449 62.8906 42.9007 62.8685 42.8625C62.3396 41.841 61.8128 40.8175 61.2819 39.798C61.0286 39.3093 60.7632 38.8267 60.5098 38.3381C59.9307 37.2181 59.8321 36.0076 59.8884 34.7809C59.9468 33.498 60.0754 32.2171 60.1559 30.9362C60.2846 28.9154 60.2826 26.8985 59.9468 24.8937C59.7698 23.836 59.5245 22.7964 59.0459 21.8312C58.8328 21.4009 58.5653 20.9927 58.2778 20.6086C58.0887 20.3573 57.8112 20.1441 57.4533 20.2809C57.1276 20.4055 57.0552 20.7132 57.0351 21.0208C57.017 21.3365 57.0009 21.6583 57.031 21.972C57.21 23.832 57.3467 25.7 57.6021 27.55C57.9621 30.144 58.4145 32.7259 58.8267 35.3138C58.8348 35.3621 58.8207 35.4144 58.8066 35.5692C58.6538 35.3178 58.5553 35.167 58.4648 35.0102C57.4674 33.305 56.3795 31.6501 54.978 30.2546C53.9967 29.2773 53.2808 28.1693 52.7198 26.9327C52.6515 26.7799 52.569 26.6351 52.4966 26.4843C50.8357 23.102 48.4267 20.309 45.6457 17.8136C44.8112 17.0655 43.8983 16.408 42.8627 15.9636C42.4405 15.7826 41.978 15.6378 41.5235 15.5996C40.7152 15.5333 40.315 16.1486 40.6749 16.8805C40.8479 17.2324 41.0992 17.5682 41.3848 17.8377C42.1348 18.5495 42.8909 19.2634 43.6992 19.9048C46.2852 21.9559 48.5835 24.3065 50.8538 26.6874C50.8759 26.7115 50.8859 26.7457 50.9483 26.8583C50.7934 26.7899 50.7351 26.7658 50.6768 26.7396C49.5065 26.2128 48.3563 25.6337 47.1619 25.1692C44.6041 24.1758 42.1207 23.0457 39.7821 21.6C39.1025 21.1797 38.3866 20.8117 37.6647 20.4699C37.2787 20.2889 36.8483 20.1582 36.4261 20.1059C35.5373 19.9993 35.117 20.5905 35.4589 21.427C35.5594 21.6703 35.6961 21.9096 35.861 22.1147C36.0782 22.3862 36.3235 22.6436 36.5849 22.8728C37.333 23.5304 38.1936 24.0109 39.1025 24.397C41.3345 25.3441 43.6369 26.0781 45.9996 26.617C47.0734 26.8623 48.1613 27.0433 49.223 27.3328C51.2137 27.8737 52.929 28.8691 54.3124 30.4456C55.7964 32.1367 57.0652 33.9646 58.1551 35.9291C59.2068 37.8274 60.2785 39.7135 61.3644 41.5916C61.4468 41.7344 61.5353 41.8752 61.6258 42.0159C61.6117 42.0059 61.5976 41.9958 61.5836 41.9837C55.7582 37.6142 49.9027 33.2869 43.8842 29.1848C41.3546 27.4615 38.7466 25.875 35.9535 24.6082C34.8838 24.1235 33.7818 23.7375 32.6216 23.5505C32.2315 23.4881 31.8172 23.474 31.4292 23.5304C30.2689 23.6993 29.169 24.8374 29.1087 25.9072C29.0383 27.1498 29.2534 28.3443 29.8627 29.4362C30.3353 30.2807 30.8339 31.1132 31.3708 31.9175C32.879 34.1857 34.5118 36.3594 36.2149 38.4748C33.5787 36.7154 30.6771 35.8708 27.4457 36.1181C25.1312 36.2951 23.0681 37.0492 21.2202 38.4628C18.027 40.9039 15.6904 43.9946 14.0918 47.6643C14.0656 47.7247 14.0415 47.785 14.0174 47.8433C14.13 47.2702 14.2707 46.7032 14.4457 46.1381C14.9725 44.4329 15.4752 42.7197 15.9558 41.0025C16.4746 39.1424 16.5369 37.2502 16.2534 35.344C15.8955 32.933 14.9323 30.7714 13.5388 28.7907C13.4463 28.658 13.3196 28.5333 13.1829 28.4488C13.0099 28.3443 12.837 28.4529 12.837 28.656C12.837 28.7847 12.8732 28.9194 12.9195 29.042C13.0381 29.3537 13.1648 29.6634 13.3015 29.967C14.7373 33.1663 15.1032 36.4962 14.6045 39.9548C14.3029 42.0421 13.8585 44.0911 13.3015 46.12C12.9335 47.4572 12.6078 48.8045 12.6641 50.21C12.6661 50.2402 12.6178 50.2744 12.5314 50.389C12.286 49.637 12.0327 48.9694 11.8537 48.2797C11.6185 47.3768 11.4616 46.4518 11.2364 45.5449C10.8704 44.067 10.3898 42.6252 9.65387 41.286C8.92796 39.9689 7.89037 38.9916 6.45263 38.4769C6.33198 38.4346 6.21736 38.3723 6.08666 38.312C6.46872 37.5881 6.34807 36.9144 5.96802 36.281C5.37282 35.2857 4.43175 34.785 3.33383 34.5356C3.2534 34.5175 3.16693 34.5216 3.08449 34.5276C2.73662 34.5557 2.54358 34.7568 2.52548 35.1087C2.51945 35.2535 2.52347 35.3963 2.52347 35.541C1.47985 35.5109 1.35518 35.6074 1.30491 36.46C0.73584 36.8682 0.659429 37.4976 1.1742 37.9762C1.42354 38.2074 1.7493 38.3803 2.07103 38.499C2.49129 38.6538 2.9377 38.7383 3.37807 38.8368C4.0698 38.9936 4.75951 39.0801 5.4452 38.7865C5.52765 38.7503 5.6483 38.7443 5.73074 38.7765C6.66176 39.1203 7.5425 39.5386 8.21412 40.3127C8.79123 40.9783 9.20546 41.7324 9.54127 42.5387C10.1847 44.0871 10.615 45.6937 10.9549 47.3326C11.2847 48.9151 11.6888 50.4694 12.6098 51.8428C11.6989 55.0964 11.2907 58.4524 11.2645 61.901C10.3134 59.8118 9.16725 57.8231 7.95673 55.8685C7.26903 54.7585 6.45263 53.7431 5.51759 52.8302C5.23407 52.5527 4.91233 52.3073 4.58457 52.0801C4.2749 51.867 3.90692 51.7121 3.55502 51.9353C3.17498 52.1766 3.18704 52.5989 3.27753 52.9769C3.41628 53.5581 3.56106 54.1473 3.78627 54.7002C4.67707 56.8961 5.8896 58.9049 7.41984 60.7166C7.94668 61.342 8.49765 61.9473 9.03454 62.5646C9.11296 62.6551 9.17731 62.7576 9.2497 62.8562C9.05465 62.8381 8.90987 62.7677 8.77313 62.6872C7.9688 62.2107 7.18055 61.708 6.36214 61.2596C5.04706 60.5377 3.71991 59.8359 2.38472 59.1522C2.01875 58.9652 1.60653 58.8626 1.20839 58.746C1.01132 58.6877 0.792143 58.7078 0.66345 58.8948C0.524703 59.0999 0.593071 59.3131 0.721764 59.5021C0.806219 59.6248 0.900728 59.7434 1.0073 59.848C1.22045 60.0591 1.43561 60.2702 1.66484 60.4633C4.07583 62.5123 6.82463 63.948 9.8268 64.9132C10.3416 65.0781 10.8604 65.1948 11.3973 65.1807C11.528 66.8155 11.7612 68.4402 12.097 70.0509C12.3665 71.3399 12.6983 72.6208 13.1004 73.8896C13.2734 74.4385 13.4604 74.9815 13.6574 75.5204C14.3733 77.4689 15.252 79.3329 16.3339 81.0944C16.2836 81.0783 16.2353 81.0602 16.185 81.0461C15.5154 80.8511 14.8378 80.6078 14.1501 80.5535C11.4918 80.3403 9.15117 81.1688 7.12224 82.884C6.29378 83.5858 5.69656 84.4243 5.592 85.5464C5.56787 85.8058 5.41705 86.0933 5.69455 86.2823C5.95797 86.4613 6.18117 86.2502 6.36617 86.1014C7.10213 85.5162 7.93662 85.3171 8.85557 85.4197C8.9722 85.4317 9.08883 85.4297 9.20546 85.4297C10.2853 85.4317 11.2786 85.1804 12.1574 84.5108C13.0421 83.8372 14.0576 83.4028 15.1133 83.0751C15.5536 82.9383 16.0101 82.8579 16.4605 82.7533C16.4726 82.7835 16.4827 82.8157 16.4947 82.8458C16.3318 82.9564 16.167 83.067 16.0041 83.1796C15.3606 83.626 14.7011 84.0543 14.0757 84.5269C12.9476 85.3815 11.9945 86.409 11.2967 87.6477C10.6653 88.7697 10.3516 89.9662 10.6492 91.2571C10.7337 91.6231 10.8966 91.971 11.0353 92.3651C10.8684 92.3651 10.7136 92.3369 10.5728 92.3711C10.2189 92.4536 9.84892 92.5179 9.52518 92.6727C9.05263 92.9 8.88976 93.3625 9.04861 93.8632C9.21953 94.398 9.66192 94.579 10.1626 94.6574C10.3516 94.6876 10.5447 94.6836 10.8141 94.6997C10.5668 94.9349 10.3737 95.1099 10.1888 95.2949C9.93539 95.5482 9.74637 95.8378 9.68806 96.1997C9.59355 96.7829 9.93338 97.1871 10.5185 97.177C11.1037 97.167 11.5662 96.8814 11.9985 96.5255C12.1312 96.4169 12.2599 96.3043 12.457 96.1354C12.4409 96.4652 12.4228 96.6803 12.4188 96.8955C12.4147 97.1127 12.4087 97.3298 12.4268 97.545C12.4891 98.2307 12.9717 98.5584 13.6192 98.3373C13.8324 98.2649 14.0435 98.1301 14.2084 97.9753C14.6629 97.547 14.9102 97.0081 14.9444 96.3787C14.9524 96.2158 14.9464 96.053 14.9464 95.8338C15.2319 95.9444 15.4591 96.0369 15.6884 96.1233C16.3781 96.3827 17.0839 96.4571 17.7997 96.2581C18.4633 96.0751 18.6302 95.6206 18.2522 95.0415C17.9807 94.6253 17.6047 94.3297 17.1482 94.1306C17.0256 94.0763 16.9069 94.01 16.8024 93.9577C17.1422 93.7385 17.4639 93.5595 17.7495 93.3363C18.0451 93.1051 18.2281 92.7854 18.2844 92.4033C18.3608 91.8845 18.1376 91.4763 17.655 91.2813C17.3051 91.1405 16.9291 91.0942 16.5731 91.2048C16.1308 91.3396 15.7045 91.5346 15.2782 91.7156C15.1455 91.7719 15.0288 91.8684 14.8257 91.9991C14.8579 91.7417 14.884 91.5668 14.9021 91.3939C14.9444 90.9475 14.8599 90.5272 14.5864 90.1632C14.2969 89.7812 13.8384 89.6545 13.4282 89.8274C13.1527 89.9441 12.9557 90.1471 12.8451 90.4186C12.5917 91.048 12.4509 91.6935 12.6359 92.3711C12.6601 92.4576 12.6581 92.5521 12.6741 92.6768C12.5334 92.6547 12.4308 92.6567 12.3444 92.6205C11.6848 92.3349 11.3671 91.796 11.2404 91.1164C11.0333 89.9883 11.3389 88.9628 11.8899 87.9996C12.5696 86.8112 13.4704 85.8098 14.5402 84.9592C15.063 84.545 15.616 84.1669 16.1408 83.7547C16.5068 83.4672 16.8567 83.1555 17.1965 82.8358C17.2548 82.7795 17.3111 82.7252 17.3694 82.6729C17.5745 82.9604 17.7837 83.244 18.0028 83.5255C18.1335 83.6924 18.2683 83.8553 18.401 84.0181C18.4472 84.0744 18.4915 84.1328 18.5377 84.1891C19.9232 85.85 21.5138 87.2877 23.3979 88.3977C25.4349 89.5962 27.6206 90.308 29.9974 90.3482C32.704 90.3945 35.1613 89.5901 37.4094 88.1122C37.6728 87.9393 37.9282 87.7583 38.1775 87.5733C38.2117 87.5994 38.2459 87.6195 38.2801 87.6336C38.4771 87.712 38.7003 87.7321 38.9135 87.7583C40.1019 87.9051 41.2802 87.7543 42.4586 87.6175C45.135 87.3038 47.741 86.6664 50.3088 85.854C52.9229 85.0256 55.4727 84.0423 57.8937 82.7513C58.318 82.5241 58.7201 82.2486 59.1062 81.9611C59.2872 81.8263 59.438 81.6293 59.5466 81.4282C59.7256 81.1004 59.6069 80.7847 59.2611 80.654C59.064 80.5796 58.8408 80.5515 58.6256 80.5434C57.4734 80.4972 56.3735 80.7727 55.2836 81.1044C52.1689 82.0515 49.1023 83.1314 46.0921 84.372C45.9393 84.4344 45.7825 84.4907 45.6276 84.549C45.7463 84.3962 45.8931 84.3198 46.0378 84.2393C47.4394 83.4631 48.853 82.7091 50.2385 81.9048C53.6669 79.91 56.7495 77.4769 59.4561 74.5733C59.6491 74.3661 59.8462 74.155 59.989 73.9137C60.1458 73.6443 59.9829 73.3889 59.6733 73.415C59.43 73.4351 59.1766 73.5055 58.9594 73.6161C58.139 74.0263 57.3186 74.4385 56.5223 74.893C54.0932 76.2805 51.8572 77.9394 49.7458 79.7713C49.1546 80.284 48.5293 80.7586 47.92 81.2492C47.8898 81.2211 47.8596 81.1909 47.8295 81.1628C47.9723 81.03 48.111 80.8973 48.2558 80.7666C49.9931 79.2022 51.6983 77.6036 53.2889 75.8883C54.7669 74.2938 56.1724 72.6429 57.2784 70.7587C57.948 69.6186 58.5311 68.4382 58.9393 67.1794C59.0157 66.9462 59.058 66.6908 59.058 66.4455C59.058 66.1781 58.881 66.0494 58.6216 66.1036C58.4788 66.1318 58.328 66.1961 58.2194 66.2886C57.9399 66.5259 57.6484 66.7592 57.4232 67.0427C56.5424 68.1547 55.6375 69.2506 54.8332 70.4169C53.7353 72.0115 52.7218 73.6624 51.6702 75.2891C51.5837 75.4218 51.4832 75.5465 51.3887 75.6752C51.3927 75.4801 51.4651 75.3314 51.5314 75.1826C51.9818 74.159 52.4584 73.1476 52.8747 72.11C53.7413 69.9524 54.2963 67.7304 54.1113 65.3757C54.0832 65.0258 54.0691 64.674 54.0088 64.3301C53.9665 64.0868 53.8841 63.8415 53.7695 63.6243C53.5181 63.1497 53.0576 63.0231 52.6374 63.3468C52.3679 63.5539 52.1327 63.8374 51.9638 64.133C51.7747 64.4608 51.648 64.8328 51.5435 65.2008C50.9463 67.29 50.526 69.4135 50.3088 71.5812C50.1279 73.3909 49.8825 75.1946 49.6453 76.9983C49.6111 77.2517 49.5065 77.5151 49.3698 77.7323C48.674 78.8362 47.8677 79.8597 46.9568 80.7968C46.8583 80.8993 46.7477 80.9898 46.6351 81.0944C46.6149 81.0461 46.6009 81.028 46.6049 81.018C46.6572 80.8953 46.7135 80.7767 46.7658 80.654C47.4997 78.9187 48.2819 77.1994 48.672 75.3394C48.9254 74.1269 49.1345 72.9103 49.0038 71.6636C48.9736 71.368 48.9153 71.0644 48.7987 70.7929C48.6398 70.4229 48.296 70.3988 48.0487 70.7105C47.9562 70.8271 47.8798 70.9618 47.8235 71.0985C47.6747 71.4706 47.5098 71.8385 47.4072 72.2246C46.8301 74.3842 46.2691 76.5479 45.702 78.7095C45.4326 79.7411 45.2516 80.8068 44.8736 81.7982C44.1899 83.5898 44.4171 83.1897 42.9774 84.2594C42.0101 84.9793 40.9585 85.5524 39.8907 86.0973C41.0289 84.9813 42.0101 83.7165 42.8728 82.3411C44.576 79.6265 45.7201 76.6806 46.4641 73.5759C47.9662 67.3202 47.8798 61.0665 46.3777 54.8249C45.694 51.9856 44.7047 49.273 43.3333 46.7253C45.0686 48.6155 46.8381 50.4735 48.6358 52.3033C52.3237 56.0555 55.9935 59.8258 59.7416 63.5157C61.9797 65.7176 64.2218 67.9134 66.4015 70.1756C68.3802 72.2286 70.4171 74.2174 72.5144 76.1397C72.066 76.0874 71.6076 76.0372 71.1732 76.1035C69.1765 76.4092 67.7387 77.499 66.9384 79.3651C66.7172 79.8819 66.5604 80.4369 66.4437 80.9878C66.2406 81.9389 65.8566 82.7915 65.2372 83.5396C65.0563 83.7587 64.8874 83.986 64.7225 84.2172C64.1273 85.0537 63.6849 85.9666 63.4074 86.956C63.327 87.2395 63.1902 87.5793 63.4798 87.7925C63.7774 88.0137 64.1031 87.8327 64.3545 87.6417C64.8833 87.2375 65.4243 86.8373 65.8928 86.3668C66.5061 85.7535 67.053 85.0778 67.6281 84.4263C68.2193 83.7587 68.6778 83.0067 69.0458 82.1943C69.3434 81.5408 69.6209 80.8752 69.9707 80.2519C70.2462 79.7612 70.5861 79.2987 70.956 78.8764C71.3723 78.3999 71.9313 78.1003 72.5687 77.7986C71.873 80.2378 72.4481 82.3351 73.926 84.2253C73.8979 84.2494 73.8858 84.2655 73.8717 84.2695C73.7913 84.2876 73.7089 84.3037 73.6264 84.3157C72.4823 84.4846 71.6779 85.1341 71.131 86.1215C71.0204 86.3205 70.944 86.5558 70.9158 86.781C70.8213 87.525 71.5452 88.0197 72.0881 87.7844C72.3174 87.6859 72.5728 87.6215 72.7678 87.4768C73.2223 87.143 73.6486 86.769 74.0869 86.411C74.1673 86.3447 74.2438 86.2763 74.288 86.2381C74.4489 86.7991 74.5655 87.3561 74.7726 87.8769C74.8912 88.1725 75.1165 88.456 75.3618 88.6652C75.8725 89.1015 76.7251 89.0673 77.2178 88.6491C77.6662 88.269 77.7567 87.6416 77.4008 87.0042C77.2077 86.6584 76.9383 86.3547 76.703 86.033C76.6206 85.9204 76.5321 85.8118 76.4215 85.673C76.7452 85.6248 77.0147 85.6087 77.2701 85.5403C77.5415 85.4679 77.817 85.3755 78.0623 85.2427C78.6193 84.9391 78.8646 84.4304 78.742 83.9216C78.5952 83.3103 78.0764 82.874 77.4571 82.8398C76.9162 82.8096 76.4275 82.9805 75.9992 83.2842C75.6071 83.5617 75.2592 83.8995 74.849 84.2454C74.2719 83.7527 73.7953 83.1736 73.5279 82.4597C73.3067 81.8686 73.1237 81.2573 72.981 80.642C72.8221 79.9522 72.8281 79.2484 73.0292 78.5607C73.176 78.058 73.363 77.5935 73.8114 77.304C75.6031 78.9006 77.437 80.4489 79.3211 81.9409C82.5927 84.5309 86.0795 86.775 89.8961 88.4983C91.9974 89.4474 94.157 90.0526 96.4735 90.0426C96.8576 90.0426 97.2416 90.0526 97.6257 90.0406C99.3309 89.9823 100.879 89.5077 102.176 88.3475C103.107 87.513 103.881 86.5518 104.448 85.4438C105.398 83.5878 105.593 81.6655 104.887 79.6727C104.308 78.0339 103.457 76.5479 102.393 75.1805C102.329 75.0961 102.261 75.0157 102.194 74.9312C103.481 75.4098 104.792 75.8019 106.138 76.0874C107.489 76.373 108.798 76.2563 110.031 75.6169C110.348 75.452 110.662 75.2187 110.881 74.9433C111.39 74.3018 111.161 73.6764 110.372 73.4532C109.972 73.3406 109.564 73.2481 109.154 73.1717C107.873 72.9324 106.586 72.7213 105.277 72.9284C104.167 73.1033 103.111 73.4633 102.068 73.8675C101.881 73.9399 101.694 74.0203 101.503 74.0806C101.332 73.8755 101.159 73.6724 100.984 73.4713C101.008 73.3607 101.046 73.2522 101.098 73.1576C101.217 72.9445 101.398 72.7575 101.577 72.5866C102.247 71.9511 103.001 71.4323 103.827 71.0181C104.334 70.7648 104.841 70.5074 105.327 70.2178C106.781 69.3532 108.05 68.2894 108.878 66.7773C108.89 66.7531 108.933 66.7471 108.963 66.731C109.622 67.0166 109.914 67.0689 110.509 66.9442C111.884 66.6586 112.755 65.7719 113.302 64.5312C113.393 64.3241 113.427 64.0787 113.433 63.8495C113.441 63.3146 113.117 63.0774 112.612 63.2221ZM93.9961 64.3402C94.6919 62.7858 95.9969 61.889 97.4487 61.153C96.6665 62.6088 95.5787 63.7349 93.9961 64.3402ZM97.127 60.6302C96.4896 61.0605 95.8823 61.4124 95.3434 61.8487C94.8186 62.273 94.3661 62.7838 93.9117 63.2262C93.9358 61.5712 95.7717 60.5135 97.127 60.6302ZM94.4506 55.0742C95.4419 55.022 96.4172 55.0602 97.3643 55.3799C97.4568 55.4101 97.5432 55.4543 97.7061 55.5206C97.0546 55.764 96.4494 55.8886 95.8361 55.9831C94.9473 56.1219 94.0545 56.2425 93.1677 56.3934C92.7957 56.4577 92.4317 56.5784 91.9773 56.695C92.5886 55.6976 93.3466 55.1326 94.4506 55.0742ZM91.9974 57.0992C93.8514 56.6025 95.8119 56.7754 97.6458 56.1601C97.6659 56.1923 97.688 56.2224 97.7081 56.2546C97.5734 56.4034 97.4548 56.5723 97.2999 56.697C96.7168 57.1595 96.0713 57.4872 95.3273 57.6119C94.4064 57.7668 93.4995 57.6803 92.5986 57.4852C92.3814 57.439 92.1824 57.3103 91.9753 57.2178C91.9833 57.1776 91.9913 57.1394 91.9974 57.0992ZM96.1859 42.3477C96.6967 43.6085 95.8702 45.9471 94.5994 46.8439C95.1323 45.3358 95.6531 43.8598 96.1859 42.3477ZM95.7717 42.0843C95.3092 43.6909 94.6778 45.1729 94.0565 46.7816C93.6342 45.0482 94.4385 42.8806 95.7717 42.0843ZM98.7678 48.1148C97.0184 48.8568 95.3374 49.5706 93.6101 50.3046C94.3279 48.893 97.4005 47.5678 98.7678 48.1148ZM98.3556 48.7944C97.9354 50.1135 95.3313 51.2054 93.4492 50.8475C95.1041 50.1558 96.7289 49.4761 98.3556 48.7944ZM87.5454 55.6996C87.6459 55.7137 87.7545 55.7117 87.847 55.7459C88.3316 55.9248 88.8263 56.0857 89.2928 56.3029C90.0187 56.6407 90.5114 57.2198 90.8291 57.9497C90.8713 58.0483 90.8773 58.1629 90.8995 58.2695C90.8733 58.2896 90.8492 58.3097 90.8231 58.3278C89.7191 57.4752 88.6172 56.6226 87.5132 55.772C87.5253 55.7479 87.5353 55.7237 87.5454 55.6996ZM87.3684 56.2807C88.5689 57.1595 89.7674 58.0382 90.9678 58.9169C89.3652 58.5952 88.3638 57.441 87.3684 56.2807ZM91.2855 51.9896C90.4229 51.9273 89.7935 51.4286 89.2305 50.8254C88.3859 49.9205 88.024 48.8547 88.2251 47.5558C88.3196 47.6563 88.402 47.7186 88.4543 47.8011C88.8122 48.3822 89.1299 48.9895 89.522 49.5445C90.0489 50.2905 90.632 50.9943 91.193 51.7162C91.2413 51.7785 91.2956 51.8368 91.3479 51.8971C91.3258 51.9293 91.3056 51.9595 91.2855 51.9896ZM89.0033 47.602C90.2419 48.1912 91.3841 48.8769 91.8385 50.2905C92.0115 50.8254 92.0275 51.312 91.8405 51.7805C90.7024 50.5016 89.7975 49.094 89.0033 47.602ZM89.695 61.2294C90.4209 61.2636 91.0724 61.5089 91.6575 61.9473C91.9149 62.1403 92.0014 62.4077 92.0577 62.7717C91.2192 62.275 90.4309 61.8085 89.6447 61.344C89.6608 61.3058 89.6769 61.2676 89.695 61.2294ZM89.6648 61.8648C90.5677 62.4158 91.4705 62.9688 92.4076 63.5398C91.6877 63.7932 90.0408 62.8139 89.6648 61.8648ZM91.4042 27.8376C92.3794 27.6727 93.3044 27.8355 94.2053 28.1653C94.4828 28.2679 94.8125 28.4147 94.7924 28.7645C94.7703 29.1365 94.4184 29.2532 94.1108 29.3236C93.8735 29.3778 93.6141 29.3939 93.3728 29.3638C92.6429 29.2713 91.9471 29.0501 91.2614 28.7505C91.3077 28.4569 91.3519 28.1693 91.4042 27.8376ZM92.1904 30.9061C92.3111 31.0569 92.3633 31.262 92.4378 31.447C92.5142 31.638 92.4719 31.8089 92.305 31.9356C92.1261 32.0704 91.921 32.0925 91.7521 31.9497C91.5771 31.8029 91.3981 31.632 91.2896 31.4349C90.9316 30.7814 90.6039 30.1118 90.2379 29.398C90.4551 29.3155 90.5777 29.2693 90.7607 29.1989C91.2353 29.7639 91.7239 30.3249 92.1904 30.9061ZM89.7412 27.2866C90.1313 27.2946 90.4551 27.4374 90.6622 27.7792C90.8713 28.1271 90.7386 28.5232 90.3706 28.6942C89.9282 28.8993 89.2566 28.672 89.0274 28.2377C88.7579 27.727 89.0917 27.2826 89.7412 27.2866ZM87.1955 30.3632C86.9381 30.514 86.6566 30.6688 86.365 30.4496C86.1579 30.2948 86.1298 29.9409 86.3188 29.5689C86.7451 28.7304 87.4187 28.1814 88.3176 27.9019C88.4523 28.2759 88.5649 28.5816 88.7016 28.9616C88.2653 29.4402 87.8209 29.9952 87.1955 30.3632ZM87.7706 32.0462C87.65 31.3887 88.2552 30.2204 89.1802 29.2592C89.2224 29.2652 89.2727 29.2632 89.3169 29.2773C89.4074 29.3095 89.4959 29.3497 89.6286 29.406C89.0797 30.3511 88.772 31.4208 87.7706 32.0462ZM69.5605 36.2348C71.4306 32.9048 74.3302 30.9604 78.0201 30.1379C78.2554 30.0857 78.4967 30.0595 78.7581 30.0635C76.5582 32.567 74.3161 35.0122 72.6331 37.9018C70.9661 40.7632 69.5887 43.7533 68.4928 46.8801C68.4345 46.868 68.3762 46.854 68.3158 46.8419C68.4103 46.0496 68.4948 45.2574 68.6014 44.4671C68.8889 42.3356 69.826 40.4595 70.9138 38.6478C71.2315 38.1189 71.5874 37.6122 71.9172 37.0894C72.0077 36.9446 72.1666 36.7958 71.9957 36.6028C71.6417 36.7797 70.7369 37.8434 70.0532 39.0258C69.5203 39.9488 69.0478 40.91 68.6034 41.8792C68.165 42.8343 68.0283 43.8779 67.795 44.9075C67.787 44.8532 67.7729 44.7969 67.7689 44.7426C67.5899 41.7404 68.0806 38.873 69.5605 36.2348ZM48.7706 26.6371C47.926 26.4541 47.0815 26.2812 46.2409 26.0881C43.9928 25.5693 41.803 24.8595 39.6675 23.9989C38.8692 23.6771 38.1132 23.2307 37.3691 22.7904C36.8503 22.4827 36.412 22.0604 36.1124 21.5215C35.9957 21.3104 35.8027 21.0691 35.9817 20.8298C36.1526 20.6026 36.4241 20.7293 36.6332 20.8057C37.1017 20.9766 37.5722 21.1536 38.0166 21.3768C38.5676 21.6522 39.1065 21.9599 39.6313 22.2836C41.8794 23.6812 44.2663 24.7891 46.7436 25.7121C47.2906 25.9152 47.8315 26.1384 48.3724 26.3576C48.5172 26.4159 48.6559 26.4943 48.7967 26.5647C48.7866 26.5888 48.7786 26.613 48.7706 26.6371ZM51.9517 26.8482C51.823 26.7276 51.7044 26.625 51.5958 26.5124C50.6708 25.5492 49.7458 24.584 48.8208 23.6208C47.3127 22.0504 45.5995 20.7152 43.9305 19.3277C43.1865 18.7104 42.4586 18.0689 41.7507 17.4094C41.5135 17.1882 41.3345 16.8886 41.1837 16.599C41.061 16.3617 41.1877 16.1969 41.4552 16.231C41.7166 16.2632 41.992 16.3155 42.2253 16.4321C42.8346 16.7398 43.4318 17.0736 44.0169 17.4255C44.3447 17.6225 44.6504 17.8618 44.9399 18.1112C47.747 20.5302 50.1339 23.2971 51.8934 26.5788C51.9255 26.6371 51.9497 26.6994 51.9758 26.7597C51.9798 26.7718 51.9678 26.7879 51.9517 26.8482ZM59.5747 31.3384C59.5285 32.2875 59.4903 33.2366 59.4461 34.1857C59.44 34.3144 59.4259 34.4431 59.4159 34.5698C59.3918 34.5718 59.3696 34.5738 59.3455 34.5758C59.253 33.9223 59.1686 33.2648 59.066 32.6133C58.8066 30.9664 58.509 29.3256 58.2818 27.6747C58.0063 25.6759 57.7851 23.6711 57.5458 21.6683C57.5096 21.3607 57.4855 21.045 57.5901 20.7293C57.8595 20.7273 57.9842 20.9002 58.0787 21.0611C58.314 21.4612 58.5532 21.8674 58.7322 22.2937C59.1987 23.3936 59.3958 24.5619 59.5285 25.7423C59.7396 27.6043 59.6632 29.4724 59.5747 31.3384ZM14.5 43.7533C14.9564 41.7143 15.2721 39.6552 15.3405 37.5619C15.4129 35.3822 15.0469 33.2748 14.2868 31.2338C14.2104 31.0307 14.14 30.8277 14.0676 30.6226C14.0636 30.6105 14.0737 30.5924 14.0998 30.4979C14.88 31.9296 15.4591 33.3593 15.7386 34.9016C16.1066 36.9366 16.0664 38.9534 15.4712 40.9462C15.1937 41.8731 14.9263 42.8021 14.6488 43.7291C14.6166 43.8397 14.5623 43.9423 14.4638 44.0388C14.4758 43.9423 14.4799 43.8458 14.5 43.7533ZM4.55441 38.3361C4.22865 38.3602 3.88681 38.314 3.56508 38.2456C3.06237 38.137 2.56167 38.0003 2.07103 37.8414C1.75332 37.7389 1.46979 37.5659 1.41751 37.1397C2.36059 36.9808 2.31434 36.8601 1.98859 36.1745C2.31434 36.1262 2.65216 36.3554 2.95781 36.1161C3.29161 35.8567 3.14481 35.5149 3.11465 35.1871C3.16693 35.167 3.21519 35.1268 3.2534 35.1349C4.12007 35.3118 4.82989 35.7421 5.3507 36.464C5.39896 36.5304 5.43716 36.6068 5.47537 36.6812C5.9459 37.6082 5.59401 38.2597 4.55441 38.3361ZM11.3651 96.4008C11.1962 96.5255 10.983 96.6059 10.7799 96.6703C10.5789 96.7326 10.3416 96.8291 10.1787 96.6079C10.0098 96.3767 10.056 96.1113 10.2149 95.9082C10.4059 95.6608 10.6331 95.4336 10.8744 95.2345C11.1157 95.0335 11.3932 94.8746 11.6808 94.6816C11.8959 94.9731 12.097 95.2486 12.3424 95.5844C12.0025 95.872 11.6969 96.1555 11.3651 96.4008ZM14.0355 97.4324C13.8726 97.6315 13.6554 97.8084 13.4262 97.921C13.1346 98.0638 12.8692 97.9291 12.839 97.6033C12.7988 97.1629 12.837 96.7125 12.8571 96.2681C12.8632 96.1213 12.9195 95.9765 12.9456 95.8599C13.4724 95.7252 13.9309 95.6066 14.4075 95.4839C14.502 96.1595 14.5141 96.8472 14.0355 97.4324ZM17.1141 94.6373C17.3775 94.7962 17.6208 95.0154 17.8178 95.2547C18.1134 95.6146 18.0471 95.8237 17.5765 95.8961C17.1442 95.9625 16.6717 95.9866 16.2534 95.8861C15.7145 95.7554 15.2118 95.4799 14.687 95.2647C14.9082 94.8525 15.0771 94.5348 15.2701 94.1708C15.8714 94.2392 16.5349 94.2854 17.1141 94.6373ZM16.8004 91.7236C17.1322 91.6995 17.5082 91.6814 17.6731 92.0474C17.84 92.4154 17.6188 92.723 17.3735 92.9824C16.9371 93.4449 16.356 93.5837 15.7547 93.654C15.5758 93.6741 15.3928 93.6581 15.2018 93.6581C15.0429 93.4147 14.874 93.1553 14.691 92.8738C15.25 92.2404 15.9196 91.784 16.8004 91.7236ZM13.2533 90.5413C13.3437 90.3342 13.5187 90.1793 13.758 90.1853C14.0174 90.1914 14.2004 90.3603 14.2707 90.5976C14.3371 90.8167 14.3934 91.0581 14.3632 91.2792C14.3069 91.7035 14.1863 92.1198 14.0918 92.5461C13.7037 92.5461 13.4081 92.5461 13.0884 92.5461C12.8491 91.8342 12.9778 91.1787 13.2533 90.5413ZM13.4684 92.9844C13.8263 93.0287 14.1903 93.1131 14.4618 93.3946C14.8117 93.7566 14.8478 94.2191 14.5261 94.6072C14.2164 94.9832 13.8223 95.2084 13.3377 95.2104C12.64 95.2607 12.28 94.6031 12.2941 94.0582C12.3102 93.4107 12.837 92.906 13.4684 92.9844ZM11.9181 93.1614C11.8215 93.465 11.7371 93.7304 11.6386 94.0361C11.1359 94.1065 10.6171 94.1849 10.0942 94.0683C9.96756 94.0401 9.83686 93.9878 9.7323 93.9134C9.41056 93.6822 9.42866 93.2478 9.77452 93.0548C9.94343 92.9603 10.1425 92.898 10.3335 92.8658C10.8905 92.7753 11.4516 92.8879 11.9181 93.1614ZM15.9598 82.331C14.4155 82.6447 13.0059 83.2802 11.727 84.185C10.9368 84.744 10.0681 84.9492 9.12704 84.9029C7.58071 84.8265 7.58071 84.8184 6.22541 85.47C6.26361 84.8205 6.55116 84.3479 6.94327 83.9236C7.94266 82.8478 9.16926 82.1239 10.5467 81.6474C11.5481 81.3015 12.5837 81.1326 13.6454 81.1507C13.768 81.1527 13.8907 81.1728 14.0194 81.2271C12.9094 81.5931 11.7753 81.8625 10.6472 82.3713C10.8805 82.5985 11.0353 82.512 11.1861 82.4778C12.099 82.2808 13.0099 82.0757 13.9249 81.8887C14.8559 81.6976 15.7829 81.7459 16.7059 81.9611C16.7642 81.9751 16.8144 82.0194 16.9351 82.0837C16.5611 82.1782 16.2635 82.2707 15.9598 82.331ZM55.344 70.624C56.0799 69.5341 56.8963 68.4965 57.6926 67.4469C57.9098 67.1593 58.1833 66.914 58.4708 66.6084C58.5754 66.8979 58.4447 67.0688 58.3823 67.2378C57.6323 69.2566 56.5303 71.0784 55.2092 72.7675C53.9947 74.3199 52.6354 75.7436 51.2318 77.125C51.1976 77.1592 51.1554 77.1853 51.1152 77.2155C51.0931 77.2034 51.073 77.1934 51.0508 77.1813C51.081 77.127 51.1112 77.0727 51.1433 77.0204C52.5429 74.887 53.9183 72.7394 55.344 70.624ZM50.6346 74.1269C50.7955 72.6851 50.9402 71.2393 51.1212 69.7996C51.3263 68.1748 51.7225 66.5883 52.1709 65.0158C52.2433 64.7604 52.3559 64.5151 52.4765 64.2778C52.6072 64.0245 52.7822 63.7992 53.124 63.6947C53.4478 63.9943 53.492 64.3784 53.5262 64.7564C53.6287 65.8764 53.5302 66.9884 53.3754 68.0984C53.2286 69.1621 52.933 70.1856 52.5308 71.179C52.0623 72.3392 51.5958 73.4995 51.1112 74.6517C50.9523 75.0297 50.7452 75.3877 50.5602 75.7536C50.526 75.7436 50.4938 75.7335 50.4597 75.7235C50.518 75.1906 50.5763 74.6577 50.6346 74.1269ZM52.012 78.786C54.0751 77.0788 56.3092 75.6169 58.6518 74.3199C58.7543 74.2636 58.8569 74.2073 58.9614 74.157C58.9876 74.145 59.0238 74.155 59.1042 74.155C55.4706 78.1043 51.0911 80.9576 46.3274 83.2962C46.3857 83.2379 46.438 83.1696 46.5064 83.1233C48.4267 81.7861 50.2103 80.276 52.012 78.786ZM48.4267 71.1307C48.4569 71.4142 48.4971 71.6395 48.5051 71.8667C48.5413 72.9626 48.3242 74.0263 48.0889 75.086C47.6827 76.9239 46.8985 78.6231 46.1344 80.3303C46.1002 80.4067 46.0539 80.4771 46.0077 80.5454C45.9916 80.5676 45.9514 80.5696 45.9232 80.5816C45.9353 79.5742 47.9863 71.7501 48.4267 71.1307ZM40.878 87.0163C44.3166 85.6851 47.741 84.3177 51.1976 83.0409C52.9792 82.3813 54.8111 81.8585 56.6329 81.3196C57.1859 81.1567 57.7831 81.1306 58.3622 81.0682C58.5693 81.0461 58.7865 81.1004 59.0962 81.1306C58.7523 81.5911 58.3884 81.8304 58.0043 82.0214C56.8239 82.6085 55.6556 83.2239 54.4391 83.7286C51.2258 85.0618 47.9139 86.0893 44.4794 86.6885C43.4117 86.8755 42.3319 86.9921 41.2561 87.1349C41.0932 87.157 40.9243 87.1369 40.685 87.1369C40.7876 87.0726 40.8278 87.0364 40.878 87.0163ZM76.3793 83.7949C76.5924 83.6461 76.8518 83.5536 77.1032 83.4732C77.3485 83.3968 77.5978 83.437 77.817 83.5938C78.2976 83.9357 78.2775 84.4324 77.7506 84.6978C77.1957 84.9773 76.5984 85.0095 75.9952 84.913C75.784 84.8788 75.581 84.8003 75.2612 84.7099C75.6855 84.3559 76.0153 84.0503 76.3793 83.7949ZM75.1969 85.4217C75.2934 85.4941 75.394 85.5504 75.4704 85.6308C75.8544 86.043 76.2425 86.4532 76.6045 86.8856C76.7613 87.0726 76.888 87.2978 76.9745 87.527C77.1293 87.9312 76.9262 88.261 76.5019 88.3314C76.1882 88.3857 75.9107 88.2972 75.6835 88.0659C75.1848 87.5572 74.9194 86.1657 75.1969 85.4217ZM74.3825 84.9934C74.2779 85.1784 74.2076 85.3252 74.1171 85.4579C73.6727 86.1174 73.0795 86.6201 72.4079 87.0304C72.2691 87.1148 72.1083 87.1772 71.9494 87.2154C71.7483 87.2636 71.5834 87.141 71.5673 86.9338C71.5593 86.8232 71.5834 86.7026 71.6216 86.596C71.9474 85.6952 73.176 84.7038 74.3825 84.9934ZM72.5265 77.0325C71.0506 77.6559 69.9506 78.6693 69.2871 80.1413C69.1101 80.5374 68.897 80.9174 68.7421 81.3216C67.984 83.3043 66.5765 84.8265 65.1628 86.3366C64.817 86.7066 64.3766 86.9861 63.9785 87.3079C63.9403 87.2757 63.9021 87.2435 63.8638 87.2113C64.1031 86.3246 64.4812 85.5001 65.008 84.7461C65.2553 84.3901 65.5308 84.0543 65.8043 83.7185C66.3834 83.0067 66.7675 82.2084 66.9645 81.3095C67.0792 80.7907 67.226 80.274 67.4029 79.7733C68.169 77.5915 70.5056 76.3126 72.6029 76.6987C72.7175 76.7188 72.8322 76.7309 72.981 76.8234C72.8301 76.8897 72.6813 76.9662 72.5265 77.0325ZM103.093 74.1932C103.948 74.2314 104.78 74.3923 105.593 74.6557C105.828 74.7321 106.079 74.7703 106.325 74.8065C106.409 74.8186 106.504 74.7703 106.592 74.7502C106.598 74.6999 106.606 74.6517 106.612 74.6014C105.766 74.157 104.843 73.964 103.885 73.8534C104.414 73.596 104.975 73.4733 105.548 73.415C106.926 73.2743 108.277 73.4874 109.618 73.773C109.864 73.8252 110.111 73.8695 110.348 73.9459C110.678 74.0525 110.785 74.2797 110.588 74.5592C110.431 74.7824 110.205 74.9855 109.966 75.1142C109.156 75.5485 108.279 75.7496 107.36 75.6732C106.847 75.631 106.329 75.5606 105.834 75.4238C104.712 75.1142 103.604 74.7562 102.468 74.4104C102.755 74.1711 102.753 74.1771 103.093 74.1932ZM31.7046 24.6423C32.4848 24.5619 33.249 24.7087 33.9628 24.9983C35.0145 25.4225 36.0521 25.887 37.0635 26.3978C39.5288 27.6445 41.8151 29.1828 44.0712 30.7693C49.1928 34.3727 54.244 38.0747 59.2591 41.8249C60.6043 42.8303 61.9516 43.8337 63.2988 44.8351C63.3169 44.8793 63.335 44.9196 63.3551 44.9678C63.3632 44.9417 63.3732 44.9196 63.3813 44.8974C67.1395 47.6925 70.9018 50.4775 74.6499 53.2846C77.7647 55.6172 80.8735 57.9578 83.9339 60.3587C87.849 63.4313 91.7239 66.5521 95.5907 69.6849C97.7383 71.4243 99.6647 73.3929 101.354 75.5867C101.593 75.8984 101.82 76.2161 102.037 76.5399C102.775 77.6438 103.373 78.8242 103.779 80.1091C104.354 81.9269 104.024 83.6059 103.049 85.1905C102.84 85.5303 102.582 85.842 102.331 86.1516C101.096 87.6678 99.5078 88.4601 97.5412 88.4661C97.308 88.4661 97.0727 88.4661 96.8395 88.4661C94.8568 88.4842 92.9726 88.0659 91.1468 87.2837C86.7391 85.3935 82.7214 82.874 78.9853 79.8859C75.2653 76.9099 71.7342 73.7187 68.3621 70.3545C63.5984 65.6009 58.8649 60.8172 54.1133 56.0515C51.0609 52.989 48.0969 49.8441 45.2818 46.5564C43.6007 44.5918 41.7749 42.7499 40.0255 40.8416C37.7572 38.3663 35.485 35.8889 33.5948 33.1039C32.706 31.7929 31.8997 30.4235 31.0873 29.0621C30.657 28.3443 30.3694 27.5601 30.1724 26.7396C29.8969 25.5874 30.3916 25.0083 31.1074 24.767C31.2944 24.7047 31.4955 24.6645 31.7046 24.6423ZM1.10784 59.1723C1.45371 59.3131 1.75533 59.4036 2.02679 59.5483C3.13074 60.1395 4.24072 60.7166 5.31852 61.3541C6.87088 62.271 8.39509 63.2342 9.92936 64.1793C10.056 64.2557 10.1747 64.3442 10.3396 64.4548C8.05526 64.1934 1.81365 60.6422 1.10784 59.1723ZM5.06516 56.0676C4.58256 55.1124 4.10599 54.1573 3.88882 53.0996C3.85062 52.9126 3.85263 52.7196 3.82448 52.42C4.08588 52.5688 4.26887 52.6452 4.41566 52.7658C4.68511 52.987 4.96663 53.2082 5.18581 53.4776C5.86346 54.3021 6.57931 55.1044 7.16245 55.9932C8.59014 58.1729 9.86702 60.4412 10.9368 62.82C11.0474 63.0633 11.16 63.3086 11.2806 63.57C11.2847 63.6907 11.2907 63.8113 11.2967 63.932C8.94204 61.533 6.60344 59.118 5.06516 56.0676ZM45.139 73.5357C44.2743 77.0727 42.907 80.3886 40.7192 83.3284C39.4725 85.0055 38.0146 86.4653 36.2189 87.5532C34.2101 88.7697 32.1571 89.3368 30.0678 89.2724C28.5939 89.2262 27.0998 88.8683 25.5897 88.1906C23.6593 87.3219 22.0285 86.031 20.5807 84.4987C18.397 82.1883 16.8004 79.5018 15.5778 76.5841C13.7479 72.2166 12.8913 67.648 12.7646 62.9286C12.7546 62.5787 12.7626 62.2268 12.7626 61.8769C12.7445 57.4289 13.4121 53.0956 14.9906 48.9231C15.6019 47.3104 16.358 45.7701 17.2689 44.3042C18.8836 41.7083 21.0955 39.7718 23.8363 38.4588C24.3993 38.1893 24.9724 37.9802 25.5515 37.8253C27.0194 37.4373 28.5356 37.4171 30.0859 37.761C32.8669 38.3803 35.2839 39.6894 37.4355 41.5494C39.9752 43.7452 41.8231 46.4237 43.1463 49.4861C44.9942 53.7672 45.9494 58.2473 46.1384 62.8984C46.2872 66.4917 45.9936 70.0409 45.139 73.5357ZM112.793 64.4849C112.391 65.3295 111.75 65.9368 110.887 66.3067C110.841 66.3269 110.793 66.3389 110.744 66.353C109.729 66.6526 109.021 66.2625 108.808 65.2269C108.623 64.3221 108.619 63.4071 108.828 62.4982C108.908 62.1483 109.146 61.9131 109.437 61.7422C109.719 61.5773 109.918 61.6698 110.006 61.9734C110.211 62.6873 110.427 62.7657 111.05 62.3615C111.142 62.3012 111.243 62.2489 111.414 62.1524C111.464 62.4279 111.517 62.647 111.539 62.8682C111.557 63.0492 111.525 63.2362 111.539 63.4172C111.573 63.8897 111.838 64.0667 112.285 63.9179C112.486 63.8515 112.681 63.7651 112.89 63.6806C113.007 63.9943 112.906 64.2517 112.793 64.4849Z" fill="black"/>
<path d="M39.2432 47.5243C39.1165 47.2367 38.9677 46.9593 38.829 46.6777C38.8048 46.6898 38.7787 46.7019 38.7546 46.7119C38.8631 47.0075 38.9798 47.2991 39.0803 47.5967C40.2144 50.9729 41.1153 54.4054 41.5697 57.9424C41.8653 60.2327 42.0282 62.5291 41.811 64.8335C41.6582 66.4442 41.4692 68.0529 41.2922 69.6615C40.9725 72.5812 40.2748 75.4065 39.1849 78.1352C38.7827 79.1426 38.4208 80.1641 38.0427 81.1796C37.9723 81.3666 37.9181 81.5596 37.8577 81.7506C37.7974 81.9396 37.7833 82.1307 38.0045 82.2171C38.2237 82.3016 38.3423 82.1387 38.4368 81.9738C38.5032 81.8592 38.5615 81.7386 38.6198 81.6179C38.831 81.1836 39.0441 80.7472 39.2532 80.3129C40.4437 77.8335 41.3586 75.2577 41.805 72.539C42.1006 70.7293 42.3218 68.9055 42.5289 67.0816C42.8386 64.3509 42.8426 61.6202 42.4786 58.8895C41.9518 54.9463 40.8519 51.1639 39.2432 47.5243Z" fill="black"/>
<path d="M82.9406 61.5674C85.0339 63.2264 87.1533 64.8511 89.2225 66.5362C91.3318 68.2555 93.3789 70.0511 95.1685 72.1163C96.4936 73.6445 97.7484 75.223 98.7458 76.9925C99.2244 77.8411 99.6245 78.7198 99.7713 79.6911C99.8517 80.2179 99.896 80.7508 99.9422 81.2816C99.9583 81.4666 100.001 81.6154 100.204 81.6476C100.401 81.6778 100.519 81.5611 100.584 81.3922C100.618 81.2997 100.638 81.1972 100.644 81.0986C100.702 79.9565 100.704 78.8123 100.169 77.7687C99.723 76.894 99.2445 76.0273 98.6895 75.219C97.0547 72.8482 95.1906 70.6604 93.025 68.7582C91.3962 67.3265 89.7091 65.9591 88.014 64.6058C85.7558 62.8041 83.375 61.1693 80.9821 59.5526C80.6563 59.3334 80.3105 59.1464 79.9727 58.9453C79.9606 58.9654 79.9505 58.9875 79.9385 59.0076C80.3467 59.3736 80.7468 59.7517 81.1631 60.1056C81.7482 60.6002 82.3394 61.0909 82.9406 61.5674Z" fill="black"/>
<path d="M64.437 20.8643C64.9296 21.5781 65.4625 22.2638 65.9873 22.9555C66.659 23.8403 67.5015 24.5079 68.5532 24.8839C68.895 25.0066 69.259 25.0669 69.5204 25.1333C70.6143 25.0146 71.5131 24.719 72.2229 23.975C72.603 23.5769 72.983 23.1767 73.3953 22.8128C74.0749 22.2115 74.1232 22.2357 73.532 21.3429C73.5038 21.3006 73.4676 21.2664 73.4335 21.2302C72.1948 19.881 70.6444 19.2435 68.8286 19.326C67.8815 19.3702 66.9385 19.5251 66.0014 19.6678C65.4364 19.7543 64.9095 19.7985 64.4772 19.334C64.443 19.2978 64.4008 19.2697 64.3586 19.2415C64.2158 19.145 64.067 19.0646 63.9001 19.1872C63.7211 19.32 63.7111 19.5009 63.8016 19.6779C64.0006 20.08 64.1816 20.4963 64.437 20.8643ZM67.4231 20.1605C68.3521 20.0821 69.2791 19.891 70.2121 20.1082C71.2336 20.3455 72.1948 20.6974 72.8966 21.5439C70.4373 22.5795 68.1912 22.3583 66.2206 20.3314C66.675 20.2671 67.047 20.1927 67.4231 20.1605ZM65.5872 20.6813C65.8948 20.9367 66.1924 21.2041 66.4981 21.4615C68.1409 22.8429 69.9869 23.1647 72.0178 22.5192C72.239 22.4488 72.4562 22.3603 72.6794 22.294C72.8322 22.2477 72.9891 22.2196 73.1459 22.1854C73.158 22.2115 73.17 22.2377 73.1821 22.2618C72.607 22.8067 72.0802 23.4221 71.4427 23.8805C70.5942 24.4918 69.633 24.6768 68.6095 24.2264C67.5417 23.7558 66.665 23.0722 66.0758 22.0527C65.7963 21.5681 65.5309 21.0734 65.3218 20.5224C65.4122 20.5747 65.5108 20.6169 65.5872 20.6813Z" fill="black"/>
<path d="M8.08745 76.7294C8.2624 76.8159 8.43131 76.9345 8.57407 77.0673C8.97624 77.4413 9.3583 77.8374 9.75845 78.2154C10.0259 78.4688 10.2169 78.511 10.3617 78.3803C10.5065 78.2496 10.4884 78.0686 10.2592 77.761C9.92334 77.3086 9.68204 76.8099 9.64585 76.2509C9.57145 75.1067 9.13308 74.1254 8.42326 73.2447C7.94066 72.6474 7.74159 71.9497 7.76572 71.1916C7.7798 70.7774 7.82605 70.3591 7.89441 69.9489C7.99898 69.3074 8.15582 68.674 8.24832 68.0326C8.28854 67.7591 8.26642 67.4595 8.19403 67.1941C8.07137 66.7396 7.65915 66.6351 7.30122 66.9447C7.16247 67.0634 7.03579 67.2021 6.93123 67.3509C6.33803 68.1975 5.7388 69.038 5.17175 69.9027C4.8098 70.4536 4.61475 71.075 4.61475 71.8451C4.60067 72.2915 4.73942 72.8043 4.95257 73.2989C5.59805 74.8031 6.59341 75.9935 8.08745 76.7294ZM5.57995 70.6487C5.69658 70.4275 5.83331 70.2184 5.97206 70.0092C6.41444 69.3436 6.85884 68.6801 7.30323 68.0165C7.39171 67.8838 7.4842 67.7551 7.64306 67.5238C7.70942 67.918 7.63502 68.1874 7.58072 68.4528C7.45404 69.0903 7.29519 69.7217 7.1866 70.3631C6.96742 71.6742 7.1866 72.8747 8.07137 73.9283C8.66456 74.6341 8.97624 75.4666 8.97423 76.4962C8.83146 76.3031 8.7269 76.1805 8.64244 76.0457C8.11762 75.2133 7.59882 74.3768 7.07399 73.5463C6.9815 73.4015 6.91514 73.2044 6.66781 73.2245C6.52705 73.4417 6.59743 73.6529 6.68792 73.8439C6.94731 74.3848 7.2228 74.9177 7.49426 75.4526C7.5586 75.5792 7.62898 75.7039 7.64507 75.8728C7.56866 75.8225 7.4842 75.7783 7.41383 75.72C6.41444 74.9056 5.7388 73.868 5.37283 72.6394C5.17376 71.9597 5.24615 71.2821 5.57995 70.6487Z" fill="black"/>
<path d="M83.0752 44.7005C83.1214 44.5215 83.1636 44.3244 82.9847 44.1937C82.7876 44.049 82.6087 44.1515 82.4397 44.2782C81.9189 44.6663 81.3921 45.0504 80.8713 45.4405C80.262 45.8969 79.7593 46.4479 79.3873 47.1135C79.0314 47.7509 78.8001 48.4225 78.8424 49.1685C78.9208 50.8858 79.5663 52.3497 80.8894 53.4577C81.3036 53.8055 81.6294 54.1494 81.7621 54.6722C81.8023 54.8311 81.8928 54.9778 81.9692 55.1266C82.0074 55.199 82.0476 55.2976 82.114 55.3257C82.2387 55.378 82.4136 55.4504 82.5101 55.4021C82.6046 55.3519 82.6529 55.1669 82.673 55.0341C82.6871 54.9477 82.6227 54.8431 82.5845 54.7526C82.307 54.0991 82.2588 53.4194 82.4176 52.7398C82.6971 51.5514 82.7313 50.365 82.5021 49.1665C82.303 48.1289 82.3834 47.1095 82.6891 46.102C82.8278 45.6355 82.9525 45.167 83.0752 44.7005ZM82.0175 46.1241C81.6977 47.1497 81.6595 48.1852 81.8305 49.2429C82.0677 50.7008 82.0396 51.2397 81.7038 52.5829C81.2513 51.4589 81.3921 50.3228 81.0965 49.2429C80.7547 49.3455 80.7728 49.5687 80.7627 49.7597C80.7185 50.731 80.7265 51.6962 81.0261 52.6372C81.0503 52.7116 81.0603 52.7901 81.0804 52.8846C81.0161 52.8685 80.9759 52.8705 80.9598 52.8524C79.9765 51.7143 79.3652 50.4313 79.4637 48.887C79.4798 48.6256 79.5482 48.3582 79.6427 48.1129C80.1112 46.8842 81.0523 46.092 82.2286 45.3661C82.1401 45.6838 82.0858 45.905 82.0175 46.1241Z" fill="black"/>
<path d="M4.13597 27.4633C4.20434 28.2817 4.35717 29.082 4.64874 29.8542C5.24796 31.4447 6.25137 32.5768 8.01889 32.8503C8.24008 32.8845 8.37883 32.9991 8.45122 33.2102C8.51556 33.3992 8.58192 33.5903 8.6704 33.7692C8.76089 33.9482 8.90969 34.0568 9.12082 33.9683C9.32995 33.8818 9.36615 33.6989 9.29979 33.5078C9.21332 33.2565 9.11479 33.0051 8.99012 32.7719C8.89963 32.603 8.90969 32.4743 8.99414 32.3094C9.29979 31.7202 9.40033 31.0788 9.43853 30.2221C9.26359 28.4989 8.40899 26.9948 6.71788 26.0155C6.14882 25.6857 5.52144 25.5007 4.86993 25.4223C4.23853 25.3479 3.99924 25.5872 4.03946 26.2166C4.06962 26.6328 4.10179 27.0491 4.13597 27.4633ZM5.17356 26.1402C5.32236 26.1743 5.47318 26.2005 5.61997 26.2447C7.28091 26.7414 8.65632 28.4466 8.8011 30.1839C8.84936 30.7691 8.69252 31.5252 8.3929 32.0218C7.3714 30.003 6.48865 27.9801 5.11726 26.2327C5.13335 26.2025 5.15346 26.1723 5.17356 26.1402ZM7.68107 32.0439C6.79831 31.8248 6.25941 31.3241 5.83513 30.6886C5.26003 29.828 4.96243 28.8608 4.83574 27.8413C4.77341 27.3306 4.74727 26.8158 4.73721 26.291C5.83915 28.1148 6.74603 30.0311 7.68107 32.0439Z" fill="black"/>
<path d="M21.5199 33.5783C22.0789 34.3887 23.0522 34.6803 23.7178 35.3559C23.7298 35.368 23.7459 35.38 23.76 35.38C23.8686 35.372 24.0294 35.4002 24.0717 35.3439C24.136 35.2554 24.1561 35.0945 24.1199 34.9879C24.0797 34.8713 23.9651 34.7748 23.8686 34.6843C23.6735 34.5033 23.4704 34.3344 23.2874 34.1756C23.4423 33.7734 23.6031 33.4436 23.6997 33.0937C24.0717 31.7525 24.0958 30.3831 23.8887 29.0218C23.7137 27.8696 23.4282 26.7335 23.1829 25.5933C23.1346 25.3661 23.0663 25.1409 22.9838 24.9217C22.8109 24.4693 22.5153 24.3728 22.1433 24.6844C21.9181 24.8735 21.7069 25.1107 21.5742 25.3701C21.1881 26.1262 20.8061 26.8903 20.4964 27.6806C20.1244 28.6277 20.042 29.623 20.2008 30.6345C20.3758 31.7384 20.9006 32.6795 21.5199 33.5783ZM22.3564 25.6376C22.3946 25.4787 22.4429 25.3219 22.5153 25.0564C22.5917 25.2756 22.648 25.3922 22.6701 25.5149C22.9174 26.8059 23.211 28.0908 23.388 29.3918C23.5489 30.5842 23.4785 31.7867 23.1547 32.961C23.0441 33.3632 23.0381 33.3793 22.7606 33.703C22.656 33.518 22.5354 33.3632 22.4731 33.1862C22.1553 32.2874 21.9502 31.3664 21.9382 30.4032C21.9181 28.7986 21.9744 27.204 22.3564 25.6376ZM21.7029 26.3414C21.6064 27.3407 21.4958 28.3783 21.4093 29.4179C21.3229 30.4535 21.4214 31.479 21.6285 32.5066C20.3114 30.7893 20.4301 28.3421 21.7029 26.3414Z" fill="black"/>
</svg>
