<svg width="107" height="107" viewBox="0 0 107 107" fill="none" xmlns="http://www.w3.org/2000/svg">
<path fill-rule="evenodd" clip-rule="evenodd" d="M42.8712 34.1093C50.2552 34.8176 57.7656 33.1614 64.4681 36.3133C72.1409 39.9214 81.3737 44.6134 82.8403 52.9047C84.318 61.2586 75.1543 67.361 71.2992 74.9327C68.2342 80.9526 68.1409 88.7806 62.5896 92.6783C57.0564 96.5634 49.6452 94.5935 42.8712 94.8932C35.6876 95.211 28.3697 97.447 21.8311 94.4813C14.5233 91.1668 7.25236 85.602 5.33221 77.8669C3.43803 70.2364 10.1699 63.4986 12.2583 55.918C14.5037 47.7673 11.0858 36.7878 18.0076 31.8567C24.9351 26.9215 34.3796 33.2948 42.8712 34.1093Z" fill="#AEA3F0"/>
<path d="M23.6938 41.9338C22.2235 44.3723 21.3006 47.0146 20.7495 49.7965C20.3909 51.6141 20.2116 53.4505 20.2569 55.3039C20.3041 57.212 20.5627 59.0824 21.2949 60.8621C21.6309 61.6812 22.0574 62.4475 22.6425 63.1213C22.6689 63.1515 22.6935 63.1855 22.718 63.2176C22.7916 63.2591 22.8652 63.2798 22.9388 63.2817C23.0955 62.808 23.2446 62.3343 23.3899 61.8568C23.2314 61.2094 22.9105 60.5922 22.6859 59.9694C22.333 58.9918 22.0518 57.9877 21.8442 56.9704C21.4271 54.9113 21.2893 52.7673 21.4667 50.6742C21.8083 46.6654 23.2106 42.7473 25.5396 39.4633C25.5226 39.4482 25.5056 39.4331 25.4886 39.418C24.8809 40.2409 24.2298 41.0449 23.6938 41.9338Z" fill="#B7B9C6"/>
<path d="M26.2647 36.7636C26.1401 36.288 26.0401 35.8105 25.9117 35.3425C25.723 35.1877 25.538 35.0254 25.3644 34.8423C25.3531 34.8291 25.321 34.8367 25.27 34.8291C25.2927 34.9537 25.3115 35.0707 25.3323 35.1877C25.4172 35.6444 25.5059 36.1012 25.5871 36.5579C25.655 36.9429 25.6852 37.3374 25.7834 37.713C25.8589 38.0036 25.9306 38.2754 25.7607 38.5472C26.0872 39.0115 26.4855 39.372 26.929 39.6758C26.9384 39.6456 26.9441 39.6136 26.9422 39.5777C26.9177 38.6453 26.5025 37.6677 26.2647 36.7636Z" fill="#B7B9C6"/>
<path d="M38.7361 68.1772C39.0834 67.4374 39.2268 66.6711 39.1607 65.8596C39.1437 65.652 39.1381 65.4443 39.1513 65.2367C39.1551 65.1612 39.1645 65.0895 39.1777 65.0197C39.157 64.9234 39.1305 64.8253 39.1022 64.7272C39.1286 64.6856 39.157 64.6422 39.1834 64.6007C39.2155 64.5516 39.2136 64.4818 39.1834 64.4327C39.1796 64.4252 39.1739 64.4176 39.1702 64.4101C39.1324 64.3478 39.0399 64.3157 38.9758 64.3591C38.9739 64.3591 38.9739 64.361 38.972 64.361C38.9418 64.2893 38.9097 64.2213 38.872 64.1534C38.821 64.1364 38.7738 64.1156 38.7323 64.0892C38.4832 63.9212 38.2246 63.7684 37.9641 63.623C37.9679 63.6325 37.9698 63.6419 37.9755 63.6532C38.2114 64.0949 38.4794 64.444 38.57 64.9555C38.67 65.5104 38.4775 66.0502 38.3171 66.5805C38.0057 67.6091 37.5772 68.6057 37.1922 69.6079C36.4543 71.5348 35.5861 73.6449 35.3558 75.704C35.3407 75.8456 35.537 75.8682 35.603 75.7701C36.0051 75.1812 36.3165 74.5414 36.5977 73.8884C36.8449 72.7276 37.2432 71.6198 37.6999 70.5289C38.0302 69.7381 38.3718 68.9511 38.7361 68.1772Z" fill="#B7B9C6"/>
<path d="M46.8934 79.2402C48.6222 79.3138 50.3416 79.2421 52.0591 79.0723C53.1538 78.9628 54.2409 78.7854 55.3337 78.657C55.7225 78.6117 56.1132 78.5778 56.5038 78.5438C57.1078 78.4362 57.7099 78.2909 58.2289 78.0135C58.7857 77.7152 58.4875 76.9282 57.925 76.8924C57.0474 76.8376 56.1188 77.1358 55.2563 77.2887C54.3088 77.4567 53.3614 77.6171 52.4083 77.7473C50.5643 77.9984 48.7072 78.1626 46.8481 78.2475C45.0495 78.3286 43.2395 78.3683 41.439 78.3475C40.4802 78.3362 39.5195 78.3135 38.5607 78.2947C37.7227 78.2777 36.847 78.155 36.0203 78.3211C35.926 78.34 35.9052 78.4891 35.992 78.5306C36.7055 78.8797 37.5491 79.0704 38.4135 79.1931C38.6966 79.1893 38.9797 79.1855 39.2628 79.1761C41.8089 79.0968 44.3511 79.1327 46.8934 79.2402Z" fill="#B7B9C6"/>
<path d="M60.0653 58.9008C59.4123 58.2157 58.6857 57.6401 57.8854 57.1946C57.8062 57.2494 57.7118 57.2947 57.6269 57.2928C57.4759 57.289 57.4004 57.1569 57.3966 57.0097C57.3966 56.9889 57.4004 56.9663 57.4023 56.9455C56.8644 56.6888 56.2944 56.4869 55.6923 56.3491C55.0638 56.2038 54.4127 56.1358 53.7691 56.0905C52.5348 56.0056 51.3099 55.8773 50.0982 55.6111C48.8657 55.3412 47.622 55.2412 46.3744 55.2412C45.4591 55.2752 44.5512 55.3771 43.7076 55.6376C43.6472 55.6564 43.634 55.764 43.7076 55.7735C45.1363 55.9697 46.6141 55.8225 48.058 55.881C49.7679 55.949 51.4741 56.1207 53.1633 56.4038C54.6297 56.6492 56.1359 56.938 57.4759 57.6136C58.0817 57.9194 58.6498 58.2931 59.1405 58.7612C59.6275 59.2236 59.9276 59.8181 60.3975 60.2843C60.7014 60.5862 61.1506 60.2729 61.077 59.8879C61.0732 59.8728 61.0694 59.8558 61.0656 59.8407C60.7184 59.5463 60.3843 59.2349 60.0653 58.9008Z" fill="#B7B9C6"/>
<path d="M44.978 57.3005C43.5964 57.3345 42.2168 57.3836 40.8352 57.4081C39.6122 57.4289 38.3911 57.4364 37.1681 57.4308C36.515 57.4289 35.8658 57.393 35.2241 57.3005C35.0995 57.3043 34.975 57.3062 34.8485 57.31C34.8032 57.2779 34.7579 57.2458 34.7126 57.2156C34.2861 57.1326 33.8652 57.025 33.4481 56.8778C33.3499 56.8438 33.2424 56.84 33.1197 56.8174C33.0631 57.0684 33.148 57.2232 33.2518 57.3553C33.416 57.5667 33.5821 57.7856 33.7822 57.9592C34.1596 58.2876 34.5428 58.616 34.958 58.8935C35.9168 59.5371 36.7793 60.2958 37.6361 61.0602C38.0551 61.4339 38.4685 61.817 38.8799 62.202C38.912 62.2322 38.9365 62.2681 38.9648 62.3039C39.1611 62.404 39.3593 62.4908 39.5631 62.5587C39.7934 62.6342 40.0406 62.3379 39.8934 62.1303C39.6122 61.7339 39.2574 61.3829 38.8724 61.0526C38.3873 60.2769 37.5625 59.5899 36.968 59.0445C36.5377 58.65 36.0923 58.265 35.6318 57.8988C37.0945 57.9724 38.5458 58.0253 40.0255 57.9762C41.8034 57.9177 43.7115 57.9687 45.4555 57.5912C45.6253 57.5553 45.7065 57.4327 45.7197 57.3005C45.4724 57.2968 45.2252 57.2949 44.978 57.3005Z" fill="#B7B9C6"/>
<path d="M22.8652 66.6673C22.8879 66.756 22.9124 66.8429 22.9389 66.9316C22.9181 66.9391 22.8973 66.9504 22.8803 66.9636C22.8841 67.0165 22.8879 67.0712 22.8917 67.1241C22.9672 67.9394 23.2371 68.6868 23.8089 69.2776C24.3185 69.8041 24.864 70.293 25.4056 70.7874C25.417 70.7742 25.4283 70.761 25.4358 70.744C25.6132 70.9328 25.7944 71.1215 25.9756 71.3084C27.2288 72.4559 28.4934 73.5902 29.7239 74.7622C29.9145 74.9453 30.1089 75.1246 30.3033 75.3039C30.5959 75.2548 30.8393 74.9 30.6468 74.6131C30.0769 73.7638 29.2313 73.0749 28.5028 72.3615C27.6799 71.5556 26.8438 70.7591 26.0134 69.9627C25.2943 69.2738 24.5752 68.5773 24.0599 67.7167C23.4673 66.7258 23.3597 65.7444 23.1087 64.6592C23.1049 64.6686 23.1031 64.6781 23.0993 64.6894C22.9068 65.3367 22.8407 65.9992 22.8652 66.6673Z" fill="#B7B9C6"/>
<path d="M26.2456 34.0382C25.9115 33.4173 26.1003 32.551 26.6797 32.1565C26.8873 32.0169 27.1194 31.9093 27.3421 31.7961C28.3481 31.2846 29.5579 31.0657 30.5016 30.4768C30.6733 30.3692 30.7205 30.1899 30.6752 30.0352C30.5355 30.071 30.394 30.105 30.2543 30.1427C29.237 30.4183 28.2349 30.7467 27.3157 31.2695C26.8948 31.5092 26.5023 31.8093 26.1191 32.1094C25.9512 32.2415 25.8209 32.434 25.7039 32.6171C25.4076 33.087 25.4265 33.5664 25.7171 34.0364C25.9323 34.3855 26.2305 34.6573 26.557 34.8989C26.7571 35.0461 26.9647 35.1782 27.1779 35.3028C27.1817 35.2764 27.176 35.248 27.1534 35.2197C26.8552 34.8309 26.4796 34.4723 26.2456 34.0382Z" fill="#B7B9C6"/>
<path d="M34.5671 31.2394C35.2937 31.2677 35.9052 31.5942 36.5734 31.8414C36.9924 31.9962 37.4 32.1227 37.8039 31.9641C37.5774 31.9339 37.351 31.8603 37.1207 31.732C36.9829 31.6546 36.8414 31.5772 36.7149 31.4828C36.2619 31.1469 35.7542 30.9544 35.1937 30.8978C35.1107 30.8883 35.0276 30.8713 34.9163 30.8506C34.7879 30.8676 34.6577 30.8997 34.5256 30.9506C34.3765 31.0072 34.3935 31.2318 34.5671 31.2394Z" fill="#B7B9C6"/>
<path d="M29.6203 33.0489C32.9024 32.2789 35.8731 34.3097 39.1156 34.0983C40.3933 34.0152 41.5088 33.5792 42.5185 32.796C43.7472 31.8429 44.8192 30.467 46.4593 30.2669C46.8575 30.2179 46.9632 29.7347 46.7669 29.5195C46.7028 29.529 46.6367 29.5384 46.5725 29.5478C46.4687 29.5837 46.3649 29.6045 46.2555 29.6063C45.4666 29.7705 44.7494 30.0971 44.1492 30.667C43.8472 30.9539 43.5509 31.2427 43.2565 31.5371C43.0054 31.7863 42.7544 32.0392 42.5147 32.2996C41.4125 33.4943 40.0045 33.9511 38.4305 33.985C37.5057 34.0058 36.6035 33.8284 35.7259 33.5472C34.6897 33.2131 33.663 32.8432 32.5816 32.6903C32.0153 32.611 31.4397 32.5657 30.8678 32.5525C30.7357 32.5487 30.6036 32.5544 30.4753 32.5676C30.1884 32.6186 29.9034 32.6884 29.6165 32.7828C29.5769 32.7998 29.5372 32.8186 29.4976 32.8375C29.4164 32.9149 29.4806 33.081 29.6203 33.0489Z" fill="#B7B9C6"/>
<path d="M45.0761 33.9857C45.0629 34.0574 45.044 34.1291 45.0365 34.2027C44.9704 34.8444 44.6345 35.3144 44.123 35.6843C43.7021 35.9882 43.2491 36.2203 42.7622 36.377C43.4417 36.3996 44.1947 36.0675 44.7194 35.6787C45.0421 35.439 45.3781 35.1559 45.5687 34.7992C45.7499 34.4594 45.8292 34.0763 46.0066 33.7328C46.1274 33.4969 46.0198 33.2477 45.8367 33.127C45.7386 33.1911 45.6404 33.2553 45.5385 33.3157C45.2762 33.4629 45.1327 33.695 45.0761 33.9857Z" fill="#B7B9C6"/>
<path d="M37.0338 23.8336C37.0942 23.8279 37.0942 23.743 37.0338 23.7392C34.5595 23.609 32.0682 23.2674 29.6674 22.6502C28.535 22.3595 27.429 21.9953 26.3344 21.5838C25.8172 21.3894 25.2944 21.2007 24.815 20.9252C24.5414 20.7685 24.3319 20.5722 24.1262 20.3703C24.0601 19.3417 23.7581 18.3017 23.6638 17.2712C23.6034 16.5993 23.6562 15.8557 23.543 15.1706C23.4618 15.0932 23.3844 15.0139 23.3089 14.9309C23.2882 14.9082 23.2504 14.8988 23.1636 14.8535C23.1636 15.4688 23.1655 16.0293 23.1636 16.5899C23.1617 17.7299 23.2353 18.8623 23.441 19.9852C23.4731 20.1551 23.5279 20.3004 23.6317 20.4476C23.945 20.9025 24.3545 21.2403 24.815 21.5272C25.6209 22.0274 26.4986 22.369 27.3988 22.6483C29.6523 23.3485 31.97 23.7052 34.316 23.8977C34.4123 23.9053 34.5104 23.911 34.6067 23.9185C35.4107 23.9279 36.2203 23.9015 37.0338 23.8336Z" fill="#B7B9C6"/>
<path d="M23.6921 12.9169C23.4486 13.2604 23.3769 13.6058 23.4939 13.9512C24.8188 11.9789 26.9855 11.6411 29.2937 11.324C32.0002 10.9522 34.7086 10.6144 37.4415 10.5389C39.9139 10.4709 42.392 10.6483 44.789 11.2844C45.9686 11.5977 47.1198 12.0148 48.2088 12.5659C49.0506 12.9924 49.9641 13.838 50.9285 13.8682C50.9323 13.8682 50.9361 13.8663 50.9399 13.8663C50.9115 13.7323 50.8568 13.5983 50.77 13.4681C50.6171 13.2359 50.4435 12.9962 50.2227 12.8358C49.7697 12.5074 49.2979 12.196 48.7996 11.9393C47.7181 11.3806 46.5499 11.0503 45.3721 10.7672C42.2712 10.0236 39.1174 9.80846 35.941 9.83866C34.5953 9.85187 33.2553 9.94435 31.9153 10.0878C30.1959 10.2728 28.5011 10.5691 26.8515 11.0919C26.0569 11.3429 25.2869 11.6543 24.5829 12.111C24.2451 12.3319 23.9299 12.5829 23.6921 12.9169Z" fill="#B7B9C6"/>
<path d="M58.4348 21.7898C58.2781 22.7788 58.0441 23.7546 57.8535 24.7379C57.744 25.3022 57.6459 25.8684 57.5628 26.4365C57.4911 26.9291 57.5798 27.4123 57.7346 27.8803C57.8308 28.171 57.9913 28.4239 58.2159 28.6315C58.2291 28.5504 58.2177 28.4598 58.1687 28.3654C57.4666 27.0442 57.8157 25.8552 58.1064 24.4586C58.3499 23.2922 58.6594 22.0862 58.6934 20.8915C58.6971 20.7744 58.599 20.6876 58.4933 20.6631C58.4971 21.0424 58.4933 21.4218 58.4348 21.7898Z" fill="#B7B9C6"/>
<path d="M65.2858 29.2125C65.2499 29.188 64.6686 28.8747 64.6667 28.869C64.5988 28.518 65.4651 28.3802 65.6444 28.3292C66.2823 28.148 66.9051 27.965 67.5563 27.8328C68.8963 27.5629 70.259 27.412 71.5952 27.1175C71.6726 27.1005 71.7009 27.0458 71.699 26.9873C70.7251 26.9967 69.7513 27.0609 68.7793 27.1572C67.4751 27.2874 66.1804 27.4856 64.929 27.8838C64.5006 28.0197 64.0929 28.2216 63.6853 28.416C63.5286 28.4915 63.3154 28.6161 63.3701 28.8143C63.406 28.9464 63.5853 29.0823 63.7306 29.1332C64.1307 29.2767 64.5421 29.4107 64.9592 29.4899C65.114 29.5201 65.2688 29.5466 65.4254 29.5692C65.4575 29.4428 65.4028 29.2899 65.2858 29.2125Z" fill="#B7B9C6"/>
<path d="M64.2024 32.2171C63.7551 31.9454 63.4059 31.5169 63.304 30.996C63.2115 30.5261 63.3229 30.0467 63.2266 29.5767C63.2134 29.5126 63.1568 29.4805 63.0983 29.4805C63.0964 29.6862 63.0794 29.8579 63.104 30.0221C63.1719 30.4808 63.2795 30.9337 63.3361 31.3943C63.4173 32.0548 63.8023 32.4153 64.4119 32.5852C64.5648 32.6286 64.7139 32.6909 64.8705 32.7135C65.4254 32.7966 65.9803 32.9023 66.5389 32.9362C66.6937 32.9457 66.8485 32.9513 67.0032 32.957C66.9919 32.9475 66.9806 32.9362 66.9655 32.9287C66.12 32.4757 65.0668 32.7418 64.2024 32.2171Z" fill="#B7B9C6"/>
<path d="M66.3162 33.4774C65.8991 33.4548 65.4857 33.4114 65.0762 33.334C65.4914 33.4548 65.9217 33.5114 66.3162 33.4774Z" fill="#B7B9C6"/>
<path d="M66.4899 37.6635C65.8576 36.1555 64.5798 35.025 64.0231 33.4811C63.991 33.3943 63.9079 33.3735 63.8438 33.3962C63.9853 33.8718 64.2344 34.2908 64.5251 34.689C64.9951 35.3307 65.4594 35.9762 65.8029 36.6991C66.4823 38.124 66.639 39.5509 66.2049 40.9796C67.0901 40.1699 66.9108 38.6638 66.4899 37.6635Z" fill="#B7B9C6"/>
<path d="M67.1694 66.9621C67.6507 69.7327 68.1584 72.4996 68.702 75.2608C68.885 76.1875 69.1153 77.1028 69.389 78.0069C69.8419 79.0525 70.444 80.0226 71.2952 80.8323C71.8614 81.372 72.7239 80.5114 72.1539 79.9735C70.5082 78.4164 69.9382 76.2063 69.4569 74.0661C68.8756 71.4785 68.3415 68.8796 67.7941 66.2845C66.6976 61.0811 65.7954 55.8399 64.7064 50.6364C64.7026 50.6176 64.6706 50.6213 64.6724 50.6402C64.7932 52.5408 64.9744 54.4432 65.2009 56.3438C65.2066 56.3721 65.2122 56.4004 65.2179 56.4268C65.9332 59.9279 66.5579 63.444 67.1694 66.9621Z" fill="#B7B9C6"/>
<path d="M17.6982 40.1411C17.5151 40.8432 17.3849 41.551 17.3924 42.2776C17.3981 42.8551 17.5604 43.3779 17.919 43.8479C17.968 43.9121 18.0228 43.9668 18.0794 44.0159C17.9284 43.4893 17.6925 43.0212 17.6302 42.4607C17.5585 41.802 17.6264 41.1301 17.7831 40.4865C18.0794 39.2692 18.7324 38.0348 19.3194 36.9288C19.3817 36.8118 19.2439 36.7231 19.1533 36.7892C19.1363 36.8194 19.1193 36.8515 19.1042 36.8817C18.5475 37.9291 17.9982 38.9823 17.6982 40.1411Z" fill="#B7B9C6"/>
<path d="M66.0955 64.7137C66.6334 67.6466 67.1675 70.5796 67.7054 73.5125C67.9923 75.0772 68.3207 76.6342 68.7982 78.1517C69.0568 78.9783 69.3795 79.7861 69.6947 80.5958C69.8344 80.9525 70.0646 81.2601 70.393 81.4753C70.8366 81.7659 71.3122 81.983 71.8387 82.0811C71.9218 82.0962 72.0143 82.1245 72.0917 82.1057C72.1728 82.0849 72.2426 82.0151 72.3181 81.9679C72.2728 81.9018 72.2408 81.8094 72.1785 81.7754C71.9501 81.6584 71.718 81.5451 71.4764 81.4583C70.7837 81.2092 70.3553 80.7373 70.0911 80.0485C69.8325 79.3747 69.6003 78.6952 69.3927 78.0082C69.1191 77.1042 68.8888 76.1888 68.7057 75.2621C68.1641 72.5028 67.6564 69.7359 67.1732 66.9634C66.5617 63.4454 65.937 59.9292 65.2198 56.4301C65.2141 56.4018 65.2085 56.3734 65.2028 56.347C64.8159 54.4464 64.4894 52.5346 64.144 50.6264C64.0553 50.1357 64.1081 50.0848 64.5913 50.1131C65.1254 50.1452 65.6142 50.3396 66.1087 50.5226C67.1977 50.9265 68.2849 51.3323 69.3795 51.7211C70.3836 52.0759 71.4065 52.1533 72.4484 51.8891C72.839 51.789 73.2354 51.7098 73.6299 51.6211C74.8472 51.3512 76.0551 51.3342 77.2479 51.7551C77.4442 51.8249 77.6462 51.8721 77.8443 51.9344C78.7144 52.2043 79.6033 52.2231 80.4942 52.0873C80.7697 52.0457 81.0358 51.9476 81.3661 51.8608C81.3963 52.0099 81.4246 52.1269 81.4416 52.2439C81.7096 54.1331 81.9908 56.0205 82.24 57.9116C82.5684 60.4086 82.8704 62.9113 83.1874 65.4101C83.4252 67.2786 83.6838 69.1452 83.9084 71.0137C84.116 72.75 84.2934 74.4902 84.4803 76.2284C84.5501 76.8852 84.5992 77.5439 84.5143 78.2045C84.4576 78.648 84.3293 79.0595 84.0311 79.4124C83.882 79.5879 83.7706 79.7955 83.6536 79.9956C83.631 80.0352 83.6404 80.1258 83.6725 80.1598C83.7046 80.1938 83.7801 80.1994 83.8367 80.1957C83.882 80.1919 83.9292 80.1636 83.9688 80.1372C84.4312 79.8163 84.8427 79.4426 84.9578 78.867C85.0559 78.3781 85.1446 77.878 85.1503 77.3816C85.1578 76.7116 85.0956 76.0378 85.037 75.3697C84.7521 72.0536 84.3557 68.7526 83.8707 65.4592C83.597 63.6077 83.3441 61.7543 83.1025 59.899C82.9062 58.3835 82.7552 56.8623 82.5571 55.3467C82.257 53.0536 81.8719 50.7737 81.385 48.5145C81.0113 46.7819 80.6244 45.0493 80.1507 43.3412C79.6033 41.3727 78.7899 39.5175 77.4631 37.9245C76.9233 37.2772 76.7346 36.492 76.6459 35.6823C76.5534 34.8311 76.6421 34.0007 76.9648 33.1967C77.1856 32.6494 77.3159 32.0756 77.3064 31.4792C77.3008 31.1281 77.2177 30.7714 77.4423 30.4525C77.4612 30.4242 77.4631 30.3826 77.4631 30.3449C77.4706 29.9787 77.5008 29.6126 77.4744 29.2483C77.4536 28.9464 77.3763 28.6463 77.3008 28.35C77.2668 28.2122 77.1366 28.0914 77.1271 27.9574C77.0988 27.5761 76.8686 27.3591 76.5647 27.2006C76.3495 27.0892 76.1212 26.9779 75.8871 26.9269C75.2549 26.7872 74.6207 26.6457 73.9809 26.5664C72.6673 26.4022 71.3443 26.4098 70.025 26.4947C68.3377 26.6042 66.6655 26.8137 65.0367 27.293C64.4724 27.4591 63.9118 27.6441 63.4211 27.9763C63.2248 28.1103 62.9984 28.2782 62.9134 28.484C62.7417 28.8935 62.568 29.3144 62.5643 29.7806C62.5567 30.611 62.6964 31.4131 62.9927 32.1851C63.0437 32.3191 63.1475 32.4323 63.2154 32.5607C63.2758 32.6739 63.3607 32.7928 63.3702 32.9155C63.4287 33.7723 63.7458 34.5235 64.2402 35.2181C64.6875 35.8465 65.1047 36.4958 65.4085 37.2073C66.0521 38.7116 66.0483 40.2007 65.3047 41.6728C65.1065 42.0654 64.9046 42.458 64.6951 42.8449C63.5551 44.9436 63.2173 47.2065 63.3494 49.5544C63.4362 51.0964 63.776 52.6044 64.0723 54.1162C64.4686 56.1451 64.8989 58.1664 65.2783 60.1991C65.4463 61.0994 65.6086 62.0015 65.7747 62.9018C65.6218 62.7489 65.4029 62.6508 65.0782 62.5677C65.0914 62.211 65.0858 62.1865 64.7838 61.9695C64.1478 61.5127 63.5061 61.0654 62.8681 60.6106C62 59.9934 61.1525 59.3536 60.4448 58.5458C59.9012 57.9249 59.2406 57.4379 58.5461 56.9982C58.397 56.9038 58.2441 56.8151 58.0912 56.7302C58.2309 56.1168 58.3932 55.5053 58.4744 54.8824C58.9179 51.4418 58.4612 48.1181 57.0079 44.9625C55.968 42.7033 54.577 40.7197 52.3103 39.4722C52.3272 39.4004 52.3405 39.3174 52.365 39.2381C52.7708 38.0113 52.9991 36.7506 53.0558 35.4615C53.086 34.7783 53.0822 34.0932 53.0878 33.41C53.0916 33.0042 52.9406 32.6456 52.7217 32.3115C52.4499 31.8963 52.0875 31.5698 51.6874 31.281C51.0155 30.7979 50.2719 30.4487 49.5056 30.1505C49.5321 29.9523 49.5736 29.756 49.6378 29.5579C49.6906 29.3956 49.7416 29.2295 49.7548 29.0615C49.7755 28.801 49.651 28.6387 49.3924 28.5915C49.2282 28.5613 49.0508 28.5651 48.8828 28.5859C48.2034 28.667 47.5258 28.7633 46.8464 28.8444C46.4387 28.8935 46.0499 28.9803 45.6762 29.0992C44.4985 28.8765 43.3113 28.7237 42.1147 28.6236C39.9046 28.4387 37.6927 28.4311 35.4807 28.6048C33.5877 28.752 31.7135 29.0237 29.8771 29.5182C28.7881 29.8127 27.7293 30.1864 26.7422 30.7431C26.2288 31.0319 25.7495 31.3603 25.3682 31.8227C25.0172 32.2511 24.7737 32.7173 24.7473 33.2797C24.7435 33.3401 24.7454 33.4043 24.7284 33.4609C24.5529 34.0252 24.5944 34.5971 24.6529 35.1709C24.7265 35.8881 24.7869 36.6071 24.8775 37.3243C24.9171 37.6376 25.0115 37.9434 25.0945 38.2491C25.17 38.5285 25.2606 38.8021 25.3248 39.0116C24.9417 39.3514 24.5831 39.6269 24.2735 39.9534C23.4186 40.8556 22.7316 41.8842 22.1635 42.9864C19.8137 47.5519 18.9323 52.3911 19.5268 57.4926C19.6854 58.8459 20.0043 60.1651 20.5309 61.4278C20.8669 62.2337 21.2877 62.9924 21.8615 63.6549C22.0238 63.8417 22.2465 63.987 22.4636 64.1154C22.5277 64.1531 22.5995 64.1645 22.6693 64.155C22.4636 64.842 22.3088 65.5403 22.2597 66.2632C22.154 67.8429 22.6429 69.1773 23.8319 70.238C23.9867 70.3757 24.1414 70.5154 24.2962 70.6532C25.7419 71.9536 27.2122 73.2275 28.622 74.5657C29.8469 75.7283 31.0661 76.8909 32.4137 77.9139C33.9198 79.0557 35.5675 79.7653 37.4869 79.7616C39.2478 79.7578 41.0069 79.6483 42.7678 79.7521C43.8285 79.8144 44.8986 79.7446 45.9593 79.8144C48.1883 79.9616 50.4097 79.8843 52.6254 79.6446C54.2788 79.4653 55.9283 79.2501 57.5741 79.0066C58.2479 78.9066 58.9066 78.7009 59.569 78.5291C59.7238 78.4895 59.9069 78.4461 59.9559 78.1517C59.7729 78.1686 59.6313 78.1762 59.4898 78.1951C58.8594 78.2781 58.2328 78.3763 57.6024 78.4442C57.2381 78.4838 56.8739 78.5159 56.5077 78.5461C56.1171 78.5801 55.7264 78.6141 55.3376 78.6594C54.2448 78.7877 53.1577 78.9651 52.063 79.0746C50.3455 79.2444 48.6261 79.3162 46.8973 79.2425C44.3569 79.135 41.8128 79.0991 39.2686 79.1784C38.9855 79.1878 38.7024 79.1916 38.4193 79.1954C38.1041 79.1991 37.787 79.201 37.4718 79.2067C35.8619 79.2331 34.4464 78.6669 33.18 77.7251C32.174 76.9777 31.2266 76.1586 30.3074 75.3074C30.113 75.1281 29.9205 74.9488 29.728 74.7657C28.4993 73.5937 27.2329 72.4594 25.9797 71.3119C25.8438 71.1873 25.7079 71.0646 25.572 70.9382C25.5173 70.8891 25.4626 70.8382 25.4097 70.7891C24.87 70.2946 24.3226 69.8039 23.813 69.2792C23.2412 68.6884 22.9713 67.9411 22.8958 67.1257C22.8901 67.0729 22.8882 67.0181 22.8844 66.9653C22.8769 66.8671 22.8712 66.7671 22.8694 66.669C22.8467 66.0009 22.9128 65.3403 23.1015 64.691C23.1053 64.6816 23.1072 64.6722 23.1109 64.6608C23.3638 63.8021 23.6469 62.9528 23.881 62.0902C24.2188 60.8389 24.517 59.5782 24.8398 58.3231C25.0945 57.336 25.4116 56.3734 26.0288 55.5411C26.0439 55.5204 26.0345 55.4788 26.0363 55.4373C25.706 55.6204 25.5343 55.7902 25.2644 56.2168C24.8096 56.9378 24.5114 57.7267 24.3094 58.5496C24.0357 59.6631 23.73 60.7672 23.3978 61.8638C23.2525 62.3394 23.1034 62.815 22.9467 63.2887C22.926 63.3529 22.9052 63.4171 22.8844 63.4793C22.8373 63.3906 22.7844 63.3038 22.7259 63.2245C22.7014 63.1906 22.6768 63.1585 22.6504 63.1283C22.0653 62.4545 21.6407 61.6901 21.3028 60.8691C20.5705 59.0875 20.312 57.219 20.2648 55.3109C20.2195 53.4575 20.3969 51.6211 20.7574 49.8036C21.3066 47.0216 22.2314 44.3793 23.7017 41.9408C24.2377 41.0519 24.8888 40.246 25.4984 39.425C25.5154 39.4401 25.5324 39.4552 25.5494 39.4703C25.8552 39.742 26.1364 40.0176 26.4459 40.2535C26.9932 40.6725 27.6123 40.9688 28.2502 41.2217C30.4773 42.1088 32.812 42.4995 35.1844 42.7109C36.8924 42.8637 38.6043 42.8769 40.3161 42.792C42.7772 42.6693 45.2138 42.3598 47.6013 41.7426C49.1678 41.3369 50.6947 40.8235 52.0706 39.927C53.4729 41.0028 54.6166 42.3107 55.498 43.8452C56.721 45.976 57.4269 48.2786 57.727 50.7095C57.9629 52.6308 57.9138 54.5408 57.5099 56.4338C56.4134 55.9205 55.2432 55.6374 54.0089 55.5487C52.8255 55.4637 51.6421 55.3694 50.4795 55.1089C48.9545 54.7692 47.4088 54.6144 45.8517 54.688C43.2132 54.8145 40.5765 54.9711 37.9399 55.1448C36.2017 55.258 34.4728 55.3052 32.7534 54.9315C32.2533 54.8239 31.7362 54.7749 31.2247 54.7598C30.6528 54.7428 30.0772 54.7881 29.5053 54.822C29.3449 54.8315 29.1731 54.8579 29.007 55.0202C29.1259 55.041 29.1939 55.0636 29.2599 55.0636C30.3791 55.0636 31.4814 55.2165 32.5666 55.4732C34.1312 55.8431 35.709 55.9167 37.3058 55.8035C39.7329 55.6317 42.1619 55.4656 44.591 55.3052C45.1892 55.2656 45.7857 55.2448 46.3802 55.2448C47.6296 55.2448 48.8715 55.3429 50.1039 55.6147C51.3137 55.8808 52.5405 56.0092 53.7748 56.0941C54.4203 56.1394 55.0696 56.2074 55.6981 56.3527C56.302 56.4905 56.8701 56.6924 57.408 56.9491C57.4061 56.9698 57.4023 56.9925 57.4023 57.0133C57.408 57.1605 57.4816 57.2926 57.6326 57.2964C57.7175 57.2982 57.8119 57.253 57.8912 57.1982C58.6914 57.6455 59.4162 58.2212 60.0711 58.9044C60.39 59.2385 60.7241 59.5499 61.0695 59.8462C61.5753 60.2803 62.1075 60.6804 62.6568 61.0635C63.3853 61.5712 64.1195 62.0676 64.8801 62.5904C64.6102 62.6565 64.361 62.7168 64.1138 62.7754C62.8304 63.083 61.5489 63.4114 60.2598 63.6907C58.2875 64.1192 56.2775 64.1645 54.2731 64.1984C52.3669 64.2305 50.4569 64.1626 48.5506 64.1418C46.9973 64.1248 45.444 64.1097 43.8907 64.1003C42.8848 64.0946 41.892 63.9663 40.8993 63.8134C40.016 63.6775 39.329 64.1833 39.1856 65.0232C39.1742 65.093 39.1648 65.1648 39.1591 65.2402C39.1478 65.4479 39.1516 65.6574 39.1686 65.8631C39.2346 66.6746 39.0912 67.4409 38.7439 68.1807C38.3797 68.9546 38.038 69.7416 37.7078 70.5305C37.251 71.6214 36.8528 72.7312 36.6055 73.89C36.5867 73.9787 36.5659 74.0674 36.5489 74.158C36.4187 74.8412 36.2318 75.515 36.0431 76.185C35.9053 76.6776 35.7241 77.1608 35.5637 77.6458C35.5222 77.7723 35.4392 77.9233 35.5883 78.0101C35.76 78.1101 35.8582 77.9497 35.9355 77.8327C36.0695 77.6289 36.2186 77.4269 36.3055 77.2004C36.5357 76.5965 36.7679 75.9888 36.9415 75.3659C37.2133 74.3883 37.4133 73.3917 37.6889 72.416C38.106 70.942 38.7156 69.5378 39.312 68.1298C39.6197 67.405 39.731 66.6539 39.6593 65.8687C39.6348 65.6026 39.6215 65.3271 39.6631 65.0647C39.7423 64.5476 40.1519 64.2701 40.6709 64.3381C40.7313 64.3456 40.7917 64.3532 40.8521 64.3664C42.0298 64.6306 43.2245 64.6891 44.4249 64.7005C46.3934 64.7174 48.3638 64.7269 50.3323 64.7722C52.1555 64.8137 53.9749 64.8363 55.7981 64.7571C57.5609 64.6816 59.3161 64.5476 61.0336 64.1192C62.1717 63.8361 63.3041 63.5246 64.4403 63.2283C64.6177 63.183 64.797 63.1377 64.9782 63.1207C65.2575 63.0962 65.3953 63.1868 65.4651 63.4567C65.518 63.6549 65.5538 63.8681 65.5425 64.072C65.518 64.5231 65.4916 64.9779 65.4066 65.4214C65.0763 67.1521 64.7234 68.8772 64.3799 70.6041C64.1119 71.9592 63.8439 73.3144 63.5797 74.6714C63.5117 75.0187 63.4759 75.3754 63.3834 75.7151C63.1173 76.6908 62.6417 77.5005 61.5961 77.8233C61.5224 77.8459 61.4602 77.9044 61.362 77.9667C61.5508 78.1366 61.7319 78.095 61.9037 78.0554C62.5907 77.895 63.0701 77.4665 63.4136 76.8664C63.759 76.2624 63.9307 75.6056 64.0609 74.9281C64.2818 73.7749 64.5271 72.6274 64.763 71.478C65.1669 69.5132 65.5822 67.5504 65.9747 65.5837C66.0257 65.295 66.071 65.0043 66.0955 64.7137ZM73.8695 27.0703C74.4886 27.1288 75.1039 27.244 75.7135 27.3723C75.9702 27.4252 76.2212 27.5535 76.4496 27.6875C76.6798 27.8234 76.6987 27.9932 76.4949 28.1593C76.2608 28.3481 76.0023 28.5293 75.7248 28.6425C74.8019 29.0162 73.8299 29.2144 72.8504 29.371C71.4481 29.5956 70.0344 29.7221 68.6133 29.7334C67.5469 29.7428 66.4805 29.7296 65.4236 29.573C65.2689 29.5503 65.1122 29.5239 64.9574 29.4937C64.5403 29.4144 64.1289 29.2804 63.7288 29.137C63.5834 29.0841 63.4041 28.9501 63.3683 28.818C63.3136 28.6199 63.5268 28.4953 63.6835 28.4198C64.0893 28.2235 64.4988 28.0234 64.9272 27.8876C66.1786 27.4893 67.4733 27.2912 68.7775 27.1609C69.7494 27.0647 70.7233 27.0005 71.6972 26.9911C72.4219 26.9797 73.1467 27.0024 73.8695 27.0703ZM63.3739 29.5654C64.0572 29.9297 64.8083 30.0467 65.5595 30.1392C67.4374 30.3694 69.3153 30.3128 71.1933 30.1128C72.2389 30.0014 73.275 29.8296 74.2961 29.573C75.1303 29.3635 75.9324 29.0785 76.6742 28.635C76.7025 28.618 76.7402 28.618 76.8251 28.5972C76.9044 29.0464 76.995 29.4861 77.0554 29.9278C77.1045 30.2845 76.9686 30.5903 76.6704 30.7847C76.2627 31.0508 75.8532 31.3244 75.4115 31.5264C74.213 32.0718 72.9372 32.3625 71.6481 32.5965C70.1118 32.8777 68.5623 33.0136 67.0033 32.957C66.8486 32.9513 66.6938 32.9457 66.539 32.9362C65.9804 32.9023 65.4255 32.7966 64.8706 32.7135C64.7159 32.6909 64.5649 32.6286 64.412 32.5852C63.8024 32.4153 63.4174 32.053 63.3362 31.3943C63.2796 30.9338 63.172 30.4808 63.1041 30.0222C63.0795 29.858 63.0965 29.6862 63.0984 29.4805C63.0984 29.4673 63.0984 29.456 63.0984 29.4427C63.2286 29.4994 63.3041 29.5277 63.3739 29.5654ZM64.01 49.6243C63.9873 49.445 63.9534 49.2921 63.9496 49.1392C63.9043 47.0178 64.1931 44.9663 65.2424 43.077C65.4444 42.7127 65.6275 42.3391 65.8124 41.9672C65.9766 41.6388 66.1068 41.3104 66.2069 40.982C66.641 39.5552 66.4843 38.1284 65.8049 36.7015C65.4614 35.9787 64.9952 35.3351 64.5271 34.6915C64.2365 34.2932 63.9873 33.8724 63.8458 33.3986C63.8382 33.376 63.8307 33.3533 63.825 33.3307C63.8005 33.2401 63.7892 33.1438 63.7665 33.0193C63.8363 33.0193 63.8854 33.0061 63.9232 33.0212C64.3006 33.1627 64.6857 33.2646 65.0763 33.3364C65.484 33.4137 65.8992 33.4571 66.3163 33.4798C66.3446 33.4817 66.373 33.4836 66.4032 33.4855C69.2814 33.6176 72.0917 33.2514 74.8151 32.2945C75.4851 32.0586 76.1325 31.768 76.7213 31.3584C76.7497 31.3395 76.7874 31.3339 76.8384 31.315C76.929 31.4433 76.878 31.5792 76.844 31.6944C76.7119 32.1398 76.593 32.5927 76.4156 33.0193C75.8739 34.3197 75.8513 35.6389 76.2476 36.9695C76.3571 37.3376 76.5798 37.6716 76.7553 38.0189C76.7931 38.0944 76.8516 38.1604 76.9082 38.2246C78.3464 39.8666 79.1353 41.8332 79.7317 43.8923C79.8902 44.4435 80.0129 45.0059 80.1526 45.5645C80.1846 45.6948 80.2205 45.825 80.2526 45.9552C80.3583 46.4063 80.4772 46.8555 80.5621 47.3104C80.7867 48.4994 80.9962 49.6922 81.2114 50.8831C81.2321 51.002 81.251 51.1209 81.2812 51.3078C80.9283 51.3795 80.6225 51.4757 80.3092 51.5003C79.5127 51.5645 78.7219 51.5437 77.9576 51.2512C77.6386 51.1285 77.3045 51.0473 76.978 50.9454C75.9136 50.6095 74.8491 50.7095 73.7903 50.9624C73.2788 51.0851 72.7711 51.221 72.2634 51.3625C71.3707 51.6116 70.4949 51.5512 69.6362 51.2172C68.6095 50.8189 67.5884 50.4075 66.5655 50.0055C66.2578 49.8847 65.9483 49.7696 65.635 49.6658C65.1122 49.4884 64.58 49.4733 64.01 49.6243ZM52.197 32.7003C52.5122 33.208 52.5122 33.7138 52.1857 34.2178C52.1536 34.2668 52.1177 34.3102 52.0838 34.3574C52.0706 34.3253 52.0592 34.2932 52.0441 34.263C51.9592 34.0743 51.8629 33.8875 51.7818 33.6968C51.6327 33.3458 51.3949 33.0759 51.0721 32.8796C50.7909 32.7079 50.504 32.5418 50.2134 32.387C49.8661 32.2039 49.6472 31.9303 49.566 31.5453C49.5151 31.3018 49.4811 31.0602 49.4679 30.8186C50.1341 31.0885 50.7758 31.4037 51.3571 31.8359C51.6836 32.0794 51.9819 32.353 52.197 32.7003ZM35.7883 29.2502C38.7326 29.0294 41.6599 29.1238 44.5721 29.5692C44.1399 29.8164 43.736 30.1241 43.3661 30.5034C43.2811 30.5903 43.1905 30.6752 43.1037 30.7601C42.7564 31.1036 42.3997 31.4396 42.0619 31.7944C41.088 32.8211 39.8518 33.1986 38.4854 33.2231C37.4851 33.2401 36.5206 33.0061 35.5732 32.7041C34.5785 32.387 33.565 32.1681 32.5251 32.0888C31.6663 32.0246 30.8076 32.019 29.9941 32.3493C29.7412 32.4512 29.5166 32.6343 29.2901 32.7947C29.2392 32.8305 29.2279 32.9249 29.1977 32.9929C29.2958 32.9325 29.3958 32.8815 29.4959 32.8343C29.5355 32.8154 29.5751 32.7966 29.6148 32.7796C29.8941 32.6626 30.181 32.5927 30.4735 32.5644C30.6037 32.5512 30.734 32.5456 30.8661 32.5493C31.438 32.5625 32.0136 32.6078 32.5798 32.6871C33.6613 32.84 34.688 33.2099 35.7241 33.544C36.6018 33.8271 37.5039 34.0026 38.4287 33.9818C40.0028 33.9479 41.4126 33.4911 42.513 32.2964C42.7527 32.036 43.0037 31.7849 43.2547 31.5339C43.5491 31.2414 43.8473 30.9507 44.1474 30.6639C44.7476 30.0958 45.4629 29.7674 46.2537 29.6032C46.3632 29.6032 46.467 29.5824 46.5708 29.5447C46.635 29.5352 46.701 29.5258 46.7652 29.5163C47.2333 29.4503 47.7032 29.3993 48.1713 29.3352C48.4582 29.2955 48.7431 29.2427 49.0961 29.1861C49.0489 29.3314 49.0319 29.4012 49.0055 29.4673C48.7884 29.9976 48.7262 30.5563 48.7337 31.1206C48.745 32.0473 49.1093 32.7475 50.0152 33.1061C50.2644 33.2042 50.5078 33.3269 50.7324 33.4741C50.9325 33.6062 51.1212 33.7686 51.276 33.9516C51.4647 34.1743 51.61 34.4329 51.7742 34.6764C51.778 34.682 51.7818 34.6877 51.7856 34.6953C51.6459 34.8311 51.493 34.9538 51.3345 35.069C50.7853 35.4672 50.1813 35.7597 49.5547 36.0089C47.7561 36.7223 45.8744 37.096 43.9625 37.3262C40.4709 37.7452 36.9811 37.7056 33.5008 37.1922C31.8513 36.9488 30.2282 36.592 28.6673 35.9975C28.154 35.8012 27.6519 35.5785 27.1782 35.303C26.9649 35.1803 26.7573 35.0463 26.5573 34.8991C26.2307 34.6575 25.9325 34.3857 25.7174 34.0366C25.4286 33.5666 25.4078 33.0891 25.7042 32.6173C25.8212 32.4323 25.9514 32.2417 26.1194 32.1096C26.5025 31.8095 26.8932 31.5094 27.316 31.2697C28.2351 30.7469 29.2373 30.4185 30.2546 30.1429C30.3942 30.1052 30.5358 30.0712 30.6755 30.0354C32.3552 29.6164 34.0633 29.3805 35.7883 29.2502ZM51.946 38.5134C51.912 38.6927 51.8479 38.8663 51.8044 39.0456C51.6931 39.5024 51.4251 39.7968 50.9891 40.0063C49.4773 40.7291 47.8863 41.1953 46.2518 41.5275C43.2981 42.1258 40.3104 42.2919 37.3076 42.1598C35.056 42.0616 32.8214 41.8144 30.6339 41.2331C29.5204 40.9367 28.4333 40.5649 27.4273 39.9893C27.2556 39.8912 27.0895 39.7873 26.9291 39.6779C26.4855 39.374 26.0854 39.0135 25.7608 38.5492C25.9306 38.2775 25.8589 38.0057 25.7834 37.715C25.6872 37.3376 25.6551 36.945 25.5871 36.56C25.506 36.1032 25.4173 35.6465 25.3324 35.1897C25.3116 35.0727 25.2908 34.9557 25.2701 34.8311C25.321 34.8368 25.3531 34.8311 25.3644 34.8444C25.5381 35.0274 25.7211 35.1897 25.9118 35.3445C26.729 36.0107 27.6859 36.4411 28.6824 36.8053C30.2055 37.3602 31.7833 37.6962 33.3838 37.9321C36.2998 38.3586 39.2309 38.436 42.1657 38.2171C44.6004 38.0359 47.0011 37.6622 49.3112 36.8355C50.1549 36.5335 50.9665 36.1636 51.6969 35.637C51.9328 35.4672 52.1517 35.2747 52.3782 35.0916C52.4027 35.0991 52.4254 35.1067 52.4499 35.1142C52.399 35.5993 52.365 36.0862 52.2914 36.5675C52.1913 37.2149 52.0668 37.8641 51.946 38.5134Z" fill="black"/>
<path d="M60.3542 60.6558C59.8409 60.1669 59.3086 59.6989 58.7821 59.2251C58.5726 59.0383 58.3536 58.8609 58.146 58.6721C57.5949 58.1701 57.0419 57.6699 56.3946 57.2868C55.985 57.0433 55.5528 56.8905 55.0772 56.8886C54.5034 56.8867 53.924 56.8621 53.3559 56.9301C52.1216 57.0754 50.8891 57.0301 49.6567 56.9716C48.2412 56.9056 46.8257 56.7848 45.4082 56.7508C44.2966 56.7244 43.1849 56.8017 42.0714 56.8187C40.5558 56.8414 39.0403 56.8433 37.5248 56.8678C36.1828 56.8886 34.8617 56.7697 33.5802 56.3507C33.499 56.3242 33.4141 56.3054 33.331 56.294C32.7592 56.2148 32.4345 56.5394 32.5346 57.1113C32.5704 57.3113 32.644 57.519 32.7554 57.6869C32.9309 57.9474 33.131 58.2041 33.365 58.4136C33.7274 58.7401 34.1218 59.0326 34.5125 59.3252C35.1863 59.831 35.8733 60.3217 36.5471 60.8275C37.1529 61.2824 37.7456 61.7561 38.3514 62.2109C38.5722 62.377 38.8214 62.4959 39.1101 62.5526C39.0724 62.4582 39.0233 62.377 38.9667 62.3034C38.9403 62.2676 38.9138 62.2317 38.8818 62.2015C38.4722 61.8165 38.0589 61.4352 37.638 61.0597C36.7792 60.2953 35.9186 59.5366 34.9598 58.893C34.5446 58.6155 34.1615 58.2871 33.784 57.9587C33.5839 57.7851 33.4179 57.5661 33.2537 57.3548C33.1499 57.2208 33.063 57.0679 33.1215 56.8169C33.2442 56.8395 33.3537 56.8433 33.4499 56.8772C33.867 57.0245 34.2879 57.132 34.7145 57.2151C34.8843 57.2472 35.0542 57.2774 35.2259 57.3019C35.8676 57.3925 36.5169 57.4284 37.1699 57.4321C38.3929 57.4378 39.6159 57.4302 40.8371 57.4095C42.2186 57.3849 43.6002 57.3359 44.9798 57.3019C45.2271 57.2962 45.4743 57.2962 45.7197 57.3C47.1975 57.3246 48.6677 57.5039 50.1436 57.5642C51.1817 57.6077 52.2178 57.636 53.2578 57.5171C53.8259 57.4529 54.4034 57.468 54.9772 57.4661C55.3659 57.4642 55.7245 57.5831 56.036 57.8247C56.3927 58.1021 56.755 58.3739 57.0985 58.6665C57.5987 59.0949 58.0705 59.5611 58.6481 59.8952C58.784 59.9744 58.9085 60.0782 59.0255 60.1839C59.4672 60.5878 59.9032 60.9974 60.3429 61.405C60.4297 61.4862 60.5316 61.6202 60.6468 61.4994C60.7109 61.4315 60.7298 61.2616 60.6902 61.1729C60.6053 60.9879 60.4977 60.7935 60.3542 60.6558Z" fill="black"/>
<path d="M38.872 64.1534C38.9493 64.1798 39.0324 64.1949 39.1116 64.2006C39.1947 64.2063 39.3211 64.1591 39.357 64.0949C39.3929 64.0326 39.3702 63.8948 39.3211 63.8326C39.1909 63.674 39.0512 63.5098 38.8795 63.4004C38.385 63.0871 37.883 62.7813 37.3658 62.5095C36.6958 62.1566 36.0032 61.8471 35.3294 61.5017C33.7044 60.6693 32.3021 59.5822 31.3093 58.0138C30.9828 57.4986 30.611 57.0098 30.2222 56.5398C29.9127 56.1661 29.5673 55.8132 29.1973 55.498C28.7746 55.1356 28.2688 54.911 27.7063 54.8506C27.4648 54.8242 27.2213 54.8242 27.0137 55.0507C27.0684 55.062 27.1231 55.0809 27.1798 55.0828C27.5459 55.0922 27.8686 55.2319 28.1763 55.4149C28.6009 55.6678 28.9841 55.9736 29.2785 56.3699C29.7881 57.0569 30.2864 57.7515 30.7695 58.4555C31.3659 59.3274 31.9982 60.1598 32.8607 60.7939C33.5704 61.3167 34.3083 61.7904 35.0897 62.2019C36.0352 62.7001 37.028 63.104 37.9641 63.6231C38.2246 63.7684 38.4832 63.9213 38.7323 64.0892C38.7738 64.1157 38.8229 64.1364 38.872 64.1534Z" fill="black"/>
<path d="M59.0481 62.3547C58.5007 62.4094 57.9496 62.4075 57.4004 62.4434C55.8754 62.5397 54.3485 62.6189 52.8273 62.7529C52.0875 62.819 51.3552 62.9832 50.621 63.1191C50.4134 63.1568 50.2001 63.2116 49.9736 63.4173C50.1435 63.406 50.236 63.4022 50.3285 63.3946C51.0589 63.3229 51.7874 63.2229 52.5197 63.1851C53.8993 63.1153 55.2809 63.0964 56.6624 63.0304C57.725 62.9794 58.7876 62.9096 59.8445 62.8077C60.2012 62.7737 60.5466 62.6151 60.8939 62.5057C60.9619 62.4849 61.0373 62.4472 61.0789 62.3924C61.1317 62.3226 61.1978 62.215 61.177 62.1471C61.1581 62.0829 61.0298 62.0093 60.9562 62.015C60.7637 62.0301 60.5731 62.0886 60.3824 62.1225C59.937 62.2056 59.4954 62.3094 59.0481 62.3547Z" fill="black"/>
<path d="M84.5254 24.4417C87.7528 24.4323 89.7157 21.1464 88.1359 18.3304C87.2508 16.7526 85.839 15.975 84.0177 15.9845C81.8246 15.9958 79.975 17.8209 80.0599 20.2065C80.1449 22.5581 82.1662 24.4493 84.5254 24.4417ZM82.7513 16.8319C84.0951 16.2789 85.3823 16.4733 86.5298 17.3283C87.7075 18.2078 88.2982 19.41 88.1359 20.8973C87.9453 22.6355 86.4468 23.8906 84.6557 23.8661C82.6173 23.8396 80.8394 22.2354 80.6733 20.2725C80.5412 18.7211 81.3056 17.4245 82.7513 16.8319Z" fill="black"/>
<path d="M86.0504 22.5089C86.1297 22.5032 86.2184 22.456 86.275 22.3994C86.4298 22.2465 86.5921 22.0937 86.7091 21.9125C87.2942 21.0103 87.2112 20.0591 86.8658 19.1022C86.7846 18.8757 86.6582 18.6606 86.5242 18.4586C86.4279 18.3133 86.3034 18.168 86.0844 18.185C86.2128 18.5492 86.3562 18.8738 86.443 19.2117C86.6771 20.1365 86.6638 21.0273 86.007 21.8087C85.9127 21.92 85.8296 22.0465 85.7749 22.1786C85.7428 22.256 85.7428 22.3881 85.79 22.4428C85.8372 22.5013 85.9617 22.5164 86.0504 22.5089Z" fill="black"/>
<path d="M81.8757 20.8686C81.9173 20.9139 82.0664 20.9007 82.1362 20.8611C82.1815 20.8347 82.2004 20.7063 82.1834 20.6365C82.1551 20.5213 82.0966 20.41 82.0343 20.3043C81.8097 19.9174 81.7493 19.5041 81.821 19.07C81.8663 18.7944 81.9267 18.5226 81.9758 18.2471C81.9909 18.1678 81.9946 18.0867 82.0154 17.9111C81.8625 18.0432 81.7493 18.1018 81.6927 18.1942C81.302 18.8341 81.1246 19.5229 81.3869 20.2477C81.4737 20.4836 81.6945 20.6761 81.8757 20.8686Z" fill="black"/>
<path d="M81.636 80.8995C81.5869 80.8995 81.5379 80.9051 81.4907 80.9127C81.2132 80.9542 80.932 80.9844 80.6565 81.0391C78.8559 81.3996 77.0535 81.7167 75.2039 81.6525C74.598 81.6318 73.9884 81.7035 73.3788 81.7318C73.3731 81.7658 73.3675 81.7998 73.3618 81.8337C73.5506 81.9394 73.7619 81.9772 73.979 81.9885C74.5886 82.0206 75.2001 82.0659 75.8116 82.0696C76.4835 82.0734 77.1554 82.0451 77.8254 82.0074C78.2161 81.9866 78.6049 81.9356 78.9899 81.8715C79.7373 81.7488 80.4828 81.611 81.2283 81.4695C81.3944 81.4374 81.5624 81.3808 81.7115 81.3015C81.7926 81.2581 81.8814 81.1448 81.8832 81.0599C81.8832 80.9353 81.7549 80.8976 81.636 80.8995Z" fill="black"/>
<path d="M22.7767 19.7456C22.7956 20.2477 22.956 20.6761 23.2618 21.0611C23.5864 21.4688 23.9922 21.7802 24.4301 22.0539C25.3077 22.6031 26.2627 22.9787 27.2441 23.2938C29.4938 24.0129 31.8134 24.3678 34.1575 24.5622C36.6734 24.7698 39.1911 24.7868 41.7069 24.5659C43.649 24.3961 45.5685 24.1054 47.4407 23.5505C48.3467 23.2825 49.2281 22.9522 50.0396 22.4615C50.5247 22.169 50.972 21.8293 51.2909 21.3499C51.5835 20.9139 51.7062 20.442 51.5891 19.9193C51.5627 19.8003 51.542 19.6777 51.5457 19.5569C51.5646 19.0813 51.5741 18.6019 51.6269 18.1281C51.7741 16.7976 51.8213 15.4745 51.6363 14.1402C51.5495 13.5154 51.3362 12.9926 50.8833 12.5567C50.2925 11.9886 49.5923 11.5922 48.8506 11.2638C47.6483 10.7316 46.3914 10.3711 45.1098 10.0974C42.2637 9.4897 39.3836 9.21037 36.9829 9.20471C34.1726 9.19339 31.8795 9.33871 29.609 9.73695C28.1368 9.99551 26.6855 10.3409 25.3096 10.9411C24.6113 11.2449 23.9469 11.6092 23.4071 12.1622C23.0655 12.5114 22.8277 12.9171 22.7673 13.4135C22.5729 15.0329 22.5295 16.6579 22.6182 18.2848C22.6484 18.7755 22.7579 19.2587 22.7767 19.7456ZM26.8553 11.094C28.5049 10.573 30.1997 10.2748 31.9191 10.0899C33.2572 9.94644 34.5991 9.85396 35.9448 9.84075C39.1213 9.81055 42.275 10.0238 45.376 10.7693C46.5537 11.0524 47.7219 11.3827 48.8034 11.9414C49.2998 12.1981 49.7716 12.5095 50.2265 12.8379C50.4473 12.9983 50.6209 13.238 50.7738 13.4701C50.8606 13.6004 50.9135 13.7344 50.9437 13.8684C51.006 14.1534 50.9399 14.4402 50.7398 14.7045C50.5417 14.963 50.3039 15.2027 50.0453 15.4009C49.3772 15.9105 48.6033 16.2238 47.8144 16.4937C46.28 17.0165 44.6946 17.3128 43.0885 17.5072C42.3128 17.6016 41.5314 17.6752 40.7519 17.728C39.9234 17.7828 39.0911 17.8035 38.2606 17.8375C35.4881 17.8394 32.7382 17.6223 30.0166 17.0863C28.6351 16.8145 27.2743 16.4635 25.9739 15.9086C25.3756 15.6538 24.7924 15.3669 24.2923 14.9461C24.0601 14.7517 23.8431 14.5271 23.6676 14.2817C23.5902 14.1722 23.5336 14.0628 23.4958 13.9533C23.3769 13.6079 23.4486 13.2606 23.694 12.919C23.9318 12.585 24.247 12.334 24.5886 12.1131C25.2907 11.6564 26.0607 11.345 26.8553 11.094ZM50.9739 17.7601C50.938 18.432 50.9248 19.1039 50.8927 19.7758C50.8776 20.0684 50.8399 20.3571 50.8116 20.6497C50.7776 20.9894 50.5832 21.2272 50.3284 21.4367C49.6263 22.0104 48.8147 22.3747 47.9692 22.6729C46.6726 23.1296 45.3344 23.4128 43.9774 23.6147C40.8652 24.0771 37.7397 24.1564 34.6086 23.9186C34.5123 23.911 34.4142 23.9072 34.3179 23.8978C31.9738 23.7053 29.6543 23.3505 27.4008 22.6484C26.5005 22.369 25.6229 22.0274 24.817 21.5273C24.3565 21.2404 23.9469 20.9026 23.6336 20.4477C23.5317 20.2986 23.4751 20.1552 23.443 19.9853C23.2373 18.8623 23.1618 17.7299 23.1655 16.5899C23.1674 16.0294 23.1655 15.467 23.1655 14.8536C23.2524 14.8989 23.2901 14.9083 23.3109 14.931C23.3864 15.014 23.4656 15.0933 23.5449 15.1707C24.1432 15.7406 24.8623 16.1313 25.6153 16.4635C27.2139 17.1675 28.8974 17.5846 30.6112 17.8866C33.6347 18.4188 36.6847 18.5792 39.7479 18.4641C42.2826 18.3697 44.7965 18.081 47.2445 17.3789C48.1636 17.1165 49.0657 16.8032 49.8886 16.3087C50.2944 16.0653 50.6662 15.7671 51.0852 15.4707C51.0947 15.5802 51.1154 15.684 51.1079 15.784C51.0664 16.4427 51.0097 17.1014 50.9739 17.7601Z" fill="black"/>
<path d="M55.219 49.0168C55.2511 49.1074 55.2945 49.2056 55.3606 49.2679C55.4115 49.3169 55.5172 49.3415 55.587 49.3264C55.638 49.315 55.7022 49.2226 55.7041 49.164C55.7078 49.0187 55.6909 48.8715 55.6625 48.73C55.2851 46.8388 54.5622 45.0836 53.5713 43.4359C53.4581 43.2491 53.3241 43.0717 53.1882 42.8999C53.1165 42.8093 53.0183 42.7414 52.9315 42.6621C52.907 42.681 52.8824 42.698 52.8579 42.7168C52.8749 42.7584 52.89 42.7999 52.9089 42.8395C53.6317 44.4324 54.2961 46.048 54.7811 47.7315C54.9057 48.1675 55.068 48.5903 55.219 49.0168Z" fill="black"/>
<path d="M56.1228 53.8542C56.353 53.8052 56.3228 53.6108 56.3285 53.4428C56.3606 52.6935 56.2077 51.9612 56.0869 51.2289C56.0794 51.1836 56.0454 51.144 56.0246 51.1006C56.0001 51.1025 55.9737 51.1044 55.9491 51.1062C55.9208 51.2082 55.8812 51.3063 55.868 51.4101C55.7793 52.1009 55.7378 52.7935 55.851 53.4881C55.9001 53.7674 55.9812 53.8844 56.1228 53.8542Z" fill="black"/>
<path d="M42.4372 36.4676C42.5467 36.4412 42.6543 36.4091 42.76 36.3752C43.2469 36.2185 43.7018 35.9883 44.1208 35.6825C44.6322 35.3126 44.9682 34.8426 45.0343 34.2009C45.0418 34.1273 45.0607 34.0575 45.0739 33.9839C45.1305 33.6932 45.2721 33.463 45.5344 33.3101C45.6363 33.2516 45.7345 33.1874 45.8326 33.1214C45.8666 33.0987 45.9024 33.0761 45.9364 33.0534C46.0346 32.9892 46.1289 32.9005 46.0534 32.7873C46.0138 32.7269 45.8817 32.6778 45.8062 32.6948C45.2966 32.8062 44.8493 33.0175 44.6757 33.5649C44.5983 33.8084 44.5549 34.065 44.4718 34.3066C44.4058 34.501 44.3491 34.7218 44.2151 34.8634C43.4979 35.6278 42.6769 36.2242 41.5766 36.2921C41.5351 36.294 41.4936 36.3148 41.4351 36.3318C41.7597 36.528 42.0183 36.5696 42.4372 36.4676Z" fill="black"/>
<path d="M36.7168 31.4826C36.8433 31.577 36.9848 31.6543 37.1226 31.7317C37.3529 31.8601 37.5794 31.9337 37.8058 31.9639C38.2324 32.0205 38.6514 31.911 39.0628 31.6449C39.2685 31.5128 39.4648 31.3675 39.6668 31.2297C39.7574 31.1674 39.8725 31.1127 39.8196 30.9768C39.7687 30.8409 39.6441 30.805 39.5177 30.8239C39.3988 30.8409 39.2799 30.8805 39.1704 30.9277C38.9798 31.0107 38.7948 31.1032 38.6117 31.2033C38.2022 31.426 37.7945 31.4241 37.3868 31.2051C37.1717 31.09 36.9584 30.9692 36.7414 30.8579C36.3167 30.6389 35.8675 30.5446 35.3938 30.6125C35.222 30.637 35.0352 30.6559 34.8823 30.8447C34.8955 30.8465 34.9069 30.8484 34.9201 30.8522C35.0314 30.873 35.1145 30.8918 35.1975 30.8994C35.7562 30.9541 36.262 31.1466 36.7168 31.4826Z" fill="black"/>
<path d="M31.2737 83.1507C30.8037 82.845 30.2639 82.7166 29.7166 82.6393C27.0252 82.2561 24.3999 82.4977 21.8539 83.4886C21.2839 83.7094 20.7007 83.8944 20.125 84.0963C19.9325 84.1642 19.7476 84.1548 19.5551 84.0812C19.2814 83.9774 18.9983 83.8944 18.719 83.8038C17.6602 83.4603 16.6051 83.1054 15.6067 82.6034C14.4101 82.0013 13.4438 81.1464 12.6964 80.0347C12.0924 79.1344 11.5942 78.1794 11.296 77.1376C10.9223 75.8335 10.5977 74.5142 10.2542 73.2025C10.2504 73.1893 10.273 73.1666 10.2976 73.1251C10.3429 73.1987 10.3825 73.2553 10.4146 73.3176C10.9468 74.3122 11.5791 75.2427 12.2415 76.1543C13.223 77.5057 14.5026 78.4795 16.0332 79.1307C16.7014 79.4157 17.3921 79.6289 18.1282 79.6101C18.4189 79.6025 18.7171 79.5629 18.9926 79.4761C19.8891 79.1911 20.227 78.3455 19.7891 77.5113C19.6891 77.3188 19.5626 77.1244 19.4003 76.9829C19.0153 76.6469 18.6227 76.311 18.1962 76.0316C17.0883 75.305 15.8558 74.8124 14.6876 74.1971C13.8326 73.7479 12.9738 73.3006 12.1604 72.7835C11.3318 72.2569 10.4939 71.7605 9.58603 71.385C9.39919 71.3076 9.25763 71.1868 9.13684 71.0245C8.79712 70.5658 8.3819 70.1865 7.88364 69.9109C7.43445 69.6618 6.97204 69.4391 6.51153 69.2126C6.14915 69.0352 5.77357 68.8823 5.41875 68.6936C4.60341 68.2595 3.92962 67.6631 3.45023 66.8704C3.31246 66.6439 3.27093 66.3608 3.13127 66.1381C3.00482 65.938 2.96896 65.7323 2.95574 65.5134C2.92177 64.9887 3.02746 64.4848 3.25961 64.0186C4.1127 62.3068 5.38289 61.046 7.2174 60.4062C7.30233 60.376 7.3967 60.3666 7.5458 60.3345C7.44577 60.4892 7.37971 60.5893 7.31365 60.6893C6.85314 61.3688 6.61722 62.1124 6.65497 62.9371C6.70215 63.9639 6.92297 64.9472 7.37028 65.8758C7.66659 66.4892 8.04784 67.0384 8.55554 67.4932C9.21989 68.0859 9.97672 68.4897 10.8826 68.552C11.4847 68.5936 11.9603 68.3576 12.2793 67.8462C12.5926 67.346 12.5171 66.8326 12.2397 66.3495C12.1 66.1098 11.9188 65.8852 11.7187 65.6908C11.1072 65.0925 10.4618 64.5282 9.8597 63.9186C9.45769 63.5109 9.07645 63.0749 8.74238 62.6125C8.20071 61.8614 8.26488 61.0064 8.38945 60.1439C8.48948 60.125 8.5612 60.0986 8.63103 60.1004C9.19346 60.1099 9.7559 60.1023 10.3146 60.1439C10.9732 60.1929 11.6263 60.2986 12.2831 60.359C12.7851 60.4062 13.2853 60.3779 13.776 60.242C13.9987 60.1797 14.1931 60.0778 14.3365 59.8645C14.2742 59.8494 14.2478 59.8324 14.2308 59.84C13.6684 60.0778 13.0795 60.0608 12.4963 59.9948C11.8414 59.9193 11.1865 59.8173 10.5373 59.7022C7.11548 59.1001 4.23537 60.8743 2.75191 63.7034C2.15739 64.8377 2.11776 66.0003 2.79909 67.1346C2.8425 67.2063 2.8727 67.2894 2.89912 67.3687C3.12938 68.0255 3.36153 68.6823 3.58801 69.3409C3.63519 69.4787 3.6937 69.6222 3.70125 69.7637C3.72956 70.3243 3.78241 70.8886 3.74466 71.4453C3.6635 72.6363 3.32755 73.7762 2.95008 74.9049C2.58582 75.9958 2.21779 77.0848 1.87806 78.1813C1.64969 78.9193 1.4836 79.6723 1.51569 80.4537C1.53456 80.9161 1.64026 81.3521 1.9328 81.722C2.28384 82.1655 2.78777 82.2429 3.22186 81.8824C3.47099 81.6748 3.68804 81.4125 3.86923 81.1407C4.28444 80.5254 4.55056 79.8365 4.68645 79.1099C5.04882 77.1886 5.16773 75.254 4.97333 73.3044C4.81857 71.7417 4.56755 70.1997 3.93906 68.7427C3.9183 68.6955 3.92396 68.6388 3.90509 68.4973C4.76761 69.2843 5.7698 69.6561 6.73235 70.1016C6.87579 70.1676 7.01923 70.2374 7.157 70.3167C7.97423 70.7904 7.91006 70.6093 8.04973 71.6303C8.2479 73.0685 8.09691 74.4878 7.73265 75.8863C7.37783 77.2471 6.98903 78.5984 6.63043 79.9592C6.31713 81.1445 6.07366 82.3411 6.0378 83.5735C6.02081 84.1624 6.04346 84.7493 6.22654 85.3155C6.33223 85.6439 6.47567 85.9554 6.74179 86.1894C7.07962 86.4876 7.5005 86.514 7.844 86.2234C8.01764 86.0761 8.17618 85.8912 8.28376 85.6911C8.4423 85.4042 8.5763 85.0966 8.67255 84.7833C8.96509 83.8434 9.11042 82.8714 9.13873 81.8919C9.19724 79.8498 9.20668 77.8076 9.25386 75.7655C9.28406 74.4689 9.15005 73.2006 8.7405 71.9682C8.71219 71.8832 8.70464 71.7926 8.68765 71.7039C8.80467 71.7813 8.8896 71.87 8.93678 71.9757C9.1576 72.4645 9.41051 72.9458 9.56905 73.4554C9.78609 74.1537 9.93897 74.8747 10.1013 75.59C10.3655 76.7488 10.6486 77.9001 11.1431 78.9872C11.5527 79.8856 11.8244 80.8274 11.9358 81.8013C12.1113 83.3565 12.2302 84.9192 12.3699 86.4782C12.485 87.7597 12.6511 89.0317 13.0248 90.268C13.2305 90.9493 13.4778 91.6174 13.9005 92.1968C14.0779 92.4403 14.295 92.6687 14.5385 92.8423C14.9235 93.1198 15.3614 93.0594 15.7143 92.7423C15.9653 92.5139 16.122 92.2252 16.2295 91.9081C16.4485 91.2607 16.4862 90.5907 16.439 89.915C16.3541 88.6788 15.9861 87.5124 15.4991 86.3857C15.0141 85.2627 14.4875 84.1586 13.9798 83.0451C13.927 82.928 13.8779 82.8072 13.8288 82.6883C13.9402 82.6883 13.9987 82.7204 14.0591 82.7544C14.6328 83.0809 15.1839 83.4527 15.7841 83.7207C16.5523 84.0642 17.3563 84.3303 18.149 84.6153C18.3415 84.6852 18.4944 84.7852 18.6189 84.9456C18.9228 85.3344 19.1512 85.7666 19.3286 86.2252C19.5853 86.8896 19.7495 87.5785 19.8646 88.2806C20.0061 89.1488 20.1326 90.0226 20.31 90.8851C20.5648 92.1289 21.0064 93.3085 21.7387 94.356C21.9388 94.6429 22.1766 94.9222 22.4503 95.1392C23.1165 95.6696 23.8167 95.3846 23.9715 94.5466C23.9885 94.4504 24.0036 94.3522 23.9979 94.2541C23.9828 93.9483 23.9734 93.6426 23.9375 93.3406C23.7261 91.5287 23.0052 89.9037 22.0652 88.3674C21.5104 87.4596 20.9272 86.5687 20.3572 85.6704C20.293 85.5703 20.2364 85.4665 20.142 85.308C20.2911 85.3457 20.3855 85.359 20.4704 85.3929C21.4575 85.7666 22.4106 86.2139 23.2599 86.8481C23.9356 87.352 24.5641 87.922 25.2454 88.4184C25.8135 88.8317 26.2967 89.3281 26.8044 89.8056C27.1687 90.1491 27.5461 90.4831 27.9406 90.7889C28.7069 91.3853 29.5411 91.8703 30.464 92.1893C30.7565 92.2893 31.0566 92.3497 31.3643 92.2648C31.7417 92.161 31.8908 91.8439 31.7172 91.4966C31.6474 91.357 31.5454 91.2267 31.4322 91.1192C31.2303 90.9248 31.0208 90.7341 30.7924 90.5699C29.1126 89.3601 27.331 88.3127 25.5134 87.3256C25.0416 87.0689 24.5509 86.8235 24.1395 86.4857C23.5015 85.9629 22.8447 85.4816 22.1181 85.0966C22.052 85.0626 21.9992 85.006 21.8727 84.9079C22.0709 84.9079 22.1785 84.9116 22.288 84.9079C23.3694 84.8664 24.4395 84.9777 25.5002 85.1683C27.046 85.4458 28.5898 85.4571 30.1375 85.208C30.4734 85.1532 30.8094 85.0721 31.134 84.9702C31.3397 84.906 31.5436 84.8022 31.721 84.6757C32.0682 84.4266 32.1419 84.0548 31.8852 83.7132C31.7266 83.4923 31.5039 83.2998 31.2737 83.1507ZM10.4297 72.4475C10.575 72.5325 10.7298 72.6042 10.8638 72.7042C12.5284 73.9291 14.3912 74.7992 16.2276 75.7183C16.8939 76.0505 17.5356 76.4355 18.1716 76.8224C18.4396 76.9847 18.6718 77.2112 18.9096 77.4207C19.0096 77.5075 19.0945 77.6189 19.1663 77.7303C19.4984 78.2512 19.3229 78.7155 18.7171 78.8268C18.4 78.8853 18.0546 78.8891 17.7356 78.8362C16.4768 78.6305 15.3783 78.0511 14.3592 77.3075C13.7741 76.8809 13.2475 76.3827 12.8078 75.807C12.0358 74.7973 11.2847 73.7706 10.5278 72.7514C10.4712 72.674 10.4259 72.591 10.375 72.5098C10.3938 72.4891 10.4108 72.4683 10.4297 72.4475ZM8.8745 63.894C9.37276 64.4131 9.92765 64.8773 10.458 65.3643C10.7902 65.67 11.1318 65.9664 11.4564 66.2815C11.5942 66.4155 11.7244 66.5722 11.8112 66.7421C12.1264 67.3498 11.7206 67.9688 11.0336 67.9217C10.7939 67.9066 10.5505 67.8405 10.3221 67.7593C9.40673 67.4309 8.74616 66.7968 8.25356 65.9777C7.65149 64.9717 7.35518 63.8714 7.28912 62.705C7.2627 62.2483 7.33253 61.8028 7.50617 61.3763C7.53636 61.3008 7.57977 61.2329 7.61752 61.1611C7.65715 62.2728 8.15542 63.1429 8.8745 63.894ZM4.25613 72.7608C4.26557 72.7042 4.29199 72.6514 4.31087 72.5966C4.34107 72.6023 4.37126 72.6061 4.39957 72.6117C4.4411 73.2081 4.53924 73.8064 4.51281 74.3991C4.45619 75.6806 4.35616 76.9602 4.22971 78.2361C4.15988 78.9419 3.93528 79.6214 3.62953 80.2669C3.45589 80.6349 3.23885 80.9746 2.93687 81.2502C2.6934 81.4729 2.55185 81.4465 2.38954 81.1577C2.19325 80.8123 2.15362 80.4329 2.20835 80.0536C2.28762 79.5232 2.36878 78.9872 2.52165 78.4739C2.82552 77.4547 3.16902 76.4487 3.51252 75.4409C3.81261 74.5633 4.09571 73.6781 4.25613 72.7608ZM8.54987 82.1844C8.531 82.9545 8.397 83.7169 8.17807 84.4568C8.08936 84.7588 7.95347 85.0494 7.82135 85.3363C7.76662 85.4552 7.67037 85.5609 7.576 85.6515C7.38726 85.8327 7.23816 85.8232 7.10038 85.5949C6.99469 85.4193 6.91542 85.2212 6.86258 85.023C6.7248 84.5096 6.72857 83.9831 6.76066 83.4565C6.83427 82.2052 7.10793 80.9897 7.41746 79.7818C7.71189 78.6343 8.02519 77.4906 8.31395 76.343C8.43097 75.8825 8.50647 75.4126 8.60083 74.9464C8.62159 74.9445 8.64236 74.9445 8.66312 74.9426C8.67067 75.0106 8.68576 75.0785 8.68576 75.1446C8.64236 77.4943 8.61027 79.8403 8.54987 82.1844ZM15.1273 87.1331C15.4821 87.9805 15.7256 88.8713 15.786 89.7924C15.8181 90.2887 15.7954 90.7945 15.7369 91.289C15.7048 91.557 15.5822 91.8307 15.4425 92.0685C15.2406 92.412 15.016 92.4252 14.7385 92.1251C14.5668 91.9383 14.4177 91.7231 14.2931 91.5023C13.8288 90.67 13.5665 89.7622 13.4174 88.8317C13.2362 87.6974 13.1097 86.5555 12.9795 85.4137C12.821 84.017 12.6907 82.6166 12.3265 81.2521C12.3152 81.2087 12.3208 81.1596 12.3189 81.1143C12.3359 81.1048 12.3548 81.0954 12.3718 81.086C12.4945 81.2634 12.6492 81.4238 12.7341 81.6182C13.5401 83.4508 14.3516 85.2835 15.1273 87.1331ZM21.3594 88.2372C21.8539 89.0563 22.2861 89.9018 22.6692 90.7757C23.0995 91.7609 23.3128 92.7989 23.4204 93.8615C23.4411 94.0634 23.4185 94.2786 23.3732 94.4787C23.309 94.7599 23.1448 94.8259 22.9183 94.6523C22.7371 94.5145 22.5578 94.3484 22.4389 94.1559C22.1502 93.6897 21.8671 93.216 21.6368 92.7196C21.1706 91.7156 20.9404 90.6379 20.7479 89.5508C20.6497 88.9978 20.561 88.4429 20.4497 87.8918C20.259 86.9387 19.9439 86.029 19.4078 85.208C19.3833 85.1683 19.3682 85.123 19.3342 85.0532C19.5834 85.0211 19.6211 85.1853 19.6891 85.3061C20.2458 86.2838 20.7781 87.2746 21.3594 88.2372ZM25.7154 87.9125C25.7682 87.9352 25.8268 87.9503 25.8758 87.9805C27.4537 88.9072 29.0315 89.8358 30.5036 90.9285C30.7188 91.0871 30.9132 91.2739 31.1095 91.4589C31.1831 91.5287 31.2321 91.625 31.3227 91.7533C31.1831 91.7665 31.0981 91.7967 31.0264 91.776C30.8037 91.7175 30.5772 91.6589 30.3658 91.5665C29.2013 91.0569 28.1841 90.3284 27.2536 89.4696C26.761 89.0148 26.2703 88.5542 25.7815 88.0956C25.738 88.056 25.7041 88.005 25.6663 87.9597C25.6833 87.9446 25.6984 87.9276 25.7154 87.9125ZM31.3548 84.3756C31.0321 84.5134 30.6905 84.6323 30.3451 84.6889C28.8503 84.9324 27.348 84.972 25.8551 84.6814C24.1848 84.3549 22.505 84.3152 20.8139 84.4285C20.7818 84.4304 20.7498 84.419 20.6535 84.4058C20.746 84.3643 20.7856 84.3435 20.8271 84.3285C21.2556 84.1831 21.6859 84.0453 22.1105 83.8925C24.3546 83.0809 26.6647 82.7865 29.039 82.9922C29.6373 83.0432 30.2356 83.1281 30.7848 83.3848C31.0245 83.4961 31.2529 83.6528 31.4454 83.8321C31.6776 84.051 31.6474 84.2511 31.3548 84.3756Z" fill="black"/>
<path d="M102.867 79.4847C102.465 78.5391 101.866 77.6898 101.527 76.714C101.479 76.5781 101.393 76.4536 101.319 76.3252C100.843 75.4797 100.021 75.0947 99.1844 74.738C99.0485 74.6795 98.8824 74.6681 98.7918 74.8267C98.7031 74.9814 98.7881 75.1079 98.9051 75.2117C98.9787 75.2759 99.058 75.3344 99.1353 75.3929C99.4581 75.6363 99.8016 75.8553 100.096 76.1271C100.353 76.363 100.56 76.6555 100.781 76.9311C100.877 77.05 100.894 77.1915 100.858 77.3482C100.657 78.2013 100.219 78.8751 99.426 79.2922C98.8334 79.6055 98.1992 79.7791 97.5367 79.8433C96.7327 79.9206 95.9287 79.981 95.1247 80.0641C94.0244 80.1773 92.9486 80.4 91.9294 80.8436C91.3651 81.0889 90.8347 81.3947 90.4176 81.859C90.1477 82.1591 89.9364 82.495 90.0873 82.9215C90.2327 83.3311 90.595 83.4576 90.9782 83.533C91.4689 83.6312 91.9539 83.5802 92.4352 83.4802C93.7318 83.2122 94.9982 82.8291 96.2194 82.3214C98.2709 81.4683 99.945 80.1415 101.151 78.2541C101.174 78.2182 101.215 78.1956 101.266 78.1503C101.298 78.2183 101.327 78.2579 101.338 78.3013C101.764 79.8772 101.302 81.8023 99.677 82.7932C99.426 82.9461 99.175 83.1008 98.9089 83.2197C98.2294 83.5255 97.5405 83.8124 96.8535 84.1049C96.7875 84.1332 96.7139 84.1559 96.6421 84.1615C95.6909 84.237 94.7416 84.3295 93.7884 84.3767C92.5032 84.4409 91.2216 84.3446 89.942 84.2163C88.8455 84.1049 87.747 84.0464 86.6467 84.1634C85.803 84.254 84.9783 84.4182 84.2233 84.8315C83.8987 85.0108 83.6043 85.2279 83.3816 85.5299C82.9701 86.0866 83.1211 86.6151 83.7854 86.8114C84.1799 86.9284 84.5989 87.0058 85.0103 87.0228C86.5391 87.0888 88.0716 87.0586 89.5872 86.834C90.6252 86.6812 91.652 86.4377 92.6825 86.2357C92.8032 86.2112 92.9222 86.1867 93.0429 86.1621C93.0052 86.2697 92.9505 86.3131 92.8901 86.3509C90.6668 87.7022 88.2981 88.6969 85.754 89.2612C85.1576 89.3933 84.5706 89.5386 83.9478 89.5499C83.34 89.5613 82.7587 89.4499 82.168 89.348C81.7716 89.28 81.413 89.1442 81.0865 88.9215C80.8449 88.7554 80.5996 88.5912 80.3769 88.4005C79.8126 87.9136 79.269 87.4002 78.7009 86.9171C78.0686 86.3773 77.442 85.8281 76.7701 85.3411C76.3304 85.0203 75.8265 84.7806 75.3301 84.5466C74.8979 84.3427 74.426 84.2427 73.9429 84.2351C73.5843 84.2295 73.2332 84.2861 72.9124 84.456C72.45 84.6994 72.3009 85.143 72.55 85.5997C72.6538 85.7884 72.7954 85.9715 72.9577 86.1112C73.2332 86.3509 73.5314 86.5698 73.8353 86.7736C75.8057 88.0872 78.0026 88.8629 80.2712 89.4593C80.86 89.6141 81.4621 89.7198 82.0585 89.85C81.9566 89.9123 81.8547 89.9425 81.7509 89.9501C80.5656 90.0539 79.3822 90.0501 78.197 89.9557C77.6251 89.9104 77.091 89.784 76.5871 89.5141C76.4153 89.4216 76.2322 89.3499 76.0529 89.2706C74.5261 88.5836 73.02 87.8457 71.4289 87.3059C70.3965 86.9548 69.3547 86.6434 68.2582 86.5698C67.6674 86.5302 67.0823 86.5679 66.5274 86.7944C66.2387 86.9114 65.9594 87.0718 65.948 87.4342C65.9367 87.7815 66.1934 87.9627 66.4652 88.0797C66.8106 88.2288 67.1729 88.3477 67.5353 88.4515C68.9716 88.8592 70.4399 89.1272 71.9064 89.4046C72.0253 89.4273 72.1442 89.4556 72.2631 89.4801C70.925 89.4763 69.6152 89.5952 68.3186 89.8897C67.792 90.0086 67.2635 90.1237 66.8011 90.4125C66.3519 90.6918 65.9424 91.0296 65.6895 91.5052C65.4498 91.9544 65.6102 92.3772 66.0934 92.5301C66.3557 92.6112 66.6463 92.6358 66.9219 92.6301C67.7203 92.615 68.4997 92.4508 69.2773 92.2772C71.5346 91.7751 73.79 91.275 76.0831 90.9636C76.7475 90.873 77.4232 90.856 78.0932 90.8088C78.1347 90.805 78.1781 90.8201 78.2932 90.8371C78.1762 90.9145 78.1253 90.9579 78.0668 90.9881C77.8139 91.1108 77.5609 91.2372 77.3043 91.3505C75.1999 92.2847 73.2634 93.4851 71.5365 95.0157C71.1496 95.3592 70.774 95.7065 70.5154 96.1595C70.2946 96.5464 70.1512 96.9578 70.4267 97.3693C70.6966 97.7732 71.1232 97.826 71.5705 97.7864C72.0668 97.743 72.5179 97.5523 72.9614 97.3466C74.2052 96.7691 75.2131 95.8858 76.1209 94.8798C76.6456 94.2985 77.1438 93.6946 77.6572 93.1038C78.4291 92.2149 79.3294 91.492 80.3976 90.99C80.6015 90.8937 80.8355 90.8409 81.062 90.8107C81.5225 90.7503 81.9887 90.7333 82.4492 90.6767C83.8477 90.5068 85.2217 90.2124 86.5844 89.8519C86.6656 89.8312 86.7524 89.8293 86.8354 89.8198C86.7429 89.9387 86.6467 90.0105 86.5467 90.0803C85.3463 90.9239 84.144 91.7676 82.9437 92.6112C82.0793 93.2171 81.279 93.8984 80.5769 94.6892C80.3184 94.9818 80.0692 95.2875 79.8616 95.6159C79.7276 95.8254 79.6314 96.0821 79.5955 96.3274C79.5087 96.9314 79.8579 97.3164 80.4618 97.2504C80.8298 97.2107 81.2054 97.0937 81.5452 96.9389C82.5568 96.4747 83.4231 95.7971 84.2082 95.0138C85.267 93.9569 86.2277 92.817 87.0846 91.5902C87.5828 90.8768 88.1301 90.2049 88.736 89.5783C89.1418 89.1593 89.5759 88.7988 90.1402 88.6157C90.244 88.5817 90.344 88.5308 90.4403 88.4798C91.5236 87.8891 92.607 87.2964 93.6903 86.7038C93.7979 86.6453 93.9092 86.5887 94.0187 86.5302C94.0338 86.5528 94.047 86.5755 94.0621 86.6C93.8847 86.7661 93.7092 86.9341 93.5318 87.0983C91.9464 88.5742 90.6819 90.2879 89.7722 92.2545C89.5494 92.7377 89.4192 93.268 89.2814 93.7852C89.2324 93.9645 89.255 94.1777 89.2984 94.3627C89.3871 94.7307 89.674 94.9119 90.0458 94.8383C90.21 94.8062 90.3818 94.7421 90.5139 94.6439C90.7781 94.4495 91.0367 94.24 91.2651 94.0041C91.903 93.3416 92.456 92.6056 92.9278 91.8185C94.249 89.616 95.5569 87.4059 96.8611 85.1939C97.0441 84.8844 97.2725 84.6673 97.6066 84.5277C98.2615 84.2559 98.9164 83.9804 99.5487 83.6633C100.749 83.0593 101.604 82.1421 101.985 80.8266C102 80.7718 102.044 80.7266 102.11 80.6171C102.148 81.3475 102.068 81.9892 101.881 82.6139C101.529 83.7897 100.998 84.8919 100.472 85.9961C100.215 86.5358 99.9752 87.0869 99.7563 87.6437C99.5675 88.1269 99.4977 88.6346 99.5694 89.1574C99.7072 90.1577 100.375 90.488 101.249 89.9803C101.636 89.7538 101.938 89.4348 102.202 89.0781C102.71 88.393 103.084 87.6362 103.31 86.817C104.003 84.3182 103.884 81.876 102.867 79.4847ZM98.7258 80.3378C98.0426 80.9021 97.2989 81.372 96.4874 81.725C95.1379 82.31 93.7356 82.7479 92.2899 83.0178C91.9011 83.0914 91.4878 83.0631 91.0876 83.0442C90.8876 83.0348 90.6554 82.9801 90.5705 82.7555C90.4799 82.5158 90.6309 82.3327 90.7781 82.1647C91.065 81.8382 91.4236 81.6042 91.8086 81.4098C92.7259 80.9474 93.7092 80.7039 94.7227 80.5774C95.2814 80.5095 95.8419 80.4736 96.4024 80.4189C97.2763 80.334 98.1577 80.2906 98.9938 79.9697C99.0108 79.9943 99.0296 80.0207 99.0466 80.0452C98.9372 80.1452 98.8353 80.2472 98.7258 80.3378ZM79.7729 88.8063C79.3351 88.661 78.8953 88.5232 78.4612 88.3666C76.8758 87.7872 75.3093 87.1643 73.9183 86.1829C73.7088 86.0357 73.4994 85.8866 73.3031 85.7224C73.1917 85.6299 73.0936 85.5148 73.0181 85.3921C72.8709 85.1543 72.9237 84.958 73.1898 84.8655C73.4163 84.7863 73.6635 84.7447 73.9032 84.741C74.4411 84.7334 74.9451 84.9108 75.4018 85.1713C75.8887 85.4468 76.3719 85.7469 76.8041 86.098C77.5609 86.7151 78.2763 87.3814 79.0104 88.0268C79.2747 88.259 79.5408 88.4892 79.8069 88.7214C79.7956 88.7497 79.7843 88.778 79.7729 88.8063ZM75.7661 90.571C75.5528 90.6106 75.3395 90.6503 75.1262 90.6899C73.2295 91.0504 71.3308 91.4071 69.434 91.7714C68.6054 91.9299 67.7788 92.1073 66.9295 92.1111C66.7369 92.113 66.5369 92.0941 66.3519 92.0469C66.1745 92.0016 66.1292 91.8865 66.2349 91.7412C66.3708 91.5562 66.5256 91.3731 66.7086 91.241C67.5032 90.6767 68.394 90.3615 69.366 90.286C71.1402 90.1463 72.9105 90.2294 74.6789 90.3823C75.0432 90.4144 75.4056 90.4521 75.7698 90.488C75.768 90.5144 75.768 90.5427 75.7661 90.571ZM74.9111 89.4688C73.2578 89.1442 71.5988 88.8422 69.9473 88.5025C69.0263 88.3118 68.1185 88.0703 67.205 87.84C66.9351 87.7721 66.6728 87.6758 66.4652 87.4606C66.5954 87.2379 66.8049 87.1945 67.0012 87.1436C67.5655 86.9926 68.1393 87.0133 68.713 87.0756C69.5548 87.1681 70.3663 87.4021 71.1685 87.6607C72.8444 88.2024 74.4468 88.9309 76.068 89.6141C76.1077 89.6311 76.1379 89.667 76.153 89.7443C75.7396 89.6519 75.3282 89.5499 74.9111 89.4688ZM79.4785 91.0164C78.5499 91.5109 77.7686 92.1866 77.0646 92.9604C76.4002 93.6927 75.7378 94.4306 75.047 95.1365C74.3053 95.8934 73.4446 96.4954 72.4764 96.9314C72.2443 97.0371 72.0008 97.1277 71.7535 97.1919C71.5799 97.2372 71.3893 97.2522 71.21 97.2372C70.8495 97.2107 70.7155 96.9956 70.8438 96.6521C70.9061 96.4822 70.9948 96.3123 71.1118 96.1765C71.3345 95.9179 71.5705 95.6669 71.8271 95.4442C73.3786 94.1022 75.0791 92.9849 76.9362 92.1073C77.7535 91.7223 78.5575 91.309 79.3709 90.9126C79.4502 90.8749 79.5389 90.8598 79.6238 90.8333C79.6333 90.8541 79.6408 90.8749 79.6502 90.8956C79.5936 90.939 79.5389 90.9824 79.4785 91.0164ZM88.3547 89.4839C87.73 90.0388 87.2035 90.6805 86.7071 91.3486C85.8748 92.4697 84.9556 93.5134 83.9629 94.4929C83.2381 95.2082 82.4492 95.8462 81.5452 96.3218C81.2356 96.486 80.8997 96.62 80.56 96.7068C80.1466 96.8125 79.9598 96.5973 80.124 96.201C80.2485 95.9028 80.4316 95.6159 80.6373 95.3649C81.2262 94.642 81.9075 94.006 82.6644 93.4643C84.1931 92.3678 85.7389 91.2939 87.2733 90.2086C87.6583 89.9368 88.032 89.65 88.4114 89.3706C88.4189 89.3782 88.4265 89.3839 88.434 89.3914C88.4076 89.4216 88.3849 89.4575 88.3547 89.4839ZM93.7337 85.4638C92.5617 85.7111 91.3915 85.9809 90.2119 86.1791C88.4321 86.4792 86.6354 86.5283 84.8348 86.4396C84.58 86.4264 84.3252 86.3716 84.0761 86.315C83.9534 86.2867 83.8421 86.2112 83.7288 86.1603C83.7609 85.9073 83.9081 85.7752 84.0553 85.6488C84.4026 85.3468 84.8141 85.16 85.25 85.0259C85.9804 84.8014 86.7316 84.6843 87.4922 84.6881C88.4567 84.6919 89.4249 84.7126 90.3874 84.7768C92.103 84.8938 93.8092 84.875 95.5116 84.6239C95.5701 84.6145 95.6305 84.6164 95.706 84.6428C95.4229 84.8825 95.1153 85.0845 94.7642 85.1977C94.4264 85.3053 94.081 85.3921 93.7337 85.4638ZM95.923 86.0244C94.8227 88.0004 93.7318 89.9803 92.4428 91.8412C91.9785 92.5112 91.4368 93.1303 90.9008 93.7474C90.7139 93.9626 90.4573 94.1324 90.2044 94.274C89.9269 94.4306 89.7816 94.325 89.8137 94.0098C89.8325 93.8173 89.8816 93.6247 89.9401 93.4398C90.2289 92.5093 90.7102 91.6713 91.2349 90.8579C91.9785 89.7028 92.8316 88.6346 93.8319 87.6909C94.4547 87.1039 95.0832 86.5245 95.7098 85.9432C95.7947 85.8658 95.891 85.8016 95.9834 85.7318C95.9985 85.745 96.0155 85.7582 96.0306 85.7715C95.9967 85.8564 95.9683 85.9451 95.923 86.0244ZM102.676 86.968C102.434 87.6796 102.095 88.3401 101.627 88.929C101.404 89.2083 101.153 89.4575 100.817 89.6028C100.402 89.7821 100.204 89.6802 100.09 89.2423C99.9865 88.8384 100.009 88.4326 100.156 88.0514C100.396 87.4248 100.668 86.8114 100.938 86.1961C101.315 85.3355 101.713 84.4824 102.082 83.618C102.484 82.6724 102.67 81.6816 102.648 80.6511C102.646 80.5907 102.648 80.5284 102.653 80.468C102.655 80.4453 102.67 80.4246 102.708 80.3321C102.948 81.0436 103.082 81.6985 103.14 82.3686C103.278 83.9313 103.184 85.4714 102.676 86.968Z" fill="black"/>
<path d="M57.9345 29.3746C58.4668 29.6747 59.0066 29.6275 59.4633 29.2236C59.6539 29.0556 59.8351 28.865 59.9785 28.6555C60.7071 27.5948 61.0034 26.4209 60.8486 25.1413C60.7259 24.1202 60.3447 23.1803 59.9012 22.263C59.6728 21.7912 59.4652 21.308 59.2481 20.8324C59.1991 20.7267 59.1821 20.5908 58.9782 20.589C58.9688 20.706 58.9424 20.823 58.9556 20.9381C59.0009 21.3156 59.0821 21.6817 59.267 22.0233C59.7068 22.8349 59.988 23.7069 60.2031 24.6015C60.4881 25.7849 60.3334 26.9135 59.7181 27.9629C59.5596 28.2309 59.3406 28.4762 59.1104 28.6876C58.8273 28.9462 58.5479 28.9216 58.2554 28.6706C58.2422 28.6593 58.2309 28.6461 58.2195 28.6348C57.993 28.429 57.8345 28.1761 57.7383 27.8836C57.5835 27.4136 57.4929 26.9324 57.5665 26.4398C57.6496 25.8717 57.7477 25.3055 57.8572 24.7411C58.0478 23.7578 58.2818 22.7821 58.4385 21.7931C58.497 21.4232 58.5007 21.0457 58.497 20.6663C58.4951 20.4946 58.4932 20.3209 58.4951 20.1492C58.4951 19.9982 58.4724 19.8265 58.2346 19.7227C58.1931 19.8321 58.1497 19.9171 58.1289 20.0058C57.8251 21.2533 57.5344 22.5027 57.2192 23.7465C57.006 24.5883 56.7795 25.4263 56.687 26.2926C56.6134 26.9758 56.6983 27.6345 56.9626 28.2686C57.1588 28.7423 57.4816 29.1179 57.9345 29.3746Z" fill="black"/>
<path d="M20.142 44.1805C20.3817 43.8332 20.5535 43.4614 20.6686 43.0575C20.9272 42.1572 21.0385 41.2381 21.048 40.3038C21.0555 39.5338 21.0574 38.7637 21.0574 37.9918C21.0574 37.8521 21.031 37.7125 21.0159 37.5728C20.9819 37.5709 20.948 37.5671 20.9121 37.5653C20.7403 37.7332 20.6932 37.9597 20.6724 38.1881C20.6139 38.8204 20.561 39.4545 20.5176 40.0887C20.4516 41.0663 20.4044 42.0458 20.0741 42.9801C19.9703 43.2764 19.8155 43.5595 19.6457 43.8237C19.355 44.2805 18.5963 44.4673 18.0773 44.0106C18.0207 43.9615 17.9678 43.9068 17.9169 43.8426C17.5583 43.3746 17.3978 42.8518 17.3903 42.2723C17.3827 41.5457 17.513 40.8379 17.696 40.1358C17.998 38.977 18.5453 37.9257 19.104 36.8764C19.121 36.8462 19.138 36.8141 19.1531 36.7839C19.4362 36.2535 19.7249 35.727 19.9854 35.1872C20.1345 34.8814 20.2364 34.5512 20.3421 34.2265C20.3893 34.085 20.4233 33.9264 20.3081 33.749C20.2345 33.8377 20.176 33.8943 20.1345 33.9623C19.6381 34.7625 19.1417 35.5628 18.6491 36.3649C17.9961 37.4313 17.3884 38.5184 17.0392 39.7301C16.7939 40.5794 16.6165 41.44 16.6334 42.329C16.6485 43.0594 16.8599 43.7162 17.3374 44.2899C18.1867 45.3034 19.6042 44.9618 20.142 44.1805Z" fill="black"/>
<path d="M82.491 72.7635C82.6231 72.7786 82.6911 72.6295 82.676 72.3068C82.6571 71.8557 82.6326 71.4028 82.5835 70.9536C82.3834 69.0813 82.1739 67.2109 81.9644 65.3406C81.7436 63.3607 81.5228 61.3809 81.2982 59.4011C81.2567 59.0425 81.1963 58.6857 81.1453 58.329C81.1208 58.329 81.0944 58.3271 81.0698 58.3271C81.0472 58.4026 81.0094 58.4744 81.0038 58.5517C80.9868 58.7839 80.9623 59.016 80.9736 59.2463C81.0698 61.1016 81.134 62.9587 81.2831 64.8102C81.4171 66.4654 81.6379 68.115 81.8399 69.7645C81.9456 70.6252 82.0834 71.482 82.2192 72.3389C82.2494 72.5106 82.2438 72.7352 82.491 72.7635Z" fill="black"/>
<path d="M49.2093 13.5566C49.1339 13.5566 49.047 13.6095 48.9829 13.6604C48.7904 13.8114 48.5941 13.9586 48.4223 14.1323C47.5636 15.0024 46.5425 15.5969 45.4025 16.0215C44.1116 16.5028 42.7735 16.7784 41.4202 16.9897C40.0538 17.203 38.6854 17.3861 37.2963 17.2974C37.2529 17.2955 37.2095 17.3106 37.085 17.3295C37.2152 17.3899 37.2737 17.4333 37.3398 17.4427C37.7002 17.5031 38.0607 17.5786 38.425 17.6031C39.5668 17.6862 40.6917 17.5031 41.8222 17.3748C43.2359 17.2124 44.6193 16.9256 45.9555 16.4179C47.0445 16.0045 48.0109 15.3968 48.8734 14.623C49.0904 14.4286 49.2735 14.1927 49.4453 13.9586C49.4962 13.8888 49.4962 13.7397 49.4566 13.6586C49.4245 13.5963 49.2962 13.5566 49.2093 13.5566Z" fill="black"/>
<path d="M62.3696 75.6759C62.396 75.6344 62.4186 75.591 62.4451 75.5514C63.1434 74.451 63.5982 73.2544 63.77 71.9673C63.9682 70.4781 64.1192 68.9833 64.2758 67.4885C64.3268 67.0054 64.3343 66.5166 64.3626 66.0296C64.3286 66.024 64.2947 66.0164 64.2607 66.0107C64.2154 66.1957 64.1569 66.3788 64.1248 66.5656C63.853 68.2171 63.585 69.8685 63.3208 71.5218C63.1925 72.3202 63.0169 73.1053 62.698 73.8527C62.5055 74.3019 62.3092 74.7492 62.1167 75.1984C62.0733 75.2984 62.0147 75.4023 62.0091 75.5079C62.0053 75.6023 62.0374 75.7382 62.1053 75.7892C62.211 75.8703 62.3073 75.7759 62.3696 75.6759Z" fill="black"/>
<path d="M92.428 69.4829C93.3226 69.6377 93.9718 70.1265 94.3908 70.9249C94.5324 71.1948 94.6739 71.4665 94.8155 71.7383C95.2571 72.5801 95.9592 73.0878 96.8651 73.3331C97.0539 73.3841 97.2445 73.4256 97.4276 73.4935C97.5389 73.5351 97.6559 73.5841 97.7201 73.4709C97.7749 73.3765 97.8107 73.2293 97.7767 73.1368C97.7333 73.0236 97.6201 72.916 97.5106 72.8537C97.2992 72.733 97.0746 72.6254 96.8444 72.5518C96.1574 72.3272 95.6516 71.8987 95.3043 71.2703C95.1911 71.0664 95.0778 70.8626 94.94 70.6757C94.7607 70.4304 94.5777 70.1794 94.3587 69.9699C93.8303 69.4678 93.1923 69.2187 92.4582 69.2508C92.3468 69.2565 92.2373 69.2885 92.126 69.3093C92.126 69.3376 92.126 69.3678 92.126 69.3961C92.2279 69.4263 92.326 69.4641 92.428 69.4829Z" fill="black"/>
<path d="M75.9647 38.8117C76.0138 38.8532 76.1252 38.8514 76.1912 38.8268C76.2214 38.8155 76.2365 38.6947 76.2195 38.6343C76.1931 38.5418 76.1327 38.4607 76.0893 38.3739C75.7534 37.6925 75.4552 36.9961 75.3985 36.2298C75.3627 35.7448 75.3797 35.2559 75.3665 34.769C75.3608 34.5822 75.408 34.3821 75.2494 34.1934C75.2098 34.2632 75.1645 34.3085 75.1532 34.3613C75.0701 34.8049 74.9663 35.2465 74.921 35.6938C74.821 36.7017 75.0513 37.6321 75.6458 38.4607C75.742 38.589 75.8458 38.7117 75.9647 38.8117Z" fill="black"/>
<path d="M49.6528 17.9619C49.5943 18.1374 49.5452 18.2431 49.5264 18.3526C49.4509 18.8093 49.3546 19.2661 49.3263 19.7247C49.3055 20.072 49.3603 20.4268 49.4112 20.7722C49.432 20.9194 49.5471 21.044 49.7226 21.0251C49.9095 21.0043 49.934 20.859 49.9397 20.7005C49.9529 20.3362 49.968 19.9701 49.9925 19.6058C50.0265 19.1245 49.9491 18.6584 49.8 18.2035C49.783 18.145 49.734 18.0921 49.6528 17.9619Z" fill="black"/>
<path d="M19.7266 41.3949C19.6435 41.4553 19.5699 41.5553 19.5378 41.6515C19.4718 41.8459 19.4435 42.0517 19.3887 42.2517C19.2453 42.784 19.2245 43.3728 18.6621 43.7352C18.898 43.939 19.0415 43.973 19.2359 43.8182C19.402 43.6861 19.5737 43.52 19.6567 43.3313C19.8247 42.9425 19.9493 42.5329 20.0569 42.1234C20.104 41.9403 20.0852 41.7346 20.0663 41.544C20.0512 41.3477 19.8851 41.2778 19.7266 41.3949Z" fill="black"/>
<path d="M58.6952 28.0708C59.0481 28.1086 59.3331 27.9406 59.5501 27.6745C59.9201 27.2215 60.0107 26.6629 60.0579 26.1023C60.0635 26.0306 59.9805 25.9079 59.9144 25.889C59.8465 25.8683 59.7313 25.9268 59.6709 25.9872C59.6049 26.0513 59.5709 26.1533 59.5407 26.2439C59.4596 26.4854 59.3746 26.727 59.3123 26.9743C59.235 27.28 59.0991 27.5405 58.8518 27.7405C58.7707 27.8066 58.7065 27.8934 58.6348 27.9708C58.6536 28.0029 58.6744 28.0368 58.6952 28.0708Z" fill="black"/>
<path d="M82.7985 78.063C82.874 78.0573 82.9476 77.9648 83.0099 77.9007C83.0401 77.8686 83.042 77.8101 83.0533 77.7629C83.2269 76.9608 83.1628 76.1624 83.0136 75.3659C83.0004 75.2999 82.9646 75.2376 82.94 75.1715C82.9098 75.1678 82.8778 75.164 82.8476 75.1621C82.8192 75.264 82.7777 75.3641 82.7683 75.466C82.7117 76.0246 82.6588 76.5814 82.6173 77.1401C82.6003 77.3703 82.6154 77.6025 82.6192 77.8346C82.6192 77.9573 82.6664 78.0743 82.7985 78.063Z" fill="black"/>
<path d="M50.9175 37.5514C50.7476 38.0383 50.6495 38.5385 50.7023 39.0556C50.7118 39.15 50.7344 39.2594 50.7929 39.3255C50.8458 39.3859 50.959 39.4293 51.0383 39.4199C51.093 39.4123 51.1723 39.3028 51.1742 39.2368C51.1968 38.7649 51.2119 38.2912 51.2062 37.8175C51.2044 37.6854 51.1308 37.5551 51.0741 37.3721C50.9873 37.4683 50.9345 37.5042 50.9175 37.5514Z" fill="black"/>
<path d="M98.9994 35.4597C101.279 35.2558 103.057 33.5666 103.365 31.2962C103.518 30.1788 103.31 29.1238 102.719 28.1631C102.155 27.2459 101.396 26.591 100.347 26.2041C97.1592 25.0263 93.7959 27.2855 93.762 30.679C93.7337 33.4968 96.1608 35.7126 98.9994 35.4597ZM98.7597 26.3966C99.2127 26.489 99.7015 26.5041 100.111 26.6891C101.679 27.3969 102.768 28.5349 102.927 30.3242C103.078 32.0341 102.389 33.393 100.941 34.3046C99.592 35.1539 98.1539 35.1917 96.7534 34.4329C95.3304 33.661 94.5792 32.4116 94.5169 30.7979C94.4244 28.3877 96.3382 26.4438 98.7597 26.3966Z" fill="black"/>
<path d="M86.9451 40.1387C85.624 40.1312 84.5331 41.2088 84.5293 42.5319C84.5255 43.8417 85.5976 44.8816 86.9716 44.8967C88.2644 44.9118 89.3289 43.8587 89.3383 42.5526C89.3477 41.2334 88.2701 40.1463 86.9451 40.1387ZM86.881 44.3985C85.9392 44.3947 85.1559 43.5397 85.1597 42.5224C85.1653 41.5316 85.9731 40.7295 86.9678 40.7295C87.9813 40.7295 88.7759 41.5372 88.7702 42.5602C88.7645 43.5926 87.9341 44.4022 86.881 44.3985Z" fill="black"/>
<path d="M98.7675 33.7233C98.9733 33.7215 99.1847 33.7196 99.3847 33.6762C99.9132 33.5648 100.372 33.3062 100.719 32.8929C101.321 32.1757 101.678 31.3396 101.802 30.411C101.851 30.0562 101.801 29.7014 101.65 29.373C101.57 29.1993 101.478 29.0238 101.2 29.0068C101.504 29.8165 101.499 30.277 101.155 31.0584C101.014 31.3811 100.851 31.6982 100.668 32.0002C100.345 32.5324 99.8981 32.9061 99.2658 33.0269C99.0639 33.0665 98.8676 33.1401 98.6732 33.2119C98.5392 33.2609 98.4335 33.3496 98.4637 33.5138C98.492 33.678 98.6279 33.7233 98.7675 33.7233Z" fill="black"/>
<path d="M87.9623 43.0452C87.6206 43.434 87.1941 43.6737 86.6977 43.8058C86.6449 43.819 86.5996 43.8586 86.543 43.8907C86.7411 44.0719 86.7845 44.0927 87.0016 44.0681C87.4942 44.0115 87.9075 43.7945 88.234 43.4226C88.3114 43.3339 88.3737 43.2207 88.4077 43.1075C88.4284 43.0414 88.4039 42.9206 88.3567 42.8866C88.3076 42.8527 88.1982 42.8772 88.1265 42.9055C88.0642 42.9319 88.0113 42.9904 87.9623 43.0452Z" fill="black"/>
</svg>
