<svg width="1920" height="282" viewBox="0 0 1920 282" fill="none" xmlns="http://www.w3.org/2000/svg">
<g clip-path="url(#clip0)">
<path d="M356.5 140C104.5 156 13.8333 79.6667 0 39.5V-9H2093.5C2085.33 132.667 1970.6 380.6 1577 239C1085 62 671.5 120 356.5 140Z" fill="#FFFBF9"/>
<g clip-path="url(#clip1)">
<path fill-rule="evenodd" clip-rule="evenodd" d="M1721.24 295.564C1722.81 293.878 1724.35 292.134 1725.97 290.478C1729.61 286.812 1733.31 283.176 1736.91 279.51C1738.01 278.386 1739.22 277.706 1740.76 277.292C1752.02 274.336 1763.26 271.29 1774.49 268.245C1775.55 267.95 1776.59 267.654 1777.89 267.269C1777.54 265.909 1777.27 264.727 1776.94 263.574C1773.96 252.428 1771 241.252 1767.99 230.135C1767.57 228.598 1767.54 227.238 1767.99 225.701C1771.18 213.963 1774.28 202.226 1777.42 190.488C1777.54 190.015 1777.65 189.513 1777.86 188.655C1776.94 188.33 1776.03 187.975 1775.11 187.739C1763.88 184.723 1752.61 181.678 1741.38 178.692C1739.46 178.189 1737.92 177.332 1736.5 175.883C1728.46 167.723 1720.33 159.652 1712.23 151.58C1711.46 150.812 1710.63 150.102 1709.68 149.186C1708.74 150.072 1707.91 150.782 1707.14 151.58C1699.04 159.681 1690.91 167.753 1682.87 175.883C1681.45 177.302 1679.91 178.189 1677.99 178.692C1666.81 181.648 1655.67 184.634 1644.52 187.65C1643.57 187.916 1642.63 188.212 1641.51 188.567C1641.83 189.927 1642.1 191.109 1642.39 192.262C1645.35 203.408 1648.31 214.584 1651.35 225.701C1651.76 227.238 1651.76 228.628 1651.35 230.135C1648.31 241.282 1645.35 252.428 1642.39 263.574C1642.07 264.727 1641.8 265.88 1641.45 267.24C1643.43 267.802 1645.17 268.334 1646.92 268.807C1657.47 271.645 1668.03 274.454 1678.58 277.351C1679.7 277.647 1680.95 278.12 1681.77 278.918C1687.12 284.151 1692.42 289.503 1697.71 294.795C1697.92 295.002 1698 295.297 1698.15 295.564C1696.94 295.564 1695.73 295.564 1694.52 295.564C1689.87 290.892 1685.26 286.162 1680.56 281.579C1679.62 280.663 1678.2 280.071 1676.87 279.717C1664.95 276.464 1653.01 273.271 1641.09 270.049C1640.15 269.783 1639.2 269.457 1638.08 269.132C1639.82 262.657 1641.48 256.39 1643.13 250.151C1644.91 243.499 1646.65 236.817 1648.48 230.195C1648.93 228.569 1648.9 227.09 1648.45 225.435C1645.2 213.52 1642.04 201.575 1638.84 189.631C1638.58 188.685 1638.4 187.709 1638.13 186.467C1639.32 186.113 1640.35 185.817 1641.42 185.521C1653.24 182.358 1665.07 179.135 1676.92 176.031C1678.67 175.558 1680.03 174.76 1681.27 173.488C1689.84 164.855 1698.45 156.281 1707.02 147.648C1707.79 146.879 1708.35 145.874 1709.18 144.721C1710.51 145.963 1711.31 146.672 1712.05 147.441C1720.5 155.897 1728.99 164.323 1737.39 172.838C1739.16 174.641 1741.14 175.706 1743.56 176.356C1755.12 179.372 1766.66 182.476 1778.22 185.58C1779.16 185.847 1780.11 186.172 1781.26 186.527C1780.76 188.448 1780.34 190.222 1779.87 191.937C1776.89 203.083 1773.93 214.259 1770.88 225.375C1770.44 227.002 1770.41 228.48 1770.85 230.135C1774.11 242.05 1777.27 253.995 1780.46 265.939C1780.73 266.915 1780.94 267.89 1781.2 269.103C1780.17 269.428 1779.25 269.753 1778.27 270.019C1766.33 273.242 1754.42 276.464 1742.47 279.628C1740.76 280.071 1739.34 280.81 1738.1 282.111C1733.72 286.635 1729.26 291.04 1724.82 295.504C1723.67 295.564 1722.46 295.564 1721.24 295.564Z" fill="#FADBC3"/>
<path fill-rule="evenodd" clip-rule="evenodd" d="M1386.74 116.161C1387.48 116.575 1388.34 116.87 1388.93 117.432C1391.71 120.093 1394.4 122.843 1397.12 125.563C1397.83 126.272 1398.57 126.923 1399.45 127.78C1400.34 126.952 1401.17 126.243 1401.94 125.474C1409.98 117.462 1418.02 109.479 1425.97 101.378C1427.6 99.7225 1429.4 98.7173 1431.62 98.126C1442.5 95.2877 1453.32 92.3312 1464.17 89.4338C1465.24 89.1381 1466.27 88.8129 1467.66 88.399C1467.37 87.1277 1467.1 85.9746 1466.8 84.8511C1463.82 73.705 1460.86 62.5589 1457.82 51.4127C1457.37 49.7866 1457.37 48.3084 1457.82 46.6823C1460.83 35.6544 1463.76 24.597 1466.71 13.5395C1467.04 12.3865 1467.34 11.2039 1467.69 9.81431C1466.71 9.48909 1465.92 9.16386 1465.06 8.92734C1453.82 5.91167 1442.59 2.86643 1431.33 -0.0901051C1429.29 -0.622282 1427.66 -1.53881 1426.18 -3.04664C1418.2 -11.118 1410.16 -19.1006 1402.14 -27.1424C1401.38 -27.9111 1400.84 -28.9755 1400.13 -29.9807C1398.89 -28.9755 1398.24 -28.532 1397.71 -27.9998C1394.84 -25.1615 1392 -22.2641 1389.11 -19.4258C1388.4 -18.7458 1387.51 -18.2432 1386.71 -17.6519C1386.71 -19.0711 1386.71 -20.4902 1386.71 -21.9094C1387.45 -22.3233 1388.31 -22.6189 1388.93 -23.2102C1391.71 -25.8711 1394.4 -28.6207 1397.12 -31.3407C1397.83 -32.0503 1398.57 -32.7007 1399.45 -33.5581C1400.34 -32.7303 1401.17 -32.0207 1401.94 -31.252C1410.63 -22.5893 1419.29 -13.9267 1427.93 -5.23449C1429.2 -3.96318 1430.56 -3.1649 1432.3 -2.72142C1444.16 0.382945 1455.98 3.57602 1467.81 6.76908C1468.87 7.03517 1469.91 7.36035 1471.15 7.7447C1470.23 11.263 1469.41 14.456 1468.55 17.6787C1465.95 27.3761 1463.4 37.044 1460.74 46.7119C1460.3 48.3379 1460.3 49.8162 1460.74 51.4719C1463.99 63.3867 1467.16 75.3311 1470.32 87.2755C1470.59 88.2512 1470.77 89.2268 1471.06 90.4094C1470 90.7347 1469.08 91.0599 1468.13 91.326C1456.19 94.5486 1444.27 97.7416 1432.33 100.935C1430.62 101.378 1429.23 102.176 1427.95 103.448C1419.41 112.081 1410.78 120.655 1402.2 129.288C1401.4 130.057 1400.87 131.091 1400.13 132.126C1398.95 131.18 1398.3 130.737 1397.77 130.204C1394.9 127.366 1392.06 124.469 1389.14 121.63C1388.43 120.95 1387.54 120.448 1386.74 119.886C1386.74 118.585 1386.74 117.373 1386.74 116.161Z" fill="#FADBC3"/>
<path fill-rule="evenodd" clip-rule="evenodd" d="M1411.07 295.563C1411.58 294.942 1412.02 294.262 1412.58 293.701C1417.28 288.97 1422.04 284.269 1426.74 279.509C1427.84 278.386 1429.05 277.676 1430.59 277.262C1441.82 274.306 1453.06 271.261 1464.29 268.245C1465.35 267.949 1466.39 267.624 1467.72 267.24C1467.42 266.028 1467.19 264.963 1466.89 263.899C1463.99 253.048 1461.13 242.198 1458.11 231.377C1457.43 228.923 1457.49 226.706 1458.14 224.281C1461.13 213.46 1463.99 202.61 1466.89 191.759C1467.16 190.784 1467.34 189.808 1467.6 188.655C1466.77 188.359 1466.06 188.005 1465.3 187.798C1453.97 184.752 1442.62 181.678 1431.27 178.691C1429.23 178.159 1427.63 177.243 1426.12 175.735C1418.17 167.664 1410.1 159.681 1402.11 151.639C1401.35 150.871 1400.81 149.806 1400.1 148.801C1398.86 149.806 1398.21 150.25 1397.65 150.782C1394.78 153.62 1391.91 156.517 1389.05 159.356C1388.34 160.036 1387.45 160.538 1386.65 161.13C1386.65 159.711 1386.65 158.291 1386.65 156.872C1387.45 156.37 1388.4 156.015 1389.08 155.364C1391.77 152.763 1394.4 150.072 1397.06 147.441C1397.77 146.731 1398.51 146.051 1399.39 145.224C1400.28 146.051 1401.11 146.761 1401.85 147.53C1410.54 156.192 1419.2 164.855 1427.84 173.547C1429.11 174.818 1430.47 175.617 1432.21 176.06C1444.07 179.165 1455.89 182.358 1467.72 185.551C1468.78 185.846 1469.82 186.142 1471 186.497C1470.71 187.738 1470.5 188.714 1470.26 189.69C1467.1 201.634 1463.91 213.549 1460.68 225.493C1460.24 227.119 1460.24 228.598 1460.68 230.253C1463.94 242.168 1467.1 254.113 1470.26 266.057C1470.53 267.033 1470.74 268.008 1471 269.191C1469.97 269.516 1469.02 269.841 1468.07 270.108C1456.13 273.33 1444.22 276.553 1432.27 279.716C1430.56 280.16 1429.14 280.928 1427.9 282.2C1423.52 286.723 1419.06 291.128 1414.65 295.593C1413.5 295.563 1412.29 295.563 1411.07 295.563Z" fill="#FADBC3"/>
<path fill-rule="evenodd" clip-rule="evenodd" d="M1386.74 270.64C1387.63 271.231 1388.63 271.704 1389.37 272.414C1392.71 275.636 1395.96 278.948 1399.36 282.377C1400.19 281.638 1400.9 281.106 1401.52 280.485C1406.9 275.134 1412.28 269.782 1417.64 264.372C1418.88 263.101 1420.27 262.273 1421.98 261.829C1429.14 259.967 1436.26 258.045 1443.39 256.123C1444.36 255.857 1445.31 255.561 1446.58 255.177C1446.37 254.113 1446.26 253.167 1445.99 252.22C1444.04 244.888 1442.12 237.526 1440.11 230.224C1439.63 228.598 1439.66 227.09 1440.14 225.464C1442.12 218.25 1444.01 211.006 1445.93 203.763C1446.2 202.817 1446.37 201.841 1446.64 200.718C1445.84 200.422 1445.19 200.156 1444.54 199.979C1437.12 197.968 1429.7 195.928 1422.25 194.006C1420.3 193.504 1418.79 192.587 1417.4 191.168C1412.37 186.024 1407.26 180.968 1402.17 175.912C1401.4 175.144 1400.61 174.375 1399.69 173.488C1398.95 174.079 1398.3 174.523 1397.74 175.084C1394.93 177.864 1392.18 180.672 1389.34 183.451C1388.57 184.22 1387.63 184.812 1386.77 185.492C1386.77 184.072 1386.77 182.653 1386.77 181.234C1387.57 180.702 1388.48 180.288 1389.19 179.608C1391.88 177.006 1394.52 174.316 1397.18 171.685C1397.89 170.975 1398.63 170.324 1399.51 169.467C1400.34 170.206 1401.11 170.857 1401.79 171.537C1407.52 177.272 1413.29 182.949 1418.94 188.744C1420.36 190.192 1421.92 191.05 1423.82 191.523C1431.56 193.533 1439.28 195.632 1446.99 197.702C1447.97 197.968 1448.92 198.293 1450.1 198.648C1449.89 199.624 1449.74 200.481 1449.51 201.339C1447.38 209.351 1445.28 217.392 1443.06 225.405C1442.59 227.149 1442.62 228.716 1443.09 230.46C1445.28 238.473 1447.41 246.485 1449.54 254.527C1449.74 255.295 1449.89 256.094 1450.1 257.04C1449.24 257.365 1448.53 257.69 1447.79 257.897C1439.69 260.085 1431.59 262.302 1423.46 264.431C1421.72 264.874 1420.36 265.702 1419.11 266.974C1413.44 272.739 1407.67 278.445 1401.94 284.181C1401.23 284.89 1400.49 285.57 1399.51 286.487C1397 284.003 1394.63 281.549 1392.18 279.184C1390.44 277.499 1388.6 275.961 1386.8 274.335C1386.74 273.064 1386.74 271.852 1386.74 270.64Z" fill="#FADBC3"/>
<path fill-rule="evenodd" clip-rule="evenodd" d="M1386.74 91.8285C1387.63 92.4198 1388.63 92.8928 1389.37 93.6024C1392.71 96.825 1395.96 100.136 1399.36 103.566C1400.19 102.827 1400.9 102.295 1401.52 101.674C1406.9 96.3224 1412.28 90.9711 1417.61 85.5311C1418.88 84.2598 1420.24 83.4319 1421.95 82.9884C1429.11 81.1258 1436.23 79.1745 1443.36 77.2823C1444.33 77.0162 1445.28 76.7206 1446.55 76.3658C1446.34 75.3014 1446.23 74.3554 1445.96 73.4093C1444.01 66.0771 1442.09 58.7153 1440.08 51.4126C1439.6 49.7865 1439.66 48.2787 1440.11 46.6526C1442.09 39.4387 1443.98 32.1952 1445.9 24.9517C1446.17 24.0056 1446.34 23.0299 1446.61 21.9064C1445.81 21.6108 1445.16 21.3447 1444.51 21.1673C1437.09 19.1569 1429.67 17.1168 1422.22 15.1951C1420.27 14.6925 1418.76 13.776 1417.37 12.3568C1412.34 7.21246 1407.23 2.15677 1402.14 -2.8989C1401.38 -3.6676 1400.58 -4.43632 1399.66 -5.32329C1398.92 -4.73198 1398.27 -4.28847 1397.71 -3.72673C1394.9 -0.94759 1392.15 1.86112 1389.31 4.64027C1388.54 5.40896 1387.6 6.00023 1386.74 6.68024C1386.74 5.2611 1386.74 3.842 1386.74 2.42286C1387.54 1.89069 1388.46 1.4472 1389.16 0.796761C1391.86 -1.80499 1394.49 -4.49546 1397.15 -7.12677C1397.86 -7.83634 1398.6 -8.48678 1399.48 -9.34417C1400.31 -8.60504 1401.08 -7.98413 1401.76 -7.27456C1407.5 -1.53889 1413.26 4.13764 1418.91 9.93245C1420.33 11.3812 1421.89 12.2386 1423.79 12.7116C1431.53 14.722 1439.25 16.8212 1446.96 18.8908C1447.91 19.1568 1448.89 19.4821 1450.1 19.8664C1449.83 20.9308 1449.63 21.9064 1449.39 22.8525C1447.29 30.776 1445.19 38.6996 1443.03 46.6231C1442.56 48.3674 1442.59 49.9344 1443.06 51.6787C1445.25 59.6909 1447.38 67.7031 1449.51 75.7449C1449.71 76.5136 1449.86 77.2823 1450.07 78.258C1449.21 78.5536 1448.5 78.9084 1447.76 79.1154C1439.66 81.3032 1431.56 83.5206 1423.43 85.6493C1421.69 86.0928 1420.33 86.9206 1419.08 88.1919C1413.41 93.9572 1407.64 99.6633 1401.91 105.399C1401.2 106.109 1400.46 106.789 1399.48 107.705C1396.97 105.222 1394.6 102.768 1392.15 100.402C1390.41 98.7172 1388.57 97.1798 1386.77 95.5537C1386.74 94.2528 1386.74 93.0406 1386.74 91.8285Z" fill="#FADBC3"/>
<path fill-rule="evenodd" clip-rule="evenodd" d="M1618.47 295.564C1619.63 290.951 1620.78 286.339 1621.9 281.756C1622.2 280.603 1622.49 279.45 1622.82 278.12C1621.61 277.736 1620.69 277.44 1619.72 277.174C1608.48 274.158 1597.22 271.113 1585.98 268.127C1584.27 267.654 1582.88 266.885 1581.61 265.614C1573.48 257.395 1565.29 249.264 1557.13 241.104C1556.36 240.335 1555.53 239.596 1554.58 238.709C1553.64 239.596 1552.84 240.335 1552.04 241.104C1543.88 249.264 1535.69 257.424 1527.56 265.614C1526.29 266.885 1524.93 267.654 1523.18 268.127C1511.92 271.083 1500.69 274.129 1489.45 277.174C1488.5 277.44 1487.56 277.765 1486.35 278.12C1487.11 281.017 1487.85 283.708 1488.5 286.457C1489.27 289.503 1489.95 292.548 1490.69 295.593C1489.86 295.593 1489.07 295.593 1488.27 295.593C1486.49 289.266 1484.69 282.939 1482.83 276.257C1484.07 275.843 1485.16 275.429 1486.29 275.134C1497.94 272.029 1509.55 268.896 1521.23 265.821C1523.24 265.289 1524.9 264.431 1526.38 262.894C1534.86 254.29 1543.41 245.805 1551.92 237.261C1552.69 236.492 1553.25 235.487 1554.08 234.393C1555.38 235.605 1556.18 236.315 1556.95 237.083C1565.55 245.687 1574.18 254.231 1582.73 262.923C1584.24 264.431 1585.86 265.318 1587.9 265.85C1599.55 268.896 1611.2 272.03 1622.85 275.163C1623.91 275.459 1624.95 275.814 1626.31 276.228C1624.45 282.821 1622.67 289.236 1620.87 295.623C1620.07 295.563 1619.27 295.564 1618.47 295.564Z" fill="#FADBC3"/>
<path fill-rule="evenodd" clip-rule="evenodd" d="M1928.64 295.564C1929.8 290.951 1930.95 286.339 1932.07 281.757C1932.37 280.604 1932.67 279.451 1932.99 278.12C1931.78 277.736 1930.86 277.44 1929.89 277.174C1918.65 274.158 1907.39 271.113 1896.15 268.127C1894.44 267.654 1893.05 266.885 1891.78 265.614C1883.65 257.395 1875.46 249.264 1867.3 241.104C1866.53 240.335 1865.7 239.596 1864.75 238.709C1863.81 239.596 1862.98 240.335 1862.21 241.104C1854.05 249.264 1845.86 257.424 1837.73 265.614C1836.46 266.885 1835.07 267.654 1833.36 268.127C1822.09 271.084 1810.86 274.129 1799.62 277.174C1798.67 277.44 1797.73 277.765 1796.52 278.12C1797.29 281.017 1798.02 283.708 1798.7 286.458C1799.44 289.503 1800.15 292.548 1800.89 295.593C1800.06 295.593 1799.27 295.593 1798.47 295.593C1796.69 289.266 1794.89 282.939 1793.03 276.257C1794.27 275.844 1795.36 275.43 1796.49 275.134C1808.14 272.03 1819.75 268.896 1831.43 265.821C1833.44 265.289 1835.1 264.431 1836.58 262.894C1845.06 254.29 1853.61 245.805 1862.12 237.261C1862.89 236.492 1863.48 235.487 1864.28 234.393C1865.58 235.605 1866.38 236.315 1867.15 237.083C1875.75 245.687 1884.38 254.231 1892.93 262.923C1894.44 264.431 1896.06 265.318 1898.07 265.851C1909.72 268.896 1921.37 272.03 1933.02 275.164C1934.08 275.459 1935.12 275.814 1936.48 276.228C1934.62 282.821 1932.84 289.237 1931.04 295.623C1930.27 295.564 1929.44 295.564 1928.64 295.564Z" fill="#FADBC3"/>
<path fill-rule="evenodd" clip-rule="evenodd" d="M1386.74 69.2996C1387.95 70.364 1389.25 71.3396 1390.38 72.4631C1393.33 75.3605 1396.2 78.3467 1399.28 81.4215C1400.07 80.771 1400.72 80.3275 1401.26 79.7954C1404.07 77.0162 1406.87 74.237 1409.62 71.3988C1410.78 70.1866 1412.08 69.4179 1413.73 69.004C1418.23 67.8805 1422.72 66.6092 1427.36 65.3379C1427.25 64.5101 1427.22 63.8301 1427.04 63.2092C1426.09 59.5727 1425.21 55.9361 1424.14 52.3587C1423.46 50.1413 1423.43 48.1013 1424.11 45.8543C1425.38 41.6856 1426.39 37.4578 1427.57 33.0526C1426.74 32.7274 1426.03 32.3726 1425.29 32.1656C1421.6 31.1308 1417.9 30.0664 1414.15 29.1795C1412.17 28.736 1410.66 27.7899 1409.3 26.3412C1406.22 23.1186 1403.09 19.9847 1399.81 16.6438C1398.98 17.2942 1398.33 17.7377 1397.8 18.2699C1394.93 21.1082 1392.09 24.0056 1389.16 26.8438C1388.48 27.5238 1387.57 27.9673 1386.74 28.529C1386.74 27.3169 1386.74 26.1047 1386.74 24.8925C1387.95 23.8282 1389.22 22.8525 1390.38 21.729C1393.33 18.8316 1396.23 15.8455 1399.31 12.7708C1400.02 13.3621 1400.67 13.8055 1401.2 14.3377C1404.42 17.5308 1407.7 20.7238 1410.84 24.0055C1412.14 25.3655 1413.62 26.223 1415.45 26.696C1420.06 27.849 1424.64 29.1204 1429.23 30.3621C1429.7 30.4804 1430.17 30.6873 1430.85 30.9239C1430.65 31.9586 1430.47 32.9343 1430.23 33.8508C1429.23 37.6647 1428.34 41.5082 1427.13 45.263C1426.33 47.7761 1426.33 50.1413 1427.1 52.6544C1428.25 56.4092 1429.2 60.2526 1430.2 64.0666C1430.47 65.0127 1430.65 65.9883 1430.91 67.2596C1428.37 67.9396 1425.94 68.5901 1423.52 69.2701C1420 70.2458 1416.16 70.6005 1413.11 72.3744C1409.98 74.2075 1407.61 77.4006 1404.95 80.0319C1403.24 81.7467 1401.58 83.491 1399.75 85.3832C1398.92 84.7328 1398.3 84.2893 1397.74 83.7275C1394.87 80.8893 1392.03 77.9918 1389.14 75.1536C1388.46 74.5031 1387.54 74.0596 1386.71 73.5275C1386.74 72.1379 1386.74 70.7188 1386.74 69.2996Z" fill="#FADBC3"/>
<path fill-rule="evenodd" clip-rule="evenodd" d="M1386.74 248.111C1387.95 249.146 1389.25 250.151 1390.38 251.274C1393.33 254.172 1396.2 257.158 1399.31 260.262C1400.16 259.523 1400.84 258.991 1401.46 258.37C1404.27 255.591 1406.99 252.723 1409.89 250.033C1410.87 249.116 1412.17 248.347 1413.47 247.963C1418.02 246.603 1422.6 245.42 1427.39 244.12C1427.27 243.292 1427.24 242.641 1427.07 241.991C1426.12 238.354 1425.23 234.718 1424.17 231.14C1423.49 228.923 1423.46 226.853 1424.14 224.636C1425.41 220.467 1426.42 216.239 1427.6 211.864C1426.77 211.539 1426.06 211.184 1425.32 210.977C1421.63 209.942 1417.93 208.878 1414.18 208.02C1412.2 207.577 1410.69 206.631 1409.33 205.182C1406.25 201.959 1403.09 198.825 1399.84 195.485C1399.04 196.135 1398.39 196.578 1397.83 197.111C1394.96 199.949 1392.12 202.846 1389.19 205.685C1388.51 206.365 1387.6 206.808 1386.77 207.37C1386.77 206.158 1386.77 204.945 1386.77 203.733C1387.98 202.669 1389.25 201.693 1390.41 200.57C1393.36 197.672 1396.26 194.686 1399.34 191.611C1400.04 192.203 1400.7 192.646 1401.23 193.178C1404.45 196.371 1407.73 199.565 1410.87 202.846C1412.17 204.206 1413.64 205.064 1415.48 205.537C1420.09 206.69 1424.67 207.961 1429.26 209.203C1429.73 209.321 1430.17 209.528 1430.85 209.735C1430.67 210.681 1430.59 211.539 1430.35 212.396C1429.28 216.417 1428.28 220.438 1427.07 224.399C1426.36 226.706 1426.3 228.864 1427.01 231.2C1428.19 235.073 1429.17 239.005 1430.2 242.907C1430.47 243.853 1430.64 244.859 1430.91 246.071C1428.46 246.751 1426.15 247.401 1423.82 248.052C1420.21 249.057 1416.25 249.412 1413.11 251.215C1409.89 253.107 1407.47 256.36 1404.75 259.08C1403.12 260.706 1401.58 262.48 1399.9 264.313C1398.95 263.544 1398.3 263.1 1397.77 262.568C1394.9 259.73 1392.06 256.833 1389.16 253.994C1388.48 253.344 1387.57 252.9 1386.74 252.368C1386.74 250.949 1386.74 249.56 1386.74 248.111Z" fill="#FADBC3"/>
<path fill-rule="evenodd" clip-rule="evenodd" d="M1600.23 295.563C1600.76 293.878 1601.27 292.163 1601.86 290.271C1600.59 289.857 1599.64 289.532 1598.69 289.296C1591.57 287.374 1584.47 285.393 1577.32 283.56C1575.34 283.057 1573.86 282.111 1572.47 280.722C1567.44 275.607 1562.33 270.551 1557.24 265.466C1556.48 264.697 1555.68 263.928 1554.67 262.953C1553.81 263.722 1553.08 264.342 1552.37 265.022C1547.13 270.226 1541.9 275.429 1536.73 280.692C1535.34 282.111 1533.83 283.028 1531.88 283.53C1524.72 285.334 1517.63 287.315 1510.5 289.266C1509.56 289.532 1508.61 289.857 1507.34 290.242C1507.93 292.134 1508.46 293.849 1508.96 295.534C1507.96 295.534 1506.92 295.534 1505.92 295.534C1505.24 293.139 1504.59 290.744 1503.85 288.142C1506.63 287.374 1509.05 286.664 1511.48 286.014C1517.72 284.329 1523.95 282.614 1530.22 281.047C1532.26 280.544 1533.86 279.569 1535.34 278.061C1540.92 272.355 1546.6 266.737 1552.28 261.09C1552.99 260.381 1553.73 259.73 1554.58 258.961C1555.44 259.76 1556.18 260.41 1556.89 261.09C1562.54 266.737 1568.24 272.355 1573.83 278.061C1575.31 279.569 1576.91 280.515 1578.95 281.047C1586.66 283.028 1594.38 285.127 1602.09 287.196C1603.04 287.463 1603.99 287.788 1605.32 288.172C1604.61 290.715 1603.96 293.109 1603.28 295.504C1602.24 295.563 1601.24 295.563 1600.23 295.563Z" fill="#FADBC3"/>
<path fill-rule="evenodd" clip-rule="evenodd" d="M1910.4 295.563C1910.93 293.878 1911.44 292.163 1912.03 290.271C1910.76 289.857 1909.81 289.532 1908.86 289.295C1901.74 287.374 1894.64 285.393 1887.49 283.56C1885.54 283.057 1884.03 282.141 1882.64 280.722C1877.61 275.607 1872.5 270.551 1867.44 265.466C1866.67 264.697 1865.88 263.928 1864.87 262.953C1863.95 263.81 1863.13 264.49 1862.39 265.259C1857.24 270.403 1852.07 275.518 1846.95 280.722C1845.56 282.141 1844.06 283.057 1842.11 283.56C1834.95 285.363 1827.86 287.344 1820.73 289.295C1819.78 289.562 1818.84 289.887 1817.57 290.271C1818.16 292.163 1818.69 293.878 1819.19 295.563C1818.19 295.563 1817.15 295.563 1816.15 295.563C1815.47 293.169 1814.82 290.774 1814.08 288.142C1817.06 287.315 1819.67 286.605 1822.3 285.895C1828.45 284.24 1834.6 282.584 1840.75 280.988C1842.58 280.515 1844.03 279.657 1845.33 278.297C1851 272.532 1856.74 266.826 1862.48 261.12C1863.19 260.41 1863.92 259.76 1864.78 258.991C1865.64 259.76 1866.38 260.41 1867.09 261.12C1872.74 266.767 1878.44 272.384 1884.03 278.09C1885.51 279.598 1887.1 280.544 1889.14 281.076C1896.77 283.028 1904.37 285.127 1912 287.167C1913.06 287.462 1914.1 287.758 1915.52 288.172C1914.81 290.774 1914.13 293.168 1913.45 295.563C1912.41 295.563 1911.41 295.563 1910.4 295.563Z" fill="#FADBC3"/>
<path fill-rule="evenodd" clip-rule="evenodd" d="M1386.74 41.9518C1387.24 41.8336 1387.72 41.7153 1388.22 41.6266C1392.24 41.0057 1395.73 39.4092 1398.24 36.0683C1398.48 35.7431 1398.86 35.5361 1399.16 35.2996C1399.25 35.2405 1399.34 35.2405 1399.72 35.1813C1401.35 36.6892 1402.88 38.67 1404.89 39.8527C1406.82 40.9761 1409.24 41.2718 1411.72 42.011C1411.13 44.4649 1410.19 46.8005 1410.19 49.1362C1410.19 51.3831 1411.16 53.6301 1411.78 56.2614C1406.93 57.1779 1402.59 58.9223 1399.78 63.4754C1397.68 61.5832 1396.11 59.4545 1393.98 58.3606C1391.83 57.2371 1389.16 57.1484 1386.74 56.5866C1386.74 55.9658 1386.74 55.3745 1386.74 54.7536C1389.49 51.8562 1389.43 46.4753 1386.74 43.1936C1386.74 42.7501 1386.74 42.3657 1386.74 41.9518ZM1390.35 43.9622C1392.3 47.4805 1391.62 50.8214 1390.64 54.3988C1394.49 54.6944 1397.18 56.5571 1399.66 59.6319C1401.64 56.0249 1404.95 55.0788 1408.47 54.1032C1406.96 50.6145 1407.17 47.3918 1408.44 43.8735C1404.57 43.4005 1401.82 41.5379 1399.36 38.6701C1397.18 41.8927 1394.22 43.2527 1390.35 43.9622Z" fill="#FADBC3"/>
<path fill-rule="evenodd" clip-rule="evenodd" d="M1386.74 220.763C1387.24 220.645 1387.72 220.526 1388.22 220.438C1392.24 219.817 1395.73 218.22 1398.24 214.879C1398.54 214.495 1398.98 214.258 1399.54 213.815C1401.38 215.5 1402.91 217.481 1404.92 218.664C1406.84 219.787 1409.27 220.083 1411.75 220.822C1411.19 223.276 1410.22 225.612 1410.22 227.947C1410.22 230.194 1411.19 232.441 1411.81 235.073C1406.96 235.989 1402.62 237.733 1399.81 242.286C1397.71 240.394 1396.14 238.266 1394.01 237.172C1391.86 236.048 1389.19 235.959 1386.77 235.398C1386.77 234.777 1386.77 234.185 1386.77 233.565C1389.52 230.667 1389.46 225.286 1386.77 222.005C1386.74 221.561 1386.74 221.147 1386.74 220.763ZM1390.47 233.18C1394.46 233.565 1397.18 235.309 1399.51 238.325C1401.79 235.132 1404.83 233.742 1408.29 233.032C1407.88 231.111 1407.26 229.573 1407.29 228.006C1407.29 226.351 1407.88 224.695 1408.26 222.714C1404.63 222.212 1401.79 220.467 1399.39 217.481C1397.15 220.674 1394.25 222.123 1390.41 222.773C1392.03 226.173 1391.94 229.425 1390.47 233.18Z" fill="#FADBC3"/>
<path fill-rule="evenodd" clip-rule="evenodd" d="M1564.93 295.563C1561.59 292.104 1558.28 288.645 1554.64 284.861C1551.06 288.586 1547.4 291.809 1544.26 295.563C1542.02 295.563 1539.8 295.563 1537.55 295.563C1540.83 294.795 1543.14 292.636 1545.36 290.271C1548.23 287.196 1551.24 284.24 1554.32 281.106C1555.17 281.815 1555.82 282.259 1556.39 282.791C1559.02 285.422 1561.74 287.995 1564.28 290.715C1566.38 292.962 1568.63 294.824 1571.64 295.593C1569.4 295.563 1567.18 295.563 1564.93 295.563Z" fill="#FADBC3"/>
<path fill-rule="evenodd" clip-rule="evenodd" d="M1875.13 295.563C1871.79 292.104 1868.48 288.645 1864.84 284.861C1861.27 288.586 1857.6 291.809 1854.46 295.563C1852.25 295.563 1850 295.563 1847.78 295.563C1851.06 294.795 1853.37 292.636 1855.56 290.271C1858.43 287.196 1861.44 284.21 1864.49 281.076C1865.37 281.786 1866.03 282.229 1866.59 282.791C1869.25 285.422 1871.94 287.995 1874.48 290.715C1876.58 292.962 1878.8 294.824 1881.84 295.593C1879.6 295.563 1877.35 295.563 1875.13 295.563Z" fill="#FADBC3"/>
<path fill-rule="evenodd" clip-rule="evenodd" d="M1638.08 7.68566C1643.25 6.29609 1648.1 4.96565 1652.98 3.66477C1660.99 1.5065 1669 -0.681331 1677.04 -2.75091C1678.7 -3.16482 1679.97 -3.93353 1681.15 -5.11615C1689.79 -13.8084 1698.48 -22.471 1707.14 -31.1337C1707.91 -31.9024 1708.74 -32.6415 1709.68 -33.558C1710.6 -32.7007 1711.43 -31.9911 1712.2 -31.2224C1720.86 -22.5597 1729.55 -13.8971 1738.18 -5.20484C1739.46 -3.93353 1740.82 -3.16486 1742.56 -2.69181C1754.3 0.41255 1766.03 3.57605 1777.77 6.73954C1778.93 7.03519 1780.05 7.38997 1781.38 7.74475C1780.46 11.263 1779.64 14.4857 1778.78 17.6787C1776.18 27.3762 1773.63 37.044 1770.97 46.7119C1770.53 48.338 1770.53 49.8163 1770.97 51.4423C1774.22 63.3572 1777.39 75.3016 1780.58 87.2164C1780.85 88.1921 1781.02 89.1677 1781.32 90.3504C1780.26 90.6756 1779.34 91.0008 1778.39 91.2669C1766.48 94.4895 1754.53 97.7121 1742.59 100.876C1740.87 101.319 1739.49 102.088 1738.21 103.359C1729.67 111.992 1721.04 120.566 1712.46 129.199C1711.66 129.998 1711.07 130.944 1710.19 132.067C1708.94 130.944 1708.15 130.234 1707.38 129.495C1698.71 120.832 1690.02 112.17 1681.39 103.477C1680.06 102.117 1678.58 101.319 1676.75 100.846C1664.89 97.7121 1653.1 94.5191 1641.24 91.326C1640.29 91.0599 1639.35 90.7643 1638.16 90.4095C1638.64 88.5173 1639.05 86.7729 1639.52 85.0286C1642.51 73.7938 1645.53 62.5294 1648.57 51.2946C1648.99 49.7572 1648.99 48.3676 1648.57 46.8598C1645.32 34.9449 1642.16 23.0005 1638.99 11.0857C1638.64 10.0804 1638.43 9.1048 1638.08 7.68566ZM1641.51 9.72568C1641.83 11.0857 1642.04 12.0909 1642.3 13.0665C1645.17 23.8283 1648.01 34.5901 1651 45.3223C1651.71 47.865 1651.74 50.1711 1651.06 52.7137C1648.04 63.5346 1645.17 74.4146 1642.27 85.2651C1642.01 86.2999 1641.8 87.3347 1641.56 88.4878C1642.87 88.8721 1643.81 89.1678 1644.79 89.4338C1656.02 92.4495 1667.26 95.4948 1678.52 98.4513C1680.18 98.8948 1681.45 99.6635 1682.63 100.846C1690.85 109.095 1699.1 117.344 1707.35 125.563C1708.12 126.331 1708.91 127.041 1710.19 128.194C1711.04 127.071 1711.63 126.095 1712.43 125.297C1720.36 117.314 1728.37 109.42 1736.26 101.408C1737.89 99.7522 1739.69 98.7469 1741.91 98.1556C1752.88 95.2878 1763.82 92.3313 1774.79 89.4043C1775.82 89.1382 1776.83 88.7834 1777.95 88.4286C1777.57 86.9208 1777.3 85.7382 1776.97 84.5851C1774.02 73.5277 1771.12 62.4702 1768.1 51.4423C1767.66 49.8163 1767.66 48.338 1768.13 46.7119C1771.18 35.5658 1774.14 24.4196 1777.09 13.2735C1777.39 12.15 1777.62 10.997 1777.95 9.72567C1776.77 9.37089 1775.88 9.10477 1775.02 8.86825C1763.88 5.88215 1752.73 2.86649 1741.55 -0.0900439C1739.51 -0.622221 1737.92 -1.5683 1736.44 -3.07613C1728.4 -11.2362 1720.27 -19.3075 1712.17 -27.3789C1711.4 -28.1476 1710.57 -28.8276 1709.24 -30.0693C1708.41 -28.9163 1707.85 -27.8815 1707.08 -27.1128C1699.16 -19.1301 1691.15 -11.2362 1683.28 -3.22396C1681.66 -1.5683 1679.85 -0.592659 1677.61 -0.00134997C1666.64 2.86649 1655.7 5.85259 1644.73 8.77956C1643.66 9.04565 1642.72 9.34133 1641.51 9.72568Z" fill="#FADBC3"/>
<path fill-rule="evenodd" clip-rule="evenodd" d="M1793.15 0.85614C1793.86 -1.86388 1794.51 -4.40651 1795.19 -6.91956C1797.91 -17.09 1800.6 -27.2605 1803.41 -37.431C1803.97 -39.471 1803.91 -41.3336 1803.35 -43.3441C1800.15 -54.9633 1797.08 -66.612 1793.94 -78.2608C1793.68 -79.2364 1793.47 -80.2121 1793.18 -81.3947C1793.97 -81.6903 1794.71 -82.0155 1795.45 -82.2225C1807.37 -85.4451 1819.31 -88.6678 1831.26 -91.8017C1833.5 -92.393 1835.25 -93.4278 1836.87 -95.0834C1845.27 -103.598 1853.76 -112.024 1862.21 -120.48C1862.98 -121.249 1863.81 -121.988 1864.72 -122.875C1865.64 -122.017 1866.47 -121.278 1867.24 -120.51C1875.84 -111.906 1884.44 -103.332 1893.02 -94.6991C1894.44 -93.2799 1895.97 -92.4225 1897.9 -91.9199C1909.55 -88.8747 1921.19 -85.7408 1932.84 -82.6364C1933.91 -82.3408 1934.97 -82.0155 1936.36 -81.5721C1936.07 -80.4486 1935.83 -79.3842 1935.56 -78.3495C1932.4 -66.5233 1929.27 -54.6676 1926.01 -42.8415C1925.54 -41.0971 1925.57 -39.5301 1926.04 -37.8153C1929.24 -26.1075 1932.34 -14.3405 1935.5 -2.60306C1935.8 -1.53871 1936.04 -0.474344 1936.36 0.826536C1935.15 1.18132 1934.11 1.50656 1933.05 1.77265C1921.22 4.9657 1909.4 8.15874 1897.54 11.2631C1895.8 11.7066 1894.44 12.5049 1893.17 13.7762C1884.59 22.4093 1875.99 30.9832 1867.41 39.6163C1866.65 40.3849 1866.08 41.4197 1865.29 42.5728C1863.93 41.3015 1863.13 40.5919 1862.36 39.8232C1853.67 31.1606 1845 22.4979 1836.37 13.8057C1835.1 12.5344 1833.77 11.7361 1832.02 11.2631C1820.17 8.15874 1808.34 4.93615 1796.52 1.77266C1795.45 1.5657 1794.42 1.21092 1793.15 0.85614ZM1864.37 -119.327C1863.42 -118.115 1862.83 -117.139 1862.03 -116.37C1853.96 -108.24 1845.83 -100.169 1837.76 -92.0382C1836.49 -90.7669 1835.13 -89.9686 1833.38 -89.5251C1822.12 -86.5686 1810.89 -83.5234 1799.62 -80.4782C1798.68 -80.2121 1797.73 -79.8868 1796.55 -79.532C1796.84 -78.2903 1797.08 -77.226 1797.37 -76.1912C1800.33 -65.2224 1803.23 -54.2833 1806.24 -43.3441C1806.81 -41.3336 1806.81 -39.4415 1806.27 -37.431C1803.29 -26.6101 1800.39 -15.73 1797.49 -4.87955C1797.17 -3.7265 1796.9 -2.57349 1796.55 -1.12478C1797.82 -0.740433 1798.85 -0.415207 1799.89 -0.149117C1810.86 2.77785 1821.8 5.7344 1832.76 8.60224C1834.89 9.16398 1836.61 10.1397 1838.17 11.7066C1846.22 19.8666 1854.35 27.938 1862.45 36.0389C1863.19 36.778 1864.01 37.4876 1865.23 38.5815C1866.11 37.4285 1866.73 36.4824 1867.53 35.6841C1875.6 27.5536 1883.73 19.4823 1891.81 11.3518C1893.08 10.0805 1894.44 9.28224 1896.18 8.83876C1907.24 5.94136 1918.3 2.95526 1929.35 -0.0308396C1930.51 -0.356058 1931.66 -0.681299 1933.05 -1.06565C1932.72 -2.36653 1932.49 -3.43086 1932.22 -4.46565C1929.29 -15.3161 1926.43 -26.1962 1923.44 -37.0171C1922.82 -39.2345 1922.79 -41.3041 1923.41 -43.5215C1926.25 -53.6624 1928.94 -63.8624 1931.66 -74.0329C1932.13 -75.7772 1932.55 -77.5216 1933.05 -79.5025C1931.93 -79.8573 1930.98 -80.1825 1930.03 -80.4486C1918.89 -83.4642 1907.74 -86.4799 1896.57 -89.4069C1894.53 -89.9391 1892.93 -90.9147 1891.45 -92.393C1883.47 -100.464 1875.43 -108.477 1867.39 -116.489C1866.56 -117.257 1865.76 -117.997 1864.37 -119.327Z" fill="#FADBC3"/>
<path fill-rule="evenodd" clip-rule="evenodd" d="M1555.26 -123.141C1555.91 -122.225 1556.45 -121.19 1557.21 -120.421C1565.79 -111.788 1574.42 -103.214 1582.97 -94.5811C1584.3 -93.2211 1585.77 -92.3933 1587.58 -91.9202C1599.23 -88.8454 1610.88 -85.7411 1622.52 -82.6071C1623.68 -82.3115 1624.83 -81.9567 1626.16 -81.5428C1625.87 -80.3011 1625.66 -79.2071 1625.39 -78.1723C1622.2 -66.2279 1619.04 -54.2835 1615.78 -42.3687C1615.4 -40.92 1615.4 -39.6486 1615.78 -38.2295C1619.04 -26.3147 1622.2 -14.3703 1625.39 -2.42586C1625.66 -1.4502 1625.89 -0.474548 1626.22 0.855896C1625.1 1.21068 1624.09 1.53587 1623.06 1.80196C1611.11 4.99502 1599.2 8.24723 1587.25 11.3812C1585.63 11.8246 1584.33 12.5637 1583.14 13.7463C1574.51 22.4386 1565.82 31.1012 1557.16 39.7639C1556.39 40.5326 1555.56 41.2717 1554.61 42.1883C1553.7 41.3309 1552.87 40.5917 1552.1 39.823C1543.5 31.2195 1534.89 22.6456 1526.32 14.0125C1524.99 12.682 1523.6 11.7951 1521.74 11.2925C1509.88 8.1881 1498.05 4.99502 1486.23 1.80196C1485.25 1.53587 1484.31 1.24025 1483.01 0.855896C1483.27 -0.267585 1483.51 -1.33195 1483.8 -2.33717C1487 -14.2816 1490.16 -26.226 1493.41 -38.1408C1493.83 -39.6782 1493.8 -41.0678 1493.38 -42.5756C1490.16 -54.4018 1487.03 -66.2279 1483.86 -78.0837C1483.57 -79.148 1483.36 -80.2123 1483.03 -81.5132C1484.34 -81.8976 1485.46 -82.2819 1486.61 -82.5776C1498.26 -85.6819 1509.91 -88.8159 1521.56 -91.8907C1523.48 -92.3933 1525.02 -93.3098 1526.44 -94.7289C1534.92 -103.303 1543.47 -111.788 1551.98 -120.333C1552.75 -121.131 1553.37 -122.077 1554.05 -122.964C1554.44 -123.023 1554.85 -123.082 1555.26 -123.141ZM1486.32 -79.5915C1486.73 -78.0541 1487.03 -76.8715 1487.32 -75.7184C1490.28 -64.661 1493.21 -53.6035 1496.22 -42.5461C1496.63 -41.0087 1496.63 -39.6487 1496.22 -38.1113C1493.18 -26.9651 1490.22 -15.819 1487.23 -4.67286C1486.94 -3.51981 1486.67 -2.36677 1486.35 -1.03633C1487.79 -0.622413 1488.95 -0.297195 1490.13 0.0280231C1501.1 2.95499 1512.04 5.94109 1523.01 8.80894C1524.84 9.28199 1526.29 10.1098 1527.62 11.4699C1535.75 19.689 1543.94 27.8195 1552.1 35.9795C1552.87 36.7482 1553.67 37.4578 1555.09 38.7882C1555.88 37.6352 1556.42 36.6004 1557.18 35.8021C1565.32 27.6125 1573.5 19.4525 1581.66 11.2629C1582.85 10.0803 1584.12 9.31155 1585.77 8.89764C1596.95 5.97066 1608.07 2.95502 1619.21 -0.0310742C1620.37 -0.326729 1621.46 -0.711082 1622.73 -1.09543C1622.38 -2.5737 1622.11 -3.75634 1621.79 -4.90939C1618.83 -15.9668 1615.9 -27.0243 1612.89 -38.0521C1612.47 -39.5895 1612.44 -40.9495 1612.86 -42.4869C1615.9 -53.6331 1618.86 -64.7792 1621.84 -75.9253C1622.14 -77.0784 1622.41 -78.2315 1622.7 -79.5028C1621.46 -79.8576 1620.51 -80.1828 1619.54 -80.4193C1608.39 -83.435 1597.25 -86.4506 1586.07 -89.3776C1584.24 -89.8506 1582.76 -90.6489 1581.43 -92.0089C1573.3 -100.228 1565.11 -108.388 1556.95 -116.548C1556.18 -117.317 1555.38 -118.026 1554.46 -118.884C1553.46 -117.908 1552.66 -117.139 1551.89 -116.371C1543.79 -108.27 1535.66 -100.199 1527.62 -92.0681C1526.29 -90.7081 1524.81 -89.8802 1523.01 -89.4072C1515.26 -87.3967 1507.54 -85.2976 1499.8 -83.228C1495.48 -82.1045 1491.11 -80.8923 1486.32 -79.5915Z" fill="#FADBC3"/>
<path fill-rule="evenodd" clip-rule="evenodd" d="M1793.12 179.638C1795.04 172.394 1796.9 165.476 1798.73 158.528C1800.33 152.556 1801.9 146.584 1803.55 140.641C1804 139.104 1803.94 137.714 1803.52 136.206C1800.3 124.38 1797.17 112.554 1794 100.698C1793.74 99.7225 1793.5 98.7469 1793.15 97.3869C1794.27 97.0025 1795.36 96.5886 1796.49 96.293C1808.02 93.1886 1819.55 90.0547 1831.14 87.0686C1833.5 86.4477 1835.34 85.3538 1837.02 83.639C1845.33 75.2129 1853.75 66.8459 1862.12 58.4493C1862.92 57.6806 1863.54 56.7345 1864.46 55.6406C1865.61 56.7345 1866.41 57.4441 1867.18 58.2128C1875.84 66.8754 1884.56 75.5381 1893.17 84.2599C1894.5 85.6199 1895.97 86.4181 1897.81 86.9207C1909.46 89.9955 1921.1 93.0999 1932.75 96.2338C1933.91 96.5295 1935.06 96.9138 1936.39 97.2982C1936.09 98.5695 1935.86 99.6338 1935.59 100.669C1932.43 112.495 1929.29 124.35 1926.07 136.177C1925.63 137.803 1925.66 139.281 1926.1 140.907C1929.32 152.733 1932.46 164.559 1935.62 176.415C1935.89 177.391 1936.12 178.366 1936.45 179.697C1935.33 180.022 1934.32 180.377 1933.29 180.643C1921.34 183.836 1909.43 187.088 1897.48 190.222C1895.83 190.666 1894.55 191.405 1893.37 192.587C1884.74 201.279 1876.05 209.942 1867.38 218.605C1866.62 219.373 1865.82 220.113 1864.84 221.029C1863.9 220.142 1863.1 219.433 1862.33 218.664C1853.73 210.06 1845.12 201.486 1836.55 192.853C1835.22 191.523 1833.8 190.636 1831.94 190.163C1820.08 187.059 1808.25 183.836 1796.43 180.672C1795.39 180.347 1794.45 180.052 1793.12 179.638ZM1796.55 177.745C1797.94 178.159 1799.09 178.485 1800.24 178.81C1811.3 181.766 1822.33 184.782 1833.41 187.679C1835.16 188.123 1836.52 188.951 1837.79 190.222C1845.92 198.412 1854.11 206.572 1862.3 214.732C1863.07 215.5 1863.9 216.21 1864.81 217.097C1865.76 216.21 1866.59 215.471 1867.35 214.673C1875.4 206.66 1883.44 198.648 1891.42 190.577C1892.99 189.01 1894.67 188.034 1896.83 187.472C1907.8 184.605 1918.74 181.648 1929.71 178.721C1930.77 178.455 1931.81 178.13 1932.99 177.775C1932.69 176.533 1932.55 175.558 1932.28 174.582C1929.35 163.613 1926.43 152.674 1923.41 141.735C1922.79 139.517 1922.82 137.448 1923.44 135.231C1926.46 124.291 1929.38 113.323 1932.31 102.383C1932.58 101.437 1932.72 100.462 1932.99 99.3086C1931.87 98.9538 1930.92 98.6582 1929.97 98.3921C1918.74 95.3764 1907.48 92.3312 1896.21 89.3451C1894.47 88.9016 1893.11 88.1033 1891.83 86.832C1883.7 78.6129 1875.51 70.4529 1867.35 62.2928C1866.59 61.5241 1865.76 60.8146 1864.84 59.9276C1863.87 60.8441 1863.07 61.5537 1862.3 62.3519C1854.26 70.3641 1846.22 78.3764 1838.23 86.4477C1836.75 87.926 1835.16 88.9016 1833.12 89.4633C1821.94 92.3903 1810.83 95.406 1799.65 98.4217C1798.7 98.6878 1797.76 99.013 1796.69 99.3382C1796.96 100.521 1797.14 101.496 1797.4 102.472C1800.33 113.441 1803.26 124.38 1806.27 135.319C1806.83 137.418 1806.95 139.37 1806.36 141.528C1803.35 152.349 1800.48 163.229 1797.58 174.079C1797.17 175.203 1796.9 176.356 1796.55 177.745Z" fill="#FADBC3"/>
<path fill-rule="evenodd" clip-rule="evenodd" d="M1482.98 97.2683C1485.16 96.6475 1487.11 96.0858 1489.04 95.5536C1499.89 92.6562 1510.77 89.7292 1521.62 86.8909C1523.45 86.4179 1524.9 85.5605 1526.23 84.23C1534.77 75.597 1543.41 67.023 1551.98 58.3899C1552.75 57.6212 1553.34 56.6456 1554.17 55.6108C1555.44 56.7934 1556.27 57.503 1557.01 58.2717C1565.61 66.8752 1574.24 75.4491 1582.79 84.0822C1584.21 85.5013 1585.74 86.3883 1587.67 86.9205C1599.32 89.9952 1610.96 93.0996 1622.61 96.2336C1623.77 96.5292 1624.89 96.9135 1626.25 97.3275C1625.13 101.585 1624.09 105.576 1623 109.568C1620.63 118.467 1618.27 127.366 1615.81 136.265C1615.4 137.802 1615.37 139.162 1615.78 140.7C1619.01 152.526 1622.14 164.352 1625.3 176.208C1625.57 177.272 1625.84 178.336 1626.16 179.696C1625.01 180.022 1623.97 180.347 1622.94 180.643C1611.41 183.717 1599.88 186.851 1588.32 189.867C1585.98 190.488 1584.12 191.523 1582.4 193.267C1574.1 201.723 1565.67 210.06 1557.3 218.457C1556.5 219.255 1555.85 220.171 1554.94 221.295C1553.81 220.26 1552.99 219.551 1552.22 218.811C1543.55 210.149 1534.86 201.486 1526.23 192.794C1524.9 191.434 1523.45 190.636 1521.59 190.133C1509.73 187.029 1497.91 183.806 1486.08 180.643C1485.1 180.377 1484.16 180.051 1482.95 179.667C1483.24 178.484 1483.51 177.45 1483.77 176.385C1486.97 164.441 1490.13 152.496 1493.38 140.582C1493.77 139.162 1493.77 137.862 1493.38 136.442C1490.13 124.528 1486.97 112.583 1483.77 100.639C1483.54 99.6336 1483.3 98.6579 1482.98 97.2683ZM1486.35 177.686C1487.62 178.07 1488.56 178.396 1489.54 178.662C1500.51 181.589 1511.45 184.545 1522.42 187.413C1524.63 188.004 1526.44 188.98 1528.09 190.636C1536.05 198.737 1544.12 206.719 1552.13 214.731C1552.9 215.5 1553.73 216.21 1554.64 217.067C1555.62 216.151 1556.42 215.411 1557.21 214.613C1565.37 206.453 1573.56 198.293 1581.72 190.104C1582.91 188.921 1584.18 188.152 1585.83 187.709C1597.01 184.782 1608.13 181.766 1619.27 178.75C1620.42 178.455 1621.55 178.07 1622.82 177.716C1622.52 176.444 1622.35 175.469 1622.08 174.523C1619.18 163.672 1616.29 152.792 1613.3 141.971C1612.65 139.665 1612.59 137.536 1613.24 135.171C1616.26 124.35 1619.12 113.47 1622.05 102.62C1622.35 101.585 1622.52 100.521 1622.82 99.2788C1621.64 98.924 1620.69 98.6284 1619.74 98.3623C1608.6 95.3762 1597.45 92.3309 1586.28 89.404C1584.33 88.9014 1582.82 87.9848 1581.43 86.5657C1573.39 78.4352 1565.26 70.3343 1557.15 62.263C1556.39 61.4943 1555.56 60.7847 1554.61 59.8977C1553.67 60.8438 1552.87 61.583 1552.07 62.3813C1543.97 70.4822 1535.84 78.5535 1527.8 86.684C1526.47 88.044 1525.02 88.9013 1523.18 89.3744C1511.83 92.3605 1500.48 95.4353 1489.12 98.4805C1488.27 98.717 1487.44 99.0423 1486.43 99.397C1486.79 100.757 1487.08 101.91 1487.38 103.063C1490.31 113.914 1493.18 124.794 1496.16 135.615C1496.69 137.536 1496.75 139.31 1496.19 141.232C1494.59 146.879 1493.09 152.556 1491.58 158.232C1489.83 164.589 1488.12 170.945 1486.35 177.686Z" fill="#FADBC3"/>
<path fill-rule="evenodd" clip-rule="evenodd" d="M1626.46 14.3377C1628.2 20.7829 1629.86 26.9325 1631.51 33.0821C1632.75 37.6647 1634.05 42.2474 1635.18 46.8891C1635.47 48.1309 1635.59 49.55 1635.3 50.7326C1632.52 61.4057 1629.62 72.0788 1626.75 82.7223C1626.69 83.018 1626.49 83.2545 1626.22 83.7276C1625.3 83.5206 1624.33 83.3728 1623.38 83.1067C1613.6 80.5049 1603.81 77.9032 1594.05 75.2127C1592.75 74.8579 1591.33 74.2371 1590.39 73.291C1582.58 65.6336 1574.87 57.8579 1567.12 50.1117C1566.85 49.8161 1566.62 49.4909 1566.23 49.0474C1566.85 48.3674 1567.38 47.6874 1568.01 47.0665C1575.25 39.823 1582.49 32.6091 1589.71 25.336C1590.98 24.0647 1592.37 23.2664 1594.08 22.8229C1604.08 20.1916 1614.04 17.4716 1624.03 14.8107C1624.71 14.6629 1625.39 14.5447 1626.46 14.3377ZM1624.36 17.856C1623.8 17.9447 1623.41 17.9742 1623.03 18.0629C1613.54 20.576 1604.05 23.0595 1594.59 25.6908C1593.4 26.016 1592.25 26.9029 1591.36 27.7899C1584.8 34.2647 1578.29 40.7987 1571.79 47.303C1571.26 47.8352 1570.79 48.4856 1570.22 49.1361C1570.96 49.9343 1571.58 50.6144 1572.2 51.2648C1578.5 57.5622 1584.83 63.8301 1591.07 70.1866C1592.4 71.5466 1593.88 72.3744 1595.71 72.8475C1603.72 74.9171 1611.73 77.1049 1619.77 79.2336C1621.22 79.618 1622.67 80.0023 1624.24 80.4162C1624.56 79.5588 1624.86 78.938 1625.07 78.258C1627.52 69.1814 1629.92 60.0753 1632.4 50.9987C1632.81 49.4613 1632.64 48.0422 1632.22 46.5344C1629.89 37.9308 1627.58 29.3273 1625.27 20.7534C1624.98 19.8073 1624.68 18.8612 1624.36 17.856Z" fill="#FADBC3"/>
<path fill-rule="evenodd" clip-rule="evenodd" d="M1876.25 48.9293C1879.21 46.0319 1882.02 43.2527 1884.8 40.4736C1889.82 35.477 1894.85 30.4805 1899.85 25.3952C1901.09 24.1239 1902.45 23.2961 1904.19 22.8526C1914.19 20.2213 1924.15 17.5013 1934.14 14.8404C1934.82 14.663 1935.5 14.5448 1936.39 14.3674C1936.63 14.9291 1936.95 15.4317 1937.1 15.9935C1939.91 26.3413 1942.72 36.7188 1945.44 47.0962C1945.73 48.2197 1945.82 49.5501 1945.53 50.6736C1942.72 61.4354 1939.79 72.1972 1936.89 82.959C1936.83 83.1364 1936.69 83.3137 1936.42 83.7868C1935.47 83.5798 1934.44 83.3729 1933.4 83.1068C1923.74 80.5051 1914.04 77.9033 1904.37 75.3311C1902.66 74.8876 1901.27 74.1189 1900 72.8181C1892.87 65.6041 1885.69 58.4493 1878.53 51.2945C1877.73 50.5849 1877.08 49.8458 1876.25 48.9293ZM1934.65 17.8265C1933.94 17.9448 1933.52 17.9743 1933.17 18.063C1923.68 20.5761 1914.19 23.0892 1904.73 25.6909C1903.63 25.9866 1902.57 26.7848 1901.74 27.6126C1895.03 34.2353 1888.41 40.917 1881.75 47.5692C1881.28 48.0423 1880.9 48.604 1880.45 49.1362C1880.87 49.6092 1881.07 49.9641 1881.37 50.2301C1888.23 57.1189 1895.09 64.0076 1902.01 70.8372C1902.89 71.6946 1904.16 72.3155 1905.38 72.6407C1914.25 75.0946 1923.14 77.4303 1932.04 79.7955C1932.81 80.0025 1933.58 80.1207 1934.5 80.3277C1934.82 79.352 1935.15 78.4946 1935.39 77.6372C1937.01 71.6946 1938.61 65.7224 1940.2 59.7502C1941.15 56.2319 1942.75 52.6841 1942.72 49.1658C1942.72 45.5293 1941.12 41.8927 1940.17 38.2857C1938.37 31.5744 1936.54 24.8335 1934.65 17.8265Z" fill="#FADBC3"/>
<path fill-rule="evenodd" clip-rule="evenodd" d="M1936.51 193.179C1936.86 194.243 1937.19 195.189 1937.45 196.135C1940.09 205.921 1942.72 215.678 1945.26 225.494C1945.61 226.824 1945.76 228.361 1945.44 229.633C1942.69 240.217 1939.82 250.772 1936.98 261.327C1936.86 261.711 1936.66 262.036 1936.39 262.569C1935.38 262.362 1934.41 262.184 1933.46 261.918C1923.68 259.316 1913.89 256.715 1904.13 254.024C1902.83 253.669 1901.44 253.019 1900.5 252.102C1892.75 244.504 1885.12 236.788 1877.47 229.13C1877.11 228.775 1876.82 228.391 1876.37 227.888C1877.11 227.09 1877.76 226.351 1878.44 225.671C1885.54 218.575 1892.63 211.509 1899.7 204.354C1901.03 203.024 1902.45 202.137 1904.31 201.634C1914.22 199.062 1924.09 196.372 1933.97 193.711C1934.76 193.504 1935.56 193.386 1936.51 193.179ZM1880.1 227.475C1880.96 228.48 1881.46 229.13 1881.99 229.692C1888.58 236.285 1895.12 242.908 1901.77 249.412C1902.72 250.358 1904.08 251.068 1905.38 251.422C1914.36 253.906 1923.35 256.271 1932.34 258.666C1932.99 258.843 1933.67 258.932 1934.47 259.08C1934.68 258.489 1934.91 258.045 1935.03 257.572C1937.54 248.2 1940.12 238.828 1942.54 229.426C1942.84 228.243 1942.69 226.794 1942.36 225.582C1940.06 216.772 1937.69 207.991 1935.3 199.18C1935.06 198.323 1934.73 197.495 1934.44 196.667C1933.97 196.727 1933.64 196.727 1933.37 196.786C1923.8 199.328 1914.22 201.841 1904.64 204.473C1903.45 204.798 1902.33 205.714 1901.41 206.601C1896.27 211.628 1891.24 216.772 1886.13 221.828C1884.27 223.779 1882.2 225.553 1880.1 227.475Z" fill="#FADBC3"/>
<path fill-rule="evenodd" clip-rule="evenodd" d="M1626.46 193.149C1628.2 199.624 1629.86 205.773 1631.51 211.923C1632.75 216.506 1634.05 221.088 1635.18 225.73C1635.47 226.942 1635.59 228.391 1635.3 229.603C1632.55 240.188 1629.68 250.742 1626.84 261.297C1626.75 261.682 1626.52 262.036 1626.28 262.568C1625.3 262.362 1624.33 262.184 1623.38 261.948C1613.6 259.346 1603.81 256.744 1594.05 254.054C1592.75 253.699 1591.33 253.078 1590.39 252.132C1582.58 244.474 1574.86 236.699 1567.12 228.953C1566.85 228.657 1566.62 228.332 1566.26 227.888C1566.88 227.208 1567.44 226.528 1568.06 225.907C1575.31 218.664 1582.55 211.42 1589.77 204.177C1590.86 203.083 1591.98 202.226 1593.55 201.812C1603.75 199.151 1613.89 196.372 1624.09 193.652C1624.71 193.445 1625.42 193.356 1626.46 193.149ZM1624.3 259.257C1624.62 258.4 1624.83 257.956 1624.95 257.483C1627.46 248.2 1629.97 238.916 1632.4 229.633C1632.69 228.421 1632.61 227.001 1632.31 225.789C1629.97 216.772 1627.52 207.813 1625.1 198.826C1624.89 198.086 1624.53 197.406 1624.24 196.667C1623.23 196.904 1622.46 197.052 1621.67 197.259C1612.97 199.594 1604.28 201.959 1595.56 204.236C1593.82 204.679 1592.46 205.478 1591.18 206.749C1584.86 213.165 1578.47 219.521 1572.09 225.878C1571.46 226.499 1570.9 227.179 1570.31 227.829C1570.55 228.214 1570.67 228.509 1570.87 228.716C1577.94 235.812 1585.01 242.937 1592.16 249.974C1592.84 250.624 1593.85 251.068 1594.79 251.334C1599.17 252.575 1603.57 253.728 1607.98 254.911C1613.3 256.33 1618.68 257.749 1624.3 259.257Z" fill="#FADBC3"/>
<path fill-rule="evenodd" clip-rule="evenodd" d="M1483 14.456C1483.83 14.6038 1484.63 14.7221 1485.4 14.929C1495.48 17.6195 1505.56 20.3099 1515.62 23.0595C1516.65 23.3552 1517.8 23.7987 1518.54 24.5082C1526.67 32.55 1534.74 40.6509 1543.02 48.9292C1542.49 49.5796 1542.05 50.23 1541.51 50.7622C1534.06 58.2127 1526.64 65.6927 1519.13 73.1136C1518.31 73.9414 1517.21 74.6806 1516.12 75.0058C1505.18 78.0215 1494.24 80.9189 1483.03 83.9345C1482.74 83.1658 1482.41 82.4563 1482.21 81.7171C1479.46 71.5467 1476.71 61.3762 1474.02 51.2057C1473.72 50.0823 1473.57 48.7518 1473.87 47.6283C1476.65 36.9552 1479.55 26.3117 1482.41 15.6386C1482.5 15.2543 1482.74 14.929 1483 14.456ZM1539.12 49.3726C1538.65 48.6926 1538.5 48.4266 1538.26 48.2196C1531.26 41.183 1524.28 34.1465 1517.18 27.1986C1516.35 26.4004 1515.17 25.8682 1514.05 25.543C1505.18 23.0891 1496.28 20.7239 1487.38 18.3586C1486.55 18.1221 1485.67 18.063 1484.81 17.9447C1484.6 18.536 1484.42 18.8908 1484.31 19.3047C1481.76 28.6769 1479.22 38.0491 1476.8 47.4509C1476.5 48.6631 1476.62 50.0822 1476.91 51.2944C1479.22 60.1936 1481.64 69.0928 1484.04 77.9919C1484.25 78.7606 1484.57 79.4702 1484.87 80.3276C1485.49 80.2389 1485.99 80.2093 1486.46 80.091C1495.75 77.6075 1505.03 75.1536 1514.28 72.5815C1515.56 72.2267 1516.86 71.3988 1517.8 70.4527C1523.04 65.3675 1528.12 60.164 1533.3 55.0196C1535.19 53.0979 1537.11 51.2944 1539.12 49.3726Z" fill="#FADBC3"/>
<path fill-rule="evenodd" clip-rule="evenodd" d="M1638.02 103.95C1638.93 104.157 1639.7 104.276 1640.47 104.483C1650.55 107.173 1660.63 109.834 1670.69 112.583C1671.72 112.85 1672.87 113.323 1673.61 114.062C1681.77 122.103 1689.84 130.204 1698.03 138.424C1697.35 139.163 1696.76 139.843 1696.11 140.493C1688.87 147.737 1681.65 155.01 1674.38 162.165C1673.41 163.111 1672.13 163.968 1670.86 164.323C1660.52 167.191 1650.14 169.94 1639.76 172.719C1639.29 172.838 1638.78 172.956 1638.13 173.104C1637.87 172.572 1637.54 172.069 1637.4 171.507C1634.59 161.159 1631.81 150.782 1629.09 140.404C1628.79 139.281 1628.73 137.951 1629.03 136.857C1631.78 126.272 1634.65 115.717 1637.48 105.163C1637.57 104.837 1637.72 104.571 1638.02 103.95ZM1639.91 169.585C1640.56 169.467 1641.03 169.408 1641.5 169.29C1650.88 166.777 1660.28 164.323 1669.62 161.721C1670.8 161.396 1671.96 160.568 1672.87 159.681C1679.44 153.206 1685.91 146.672 1692.45 140.168C1692.98 139.636 1693.42 138.985 1693.98 138.335C1686.62 130.973 1679.41 123.73 1672.13 116.545C1671.4 115.806 1670.27 115.363 1669.24 115.097C1660.25 112.643 1651.26 110.248 1642.27 107.853C1641.53 107.646 1640.74 107.646 1639.97 107.528C1639.76 108.09 1639.55 108.444 1639.46 108.829C1636.92 118.201 1634.38 127.573 1631.96 136.975C1631.66 138.157 1631.84 139.577 1632.16 140.818C1634.38 149.333 1636.72 157.818 1638.99 166.333C1639.23 167.368 1639.55 168.403 1639.91 169.585Z" fill="#FADBC3"/>
<path fill-rule="evenodd" clip-rule="evenodd" d="M1482.89 193.208C1483.95 193.415 1484.75 193.533 1485.49 193.74C1495.48 196.401 1505.45 199.062 1515.41 201.812C1516.62 202.137 1517.92 202.728 1518.81 203.586C1526.67 211.332 1534.45 219.166 1542.28 227.001C1542.49 227.208 1542.67 227.474 1542.93 227.859C1542.43 228.45 1541.96 229.071 1541.4 229.633C1534.04 237.024 1526.67 244.415 1519.25 251.747C1518.28 252.694 1517.01 253.551 1515.7 253.906C1505.18 256.833 1494.59 259.612 1484.04 262.421C1483.74 262.509 1483.45 262.509 1482.92 262.568C1482.59 261.652 1482.24 260.735 1482 259.819C1479.34 249.944 1476.68 240.069 1474.11 230.194C1473.75 228.894 1473.66 227.356 1473.99 226.055C1476.68 215.678 1479.52 205.33 1482.3 194.952C1482.41 194.42 1482.62 193.977 1482.89 193.208ZM1484.87 259.109C1485.7 258.961 1486.38 258.873 1487.03 258.695C1496.01 256.301 1505 253.876 1514.02 251.511C1515.56 251.097 1516.77 250.387 1517.86 249.264C1524.28 242.789 1530.72 236.373 1537.17 229.928C1537.79 229.307 1538.35 228.598 1539 227.888C1538.56 227.356 1538.26 226.972 1537.91 226.617C1531.11 219.817 1524.34 212.987 1517.48 206.246C1516.53 205.33 1515.14 204.65 1513.84 204.295C1505.18 201.9 1496.46 199.594 1487.77 197.259C1486.82 197.022 1485.87 196.874 1484.9 196.697C1484.66 197.318 1484.48 197.672 1484.37 198.057C1481.82 207.429 1479.28 216.801 1476.86 226.203C1476.53 227.474 1476.71 229.012 1477.06 230.342C1479.31 239.064 1481.67 247.756 1484.04 256.448C1484.22 257.276 1484.54 258.134 1484.87 259.109Z" fill="#FADBC3"/>
<path fill-rule="evenodd" clip-rule="evenodd" d="M1793.09 262.628C1792.7 261.475 1792.32 260.47 1792.05 259.405C1789.45 249.708 1786.85 240.04 1784.34 230.342C1783.95 228.923 1783.83 227.297 1784.19 225.908C1786.85 215.619 1789.66 205.36 1792.44 195.101C1792.58 194.539 1792.82 193.977 1793.09 193.267C1793.94 193.415 1794.74 193.445 1795.48 193.652C1805.56 196.342 1815.65 199.033 1825.7 201.812C1826.82 202.108 1828.03 202.64 1828.86 203.438C1836.87 211.332 1844.77 219.315 1852.72 227.297C1852.87 227.416 1852.93 227.622 1853.1 227.948C1852.54 228.569 1851.95 229.278 1851.33 229.899C1844.03 237.202 1836.75 244.563 1829.36 251.807C1828.42 252.753 1827.12 253.581 1825.82 253.936C1815.47 256.774 1805.09 259.523 1794.71 262.273C1794.24 262.391 1793.77 262.48 1793.09 262.628ZM1794.95 259.08C1795.72 259.021 1796.01 259.021 1796.31 258.932C1805.68 256.419 1815.08 253.936 1824.43 251.334C1825.7 250.979 1827 250.181 1827.97 249.235C1834.42 242.937 1840.75 236.522 1847.1 230.136C1847.81 229.426 1848.46 228.687 1849.17 227.918C1848.82 227.445 1848.58 227.12 1848.31 226.824C1841.37 219.876 1834.45 212.899 1827.44 206.01C1826.55 205.153 1825.25 204.591 1824.04 204.266C1815.35 201.871 1806.66 199.565 1797.97 197.229C1797.02 196.993 1796.04 196.845 1795.07 196.638C1794.8 197.318 1794.59 197.761 1794.48 198.264C1791.96 207.548 1789.45 216.802 1787.06 226.115C1786.73 227.386 1786.91 228.923 1787.23 230.254C1789.24 238 1791.34 245.687 1793.41 253.403C1793.89 255.296 1794.39 257.129 1794.95 259.08Z" fill="#FADBC3"/>
<path fill-rule="evenodd" clip-rule="evenodd" d="M1793.15 14.4265C1794.09 14.6039 1794.8 14.6926 1795.45 14.87C1805.53 17.5604 1815.62 20.2509 1825.67 23.03C1826.79 23.3257 1828.03 23.8579 1828.83 24.6266C1836.84 32.5205 1844.77 40.5031 1852.69 48.4858C1852.84 48.6336 1852.9 48.811 1853.07 49.1066C1852.57 49.6684 1852.1 50.2893 1851.54 50.851C1844.15 58.2423 1836.81 65.6337 1829.36 72.9659C1828.39 73.912 1827.12 74.7398 1825.82 75.0946C1815.47 77.9328 1805.09 80.6824 1794.71 83.432C1794.24 83.5503 1793.77 83.6685 1793.12 83.8164C1792.82 82.959 1792.52 82.2494 1792.32 81.4807C1789.6 71.3989 1786.88 61.3467 1784.25 51.2649C1783.92 50.0527 1783.77 48.6041 1784.1 47.4214C1786.85 36.837 1789.72 26.2822 1792.58 15.7274C1792.64 15.343 1792.88 15.0178 1793.15 14.4265ZM1794.92 80.3572C1795.78 80.2094 1796.28 80.1502 1796.78 80.0024C1805.98 77.5485 1815.17 75.1241 1824.31 72.5815C1825.61 72.2267 1826.91 71.4581 1827.89 70.512C1834.54 63.978 1841.1 57.385 1847.66 50.7919C1848.2 50.2597 1848.64 49.6093 1849.2 48.8997C1841.75 41.4492 1834.48 34.1466 1827.12 26.9031C1826.38 26.1935 1825.19 25.8092 1824.16 25.5135C1815.56 23.1779 1806.98 20.9013 1798.35 18.5952C1797.31 18.3292 1796.25 18.0926 1795.13 17.8265C1794.89 18.3883 1794.68 18.743 1794.59 19.1274C1792.02 28.6179 1789.45 38.0788 1787 47.5692C1786.7 48.7518 1786.88 50.2006 1787.17 51.4127C1788.77 57.6806 1790.51 63.9189 1792.2 70.1867C1793.09 73.4389 1793.94 76.7502 1794.92 80.3572Z" fill="#FADBC3"/>
<path fill-rule="evenodd" clip-rule="evenodd" d="M1471.12 173.133C1468.4 172.394 1465.8 171.714 1463.17 171.005C1455.04 168.846 1446.91 166.688 1438.81 164.471C1437.59 164.145 1436.26 163.584 1435.38 162.726C1427.51 154.98 1419.71 147.145 1411.9 139.31C1411.69 139.104 1411.55 138.837 1411.22 138.394C1411.66 137.921 1412.08 137.418 1412.58 136.945C1419.97 129.554 1427.3 122.163 1434.75 114.83C1435.73 113.884 1437 112.997 1438.27 112.643C1448.71 109.745 1459.21 106.996 1469.67 104.187C1470.06 104.069 1470.47 104.039 1471.06 103.95C1471.33 104.542 1471.68 105.133 1471.86 105.783C1474.64 116.043 1477.42 126.302 1480.11 136.591C1480.4 137.714 1480.46 139.044 1480.17 140.138C1477.42 150.634 1474.61 161.071 1471.8 171.537C1471.65 172.01 1471.42 172.453 1471.12 173.133ZM1469.38 107.38C1468.52 107.498 1468.02 107.528 1467.54 107.676C1458.26 110.159 1448.98 112.613 1439.69 115.185C1438.42 115.54 1437.18 116.427 1436.2 117.403C1429.79 123.73 1423.43 130.116 1417.07 136.502C1416.45 137.123 1415.89 137.803 1415.24 138.483C1415.6 138.926 1415.83 139.251 1416.1 139.547C1422.96 146.436 1429.82 153.324 1436.74 160.154C1437.56 160.952 1438.72 161.544 1439.84 161.839C1448.71 164.293 1457.61 166.659 1466.51 169.053C1467.37 169.29 1468.22 169.408 1469.23 169.615C1469.46 168.994 1469.67 168.551 1469.79 168.078C1472.3 158.794 1474.82 149.54 1477.24 140.227C1477.57 139.015 1477.42 137.625 1477.12 136.384C1476.21 132.54 1475.11 128.756 1474.08 124.942C1472.54 119.147 1471 113.411 1469.38 107.38Z" fill="#FADBC3"/>
<path fill-rule="evenodd" clip-rule="evenodd" d="M1721.36 138.394C1729.58 130.175 1737.59 122.133 1745.63 114.15C1746.31 113.47 1747.29 112.938 1748.21 112.672C1758.85 109.775 1769.52 106.937 1780.2 104.098C1780.49 104.01 1780.79 104.039 1781.29 104.01C1781.53 104.601 1781.88 105.192 1782.06 105.843C1784.84 116.102 1787.62 126.361 1790.31 136.65C1790.57 137.685 1790.69 138.897 1790.43 139.932C1787.62 150.605 1784.75 161.248 1781.88 171.921C1781.79 172.276 1781.53 172.601 1781.23 173.133C1776.97 172.01 1772.81 170.886 1768.61 169.763C1761.95 167.989 1755.27 166.245 1748.65 164.382C1747.44 164.057 1746.2 163.377 1745.31 162.519C1737.65 154.98 1730.08 147.352 1722.48 139.754C1722.16 139.37 1721.86 138.985 1721.36 138.394ZM1779.58 107.41C1778.75 107.528 1778.25 107.557 1777.77 107.676C1768.49 110.159 1759.2 112.584 1749.92 115.185C1748.65 115.54 1747.38 116.427 1746.43 117.373C1740.02 123.7 1733.66 130.086 1727.3 136.472C1726.68 137.093 1726.09 137.773 1725.47 138.453C1725.83 138.867 1726.03 139.222 1726.33 139.488C1733.19 146.377 1740.05 153.265 1746.96 160.066C1747.85 160.923 1749.15 161.514 1750.36 161.869C1759.15 164.293 1767.93 166.629 1776.74 168.994C1777.59 169.231 1778.48 169.349 1779.49 169.586C1779.81 168.61 1780.11 167.753 1780.34 166.895C1781.94 160.952 1783.57 154.98 1785.16 149.008C1786.11 145.49 1787.68 141.972 1787.68 138.424C1787.68 134.905 1786.08 131.358 1785.13 127.839C1783.27 121.128 1781.44 114.387 1779.58 107.41Z" fill="#FADBC3"/>
<path fill-rule="evenodd" clip-rule="evenodd" d="M1659.1 198.589C1663.97 197.259 1668.65 195.987 1673.32 194.716C1677.52 193.593 1681.71 192.44 1685.94 191.375C1687.57 190.961 1688.87 190.193 1690.05 188.98C1695.67 183.274 1701.35 177.657 1706.99 171.98C1707.76 171.182 1708.38 170.236 1709.3 169.083C1710.42 170.118 1711.16 170.739 1711.84 171.419C1717.67 177.213 1723.49 182.979 1729.23 188.833C1730.56 190.193 1732.03 191.02 1733.87 191.494C1741.61 193.504 1749.3 195.603 1757.05 197.673C1758.02 197.939 1758.97 198.234 1760.24 198.589C1760.06 199.506 1759.97 200.393 1759.77 201.22C1757.61 209.351 1755.48 217.481 1753.23 225.582C1752.79 227.208 1752.82 228.716 1753.26 230.342C1755.48 238.443 1757.61 246.574 1759.8 254.704C1759.97 255.384 1760.12 256.064 1760.33 257.069C1759.47 257.365 1758.67 257.72 1757.84 257.956C1749.83 260.115 1741.82 262.332 1733.78 264.402C1731.92 264.875 1730.5 265.762 1729.17 267.092C1722.84 273.508 1716.45 279.864 1709.83 286.487C1709.03 285.748 1708.32 285.127 1707.64 284.447C1701.76 278.593 1695.88 272.739 1690.02 266.826C1688.84 265.643 1687.54 264.904 1685.91 264.461C1677.78 262.332 1669.68 260.144 1661.55 257.956C1660.87 257.779 1660.19 257.543 1659.24 257.247C1659.39 256.36 1659.51 255.503 1659.72 254.675C1661.88 246.544 1664 238.414 1666.25 230.313C1666.69 228.687 1666.67 227.179 1666.22 225.553C1664.03 217.541 1661.91 209.528 1659.78 201.487C1659.48 200.57 1659.33 199.683 1659.1 198.589ZM1662.56 255.089C1663.71 255.443 1664.63 255.798 1665.6 256.035C1672.73 257.956 1679.88 259.908 1687.04 261.741C1688.87 262.214 1690.35 263.042 1691.65 264.402C1696.91 269.753 1702.23 275.016 1707.52 280.308C1708.2 280.988 1708.97 281.609 1709.77 282.318C1710.72 281.431 1711.46 280.751 1712.17 280.042C1717.4 274.809 1722.66 269.605 1727.84 264.343C1729.08 263.071 1730.47 262.243 1732.18 261.8C1739.34 259.937 1746.46 258.015 1753.62 256.094C1754.65 255.828 1755.69 255.502 1756.9 255.148C1756.6 253.847 1756.4 252.871 1756.13 251.925C1754.21 244.682 1752.32 237.438 1750.34 230.224C1749.89 228.598 1749.92 227.09 1750.36 225.464C1752.35 218.25 1754.27 211.007 1756.16 203.763C1756.43 202.817 1756.6 201.841 1756.84 200.718C1756.01 200.422 1755.39 200.156 1754.74 199.979C1747.41 197.998 1740.11 195.958 1732.74 194.095C1730.59 193.563 1728.9 192.528 1727.36 190.961C1722.34 185.817 1717.22 180.761 1712.14 175.676C1711.37 174.907 1710.54 174.227 1709.21 173.015C1708.38 174.139 1707.79 175.144 1707.02 175.913C1701.91 181.087 1696.7 186.201 1691.59 191.434C1690.32 192.706 1688.96 193.504 1687.21 193.947C1679.67 195.928 1672.16 197.968 1664.63 200.008C1663.97 200.186 1663.35 200.481 1662.56 200.777C1662.82 201.901 1663.03 202.876 1663.27 203.822C1665.19 211.066 1667.08 218.309 1669.09 225.523C1669.53 227.149 1669.53 228.628 1669.06 230.283C1667.05 237.497 1665.16 244.741 1663.27 251.984C1663.03 252.96 1662.82 253.936 1662.56 255.089Z" fill="#FADBC3"/>
<path fill-rule="evenodd" clip-rule="evenodd" d="M1659.07 19.7482C1668.03 17.3534 1676.48 15.0177 1685.03 12.8299C1687.27 12.2682 1689.05 11.2334 1690.67 9.57774C1696.17 3.93076 1701.82 -1.62755 1707.41 -7.2154C1708.12 -7.92497 1708.86 -8.57541 1709.71 -9.34411C1710.57 -8.54584 1711.34 -7.8954 1712.02 -7.2154C1717.75 -1.47972 1723.52 4.19685 1729.2 9.99166C1730.53 11.3517 1732.01 12.1795 1733.81 12.6525C1741.64 14.6925 1749.48 16.7917 1757.28 18.8908C1758.23 19.1569 1759.18 19.4821 1760.3 19.8369C1760.06 20.8717 1759.89 21.7586 1759.65 22.616C1757.52 30.6282 1755.42 38.6701 1753.2 46.6823C1752.76 48.3084 1752.76 49.8162 1753.2 51.4422C1755.39 59.4545 1757.52 67.4667 1759.65 75.5085C1759.89 76.3659 1760.03 77.2232 1760.27 78.2876C1759.15 78.6424 1758.2 78.9381 1757.25 79.2042C1749.33 81.3329 1741.44 83.5207 1733.48 85.5607C1731.83 85.9746 1730.56 86.7433 1729.37 87.9259C1723.61 93.7503 1717.78 99.5451 1711.99 105.34C1711.28 106.049 1710.54 106.7 1709.68 107.469C1708.83 106.67 1708.09 106.02 1707.38 105.31C1701.58 99.5155 1695.76 93.7207 1689.99 87.8963C1688.81 86.7137 1687.54 85.945 1685.88 85.5311C1677.93 83.4616 1670.04 81.3033 1662.11 79.1745C1661.17 78.9085 1660.22 78.5832 1659.1 78.258C1659.33 77.1937 1659.48 76.3363 1659.72 75.4789C1661.85 67.4667 1663.95 59.4249 1666.16 51.4127C1666.61 49.7866 1666.61 48.2788 1666.16 46.6527C1663.98 38.6405 1661.85 30.6282 1659.72 22.5865C1659.51 21.7586 1659.33 20.9013 1659.07 19.7482ZM1756.9 21.8474C1755.92 21.5517 1755.36 21.3448 1754.8 21.1674C1747.29 19.1569 1739.75 17.0873 1732.21 15.136C1730.5 14.6925 1729.11 13.9238 1727.84 12.623C1722.66 7.33077 1717.4 2.12728 1712.17 -3.07622C1711.4 -3.84492 1710.57 -4.55449 1709.68 -5.38232C1708.77 -4.49536 1708 -3.84494 1707.29 -3.13537C1702.06 2.0977 1696.79 7.27163 1691.62 12.5638C1690.29 13.9238 1688.81 14.7221 1686.98 15.1951C1680.03 16.9691 1673.08 18.8612 1666.16 20.7238C1665.01 21.0491 1663.89 21.4334 1662.56 21.8178C1662.82 22.9708 1663 23.9465 1663.27 24.9222C1665.16 32.077 1667.02 39.2318 1669 46.3274C1669.5 48.1605 1669.56 49.8162 1669.03 51.6492C1667.02 58.8632 1665.13 66.1067 1663.21 73.3502C1662.97 74.2963 1662.82 75.2424 1662.62 76.3067C1663.86 76.6911 1664.83 76.9867 1665.78 77.2528C1672.9 79.1746 1680.06 81.1259 1687.21 82.9589C1688.96 83.4024 1690.32 84.2007 1691.56 85.5015C1696.82 90.8529 1702.14 96.1155 1707.44 101.408C1708.12 102.088 1708.89 102.738 1709.71 103.477C1710.6 102.649 1711.34 101.969 1712.05 101.26C1717.28 96.0268 1722.54 90.8233 1727.72 85.5607C1729.05 84.2007 1730.5 83.3729 1732.33 82.8998C1739.49 81.0668 1746.61 79.1154 1753.77 77.1937C1754.71 76.9276 1755.66 76.6024 1756.81 76.2476C1756.54 75.0946 1756.34 74.1189 1756.07 73.1728C1754.15 65.9293 1752.26 58.6858 1750.28 51.4718C1749.83 49.8457 1749.8 48.3675 1750.25 46.7118C1752.11 39.9709 1753.88 33.23 1755.69 26.4891C1756.13 25.0404 1756.46 23.5917 1756.9 21.8474Z" fill="#FADBC3"/>
<path fill-rule="evenodd" clip-rule="evenodd" d="M1865.11 18.3294C1863.78 17.0876 1862.98 16.3485 1862.21 15.5798C1856.62 9.99197 1850.98 4.46322 1845.48 -1.21333C1844 -2.72115 1842.34 -3.63768 1840.33 -4.16986C1832.59 -6.18031 1824.87 -8.27943 1817.15 -10.349C1816.3 -10.5855 1815.44 -10.8516 1814.29 -11.2064C1814.46 -12.1229 1814.55 -12.9803 1814.76 -13.8081C1816.89 -21.8204 1818.99 -29.8621 1821.2 -37.8743C1821.68 -39.6187 1821.65 -41.1857 1821.17 -42.9005C1819.02 -50.7057 1816.98 -58.5405 1814.88 -66.3754C1814.61 -67.3214 1814.43 -68.2971 1814.17 -69.4797C1817.03 -70.2484 1819.64 -70.9876 1822.27 -71.6971C1828.42 -73.3528 1834.57 -75.038 1840.75 -76.605C1842.58 -77.078 1844.03 -77.965 1845.36 -79.2954C1850.98 -85.0015 1856.65 -90.6189 1862.3 -96.2955C1863.01 -97.0051 1863.57 -97.892 1864.4 -98.9564C1865.49 -97.9512 1866.23 -97.3007 1866.91 -96.6207C1872.71 -90.8259 1878.56 -85.0607 1884.3 -79.2067C1885.63 -77.8467 1887.13 -77.0484 1888.94 -76.5754C1896.57 -74.565 1904.19 -72.525 1911.82 -70.4849C1912.89 -70.1893 1913.95 -69.8936 1915.31 -69.4797C1915.13 -68.5336 1915.04 -67.6762 1914.84 -66.8484C1912.68 -58.7179 1910.55 -50.5875 1908.3 -42.4865C1907.89 -40.9491 1907.92 -39.5596 1908.33 -38.0517C1910.49 -30.1282 1912.59 -22.2047 1914.69 -14.2812C1914.96 -13.3351 1915.16 -12.3595 1915.43 -11.1768C1912.09 -10.2603 1908.98 -9.40292 1905.88 -8.54552C1900.11 -6.97856 1894.35 -5.38204 1888.58 -3.93334C1886.93 -3.51942 1885.66 -2.72117 1884.47 -1.53855C1878.86 4.138 1873.15 9.78498 1867.53 15.4615C1866.73 16.2302 1866.08 17.1468 1865.11 18.3294ZM1911.94 -13.1577C1911.61 -14.5473 1911.44 -15.5229 1911.17 -16.469C1909.28 -23.6238 1907.42 -30.7787 1905.44 -37.9039C1904.99 -39.53 1904.96 -41.0083 1905.41 -42.6639C1907.45 -49.9961 1909.37 -57.3284 1911.29 -64.6902C1911.53 -65.5476 1911.61 -66.4345 1911.82 -67.4693C1910.67 -67.8241 1909.72 -68.1197 1908.78 -68.3858C1901.65 -70.3076 1894.53 -72.2884 1887.34 -74.1215C1885.48 -74.5945 1884.06 -75.4815 1882.73 -76.8415C1877.61 -82.045 1872.44 -87.1894 1867.27 -92.3337C1866.5 -93.1024 1865.67 -93.812 1864.75 -94.6694C1863.84 -93.812 1863.1 -93.1616 1862.39 -92.452C1857.16 -87.219 1851.89 -82.0154 1846.72 -76.7528C1845.39 -75.3928 1843.94 -74.5945 1842.08 -74.1215C1834.71 -72.2293 1827.38 -70.2189 1820.05 -68.238C1819.28 -68.031 1818.57 -67.7058 1817.63 -67.3806C1817.86 -66.2571 1818.07 -65.2814 1818.31 -64.3353C1820.23 -57.0918 1822.12 -49.8483 1824.13 -42.6048C1824.54 -41.0674 1824.54 -39.6778 1824.13 -38.1404C1822.12 -30.8082 1820.17 -23.476 1818.25 -16.1142C1818.01 -15.1977 1817.89 -14.222 1817.69 -13.1873C1819.1 -12.7733 1820.17 -12.4777 1821.23 -12.182C1828.27 -10.2899 1835.31 -8.3977 1842.37 -6.56464C1844 -6.15073 1845.3 -5.41159 1846.48 -4.19941C1851.8 1.21105 1857.21 6.5624 1862.6 11.9433C1863.28 12.6233 1864.04 13.2442 1864.87 14.0129C1868.6 10.2876 1872.09 6.76933 1875.6 3.28062C1878.62 0.264957 1881.22 -3.46029 1884.8 -5.50029C1888.46 -7.59944 1893.05 -8.07247 1897.25 -9.22552C1902.04 -10.4968 1906.82 -11.7681 1911.94 -13.1577Z" fill="#FADBC3"/>
<path fill-rule="evenodd" clip-rule="evenodd" d="M1605.26 -69.4206C1604.84 -67.7649 1604.55 -66.405 1604.16 -65.0449C1602.24 -57.9197 1600.41 -50.7649 1598.37 -43.6396C1597.69 -41.304 1597.75 -39.1457 1598.43 -36.8396C1600.53 -29.33 1602.51 -21.7908 1604.52 -14.2517C1604.76 -13.3056 1604.96 -12.3299 1605.23 -11.1769C1601.98 -10.2899 1598.96 -9.43252 1595.94 -8.63426C1590.27 -7.12643 1584.62 -5.55946 1578.92 -4.14032C1576.99 -3.63771 1575.43 -2.78032 1574.01 -1.33162C1568.48 4.31536 1562.83 9.84406 1557.27 15.4615C1556.5 16.2597 1555.94 17.265 1555.09 18.3885C1553.76 17.1763 1552.96 16.4667 1552.19 15.7276C1546.75 10.2876 1541.25 4.90668 1535.9 -0.622041C1534.06 -2.51422 1532.05 -3.69687 1529.51 -4.34731C1521.85 -6.26905 1514.26 -8.39775 1506.63 -10.4378C1505.86 -10.6447 1505.09 -10.9108 1504.14 -11.2064C1504.26 -12.0638 1504.32 -12.8325 1504.5 -13.5717C1506.66 -21.7022 1508.79 -29.8326 1511.03 -37.9335C1511.48 -39.5596 1511.51 -41.0379 1511.06 -42.664C1508.87 -50.5579 1506.81 -58.511 1504.71 -66.4345C1504.44 -67.3806 1504.26 -68.3563 1504 -69.5093C1509.05 -70.8693 1513.81 -72.1702 1518.6 -73.4711C1522.59 -74.5355 1526.61 -75.6293 1530.63 -76.6641C1532.35 -77.1076 1533.74 -77.8763 1535.01 -79.1772C1540.69 -84.972 1546.45 -90.6485 1552.16 -96.4138C1552.87 -97.1234 1553.4 -98.0399 1554.17 -99.0451C1555.35 -97.9807 1556.09 -97.3599 1556.77 -96.6799C1562.51 -90.9442 1568.27 -85.2677 1573.92 -79.4729C1575.4 -77.9355 1577.08 -77.1076 1579.06 -76.5754C1586.72 -74.5945 1594.32 -72.525 1601.95 -70.4554C1602.92 -70.1598 1603.9 -69.8345 1605.26 -69.4206ZM1601.74 -13.1873C1601.47 -14.3699 1601.3 -15.3456 1601.03 -16.2917C1599.11 -23.5352 1597.22 -30.8083 1595.24 -38.0222C1594.76 -39.6483 1594.82 -41.1266 1595.26 -42.7526C1597.25 -49.9666 1599.17 -57.2397 1601.06 -64.4832C1601.33 -65.4293 1601.44 -66.3754 1601.65 -67.4397C1600.5 -67.7945 1599.64 -68.0606 1598.75 -68.2972C1591.51 -70.2485 1584.3 -72.2293 1577.02 -74.1215C1575.28 -74.565 1573.92 -75.3928 1572.65 -76.6641C1567.47 -81.9563 1562.21 -87.1598 1556.98 -92.3633C1556.21 -93.132 1555.41 -93.812 1553.96 -95.1425C1553.16 -93.9894 1552.63 -92.9546 1551.86 -92.1564C1546.66 -86.8937 1541.4 -81.6903 1536.19 -76.4276C1535.07 -75.3041 1533.86 -74.5946 1532.32 -74.2102C1524.87 -72.2589 1517.45 -70.2485 1510 -68.238C1509.14 -68.0015 1508.34 -67.6763 1507.37 -67.3215C1507.66 -66.1093 1507.87 -65.1336 1508.14 -64.158C1510.06 -56.9145 1512.04 -49.671 1513.87 -42.4275C1514.2 -41.1266 1514.23 -39.5892 1513.9 -38.3179C1512.04 -30.9561 1510.03 -23.6239 1508.08 -16.2917C1507.84 -15.3456 1507.63 -14.37 1507.4 -13.2761C1508.61 -12.8917 1509.55 -12.5665 1510.53 -12.3004C1517.57 -10.4082 1524.6 -8.48644 1531.67 -6.68295C1533.59 -6.18034 1535.16 -5.32294 1536.55 -3.9038C1541.72 1.3884 1546.98 6.59188 1552.22 11.8249C1552.93 12.5345 1553.67 13.1554 1554.52 13.9537C1555.38 13.1554 1556.12 12.505 1556.83 11.7954C1562.06 6.56233 1567.33 1.35884 1572.5 -3.9038C1573.83 -5.2638 1575.28 -6.12123 1577.11 -6.62384C1584.18 -8.42733 1591.21 -10.3491 1598.25 -12.2412C1599.4 -12.4778 1600.44 -12.803 1601.74 -13.1873Z" fill="#FADBC3"/>
<path fill-rule="evenodd" clip-rule="evenodd" d="M1814.14 167.575C1814.43 166.363 1814.64 165.387 1814.91 164.441C1817.01 156.518 1819.1 148.594 1821.26 140.671C1821.68 139.133 1821.65 137.744 1821.23 136.236C1819.07 128.342 1816.98 120.389 1814.88 112.465C1814.61 111.519 1814.43 110.544 1814.17 109.361C1815.44 109.006 1816.5 108.681 1817.54 108.385C1825.25 106.316 1832.97 104.217 1840.72 102.206C1842.55 101.733 1844 100.876 1845.33 99.5157C1851.01 93.7209 1856.77 88.0444 1862.51 82.3087C1863.22 81.5991 1863.95 80.9782 1864.81 80.18C1865.67 80.9782 1866.41 81.6287 1867.12 82.3383C1872.85 88.074 1878.62 93.7505 1884.3 99.5453C1885.63 100.905 1887.1 101.733 1888.91 102.206C1896.65 104.217 1904.37 106.316 1912.09 108.385C1913.06 108.651 1914.01 108.947 1915.31 109.302C1915.16 110.218 1915.07 111.076 1914.84 111.904C1912.68 120.034 1910.55 128.165 1908.3 136.265C1907.89 137.803 1907.89 139.192 1908.3 140.7C1910.46 148.624 1912.56 156.547 1914.66 164.471C1914.93 165.417 1915.13 166.393 1915.4 167.516C1914.22 167.871 1913.27 168.196 1912.32 168.462C1904.4 170.591 1896.51 172.779 1888.55 174.819C1886.9 175.233 1885.63 176.001 1884.44 177.184C1878.74 182.949 1873 188.655 1867.27 194.391C1866.5 195.16 1865.67 195.869 1864.75 196.756C1863.81 195.869 1862.98 195.13 1862.21 194.361C1856.47 188.626 1850.74 182.92 1845.03 177.154C1843.85 175.942 1842.55 175.233 1840.92 174.789C1833 172.719 1825.08 170.561 1817.15 168.433C1816.3 168.226 1815.44 167.96 1814.14 167.575ZM1817.66 165.565C1818.84 165.949 1819.75 166.274 1820.7 166.54C1827.74 168.433 1834.77 170.354 1841.84 172.158C1843.88 172.66 1845.51 173.636 1846.95 175.144C1852.13 180.436 1857.39 185.64 1862.62 190.873C1863.3 191.553 1864.04 192.173 1865.17 193.208C1866.05 192.055 1866.67 191.109 1867.47 190.311C1872.62 185.137 1877.82 180.022 1882.94 174.789C1884.21 173.488 1885.6 172.719 1887.31 172.276C1891.33 171.271 1895.35 170.177 1899.34 169.083C1903.42 167.989 1907.53 166.866 1911.91 165.683C1911.64 164.53 1911.47 163.554 1911.23 162.608C1909.28 155.276 1907.27 147.944 1905.41 140.582C1905.08 139.281 1905.08 137.744 1905.41 136.472C1907.27 129.111 1909.28 121.778 1911.23 114.446C1911.47 113.5 1911.61 112.524 1911.85 111.431C1910.64 111.076 1909.69 110.751 1908.72 110.514C1901.59 108.592 1894.44 106.611 1887.28 104.778C1885.54 104.335 1884.15 103.566 1882.91 102.265C1877.64 96.914 1872.32 91.6218 1867 86.3296C1866.32 85.6496 1865.55 84.9992 1864.66 84.2305C1863.69 85.1766 1862.92 85.9157 1862.12 86.7139C1856.95 91.8583 1851.77 97.0027 1846.66 102.206C1845.42 103.478 1844.06 104.305 1842.31 104.749C1834.86 106.671 1827.44 108.711 1820.02 110.721C1819.25 110.928 1818.54 111.253 1817.66 111.608C1817.92 112.731 1818.13 113.707 1818.37 114.683C1820.17 121.424 1821.91 128.224 1823.83 134.935C1824.57 137.478 1824.51 139.813 1823.81 142.356C1821.88 149.067 1820.14 155.838 1818.34 162.608C1818.1 163.436 1817.89 164.412 1817.66 165.565Z" fill="#FADBC3"/>
<path fill-rule="evenodd" clip-rule="evenodd" d="M1504 109.302C1510.68 107.498 1517.01 105.813 1523.36 104.069C1526.58 103.211 1530.13 102.856 1532.91 101.26C1535.69 99.6634 1537.79 96.766 1540.18 94.4303C1544.21 90.439 1548.2 86.4181 1552.22 82.3972C1552.93 81.6876 1553.67 81.0076 1554.55 80.1798C1555.38 80.9189 1556.12 81.5399 1556.83 82.2494C1562.65 88.0442 1568.48 93.8095 1574.21 99.6634C1575.49 100.964 1576.88 101.733 1578.59 102.176C1586.34 104.216 1594.05 106.286 1601.77 108.356C1602.83 108.651 1603.9 108.947 1605.23 109.331C1604.96 110.455 1604.78 111.43 1604.52 112.376C1602.42 120.3 1600.35 128.224 1598.16 136.147C1597.72 137.773 1597.75 139.251 1598.19 140.877C1600.38 148.771 1602.45 156.725 1604.55 164.648C1604.78 165.505 1604.96 166.392 1605.23 167.516C1604.16 167.841 1603.22 168.196 1602.27 168.432C1594.35 170.561 1586.45 172.749 1578.5 174.789C1576.76 175.232 1575.4 176.06 1574.16 177.332C1568.54 183.038 1562.86 188.655 1557.18 194.332C1556.42 195.1 1555.62 195.869 1554.64 196.815C1553.73 195.958 1552.9 195.248 1552.13 194.479C1546.45 188.832 1540.78 183.215 1535.16 177.479C1533.74 176.031 1532.2 175.173 1530.28 174.671C1522.53 172.66 1514.85 170.561 1507.1 168.492C1506.13 168.225 1505.21 167.93 1504 167.545C1504.23 166.451 1504.41 165.476 1504.68 164.53C1506.63 157.198 1508.49 149.836 1510.62 142.533C1511.45 139.695 1511.39 137.064 1510.59 134.255C1508.46 126.864 1506.57 119.413 1504.59 111.963C1504.38 111.223 1504.23 110.425 1504 109.302ZM1601.77 165.653C1601.44 164.264 1601.27 163.288 1601 162.342C1599.11 155.187 1597.25 148.032 1595.26 140.907C1594.82 139.281 1594.76 137.803 1595.24 136.177C1597.28 128.844 1599.2 121.512 1601.12 114.15C1601.36 113.293 1601.44 112.436 1601.62 111.371C1600.47 111.016 1599.52 110.721 1598.58 110.455C1591.45 108.533 1584.33 106.552 1577.14 104.719C1575.28 104.246 1573.86 103.359 1572.53 102.029C1567.41 96.8251 1562.24 91.6808 1557.07 86.5364C1556.3 85.7677 1555.47 85.0581 1554.55 84.2007C1553.67 85.0581 1552.9 85.7085 1552.19 86.4181C1546.96 91.6512 1541.69 96.8547 1536.52 102.117C1535.19 103.477 1533.71 104.276 1531.88 104.749C1524.51 106.641 1517.21 108.651 1509.85 110.632C1509.11 110.839 1508.37 111.164 1507.46 111.49C1507.72 112.613 1507.9 113.589 1508.14 114.535C1510.06 121.778 1511.95 129.022 1513.96 136.265C1514.37 137.803 1514.37 139.192 1513.96 140.73C1511.95 148.062 1510 155.394 1508.05 162.756C1507.81 163.672 1507.69 164.648 1507.49 165.683C1508.9 166.067 1509.94 166.392 1511.03 166.688C1518.07 168.58 1525.11 170.472 1532.17 172.305C1533.8 172.719 1535.1 173.458 1536.28 174.671C1541.6 180.081 1547.01 185.432 1552.4 190.813C1553.08 191.493 1553.84 192.114 1554.67 192.883C1558.4 189.158 1561.89 185.639 1565.4 182.151C1568.51 179.076 1571.2 175.321 1574.86 173.222C1578.41 171.152 1582.97 170.798 1587.08 169.674C1591.86 168.344 1596.65 167.043 1601.77 165.653Z" fill="#FADBC3"/>
<path fill-rule="evenodd" clip-rule="evenodd" d="M1615.22 64.6874C1610.11 63.3274 1605.32 62.056 1600.53 60.7552C1600.05 60.6369 1599.55 60.3708 1599.23 60.0456C1595.65 56.4978 1592.07 52.9204 1588.29 49.1064C1590.39 46.9777 1592.52 45.1151 1594.32 42.9569C1597.63 38.9655 1601.68 36.5412 1606.83 35.6838C1609.6 35.2403 1612.29 34.2647 1615.28 33.4664C1615.93 35.8317 1616.61 38.049 1617.2 40.2664C1617.97 43.1934 1619.33 46.1499 1619.33 49.0769C1619.33 52.0334 1618 54.9604 1617.2 57.8873C1616.58 60.1343 1615.9 62.3221 1615.22 64.6874ZM1613.33 36.8664C1609.25 37.9603 1605.55 38.9655 1601.86 40.0003C1601.3 40.1482 1600.76 40.5325 1600.35 40.9464C1597.66 43.5482 1595.03 46.1795 1592.16 49.0178C1595.21 52.0334 1598.04 54.9012 1600.91 57.7395C1601.03 57.8873 1601.24 58.0056 1601.41 58.0647C1605.29 59.1291 1609.16 60.1639 1613.33 61.3169C1614.45 57.2073 1615.46 53.423 1616.46 49.609C1616.55 49.2247 1616.52 48.7812 1616.43 48.4265C1615.46 44.6717 1614.45 40.976 1613.33 36.8664Z" fill="#FADBC3"/>
<path fill-rule="evenodd" clip-rule="evenodd" d="M1898.55 48.9291C1902.15 45.3221 1905.64 41.8039 1909.19 38.3152C1909.66 37.8421 1910.34 37.4873 1911.02 37.3099C1915.69 36.009 1920.4 34.7969 1925.27 33.496C1925.6 34.2943 1925.92 35.0038 1926.13 35.7725C1927.31 40.1778 1929.38 44.583 1929.38 48.9883C1929.38 53.3935 1927.34 57.7988 1926.16 62.204C1925.98 62.884 1925.72 63.5344 1925.45 64.4214C1924.65 64.3031 1923.85 64.244 1923.15 64.0666C1919.42 63.0909 1915.69 62.0561 1911.97 61.11C1910.55 60.7553 1909.4 60.1344 1908.36 59.0405C1905.7 56.2613 1902.92 53.6004 1900.2 50.8508C1899.67 50.3187 1899.2 49.6682 1898.55 48.9291ZM1923.5 36.8664C1919.42 37.9899 1915.64 38.9952 1911.85 40.0595C1911.56 40.1482 1911.26 40.2665 1911.05 40.4734C1908.19 43.2821 1905.35 46.1204 1902.09 49.3726C1903.66 50.7326 1905.17 51.6787 1906.23 53.0091C1909.37 56.8822 1913.3 59.1883 1918.24 59.9274C1919.98 60.164 1921.7 60.7257 1923.56 61.1987C1924.62 57.2074 1925.63 53.6005 1926.57 49.9935C1926.69 49.6091 1926.78 49.1656 1926.69 48.8108C1925.69 44.8786 1924.62 41.0056 1923.5 36.8664Z" fill="#FADBC3"/>
<path fill-rule="evenodd" clip-rule="evenodd" d="M1898.4 227.918C1902.18 224.133 1905.67 220.615 1909.22 217.126C1909.69 216.653 1910.37 216.299 1911.05 216.121C1915.72 214.85 1920.42 213.608 1925.42 212.278C1925.95 214.199 1926.49 216.003 1926.99 217.836C1927.88 221.147 1929.44 224.488 1929.44 227.829C1929.44 231.17 1927.9 234.481 1927.02 237.822C1926.54 239.567 1926.07 241.311 1925.54 243.233C1924.74 243.144 1924.03 243.144 1923.41 242.967C1919.6 241.961 1915.78 240.897 1911.94 239.921C1910.52 239.566 1909.37 238.916 1908.33 237.852C1905.17 234.6 1901.92 231.406 1898.4 227.918ZM1923.5 215.678C1919.42 216.772 1915.72 217.747 1912.03 218.782C1911.47 218.93 1910.93 219.314 1910.52 219.728C1907.83 222.33 1905.2 224.991 1902.3 227.829C1905.32 230.815 1908.16 233.683 1911.02 236.521C1911.23 236.728 1911.53 236.876 1911.82 236.965C1915.61 238 1919.39 239.005 1923.47 240.099C1924.59 235.989 1925.63 232.205 1926.6 228.42C1926.69 228.036 1926.66 227.593 1926.57 227.238C1925.63 223.513 1924.62 219.817 1923.5 215.678Z" fill="#FADBC3"/>
<path fill-rule="evenodd" clip-rule="evenodd" d="M1588.17 227.8C1591.92 224.104 1595.35 220.674 1598.84 217.274C1599.35 216.801 1599.97 216.358 1600.62 216.181C1605.38 214.85 1610.17 213.608 1615.22 212.248C1615.84 214.407 1616.46 216.417 1617 218.457C1617.82 221.591 1619.24 224.725 1619.24 227.859C1619.24 230.993 1617.82 234.127 1617 237.261C1616.49 239.212 1615.9 241.134 1615.28 243.381C1613.39 242.908 1611.64 242.494 1609.93 242.05C1606.53 241.134 1602.77 240.749 1599.79 239.064C1596.89 237.409 1594.76 234.393 1592.34 231.968C1591.04 230.727 1589.77 229.426 1588.17 227.8ZM1591.63 228.155C1593.17 229.337 1594.41 229.958 1595.21 230.963C1598.84 235.516 1603.45 238.236 1609.25 239.035C1610.61 239.212 1611.91 239.596 1613.39 239.892C1614.45 235.96 1615.43 232.353 1616.4 228.746C1616.52 228.361 1616.61 227.918 1616.52 227.563C1615.49 223.661 1614.45 219.788 1613.36 215.707C1609.34 216.801 1605.64 217.777 1601.95 218.812C1601.39 218.96 1600.85 219.344 1600.41 219.728C1597.69 222.271 1595 224.902 1591.63 228.155Z" fill="#FADBC3"/>
<path fill-rule="evenodd" clip-rule="evenodd" d="M1521.03 48.9883C1517.15 52.8613 1513.58 56.4387 1510 59.9866C1509.64 60.3118 1509.17 60.5779 1508.7 60.7257C1503.91 62.0266 1499.15 63.2979 1494.18 64.6283C1493.86 63.8892 1493.47 63.2979 1493.29 62.6474C1492.23 58.7448 1491.17 54.8422 1490.19 50.91C1489.95 49.9639 1489.81 48.8995 1490.04 47.983C1491.14 43.5482 1492.35 39.1725 1493.56 34.7673C1493.65 34.383 1493.89 34.0577 1494.15 33.5256C1499.09 34.856 1503.97 36.1274 1508.82 37.4874C1509.38 37.6352 1509.91 38.0491 1510.32 38.463C1513.78 41.8334 1517.24 45.263 1521.03 48.9883ZM1517.24 48.9291C1515.79 47.6283 1514.49 46.7413 1513.58 45.5587C1510.21 41.3308 1505.92 38.8178 1500.54 38.0787C1499 37.8717 1497.49 37.3691 1495.84 36.9847C1494.77 40.9465 1493.8 44.5535 1492.82 48.1605C1492.7 48.5448 1492.58 48.9883 1492.7 49.343C1493.71 53.2161 1494.77 57.1187 1495.87 61.2874C1499.98 60.1639 1503.79 59.1587 1507.57 58.0944C1508.02 57.9761 1508.46 57.5918 1508.82 57.237C1511.48 54.6352 1514.14 52.0039 1517.24 48.9291Z" fill="#FADBC3"/>
<path fill-rule="evenodd" clip-rule="evenodd" d="M1648.99 153.975C1647.6 148.83 1646.29 143.952 1644.99 139.074C1644.91 138.69 1644.91 138.246 1644.99 137.891C1646.27 133.013 1647.6 128.135 1648.96 122.99C1654.19 124.409 1659.16 125.74 1664.12 127.1C1664.57 127.218 1665.01 127.602 1665.36 127.957C1668.82 131.357 1672.28 134.787 1675.95 138.453C1673.55 140.848 1671.13 143.006 1669.03 145.43C1666.19 148.712 1662.82 150.723 1658.53 151.462C1655.49 151.994 1652.47 153.029 1648.99 153.975ZM1672.08 138.394C1669.24 135.615 1666.55 132.983 1663.86 130.382C1663.5 130.027 1663.06 129.702 1662.61 129.554C1658.83 128.489 1655.02 127.484 1650.97 126.39C1649.87 130.441 1648.87 134.225 1647.86 138.039C1647.77 138.305 1647.8 138.66 1647.86 138.926C1648.87 142.71 1649.87 146.495 1650.97 150.516C1655.02 149.422 1658.71 148.446 1662.41 147.441C1662.88 147.323 1663.35 147.027 1663.71 146.702C1666.43 144.011 1669.15 141.291 1672.08 138.394Z" fill="#FADBC3"/>
<path fill-rule="evenodd" clip-rule="evenodd" d="M1493.89 243.528C1492.47 238.206 1491.11 233.239 1489.81 228.272C1489.69 227.829 1489.86 227.267 1489.98 226.794C1491.14 222.389 1492.32 217.984 1493.53 213.578C1493.62 213.194 1493.86 212.869 1494.12 212.307C1499.06 213.638 1503.91 214.939 1508.79 216.239C1509.17 216.358 1509.58 216.535 1509.85 216.801C1513.52 220.408 1517.15 224.045 1520.97 227.859C1517.18 231.643 1513.61 235.22 1510.03 238.768C1509.67 239.093 1509.2 239.359 1508.73 239.507C1503.94 240.838 1499.15 242.109 1493.89 243.528ZM1517.01 227.888C1514.11 224.991 1511.42 222.3 1508.67 219.58C1508.4 219.314 1508.05 219.019 1507.69 218.9C1503.82 217.806 1499.95 216.772 1495.87 215.648C1494.77 219.698 1493.74 223.394 1492.79 227.09C1492.67 227.563 1492.67 228.095 1492.79 228.568C1493.77 232.264 1494.77 235.959 1495.87 240.039C1499.98 238.916 1503.85 237.881 1507.72 236.817C1508.02 236.728 1508.28 236.551 1508.49 236.344C1511.27 233.594 1514.05 230.845 1517.01 227.888Z" fill="#FADBC3"/>
<path fill-rule="evenodd" clip-rule="evenodd" d="M1804.14 212.278C1809.14 213.608 1813.84 214.82 1818.51 216.092C1819.16 216.269 1819.87 216.624 1820.35 217.097C1823.89 220.556 1827.38 224.104 1831.14 227.859C1829.25 229.751 1827.29 231.377 1825.76 233.328C1822.03 237.97 1817.33 240.69 1811.45 241.547C1809.26 241.873 1807.13 242.641 1804.97 243.203C1804.79 243.262 1804.59 243.173 1804.09 243.144C1803.73 242.02 1803.29 240.808 1802.96 239.566C1801.93 235.664 1800.12 231.732 1800.12 227.799C1800.12 223.897 1801.96 219.965 1802.99 216.062C1803.32 214.909 1803.7 213.785 1804.14 212.278ZM1806.07 215.678C1804.97 219.728 1803.94 223.513 1802.9 227.297C1802.81 227.593 1802.78 227.918 1802.87 228.184C1803.91 232.057 1804.94 235.93 1806.07 240.04C1810.12 238.975 1813.81 238 1817.54 236.994C1817.83 236.906 1818.16 236.787 1818.34 236.61C1821.26 233.742 1824.19 230.845 1827.35 227.74C1824.43 224.932 1821.82 222.389 1819.19 219.876C1818.78 219.462 1818.28 219.019 1817.71 218.871C1813.93 217.777 1810.15 216.772 1806.07 215.678Z" fill="#FADBC3"/>
<path fill-rule="evenodd" clip-rule="evenodd" d="M1804.44 33.5553C1809.2 34.8266 1813.99 36.0683 1818.78 37.3988C1819.43 37.5761 1820.08 38.0197 1820.55 38.4927C1824.04 41.8927 1827.47 45.2927 1831.17 48.9588C1829.84 50.3484 1828.68 51.5606 1827.47 52.7728C1824.87 55.345 1822.65 58.5084 1819.58 60.2824C1816.53 62.0563 1812.66 62.4111 1809.14 63.3572C1807.57 63.7711 1806.04 64.185 1804.17 64.658C1803.79 63.3867 1803.4 62.2633 1803.08 61.1398C1802.13 57.7102 1801.22 54.3102 1800.33 50.851C1800.12 49.9936 1799.92 49.018 1800.12 48.2197C1801.28 43.6075 1802.58 39.0249 1803.82 34.4422C1803.94 34.1466 1804.17 33.9101 1804.44 33.5553ZM1806.07 36.8666C1804.97 40.9171 1803.97 44.6127 1802.99 48.3084C1802.87 48.7814 1802.87 49.3136 1802.99 49.7867C1803.97 53.4823 1804.97 57.178 1806.07 61.258C1810.18 60.1346 1814.05 59.0998 1817.92 58.0354C1818.19 57.9467 1818.48 57.7693 1818.69 57.5328C1821.5 54.7537 1824.25 51.9745 1827.23 49.0475C1824.34 46.1501 1821.65 43.4301 1818.9 40.7692C1818.48 40.3849 1817.89 40.0597 1817.33 39.9118C1813.72 38.9066 1810.12 37.9605 1806.07 36.8666Z" fill="#FADBC3"/>
<path fill-rule="evenodd" clip-rule="evenodd" d="M1460.21 153.945C1455.07 152.585 1450.28 151.314 1445.52 150.013C1444.95 149.865 1444.39 149.54 1443.95 149.126C1440.43 145.667 1436.94 142.178 1433.22 138.483C1436.94 134.757 1440.49 131.209 1444.07 127.691C1444.42 127.366 1444.9 127.1 1445.37 126.982C1450.22 125.651 1455.07 124.35 1460.18 122.99C1461.07 126.242 1461.69 129.317 1462.75 132.215C1464.26 136.383 1464.32 140.375 1462.78 144.573C1461.72 147.5 1461.13 150.575 1460.21 153.945ZM1437.18 138.364C1438.3 139.488 1439.31 140.345 1440.11 141.38C1443.71 145.963 1448.35 148.683 1454.12 149.481C1455.48 149.658 1456.81 150.043 1458.29 150.368C1459.35 146.406 1460.33 142.799 1461.27 139.192C1461.39 138.808 1461.45 138.364 1461.33 138.01C1460.33 134.196 1459.29 130.411 1458.23 126.42C1454.24 127.484 1450.54 128.46 1446.85 129.495C1446.29 129.642 1445.72 129.997 1445.31 130.411C1442.65 132.983 1439.99 135.615 1437.18 138.364Z" fill="#FADBC3"/>
<path fill-rule="evenodd" clip-rule="evenodd" d="M1743.48 138.483C1747.2 134.787 1750.75 131.21 1754.33 127.691C1754.74 127.307 1755.36 127.041 1755.92 126.893C1760.59 125.622 1765.27 124.38 1770.17 123.079C1770.5 123.877 1770.85 124.557 1771.06 125.297C1772.1 128.992 1773.04 132.718 1774.08 136.413C1774.46 137.832 1774.49 139.133 1774.11 140.552C1772.86 144.898 1771.71 149.274 1770.44 153.945C1767.54 153.206 1764.88 152.319 1762.13 151.846C1756.96 150.959 1752.73 148.624 1749.39 144.484C1747.67 142.356 1745.58 140.582 1743.48 138.483ZM1768.43 126.42C1764.47 127.484 1760.86 128.431 1757.25 129.436C1756.69 129.584 1756.1 129.879 1755.69 130.264C1752.97 132.924 1750.28 135.644 1747.41 138.483C1750.25 141.291 1752.91 143.952 1755.54 146.584C1755.83 146.85 1756.16 147.175 1756.51 147.264C1760.39 148.358 1764.29 149.422 1768.43 150.545C1769.55 146.406 1770.56 142.592 1771.56 138.808C1771.65 138.453 1771.56 138.01 1771.44 137.625C1770.47 134.018 1769.49 130.411 1768.43 126.42Z" fill="#FADBC3"/>
<path fill-rule="evenodd" clip-rule="evenodd" d="M1741.17 209.794C1739.69 215.382 1738.24 220.645 1736.94 225.937C1736.65 227.149 1736.65 228.539 1736.94 229.751C1738.24 235.043 1739.69 240.335 1741.17 245.864C1740.28 246.189 1739.48 246.544 1738.66 246.781C1734.46 247.934 1730.26 249.087 1726.03 250.121C1723.99 250.624 1722.34 251.511 1720.89 253.078C1718.05 256.094 1715.03 258.991 1712.11 261.918C1711.4 262.628 1710.66 263.278 1709.77 264.106C1709 263.426 1708.32 262.894 1707.67 262.273C1704.36 258.991 1701.11 255.621 1697.74 252.427C1696.85 251.57 1695.61 250.89 1694.4 250.535C1690.02 249.234 1685.62 248.14 1681.21 246.928C1680.24 246.662 1679.32 246.337 1678.2 245.982C1679.58 240.808 1680.86 235.812 1682.28 230.845C1682.87 228.834 1682.87 226.942 1682.28 224.932C1680.86 219.994 1679.58 214.998 1678.2 209.794C1679.44 209.41 1680.47 209.026 1681.51 208.76C1685.7 207.636 1689.9 206.483 1694.13 205.419C1695.64 205.034 1696.88 204.325 1697.97 203.201C1701.73 199.358 1705.54 195.573 1709.48 191.612C1710.19 192.173 1710.84 192.617 1711.37 193.179C1714.68 196.46 1718.02 199.713 1721.24 203.083C1722.43 204.295 1723.73 205.064 1725.35 205.478C1729.96 206.66 1734.55 207.932 1739.16 209.173C1739.72 209.292 1740.28 209.499 1741.17 209.794ZM1681.62 243.942C1682.48 244.267 1683.1 244.563 1683.75 244.711C1687.36 245.687 1690.97 246.751 1694.6 247.608C1696.76 248.111 1698.51 249.057 1700.01 250.683C1702.56 253.433 1705.28 256.034 1707.94 258.666C1708.47 259.198 1709.12 259.641 1709.92 260.262C1712.99 257.158 1715.98 254.261 1718.76 251.215C1720.53 249.264 1722.57 248.081 1725.17 247.49C1729.28 246.544 1733.36 245.332 1737.59 244.179C1737.44 243.262 1737.36 242.582 1737.18 241.932C1736.29 238.502 1735.49 235.043 1734.43 231.673C1733.63 229.16 1733.57 226.824 1734.37 224.281C1735.64 220.26 1736.59 216.121 1737.71 211.864C1736.76 211.509 1736.03 211.213 1735.29 211.006C1731.59 210.001 1727.87 208.937 1724.14 208.02C1722.43 207.606 1721.01 206.867 1719.76 205.537C1717.04 202.669 1714.21 199.919 1711.4 197.14C1710.87 196.608 1710.21 196.165 1709.42 195.544C1706.08 198.944 1702.82 202.166 1699.69 205.448C1698.45 206.749 1697.09 207.547 1695.34 207.991C1691.5 208.937 1687.72 210.001 1683.9 211.036C1683.16 211.243 1682.45 211.598 1681.65 211.923C1682.78 216.151 1683.72 220.201 1684.94 224.163C1685.7 226.676 1685.76 229.012 1684.97 231.554C1683.69 235.575 1682.75 239.714 1681.62 243.942Z" fill="#FADBC3"/>
<path fill-rule="evenodd" clip-rule="evenodd" d="M1678.23 67.1417C1679.47 62.4113 1680.53 57.7695 1681.95 53.246C1682.81 50.4077 1682.87 47.806 1681.98 44.9677C1680.56 40.4442 1679.5 35.8025 1678.23 30.9537C1679.41 30.5694 1680.44 30.2146 1681.48 29.9189C1685.5 28.825 1689.49 27.7016 1693.51 26.7259C1695.46 26.2529 1697.03 25.3955 1698.42 23.9468C1701.35 20.872 1704.42 17.9154 1707.44 14.8998C1708.15 14.1902 1708.88 13.5398 1709.8 12.6824C1712.49 15.3728 1715.27 17.738 1717.58 20.5172C1721.04 24.6859 1725.32 27.0511 1730.64 27.9972C1734.1 28.6181 1737.47 29.8007 1741.08 30.7764C1740.9 31.8111 1740.79 32.6685 1740.55 33.5259C1739.49 37.5468 1738.51 41.5973 1737.27 45.5294C1736.5 47.9834 1736.62 50.2304 1737.33 52.6252C1738.48 56.4095 1739.43 60.253 1740.43 64.0669C1740.7 65.013 1740.87 66.0183 1741.14 67.2304C1738.01 68.0878 1735.05 69.2113 1731.98 69.7139C1725.56 70.7191 1720.44 73.6757 1716.42 78.7314C1714.53 81.0966 1712.34 83.1957 1710.19 85.5314C1709.15 84.674 1708.53 84.2305 1707.97 83.6688C1704.66 80.387 1701.35 77.1052 1698.09 73.7644C1697 72.6409 1695.79 71.9018 1694.25 71.5174C1689.82 70.4235 1685.44 69.1817 1681.03 67.9696C1680.12 67.8217 1679.29 67.4965 1678.23 67.1417ZM1709.77 16.4963C1706.37 19.8963 1703.24 22.912 1700.25 26.0459C1698.66 27.7311 1696.91 28.825 1694.63 29.3276C1691.09 30.1259 1687.6 31.1902 1684.08 32.1363C1683.31 32.3433 1682.6 32.6685 1681.66 32.9938C1682.04 34.4129 1682.36 35.6546 1682.69 36.926C1683.75 40.9468 1685.65 44.9677 1685.62 48.959C1685.59 53.0686 1683.72 57.1782 1682.63 61.3174C1682.31 62.5591 1682.01 63.8009 1681.71 64.9243C1682.13 65.2496 1682.28 65.4269 1682.45 65.486C1684.79 66.1365 1687.1 67.0531 1689.49 67.3783C1695.49 68.2652 1700.22 71.133 1704.04 75.8044C1705.69 77.8148 1707.7 79.5 1709.71 81.4809C1711.87 79.3522 1714 77.6079 1715.68 75.5087C1719.38 70.9852 1723.99 68.3243 1729.76 67.4374C1732.39 67.0235 1734.96 66.0478 1737.8 65.2791C1737 62.2339 1736.53 59.4252 1735.52 56.8234C1733.51 51.5608 1733.57 46.446 1735.55 41.2129C1736.53 38.6112 1737.03 35.8025 1737.77 32.9938C1736.74 32.639 1736 32.3729 1735.23 32.1363C1731.62 31.1311 1728.01 30.0963 1724.38 29.2389C1722.4 28.7659 1720.89 27.8494 1719.53 26.4007C1716.39 23.1781 1713.23 20.0441 1709.77 16.4963Z" fill="#FADBC3"/>
<path fill-rule="evenodd" clip-rule="evenodd" d="M1864.78 102.354C1865.64 103.152 1866.41 103.773 1867.09 104.483C1870.16 107.557 1873.3 110.603 1876.31 113.737C1877.55 115.037 1878.97 115.777 1880.72 116.22C1885.24 117.344 1889.71 118.615 1894.23 119.827C1894.82 119.975 1895.35 120.211 1896.15 120.507C1895.94 121.512 1895.83 122.488 1895.56 123.405C1894.47 127.514 1893.4 131.624 1892.19 135.704C1891.63 137.625 1891.69 139.429 1892.22 141.321C1893.37 145.312 1894.41 149.333 1895.5 153.354C1895.77 154.33 1895.94 155.306 1896.21 156.518C1893.46 157.286 1890.83 157.996 1888.23 158.706C1884.92 159.622 1881.25 159.977 1878.38 161.632C1875.49 163.288 1873.33 166.245 1870.9 168.669C1868.98 170.591 1867.12 172.601 1865.11 174.7C1864.25 173.991 1863.6 173.547 1863.07 172.986C1859.76 169.704 1856.45 166.452 1853.19 163.081C1852.01 161.869 1850.71 161.13 1849.08 160.716C1844.86 159.652 1840.66 158.499 1836.46 157.375C1835.48 157.109 1834.57 156.784 1833.35 156.399C1834.06 153.739 1834.71 151.225 1835.36 148.683C1836.25 145.253 1837.85 141.824 1837.85 138.394C1837.85 134.965 1836.25 131.535 1835.36 128.105C1834.71 125.651 1834.06 123.227 1833.38 120.566C1834.21 120.271 1834.92 119.945 1835.69 119.738C1840.1 118.526 1844.47 117.284 1848.88 116.191C1850.74 115.747 1852.19 114.86 1853.49 113.5C1856.45 110.425 1859.49 107.469 1862.51 104.453C1863.16 103.832 1863.9 103.182 1864.78 102.354ZM1892.9 122.429C1889.65 121.542 1886.78 120.478 1883.82 119.975C1878.68 119.118 1874.66 116.693 1871.32 112.731C1869.39 110.425 1867.09 108.444 1864.78 106.168C1862.21 108.74 1859.7 110.928 1857.54 113.441C1854.58 116.9 1851.01 118.97 1846.54 119.798C1843.29 120.389 1840.12 121.483 1836.81 122.399C1836.99 123.316 1837.08 123.996 1837.26 124.676C1838.2 128.283 1839.12 131.919 1840.18 135.526C1840.78 137.537 1840.83 139.399 1840.24 141.439C1838.97 145.667 1837.91 149.984 1836.72 154.419C1837.55 154.744 1838.17 155.039 1838.82 155.217C1842.64 156.252 1846.42 157.316 1850.27 158.262C1852.1 158.706 1853.58 159.592 1854.88 160.952C1857.51 163.732 1860.29 166.422 1863.04 169.113C1863.6 169.645 1864.22 170.088 1865.05 170.739C1868.45 167.309 1871.76 164.027 1874.95 160.686C1876.11 159.445 1877.47 158.735 1879.06 158.321C1882.7 157.405 1886.31 156.429 1889.91 155.424C1890.86 155.158 1891.78 154.832 1892.87 154.448C1891.6 149.688 1890.45 145.224 1889.17 140.759C1888.76 139.252 1888.73 137.862 1889.14 136.325C1890.45 131.831 1891.6 127.337 1892.9 122.429Z" fill="#FADBC3"/>
<path fill-rule="evenodd" clip-rule="evenodd" d="M1554.58 102.354C1555.44 103.152 1556.21 103.802 1556.92 104.482C1559.88 107.409 1562.86 110.307 1565.7 113.322C1567.15 114.86 1568.77 115.806 1570.81 116.309C1575.25 117.373 1579.63 118.644 1584.03 119.827C1584.62 119.975 1585.15 120.211 1585.92 120.507C1585.72 121.512 1585.6 122.488 1585.33 123.434C1584.27 127.455 1583.26 131.476 1582.05 135.437C1581.4 137.566 1581.49 139.547 1582.11 141.646C1583.23 145.519 1584.24 149.451 1585.3 153.383C1585.57 154.33 1585.75 155.335 1586.01 156.547C1582.67 157.463 1579.51 158.617 1576.25 159.178C1570.4 160.154 1565.67 162.756 1561.95 167.397C1559.85 169.97 1557.39 172.276 1555 174.818C1554.05 174.02 1553.4 173.577 1552.87 173.015C1549.62 169.792 1546.36 166.629 1543.2 163.317C1541.9 161.928 1540.39 161.13 1538.56 160.657C1534.42 159.651 1530.34 158.498 1526.23 157.404C1525.25 157.138 1524.34 156.813 1523.16 156.429C1523.87 153.738 1524.52 151.225 1525.17 148.712C1526.05 145.283 1527.65 141.853 1527.62 138.423C1527.62 134.994 1526.02 131.564 1525.11 128.135C1524.46 125.681 1523.81 123.256 1523.13 120.625C1523.95 120.329 1524.69 120.004 1525.43 119.797C1529.84 118.585 1534.21 117.343 1538.65 116.249C1540.51 115.806 1541.96 114.919 1543.26 113.559C1546.22 110.484 1549.26 107.528 1552.28 104.512C1552.99 103.802 1553.73 103.182 1554.58 102.354ZM1582.7 122.458C1580.99 121.956 1579.48 121.482 1577.94 121.069C1574.16 120.004 1569.96 119.62 1566.65 117.728C1563.33 115.806 1560.91 112.376 1558.1 109.627C1556.98 108.503 1555.83 107.409 1554.35 105.961C1552.9 107.557 1551.75 108.976 1550.47 110.248C1547.9 112.82 1545.65 115.983 1542.58 117.728C1539.42 119.531 1535.48 119.916 1531.88 120.95C1530.16 121.453 1528.42 121.956 1526.53 122.488C1527.5 126.154 1528.18 129.643 1529.36 132.954C1530.69 136.768 1530.64 140.345 1529.33 144.159C1528.18 147.47 1527.5 150.93 1526.53 154.566C1529.51 155.394 1532.17 156.399 1534.92 156.843C1540.48 157.73 1544.92 160.272 1548.43 164.648C1550.21 166.806 1552.37 168.639 1554.49 170.738C1555.44 169.881 1556.21 169.23 1556.89 168.521C1559.55 165.89 1562.21 163.258 1564.81 160.568C1565.91 159.415 1567.15 158.705 1568.66 158.321C1572.68 157.316 1576.67 156.222 1580.69 155.098C1581.31 154.921 1581.9 154.566 1582.61 154.241C1581.49 149.954 1580.48 145.815 1579.27 141.764C1578.59 139.547 1578.56 137.507 1579.24 135.26C1580.51 131.15 1581.52 126.922 1582.7 122.458Z" fill="#FADBC3"/>
<path fill-rule="evenodd" clip-rule="evenodd" d="M1722.25 220.881C1720.03 225.641 1720.06 230.165 1722.22 234.836C1719.59 235.635 1717.1 235.989 1715.09 237.142C1713.14 238.266 1711.66 240.217 1709.68 242.08C1706.49 238.384 1702.79 235.339 1697.41 235.309C1698.06 232.412 1699.01 230.076 1699.04 227.741C1699.04 225.523 1698.06 223.276 1697.47 220.822C1699.96 220.054 1702.44 219.699 1704.48 218.546C1706.43 217.422 1707.88 215.471 1709.74 213.727C1711.6 215.471 1713.14 217.452 1715.15 218.635C1717.01 219.788 1719.47 220.054 1722.25 220.881ZM1709.71 238.414C1711.99 235.073 1714.95 233.713 1718.82 233.033C1716.9 229.485 1717.52 226.174 1718.49 222.626C1714.71 222.153 1711.96 220.438 1709.56 217.304C1707.47 220.763 1704.3 221.975 1700.52 222.833C1702.38 226.322 1701.91 229.544 1700.72 233.21C1704.54 233.506 1707.29 235.221 1709.71 238.414Z" fill="#FADBC3"/>
<path fill-rule="evenodd" clip-rule="evenodd" d="M1697.41 42.0404C1699.93 41.2717 1702.41 40.9169 1704.42 39.7638C1706.37 38.6404 1707.82 36.6891 1709.65 34.9447C1711.52 36.6891 1713.08 38.6699 1715.09 39.8525C1717.01 40.976 1719.44 41.2717 1721.92 42.0109C1721.33 44.4944 1720.39 46.8004 1720.39 49.1361C1720.39 51.3831 1721.36 53.6301 1721.98 56.2614C1717.13 57.1779 1712.79 58.9223 1709.95 63.5049C1707.94 61.6423 1706.43 59.6318 1704.42 58.4492C1702.41 57.2666 1699.9 56.9118 1697.44 56.1431C1698 53.6301 1698.98 51.2944 1698.98 48.9587C1698.98 46.7117 1698 44.4648 1697.41 42.0404ZM1718.76 54.3692C1717.01 50.6144 1717.55 47.303 1718.49 43.7848C1714.65 43.4004 1711.99 41.5378 1709.62 38.6699C1707.38 41.7743 1704.51 43.3117 1700.75 43.903C1702.11 47.4509 1702.08 50.7622 1700.72 54.3987C1704.69 54.7239 1707.38 56.7049 1709.8 59.4544C1712.08 56.4092 1714.77 54.7831 1718.76 54.3692Z" fill="#FADBC3"/>
<path fill-rule="evenodd" clip-rule="evenodd" d="M1877.02 131.535C1876.43 134.078 1875.52 136.324 1875.52 138.571C1875.52 140.818 1876.46 143.036 1877.08 145.667C1871.88 146.14 1867.92 148.505 1864.93 152.645C1862.86 150.723 1861.32 148.742 1859.28 147.559C1857.36 146.436 1854.94 146.17 1852.48 145.46C1853.05 143.036 1853.99 140.789 1854.02 138.571C1854.02 136.325 1853.08 134.078 1852.51 131.594C1854.91 130.855 1857.42 130.5 1859.43 129.318C1861.38 128.194 1862.86 126.243 1864.72 124.469C1866.56 126.184 1868.06 128.164 1870.08 129.347C1872.06 130.471 1874.48 130.766 1877.02 131.535ZM1864.72 128.017C1862.51 131.417 1859.55 132.777 1855.82 133.398C1857.18 136.857 1857.13 140.079 1855.88 143.568C1859.76 143.982 1862.48 145.933 1864.93 148.772C1867.09 145.431 1870.13 144.218 1873.74 143.42C1872.23 139.991 1872.56 136.738 1873.62 133.309C1869.87 132.895 1867.18 131.269 1864.72 128.017Z" fill="#FADBC3"/>
<path fill-rule="evenodd" clip-rule="evenodd" d="M1566.91 145.667C1561.77 146.199 1557.75 148.446 1554.61 152.94C1551.45 148.564 1547.49 146.17 1542.25 145.697C1542.87 143.065 1543.82 140.848 1543.85 138.601C1543.85 136.354 1542.93 134.107 1542.37 131.564C1544.74 130.855 1547.22 130.5 1549.26 129.347C1551.21 128.223 1552.69 126.272 1554.58 124.469C1556.39 126.154 1557.92 128.135 1559.9 129.317C1561.86 130.441 1564.28 130.766 1566.82 131.535C1566.29 133.9 1565.34 136.206 1565.34 138.542C1565.34 140.759 1566.29 143.006 1566.91 145.667ZM1563.63 133.309C1559.55 132.983 1556.95 131.003 1554.49 128.253C1552.25 131.328 1549.38 132.836 1545.62 133.397C1547.04 136.856 1546.9 140.109 1545.71 143.597C1549.62 143.982 1552.31 145.992 1554.79 148.771C1556.92 145.401 1560.02 144.248 1563.57 143.42C1562.18 140.05 1562.18 136.886 1563.63 133.309Z" fill="#FADBC3"/>
</g>
</g>
<defs>
<clipPath id="clip0">
<rect width="1920" height="282" fill="white"/>
</clipPath>
<clipPath id="clip1">
<rect x="1314" y="-133.657" width="706.178" height="706.178" rx="353.089" transform="rotate(-45 1314 -133.657)" fill="white"/>
</clipPath>
</defs>
</svg>
