<svg width="110" height="114" viewBox="0 0 110 114" fill="none" xmlns="http://www.w3.org/2000/svg">
<path fill-rule="evenodd" clip-rule="evenodd" d="M85.7077 80.2646C80.2644 84.8547 76.8108 91.3887 70.3132 94.3082C62.203 97.9524 51.7651 104.089 44.648 98.7141C37.1655 93.063 41.8014 80.8964 40.3121 71.6499C39.391 65.9306 38.2158 60.6739 37.5936 54.9155C36.6919 46.5698 30.5376 36.8841 35.8567 30.4135C41.0483 24.0978 51.5405 27.264 59.698 28.0254C66.0773 28.6209 71.7673 31.1975 77.3872 34.29C82.8218 37.2804 87.5574 40.8814 91.6057 45.5833C96.898 51.7303 105.707 57.6291 104.35 65.6065C102.99 73.6043 91.9023 75.041 85.7077 80.2646Z" fill="#C8CEE8"/>
<path d="M70.2227 89.9951C69.3847 90.8538 68.3335 91.4861 67.1803 91.8221C66.431 92.041 65.2382 91.9429 64.5776 92.4298C65.3382 92.6015 66.0988 92.6374 66.8651 92.477C67.9371 92.2524 68.9997 92.0014 69.9887 91.5088C71.0305 90.9897 71.8873 90.2537 72.5725 89.3213C73.4161 88.1738 73.4557 86.8526 72.6159 85.6976C72.1365 85.037 71.5816 84.4802 70.9531 84.0254C71.0475 85.0465 71.9836 85.8467 71.8911 86.9678C71.7986 88.0832 70.9795 89.2194 70.2227 89.9951Z" fill="#C8CEE8"/>
<path d="M31.5379 42.7955C31.4907 42.7106 31.4416 42.6275 31.3435 42.5596C31.3435 42.6237 31.3397 42.686 31.3435 42.7502C31.4567 44.6187 31.3737 46.4872 31.3661 48.3575C31.3548 51.7208 31.3378 55.0822 31.3454 58.4455C31.3491 60.3951 31.3963 62.3429 31.4227 64.2925C31.4246 64.3831 31.4209 64.4756 31.4095 64.5643C31.4039 64.6096 31.3907 64.6511 31.3718 64.6889C31.3963 64.8644 31.4152 65.0418 31.4246 65.223C31.4322 65.3777 31.4265 65.5287 31.4171 65.6816C31.468 65.7609 31.5133 65.8458 31.5567 65.9307C31.7889 66.4082 32.0644 66.848 32.3758 67.2575C32.6231 63.4904 32.5589 59.6647 32.6514 55.9126C32.7061 53.6572 32.7797 51.3924 32.6797 49.137C32.6287 47.9801 32.5759 46.8137 32.4381 45.6643C32.3758 45.1396 32.3287 44.5205 32.2041 43.9355C32.1041 43.7901 32.0059 43.641 31.9134 43.4882C31.7776 43.2617 31.6624 43.0239 31.5379 42.7955Z" fill="#C8CEE8"/>
<path d="M35.2482 70.9307C35.284 70.9307 35.3218 70.9307 35.3576 70.9307C35.3803 71.0231 35.4162 71.1156 35.4256 71.21C35.5049 71.9442 35.8389 72.5519 36.3428 73.0766C36.9581 73.7183 37.698 74.1864 38.4831 74.5903C39.8798 75.3093 41.3632 75.7887 42.8825 76.1624C45.1134 76.7098 47.3801 77.0136 49.6714 77.1495C51.5625 77.2609 53.4536 77.2571 55.3429 77.125C57.9191 76.9457 60.4595 76.5531 62.9263 75.7623C63.9379 75.4377 64.9174 75.0376 65.8347 74.4959C66.3971 74.1637 66.9199 73.7825 67.3578 73.2936C67.6466 72.9709 67.8806 72.6199 68.0108 72.1763C66.3424 73.2823 64.6098 74.2298 62.6507 74.8734C59.5913 75.8774 56.3866 76.2379 53.1762 76.1945C49.8507 76.1511 46.4591 75.7717 43.1977 75.1263C40.2648 74.5468 37.6111 73.4031 35.8842 70.9005C35.8446 70.8778 35.8031 70.8571 35.7634 70.8344C35.5955 70.7381 35.4313 70.64 35.2671 70.5381C35.101 70.6023 34.9783 70.7702 35.0292 70.9929C35.0689 71.159 35.1161 71.3213 35.1689 71.4799C35.167 71.4006 35.1651 71.3195 35.1632 71.2402C35.1614 71.1402 35.218 71.0345 35.2482 70.9307Z" fill="#C8CEE8"/>
<path d="M37.2642 74.4072C37.3661 74.4921 37.4699 74.5752 37.5775 74.6563C37.6096 74.6582 37.6416 74.6658 37.6737 74.6695C37.568 74.6054 37.4623 74.5412 37.3585 74.4733C37.3246 74.4506 37.2944 74.428 37.2642 74.4072Z" fill="#C8CEE8"/>
<path d="M58.4873 77.2607C58.5401 77.238 58.593 77.221 58.6458 77.2021C58.5552 77.2154 58.4646 77.2286 58.374 77.2418C58.4118 77.2474 58.4495 77.2531 58.4873 77.2607Z" fill="#C8CEE8"/>
<path d="M49.0546 77.6102C49.1131 77.597 49.1716 77.5875 49.2301 77.5762C49.1056 77.5687 48.981 77.5592 48.8564 77.5498C48.9206 77.5706 48.9886 77.5875 49.0546 77.6102Z" fill="#C8CEE8"/>
<path d="M39.0456 31.0322C38.9437 31.0832 38.8437 31.136 38.7437 31.1889C38.8399 31.1474 38.9343 31.1058 39.0437 31.0568C39.0437 31.0473 39.0456 31.0398 39.0456 31.0322Z" fill="#C8CEE8"/>
<path d="M39.7797 31.2467C39.7175 31.2693 39.6571 31.3033 39.5684 31.3467C39.6288 31.6714 39.7439 31.9601 39.9005 32.2206C41.3198 31.5147 42.8033 30.9409 44.3283 30.5069C46.2609 29.9557 48.1936 29.7821 50.1715 29.5084C50.2338 29.499 50.2886 29.482 50.3395 29.4613C49.2071 29.5179 48.0766 29.5518 46.9442 29.4424C46.9366 29.4424 46.9291 29.4424 46.9215 29.4443C46.6535 29.5047 46.3855 29.5594 46.1137 29.5971C43.9376 29.8916 41.8351 30.4767 39.7797 31.2467Z" fill="#C8CEE8"/>
<path d="M31.723 41.324C32.0646 39.3536 32.8951 37.5172 34.2879 36.0582C35.6298 34.654 37.3209 33.6085 39.0158 32.6799C39.1705 32.5949 39.3291 32.5138 39.4857 32.4307C39.3102 32.1665 39.1743 31.874 39.0931 31.5361C38.9893 31.572 38.9252 31.5909 38.8648 31.6173C37.7116 32.1174 36.6018 32.695 35.5638 33.4065C34.3993 34.2067 33.3461 35.1278 32.5535 36.3074C31.421 37.9928 31.0926 39.7084 31.5758 41.441C31.6437 41.4391 31.7079 41.4014 31.723 41.324Z" fill="#C8CEE8"/>
<path d="M75.5828 40.4498C75.5696 40.4196 75.562 40.3857 75.5488 40.3555C75.5526 40.414 75.5564 40.4744 75.5583 40.5329C75.5658 40.5065 75.5734 40.4782 75.5828 40.4498Z" fill="#C8CEE8"/>
<path d="M72.7462 43.3146C71.2005 45.1434 69.013 46.2456 66.9256 47.3309C64.5739 48.5539 62.143 49.5372 59.5668 50.1751C57.1585 50.7696 54.6766 50.9414 52.2627 51.4528C55.09 51.5736 57.9078 51.4094 60.7067 50.9376C62.9036 50.5677 65.0514 50.0166 67.1219 49.1824C68.8111 48.501 70.4078 47.6574 71.8289 46.5061C72.867 45.6662 73.7578 44.698 74.3712 43.4995C75.0507 42.1708 75.2545 40.7799 74.8978 39.3209C74.6732 38.3999 74.2485 37.577 73.6993 36.8164C73.7106 36.89 73.7276 36.9636 73.7597 37.0353C74.7034 39.2096 74.2655 41.5178 72.7462 43.3146Z" fill="#C8CEE8"/>
<path d="M75.1865 38.4874C75.1619 38.4685 75.1393 38.4515 75.1147 38.4326C75.1393 38.4968 75.1657 38.561 75.1884 38.627C75.1865 38.5798 75.1884 38.5345 75.1865 38.4874Z" fill="#C8CEE8"/>
<path d="M46.6573 33.5727C45.1021 33.8747 43.5602 34.2201 42.0597 34.741C40.8631 35.1562 39.6892 35.6186 38.5719 36.2188C38.4643 36.2773 38.353 36.3283 38.2416 36.3773C38.1586 36.4472 38.0736 36.5151 37.9981 36.5906C37.8509 36.7359 38.0057 36.9492 38.1869 36.9152C39.3702 36.6963 40.5329 35.9791 41.6653 35.5677C42.7882 35.16 43.9376 34.8203 45.1021 34.5504C46.3365 34.2635 47.5897 34.054 48.8523 33.9294C49.4185 33.8747 49.9866 33.8351 50.5547 33.8124C51.1228 33.7898 51.606 33.8747 52.091 33.5538C52.3043 33.4142 52.3119 33.1122 52.091 32.9725C51.974 32.8989 51.8438 32.8423 51.7041 32.8008C51.5286 32.8178 51.3512 32.8348 51.1738 32.848C49.6507 32.9706 48.1559 33.2821 46.6573 33.5727Z" fill="#C8CEE8"/>
<path d="M49.4693 92.5977C48.7389 92.8713 47.999 93.128 47.2743 93.3866C46.8289 93.5451 46.3835 93.7074 45.9399 93.8716C46.6817 93.6206 47.4234 93.3752 48.1614 93.1148C48.6049 92.9581 49.039 92.7807 49.4693 92.5977Z" fill="#C8CEE8"/>
<path d="M46.425 94.3584C45.1473 94.7812 43.8884 95.2511 42.6635 95.8079C40.9838 96.5704 39.5437 97.6386 38.417 99.1108C37.5601 100.23 37.0562 101.479 37.0789 102.904C37.0845 103.242 37.1374 103.588 37.2185 103.916C37.4016 104.652 37.8357 105.214 38.4566 105.66C38.8454 105.939 39.2493 106.135 39.6626 106.262C39.54 106.13 39.423 105.988 39.3154 105.83C38.6812 104.886 38.4661 103.756 38.6227 102.636C38.9794 100.113 40.9215 98.1633 43.007 96.8893C45.236 95.5267 47.7311 94.7189 50.0997 93.645C52.1286 92.724 54.3897 91.4123 55.5108 89.4211C55.5485 89.355 55.5108 89.2663 55.4504 89.2305C54.05 90.6328 52.4552 91.7746 50.6791 92.6749C49.3127 93.3657 47.8764 93.8771 46.425 94.3584Z" fill="#C8CEE8"/>
<path d="M37.2699 105.522C37.2906 105.528 37.3114 105.535 37.334 105.541C37.3001 105.505 37.2699 105.468 37.2378 105.432C37.2491 105.462 37.2586 105.492 37.2699 105.522Z" fill="#C8CEE8"/>
<path d="M27.9936 17.0447C28.5995 16.9654 29.1751 16.7861 29.7206 16.5237C30.2434 16.2727 30.7548 15.9953 31.2644 15.716C32.4572 15.0629 33.7274 14.6402 35.0731 14.459C35.913 14.3457 36.734 14.4269 37.5059 14.81C37.8268 14.9686 38.1118 15.1724 38.3081 15.4819C38.4798 15.7518 38.4987 16.0198 38.2911 16.2727C38.0589 16.5539 37.8381 16.8503 37.5701 17.0937C36.9359 17.6675 36.2867 18.2224 35.628 18.7659C34.9504 19.3246 34.2767 19.887 33.684 20.5382C33.2424 21.0213 32.8725 21.5517 32.612 22.1537C32.2062 23.0899 32.1119 24.043 32.478 25.0131C32.7026 25.6114 33.1159 26.0115 33.7576 26.1228C34.069 26.1776 34.3918 26.2116 34.707 26.1908C35.1146 26.1625 35.5185 26.0794 35.9224 26.0058C36.5528 25.8888 37.1832 25.8114 37.8249 25.8454C38.3798 25.8756 38.9063 26.0115 39.382 26.3059C40.0407 26.7155 40.269 27.4799 39.9463 28.1801C39.8651 28.3556 39.7745 28.5273 39.6896 28.701C39.4008 29.2993 39.163 29.9145 39.0913 30.5808C39.0762 30.7299 39.063 30.8771 39.0479 31.03C39.0479 31.0375 39.046 31.047 39.046 31.0545C38.9365 31.1017 38.8422 31.1451 38.7459 31.1866C38.7384 31.1904 38.7289 31.1942 38.7214 31.198C37.6701 31.6434 36.651 32.1492 35.6865 32.7645C34.3201 33.6364 33.0895 34.6594 32.1553 35.9994C31.2474 37.3017 30.7567 38.7304 30.8624 40.3347C30.8756 40.5385 30.9115 40.7442 30.9096 40.9481C30.9021 42.5089 30.8983 44.0697 30.8756 45.6306C30.8417 48.0917 30.7605 50.5547 30.7605 53.0158C30.7605 55.5921 30.8303 58.1664 30.8719 60.7427C30.8907 61.9053 30.9134 63.0679 30.9379 64.2305C30.9398 64.3437 30.9455 64.4589 30.9681 64.5683C30.9945 64.6948 31.0549 64.8175 31.2135 64.8024C31.2984 64.7948 31.3456 64.7458 31.3758 64.6835C31.3947 64.6457 31.4079 64.6042 31.4135 64.5589C31.4249 64.4683 31.4286 64.3777 31.4267 64.2871C31.4003 62.3375 31.3531 60.3897 31.3494 58.4401C31.3418 55.0768 31.3569 51.7154 31.3701 48.3522C31.3777 46.4837 31.4607 44.6133 31.3475 42.7448C31.3437 42.6825 31.3475 42.6184 31.3475 42.5542C31.4437 42.6221 31.4947 42.7052 31.5419 42.7901C31.6683 43.0204 31.7816 43.2563 31.9175 43.4809C32.0099 43.6338 32.1081 43.781 32.2081 43.9282C32.9781 45.0493 33.9577 45.9722 35.0524 46.7819C36.9869 48.2125 39.1423 49.209 41.4071 49.9847C44.357 50.9945 47.3976 51.5588 50.4985 51.8136C53.5862 52.0665 56.6702 51.9966 59.7428 51.5644C61.9265 51.2568 64.0686 50.7755 66.1504 50.047C68.0075 49.3959 69.7817 48.573 71.3935 47.4292C72.7675 46.4554 73.9565 45.3097 74.77 43.8131C74.7888 43.7772 74.8228 43.7489 74.8832 43.6791C74.8832 43.8244 74.8908 43.9206 74.8813 44.0169C74.8247 44.6303 74.7643 45.2418 74.7039 45.8552C74.4604 48.3295 74.417 50.8152 74.3057 53.297C74.1698 56.3602 74.066 59.4234 73.9395 62.4866C73.8829 63.8417 73.8017 65.1949 73.7338 66.5501C73.73 66.618 73.7093 66.6954 73.7338 66.752C73.7659 66.8275 73.8301 66.9351 73.8904 66.9426C73.9735 66.9502 74.0792 66.8936 74.1452 66.8332C74.1962 66.786 74.2132 66.6897 74.2245 66.6124C74.2698 66.3425 74.3245 66.0726 74.3415 65.8008C74.4378 64.3003 74.5473 62.798 74.6114 61.2957C74.7435 58.1645 74.8473 55.0315 74.9681 51.9004C75.0247 50.3962 75.0908 48.8938 75.155 47.3915C75.2248 45.7401 75.2984 44.0905 75.372 42.4391C75.3777 42.3145 75.3984 42.1899 75.4249 42.0691C75.5381 41.5577 75.5834 41.0462 75.5645 40.5328C75.5626 40.4743 75.5589 40.4139 75.5551 40.3554C75.54 40.1346 75.5155 39.9138 75.4758 39.6911C75.4117 39.323 75.3154 38.9682 75.1965 38.6266C75.1739 38.5605 75.1474 38.4964 75.1229 38.4322C74.802 37.5867 74.3283 36.8147 73.7432 36.0975C72.6788 34.7915 71.3689 33.7742 69.9345 32.9079C68.0906 31.7944 66.1126 30.9809 64.0573 30.3505C63.8874 30.2977 63.7176 30.2392 63.5458 30.1826C63.5439 29.203 63.7591 28.316 64.2102 27.4912C64.3574 27.2232 64.5329 26.9646 64.733 26.7344C65.6559 25.6718 66.8449 25.3811 68.1623 25.8813C68.536 26.0228 68.9022 26.1832 69.2796 26.3097C70.1157 26.5909 70.9688 26.6947 71.837 26.4645C73.1959 26.104 74.3491 25.0471 74.1037 23.2163C74.0433 22.7652 73.9678 22.3104 73.8357 21.8782C73.5809 21.0515 73.2846 20.2362 72.9996 19.419C72.6788 18.4998 72.6297 17.5712 72.8769 16.6275C73.094 15.8009 73.5979 15.1195 74.8379 15.4215C75.3211 15.5385 75.825 15.5914 76.3233 15.631C77.1311 15.6952 77.8275 15.4045 78.4088 14.8553C79.2996 14.0154 79.8885 12.9906 80.0451 11.777C80.164 10.8654 80.1678 9.93686 80.215 9.01583C80.2225 8.87617 80.2603 8.65912 80.0753 8.64402C79.847 8.62515 79.8885 8.86484 79.8734 9.00639C79.8036 9.73303 79.7375 10.4597 79.6903 11.1863C79.6035 12.481 79.1109 13.5908 78.1899 14.5024C77.6878 14.9988 77.0839 15.263 76.3629 15.1799C75.9684 15.1346 75.574 15.0724 75.1814 15.0082C74.9681 14.9742 74.7586 14.9119 74.5454 14.878C73.7564 14.7477 73.1204 15.0139 72.6901 15.6801C72.4957 15.9802 72.3579 16.3312 72.2598 16.6766C71.9597 17.726 72.0257 18.7735 72.3636 19.8077C72.5825 20.4796 72.8128 21.1478 73.0128 21.8253C73.194 22.4368 73.3375 23.0597 73.3412 23.7051C73.3431 24.3997 73.0525 24.9414 72.4693 25.3094C72.2598 25.4415 72.0295 25.5529 71.7936 25.6321C71.1594 25.8473 70.5102 25.8284 69.8704 25.668C69.4401 25.5585 69.0211 25.4057 68.6021 25.2603C67.8905 25.0131 67.1715 24.8885 66.4203 25.0565C65.4049 25.283 64.6575 25.8869 64.0913 26.7287C63.5043 27.5988 63.2118 28.5745 63.1325 29.6164C63.1212 29.7579 63.1061 29.8976 63.091 30.0523C62.4229 29.8938 61.8038 29.7371 61.1829 29.6031C59.32 29.1992 57.4364 28.9463 55.5359 28.7972C54.1128 28.6859 52.6897 28.6991 51.2667 28.7821C51.0194 28.7972 50.7741 28.8595 50.5287 28.9105C50.4778 28.9218 50.4381 28.9803 50.3928 29.0162C54.7036 29.0709 58.9614 29.3729 63.0759 30.5449C63.2382 31.2112 63.3911 31.8359 63.5402 32.4512C55.8209 30.4675 48.1487 30.4977 40.4936 32.9343C40.2671 32.7229 40.0652 32.487 39.9066 32.2209C39.75 31.9604 39.6349 31.6717 39.5745 31.3471C39.6632 31.3055 39.7217 31.2716 39.7859 31.247C41.8412 30.477 43.9437 29.8938 46.1217 29.5956C46.3935 29.5578 46.6615 29.5031 46.9295 29.4427C47.0956 29.4069 47.2598 29.3691 47.4259 29.3332C47.4901 29.32 47.5429 29.2634 47.6014 29.2257C47.5939 29.1992 47.5863 29.1747 47.5788 29.1483C46.6615 29.1219 45.7556 29.2238 44.8591 29.4238C43.9701 29.6239 43.0736 29.7975 42.1941 30.0316C41.3108 30.2656 40.4445 30.5581 39.5499 30.8318C39.533 30.4524 39.5952 30.1146 39.716 29.7956C39.8953 29.3163 40.0803 28.835 40.3124 28.3801C40.7956 27.4327 40.2973 26.3323 39.516 25.8983C39.0932 25.6623 38.6478 25.5019 38.1684 25.4283C37.3096 25.2962 36.466 25.4057 35.6186 25.5359C35.1713 25.6038 34.7126 25.6623 34.2616 25.6472C33.5198 25.6208 33.1518 25.283 32.9612 24.562C32.8026 23.9599 32.8423 23.3654 33.0385 22.7785C33.2594 22.1179 33.6255 21.5479 34.0879 21.0326C34.6371 20.4193 35.2637 19.8889 35.9036 19.3737C36.5528 18.8527 37.2058 18.3356 37.8249 17.7826C38.2043 17.4429 38.5477 17.056 38.8705 16.6577C39.2517 16.1897 39.2366 15.6725 38.9365 15.1592C38.6874 14.7308 38.3175 14.4344 37.8872 14.208C37.1096 13.8003 36.2735 13.6493 35.4053 13.7078C34.1068 13.7946 32.8649 14.1249 31.6872 14.6704C31.0059 14.9874 30.3547 15.3668 29.6828 15.7027C29.0373 16.0255 28.3636 16.2671 27.6294 16.301C26.7536 16.3407 26.0817 15.9915 25.6061 15.2611C25.1626 14.5779 25.0475 13.821 25.1532 13.0302C25.3098 11.8563 25.7873 10.7994 26.4101 9.80663C27.1236 8.67233 28.0144 7.67958 28.909 6.68872C29.2676 6.29237 29.6262 5.89414 29.9659 5.47892C30.4755 4.85421 30.6926 4.11625 30.719 3.32356C30.7322 2.9291 30.6812 2.53842 30.4774 2.18359C30.4566 2.37233 30.4529 2.56107 30.4566 2.74791C30.4793 3.7501 30.1716 4.6315 29.4846 5.36945C29.1978 5.67709 28.8939 5.97152 28.607 6.28105C27.9332 7.00768 27.2444 7.72299 26.6026 8.47605C25.7684 9.45559 25.1324 10.5597 24.7172 11.7846C24.3775 12.7887 24.251 13.8059 24.5888 14.8383C24.9814 16.0613 26.0704 17.2994 27.9936 17.0447ZM41.6713 33.0249C44.2495 32.2134 46.8955 31.7793 49.5869 31.5773C52.0367 31.3924 54.4846 31.4282 56.9269 31.6717C59.1653 31.8944 61.3697 32.2945 63.5288 32.9381C63.7081 32.9909 63.8554 33.0551 63.9516 33.242C64.5631 34.4235 65.5351 35.2539 66.6335 35.9579C66.7392 36.0258 66.8525 36.0806 66.9582 36.1466C67.0601 36.2089 67.1582 36.275 67.279 36.3165C67.196 36.0938 67.0129 35.9654 66.843 35.822C66.4146 35.4653 65.9673 35.1237 65.5729 34.733C65.2105 34.3744 64.9066 33.9573 64.582 33.5628C64.5197 33.4873 64.4838 33.3892 64.4253 33.2854C64.4838 33.2778 64.5197 33.2627 64.5461 33.2722C66.4675 33.9271 68.2907 34.767 69.876 36.0636C70.5328 36.6015 71.1123 37.213 71.5407 37.9509C72.3975 39.4325 72.356 40.9028 71.4388 42.3428C70.8405 43.2827 70.0195 43.9999 69.1079 44.6208C67.7716 45.5343 66.3052 46.1855 64.7802 46.7045C62.4946 47.484 60.141 47.9483 57.746 48.2144C54.813 48.5409 51.8782 48.5541 48.9433 48.2616C46.4671 48.0143 44.0268 47.5632 41.6562 46.7894C41.5505 46.7555 41.4448 46.7139 41.3618 46.6856C41.5298 46.278 41.6902 45.9156 41.828 45.5475C41.9337 45.2626 41.9318 44.9643 41.8431 44.6737C41.7279 44.2943 41.9525 44.0679 42.2017 43.8584C42.447 43.6526 42.7283 43.6319 42.9944 43.8017C43.1944 43.9282 43.3718 44.0943 43.553 44.2509C44.0475 44.6775 44.5703 44.6001 44.8723 44.0188C45.0082 43.7564 45.1913 43.6507 45.4649 43.6526C45.6216 43.6545 45.7782 43.6526 45.933 43.6526C45.9953 43.5073 45.8971 43.4563 45.8103 43.4054C45.3857 43.1638 44.844 43.3186 44.5986 43.7489C44.5703 43.798 44.5514 43.8527 44.5194 43.8999C44.3797 44.1056 44.1589 44.1396 43.9645 43.9791C43.8229 43.864 43.6946 43.7319 43.5549 43.6149C42.8509 43.026 42.1451 43.1393 41.6562 43.9188C41.6336 43.9565 41.6034 43.9905 41.5581 44.0471C41.2712 43.6923 40.8994 43.5243 40.4691 43.445C40.118 43.379 39.9312 43.1204 39.8312 42.7977C39.7217 42.4504 39.633 42.0956 39.5197 41.7502C39.4348 41.4916 39.3442 41.2293 39.2196 40.9877C38.9252 40.4177 38.4553 40.246 37.8438 40.4347C36.4226 40.8744 35.6337 42.7882 36.4358 44.0018C36.4849 44.0773 36.5264 44.1584 36.5849 44.2604C36.5339 44.2604 36.4981 44.2717 36.4811 44.2585C35.6148 43.63 34.8523 42.9015 34.3106 41.9672C33.45 40.4819 33.5085 39.0135 34.4295 37.5772C35.1014 36.5297 36.0432 35.7578 37.0775 35.0935C38.5025 34.1781 40.0576 33.5326 41.6713 33.0249ZM40.8843 46.5497C40.2426 46.2761 39.6198 46.0288 39.0139 45.7476C38.5402 45.5268 38.0835 45.2701 37.6248 45.0153C37.521 44.9587 37.4172 44.8662 37.3606 44.7643C37.1473 44.3887 36.9586 43.998 36.7529 43.6187C36.3018 42.7845 36.7793 41.1953 38.0627 40.8537C38.3779 40.7706 38.5893 40.8442 38.7629 41.1255C38.846 41.2595 38.912 41.4086 38.9611 41.5596C39.0913 41.9597 39.2215 42.3598 39.331 42.7675C39.5028 43.4092 39.8614 43.8206 40.5483 43.9414C41.1712 44.049 41.5656 44.7114 41.4279 45.3437C41.3354 45.7589 41.1315 46.127 40.8843 46.5497ZM40.0708 33.1117C39.5065 33.3646 38.963 33.593 38.4307 33.8478C37.287 34.3989 36.2112 35.0614 35.2694 35.9239C34.6258 36.5146 34.0747 37.1771 33.6972 37.9717C33.0499 39.3362 33.1046 40.6857 33.8048 42.0125C34.2748 42.9052 34.9486 43.63 35.7318 44.2528C36.1584 44.5925 36.6075 44.9096 37.0681 45.2022C38.4307 46.0685 39.9142 46.6743 41.4392 47.1839C43.1944 47.7727 44.995 48.1823 46.82 48.456C49.5775 48.8693 52.3538 49.0108 55.1395 48.8768C57.7743 48.7485 60.3826 48.4088 62.9381 47.7331C65.0633 47.1726 67.111 46.4233 68.9814 45.2437C70.0006 44.6001 70.9235 43.8451 71.6332 42.8581C72.3428 41.871 72.7278 40.7857 72.575 39.5533C72.4598 38.6228 72.0559 37.8131 71.4878 37.0808C70.6706 36.0277 69.6307 35.2407 68.4945 34.5688C67.2035 33.8044 65.8276 33.2306 64.4046 32.7664C64.1724 32.6909 64.0328 32.5719 63.9724 32.3436C63.8478 31.8717 63.7176 31.3999 63.593 30.9281C63.5779 30.8677 63.5911 30.7978 63.5911 30.711C63.6874 30.7318 63.7648 30.7412 63.8384 30.7639C66.039 31.432 68.1491 32.3058 70.095 33.5477C71.4105 34.3876 72.6033 35.369 73.5564 36.6166C73.6073 36.6826 73.6545 36.7506 73.7036 36.8166C74.2528 37.5753 74.6775 38.4001 74.9021 39.3211C75.2588 40.7801 75.055 42.1711 74.3755 43.4998C73.7621 44.6982 72.8694 45.6646 71.8332 46.5063C70.412 47.6576 68.8153 48.5013 67.1262 49.1826C65.0557 50.0168 62.9079 50.5679 60.711 50.9378C57.9121 51.4097 55.0942 51.572 52.267 51.4531C51.9593 51.4399 51.6498 51.4267 51.3422 51.4059C47.7769 51.1756 44.2891 50.5358 40.9258 49.3015C38.8176 48.5277 36.8208 47.5425 35.0429 46.1515C33.9935 45.3305 33.0593 44.4 32.3704 43.2506C32.008 42.6467 31.7438 42.0427 31.5758 41.4425C31.0927 39.7099 31.4211 37.9962 32.5535 36.3089C33.3462 35.1274 34.3993 34.2064 35.5638 33.4081C36.6019 32.6965 37.7116 32.1171 38.8648 31.6188C38.9252 31.5924 38.9894 31.5735 39.0932 31.5377C39.1725 31.8774 39.3102 32.1699 39.4858 32.4323C39.65 32.6795 39.8481 32.9022 40.0708 33.1117Z" fill="black"/>
<path d="M76.1852 84.5537C75.7322 83.2363 75.0207 82.1039 73.8053 81.3565C71.699 80.0617 69.4266 79.5125 66.9655 79.9126C64.3194 80.343 61.9187 81.364 59.7633 82.9607C59.0121 83.5175 58.3723 84.1686 57.8948 84.9783C57.5777 85.5181 57.2361 86.0447 56.9247 86.5882C56.7888 86.8241 56.6888 87.0808 56.5963 87.3375C56.5397 87.4942 56.5076 87.6697 56.6982 87.8528C56.7511 87.7433 56.7813 87.6735 56.8153 87.6074C56.9342 87.3753 57.0304 87.1261 57.1795 86.9147C57.6004 86.3202 58.0515 85.7465 58.4799 85.1538C58.8838 84.5933 59.3707 84.1196 59.9124 83.6968C61.6884 82.3115 63.6645 81.3357 65.8406 80.7506C68.4772 80.0429 70.9686 80.3505 73.3127 81.7528C73.6712 81.968 74.0298 82.2171 74.3073 82.5229C75.5435 83.8874 76.1531 85.5181 76.021 87.3488C75.8795 89.3192 74.983 90.9744 73.5373 92.3031C72.5992 93.1619 71.514 93.8225 70.3287 94.2962C68.5358 95.0134 66.6635 95.2908 64.7403 95.2625C63.3776 95.2418 62.0432 94.9926 60.7089 94.7548C59.8218 94.5963 58.9348 94.4396 58.0269 94.5095C57.0927 94.5812 56.2377 94.8662 55.5224 95.4852C55.0845 95.8646 54.6542 96.2591 54.256 96.6799C52.7027 98.3182 51.1437 99.9488 49.5055 101.502C47.9428 102.986 46.2328 104.265 44.37 105.343C43.6358 105.768 42.8696 106.113 42.0391 106.3C41.2106 106.487 40.416 106.492 39.6629 106.262C39.2496 106.136 38.8457 105.939 38.4569 105.66C37.836 105.215 37.4019 104.654 37.2188 103.916C37.1377 103.588 37.0829 103.242 37.0791 102.904C37.0584 101.479 37.5604 100.23 38.4173 99.1109C39.544 97.6387 40.986 96.5705 42.6638 95.808C43.8887 95.2512 45.1495 94.7813 46.4253 94.3585C47.8767 93.8772 49.313 93.3676 50.6794 92.675C52.4555 91.7747 54.0503 90.6328 55.4507 89.2305C55.596 89.0852 55.7413 88.938 55.8829 88.787C55.9433 88.7209 55.9924 88.6454 56.0471 88.5737C55.6168 88.7209 55.3035 89.0059 54.9751 89.2664C53.2746 90.6159 51.4495 91.7464 49.4697 92.5976C49.0393 92.7825 48.6052 92.9581 48.1598 93.1147C47.4219 93.3752 46.6801 93.6205 45.9384 93.8715C45.5138 94.015 45.0891 94.1603 44.6682 94.3132C43.3716 94.7813 42.0863 95.2833 40.9067 96.0175C39.3817 96.9668 38.1096 98.171 37.2207 99.7469C36.6356 100.781 36.3469 101.902 36.4016 103.091C36.4431 103.982 36.6922 104.782 37.2377 105.432C37.2698 105.469 37.3 105.505 37.3339 105.541C37.4812 105.702 37.6472 105.853 37.8341 105.992C38.9797 106.847 40.2575 107.164 41.673 106.919C42.6638 106.747 43.5773 106.377 44.4436 105.881C46.1894 104.881 47.8201 103.718 49.3092 102.361C51.1739 100.664 52.9197 98.8485 54.641 97.0083C55.0449 96.578 55.4941 96.1873 55.9471 95.808C56.3547 95.4664 56.8436 95.2739 57.3664 95.1682C58.0477 95.0285 58.7271 95.0511 59.4066 95.1644C60.4522 95.3399 61.4921 95.5419 62.5377 95.7079C64.2741 95.9835 66.0124 95.9665 67.7449 95.6664C69.3322 95.3928 70.8346 94.8888 72.2048 94.0188C73.4806 93.2091 74.6206 92.2654 75.3944 90.9367C76.3532 89.2928 76.8741 87.5583 76.4683 85.6389C76.3947 85.2765 76.306 84.9085 76.1852 84.5537Z" fill="black"/>
<path d="M31.4187 65.6767C31.4092 65.6616 31.3998 65.6446 31.3885 65.6295C31.3564 65.5842 31.2941 65.5578 31.2224 65.5068C31.1771 65.8617 31.2677 66.1542 31.3771 66.4411C31.6603 67.1734 32.0962 67.8113 32.619 68.3907C33.391 69.2495 34.295 69.9402 35.267 70.5385C35.4312 70.6385 35.5954 70.7386 35.7634 70.8348C35.803 70.8575 35.8445 70.8782 35.8842 70.9009C37.8923 72.0333 40.0458 72.7977 42.2729 73.3658C45.906 74.2925 49.6053 74.668 53.346 74.6548C55.2617 74.6492 57.1717 74.5208 59.0741 74.2811C62.0713 73.9018 64.9948 73.2318 67.7881 72.0541C67.8636 72.022 67.9485 72.0088 68.0617 71.9786C68.0466 72.0465 68.0296 72.1126 68.0108 72.1767C67.8805 72.6203 67.6446 72.9713 67.3577 73.2941C66.9199 73.7829 66.3971 74.1641 65.8346 74.4963C64.9174 75.038 63.9379 75.4381 62.9262 75.7627C60.4594 76.5535 57.9191 76.9461 55.3428 77.1254C53.4536 77.2575 51.5624 77.2613 49.6713 77.1499C47.3801 77.014 45.1133 76.7102 42.8825 76.1628C41.3632 75.7891 39.8797 75.3097 38.4831 74.5907C37.6998 74.1868 36.96 73.7187 36.3428 73.077C35.8389 72.5523 35.5048 71.9446 35.4255 71.2104C35.4161 71.116 35.3802 71.0236 35.3576 70.9311C35.3217 70.9311 35.284 70.9311 35.2481 70.9311C35.2179 71.0349 35.1613 71.1387 35.1651 71.2425C35.167 71.3218 35.1689 71.401 35.1707 71.4822C35.1764 71.6634 35.1896 71.8465 35.2311 72.0201C35.3425 72.4957 35.6124 72.8939 35.9276 73.2601C36.3145 73.7112 36.7731 74.0792 37.2638 74.4076C37.2959 74.4284 37.3261 74.451 37.3582 74.4718C37.462 74.5397 37.5677 74.6039 37.6734 74.668C38.5604 75.2059 39.5117 75.6117 40.4912 75.9496C40.5176 75.959 40.5422 75.9684 40.5667 75.976C43.26 76.8913 46.0363 77.3405 48.8541 77.5481C48.9787 77.5576 49.1032 77.567 49.2278 77.5746C49.4146 77.5878 49.6034 77.5991 49.7921 77.6085C51.2831 77.6916 52.776 77.6954 54.2689 77.6255C55.6467 77.5614 57.015 77.4368 58.372 77.2386C58.4626 77.2254 58.5532 77.2141 58.6438 77.199C59.5686 77.0555 60.4878 76.8762 61.4012 76.6517C62.8772 76.2893 64.3134 75.8137 65.6591 75.0927C66.3556 74.719 67.0105 74.2868 67.5597 73.713C68.0429 73.2091 68.4109 72.641 68.5015 71.9314C68.526 71.7464 68.6223 71.6634 68.7789 71.5879C69.732 71.1198 70.6455 70.5857 71.4929 69.9402C72.2215 69.3853 72.8934 68.772 73.4237 68.0189C73.4954 67.9189 73.5577 67.8037 73.5898 67.6867C73.6068 67.6263 73.569 67.5112 73.5181 67.481C73.4539 67.4433 73.3331 67.4319 73.2708 67.4678C73.1765 67.5206 73.1029 67.6188 73.0349 67.7075C72.3385 68.5945 71.5024 69.3287 70.5663 69.9516C68.9016 71.0613 67.0709 71.8163 65.1722 72.407C61.6334 73.5092 57.9983 74.0226 54.301 74.1056C51.7663 74.1622 49.2448 74.0188 46.7346 73.6526C44.064 73.2639 41.4538 72.6505 38.936 71.6672C37.294 71.0255 35.7313 70.2403 34.3233 69.1664C33.5835 68.6021 32.9229 67.9717 32.3737 67.2451C32.0623 66.8355 31.7867 66.3939 31.5546 65.9183C31.5149 65.8409 31.4696 65.756 31.4187 65.6767Z" fill="black"/>
<path d="M51.3569 19.3322C51.8476 19.906 52.393 20.4212 52.9724 20.9025C53.3405 21.2082 53.6953 21.5291 54.0501 21.8499C54.4559 22.2142 54.8541 22.586 55.2561 22.9541C55.2788 22.9352 55.2995 22.9182 55.3222 22.8993C55.2184 22.754 55.1297 22.5955 55.0089 22.4671C54.4408 21.8594 53.8708 21.2554 53.2914 20.659C52.8554 20.2098 52.3911 19.7871 51.9627 19.3303C51.2059 18.5244 50.768 17.5638 50.6434 16.4615C50.5264 15.431 50.6038 14.4383 51.1228 13.5097C51.5777 12.6963 52.2609 12.2659 53.1951 12.2169C53.7161 12.1904 54.2162 12.2924 54.7164 12.4075C55.2731 12.5339 55.8337 12.6378 56.4074 12.6208C57.0076 12.6019 57.587 12.5 58.1004 12.1603C58.6043 11.8262 58.827 11.3562 58.7459 10.7542C58.6892 10.3427 58.4948 9.99356 58.1891 9.72178C57.9702 9.5255 57.7267 9.35186 57.4794 9.19144C56.9453 8.84416 56.3886 8.52709 55.862 8.16849C54.7031 7.37957 53.9425 6.30378 53.6141 4.93355C53.4669 4.31828 53.5066 3.71055 53.7293 3.11792C53.9916 2.42337 54.6012 2.09686 55.3392 2.22331C55.8676 2.3139 56.3319 2.54605 56.783 2.81783C57.3813 3.17831 58.0079 3.4784 58.6892 3.64071C58.9629 3.70488 59.2573 3.75207 59.5329 3.71998C61.1409 3.53125 62.2224 1.74014 61.6618 0.222708C61.643 0.169862 61.626 0.101917 61.5863 0.073607C61.5278 0.0339724 61.4467 0.0226483 61.3768 0C61.3561 0.0660575 61.3146 0.134002 61.3183 0.198173C61.3334 0.537897 61.3882 0.879509 61.3768 1.21923C61.3315 2.60267 59.9915 3.56711 58.6704 3.17642C58.0664 2.99713 57.4983 2.7329 56.9585 2.41016C56.4754 2.12139 55.9696 1.8968 55.4109 1.79677C54.4767 1.62879 53.6443 2.09308 53.3122 2.9858C53.0668 3.6426 53.0121 4.32205 53.1706 5.00339C53.4726 6.29623 54.0935 7.40977 55.1448 8.24021C55.6883 8.67052 56.2848 9.03101 56.8585 9.42358C57.1322 9.61043 57.4115 9.78407 57.6795 9.97846C57.8947 10.1351 58.0551 10.3408 58.1495 10.5956C58.3174 11.0543 58.1929 11.4393 57.7739 11.6809C57.6078 11.7771 57.4228 11.8488 57.2379 11.896C56.6773 12.0395 56.1073 12.0244 55.5411 11.9262C55.0693 11.8451 54.6031 11.7356 54.1332 11.6488C53.5047 11.5336 52.8818 11.5771 52.276 11.7752C51.455 12.0432 50.9284 12.6378 50.5472 13.3851C50.1471 14.1703 50.0376 15.0083 50.0753 15.8765C50.1301 17.1655 50.5038 18.3357 51.3569 19.3322Z" fill="black"/>
<path d="M72.618 85.6955C73.4578 86.8506 73.4201 88.1717 72.5745 89.3192C71.8894 90.2516 71.0307 90.9877 69.9907 91.5067C69.0018 92.0012 67.9392 92.2503 66.8672 92.4749C66.1009 92.6353 65.3403 92.5995 64.5797 92.4277C64.5627 92.4239 64.5457 92.4202 64.5287 92.4164C64.1739 92.3334 63.8115 92.2899 63.451 92.2333C63.3736 92.2201 63.2868 92.205 63.2151 92.2277C63.1377 92.2522 63.015 92.3164 63.0132 92.3673C63.0113 92.4504 63.0736 92.5523 63.1396 92.6146C63.2019 92.6731 63.3 92.6957 63.3869 92.7259C63.5813 92.792 63.7775 92.8524 63.9738 92.9128C64.2437 92.9958 64.5155 93.0619 64.7873 93.1109C65.3856 93.2223 65.9914 93.2468 66.6067 93.1355C67.1106 93.0449 67.6089 92.9184 68.1053 92.7976C68.7866 92.6316 69.4453 92.4032 70.07 92.0955C70.2418 92.0106 70.4116 91.9219 70.5777 91.8257C71.6705 91.1915 72.5764 90.3535 73.2672 89.2966C73.7428 88.5719 73.8976 87.766 73.7655 86.9091C73.6371 86.0881 73.2162 85.4181 72.6614 84.8273C72.1593 84.2913 71.6101 83.8365 71.0175 83.4647C70.1851 82.9438 69.2603 82.5889 68.2393 82.4228C65.629 82.0001 63.3453 82.6833 61.4051 84.4895C61.2919 84.5952 61.1862 84.7065 61.0786 84.816C61.0899 84.8292 61.1013 84.8424 61.1126 84.8556C61.2221 84.7783 61.3296 84.7028 61.4391 84.6254C61.7543 84.4008 62.0582 84.1573 62.3884 83.9554C64.3041 82.7777 66.3462 82.2983 68.5677 82.8966C69.4566 83.1363 70.2531 83.5137 70.959 84.0233C71.5818 84.4763 72.1386 85.0349 72.618 85.6955Z" fill="black"/>
<path d="M82.861 66.6394C82.7723 66.6508 82.6855 66.6866 82.6025 66.7244C82.0948 66.9546 81.5852 67.1792 81.0813 67.4208C79.3694 68.2418 78.2389 69.5724 77.601 71.3541C77.1952 72.4884 77.0876 73.6094 77.5519 74.7513C77.6274 74.9344 77.635 75.1457 77.6727 75.3458C77.6576 75.3477 77.6425 75.3515 77.6293 75.3534C77.6444 75.5232 77.6557 75.6931 77.6784 75.8629C77.6972 75.9969 77.7576 76.1045 77.9105 76.1158C78.0596 76.1272 78.137 76.0328 78.188 75.9082C78.2087 75.8554 78.2314 75.8025 78.2484 75.7478C78.4126 75.2288 78.7372 74.8287 79.1713 74.5097C79.4185 74.3285 79.6582 74.1341 79.9054 73.9511C80.6 73.4339 81.0341 72.7507 81.2587 71.9165C81.4267 71.2955 81.4908 70.6633 81.5342 70.0272C81.5965 69.1043 81.9306 68.3041 82.5496 67.6209C82.695 67.4604 82.8365 67.2962 82.9781 67.132C83.0215 67.0811 83.0724 67.0301 83.1007 66.9697C83.1819 66.7829 83.0611 66.613 82.861 66.6394ZM81.8853 67.736C81.4002 68.3796 81.136 69.1062 81.0567 69.9083C81.0039 70.4292 80.9265 70.9464 80.8472 71.4635C80.8189 71.6428 80.7585 71.8165 80.7057 71.9901C80.5415 72.5242 80.2716 72.9904 79.8337 73.349C79.7186 73.4434 79.6129 73.5453 79.4978 73.6396C79.0693 73.9926 78.6409 74.3455 78.1785 74.7249C78.22 74.5833 78.2484 74.4663 78.2918 74.3549C78.6315 73.4868 78.975 72.6186 79.3128 71.7485C79.3581 71.6315 79.5016 71.4805 79.343 71.3861C79.1656 71.2823 79.0901 71.4824 79.0184 71.5994C78.5994 72.2826 78.3031 73.0206 78.0351 73.7718C77.9634 73.9737 77.8898 74.1756 77.7954 74.4361C77.7444 74.3304 77.7105 74.2813 77.6954 74.2247C77.5274 73.5943 77.5349 72.9621 77.6991 72.3336C78.086 70.8558 78.7598 69.5516 79.9923 68.5929C80.5717 68.1418 81.2247 67.819 81.8872 67.5152C81.9155 67.502 81.9513 67.5057 82.0476 67.4944C81.9721 67.6058 81.9325 67.6737 81.8853 67.736Z" fill="black"/>
<path d="M31.3357 83.1879C31.2602 83.1955 31.1885 83.2427 31.1149 83.2729C30.7186 83.439 30.3109 83.5296 29.8806 83.4352C29.4031 83.3314 28.9256 83.2257 28.4481 83.1124C28.0933 83.0275 27.7441 82.9275 27.3893 82.8407C26.6589 82.6614 25.9643 82.7784 25.2981 83.1087C25.1037 83.2049 24.9112 83.3068 24.7357 83.4314C23.9467 83.9901 23.2937 84.6865 22.7351 85.4716C22.6633 85.5717 22.6105 85.6906 22.5709 85.8076C22.4123 86.2813 22.6011 86.5852 23.0993 86.5984C23.5428 86.6116 23.9864 86.5644 24.4299 86.5512C24.8621 86.538 25.2943 86.5267 25.7265 86.5324C26.0549 86.5361 26.3852 86.5701 26.7136 86.5909C26.7136 86.5814 26.7155 86.572 26.7155 86.5626C26.8287 86.5626 26.9439 86.5626 27.0571 86.5626C27.98 86.555 28.8407 86.3021 29.6258 85.834C30.3354 85.4113 30.845 84.8092 30.9998 83.9674C31.0262 83.8221 31.1149 83.7617 31.2282 83.6956C31.3339 83.6334 31.4414 83.5597 31.5169 83.4673C31.5528 83.4239 31.5415 83.3106 31.5094 83.2521C31.4867 83.2106 31.3942 83.1823 31.3357 83.1879ZM30.4676 84.494C29.9693 85.1131 29.3087 85.4622 28.5632 85.6944C27.7422 85.951 26.9023 85.9567 26.0606 85.9114C25.4094 85.8774 24.764 85.8869 24.1204 85.9926C23.8524 86.0379 23.5768 86.0548 23.305 86.0775C23.2295 86.0832 23.154 86.0662 23.0276 86.0548C23.0823 85.9246 23.1087 85.8133 23.171 85.7302C23.7372 84.9677 24.3771 84.277 25.1848 83.7598C25.9605 83.2634 26.791 83.1521 27.6743 83.3974C28.014 83.4918 28.3518 83.5975 28.6934 83.6824C29.3672 83.8504 30.0448 84.0014 30.7752 83.9146C30.728 84.1599 30.6016 84.3279 30.4676 84.494Z" fill="black"/>
<path d="M37.4509 89.4329C37.4452 89.6707 37.4697 89.9104 37.498 90.1482C37.5415 90.5389 37.7094 90.8673 38.0284 91.107C38.4455 91.4203 39.0872 91.3146 39.3873 90.8918C39.4854 90.7521 39.5892 90.6163 39.7063 90.4917C39.9629 90.218 40.2291 89.9519 40.4914 89.6839C40.984 89.1781 41.0557 88.5043 40.6839 87.906C40.6235 87.8098 40.5631 87.7135 40.514 87.6097C40.4046 87.3738 40.4197 87.3077 40.6179 87.1379C40.7651 87.0114 40.9255 86.9019 41.0652 86.7679C41.3615 86.4829 41.4068 86.2055 41.2294 85.8394C41.0029 85.3751 40.6443 85.0561 40.1517 84.9051C39.9025 84.8277 39.644 84.7654 39.3854 84.7352C38.6946 84.6579 38.002 84.6031 37.3112 84.5427C37.23 84.5352 37.147 84.5616 37.0658 84.5729C37.0658 84.5918 37.064 84.6107 37.064 84.6296C37.1338 84.6579 37.2017 84.6994 37.2753 84.7126C37.6547 84.79 38.0341 84.8636 38.4134 84.9353C38.9173 85.0297 39.4232 85.1052 39.9214 85.2203C40.3404 85.3184 40.6556 85.5751 40.8387 85.9752C40.9444 86.2017 40.9274 86.2904 40.733 86.4509C40.5839 86.5735 40.4178 86.6773 40.2668 86.7962C39.9441 87.0492 39.861 87.3096 39.9931 87.7003C40.0479 87.8607 40.1271 88.0136 40.2083 88.1646C40.4065 88.5383 40.3687 88.8818 40.0818 89.1951C40.0139 89.2706 39.9252 89.3291 39.861 89.4083C39.5553 89.7877 39.2382 90.1595 38.9551 90.5577C38.755 90.8409 38.4115 90.9145 38.1907 90.6502C38.0794 90.5162 37.9944 90.3388 37.9623 90.169C37.917 89.9255 37.9095 89.6688 37.9284 89.4216C37.9907 88.6251 37.6792 87.9758 37.1678 87.404C36.9715 87.1832 36.7318 87.002 36.5355 86.7811C36.2562 86.4678 35.975 86.1527 35.7409 85.8054C35.6126 85.6166 35.5427 85.3675 35.5126 85.1373C35.4691 84.8013 35.6031 84.6994 35.9466 84.7069C36.0693 84.7088 36.2052 84.7145 36.3128 84.6692C36.3864 84.639 36.4713 84.5182 36.4676 84.4446C36.4638 84.371 36.3656 84.2747 36.2864 84.2389C36.1863 84.1936 36.0637 84.2011 35.9523 84.186C35.4276 84.1124 35.0671 84.3748 34.9765 84.8976C34.9199 85.2241 34.9916 85.5317 35.1256 85.828C35.3578 86.3452 35.7126 86.7736 36.1222 87.1586C36.3222 87.3455 36.5279 87.5266 36.7167 87.7248C37.1659 88.2042 37.4697 88.7459 37.4509 89.4329Z" fill="black"/>
<path d="M36.5999 80.8376C36.783 80.2789 36.7018 79.7542 36.3772 79.273C36.162 78.9521 35.9356 78.635 35.6978 78.3312C35.3656 77.9084 35.175 77.4498 35.2599 76.9024C35.2599 76.708 35.2731 76.5136 35.258 76.3211C35.1919 75.5303 34.7711 75.0151 34.0199 74.7697C33.8576 74.7169 33.6896 74.6791 33.5216 74.6584C32.8667 74.5772 32.3137 74.7886 31.9457 75.3378C31.706 75.6926 31.5361 76.0965 31.3568 76.4891C31.2776 76.6627 31.2417 76.859 31.2077 77.0496C31.1341 77.48 31.2266 77.8876 31.4286 78.267C31.6324 78.6482 31.9646 78.8332 32.3987 78.8672C32.6459 78.8879 32.7931 79.0559 32.878 79.2975C32.9932 79.6316 33.1234 79.96 33.2631 80.2827C33.6953 81.2736 34.5427 81.5944 35.5317 81.6303C36.0752 81.651 36.4319 81.349 36.5999 80.8376ZM33.7727 80.1128C33.6235 79.7939 33.499 79.4617 33.3857 79.1295C33.2291 78.6709 32.9233 78.3934 32.444 78.3614C32.0476 78.3349 31.8249 78.0556 31.5493 77.8442C31.5097 77.814 31.4927 77.7461 31.4814 77.6932C31.4644 77.6159 31.4493 77.5347 31.4569 77.4573C31.538 76.6401 31.8419 75.9153 32.4194 75.3265C32.6346 75.1076 32.9233 75.0226 33.2329 75.0302C33.6311 75.0396 33.9916 75.1717 34.3143 75.402C34.5936 75.6002 34.7201 75.8908 34.7503 76.2192C34.7711 76.4438 34.7541 76.6741 34.7541 77.0081C34.6522 77.5649 34.8635 78.133 35.2712 78.6482C35.4958 78.9332 35.7053 79.2333 35.9148 79.5296C36.1658 79.8863 36.2432 80.2733 36.1054 80.696C36.0186 80.964 35.845 81.1075 35.56 81.132C34.8598 81.1867 34.0709 80.7526 33.7727 80.1128Z" fill="black"/>
<path d="M70.1913 68.6377C70.0818 68.6396 69.9705 68.6906 69.8667 68.7359C69.4401 68.9227 69.0155 69.1171 68.5889 69.3078C68.0378 69.5512 67.4943 69.8173 66.9318 70.0325C65.5465 70.5591 64.114 70.9365 62.6702 71.2593C61.1263 71.6047 59.5711 71.8934 58.0235 72.2162C57.4932 72.3275 56.9685 72.4672 56.4419 72.5936C56.4476 72.6352 56.4513 72.6748 56.457 72.7163C56.725 72.7012 56.9949 72.705 57.261 72.671C58.367 72.5257 59.473 72.3747 60.5752 72.2143C62.4361 71.9425 64.2669 71.5367 66.0674 70.9913C67.4678 70.5666 68.8022 69.9891 70.0516 69.2266C70.1592 69.1624 70.2781 69.1058 70.3593 69.0152C70.4178 68.951 70.465 68.8189 70.4348 68.7529C70.4102 68.6868 70.2781 68.6359 70.1913 68.6377Z" fill="black"/>
<path d="M73.6067 47.6953C73.5576 47.8406 73.4897 47.9822 73.4652 48.1313C73.4104 48.4672 73.3651 48.807 73.3349 49.1486C73.1707 50.9774 73.1424 52.8119 73.1179 54.6465C73.099 56.0242 72.9933 57.4001 72.9311 58.7779C72.8952 59.5857 72.8631 60.3935 72.8348 61.2031C72.831 61.339 72.8329 61.4825 72.8763 61.607C72.9027 61.6863 73.0047 61.7731 73.0858 61.7882C73.1405 61.7996 73.2368 61.7033 73.2783 61.6335C73.3217 61.5599 73.3331 61.4598 73.3425 61.3711C73.4123 60.7256 73.4935 60.0821 73.5444 59.4347C73.6992 57.4454 73.7369 55.4524 73.7067 53.4555C73.6784 51.5436 73.7011 49.6299 73.7011 47.718C73.6709 47.7104 73.6388 47.7029 73.6067 47.6953Z" fill="black"/>
<path d="M50.5887 87.0243C49.1807 85.924 47.5614 85.3352 45.8118 85.0672C45.5702 85.0294 45.3078 85.0747 45.1021 84.886C45.0738 84.8614 45.0153 84.8633 44.97 84.8633C44.6416 84.8595 44.2283 85.1351 44.1207 85.4522C44.0603 85.6334 44.0395 85.8277 44.0112 85.9618C44.0546 86.8167 44.4623 87.3905 45.1116 87.8057C45.372 87.9718 45.674 87.9925 45.9684 87.8887C46.2685 87.783 46.5705 87.6774 46.8555 87.5358C47.2952 87.3188 47.7463 87.2621 48.2163 87.3735C48.824 87.5169 49.4261 87.6868 50.0357 87.8283C50.2414 87.8755 50.466 87.9076 50.6717 87.8812C50.9529 87.8453 51.0567 87.5773 50.8963 87.3414C50.8152 87.2187 50.7038 87.113 50.5887 87.0243ZM50.2659 87.3924C50.1395 87.3508 50.013 87.3055 49.8847 87.2678C49.3374 87.1149 48.7938 86.9507 48.2408 86.8186C47.7048 86.6903 47.182 86.745 46.68 86.996C46.4271 87.1225 46.1572 87.2206 45.8967 87.332C45.6249 87.4471 45.3833 87.3867 45.172 87.1942C44.7662 86.8243 44.485 86.4015 44.5906 85.8164C44.6492 85.4899 44.9889 85.2257 45.3078 85.2823C47.0159 85.5862 48.6428 86.1014 50.0659 87.1376C50.147 87.1961 50.2206 87.2621 50.298 87.3263C50.2867 87.3471 50.2773 87.3697 50.2659 87.3924Z" fill="black"/>
<path d="M38.6024 86.1915C38.2796 85.7555 37.8531 85.4648 37.3341 85.312C37.2737 85.2931 37.1982 85.3289 37.0566 85.3497C37.2397 85.5101 37.3662 85.6196 37.4907 85.731C37.6832 85.9065 37.8776 86.082 38.0645 86.2632C38.2155 86.4085 38.2608 86.584 38.2136 86.7935C38.1777 86.9483 38.1702 87.1087 38.1626 87.2673C38.1532 87.4239 38.1928 87.5655 38.3514 87.6372C38.5118 87.7089 38.6382 87.6296 38.7534 87.5277C38.793 87.4938 38.8175 87.4428 38.8572 87.3862C38.7741 87.3352 38.7119 87.2975 38.6439 87.2559C38.6722 87.0785 38.7043 86.9106 38.7251 86.7426C38.7477 86.5482 38.7251 86.3557 38.6024 86.1915Z" fill="black"/>
<path d="M61.2503 41.3714C61.4353 41.2109 61.5844 41.0014 61.7221 40.7957C61.875 40.5692 61.992 40.3201 62.1317 40.0861C62.2883 39.8237 62.5129 39.635 62.7847 39.501C63.1093 39.3406 63.2641 39.3953 63.3868 39.7388C63.4717 39.9747 63.5132 40.2257 63.6095 40.456C63.7001 40.673 63.6831 40.8542 63.5963 41.0694C63.2377 41.9621 63.2924 42.8322 63.8247 43.6475C64.0719 44.0269 64.4022 44.3232 64.84 44.4742C64.9042 44.4968 64.9778 44.4912 65.0628 44.5006C64.8042 44.2364 64.5418 44.0156 64.3361 43.7494C63.5038 42.6812 63.6227 41.2223 64.6117 40.3579C64.7948 40.1974 65.0269 40.071 65.2572 39.9936C65.7365 39.8351 65.963 39.937 66.282 40.3786C66.1971 40.4786 66.1065 40.5768 66.0253 40.6863C65.8215 40.958 65.6799 41.2506 65.7252 41.6035C65.7875 42.1074 66.1763 42.3585 66.6576 42.198C66.8633 42.1301 67.0577 42.0338 67.2615 41.9621C67.9523 41.7186 68.4638 42.0678 68.4581 42.7926C68.4525 43.5324 68.1788 44.1911 67.773 44.7988C67.7088 44.8951 67.6447 44.9932 67.5654 45.114C67.8674 45.1197 67.8919 45.114 68.0448 44.9706C68.2883 44.7403 68.4751 44.4723 68.5902 44.1552C68.8129 43.5381 68.9658 42.9133 68.8337 42.2641C69.364 41.9376 69.4603 41.9319 69.9963 42.132C70.2303 42.2188 70.4719 42.2867 70.7116 42.3585C70.8098 42.3868 70.9155 42.4132 71.0004 42.2547C70.94 42.2075 70.8796 42.1452 70.806 42.1093C70.6116 42.0168 70.4078 41.9414 70.2115 41.8489C69.7094 41.6148 69.2414 41.645 68.8111 42.0131C68.796 42.0263 68.7695 42.0225 68.7412 42.0301C68.7205 42.0112 68.6903 41.9942 68.6695 41.9697C68.2033 41.445 67.7711 41.328 67.1124 41.5563C66.9407 41.6167 66.7727 41.6884 66.5991 41.7451C66.3084 41.8375 66.1291 41.6828 66.1895 41.3789C66.2159 41.2487 66.2801 41.1185 66.3537 41.009C66.4349 40.8882 66.5462 40.7844 66.6519 40.6806C66.7821 40.5541 66.8369 40.3975 66.7406 40.2484C66.4877 39.8577 66.1895 39.5161 65.6705 39.501C65.1118 39.484 64.6513 39.7029 64.2587 40.0823C64.1757 40.1635 64.0908 40.2446 63.9926 40.339C63.8945 40.0295 63.8322 39.7615 63.7246 39.5123C63.517 39.0292 63.1358 38.9027 62.662 39.133C62.2468 39.3349 61.9486 39.652 61.7335 40.0559C61.5844 40.3371 61.4353 40.6202 61.2692 40.892C61.1314 41.1166 60.9577 41.294 60.652 41.1713C60.6161 41.1562 60.5671 41.177 60.5161 41.1826C60.7256 41.5073 60.9974 41.5903 61.2503 41.3714Z" fill="black"/>
<path d="M55.0507 44.4644C54.9281 44.5588 54.8846 44.6777 55.0168 44.8211C55.4697 44.5796 55.9151 44.3342 56.3681 44.1021C57.3609 43.5925 58.0252 42.796 58.4046 41.7617C58.6386 41.12 58.8292 40.4632 59.0368 39.8121C59.1274 39.5309 59.2142 39.2496 59.3181 38.9156C59.3766 38.9986 59.4011 39.025 59.4143 39.0534C59.8541 40.0367 59.9088 41.0483 59.6766 42.0939C59.4332 43.1961 58.7481 43.8605 57.7025 44.1983C57.4647 44.2757 57.2269 44.3568 56.9928 44.4456C56.872 44.4909 56.7512 44.5663 56.7965 44.7211C56.8418 44.8796 56.9796 44.8645 57.108 44.8381C57.2967 44.7985 57.4911 44.7702 57.676 44.7154C58.7009 44.4021 59.5483 43.8529 59.9541 42.8168C60.509 41.3994 60.4826 39.9895 59.7823 38.6155C59.7314 38.5155 59.671 38.4135 59.5974 38.3305C59.3879 38.0965 59.1425 38.1191 58.9859 38.3928C58.9123 38.5192 58.8632 38.6627 58.816 38.8023C58.5254 39.6894 58.2498 40.5821 57.9459 41.4654C57.6345 42.377 57.0947 43.1206 56.2568 43.6283C56.0322 43.7642 55.817 43.9133 55.6018 44.0624C55.4169 44.1945 55.23 44.3248 55.0507 44.4644Z" fill="black"/>
<path d="M52.1248 46.3645C51.9248 46.3192 51.7209 46.2909 51.5265 46.2324C51.2849 46.1587 51.2415 46.0795 51.2529 45.8322C51.2585 45.719 51.2774 45.6058 51.2736 45.4925C51.2642 45.1641 51.1283 44.9791 50.8037 44.915C50.6074 44.8753 50.396 44.8716 50.1978 44.898C49.8185 44.9527 49.492 45.1415 49.1843 45.3642C49.0503 45.4604 48.905 45.5454 48.7729 45.6303C48.569 45.4755 48.5577 45.2755 48.5067 45.0924C48.4445 44.8621 48.3992 44.6243 48.3029 44.4092C48.1746 44.1204 47.9311 44.0091 47.6272 44.0883C47.4442 44.1355 47.2573 44.2167 47.1063 44.3299C46.4722 44.8036 46.0003 45.4076 45.738 46.1625C45.6908 46.2965 45.6795 46.4437 45.6455 46.6211C45.7531 46.6079 45.8267 46.574 45.8739 46.5966C46.2476 46.7627 46.6345 46.908 46.9799 47.1194C47.3026 47.3176 47.6348 47.4214 48.0047 47.4459C48.4162 47.4742 48.7936 47.3553 49.1654 47.2119C49.558 47.059 49.9619 47.0005 50.3696 47.1119C50.7848 47.227 51.1981 47.3553 51.6001 47.5082C51.9625 47.646 52.3268 47.7177 52.7024 47.6233C53.1459 47.512 53.2459 47.1213 52.9269 46.7948C52.708 46.5664 52.4325 46.4343 52.1248 46.3645ZM51.7436 47.093C51.3265 46.9495 50.9056 46.8099 50.4772 46.6985C49.977 46.5702 49.4844 46.6306 49.005 46.8212C48.6426 46.9665 48.2671 47.0685 47.8745 47.0062C47.6971 46.9779 47.5046 46.9477 47.3573 46.8552C46.9308 46.5891 46.5099 46.3211 45.9909 46.2852C45.9947 46.2229 45.9852 46.1833 46.0003 46.1569C46.3193 45.5529 46.7591 45.0528 47.3177 44.6602C47.3366 44.647 47.3555 44.6357 47.3762 44.6243C47.7575 44.4035 47.8915 44.4582 47.9896 44.8886C48.0236 45.032 48.0406 45.1811 48.0745 45.3245C48.1029 45.4453 48.1312 45.5699 48.184 45.6812C48.3954 46.1304 48.7389 46.2324 49.1598 45.97C49.3051 45.8794 49.4334 45.7681 49.5769 45.6737C49.8656 45.4831 50.1714 45.334 50.53 45.351C50.781 45.3623 50.8244 45.4132 50.815 45.6643C50.815 45.6756 50.815 45.6869 50.8131 45.6982C50.6716 46.2531 50.9754 46.6136 51.6001 46.7476C51.7549 46.7816 51.9134 46.8004 52.0682 46.8363C52.2701 46.8835 52.4532 46.9665 52.6212 47.1685C52.2815 47.2704 52.0154 47.1874 51.7436 47.093Z" fill="black"/>
<path d="M52.3194 37.6715C52.3816 38.1075 52.5194 38.534 52.6345 38.9624C52.7232 39.2965 52.8025 39.6362 52.7195 39.9741C52.6496 40.2591 52.5213 40.529 52.4137 40.8026C52.2929 41.1084 52.1514 41.4085 52.0457 41.7199C51.9759 41.9237 52.0061 42.1332 52.1929 42.2766C52.3835 42.422 52.5911 42.3805 52.7685 42.2634C53.3178 41.8992 53.8764 41.5444 54.3973 41.1405C55.0051 40.6705 55.2316 40.0307 55.1051 39.2607C55.0504 38.9247 55.0277 38.5812 55.0334 38.2396C55.039 37.8583 55.1353 37.7791 55.5052 37.6809C55.6222 37.6507 55.7468 37.6054 55.8393 37.5318C55.9469 37.4469 55.9035 37.2978 55.7846 37.2638C55.3618 37.143 54.7503 37.5016 54.6654 37.9433C54.6219 38.1641 54.6163 38.3962 54.6219 38.6227C54.6314 38.919 54.671 39.2135 54.6955 39.5079C54.7276 39.8891 54.6408 40.2383 54.3766 40.5195C53.8821 41.048 53.2687 41.4066 52.5817 41.7727C52.6176 41.65 52.627 41.5859 52.6534 41.5293C52.7478 41.3216 52.8422 41.114 52.9478 40.9121C53.2781 40.2761 53.3593 39.6174 53.1555 38.9266C53.0517 38.5774 52.946 38.2283 52.8478 37.8772C52.7195 37.4148 52.7704 36.9751 53.0422 36.5693C53.5801 35.7672 54.7144 35.4916 55.56 35.9559C55.6241 35.9899 55.6864 36.0257 55.8034 36.0899C55.6977 35.7785 55.492 35.6558 55.2769 35.5633C54.5295 35.2425 53.8179 35.3595 53.1743 35.8162C52.5477 36.2616 52.2099 36.8845 52.3194 37.6715Z" fill="black"/>
<path d="M46.1346 42.5242C46.3422 42.1996 46.6385 42.1127 46.9915 42.1845C47.4369 42.2751 47.8823 42.3694 48.3221 42.4827C48.8713 42.6261 49.3224 42.4695 49.6583 42.0354C50.0094 41.5805 50.2547 41.0634 50.3868 40.5028C50.4321 40.3065 50.4359 40.0933 50.4189 39.8932C50.3793 39.4063 50.0943 39.2043 49.6206 39.3327C49.3922 39.3949 49.1676 39.4931 48.9619 39.612C48.3315 39.98 47.6936 40.0083 47.0311 39.7177C46.9065 39.663 46.782 39.6044 46.6499 39.5648C46.4215 39.4988 46.1912 39.4119 45.9572 39.3949C45.0966 39.3308 44.4624 39.7535 43.9981 40.4254C43.5206 41.1162 43.5131 41.8749 43.815 42.645C43.8339 42.694 43.8962 42.7261 43.9264 42.7544C43.9207 42.3543 43.8641 41.9523 43.917 41.5654C44.0963 40.2594 45.3514 39.5648 46.5555 40.0725C46.7556 40.1574 46.9556 40.2405 47.1594 40.3084C47.7351 40.4972 48.3032 40.4783 48.8524 40.2065C49.0562 40.1065 49.2525 39.9895 49.4583 39.8913C49.5885 39.829 49.7281 39.7837 49.8905 39.7196C50.0584 40.0348 50.0056 40.3084 49.9093 40.5594C49.7848 40.8878 49.6319 41.2087 49.4583 41.5145C49.1487 42.058 48.8675 42.1354 48.2598 41.9636C47.8238 41.8391 47.3746 41.7504 46.9273 41.6843C46.5781 41.6334 46.2384 41.7126 45.9949 41.9995C45.7798 42.2524 45.5665 42.4997 45.2381 42.6167C45.1928 42.6337 45.1419 42.7242 45.1475 42.7733C45.1551 42.8262 45.2192 42.8903 45.2721 42.9111C45.3287 42.9356 45.4061 42.9262 45.4721 42.913C45.742 42.862 45.9855 42.7582 46.1346 42.5242Z" fill="black"/>
<path d="M38.2414 36.3769C38.3527 36.3259 38.4641 36.275 38.5717 36.2183C39.689 35.6182 40.8629 35.1558 42.0595 34.7405C43.56 34.2196 45.1019 33.8742 46.6571 33.5723C48.1557 33.2816 49.6486 32.9702 51.1755 32.8513C51.3529 32.8381 51.5284 32.8211 51.7058 32.8041C51.9379 32.7814 52.1701 32.7569 52.4004 32.7267C52.5325 32.7097 52.7514 32.7286 52.7288 32.5172C52.708 32.3304 52.5079 32.3492 52.3645 32.3549C51.636 32.3813 50.8999 32.3606 50.1827 32.4625C48.9106 32.6456 47.6461 32.8909 46.3834 33.1363C45.2208 33.3628 44.0601 33.5911 42.9352 33.9799C41.7273 34.397 40.5383 34.8557 39.421 35.4823C38.9001 35.7748 38.4037 36.1126 37.896 36.4297C37.9111 36.458 37.9262 36.4863 37.9394 36.5128C38.0394 36.4656 38.1414 36.4222 38.2414 36.3769Z" fill="black"/>
<path d="M41.1069 39.7324C41.1145 39.6758 41.1088 39.6191 41.1088 39.5625C41.1107 39.5625 41.1126 39.5625 41.1145 39.5625C41.1239 39.438 41.1428 39.3115 41.139 39.1869C41.1296 38.9605 41.1296 38.7302 41.0824 38.5094C41.0484 38.3471 40.9711 38.1829 40.8748 38.0489C40.569 37.6204 40.0651 37.5865 39.7027 37.9677C39.2554 38.4395 39.1856 39.019 39.2951 39.6267C39.4045 40.2269 39.6424 40.7818 39.9745 41.2932C40.1765 41.6046 40.435 41.8538 40.7804 42.0085C40.8578 42.0425 40.9239 42.1123 40.9805 42.1784C41.1485 42.3728 41.2995 42.3973 41.5108 42.2539C41.8959 41.9916 41.9449 41.5575 41.575 41.1668C41.1843 40.7497 41.0277 40.2892 41.1069 39.7324ZM40.4634 41.2385C40.067 40.6704 39.799 40.0457 39.7122 39.3549C39.6688 39.0076 39.7273 38.6717 39.9443 38.3829C40.1633 38.0923 40.4218 38.1244 40.5539 38.4679C40.6049 38.6019 40.6294 38.7566 40.6276 38.902C40.6257 39.2096 40.6125 39.5172 40.5766 39.8211C40.5068 40.4401 40.6729 40.9686 41.1258 41.4027C41.1824 41.4574 41.2466 41.5159 41.2768 41.5858C41.3089 41.6556 41.3032 41.7424 41.3202 41.8708C40.939 41.716 40.6615 41.5235 40.4634 41.2385Z" fill="black"/>
<path d="M62.7114 45.933C62.434 45.8802 62.1641 45.9198 61.9055 46.0104C61.4129 46.184 61.0317 46.0519 60.692 45.6612C60.2767 45.1818 59.7653 45.0931 59.1821 45.346C58.7744 45.5234 58.429 45.7915 58.1987 46.1652C57.8647 46.7068 57.5721 47.273 57.2702 47.8317C57.2268 47.911 57.2249 48.0129 57.2041 48.1054C57.2343 48.1148 57.2645 48.1261 57.2928 48.1355C57.5287 47.9525 57.6741 47.6939 57.8364 47.4504C58.0742 47.09 58.3026 46.7219 58.5573 46.3728C58.7744 46.0746 59.0632 45.8481 59.418 45.7273C59.769 45.6065 60.0899 45.6386 60.3428 45.9481C60.407 46.0274 60.4768 46.1029 60.5523 46.1727C60.9014 46.4992 61.3072 46.6257 61.7772 46.4954C61.898 46.4615 62.0169 46.4218 62.1377 46.3897C62.4227 46.3161 62.7001 46.3143 62.953 46.4973C63.0172 46.5445 63.0908 46.5785 63.1625 46.6106C63.2607 46.6521 63.3815 46.6766 63.4286 46.5596C63.4551 46.4954 63.4249 46.3765 63.3777 46.3199C63.2021 46.118 62.9794 45.984 62.7114 45.933Z" fill="black"/>
<path d="M36.0275 38.8345C35.7916 39.3158 35.5764 39.8046 35.3594 40.2934C35.2556 40.5293 35.1046 40.6898 34.8422 40.7388C34.7082 40.7634 34.5761 40.8049 34.4496 40.8558C34.2383 40.9389 34.1496 41.054 34.2081 41.1673C34.2892 41.3277 34.4327 41.2918 34.5667 41.2578C34.6761 41.2295 34.7837 41.1861 34.8951 41.1673C35.348 41.0936 35.6141 40.8162 35.7783 40.4048C35.9124 40.0669 36.0558 39.7291 36.2181 39.4045C36.3597 39.1214 36.4899 38.8099 36.7032 38.5854C37.2826 37.9776 37.6336 38.1003 38.0469 38.6306C38.1168 38.7194 38.1696 38.8213 38.2357 38.9156C38.3659 39.1025 38.4961 39.2893 38.632 39.4724C38.6773 39.5328 38.7434 39.5762 38.8132 39.6404C38.9755 39.4875 38.8944 39.3705 38.8396 39.2667C38.6905 38.9855 38.5377 38.7043 38.3716 38.4325C38.2961 38.3079 38.196 38.1928 38.0885 38.0928C37.6997 37.7266 37.3486 37.6889 36.8711 37.9248C36.4748 38.123 36.2162 38.4513 36.0275 38.8345Z" fill="black"/>
<path d="M53.8291 43.4048C53.7706 43.3312 53.7008 43.2576 53.6442 43.1746C53.4611 42.916 53.2044 42.8311 52.8987 42.8556C52.4627 42.8915 52.2287 43.1783 52.1022 43.552C51.8682 44.239 52.0663 44.8751 52.391 45.4809C52.4476 45.5866 52.5967 45.6489 52.7118 45.7131C52.7439 45.7319 52.81 45.6923 52.9062 45.6678C52.5023 45.262 52.4495 44.76 52.3721 44.2711C52.3249 43.9767 52.408 43.703 52.5854 43.4671C52.7949 43.1878 53.1138 43.1972 53.3271 43.4747C53.4026 43.5728 53.4781 43.6747 53.5706 43.7578C53.6932 43.8691 53.8442 43.9408 54.0084 43.8616C54.2878 43.7276 54.4746 43.5162 54.5256 43.1821C54.2085 43.0292 54.0801 43.3746 53.8291 43.4048Z" fill="black"/>
<path d="M29.5806 84.4029C29.1314 84.5577 28.669 84.5558 28.201 84.5614C27.8782 84.5652 27.5536 84.6558 27.2346 84.7313C27.1346 84.7558 27.0365 84.8445 26.9704 84.9295C26.9345 84.9748 26.944 85.0842 26.9742 85.1446C26.9912 85.1786 27.0912 85.188 27.1516 85.1824C27.4781 85.1503 27.8027 85.0955 28.1292 85.0729C28.552 85.0427 28.9672 84.9785 29.3485 84.7822C29.5051 84.7011 29.6712 84.6199 29.7316 84.401C29.6655 84.401 29.6184 84.3897 29.5806 84.4029Z" fill="black"/>
<path d="M33.5556 77.1289C33.3575 76.8269 33.0272 76.7099 32.712 76.54C32.7025 76.608 32.6799 76.6514 32.695 76.6722C33.0762 77.227 33.6349 77.6498 33.8576 78.3293C34.0916 78.2273 34.086 78.0669 34.0124 77.9216C33.8727 77.6517 33.7217 77.3837 33.5556 77.1289Z" fill="black"/>
<path d="M45.0625 85.508C44.9568 85.4816 44.8586 85.5156 44.8511 85.6817C45.3097 85.8969 45.7438 86.1988 46.3289 86.2441C46.2987 86.1347 46.3006 86.0894 46.2798 86.0743C45.9137 85.8025 45.506 85.6156 45.0625 85.508Z" fill="black"/>
<path d="M23.0144 78.0239C23.1088 77.805 23.1711 77.5728 23.2371 77.3445C23.4277 76.6801 23.9166 76.4102 24.5771 76.6273C24.9018 76.733 25.2169 76.867 25.5359 76.9859C25.6095 77.0142 25.6888 77.067 25.7605 77.0595C25.8511 77.05 25.9662 77.0142 26.0153 76.9481C26.0889 76.8481 26.0455 76.7254 25.9398 76.6499C25.8662 76.5971 25.785 76.5518 25.7001 76.5197C25.0924 76.2989 24.4847 76.0724 23.8694 75.8704C23.6618 75.8025 23.5221 75.6968 23.39 75.5232C23.0069 75.0155 22.6162 74.5097 22.1934 74.0341C21.8801 73.683 21.4819 73.4301 21.0157 73.3112C20.223 73.1093 19.67 73.3999 19.4152 74.1737C19.3171 74.4757 19.2548 74.7909 19.2019 75.1042C19.1604 75.3495 19.0415 75.5232 18.8358 75.6515C18.6338 75.778 18.4262 75.9007 18.2337 76.0403C17.1409 76.8311 16.4615 77.8578 16.4502 79.2488C16.4502 79.396 16.437 79.5451 16.4521 79.6923C16.4955 80.1 16.7144 80.2529 17.107 80.1585C17.2164 80.1321 17.324 80.0887 17.4316 80.0547C18.1054 79.8339 18.7377 79.5319 19.3341 79.145C19.838 78.8185 20.4004 78.6996 21.0025 78.8185C21.1591 78.8487 21.3177 78.8751 21.4762 78.8883C22.3406 78.9601 22.7577 78.6241 23.0144 78.0239ZM21.6687 78.4542C21.5102 78.4486 21.3498 78.4316 21.1931 78.4014C20.391 78.2466 19.6455 78.3901 18.9773 78.8562C18.4074 79.2545 17.7657 79.4828 17.1202 79.7074C17.0692 79.7244 17.0126 79.7282 16.922 79.7452C16.9088 79.6319 16.888 79.5376 16.888 79.4413C16.8729 78.1315 17.4637 77.1501 18.5357 76.4367C18.7433 76.297 18.9641 76.1781 19.1755 76.0441C19.4718 75.8572 19.6455 75.593 19.7021 75.2439C19.7474 74.9626 19.8021 74.6814 19.8814 74.4096C20.0531 73.8227 20.3947 73.6396 20.9761 73.8359C21.2101 73.9152 21.4347 74.0397 21.6366 74.1832C22.2009 74.5814 22.5916 75.1495 23.1069 75.7138C22.8936 75.7346 22.7539 75.7553 22.6143 75.7591C21.6744 75.7723 20.7892 75.995 19.955 76.4291C19.8248 76.4971 19.6832 76.5461 19.5492 76.6065C19.4473 76.6518 19.3718 76.7273 19.4114 76.8462C19.453 76.9689 19.57 76.9821 19.6681 76.9481C19.9154 76.867 20.1645 76.7802 20.4023 76.6726C20.9345 76.4291 21.4838 76.2441 22.0726 76.2083C22.5218 76.18 22.9729 76.1045 23.5108 76.2234C23.0333 76.5518 22.8408 76.9651 22.7445 77.437C22.7124 77.5917 22.6464 77.7408 22.586 77.888C22.4199 78.2938 22.099 78.4693 21.6687 78.4542Z" fill="black"/>
<path d="M78.4991 31.4536C78.7482 31.3781 78.9973 31.2932 79.2295 31.1743C79.7013 30.9327 80.0335 30.5476 80.277 30.0796C80.7865 29.1 81.1319 28.0695 81.2942 26.9768C81.4018 26.2558 81.5226 25.5367 81.6377 24.8176C81.6585 24.6893 81.6717 24.5647 81.5585 24.4704C81.4584 24.3854 81.3546 24.4043 81.2395 24.4496C80.9243 24.576 80.6072 24.7006 80.2864 24.8101C79.0992 25.2159 78.0423 25.8123 77.2761 26.8428C76.5098 27.877 76.0342 29.0397 75.7643 30.291C75.6756 30.7062 75.6133 31.1365 75.7341 31.5442C75.8889 32.0613 76.0229 32.569 75.8983 33.1088C75.8983 33.2107 75.8945 33.3145 75.8983 33.4164C75.9115 33.7165 75.9964 33.8468 76.1757 33.8562C76.355 33.8656 76.44 33.7448 76.5022 33.4504C76.5683 33.139 76.6268 32.8238 76.7344 32.5256C76.9024 32.0557 77.2421 31.7499 77.7347 31.6291C77.9876 31.5668 78.2481 31.5291 78.4991 31.4536ZM76.708 31.6234C76.7514 31.4611 76.7589 31.3762 76.7967 31.3045C76.9231 31.0629 77.0439 30.8175 77.1949 30.5911C77.3987 30.2891 77.6309 30.0079 77.846 29.7134C77.9064 29.6323 77.9706 29.5436 77.9951 29.4492C78.0121 29.3869 77.98 29.2661 77.9347 29.2454C77.8687 29.2133 77.7309 29.2133 77.6932 29.2567C77.1345 29.9116 76.4702 30.4929 76.2286 31.3668C76.204 31.4517 76.1625 31.5329 76.1267 31.6159C76.1248 31.6216 76.1078 31.6234 76.0644 31.6385C75.9983 31.4196 75.9964 31.1988 76.0134 30.9761C76.0606 30.4042 76.2267 29.8607 76.4211 29.3246C76.7231 28.4961 77.1119 27.7147 77.6667 27.0239C78.4821 26.0123 79.5654 25.4556 80.8092 25.1706C80.8601 25.1592 80.9149 25.1687 81.0017 25.1687C80.9356 25.6518 80.8677 26.1105 80.8111 26.5691C80.6752 27.6751 80.3657 28.7263 79.8749 29.7285C79.5352 30.4231 79.0087 30.8477 78.2405 30.9836C77.7158 31.078 77.1874 31.1856 76.708 31.6234Z" fill="black"/>
<path d="M30.9716 31.4201C31.0678 31.2785 30.9905 31.1615 30.898 31.052C30.8602 31.0086 30.8244 30.9652 30.7847 30.9237C30.4205 30.5519 30.2261 30.0989 30.1468 29.5912C30.0996 29.2873 30.043 28.9854 29.9958 28.6815C29.8618 27.8284 29.4957 27.098 28.8389 26.5318C28.4784 26.2204 28.1141 25.8939 27.7027 25.6636C26.5608 25.0238 25.7889 24.1084 25.419 22.8515C25.3907 22.7552 25.3529 22.6533 25.2963 22.5721C25.1774 22.406 24.9679 22.4343 24.8943 22.6231C24.866 22.6948 24.8603 22.7778 24.8528 22.8571C24.8131 23.3327 24.7773 23.8102 24.7395 24.2858C24.7358 24.9596 24.7697 25.6296 24.9018 26.2921C25.1661 27.6114 25.8757 28.6815 26.7798 29.6422C27.5309 30.4405 28.4237 30.9671 29.5315 31.0822C29.7637 31.1068 29.9732 31.1728 30.1732 31.2955C30.2978 31.371 30.4394 31.4238 30.5752 31.4805C30.7168 31.5427 30.864 31.5748 30.9716 31.4201ZM29.5995 30.2763C28.9861 29.5704 28.3784 28.8627 27.765 28.1568C27.6819 28.0606 27.614 27.8624 27.4611 27.9511C27.2856 28.053 27.4196 28.2172 27.4894 28.3361C27.8801 28.9967 28.3727 29.5799 28.8879 30.1461C29.0616 30.3367 29.2371 30.5292 29.3938 30.7444C28.9427 30.6821 28.5161 30.5613 28.1519 30.3046C26.4363 29.0892 25.3454 27.4944 25.2057 25.3447C25.1736 24.8351 25.2 24.3217 25.2 23.8102C25.2302 23.8027 25.2586 23.7951 25.2888 23.7876C25.3359 23.8725 25.385 23.9574 25.4284 24.0443C25.7474 24.6916 26.189 25.2314 26.7911 25.6353C27.0364 25.8014 27.2856 25.9637 27.5272 26.1336C27.7593 26.2978 27.9896 26.4657 28.2123 26.6432C28.9389 27.2207 29.3862 27.9568 29.5297 28.8853C29.6127 29.4232 29.7448 29.9517 29.8656 30.5349C29.7637 30.4367 29.675 30.3631 29.5995 30.2763Z" fill="black"/>
<path d="M61.3127 16.0782C61.3354 16.9803 61.6468 17.7353 62.3961 18.292C62.7603 18.5619 63.0812 18.8903 63.4228 19.1923C63.4832 19.2452 63.536 19.3074 63.5983 19.3546C63.8135 19.5151 63.9909 19.4358 64.0268 19.1659C64.0381 19.0772 64.0362 18.9828 64.0268 18.8941C63.9078 17.8598 64.2306 16.9652 64.8798 16.1707C65.0742 15.9329 65.2743 15.6988 65.4574 15.4535C65.7424 15.0741 65.9217 14.6494 65.9896 14.1757C66.0915 13.468 66.0613 12.7621 65.8802 12.0751C65.7461 11.5693 65.8934 11.1578 66.1916 10.7709C66.2539 10.6898 66.3275 10.6181 66.3954 10.5407C66.4935 10.4331 66.5728 10.3123 66.4558 10.1802C66.3444 10.0537 66.2048 10.0839 66.0878 10.1745C65.9273 10.2991 65.7612 10.4255 65.6272 10.5784C65.4895 10.7351 65.3385 10.8049 65.1346 10.8351C63.8531 11.0219 62.8679 11.692 62.1677 12.764C61.5807 13.6624 61.3108 14.6664 61.3127 15.7403C61.3127 15.8517 61.3089 15.9649 61.3127 16.0782ZM62.4904 12.9772C63.0302 12.0808 63.8399 11.5108 64.8138 11.1616C64.9063 11.1276 65.0063 11.1125 65.1724 11.0729C64.8931 11.4825 64.6647 11.8203 64.4325 12.1562C64.0437 12.7149 63.8116 13.3453 63.6002 13.9851C63.5681 14.0795 63.5549 14.187 63.5625 14.2852C63.5757 14.4267 63.7134 14.4758 63.8078 14.3701C63.889 14.2795 63.9494 14.1644 64.0003 14.0512C64.325 13.3585 64.6666 12.6772 65.112 12.0524C65.178 11.9619 65.2441 11.8713 65.3536 11.7222C65.4008 11.9222 65.4366 12.0675 65.4687 12.2129C65.5933 12.7847 65.6423 13.3604 65.5782 13.9455C65.5253 14.4343 65.3536 14.8722 65.0573 15.2628C64.8704 15.5082 64.6741 15.7441 64.4892 15.9914C64.1098 16.4991 63.8173 17.0521 63.7021 17.6805C63.6549 17.9372 63.6531 18.1996 63.6342 18.4619C63.6266 18.5695 63.6323 18.679 63.6323 18.8394C63.5417 18.7752 63.4945 18.7488 63.4568 18.7148C63.1605 18.4487 62.8773 18.1637 62.5659 17.9165C62.0601 17.5126 61.8129 16.9822 61.7487 16.3556C61.6222 15.1477 61.8638 14.0153 62.4904 12.9772Z" fill="black"/>
<path d="M90.501 83.0437C90.2802 82.2888 89.344 81.4451 88.2173 81.9038C87.9644 82.0076 87.7153 82.117 87.4642 82.2265C86.9547 82.4473 86.4677 82.4133 85.9997 82.1057C85.8675 82.0189 85.7298 81.9321 85.5863 81.8679C85.2447 81.7112 84.9012 81.7245 84.5653 81.9C83.7952 82.3039 83.3592 83.1381 83.4517 84.0025C83.5367 84.7801 83.7367 85.5237 84.0859 86.2258C84.1576 86.3693 84.1689 86.4976 84.1066 86.6467C83.9104 87.1204 83.9028 87.6244 83.9028 88.1264C83.9028 88.183 83.8953 88.251 83.9236 88.2925C83.9632 88.3529 84.0293 88.4284 84.0878 88.4322C84.1463 88.4359 84.2293 88.3718 84.2652 88.3133C84.3048 88.251 84.3048 88.1604 84.3199 88.083C84.3652 87.849 84.4011 87.6112 84.4615 87.379C84.4992 87.2318 84.5766 87.094 84.6502 86.9147C84.7295 87.0091 84.7729 87.0563 84.8125 87.1072C85.073 87.4507 85.373 87.5394 85.7732 87.3866C86.0714 87.2733 86.3205 87.0865 86.4507 86.792C86.5904 86.4712 86.698 86.1334 86.8112 85.7993C86.8659 85.6389 86.8886 85.4652 86.9433 85.3048C87.2453 84.4347 87.7379 84.1139 88.6552 84.1837C88.7458 84.1912 88.8363 84.2026 88.9269 84.2177C89.1855 84.2611 89.4422 84.312 89.7007 84.3498C90.1235 84.4121 90.4312 84.229 90.5142 83.8119C90.5633 83.5665 90.5708 83.2834 90.501 83.0437ZM90.216 83.6571C90.1575 83.9836 90.0159 84.061 89.6838 84.0044C89.2799 83.9346 88.8779 83.8496 88.4702 83.8251C87.5756 83.7741 87.0245 84.1271 86.6791 84.9519C86.5659 85.2217 86.5149 85.5181 86.4262 85.8012C86.3526 86.039 86.2733 86.2768 86.1846 86.5108C86.1488 86.6052 86.0921 86.6939 86.028 86.7732C85.6505 87.2394 85.173 87.1771 84.9333 86.6335C84.8729 86.4995 84.8068 86.3636 84.7785 86.2202C84.7615 86.1333 84.788 86.0163 84.8389 85.939C85.1352 85.4803 85.4429 85.0292 85.7486 84.5782C85.8222 84.4687 85.9355 84.3724 85.8487 84.2101C85.6524 84.2045 85.5297 84.3271 85.4108 84.4442C85.0616 84.7895 84.7502 85.167 84.537 85.6143C84.4747 85.7446 84.4086 85.871 84.3426 86.0012C84.2973 85.9729 84.2689 85.9654 84.2633 85.9484C83.9934 85.2425 83.8103 84.514 83.8065 83.7553C83.8028 83.0909 84.1538 82.6191 84.6974 82.2737C84.9503 82.1133 85.2107 82.1057 85.4712 82.2605C85.5882 82.3303 85.7052 82.4001 85.8204 82.4737C86.3715 82.8286 86.949 82.8644 87.5492 82.621C87.8228 82.5096 88.0833 82.3662 88.3588 82.2605C89.1402 81.9585 90.0235 82.4322 90.2103 83.2532C90.2405 83.3816 90.2386 83.5269 90.216 83.6571Z" fill="black"/>
<path d="M55.3521 94.6998C54.6405 95.1245 54.0498 95.6945 53.4949 96.3003C52.6154 97.2591 51.6491 98.1235 50.6865 98.9954C50.2732 99.3691 49.8768 99.7636 49.4824 100.156C49.3937 100.245 49.3352 100.366 49.2427 100.502C49.3408 100.52 49.3956 100.549 49.4239 100.534C49.5503 100.462 49.6805 100.39 49.7919 100.298C51.264 99.0709 52.6569 97.7668 53.9384 96.338C54.5631 95.6416 55.2501 95.0093 56.0617 94.5281C56.1089 94.4998 56.1636 94.4828 56.2165 94.4601C56.1957 94.4337 56.1749 94.4073 56.1561 94.3809C56.0806 94.3903 55.9975 94.3846 55.9315 94.4148C55.7352 94.5016 55.537 94.5904 55.3521 94.6998Z" fill="black"/>
<path d="M60.1972 86.947C60.2802 86.6658 60.3859 86.3902 60.5048 86.043C60.2406 86.243 60.1424 86.3393 59.9971 86.6582C59.3535 88.0624 59.3346 89.4723 59.9933 90.8784C60.1689 91.254 60.4218 91.5824 60.7615 91.8221C60.9238 91.9353 61.122 92.0089 61.3145 92.0693C61.3749 92.0882 61.4938 92.0297 61.5391 91.9693C61.5806 91.9145 61.5787 91.856 61.5523 91.8032C61.5334 91.7673 61.5032 91.7334 61.4674 91.7032C61.4315 91.6749 61.3919 91.6522 61.3522 91.6296C60.8294 91.3181 60.4973 90.8557 60.2878 90.2971C59.8952 89.2496 59.8707 88.1908 60.1519 87.1244C60.167 87.064 60.1802 87.0055 60.1972 86.947Z" fill="black"/>
<path d="M46.4967 102.752C45.6587 103.42 44.8113 104.071 43.8016 104.47C43.4732 104.6 43.1429 104.721 42.8145 104.849C42.7296 104.881 42.6371 104.915 42.5767 104.975C42.5314 105.021 42.505 105.117 42.5163 105.181C42.5238 105.223 42.6163 105.272 42.6729 105.277C42.7616 105.283 42.856 105.264 42.9409 105.238C43.2335 105.145 43.5298 105.064 43.8129 104.947C44.934 104.485 45.8871 103.771 46.7591 102.943C47.0535 102.661 47.3366 102.369 47.6254 102.082C47.6065 102.054 47.5895 102.027 47.5706 101.999C47.4763 102.052 47.3744 102.093 47.2875 102.158C47.0195 102.35 46.7553 102.546 46.4967 102.752Z" fill="black"/>
</svg>
