<svg width="107" height="107" viewBox="0 0 107 107" fill="none" xmlns="http://www.w3.org/2000/svg">
<path fill-rule="evenodd" clip-rule="evenodd" d="M59.6621 106.718C50.8991 105.245 45.31 96.7899 39.8551 89.7078C35.6869 84.2962 35.5707 77.1539 32.2741 71.1602C27.7271 62.8932 16.5981 57.6222 17.0112 48.1744C17.4224 38.7694 26.6573 32.3039 34.2139 26.7932C41.7514 21.2965 50.3931 16.3453 59.6621 17.071C68.6455 17.7743 75.4148 24.8127 82.3967 30.5656C88.9587 35.9725 96.1412 41.2062 98.8067 49.325C101.48 57.4689 99.1562 66.1158 96.7717 74.3507C94.3149 82.8353 91.5435 91.5077 84.9195 97.2852C77.9552 103.359 68.7385 108.244 59.6621 106.718Z" fill="#E5EFCF"/>
<path d="M22.4521 44.8048C25.2718 42.3852 28.2161 40.1261 31.3076 38.0632C31.8134 37.7254 32.3249 37.3988 32.8383 37.0742C31.0377 37.7593 29.358 38.6426 27.7537 39.6467C26.9195 40.1544 26.1174 40.713 25.3341 41.2962C24.9416 41.5888 24.5433 41.8681 24.1696 42.1871C23.7903 42.4966 23.4203 42.8174 23.0448 43.1326C22.8579 43.2912 22.6692 43.4478 22.488 43.612L21.9482 44.116C21.5877 44.45 21.2367 44.7954 20.8837 45.1389C20.5402 45.4956 20.2081 45.8636 19.8702 46.2241L19.623 46.4997L19.3852 46.7885C19.2266 46.981 19.0681 47.1716 18.9152 47.3679C18.2905 48.1417 17.7337 48.9853 17.2449 49.8667C17.1317 50.0951 17.0203 50.3254 16.9127 50.5537C16.8052 50.7821 16.724 51.0331 16.6353 51.269C16.5994 51.3577 16.5768 51.4559 16.5522 51.5521C17.5186 49.8894 18.7265 48.4078 20.0816 47.0414C20.8479 46.2694 21.6292 45.5107 22.4521 44.8048Z" fill="#E5EFCF"/>
<path d="M64.8576 21.5798C66.5921 21.7025 68.2511 22.0818 69.827 22.8368C71.703 23.7333 73.4319 24.8563 75.0569 26.1453C75.6004 26.5756 76.1346 27.0211 76.6668 27.4665C77.7898 28.4026 79.1109 28.9594 80.4868 29.3765C81.6003 29.7143 82.612 30.2239 83.5538 30.8883C84.3672 31.462 84.9919 32.1924 85.477 33.0304C85.4789 33.0304 85.4789 33.0323 85.4808 33.0323C85.6374 33.1569 85.7884 33.2871 85.9375 33.4211C85.8073 32.9247 85.5638 32.4548 85.2656 32.0358C85.0655 31.7527 84.8409 31.4884 84.5994 31.2393C84.3597 30.9902 84.1049 30.7561 83.835 30.5372C83.567 30.3183 83.2839 30.1163 82.9894 29.9295C82.6856 29.7426 82.3685 29.5728 82.0495 29.4293C81.4097 29.1425 80.7642 28.9254 80.1527 28.714C79.8489 28.6027 79.5507 28.4989 79.2676 28.3837C78.9864 28.2629 78.7127 28.144 78.4598 28.0025C78.3956 27.9685 78.3371 27.9289 78.2748 27.893L78.1823 27.8383L78.0823 27.7722C77.9483 27.6835 77.8143 27.5967 77.6803 27.5042C77.4142 27.323 77.15 27.1381 76.8895 26.9475C75.842 26.1887 74.8379 25.3545 73.8037 24.5392C73.2846 24.1315 72.7618 23.7295 72.2202 23.3351C71.6502 22.9255 71.0481 22.5593 70.4215 22.2442C69.1627 21.6251 67.7981 21.2382 66.426 21.0966C65.052 20.9589 63.6761 21.0438 62.3512 21.3043C61.7265 21.425 61.1168 21.5987 60.5186 21.7969C60.6677 21.7742 60.8186 21.7534 60.9696 21.7383C62.2644 21.6081 63.5534 21.4892 64.8576 21.5798Z" fill="#E5EFCF"/>
<path d="M48.3186 85.993C47.5919 85.8552 46.8672 85.7137 46.1481 85.5401C43.1415 84.8134 40.1029 84.2359 37.0661 83.6565C35.7488 83.4055 34.4371 83.111 33.131 82.8034C32.025 82.5429 30.9983 82.073 29.9753 81.5766C29.1657 81.184 28.3013 80.899 27.4519 80.5895C26.3176 80.1781 25.172 79.7987 24.0981 79.2382C22.8808 78.604 22.0031 77.6717 21.4067 76.5166C21.4407 76.6185 21.4785 76.7167 21.5219 76.8129C21.8163 77.4622 22.2523 78.017 22.726 78.521C23.6867 79.5213 24.8115 80.3215 25.976 81.0179C26.2686 81.1897 26.5668 81.352 26.8706 81.4954C27.0254 81.5709 27.1651 81.6445 27.3217 81.6842C27.4765 81.7257 27.6312 81.771 27.7766 81.8371C28.3654 82.0843 28.9486 82.3391 29.5337 82.6033C30.1226 82.8638 30.7114 83.1469 31.355 83.4092C31.6758 83.5395 32.0099 83.6621 32.3459 83.7659C32.6818 83.8754 33.0253 83.9566 33.3556 84.0528C33.6897 84.1528 34.0199 84.234 34.3578 84.2717C34.6918 84.3038 35.0278 84.3397 35.3581 84.3623C35.6884 84.3869 36.0205 84.4114 36.3471 84.4284C36.6755 84.4473 37.0057 84.4643 37.319 84.4888C38.5911 84.5737 39.867 84.7209 41.1447 84.8814C42.4243 85.0437 43.7021 85.2362 44.9779 85.4532C46.2557 85.6608 47.5334 85.8873 48.8055 86.144L48.8319 86.0515C48.6545 86.0553 48.4847 86.0232 48.3186 85.993Z" fill="#E5EFCF"/>
<path d="M104.264 41.6216C104.317 41.046 104.192 40.5138 103.902 40.0155C103.539 39.3964 103.058 38.8774 102.545 38.3848C101.05 36.9523 99.504 35.5821 97.9035 34.2685C96.4446 33.0719 94.9894 31.8678 93.5966 30.5957C92.5849 29.6709 91.6583 28.6498 90.7297 27.6382C88.5554 25.2677 86.5624 22.7424 84.5165 20.2624C83.7483 19.3319 82.9387 18.4336 82.1045 17.5597C81.7628 17.2011 81.4061 16.8689 81.0381 16.5594C80.2039 15.9234 79.3319 15.3402 78.4166 14.8495C77.4257 14.3588 76.3707 13.9851 75.2533 13.7189C75.2194 13.7114 75.1835 13.7038 75.1495 13.6963C75.1382 13.7397 75.1495 13.7869 75.1986 13.8152C77.9674 15.4402 80.5078 17.2672 82.7462 19.5848C84.809 21.7194 86.6284 24.0654 88.5347 26.3378C92.0093 30.4768 96.388 33.6117 100.161 37.4487C101.322 38.6283 103.379 40.5005 102.96 42.3483C102.93 42.4842 102.943 42.6219 102.99 42.7484C103.203 42.688 103.413 42.6106 103.62 42.5313C104.03 42.3709 104.224 42.0501 104.264 41.6216Z" fill="#E5EFCF"/>
<path d="M37.5095 54.9893C37.9209 53.7399 38.5966 52.5735 39.4346 51.5845C41.1728 49.5349 43.3924 48.1929 45.912 47.4455C51.0286 45.9281 56.8587 46.3886 61.8979 48.0042C63.338 48.4647 64.7384 49.0347 66.0954 49.7142C66.7352 50.035 67.4449 50.5635 68.1791 50.9466C67.9186 50.5823 67.6336 50.237 67.3241 49.9123C65.9633 48.4855 64.3402 47.4739 62.5661 46.7133C59.7199 45.4978 56.7473 44.9731 53.6785 44.958C52.882 45.0014 52.0837 45.026 51.2891 45.0939C50.6398 45.1505 49.9906 45.2411 49.347 45.3525C46.5537 45.8356 43.9265 46.7887 41.5201 48.3685C40.4198 49.0913 39.4308 49.9463 38.6004 50.9938C38.0795 51.6487 37.6435 52.3602 37.3283 53.1454C36.7338 54.6232 36.63 56.1123 37.0603 57.5939C37.0678 57.3787 37.0716 57.1617 37.0943 56.9409C37.1565 56.2784 37.3019 55.6216 37.5095 54.9893Z" fill="#E5EFCF"/>
<path d="M67.8016 47.8572C67.7563 47.8364 67.7128 47.8157 67.6694 47.7949C67.7525 47.8704 67.8355 47.9478 67.9186 48.0252C67.8789 47.9704 67.8412 47.9138 67.8016 47.8572Z" fill="#E5EFCF"/>
<path d="M70.9159 52.7314C70.8404 52.4728 70.7253 52.2312 70.5913 52.001C70.7083 52.3105 70.8084 52.6219 70.8895 52.9314C70.9216 52.8729 70.9367 52.8031 70.9159 52.7314Z" fill="#E5EFCF"/>
<path d="M70.2946 58.9629C70.3153 58.8704 70.3342 58.776 70.3531 58.6816C70.2832 58.8364 70.2096 58.9912 70.1304 59.1459C70.1851 59.0855 70.2417 59.0251 70.2946 58.9629Z" fill="#E5EFCF"/>
<path d="M62.1492 62.6917C57.3723 65.283 51.8292 65.7473 46.5974 64.5923C43.9419 64.0053 41.5129 62.9673 39.2612 61.4574C39.7425 61.9707 40.2917 62.4275 40.9183 62.8163C41.8186 63.373 42.7396 63.8789 43.7078 64.296C46.1614 65.3491 48.7226 65.8927 51.3686 66.0342C54.681 66.2135 57.9178 65.7907 61.0527 64.647C62.957 63.9525 64.7311 63.005 66.2939 61.6593C67.4244 60.6855 68.3775 59.5587 68.9947 58.1545C69.2872 57.4883 69.4797 56.8277 69.5741 56.1709C67.5811 58.834 65.1388 61.0705 62.1492 62.6917Z" fill="#E5EFCF"/>
<path d="M69.8628 50.4668C69.3325 49.5439 68.67 48.7418 67.917 48.0246C67.8358 47.9472 67.7528 47.8698 67.6678 47.7943C67.4489 47.5962 67.2243 47.4018 66.9922 47.2168C65.303 45.8673 63.4156 44.9161 61.3886 44.2669C56.9816 42.8551 52.5161 42.6909 48.0091 43.6837C45.6499 44.2027 43.4002 45.0312 41.3298 46.3354C39.7142 47.3527 38.2873 48.604 37.1681 50.2026C36.1018 51.7276 35.4318 53.4187 35.3657 55.3155C35.2883 57.5539 35.981 59.5394 37.4135 61.2135C37.9117 61.7967 38.5044 62.2949 39.0593 62.8253C40.5012 64.1993 42.1621 65.2015 43.9815 65.9281C46.9748 67.1228 50.0871 67.6022 53.7939 67.5588C55.5114 67.5267 57.7064 67.2228 59.858 66.6056C62.3134 65.9017 64.6141 64.8485 66.6581 63.2461C68.017 62.1798 69.1872 60.9285 70.0157 59.3714C70.0554 59.2959 70.0893 59.2223 70.1271 59.1468C70.2045 58.992 70.2799 58.8373 70.3498 58.6825C71.2142 56.7555 71.3859 54.8361 70.8839 52.9317C70.8027 52.6203 70.7027 52.3108 70.5857 52.0013C70.397 51.4879 70.1554 50.9764 69.8628 50.4668ZM37.2889 58.2597C37.2002 58.0389 37.1247 57.8181 37.0605 57.5954C36.6302 56.1157 36.734 54.6247 37.3286 53.1469C37.6456 52.3599 38.0816 51.6502 38.6006 50.9953C39.4311 49.9497 40.42 49.0928 41.5204 48.37C43.9249 46.7922 46.5521 45.8371 49.3472 45.354C49.9908 45.2426 50.6401 45.152 51.2893 45.0954C52.0839 45.0256 52.8823 45.0029 53.6787 44.9595C56.7476 44.9746 59.7202 45.4993 62.5663 46.7148C64.3423 47.4735 65.9636 48.4851 67.3243 49.9138C67.6339 50.2385 67.9189 50.5839 68.1793 50.9481C68.3775 51.2237 68.5625 51.5087 68.7267 51.8106C69.5042 53.2394 69.7873 54.6926 69.5741 56.1667C69.4797 56.8235 69.2853 57.4859 68.9947 58.1503C68.3794 59.5526 67.4263 60.6793 66.2938 61.6551C64.7311 63.0008 62.957 63.9501 61.0527 64.6428C57.9159 65.7865 54.6809 66.2093 51.3686 66.03C48.7244 65.8884 46.1633 65.3449 43.7078 64.2917C42.7396 63.8765 41.8186 63.3707 40.9183 62.8121C40.2917 62.4233 39.7425 61.9665 39.2612 61.4532C38.4119 60.5529 37.7721 59.4695 37.2889 58.2597Z" fill="black"/>
<path d="M23.2276 46.1363C26.3681 43.494 29.5351 40.8818 32.6964 38.2641C33.442 37.6469 34.1837 37.0298 34.816 36.2937C34.9386 36.1502 35.0405 35.986 35.1519 35.8313C35.1198 35.7954 35.0896 35.7614 35.0575 35.7256C34.8763 35.8218 34.6876 35.9068 34.5159 36.0162C33.9572 36.3692 33.3985 36.7165 32.8399 37.0694C32.3265 37.394 31.8151 37.7224 31.3092 38.0584C28.2177 40.1212 25.2735 42.3823 22.4538 44.8C21.6309 45.5059 20.8495 46.2646 20.0851 47.0365C18.73 48.4011 17.5221 49.8845 16.5558 51.5473C16.4557 51.7191 16.3557 51.8889 16.2613 52.0644C16.133 52.3022 16.0141 52.5476 15.9292 52.8024C15.865 52.9987 15.9254 53.1969 16.1066 53.3252C16.2991 53.463 16.5161 53.4611 16.6973 53.3214C16.8558 53.1987 17.0049 53.0572 17.139 52.9081C17.2088 52.8968 17.2767 52.8836 17.3409 52.859C17.607 52.759 17.8637 52.6288 18.1204 52.5004C20.0757 51.5228 21.8272 50.2488 23.505 48.8616C25.0885 47.5537 26.6456 46.2212 28.0101 44.6773C28.2687 44.3848 28.5027 44.0677 28.7311 43.7506C28.816 43.6317 28.8745 43.4826 28.901 43.3373C28.9482 43.0731 28.7896 42.9164 28.531 42.9881C28.3159 43.0466 28.1158 43.1599 27.9139 43.2618C26.1341 44.1526 24.5619 45.3492 23.0332 46.6024C22.2141 47.2724 21.4176 47.9651 20.6381 48.6785C21.4421 47.7783 22.2952 46.9195 23.2276 46.1363ZM25.9378 44.9189C26.6324 44.4169 27.4005 44.0186 28.1366 43.5751C28.1819 43.5468 28.2404 43.5411 28.3159 43.5166C27.6327 45.034 21.193 50.3092 18.0317 51.8682C18.1921 51.6926 18.3469 51.5114 18.5148 51.3435C20.8268 49.0126 23.2748 46.8402 25.9378 44.9189Z" fill="black"/>
<path d="M42.8847 10.425C41.4654 10.2571 40.0517 10.3118 38.64 10.4949C38.087 10.5666 37.5397 10.6779 36.9905 10.7836C35.8222 11.0101 34.7445 11.4668 33.714 12.0519C32.1079 12.9635 30.6187 14.0412 29.1334 15.134C25.8947 17.5158 22.8617 20.1487 19.8023 22.7495C17.779 24.4707 15.7822 26.2279 13.6136 27.7698C11.8131 29.0495 9.98236 30.28 8.07424 31.3879C7.90437 31.4974 7.73451 31.6068 7.56276 31.7144C7.0192 32.0504 6.46432 32.3656 5.89811 32.6581C5.61312 32.7997 5.32813 32.9412 5.0337 33.0582C4.88649 33.1186 4.73927 33.1715 4.59017 33.2205C4.44485 33.2677 4.28253 33.313 4.14853 33.33L4.13721 33.5187C4.49958 33.5338 4.81288 33.464 5.13939 33.3923C5.46213 33.3187 5.77732 33.2205 6.09062 33.1186C6.71723 32.9148 7.31929 32.6543 7.91947 32.3882C9.11606 31.8522 10.273 31.2369 11.4016 30.5839C12.5322 29.9309 13.6344 29.2344 14.7272 28.5229C15.267 28.1605 15.8105 27.8 16.3446 27.4264L17.1468 26.8696L17.9395 26.2996C22.1615 23.2553 26.1683 19.9467 30.062 16.5231C30.5508 16.0965 31.0339 15.6643 31.5152 15.2302L32.2381 14.5791L32.3287 14.4979L32.3834 14.4489C32.4268 14.413 32.4778 14.3715 32.5306 14.33C32.6344 14.2488 32.7496 14.1658 32.8647 14.0865C33.8046 13.4448 34.8842 12.9258 35.9996 12.5426C38.2418 11.7651 40.6783 11.5329 43.113 11.7216C43.4169 11.7518 43.7227 11.7688 44.0284 11.8122L44.4889 11.8689L44.9702 11.9387C45.6119 12.0349 46.2574 12.1161 46.901 12.1973C48.19 12.3615 49.4829 12.503 50.7814 12.6068C51.8836 12.7012 52.9877 12.7654 54.0975 12.7993C51.8798 12.4973 49.6961 11.9953 47.5295 11.4065C46.0007 10.9893 44.4625 10.6119 42.8847 10.425Z" fill="#E5EFCF"/>
<path d="M59.248 98.2877C60.7069 98.6746 62.1677 99.0445 63.6644 99.2673C65.3706 99.5202 67.0635 99.4315 68.7622 99.2031C70.6797 98.9445 72.4482 98.2972 74.0638 97.2365C74.8583 96.7155 75.668 96.2135 76.4362 95.6548C79.2823 93.5863 82.0511 91.4196 84.7141 89.117C86.8148 87.2995 88.9286 85.4952 91.0859 83.7475C94.2019 81.2241 97.5369 79.0234 101.102 77.1757C101.251 77.0983 101.402 77.0228 101.553 76.9492C101.391 76.9926 101.23 77.0398 101.068 77.0889C100.438 77.2814 99.83 77.5286 99.226 77.7834C98.02 78.2968 96.8517 78.8894 95.7099 79.5217C94.5662 80.154 93.4507 80.8277 92.3466 81.5185C91.7993 81.8696 91.2482 82.2206 90.7084 82.583L89.8949 83.1228L89.0928 83.6777C84.8142 86.6389 80.7431 89.8701 76.7834 93.2183C76.2871 93.6354 75.7945 94.0581 75.3056 94.4828L74.5696 95.1188L74.4771 95.1981L74.4205 95.2453C74.3752 95.2811 74.3242 95.3208 74.2714 95.3604C74.1657 95.4397 74.0487 95.519 73.9317 95.5982C72.9785 96.2211 71.8895 96.7212 70.7666 97.0817C68.5093 97.8159 66.0689 98.0008 63.6399 97.7668C63.336 97.7309 63.0303 97.7064 62.7264 97.6592L62.2678 97.595L61.7865 97.5158C61.1467 97.4082 60.5031 97.3138 59.8614 97.2195C58.5761 97.0307 57.2851 96.8646 55.9904 96.7344C54.6957 96.5985 53.3953 96.5004 52.0892 96.4513C51.4362 96.4287 50.7813 96.4211 50.1264 96.44C49.5885 96.4608 49.0487 96.4909 48.5127 96.5759C49.8357 96.6363 51.155 96.7382 52.4724 96.9005C54.7655 97.1836 57.0153 97.697 59.248 98.2877Z" fill="#E5EFCF"/>
<path d="M105.303 39.3889C104.93 38.5849 104.401 37.8903 103.786 37.2599C102.595 36.0369 101.383 34.8385 100.055 33.7608C99.3279 33.17 98.6258 32.551 97.901 31.9584C96.8517 31.0977 95.8155 30.2144 94.7303 29.401C93.5903 28.5441 92.5315 27.6137 91.5708 26.5605C90.5234 25.4111 89.4985 24.2353 88.3869 23.1519C86.6033 21.4175 85.0764 19.4716 83.5666 17.5106C81.7887 15.2005 79.5276 13.6038 76.7551 12.7149C74.5506 12.009 72.2952 11.6749 69.9814 11.7032C66.2689 11.7485 62.5546 11.8051 58.8422 11.7976C56.8642 11.7938 54.8881 11.5919 52.9479 11.2069C50.9813 10.8162 49.0317 10.3368 47.082 9.86683C45.6722 9.52522 44.2604 9.20814 42.8185 9.04394C40.9708 8.83256 39.1419 9.01186 37.3206 9.32138C35.571 9.6177 33.9441 10.2349 32.4437 11.1729C31.5736 11.7164 30.696 12.2525 29.8637 12.8526C26.9099 14.9797 24.0374 17.2105 21.3064 19.6207C19.8909 20.8682 18.4338 22.0705 17.0259 23.3275C14.2911 25.7697 11.2864 27.842 8.22321 29.8389C7.03418 30.6127 5.82627 31.3582 4.6127 32.0924C4.09745 32.4038 3.54257 32.6491 3.01222 32.9379C2.83669 33.0323 2.61587 33.1002 2.57812 33.4135C2.97447 33.5928 3.34817 33.4871 3.71054 33.4267C4.4636 33.3003 5.14116 32.9605 5.81494 32.6208C6.5831 32.2339 7.33427 31.8206 8.076 31.3922C9.98412 30.2862 11.8149 29.0537 13.6154 27.7741C15.784 26.2321 17.7808 24.475 19.804 22.7537C22.8635 20.1529 25.8964 17.5201 29.1351 15.1382C30.6205 14.0473 32.1096 12.9678 33.7158 12.0562C34.7481 11.4711 35.8258 11.0125 36.9922 10.7879C37.5396 10.6822 38.0888 10.5708 38.6418 10.4991C40.0535 10.316 41.4671 10.2613 42.8864 10.4293C44.4662 10.6161 46.0025 10.9917 47.5331 11.4069C49.6998 11.9939 51.8835 12.4959 54.1011 12.7998C54.9316 12.913 55.7639 12.9998 56.6038 13.0489C58.6817 13.1735 60.7654 13.2339 62.8471 13.2452C65.3988 13.2584 67.9487 13.1754 70.5004 13.1659C72.0688 13.1603 73.6183 13.3433 75.1508 13.7001C75.1848 13.7076 75.2207 13.7152 75.2546 13.7227C76.3719 13.9888 77.4289 14.3625 78.4178 14.8532C79.3521 15.3156 80.2278 15.8818 81.0394 16.5632C81.4093 16.8727 81.7641 17.2068 82.1057 17.5635C82.9381 18.4373 83.7496 19.3357 84.5178 20.2662C86.5637 22.7462 88.5567 25.2715 90.731 27.642C91.6596 28.6536 92.5862 29.6747 93.5979 30.5995C94.9907 31.8715 96.4459 33.0757 97.9048 34.2723C99.5053 35.5859 101.051 36.958 102.546 38.3886C103.059 38.8812 103.54 39.4002 103.903 40.0193C104.195 40.5175 104.318 41.0498 104.265 41.6254C104.226 42.052 104.031 42.3747 103.622 42.5313C103.414 42.6106 103.205 42.688 102.991 42.7484C102.916 42.7691 102.838 42.788 102.763 42.805C100.791 43.2051 98.8655 42.9881 96.9592 42.3917C95.5154 41.9387 94.2471 41.2272 93.2223 40.1042C92.5598 39.3795 91.8804 38.6717 91.2462 37.9243C90.0553 36.5239 88.7794 35.231 87.1129 34.3893C86.9921 34.3289 86.8789 34.2307 86.7524 34.2081C86.7298 34.2043 86.7033 34.2005 86.6788 34.1987C86.4523 33.9174 86.2051 33.6645 85.9446 33.4267C85.7955 33.2927 85.6445 33.1644 85.4879 33.0379C85.486 33.0379 85.486 33.036 85.4841 33.036C84.9991 32.1981 84.3743 31.4676 83.5609 30.8939C82.6172 30.2277 81.6056 29.7199 80.4939 29.3821C79.118 28.9631 77.7969 28.4082 76.6739 27.4721C76.1398 27.0267 75.6076 26.5813 75.064 26.151C73.439 24.8638 71.7102 23.7408 69.8341 22.8424C68.2582 22.0894 66.5992 21.7081 64.8647 21.5854C63.5624 21.493 62.2715 21.6137 60.9805 21.744C60.8296 21.7591 60.6786 21.7798 60.5295 21.8025C59.8274 21.9082 59.1441 22.0931 58.4741 22.3272C58.2495 22.4064 58.0212 22.5084 57.8305 22.648C57.5135 22.8802 57.5399 23.2671 57.8721 23.4709C57.9834 23.5407 58.1231 23.5898 58.2533 23.6011C58.5383 23.6257 58.8289 23.6559 59.1083 23.6219C60.4559 23.4615 61.8015 23.2765 63.1491 23.1085C65.312 22.8386 67.3825 23.1066 69.3585 24.0862C71.4044 25.0997 73.2635 26.3812 74.9243 27.9345C76.0624 28.999 77.3439 29.7728 78.8217 30.2409C78.952 30.2824 79.0765 30.3352 79.2049 30.3786C80.4468 30.7939 81.566 31.4507 82.6417 32.1792C83.4344 32.7152 83.995 33.4682 84.4102 34.3213C84.8669 35.2631 84.7273 36.1068 84.0063 36.8598C83.3571 37.5393 82.5285 37.8998 81.6264 38.0809C80.1863 38.3716 78.7406 38.3055 77.3062 38.0375C76.0247 37.7978 74.8054 37.3487 73.6013 36.8636C70.3588 35.5613 67.0257 34.5591 63.6228 33.7815C61.4335 33.2814 59.2102 33.0228 56.9699 33.2833C54.6334 33.5532 52.3044 33.9023 49.9772 34.2477C48.1239 34.5233 46.2705 34.7932 44.3925 34.729C42.3919 34.6611 40.4253 34.3798 38.5568 33.6117C37.7056 33.2625 36.8658 32.8888 36.0165 32.5321C35.7673 32.4264 35.5125 32.3283 35.2521 32.2547C34.9954 32.183 34.7444 32.2056 34.5311 32.4566C34.6311 32.7567 34.8689 32.8775 35.0898 32.9926C36.1712 33.5588 37.2602 34.1118 38.3492 34.6667C38.7456 34.8687 39.1514 35.0385 39.5628 35.182C39.4911 35.2612 39.4307 35.3688 39.3854 35.516C39.3061 35.7746 39.2476 36.0445 39.2268 36.3125C39.1589 37.2165 38.8192 38.0017 38.2794 38.7189C37.6113 39.6078 36.8035 40.342 35.9032 40.995C34.8916 41.7311 33.8988 42.4955 32.9344 43.2938C32.5456 43.6147 32.2398 44.0431 31.9303 44.4489C31.7888 44.6339 31.7095 44.8773 31.6416 45.1057C31.5679 45.3511 31.6265 45.5889 31.836 45.7606C32.0473 45.9342 32.2908 45.9437 32.5116 45.8021C32.7891 45.6266 33.0703 45.4398 33.31 45.2171C34.0083 44.5659 34.75 43.9789 35.5522 43.4637C36.392 42.9239 37.264 42.4464 38.1907 42.0746C39.3023 41.6292 40.1668 40.8705 40.8839 39.9306C41.2765 39.4172 41.5181 38.8378 41.5955 38.1923C41.6219 37.9753 41.6446 37.7582 41.6691 37.5412C41.7125 37.5468 41.7351 37.5431 41.7389 37.5506C41.8239 37.6922 41.9088 37.8356 41.9862 37.9809C42.526 38.9944 43.3715 39.6852 44.385 40.1721C45.3419 40.6327 46.4366 40.4005 47.0254 39.689C47.4878 39.857 47.9295 40.0551 48.39 40.1759C49.3016 40.4175 50.0584 40.0834 50.6737 39.4229C51.2002 38.8567 51.0681 38.13 50.3962 37.7469C50.2301 37.6525 50.0357 37.5714 49.847 37.5525C49.0373 37.4713 48.2522 37.5732 47.5161 37.9507C47.1443 38.1413 46.9103 38.432 46.8008 38.8378C46.7423 39.0548 46.6574 39.2643 46.5781 39.4757C46.497 39.6909 46.329 39.806 46.1138 39.8664C45.5721 40.0174 45.0361 40.0268 44.5284 39.7588C43.6206 39.2775 42.8355 38.6585 42.3146 37.7469C42.1504 37.4581 42.0069 37.1543 41.8088 36.89C41.62 36.6371 41.5332 36.3691 41.4709 36.069C41.4426 35.9294 41.403 35.7897 41.3558 35.6538C42.0013 35.7746 42.6562 35.8576 43.3149 35.9218C45.0682 36.0917 46.8159 35.9879 48.5561 35.7954C49.5394 35.6878 50.5189 35.567 51.5003 35.4462C52.2081 35.5481 52.9008 35.7293 53.5802 35.9501C55.6544 36.6239 57.5512 37.6261 59.1083 39.1964C59.3404 39.4304 59.6009 39.6437 59.8727 39.8305C60.2766 40.108 60.7635 39.9947 60.9956 39.5625C61.0976 39.3719 61.1504 39.1341 61.1542 38.917C61.1674 38.2621 60.9428 37.6657 60.5766 37.1373C59.7179 35.8916 58.6044 35.1669 57.3115 34.8253C58.9139 34.7592 60.5106 34.8555 62.1035 35.1593C62.7169 35.2763 63.3265 35.4085 63.9324 35.5481C64.0173 35.9237 64.1834 36.2729 64.4627 36.588C64.8553 37.0335 65.2875 37.4241 65.8122 37.7091C66.2104 37.9243 66.6124 38.1319 66.9956 38.3716C67.7278 38.8283 68.1072 39.4965 68.1299 40.3628C68.1431 40.9158 67.9808 41.4329 67.7996 41.9463C67.726 42.1558 67.675 42.3785 67.6505 42.6012C67.641 42.6823 67.7146 42.8012 67.7864 42.8522C67.8279 42.8805 67.9657 42.8295 68.0185 42.7748C68.5639 42.2067 69.0716 41.6122 69.3359 40.8497C69.5869 40.125 69.5963 39.4191 69.3038 38.6887C68.9301 37.7507 68.3016 37.0523 67.4542 36.5314C67.3994 36.4975 67.3428 36.4635 67.2881 36.4295C68.1846 36.69 69.0792 36.9674 69.9681 37.2524C71.4025 37.7148 72.8162 38.2489 74.2336 38.7604C76.4531 39.5625 78.7274 39.9098 81.0847 39.6342C82.2095 39.504 83.2759 39.1983 84.246 38.6113C85.4539 37.8809 86.1466 36.7183 86.1938 35.4688C86.5429 35.9482 86.7788 36.4899 86.8902 37.0995C86.9298 37.3222 86.9902 37.5412 87.0525 37.7582C87.5243 39.4304 87.5734 41.1064 87.2261 42.8182C86.9015 44.4149 86.1938 45.7663 84.9915 46.8628C84.4706 47.3384 83.8761 47.6895 83.2023 47.8933C83.006 47.9537 82.7588 48.0254 82.5889 47.9575C82.1926 47.7971 81.7962 47.597 81.4584 47.3366C81.079 47.0459 80.7374 46.693 80.4279 46.3268C79.7635 45.5455 79.1313 44.7358 78.4782 43.9431C77.9875 43.3467 77.3836 42.9107 76.6456 42.6672C76.1606 42.5087 75.6736 42.4691 75.1754 42.5898C74.3336 42.7937 74.1298 43.2863 74.3846 44.0809C74.4431 44.2639 74.5488 44.4395 74.6658 44.5942C74.8564 44.8471 75.0527 45.1 75.2829 45.3152C75.734 45.738 76.2077 46.1381 76.6758 46.5401C77.1514 46.9478 77.6837 47.2724 78.2801 47.4536C79.1294 47.7121 79.9957 47.916 80.8544 48.1443C80.9318 48.1651 81.0092 48.1821 81.0941 48.2029C81.0696 48.2538 81.0658 48.2727 81.0564 48.2802C79.4729 49.5466 78.08 51.015 76.6815 52.4739C76.2379 52.9363 75.8888 53.4686 75.6812 54.0763C75.5755 54.3839 75.5113 54.7218 75.5094 55.0464C75.5075 55.5503 75.851 55.9165 76.338 56.0486C76.6985 56.1467 77.0476 56.0713 77.3402 55.8901C77.7856 55.6145 78.231 55.3163 78.6085 54.9558C79.8334 53.7894 80.6921 52.3815 81.2338 50.781C81.481 50.0506 81.7641 49.339 82.2058 48.6955C82.3568 48.4746 82.5323 48.3784 82.7909 48.3369C83.1004 48.2878 83.4156 48.2161 83.7024 48.0934C85.4143 47.3592 86.5977 46.0777 87.2809 44.3772C87.8641 42.9258 88.1415 41.3933 88.0396 39.8135C87.9603 38.6019 87.6829 37.4279 87.345 36.2672C87.245 35.9256 87.0601 35.6028 86.8883 35.2877C86.86 35.2348 86.8373 35.1933 86.8185 35.1537C87.0506 35.3537 87.2884 35.5462 87.5168 35.7501C87.8433 36.0407 88.1849 36.3219 88.4718 36.6484C89.021 37.2713 89.5495 37.913 90.061 38.566C90.0836 38.5943 90.1081 38.6226 90.1308 38.6528C90.1327 38.6698 90.1327 38.6887 90.1346 38.7057C90.329 40.5534 90.2289 42.3728 89.7061 44.1696C89.289 45.6058 88.7417 46.9931 88.1925 48.3803C88.1151 48.5765 88.0264 48.7747 87.9924 48.9786C87.9716 49.1107 88.0018 49.2862 88.0773 49.3919C88.1868 49.5448 88.385 49.5259 88.5303 49.4315C88.7549 49.2862 89.0022 49.1446 89.1607 48.9389C89.4249 48.5954 89.6627 48.2179 89.8458 47.8254C90.697 45.9965 91.1292 44.0658 91.1934 42.052C91.2047 41.6801 91.1953 41.3064 91.1953 40.9327C91.2349 40.929 91.2764 40.9252 91.316 40.9214C91.401 41.1762 91.4954 41.4291 91.569 41.6877C92.0974 43.5713 92.2125 45.4869 91.9766 47.4253C91.954 47.6046 91.9313 47.7876 91.9483 47.965C91.9955 48.4444 92.4013 48.6709 92.8335 48.4558C92.9788 48.384 93.1279 48.2802 93.2185 48.15C93.4148 47.8688 93.6205 47.5781 93.7432 47.2629C94.2433 45.989 94.2905 44.681 93.9602 43.3542C93.8583 42.9428 93.713 42.5615 93.5356 42.2029C94.0565 42.5785 94.6152 42.8918 95.2172 43.1315C97.3952 44.0035 99.6582 44.3715 102.002 44.1073C102.646 44.0356 103.289 43.9431 103.92 43.7996C104.85 43.5864 105.396 42.9579 105.603 42.0387C105.817 41.1234 105.698 40.2382 105.303 39.3889ZM47.216 38.8227C47.3029 38.5811 47.4708 38.4207 47.6954 38.3074C48.1635 38.0696 48.6655 37.9847 49.1978 37.9186C49.5016 37.9885 49.8262 38.013 50.1018 38.1413C50.5623 38.3565 50.6303 38.7717 50.2849 39.136C49.8017 39.6493 49.2091 39.9249 48.4938 39.7418C48.1182 39.6456 47.752 39.4984 47.3991 39.336C47.1311 39.2115 47.1179 39.1001 47.216 38.8227ZM32.2342 45.3284C32.221 45.3699 32.1927 45.4077 32.1662 45.4435C32.1587 45.4549 32.1417 45.4586 32.0832 45.4888C32.0511 45.3982 31.9813 45.3039 32.0002 45.2322C32.0436 45.0585 32.1134 44.8886 32.2002 44.732C32.4663 44.2507 32.823 43.8374 33.259 43.5052C34.231 42.7654 35.203 42.0236 36.2071 41.3291C37.1998 40.644 38.0642 39.8419 38.7777 38.8699C39.3174 38.1338 39.6609 37.3336 39.693 36.4069C39.7043 36.0992 39.6874 35.7708 39.8855 35.4972C40.5121 35.6783 40.5782 35.7633 40.4801 36.3842C40.3744 37.0486 40.1082 37.6582 39.7496 38.2225C39.0041 39.3946 38.0812 40.3835 36.8865 41.1309C35.8523 41.7783 34.8708 42.5106 33.8724 43.2146C33.1118 43.7525 32.5362 44.4357 32.2342 45.3284ZM40.5216 39.789C39.8723 40.6534 39.0551 41.297 38.051 41.7047C36.7563 42.2294 35.5691 42.9409 34.4575 43.7808C34.014 44.1167 33.6082 44.5036 33.1854 44.866C33.0665 44.9679 32.9457 45.068 32.8268 45.1699C32.8212 44.832 32.957 44.5829 33.1477 44.3753C33.4119 44.0865 33.678 43.7902 33.9913 43.5618C34.9652 42.8522 35.9372 42.135 36.9545 41.4895C37.9623 40.8516 38.8381 40.0948 39.5685 39.1511C40.2328 38.2923 40.7367 37.3619 40.9821 36.2936C41.2595 37.5185 41.3313 38.7113 40.5216 39.789ZM60.269 39.2738C60.1576 39.2002 60.0614 39.1001 59.9708 39.0001C58.9611 37.8922 57.8381 36.9221 56.5207 36.1917C56.5037 36.1823 56.4962 36.154 56.4811 36.1313C57.621 36.5144 59.5707 38.0017 60.5729 39.2794C60.4181 39.2813 60.3218 39.3096 60.269 39.2738ZM60.537 38.4509C60.5502 38.4943 60.5578 38.5396 60.5615 38.583C60.5634 38.5943 60.5483 38.6094 60.5313 38.6415C58.9611 36.9334 57.1058 35.6972 54.8259 35.1367C55.2864 35.0215 55.7431 35.0215 56.1923 35.1102C57.1435 35.2971 58.057 35.6047 58.861 36.1653C59.6783 36.7334 60.252 37.4883 60.537 38.4509ZM66.4275 36.4465C66.7728 36.6617 67.1126 36.8881 67.4466 37.1184C68.1223 37.5846 68.6168 38.1961 68.9263 38.9605C69.3076 39.8985 69.0698 41.08 68.2865 41.8727C68.3677 41.5801 68.4375 41.3385 68.4998 41.0932C68.8319 39.772 68.3054 38.5283 67.1239 37.8545C66.7313 37.6299 66.3274 37.4241 65.933 37.2033C65.4102 36.9127 64.9648 36.5239 64.6496 36.0181C64.5816 35.9086 64.5269 35.7897 64.4759 35.6708C64.9478 35.7859 65.4177 35.9048 65.8858 36.0313C66.0538 36.1842 66.2312 36.3257 66.4275 36.4465ZM76.0247 45.2661C75.5453 44.7981 75.03 44.3564 74.8621 43.6373C74.9376 43.6921 75.0187 43.7393 75.0867 43.7996C75.5811 44.2394 76.0624 44.6961 76.572 45.1208C76.8815 45.3813 77.2231 45.6058 77.5648 45.8248C78.2367 46.2551 78.9199 46.6665 79.5974 47.0893C79.7201 47.1667 79.8334 47.2629 79.9504 47.3498C78.3386 47.1856 77.1193 46.3363 76.0247 45.2661ZM75.1754 43.1485C75.5264 43.0258 75.8359 43.0504 76.1436 43.1221C76.874 43.2957 77.4666 43.694 77.9536 44.2526C78.5575 44.9453 79.1539 45.6455 79.7541 46.3419C79.8598 46.4646 79.9692 46.5873 80.0749 46.7081C78.3008 45.7153 76.5569 44.7112 75.1754 43.1485ZM78.2423 54.5689C77.9366 54.8539 77.5817 55.0936 77.2326 55.3276C77.0495 55.4503 76.8344 55.5447 76.5645 55.473C78.0083 53.3497 79.3861 51.2019 81.2149 49.2994C80.6261 51.3434 79.7673 53.1477 78.2423 54.5689ZM76.3493 55.405C76.1021 55.2861 76.053 55.1125 76.0756 54.9275C76.1021 54.7048 76.1417 54.4802 76.2191 54.2707C76.4003 53.7706 76.6626 53.31 77.0306 52.9231C78.2782 51.6133 79.5333 50.311 80.7903 49.0125C80.9431 48.854 81.1319 48.7294 81.3036 48.5898C81.3338 48.6181 81.3621 48.6464 81.3923 48.6747C79.3785 50.6696 77.6799 52.9005 76.3493 55.405ZM89.4551 47.7895C89.3155 48.0877 89.1267 48.3652 88.9323 48.6332C88.8134 48.7974 88.6435 48.9238 88.4982 49.0673C88.4605 49.0408 88.4208 49.0144 88.3831 48.988C88.4624 48.7993 88.536 48.6067 88.6209 48.4199C89.2003 47.1271 89.7212 45.8116 90.1176 44.447C90.5215 43.056 90.6838 41.6443 90.5875 40.1042C90.8083 40.493 90.8027 40.8384 90.8102 41.1611C90.8612 43.4712 90.4403 45.6908 89.4551 47.7895ZM93.2714 47.2044C93.1902 47.412 93.0675 47.6102 92.9316 47.7876C92.841 47.9084 92.6938 47.9858 92.5711 48.0821C92.5315 48.0613 92.4919 48.0387 92.4522 48.0179C92.4655 47.7801 92.4636 47.5423 92.4938 47.3064C92.7731 45.0981 92.5579 42.9428 91.7992 40.8459C91.7898 40.8214 91.803 40.7893 91.8105 40.7289C92.4239 41.2366 92.8939 41.833 93.2053 42.5408C93.8866 44.0846 93.8866 45.6436 93.2714 47.2044Z" fill="black"/>
<path d="M3.04492 67.4296C2.85052 67.8788 2.75804 68.3336 2.75049 68.7885C2.80522 69.1188 2.92413 69.4339 3.09965 69.734C3.46202 70.3531 3.9433 70.8721 4.45666 71.3647C5.95145 72.7972 7.4972 74.1674 9.09767 75.481C9.66954 75.951 10.2395 76.4228 10.8076 76.8984C11.3191 77.2646 11.8249 77.6383 12.3232 78.0233C12.8195 78.4064 13.3046 78.8028 13.784 79.2067C13.7764 79.2142 13.7689 79.2237 13.7613 79.2331C13.0819 78.6801 12.4024 78.129 11.7249 77.5722C11.6683 77.5269 11.606 77.5156 11.5494 77.525C12.176 78.0592 12.7969 78.599 13.4027 79.1538C14.4144 80.0786 15.3411 81.0997 16.2677 82.1113C18.442 84.4818 20.435 87.0052 22.479 89.4871C22.8188 89.8986 23.1679 90.3025 23.5209 90.7026C23.536 90.7007 23.5492 90.6969 23.5643 90.6931C23.6077 90.763 23.653 90.8309 23.6964 90.9007C24.0984 91.348 24.508 91.7878 24.9251 92.2219C26.4312 93.7922 28.2091 94.8887 30.221 95.5871C30.1889 95.5002 30.1361 95.421 30.0625 95.37C29.1244 94.7094 28.143 94.2867 27.3352 93.4298C26.518 92.5616 25.8857 91.5368 25.2742 90.5176C23.9417 88.3 22.4904 86.1729 20.8446 84.1742C17.4341 80.0371 13.314 76.4851 8.69189 73.7654C7.41226 73.0124 6.07979 72.2971 5.05118 71.2043C4.08108 70.1719 3.3903 68.5167 3.7338 67.0898C3.65453 67.1163 3.57526 67.1446 3.49599 67.1691C3.30915 67.2276 3.16004 67.3182 3.04492 67.4296Z" fill="#E5EFCF"/>
<path d="M103.643 76.2683C102.893 76.3476 102.214 76.6231 101.551 76.9477C101.4 77.0213 101.251 77.0968 101.1 77.1742C97.537 79.0219 94.202 81.2226 91.0841 83.746C88.925 85.4937 86.8111 87.298 84.7124 89.1155C82.0512 91.42 79.2824 93.5867 76.4344 95.6534C75.6663 96.212 74.8566 96.7141 74.062 97.235C72.4445 98.2957 70.678 98.943 68.7604 99.2016C67.0618 99.43 65.3688 99.5187 63.6627 99.2658C62.166 99.0431 60.7052 98.6731 59.2462 98.2862C57.0135 97.6955 54.7638 97.1821 52.4669 96.899C51.1495 96.7367 49.8283 96.6348 48.5072 96.5744C47.0577 96.5083 45.6044 96.4913 44.1493 96.5064C41.6127 96.5329 39.0779 96.5933 36.5413 96.5951C34.8484 96.5951 33.1743 96.3894 31.5228 95.9742C31.0774 95.8629 30.6433 95.7326 30.2187 95.5854C28.2068 94.889 26.4289 93.7905 24.9227 92.2202C24.5075 91.7862 24.0961 91.3464 23.6941 90.8991C23.6356 90.833 23.5771 90.767 23.5186 90.7009C23.1637 90.3027 22.8146 89.8969 22.4767 89.4855C20.4327 87.0036 18.4378 84.4802 16.2654 82.1097C15.3369 81.098 14.412 80.077 13.4004 79.1522C12.7927 78.5973 12.1718 78.0575 11.547 77.5234C11.2998 77.3139 11.0526 77.1044 10.8053 76.8968C10.2372 76.4212 9.66723 75.9493 9.09536 75.4794C7.49677 74.1658 5.94913 72.7937 4.45435 71.363C3.94099 70.8704 3.45782 70.3514 3.09734 69.7324C2.92181 69.4323 2.8048 69.1171 2.74817 68.7868C2.71986 68.6169 2.70665 68.4433 2.7142 68.264C2.72741 67.9186 2.82933 67.6336 3.0426 67.4279C3.15962 67.3147 3.30683 67.226 3.49368 67.1656C3.57295 67.1391 3.65222 67.1127 3.73149 67.0863C3.924 67.0202 4.1184 66.9561 4.31657 66.924C5.80381 66.6786 7.2835 66.6465 8.76319 67.0221C10.0862 67.3581 11.3847 67.7318 12.5153 68.5358C13.2966 69.0907 13.9383 69.7946 14.5819 70.493C15.5747 71.5688 16.5391 72.671 17.5451 73.7336C18.1679 74.3923 18.9549 74.8226 19.7344 75.2642C20.0156 75.6209 20.4648 75.7436 20.9027 75.8644C20.9725 75.8833 21.0423 75.8852 21.1065 75.8738C21.1952 76.0947 21.2934 76.3098 21.4009 76.5174C21.9973 77.6725 22.875 78.6048 24.0923 79.239C25.1681 79.7995 26.3118 80.1789 27.4461 80.5903C28.2955 80.898 29.1599 81.183 29.9695 81.5774C30.9925 82.0738 32.0192 82.5438 33.1252 82.8042C34.4313 83.1119 35.743 83.4063 37.0603 83.6573C40.0971 84.2367 43.1358 84.8143 46.1423 85.5409C46.8595 85.7145 47.5861 85.8561 48.3128 85.9939C48.4789 86.0259 48.6506 86.0561 48.8261 86.0524C48.9847 86.0486 49.1489 86.0165 49.3225 85.9278C49.2093 85.8447 49.147 85.7825 49.0734 85.7466C48.6487 85.5503 48.2316 85.337 47.7956 85.171C45.7346 84.3877 43.6378 83.7177 41.4938 83.2062C39.4988 82.7306 37.4907 82.3041 35.4938 81.8398C34.0368 81.5019 32.5873 81.1226 31.2699 80.3865C29.9431 79.6467 28.5465 79.0918 27.0875 78.686C26.0476 78.3972 25.0869 77.9631 24.1867 77.346C23.3732 76.7873 22.8448 76.0494 22.4899 75.1736C22.1804 74.4149 22.322 73.6902 22.8523 73.056C23.4714 72.3162 24.2999 71.9179 25.2115 71.7141C26.7837 71.363 28.3728 71.4064 29.928 71.7764C31.068 72.0482 32.1947 72.42 33.2837 72.8522C36.362 74.0771 39.5177 75.0396 42.73 75.8266C45.0307 76.391 47.3615 76.6986 49.7321 76.4985C51.0985 76.3834 52.4593 76.1852 53.8201 76.0022C55.9736 75.7115 58.1176 75.3491 60.2749 75.1113C62.434 74.8735 64.5875 75.0472 66.7013 75.5719C67.9375 75.8795 69.0945 76.3985 70.2552 76.9062C70.6704 77.0874 71.0819 77.2818 71.5084 77.4252C71.7273 77.4988 71.984 77.5139 72.2143 77.4819C72.4766 77.446 72.5257 77.2441 72.3332 77.0648C72.203 76.9421 72.0501 76.8364 71.8915 76.7533C70.8761 76.2211 69.8589 75.6945 68.8397 75.1698C68.2471 74.8641 67.6393 74.6263 67.0203 74.4375C67.3204 73.8374 67.8243 73.3995 68.3716 73.0032C69.0983 72.4766 69.9004 72.1048 70.7403 71.7952C72.9692 70.9761 74.2602 69.3455 74.7433 67.0504C74.9359 66.1332 74.7509 65.2178 74.6584 64.3043C74.6377 64.0986 74.649 63.8419 74.3564 63.8287C74.0733 63.8155 74.0375 64.0665 73.9884 64.2666C73.794 65.0668 73.3826 65.75 72.805 66.3181C72.3464 66.7711 71.8481 67.1939 71.331 67.5789C70.0533 68.5245 69.0624 69.6871 68.4415 71.1592C68.2489 71.6159 68.0074 72.0538 67.7809 72.4973C67.7148 72.6257 67.6242 72.7408 67.545 72.8616C67.5903 72.2086 67.6771 71.5839 67.7941 70.9629C67.9885 69.9305 68.4037 68.9774 68.885 68.0526C69.0379 67.7582 69.2172 67.477 69.3531 67.175C69.5022 66.8447 69.3323 66.6333 68.9756 66.6937C68.4226 66.7862 67.896 66.9504 67.4204 67.2712C66.0068 68.2262 65.265 70.1042 65.5972 71.8405C65.7293 72.5294 66.0445 73.1504 66.2389 73.8147C66.2955 74.011 66.3654 74.1714 66.4767 74.2903C65.3405 73.9997 64.1666 73.8619 62.9794 73.7958C61.3318 73.7034 59.6898 73.8166 58.0534 74.0072C55.7301 74.2771 53.4105 74.5829 51.0853 74.8396C49.2621 75.0415 47.4408 75.0151 45.6233 74.7282C45.1477 74.6527 44.6758 74.564 44.2059 74.4677C44.7608 74.3564 45.3006 74.1601 45.8215 73.8657C46.1574 73.6769 46.4764 73.4222 46.7349 73.1372C47.3615 72.4483 47.2596 71.6216 46.5236 71.0554C46.0612 70.6987 45.5252 70.5345 44.9589 70.5571C44.389 70.5798 43.8209 70.6779 43.2547 70.7572C42.345 70.8855 41.4371 71.0422 40.5255 71.1535C40.0254 71.2139 39.5309 71.1233 39.0666 70.9195C38.2437 70.5571 37.9965 69.94 38.3513 69.1133C38.4513 68.8793 38.6061 68.6679 38.7137 68.4357C38.7514 68.3527 38.7646 68.2074 38.7174 68.1526C38.6703 68.0979 38.5117 68.0809 38.4381 68.1168C37.8927 68.3848 37.368 68.6849 37.0226 69.2096C36.6621 69.7569 36.6055 70.3363 36.9112 70.9252C37.3944 71.8575 38.223 72.3313 39.2082 72.5143C39.7819 72.62 40.3783 72.6087 40.9653 72.6351C41.4636 72.6578 41.9618 72.6521 42.4582 72.6748C42.6205 72.6823 42.7904 72.7219 42.9376 72.7899C43.3509 72.9805 43.4075 73.2825 43.0414 73.5411C42.8055 73.7071 42.5771 73.9034 42.3091 74.0299C41.4013 73.8015 40.4991 73.5505 39.597 73.3014C37.3982 72.6917 35.2579 71.916 33.1214 71.1233C30.9736 70.3288 28.7692 69.8985 26.4666 70.074C25.4795 70.1495 24.5283 70.3325 23.6318 70.7081C23.8772 69.6059 24.3999 68.666 25.2719 67.896C26.1325 68.398 26.8177 68.3527 27.3178 67.7884C27.7425 67.309 27.7632 66.5899 27.3669 66.0822C26.946 65.5424 26.1552 65.382 25.5286 65.7085C25.236 65.8614 25.0284 66.0879 24.8963 66.3899C24.7057 66.8277 24.8322 67.2373 25.019 67.6317C23.9206 68.3112 23.0807 69.8985 23.0958 70.961C22.9825 71.0195 22.8712 71.0781 22.7598 71.1441C21.6123 71.8236 20.9083 72.9333 20.8083 74.1261C20.4478 73.9204 20.1156 73.66 19.8269 73.3618C19.8023 73.2957 19.7665 73.2315 19.7344 73.1692C19.272 72.3029 19.2022 71.4197 19.4494 70.4571C19.9514 68.5056 20.8876 66.8541 22.505 65.6179C22.9901 65.2461 23.5223 64.963 24.1168 64.8233C24.6887 64.6893 25.2662 64.578 25.8438 64.4666C27.0649 64.2326 28.2464 63.8816 29.3373 63.27C30.4754 62.6321 31.353 61.7394 31.9173 60.5598C32.0456 60.2918 32.1513 59.9974 32.191 59.7029C32.291 58.9688 31.772 58.4139 31.0416 58.4969C30.6452 58.5422 30.2319 58.6517 29.8771 58.8329C29.1278 59.2179 28.3898 59.6331 27.6858 60.0974C26.2798 61.026 25.0945 62.215 23.93 63.4229C23.83 63.5267 23.7243 63.6249 23.6129 63.7343C23.5959 63.6909 23.5846 63.6777 23.5865 63.6702C23.6205 63.6022 23.6563 63.5362 23.6922 63.4701C24.2829 62.4188 24.6774 61.2959 24.8378 60.1049C24.9001 59.6369 24.9001 59.1273 24.7887 58.6724C24.4981 57.4834 23.3185 57.0437 22.3163 57.7382C21.9653 57.9817 21.6444 58.3082 21.3972 58.6573C20.7271 59.6029 20.3629 60.6768 20.3686 61.8375C20.3723 62.8171 20.4422 63.7966 20.5082 64.7743C20.5497 65.3839 20.578 65.9746 20.2364 66.5257C20.11 66.7277 20.0439 66.9674 19.9477 67.1882C19.3418 68.5924 18.8285 70.0287 18.702 71.565C18.6492 72.1954 18.6567 72.822 18.8115 73.4146C18.7171 73.324 18.6227 73.2296 18.5359 73.1315C17.9773 72.4992 17.4394 71.8443 16.9185 71.18C16.1541 70.2023 15.3444 69.2718 14.4555 68.4037C13.5533 67.5242 12.5096 66.8787 11.33 66.4559C9.19539 65.6878 7.00039 65.3858 4.73934 65.6708C4.18634 65.7406 3.63146 65.818 3.08979 65.9482C2.18952 66.1671 1.61765 66.7503 1.40249 67.6544C1.18544 68.566 1.27792 69.4511 1.66294 70.308C2.03287 71.1309 2.56699 71.8405 3.1917 72.4822C4.36942 73.6958 5.57166 74.8849 6.88526 75.955C7.63455 76.5646 8.36118 77.2025 9.10668 77.8159C10.1447 78.6671 11.1677 79.541 12.2416 80.345C13.3948 81.2094 14.4592 82.1568 15.4369 83.2157C16.7467 84.6368 18.0848 86.0297 19.406 87.4396C19.9835 88.0567 20.5762 88.6626 21.1122 89.3137C21.9558 90.3386 22.7561 91.3992 23.5808 92.4411C24.8756 94.0755 26.427 95.3929 28.3257 96.2781C30.9132 97.486 33.6499 98.0333 36.4885 98.056C38.3438 98.0711 40.2028 98.0201 42.0581 97.9673C44.8061 97.8899 47.5541 97.8351 50.2945 98.0862C51.6308 98.2088 52.9746 98.3391 54.2863 98.6014C56.3548 99.0147 58.4026 99.5413 60.4579 100.026C62.3566 100.474 64.2628 100.87 66.2276 100.795C67.0108 100.764 67.7941 100.7 68.5736 100.606C70.5383 100.368 72.4276 99.8678 74.1337 98.8241C75.0868 98.2428 76.0626 97.686 76.9553 97.0236C79.088 95.442 81.2226 93.8547 83.278 92.1731C85.6598 90.2234 87.9586 88.17 90.2933 86.1599C91.941 84.7406 93.6226 83.3591 95.4344 82.155C98.2485 80.2846 101 78.3142 104.031 76.7892C104.182 76.7137 104.305 76.5816 104.492 76.4363C104.177 76.155 103.899 76.24 103.643 76.2683ZM74.0771 65.8538C74.0979 65.767 74.1281 65.684 74.1564 65.599C74.1601 65.5896 74.1809 65.5877 74.23 65.567C74.5036 67.9431 73.0353 70.3854 70.8403 71.2328C70.3666 71.4159 69.8909 71.5933 69.3285 71.8047C69.4512 71.6537 69.5097 71.5556 69.5909 71.4857C70.0589 71.0818 70.5327 70.6855 71.0026 70.2854C71.4612 69.8928 71.9482 69.5304 72.3653 69.0982C73.2429 68.1866 73.7865 67.0844 74.0771 65.8538ZM68.9529 71.3593C69.4323 70.2438 70.1571 69.3058 71.0724 68.5226C71.8028 67.8979 72.5653 67.3128 73.341 66.6862C72.9447 67.7393 72.3256 68.5981 71.5273 69.3304C71.2951 69.5436 71.0498 69.7456 70.7988 69.9381C70.1514 70.4363 69.5474 70.9799 69.0284 71.6122C68.9718 71.682 68.9227 71.7556 68.8699 71.8292C68.8378 71.8103 68.8057 71.7896 68.7755 71.7707C68.834 71.6348 68.8944 71.497 68.9529 71.3593ZM68.449 67.3581C68.4811 67.3751 68.5151 67.3939 68.5471 67.4109C68.4811 67.5374 68.4207 67.6676 68.349 67.7903C67.6242 69.0265 67.1222 70.3344 67.0052 71.7783C66.975 72.1538 66.9316 72.5408 66.7749 72.8918C66.7428 72.8918 66.7107 72.8918 66.6787 72.8918C66.6447 72.5879 66.5805 72.2841 66.5824 71.9802C66.5862 71.0422 66.6598 70.1117 67.1165 69.2605C67.2015 69.102 67.2788 68.9359 67.3845 68.7906C67.5619 68.5471 67.7639 68.3225 67.9432 68.0809C68.1187 67.8469 68.281 67.5997 68.449 67.3581ZM66.1502 71.7179C65.7048 70.5703 66.3767 68.6981 67.5053 67.9469C66.6277 69.0529 66.1993 70.3137 66.1502 71.7179ZM43.417 73.7638C43.8511 73.3297 43.8095 72.8144 43.3151 72.452C43.0508 72.2577 42.7507 72.1671 42.4261 72.1595C41.9297 72.1482 41.4296 72.1652 40.9332 72.1369C40.2726 72.0991 39.6045 72.0802 38.9571 71.9613C38.2437 71.8292 37.6379 71.4687 37.2434 70.8157C36.9471 70.325 37 69.8588 37.3246 69.4247C37.5001 69.1888 37.7379 69.002 37.9474 68.7925C37.9719 68.8227 37.9946 68.8529 38.0191 68.8849C37.9776 69.0133 37.9323 69.1397 37.8964 69.2681C37.6775 70.0268 37.9021 70.6817 38.5514 71.129C39.1874 71.565 39.9065 71.6839 40.6614 71.6612C41.8259 71.6273 42.9659 71.4083 44.1096 71.2139C44.589 71.1328 45.0778 71.0894 45.5421 71.2517C45.8177 71.3479 46.0876 71.5084 46.3103 71.6971C46.5896 71.933 46.6066 72.2331 46.433 72.5577C46.3839 72.6502 46.3235 72.7408 46.2518 72.8163C45.393 73.7222 44.287 74.0299 43.064 74.0903C43.1829 73.9789 43.3037 73.877 43.417 73.7638ZM26.074 66.0803C26.6025 66.0822 27.0309 66.4804 27.0177 66.9617C27.0064 67.4166 26.6214 67.7431 26.0929 67.7469C25.5531 67.7506 25.1794 67.4052 25.1851 66.9051C25.1908 66.4408 25.5814 66.0784 26.074 66.0803ZM31.5266 60.1484C31.102 60.9637 30.5225 61.6469 29.7733 62.1867C28.8673 62.8397 27.8557 63.2682 26.778 63.523C25.8136 63.7513 24.8359 63.9117 23.8621 64.1005C23.879 64.0854 23.896 64.0684 23.913 64.0533C23.9979 63.9797 24.0866 63.9099 24.1754 63.8363C24.1716 63.8495 24.1678 63.8627 24.164 63.8778C24.2282 63.8665 24.2829 63.8683 24.3226 63.8457C25.3776 63.2625 26.4628 62.7397 27.5801 62.2811C28.2879 61.9885 28.9674 61.6224 29.6449 61.26C30.4508 60.8297 31.1189 60.2295 31.6663 59.4085C31.7512 59.735 31.6342 59.9445 31.5266 60.1484ZM29.2561 59.6105C29.6846 59.3651 30.147 59.1726 30.6075 58.9914C30.8207 58.9065 31.068 58.9084 31.37 58.8593C31.2228 59.133 31.1378 59.3028 31.0434 59.467C30.7585 59.9615 30.3659 60.3616 29.8733 60.6372C29.007 61.1222 28.1388 61.6092 27.2385 62.0244C26.3628 62.4302 25.4908 62.836 24.6774 63.355C24.6264 63.3889 24.5641 63.4135 24.4622 63.4626C24.4528 63.4607 24.4434 63.4626 24.4339 63.4682C24.4905 63.3682 24.5056 63.3286 24.5321 63.3021C25.9891 61.9187 27.5047 60.6108 29.2561 59.6105ZM24.1886 63.6626C24.1848 63.6664 24.181 63.6683 24.1791 63.6721C24.1754 63.6664 24.1716 63.6626 24.1659 63.6588C24.1659 63.657 24.1678 63.657 24.1678 63.6551C24.1754 63.657 24.1829 63.6588 24.1886 63.6626ZM23.7375 58.0874C24.147 58.3761 24.332 58.7517 24.3358 59.1896C24.3396 59.6237 24.3188 60.0653 24.2395 60.4919C23.9621 61.9923 23.4261 63.3946 22.4881 64.6082C22.205 64.9743 21.7992 65.248 21.4179 65.5368C21.9898 64.1118 22.0955 62.6 22.4314 61.1392C22.6183 60.3258 22.8542 59.5425 23.343 58.8499C23.4997 58.6328 23.594 58.3723 23.7375 58.0874ZM20.9102 61.2506C21.0027 60.3654 21.3122 59.5538 21.8237 58.8253C22.0615 58.4875 22.3597 58.21 22.7353 58.0345C22.9052 57.9552 23.0939 57.9175 23.2751 57.8609C23.2958 57.893 23.3185 57.9269 23.3393 57.959C23.2958 58.0326 23.26 58.1157 23.2071 58.1817C22.4994 59.0442 22.1408 60.0634 21.9162 61.1336C21.684 62.2377 21.4878 63.3512 21.2688 64.4591C21.2179 64.7177 21.1386 64.9706 21.0348 65.2197C20.9536 63.891 20.7724 62.5736 20.9102 61.2506ZM20.8026 74.5848C20.8026 74.5942 20.8026 74.6018 20.8026 74.6112C20.7592 74.5885 20.7196 74.564 20.6781 74.5395C20.7196 74.5546 20.7611 74.5716 20.8026 74.5848Z" fill="black"/>
<path d="M84.5049 57.181C84.3312 56.8073 84.1085 56.4638 83.7726 56.2184C83.446 55.9806 83.1346 56.0693 82.9591 56.4336C82.927 56.5015 82.9025 56.5732 82.8798 56.645C82.525 57.7679 82.2287 58.9041 82.0494 60.0724C81.5889 63.0676 80.4829 65.7703 78.4502 68.0484C77.0592 69.2015 75.6664 70.3528 74.2754 71.5041C73.5299 72.1213 72.79 72.7403 72.1615 73.4783C72.0407 73.6198 71.9445 73.784 71.8369 73.9388C71.8596 73.9652 71.8822 73.9935 71.9049 74.02C72.0993 73.9218 72.3012 73.8407 72.4843 73.7255C73.5695 73.0423 74.6642 72.3723 75.7286 71.6589C78.7937 69.6111 81.7135 67.3689 84.5105 64.972C85.3447 64.2567 86.1374 63.4866 86.9131 62.7071C88.3871 61.2237 89.6856 59.6024 90.6916 57.7585C90.8218 57.5207 90.9521 57.281 91.0483 57.03C91.1446 56.7771 91.071 56.5525 90.8954 56.4185C90.7011 56.2694 90.4708 56.2731 90.233 56.4675C90.0593 56.6091 89.8989 56.7733 89.7555 56.9469C89.1685 57.6547 88.5759 58.3606 88.0097 59.0853C86.7225 60.7292 85.3428 62.29 83.7443 63.6357C83.665 63.7037 83.5838 63.7697 83.5046 63.8358C84.1161 62.8015 84.5539 61.6748 84.82 60.4555C85.0654 59.3307 84.9937 58.236 84.5049 57.181ZM84.2803 59.9384C84.0708 61.2161 83.6197 62.4146 83.0006 63.547C82.6401 64.2076 82.1551 64.7851 81.6078 65.3249C81.6682 65.1947 81.7304 65.0644 81.789 64.9342C82.2004 64.0283 82.6175 63.1242 83.0195 62.2127C83.3592 61.4388 83.4215 60.6084 83.4838 59.7799C83.4913 59.6798 83.4385 59.576 83.414 59.476C83.3724 59.4741 83.3328 59.4703 83.2913 59.4684C83.2403 59.6307 83.1762 59.7893 83.1403 59.9535C83.0044 60.5876 82.9629 61.2539 82.7345 61.8522C82.174 63.3281 81.587 64.7964 80.7528 66.1365C80.4904 66.3554 80.2281 66.5724 79.9658 66.7895C80.1224 66.5951 80.2734 66.395 80.4168 66.1855C81.1774 65.0663 81.7361 63.8509 82.1494 62.5637C82.5156 61.4237 82.6685 60.2404 82.8742 59.0664C83.0082 58.3002 83.2139 57.5509 83.4819 56.762C83.731 56.9809 83.8594 57.2149 83.9688 57.4603C84.3274 58.253 84.4199 59.0853 84.2803 59.9384Z" fill="black"/>
</svg>
