<svg width="48" height="48" viewBox="0 0 48 48" fill="none" xmlns="http://www.w3.org/2000/svg">
<circle cx="24" cy="24" r="24" fill="white"/>
<path fill-rule="evenodd" clip-rule="evenodd" d="M18.307 17.1794C18.3929 17.2462 18.4972 17.2808 18.6027 17.2808C18.6648 17.2808 18.7274 17.2689 18.7866 17.2443L22.9137 15.536C23.0737 15.4699 23.1858 15.3228 23.2072 15.1511C23.2286 14.9794 23.1562 14.8093 23.0175 14.7058L19.52 12.0956C19.384 11.9941 19.2049 11.9717 19.0481 12.0366C18.8914 12.1016 18.7805 12.2439 18.756 12.4118L18.1265 16.7303C18.1016 16.9016 18.1705 17.0731 18.307 17.1794ZM17.3154 26.767C18.4394 29.4821 21.0643 31.2363 24.0028 31.2363C24.638 31.2363 25.2639 31.1514 25.8738 30.9869C25.898 30.9803 25.9222 30.9735 25.9463 30.9668C26.2234 30.8889 26.4976 30.7962 26.767 30.6847C30.4531 29.1589 32.2105 24.919 30.6847 21.2332C29.5609 18.5181 26.936 16.7637 23.9975 16.7637C23.0477 16.7637 22.1177 16.9494 21.2333 17.3155C19.4476 18.0547 18.0569 19.4447 17.3169 21.23C16.5767 23.0151 16.5763 24.9815 17.3154 26.767ZM18.2059 21.5983C18.8474 20.0506 20.0532 18.8454 21.6011 18.2046C22.3684 17.887 23.1746 17.726 23.9974 17.726C26.5452 17.726 28.8209 19.2471 29.7954 21.6012C31.1151 24.7896 29.6012 28.4555 26.4205 29.7859C26.603 28.5113 26.4407 27.2214 25.9396 26.0106C24.6593 22.9173 21.4335 21.1393 18.1974 21.6208L18.2007 21.6118L18.2007 21.6117C18.2024 21.6072 18.2041 21.6028 18.2059 21.5983ZM32.849 23.2071C32.6772 23.1857 32.5302 23.0736 32.464 22.9136L30.7558 18.7866C30.6895 18.6267 30.7143 18.4436 30.8207 18.3069C30.9271 18.1702 31.0982 18.1012 31.2698 18.1264L35.5882 18.7561C35.7561 18.7805 35.8987 18.8915 35.9634 19.0482C36.0282 19.2049 36.0058 19.3842 35.9045 19.52L33.2944 23.0174C33.2028 23.14 33.0595 23.2108 32.9088 23.2108C32.889 23.2108 32.869 23.2096 32.849 23.2071ZM28.768 36.0001C28.8301 36.0001 28.8927 35.988 28.9519 35.9635C29.1086 35.8986 29.2196 35.7561 29.2441 35.5882L29.8738 31.2698C29.8988 31.0986 29.8298 30.9271 29.6932 30.8207C29.5567 30.7146 29.3734 30.6897 29.2135 30.7558L25.0865 32.4641C24.9264 32.5303 24.8144 32.6774 24.793 32.8491C24.7715 33.0208 24.844 33.1909 24.9827 33.2944L28.4801 35.9045C28.5645 35.9676 28.6658 36.0001 28.768 36.0001ZM16.7303 29.8737L12.4119 29.2442C12.2442 29.2197 12.1013 29.1088 12.0365 28.9521C11.9717 28.7954 11.9942 28.6161 12.0955 28.4803L14.7056 24.9828C14.809 24.844 14.9785 24.7715 15.1509 24.793C15.3226 24.8144 15.4697 24.9265 15.5359 25.0866L17.2254 29.1682C17.2625 29.2363 17.2835 29.3145 17.2835 29.3976C17.2835 29.6634 17.0682 29.8786 16.8026 29.8788H16.7997C16.7766 29.8788 16.7536 29.877 16.7303 29.8737ZM25.0905 15.5366L29.2168 17.2469C29.2761 17.2715 29.3387 17.2836 29.401 17.2836C29.5063 17.2836 29.6105 17.2491 29.6965 17.1823C29.8331 17.076 29.9021 16.9046 29.8772 16.7333L29.2499 12.4146C29.2254 12.2467 29.1146 12.1041 28.9579 12.0393C28.8012 11.9744 28.6218 11.9968 28.486 12.098L24.9873 14.7064C24.8485 14.8098 24.776 14.9798 24.7974 15.1516C24.8187 15.3233 24.9306 15.4704 25.0905 15.5366ZM32.8487 24.7974C33.0204 24.776 33.1903 24.8485 33.2938 24.9873L35.9024 28.486C36.0038 28.622 36.026 28.8011 35.9611 28.9579C35.8961 29.1146 35.7535 29.2254 35.5858 29.2499L31.2671 29.8773C31.2439 29.8806 31.2208 29.8823 31.1978 29.8823C31.0507 29.8823 30.9099 29.8146 30.8181 29.6965C30.7118 29.56 30.6871 29.3768 30.7534 29.2169L32.4636 25.0906C32.5298 24.9308 32.6768 24.8187 32.8487 24.7974ZM23.2027 32.8485C23.1814 32.6767 23.0694 32.5297 22.9095 32.4635L18.7832 30.7532C18.6231 30.6869 18.4399 30.7115 18.3036 30.8179C18.1669 30.9242 18.0979 31.0957 18.1228 31.267L18.7503 35.5858C18.7747 35.7535 18.8855 35.8961 19.0423 35.9612C19.1017 35.9857 19.1642 35.9978 19.2265 35.9978C19.3285 35.9978 19.4298 35.9653 19.5141 35.9024L23.0129 33.2939C23.1516 33.1904 23.224 33.0203 23.2027 32.8485ZM15.092 23.2065C14.9412 23.2065 14.7978 23.1356 14.7063 23.0129L12.0978 19.5141C11.9965 19.3782 11.9742 19.199 12.0391 19.0423C12.1041 18.8855 12.2467 18.7747 12.4145 18.7503L16.7331 18.1228C16.9044 18.0979 17.0759 18.1669 17.1822 18.3036C17.2884 18.4401 17.3132 18.6233 17.2469 18.7832L15.5366 22.9095C15.4704 23.0694 15.3234 23.1814 15.1516 23.2027C15.1316 23.2052 15.1118 23.2065 15.092 23.2065Z" fill="#6C41BF"/>
</svg>
