<svg width="34" height="34" viewBox="0 0 34 34" fill="none" xmlns="http://www.w3.org/2000/svg">
<path d="M19.6668 27.667C26.7033 27.667 32.4075 21.9628 32.4075 14.9263C32.4075 7.88977 26.7033 2.18555 19.6668 2.18555C12.6302 2.18555 6.92603 7.88977 6.92603 14.9263C6.92603 21.9628 12.6302 27.667 19.6668 27.667Z" fill="#F3FBFF"/>
<path d="M28.4057 5.78857C26.8629 4.21143 24.9886 2.95427 22.8971 2.13142C21.08 1.39999 19.0914 1 17 1C13.5943 1 10.4286 2.07428 7.83429 3.89143C3.69714 6.78286 1 11.5714 1 17C1 18.6 1.24 20.1429 1.67429 21.6057C2.84 25.5029 5.45714 28.7714 8.89714 30.7943C11.2743 32.2 14.0514 33 17 33C25.3086 33 32.1543 26.6572 32.9314 18.5429C32.9771 18.04 33 17.5257 33 17C33 15.5029 32.7943 14.0629 32.4057 12.68" stroke="#50B1AF" stroke-width="1.5" stroke-linecap="round" stroke-linejoin="round"/>
<path d="M3.96295 14.0368C4.29162 12.5477 4.90413 11.1517 5.74073 9.88867" stroke="#50B1AF" stroke-width="1.5" stroke-linecap="round" stroke-linejoin="round"/>
<path d="M11.6666 28.8516C7.77318 27.0662 4.8635 23.5766 3.96289 19.3701" stroke="#50B1AF" stroke-width="1.5" stroke-linecap="round" stroke-linejoin="round"/>
<path fill-rule="evenodd" clip-rule="evenodd" d="M21.562 11.3968C22.3385 10.6203 23.5974 10.6203 24.3739 11.3968C25.1503 12.1733 25.1503 13.4322 24.3739 14.2086L16.407 22.1755C15.6305 22.952 14.3716 22.952 13.5951 22.1755L12.1927 20.7731C12.1908 20.7712 12.1908 20.7681 12.1927 20.7661C12.1946 20.7642 12.1946 20.7611 12.1927 20.7592L9.61873 18.1852C8.84226 17.4088 8.84226 16.1498 9.61873 15.3734C10.3952 14.5969 11.6541 14.5969 12.4306 15.3734L13.5938 16.5366C14.3748 17.3176 15.6412 17.3177 16.4222 16.5366L21.562 11.3968Z" fill="white"/>
<path d="M12.1927 20.7592L12.723 20.2288L12.1927 20.7592ZM12.1927 20.7731L11.6624 21.3034L12.1927 20.7731ZM13.5951 22.1755L13.0648 22.7059L13.5951 22.1755ZM21.562 11.3968L21.0317 10.8665L21.562 11.3968ZM24.3739 14.2086L23.8435 13.6783L24.3739 14.2086ZM16.9373 22.7059L24.9042 14.739L23.8435 13.6783L15.8767 21.6452L16.9373 22.7059ZM11.6624 21.3034L13.0648 22.7059L14.1255 21.6452L12.723 20.2428L11.6624 21.3034ZM12.723 20.2288L10.1491 17.6549L9.0884 18.7155L11.6624 21.2895L12.723 20.2288ZM11.9002 15.9037L13.0635 17.0669L14.1241 16.0063L12.9609 14.843L11.9002 15.9037ZM21.0317 10.8665L15.8919 16.0063L16.9526 17.0669L22.0923 11.9271L21.0317 10.8665ZM13.0635 17.0669C14.1374 18.1409 15.8786 18.1409 16.9526 17.0669L15.8919 16.0063C15.4037 16.4944 14.6123 16.4944 14.1241 16.0063L13.0635 17.0669ZM10.1491 15.9037C10.6326 15.4201 11.4167 15.4201 11.9002 15.9037L12.9609 14.843C11.8915 13.7737 10.1578 13.7737 9.0884 14.843L10.1491 15.9037ZM10.1491 17.6549C9.66548 17.1713 9.66548 16.3873 10.1491 15.9037L9.0884 14.843C8.01904 15.9124 8.01904 17.6462 9.0884 18.7155L10.1491 17.6549ZM12.723 21.2965C13.0178 21.0016 13.0178 20.5237 12.723 20.2288L11.6624 21.2895C11.3714 20.9985 11.3714 20.5268 11.6623 20.2358L12.723 21.2965ZM12.723 20.2428C13.014 20.5337 13.014 21.0055 12.723 21.2965L11.6623 20.2358C11.3675 20.5306 11.3675 21.0086 11.6624 21.3034L12.723 20.2428ZM15.8767 21.6452C15.3931 22.1288 14.609 22.1288 14.1255 21.6452L13.0648 22.7059C14.1342 23.7752 15.8679 23.7752 16.9373 22.7059L15.8767 21.6452ZM24.9042 10.8665C23.8348 9.79711 22.1011 9.79711 21.0317 10.8665L22.0923 11.9271C22.5759 11.4436 23.36 11.4436 23.8435 11.9271L24.9042 10.8665ZM23.8435 11.9271C24.3271 12.4107 24.3271 13.1947 23.8435 13.6783L24.9042 14.739C25.9736 13.6696 25.9736 11.9358 24.9042 10.8665L23.8435 11.9271Z" fill="#50B1AF"/>
</svg>
