<svg width="22" height="22" viewBox="0 0 22 22" fill="none" xmlns="http://www.w3.org/2000/svg">
<path d="M21.0832 11.0004L18.8465 8.45211L19.1582 5.07878L15.849 4.32711L14.1165 1.41211L10.9998 2.75044L7.88317 1.41211L6.15067 4.32711L2.8415 5.06961L3.15317 8.44294L0.916504 11.0004L3.15317 13.5488L2.8415 16.9313L6.15067 17.6829L7.88317 20.5979L10.9998 19.2504L14.1165 20.5888L15.849 17.6738L19.1582 16.9221L18.8465 13.5488L21.0832 11.0004ZM9.1665 15.5838L5.49984 11.9171L6.79234 10.6246L9.1665 12.9896L15.2073 6.94877L16.4998 8.25044L9.1665 15.5838Z" fill="url(#paint0_linear_219_3472)"/>
<defs>
<linearGradient id="paint0_linear_219_3472" x1="0.916504" y1="10.1324" x2="21.0832" y2="10.1324" gradientUnits="userSpaceOnUse">
<stop stop-color="#F92984"/>
<stop offset="1" stop-color="#963CFF"/>
</linearGradient>
</defs>
</svg>
