<svg width="20" height="20" viewBox="0 0 20 20" fill="none" xmlns="http://www.w3.org/2000/svg">
<rect width="20" height="20" rx="10" fill="#0D9A88"/>
<path d="M15.3419 6.23151C15.2678 6.15815 15.1797 6.09993 15.0825 6.06019C14.9854 6.02046 14.8813 6 14.7761 6C14.6708 6 14.5667 6.02046 14.4696 6.06019C14.3725 6.09993 14.2843 6.15815 14.2102 6.23151L8.27307 12.0701L5.77867 9.61259C5.70174 9.53961 5.61094 9.48223 5.51144 9.44372C5.41194 9.40521 5.30569 9.38633 5.19875 9.38814C5.09182 9.38996 4.9863 9.41244 4.88821 9.45431C4.79013 9.49618 4.7014 9.55661 4.6271 9.63215C4.55279 9.7077 4.49436 9.79687 4.45515 9.89459C4.41594 9.99231 4.39671 10.0967 4.39856 10.2017C4.40041 10.3067 4.4233 10.4103 4.46593 10.5066C4.50857 10.603 4.5701 10.6901 4.64702 10.7631L7.70725 13.7685C7.78133 13.8418 7.86947 13.9001 7.96659 13.9398C8.0637 13.9795 8.16787 14 8.27307 14C8.37828 14 8.48244 13.9795 8.57955 13.9398C8.67667 13.9001 8.76481 13.8418 8.83889 13.7685L15.3419 7.38201C15.4228 7.30872 15.4873 7.21977 15.5315 7.12077C15.5756 7.02176 15.5984 6.91485 15.5984 6.80676C15.5984 6.69867 15.5756 6.59176 15.5315 6.49275C15.4873 6.39375 15.4228 6.3048 15.3419 6.23151Z" fill="white"/>
</svg>
