<svg width="273" height="200" viewBox="0 0 273 200" fill="none" xmlns="http://www.w3.org/2000/svg">
<path fill-rule="evenodd" clip-rule="evenodd" d="M111.162 3.39819C128.197 3.06955 139.715 19.4219 154.585 27.6518C172.28 37.4455 197.17 38.3177 206.467 56.1453C215.908 74.2499 209.483 97.19 200.374 115.46C192.002 132.251 176.234 144.344 158.829 151.692C143.842 158.02 127.452 152.701 111.162 153.127C94.2384 153.569 76.0377 163.026 61.6291 154.233C47.0933 145.362 44.288 126.017 39.9588 109.671C35.8762 94.2566 32.0776 78.1077 37.4918 63.0999C42.826 48.3142 56.6766 39.252 68.9524 29.3038C82.0824 18.6633 94.1927 3.72555 111.162 3.39819Z" fill="white"/>
<path d="M244.017 166.301C241.817 168.477 239.034 169.682 236.081 170.483C234.974 170.784 233.838 170.745 232.716 170.629C229.282 170.269 225.999 169.283 222.775 168.118C218.069 166.413 213.552 164.286 209.06 162.071C203.713 159.439 198.832 156.103 194 152.665C189.43 149.411 185.196 145.739 181 142.029C175.381 137.066 169.796 132.059 164.405 126.848C158.029 120.68 151.774 114.386 145.514 108.102C139.084 101.643 132.732 95.1061 126.297 88.6471C122.402 84.7328 118.376 80.9496 114.564 76.9431C111.145 73.3493 107.731 69.7556 104.36 66.1181C102.743 64.3746 101.14 62.6166 99.5766 60.8246C95.4632 56.1236 91.345 51.4225 87.2801 46.6827C83.8127 42.6421 80.588 38.4122 77.8781 33.8083C76.1103 30.8021 74.566 27.7183 74.0464 24.212C73.9444 23.5223 73.823 22.8376 73.7016 22.1528C71.9775 22.7356 70.778 24.1343 71.4433 26.917C71.9192 28.8936 72.6137 30.7876 73.653 32.5262C75.6199 35.814 77.5624 39.1212 79.709 42.2876C84.274 49.0138 89.7618 54.9969 95.2398 60.9751C99.4649 65.5839 103.87 70.0324 107.935 74.7771C114.734 82.7174 121.887 90.3129 129.264 97.7092C140.74 109.224 152.172 120.777 163.677 132.253C171.821 140.378 180.349 148.08 189.333 155.272C198.352 162.489 208.06 168.574 218.705 173.139C223.115 175.028 227.665 176.039 232.454 175.995C233.017 175.995 233.585 175.995 234.148 175.995C238.898 175.985 242.735 174.067 245.716 170.405C246.328 169.657 246.945 168.9 247.45 168.084C249.806 164.257 250.602 160.202 249.213 155.812C248.232 152.708 246.79 149.858 245.007 147.191C246.037 149.59 246.843 152.062 247.465 154.607C248.596 159.206 247.295 163.062 244.017 166.301Z" fill="white"/>
<path d="M50.8958 161.95C46.219 156.404 42.5378 150.222 39.5366 143.613C35.8651 135.527 34.0877 127.028 33.7963 118.199C33.6263 113.124 33.6069 108.044 34.2091 102.984C34.5976 99.7396 35.1464 96.5295 35.972 93.3631C37.0744 89.1477 38.4584 85.0197 40.0514 80.9646C41.5568 77.1329 43.2177 73.374 45.4711 69.9065C49.1912 64.1808 53.8679 59.3098 59.006 54.8564C59.4237 54.4922 59.8802 54.1523 60.2978 53.686C58.8992 54.0551 57.5151 54.565 56.1553 55.2158C49.536 58.3871 44.189 63.0638 40.2942 69.3335C38.0942 72.8738 36.2682 76.5938 34.7918 80.4887C30.9747 90.5706 29.3672 101.031 29.4109 111.774C29.4109 112.619 29.3915 113.469 29.4158 114.314C29.7266 125.707 31.7906 136.746 36.2099 147.294C39.1626 154.34 43.0186 160.829 48.2927 166.409C51.7893 170.104 55.7231 173.227 60.3901 175.325C64.0373 176.962 67.6407 177.826 71.2053 177.938C69.1219 177.088 67.0968 176.102 65.1979 174.873C59.7345 171.338 55.0626 166.894 50.8958 161.95Z" fill="white"/>
<path d="M27.7596 131.53C28.2647 134.313 28.93 137.057 29.7799 139.766C30.3093 141.447 30.892 143.108 31.5282 144.739C31.0523 143.443 30.6007 142.132 30.183 140.801C29.2117 137.737 28.4055 134.643 27.7596 131.53Z" fill="white"/>
<path d="M43.0279 165.286C43.1251 165.417 43.2271 165.548 43.3339 165.665C43.2222 165.529 43.1154 165.388 43.0037 165.252C43.0134 165.262 43.0182 165.276 43.0279 165.286Z" fill="white"/>
<path d="M231.031 50.888C231.283 50.9463 231.711 50.6986 231.895 50.4607C232.104 50.1936 232.133 49.7905 232.221 49.436C232.658 47.7314 233.425 46.1967 234.571 44.8466C234.95 44.3998 235.363 44.0502 235.98 44.0113C237.262 43.9336 238.563 43.6665 239.826 43.7928C243.954 44.2056 246.858 46.3667 248.393 50.2664C249.121 52.1167 249.121 54.0447 248.961 55.9922C248.776 58.2018 248.616 60.4115 248.529 61.5236C248.325 67.5068 249.48 70.4692 251.297 75.0197C251.729 76.1026 252.676 76.1366 253.293 75.1508C253.526 74.7768 253.686 74.3592 253.875 73.9561C254.735 72.1349 255.585 70.3089 256.449 68.4878C256.862 67.6136 257.353 66.7734 257.717 65.8799C259.242 62.1064 259.878 58.2115 259.135 54.1613C258.125 48.6347 255.26 44.3319 250.597 41.2043C248.373 39.7134 246.105 38.3342 243.415 37.8777C238.971 37.1249 236.198 37.9894 233.304 42.2436C233.211 42.3747 233.139 42.5204 233.051 42.6564C231.735 44.7786 231.041 47.1292 230.482 49.5331C230.438 49.7274 230.356 49.9702 230.429 50.1256C230.574 50.4218 230.778 50.8298 231.031 50.888ZM240.03 39.2229C242.04 39.0626 243.968 39.4074 245.809 40.2185C248.8 41.5345 251.486 43.3557 253.633 45.8034C257.071 49.7274 258.45 54.3895 257.945 59.5859C257.663 62.4755 256.731 65.1611 255.362 67.7107C254.39 69.5173 253.497 71.3676 252.477 73.3685C252.302 72.9605 252.161 72.6643 252.045 72.3583C250.238 67.6864 250.058 62.8543 250.631 57.9444C250.864 55.9387 250.991 53.9185 250.612 51.9176C249.432 45.6819 244.051 41.8551 237.757 42.7535C237.64 42.7681 237.519 42.7681 237.402 42.7778C238.723 41.8696 240.185 41.588 241.754 41.7142C244.949 41.9668 247.62 43.3654 249.947 45.4828C251.816 47.1826 252.69 49.4214 253.21 51.8302C253.438 52.8937 253.642 53.9622 253.89 55.0209C253.968 55.3463 254.143 55.6473 254.279 55.9824C254.871 55.793 254.876 55.4191 254.852 55.0646C254.672 52.3498 254.269 49.6691 252.958 47.2506C250.928 43.5063 247.664 41.35 243.565 40.4758C241.118 39.9562 239.753 39.8008 236.188 41.4277C237.014 40.131 238.345 39.3589 240.03 39.2229Z" fill="#333333"/>
<path d="M106.74 43.738C111.84 47.6183 116.997 51.4355 122.135 55.2672C124.364 56.9281 126.686 58.4822 128.852 60.2208C138.04 67.5831 147.189 74.9941 156.349 82.4001C160.205 85.5179 164.041 88.6649 167.902 91.7779C168.398 92.1761 168.966 92.5015 169.544 92.7832C169.743 92.8803 170.165 92.8317 170.292 92.6812C170.408 92.5404 170.34 92.147 170.224 91.9333C170.073 91.6613 169.811 91.4428 169.568 91.2291C162.123 84.6098 154.741 77.9225 146.932 71.7208C139.701 65.9757 132.601 60.0654 125.03 54.7621C119.649 50.9887 114.263 47.2201 108.96 43.3398C102.773 38.8136 96.5466 34.3603 90.073 30.2566C89.8496 30.1157 89.6165 29.9846 89.3883 29.8486C89.3251 29.9312 89.262 30.0186 89.1989 30.1012C89.7136 30.5334 90.2138 30.985 90.7481 31.3978C96.0756 35.5112 101.384 39.6586 106.74 43.738Z" fill="#333333"/>
<path d="M270.557 115.027C270.139 115.143 269.746 115.328 269.173 115.546C269.173 114.968 269.207 114.536 269.163 114.114C269.11 113.555 269.066 112.982 268.896 112.458C268.522 111.297 267.697 110.991 266.628 111.569C266.288 111.753 265.963 111.967 265.555 112.215C265.463 111.938 265.404 111.758 265.346 111.579C264.914 110.263 263.904 109.767 262.597 110.224C261.31 110.675 260.276 112.055 260.179 113.419C260.135 114.06 260.072 114.701 259.98 115.338C259.615 117.926 259.436 120.485 261.029 122.734C260.97 122.88 260.951 122.967 260.907 123.03C260.708 123.283 260.504 123.53 260.295 123.778C257.289 127.352 253.559 129.994 249.456 132.146C247.562 133.136 245.668 134.132 244.031 135.526C243.235 136.201 242.453 136.915 241.787 137.711C241.593 137.949 241.428 138.197 241.297 138.449C238.514 135.38 235.532 132.5 232.347 129.834C232.385 129.79 232.424 129.747 232.463 129.703C230.074 126.24 227.684 122.773 225.295 119.31C225.46 119.203 225.518 119.145 225.591 119.121C229.952 117.533 232.905 114.381 235.139 110.462C235.426 109.957 235.591 109.33 235.644 108.747C235.727 107.839 235.489 107.582 234.59 107.485C233.789 107.397 232.978 107.339 232.177 107.383C229.049 107.543 225.266 109.534 224.163 113.516C224.003 114.099 223.877 114.692 223.746 115.279C223.692 115.517 223.658 115.76 223.615 116.003C221.424 111.569 220.322 106.95 220.04 102.016C220.701 102.254 221.177 102.497 221.677 102.599C224.144 103.099 226.655 103.366 229.122 102.793C232.191 102.084 234.945 100.817 236.188 97.5727C236.256 97.393 236.421 97.2473 236.528 97.0774C236.902 96.4849 236.887 96.1352 236.324 95.7418C235.867 95.4213 235.348 95.1688 234.828 94.9648C231.943 93.8284 228.942 93.6778 225.902 94.0227C223.843 94.2558 222.167 95.2222 220.827 96.7908C220.604 97.0531 220.366 97.3056 220.137 97.563C220.259 93.6584 221.191 89.9967 222.532 86.6166C224.251 86.6409 225.824 86.8011 227.369 86.6603C232.181 86.2281 235.741 83.7853 238.135 79.6185C238.451 79.0697 238.708 78.4772 238.631 77.841C237.15 76.928 235.469 76.6755 233.434 77.1174C230.321 77.7925 227.451 79.026 225.062 81.2114C224.994 81.2745 224.877 81.2891 224.669 81.3668C224.975 80.4732 225.271 79.6865 225.509 78.8852C225.771 78.0013 226.155 77.2728 227.126 76.9572C227.529 76.826 227.908 76.5201 228.219 76.2141C231.21 73.2954 232.74 69.7891 232.371 65.564C232.288 64.6267 231.953 63.7622 231.22 63.0969C230.822 62.7375 230.37 62.553 229.894 62.8007C229.224 63.1503 228.515 63.4951 227.976 64.0051C225.028 66.8072 223.896 70.3038 224.227 74.3104C224.324 75.4614 224.761 76.6415 224.576 77.7342C224.387 78.8852 223.639 79.9439 223.148 81.0463C222.731 81.9933 222.333 82.95 221.837 84.1204C221.604 83.5522 221.449 83.1928 221.313 82.8334C220.754 81.3765 219.963 80.0556 218.783 79.0503C217.029 77.5545 215.116 76.2773 212.921 75.4954C211.459 74.9757 210.692 75.4274 210.429 76.928C209.604 81.6776 212.367 86.8303 216.811 88.6952C217.53 88.9962 218.36 89.0399 219.147 89.1759C219.399 89.2196 219.666 89.1808 219.992 89.1808C218.972 92.7988 218.35 96.3877 218.37 100.035C218.219 100.059 218.166 100.088 218.151 100.074C217.981 99.9038 217.802 99.7387 217.651 99.5541C216.641 98.2915 215.354 97.4173 213.848 96.8637C213.018 96.5577 212.192 96.2226 211.338 95.9895C210.133 95.6593 208.914 95.3727 207.69 95.1542C206.69 94.9745 206.535 95.2076 206.768 96.1643C207.011 97.1696 207.467 98.0583 208.157 98.8159C209.026 99.7678 209.89 100.734 210.828 101.613C213.164 103.808 215.66 105.751 218.996 106.139C219.278 107.519 219.55 108.844 219.87 110.399C217.554 109.048 215.281 108.675 212.775 109.379C212.581 110.826 213.237 112.03 214.154 113.045C216.345 115.469 218.826 117.402 222.342 117.188C223.207 118.523 223.979 119.898 224.926 121.146C226.786 123.603 228.729 126.002 230.652 128.416C221.993 121.228 213.256 114.128 204.597 106.941C197.021 100.652 189.081 94.8337 181.213 88.9234C176.114 85.0917 170.986 81.2988 165.857 77.5108C166.406 76.3452 167.023 75.8159 168.737 74.5144C171.884 72.1202 175.39 70.4447 179.144 69.2403C185.025 67.3511 190.727 65.0201 196.132 62.0139C202.883 58.255 208.38 53.1364 212.6 46.6627C214.519 43.7197 215.781 40.5145 216.155 36.9887C216.18 36.7459 216.247 36.5079 216.335 36.0757C216.602 36.5662 216.728 36.8625 216.908 37.1199C217.593 38.1106 218.205 39.1693 219.011 40.0483C219.895 41.0147 221.114 41.0633 222.09 40.3979C222.993 39.7812 223.318 38.8196 222.813 37.6104C222.43 36.6973 221.823 35.8766 221.284 35.0316C221.055 34.6771 220.749 34.3808 220.298 33.8418C220.783 33.9389 220.973 33.9729 221.162 34.0117C222.192 34.2011 223.212 34.4634 224.251 34.5605C225.572 34.6819 226.825 34.3517 227.869 33.4872C228.996 32.5548 229.078 31.2533 228.053 30.2189C227.665 29.8303 227.179 29.4855 226.669 29.2719C224.44 28.3297 222.119 27.8781 219.705 28.2472C219.006 28.354 218.535 28.2374 217.981 27.7712C216.077 26.1735 213.382 26.8485 212.532 28.5822C212.464 28.7231 212.343 28.8445 212.333 28.8591C211.556 28.9999 210.852 29.0242 210.235 29.2621C208.399 29.9712 207.001 31.2436 206.107 32.987C205.787 33.6087 205.612 34.3711 205.612 35.0704C205.612 36.7071 206.913 37.6298 208.497 37.2121C208.866 37.115 209.22 36.9644 209.74 36.7848C209.618 37.1781 209.536 37.3918 209.492 37.6152C209.361 38.2417 209.147 38.8682 209.138 39.4995C209.118 40.8253 210.085 41.3789 211.265 40.7622C211.614 40.5776 211.974 40.3397 212.226 40.0434C212.906 39.2518 213.533 38.4117 214.179 37.5909C214.334 37.3967 214.48 37.1976 214.635 37.0033C214.737 37.4695 214.708 37.8677 214.64 38.2563C213.965 42.0443 212.173 45.3224 209.847 48.3091C205.991 53.2626 201.387 57.3857 195.909 60.489C191.018 63.2572 185.875 65.462 180.572 67.288C177.527 68.337 174.463 69.3277 171.636 70.9255C169.767 71.9842 167.805 72.8923 166.076 74.6115C166.183 74.2084 166.202 74.053 166.265 73.9122C168.013 69.8862 169.64 65.7971 171.544 61.8439C174.205 56.3173 177.236 50.9801 181.179 46.2354C183.986 42.8553 186.915 39.5772 189.804 36.2651C190.334 35.6581 190.97 35.1384 191.465 34.5119C191.679 34.2448 191.8 33.7592 191.718 33.4338C191.601 32.9919 191.125 32.9482 190.703 33.0502C188.274 33.6232 185.778 34.0069 183.428 34.8228C176.196 37.3335 170.272 41.6315 166.27 48.2702C162.001 55.3509 160.481 63.0678 161.394 71.2606C161.52 72.3824 161.724 73.4945 161.943 74.6066C158.14 71.7996 154.343 68.9829 150.555 66.1564C150.511 66.0545 150.472 65.9476 150.419 65.8554C149.141 63.3883 147.869 60.9164 146.587 58.4542C145.975 57.274 145.334 56.1085 144.722 54.9284C143.323 52.2234 143.085 49.2998 143.221 46.3374C143.362 43.239 143.673 40.1454 143.867 37.0519C144.178 32.1712 144.173 27.3001 143.362 22.4583C142.935 19.9038 142.342 17.393 141.186 15.0619C140.672 14.0227 140.026 13.0368 139.331 12.1092C138.875 11.5022 138.205 10.9874 137.34 11.3176C136.553 11.6187 136.379 12.3618 136.33 13.1048C136.286 13.8673 136.247 14.6443 136.32 15.4019C136.753 19.8941 137.083 24.4057 137.7 28.8736C138.569 35.1384 139.662 41.3741 140.657 47.6243C140.677 47.7409 140.643 47.8671 140.609 48.2411C140.239 47.634 140.002 47.2698 139.783 46.891C137.374 42.7727 134.747 38.7759 131.362 35.4055C128.992 33.0453 127.263 30.3694 125.908 27.3827C125.743 27.0136 125.544 26.664 125.369 26.2997C121.358 18.1312 115.54 11.3856 108.823 5.35879C106.808 3.5522 104.603 1.96415 102.102 0.890876C101.082 0.453797 99.9651 0.104135 98.8675 0.0118629C96.9152 -0.148399 95.9488 1.33767 96.8181 3.10541C97.2358 3.95528 97.8428 4.76631 98.5324 5.41707C100.344 7.13625 102.17 8.86028 104.122 10.4095C110.368 15.363 115.918 21.0402 121.401 26.7902C121.455 26.8485 121.479 26.9311 121.63 27.203C121.256 27.0379 121.115 26.9796 120.974 26.9165C118.148 25.6441 115.37 24.2455 112.485 23.1236C106.308 20.7245 100.31 17.9952 94.6619 14.5035C93.0204 13.4885 91.2915 12.5997 89.548 11.7741C88.6156 11.3371 87.5763 11.0214 86.5565 10.8951C84.4099 10.6377 83.3949 12.0655 84.2205 14.0858C84.4633 14.6734 84.7936 15.2513 85.1918 15.7467C85.7163 16.4023 86.3088 17.0239 86.9401 17.5776C88.7467 19.1656 90.8253 20.3263 93.0204 21.2587C98.411 23.5461 103.972 25.3187 109.678 26.6202C112.271 27.2127 114.899 27.6498 117.463 28.3491C122.271 29.6555 126.413 32.0595 129.754 35.8669C133.338 39.9512 136.403 44.3656 139.035 49.1104C141.575 53.6948 144.163 58.2502 146.786 62.7861C146.985 63.1309 147.199 63.4708 147.417 63.8108C147.383 63.7865 147.349 63.7622 147.315 63.7331C133.246 53.1801 119.104 42.729 104.569 32.8219C98.4596 28.6599 92.1608 24.8282 85.4152 21.7687C82.8316 20.5983 80.1703 19.6658 77.3681 19.2142C76.426 19.0636 75.4255 19.0296 74.4882 19.1656C71.6861 19.5736 69.0296 22.3223 68.8839 24.9059C68.7139 27.9072 69.2336 30.7919 70.7051 33.429C71.8463 35.4687 73.0507 37.4792 74.3474 39.4218C77.9897 44.8999 81.9332 50.1497 86.0466 55.2586C79.6798 51.0092 72.6719 48.9695 64.8677 49.5669C59.2779 49.9942 54.2952 51.8154 49.8321 55.2295C42.1201 61.1252 36.477 68.5895 32.6161 77.4525C32.553 77.5982 32.4947 77.7439 32.4364 77.8847C32.7084 76.5006 33.0483 75.1311 33.4708 73.7665C34.7432 69.6482 35.9573 65.5106 37.118 61.3632C38.371 56.871 38.5215 52.3011 37.8368 47.6972C36.9723 41.8743 34.6461 36.6536 31.2806 31.87C31.0572 31.5495 30.7512 31.2484 30.421 31.0445C30.0033 30.7919 29.5857 31.0542 29.5857 31.5447C29.5857 31.8555 29.6731 32.1809 29.7848 32.4771C30.0713 33.2298 30.3773 33.9777 30.7075 34.7111C34.175 42.4376 35.0589 50.4799 33.8545 58.833C33.126 63.8739 32.0527 68.8226 30.7075 73.7228C29.8188 76.9523 29.032 80.2061 29.168 83.6008C29.1729 83.6736 29.0563 83.7562 28.8475 84.033C28.255 82.2167 27.6431 80.6043 27.2109 78.9386C26.6427 76.758 26.2639 74.5241 25.72 72.3338C24.8361 68.7644 23.6754 65.2823 21.8979 62.0479C20.1448 58.867 17.6389 56.5067 14.1665 55.2635C13.8751 55.1615 13.5983 55.0109 13.2826 54.8652C14.2054 53.1169 13.914 51.49 12.9961 49.9603C11.5586 47.5563 9.2858 46.3471 6.63419 45.7449C6.43993 45.7012 6.2311 45.7109 6.03199 45.7254C5.19183 45.7934 4.72561 46.2791 4.6819 47.129C4.66733 47.4786 4.67704 47.8234 4.67704 48.1731C2.15656 48.1002 1.85546 48.3334 1.73405 50.3925C0.359677 51.3783 0.175133 52.8984 1.41838 54.0542C2.02058 54.6127 2.80732 55.0304 3.58435 55.3169C4.59934 55.6908 5.67747 55.8948 6.74103 56.1328C8.41164 56.5116 10.0774 56.7204 11.7334 56.0114C11.9326 55.924 12.2239 55.9094 12.4231 55.9871C14.6716 56.8175 16.7987 57.8277 18.4207 59.6974C19.8145 61.3049 20.815 63.126 21.626 65.0735C23.18 68.8129 24.2193 72.6932 25.0401 76.6512C25.8365 80.4732 26.8127 84.2272 29.0369 87.5442C26.8369 95.4019 25.8511 103.507 25.788 111.836C23.4909 106.79 20.7227 101.987 17.7991 97.2667C16.1382 94.586 14.1665 92.1335 11.9083 89.9287C11.2235 89.2585 10.4465 88.666 9.65489 88.1172C8.907 87.6024 8.01827 87.2285 7.16839 87.7676C6.25053 88.3503 6.27967 89.3702 6.49821 90.2832C6.8333 91.6867 7.18296 93.1096 7.72688 94.4452C9.87828 99.7484 12.8067 104.6 16.5025 108.976C17.7748 110.486 19.1055 111.948 20.4022 113.439C20.5916 113.657 20.747 113.905 20.9218 114.143C20.4507 114.099 20.1011 113.929 19.7708 113.735C17.8283 112.584 15.9245 111.37 13.948 110.287C10.7719 108.543 7.56662 106.848 4.34195 105.197C3.45808 104.746 2.46251 104.498 1.50094 104.216C1.02501 104.075 0.495657 104.124 0.184845 104.576C-0.150249 105.071 0.0148702 105.586 0.325682 106.042C0.529652 106.339 0.757904 106.625 1.0153 106.878C1.53008 107.388 2.04971 107.897 2.60335 108.364C8.42621 113.312 15.065 116.78 22.3156 119.111C23.5588 119.509 24.8118 119.791 26.1085 119.757C26.4241 123.705 26.9875 127.629 27.7985 131.519C28.4493 134.632 29.2506 137.726 30.2219 140.79C30.6395 142.116 31.0912 143.427 31.5671 144.729C33.296 149.435 35.4183 153.936 38.031 158.191C37.9096 158.152 37.793 158.108 37.6716 158.074C36.0544 157.603 34.4178 157.015 32.7569 156.884C26.3367 156.37 20.6838 158.37 15.7837 162.513C13.7829 164.208 12.3405 166.233 12.088 168.943C12.0297 169.569 11.6654 170.264 12.3356 170.72C12.9718 171.152 13.5109 170.643 13.9577 170.283C15.7351 168.87 17.7506 168.389 19.9699 168.637C20.2516 168.666 20.5333 168.661 20.815 168.661C23.4229 168.666 25.8219 168.059 27.9442 166.442C30.081 164.815 32.5335 163.766 35.0832 162.974C36.1467 162.644 37.2491 162.45 38.337 162.197C38.3661 162.27 38.3904 162.348 38.4195 162.421C38.0262 162.688 37.6279 162.955 37.2346 163.227C35.6805 164.305 34.0876 165.339 32.5772 166.481C29.8528 168.545 27.5508 171.026 25.8657 174.018C24.3407 176.728 23.5831 179.617 24.3019 182.735C24.5059 183.619 24.8992 184.459 25.2343 185.411C24.8312 185.411 24.4573 185.343 24.1173 185.426C23.2626 185.625 22.369 185.78 21.5871 186.154C20.4459 186.703 20.0525 187.82 20.4362 189.029C20.849 190.321 21.9174 190.758 23.1266 190.947C23.5831 191.02 24.0493 191.01 24.7001 191.049C24.1028 191.617 23.6366 192.04 23.1898 192.487C22.5779 193.099 22.1213 193.798 21.9805 194.672C21.7523 196.081 22.573 197.057 23.9862 197.032C25.3994 197.008 26.5164 196.319 27.5605 195.459C27.8811 195.197 28.1919 194.925 28.6678 194.517C28.629 195.313 28.5853 195.833 28.5755 196.353C28.5658 196.877 28.5513 197.402 28.595 197.921C28.7455 199.577 29.9111 200.369 31.4748 199.835C31.9896 199.66 32.4995 199.334 32.8978 198.96C33.9953 197.926 34.5927 196.624 34.6752 195.104C34.6946 194.711 34.6801 194.318 34.6801 193.788C35.3697 194.055 35.9185 194.279 36.4721 194.488C38.1379 195.114 39.8425 195.294 41.5714 194.813C43.174 194.371 43.5771 193.274 42.6641 191.875C42.0084 190.87 41.1003 190.156 39.9979 189.675C39.7016 189.544 39.4151 189.384 39.1626 189.257C39.9833 188.728 40.7603 188.296 41.4499 187.757C42.1638 187.198 42.6058 186.426 42.7418 185.503C42.9263 184.25 42.3872 183.264 41.2217 182.793C40.3767 182.453 39.4685 182.342 38.6089 182.609C37.5405 182.934 36.511 183.405 35.4814 183.842C35.1609 183.978 34.8792 184.211 34.3887 184.527C34.4664 183.905 34.5295 183.483 34.5732 183.065C34.6752 181.987 34.4713 180.972 33.8108 180.093C33.1115 179.17 32.0042 178.865 31.0135 179.282C30.3481 179.564 29.8722 180.054 29.6051 180.71C28.9932 182.23 28.6532 183.789 29.1 185.426C29.1583 185.634 29.1535 185.863 29.1923 186.164C28.8524 186.11 28.6047 186.115 28.3959 186.028C26.8029 185.338 26.0356 184.037 25.7297 182.395C25.2295 179.671 25.9676 177.194 27.2983 174.868C28.9398 171.998 31.1155 169.579 33.6991 167.525C34.9618 166.524 36.2973 165.611 37.5648 164.616C38.4487 163.921 39.2937 163.169 40.1144 162.396C40.2553 162.26 40.3912 162.129 40.5321 162.003C41.0274 162.697 41.5325 163.382 42.0619 164.062C42.3775 164.465 42.7029 164.859 43.0234 165.252C43.1351 165.388 43.242 165.529 43.3537 165.665C46.6997 169.676 50.5412 173.148 55.0917 175.829C60.0112 178.724 65.2902 180.443 71.0305 180.54C77.5672 180.652 83.5018 178.709 88.9313 175.14C89.5675 174.722 90.1842 174.285 90.7864 173.838C90.869 173.901 90.9515 173.95 91.0341 173.984C91.51 174.173 92.0491 174.222 92.5639 174.285C95.434 174.639 98.2799 174.275 101.126 173.945C107.59 173.187 113.884 171.648 120.085 169.686C126.399 167.685 132.557 165.31 138.404 162.192C139.428 161.644 140.4 160.978 141.332 160.284C141.769 159.958 142.133 159.482 142.396 158.997C142.828 158.205 142.541 157.443 141.706 157.127C141.23 156.947 140.691 156.879 140.171 156.86C137.389 156.748 134.732 157.414 132.1 158.215C124.577 160.502 117.171 163.11 109.901 166.107C109.532 166.257 109.153 166.393 108.78 166.534C109.066 166.165 109.421 165.98 109.77 165.786C113.155 163.912 116.569 162.09 119.915 160.148C128.196 155.33 135.64 149.454 142.177 142.441C142.643 141.941 143.119 141.431 143.464 140.848C143.843 140.198 143.45 139.581 142.702 139.644C142.114 139.693 141.502 139.863 140.978 140.13C138.996 141.12 137.015 142.116 135.092 143.213C129.225 146.564 123.825 150.571 118.725 154.995C117.298 156.234 115.787 157.38 114.316 158.565C114.243 158.497 114.17 158.424 114.097 158.356C114.442 158.035 114.777 157.715 115.127 157.399C119.323 153.621 123.441 149.76 127.283 145.617C130.852 141.766 134.247 137.779 136.918 133.229C138.535 130.475 139.943 127.624 140.929 124.584C141.114 124.021 141.216 123.404 141.216 122.812C141.216 122.166 140.788 121.855 140.162 121.986C139.817 122.054 139.453 122.209 139.19 122.433C138.515 123.006 137.811 123.569 137.267 124.254C135.14 126.94 132.955 129.586 131.012 132.403C128.361 136.254 125.913 140.241 123.373 144.17C123.164 144.491 122.921 144.792 122.693 145.103C122.703 144.632 122.878 144.272 123.038 143.913C124.126 141.441 125.277 138.998 126.282 136.492C128.375 131.281 129.716 125.915 129.269 120.228C129.201 119.383 129.167 118.533 129.021 117.703C128.919 117.115 128.72 116.522 128.443 115.998C127.836 114.852 126.724 114.546 125.709 115.328C125.058 115.828 124.49 116.513 124.082 117.227C123.626 118.018 123.32 118.917 123.067 119.805C121.625 124.851 120.61 129.98 120.085 135.215C119.648 139.586 119.056 143.942 118.483 148.298C118.4 148.91 118.148 149.546 117.817 150.071C116.137 152.737 114.19 155.209 111.99 157.472C111.752 157.72 111.485 157.938 111.213 158.191C111.164 158.074 111.13 158.03 111.14 158.006C111.266 157.71 111.402 157.423 111.528 157.127C113.301 152.936 115.19 148.784 116.132 144.292C116.744 141.363 117.249 138.425 116.933 135.414C116.861 134.7 116.72 133.967 116.438 133.311C116.054 132.418 115.224 132.359 114.627 133.112C114.403 133.394 114.219 133.719 114.083 134.049C113.723 134.948 113.325 135.837 113.077 136.769C111.684 141.985 110.329 147.21 108.959 152.431C108.308 154.922 107.871 157.496 106.958 159.89C105.307 164.218 105.856 163.251 102.379 165.835C100.043 167.573 97.5029 168.957 94.9241 170.273C97.6729 167.578 100.043 164.523 102.126 161.202C106.24 154.645 109.003 147.531 110.8 140.032C114.428 124.924 114.219 109.821 110.591 94.7463C108.94 87.889 106.55 81.3377 103.238 75.1846C107.429 79.7496 111.703 84.2369 116.045 88.6563C124.951 97.7184 133.814 106.824 142.867 115.736C148.272 121.054 153.687 126.357 158.951 131.82C163.73 136.779 168.65 141.582 173.715 146.224C172.632 146.098 171.525 145.977 170.476 146.137C165.653 146.875 162.181 149.507 160.248 154.014C159.714 155.262 159.335 156.603 159.053 157.933C158.563 160.23 157.635 162.29 156.139 164.096C155.702 164.625 155.294 165.174 154.896 165.733C153.459 167.753 152.39 169.958 151.72 172.347C151.526 173.032 151.196 173.853 151.895 174.367C152.614 174.902 153.4 174.465 154.007 174.003C155.285 173.027 156.591 172.061 157.723 170.924C159.204 169.443 160.525 167.811 161.914 166.238C163.342 164.625 164.449 162.809 165.338 160.847C166.056 159.269 166.726 157.661 167.571 156.156C168.237 154.971 169.058 153.854 169.951 152.834C170.956 151.683 172.307 150.959 173.846 150.231C172.166 156.122 173.555 161.187 177.124 165.752C177.056 165.81 177.027 165.849 176.993 165.859C176.799 165.903 176.6 165.942 176.4 165.971C173.637 166.379 171.695 167.947 170.374 170.332C170.107 170.813 169.922 171.381 169.854 171.925C169.626 173.722 171.374 174.916 172.685 174.348C173.239 174.11 173.856 173.955 174.327 173.605C175.424 172.799 176.454 171.896 177.513 171.031C177.707 170.871 177.891 170.706 177.998 170.613C178.387 171.968 178.668 173.314 179.169 174.571C179.455 175.285 179.999 175.97 180.592 176.475C181.825 177.529 183.884 177.446 185.074 176.436C186.157 175.518 186.376 174.003 185.516 172.464C185.05 171.628 184.399 170.895 183.831 170.118C183.632 169.846 183.418 169.584 183.151 169.249C183.933 169.132 184.584 169.093 185.2 168.928C185.856 168.753 186.521 168.53 187.114 168.21C188.459 167.476 189.051 166.247 188.755 165.019C188.401 163.542 187.148 162.489 185.652 162.406C184.346 162.333 183.165 162.746 182.131 163.479C181.184 164.15 180.344 164.965 179.353 165.801C177.959 164.611 176.808 163.212 176.163 161.488C175.628 160.06 175.186 158.584 174.842 157.098C174.458 155.432 174.472 153.732 174.958 152.072C175.313 150.857 175.764 149.736 176.847 149.036C181.174 152.892 185.603 156.632 190.154 160.235C198.055 166.49 206.476 171.91 215.694 176.072C220.769 178.364 225.985 179.826 231.579 179.802C232.507 179.802 233.434 179.826 234.362 179.797C238.48 179.656 242.22 178.51 245.352 175.708C247.601 173.692 249.47 171.371 250.84 168.695C253.132 164.213 253.603 159.57 251.899 154.757C250.5 150.799 248.446 147.21 245.877 143.908C245.721 143.704 245.556 143.51 245.396 143.306C248.504 144.462 251.67 145.409 254.919 146.098C258.183 146.788 261.344 146.506 264.321 144.962C265.089 144.564 265.846 144 266.376 143.335C267.604 141.786 267.051 140.275 265.147 139.736C264.18 139.464 263.195 139.241 262.204 139.056C259.11 138.478 256.002 137.968 252.841 138.469C250.16 138.891 247.61 139.761 245.09 140.737C244.638 140.911 244.187 141.106 243.725 141.251C243.312 140.756 242.895 140.266 242.472 139.78C242.531 139.513 242.623 139.251 242.749 139.022C243.036 138.508 243.473 138.056 243.905 137.643C245.522 136.108 247.343 134.856 249.339 133.855C250.563 133.243 251.787 132.622 252.962 131.922C256.473 129.834 259.538 127.265 261.539 123.613C261.568 123.555 261.67 123.54 261.743 123.501C263.335 124.191 264.04 124.317 265.477 124.016C268.799 123.326 270.902 121.185 272.223 118.188C272.441 117.688 272.524 117.096 272.538 116.542C272.558 115.25 271.776 114.677 270.557 115.027ZM225.596 117.727C227.276 113.973 230.428 111.807 233.935 110.029C232.045 113.546 229.418 116.265 225.596 117.727ZM233.158 108.767C231.618 109.806 230.151 110.656 228.85 111.71C227.582 112.734 226.49 113.968 225.392 115.036C225.45 111.04 229.884 108.485 233.158 108.767ZM226.694 95.3485C229.088 95.2222 231.443 95.3145 233.731 96.0866C233.954 96.1595 234.163 96.2663 234.556 96.4266C232.983 97.0142 231.521 97.3153 230.04 97.5436C227.893 97.8787 225.737 98.1701 223.595 98.5343C222.697 98.6897 221.818 98.9811 220.72 99.2627C222.197 96.854 224.027 95.4893 226.694 95.3485ZM220.769 100.239C225.246 99.0393 229.981 99.457 234.411 97.9709C234.459 98.0486 234.513 98.1215 234.561 98.1992C234.236 98.5586 233.949 98.9665 233.575 99.2676C232.167 100.385 230.608 101.176 228.811 101.477C226.587 101.851 224.397 101.642 222.221 101.171C221.696 101.06 221.216 100.749 220.715 100.525C220.735 100.428 220.754 100.336 220.769 100.239ZM230.885 64.6121C232.118 67.6571 230.122 73.3051 227.053 75.4711C228.34 71.8288 229.598 68.2641 230.885 64.6121ZM229.884 63.9759C228.767 67.8562 227.242 71.4354 225.742 75.3205C224.722 71.1343 226.665 65.8991 229.884 63.9759ZM237.12 78.5404C232.895 80.3324 228.835 82.0564 224.664 83.829C226.397 80.4198 233.818 77.2194 237.12 78.5404ZM236.125 80.1818C235.11 83.3676 228.821 86.0047 224.275 85.1402C228.272 83.4696 232.196 81.8282 236.125 80.1818ZM210.017 96.8588C210.26 96.8928 210.522 96.888 210.745 96.9705C211.916 97.4027 213.11 97.7912 214.237 98.3157C215.99 99.1316 217.18 100.53 217.947 102.293C218.049 102.531 218.064 102.808 218.117 103.065C218.054 103.114 217.996 103.162 217.933 103.206C215.266 101.147 212.605 99.0879 209.939 97.0336C209.968 96.9754 209.992 96.9171 210.017 96.8588ZM209.589 98.2623C212.489 100.385 215.383 102.507 218.282 104.629C214.412 103.852 211.993 101.064 209.589 98.2623ZM219.05 87.8987C216.966 87.7481 215.446 86.5437 214.086 85.0868C212.047 82.9014 211.173 80.3275 211.658 77.1903C211.886 77.4331 212.086 77.5836 212.212 77.7827C213.076 79.1863 213.844 80.6529 214.791 81.9933C216.063 83.795 217.471 85.4948 218.826 87.2382C218.943 87.3888 219.074 87.5296 219.2 87.6753C219.147 87.753 219.098 87.8258 219.05 87.8987ZM213.538 77.302C216.529 78.7249 219.288 80.3809 220.385 83.795C220.803 85.0868 220.842 86.2621 220.39 87.3936C217.641 84.3049 215.456 80.9054 213.538 77.302ZM215.208 110.214C216.961 110.297 218.535 110.889 219.948 111.948C220.57 112.414 220.779 113.06 220.915 113.939C218.889 112.739 216.986 111.613 215.087 110.491C215.126 110.399 215.165 110.306 215.208 110.214ZM215.135 111.749C217.316 113.079 219.496 114.415 221.76 115.794C220.021 116.406 216.044 114.041 215.135 111.749ZM219.336 29.5681C221.692 29.1699 223.926 29.5632 226.101 30.3597C226.771 30.6074 227.568 30.9619 227.519 31.8069C227.466 32.7054 226.616 32.987 225.873 33.157C225.3 33.2881 224.673 33.327 224.091 33.2541C222.328 33.0307 220.647 32.4965 218.991 31.7729C219.103 31.0639 219.21 30.3694 219.336 29.5681ZM221.235 36.979C221.526 37.3432 221.653 37.8386 221.832 38.2854C222.017 38.7468 221.915 39.1596 221.512 39.4655C221.08 39.7909 220.584 39.8443 220.176 39.4995C219.754 39.145 219.322 38.7322 219.059 38.2563C218.195 36.6779 217.403 35.0607 216.519 33.3367C217.044 33.1376 217.34 33.0259 217.782 32.8559C218.928 34.2206 220.108 35.5755 221.235 36.979ZM215.32 28.2374C216.262 28.2569 217.044 28.6017 217.544 29.4273C218.049 30.2674 217.729 31.2241 216.84 31.6369C215.772 32.1323 214.15 31.5835 213.596 30.5345C212.945 29.301 213.751 28.2277 215.32 28.2374ZM209.172 35.6678C208.55 36.032 207.87 36.406 207.166 35.8766C206.666 35.5027 206.598 34.6479 207.054 33.7495C208.084 31.7244 209.711 30.3985 211.882 29.7235C212.207 30.6268 212.479 31.365 212.809 32.2828C211.755 33.4387 210.682 34.7791 209.172 35.6678ZM210.561 39.7326C210.269 38.1446 211.731 35.323 213.965 33.0016C214.067 33.0162 214.188 33.0113 214.295 33.0453C214.514 33.123 214.727 33.2201 215.048 33.3561C213.722 35.6386 212.979 38.2223 210.561 39.7326ZM166.581 49.8486C171.097 41.8063 178.1 37.1101 187.012 35.1239C187.58 34.9976 188.163 34.9345 188.794 34.9442C183.481 40.9904 178.066 46.8959 174.001 53.8745C169.975 60.7852 166.649 68.0068 164.002 75.5585C163.861 75.5294 163.72 75.4954 163.575 75.4662C163.803 73.5528 164.007 71.6394 164.264 69.7308C164.959 64.583 167.222 60.0519 169.849 55.6763C170.616 54.399 171.476 53.1752 172.272 51.9125C172.491 51.5629 172.875 51.2035 172.462 50.7373C171.607 51.1646 169.422 53.7337 167.771 56.5893C166.484 58.8184 165.342 61.1398 164.269 63.4806C163.21 65.7874 162.88 68.3079 162.317 70.7943C162.297 70.6632 162.263 70.5272 162.254 70.3961C161.821 63.1455 163.006 56.2202 166.581 49.8486ZM116.37 26.6688C114.33 26.2269 112.291 25.8092 110.261 25.343C104.831 24.09 99.5426 22.3757 94.385 20.2972C92.457 19.5201 90.631 18.442 88.8341 17.3785C87.5812 16.6354 86.5225 15.6156 85.7989 14.3141C85.5172 13.8041 85.051 13.2214 85.4832 12.6434C85.896 12.0947 86.5516 12.4006 87.0567 12.5852C88.1882 12.998 89.3246 13.4253 90.3979 13.9644C91.7286 14.6297 93.0301 15.3728 94.2976 16.1546C99.7271 19.5299 105.492 22.2058 111.475 24.4349C112.796 24.9254 114.102 25.4644 115.409 25.9938C115.758 26.1346 116.093 26.324 116.433 26.494C116.409 26.5523 116.39 26.6105 116.37 26.6688ZM124.053 27.1787C123.742 26.8874 123.456 26.6397 123.193 26.3677C120.959 24.0415 118.725 21.7104 116.492 19.3842C112.849 15.5913 108.712 12.3666 104.681 9.01569C102.884 7.52476 101.126 5.97556 99.4163 4.38265C98.8432 3.84844 98.411 3.12484 98.0468 2.42551C97.7505 1.85245 98.0565 1.45422 98.7024 1.53678C99.3337 1.61448 99.9991 1.74075 100.562 2.02243C102.034 2.76546 103.476 3.57163 104.89 4.4215C105.681 4.89743 106.419 5.47535 107.119 6.07754C113.898 11.9198 119.663 18.6023 123.912 26.528C123.99 26.6688 124.048 26.8194 124.111 26.9651C124.121 26.9942 124.092 27.033 124.053 27.1787ZM142.464 38.0232C142.352 40.3154 142.26 42.6076 142.153 44.8999C142.138 45.2107 142.104 45.5215 142.08 45.8274C142.022 45.8323 141.968 45.8371 141.91 45.842C141.687 44.2637 141.483 42.6756 141.235 41.1021C140.609 37.1247 139.89 33.1619 139.341 29.1747C138.676 24.3474 138.141 19.5056 137.564 14.6686C137.476 13.9255 137.418 13.1631 137.67 12.4006C138.321 12.3958 138.622 12.8134 138.851 13.2019C139.419 14.1684 139.997 15.1494 140.429 16.1789C141.556 18.8354 142.032 21.657 142.352 24.5077C142.862 29.0048 142.677 33.5164 142.464 38.0232ZM33.602 68.0068C34.7044 63.0823 35.4668 58.1093 35.6319 53.0538C35.8068 47.7894 34.9229 42.6999 33.0872 37.7706C32.9026 37.2801 32.7326 36.7896 32.5578 36.2943C32.5481 36.2651 32.5724 36.2214 32.6355 35.9932C34.5198 39.4509 35.9185 42.9039 36.5935 46.6287C37.4822 51.5435 37.3851 56.4145 35.9476 61.2272C35.2774 63.466 34.6315 65.7097 33.9613 67.9485C33.8836 68.2156 33.7525 68.4633 33.5145 68.6964C33.5437 68.4633 33.5534 68.2301 33.602 68.0068ZM9.58204 54.9235C8.7953 54.9818 7.9697 54.8701 7.19268 54.705C5.97857 54.4427 4.76932 54.1125 3.58435 53.7288C2.81703 53.4812 2.13227 53.0635 2.00601 52.034C4.28367 51.6503 4.17198 51.3589 3.38523 49.7029C4.17198 49.5863 4.98786 50.1399 5.72603 49.562C6.5322 48.9355 6.17768 48.11 6.10484 47.3184C6.2311 47.2698 6.34766 47.1727 6.43993 47.1921C8.53305 47.6195 10.2474 48.6587 11.5052 50.4022C11.6217 50.5625 11.714 50.747 11.8063 50.9267C12.9427 53.1655 12.0928 54.739 9.58204 54.9235ZM26.0308 195.158C25.6228 195.459 25.1081 195.653 24.6176 195.809C24.1319 195.959 23.5588 196.192 23.1655 195.658C22.7575 195.1 22.8692 194.458 23.2529 193.968C23.7143 193.371 24.263 192.822 24.8458 192.341C25.4286 191.855 26.0988 191.472 26.7932 191.006C27.3129 191.71 27.7985 192.375 28.391 193.186C27.5703 193.881 26.8321 194.565 26.0308 195.158ZM32.4801 197.649C32.0867 198.13 31.5622 198.557 31.0086 198.829C30.3044 199.174 29.6634 198.849 29.5905 198.062C29.4934 196.998 29.5857 195.911 29.6342 194.837C29.6488 194.483 29.7848 194.133 29.8479 193.851C31.1203 193.526 32.2276 193.24 33.3786 192.943C33.6068 194.575 33.6359 196.236 32.4801 197.649ZM39.9153 190.899C40.5515 191.282 41.1391 191.812 41.6151 192.39C42.329 193.259 42.1687 193.764 41.0323 193.939C39.9882 194.099 38.8469 194.157 37.8368 193.915C36.5352 193.599 35.3211 192.934 34.0536 192.414C34.5878 191.418 34.9957 190.651 35.462 189.772C36.914 189.937 38.5167 190.049 39.9153 190.899ZM39.1577 183.862C39.959 183.803 40.8672 183.76 41.2654 184.644C41.6685 185.532 41.1343 186.275 40.5418 186.902C39.4879 188.019 38.0844 188.354 36.6324 188.524C36.2001 188.573 35.7582 188.534 35.2968 188.534C34.9132 187.946 34.5052 187.32 34.0633 186.64C35.4134 185.11 37.0306 184.007 39.1577 183.862ZM30.591 181.006C30.8095 180.506 31.232 180.132 31.8099 180.147C32.4364 180.161 32.8783 180.569 33.0483 181.142C33.2086 181.672 33.3446 182.254 33.2717 182.788C33.1357 183.813 32.8443 184.818 32.6161 185.848C31.6788 185.848 30.9649 185.848 30.1927 185.848C29.6148 184.129 29.9256 182.546 30.591 181.006ZM31.1106 186.907C31.975 187.014 32.8541 187.218 33.5097 187.897C34.3547 188.772 34.4421 189.889 33.6651 190.826C32.9172 191.734 31.9653 192.278 30.7949 192.283C29.1098 192.404 28.2404 190.816 28.2744 189.5C28.3133 187.936 29.5857 186.717 31.1106 186.907ZM27.3663 187.334C27.1332 188.067 26.9292 188.708 26.6912 189.447C25.4771 189.617 24.2242 189.806 22.9615 189.524C22.6556 189.456 22.3399 189.33 22.0874 189.15C21.3103 188.592 21.354 187.543 22.1893 187.077C22.5973 186.848 23.0781 186.698 23.5394 186.62C24.8847 186.402 26.2396 186.674 27.3663 187.334ZM37.1277 161.177C33.398 161.935 29.9936 163.47 26.9049 165.655C24.9964 167.005 22.8984 167.5 20.6256 167.389C16.891 167.204 16.891 167.185 13.6177 168.758C13.71 167.19 14.4045 166.048 15.3515 165.024C17.7651 162.425 20.7276 160.677 24.0542 159.526C26.4727 158.691 28.9738 158.283 31.538 158.327C31.8342 158.332 32.1305 158.38 32.4413 158.511C29.7605 159.395 27.0215 160.046 24.297 161.275C24.8604 161.823 25.2343 161.614 25.5986 161.532C27.8034 161.056 30.0033 160.561 32.213 160.109C34.4615 159.648 36.7004 159.764 38.9295 160.284C39.0703 160.318 39.1917 160.425 39.4831 160.58C38.5798 160.808 37.861 161.032 37.1277 161.177ZM132.246 132.903C134.023 130.271 135.995 127.765 137.918 125.23C138.443 124.536 139.103 123.943 139.798 123.205C140.05 123.904 139.734 124.317 139.584 124.725C137.772 129.601 135.111 134.001 131.92 138.08C128.987 141.829 125.704 145.268 122.314 148.604C122.232 148.687 122.13 148.75 122.033 148.823C121.979 148.793 121.931 148.769 121.877 148.74C121.95 148.609 122.023 148.478 122.101 148.352C125.481 143.199 128.803 138.012 132.246 132.903ZM120.872 141.363C121.261 137.881 121.61 134.389 122.047 130.912C122.543 126.988 123.499 123.156 124.582 119.359C124.757 118.742 125.029 118.149 125.321 117.576C125.636 116.964 126.059 116.421 126.884 116.168C127.666 116.892 127.773 117.819 127.856 118.732C128.103 121.437 127.865 124.123 127.491 126.804C127.137 129.373 126.423 131.845 125.452 134.244C124.32 137.046 123.193 139.848 122.023 142.631C121.639 143.544 121.139 144.408 120.692 145.292C120.61 145.268 120.532 145.243 120.45 145.219C120.59 143.932 120.731 142.645 120.872 141.363ZM124.199 152.615C129.181 148.492 134.577 144.962 140.235 141.829C140.482 141.693 140.73 141.557 140.983 141.436C141.046 141.407 141.133 141.431 141.327 141.431C132.552 150.969 121.974 157.86 110.47 163.508C110.61 163.368 110.737 163.203 110.902 163.091C115.54 159.861 119.847 156.214 124.199 152.615ZM115.54 134.127C115.613 134.812 115.71 135.356 115.729 135.905C115.816 138.551 115.292 141.12 114.724 143.68C113.743 148.118 111.849 152.222 110.003 156.345C109.921 156.53 109.809 156.7 109.697 156.865C109.659 156.918 109.561 156.923 109.493 156.952C109.523 154.519 114.476 135.623 115.54 134.127ZM97.3086 172.493C105.613 169.278 113.884 165.976 122.232 162.892C126.535 161.299 130.959 160.036 135.359 158.735C136.694 158.341 138.137 158.278 139.535 158.128C140.036 158.074 140.56 158.205 141.308 158.278C140.477 159.39 139.598 159.968 138.671 160.429C135.82 161.848 132.999 163.334 130.06 164.553C122.3 167.772 114.301 170.254 106.006 171.701C103.428 172.153 100.82 172.435 98.2216 172.779C97.8283 172.833 97.4203 172.784 96.8424 172.784C97.0901 172.629 97.1872 172.541 97.3086 172.493ZM183.049 164.713C183.564 164.353 184.19 164.13 184.797 163.936C185.39 163.751 185.992 163.848 186.521 164.227C187.682 165.053 187.633 166.252 186.361 166.893C185.021 167.568 183.578 167.646 182.121 167.413C181.611 167.33 181.121 167.141 180.349 166.923C181.373 166.068 182.17 165.33 183.049 164.713ZM180.193 168.642C180.426 168.817 180.669 168.953 180.854 169.147C181.781 170.142 182.719 171.133 183.593 172.177C183.972 172.629 184.278 173.173 184.486 173.726C184.86 174.703 184.37 175.499 183.345 175.669C182.588 175.8 181.917 175.586 181.369 175.028C180.164 173.799 179.523 170.439 180.193 168.642ZM178.226 167.607C177.974 168.054 177.804 168.409 177.585 168.729C176.512 170.322 175.08 171.536 173.457 172.527C173.122 172.731 172.734 172.881 172.35 172.974C171.865 173.09 171.466 172.794 171.427 172.294C171.408 172.027 171.466 171.735 171.559 171.478C172.345 169.302 175.313 166.908 178.226 167.607ZM173.744 148.381C170.179 149.886 167.523 152.334 165.92 155.889C165.493 156.845 164.978 157.763 164.604 158.739C162.773 163.528 159.374 167.204 155.96 170.851C155.124 171.745 154.061 172.42 153.099 173.197C153.007 173.119 152.915 173.042 152.822 172.964C153.4 170.822 154.313 168.831 155.586 167.01C156.183 166.15 156.848 165.339 157.509 164.528C158.908 162.809 159.835 160.881 160.311 158.71C160.588 157.457 160.942 156.209 161.37 155C163.22 149.731 168.863 146.642 173.929 147.575C174.205 147.623 174.482 147.652 174.842 147.876C174.477 148.036 174.118 148.22 173.744 148.381ZM247.567 141.523C249.631 141.616 251.641 142.004 253.603 142.64C254.171 142.825 254.778 142.917 255.371 143.005C255.575 143.034 255.803 142.917 256.017 142.869C256.031 142.747 256.051 142.631 256.065 142.509C254.021 141.436 251.792 140.97 249.48 140.703C250.757 140.081 252.112 139.785 253.496 139.644C256.823 139.304 260.086 139.819 263.326 140.508C263.918 140.635 264.516 140.742 265.089 140.926C265.885 141.183 266.142 141.732 265.667 142.407C265.288 142.946 264.744 143.437 264.166 143.748C262.209 144.797 260.091 145.282 257.872 145.098C256.634 144.996 255.381 144.826 254.186 144.496C251.476 143.748 248.8 142.883 246.056 142.048C246.751 141.47 246.746 141.485 247.567 141.523ZM75.1536 21.8512C77.0379 21.657 78.8833 22.0115 80.6073 22.7108C83.1473 23.7355 85.6532 24.8574 88.096 26.0909C94.0499 29.1019 99.5717 32.8171 105.021 36.6488C117.39 45.3515 129.589 54.2922 141.701 63.3494C144.95 65.7776 148.204 68.201 151.458 70.6195C151.502 70.7264 151.545 70.8235 151.594 70.94C151.613 70.8769 151.638 70.8235 151.657 70.7701C160.734 77.5205 169.82 84.2467 178.872 91.0262C186.395 96.6597 193.903 102.313 201.295 108.111C210.75 115.532 220.108 123.069 229.447 130.635C234.634 134.836 239.286 139.591 243.366 144.889C243.944 145.642 244.492 146.409 245.017 147.191C246.799 149.857 248.242 152.708 249.223 155.811C250.612 160.201 249.815 164.256 247.46 168.083C246.955 168.904 246.333 169.657 245.726 170.405C242.744 174.066 238.908 175.98 234.158 175.994C233.595 175.994 233.026 175.994 232.463 175.994C227.675 176.038 223.124 175.028 218.715 173.139C208.069 168.574 198.366 162.489 189.343 155.272C180.358 148.084 171.831 140.377 163.686 132.252C152.181 120.772 140.749 109.218 129.274 97.7087C121.902 90.3123 114.743 82.7169 107.944 74.7766C103.884 70.0319 99.4746 65.5834 95.2495 60.9746C89.7714 54.9964 84.2837 49.0133 79.7186 42.2871C77.5721 39.1207 75.6246 35.8135 73.6627 32.5257C72.6234 30.7919 71.9289 28.8979 71.453 26.9165C70.7876 24.1338 71.9823 22.7351 73.7112 22.1523C74.1629 22.0018 74.6485 21.9047 75.1536 21.8512ZM1.25812 105.246C2.09342 105.586 2.82189 105.804 3.47751 106.154C6.14369 107.582 8.82444 108.976 11.4275 110.515C15.1767 112.73 18.8578 115.056 22.5633 117.338C22.8692 117.523 23.1558 117.737 23.554 118.004C18.0371 117.372 2.96272 108.796 1.25812 105.246ZM10.8156 97.7475C9.65003 95.4407 8.49906 93.1339 7.97456 90.5794C7.88229 90.1278 7.88715 89.6616 7.81916 88.938C8.45049 89.2973 8.89243 89.4819 9.24695 89.7733C9.89771 90.3075 10.5776 90.8417 11.107 91.4925C12.7436 93.4836 14.4725 95.4213 15.8808 97.5678C19.3289 102.832 22.4127 108.31 24.9964 114.055C25.2635 114.643 25.5354 115.236 25.8268 115.867C25.8365 116.158 25.8511 116.45 25.8657 116.741C20.1788 110.947 14.5307 105.115 10.8156 97.7475ZM107.599 139.935C105.511 148.478 102.209 156.486 96.925 163.586C93.914 167.636 90.3931 171.162 86.0563 173.79C81.2047 176.728 76.2463 178.097 71.2004 177.942C67.6407 177.83 64.0323 176.966 60.3852 175.329C55.723 173.231 51.7844 170.113 48.2878 166.413C43.0137 160.833 39.1577 154.344 36.205 147.298C31.7856 136.75 29.7168 125.716 29.4109 114.318C29.3866 113.473 29.406 112.623 29.406 111.778C29.3623 101.035 30.9746 90.5697 34.7869 80.4926C36.2633 76.5978 38.0893 72.8778 40.2893 69.3374C44.189 63.0678 49.531 58.391 56.1504 55.2198C57.5102 54.569 58.8942 54.0639 60.2929 53.69C63.8381 52.7527 67.4998 52.7041 71.2441 53.5346C77.9606 55.0304 83.798 58.1919 88.9944 62.6841C95.1281 67.9873 99.5911 74.4561 102.787 81.8524C107.25 92.1918 109.557 103.012 110.013 114.245C110.372 122.923 109.663 131.495 107.599 139.935ZM270.994 118.077C270.023 120.116 268.474 121.583 266.39 122.476C266.278 122.525 266.162 122.554 266.045 122.588C263.593 123.312 261.883 122.37 261.369 119.869C260.922 117.683 260.912 115.474 261.417 113.278C261.611 112.433 262.184 111.865 262.889 111.452C263.569 111.054 264.049 111.278 264.263 112.011C264.758 113.735 265.278 113.924 266.784 112.948C267.007 112.802 267.25 112.676 267.663 112.443C267.784 113.108 267.91 113.638 267.964 114.172C268.007 114.609 267.93 115.061 267.964 115.498C268.046 116.639 268.687 117.066 269.765 116.707C270.251 116.547 270.722 116.338 271.227 116.134C271.509 116.892 271.266 117.513 270.994 118.077Z" fill="#333333"/>
<path d="M93.3604 77.1132C93.0545 76.4187 92.6951 75.7485 92.36 75.0686C92.3017 75.0977 92.2386 75.1269 92.1803 75.1512C92.4426 75.8651 92.7243 76.5692 92.9671 77.288C95.7061 85.4419 97.8818 93.7319 98.9794 102.274C99.6932 107.806 100.087 113.352 99.5621 118.917C99.193 122.807 98.7365 126.692 98.3092 130.578C97.537 137.629 95.8518 144.452 93.2196 151.043C92.2483 153.476 91.3742 155.943 90.4611 158.395C90.2912 158.847 90.16 159.313 90.0144 159.774C89.8687 160.231 89.8347 160.692 90.3689 160.901C90.8982 161.105 91.1848 160.712 91.413 160.314C91.5733 160.037 91.7141 159.745 91.8549 159.454C92.3649 158.405 92.8797 157.351 93.3847 156.302C96.2597 150.314 98.4694 144.093 99.5476 137.527C100.261 133.156 100.796 128.752 101.296 124.347C102.044 117.752 102.053 111.157 101.174 104.562C99.9021 95.0382 97.2456 85.9033 93.3604 77.1132Z" fill="#333333"/>
<path d="M198.895 111.031C203.951 115.038 209.07 118.962 214.067 123.031C219.161 127.184 224.105 131.52 228.427 136.508C231.628 140.199 234.658 144.011 237.067 148.285C238.223 150.334 239.189 152.456 239.544 154.802C239.738 156.074 239.845 157.361 239.957 158.644C239.995 159.09 240.097 159.45 240.588 159.527C241.064 159.6 241.35 159.319 241.506 158.911C241.588 158.687 241.637 158.44 241.651 158.202C241.792 155.443 241.797 152.68 240.505 150.159C239.427 148.047 238.271 145.954 236.931 144.001C232.983 138.276 228.481 132.992 223.25 128.398C219.317 124.94 215.242 121.637 211.148 118.369C205.694 114.018 199.944 110.069 194.165 106.165C193.379 105.636 192.543 105.184 191.727 104.698C191.698 104.747 191.674 104.8 191.645 104.849C192.631 105.733 193.597 106.646 194.602 107.5C196.016 108.695 197.443 109.88 198.895 111.031Z" fill="#333333"/>
<path d="M154.207 12.7265C155.396 14.4505 156.683 16.1065 157.951 17.7772C159.573 19.914 161.608 21.5263 164.148 22.4345C164.973 22.7307 165.852 22.8764 166.484 23.0367C169.126 22.7501 171.296 22.0362 173.011 20.2394C173.929 19.2778 174.847 18.3114 175.842 17.4323C177.484 15.9803 177.6 16.0385 176.172 13.8823C176.104 13.7803 176.017 13.6977 175.934 13.6103C172.943 10.3517 169.198 8.81217 164.813 9.01129C162.526 9.11813 160.248 9.49207 157.985 9.83688C156.62 10.0457 155.348 10.1525 154.304 9.03071C154.221 8.9433 154.119 8.87531 154.017 8.80732C153.672 8.57421 153.313 8.37995 152.91 8.67619C152.478 8.99672 152.453 9.4338 152.672 9.86116C153.153 10.8325 153.59 11.8377 154.207 12.7265ZM161.418 11.0267C163.662 10.8373 165.901 10.3759 168.154 10.9004C170.621 11.4735 172.943 12.3234 174.638 14.3679C168.698 16.869 163.274 16.3348 158.514 11.4395C159.612 11.2841 160.51 11.1044 161.418 11.0267ZM156.985 12.2845C157.728 12.9013 158.446 13.5472 159.184 14.1688C163.152 17.5052 167.61 18.2822 172.515 16.7233C173.05 16.5533 173.574 16.3396 174.113 16.1794C174.482 16.0677 174.861 15.9997 175.24 15.9171C175.269 15.9803 175.298 16.0434 175.327 16.1017C173.938 17.4178 172.666 18.9038 171.126 20.0111C169.077 21.4875 166.756 21.9343 164.284 20.8464C161.705 19.71 159.588 18.0588 158.165 15.5966C157.49 14.4262 156.849 13.2315 156.343 11.9009C156.562 12.0271 156.8 12.1291 156.985 12.2845Z" fill="#333333"/>
<path d="M18.1145 147.648C18.537 147.856 18.945 148.143 19.2898 148.464C20.2611 149.367 21.1838 150.324 22.1502 151.237C22.7961 151.848 23.2575 151.95 23.6071 151.635C23.9568 151.319 23.9131 150.882 23.3595 150.139C22.5484 149.046 21.9657 147.842 21.8783 146.492C21.6986 143.728 20.6399 141.359 18.9255 139.231C17.76 137.789 17.2792 136.104 17.3375 134.273C17.3715 133.273 17.4832 132.262 17.6483 131.272C17.9008 129.723 18.2796 128.193 18.503 126.644C18.6002 125.983 18.5467 125.259 18.3719 124.618C18.0757 123.521 17.0801 123.268 16.2157 124.016C15.8806 124.303 15.5746 124.638 15.3221 124.997C13.8894 127.042 12.4422 129.072 11.0727 131.16C10.1985 132.491 9.72746 133.991 9.72746 135.851C9.69347 136.929 10.0286 138.168 10.5433 139.363C12.1023 142.995 14.5062 145.87 18.1145 147.648ZM12.0586 132.962C12.3402 132.428 12.6705 131.922 13.0056 131.417C14.074 129.81 15.1472 128.207 16.2205 126.605C16.4342 126.284 16.6576 125.973 17.0412 125.415C17.2015 126.367 17.0218 127.017 16.8907 127.659C16.5847 129.198 16.2011 130.723 15.9388 132.272C15.4095 135.439 15.9388 138.338 18.0757 140.883C19.5083 142.587 20.2611 144.598 20.2562 147.084C19.9114 146.618 19.6589 146.322 19.4549 145.996C18.1874 143.986 16.9344 141.966 15.6669 139.96C15.4435 139.61 15.2832 139.134 14.6859 139.183C14.3459 139.707 14.5159 140.217 14.7344 140.679C15.3609 141.985 16.0263 143.272 16.6819 144.564C16.8373 144.87 17.0073 145.171 17.0461 145.579C16.8616 145.457 16.6576 145.351 16.4876 145.21C14.074 143.243 12.4422 140.737 11.5583 137.77C11.0776 136.128 11.2524 134.492 12.0586 132.962Z" fill="#333333"/>
<path d="M199.221 70.2935C199.333 69.8613 199.435 69.3853 199.002 69.0697C198.526 68.72 198.094 68.9677 197.686 69.2736C196.428 70.2109 195.156 71.1385 193.898 72.0807C192.427 73.1831 191.213 74.5137 190.314 76.1212C189.455 77.6607 188.896 79.2828 188.998 81.0845C189.187 85.2319 190.746 88.7674 193.942 91.4433C194.942 92.2834 195.729 93.1139 196.05 94.3766C196.147 94.7602 196.365 95.1147 196.55 95.4741C196.642 95.649 196.739 95.8869 196.899 95.9549C197.201 96.0812 197.623 96.256 197.856 96.1395C198.084 96.018 198.201 95.5713 198.25 95.2507C198.284 95.0419 198.128 94.7894 198.036 94.5708C197.366 92.9925 197.249 91.351 197.633 89.7095C198.308 86.8394 198.39 83.9741 197.837 81.0796C197.356 78.5737 197.55 76.1115 198.288 73.6784C198.624 72.5517 198.925 71.4202 199.221 70.2935ZM196.666 73.7319C195.894 76.2086 195.802 78.7097 196.215 81.2642C196.788 84.7851 196.72 86.0866 195.909 89.3307C194.816 86.616 195.156 83.8721 194.442 81.2642C193.617 81.5119 193.66 82.0509 193.636 82.5123C193.529 84.858 193.549 87.189 194.272 89.4618C194.33 89.6415 194.355 89.8309 194.403 90.0592C194.248 90.0203 194.151 90.0252 194.112 89.9815C191.737 87.2327 190.261 84.1343 190.499 80.4046C190.538 79.7733 190.703 79.1274 190.931 78.5349C192.062 75.5676 194.335 73.6542 197.176 71.901C196.963 72.6683 196.832 73.2025 196.666 73.7319Z" fill="#333333"/>
<path d="M8.57137 28.6641C8.73649 30.6406 9.10558 32.5735 9.80976 34.4384C11.257 38.2798 13.6803 41.014 17.9491 41.6744C18.4833 41.757 18.8184 42.0338 18.9933 42.5437C19.1487 43.0002 19.3089 43.4616 19.5226 43.8938C19.7412 44.326 20.1005 44.5883 20.6105 44.3746C21.1155 44.1658 21.203 43.7238 21.0427 43.2625C20.8339 42.6554 20.5959 42.0484 20.2948 41.485C20.0763 41.0771 20.1005 40.7663 20.3045 40.368C21.0427 38.9451 21.2855 37.3959 21.3778 35.3271C20.9553 31.1651 18.8913 27.5325 14.807 25.1674C13.4327 24.371 11.9175 23.9242 10.344 23.7348C8.81905 23.5551 8.24113 24.133 8.33826 25.6531C8.41111 26.6584 8.48881 27.6636 8.57137 28.6641ZM11.0773 25.4685C11.4367 25.5511 11.8009 25.6142 12.1554 25.7211C16.1668 26.9206 19.4886 31.0389 19.8383 35.2348C19.9548 36.648 19.576 38.474 18.8524 39.6736C16.3854 34.7977 14.2534 29.9122 10.9413 25.6919C10.9802 25.6191 11.0287 25.5462 11.0773 25.4685ZM17.1333 39.727C15.0013 39.1976 13.6998 37.9884 12.6751 36.4538C11.2861 34.3752 10.5674 32.0393 10.2614 29.5771C10.1109 28.3435 10.0477 27.1003 10.0234 25.8328C12.6848 30.2375 14.875 34.8657 17.1333 39.727Z" fill="#333333"/>
<path d="M50.5557 43.4333C51.9058 45.3904 54.2563 46.0946 55.8638 47.7264C55.893 47.7555 55.9318 47.7846 55.9658 47.7846C56.2281 47.7652 56.6166 47.8332 56.7185 47.6972C56.874 47.4835 56.9225 47.095 56.8351 46.8376C56.738 46.556 56.4612 46.3228 56.228 46.1043C55.757 45.6672 55.2665 45.2593 54.8245 44.8756C55.1985 43.9043 55.587 43.1079 55.8201 42.2629C56.7185 39.0236 56.7768 35.7164 56.2766 32.4286C55.8541 29.6459 55.1645 26.902 54.572 24.1484C54.4555 23.5996 54.2903 23.0557 54.0912 22.5263C53.6736 21.4336 52.9597 21.2005 52.0612 21.9533C51.5173 22.4098 51.0074 22.9828 50.6869 23.6093C49.7544 25.4353 48.8317 27.2808 48.0838 29.1893C47.1854 31.4767 46.9863 33.8807 47.3699 36.3235C47.7924 38.9896 49.06 41.2624 50.5557 43.4333ZM52.576 24.2552C52.6683 23.8715 52.7848 23.4927 52.9597 22.8517C53.1442 23.381 53.2802 23.6627 53.3336 23.959C53.931 27.0768 54.64 30.1801 55.0674 33.3222C55.4559 36.202 55.2859 39.1062 54.504 41.9423C54.2369 42.9136 54.2223 42.9525 53.5522 43.7344C53.2996 43.2876 53.0082 42.9136 52.8577 42.4863C52.0904 40.3154 51.595 38.0912 51.5659 35.765C51.5173 31.8895 51.6533 28.0384 52.576 24.2552ZM50.9977 25.955C50.7646 28.3686 50.4975 30.8745 50.2886 33.3853C50.0798 35.8864 50.3178 38.3632 50.818 40.8448C47.637 36.6974 47.9235 30.7871 50.9977 25.955Z" fill="#333333"/>
</svg>
