<svg width="24" height="24" viewBox="0 0 24 24" fill="none" xmlns="http://www.w3.org/2000/svg">
<path d="M20.0151 6.34726C19.904 6.23723 19.7718 6.14989 19.6261 6.09029C19.4805 6.03069 19.3242 6 19.1664 6C19.0086 6 18.8524 6.03069 18.7067 6.09029C18.561 6.14989 18.4288 6.23723 18.3177 6.34726L9.41193 15.1052L5.67032 11.4189C5.55494 11.3094 5.41873 11.2233 5.26948 11.1656C5.12023 11.1078 4.96085 11.0795 4.80045 11.0822C4.64005 11.0849 4.48177 11.1187 4.33464 11.1815C4.18751 11.2443 4.05442 11.3349 3.94296 11.4482C3.83151 11.5615 3.74387 11.6953 3.68505 11.8419C3.62623 11.9885 3.59738 12.145 3.60016 12.3025C3.60293 12.46 3.63727 12.6155 3.70122 12.76C3.76517 12.9045 3.85747 13.0352 3.97285 13.1446L8.56319 17.6527C8.67432 17.7628 8.80653 17.8501 8.9522 17.9097C9.09787 17.9693 9.25412 18 9.41193 18C9.56973 18 9.72598 17.9693 9.87165 17.9097C10.0173 17.8501 10.1495 17.7628 10.2607 17.6527L20.0151 8.07302C20.1365 7.96309 20.2333 7.82966 20.2995 7.68115C20.3658 7.53264 20.4 7.37227 20.4 7.21014C20.4 7.04801 20.3658 6.88764 20.2995 6.73913C20.2333 6.59062 20.1365 6.4572 20.0151 6.34726Z" fill="#0D9A88"/>
</svg>
