<svg width="40" height="32" viewBox="0 0 40 32" fill="none" xmlns="http://www.w3.org/2000/svg">
<path d="M11.5709 11.2354C9.76837 12.927 7.40192 14.0086 5.90439 15.9683C4.44385 17.8818 3.99089 20.3869 4.00014 22.7904C4.00014 23.9736 4.11106 25.1753 4.53629 26.2753C5.61783 29.0578 8.63136 30.7309 11.5987 30.999C14.5752 31.2671 17.5241 30.3704 20.3065 29.2889C24.7806 27.551 29.1622 25.2493 32.3329 21.6534C35.5036 18.0574 37.2969 12.9733 36.0027 8.35129C34.7363 3.80326 28.9773 -0.606115 24.1427 0.0686945C17.5888 0.993091 15.7677 7.30672 11.5709 11.2354Z" fill="#F3F8F9"/>
<path d="M24.1571 26.0934C24.0178 26.0934 23.9101 25.9794 23.9101 25.8464V18.5436C23.9165 17.1565 23.3718 16.5358 21.9023 16.2508C21.7693 16.2255 21.6806 16.0925 21.706 15.9595C21.7313 15.8265 21.8643 15.7378 21.9973 15.7631C23.7138 16.0925 24.4168 16.8969 24.4105 18.5436V25.8401C24.4042 25.9794 24.2901 26.0934 24.1571 26.0934Z" fill="#1F5274"/>
<path d="M16.3345 13.7366C16.4738 13.7366 16.6068 13.7303 16.7335 13.7113C16.8728 13.6923 16.9678 13.572 16.9488 13.4326C16.9298 13.2933 16.8095 13.1983 16.6702 13.2173C16.5625 13.2299 16.4421 13.2363 16.3281 13.2363C15.4414 13.2363 14.713 12.9196 14.1557 12.2862C12.8446 10.8041 12.8952 8.16928 12.9016 7.99827C12.9079 7.96027 12.9079 7.92227 12.9016 7.88426C12.9016 7.88426 12.9016 7.88426 12.9016 7.87793C12.7179 7.93493 12.5532 7.97294 12.4076 7.99827C12.3822 8.21362 12.3885 8.58731 12.4772 9.26502C12.6292 10.4874 13.0916 12.3242 14.466 13.2109C14.4723 13.3313 14.5737 15.6051 12.6736 15.7381C9.9944 15.9218 9 16.7578 9 18.8036V25.9988C9 26.1381 9.11401 26.2458 9.24702 26.2458C9.38636 26.2458 9.49403 26.1318 9.49403 25.9988V18.81C9.4877 17.0365 10.2667 16.4095 12.6989 16.2448C14.447 16.1245 14.9284 14.522 14.96 13.4833C15.3591 13.648 15.8151 13.7366 16.3345 13.7366Z" fill="#1F5274"/>
<path d="M20.173 27.5122H16.0941V15.3325H26.6145C26.7538 15.3325 26.8615 15.2184 26.8615 15.0854C26.8615 14.9461 26.7475 14.8384 26.6145 14.8384H19.3307C19.3307 14.8321 19.3243 14.8321 19.3243 14.8258C18.8873 14.1354 18.938 13.2297 18.938 13.217C18.9443 13.0776 18.843 12.9636 18.7036 12.951C18.5706 12.9446 18.4503 13.046 18.4376 13.1853C18.4376 13.2233 18.3869 14.0594 18.7606 14.8321H15.8408C15.7014 14.8321 15.5938 14.9461 15.5938 15.0791V27.7529C15.5938 27.8923 15.7078 27.9999 15.8408 27.9999H20.1667C20.306 27.9999 20.4137 27.8859 20.4137 27.7529C20.4264 27.6199 20.3124 27.5122 20.173 27.5122Z" fill="#1F5274"/>
<path d="M26.6269 15.6743H16.8413C16.7019 15.6743 16.5942 15.7883 16.5942 15.9213V26.923C16.5942 27.0624 16.7082 27.1701 16.8413 27.1701H21.7436C21.8829 27.1701 21.9906 27.056 21.9906 26.923C21.9906 26.7837 21.8766 26.676 21.7436 26.676H17.0946V23.9715C17.6393 24.5796 18.792 25.4409 20.9645 25.4409C21.5409 25.4409 22.1933 25.3776 22.9216 25.2383C23.0546 25.2129 23.1433 25.0799 23.118 24.9469C23.0927 24.8139 22.9596 24.7252 22.8266 24.7506C18.355 25.6246 17.1833 23.2685 17.1326 23.1671C17.1263 23.1481 17.1136 23.1291 17.0946 23.1101V22.0461C17.6393 22.6541 18.792 23.5155 20.9645 23.5155C21.5409 23.5155 22.1933 23.4521 22.9216 23.3128C23.0546 23.2875 23.1433 23.1545 23.118 23.0215C23.0927 22.8884 22.9596 22.7998 22.8266 22.8251C18.355 23.6992 17.1833 21.343 17.1326 21.2417C17.1263 21.2227 17.1136 21.2037 17.0946 21.1847V19.9876C17.6393 20.5956 18.792 21.457 20.9645 21.457C21.5409 21.457 22.1933 21.3937 22.9216 21.2543C23.0546 21.229 23.1433 21.096 23.118 20.963C23.0927 20.83 22.9596 20.7413 22.8266 20.7666C18.355 21.6407 17.1833 19.2845 17.1326 19.1832C17.1263 19.1642 17.1136 19.1452 17.0946 19.1262V16.1683H26.6332C26.7726 16.1683 26.8802 16.0543 26.8802 15.9213C26.8739 15.7883 26.7599 15.6743 26.6269 15.6743Z" fill="#1F5274"/>
<path d="M11.9833 20.0005C11.844 20.0005 11.7363 20.1145 11.7363 20.2475V25.1815C11.7363 25.3208 11.8503 25.4285 11.9833 25.4285C12.1164 25.4285 12.2304 25.3145 12.2304 25.1815V20.2475C12.2304 20.1082 12.1227 20.0005 11.9833 20.0005Z" fill="#1F5274"/>
<path d="M16.4169 4.54616C16.4169 4.54616 17.1453 6.64896 19.9765 7.01632C19.9765 7.01632 20.5022 2 15.6062 2C10.7102 2 11.8059 8.02972 11.8059 8.02972C11.8249 8.06139 12.0593 8.07405 12.414 8.00438C12.5596 7.97905 12.7243 7.94104 12.908 7.88404C13.9657 7.56102 15.5238 6.68696 16.4169 4.54616Z" fill="#8ACB8F"/>
</svg>
