<svg width="32" height="32" viewBox="0 0 32 32" fill="none" xmlns="http://www.w3.org/2000/svg">
<g clip-path="url(#clip0)">
<path d="M16.0002 13.3984C14.5295 13.3984 13.3335 14.5944 13.3335 16.0651C13.3335 17.5358 14.5295 18.7318 16.0002 18.7318C17.4708 18.7318 18.6668 17.5358 18.6668 16.0651C18.6668 14.5944 17.4708 13.3984 16.0002 13.3984Z" fill="#6C41BF"/>
<path d="M29.2946 0.0664062C27.8239 0.0664062 26.6279 1.26241 26.6279 2.73307C26.6279 4.20374 27.8239 5.39974 29.2946 5.39974C30.7653 5.39974 31.9613 4.20374 31.9613 2.73307C31.9613 1.26241 30.7653 0.0664062 29.2946 0.0664062Z" fill="#6C41BF"/>
<path d="M19.6093 3.05702C19.088 2.53568 18.2453 2.53568 17.724 3.05702C17.2027 3.57835 17.2027 4.42102 17.724 4.94235L18.2347 5.45302L13.544 10.1437C12.7427 9.96235 11.9227 9.87035 11.0973 9.87035C4.97867 9.87035 0 14.849 0 20.969C0 27.089 4.97867 32.0663 11.0973 32.0663C17.216 32.0663 22.1947 27.089 22.1947 20.969C22.1947 20.1277 22.1 19.2943 21.9147 18.4823L26.5893 13.809L27.0573 14.277C27.3173 14.5357 27.6587 14.6663 28 14.6663C28.3413 14.6663 28.6827 14.5357 28.9427 14.2757C29.464 13.7543 29.464 12.9117 28.9427 12.3903L19.6093 3.05702ZM19.4853 17.1397C19.136 17.489 19.008 18.0037 19.1533 18.477C19.4027 19.281 19.528 20.1183 19.528 20.9677C19.528 21.6223 19.4453 22.2583 19.304 22.8703C16.8907 22.7077 15.632 21.901 14.316 21.0463C12.7653 20.0397 11.1627 18.9997 7.96267 18.9997C5.57733 18.9997 3.88 19.6103 2.70133 20.2823C3.052 15.9543 6.68 12.537 11.0973 12.537C11.9307 12.537 12.7587 12.661 13.556 12.9023C14.0253 13.0437 14.5373 12.9197 14.888 12.5703L20.12 7.33835L24.704 11.9223L19.4853 17.1397Z" fill="#6C41BF"/>
</g>
<defs>
<clipPath id="clip0">
<rect width="32" height="32" fill="white"/>
</clipPath>
</defs>
</svg>
