<svg width="30" height="30" viewBox="0 0 30 30" fill="none" xmlns="http://www.w3.org/2000/svg">
<path d="M24.1648 0H5.83538C2.7851 0 0.3125 2.47272 0.3125 5.52288V17.5447C0.3125 20.5949 2.78522 23.0676 5.83538 23.0676H8.4659C8.59105 23.0676 8.69248 23.169 8.69248 23.2942V29.2243C8.69248 29.9254 9.55012 30.2654 10.0304 29.7546L16.2524 23.139C16.2952 23.0934 16.355 23.0676 16.4175 23.0676H24.1648C27.215 23.0676 29.6877 20.5949 29.6877 17.5447V5.52288C29.6877 2.47272 27.2149 0 24.1648 0Z" fill="#6C41BF"/>
<path d="M20.1305 7.86616C18.9713 6.71128 17.0917 6.71128 15.9324 7.86616L15.2775 8.51851C15.1214 8.67405 14.8682 8.67405 14.712 8.51851L14.0677 7.87658C12.9084 6.72171 11.0288 6.72171 9.86946 7.87658C8.71018 9.03145 8.71018 10.9039 9.86946 12.0588L14.7124 16.8833C14.8686 17.0389 15.1218 17.0389 15.2779 16.8833L20.1305 12.0484C21.2898 10.8935 21.2898 9.02108 20.1305 7.86616Z" fill="#FFF5F5"/>
</svg>
