<svg width="28" height="28" viewBox="0 0 28 28" fill="none" xmlns="http://www.w3.org/2000/svg">
<path d="M12.079 5.6222C15.7142 4.64827 18.0008 4.85948 19.4493 5.26608C19.5549 4.93877 19.6129 4.58648 19.6129 4.20886C19.613 1.4292 16.483 0 14.0001 0C11.5356 0 8.38721 1.41427 8.38721 4.20881C8.38721 5.14588 8.74371 5.92949 9.3111 6.55687C10.146 6.2049 11.069 5.89285 12.079 5.6222Z" fill="#6C41BF"/>
<path d="M5.92285 15.6603C8.05102 14.982 10.7557 14.639 14 14.639C16.2971 14.639 18.3234 14.8111 20.0666 15.1521C20.522 14.8217 20.9142 14.4689 21.2416 14.0943C22.2996 12.8836 22.6697 11.4234 22.2837 9.98279C21.8977 8.54237 20.8472 7.463 19.3255 6.94352C17.6211 6.36165 15.3259 6.45002 12.5036 7.20613C9.6813 7.96224 7.64945 9.0333 6.46437 10.3895C5.40649 11.6002 5.03642 13.0603 5.42235 14.501C5.53457 14.9197 5.70323 15.3075 5.92285 15.6603Z" fill="#6C41BF"/>
<path d="M25.3321 24.7196C25.9282 23.9569 26.2428 23.0822 26.2428 22.1411C26.2428 20.4363 25.2126 18.9487 23.3419 17.9523C21.2601 16.8435 18.1171 16.2812 14.0001 16.2812C9.88301 16.2812 6.73996 16.8435 4.65822 17.9523C2.78753 18.9487 1.75732 20.4363 1.75732 22.1411C1.75732 23.0822 2.07194 23.9569 2.66798 24.7196H25.3321Z" fill="#6C41BF"/>
<path d="M27.1797 26.3594H0.820312C0.367281 26.3594 0 26.7267 0 27.1797C0 27.6327 0.367281 28 0.820312 28H27.1797C27.6327 28 28 27.6327 28 27.1797C28 26.7267 27.6327 26.3594 27.1797 26.3594Z" fill="#6C41BF"/>
</svg>
