<svg width="24" height="24" viewBox="0 0 24 24" fill="none" xmlns="http://www.w3.org/2000/svg">
<g clip-path="url(#clip0)">
<path d="M8.75775 2.01266L8.29505 0.585571C7.78778 0.750834 7.292 0.949468 6.81097 1.18025L7.4604 2.5301C7.88073 2.32866 8.31418 2.15575 8.75775 2.01266Z" fill="#A89175"/>
<path d="M22.0329 5.41829C19.816 2.03833 16.0464 0.00169713 12.0042 0.000244166C11.2805 0.000197296 10.5582 0.0649712 9.84598 0.193722L10.1137 1.66956C10.4911 1.60347 10.8719 1.55815 11.2543 1.53382V3.78802C9.59035 3.93791 8.01173 4.59193 6.72933 5.66281L5.13201 4.06549C5.48386 3.75952 5.85535 3.47694 6.24413 3.21958L5.41923 1.96572C-0.121895 5.60009 -1.66766 13.0383 1.96671 18.5794C5.60108 24.1206 13.0393 25.6663 18.5804 22.032C24.1216 18.3976 25.6673 10.9594 22.0329 5.41829ZM22.4648 11.2489H20.2151C20.065 9.585 19.411 8.00643 18.3403 6.72394L19.9301 5.13412C21.416 6.84345 22.3057 8.98966 22.4648 11.2489ZM12.7541 1.53827C15.0135 1.69772 17.1597 2.58764 18.869 4.07374L17.2791 5.66356C15.9968 4.59244 14.4182 3.9381 12.7541 3.78802V1.53827ZM4.07763 5.13187L5.66895 6.72394C4.59798 8.00634 3.94368 9.58491 3.79341 11.2489H1.55192C1.70823 8.98999 2.59467 6.84308 4.07763 5.13187ZM1.54367 12.7488H3.79341C3.94349 14.4127 4.59751 15.9912 5.6682 17.2737L4.07838 18.8636C2.59247 17.1543 1.70279 15.0081 1.54367 12.7488ZM11.2543 22.4594C8.99496 22.3 6.84875 21.41 5.13951 19.9239L6.72933 18.3341C8.01164 19.4052 9.59026 20.0596 11.2543 20.2097V22.4594ZM12.0042 18.7481C8.27847 18.7439 5.25912 15.7246 5.255 11.9988C5.255 8.27134 8.27673 5.2496 12.0042 5.2496C15.7317 5.2496 18.7535 8.27134 18.7535 11.9988C18.7535 15.7263 15.7317 18.7481 12.0042 18.7481ZM12.7541 22.4594V20.2097C14.4181 20.0598 15.9967 19.4057 17.2791 18.3349L18.869 19.9247C17.1596 21.4106 15.0134 22.3002 12.7541 22.4594ZM19.9293 18.8636V18.8598L18.3395 17.27C19.4098 15.9886 20.064 14.4115 20.2151 12.7488H22.4648C22.3055 15.0082 21.4156 17.1544 19.9293 18.8636Z" fill="#A89175"/>
<path d="M12.0045 6.46606L8.32991 9.94867C7.21755 11.0497 7.20841 12.844 8.30948 13.9564C9.07762 14.7324 10.2233 14.9981 11.2546 14.6394V15.936H10.5047V17.4358H13.5043V15.936H12.7544V14.6559C13.7792 15.0123 14.9175 14.747 15.6791 13.9742C16.7843 12.8508 16.7769 11.0465 15.6626 9.93217L12.0045 6.46606ZM14.6112 12.9183V12.9153C14.0875 13.4235 13.2548 13.4235 12.7312 12.9153L12.0045 12.1849L11.2786 12.9183C10.7406 13.4278 9.89142 13.4046 9.382 12.8665C8.89296 12.35 8.89202 11.5417 9.37979 11.024L12.0045 8.53283L14.6112 11.0075C15.1326 11.5378 15.1326 12.3881 14.6112 12.9183Z" fill="#A89175"/>
</g>
<defs>
<clipPath id="clip0">
<rect width="24" height="24" fill="white"/>
</clipPath>
</defs>
</svg>
