<svg width="64" height="65" viewBox="0 0 64 65" fill="none" xmlns="http://www.w3.org/2000/svg">
<g clip-path="url(#clip0_387_24903)">
<path fill-rule="evenodd" clip-rule="evenodd" d="M19.2002 58.0432C19.2002 58.6323 19.6777 59.1099 20.2669 59.1099H43.7335C44.3227 59.1099 44.8002 58.6324 44.8002 58.0432C44.8002 57.4541 44.3227 56.9766 43.7335 56.9766H20.2669C19.6777 56.9766 19.2002 57.4541 19.2002 58.0432Z" fill="white"/>
<path d="M6.40892 21.8215C6.39671 22.3118 6.55381 22.7913 6.85371 23.1793L12.8004 30.7271V56.9767C12.8051 61.0984 16.1452 64.4386 20.2671 64.4434H43.7337C47.8554 64.4386 51.1957 61.0985 51.2004 56.9767V30.7281L57.1535 23.1729C57.4501 22.7872 57.6046 22.311 57.5908 21.8246C57.5908 21.8076 57.6004 21.7937 57.6004 21.7766C57.6004 21.7596 57.5929 21.751 57.5929 21.7382C57.5596 21.2115 57.3346 20.7152 56.9604 20.343L51.2004 14.8005V7.91004C51.1957 3.7882 47.8554 0.448098 43.7337 0.443359H20.2671C16.1453 0.448098 12.8051 3.7882 12.8004 7.91004V14.8018L7.02545 20.357C6.65616 20.7276 6.43598 21.2212 6.40681 21.7437C6.40681 21.7554 6.40039 21.7661 6.40039 21.7778C6.40039 21.7895 6.40892 21.8055 6.40892 21.8215ZM14.6063 16.0241L14.6298 16.0006L16.7097 13.9995L19.6921 20.7099H9.73586L14.6063 16.0241ZM49.3635 15.99C49.3777 16.005 49.3926 16.0193 49.4083 16.0326L54.2755 20.7099H44.3085L47.2951 13.9985L49.3635 15.99ZM34.667 48.2406L43.4275 22.8433H54.6969L34.667 48.2406ZM22.827 22.8433H41.1737L32.0004 49.4385L22.827 22.8433ZM42.2863 20.0006L34.7738 13.2434H45.2869L42.2863 20.0006ZM39.8873 20.71H24.1135L32.0004 13.6114L39.8873 20.71ZM21.7113 20.0006L18.7086 13.2434H29.227L21.7113 20.0006ZM20.5732 22.8433L29.3455 48.2843L14.6575 29.6625C14.6404 29.6423 14.6275 29.6188 14.6084 29.5995L9.28044 22.8433H20.5732ZM49.067 56.9767C49.0634 59.9207 46.6778 62.3065 43.7337 62.31H20.2671C17.323 62.3064 14.9372 59.9207 14.9338 56.9767V33.4353L30.3109 52.9553C30.7153 53.476 31.3372 53.7809 31.9965 53.782C32.6558 53.783 33.2786 53.48 33.6848 52.9605L49.0671 33.4353L49.067 56.9767ZM42.1582 2.57673L41.4115 4.4359C41.0908 5.24702 40.3061 5.77899 39.4339 5.77667H24.5668C23.6937 5.77983 22.9081 5.24776 22.587 4.4359L21.8435 2.57673H42.1582ZM14.9338 7.91004C14.9421 5.24091 16.9257 2.99045 19.5727 2.64707L20.6053 5.22733C21.2485 6.85115 22.8203 7.91562 24.5669 7.91004H39.434C41.1803 7.91583 42.752 6.85189 43.3956 5.22838L44.4282 2.64707C47.0752 2.99034 49.0588 5.24081 49.0671 7.91004V12.7485L47.6804 11.4098C47.489 11.2246 47.2352 11.1176 46.9689 11.1101H17.0319C16.7674 11.1189 16.5158 11.2258 16.3257 11.4098L14.9338 12.7485V7.91004Z" fill="white"/>
</g>
<defs>
<clipPath id="clip0_387_24903">
<rect width="64" height="64" fill="white" transform="translate(0 0.443359)"/>
</clipPath>
</defs>
</svg>
