<svg width="48" height="48" viewBox="0 0 48 48" fill="none" xmlns="http://www.w3.org/2000/svg">
<circle cx="24" cy="24" r="24" fill="white"/>
<path d="M24.841 12.3012C24.4394 11.8996 23.7364 11.8996 23.3347 12.3012C22.431 13.3054 15 22.3431 15 26.9623C15 31.9833 19.0167 36 24.0377 36C29.0586 36 33.0753 31.9833 33.0753 26.9623C33.0753 22.3431 25.6444 13.3054 24.841 12.3012ZM24.0377 33.9916C21.6276 33.9916 19.318 32.6862 18.0126 30.5774C18.5147 30.8787 19.1172 30.9791 19.7197 30.9791C20.8243 30.9791 21.8285 30.477 22.5314 29.6736C23.3347 28.7699 24.7406 28.7699 25.5439 29.6736C26.2468 30.477 27.3515 30.9791 28.3556 30.9791C28.9581 30.9791 29.4602 30.8787 29.9623 30.5774C28.7573 32.6862 26.4477 33.9916 24.0377 33.9916ZM29.862 28.2678C29.0586 29.1715 27.6528 29.1715 26.8494 28.2678C25.4435 26.6611 23.0335 26.5606 21.4268 27.9665C21.3264 28.0669 21.226 28.1674 21.1256 28.2678C20.4226 29.0711 19.2176 29.1715 18.4143 28.4686C18.3139 28.3682 18.2134 28.2678 18.2134 28.2678C17.9121 27.9665 17.5105 27.6653 17.0084 27.364C17.0084 27.2636 17.0084 27.0627 17.0084 26.9623C17.1088 25.9582 17.3096 25.0544 17.8117 24.1506C18.3139 24.6528 19.0168 24.954 19.7197 24.954C21.9289 24.954 21.9289 22.9456 24.0377 22.9456C26.1464 22.9456 26.2468 24.954 28.3556 24.954C29.0585 24.954 29.7615 24.6528 30.2636 24.1506C30.6652 25.0544 30.9665 25.9582 31.0669 26.9623C31.0669 27.0627 31.0669 27.2636 31.0669 27.364C30.6653 27.5649 30.2636 27.8661 29.862 28.2678Z" fill="#6C41BF"/>
</svg>
