<svg width="80" height="80" viewBox="0 0 80 80" fill="none" xmlns="http://www.w3.org/2000/svg">
<path d="M80 0H0V80H80V0Z" fill="url(#paint0_linear)"/>
<path d="M78 2H2V78H78V2Z" fill="white"/>
<path d="M44.9039 43.068H42.3049C41.7526 43.068 41.3049 43.5157 41.3049 44.068V44.182C41.3049 44.7343 41.7526 45.182 42.3049 45.182H44.9039C45.4562 45.182 45.9039 44.7343 45.9039 44.182V44.068C45.9039 43.5157 45.4562 43.068 44.9039 43.068Z" fill="#D92400"/>
<path d="M55.7779 29.612C53.8841 28.8477 52.2031 27.637 50.878 26.083C49.6259 24.6139 48.7327 22.8737 48.2689 21H31.7309C31.2664 22.8744 30.3722 24.6149 29.1189 26.084C27.7938 27.638 26.1128 28.8486 24.2189 29.613C24.2049 30.085 24.1979 30.557 24.1979 31.027C24.0847 36.2035 24.9891 41.352 26.8599 46.18C28.1338 49.3464 30.0713 52.2032 32.5419 54.558C34.6658 56.582 37.2193 58.1005 40.0119 59C42.8775 58.0578 45.4902 56.4739 47.6509 54.369C50.0738 52.0002 51.9689 49.1462 53.2119 45.994C55.0287 41.2171 55.9071 36.1346 55.7989 31.025C55.8019 30.557 55.7919 30.085 55.7779 29.612ZM35.8019 33.769C35.8879 33.6357 36.0018 33.5227 36.1359 33.438C36.1359 33.323 36.1409 33.18 36.1539 33.016C35.9766 32.7391 35.8711 32.4223 35.8472 32.0944C35.8233 31.7664 35.8816 31.4377 36.0169 31.138C36.1143 30.7932 36.3198 30.4887 36.6031 30.2695C36.8865 30.0502 37.2327 29.9277 37.5909 29.92C37.7969 29.5508 38.0858 29.2345 38.4349 28.996C38.9862 28.6231 39.6385 28.4284 40.3039 28.438C41.2094 28.4529 42.086 28.759 42.8039 29.311C44.0599 30.237 43.9529 32.29 43.9219 32.663C43.9596 32.9197 43.9793 33.1786 43.9809 33.438C44.1151 33.5226 44.2291 33.6356 44.3149 33.769C44.431 33.98 44.5011 34.2133 44.5207 34.4533C44.5404 34.6934 44.5091 34.9349 44.4289 35.162C44.1479 36.237 43.4919 36.473 43.1419 36.521C42.8437 37.1603 42.4518 37.7515 41.9789 38.275C41.7647 38.4672 41.5164 38.6178 41.2469 38.719C40.4847 39.0204 39.6362 39.0204 38.8739 38.719C38.6044 38.6178 38.3562 38.4673 38.1419 38.275C37.6687 37.7516 37.2764 37.1604 36.9779 36.521C36.6279 36.474 35.9719 36.237 35.6909 35.162C35.6103 34.9351 35.5785 34.6937 35.5977 34.4537C35.6168 34.2136 35.6864 33.9803 35.8019 33.769ZM48.102 45.253C48.102 45.5816 47.9714 45.8967 47.739 46.1291C47.5067 46.3614 47.1915 46.492 46.8629 46.492H33.2549C32.9263 46.492 32.6112 46.3614 32.3788 46.1291C32.1465 45.8967 32.0159 45.5816 32.0159 45.253V43.164C32.0132 42.5826 32.186 42.0139 32.5116 41.5322C32.8371 41.0505 33.3005 40.6782 33.8409 40.464L37.4519 39.02C37.5034 38.9994 37.5584 38.9894 37.6139 38.9905C37.6693 38.9916 37.7239 39.0039 37.7745 39.0266C37.825 39.0492 37.8706 39.0818 37.9083 39.1224C37.946 39.1631 37.9751 39.2109 37.9939 39.263L38.9019 41.773L39.0819 41.256L38.8019 40.571C38.7611 40.476 38.7558 40.3696 38.7869 40.271C38.8145 40.1892 38.8671 40.118 38.9373 40.0676C39.0074 40.0172 39.0916 39.9901 39.1779 39.99H40.9269C41.0234 39.988 41.1177 40.0183 41.1949 40.076C41.2663 40.1313 41.3177 40.2085 41.3411 40.2957C41.3646 40.3829 41.3589 40.4754 41.3249 40.559L41.0389 41.259L41.2189 41.776L42.1269 39.266C42.1458 39.2139 42.1749 39.1661 42.2126 39.1254C42.2503 39.0848 42.2958 39.0522 42.3464 39.0295C42.3969 39.0069 42.4516 38.9946 42.507 38.9935C42.5624 38.9923 42.6175 39.0024 42.6689 39.023L46.2799 40.467C46.8204 40.6812 47.2837 41.0535 47.6093 41.5352C47.9349 42.0169 48.1076 42.5856 48.1049 43.167L48.102 45.253Z" fill="#411512"/>
<defs>
<linearGradient id="paint0_linear" x1="40" y1="-1.19209e-06" x2="80" y2="85.44" gradientUnits="userSpaceOnUse">
<stop stop-color="#D92400"/>
<stop offset="0.527" stop-color="#D90039" stop-opacity="0.098"/>
<stop offset="1" stop-color="#D90039"/>
</linearGradient>
</defs>
</svg>
