<svg width="18" height="19" viewBox="0 0 18 19" fill="none" xmlns="http://www.w3.org/2000/svg">
<path d="M4.43005 15.5923C4.50281 15.647 4.58564 15.6868 4.6738 15.7094C4.76195 15.7321 4.85371 15.7371 4.94381 15.7242C5.03392 15.7114 5.1206 15.6809 5.19891 15.6345C5.27721 15.5881 5.34559 15.5267 5.40015 15.4538C5.81931 14.895 6.36284 14.4413 6.98769 14.1289C7.61254 13.8165 8.30155 13.6538 9.00015 13.6538C9.69875 13.6538 10.3878 13.8165 11.0126 14.1289C11.6375 14.4413 12.181 14.895 12.6002 15.4538C12.6547 15.5266 12.723 15.5879 12.8013 15.6342C12.8795 15.6805 12.9661 15.711 13.0561 15.7238C13.1461 15.7367 13.2377 15.7317 13.3258 15.7091C13.4139 15.6865 13.4966 15.6469 13.5694 15.5923C13.6421 15.5378 13.7034 15.4694 13.7497 15.3912C13.796 15.313 13.8265 15.2264 13.8393 15.1364C13.8522 15.0464 13.8472 14.9547 13.8246 14.8666C13.8021 14.7786 13.7624 14.6958 13.7078 14.6231C13.0948 13.8012 12.2773 13.1541 11.3367 12.7461C11.8522 12.2754 12.2134 11.6599 12.3728 10.9803C12.5322 10.3007 12.4825 9.58884 12.2301 8.93804C11.9777 8.28724 11.5344 7.72795 10.9585 7.33357C10.3825 6.9392 9.70078 6.72816 9.00275 6.72816C8.30471 6.72816 7.62299 6.9392 7.04704 7.33357C6.47109 7.72795 6.02783 8.28724 5.77543 8.93804C5.52303 9.58884 5.47328 10.3007 5.63271 10.9803C5.79214 11.6599 6.15331 12.2754 6.6688 12.7461C5.72626 13.1533 4.90692 13.8005 4.29246 14.6231C4.1822 14.7699 4.13475 14.9544 4.16056 15.1362C4.18636 15.3179 4.2833 15.482 4.43005 15.5923ZM9.00015 8.11539C9.41093 8.11538 9.81248 8.23719 10.154 8.46541C10.4956 8.69362 10.7618 9.018 10.919 9.3975C11.0762 9.77701 11.1173 10.1946 11.0372 10.5975C10.957 11.0004 10.7592 11.3705 10.4688 11.6609C10.1783 11.9514 9.80822 12.1492 9.40534 12.2293C9.00246 12.3095 8.58485 12.2683 8.20535 12.1111C7.82584 11.9539 7.50147 11.6877 7.27325 11.3462C7.04504 11.0046 6.92323 10.6031 6.92323 10.1923C6.92323 9.64147 7.14205 9.1132 7.53154 8.7237C7.92104 8.3342 8.44932 8.11539 9.00015 8.11539ZM15.2309 0.5H2.76938C2.40216 0.5 2.04998 0.645879 1.79031 0.905544C1.53064 1.16521 1.38477 1.51739 1.38477 1.88462V17.1154C1.38477 17.4826 1.53064 17.8348 1.79031 18.0945C2.04998 18.3541 2.40216 18.5 2.76938 18.5H15.2309C15.5981 18.5 15.9503 18.3541 16.21 18.0945C16.4697 17.8348 16.6155 17.4826 16.6155 17.1154V1.88462C16.6155 1.51739 16.4697 1.16521 16.21 0.905544C15.9503 0.645879 15.5981 0.5 15.2309 0.5ZM15.2309 17.1154H2.76938V1.88462H15.2309V17.1154ZM5.53861 3.96154C5.53861 3.77793 5.61155 3.60184 5.74138 3.472C5.87122 3.34217 6.04731 3.26923 6.23092 3.26923H11.7694C11.953 3.26923 12.1291 3.34217 12.2589 3.472C12.3888 3.60184 12.4617 3.77793 12.4617 3.96154C12.4617 4.14515 12.3888 4.32124 12.2589 4.45107C12.1291 4.58091 11.953 4.65385 11.7694 4.65385H6.23092C6.04731 4.65385 5.87122 4.58091 5.74138 4.45107C5.61155 4.32124 5.53861 4.14515 5.53861 3.96154Z" fill="#4D6562"/>
</svg>
