<svg width="24" height="25" viewBox="0 0 24 25" fill="none" xmlns="http://www.w3.org/2000/svg">
<path d="M11.0317 1.03573C11.6342 0.702388 12.3658 0.702389 12.9683 1.03573L21.3606 5.67915C21.9972 6.03139 22.3923 6.70156 22.3923 7.42914V16.5709C22.3923 17.2984 21.9972 17.9686 21.3606 18.3209L12.9683 22.9643C12.3658 23.2976 11.6342 23.2976 11.0317 22.9643L2.63943 18.3209C2.00281 17.9686 1.6077 17.2984 1.6077 16.5709V7.42914C1.6077 6.70156 2.00281 6.03138 2.63944 5.67914L11.0317 1.03573Z" fill="#359D9E"/>
<path d="M19 11.9969L17.4473 10.2702L17.6636 7.98447L15.3664 7.47516L14.1636 5.5L12 6.40683L9.83636 5.5L8.63364 7.47516L6.33636 7.97826L6.55273 10.264L5 11.9969L6.55273 13.7236L6.33636 16.0155L8.63364 16.5248L9.83636 18.5L12 17.587L14.1636 18.4938L15.3664 16.5186L17.6636 16.0093L17.4473 13.7236L19 11.9969ZM10.7273 15.1025L8.18182 12.618L9.07909 11.7422L10.7273 13.3447L14.9209 9.25155L15.8182 10.1335L10.7273 15.1025Z" fill="white"/>
</svg>
