<svg width="32" height="31" viewBox="0 0 32 31" fill="none" xmlns="http://www.w3.org/2000/svg">
<path d="M23.5403 30.4341H8.45944C8.1871 30.4341 7.96582 30.2128 7.96582 29.9404V2.67233C7.96582 2.39999 8.1871 2.17871 8.45944 2.17871H23.5403C23.8126 2.17871 24.0339 2.39999 24.0339 2.67233V29.9404C24.0339 30.2128 23.8126 30.4341 23.5403 30.4341ZM8.95306 29.4468H23.0467V3.16595H8.95306V29.4639V29.4468Z" fill="#359D9E"/>
<path d="M31.5065 28.2214H23.5405C23.2682 28.2214 23.0469 28.0001 23.0469 27.7277V10.6894C23.0469 10.4171 23.2682 10.1958 23.5405 10.1958H31.5065C31.7788 10.1958 32.0001 10.4171 32.0001 10.6894V27.7277C32.0001 28.0001 31.7788 28.2214 31.5065 28.2214ZM24.0341 27.2341H31.0128V11.183H24.0341V27.2511V27.2341Z" fill="#359D9E"/>
<path d="M8.45959 28.2214H0.493618C0.221277 28.2214 0 28.0001 0 27.7277V10.6894C0 10.4171 0.221277 10.1958 0.493618 10.1958H8.45959C8.73193 10.1958 8.9532 10.4171 8.9532 10.6894V27.7277C8.9532 28.0001 8.73193 28.2214 8.45959 28.2214ZM0.987235 27.2341H7.96597V11.183H0.987235V27.2511V27.2341Z" fill="#359D9E"/>
<path d="M16.9873 10.2639H14.9958C14.7235 10.2639 14.5022 10.0426 14.5022 9.77029V8.62986H13.3618C13.0894 8.62986 12.8682 8.40859 12.8682 8.13624V6.14475C12.8682 5.87241 13.0894 5.65113 13.3618 5.65113H14.5022V4.51071C14.5022 4.23837 14.7235 4.01709 14.9958 4.01709H16.9873C17.2597 4.01709 17.4809 4.23837 17.4809 4.51071V5.65113H18.6214C18.8937 5.65113 19.115 5.87241 19.115 6.14475V8.13624C19.115 8.40859 18.8937 8.62986 18.6214 8.62986H17.4809V9.77029C17.4809 10.0426 17.2597 10.2639 16.9873 10.2639ZM15.4894 9.27667H16.4937V8.13624C16.4937 7.8639 16.715 7.64263 16.9873 7.64263H18.1277V6.63837H16.9873C16.715 6.63837 16.4937 6.41709 16.4937 6.14475V5.00433H15.4894V6.14475C15.4894 6.41709 15.2682 6.63837 14.9958 6.63837H13.8554V7.64263H14.9958C15.2682 7.64263 15.4894 7.8639 15.4894 8.13624V9.27667Z" fill="#359D9E"/>
<path d="M24.3236 3.16596H7.67672C7.40438 3.16596 7.18311 2.94468 7.18311 2.67234V0.493618C7.18311 0.221277 7.40438 0 7.67672 0H24.3236C24.5959 0 24.8172 0.221277 24.8172 0.493618V2.67234C24.8172 2.94468 24.5959 3.16596 24.3236 3.16596ZM8.15332 2.17873H23.8299V0.987235H8.15332V2.17873Z" fill="#359D9E"/>
<path d="M19.9317 30.4342H12.0678C11.7955 30.4342 11.5742 30.2129 11.5742 29.9406V21.7363C11.5742 21.464 11.7955 21.2427 12.0678 21.2427H19.9147C20.187 21.2427 20.4083 21.464 20.4083 21.7363V29.9406C20.4083 30.2129 20.187 30.4342 19.9147 30.4342H19.9317ZM12.5615 29.4469H19.4381V22.2129H12.5615V29.4469Z" fill="#359D9E"/>
<path d="M16 25.2256C15.7276 25.2256 15.5063 25.0043 15.5063 24.732V21.7192C15.5063 21.4469 15.7276 21.2256 16 21.2256C16.2723 21.2256 16.4936 21.4469 16.4936 21.7192V24.732C16.4936 25.0043 16.2723 25.2256 16 25.2256Z" fill="#359D9E"/>
<path d="M16 30.4343C15.7276 30.4343 15.5063 30.213 15.5063 29.9407V26.8598C15.5063 26.5875 15.7276 26.3662 16 26.3662C16.2723 26.3662 16.4936 26.5875 16.4936 26.8598V29.9407C16.4936 30.213 16.2723 30.4343 16 30.4343Z" fill="#359D9E"/>
<path d="M6.57002 17.3107H2.38278C2.11044 17.3107 1.88916 17.0895 1.88916 16.8171V13.9746C1.88916 13.7022 2.11044 13.481 2.38278 13.481H6.57002C6.84236 13.481 7.06363 13.7022 7.06363 13.9746V16.8171C7.06363 17.0895 6.84236 17.3107 6.57002 17.3107ZM2.8764 16.3235H6.0764V14.4512H2.8764V16.3235Z" fill="#359D9E"/>
<path d="M6.57002 23.1999H2.38278C2.11044 23.1999 1.88916 22.9786 1.88916 22.7063V19.8637C1.88916 19.5914 2.11044 19.3701 2.38278 19.3701H6.57002C6.84236 19.3701 7.06363 19.5914 7.06363 19.8637V22.7063C7.06363 22.9786 6.84236 23.1999 6.57002 23.1999ZM2.8764 22.2127H6.0764V20.3403H2.8764V22.2127Z" fill="#359D9E"/>
<path d="M29.6169 17.3107H25.4297C25.1573 17.3107 24.936 17.0895 24.936 16.8171V13.9746C24.936 13.7022 25.1573 13.481 25.4297 13.481H29.6169C29.8892 13.481 30.1105 13.7022 30.1105 13.9746V16.8171C30.1105 17.0895 29.8892 17.3107 29.6169 17.3107ZM25.9233 16.3235H29.1233V14.4512H25.9233V16.3235Z" fill="#359D9E"/>
<path d="M29.6169 23.1999H25.4297C25.1573 23.1999 24.936 22.9786 24.936 22.7063V19.8637C24.936 19.5914 25.1573 19.3701 25.4297 19.3701H29.6169C29.8892 19.3701 30.1105 19.5914 30.1105 19.8637V22.7063C30.1105 22.9786 29.8892 23.1999 29.6169 23.1999ZM25.9233 22.2127H29.1233V20.3403H25.9233V22.2127Z" fill="#359D9E"/>
<path d="M12.6976 19.9658H10.2465C9.97421 19.9658 9.75293 19.7445 9.75293 19.4722V16.6977C9.75293 16.4254 9.97421 16.2041 10.2465 16.2041H12.6976C12.97 16.2041 13.1912 16.4254 13.1912 16.6977V19.4722C13.1912 19.7445 12.97 19.9658 12.6976 19.9658ZM10.7402 18.9786H12.221V17.1743H10.7402V18.9786Z" fill="#359D9E"/>
<path d="M17.2254 19.9658H14.7744C14.502 19.9658 14.2808 19.7445 14.2808 19.4722V16.6977C14.2808 16.4254 14.502 16.2041 14.7744 16.2041H17.2254C17.4978 16.2041 17.7191 16.4254 17.7191 16.6977V19.4722C17.7191 19.7445 17.4978 19.9658 17.2254 19.9658ZM15.268 18.9786H16.7488V17.1743H15.268V18.9786Z" fill="#359D9E"/>
<path d="M21.7533 19.9658H19.3022C19.0299 19.9658 18.8086 19.7445 18.8086 19.4722V16.6977C18.8086 16.4254 19.0299 16.2041 19.3022 16.2041H21.7533C22.0256 16.2041 22.2469 16.4254 22.2469 16.6977V19.4722C22.2469 19.7445 22.0256 19.9658 21.7533 19.9658ZM19.7958 18.9786H21.2767V17.1743H19.7958V18.9786Z" fill="#359D9E"/>
<path d="M12.6976 15.2173H10.2465C9.97421 15.2173 9.75293 14.996 9.75293 14.7237V11.9492C9.75293 11.6768 9.97421 11.4556 10.2465 11.4556H12.6976C12.97 11.4556 13.1912 11.6768 13.1912 11.9492V14.7237C13.1912 14.996 12.97 15.2173 12.6976 15.2173ZM10.7402 14.23H12.221V12.4258H10.7402V14.23Z" fill="#359D9E"/>
<path d="M17.2254 15.2173H14.7744C14.502 15.2173 14.2808 14.996 14.2808 14.7237V11.9492C14.2808 11.6768 14.502 11.4556 14.7744 11.4556H17.2254C17.4978 11.4556 17.7191 11.6768 17.7191 11.9492V14.7237C17.7191 14.996 17.4978 15.2173 17.2254 15.2173ZM15.268 14.23H16.7488V12.4258H15.268V14.23Z" fill="#359D9E"/>
<path d="M21.7533 15.2173H19.3022C19.0299 15.2173 18.8086 14.996 18.8086 14.7237V11.9492C18.8086 11.6768 19.0299 11.4556 19.3022 11.4556H21.7533C22.0256 11.4556 22.2469 11.6768 22.2469 11.9492V14.7237C22.2469 14.996 22.0256 15.2173 21.7533 15.2173ZM19.7958 14.23H21.2767V12.4258H19.7958V14.23Z" fill="#359D9E"/>
<path d="M28.3066 30.434H3.69381C3.42147 30.434 3.2002 30.2127 3.2002 29.9404C3.2002 29.6681 3.42147 29.4468 3.69381 29.4468H28.3236C28.596 29.4468 28.8172 29.6681 28.8172 29.9404C28.8172 30.2127 28.596 30.434 28.3236 30.434H28.3066Z" fill="#359D9E"/>
</svg>
