<svg width="32" height="32" viewBox="0 0 32 32" fill="none" xmlns="http://www.w3.org/2000/svg">
<path opacity="0.4" d="M15.9993 29.3333C23.3631 29.3333 29.3327 23.3638 29.3327 16C29.3327 8.63616 23.3631 2.66663 15.9993 2.66663C8.63555 2.66663 2.66602 8.63616 2.66602 16C2.66602 23.3638 8.63555 29.3333 15.9993 29.3333Z" fill="#3939A3"/>
<path d="M20.9462 21.24C20.7729 21.24 20.5995 21.2 20.4395 21.0933L16.3062 18.6266C15.2795 18.0133 14.5195 16.6666 14.5195 15.48V10.0133C14.5195 9.46664 14.9729 9.01331 15.5195 9.01331C16.0662 9.01331 16.5195 9.46664 16.5195 10.0133V15.48C16.5195 15.96 16.9195 16.6666 17.3329 16.9066L21.4662 19.3733C21.9462 19.6533 22.0929 20.2666 21.8129 20.7466C21.6129 21.0666 21.2795 21.24 20.9462 21.24Z" fill="#3939A3"/>
</svg>
