<svg width="25" height="24" viewBox="0 0 25 24" fill="none" xmlns="http://www.w3.org/2000/svg">
<path opacity="0.2" d="M12.875 22C18.3978 22 22.875 17.5228 22.875 12C22.875 6.47715 18.3978 2 12.875 2C7.35215 2 2.875 6.47715 2.875 12C2.875 17.5228 7.35215 22 12.875 22Z" fill="#CB0101"/>
<path d="M13.9354 11.9999L16.2354 9.69986C16.5254 9.40986 16.5254 8.92986 16.2354 8.63986C15.9454 8.34986 15.4654 8.34986 15.1754 8.63986L12.8754 10.9399L10.5754 8.63986C10.2854 8.34986 9.80535 8.34986 9.51535 8.63986C9.22535 8.92986 9.22535 9.40986 9.51535 9.69986L11.8154 11.9999L9.51535 14.2999C9.22535 14.5899 9.22535 15.0699 9.51535 15.3599C9.66535 15.5099 9.85535 15.5799 10.0454 15.5799C10.2354 15.5799 10.4254 15.5099 10.5754 15.3599L12.8754 13.0599L15.1754 15.3599C15.3254 15.5099 15.5154 15.5799 15.7054 15.5799C15.8954 15.5799 16.0854 15.5099 16.2354 15.3599C16.5254 15.0699 16.5254 14.5899 16.2354 14.2999L13.9354 11.9999Z" fill="#CB0101"/>
</svg>
