<svg width="125" height="125" viewBox="0 0 125 125" fill="none" xmlns="http://www.w3.org/2000/svg">
<rect width="125" height="125" rx="62.5" fill="#F8F8F8"/>
<circle cx="62" cy="62" r="44" fill="white"/>
<path d="M60.1786 112C60.0891 112 59.9907 112 59.9012 111.991C58.1469 111.91 56.5001 111.105 55.3635 109.762C54.1015 108.268 52.0071 107.856 50.2708 108.76C48.7135 109.574 46.8787 109.7 45.2319 109.109C43.5851 108.518 42.2425 107.256 41.5534 105.645C40.7837 103.846 38.9041 102.835 36.9888 103.193C35.2614 103.506 33.4714 103.086 32.0662 102.038C30.661 100.991 29.7571 99.3892 29.5691 97.6439C29.3633 95.7017 27.8686 94.1802 25.9264 93.9475C24.1901 93.7417 22.597 92.8108 21.5677 91.3967C20.5384 89.9826 20.1446 88.1836 20.4847 86.4652C20.8606 84.5499 19.8851 82.6524 18.095 81.8648C16.493 81.1488 15.2489 79.7973 14.685 78.1326C14.1212 76.4768 14.2733 74.642 15.0967 73.0937C16.0276 71.3752 15.6427 69.272 14.1659 67.9921C12.8413 66.8375 12.0537 65.1817 12 63.4275C11.9463 61.6733 12.6355 59.9638 13.8795 58.7376C15.2757 57.3683 15.5263 55.2471 14.4971 53.5913C13.5752 52.1056 13.3067 50.2797 13.7721 48.5882C14.2465 46.9055 15.401 45.4735 16.9584 44.668C18.6947 43.773 19.5629 41.8219 19.0617 39.9334C18.6141 38.2418 18.9006 36.416 19.8493 34.9392C20.789 33.4624 22.3195 32.4332 24.0469 32.1288C25.9712 31.7798 27.3763 30.1777 27.4569 28.2176C27.5285 26.4634 28.343 24.8076 29.6765 23.6799C31.0101 22.5432 32.7822 22.0152 34.5186 22.23C36.4607 22.4627 38.2687 21.3439 38.931 19.5002C39.5217 17.8534 40.7747 16.5019 42.3947 15.8127C44.0057 15.1236 45.8494 15.1325 47.4515 15.8485C49.2416 16.6451 51.3001 16.1081 52.4726 14.5418C53.5197 13.1366 55.1218 12.2237 56.8671 12.0447C58.6124 11.8568 60.3666 12.4206 61.6823 13.5752C63.1501 14.864 65.2802 14.9535 66.8644 13.8079C68.2785 12.7786 70.0775 12.3759 71.7959 12.716C73.5144 13.0561 75.0269 14.1033 75.9488 15.5979C76.9781 17.2627 78.9829 17.9787 80.8356 17.3432C82.4914 16.7704 84.3261 16.9225 85.8745 17.7549C87.4229 18.5873 88.5595 20.0372 88.9981 21.7288C89.4904 23.6262 91.1909 24.8971 93.151 24.8345C94.8963 24.7808 96.6147 25.461 97.8409 26.7051C99.076 27.9491 99.7293 29.6765 99.6488 31.4218C99.5593 33.3729 100.812 35.1003 102.701 35.6194C104.392 36.0848 105.824 37.2394 106.63 38.7967C107.435 40.354 107.561 42.1888 106.97 43.8356C106.308 45.6794 106.997 47.6932 108.653 48.7403C110.129 49.6801 111.159 51.2106 111.472 52.929C111.785 54.6564 111.365 56.4464 110.308 57.8516C109.136 59.4178 109.199 61.548 110.47 63.0337C111.606 64.3673 112.134 66.1305 111.928 67.8757C111.723 69.6121 110.783 71.2052 109.369 72.2345L108.733 71.3573L109.369 72.2345C107.784 73.3801 107.221 75.4386 107.99 77.2376C108.679 78.8486 108.671 80.6923 107.963 82.2944C107.247 83.8965 105.896 85.1406 104.231 85.7044C102.379 86.3309 101.233 88.1299 101.439 90.081C101.627 91.8263 101.072 93.5806 99.9173 94.9052C98.7627 96.2298 97.098 97.0085 95.3438 97.0622C93.3926 97.1159 91.7637 98.5031 91.3878 100.418C91.0566 102.137 90.0095 103.658 88.5148 104.58C87.0201 105.502 85.2032 105.762 83.5117 105.296C81.6232 104.777 79.6631 105.61 78.7412 107.337C77.9178 108.885 76.4679 110.022 74.7674 110.461C73.0668 110.899 71.25 110.613 69.7732 109.673C68.1264 108.617 66.0052 108.841 64.6179 110.219C63.4365 111.347 61.8344 112 60.1786 112ZM52.213 106.129C54.012 106.129 55.7752 106.907 57.0103 108.375C57.7621 109.27 58.8272 109.789 59.9996 109.843C61.1721 109.897 62.273 109.467 63.1053 108.644C65.2176 106.549 68.4396 106.209 70.9457 107.811C71.9302 108.438 73.0937 108.626 74.2304 108.33C75.367 108.035 76.2889 107.301 76.8438 106.272C78.249 103.649 81.2294 102.379 84.0845 103.166C85.2122 103.479 86.3847 103.309 87.3781 102.692C88.3716 102.074 89.0429 101.108 89.2666 99.9531C89.8305 97.0353 92.3007 94.941 95.2722 94.8515C96.4446 94.8157 97.5097 94.3145 98.2794 93.4284C99.0491 92.5423 99.4071 91.4236 99.2818 90.2601C98.9686 87.3065 100.705 84.5767 103.524 83.619C104.634 83.2431 105.502 82.4466 105.977 81.3726C106.451 80.3075 106.46 79.1261 105.994 78.0431C104.822 75.3133 105.681 72.1897 108.089 70.4444C109.037 69.7553 109.637 68.7349 109.771 67.5804C109.915 66.4169 109.566 65.2891 108.814 64.3941C106.889 62.1297 106.791 58.8898 108.572 56.518C109.279 55.5782 109.548 54.4326 109.333 53.278C109.127 52.1235 108.465 51.1479 107.48 50.5214C104.974 48.9283 103.927 45.8584 104.929 43.0659C105.323 41.9651 105.243 40.7836 104.706 39.7454C104.169 38.7072 103.247 37.9643 102.119 37.66C99.255 36.8724 97.3486 34.259 97.4828 31.2875C97.5366 30.1151 97.1159 29.0142 96.2925 28.1818C95.4691 27.3495 94.3682 26.902 93.2047 26.9467C90.2332 27.0273 87.6377 25.103 86.8948 22.221C86.5995 21.0844 85.8745 20.1625 84.8452 19.6076C83.816 19.0527 82.6346 18.9542 81.5337 19.3391C78.7233 20.3057 75.6713 19.2138 74.114 16.6898C73.4965 15.6964 72.5298 15.0251 71.3842 14.7924C70.2386 14.5687 69.084 14.8193 68.1353 15.5084C65.7367 17.2627 62.4967 17.1195 60.2592 15.1594C59.3821 14.3897 58.2543 14.0317 57.0908 14.157C55.9273 14.2823 54.898 14.864 54.1999 15.8038C52.4189 18.1845 49.2863 18.999 46.5744 17.7907C45.5093 17.3164 44.3279 17.3074 43.245 17.7639C42.1709 18.2203 41.3565 19.0885 40.9716 20.1894C39.9781 22.9907 37.2215 24.6913 34.268 24.3333C33.1044 24.1901 31.9767 24.5302 31.0817 25.2909C30.1867 26.0517 29.6676 27.1078 29.6228 28.2803C29.4975 31.2517 27.3674 33.6862 24.4407 34.2142C23.2861 34.4201 22.3106 35.0824 21.6751 36.0669C21.0486 37.0514 20.8606 38.2239 21.156 39.3516C21.9078 42.2246 20.5921 45.1871 17.9518 46.5565C16.9136 47.0935 16.1708 48.0154 15.8575 49.1431C15.5442 50.2708 15.7143 51.4433 16.3319 52.4367C17.8981 54.9607 17.5133 58.1827 15.3921 60.2592C14.5597 61.0826 14.1212 62.1745 14.157 63.347C14.1928 64.5194 14.7029 65.5845 15.58 66.3542C17.8265 68.3053 18.3993 71.4916 16.9942 74.105C16.4393 75.1343 16.3408 76.3157 16.7167 77.4166C17.0926 78.5264 17.8981 79.3946 18.9632 79.8689C21.684 81.0683 23.1787 83.9502 22.597 86.859C22.3732 88.0046 22.6238 89.1592 23.313 90.1079C24.0021 91.0566 25.0225 91.6473 26.186 91.7905C29.1395 92.1396 31.4129 94.4487 31.7172 97.4023C31.8425 98.5658 32.4242 99.5951 33.355 100.293C34.2948 100.991 35.4404 101.269 36.595 101.054C39.5127 100.517 42.3678 102.047 43.5403 104.786C43.9968 105.86 44.856 106.675 45.9568 107.068C47.0577 107.462 48.2391 107.382 49.2774 106.836C50.2171 106.37 51.2195 106.129 52.213 106.129Z" fill="#6C41BF"/>
<circle cx="61.5" cy="61.5" r="37.25" stroke="#6C41BF" stroke-width="2.5"/>
<circle cx="40" cy="31" r="4" fill="#6C41BF"/>
<circle cx="83" cy="92" r="4" fill="#6C41BF"/>
<path d="M89.2944 51.0529L89.2931 51.0422L89.2916 51.0344C89.2914 51.0334 89.2912 51.0317 89.291 51.029L89.2908 51.0276C89.2898 51.0187 89.2877 50.9986 89.2831 50.9757L89.2835 50.9756L89.2801 50.9619C89.2641 50.897 89.2321 50.8353 89.2215 50.8148C89.2212 50.8143 89.2209 50.8138 89.2207 50.8133L89.2187 50.8083C89.2167 50.8031 89.2126 50.7927 89.207 50.7808C89.2014 50.7687 89.1928 50.7518 89.1805 50.7331L89.1807 50.733L89.1751 50.7252C89.1358 50.6693 89.0864 50.6254 89.0607 50.6032C89.0579 50.5999 89.0544 50.5959 89.0503 50.5916C89.0391 50.5797 89.0194 50.5602 88.9917 50.5414L88.9903 50.5405L63.9857 33.8186L63.9708 33.8086L63.9548 33.8004C63.9321 33.7889 63.911 33.7809 63.9035 33.7781L63.9021 33.7776C63.9021 33.7776 63.902 33.7775 63.9019 33.7775L63.8952 33.774L63.8943 33.7735C63.8893 33.7708 63.8818 33.7669 63.8741 33.763C63.857 33.7543 63.832 33.7423 63.801 33.7318C63.7643 33.7194 63.7329 33.7141 63.7125 33.7113L63.692 33.7087C63.6897 33.7084 63.6886 33.7083 63.6881 33.7082C63.6879 33.7082 63.6878 33.7082 63.6878 33.7082L63.6631 33.704H63.638C63.6374 33.704 63.6349 33.7038 63.6274 33.7032L63.6252 33.703C63.6151 33.702 63.5924 33.7 63.5671 33.7C63.5035 33.7 63.4489 33.7146 63.418 33.7245L63.4167 33.7247C63.4029 33.727 63.3655 33.7334 63.3226 33.7523L42.0773 42.3042C42.0295 42.3216 41.9923 42.3443 41.9672 42.3613C41.9538 42.3704 41.9421 42.3791 41.9341 42.385L41.9169 42.3979L41.8968 42.4125L41.8877 42.4217C41.842 42.4596 41.808 42.4994 41.7821 42.5331C41.7677 42.5489 41.7452 42.5768 41.726 42.6143C41.7035 42.6527 41.6868 42.6918 41.6746 42.7287C41.6727 42.7323 41.6708 42.7363 41.6688 42.7403C41.6613 42.7561 41.6515 42.7795 41.6443 42.8088L41.6443 42.8088L41.6435 42.8121L34.7164 72.3832L34.7085 72.417V72.4324C34.7082 72.4353 34.7079 72.438 34.7077 72.4406C34.7072 72.4475 34.7069 72.454 34.7067 72.4595L34.7063 72.463L34.7057 72.4686C34.7018 72.5037 34.6932 72.5794 34.7102 72.6655L34.7099 72.6655L34.7132 72.6792C34.7164 72.6921 34.7195 72.7031 34.7214 72.7099L34.7217 72.7107L34.725 72.7232L34.7263 72.7281C34.7337 72.7584 34.7482 72.818 34.7787 72.8799C34.7957 72.9143 34.8146 72.9397 34.8249 72.953L34.8361 72.9671C34.8366 72.9678 34.837 72.9683 34.8373 72.9687C34.8579 72.9976 34.8841 73.0312 34.9178 73.0643C34.9183 73.0649 34.9188 73.0655 34.9193 73.0661C34.9243 73.0723 34.9313 73.0806 34.9403 73.0897L34.9525 73.1021L34.9661 73.113L57.3846 91.1425C57.45 91.1982 57.5262 91.2311 57.5528 91.2425C57.5543 91.2432 57.5557 91.2438 57.5569 91.2443C57.563 91.2472 57.5681 91.2494 57.5716 91.2509L57.5818 91.2551L57.598 91.2634L57.6231 91.271C57.6809 91.2886 57.7508 91.304 57.8325 91.304C57.8475 91.304 57.8973 91.305 57.9513 91.294L57.9584 91.2926L57.9654 91.2908C57.9865 91.2854 58.0048 91.2788 58.0184 91.2732C58.0365 91.2697 58.0669 91.2626 58.1006 91.2477L84.6811 80.5488C84.706 80.5393 84.7255 80.5284 84.7385 80.5204C84.7474 80.515 84.7553 80.5096 84.7615 80.5051C84.78 80.4966 84.8076 80.4823 84.8372 80.4597L84.8542 80.4468L84.8692 80.4316L84.8698 80.4309C84.913 80.3951 84.9803 80.3342 85.0287 80.2485C85.0751 80.172 85.1009 80.0929 85.1143 80.0167C85.1149 80.0146 85.1155 80.0122 85.1161 80.0095C85.1174 80.0043 85.1187 79.9981 85.1199 79.9912C85.1208 79.9865 85.1216 79.9809 85.1224 79.9747L89.2896 51.2446L89.2927 51.2232V51.2181C89.3069 51.1434 89.2983 51.0814 89.2952 51.0585C89.2949 51.0563 89.2946 51.0544 89.2944 51.0529ZM34.7065 72.4741C34.7065 72.4764 34.7064 72.4756 34.7065 72.4725C34.7065 72.4731 34.7065 72.4735 34.7065 72.4738L34.7065 72.4741ZM57.9906 91.2778L57.9908 91.2778L57.9906 91.2778ZM84.7381 80.5154L84.7394 80.5148C84.7377 80.5156 84.737 80.5159 84.7381 80.5154ZM85.1077 80.0388L85.1082 80.0374C85.1078 80.0388 85.1074 80.0399 85.1077 80.0388ZM63.4324 33.7222C63.433 33.7221 63.433 33.7221 63.4326 33.7222L63.4324 33.7222ZM84.7842 80.4879C84.7848 80.4874 84.7847 80.4875 84.7841 80.4879L84.7842 80.4879ZM68.1901 40.4111L65.9717 36.8721L85.0593 49.6427L73.1358 47.0556L72.2281 46.8586L68.1901 40.4112L68.1901 40.4111ZM43.5531 61.8818L43.5531 61.8817L45.3499 59.2483L62.2691 72.8532L62.2692 72.8533L66.6581 76.3843L57.6849 89.5436L36.373 72.4036L43.5531 61.8818ZM87.7898 51.7032L83.83 79.0125L68.4186 75.6748L69.756 66.4558L72.3783 48.3655L87.7898 51.7032ZM44.4399 58.0412L36.978 68.9827L42.2577 46.4246L44.4399 58.0412ZM63.3045 35.3072L70.7267 47.1524L58.2283 52.1861L58.2282 52.1862L45.7367 57.2132L43.1457 43.4187L63.3045 35.3072ZM46.6002 58.4146L70.9056 48.6331L67.0926 74.8941L56.8516 66.6585L46.6002 58.4146ZM59.755 89.0338L67.936 77.04L81.9882 80.0837L59.755 89.0338Z" fill="#333333" stroke="#333333" stroke-width="0.6"/>
</svg>
