<svg width="350" height="310" viewBox="0 0 350 310" fill="none" xmlns="http://www.w3.org/2000/svg">
<path d="M23.3587 260.431H147.684C149.246 260.439 150.793 260.129 152.231 259.521C153.669 258.912 154.969 258.018 156.051 256.892C157.133 255.766 157.976 254.432 158.527 252.971C159.078 251.51 159.326 249.952 159.257 248.392L150.127 12.377C149.972 9.15524 148.592 6.11439 146.27 3.87641C143.947 1.63843 140.857 0.372452 137.632 0.33741H13.3058C11.7442 0.329997 10.1974 0.639908 8.75914 1.24834C7.32091 1.85677 6.02127 2.75103 4.93907 3.87688C3.85687 5.00273 3.01466 6.3367 2.46355 7.79785C1.91245 9.25901 1.66393 10.8169 1.73306 12.377L10.8632 248.392C11.018 251.614 12.3979 254.654 14.7207 256.892C17.0434 259.13 20.1334 260.396 23.3587 260.431Z" fill="#CB0101"/>
<path d="M1.81469 92.0016L2.57422 111.506L1.38093 111.553L0.621403 92.048L1.81469 92.0016Z" fill="#CB0101"/>
<path d="M1.19352 76.8169L1.50879 84.877L0.315524 84.9236L0.00025239 76.8636L1.19352 76.8169Z" fill="#CB0101"/>
<path opacity="0.8" d="M23.3587 260.431H147.684C149.246 260.439 150.793 260.129 152.231 259.521C153.669 258.912 154.969 258.018 156.051 256.892C157.133 255.766 157.976 254.432 158.527 252.971C159.078 251.51 159.326 249.952 159.257 248.392L150.127 12.377C149.972 9.15524 148.592 6.11439 146.27 3.87641C143.947 1.63843 140.857 0.372452 137.632 0.33741H13.3058C11.7442 0.329997 10.1974 0.639908 8.75914 1.24834C7.32091 1.85677 6.02127 2.75103 4.93907 3.87688C3.85687 5.00273 3.01466 6.3367 2.46355 7.79785C1.91245 9.25901 1.66393 10.8169 1.73306 12.377L10.8632 248.392C11.018 251.614 12.3979 254.654 14.7207 256.892C17.0434 259.13 20.1334 260.396 23.3587 260.431Z" fill="white"/>
<path d="M35.2564 255.644H144.905C146.273 255.649 147.629 255.377 148.89 254.844C150.15 254.31 151.289 253.527 152.238 252.54C153.187 251.554 153.926 250.385 154.41 249.105C154.895 247.824 155.114 246.459 155.055 245.091L146.511 24.0582C146.373 21.2331 145.161 18.5674 143.123 16.6061C141.085 14.6447 138.375 13.5358 135.546 13.506H25.8983C24.5291 13.4988 23.1727 13.7698 21.9113 14.3027C20.6501 14.8357 19.5102 15.6193 18.5609 16.6061C17.6117 17.5929 16.8729 18.7623 16.3893 20.0434C15.9057 21.3244 15.6874 22.6903 15.7477 24.0582L24.2916 245.091C24.4324 247.916 25.6452 250.58 27.6826 252.541C29.7201 254.502 32.4288 255.611 35.2564 255.644Z" fill="#CB0101"/>
<path opacity="0.8" d="M84.4589 243.127C81.557 240.281 81.4238 235.711 84.1613 232.92C86.8989 230.129 91.4706 230.175 94.3725 233.022C97.2745 235.868 97.4077 240.438 94.6701 243.229C91.9326 246.02 87.3608 245.974 84.4589 243.127Z" fill="white"/>
<path d="M87.4642 187.792C93.2545 187.831 98.992 186.69 104.327 184.439C109.662 182.188 114.482 178.874 118.495 174.699C122.507 170.524 125.627 165.576 127.665 160.155C129.702 154.735 130.615 148.957 130.346 143.173L128.881 105.122H128.957C129.386 105.12 129.814 105.084 130.238 105.013L131.714 143.173C131.989 149.133 131.046 155.087 128.945 160.672C126.844 166.256 123.628 171.354 119.494 175.656C115.359 179.957 110.391 183.372 104.894 185.692C99.3969 188.012 93.485 189.188 87.5185 189.149C74.8729 189.093 62.7675 184.016 53.8641 175.036C54.1876 174.708 54.4717 174.344 54.7109 173.95C58.9878 178.304 64.0835 181.768 69.7048 184.143C75.326 186.519 81.3617 187.759 87.4642 187.792Z" fill="white"/>
<path d="M82.2093 51.7526C105.474 51.7526 125.417 69.1226 129.304 91.5842C129.014 91.5673 128.724 91.5673 128.435 91.5842C128.261 91.5842 128.099 91.5842 127.925 91.5842C124.082 69.8717 104.769 53.1313 82.2636 53.1313C76.4724 53.0912 70.7337 54.2311 65.3975 56.4815C60.0613 58.7319 55.2394 62.0457 51.2258 66.2208C47.2123 70.3958 44.0912 75.3446 42.053 80.7654C40.0147 86.1862 39.102 91.9654 39.3705 97.7505L41.1292 143.195C41.4142 150.292 43.3509 157.224 46.7853 163.442C46.354 163.567 45.9413 163.749 45.5586 163.985C42.0415 157.598 40.0603 150.48 39.7722 143.195L38.0135 97.7505C37.7346 91.788 38.6734 85.8313 40.7725 80.2435C42.8715 74.6558 46.0869 69.5543 50.2224 65.2501C54.358 60.9459 59.327 57.5293 64.8265 55.2087C70.3259 52.8881 76.2404 51.7122 82.2093 51.7526Z" fill="white"/>
<path d="M82.5685 61.0453C75.2533 61.0275 68.0893 63.1277 61.9416 67.0923C61.747 66.6716 61.5106 66.2715 61.236 65.8981C67.5958 61.8157 75.0004 59.6592 82.5577 59.6883C91.1093 59.7158 99.4462 62.3685 106.441 67.2877C106.202 67.6716 106.001 68.079 105.844 68.5036C99.0429 63.6717 90.9114 61.0662 82.5685 61.0453Z" fill="white"/>
<path d="M124.583 147.537C124.92 145.212 125.044 142.861 124.952 140.513L123.4 100.345C123.061 92.0648 120.189 84.0881 115.171 77.4927C115.559 77.2967 115.923 77.0563 116.256 76.7762C121.424 83.5814 124.379 91.8076 124.724 100.345L126.277 140.513C126.372 142.97 126.241 145.43 125.886 147.863C125.463 147.712 125.027 147.603 124.583 147.537Z" fill="white"/>
<path d="M51.4461 74.9089C51.7748 75.2439 52.1388 75.5424 52.5317 75.7991C47.1507 82.8352 44.4146 91.5392 44.8021 100.389L46.3545 140.557C46.8506 151.085 51.3574 161.024 58.9501 168.334C66.5428 175.644 76.6455 179.771 87.1849 179.867C95.5522 179.905 103.696 177.168 110.341 172.083C110.73 172.385 111.152 172.64 111.601 172.843C104.661 178.31 96.0735 181.264 87.2392 181.224C76.3355 181.125 65.8834 176.856 58.028 169.294C50.1727 161.731 45.5102 151.449 44.9975 140.557L43.445 100.389C43.0374 91.2193 45.87 82.1992 51.4461 74.9089Z" fill="white"/>
<path d="M118.71 116.315L118.2 103.048C117.77 93.9422 113.872 85.3458 107.305 79.0231C100.738 72.7003 92.0003 69.1306 82.8846 69.0464C75.2108 68.9898 67.7652 71.6548 61.8701 76.568C55.9751 81.4812 52.0121 88.3246 50.685 95.883C50.2406 95.8042 49.7901 95.7642 49.3388 95.7636C50.6882 87.8679 54.8009 80.7092 60.9421 75.5663C67.0833 70.4234 74.8529 67.6315 82.8629 67.6894C92.3437 67.7733 101.433 71.4843 108.263 78.0601C115.093 84.6359 119.146 93.5774 119.59 103.048L120.078 116.412C119.765 116.374 119.449 116.352 119.134 116.347L118.71 116.315Z" fill="white"/>
<path d="M72.7 168.805C77.1368 170.805 81.9464 171.845 86.8132 171.855C91.2334 171.897 95.6158 171.037 99.6921 169.327C103.768 167.617 107.453 165.093 110.521 161.911C113.589 158.728 115.975 154.953 117.534 150.817C119.093 146.68 119.792 142.269 119.588 137.854L119.273 129.863H119.697C120.009 129.864 120.321 129.843 120.63 129.798L120.945 137.832C121.158 142.416 120.434 146.996 118.819 151.291C117.203 155.587 114.73 159.509 111.55 162.817C108.369 166.126 104.548 168.752 100.32 170.535C96.091 172.319 91.5435 173.222 86.9543 173.191C81.8029 173.185 76.7126 172.074 72.027 169.934C72.2942 169.585 72.5201 169.206 72.7 168.805Z" fill="white"/>
<path d="M49.859 109.356C50.0545 109.356 50.2499 109.356 50.4344 109.356L51.52 137.886C51.8914 146.557 55.4476 154.786 61.5078 160.999C61.2361 161.37 61.0067 161.771 60.8239 162.193C54.3573 155.708 50.5539 147.036 50.163 137.886L49.0774 109.345C49.3271 109.334 49.5876 109.356 49.859 109.356Z" fill="white"/>
<path d="M71.0184 78.2527C74.8259 76.5344 78.9567 75.6497 83.134 75.658C91.1923 75.7295 98.9175 78.8831 104.724 84.4713C110.53 90.0595 113.977 97.6584 114.357 105.708L115.496 135.183C115.558 136.92 115.471 138.66 115.236 140.383C114.84 140.023 114.407 139.706 113.944 139.438C114.119 138.027 114.184 136.604 114.139 135.183L113 105.708C112.636 98.0224 109.345 90.7671 103.802 85.4313C98.258 80.0956 90.8823 77.0841 83.1882 77.015C79.2372 77.0205 75.3327 77.868 71.7349 79.5011C71.5367 79.063 71.2967 78.6449 71.0184 78.2527Z" fill="white"/>
<path d="M60.5742 86.3622C60.838 86.7529 61.1398 87.1165 61.4753 87.4478C57.3928 92.6341 55.3085 99.1141 55.602 105.708L56.7419 135.183C57.0985 142.646 60.2172 149.711 65.4918 155.004C70.7665 160.297 77.8205 163.439 85.283 163.821C85.4248 164.307 85.6177 164.777 85.8584 165.222C77.9286 164.976 70.3841 161.745 64.734 156.175C59.0839 150.606 55.7449 143.108 55.3849 135.183L54.245 105.708C53.9338 98.7045 56.1837 91.8274 60.5742 86.3622Z" fill="white"/>
<path d="M88.8766 85.6134C88.8549 85.1379 88.7895 84.6655 88.6812 84.2021C92.1483 84.9542 95.4229 86.4141 98.2998 88.4903C97.8809 88.7035 97.4936 88.9739 97.149 89.2936C94.6478 87.5571 91.8411 86.3085 88.8766 85.6134Z" fill="white"/>
<path d="M63.0061 138.592C64.5337 143.578 67.6083 147.949 71.785 151.072C75.9617 154.194 81.0237 155.907 86.2385 155.962C89.279 155.983 92.2918 155.384 95.093 154.201C97.8941 153.019 100.425 151.277 102.53 149.084C104.635 146.89 106.271 144.29 107.338 141.442C108.404 138.595 108.879 135.56 108.733 132.523L107.799 108.368C107.683 105.513 107.05 102.703 105.932 100.074C106.319 99.7597 106.663 99.3945 106.952 98.9881C108.266 101.937 109.003 105.11 109.123 108.335L110.057 132.49C110.205 135.7 109.697 138.905 108.566 141.912C107.434 144.918 105.703 147.663 103.476 149.979C101.25 152.295 98.5752 154.133 95.6154 155.382C92.6556 156.631 89.4726 157.264 86.2602 157.243C80.7371 157.18 75.3767 155.364 70.9531 152.057C66.5294 148.749 63.2712 144.121 61.6491 138.841C62.1081 138.799 62.5623 138.716 63.0061 138.592Z" fill="white"/>
<path d="M60.9637 108.368L61.1591 113.383C60.8005 113.319 60.4376 113.283 60.0734 113.275H59.7803L59.5958 108.335C59.3819 103.207 60.8439 98.1494 63.7604 93.9263C66.677 89.7033 70.8895 86.545 75.7607 84.9291C75.7175 85.413 75.7175 85.8999 75.7607 86.3838C71.2684 87.9853 67.4076 90.9843 64.7445 94.9407C62.0814 98.8972 60.7564 103.603 60.9637 108.368Z" fill="white"/>
<path d="M83.7622 91.5841C88.9761 91.6338 93.9732 93.6772 97.7281 97.2948C101.483 100.912 103.711 105.83 103.955 111.038L104.161 116.401C103.707 116.431 103.257 116.5 102.815 116.608L102.598 111.038C102.37 106.186 100.29 101.605 96.7856 98.2403C93.2814 94.8755 88.6202 92.9827 83.7622 92.952C81.4165 92.9392 79.0927 93.4037 76.9322 94.3174C74.7717 95.231 72.8196 96.5747 71.1948 98.2666C69.5699 99.9584 68.3063 101.963 67.4806 104.159C66.655 106.354 66.2847 108.695 66.3922 111.038L67.1196 129.863C67.3238 134.101 68.9392 138.15 71.709 141.364C74.4787 144.578 78.2438 146.774 82.4052 147.602C82.3563 148.057 82.3563 148.516 82.4052 148.97C77.8846 148.123 73.7818 145.776 70.7598 142.309C67.7379 138.842 65.9735 134.457 65.7517 129.863L65.0243 111.038C64.9077 108.513 65.3071 105.991 66.1982 103.625C67.0893 101.259 68.4534 99.1 70.2071 97.2792C71.9608 95.4584 74.0673 94.0143 76.3979 93.0351C78.7286 92.0559 81.2343 91.5622 83.7622 91.5841Z" fill="white"/>
<path d="M96.4425 107.543C96.1605 107.526 95.8777 107.526 95.5957 107.543C94.4265 105.529 92.752 103.854 90.7377 102.685C88.7233 101.516 86.4388 100.893 84.1098 100.877C82.6896 100.877 81.2798 101.12 79.941 101.594C79.7892 101.16 79.5966 100.742 79.3656 100.345C80.8681 99.7947 82.4554 99.5118 84.0555 99.5092C86.7508 99.5372 89.3876 100.299 91.6828 101.712C93.978 103.126 95.8448 105.138 97.083 107.532C96.8695 107.525 96.6557 107.528 96.4425 107.543Z" fill="white"/>
<path d="M72.3428 127.203C72.4138 128.757 72.7593 130.286 73.3633 131.719C72.9405 131.876 72.5421 132.092 72.1799 132.36C71.4689 130.729 71.0641 128.981 70.9858 127.203L70.4646 113.698C70.4235 112.438 70.5513 111.179 70.8446 109.953C71.2542 110.169 71.6878 110.337 72.1365 110.452C71.887 111.519 71.7811 112.614 71.8217 113.709L72.3428 127.203Z" fill="white"/>
<path d="M82.6791 139.623C83.6532 139.858 84.6515 139.979 85.6537 139.981C87.3071 139.985 88.9439 139.652 90.465 139.004C91.9861 138.356 93.3598 137.406 94.5028 136.211C95.6457 135.016 96.5342 133.602 97.1143 132.053C97.6945 130.505 97.9542 128.855 97.8778 127.204L97.639 121.091C98.0947 121.052 98.5455 120.968 98.9851 120.842L99.2348 127.204C99.3158 129.034 99.0236 130.863 98.376 132.577C97.7283 134.292 96.7387 135.857 95.4673 137.177C94.196 138.497 92.6694 139.545 90.9805 140.256C89.2916 140.968 87.4755 141.329 85.6428 141.317C84.5051 141.313 83.3718 141.174 82.2665 140.904C82.4412 140.49 82.5793 140.061 82.6791 139.623Z" fill="white"/>
<path d="M84.3709 107.521C86.7457 107.549 89.0193 108.487 90.7237 110.141C92.4282 111.795 93.4338 114.039 93.5336 116.412L93.8484 124.598C93.8777 125.361 93.8009 126.125 93.6204 126.867C93.2752 126.451 92.8733 126.085 92.4263 125.781C92.4804 125.393 92.5022 125.001 92.4914 124.609L92.1766 116.423C92.0796 114.421 91.2204 112.532 89.7751 111.143C88.3297 109.754 86.4078 108.971 84.4035 108.954C83.4374 108.951 82.4808 109.145 81.5917 109.523C80.7026 109.901 79.8993 110.455 79.2306 111.152C78.5618 111.849 78.0414 112.675 77.7008 113.579C77.3603 114.483 77.2066 115.447 77.2492 116.412L77.5641 124.598C77.6345 126.049 78.1061 127.453 78.9264 128.653C79.7466 129.852 80.8834 130.801 82.2105 131.394C82.2341 131.906 82.3068 132.415 82.4276 132.914C80.6784 132.308 79.1507 131.192 78.0419 129.71C76.9331 128.227 76.294 126.447 76.207 124.598L75.8813 116.412C75.8206 115.262 75.9956 114.112 76.3956 113.033C76.7955 111.953 77.412 110.967 78.207 110.134C79.0021 109.301 79.959 108.64 81.019 108.191C82.079 107.741 83.2196 107.513 84.3709 107.521Z" fill="white"/>
<path d="M61.5404 9.91247H99.6458C99.928 9.91261 100.207 9.85605 100.467 9.74616C100.727 9.63626 100.962 9.47529 101.159 9.27277C101.355 9.07025 101.509 8.83031 101.611 8.56722C101.713 8.30413 101.761 8.02324 101.752 7.74123C101.719 7.15742 101.465 6.60809 101.041 6.20481C100.618 5.80154 100.057 5.57456 99.4721 5.56998H61.3775C61.0945 5.56839 60.814 5.62387 60.5528 5.73311C60.2917 5.84235 60.0553 6.00311 59.8577 6.20578C59.6601 6.40845 59.5053 6.64888 59.4027 6.9127C59.3001 7.17651 59.2518 7.4583 59.2605 7.74123C59.2961 8.32414 59.551 8.872 59.9739 9.27476C60.3968 9.67751 60.9564 9.90533 61.5404 9.91247Z" fill="#CB0101"/>
<path opacity="0.2" d="M87.4708 48.0179C89.7243 48.1944 91.9859 48.2452 94.2451 48.1698C95.0437 47.9988 95.8632 47.9476 96.6769 48.0179H96.9266C103.3 47.5509 109.606 46.412 115.74 44.6198C116.37 44.4353 149.222 48.8811 152.16 50.115L157.447 201.855L87.6988 157.112C86.105 156.066 84.782 154.656 83.8385 152.999C82.8949 151.342 82.3576 149.485 82.2707 147.581L78.7315 56.2252C78.6812 55.0878 78.8772 53.953 79.3062 52.8984C79.7351 51.8438 80.3868 50.8943 81.2167 50.1149C82.0466 49.3356 83.0351 48.7447 84.1145 48.3827C85.1939 48.0208 86.3388 47.8963 87.4708 48.0179Z" fill="black"/>
<path d="M95.971 37.8236C98.2207 38.004 100.479 38.0583 102.734 37.9865C103.533 37.8171 104.352 37.7623 105.166 37.8236H105.427C111.797 37.3611 118.1 36.222 124.23 34.4256C131.916 32.0361 138.998 28.0228 144.998 22.6575C146.455 21.2539 148.403 20.4749 150.426 20.4862H159.632C161.695 20.5012 163.681 21.2739 165.212 22.6575C171.58 28.0067 178.966 32.01 186.925 34.4256C193.145 36.214 199.533 37.3528 205.988 37.8236H206.249C207.067 37.7623 207.889 37.8171 208.691 37.9865C210.944 38.0585 213.198 38.0041 215.444 37.8236C216.601 37.7352 217.763 37.8794 218.863 38.2477C219.963 38.616 220.979 39.2009 221.849 39.9679C222.719 40.735 223.427 41.6686 223.93 42.7136C224.434 43.7587 224.723 44.8941 224.78 46.0527L228.32 137.419C228.4 139.269 228.016 141.109 227.203 142.772C226.389 144.435 225.172 145.868 223.662 146.94L172.475 182.939C170.589 184.262 168.34 184.967 166.037 184.958H156.842C154.491 184.95 152.195 184.247 150.241 182.939L96.275 146.94C94.6857 145.891 93.3659 144.482 92.4228 142.828C91.4797 141.174 90.9398 139.321 90.8469 137.419L87.3186 46.0527C87.2721 44.923 87.4676 43.7964 87.8918 42.7485C88.3161 41.7005 88.9594 40.7552 89.7787 39.9761C90.598 39.1969 91.5743 38.6018 92.6422 38.2305C93.7102 37.8593 94.8451 37.7206 95.971 37.8236Z" fill="#CB0101"/>
<path opacity="0.8" d="M95.971 37.8236C98.2207 38.004 100.479 38.0583 102.734 37.9865C103.533 37.8171 104.352 37.7623 105.166 37.8236H105.427C111.797 37.3611 118.1 36.222 124.23 34.4256C131.916 32.0361 138.998 28.0228 144.998 22.6575C146.455 21.2539 148.403 20.4749 150.426 20.4862H159.632C161.695 20.5012 163.681 21.2739 165.212 22.6575C171.58 28.0067 178.966 32.01 186.925 34.4256C193.145 36.214 199.533 37.3528 205.988 37.8236H206.249C207.067 37.7623 207.889 37.8171 208.691 37.9865C210.944 38.0585 213.198 38.0041 215.444 37.8236C216.601 37.7352 217.763 37.8794 218.863 38.2477C219.963 38.616 220.979 39.2009 221.849 39.9679C222.719 40.735 223.427 41.6686 223.93 42.7136C224.434 43.7587 224.723 44.8941 224.78 46.0527L228.32 137.419C228.4 139.269 228.016 141.109 227.203 142.772C226.389 144.435 225.172 145.868 223.662 146.94L172.475 182.939C170.589 184.262 168.34 184.967 166.037 184.958H156.842C154.491 184.95 152.195 184.247 150.241 182.939L96.275 146.94C94.6857 145.891 93.3659 144.482 92.4228 142.828C91.4797 141.174 90.9398 139.321 90.8469 137.419L87.3186 46.0527C87.2721 44.923 87.4676 43.7964 87.8918 42.7485C88.3161 41.7005 88.9594 40.7552 89.7787 39.9761C90.598 39.1969 91.5743 38.6018 92.6422 38.2305C93.7102 37.8593 94.8451 37.7206 95.971 37.8236Z" fill="white"/>
<path d="M222.338 137.245L218.961 49.8852C218.886 48.2835 218.201 46.7713 217.047 45.6589C215.892 44.5465 214.355 43.9183 212.752 43.9034H210.765C202.174 43.7966 193.639 42.5183 185.394 40.1037C177.552 37.727 170.198 33.9657 163.681 28.9978C162.608 28.1231 161.266 27.6455 159.882 27.6455C158.497 27.6455 157.155 28.1231 156.082 28.9978C149.897 33.9971 142.815 37.7702 135.216 40.1146C127.071 42.5414 118.626 43.8203 110.127 43.9143H108.293C107.502 43.9074 106.718 44.0621 105.989 44.3689C105.26 44.6756 104.602 45.1279 104.054 45.6982C103.506 46.2684 103.081 46.9445 102.803 47.685C102.526 48.4255 102.403 49.2148 102.441 50.0046L105.817 137.256C105.863 138.239 106.139 139.198 106.624 140.054C107.108 140.91 107.788 141.64 108.608 142.185L162.237 178.011C163.233 178.689 164.409 179.052 165.614 179.052C166.818 179.052 167.995 178.689 168.99 178.011L219.862 142.185C220.658 141.637 221.302 140.897 221.734 140.033C222.167 139.17 222.375 138.211 222.338 137.245Z" fill="#CB0101"/>
<path opacity="0.2" d="M207.432 132.631L204.566 58.3639C196.891 57.7567 189.296 56.3782 181.898 54.2493C174.35 51.9794 167.156 48.669 160.522 44.4136C154.167 48.6888 147.217 52.0031 139.895 54.2493C132.606 56.3875 125.115 57.7664 117.542 58.3639L120.419 132.631L165.081 162.421L207.432 132.631Z" fill="white"/>
<path opacity="0.2" d="M192.418 124.869L190.344 71.2286C186.371 70.4795 182.365 69.535 178.403 68.3951C172.464 66.6457 166.709 64.3262 161.217 61.4688C155.907 64.3358 150.32 66.6565 144.542 68.3951C140.619 69.5314 136.7 70.4759 132.785 71.2286L134.858 124.869L164.387 144.639L192.418 124.869Z" fill="white"/>
<path d="M115.721 304.67C116.291 304.672 116.842 304.467 117.273 304.094L273.067 171.066C273.507 170.643 273.77 170.067 273.8 169.457C273.83 168.847 273.626 168.249 273.229 167.784C272.833 167.32 272.274 167.024 271.667 166.958C271.059 166.892 270.45 167.061 269.963 167.43L114.169 300.467C113.796 300.783 113.53 301.207 113.406 301.68C113.282 302.153 113.306 302.652 113.476 303.111C113.645 303.57 113.951 303.965 114.353 304.244C114.755 304.523 115.232 304.672 115.721 304.67Z" fill="#CB0101"/>
<path d="M217.805 304.67C218.345 304.669 218.869 304.488 219.295 304.156C219.645 303.886 219.913 303.524 220.07 303.111C220.227 302.698 220.265 302.249 220.182 301.815L205.274 227.319C205.212 227.011 205.091 226.719 204.917 226.458C204.743 226.198 204.519 225.974 204.259 225.8C203.998 225.626 203.705 225.504 203.398 225.443C203.091 225.382 202.774 225.382 202.467 225.443C202.159 225.504 201.867 225.625 201.606 225.8C201.345 225.974 201.122 226.198 200.947 226.458C200.773 226.719 200.652 227.011 200.591 227.319C200.53 227.626 200.53 227.943 200.591 228.25L214.585 298.134L133.296 260.94C133.01 260.801 132.7 260.72 132.382 260.703C132.065 260.686 131.747 260.733 131.448 260.84C131.149 260.947 130.875 261.113 130.64 261.328C130.406 261.543 130.218 261.803 130.085 262.092C129.953 262.381 129.88 262.693 129.87 263.011C129.86 263.329 129.913 263.645 130.028 263.942C130.142 264.238 130.314 264.509 130.534 264.738C130.754 264.968 131.018 265.15 131.31 265.276L216.847 304.422C217.146 304.569 217.472 304.654 217.805 304.67Z" fill="#CB0101"/>
<path d="M271.513 169.203H347.712C327.979 202.948 273.216 272.965 218.932 272.965H152.506C195.412 272.93 251.781 202.948 271.513 169.203Z" fill="#CB0101"/>
<path opacity="0.2" d="M271.513 169.203H347.712C327.979 202.948 273.216 272.965 218.932 272.965H152.506C195.412 272.93 251.781 202.948 271.513 169.203Z" fill="black"/>
<path d="M260.153 178.578L259.612 178.001L258.991 177.318C258.574 176.866 258.149 176.431 257.741 175.917C256.916 174.95 256.1 173.984 255.311 172.99C253.745 171.014 252.28 168.96 250.921 166.836C250.247 165.78 249.617 164.707 249.032 163.634C248.447 162.561 247.888 161.47 247.391 160.37C246.413 158.229 245.641 155.998 245.085 153.71L243.64 158.668C244.483 157.646 245.49 156.771 246.62 156.078C248.09 155.109 249.612 154.221 251.178 153.417C252.801 152.575 254.495 151.768 256.224 150.979L261.43 148.637L261.554 148.575C262.247 148.263 262.81 147.719 263.146 147.038C263.483 146.356 263.572 145.579 263.399 144.839C263.227 144.099 262.802 143.442 262.199 142.979C261.596 142.517 260.851 142.279 260.091 142.305C258.011 142.397 255.939 142.608 253.883 142.935C251.811 143.261 249.756 143.693 247.728 144.23C245.607 144.793 243.532 145.517 241.52 146.394C239.091 147.418 236.869 148.879 234.966 150.704C234.392 151.278 233.957 151.976 233.694 152.745C233.431 153.514 233.347 154.332 233.45 155.138L233.521 155.644C233.948 158.853 234.736 162.003 235.871 165.035C236.959 167.961 238.294 170.788 239.862 173.487C241.386 176.131 243.09 178.668 244.961 181.078C245.901 182.276 246.85 183.455 247.87 184.626C248.376 185.193 248.89 185.761 249.422 186.32L250.247 187.153L251.134 188.04C252.347 189.272 254.001 189.97 255.729 189.983C257.458 189.995 259.121 189.321 260.353 188.107C261.584 186.893 262.283 185.24 262.295 183.511C262.308 181.782 261.633 180.119 260.419 178.888L260.153 178.578Z" fill="#FFC3BD"/>
<path d="M257.901 142.465L265.528 141.525L268.056 150.721C268.056 150.721 260.358 152.699 257.023 147.724L257.901 142.465Z" fill="#FFC3BD"/>
<path d="M271.478 141.471L272.463 149.178L268.055 150.721L265.528 141.525L271.478 141.471Z" fill="#FFC3BD"/>
<path d="M249.059 251.06C249.059 251.06 269.696 234.964 287.194 203.959C288.169 202.228 288.76 200.308 288.926 198.328C289.092 196.348 288.83 194.355 288.156 192.486C287.483 190.617 286.415 188.915 285.024 187.496C283.634 186.076 281.954 184.974 280.099 184.262C273.51 181.743 266.415 179.358 260.633 177.513C257.789 176.597 254.725 176.628 251.901 177.602C249.077 178.576 246.645 180.44 244.971 182.914C237.823 193.556 230.781 208.562 208.84 226.539C208.546 226.777 208.315 227.086 208.169 227.436C208.024 227.786 207.967 228.166 208.005 228.544C208.043 228.921 208.174 229.283 208.386 229.597C208.598 229.911 208.886 230.167 209.222 230.343L249.059 251.06Z" fill="#CB0101"/>
<path d="M249.059 251.06C249.059 251.06 269.696 234.964 287.194 203.959C288.169 202.228 288.76 200.308 288.926 198.328C289.092 196.348 288.83 194.355 288.156 192.486C287.483 190.617 286.415 188.915 285.024 187.496C283.634 186.076 281.954 184.974 280.099 184.262C273.51 181.743 266.415 179.358 260.633 177.513C257.789 176.597 254.725 176.628 251.901 177.602C249.077 178.576 246.645 180.44 244.971 182.914C237.823 193.556 230.781 208.562 208.84 226.539C208.546 226.777 208.315 227.086 208.169 227.436C208.024 227.786 207.967 228.166 208.005 228.544C208.043 228.921 208.174 229.283 208.386 229.597C208.598 229.911 208.886 230.167 209.222 230.343L249.059 251.06Z" fill="white"/>
<path opacity="0.2" d="M288.772 199.933C286.183 191.818 283.948 194.266 282.928 195.073C275.008 201.37 270.893 214.956 271.674 227.257C277.456 219.841 282.679 212.006 287.3 203.817C287.991 202.608 288.488 201.297 288.772 199.933Z" fill="black"/>
<path d="M287.095 163.084C282.971 168.352 276.674 178.258 278.678 183.686C273.312 185.967 267.267 186.066 261.828 183.961C254.884 181.469 257.217 179.118 260.312 177.38C267.513 178.418 270.067 172.902 271.282 168.015L287.095 163.084Z" fill="#FFC3BD"/>
<path opacity="0.2" d="M271.249 168.059L280.117 165.31C279.662 167.691 278.851 169.99 277.714 172.13C275.834 175.003 270.814 176.564 267.072 175.828C269.369 173.948 270.539 170.906 271.249 168.059Z" fill="black"/>
<path d="M268.134 142.704C264.924 145.285 263.434 151.174 264.587 155.271C270.396 146.11 270.476 143.405 270.476 143.405L268.134 142.704Z" fill="#263238"/>
<path d="M288.043 155.404C285.986 163.74 285.205 168.707 280.141 172.44C278.541 173.688 276.627 174.472 274.611 174.706C272.595 174.94 270.553 174.614 268.709 173.766C266.865 172.917 265.29 171.578 264.156 169.894C263.022 168.21 262.373 166.247 262.28 164.219C261.846 156.433 265.278 144.123 274.173 141.871C283.068 139.618 290.092 147.076 288.043 155.404Z" fill="#FFC3BD"/>
<path d="M286.59 163.075C284.417 160.087 283.353 154.207 284.63 149.834C279.309 148.478 262.84 147.52 267.345 138.669C271.85 129.818 277.987 133.8 278.102 136.966C288.195 134.04 294.953 137.392 292.203 140.514C302.597 144.274 298.943 152.708 296.638 153.719C300.238 158.011 298.651 167.607 293.028 167.82C287.406 168.033 284.976 172.325 281.801 171.101C282.404 167.838 286.59 163.075 286.59 163.075Z" fill="#263238"/>
<path d="M275.772 156.335C275.674 156.983 275.266 157.453 274.84 157.391C274.415 157.328 274.158 156.761 274.246 156.122C274.335 155.484 274.752 155.005 275.177 155.067C275.603 155.129 275.86 155.697 275.772 156.335Z" fill="#263238"/>
<path d="M267.86 154.81C267.771 155.457 267.354 155.927 266.973 155.865C266.592 155.803 266.281 155.235 266.37 154.597C266.459 153.958 266.849 153.506 267.248 153.506C267.647 153.506 267.957 154.171 267.86 154.81Z" fill="#263238"/>
<path d="M290.599 164.308C289.372 165.834 287.614 166.841 285.677 167.128C283.123 167.474 282.307 165.151 283.416 162.96C284.4 160.982 286.963 158.428 289.296 159.084C291.628 159.741 292.08 162.375 290.599 164.308Z" fill="#FFC3BD"/>
<path d="M270.414 155.528C270.414 155.528 268.126 159.262 266.051 160.938C267.062 162.233 269.235 161.984 269.235 161.984L270.414 155.528Z" fill="#ED847E"/>
<path d="M272.569 165.443C274.181 165.444 275.728 164.806 276.87 163.669C276.89 163.651 276.905 163.629 276.916 163.605C276.926 163.58 276.932 163.554 276.932 163.527C276.932 163.501 276.926 163.475 276.916 163.45C276.905 163.426 276.89 163.404 276.87 163.386C276.831 163.348 276.779 163.327 276.724 163.327C276.67 163.327 276.617 163.348 276.578 163.386C275.936 163.986 275.168 164.435 274.33 164.701C273.493 164.966 272.606 165.041 271.736 164.92C271.682 164.912 271.627 164.925 271.582 164.956C271.538 164.988 271.507 165.035 271.496 165.088C271.491 165.115 271.491 165.142 271.497 165.168C271.503 165.194 271.514 165.219 271.53 165.24C271.546 165.262 271.566 165.28 271.589 165.294C271.612 165.307 271.638 165.316 271.665 165.319C271.963 165.382 272.265 165.423 272.569 165.443Z" fill="#263238"/>
<path d="M280.507 153.923C280.578 153.921 280.647 153.903 280.711 153.87C280.808 153.819 280.881 153.731 280.914 153.627C280.947 153.522 280.938 153.409 280.888 153.311C280.6 152.743 280.175 152.255 279.652 151.891C279.129 151.527 278.523 151.299 277.89 151.227C277.78 151.219 277.672 151.255 277.587 151.326C277.503 151.397 277.449 151.498 277.438 151.608C277.432 151.66 277.437 151.713 277.452 151.764C277.467 151.814 277.493 151.861 277.527 151.9C277.561 151.94 277.603 151.973 277.65 151.996C277.698 152.019 277.749 152.032 277.802 152.034C278.302 152.098 278.779 152.286 279.189 152.58C279.599 152.874 279.93 153.266 280.152 153.719C280.188 153.781 280.239 153.833 280.302 153.869C280.364 153.904 280.435 153.923 280.507 153.923Z" fill="#263238"/>
<path d="M265.181 151.812C265.25 151.824 265.32 151.82 265.386 151.8C265.452 151.78 265.513 151.744 265.563 151.697C265.922 151.318 266.365 151.029 266.856 150.852C267.348 150.675 267.873 150.615 268.392 150.677C268.501 150.694 268.612 150.669 268.703 150.609C268.795 150.548 268.861 150.455 268.888 150.349C268.901 150.298 268.904 150.245 268.896 150.193C268.887 150.142 268.868 150.092 268.84 150.048C268.812 150.004 268.775 149.966 268.731 149.937C268.688 149.908 268.638 149.888 268.587 149.879C267.939 149.802 267.283 149.875 266.668 150.092C266.053 150.309 265.496 150.664 265.039 151.129C264.965 151.207 264.924 151.31 264.924 151.417C264.924 151.525 264.965 151.628 265.039 151.706C265.08 151.749 265.128 151.785 265.181 151.812Z" fill="#263238"/>
<path d="M122.718 299.541L112.635 297.688L137.644 274.665L144.668 284.749L122.718 299.541Z" fill="#FFC3BD"/>
<path d="M123.145 305.003C123.943 302.697 123.331 299.585 125.593 296.028C125.593 296.028 120.272 290.645 118.055 293.013C115.837 295.381 108.955 297.811 100.583 295.895C99.4128 295.629 99.0581 299.132 101.692 300.037C106.046 301.527 109.266 302.564 112.982 303.841C116.157 304.932 116.724 305.908 119.19 306.945C121.247 307.815 122.338 307.318 123.145 305.003Z" fill="#FFC3BD"/>
<path d="M218.295 235.026C218.295 235.026 185.295 239.46 165.908 246.289C153.04 250.803 128.66 281.062 128.66 281.062L138.522 290.968C138.522 290.968 162.99 274.801 180.94 266.057C212.362 272.265 244.208 274.322 249.06 251.087C241.814 246.271 218.295 235.026 218.295 235.026Z" fill="#263238"/>
<path opacity="0.2" d="M170.796 245.887L174.184 269.459C168.721 272.368 163.027 275.667 157.83 278.78L170.796 245.887Z" fill="black"/>
<path d="M123.614 281.636L137.821 295.613L142.619 291.036L128.013 276.111L123.614 281.636Z" fill="#CB0101"/>
<path d="M208.538 227.816C208.538 227.816 171.131 215.781 151.779 222.583C138.911 227.097 150.795 269.986 150.795 269.986L168.319 272.132C168.319 272.132 170.261 255.033 171.867 246.315C187.768 252.967 234.452 267.068 239.268 243.832C232.057 239.061 208.538 227.816 208.538 227.816Z" fill="#263238"/>
<path d="M161.299 295.612L152.944 295.985L153.645 268.014L165.901 268.9L161.299 295.612Z" fill="#FFC3BD"/>
<path d="M164.339 300.959C163.638 298.618 161.315 296.463 161.067 292.25C161.067 292.25 153.582 291.027 153.191 294.237C152.801 297.447 148.633 303.451 140.722 306.813C139.622 307.283 141.387 310.36 144.048 309.517C148.482 308.178 151.666 307.123 155.426 305.97C158.637 304.995 159.674 305.447 162.273 304.844C164.419 304.347 165.022 303.309 164.339 300.959Z" fill="#FFC3BD"/>
<path d="M148.996 272.528L168.684 275.605L169.917 269.087L149.351 265.468L148.996 272.528Z" fill="#CB0101"/>
<path d="M276.419 196.66C275.913 202.434 275.416 208.367 274.769 214.149C274.467 217.04 274.077 219.914 273.669 222.725C273.299 225.362 272.757 227.972 272.046 230.538C271.915 230.983 271.761 231.421 271.585 231.851C271.532 231.993 271.479 232.09 271.523 232.037C271.567 231.984 271.523 232.081 271.674 231.886L271.869 231.691L272.011 231.558L272.162 231.452L272.25 231.399C272.293 231.368 272.337 231.342 272.383 231.319C272.516 231.265 272.445 231.319 272.321 231.39C272.144 231.48 271.96 231.557 271.771 231.62C271.238 231.818 270.693 231.984 270.14 232.117C268.925 232.418 267.568 232.667 266.184 232.88C264.801 233.092 263.382 233.305 261.945 233.483C256.207 234.201 250.239 234.671 244.341 235.256H244.279C243.499 235.343 242.777 235.708 242.244 236.284C241.712 236.86 241.404 237.608 241.378 238.392C241.353 239.176 241.61 239.944 242.104 240.553C242.597 241.163 243.294 241.575 244.066 241.713C250.136 242.737 256.271 243.329 262.424 243.486C265.66 243.609 268.9 243.484 272.117 243.114C273.044 242.997 273.965 242.835 274.875 242.626C275.372 242.502 275.886 242.36 276.463 242.156C277.147 241.927 277.807 241.63 278.432 241.269C278.6 241.172 278.822 241.039 279.035 240.888L279.354 240.666L279.664 240.418L280.019 240.099C280.156 239.972 280.286 239.839 280.409 239.699C280.585 239.51 280.751 239.312 280.906 239.105C281.328 238.565 281.708 237.993 282.041 237.394C282.536 236.486 282.972 235.547 283.345 234.582C283.974 232.969 284.504 231.32 284.932 229.643C285.349 228.055 285.704 226.503 286.032 224.951C286.697 221.856 287.167 218.796 287.628 215.746C288.515 209.626 289.092 203.622 289.402 197.432C289.469 195.734 288.872 194.078 287.737 192.813C286.602 191.549 285.019 190.777 283.324 190.662C281.629 190.547 279.955 191.096 278.659 192.195C277.363 193.294 276.547 194.854 276.383 196.545L276.419 196.66Z" fill="#FFC3BD"/>
<path d="M186.935 220.907L168.39 229.465C167.246 229.988 166.439 231.656 167.211 231.904L220.005 248.399C220.431 248.473 220.867 248.46 221.288 248.361C221.709 248.262 222.105 248.079 222.453 247.823L237.982 238.493C239.09 237.828 239.756 236.312 238.984 236.09L186.935 220.907Z" fill="#CB0101"/>
<path opacity="0.4" d="M186.935 220.907L168.39 229.465C167.246 229.988 166.439 231.656 167.211 231.904L220.005 248.399C220.431 248.473 220.867 248.46 221.288 248.361C221.709 248.262 222.105 248.079 222.453 247.823L237.982 238.493C239.09 237.828 239.756 236.312 238.984 236.09L186.935 220.907Z" fill="black"/>
<path d="M170.922 192.146L175.148 193.428L174.87 194.344L170.644 193.063L170.922 192.146Z" fill="#CB0101"/>
<path d="M179.813 194.823L195.666 199.63L195.388 200.547L179.535 195.739L179.813 194.823Z" fill="#CB0101"/>
<path d="M164.772 193.734L219.181 210.265C219.529 210.382 219.836 210.596 220.067 210.882C220.298 211.168 220.443 211.514 220.484 211.879L222.4 246.608C222.422 246.756 222.404 246.907 222.348 247.045C222.292 247.184 222.2 247.304 222.081 247.395C221.963 247.486 221.822 247.543 221.673 247.56C221.525 247.578 221.375 247.555 221.238 247.495L166.821 231.017C166.472 230.897 166.165 230.681 165.934 230.394C165.704 230.107 165.559 229.76 165.517 229.394L163.601 194.674C163.566 194.521 163.575 194.361 163.626 194.213C163.677 194.065 163.769 193.934 163.892 193.836C164.014 193.738 164.161 193.676 164.317 193.658C164.473 193.64 164.63 193.666 164.772 193.734Z" fill="#CB0101"/>
<path opacity="0.4" d="M220.484 211.834L222.4 246.564C222.422 246.711 222.404 246.862 222.348 247.001C222.292 247.139 222.2 247.26 222.081 247.351C221.963 247.442 221.822 247.499 221.673 247.516C221.525 247.534 221.375 247.511 221.238 247.451L219.181 210.203C219.531 210.321 219.841 210.538 220.072 210.827C220.303 211.117 220.446 211.466 220.484 211.834Z" fill="black"/>
<path d="M245.467 235.008L238.017 233.554L238.408 243.309C238.408 243.309 246.842 244.036 248.163 240.161L247.427 236.897C247.321 236.425 247.078 235.995 246.73 235.659C246.382 235.323 245.943 235.097 245.467 235.008Z" fill="#FFC3BD"/>
<path d="M232.438 234.174L229.653 241.411L238.406 243.309L238.016 233.554L232.438 234.174Z" fill="#FFC3BD"/>
<path d="M191.927 304.67C192.494 304.672 193.043 304.467 193.47 304.094L349.264 171.066C349.705 170.643 349.967 170.067 349.997 169.457C350.027 168.847 349.823 168.249 349.427 167.784C349.03 167.32 348.471 167.024 347.864 166.958C347.257 166.892 346.647 167.061 346.16 167.43L190.375 300.467C190.003 300.783 189.736 301.207 189.612 301.68C189.488 302.153 189.513 302.652 189.682 303.111C189.851 303.57 190.157 303.965 190.559 304.244C190.961 304.523 191.438 304.672 191.927 304.67Z" fill="#CB0101"/>
<path opacity="0.3" d="M191.927 304.67C192.494 304.672 193.043 304.467 193.47 304.094L349.264 171.066C349.705 170.643 349.967 170.067 349.997 169.457C350.027 168.847 349.823 168.249 349.427 167.784C349.03 167.32 348.471 167.024 347.864 166.958C347.257 166.892 346.647 167.061 346.16 167.43L190.375 300.467C190.003 300.783 189.736 301.207 189.612 301.68C189.488 302.153 189.513 302.652 189.682 303.111C189.851 303.57 190.157 303.965 190.559 304.244C190.961 304.523 191.438 304.672 191.927 304.67Z" fill="white"/>
<path d="M294.015 304.67C294.552 304.668 295.073 304.487 295.496 304.156C295.845 303.886 296.113 303.524 296.27 303.11C296.426 302.697 296.465 302.249 296.383 301.815L281.466 227.319C281.405 227.011 281.283 226.719 281.109 226.458C280.935 226.198 280.711 225.974 280.451 225.8C280.19 225.626 279.898 225.504 279.59 225.443C279.283 225.382 278.966 225.382 278.659 225.443C278.351 225.504 278.059 225.625 277.798 225.8C277.538 225.974 277.314 226.198 277.14 226.458C276.965 226.719 276.844 227.011 276.783 227.319C276.722 227.626 276.722 227.943 276.783 228.25L290.778 298.134L209.489 260.94C209.203 260.801 208.892 260.72 208.575 260.703C208.257 260.686 207.94 260.733 207.641 260.84C207.341 260.947 207.067 261.113 206.833 261.328C206.599 261.543 206.41 261.803 206.278 262.092C206.145 262.381 206.072 262.693 206.062 263.011C206.052 263.329 206.106 263.645 206.22 263.942C206.334 264.238 206.506 264.509 206.726 264.738C206.946 264.968 207.21 265.15 207.502 265.276L293.048 304.422C293.35 304.571 293.679 304.655 294.015 304.67Z" fill="#CB0101"/>
<path opacity="0.3" d="M294.015 304.67C294.552 304.668 295.073 304.487 295.496 304.156C295.845 303.886 296.113 303.524 296.27 303.11C296.426 302.697 296.465 302.249 296.383 301.815L281.466 227.319C281.405 227.011 281.283 226.719 281.109 226.458C280.935 226.198 280.711 225.974 280.451 225.8C280.19 225.626 279.898 225.504 279.59 225.443C279.283 225.382 278.966 225.382 278.659 225.443C278.351 225.504 278.059 225.625 277.798 225.8C277.538 225.974 277.314 226.198 277.14 226.458C276.965 226.719 276.844 227.011 276.783 227.319C276.722 227.626 276.722 227.943 276.783 228.25L290.778 298.134L209.489 260.94C209.203 260.801 208.892 260.72 208.575 260.703C208.257 260.686 207.94 260.733 207.641 260.84C207.341 260.947 207.067 261.113 206.833 261.328C206.599 261.543 206.41 261.803 206.278 262.092C206.145 262.381 206.072 262.693 206.062 263.011C206.052 263.329 206.106 263.645 206.22 263.942C206.334 264.238 206.506 264.509 206.726 264.738C206.946 264.968 207.21 265.15 207.502 265.276L293.048 304.422C293.35 304.571 293.679 304.655 294.015 304.67Z" fill="white"/>
</svg>
