<svg width="268" height="123" viewBox="0 0 268 123" fill="none" xmlns="http://www.w3.org/2000/svg">
<path d="M15.5885 95.2172C13.9113 95.2172 12.2095 94.9459 10.483 94.4033C6.68471 93.1208 3.92231 90.679 2.19582 87.0781C1.01194 83.9704 0.419994 80.7887 0.419994 77.533C0.419994 76.0532 0.493987 74.598 0.641972 73.1674C1.3819 67.1494 2.6891 61.23 4.56358 55.4092C8.46053 42.3372 13.1714 31.4356 18.6962 22.7044C19.9294 20.7313 21.3353 18.8322 22.9138 17.007C24.4923 15.1819 26.3174 13.702 28.3892 12.5675C30.0171 11.6795 31.6696 11.2356 33.3467 11.2356C35.5172 11.2356 37.1204 12.0742 38.1562 13.7513C38.7975 14.9845 39.1182 16.3164 39.1182 17.7469L39.0442 19.3748C38.6002 21.9892 37.7616 24.5049 36.5284 26.922C32.7794 33.8773 27.7233 39.7474 21.3599 44.5323C21.2613 44.6309 21.0886 44.6803 20.842 44.6803C20.398 44.6803 20.0774 44.5076 19.8801 44.1623C19.7814 44.0143 19.7321 43.817 19.7321 43.5704C19.7321 43.1757 19.9047 42.8798 20.25 42.6825C21.8779 41.3999 23.4317 40.0434 24.9116 38.6129C30.387 33.4334 34.1113 28.0319 36.0845 22.4085C36.5777 20.9286 36.8737 19.3994 36.9724 17.8209L36.8984 17.377C36.8984 17.0317 36.8244 16.637 36.6764 16.1931C36.5777 15.7491 36.4051 15.3052 36.1584 14.8612C35.9118 14.3679 35.5418 13.9733 35.0486 13.6773C34.6046 13.332 34.0127 13.1594 33.2727 13.1594C32.1382 13.1594 30.6337 13.702 28.7592 14.7872C27.9206 15.3298 27.1807 15.8971 26.5394 16.4891C20.8173 22.0632 15.5392 31.2629 10.705 44.0883C7.99191 51.093 5.82146 58.1469 4.19362 65.2502C3.10839 70.479 2.56578 74.598 2.56578 77.607C2.56578 80.0241 2.86175 82.3179 3.45369 84.4883C4.09496 86.6094 5.27885 88.4593 7.00534 90.0378C9.32378 92.0109 12.2095 92.9975 15.6625 92.9975C22.3218 92.9975 28.5125 89.1745 34.2346 81.5286C39.4635 74.3267 43.8537 66.6314 47.4053 58.4429C47.652 58.0483 47.9233 57.851 48.2193 57.851C48.5152 57.851 48.7865 57.9743 49.0332 58.2209C49.2798 58.4182 49.4031 58.6649 49.4031 58.9608C49.0578 60.0954 47.9973 62.3892 46.2214 65.8422C41.3379 75.5105 36.3558 82.9591 31.2749 88.1879C28.4632 91.049 25.1089 93.1208 21.2119 94.4033C19.3868 94.9459 17.5123 95.2172 15.5885 95.2172ZM50.8448 77.903C49.4636 77.903 48.2798 77.311 47.2932 76.1271C46.3559 74.6966 45.838 73.0688 45.7393 71.2436L45.5914 68.9499C45.5914 63.721 47.2192 59.0348 50.4749 54.8912C50.7215 54.6446 50.9928 54.5213 51.2888 54.5213C51.5848 54.5213 51.8314 54.6446 52.0287 54.8912C52.226 55.1379 52.3247 55.3845 52.3247 55.6312C52.3247 55.8778 52.226 56.1245 52.0287 56.3711C49.217 60.1201 47.8111 64.2637 47.8111 68.8019C47.8111 72.0575 48.3537 74.2033 49.439 75.2392C49.8829 75.5845 50.3269 75.7572 50.7708 75.7572C51.6094 75.7572 52.3987 75.4365 53.1386 74.7953C54.3225 73.8087 55.2597 72.6248 55.9503 71.2436C57.4795 68.4319 58.2441 65.4722 58.2441 62.3645C58.2441 60.8847 58.0714 59.4295 57.7261 57.9989C56.3943 56.963 55.7283 55.7052 55.7283 54.2253C55.7283 52.8441 56.1723 52.1535 57.0602 52.1535C57.8001 52.1535 58.6634 53.6827 59.65 56.7411C59.65 56.7904 59.65 56.8151 59.65 56.8151C59.6993 56.8151 59.7486 56.8397 59.7979 56.8891C61.8204 58.3196 64.1388 59.0348 66.7533 59.0348C68.6277 59.0348 70.4282 58.6155 72.1547 57.777L72.6727 57.629C72.9686 57.629 73.2153 57.7523 73.4126 57.9989C73.6592 58.2456 73.7826 58.5169 73.7826 58.8129C73.7826 59.1582 73.6099 59.4295 73.2646 59.6268C71.1435 60.712 68.9484 61.2546 66.6793 61.2546C64.3115 61.2546 62.1657 60.712 60.2419 59.6268C60.3406 60.4654 60.3899 61.3286 60.3899 62.2165C60.3899 66.6561 59.1073 70.701 56.5423 74.3513C55.457 75.9298 54.0265 77.0397 52.2507 77.681C51.7574 77.829 51.2888 77.903 50.8448 77.903ZM70.409 75.1652C70.113 75.1652 69.8417 75.0666 69.595 74.8693C69.3484 74.672 69.2251 74.4253 69.2251 74.1293C69.3731 67.3713 70.5323 60.8107 72.7027 54.4473C72.9987 53.954 73.3687 53.7074 73.8126 53.7074C74.0593 53.7074 74.2812 53.7814 74.4785 53.9293C74.7252 54.0773 74.8485 54.2993 74.8485 54.5953L74.7745 54.9652C73.2947 59.3061 72.3081 63.7457 71.8148 68.2839C74.5772 62.8085 77.8575 57.555 81.6558 52.5235C82.9877 50.6983 84.3442 49.7858 85.7254 49.7858C86.2187 49.7858 86.7367 49.9584 87.2793 50.3037C87.8219 50.649 88.1919 51.1423 88.3892 51.7836C88.6358 52.3755 88.7591 52.9921 88.7591 53.6334C88.7591 54.324 88.5372 56.3218 88.0932 59.6268L87.4273 64.2883C87.2793 64.9296 87.2053 65.5462 87.2053 66.1381C87.3039 66.9274 87.4273 67.3713 87.5752 67.47C87.7726 67.47 88.0192 67.322 88.3152 67.026L88.3892 66.8781C89.4251 65.6449 90.3376 64.3376 91.1269 62.9565L91.8668 61.8466C93.0014 59.9721 94.1853 58.1963 95.4185 56.5191C96.6517 54.8419 98.1069 53.4114 99.784 52.2275C99.932 52.1289 100.105 52.0795 100.302 52.0795C100.697 52.0795 101.017 52.2522 101.264 52.5975C101.905 53.7814 102.226 55.0146 102.226 56.2971C102.226 57.5303 101.88 59.2815 101.19 61.5506C100.746 62.9318 100.475 64.313 100.376 65.6942C100.376 67.3713 100.968 68.2099 102.152 68.2099C102.793 68.2099 103.385 68.0619 103.928 67.766C105.703 66.7301 107.282 65.4475 108.663 63.9184C110.39 62.1919 111.919 60.2927 113.251 58.2209C113.497 57.925 113.793 57.777 114.139 57.777C114.435 57.777 114.706 57.8756 114.953 58.0729C115.199 58.2703 115.322 58.5169 115.322 58.8129C115.322 58.9608 115.273 59.1335 115.175 59.3308C113.547 61.7479 111.697 63.9677 109.625 65.9902C107.948 67.8646 105.95 69.2458 103.632 70.1337C103.138 70.2817 102.67 70.3557 102.226 70.3557C101.338 70.3557 100.524 70.0844 99.784 69.5418C98.7481 68.8019 98.2302 67.544 98.2302 65.7682C98.2302 64.239 98.5015 62.7345 99.0441 61.2546L99.3401 60.1447C99.8334 58.9115 100.08 57.6536 100.08 56.3711C100.08 55.8778 100.006 55.3599 99.858 54.8173C97.5396 56.9877 95.6158 59.5035 94.0866 62.3645L92.5328 64.8063L90.6089 67.618C90.017 68.4566 89.3017 69.0732 88.4632 69.4678C88.1179 69.5665 87.8219 69.6158 87.5752 69.6158C86.7367 69.6158 86.0954 69.2458 85.6514 68.5059C85.2568 67.766 85.0595 67.0014 85.0595 66.2121C85.0595 65.4229 85.1582 64.609 85.3555 63.7704L86.0214 58.7389C86.268 56.963 86.4654 55.2119 86.6133 53.4854C86.6133 52.4495 86.3174 51.9315 85.7254 51.9315C85.3308 51.9315 84.8868 52.1782 84.3936 52.6715C83.6043 53.4607 82.889 54.3486 82.2478 55.3352C77.8082 61.3533 74.1579 67.766 71.2969 74.5733C71.0502 74.9679 70.7543 75.1652 70.409 75.1652ZM71.4448 2.43046H71.3709H71.4448ZM108.841 122.595C108.545 122.595 108.274 122.496 108.027 122.299C107.781 122.151 107.657 121.904 107.657 121.559C107.953 118.254 108.299 114.949 108.693 111.644C109.236 104.935 109.507 98.2509 109.507 91.5916L109.359 79.9748C109.359 77.6563 109.433 75.3626 109.581 73.0934C110.074 66.5328 111.801 60.934 114.761 56.2971C116.043 54.324 117.597 52.6468 119.422 51.2656C119.422 51.167 119.447 51.093 119.496 51.0436C119.644 50.501 119.989 50.2297 120.532 50.2297L120.828 50.3037C122.653 49.4158 124.256 48.9718 125.638 48.9718C127.857 48.9718 129.756 49.9584 131.335 51.9315C132.47 53.5101 133.037 55.5819 133.037 58.1469L132.889 60.3667C136.687 58.8375 140.658 57.925 144.802 57.629C145.492 57.629 145.838 57.9743 145.838 58.6649C145.838 59.3555 145.492 59.7254 144.802 59.7748C140.905 60.0214 136.761 61.0573 132.371 62.8825C130.595 69.1965 126.797 73.7594 120.976 76.5711L120.384 76.7191C119.496 76.7191 119.052 75.7572 119.052 73.8334C119.052 72.2055 119.545 70.6517 120.532 69.1718C123.146 65.6695 126.476 63.0798 130.521 61.4026C130.718 60.3174 130.817 59.2075 130.817 58.0729C130.817 54.7679 129.756 52.5728 127.635 51.4876C126.994 51.2409 126.353 51.1176 125.712 51.1176C124.182 51.1176 122.727 51.5862 121.346 52.5235L120.828 54.8173C116.24 74.006 112.911 93.0468 110.839 111.94C110.592 115.245 110.247 118.525 109.803 121.781C109.704 122.323 109.384 122.595 108.841 122.595ZM111.653 89.5938C113.527 77.9523 115.821 66.3848 118.534 54.8912C114.588 59.3308 112.344 65.2502 111.801 72.6495C111.604 75.0173 111.505 77.385 111.505 79.7528L111.653 89.5938ZM121.198 74.0553C125.144 71.7369 127.981 68.4812 129.707 64.2883C128.622 64.8803 127.561 65.5215 126.525 66.2121C122.974 68.5799 121.198 71.1203 121.198 73.8334V74.0553ZM146.055 100.915C145.661 100.915 145.365 100.643 145.168 100.101C143.885 93.5401 143.244 86.3628 143.244 78.5689C143.293 73.784 143.441 69.4925 143.688 65.6942C143.885 61.8466 144.304 57.407 144.946 52.3755L145.02 51.9315C146.697 39.0075 149.878 26.6014 154.565 14.7132C157.08 8.44853 159.695 4.10763 162.408 1.69053C163.592 0.654635 164.751 0.136686 165.885 0.136686C167.069 0.284672 167.859 0.777956 168.253 1.61654C168.697 2.40579 168.919 3.41703 168.919 4.65024C168.623 8.54718 167.883 12.3455 166.699 16.0451C165.516 19.6954 164.134 23.3457 162.556 26.996C160.435 32.1262 157.944 37.1083 155.083 41.9425C152.912 45.9381 150.248 49.5638 147.091 52.8195C146.006 61.4519 145.464 70.6024 145.464 80.2707C145.464 87.0287 146.055 93.4661 147.239 99.5828C147.239 100.027 147.116 100.347 146.869 100.545C146.623 100.791 146.351 100.915 146.055 100.915ZM147.609 49.0458C152.789 42.5345 157.549 33.828 161.89 22.9264C163.666 18.6348 165.072 14.1953 166.107 9.60775C166.502 7.97991 166.724 6.4014 166.773 4.87222L166.699 3.54035V3.31837C166.65 3.21971 166.551 3.04706 166.403 2.80042C166.305 2.50445 166.083 2.35646 165.738 2.35646C165.54 2.35646 165.318 2.40579 165.072 2.50445C163.592 3.2937 162.408 4.42826 161.52 5.90811C158.412 10.693 156.044 15.8231 154.417 21.2986C151.358 30.375 149.089 39.6241 147.609 49.0458ZM163.007 45.6422C162.711 45.6422 162.465 45.5435 162.267 45.3462C162.07 45.1489 161.947 44.9269 161.897 44.6803C161.897 44.3843 161.873 44.113 161.823 43.8663C161.823 42.8798 162.045 41.9179 162.489 40.9806C162.687 40.6353 162.983 40.4627 163.377 40.4627C163.575 40.4627 163.772 40.512 163.969 40.6107C164.314 40.8573 164.487 41.1779 164.487 41.5726L164.413 42.0905C164.167 42.6331 164.043 43.1757 164.043 43.7184L164.117 44.6063C164.117 44.9022 163.994 45.1489 163.747 45.3462C163.55 45.5435 163.303 45.6422 163.007 45.6422ZM162.267 74.1293C160.64 74.1293 159.456 73.4387 158.716 72.0575C158.272 71.0216 158.05 69.9364 158.05 68.8019C158.05 67.6673 158.247 65.8422 158.642 63.3264C159.579 56.6177 160.541 53.2634 161.527 53.2634C161.823 53.2634 162.095 53.3621 162.341 53.5594C162.588 53.7074 162.711 53.9293 162.711 54.2253L162.637 54.5213C161.799 57.5797 161.157 60.638 160.714 63.6964L160.566 65.1022C160.368 66.3848 160.245 67.692 160.196 69.0238C160.196 69.7638 160.344 70.479 160.64 71.1696C161.083 71.7122 161.626 71.9836 162.267 71.9836C162.662 71.9836 163.081 71.9096 163.525 71.7616C164.709 71.3669 165.72 70.7257 166.559 69.8378C169.864 66.4341 172.898 62.6358 175.66 58.4429C175.956 58.1469 176.252 57.9989 176.548 57.9989C176.893 57.9989 177.165 58.0976 177.362 58.2949C177.609 58.4429 177.732 58.6649 177.732 58.9608C177.732 59.1088 177.683 59.2815 177.584 59.4788C175.956 61.8959 174.082 64.4116 171.96 67.026L171.22 67.914C169.741 69.9858 167.989 71.6876 165.967 73.0195C164.783 73.7594 163.55 74.1293 162.267 74.1293ZM189.698 74.2773C188.416 74.2773 187.207 73.8827 186.073 73.0934C184.642 71.9589 183.927 70.2571 183.927 67.988C183.927 67.1 183.952 66.4588 184.001 66.0641C184.05 65.6202 184.124 65.1762 184.223 64.7323C184.322 64.2883 184.445 63.721 184.593 63.0304L180.227 69.7638C179.635 70.7503 178.994 71.5643 178.304 72.2055C177.662 72.7975 176.75 73.1674 175.566 73.3154C174.481 73.3154 173.642 72.8961 173.05 72.0575C172.458 71.1696 172.162 70.1337 172.162 68.9499C172.162 65.6449 173.075 62.6358 174.9 59.9228C176.725 57.1604 179.093 54.9652 182.003 53.3374C184.914 51.6602 187.972 50.8217 191.178 50.8217C191.968 50.871 192.559 50.945 192.954 51.0436C193.349 51.1423 193.546 51.4876 193.546 52.0795C193.546 52.7208 193.25 53.0414 192.658 53.0414H191.4C187.355 53.0414 183.779 54.2746 180.671 56.7411C177.564 59.1582 175.59 62.2905 174.752 66.1381C174.456 67.026 174.308 67.9633 174.308 68.9499C174.308 69.5418 174.431 70.0597 174.678 70.5037C174.875 70.8983 175.147 71.0956 175.492 71.0956C175.788 71.0956 176.108 70.997 176.454 70.7997C177.292 70.3064 178.328 68.9992 179.561 66.8781C179.857 66.3354 182.126 62.8085 186.369 56.2971C186.665 55.9518 186.985 55.7792 187.331 55.7792C187.627 55.7792 187.873 55.8778 188.071 56.0751C188.317 56.2724 188.441 56.5191 188.441 56.8151V57.111C187.454 60.1694 186.714 63.2524 186.221 66.3601C186.122 66.9027 186.073 67.47 186.073 68.0619C186.073 69.9364 186.739 71.1696 188.071 71.7616C188.613 71.9589 189.18 72.0575 189.772 72.0575C192.337 72.0575 195.716 69.5911 199.909 64.6583C201.735 62.6851 203.461 60.5887 205.089 58.3689C205.385 58.0236 205.705 57.851 206.051 57.851C206.297 57.851 206.544 57.9743 206.791 58.2209C207.037 58.4182 207.161 58.6649 207.161 58.9608C207.161 59.1088 207.111 59.2568 207.013 59.4048C205.04 62.1672 202.598 65.0529 199.687 68.0619C198.257 69.6405 196.728 71.071 195.1 72.3535C193.521 73.6361 191.721 74.2773 189.698 74.2773ZM241.755 113.049C241.508 113.049 241.261 112.951 241.015 112.754C240.768 112.556 240.645 111.718 240.645 110.238C240.645 103.825 240.867 97.0424 241.311 89.8898C241.952 77.8536 243.358 60.1447 245.528 36.763C245.775 34.4939 245.972 32.2248 246.12 29.9557L245.158 30.0297C243.53 35.5545 241.853 40.6107 240.127 45.1982C238.4 49.7364 236.205 54.3733 233.541 59.1088C229.842 66.0641 225.871 70.3804 221.629 72.0575C220.987 72.2549 220.321 72.3535 219.631 72.3535C219.285 72.3535 218.891 72.3042 218.447 72.2055C217.115 71.6629 216.178 70.6764 215.635 69.2458C215.142 67.766 214.797 66.2861 214.599 64.8063C214.402 63.3264 214.057 61.8959 213.563 60.5147C213.563 60.4654 213.539 60.3914 213.489 60.2927C213.489 60.1941 213.415 60.0707 213.267 59.9228C213.169 59.7748 213.119 59.6514 213.119 59.5528C213.021 59.5528 212.947 59.5035 212.897 59.4048V59.3308L212.527 59.1828C212.281 59.1828 212.108 59.2075 212.01 59.2568C211.96 59.3061 211.886 59.3555 211.788 59.4048C211.738 59.4541 211.689 59.5281 211.64 59.6268C211.59 59.6761 211.541 59.7008 211.492 59.7008C210.85 60.49 210.357 61.2793 210.012 62.0685C208.532 65.4722 207.521 69.0238 206.978 72.7235C206.83 73.2661 206.485 73.5374 205.942 73.5374C205.695 73.5374 205.449 73.4634 205.202 73.3154C204.956 73.1181 204.832 72.8468 204.832 72.5015L205.054 54.5213C205.054 54.1267 205.178 53.8554 205.424 53.7074C205.671 53.5101 205.917 53.4114 206.164 53.4114C206.411 53.4114 206.633 53.5101 206.83 53.7074C207.077 53.8554 207.2 54.102 207.2 54.4473L207.126 63.4744C207.619 61.9452 208.335 60.49 209.272 59.1088C210.209 57.7276 211.245 57.037 212.379 57.037C213.267 57.1357 213.933 57.407 214.377 57.851C215.462 58.7882 216.227 60.8847 216.671 64.1403C216.868 65.5709 217.189 66.9767 217.633 68.3579C217.781 68.6046 217.88 68.8512 217.929 69.0978C218.028 69.2952 218.176 69.4925 218.373 69.6898C218.57 69.8378 218.694 69.9611 218.743 70.0597C218.792 70.1091 218.965 70.1584 219.261 70.2077C219.507 70.2077 219.68 70.2077 219.779 70.2077C219.877 70.1584 220.05 70.1337 220.297 70.1337C220.593 70.1337 220.79 70.1091 220.889 70.0597C221.037 69.9611 221.234 69.8871 221.481 69.8378L221.629 69.6898C223.848 68.5552 225.698 66.9274 227.178 64.8063C229.348 62.0439 231.223 59.0595 232.801 55.8532C236.945 47.6646 240.25 39.2048 242.716 30.4737C242.815 30.375 242.864 30.2517 242.864 30.1037C232.703 30.597 224.884 31.2136 219.409 31.9535C219.409 32.0029 219.384 32.0275 219.335 32.0275C219.039 32.0275 218.841 32.0522 218.743 32.1015C218.644 32.1015 218.447 32.1262 218.151 32.1755L218.077 32.2495C218.225 32.3975 218.299 32.5948 218.299 32.8414C218.299 33.0881 218.2 33.3347 218.003 33.5814C217.806 33.828 217.534 33.9513 217.189 33.9513C216.646 33.9513 216.104 33.754 215.561 33.3594C215.068 32.9648 214.821 32.4961 214.821 31.9535C214.821 31.5589 214.92 31.2629 215.117 31.0656C215.61 30.6217 216.671 30.2517 218.299 29.9557C224.12 29.1171 229.99 28.5745 235.909 28.3279L243.53 27.8839C245.898 19.7941 247.649 11.5809 248.784 3.24438C248.883 2.70177 249.228 2.43046 249.82 2.43046C250.066 2.43046 250.313 2.50445 250.56 2.65244C250.806 2.80043 250.93 3.04707 250.93 3.39236L250.264 10.5697C249.622 16.2917 249.055 22.0138 248.562 27.7359C254.531 27.4893 260.475 27.366 266.394 27.366C266.789 27.366 267.06 27.4893 267.208 27.7359C267.405 27.9826 267.504 28.2292 267.504 28.4759C267.504 29.1665 267.183 29.5118 266.542 29.5118C260.425 29.5118 254.358 29.6351 248.34 29.8817L246.49 49.3418C245.01 65.7682 243.95 80.2214 243.308 92.7015C242.963 97.585 242.79 102.469 242.79 107.352L242.864 112.014C242.864 112.359 242.741 112.606 242.494 112.754C242.297 112.951 242.051 113.049 241.755 113.049ZM246.342 27.8099L246.638 24.7022L245.824 27.8099H246.342Z" fill="#425BFF"/>
</svg>
