<svg width="54" height="54" viewBox="0 0 54 54" fill="none" xmlns="http://www.w3.org/2000/svg">
<circle cx="27" cy="27" r="27" fill="url(#paint0_linear)"/>
<path fill-rule="evenodd" clip-rule="evenodd" d="M26.5 17.8891C26.0342 17.8891 25.6562 17.5111 25.6562 17.0454V14.8437C25.6562 14.378 26.0342 14 26.5 14C26.9657 14 27.3437 14.378 27.3437 14.8437V17.0454C27.3437 17.5111 26.9657 17.8891 26.5 17.8891ZM33.8924 20.9516C33.6764 20.9516 33.4604 20.8695 33.2962 20.7041C32.9665 20.3745 32.9665 19.8401 33.2962 19.5105L34.8532 17.9535C35.1828 17.6238 35.7172 17.6238 36.0468 17.9535C36.3764 18.2831 36.3764 18.8175 36.0468 19.1471L34.4898 20.7041C34.3244 20.8683 34.1084 20.9516 33.8924 20.9516ZM36.9546 28.3437H39.1562C39.622 28.3437 40 27.9657 40 27.5C40 27.0342 39.622 26.6562 39.1562 26.6562H36.9546C36.4888 26.6562 36.1108 27.0342 36.1108 27.5C36.1108 27.9657 36.4888 28.3437 36.9546 28.3437ZM35.4494 37.2931C35.2334 37.2931 35.0174 37.2109 34.8532 37.0456L33.2962 35.4886C32.9665 35.1589 32.9665 34.6246 33.2962 34.2949C33.6258 33.9653 34.1602 33.9653 34.4898 34.2949L36.0468 35.8519C36.3764 36.1816 36.3764 36.7159 36.0468 37.0456C35.8814 37.2109 35.6654 37.2931 35.4494 37.2931ZM16.9544 37.0456C17.1186 37.2109 17.3346 37.2931 17.5506 37.2931C17.7666 37.2931 17.9826 37.2109 18.148 37.0456L19.705 35.4886C20.0346 35.1589 20.0346 34.6246 19.705 34.2949C19.3754 33.9653 18.841 33.9653 18.5114 34.2949L16.9544 35.8519C16.6248 36.1816 16.6248 36.7159 16.9544 37.0456ZM16.0454 28.3437H13.8437C13.378 28.3437 13 27.9657 13 27.5C13 27.0342 13.378 26.6562 13.8437 26.6562H16.0454C16.5111 26.6562 16.8891 27.0342 16.8891 27.5C16.8891 27.9657 16.5111 28.3437 16.0454 28.3437ZM18.5114 20.7041C18.6756 20.8695 18.8916 20.9516 19.1076 20.9516C19.3236 20.9516 19.5385 20.8683 19.705 20.7041C20.0346 20.3745 20.0346 19.8401 19.705 19.5105L18.148 17.9535C17.8184 17.6238 17.284 17.6238 16.9544 17.9535C16.6248 18.2831 16.6248 18.8175 16.9544 19.1471L18.5114 20.7041ZM28.4687 37.625C29.2454 37.625 29.875 38.2546 29.875 39.0312C29.875 40.1112 28.9862 41 27.9062 41H25.0937C24.1487 41 23.125 40.28 23.125 38.705C23.125 38.1085 23.6085 37.625 24.205 37.625H28.4687ZM23.0463 35.9379L23.0462 35.9369C22.8886 35.0484 22.4274 34.2836 21.7638 33.7887C19.3113 31.9325 18.1638 28.895 18.7938 25.835C19.4125 22.8537 21.8313 20.4237 24.8125 19.805C27.1863 19.2987 29.6163 19.8837 31.4613 21.38C33.3175 22.8875 34.375 25.115 34.375 27.5C34.375 29.93 33.2725 32.18 31.3713 33.6875C30.5952 34.2948 30.089 35.0821 29.9314 35.9369L29.9313 35.9381C29.9313 35.9382 29.9313 35.9384 29.9312 35.9386V35.9487C29.9087 35.9375 29.8975 35.9375 29.875 35.9375H29.8849C29.8818 35.9375 29.8786 35.9375 29.875 35.9375L23.8412 35.9487C23.8382 35.9487 23.8218 35.9485 23.7956 35.9482C23.6395 35.9462 23.1362 35.9399 23.0565 35.947C23.055 35.9472 23.0534 35.9468 23.052 35.9462C23.05 35.947 23.0481 35.9478 23.0463 35.9487V35.9379ZM29.875 27.2187C29.875 27.68 30.2575 28.0625 30.7188 28.0625C31.18 28.0625 31.5625 27.68 31.5625 27.2187C31.5625 24.5862 29.4138 22.4375 26.7813 22.4375C26.32 22.4375 25.9375 22.82 25.9375 23.2812C25.9375 23.7425 26.32 24.125 26.7813 24.125C28.4913 24.125 29.875 25.5087 29.875 27.2187Z" fill="white"/>
<defs>
<linearGradient id="paint0_linear" x1="54" y1="27" x2="0" y2="27" gradientUnits="userSpaceOnUse">
<stop stop-color="#BA58E1"/>
<stop offset="1" stop-color="#6F49BC"/>
</linearGradient>
</defs>
</svg>
