<svg width="36" height="36" viewBox="0 0 36 36" fill="none" xmlns="http://www.w3.org/2000/svg">
<path d="M35.0723 27.6914C35.666 27.0652 35.9906 26.2482 35.9884 25.3804C35.9861 24.4835 35.6301 23.6668 35.0531 23.0629C35.6516 22.4357 35.9789 21.6155 35.9768 20.7442C35.9722 18.8943 34.463 17.3856 32.6077 17.381L31.0139 17.3843V13.5688C31.0139 11.7631 30.4341 10.0905 29.4513 8.72641V1.05469C29.4513 0.472219 28.9789 0 28.3963 0C27.8136 0 27.3413 0.472219 27.3413 1.05469V6.67997C26.0166 5.78644 24.4216 5.2643 22.7068 5.2643C21.0613 5.2643 19.487 5.73954 18.1414 6.62428V1.05469C18.1414 0.472219 17.669 0 17.0863 0C16.5037 0 16.0313 0.472219 16.0313 1.05469V8.60667C14.9709 10.0183 14.3983 11.7168 14.3997 13.4971L14.4032 18.5081C13.8381 18.8346 13.3223 19.2218 12.8626 19.6594H1.05503C0.47237 19.6594 0 20.1317 0 20.7141C0 21.2966 0.47237 21.7688 1.05503 21.7688H11.278C10.7367 22.8163 10.4278 23.9884 10.3975 25.2152C10.3959 25.2829 10.3959 25.556 10.3976 25.6236C10.4246 26.7187 10.6814 27.7729 11.1283 28.7327H1.05503C0.47237 28.7327 0 29.2049 0 29.7874C0 30.3699 0.47237 30.8421 1.05503 30.8421H12.5636C13.1934 31.5071 13.9422 32.0693 14.7865 32.4936L14.787 32.6134C14.7917 34.4632 16.3008 35.9719 18.1513 35.9765H18.1599C19.0247 35.9765 19.8382 35.6512 20.4626 35.0596C21.066 35.6324 21.8794 35.9861 22.7729 35.9883H22.7817C23.6428 35.9883 24.453 35.6657 25.0763 35.0788C25.679 35.6472 26.4891 35.9977 27.3787 36H27.3873C28.2829 36 29.1239 35.6521 29.7564 35.0199C30.2189 34.5574 30.5285 33.9831 30.6618 33.3571L32.642 33.3579H32.6506C33.5461 33.3579 34.3871 33.01 35.0196 32.3778C35.654 31.7436 36.0022 30.8995 36 30.0009C35.9977 29.108 35.6449 28.2945 35.0723 27.6914ZM22.7068 7.37367C26.1239 7.37367 28.9039 10.1528 28.9039 13.5688V17.3886L20.6373 17.4058C20.0547 17.407 19.5833 17.8802 19.5845 18.4627C19.5845 18.4633 19.5846 18.4639 19.5846 18.4645V18.465L19.5787 20.8733C19.5778 21.2823 19.4175 21.6665 19.1274 21.9551C18.8382 22.2427 18.4547 22.401 18.047 22.401C18.0456 22.401 18.0443 22.401 18.043 22.401C17.188 22.3989 16.5167 21.6936 16.5148 20.7968L16.5097 13.4955C16.5087 12.083 16.9974 10.7382 17.897 9.64751C17.9006 9.64315 17.904 9.63858 17.9076 9.63408C18.0368 9.4782 18.1746 9.32759 18.3204 9.18267C19.4954 8.01619 21.0531 7.37367 22.7068 7.37367ZM19.0368 33.5049C18.8031 33.7385 18.4917 33.8671 18.1597 33.8671C18.1587 33.8671 18.1576 33.8671 18.1566 33.8671C17.4638 33.8654 16.8988 33.3006 16.8971 32.6067L16.8869 29.967C16.8861 29.634 17.0148 29.3214 17.2493 29.087C17.483 28.8534 17.7943 28.7248 18.1264 28.7248H18.1296C18.8224 28.7265 19.3873 29.2913 19.389 29.9839V29.9853L19.3992 32.6249C19.4 32.9579 19.2714 33.2705 19.0368 33.5049ZM22.7814 33.8789C22.7804 33.8789 22.7793 33.8789 22.7782 33.8789C22.0855 33.8772 21.5205 33.3124 21.5188 32.6198C21.5186 32.5737 21.5088 30.0243 21.5087 29.9788C21.5079 29.6457 21.6365 29.3332 21.871 29.0988C22.1048 28.8651 22.4162 28.7365 22.7482 28.7365H22.7513C23.4159 28.7382 23.9613 29.2582 24.0063 29.9118C24.0057 29.9403 24.0162 32.6936 24.017 32.722C23.9975 33.0227 23.8728 33.3024 23.6586 33.5166C23.4248 33.7504 23.1134 33.8789 22.7814 33.8789ZM28.2643 33.5284C28.0305 33.762 27.7192 33.8906 27.3872 33.8906C27.3861 33.8906 27.3851 33.8906 27.384 33.8906C26.7198 33.8889 26.1745 33.3693 26.129 32.7148C26.1297 32.6869 26.1191 29.9335 26.1183 29.9051C26.1378 29.6044 26.2625 29.3247 26.4768 29.1105C26.7105 28.8769 27.0219 28.7483 27.3538 28.7483H27.3571C28.0498 28.7501 28.6147 29.3148 28.6164 30.0073V30.0087L28.6266 32.6483C28.6275 32.9814 28.4988 33.294 28.2643 33.5284ZM33.5276 30.8862C33.2938 31.1199 32.9825 31.2485 32.6483 31.2485C32.6472 31.2485 32.6461 31.2485 32.6451 31.2485L30.7314 31.2478L30.7266 30.0007C30.7213 28.1514 29.2125 26.6435 27.3624 26.6389C27.3595 26.6389 27.3567 26.6389 27.3538 26.6389C26.4926 26.6389 25.6824 26.9615 25.0591 27.5484C24.4565 26.98 23.6463 26.6295 22.7567 26.6273C22.7538 26.6273 22.7511 26.6273 22.7481 26.6273C21.8833 26.6273 21.0698 26.9525 20.4454 27.5442C19.842 26.9715 19.0286 26.6178 18.135 26.6155C18.1321 26.6155 18.1293 26.6155 18.1263 26.6155C17.2308 26.6155 16.3897 26.9634 15.7574 27.5955C15.123 28.2298 14.7748 29.0739 14.777 29.9738L14.7772 30.0071C13.4056 28.95 12.5506 27.3316 12.507 25.5706C12.5057 25.5202 12.5057 25.3173 12.507 25.267C12.5424 23.8355 13.0969 22.5044 14.033 21.4796C14.0667 21.4476 14.0987 21.414 14.128 21.378C14.221 21.2808 14.3175 21.1866 14.4175 21.0956C14.5647 23.0281 16.1026 24.5057 18.0378 24.5106H18.0472C19.0165 24.5106 19.9285 24.1343 20.6158 23.4505C21.3055 22.7644 21.6866 21.8509 21.6889 20.8785L21.6922 19.5131L32.6073 19.4905C33.3001 19.4922 33.8651 20.057 33.8668 20.7495C33.8676 21.0826 33.739 21.3951 33.5044 21.6295C33.2707 21.8632 32.9593 21.9918 32.6274 21.9918C32.6254 21.9918 32.6235 21.9918 32.6215 21.9918C32.3417 21.9918 32.0733 22.1029 31.8755 22.3008C31.677 22.4993 31.5658 22.7687 31.5665 23.0493L31.5666 23.075C31.5681 23.6554 32.0384 24.1254 32.6189 24.1269C33.3117 24.1286 33.8766 24.6935 33.8784 25.3859C33.8792 25.719 33.7505 26.0315 33.516 26.2659C33.2823 26.4996 32.9709 26.6281 32.639 26.6281C32.6371 26.6281 32.6351 26.6281 32.6331 26.6281C32.3538 26.6281 32.0858 26.7389 31.888 26.9361C31.6896 27.1339 31.5781 27.4026 31.5781 27.6828V27.6926C31.5781 28.2741 32.0488 28.7459 32.6304 28.7473C33.3232 28.7491 33.8882 29.3139 33.8899 30.0064C33.8908 30.3393 33.762 30.6518 33.5276 30.8862Z" fill="#F4BBB3"/>
</svg>
