<svg width="18" height="19" viewBox="0 0 18 19" fill="none" xmlns="http://www.w3.org/2000/svg">
<path opacity="0.3" fill-rule="evenodd" clip-rule="evenodd" d="M14.25 11.75C15.4926 11.75 16.5 10.7426 16.5 9.5C16.5 8.25736 15.4926 7.25 14.25 7.25C13.0074 7.25 12 8.25736 12 9.5C12 10.7426 13.0074 11.75 14.25 11.75Z" fill="#3800D8"/>
<path fill-rule="evenodd" clip-rule="evenodd" d="M8.25 7.25V12.5C8.25 12.9142 7.91421 13.25 7.5 13.25C7.08579 13.25 6.75 12.9142 6.75 12.5V7.25H5.25C4.83579 7.25 4.5 6.91421 4.5 6.5C4.5 6.08579 4.83579 5.75 5.25 5.75L9.75 5.75C10.1642 5.75 10.5 6.08579 10.5 6.5C10.5 6.91421 10.1642 7.25 9.75 7.25H8.25Z" fill="#3800D8"/>
</svg>
