<svg width="239" height="42" viewBox="0 0 239 42" fill="none" xmlns="http://www.w3.org/2000/svg">
<g clip-path="url(#clip0)">
<path d="M23.1804 30.2812L20.4922 34.1745L25.517 41.446H30.8934L23.1804 30.2812Z" fill="#969BAF"/>
<path d="M15.4882 41.3639L15.4469 41.4051L11.6214 35.9258L7.7959 41.4463H15.4262H15.4882H23.0979L19.293 35.9258L15.4882 41.3639Z" fill="#969BAF"/>
<path d="M7.71301 30.2812L0 41.446H5.37636L10.4012 34.1745L7.71301 30.2812Z" fill="#969BAF"/>
<path d="M4.07359 21.5874C4.13563 21.6698 4.19766 21.7728 4.2597 21.8758L8.89164 28.5705L10.6907 31.1866L12.7792 34.2147L15.4673 38.0873V38.0255L18.0935 34.2147L17.1009 32.7727L15.4673 30.3832V30.3214L15.4467 30.3626L14.2473 28.6117L13.3995 27.3758V27.3552L10.9595 23.7915L7.91976 19.3627L7.85772 19.2803C7.81637 19.2391 7.79569 19.1979 7.73365 19.0949C6.34821 16.9526 5.89328 14.3366 6.55499 11.7617C7.44416 8.25982 10.4425 5.56134 14.0405 5.02576C14.5368 4.94336 15.0124 4.92276 15.488 4.94336C15.9429 4.94336 16.4185 4.96396 16.8735 5.04636C20.4508 5.60253 23.4699 8.28042 24.359 11.7823C25.0207 14.3571 24.5658 16.9732 23.1804 19.1155C23.1183 19.2185 23.077 19.2597 23.0563 19.3009L22.9942 19.3627L19.3342 24.6773L18.962 24.1417L15.488 19.0949V19.0125L15.4673 19.0537L15.4467 19.0125L14.8884 18.2298C14.0405 16.9938 12.6344 16.3347 11.249 16.3347C10.3805 16.3347 9.51199 16.5819 8.74689 17.1174L12.9446 23.1942L15.3019 26.6342L15.488 26.902L19.3135 32.4638L22.0017 28.5705L26.6336 21.8758C26.6957 21.7728 26.7577 21.6904 26.8197 21.5874L26.8818 21.505C28.3086 19.3009 29.0737 16.7466 29.0737 14.11C29.0737 6.63249 22.9736 0.555755 15.488 0.535156C7.96111 0.535156 1.84033 6.61189 1.84033 14.11C1.84033 16.7466 2.58475 19.3009 4.03223 21.505L4.07359 21.5874Z" fill="#969BAF"/>
<path d="M48.8836 20.1877H43.7967V29.3749H40.6743V6.92188H48.8836C50.9308 6.92188 52.6264 7.56045 53.9085 8.81699C55.2112 10.0941 55.8522 11.6597 55.8522 13.5754C55.8522 15.4911 55.2112 17.0772 53.9085 18.3338C52.6057 19.5697 50.9308 20.1877 48.8836 20.1877ZM43.7761 17.4068H48.3046C49.6487 17.4068 50.7033 17.0566 51.4891 16.3769C52.2749 15.6971 52.6678 14.7701 52.6678 13.596C52.6678 12.4218 52.2749 11.4743 51.4891 10.7533C50.7033 10.0529 49.6487 9.68215 48.3046 9.68215H43.7761V17.4068Z" fill="#969BAF"/>
<path d="M60.8563 20.4126V29.3732H57.8579V6.42578H60.8563V15.9014C61.8695 14.4182 63.4204 13.6767 65.5089 13.6767C67.2665 13.6767 68.6313 14.2328 69.5618 15.3658C70.513 16.4781 70.968 17.9407 70.968 19.7122V29.3732H67.9696V20.2272C67.9696 17.6729 66.7909 16.3957 64.4129 16.3957C63.317 16.3957 62.4485 16.7665 61.8281 17.5287C61.2285 18.2703 60.8976 19.2384 60.8563 20.4126Z" fill="#969BAF"/>
<path d="M75.145 15.9633C76.6132 14.439 78.4949 13.6562 80.7695 13.6562C83.0441 13.6562 84.9052 14.4184 86.394 15.9633C87.8622 17.4877 88.6066 19.424 88.6066 21.7517C88.6066 24.1 87.8829 26.0363 86.4147 27.5606C84.9465 29.085 83.0648 29.8677 80.7902 29.8677C78.4949 29.8677 76.6132 29.1056 75.1657 27.5606C73.6975 26.0363 72.9738 24.1 72.9738 21.7517C72.9324 19.424 73.6769 17.4877 75.145 15.9633ZM77.3783 25.7479C78.3088 26.7161 79.4254 27.1899 80.7695 27.1899C82.1136 27.1899 83.2302 26.7161 84.1608 25.7479C85.0913 24.7798 85.5462 23.4408 85.5462 21.7311C85.5462 20.042 85.0913 18.7236 84.1608 17.7555C83.2302 16.7873 82.1136 16.3135 80.7695 16.3135C79.4254 16.3135 78.3088 16.7873 77.3783 17.7555C76.4478 18.7236 75.9928 20.042 75.9928 21.7311C75.9928 23.4614 76.4478 24.8004 77.3783 25.7479Z" fill="#969BAF"/>
<path d="M93.4661 20.5765V29.3929H90.4678V14.129H93.4041V16.3125C94.4173 14.5615 95.9889 13.6758 98.1188 13.6758C99.8764 13.6758 101.241 14.232 102.172 15.3649C103.123 16.4773 103.578 17.9398 103.578 19.7113V29.3723H100.579V20.2263C100.579 17.672 99.4008 16.3949 97.0228 16.3949C95.9062 16.3949 95.017 16.7862 94.3967 17.5896C93.797 18.3724 93.4661 19.3611 93.4661 20.5765Z" fill="#969BAF"/>
<path d="M117.577 24.1629L120.162 25.0486C119.707 26.47 118.88 27.6235 117.68 28.5093C116.481 29.4156 115.013 29.8482 113.296 29.8482C111.146 29.8482 109.326 29.1066 107.837 27.6441C106.348 26.1816 105.604 24.2041 105.604 21.691C105.604 19.3633 106.328 17.4476 107.775 15.9232C109.223 14.3989 110.939 13.6367 112.924 13.6367C115.24 13.6367 117.039 14.3577 118.342 15.7996C119.645 17.2416 120.286 19.1779 120.286 21.6086C120.286 21.9794 120.265 22.3089 120.224 22.5561H108.706C108.726 23.9157 109.181 25.028 110.05 25.8932C110.939 26.7583 112.014 27.1909 113.317 27.1909C115.468 27.2321 116.894 26.2022 117.577 24.1629ZM108.768 20.1872H117.143C117.101 19.0543 116.708 18.1067 116.005 17.3858C115.281 16.6648 114.268 16.294 112.945 16.294C111.766 16.294 110.774 16.6854 110.008 17.4476C109.243 18.2303 108.83 19.1367 108.768 20.1872Z" fill="#969BAF"/>
<path d="M126.655 11.0623V29.3749H122.23V11.0623H115.096V6.92188H133.789V11.0829H126.655V11.0623Z" fill="#969BAF"/>
<path d="M138.028 17.9821C137.552 17.8791 137.138 17.8585 136.745 17.8585C134.574 17.8585 132.713 18.909 132.713 22.2667V29.394H128.474V13.7798H132.589V16.0869C133.54 14.027 135.712 13.6562 137.035 13.6562C137.386 13.6562 137.697 13.6974 138.028 13.718V17.9821Z" fill="#969BAF"/>
<path d="M144.231 20.4142L148.078 19.8374C148.967 19.7138 149.256 19.2607 149.256 18.7251C149.256 17.6127 148.388 16.7064 146.609 16.7064C144.769 16.7064 143.756 17.8805 143.611 19.2401L139.868 18.4573C140.116 16.0266 142.391 13.3281 146.589 13.3281C151.552 13.3281 153.392 16.109 153.392 19.2607V26.9235C153.392 27.7475 153.495 28.8598 153.578 29.3954H149.711C149.608 28.9834 149.546 28.1183 149.546 27.5209C148.76 28.7568 147.25 29.828 144.934 29.828C141.585 29.828 139.558 27.5827 139.558 25.1314C139.558 22.3505 141.626 20.8056 144.231 20.4142ZM149.256 23.0715V22.3711L145.72 22.9067C144.645 23.0715 143.776 23.6689 143.776 24.8636C143.776 25.7906 144.438 26.6763 145.803 26.6763C147.602 26.6969 149.256 25.8318 149.256 23.0715Z" fill="#969BAF"/>
<path d="M159.74 21.5866C159.74 24.4087 161.58 25.9948 163.752 25.9948C165.923 25.9948 166.998 24.5735 167.35 23.3581L171.072 24.5941C170.369 27.1895 167.929 29.8468 163.752 29.8468C159.14 29.8468 155.501 26.3656 155.501 21.566C155.501 16.7458 159.058 13.2852 163.607 13.2852C167.867 13.2852 170.286 15.9218 170.948 18.5379L167.164 19.8151C166.791 18.5173 165.799 17.1784 163.69 17.1784C161.56 17.2196 159.74 18.7645 159.74 21.5866Z" fill="#969BAF"/>
<path d="M181.907 20.3508L188.297 29.3938H183.106L178.971 23.4406L177.213 25.274V29.3938H172.974V6.42578H177.213V19.5886L182.631 13.7797H188.173L181.907 20.3508Z" fill="#969BAF"/>
<path d="M201.944 24.9226C201.159 27.6211 198.677 29.8664 194.81 29.8664C190.509 29.8664 186.725 26.7971 186.725 21.5237C186.725 16.5387 190.427 13.3047 194.417 13.3047C199.256 13.3047 202.151 16.374 202.151 21.3795C202.151 21.9769 202.089 22.6155 202.089 22.6773H190.881C190.985 24.7372 192.722 26.2203 194.831 26.2203C196.795 26.2203 197.891 25.2316 198.388 23.8514L201.944 24.9226ZM197.995 19.814C197.933 18.2691 196.92 16.7447 194.5 16.7447C192.308 16.7447 191.088 18.3927 191.006 19.814H197.995Z" fill="#969BAF"/>
<path d="M213.628 17.9821C213.152 17.8791 212.739 17.8585 212.346 17.8585C210.175 17.8585 208.314 18.909 208.314 22.2667V29.394H204.095V13.7798H208.21V16.0869C209.161 14.027 211.333 13.6562 212.656 13.6562C213.008 13.6562 213.318 13.6974 213.649 13.718V17.9821H213.628Z" fill="#969BAF"/>
<path d="M215.551 29.3938V6.42578H219.79V29.3732H215.551V29.3938Z" fill="#969BAF"/>
<path d="M224.67 35.53L228.371 27.4139L221.713 13.7773H226.448L230.625 22.9027L234.471 13.7773H239L229.178 35.53H224.67Z" fill="#969BAF"/>
</g>
<defs>
<clipPath id="clip0">
<rect width="239" height="40.9098" fill="white" transform="translate(0 0.535156)"/>
</clipPath>
</defs>
</svg>
