<svg width="17" height="17" viewBox="0 0 17 17" fill="none" xmlns="http://www.w3.org/2000/svg">
<g clip-path="url(#clip0_387_37308)">
<path d="M4.38086 13.7659H7.92886L10.2749 16.1092C10.4009 16.236 10.5508 16.3366 10.7159 16.4052C10.881 16.4739 11.0581 16.5092 11.2369 16.5092C11.3545 16.509 11.4716 16.494 11.5855 16.4645C11.8157 16.4064 12.0265 16.2887 12.1966 16.1232C12.3668 15.9577 12.4904 15.7503 12.5549 15.5219L16.6929 1.44922L4.38086 13.7659Z" fill="#011955"/>
<path d="M3.42456 12.8331L15.7479 0.507812L1.68523 4.65515C1.45625 4.72026 1.24828 4.84412 1.08194 5.01442C0.915609 5.18472 0.796692 5.39556 0.736992 5.626C0.677291 5.85645 0.678881 6.0985 0.741604 6.32815C0.804326 6.55779 0.926002 6.76704 1.09456 6.93515L3.42456 9.26315V12.8331Z" fill="#011955"/>
</g>
<defs>
<clipPath id="clip0_387_37308">
<rect width="16" height="16" fill="white" transform="translate(0.699219 0.5)"/>
</clipPath>
</defs>
</svg>
