<svg width="24" height="24" viewBox="0 0 24 24" fill="none" xmlns="http://www.w3.org/2000/svg">
<g clip-path="url(#clip0_387_37006)">
<path d="M4 0V21C4 21.7956 4.31607 22.5587 4.87868 23.1213C5.44129 23.6839 6.20435 24 7 24H17C17.7956 24 18.5587 23.6839 19.1213 23.1213C19.6839 22.5587 20 21.7956 20 21V0H4ZM18 2V16H6V2H18ZM17 22H7C6.73478 22 6.48043 21.8946 6.29289 21.7071C6.10536 21.5196 6 21.2652 6 21V18H18V21C18 21.2652 17.8946 21.5196 17.7071 21.7071C17.5196 21.8946 17.2652 22 17 22Z" fill="#000C28"/>
<path d="M13 19H11V21H13V19Z" fill="#000C28"/>
</g>
<defs>
<clipPath id="clip0_387_37006">
<rect width="24" height="24" fill="white"/>
</clipPath>
</defs>
</svg>
