<svg width="36" height="36" viewBox="0 0 36 36" fill="none" xmlns="http://www.w3.org/2000/svg">
<g clip-path="url(#clip0_6945_54164)">
<circle cx="18" cy="18" r="17" stroke="#8F8F8F" stroke-width="2"/>
<circle cx="15.5" cy="13.5" r="6.5" fill="#0D9A88"/>
<path d="M8.83333 14.1732H12.2708C12.4544 14.8902 12.8714 15.5257 13.4561 15.9796C14.0408 16.4334 14.7599 16.6797 15.5 16.6797C16.2401 16.6797 16.9592 16.4334 17.5439 15.9796C18.1286 15.5257 18.5456 14.8902 18.7292 14.1732H27.1667C27.3877 14.1732 27.5996 14.0854 27.7559 13.9291C27.9122 13.7728 28 13.5609 28 13.3399C28 13.1189 27.9122 12.9069 27.7559 12.7506C27.5996 12.5943 27.3877 12.5065 27.1667 12.5065H18.7292C18.5456 11.7895 18.1286 11.154 17.5439 10.7002C16.9592 10.2463 16.2401 10 15.5 10C14.7599 10 14.0408 10.2463 13.4561 10.7002C12.8714 11.154 12.4544 11.7895 12.2708 12.5065H8.83333C8.61232 12.5065 8.40036 12.5943 8.24408 12.7506C8.0878 12.9069 8 13.1189 8 13.3399C8 13.5609 8.0878 13.7728 8.24408 13.9291C8.40036 14.0854 8.61232 14.1732 8.83333 14.1732ZM15.5 11.6732C15.8296 11.6732 16.1519 11.771 16.426 11.9541C16.7 12.1372 16.9137 12.3975 17.0398 12.7021C17.1659 13.0066 17.199 13.3417 17.1346 13.665C17.0703 13.9883 16.9116 14.2853 16.6785 14.5184C16.4454 14.7515 16.1485 14.9102 15.8252 14.9745C15.5018 15.0388 15.1667 15.0058 14.8622 14.8797C14.5577 14.7535 14.2974 14.5399 14.1142 14.2658C13.9311 13.9917 13.8333 13.6695 13.8333 13.3399C13.8333 12.8978 14.0089 12.4739 14.3215 12.1614C14.634 11.8488 15.058 11.6732 15.5 11.6732ZM27.1667 22.5065H25.3958C25.2122 21.7895 24.7952 21.154 24.2106 20.7002C23.6259 20.2463 22.9068 20 22.1667 20C21.4265 20 20.7074 20.2463 20.1228 20.7002C19.5381 21.154 19.1211 21.7895 18.9375 22.5065H8.83333C8.61232 22.5065 8.40036 22.5943 8.24408 22.7506C8.0878 22.9069 8 23.1189 8 23.3399C8 23.5609 8.0878 23.7728 8.24408 23.9291C8.40036 24.0854 8.61232 24.1732 8.83333 24.1732H18.9375C19.1211 24.8902 19.5381 25.5257 20.1228 25.9796C20.7074 26.4334 21.4265 26.6797 22.1667 26.6797C22.9068 26.6797 23.6259 26.4334 24.2106 25.9796C24.7952 25.5257 25.2122 24.8902 25.3958 24.1732H27.1667C27.3877 24.1732 27.5996 24.0854 27.7559 23.9291C27.9122 23.7728 28 23.5609 28 23.3399C28 23.1189 27.9122 22.9069 27.7559 22.7506C27.5996 22.5943 27.3877 22.5065 27.1667 22.5065ZM22.1667 25.0065C21.837 25.0065 21.5148 24.9088 21.2407 24.7257C20.9666 24.5425 20.753 24.2822 20.6269 23.9777C20.5007 23.6731 20.4677 23.338 20.532 23.0147C20.5963 22.6914 20.7551 22.3944 20.9882 22.1614C21.2212 21.9283 21.5182 21.7695 21.8415 21.7052C22.1648 21.6409 22.4999 21.6739 22.8045 21.8001C23.109 21.9262 23.3693 22.1398 23.5524 22.4139C23.7356 22.688 23.8333 23.0102 23.8333 23.3399C23.8333 23.7819 23.6577 24.2058 23.3452 24.5184C23.0326 24.8309 22.6087 25.0065 22.1667 25.0065Z" fill="white"/>
</g>
<defs>
<clipPath id="clip0_6945_54164">
<rect width="36" height="36" rx="18" fill="white"/>
</clipPath>
</defs>
</svg>
