<svg width="80" height="80" viewBox="0 0 80 80" fill="none" xmlns="http://www.w3.org/2000/svg">
<circle cx="42" cy="42" r="26.25" stroke="#CB0101" stroke-width="2.96" stroke-linecap="round" stroke-linejoin="round"/>
<circle cx="42" cy="42" r="35" stroke="#CB0101" stroke-width="2.96" stroke-linecap="round" stroke-linejoin="round"/>
<path d="M48.2821 51.3303H35.7162C35.1547 51.3303 34.5264 50.8892 34.3392 50.3545L28.8049 34.8743C28.0162 32.6552 28.9385 31.9734 30.8368 33.3369L36.0504 37.0666C36.9193 37.6682 37.9085 37.3607 38.2828 36.3849L40.6356 30.1152C41.3842 28.11 42.6274 28.11 43.376 30.1152L45.7288 36.3849C46.1031 37.3607 47.0924 37.6682 47.9479 37.0666L52.8406 33.5776C54.926 32.0803 55.9286 32.8423 55.0731 35.2619L49.6724 50.3812C49.4719 50.8892 48.8436 51.3303 48.2821 51.3303Z" stroke="#000066" stroke-width="2.96" stroke-linecap="round" stroke-linejoin="round"/>
<path d="M34.6465 55.3682H49.3513" stroke="#000066" stroke-width="2.96" stroke-linecap="round" stroke-linejoin="round"/>
<path d="M38.6572 44.6729H45.3413" stroke="#000066" stroke-width="2.96" stroke-linecap="round" stroke-linejoin="round"/>
</svg>
