<svg width="64" height="64" viewBox="0 0 64 64" fill="none" xmlns="http://www.w3.org/2000/svg">
<path d="M43.7341 0H20.2675C16.1457 0.00473848 12.8055 3.34484 12.8008 7.46668V56.5333C12.8055 60.6551 16.1456 63.9953 20.2675 64H43.7341C47.8558 63.9953 51.196 60.6552 51.2008 56.5333V7.46668C51.196 3.34484 47.8558 0.00473848 43.7341 0ZM42.1586 2.13337L41.4119 3.99254C41.091 4.80345 40.3065 5.33532 39.4343 5.33332H24.5672C23.6939 5.33669 22.9077 4.8045 22.5864 3.99254L21.843 2.13337H42.1586ZM26.6675 14.9334H49.0674V21.3334H26.6675V14.9334ZM49.0674 38.4H26.6675V32H49.0674V38.4ZM24.5341 38.4H14.9341V32H24.5341V38.4ZM49.0674 29.8666H26.6675V23.4666H49.0674V29.8666ZM24.5341 29.8666H14.9341V23.4666H24.5341V29.8666ZM24.5341 21.3333H14.9341V14.9333H24.5341V21.3333ZM43.7341 61.8666H20.2675C17.3234 61.8631 14.9376 59.4774 14.9341 56.5333V40.5333H49.0674V56.5332C49.0638 59.4774 46.6782 61.8631 43.7341 61.8666ZM49.0674 12.8H14.9341V7.46668C14.9425 4.79755 16.9261 2.54709 19.5731 2.20371L20.6057 4.78397C21.2489 6.40779 22.8207 7.47226 24.5673 7.46668H39.4344C41.181 7.47226 42.7528 6.4079 43.396 4.78397L44.4285 2.20371C47.0756 2.54698 49.0592 4.79745 49.0675 7.46668L49.0674 12.8Z" fill="white"/>
<path fill-rule="evenodd" clip-rule="evenodd" d="M43.7345 56.5332H20.2679C19.6787 56.5332 19.2012 57.0107 19.2012 57.5999C19.2012 58.1889 19.6787 58.6666 20.2679 58.6666H43.7345C44.3236 58.6666 44.8012 58.189 44.8012 57.5999C44.8012 57.0107 44.3235 56.5332 43.7345 56.5332Z" fill="white"/>
<path fill-rule="evenodd" clip-rule="evenodd" d="M18.135 19.1998H21.335C21.9241 19.1998 22.4017 18.7222 22.4017 18.1331C22.4017 17.5439 21.9241 17.0664 21.335 17.0664H18.135C17.5459 17.0664 17.0684 17.5439 17.0684 18.1331C17.0684 18.7222 17.5459 19.1998 18.135 19.1998Z" fill="white"/>
<path fill-rule="evenodd" clip-rule="evenodd" d="M18.135 27.733H21.335C21.9241 27.733 22.4017 27.2554 22.4017 26.6663C22.4017 26.0771 21.9241 25.5996 21.335 25.5996H18.135C17.5459 25.5996 17.0684 26.0771 17.0684 26.6663C17.0684 27.2554 17.5459 27.733 18.135 27.733Z" fill="white"/>
<path fill-rule="evenodd" clip-rule="evenodd" d="M18.135 36.2662H21.335C21.9241 36.2662 22.4017 35.7886 22.4017 35.1995C22.4017 34.6103 21.9241 34.1328 21.335 34.1328H18.135C17.5459 34.1328 17.0684 34.6103 17.0684 35.1995C17.0684 35.7886 17.5459 36.2662 18.135 36.2662Z" fill="white"/>
<path fill-rule="evenodd" clip-rule="evenodd" d="M29.8675 36.2662H45.8674C46.4566 36.2662 46.9341 35.7886 46.9341 35.1995C46.9341 34.6103 46.4566 34.1328 45.8674 34.1328H29.8675C29.2783 34.1328 28.8008 34.6103 28.8008 35.1995C28.8008 35.7886 29.2784 36.2662 29.8675 36.2662Z" fill="white"/>
<path fill-rule="evenodd" clip-rule="evenodd" d="M29.8675 27.733H45.8674C46.4566 27.733 46.9341 27.2554 46.9341 26.6663C46.9341 26.0771 46.4566 25.5996 45.8674 25.5996H29.8675C29.2783 25.5996 28.8008 26.0771 28.8008 26.6663C28.8008 27.2554 29.2784 27.733 29.8675 27.733Z" fill="white"/>
<path fill-rule="evenodd" clip-rule="evenodd" d="M45.8674 17.0664H29.8675C29.2783 17.0664 28.8008 17.5439 28.8008 18.1331C28.8008 18.7222 29.2783 19.1998 29.8675 19.1998H45.8674C46.4566 19.1998 46.9341 18.7222 46.9341 18.1331C46.9341 17.5439 46.4566 17.0664 45.8674 17.0664Z" fill="white"/>
<path d="M40.5344 43.7324H23.4678C21.1114 43.7324 19.2012 45.6427 19.2012 47.9991C19.2012 50.3554 21.1114 52.2657 23.4678 52.2657H40.5344C42.8908 52.2657 44.8011 50.3554 44.8011 47.9991C44.8011 45.6427 42.8909 43.7324 40.5344 43.7324ZM40.5344 50.1324H23.4678C22.2896 50.1324 21.3344 49.1773 21.3344 47.9991C21.3344 46.8209 22.2896 45.8657 23.4678 45.8657H40.5344C41.7126 45.8657 42.6678 46.8209 42.6678 47.9991C42.6678 49.1773 41.7126 50.1324 40.5344 50.1324Z" fill="white"/>
</svg>
