<svg width="81" height="80" viewBox="0 0 81 80" fill="none" xmlns="http://www.w3.org/2000/svg">
<g clip-path="url(#clip0_461_4522)">
<path d="M3.33345 79.9995C2.12933 79.58 1.13806 78.9018 0.720691 77.6371C0.240712 76.1868 0.618434 74.9305 1.69526 73.8578C5.36188 70.1996 9.02224 66.5308 12.6868 62.8705C14.7486 60.8107 16.8146 58.7531 19.1102 56.4638C18.601 56.059 18.0792 55.7167 17.6452 55.2847C14.8655 52.5259 14.8634 49.0909 17.6201 46.3383C19.7007 44.2598 21.7834 42.1855 23.9308 40.0464C23.7159 39.8127 23.5364 39.6061 23.3423 39.412C16.4223 32.4878 9.50431 25.5657 2.58217 18.6435C-0.189183 15.8784 -0.195443 12.4685 2.57174 9.69506C5.10937 7.15117 7.64491 4.60728 10.1888 2.07174C12.9581 -0.691274 16.3868 -0.689188 19.1456 2.06965C25.2935 8.21756 31.4394 14.3675 37.5873 20.5175C37.7166 20.6469 37.8502 20.7701 37.9692 20.9078C38.4554 21.465 38.4763 22.1265 38.0276 22.5898C37.5393 23.0927 36.8798 23.0927 36.2955 22.5355C35.4858 21.7613 34.7074 20.9579 33.9165 20.1649C28.4489 14.6973 22.9834 9.22969 17.5137 3.76418C15.6272 1.87557 13.7031 1.87766 11.8166 3.7621C9.27684 6.30181 6.73504 8.84153 4.19532 11.3833C2.41314 13.1655 2.40062 15.1501 4.16819 16.9177C11.1446 23.8962 18.1231 30.8705 25.0953 37.849C25.2414 37.995 25.3457 38.1829 25.6859 38.6441C25.9426 38.2183 26.0552 37.9053 26.2702 37.6924C38.1173 25.8307 49.9791 13.9815 61.8241 2.11556C63.7586 0.176862 65.9666 -0.549367 68.5584 0.487805C69.3306 0.796661 70.061 1.33507 70.662 1.92148C73.3457 4.53841 75.9626 7.22212 78.6317 9.85575C79.6146 10.8241 80.1468 12.0052 80.4995 13.2991C80.4995 13.8709 80.4995 14.4448 80.4995 15.0166C80.1259 16.8363 78.9802 18.1406 77.7031 19.4073C71.0397 26.0269 64.4097 32.6819 57.7589 39.316C57.544 39.5289 57.2205 39.6353 56.9492 39.7897C56.9784 39.9233 57.0097 40.0548 57.0389 40.1883C57.2748 40.3511 57.544 40.4805 57.7443 40.6788C59.6663 42.5841 61.5862 44.4894 63.4874 46.4176C66.1251 49.093 66.1147 52.553 63.4665 55.2054C63.0095 55.6625 62.4877 56.0527 61.8972 56.5598C62.2791 56.877 62.4919 57.0273 62.6756 57.2088C68.0325 62.5595 73.4 67.9019 78.7236 73.286C79.4331 74.0039 79.9152 74.9451 80.5016 75.784C80.5016 76.2536 80.5016 76.721 80.5016 77.1906C80.0487 78.6138 79.1117 79.5487 77.6906 80.0016C77.221 80.0016 76.7536 80.0016 76.284 80.0016C75.4472 79.4131 74.506 78.9289 73.7881 78.2215C68.7525 73.2485 63.7628 68.2316 58.7627 63.2253C58.2305 62.6931 57.7255 62.1338 57.1328 61.5078C56.6132 62.042 56.1708 62.5115 55.7117 62.9686C53.053 65.6168 49.5826 65.6293 46.9281 62.9936C44.9894 61.0695 43.0653 59.1308 41.1308 57.2005C40.9346 57.0043 40.728 56.8228 40.3941 56.5097C40.1791 56.8019 40.0331 57.0565 39.8327 57.2568C37.9441 59.158 36.0472 61.0507 34.1481 62.9414C31.4477 65.6293 27.9919 65.6439 25.3144 62.9623C24.8574 62.5053 24.4755 61.9752 23.9705 61.3742C23.6387 61.777 23.4905 61.994 23.3068 62.1777C17.9561 67.5346 12.6179 72.9 7.2338 78.2236C6.51592 78.9331 5.57474 79.4152 4.73791 80.0016C4.27045 79.9995 3.8009 79.9995 3.33345 79.9995ZM66.3818 2.36181C65.2716 2.38059 64.416 2.84596 63.6647 3.59932C59.0903 8.19043 54.5034 12.769 49.9186 17.3518C39.6658 27.6045 29.413 37.8552 19.1644 48.108C17.5387 49.7337 17.474 51.7851 19.0329 53.3627C21.7417 56.1028 24.4567 58.8345 27.2197 61.5203C27.6955 61.9836 28.3842 62.3279 29.0332 62.4949C30.4627 62.8642 31.575 62.211 32.5788 61.2052C47.2933 46.4719 62.0203 31.7491 76.7452 17.0241C76.8934 16.876 77.0436 16.732 77.1834 16.5775C78.494 15.1355 78.5128 13.1071 77.1438 11.7151C74.3871 8.91248 71.5948 6.14739 68.8109 3.37185C68.1369 2.69988 67.3042 2.37851 66.3818 2.36181ZM55.4383 41.814C51.0747 46.1776 46.6797 50.5726 42.3015 54.9508C44.5282 57.2005 46.759 59.5315 49.0775 61.7707C50.242 62.8955 52.0993 62.8705 53.3974 61.8959C53.5643 61.7707 53.725 61.6371 53.8711 61.4911C56.5777 58.7886 59.2948 56.0923 61.9827 53.3711C63.3705 51.9645 63.552 49.9194 62.2707 48.5838C60.0399 46.2569 57.6963 44.0365 55.4383 41.814ZM10.6354 68.2316C8.13532 70.7338 5.66656 73.188 3.22076 75.663C2.72826 76.1617 2.7533 76.8087 3.18528 77.274C3.64022 77.7624 4.29758 77.777 4.85686 77.3095C4.95703 77.226 5.04468 77.13 5.1365 77.0382C7.39657 74.7781 9.65874 72.5202 11.9167 70.2601C12.0399 70.137 12.1484 69.9992 12.2673 69.8636C11.7206 69.3147 11.2114 68.8055 10.6354 68.2316ZM68.7108 69.8677C70.4804 71.6353 72.2021 73.357 73.9259 75.0807C74.6604 75.8153 75.3762 76.5708 76.1358 77.2782C76.8704 77.9606 78.0328 77.633 78.0975 76.696C78.1246 76.2807 77.8554 75.7402 77.5487 75.4251C75.3199 73.1358 73.0473 70.8903 70.7872 68.6323C70.6495 68.4946 70.4846 68.3819 70.326 68.2525C69.7876 68.7909 69.293 69.2855 68.7108 69.8677ZM18.9808 59.9238C19.5275 60.4664 20.0597 60.9923 20.6148 61.5453C21.1511 61.0027 21.677 60.4685 22.2238 59.9134C21.6833 59.375 21.1511 58.8449 20.6002 58.2961C20.0576 58.8408 19.5275 59.3729 18.9808 59.9238ZM58.817 59.8946C59.3616 60.4581 59.8833 60.9986 60.3842 61.5161C60.9497 60.9714 61.4902 60.4539 62.0286 59.9364C61.4798 59.3771 60.956 58.8449 60.4343 58.3128C59.875 58.8574 59.3408 59.3833 58.817 59.8946ZM15.744 63.196C16.272 63.7595 16.7812 64.3021 17.2299 64.7821C17.8142 64.2457 18.3631 63.7407 18.8263 63.3129C18.2754 62.7453 17.7599 62.2152 17.2236 61.6643C16.7436 62.1609 16.2407 62.6806 15.744 63.196ZM65.2549 63.3046C64.729 62.7181 64.2324 62.163 63.8129 61.6956C63.2432 62.2528 62.7152 62.7682 62.2415 63.2315C62.7465 63.7261 63.2745 64.2436 63.7795 64.7403C64.2616 64.2708 64.7812 63.7658 65.2549 63.3046ZM13.9848 64.9427C13.4506 65.4958 12.9372 66.0279 12.4844 66.4975C12.9789 67.04 13.4777 67.5868 13.8659 68.0125C14.4564 67.5159 15.0241 67.038 15.5708 66.5768C15.0136 66.005 14.5128 65.4874 13.9848 64.9427ZM65.5534 66.4557C66.0792 67.0484 66.5676 67.5993 67.0142 68.1023C67.5672 67.5409 68.0722 67.0275 68.5647 66.5288C68.0826 66.0237 67.5714 65.4895 67.0475 64.9386C66.507 65.4895 66.002 66.0008 65.5534 66.4557Z" fill="#000066"/>
<path d="M33.4844 7.01164C33.5011 3.13633 36.7003 -0.0106656 40.5881 0.0227242C44.4321 0.0561141 47.5541 3.23024 47.5374 7.08676C47.5207 10.9642 44.3236 14.1091 40.4337 14.0757C36.5939 14.0444 33.4677 10.864 33.4844 7.01164ZM40.4984 11.7342C43.0673 11.7384 45.1813 9.64318 45.1938 7.0805C45.2064 4.50949 43.1237 2.38923 40.561 2.36627C37.9524 2.34332 35.8238 4.45314 35.828 7.05755C35.8301 9.62439 37.9316 11.73 40.4984 11.7342Z" fill="#CB0101"/>
</g>
<defs>
<clipPath id="clip0_461_4522">
<rect width="80" height="80" fill="white" transform="translate(0.5)"/>
</clipPath>
</defs>
</svg>
