<svg width="26" height="28" viewBox="0 0 26 28" fill="none" xmlns="http://www.w3.org/2000/svg">
<path d="M25.0076 25.4954L20.0534 20.5412L20.5162 19.569C20.6438 19.3008 20.5885 18.9796 20.3785 18.7695C20.3785 18.7695 18.842 17.2331 16.8682 15.2593L21.5053 10.6222C21.7151 10.4122 21.7705 10.0909 21.6429 9.82292C21.266 9.03106 20.8058 8.31044 20.1443 7.72367C19.6345 7.27142 19.0511 6.90955 18.437 6.61693C18.1688 6.4891 17.8474 6.54468 17.6376 6.75462L13.0006 11.3916C10.5172 8.90813 8.36375 6.75472 8.36369 6.75467C8.02013 6.41111 7.62578 6.58771 7.25785 6.76285C6.05482 7.33544 5.07687 8.31334 4.50422 9.51648C4.32909 9.88446 4.15317 10.2795 4.4961 10.6224L9.13298 15.2593L5.62282 18.7694C5.41278 18.9794 5.35741 19.3007 5.48508 19.5689L5.94783 20.5411L4.31992 22.169C4.16577 22.3232 4.16577 22.5731 4.31992 22.7273C4.47406 22.8814 4.72397 22.8814 4.87811 22.7273L9.02783 18.5775C9.20823 18.397 9.50186 18.3972 9.68226 18.5775C9.86272 18.7579 9.86272 19.0515 9.68226 19.2319L2.20622 26.708C2.20284 26.7112 2.19746 26.7112 2.19419 26.708L1.55168 26.0655C1.54883 26.0627 1.54888 26.0564 1.55168 26.0536L3.59719 24.008C3.75133 23.8538 3.75133 23.604 3.59719 23.4498C3.4431 23.2957 3.19314 23.2957 3.039 23.4498L0.993432 25.4954C0.842717 25.6461 0.759766 25.8465 0.759766 26.0595C0.759766 26.2727 0.842769 26.4731 0.993484 26.6237L1.636 27.2662C1.79157 27.4217 1.99586 27.4995 2.20015 27.4995C2.4045 27.4995 2.60879 27.4217 2.76436 27.2662L7.71854 22.312L8.69075 22.7747C8.78699 22.8206 8.89003 22.8429 8.99239 22.8429C9.17522 22.8429 9.35563 22.7718 9.49026 22.6372L13.0005 19.1269C14.9742 21.1007 16.5108 22.6373 16.5108 22.6373C16.6455 22.7719 16.8259 22.843 17.0087 22.843C17.111 22.843 17.214 22.8207 17.3102 22.775L18.2824 22.3122L23.2366 27.2663C23.3873 27.4171 23.5877 27.5001 23.8008 27.5001C24.0139 27.5001 24.2143 27.4171 24.365 27.2663L25.0075 26.6239C25.1582 26.4731 25.2412 26.2727 25.2412 26.0597C25.2413 25.8465 25.1583 25.6461 25.0076 25.4954ZM18.1527 7.3559L18.4041 7.47555C19.444 7.97062 20.2893 8.81585 20.7842 9.85566L20.9039 10.1072L13.9334 17.0776L14.5 14.7648C14.5698 14.4802 14.4877 14.1865 14.2805 13.9793C14.0732 13.772 13.7796 13.69 13.495 13.7597L11.1822 14.3263L18.1527 7.3559ZM5.09727 10.1072L5.21693 9.85572C5.71189 8.81585 6.55717 7.97057 7.59699 7.47566L7.84848 7.35595L12.4423 11.9497L9.69107 14.701L5.09727 10.1072ZM12.857 18.1538L8.9752 22.0358L8.31101 21.7197L10.2405 19.7902C10.7286 19.302 10.7286 18.5076 10.2405 18.0194C9.75219 17.5312 8.9578 17.5312 8.46958 18.0194L6.54014 19.9489L6.224 19.2847L10.106 15.403L13.6829 14.5266C13.6897 14.5249 13.7058 14.521 13.7224 14.5376C13.739 14.5542 13.735 14.5702 13.7334 14.5771L12.857 18.1538ZM17.0259 22.0359L13.5588 18.5687L16.31 15.8174L19.7773 19.2847L19.4611 19.9489L17.5317 18.0195C17.2952 17.783 16.9807 17.6527 16.6462 17.6527C16.3117 17.6527 15.9973 17.7829 15.7608 18.0194L15.7607 18.0195C15.5242 18.2559 15.394 18.5704 15.394 18.9049C15.394 19.2394 15.5243 19.5538 15.7607 19.7903L17.6902 21.7198L17.0259 22.0359ZM24.4494 26.0656L23.8069 26.708C23.8042 26.7109 23.7977 26.7109 23.7949 26.708L16.3189 19.232C16.2316 19.1447 16.1834 19.0284 16.1834 18.9049C16.1834 18.7813 16.2316 18.665 16.3189 18.5777L16.319 18.5776C16.4064 18.4902 16.5225 18.4421 16.6462 18.4421C16.7698 18.4421 16.886 18.4902 16.9733 18.5777L24.4494 26.0537C24.4522 26.0565 24.4522 26.0628 24.4494 26.0656Z" fill="#000C28"/>
<path d="M10.2285 7.19297C10.969 7.93347 11.9536 8.34132 13.0008 8.34132C14.048 8.34132 15.0327 7.93347 15.7731 7.19297C16.7766 6.18949 17.1635 4.66251 16.7585 3.30001C16.6965 3.09108 16.4767 2.9719 16.2677 3.03423C16.0587 3.09635 15.9397 3.31615 16.0019 3.52509C16.1744 4.10516 16.1728 4.70924 16.0147 5.27007C15.8824 5.23389 15.7351 5.26748 15.6311 5.37132C15.477 5.52551 15.477 5.77537 15.6311 5.92956L15.7033 6.00175C15.6353 6.11793 15.5596 6.2302 15.4761 6.33783L11.0836 1.94537C11.1915 1.86132 11.3032 1.78496 11.4186 1.71693L11.492 1.79034C11.5691 1.86738 11.67 1.90593 11.7711 1.90593C11.8721 1.90593 11.9732 1.86738 12.0502 1.79028C12.1549 1.68555 12.1883 1.53668 12.1507 1.40363C13.1691 1.1147 14.303 1.35354 15.1348 2.12931C15.2942 2.27797 15.544 2.26922 15.6927 2.10985C15.8414 1.95044 15.8327 1.70063 15.6733 1.55192C14.9283 0.857148 13.9561 0.483525 12.9361 0.500558C10.8584 0.535204 8.92422 2.41476 9.05943 4.53653C9.12139 5.5089 9.5362 6.50062 10.2285 7.19297ZM10.7867 6.63467C9.9586 5.80658 9.69293 4.62639 9.98824 3.57165C10.0219 3.58072 10.0566 3.58562 10.0912 3.58562C10.1922 3.58562 10.2933 3.54708 10.3704 3.47003C10.5245 3.31589 10.5245 3.06598 10.3704 2.91184L10.298 2.83949C10.3657 2.72379 10.442 2.61188 10.5258 2.50388L14.9178 6.89587C14.8104 6.97934 14.6986 7.05565 14.5825 7.12384L14.5096 7.05101C14.3554 6.89692 14.1056 6.89692 13.9514 7.05101C13.8474 7.15506 13.8139 7.30255 13.8502 7.43492C13.5771 7.51143 13.2921 7.55183 13.0008 7.55183C12.1645 7.55183 11.3781 7.22614 10.7867 6.63467Z" fill="#000C28"/>
<path d="M12.957 5.49838C12.8029 5.34429 12.553 5.34429 12.3988 5.49838C12.2447 5.65258 12.2447 5.90243 12.3988 6.05663L12.9162 6.57406C12.9932 6.6511 13.0943 6.68965 13.1953 6.68965C13.2963 6.68965 13.3973 6.6511 13.4744 6.57406C13.6286 6.41986 13.6286 6.17 13.4744 6.01581L12.957 5.49838Z" fill="#000C28"/>
<path d="M11.4043 3.94571C11.2501 3.79152 11.0002 3.79157 10.8461 3.94566C10.6919 4.0998 10.6919 4.34976 10.8461 4.50385L11.3635 5.02128C11.4406 5.09838 11.5416 5.13693 11.6426 5.13693C11.7436 5.13693 11.8446 5.09838 11.9217 5.02133C12.0758 4.86719 12.0758 4.61728 11.9217 4.46314L11.4043 3.94571Z" fill="#000C28"/>
<path d="M12.5258 2.26602C12.3716 2.42016 12.3716 2.67007 12.5258 2.82421L13.0432 3.34164C13.1202 3.41869 13.2213 3.45723 13.3223 3.45723C13.4233 3.45723 13.5243 3.41869 13.6014 3.34159C13.7556 3.18745 13.7556 2.93754 13.6014 2.78339L13.084 2.26602C12.9298 2.11187 12.6799 2.11182 12.5258 2.26602Z" fill="#000C28"/>
<path d="M14.0785 3.8187C13.9244 3.97289 13.9244 4.22275 14.0785 4.37695L14.5959 4.89432C14.673 4.97137 14.774 5.00992 14.875 5.00992C14.976 5.00992 15.077 4.97137 15.1541 4.89432C15.3083 4.74013 15.3083 4.49027 15.1541 4.33608L14.6367 3.81865C14.4825 3.66461 14.2327 3.66461 14.0785 3.8187Z" fill="#000C28"/>
</svg>
