<svg width="54" height="55" viewBox="0 0 54 55" fill="none" xmlns="http://www.w3.org/2000/svg">
<rect y="0.5" width="54" height="54" rx="27" fill="white"/>
<g clip-path="url(#clip0_387_24472)">
<path d="M27.2623 11.7617C21.1629 11.756 15.6094 15.2753 13.0103 20.7933C10.4112 26.3112 11.2345 32.8341 15.1233 37.5332C19.0121 42.2322 25.2659 44.261 31.1726 42.7398C34.3968 43.8664 37.9813 43.0474 40.3964 40.6324C42.8114 38.2174 43.6304 34.6329 42.5038 31.4087C43.7174 26.6981 42.6825 21.6911 39.7009 17.8477C36.7193 14.0043 32.1267 11.7572 27.2623 11.7617ZM40.3923 28.024H41.9336C41.9126 28.6215 41.8551 29.2172 41.7615 29.8076C41.3816 29.1581 40.9216 28.5589 40.3923 28.024ZM27.7869 42.1413V40.6294C28.1872 41.0288 28.6242 41.3896 29.0921 41.7069C28.6853 41.9257 28.2438 42.0727 27.7869 42.1413ZM26.7378 42.1465C24.46 41.8228 22.4671 39.4155 21.2332 35.8724C22.5593 35.6472 23.8973 35.499 25.2406 35.4286C25.4157 36.8426 25.9292 38.1935 26.7378 39.3667V42.1465ZM25.164 34.3191C25.164 34.3406 25.1671 34.3611 25.1671 34.3821C23.7405 34.4581 22.3197 34.6191 20.9122 34.8642C20.2839 32.6374 19.952 30.3375 19.9249 28.024H26.7378V29.2715C25.7118 30.7547 25.1628 32.5156 25.164 34.3191ZM27.7869 12.8534C30.0233 13.1828 32.0277 15.5907 33.2742 19.1333C31.4604 19.4367 29.6258 19.5993 27.7869 19.6196V12.8534ZM26.7378 12.8534V19.6206C24.8918 19.6007 23.0502 19.4372 21.2296 19.1317C22.4655 15.5849 24.4595 13.1781 26.7378 12.8523V12.8534ZM26.7378 20.6698V26.9748H19.9249C19.9522 24.6637 20.2834 22.3662 20.9101 20.1415C22.8355 20.4724 24.7843 20.6487 26.7378 20.6687V20.6698ZM18.8757 26.9748H12.5869C12.6905 23.971 13.718 21.0722 15.5294 18.6737C16.9401 19.2079 18.3912 19.6289 19.8688 19.9327C19.2336 22.2271 18.8998 24.5943 18.8757 26.9748ZM18.8757 28.024C18.9001 30.4033 19.2337 32.7692 19.8683 35.0624C18.3903 35.3669 16.9391 35.7887 15.5283 36.3241C13.7178 33.9256 12.6907 31.0273 12.5869 28.024H18.8757ZM29.0344 26.9748H27.7869V20.6687C29.7353 20.6484 31.6789 20.473 33.5994 20.1442C34.0961 21.8659 34.4074 23.6357 34.5279 25.4236C34.3795 25.4163 34.2326 25.4011 34.082 25.4011C32.2786 25.3999 30.5176 25.9489 29.0344 26.9748ZM35.5865 25.538C35.4724 23.6427 35.1538 21.7654 34.6365 19.9385C36.1208 19.6335 37.5783 19.2106 38.9953 18.6737C40.8067 21.0722 41.8342 23.971 41.9378 26.9748H39.1296C38.0672 26.2439 36.858 25.7535 35.5865 25.538ZM38.2924 17.815C36.9977 18.2855 35.6698 18.6592 34.3197 18.9329C33.4745 16.4741 32.2738 14.5053 30.8574 13.2573C33.7395 13.9898 36.3319 15.5789 38.2924 17.815ZM23.6191 13.2689C22.2043 14.5174 21.0197 16.483 20.1867 18.9287C18.8428 18.6558 17.5211 18.2836 16.2323 17.815C18.1815 15.5915 20.7558 14.0072 23.6191 13.2689ZM16.2302 37.1813C17.5192 36.7125 18.8411 36.3399 20.1851 36.0665C21.0187 38.5137 22.2037 40.4809 23.6191 41.7321C20.7544 40.9929 18.1794 39.4069 16.2302 37.1813ZM34.082 42.188C29.7362 42.188 26.2132 38.6649 26.2132 34.3191C26.2132 29.9733 29.7362 26.4502 34.082 26.4502C38.4279 26.4502 41.9509 29.9733 41.9509 34.3191C41.946 38.6629 38.4258 42.183 34.082 42.188Z" fill="#0D4EE3"/>
<path d="M36.7049 32.7452C36.7013 31.7913 36.0548 30.9598 35.1311 30.7213V30.1222C35.1311 29.8325 34.8962 29.5977 34.6065 29.5977C34.3168 29.5977 34.0819 29.8325 34.0819 30.1222V30.6468H33.5573V30.1222C33.5573 29.8325 33.3225 29.5977 33.0328 29.5977C32.743 29.5977 32.5082 29.8325 32.5082 30.1222V30.6468H31.9836C31.6939 30.6468 31.459 30.8817 31.459 31.1714C31.459 31.4611 31.6939 31.696 31.9836 31.696V33.7944C31.6939 33.7944 31.459 34.0292 31.459 34.319C31.459 34.6087 31.6939 34.8436 31.9836 34.8436V36.9419C31.6939 36.9419 31.459 37.1768 31.459 37.4665C31.459 37.7562 31.6939 37.9911 31.9836 37.9911H32.5082V38.5157C32.5082 38.8054 32.743 39.0403 33.0328 39.0403C33.3225 39.0403 33.5573 38.8054 33.5573 38.5157V37.9911H34.0819V38.5157C34.0819 38.8054 34.3168 39.0403 34.6065 39.0403C34.8962 39.0403 35.1311 38.8054 35.1311 38.5157V37.9166C35.8853 37.727 36.4708 37.1327 36.6494 36.3759C36.828 35.619 36.5698 34.8257 35.9799 34.319C36.4384 33.9244 36.7029 33.3501 36.7049 32.7452ZM35.6557 35.8927C35.6557 36.4722 35.186 36.9419 34.6065 36.9419H33.0328V34.8436H34.6065C35.186 34.8436 35.6557 35.3133 35.6557 35.8927ZM33.0328 33.7944V31.696H34.6065C35.186 31.696 35.6557 32.1658 35.6557 32.7452C35.6557 33.3246 35.186 33.7944 34.6065 33.7944H33.0328Z" fill="#0D4EE3"/>
<path d="M34.0814 27.5C30.315 27.5 27.2617 30.5533 27.2617 34.3197C27.2617 38.0861 30.315 41.1393 34.0814 41.1393C37.8478 41.1393 40.9011 38.0861 40.9011 34.3197C40.8967 30.5551 37.846 27.5043 34.0814 27.5ZM34.0814 40.0902C30.8944 40.0902 28.3109 37.5066 28.3109 34.3197C28.3109 31.1327 30.8944 28.5492 34.0814 28.5492C37.2683 28.5492 39.8519 31.1327 39.8519 34.3197C39.8481 37.5051 37.2668 40.0864 34.0814 40.0902Z" fill="#0D4EE3"/>
</g>
<defs>
<clipPath id="clip0_387_24472">
<rect width="32" height="32" fill="white" transform="translate(11 11.5)"/>
</clipPath>
</defs>
</svg>
