<svg width="24" height="24" viewBox="0 0 24 24" fill="none" xmlns="http://www.w3.org/2000/svg">
<path d="M15 14.25C15 14.6478 14.842 15.0294 14.5607 15.3107C14.2794 15.592 13.8978 15.75 13.5 15.75H12.75V12.75H13.5C13.8978 12.75 14.2794 12.908 14.5607 13.1893C14.842 13.4706 15 13.8522 15 14.25ZM21.75 12C21.75 13.9284 21.1782 15.8134 20.1068 17.4168C19.0355 19.0202 17.5127 20.2699 15.7312 21.0078C13.9496 21.7458 11.9892 21.9389 10.0979 21.5627C8.20656 21.1865 6.46928 20.2579 5.10571 18.8943C3.74215 17.5307 2.81355 15.7934 2.43735 13.9021C2.06114 12.0108 2.25422 10.0504 2.99218 8.26884C3.73013 6.48726 4.97982 4.96451 6.58319 3.89317C8.18657 2.82183 10.0716 2.25 12 2.25C14.585 2.25273 17.0634 3.28084 18.8913 5.10872C20.7192 6.93661 21.7473 9.41498 21.75 12ZM16.5 14.25C16.5 13.4544 16.1839 12.6913 15.6213 12.1287C15.0587 11.5661 14.2957 11.25 13.5 11.25H12.75V8.25H13.125C13.5228 8.25 13.9044 8.40804 14.1857 8.68934C14.467 8.97064 14.625 9.35218 14.625 9.75C14.625 9.94891 14.704 10.1397 14.8447 10.2803C14.9853 10.421 15.1761 10.5 15.375 10.5C15.5739 10.5 15.7647 10.421 15.9053 10.2803C16.046 10.1397 16.125 9.94891 16.125 9.75C16.125 8.95435 15.8089 8.19129 15.2463 7.62868C14.6837 7.06607 13.9207 6.75 13.125 6.75H12.75V6C12.75 5.80109 12.671 5.61032 12.5303 5.46967C12.3897 5.32902 12.1989 5.25 12 5.25C11.8011 5.25 11.6103 5.32902 11.4697 5.46967C11.329 5.61032 11.25 5.80109 11.25 6V6.75H10.875C10.0794 6.75 9.31629 7.06607 8.75368 7.62868C8.19107 8.19129 7.875 8.95435 7.875 9.75C7.875 10.5456 8.19107 11.3087 8.75368 11.8713C9.31629 12.4339 10.0794 12.75 10.875 12.75H11.25V15.75H10.5C10.1022 15.75 9.72065 15.592 9.43934 15.3107C9.15804 15.0294 9 14.6478 9 14.25C9 14.0511 8.92099 13.8603 8.78033 13.7197C8.63968 13.579 8.44892 13.5 8.25 13.5C8.05109 13.5 7.86033 13.579 7.71967 13.7197C7.57902 13.8603 7.5 14.0511 7.5 14.25C7.5 15.0456 7.81607 15.8087 8.37868 16.3713C8.94129 16.9339 9.70435 17.25 10.5 17.25H11.25V18C11.25 18.1989 11.329 18.3897 11.4697 18.5303C11.6103 18.671 11.8011 18.75 12 18.75C12.1989 18.75 12.3897 18.671 12.5303 18.5303C12.671 18.3897 12.75 18.1989 12.75 18V17.25H13.5C14.2957 17.25 15.0587 16.9339 15.6213 16.3713C16.1839 15.8087 16.5 15.0456 16.5 14.25ZM9.375 9.75C9.375 10.1478 9.53304 10.5294 9.81434 10.8107C10.0956 11.092 10.4772 11.25 10.875 11.25H11.25V8.25H10.875C10.4772 8.25 10.0956 8.40804 9.81434 8.68934C9.53304 8.97064 9.375 9.35218 9.375 9.75Z" fill="black"/>
</svg>
