<svg width="48" height="48" viewBox="0 0 48 48" fill="none" xmlns="http://www.w3.org/2000/svg">
<g clip-path="url(#clip0_387_23008)">
<path d="M46.3995 38.4H43.1995V32C43.1995 31.1163 42.4831 30.4 41.5995 30.4H37.5635C37.4538 29.5343 36.9933 28.7516 36.2899 28.2352C36.9017 26.9526 36.9601 25.475 36.4515 24.1481C35.9429 22.8211 34.9119 21.7611 33.5995 21.216V19.5592C34.102 19.1738 34.3974 18.5773 34.3995 17.944V14.056C34.3974 13.4227 34.102 12.8262 33.5995 12.4408V8.736C33.5995 3.7552 29.4723 0 23.9995 0C18.5267 0 14.3995 3.7552 14.3995 8.736V12.4408C13.897 12.8262 13.6016 13.4227 13.5995 14.056V17.944C13.6016 18.5773 13.897 19.1738 14.3995 19.5592V21.216C13.0872 21.761 12.0561 22.8208 11.5475 24.1476C11.0389 25.4744 11.0973 26.9519 11.7091 28.2344C11.0057 28.7512 10.5453 29.5341 10.4355 30.4H6.39949C5.51583 30.4 4.79949 31.1163 4.79949 32V38.4H1.59949C1.06866 38.4002 0.572502 38.6637 0.275025 39.1034C-0.0224522 39.543 -0.0825164 40.1016 0.114687 40.5944L1.16269 43.2L0.112287 45.8112C-0.0826772 46.3038 -0.021153 46.861 0.276593 47.2992C0.574338 47.7374 1.06969 47.9998 1.59949 48H7.99949C8.88314 48 9.59949 47.2837 9.59949 46.4V44.8H38.3995V46.4C38.3995 47.2837 39.1158 48 39.9995 48H46.3995C46.9305 48 47.4269 47.7367 47.7245 47.297C48.0222 46.8573 48.0823 46.2986 47.8851 45.8056L46.8363 43.2L47.8867 40.5864C48.0806 40.0941 48.0186 39.5377 47.721 39.1001C47.4234 38.6626 46.9287 38.4005 46.3995 38.4ZM23.3707 4.8H24.6283C28.6923 4.8 31.9995 7.7248 31.9995 11.3192V12H30.5891C29.8011 11.4152 26.6107 9.66 24.8819 8.3136C24.3625 7.91089 23.6364 7.91089 23.1171 8.3136C21.2083 9.7984 18.3403 11.316 17.4107 12H15.9995V11.3192C15.9995 7.7248 19.3067 4.8 23.3707 4.8ZM27.9531 21.3312C26.0987 24.7024 23.7867 26.16 21.3019 23.2H23.9995C24.4413 23.2 24.7995 22.8418 24.7995 22.4C24.7995 21.9582 24.4413 21.6 23.9995 21.6H20.2019C19.706 20.7339 19.278 19.8307 18.9219 18.8984C18.2619 17.1952 18.3995 17.6336 18.3995 13.2552C19.1787 12.7088 22.2267 11.0072 23.9995 9.6552C25.8395 11.0632 29.0723 12.8552 29.5995 13.2552C29.5995 17.276 29.6459 17.2736 29.4595 17.836C29.0607 19.0429 28.5566 20.2125 27.9531 21.3312ZM15.6555 18.4C15.5342 18.4011 15.4176 18.3534 15.3319 18.2676C15.2461 18.1819 15.1984 18.0653 15.1995 17.944V14.056C15.1984 13.9347 15.2461 13.8181 15.3319 13.7324C15.4176 13.6466 15.5342 13.5989 15.6555 13.6H16.7995C16.7995 17.1376 16.7283 17.452 17.0203 18.34C17.0491 18.4264 17.1995 18.4 15.6555 18.4ZM30.9795 18.3384C31.2723 17.4464 31.1995 17.12 31.1995 13.6H32.3435C32.4648 13.5989 32.5814 13.6466 32.6671 13.7324C32.7529 13.8181 32.8006 13.9347 32.7995 14.056V17.944C32.8006 18.0653 32.7529 18.1819 32.6671 18.2676C32.5814 18.3534 32.4648 18.4011 32.3435 18.4C30.7483 18.4 30.9507 18.4248 30.9795 18.3384ZM17.6419 20C17.8483 20.4968 18.0947 21.04 18.3795 21.6H17.5995C16.7158 21.6 15.9995 20.8837 15.9995 20H17.6419ZM20.7995 27.44V24.9856C22.7731 26.8168 25.1043 26.9296 27.1995 24.9856V27.44C27.2179 28.2734 26.878 29.0746 26.2661 29.6406C25.6542 30.2067 24.8289 30.4831 23.9995 30.4C23.172 30.4745 22.3518 30.1951 21.7419 29.6309C21.132 29.0668 20.7896 28.2707 20.7995 27.44ZM28.7379 28.1472L34.6851 29.228C35.2961 29.3415 35.7861 29.7984 35.9419 30.4H27.7475C28.2667 29.7472 28.6079 28.9711 28.7379 28.1472ZM34.8107 27.6256L28.7995 26.5328V23.0328C29.4087 22.0707 29.93 21.0556 30.3571 20H31.9995V24C31.9995 24.4418 32.3577 24.8 32.7995 24.8C33.2413 24.8 33.5995 24.4418 33.5995 24V23.012C35.1103 24.0234 35.6299 26.0025 34.8107 27.6256ZM31.4859 6.0952C29.699 4.22296 27.2163 3.17478 24.6283 3.2H23.3707C20.7827 3.17478 18.3 4.22296 16.5131 6.0952C18.9595 0.0888001 29.0347 0.0799999 31.4859 6.0952ZM14.3995 23.012V24C14.3995 24.4418 14.7577 24.8 15.1995 24.8C15.6413 24.8 15.9995 24.4418 15.9995 24V22.7552C16.9643 23.3152 17.6387 23.2 19.1995 23.2V26.5328L13.1883 27.6256C12.3691 26.0025 12.8887 24.0234 14.3995 23.012ZM13.3131 29.228L19.2611 28.1472C19.3911 28.9711 19.7323 29.7472 20.2515 30.4H12.0571C12.2128 29.7986 12.7024 29.3417 13.3131 29.228ZM41.5995 32V43.2H6.39949V32H41.5995ZM7.99949 46.4H1.59949L2.65469 43.776C2.795 43.3978 2.79272 42.9814 2.64829 42.6048L1.59949 40H4.79949V43.2C4.79949 44.0837 5.51583 44.8 6.39949 44.8H7.99949V46.4ZM45.3515 43.7936L46.3995 46.4H39.9995V44.8H41.5995C42.4831 44.8 43.1995 44.0837 43.1995 43.2V40H46.3995L45.3443 42.6248C45.2046 43.0026 45.2072 43.4175 45.3515 43.7936Z" fill="#02BE91"/>
<path d="M10.9248 38.7845L10.6928 40.2021C10.6131 40.6497 10.7964 41.1035 11.1646 41.3702C11.5329 41.6369 12.0212 41.6695 12.4216 41.4541L13.6 40.8077C14.7544 41.4421 14.936 41.6005 15.3424 41.6005C15.6929 41.5972 16.0242 41.4401 16.2486 41.1709C16.473 40.9017 16.5679 40.5475 16.508 40.2021L16.2752 38.7845L17.2552 37.7853C17.5702 37.4645 17.6804 36.995 17.5409 36.5675C17.4015 36.1401 17.0356 35.8258 16.592 35.7525L15.2664 35.5509L14.6664 34.2829C14.474 33.8675 14.0578 33.6016 13.6 33.6016C13.1421 33.6016 12.726 33.8675 12.5336 34.2829L11.9336 35.5525L10.608 35.7541C10.1644 35.8274 9.79851 36.1417 9.65906 36.5691C9.5196 36.9966 9.62977 37.4661 9.94479 37.7869L10.9248 38.7845ZM13.6 35.7701L13.912 36.4301C14.0787 36.7879 14.4131 37.0388 14.8032 37.0989L15.5728 37.2165L14.996 37.8037C14.724 38.0791 14.6005 38.4683 14.664 38.8501L14.7936 39.6381L14.1608 39.2901C13.8107 39.0981 13.3869 39.0981 13.0368 39.2901L12.4064 39.6365C12.6376 38.2309 12.7264 38.3349 11.6272 37.2149C12.96 37.0141 12.96 37.1293 13.6 35.7701Z" fill="#02BE91"/>
<path d="M31.7236 38.7845L31.4916 40.2021C31.4112 40.6499 31.5944 41.1042 31.9628 41.371C32.3313 41.6379 32.82 41.6702 33.2204 41.4541L34.3988 40.8077C35.5532 41.4421 35.7348 41.6005 36.1412 41.6005C36.4917 41.5972 36.823 41.4401 37.0475 41.1709C37.2719 40.9017 37.3667 40.5475 37.3068 40.2021L37.074 38.7845L38.054 37.7853C38.369 37.4645 38.4792 36.995 38.3398 36.5675C38.2003 36.1401 37.8344 35.8258 37.3908 35.7525L36.0652 35.5509L35.4652 34.2829C35.2728 33.8675 34.8567 33.6016 34.3988 33.6016C33.941 33.6016 33.5248 33.8675 33.3324 34.2829L32.7324 35.5525L31.4068 35.7541C30.9632 35.8274 30.5973 36.1417 30.4579 36.5691C30.3184 36.9966 30.4286 37.4661 30.7436 37.7869L31.7236 38.7845ZM34.3988 35.7701L34.7108 36.4301C34.8775 36.7879 35.2119 37.0388 35.602 37.0989L36.3716 37.2165L35.7948 37.8037C35.5228 38.0791 35.3993 38.4683 35.4628 38.8501L35.5924 39.6381L34.9596 39.2901C34.6095 39.0981 34.1857 39.0981 33.8356 39.2901L33.2052 39.6365C33.4364 38.2309 33.5252 38.3349 32.426 37.2149C33.7588 37.0141 33.7588 37.1293 34.3988 35.7701Z" fill="#02BE91"/>
<path d="M21.3252 38.7845L21.0932 40.2021C21.0128 40.6499 21.1959 41.1042 21.5644 41.371C21.9329 41.6379 22.4216 41.6702 22.822 41.4541L24.0004 40.8077C25.1548 41.4421 25.3364 41.6005 25.7428 41.6005C26.0933 41.5972 26.4246 41.4401 26.649 41.1709C26.8734 40.9017 26.9683 40.5475 26.9084 40.2021L26.6756 38.7845L27.6556 37.7853C27.9706 37.4645 28.0808 36.995 27.9413 36.5675C27.8019 36.1401 27.436 35.8258 26.9924 35.7525L25.6668 35.5509L25.0668 34.2829C24.8744 33.8675 24.4582 33.6016 24.0004 33.6016C23.5425 33.6016 23.1264 33.8675 22.934 34.2829L22.334 35.5525L21.0084 35.7541C20.5648 35.8274 20.1989 36.1417 20.0594 36.5691C19.92 36.9966 20.0302 37.4661 20.3452 37.7869L21.3252 38.7845ZM24.0004 35.7701L24.3124 36.4301C24.4791 36.7879 24.8135 37.0388 25.2036 37.0989L25.9732 37.2165L25.3964 37.8037C25.1243 38.0791 25.0009 38.4683 25.0644 38.8501L25.194 39.6381L24.5612 39.2901C24.2111 39.0981 23.7873 39.0981 23.4372 39.2901L22.8068 39.6365C23.038 38.2309 23.1268 38.3349 22.0276 37.2149C23.3604 37.0141 23.3604 37.1293 24.0004 35.7701Z" fill="#02BE91"/>
</g>
<defs>
<clipPath id="clip0_387_23008">
<rect width="48" height="48" fill="white"/>
</clipPath>
</defs>
</svg>
