<svg width="80" height="80" viewBox="0 0 80 80" fill="none" xmlns="http://www.w3.org/2000/svg">
<path d="M80 0H0V80H80V0Z" fill="url(#paint0_linear)"/>
<path d="M78 2H2V78H78V2Z" fill="white"/>
<path d="M56.4091 52.091H50.3631C49.4561 52.091 48.5571 51.9123 47.7191 51.5651C46.8811 51.2179 46.1191 50.709 45.4781 50.0674C44.8361 49.4258 44.3271 48.6642 43.9801 47.826C43.6331 46.9877 43.4541 46.0893 43.4541 45.182C43.4541 44.2747 43.6331 43.3763 43.9801 42.538C44.3271 41.6998 44.8361 40.9382 45.4781 40.2966C46.1191 39.655 46.8811 39.1461 47.7191 38.7989C48.5571 38.4517 49.4561 38.273 50.3631 38.273H56.4081C56.5221 38.2731 56.6341 38.2509 56.7391 38.2075C56.8441 38.1641 56.9391 38.1005 57.0191 38.0202C57.1001 37.94 57.1631 37.8447 57.2071 37.7398C57.2501 37.6349 57.2721 37.5225 57.2721 37.409V34.819C57.2701 33.9527 56.9411 33.1191 56.3521 32.484C55.7631 31.849 54.9561 31.4591 54.0921 31.392L49.1321 22.729C48.9091 22.3367 48.6101 21.9925 48.2531 21.7163C47.8961 21.4402 47.4871 21.2374 47.0521 21.1199C46.6161 21.0024 46.1611 20.9724 45.7131 21.0316C45.2661 21.0908 44.8341 21.2381 44.4441 21.465L27.4441 31.365H24.4551C23.5391 31.365 22.6601 31.7288 22.0111 32.3764C21.3631 33.0241 20.9981 33.9026 20.9971 34.819V55.546C20.9981 56.4624 21.3631 57.341 22.0111 57.9886C22.6601 58.6362 23.5391 59 24.4551 59H53.8181C54.7341 58.9992 55.6121 58.6349 56.2601 57.9872C56.9081 57.3394 57.2721 56.4611 57.2731 55.545V52.955C57.2731 52.8415 57.2511 52.7291 57.2081 52.6242C57.1641 52.5193 57.1011 52.424 57.0201 52.3438C56.9401 52.2635 56.8451 52.1999 56.7401 52.1565C56.6351 52.1131 56.5231 52.0909 56.4091 52.091ZM50.2091 28.077L52.0911 31.364H44.5581L50.2091 28.077ZM30.8741 31.364L45.3131 22.958C45.5051 22.8451 45.7171 22.7716 45.9381 22.7419C46.1581 22.7122 46.3821 22.7269 46.5971 22.785C46.8141 22.8428 47.0181 22.9433 47.1961 23.0807C47.3741 23.218 47.5231 23.3895 47.6341 23.585L34.2831 31.364H30.8741Z" fill="#411512"/>
<path d="M56.4109 40H50.3658C49.0038 40.0189 47.7048 40.5732 46.7488 41.5428C45.7918 42.5125 45.2559 43.8196 45.2559 45.1815C45.2559 46.5434 45.7918 47.8505 46.7488 48.8202C47.7048 49.7899 49.0038 50.3441 50.3658 50.363H56.4109C57.0979 50.3622 57.7569 50.089 58.2419 49.6032C58.7279 49.1175 59.0009 48.4589 59.0019 47.772V42.59C59.0009 41.9033 58.7279 41.2449 58.2419 40.7594C57.7559 40.2739 57.0979 40.0008 56.4109 40ZM50.3658 46.909C50.0248 46.909 49.6909 46.8077 49.4069 46.618C49.1229 46.4282 48.9008 46.1585 48.7708 45.8429C48.6398 45.5273 48.6058 45.1801 48.6718 44.8451C48.7388 44.5101 48.9028 44.2024 49.1448 43.9608C49.3858 43.7193 49.6938 43.5548 50.0288 43.4882C50.3638 43.4216 50.7109 43.4558 51.0269 43.5865C51.3429 43.7172 51.6118 43.9385 51.8018 44.2225C51.9918 44.5065 52.0928 44.8404 52.0928 45.182C52.0928 45.6404 51.9098 46.0798 51.5858 46.4037C51.2608 46.7275 50.8209 46.9093 50.3629 46.909H50.3658Z" fill="#D92400"/>
<defs>
<linearGradient id="paint0_linear" x1="4.8" y1="-1.20779e-06" x2="80" y2="85.52" gradientUnits="userSpaceOnUse">
<stop stop-color="#D92400"/>
<stop offset="0.527" stop-color="#D90039" stop-opacity="0.098"/>
<stop offset="1" stop-color="#D90039"/>
</linearGradient>
</defs>
</svg>
