<svg width="169" height="101" viewBox="0 0 169 101" fill="none" xmlns="http://www.w3.org/2000/svg">
<path d="M9 89H169C169 89 147.823 101 89.0186 101C30.2142 101 9 89 9 89Z" fill="#D4DCBD"/>
<path d="M151.405 46.2058C151.829 45.3671 151.491 44.3441 150.651 43.921C149.811 43.4979 148.786 43.8348 148.362 44.6735C147.938 45.5123 148.276 46.5352 149.116 46.9583C149.956 47.3815 150.981 47.0445 151.405 46.2058Z" fill="#94B052"/>
<g clip-path="url(#clip0)">
<path opacity="0.1" d="M85.1604 95.6813C121.235 95.6813 150.48 94.1036 150.48 92.1574C150.48 90.2112 121.235 88.6335 85.1604 88.6335C49.0854 88.6335 19.8408 90.2112 19.8408 92.1574C19.8408 94.1036 49.0854 95.6813 85.1604 95.6813Z" fill="#D4DCBD"/>
<path d="M136.002 21.3221V77.0659" stroke="#1B2C40" stroke-width="3.8063" stroke-miterlimit="10"/>
<path d="M125.2 21.1178C125.2 21.1178 134.674 25.1269 146.829 20.6327L140.266 5.7455L130.537 5.51569L125.2 21.1178Z" fill="#94B052"/>
<path d="M142.845 11.5931C139.015 15.9086 132.835 17.7472 126.324 17.8749L125.226 21.1178C125.226 21.1178 134.699 25.1269 146.854 20.6327L142.845 11.5931Z" fill="#7B9B30"/>
<path d="M19.458 53.6754C18.3599 52.7051 16.4192 51.5305 14.1977 50.458C13.2784 51.888 12.257 53.5222 12.0782 53.8797C12.0527 53.9308 12.0527 53.9563 12.0527 53.9308C12.0527 53.9308 12.0527 53.9053 12.0782 53.8797C12.2314 53.4967 12.9209 51.6326 13.4827 50.126C12.1293 49.5132 10.6993 48.9514 9.29486 48.4917L8.65648 52.0922L8.91183 48.3641C4.51974 47.0107 0.485147 46.8064 0.0510448 49.6664C-0.0766322 50.458 0.229793 51.3262 0.842643 52.2199C2.50244 52.0667 4.90277 51.8624 4.90277 51.8624L1.42996 52.986C2.7578 54.5436 4.92831 56.1268 7.40524 57.5824L9.39701 53.4456L7.78828 57.8122C10.4184 59.2932 13.355 60.6211 16.0873 61.5148C16.2916 60.4934 16.4448 59.7784 16.4448 59.7784L16.5214 61.668C17.0576 61.8468 17.5683 61.9744 18.0535 62.1277L18.2578 61.2595L18.4365 62.2298C20.9135 62.8427 23.0329 62.9959 24.2075 62.4852C24.2075 62.4341 25.0502 58.6548 19.458 53.6754Z" fill="#94B052"/>
<path d="M23.9004 62.5363C24.0026 62.5107 24.1047 62.4597 24.2069 62.4341C24.2069 62.4341 25.0495 58.6804 19.4573 53.6755C18.3593 52.7051 16.4186 51.5305 14.197 50.458C13.3799 51.7348 12.4861 53.1392 12.1797 53.701C16.2909 55.6672 20.4787 58.5017 23.9004 62.5363Z" fill="#7B9B30"/>
<path d="M12.1546 53.6754C12.3844 53.0626 12.9972 51.4539 13.4824 50.126C12.129 49.5132 10.6991 48.9514 9.2946 48.4917L8.65622 52.0922L8.91157 48.3641C4.51948 47.0107 0.484883 46.8064 0.0507812 49.6664C0.0507812 49.7174 0.0507812 49.743 0.0507812 49.7941C3.1661 50.3814 7.60926 51.5049 12.1546 53.6754Z" fill="#7B9B30"/>
<path d="M25.3819 48.262L23.4667 48.6961L25.2032 47.7513C25.0244 47.2406 24.8201 46.7043 24.5392 46.1425C24.003 44.9934 23.2369 43.6656 22.3687 42.4144L20.6579 43.7167L21.858 41.6994C19.2023 38.0733 15.6784 35.1623 13.9676 37.9967C13.2526 39.1714 13.2015 41.0354 13.7122 43.1038L17.6191 42.9761L13.8399 43.6656C14.2229 45.0956 14.8613 46.6022 15.6784 48.0577L17.0063 47.4704L15.8572 48.3896C16.7254 49.8707 17.7979 51.2752 19.0491 52.4753L21.7303 49.5387L19.4066 52.8328C21.0409 54.3139 22.9305 55.4374 24.9989 55.8715C25.0499 55.8715 26.9396 53.2158 25.3819 48.262Z" fill="#94B052"/>
<path d="M24.897 55.846C24.9481 55.846 24.9991 55.8715 25.0502 55.8715C25.0502 55.8715 26.9398 53.2158 25.3822 48.262L23.467 48.6961L25.2034 47.7513C25.0247 47.2406 24.8204 46.7043 24.5395 46.1425C24.0033 44.9934 23.2372 43.6656 22.369 42.4144L20.6581 43.7167L21.8583 41.6994C19.3814 38.3032 16.1128 35.5198 14.2998 37.5882C15.7553 39.5289 21.8583 48.0066 24.897 55.846Z" fill="#7B9B30"/>
<path d="M29.5704 33.2726L26.9913 34.1409L29.5193 32.5577C29.4938 32.3023 29.4682 32.0725 29.4427 31.8171L28.0893 32.0725L29.3916 31.2809C29.0852 29.3657 28.4468 26.9909 27.5276 24.5395L22.4971 26.4802L27.2977 23.9522C26.0465 20.6581 24.3612 17.3641 22.5226 15.0914L19.8159 17.0066L21.9608 14.453C20.301 12.6145 18.5391 11.6697 16.8793 12.3847C14.8875 13.2784 14.3002 17.5684 14.9131 22.7265L16.2664 22.701L14.9386 22.9563C15.2195 25.229 15.7302 27.6549 16.4452 30.0296L21.6033 28.2932L16.675 30.7957C17.773 34.1919 19.2796 37.4349 21.1437 39.9374L23.1865 37.8946L21.5267 40.4226C23.1099 42.3888 24.9229 43.7932 26.9402 44.3295C26.9913 44.3295 29.8768 39.5033 29.5704 33.2726Z" fill="#94B052"/>
<path d="M26.9909 44.3295C26.9909 44.3295 29.8509 39.5033 29.57 33.2726L26.9909 34.1409L29.5189 32.5577C29.4934 32.3023 29.4679 32.0725 29.4423 31.8171L28.089 32.0725L29.3913 31.2809C29.0848 29.3657 28.4465 26.9909 27.5272 24.5395L22.4967 26.4802L27.2974 23.9522C26.0461 20.6581 24.3608 17.3641 22.5222 15.0914L19.8155 17.0066L21.9605 14.453C20.3007 12.6145 18.5387 11.6697 16.8789 12.3847C16.8789 12.3847 24.3863 30.2595 26.8122 44.304C26.8888 44.304 26.9399 44.304 26.9909 44.3295Z" fill="#7B9B30"/>
<path d="M37.3333 46.0404L38.6101 46.3213C38.8144 45.9893 38.9931 45.6318 39.1718 45.2743L34.7798 42.6442L39.3761 44.8913C40.8317 41.9547 42.0574 38.4563 42.9256 35.0091L38.3292 33.528L43.0532 34.5494C43.8193 31.4596 44.3045 28.4209 44.4577 25.8929L40.8827 25.2545L44.4832 25.3567C44.6364 22.1647 44.2279 19.8666 43.1809 19.4325C41.1381 18.5642 37.8185 19.7644 34.4223 26.8122L36.5162 27.7059L34.1924 27.3229C33.4264 28.9572 32.6603 30.8979 31.8943 33.1705C31.5878 34.1153 31.3069 35.0091 31.0516 35.8773L34.8053 38.1499L30.7962 36.8476C30.7196 37.1285 30.643 37.4349 30.5664 37.7158L32.2518 38.8904L30.4898 38.0478C29.6982 41.3929 29.4684 44.0486 29.5195 46.0914L31.7666 46.0404L29.5195 46.4489C29.6982 50.9176 31.2814 52.4753 31.2814 52.4753C34.5499 51.5049 36.4396 50.075 38.4824 46.6021L37.3333 46.0404Z" fill="#94B052"/>
<path d="M43.1548 19.4324C43.1037 19.4069 43.0526 19.4069 43.0271 19.3813C36.5411 27.7059 32.0724 48.8748 31.3574 52.4497C34.5749 51.4794 36.439 50.0494 38.4563 46.6021L37.3327 46.0403L38.6095 46.3212C38.8138 45.9892 38.9925 45.6318 39.1713 45.2743L34.7792 42.6441L39.3755 44.8912C40.8311 41.9547 42.0568 38.4563 42.925 35.009L38.3286 33.528L43.0526 34.5494C43.8187 31.4596 44.3039 28.4209 44.4571 25.8929L40.8821 25.2545L44.4826 25.3566C44.6103 22.1647 44.2017 19.8665 43.1548 19.4324Z" fill="#7B9B30"/>
<path d="M5.74512 51.2496C8.0433 52.2199 27.6034 57.0717 28.7015 75.4316C28.7015 75.4316 30.4123 44.3295 21.1685 24.4119" stroke="#1B262C" stroke-width="0.9516" stroke-miterlimit="10" stroke-linecap="round" stroke-linejoin="round"/>
<path d="M18.2578 43.1037C18.2578 43.1037 28.7018 57.6845 28.7018 75.4316C30.285 44.4571 38.5329 27.5527 38.5329 27.5527" stroke="#1B262C" stroke-width="0.9516" stroke-miterlimit="10" stroke-linecap="round" stroke-linejoin="round"/>
<path d="M32.3539 72.5206H23.9272C23.9272 72.5206 21.6546 90.6762 28.9577 92.7702C36.2353 94.8641 32.3539 72.5206 32.3539 72.5206Z" fill="#4381BD"/>
<path d="M87.0498 46.6021C87.0498 40.2693 85.1092 38.3031 82.6833 38.3031H48.0062C45.6059 38.3031 43.6396 38.2776 43.6396 44.6104V78.4193C43.6396 76.9127 45.5803 78.8534 48.0062 78.8534H82.6833C85.0836 78.8534 87.0498 76.9127 87.0498 78.4193V46.6021Z" fill="#F29456"/>
<path d="M130.46 44.6359C130.46 38.3031 128.519 38.3287 126.093 38.3287H91.4164C89.016 38.3287 87.0498 38.3031 87.0498 44.6359V78.4448C87.0498 76.9382 88.9905 78.8789 91.4164 78.8789H126.093C128.494 78.8789 130.46 76.9382 130.46 78.4448V44.6359Z" fill="#F29456"/>
<path opacity="0.7" d="M43.6396 64.2726V78.4448C43.6396 76.9382 45.6059 78.8789 48.0317 78.8789H83.0408C84.8027 78.8789 86.3349 77.8319 87.0499 77.8574V78.4448C87.0499 78.1639 87.1265 77.9851 87.2541 77.9085C87.3818 77.9851 87.4584 78.1383 87.4584 78.4448V77.883C88.1479 77.8574 89.6545 78.9044 91.4164 78.9044H126.094C128.494 78.9044 130.46 76.9637 130.46 78.4703V44.6359C130.46 44.3039 130.46 43.972 130.435 43.6655L43.6396 64.2726Z" fill="#EA8249"/>
<path d="M46.117 72.7504C46.117 75.023 44.2785 76.8871 41.9803 76.8871H32.8897C30.617 76.8871 28.7529 75.0486 28.7529 72.7504V57.8632C28.7529 55.5906 30.5915 53.7265 32.8897 53.7265H41.9803C44.2529 53.7265 46.117 55.5651 46.117 57.8632V72.7504Z" fill="#DBADB0"/>
<path d="M45.7088 72.7504C45.7088 75.023 43.8703 76.8871 41.5721 76.8871H32.4815C30.2088 76.8871 28.3447 75.0486 28.3447 72.7504V57.8632C28.3447 55.5906 30.1833 53.7265 32.4815 53.7265H41.5721C43.8447 53.7265 45.7088 55.5651 45.7088 57.8632V72.7504Z" fill="#EA8249"/>
<path d="M145.322 72.7504C145.322 75.023 143.484 76.8871 141.185 76.8871H132.095C129.822 76.8871 127.958 75.0486 127.958 72.7504V57.8632C127.958 55.5906 129.797 53.7265 132.095 53.7265H141.211C143.483 53.7265 145.348 55.5651 145.348 57.8632V72.7504H145.322Z" fill="#EA8249"/>
<path d="M34.6771 91.8508C34.6771 92.4892 34.1664 92.9999 33.528 92.9999C32.8896 92.9999 32.3789 92.4892 32.3789 91.8508V87.9184C32.3789 87.28 32.8896 86.7693 33.528 86.7693C34.1664 86.7693 34.6771 87.28 34.6771 87.9184V91.8508Z" fill="#1B262C"/>
<path d="M140.7 91.8508C140.7 92.4892 140.189 92.9999 139.55 92.9999C138.912 92.9999 138.401 92.4892 138.401 91.8508V87.9184C138.401 87.28 138.912 86.7693 139.55 86.7693C140.189 86.7693 140.7 87.28 140.7 87.9184V91.8508Z" fill="#1B262C"/>
<path d="M141.441 53.7265H136.895C134.623 53.7265 132.759 55.5651 132.759 57.8632V78.5214H40.3715V57.8632C40.3715 55.5906 38.533 53.7265 36.2348 53.7265H31.6895C29.4168 53.7265 27.5527 55.5651 27.5527 57.8632V86.182C27.5527 87.3822 28.0634 88.4547 28.8806 89.1952C29.6466 90.0123 30.7191 90.523 31.8938 90.523L141.441 90.3188C143.713 90.3188 145.577 88.4802 145.577 86.182V57.8632C145.577 55.5651 143.713 53.7265 141.441 53.7265Z" fill="#EA8249"/>
<path d="M87.0504 77.7043C87.0504 79.9769 85.2119 81.841 82.9137 81.841H43.0274C40.7547 81.841 38.8906 80.0024 38.8906 77.7043V73.9761C38.8906 71.7034 40.7292 69.8394 43.0274 69.8394H82.9137C85.1864 69.8394 87.0504 71.6779 87.0504 73.9761V77.7043Z" fill="#F29456"/>
<path d="M134.598 77.7043C134.598 79.9769 132.759 81.841 130.461 81.841H91.1875C88.9149 81.841 87.0508 80.0024 87.0508 77.7043V73.9761C87.0508 71.7034 88.8893 69.8394 91.1875 69.8394H130.461C132.734 69.8394 134.598 71.6779 134.598 73.9761V77.7043Z" fill="#F29456"/>
<path d="M45.1215 68.3838C45.1215 68.3838 44.1256 71.4225 45.5812 72.0864C47.0367 72.7759 54.3653 74.7677 56.4082 73.7462C58.451 72.7248 57.5317 68.5881 57.5317 68.5881L45.1215 68.3838Z" fill="#FFA372"/>
<path d="M45.1215 68.3838C45.1215 68.3838 44.1256 71.4225 45.5812 72.0864C47.0367 72.7759 54.3653 74.7677 56.4082 73.7462C58.451 72.7248 57.5317 68.5881 57.5317 68.5881L45.1215 68.3838Z" fill="#E89069"/>
<path d="M54.6924 58.6111L53.7451 69.1404L84.672 71.9229L85.6193 61.3935L54.6924 58.6111Z" fill="#D4EFF8"/>
<path opacity="0.2" d="M54.6924 58.6111L53.7451 69.1404L84.672 71.9229L85.6193 61.3935L54.6924 58.6111Z" fill="#1B262C"/>
<path d="M57.1995 62.2042C57.1995 62.2042 46.0916 57.1737 42.4656 57.1227C38.8395 57.0716 37.001 61.2083 37.001 64.0172C37.0265 66.8516 50.8667 71.3203 64.7069 72.8269L72.0356 68.92L57.1995 62.2042Z" fill="#142334"/>
<path opacity="0.1" d="M57.1995 62.2042C57.1995 62.2042 49.973 58.9357 45.2745 57.6334C44.534 61.7701 50.1518 64.1194 53.4714 64.6556C54.0076 64.7322 54.5949 65.2429 54.4673 65.8558C54.0332 67.9241 52.3734 69.2775 50.6369 70.3245C54.9269 71.3969 59.8042 72.2907 64.6814 72.8269L72.0101 68.92L57.1995 62.2042Z" fill="#1B262C"/>
<path d="M52.1436 70.4777C52.1436 70.4777 52.1436 72.6482 53.4969 74.3336C54.8758 76.0189 79.3388 74.9719 84.88 71.9332C90.4212 68.92 92.2086 63.7874 88.0719 61.1317C83.9607 58.476 66.3413 68.6647 52.1436 70.4777Z" fill="#1B2C40"/>
<path d="M65.8306 31.4085C65.8306 31.4085 66.3413 33.7067 66.0093 34.7281C65.6774 35.7496 55.6164 34.8558 60.9278 38.7627C66.2392 42.6697 76.0958 36.6944 76.6065 34.8558C77.1172 33.0173 71.6782 38.1754 72.3421 28.5486C72.7507 22.5733 65.8306 31.4085 65.8306 31.4085Z" fill="#E89069"/>
<path d="M60.2127 22.6499C60.2127 22.6499 59.9063 22.2158 59.4211 23.2117C58.9359 24.182 59.6764 26.4036 60.4936 26.7356C61.3107 27.0675 60.2127 22.6499 60.2127 22.6499Z" fill="#E89069"/>
<path d="M59.7273 20.5049C59.7273 20.5049 59.1655 23.4415 60.8253 25.5865L61.3871 19.9176L59.7273 20.5049Z" fill="#1B262C"/>
<path d="M74.6912 25.4588C74.6912 25.4588 74.8699 27.3484 73.4655 28.6507C73.4144 28.6763 73.3889 28.7273 73.3378 28.7529C71.7801 30.0552 73.3378 25.8929 73.3378 25.8929L74.6912 25.4588Z" fill="#1B262C"/>
<path d="M65.4476 16.3682C65.4476 16.3682 60.3405 17.2108 60.0851 22.037C59.8298 26.8632 61.2853 34.1919 67.2351 33.6301C73.1848 33.0428 74.5893 25.8929 73.7721 23.0329C73.0061 20.1474 70.8356 15.2446 65.4476 16.3682Z" fill="#FFA372"/>
<path d="M76.4016 15.2957C74.6141 12.6656 72.9032 14.8616 72.9032 14.8616C73.4905 13.2273 71.9584 10.8015 69.7368 11.4654C68.3068 11.8995 65.9576 12.1293 65.0894 11.2356C63.7871 9.88219 62.2039 8.93738 61.4123 10.0354C59.9823 12.0272 62.9189 12.5379 62.9189 12.5379C60.1355 13.2273 58.0416 9.55023 55.8711 12.7677C53.8282 15.8319 58.7055 18.0025 58.7055 18.0025C58.7055 18.0025 56.4839 17.8748 56.9436 19.7644C57.4798 22.0115 61.4378 20.3517 61.4378 20.3517C61.4378 20.3517 59.8291 22.2669 62.0762 22.9053C64.2212 23.5181 65.3447 20.4539 66.4427 19.3303C68.4345 17.2619 70.1198 17.7982 70.1198 17.7982C69.5325 21.4753 71.8818 20.888 72.1627 22.6499C72.4436 24.4118 72.418 26.0206 72.418 26.0206L73.4139 26.0972C73.9502 24.9736 73.2607 22.4201 73.8991 21.986C74.3332 21.7051 74.946 22.1392 75.4057 22.4201C75.6866 19.7644 77.5762 17.0321 76.4016 15.2957Z" fill="#2A393F"/>
<path d="M73.5671 22.5222C73.5671 22.5222 74.4609 20.6837 75.5078 22.2669C76.5548 23.8501 74.8439 26.9399 73.465 26.4547C73.465 26.4802 73.4394 23.9522 73.5671 22.5222Z" fill="#FFA372"/>
<path d="M65.3709 24.0033C65.4731 24.3863 65.5241 24.7949 65.5497 25.1779C65.5752 25.5865 65.6007 25.9695 65.5752 26.3781C65.5497 26.7867 65.5241 27.1697 65.4731 27.5783C65.422 27.9613 65.3198 28.3699 65.1922 28.7529L65.0134 28.5997C65.2432 28.5231 65.4475 28.472 65.6773 28.3954C65.9072 28.3443 66.1114 28.2677 66.3412 28.2167C66.137 28.3443 65.9327 28.4465 65.7284 28.5486C65.5241 28.6508 65.3198 28.7529 65.1156 28.855L64.8857 28.9572L64.9368 28.6763C65.0134 28.2933 65.0645 27.9102 65.1156 27.5272C65.1666 27.1442 65.1922 26.7611 65.2177 26.3781C65.2432 25.9951 65.2688 25.5865 65.2943 25.2035L65.3709 24.0033Z" fill="#CC7E5E"/>
<path d="M64.4766 29.953C65.1405 30.1828 65.7789 30.3616 66.4428 30.3871C66.7748 30.4127 67.0812 30.3616 67.4131 30.285C67.7451 30.2084 68.026 30.0552 68.358 29.8764C68.1537 30.1573 67.8728 30.4127 67.5153 30.5403C67.1833 30.6935 66.8003 30.7702 66.4428 30.7446C66.0853 30.7191 65.7278 30.6425 65.3958 30.5148C65.0383 30.3871 64.7319 30.2084 64.4766 29.953Z" fill="#CC7E5E"/>
<path d="M65.8047 31.0511C66.0345 31.0766 66.2388 31.1532 66.4431 31.2043C66.6474 31.2298 66.8516 31.2298 67.0559 31.2043C67.2602 31.1532 67.4389 31.0766 67.6177 30.9744C67.7964 30.8723 67.9752 30.7446 68.1539 30.6169C68.0263 30.7957 67.8986 30.9744 67.6943 31.1021C67.5156 31.2553 67.3113 31.3575 67.0815 31.4086C66.8516 31.4596 66.6218 31.4341 66.392 31.383C66.1877 31.2809 65.9834 31.1532 65.8047 31.0511Z" fill="#CC7E5E"/>
<path d="M61.8972 24.9737C62.0249 25.3567 62.1781 25.7397 62.4335 26.0206C62.6633 26.3015 63.0208 26.4292 63.3783 26.3781C63.557 26.3526 63.7358 26.3015 63.8635 26.2249C64.0167 26.1228 64.1188 25.9951 64.1954 25.8419C64.3486 25.5099 64.3486 25.0758 64.3231 24.6672C64.5018 25.0503 64.5784 25.4844 64.4508 25.9185C64.3997 26.1483 64.2465 26.3526 64.0677 26.5058C63.8635 26.659 63.6336 26.7101 63.4294 26.7611C63.1995 26.7867 62.9697 26.7611 62.7399 26.659C62.5101 26.5569 62.3313 26.4036 62.2037 26.1994C61.9483 25.8163 61.8717 25.3822 61.8972 24.9737Z" fill="#2A393F"/>
<path d="M67.873 24.3608C67.9496 24.7694 68.0772 25.1524 68.2815 25.4588C68.4858 25.7652 68.7922 25.944 69.1753 25.944C69.354 25.944 69.5328 25.9185 69.686 25.8419C69.8392 25.7652 69.9669 25.6376 70.069 25.4844C70.2478 25.1779 70.3244 24.7694 70.3499 24.3353C70.4776 24.7438 70.5031 25.1779 70.3244 25.612C70.2478 25.8163 70.069 26.0206 69.8647 26.1483C69.6604 26.276 69.4051 26.3015 69.2008 26.3015C68.971 26.3015 68.7412 26.2504 68.5369 26.1227C68.3326 25.9951 68.1794 25.8163 68.0772 25.612C67.8219 25.2035 67.7964 24.7694 67.873 24.3608Z" fill="#2A393F"/>
<path d="M60.9785 23.799C61.1062 23.3904 61.3615 23.033 61.6935 22.7265C62.0255 22.4456 62.4851 22.2414 62.9447 22.2158C62.9958 22.2158 63.0724 22.2158 63.1235 22.2158L63.3022 22.2414C63.4299 22.2669 63.532 22.2669 63.6342 22.318C63.7363 22.3435 63.864 22.3946 63.9661 22.4456C64.0683 22.4967 64.1704 22.5478 64.247 22.6244C64.3492 22.6755 64.4258 22.7521 64.5024 22.8287C64.579 22.9053 64.6556 22.9819 64.7322 23.0585C64.8599 23.2372 64.9876 23.416 65.0642 23.5947C64.8599 23.5181 64.6811 23.416 64.5024 23.3394C64.4002 23.3138 64.3236 23.2628 64.2215 23.2372L64.0938 23.1862C64.0428 23.1606 63.9917 23.1606 63.9661 23.1351C63.8895 23.1096 63.7874 23.084 63.7108 23.0585L63.4554 23.0074C63.3788 22.9819 63.2767 22.9819 63.2001 22.9819H63.0724C63.0213 22.9819 62.9958 22.9819 62.9447 22.9819C62.6128 23.0074 62.2808 23.084 61.9489 23.2372C61.6935 23.3649 61.336 23.5692 60.9785 23.799Z" fill="#2A393F"/>
<path d="M67.1582 23.416C67.2859 23.0074 67.5412 22.6499 67.8732 22.3435C68.2052 22.0626 68.6648 21.8583 69.1244 21.8328C69.1755 21.8328 69.2521 21.8328 69.3032 21.8328L69.4819 21.8583C69.6096 21.8838 69.7117 21.8838 69.8139 21.9349C69.916 21.9604 70.0437 22.0115 70.1459 22.0626C70.248 22.1137 70.3501 22.1647 70.4267 22.2413C70.5289 22.2924 70.6055 22.369 70.6821 22.4456C70.7587 22.5222 70.8353 22.5988 70.9119 22.6754C71.0396 22.8542 71.1673 23.0329 71.2439 23.2117C71.0396 23.1351 70.8608 23.0329 70.6821 22.9563C70.5799 22.9308 70.5033 22.8797 70.4012 22.8542L70.2735 22.8031C70.2225 22.7776 70.1714 22.7776 70.1459 22.752C70.0692 22.7265 69.9671 22.701 69.8905 22.6754L69.6351 22.6244C69.5585 22.5988 69.4564 22.5988 69.3798 22.5988H69.2521C69.201 22.5988 69.1755 22.5988 69.1244 22.5988C68.7925 22.6244 68.4605 22.701 68.1285 22.8542C67.8732 23.0074 67.5412 23.1861 67.1582 23.416Z" fill="#2A393F"/>
<path d="M74.2818 25.8673C74.3584 25.7652 74.4094 25.6375 74.4605 25.5354C74.5116 25.4332 74.5371 25.3056 74.5627 25.2034C74.5627 25.1013 74.5371 25.0247 74.4605 24.9736C74.4094 24.9225 74.2818 24.897 74.1796 24.897L74.0519 24.8715V24.7438C74.0264 24.3863 74.0009 24.0543 74.0519 23.6968C74.0519 23.5181 74.0775 23.3393 74.1285 23.1606C74.1796 22.9818 74.2052 22.8031 74.3073 22.6243C74.3584 22.5477 74.435 22.4456 74.5627 22.369C74.6903 22.3179 74.8435 22.3179 74.9457 22.369C75.0478 22.4201 75.1244 22.4711 75.201 22.5222C75.2776 22.5733 75.3542 22.6499 75.4053 22.7265C75.5075 22.8797 75.5841 23.084 75.5585 23.2883C75.533 23.467 75.4309 23.6458 75.3032 23.7734C75.3798 23.6202 75.4308 23.4415 75.4053 23.2883C75.4053 23.1351 75.3287 23.0074 75.201 22.9052C75.15 22.8542 75.0734 22.8031 75.0223 22.7776C74.9457 22.752 74.8946 22.701 74.818 22.6754C74.7669 22.6499 74.7159 22.6754 74.6903 22.6754C74.6648 22.701 74.6137 22.752 74.5882 22.8031C74.4605 23.0584 74.435 23.3904 74.3839 23.7224C74.3584 24.0543 74.3328 24.3863 74.3328 24.7183L74.2052 24.565C74.3328 24.6161 74.486 24.6416 74.6137 24.7438C74.7414 24.8715 74.7669 25.0502 74.7159 25.2034C74.6648 25.3566 74.6137 25.4588 74.5371 25.5609C74.4605 25.6886 74.3839 25.7907 74.2818 25.8673Z" fill="#CC7E5E"/>
<path d="M62.8676 35.5453C62.8676 35.5453 63.7358 37.6903 67.132 38.0988C72.0348 38.6606 74.2054 34.294 74.2054 34.294C74.2054 34.294 80.2828 33.528 81.2276 37.4604C82.1724 41.3929 79.4912 56.6375 76.6057 61.1828C73.7202 65.7281 59.8289 63.9917 57.1988 59.1911C54.5686 54.3904 56.3816 47.9555 56.1773 41.5716C55.9986 35.6474 62.8676 35.5453 62.8676 35.5453Z" fill="#FEDA34"/>
<path d="M79.9258 44.023C70.5287 51.9901 56.4843 51.8113 55.7693 51.7858C55.7437 54.4926 55.9991 56.995 57.1992 59.1911C59.8294 63.9917 73.7207 65.7281 76.6062 61.1828C78.8788 57.6079 81.0238 47.4193 81.3558 41.3163C80.3088 42.159 80.8706 43.2059 79.9258 44.023Z" fill="#F1CC1E"/>
<path d="M59.0117 54.1606L59.1139 59.2166L69.7111 62.2298C69.8132 57.4546 59.0117 54.1606 59.0117 54.1606Z" fill="white"/>
<path d="M58.2207 54.4415L58.3739 59.4975L69.8904 62.5873C69.967 57.8121 58.2207 54.4415 58.2207 54.4415Z" fill="#E8E8E8"/>
<path d="M79.9008 52.8072L78.7262 58.5016L69.2015 61.7701C68.6908 57.0205 79.9008 52.8072 79.9008 52.8072Z" fill="white"/>
<path d="M80.5387 52.986L79.1598 58.1441L69.4308 62.1532C68.9457 57.4036 80.5387 52.986 80.5387 52.986Z" fill="#E8E8E8"/>
<path d="M57.5566 55.1565L68.1283 59.6252C68.1283 59.6252 68.5369 60.7743 69.5583 60.6722C71.2692 60.4934 70.9883 59.3954 70.9883 59.3954L81.2535 52.9604L78.6489 62.4852L71.7799 64.8855C71.7799 64.8855 71.2692 66.0346 69.2774 65.8558C68.5879 65.8048 68.0006 64.4259 68.0006 64.4259L58.3227 62.1532L57.5566 55.1565Z" fill="#1B262C"/>
<path d="M64.0937 61.3361C64.0937 61.3361 72.0097 62.8171 64.2724 60.7232C64.2724 60.7232 71.4223 62.3064 64.3746 59.7529C63.8383 59.5486 63.3021 59.3698 62.8169 59.1656C66.8004 57.7866 62.3828 58.5016 61.5146 58.6293C56.8161 56.6631 53.7263 54.6713 53.7263 54.6713L56.9182 48.0577L50.994 42.7974C50.994 42.7974 47.1637 51.4283 46.2955 53.7776C45.0187 57.2504 45.6316 58.6804 48.0574 59.5231C50.8663 60.4934 74.1802 65.4217 63.9149 62.0766C63.9149 62.0511 73.0055 64.4259 64.0937 61.3361Z" fill="#FFA372"/>
<path d="M55.5393 50.9176L56.9182 48.0577L50.994 42.7974C50.994 42.7974 50.0237 44.9679 48.9512 47.4448C50.9685 48.8493 53.2411 49.9217 55.5393 50.9176Z" fill="#E89069"/>
<path d="M62.4599 35.5453C62.4599 35.5453 56.1272 36.5156 54.7482 37.6647C53.3693 38.8138 49.0283 45.3509 49.0283 45.3509C49.0283 45.3509 52.3479 48.7471 56.357 49.5387C57.4805 49.7685 62.4599 35.5453 62.4599 35.5453Z" fill="#FEDA34"/>
<path d="M73.8228 61.0552C73.8228 61.0552 65.8303 61.8723 73.6952 60.4168C73.6952 60.4168 66.4431 61.3871 73.6696 59.4464C74.2314 59.2932 74.7676 59.14 75.2784 58.9868C71.4225 57.2759 75.4571 58.1697 76.2998 58.374C81.1515 56.7908 83.2454 55.131 83.2454 55.131L80.0279 45.7084L85.2116 40.3459C85.2116 40.3459 89.9868 52.1178 90.6252 54.5181C91.5955 58.0675 89.6803 59.9827 87.1779 60.6211C84.2924 61.3616 63.4299 64.2726 73.9505 61.7957C73.925 61.7702 64.6812 63.4044 73.8228 61.0552Z" fill="#FFA372"/>
<path d="M87.7136 46.7043C86.4113 43.3847 85.1856 40.3459 85.1856 40.3459L80.002 45.7084L81.2021 49.3089C83.4748 48.696 85.6963 47.8789 87.7136 46.7043Z" fill="#E89069"/>
<path d="M76.0439 34.4218C76.0439 34.4218 79.9764 34.2685 83.296 36.7199C84.7515 37.7924 88.0456 44.6614 88.0456 44.6614C88.0456 44.6614 84.0621 47.0873 80.0019 47.5725C78.8784 47.7257 76.0439 34.4218 76.0439 34.4218Z" fill="#FEDA34"/>
<path d="M117.156 72.2652C117.156 72.2652 134.673 56.4588 139.27 61.7957C143.866 67.1326 132.298 87.4588 132.298 87.4588L128.136 85.3649C128.136 85.3649 128.238 75.8402 132.069 71.5502C135.899 67.2602 124.714 86.2586 114.5 87.2545C102.294 88.4546 117.156 72.2652 117.156 72.2652Z" fill="#142334"/>
<path d="M122.059 81.9431C122.034 81.9431 119.046 81.3558 119.046 81.3303C118.944 75.4827 115.931 69.584 115.931 69.584L101.299 72.1886C101.299 72.1886 97.9537 84.3435 100.048 88.9654L99.9965 89.042C99.9965 89.042 100.277 89.808 101.171 90.7528C101.81 91.4934 102.601 92.1828 103.648 92.7446C105.027 93.5107 106.329 93.9192 107.555 94.0724C109.266 94.481 111.334 94.7364 113.862 94.7364C125.711 94.7364 141.849 94.9406 144.556 90.7273C147.237 86.5395 140.674 84.8542 122.059 81.9431Z" fill="#1B2C40"/>
<path d="M106.661 80.2323C111.207 79.0576 114.935 76.7084 117.31 72.9291C116.595 70.9118 115.905 69.584 115.905 69.584L101.274 72.1886C101.274 72.1886 100.022 76.7084 99.5371 81.2792C101.937 81.126 104.338 80.8451 106.661 80.2323Z" fill="#142334"/>
<path d="M110.593 41.7249C111.436 37.4094 108.78 33.2216 104.542 33.7323C100.864 34.1664 99.46 37.0008 99.46 37.0008C99.46 37.0008 99.9707 51.6071 102.473 52.8328C105.997 54.5436 107.58 53.7265 109.112 52.5264L109.266 51.6837L109.342 52.4753C110.006 52.3476 110.644 52.1433 111.181 51.8624C110.517 51.1985 110.542 50.075 110.542 50.075C110.593 50.8155 111.181 51.2751 111.691 51.5305C111.896 51.3773 112.074 51.1985 112.202 51.0198C113.428 49.411 114.5 49.8707 114.5 49.8707C114.041 45.2232 109.725 46.0403 110.593 41.7249Z" fill="#2A393F"/>
<path d="M96.3189 33.9621C93.0504 34.8559 90.4203 37.9967 90.7011 42.874C90.982 47.7512 91.1608 45.6829 89.6797 49.6664C88.1987 53.6499 91.2629 54.416 91.2629 54.416C91.2629 54.416 91.4672 53.5733 92.4631 53.2414C92.2333 52.8073 92.08 52.1178 92.412 51.1219C92.412 51.1219 92.3609 52.4242 92.8461 53.1392C93.0504 53.1137 93.2802 53.0881 93.5611 53.1137C94.2506 53.1392 95.1954 53.369 96.2168 53.5223C96.4721 52.986 96.6253 52.1689 96.3445 50.9432C96.3445 50.9432 96.7786 52.3732 96.5487 53.5733C97.3148 53.6499 98.1064 53.6755 98.7959 53.4967L98.7193 52.9349L98.9491 53.4456C99.8173 53.1903 100.277 52.4753 100.915 51.4028C104.235 45.9127 102.243 34.5494 102.243 34.5494C102.243 34.5494 100.277 32.8896 96.3189 33.9621Z" fill="#2A393F"/>
<path d="M96.7529 47.598C96.7529 47.598 99.4341 52.7562 98.285 54.0329C97.136 55.3097 92.1821 50.8155 90.2414 57.5823C88.3007 64.3492 103.673 67.2092 109.827 62.3064C112.764 59.9571 113.351 54.8501 110.338 54.3649C107.325 53.9052 103.724 56.8418 103.367 51.1474C103.035 45.453 96.9572 47.5469 96.9572 47.5469" fill="#FFBD9C"/>
<path d="M103.367 53.9563C103.647 53.9818 103.903 53.9818 104.184 53.9818C103.75 53.4456 103.469 52.5774 103.392 51.1474C103.06 45.453 96.9827 47.5469 96.9827 47.5469L96.7529 47.6235C96.7529 47.6235 98.4127 50.8155 98.5659 52.8072C100.098 53.4456 101.732 53.8797 103.367 53.9563Z" fill="#E5A98F"/>
<path d="M102.116 36.9242C102.116 36.9242 106.942 36.0049 108.448 40.8567C109.853 45.3509 109.214 51.0708 105.154 51.9901C99.179 53.369 95.7317 47.2661 95.7828 44.355C95.8339 41.444 96.7531 37.2051 102.116 36.9242Z" fill="#FFBD9C"/>
<path d="M95.9868 44.2529C95.9868 44.2529 94.7356 42.925 94.0972 44.5338C93.4588 46.1425 95.757 48.2875 96.9827 47.547C96.9827 47.547 96.4209 45.4275 95.9868 44.2529Z" fill="#FFBD9C"/>
<g opacity="0.6">
<path opacity="0.6" d="M104.644 44.8401L104.924 45.2232C105.027 45.3509 105.103 45.4785 105.205 45.5807L105.767 46.2957L105.869 46.4233L105.767 46.5C105.588 46.6532 105.41 46.8064 105.231 46.9341C105.052 47.0873 104.873 47.2149 104.669 47.3682C104.822 47.1894 104.95 47.0107 105.103 46.8319C105.256 46.6532 105.41 46.4744 105.563 46.3212V46.5255C105.282 46.3467 105.052 46.0914 104.899 45.8105C104.822 45.6573 104.746 45.5296 104.695 45.3509C104.669 45.1976 104.644 45.0189 104.644 44.8401Z" fill="#CC7E5E"/>
</g>
<path d="M106.43 48.313C106.43 48.313 104.592 50.0749 102.702 48.9003L106.43 48.313Z" fill="white"/>
<path d="M107.502 43.2314C107.63 43.6145 107.656 44.0486 107.528 44.4571C107.451 44.6614 107.324 44.8657 107.145 45.0189C106.966 45.1721 106.736 45.2487 106.506 45.2743C106.277 45.2998 106.047 45.2998 105.843 45.1977C105.613 45.1211 105.434 44.9423 105.332 44.738C105.102 44.355 105.076 43.9209 105.153 43.5123C105.23 43.8954 105.357 44.3039 105.562 44.5848C105.664 44.7125 105.817 44.8146 105.97 44.8657C106.123 44.9168 106.302 44.9168 106.481 44.8912C106.838 44.8402 107.119 44.6359 107.273 44.3295C107.426 44.023 107.477 43.6145 107.502 43.2314Z" fill="#2A393F"/>
<path d="M101.732 44.1252C101.911 44.4827 101.988 44.9168 101.911 45.3509C101.86 45.5552 101.758 45.785 101.605 45.9637C101.452 46.1425 101.222 46.2446 101.017 46.2957C100.813 46.3468 100.558 46.3723 100.328 46.3212C100.098 46.2702 99.8939 46.1169 99.7663 45.9382C99.4854 45.5807 99.4088 45.1466 99.4343 44.738C99.562 45.1211 99.7152 45.4786 99.9705 45.7339C100.098 45.8616 100.251 45.9382 100.405 45.9637C100.558 45.9893 100.737 45.9893 100.915 45.9382C101.247 45.8616 101.528 45.6062 101.63 45.2743C101.732 44.9423 101.758 44.5337 101.732 44.1252Z" fill="#2A393F"/>
<path d="M108.09 41.878C107.707 41.7248 107.349 41.6227 106.992 41.5461C106.634 41.4695 106.277 41.4695 105.97 41.5206C105.919 41.5206 105.894 41.5206 105.843 41.5461L105.715 41.5972C105.638 41.6227 105.562 41.6482 105.485 41.6738L105.255 41.7759C105.179 41.827 105.102 41.878 105.025 41.9291C105 41.9547 104.949 41.9802 104.923 42.0057C104.898 42.0313 104.847 42.0568 104.821 42.0823L104.591 42.2611C104.438 42.3888 104.31 42.5164 104.157 42.6441C104.208 42.4398 104.285 42.2611 104.362 42.0568L104.54 41.8014C104.591 41.6993 104.668 41.6227 104.745 41.5461C104.821 41.4695 104.898 41.3929 104.974 41.3163C105.051 41.2397 105.153 41.1886 105.255 41.1375C105.357 41.0609 105.46 41.0354 105.562 40.9843L105.715 40.9332C105.766 40.9077 105.817 40.9077 105.868 40.9077C106.302 40.8311 106.762 40.8822 107.145 41.0609C107.502 41.2907 107.86 41.5461 108.09 41.878Z" fill="#2A393F"/>
<path d="M102.14 43.0782C101.757 42.925 101.4 42.8228 101.042 42.7462C100.685 42.6696 100.327 42.6696 100.021 42.7207C99.97 42.7207 99.9444 42.7207 99.8933 42.7462L99.7657 42.7973C99.6891 42.8228 99.6125 42.8484 99.5358 42.8739L99.306 42.976C99.2294 43.0271 99.1528 43.0782 99.0762 43.1293C99.0507 43.1548 98.9996 43.1803 98.9741 43.2059C98.9485 43.2314 98.8975 43.2569 98.8719 43.2825L98.6421 43.4612C98.4889 43.5889 98.3612 43.7166 98.208 43.8443C98.2591 43.64 98.3357 43.4612 98.4123 43.2569L98.591 43.0016C98.6421 42.8994 98.7187 42.8228 98.7953 42.7462C98.8719 42.6696 98.9485 42.593 99.0251 42.5164C99.1017 42.4398 99.2039 42.3887 99.306 42.3377C99.4082 42.2611 99.5103 42.2355 99.6125 42.1844L99.7657 42.1334C99.8167 42.1078 99.8678 42.1078 99.9189 42.1078C100.353 42.0312 100.813 42.0823 101.196 42.2611C101.579 42.4653 101.911 42.7462 102.14 43.0782Z" fill="#2A393F"/>
<g opacity="0.6">
<path opacity="0.6" d="M96.0631 47.2405C95.9609 47.1894 95.8588 47.1384 95.7566 47.0873C95.6545 47.0107 95.5524 46.9341 95.5013 46.8319C95.4758 46.8064 95.4758 46.7809 95.4502 46.7298C95.4247 46.7043 95.4247 46.6532 95.4247 46.6021C95.4247 46.5255 95.4502 46.4234 95.5013 46.3723C95.6034 46.2446 95.7056 46.1936 95.8332 46.117L95.7311 46.2957C95.6545 46.0148 95.5524 45.7339 95.4502 45.453C95.3481 45.1977 95.2204 44.8913 95.0417 44.738C94.9651 44.6614 94.914 44.6614 94.8118 44.7125C94.7608 44.7381 94.7097 44.7891 94.6586 44.8402C94.6076 44.8913 94.5565 44.9423 94.531 44.9934C94.4544 45.0955 94.4033 45.2232 94.4288 45.3509C94.4543 45.4786 94.531 45.6318 94.6331 45.7339C94.5054 45.6573 94.3522 45.5552 94.3011 45.402C94.2245 45.2488 94.2501 45.0445 94.3267 44.8913C94.3522 44.8147 94.4033 44.738 94.4543 44.6614C94.5054 44.6104 94.5565 44.5338 94.6331 44.4827C94.7097 44.4316 94.8118 44.3806 94.9395 44.3806C95.0672 44.3806 95.1693 44.4316 95.2459 44.5082C95.3991 44.6359 95.5013 44.7891 95.5779 44.9168C95.6545 45.07 95.7311 45.1977 95.7822 45.3509C95.8843 45.6573 95.9609 45.9637 96.012 46.2702L96.0375 46.3978L95.9354 46.4489C95.8332 46.4745 95.7566 46.5255 95.7056 46.5766C95.6545 46.6277 95.629 46.6787 95.6545 46.7809C95.68 46.8575 95.7566 46.9596 95.8077 47.0362C95.8843 47.0873 95.9865 47.1639 96.0631 47.2405Z" fill="#CC7E5E"/>
</g>
<g opacity="0.6">
<path opacity="0.6" d="M103.213 49.3855C103.749 49.4876 104.26 49.5897 104.745 49.5642C105 49.5387 105.23 49.4876 105.46 49.411C105.69 49.3344 105.894 49.1812 106.149 49.028C106.022 49.2833 105.869 49.5131 105.613 49.6663C105.383 49.8196 105.077 49.9217 104.796 49.9472C104.515 49.9728 104.209 49.9217 103.953 49.8196C103.673 49.7174 103.417 49.5897 103.213 49.3855Z" fill="#CC7E5E"/>
</g>
<path d="M102.422 35.6985C102.422 35.6985 103.188 38.6351 101.145 40.9077C99.102 43.1804 97.2124 41.5461 96.8039 44.1252C96.3953 46.7043 97.4933 47.3427 97.4933 47.3427C97.4933 47.3427 95.1951 46.7043 95.0164 43.3591C94.8121 39.9885 97.5954 33.4003 102.422 35.6985Z" fill="#2A393F"/>
<path d="M95.2206 53.7265C95.2206 53.7265 97.9274 62.1277 104.26 61.0552C110.184 60.0593 109.878 54.1351 109.878 54.1351C109.878 54.1351 112.483 54.2372 113.581 57.659C114.679 61.0807 113.07 68.0008 116.696 71.014C116.696 71.014 109.98 78.2405 100.021 78.3427C100.021 78.3427 95.7824 73.3888 94.3014 63.2768C94.3014 63.2768 90.5987 62.6639 88.1729 60.1614C88.1984 60.1614 89.7816 52.4242 95.2206 53.7265Z" fill="#60BA4B"/>
<path opacity="0.1" d="M114.627 67.3368C112.993 68.3583 111.206 68.9967 109.188 69.1243C107.145 69.252 105.103 69.0477 103.111 68.7158C100.991 68.3838 98.8464 67.9242 96.9057 67.0304C96.1652 66.6985 95.3991 66.2644 94.7607 65.7026C96.5993 74.3846 100.047 78.3426 100.047 78.3426C109.98 78.2149 116.696 70.9884 116.696 70.9884C115.598 70.0691 114.985 68.7924 114.627 67.3368Z" fill="#1B262C"/>
<path d="M113.428 62.4085L114.883 61.7446C114.883 61.7446 114.628 55.0288 109.853 54.1095L113.428 62.4085Z" fill="#60BA4B"/>
<path d="M113.173 63.5832C113.173 63.0725 113.352 54.6458 119.506 53.5478L118.893 60.2636L113.173 63.5832Z" fill="white"/>
<path d="M104.746 66.6985L104.848 58.9613C104.848 58.9613 112.969 57.1482 113.275 61.0807C113.581 64.9876 104.746 66.6985 104.746 66.6985Z" fill="white"/>
<path d="M103.954 67.2858L104.056 59.5485C104.056 59.5485 112.994 57.6334 113.3 61.5659C113.581 65.4728 103.954 67.2858 103.954 67.2858Z" fill="#E8E8E8"/>
<path d="M113.173 63.5832C113.173 63.0725 113.377 54.6458 120.502 53.5478L119.787 60.2636L113.173 63.5832Z" fill="#E8E8E8"/>
<path d="M122.11 54.5437L120.399 67.2858C116.083 65.4728 113.581 71.397 113.581 71.397L112.738 71.6269C112.738 71.6269 109.368 68.5882 103.443 73.0058L103.954 60.6466C103.954 60.6466 106.865 58.6293 112.789 60.2381L113.785 60.1359C113.785 60.1615 116.288 54.1351 122.11 54.5437Z" fill="#FFBF5E"/>
<path d="M122.11 54.5437L120.399 67.2859C116.083 65.4728 113.581 71.3971 113.581 71.3971L112.738 71.6269L112.764 60.2381L113.76 60.1359C113.785 60.1615 116.288 54.1351 122.11 54.5437Z" fill="#EBAE53"/>
<path d="M122.11 54.5437L120.399 67.2859C116.084 65.4728 113.581 71.3971 113.581 71.3971L113.785 60.1615C113.785 60.1615 116.288 54.1351 122.11 54.5437Z" fill="#EBAE53"/>
<path d="M120.501 58.0931C119.454 52.7307 119.761 58.8847 119.761 58.8847C119.761 58.8847 118.484 51.3262 119.02 58.042C119.02 58.042 117.309 52.0667 118.407 58.6549C118.407 58.6549 116.696 52.5774 117.845 59.804C117.156 58.8847 116.058 57.659 117.616 60.8765C117.616 60.8765 116.696 63.9152 115.445 67.5157C113.428 73.3377 117.692 76.1211 118.867 73.874C120.118 72.5461 121.931 65.2941 120.501 58.0931Z" fill="#FFBD9C"/>
<path d="M88.8884 60.7488C88.8884 60.7488 85.0836 73.3888 86.5902 74.4103C88.0968 75.4061 99.1026 75.0742 105.972 72.4951C111.079 70.58 106.074 71.4992 106.074 71.4992C106.074 71.4992 112.407 69.3032 105.869 70.8864C105.869 70.8864 110.9 67.5668 105.154 70.4778C105.154 70.4778 111.283 67.4646 102.856 70.3757L103.265 70.0692C103.265 70.0692 106.176 67.3625 102.167 70.1714C102.167 70.1714 94.0466 70.0692 92.54 69.4564C92.54 69.4564 94.0466 66.1368 94.736 63.3279C94.7105 63.3534 91.9016 62.664 88.8884 60.7488Z" fill="#FFBD9C"/>
<path d="M94.5318 64.0429C94.6084 63.8131 94.6595 63.5833 94.7105 63.3534C94.7105 63.3534 91.9017 62.6385 88.8885 60.7488C88.8885 60.7488 88.6842 61.4128 88.4033 62.4597C90.2674 63.379 92.3613 63.8386 94.5318 64.0429Z" fill="#E5A98F"/>
<path d="M104.394 7.4369C105.923 6.80478 106.649 5.05524 106.016 3.52921C105.383 2.00317 103.63 1.2785 102.101 1.91062C100.572 2.54274 99.8464 4.29227 100.48 5.81831C101.113 7.34435 102.866 8.06902 104.394 7.4369Z" fill="#F8D671"/>
<path d="M111.87 22.9135C113.262 22.9135 114.391 21.7867 114.391 20.3968C114.391 19.0069 113.262 17.8801 111.87 17.8801C110.477 17.8801 109.349 19.0069 109.349 20.3968C109.349 21.7867 110.477 22.9135 111.87 22.9135Z" fill="#94B052"/>
<path d="M7.61107 22.5246C8.06693 20.1615 6.5174 17.877 4.1501 17.4219C1.78279 16.9669 -0.505834 18.5136 -0.961697 20.8767C-1.41756 23.2398 0.131969 25.5243 2.49927 25.9793C4.86658 26.4344 7.15521 24.8876 7.61107 22.5246Z" fill="#F8D671"/>
<path d="M145.341 38.0807C146.288 37.6965 146.743 36.6188 146.358 35.6736C145.974 34.7283 144.894 34.2736 143.947 34.6578C143 35.0421 142.544 36.1198 142.929 37.065C143.314 38.0102 144.394 38.465 145.341 38.0807Z" fill="#FBE698"/>
</g>
<defs>
<clipPath id="clip0">
<rect width="155" height="95.7578" fill="white"/>
</clipPath>
</defs>
</svg>
