<svg width="54" height="51" viewBox="0 0 54 51" fill="none" xmlns="http://www.w3.org/2000/svg">
<g clip-path="url(#clip0)">
<path d="M3.7002 48.6999H15.3002C16.4002 48.6999 17.3002 47.7999 17.3002 46.6999V22.8999C17.3002 21.7999 16.4002 20.8999 15.3002 20.8999H3.7002C2.6002 20.8999 1.7002 21.7999 1.7002 22.8999V46.6999C1.7002 47.7999 2.6002 48.6999 3.7002 48.6999Z" stroke="white" stroke-width="2" stroke-miterlimit="10"/>
<path d="M29.7 23.6C34.5049 23.6 38.4 18.72 38.4 12.7C38.4 6.68015 34.5049 1.80005 29.7 1.80005C24.8951 1.80005 21 6.68015 21 12.7C21 18.72 24.8951 23.6 29.7 23.6Z" stroke="white" stroke-width="2" stroke-miterlimit="10"/>
<path d="M20.9004 10.7C27.2004 6.5 32.4004 14.6 38.3004 11.4" stroke="white" stroke-width="2" stroke-miterlimit="10"/>
<path d="M33.4999 34L29.5999 30.8L25.7999 34L22.3999 28.4C22.1999 28 22.3999 27.5 22.8999 27.5H36.4999C36.9999 27.5 37.1999 28 36.9999 28.4L33.4999 34Z" stroke="white" stroke-width="2" stroke-miterlimit="10"/>
<path d="M24.7996 21.8C24.7996 23.5 23.5996 27.5 23.5996 27.5" stroke="white" stroke-width="2" stroke-miterlimit="10"/>
<path d="M34.7002 21.8C34.7002 23.5 35.9002 27.5 35.9002 27.5" stroke="white" stroke-width="2" stroke-miterlimit="10"/>
<path d="M42.2998 42.1001V48.6001" stroke="white" stroke-width="2" stroke-miterlimit="10"/>
<path d="M30.4004 36.5H28.9004" stroke="#3DA8FB" stroke-width="2" stroke-miterlimit="10" stroke-linecap="round"/>
<path d="M30.4004 40.6001H28.9004" stroke="#3DA8FB" stroke-width="2" stroke-miterlimit="10" stroke-linecap="round"/>
<path d="M20.0996 48.5999H49.9996C50.9996 48.5999 51.6996 47.8 51.6996 46.9V40.5C51.6996 33.1 36.1996 29.7 36.1996 29.7L33.4996 34L29.5996 30.7999L25.7996 34L23.1996 29.7C23.1996 29.7 21.8996 30 20.0996 30.5" stroke="white" stroke-width="2" stroke-miterlimit="10"/>
<path d="M13 35C13 36.1 12.1 36.9 11.1 36.9C10.6 36.9 10.1 36.7 9.8 36.3C9.7 36.2 9.5 36.2 9.3 36.3C9 36.6 8.5 36.9 8 36.9C6.8 36.9 6 36 6 35C6 33 8.6 31.2 9.3 30.7C9.4 30.6 9.6 30.6 9.7 30.7C10.4 31.2 13 33 13 35Z" stroke="#ED2939" stroke-miterlimit="10"/>
<path d="M9.5 34.5V39" stroke="#ED2939" stroke-miterlimit="10"/>
<path d="M11 38.5H8" stroke="#ED2939" stroke-miterlimit="10"/>
<path d="M5.7002 25.8999C6.25248 25.8999 6.7002 25.4522 6.7002 24.8999C6.7002 24.3476 6.25248 23.8999 5.7002 23.8999C5.14791 23.8999 4.7002 24.3476 4.7002 24.8999C4.7002 25.4522 5.14791 25.8999 5.7002 25.8999Z" stroke="white" stroke-width="0.75" stroke-miterlimit="10"/>
<path d="M13.2998 45.7C13.8521 45.7 14.2998 45.2522 14.2998 44.7C14.2998 44.1477 13.8521 43.7 13.2998 43.7C12.7475 43.7 12.2998 44.1477 12.2998 44.7C12.2998 45.2522 12.7475 45.7 13.2998 45.7Z" stroke="white" stroke-width="0.75" stroke-miterlimit="10"/>
</g>
<defs>
<clipPath id="clip0">
<rect width="54" height="51" fill="white"/>
</clipPath>
</defs>
</svg>
