<svg width="54" height="54" viewBox="0 0 54 54" fill="none" xmlns="http://www.w3.org/2000/svg">
<rect width="54" height="54" rx="27" fill="url(#paint0_linear)"/>
<path fill-rule="evenodd" clip-rule="evenodd" d="M27.5 17.8891C27.0342 17.8891 26.6562 17.5111 26.6562 17.0454V14.8437C26.6562 14.378 27.0342 14 27.5 14C27.9657 14 28.3437 14.378 28.3437 14.8437V17.0454C28.3437 17.5111 27.9657 17.8891 27.5 17.8891ZM34.8924 20.9516C34.6764 20.9516 34.4604 20.8695 34.2962 20.7041C33.9665 20.3745 33.9665 19.8401 34.2962 19.5105L35.8532 17.9535C36.1828 17.6238 36.7172 17.6238 37.0468 17.9535C37.3764 18.2831 37.3764 18.8175 37.0468 19.1471L35.4898 20.7041C35.3244 20.8683 35.1084 20.9516 34.8924 20.9516ZM37.9546 28.3437H40.1562C40.622 28.3437 41 27.9657 41 27.5C41 27.0342 40.622 26.6562 40.1562 26.6562H37.9546C37.4888 26.6562 37.1108 27.0342 37.1108 27.5C37.1108 27.9657 37.4888 28.3437 37.9546 28.3437ZM36.4494 37.2931C36.2334 37.2931 36.0174 37.2109 35.8532 37.0456L34.2962 35.4886C33.9665 35.1589 33.9665 34.6246 34.2962 34.2949C34.6258 33.9653 35.1602 33.9653 35.4898 34.2949L37.0468 35.8519C37.3764 36.1816 37.3764 36.7159 37.0468 37.0456C36.8814 37.2109 36.6654 37.2931 36.4494 37.2931ZM17.9544 37.0456C18.1186 37.2109 18.3346 37.2931 18.5506 37.2931C18.7666 37.2931 18.9826 37.2109 19.148 37.0456L20.705 35.4886C21.0346 35.1589 21.0346 34.6246 20.705 34.2949C20.3754 33.9653 19.841 33.9653 19.5114 34.2949L17.9544 35.8519C17.6248 36.1816 17.6248 36.7159 17.9544 37.0456ZM17.0454 28.3437H14.8437C14.378 28.3437 14 27.9657 14 27.5C14 27.0342 14.378 26.6562 14.8437 26.6562H17.0454C17.5111 26.6562 17.8891 27.0342 17.8891 27.5C17.8891 27.9657 17.5111 28.3437 17.0454 28.3437ZM19.5114 20.7041C19.6756 20.8695 19.8916 20.9516 20.1076 20.9516C20.3236 20.9516 20.5385 20.8683 20.705 20.7041C21.0346 20.3745 21.0346 19.8401 20.705 19.5105L19.148 17.9535C18.8184 17.6238 18.284 17.6238 17.9544 17.9535C17.6248 18.2831 17.6248 18.8175 17.9544 19.1471L19.5114 20.7041ZM29.4687 37.625C30.2454 37.625 30.875 38.2546 30.875 39.0312C30.875 40.1112 29.9862 41 28.9062 41H26.0937C25.1487 41 24.125 40.28 24.125 38.705C24.125 38.1085 24.6085 37.625 25.205 37.625H29.4687ZM24.0463 35.9379L24.0462 35.9369C23.8886 35.0484 23.4274 34.2836 22.7638 33.7887C20.3113 31.9325 19.1638 28.895 19.7938 25.835C20.4125 22.8537 22.8313 20.4237 25.8125 19.805C28.1863 19.2987 30.6163 19.8837 32.4613 21.38C34.3175 22.8875 35.375 25.115 35.375 27.5C35.375 29.93 34.2725 32.18 32.3713 33.6875C31.5952 34.2948 31.089 35.0821 30.9314 35.9369L30.9313 35.9381C30.9313 35.9382 30.9313 35.9384 30.9312 35.9386V35.9487C30.9087 35.9375 30.8975 35.9375 30.875 35.9375H30.8849C30.8818 35.9375 30.8786 35.9375 30.875 35.9375L24.8412 35.9487C24.8382 35.9487 24.8218 35.9485 24.7956 35.9482C24.6395 35.9462 24.1362 35.9399 24.0565 35.947C24.055 35.9472 24.0534 35.9468 24.052 35.9462C24.05 35.947 24.0481 35.9478 24.0463 35.9487V35.9379ZM30.875 27.2187C30.875 27.68 31.2575 28.0625 31.7188 28.0625C32.18 28.0625 32.5625 27.68 32.5625 27.2187C32.5625 24.5862 30.4138 22.4375 27.7813 22.4375C27.32 22.4375 26.9375 22.82 26.9375 23.2812C26.9375 23.7425 27.32 24.125 27.7813 24.125C29.4913 24.125 30.875 25.5087 30.875 27.2187Z" fill="white"/>
<defs>
<linearGradient id="paint0_linear" x1="54" y1="27" x2="0" y2="27" gradientUnits="userSpaceOnUse">
<stop stop-color="#BA58E1"/>
<stop offset="1" stop-color="#6F49BC"/>
</linearGradient>
</defs>
</svg>
