<svg width="224" height="89" viewBox="0 0 224 89" fill="none" xmlns="http://www.w3.org/2000/svg">
<g clip-path="url(#clip0_6963_56155)">
<g style="mix-blend-mode:multiply">
<path d="M254.855 30.8114C255.209 28.3416 262.382 26.8521 260.944 25.2433C260.443 24.6843 259.932 24.1485 259.237 23.8621C259.259 22.8548 256.832 23.0206 253.932 23.6142C254.11 22.9831 253.726 22.5673 251.898 22.695C250.715 23.2645 250.123 23.5492 249.722 24.0616C249.349 24.4091 249.06 24.683 248.843 24.9461C247.722 25.2975 246.714 25.6407 245.931 25.9282C246.222 23.4461 253.294 21.8066 251.831 20.2278C251.202 19.5489 250.574 18.8699 249.575 18.7293L246.711 21.208C238.091 23.9717 249.117 17.3075 242.778 17.8935C241.608 18.4957 241.023 18.7968 240.662 19.312C238.382 21.4896 239.372 21.6534 241.377 21.951C233.855 25.5055 234.239 19.3759 230.4 20.6672C230.319 20.4709 230.865 20.2625 231.3 20.0622C231.104 19.9136 231.77 19.5784 231.89 19.682C231.915 19.5566 232.019 19.4367 232.362 19.2937C232.86 19.336 232.252 19.6276 232.269 19.7162C232.501 19.5813 233.035 19.4356 233.07 19.287C232.483 19.4927 233.47 19.005 232.905 19.0294C232.708 19.1111 232.887 19.1711 232.622 19.3196C232.472 19.1901 232.602 19.0402 232.827 18.8889C233.191 18.795 233.339 19.0595 233.432 19.0976C233.611 18.9273 234.121 18.907 234.294 18.5853C233.93 18.9097 233.175 19.0322 233.315 18.7241C233.678 18.5348 233.547 18.8196 233.694 18.7583C233.847 18.6179 234.453 18.231 234.412 18.5935C234.771 18.3483 234.665 18.2774 234.407 18.2119C234.835 17.9952 234.87 18.1725 234.724 18.3292C234.949 18.1779 234.955 18.3292 235.151 18.2475C235.27 18.0253 234.853 18.0839 234.936 17.9148C235.132 17.8331 235.196 17.9408 235.315 17.949C235.622 17.7637 235.682 17.5852 236.14 17.3944C236.508 17.5867 236.722 17.1329 237.216 17.2148C237.136 17.1139 236.966 17.1656 237.207 17.0076C237.403 16.9258 237.39 17.1235 237.586 17.0418C237.505 16.9409 237.448 16.8495 237.638 16.7514C237.651 16.7841 237.675 16.7937 237.756 16.7596C237.784 16.8251 237.548 16.9041 237.654 16.975C238.724 16.3182 238.956 16.1833 239.864 16.1508C239.897 15.9069 240.457 15.7311 240.762 15.6808C240.603 15.5744 240.815 15.4859 240.814 15.3905C240.4 15.6398 240.521 15.3781 240.496 15.2732C240.132 15.3671 240.012 15.4939 239.625 15.5783C239.736 15.7051 239.369 15.8386 239.265 15.9585C239.143 15.8944 238.942 15.9203 238.768 15.9161C238.799 16.0375 238.188 16.3685 238.086 16.3535C238.104 16.2118 238.773 16.0674 238.521 15.9229C238.16 16.2077 238.092 16.0441 238.352 15.8397C237.158 16.3369 237.223 16.3097 236.25 16.8302C236.144 16.7593 236.365 16.5521 236.183 16.5316C236.178 16.841 235.385 16.8259 234.943 17.0098C235.074 16.9553 235.286 16.8667 235.276 16.7945C235.074 16.7249 235.021 16.9198 234.835 16.8435C234.976 16.7658 234.801 16.7617 234.687 16.8093C234.617 17.0111 234.713 17.0097 234.672 17.1419C233.854 17.4825 232.567 17.9416 232.03 17.6661C232.486 17.6103 232.711 17.2287 233.27 17.188C233.174 17.0939 233.377 17.0285 233.224 16.9385C232.615 17.1346 232.245 17.3077 231.557 17.4983C231.628 17.392 231.591 17.3498 231.388 17.4151C231.408 17.4642 231.436 17.5296 231.265 17.5814C231.336 17.4751 231.299 17.4328 231.096 17.4982C231.196 17.5528 230.755 17.8321 230.665 17.7544C231.185 17.4805 230.582 17.4627 230.918 17.2078C231.353 17.0076 231.305 17.3538 231.477 17.1671C231.332 17.1889 231.464 16.9994 231.189 17.0757C231.323 16.9817 231.582 16.6819 231.793 16.7283C231.654 16.9013 231.895 16.9736 232.131 16.8946C231.824 16.8496 231.891 16.6874 231.916 16.562C232.341 16.3849 232.83 16.0851 233.003 16.2242C232.903 16.3046 232.881 16.3905 232.938 16.4818C233.302 16.3878 232.903 16.3046 233.138 16.2256C233.269 16.1711 233.482 16.0826 233.471 16.0103C233.217 16.0007 233.119 16.2719 232.969 16.1424C233.303 16.0225 233.279 15.9176 233.573 15.795C233.628 15.9258 233.857 15.8305 233.911 15.9613C233.626 16.0608 233.904 16.1753 233.921 16.1685C233.854 16.1004 234.548 15.8306 234.121 15.9123C234.142 15.9614 234.001 16.0391 233.941 15.9872C234.088 15.9259 233.919 15.8428 234.044 15.7719C234.211 15.7597 234.45 15.6411 234.582 15.6821C234.616 15.7639 234.334 15.8238 234.361 15.8892C234.668 15.9343 234.99 15.186 235.31 15.4941C235.193 15.5813 234.806 15.6658 234.879 15.7503C235.261 15.7449 235.527 15.4615 235.967 15.4125C235.877 15.3348 235.899 15.2489 236.032 15.1549C236.103 15.279 236.509 15.1482 236.632 14.9819C236.879 14.9752 236.644 15.1496 236.858 15.1565C236.837 15.012 237.351 14.8172 237.33 14.7681C237.216 14.8158 237.101 14.8635 237.1 14.768C237.206 14.6086 237.359 14.6986 237.649 14.5201C237.614 14.3429 237.213 14.6249 237.09 14.5609C237.637 14.3524 237.094 14.3864 237.094 14.3864C237.216 14.1247 237.638 14.2175 237.751 14.3047C237.546 14.1793 237.844 13.8822 237.438 14.013C237.422 14.2502 237.051 14.0974 236.848 14.3931C236.807 14.295 236.73 14.25 236.56 14.3018C236.388 14.4884 236.831 14.4 236.508 14.5921C235.703 14.8699 236.023 14.2566 236.626 14.0441C236.346 14.0645 236.393 14.0836 236.046 14.2662C236.256 13.9868 235.809 14.2498 235.667 14.232C235.832 14.029 236.616 13.837 236.59 13.6366C236.001 13.8818 235.489 14.172 235.183 14.2224C235.254 14.1161 235.348 14.0193 235.489 13.9416C235.489 13.9416 235.496 13.958 235.502 13.9744C236.386 13.6065 237.381 13.2306 238.432 12.8505C238.416 12.8573 238.39 12.8873 238.38 12.9105C238.495 12.8628 238.609 12.8151 238.61 12.9105C238.826 12.7825 239.021 12.6053 239.112 12.7784C238.627 12.9037 239.28 12.7662 239.24 12.9938C239.371 12.9393 239.584 12.8508 239.573 12.7785C239 13.0169 240.032 12.4529 239.563 12.5714C239.595 12.6927 239.21 12.7376 239.235 12.6122C239.726 12.4078 239.941 12.5101 240.373 12.3494C240.323 12.2744 240.384 12.1912 240.485 12.1109C241.071 11.9052 241.641 11.7063 242.217 11.5238C242.25 11.5102 242.299 11.4897 242.316 11.4829C243.226 11.1805 244.12 10.8849 244.949 10.6166C244.855 10.7134 244.698 10.7978 244.772 10.8824C244.971 10.7611 245.105 10.6671 245.192 10.554C245.5 10.4641 245.818 10.351 246.109 10.2679C246.612 10.0009 247.043 9.74474 247.458 9.4954C247.492 9.57719 247.568 9.62219 247.67 9.63721C247.785 9.58953 247.932 9.52823 247.921 9.45598C247.725 9.53772 247.635 9.46001 247.5 9.45861C248.13 9.08119 248.678 8.73781 249.104 8.42577C249.104 8.42577 249.137 8.41215 249.153 8.40534C249.147 8.38898 249.173 8.359 249.189 8.35218C249.264 8.30177 249.355 8.24454 249.423 8.17777C249.456 8.16415 249.473 8.15733 249.482 8.13417C250.446 7.40652 250.88 6.88046 250.907 6.48518C250.989 6.45113 251.07 6.41707 251.185 6.36939C251.158 6.30396 251.298 6.2263 251.287 6.15406C251.137 6.25489 251.03 6.31892 250.915 6.3666C250.87 5.9822 250.41 5.75174 249.661 5.66024C250.476 5.35919 251.286 4.90685 252 4.6862C252.081 4.78709 252.251 4.73533 252.129 4.90159C252.401 4.63449 252.881 4.3579 253.298 4.29938C253.211 4.18215 253.45 4.06362 253.672 3.95191C253.699 4.01734 253.584 4.06501 253.668 4.12637C253.798 4.07188 253.85 4.01191 253.918 3.94514C253.939 3.99421 253.88 4.03782 253.878 4.07735C254.105 3.88657 254.409 3.97115 254.42 3.81305C254.299 3.84436 254.194 3.86887 254.092 3.85385C254.272 3.77893 254.261 3.70668 254.424 3.63857C254.401 3.85937 254.736 3.60456 254.742 3.75587C254.991 3.47921 255.132 3.40156 255.64 3.28582C255.55 3.2081 255.572 3.12223 255.706 3.02821C255.582 3.32942 256.461 2.90571 256.577 2.72309C256.604 2.78853 256.585 2.83486 256.573 2.89756C257.151 2.5801 257.756 2.32808 258.301 2.25461C258.121 2.09916 258.812 1.86897 259.065 1.78315C259.052 1.84586 259.03 1.93172 258.962 1.99849C259.039 1.81313 258.489 2.0611 258.572 2.12246C259.075 1.85541 258.987 2.10346 259.168 2.12394C259.304 1.76003 259.427 1.82414 259.092 1.61823C258.821 1.75039 258.067 2.19866 258.123 1.96422C258.259 2.06103 258.219 1.82794 258.373 1.783C258.789 1.62906 258.743 1.60996 259.126 1.46967C259.043 1.40831 259.2 1.32383 259.228 1.25432C259.048 1.32925 259.069 1.14797 258.863 1.25287C259.005 1.50098 258.005 1.59072 257.669 1.98047C257.78 2.20268 256.41 2.83074 255.956 2.84698C256.345 2.62762 256.597 2.54181 256.757 2.4178C256.609 2.4791 256.62 2.321 256.49 2.37549C256.359 2.42998 255.872 2.6902 256.018 2.76385C255.767 2.71471 255.537 2.94503 255.32 2.97768C255.522 3.04725 255.16 3.33205 255.038 3.26796C255.103 3.24072 255.218 3.19303 255.197 3.14396C254.058 3.31135 253.136 4.23256 252.11 4.25686C251.908 4.41765 252.329 4.41502 252.156 4.50631C251.586 4.47483 250.885 5.18891 250.099 5.19008C250.119 5.23916 250.186 5.30733 250.095 5.36456C249.986 5.33318 249.652 5.45305 249.42 5.58794C249.222 5.57426 249.018 5.54424 248.787 5.54418C249.115 5.40795 249.494 5.44211 249.659 5.23905C249.555 5.12862 248.952 5.34112 248.748 5.54145C245.663 5.46303 240.1 6.53174 237.433 7.31624C237.455 7.23037 237.493 7.13769 237.531 7.04501C237.685 7.00007 237.846 6.97148 238 6.92653C237.978 6.78204 237.695 6.9769 237.553 6.95915C237.572 6.91281 237.591 6.86646 237.617 6.83648C237.764 6.77518 237.911 6.71387 238.052 6.63622C238.093 6.73437 238.169 6.77936 238.339 6.7276C238.015 6.36359 239.927 5.93194 240.226 5.4045C240.221 5.48356 240.159 5.5667 240.161 5.66211C240.334 5.57083 240.377 5.62945 240.489 5.6213C240.675 5.46732 240.238 5.57217 240.48 5.41411C240.865 5.23428 240.709 5.31875 240.628 5.44822C241.028 5.3011 240.664 5.16472 241.063 5.0176C241.169 5.31886 241.533 4.76418 241.72 4.93596C241.835 4.65793 242.178 4.74524 242.541 4.55585C242.574 4.31187 242.05 4.7602 242.002 4.64569C242.133 4.5912 242.034 4.53666 242.125 4.47943C241.947 4.41941 241.827 4.31579 241.577 4.36208C241.749 4.6361 241.269 4.45197 241.085 4.70137C241.13 4.62505 241.1 4.59914 241.044 4.60322C242.849 3.7749 244.518 3.08012 243.801 2.18851C243.787 2.15579 243.757 2.12989 243.727 2.10398C243.832 2.07947 243.937 2.05496 244.033 2.05362C243.978 1.92275 243.819 2.04675 243.925 1.8873C243.843 1.92135 243.738 1.94587 243.61 1.96084C243.566 1.90221 243.516 1.82722 243.456 1.77541C243.606 1.67458 243.707 1.59418 243.666 1.49603C243.575 1.55326 243.483 1.61049 243.376 1.67453C243.104 1.34597 242.798 1.07056 242.449 0.831945C242.528 0.837416 242.607 0.842886 242.67 0.855169C242.82 0.754335 243.032 0.665786 243.08 0.549938C242.769 0.679354 242.636 0.543016 242.283 0.70923C242.107 0.609685 241.905 0.540119 241.687 0.477362C242.557 0.0768271 243.484 -0.462729 244.219 -0.634304C244.022 -0.552568 244.071 -0.803358 243.901 -0.7516C243.672 -0.425885 243.184 -0.261063 242.772 -0.281605C242.268 0.12038 241.207 0.523595 240.622 0.824698C240.439 0.613382 239.574 0.934861 239.597 0.714047C239.329 0.806675 238.902 1.11872 238.747 1.06825C239.002 0.942907 238.931 0.818848 239.107 0.688032C238.864 0.750675 238.647 0.783341 238.311 0.942742C238.263 0.828234 238.397 0.734216 238.105 0.817297C237.382 1.15653 236.589 1.60207 235.708 1.7C235.812 1.58008 235.916 1.46015 236.012 1.32386C236.225 1.23531 236.438 1.14677 236.565 1.03639C236.154 1.11127 237.006 0.852481 236.877 0.772027C236.615 0.881014 236.499 0.602921 236.698 0.481653C236.925 0.425819 237.083 0.436762 237.134 0.607162C237.363 0.511801 237.595 0.376907 237.508 0.25966C237.025 0.575783 237.265 0.0919476 237.092 0.183233C237.087 0.262285 237.009 0.352237 236.892 0.439445C236.841 0.364462 236.753 0.382165 236.687 0.40941C236.787 0.233602 236.854 0.071401 236.872 -0.0703525C237.05 -0.24069 237.245 -0.417838 237.467 -0.529557C237.433 -0.61135 237.357 -0.656347 237.261 -0.655008C238.048 -1.1169 238.799 -1.75601 239.343 -1.69455C239.634 -1.87304 240.233 -2.04601 240.316 -2.21501C239.976 -2.11149 239.838 -2.30372 239.63 -2.15929C239.913 -2.35414 240.078 -2.55719 240.203 -2.76299C240.372 -2.6798 240.874 -3.04226 241.111 -3.02585C241.241 -2.94539 240.67 -2.84193 240.799 -2.76148C241.922 -2.92206 243.485 -3.9181 244.578 -4.10459C244.459 -3.88244 243.703 -3.85534 243.716 -3.59227C244.133 -3.65078 244.557 -3.9233 245.112 -4.01995C245.278 -3.89723 245.086 -3.75961 244.752 -3.63973C244.594 -3.88103 243.442 -3.19023 243.666 -3.66725C243.288 -3.37565 242.769 -3.10179 242.357 -3.12233C242.191 -3.01469 242.383 -2.92196 242.075 -2.83207C241.992 -2.89343 242.149 -2.97789 242.177 -3.0474C241.791 -2.63721 240 -2.00654 239.481 -1.50232C239.414 -1.57049 239.338 -1.61549 239.193 -1.59371C239.192 -1.45877 238.953 -1.34024 238.968 -1.21211C239.284 -1.42058 239.313 -1.25974 239.507 -1.30195C239.496 -1.37419 239.873 -1.6658 240.036 -1.59897C240.126 -1.52125 239.801 -1.42455 239.835 -1.34276C239.917 -1.37682 240.015 -1.41768 240.045 -1.39177C239.98 -1.36453 239.865 -1.31685 239.886 -1.26777C240.311 -1.44487 240.656 -1.95322 241.055 -1.86998C240.682 -1.75284 240.96 -1.63829 240.793 -1.53064C240.318 -1.42852 239.722 -0.969302 239.562 -0.845301C240.124 -1.15595 240.181 -0.834257 240.578 -0.941843C240.268 -0.717011 240.334 -0.97461 240.06 -0.802929C240.136 -0.527575 240.465 -0.56839 240.777 -0.602393C240.508 -0.509765 240.654 -0.436127 240.576 -0.346181C240.865 -0.389734 241.332 -0.699036 241.172 -0.344679C241.45 -0.460475 241.858 -0.726174 241.968 -0.599383C241.845 -0.433117 241.19 -0.256072 241.337 -0.0870182C242.623 -1.33256 243.97 -0.492606 245.275 -1.55413C245.282 -1.30741 245.602 -1.46 245.809 -1.46949C245.747 -1.25141 245.579 -1.00882 245.404 -0.782595C245.174 -0.782653 245.175 -0.687234 244.953 -0.575516C244.648 -0.525153 244.878 -0.755457 244.574 -0.609684C244.608 -0.527893 244.685 -0.482893 244.78 -0.484231C244.375 -0.258059 244.208 -0.24583 243.54 -0.00608889C243.477 0.211991 243.215 0.320973 243.447 0.416441C244.034 0.0758109 244.381 0.123604 244.851 -0.360174C244.679 -0.173473 245.402 -0.0520034 245.447 -0.35868C245.299 -0.29738 245.117 -0.182914 245.057 -0.234721C245.03 -0.300154 244.923 -0.371066 245.047 -0.441915C245.454 -0.572675 245.601 -0.864344 245.745 -0.655761C245.594 -0.65034 245.365 -0.554979 245.413 -0.440469C245.74 -0.576701 245.447 -0.358672 245.778 -0.439013C245.936 -0.65843 246.652 -1.01403 246.968 -0.992145C246.988 -0.94307 247.009 -0.893994 247.039 -0.868087C246.579 -0.772777 246.553 -0.282082 246.628 -0.562857C247.373 -0.757598 247.464 -1.27554 247.485 -1.45682C247.733 -1.59853 247.667 -1.34092 247.864 -1.42266C247.775 -1.63532 248.243 -1.84921 248.408 -2.05227C248.274 -1.95825 248.003 -2.05646 248.202 -2.17773C248.818 -2.35751 249.876 -2.95155 250.412 -3.00186C250.38 -2.89282 250.178 -2.73203 250.519 -2.83555C250.373 -3.13954 251.341 -3.12023 251.493 -3.356C251.473 -3.54002 251.086 -3.22525 251.077 -3.43244C251.565 -3.59725 251.283 -3.76771 251.573 -3.9462C252.043 -3.96926 253.203 -4.54829 253.522 -4.79629C253.281 -4.86859 253.043 -4.5197 252.804 -4.63152C252.91 -4.79098 252.754 -4.93687 252.86 -5.09633C253.06 -5.12218 253.494 -5.41786 253.624 -5.56776C253.25 -5.45063 253.092 -5.46157 253.418 -5.69322C252.612 -5.41534 252.262 -5.05829 251.414 -4.74364C251.448 -4.66184 251.442 -4.58278 251.348 -4.48603C251.249 -4.54057 250.913 -4.28575 250.847 -4.35392C250.779 -4.51751 251.369 -4.66731 251.268 -4.81727C250.983 -4.71783 250.254 -4.1646 250.201 -4.43041C250.037 -4.36229 249.89 -4.30099 249.733 -4.21651C249.961 -3.94657 248.653 -3.53659 248.862 -3.91139C248.407 -3.76019 247.784 -3.36641 247.626 -3.60771C248.249 -3.77114 248.67 -4.00412 249.067 -4.34207C248.887 -4.26714 248.823 -4.37484 248.565 -4.20997C248.694 -4.12951 248.426 -4.03689 248.364 -3.95376C248.274 -4.03148 247.942 -3.81619 247.826 -3.86393C247.814 -4.03159 247.592 -3.91987 247.508 -3.98123C247.856 -4.29874 248.441 -4.36949 248.847 -4.50024C248.789 -4.687 248.307 -4.27546 248.19 -4.41861C248.156 -4.5004 248.438 -4.56031 248.411 -4.62574C248.256 -4.67622 247.777 -4.30421 247.615 -4.37104C247.8 -4.52502 248.216 -4.67894 248.148 -4.84253C248.489 -4.94604 248.801 -4.98005 249.113 -5.01405C248.832 -5.08909 249.45 -5.4038 249.39 -5.68597C249.039 -5.32894 248.52 -4.82472 247.949 -4.95162C247.525 -4.67911 246.802 -4.33987 246.43 -4.35768C246.632 -4.51847 246.801 -4.66565 246.852 -4.82103C246.548 -4.90561 246.216 -4.36454 245.841 -4.34282C245.956 -4.3905 246.047 -4.44774 245.964 -4.50909C245.686 -4.3933 245.694 -4.28152 245.591 -4.16159C245.404 -4.10303 245.002 -4.14674 245.216 -4.37024C246.448 -4.7298 247.381 -5.34841 248.703 -5.63025C248.031 -5.21604 247.067 -5.17947 246.893 -4.72288C247.257 -5.0472 247.562 -4.86721 247.693 -5.15205C248.129 -5.2569 248.309 -5.10147 248.621 -5.36583C248.314 -5.18053 248.459 -5.43267 248.55 -5.4899C248.875 -5.5866 248.849 -5.55662 249.248 -5.70373C249.179 -5.96274 250.07 -6.21878 249.945 -6.4737C249.2 -5.81824 248.064 -5.69038 247.21 -5.52701C246.999 -5.34304 247.482 -5.4288 247.257 -5.27755C247.119 -5.23942 246.984 -5.24081 246.891 -5.279C247.025 -5.60338 246.741 -5.40854 246.368 -5.52175C246.834 -5.83106 246.793 -5.46849 247.137 -5.61154C247.352 -5.73962 247.591 -6.0885 247.788 -6.07482C247.816 -6.00939 247.645 -5.95764 247.666 -5.90856C247.82 -5.95351 247.931 -5.96165 248.092 -5.99024C248.002 -6.06796 248.024 -6.15383 248.158 -6.24785C248.351 -6.0597 248.658 -6.01464 249.132 -6.21218C249.115 -6.30078 248.921 -6.25858 249.062 -6.33624C249.439 -6.39749 249.956 -6.63182 250.298 -6.63992C250.384 -6.84844 250.723 -6.81701 250.98 -7.07729C251.068 -6.86463 251.793 -7.47375 251.908 -7.29109C251.894 -7.3238 251.953 -7.3674 252.067 -7.41509C251.933 -7.8772 250.751 -6.98193 250.354 -7.1047C250.877 -7.32267 250.633 -7.35545 250.358 -7.27918C250.952 -7.8338 252.058 -7.62227 251.968 -7.93034C252.213 -8.03252 252.947 -8.06914 252.778 -8.15234C252.316 -8.0175 252.682 -8.15099 252.551 -8.32687C252.396 -8.37733 252.033 -7.95759 251.799 -8.01353C251.772 -8.07897 252.442 -8.35823 252.111 -8.27789C251.723 -8.05853 251.735 -8.12123 251.521 -7.89774C251.353 -7.8855 251.273 -7.9864 251.105 -7.97416C250.972 -7.88014 251.266 -7.7724 250.942 -7.6757C250.531 -8.06153 249.483 -7.2603 248.838 -7.24137C250.049 -7.97578 251.333 -8.3953 252.229 -8.82582C252.13 -8.78495 252.064 -8.85312 252.188 -8.92397C252.286 -8.96484 252.368 -8.9989 252.466 -9.03977C252.507 -8.94162 252.59 -8.88026 252.692 -8.86524C252.988 -9.12278 253.135 -8.95373 253.502 -9.08723C254.134 -9.50418 255.964 -10.2275 256.61 -10.3814C257.068 -10.5721 258.616 -11.3705 259.246 -11.2872C259.219 -11.3527 259.113 -11.4236 259.237 -11.4944C259.731 -11.6429 261.196 -12.1373 261.212 -12.1441C261.234 -12.23 261.039 -12.2832 261.202 -12.3513C261.412 -12.4004 261.516 -12.2899 261.7 -12.309C262.003 -12.7805 262.857 -12.6181 263.351 -13.0923C263.115 -13.2437 262.905 -12.9643 262.975 -12.9357C262.804 -12.8839 262.582 -12.7722 262.457 -12.7968C262.849 -12.9602 262.429 -12.8622 262.386 -12.9208C262.489 -13.0407 262.587 -13.0816 262.755 -13.0938C262.556 -13.4333 261.757 -12.6783 261.348 -12.508C260.89 -12.3173 260.918 -12.7126 260.431 -12.4524C260.472 -12.3542 260.612 -12.4319 260.698 -12.4101C260.323 -12.158 259.857 -11.8487 259.471 -11.8992C259.778 -12.0845 259.439 -12.1159 259.184 -11.9906C259.068 -11.808 258.884 -11.7889 258.63 -11.5682C258.747 -11.8857 258.051 -11.3461 258.292 -11.7345C257.808 -11.5138 258.199 -11.5424 257.932 -11.3543C257.579 -11.4185 257.946 -11.3216 257.6 -11.1391C257.493 -11.21 257.271 -11.0982 257.394 -11.2645C256.87 -11.0465 256.647 -10.7999 256.204 -10.7114C256.149 -10.6119 256.134 -10.5097 256.04 -10.4129C255.627 -10.2985 255.237 -10.1746 254.701 -9.89389C254.558 -10.2374 253.179 -9.58618 252.609 -9.61766C252.629 -9.56859 252.696 -9.50043 252.605 -9.4432C252.359 -9.34102 252.25 -9.60276 252.066 -9.35337C252.085 -9.16935 252.479 -9.46776 252.482 -9.27693C252.019 -9.00715 251.246 -8.51254 250.672 -8.36955C251.019 -8.45671 251.104 -8.76065 250.934 -8.7089C250.755 -8.53855 250.672 -8.36955 250.302 -8.19653C250.357 -8.29603 250.3 -8.38736 250.354 -8.48685C249.833 -8.30841 249.364 -7.95957 248.975 -7.83563C248.954 -7.88471 249.039 -7.9583 249.097 -8.00189C249.724 -8.33979 250.879 -8.60941 251.088 -8.98421C250.474 -8.61359 249.525 -8.44887 248.769 -7.96107C248.667 -8.20645 247.58 -7.31253 247.163 -7.48438C246.333 -6.85075 244.551 -6.24324 243.763 -6.10712C243.829 -6.13436 243.841 -6.19706 243.804 -6.23933C243.559 -6.13716 243.383 -6.00634 243.312 -5.90004C243.427 -5.94772 243.541 -5.9954 243.542 -5.89998C242.902 -5.59481 242.694 -5.58531 242.315 -5.38912C242.321 -5.46817 242.382 -5.5513 242.381 -5.64672C241.859 -5.33334 241.738 -5.53238 241.239 -5.20945C241.359 -5.10583 241.613 -5.23117 241.367 -4.99405C241.312 -5.12492 241.048 -4.97641 240.89 -4.98735C240.76 -4.83744 241.161 -4.88914 240.838 -4.69703C240.233 -4.445 240.253 -4.39592 239.668 -4.09482C239.61 -4.28158 239.018 -3.99684 239.195 -4.26259C238.623 -4.02419 238.411 -4.07059 238.222 -3.74214C238.275 -3.93704 237.925 -3.81035 238.118 -4.08292C237.938 -4.00799 237.949 -3.93575 237.786 -3.86763C237.892 -3.79673 238.143 -3.7476 237.852 -3.5691C236.801 -3.18906 235.455 -2.78181 234.893 -2.24081C234.842 -2.31579 234.832 -2.38804 234.883 -2.448C234.72 -2.37988 234.573 -2.31858 234.416 -2.2341C234.545 -2.15365 234.484 -2.07053 234.215 -1.9779C234.33 -2.25594 233.969 -1.97115 233.877 -2.14428C234.232 -2.44543 234.676 -2.43851 235.236 -2.61421C235.301 -2.96723 236.555 -3.41266 236.796 -3.34036C236.255 -3.44136 234.901 -2.82011 234.549 -2.55848C233.92 -2.41141 233.358 -2.33113 232.615 -2.04097C232.745 -1.96052 232.476 -1.86789 232.415 -1.78476C232.427 -1.6171 232.649 -1.72883 232.671 -1.58434C233.051 -1.68511 232.78 -1.78332 233.081 -1.88957C233.078 -1.61968 233.531 -1.9617 233.554 -1.72179C233.106 -1.55424 232.376 -1.46173 232.364 -1.16867C232.201 -1.10056 232.053 -1.03925 231.913 -0.961594C231.967 -1.06108 231.91 -1.15242 231.965 -1.25191C231.425 -1.02713 232.198 -1.06102 231.642 -0.829429C231.418 -0.813126 231.338 -0.914015 231.252 -0.705483C230.88 -0.723294 231.297 -1.01217 231.073 -0.995864C231.107 -0.914073 230.493 -0.638876 230.433 -0.690689C230.343 -0.768404 230.364 -0.854267 230.498 -0.94829C230.479 -0.671593 231.034 -1.22895 231.319 -1.32839C231.46 -1.31064 231.541 -1.20975 231.734 -1.25196C231.639 -1.48097 232.221 -1.51219 232.375 -1.55714C232.122 -1.7971 231.632 -1.49733 231.396 -1.41833C231.302 -1.55194 231.703 -1.60364 231.756 -1.79855C231.401 -1.59281 231.086 -1.28892 230.824 -1.41029C230.855 -1.28898 230.146 -1.14738 230.464 -1.03008C230.763 -1.0968 230.861 -1.36803 231.007 -1.29439C230.752 -0.938687 230.401 -1.04236 230.037 -0.948391C230.017 -0.767112 230.355 -1.06146 230.325 -0.857007C230.227 -0.816136 230.247 -0.767061 230.165 -0.733C229.672 -0.489126 229.549 -0.553217 229.109 -0.504249C228.861 -0.362551 229.3 -0.506936 229.278 -0.421067C229.147 -0.366577 229.095 -0.306615 229.027 -0.239842C228.866 -0.211254 228.696 -0.159498 228.648 -0.274006C228.551 -0.368079 228.988 -0.472926 228.812 -0.57247C228.472 -0.373544 228.365 -0.309511 228.059 -0.259148C227.883 -0.128338 228.01 -0.00835288 227.699 0.121063C227.503 0.202804 227.439 0.0951114 227.259 0.170037C227.155 0.289962 226.65 0.59653 226.167 0.682285C226.126 0.814496 225.927 0.935763 225.807 1.0625C226.279 0.904498 226.428 0.708248 226.678 0.757373C226.577 0.837771 226.509 0.904549 226.457 0.964512C226.686 0.869151 226.701 0.766929 226.868 0.659282C226.918 0.964625 227.457 0.414068 227.586 0.494518C227.597 0.566761 227.513 0.640341 227.596 0.701704C228.058 0.336506 228.842 -0.0858522 229.304 0.00966555C229.048 -0.190763 230.244 -0.497174 229.94 -0.121038C230.424 -0.341743 230.033 -0.31321 230.3 -0.501251C230.383 -0.439894 230.57 -0.498461 230.618 -0.383951C229.909 0.218354 229.285 0.286363 228.408 0.440184C227.881 0.832628 227.601 0.853 227.275 1.08465C227.255 1.03557 227.218 0.993315 227.188 0.967407C227.21 1.11189 226.192 1.47832 226.557 1.47977C226.689 1.29034 227.315 1.08738 227.428 1.17465C226.859 1.46894 226.498 1.52337 225.93 1.81767C225.983 1.62276 225.826 1.70723 225.612 1.70037C225.706 1.83397 225.573 1.92799 225.425 1.9893C224.455 1.08808 223.556 0.310928 221.715 0.962044C218.947 2.28766 218.588 3.45436 218.873 4.50671C218.421 4.71379 217.963 4.90451 217.674 4.94806C217.473 5.10886 216.829 5.45356 216.198 5.73557C211.707 5.09115 203.862 6.30381 197.488 8.42052C194.2 10.2504 190.437 11.3563 186.494 12.4417C186.756 12.3327 187.07 12.0289 187.073 11.759C187.081 11.41 187.526 11.1866 187.998 11.0286C188.21 10.94 188.443 10.9006 188.67 10.8447C189.768 10.5792 190.044 10.5029 190.086 10.0054C190.169 9.37569 190.858 9.41538 191.275 9.1265C191.901 8.6932 193.104 8.17278 192.608 7.53476C192.521 7.41751 192.773 7.10134 192.931 6.88192C193.109 6.61617 193.011 6.42668 192.76 6.37755C192.047 6.23289 191.292 6.12503 190.511 6.04716C190.251 6.02119 189.863 6.10562 189.539 6.20232C188.857 6.40935 188.164 6.67907 187.496 6.91882C186.8 6.63241 186.078 7.66272 185.391 7.48809C184.269 8.20479 183.039 8.29447 181.879 8.64314C181.263 8.82293 180.598 8.79278 179.904 9.0625C179.233 9.34178 178.506 9.52971 177.872 9.85125C177.179 10.2164 176.596 9.92183 175.986 10.3483C175.719 10.5364 175.505 10.7599 175.249 10.5594C175.023 10.3849 175.317 10.0319 175.857 9.80716C176.642 9.48021 177.441 9.18597 178.226 8.85902C178.439 8.77047 178.733 8.64786 178.814 8.51839C179.001 8.22946 178.518 8.31523 178.408 8.18843C178.177 7.95802 178.058 7.62404 177.71 7.48083C177.293 7.309 176.971 7.13581 177.376 6.67927C177.703 6.31269 177.372 5.93232 178.006 5.61078C178.385 5.41459 179.037 5.18166 179.264 5.22123C179.568 5.30581 179.061 5.51698 178.82 5.67503C178.686 5.76906 178.629 5.90808 178.542 6.02119C179.287 5.92186 180.051 5.91113 180.805 5.69322C181.703 5.45353 182.622 5.03256 183.525 4.71381C183.624 4.67294 183.733 4.70431 183.835 4.71933C183.731 4.83926 183.664 5.00145 183.534 5.05594C182.863 5.33522 182.192 5.61448 181.521 5.89376C181.129 6.05723 180.852 6.26845 180.838 6.46608C180.819 6.74278 180.838 7.15716 181.281 7.06866C182.072 6.89301 182.685 7.21348 183.509 6.79385C184.447 6.32653 185.277 6.38397 186.165 6.16745C187.175 5.91961 188.167 5.2574 189.194 5.32852C189.211 5.3217 189.377 5.21406 189.396 5.16773C189.414 5.02597 189.507 4.8338 189.391 4.78606C189.192 4.67697 188.901 4.6251 188.592 4.61958C188.092 4.61674 185.654 5.40129 184.843 5.75823C184.729 5.80591 184.543 5.72953 184.411 5.68861C184.342 5.65997 184.308 5.57818 184.336 5.50867C184.473 5.14476 184.632 4.7904 184.785 4.41968C184.88 4.18798 185.142 4.079 185.259 4.22215C185.561 4.57661 186.032 4.64897 186.83 4.25932C188.013 3.68983 189.039 3.43518 189.64 4.0487C191.091 3.98225 192.506 3.96895 194.109 3.53178C194.312 3.4664 194.567 3.34106 194.687 3.21432C194.807 3.08758 194.85 2.91585 194.809 2.8177C194.762 2.70319 194.625 2.60638 194.451 2.60225C193.865 2.57758 193.243 2.60605 192.638 2.62772C192.492 2.09336 191.574 2.51434 191.027 2.4924C190.543 2.48275 189.949 2.57666 189.549 2.49342C189.236 2.43201 189.132 2.09122 188.639 2.56545C188.077 3.10646 187.101 3.20573 186.55 3.81898C186.284 4.10244 186.096 3.83523 185.97 3.71525C185.933 3.67299 185.85 3.61163 185.777 3.62252C185.23 3.73553 184.662 3.89487 184.134 3.96154C183.605 4.02821 183.711 3.40804 182.919 3.71863C182.592 3.85486 182.254 3.91884 181.906 4.006C181.808 4.04687 181.709 3.99233 181.597 4.00048C181.665 3.9337 181.72 3.83421 181.811 3.77698C182.994 3.2075 184.21 2.62439 185.452 2.47201C186.037 2.40127 186.555 2.26236 187.125 2.06349C188.47 1.56083 189.756 1.00637 191.165 0.841765C191.862 0.76287 192.73 0.266912 193.492 -0.0695839C193.606 -0.117264 193.718 -0.355773 193.71 -0.467549C193.686 -0.572509 193.489 -0.721129 193.401 -0.703427C192.504 -0.368326 191.689 -0.297635 190.864 -0.203776C190.845 0.0729218 190.608 0.286868 190.122 0.412156C189.775 0.499306 189.557 0.436555 189.498 0.249803C189.457 0.151653 189.41 0.0371448 189.352 -0.0541901C188.92 0.106548 188.472 0.274096 188.033 0.418481C188.012 0.369406 187.969 0.310781 187.896 0.321668C186.602 0.438594 185.879 0.777823 185.312 1.62824C185.18 1.81768 185.099 1.94716 184.901 1.93348C184.025 1.85695 183.146 1.81993 182.043 2.25995C181.798 2.36212 181.359 2.27614 181.216 2.16297C180.699 1.70623 179.934 1.8519 178.96 2.27694C178.076 2.64477 177.149 2.95396 176.266 3.32179C175.824 3.5057 175.564 3.7101 175.395 4.08763C175.025 4.95172 174.935 4.874 173.36 5.37661C172.272 5.7144 171.454 5.59426 170.472 5.77259C169.99 5.85835 169.615 5.88007 169.288 6.24666C169.055 6.51649 168.812 6.57913 168.473 6.5477C168.031 6.50126 167.663 6.30898 167.044 6.52828C167.062 6.84725 167.375 7.13902 166.578 7.52867C166.53 7.64452 166.51 7.8258 166.402 7.88984C166.072 8.0656 165.994 7.92519 165.891 7.81475C165.531 7.96461 165.336 8.14176 165.336 8.37212C165.336 8.60247 165.607 8.70068 165.931 8.60397C166.499 8.44463 167.057 8.17351 167.634 7.991C167.781 7.92969 167.934 8.01969 168.099 8.04699C168.031 8.11376 167.967 8.23643 167.885 8.27048C166.658 8.78135 165.431 9.29221 164.193 9.73082C162.801 10.2144 161.606 10.8466 160.555 11.6873C160.337 11.8549 160.187 12.1861 159.738 12.1233C158.95 12.0291 158.483 12.4733 157.999 12.9244C157.25 12.8329 156.472 13.1762 155.68 13.4868C154.211 14.0603 152.741 14.6338 151.274 15.1678C150.728 15.3762 150.064 15.6719 149.61 15.6881C148.791 15.7029 148.045 16.0326 147.269 16.3364C143.09 17.9615 138.927 19.5799 134.74 21.1887C133.899 21.5197 133.892 21.5034 133.424 20.9308C133.343 20.8299 133.188 20.7794 133.065 20.7153C132.938 20.8257 132.756 20.9401 132.692 21.0628C132.273 21.717 131.107 22.3751 130.337 22.3694C130.305 22.3831 130.254 22.3081 130.29 22.2549C130.335 22.1786 130.422 22.0655 130.51 22.0478C131.578 21.6609 132.224 21.2767 131.842 20.591C131.708 20.3592 132.083 19.8768 132.219 19.5129C132.346 19.1722 132.695 19.1804 132.971 19.1996C133.264 19.2119 133.435 19.1601 133.442 18.9461C133.439 18.7553 133.371 18.5917 133.336 18.4145C131.749 19.0752 130.009 19.4156 128.68 20.6025C128.375 20.8832 127.513 21.1652 127.069 21.1583C126.306 21.169 125.523 21.4564 124.775 21.5953C124.63 21.6171 124.533 21.523 124.411 21.4589C124.009 21.6455 123.483 21.6727 123.211 22.0352C122.794 22.5544 122.163 23.0668 122.062 23.6079C122.044 23.7496 121.914 23.8996 121.841 24.0454C121.649 23.9526 121.482 23.8299 121.241 23.7576C120.861 23.6281 120.455 23.7588 120.081 24.1063C119.928 24.2467 119.698 24.477 119.603 24.4783C118.988 24.5232 118.151 24.6797 117.862 24.4929C117.367 24.1806 117.24 24.291 116.747 24.7653C116.328 25.1891 116.808 25.6036 115.955 25.9973C115.942 26.06 115.963 26.1091 115.918 26.1854C115.462 27.0276 114.206 26.3608 113.714 27.1608C113.555 27.1499 113.381 27.1457 113.265 27.098C113.11 27.0475 113.028 26.8512 112.907 26.8826C111.441 27.2816 110.105 27.3004 108.681 27.5672C108.592 27.5849 108.475 27.6721 108.407 27.7389C108.238 27.8861 108.337 27.9406 108.581 27.9734C108.707 27.9979 108.789 28.1942 108.772 28.201C107.852 28.757 106.873 29.1261 105.833 29.3481C105.374 29.4434 105.686 29.4094 105.785 29.2336C106.064 28.657 105.869 28.6038 105.1 28.924C104.658 29.1079 104.157 29.24 103.775 29.4757C103.311 29.7455 103.005 30.3915 102.431 30.3041C101.55 30.1717 101.303 30.8695 100.727 31.0521C100.288 31.1964 99.8379 31.2686 99.3853 31.3802C99.1918 31.4225 98.8796 31.4565 98.8346 31.5328C98.3097 32.1161 97.7454 32.2359 97.0407 32.203C96.7708 32.2002 96.3578 32.3146 96.0538 32.4604C94.7819 33.0476 93.2579 33.2598 92.2258 34.2846C92.1154 34.3882 91.791 34.4849 91.5811 34.5339C91.1312 34.6061 90.6814 34.6782 90.2766 34.674C89.013 34.6819 87.8693 35.0238 86.7923 35.8945C86.6328 36.0185 86.4146 36.1861 86.2115 36.2515C84.4517 36.7731 83.0216 37.8101 81.4266 38.5894C80.5474 39.0131 79.5767 39.494 79.2481 40.2259C78.6851 40.4412 77.9762 40.8131 77.6041 40.7953C76.8694 40.7365 76.4044 41.3716 75.832 41.3796C75.1341 41.3631 74.4443 41.6887 73.8199 41.9871C72.9406 42.4108 72.296 42.1994 71.5258 42.4241C71.2995 42.4799 71.0609 42.5985 70.8551 42.7034C70.3098 43.0072 69.8667 43.5564 69.1211 43.4254C68.6589 44.021 67.6938 44.1925 67.0558 44.6885C66.1083 45.4093 64.7628 45.912 64.1969 46.8578C64.1165 46.9873 63.5372 46.7486 63.0859 47.1861C62.771 47.4899 62.7163 48.0501 61.9462 48.0445C61.1924 48.0321 61.0696 48.6591 60.5216 48.7721C60.3117 48.8211 60.0295 48.881 59.93 48.8264C59.8074 48.7624 59.7788 48.6015 59.8361 48.4625C59.9002 48.3398 60.1483 48.1981 60.301 48.0578C60.4768 47.927 60.6459 47.7798 60.8054 47.6558C60.6309 47.6516 60.4524 47.5916 60.282 47.6434C59.7122 47.8423 59.1492 48.0575 58.5698 48.2795C57.8991 48.5588 57.1848 48.7795 56.5578 49.1174C56.0547 49.3844 55.7548 49.8164 55.1263 50.0589C54.4652 50.315 53.8013 50.6106 53.1674 50.9322C52.9711 51.0139 52.8456 51.2197 52.7161 51.3696C52.6193 51.5059 52.562 51.6449 52.5143 51.7608C52.5143 51.7608 52.7119 51.7744 52.8169 51.7499C54.5195 51.3673 55.7615 50.2935 57.2787 49.6041C57.6386 49.4543 57.6973 48.95 58.3079 49.0796C58.5587 49.1287 58.1429 49.513 57.5021 50.0485C56.9623 50.5037 56.3883 50.877 55.7067 51.0841C54.18 51.5662 52.998 52.4615 51.662 53.1713C51.5312 53.2258 51.4357 53.4575 51.4602 53.5625C51.4847 53.6674 51.6633 53.7275 51.8023 53.7847C51.865 53.797 52.019 53.7521 52.124 53.7276C52.3407 53.6949 52.5479 53.6854 52.7551 53.6759C52.6188 53.8095 52.5124 53.9689 52.3488 54.037C51.9208 54.2537 51.4491 54.4117 51.0142 54.6119C50.1677 55.022 49.0295 55.2848 48.442 55.1647C47.98 55.0692 47.4906 55.1386 46.8649 55.3416C45.3054 55.8374 44.2066 56.794 42.887 57.497C41.4529 58.2477 40.2831 59.3106 38.6187 59.8309C36.8984 60.3553 35.6605 61.2547 34.6025 62.3094C34.3039 62.6065 34.0517 62.9227 33.5405 63.0779C33.2161 63.1746 32.6558 63.3504 32.6054 63.2754C32.4582 63.1063 32.8903 62.9456 33.148 62.7807C33.2557 62.7167 33.2898 62.5681 33.3607 62.4618L30.8253 63.0569C30.6507 63.2831 30.4926 63.5025 30.3181 63.7287C30.5348 63.6961 30.742 63.6866 30.9587 63.6539C31.1591 63.6281 31.3663 63.6186 31.583 63.5859C31.4767 63.7454 31.3798 63.8816 31.2735 64.0411C30.9572 64.4799 30.3873 64.6788 29.8148 64.9172C28.2703 65.5411 27.4359 66.5796 26.2198 67.3931C26.1583 68.1673 25.1781 68.9017 24.5959 69.624C24.1432 70.1964 23.9359 70.6666 24.1921 71.0974C24.4986 71.6032 24.5517 72.0993 23.2226 72.5952C22.1142 73.575 20.7482 74.4893 19.9042 75.5509C19.8333 75.6572 19.8646 75.7785 19.9055 75.8767C19.9191 75.9094 20.1099 75.9067 20.2081 75.8658C20.7779 75.667 21.3532 75.389 21.9107 75.2529C22.4682 75.1167 22.9889 75.1686 23.2819 75.4113C23.455 75.5504 23.095 76.1609 22.6819 76.5057C22.2688 76.8505 21.8476 76.8531 21.4332 76.8721C20.9889 76.8651 20.5881 76.9168 20.235 77.3134C19.9596 77.62 19.751 77.9948 19.3883 78.1842C18.3005 78.7524 18.6126 78.9487 19.0841 79.2514C19.2436 79.3578 18.7064 80.0038 18.8549 80.0379C19.7859 80.2453 19.6508 80.9349 19.9083 81.4612C20.0636 81.742 20.1794 82.0201 20.5964 82.1919C21.2684 82.4688 21.4918 82.9132 20.2444 83.6053C20.104 83.683 20.0086 83.9147 20.0167 84.0265C20.0575 84.355 20.1869 84.6658 20.2768 84.9739C20.3776 85.3542 20.7538 85.4279 21.4354 85.2208C21.7925 85.1105 21.7939 85.2059 21.6521 85.4185C21.5103 85.6311 21.3343 85.9923 21.4665 86.0332C22.1603 86.2242 21.799 86.7394 21.8248 87.1701C21.8397 87.5286 21.5329 87.9443 21.586 88.2101C21.6432 88.5318 22.2115 88.6982 22.6449 88.8632C23.2405 89.0951 23.28 89.5586 23.408 90.0043C23.4352 90.0697 23.123 90.3341 23.0835 90.3314C22.3393 90.2958 22.128 90.4797 22.2069 90.9459C22.3212 91.5893 22.9073 92.0747 22.3795 92.9278C22.2445 93.1568 23.1659 93.6177 23.7602 93.5238C24.8371 93.3441 24.6679 93.7217 24.3789 94.2259C24.3339 94.3023 24.2534 94.4317 24.2698 94.4249C24.8245 94.5586 25.078 94.7986 25.1842 95.0999C24.9225 95.2088 24.6335 95.2524 24.3105 95.2142C23.9479 95.1732 23.5445 95.034 23.2132 95.1144C22.518 95.2887 22.8532 95.9553 22.7876 96.4433C22.6948 97.0962 22.437 97.7218 22.242 98.3596C22.0155 99.1065 21.5562 99.2018 20.8024 99.1894C19.7065 99.185 19.2263 100.613 18.0963 100.758C17.9287 100.77 17.7923 101.134 17.69 101.349C17.6518 101.442 17.7267 101.622 17.8071 101.723C17.9611 101.908 18.1996 102.25 18.3372 102.212C19.5477 101.938 20.859 101.815 21.515 100.486C21.8095 99.9025 22.2716 99.998 22.8127 100.099C23.1657 100.163 23.8104 100.144 23.8609 99.9889C24.0205 99.4041 24.4145 99.1057 24.8494 98.9055C24.9311 99.1018 25.0456 99.2844 25.4177 99.3022C26.6035 99.3843 26.9537 99.9487 26.9208 100.653C26.0566 100.975 25.2359 101.355 24.3853 101.709C23.8618 101.927 23.7445 102.475 23.5603 102.955C23.4267 103.279 23.4825 103.505 23.7769 103.613C24.2662 103.774 24.7732 104.024 25.2435 104.001C25.7301 103.971 26.1596 103.619 26.6339 103.422C26.9775 103.279 27.3592 103.043 27.689 103.098C28.1838 103.179 28.8448 103.384 29.0642 103.773C29.2195 104.053 28.9454 104.916 28.6127 105.131C27.7811 105.67 26.8119 106.016 25.9095 106.43C25.2619 106.719 25.0969 107.152 25.2139 107.986C25.3568 109.021 24.487 109.882 24.7607 111.093C24.9404 111.939 25.1325 112.493 25.9557 112.534C26.5582 112.552 27.1757 112.467 27.7741 112.429C28.4212 113.753 29.2311 113.07 30.0503 112.825C30.7319 112.618 30.927 111.98 31.3251 111.507C31.7914 110.967 32.5368 111.559 33.1244 111.449C33.3411 111.416 33.5851 111.219 33.7106 111.013C34.0379 110.416 34.53 110.077 35.1284 109.808C37.5195 108.774 40.0931 108.087 42.0537 106.157C42.1382 106.083 42.2527 106.036 42.3972 106.014C42.3563 106.146 42.2595 106.282 42.1395 106.409C42.0877 106.469 42.0522 106.522 42.0331 106.569C41.1252 107.062 40.2773 107.607 39.4933 108.26C39.4606 108.273 39.4375 108.264 39.4047 108.277C39.2248 108.352 39.0462 108.522 38.8867 108.646C38.9358 108.626 38.9985 108.638 39.0543 108.634C38.5635 109.069 38.0932 109.553 37.6664 110.095C38.0725 110.655 38.5154 111.028 38.9965 111.307C37.685 112.122 36.4839 113.064 35.49 114.226C35.3986 114.283 35.3305 114.35 35.2555 114.401C34.8683 114.715 34.5983 115.173 34.2343 115.498C33.8021 115.889 33.0267 115.041 32.6244 115.918C32.3408 116.574 31.7153 115.855 31.2763 116C30.926 116.126 30.5825 116.27 30.2458 116.429C30.1476 116.47 30.1271 116.651 30.063 116.774C29.673 117.589 29.4124 118.484 28.7035 119.087C28.5181 119.241 28.7225 119.501 29.0714 119.509C29.404 119.524 29.8512 119.261 29.9533 119.737C30.0173 120.075 29.6954 120.823 29.6095 120.801C28.6064 120.605 28.1917 122.006 27.5443 121.834C26.1472 121.475 25.9453 122.327 26.0473 123.264C26.1452 124.144 25.8671 124.49 25.2223 124.74C24.8788 124.883 24.5052 125 24.189 125.208C24.0554 125.302 24.0035 125.593 23.9803 125.814C23.968 125.876 24.1642 126.025 24.2896 126.049C24.9166 126.172 25.5327 126.223 26.1501 126.369C27.3455 126.658 28.7264 126.333 29.5861 127.798C29.7006 127.981 30.269 127.917 30.6275 127.902C30.9928 127.903 31.4931 127.676 31.6798 127.848C32.0463 128.175 32.327 128.711 32.4523 129.196C32.5612 129.688 32.4534 130.213 32.441 130.736C33.203 130.63 33.8108 131.26 34.5168 131.388C35.4042 131.537 36.1717 130.891 37.1149 131.266C37.6178 131.46 38.0991 131.048 37.9343 130.33C37.7736 129.667 38.0681 129.314 38.5752 129.103C39.6222 128.667 39.9115 127.242 41.0988 126.958C41.1642 126.931 41.1807 126.464 41.0921 126.251C41.0036 126.038 40.7664 125.792 40.5715 125.738C40.0795 125.617 39.5697 125.637 39.0777 125.516C38.5556 125.368 38.2013 124.979 37.9438 124.452C37.6863 123.926 37.6892 123.196 38.0587 123.023C38.7553 122.713 39.4355 122.411 40.1525 122.151C40.8464 121.881 41.2798 122.276 41.3123 123.184C41.3597 124.45 41.3529 124.434 42.6014 124.759C42.968 124.856 43.3455 125.025 43.6903 125.207C44.1674 125.431 44.4849 125.548 44.8981 124.973C45.5921 124.013 46.804 123.374 47.844 123.612C49.4087 123.959 50.5035 122.716 51.8761 122.97C53.4531 123.254 54.4811 122.173 55.7993 121.835C56.1632 121.741 56.4959 121.526 56.8598 121.432C57.2142 121.361 57.66 121.233 57.9516 121.381C59.2382 122.073 60.4214 121.965 61.5801 121.29C63.3874 121.804 64.7983 121.275 65.9028 119.778C65.9996 119.642 66.5816 119.841 66.906 119.975C67.4157 120.185 67.3052 120.519 66.993 120.783C66.4109 121.275 66.0535 122.307 64.9659 121.723C64.8896 121.678 64.6606 121.773 64.6387 121.859C64.3386 122.752 63.762 122.935 62.9184 122.614C62.7793 122.557 62.5271 122.873 62.3485 123.043C62.3158 123.057 62.3744 123.244 62.4248 123.319C63.7275 124.926 64.1691 124.972 65.5011 123.746C66.7486 122.593 68.1568 121.872 70.5395 121.648C71.1706 121.596 71.2485 120.585 72.0349 121.045C72.516 121.324 72.5462 120.659 72.7929 120.422C73.0656 120.155 73.3587 119.937 73.7989 120.118C74.4872 120.388 75.0447 120.252 75.387 119.553C75.6871 118.89 76.3182 118.608 76.903 118.538C78.3384 118.343 79.9807 118.83 80.7677 116.986C80.8345 116.824 81.4738 116.884 81.8336 116.964C82.6923 117.183 83.5661 116.838 83.911 116.33C84.8751 114.911 86.3554 114.64 87.7227 114.052C90.0252 113.035 92.3508 112.028 94.6737 111.061C95.3771 110.768 95.9769 110.365 96.4119 109.704C97.4941 110.136 98.0749 109.549 98.5031 108.641C100.143 108.477 100.709 106.61 102.164 106.138C103.009 105.863 103.768 105.336 104.601 105.123C105.66 104.855 105.952 103.62 106.914 103.258C107.494 103.036 108.006 102.746 108.433 102.203C109.251 101.172 110.405 100.576 111.706 100.706C112.685 100.797 113.311 100.595 114.011 99.8805C114.884 98.9797 115.629 97.6331 117.256 97.992C117.404 98.0261 117.657 97.7099 117.766 97.511C118.257 96.6155 118.978 96.1809 119.98 96.5124C120.694 96.7524 121.449 96.6299 121.705 96.1393C122.334 94.9754 123.382 94.6348 124.406 94.1894C125.315 93.7916 126.122 93.3787 126.868 92.5883C127.692 91.708 128.898 91.148 130.273 91.3624C131.342 91.5316 132.254 91.0943 132.887 90.2166C133.203 89.7778 133.608 89.5516 134.032 89.2791C134.58 88.9357 135.301 89.8833 135.717 89.0383C136.104 88.2628 136.892 88.1266 137.572 87.8242C139.652 86.9196 141.76 86.0804 143.87 85.2018C151.329 82.0957 158.775 78.9569 166.205 75.825C166.892 75.5389 167.757 75.3128 168.115 74.7418C168.623 73.935 169.948 74.7654 170.042 73.5169C170.853 73.1599 171.658 72.7866 172.452 72.4365C174.31 71.6436 176.175 70.8671 178.027 70.0579C178.599 69.8195 179.334 69.6479 179.637 69.1764C180.252 68.2101 181.192 67.9336 182.108 67.5522C182.795 67.2661 183.691 67.0659 184.081 66.4813C184.887 65.282 186.09 64.9919 187.229 64.4987C188.439 63.9947 189.666 63.4838 190.87 62.9634C192.148 62.8533 193.481 62.8741 194.903 63.1075L193.521 62.8768C193.21 62.5455 194.006 62.0604 194.616 61.6339C194.49 61.6094 194.358 61.5685 194.233 61.5439C196.785 60.4813 199.33 59.4024 201.875 58.3234C202.905 57.8943 203.836 57.4106 204.706 56.5493C205.543 55.7017 206.932 55.488 208.094 55.0044C210.581 55.4466 212.367 53.7432 214.467 53.0227C215.281 51.4744 216.895 51.3398 218.225 50.709C219.252 50.224 220.508 49.9694 221.215 49.1763C221.387 48.9896 221.549 48.8261 221.718 48.6789C223.193 48.487 225.237 48.0963 228.663 47.1498C234.221 43.8566 240.765 39.7498 247.924 37.3061C250.514 36.3812 253.329 36.6872 253.142 37.4368C256.116 36.0063 260.481 34.2272 263.663 33.0175C276.095 24.9811 259.969 28.8934 254.808 30.6969L254.855 30.8114ZM239.916 15.6302C239.868 15.5156 240.213 15.468 240.292 15.4735C240.263 15.543 240.081 15.6574 240.251 15.6057C240.203 15.7215 239.886 15.8346 239.759 15.945C239.478 15.8699 240.244 15.5893 239.922 15.6465L239.916 15.6302ZM237.5 16.3288C237.68 16.2539 237.876 16.1722 238.05 16.0809C237.983 16.2431 237.867 16.4257 237.665 16.5865C237.338 16.7227 237.508 16.4406 237.5 16.3288ZM236.47 16.758C236.4 16.9597 236.761 16.6749 237.049 16.5359C237.282 16.4965 236.998 16.6913 237.218 16.6191C237.338 16.7227 236.694 16.8371 236.808 16.9243C236.583 17.0756 236.577 16.9243 236.381 17.006C236.182 17.1273 236.539 17.017 236.377 17.1805C236.288 17.1982 236.193 17.1995 236.069 17.2704C236.114 17.1941 236.103 17.1218 236.059 17.0632C235.747 17.3276 236.013 17.2745 235.455 17.4106C235.408 17.2961 235.709 17.1899 235.947 17.0714C235.852 17.0727 235.74 17.0808 235.619 17.1122C235.77 16.8764 236.092 17.0496 236.47 16.758ZM235.012 17.2688C235.195 17.1543 235.265 17.183 235.402 17.1448C235.423 17.1939 235.259 17.262 235.151 17.3261C234.985 17.4337 235.273 17.5251 234.869 17.6163C234.849 17.5672 234.812 17.525 234.782 17.4991C234.978 17.4173 235.07 17.3601 235.003 17.2919L235.012 17.2688ZM235.945 14.8073C236.289 14.8946 236.53 14.5062 236.91 14.6358C236.394 14.8701 236.206 15.0636 235.9 15.114C235.899 15.0186 236.105 14.9137 235.952 14.8237L235.945 14.8073ZM240.455 -1.00593C240.052 -0.914705 240.911 -1.15713 240.517 -1.08907C240.627 -1.19264 240.995 -1.23072 241.178 -1.34517C241.198 -1.29609 241.035 -1.22798 240.92 -1.1803C240.822 -1.13943 240.912 -1.06172 240.797 -1.01404C240.773 -0.88864 240.759 -1.15172 240.432 -1.01549L240.455 -1.00593ZM241.097 -0.754978C241.097 -0.754978 241.164 -0.686817 241.246 -0.720872C240.8 -0.362489 241.074 -0.994883 241.528 -1.01113C241.602 -0.926608 241.214 -0.84219 241.097 -0.754978ZM242.062 -0.926507C241.948 -0.878827 242.025 -0.738405 242.149 -0.809254C241.758 -0.550366 241.975 -0.813388 241.652 -0.851627C241.81 -0.840682 242.094 -1.03554 242.252 -1.0246C242.279 -0.959165 242.092 -0.900599 242.072 -0.949675L242.062 -0.926507ZM242.17 -1.68162C242.161 -1.88881 242.546 -1.83828 242.872 -2.06993C243.038 -1.94722 242.282 -1.68977 242.17 -1.68162ZM242.371 -1.93782C241.918 -1.82615 241.911 -1.84252 241.504 -1.80717C241.442 -1.9544 241.869 -2.03608 241.992 -1.97199C242.292 -2.40401 243.028 -2.48017 243.494 -2.78948C243.674 -2.63405 243.844 -2.91616 244.151 -2.87111C243.859 -2.55768 242.701 -2.34394 242.377 -1.92147L242.371 -1.93782ZM244.422 -3.00326C244.375 -3.11777 244.445 -3.22408 244.684 -3.34261C244.786 -3.32759 244.879 -3.2894 244.91 -3.16809C244.704 -3.06318 244.55 -3.01823 244.422 -3.00326ZM250.279 -7.05429C250.549 -7.0515 250.354 -6.87435 250.457 -6.76392C250.032 -6.58682 250.162 -6.73672 249.705 -6.45059C249.464 -6.52289 249.995 -6.62908 249.905 -6.70679C249.851 -6.83766 249.334 -6.37297 249.367 -6.61696C249.753 -6.79679 250.016 -6.81037 250.286 -7.03794L250.279 -7.05429ZM257.407 -11.0014C257.422 -10.8733 257.128 -10.7507 256.936 -10.6131C256.772 -10.7753 257.188 -10.9292 257.407 -11.0014ZM253.798 -9.57514C253.567 -9.34483 253.34 -9.38442 253.059 -9.2291C253.031 -9.29453 252.995 -9.33679 252.951 -9.39541C253.321 -9.56844 253.577 -9.59836 253.798 -9.57514ZM249.183 -6.36756C249.048 -6.36896 248.826 -6.25724 248.603 -6.14552C248.542 -6.29275 249.139 -6.65654 249.183 -6.36756ZM247.997 -6.91034C248.166 -6.82716 247.47 -6.5179 247.505 -6.57105C247.322 -6.68695 247.831 -6.8027 247.997 -6.91034ZM246.284 -6.59996C246.23 -6.40506 245.663 -6.2457 245.433 -6.24576C245.291 -6.49387 246.102 -6.62044 246.284 -6.59996ZM247.439 -4.24022C247.277 -4.07669 246.752 -3.95414 246.592 -4.0605C246.925 -4.04542 247.213 -4.41474 247.439 -4.24022ZM247.501 -1.92436C247.336 -1.7213 247.448 -1.72946 247.605 -1.58357C247.121 -1.36287 246.945 -1.4624 246.804 -1.15438C246.385 -1.05634 245.726 -1.30049 246.383 -1.61248C246.381 -1.34259 247.185 -1.94624 247.501 -1.92436ZM246.784 -2.1249C246.881 -2.03082 246.359 -1.9478 246.584 -1.86869C246.456 -1.85373 246.302 -1.80878 246.096 -1.70387C245.833 -1.92066 246.554 -2.12495 246.777 -2.14126L246.784 -2.1249ZM245.809 -3.63812C245.833 -3.53316 245.364 -3.41469 245.205 -3.29069C245.107 -3.48018 245.627 -3.65861 245.809 -3.63812ZM242.577 -3.65525C243.012 -3.85551 243.43 -4.04896 243.865 -4.24923C243.967 -4.00386 244.188 -4.21099 244.502 -4.37994C244.774 -4.41667 243.962 -4.15516 244.436 -4.12234C244.093 -3.9793 243.917 -4.07884 243.64 -3.86763C243.62 -3.9167 243.599 -3.96578 243.569 -3.99168C243.265 -3.84591 243.142 -3.67964 242.749 -3.61158C242.667 -3.57752 242.71 -3.51891 242.708 -3.47938C242.423 -3.37994 242.732 -3.60477 242.6 -3.6457L242.577 -3.65525ZM242.048 -3.35821C242.104 -3.59265 242.252 -3.32818 242.376 -3.39903C242.365 -3.24092 241.973 -3.07744 241.725 -2.93574C241.447 -3.0503 242.439 -3.38674 242.048 -3.35821ZM239.74 -2.49321C239.899 -2.38685 239.756 -2.26966 239.725 -2.16062C239.43 -2.03801 239.2 -2.03807 239.116 -2.19484C239.328 -2.28339 239.55 -2.39511 239.756 -2.50002L239.74 -2.49321ZM238.919 -2.11311C238.779 -1.80509 239.287 -2.15118 239.315 -1.85539C238.651 -1.79012 237.822 -1.5218 237.17 -1.28886C237.603 -1.67996 238.506 -1.76835 238.903 -2.1063L238.919 -2.11311ZM187.223 0.870829C187.494 0.738675 187.796 0.632427 188.09 0.509821C188.09 0.509821 188.083 0.493463 188.076 0.477104L188.155 0.482576C188.155 0.482576 188.106 0.503006 188.074 0.516631C188.094 0.565706 188.082 0.6284 188.07 0.691101C188 0.892817 187.735 1.04133 187.369 1.17483C187.287 1.20888 187.096 1.21157 187.099 1.17204C187.098 1.07662 187.125 0.9117 187.207 0.877645L187.223 0.870829ZM179.927 4.36947C179.539 4.58884 179.134 4.81502 179.052 4.84907C178.269 5.1365 177.811 5.32722 177.471 5.20037C177.401 5.17173 177.367 5.08994 177.396 5.02043C177.443 4.90458 177.595 4.66881 177.634 4.67154C177.963 4.63073 178.256 4.64306 178.584 4.60225C179.025 4.55328 179.586 4.01227 179.92 4.35312L179.927 4.36947ZM176.566 4.27192C176.566 4.27192 176.817 4.09068 176.967 3.98985C176.967 3.98985 176.953 3.95714 176.986 3.94351C177.002 3.9367 177.035 3.92308 177.051 3.91627C177.076 3.79087 177.067 3.6791 177.185 3.59189C177.361 3.46107 177.581 3.4843 177.485 3.62058C177.43 3.72007 177.224 3.82498 177.051 3.91627C177.051 3.91627 177.065 3.94898 177.032 3.9626C177.016 3.96941 176.983 3.98304 176.967 3.98985C176.947 4.03619 176.952 4.09208 176.932 4.13842C176.92 4.20112 176.892 4.27062 176.833 4.31423C176.68 4.45459 176.469 4.4082 176.566 4.27192ZM37.0495 125.209C37.0495 125.209 36.8246 125.13 36.7674 125.038C36.7538 125.006 36.7401 124.973 36.7524 124.91C36.7483 124.854 36.7674 124.808 36.7797 124.745C36.7797 124.745 36.8615 124.711 36.8942 124.697C36.9269 124.684 36.9597 124.67 37.006 124.689C37.2472 124.762 37.2731 124.962 37.0659 125.202L37.0495 125.209ZM230.14 20.6412C230.238 20.6004 230.259 20.6494 230.305 20.6685C230.207 20.7094 230.118 20.7271 230.004 20.7748C227.696 22.1005 227.184 23.1772 227.342 24.1096C226.87 24.2676 226.286 24.5687 225.776 24.589C225.45 24.8207 225.071 25.2472 224.766 25.0672C224.471 25.1898 224.591 25.2934 224.392 25.4147C224.189 25.4801 224.267 25.1598 224.054 25.2483C224.109 25.3792 223.803 25.4296 223.694 25.6285C223.43 25.5467 222.962 25.7606 222.74 25.642C222.975 25.4675 223.614 25.0669 223.186 25.0532C223.054 25.473 222.466 25.8136 221.922 25.9825C221.659 25.9961 221.386 26.0328 221.13 26.0628C221.067 26.0505 221.005 26.0382 220.952 26.0027C220.837 26.0504 220.851 26.0831 220.874 26.0927C220.706 26.1049 220.529 26.1403 220.361 26.1525C220.331 26.1266 220.301 26.1007 220.265 26.0585C220.395 26.004 220.51 25.9563 220.634 25.8854C220.477 25.5092 220.043 25.7095 219.552 25.9138C219.606 25.8143 219.677 25.708 219.702 25.5826C220.064 25.3932 220.582 25.2543 221.139 25.0227C221.201 24.8047 221.051 24.9055 220.821 24.9054C221.009 24.7119 221.304 24.5893 221.628 24.4926C221.636 24.6044 221.638 24.6998 221.646 24.8116C221.522 24.8824 221.404 24.9696 221.257 25.031C221.284 25.0964 221.363 25.1019 221.426 25.1141C221.492 25.0869 221.557 25.0596 221.606 25.0392C221.523 24.9779 221.558 24.9247 221.633 24.8743C221.648 25.0024 221.663 25.1305 221.678 25.2587C221.606 25.2696 221.55 25.2736 221.504 25.2545C221.128 25.4112 221.023 25.6661 220.704 25.6837C220.63 25.8296 220.896 25.7765 220.652 25.974C221.048 25.8665 221.322 25.6948 220.934 25.6838C221.147 25.5952 221.408 25.4862 221.686 25.3705C221.707 25.4195 222.04 25.4346 222.228 25.4714C222.219 25.3597 222.218 25.2643 222.21 25.1525C222.537 25.0163 222.834 24.8541 223.016 24.6442C222.843 24.7355 222.783 24.6837 222.626 24.7682C222.646 24.8173 222.431 24.9453 222.209 25.0571C222.2 24.9453 222.192 24.8335 222.194 24.6986C222.194 24.6986 222.164 24.6727 222.141 24.6631C222.206 24.6359 222.255 24.6154 222.288 24.6018C222.239 24.6223 222.173 24.6495 222.169 24.5936C222.284 24.5459 222.431 24.4846 222.42 24.4124C222.299 24.4437 222.175 24.5146 222.044 24.5691C221.961 24.5077 221.901 24.4559 221.818 24.3945C222.24 24.257 222.663 24.1194 222.859 23.8073C222.614 23.9095 222.338 23.9857 221.951 24.0702C223.606 23.3427 224.442 23.0907 226.053 22.3046C226.08 22.37 225.94 22.4477 225.951 22.5199C226.33 22.3237 226.343 22.1261 226.755 21.9163C226.792 21.9585 226.81 22.0471 226.924 21.9994C226.897 21.934 227.107 21.885 227.202 21.8837C227.19 21.716 226.871 21.964 226.823 21.8495C227.291 21.4052 228.086 21.2855 228.756 20.7758C228.991 20.8318 229.419 20.6152 229.721 20.6043C229.715 20.3576 229.458 20.3875 229.777 20.1395C230.072 20.2473 230.605 20.2365 230.1 20.6385L230.14 20.6412ZM234.279 13.5243C234.274 13.6987 233.968 13.6537 233.889 13.6482C233.927 13.5555 234.149 13.4438 234.299 13.343C234.319 13.3921 234.198 13.4234 234.14 13.467C234.16 13.5161 234.206 13.5352 234.288 13.5011L234.279 13.5243ZM233.941 13.3579C233.495 13.2556 232.937 13.8525 232.71 14.0432C232.515 13.99 232.242 14.0268 232.002 14.0499C232.02 14.1385 232.213 14.0963 232.073 14.1739C231.778 14.2965 231.623 14.2461 231.416 14.2556C231.47 14.3864 231.412 14.43 231.271 14.5077C230.816 14.1982 230.366 14.04 229.918 13.9771C230.309 13.7183 230.965 13.5412 231.263 13.4745C231.525 13.3655 231.092 13.4308 231.193 13.3504C232.295 13.1408 233.345 13.126 234.14 13.2366C234.104 13.2898 234.039 13.317 233.947 13.3742L233.941 13.3579ZM220.873 18.0697C220.873 18.0697 221.02 18.0084 221.086 17.9811C221.011 18.0315 220.936 18.082 220.861 18.1324C220.861 18.1324 220.88 18.086 220.873 18.0697ZM222.622 19.3187C222.877 19.1933 222.984 19.1293 223.125 19.0516C223.138 19.0843 223.152 19.117 223.165 19.1498C222.964 19.3106 222.732 19.4455 222.631 19.2955L222.622 19.3187ZM230.623 20.0947C230.377 20.1969 230.391 19.9993 230.146 20.1014C230.231 19.8929 230.843 19.8876 230.623 20.0947ZM231.807 19.16C231.934 19.2799 231.728 19.3849 231.911 19.5008C231.61 19.607 231.146 19.8768 231.003 19.7636C231.802 19.4694 231.481 19.3916 231.807 19.16ZM233.99 15.5061C233.725 15.5592 233.692 15.8032 233.523 15.72C233.489 15.6382 233.813 15.5415 233.723 15.4638C233.436 15.6027 233.374 15.4555 233.025 15.6776C233.013 15.9707 231.687 16.6573 231.744 16.288C231.399 16.566 231.147 16.6518 231.601 16.6355C231.207 16.7036 230.652 17.0306 230.837 17.107C230.771 17.0388 230.52 17.22 230.472 17.1055C230.48 16.9869 231.028 16.8739 230.846 16.758C230.758 16.6408 230.235 17.0891 230.148 16.9719C230.393 16.8697 230.122 16.7715 230.43 16.6816C230.295 16.9105 230.655 16.7607 230.857 16.5999C230.727 16.7498 230.925 16.7635 231.222 16.6014C230.882 16.5699 230.96 16.48 231.237 16.2688C230.688 16.5167 230.111 16.6992 229.627 16.9199C229.807 16.845 229.373 17.1407 229.463 17.2184C228.794 17.5931 228.516 17.4785 227.853 17.8696C227.98 17.7592 227.878 17.7442 227.792 17.7224C227.857 17.6951 227.907 17.6747 227.956 17.6542C228.189 17.6148 228.577 17.3954 228.594 17.3886C228.479 17.4363 228.508 17.3668 228.553 17.2904C228.344 17.4349 228.164 17.5098 228.013 17.5152C228.051 17.4225 228.069 17.2808 228.073 17.1063C228.106 17.0927 228.138 17.0791 228.171 17.0654C228.205 17.1472 228.282 17.1922 228.377 17.1909C228.543 17.0833 229.052 16.9675 228.869 16.8516C228.256 17.2222 228.441 16.8379 228.059 16.8432C228.046 16.8105 228.055 16.7874 228.058 16.7478C228.038 16.6987 228.073 16.6456 228.085 16.5829C228.331 16.4807 228.56 16.3854 228.786 16.3295C228.681 16.354 228.612 16.3254 228.759 16.2641C229.021 16.1551 229.23 16.1061 229.395 16.1334C229.255 15.9807 229.355 16.0352 229.616 15.9263C229.582 15.8445 229.461 15.8758 229.41 15.8008C229.754 15.6578 230.021 15.4697 230.267 15.3676C230.432 15.3949 230.603 15.4385 230.795 15.5312C230.849 15.5667 230.904 15.5626 230.958 15.5981C230.4 15.9646 229.524 16.1184 229.158 16.3473C229.402 16.3801 229.807 16.1539 230.025 16.2167C229.345 16.5191 229.004 16.3923 228.579 16.5694C228.763 16.7807 229.202 16.6363 229.553 16.6051C229.842 16.7919 228.809 17.0302 228.738 17.3668C229.208 17.1134 229.682 16.8204 229.96 16.4743C230.408 16.5371 230.731 16.345 231.308 16.1625C230.987 16.0847 231.056 16.2483 231.052 15.962C230.802 16.0083 230.779 16.2291 230.675 16.1187C230.693 15.9769 231.092 15.8298 231.11 15.6881C231.35 15.665 231.446 15.6636 231.69 15.466C231.69 15.466 231.683 15.4497 231.66 15.4401C231.709 15.4197 231.728 15.3733 231.77 15.3365C231.77 15.3365 231.761 15.3597 231.784 15.3693C231.921 15.3311 232.014 15.3693 232.071 15.4607C231.826 15.5628 231.587 15.6814 231.332 15.8067C231.574 15.879 231.385 16.0725 231.805 15.9745C231.774 15.8532 231.585 15.9513 231.579 15.8C231.874 15.6773 232.377 15.4103 232.426 15.6202C232.315 15.4934 233.516 15.2429 232.979 15.1978C233.159 15.1229 233.29 15.0684 233.406 15.1161C233.549 15.2293 233.462 15.3424 233.509 15.4569C233.738 15.3616 233.929 15.3589 234.146 15.3262C233.999 15.3875 234.168 15.4707 234.044 15.5415L233.99 15.5061ZM233.862 15.2907C233.941 15.0658 234.255 15.1272 234.124 14.9514C234.519 14.7484 234.619 14.8029 234.863 14.6053C234.923 14.8875 234.32 15.1 233.879 15.2839L233.862 15.2907ZM234.581 15.1259C235.164 14.9598 234.544 15.314 234.269 15.3903C234.3 15.2813 234.387 15.1681 234.53 15.0509C234.75 14.9788 235.028 14.863 235.228 14.8371C235.202 15.0975 234.887 14.9406 234.588 15.1423L234.581 15.1259ZM233.612 14.5505C233.612 14.5505 233.823 14.5969 233.683 14.6746C233.409 14.6159 233.208 14.8721 232.832 15.0287C232.749 14.9674 232.685 14.8597 232.453 14.9946C232.705 15.1391 232.105 15.3121 232.022 15.2507C232.036 15.2835 232.056 15.3325 231.981 15.383C231.796 15.3066 232.332 15.0259 232.033 15.0926C232.06 15.1581 231.897 15.2262 231.806 15.2834C231.886 15.1539 231.917 15.0449 231.9 14.9563C232.1 14.9304 231.954 15.0872 232.304 14.9605C232.178 14.8405 232.637 14.5148 232.874 14.5312C232.859 14.6335 232.617 14.6961 232.87 14.7057C233.017 14.4141 233.504 14.3842 233.366 14.192C233.846 14.1457 233.879 13.9017 234.434 13.8051C234.484 13.6497 234.291 13.6919 234.424 13.5979C234.589 13.6252 234.686 13.4889 234.803 13.4017C235.107 13.4863 235.346 13.5981 235.447 13.7481C235.001 14.1065 234.145 14.5397 233.609 14.59L233.612 14.5505ZM238.442 6.28191C238.319 5.98746 238.868 5.96986 239.365 5.68646C239.311 5.88137 238.646 6.08159 238.442 6.28191ZM241.232 4.87042C241.232 4.87042 241.401 4.72324 241.565 4.65513C241.625 4.70694 241.517 4.77099 241.561 4.82961C241.581 4.87869 241.689 4.81464 241.771 4.78058C241.72 4.93596 241.186 5.08168 241.232 4.87042C240.563 5.2451 240.005 5.38128 239.245 5.58284C239.783 5.26265 240.391 4.97109 240.99 4.7027C240.977 4.7654 240.765 4.85396 240.792 4.91939C240.972 4.84446 241.201 4.7491 241.232 4.87042ZM241.041 0.861606C241.204 0.79349 241.384 0.718558 241.564 0.643633L241.03 1.01971C241.03 1.01971 240.95 0.918834 241.041 0.861606ZM240.955 1.07013L240.554 1.35219C240.449 1.3767 240.354 1.37805 240.291 1.36577C240.455 1.29765 240.731 1.08644 240.955 1.07013ZM236.782 2.02057C237.013 2.02062 237.19 1.98522 236.942 1.89656C237.359 1.83805 238.038 1.4402 238.351 1.50161C238.415 1.60931 238.282 1.70333 238.418 1.80014C238.005 2.1449 237.118 2.45683 236.526 2.74158C236.593 2.80974 236.669 2.85474 236.814 2.83297C236.74 2.74844 236.801 2.6653 237.014 2.57676C237.153 2.63404 237.16 2.6504 237.142 2.79215C237.364 2.68043 237.587 2.56871 237.644 2.66005C237.513 2.71454 237.398 2.76223 237.274 2.83308C237.37 3.0621 238.149 2.8142 238.351 2.65341C238.197 2.69835 238.079 2.69015 237.986 2.65196C238.11 2.5811 238.099 2.50886 238.207 2.44482C238.59 2.30452 238.415 2.53074 238.622 2.52125C238.732 2.32227 238.761 2.57854 238.853 2.5213C238.891 2.42863 238.906 2.3264 239.135 2.23104C239.149 2.26376 239.162 2.29647 239.192 2.32238L238.632 2.72844C238.632 2.72844 238.577 2.59757 238.385 2.7352C238.399 2.76791 238.399 2.76792 238.429 2.79382C237.34 3.03619 236.585 3.15869 236.058 3.18582C236.202 3.06864 236.345 2.95144 236.551 2.84654C236.161 2.97048 235.674 3.00036 235.254 3.09841C235.148 3.0275 235.097 2.95251 235.106 2.83393C235.138 2.82031 235.155 2.8135 235.197 2.7767C235.224 2.84214 235.11 2.88983 235.193 2.95118C235.932 2.60514 235.699 3.10532 236.48 2.72249C236.593 2.57939 236.594 2.44444 236.803 2.30001C236.567 2.37901 236.665 2.10779 236.757 2.05056L236.782 2.02057ZM236.937 -0.327955C236.937 -0.327955 236.91 -0.393389 236.896 -0.426104C236.987 -0.483333 237.095 -0.547367 237.259 -0.615483C237.316 -0.524142 237.117 -0.402875 236.953 -0.334765L236.937 -0.327955ZM237.048 -1.12259C236.707 -1.01908 236.85 -1.13626 236.468 -0.900543C236.312 -1.04643 237.059 -1.2807 237.048 -1.12259ZM230.693 -0.434372C230.753 -0.612918 231.216 -0.652331 231.231 -0.524197C230.905 -0.292555 230.938 -0.536548 230.693 -0.434372ZM220.032 7.15269C220.021 7.3108 219.987 7.45937 219.897 7.61202C219.856 7.51387 219.776 7.41298 219.735 7.31483C219.751 7.30801 219.754 7.26849 219.787 7.25486C219.868 7.22081 219.95 7.18674 220.032 7.15269ZM149.699 23.463C149.699 23.463 149.667 23.4767 149.65 23.4835C149.732 23.6798 149.597 23.9088 149.27 24.045C148.632 24.3106 147.967 24.5108 147.311 24.6879C147.213 24.7288 147.096 24.5856 147.006 24.5079C146.989 24.5147 146.957 24.5283 146.94 24.5351C146.94 24.5351 146.927 24.5024 146.903 24.4929C146.743 24.5215 146.556 24.58 146.463 24.5418C146.324 24.4846 146.454 24.3347 146.644 24.332C146.763 24.3402 146.837 24.4247 146.903 24.4929C146.936 24.4793 146.953 24.4724 146.985 24.4588C146.985 24.4588 146.985 24.4588 146.992 24.4752C147.158 24.3675 147.348 24.2694 147.435 24.1563C147.892 23.6398 148.429 23.4546 149.085 23.5079C149.243 23.5188 149.453 23.4698 149.637 23.4508C149.653 23.444 149.686 23.4303 149.702 23.4235C149.721 23.3772 149.717 23.3213 149.736 23.275C149.748 23.2123 149.777 23.1428 149.836 23.0991C150.012 22.9683 150.209 22.982 150.119 23.1347C150.048 23.2409 149.875 23.3322 149.718 23.4167C149.718 23.4167 149.725 23.4331 149.716 23.4562L149.699 23.463ZM144.869 21.4051C144.869 21.4051 144.682 21.4636 144.603 21.4582C144.412 21.4608 144.189 21.4771 144.034 21.4267C143.908 21.4021 143.86 21.2876 143.777 21.2262C143.96 21.1118 144.149 21.0137 144.316 20.906C144.699 20.7657 144.959 20.7917 144.992 21.0084C145.016 21.1134 144.926 21.266 144.869 21.4051ZM186.619 12.4663C186.36 12.5357 186.101 12.6052 185.849 12.691C185.861 12.6283 185.857 12.5724 185.853 12.5165C186.04 12.458 186.247 12.4485 186.449 12.518C186.495 12.5371 186.561 12.5099 186.626 12.4826L186.619 12.4663ZM173.928 6.00375C174.75 5.48871 175.426 5.82145 176.225 5.52721C176.306 5.49316 176.45 5.60632 176.549 5.66087C176.366 5.77533 176.174 5.91296 175.991 6.02741C175.701 6.2059 175.569 6.39534 175.555 6.59298C175.555 6.59298 175.572 6.58617 175.588 6.57936C175.588 6.57936 175.602 6.61207 175.608 6.62843C175.886 6.51264 176.181 6.39002 176.473 6.30695C176.554 6.27289 176.736 6.29338 176.736 6.29338C176.697 6.38606 176.663 6.53462 176.572 6.59185C176.308 6.74037 175.999 6.83026 175.705 6.95286C175.705 6.95286 175.712 6.96922 175.719 6.98558C175.719 6.98558 175.719 6.98558 175.702 6.99239C175.911 7.07831 176.119 7.16424 176.295 7.26378C176.418 7.32787 176.626 7.41379 176.579 7.52964C176.318 8.19476 175.797 8.83392 174.854 9.38028C174.739 9.42796 174.512 9.38838 174.328 9.40742C174.654 8.94542 174.97 8.50659 174.208 8.38236C173.611 8.28545 173.007 8.40253 172.304 8.69543C172.206 8.7363 172.097 8.70492 171.964 8.664C171.925 8.66127 171.879 8.64217 171.839 8.63944C171.881 8.60264 171.9 8.5563 171.943 8.51951C171.985 8.48272 172.011 8.45273 172.06 8.4323C173.254 7.93506 174.478 7.46372 175.686 6.9992C175.686 6.9992 175.663 6.98965 175.64 6.98011C175.656 6.9733 175.672 6.96649 175.689 6.95968C175.641 6.84517 175.616 6.7402 175.585 6.61888C175.569 6.62569 175.536 6.63932 175.52 6.64613C175.513 6.62977 175.539 6.59979 175.532 6.58343C174.664 6.84903 174.202 6.52315 173.546 6.46983C173.467 6.46436 173.407 6.41255 173.338 6.38391C173.52 6.26946 173.712 6.13183 173.895 6.01737L173.928 6.00375ZM169.082 7.73372C169.082 7.73372 169.172 7.58108 169.263 7.52385C169.312 7.50341 169.443 7.44892 169.489 7.46801C169.87 7.59759 170.172 7.81712 170.614 7.86356C171.26 7.94005 171.226 7.6279 171.261 7.34439C171.276 7.24216 171.452 7.11135 171.572 6.98461C171.695 7.0487 171.873 7.10872 171.914 7.20687C172.168 7.90754 172.083 7.98113 170.541 8.56553C169.71 8.87338 169.512 8.85971 169.332 8.47392C169.237 8.2449 169.135 7.99953 169.082 7.73372ZM164.129 10.3142C164.129 10.3142 164.257 10.2992 164.329 10.2884C164.343 10.3211 164.38 10.3633 164.37 10.3865C164.274 10.5228 164.119 10.5677 163.967 10.4777C163.967 10.4777 164.07 10.3578 164.145 10.3074L164.129 10.3142ZM163.805 12.8099C163.894 12.5618 164.05 12.382 164.433 12.2416C164.874 12.0577 165.413 11.7375 165.771 11.7226C167.021 11.682 168.234 11.1385 169.463 10.723C169.626 10.6549 169.884 10.7204 169.974 10.7981C170.131 10.944 170.081 11.1948 169.742 11.3937C169.321 11.6267 168.925 11.8297 169.022 12.1541C169.824 12.0507 170.576 12.1981 171.397 11.3573C171.731 11.0071 172.652 10.7769 173.337 10.5304C173.467 10.4759 173.683 10.5781 173.78 10.6722C173.983 10.8372 173.789 11.1098 173.462 11.246C170.994 12.235 168.49 13.1818 166.016 14.1544C165.509 14.3656 165.193 14.3437 164.988 14.0833C164.871 13.9401 164.548 13.9019 164.297 13.8528C164.04 13.7873 163.553 13.8171 163.538 13.689C163.499 13.4559 163.76 13.1166 163.852 12.829L163.805 12.8099ZM141.354 19.9703C141.797 19.8818 142.221 19.8396 142.671 19.7675C143.242 19.664 143.802 19.4883 144.258 19.1068C144.417 18.9828 144.648 18.7525 144.743 18.7511C146.5 18.7297 148.08 17.5919 149.758 17.1044C150.869 16.7761 151.901 16.2121 153.107 16.1128C153.883 16.0394 154.889 15.5053 155.786 15.1702C157.564 14.5068 159.299 13.6499 161.136 13.499C161.695 13.4582 162.374 12.83 162.921 13.0823C162.418 13.5797 161.663 13.7022 161.025 13.9679C160.468 14.1994 159.905 14.4147 159.342 14.6299C158.436 14.9882 157.539 15.3233 156.632 15.6816C155.962 15.9608 155.34 16.2197 154.807 16.6912C154.401 17.0523 153.711 17.3779 153.256 17.2987C152.596 17.1895 152.304 17.7333 151.861 17.8218C151.313 17.9348 150.761 17.992 150.27 17.9659C149.691 17.9576 149.162 18.2547 148.605 18.3908C147.87 18.5624 147.521 19.2452 146.866 19.2873C146.038 19.3253 145.287 19.734 144.514 19.9983C143.839 20.2217 143.145 20.4914 142.474 20.7707C141.869 21.0227 141.337 21.1289 140.885 21.0102C140.651 20.9543 140.461 20.822 140.36 20.672C140.253 20.5057 140.829 20.0928 141.328 20.0003L141.354 19.9703ZM128.642 21.6166C128.924 21.3264 128.983 20.822 129.757 20.8836C130.215 20.9232 130.279 20.5702 130.548 20.4775C130.695 20.4162 131.021 20.415 131.018 20.4545C130.997 20.6358 131.004 20.8825 130.819 21.0365C130.607 21.2204 130.211 21.328 129.949 21.437C129.559 21.561 129.232 21.6972 128.901 21.7775C128.593 21.8674 128.463 21.787 128.625 21.6234L128.642 21.6166ZM125.612 24.0681C125.612 24.0681 125.776 24 125.825 23.9795C126.016 23.9768 126.001 24.0791 125.776 24.2303C125.743 24.2439 125.618 24.2194 125.565 24.1839C125.558 24.1676 125.603 24.0912 125.629 24.0613L125.612 24.0681ZM123.299 23.63C123.299 23.63 123.553 23.6396 123.55 23.6791C123.571 23.7282 123.408 23.8917 123.369 23.889C123.034 23.9134 123.016 23.8248 123.299 23.63ZM121.625 25.5556C121.625 25.5556 121.862 25.572 121.876 25.6047C121.896 25.6538 121.734 25.8173 121.695 25.8146C121.359 25.8391 121.342 25.7505 121.625 25.5556ZM120.769 25.0674C120.769 25.0674 120.983 25.0743 120.997 25.107C121.01 25.1397 120.893 25.2269 120.825 25.2937C120.753 25.3046 120.681 25.3155 120.602 25.31C120.663 25.2269 120.701 25.1342 120.762 25.0511L120.769 25.0674ZM117.73 27.542C117.73 27.542 117.895 27.5693 117.958 27.5816C117.906 27.6416 117.838 27.7084 117.786 27.7683C117.714 27.7792 117.658 27.7833 117.586 27.7942C117.631 27.7179 117.692 27.6347 117.737 27.5584L117.73 27.542ZM103.611 31.8474C103.815 31.6471 104.136 31.4945 104.436 31.2928C104.764 31.252 105.06 31.2248 105.372 31.1908C105.212 31.3148 105.06 31.4552 104.884 31.586C104.708 31.7168 104.525 31.8313 104.343 31.9457C104.251 32.0029 104.167 32.0765 104.082 32.1501C103.897 32.3041 103.687 32.3531 103.577 32.2263C103.503 32.1418 103.5 31.951 103.611 31.8474ZM101.62 35.1333C101.62 35.1333 101.672 35.0733 101.721 35.0529C101.77 35.0325 101.865 35.0311 101.921 35.027C101.935 35.0598 101.948 35.0925 101.946 35.132C101.808 35.1701 101.663 35.1919 101.526 35.23C101.559 35.2164 101.578 35.1701 101.62 35.1333ZM95.8192 33.0955C95.8192 33.0955 95.9841 33.1228 96.0631 33.1283C95.995 33.1951 95.9432 33.255 95.875 33.3218C95.8027 33.3327 95.7305 33.3436 95.6583 33.3545C95.7196 33.2713 95.7646 33.195 95.8192 33.0955ZM93.5613 35.648C93.5613 35.648 93.7099 35.6821 93.8189 35.7135C93.7508 35.7803 93.654 35.9166 93.6144 35.9138C93.2791 35.9383 93.2614 35.8497 93.5613 35.648ZM88.5978 38.3866C88.5978 38.3866 88.6005 38.3471 88.6169 38.3403C88.6169 38.3403 88.6659 38.3198 88.6986 38.3062C88.6387 38.024 88.9387 37.8224 89.3871 37.6548C89.4689 37.6208 89.5875 37.629 89.6734 37.6508C89.8383 37.6781 89.8138 37.8035 89.5656 37.9452C89.3012 38.0937 88.9931 38.1836 88.6986 38.3062C88.6986 38.3062 88.7055 38.3226 88.7123 38.3389C88.6796 38.3526 88.6468 38.3662 88.6141 38.3798C88.5828 38.4888 88.5514 38.5979 88.4968 38.6974C88.4968 38.6974 88.2842 38.7859 88.2774 38.7696C88.1465 38.5937 88.3688 38.482 88.6141 38.3798L88.5978 38.3866ZM79.3503 40.2409C79.3503 40.2409 79.3571 40.2573 79.3639 40.2737C79.9951 39.9917 80.7912 39.7369 81.1647 39.3895C81.7005 38.8784 82.3506 39.2412 82.8592 38.6647C83.196 38.2749 84.0738 37.9862 84.5687 37.6074C85.1481 37.155 85.8134 36.9547 86.4745 36.6986C86.8344 36.5488 87.1206 36.5448 87.2746 36.7302C87.4354 36.9319 87.2282 37.1718 86.9078 37.3244C86.3653 37.5887 85.7954 37.7876 85.2461 38.0355C85.1479 38.0764 85.1043 38.2481 85.1056 38.3435C85.1124 38.3599 85.2937 38.3804 85.3987 38.3559C85.7326 38.236 86.0762 38.093 86.417 37.9894C86.5151 37.9486 86.6241 37.98 86.7196 37.9786C86.8845 38.0059 86.8504 38.1545 86.5559 38.2771C85.7025 38.6708 84.8383 38.9923 84.0898 39.5919C83.6604 39.9434 82.6857 40.3685 82.1923 40.382C81.2381 40.3954 79.8572 40.9512 79.4034 40.2764C79.3871 40.2832 79.3544 40.2968 79.3216 40.3105L79.3735 40.2505L79.3503 40.2409ZM21.3047 84.3539C21.3047 84.3539 21.1234 84.3334 21.0444 84.3279C21.1126 84.2612 21.1739 84.178 21.2584 84.1045C21.3443 84.1263 21.4302 84.1481 21.5324 84.1631C21.4642 84.2299 21.3933 84.3362 21.3115 84.3703L21.3047 84.3539ZM23.2782 91.306C23.2237 91.1751 23.281 91.0361 23.401 90.9094C23.5209 90.7826 23.7104 90.6845 23.9694 90.6151C24.0321 90.6274 24.1343 90.6424 24.2202 90.6642C24.3061 90.686 24.3688 90.6983 24.3524 90.7051C24.1261 90.9913 23.8698 91.2516 23.6203 91.5283C23.514 91.4574 23.3259 91.4205 23.3014 91.3155L23.2782 91.306ZM23.8137 98.0315C23.8628 97.7807 23.9051 97.5135 24.0074 97.2982C24.1574 96.967 24.3238 96.629 24.5705 96.3919C24.7914 96.1848 25.0613 96.1876 25.2644 96.3525C25.177 96.696 25.0965 97.0558 25.1074 97.3584C25.1264 97.5425 25.0173 97.7414 24.915 97.9568C24.7842 98.0113 24.6533 98.0658 24.5224 98.1203C24.2785 98.0875 24.0413 98.0711 23.7973 98.0383L23.8137 98.0315ZM35.5873 105.932C35.5055 105.966 35.3625 105.853 35.2466 105.805C35.2943 105.689 35.338 105.517 35.4198 105.483C35.5016 105.449 35.6447 105.562 35.7769 105.603C35.6964 105.733 35.6691 105.898 35.5873 105.932ZM43.9408 115.16C43.72 115.137 43.476 115.104 43.2552 115.081C43.4106 114.901 43.532 114.64 43.7283 114.558C43.9246 114.476 44.1863 114.598 44.4302 114.63C44.2748 114.81 44.103 114.997 43.9476 115.177L43.9408 115.16ZM45.3246 113.644C45.3246 113.644 45.1788 113.57 45.1025 113.525C45.2197 113.438 45.3438 113.367 45.4447 113.287C45.4787 113.368 45.3656 113.511 45.3015 113.634L45.3246 113.644ZM68.0298 116.819C68.0298 116.819 67.8281 116.75 67.7382 116.672C67.7014 116.63 67.726 116.504 67.7314 116.425C67.8132 116.391 67.8977 116.318 67.9604 116.33C68.1949 116.386 68.2207 116.586 68.0135 116.826L68.0298 116.819ZM70.7991 119.045C70.7431 119.279 70.5591 119.298 70.3356 119.084C70.3288 119.068 70.3984 118.866 70.4665 118.799C70.5088 118.762 70.6247 118.81 70.7037 118.816C70.7378 118.897 70.8114 118.982 70.7991 119.045ZM66.864 101.066C66.6514 101.155 66.4537 101.141 66.2684 101.065C66.5573 101.021 66.8559 100.954 67.1408 100.855C67.0631 100.945 66.9717 101.002 66.864 101.066ZM75.2783 118.139C75.1461 118.098 74.9976 118.064 74.8653 118.023C74.8967 117.914 74.9513 117.815 74.9826 117.706C75.0821 117.76 75.1816 117.815 75.2811 117.869L75.2715 118.123L75.2783 118.139ZM74.7166 101.347C74.7166 101.347 74.5012 101.245 74.4017 101.191C74.4563 101.091 74.4768 100.91 74.549 100.899C74.6308 100.865 74.7576 100.985 74.8734 101.033C74.8189 101.132 74.7711 101.248 74.7002 101.354L74.7166 101.347ZM82.495 97.9934C82.4241 98.0997 82.39 98.2483 82.2987 98.3055C81.5134 98.8628 80.7078 98.9103 79.8656 98.2245C79.7825 98.1632 79.7116 98.0391 79.7171 97.9601C79.7417 97.8347 79.8344 97.6425 79.9135 97.648C80.4696 97.6467 81.0162 97.6687 81.5696 97.707C81.6799 97.8337 81.7903 97.9605 81.8748 98.1173C82.0275 97.977 82.1706 97.8598 82.307 97.7262C82.3465 97.7289 82.4024 97.7249 82.4419 97.7276C82.4419 97.7276 82.4705 97.8885 82.4882 97.9771L82.495 97.9934ZM84.5221 97.2837C84.5221 97.2837 84.3203 97.2142 84.2304 97.1365C84.1936 97.0942 84.2413 96.9783 84.2564 96.8761C84.3218 96.8489 84.4131 96.7916 84.4758 96.8039C84.7171 96.8762 84.7361 97.0602 84.5152 97.2674L84.5221 97.2837ZM227.253 26.4309C227.253 26.4309 227.091 26.364 226.998 26.3258C226.93 26.1623 226.865 25.9591 226.797 25.7956C227.156 25.6457 227.503 25.4631 227.841 25.3992C227.841 25.3992 227.873 25.3855 227.867 25.3692C227.901 25.451 227.967 25.5191 228.002 25.6009C227.719 25.8912 227.47 26.1678 227.243 26.454L227.253 26.4309Z" fill="#FF3D00"/>
<path d="M210.553 3.19118C211.715 2.70756 212.534 1.77133 214.867 1.01128C214.766 1.09168 214.691 1.1421 214.523 1.15432C214.571 1.26883 214.732 1.24025 214.964 1.10536C214.943 1.05628 214.929 1.02357 214.965 0.970416C215.047 0.936359 215.128 0.902299 215.217 0.8846C215.615 0.411709 215.643 0.0164305 215.441 -0.283491C216.007 -0.538252 216.84 -0.750699 217.283 -1.06955C216.69 -0.880226 216.054 -0.654103 215.4 -0.381642C214.905 -0.924258 213.551 -1.08951 212.272 -0.749041C211.638 0.493927 207.763 2.7598 210.57 3.18437L210.553 3.19118Z" fill="#FF3D00"/>
<path d="M22.6918 69.9757C22.8895 69.759 23.0041 69.481 22.5025 69.6131C22.0335 69.7316 21.6791 69.8024 21.4952 69.591C20.9608 69.9671 20.4263 70.3432 19.9315 70.722C19.8824 70.7425 19.9873 70.9483 20.1127 70.9729C21.1649 71.1489 21.8915 70.8656 22.6987 69.9921L22.6918 69.9757Z" fill="#FF3D00"/>
<path d="M190.922 -0.248796C190.931 -0.732683 191.61 -0.900181 192.134 -1.11815C191.944 -1.48077 191.323 -1.45229 190.735 -1.34202C190.358 -1.28077 189.864 -1.0369 189.561 -0.795706C189.2 -0.51091 189.44 -0.303666 189.503 -0.0610259C189.976 -0.123616 190.456 -0.169847 190.929 -0.232438L190.922 -0.248796Z" fill="#FF3D00"/>
<path d="M19.1865 84.5244C18.9127 84.4658 18.639 84.4071 18.3365 84.4179C18.1622 84.4138 17.8543 84.5036 17.7045 84.6044C17.2549 84.9067 17.6758 84.9041 17.8092 85.0403C18.0122 85.2052 18.1402 85.4205 18.294 85.6057C18.5066 85.5173 18.7163 85.4683 18.9221 85.3634C19.5882 85.0285 19.7014 84.6553 19.177 84.5475L19.1865 84.5244Z" fill="#FF3D00"/>
<path d="M18.3137 85.6011C18.3137 85.6011 18.2817 85.6144 18.2656 85.6211C18.2656 85.6211 18.2723 85.6371 18.279 85.6531C18.295 85.6465 18.311 85.6398 18.3431 85.6265C18.3431 85.6265 18.3364 85.6104 18.3297 85.5944L18.3137 85.6011Z" fill="#FF3D00"/>
<path d="M166 7.78904C166.229 7.69374 166.442 7.60525 166.677 7.5263C166.575 7.28109 166.496 7.04541 166.411 6.79338C166.214 6.87507 165.988 6.93087 165.792 7.01255C165.112 7.3148 165.112 7.31479 165.635 7.55738C165.758 7.62143 165.864 7.69229 165.987 7.75634L166 7.78904Z" fill="#FF3D00"/>
<path d="M17.3194 76.5302C17.4161 76.394 17.4012 76.266 17.4353 76.1175C17.2936 76.0998 17.0757 76.0371 17.043 76.0507C16.8672 76.1814 16.7214 76.338 16.6247 76.4742C16.5443 76.6036 16.4707 76.7493 16.472 76.8447C16.487 76.9727 17.1545 76.7331 17.3221 76.4907L17.3194 76.5302Z" fill="#FF3D00"/>
<path d="M19.1222 87.2766C19.1222 87.2766 19.3021 87.2018 19.3116 87.1786C19.3416 86.9743 19.3948 86.7795 19.3594 86.6024C19.3063 86.3368 19.0843 86.2182 18.5803 86.3897C18.6797 86.6745 18.7627 86.966 18.8784 87.2439C18.8988 87.2929 19.0337 87.2943 19.129 87.293L19.1222 87.2766Z" fill="#FF3D00"/>
<path d="M18.5774 86.3725L18.5641 86.3405C18.5321 86.3538 18.5321 86.3538 18.5 86.3672L18.5133 86.3992C18.5133 86.3992 18.5454 86.3859 18.5774 86.3725Z" fill="#FF3D00"/>
<path d="M19.8621 89.3137C19.8049 89.4526 19.6822 89.6188 19.7163 89.7005C19.832 89.9784 20.2298 89.9663 20.7093 89.6898C20.7938 89.6163 20.8619 89.5496 20.9464 89.476C20.6889 89.4106 20.4315 89.3451 20.1645 89.3029C20.0787 89.281 19.9575 89.3123 19.8553 89.2973L19.8621 89.3137Z" fill="#FF3D00"/>
<path d="M147.398 12.6741C147.123 12.5201 146.846 12.7311 146.582 12.8796C146.5 12.9136 146.462 13.0062 146.394 13.0729C146.666 13.0362 146.955 12.9927 147.237 12.9328C147.286 12.9124 147.369 12.7435 147.414 12.6673L147.398 12.6741Z" fill="#FF3D00"/>
<path d="M115.565 25.4299C115.432 25.5239 115.223 25.6683 115.218 25.7474C115.238 26.0268 115.444 26.1523 115.964 25.9738C115.896 25.8103 115.877 25.6262 115.793 25.4695C115.772 25.4204 115.575 25.4067 115.549 25.4367L115.565 25.4299Z" fill="#FF3D00"/>
<path d="M115.984 25.9668C115.984 25.9668 115.991 25.9822 115.997 25.9976C116.013 25.9912 116.028 25.9848 116.043 25.9784C116.043 25.9784 116.043 25.9784 116.037 25.963C116.022 25.9694 116.006 25.9758 115.991 25.9822L115.984 25.9668Z" fill="#FF3D00"/>
<path d="M166.863 6.04681C166.863 6.04681 166.593 6.04402 166.449 6.0658C166.416 6.07942 166.312 6.19934 166.316 6.25523C166.345 6.41608 166.397 6.58648 166.448 6.75687C166.661 6.66832 166.857 6.58659 167.07 6.49804C167.002 6.33445 166.973 6.1736 166.879 6.04L166.863 6.04681Z" fill="#FF3D00"/>
<path d="M207.662 2.93652C207.732 2.7348 207.824 2.54263 207.845 2.36135C207.831 2.32863 207.542 2.37218 207.391 2.37759C207.03 2.66239 207.261 2.75786 207.411 2.88739C207.464 2.92284 207.576 2.91469 207.646 2.94333L207.662 2.93652Z" fill="#FF3D00"/>
<path d="M18.494 86.35C18.4151 86.1144 18.3361 85.8787 18.2735 85.6362C17.9793 85.7587 17.7681 85.9426 17.7708 86.1333C17.7911 86.4125 18.0227 86.5079 18.494 86.35Z" fill="#FF3D00"/>
<path d="M80.2285 36.3451C80.2285 36.3451 80.0569 36.3015 79.9711 36.2797C79.9029 36.3464 79.7858 36.4336 79.7898 36.4894C79.8035 36.5221 79.9383 36.5235 80.0241 36.5453C80.0922 36.4786 80.1604 36.4119 80.2217 36.3288L80.2285 36.3451Z" fill="#FF3D00"/>
<path d="M82.8846 35.2587C82.8846 35.2587 82.7361 35.2246 82.6735 35.2123C82.6217 35.2722 82.5536 35.3389 82.5018 35.3989C82.5971 35.3975 82.7156 35.4057 82.811 35.4044C82.8301 35.3581 82.8655 35.305 82.8846 35.2587Z" fill="#FF3D00"/>
<path d="M77.6389 37.7471C77.6389 37.7471 77.4441 37.6939 77.3624 37.728C77.297 37.7552 77.2262 37.8614 77.158 37.9282C77.237 37.9336 77.3392 37.9486 77.4346 37.9473C77.4863 37.8874 77.5708 37.8138 77.6389 37.7471Z" fill="#FF3D00"/>
<path d="M85.2071 35.2128C85.2071 35.2128 85.045 35.1461 84.9632 35.1801C84.8979 35.2073 84.8433 35.3067 84.7752 35.3735C84.8869 35.3653 85.0054 35.3735 85.1335 35.3586C85.1526 35.3123 85.188 35.2591 85.2071 35.2128Z" fill="#FF3D00"/>
<path d="M87.0933 34.4059C87.0933 34.4059 86.9625 34.4603 86.8971 34.4876C86.878 34.5339 86.8099 34.6006 86.8399 34.6265C86.893 34.6619 87.0183 34.6865 87.051 34.6729C87.2758 34.5217 87.2744 34.4264 87.1001 34.4222L87.0933 34.4059Z" fill="#FF3D00"/>
<path d="M83.8659 36.0966C83.8659 36.0966 83.7147 36.102 83.6656 36.1224C83.5839 36.1565 83.5389 36.2328 83.4872 36.2927L83.9067 36.1947C83.9067 36.1947 83.8795 36.1293 83.8659 36.0966Z" fill="#FF3D00"/>
<path d="M124.863 20.966C124.863 20.966 124.669 21.0082 124.66 21.0313C124.612 21.1471 124.581 21.2561 124.543 21.3487C124.788 21.2466 124.987 21.1254 124.863 20.966Z" fill="#FF3D00"/>
<path d="M124.542 21.3654C124.542 21.3654 124.462 21.3988 124.43 21.4121C124.43 21.4121 124.459 21.4375 124.482 21.4468C124.482 21.4468 124.514 21.4335 124.53 21.4268C124.53 21.4268 124.548 21.3815 124.542 21.3654Z" fill="#FF3D00"/>
<path d="M140.581 14.9356C140.581 14.9356 140.432 14.9016 140.347 14.8797C140.278 14.9465 140.152 15.0568 140.182 15.0827C140.338 15.2285 140.509 15.1767 140.581 14.9356Z" fill="#FF3D00"/>
<path d="M133.502 18.3079C133.502 18.3079 133.438 18.3344 133.406 18.3477C133.406 18.3477 133.413 18.3636 133.419 18.3794C133.435 18.3728 133.467 18.3596 133.483 18.353C133.483 18.353 133.492 18.3305 133.502 18.3079Z" fill="#FF3D00"/>
<path d="M133.833 17.8996C133.833 17.8996 133.623 17.9486 133.614 17.9718C133.566 18.0876 133.535 18.1965 133.487 18.3123C133.748 18.2034 133.954 18.0985 133.817 17.9064L133.833 17.8996Z" fill="#FF3D00"/>
<path d="M137.14 16.8507C137.208 16.784 137.342 16.6901 137.338 16.6342C137.317 16.5852 137.183 16.5838 137.08 16.5688C137.012 16.6355 136.902 16.739 136.899 16.7785C136.92 16.8275 137.054 16.8289 137.14 16.8507Z" fill="#FF3D00"/>
<path d="M145.447 13.5244C145.447 13.5244 145.413 13.4426 145.4 13.4099C145.328 13.4208 145.242 13.399 145.2 13.4358C145.118 13.4698 145.005 13.6128 145.028 13.6223C145.18 13.7123 145.341 13.6837 145.454 13.5407L145.447 13.5244Z" fill="#FF3D00"/>
<path d="M150.504 12.3415C150.504 12.3415 150.325 12.2815 150.237 12.2992C150.171 12.3265 150.051 12.4531 150.049 12.4926C150.062 12.5253 150.197 12.5267 150.283 12.5485C150.351 12.4818 150.436 12.4083 150.504 12.3415Z" fill="#FF3D00"/>
<path d="M152.525 11.5756C152.525 11.5756 152.354 11.532 152.268 11.5102C152.2 11.5769 152.083 11.6641 152.087 11.7199C152.1 11.7526 152.235 11.754 152.321 11.7758C152.389 11.7091 152.457 11.6423 152.502 11.5661L152.525 11.5756Z" fill="#FF3D00"/>
<path d="M159.96 9.23042C159.96 9.23042 160.073 9.08742 160.141 9.02069C160.078 9.00842 159.939 8.95117 159.907 8.96479C159.6 9.14997 159.625 9.25486 159.96 9.23042Z" fill="#FF3D00"/>
<path d="M152.558 14.0575C152.558 14.0575 152.393 14.0303 152.33 14.018C152.262 14.0847 152.211 14.1446 152.142 14.2114C152.261 14.2196 152.373 14.2114 152.491 14.2196C152.51 14.1733 152.546 14.1202 152.565 14.0739L152.558 14.0575Z" fill="#FF3D00"/>
<path d="M21.5496 69.4924C21.5496 69.4924 21.4855 69.5191 21.4375 69.5391C21.4442 69.5551 21.4668 69.5644 21.4895 69.5738C21.4895 69.5738 21.5215 69.5604 21.5375 69.5538C21.5375 69.5538 21.5562 69.5084 21.5496 69.4924Z" fill="#FF3D00"/>
<path d="M21.8686 69.109C21.8686 69.109 21.6588 69.158 21.6561 69.1975C21.6016 69.2969 21.5702 69.4059 21.5388 69.5149C21.7677 69.4196 21.9898 69.3079 21.8591 69.1322L21.8686 69.109Z" fill="#FF3D00"/>
<path d="M181.133 8.14626C181.133 8.14626 181.188 8.04683 181.207 8.00052C181.128 7.99505 181.051 7.95009 180.979 7.96097C180.907 7.97185 180.853 8.07127 180.801 8.13119C180.912 8.12305 181.031 8.13125 181.126 8.12991L181.133 8.14626Z" fill="#FF3D00"/>
<path d="M198.175 3.89176C198.175 3.89176 197.965 3.94076 197.956 3.96391C197.901 4.06334 197.886 4.16549 197.855 4.27446C198.084 4.17916 198.313 4.08386 198.182 3.90811L198.175 3.89176Z" fill="#FF3D00"/>
<path d="M197.847 4.25917C197.847 4.25917 197.783 4.28584 197.751 4.29917C197.751 4.29917 197.732 4.34452 197.739 4.36052C197.771 4.34719 197.803 4.33386 197.835 4.32053L197.853 4.27518L197.847 4.25917Z" fill="#FF3D00"/>
<path d="M17.6506 74.6481C17.6506 74.6481 17.5022 74.614 17.4164 74.5922C17.3482 74.6589 17.2379 74.7624 17.2351 74.8019C17.2488 74.8346 17.3904 74.8524 17.4694 74.8578C17.5376 74.7911 17.5825 74.7148 17.6506 74.6481Z" fill="#FF3D00"/>
<path d="M197.616 4.66242C197.616 4.66242 197.685 4.46084 197.717 4.35187C197.488 4.44717 197.282 4.55201 197.397 4.73457C197.397 4.73457 197.606 4.68557 197.609 4.64607L197.616 4.66242Z" fill="#FF3D00"/>
<path d="M200.441 3.48527C200.441 3.48527 200.292 3.45118 200.213 3.44572C200.152 3.5288 200.107 3.60507 200.046 3.68815C200.118 3.67726 200.174 3.67319 200.253 3.67866C200.304 3.61873 200.373 3.55201 200.424 3.49208L200.441 3.48527Z" fill="#FF3D00"/>
<path d="M201.39 4.32027C201.39 4.32027 201.239 4.32568 201.19 4.3461C201.108 4.38014 201.063 4.45641 200.995 4.52315C201.133 4.48504 201.277 4.46327 201.415 4.42516C201.401 4.39247 201.387 4.35977 201.374 4.32708L201.39 4.32027Z" fill="#FF3D00"/>
<path d="M18.2106 77.1008C18.2106 77.1008 18.3305 76.9741 18.3987 76.9074C18.3128 76.8856 18.1971 76.8379 18.1644 76.8515C17.8578 77.0367 17.8755 77.1252 18.2106 77.1008Z" fill="#FF3D00"/>
<path d="M166.532 12.402C166.532 12.402 166.358 12.3979 166.316 12.4347C166.234 12.4687 166.189 12.545 166.121 12.6117C166.265 12.5899 166.403 12.5518 166.547 12.5301C166.534 12.4974 166.537 12.4579 166.539 12.4184L166.532 12.402Z" fill="#FF3D00"/>
<path d="M167.714 12.3337C167.714 12.3337 167.697 12.4754 167.729 12.4618C167.881 12.4564 168.041 12.4278 168.202 12.3992C168.148 12.2685 168.084 12.1608 167.714 12.3337Z" fill="#FF3D00"/>
<path d="M168.8 12.4952C168.882 12.4612 168.877 12.3099 168.901 12.1845C168.705 12.2662 168.509 12.3479 168.312 12.4297C168.383 12.5537 168.461 12.6942 168.807 12.5116L168.8 12.4952Z" fill="#FF3D00"/>
<path d="M168.301 12.4133C168.301 12.4133 168.288 12.3815 168.281 12.3656C168.25 12.3789 168.234 12.3855 168.195 12.3828C168.202 12.3987 168.215 12.4305 168.222 12.4464C168.254 12.4332 168.269 12.4265 168.301 12.4133Z" fill="#FF3D00"/>
<path d="M168.907 12.1457C168.907 12.1457 168.913 12.1616 168.904 12.1841C168.936 12.1709 168.952 12.1643 168.983 12.151L168.907 12.1457Z" fill="#FF3D00"/>
<path d="M82.6277 39.7197C82.6277 39.7197 82.7476 39.593 82.8157 39.5263C82.7367 39.5208 82.6509 39.499 82.5882 39.4867C82.5269 39.5698 82.482 39.6461 82.4206 39.7292C82.4206 39.7292 82.565 39.7074 82.644 39.7129L82.6277 39.7197Z" fill="#FF3D00"/>
<path d="M223.247 24.7391C223.018 24.8344 222.891 24.9447 222.837 25.0441C223.011 25.0482 223.334 24.8563 223.247 24.7391Z" fill="#FF3D00"/>
<path d="M193.149 9.42326C192.794 9.49401 192.207 9.83442 191.95 9.76898C192.017 9.8371 191.909 9.9011 191.959 9.97603C192.365 9.61515 193.041 9.71747 193.149 9.42326Z" fill="#FF3D00"/>
<path d="M217.052 4.88088C217.916 4.55961 217.822 4.6563 218.39 4.3622C218.002 4.35121 217.807 4.52825 217.412 4.50091C217.911 4.63861 216.86 4.558 217.052 4.88088Z" fill="#FF3D00"/>
<path d="M216.45 5.05377C216.45 5.05377 216.382 4.8903 216.244 4.9284C216.168 5.11364 215.494 5.10667 215.543 5.31646C215.509 5.23472 215.348 5.26329 215.333 5.36545C215.447 5.3178 215.55 5.33281 215.6 5.40774C215.812 5.31925 215.827 5.21709 216.128 5.11091C216.248 5.21446 216.315 5.05238 216.507 5.14505C216.387 5.0415 216.924 5.08657 216.84 4.9299C216.66 5.00478 216.68 4.82362 216.475 4.92846C216.488 4.96115 216.509 5.0102 216.434 5.06058L216.45 5.05377Z" fill="#FF3D00"/>
<path d="M224.426 24.8994C224.262 24.8721 224.087 24.868 223.929 24.8571C224.049 24.9606 223.613 25.0654 223.647 25.1471C224.072 24.9701 224.335 24.9566 224.673 24.8926C224.76 24.7796 224.598 24.7128 224.447 24.7182C224.467 24.7673 224.534 24.8354 224.443 24.8926L224.426 24.8994Z" fill="#FF3D00"/>
</g>
</g>
<defs>
<clipPath id="clip0_6963_56155">
<rect width="359.961" height="83.0707" fill="white" transform="translate(0.5 69.3691) rotate(-22.6065)"/>
</clipPath>
</defs>
</svg>
