<svg width="225" height="89" viewBox="0 0 225 89" fill="none" xmlns="http://www.w3.org/2000/svg">
<g clip-path="url(#clip0_6963_55481)">
<g style="mix-blend-mode:multiply">
<path d="M255.191 30.8114C255.545 28.3416 262.718 26.8521 261.28 25.2433C260.779 24.6843 260.268 24.1485 259.572 23.8621C259.595 22.8548 257.168 23.0206 254.268 23.6142C254.446 22.9831 254.062 22.5673 252.234 22.695C251.051 23.2645 250.459 23.5492 250.058 24.0616C249.685 24.4091 249.396 24.683 249.179 24.9461C248.058 25.2975 247.05 25.6407 246.267 25.9282C246.558 23.4461 253.63 21.8066 252.166 20.2278C251.538 19.5489 250.91 18.8699 249.911 18.7293L247.047 21.208C238.427 23.9717 249.453 17.3075 243.114 17.8935C241.944 18.4957 241.359 18.7968 240.998 19.312C238.718 21.4896 239.708 21.6534 241.713 21.951C234.19 25.5055 234.575 19.3759 230.736 20.6672C230.654 20.4709 231.201 20.2625 231.636 20.0622C231.44 19.9136 232.106 19.5784 232.226 19.682C232.251 19.5566 232.354 19.4367 232.698 19.2937C233.196 19.336 232.588 19.6276 232.605 19.7162C232.837 19.5813 233.371 19.4356 233.405 19.287C232.819 19.4927 233.806 19.005 233.241 19.0294C233.044 19.1111 233.223 19.1711 232.958 19.3196C232.808 19.1901 232.938 19.0402 233.163 18.8889C233.527 18.795 233.675 19.0595 233.768 19.0976C233.947 18.9273 234.456 18.907 234.63 18.5853C234.266 18.9097 233.51 19.0322 233.651 18.7241C234.014 18.5348 233.883 18.8196 234.03 18.7583C234.183 18.6179 234.789 18.231 234.748 18.5935C235.107 18.3483 235 18.2774 234.743 18.2119C235.171 17.9952 235.206 18.1725 235.06 18.3292C235.285 18.1779 235.291 18.3292 235.487 18.2475C235.606 18.0253 235.189 18.0839 235.272 17.9148C235.468 17.8331 235.532 17.9408 235.651 17.949C235.957 17.7637 236.017 17.5852 236.475 17.3944C236.843 17.5867 237.058 17.1329 237.552 17.2148C237.472 17.1139 237.302 17.1656 237.543 17.0076C237.739 16.9258 237.725 17.1235 237.922 17.0418C237.841 16.9409 237.784 16.8495 237.974 16.7514C237.987 16.7841 238.01 16.7937 238.092 16.7596C238.119 16.8251 237.884 16.9041 237.99 16.975C239.06 16.3182 239.292 16.1833 240.2 16.1508C240.232 15.9069 240.793 15.7311 241.098 15.6808C240.939 15.5744 241.151 15.4859 241.15 15.3905C240.735 15.6398 240.857 15.3781 240.832 15.2732C240.468 15.3671 240.348 15.4939 239.961 15.5783C240.072 15.7051 239.705 15.8386 239.601 15.9585C239.479 15.8944 239.278 15.9203 239.104 15.9161C239.135 16.0375 238.524 16.3685 238.422 16.3535C238.44 16.2118 239.109 16.0674 238.857 15.9229C238.496 16.2077 238.428 16.0441 238.688 15.8397C237.494 16.3369 237.559 16.3097 236.586 16.8302C236.48 16.7593 236.701 16.5521 236.519 16.5316C236.514 16.841 235.72 16.8259 235.279 17.0098C235.41 16.9553 235.622 16.8667 235.611 16.7945C235.41 16.7249 235.357 16.9198 235.171 16.8435C235.312 16.7658 235.137 16.7617 235.023 16.8093C234.953 17.0111 235.048 17.0097 235.008 17.1419C234.19 17.4825 232.903 17.9416 232.366 17.6661C232.822 17.6103 233.047 17.2287 233.606 17.188C233.51 17.0939 233.713 17.0285 233.56 16.9385C232.951 17.1346 232.581 17.3077 231.893 17.4983C231.964 17.392 231.927 17.3498 231.724 17.4151C231.744 17.4642 231.772 17.5296 231.601 17.5814C231.672 17.4751 231.635 17.4328 231.432 17.4982C231.532 17.5528 231.091 17.8321 231.001 17.7544C231.521 17.4805 230.918 17.4627 231.254 17.2078C231.689 17.0076 231.641 17.3538 231.813 17.1671C231.668 17.1889 231.8 16.9994 231.525 17.0757C231.659 16.9817 231.918 16.6819 232.129 16.7283C231.99 16.9013 232.231 16.9736 232.467 16.8946C232.16 16.8496 232.227 16.6874 232.252 16.562C232.677 16.3849 233.166 16.0851 233.339 16.2242C233.238 16.3046 233.217 16.3905 233.274 16.4818C233.638 16.3878 233.238 16.3046 233.474 16.2256C233.605 16.1711 233.818 16.0826 233.807 16.0103C233.553 16.0007 233.455 16.2719 233.305 16.1424C233.639 16.0225 233.615 15.9176 233.909 15.795C233.964 15.9258 234.193 15.8305 234.247 15.9613C233.962 16.0608 234.24 16.1753 234.257 16.1685C234.19 16.1004 234.884 15.8306 234.457 15.9123C234.478 15.9614 234.337 16.0391 234.277 15.9872C234.424 15.9259 234.255 15.8428 234.379 15.7719C234.547 15.7597 234.786 15.6411 234.918 15.6821C234.952 15.7639 234.67 15.8238 234.697 15.8892C235.004 15.9343 235.326 15.186 235.646 15.4941C235.529 15.5813 235.141 15.6658 235.215 15.7503C235.597 15.7449 235.863 15.4615 236.303 15.4125C236.213 15.3348 236.235 15.2489 236.368 15.1549C236.439 15.279 236.845 15.1482 236.968 14.9819C237.215 14.9752 236.98 15.1496 237.194 15.1565C237.173 15.012 237.686 14.8172 237.666 14.7681C237.552 14.8158 237.437 14.8635 237.436 14.768C237.542 14.6086 237.695 14.6986 237.985 14.5201C237.95 14.3429 237.549 14.6249 237.426 14.5609C237.973 14.3524 237.43 14.3864 237.43 14.3864C237.552 14.1247 237.974 14.2175 238.087 14.3047C237.882 14.1793 238.18 13.8822 237.774 14.013C237.758 14.2502 237.387 14.0974 237.184 14.3931C237.143 14.295 237.066 14.25 236.896 14.3018C236.724 14.4884 237.167 14.4 236.844 14.5921C236.039 14.8699 236.359 14.2566 236.962 14.0441C236.682 14.0645 236.728 14.0836 236.382 14.2662C236.592 13.9868 236.145 14.2498 236.003 14.232C236.168 14.029 236.952 13.837 236.926 13.6366C236.337 13.8818 235.825 14.172 235.519 14.2224C235.59 14.1161 235.684 14.0193 235.825 13.9416C235.825 13.9416 235.832 13.958 235.838 13.9744C236.722 13.6065 237.717 13.2306 238.768 12.8505C238.752 12.8573 238.726 12.8873 238.716 12.9105C238.831 12.8628 238.945 12.8151 238.946 12.9105C239.162 12.7825 239.357 12.6053 239.448 12.7784C238.963 12.9037 239.616 12.7662 239.576 12.9938C239.707 12.9393 239.92 12.8508 239.909 12.7785C239.336 13.0169 240.368 12.4529 239.899 12.5714C239.931 12.6927 239.546 12.7376 239.571 12.6122C240.062 12.4078 240.277 12.5101 240.709 12.3494C240.659 12.2744 240.72 12.1912 240.821 12.1109C241.407 11.9052 241.977 11.7063 242.553 11.5238C242.586 11.5102 242.635 11.4897 242.652 11.4829C243.562 11.1805 244.456 10.8849 245.285 10.6166C245.191 10.7134 245.034 10.7978 245.108 10.8824C245.307 10.7611 245.441 10.6671 245.528 10.554C245.836 10.4641 246.154 10.351 246.445 10.2679C246.948 10.0009 247.379 9.74474 247.794 9.4954C247.828 9.57719 247.904 9.62219 248.006 9.63721C248.121 9.58953 248.268 9.52823 248.257 9.45598C248.061 9.53772 247.971 9.46001 247.836 9.45861C248.466 9.08119 249.014 8.73781 249.44 8.42577C249.44 8.42577 249.473 8.41215 249.489 8.40534C249.483 8.38898 249.509 8.359 249.525 8.35218C249.6 8.30177 249.691 8.24454 249.759 8.17777C249.792 8.16415 249.808 8.15733 249.818 8.13417C250.782 7.40652 251.215 6.88046 251.243 6.48518C251.325 6.45113 251.406 6.41707 251.521 6.36939C251.494 6.30396 251.634 6.2263 251.623 6.15406C251.473 6.25489 251.365 6.31892 251.251 6.3666C251.206 5.9822 250.745 5.75174 249.997 5.66024C250.812 5.35919 251.622 4.90685 252.336 4.6862C252.417 4.78709 252.587 4.73533 252.464 4.90159C252.737 4.63449 253.217 4.3579 253.634 4.29938C253.547 4.18215 253.785 4.06362 254.008 3.95191C254.035 4.01734 253.92 4.06501 254.004 4.12637C254.134 4.07188 254.186 4.01191 254.254 3.94514C254.275 3.99421 254.216 4.03782 254.213 4.07735C254.441 3.88657 254.745 3.97115 254.756 3.81305C254.635 3.84436 254.53 3.86887 254.428 3.85385C254.607 3.77893 254.597 3.70668 254.76 3.63857C254.737 3.85937 255.072 3.60456 255.078 3.75587C255.327 3.47921 255.468 3.40156 255.976 3.28582C255.886 3.2081 255.908 3.12223 256.042 3.02821C255.917 3.32942 256.797 2.90571 256.913 2.72309C256.94 2.78853 256.921 2.83486 256.909 2.89756C257.487 2.5801 258.092 2.32808 258.637 2.25461C258.457 2.09916 259.148 1.86897 259.4 1.78315C259.388 1.84586 259.366 1.93172 259.298 1.99849C259.375 1.81313 258.825 2.0611 258.908 2.12246C259.411 1.85541 259.323 2.10346 259.504 2.12394C259.64 1.76003 259.763 1.82414 259.428 1.61823C259.156 1.75039 258.403 2.19866 258.459 1.96422C258.595 2.06103 258.555 1.82794 258.709 1.783C259.125 1.62906 259.079 1.60996 259.462 1.46967C259.379 1.40831 259.536 1.32383 259.564 1.25432C259.384 1.32925 259.405 1.14797 259.199 1.25287C259.341 1.50098 258.341 1.59072 258.005 1.98047C258.116 2.20268 256.746 2.83074 256.292 2.84698C256.681 2.62762 256.933 2.54181 257.093 2.4178C256.945 2.4791 256.956 2.321 256.825 2.37549C256.695 2.42998 256.208 2.6902 256.354 2.76385C256.103 2.71471 255.873 2.94503 255.656 2.97768C255.858 3.04725 255.496 3.33205 255.374 3.26796C255.439 3.24072 255.554 3.19303 255.533 3.14396C254.394 3.31135 253.472 4.23256 252.446 4.25686C252.244 4.41765 252.665 4.41502 252.492 4.50631C251.922 4.47483 251.221 5.18891 250.435 5.19008C250.455 5.23916 250.522 5.30733 250.431 5.36456C250.322 5.33318 249.988 5.45305 249.756 5.58794C249.558 5.57426 249.354 5.54424 249.123 5.54418C249.451 5.40795 249.83 5.44211 249.995 5.23905C249.891 5.12862 249.288 5.34112 249.084 5.54145C245.999 5.46303 240.436 6.53174 237.769 7.31624C237.79 7.23037 237.829 7.13769 237.867 7.04501C238.021 7.00007 238.182 6.97148 238.336 6.92653C238.314 6.78204 238.03 6.9769 237.889 6.95915C237.908 6.91281 237.927 6.86646 237.953 6.83648C238.1 6.77518 238.247 6.71387 238.388 6.63622C238.429 6.73437 238.505 6.77936 238.675 6.7276C238.351 6.36359 240.263 5.93194 240.562 5.4045C240.557 5.48356 240.495 5.5667 240.497 5.66211C240.67 5.57083 240.713 5.62945 240.825 5.6213C241.01 5.46732 240.574 5.57217 240.816 5.41411C241.201 5.23428 241.045 5.31875 240.964 5.44822C241.364 5.3011 241 5.16472 241.399 5.0176C241.505 5.31886 241.869 4.76418 242.056 4.93596C242.171 4.65793 242.514 4.74524 242.877 4.55585C242.91 4.31187 242.386 4.7602 242.338 4.64569C242.469 4.5912 242.37 4.53666 242.461 4.47943C242.282 4.41941 242.163 4.31579 241.913 4.36208C242.085 4.6361 241.605 4.45197 241.421 4.70137C241.466 4.62505 241.436 4.59914 241.38 4.60322C243.185 3.7749 244.854 3.08012 244.137 2.18851C244.123 2.15579 244.093 2.12989 244.063 2.10398C244.168 2.07947 244.273 2.05496 244.369 2.05362C244.314 1.92275 244.155 2.04675 244.261 1.8873C244.179 1.92135 244.074 1.94587 243.946 1.96084C243.902 1.90221 243.852 1.82722 243.792 1.77541C243.942 1.67458 244.043 1.59418 244.002 1.49603C243.911 1.55326 243.819 1.61049 243.712 1.67453C243.44 1.34597 243.134 1.07056 242.785 0.831945C242.864 0.837416 242.943 0.842886 243.006 0.855169C243.156 0.754335 243.368 0.665786 243.416 0.549938C243.105 0.679354 242.972 0.543016 242.619 0.70923C242.443 0.609685 242.241 0.540119 242.023 0.477362C242.893 0.0768271 243.82 -0.462729 244.555 -0.634304C244.358 -0.552568 244.407 -0.803358 244.237 -0.7516C244.008 -0.425885 243.52 -0.261063 243.108 -0.281605C242.604 0.12038 241.543 0.523595 240.958 0.824698C240.774 0.613382 239.91 0.934861 239.933 0.714047C239.665 0.806675 239.238 1.11872 239.083 1.06825C239.338 0.942907 239.267 0.818848 239.443 0.688032C239.2 0.750675 238.983 0.783341 238.647 0.942742C238.599 0.828234 238.733 0.734216 238.441 0.817297C237.718 1.15653 236.925 1.60207 236.044 1.7C236.148 1.58008 236.252 1.46015 236.348 1.32386C236.561 1.23531 236.774 1.14677 236.901 1.03639C236.49 1.11127 237.342 0.852481 237.213 0.772027C236.951 0.881014 236.835 0.602921 237.034 0.481653C237.261 0.425819 237.419 0.436762 237.47 0.607162C237.699 0.511801 237.931 0.376907 237.844 0.25966C237.361 0.575783 237.601 0.0919476 237.428 0.183233C237.423 0.262285 237.345 0.352237 237.228 0.439445C237.177 0.364462 237.089 0.382165 237.023 0.40941C237.123 0.233602 237.19 0.071401 237.207 -0.0703525C237.386 -0.24069 237.581 -0.417838 237.803 -0.529557C237.769 -0.61135 237.693 -0.656347 237.597 -0.655008C238.384 -1.1169 239.135 -1.75601 239.679 -1.69455C239.969 -1.87304 240.569 -2.04601 240.652 -2.21501C240.312 -2.11149 240.174 -2.30372 239.965 -2.15929C240.249 -2.35414 240.414 -2.55719 240.539 -2.76299C240.708 -2.6798 241.21 -3.04226 241.447 -3.02585C241.577 -2.94539 241.006 -2.84193 241.135 -2.76148C242.258 -2.92206 243.821 -3.9181 244.914 -4.10459C244.795 -3.88244 244.039 -3.85534 244.052 -3.59227C244.469 -3.65078 244.893 -3.9233 245.448 -4.01995C245.614 -3.89723 245.422 -3.75961 245.088 -3.63973C244.93 -3.88103 243.778 -3.19023 244.002 -3.66725C243.624 -3.37565 243.105 -3.10179 242.693 -3.12233C242.527 -3.01469 242.719 -2.92196 242.411 -2.83207C242.328 -2.89343 242.485 -2.97789 242.513 -3.0474C242.127 -2.63721 240.336 -2.00654 239.817 -1.50232C239.75 -1.57049 239.674 -1.61549 239.529 -1.59371C239.528 -1.45877 239.289 -1.34024 239.304 -1.21211C239.62 -1.42058 239.649 -1.25974 239.843 -1.30195C239.832 -1.37419 240.209 -1.6658 240.371 -1.59897C240.461 -1.52125 240.137 -1.42455 240.171 -1.34276C240.253 -1.37682 240.351 -1.41768 240.381 -1.39177C240.316 -1.36453 240.201 -1.31685 240.221 -1.26777C240.647 -1.44487 240.992 -1.95322 241.391 -1.86998C241.018 -1.75284 241.296 -1.63829 241.129 -1.53064C240.654 -1.42852 240.058 -0.969302 239.898 -0.845301C240.46 -1.15595 240.517 -0.834257 240.914 -0.941843C240.604 -0.717011 240.67 -0.97461 240.396 -0.802929C240.472 -0.527575 240.801 -0.56839 241.113 -0.602393C240.844 -0.509765 240.99 -0.436127 240.912 -0.346181C241.201 -0.389734 241.668 -0.699036 241.508 -0.344679C241.786 -0.460475 242.194 -0.726174 242.304 -0.599383C242.181 -0.433117 241.526 -0.256072 241.673 -0.0870182C242.959 -1.33256 244.306 -0.492606 245.611 -1.55413C245.618 -1.30741 245.938 -1.46 246.145 -1.46949C246.083 -1.25141 245.915 -1.00882 245.74 -0.782595C245.51 -0.782653 245.511 -0.687234 245.289 -0.575516C244.984 -0.525153 245.214 -0.755457 244.91 -0.609684C244.944 -0.527893 245.021 -0.482893 245.116 -0.484231C244.711 -0.258059 244.544 -0.24583 243.876 -0.00608889C243.813 0.211991 243.551 0.320973 243.783 0.416441C244.37 0.0758109 244.717 0.123604 245.187 -0.360174C245.015 -0.173473 245.738 -0.0520034 245.783 -0.35868C245.635 -0.29738 245.453 -0.182914 245.393 -0.234721C245.365 -0.300154 245.259 -0.371066 245.383 -0.441915C245.789 -0.572675 245.937 -0.864344 246.081 -0.655761C245.93 -0.65034 245.701 -0.554979 245.749 -0.440469C246.076 -0.576701 245.783 -0.358672 246.114 -0.439013C246.272 -0.65843 246.988 -1.01403 247.304 -0.992145C247.324 -0.94307 247.345 -0.893994 247.375 -0.868087C246.915 -0.772777 246.889 -0.282082 246.964 -0.562857C247.709 -0.757598 247.8 -1.27554 247.821 -1.45682C248.069 -1.59853 248.003 -1.34092 248.2 -1.42266C248.111 -1.63532 248.579 -1.84921 248.744 -2.05227C248.61 -1.95825 248.339 -2.05646 248.538 -2.17773C249.154 -2.35751 250.212 -2.95155 250.747 -3.00186C250.716 -2.89282 250.514 -2.73203 250.855 -2.83555C250.709 -3.13954 251.677 -3.12023 251.828 -3.356C251.809 -3.54002 251.422 -3.22525 251.413 -3.43244C251.901 -3.59725 251.619 -3.76771 251.909 -3.9462C252.379 -3.96926 253.539 -4.54829 253.858 -4.79629C253.617 -4.86859 253.379 -4.5197 253.14 -4.63152C253.246 -4.79098 253.09 -4.93687 253.196 -5.09633C253.396 -5.12218 253.83 -5.41786 253.959 -5.56776C253.586 -5.45063 253.428 -5.46157 253.754 -5.69322C252.948 -5.41534 252.598 -5.05829 251.75 -4.74364C251.784 -4.66184 251.778 -4.58278 251.684 -4.48603C251.585 -4.54057 251.249 -4.28575 251.183 -4.35392C251.115 -4.51751 251.705 -4.66731 251.604 -4.81727C251.319 -4.71783 250.59 -4.1646 250.537 -4.43041C250.373 -4.36229 250.226 -4.30099 250.069 -4.21651C250.297 -3.94657 248.989 -3.53659 249.198 -3.91139C248.743 -3.76019 248.12 -3.36641 247.962 -3.60771C248.584 -3.77114 249.006 -4.00412 249.402 -4.34207C249.223 -4.26714 249.158 -4.37484 248.901 -4.20997C249.03 -4.12951 248.762 -4.03689 248.7 -3.95376C248.61 -4.03148 248.278 -3.81619 248.162 -3.86393C248.15 -4.03159 247.928 -3.91987 247.844 -3.98123C248.192 -4.29874 248.777 -4.36949 249.183 -4.50024C249.124 -4.687 248.643 -4.27546 248.526 -4.41861C248.492 -4.5004 248.774 -4.56031 248.747 -4.62574C248.592 -4.67622 248.113 -4.30421 247.951 -4.37104C248.136 -4.52502 248.552 -4.67894 248.484 -4.84253C248.825 -4.94604 249.137 -4.98005 249.449 -5.01405C249.168 -5.08909 249.786 -5.4038 249.726 -5.68597C249.375 -5.32894 248.856 -4.82472 248.285 -4.95162C247.861 -4.67911 247.138 -4.33987 246.766 -4.35768C246.968 -4.51847 247.137 -4.66565 247.188 -4.82103C246.884 -4.90561 246.552 -4.36454 246.177 -4.34282C246.292 -4.3905 246.383 -4.44774 246.3 -4.50909C246.022 -4.3933 246.03 -4.28152 245.927 -4.16159C245.74 -4.10303 245.338 -4.14674 245.552 -4.37024C246.784 -4.7298 247.717 -5.34841 249.039 -5.63025C248.367 -5.21604 247.403 -5.17947 247.228 -4.72288C247.592 -5.0472 247.898 -4.86721 248.029 -5.15205C248.465 -5.2569 248.645 -5.10147 248.957 -5.36583C248.65 -5.18053 248.795 -5.43267 248.886 -5.4899C249.211 -5.5866 249.185 -5.55662 249.584 -5.70373C249.515 -5.96274 250.406 -6.21878 250.281 -6.4737C249.536 -5.81824 248.4 -5.69038 247.546 -5.52701C247.335 -5.34304 247.817 -5.4288 247.593 -5.27755C247.455 -5.23942 247.32 -5.24081 247.227 -5.279C247.361 -5.60338 247.077 -5.40854 246.704 -5.52175C247.17 -5.83106 247.129 -5.46849 247.473 -5.61154C247.688 -5.73962 247.927 -6.0885 248.124 -6.07482C248.152 -6.00939 247.981 -5.95764 248.002 -5.90856C248.156 -5.95351 248.267 -5.96165 248.428 -5.99024C248.338 -6.06796 248.36 -6.15383 248.494 -6.24785C248.687 -6.0597 248.994 -6.01464 249.468 -6.21218C249.451 -6.30078 249.257 -6.25858 249.397 -6.33624C249.775 -6.39749 250.292 -6.63182 250.634 -6.63992C250.72 -6.84844 251.059 -6.81701 251.315 -7.07729C251.404 -6.86463 252.129 -7.47375 252.244 -7.29109C252.23 -7.3238 252.289 -7.3674 252.403 -7.41509C252.268 -7.8772 251.086 -6.98193 250.69 -7.1047C251.213 -7.32267 250.969 -7.35545 250.694 -7.27918C251.288 -7.8338 252.394 -7.62227 252.304 -7.93034C252.549 -8.03252 253.283 -8.06914 253.114 -8.15234C252.651 -8.0175 253.018 -8.15099 252.887 -8.32687C252.732 -8.37733 252.369 -7.95759 252.135 -8.01353C252.108 -8.07897 252.778 -8.35823 252.447 -8.27789C252.059 -8.05853 252.071 -8.12123 251.857 -7.89774C251.689 -7.8855 251.609 -7.9864 251.441 -7.97416C251.307 -7.88014 251.602 -7.7724 251.277 -7.6757C250.867 -8.06153 249.819 -7.2603 249.174 -7.24137C250.385 -7.97578 251.669 -8.3953 252.564 -8.82582C252.466 -8.78495 252.4 -8.85312 252.524 -8.92397C252.622 -8.96484 252.704 -8.9989 252.802 -9.03977C252.843 -8.94162 252.926 -8.88026 253.028 -8.86524C253.324 -9.12278 253.471 -8.95373 253.838 -9.08723C254.47 -9.50418 256.3 -10.2275 256.946 -10.3814C257.404 -10.5721 258.952 -11.3705 259.582 -11.2872C259.555 -11.3527 259.449 -11.4236 259.573 -11.4944C260.067 -11.6429 261.531 -12.1373 261.548 -12.1441C261.57 -12.23 261.375 -12.2832 261.538 -12.3513C261.748 -12.4004 261.852 -12.2899 262.036 -12.309C262.339 -12.7805 263.193 -12.6181 263.687 -13.0923C263.451 -13.2437 263.241 -12.9643 263.31 -12.9357C263.14 -12.8839 262.918 -12.7722 262.792 -12.7968C263.185 -12.9602 262.765 -12.8622 262.722 -12.9208C262.825 -13.0407 262.923 -13.0816 263.091 -13.0938C262.892 -13.4333 262.093 -12.6783 261.684 -12.508C261.226 -12.3173 261.254 -12.7126 260.767 -12.4524C260.808 -12.3542 260.948 -12.4319 261.034 -12.4101C260.659 -12.158 260.193 -11.8487 259.807 -11.8992C260.114 -12.0845 259.774 -12.1159 259.52 -11.9906C259.404 -11.808 259.22 -11.7889 258.966 -11.5682C259.083 -11.8857 258.387 -11.3461 258.628 -11.7345C258.144 -11.5138 258.535 -11.5424 258.268 -11.3543C257.915 -11.4185 258.282 -11.3216 257.935 -11.1391C257.829 -11.21 257.607 -11.0982 257.73 -11.2645C257.206 -11.0465 256.983 -10.7999 256.54 -10.7114C256.485 -10.6119 256.47 -10.5097 256.376 -10.4129C255.963 -10.2985 255.573 -10.1746 255.037 -9.89389C254.894 -10.2374 253.515 -9.58618 252.945 -9.61766C252.965 -9.56859 253.032 -9.50043 252.941 -9.4432C252.695 -9.34102 252.586 -9.60276 252.402 -9.35337C252.421 -9.16935 252.815 -9.46776 252.818 -9.27693C252.355 -9.00715 251.582 -8.51254 251.008 -8.36955C251.355 -8.45671 251.44 -8.76065 251.27 -8.7089C251.091 -8.53855 251.008 -8.36955 250.638 -8.19653C250.693 -8.29603 250.636 -8.38736 250.69 -8.48685C250.169 -8.30841 249.7 -7.95957 249.311 -7.83563C249.29 -7.88471 249.375 -7.9583 249.433 -8.00189C250.06 -8.33979 251.215 -8.60941 251.424 -8.98421C250.81 -8.61359 249.861 -8.44887 249.105 -7.96107C249.003 -8.20645 247.916 -7.31253 247.499 -7.48438C246.669 -6.85075 244.887 -6.24324 244.099 -6.10712C244.165 -6.13436 244.177 -6.19706 244.14 -6.23933C243.895 -6.13716 243.719 -6.00634 243.648 -5.90004C243.762 -5.94772 243.877 -5.9954 243.878 -5.89998C243.238 -5.59481 243.03 -5.58531 242.651 -5.38912C242.657 -5.46817 242.718 -5.5513 242.717 -5.64672C242.195 -5.33334 242.074 -5.53238 241.575 -5.20945C241.695 -5.10583 241.949 -5.23117 241.703 -4.99405C241.648 -5.12492 241.384 -4.97641 241.226 -4.98735C241.096 -4.83744 241.497 -4.88914 241.174 -4.69703C240.568 -4.445 240.589 -4.39592 240.004 -4.09482C239.945 -4.28158 239.354 -3.99684 239.531 -4.26259C238.959 -4.02419 238.747 -4.07059 238.558 -3.74214C238.611 -3.93704 238.261 -3.81035 238.454 -4.08292C238.274 -4.00799 238.285 -3.93575 238.122 -3.86763C238.228 -3.79673 238.479 -3.7476 238.188 -3.5691C237.137 -3.18906 235.79 -2.78181 235.229 -2.24081C235.178 -2.31579 235.167 -2.38804 235.219 -2.448C235.056 -2.37988 234.908 -2.31858 234.752 -2.2341C234.881 -2.15365 234.82 -2.07053 234.551 -1.9779C234.666 -2.25594 234.305 -1.97115 234.213 -2.14428C234.568 -2.44543 235.012 -2.43851 235.572 -2.61421C235.637 -2.96723 236.891 -3.41266 237.132 -3.34036C236.591 -3.44136 235.237 -2.82011 234.885 -2.55848C234.256 -2.41141 233.694 -2.33113 232.951 -2.04097C233.081 -1.96052 232.812 -1.86789 232.751 -1.78476C232.763 -1.6171 232.985 -1.72883 233.007 -1.58434C233.387 -1.68511 233.116 -1.78332 233.417 -1.88957C233.414 -1.61968 233.867 -1.9617 233.89 -1.72179C233.442 -1.55424 232.712 -1.46173 232.7 -1.16867C232.536 -1.10056 232.389 -1.03925 232.249 -0.961594C232.303 -1.06108 232.246 -1.15242 232.301 -1.25191C231.761 -1.02713 232.534 -1.06102 231.978 -0.829429C231.754 -0.813126 231.674 -0.914015 231.588 -0.705483C231.216 -0.723294 231.633 -1.01217 231.409 -0.995864C231.443 -0.914073 230.828 -0.638876 230.768 -0.690689C230.679 -0.768404 230.7 -0.854267 230.834 -0.94829C230.815 -0.671593 231.37 -1.22895 231.655 -1.32839C231.796 -1.31064 231.877 -1.20975 232.07 -1.25196C231.975 -1.48097 232.557 -1.51219 232.711 -1.55714C232.458 -1.7971 231.968 -1.49733 231.732 -1.41833C231.638 -1.55194 232.039 -1.60364 232.092 -1.79855C231.736 -1.59281 231.422 -1.28892 231.16 -1.41029C231.191 -1.28898 230.482 -1.14738 230.8 -1.03008C231.098 -1.0968 231.197 -1.36803 231.342 -1.29439C231.087 -0.938687 230.737 -1.04236 230.373 -0.948391C230.353 -0.767112 230.691 -1.06146 230.661 -0.857007C230.563 -0.816136 230.583 -0.767061 230.501 -0.733C230.008 -0.489126 229.885 -0.553217 229.445 -0.504249C229.197 -0.362551 229.636 -0.506936 229.614 -0.421067C229.483 -0.366577 229.431 -0.306615 229.363 -0.239842C229.202 -0.211254 229.032 -0.159498 228.984 -0.274006C228.887 -0.368079 229.324 -0.472926 229.148 -0.57247C228.808 -0.373544 228.701 -0.309511 228.395 -0.259148C228.219 -0.128338 228.346 -0.00835288 228.035 0.121063C227.839 0.202804 227.775 0.0951114 227.595 0.170037C227.491 0.289962 226.986 0.59653 226.503 0.682285C226.462 0.814496 226.263 0.935763 226.143 1.0625C226.615 0.904498 226.763 0.708248 227.014 0.757373C226.913 0.837771 226.845 0.904549 226.793 0.964512C227.022 0.869151 227.037 0.766929 227.204 0.659282C227.254 0.964625 227.793 0.414068 227.922 0.494518C227.933 0.566761 227.849 0.640341 227.932 0.701704C228.394 0.336506 229.178 -0.0858522 229.64 0.00966555C229.383 -0.190763 230.58 -0.497174 230.276 -0.121038C230.76 -0.341743 230.369 -0.31321 230.636 -0.501251C230.719 -0.439894 230.906 -0.498461 230.954 -0.383951C230.245 0.218354 229.621 0.286363 228.744 0.440184C228.216 0.832628 227.937 0.853 227.611 1.08465C227.591 1.03557 227.554 0.993315 227.524 0.967407C227.546 1.11189 226.527 1.47832 226.893 1.47977C227.025 1.29034 227.651 1.08738 227.764 1.17465C227.195 1.46894 226.834 1.52337 226.266 1.81767C226.319 1.62276 226.162 1.70723 225.948 1.70037C226.042 1.83397 225.909 1.92799 225.761 1.9893C224.791 1.08808 223.892 0.310928 222.051 0.962044C219.283 2.28766 218.924 3.45436 219.208 4.50671C218.757 4.71379 218.299 4.90451 218.01 4.94806C217.808 5.10886 217.165 5.45356 216.534 5.73557C212.043 5.09115 204.198 6.30381 197.824 8.42052C194.536 10.2504 190.773 11.3563 186.83 12.4417C187.091 12.3327 187.406 12.0289 187.409 11.759C187.417 11.41 187.862 11.1866 188.334 11.0286C188.546 10.94 188.779 10.9006 189.006 10.8447C190.104 10.5792 190.38 10.5029 190.422 10.0054C190.505 9.37569 191.194 9.41538 191.611 9.1265C192.237 8.6932 193.44 8.17278 192.944 7.53476C192.857 7.41751 193.109 7.10134 193.267 6.88192C193.445 6.61617 193.347 6.42668 193.096 6.37755C192.383 6.23289 191.628 6.12503 190.847 6.04716C190.586 6.02119 190.199 6.10562 189.875 6.20232C189.193 6.40935 188.499 6.67907 187.831 6.91882C187.136 6.63241 186.414 7.66272 185.727 7.48809C184.605 8.20479 183.375 8.29447 182.215 8.64314C181.599 8.82293 180.934 8.79278 180.24 9.0625C179.569 9.34178 178.841 9.52971 178.208 9.85125C177.515 10.2164 176.932 9.92183 176.322 10.3483C176.055 10.5364 175.841 10.7599 175.585 10.5594C175.359 10.3849 175.653 10.0319 176.193 9.80716C176.978 9.48021 177.777 9.18597 178.562 8.85902C178.775 8.77047 179.069 8.64786 179.15 8.51839C179.337 8.22946 178.854 8.31523 178.744 8.18843C178.513 7.95802 178.393 7.62404 178.046 7.48083C177.629 7.309 177.307 7.13581 177.712 6.67927C178.039 6.31269 177.708 5.93232 178.342 5.61078C178.721 5.41459 179.373 5.18166 179.6 5.22123C179.904 5.30581 179.397 5.51698 179.156 5.67503C179.022 5.76906 178.965 5.90808 178.878 6.02119C179.623 5.92186 180.387 5.91113 181.14 5.69322C182.039 5.45353 182.958 5.03256 183.861 4.71381C183.96 4.67294 184.069 4.70431 184.171 4.71933C184.067 4.83926 184 5.00145 183.869 5.05594C183.199 5.33522 182.528 5.61448 181.857 5.89376C181.465 6.05723 181.188 6.26845 181.174 6.46608C181.155 6.74278 181.174 7.15716 181.617 7.06866C182.408 6.89301 183.021 7.21348 183.845 6.79385C184.782 6.32653 185.613 6.38397 186.501 6.16745C187.511 5.91961 188.502 5.2574 189.53 5.32852C189.547 5.3217 189.713 5.21406 189.732 5.16773C189.75 5.02597 189.842 4.8338 189.727 4.78606C189.528 4.67697 189.237 4.6251 188.928 4.61958C188.428 4.61674 185.99 5.40129 185.179 5.75823C185.065 5.80591 184.879 5.72953 184.747 5.68861C184.678 5.65997 184.644 5.57818 184.672 5.50867C184.809 5.14476 184.968 4.7904 185.121 4.41968C185.216 4.18798 185.478 4.079 185.595 4.22215C185.896 4.57661 186.368 4.64897 187.166 4.25932C188.349 3.68983 189.375 3.43518 189.976 4.0487C191.427 3.98225 192.841 3.96895 194.445 3.53178C194.648 3.4664 194.903 3.34106 195.023 3.21432C195.143 3.08758 195.186 2.91585 195.145 2.8177C195.098 2.70319 194.961 2.60638 194.787 2.60225C194.201 2.57758 193.579 2.60605 192.974 2.62772C192.828 2.09336 191.909 2.51434 191.363 2.4924C190.879 2.48275 190.285 2.57666 189.885 2.49342C189.572 2.43201 189.468 2.09122 188.975 2.56545C188.413 3.10646 187.437 3.20573 186.886 3.81898C186.62 4.10244 186.432 3.83523 186.306 3.71525C186.269 3.67299 186.186 3.61163 186.113 3.62252C185.565 3.73553 184.998 3.89487 184.469 3.96154C183.941 4.02821 184.047 3.40804 183.255 3.71863C182.928 3.85486 182.59 3.91884 182.242 4.006C182.144 4.04687 182.045 3.99233 181.933 4.00048C182.001 3.9337 182.056 3.83421 182.147 3.77698C183.33 3.2075 184.546 2.62439 185.788 2.47201C186.373 2.40127 186.891 2.26236 187.461 2.06349C188.806 1.56083 190.091 1.00637 191.501 0.841765C192.197 0.76287 193.066 0.266912 193.828 -0.0695839C193.942 -0.117264 194.054 -0.355773 194.046 -0.467549C194.022 -0.572509 193.825 -0.721129 193.737 -0.703427C192.84 -0.368326 192.025 -0.297635 191.2 -0.203776C191.181 0.0729218 190.944 0.286868 190.458 0.412156C190.111 0.499306 189.893 0.436555 189.834 0.249803C189.793 0.151653 189.745 0.0371448 189.688 -0.0541901C189.256 0.106548 188.808 0.274096 188.369 0.418481C188.348 0.369406 188.305 0.310781 188.232 0.321668C186.937 0.438594 186.215 0.777823 185.648 1.62824C185.515 1.81768 185.435 1.94716 185.237 1.93348C184.361 1.85695 183.482 1.81993 182.379 2.25995C182.134 2.36212 181.695 2.27614 181.552 2.16297C181.035 1.70623 180.27 1.8519 179.296 2.27694C178.412 2.64477 177.485 2.95396 176.602 3.32179C176.16 3.5057 175.9 3.7101 175.731 4.08763C175.361 4.95172 175.271 4.874 173.696 5.37661C172.608 5.7144 171.79 5.59426 170.808 5.77259C170.326 5.85835 169.951 5.88007 169.624 6.24666C169.391 6.51649 169.148 6.57913 168.809 6.5477C168.367 6.50126 167.999 6.30898 167.38 6.52828C167.398 6.84725 167.711 7.13902 166.914 7.52867C166.866 7.64452 166.846 7.8258 166.738 7.88984C166.408 8.0656 166.33 7.92519 166.227 7.81475C165.867 7.96461 165.672 8.14176 165.672 8.37212C165.672 8.60247 165.943 8.70068 166.267 8.60397C166.834 8.44463 167.393 8.17351 167.97 7.991C168.117 7.92969 168.27 8.01969 168.435 8.04699C168.367 8.11376 168.303 8.23643 168.221 8.27048C166.994 8.78135 165.767 9.29221 164.529 9.73082C163.137 10.2144 161.942 10.8466 160.891 11.6873C160.673 11.8549 160.523 12.1861 160.074 12.1233C159.286 12.0291 158.819 12.4733 158.335 12.9244C157.586 12.8329 156.808 13.1762 156.016 13.4868C154.546 14.0603 153.077 14.6338 151.61 15.1678C151.064 15.3762 150.4 15.6719 149.946 15.6881C149.127 15.7029 148.381 16.0326 147.605 16.3364C143.426 17.9615 139.262 19.5799 135.076 21.1887C134.235 21.5197 134.228 21.5034 133.759 20.9308C133.679 20.8299 133.524 20.7794 133.401 20.7153C133.274 20.8257 133.092 20.9401 133.027 21.0628C132.609 21.717 131.443 22.3751 130.673 22.3694C130.64 22.3831 130.59 22.3081 130.625 22.2549C130.67 22.1786 130.758 22.0655 130.846 22.0478C131.914 21.6609 132.56 21.2767 132.178 20.591C132.044 20.3592 132.418 19.8768 132.555 19.5129C132.682 19.1722 133.031 19.1804 133.307 19.1996C133.6 19.2119 133.771 19.1601 133.778 18.9461C133.775 18.7553 133.707 18.5917 133.671 18.4145C132.085 19.0752 130.345 19.4156 129.016 20.6025C128.711 20.8832 127.849 21.1652 127.405 21.1583C126.642 21.169 125.859 21.4564 125.111 21.5953C124.966 21.6171 124.869 21.523 124.747 21.4589C124.345 21.6455 123.818 21.6727 123.547 22.0352C123.13 22.5544 122.499 23.0668 122.398 23.6079C122.38 23.7496 122.25 23.8996 122.177 24.0454C121.985 23.9526 121.818 23.8299 121.577 23.7576C121.197 23.6281 120.791 23.7588 120.417 24.1063C120.264 24.2467 120.034 24.477 119.939 24.4783C119.324 24.5232 118.487 24.6797 118.198 24.4929C117.703 24.1806 117.576 24.291 117.083 24.7653C116.664 25.1891 117.144 25.6036 116.291 25.9973C116.278 26.06 116.299 26.1091 116.254 26.1854C115.798 27.0276 114.542 26.3608 114.049 27.1608C113.891 27.1499 113.717 27.1457 113.601 27.098C113.446 27.0475 113.364 26.8512 113.243 26.8826C111.777 27.2816 110.441 27.3004 109.017 27.5672C108.928 27.5849 108.811 27.6721 108.743 27.7389C108.574 27.8861 108.673 27.9406 108.917 27.9734C109.043 27.9979 109.124 28.1942 109.108 28.201C108.188 28.757 107.209 29.1261 106.169 29.3481C105.71 29.4434 106.022 29.4094 106.121 29.2336C106.4 28.657 106.205 28.6038 105.436 28.924C104.994 29.1079 104.493 29.24 104.111 29.4757C103.647 29.7455 103.34 30.3915 102.767 30.3041C101.886 30.1717 101.639 30.8695 101.063 31.0521C100.624 31.1964 100.174 31.2686 99.7213 31.3802C99.5277 31.4225 99.2156 31.4565 99.1706 31.5328C98.6457 32.1161 98.0813 32.2359 97.3766 32.203C97.1067 32.2002 96.6937 32.3146 96.3897 32.4604C95.1178 33.0476 93.5939 33.2598 92.5618 34.2846C92.4514 34.3882 92.1269 34.4849 91.917 34.5339C91.4672 34.6061 91.0173 34.6782 90.6125 34.674C89.3489 34.6819 88.2053 35.0238 87.1282 35.8945C86.9687 36.0185 86.7506 36.1861 86.5475 36.2515C84.7876 36.7731 83.3575 37.8101 81.7626 38.5894C80.8833 39.0131 79.9127 39.494 79.584 40.2259C79.021 40.4412 78.3121 40.8131 77.94 40.7953C77.2053 40.7365 76.7404 41.3716 76.1679 41.3796C75.47 41.3631 74.7802 41.6887 74.1559 41.9871C73.2766 42.4108 72.6319 42.1994 71.8617 42.4241C71.6354 42.4799 71.3969 42.5985 71.191 42.7034C70.6457 43.0072 70.2026 43.5564 69.457 43.4254C68.9948 44.021 68.0297 44.1925 67.3917 44.6885C66.4442 45.4093 65.0987 45.912 64.5328 46.8578C64.4524 46.9873 63.8731 46.7486 63.4219 47.1861C63.1069 47.4899 63.0523 48.0501 62.2821 48.0445C61.5284 48.0321 61.4056 48.6591 60.8576 48.7721C60.6476 48.8211 60.3655 48.881 60.266 48.8264C60.1433 48.7624 60.1147 48.6015 60.172 48.4625C60.2361 48.3398 60.4842 48.1981 60.6369 48.0578C60.8128 47.927 60.9818 47.7798 61.1413 47.6558C60.9669 47.6516 60.7883 47.5916 60.6179 47.6434C60.0481 47.8423 59.4851 48.0575 58.9058 48.2795C58.2351 48.5588 57.5208 48.7795 56.8937 49.1174C56.3907 49.3844 56.0907 49.8164 55.4623 50.0589C54.8011 50.315 54.1372 50.6106 53.5033 50.9322C53.307 51.0139 53.1816 51.2197 53.0521 51.3696C52.9552 51.5059 52.898 51.6449 52.8502 51.7608C52.8502 51.7608 53.0479 51.7744 53.1528 51.7499C54.8554 51.3673 56.0974 50.2935 57.6146 49.6041C57.9745 49.4543 58.0333 48.95 58.6439 49.0796C58.8947 49.1287 58.4788 49.513 57.8381 50.0485C57.2982 50.5037 56.7243 50.877 56.0427 51.0841C54.5159 51.5662 53.3339 52.4615 51.998 53.1713C51.8671 53.2258 51.7716 53.4575 51.7962 53.5625C51.8207 53.6674 51.9992 53.7275 52.1382 53.7847C52.2009 53.797 52.355 53.7521 52.4599 53.7276C52.6767 53.6949 52.8839 53.6854 53.091 53.6759C52.9547 53.8095 52.8483 53.9689 52.6848 54.037C52.2567 54.2537 51.7851 54.4117 51.3502 54.6119C50.5036 55.022 49.3654 55.2848 48.778 55.1647C48.3159 55.0692 47.8265 55.1386 47.2008 55.3416C45.6414 55.8374 44.5425 56.794 43.2229 57.497C41.7888 58.2477 40.619 59.3106 38.9546 59.8309C37.2343 60.3553 35.9964 61.2547 34.9384 62.3094C34.6399 62.6065 34.3876 62.9227 33.8764 63.0779C33.552 63.1746 32.9917 63.3504 32.9413 63.2754C32.7941 63.1063 33.2263 62.9456 33.4839 62.7807C33.5916 62.7167 33.6257 62.5681 33.6967 62.4618L31.1612 63.0569C30.9867 63.2831 30.8285 63.5025 30.654 63.7287C30.8707 63.6961 31.0779 63.6866 31.2946 63.6539C31.495 63.6281 31.7022 63.6186 31.9189 63.5859C31.8126 63.7454 31.7158 63.8816 31.6094 64.0411C31.2931 64.4799 30.7233 64.6788 30.1507 64.9172C28.6062 65.5411 27.7718 66.5796 26.5558 67.3931C26.4942 68.1673 25.514 68.9017 24.9318 69.624C24.4792 70.1964 24.2719 70.6666 24.528 71.0974C24.8346 71.6032 24.8876 72.0993 23.5585 72.5952C22.4501 73.575 21.0841 74.4893 20.2401 75.5509C20.1692 75.6572 20.2005 75.7785 20.2414 75.8767C20.255 75.9094 20.4459 75.9067 20.544 75.8658C21.1138 75.667 21.6891 75.389 22.2466 75.2529C22.8042 75.1167 23.3248 75.1686 23.6178 75.4113C23.7909 75.5504 23.4309 76.1609 23.0178 76.5057C22.6047 76.8505 22.1836 76.8531 21.7692 76.8721C21.3248 76.8651 20.9241 76.9168 20.5709 77.3134C20.2955 77.62 20.0869 77.9948 19.7243 78.1842C18.6364 78.7524 18.9485 78.9487 19.4201 79.2514C19.5795 79.3578 19.0423 80.0038 19.1909 80.0379C20.1218 80.2453 19.9867 80.9349 20.2442 81.4612C20.3995 81.742 20.5153 82.0201 20.9324 82.1919C21.6043 82.4688 21.8277 82.9132 20.5804 83.6053C20.44 83.683 20.3445 83.9147 20.3526 84.0265C20.3935 84.355 20.5229 84.6658 20.6128 84.9739C20.7135 85.3542 21.0897 85.4279 21.7713 85.2208C22.1285 85.1105 22.1298 85.2059 21.988 85.4185C21.8462 85.6311 21.6703 85.9923 21.8025 86.0332C22.4962 86.2242 22.1349 86.7394 22.1607 87.1701C22.1756 87.5286 21.8688 87.9443 21.9219 88.2101C21.9791 88.5318 22.5475 88.6982 22.9809 88.8632C23.5765 89.0951 23.6159 89.5586 23.7439 90.0043C23.7712 90.0697 23.459 90.3341 23.4194 90.3314C22.6752 90.2958 22.4639 90.4797 22.5428 90.9459C22.6572 91.5893 23.2432 92.0747 22.7155 92.9278C22.5805 93.1568 23.5018 93.6177 24.0961 93.5238C25.173 93.3441 25.0039 93.7217 24.7148 94.2259C24.6698 94.3023 24.5893 94.4317 24.6057 94.4249C25.1604 94.5586 25.4139 94.7986 25.5202 95.0999C25.2584 95.2088 24.9695 95.2524 24.6464 95.2142C24.2838 95.1732 23.8804 95.034 23.5492 95.1144C22.854 95.2887 23.1891 95.9553 23.1236 96.4433C23.0307 97.0962 22.773 97.7218 22.5779 98.3596C22.3515 99.1065 21.8921 99.2018 21.1383 99.1894C20.0424 99.185 19.5623 100.613 18.4323 100.758C18.2646 100.77 18.1282 101.134 18.0259 101.349C17.9877 101.442 18.0627 101.622 18.1431 101.723C18.2971 101.908 18.5355 102.25 18.6732 102.212C19.8837 101.938 21.195 101.815 21.8509 100.486C22.1455 99.9025 22.6075 99.998 23.1486 100.099C23.5016 100.163 24.1464 100.144 24.1968 99.9889C24.3565 99.4041 24.7505 99.1057 25.1853 98.9055C25.2671 99.1018 25.3815 99.2844 25.7536 99.3022C26.9395 99.3843 27.2897 99.9487 27.2568 100.653C26.3925 100.975 25.5719 101.355 24.7212 101.709C24.1978 101.927 24.0804 102.475 23.8963 102.955C23.7626 103.279 23.8185 103.505 24.1129 103.613C24.6022 103.774 25.1092 104.024 25.5794 104.001C26.066 103.971 26.4955 103.619 26.9699 103.422C27.3134 103.279 27.6951 103.043 28.025 103.098C28.5197 103.179 29.1808 103.384 29.4001 103.773C29.5555 104.053 29.2813 104.916 28.9487 105.131C28.1171 105.67 27.1478 106.016 26.2454 106.43C25.5979 106.719 25.4328 107.152 25.5499 107.986C25.6927 109.021 24.8229 109.882 25.0966 111.093C25.2763 111.939 25.4684 112.493 26.2917 112.534C26.8941 112.552 27.5116 112.467 28.11 112.429C28.7572 113.753 29.567 113.07 30.3863 112.825C31.0678 112.618 31.2629 111.98 31.661 111.507C32.1273 110.967 32.8728 111.559 33.4603 111.449C33.677 111.416 33.9211 111.219 34.0465 111.013C34.3738 110.416 34.8659 110.077 35.4644 109.808C37.8554 108.774 40.4291 108.087 42.3896 106.157C42.4741 106.083 42.5886 106.036 42.7331 106.014C42.6922 106.146 42.5954 106.282 42.4754 106.409C42.4236 106.469 42.3882 106.522 42.3691 106.569C41.4611 107.062 40.6132 107.607 39.8293 108.26C39.7966 108.273 39.7734 108.264 39.7407 108.277C39.5607 108.352 39.3821 108.522 39.2226 108.646C39.2717 108.626 39.3344 108.638 39.3903 108.634C38.8995 109.069 38.4291 109.553 38.0023 110.095C38.4084 110.655 38.8513 111.028 39.3324 111.307C38.021 112.122 36.8199 113.064 35.8259 114.226C35.7346 114.283 35.6664 114.35 35.5914 114.401C35.2043 114.715 34.9343 115.173 34.5702 115.498C34.1381 115.889 33.3627 115.041 32.9604 115.918C32.6767 116.574 32.0512 115.855 31.6123 116C31.2619 116.126 30.9184 116.27 30.5817 116.429C30.4835 116.47 30.4631 116.651 30.399 116.774C30.0089 117.589 29.7484 118.484 29.0394 119.087C28.854 119.241 29.0584 119.501 29.4074 119.509C29.74 119.524 30.1871 119.261 30.2892 119.737C30.3532 120.075 30.0314 120.823 29.9455 120.801C28.9423 120.605 28.5276 122.006 27.8802 121.834C26.4831 121.475 26.2812 122.327 26.3832 123.264C26.4812 124.144 26.203 124.49 25.5582 124.74C25.2147 124.883 24.8412 125 24.5249 125.208C24.3913 125.302 24.3394 125.593 24.3162 125.814C24.3039 125.876 24.5002 126.025 24.6256 126.049C25.2526 126.172 25.8686 126.223 26.4861 126.369C27.6814 126.658 29.0623 126.333 29.922 127.798C30.0365 127.981 30.6049 127.917 30.9634 127.902C31.3287 127.903 31.829 127.676 32.0157 127.848C32.3823 128.175 32.663 128.711 32.7882 129.196C32.8972 129.688 32.7894 130.213 32.777 130.736C33.539 130.63 34.1467 131.26 34.8528 131.388C35.7401 131.537 36.5077 130.891 37.4508 131.266C37.9537 131.46 38.435 131.048 38.2702 130.33C38.1095 129.667 38.404 129.314 38.9112 129.103C39.9581 128.667 40.2474 127.242 41.4347 126.958C41.5001 126.931 41.5166 126.464 41.428 126.251C41.3395 126.038 41.1024 125.792 40.9075 125.738C40.4154 125.617 39.9056 125.637 39.4136 125.516C38.8916 125.368 38.5373 124.979 38.2798 124.452C38.0223 123.926 38.0252 123.196 38.3946 123.023C39.0912 122.713 39.7714 122.411 40.4885 122.151C41.1823 121.881 41.6157 122.276 41.6482 123.184C41.6956 124.45 41.6888 124.434 42.9373 124.759C43.3039 124.856 43.6815 125.025 44.0263 125.207C44.5033 125.431 44.8209 125.548 45.234 124.973C45.928 124.013 47.14 123.374 48.1799 123.612C49.7446 123.959 50.8395 122.716 52.212 122.97C53.789 123.254 54.817 122.173 56.1352 121.835C56.4992 121.741 56.8318 121.526 57.1958 121.432C57.5502 121.361 57.9959 121.233 58.2876 121.381C59.5742 122.073 60.7573 121.965 61.9161 121.29C63.7234 121.804 65.1343 121.275 66.2387 119.778C66.3355 119.642 66.9175 119.841 67.2419 119.975C67.7516 120.185 67.6411 120.519 67.3289 120.783C66.7468 121.275 66.3894 122.307 65.3018 121.723C65.2255 121.678 64.9965 121.773 64.9747 121.859C64.6746 122.752 64.098 122.935 63.2543 122.614C63.1153 122.557 62.863 122.873 62.6844 123.043C62.6517 123.057 62.7103 123.244 62.7607 123.319C64.0634 124.926 64.505 124.972 65.837 123.746C67.0845 122.593 68.4927 121.872 70.8754 121.648C71.5065 121.596 71.5845 120.585 72.3708 121.045C72.8519 121.324 72.8821 120.659 73.1289 120.422C73.4015 120.155 73.6946 119.937 74.1349 120.118C74.8232 120.388 75.3807 120.252 75.723 119.553C76.023 118.89 76.6542 118.608 77.2389 118.538C78.6743 118.343 80.3167 118.83 81.1036 116.986C81.1704 116.824 81.8097 116.884 82.1695 116.964C83.0282 117.183 83.902 116.838 84.247 116.33C85.211 114.911 86.6914 114.64 88.0587 114.052C90.3611 113.035 92.6867 112.028 95.0096 111.061C95.713 110.768 96.3129 110.365 96.7478 109.704C97.83 110.136 98.4108 109.549 98.839 108.641C100.479 108.477 101.045 106.61 102.499 106.138C103.345 105.863 104.104 105.336 104.937 105.123C105.996 104.855 106.288 103.62 107.25 103.258C107.83 103.036 108.342 102.746 108.769 102.203C109.587 101.172 110.74 100.576 112.042 100.706C113.021 100.797 113.647 100.595 114.347 99.8805C115.22 98.9797 115.964 97.6331 117.592 97.992C117.74 98.0261 117.993 97.7099 118.102 97.511C118.593 96.6155 119.314 96.1809 120.316 96.5124C121.03 96.7524 121.785 96.6299 122.041 96.1393C122.67 94.9754 123.718 94.6348 124.742 94.1894C125.651 93.7916 126.458 93.3787 127.204 92.5883C128.028 91.708 129.234 91.148 130.609 91.3624C131.678 91.5316 132.59 91.0943 133.223 90.2166C133.539 89.7778 133.944 89.5516 134.368 89.2791C134.916 88.9357 135.637 89.8833 136.053 89.0383C136.44 88.2628 137.228 88.1266 137.908 87.8242C139.988 86.9196 142.096 86.0804 144.206 85.2018C151.665 82.0957 159.111 78.9569 166.541 75.825C167.228 75.5389 168.093 75.3128 168.451 74.7418C168.959 73.935 170.284 74.7654 170.378 73.5169C171.189 73.1599 171.994 72.7866 172.788 72.4365C174.646 71.6436 176.511 70.8671 178.362 70.0579C178.935 69.8195 179.67 69.6479 179.973 69.1764C180.587 68.2101 181.528 67.9336 182.444 67.5522C183.131 67.2661 184.027 67.0659 184.417 66.4813C185.223 65.282 186.426 64.9919 187.565 64.4987C188.775 63.9947 190.002 63.4838 191.206 62.9634C192.484 62.8533 193.817 62.8741 195.239 63.1075L193.857 62.8768C193.546 62.5455 194.342 62.0604 194.952 61.6339C194.826 61.6094 194.694 61.5685 194.569 61.5439C197.121 60.4813 199.666 59.4024 202.211 58.3234C203.241 57.8943 204.172 57.4106 205.042 56.5493C205.879 55.7017 207.268 55.488 208.43 55.0044C210.917 55.4466 212.703 53.7432 214.803 53.0227C215.617 51.4744 217.231 51.3398 218.561 50.709C219.588 50.224 220.844 49.9694 221.551 49.1763C221.722 48.9896 221.885 48.8261 222.054 48.6789C223.529 48.487 225.573 48.0963 228.999 47.1498C234.557 43.8566 241.101 39.7498 248.26 37.3061C250.85 36.3812 253.665 36.6872 253.478 37.4368C256.452 36.0063 260.817 34.2272 263.999 33.0175C276.431 24.9811 260.305 28.8934 255.144 30.6969L255.191 30.8114ZM240.252 15.6302C240.204 15.5156 240.549 15.468 240.628 15.4735C240.599 15.543 240.417 15.6574 240.587 15.6057C240.539 15.7215 240.222 15.8346 240.095 15.945C239.814 15.8699 240.58 15.5893 240.258 15.6465L240.252 15.6302ZM237.836 16.3288C238.016 16.2539 238.212 16.1722 238.385 16.0809C238.319 16.2431 238.203 16.4257 238.001 16.5865C237.674 16.7227 237.844 16.4406 237.836 16.3288ZM236.806 16.758C236.736 16.9597 237.097 16.6749 237.385 16.5359C237.618 16.4965 237.334 16.6913 237.554 16.6191C237.674 16.7227 237.03 16.8371 237.144 16.9243C236.919 17.0756 236.913 16.9243 236.717 17.006C236.518 17.1273 236.875 17.017 236.713 17.1805C236.624 17.1982 236.529 17.1995 236.405 17.2704C236.45 17.1941 236.439 17.1218 236.395 17.0632C236.083 17.3276 236.349 17.2745 235.791 17.4106C235.744 17.2961 236.045 17.1899 236.283 17.0714C236.188 17.0727 236.076 17.0808 235.955 17.1122C236.106 16.8764 236.428 17.0496 236.806 16.758ZM235.348 17.2688C235.531 17.1543 235.6 17.183 235.738 17.1448C235.759 17.1939 235.595 17.262 235.487 17.3261C235.321 17.4337 235.609 17.5251 235.205 17.6163C235.185 17.5672 235.148 17.525 235.118 17.4991C235.314 17.4173 235.406 17.3601 235.339 17.2919L235.348 17.2688ZM236.281 14.8073C236.625 14.8946 236.866 14.5062 237.246 14.6358C236.73 14.8701 236.541 15.0636 236.236 15.114C236.235 15.0186 236.441 14.9137 236.288 14.8237L236.281 14.8073ZM240.791 -1.00593C240.388 -0.914705 241.246 -1.15713 240.853 -1.08907C240.963 -1.19264 241.331 -1.23072 241.514 -1.34517C241.534 -1.29609 241.371 -1.22798 241.256 -1.1803C241.158 -1.13943 241.248 -1.06172 241.133 -1.01404C241.109 -0.88864 241.095 -1.15172 240.768 -1.01549L240.791 -1.00593ZM241.433 -0.754978C241.433 -0.754978 241.5 -0.686817 241.582 -0.720872C241.136 -0.362489 241.41 -0.994883 241.864 -1.01113C241.937 -0.926608 241.55 -0.84219 241.433 -0.754978ZM242.398 -0.926507C242.284 -0.878827 242.361 -0.738405 242.485 -0.809254C242.094 -0.550366 242.311 -0.813388 241.988 -0.851627C242.146 -0.840682 242.43 -1.03554 242.588 -1.0246C242.615 -0.959165 242.428 -0.900599 242.408 -0.949675L242.398 -0.926507ZM242.506 -1.68162C242.497 -1.88881 242.882 -1.83828 243.208 -2.06993C243.374 -1.94722 242.618 -1.68977 242.506 -1.68162ZM242.707 -1.93782C242.254 -1.82615 242.247 -1.84252 241.84 -1.80717C241.778 -1.9544 242.205 -2.03608 242.328 -1.97199C242.628 -2.40401 243.364 -2.48017 243.83 -2.78948C244.01 -2.63405 244.18 -2.91616 244.487 -2.87111C244.195 -2.55768 243.036 -2.34394 242.713 -1.92147L242.707 -1.93782ZM244.758 -3.00326C244.71 -3.11777 244.781 -3.22408 245.02 -3.34261C245.122 -3.32759 245.215 -3.2894 245.246 -3.16809C245.04 -3.06318 244.886 -3.01823 244.758 -3.00326ZM250.615 -7.05429C250.885 -7.0515 250.69 -6.87435 250.793 -6.76392C250.368 -6.58682 250.498 -6.73672 250.041 -6.45059C249.8 -6.52289 250.331 -6.62908 250.241 -6.70679C250.187 -6.83766 249.67 -6.37297 249.703 -6.61696C250.089 -6.79679 250.352 -6.81037 250.622 -7.03794L250.615 -7.05429ZM257.743 -11.0014C257.758 -10.8733 257.464 -10.7507 257.272 -10.6131C257.108 -10.7753 257.524 -10.9292 257.743 -11.0014ZM254.134 -9.57514C253.903 -9.34483 253.675 -9.38442 253.395 -9.2291C253.367 -9.29453 253.331 -9.33679 253.287 -9.39541C253.656 -9.56844 253.913 -9.59836 254.134 -9.57514ZM249.519 -6.36756C249.384 -6.36896 249.162 -6.25724 248.939 -6.14552C248.878 -6.29275 249.475 -6.65654 249.519 -6.36756ZM248.333 -6.91034C248.502 -6.82716 247.805 -6.5179 247.841 -6.57105C247.658 -6.68695 248.167 -6.8027 248.333 -6.91034ZM246.62 -6.59996C246.566 -6.40506 245.999 -6.2457 245.769 -6.24576C245.627 -6.49387 246.438 -6.62044 246.62 -6.59996ZM247.775 -4.24022C247.613 -4.07669 247.088 -3.95414 246.928 -4.0605C247.261 -4.04542 247.549 -4.41474 247.775 -4.24022ZM247.837 -1.92436C247.672 -1.7213 247.784 -1.72946 247.941 -1.58357C247.457 -1.36287 247.281 -1.4624 247.14 -1.15438C246.721 -1.05634 246.062 -1.30049 246.719 -1.61248C246.717 -1.34259 247.521 -1.94624 247.837 -1.92436ZM247.12 -2.1249C247.217 -2.03082 246.695 -1.9478 246.92 -1.86869C246.792 -1.85373 246.638 -1.80878 246.432 -1.70387C246.169 -1.92066 246.89 -2.12495 247.113 -2.14126L247.12 -2.1249ZM246.145 -3.63812C246.169 -3.53316 245.7 -3.41469 245.541 -3.29069C245.443 -3.48018 245.963 -3.65861 246.145 -3.63812ZM242.913 -3.65525C243.348 -3.85551 243.766 -4.04896 244.201 -4.24923C244.303 -4.00386 244.524 -4.21099 244.838 -4.37994C245.11 -4.41667 244.298 -4.15516 244.772 -4.12234C244.429 -3.9793 244.253 -4.07884 243.976 -3.86763C243.956 -3.9167 243.935 -3.96578 243.905 -3.99168C243.601 -3.84591 243.478 -3.67964 243.084 -3.61158C243.003 -3.57752 243.046 -3.51891 243.044 -3.47938C242.759 -3.37994 243.068 -3.60477 242.936 -3.6457L242.913 -3.65525ZM242.384 -3.35821C242.44 -3.59265 242.588 -3.32818 242.712 -3.39903C242.701 -3.24092 242.309 -3.07744 242.061 -2.93574C241.783 -3.0503 242.775 -3.38674 242.384 -3.35821ZM240.076 -2.49321C240.235 -2.38685 240.092 -2.26966 240.061 -2.16062C239.766 -2.03801 239.536 -2.03807 239.452 -2.19484C239.664 -2.28339 239.886 -2.39511 240.092 -2.50002L240.076 -2.49321ZM239.255 -2.11311C239.115 -1.80509 239.623 -2.15118 239.65 -1.85539C238.987 -1.79012 238.158 -1.5218 237.506 -1.28886C237.938 -1.67996 238.842 -1.76835 239.239 -2.1063L239.255 -2.11311ZM187.559 0.870829C187.83 0.738675 188.131 0.632427 188.426 0.509821C188.426 0.509821 188.419 0.493463 188.412 0.477104L188.491 0.482576C188.491 0.482576 188.442 0.503006 188.41 0.516631C188.43 0.565706 188.418 0.6284 188.405 0.691101C188.336 0.892817 188.071 1.04133 187.705 1.17483C187.623 1.20888 187.432 1.21157 187.435 1.17204C187.433 1.07662 187.461 0.9117 187.543 0.877645L187.559 0.870829ZM180.263 4.36947C179.874 4.58884 179.47 4.81502 179.388 4.84907C178.605 5.1365 178.147 5.32722 177.807 5.20037C177.737 5.17173 177.703 5.08994 177.732 5.02043C177.779 4.90458 177.931 4.66881 177.97 4.67154C178.299 4.63073 178.592 4.64306 178.92 4.60225C179.361 4.55328 179.922 4.01227 180.256 4.35312L180.263 4.36947ZM176.902 4.27192C176.902 4.27192 177.153 4.09068 177.303 3.98985C177.303 3.98985 177.289 3.95714 177.322 3.94351C177.338 3.9367 177.371 3.92308 177.387 3.91627C177.412 3.79087 177.403 3.6791 177.521 3.59189C177.697 3.46107 177.917 3.4843 177.821 3.62058C177.766 3.72007 177.56 3.82498 177.387 3.91627C177.387 3.91627 177.401 3.94898 177.368 3.9626C177.352 3.96941 177.319 3.98304 177.303 3.98985C177.283 4.03619 177.287 4.09208 177.268 4.13842C177.256 4.20112 177.227 4.27062 177.169 4.31423C177.016 4.45459 176.805 4.4082 176.902 4.27192ZM37.3854 125.209C37.3854 125.209 37.1605 125.13 37.1033 125.038C37.0897 125.006 37.0761 124.973 37.0884 124.91C37.0843 124.854 37.1034 124.808 37.1157 124.745C37.1157 124.745 37.1974 124.711 37.2302 124.697C37.2629 124.684 37.2956 124.67 37.3419 124.689C37.5832 124.762 37.609 124.962 37.4018 125.202L37.3854 125.209ZM230.476 20.6412C230.574 20.6004 230.594 20.6494 230.641 20.6685C230.543 20.7094 230.454 20.7271 230.34 20.7748C228.032 22.1005 227.52 23.1772 227.678 24.1096C227.206 24.2676 226.622 24.5687 226.112 24.589C225.786 24.8207 225.407 25.2472 225.102 25.0672C224.807 25.1898 224.927 25.2934 224.728 25.4147C224.525 25.4801 224.603 25.1598 224.39 25.2483C224.445 25.3792 224.139 25.4296 224.03 25.6285C223.766 25.5467 223.298 25.7606 223.076 25.642C223.31 25.4675 223.95 25.0669 223.522 25.0532C223.39 25.473 222.802 25.8136 222.258 25.9825C221.995 25.9961 221.722 26.0328 221.466 26.0628C221.403 26.0505 221.341 26.0382 221.288 26.0027C221.173 26.0504 221.187 26.0831 221.21 26.0927C221.042 26.1049 220.865 26.1403 220.697 26.1525C220.667 26.1266 220.637 26.1007 220.601 26.0585C220.731 26.004 220.846 25.9563 220.97 25.8854C220.813 25.5092 220.378 25.7095 219.888 25.9138C219.942 25.8143 220.013 25.708 220.038 25.5826C220.4 25.3932 220.918 25.2543 221.475 25.0227C221.537 24.8047 221.387 24.9055 221.157 24.9054C221.345 24.7119 221.64 24.5893 221.964 24.4926C221.972 24.6044 221.973 24.6998 221.982 24.8116C221.858 24.8824 221.74 24.9696 221.593 25.031C221.62 25.0964 221.699 25.1019 221.762 25.1141C221.828 25.0869 221.893 25.0596 221.942 25.0392C221.859 24.9779 221.894 24.9247 221.969 24.8743C221.984 25.0024 221.999 25.1305 222.014 25.2587C221.942 25.2696 221.886 25.2736 221.84 25.2545C221.464 25.4112 221.359 25.6661 221.04 25.6837C220.966 25.8296 221.232 25.7765 220.988 25.974C221.384 25.8665 221.658 25.6948 221.27 25.6838C221.483 25.5952 221.744 25.4862 222.022 25.3705C222.043 25.4195 222.375 25.4346 222.564 25.4714C222.555 25.3597 222.554 25.2643 222.546 25.1525C222.873 25.0163 223.17 24.8541 223.352 24.6442C223.178 24.7355 223.118 24.6837 222.962 24.7682C222.982 24.8173 222.767 24.9453 222.545 25.0571C222.536 24.9453 222.528 24.8335 222.53 24.6986C222.53 24.6986 222.5 24.6727 222.476 24.6631C222.542 24.6359 222.591 24.6154 222.624 24.6018C222.575 24.6223 222.509 24.6495 222.505 24.5936C222.62 24.5459 222.767 24.4846 222.756 24.4124C222.635 24.4437 222.511 24.5146 222.38 24.5691C222.297 24.5077 222.237 24.4559 222.153 24.3945C222.576 24.257 222.999 24.1194 223.195 23.8073C222.95 23.9095 222.674 23.9857 222.287 24.0702C223.942 23.3427 224.778 23.0907 226.389 22.3046C226.416 22.37 226.276 22.4477 226.287 22.5199C226.666 22.3237 226.679 22.1261 227.091 21.9163C227.128 21.9585 227.146 22.0471 227.26 21.9994C227.233 21.934 227.443 21.885 227.538 21.8837C227.526 21.716 227.207 21.964 227.159 21.8495C227.627 21.4052 228.422 21.2855 229.092 20.7758C229.327 20.8318 229.755 20.6152 230.057 20.6043C230.051 20.3576 229.794 20.3875 230.113 20.1395C230.408 20.2473 230.941 20.2365 230.436 20.6385L230.476 20.6412ZM234.614 13.5243C234.61 13.6987 234.304 13.6537 234.225 13.6482C234.263 13.5555 234.485 13.4438 234.635 13.343C234.655 13.3921 234.534 13.4234 234.475 13.467C234.496 13.5161 234.542 13.5352 234.624 13.5011L234.614 13.5243ZM234.276 13.3579C233.831 13.2556 233.273 13.8525 233.045 14.0432C232.851 13.99 232.578 14.0268 232.338 14.0499C232.356 14.1385 232.549 14.0963 232.409 14.1739C232.114 14.2965 231.959 14.2461 231.752 14.2556C231.806 14.3864 231.748 14.43 231.607 14.5077C231.152 14.1982 230.702 14.04 230.254 13.9771C230.645 13.7183 231.301 13.5412 231.599 13.4745C231.861 13.3655 231.428 13.4308 231.529 13.3504C232.631 13.1408 233.681 13.126 234.475 13.2366C234.44 13.2898 234.375 13.317 234.283 13.3742L234.276 13.3579ZM221.209 18.0697C221.209 18.0697 221.356 18.0084 221.422 17.9811C221.347 18.0315 221.272 18.082 221.197 18.1324C221.197 18.1324 221.216 18.086 221.209 18.0697ZM222.958 19.3187C223.212 19.1933 223.32 19.1293 223.461 19.0516C223.474 19.0843 223.488 19.117 223.501 19.1498C223.3 19.3106 223.068 19.4455 222.967 19.2955L222.958 19.3187ZM230.959 20.0947C230.713 20.1969 230.727 19.9993 230.481 20.1014C230.567 19.8929 231.179 19.8876 230.959 20.0947ZM232.143 19.16C232.27 19.2799 232.064 19.3849 232.247 19.5008C231.946 19.607 231.482 19.8768 231.339 19.7636C232.138 19.4694 231.817 19.3916 232.143 19.16ZM234.326 15.5061C234.061 15.5592 234.028 15.8032 233.859 15.72C233.825 15.6382 234.149 15.5415 234.059 15.4638C233.772 15.6027 233.71 15.4555 233.361 15.6776C233.349 15.9707 232.023 16.6573 232.08 16.288C231.735 16.566 231.483 16.6518 231.937 16.6355C231.543 16.7036 230.988 17.0306 231.173 17.107C231.106 17.0388 230.856 17.22 230.808 17.1055C230.816 16.9869 231.364 16.8739 231.182 16.758C231.094 16.6408 230.571 17.0891 230.484 16.9719C230.729 16.8697 230.458 16.7715 230.766 16.6816C230.631 16.9105 230.991 16.7607 231.192 16.5999C231.063 16.7498 231.261 16.7635 231.558 16.6014C231.218 16.5699 231.296 16.48 231.573 16.2688C231.023 16.5167 230.447 16.6992 229.963 16.9199C230.143 16.845 229.709 17.1407 229.799 17.2184C229.13 17.5931 228.852 17.4785 228.189 17.8696C228.316 17.7592 228.214 17.7442 228.128 17.7224C228.193 17.6951 228.243 17.6747 228.292 17.6542C228.525 17.6148 228.913 17.3954 228.93 17.3886C228.815 17.4363 228.844 17.3668 228.889 17.2904C228.68 17.4349 228.5 17.5098 228.349 17.5152C228.387 17.4225 228.405 17.2808 228.409 17.1063C228.442 17.0927 228.474 17.0791 228.507 17.0654C228.541 17.1472 228.617 17.1922 228.713 17.1909C228.879 17.0833 229.388 16.9675 229.205 16.8516C228.592 17.2222 228.777 16.8379 228.395 16.8432C228.382 16.8105 228.391 16.7874 228.394 16.7478C228.374 16.6987 228.409 16.6456 228.421 16.5829C228.667 16.4807 228.896 16.3854 229.122 16.3295C229.017 16.354 228.948 16.3254 229.095 16.2641C229.357 16.1551 229.566 16.1061 229.731 16.1334C229.591 15.9807 229.69 16.0352 229.952 15.9263C229.918 15.8445 229.797 15.8758 229.746 15.8008C230.09 15.6578 230.357 15.4697 230.603 15.3676C230.767 15.3949 230.939 15.4385 231.131 15.5312C231.185 15.5667 231.24 15.5626 231.294 15.5981C230.736 15.9646 229.859 16.1184 229.494 16.3473C229.738 16.3801 230.143 16.1539 230.361 16.2167C229.681 16.5191 229.34 16.3923 228.915 16.5694C229.099 16.7807 229.538 16.6363 229.889 16.6051C230.178 16.7919 229.145 17.0302 229.074 17.3668C229.544 17.1134 230.017 16.8204 230.296 16.4743C230.744 16.5371 231.067 16.345 231.644 16.1625C231.323 16.0847 231.392 16.2483 231.388 15.962C231.138 16.0083 231.115 16.2291 231.011 16.1187C231.029 15.9769 231.428 15.8298 231.446 15.6881C231.686 15.665 231.782 15.6636 232.026 15.466C232.026 15.466 232.019 15.4497 231.996 15.4401C232.045 15.4197 232.064 15.3733 232.106 15.3365C232.106 15.3365 232.096 15.3597 232.12 15.3693C232.257 15.3311 232.35 15.3693 232.407 15.4607C232.162 15.5628 231.923 15.6814 231.668 15.8067C231.91 15.879 231.721 16.0725 232.141 15.9745C232.11 15.8532 231.92 15.9513 231.915 15.8C232.21 15.6773 232.713 15.4103 232.762 15.6202C232.651 15.4934 233.852 15.2429 233.315 15.1978C233.495 15.1229 233.626 15.0684 233.742 15.1161C233.885 15.2293 233.798 15.3424 233.845 15.4569C234.074 15.3616 234.265 15.3589 234.482 15.3262C234.335 15.3875 234.504 15.4707 234.38 15.5415L234.326 15.5061ZM234.198 15.2907C234.277 15.0658 234.591 15.1272 234.46 14.9514C234.855 14.7484 234.955 14.8029 235.199 14.6053C235.259 14.8875 234.656 15.1 234.215 15.2839L234.198 15.2907ZM234.917 15.1259C235.5 14.9598 234.88 15.314 234.604 15.3903C234.636 15.2813 234.723 15.1681 234.866 15.0509C235.086 14.9788 235.364 14.863 235.564 14.8371C235.538 15.0975 235.223 14.9406 234.924 15.1423L234.917 15.1259ZM233.948 14.5505C233.948 14.5505 234.159 14.5969 234.019 14.6746C233.745 14.6159 233.544 14.8721 233.168 15.0287C233.085 14.9674 233.021 14.8597 232.789 14.9946C233.041 15.1391 232.441 15.3121 232.358 15.2507C232.372 15.2835 232.392 15.3325 232.317 15.383C232.132 15.3066 232.668 15.0259 232.369 15.0926C232.396 15.1581 232.233 15.2262 232.141 15.2834C232.222 15.1539 232.253 15.0449 232.236 14.9563C232.436 14.9304 232.29 15.0872 232.64 14.9605C232.514 14.8405 232.973 14.5148 233.21 14.5312C233.195 14.6335 232.953 14.6961 233.206 14.7057C233.353 14.4141 233.84 14.3842 233.702 14.192C234.182 14.1457 234.215 13.9017 234.77 13.8051C234.82 13.6497 234.627 13.6919 234.76 13.5979C234.925 13.6252 235.022 13.4889 235.139 13.4017C235.443 13.4863 235.682 13.5981 235.783 13.7481C235.337 14.1065 234.481 14.5397 233.945 14.59L233.948 14.5505ZM238.778 6.28191C238.655 5.98746 239.204 5.96986 239.701 5.68646C239.647 5.88137 238.982 6.08159 238.778 6.28191ZM241.568 4.87042C241.568 4.87042 241.737 4.72324 241.901 4.65513C241.961 4.70694 241.853 4.77099 241.897 4.82961C241.917 4.87869 242.025 4.81464 242.107 4.78058C242.056 4.93596 241.522 5.08168 241.568 4.87042C240.899 5.2451 240.341 5.38128 239.581 5.58284C240.119 5.26265 240.727 4.97109 241.326 4.7027C241.313 4.7654 241.101 4.85396 241.128 4.91939C241.308 4.84446 241.537 4.7491 241.568 4.87042ZM241.377 0.861606C241.54 0.79349 241.72 0.718558 241.9 0.643633L241.366 1.01971C241.366 1.01971 241.286 0.918834 241.377 0.861606ZM241.291 1.07013L240.89 1.35219C240.785 1.3767 240.69 1.37805 240.627 1.36577C240.791 1.29765 241.067 1.08644 241.291 1.07013ZM237.118 2.02057C237.349 2.02062 237.526 1.98522 237.278 1.89656C237.695 1.83805 238.374 1.4402 238.687 1.50161C238.751 1.60931 238.618 1.70333 238.754 1.80014C238.341 2.1449 237.454 2.45683 236.862 2.74158C236.929 2.80974 237.005 2.85474 237.15 2.83297C237.076 2.74844 237.137 2.6653 237.35 2.57676C237.489 2.63404 237.496 2.6504 237.478 2.79215C237.7 2.68043 237.922 2.56871 237.98 2.66005C237.849 2.71454 237.734 2.76223 237.61 2.83308C237.706 3.0621 238.485 2.8142 238.687 2.65341C238.533 2.69835 238.414 2.69015 238.322 2.65196C238.446 2.5811 238.435 2.50886 238.543 2.44482C238.926 2.30452 238.751 2.53074 238.958 2.52125C239.067 2.32227 239.097 2.57854 239.189 2.5213C239.227 2.42863 239.242 2.3264 239.471 2.23104C239.485 2.26376 239.498 2.29647 239.528 2.32238L238.968 2.72844C238.968 2.72844 238.913 2.59757 238.721 2.7352C238.735 2.76791 238.735 2.76792 238.765 2.79382C237.676 3.03619 236.92 3.15869 236.394 3.18582C236.537 3.06864 236.681 2.95144 236.886 2.84654C236.497 2.97048 236.01 3.00036 235.59 3.09841C235.484 3.0275 235.433 2.95251 235.442 2.83393C235.474 2.82031 235.491 2.8135 235.533 2.7767C235.56 2.84214 235.446 2.88983 235.529 2.95118C236.268 2.60514 236.034 3.10532 236.816 2.72249C236.929 2.57939 236.93 2.44444 237.139 2.30001C236.903 2.37901 237.001 2.10779 237.092 2.05056L237.118 2.02057ZM237.273 -0.327955C237.273 -0.327955 237.246 -0.393389 237.232 -0.426104C237.323 -0.483333 237.431 -0.547367 237.595 -0.615483C237.652 -0.524142 237.453 -0.402875 237.289 -0.334765L237.273 -0.327955ZM237.384 -1.12259C237.043 -1.01908 237.186 -1.13626 236.804 -0.900543C236.647 -1.04643 237.394 -1.2807 237.384 -1.12259ZM231.029 -0.434372C231.089 -0.612918 231.552 -0.652331 231.567 -0.524197C231.241 -0.292555 231.274 -0.536548 231.029 -0.434372ZM220.368 7.15269C220.357 7.3108 220.323 7.45937 220.233 7.61202C220.192 7.51387 220.111 7.41298 220.071 7.31483C220.087 7.30801 220.09 7.26849 220.122 7.25486C220.204 7.22081 220.286 7.18674 220.368 7.15269ZM150.035 23.463C150.035 23.463 150.003 23.4767 149.986 23.4835C150.068 23.6798 149.933 23.9088 149.606 24.045C148.968 24.3106 148.303 24.5108 147.647 24.6879C147.549 24.7288 147.432 24.5856 147.342 24.5079C147.325 24.5147 147.293 24.5283 147.276 24.5351C147.276 24.5351 147.263 24.5024 147.239 24.4929C147.079 24.5215 146.892 24.58 146.799 24.5418C146.66 24.4846 146.79 24.3347 146.98 24.332C147.099 24.3402 147.173 24.4247 147.239 24.4929C147.272 24.4793 147.288 24.4724 147.321 24.4588C147.321 24.4588 147.321 24.4588 147.328 24.4752C147.494 24.3675 147.684 24.2694 147.771 24.1563C148.228 23.6398 148.765 23.4546 149.421 23.5079C149.579 23.5188 149.789 23.4698 149.973 23.4508C149.989 23.444 150.022 23.4303 150.038 23.4235C150.057 23.3772 150.053 23.3213 150.072 23.275C150.084 23.2123 150.113 23.1428 150.172 23.0991C150.348 22.9683 150.545 22.982 150.455 23.1347C150.384 23.2409 150.211 23.3322 150.054 23.4167C150.054 23.4167 150.061 23.4331 150.052 23.4562L150.035 23.463ZM145.205 21.4051C145.205 21.4051 145.018 21.4636 144.939 21.4582C144.748 21.4608 144.525 21.4771 144.369 21.4267C144.244 21.4021 144.196 21.2876 144.113 21.2262C144.296 21.1118 144.485 21.0137 144.652 20.906C145.035 20.7657 145.295 20.7917 145.328 21.0084C145.352 21.1134 145.262 21.266 145.205 21.4051ZM186.955 12.4663C186.696 12.5357 186.437 12.6052 186.185 12.691C186.197 12.6283 186.193 12.5724 186.189 12.5165C186.376 12.458 186.583 12.4485 186.785 12.518C186.831 12.5371 186.896 12.5099 186.962 12.4826L186.955 12.4663ZM174.264 6.00375C175.086 5.48871 175.762 5.82145 176.561 5.52721C176.642 5.49316 176.786 5.60632 176.885 5.66087C176.702 5.77533 176.51 5.91296 176.327 6.02741C176.037 6.2059 175.905 6.39534 175.891 6.59298C175.891 6.59298 175.907 6.58617 175.924 6.57936C175.924 6.57936 175.937 6.61207 175.944 6.62843C176.222 6.51264 176.517 6.39002 176.809 6.30695C176.89 6.27289 177.072 6.29338 177.072 6.29338C177.033 6.38606 176.999 6.53462 176.908 6.59185C176.643 6.74037 176.335 6.83026 176.041 6.95286C176.041 6.95286 176.048 6.96922 176.055 6.98558C176.055 6.98558 176.055 6.98558 176.038 6.99239C176.247 7.07831 176.455 7.16424 176.631 7.26378C176.754 7.32787 176.962 7.41379 176.915 7.52964C176.654 8.19476 176.133 8.83392 175.19 9.38028C175.075 9.42796 174.848 9.38838 174.664 9.40742C174.99 8.94542 175.306 8.50659 174.544 8.38236C173.947 8.28545 173.343 8.40253 172.64 8.69543C172.542 8.7363 172.433 8.70492 172.3 8.664C172.261 8.66127 172.214 8.64217 172.175 8.63944C172.217 8.60264 172.236 8.5563 172.279 8.51951C172.321 8.48272 172.347 8.45273 172.396 8.4323C173.59 7.93506 174.814 7.46372 176.022 6.9992C176.022 6.9992 175.999 6.98965 175.976 6.98011C175.992 6.9733 176.008 6.96649 176.025 6.95968C175.977 6.84517 175.952 6.7402 175.921 6.61888C175.905 6.62569 175.872 6.63932 175.856 6.64613C175.849 6.62977 175.875 6.59979 175.868 6.58343C175 6.84903 174.538 6.52315 173.882 6.46983C173.803 6.46436 173.743 6.41255 173.673 6.38391C173.856 6.26946 174.048 6.13183 174.231 6.01737L174.264 6.00375ZM169.418 7.73372C169.418 7.73372 169.508 7.58108 169.599 7.52385C169.648 7.50341 169.779 7.44892 169.825 7.46801C170.206 7.59759 170.508 7.81712 170.95 7.86356C171.596 7.94005 171.562 7.6279 171.597 7.34439C171.612 7.24216 171.788 7.11135 171.908 6.98461C172.031 7.0487 172.209 7.10872 172.25 7.20687C172.504 7.90754 172.419 7.98113 170.877 8.56553C170.046 8.87338 169.848 8.85971 169.668 8.47392C169.573 8.2449 169.471 7.99953 169.418 7.73372ZM164.465 10.3142C164.465 10.3142 164.593 10.2992 164.665 10.2884C164.679 10.3211 164.716 10.3633 164.706 10.3865C164.609 10.5228 164.455 10.5677 164.303 10.4777C164.303 10.4777 164.406 10.3578 164.481 10.3074L164.465 10.3142ZM164.141 12.8099C164.23 12.5618 164.385 12.382 164.769 12.2416C165.21 12.0577 165.749 11.7375 166.107 11.7226C167.357 11.682 168.57 11.1385 169.799 10.723C169.962 10.6549 170.22 10.7204 170.31 10.7981C170.466 10.944 170.417 11.1948 170.078 11.3937C169.657 11.6267 169.261 11.8297 169.358 12.1541C170.159 12.0507 170.912 12.1981 171.733 11.3573C172.067 11.0071 172.988 10.7769 173.672 10.5304C173.803 10.4759 174.019 10.5781 174.115 10.6722C174.319 10.8372 174.125 11.1098 173.798 11.246C171.33 12.235 168.826 13.1818 166.352 14.1544C165.845 14.3656 165.529 14.3437 165.324 14.0833C165.207 13.9401 164.884 13.9019 164.633 13.8528C164.376 13.7873 163.889 13.8171 163.874 13.689C163.835 13.4559 164.096 13.1166 164.188 12.829L164.141 12.8099ZM141.69 19.9703C142.133 19.8818 142.557 19.8396 143.007 19.7675C143.578 19.664 144.138 19.4883 144.594 19.1068C144.753 18.9828 144.983 18.7525 145.079 18.7511C146.836 18.7297 148.416 17.5919 150.094 17.1044C151.205 16.7761 152.237 16.2121 153.443 16.1128C154.219 16.0394 155.225 15.5053 156.122 15.1702C157.9 14.5068 159.635 13.6499 161.472 13.499C162.031 13.4582 162.71 12.83 163.257 13.0823C162.754 13.5797 161.998 13.7022 161.36 13.9679C160.804 14.1994 160.241 14.4147 159.678 14.6299C158.772 14.9882 157.875 15.3233 156.968 15.6816C156.298 15.9608 155.676 16.2197 155.143 16.6912C154.737 17.0523 154.047 17.3779 153.592 17.2987C152.932 17.1895 152.64 17.7333 152.197 17.8218C151.649 17.9348 151.097 17.992 150.606 17.9659C150.027 17.9576 149.498 18.2547 148.941 18.3908C148.206 18.5624 147.857 19.2452 147.202 19.2873C146.374 19.3253 145.623 19.734 144.85 19.9983C144.175 20.2217 143.481 20.4914 142.81 20.7707C142.205 21.0227 141.673 21.1289 141.221 21.0102C140.986 20.9543 140.797 20.822 140.696 20.672C140.589 20.5057 141.165 20.0928 141.664 20.0003L141.69 19.9703ZM128.978 21.6166C129.26 21.3264 129.319 20.822 130.093 20.8836C130.551 20.9232 130.615 20.5702 130.884 20.4775C131.031 20.4162 131.357 20.415 131.354 20.4545C131.333 20.6358 131.34 20.8825 131.155 21.0365C130.943 21.2204 130.547 21.328 130.285 21.437C129.895 21.561 129.568 21.6972 129.237 21.7775C128.929 21.8674 128.799 21.787 128.961 21.6234L128.978 21.6166ZM125.948 24.0681C125.948 24.0681 126.112 24 126.161 23.9795C126.352 23.9768 126.337 24.0791 126.112 24.2303C126.079 24.2439 125.954 24.2194 125.901 24.1839C125.894 24.1676 125.939 24.0912 125.965 24.0613L125.948 24.0681ZM123.635 23.63C123.635 23.63 123.889 23.6396 123.886 23.6791C123.907 23.7282 123.744 23.8917 123.705 23.889C123.369 23.9134 123.352 23.8248 123.635 23.63ZM121.961 25.5556C121.961 25.5556 122.198 25.572 122.212 25.6047C122.232 25.6538 122.07 25.8173 122.031 25.8146C121.695 25.8391 121.678 25.7505 121.961 25.5556ZM121.105 25.0674C121.105 25.0674 121.319 25.0743 121.333 25.107C121.346 25.1397 121.229 25.2269 121.161 25.2937C121.089 25.3046 121.017 25.3155 120.937 25.31C120.999 25.2269 121.037 25.1342 121.098 25.0511L121.105 25.0674ZM118.066 27.542C118.066 27.542 118.231 27.5693 118.294 27.5816C118.242 27.6416 118.174 27.7084 118.122 27.7683C118.05 27.7792 117.994 27.7833 117.922 27.7942C117.967 27.7179 118.028 27.6347 118.073 27.5584L118.066 27.542ZM103.947 31.8474C104.151 31.6471 104.472 31.4945 104.771 31.2928C105.1 31.252 105.396 31.2248 105.708 31.1908C105.548 31.3148 105.396 31.4552 105.22 31.586C105.044 31.7168 104.861 31.8313 104.679 31.9457C104.587 32.0029 104.503 32.0765 104.418 32.1501C104.233 32.3041 104.023 32.3531 103.913 32.2263C103.839 32.1418 103.836 31.951 103.947 31.8474ZM101.956 35.1333C101.956 35.1333 102.008 35.0733 102.057 35.0529C102.106 35.0325 102.201 35.0311 102.257 35.027C102.271 35.0598 102.284 35.0925 102.282 35.132C102.144 35.1701 101.999 35.1919 101.862 35.23C101.894 35.2164 101.914 35.1701 101.956 35.1333ZM96.1551 33.0955C96.1551 33.0955 96.32 33.1228 96.3991 33.1283C96.3309 33.1951 96.2791 33.255 96.2109 33.3218C96.1387 33.3327 96.0664 33.3436 95.9942 33.3545C96.0556 33.2713 96.1006 33.195 96.1551 33.0955ZM93.8973 35.648C93.8973 35.648 94.0458 35.6821 94.1549 35.7135C94.0867 35.7803 93.9899 35.9166 93.9504 35.9138C93.615 35.9383 93.5973 35.8497 93.8973 35.648ZM88.9337 38.3866C88.9337 38.3866 88.9364 38.3471 88.9528 38.3403C88.9528 38.3403 89.0019 38.3198 89.0346 38.3062C88.9747 38.024 89.2746 37.8224 89.7231 37.6548C89.8049 37.6208 89.9235 37.629 90.0093 37.6508C90.1743 37.6781 90.1497 37.8035 89.9016 37.9452C89.6371 38.0937 89.329 38.1836 89.0346 38.3062C89.0346 38.3062 89.0414 38.3226 89.0482 38.3389C89.0155 38.3526 88.9828 38.3662 88.9501 38.3798C88.9187 38.4888 88.8873 38.5979 88.8328 38.6974C88.8328 38.6974 88.6201 38.7859 88.6133 38.7696C88.4825 38.5937 88.7047 38.482 88.9501 38.3798L88.9337 38.3866ZM79.6862 40.2409C79.6862 40.2409 79.693 40.2573 79.6999 40.2737C80.331 39.9917 81.1271 39.7369 81.5007 39.3895C82.0365 38.8784 82.6866 39.2412 83.1951 38.6647C83.5319 38.2749 84.4098 37.9862 84.9047 37.6074C85.4841 37.155 86.1493 36.9547 86.8104 36.6986C87.1703 36.5488 87.4566 36.5448 87.6106 36.7302C87.7714 36.9319 87.5641 37.1718 87.2438 37.3244C86.7012 37.5887 86.1314 37.7876 85.582 38.0355C85.4839 38.0764 85.4402 38.2481 85.4415 38.3435C85.4484 38.3599 85.6296 38.3804 85.7346 38.3559C86.0686 38.236 86.4121 38.093 86.7529 37.9894C86.851 37.9486 86.9601 37.98 87.0555 37.9786C87.2204 38.0059 87.1863 38.1545 86.8919 38.2771C86.0385 38.6708 85.1742 38.9923 84.4258 39.5919C83.9963 39.9434 83.0216 40.3685 82.5282 40.382C81.574 40.3954 80.1931 40.9512 79.7394 40.2764C79.723 40.2832 79.6903 40.2968 79.6576 40.3105L79.7094 40.2505L79.6862 40.2409ZM21.6407 84.3539C21.6407 84.3539 21.4594 84.3334 21.3803 84.3279C21.4485 84.2612 21.5099 84.178 21.5944 84.1045C21.6802 84.1263 21.7661 84.1481 21.8683 84.1631C21.8002 84.2299 21.7293 84.3362 21.6475 84.3703L21.6407 84.3539ZM23.6141 91.306C23.5596 91.1751 23.6169 91.0361 23.7369 90.9094C23.8569 90.7826 24.0464 90.6845 24.3054 90.6151C24.3681 90.6274 24.4703 90.6424 24.5562 90.6642C24.642 90.686 24.7047 90.6983 24.6884 90.7051C24.462 90.9913 24.2057 91.2516 23.9562 91.5283C23.8499 91.4574 23.6618 91.4205 23.6373 91.3155L23.6141 91.306ZM24.1496 98.0315C24.1987 97.7807 24.241 97.5135 24.3433 97.2982C24.4933 96.967 24.6597 96.629 24.9065 96.3919C25.1273 96.1848 25.3972 96.1876 25.6003 96.3525C25.513 96.696 25.4325 97.0558 25.4433 97.3584C25.4623 97.5425 25.3533 97.7414 25.251 97.9568C25.1201 98.0113 24.9892 98.0658 24.8584 98.1203C24.6144 98.0875 24.3772 98.0711 24.1332 98.0383L24.1496 98.0315ZM35.9233 105.932C35.8415 105.966 35.6984 105.853 35.5825 105.805C35.6303 105.689 35.6739 105.517 35.7557 105.483C35.8375 105.449 35.9806 105.562 36.1128 105.603C36.0324 105.733 36.0051 105.898 35.9233 105.932ZM44.2767 115.16C44.0559 115.137 43.8119 115.104 43.5911 115.081C43.7465 114.901 43.8679 114.64 44.0642 114.558C44.2605 114.476 44.5222 114.598 44.7662 114.63C44.6107 114.81 44.439 114.997 44.2835 115.177L44.2767 115.16ZM45.6606 113.644C45.6606 113.644 45.5147 113.57 45.4384 113.525C45.5557 113.438 45.6797 113.367 45.7806 113.287C45.8147 113.368 45.7015 113.511 45.6374 113.634L45.6606 113.644ZM68.3658 116.819C68.3658 116.819 68.1641 116.75 68.0741 116.672C68.0373 116.63 68.0619 116.504 68.0674 116.425C68.1492 116.391 68.2337 116.318 68.2964 116.33C68.5308 116.386 68.5567 116.586 68.3494 116.826L68.3658 116.819ZM71.135 119.045C71.0791 119.279 70.8951 119.298 70.6716 119.084C70.6648 119.068 70.7343 118.866 70.8025 118.799C70.8448 118.762 70.9606 118.81 71.0397 118.816C71.0737 118.897 71.1473 118.982 71.135 119.045ZM67.2 101.066C66.9873 101.155 66.7897 101.141 66.6043 101.065C66.8933 101.021 67.1918 100.954 67.4767 100.855C67.399 100.945 67.3077 101.002 67.2 101.066ZM75.6143 118.139C75.4821 118.098 75.3335 118.064 75.2013 118.023C75.2327 117.914 75.2872 117.815 75.3186 117.706C75.4181 117.76 75.5176 117.815 75.6171 117.869L75.6075 118.123L75.6143 118.139ZM75.0525 101.347C75.0525 101.347 74.8372 101.245 74.7377 101.191C74.7922 101.091 74.8127 100.91 74.885 100.899C74.9668 100.865 75.0935 100.985 75.2093 101.033C75.1548 101.132 75.1071 101.248 75.0362 101.354L75.0525 101.347ZM82.831 97.9934C82.76 98.0997 82.7259 98.2483 82.6346 98.3055C81.8493 98.8628 81.0438 98.9103 80.2015 98.2245C80.1184 98.1632 80.0476 98.0391 80.053 97.9601C80.0776 97.8347 80.1703 97.6425 80.2494 97.648C80.8055 97.6467 81.3521 97.6687 81.9055 97.707C82.0159 97.8337 82.1263 97.9605 82.2107 98.1173C82.3634 97.977 82.5066 97.8598 82.6429 97.7262C82.6824 97.7289 82.7383 97.7249 82.7779 97.7276C82.7779 97.7276 82.8064 97.8885 82.8241 97.9771L82.831 97.9934ZM84.858 97.2837C84.858 97.2837 84.6563 97.2142 84.5663 97.1365C84.5295 97.0942 84.5773 96.9783 84.5923 96.8761C84.6577 96.8489 84.7491 96.7916 84.8118 96.8039C85.053 96.8762 85.0721 97.0602 84.8512 97.2674L84.858 97.2837ZM227.589 26.4309C227.589 26.4309 227.427 26.364 227.334 26.3258C227.266 26.1623 227.201 25.9591 227.132 25.7956C227.492 25.6457 227.839 25.4631 228.177 25.3992C228.177 25.3992 228.209 25.3855 228.203 25.3692C228.237 25.451 228.303 25.5191 228.337 25.6009C228.055 25.8912 227.806 26.1678 227.579 26.454L227.589 26.4309Z" fill="#D2D2D2"/>
<path d="M210.889 3.19118C212.051 2.70756 212.87 1.77133 215.203 1.01128C215.102 1.09168 215.027 1.1421 214.859 1.15432C214.907 1.26883 215.068 1.24025 215.299 1.10536C215.279 1.05628 215.265 1.02357 215.301 0.970416C215.383 0.936359 215.464 0.902299 215.553 0.8846C215.951 0.411709 215.978 0.0164305 215.777 -0.283491C216.343 -0.538252 217.175 -0.750699 217.619 -1.06955C217.026 -0.880226 216.39 -0.654103 215.736 -0.381642C215.241 -0.924258 213.886 -1.08951 212.608 -0.749041C211.974 0.493927 208.099 2.7598 210.906 3.18437L210.889 3.19118Z" fill="#D2D2D2"/>
<path d="M23.0278 69.9757C23.2255 69.759 23.34 69.481 22.8384 69.6131C22.3695 69.7316 22.0151 69.8024 21.8311 69.591C21.2967 69.9671 20.7623 70.3432 20.2674 70.722C20.2183 70.7425 20.3232 70.9483 20.4486 70.9729C21.5009 71.1489 22.2275 70.8656 23.0346 69.9921L23.0278 69.9757Z" fill="#D2D2D2"/>
<path d="M191.258 -0.248796C191.267 -0.732683 191.946 -0.900181 192.47 -1.11815C192.28 -1.48077 191.659 -1.45229 191.071 -1.34202C190.694 -1.28077 190.2 -1.0369 189.897 -0.795706C189.536 -0.51091 189.776 -0.303666 189.839 -0.0610259C190.312 -0.123616 190.791 -0.169847 191.264 -0.232438L191.258 -0.248796Z" fill="#D2D2D2"/>
<path d="M19.5225 84.5244C19.2487 84.4658 18.9749 84.4071 18.6725 84.4179C18.4981 84.4138 18.1903 84.5036 18.0404 84.6044C17.5908 84.9067 18.0117 84.9041 18.1452 85.0403C18.3481 85.2052 18.4761 85.4205 18.63 85.6057C18.8425 85.5173 19.0523 85.4683 19.258 85.3634C19.9242 85.0285 20.0373 84.6553 19.5129 84.5475L19.5225 84.5244Z" fill="#D2D2D2"/>
<path d="M18.6496 85.6011C18.6496 85.6011 18.6176 85.6144 18.6016 85.6211C18.6016 85.6211 18.6082 85.6371 18.6149 85.6531C18.6309 85.6465 18.647 85.6398 18.679 85.6265C18.679 85.6265 18.6723 85.6104 18.6657 85.5944L18.6496 85.6011Z" fill="#D2D2D2"/>
<path d="M166.336 7.78904C166.565 7.69374 166.778 7.60525 167.013 7.5263C166.911 7.28109 166.832 7.04541 166.747 6.79338C166.55 6.87507 166.324 6.93087 166.128 7.01255C165.448 7.3148 165.448 7.31479 165.971 7.55738C166.094 7.62143 166.2 7.69229 166.323 7.75634L166.336 7.78904Z" fill="#D2D2D2"/>
<path d="M17.6553 76.5302C17.7521 76.394 17.7371 76.266 17.7712 76.1175C17.6295 76.0998 17.4116 76.0371 17.3789 76.0507C17.2031 76.1814 17.0574 76.338 16.9606 76.4742C16.8802 76.6036 16.8066 76.7493 16.808 76.8447C16.8229 76.9727 17.4904 76.7331 17.658 76.4907L17.6553 76.5302Z" fill="#D2D2D2"/>
<path d="M19.4582 87.2766C19.4582 87.2766 19.638 87.2018 19.6475 87.1786C19.6776 86.9743 19.7307 86.7795 19.6953 86.6024C19.6423 86.3368 19.4203 86.2182 18.9162 86.3897C19.0156 86.6745 19.0986 86.966 19.2143 87.2439C19.2348 87.2929 19.3696 87.2943 19.465 87.293L19.4582 87.2766Z" fill="#D2D2D2"/>
<path d="M18.9134 86.3725L18.9 86.3405C18.868 86.3538 18.868 86.3538 18.8359 86.3672L18.8493 86.3992C18.8493 86.3992 18.8813 86.3859 18.9134 86.3725Z" fill="#D2D2D2"/>
<path d="M20.1981 89.3137C20.1408 89.4526 20.0182 89.6188 20.0522 89.7005C20.1679 89.9784 20.5657 89.9663 21.0452 89.6898C21.1297 89.6163 21.1978 89.5496 21.2823 89.476C21.0249 89.4106 20.7674 89.3451 20.5005 89.3029C20.4147 89.281 20.2934 89.3123 20.1913 89.2973L20.1981 89.3137Z" fill="#D2D2D2"/>
<path d="M147.734 12.6741C147.459 12.5201 147.182 12.7311 146.918 12.8796C146.836 12.9136 146.798 13.0062 146.73 13.0729C147.002 13.0362 147.291 12.9927 147.573 12.9328C147.622 12.9124 147.705 12.7435 147.75 12.6673L147.734 12.6741Z" fill="#D2D2D2"/>
<path d="M115.901 25.4299C115.768 25.5239 115.559 25.6683 115.553 25.7474C115.574 26.0268 115.78 26.1523 116.3 25.9738C116.232 25.8103 116.213 25.6262 116.129 25.4695C116.108 25.4204 115.911 25.4067 115.885 25.4367L115.901 25.4299Z" fill="#D2D2D2"/>
<path d="M116.32 25.9668C116.32 25.9668 116.327 25.9822 116.333 25.9976C116.349 25.9912 116.364 25.9848 116.379 25.9784C116.379 25.9784 116.379 25.9784 116.373 25.963C116.358 25.9694 116.342 25.9758 116.327 25.9822L116.32 25.9668Z" fill="#D2D2D2"/>
<path d="M167.199 6.04681C167.199 6.04681 166.929 6.04402 166.784 6.0658C166.752 6.07942 166.648 6.19934 166.652 6.25523C166.681 6.41608 166.733 6.58648 166.784 6.75687C166.997 6.66832 167.193 6.58659 167.406 6.49804C167.338 6.33445 167.309 6.1736 167.215 6.04L167.199 6.04681Z" fill="#D2D2D2"/>
<path d="M207.998 2.93652C208.067 2.7348 208.16 2.54263 208.181 2.36135C208.167 2.32863 207.878 2.37218 207.727 2.37759C207.365 2.66239 207.597 2.75786 207.747 2.88739C207.8 2.92284 207.912 2.91469 207.982 2.94333L207.998 2.93652Z" fill="#D2D2D2"/>
<path d="M18.83 86.35C18.751 86.1144 18.6721 85.8787 18.6095 85.6362C18.3152 85.7587 18.104 85.9426 18.1067 86.1333C18.1271 86.4125 18.3586 86.5079 18.83 86.35Z" fill="#D2D2D2"/>
<path d="M80.5644 36.3451C80.5644 36.3451 80.3928 36.3015 80.307 36.2797C80.2389 36.3464 80.1217 36.4336 80.1258 36.4894C80.1394 36.5221 80.2742 36.5235 80.3601 36.5453C80.4282 36.4786 80.4963 36.4119 80.5576 36.3288L80.5644 36.3451Z" fill="#D2D2D2"/>
<path d="M83.2205 35.2587C83.2205 35.2587 83.0721 35.2246 83.0094 35.2123C82.9576 35.2722 82.8895 35.3389 82.8377 35.3989C82.9331 35.3975 83.0516 35.4057 83.1469 35.4044C83.166 35.3581 83.2014 35.305 83.2205 35.2587Z" fill="#D2D2D2"/>
<path d="M77.9749 37.7471C77.9749 37.7471 77.7801 37.6939 77.6983 37.728C77.633 37.7552 77.5621 37.8614 77.494 37.9282C77.573 37.9336 77.6751 37.9486 77.7705 37.9473C77.8223 37.8874 77.9067 37.8138 77.9749 37.7471Z" fill="#D2D2D2"/>
<path d="M85.543 35.2128C85.543 35.2128 85.3809 35.1461 85.2992 35.1801C85.2338 35.2073 85.1793 35.3067 85.1112 35.3735C85.2229 35.3653 85.3414 35.3735 85.4694 35.3586C85.4885 35.3123 85.5239 35.2591 85.543 35.2128Z" fill="#D2D2D2"/>
<path d="M87.4292 34.4059C87.4292 34.4059 87.2984 34.4603 87.233 34.4876C87.214 34.5339 87.1458 34.6006 87.1758 34.6265C87.2289 34.6619 87.3542 34.6865 87.3869 34.6729C87.6117 34.5217 87.6104 34.4264 87.436 34.4222L87.4292 34.4059Z" fill="#D2D2D2"/>
<path d="M84.2018 36.0966C84.2018 36.0966 84.0506 36.102 84.0016 36.1224C83.9198 36.1565 83.8749 36.2328 83.8231 36.2927L84.2427 36.1947C84.2427 36.1947 84.2154 36.1293 84.2018 36.0966Z" fill="#D2D2D2"/>
<path d="M125.199 20.966C125.199 20.966 125.005 21.0082 124.996 21.0313C124.948 21.1471 124.917 21.2561 124.878 21.3487C125.124 21.2466 125.323 21.1254 125.199 20.966Z" fill="#D2D2D2"/>
<path d="M124.878 21.3654C124.878 21.3654 124.798 21.3988 124.766 21.4121C124.766 21.4121 124.795 21.4375 124.818 21.4468C124.818 21.4468 124.85 21.4335 124.866 21.4268C124.866 21.4268 124.884 21.3815 124.878 21.3654Z" fill="#D2D2D2"/>
<path d="M140.917 14.9356C140.917 14.9356 140.768 14.9016 140.683 14.8797C140.614 14.9465 140.488 15.0568 140.518 15.0827C140.674 15.2285 140.845 15.1767 140.917 14.9356Z" fill="#D2D2D2"/>
<path d="M133.838 18.3079C133.838 18.3079 133.774 18.3344 133.742 18.3477C133.742 18.3477 133.749 18.3636 133.755 18.3794C133.771 18.3728 133.803 18.3596 133.819 18.353C133.819 18.353 133.828 18.3305 133.838 18.3079Z" fill="#D2D2D2"/>
<path d="M134.169 17.8996C134.169 17.8996 133.959 17.9486 133.95 17.9718C133.902 18.0876 133.87 18.1965 133.823 18.3123C134.084 18.2034 134.29 18.0985 134.153 17.9064L134.169 17.8996Z" fill="#D2D2D2"/>
<path d="M137.476 16.8507C137.544 16.784 137.678 16.6901 137.674 16.6342C137.653 16.5852 137.519 16.5838 137.416 16.5688C137.348 16.6355 137.238 16.739 137.235 16.7785C137.256 16.8275 137.39 16.8289 137.476 16.8507Z" fill="#D2D2D2"/>
<path d="M145.783 13.5244C145.783 13.5244 145.749 13.4426 145.736 13.4099C145.664 13.4208 145.578 13.399 145.535 13.4358C145.454 13.4698 145.341 13.6128 145.364 13.6223C145.516 13.7123 145.677 13.6837 145.79 13.5407L145.783 13.5244Z" fill="#D2D2D2"/>
<path d="M150.84 12.3415C150.84 12.3415 150.661 12.2815 150.573 12.2992C150.507 12.3265 150.387 12.4531 150.385 12.4926C150.398 12.5253 150.533 12.5267 150.619 12.5485C150.687 12.4818 150.771 12.4083 150.84 12.3415Z" fill="#D2D2D2"/>
<path d="M152.861 11.5756C152.861 11.5756 152.69 11.532 152.604 11.5102C152.536 11.5769 152.419 11.6641 152.423 11.7199C152.436 11.7526 152.571 11.754 152.657 11.7758C152.725 11.7091 152.793 11.6423 152.838 11.5661L152.861 11.5756Z" fill="#D2D2D2"/>
<path d="M160.296 9.23042C160.296 9.23042 160.409 9.08742 160.477 9.02069C160.414 9.00842 160.275 8.95117 160.242 8.96479C159.936 9.14997 159.96 9.25486 160.296 9.23042Z" fill="#D2D2D2"/>
<path d="M152.894 14.0575C152.894 14.0575 152.729 14.0303 152.666 14.018C152.598 14.0847 152.546 14.1446 152.478 14.2114C152.597 14.2196 152.709 14.2114 152.827 14.2196C152.846 14.1733 152.882 14.1202 152.901 14.0739L152.894 14.0575Z" fill="#D2D2D2"/>
<path d="M21.8855 69.4924C21.8855 69.4924 21.8215 69.5191 21.7734 69.5391C21.7801 69.5551 21.8028 69.5644 21.8255 69.5738C21.8255 69.5738 21.8575 69.5604 21.8735 69.5538C21.8735 69.5538 21.8922 69.5084 21.8855 69.4924Z" fill="#D2D2D2"/>
<path d="M22.2045 69.109C22.2045 69.109 21.9947 69.158 21.992 69.1975C21.9375 69.2969 21.9061 69.4059 21.8748 69.5149C22.1037 69.4196 22.3257 69.3079 22.195 69.1322L22.2045 69.109Z" fill="#D2D2D2"/>
<path d="M181.469 8.14626C181.469 8.14626 181.524 8.04683 181.543 8.00052C181.464 7.99505 181.387 7.95009 181.315 7.96097C181.243 7.97185 181.188 8.07127 181.137 8.13119C181.248 8.12305 181.367 8.13125 181.462 8.12991L181.469 8.14626Z" fill="#D2D2D2"/>
<path d="M198.511 3.89176C198.511 3.89176 198.301 3.94076 198.292 3.96391C198.237 4.06334 198.222 4.16549 198.191 4.27446C198.42 4.17916 198.649 4.08386 198.518 3.90811L198.511 3.89176Z" fill="#D2D2D2"/>
<path d="M198.183 4.25917C198.183 4.25917 198.119 4.28584 198.087 4.29917C198.087 4.29917 198.068 4.34452 198.075 4.36052C198.107 4.34719 198.139 4.33386 198.171 4.32053L198.189 4.27518L198.183 4.25917Z" fill="#D2D2D2"/>
<path d="M17.9866 74.6481C17.9866 74.6481 17.8381 74.614 17.7523 74.5922C17.6842 74.6589 17.5738 74.7624 17.5711 74.8019C17.5847 74.8346 17.7264 74.8524 17.8054 74.8578C17.8735 74.7911 17.9185 74.7148 17.9866 74.6481Z" fill="#D2D2D2"/>
<path d="M197.952 4.66242C197.952 4.66242 198.021 4.46084 198.053 4.35187C197.824 4.44717 197.618 4.55201 197.732 4.73457C197.732 4.73457 197.942 4.68557 197.945 4.64607L197.952 4.66242Z" fill="#D2D2D2"/>
<path d="M200.777 3.48527C200.777 3.48527 200.628 3.45118 200.549 3.44572C200.488 3.5288 200.443 3.60507 200.382 3.68815C200.454 3.67726 200.51 3.67319 200.589 3.67866C200.64 3.61873 200.709 3.55201 200.76 3.49208L200.777 3.48527Z" fill="#D2D2D2"/>
<path d="M201.726 4.32027C201.726 4.32027 201.575 4.32568 201.526 4.3461C201.444 4.38014 201.399 4.45641 201.331 4.52315C201.468 4.48504 201.613 4.46327 201.75 4.42516C201.737 4.39247 201.723 4.35977 201.71 4.32708L201.726 4.32027Z" fill="#D2D2D2"/>
<path d="M18.5466 77.1008C18.5466 77.1008 18.6665 76.9741 18.7346 76.9074C18.6488 76.8856 18.533 76.8379 18.5003 76.8515C18.1938 77.0367 18.2115 77.1252 18.5466 77.1008Z" fill="#D2D2D2"/>
<path d="M166.868 12.402C166.868 12.402 166.694 12.3979 166.652 12.4347C166.57 12.4687 166.525 12.545 166.457 12.6117C166.601 12.5899 166.739 12.5518 166.883 12.5301C166.87 12.4974 166.873 12.4579 166.875 12.4184L166.868 12.402Z" fill="#D2D2D2"/>
<path d="M168.05 12.3337C168.05 12.3337 168.033 12.4754 168.065 12.4618C168.216 12.4564 168.377 12.4278 168.538 12.3992C168.484 12.2685 168.419 12.1608 168.05 12.3337Z" fill="#D2D2D2"/>
<path d="M169.136 12.4952C169.218 12.4612 169.213 12.3099 169.237 12.1845C169.041 12.2662 168.845 12.3479 168.648 12.4297C168.719 12.5537 168.797 12.6942 169.143 12.5116L169.136 12.4952Z" fill="#D2D2D2"/>
<path d="M168.637 12.4133C168.637 12.4133 168.624 12.3815 168.617 12.3656C168.586 12.3789 168.57 12.3855 168.531 12.3828C168.538 12.3987 168.551 12.4305 168.558 12.4464C168.59 12.4332 168.605 12.4265 168.637 12.4133Z" fill="#D2D2D2"/>
<path d="M169.242 12.1457C169.242 12.1457 169.249 12.1616 169.24 12.1841C169.272 12.1709 169.287 12.1643 169.319 12.151L169.242 12.1457Z" fill="#D2D2D2"/>
<path d="M82.9636 39.7197C82.9636 39.7197 83.0835 39.593 83.1517 39.5263C83.0726 39.5208 82.9868 39.499 82.9242 39.4867C82.8629 39.5698 82.8179 39.6461 82.7566 39.7292C82.7566 39.7292 82.901 39.7074 82.98 39.7129L82.9636 39.7197Z" fill="#D2D2D2"/>
<path d="M224.986 24.5182C225.117 24.4637 225.169 24.4038 225.237 24.3371C225.307 24.3657 225.392 24.3875 225.504 24.3794C225.47 24.2976 225.394 24.2527 225.298 24.254C225.142 24.3384 224.811 24.4187 224.986 24.5182Z" fill="#D2D2D2"/>
<path d="M223.583 24.7391C223.354 24.8344 223.227 24.9447 223.173 25.0441C223.347 25.0482 223.67 24.8563 223.583 24.7391Z" fill="#D2D2D2"/>
<path d="M193.485 9.42326C193.13 9.49401 192.543 9.83442 192.286 9.76898C192.352 9.8371 192.245 9.9011 192.295 9.97603C192.701 9.61515 193.377 9.71747 193.485 9.42326Z" fill="#D2D2D2"/>
<path d="M217.388 4.88088C218.252 4.55961 218.158 4.6563 218.726 4.3622C218.338 4.35121 218.143 4.52825 217.748 4.50091C218.247 4.63861 217.196 4.558 217.388 4.88088Z" fill="#D2D2D2"/>
<path d="M216.786 5.05377C216.786 5.05377 216.718 4.8903 216.58 4.9284C216.504 5.11364 215.83 5.10667 215.879 5.31646C215.845 5.23472 215.684 5.26329 215.669 5.36545C215.783 5.3178 215.885 5.33281 215.936 5.40774C216.148 5.31925 216.163 5.21709 216.464 5.11091C216.584 5.21446 216.651 5.05238 216.843 5.14505C216.723 5.0415 217.26 5.08657 217.176 4.9299C216.996 5.00478 217.016 4.82362 216.81 4.92846C216.824 4.96115 216.844 5.0102 216.77 5.06058L216.786 5.05377Z" fill="#D2D2D2"/>
<path d="M224.762 24.8994C224.598 24.8721 224.423 24.868 224.265 24.8571C224.385 24.9606 223.949 25.0654 223.983 25.1471C224.408 24.9701 224.671 24.9566 225.009 24.8926C225.096 24.7796 224.934 24.7128 224.783 24.7182C224.803 24.7673 224.87 24.8354 224.779 24.8926L224.762 24.8994Z" fill="#D2D2D2"/>
</g>
</g>
<defs>
<clipPath id="clip0_6963_55481">
<rect width="359.961" height="83.0707" fill="white" transform="translate(0.835938 69.3691) rotate(-22.6065)"/>
</clipPath>
</defs>
</svg>
