<svg width="375" height="576" viewBox="0 0 375 576" fill="none" xmlns="http://www.w3.org/2000/svg">
<g clip-path="url(#clip0_715_11728)">
<mask id="mask0_715_11728" style="mask-type:alpha" maskUnits="userSpaceOnUse" x="-1000" y="0" width="2376" height="576">
<circle cx="23" cy="3" r="3" fill="white"/>
<circle cx="53" cy="3" r="3" fill="white"/>
<circle cx="23" cy="63" r="3" fill="white"/>
<circle cx="53" cy="63" r="3" fill="white"/>
<circle cx="23" cy="33" r="3" fill="white"/>
<circle cx="53" cy="33" r="3" fill="white"/>
<circle cx="23" cy="93" r="3" fill="white"/>
<circle cx="53" cy="93" r="3" fill="white"/>
<circle cx="83" cy="3" r="3" fill="white"/>
<circle cx="143" cy="3" r="3" fill="white"/>
<circle cx="113" cy="3" r="3" fill="white"/>
<circle cx="173" cy="3" r="3" fill="white"/>
<circle cx="83" cy="63" r="3" fill="white"/>
<circle cx="143" cy="63" r="3" fill="white"/>
<circle cx="113" cy="63" r="3" fill="white"/>
<circle cx="173" cy="63" r="3" fill="white"/>
<circle cx="83" cy="33" r="3" fill="white"/>
<circle cx="143" cy="33" r="3" fill="white"/>
<circle cx="113" cy="33" r="3" fill="white"/>
<circle cx="173" cy="33" r="3" fill="white"/>
<circle cx="83" cy="93" r="3" fill="white"/>
<circle cx="143" cy="93" r="3" fill="white"/>
<circle cx="113" cy="93" r="3" fill="white"/>
<circle cx="173" cy="93" r="3" fill="white"/>
<circle cx="203" cy="3" r="3" fill="white"/>
<circle cx="263" cy="3" r="3" fill="white"/>
<circle cx="233" cy="3" r="3" fill="white"/>
<circle cx="293" cy="3" r="3" fill="white"/>
<circle cx="203" cy="63" r="3" fill="white"/>
<circle cx="263" cy="63" r="3" fill="white"/>
<circle cx="233" cy="63" r="3" fill="white"/>
<circle cx="293" cy="63" r="3" fill="white"/>
<circle cx="203" cy="33" r="3" fill="white"/>
<circle cx="263" cy="33" r="3" fill="white"/>
<circle cx="233" cy="33" r="3" fill="white"/>
<circle cx="293" cy="33" r="3" fill="white"/>
<circle cx="203" cy="93" r="3" fill="white"/>
<circle cx="263" cy="93" r="3" fill="white"/>
<circle cx="233" cy="93" r="3" fill="white"/>
<circle cx="293" cy="93" r="3" fill="white"/>
<circle cx="323" cy="3" r="3" fill="white"/>
<circle cx="353" cy="3" r="3" fill="white"/>
<circle cx="323" cy="63" r="3" fill="white"/>
<circle cx="353" cy="63" r="3" fill="white"/>
<circle cx="323" cy="33" r="3" fill="white"/>
<circle cx="353" cy="33" r="3" fill="white"/>
<circle cx="323" cy="93" r="3" fill="white"/>
<circle cx="353" cy="93" r="3" fill="white"/>
<circle cx="23" cy="123" r="3" fill="white"/>
<circle cx="53" cy="123" r="3" fill="white"/>
<circle cx="23" cy="183" r="3" fill="white"/>
<circle cx="53" cy="183" r="3" fill="white"/>
<circle cx="23" cy="153" r="3" fill="white"/>
<circle cx="53" cy="153" r="3" fill="white"/>
<circle cx="23" cy="213" r="3" fill="white"/>
<circle cx="53" cy="213" r="3" fill="white"/>
<circle cx="83" cy="123" r="3" fill="white"/>
<circle cx="143" cy="123" r="3" fill="white"/>
<circle cx="113" cy="123" r="3" fill="white"/>
<circle cx="173" cy="123" r="3" fill="white"/>
<circle cx="83" cy="183" r="3" fill="white"/>
<circle cx="143" cy="183" r="3" fill="white"/>
<circle cx="113" cy="183" r="3" fill="white"/>
<circle cx="173" cy="183" r="3" fill="white"/>
<circle cx="83" cy="153" r="3" fill="white"/>
<circle cx="143" cy="153" r="3" fill="white"/>
<circle cx="113" cy="153" r="3" fill="white"/>
<circle cx="173" cy="153" r="3" fill="white"/>
<circle cx="83" cy="213" r="3" fill="white"/>
<circle cx="143" cy="213" r="3" fill="white"/>
<circle cx="113" cy="213" r="3" fill="white"/>
<circle cx="173" cy="213" r="3" fill="white"/>
<circle cx="203" cy="123" r="3" fill="white"/>
<circle cx="263" cy="123" r="3" fill="white"/>
<circle cx="233" cy="123" r="3" fill="white"/>
<circle cx="293" cy="123" r="3" fill="white"/>
<circle cx="203" cy="183" r="3" fill="white"/>
<circle cx="263" cy="183" r="3" fill="white"/>
<circle cx="233" cy="183" r="3" fill="white"/>
<circle cx="293" cy="183" r="3" fill="white"/>
<circle cx="203" cy="153" r="3" fill="white"/>
<circle cx="263" cy="153" r="3" fill="white"/>
<circle cx="233" cy="153" r="3" fill="white"/>
<circle cx="293" cy="153" r="3" fill="white"/>
<circle cx="203" cy="213" r="3" fill="white"/>
<circle cx="263" cy="213" r="3" fill="white"/>
<circle cx="233" cy="213" r="3" fill="white"/>
<circle cx="293" cy="213" r="3" fill="white"/>
<circle cx="323" cy="123" r="3" fill="white"/>
<circle cx="353" cy="123" r="3" fill="white"/>
<circle cx="323" cy="183" r="3" fill="white"/>
<circle cx="353" cy="183" r="3" fill="white"/>
<circle cx="323" cy="153" r="3" fill="white"/>
<circle cx="353" cy="153" r="3" fill="white"/>
<circle cx="323" cy="213" r="3" fill="white"/>
<circle cx="353" cy="213" r="3" fill="white"/>
<circle cx="23" cy="243" r="3" fill="white"/>
<circle cx="53" cy="243" r="3" fill="white"/>
<circle cx="23" cy="303" r="3" fill="white"/>
<circle cx="53" cy="303" r="3" fill="white"/>
<circle cx="23" cy="273" r="3" fill="white"/>
<circle cx="53" cy="273" r="3" fill="white"/>
<circle cx="23" cy="333" r="3" fill="white"/>
<circle cx="53" cy="333" r="3" fill="white"/>
<circle cx="83" cy="243" r="3" fill="white"/>
<circle cx="143" cy="243" r="3" fill="white"/>
<circle cx="113" cy="243" r="3" fill="white"/>
<circle cx="173" cy="243" r="3" fill="white"/>
<circle cx="83" cy="303" r="3" fill="white"/>
<circle cx="143" cy="303" r="3" fill="white"/>
<circle cx="113" cy="303" r="3" fill="white"/>
<circle cx="173" cy="303" r="3" fill="white"/>
<circle cx="83" cy="273" r="3" fill="white"/>
<circle cx="143" cy="273" r="3" fill="white"/>
<circle cx="113" cy="273" r="3" fill="white"/>
<circle cx="173" cy="273" r="3" fill="white"/>
<circle cx="83" cy="333" r="3" fill="white"/>
<circle cx="143" cy="333" r="3" fill="white"/>
<circle cx="113" cy="333" r="3" fill="white"/>
<circle cx="173" cy="333" r="3" fill="white"/>
<circle cx="203" cy="243" r="3" fill="white"/>
<circle cx="263" cy="243" r="3" fill="white"/>
<circle cx="233" cy="243" r="3" fill="white"/>
<circle cx="293" cy="243" r="3" fill="white"/>
<circle cx="203" cy="303" r="3" fill="white"/>
<circle cx="263" cy="303" r="3" fill="white"/>
<circle cx="233" cy="303" r="3" fill="white"/>
<circle cx="293" cy="303" r="3" fill="white"/>
<circle cx="203" cy="273" r="3" fill="white"/>
<circle cx="263" cy="273" r="3" fill="white"/>
<circle cx="233" cy="273" r="3" fill="white"/>
<circle cx="293" cy="273" r="3" fill="white"/>
<circle cx="203" cy="333" r="3" fill="white"/>
<circle cx="263" cy="333" r="3" fill="white"/>
<circle cx="233" cy="333" r="3" fill="white"/>
<circle cx="293" cy="333" r="3" fill="white"/>
<circle cx="323" cy="243" r="3" fill="white"/>
<circle cx="353" cy="243" r="3" fill="white"/>
<circle cx="323" cy="303" r="3" fill="white"/>
<circle cx="353" cy="303" r="3" fill="white"/>
<circle cx="323" cy="273" r="3" fill="white"/>
<circle cx="353" cy="273" r="3" fill="white"/>
<circle cx="323" cy="333" r="3" fill="white"/>
<circle cx="353" cy="333" r="3" fill="white"/>
<circle cx="23" cy="363" r="3" fill="white"/>
<circle cx="53" cy="363" r="3" fill="white"/>
<circle cx="23" cy="423" r="3" fill="white"/>
<circle cx="53" cy="423" r="3" fill="white"/>
<circle cx="23" cy="393" r="3" fill="white"/>
<circle cx="53" cy="393" r="3" fill="white"/>
<circle cx="23" cy="453" r="3" fill="white"/>
<circle cx="53" cy="453" r="3" fill="white"/>
<circle cx="83" cy="363" r="3" fill="white"/>
<circle cx="143" cy="363" r="3" fill="white"/>
<circle cx="113" cy="363" r="3" fill="white"/>
<circle cx="173" cy="363" r="3" fill="white"/>
<circle cx="83" cy="423" r="3" fill="white"/>
<circle cx="143" cy="423" r="3" fill="white"/>
<circle cx="113" cy="423" r="3" fill="white"/>
<circle cx="173" cy="423" r="3" fill="white"/>
<circle cx="83" cy="393" r="3" fill="white"/>
<circle cx="143" cy="393" r="3" fill="white"/>
<circle cx="113" cy="393" r="3" fill="white"/>
<circle cx="173" cy="393" r="3" fill="white"/>
<circle cx="83" cy="453" r="3" fill="white"/>
<circle cx="143" cy="453" r="3" fill="white"/>
<circle cx="113" cy="453" r="3" fill="white"/>
<circle cx="173" cy="453" r="3" fill="white"/>
<circle cx="203" cy="363" r="3" fill="white"/>
<circle cx="263" cy="363" r="3" fill="white"/>
<circle cx="233" cy="363" r="3" fill="white"/>
<circle cx="293" cy="363" r="3" fill="white"/>
<circle cx="203" cy="423" r="3" fill="white"/>
<circle cx="263" cy="423" r="3" fill="white"/>
<circle cx="233" cy="423" r="3" fill="white"/>
<circle cx="293" cy="423" r="3" fill="white"/>
<circle cx="203" cy="393" r="3" fill="white"/>
<circle cx="263" cy="393" r="3" fill="white"/>
<circle cx="233" cy="393" r="3" fill="white"/>
<circle cx="293" cy="393" r="3" fill="white"/>
<circle cx="203" cy="453" r="3" fill="white"/>
<circle cx="263" cy="453" r="3" fill="white"/>
<circle cx="233" cy="453" r="3" fill="white"/>
<circle cx="293" cy="453" r="3" fill="white"/>
<circle cx="323" cy="363" r="3" fill="white"/>
<circle cx="353" cy="363" r="3" fill="white"/>
<circle cx="323" cy="423" r="3" fill="white"/>
<circle cx="353" cy="423" r="3" fill="white"/>
<circle cx="323" cy="393" r="3" fill="white"/>
<circle cx="353" cy="393" r="3" fill="white"/>
<circle cx="323" cy="453" r="3" fill="white"/>
<circle cx="353" cy="453" r="3" fill="white"/>
<circle cx="23" cy="483" r="3" fill="white"/>
<circle cx="53" cy="483" r="3" fill="white"/>
<circle cx="23" cy="543" r="3" fill="white"/>
<circle cx="53" cy="543" r="3" fill="white"/>
<circle cx="23" cy="513" r="3" fill="white"/>
<circle cx="53" cy="513" r="3" fill="white"/>
<circle cx="23" cy="573" r="3" fill="white"/>
<circle cx="53" cy="573" r="3" fill="white"/>
<circle cx="83" cy="483" r="3" fill="white"/>
<circle cx="143" cy="483" r="3" fill="white"/>
<circle cx="113" cy="483" r="3" fill="white"/>
<circle cx="173" cy="483" r="3" fill="white"/>
<circle cx="83" cy="543" r="3" fill="white"/>
<circle cx="143" cy="543" r="3" fill="white"/>
<circle cx="113" cy="543" r="3" fill="white"/>
<circle cx="173" cy="543" r="3" fill="white"/>
<circle cx="83" cy="513" r="3" fill="white"/>
<circle cx="143" cy="513" r="3" fill="white"/>
<circle cx="113" cy="513" r="3" fill="white"/>
<circle cx="173" cy="513" r="3" fill="white"/>
<circle cx="83" cy="573" r="3" fill="white"/>
<circle cx="143" cy="573" r="3" fill="white"/>
<circle cx="113" cy="573" r="3" fill="white"/>
<circle cx="173" cy="573" r="3" fill="white"/>
<circle cx="203" cy="483" r="3" fill="white"/>
<circle cx="263" cy="483" r="3" fill="white"/>
<circle cx="233" cy="483" r="3" fill="white"/>
<circle cx="293" cy="483" r="3" fill="white"/>
<circle cx="203" cy="543" r="3" fill="white"/>
<circle cx="263" cy="543" r="3" fill="white"/>
<circle cx="233" cy="543" r="3" fill="white"/>
<circle cx="293" cy="543" r="3" fill="white"/>
<circle cx="203" cy="513" r="3" fill="white"/>
<circle cx="263" cy="513" r="3" fill="white"/>
<circle cx="233" cy="513" r="3" fill="white"/>
<circle cx="293" cy="513" r="3" fill="white"/>
<circle cx="203" cy="573" r="3" fill="white"/>
<circle cx="263" cy="573" r="3" fill="white"/>
<circle cx="233" cy="573" r="3" fill="white"/>
<circle cx="293" cy="573" r="3" fill="white"/>
<circle cx="323" cy="483" r="3" fill="white"/>
<circle cx="353" cy="483" r="3" fill="white"/>
<circle cx="323" cy="543" r="3" fill="white"/>
<circle cx="353" cy="543" r="3" fill="white"/>
<circle cx="323" cy="513" r="3" fill="white"/>
<circle cx="353" cy="513" r="3" fill="white"/>
<circle cx="323" cy="573" r="3" fill="white"/>
<circle cx="353" cy="573" r="3" fill="white"/>
</mask>
<g mask="url(#mask0_715_11728)">
<rect width="1920" height="649" transform="matrix(1 0 0 -1 -772 567)" fill="url(#paint0_linear_715_11728)"/>
</g>
<mask id="mask1_715_11728" style="mask-type:alpha" maskUnits="userSpaceOnUse" x="-1000" y="0" width="2376" height="576">
<circle cx="23" cy="3" r="3" fill="white"/>
<circle cx="53" cy="3" r="3" fill="white"/>
<circle cx="23" cy="63" r="3" fill="white"/>
<circle cx="53" cy="63" r="3" fill="white"/>
<circle cx="23" cy="33" r="3" fill="white"/>
<circle cx="53" cy="33" r="3" fill="white"/>
<circle cx="23" cy="93" r="3" fill="white"/>
<circle cx="53" cy="93" r="3" fill="white"/>
<circle cx="83" cy="3" r="3" fill="white"/>
<circle cx="143" cy="3" r="3" fill="white"/>
<circle cx="113" cy="3" r="3" fill="white"/>
<circle cx="173" cy="3" r="3" fill="white"/>
<circle cx="83" cy="63" r="3" fill="white"/>
<circle cx="143" cy="63" r="3" fill="white"/>
<circle cx="113" cy="63" r="3" fill="white"/>
<circle cx="173" cy="63" r="3" fill="white"/>
<circle cx="83" cy="33" r="3" fill="white"/>
<circle cx="143" cy="33" r="3" fill="white"/>
<circle cx="113" cy="33" r="3" fill="white"/>
<circle cx="173" cy="33" r="3" fill="white"/>
<circle cx="83" cy="93" r="3" fill="white"/>
<circle cx="143" cy="93" r="3" fill="white"/>
<circle cx="113" cy="93" r="3" fill="white"/>
<circle cx="173" cy="93" r="3" fill="white"/>
<circle cx="203" cy="3" r="3" fill="white"/>
<circle cx="263" cy="3" r="3" fill="white"/>
<circle cx="233" cy="3" r="3" fill="white"/>
<circle cx="293" cy="3" r="3" fill="white"/>
<circle cx="203" cy="63" r="3" fill="white"/>
<circle cx="263" cy="63" r="3" fill="white"/>
<circle cx="233" cy="63" r="3" fill="white"/>
<circle cx="293" cy="63" r="3" fill="white"/>
<circle cx="203" cy="33" r="3" fill="white"/>
<circle cx="263" cy="33" r="3" fill="white"/>
<circle cx="233" cy="33" r="3" fill="white"/>
<circle cx="293" cy="33" r="3" fill="white"/>
<circle cx="203" cy="93" r="3" fill="white"/>
<circle cx="263" cy="93" r="3" fill="white"/>
<circle cx="233" cy="93" r="3" fill="white"/>
<circle cx="293" cy="93" r="3" fill="white"/>
<circle cx="323" cy="3" r="3" fill="white"/>
<circle cx="353" cy="3" r="3" fill="white"/>
<circle cx="323" cy="63" r="3" fill="white"/>
<circle cx="353" cy="63" r="3" fill="white"/>
<circle cx="323" cy="33" r="3" fill="white"/>
<circle cx="353" cy="33" r="3" fill="white"/>
<circle cx="323" cy="93" r="3" fill="white"/>
<circle cx="353" cy="93" r="3" fill="white"/>
<circle cx="23" cy="123" r="3" fill="white"/>
<circle cx="53" cy="123" r="3" fill="white"/>
<circle cx="23" cy="183" r="3" fill="white"/>
<circle cx="53" cy="183" r="3" fill="white"/>
<circle cx="23" cy="153" r="3" fill="white"/>
<circle cx="53" cy="153" r="3" fill="white"/>
<circle cx="23" cy="213" r="3" fill="white"/>
<circle cx="53" cy="213" r="3" fill="white"/>
<circle cx="83" cy="123" r="3" fill="white"/>
<circle cx="143" cy="123" r="3" fill="white"/>
<circle cx="113" cy="123" r="3" fill="white"/>
<circle cx="173" cy="123" r="3" fill="white"/>
<circle cx="83" cy="183" r="3" fill="white"/>
<circle cx="143" cy="183" r="3" fill="white"/>
<circle cx="113" cy="183" r="3" fill="white"/>
<circle cx="173" cy="183" r="3" fill="white"/>
<circle cx="83" cy="153" r="3" fill="white"/>
<circle cx="143" cy="153" r="3" fill="white"/>
<circle cx="113" cy="153" r="3" fill="white"/>
<circle cx="173" cy="153" r="3" fill="white"/>
<circle cx="83" cy="213" r="3" fill="white"/>
<circle cx="143" cy="213" r="3" fill="white"/>
<circle cx="113" cy="213" r="3" fill="white"/>
<circle cx="173" cy="213" r="3" fill="white"/>
<circle cx="203" cy="123" r="3" fill="white"/>
<circle cx="263" cy="123" r="3" fill="white"/>
<circle cx="233" cy="123" r="3" fill="white"/>
<circle cx="293" cy="123" r="3" fill="white"/>
<circle cx="203" cy="183" r="3" fill="white"/>
<circle cx="263" cy="183" r="3" fill="white"/>
<circle cx="233" cy="183" r="3" fill="white"/>
<circle cx="293" cy="183" r="3" fill="white"/>
<circle cx="203" cy="153" r="3" fill="white"/>
<circle cx="263" cy="153" r="3" fill="white"/>
<circle cx="233" cy="153" r="3" fill="white"/>
<circle cx="293" cy="153" r="3" fill="white"/>
<circle cx="203" cy="213" r="3" fill="white"/>
<circle cx="263" cy="213" r="3" fill="white"/>
<circle cx="233" cy="213" r="3" fill="white"/>
<circle cx="293" cy="213" r="3" fill="white"/>
<circle cx="323" cy="123" r="3" fill="white"/>
<circle cx="353" cy="123" r="3" fill="white"/>
<circle cx="323" cy="183" r="3" fill="white"/>
<circle cx="353" cy="183" r="3" fill="white"/>
<circle cx="323" cy="153" r="3" fill="white"/>
<circle cx="353" cy="153" r="3" fill="white"/>
<circle cx="323" cy="213" r="3" fill="white"/>
<circle cx="353" cy="213" r="3" fill="white"/>
<circle cx="23" cy="243" r="3" fill="white"/>
<circle cx="53" cy="243" r="3" fill="white"/>
<circle cx="23" cy="303" r="3" fill="white"/>
<circle cx="53" cy="303" r="3" fill="white"/>
<circle cx="23" cy="273" r="3" fill="white"/>
<circle cx="53" cy="273" r="3" fill="white"/>
<circle cx="23" cy="333" r="3" fill="white"/>
<circle cx="53" cy="333" r="3" fill="white"/>
<circle cx="83" cy="243" r="3" fill="white"/>
<circle cx="143" cy="243" r="3" fill="white"/>
<circle cx="113" cy="243" r="3" fill="white"/>
<circle cx="173" cy="243" r="3" fill="white"/>
<circle cx="83" cy="303" r="3" fill="white"/>
<circle cx="143" cy="303" r="3" fill="white"/>
<circle cx="113" cy="303" r="3" fill="white"/>
<circle cx="173" cy="303" r="3" fill="white"/>
<circle cx="83" cy="273" r="3" fill="white"/>
<circle cx="143" cy="273" r="3" fill="white"/>
<circle cx="113" cy="273" r="3" fill="white"/>
<circle cx="173" cy="273" r="3" fill="white"/>
<circle cx="83" cy="333" r="3" fill="white"/>
<circle cx="143" cy="333" r="3" fill="white"/>
<circle cx="113" cy="333" r="3" fill="white"/>
<circle cx="173" cy="333" r="3" fill="white"/>
<circle cx="203" cy="243" r="3" fill="white"/>
<circle cx="263" cy="243" r="3" fill="white"/>
<circle cx="233" cy="243" r="3" fill="white"/>
<circle cx="293" cy="243" r="3" fill="white"/>
<circle cx="203" cy="303" r="3" fill="white"/>
<circle cx="263" cy="303" r="3" fill="white"/>
<circle cx="233" cy="303" r="3" fill="white"/>
<circle cx="293" cy="303" r="3" fill="white"/>
<circle cx="203" cy="273" r="3" fill="white"/>
<circle cx="263" cy="273" r="3" fill="white"/>
<circle cx="233" cy="273" r="3" fill="white"/>
<circle cx="293" cy="273" r="3" fill="white"/>
<circle cx="203" cy="333" r="3" fill="white"/>
<circle cx="263" cy="333" r="3" fill="white"/>
<circle cx="233" cy="333" r="3" fill="white"/>
<circle cx="293" cy="333" r="3" fill="white"/>
<circle cx="323" cy="243" r="3" fill="white"/>
<circle cx="353" cy="243" r="3" fill="white"/>
<circle cx="323" cy="303" r="3" fill="white"/>
<circle cx="353" cy="303" r="3" fill="white"/>
<circle cx="323" cy="273" r="3" fill="white"/>
<circle cx="353" cy="273" r="3" fill="white"/>
<circle cx="323" cy="333" r="3" fill="white"/>
<circle cx="353" cy="333" r="3" fill="white"/>
<circle cx="23" cy="363" r="3" fill="white"/>
<circle cx="53" cy="363" r="3" fill="white"/>
<circle cx="23" cy="423" r="3" fill="white"/>
<circle cx="53" cy="423" r="3" fill="white"/>
<circle cx="23" cy="393" r="3" fill="white"/>
<circle cx="53" cy="393" r="3" fill="white"/>
<circle cx="23" cy="453" r="3" fill="white"/>
<circle cx="53" cy="453" r="3" fill="white"/>
<circle cx="83" cy="363" r="3" fill="white"/>
<circle cx="143" cy="363" r="3" fill="white"/>
<circle cx="113" cy="363" r="3" fill="white"/>
<circle cx="173" cy="363" r="3" fill="white"/>
<circle cx="83" cy="423" r="3" fill="white"/>
<circle cx="143" cy="423" r="3" fill="white"/>
<circle cx="113" cy="423" r="3" fill="white"/>
<circle cx="173" cy="423" r="3" fill="white"/>
<circle cx="83" cy="393" r="3" fill="white"/>
<circle cx="143" cy="393" r="3" fill="white"/>
<circle cx="113" cy="393" r="3" fill="white"/>
<circle cx="173" cy="393" r="3" fill="white"/>
<circle cx="83" cy="453" r="3" fill="white"/>
<circle cx="143" cy="453" r="3" fill="white"/>
<circle cx="113" cy="453" r="3" fill="white"/>
<circle cx="173" cy="453" r="3" fill="white"/>
<circle cx="203" cy="363" r="3" fill="white"/>
<circle cx="263" cy="363" r="3" fill="white"/>
<circle cx="233" cy="363" r="3" fill="white"/>
<circle cx="293" cy="363" r="3" fill="white"/>
<circle cx="203" cy="423" r="3" fill="white"/>
<circle cx="263" cy="423" r="3" fill="white"/>
<circle cx="233" cy="423" r="3" fill="white"/>
<circle cx="293" cy="423" r="3" fill="white"/>
<circle cx="203" cy="393" r="3" fill="white"/>
<circle cx="263" cy="393" r="3" fill="white"/>
<circle cx="233" cy="393" r="3" fill="white"/>
<circle cx="293" cy="393" r="3" fill="white"/>
<circle cx="203" cy="453" r="3" fill="white"/>
<circle cx="263" cy="453" r="3" fill="white"/>
<circle cx="233" cy="453" r="3" fill="white"/>
<circle cx="293" cy="453" r="3" fill="white"/>
<circle cx="323" cy="363" r="3" fill="white"/>
<circle cx="353" cy="363" r="3" fill="white"/>
<circle cx="323" cy="423" r="3" fill="white"/>
<circle cx="353" cy="423" r="3" fill="white"/>
<circle cx="323" cy="393" r="3" fill="white"/>
<circle cx="353" cy="393" r="3" fill="white"/>
<circle cx="323" cy="453" r="3" fill="white"/>
<circle cx="353" cy="453" r="3" fill="white"/>
<circle cx="23" cy="483" r="3" fill="white"/>
<circle cx="53" cy="483" r="3" fill="white"/>
<circle cx="23" cy="543" r="3" fill="white"/>
<circle cx="53" cy="543" r="3" fill="white"/>
<circle cx="23" cy="513" r="3" fill="white"/>
<circle cx="53" cy="513" r="3" fill="white"/>
<circle cx="23" cy="573" r="3" fill="white"/>
<circle cx="53" cy="573" r="3" fill="white"/>
<circle cx="83" cy="483" r="3" fill="white"/>
<circle cx="143" cy="483" r="3" fill="white"/>
<circle cx="113" cy="483" r="3" fill="white"/>
<circle cx="173" cy="483" r="3" fill="white"/>
<circle cx="83" cy="543" r="3" fill="white"/>
<circle cx="143" cy="543" r="3" fill="white"/>
<circle cx="113" cy="543" r="3" fill="white"/>
<circle cx="173" cy="543" r="3" fill="white"/>
<circle cx="83" cy="513" r="3" fill="white"/>
<circle cx="143" cy="513" r="3" fill="white"/>
<circle cx="113" cy="513" r="3" fill="white"/>
<circle cx="173" cy="513" r="3" fill="white"/>
<circle cx="83" cy="573" r="3" fill="white"/>
<circle cx="143" cy="573" r="3" fill="white"/>
<circle cx="113" cy="573" r="3" fill="white"/>
<circle cx="173" cy="573" r="3" fill="white"/>
<circle cx="203" cy="483" r="3" fill="white"/>
<circle cx="263" cy="483" r="3" fill="white"/>
<circle cx="233" cy="483" r="3" fill="white"/>
<circle cx="293" cy="483" r="3" fill="white"/>
<circle cx="203" cy="543" r="3" fill="white"/>
<circle cx="263" cy="543" r="3" fill="white"/>
<circle cx="233" cy="543" r="3" fill="white"/>
<circle cx="293" cy="543" r="3" fill="white"/>
<circle cx="203" cy="513" r="3" fill="white"/>
<circle cx="263" cy="513" r="3" fill="white"/>
<circle cx="233" cy="513" r="3" fill="white"/>
<circle cx="293" cy="513" r="3" fill="white"/>
<circle cx="203" cy="573" r="3" fill="white"/>
<circle cx="263" cy="573" r="3" fill="white"/>
<circle cx="233" cy="573" r="3" fill="white"/>
<circle cx="293" cy="573" r="3" fill="white"/>
<circle cx="323" cy="483" r="3" fill="white"/>
<circle cx="353" cy="483" r="3" fill="white"/>
<circle cx="323" cy="543" r="3" fill="white"/>
<circle cx="353" cy="543" r="3" fill="white"/>
<circle cx="323" cy="513" r="3" fill="white"/>
<circle cx="353" cy="513" r="3" fill="white"/>
<circle cx="323" cy="573" r="3" fill="white"/>
<circle cx="353" cy="573" r="3" fill="white"/>
</mask>
<g mask="url(#mask1_715_11728)">
<rect width="1920" height="649" transform="matrix(1 0 0 -1 -772 567)" fill="url(#paint1_linear_715_11728)"/>
</g>
</g>
<defs>
<linearGradient id="paint0_linear_715_11728" x1="960" y1="0" x2="960" y2="649" gradientUnits="userSpaceOnUse">
<stop stop-color="white"/>
<stop offset="1" stop-color="white" stop-opacity="0"/>
</linearGradient>
<linearGradient id="paint1_linear_715_11728" x1="960" y1="0" x2="960" y2="649" gradientUnits="userSpaceOnUse">
<stop stop-color="white"/>
<stop offset="1" stop-color="white" stop-opacity="0"/>
</linearGradient>
<clipPath id="clip0_715_11728">
<rect width="375" height="576" fill="white"/>
</clipPath>
</defs>
</svg>
