<svg width="24" height="24" viewBox="0 0 24 24" fill="none" xmlns="http://www.w3.org/2000/svg">
<g clip-path="url(#clip0_6329_33668)">
<path d="M23.25 17.2509C23.0511 17.2509 22.8603 17.3299 22.7197 17.4705C22.579 17.6112 22.5 17.8019 22.5 18.0009C22.5 20.4819 20.481 22.5009 18 22.5009C15.519 22.5009 13.5 20.4819 13.5 18.0009C13.5 15.5199 15.519 13.5009 18 13.5009C19.0239 13.5024 20.0162 13.8554 20.811 14.5009H19.75C19.5511 14.5009 19.3603 14.5799 19.2197 14.7205C19.079 14.8612 19 15.0519 19 15.2509C19 15.4498 19.079 15.6405 19.2197 15.7812C19.3603 15.9218 19.5511 16.0009 19.75 16.0009H22.25C22.4489 16.0009 22.6397 15.9218 22.7803 15.7812C22.921 15.6405 23 15.4498 23 15.2509V12.7509C23 12.5519 22.921 12.3612 22.7803 12.2205C22.6397 12.0799 22.4489 12.0009 22.25 12.0009C22.0511 12.0009 21.8603 12.0799 21.7197 12.2205C21.579 12.3612 21.5 12.5519 21.5 12.7509V13.1419C20.4825 12.4026 19.2577 12.0034 18 12.0009C14.691 12.0009 12 14.6919 12 18.0009C12 21.3099 14.691 24.0009 18 24.0009C21.309 24.0009 24 21.3099 24 18.0009C24 17.8019 23.921 17.6112 23.7803 17.4705C23.6397 17.3299 23.4489 17.2509 23.25 17.2509ZM13.44 1.59086L4.36 6.17086L0.75 4.42086L9.67 0.0808594C9.87 -0.0191406 10.11 -0.0191406 10.32 0.0808594L13.44 1.59086ZM19.25 4.42086L10.01 8.93086L6.55 7.25086L6.05 7.00086L15.14 2.42086L15.64 2.67086L19.25 4.42086ZM9.27 10.2309L9.26 19.7209L0.41 15.1709C0.287121 15.1071 0.183987 15.011 0.111731 14.8929C0.039475 14.7749 0.000841201 14.6393 0 14.5009L0 5.72086L3.75 7.54086V10.7409C3.75 11.1509 4.09 11.4909 4.5 11.4909C4.91 11.4909 5.25 11.1509 5.25 10.7409V8.28086L5.75 8.52086L9.27 10.2309Z" fill="black"/>
<path d="M20.01 10.2605C19.36 10.0905 18.68 10.0005 18 10.0005C14.81 10.0005 12.05 11.8805 10.77 14.5905V10.2205L20 5.73047C20.01 6.82047 20.01 9.25047 20.01 10.2605Z" fill="black"/>
</g>
<defs>
<clipPath id="clip0_6329_33668">
<rect width="24" height="24" fill="white"/>
</clipPath>
</defs>
</svg>
