<svg width="20" height="21" viewBox="0 0 20 21" fill="none" xmlns="http://www.w3.org/2000/svg">
<path fill-rule="evenodd" clip-rule="evenodd" d="M0 5.19643C0 4.81181 0.30526 4.5 0.681818 4.5H2.95455C2.99436 4.5 3.03391 4.50116 3.07316 4.50345L3.06396 4.5H11.8182C12.3203 4.5 12.7273 4.91574 12.7273 5.42857V15.6429L8.60854 15.7077C8.47621 14.7664 7.88307 13.977 7.0701 13.5857C6.71809 13.4162 6.32465 13.3214 5.90909 13.3214C5.49354 13.3214 5.10009 13.4162 4.74808 13.5857C4.42858 13.7395 4.14304 13.9547 3.90607 14.2166C3.78713 14.2385 3.66462 14.25 3.53947 14.25H3.44635C3.06978 14.25 2.76453 13.9382 2.76453 13.5536C2.76453 13.169 3.06978 12.8571 3.44635 12.8571H3.53947C3.91603 12.8571 4.22129 12.5453 4.22129 12.1607C4.22129 11.7761 3.91603 11.4643 3.53947 11.4643H2.53725H2.5C2.12345 11.4643 1.81818 11.1525 1.81818 10.7679C1.81818 10.3832 2.12345 10.0714 2.5 10.0714H2.53725H3.53947H3.57673C3.95328 10.0714 4.25855 9.75961 4.25855 9.375C4.25855 8.99039 3.95328 8.67857 3.57673 8.67857H2.95455H1.59091H1.48289C1.10634 8.67857 0.801074 8.36676 0.801074 7.98214C0.801074 7.59752 1.10634 7.28571 1.48289 7.28571H1.59091H2.95455C3.3311 7.28571 3.63636 6.97391 3.63636 6.58929C3.63636 6.20466 3.3311 5.89286 2.95455 5.89286H0.681818C0.30526 5.89286 0 5.58105 0 5.19643ZM4.30005 5.01563L4.3 4.96429L4.18737 4.92198C4.22603 4.95184 4.26361 4.98309 4.30005 5.01563ZM20 12.1544C20 11.9237 19.9159 11.7013 19.7642 11.5304L17.0887 8.51886C16.9165 8.32488 16.6719 8.21429 16.4155 8.21429H14.0909V15.6429H14.1286C14.2785 14.7302 14.8629 13.9679 15.6572 13.5857C16.0092 13.4162 16.4026 13.3214 16.8182 13.3214C16.8925 13.3214 16.9663 13.3245 17.0392 13.3304C17.3733 13.3577 17.6902 13.4466 17.9792 13.5857C18.7459 13.9547 19.3171 14.6778 19.4906 15.5485C19.7923 15.3974 20 15.0806 20 14.7143V12.1544ZM5.90909 14.7143C6.50293 14.7143 7.0081 15.102 7.19523 15.6431C7.24542 15.7883 7.27273 15.9445 7.27273 16.1071C7.27273 16.8764 6.66221 17.5 5.90909 17.5C5.15597 17.5 4.54545 16.8764 4.54545 16.1071C4.54545 15.9445 4.57276 15.7883 4.62295 15.6431C4.81008 15.102 5.31525 14.7143 5.90909 14.7143ZM16.8182 14.7143C17.412 14.7143 17.9172 15.102 18.1044 15.6431C18.1545 15.7883 18.1818 15.9445 18.1818 16.1071C18.1818 16.8764 17.5713 17.5 16.8182 17.5C16.0651 17.5 15.4545 16.8764 15.4545 16.1071C15.4545 15.9445 15.4818 15.7883 15.532 15.6431C15.7192 15.102 16.2244 14.7143 16.8182 14.7143Z" fill="black"/>
</svg>
