<svg width="32" height="32" viewBox="0 0 32 32" fill="none" xmlns="http://www.w3.org/2000/svg">
<g clip-path="url(#clip0_2147_12714)">
<path fill-rule="evenodd" clip-rule="evenodd" d="M7.83824 19.8381C8.58838 19.0879 9.6058 18.6665 10.6667 18.6665C11.7275 18.6665 12.7449 19.0879 13.4951 19.8381C14.2452 20.5882 14.6667 21.6056 14.6667 22.6665C14.6667 23.7274 14.2452 24.7448 13.4951 25.4949C12.7449 26.2451 11.7275 26.6665 10.6667 26.6665C9.6058 26.6665 8.58838 26.2451 7.83824 25.4949C7.08809 24.7448 6.66667 23.7274 6.66667 22.6665C6.66667 21.6056 7.08809 20.5882 7.83824 19.8381ZM10.6667 21.3332C10.313 21.3332 9.97391 21.4736 9.72386 21.7237C9.47381 21.9737 9.33333 22.3129 9.33333 22.6665C9.33333 23.0201 9.47381 23.3593 9.72386 23.6093C9.97391 23.8594 10.313 23.9998 10.6667 23.9998C11.0203 23.9998 11.3594 23.8594 11.6095 23.6093C11.8595 23.3593 12 23.0201 12 22.6665C12 22.3129 11.8595 21.9737 11.6095 21.7237C11.3594 21.4736 11.0203 21.3332 10.6667 21.3332ZM21.1716 19.8381C21.9217 19.0879 22.9391 18.6665 24 18.6665C25.0609 18.6665 26.0783 19.0879 26.8284 19.8381C27.5786 20.5882 28 21.6056 28 22.6665C28 23.7274 27.5786 24.7448 26.8284 25.4949C26.0783 26.2451 25.0609 26.6665 24 26.6665C22.9391 26.6665 21.9217 26.2451 21.1716 25.4949C20.4214 24.7448 20 23.7274 20 22.6665C20 21.6056 20.4214 20.5882 21.1716 19.8381ZM24 21.3332C23.6464 21.3332 23.3072 21.4736 23.0572 21.7237C22.8071 21.9737 22.6667 22.3129 22.6667 22.6665C22.6667 23.0201 22.8071 23.3593 23.0572 23.6093C23.3072 23.8594 23.6464 23.9998 24 23.9998C24.3536 23.9998 24.6928 23.8594 24.9428 23.6093C25.1929 23.3593 25.3333 23.0201 25.3333 22.6665C25.3333 22.3129 25.1929 21.9737 24.9428 21.7237C24.6928 21.4736 24.3536 21.3332 24 21.3332Z" fill="black"/>
<path fill-rule="evenodd" clip-rule="evenodd" d="M0 7.99984C0 7.26346 0.596954 6.6665 1.33333 6.6665H19.2C19.7658 6.6665 20.3084 6.89126 20.7085 7.29134C21.1086 7.69142 21.3333 8.23404 21.3333 8.79984V23.9998H13.4C12.6636 23.9998 12.0667 23.4029 12.0667 22.6665C12.0667 21.9301 12.6636 21.3332 13.4 21.3332H18.6667V9.33317H1.33333C0.596954 9.33317 0 8.73622 0 7.99984ZM4 13.9998C4.73638 13.9998 5.33333 14.5968 5.33333 15.3332V21.3332H7.53333C8.26971 21.3332 8.86667 21.9301 8.86667 22.6665C8.86667 23.4029 8.26971 23.9998 7.53333 23.9998H4.8C4.51986 23.9998 4.24244 23.9447 3.98361 23.8374C3.72478 23.7302 3.4896 23.5731 3.29151 23.375C3.09341 23.1769 2.93627 22.9417 2.82906 22.6829C2.72185 22.4241 2.66667 22.1467 2.66667 21.8665V15.3332C2.66667 14.5968 3.26362 13.9998 4 13.9998Z" fill="black"/>
<path fill-rule="evenodd" clip-rule="evenodd" d="M1.33333 11.9998C1.33333 11.2635 1.93029 10.6665 2.66667 10.6665H8C8.73638 10.6665 9.33333 11.2635 9.33333 11.9998C9.33333 12.7362 8.73638 13.3332 8 13.3332H2.66667C1.93029 13.3332 1.33333 12.7362 1.33333 11.9998Z" fill="black"/>
<path fill-rule="evenodd" clip-rule="evenodd" d="M18.6667 11.9998C18.6667 11.2635 19.2636 10.6665 20 10.6665H27.48C27.8924 10.6666 28.2962 10.7862 28.642 11.0109C28.9878 11.2355 29.2611 11.5555 29.4288 11.9323L31.8151 17.3022C31.8153 17.3027 31.8156 17.3032 31.8158 17.3037C31.9366 17.5752 31.9993 17.869 32 18.1662L32 18.1692L32 21.8665C32 22.1466 31.9448 22.4241 31.8376 22.6829C31.7304 22.9417 31.5733 23.1769 31.3752 23.375C31.1771 23.5731 30.9419 23.7302 30.6831 23.8374C30.4242 23.9447 30.1468 23.9998 29.8667 23.9998H27.3333C26.597 23.9998 26 23.4029 26 22.6665C26 21.9301 26.597 21.3332 27.3333 21.3332H29.3333V18.2841L27.1332 13.3332H20C19.2636 13.3332 18.6667 12.7362 18.6667 11.9998ZM18.6667 22.6665C18.6667 21.9301 19.2636 21.3332 20 21.3332H21.3333C22.0697 21.3332 22.6667 21.9301 22.6667 22.6665C22.6667 23.4029 22.0697 23.9998 21.3333 23.9998H20C19.2636 23.9998 18.6667 23.4029 18.6667 22.6665Z" fill="black"/>
</g>
<defs>
<clipPath id="clip0_2147_12714">
<rect width="32" height="32" fill="white"/>
</clipPath>
</defs>
</svg>
