<svg width="92" height="92" viewBox="0 0 92 92" fill="none" xmlns="http://www.w3.org/2000/svg">
<path d="M46 92C71.4051 92 92 71.4051 92 46C92 20.5949 71.4051 0 46 0C20.5949 0 0 20.5949 0 46C0 71.4051 20.5949 92 46 92Z" fill="#FBE698"/>
<path d="M92 45.9995C92 41.3867 91.321 36.9325 90.0576 32.7314L68.0137 10.6875L23.9863 81.3115L32.7321 90.0573C36.9332 91.3205 41.3873 91.9995 46 91.9995C71.4051 91.9995 92 71.4046 92 45.9995Z" fill="#FEDA34"/>
<path d="M26.6816 13.3828H65.3184V78.616H26.6816V13.3828Z" fill="#94B052"/>
<path d="M46.0078 13.3828H65.3186V78.616H46.0078V13.3828Z" fill="#94B052"/>
<path d="M68.0137 81.3115H23.9863V10.6875H68.0137V81.3115ZM29.377 75.9209H62.6231V16.0781H29.377V75.9209Z" fill="white"/>
<path d="M68.014 10.6875H46.0078V16.0781H62.6233V75.9209H46.0078V81.3115H68.014V10.6875Z" fill="#E9EDF5"/>
<path d="M33.3213 28.6973L42.072 19.9466L45.8832 23.7577L37.1325 32.5084L33.3213 28.6973Z" fill="#B6D868"/>
<path d="M36.8037 39.3213L52.6952 23.4298L56.5063 27.241L40.6149 43.1325L36.8037 39.3213Z" fill="#B6D868"/>
<path d="M34.7329 54.9631C34.7329 51.7927 37.303 49.2227 40.4734 49.2227C43.1051 49.2227 45.3154 50.9685 45.9932 53.3837C46.671 50.9685 48.8966 49.2227 51.5281 49.2227C54.6985 49.2227 57.2686 51.7927 57.2686 54.9631C57.2686 60.5868 45.9932 67.3853 45.9932 67.3853C45.9932 67.3853 34.7329 60.7413 34.7329 54.9631Z" fill="#FEDA34"/>
<path d="M34.7329 54.963C34.7329 51.7925 37.3029 49.2227 40.4733 49.2227C43.0959 49.2227 45.3071 50.9814 45.9932 53.3837V67.3851C45.6755 67.1964 34.7329 60.6573 34.7329 54.963Z" fill="#F8D671"/>
</svg>
