<svg width="64" height="64" viewBox="0 0 64 64" fill="none" xmlns="http://www.w3.org/2000/svg">
<path fill-rule="evenodd" clip-rule="evenodd" d="M43.7345 56.5332H20.2679C19.6787 56.5332 19.2012 57.0107 19.2012 57.5999C19.2012 58.1889 19.6787 58.6666 20.2679 58.6666H43.7345C44.3236 58.6666 44.8012 58.189 44.8012 57.5999C44.8012 57.0107 44.3235 56.5332 43.7345 56.5332Z" fill="white"/>
<path d="M12.8004 44.8437V56.5333C12.8051 60.6551 16.1452 63.9953 20.2671 64H43.7337C47.8554 63.9953 51.1956 60.6552 51.2004 56.5333V44.8437C54.3705 39.8847 53.4467 33.6693 52.0238 29.1754C52.1763 28.7095 52.2582 28.2234 52.2671 27.7333C52.2518 26.5903 51.8788 25.4809 51.2004 24.561V7.46668C51.1956 3.34484 47.8554 0.00473848 43.7337 0H20.2671C16.1453 0.00473848 12.8051 3.34484 12.8004 7.46668V24.5611C12.1219 25.481 11.749 26.5904 11.7337 27.7334C11.7424 28.2235 11.8245 28.7096 11.9769 29.1755C10.5539 33.6693 9.63023 39.8859 12.8004 44.8437ZM20.3064 22.1067C20.3536 22.8298 20.4682 23.5469 20.6489 24.2486C18.2959 25.1435 16.5956 26.2689 16.1219 27.2801C15.9858 27.5685 15.9858 27.9026 16.1219 28.191C17.0585 30.1643 22.9038 32.9526 31.3934 33.055C31.5951 33.0667 31.7966 33.0667 31.9983 33.0667C32.1999 33.0667 32.4015 33.0667 32.554 33.056C41.0927 32.9494 46.9381 30.1643 47.8746 28.191C48.0108 27.9026 48.0108 27.5685 47.8746 27.2801C47.3989 26.2689 45.7007 25.1467 43.3477 24.2486C43.5283 23.5469 43.6429 22.8298 43.6901 22.1067C47.6986 23.5392 50.1338 25.6352 50.1338 27.7334C50.1338 31.3387 42.8474 35.2001 32.0005 35.2001C21.1536 35.2001 13.8672 31.3387 13.8672 27.7334C13.8671 25.6352 16.3022 23.5392 20.3064 22.1067ZM42.635 26.2602C43.6472 26.6194 44.6058 27.1149 45.4841 27.7333C43.759 28.873 41.8287 29.6667 39.8009 30.0703C40.9944 29.0059 41.9588 27.7096 42.635 26.2602ZM41.6003 21.3333C41.6003 26.6352 37.3022 30.9332 32.0004 30.9332C26.6985 30.9332 22.4004 26.6351 22.4004 21.3333C22.4004 16.0314 26.6985 11.7333 32.0004 11.7333C37.2999 11.7392 41.5944 16.0339 41.6003 21.3333ZM24.2041 30.08C22.1745 29.6757 20.2425 28.8813 18.5156 27.7407C19.3938 27.1203 20.3528 26.6229 21.3658 26.2623C22.0427 27.7144 23.0085 29.0134 24.2041 30.08ZM14.9337 47.3759C16.219 48.5251 17.688 49.4507 19.2794 50.114L16.6309 52.0532C16.3046 52.2923 15.8712 52.3263 15.5117 52.141C15.1522 51.9556 14.9284 51.583 14.9339 51.1785L14.9337 47.3759ZM43.7337 61.8666H20.2671C17.323 61.8631 14.9372 59.4774 14.9337 56.5333V54.1866C15.9234 54.5732 17.0428 54.4176 17.8895 53.7759L21.7028 50.9813C25.0571 51.8954 28.5243 52.3282 32.0004 52.2666C35.4762 52.3299 38.9434 51.8989 42.2979 50.9866L46.1134 53.7823C46.9606 54.4214 48.0791 54.5745 49.0669 54.1865V56.5332C49.0634 59.4774 46.6778 61.8631 43.7337 61.8666ZM44.7214 50.114C46.3128 49.4506 47.7816 48.5251 49.067 47.3759V51.1914C49.076 51.5926 48.8524 51.9629 48.4931 52.1418C48.1344 52.3325 47.6978 52.2993 47.3721 52.0565L44.7214 50.114ZM49.2504 43.9467C46.4675 48.0512 40.6638 50.1333 32.0003 50.1333C23.3368 50.1333 17.5331 48.0512 14.7491 43.9467C12.2456 40.2635 12.5314 35.5573 13.484 31.6885C16.6104 35.0421 23.6301 37.3333 32.0003 37.3333C40.3704 37.3333 47.3901 35.0421 50.5166 31.6864C51.4691 35.5551 51.755 40.2613 49.2504 43.9467ZM42.1582 2.13337L41.4115 3.99254C41.0908 4.80366 40.3061 5.33563 39.4339 5.33332H24.5668C23.6937 5.33647 22.9081 4.8044 22.587 3.99254L21.8436 2.13337H42.1582ZM19.5726 2.20371L20.6052 4.78397C21.2483 6.40779 22.8202 7.47226 24.5668 7.46668H39.4339C41.1803 7.47248 42.752 6.40853 43.3956 4.78502L44.4281 2.20371C47.0752 2.54698 49.0588 4.79745 49.0671 7.46668V22.4523C47.4028 21.2983 45.5669 20.4139 43.6271 19.8315C42.878 13.9811 37.8985 9.59868 32.0005 9.59868C26.1024 9.59868 21.1229 13.9811 20.3738 19.8315C18.4341 20.4139 16.5982 21.2983 14.9339 22.4523V7.46668C14.942 4.79745 16.9256 2.54709 19.5726 2.20371Z" fill="white"/>
<path d="M35.1994 18.6672C35.1994 19.2563 35.6769 19.7338 36.2661 19.7338C36.8552 19.7338 37.3328 19.2563 37.3328 18.6672C37.3328 16.8303 35.529 15.3445 33.0661 15.0075V14.9339C33.0661 14.3447 32.5886 13.8672 31.9994 13.8672C31.4103 13.8672 30.9328 14.3447 30.9328 14.9339V15.0075C28.4698 15.3445 26.6661 16.8304 26.6661 18.6672C26.6661 20.5039 28.4699 21.9898 30.9328 22.3268V25.4937C29.6656 25.2473 28.7994 24.5998 28.7994 24.0004C28.7994 23.4112 28.3219 22.9337 27.7327 22.9337C27.1435 22.9337 26.666 23.4112 26.666 24.0004C26.666 25.8372 28.4698 27.323 30.9326 27.6601V27.7337C30.9326 28.3228 31.4102 28.8003 31.9993 28.8003C32.5885 28.8003 33.066 28.3228 33.066 27.7337V27.6601C35.529 27.323 37.3326 25.8371 37.3326 24.0004C37.3326 22.1636 35.5289 20.6777 33.066 20.3407V17.1738C34.3333 17.4213 35.1994 18.0687 35.1994 18.6672ZM28.7994 18.6672C28.7994 18.0687 29.6655 17.4213 30.9328 17.1738V20.1604C29.6656 19.9131 28.7994 19.2656 28.7994 18.6672ZM35.1994 24.0005C35.1994 24.5989 34.3333 25.2464 33.066 25.4938V22.5072C34.3333 22.7546 35.1994 23.4021 35.1994 24.0005Z" fill="white"/>
<path fill-rule="evenodd" clip-rule="evenodd" d="M37.3331 40.5332H35.1998C34.6433 40.5678 34.2073 41.0253 34.1994 41.5828C34.1916 42.1404 34.6145 42.6099 35.1699 42.6601C35.0195 43.8399 33.637 44.7998 31.9997 44.7998C30.3624 44.7998 28.9799 43.8398 28.8296 42.6601C29.3849 42.6099 29.8078 42.1404 29.8 41.5828C29.7922 41.0253 29.3563 40.5678 28.7997 40.5332H26.6663C26.0771 40.5332 25.5996 41.0107 25.5996 41.5999C25.5996 42.189 26.0771 42.6666 26.6663 42.6666H26.6919C26.8273 45.0356 29.1453 46.9332 31.9996 46.9332C34.854 46.9332 37.1719 45.0356 37.3073 42.6666H37.3329C37.9221 42.6666 38.3996 42.189 38.3996 41.5999C38.3996 41.0107 37.9222 40.5332 37.3331 40.5332Z" fill="white"/>
</svg>
