<svg width="40" height="32" viewBox="0 0 40 32" fill="none" xmlns="http://www.w3.org/2000/svg">
<path d="M5.23908 11.0206C5.89575 13.051 7.53365 14.6134 9.27721 15.8513C11.0208 17.0891 12.9304 18.0854 14.5381 19.4969C16.3949 21.1197 17.7912 23.2633 18.5234 25.6107C19.097 27.4524 19.3612 29.5507 20.7878 30.8489C22.2747 32.2 24.5617 32.2 26.5015 31.6716C27.913 31.2867 29.2867 30.6527 30.3283 29.6262C32.0945 27.8826 32.6908 25.1654 32.2153 22.7274C31.7398 20.2894 30.3132 18.1156 28.5621 16.357C26.66 14.4473 24.3277 12.9227 22.7879 10.7111C21.4218 8.75623 20.7576 6.37864 19.3989 4.42373C18.0856 2.52921 16.1383 1.08756 13.9494 0.385607C10.8396 -0.610716 7.45062 0.287484 6.14483 3.50289C5.34475 5.46534 4.60506 9.05059 5.23908 11.0206Z" fill="#F3F8F9"/>
<path d="M27.564 16.2692H26.2419V14.9402C26.2419 14.5555 25.9272 14.2407 25.5425 14.2407C25.1577 14.2407 24.843 14.5555 24.843 14.9402V16.2692H23.5139C23.1292 16.2692 22.8145 16.584 22.8145 16.9687C22.8145 17.3534 23.1292 17.6682 23.5139 17.6682H24.843V18.9903C24.843 19.375 25.1577 19.6897 25.5425 19.6897C25.9272 19.6897 26.2419 19.375 26.2419 18.9903V17.6682H27.564C27.9487 17.6682 28.2635 17.3534 28.2635 16.9687C28.2635 16.584 27.9557 16.2692 27.564 16.2692Z" fill="#8ACB8F"/>
<path d="M21.3178 20.6271C21.1429 20.6481 20.968 20.6551 20.7791 20.6551C19.3732 20.6551 18.212 20.1445 17.3377 19.1302C15.484 17.0038 15.4001 13.4154 15.4071 12.632C16.841 12.2263 19.3592 11.0791 20.9121 7.86145C21.4646 8.86172 22.9616 10.8273 26.3401 11.261C26.417 11.268 26.487 11.247 26.5499 11.205C26.6059 11.156 26.6479 11.0931 26.6549 11.0161C26.6688 10.8692 27.0116 7.37181 24.8921 5.02152C23.682 3.6785 21.9193 3 19.66 3C17.6384 3 16.0716 3.65052 15.0014 4.93758C12.6861 7.70756 13.5045 12.4011 13.5394 12.597C13.5464 12.632 13.5604 12.6739 13.5814 12.7019C13.6374 12.7858 13.7213 12.8628 14.0571 12.8628C14.141 12.8628 14.2389 12.8558 14.3648 12.8488C14.4418 12.8418 14.6027 12.8208 14.8405 12.7789C14.8265 13.1146 14.8545 13.6322 14.9594 14.4436C15.2112 16.4302 15.9876 19.466 18.4009 20.6901C18.4009 21.4105 18.233 24.1316 15.547 24.3134C11.4969 24.5792 9.99303 25.7754 10 28.7202C10 28.8741 10.1259 29 10.2798 29C10.4337 29 10.5596 28.8741 10.5596 28.7202C10.5526 26.0971 11.8187 25.1248 15.5819 24.873C18.4638 24.6842 18.8975 21.9981 18.9535 20.9279C19.4921 21.1168 20.1006 21.2287 20.7861 21.2287C20.996 21.2287 21.1988 21.2147 21.3947 21.1937C21.5486 21.1727 21.6605 21.0328 21.6395 20.8789C21.6115 20.7181 21.4716 20.6061 21.3178 20.6271ZM14.0571 12.3032C13.9312 11.4079 13.5254 7.56067 15.4211 5.28733C16.3794 4.14017 17.8063 3.5526 19.653 3.5526C21.7514 3.5526 23.3673 4.16815 24.4655 5.38526C26.0813 7.17595 26.1372 9.79204 26.1023 10.6594C22.2271 10.0299 21.1988 7.21792 21.1569 7.09201C21.1219 6.98009 21.017 6.91014 20.8981 6.90315C20.7722 6.89615 20.6742 6.9661 20.6323 7.07802C19.2053 10.5055 16.6452 11.7436 15.1203 12.1353C15.0993 12.1353 15.0783 12.1353 15.0573 12.1423C15.0363 12.1493 15.0154 12.1563 14.9944 12.1633C14.5747 12.2752 14.2459 12.3032 14.0571 12.3032Z" fill="#1F5274"/>
<path d="M34.3351 21.2145C33.9154 20.2702 31.5931 19.6056 30.7397 19.3958C30.7607 19.2279 30.7257 19.074 30.6488 18.9411C30.4459 18.6124 29.9983 18.5354 29.7115 18.5284C29.9423 17.9828 30.0682 17.3813 30.0682 16.7587C30.0682 14.2126 27.9977 12.1421 25.4516 12.1421C22.9054 12.1421 20.835 14.2126 20.835 16.7587C20.835 19.3049 22.9054 21.3753 25.4516 21.3753C26.8366 21.3753 28.0747 20.7668 28.9211 19.7945C29.054 20.0813 29.3058 20.487 29.6835 20.529C29.7115 20.529 29.7325 20.536 29.7604 20.536C29.9073 20.536 30.0402 20.487 30.1731 20.3821C30.7537 20.9696 32.3555 22.4665 33.4467 22.4665C33.4957 22.4665 33.5377 22.4665 33.5796 22.4595C33.8944 22.4176 34.1462 22.2497 34.3071 21.9559C34.433 21.7111 34.44 21.4593 34.3351 21.2145ZM25.4376 20.8088C23.1992 20.8088 21.3806 18.9901 21.3806 16.7517C21.3806 14.5134 23.1992 12.6947 25.4376 12.6947C27.676 12.6947 29.4946 14.5134 29.4946 16.7517C29.4946 18.9901 27.676 20.8088 25.4376 20.8088ZM29.7395 19.9694C29.6275 19.9554 29.4317 19.6546 29.3337 19.3468C29.3268 19.3188 29.3128 19.2979 29.2988 19.2769C29.3407 19.2139 29.3827 19.151 29.4177 19.081C29.4457 19.088 29.4667 19.088 29.4946 19.088C29.7185 19.074 30.0822 19.109 30.1591 19.2349C30.1941 19.2909 30.1801 19.4308 30.0332 19.6686C29.8794 19.9274 29.7674 19.9834 29.7395 19.9694ZM33.8105 21.6761C33.7335 21.809 33.6426 21.879 33.5027 21.893C32.8032 21.9769 31.3693 20.8018 30.5229 19.9414C30.5299 19.9344 30.5369 19.9204 30.5369 19.9134C31.747 20.2142 33.5517 20.8367 33.8175 21.4313C33.8594 21.5222 33.8594 21.5992 33.8105 21.6761Z" fill="#1F5274"/>
<path d="M26.6266 24.3065C25.3536 24.2226 24.4932 23.5651 24.0595 22.362C24.0106 22.2151 23.8497 22.1381 23.7028 22.1941C23.5559 22.25 23.479 22.4039 23.5349 22.5508C24.0455 23.9638 25.1018 24.7612 26.5917 24.8661C30.3549 25.118 31.621 26.0832 31.614 28.7133C31.614 28.8672 31.7399 28.9931 31.8938 28.9931C32.0477 28.9931 32.1736 28.8672 32.1736 28.7133C32.1806 25.7685 30.6837 24.5723 26.6266 24.3065Z" fill="#1F5274"/>
</svg>
