<svg width="64" height="64" viewBox="0 0 64 64" fill="none" xmlns="http://www.w3.org/2000/svg">
<path fill-rule="evenodd" clip-rule="evenodd" d="M61.9715 29.6189C64.6685 34.6277 64.6685 40.6082 61.9715 45.6169C60.3463 48.6349 59.9121 51.9983 60.7781 54.8513L63.9999 63.9881H26.3701H7.49861C3.36387 63.9881 0 60.6243 0 56.4895V7.49861C0 3.36387 3.36387 0 7.49861 0H26.3701C30.5048 0 33.8687 3.36387 33.8687 7.49861V11.3727H64L60.7783 20.5096C59.9151 23.3523 60.3383 26.5858 61.9715 29.6189ZM39.4921 29.3438L36.841 31.9948L39.4921 34.6459L42.1432 31.9948L39.4921 29.3438ZM26.3701 60.2386H7.49861C5.43124 60.2386 3.74924 58.5566 3.74924 56.4893C3.74924 54.4219 5.43124 52.7399 7.49861 52.7399H26.3701C28.4374 52.7399 30.1193 54.4219 30.1193 56.4893C30.1193 58.5566 28.4374 60.2386 26.3701 60.2386ZM50.7401 29.3438L48.089 31.9949L50.7401 34.646L53.3912 31.9949L50.7401 29.3438ZM30.1194 49.9995L30.1193 49.9995V7.49849C30.1193 5.43111 28.4374 3.74912 26.3701 3.74912H7.49861C5.43124 3.74912 3.74924 5.43111 3.74924 7.49849V49.9995C4.85324 49.3593 6.13324 48.9908 7.49861 48.9908H26.3702C27.7355 48.9908 29.0155 49.3592 30.1193 49.9995V49.9995H30.1194ZM45.1162 23.7198L42.4651 26.3708L45.1162 29.0219L47.7672 26.3708L45.1162 23.7198ZM57.2053 55.9884L58.7024 60.2386H32.8599C33.5002 59.1348 33.8687 57.8546 33.8687 56.4893V15.122H58.7024L57.229 19.3001L57.2053 19.3722C56.0306 23.1901 56.5509 27.4604 58.6704 31.3964C60.768 35.2921 60.768 39.9435 58.6704 43.8393C56.566 47.7472 56.032 52.1754 57.2053 55.9884ZM39.4918 40.5904L36.8407 43.2414L39.4918 45.8925L42.1429 43.2414L39.4918 40.5904ZM48.0887 43.2428L50.7398 40.5918L53.3909 43.2428L50.7398 45.8939L48.0887 43.2428ZM45.116 34.9678L42.4649 37.6188L45.116 40.2699L47.7671 37.6188L45.116 34.9678ZM42.4643 48.9909L45.1154 46.3398L47.7665 48.9909L45.1154 51.642L42.4643 48.9909ZM11.3729 18.095L8.7218 20.7461L11.3729 23.3972L14.024 20.7461L11.3729 18.095ZM19.9696 20.7462L22.6207 18.0951L25.2717 20.7462L22.6207 23.3973L19.9696 20.7462ZM16.9967 12.4709L14.3456 15.122L16.9967 17.7731L19.6478 15.122L16.9967 12.4709ZM8.72181 31.9939L11.3729 29.3428L14.024 31.9939L11.3729 34.645L8.72181 31.9939ZM22.6207 29.3427L19.9696 31.9938L22.6207 34.6449L25.2717 31.9938L22.6207 29.3427ZM14.3457 26.3701L16.9968 23.7191L19.6479 26.3701L16.9968 29.0212L14.3457 26.3701ZM16.9968 34.9667L14.3457 37.6178L16.9968 40.2689L19.6479 37.6178L16.9968 34.9667Z" fill="#618396"/>
</svg>
