<svg width="64" height="64" viewBox="0 0 64 64" fill="none" xmlns="http://www.w3.org/2000/svg">
<path fill-rule="evenodd" clip-rule="evenodd" d="M63.984 0.987375C63.9771 0.915 63.9628 0.8435 63.941 0.774125C63.9246 0.71025 63.9021 0.648125 63.8739 0.5885C63.8425 0.53075 63.8056 0.47625 63.7639 0.4255C63.7204 0.366625 63.6709 0.3125 63.616 0.264125C63.6064 0.255923 63.5989 0.246201 63.5914 0.236498V0.236494L63.5914 0.236484V0.236477C63.5827 0.225188 63.574 0.213928 63.562 0.205125C63.5278 0.186875 63.4925 0.170625 63.4564 0.1565C63.3324 0.08075 63.1922 0.035125 63.0475 0.023C63.01 0.013125 62.9719 0.005375 62.9334 0H29.8666C29.8515 0 29.8378 0.0040314 29.824 0.00806577C29.8123 0.0114821 29.8006 0.0149006 29.7881 0.015875C29.715 0.02275 29.6429 0.03725 29.573 0.059375C29.5096 0.07575 29.448 0.098125 29.3889 0.126125C29.331 0.1575 29.2764 0.194375 29.2255 0.23625C29.1666 0.27975 29.1125 0.32925 29.0641 0.384125C29.0559 0.393772 29.0462 0.401257 29.0365 0.408725C29.0252 0.417418 29.0139 0.42609 29.0051 0.438125L0.20525 39.9048C0.187 39.939 0.17075 39.9743 0.156625 40.0104C0.081125 40.1341 0.035375 40.2738 0.02325 40.4183C0.01325 40.4561 0.0055 40.4946 0 40.5334V62.9334C0 63.5225 0.4775 64 1.06662 64H34.1333C34.4445 63.9818 34.7357 63.84 34.9422 63.6064C34.9467 63.6011 34.9517 63.5968 34.957 63.5929L34.9624 63.589L34.9673 63.5857C34.9773 63.579 34.9872 63.5723 34.9948 63.562L63.7948 24.0954C63.813 24.0611 63.8293 24.0259 63.8434 23.9897C63.9189 23.866 63.9646 23.7264 63.9767 23.5819C63.9867 23.544 63.9945 23.5055 64 23.4667V1.06662C64 1.05143 63.9959 1.03758 63.9919 1.02371C63.9884 1.0119 63.985 1.00007 63.984 0.987375ZM4.32575 58.9593C4.3855 59.1553 4.49738 59.3311 4.6495 59.4684C4.65913 59.4766 4.66664 59.4864 4.67413 59.4961C4.68298 59.5076 4.69181 59.5191 4.70412 59.5281C4.74862 59.5553 4.795 59.5789 4.843 59.5989C4.88013 59.6209 4.91875 59.6405 4.95837 59.6576C5.07737 59.7052 5.204 59.7309 5.33212 59.7334L5.33262 59.7332L5.33325 59.7334H29.8666C30.4557 59.7334 30.9333 59.2559 30.9333 58.6668V44.8C30.9333 44.2109 30.4557 43.7334 29.8666 43.7334H5.33337C4.74425 43.7334 4.26675 44.2109 4.26675 44.8V58.6666C4.26675 58.6818 4.27081 58.6957 4.27487 58.7096C4.2783 58.7213 4.28172 58.7331 4.28275 58.7456C4.2895 58.8183 4.304 58.8898 4.32575 58.9593ZM28.8 45.8666V57.6H7.43275L15.9983 45.8666H28.8ZM13.3568 45.8666H6.4V55.3963L13.3568 45.8666ZM2.13337 61.8666H33.0666H33.0667V41.6H2.13337V61.8666ZM33.5915 39.4666H3.16525L30.4085 2.13337H60.8347L33.5915 39.4666ZM35.2 59.6624L61.8666 23.1193V4.33763L35.2 40.8807V59.6624Z" fill="#618396"/>
</svg>
