<svg width="68" height="49" viewBox="0 0 68 49" fill="none" xmlns="http://www.w3.org/2000/svg">
<path d="M37.4906 27.1123L36.4748 26.3838L36.4747 26.3839L37.4906 27.1123ZM54.2119 16.812L55.3746 17.2709L56.0976 15.4392L54.1323 15.5645L54.2119 16.812ZM13.7401 40.7882L13.6932 39.5391L11.9288 39.6054L12.5775 41.2476L13.7401 40.7882ZM15.8848 46.2167L14.7223 46.676L14.7232 46.6785L15.8848 46.2167ZM15.7127 46.8296L14.9586 45.8327L14.9563 45.8344L15.7127 46.8296ZM15.077 46.8268L14.315 47.8178L14.3189 47.8207L15.077 46.8268ZM2.20442 36.9296L2.96634 35.9386L2.96261 35.9357L2.20442 36.9296ZM2.20442 36.0988L2.95988 37.0948L2.9664 37.0897L2.20442 36.0988ZM15.0768 26.2004L14.3219 25.2041L14.3149 25.2095L15.0768 26.2004ZM15.7137 26.198L16.4707 25.2033L16.4628 25.1974L15.7137 26.198ZM15.8854 26.8109L17.048 27.2702L17.0483 27.2693L15.8854 26.8109ZM13.7713 32.1625L12.6087 31.7032L11.8991 33.4995L13.8285 33.4112L13.7713 32.1625ZM30.4858 22.0881L29.4701 21.3596L29.47 21.3597L30.4858 22.0881ZM54.2729 8.17898L54.3383 9.42727L56.0744 9.33633L55.4354 7.71954L54.2729 8.17898ZM52.1148 2.71845L50.9512 3.17518L50.9523 3.17789L52.1148 2.71845ZM52.2869 2.10555L51.5337 1.10798L51.5319 1.10937L52.2869 2.10555ZM52.923 2.10887L53.685 1.11793L53.6825 1.11599L52.923 2.10887ZM65.7952 12.0064L65.0333 12.9973L65.0398 13.0022L65.7952 12.0064ZM65.7952 12.8374L65.0398 11.8415L65.0333 11.8465L65.7952 12.8374ZM52.923 22.735L53.68 23.7298L53.685 23.726L52.923 22.735ZM52.2863 22.7372L51.5309 23.7332L51.5413 23.741L52.2863 22.7372ZM52.1148 22.1247L50.9521 21.6658L50.9513 21.668L52.1148 22.1247ZM15.077 22.7344L15.8398 21.7442L15.8389 21.7435L15.077 22.7344ZM15.7138 22.7365L14.9625 21.7375L14.9611 21.7386L15.7138 22.7365ZM15.8855 22.124L14.7229 22.5831L14.724 22.5858L15.8855 22.124ZM13.7878 16.8112L13.8673 15.5638L11.9018 15.4385L12.6251 17.2703L13.7878 16.8112ZM27.5831 23.2521L26.6299 24.0607L27.6395 25.2509L28.5804 24.0057L27.5831 23.2521ZM29.1399 21.1217L28.1241 20.3931L28.1237 20.3937L29.1399 21.1217ZM32.8846 16.2679L33.8249 17.0915L34.5781 16.2316L33.7888 15.4048L32.8846 16.2679ZM13.7281 8.1791L12.5655 7.7198L11.9267 9.33661L13.6628 9.4274L13.7281 8.1791ZM15.8854 2.71857L17.048 3.17787L17.0483 3.17698L15.8854 2.71857ZM15.7137 2.10567L16.4706 1.11091L16.466 1.10739L15.7137 2.10567ZM15.0779 2.10899L14.317 1.11732L14.3161 1.11799L15.0779 2.10899ZM2.20442 12.0057L2.95988 13.0017L2.96627 12.9967L2.20442 12.0057ZM2.20442 12.8368L2.96636 11.8459L2.96261 11.843L2.20442 12.8368ZM65.7952 36.0988L65.0332 37.0897L65.0398 37.0947L65.7952 36.0988ZM65.7952 36.9296L65.0397 35.9336L65.0333 35.9386L65.7952 36.9296ZM52.923 46.8268L53.682 47.82L53.685 47.8177L52.923 46.8268ZM52.2869 46.8296L51.5319 47.8258L51.5325 47.8262L52.2869 46.8296ZM52.1148 46.2167L50.9523 45.7573L50.9513 45.76L52.1148 46.2167ZM54.2599 40.7882L55.4224 41.2476L56.0713 39.6055L54.3069 39.5391L54.2599 40.7882ZM35.1184 32.9009L34.1784 32.077L33.4236 32.938L34.2153 33.7652L35.1184 32.9009ZM38.8384 28.0806L39.854 28.8094L39.8543 28.8089L38.8384 28.0806ZM38.8397 28.0787L39.8556 28.8071L39.8561 28.8064L38.8397 28.0787ZM40.4184 25.9162L41.3707 25.1064L40.3607 23.9188L39.421 25.1628L40.4184 25.9162ZM54.2294 32.1625L54.1722 33.4112L56.1018 33.4996L55.392 31.7032L54.2294 32.1625ZM52.1149 26.8109L50.95 27.2643L50.9524 27.2703L52.1149 26.8109ZM52.2871 26.198L51.5417 25.1946L51.5359 25.1989L51.5301 25.2033L52.2871 26.198ZM52.9238 26.2004L53.6858 25.2095L53.6812 25.206L52.9238 26.2004ZM38.5063 27.8408C40.4491 25.1321 42.0773 22.882 44.37 21.1916C46.6187 19.5336 49.5948 18.3589 54.2914 18.0594L54.1323 15.5645C49.056 15.8882 45.5939 17.1832 42.8864 19.1794C40.2229 21.1432 38.3769 23.7317 36.4748 26.3838L38.5063 27.8408ZM13.787 42.0374C21.1727 41.7599 26.3001 39.7404 30.1383 36.9661C33.945 34.2145 36.4076 30.7679 38.5064 27.8406L36.4747 26.3839C34.3586 29.3354 32.1077 32.4578 28.6737 34.9399C25.2712 37.3994 20.6309 39.2785 13.6932 39.5391L13.787 42.0374ZM17.0474 45.7574L14.9027 40.3289L12.5775 41.2476L14.7223 46.676L17.0474 45.7574ZM16.4668 47.8265C17.1017 47.3462 17.3429 46.5007 17.0464 45.7549L14.7232 46.6785C14.6017 46.3728 14.7021 46.0267 14.9586 45.8327L16.4668 47.8265ZM14.3189 47.8207C14.9478 48.3004 15.8275 48.3124 16.4691 47.8248L14.9563 45.8344C15.2232 45.6316 15.583 45.6407 15.835 45.8329L14.3189 47.8207ZM1.44251 37.9205L14.315 47.8177L15.8389 45.8358L2.96633 35.9386L1.44251 37.9205ZM0.75 36.5142C0.75 37.0621 1.00416 37.5861 1.44624 37.9234L2.96261 35.9357C3.14768 36.0769 3.25 36.2916 3.25 36.5142H0.75ZM1.44898 35.1029C1.00097 35.4428 0.75 35.9696 0.75 36.5142H3.25C3.25 36.7334 3.1494 36.951 2.95986 37.0947L1.44898 35.1029ZM14.3149 25.2095L1.44245 35.1079L2.9664 37.0897L15.8388 27.1913L14.3149 25.2095ZM15.3975 24.8421C15.0174 24.8421 14.6378 24.9647 14.3219 25.2041L15.8318 27.1966C15.7056 27.2923 15.5529 27.3421 15.3975 27.3421V24.8421ZM16.4628 25.1974C16.153 24.9654 15.7781 24.8421 15.3975 24.8421V27.3421C15.2397 27.3421 15.0886 27.2916 14.9645 27.1987L16.4628 25.1974ZM17.0483 27.2693C17.3412 26.5263 17.102 25.6837 16.4706 25.2033L14.9567 27.1928C14.7015 26.9986 14.6031 26.6555 14.7225 26.3525L17.0483 27.2693ZM14.9339 32.6218L17.048 27.2702L14.7229 26.3517L12.6087 31.7032L14.9339 32.6218ZM29.47 21.3597C27.5324 24.0622 25.9167 26.2944 23.6343 27.9498C21.3975 29.5722 18.4267 30.6981 13.7142 30.9138L13.8285 33.4112C18.9213 33.1781 22.3912 31.9398 25.1021 29.9736C27.7674 28.0404 29.6064 25.4599 31.5017 22.8165L29.47 21.3597ZM54.2075 6.93069C46.8164 7.31785 41.689 9.39242 37.8508 12.1939C34.0426 14.9735 31.5769 18.4222 29.4701 21.3596L31.5016 22.8166C33.6248 19.8563 35.8821 16.726 39.3247 14.2133C42.7372 11.7225 47.3882 9.79133 54.3383 9.42727L54.2075 6.93069ZM50.9523 3.17789L53.1104 8.63842L55.4354 7.71954L53.2773 2.25901L50.9523 3.17789ZM51.5319 1.10937C50.8955 1.59172 50.661 2.43564 50.9513 3.17518L53.2784 2.26172C53.396 2.56121 53.3007 2.90562 53.042 3.10173L51.5319 1.10937ZM53.6825 1.11599C53.0522 0.633909 52.1736 0.624836 51.5337 1.10798L53.0402 3.10312C52.7765 3.30224 52.4178 3.29611 52.1636 3.10174L53.6825 1.11599ZM66.5572 11.0154L53.685 1.11793L52.1611 3.0998L65.0333 12.9973L66.5572 11.0154ZM67.25 12.4217C67.25 11.8752 66.9971 11.3491 66.5507 11.0105L65.0398 13.0022C64.8518 12.8596 64.75 12.6429 64.75 12.4217H67.25ZM66.5507 13.8333C66.9975 13.4944 67.25 12.9681 67.25 12.4217H64.75C64.75 12.2014 64.8514 11.9844 65.0398 11.8415L66.5507 13.8333ZM53.685 23.726L66.5572 13.8284L65.0333 11.8465L52.1611 21.7441L53.685 23.726ZM52.6029 24.0936C52.9833 24.0936 53.3635 23.9706 53.68 23.7298L52.1661 21.7403C52.2924 21.6442 52.4461 21.5936 52.6029 21.5936V24.0936ZM51.5413 23.741C51.8462 23.9673 52.2166 24.0936 52.6029 24.0936V21.5936C52.7654 21.5936 52.9151 21.6473 53.0313 21.7335L51.5413 23.741ZM50.9513 21.668C50.6613 22.4066 50.8948 23.2507 51.5309 23.7332L53.0417 21.7413C53.3015 21.9383 53.3956 22.2829 53.2784 22.5815L50.9513 21.668ZM53.0492 16.353L50.9521 21.6658L53.2775 22.5837L55.3746 17.2709L53.0492 16.353ZM15.3976 21.5929C15.5471 21.5929 15.7055 21.6407 15.8398 21.7442L14.3141 23.7246C14.6379 23.9741 15.0221 24.0929 15.3976 24.0929V21.5929ZM14.9611 21.7386C15.0877 21.6431 15.2401 21.5929 15.3976 21.5929V24.0929C15.7764 24.0929 16.1539 23.9703 16.4666 23.7344L14.9611 21.7386ZM14.724 22.5858C14.6034 22.2825 14.7005 21.9346 14.9625 21.7375L16.4652 23.7355C17.1048 23.2544 17.3426 22.4055 17.0471 21.6622L14.724 22.5858ZM12.6251 17.2703L14.7229 22.5831L17.0482 21.6649L14.9504 16.3522L12.6251 17.2703ZM28.5364 22.4435C26.9974 20.6292 25.2449 19.0113 22.8847 17.7951C20.5278 16.5806 17.638 15.8042 13.8673 15.5638L13.7082 18.0587C17.2148 18.2823 19.753 18.9937 21.7396 20.0174C23.723 21.0394 25.2296 22.41 26.6299 24.0607L28.5364 22.4435ZM28.1237 20.3937C27.5922 21.1357 27.0886 21.8333 26.5859 22.4985L28.5804 24.0057C29.1038 23.3132 29.6232 22.5934 30.156 21.8496L28.1237 20.3937ZM31.9443 15.4443C30.4504 17.1497 29.2157 18.8712 28.1241 20.3931L30.1556 21.8502C31.2535 20.3196 32.4222 18.6929 33.8249 17.0915L31.9443 15.4443ZM13.6628 9.4274C23.0814 9.91996 28.3167 13.2928 31.9804 17.131L33.7888 15.4048C29.7076 11.1292 23.8815 7.45839 13.7933 6.93081L13.6628 9.4274ZM14.7229 2.25926L12.5655 7.7198L14.8906 8.63841L17.048 3.17787L14.7229 2.25926ZM14.9567 3.10043C14.7015 2.90621 14.6031 2.56317 14.7225 2.26016L17.0483 3.17698C17.3412 2.43392 17.102 1.59138 16.4706 1.11092L14.9567 3.10043ZM15.8389 3.10066C15.5824 3.29752 15.2232 3.30124 14.9614 3.10395L16.466 1.10739C15.8273 0.626076 14.9484 0.632749 14.317 1.11732L15.8389 3.10066ZM2.96627 12.9967L15.8398 3.09999L14.3161 1.11799L1.44257 11.0147L2.96627 12.9967ZM3.25 12.4211C3.25 12.6403 3.14939 12.8579 2.95986 13.0016L1.44898 11.0098C1.00098 11.3497 0.75 11.8765 0.75 12.4211H3.25ZM2.96261 11.843C3.14806 11.9845 3.25 12.1994 3.25 12.4211H0.75C0.75 12.9689 1.00378 13.4931 1.44624 13.8306L2.96261 11.843ZM15.8389 21.7435L2.96635 11.8459L1.44249 13.8278L14.315 23.7254L15.8389 21.7435ZM67.25 36.5142C67.25 35.9677 66.9971 35.4416 66.5507 35.103L65.0398 37.0947C64.8518 36.9521 64.75 36.7354 64.75 36.5142H67.25ZM66.5507 37.9254C66.9971 37.5868 67.25 37.0607 67.25 36.5142H64.75C64.75 36.293 64.8518 36.0763 65.0398 35.9337L66.5507 37.9254ZM53.685 47.8177L66.5571 37.9205L65.0333 35.9386L52.1611 45.8358L53.685 47.8177ZM51.5325 47.8262C52.1727 48.3109 53.0518 48.3016 53.682 47.82L52.1641 45.8336C52.4181 45.6394 52.7773 45.6331 53.0414 45.833L51.5325 47.8262ZM50.9513 45.76C50.661 46.4995 50.8955 47.3434 51.5319 47.8258L53.042 45.8334C53.3007 46.0295 53.396 46.374 53.2784 46.6735L50.9513 45.76ZM53.0974 40.3289L50.9523 45.7573L53.2774 46.6761L55.4224 41.2476L53.0974 40.3289ZM34.2153 33.7652C38.2939 38.0271 44.1227 41.6578 54.2129 42.0374L54.3069 39.5391C44.8989 39.1853 39.6745 35.8539 36.0214 32.0367L34.2153 33.7652ZM37.8229 27.3517C36.7306 28.8737 35.5704 30.4889 34.1784 32.077L36.0584 33.7249C37.542 32.0323 38.7686 30.3218 39.854 28.8094L37.8229 27.3517ZM37.8238 27.3504L37.8225 27.3522L39.8543 28.8089L39.8556 28.8071L37.8238 27.3504ZM39.421 25.1628C38.8905 25.8652 38.3639 26.5961 37.8233 27.3511L39.8561 28.8064C40.3959 28.0523 40.9064 27.3442 41.4159 26.6696L39.421 25.1628ZM54.2866 30.9138C50.764 30.7524 48.2241 30.0823 46.2423 29.0891C44.2644 28.0979 42.7657 26.7468 41.3707 25.1064L39.4662 26.726C41.0033 28.5333 42.7551 30.1379 45.1222 31.3242C47.4854 32.5085 50.3849 33.2377 54.1722 33.4112L54.2866 30.9138ZM50.9524 27.2703L53.0669 32.6218L55.392 31.7032L53.2775 26.3516L50.9524 27.2703ZM51.5301 25.2033C50.896 25.6858 50.6632 26.5272 50.95 27.2643L53.2798 26.3576C53.3954 26.6546 53.3019 26.9965 53.044 27.1928L51.5301 25.2033ZM52.6029 24.8421C52.2196 24.8421 51.8478 24.9672 51.5417 25.1946L53.0324 27.2015C52.9135 27.2898 52.7641 27.3421 52.6029 27.3421V24.8421ZM53.6812 25.206C53.3629 24.9635 52.9811 24.8421 52.6029 24.8421V27.3421C52.4497 27.3421 52.2959 27.2935 52.1663 27.1947L53.6812 25.206ZM66.5572 35.108L53.6858 25.2095L52.1618 27.1913L65.0332 37.0897L66.5572 35.108Z" fill="#618396"/>
</svg>
