<svg width="19" height="19" viewBox="0 0 19 19" fill="none" xmlns="http://www.w3.org/2000/svg">
<path fill-rule="evenodd" clip-rule="evenodd" d="M5 7.25H4.38636C3.32563 7.25 2.75 7.82563 2.75 8.88636V14.6136C2.75 15.6744 3.32563 16.25 4.38636 16.25H10.1136C11.1744 16.25 11.75 15.6744 11.75 14.6136V14H8C6.34315 14 5 12.6569 5 11V7.25Z" fill="#3800D8"/>
<path opacity="0.3" fill-rule="evenodd" clip-rule="evenodd" d="M8.13636 3.5H13.8636C14.9244 3.5 15.5 4.07563 15.5 5.13636V10.8636C15.5 11.9244 14.9244 12.5 13.8636 12.5H8.13636C7.07563 12.5 6.5 11.9244 6.5 10.8636V5.13636C6.5 4.07563 7.07563 3.5 8.13636 3.5Z" fill="#3800D8"/>
</svg>
