<svg width="25" height="25" viewBox="0 0 25 25" fill="none" xmlns="http://www.w3.org/2000/svg">
<rect width="25" height="25" fill="#0D4EE3"/>
<g clip-path="url(#clip0_501_19409)">
<path d="M19.1261 11.2167C19.3589 10.9183 19.4892 10.5529 19.4979 10.1746C19.5065 9.79629 19.3929 9.4253 19.174 9.11667L17.1142 6.23325C16.9524 6.00652 16.7387 5.8217 16.4911 5.69417C16.2434 5.56663 15.9689 5.50007 15.6903 5.5H9.30981C9.03124 5.50007 8.75671 5.56663 8.50905 5.69417C8.26138 5.8217 8.04775 6.00652 7.8859 6.23325L5.82615 9.11667C5.60765 9.42556 5.49449 9.79662 5.50342 10.1749C5.51235 10.5531 5.6429 10.9184 5.87573 11.2167L12.5001 19.563L19.1261 11.2167ZM9.73098 10.75L11.3643 16.252L6.99456 10.75H9.73098ZM18.0056 10.75L13.6387 16.252L15.2691 10.75H18.0056ZM14.0523 10.75L12.5001 15.9878L10.9478 10.75H14.0523ZM10.9402 9.58333L11.7732 6.66667H13.2269L14.0599 9.58333H10.9402ZM16.1651 6.91108L18.0738 9.58333H15.2738L14.4402 6.66667H15.6903C15.7832 6.66666 15.8748 6.68883 15.9573 6.73135C16.0399 6.77386 16.1112 6.83548 16.1651 6.91108ZM8.83498 6.91108C8.88895 6.83548 8.96019 6.77386 9.04278 6.73135C9.12537 6.68883 9.21692 6.66666 9.30981 6.66667H10.5599L9.7269 9.58333H6.9269L8.83498 6.91108Z" fill="white"/>
</g>
<defs>
<clipPath id="clip0_501_19409">
<rect width="14" height="14" fill="white" transform="translate(5.5 5.5)"/>
</clipPath>
</defs>
</svg>
