<svg width="92" height="92" viewBox="0 0 92 92" fill="none" xmlns="http://www.w3.org/2000/svg">
<g clip-path="url(#clip0)">
<path d="M46 92C71.4051 92 92 71.4051 92 46C92 20.5949 71.4051 0 46 0C20.5949 0 0 20.5949 0 46C0 71.4051 20.5949 92 46 92Z" fill="#FBE698"/>
<path d="M43.1973 59.5533L69.3068 85.6628C82.8857 77.6662 91.9997 62.8986 91.9997 45.9999C91.9997 43.6907 91.8274 41.422 91.4989 39.2041L71.3311 19.0361L43.1973 59.5533Z" fill="#FEDA34"/>
<path d="M44.3416 40.5552C46.6379 40.5552 48.4995 38.6936 48.4995 36.3972C48.4995 34.1008 46.6379 32.2393 44.3416 32.2393C42.0452 32.2393 40.1836 34.1008 40.1836 36.3972C40.1836 38.6936 42.0452 40.5552 44.3416 40.5552Z" fill="#F2D99C"/>
<path d="M80.2414 61.0293L66.7178 59.2993C65.0576 59.0869 63.8138 57.6738 63.8138 56.0002V49.8662H54.0444V56.0002C54.0444 57.674 52.8006 59.0869 51.1405 59.2993L37.6168 61.0293C33.4772 61.5588 30.376 65.0821 30.376 69.2556V75.5245C37.8147 82.5821 47.8659 86.9127 58.9292 86.9127C62.5808 86.9127 66.121 86.4382 69.4945 85.5523C77.0013 81.0837 83.1277 74.5402 87.0825 66.7112C86.1192 63.723 83.5033 61.4465 80.2414 61.0293Z" fill="#D3BC89"/>
<path d="M66.897 52.4119L64.6015 53.648C61.074 55.5473 56.8286 55.5473 53.3011 53.648L51.0056 52.4119C46.7664 50.1293 44.123 45.7034 44.123 40.8889V26.7295H73.7797V40.8889C73.7796 45.7034 71.136 50.1293 66.897 52.4119Z" fill="#FFECB3"/>
<path d="M87.0817 66.7114C86.1184 63.7232 83.5027 61.4468 80.2406 61.0295L68.7951 59.5654C66.3274 62.1977 62.8212 63.8447 58.9282 63.8447C55.0353 63.8447 51.5291 62.1977 49.0614 59.5654L37.6159 61.0295C33.4762 61.5591 30.375 65.0824 30.375 69.2558V75.5247C35.1953 80.0981 41.1129 87.3949 47.692 91.966C64.9275 91.3423 79.7434 81.2388 87.0817 66.7114Z" fill="white"/>
<path d="M87.0821 66.7114C86.1188 63.7232 83.5031 61.4468 80.2411 61.0295L68.7955 59.5654C66.3279 62.1977 62.8216 63.8447 58.9287 63.8447V90.1553C71.2319 86.5588 81.3992 77.9617 87.0821 66.7114Z" fill="#F2F2F2"/>
<path d="M58.2249 63.8262C54.6146 63.6407 51.3801 62.0381 49.0623 59.5654L44.123 60.1972L51.9441 70.2901L58.9291 63.8479C58.6925 63.8479 58.4578 63.8404 58.2249 63.8262Z" fill="#E0E0E0"/>
<path d="M73.6082 42.7182H76.2128V31.0634C76.2128 21.5097 68.4514 13.7688 58.89 13.8019C49.3499 13.8349 41.6895 21.7106 41.6895 31.2508V42.7182H44.1228V34.6641C55.4169 36.127 64.3563 28.0478 64.3563 28.0478C64.3563 28.0478 68.2753 35.6407 73.6082 36.9873V42.7182Z" fill="#F29456"/>
<path d="M58.8901 13.8019C58.8459 13.802 58.802 13.8035 58.7578 13.804V31.76C62.2364 29.9633 64.3563 28.048 64.3563 28.048C64.3563 28.048 68.2753 35.6409 73.6083 36.9875V42.7184H76.2128V31.0635C76.2128 21.5097 68.4516 13.7688 58.8901 13.8019Z" fill="#EA8249"/>
<path d="M45.5328 40.5947H12.2295V67.9198H45.5328V40.5947Z" fill="#EA8249"/>
<path d="M45.5328 40.5947H28.75V67.9198H45.5328V40.5947Z" fill="#EA8249"/>
<path d="M46.5989 66.1692L35.3425 64.7294C33.9607 64.5526 32.9254 63.3765 32.9254 61.9834V56.8779H24.7938V61.9834C24.7938 63.3765 23.7586 64.5526 22.3768 64.7294L11.1205 66.1692C9.07616 66.4307 7.33877 67.5711 6.26172 69.1795C12.3727 79.6334 22.4882 87.4607 34.5063 90.5521C41.2266 89.6026 47.4105 86.9849 52.6256 83.1303V73.016C52.6258 69.5425 50.0446 66.61 46.5989 66.1692Z" fill="#F2D99C"/>
<path d="M36.5466 57.6673L34.3322 58.8598C30.9294 60.692 26.8338 60.692 23.4311 58.8598L21.2166 57.6673C17.1273 55.4655 14.5771 51.1961 14.5771 46.5515V32.8926H43.1857V46.5515C43.1861 51.1959 40.636 55.4655 36.5466 57.6673Z" fill="#FFECB3"/>
<path d="M46.5987 66.1698L37.072 64.9512C35.018 67.1421 32.0997 68.5129 28.8596 68.5129C25.6195 68.5129 22.701 67.1421 20.647 64.9512L11.1205 66.1698C9.07616 66.4313 7.33877 67.5717 6.26172 69.1801C14.1353 82.649 28.6587 91.7534 45.3292 91.9918C47.8164 91.9507 50.2539 91.7061 52.6256 91.272V73.0168C52.6256 69.5431 50.0444 66.6106 46.5987 66.1698Z" fill="#008CC3"/>
<path d="M28.8224 20.422C19.6193 20.4538 12.2295 28.0511 12.2295 37.2544V60.5074L14.1795 55.8799C14.7408 54.5479 15.0299 53.117 15.0299 51.6716V42.3627C29.928 40.4753 35.4099 33.6259 35.4099 33.6259C35.4099 33.6259 37.428 38.4245 42.7325 42.38V51.6716C42.7325 53.117 43.0216 54.5479 43.583 55.8797L45.533 60.5072V37.0734C45.533 27.8574 38.0459 20.39 28.8224 20.422Z" fill="#F29456"/>
<path d="M45.533 37.0736C45.533 27.8574 38.046 20.3902 28.8224 20.422C28.7982 20.422 28.7743 20.4231 28.75 20.4232V38.4166C33.4664 36.0535 35.4099 33.626 35.4099 33.626C35.4099 33.626 37.428 38.4245 42.7326 42.38V51.6716C42.7326 53.117 43.0217 54.5479 43.583 55.8797L45.533 60.5072V37.0736Z" fill="#EA8249"/>
<path d="M63.8036 75.2498L55.6025 74.2008C54.5957 74.072 53.8414 73.2152 53.8414 72.2002V68.4805H47.9169V72.2002C47.9169 73.2152 47.1626 74.072 46.1558 74.2008L37.9547 75.2498C35.4443 75.5709 33.5635 77.7076 33.5635 80.2385V87.6077C35.9763 89.3911 38.6738 90.8112 41.575 91.7876C43.0316 91.9265 44.507 92.0002 45.9997 92.0002C54.0486 92.0002 61.6134 89.9305 68.1947 86.2979V80.2383C68.1947 77.7076 66.3141 75.5709 63.8036 75.2498Z" fill="#F2D99C"/>
<path d="M56.4802 69.0554L54.8668 69.9242C52.3876 71.2591 49.4036 71.2591 46.9244 69.9242L45.311 69.0554C42.3316 67.4511 40.4736 64.3406 40.4736 60.9567V51.0049H61.3174V60.9567C61.3176 64.3406 59.4596 67.4511 56.4802 69.0554Z" fill="#FFECB3"/>
<path d="M63.8036 75.2501L56.8627 74.3623C55.3662 75.9586 53.24 76.9574 50.8793 76.9574C48.5185 76.9574 46.3923 75.9586 44.8957 74.3623L37.9547 75.2501C35.4443 75.5712 33.5635 77.7079 33.5635 80.2388V90.2981C37.5195 91.4062 41.69 92.0004 45.9997 92.0004C54.0486 92.0004 61.6134 89.9308 68.1947 86.2982V80.2386C68.1947 77.7079 66.3141 75.5712 63.8036 75.2501Z" fill="#94B052"/>
<path d="M38.748 57.6613C46.7634 57.6613 50.8644 51.7468 50.8644 51.7468C50.8644 51.7468 54.997 57.6613 63.0123 57.6613V54.0512C63.0123 47.3364 57.5574 41.8958 50.8372 41.919C44.132 41.9422 38.748 47.4776 38.748 54.1829V57.6613Z" fill="#F29456"/>
<path d="M50.8369 41.919C50.8218 41.919 50.8069 41.9203 50.792 41.9203V51.8451C50.8382 51.7835 50.864 51.7467 50.864 51.7467C50.864 51.7467 54.9967 57.6611 63.012 57.6611V54.051C63.012 47.3364 57.557 41.8958 50.8369 41.919Z" fill="#EA8249"/>
<path d="M38.7636 64.8246H31.0742L33.5575 56.0009C33.9659 54.5495 35.2897 53.5469 36.7974 53.5469H38.7636V64.8246Z" fill="#F29456"/>
<path d="M38.7638 53.5469H36.8398V57.6612H38.7638V53.5469Z" fill="#94B052"/>
<path d="M62.9961 64.8246H70.6855L68.2022 56.0009C67.7937 54.5495 66.47 53.5469 64.9622 53.5469H62.9961V64.8246Z" fill="#EA8249"/>
<path d="M64.921 53.5469H62.9971V57.6612H64.921V53.5469Z" fill="#94B052"/>
</g>
<defs>
<clipPath id="clip0">
<rect width="92" height="92" fill="white"/>
</clipPath>
</defs>
</svg>
