<svg width="80" height="81" viewBox="0 0 80 81" fill="none" xmlns="http://www.w3.org/2000/svg">
<path opacity="0.4" d="M40.0003 73.5C58.4098 73.5 73.3337 58.5761 73.3337 40.1666C73.3337 21.7572 58.4098 6.83331 40.0003 6.83331C21.5908 6.83331 6.66699 21.7572 6.66699 40.1666C6.66699 58.5761 21.5908 73.5 40.0003 73.5Z" fill="#000066"/>
<path d="M47.5329 40.5L42.4995 38.7333V27.4333H43.6995C46.3995 27.4333 48.5995 29.8 48.5995 32.7C48.5995 34.0667 49.7329 35.2 51.0995 35.2C52.4662 35.2 53.5995 34.0667 53.5995 32.7C53.5995 27.0333 49.1662 22.4333 43.6995 22.4333H42.4995V20.5C42.4995 19.1333 41.3662 18 39.9995 18C38.6329 18 37.4995 19.1333 37.4995 20.5V22.4333H35.3329C30.3995 22.4333 26.3662 26.6 26.3662 31.7C26.3662 37.6667 29.8329 39.5667 32.4662 40.5L37.4995 42.2667V53.5333H36.2995C33.5995 53.5333 31.3995 51.1667 31.3995 48.2667C31.3995 46.9 30.2662 45.7667 28.8995 45.7667C27.5329 45.7667 26.3995 46.9 26.3995 48.2667C26.3995 53.9333 30.8329 58.5333 36.2995 58.5333H37.4995V60.5C37.4995 61.8667 38.6329 63 39.9995 63C41.3662 63 42.4995 61.8667 42.4995 60.5V58.5667H44.6662C49.5995 58.5667 53.6329 54.4 53.6329 49.3C53.5995 43.3 50.1329 41.4 47.5329 40.5ZM34.1329 35.8C32.4329 35.2 31.3995 34.6333 31.3995 31.7333C31.3995 29.3667 33.1662 27.4667 35.3662 27.4667H37.5329V37L34.1329 35.8ZM44.6662 53.5667H42.4995V44.0333L45.8662 45.2C47.5662 45.8 48.5995 46.3667 48.5995 49.2667C48.5995 51.6333 46.8329 53.5667 44.6662 53.5667Z" fill="#000066"/>
</svg>
