<svg width="20" height="16" viewBox="0 0 20 16" fill="none" xmlns="http://www.w3.org/2000/svg">
<path d="M10.9002 9.30005H8.7002V16H10.9002V9.30005Z" fill="#0A4586"/>
<path d="M20.0002 9.30005H12.2002V10.6H20.0002V9.30005Z" fill="#0A4586"/>
<path d="M20.0002 12H12.2002V13.3H20.0002V12Z" fill="#0A4586"/>
<path d="M12.2002 14.7V16H19.3002C19.7002 16 20.0002 15.7 20.0002 15.3V14.6L12.2002 14.7Z" fill="#0A4586"/>
<path d="M0 14.7V15.4C0 15.7 0.3 16 0.7 16H7.4V14.7H0Z" fill="#0A4586"/>
<path d="M7.3 12H0V13.3H7.3V12Z" fill="#0A4586"/>
<path d="M7.3 9.30005H0V10.6H7.3V9.30005Z" fill="#0A4586"/>
<path d="M19.3 0H0.7C0.3 0 0 0.2 0 0.4V7.5C0 7.8 0.3 8 0.7 8H19.4C19.7 8 20 7.8 20 7.6V0.4C20 0.2 19.7 0 19.3 0ZM7.3 2.6H5.2C5 2.9 4.6 3.2 4 3.4V4.4C4.6 4.5 5 4.8 5.2 5.2H7.3V6H4.7C4.3 6 4 5.8 4 5.6C4 5.4 3.7 5.2 3.3 5.2C3 5.1 2.7 5 2.7 4.7V3C2.7 2.8 3 2.6 3.4 2.6C3.7 2.6 4 2.4 4 2.1C4 1.9 4.3 1.7 4.7 1.7H7.4L7.3 2.6ZM10.9 7.1H8.7V0.9H10.9V7.1ZM17.3 4.7C17.3 4.9 17 5.1 16.6 5.1C16.2 5.1 15.9 5.3 15.9 5.5C16 5.8 15.7 6 15.3 6H12.2V5.1H14.8C15 4.8 15.4 4.5 16 4.4V3.4C15.4 3.3 15 3 14.8 2.6H12.2V1.7H15.3C15.7 1.7 16 1.9 16 2.1C16 2.3 16.3 2.5 16.7 2.5C17.1 2.5 17.4 2.7 17.4 2.9L17.3 4.7Z" fill="#FF3333"/>
</svg>
