<svg width="50" height="50" viewBox="0 0 50 50" fill="none" xmlns="http://www.w3.org/2000/svg">
<path d="M37.3996 50C44.3589 50 50.0004 44.3584 50.0004 37.3992C50.0004 30.44 44.3589 24.7984 37.3996 24.7984C30.4404 24.7984 24.7988 30.44 24.7988 37.3992C24.7988 44.3584 30.4404 50 37.3996 50Z" fill="#0A4586"/>
<path d="M37.3992 47.5807C43.0223 47.5807 47.5807 43.0223 47.5807 37.3992C47.5807 31.7762 43.0223 27.2178 37.3992 27.2178C31.7762 27.2178 27.2178 31.7762 27.2178 37.3992C27.2178 43.0223 31.7762 47.5807 37.3992 47.5807Z" fill="#093B73"/>
<path d="M40.1214 33.2661H37.0972C35.9883 33.2661 35.0811 34.1734 35.0811 35.2822C35.0811 36.3911 35.9883 37.2984 37.0972 37.2984H38.1052C39.2141 37.2984 40.1214 38.2056 40.1214 39.3145C40.1214 40.4234 39.2141 41.3306 38.1052 41.3306H35.0811" stroke="white" stroke-width="1.6" stroke-miterlimit="10" stroke-linejoin="round"/>
<path d="M37.5 33.2661V31.25" stroke="white" stroke-width="1.6" stroke-miterlimit="10" stroke-linejoin="round"/>
<path d="M37.5 43.3468V41.3306" stroke="white" stroke-width="1.6" stroke-miterlimit="10" stroke-linejoin="round"/>
<path d="M15.121 30.2419C23.472 30.2419 30.2419 23.472 30.2419 15.121C30.2419 6.76989 23.472 0 15.121 0C6.76989 0 0 6.76989 0 15.121C0 23.472 6.76989 30.2419 15.121 30.2419Z" fill="#ED2939"/>
<path d="M15.1205 26.9153C21.6344 26.9153 26.9149 21.6348 26.9149 15.121C26.9149 8.60711 21.6344 3.3266 15.1205 3.3266C8.60669 3.3266 3.32617 8.60711 3.32617 15.121C3.32617 21.6348 8.60669 26.9153 15.1205 26.9153Z" fill="#B32D11"/>
<path d="M14.8188 19.9597L11.0889 21.6734C10.9881 21.7742 10.7865 21.6734 10.7865 21.4717L11.2906 17.3387C11.2906 17.1371 11.2906 16.8347 11.0889 16.7338L8.26636 13.7097C8.16556 13.6088 8.26637 13.4072 8.36717 13.4072L12.3994 12.6008C12.601 12.6008 12.8027 12.3992 12.9035 12.1976L14.9196 8.56852C15.0204 8.46772 15.222 8.46772 15.222 8.56852L17.2381 12.1976C17.3389 12.3992 17.5406 12.5 17.7422 12.6008L21.7744 13.4072C21.976 13.4072 21.976 13.6088 21.8752 13.7097L19.0527 16.7338C18.851 16.9355 18.851 17.1371 18.851 17.3387L19.3551 21.4717C19.3551 21.6734 19.2543 21.7742 19.0527 21.6734L15.3228 19.9597C15.222 19.8588 15.0204 19.8588 14.8188 19.9597Z" fill="white"/>
<path d="M15.1207 46.5726H8.46746V48.2863L5.04004 44.8589L8.46746 41.4315V43.1452H15.1207C15.7255 43.1452 16.1287 43.5484 16.1287 44.1532V45.4637C16.1287 46.1694 15.7255 46.5726 15.1207 46.5726Z" fill="#ED2939"/>
<path d="M10.5842 35.8871H17.3383V34.1734L20.7657 37.6008L17.3383 41.0282V39.3145H10.5842C9.9794 39.3145 9.57617 38.9113 9.57617 38.3065V36.996C9.57617 36.2903 10.0802 35.8871 10.5842 35.8871Z" fill="#3DA8FB"/>
<path d="M33.3672 6.35081C33.3672 6.95565 33.8712 7.45969 34.4761 7.45969H41.1293C41.7341 7.45969 42.2382 6.95565 42.2382 6.35081C42.2382 5.74598 41.7341 5.24194 41.1293 5.24194H34.4761C33.8712 5.24194 33.3672 5.74598 33.3672 6.35081Z" fill="#ED2939"/>
<path d="M44.4561 6.35081C44.4561 6.95565 44.9601 7.45969 45.5649 7.45969H47.7827C48.3875 7.45969 48.8915 6.95565 48.8915 6.35081C48.8915 5.74598 48.3875 5.24194 47.7827 5.24194H45.5649C44.9601 5.24194 44.4561 5.74598 44.4561 6.35081Z" fill="#3DA8FB"/>
<path d="M34.4756 13.004C34.4756 13.6089 34.9796 14.1129 35.5845 14.1129H48.8909C49.4958 14.1129 49.9998 13.6089 49.9998 13.004C49.9998 12.3992 49.4958 11.8951 48.8909 11.8951H35.5845C34.9796 11.8951 34.4756 12.3992 34.4756 13.004Z" fill="#3DA8FB"/>
<path d="M33.3672 18.5484C33.3672 19.1532 33.8712 19.6573 34.4761 19.6573H36.6938C37.2986 19.6573 37.8027 19.1532 37.8027 18.5484C37.8027 17.9435 37.2986 17.4395 36.6938 17.4395H34.4761C33.8712 17.4395 33.3672 17.9435 33.3672 18.5484Z" fill="#ED2939"/>
<path d="M40.0205 18.5484C40.0205 19.1532 40.5245 19.6573 41.1294 19.6573H42.2382C42.8431 19.6573 43.3471 19.1532 43.3471 18.5484C43.3471 17.9435 42.8431 17.4395 42.2382 17.4395H41.1294C40.5245 17.4395 40.0205 17.9435 40.0205 18.5484Z" fill="#3DA8FB"/>
</svg>
