<svg width="64" height="64" viewBox="0 0 64 64" fill="none" xmlns="http://www.w3.org/2000/svg">
<path d="M10 31H30C30.2652 31 30.5196 30.8946 30.7071 30.7071C30.8946 30.5196 31 30.2652 31 30V14C31 13.7348 30.8946 13.4804 30.7071 13.2929C30.5196 13.1054 30.2652 13 30 13H27V12H25V13H21V12H19V13H15V12H13V13H10C9.73478 13 9.48043 13.1054 9.29289 13.2929C9.10536 13.4804 9 13.7348 9 14V30C9 30.2652 9.10536 30.5196 9.29289 30.7071C9.48043 30.8946 9.73478 31 10 31ZM11 29V20H29V29H11ZM13 15V16H15V15H19V16H21V15H25V16H27V15H29V18H11V15H13Z" fill="url(#paint0_linear)"/>
<path d="M61.06 20.94C60.4894 20.3938 59.7299 20.0889 58.94 20.0889C58.1501 20.0889 57.3906 20.3938 56.82 20.94L38 39.76V7C38 5.67392 37.4732 4.40215 36.5355 3.46447C35.5979 2.52678 34.3261 2 33 2H7C5.67392 2 4.40215 2.52678 3.46447 3.46447C2.52678 4.40215 2 5.67392 2 7V57C2 58.3261 2.52678 59.5979 3.46447 60.5355C4.40215 61.4732 5.67392 62 7 62H33C34.3261 62 35.5979 61.4732 36.5355 60.5355C37.4732 59.5979 38 58.3261 38 57V48.24L61.06 25.18C61.6218 24.6175 61.9374 23.855 61.9374 23.06C61.9374 22.265 61.6218 21.5025 61.06 20.94ZM29.72 4L29.22 6H10.78L10.28 4H29.72ZM36 57C35.9976 57.7949 35.6808 58.5566 35.1187 59.1187C34.5566 59.6808 33.7949 59.9976 33 60H7C6.20508 59.9976 5.4434 59.6808 4.8813 59.1187C4.31921 58.5566 4.00237 57.7949 4 57V7C4.00237 6.20508 4.31921 5.4434 4.8813 4.8813C5.4434 4.31921 6.20508 4.00237 7 4H8.22L9.03 7.24C9.0836 7.4568 9.20823 7.64942 9.38403 7.78716C9.55982 7.9249 9.77667 7.99983 10 8H30C30.2233 7.99983 30.4402 7.9249 30.616 7.78716C30.7918 7.64942 30.9164 7.4568 30.97 7.24L31.78 4H33C33.7949 4.00237 34.5566 4.31921 35.1187 4.8813C35.6808 5.4434 35.9976 6.20508 36 7V41.76L31 46.76V46H9V48H29.76L28.54 49.22C28.4814 49.2787 28.4278 49.3422 28.38 49.41L26.83 52H9V54H25.63L24.14 56.49C24.028 56.6817 23.982 56.9049 24.0091 57.1253C24.0362 57.3457 24.1349 57.5511 24.29 57.71C24.4484 57.866 24.6538 57.9653 24.8745 57.9925C25.0951 58.0196 25.3186 57.973 25.51 57.86L32.59 53.61C32.6598 53.5688 32.7237 53.5183 32.78 53.46L36 50.24V57ZM59.65 23.77L31.45 51.96L27.92 54.08L30.04 50.55L58.23 22.35C58.4211 22.1671 58.6755 22.065 58.94 22.065C59.2045 22.065 59.4589 22.1671 59.65 22.35C59.8374 22.5388 59.9425 22.794 59.9425 23.06C59.9425 23.326 59.8374 23.5812 59.65 23.77Z" fill="url(#paint1_linear)"/>
<path d="M9 34H13V36H9V34Z" fill="url(#paint2_linear)"/>
<path d="M15 34H31V36H15V34Z" fill="url(#paint3_linear)"/>
<path d="M9 40H31V42H9V40Z" fill="url(#paint4_linear)"/>
<defs>
<linearGradient id="paint0_linear" x1="9" y1="21.5" x2="31" y2="21.5" gradientUnits="userSpaceOnUse">
<stop stop-color="#4E2267"/>
<stop offset="1" stop-color="#9441C4"/>
</linearGradient>
<linearGradient id="paint1_linear" x1="2" y1="32" x2="61.9374" y2="32" gradientUnits="userSpaceOnUse">
<stop stop-color="#4E2267"/>
<stop offset="1" stop-color="#9441C4"/>
</linearGradient>
<linearGradient id="paint2_linear" x1="9" y1="35" x2="13" y2="35" gradientUnits="userSpaceOnUse">
<stop stop-color="#4E2267"/>
<stop offset="1" stop-color="#9441C4"/>
</linearGradient>
<linearGradient id="paint3_linear" x1="15" y1="35" x2="31" y2="35" gradientUnits="userSpaceOnUse">
<stop stop-color="#4E2267"/>
<stop offset="1" stop-color="#9441C4"/>
</linearGradient>
<linearGradient id="paint4_linear" x1="9" y1="41" x2="31" y2="41" gradientUnits="userSpaceOnUse">
<stop stop-color="#4E2267"/>
<stop offset="1" stop-color="#9441C4"/>
</linearGradient>
</defs>
</svg>
