<svg width="40" height="32" viewBox="0 0 40 32" fill="none" xmlns="http://www.w3.org/2000/svg">
<path d="M10.3522 13.6413C9.53452 15.33 8.91236 17.1787 9.01013 19.0541C9.22344 23.1604 12.7431 26.2623 16.1828 28.5109C19.2847 30.5463 22.8488 32.3772 26.5284 31.9328C30.6613 31.4351 34.021 28.0754 35.612 24.2269C37.2029 20.3784 35.3276 17.0898 35.2298 12.9214C35.1676 10.1127 36.9629 6.17536 35.4786 3.78448C29.0348 -6.60562 13.5697 6.98417 10.3522 13.6413Z" fill="#F3F8F9"/>
<path d="M20.2529 12.4813C19.3927 11.8379 18.2877 11.5652 17.0359 11.6911C17.0219 11.6911 17.0079 11.6911 16.994 11.6911C16.973 11.6911 16.945 11.6981 16.924 11.6981C16.896 11.6981 16.8681 11.705 16.8401 11.705C16.8261 11.705 16.8121 11.712 16.7981 11.719C15.5533 11.8869 14.5392 12.4044 13.8539 13.2296C13.6091 13.5233 13.6511 13.9639 13.9448 14.2157C14.0777 14.3206 14.2315 14.3766 14.3924 14.3766C14.5952 14.3766 14.791 14.2926 14.9309 14.1248C15.4064 13.5513 16.1477 13.2016 17.0849 13.0898C18.022 12.9779 18.8262 13.1527 19.4137 13.6003C19.5396 13.6982 19.6864 13.7401 19.8333 13.7401C20.0431 13.7401 20.2529 13.6422 20.3928 13.4604C20.6236 13.1527 20.5606 12.7121 20.2529 12.4813Z" fill="#8ACB8F"/>
<path d="M21.1271 10.6491C20.0081 9.80992 18.5535 9.46025 16.917 9.6211C16.896 9.6211 16.882 9.6211 16.8611 9.6211C16.8261 9.6211 16.7981 9.62809 16.7632 9.63509C16.7282 9.64208 16.7002 9.64208 16.6652 9.64208C16.6443 9.64208 16.6303 9.64907 16.6093 9.65607C14.9728 9.87286 13.6441 10.5512 12.7489 11.6282C12.5041 11.922 12.5461 12.3625 12.8398 12.6143C12.9727 12.7192 13.1265 12.7752 13.2874 12.7752C13.4902 12.7752 13.686 12.6912 13.8259 12.5234C14.5113 11.6912 15.5883 11.1806 16.924 11.0268C18.2668 10.8659 19.4277 11.1177 20.2879 11.7681C20.4138 11.866 20.5606 11.908 20.7075 11.908C20.9173 11.908 21.1271 11.8101 21.267 11.6282C21.4977 11.3205 21.4348 10.8799 21.1271 10.6491Z" fill="#8ACB8F"/>
<path d="M22.2044 8.96363C20.7288 7.85166 18.7986 7.3901 16.6096 7.62088C16.6026 7.62088 16.6026 7.62088 16.5956 7.62088C16.5816 7.62088 16.5676 7.62787 16.5537 7.62787C16.4837 7.63487 16.4068 7.64186 16.3369 7.64885C16.3089 7.64885 16.2879 7.66284 16.2669 7.66284C14.1129 7.94957 12.3646 8.83775 11.1967 10.2434C10.9519 10.5372 10.9938 10.9777 11.2876 11.2295C11.4204 11.3344 11.5743 11.3904 11.7352 11.3904C11.938 11.3904 12.1338 11.3064 12.2737 11.1386C13.2457 9.9637 14.7563 9.23637 16.6306 9.01958C18.5118 8.79578 20.1483 9.15245 21.3652 10.0756C21.4911 10.1735 21.6379 10.2155 21.7848 10.2155C21.9946 10.2155 22.2044 10.1176 22.3443 9.93572C22.575 9.635 22.5121 9.19441 22.2044 8.96363Z" fill="#8ACB8F"/>
<path d="M29.8339 12.6493L23.2321 3.12413C23.1901 3.06119 23.1272 3.01923 23.0502 3.00525C22.9803 2.99126 22.9034 3.00525 22.8404 3.04721C18.7213 5.90054 13.5041 6.43904 8.88844 4.49486C8.74857 4.43191 8.58073 4.50185 8.52478 4.64172L4.02098 15.3208C3.99301 15.3907 3.99301 15.4676 4.02098 15.5376C4.04895 15.6075 4.1049 15.6634 4.16784 15.6914C7.1051 16.9293 10.2102 17.6286 13.3922 17.7685C13.4062 17.7895 13.4202 17.8174 13.4412 17.8384L13.9377 18.5168C14.3154 19.0693 14.693 19.6637 15.0707 20.2931C15.3154 20.7057 15.6022 21.1953 15.847 21.7058C16.1337 22.2933 16.2106 22.8877 16.2945 23.5171C16.4414 24.6011 16.6652 25.6991 16.9659 26.7761C17.2177 27.6642 17.4345 28.0209 18.1548 28.6643C18.3996 28.8881 18.6583 29 18.9311 29C18.9381 29 18.9521 29 18.966 29L19.0709 28.986C19.0779 28.986 19.0919 28.986 19.0989 28.979C19.3577 28.9161 19.5885 28.7482 19.7843 28.4755C20.3438 27.6852 20.4836 27.2936 20.5396 26.3705C20.6025 25.2515 20.5885 24.1255 20.4976 23.0416C20.4417 22.4121 20.3927 21.8177 20.5466 21.1743C20.6794 20.6148 20.8543 20.0763 21.0081 19.6148C21.2459 18.9084 21.4837 18.258 21.7285 17.6356L22.0711 16.8523C22.0921 16.8034 22.1061 16.7544 22.1271 16.7055C24.8546 15.9012 27.4282 14.6704 29.771 13.0479C29.8339 13.0059 29.8759 12.943 29.8899 12.866C29.8968 12.7821 29.8759 12.7052 29.8339 12.6493ZM21.5536 16.6215L21.2109 17.4118C20.9522 18.0482 20.7144 18.7126 20.4766 19.4329C20.3228 19.9015 20.1409 20.461 20.0011 21.0414C19.8262 21.7687 19.8822 22.4401 19.9381 23.0835C20.0291 24.1465 20.043 25.2445 19.9731 26.3355C19.9241 27.1467 19.8123 27.4544 19.3227 28.1538C19.2178 28.3076 19.0989 28.3986 18.98 28.4265L18.9101 28.4335C18.7842 28.4265 18.6583 28.3706 18.5255 28.2447C17.896 27.6712 17.7212 27.3985 17.5044 26.6222C17.2107 25.5732 16.9869 24.4962 16.847 23.4402C16.7631 22.7968 16.6722 22.1324 16.3505 21.461C16.0917 20.9295 15.798 20.426 15.5462 19.9994C15.1616 19.363 14.7769 18.7546 14.3923 18.1881L13.8958 17.5027C13.658 17.174 13.665 16.7404 13.9168 16.4397C14.6441 15.5655 15.7211 15.062 17.2876 14.8662C17.3086 14.8662 17.3296 14.8662 17.3575 14.8662C17.4205 14.8592 17.4764 14.8522 17.5394 14.8382C17.5953 14.8312 17.6583 14.8242 17.7212 14.8242C17.7422 14.8242 17.7702 14.8172 17.7911 14.8102C19.3157 14.6424 20.4207 14.8872 21.3228 15.5865C21.6166 15.8173 21.7145 16.2439 21.5536 16.6215ZM22.176 16.097C22.1341 15.7264 21.9523 15.3837 21.6445 15.1459C20.5675 14.3137 19.2738 14.0479 17.4624 14.2857C15.6371 14.4676 14.3294 15.055 13.4762 16.083C13.2174 16.3978 13.1125 16.8034 13.1754 17.195C10.2382 17.0412 7.37086 16.3978 4.6434 15.2788L8.9304 5.11727C13.5741 6.97754 18.7632 6.43904 22.9313 3.66963L29.2115 12.7402C27.0505 14.2018 24.6797 15.3347 22.176 16.097Z" fill="#1F5274"/>
<path d="M20.7915 16.0831C17.3367 14.9782 14.5183 16.7615 14.4134 16.9224C14.3295 17.0482 14.3645 17.2231 14.4903 17.307C14.5393 17.342 14.5952 17.356 14.6442 17.356C14.7071 17.356 14.7771 17.335 14.826 17.286C14.9449 17.2021 17.4486 15.6006 20.6236 16.6077C20.7705 16.6566 20.9243 16.5727 20.9733 16.4258C21.0223 16.293 20.9383 16.1321 20.7915 16.0831Z" fill="#1F5274"/>
<path d="M8.93024 7.467C8.79037 7.41106 8.62253 7.474 8.56658 7.62086L6.11886 13.5653C6.06291 13.7052 6.12585 13.873 6.27272 13.929C6.30768 13.943 6.34265 13.95 6.37762 13.95C6.48951 13.95 6.59442 13.887 6.63638 13.7751L9.09109 7.83067C9.14004 7.6908 9.07011 7.52995 8.93024 7.467Z" fill="#1F5274"/>
</svg>
