<svg width="39" height="50" viewBox="0 0 39 50" fill="none" xmlns="http://www.w3.org/2000/svg">
<g clip-path="url(#clip0)">
<path d="M25.5801 0H2.80136C1.24505 0 0 1.24505 0 2.80136V47.1986C0 48.755 1.27334 50 2.80136 50H25.5801C27.1081 50 28.3814 48.755 28.3814 47.1986C28.3814 46.8308 28.3814 5.80079 28.3814 2.80136C28.3814 1.24505 27.1364 0 25.5801 0Z" fill="#0A4586"/>
<path d="M2.06565 47.1986C2.06565 46.8308 2.06565 5.80079 2.06565 2.80136C2.06565 1.24505 3.3107 0 4.86701 0H2.80136C1.24505 0 0 1.24505 0 2.80136V47.1986C0 48.755 1.27334 50 2.80136 50H4.86701C3.33899 50 2.06565 48.755 2.06565 47.1986Z" fill="#093B73"/>
<path d="M3.48047 10.5829V40.8319C3.48047 41.2564 3.82003 41.6242 4.27277 41.6242H24.1369C24.5614 41.6242 24.9293 41.2846 24.9293 40.8319V10.5829H3.48047Z" fill="#3DA8FB"/>
<path d="M24.136 6.9043H4.24348C3.81903 6.9043 3.45117 7.24386 3.45117 7.6966V10.8092H24.9V7.6966C24.9 7.27215 24.5604 6.9043 24.136 6.9043Z" fill="#3799E6"/>
<path d="M7.95032 6.9043H4.24348C3.81903 6.9043 3.45117 7.24386 3.45117 7.6966V10.8092H7.92203V6.9043H7.95032Z" fill="#FF3333"/>
<path d="M15.9872 45.7554C15.9872 46.7458 15.1666 47.5664 14.1762 47.5664C13.1858 47.5664 12.3652 46.7458 12.3652 45.7554C12.3652 44.7651 13.1858 43.9445 14.1762 43.9445C15.1949 43.9445 15.9872 44.7651 15.9872 45.7554Z" fill="white"/>
<path d="M16.2713 4.04645H12.1117C11.6872 4.04645 11.3477 3.70689 11.3477 3.28244C11.3477 2.85799 11.6872 2.51843 12.1117 2.51843H16.2713C16.6957 2.51843 17.0353 2.85799 17.0353 3.28244C17.007 3.70689 16.6674 4.04645 16.2713 4.04645Z" fill="white"/>
<path d="M36.051 15.5914H14.1777V36.8139H36.0227C37.5224 36.8139 38.7391 35.5971 38.7391 34.0974V18.3079C38.7674 16.8082 37.5507 15.5914 36.051 15.5914Z" fill="#FF3333"/>
<path d="M29.7951 29.0889C30.3611 29.0606 30.8987 29.2303 31.3231 29.5699C31.4929 29.6831 31.7193 29.6831 31.8891 29.5699C33.3888 28.4097 35.5676 29.485 35.6242 31.3526C35.6808 33.305 33.4454 34.4369 31.9174 33.2767C31.7476 33.1353 31.4929 33.1353 31.3231 33.2767C29.7951 34.4369 27.5597 33.305 27.6163 31.3526C27.6163 30.1358 28.6067 29.1455 29.7951 29.0889Z" fill="white"/>
<path d="M30.9282 29.3152C30.5886 29.1455 30.2208 29.0606 29.7963 29.0889C28.6079 29.1455 27.6175 30.1358 27.5892 31.3243C27.5326 33.0504 29.3436 34.2388 30.8999 33.4748C29.1738 32.6542 29.1738 30.1641 30.9282 29.3152Z" fill="#3DA8FB"/>
<path d="M14.1777 19.7793V23.6842H38.7674C38.7674 23.2598 38.7674 20.2037 38.7674 19.7793H14.1777Z" fill="white"/>
</g>
<defs>
<clipPath id="clip0">
<rect width="38.7663" height="50" fill="white"/>
</clipPath>
</defs>
</svg>
