<svg width="92" height="92" viewBox="0 0 92 92" fill="none" xmlns="http://www.w3.org/2000/svg">
<path d="M46 92C71.4051 92 92 71.4051 92 46C92 20.5949 71.4051 0 46 0C20.5949 0 0 20.5949 0 46C0 71.4051 20.5949 92 46 92Z" fill="#94B052"/>
<path d="M85.9461 68.8251L58.0036 40.8826L57.9134 41.3812L44.0185 27.4863L29.2432 34.7878L22.2178 71.5815L42.5054 91.8691C43.6588 91.9557 44.8241 91.9999 45.9996 91.9999C63.0981 91.9999 78.0177 82.6709 85.9461 68.8251Z" fill="#B6D868"/>
<path d="M54.9223 35.6042L86.7256 67.4075C90.0938 61.0133 92.0001 53.7291 92.0001 45.9998C92.0001 41.9801 91.4844 38.0807 90.5157 34.3642L70.6437 14.4922L52.8271 19.8828L60.7557 27.8113L54.9223 35.6042Z" fill="#B6D868"/>
<path d="M53.2932 67.4095C41.6748 67.4095 32.2561 57.9908 32.2561 46.3724C32.2561 38.083 37.0512 30.9146 44.0183 27.4865C43.2183 27.4134 42.4084 27.374 41.5893 27.374C27.0371 27.374 15.2402 39.1709 15.2402 53.723C15.2402 68.2752 27.0371 80.0721 41.5893 80.0721C52.9078 80.0721 62.5582 72.9349 66.2887 62.9162C62.7112 65.7307 58.1983 67.4095 53.2932 67.4095Z" fill="white"/>
<path d="M53.2947 67.4086C46.3284 67.4086 40.1542 64.0216 36.3256 58.8057L20.2344 69.1555C25.0214 75.7683 32.8032 80.0713 41.591 80.0713C52.9095 80.0713 62.5598 72.9341 66.2904 62.9155C62.7127 65.7297 58.1998 67.4086 53.2947 67.4086Z" fill="#E9EDF5"/>
<path d="M73.339 35.6042H54.9223L53.0165 31.0031L64.1369 19.8828H52.8271V14.4922H70.6437L72.5497 19.0934L61.4293 30.2136H73.339V35.6042Z" fill="#FEDA34"/>
<path d="M72.5498 19.0934L70.6439 14.4922H62.1504V19.8828H64.137L62.1504 21.8693V29.4927L72.5498 19.0934Z" fill="#FDBA12"/>
<path d="M62.1504 30.2139H73.3392V35.6045H62.1504V30.2139Z" fill="#FDBA12"/>
<path d="M60.6991 58.2763H45.9998L44.094 53.6752L51.4966 46.2725H43.7627V40.8818H58.0038L59.9096 45.4829L52.507 52.8857H60.6991V58.2763Z" fill="#FEDA34"/>
<path d="M60.699 52.8857H52.5069L59.9095 45.4829L58.0037 40.8818H51.4336V46.2725H51.4965L51.4336 46.3354V58.2763H60.699V52.8857Z" fill="#FDBA12"/>
</svg>
