<svg width="92" height="92" viewBox="0 0 92 92" fill="none" xmlns="http://www.w3.org/2000/svg">
<path d="M46 92C71.4051 92 92 71.4051 92 46C92 20.5949 71.4051 0 46 0C20.5949 0 0 20.5949 0 46C0 71.4051 20.5949 92 46 92Z" fill="#94B052"/>
<path d="M91.6513 51.6927L70.4559 30.4973L66.8656 37.0275L48.7326 18.8945L40.9732 52.3744L11.3262 59.4047L43.8731 91.9517C44.5781 91.9837 45.2873 92 46.0001 92C69.4777 92 88.8471 74.4117 91.6513 51.6927Z" fill="#B6D868"/>
<path d="M80.6737 45.0042L71.6773 37.8135L67.1729 49.2874L80.6737 45.0042Z" fill="#FE8205"/>
<path d="M24.827 49.2874L11.3262 45.0042L20.3226 37.8135L24.827 49.2874Z" fill="#FFA300"/>
<path d="M43.2676 18.8945H48.7326V38.9155H43.2676V18.8945Z" fill="#636978"/>
<path d="M46.0215 18.8945H48.7323V38.9155H46.0215V18.8945Z" fill="#414952"/>
<path d="M66.5332 69.7809C66.7796 69.3879 67.0031 68.9791 67.202 68.5565C73.5613 56.5784 74.4803 44.882 74.6131 41.7317C74.6273 41.4688 74.6348 41.2043 74.6353 40.938C74.6355 40.917 74.6355 40.9064 74.6355 40.9064C74.6355 32.6357 68.0214 25.9752 59.7509 25.9203C55.932 25.8949 52.4412 27.2979 49.7815 29.6269C47.6049 31.5324 44.3946 31.5324 42.2181 29.6269C39.5584 27.2981 36.0676 25.8949 32.2487 25.9203C23.9782 25.9752 17.3641 32.6359 17.3643 40.9064C17.3643 40.9064 17.3643 40.917 17.3644 40.938C17.365 41.2043 17.3725 41.4688 17.3867 41.7317C17.5195 44.8821 18.4384 56.5785 24.7979 68.5569C24.9968 68.9793 25.2202 69.3879 25.4664 69.7807C25.4665 69.7809 25.4667 69.7813 25.4667 69.7814H25.4669C27.5308 73.0744 31.1925 75.2623 35.367 75.2623C37.8549 75.2623 40.161 74.4839 42.0553 73.1576C44.4135 71.5064 47.5868 71.5064 49.945 73.1576C51.8393 74.4839 54.1454 75.2621 56.6333 75.2623C60.8078 75.2623 64.4695 73.0746 66.5334 69.7814C66.533 69.7813 66.5332 69.7811 66.5332 69.7809Z" fill="#FEDA34"/>
<path d="M59.7509 25.9203C55.932 25.8949 52.4412 27.2979 49.7814 29.6267C48.699 30.5743 47.3609 31.0503 46.0215 31.0554V71.9197C47.3972 71.924 48.7718 72.3361 49.9446 73.1572C51.8389 74.4835 54.145 75.2617 56.6329 75.2619C60.8074 75.2619 64.4691 73.0742 66.533 69.7811C66.533 69.7809 66.5332 69.7807 66.5332 69.7805C66.7795 69.3876 67.0031 68.9788 67.202 68.5562C73.5613 56.578 74.4802 44.8816 74.613 41.7313C74.6272 41.4684 74.6347 41.2039 74.6353 40.9376C74.6355 40.9168 74.6355 40.906 74.6355 40.906C74.6355 32.6357 68.0213 25.9751 59.7509 25.9203Z" fill="#F8D671"/>
<path d="M80.674 59.405H75.8466L73.1512 59.0488L70.4559 59.405H64.9861L62.2908 59.0488L59.5954 59.405H54.1256L51.4303 58.9025L48.735 59.405H43.2653L40.57 58.9171L37.8746 59.405H32.4048L29.7095 58.7561L27.0141 59.405H21.5443L18.849 58.8147L16.1537 59.405H11.3262V45.0039H80.674V59.405Z" fill="#FFCE00"/>
<path d="M80.6737 45.0039H46.0215V59.405H48.7346L51.4299 58.9025L54.1231 59.405H59.5951L62.2904 59.0488L64.9857 59.405H70.4556L73.1509 59.0488L75.8462 59.405H80.6737V45.0039Z" fill="#FDBA12"/>
<path d="M16.1533 50.5908H21.5439V59.405H16.1533V50.5908Z" fill="#FFA300"/>
<path d="M27.0137 54.0146H32.4043V59.4053H27.0137V54.0146Z" fill="#FFA300"/>
<path d="M37.874 50.5908H43.2646V59.405H37.874V50.5908Z" fill="#FFA300"/>
<path d="M48.7344 54.0146H54.125V59.4053H48.7344V54.0146Z" fill="#FE8205"/>
<path d="M59.5957 50.5908H64.9863V59.405H59.5957V50.5908Z" fill="#FE8205"/>
<path d="M70.4551 54.0146H75.8457V59.4053H70.4551V54.0146Z" fill="#FE8205"/>
</svg>
