<svg width="17" height="16" viewBox="0 0 17 16" fill="none" xmlns="http://www.w3.org/2000/svg">
<mask id="mask0_4219_25928" style="mask-type:alpha" maskUnits="userSpaceOnUse" x="0" y="0" width="17" height="16">
<rect x="0.333984" width="16" height="16" fill="#D9D9D9"/>
</mask>
<g mask="url(#mask0_4219_25928)">
<path d="M5.31797 14.0002C4.30686 14.0002 3.44575 13.6446 2.73464 12.9335C2.02352 12.2224 1.66797 11.3613 1.66797 10.3502C1.66797 9.39461 1.98741 8.56961 2.6263 7.87516C3.26519 7.18072 4.06241 6.79461 5.01797 6.71683L2.33464 1.3335H7.0013L8.33463 4.00016L9.66797 1.3335H14.3346L11.668 6.6835C12.6124 6.77239 13.4041 7.16405 14.043 7.8585C14.6819 8.55294 15.0013 9.37794 15.0013 10.3335C15.0013 11.3557 14.6457 12.2224 13.9346 12.9335C13.2235 13.6446 12.3569 14.0002 11.3346 14.0002C11.2346 14.0002 11.1319 13.9974 11.0263 13.9918C10.9207 13.9863 10.818 13.9724 10.718 13.9502C11.3291 13.5502 11.8069 13.0307 12.1513 12.3918C12.4957 11.7529 12.668 11.0668 12.668 10.3335C12.668 9.12239 12.2485 8.09738 11.4096 7.2585C10.5707 6.41961 9.54575 6.00016 8.33463 6.00016C7.12352 6.00016 6.09852 6.41961 5.25964 7.2585C4.42075 8.09738 4.0013 9.12239 4.0013 10.3335C4.0013 11.0891 4.15686 11.8002 4.46797 12.4668C4.77908 13.1335 5.26797 13.6279 5.93464 13.9502C5.83464 13.9724 5.73186 13.9863 5.6263 13.9918C5.52075 13.9974 5.41797 14.0002 5.31797 14.0002ZM8.33463 13.3335C7.5013 13.3335 6.79297 13.0418 6.20964 12.4585C5.6263 11.8752 5.33464 11.1668 5.33464 10.3335C5.33464 9.50016 5.6263 8.79183 6.20964 8.2085C6.79297 7.62516 7.5013 7.3335 8.33463 7.3335C9.16797 7.3335 9.8763 7.62516 10.4596 8.2085C11.043 8.79183 11.3346 9.50016 11.3346 10.3335C11.3346 11.1668 11.043 11.8752 10.4596 12.4585C9.8763 13.0418 9.16797 13.3335 8.33463 13.3335ZM7.1013 12.1668L8.33463 11.2335L9.56797 12.1668L9.1013 10.6502L10.3346 9.76683H8.81797L8.33463 8.16683L7.8513 9.76683H6.33464L7.56797 10.6502L7.1013 12.1668Z" fill="white"/>
</g>
</svg>
