<svg width="485" height="452" viewBox="0 0 485 452" fill="none" xmlns="http://www.w3.org/2000/svg">
<g clip-path="url(#clip0)">
<path fill-rule="evenodd" clip-rule="evenodd" d="M323.197 436.641C262.559 455.304 202.4 428.608 146.151 399.182C87.7696 368.64 19.6215 336.645 8.02775 271.761C-3.60542 206.657 47.7903 151.563 93.3527 103.697C136.263 58.6176 186.838 16.3694 249.037 18.566C312.374 20.8028 362.754 64.9594 402.223 114.605C445.225 168.694 488.382 231.826 471.918 298.916C454.968 367.989 391.13 415.732 323.197 436.641Z" fill="#EAEFDC"/>
<path d="M439.374 379.465C439.848 377.393 438.55 375.33 436.475 374.857C434.399 374.384 432.332 375.679 431.858 377.751C431.384 379.823 432.682 381.886 434.758 382.359C436.833 382.832 438.9 381.536 439.374 379.465Z" fill="#2A393F"/>
<path d="M425.734 421.605C431.545 419.066 434.195 412.305 431.652 406.504C429.108 400.703 422.335 398.058 416.523 400.596C410.711 403.135 408.062 409.896 410.605 415.698C413.148 421.499 419.922 424.144 425.734 421.605Z" fill="#FBE698"/>
<path d="M41 353.283H429C429 353.283 377.646 383 235.045 383C92.4445 383 41 353.283 41 353.283Z" fill="#D4DCBD"/>
<path d="M168.258 203.615L174.485 199.912L178.366 207.77L172.5 211.293L168.258 203.615Z" fill="url(#paint0_linear)"/>
<path d="M117.896 303.153L118.437 304.598C119.701 307.85 121.506 310.83 123.762 313.45L144.881 337.928L151.289 333.682L134.683 305.953L133.87 301.437L117.896 303.153Z" fill="#FFC5AB"/>
<path d="M88.0224 297.102L78.3652 338.741L85.8563 340.186L103.095 301.798L88.0224 297.102Z" fill="#FFC5AB"/>
<path d="M95.6037 264.585L85.6758 297.011L105.08 303.153L114.557 278.676L112.571 264.585H95.6037Z" fill="#1B2C40"/>
<path d="M109.773 264.585L115.008 304.237L136.127 300.986L133.961 265.127L109.773 264.585Z" fill="#1B2C40"/>
<path d="M124.304 212.287L143.889 214.274C146.146 214.545 148.402 214.003 150.297 212.919L167.897 202.893L172.77 211.655L154.99 224.571C153.727 225.474 152.283 226.107 150.748 226.468L135.044 229.629L136.398 264.856C136.398 264.856 128.997 266.211 113.203 266.211C97.4086 266.211 94.701 264.223 94.701 264.223L99.5747 227.913L85.9464 225.474C83.1486 224.932 80.7117 223.397 79.0871 221.139L66.9932 203.977L75.2062 199.461L83.8706 210.932C85.5854 213.01 88.2027 214.184 90.8201 214.093L124.304 212.287Z" fill="#F0932B"/>
<path d="M111.578 210.028L109.231 211.474L108.6 214.816L112.932 212.557L113.473 210.39L111.578 210.028Z" fill="#D67D25"/>
<path d="M122.138 208.132C122.138 208.132 130.261 202.081 130.261 191.242C130.261 184.377 125.658 185.641 125.658 185.641C125.658 185.641 125.387 181.938 116.542 181.938C109.683 181.938 105.26 174.803 101.199 180.132C97.1377 185.461 101.65 191.874 108.329 194.042C115.008 196.119 122.138 208.132 122.138 208.132Z" fill="#002F59"/>
<path d="M107.788 190.338C107.788 190.338 105.441 193.048 105.441 199.732C105.441 207.409 108.149 208.132 112.932 210.661V212.558L113.474 214.816C113.474 214.816 114.738 215.267 116.182 215.267C119.792 215.267 122.229 212.919 122.229 212.919L122.77 202.893C122.77 202.893 127.012 201.448 127.463 197.744C128.005 193.951 125.568 193.138 124.124 195.125L123.131 197.744L122.499 194.854H122.319C119.972 194.764 117.987 192.957 117.716 190.609L107.788 190.338Z" fill="#FFC5AB"/>
<path d="M118.527 215.087L118.979 211.654L120.693 214.364C120.784 214.274 119.971 214.816 118.527 215.087Z" fill="#D67D25"/>
<path d="M119.069 211.654L122.409 209.938V209.125H123.943L124.304 212.286L120.694 215.899L119.069 211.654Z" fill="#F0932B"/>
<path d="M113.473 214.816L112.932 212.557V210.751L111.578 210.028L109.231 211.474L113.473 214.816Z" fill="#F0932B"/>
<path d="M144.882 337.928L136.037 352.2C136.037 352.2 137.571 354.277 141.272 352.471C144.16 351.025 152.373 345.335 155.803 342.896C156.615 342.354 156.795 341.18 156.254 340.367L151.38 333.593L144.882 337.928Z" fill="#F29456"/>
<path d="M78.3647 338.741L61.9386 342.535C61.9386 342.535 61.5776 345.154 65.4585 346.419C68.5271 347.412 78.3647 349.219 82.5164 349.941C83.5092 350.122 84.502 349.399 84.5922 348.406L85.8558 340.186L78.3647 338.741Z" fill="#F29456"/>
<path d="M68.6175 203.074L66.1807 197.113L72.4082 194.312L75.206 199.461L68.6175 203.074Z" fill="#FFC5AB"/>
<path d="M71.2349 186.364C71.2349 186.364 68.076 179.228 67.8052 178.596C67.5345 178.054 66.6319 177.512 66.0904 177.783C65.5489 178.054 65.7294 179.228 65.8196 179.77C65.9099 180.402 68.076 185.822 68.076 185.822C68.076 185.822 65.1879 180.312 65.0074 179.951C64.8269 179.59 64.0146 178.867 63.2925 179.048C62.5705 179.228 63.0218 180.764 63.0218 180.764L65.9099 186.906C65.9099 186.906 62.5705 182.028 62.39 181.577C62.1193 181.125 61.2167 180.583 60.6752 180.854C60.1337 181.125 60.1337 182.209 60.4947 182.841C60.8557 183.473 63.7438 188.17 63.7438 188.17C63.7438 188.17 60.3142 183.744 60.1337 183.383C59.9532 182.932 58.9604 182.661 58.7799 182.751C58.5091 182.931 58.2383 183.473 58.9604 184.738C59.5922 186.003 62.2095 190.338 62.2095 190.338C62.2095 190.338 64.0146 194.945 66.3612 197.112L72.5887 194.403L71.2349 186.364Z" fill="#FFC5AB"/>
<path d="M72.3179 194.402C72.3179 194.402 73.2205 189.435 74.2133 185.641C75.2061 181.938 72.2277 183.563 71.5057 184.828C70.7836 186.092 70.3324 186.996 70.3324 186.996C70.3324 186.996 68.3468 187.809 67.9858 188.983C67.6248 190.247 68.076 194.131 72.3179 194.402Z" fill="url(#paint1_linear)"/>
<path d="M114.376 192.506H118.528C118.528 192.506 117.264 191.241 115.91 191.241C114.647 191.241 114.376 192.506 114.376 192.506Z" fill="#002F59"/>
<path opacity="0.1" d="M112.932 212.558C112.932 212.558 116.993 211.836 118.437 207.681L112.932 210.752V212.558Z" fill="black"/>
<path d="M109.051 192.506H104.899C104.899 192.506 106.163 191.241 107.517 191.241C108.78 191.241 109.051 192.506 109.051 192.506Z" fill="#002F59"/>
<path d="M105.441 197.835C105.441 197.835 107.607 198.287 109.051 197.745C110.495 197.112 112.39 197.203 113.564 197.654C115.549 198.377 118.979 198.467 119.881 197.564C119.881 197.564 119.249 202.441 121.325 203.887C121.325 203.887 119.972 208.132 113.744 210.571C110.224 211.926 106.885 207.409 106.163 205.512C105.441 203.525 104.899 199.822 105.441 197.835Z" fill="white"/>
<path d="M117.716 199.551L117.535 199.009L124.755 194.493L124.124 195.216L123.943 195.758L117.716 199.551Z" fill="white"/>
<path d="M120.152 205.061L119.972 204.339L123.672 202.352L124.845 201.81L123.943 202.803L120.152 205.061Z" fill="white"/>
<path d="M117.716 196.209C117.625 196.209 117.535 196.209 117.445 196.119C116.903 195.577 116.452 195.306 115.911 195.396C115.098 195.396 114.647 196.119 114.557 196.119C114.467 196.299 114.196 196.299 114.106 196.209C113.925 196.119 113.925 195.848 114.015 195.757C114.015 195.757 114.737 194.854 115.82 194.764C116.542 194.764 117.264 195.035 117.896 195.667C117.986 195.757 117.986 196.028 117.896 196.119C117.896 196.209 117.806 196.209 117.716 196.209Z" fill="#002F59"/>
<path d="M109.683 196.209C109.592 196.209 109.502 196.209 109.412 196.119C108.87 195.577 108.419 195.306 107.877 195.396C107.065 195.396 106.614 196.119 106.524 196.119C106.433 196.299 106.163 196.299 106.072 196.209C105.892 196.119 105.892 195.848 105.982 195.757C105.982 195.757 106.704 194.854 107.787 194.764C108.509 194.764 109.231 195.035 109.863 195.667C109.953 195.757 109.953 196.028 109.863 196.119C109.863 196.209 109.773 196.209 109.683 196.209Z" fill="#002F59"/>
<path d="M191.903 199.732C191.903 199.732 187.481 207.952 187.12 210.3C186.759 212.649 183.871 210.662 183.871 208.946C183.781 207.229 184.142 205.062 184.142 205.062L191.903 199.732Z" fill="#FFC5AB"/>
<path d="M201.922 314.805L195.875 337.295L170.604 338.921C170.062 338.921 169.521 339.463 169.521 340.005C169.521 340.366 169.701 340.728 170.062 340.999C172.228 342.263 180.983 347.141 199.485 353.193C201.38 353.825 203.366 352.651 203.817 350.754C204.449 348.134 205.171 344.521 205.712 341.27C206.705 335.399 215.821 317.785 215.821 317.785L201.922 314.805Z" fill="#1B2C40"/>
<path d="M298.403 318.689L313.476 336.483L300.389 358.251C300.118 358.793 300.208 359.425 300.75 359.696C301.111 359.877 301.472 359.967 301.833 359.787C304.089 358.793 313.115 354.367 328.548 342.535C330.082 341.36 330.353 339.012 328.999 337.567C327.194 335.58 324.667 332.87 322.321 330.612C318.079 326.457 308.692 309.024 308.692 309.024L298.403 318.689Z" fill="#1B2C40"/>
<path d="M389.559 332.238L400.028 344.522L406.436 340.276L396.598 324.831L389.559 332.238Z" fill="#FFC5AB"/>
<path d="M337.663 326.999L333.421 345.335L341.002 346.87L346.778 330.07L337.663 326.999Z" fill="#FFC5AB"/>
<path d="M369.433 292.585L374.487 313.63L389.559 332.237L397.953 324.469L388.747 309.385C388.747 309.385 389.83 299.901 388.927 290.236L369.433 292.585Z" fill="#1B2C40"/>
<path d="M345.876 290.236L337.663 326.998L347.591 330.973L351.743 321.85L366.905 291.32L345.876 290.236Z" fill="#1B2C40"/>
<path d="M364.92 217.887L367.718 216.803H377.014L379.902 217.887L370.786 233.603L364.92 217.887Z" fill="#FEDA34"/>
<path d="M383.061 219.874C383.061 219.874 384.775 219.964 387.212 223.848C389.649 227.732 399.667 244.984 399.667 244.984L401.653 267.565L394.613 268.649L390.642 248.326L387.664 242.997L388.295 247.784L379.18 238.3L379.541 225.926L383.061 219.874Z" fill="#FEDA34"/>
<path d="M361.31 218.88L341.273 219.422L322.681 212.919L318.71 221.5L337.663 229.177L355.804 232.881L355.263 239.836L362.393 220.958L361.31 218.88Z" fill="#FEDA34"/>
<path d="M354.722 215.9H391.004C391.004 215.9 387.123 212.558 387.123 210.119C387.123 207.77 388.477 207.499 388.025 204.067C387.664 200.635 386.04 200.003 385.769 197.022C385.588 194.041 381.798 184.467 370.967 184.467C360.137 184.467 358.422 194.583 358.061 196.48C357.7 198.377 357.159 201.538 357.61 203.345C358.061 205.151 356.436 206.596 356.436 207.951C356.436 209.306 356.978 210.3 356.978 211.835C356.978 213.28 354.722 215.9 354.722 215.9Z" fill="#002F59"/>
<path d="M367.718 189.164C367.718 189.164 360.769 193.319 360.769 200.997C360.769 208.674 363.025 212.287 367.718 214.726V216.713C367.718 216.713 368.35 219.332 371.96 219.332C375.57 219.332 377.014 217.074 377.014 217.074V215.9C377.014 215.9 375.209 214.365 375.931 210.661C376.653 206.958 378.278 206.326 378.278 206.326C378.278 206.326 381.798 205.693 382.249 201.9C382.79 198.106 380.354 197.293 378.91 199.28L377.826 201.9L377.465 197.926C377.556 197.926 369.252 198.919 367.718 189.164Z" fill="#FFC5AB"/>
<path opacity="0.1" d="M387.664 242.997L385.137 239.203L386.491 245.345L388.025 245.706L387.664 242.997Z" fill="black"/>
<path d="M365.1 217.436L368.259 228.094C368.71 229.539 370.605 229.9 371.508 228.636L379.45 217.436L383.782 219.694C383.782 219.694 380.804 226.558 382.338 235.049C383.873 243.539 388.476 246.068 388.476 246.068L392.537 290.96C392.537 290.96 385.407 293.579 366.454 293.579C347.5 293.579 343.529 290.056 343.529 290.056L354.63 239.655C354.63 239.655 359.775 228.636 361.129 218.79L365.1 217.436Z" fill="#F0932B"/>
<path d="M400.028 344.521L391.184 358.792C391.184 358.792 392.718 360.87 396.418 359.063C399.306 357.618 407.519 351.928 410.949 349.489C411.761 348.947 411.942 347.773 411.4 346.96L406.527 340.186L400.028 344.521Z" fill="#F29456"/>
<path d="M333.421 345.334L316.995 349.128C316.995 349.128 316.634 351.747 320.515 353.012C323.584 354.005 333.421 355.812 337.573 356.534C338.566 356.715 339.559 355.992 339.649 354.999L340.912 346.779L333.421 345.334Z" fill="#F29456"/>
<path opacity="0.1" d="M367.718 216.803C367.718 216.803 373.945 215.99 374.667 211.203L367.718 214.816V216.803Z" fill="black"/>
<path d="M364.288 199.822C364.288 200.364 363.836 200.725 363.385 200.725C362.843 200.725 362.482 200.274 362.482 199.822C362.482 199.28 362.934 198.919 363.385 198.919C363.926 198.919 364.288 199.371 364.288 199.822Z" fill="#002F59"/>
<path d="M372.411 199.641C372.411 200.183 371.959 200.545 371.508 200.545C370.966 200.545 370.605 200.093 370.605 199.641C370.605 199.099 371.057 198.738 371.508 198.738C372.05 198.648 372.411 199.099 372.411 199.641Z" fill="#002F59"/>
<path d="M370.425 196.57H374.576C374.576 196.57 373.313 195.306 371.959 195.306C370.605 195.306 370.425 196.57 370.425 196.57Z" fill="#002F59"/>
<path d="M365.1 196.57H360.948C360.948 196.57 362.212 195.306 363.566 195.306C364.829 195.306 365.1 196.57 365.1 196.57Z" fill="#002F59"/>
<path d="M360.407 201.989C360.407 201.989 363.114 202.441 364.558 201.899C366.002 201.267 367.898 201.357 369.071 201.809C371.057 202.531 374.216 202.351 375.208 201.447C375.208 201.447 374.938 206.325 376.923 207.68C376.923 207.68 375.479 212.286 369.161 214.635C365.641 215.989 362.302 211.473 361.58 209.576C360.948 207.68 359.865 202.26 360.407 201.989Z" fill="white"/>
<path d="M372.591 203.796L372.32 203.164L379.631 198.647L378.909 199.37L378.728 200.002L372.591 203.796Z" fill="white"/>
<path d="M375.66 208.764L375.479 208.132L379.27 205.874L380.534 205.332L379.541 206.326L375.66 208.764Z" fill="white"/>
<path d="M237.211 180.222C237.211 180.222 218.258 232.79 213.655 257.63C213.655 257.63 201.561 297.282 199.666 314.534C199.666 314.534 207.879 318.328 227.645 321.399C227.645 321.399 232.067 296.108 233.601 273.075L259.955 230.081L256.165 180.041L237.211 180.222Z" fill="#1B2C40"/>
<path d="M248.493 178.596C248.493 178.596 255.894 239.745 263.656 278.494L291.364 323.657C291.364 323.657 304.992 319.592 314.92 308.121L286.4 263.952C286.4 263.952 289.468 217.074 288.927 207.59C288.385 198.106 285.948 184.918 283.421 180.222L248.493 178.596Z" fill="#1B2C40"/>
<path d="M251.02 102.543L240.911 106.879C238.023 108.143 235.857 110.762 235.045 113.924L227.012 147.976C226.29 151.137 224.485 153.937 221.868 155.925L200.929 172.093C198.492 173.99 196.867 176.79 196.416 179.861L195.965 183.203L201.922 192.506H205.351C207.969 192.506 210.496 191.603 212.662 190.067L238.023 170.738L236.398 176.067C236.128 176.88 236.218 177.783 236.489 178.596L237.12 180.222H283.24L283.872 177.061C284.052 176.157 283.962 175.254 283.601 174.351C282.608 172.093 281.074 165.318 284.233 146.802L286.76 149.692C289.107 152.402 290.731 155.834 291.273 159.357L295.515 185.37C295.966 187.899 297.139 190.248 298.944 191.964L305.262 198.196L316.183 195.667L318.529 189.074C319.251 186.996 319.432 184.738 318.98 182.661L313.114 154.028C312.482 151.137 311.489 148.428 309.955 145.989L288.023 109.227C286.579 106.879 284.323 105.162 281.706 104.53L273.583 102.543H251.02Z" fill="#FEDA34"/>
<path d="M236.309 97.5752H290.009C290.009 97.5752 288.024 91.6138 287.121 88.7234C286.399 86.2846 287.121 82.3104 287.121 77.3425C287.121 72.3747 283.601 68.2198 283.601 64.9681C283.601 61.6261 281.255 46 262.031 46C242.717 46 242.626 64.6068 243.168 68.0391C243.709 71.2908 240.189 74.9941 239.287 80.2329C238.204 85.7427 239.106 92.1557 236.309 97.5752Z" fill="#002F59"/>
<path d="M199.666 193.048L187.662 203.707C187.662 203.707 178.546 208.132 176.471 208.855C173.763 209.849 174.214 206.958 175.388 205.874C174.395 206.236 172.951 206.326 172.59 205.242C172.319 204.339 174.124 203.074 174.124 203.074C174.124 203.074 172.319 203.074 172.048 201.99C171.868 200.997 173.402 199.732 173.402 199.732C173.402 199.732 172.138 200.003 171.868 198.648C171.687 197.655 177.193 193.951 177.193 193.951C177.193 193.951 183.24 190.971 186.308 189.616L193.258 186.184L199.666 193.048Z" fill="#FFC5AB"/>
<path d="M196.056 183.202L193.438 184.828C192.897 185.189 192.716 185.912 193.077 186.454L198.402 194.222C198.854 194.854 199.666 194.944 200.207 194.402L202.103 192.506L196.056 183.202Z" fill="#EBC30C"/>
<path d="M254.089 56.207C250.749 56.207 247.861 58.8264 247.681 62.1684C247.32 68.5815 246.688 76.0784 247.5 79.4204C248.583 84.2076 251.02 90.5303 254.089 90.5303C254.089 90.5303 255.804 90.8012 257.067 90.2593C257.067 90.2593 257.067 95.8594 256.887 99.2014C256.796 100.105 256.255 100.827 255.352 101.098L251.02 102.634L256.887 120.337L273.764 102.634L271.057 100.827C269.342 99.653 268.168 97.7562 268.078 95.5884C267.898 91.1625 267.988 83.485 271.327 78.8784C271.327 78.8784 275.75 76.4397 276.291 73.5493C276.833 70.6589 277.374 66.9556 274.757 66.504C272.14 66.0524 269.793 69.4847 269.793 69.4847V64.9685C269.793 64.9685 259.685 64.0652 254.089 56.207Z" fill="#FFC5AB"/>
<path d="M310.226 210.751C310.226 210.751 310.045 220.054 309.233 222.312C308.42 224.571 311.85 224.209 312.753 222.764C313.655 221.319 314.467 219.332 314.467 219.332L310.226 210.751Z" fill="url(#paint2_linear)"/>
<path d="M306.706 201.177L311.941 216.351C311.941 216.351 317.717 224.661 319.161 226.377C320.966 228.545 322.049 225.836 321.508 224.3C322.23 225.113 323.403 225.926 324.215 225.113C324.937 224.39 323.944 222.494 323.944 222.494C323.944 222.494 325.569 223.306 326.291 222.494C326.923 221.771 326.201 219.874 326.201 219.874C326.201 219.874 327.103 220.687 328.096 219.693C328.818 218.971 325.659 213.009 325.659 213.009C325.659 213.009 321.778 207.5 319.883 204.79L315.551 198.377L306.706 201.177Z" fill="#FFC5AB"/>
<path d="M305.442 198.286L306.164 201.357C306.345 201.99 306.977 202.351 307.608 202.261L316.724 199.912C317.356 199.732 317.807 199.009 317.536 198.377L316.544 195.848L305.442 198.286Z" fill="#EBC30C"/>
<path d="M316.905 225.294C316.905 225.294 322.14 222.133 322.41 221.591C322.681 221.049 322.41 220.417 321.418 220.778C320.335 221.139 316.724 223.036 316.724 223.036C316.724 223.036 321.237 220.146 321.598 219.784C321.959 219.423 321.869 219.152 321.779 218.791C321.688 218.52 321.057 218.429 320.876 218.429C320.696 218.52 315.732 221.229 315.732 221.229C315.732 221.229 320.244 218.158 320.335 217.978C320.425 217.797 320.876 217.345 320.605 216.984C320.335 216.623 319.613 216.804 319.252 216.984C318.891 217.075 314.919 219.694 314.919 219.694C314.919 219.694 318.349 216.984 318.71 216.713C319.071 216.442 319.252 215.9 319.161 215.629C319.071 215.358 318.71 215.358 317.988 215.539C317.266 215.81 312.483 218.61 312.483 218.61C312.483 218.61 312.122 219.604 314.288 222.404C316.363 225.294 316.905 225.294 316.905 225.294Z" fill="url(#paint3_linear)"/>
<path d="M396.96 274.249C396.96 274.249 394.613 278.946 393.71 279.939C392.808 280.933 394.613 281.565 395.425 281.023C396.238 280.481 397.14 279.668 397.14 279.668L396.96 274.249Z" fill="url(#paint4_linear)"/>
<path d="M397.501 268.559L396.599 277.501C396.599 277.501 397.591 283.101 397.952 284.275C398.404 285.811 399.577 284.637 399.667 283.734C399.848 284.275 400.299 284.998 400.841 284.817C401.382 284.637 401.292 283.372 401.292 283.372C401.292 283.372 401.924 284.185 402.465 283.914C403.007 283.643 403.007 282.559 403.007 282.559C403.007 282.559 403.277 283.192 403.999 282.921C404.541 282.65 404.36 278.946 404.36 278.946C404.36 278.946 403.729 275.243 403.277 273.346L402.555 267.565L397.501 268.559Z" fill="#FFC5AB"/>
<path d="M250.027 72.5555C250.675 72.5555 251.2 72.0297 251.2 71.3812C251.2 70.7327 250.675 70.207 250.027 70.207C249.379 70.207 248.854 70.7327 248.854 71.3812C248.854 72.0297 249.379 72.5555 250.027 72.5555Z" fill="#002F59"/>
<path d="M260.407 72.284C261.055 72.284 261.58 71.7583 261.58 71.1098C261.58 70.4613 261.055 69.9355 260.407 69.9355C259.759 69.9355 259.233 70.4613 259.233 71.1098C259.233 71.7583 259.759 72.284 260.407 72.284Z" fill="#002F59"/>
<path d="M259.053 67.2264H264.378C264.378 67.2264 262.753 65.6006 261.038 65.6006C259.323 65.6006 259.053 67.2264 259.053 67.2264Z" fill="#002F59"/>
<path d="M252.284 67.2264H246.959C246.959 67.2264 248.584 65.6006 250.298 65.6006C251.923 65.6006 252.284 67.2264 252.284 67.2264Z" fill="#002F59"/>
<path opacity="0.1" d="M257.066 94.956C257.066 94.956 266.092 94.956 266.814 83.3945L257.066 90.2592V94.956Z" fill="black"/>
<path d="M246.959 74.0907C246.959 74.0907 250.388 74.723 252.284 73.9101C254.179 73.0971 256.616 73.2778 258.15 73.8197C260.677 74.8133 264.016 74.0004 265.19 72.8262C265.19 72.8262 264.377 79.8715 268.168 81.3167C268.168 81.3167 265.28 87.4587 257.157 90.2588C250.298 92.6072 249.486 86.1942 248.583 83.7554C247.59 81.3167 246.237 74.3617 246.959 74.0907Z" fill="white"/>
<path d="M263.294 75.4461L262.843 74.8138L269.973 68.3105L271.507 67.7686L270.153 69.1234L263.294 75.4461Z" fill="white"/>
<path d="M266.905 82.4009L266.634 81.6784L271.869 78.4267L273.222 77.5234L271.869 79.2396L266.905 82.4009Z" fill="white"/>
<path d="M142.258 101.305C143.065 97.7774 140.855 94.2648 137.321 93.4591C133.788 92.6533 130.269 94.8596 129.462 98.3868C128.654 101.914 130.865 105.427 134.398 106.232C137.932 107.038 141.451 104.832 142.258 101.305Z" fill="#2A393F"/>
<path d="M346.142 142.265C348.982 142.265 351.284 139.967 351.284 137.133C351.284 134.298 348.982 132 346.142 132C343.302 132 341 134.298 341 137.133C341 139.967 343.302 142.265 346.142 142.265Z" fill="#94B052"/>
<path d="M392.173 166.129C395.882 164.624 397.666 160.404 396.158 156.702C394.651 153.001 390.423 151.22 386.714 152.725C383.006 154.229 381.222 158.45 382.729 162.151C384.237 165.853 388.465 167.634 392.173 166.129Z" fill="#FBE698"/>
<path d="M349.258 59.3046C350.065 55.7774 347.855 52.2648 344.321 51.4591C340.788 50.6533 337.269 52.8596 336.462 56.3868C335.654 59.914 337.865 63.4266 341.398 64.2324C344.932 65.0381 348.451 62.8319 349.258 59.3046Z" fill="#2A393F"/>
<path d="M56.2578 280.305C57.065 276.777 54.8548 273.265 51.3212 272.459C47.7876 271.653 44.2687 273.86 43.4615 277.387C42.6544 280.914 44.8645 284.427 48.3981 285.232C51.9317 286.038 55.4506 283.832 56.2578 280.305Z" fill="#2A393F"/>
<path d="M133.276 56.69C141.603 53.0522 145.4 43.3644 141.756 35.0518C138.111 26.7391 128.406 22.9493 120.079 26.5871C111.751 30.2248 107.954 39.9126 111.599 48.2253C115.243 56.5379 124.948 60.3277 133.276 56.69Z" fill="#FBE698"/>
<path d="M12 320C18.6274 320 24 314.627 24 308C24 301.373 18.6274 296 12 296C5.37258 296 0 301.373 0 308C0 314.627 5.37258 320 12 320Z" fill="#94B052"/>
</g>
<defs>
<linearGradient id="paint0_linear" x1="168.273" y1="205.585" x2="178.35" y2="205.585" gradientUnits="userSpaceOnUse">
<stop stop-color="#FFC2BD"/>
<stop offset="0.3896" stop-color="#F2B2AD"/>
<stop offset="1" stop-color="#D8908D"/>
</linearGradient>
<linearGradient id="paint1_linear" x1="67.1699" y1="189.394" x2="75.6015" y2="188.69" gradientUnits="userSpaceOnUse">
<stop stop-color="#FFC2BD"/>
<stop offset="0.3896" stop-color="#F2B2AD"/>
<stop offset="1" stop-color="#D8908D"/>
</linearGradient>
<linearGradient id="paint2_linear" x1="309.06" y1="217.358" x2="314.372" y2="217.358" gradientUnits="userSpaceOnUse">
<stop stop-color="#FFC2BD"/>
<stop offset="0.3896" stop-color="#F2B2AD"/>
<stop offset="1" stop-color="#D8908D"/>
</linearGradient>
<linearGradient id="paint3_linear" x1="314.671" y1="221.549" x2="321.971" y2="218.632" gradientUnits="userSpaceOnUse">
<stop stop-color="#FFC2BD"/>
<stop offset="0.3896" stop-color="#F2B2AD"/>
<stop offset="1" stop-color="#D8908D"/>
</linearGradient>
<linearGradient id="paint4_linear" x1="394.855" y1="277.377" x2="397.571" y2="278.632" gradientUnits="userSpaceOnUse">
<stop stop-color="#FFC2BD"/>
<stop offset="0.3896" stop-color="#F2B2AD"/>
<stop offset="1" stop-color="#D8908D"/>
</linearGradient>
<clipPath id="clip0">
<rect width="485" height="452" fill="white"/>
</clipPath>
</defs>
</svg>
