<svg width="36" height="36" viewBox="0 0 36 36" fill="none" xmlns="http://www.w3.org/2000/svg">
<rect width="36" height="36" rx="18" fill="#0D4EE3"/>
<g clip-path="url(#clip0_387_23043)">
<path d="M18.4543 19.4624C17.6324 19.4586 16.8158 19.3299 16.0326 19.0806C14.7812 18.6619 13.8518 17.6025 13.5995 16.3073C13.3234 14.9776 13.8265 13.5716 14.9795 12.45C15.1032 12.3295 15.2318 12.2141 15.3652 12.1037C16.5457 11.1154 18.1373 10.7719 19.6203 11.1855C21.0561 11.6437 22.0482 12.9558 22.0978 14.4622C22.1516 15.3292 21.869 16.1837 21.3088 16.8477C20.8768 17.3919 20.1767 17.649 19.4952 17.5137C19.2164 17.4558 18.9732 17.287 18.8216 17.0461C18.6855 16.8121 18.6506 16.5327 18.7249 16.2724C19.0455 15.0604 19.3716 13.2184 19.3748 13.1998C19.3976 13.0707 19.4874 12.9637 19.6106 12.9189C19.7337 12.8741 19.8714 12.8984 19.9717 12.9826C20.0721 13.0668 20.1199 13.1982 20.0971 13.3273C20.0835 13.4039 19.7625 15.2182 19.434 16.4599C19.4105 16.5287 19.4164 16.6041 19.4502 16.6684C19.5009 16.7386 19.5774 16.7857 19.6629 16.7995C20.0801 16.8691 20.5016 16.7017 20.7574 16.3648C21.1924 15.8444 21.4103 15.1764 21.366 14.4996C21.3302 13.3006 20.5439 12.2538 19.4024 11.8853C18.1563 11.5425 16.8214 11.8353 15.8332 12.6681C15.7154 12.7659 15.6008 12.8683 15.4909 12.9753C14.9209 13.5298 14.0106 14.6803 14.3173 16.158C14.5234 17.1903 15.2607 18.0364 16.2552 18.3817C17.9749 18.9302 20.4459 18.9963 21.7479 17.3774C21.8758 17.2234 22.1036 17.2004 22.2597 17.3259C22.4158 17.4513 22.4423 17.6788 22.3194 17.8368C21.3566 19.0341 19.8916 19.4624 18.4543 19.4624Z" fill="white"/>
<path d="M17.1982 17.5614C16.8106 17.5681 16.4326 17.441 16.1277 17.2015C15.424 16.6383 15.4046 15.6598 15.6019 14.9935C15.6683 14.7716 15.7576 14.5571 15.8681 14.3536C16.1433 13.7985 16.5832 13.342 17.1277 13.0465C17.8058 12.6946 18.6343 12.828 19.1676 13.375C19.4322 13.665 19.6315 14.0083 19.7521 14.3819C19.8159 14.5715 19.716 14.7772 19.5276 14.8444C19.3391 14.9115 19.1317 14.8152 19.0613 14.6279C18.9744 14.3519 18.8299 14.0975 18.6374 13.8815C18.3264 13.5635 17.8419 13.4911 17.4517 13.7044C17.0433 13.9347 16.7151 14.2844 16.5112 14.7065C16.4254 14.8646 16.3562 15.0312 16.3045 15.2035C16.1621 15.6855 16.1934 16.3145 16.5865 16.6293C17.0164 16.9745 17.7415 16.8286 18.1495 16.4766C18.4536 16.2029 18.7148 15.8851 18.9246 15.5338C18.9925 15.42 19.1165 15.3517 19.249 15.3552C19.3815 15.3586 19.5018 15.4333 19.5637 15.5505C19.6255 15.6677 19.6194 15.8091 19.5475 15.9205C19.2991 16.3344 18.9899 16.7086 18.6301 17.0305C18.2292 17.3688 17.7228 17.5566 17.1982 17.5614Z" fill="white"/>
<path d="M27.9 29.0004H8.1C7.49276 28.9997 7.00067 28.5076 7 27.9004V14.3337C7.00001 14.1915 7.08221 14.0621 7.21094 14.0018C7.33966 13.9414 7.49169 13.9608 7.60104 14.0517L16.598 21.529C17.412 22.2013 18.5888 22.2011 19.4026 21.5285L28.3987 14.0517C28.508 13.9607 28.6602 13.9411 28.789 14.0015C28.9178 14.0619 29.0001 14.1914 29 14.3337V27.9004C28.9993 28.5076 28.5072 28.9997 27.9 29.0004ZM7.73333 15.1152V27.9004C7.7336 28.1028 7.8976 28.2668 8.1 28.267H27.9C28.1024 28.2668 28.2665 28.1028 28.2667 27.9004V15.1152L19.8708 22.0928C18.7852 22.99 17.2156 22.9902 16.1298 22.0934L7.73333 15.1152Z" fill="white"/>
<path d="M7.36703 14.6994C7.20732 14.6995 7.06588 14.5963 7.01736 14.4441C6.96884 14.292 7.02438 14.1259 7.15469 14.0336L10.4547 11.6942C10.6199 11.5797 10.8465 11.6196 10.9627 11.7836C11.079 11.9476 11.0414 12.1747 10.8786 12.2926L7.57863 14.6319C7.51684 14.6759 7.44287 14.6995 7.36703 14.6994Z" fill="white"/>
<path d="M28.6339 14.6994C28.5581 14.6995 28.4841 14.6759 28.4223 14.6319L25.1223 12.2926C24.9595 12.1747 24.922 11.9476 25.0382 11.7836C25.1544 11.6196 25.381 11.5797 25.5463 11.6942L28.8463 14.0336C28.9766 14.1259 29.0321 14.292 28.9836 14.4441C28.9351 14.5963 28.7936 14.6995 28.6339 14.6994Z" fill="white"/>
<path d="M21.3884 9.56626C21.3125 9.5663 21.2385 9.54271 21.1766 9.49876L19.424 8.25576C18.6104 7.56826 17.4215 7.56109 16.5997 8.23875L14.825 9.4988C14.7181 9.57459 14.5789 9.58761 14.4598 9.53295C14.3408 9.47828 14.2599 9.36424 14.2477 9.23378C14.2355 9.10332 14.2938 8.97627 14.4007 8.90047L16.1534 7.65747C17.2364 6.77196 18.7952 6.779 19.8702 7.67426L21.6009 8.90032C21.7313 8.99264 21.7869 9.15879 21.7383 9.31102C21.6898 9.46325 21.5482 9.56651 21.3884 9.56626Z" fill="white"/>
<path d="M7.60529 28.8013C7.45076 28.8014 7.31274 28.7047 7.26017 28.5594C7.2076 28.4141 7.25177 28.2514 7.37062 28.1526L15.738 21.2006C15.8385 21.1151 15.9772 21.0903 16.1012 21.1355C16.2252 21.1808 16.3153 21.2892 16.3371 21.4193C16.3589 21.5495 16.3091 21.6813 16.2067 21.7646L7.83933 28.7166C7.77364 28.7713 7.69081 28.8013 7.60529 28.8013Z" fill="white"/>
<path d="M28.3948 28.8013C28.3094 28.8013 28.2266 28.7713 28.161 28.7166L19.7937 21.7646C19.6913 21.6813 19.6414 21.5495 19.6633 21.4193C19.6851 21.2892 19.7752 21.1808 19.8991 21.1355C20.0231 21.0903 20.1619 21.1151 20.2624 21.2006L28.6295 28.1526C28.7484 28.2514 28.7925 28.4141 28.74 28.5594C28.6874 28.7047 28.5494 28.8014 28.3948 28.8013Z" fill="white"/>
<path d="M25.3341 17.4416C25.1316 17.4416 24.9674 17.2774 24.9674 17.0749V9.56847C24.9664 9.57617 24.9517 9.56579 24.9271 9.56561H11.0744C11.0582 9.56461 11.0423 9.57031 11.0304 9.58137L11.0341 17.0749C11.0341 17.2774 10.87 17.4416 10.6674 17.4416C10.4649 17.4416 10.3008 17.2774 10.3008 17.0749V9.56561C10.3126 9.14977 10.6586 8.82184 11.0744 8.83227H24.9271C25.343 8.82188 25.6889 9.14979 25.7008 9.56561V17.0749C25.7008 17.2774 25.5366 17.4416 25.3341 17.4416Z" fill="white"/>
</g>
<defs>
<clipPath id="clip0_387_23043">
<rect width="22" height="22" fill="white" transform="translate(7 7)"/>
</clipPath>
</defs>
</svg>
