<svg width="48" height="48" viewBox="0 0 48 48" fill="none" xmlns="http://www.w3.org/2000/svg">
<rect width="48" height="48" rx="24" fill="#8A8EB0"/>
<path d="M30.8905 17H17.1049C16.5469 17.0009 16.0121 17.223 15.6175 17.6175C15.223 18.0121 15.0009 18.5469 15 19.1049V29.4208C15.0009 29.9786 15.223 30.5134 15.6176 30.9077C16.0122 31.3021 16.547 31.5239 17.1049 31.5245H30.8905C31.4492 31.5251 31.9852 31.3039 32.3808 30.9094C32.7764 30.5149 32.9991 29.9794 33 29.4208V19.1049C32.9997 18.8282 32.9449 18.5542 32.8387 18.2987C32.7326 18.0432 32.5771 17.811 32.3812 17.6156C32.1853 17.4201 31.9529 17.2651 31.6971 17.1595C31.4413 17.0539 31.1673 16.9997 30.8905 17ZM29.4914 19.0525L24.0068 22.9863L18.6864 19.0525H29.4914ZM30.8905 29.4721H17.1049C17.0986 29.4721 17.0924 29.4708 17.0866 29.4684C17.0808 29.466 17.0755 29.4625 17.071 29.458C17.0666 29.4536 17.0631 29.4483 17.0607 29.4425C17.0582 29.4367 17.057 29.4305 17.057 29.4242V20.4162L23.992 25.5348L30.9475 20.5496V29.4208C30.9482 29.4282 30.9472 29.4356 30.9444 29.4426C30.9417 29.4495 30.9374 29.4557 30.9319 29.4607C30.9264 29.4657 30.9197 29.4693 30.9126 29.4713C30.9054 29.4732 30.8978 29.4735 30.8905 29.4721Z" fill="white"/>
</svg>
