<svg width="36" height="36" viewBox="0 0 36 36" fill="none" xmlns="http://www.w3.org/2000/svg">
<rect width="36" height="36" rx="18" fill="#8A8EB0"/>
<path d="M23.1679 12.75H12.8287C12.4102 12.7507 12.009 12.9172 11.7131 13.2131C11.4172 13.509 11.2507 13.9102 11.25 14.3287V22.0656C11.2507 22.484 11.4172 22.885 11.7132 23.1808C12.0091 23.4766 12.4103 23.6429 12.8287 23.6434H23.1679C23.5869 23.6438 23.9889 23.4779 24.2856 23.182C24.5823 22.8861 24.7493 22.4846 24.75 22.0656V14.3287C24.7498 14.1211 24.7087 13.9157 24.6291 13.724C24.5494 13.5324 24.4328 13.3583 24.2859 13.2117C24.139 13.0651 23.9646 12.9489 23.7728 12.8696C23.581 12.7904 23.3754 12.7498 23.1679 12.75V12.75ZM22.1186 14.2893L18.0051 17.2397L14.0148 14.2893H22.1186ZM23.1679 22.1041H12.8287C12.824 22.1041 12.8193 22.1031 12.8149 22.1013C12.8106 22.0995 12.8066 22.0969 12.8033 22.0935C12.7999 22.0902 12.7973 22.0862 12.7955 22.0819C12.7937 22.0775 12.7928 22.0729 12.7928 22.0681V15.3121L17.994 19.1511L23.2107 15.4122V22.0656C23.2112 22.0711 23.2104 22.0767 23.2083 22.0819C23.2063 22.0871 23.2031 22.0918 23.1989 22.0955C23.1948 22.0993 23.1898 22.102 23.1844 22.1035C23.179 22.1049 23.1734 22.1051 23.1679 22.1041V22.1041Z" fill="white"/>
</svg>
