<svg width="24" height="22" viewBox="0 0 24 22" fill="none" xmlns="http://www.w3.org/2000/svg">
<path fill-rule="evenodd" clip-rule="evenodd" d="M11.5438 10.6787C11.3592 9.80966 11.3076 8.93258 11.3817 8.07199C9.56773 6.51908 8.53483 4.28685 8.53483 1.88616V0.703122C8.53483 0.314757 8.84959 0 9.23795 0H10.421C12.1414 0 13.8161 0.545286 15.1951 1.54467C16.6482 0.546934 18.3798 0 20.1924 0H22.0784C22.4667 0 22.7815 0.314757 22.7815 0.703122V2.5891C22.7815 4.6721 22.0839 6.61704 20.764 8.21353C19.1685 10.1433 16.6779 11.2501 13.9313 11.2501H12.2346H12.2345H12.2317C11.8847 11.2487 11.6033 10.9976 11.5438 10.6787ZM21.3752 2.5891V1.40624H20.1924C17.9362 1.40624 15.8286 2.41259 14.4101 4.16728C13.2848 5.55943 12.7113 7.27677 12.7583 9.0289L15.9561 5.83097C16.2307 5.5565 16.6759 5.5565 16.9505 5.83097C17.2252 6.10563 17.2252 6.55076 16.9505 6.82541L13.932 9.8439C16.2576 9.84371 18.3527 8.92288 19.6801 7.31742C20.7891 5.97617 21.3752 4.34105 21.3752 2.5891ZM10.421 1.40624H9.94108V1.88635C9.94108 3.58537 10.5664 5.18278 11.6872 6.41379C11.8593 5.81193 12.0959 5.22764 12.395 4.67064L11.7373 4.01292C11.4627 3.73827 11.4627 3.29314 11.7373 3.01848C12.012 2.74401 12.4571 2.74401 12.7316 3.01848L13.1756 3.46251C13.2218 3.40227 13.2686 3.34239 13.3164 3.28325C13.5492 2.99541 13.7978 2.72515 14.06 2.4721C12.9832 1.78051 11.7181 1.40624 10.421 1.40624ZM23.2213 10.6348C23.6586 11.0004 23.9311 11.514 23.9887 12.0811C24.0462 12.6484 23.8822 13.2063 23.5271 13.6521L17.6636 20.8355C17.5301 20.9992 17.3301 21.0941 17.119 21.0941H0.703122C0.314757 21.0941 0 20.7793 0 20.3909V13.3595C0 12.9714 0.314757 12.6564 0.703122 12.6564H3.60277C4.43608 11.7026 5.56712 11.1139 6.82395 10.9882C9.04412 10.7659 10.4057 12.0294 10.9104 12.4977C10.9963 12.5773 11.0573 12.634 11.0936 12.6564H15.047C15.9907 12.6564 16.7914 13.2793 17.0601 14.1354L20.2591 10.8016C21.0437 9.97705 22.3457 9.90289 23.2213 10.6348ZM16.7852 19.6878L22.4292 12.7732C22.6874 12.446 22.6396 11.9813 22.3194 11.7136C22.011 11.456 21.5525 11.482 21.2757 11.7731L17.0203 16.2079C16.567 16.6919 15.9191 16.9315 15.2647 16.864C15.2501 16.8655 15.2374 16.8668 15.2248 16.868C15.066 16.8827 14.9048 16.8718 10.8283 16.8752C10.4399 16.8752 10.1251 16.5604 10.1251 16.172C10.1251 15.7838 10.4399 15.4689 10.8283 15.4689C11.5277 15.4664 12.2169 15.4675 12.8384 15.4685C13.96 15.4703 14.8609 15.4718 15.2025 15.4511C15.5156 15.3799 15.7501 15.1001 15.7501 14.7658C15.7501 14.3782 15.4346 14.0627 15.047 14.0627H10.8283C10.6572 14.0627 10.4921 14.0004 10.3637 13.8874C10.2889 13.8383 10.1916 13.7472 10.0697 13.633C9.54586 13.1426 8.56793 12.2269 6.96403 12.3874C5.98222 12.4858 5.10569 12.982 4.49596 13.7849C4.36394 13.9587 4.15392 14.0627 3.93602 14.0627H1.40624V19.6878H16.7852Z" fill="url(#paint0_linear)"/>
<defs>
<linearGradient id="paint0_linear" x1="24" y1="10.547" x2="0" y2="10.547" gradientUnits="userSpaceOnUse">
<stop stop-color="#BA58E1"/>
<stop offset="1" stop-color="#6F49BC"/>
</linearGradient>
</defs>
</svg>
