<svg width="80" height="81" viewBox="0 0 80 81" fill="none" xmlns="http://www.w3.org/2000/svg">
<path opacity="0.4" d="M64.933 43.6667H71.6663V38.8667C71.6663 31.9667 66.033 26.3333 59.133 26.3333H20.8663C13.9663 26.3333 8.33301 31.9667 8.33301 38.8667V51.0332C10.9663 48.6332 14.4997 47.1666 18.333 47.1666C26.633 47.1666 33.333 53.9 33.333 62.1666C33.333 63.9333 33.033 65.6 32.4664 67.1666C31.5664 69.8 29.8997 72.0666 27.7997 73.8333H59.133C66.033 73.8333 71.6663 68.1999 71.6663 61.2999V57.3333H65.333C61.733 57.3333 58.433 54.7 58.133 51.1C57.933 49 58.733 47.0333 60.133 45.6666C61.3663 44.3999 63.0663 43.6667 64.933 43.6667Z" fill="#000066"/>
<path d="M18.333 47.1667C14.4997 47.1667 10.9663 48.6333 8.33301 51.0333C7.73301 51.5666 7.16634 52.1333 6.66634 52.7667C4.56634 55.3333 3.33301 58.6 3.33301 62.1667C3.33301 70.4667 10.0663 77.1667 18.333 77.1667C21.933 77.1667 25.1997 75.9 27.7997 73.8334C29.8997 72.0667 31.5664 69.8 32.4664 67.1667C33.033 65.6 33.333 63.9334 33.333 62.1667C33.333 53.9 26.633 47.1667 18.333 47.1667ZM27.333 59.2667C27.333 60.3 26.4997 61.1 25.4997 61.1C24.4997 61.1 23.6664 60.3 23.6664 59.2667V58.9001C23.6664 58.5001 23.3663 58.1666 22.9663 58.1666H15.433C15.7997 58.8666 15.733 59.7334 15.133 60.3334C14.7997 60.6667 14.333 60.8666 13.833 60.8666C13.3663 60.8666 12.8997 60.6667 12.5664 60.3334L9.86636 57.6334C9.6997 57.4667 9.56633 57.2668 9.46633 57.0334C9.29966 56.6001 9.29966 56.0999 9.46633 55.6333C9.56633 55.4333 9.6997 55.2 9.86636 55.0333L12.5664 52.3667C13.2664 51.6333 14.433 51.6333 15.133 52.3667C15.733 52.9333 15.7997 53.8334 15.433 54.5001H22.9663C25.3663 54.5001 27.333 56.4668 27.333 58.9001V59.2667ZM22.833 72.4999C22.333 72.4999 21.8664 72.3334 21.533 71.9667C20.933 71.4 20.8663 70.5 21.233 69.8333H13.6997C11.2997 69.8333 9.33302 67.8666 9.33302 65.4333V65.0667C9.33302 64.0333 10.1664 63.2334 11.1664 63.2334C12.1664 63.2334 12.9997 64.0333 12.9997 65.0667V65.4333C12.9997 65.8333 13.2997 66.1667 13.6997 66.1667H21.233C20.8663 65.4667 20.933 64.6 21.533 64C22.233 63.3 23.3997 63.3 24.0997 64L26.7996 66.7C26.9663 66.8666 27.0997 67.0666 27.1997 67.2999C27.3664 67.7333 27.3664 68.2334 27.1997 68.7001C27.0997 68.9001 26.9663 69.1334 26.7996 69.3001L24.0997 71.9667C23.7663 72.3334 23.2997 72.4999 22.833 72.4999Z" fill="#000066"/>
<path d="M49.4997 13.6667V26.3333H20.8663C13.9663 26.3333 8.33301 31.9666 8.33301 38.8666V26.6334C8.33301 22.6667 10.7663 19.1332 14.4663 17.7332L40.933 7.73322C45.0663 6.19989 49.4997 9.23332 49.4997 13.6667Z" fill="#000066"/>
<path d="M75.1996 47.0665V53.9334C75.1996 55.7667 73.7329 57.2666 71.8663 57.3333H65.333C61.733 57.3333 58.433 54.7 58.133 51.1C57.933 49 58.7329 47.0333 60.1329 45.6666C61.3663 44.3999 63.0663 43.6667 64.9329 43.6667H71.8663C73.7329 43.7334 75.1996 45.2332 75.1996 47.0665Z" fill="#000066"/>
<path d="M46.6663 43H23.333C21.9663 43 20.833 41.8667 20.833 40.5C20.833 39.1333 21.9663 38 23.333 38H46.6663C48.033 38 49.1663 39.1333 49.1663 40.5C49.1663 41.8667 48.033 43 46.6663 43Z" fill="#000066"/>
</svg>
