<svg width="75" height="75" viewBox="0 0 75 75" fill="none" xmlns="http://www.w3.org/2000/svg">
<g clip-path="url(#clip0)">
<path d="M23.7451 62.5039H51.2402C53.3057 62.5039 54.9902 60.8193 54.9902 58.7539V36.2539C54.9902 34.1885 53.3057 32.5039 51.2402 32.5039V26.0439C51.2402 18.4561 45.0879 12.2891 37.4854 12.2891C29.8828 12.2891 23.7305 18.4414 23.7305 26.0439V32.5039C21.665 32.5039 19.9805 34.1885 19.9805 36.2539V58.7539C19.9951 60.8193 21.6797 62.5039 23.7451 62.5039ZM26.25 26.0293C26.25 19.8184 31.2891 14.7793 37.5 14.7793C43.7109 14.7793 48.75 19.8184 48.75 26.0293V32.4893H46.2451V26.0293C46.2451 21.1953 42.334 17.2842 37.5 17.2842C32.666 17.2842 28.7549 21.1953 28.7549 26.0293V32.4893H26.25V26.0293ZM43.7549 32.5039H31.2598V26.0439C31.2598 22.5869 34.0576 19.7891 37.5147 19.7891C40.9717 19.7891 43.7695 22.5869 43.7695 26.0439V32.5039H43.7549ZM23.7451 34.9941H51.2402C51.9287 34.9941 52.4854 35.5508 52.4854 36.2393V39.9893H47.4902C46.8018 39.9893 46.2451 40.5459 46.2451 41.2344C46.2451 41.9229 46.8018 42.4795 47.4902 42.4795H52.4854V46.2295H47.4902C46.8018 46.2295 46.2451 46.7861 46.2451 47.4746C46.2451 48.1631 46.8018 48.7197 47.4902 48.7197H52.4854V53.7148H47.4902C46.8018 53.7148 46.2451 54.2715 46.2451 54.96C46.2451 55.6484 46.8018 56.2051 47.4902 56.2051H52.4854V58.71C52.4854 59.3984 51.9287 59.9551 51.2402 59.9551H23.7451C23.0566 59.9551 22.5 59.3984 22.5 58.71V56.249H27.4951C28.1836 56.249 28.7402 55.6924 28.7402 55.0039C28.7402 54.3154 28.1836 53.7588 27.4951 53.7588H22.5V48.7637H27.4951C28.1836 48.7637 28.7402 48.207 28.7402 47.5186C28.7402 46.8301 28.1836 46.2734 27.4951 46.2734H22.5V42.5234H27.4951C28.1836 42.5234 28.7402 41.9668 28.7402 41.2783C28.7402 40.5898 28.1836 40.0332 27.4951 40.0332H22.5V36.2832C22.5 35.5654 23.0566 34.9941 23.7451 34.9941Z" fill="#0C214C"/>
<path d="M33.7499 49.8915V53.7587C33.7499 55.1357 34.8632 56.249 36.2402 56.249H38.7597C40.1367 56.249 41.2499 55.1357 41.2499 53.7587V49.8769C41.2646 49.54 41.4111 49.2324 41.6308 48.9833C42.5097 48.0165 43.0078 46.7568 43.0224 45.4531C43.0224 43.8271 42.2753 42.2744 41.0156 41.249C39.6972 40.1796 37.9833 39.7695 36.3281 40.121C34.1601 40.5751 32.4902 42.2744 32.0654 44.4423C31.7724 46.0829 32.2558 47.7529 33.3691 48.998C33.6035 49.2324 33.7353 49.5546 33.7499 49.8915ZM34.5263 44.8964C34.7607 43.7246 35.6689 42.8163 36.8408 42.5673C37.0605 42.5234 37.2949 42.4941 37.5146 42.4941C38.2177 42.4941 38.9062 42.7285 39.4482 43.1826C40.1367 43.7392 40.5322 44.5742 40.5322 45.4531C40.5175 46.1562 40.2392 46.8154 39.7704 47.3281C39.1406 48.0165 38.7744 48.9247 38.7597 49.8622L38.7744 53.7441L36.2695 53.7587V49.8915C36.2548 48.9394 35.9033 48.0312 35.2587 47.3427C34.6435 46.6835 34.3798 45.7753 34.5263 44.8964Z" fill="#0C214C"/>
<path d="M60 21.2549V13.7549C60 13.0664 59.4434 12.5098 58.7549 12.5098C58.0664 12.5098 57.5098 13.0664 57.5098 13.7549V21.2549C57.5098 21.9434 58.0664 22.5 58.7549 22.5C59.4434 22.5 60 21.9434 60 21.2549Z" fill="#0C214C"/>
<path d="M52.5 13.7552V21.2552C52.5 21.9436 53.0566 22.5003 53.7451 22.5003C54.4336 22.5003 54.9902 21.9436 54.9902 21.2552V13.7552C54.9902 13.0667 54.4336 12.51 53.7451 12.51C53.0566 12.4954 52.5 13.0667 52.5 13.7552Z" fill="#0C214C"/>
<path d="M62.5049 13.7552V21.2552C62.5049 21.9436 63.0615 22.5003 63.75 22.5003C64.4385 22.5003 64.9951 21.9436 64.9951 21.2552V13.7552C64.9951 13.0667 64.4385 12.51 63.75 12.51C63.0615 12.4954 62.5049 13.0667 62.5049 13.7552Z" fill="#0C214C"/>
<path d="M60 40.0049C60 39.3164 59.4434 38.7598 58.7549 38.7598C58.0664 38.7598 57.5098 39.3164 57.5098 40.0049V47.5049C57.5098 48.1934 58.0664 48.75 58.7549 48.75C59.4434 48.75 60 48.1934 60 47.5049V40.0049Z" fill="#0C214C"/>
<path d="M64.9951 47.5049C64.9951 48.1934 65.5518 48.75 66.2402 48.75C66.9287 48.75 67.4854 48.1934 67.4854 47.5049V40.0049C67.4854 39.3164 66.9287 38.7598 66.2402 38.7598C65.5518 38.7598 64.9951 39.3164 64.9951 40.0049V47.5049Z" fill="#0C214C"/>
<path d="M73.7549 38.7461C73.0664 38.7461 72.5098 39.3027 72.5098 39.9912V47.4912C72.5098 48.1797 73.0664 48.7363 73.7549 48.7363C74.4434 48.7363 75 48.1797 75 47.4912V39.9912C75 39.3174 74.4434 38.7461 73.7549 38.7461Z" fill="#0C214C"/>
<path d="M72.4951 12.4941H69.9902C68.6133 12.4941 67.4854 13.6074 67.4854 14.999V19.9941C67.4854 21.3711 68.5986 22.499 69.9902 22.499H72.4951C73.8721 22.499 75 21.3857 75 19.9941V14.999C75 13.6221 73.8867 12.4941 72.4951 12.4941ZM70.0049 19.9941V14.999H72.5098V19.9941H70.0049Z" fill="#0C214C"/>
<path d="M73.7549 26.25C73.0664 26.25 72.5098 26.8066 72.5098 27.4951V34.9951C72.5098 35.6836 73.0664 36.2402 73.7549 36.2402C74.4434 36.2402 75 35.6836 75 34.9951V27.4951C75 26.8066 74.4434 26.25 73.7549 26.25Z" fill="#0C214C"/>
<path d="M68.7451 36.2539C69.4336 36.2539 69.9902 35.6973 69.9902 35.0088V27.5088C69.9902 26.8203 69.4336 26.2637 68.7451 26.2637C68.0566 26.2637 67.5 26.8203 67.5 27.5088V35.0088C67.5 35.6826 68.0566 36.2539 68.7451 36.2539Z" fill="#0C214C"/>
<path d="M62.5049 36.2549C63.8818 36.2549 65.0098 35.1416 65.0098 33.75V28.7549C65.0098 27.3779 63.8965 26.25 62.5049 26.25H60C58.623 26.25 57.4951 27.3633 57.4951 28.7549V33.75C57.4951 35.127 58.6084 36.2549 60 36.2549H62.5049ZM60 28.7549H62.5049V33.75H60V28.7549Z" fill="#0C214C"/>
<path d="M58.7549 52.5C58.0664 52.5 57.5098 53.0566 57.5098 53.7451V61.2451C57.5098 61.9336 58.0664 62.4902 58.7549 62.4902C59.4434 62.4902 60 61.9336 60 61.2451V53.7451C60 53.0566 59.4434 52.5 58.7549 52.5Z" fill="#0C214C"/>
<path d="M62.5049 53.7451V61.2451C62.5049 61.9336 63.0615 62.4902 63.75 62.4902C64.4385 62.4902 64.9951 61.9336 64.9951 61.2451V53.7451C64.9951 53.0566 64.4385 52.5 63.75 52.5C63.0615 52.5 62.5049 53.0566 62.5049 53.7451Z" fill="#0C214C"/>
<path d="M72.4951 52.5H69.9902C68.6133 52.5 67.4854 53.6133 67.4854 55.0049V60C67.4854 61.377 68.5986 62.5049 69.9902 62.5049H72.4951C73.8721 62.5049 75 61.3916 75 60V55.0049C75 53.6133 73.8867 52.5 72.4951 52.5ZM70.0049 60V55.0049H72.5098V60H70.0049Z" fill="#0C214C"/>
<path d="M16.2451 22.5C16.9336 22.5 17.4902 21.9434 17.4902 21.2549V13.7549C17.4902 13.0664 16.9336 12.5098 16.2451 12.5098C15.5566 12.5098 15 13.0664 15 13.7549V21.2549C15 21.9434 15.5566 22.5 16.2451 22.5Z" fill="#0C214C"/>
<path d="M21.2549 22.5C21.9434 22.5 22.5 21.9434 22.5 21.2549V13.7549C22.5 13.0664 21.9434 12.5098 21.2549 12.5098C20.5664 12.5098 20.0098 13.0664 20.0098 13.7549V21.2549C19.9951 21.9434 20.5664 22.5 21.2549 22.5Z" fill="#0C214C"/>
<path d="M12.4951 21.2549V13.7549C12.4951 13.0664 11.9385 12.5098 11.25 12.5098C10.5615 12.5098 10.0049 13.0664 10.0049 13.7549V21.2549C10.0049 21.9434 10.5615 22.5 11.25 22.5C11.9385 22.5 12.4951 21.9434 12.4951 21.2549Z" fill="#0C214C"/>
<path d="M16.2451 48.75C16.9336 48.75 17.4902 48.1934 17.4902 47.5049V40.0049C17.4902 39.3164 16.9336 38.7598 16.2451 38.7598C15.5566 38.7598 15 39.3164 15 40.0049V47.5049C15 48.1934 15.5566 48.75 16.2451 48.75Z" fill="#0C214C"/>
<path d="M10.0049 47.5049V40.0049C10.0049 39.3164 9.44825 38.7598 8.75977 38.7598C8.07129 38.7598 7.51465 39.3164 7.51465 40.0049V47.5049C7.51465 48.1934 8.07129 48.75 8.75977 48.75C9.4336 48.75 10.0049 48.1934 10.0049 47.5049Z" fill="#0C214C"/>
<path d="M1.24512 48.75C1.93359 48.75 2.49023 48.1934 2.49023 47.5049V40.0049C2.49023 39.3164 1.93359 38.7598 1.24512 38.7598C0.556641 38.7598 0 39.3164 0 40.0049V47.5049C0 48.1934 0.556641 48.75 1.24512 48.75Z" fill="#0C214C"/>
<path d="M2.50488 22.499H5.00977C6.38672 22.499 7.51465 21.3857 7.51465 19.9941V14.999C7.51465 13.6221 6.40137 12.4941 5.00977 12.4941H2.50488C1.11328 12.4941 0 13.6221 0 14.999V19.9941C0 21.3857 1.11328 22.499 2.50488 22.499ZM2.50488 14.999H5.00977V19.9941H2.50488V14.999Z" fill="#0C214C"/>
<path d="M1.24512 36.2539C1.93359 36.2539 2.49023 35.6973 2.49023 35.0088V27.5088C2.49023 26.8203 1.93359 26.2637 1.24512 26.2637C0.556641 26.2637 0 26.8203 0 27.5088V35.0088C0 35.6826 0.556641 36.2539 1.24512 36.2539Z" fill="#0C214C"/>
<path d="M7.5 27.4951C7.5 26.8066 6.94336 26.25 6.25488 26.25C5.56641 26.25 5.00977 26.8066 5.00977 27.4951V34.9951C5.00977 35.6836 5.56641 36.2402 6.25488 36.2402C6.94336 36.2402 7.5 35.6836 7.5 34.9951V27.4951Z" fill="#0C214C"/>
<path d="M10.0049 28.7549V33.75C10.0049 35.127 11.1182 36.2549 12.5098 36.2549H15.0146C16.3916 36.2549 17.5195 35.1416 17.5195 33.75V28.7549C17.5195 27.3779 16.4062 26.25 15.0146 26.25H12.4951C11.1182 26.25 10.0049 27.3633 10.0049 28.7549ZM15 33.75H12.4951V28.7549H15V33.75Z" fill="#0C214C"/>
<path d="M15 61.2451C15 61.9336 15.5566 62.4902 16.2451 62.4902C16.9336 62.4902 17.4902 61.9336 17.4902 61.2451V53.7451C17.4902 53.0566 16.9336 52.5 16.2451 52.5C15.5566 52.5 15 53.0566 15 53.7451V61.2451Z" fill="#0C214C"/>
<path d="M11.25 62.5059C11.9385 62.5059 12.4951 61.9492 12.4951 61.2607V53.7607C12.4951 53.0723 11.9385 52.5156 11.25 52.5156C10.5615 52.5156 10.0049 53.0723 10.0049 53.7607V61.2607C10.0049 61.9346 10.5615 62.5059 11.25 62.5059Z" fill="#0C214C"/>
<path d="M2.50488 62.5049H5.00977C6.38672 62.5049 7.51465 61.3916 7.51465 60V55.0049C7.51465 53.6279 6.40137 52.5 5.00977 52.5H2.50488C1.11328 52.5 0 53.6133 0 55.0049V60C0 61.377 1.11328 62.5049 2.50488 62.5049ZM2.50488 55.0049H5.00977V60H2.50488V55.0049Z" fill="#0C214C"/>
<path d="M72.4951 10.0049C73.1836 10.0049 73.7402 9.44824 73.7402 8.75977V1.24512C73.7402 0.556641 73.1836 0 72.4951 0C71.8066 0 71.25 0.556641 71.25 1.24512V8.74512C71.25 9.43359 71.8066 10.0049 72.4951 10.0049Z" fill="#0C214C"/>
<path d="M67.5 10.0049C68.1885 10.0049 68.7451 9.44824 68.7451 8.75977V1.24512C68.7451 0.556641 68.1885 0 67.5 0C66.8115 0 66.2549 0.556641 66.2549 1.24512V8.74512C66.2549 9.43359 66.8115 10.0049 67.5 10.0049Z" fill="#0C214C"/>
<path d="M52.5 10.0049C53.1885 10.0049 53.7451 9.44824 53.7451 8.75977V1.24512C53.7451 0.556641 53.1885 0 52.5 0C51.8115 0 51.2549 0.556641 51.2549 1.24512V8.74512C51.2549 9.43359 51.8115 10.0049 52.5 10.0049Z" fill="#0C214C"/>
<path d="M58.7549 10.0049H61.2598C62.6367 10.0049 63.7646 8.8916 63.7646 7.5V2.50488C63.7646 1.12793 62.6514 0 61.2598 0H58.7549C57.3633 0 56.25 1.11328 56.25 2.50488V7.5C56.25 8.87695 57.3633 10.0049 58.7549 10.0049ZM58.7549 2.50488H61.2598V7.5H58.7549V2.50488Z" fill="#0C214C"/>
<path d="M43.7549 10.0049H46.2598C47.6367 10.0049 48.7646 8.8916 48.7646 7.5V2.50488C48.7646 1.12793 47.6514 0 46.2598 0H43.7549C42.3779 0 41.25 1.11328 41.25 2.50488V7.5C41.25 8.87695 42.3633 10.0049 43.7549 10.0049ZM43.7549 2.50488H46.2598V7.5H43.7549V2.50488Z" fill="#0C214C"/>
<path d="M37.5 10.0049C38.1885 10.0049 38.7451 9.44824 38.7451 8.75977V1.24512C38.7451 0.556641 38.1885 0 37.5 0C36.8115 0 36.2549 0.556641 36.2549 1.24512V8.74512C36.2549 9.43359 36.8115 10.0049 37.5 10.0049Z" fill="#0C214C"/>
<path d="M32.5049 10.0049C33.1934 10.0049 33.75 9.44824 33.75 8.75977V1.24512C33.75 0.556641 33.1934 0 32.5049 0C31.8164 0 31.2598 0.556641 31.2598 1.24512V8.74512C31.2451 9.43359 31.8164 10.0049 32.5049 10.0049Z" fill="#0C214C"/>
<path d="M2.50491 10.0049C3.19339 10.0049 3.75003 9.44824 3.75003 8.75977V1.24512C3.75003 0.556641 3.19339 0 2.50491 0C1.81644 0 1.2598 0.556641 1.2598 1.24512V8.74512C1.24515 9.43359 1.81644 10.0049 2.50491 10.0049Z" fill="#0C214C"/>
<path d="M17.5049 10.0049C18.1934 10.0049 18.75 9.44824 18.75 8.75977V1.24512C18.75 0.556641 18.1934 0 17.5049 0C16.8164 0 16.2598 0.556641 16.2598 1.24512V8.74512C16.2451 9.43359 16.8164 10.0049 17.5049 10.0049Z" fill="#0C214C"/>
<path d="M23.7451 10.0049H26.25C27.627 10.0049 28.7549 8.8916 28.7549 7.5V2.50488C28.7549 1.12793 27.6416 0 26.25 0H23.7451C22.3682 0 21.2402 1.11328 21.2402 2.50488V7.5C21.2549 8.87695 22.3682 10.0049 23.7451 10.0049ZM23.7451 2.50488H26.25V7.5H23.7451V2.50488Z" fill="#0C214C"/>
<path d="M8.74512 10.0049H11.25C12.627 10.0049 13.7549 8.8916 13.7549 7.5V2.50488C13.7549 1.11328 12.627 0 11.25 0H8.74512C7.36816 0 6.24023 1.11328 6.24023 2.50488V7.5C6.25488 8.87695 7.36816 10.0049 8.74512 10.0049ZM8.74512 2.50488H11.25V7.5H8.74512V2.50488Z" fill="#0C214C"/>
<path d="M1.24512 66.2552V73.7551C1.24512 74.4436 1.80176 75.0003 2.49023 75.0003C3.17871 75.0003 3.73535 74.4436 3.73535 73.7551V66.2552C3.73535 65.5667 3.17871 65.01 2.49023 65.01C1.81641 64.9954 1.24512 65.5667 1.24512 66.2552Z" fill="#0C214C"/>
<path d="M6.25488 66.2552V73.7551C6.25488 74.4436 6.81152 75.0003 7.5 75.0003C8.18848 75.0003 8.74512 74.4436 8.74512 73.7551V66.2552C8.74512 65.5667 8.18848 65.01 7.5 65.01C6.81152 64.9954 6.25488 65.5667 6.25488 66.2552Z" fill="#0C214C"/>
<path d="M21.2549 66.2552V73.7551C21.2549 74.4436 21.8115 75.0003 22.5 75.0003C23.1885 75.0003 23.7451 74.4436 23.7451 73.7551V66.2552C23.7451 65.5667 23.1885 65.01 22.5 65.01C21.8115 64.9954 21.2549 65.5667 21.2549 66.2552Z" fill="#0C214C"/>
<path d="M13.7549 75.001H16.2598C17.6367 75.001 18.7646 73.8877 18.7646 72.4961V67.501C18.7646 66.124 17.6514 64.9961 16.2598 64.9961H13.7549C12.3779 64.9961 11.25 66.1094 11.25 67.501V72.4961C11.25 73.8877 12.3633 75.001 13.7549 75.001ZM13.7549 67.501H16.2598V72.4961H13.7549V67.501Z" fill="#0C214C"/>
<path d="M28.7549 64.9961C27.3779 64.9961 26.25 66.1094 26.25 67.501V72.4961C26.25 73.873 27.3633 75.001 28.7549 75.001H31.2598C32.6367 75.001 33.7646 73.8877 33.7646 72.4961V67.501C33.7646 66.124 32.6514 64.9961 31.2598 64.9961H28.7549ZM28.7549 72.4961V67.501H31.2598V72.4961H28.7549Z" fill="#0C214C"/>
<path d="M36.2549 66.2549V73.7549C36.2549 74.4434 36.8115 75 37.5 75C38.1885 75 38.7451 74.4434 38.7451 73.7549V66.2549C38.7451 65.5664 38.1885 65.0098 37.5 65.0098C36.8115 65.0098 36.2549 65.5664 36.2549 66.2549Z" fill="#0C214C"/>
<path d="M41.25 66.2552V73.7551C41.25 74.4436 41.8066 75.0003 42.4951 75.0003C43.1836 75.0003 43.7402 74.4436 43.7402 73.7551V66.2552C43.7402 65.5667 43.1836 65.01 42.4951 65.01C41.8066 64.9954 41.25 65.5667 41.25 66.2552Z" fill="#0C214C"/>
<path d="M73.7549 73.7549V66.2549C73.7549 65.5664 73.1982 65.0098 72.5098 65.0098C71.8213 65.0098 71.2646 65.5664 71.2646 66.2549V73.7549C71.2646 74.4434 71.8213 75 72.5098 75C73.1836 75 73.7549 74.4434 73.7549 73.7549Z" fill="#0C214C"/>
<path d="M57.4951 75C58.1836 75 58.7402 74.4434 58.7402 73.7549V66.2549C58.7402 65.5664 58.1836 65.0098 57.4951 65.0098C56.8066 65.0098 56.25 65.5664 56.25 66.2549V73.7549C56.25 74.4434 56.8066 75 57.4951 75Z" fill="#0C214C"/>
<path d="M48.75 64.9961C47.373 64.9961 46.2451 66.1094 46.2451 67.501V72.4961C46.2451 73.873 47.3584 75.001 48.75 75.001H51.2549C52.6318 75.001 53.7598 73.8877 53.7598 72.4961V67.501C53.7598 66.124 52.6465 64.9961 51.2549 64.9961H48.75ZM48.75 72.4961V67.501H51.2549V72.4961H48.75Z" fill="#0C214C"/>
<path d="M63.75 75.001H66.2549C67.6318 75.001 68.7598 73.8877 68.7598 72.4961V67.501C68.7598 66.124 67.6465 64.9961 66.2549 64.9961H63.75C62.373 64.9961 61.2451 66.1094 61.2451 67.501V72.4961C61.2451 73.8877 62.373 75.001 63.75 75.001ZM63.75 67.501H66.2549V72.4961H63.75V67.501Z" fill="#0C214C"/>
</g>
<defs>
<clipPath id="clip0">
<rect width="75" height="75" fill="white"/>
</clipPath>
</defs>
</svg>
