<svg width="20" height="13" viewBox="0 0 20 13" fill="none" xmlns="http://www.w3.org/2000/svg">
<g clip-path="url(#clip0)">
<path d="M10.8002 8.99995C11.2002 8.19995 11.7002 7.19995 11.7002 6.09995C11.7002 4.89995 11.1002 3.79995 10.8002 3.19995H9.2002C8.8002 3.89995 8.2002 4.89995 8.2002 6.09995C8.2002 7.29995 8.8002 8.39995 9.1002 8.99995H10.8002Z" fill="#0A4586"/>
<path d="M12.9004 6.69999C12.7004 7.99999 12.2004 8.89999 11.9004 9.49999L16.4004 12C17.2004 12.4 18.3004 12.1 18.7004 11.3C19.5004 9.69999 19.9004 8.29999 20.0004 7.09999V6.79999L19.2004 6.19999L20.0004 5.49999V5.19999C19.9004 3.99999 19.6004 2.59999 18.7004 0.999993C18.3004 0.199993 17.2004 -0.200007 16.4004 0.299993L11.9004 2.79999C12.2004 3.49999 12.7004 4.39999 12.9004 5.59999H15.3004V6.79999L12.9004 6.69999Z" fill="#FF3333"/>
<path d="M0 6.99996C0.1 8.19996 0.4 9.59996 1.3 11.2C1.7 12 2.8 12.4 3.6 11.9L8.1 9.39996C7.8 8.69996 7.3 7.79996 7.1 6.59996H4.7V5.49996H7.1C7.3 4.19996 7.8 3.29996 8.1 2.69996L3.6 0.199964C2.7 -0.200036 1.7 0.0999642 1.3 0.899964C0.5 2.49996 0.1 3.89996 0 5.19996V5.49996L0.8 6.09996L0 6.69996V6.99996Z" fill="#FF3333"/>
</g>
<defs>
<clipPath id="clip0">
<rect width="20" height="12.1" fill="white"/>
</clipPath>
</defs>
</svg>
