<svg width="16" height="16" viewBox="0 0 16 16" fill="none" xmlns="http://www.w3.org/2000/svg">
<g clip-path="url(#clip0_6382_32946)">
<path d="M15.8768 0.123047L14.8922 3.07689L5.9728 11.1852L5.52788 10.4997L4.80911 10.0332L12.923 1.10766L15.8768 0.123047ZM6.21705 14.6621L6.9133 13.9659L4.99477 11.0108L2.0397 9.09228L1.34345 9.78852L3.2749 11.72L1.16659 14.0395C0.89188 14.0035 0.604249 14.09 0.393172 14.301C0.0326797 14.6615 0.0326797 15.2459 0.393172 15.6064C0.753664 15.9669 1.3381 15.9669 1.69859 15.6064C1.90954 15.3955 1.99606 15.108 1.96013 14.8334L4.27982 12.725L6.21705 14.6621Z" fill="#9F7B5E"/>
<path d="M0.122952 0.123047L1.10757 3.07689L10.027 11.1852L10.4719 10.4997L11.1906 10.0332L3.0768 1.10766L0.122952 0.123047ZM9.78271 14.6621L9.08646 13.9659L11.005 11.0108L13.9601 9.09228L14.6563 9.78852L12.7249 11.72L14.8332 14.0395C15.1079 14.0035 15.3955 14.09 15.6066 14.301C15.9671 14.6615 15.9671 15.2459 15.6066 15.6064C15.2461 15.9669 14.6617 15.9669 14.3012 15.6064C14.0902 15.3955 14.0037 15.108 14.0396 14.8334L11.7199 12.725L9.78271 14.6621Z" fill="#9F7B5E"/>
</g>
<defs>
<clipPath id="clip0_6382_32946">
<rect width="16" height="16" fill="white"/>
</clipPath>
</defs>
</svg>
