<svg width="158" height="95" viewBox="0 0 158 95" fill="none" xmlns="http://www.w3.org/2000/svg">
<g clip-path="url(#clip0)">
<path d="M83.5 93C121.884 93 153 89.1944 153 84.5C153 79.8056 121.884 76 83.5 76C45.1162 76 14 79.8056 14 84.5C14 89.1944 45.1162 93 83.5 93Z" fill="#D4DCBD"/>
<path d="M38.5293 29.7324C38.5293 29.7324 15.2094 48.1256 20.6643 61.5223C23.1887 63.4151 36.6934 44.775 36.6934 44.775L38.5293 29.7324Z" fill="#0E6A41"/>
<path d="M67.5678 29.9147C67.5678 29.9147 76.0942 22.6197 82.3435 18.5813L91.1406 21.4793C88.475 27.0167 69.8391 43.8639 69.8391 43.8639L67.5678 29.9147Z" fill="#0E6A41"/>
<path d="M38.4687 82.7194C38.5276 82.7194 38.5923 82.7194 38.6511 82.7194C49.6079 84.7063 58.505 85.3587 66.4195 85.3058C66.755 85.3058 67.0904 85.3 67.4258 85.2941L67.1257 78.7692L67.0962 78.1461L66.549 66.3071C64.9367 66.4952 63.3302 66.6481 61.7297 66.7656C61.2766 66.8009 60.8176 66.8303 60.3645 66.8597C55.5334 67.1595 50.7318 67.1595 45.9654 66.8597C45.2475 66.8127 44.5355 66.7656 43.8176 66.7069C42.3112 66.5834 40.8048 66.4306 39.3043 66.2484L38.7041 78.1167L38.4687 82.7194Z" fill="#201D40"/>
<path d="M48.2076 29.1564H58.6171L59.5115 38.8556L61.8652 68.5528L43.8002 68.0472L44.2121 35.1758L48.2076 29.1564Z" fill="#95A6DB"/>
<path d="M59.4688 11.9857C57.986 10.2869 56.8208 11.9328 54.7083 9.82835C52.5958 7.72392 50.9012 6.20732 49.0946 8.42931C47.2881 10.6513 46.3584 10.9629 45.0403 10.8335C43.7281 10.7042 43.734 16.1123 43.734 16.1123C43.734 16.1123 38.5616 14.819 39.2501 11.0452C40.0209 6.85981 41.9216 8.05898 42.9925 4.67308C44.0576 1.2813 48.1708 -0.629146 50.0538 0.187937C52.0368 1.04617 53.0784 1.9867 55.9676 1.28718C58.8568 0.587662 61.3459 1.43414 61.3401 5.17861C61.3342 8.92309 65.7416 7.80621 64.3293 12.4795C63.7821 14.29 62.2462 15.9594 61.5342 15.8183C60.5927 15.6244 60.4221 13.0849 59.4688 11.9857Z" fill="#2C2858"/>
<path d="M56.7 30.6081C56.7 30.6081 55.9409 33.8941 52.5162 33.4473C49.0915 33.0005 49.2445 30.6081 49.2445 30.6081L48.7502 23.4659H57.2002L56.7 30.6081Z" fill="#EFAE95"/>
<path d="M67.2028 27.9866C67.2028 27.9866 73.2873 57.9777 71.2042 75.1658C66.7556 80.8266 60.9183 80.5856 60.9183 80.5856C60.9183 80.5856 59.3178 40.0371 58.6234 29.1564C61.6833 28.8096 67.2028 27.9866 67.2028 27.9866Z" fill="#3F964F"/>
<path d="M38.5272 29.7325C38.5272 29.7325 31.1717 69.5051 35.6262 75.1659C40.0748 80.8267 45.9121 80.5857 45.9121 80.5857C45.9121 80.5857 45.5826 43.8992 48.207 29.1564C45.4473 29.2446 38.5272 29.7325 38.5272 29.7325Z" fill="#3F964F"/>
<path d="M52.1442 4.83187C63.048 4.57322 60.5589 19.2455 59.7645 21.5498C59.3291 22.8077 56.5634 27.6279 52.1148 27.6985C47.6662 27.6279 44.9594 22.8077 44.524 21.5498C43.7296 19.2455 40.8639 5.00822 52.1442 4.83187Z" fill="#FEC5A7"/>
<path d="M54.1038 14.3136C53.992 14.2548 53.9037 14.1549 53.8625 14.0255C53.7742 13.761 53.9213 13.4788 54.1861 13.3907C54.2685 13.3672 56.1515 12.7676 57.8697 13.9961C58.0934 14.1607 58.1463 14.4723 57.9874 14.6957C57.8227 14.919 57.5108 14.9719 57.2872 14.8132C55.9809 13.8786 54.5215 14.343 54.5039 14.3488C54.3627 14.39 54.2214 14.3782 54.1038 14.3136Z" fill="#2C2858"/>
<path d="M48.8434 14.2373C48.9552 14.1785 49.0435 14.0786 49.0847 13.9492C49.173 13.6847 49.0258 13.4026 48.761 13.3144C48.6787 13.2909 46.7957 12.6854 45.0774 13.9198C44.8538 14.0844 44.8009 14.396 44.9597 14.6194C45.1245 14.8427 45.4364 14.8956 45.66 14.7369C46.9663 13.8023 48.4256 14.2667 48.4433 14.2725C48.5845 14.3137 48.7257 14.3019 48.8434 14.2373Z" fill="#2C2858"/>
<path d="M46.802 16.1475C46.802 16.6354 47.2022 17.0351 47.6906 17.0351C48.179 17.0351 48.5791 16.6354 48.5791 16.1475C48.5791 15.6596 48.179 15.2599 47.6906 15.2599C47.1963 15.2599 46.802 15.6537 46.802 16.1475Z" fill="black"/>
<path d="M54.4983 15.936C54.4983 16.4239 54.8984 16.8236 55.3868 16.8236C55.8752 16.8236 56.2754 16.4239 56.2754 15.936C56.2754 15.4481 55.8752 15.0483 55.3868 15.0483C54.8984 15.0483 54.4983 15.4481 54.4983 15.936Z" fill="black"/>
<path d="M51.015 16.7002C50.2971 17.8347 49.3968 19.2161 49.3968 19.2161C49.3968 19.2161 49.8087 20.4153 51.3916 20.4388C50.7208 20.1625 50.0617 19.7099 50.3383 18.8164C50.6149 17.9288 51.015 16.7002 51.015 16.7002Z" fill="#EFAE95"/>
<path d="M48.9324 22.7372C48.7852 22.4962 48.9206 22.1494 49.1442 22.1729C49.7209 22.2376 50.6682 22.3258 51.5686 22.2846C52.4689 22.2435 53.4104 22.0789 53.9753 21.9613C54.1989 21.9143 54.3577 22.2493 54.2342 22.5021C53.8517 23.2722 53.0455 24.4537 51.6627 24.5125C50.2858 24.583 49.3796 23.472 48.9324 22.7372Z" fill="white"/>
<path d="M60.7719 14.631C59.5421 15.0425 59.189 6.23682 54.3992 9.42874C51.0274 11.6742 44.8135 12.2386 46.0669 9.18773C45.0606 9.93427 43.9191 11.1099 43.9191 11.1099L45.6961 5.23751C45.6961 5.23751 54.8405 2.3689 58.0828 5.27278C61.331 8.18254 60.7719 14.631 60.7719 14.631Z" fill="#2C2858"/>
<path d="M59.4396 19.3453C58.1946 18.7112 57.7729 17.046 58.4976 15.6259C59.2224 14.2057 60.8192 13.5685 62.0641 14.2026C63.3091 14.8366 63.7308 16.5019 63.0061 17.922C62.2813 19.3421 60.6845 19.9794 59.4396 19.3453Z" fill="#FEC5A7"/>
<path d="M60.3833 18.6046C60.4127 18.6046 60.4481 18.5988 60.4775 18.5929C60.6481 18.54 60.7482 18.3578 60.6952 18.1814C60.4304 17.3114 60.4539 16.6531 60.7658 16.2827C61.1836 15.7772 62.0251 15.8654 62.0368 15.8654C62.2192 15.883 62.3781 15.7537 62.3958 15.5773C62.4134 15.3951 62.2899 15.2364 62.1074 15.2188C62.0604 15.2129 60.9129 15.0894 60.2656 15.8654C59.8008 16.4238 59.736 17.2703 60.0715 18.3813C60.1126 18.5165 60.2421 18.6046 60.3833 18.6046Z" fill="#EFAE95"/>
<path d="M38.527 51.535L22.3803 54.5859C22.3803 54.5859 19.6911 59.3884 21.7271 64.6966C24.6105 64.8905 35.1376 62.9331 39.5156 54.7975C38.9625 53.2104 38.527 51.535 38.527 51.535Z" fill="#0E6A41"/>
<path d="M41.4125 58.6124C40.9653 58.4772 40.6593 58.1128 40.6534 57.7013C40.6475 57.3662 40.8476 57.0488 41.1654 56.8666L40.6063 45.4921V45.4803C40.6005 45.0218 40.7711 44.5868 41.1006 44.2165C41.1595 44.1518 41.2301 44.0872 41.2948 44.0225C41.8009 43.5816 42.1069 42.9585 42.1304 42.3119L42.3069 37.1919C42.1127 37.0038 42.1186 36.7334 42.1245 36.5923C42.1245 36.5571 42.1245 36.5218 42.1245 36.4865V36.3396C42.1186 36.0692 42.1775 35.8575 42.2952 35.6988C42.2952 35.6518 42.2893 35.6107 42.2893 35.5754C42.2893 35.4343 42.2893 35.2815 42.354 35.1345C42.4423 34.9288 42.6365 34.8053 42.8836 34.8053L45.2668 34.7759C45.3374 34.7759 45.408 34.7818 45.4727 34.8053C45.6198 34.8465 45.7317 34.9464 45.8082 35.0757C45.8905 35.2227 45.9023 35.399 45.9023 35.5284C45.9023 35.5989 45.9023 35.6636 45.8905 35.7223C46.0023 35.8752 46.0612 36.075 46.0612 36.2867V36.463C46.0612 36.6394 46.0671 36.898 45.8788 37.1037L46.1377 42.2884C46.1671 42.9233 46.479 43.5287 46.9909 43.9461C47.4558 44.3282 47.7147 44.8396 47.7206 45.3863C47.7206 45.3863 47.7206 45.3921 47.5735 56.8725C47.8147 57.0547 47.9618 57.3251 47.9677 57.6014C47.9736 58.1422 47.4676 58.5889 46.8438 58.5948L41.8068 58.6536C41.6655 58.6653 41.5361 58.6477 41.4125 58.6124Z" fill="white"/>
<path d="M45.6899 40.5306L45.79 42.3705C45.8312 43.0759 46.1607 43.746 46.7256 44.1752C47.1257 44.4808 47.3729 44.9158 47.3788 45.3978L47.2316 57.0663C47.467 57.178 47.62 57.3778 47.6259 57.613C47.6318 57.9657 47.2787 58.2596 46.8374 58.2655L41.8003 58.3242C41.359 58.3301 41.0001 58.0479 41.0001 57.6953C40.9942 57.4131 41.2178 57.1721 41.5238 57.0839L41.3767 54.0977L41.0883 48.2371L40.953 45.4743C40.9471 44.9922 41.1884 44.5514 41.5767 44.2339C42.1122 43.7989 42.4535 43.1641 42.4829 42.4705L42.6065 39.496C43.0773 39.7606 43.4068 40.3895 43.9835 40.4542C44.5425 40.5189 45.4487 39.7606 45.6899 40.5306Z" fill="#FFA823"/>
<path d="M46.2268 45.1217C46.4328 45.1217 46.6034 45.2687 46.627 45.4626C46.627 45.4744 46.627 45.4862 46.627 45.5038C46.627 45.5332 46.6269 45.5626 46.6152 45.592C46.574 45.7624 46.421 45.8976 46.2327 45.8976C46.1915 45.8976 46.1503 45.8918 46.1091 45.88C46.0267 45.8565 45.962 45.8095 45.9091 45.7448C45.862 45.6801 45.8326 45.5978 45.8267 45.5156C45.8267 45.3039 46.0032 45.1276 46.2268 45.1217Z" fill="#FFBF5E"/>
<path d="M45.4146 56.8663C45.4322 56.7722 45.4793 56.6841 45.5499 56.6135C45.6441 56.5195 45.7735 56.4607 45.9148 56.4607C46.0089 56.4607 46.0972 56.4842 46.1737 56.5254C46.209 56.5489 46.2443 56.5724 46.2796 56.6018C46.3561 56.6723 46.4091 56.7664 46.4267 56.8722C46.4326 56.9016 46.4385 56.931 46.4385 56.9603C46.4385 56.9897 46.4385 57.0191 46.4326 57.0485C46.4149 57.1485 46.3679 57.2425 46.2914 57.3189C46.2502 57.3601 46.2031 57.3953 46.1501 57.4189C46.0795 57.4541 46.003 57.4718 45.9265 57.4718C45.8736 57.4718 45.8206 57.4659 45.7676 57.4483C45.6912 57.4247 45.6205 57.3836 45.5617 57.3248C45.4911 57.2543 45.4381 57.172 45.4205 57.0779C45.4146 57.0426 45.4087 57.0074 45.4087 56.9721C45.4028 56.9368 45.4087 56.9016 45.4146 56.8663Z" fill="#FFBF5E"/>
<path d="M42.6882 53.5746C42.9707 53.5688 43.206 53.798 43.2119 54.0743C43.2119 54.2095 43.159 54.3388 43.0648 54.4329C42.9707 54.5269 42.8412 54.5857 42.7 54.5857C42.647 54.5857 42.5941 54.5798 42.5411 54.5622C42.4352 54.5328 42.3469 54.4681 42.2822 54.3859C42.2174 54.3036 42.1763 54.1977 42.1763 54.086C42.1763 53.8098 42.4058 53.5805 42.6882 53.5746Z" fill="#FFBF5E"/>
<path d="M44.5547 55.1148C44.6312 55.0384 44.7312 54.9973 44.8371 54.9973C44.943 54.9973 45.049 55.0384 45.1255 55.1089C45.2019 55.1854 45.2431 55.2794 45.249 55.3911C45.249 55.6086 45.0725 55.7908 44.8489 55.7908C44.8077 55.7908 44.7665 55.785 44.7253 55.7732C44.5605 55.7262 44.4429 55.5733 44.437 55.397C44.437 55.2912 44.4782 55.1912 44.5547 55.1148Z" fill="#FFBF5E"/>
<path d="M45.9768 52.6929C45.9886 52.6753 46.0004 52.6576 46.018 52.6459C46.0827 52.5812 46.1651 52.546 46.2593 52.546C46.271 52.546 46.2887 52.546 46.3005 52.546C46.4711 52.5636 46.6006 52.7047 46.6064 52.8751C46.6064 52.9574 46.577 53.0339 46.5241 53.0985C46.5182 53.1044 46.5123 53.1103 46.5064 53.1162C46.4476 53.1749 46.3652 53.2161 46.2769 53.2161C46.271 53.2161 46.271 53.2161 46.2652 53.2161C46.2298 53.2161 46.1945 53.2102 46.1592 53.2043C46.1063 53.1867 46.0592 53.1632 46.0239 53.122C45.9592 53.0574 45.918 52.9751 45.918 52.881C45.918 52.8164 45.9356 52.7458 45.9768 52.6929Z" fill="#FFBF5E"/>
<path d="M45.6137 51.8876C45.6255 51.8758 45.6431 51.8641 45.6608 51.8523C45.7196 51.8112 45.7843 51.7877 45.8549 51.7877C45.9491 51.7877 46.0315 51.8229 46.1021 51.8817C46.1668 51.9464 46.208 52.0287 46.208 52.1227C46.208 52.158 46.2021 52.1933 46.1904 52.2285C46.1904 52.2344 46.1845 52.2403 46.1845 52.252C46.1668 52.2932 46.1433 52.3343 46.108 52.3637C46.0433 52.4284 45.9609 52.4637 45.8667 52.4637C45.8314 52.4637 45.7961 52.4578 45.7608 52.4519C45.7078 52.4343 45.6608 52.4049 45.6196 52.3696C45.5548 52.3108 45.5137 52.2227 45.5137 52.1286C45.5137 52.0404 45.549 51.9523 45.6137 51.8876Z" fill="#FFBF5E"/>
<path d="M42.3422 44.7277C42.4069 44.6631 42.4893 44.6278 42.5835 44.6278C42.6776 44.6278 42.76 44.6631 42.8306 44.7219C42.8953 44.7865 42.9365 44.8688 42.9365 44.9629C42.9365 45.051 42.9012 45.1392 42.8365 45.2039C42.7718 45.2685 42.6894 45.3038 42.5952 45.3038C42.5599 45.3038 42.5246 45.2979 42.4893 45.2921C42.4364 45.2744 42.3893 45.2509 42.3481 45.2098C42.2834 45.1451 42.2422 45.0628 42.2422 44.9687C42.2422 44.8806 42.2775 44.7924 42.3422 44.7277Z" fill="#FFBF5E"/>
<path d="M43.5659 46.2206C43.7542 46.2206 43.9131 46.3676 43.9131 46.5557C43.9131 46.7438 43.7601 46.8966 43.5718 46.8966C43.5365 46.8966 43.5012 46.8908 43.4659 46.8849C43.3953 46.8614 43.3364 46.8202 43.2952 46.7673C43.254 46.7085 43.2246 46.6439 43.2246 46.5675C43.2246 46.3794 43.3776 46.2206 43.5659 46.2206Z" fill="#FFBF5E"/>
<path d="M46.2783 50.8646C46.3019 50.8352 46.3313 50.8117 46.3666 50.794C46.4019 50.7764 46.4372 50.7705 46.4725 50.7705C46.5431 50.7705 46.6079 50.794 46.655 50.841C46.7079 50.8881 46.7314 50.9527 46.7314 51.0174C46.7314 51.0879 46.7079 51.1467 46.655 51.1996C46.6079 51.2466 46.5431 51.276 46.4725 51.276C46.4431 51.276 46.4196 51.2702 46.396 51.2643C46.3784 51.2584 46.3607 51.2525 46.3431 51.2408C46.3137 51.2231 46.2901 51.1996 46.2666 51.1761C46.2313 51.135 46.2136 51.0821 46.2136 51.0233C46.2254 50.9645 46.243 50.9116 46.2783 50.8646Z" fill="#FFBF5E"/>
<path d="M43.6427 42.782C43.6897 42.735 43.7545 42.7056 43.8251 42.7056C43.9663 42.7056 44.084 42.8173 44.084 42.9584C44.084 43.0995 43.9722 43.2112 43.831 43.217C43.8015 43.217 43.778 43.2112 43.7545 43.2053C43.7015 43.1876 43.6603 43.1583 43.625 43.1171C43.5897 43.076 43.572 43.0231 43.572 42.9643C43.5662 42.8937 43.5897 42.8291 43.6427 42.782Z" fill="#FFBF5E"/>
<path d="M44.5538 46.6382C44.6009 46.5912 44.6656 46.5618 44.7362 46.5618C44.8774 46.5618 44.9951 46.6735 44.9951 46.8145C44.9951 46.9556 44.8833 47.0732 44.7421 47.0732C44.7127 47.0732 44.6891 47.0673 44.6597 47.0614C44.6244 47.0497 44.5832 47.032 44.5538 47.0026C44.5067 46.9556 44.4773 46.891 44.4773 46.8204C44.4773 46.7499 44.5067 46.6852 44.5538 46.6382Z" fill="#FFBF5E"/>
<path d="M43.5418 37.8505C43.5418 38.0503 43.7124 38.209 43.9125 38.2032C44.1185 38.2032 44.2773 38.0386 44.2773 37.8387C44.2773 37.6388 44.1067 37.4801 43.9066 37.486C43.7007 37.486 43.5418 37.6506 43.5418 37.8505Z" fill="#FFA823"/>
<path d="M43.3901 39.6434C43.3901 39.7904 43.5137 39.908 43.6608 39.9021C43.8079 39.9021 43.9315 39.7786 43.9256 39.6317C43.9256 39.4847 43.802 39.3671 43.6549 39.373C43.5078 39.373 43.3901 39.4965 43.3901 39.6434Z" fill="#FFA823"/>
<path d="M44.583 37.1158C44.583 37.2392 44.689 37.3392 44.8125 37.3333C44.9361 37.3333 45.0361 37.2333 45.0361 37.1099C45.0361 36.9865 44.9302 36.8865 44.8066 36.8924C44.6831 36.8924 44.583 36.9982 44.583 37.1158Z" fill="#FFA823"/>
<path d="M43.7481 36.4632C43.7481 36.6513 43.9069 36.7982 44.0952 36.7924C44.2835 36.7924 44.4365 36.6395 44.4365 36.4514C44.4365 36.2633 44.2776 36.1164 44.0893 36.1222C43.8952 36.1281 43.7422 36.281 43.7481 36.4632Z" fill="#FFA823"/>
<path d="M42.8273 38.0852C42.7861 38.0734 42.7508 38.0323 42.7508 37.9853C42.7508 37.9265 42.7978 37.8794 42.8567 37.8736L45.2163 37.8442C45.2752 37.8442 45.3222 37.8912 45.3281 37.95C45.3281 38.0088 45.281 38.0558 45.2222 38.0617L42.8626 38.0911C42.8508 38.0911 42.839 38.0911 42.8273 38.0852Z" fill="#95A6DB"/>
<path d="M42.3824 36.6862C42.3413 36.6744 42.306 36.6333 42.306 36.5862C42.306 36.5275 42.353 36.4804 42.4119 36.4746L44.1948 36.451C44.2537 36.451 44.3008 36.4981 44.3066 36.5569C44.3066 36.6156 44.2596 36.6627 44.2007 36.6685L42.4178 36.692C42.406 36.692 42.3942 36.692 42.3824 36.6862Z" fill="#95A6DB"/>
<path d="M42.2536 57.1194C42.2124 57.1077 42.1771 57.0665 42.1771 57.0195C42.1771 56.9607 42.2241 56.9137 42.283 56.9078L46.3609 56.8608C46.4197 56.8608 46.4668 56.9078 46.4727 56.9666C46.4727 57.0254 46.4256 57.0724 46.3667 57.0783L42.2889 57.1253C42.2771 57.1194 42.2653 57.1194 42.2536 57.1194Z" fill="#FF7023"/>
<path d="M43.8 43.6696C43.7588 43.6579 43.7235 43.6167 43.7235 43.5697C43.7235 43.5109 43.7706 43.4639 43.8294 43.458L45.4829 43.4404C45.5418 43.4404 45.5888 43.4874 45.5947 43.5462C45.5947 43.605 45.5476 43.652 45.4888 43.6579L43.8353 43.6755C43.8235 43.6755 43.8118 43.6696 43.8 43.6696Z" fill="#FF7023"/>
<path d="M38.7707 56.0788C38.2117 54.2271 37.5644 53.1867 38.7001 50.9235C39.112 50.1006 38.8355 49.2835 39.3415 48.29C39.7829 47.4259 40.336 47.3025 40.6891 47.4024L40.7714 49.5539C41.0304 50.1358 41.8189 50.6766 44.3727 50.0183C46.3263 49.5127 47.5679 48.4017 48.0975 49.3775C48.4447 50.0124 47.4149 50.2828 46.085 50.6825C47.8209 50.6178 47.8386 49.9183 48.3623 50.6649C48.9919 51.5643 46.4263 52.2873 45.1376 52.446C47.0324 52.8398 47.9739 51.4702 48.3799 52.0521C48.8036 52.734 47.7915 53.9097 45.6202 53.8274C47.5385 54.2271 48.0269 53.2631 48.2799 53.9038C48.5388 54.5681 46.1674 56.1963 43.184 56.3198C42.4249 56.3433 38.7707 56.0788 38.7707 56.0788Z" fill="#FEC5A7"/>
<path d="M94.3467 31.3783C94.3467 31.3783 93.3581 32.9713 91.8929 34.1235C88.5741 33.5415 88.3387 32.3776 88.3034 32.3541L89.2979 35.599C89.2979 35.599 87.0442 36.7099 85.626 37.1861C77.6998 40.3721 70.9092 38.2089 66.9196 36.1221C67.3256 35.4637 67.9846 34.3469 68.2612 33.618C67.9434 34.2998 65.9898 35.1757 65.5309 35.2933C64.4717 34.5938 63.1241 33.6356 63.1241 33.6356C63.1241 33.6356 67.0373 29.85 66.0604 22.7607C65.0836 15.6715 71.9272 11.5567 77.0701 11.6449C91.3809 11.8859 88.6447 21.1795 90.6454 25.453C92.852 30.1792 94.3467 31.3783 94.3467 31.3783Z" fill="black"/>
<path d="M79.1419 15.4421C76.6428 15.4421 74.6168 13.4183 74.6168 10.9217C74.6168 8.42516 76.6428 6.40131 79.1419 6.40131C81.641 6.40131 83.667 8.42516 83.667 10.9217C83.667 13.4183 81.641 15.4421 79.1419 15.4421Z" fill="black"/>
<path d="M77.2593 32.1542L82.4141 31.3841L82.0022 36.1632C82.0022 36.1632 79.3895 40.8599 76.918 40.0546C74.4407 39.2434 75.647 37.1683 75.647 37.1683L77.2593 32.1542Z" fill="#FEC5A7"/>
<path d="M68.4098 29.2092C68.5981 28.5155 69.1277 27.963 69.8044 27.7396C69.9633 27.6867 70.1339 27.6514 70.3046 27.6397C70.3634 27.6338 70.4223 27.6338 70.4811 27.6338C71.6639 27.6338 72.623 28.5919 72.623 29.7735C72.623 30.4436 72.3112 31.0432 71.8287 31.4312C71.4579 31.731 70.9931 31.9073 70.4811 31.9073C69.2984 31.9073 68.3392 30.9491 68.3392 29.7676C68.3392 29.5736 68.3627 29.3855 68.4098 29.2092ZM70.4811 31.5605C70.9107 31.5605 71.3049 31.4077 71.6109 31.1608C72.017 30.8316 72.2759 30.3319 72.2759 29.7676C72.2759 28.7801 71.4697 27.9747 70.4811 27.9747C70.2869 27.9747 70.0986 28.0041 69.9221 28.0629C69.828 28.0923 69.7338 28.1334 69.6455 28.1805C69.4278 28.298 69.2336 28.4568 69.0806 28.6449C68.8335 28.9505 68.6864 29.3385 68.6864 29.7617C68.6805 30.761 69.4867 31.5605 70.4811 31.5605Z" fill="#F7D743"/>
<path d="M69.1832 24.3329C68.9151 18.6318 72.3321 13.8397 76.8152 13.6293C81.2983 13.419 85.1499 17.8701 85.4179 23.5711C85.686 29.2722 82.269 34.0643 77.7859 34.2747C73.3028 34.4851 69.4512 30.034 69.1832 24.3329Z" fill="#FEC5A7"/>
<path d="M79.5282 23.1312C79.4634 23.1254 79.3987 23.096 79.3516 23.0489C78.6279 22.3494 77.4981 22.5963 77.4863 22.5963C77.3274 22.6316 77.1685 22.5316 77.1332 22.3729C77.0979 22.2142 77.198 22.0555 77.351 22.0202C77.4098 22.0085 78.7985 21.6969 79.7577 22.6198C79.8754 22.7315 79.8754 22.9196 79.7635 23.0372C79.7047 23.1136 79.6164 23.143 79.5282 23.1312Z" fill="black"/>
<path d="M69.7841 24.8769C69.7547 24.871 69.7253 24.8593 69.6959 24.8416C69.5546 24.7652 69.5017 24.583 69.5841 24.4419C70.196 23.3427 71.3612 23.3897 71.4082 23.3897C71.5671 23.3956 71.6966 23.5367 71.6848 23.6954C71.6789 23.8541 71.5377 23.9834 71.3788 23.9716C71.3435 23.9716 70.5256 23.9481 70.0901 24.7241C70.0313 24.8475 69.9018 24.9004 69.7841 24.8769Z" fill="black"/>
<path d="M74.2681 26.4348C73.9916 26.9521 73.768 27.4635 73.462 27.8103C73.3561 27.9279 73.3678 28.1042 73.4796 28.2159C73.9386 28.6626 74.9448 28.8508 75.5568 28.9213C75.6451 28.9331 75.6804 28.8096 75.598 28.7743C74.9154 28.451 74.5741 28.1689 74.4211 28.0043C74.3446 27.922 74.3152 27.8103 74.3329 27.6986C74.3799 27.4458 74.4741 26.9285 74.5153 26.5112C74.5329 26.3642 74.3329 26.3054 74.2681 26.4348Z" fill="#EFAE95"/>
<path d="M78.7403 29.903C78.8168 29.709 78.6285 29.5209 78.4402 29.5973C77.9518 29.7854 77.1398 30.0852 76.3395 30.291C75.5451 30.4967 74.686 30.6319 74.1682 30.7025C73.9622 30.7318 73.8916 30.9905 74.0564 31.1198C74.5506 31.5195 75.5039 32.0721 76.722 31.7547C77.9401 31.4372 78.505 30.4908 78.7403 29.903Z" fill="white"/>
<path d="M87.0922 22.7197C81.8963 23.4956 74.1818 20.0803 72.852 17.6291C72.9108 14.2079 75.1351 11.8448 78.4657 12.4562C81.8021 13.0734 88.069 18.1522 87.0922 22.7197Z" fill="black"/>
<path d="M74.2856 18.7166C74.2856 18.7166 71.8318 22.4317 68.8661 23.7543C69.2368 19.9099 69.4722 17.006 71.161 15.7481C72.8498 14.4901 74.874 13.9317 74.874 13.9317L74.2856 18.7166Z" fill="black"/>
<path d="M84.0423 22.9488C83.2538 24.0363 83.3362 25.4412 84.2248 26.082C85.1133 26.7286 86.4785 26.37 87.267 25.2825C88.0555 24.1951 87.9731 22.7901 87.0846 22.1494C86.196 21.5028 84.8309 21.8614 84.0423 22.9488Z" fill="#FEC5A7"/>
<path d="M85.4098 25.4824C85.3686 25.4765 85.3216 25.4589 85.2863 25.4295C84.7449 25.0239 84.539 24.4478 84.7331 23.8952C84.9332 23.3309 85.4981 22.9312 86.0748 22.9547C86.2395 22.9606 86.3631 23.0958 86.3572 23.2604C86.3513 23.425 86.216 23.5484 86.0512 23.5426C85.7335 23.5308 85.3981 23.7718 85.2863 24.0951C85.1745 24.4008 85.3039 24.7123 85.6393 24.9651C85.7688 25.065 85.7923 25.2473 85.6982 25.3766C85.6276 25.4589 85.5158 25.5 85.4098 25.4824Z" fill="#EFAE95"/>
<path d="M79.1417 24.0894C79.2358 24.5773 78.9181 25.0534 78.4297 25.1474C77.9413 25.2415 77.4646 24.9241 77.3705 24.4362C77.2763 23.9483 77.5941 23.4721 78.0825 23.3781C78.5709 23.284 79.0475 23.6015 79.1417 24.0894Z" fill="black"/>
<path d="M72.6915 25.3531C72.7856 25.841 72.4679 26.3172 71.9795 26.4112C71.4911 26.5053 71.0144 26.1879 70.9203 25.7C70.8261 25.2121 71.1439 24.7359 71.6323 24.6419C72.1207 24.5478 72.5973 24.8652 72.6915 25.3531Z" fill="black"/>
<path d="M84.4009 26.1936C84.6657 25.9644 84.9894 25.7998 85.3424 25.7234C85.4895 25.6881 85.6484 25.6705 85.8073 25.6705C85.8308 25.6705 85.8485 25.6705 85.872 25.6705C86.1662 25.6763 86.4487 25.7469 86.7076 25.8645C86.7135 25.8645 86.7135 25.8703 86.7194 25.8703C87.0077 26.0055 87.2549 26.1995 87.4549 26.4405C87.7609 26.8109 87.9492 27.287 87.9492 27.8043C87.9492 28.9858 86.9901 29.944 85.8073 29.944C85.3601 29.944 84.9364 29.8029 84.5951 29.5678C84.501 29.5031 84.4127 29.4326 84.3303 29.3503C83.9243 28.9623 83.6654 28.4098 83.6654 27.8043C83.6654 27.1694 83.9537 26.5875 84.4009 26.1936ZM84.4774 29.0152C84.5833 29.1328 84.701 29.2327 84.8305 29.315C85.1129 29.4972 85.4425 29.6031 85.8014 29.6031C86.79 29.6031 87.5962 28.7977 87.5962 27.8102C87.5962 27.3928 87.4549 27.0107 87.2196 26.7109C87.0018 26.4288 86.6958 26.2172 86.3487 26.1055C86.1957 26.0584 86.0368 26.029 85.872 26.0232C85.8485 26.0232 85.825 26.0232 85.8014 26.0232C85.6249 26.0232 85.4542 26.0467 85.2895 26.0996C85.1012 26.1584 84.9305 26.2407 84.7716 26.3524C84.3068 26.6757 84.0067 27.2106 84.0067 27.8219C84.0126 28.2746 84.1891 28.6978 84.4774 29.0152Z" fill="#F7D743"/>
<path d="M86.3077 26.1231C86.3077 26.1231 86.6372 25.9702 86.7549 25.835C86.5019 25.6881 85.8251 25.6234 85.8251 25.6234C85.8251 25.6234 86.0546 25.8233 85.8075 26.1231C85.9428 26.1348 86.3077 26.1231 86.3077 26.1231Z" fill="#FEC5A7"/>
<path d="M67.9376 85.2882C70.4149 85.2411 72.7981 85.1295 75.1224 84.9707C76.8053 84.8532 78.4589 84.718 80.0947 84.5593L77.0819 73.0437L76.8524 72.1796L71.5035 71.8034L68.3377 71.58L68.22 71.5741C68.22 71.5741 68.1906 71.8386 68.1435 72.35C68.0494 73.3846 67.9022 75.4303 67.8552 78.3106C67.8199 80.2622 67.8316 82.6077 67.9376 85.2882Z" fill="#FEC5A7"/>
<path d="M72.039 73.126C72.039 73.126 72.6275 77.6229 75.1166 84.9707C76.7995 84.8532 78.453 84.718 80.0889 84.5593C83.8784 84.1948 87.5738 83.7422 91.3457 83.2896C90.4101 79.016 89.2509 74.9012 87.7798 71.5741L77.0761 73.0496L75.6168 73.2494L72.039 73.126Z" fill="#FEC5A7"/>
<path d="M66.42 85.3059C66.7554 85.3059 67.0908 85.3 67.4262 85.2942C67.5969 85.2942 67.7675 85.2883 67.9382 85.2883C70.4155 85.2412 72.7987 85.1296 75.123 84.9708C76.8059 84.8533 78.4594 84.7181 80.0953 84.5594C83.8848 84.1949 87.5802 83.7423 91.3521 83.2897C92.9762 83.0957 94.6121 82.9017 96.2773 82.7136C95.5477 76.5237 94.053 70.5749 91.0638 66.7775C90.6107 66.2014 90.1223 65.6783 89.5986 65.208L71.6335 65.3785L71.051 65.3844C70.5273 66.0721 70.0565 66.8951 69.6387 67.8239C69.1445 68.9231 68.7149 70.1869 68.3442 71.5742C68.2794 71.827 68.2147 72.0797 68.15 72.3384C67.7204 74.1019 67.3791 76.0535 67.1026 78.1344C67.0732 78.3636 67.0437 78.5929 67.0143 78.828C66.7495 80.8913 66.5612 83.0663 66.42 85.3059Z" fill="#070635"/>
<path d="M69.5683 62.6919C69.3093 58.6652 65.4198 52.8575 66.832 48.6839C67.8382 45.3332 69.7566 37.7972 72.3339 37.133C73.3813 36.8626 74.3817 36.651 75.8234 36.6157C75.8234 36.6157 75.4526 39.9546 77.1885 39.984C80.525 40.0369 82.0432 35.6634 82.0432 35.6634C83.8202 35.3754 90.5285 36.8685 90.9109 38.391C91.2346 43.6697 89.3986 50.2122 88.3689 56.0082C88.2983 58.9297 89.1221 61.234 89.5222 62.8623C90.1636 64.5435 91.1581 66.3776 91.1875 66.7479C91.1875 66.7479 77.7358 72.0207 69.6271 68.2233C69.6153 68.2116 69.7448 65.4135 69.5683 62.6919Z" fill="#FEDA34"/>
<path d="M92.2411 40.807C92.0586 46.8675 83.3968 60.1994 77.0299 62.5096C73.7465 60.3582 72.4578 56.79 72.4578 56.79C72.4578 56.79 81.3903 45.2627 83.0438 41.7886C83.7087 40.3896 85.1798 36.457 87.4335 36.5628C90.8582 36.7157 92.2881 39.2962 92.2411 40.807Z" fill="#FEC5A7"/>
<path d="M57.0871 58.8241C57.0871 58.8241 70.0033 57.09 72.6513 56.4787C75.4229 55.8379 76.8586 59.7881 77.0293 62.5098C69.0795 63.9559 62.6537 63.3386 55.9102 61.9043C56.6046 60.2937 57.0871 58.8241 57.0871 58.8241Z" fill="#FEC5A7"/>
<path d="M83.2485 21.6088C83.3485 21.6911 83.4486 21.791 83.5251 21.9203C83.6016 22.0496 83.6427 22.2025 83.6545 22.3377C83.6663 22.4729 83.6486 22.5963 83.6192 22.708C83.5957 22.8197 83.5604 22.9137 83.5192 23.0078C83.4427 23.19 83.3485 23.3487 83.2603 23.4957C83.1661 23.6427 83.072 23.7896 82.9778 23.9248C82.6012 24.4774 82.2246 25.0064 81.9775 25.5884C81.8539 25.8764 81.7597 26.1821 81.7303 26.4936C81.695 26.8052 81.7186 27.1226 81.8186 27.4224C81.8657 27.5752 81.9304 27.7222 82.001 27.8633C82.0775 28.0044 82.1658 28.1454 82.2599 28.2748C82.46 28.5393 82.6895 28.7744 82.9366 28.9978C82.6659 28.8097 82.4011 28.5922 82.1716 28.3512C82.0598 28.2277 81.948 28.0925 81.8539 27.9514C81.7597 27.8104 81.6715 27.6575 81.6067 27.4988C81.4655 27.1814 81.3949 26.8287 81.3949 26.476C81.3949 26.1233 81.4596 25.7706 81.5597 25.4355C81.7656 24.7654 82.101 24.1599 82.407 23.578C82.4835 23.431 82.56 23.29 82.6247 23.143C82.6895 23.0019 82.7483 22.8608 82.7895 22.7315C82.8307 22.6022 82.8366 22.4846 82.8248 22.4258C82.8189 22.3965 82.8072 22.3906 82.7954 22.3788C82.7836 22.3671 82.7601 22.3494 82.7307 22.3318L83.2485 21.6088Z" fill="black"/>
<path d="M49.7339 55.3403L50.7373 55.2658L51.2339 61.9366L50.2305 62.0111L49.7339 55.3403Z" fill="white"/>
<path d="M48.3186 62.363C48.2774 61.9339 49.3189 61.4871 50.637 61.3696C51.9551 61.252 53.0555 61.5048 53.0967 61.9339L48.3186 62.363Z" fill="white"/>
<path d="M50.1605 55.7909L44.2408 51.4116C44.0643 51.2823 44.1467 51.0001 44.3644 50.9883L54.9504 50.33C55.1681 50.3182 55.2858 50.5769 55.1328 50.7297L50.1605 55.7909Z" fill="white"/>
<path d="M53.1274 49.7268L53.3848 49.881L51.5777 52.8903L51.3203 52.7361L53.1274 49.7268Z" fill="#FEC5A7"/>
<path d="M54.5625 49.4894C54.2388 50.0479 53.5798 50.2713 53.0855 49.9891C52.5912 49.7069 52.4559 49.0192 52.7795 48.4607C53.1031 47.9023 53.7622 47.6789 54.2565 47.9611C54.7508 48.2491 54.8861 48.931 54.5625 49.4894Z" fill="#6AA35D"/>
<path d="M54.3462 48.3725C54.3226 48.4901 54.1343 48.5489 53.9225 48.5077C53.7165 48.4666 53.5635 48.3314 53.5871 48.2138C53.6106 48.0962 53.7989 48.0374 54.0108 48.0786C54.2226 48.1256 54.3697 48.2549 54.3462 48.3725Z" fill="#56854C"/>
<path d="M50.2259 55.0914L45.6302 51.8289C45.5007 51.729 45.5596 51.5232 45.7243 51.5115L53.6094 51.0236C53.7683 51.0118 53.8566 51.2058 53.7448 51.3234L50.2259 55.0914Z" fill="#92C985"/>
<path d="M57.2064 61.3398C54.1171 62.9329 52.9697 61.2576 52.5107 60.6403C52.0105 59.9643 51.122 59.2942 50.4394 59.4823C49.7391 59.6704 49.1683 60.0408 48.8329 59.5293C48.3681 58.8122 50.2687 57.6542 51.6221 58.6006C51.6221 58.6006 50.5747 57.8364 49.8333 58.095C49.0212 58.3772 48.421 58.5829 48.0738 58.2185C47.8914 58.0245 47.8855 57.6424 48.1739 57.4132C47.7679 57.4308 47.0794 57.1721 47.3324 56.7489C48.1327 55.4028 50.2158 54.4799 52.2753 55.4851C50.4217 53.5276 48.8094 55.2793 48.1209 54.8032C47.709 54.5152 48.0562 54.0037 48.3798 53.751C49.4331 52.9457 50.863 52.8281 52.0693 53.3806C53.2756 53.9332 54.6114 55.438 54.5231 56.7548C54.5231 56.7548 56.159 58.5535 57.3535 58.7887L57.2064 61.3398Z" fill="#FEC5A7"/>
<path d="M68.4396 46.9969L70.0813 48.1079L72.3174 44.5809L69.5341 43.2289L68.4396 46.9969Z" fill="#FEC5A7"/>
<path d="M69.498 47.9902C71.5811 50.3885 83.2204 60.799 87.7219 60.0877C88.7693 57.3014 89.2754 53.0102 87.1747 51.0116C82.7732 48.2194 72.1401 43.9165 72.1401 43.9165L69.498 47.9902Z" fill="#EA8249"/>
<path d="M94.3471 36.3219C94.3471 36.3219 100.22 41.63 98.9369 47.9962C97.6541 54.3624 91.958 61.2459 87.5388 59.9879C81.8957 52.7165 91.7932 39.1317 94.3471 36.3219Z" fill="#EA8249"/>
<path d="M66.2973 41.0715C66.9622 41.4184 69.1806 42.2648 69.8044 43.4816C70.181 44.2105 69.7455 45.3803 69.2807 46.1328C69.4454 47.8257 65.6618 48.9367 65.6618 48.9367L64.7968 42.9585L66.2973 41.0715Z" fill="#FEC5A7"/>
<path d="M65.4274 50.8824C65.8923 50.7589 66.1688 50.2769 66.0394 49.8125C65.6863 48.5663 65.1273 46.2209 65.4039 44.8513C65.9099 42.3471 65.6334 41.6358 64.3153 37.8914C64.1623 37.4622 63.7092 37.2212 63.2678 37.3388C63.2678 37.3388 61.9556 37.4211 60.5728 37.7973C59.19 38.1735 58.3426 38.6732 58.3426 38.6732C57.9013 38.7907 57.6306 39.2316 57.7189 39.6784C58.478 43.5757 58.5956 44.3281 60.2962 46.2385C61.226 47.279 61.9262 49.5892 62.2557 50.8412C62.3793 51.3056 62.8559 51.5878 63.3267 51.4585L65.4274 50.8824Z" fill="white"/>
<path d="M64.8895 45.1451C64.6894 46.3384 65.1837 48.3958 65.4956 49.495C65.6074 49.9065 65.3955 50.318 65.0131 50.4238L63.3007 50.8882C62.9241 50.9881 62.5239 50.7412 62.418 50.3298C62.1297 49.2305 61.5177 47.1966 60.741 46.2737C59.6818 45.0099 59.3523 44.3222 58.9639 42.6351C59.8818 42.1472 61.1764 41.8415 62.6475 42.0179C63.7126 42.1413 64.3717 41.9415 64.76 41.7181C65.119 42.9702 65.1307 43.7284 64.8895 45.1451Z" fill="#FFA823"/>
<path d="M60.6866 43.6462C60.7337 43.8167 60.6337 43.993 60.4572 44.04C60.2865 44.0871 60.11 43.9871 60.0629 43.8108C60.0158 43.6403 60.1159 43.464 60.2924 43.4169C60.463 43.3758 60.6396 43.4757 60.6866 43.6462Z" fill="#FFBF5E"/>
<path d="M63.1114 46.0738C63.1585 46.2443 63.0585 46.4206 62.8819 46.4677C62.7113 46.5147 62.5348 46.4148 62.4877 46.2384C62.4406 46.0679 62.5407 45.8916 62.7172 45.8446C62.8878 45.8034 63.0644 45.9033 63.1114 46.0738Z" fill="#FFBF5E"/>
<path d="M64.1417 43.6579C64.1888 43.8284 64.0888 44.0047 63.9122 44.0518C63.7357 44.0988 63.565 43.9989 63.518 43.8225C63.4709 43.652 63.5709 43.4757 63.7475 43.4287C63.9181 43.3875 64.0946 43.4874 64.1417 43.6579Z" fill="#FFBF5E"/>
<path d="M61.3774 41.0773C61.4362 41.2948 61.3068 41.5182 61.0891 41.5769C60.8714 41.6357 60.6478 41.5064 60.5889 41.2889C60.5301 41.0714 60.6595 40.848 60.8772 40.7892C61.095 40.7305 61.3186 40.8539 61.3774 41.0773Z" fill="#FFBF5E"/>
<path d="M61.3344 43.0819C61.4344 43.1406 61.4697 43.2641 61.4109 43.364C61.3521 43.4639 61.2285 43.4992 61.1284 43.4404C61.0284 43.3816 60.9931 43.2582 61.0519 43.1583C61.1108 43.0642 61.2402 43.029 61.3344 43.0819Z" fill="#FFBF5E"/>
<path d="M59.006 40.3955C59.159 40.3544 59.312 40.4426 59.3532 40.5954C59.3944 40.7482 59.3061 40.9011 59.1531 40.9422C59.0001 40.9834 58.8471 40.8952 58.8059 40.7424C58.7647 40.5895 58.853 40.4367 59.006 40.3955Z" fill="#FFBF5E"/>
<path d="M61.2694 39.9604C61.3989 39.9251 61.5342 40.0015 61.5695 40.1308C61.6048 40.2602 61.5283 40.3954 61.3989 40.4306C61.2694 40.4659 61.1341 40.3895 61.0988 40.2602C61.0634 40.125 61.1399 39.9957 61.2694 39.9604Z" fill="#FFBF5E"/>
<path d="M63.6938 38.9376C63.8527 38.8965 64.0234 38.9905 64.0646 39.1493C64.1057 39.308 64.0116 39.4784 63.8527 39.5196C63.6938 39.5607 63.5232 39.4667 63.482 39.308C63.4408 39.1434 63.535 38.9788 63.6938 38.9376Z" fill="#FFBF5E"/>
<path d="M62.3107 44.2575C62.3989 44.187 62.5284 44.2046 62.599 44.2928C62.6696 44.381 62.652 44.5103 62.5637 44.5808C62.4754 44.6514 62.346 44.6337 62.2754 44.5455C62.2047 44.4574 62.2165 44.3281 62.3107 44.2575Z" fill="#FFBF5E"/>
<path d="M62.7298 41.1183C62.8533 41.0242 63.024 41.0477 63.1181 41.1712C63.2123 41.2946 63.1887 41.4651 63.0652 41.5592C62.9416 41.6532 62.7709 41.6297 62.6768 41.5063C62.5827 41.3887 62.6062 41.2123 62.7298 41.1183Z" fill="#FFBF5E"/>
<path d="M63.089 49.9947C63.1773 49.9242 63.3067 49.9418 63.3773 50.03C63.4479 50.1181 63.4303 50.2475 63.342 50.318C63.2538 50.3885 63.1243 50.3709 63.0537 50.2827C62.9772 50.1946 62.9949 50.0652 63.089 49.9947Z" fill="#FFBF5E"/>
<path d="M62.3891 46.8909C62.4891 46.9497 62.5244 47.0731 62.4656 47.173C62.4067 47.273 62.2832 47.3082 62.1831 47.2494C62.0831 47.1907 62.0478 47.0672 62.1067 46.9673C62.1655 46.8674 62.2949 46.8321 62.3891 46.8909Z" fill="#FFBF5E"/>
<path d="M64.0707 48.3312C64.1708 48.39 64.2061 48.5134 64.1472 48.6134C64.0884 48.7133 63.9648 48.7486 63.8648 48.6898C63.7647 48.631 63.7294 48.5075 63.7883 48.4076C63.8471 48.3077 63.9707 48.2724 64.0707 48.3312Z" fill="#FFBF5E"/>
<path d="M59.0515 39.3782C62.1526 39.3782 63.5943 37.9439 63.659 37.8793C63.7061 37.8322 63.7061 37.7558 63.659 37.7088C63.612 37.6618 63.5355 37.6618 63.4884 37.7088C63.4707 37.7264 61.7878 39.3959 58.1983 39.102C58.1336 39.0961 58.0747 39.1431 58.0689 39.2136C58.063 39.2783 58.11 39.3371 58.1807 39.343C58.4866 39.3724 58.775 39.3782 59.0515 39.3782Z" fill="#B5C3E5"/>
<path d="M61.9016 46.1915C62.4489 46.503 62.6372 47.4494 62.3017 48.2312C62.2606 48.2312 62.2664 48.2783 62.2664 48.2783C62.3488 48.2724 62.3959 48.3194 62.4901 48.3664C62.9137 48.6839 63.1079 49.3893 62.8549 49.9301C62.6019 50.4709 62.0605 50.7354 61.5956 50.418C61.2249 50.1946 61.0131 49.6303 61.1072 49.1483C60.9836 49.1541 60.8071 49.113 60.6718 49.0248C60.3011 48.8014 60.0892 48.2371 60.1245 47.6611C60.0363 47.6199 59.9421 47.5729 59.8538 47.5317C59.389 47.2202 59.183 46.4149 59.4007 45.6859C59.236 45.6918 59.1006 45.6507 58.9653 45.5625C58.4534 45.2039 58.2415 44.3986 58.5122 43.7167C58.7829 43.0348 59.4478 42.7644 60.0068 43.1171C60.4717 43.4287 60.6835 43.993 60.607 44.5749C60.7718 44.5691 60.9483 44.6043 61.0837 44.6984C61.4544 44.9218 61.6662 45.4861 61.6309 46.0622C61.7251 46.1092 61.8133 46.1503 61.9016 46.1915Z" fill="#FEC5A7"/>
<path d="M66.2612 41.0541C66.7496 41.3891 66.7143 42.2768 66.1906 43.0351C65.6668 43.7992 64.8489 44.1461 64.3664 43.8169C63.8839 43.4877 63.9133 42.5942 64.437 41.8359C64.9548 41.0658 65.7728 40.719 66.2612 41.0541Z" fill="#FEC5A7"/>
<path d="M105.911 75.6301C104.793 78.0637 103.474 80.9911 102.139 84.0948C106.005 84.6944 110.23 84.8708 114.343 84.8002C116.95 84.7591 119.515 84.618 121.904 84.4358C124.117 80.4973 125.564 77.7757 125.564 77.7757L123.952 76.9292L115.279 72.3794L109 69.0817C109 69.0758 107.717 71.7093 105.911 75.6301Z" fill="#2E5BE6"/>
<path d="M112.654 73.0084C112.654 73.0084 112.842 74.5426 113.189 77.0174C113.478 79.0748 113.866 81.7788 114.349 84.7944C116.955 84.7532 119.521 84.6121 121.91 84.4299C126.318 84.089 130.142 83.5776 132.626 83.2014C132.643 79.304 132.614 75.7594 132.579 73.0966C132.537 70.0869 132.49 68.2058 132.49 68.2058L125.311 69.9399L123.958 70.2691L115.284 72.3676L112.654 73.0084Z" fill="#4E73E6"/>
<path d="M114.431 29.7145L99.6138 33.5119L94.3473 36.3276C94.9652 45.0686 105.01 75.4124 105.01 75.4124C105.01 75.4124 115.131 77.9988 120.904 77.4404C128.818 76.6703 134.408 71.7384 134.408 71.7384C133.714 62.4978 130.248 51.3349 125.123 40.1779C123.163 35.9161 118.65 30.8725 114.431 29.7145Z" fill="#F29456"/>
<path d="M103.529 25.6879L99.9216 26.3815L100.704 35.0344C100.704 35.0344 100.975 37.0741 104.729 36.9683C107.954 36.8802 109.401 33.4237 109.401 33.4237L107.077 25.0354L103.529 25.6879Z" fill="#FEC5A7"/>
<path d="M110.366 20.4678C109.283 26.6988 105.147 31.1664 100.245 30.3199C95.3432 29.4734 92.248 23.7362 93.3307 17.4993C94.4135 11.2683 99.2563 6.90073 104.158 7.7472C109.06 8.59956 111.449 14.2368 110.366 20.4678Z" fill="#FEC5A7"/>
<path d="M99.0635 19.9271C98.1102 21.0675 96.9098 22.4607 96.9098 22.4607C96.9098 22.4607 97.1864 23.8421 98.9281 24.0948C98.2338 23.6892 97.5747 23.0955 98.0043 22.155C98.4397 21.2145 99.0635 19.9271 99.0635 19.9271Z" fill="#EFAE95"/>
<path d="M113.302 15.6125C114.073 9.66367 108.653 7.4887 108.653 7.4887C108.653 7.4887 109.901 7.10662 109.671 5.29022C108.783 5.78988 107.712 5.99562 106.7 5.85454C99.8972 4.90813 95.5487 5.86042 96.1254 8.56443C96.3313 9.52847 91.8768 9.84002 93.6009 16.2297C94.054 15.5008 94.5425 12.7145 95.8959 12.1502C97.2552 11.5859 96.3784 13.7373 99.4088 13.514C102.469 13.2906 104.499 12.109 106.67 13.3964C108.4 14.5544 110.33 21.9082 110.213 22.4019C110.495 21.2733 112.966 18.2284 113.302 15.6125Z" fill="#181B47"/>
<path d="M93.1485 20.9206C93.1485 20.9206 93.5957 24.3476 94.3019 25.2882C94.5196 23.8304 97.703 24.8767 99.0976 25.053C101.622 25.3763 104.282 23.2308 105.006 26.5873C109.248 27.1869 109.678 19.8566 109.678 19.8566C110.101 25.4998 107.912 32.83 99.5625 32.4538C94.1842 32.2069 92.0128 26.0523 93.1485 20.9206Z" fill="#181B47"/>
<path d="M94.0126 17.8874C94.1597 17.9051 94.3127 17.8404 94.4069 17.717C94.6658 17.3701 94.96 17.1762 95.2719 17.1409C95.8132 17.0821 96.3016 17.4877 96.3075 17.4936C96.4899 17.6464 96.7606 17.6288 96.9136 17.4466C97.0666 17.2643 97.049 16.9939 96.8724 16.8411C96.843 16.8117 96.1075 16.1827 95.1836 16.2827C94.6187 16.3414 94.1244 16.653 93.7125 17.2056C93.5713 17.3937 93.6066 17.6699 93.8008 17.811C93.8655 17.8522 93.942 17.8816 94.0126 17.8874Z" fill="#181B47"/>
<path d="M104.287 18.4341C104.381 18.44 104.481 18.4106 104.563 18.3518C104.757 18.2107 104.799 17.9403 104.657 17.7464C104.122 17.0174 103.51 16.6001 102.839 16.5237C101.974 16.4179 101.356 16.9293 101.333 16.9528C101.15 17.1056 101.127 17.376 101.28 17.5582C101.433 17.7405 101.703 17.764 101.886 17.6112C101.898 17.5994 102.268 17.3172 102.751 17.3819C103.169 17.4348 103.581 17.7287 103.963 18.2578C104.034 18.3695 104.157 18.4282 104.287 18.4341Z" fill="#181B47"/>
<path d="M109.754 19.886C108.636 20.8677 108.383 22.402 109.183 23.319C109.989 24.236 111.548 24.1772 112.666 23.1955C113.784 22.2139 114.037 20.6796 113.237 19.7626C112.431 18.8515 110.872 18.9044 109.754 19.886Z" fill="#FEC5A7"/>
<path d="M110.607 22.9545C110.56 22.9368 110.518 22.9075 110.489 22.8663C110.001 22.2961 109.918 21.626 110.265 21.0734C110.624 20.5091 111.33 20.2211 111.948 20.3798C112.125 20.4268 112.225 20.6032 112.178 20.7795C112.131 20.9559 111.954 21.0558 111.778 21.0088C111.442 20.9206 111.019 21.0969 110.813 21.4202C110.618 21.7259 110.677 22.0904 110.977 22.4431C111.095 22.5783 111.077 22.784 110.942 22.9016C110.848 22.9839 110.719 23.0015 110.607 22.9545Z" fill="#EFAE95"/>
<path d="M101.933 27.1927C102.092 27.0163 101.962 26.7283 101.721 26.74C101.109 26.7577 100.097 26.7635 99.1379 26.6695C98.1788 26.5813 97.1843 26.3873 96.5841 26.258C96.3487 26.2051 96.1663 26.4638 96.2958 26.6695C96.6841 27.2985 97.508 28.2801 98.9791 28.4212C100.444 28.5564 101.433 27.7452 101.933 27.1927Z" fill="white"/>
<path d="M101.297 20.1211C101.039 19.6685 101.197 19.0924 101.651 18.8338C102.104 18.5751 102.68 18.7338 102.939 19.1865C103.198 19.6391 103.039 20.2152 102.586 20.4738C102.139 20.7266 101.562 20.5737 101.297 20.1211Z" fill="black"/>
<path d="M95.9136 19.8447C95.4958 20.0798 94.9662 19.9387 94.7309 19.5214C94.4955 19.104 94.6367 18.575 95.0545 18.3399C95.4723 18.1047 96.0019 18.2458 96.2373 18.6632C96.4727 19.0805 96.3255 19.6096 95.9136 19.8447Z" fill="black"/>
<path d="M132.729 63.832C132.023 67.8175 128.993 68.1584 128.093 68.1466C127.11 68.129 125.862 68.4817 125.556 69.24C125.239 70.0218 125.174 70.8154 124.462 70.7566C123.467 70.6802 123.738 68.0996 125.574 67.5177C125.574 67.5177 124.127 67.9527 123.838 68.8168C123.526 69.7632 123.291 70.4686 122.714 70.5332C122.402 70.5685 122.049 70.304 122.038 69.869C121.767 70.2511 121.043 70.7096 120.825 70.1805C120.143 68.4876 120.761 65.907 123.138 64.7137C120.013 65.0488 120.502 67.7763 119.572 68.0761C119.013 68.2525 118.784 67.5706 118.778 67.0886C118.772 65.5484 119.678 64.1377 121.037 63.4146C122.402 62.6916 124.738 62.5152 125.904 63.5322C125.904 63.5322 127.828 63.7085 128.257 62.4447L132.729 63.832Z" fill="#FEC5A7"/>
<path d="M114.566 29.7145C114.566 29.7145 128.241 31.9247 138.827 44.3397C136.309 51.0116 131.119 48.8013 131.119 48.8013L117.367 42.8936C117.367 42.8936 113.648 39.831 113.136 35.4341C112.648 31.1782 114.566 29.7145 114.566 29.7145Z" fill="#EA8249"/>
<path d="M127.234 62.2626L131.818 48.4956C131.818 48.4956 131.618 43.6989 138.826 44.3338C140.079 47.7902 140.827 54.7854 132.771 64.126C130.641 64.0084 127.234 62.2626 127.234 62.2626Z" fill="#EA8249"/>
<path d="M13.8282 13.7814C13.2349 16.861 15.2515 19.8383 18.3325 20.4313C21.4135 21.0243 24.392 19.0086 24.9853 15.9289C25.5786 12.8493 23.562 9.87204 20.481 9.279C17.4 8.68597 14.4214 10.7018 13.8282 13.7814Z" fill="#F8D671"/>
<path d="M3.28125 29.8921C1.46906 29.8921 0 31.3605 0 33.1719C0 34.9833 1.46906 36.4518 3.28125 36.4518C5.09344 36.4518 6.5625 34.9833 6.5625 33.1719C6.5625 31.3605 5.09344 29.8921 3.28125 29.8921Z" fill="#94B052"/>
<path d="M129.198 14.7237C128.255 14.7237 127.49 15.4884 127.49 16.4317C127.49 17.3751 128.255 18.1398 129.198 18.1398C130.142 18.1398 130.907 17.3751 130.907 16.4317C130.907 15.4884 130.142 14.7237 129.198 14.7237Z" fill="#94B052"/>
<path d="M145.148 72.6558C144.208 73.5961 144.208 75.1205 145.148 76.0607C146.089 77.0009 147.614 77.0009 148.555 76.0607C149.495 75.1205 149.495 73.5961 148.555 72.6558C147.614 71.7156 146.089 71.7156 145.148 72.6558Z" fill="#F8D671"/>
<path d="M143.42 14.8464C142.596 18.4517 144.852 22.0419 148.459 22.8655C152.066 23.6891 155.658 21.434 156.482 17.8288C157.306 14.2235 155.05 10.6333 151.443 9.80971C147.836 8.98615 144.244 11.2412 143.42 14.8464Z" fill="#2A393F"/>
<path d="M140.305 89.4383C138.374 90.2832 137.493 92.5332 138.338 94.4638C139.184 96.3944 141.435 97.2746 143.366 96.4297C145.298 95.5849 146.178 93.3349 145.333 91.4042C144.488 89.4736 142.237 88.5934 140.305 89.4383Z" fill="#FBE698"/>
</g>
<defs>
<clipPath id="clip0">
<rect width="158" height="95" fill="white"/>
</clipPath>
</defs>
</svg>
