<svg width="157" height="108" viewBox="0 0 157 108" fill="none" xmlns="http://www.w3.org/2000/svg">
<path d="M103.482 102.5H111.483C112.653 101.488 113.637 100.169 114.314 98.9426C115.884 96.1515 116.992 92.9617 119.33 90.784C120.438 89.7412 121.792 88.9744 123.054 88.1156C125.793 86.2139 128.254 83.4842 128.654 80.1717C128.931 77.81 128.162 75.4483 128.254 73.0559C128.562 65.0507 138.194 59.6525 138.163 51.6472C138.163 49.6536 137.179 47.3532 135.209 46.9852C134.286 46.8012 133.332 47.0772 132.532 47.5066C129.885 48.9175 128.408 51.8006 126.962 54.4383C125.516 57.0761 123.638 59.8365 120.746 60.634C120.007 60.8487 119.238 60.91 118.499 61.1247C115.114 62.1675 113.607 66.1242 113.237 69.6514C112.868 73.1786 113.022 76.9512 111.114 79.9263C109.021 83.1468 104.959 84.6497 102.836 87.8395C101.39 90.0172 101.02 92.747 101.359 95.3234C101.605 97.317 102.067 100.507 103.482 102.5Z" fill="#2A393F"/>
<path d="M113.915 84.2817L113.699 84.067C115.946 81.92 118.254 79.7423 119.915 77.0739C121.639 74.3134 122.623 71.1236 123.577 68.0258C124.5 64.9893 125.485 61.8302 127.178 59.0697C128.255 57.2908 129.64 55.6652 130.994 54.101C132.871 51.9233 134.809 49.6536 135.886 46.9545L136.163 47.0772C135.056 49.807 133.117 52.1073 131.209 54.285C129.886 55.8492 128.501 57.4442 127.424 59.1924C125.762 61.9222 124.808 65.0507 123.885 68.0871C122.931 71.185 121.946 74.4055 120.192 77.2272C118.5 79.9263 116.161 82.1653 113.915 84.2817Z" fill="#94B052"/>
<path d="M117.576 80.7544L117.299 80.6011C118.007 79.3742 119.176 78.4234 120.53 77.9633C120.868 77.8407 121.238 77.7486 121.576 77.6566C122.007 77.5646 122.438 77.4419 122.838 77.2886C124.407 76.6752 125.484 75.2643 126.438 74.0374L126.685 74.2214C125.731 75.4176 124.561 76.9205 122.93 77.5646C122.499 77.7487 122.069 77.8407 121.638 77.9633C121.299 78.0554 120.93 78.1474 120.592 78.2394C119.361 78.6995 118.253 79.6196 117.576 80.7544Z" fill="#94B052"/>
<path d="M122.562 71.7983L122.254 71.7063C122.839 69.8967 122.562 67.9951 122.223 66.3388L122.162 65.9708C121.792 64.1918 121.392 62.3209 122.254 60.726L122.531 60.8793C121.731 62.3822 122.1 64.1611 122.469 65.9094L122.531 66.2775C122.869 67.9644 123.177 69.9274 122.562 71.7983Z" fill="#94B052"/>
<path d="M126.716 60.6646L126.408 60.6033C126.562 59.7138 127.147 58.855 128.101 58.1496C128.685 57.7202 129.332 57.4135 129.947 57.1068C130.193 56.9841 130.439 56.8614 130.686 56.7387C133.363 55.3278 135.363 53.2728 136.286 50.9111L136.563 51.0338C135.579 53.4569 133.547 55.5732 130.809 57.0147C130.563 57.1374 130.316 57.2601 130.07 57.3828C129.455 57.6895 128.808 57.9962 128.255 58.395C127.393 59.0697 126.839 59.8672 126.716 60.6646Z" fill="#94B052"/>
<path d="M0 108L144.448 107.877L146.848 95.5781H27.2032L0 108Z" fill="#D4DCBD"/>
<path d="M93.3647 81.1012C93.734 81.6839 94.0417 82.42 93.7647 83.0641C93.457 83.8309 92.4723 84.0763 91.6414 84.0763C90.8106 84.0763 89.8874 83.9843 89.2104 84.475C88.4411 85.0271 88.2564 86.1619 88.5641 87.0514C88.8719 87.9409 89.5181 88.677 90.1643 89.3824C90.8721 90.1492 91.6414 91.1614 92.4723 92.1735C93.9494 94.0138 95.5803 95.8848 97.4267 96.7129H103.981C105.028 96.3448 105.982 95.7314 106.689 94.8419C107.582 93.7378 108.043 92.3882 108.536 91.0694C108.936 89.9345 109.336 88.7997 109.736 87.6955C109.951 87.1127 110.136 86.4073 109.736 85.9166C109.213 85.2725 108.197 85.5792 107.551 86.0699C106.905 86.5607 106.259 87.2354 105.458 87.1741C104.689 87.1434 104.104 86.438 103.92 85.7019C103.735 84.9657 103.889 84.199 104.074 83.4628C104.72 80.6717 105.612 77.9113 106.72 75.2429C107.089 74.3228 107.52 73.3719 107.459 72.3905C107.397 71.409 106.689 70.3662 105.705 70.3355C104.72 70.3048 104.012 71.1329 103.304 71.8077C102.597 72.4825 101.458 73.0346 100.719 72.4211C100.289 72.0531 100.196 71.4396 100.135 70.8876C99.4577 64.4772 99.7039 57.8829 97.519 51.8099C97.0574 50.5217 96.442 49.2335 95.4572 48.2827C94.4725 47.3319 92.9954 46.7798 91.6722 47.1479C89.4873 47.792 88.6872 50.4911 88.6257 52.7608C88.5026 56.564 89.1488 61.0727 90.6875 64.5079C91.1491 65.5507 91.3337 66.9616 90.4721 67.7284C89.5796 68.4645 88.041 68.1578 87.364 69.0473C87.0563 69.4767 87.0255 70.0594 87.0563 70.5808C87.3948 74.7522 91.2414 77.5433 93.3647 81.1012Z" fill="#FBE698"/>
<path d="M98.4425 81.0398C96.9039 78.2794 96.8423 75.0589 96.7808 71.9304C96.75 69.9675 96.6885 67.9431 96.2884 66.0415C95.8576 63.9559 94.9652 61.9315 94.1343 59.9992C93.7343 59.0791 93.3035 58.1283 92.9342 57.1468C91.4879 53.3742 91.2725 50.3071 92.2572 47.7614L92.5034 47.8534C91.5186 50.3377 91.7648 53.3435 93.1804 57.0548C93.5497 58.0056 93.9497 58.9564 94.3805 59.8766C95.2422 61.8395 96.1346 63.8638 96.5654 65.9802C96.9654 67.9125 96.9962 69.9368 97.0577 71.8998C97.1193 75.1203 97.1808 78.1874 98.6887 80.8865L98.4425 81.0398Z" fill="#889B6D"/>
<path d="M83.4552 85.4872C84.5015 88.0329 82.7167 91.008 83.5783 93.6458C83.9168 94.6272 84.5938 95.4554 85.4554 96.0995H92.8717C93.0255 95.8234 93.1486 95.486 93.241 95.118C93.5795 93.8911 93.4871 92.5723 93.3333 91.2841C93.1486 89.7198 92.8409 88.0636 91.8869 86.806C91.3023 86.0086 90.5022 85.4258 89.8867 84.659C88.7789 83.2788 88.3788 81.4385 88.3481 79.6596C88.3173 77.8806 88.5943 76.1324 88.6866 74.3534C88.7789 72.8505 88.625 71.1636 87.4557 70.2435C86.4402 69.446 84.9631 69.4767 83.9783 68.6792C82.7167 67.6671 82.6551 65.8575 82.5628 64.2319C82.4089 61.6248 81.8858 59.0484 80.9934 56.6254C80.6241 55.6132 80.0086 54.4477 78.9316 54.325C78.1931 54.233 77.516 54.6931 76.9929 55.1838C75.7004 56.4413 75.0234 58.2509 75.1158 60.0299C75.3004 63.6491 78.5623 66.7163 78.2238 70.3048C78.1315 71.3476 77.7315 72.3598 77.4237 73.3719C76.7467 75.795 76.9006 78.6168 78.47 80.5491C79.9779 82.3893 82.5628 83.3095 83.4552 85.4872Z" fill="#2A393F"/>
<path d="M91.1483 93.1857H90.9637C91.056 91.6521 89.7328 90.1185 88.6557 88.8917C88.5326 88.769 88.4095 88.6156 88.3172 88.493C85.9477 85.7632 85.1476 82.0213 84.6552 78.7701C84.5629 78.1874 84.5014 77.5739 84.4091 76.9605C84.0398 74.1387 83.6398 71.1943 82.4704 68.5565C81.8857 67.2377 81.1164 66.0108 80.3471 64.8146C79.8855 64.0785 79.4239 63.3424 78.993 62.5756C77.5775 60.0606 77.0236 57.8829 77.3005 55.9199L77.4852 55.9506C77.2082 57.8829 77.7621 60.0299 79.1469 62.4836C79.5777 63.2504 80.0393 63.9865 80.5009 64.7226C81.2702 65.9188 82.0396 67.1763 82.6242 68.4952C83.8244 71.1636 84.1937 74.1081 84.5937 76.9298C84.686 77.5433 84.7476 78.126 84.8399 78.7088C85.3323 81.9599 86.1323 85.6405 88.4403 88.3396C88.5634 88.4623 88.6557 88.6156 88.7788 88.7383C89.8866 89.9959 91.2406 91.5601 91.1483 93.1857Z" fill="#94B052"/>
<path d="M86.0089 84.5057C85.8858 84.1683 85.7935 83.8616 85.7319 83.5855C85.4857 82.7881 85.3319 82.2053 84.8703 81.7759C84.3779 81.3159 83.7933 80.9785 83.2086 80.6411C83.0547 80.5491 82.8701 80.457 82.7162 80.365C82.0392 79.9663 81.2083 79.4142 80.8391 78.5554C80.6544 78.126 80.5929 77.666 80.5313 77.2366C80.439 76.6538 80.3775 76.1017 80.039 75.6416C79.762 75.2736 79.3312 74.9975 78.9312 74.7215C78.3465 74.3534 77.731 73.9547 77.5771 73.2799L77.7618 73.2493C77.8849 73.8627 78.4388 74.2001 79.0235 74.5988C79.4543 74.8749 79.8851 75.1509 80.1928 75.5496C80.5621 76.0404 80.6237 76.6538 80.716 77.2366C80.7775 77.666 80.8391 78.126 81.0237 78.4941C81.393 79.3222 82.1931 79.8436 82.8393 80.2117C82.9932 80.3037 83.1778 80.3957 83.3317 80.4877C83.9163 80.8251 84.5626 81.1625 85.0549 81.6532C85.5473 82.1133 85.7319 82.7574 85.9473 83.5549C86.0397 83.8309 86.132 84.1376 86.2243 84.475L86.0089 84.5057Z" fill="#222955"/>
<path d="M84.902 80.3037L84.8712 80.0583C84.7481 79.0768 84.5635 77.758 84.9635 76.9298C85.0559 76.7151 85.179 76.5004 85.3328 76.3164C85.4867 76.071 85.6406 75.8564 85.7329 75.5803C86.0406 74.7522 85.8252 73.832 85.6406 72.9426C85.4251 71.9611 85.179 70.9489 85.6098 70.0594L85.7944 70.1515C85.3944 70.9796 85.6098 71.9304 85.8252 72.9119C86.0406 73.832 86.256 74.7828 85.9175 75.6723C85.8252 75.9484 85.6713 76.1937 85.5175 76.4391C85.3944 76.6231 85.2713 76.8378 85.179 77.0525C84.8097 77.85 84.9635 79.1382 85.0866 80.089L85.1174 80.3344L84.902 80.3037Z" fill="#222955"/>
<path d="M81.7013 67.5444C81.0551 66.3482 80.3781 65.244 79.3011 64.7533C79.1472 64.6919 78.9933 64.6306 78.8395 64.5693C78.5933 64.4772 78.3471 64.4159 78.1317 64.2625C77.4547 63.8638 77.0854 63.1277 76.7777 62.5143L75.793 60.5513L75.9776 60.4593L76.9623 62.4223C77.2701 63.005 77.6086 63.7105 78.2548 64.0785C78.4702 64.2012 78.6856 64.2625 78.9318 64.3546C79.0857 64.4159 79.2395 64.4466 79.3934 64.5386C80.5628 65.0293 81.2397 66.1948 81.886 67.391L81.7013 67.5444Z" fill="#222955"/>
<path d="M91.4558 96.0075C91.3327 95.6087 91.302 95.1487 91.2404 94.7499C91.1481 93.9832 91.0866 93.2777 90.625 92.695C90.1326 92.0815 89.3633 91.8668 88.5324 91.6215C87.8246 91.4374 87.1169 91.2227 86.563 90.732C86.286 90.4866 86.0706 90.1799 85.8859 89.9345L85.8552 89.9039C85.3628 89.1677 84.7781 88.3396 83.9473 88.2783L83.978 88.0942C84.932 88.1863 85.5167 89.0451 86.0398 89.8118L86.0706 89.8425C86.2552 90.0879 86.4399 90.3946 86.7168 90.6093C87.24 91.0694 87.9477 91.2534 88.6247 91.4374C89.4248 91.6521 90.2865 91.8975 90.8096 92.5723C91.302 93.1857 91.3635 93.9525 91.4558 94.7193C91.4866 95.118 91.5481 95.5474 91.6405 95.9461L91.4558 96.0075Z" fill="#94B052"/>
<path d="M98.5651 96.437H107.828C108.474 95.7315 109.059 94.9647 109.551 94.1673C109.951 93.5232 110.29 92.7871 110.259 92.051C110.259 91.8976 110.228 91.7442 110.105 91.6522C109.982 91.5602 109.828 91.5909 109.674 91.5909C109.028 91.6829 108.382 91.7442 107.735 91.8363C108.228 89.3519 110.228 87.4502 111.982 85.6406C112.413 85.1806 112.874 84.7205 113.028 84.1071C113.182 83.4936 112.967 82.7575 112.382 82.5428C111.367 82.1748 110.105 83.4936 109.305 82.7575C109.089 82.5735 109.028 82.2974 108.966 82.0214C108.659 80.4265 109.274 78.8316 109.797 77.2673C110.659 74.6603 111.182 71.9305 111.397 69.1701C111.459 68.3419 111.459 67.5138 111.182 66.747C110.874 65.9802 110.166 65.3362 109.366 65.3055C108.782 65.3055 108.228 65.6429 107.766 66.0109C105.181 68.1886 104.781 71.9612 103.089 74.875C102.873 75.2737 102.473 75.7031 102.042 75.5804C101.765 75.4884 101.612 75.2123 101.396 75.0283C100.873 74.6296 100.042 74.875 99.6421 75.427C99.2421 75.9485 99.1498 76.6539 99.0882 77.298C98.9036 79.0156 98.842 80.7639 99.119 82.4815C99.2421 83.1869 99.3959 83.8924 99.3036 84.5978C99.2113 85.3032 98.8113 86.0394 98.165 86.2541C97.6419 86.4381 96.9957 86.3154 96.6572 86.7448C96.5033 86.9288 96.4417 87.1742 96.411 87.4196C96.134 89.1372 96.3494 90.9468 96.9649 92.5724C97.3957 93.8606 98.1958 95.1181 98.5651 96.437Z" fill="#2A393F"/>
<path d="M102.873 96.4369C104.627 93.0017 105.058 88.9224 105.273 84.9658V84.7818C105.335 83.7696 105.366 82.7268 105.612 81.7453C105.704 81.3159 105.858 80.8865 105.981 80.4878C106.104 80.0891 106.258 79.6903 106.35 79.2916C106.72 77.7887 106.689 76.2245 106.658 74.7216C106.658 74.2308 106.627 73.7401 106.658 73.2187C106.689 70.6116 107.212 68.8326 108.289 67.5751C108.443 67.3911 108.658 67.2071 108.812 67.023C109.366 66.4709 109.92 65.9189 110.043 65.1521L109.889 65.1214C109.766 65.8268 109.212 66.3789 108.689 66.9003C108.505 67.0844 108.32 67.2684 108.135 67.4831C106.997 68.7713 106.474 70.6116 106.443 73.2493C106.443 73.7401 106.443 74.2615 106.443 74.7522C106.474 76.2551 106.504 77.8194 106.135 79.2916C106.043 79.6903 105.889 80.0891 105.766 80.4571C105.643 80.8558 105.489 81.2852 105.366 81.7146C105.12 82.7268 105.058 83.7696 105.027 84.7818V84.9658C104.843 88.9224 104.381 93.0324 102.627 96.4369H102.873Z" fill="#94B052"/>
<path d="M104.658 91.1921L104.504 91.1615C104.565 91.0081 104.596 90.8548 104.658 90.7014C105.119 89.1985 105.55 87.7876 106.566 86.6221C107.212 85.886 108.043 85.3032 108.812 84.7511L110.289 83.7083L110.382 83.831L108.904 84.8738C108.135 85.4259 107.304 86.0087 106.658 86.7141C105.643 87.8796 105.212 89.2598 104.781 90.7627C104.75 90.8548 104.719 91.0388 104.658 91.1921Z" fill="#222955"/>
<path d="M106.597 77.9114L106.443 77.8807C106.69 76.2551 107.059 74.9056 107.49 73.3414L107.582 72.9426C107.644 72.6666 107.767 72.2985 107.951 71.9918C108.074 71.7771 108.259 71.6238 108.413 71.4397C108.536 71.3171 108.659 71.1944 108.782 71.0717C109.028 70.765 109.182 70.3356 108.967 70.0288L109.09 69.9368C109.336 70.3049 109.182 70.8263 108.905 71.1637C108.782 71.317 108.659 71.4397 108.536 71.5624C108.351 71.7158 108.197 71.8998 108.074 72.0838C107.89 72.3599 107.797 72.6973 107.736 72.9733L107.644 73.372C107.213 74.9669 106.874 76.3165 106.597 77.9114Z" fill="#94B052"/>
<path d="M103.458 95.0874L103.304 95.0568C103.458 94.3206 103.581 92.511 103.304 91.8056C103.12 91.3455 102.812 90.9468 102.504 90.5787C102.381 90.4254 102.258 90.272 102.135 90.1186C101.581 89.3825 101.396 88.7078 101.55 88.125L101.704 88.1557C101.519 88.8304 101.919 89.5359 102.258 90.0266C102.381 90.18 102.504 90.3333 102.627 90.4867C102.935 90.8854 103.273 91.2842 103.458 91.7442C103.766 92.4803 103.612 94.3513 103.458 95.0874Z" fill="#222955"/>
<path d="M68.6847 96.3143H81.7631C81.8862 95.9155 81.917 95.4861 81.917 95.0567C81.9785 90.5174 79.4552 87.6343 76.5625 84.5671C75.4239 83.3403 75.5162 84.9352 75.1162 85.6406C74.7777 86.1927 73.9468 86.254 73.3929 85.9473C72.8082 85.6406 72.4697 85.0579 72.1005 84.5058C70.5003 81.9907 68.6847 79.629 66.7152 77.39C66.1613 76.7766 65.6074 76.1632 64.8381 75.8564C64.0995 75.5497 63.1148 75.6111 62.5917 76.2245C61.9454 76.9606 62.0378 78.2488 61.1761 78.7089C60.7145 78.9236 60.1914 78.8316 59.699 78.6475C58.0065 78.0341 56.591 76.8686 54.96 76.0711C53.329 75.2737 51.2673 74.967 49.821 76.0405C48.5285 77.022 48.1592 78.8929 48.6824 80.4265C49.2055 81.9601 50.4056 83.1562 51.7904 84.0457C53.1444 84.9045 54.6831 85.5179 56.1294 86.2234C57.1141 86.6834 58.1912 87.4502 58.1296 88.5237C58.0681 89.6586 56.8064 90.3333 56.4679 91.4068C56.1294 92.419 56.7141 93.5232 57.5757 94.1366C58.4373 94.75 59.5144 94.9341 60.5607 95.0567C61.8531 95.2101 63.1456 95.3021 64.438 95.2714C65.3304 95.2714 66.8383 94.842 67.7 95.1794C68.2846 95.4248 68.5616 95.8235 68.6847 96.3143Z" fill="#FBE698"/>
<path d="M67.9459 92.143C66.7457 89.3212 65.2379 85.8247 62.4068 83.8004C61.1143 82.8802 59.5757 82.2975 58.0986 81.7454C57.36 81.4693 56.6215 81.1933 55.9137 80.8866C53.7288 79.9358 51.7902 78.5862 50.0977 76.8993L50.2823 76.7153C51.944 78.3715 53.8827 79.6904 56.006 80.6412C56.7138 80.9479 57.4524 81.224 58.1909 81.5C59.6988 82.0521 61.2374 82.6348 62.5606 83.5857C65.4533 85.6406 66.9611 89.1679 68.1921 92.0203L67.9459 92.143Z" fill="#94B052"/>
<path d="M66.4073 88.7998C65.9765 87.4196 64.7763 83.8003 63.2993 82.5428C63.2069 82.4508 63.0838 82.3588 62.9915 82.2974C62.7453 82.1134 62.4992 81.8987 62.2838 81.6533C61.9145 81.2239 61.7298 80.7025 61.5452 80.2425L60.7451 78.1261L60.9913 78.0341L61.7914 80.1504C61.976 80.6105 62.1607 81.1013 62.4992 81.5C62.6838 81.7147 62.93 81.8987 63.1762 82.1134C63.2993 82.2054 63.3916 82.2974 63.5147 82.3895C64.8687 83.555 65.9457 86.4074 66.715 88.7691L66.4073 88.7998Z" fill="#94B052"/>
<path d="M58.3144 81.8374C57.2374 81.3773 55.5449 81.5307 54.3139 81.6227H54.1909C52.3445 81.776 50.4366 81.2546 48.9287 80.1811L49.0826 79.9664C50.5597 80.9786 52.406 81.5 54.1909 81.3466H54.3139C55.5756 81.2546 57.2989 81.1013 58.4375 81.592L58.3144 81.8374Z" fill="#94B052"/>
<path d="M68.4078 92.695C68.0693 91.9589 67.0538 91.8362 66.2229 91.7749L64.4996 91.6829C63.9457 91.6522 63.361 91.6215 62.7764 91.6522C62.4994 91.6829 62.1917 91.7135 61.9147 91.7442C61.4531 91.8056 60.9608 91.8669 60.4684 91.8362C59.3606 91.8056 58.3143 91.3762 57.3604 90.9774L57.4527 90.7321C58.4066 91.1308 59.4221 91.5295 60.4684 91.5602C60.93 91.5908 61.3916 91.5295 61.8532 91.4682C62.1301 91.4375 62.4379 91.4068 62.7148 91.3762C63.2995 91.3455 63.8842 91.3761 64.4689 91.4068L66.1921 91.4988C67.0845 91.5602 68.1924 91.7135 68.5924 92.5417L68.4078 92.695Z" fill="#94B052"/>
<path d="M54.0982 25.3405C54.1289 24.543 54.1289 23.7456 54.0674 22.9175C55.2675 22.9175 56.4369 22.7334 57.6063 22.5187C57.9755 22.4574 58.6218 22.1813 58.9295 22.4881C59.2065 22.7641 59.2065 23.991 59.2372 24.3897C59.6065 26.9661 59.6988 29.5425 59.8835 32.1496C60.0989 35.3394 60.4066 38.6212 59.2988 41.627C58.991 42.4858 58.5295 43.3446 57.8525 43.9581C57.1447 44.5715 56.1907 44.9089 55.2675 44.6942C54.0366 44.3875 53.2981 43.1299 52.9903 41.9031C52.7134 40.7989 52.6826 39.664 52.6826 38.5292C52.7134 35.9835 52.9288 33.4378 53.3288 30.9227C53.6981 29.0517 54.0058 27.2115 54.0982 25.3405Z" fill="#EFAE95"/>
<path d="M57.6064 8.96195C57.6371 8.90061 59.2373 9.11531 60.8683 9.11531C60.8375 9.36068 60.0067 21.5986 59.422 24.2057C59.2373 25.0031 59.0527 25.8312 58.5603 26.506C56.7755 28.9904 54.5906 26.414 54.1906 24.3897C53.9444 23.1015 54.0675 21.7519 54.2521 20.4637C54.5906 17.7647 57.3294 10.0661 57.6064 8.96195Z" fill="#EFAE95"/>
<path d="M62.6834 4.48397C62.7758 4.17725 62.8373 3.87054 62.5911 3.68651C62.1911 4.14658 61.8833 5.22008 61.6064 5.80284C61.5448 5.92552 61.3602 5.86418 61.391 5.7415C61.6064 4.72934 62.7758 1.41683 62.2526 1.26347C62.1295 1.2328 62.0988 1.41683 62.068 1.53951L60.7448 5.5268H60.714L61.6372 1.63152C61.6679 1.50884 61.6987 1.38615 61.6679 1.26347C61.6372 1.14078 61.5141 1.04877 61.391 1.04877C60.7448 2.36764 60.5601 3.90121 59.9139 5.22008C59.8831 5.28142 59.8216 5.25075 59.8216 5.18941C60.0677 3.99322 60.437 3.01174 60.6217 1.8769C60.6524 1.60085 60.6524 1.26347 60.3755 1.14078C60.1601 1.14078 59.9754 1.90757 59.9447 2.06092C59.7292 2.70502 59.5446 3.3798 59.36 4.05457C59.2677 4.33061 59.2061 4.63732 59.1138 4.91337C59.083 5.06672 59.0215 5.18941 58.9907 5.31209C58.9599 5.40411 58.9292 5.74149 58.8368 5.80284C58.5907 5.49612 58.2214 3.62517 58.0367 3.19577C58.006 3.10375 57.9137 3.04241 57.8213 3.04241C57.3905 3.01174 57.6675 5.15874 57.7598 5.64948C57.9137 6.69231 57.7598 7.76581 57.5444 8.80864C57.4213 9.45274 57.2367 10.1582 57.5444 10.7716C57.7906 11.2317 58.4368 11.5997 58.9599 11.5997C60.2216 11.5691 60.5601 9.91281 60.9602 8.96199C61.6064 7.39775 62.1603 5.9562 62.6834 4.48397Z" fill="#EFAE95"/>
<path d="M56.4982 34.2046C55.3289 34.5726 53.6671 34.7873 52.467 34.91C52.3747 36.1062 52.5901 40.8909 52.867 41.9951C53.1748 43.222 54.098 44.3875 55.3289 44.6942C56.2213 44.9396 57.483 44.3261 58.1907 43.7127C58.8985 43.0993 59.3601 42.2098 59.6678 41.351C60.6833 38.4986 60.3756 35.6461 60.1602 32.6403C59.0832 33.3151 57.6984 33.8365 56.4982 34.2046Z" fill="#F29456"/>
<path d="M58.438 22.7641C58.3149 23.7149 58.3149 24.6964 58.438 25.6779C58.5611 25.6779 58.6842 25.7085 58.8073 25.7392C58.8688 24.9724 59.0842 24.2363 59.4535 23.5616C59.8228 22.8561 60.3459 22.212 60.6537 21.4759C60.8075 21.1385 60.8999 20.7398 60.7768 20.3717C60.469 19.3289 59.5766 19.9117 59.1766 20.4944C58.715 21.1385 58.5303 21.9666 58.438 22.7641Z" fill="#0B1033"/>
<path d="M72.5617 63.4651C71.3308 61.2568 68.6536 59.9379 66.161 60.2753L53.1749 61.5328C48.0358 62.0236 42.8044 62.545 37.9116 64.2012C37.1422 64.4466 36.2806 64.8147 36.0344 65.5814C35.7267 66.4709 36.3421 67.4217 37.0499 68.0658C38.9886 69.8755 41.5427 70.8263 44.0353 71.5931C47.1434 72.5745 50.2822 73.372 53.4826 73.9854C58.4986 74.9669 63.7915 75.4577 68.592 73.7094C70.1615 73.1266 71.7001 72.2678 72.5617 70.8263C73.0233 70.0595 73.2695 69.17 73.3926 68.2805C73.5772 66.6856 73.3618 64.9374 72.5617 63.4651Z" fill="#FEC5A7"/>
<path d="M72.5623 63.4651C71.3314 61.2568 68.6542 59.9379 66.1616 60.2753C66.1616 60.2753 49.1135 61.2874 47.2363 61.5328C47.4517 62.1769 47.9133 63.4651 48.0672 64.1399C48.4057 65.6121 48.6519 67.115 48.8673 68.5872C49.0827 70.0901 49.3904 73.4026 49.452 74.9055C50.8367 75.2429 63.7921 75.4883 68.5927 73.74C70.1621 73.1573 71.7007 72.2985 72.5623 70.8569C73.0239 70.0901 73.2701 69.2007 73.3932 68.3112C73.5778 66.6856 73.3624 64.9373 72.5623 63.4651Z" fill="#0B1033"/>
<path d="M34.9572 103.093C35.0495 103.031 40.8656 84.9044 42.0042 81.4079C42.9889 78.4634 43.7274 75.3656 43.2659 72.2985C42.8966 69.8141 41.6657 67.3297 39.5424 65.8882C38.773 65.3361 37.4498 64.6306 36.4958 65.0907C35.665 65.4894 35.4803 66.6243 35.4188 67.4524C34.4648 77.2366 31.8491 91.5908 30.4336 101.528C31.326 101.774 32.1876 104.565 34.9572 103.093Z" fill="#FEC5A7"/>
<path d="M31.9727 91.6828C31.4188 95.21 30.8957 98.5839 30.4648 101.559C31.3265 101.804 32.1881 104.565 34.9577 103.093C35.0192 103.062 36.7117 97.7864 38.4658 92.3882C37.6349 92.3576 33.2036 92.1735 31.9727 91.6828Z" fill="white"/>
<path d="M68.5 35.6155C68.0077 35.002 67.9153 34.2659 67.7307 33.4378C67.6692 33.1004 66.746 29.3585 67.1152 29.2665C65.1458 29.6959 61.8223 30.5547 60.0683 30.7694C60.7145 30.708 60.7453 33.8979 60.7761 34.2352C60.8068 34.9407 60.8991 35.7075 60.8376 36.4436C60.776 36.9957 60.7453 36.965 60.1606 37.149C59.422 37.3637 58.7143 37.6091 57.9757 37.8238C57.6065 37.9465 57.2372 38.0385 56.9602 38.2839C56.6217 38.5599 56.4371 38.9586 56.2832 39.3574C54.3753 44.0194 54.4984 49.2949 55.5447 54.2023C56.1601 57.0241 57.1449 59.5698 58.2835 62.2076C58.5296 62.7597 60.9607 69.078 61.1761 69.0473C64.5919 68.4032 66.8691 65.3361 70.2848 64.7226C70.531 64.692 70.7772 64.6306 70.9311 64.4466C71.0849 64.2932 71.1157 64.0479 71.1157 63.8025C71.1465 62.8517 70.7772 61.9315 70.4387 61.0727C69.4848 58.6497 68.4077 55.7666 68.6539 53.0982C68.7462 51.902 69.1462 50.7671 69.6078 49.6936C70.8388 46.6878 72.5313 43.8967 73.916 40.9523C74.1622 40.4309 74.4084 39.8788 74.4392 39.296C74.4699 38.8973 74.4084 38.4679 74.1622 38.1612C73.7006 37.5478 72.8698 37.4557 72.1312 37.3331C70.9311 37.1184 69.7309 36.689 68.8077 35.8915C68.6539 35.7995 68.5616 35.7075 68.5 35.6155Z" fill="#FEC5A7"/>
<path d="M60.7761 34.2659C60.8069 34.2966 60.8685 34.3272 60.8992 34.3579C61.33 34.634 61.884 34.7873 62.4071 34.818C63.4226 34.8793 64.4689 34.5113 65.2997 33.9592C66.1614 33.4071 66.7768 32.579 67.3 31.7202C67.3307 31.6895 67.3615 31.6281 67.3615 31.5975C67.1153 30.3399 66.9922 29.3278 67.1153 29.2971C65.1459 29.7265 61.8224 30.5853 60.0684 30.8C60.4684 30.708 60.6838 32.5483 60.7761 34.2659Z" fill="#EFAE95"/>
<path d="M76.7468 68.4339C76.8083 69.262 76.7468 70.0594 76.5314 70.8569C76.4698 71.1023 76.4083 71.3477 76.4698 71.5624C76.6237 72.1144 79.6394 73.2186 80.2856 73.5867C81.732 74.4455 83.1783 75.3349 84.5631 76.2857C87.3634 78.1567 90.0714 80.181 92.7794 82.2053C93.3641 82.6654 94.0103 83.1561 94.1642 83.8923C94.3796 84.9044 93.5487 85.8859 92.6255 86.346C91.3023 86.9901 89.7329 86.9901 88.2558 86.8674C80.7472 86.254 72.5924 83.3402 66.8995 78.4021C65.1762 76.8992 63.2683 75.703 62.4066 73.5867C60.2525 68.3725 59.6986 65.9188 61.8835 63.4958C64.1299 60.9807 69.8537 60.6433 72.8386 62.2382C75.0543 63.4651 76.5314 65.8881 76.7468 68.4339Z" fill="#FEC5A7"/>
<path d="M79.3319 78.5555C80.2551 77.2979 81.8245 74.9669 82.4399 73.5254C81.9168 73.2186 76.5623 70.4889 76.6239 70.2742C76.8393 69.4767 76.7777 69.2314 76.7162 68.4339C76.5008 65.9188 75.0237 63.4651 72.7773 62.2689C69.7923 60.674 64.0686 61.0114 61.8222 63.5265C59.6373 65.9802 59.9142 68.0045 61.3298 73.464C62.253 77.0526 70.9001 83.7083 73.9159 85.0271C75.5161 83.4936 78.0394 80.3344 79.3319 78.5555Z" fill="#11193F"/>
<path d="M117.829 95.5168C117.768 95.4554 114.013 92.2656 113.983 92.2349C110.875 88.3703 101.058 80.8558 91.0261 81.8373C89.2105 82.0213 85.1793 82.5734 85.6101 84.9658C86.0409 87.3275 90.9338 88.585 92.7802 89.2905C97.1807 90.9467 110.382 96.3142 115.306 98.0625C115.552 97.6638 117.829 95.5781 117.829 95.5168Z" fill="#FEC5A7"/>
<path d="M113.983 92.2349C113.152 91.1921 111.798 89.8732 110.105 88.5237C109.982 88.8611 109.828 89.1985 109.674 89.5665C108.874 91.3761 107.89 93.1244 106.689 94.75C110.136 96.0995 113.367 97.357 115.306 98.0625C115.552 97.6944 117.829 95.6088 117.829 95.5474C117.768 95.4554 114.013 92.2656 113.983 92.2349Z" fill="white"/>
<path d="M24.1565 103.798C23.7257 103.89 23.2948 103.89 22.8948 104.105C22.4947 104.289 22.1562 104.718 22.1562 105.24C22.187 105.976 22.8948 106.344 23.5103 106.436C24.8335 106.62 26.1567 106.19 27.4799 105.945C28.7416 105.73 30.0341 105.669 31.3265 105.853C32.2497 105.976 33.1729 106.19 34.0961 106.16C34.6192 106.16 35.2039 106.068 35.604 105.638C36.004 105.209 36.1579 104.534 36.2194 103.921C36.3117 103.123 36.3733 102.326 36.4041 101.528C36.4041 101.314 36.3733 101.068 36.2194 100.976C36.0963 100.915 35.9117 101.007 35.7886 101.099C35.1116 101.59 34.4038 102.05 33.6345 102.142C32.9267 102.234 32.1266 101.988 31.665 101.375C31.2342 100.762 31.1727 99.504 30.3418 99.4427C29.6033 99.3813 29.0186 100.393 28.557 100.915C27.9723 101.59 27.3261 102.203 26.6183 102.694C25.8798 103.246 25.0489 103.645 24.1565 103.798Z" fill="#F29456"/>
<path d="M112.997 104.841C113.274 104.81 113.551 104.779 113.828 104.718C114.874 104.503 116.013 104.043 116.505 103.093C116.69 102.725 116.782 102.295 116.905 101.896C117.182 101.007 117.675 100.179 118.321 99.504C118.936 98.8599 119.706 98.2772 119.829 97.4184C119.952 96.4675 119.183 95.6394 118.475 94.9646C118.013 94.5046 117.429 93.9525 116.752 93.8605C116.752 94.6886 116.998 95.7928 116.567 96.5902C116.198 97.2957 115.613 97.449 114.874 97.4184C114.105 97.3877 113.151 96.8969 112.874 97.9091C112.566 99.0133 113.336 100.271 112.597 101.314C112.29 101.743 111.766 101.988 111.274 102.203C110.782 102.418 110.259 102.632 109.92 103.062C109.582 103.491 109.52 104.166 109.92 104.534C110.166 104.749 110.474 104.81 110.782 104.841C111.52 104.933 112.259 104.933 112.997 104.841Z" fill="#F29456"/>
<path d="M112.689 101.007C112.997 100.915 113.366 101.007 113.643 101.222C113.643 101.222 113.674 101.252 113.643 101.252C113.643 101.252 113.613 101.252 113.643 101.252" stroke="#EA8249" stroke-width="0.8966" stroke-miterlimit="10"/>
<path d="M112.844 100.455C112.967 100.332 113.182 100.301 113.336 100.332C113.521 100.363 113.675 100.394 113.859 100.486C113.859 100.516 113.828 100.516 113.798 100.486" stroke="#EA8249" stroke-width="0.8966" stroke-miterlimit="10"/>
<path d="M112.813 99.7494C113.121 99.5347 113.583 99.504 113.921 99.7187C113.891 99.688 113.86 99.688 113.86 99.6574" stroke="#EA8249" stroke-width="0.8966" stroke-miterlimit="10"/>
<path d="M112.751 99.0746C113.12 98.8292 113.613 98.8599 113.951 99.1053" stroke="#EA8249" stroke-width="0.8966" stroke-miterlimit="10"/>
<path d="M109.674 104.227C110.259 104.442 110.874 104.442 111.489 104.411C112.351 104.381 113.182 104.35 113.982 104.074C114.782 103.798 115.521 103.277 115.89 102.51C116.044 102.172 116.136 101.804 116.259 101.436C116.536 100.547 117.029 99.7494 117.706 99.1053C118.136 98.6759 118.598 98.3385 118.998 97.8784C119.367 97.4184 119.613 96.8049 119.46 96.2222" stroke="#EA8249" stroke-width="0.8966" stroke-miterlimit="10"/>
<path d="M113.028 98.8599C112.69 98.7372 112.382 98.5225 112.136 98.2465C112.074 98.1544 111.982 98.0318 112.074 97.9398C112.105 97.9091 112.136 97.9091 112.167 97.9091C112.413 97.8784 112.659 98.0011 112.813 98.1851C112.997 98.3691 113.09 98.5838 113.213 98.7985C113.059 98.5225 113.182 98.2158 113.336 97.9398C113.428 97.7557 113.551 97.6024 113.644 97.4183C113.674 97.357 113.736 97.2957 113.828 97.2957C113.921 97.2957 113.982 97.4183 114.013 97.5104C114.044 97.6944 113.951 97.8784 113.828 98.0318C113.674 98.2771 113.49 98.4918 113.336 98.7065" stroke="#EA8249" stroke-width="0.8966" stroke-miterlimit="10"/>
<path d="M118.322 94.842C118.26 94.934 118.229 95.0567 118.229 95.1794C118.137 96.0688 118.414 96.9583 118.937 97.6944C118.968 97.7251 118.999 97.7558 118.999 97.6944" stroke="#EA8249" stroke-width="0.8966" stroke-miterlimit="10"/>
<path d="M110.443 102.694C110.905 102.632 111.367 102.817 111.674 103.154C111.982 103.491 112.197 103.921 112.29 104.35" stroke="#EA8249" stroke-width="0.8966" stroke-miterlimit="10"/>
<path d="M22.1875 105.393C22.4952 105.792 23.0184 105.976 23.5107 106.006C24.0031 106.037 24.4955 105.945 24.9878 105.822C27.4497 105.301 30.0038 104.81 32.4964 105.148C33.4811 105.27 34.4966 105.516 35.4198 105.209C35.6044 105.148 35.7583 105.056 35.9122 104.933" stroke="#EA8249" stroke-width="0.8966" stroke-miterlimit="10"/>
<path d="M27.1113 102.356C27.5114 102.418 27.8499 102.694 28.0345 103.031" stroke="#EA8249" stroke-width="0.8966" stroke-miterlimit="10"/>
<path d="M27.4189 102.019C27.6036 101.896 27.8805 101.927 28.0652 102.05C28.2498 102.172 28.4037 102.356 28.5268 102.541" stroke="#EA8249" stroke-width="0.8966" stroke-miterlimit="10"/>
<path d="M28.0029 101.498C28.1876 101.406 28.4338 101.436 28.6184 101.528C28.803 101.62 28.9569 101.774 29.08 101.958" stroke="#EA8249" stroke-width="0.8966" stroke-miterlimit="10"/>
<path d="M28.4648 100.976C28.6803 100.884 28.8957 100.915 29.1111 101.038C29.2957 101.16 29.4496 101.344 29.5727 101.528L29.5419 101.498" stroke="#EA8249" stroke-width="0.8966" stroke-miterlimit="10"/>
<path d="M28.7723 100.823C28.6184 100.578 28.4953 100.332 28.4338 100.056C28.3722 99.7801 28.4645 99.4427 28.6799 99.2893C28.7723 99.228 28.9261 99.1666 29.0184 99.228C29.0492 99.2587 29.08 99.32 29.1108 99.3507C29.3569 99.8108 29.3877 100.394 29.1415 100.884C29.2338 100.608 29.3262 100.363 29.5108 100.148C29.6647 99.9334 29.9108 99.7494 30.1878 99.6881C30.2186 99.6881 30.2494 99.6881 30.3109 99.6881C30.3724 99.7187 30.4032 99.7494 30.434 99.8108C30.5571 100.056 30.434 100.394 30.2493 100.578C30.0647 100.792 29.7878 100.915 29.5416 101.007C29.4493 101.038 29.3569 101.099 29.2646 101.068" stroke="#EA8249" stroke-width="0.8966" stroke-miterlimit="10"/>
<path d="M36.3112 102.724C35.3572 103.215 34.6802 104.227 34.5879 105.301" stroke="#EA8249" stroke-width="0.8966" stroke-miterlimit="10"/>
<path d="M23.3262 103.921C23.757 104.013 24.1263 104.289 24.3417 104.657C24.5571 105.025 24.6494 105.454 24.6494 105.884" stroke="#EA8249" stroke-width="0.8966" stroke-miterlimit="10"/>
<path d="M58.4682 25.9233C58.222 25.8313 57.9758 25.8313 57.7296 25.8926C57.2988 26.0153 56.8988 26.414 56.7757 26.9048C56.6526 27.3648 56.7757 27.8863 57.0834 28.2236C57.3911 28.561 57.8527 28.7451 58.2836 28.6837C58.4374 28.653 58.5913 28.6224 58.7144 28.5304C59.1144 28.285 59.3298 27.5795 59.3298 27.1195C59.3914 26.598 58.9606 26.0766 58.4682 25.9233Z" fill="#FEC5A7"/>
<path d="M59.3606 27.4262C59.2683 27.2422 59.1145 27.0582 58.9914 26.9355C58.776 26.7514 58.4682 26.5674 58.1605 26.6594C57.7912 26.7821 57.5451 27.1808 57.6989 27.5796C57.9759 28.2543 58.6837 28.285 59.2376 27.9783C59.2683 27.7943 59.3299 27.6102 59.3606 27.4262Z" fill="#EFAE95"/>
<path d="M58.3143 26.6594C58.3143 26.6287 58.345 26.6287 58.3143 26.5981C58.2835 26.4754 58.0373 26.506 57.945 26.5367C57.7296 26.5674 57.5757 26.7514 57.4834 26.9661C57.4834 26.9968 57.5142 26.9968 57.5142 26.9968C57.5757 26.8741 57.7604 26.6901 57.9142 26.6594C57.9758 26.6594 58.1604 26.6287 58.1912 26.6594C58.2527 26.6901 58.3143 26.6901 58.3143 26.6594Z" fill="#D69580"/>
<path d="M58.3141 27.5795C58.3449 27.4262 58.3449 27.2421 58.2526 27.1195C58.2218 27.0888 58.191 27.1195 58.191 27.1501C58.2218 27.2728 58.2218 27.4568 58.191 27.5795C58.1603 27.6715 58.1295 27.7942 58.068 27.8556C58.0372 27.8862 58.0064 27.9169 57.9756 27.9476C57.9449 27.9783 57.9756 28.0089 58.0064 28.0089C58.2218 27.9783 58.2834 27.7329 58.3141 27.5795Z" fill="#D69580"/>
<path d="M68.3464 21.9667C69.0542 22.8561 69.085 24.1137 68.9311 25.2485C68.7157 26.9354 68.1618 28.5917 67.1463 29.9719C66.1616 31.3521 64.746 32.7323 63.0227 32.8857C62.1611 32.947 59.8839 32.7323 59.1761 31.9655C58.5915 31.3828 58.4684 30.4626 58.3761 29.6652C58.1606 27.7022 58.3453 25.7086 58.93 23.8376C59.0838 23.3162 59.2992 22.7641 59.5762 22.3041C60.1916 21.3226 61.2379 20.6171 62.3457 20.3104C64.2844 19.789 67.0848 20.3717 68.3464 21.9667Z" fill="#FEC5A7"/>
<path d="M67.9767 26.1993C67.7306 27.2421 67.3613 28.4076 66.2842 28.8677C65.2072 29.3278 64.3148 28.5917 63.2685 28.4383C62.1299 28.285 61.0221 28.377 59.9143 28.653C59.5142 28.745 58.7141 29.1438 58.2833 28.9291C58.3449 29.1438 58.2833 29.4505 58.2833 29.6652C58.2525 30.432 58.1602 31.6282 58.7757 32.2109C59.0526 32.487 59.4835 32.6096 59.8835 32.7017C60.5913 32.855 61.3298 32.9164 62.0684 33.0084C62.7454 33.0697 63.4531 33.1617 64.1301 33.0084C65.1764 32.7937 66.0688 32.0576 66.6843 31.1681C67.2997 30.3093 67.669 29.2665 68.0075 28.2543C68.3153 27.2728 68.623 26.2607 68.8692 25.2792C68.8999 25.0951 69.0846 24.7884 68.8076 24.8191C68.6537 24.8191 68.4691 25.0338 68.3768 25.1258C68.1614 25.4632 68.0691 25.8312 67.9767 26.1993Z" fill="#0B1033"/>
<path d="M61.5762 27.6409C61.607 27.4569 61.6378 27.2728 61.6993 27.1195C61.7916 26.8434 61.8532 26.5367 61.9455 26.23C62.0378 25.9233 62.1301 25.5552 62.2224 25.2485C62.2224 25.1872 62.3148 25.1872 62.3148 25.2485C62.3148 25.5246 62.1917 25.7699 62.1609 26.046C62.1301 26.2607 62.0686 26.506 61.9763 26.7208C61.9147 26.9661 61.8532 27.2422 61.7916 27.4875C61.7609 27.6102 61.6993 27.7943 61.7916 27.9169C61.8839 28.0703 62.0994 28.101 62.284 28.1316C62.4071 28.1623 62.4071 28.3463 62.284 28.3463C62.0378 28.3157 61.7609 28.2237 61.6378 27.9783C61.5454 27.8556 61.5762 27.7636 61.5762 27.6409Z" fill="#D69580"/>
<path d="M61.9768 29.1744C62.4076 29.1438 62.8384 29.1438 63.2692 29.1131C63.2692 29.2971 63.1154 29.4812 63.023 29.6038C62.9307 29.7265 62.8076 29.8185 62.6538 29.8799C62.2229 30.1252 61.5152 29.9105 61.4229 29.3278C61.4229 29.2665 61.4229 29.2051 61.4229 29.1744C61.6075 29.2051 61.7921 29.2051 61.9768 29.1744Z" fill="#D69580"/>
<path d="M61.4224 29.4198C61.4224 29.3892 61.4224 29.3892 61.3916 29.3585C61.3916 29.2972 61.3916 29.2358 61.3916 29.2051C61.5762 29.2051 61.7609 29.2051 61.9455 29.2051C62.3763 29.1745 62.8072 29.1745 63.238 29.1438C63.238 29.2358 63.2072 29.3278 63.1457 29.3892C62.6841 29.5732 61.9147 29.6345 61.4224 29.4198Z" fill="#F5F3FF"/>
<path d="M62.6229 29.9106C62.3767 30.0639 62.0382 30.0333 61.792 29.9106C62.0689 29.9413 62.3459 29.9413 62.6229 29.9106Z" fill="#F5F3FF"/>
<path opacity="0.67" d="M63.6377 25.0338C63.6377 24.9725 63.6992 24.9418 63.7608 24.9111C64.0685 24.7271 64.3762 24.7271 64.7147 24.7885C65.0225 24.8498 65.2687 24.9418 65.4533 25.2179C65.4841 25.2485 65.4841 25.2792 65.4841 25.3099C65.4841 25.4019 65.4225 25.4632 65.361 25.5246C65.1763 25.6473 64.9609 25.6166 64.7763 25.5859C64.5301 25.5552 64.2839 25.4939 64.0377 25.4019C63.8839 25.3405 63.6992 25.2792 63.6377 25.1258C63.6377 25.0952 63.6069 25.0645 63.6377 25.0338Z" fill="#04061B"/>
<path opacity="0.67" d="M59.2988 24.3284C59.2988 24.267 59.3604 24.2364 59.4219 24.2057C59.7296 24.0217 60.0374 24.0217 60.3759 24.083C60.6836 24.1444 60.9298 24.2364 61.1144 24.5124C61.1452 24.5431 61.1452 24.5738 61.1452 24.6044C61.1452 24.6964 61.0837 24.7578 61.0221 24.8191C60.8375 24.9418 60.6221 24.9111 60.4374 24.8805C60.1912 24.8498 59.9451 24.7885 59.6989 24.6964C59.545 24.6351 59.3604 24.5738 59.2988 24.4204C59.2988 24.3897 59.2988 24.3591 59.2988 24.3284Z" fill="#04061B"/>
<path d="M63.6069 26.4754C63.6377 26.7208 63.8531 26.8741 64.0992 26.8435C64.3454 26.8128 64.4993 26.5981 64.4685 26.3527C64.4378 26.1073 64.2223 25.954 63.9762 25.9847C63.7608 26.0153 63.5761 26.2607 63.6069 26.4754Z" fill="#04061B"/>
<path d="M60.0996 26.046C60.1304 26.2913 60.3151 26.4754 60.5305 26.4447C60.7459 26.414 60.869 26.1993 60.8382 25.954C60.8074 25.7086 60.6228 25.5246 60.4074 25.5552C60.2227 25.5859 60.0689 25.8006 60.0996 26.046Z" fill="#04061B"/>
<path d="M65.1153 27.3956C65.3308 27.5182 65.5154 27.7329 65.4846 27.9783C65.4539 28.0703 65.4231 28.1623 65.3615 28.2237C65.0538 28.5917 64.4999 28.6224 64.0383 28.5611C63.5459 28.4997 62.5612 27.825 63.2997 27.3035C63.669 26.9968 64.6845 27.1502 65.1153 27.3956Z" fill="#EFAE95"/>
<path d="M60.8067 27.0275C61.0221 27.1501 61.2068 27.3648 61.176 27.6102C61.1452 27.7022 61.1145 27.7942 61.0529 27.8556C60.7452 28.2236 60.1913 28.2543 59.7297 28.193C59.2373 28.1316 58.2526 27.4569 58.9912 26.9355C59.3912 26.6594 60.4067 26.8128 60.8067 27.0275Z" fill="#EFAE95"/>
<path d="M69.9158 23.0402C69.9465 22.5801 69.9158 22.12 69.7311 21.7213C69.5773 21.3533 69.3003 21.0465 68.9926 20.7705C67.7924 19.697 66.2538 19.1449 64.7152 18.8075C63.9766 18.6542 63.3304 18.3475 62.5611 18.1941C61.6379 18.0101 60.7147 17.9487 59.7607 17.9487C59.1145 17.9487 58.4683 18.0101 57.8836 18.2861C57.3605 18.5315 56.8373 19.0529 56.9912 19.6357C57.1143 20.2184 57.8221 20.4638 58.4375 20.5558C58.0067 20.6785 57.6374 20.9239 57.422 21.2919C57.3912 21.3533 57.3297 21.4453 57.3297 21.5066C57.3297 21.752 57.6374 21.844 57.8836 21.8747C59.5761 22.0587 61.2994 21.844 63.0227 21.9667C64.3767 22.0587 66.0999 22.4574 66.9308 23.6843C67.1462 24.0217 67.2385 24.4204 67.3001 24.8191C67.4539 25.9233 67.4232 27.0888 67.177 28.1623C67.0539 28.7757 67.5155 29.5118 67.8232 28.6837C68.0694 28.0396 68.3156 27.4262 68.6233 26.7821C69.1465 25.6166 69.8235 24.3897 69.9158 23.0402Z" fill="#0B1033"/>
<path d="M68.5617 26.6287C68.8078 26.5981 69.054 26.6287 69.2387 26.7514C69.6387 26.9355 69.8849 27.3649 69.8849 27.7943C69.8849 28.2237 69.6695 28.6531 69.3002 28.8984C68.9309 29.1438 68.4693 29.2051 68.0693 29.0825C67.9462 29.0518 67.7923 28.9904 67.7 28.8678C67.3615 28.561 67.3307 27.9476 67.4538 27.5182C67.5462 27.0275 68.1001 26.6901 68.5617 26.6287Z" fill="#FEC5A7"/>
<path d="M67.3926 27.7636C67.5157 27.6103 67.7003 27.4876 67.8542 27.4262C68.1003 27.3035 68.4388 27.2115 68.685 27.3649C68.9927 27.5182 69.1466 27.9476 68.9312 28.2543C68.5312 28.7758 67.8542 28.6837 67.3926 28.3157C67.3926 28.101 67.3926 27.917 67.3926 27.7636Z" fill="#EFAE95"/>
<path d="M68.5312 27.3035C68.5312 27.2728 68.5312 27.2728 68.5312 27.2728C68.5928 27.1808 68.8082 27.2422 68.9005 27.2728C69.0852 27.3342 69.2083 27.5489 69.2083 27.7329C69.2083 27.7636 69.1775 27.7636 69.1775 27.7329C69.1467 27.6102 68.9928 27.4262 68.8698 27.3649C68.839 27.3342 68.6543 27.2728 68.5928 27.3035C68.5928 27.3342 68.562 27.3342 68.5312 27.3035Z" fill="#D69580"/>
<path d="M68.3457 28.0703C68.3457 27.9169 68.4072 27.7943 68.4996 27.6716C68.5303 27.6409 68.5611 27.6716 68.5303 27.7023C68.4688 27.7943 68.438 27.9476 68.438 28.0703C68.438 28.1623 68.438 28.2543 68.4996 28.3463C68.5303 28.377 68.5611 28.4077 68.5611 28.4384C68.5611 28.469 68.5303 28.4997 68.4996 28.4997C68.3457 28.4384 68.3457 28.2237 68.3457 28.0703Z" fill="#D69580"/>
<path d="M74.1625 38.1919C73.7009 37.5784 72.8701 37.4864 72.1315 37.3637C70.9314 37.149 69.7312 36.7196 68.808 35.9222C68.7157 35.8302 68.6234 35.7688 68.5619 35.6768C68.4695 35.7688 68.408 35.8302 68.3157 35.9222C67.0232 37.1184 65.2076 38.0078 63.4228 38.0692C62.6227 38.0999 61.8226 37.9465 61.1456 37.4864C60.961 37.3637 60.7763 37.2104 60.6225 37.0264C60.5302 37.0877 60.3763 37.1184 60.1609 37.2104C59.4223 37.4251 58.7146 37.6705 57.976 37.8852C57.6067 38.0078 57.2375 38.0999 56.9605 38.3452C56.0373 39.112 55.4219 40.3695 55.1757 41.4737C54.8064 43.038 54.2833 44.6942 54.0986 46.2891C53.7601 49.3869 54.4371 52.6381 55.1449 55.6746C55.545 57.3922 56.1296 59.0484 56.7451 60.7047C57.6067 63.0664 58.4684 65.4588 59.2992 67.8205C61.1456 68.4646 63.1458 67.4831 64.8691 66.5323C66.6232 65.5508 68.408 64.6 70.162 63.6185C71.6084 62.821 73.1162 61.3795 71.9161 59.6619C71.6391 59.2938 71.2699 58.9257 71.2391 58.4657C71.2391 58.251 71.3314 58.0363 71.3314 57.7909C71.3314 57.3002 70.8698 56.9321 70.6236 56.5027C70.3775 56.104 70.3467 55.6132 70.3467 55.1225C70.2544 52.0247 70.9621 48.9575 71.9161 46.0131C72.4085 44.5715 72.9008 43.0993 73.5163 41.7191C73.9163 40.7069 74.9934 39.3267 74.1625 38.1919Z" fill="#F29456"/>
<path d="M76.3162 25.9233C76.5008 25.1258 76.7162 24.3283 76.9009 23.5002C75.9161 23.3469 74.9314 23.0708 74.0082 22.7641C73.5466 22.6107 73.0543 22.3654 72.5927 22.2734C72.008 22.1813 72.0388 22.2734 71.9465 22.8868C71.6387 24.8804 71.2079 26.8434 70.6232 28.7757C69.8847 31.1987 69.023 33.5911 68.346 36.0448C67.7613 38.1918 66.7458 41.167 67.7614 43.314C68.1922 44.2648 69.0538 45.0316 70.1001 45.1849C70.8694 45.3076 71.6695 45.0622 72.3465 44.6635C72.9927 44.2341 73.5466 43.6513 73.9775 43.0072C75.1776 41.3203 75.4853 39.2653 75.7315 37.241C76.0085 35.0327 76.07 32.8243 76.0392 30.616C76.0392 29.2051 75.9161 27.6715 76.2239 26.2913C76.2546 26.1993 76.2854 26.0459 76.3162 25.9233Z" fill="#FEC5A7"/>
<path d="M68.562 34.0206C68.3774 34.6647 66.0078 40.5842 67.5773 43.4674C68.0696 44.3875 69.0544 45.0623 70.1006 45.2156C70.87 45.3383 71.8239 45.185 72.5009 44.7862C73.1471 44.3568 73.7934 43.9274 74.2857 43.314C76.3167 40.8603 76.1321 36.1676 76.1629 35.6462C73.7318 35.7075 70.6238 35.2168 68.562 34.0206Z" fill="#F29456"/>
<path d="M75.5166 8.19519C74.4396 8.47123 73.5164 8.65526 72.4086 8.83929C72.3778 9.08466 71.0854 21.1999 71.27 23.9296C71.3315 24.7884 71.3931 25.6472 71.7931 26.414C73.2087 29.2358 75.8551 26.9354 76.5629 24.9418C77.0245 23.6536 77.0861 22.2734 77.1168 20.9238C77.1784 18.1634 75.5166 8.25653 75.5166 8.19519Z" fill="#FEC5A7"/>
<path d="M71.0234 3.34913C70.9618 3.04241 70.9618 2.67436 71.2388 2.55167C71.5773 3.07308 71.7004 4.20793 71.9158 4.85203C71.9465 4.97471 72.1619 4.94404 72.1619 4.82136C72.1004 3.74786 71.4234 0.189972 71.9773 0.0979574C72.1004 0.067286 72.1004 0.281986 72.1004 0.404672L72.8082 4.69867H72.8389L72.5312 0.558029C72.5312 0.435343 72.5004 0.312658 72.562 0.189973C72.6235 0.0672869 72.7466 -0.0247268 72.8697 0.0059446C73.3005 1.4475 73.2698 3.04241 73.7314 4.48397C73.7621 4.54531 73.8237 4.51464 73.8237 4.4533C73.7621 3.19577 73.5467 2.12227 73.5159 0.956758C73.5159 0.680715 73.5775 0.312657 73.8544 0.251314C74.0699 0.281986 74.1314 1.11012 74.1622 1.2328C74.2853 1.93824 74.3468 2.64368 74.4391 3.34913C74.4699 3.65584 74.5007 3.96256 74.5622 4.26927C74.593 4.42263 74.593 4.57598 74.6238 4.69867C74.6238 4.79068 74.6238 5.15874 74.6853 5.22009C74.993 4.94404 75.67 3.07309 75.9162 2.67436C75.9778 2.58234 76.0701 2.521 76.1624 2.55167C76.624 2.58234 75.9778 4.72934 75.8239 5.22009C75.4854 6.26291 75.4854 7.39775 75.547 8.47125C75.5777 9.14602 75.6393 9.88214 75.2392 10.4649C74.9315 10.8943 74.1929 11.1703 73.6698 11.0783C72.4081 10.833 72.3158 9.11536 72.0388 8.07253C71.6388 6.50829 71.3003 4.94404 71.0234 3.34913Z" fill="#FEC5A7"/>
<path d="M73.8857 25.6166C73.9473 25.8926 74.1935 26.0766 74.4704 26.138C74.7474 26.1993 75.0243 26.0153 75.1782 25.8006" fill="#FEC5A7"/>
<path d="M54.499 47.7C54.5298 47.884 54.776 47.9454 54.9606 47.9454C55.5761 47.9454 56.1915 47.8534 56.7762 47.7" stroke="#EA8249" stroke-width="0.8966" stroke-miterlimit="10"/>
<path d="M60.3145 47.8533C60.8376 47.8533 61.3607 48.068 61.8839 48.2214C63.2071 48.6201 64.6226 48.6508 65.9766 48.3134" stroke="#EA8249" stroke-width="0.8966" stroke-miterlimit="10"/>
<path d="M68.7158 34.2966C70.9007 35.5848 73.5779 36.0448 76.1013 35.5848" stroke="#EA8249" stroke-width="0.8966" stroke-miterlimit="10"/>
<path d="M52.7139 35.0633C53.7909 35.278 54.8987 34.9407 55.9142 34.6033C57.299 34.1432 58.653 33.6218 59.9762 33.0697" stroke="#EA8249" stroke-width="0.8966" stroke-miterlimit="10"/>
<path d="M70.8699 47.1479C70.0082 50.1231 69.3928 53.2209 69.7928 56.288" stroke="#EA8249" stroke-width="0.8966" stroke-miterlimit="10"/>
<path d="M70.0693 57.2081C70.5002 57.6682 70.654 58.3736 70.4386 58.9564C70.4078 59.0791 70.3463 59.2018 70.3771 59.3245C70.4078 59.4165 70.5002 59.4778 70.5925 59.5085C70.931 59.7232 71.2079 60.0299 71.3926 60.3673C71.5464 60.6433 71.6388 60.9807 71.5772 61.3181C71.5157 61.6248 71.3003 61.9315 70.9618 62.0235" stroke="#EA8249" stroke-width="0.8966" stroke-miterlimit="10"/>
<path d="M82.9627 25.9847C82.9627 25.7393 83.055 23.8377 83.055 23.623C84.5629 23.7457 86.2861 23.531 87.7632 23.3776C87.5786 29.1132 87.7632 35.6462 87.2401 40.799C87.0555 42.5166 86.8093 44.3569 85.6399 45.6451C85.3322 45.9825 84.9629 46.2892 84.5321 46.4119C83.6705 46.6879 82.6857 46.2585 82.0703 45.5531C81.4856 44.8476 81.2086 43.9275 81.0548 43.038C80.07 37.3638 82.778 31.7203 82.9627 25.9847Z" fill="#EFD5BB"/>
<path d="M87.6101 10.2196C87.6409 10.1583 87.6409 10.1276 87.6716 10.0969C88.6256 10.5877 89.5795 11.0477 90.5335 11.4465C90.5027 11.6612 90.472 11.9679 90.4104 12.1519C90.1642 14.2682 88.9641 22.7335 88.1948 25.2179C87.9486 25.9847 87.7024 26.7822 87.1793 27.3956C85.2406 29.696 83.3327 26.9969 83.0865 25.0032C82.9326 23.715 83.1788 22.4268 83.4558 21.1693C83.9789 18.5929 87.2408 11.2931 87.6101 10.2196Z" fill="#EFD5BB"/>
<path d="M92.9335 6.2323C93.0565 5.95626 93.1489 5.64954 92.9027 5.43484C92.5026 5.86424 92.1026 6.8764 91.7641 7.39781C91.7025 7.52049 91.5179 7.42848 91.5487 7.3058C91.8256 6.32431 93.2412 3.19583 92.7488 2.98113C92.6565 2.95046 92.595 3.13449 92.5642 3.2265L90.964 7.02975H90.9332L92.1334 3.28784C92.1641 3.16516 92.1949 3.04247 92.1949 2.91979C92.1641 2.7971 92.0718 2.67441 91.9487 2.70508C91.241 3.96261 90.9025 5.43484 90.1639 6.6617C90.1331 6.72304 90.0716 6.6617 90.0716 6.63102C90.4101 5.46551 90.8409 4.54537 91.1179 3.4412C91.1794 3.16516 91.1794 2.82777 90.964 2.70508C90.7486 2.67441 90.5024 3.4412 90.4716 3.56388C90.2255 4.17731 89.9793 4.82141 89.7331 5.46551C89.6408 5.74155 89.5177 6.0176 89.4254 6.29364C89.3638 6.41633 89.333 6.56968 89.2715 6.69237C89.2407 6.78438 89.1792 7.12177 89.0869 7.15244C88.8715 6.84573 88.656 4.97477 88.5022 4.5147C88.4714 4.42268 88.4099 4.36134 88.3175 4.33067C87.8867 4.26933 88.0098 6.38565 88.0406 6.8764C88.1329 7.91922 87.8867 8.96205 87.579 9.94354C87.3944 10.557 87.1789 11.2317 87.4251 11.8452C87.6098 12.3052 88.2252 12.7346 88.7484 12.7653C89.9793 12.8266 90.4409 11.2624 90.9025 10.3423C91.641 9.0234 92.318 7.64318 92.9335 6.2323Z" fill="#EFD5BB"/>
<path d="M94.7804 67.1151C93.5803 64.9374 90.9646 63.6492 88.5028 63.9866L75.7936 65.2135C70.7468 65.7042 65.6386 66.2256 60.838 67.8205C60.0687 68.0659 59.2378 68.4339 58.9916 69.1701C58.6839 70.0595 59.2994 70.9797 59.9764 71.5931C61.8535 73.3414 64.3769 74.2922 66.8387 75.059C69.8852 76.0098 72.9625 76.8072 76.1013 77.4207C80.9942 78.3715 86.2256 78.8622 90.903 77.1446C92.4417 76.5925 93.9495 75.7337 94.8112 74.3229C95.2728 73.5561 95.519 72.6973 95.6113 71.8078C95.7959 70.2436 95.5805 68.5566 94.7804 67.1151Z" fill="#261E60"/>
<path d="M58.4067 71.041C57.422 81.2546 54.7755 103.982 54.9909 104.534C55.2063 105.086 56.5603 105.362 57.145 105.24C57.6682 105.148 64.5613 85.7019 64.9305 76.3778C64.9921 75.059 64.9921 73.7094 64.5613 72.4519C64.0381 70.857 62.7457 69.4768 61.207 68.8633C59.2683 68.0659 58.5913 69.2007 58.4067 71.041Z" fill="#F6DEC2"/>
<path d="M59.2681 100.578C59.2989 100.578 59.3604 100.578 59.3912 100.608C63.0224 93.0937 64.5918 84.6284 64.8995 76.2551C64.9611 74.9363 64.9611 73.556 64.5302 72.2985C64.0071 70.7036 62.7146 69.3234 61.176 68.6793C59.2681 67.9125 58.5911 69.0473 58.4065 70.8876C57.4525 80.5491 56.0985 90.0879 55.1445 99.7494C56.3754 100.056 58.0372 100.424 59.2681 100.578Z" fill="#261E60"/>
<path d="M94.7802 67.115C94.6263 66.8696 94.4725 66.6243 94.2878 66.3789C92.6261 68.6793 89.7027 69.8754 86.9024 70.4275C83.1481 71.1636 79.2399 71.041 75.4549 70.6116C73.1161 70.3662 70.9313 69.5687 68.6541 69.078C67.3924 68.8019 66.0999 68.5566 64.8383 68.6793C63.7612 68.7713 62.2533 69.1393 61.7918 70.2128C61.484 70.9183 61.6687 71.593 61.8841 72.2678C61.9764 72.6052 62.0687 72.9119 62.161 73.2493C63.6074 74.0468 65.2075 74.6295 66.8077 75.1203C69.8542 76.0711 72.9315 76.8685 76.0703 77.482C80.9632 78.4328 86.1946 78.9235 90.8721 77.2059C92.4107 76.6538 93.9186 75.795 94.7802 74.3841C95.2418 73.6174 95.488 72.7586 95.5803 71.8691C95.7957 70.2435 95.5803 68.5566 94.7802 67.115Z" fill="#1E1A56"/>
<path d="M62.3449 69.4767C62.0987 69.6608 61.9141 69.9062 61.791 70.1822C61.4833 70.8876 61.6679 71.5624 61.8833 72.2372C62.0987 72.9733 62.2834 73.6787 62.4064 74.4455C62.6834 76.1324 62.7449 77.8807 62.6834 79.5983C62.5603 82.9415 62.0064 86.254 60.9909 89.4132C60.2831 91.6522 59.4215 93.9525 58.129 95.9155C57.3597 97.081 56.4057 98.2159 55.2056 98.8906C55.1748 99.1667 55.1441 99.4427 55.1133 99.6881C56.3134 100.025 57.9752 100.363 59.2368 100.547C59.2676 100.547 59.3292 100.547 59.3599 100.578C62.9911 93.0937 64.5605 84.6898 64.8683 76.3471C64.9298 75.0283 64.9298 73.6787 64.499 72.4212C64.1605 71.2557 63.3604 70.2129 62.3449 69.4767Z" fill="#1E1A56"/>
<path d="M95.6108 29.6652C95.9493 28.8678 96.1954 28.0703 96.3801 27.2422C96.657 25.8927 95.5184 24.8498 94.5029 24.083C93.9798 23.6843 93.3643 23.3776 92.7181 23.2242C92.5643 23.1936 92.1334 23.1936 92.0103 23.1016C91.7642 22.9175 91.0872 21.568 89.6716 21.0466C88.4715 20.6172 86.9328 20.9546 85.7635 21.3533C85.0249 21.6293 84.4402 22.0281 83.794 22.4881C83.0555 23.0402 82.3477 23.4389 81.7015 24.1444C81.0245 24.9112 80.409 25.7393 80.0397 26.6901C78.8703 29.7573 80.8398 31.5055 82.6246 33.7445C83.394 34.6953 84.194 35.7075 85.3634 36.1062C86.1327 36.3823 86.9636 36.3823 87.7329 36.2596C91.3026 35.7075 94.1952 32.9777 95.6108 29.6652Z" fill="#A84F00"/>
<path d="M90.6259 39.9402C90.3797 39.4188 89.1181 33.6525 89.4566 33.5912C87.5179 34.0206 85.0253 34.6954 83.302 34.8794C83.979 34.7874 83.6097 40.4923 83.2712 41.1057C82.7789 41.9952 79.3015 45.277 78.3783 46.4732C77.6398 47.3933 76.8705 48.4975 77.0551 49.663C77.209 50.6138 77.9475 51.4113 78.1322 52.3621C78.2245 52.9142 78.1322 53.4663 78.0706 53.9877C77.8552 55.2452 77.6706 56.5027 77.8244 57.7603C77.9783 59.1098 78.5014 60.398 79.0246 61.6862C80.1939 64.5386 82.4711 69.7835 83.6405 72.6359C86.9947 72.0225 89.2411 69.0167 92.5646 68.4032C92.8108 68.3726 93.057 68.3112 93.2108 68.1272C93.3647 67.9738 93.3955 67.7285 93.3955 67.5138C93.4263 66.5936 93.0877 65.7042 92.7185 64.8454C91.3645 61.4102 89.7951 57.8523 90.2566 54.2024C90.6567 50.7058 92.8416 47.608 93.2108 44.1115C93.3032 43.314 93.2416 42.0565 92.5031 41.5351C91.6722 40.8603 91.1183 41.0137 90.6259 39.9402Z" fill="#F6DEC2"/>
<path d="M92.7181 64.784C92.4412 64.1093 92.195 63.4652 91.918 62.7904C90.1947 63.7719 88.2868 64.416 86.4097 64.9987C84.6864 65.5202 82.8093 66.3483 80.9629 66.3483C81.9476 68.618 82.9631 71.0103 83.6094 72.6359C86.9636 72.0225 89.21 69.0167 92.5335 68.4033C92.7796 68.3726 93.0258 68.3113 93.1797 68.1272C93.3336 67.9739 93.3643 67.7285 93.3643 67.5138C93.3951 66.5323 93.0566 65.6428 92.7181 64.784Z" fill="#2F2369"/>
<path d="M93.3644 67.4831C93.3952 66.563 93.0567 65.6735 92.6874 64.8147C92.4105 64.1399 92.1643 63.4958 91.8873 62.821C90.4718 63.6185 88.9639 64.1706 87.4253 64.692C87.5484 64.876 87.6099 65.0907 87.6715 65.3361C87.9792 66.747 86.8406 68.0965 86.0713 69.17C85.2712 70.2742 84.5326 71.4704 83.4248 72.2985C83.4864 72.4212 83.5171 72.5439 83.5787 72.6666C86.9329 72.0531 89.1793 69.0473 92.5028 68.4339C92.749 68.4032 92.9952 68.3419 93.149 68.1579C93.3337 67.9125 93.3644 67.6978 93.3644 67.4831Z" fill="#261E60"/>
<path d="M91.6409 47.2707C90.9024 48.7429 89.9176 50.6139 88.1636 51.0433C87.3019 51.258 86.3172 51.0739 85.6402 50.5218C84.994 50.0311 84.717 49.2643 84.717 48.4975C84.717 47.5467 85.0863 46.5959 85.4863 45.7678C85.9479 44.817 86.5326 43.9582 87.1789 43.13C87.7943 42.3326 88.4405 41.5965 89.0868 40.799C89.3945 40.431 90.9331 39.0201 90.1638 38.56C89.6715 38.284 88.779 40.1242 88.5021 40.5536C88.2251 40.983 87.9174 41.4431 87.6404 41.8725C87.4866 42.1179 86.9327 42.7006 86.9327 42.9767C86.071 44.2649 85.1786 45.6144 83.8862 46.5039C82.5937 47.3627 80.7781 47.6694 79.4857 46.7799C79.1779 46.5652 78.901 46.2585 78.901 45.8905C78.7471 46.0438 78.5625 46.2892 78.4086 46.4732C77.6701 47.3934 76.9007 48.4975 77.0854 49.663C77.2393 50.6139 77.9778 51.4113 78.1624 52.3621C78.2548 52.9142 78.1624 53.4663 78.1009 53.9877C77.9778 54.6931 77.8855 55.3986 77.8239 56.104C78.4394 56.3187 79.0548 56.5028 79.7011 56.6561C82.4706 57.3309 85.394 57.4229 88.1944 56.9935C88.8714 56.8708 89.5791 56.7481 90.2561 56.5641C90.1946 55.7667 90.1946 54.9999 90.2869 54.2024C90.6869 50.7059 92.8718 47.6081 93.2411 44.1115C93.2719 43.8968 93.2719 43.6821 93.2719 43.4367C92.7795 44.7249 92.2564 46.0131 91.6409 47.2707Z" fill="#DB7197"/>
<path d="M85.2717 39.4188C86.1641 39.4495 87.0565 38.8974 87.7028 38.3146C88.4413 37.6705 88.9952 36.8731 89.5183 36.0449C89.6107 35.9222 89.6722 35.7996 89.7337 35.6462C89.6414 34.9408 89.5799 34.2353 89.4876 33.5605C87.5489 33.9899 85.0563 34.6647 83.333 34.8487C83.5792 36.0449 83.7946 37.3331 83.7946 38.5293C84.1639 39.0201 84.687 39.4188 85.2717 39.4188Z" fill="#EFB59E"/>
<path d="M89.7646 26.6594C89.4876 28.5917 90.0723 30.6467 91.3955 32.0883C90.2262 34.45 88.6875 36.1676 85.6102 37.0264C84.3178 37.3944 82.8099 36.965 82.1329 35.7995C81.7329 35.1247 81.3636 33.7445 81.3944 32.9471C81.4559 31.5975 81.7021 30.248 82.1329 28.9905C82.5022 27.917 82.9022 26.5981 84.1332 26.23C84.9332 25.9847 85.7949 26.3527 86.6257 26.4447C87.949 26.5674 89.2107 25.8926 90.2262 25.0645C89.98 25.5859 89.8261 26.1073 89.7646 26.6594Z" fill="#F6DEC2"/>
<path d="M84.2866 31.3521C84.3174 31.1681 84.3482 30.9534 84.4097 30.8001C84.502 30.4933 84.5636 30.156 84.6559 29.8492C84.779 29.5119 84.8405 29.1438 84.9329 28.7757C84.9636 28.7144 85.0559 28.7144 85.0559 28.7757C85.0559 29.0518 84.9328 29.3585 84.8713 29.6345C84.8405 29.8799 84.7482 30.1253 84.6867 30.3707C84.5944 30.6467 84.5636 30.9227 84.502 31.1988C84.4713 31.3521 84.4097 31.5362 84.502 31.6895C84.5943 31.8429 84.8405 31.9042 85.0252 31.9349C85.179 31.9656 85.1483 32.1803 85.0252 32.1496C84.7482 32.1189 84.4713 32.0269 84.3174 31.7509C84.2251 31.5975 84.2559 31.4748 84.2866 31.3521Z" fill="#D69580"/>
<path opacity="0.67" d="M88.6564 30.0026H88.6256C88.3179 29.7266 88.0409 29.4199 87.7024 29.2359C87.4562 29.1132 87.2101 29.0518 86.9946 29.0518C86.9946 29.0212 86.9639 28.9905 86.9639 28.9291C86.9639 28.8985 86.9639 28.8678 86.9946 28.8371C87.0254 28.7758 87.087 28.7758 87.1793 28.7758C87.5793 28.7144 87.9178 28.8371 88.2563 29.0212C88.5641 29.2052 88.8102 29.3892 88.8718 29.7266C88.8718 29.7573 88.8718 29.7879 88.8718 29.8186C88.841 29.9413 88.7487 29.972 88.6564 30.0026Z" fill="#04061B"/>
<path opacity="0.67" d="M83.3626 28.193C83.0549 28.193 82.8087 28.2544 82.6241 28.4077C82.5933 28.3771 82.5625 28.3464 82.5318 28.3464C82.501 28.3157 82.501 28.2851 82.501 28.2544C82.501 28.193 82.5318 28.1624 82.5933 28.101C82.8395 27.8863 83.1472 27.7943 83.4549 27.7943C83.7627 27.7943 84.0396 27.825 84.255 28.0397C84.2858 28.0704 84.2858 28.0704 84.3166 28.101C84.3166 28.1317 84.3166 28.1624 84.3166 28.193C84.0704 28.2851 83.7319 28.193 83.3626 28.193Z" fill="#04061B"/>
<path d="M88.1334 31.7509C88.318 31.9042 88.4411 32.1496 88.3488 32.3643C88.318 32.4563 88.2565 32.5177 88.1641 32.579C87.7949 32.855 87.2717 32.763 86.8409 32.6097C86.3793 32.4256 85.61 31.5975 86.4101 31.2908C86.8717 31.1068 87.7949 31.4748 88.1334 31.7509Z" fill="#EFAE95"/>
<path d="M83.6707 30.8001C83.8553 30.9228 84.0092 31.1375 83.9476 31.3522C83.9168 31.4442 83.8861 31.5055 83.8245 31.5669C83.5168 31.8736 83.0244 31.8736 82.5936 31.7816C82.132 31.6896 81.3011 31.0148 82.0089 30.6161C82.3782 30.3707 83.3014 30.5547 83.6707 30.8001Z" fill="#EFAE95"/>
<path d="M84.8099 33.2538C84.533 33.2538 84.256 33.2231 83.979 33.2538C83.9483 33.2538 83.9175 33.2538 83.9175 33.2845C83.8867 33.3151 83.8867 33.3765 83.8867 33.4071C83.9483 33.7139 84.0098 34.0512 84.2868 34.2353C84.5945 34.45 85.0253 34.358 85.2715 34.0819C85.4254 33.8979 85.6716 33.4992 85.5792 33.2538C85.5177 33.0698 85.4561 33.1311 85.3023 33.1924C85.1484 33.2231 84.9945 33.2538 84.8099 33.2538Z" fill="#EFAE95"/>
<path d="M85.3023 33.1924C85.1484 33.2231 84.9945 33.2538 84.8099 33.2538C84.5329 33.2538 84.256 33.2231 83.979 33.2538C83.9483 33.2538 83.9175 33.2538 83.9175 33.2845C83.8867 33.3151 83.8867 33.3765 83.8867 33.4071C83.9175 33.5298 83.9175 33.6525 83.979 33.7445C84.4714 33.6218 84.9945 33.6832 85.3946 33.9286C85.5177 33.7139 85.6408 33.4378 85.5792 33.2538C85.5484 33.0698 85.4869 33.1311 85.3023 33.1924Z" fill="#D69580"/>
<path d="M85.0863 33.4685C85.2402 33.3765 85.3633 33.2845 85.4556 33.1311C85.4248 33.1311 85.3633 33.1618 85.3017 33.1924C85.1479 33.2231 84.994 33.2538 84.8094 33.2538C84.5632 33.2538 84.2862 33.2231 84.04 33.2538C84.2862 33.5605 84.6863 33.6832 85.0863 33.4685Z" fill="white"/>
<path d="M83.0867 29.5732C82.6866 29.7573 82.9636 30.4014 83.3636 30.2173C83.7637 30.0333 83.4867 29.3892 83.0867 29.5732Z" fill="#04061B"/>
<path d="M87.7948 30.5241C87.3024 30.7388 87.6101 31.5055 88.0717 31.2908C88.5641 31.0761 88.2871 30.3094 87.7948 30.5241Z" fill="#04061B"/>
<path d="M82.8707 29.6346C82.7476 29.7266 82.4706 29.972 82.5014 30.156C82.5014 30.1867 82.5629 30.1867 82.5629 30.156C82.5629 30.0333 82.686 29.9413 82.7476 29.8799C82.9322 29.6959 83.1476 29.6039 83.363 29.7879C83.3938 29.8186 83.4246 29.7879 83.4246 29.7573C83.3015 29.5426 83.0245 29.5119 82.8707 29.6346Z" fill="#04061B"/>
<path d="M87.6717 30.4627C87.5178 30.5241 87.087 30.7694 87.1486 30.9841C87.1486 31.0148 87.1793 31.0148 87.2101 30.9841C87.3332 30.8308 87.4563 30.7081 87.6409 30.6161C87.7332 30.5854 87.8871 30.5547 87.9794 30.6161C88.041 30.6468 88.0717 30.7081 88.1333 30.7388C88.1641 30.7694 88.2256 30.7081 88.1948 30.6774C88.1333 30.4627 87.8871 30.4014 87.6717 30.4627Z" fill="#04061B"/>
<path d="M97.7649 21.9667C99.919 22.3041 101.858 23.6536 102.935 25.5553C104.873 28.9291 103.827 33.1311 102.75 36.873C102.504 37.7625 102.227 38.6213 101.981 39.5108C101.673 40.6149 101.088 41.9031 99.9497 41.9951C99.9805 40.8603 100.011 39.6948 100.042 38.56C99.4574 39.3267 98.5342 39.8175 97.5802 39.8788C97.6418 38.6826 98.0418 37.5478 98.1649 36.3823C98.5034 33.6219 97.3648 30.7387 95.2415 28.9291C94.4107 28.2237 93.4567 27.7023 92.7181 26.9355C89.3024 23.4696 94.8415 21.5066 97.7649 21.9667Z" fill="#A84F00"/>
<path d="M98.903 71.9611C98.9645 72.7586 98.903 73.556 98.6875 74.3535C98.626 74.5682 98.5645 74.8136 98.626 75.0589C98.7799 75.611 101.734 76.6845 102.35 77.0526C103.765 77.8807 105.181 78.7702 106.535 79.6903C109.273 81.5306 111.951 83.5242 114.597 85.4872C115.182 85.9166 115.797 86.438 115.982 87.1435C116.197 88.1556 115.397 89.1064 114.474 89.5665C113.182 90.2106 111.643 90.1799 110.197 90.0879C102.842 89.4745 94.8409 86.6221 89.2711 81.776C87.5786 80.3037 85.8861 79.0462 84.8706 77.0526C83.4858 74.3842 82.6549 69.9368 84.809 67.5444C87.0247 65.0907 92.1637 64.3546 95.0871 65.9188C97.2412 67.0844 98.6876 69.4767 98.903 71.9611Z" fill="#2F2369"/>
<path d="M137.216 100.731C137.985 100.946 138.447 100.087 138.877 99.4427C139.277 98.7986 135.892 95.9155 135.431 95.3328C132.384 91.5295 122.752 84.1683 112.936 85.1192C111.151 85.3032 107.212 85.8553 107.643 88.1863C108.074 90.4867 112.844 91.7442 114.659 92.419C120.044 94.4433 135.4 100.24 137.216 100.731Z" fill="#F6DEC2"/>
<path d="M134.353 98.3078C134.815 97.449 135.215 96.5903 135.492 95.6701C135.523 95.6088 135.523 95.5474 135.553 95.4861C135.492 95.4247 135.43 95.3634 135.4 95.302C132.353 91.4988 122.721 84.1376 112.905 85.0885C111.12 85.2725 106.873 85.6405 107.304 88.0022C107.735 90.3026 112.812 91.7135 114.597 92.3883C118.905 94.0138 128.876 98.0011 133.707 99.7187C133.953 99.3507 134.169 98.7066 134.353 98.3078Z" fill="#2F2369"/>
<path d="M115.952 87.1435C115.798 86.4381 115.152 85.9166 114.567 85.4872C111.92 83.4936 109.274 81.5306 106.504 79.6903C105.12 78.7702 103.735 77.8807 102.319 77.0526C101.704 76.6845 98.7189 75.611 98.5958 75.059C98.5343 74.8136 98.5958 74.5989 98.6574 74.3535C98.8728 73.5867 98.9343 72.7586 98.8728 71.9611C98.6574 69.4768 97.2111 67.0844 95.0262 65.9189C93.3337 64.9987 90.9026 64.8761 88.7178 65.3975C90.9642 65.9802 92.749 67.5445 93.703 69.6608C94.6262 71.6851 94.6569 73.8628 94.3184 76.0098C94.2569 76.3472 94.1646 76.7459 94.2569 77.0833C95.9186 77.0833 97.5803 77.39 99.1498 77.9421C102.35 79.0462 105.058 80.9479 107.643 83.1255C109.613 84.7818 111.767 86.4381 113.182 88.6157C113.828 88.7077 114.505 88.7077 115.152 88.7384C115.275 88.7384 115.398 88.7384 115.49 88.7691C115.859 88.2783 116.106 87.7263 115.952 87.1435Z" fill="#261E60"/>
<path d="M135.4 95.302C132.354 91.4988 122.722 84.1376 112.905 85.0885C112.043 85.1805 111.705 84.9658 110.566 85.3645C110.874 85.6712 111.151 86.0086 111.459 86.346C111.859 86.8061 111.243 87.6955 111.705 88.1249C112.721 88.769 113.982 88.677 115.152 88.7384C116.352 88.7997 117.552 88.8917 118.721 89.0144C122.845 89.5051 126.814 91.1614 129.892 93.9832C131.153 95.1487 132.169 96.5289 132.938 98.0931C133.184 98.5839 133.4 99.136 133.584 99.6881C133.646 99.7187 133.677 99.7187 133.738 99.7494C133.985 99.3813 134.169 98.7372 134.385 98.3385C134.846 97.4797 135.246 96.6209 135.523 95.7008C135.554 95.6394 135.554 95.5781 135.585 95.5168C135.492 95.3941 135.431 95.3327 135.4 95.302Z" fill="#261E60"/>
<path d="M95.2107 29.2359C95.2722 28.9905 95.7646 27.0275 95.8569 26.7821C94.2875 26.4448 92.595 25.678 91.1179 25.0952C89.5485 31.0455 87.3329 37.6398 86.2866 43.0687C85.9173 44.8783 85.6404 46.8412 86.4405 48.4975C86.6559 48.9269 86.9328 49.3563 87.3329 49.6323C88.133 50.1844 89.2716 50.0311 90.1024 49.5097C90.9333 48.9882 91.4872 48.1294 91.918 47.24C94.6568 41.7498 93.6413 35.1554 95.2107 29.2359Z" fill="#F6DEC2"/>
<path d="M95.3339 11.6918C95.3339 11.6305 95.3339 11.5998 95.3339 11.5385C94.2261 11.7532 93.0875 11.9372 91.9797 12.0599C91.9489 12.3052 91.8874 12.612 91.8874 12.8267C91.4873 15.0657 90.1025 24.0831 90.1025 26.8742C90.1025 27.733 90.1333 28.6224 90.4718 29.4199C91.7335 32.3643 94.5338 30.1867 95.3955 28.2237C95.9494 26.9662 96.1032 25.5553 96.2263 24.1751C96.4417 21.384 95.3647 12.888 95.3339 11.6918Z" fill="#F6DEC2"/>
<path d="M91.1185 5.98691C91.0877 5.64953 91.0877 5.31214 91.3954 5.18946C91.7032 5.74154 91.7647 6.90705 91.9493 7.55115C91.9801 7.67384 92.1955 7.67384 92.1955 7.52049C92.1955 6.41631 91.7339 2.79709 92.2879 2.73574C92.4109 2.73574 92.4109 2.91977 92.4109 3.04246L92.8725 7.42847H92.9033L92.8418 3.22649C92.8418 3.1038 92.8418 2.95044 92.9033 2.85843C92.9649 2.73574 93.0879 2.64373 93.211 2.70507C93.5803 4.20797 93.4264 5.80289 93.8265 7.27511C93.8265 7.33646 93.9188 7.30578 93.9188 7.27511C93.9188 5.98691 93.7649 4.91342 93.8265 3.71723C93.8265 3.44119 93.9496 3.07313 94.2265 3.01179C94.4419 3.04246 94.4727 3.90126 94.4727 4.02394C94.5343 4.72939 94.5958 5.4655 94.6266 6.17094C94.6574 6.47765 94.6574 6.78437 94.6881 7.12176C94.6881 7.27511 94.7189 7.42847 94.7189 7.58183C94.7189 7.67384 94.6881 8.0419 94.7497 8.10324C95.0574 7.85787 95.8575 5.98691 96.1345 5.58819C96.196 5.49617 96.2883 5.4655 96.3806 5.4655C96.8422 5.52684 96.0729 7.64317 95.8883 8.13391C95.4882 9.17674 95.3959 10.3116 95.3959 11.4158C95.3959 12.1212 95.3959 12.8573 94.9651 13.4094C94.6266 13.8388 93.888 14.0535 93.3341 13.9308C92.0724 13.6241 92.0724 11.8758 91.8878 10.8023C91.5801 9.23808 91.3339 7.6125 91.1185 5.98691Z" fill="#F6DEC2"/>
<path d="M79.917 51.8713C80.8402 52.4848 82.1326 52.4848 83.0866 51.902" stroke="#261E60" stroke-width="0.8966" stroke-miterlimit="10"/>
<path d="M92.626 28.7144C92.6875 28.9905 92.9029 29.2052 93.1799 29.2665C93.4568 29.3278 93.7646 29.2052 93.9184 28.9598" stroke="#261E60" stroke-width="0.8966" stroke-miterlimit="10"/>
<path d="M77.7939 55.92C81.7944 56.9321 86.0103 57.0855 90.0415 56.3187" stroke="#261E60" stroke-width="0.8966" stroke-miterlimit="10"/>
<path d="M50.6211 105.424C50.3441 105.485 50.0672 105.485 49.7902 105.608C49.544 105.73 49.2979 106.006 49.2979 106.344C49.2979 106.804 49.7902 107.08 50.1903 107.141C51.0519 107.264 51.9135 106.988 52.7752 106.835C53.6061 106.681 54.4369 106.65 55.2678 106.773C55.8525 106.835 56.4679 106.988 57.0526 106.988C57.3911 106.988 57.7604 106.927 58.0066 106.65C58.2835 106.374 58.3451 105.945 58.4066 105.546C58.4682 105.025 58.4989 104.503 58.5297 103.982C58.5297 103.859 58.5297 103.675 58.4066 103.645C58.3143 103.614 58.222 103.675 58.1297 103.737C57.6988 104.043 57.2372 104.35 56.7141 104.411C56.2525 104.473 55.7294 104.319 55.4524 103.89C55.1755 103.491 55.1139 102.694 54.5908 102.633C54.0984 102.602 53.7291 103.246 53.4522 103.583C53.0829 104.013 52.6521 104.411 52.1905 104.749C51.7289 105.056 51.175 105.301 50.6211 105.424Z" fill="#DB7197"/>
<path d="M135.647 105.424C135.831 105.393 136.016 105.362 136.2 105.332C136.908 105.178 137.678 104.872 138.016 104.227C138.139 103.982 138.201 103.706 138.293 103.43C138.478 102.817 138.816 102.264 139.247 101.804C139.647 101.375 140.201 100.976 140.263 100.393C140.355 99.7494 139.832 99.1666 139.339 98.7372C139.001 98.4305 138.632 98.0624 138.17 98.0011C138.17 98.5839 138.324 99.32 138.047 99.8721C137.801 100.363 137.401 100.455 136.908 100.455C136.385 100.424 135.739 100.117 135.523 100.792C135.308 101.559 135.831 102.387 135.339 103.093C135.123 103.399 134.785 103.553 134.446 103.706C134.108 103.859 133.769 104.013 133.523 104.289C133.308 104.565 133.246 105.025 133.523 105.27C133.677 105.424 133.893 105.454 134.108 105.485C134.662 105.485 135.154 105.485 135.647 105.424Z" fill="#DB7197"/>
<path d="M135.462 102.786C135.677 102.725 135.923 102.786 136.108 102.939C136.108 102.939 136.108 102.939 136.108 102.97" stroke="#261E60" stroke-width="0.8966" stroke-miterlimit="10"/>
<path d="M135.523 102.418C135.616 102.326 135.739 102.326 135.862 102.326C135.985 102.326 136.108 102.356 136.2 102.418H136.17" stroke="#261E60" stroke-width="0.8966" stroke-miterlimit="10"/>
<path d="M135.523 101.958C135.739 101.804 136.047 101.804 136.262 101.927C136.231 101.927 136.231 101.896 136.2 101.896" stroke="#261E60" stroke-width="0.8966" stroke-miterlimit="10"/>
<path d="M135.462 101.467C135.708 101.314 136.047 101.314 136.293 101.498" stroke="#261E60" stroke-width="0.8966" stroke-miterlimit="10"/>
<path d="M133.369 104.994C133.769 105.148 134.2 105.148 134.6 105.117C135.185 105.086 135.769 105.056 136.323 104.872C136.877 104.688 137.37 104.319 137.616 103.798C137.739 103.553 137.77 103.307 137.862 103.062C138.047 102.449 138.385 101.896 138.847 101.467C139.124 101.191 139.462 100.946 139.708 100.608C139.955 100.302 140.139 99.8721 140.016 99.4734" stroke="#261E60" stroke-width="0.8966" stroke-miterlimit="10"/>
<path d="M135.677 101.344C135.431 101.252 135.215 101.099 135.061 100.915C135 100.854 134.969 100.762 135.031 100.7C135.061 100.67 135.061 100.67 135.092 100.67C135.246 100.639 135.431 100.731 135.554 100.854C135.677 100.976 135.738 101.13 135.831 101.283C135.738 101.099 135.8 100.884 135.923 100.7C135.985 100.578 136.046 100.455 136.138 100.363C136.169 100.332 136.2 100.271 136.262 100.271C136.323 100.271 136.385 100.332 136.385 100.424C136.385 100.547 136.323 100.67 136.262 100.792C136.169 100.946 136.046 101.099 135.923 101.252" stroke="#261E60" stroke-width="0.8966" stroke-miterlimit="10"/>
<path d="M139.277 98.5839C139.247 98.6452 139.216 98.7372 139.216 98.8292C139.154 99.4427 139.339 100.056 139.677 100.547C139.677 100.578 139.739 100.578 139.739 100.547" stroke="#261E60" stroke-width="0.8966" stroke-miterlimit="10"/>
<path d="M133.923 103.951C134.231 103.89 134.538 104.043 134.754 104.258C134.969 104.473 135.092 104.779 135.185 105.086" stroke="#261E60" stroke-width="0.8966" stroke-miterlimit="10"/>
<path d="M49.3291 106.436C49.5445 106.681 49.8522 106.804 50.1907 106.834C50.5292 106.865 50.837 106.773 51.1447 106.712C52.7449 106.374 54.4066 106.068 56.0376 106.282C56.6838 106.374 57.33 106.528 57.9455 106.313C58.0686 106.282 58.1609 106.221 58.2532 106.129" stroke="#261E60" stroke-width="0.8966" stroke-miterlimit="10"/>
<path d="M52.5293 104.473C52.7755 104.504 53.0217 104.688 53.114 104.902" stroke="#261E60" stroke-width="0.8966" stroke-miterlimit="10"/>
<path d="M52.7139 104.258C52.837 104.197 53.0216 104.197 53.1447 104.289C53.2678 104.35 53.3601 104.473 53.4524 104.595" stroke="#261E60" stroke-width="0.8966" stroke-miterlimit="10"/>
<path d="M53.1133 103.921C53.2364 103.859 53.3902 103.89 53.5133 103.951C53.6364 104.013 53.7287 104.105 53.8211 104.227" stroke="#261E60" stroke-width="0.8966" stroke-miterlimit="10"/>
<path d="M53.3906 103.583C53.5137 103.522 53.6676 103.553 53.7907 103.614C53.9138 103.675 54.0061 103.798 54.0984 103.921L54.0676 103.89" stroke="#261E60" stroke-width="0.8966" stroke-miterlimit="10"/>
<path d="M53.6061 103.491C53.5137 103.338 53.4214 103.154 53.3907 102.97C53.3599 102.786 53.4214 102.571 53.5445 102.479C53.6061 102.418 53.6984 102.418 53.7599 102.448C53.7907 102.479 53.8215 102.51 53.8215 102.541C53.9753 102.847 54.0061 103.215 53.8522 103.522C53.9138 103.338 53.9753 103.185 54.0984 103.031C54.1907 102.878 54.3446 102.755 54.5292 102.725C54.56 102.725 54.5908 102.725 54.5908 102.725C54.6216 102.725 54.6523 102.786 54.6831 102.817C54.7754 102.97 54.6831 103.185 54.56 103.307C54.4369 103.43 54.2523 103.522 54.0984 103.583C54.0369 103.614 53.9753 103.645 53.9138 103.614" stroke="#261E60" stroke-width="0.8966" stroke-miterlimit="10"/>
<path d="M58.4994 104.718C57.884 105.056 57.4531 105.7 57.3916 106.374" stroke="#261E60" stroke-width="0.8966" stroke-miterlimit="10"/>
<path d="M50.0674 105.485C50.3443 105.546 50.5905 105.73 50.7136 105.976C50.8675 106.221 50.929 106.497 50.929 106.773" stroke="#261E60" stroke-width="0.8966" stroke-miterlimit="10"/>
<path d="M135.553 36.1773C136.143 33.1259 134.139 30.176 131.078 29.5884C128.016 29.0008 125.056 30.9981 124.467 34.0495C123.877 37.1008 125.881 40.0508 128.943 40.6384C132.004 41.226 134.964 39.2287 135.553 36.1773Z" fill="#F8D671"/>
<path d="M153.739 74.59C155.54 74.59 156.999 73.135 156.999 71.3403C156.999 69.5455 155.54 68.0905 153.739 68.0905C151.938 68.0905 150.479 69.5455 150.479 71.3403C150.479 73.135 151.938 74.59 153.739 74.59Z" fill="#94B052"/>
<path d="M101.71 5.22504C102.647 5.22504 103.408 4.46733 103.408 3.53265C103.408 2.59797 102.647 1.84027 101.71 1.84027C100.772 1.84027 100.012 2.59797 100.012 3.53265C100.012 4.46733 100.772 5.22504 101.71 5.22504Z" fill="#94B052"/>
<path d="M38.9074 11.8767C39.7261 8.30456 37.4844 4.74723 33.9004 3.93123C30.3165 3.11522 26.7474 5.34954 25.9287 8.92172C25.11 12.4939 27.3517 16.0512 30.9357 16.8672C34.5196 17.6832 38.0887 15.4489 38.9074 11.8767Z" fill="#2A393F"/>
<path d="M16.7862 12.8959C18.7054 12.0587 19.5804 9.82938 18.7405 7.91647C17.9006 6.00355 15.6639 5.13144 13.7446 5.96857C11.8254 6.80569 10.9504 9.03504 11.7903 10.948C12.6302 12.8609 14.8669 13.733 16.7862 12.8959Z" fill="#FBE698"/>
<path d="M12.7706 32.2186C13.7052 31.287 13.7052 29.7765 12.7706 28.8449C11.8359 27.9133 10.3204 27.9133 9.38576 28.8449C8.45107 29.7765 8.45107 31.287 9.38576 32.2186C10.3204 33.1502 11.8359 33.1502 12.7706 32.2186Z" fill="#F8D671"/>
</svg>
