<svg width="115" height="122" viewBox="0 0 115 122" fill="none" xmlns="http://www.w3.org/2000/svg">
<path d="M6.20043 104.507C8.02655 103.709 8.85908 101.585 8.05994 99.7621C7.2608 97.9393 5.13261 97.1083 3.30649 97.906C1.48036 98.7037 0.647831 100.828 1.44697 102.651C2.24611 104.474 4.37431 105.305 6.20043 104.507Z" fill="#FBE698"/>
<g clip-path="url(#clip0)">
<path d="M23.2572 39.8274C23.4033 39.8274 23.5738 39.8761 23.6956 39.949C24.1827 40.1923 24.6211 40.5328 25.0838 40.8246C25.5465 41.1165 26.058 41.3597 26.6181 41.3597C26.813 41.3597 26.9834 41.3111 27.1783 41.2624C27.3731 40.7517 27.5923 40.2652 27.8846 39.8274C27.8115 39.7788 27.7141 39.7301 27.641 39.6815C27.2513 39.4869 26.813 39.3896 26.5207 39.0734C26.2285 38.7329 26.2528 38.1492 26.5694 37.833C26.886 37.5168 27.4705 37.4925 27.8115 37.7844C27.9333 37.8817 28.0307 38.0033 28.1038 38.1492C28.2742 38.3924 28.396 38.66 28.5421 38.9032C29.0536 38.2951 29.6381 37.7844 30.32 37.3466C29.979 37.079 29.6381 36.8358 29.3215 36.5196C29.2241 36.4223 29.1266 36.3007 29.1023 36.1791C28.9318 35.5954 29.565 35.036 30.1008 35.0117C30.3931 35.0117 30.6853 35.1333 30.8558 35.3522C31.0263 35.5954 31.0506 35.8873 31.075 36.1791C31.0993 36.4467 31.1237 36.6412 31.1968 36.8358C31.5864 36.6656 31.9761 36.4953 32.3901 36.3737C32.4876 35.5711 32.4632 34.7441 32.1222 34.0145C31.9031 33.5037 31.5134 33.0416 31.5134 32.4822C31.5134 31.8984 32.0005 31.339 32.6093 31.2904C33.1938 31.2417 33.8027 31.6795 33.9001 32.2633C33.9245 32.4578 33.9245 32.6524 33.9001 32.847C33.8271 33.528 33.6079 34.209 33.6322 34.89C33.6322 35.3035 33.7296 35.7413 33.9488 36.1062C34.168 36.0818 34.3628 36.0818 34.582 36.0818C35.1422 36.0818 35.678 36.1305 36.1894 36.2521C36.1894 36.2278 36.1894 36.2278 36.1894 36.2034C36.1407 35.7656 36.019 35.3522 36.019 34.9144C36.019 34.7928 36.019 34.6711 36.092 34.5495C36.3356 34.0631 37.0905 34.0874 37.4559 34.4036C37.6507 34.5739 37.7725 34.8414 37.7481 35.0846C37.7238 35.3522 37.5533 35.5711 37.3828 35.7656C37.2123 35.9602 37.0906 36.2034 36.9931 36.4467C37.5046 36.6169 38.016 36.8358 38.4787 37.1034H38.5031C38.9415 37.079 39.4042 36.9088 39.7452 36.6412C40.1836 36.3007 40.4271 35.79 40.6219 35.2792C40.7924 34.7684 40.9385 34.2333 41.1577 33.7226C41.2308 33.5767 41.3039 33.455 41.4256 33.3578C41.9858 32.9443 42.8382 33.4064 43.0574 33.9658C43.1792 34.2577 43.1792 34.6468 42.9843 34.9144C42.8138 35.1819 42.4972 35.3522 42.1806 35.4981C41.5231 35.8143 41.2308 36.0575 40.8655 36.6899C40.5732 37.1763 40.281 37.833 40.2079 38.4411C40.6463 38.8789 41.0116 39.3653 41.3282 39.9004C41.4013 39.8518 41.4743 39.8274 41.5231 39.7788C41.864 39.5356 42.1563 39.1707 42.5947 39.0978C43.033 39.0005 43.5445 39.2923 43.6663 39.7301C43.788 40.1679 43.5445 40.6787 43.1305 40.849C42.9843 40.8976 42.8382 40.9219 42.6921 40.9463C42.4242 40.9706 42.1563 40.9706 41.8884 40.9706C42.1806 41.6759 42.3755 42.4299 42.4485 43.2325C42.8382 43.3785 43.2766 43.4514 43.6419 43.5001C44.3725 43.573 44.7379 43.5001 45.3954 43.1596C45.6877 43.0136 46.0043 42.8434 46.3452 42.8677C46.6619 42.892 46.9785 43.1109 47.1489 43.3785C47.4655 43.9135 47.3194 44.8621 46.6375 45.0567C46.4914 45.1053 46.3209 45.081 46.1748 45.0567C45.639 44.9594 45.1275 44.7162 44.6161 44.5702C44.1046 44.4 43.5201 44.3027 43.0087 44.4486C42.8382 44.4973 42.6434 44.5702 42.4972 44.6919C42.4485 45.2513 42.3511 45.762 42.1806 46.2728C42.2537 46.2728 42.3268 46.2971 42.3998 46.2971C42.8626 46.3214 43.3253 46.2728 43.7637 46.3458C43.8854 46.3701 44.0316 46.3944 44.129 46.4674C44.5917 46.8079 44.4456 47.6105 44.0316 47.9267C43.8124 48.0969 43.5201 48.1699 43.2522 48.0969C42.9843 48.024 42.7895 47.8051 42.5947 47.6105C42.3268 47.3186 42.1319 47.1484 41.8884 47.0268C41.6448 47.6348 41.3039 48.1942 40.9142 48.705C41.3282 49.3374 41.8397 49.9211 42.4729 50.2859C42.9356 50.5535 43.4714 50.7237 43.8124 51.1615C44.1777 51.6237 44.1777 52.329 43.8367 52.6938C43.4714 53.0587 42.7895 53.0343 42.3755 52.6209C42.2293 52.4749 42.1076 52.329 42.0101 52.1587C41.6448 51.575 41.3526 50.9426 40.9386 50.4075C40.695 50.1157 40.4028 49.8481 40.0861 49.6536C39.4773 50.2373 38.7467 50.7481 37.9673 51.1129C38.016 51.1615 38.0647 51.2102 38.0891 51.2588C38.4057 51.6237 38.771 51.9642 39.0633 52.3776C39.1363 52.4993 39.2094 52.6209 39.2337 52.7668C39.3068 53.3992 38.5762 53.8613 38.016 53.7883C37.7238 53.7397 37.4315 53.5694 37.3097 53.3262C37.1636 53.0587 37.188 52.7425 37.2123 52.4506C37.2367 52.0371 37.2367 51.7696 37.1393 51.4777C36.3356 51.7453 35.5075 51.8912 34.6064 51.8912C34.2898 51.8912 33.9488 51.8669 33.6322 51.8426C33.6079 51.9155 33.5835 51.9885 33.5592 52.0615C33.34 52.7668 33.34 53.1316 33.5592 53.837C33.6566 54.1532 33.754 54.4937 33.6566 54.8099C33.5835 55.126 33.3156 55.3693 32.999 55.4909C32.4145 55.6854 31.5134 55.3936 31.4403 54.6882C31.416 54.5423 31.4647 54.3721 31.5377 54.2261C31.7326 53.7154 32.0492 53.2776 32.3171 52.7911C32.5119 52.4506 32.6824 52.0615 32.7311 51.6723C31.2698 51.3318 29.979 50.5778 28.9805 49.5563C28.2742 49.8968 27.6167 50.3589 27.2026 50.9913C26.886 51.4534 26.6912 52.0128 26.2285 52.3047C25.717 52.6209 24.9864 52.4993 24.6211 52.0128C24.2557 51.5507 24.3288 50.7967 24.7672 50.4075C24.9133 50.2616 25.0838 50.1886 25.2786 50.0914C25.9119 49.7995 26.5694 49.6049 27.1539 49.2401C27.4949 49.0212 27.8115 48.705 28.0063 48.3402C27.6167 47.7808 27.3244 47.1484 27.1052 46.4917C26.6425 46.6863 26.1797 46.9295 25.6927 47.0754C25.5465 47.1241 25.3761 47.1484 25.2299 47.1241C24.548 46.9781 24.3045 46.0539 24.5724 45.4945C24.7185 45.2026 24.9864 44.9594 25.3273 44.9108C25.6439 44.8621 25.9849 44.9837 26.3015 45.1053C26.4964 45.1783 26.6668 45.2513 26.813 45.2756C26.7399 44.8378 26.6912 44.4 26.6912 43.9622C26.6912 43.5001 26.7399 43.0623 26.813 42.6488C26.472 42.4299 26.0823 42.2353 25.7414 42.1137C25.0594 41.8462 24.6941 41.8218 23.9635 41.9921C23.6469 42.0651 23.3059 42.138 22.9893 42.0407C22.6727 41.9435 22.4292 41.6516 22.3561 41.3354C22.1856 40.7517 22.5509 39.8518 23.2572 39.8274Z" fill="#94B052"/>
<path d="M37.8457 44.3757C38.1623 44.9838 38.211 45.7134 38.0162 46.3458C37.8214 46.9782 37.4074 47.5376 36.8472 47.8781C36.2871 48.2186 35.6051 48.3159 34.9232 48.2429C34.5823 48.1943 34.2657 48.1213 33.949 47.9754C33.6324 47.8295 33.3645 47.6349 33.121 47.3917C33.3158 47.6835 33.6081 47.9024 33.9003 48.0727C34.2169 48.2429 34.5335 48.3645 34.8989 48.4375C35.5808 48.5591 36.3358 48.4618 36.969 48.097C37.6022 47.7322 38.0406 47.0998 38.1867 46.3945C38.2598 46.054 38.2841 45.6891 38.2354 45.3486C38.1623 44.9838 38.0406 44.6433 37.8457 44.3757Z" fill="#7B9B30"/>
<path d="M39.5508 41.2137C39.2829 41.311 38.9906 41.311 38.7471 41.238C38.5035 41.165 38.26 41.0191 38.1139 40.8002C37.9677 40.5813 37.919 40.3138 37.9434 40.0462C37.9677 39.7787 38.0652 39.5111 38.26 39.2922C37.9921 39.4382 37.8216 39.7057 37.7486 40.0219C37.6755 40.3138 37.7242 40.6543 37.919 40.9218C38.1139 41.1894 38.4061 41.3596 38.6984 41.4083C38.9906 41.4569 39.3072 41.4083 39.5508 41.2137Z" fill="#7B9B30"/>
<path d="M31.4169 43.6461C31.5874 44.0109 31.5874 44.4244 31.49 44.7892C31.3926 45.154 31.1734 45.4945 30.8568 45.6891C30.5402 45.908 30.1505 45.981 29.7608 45.9323C29.3712 45.8837 29.0058 45.7378 28.7136 45.4459C28.9328 45.7864 29.3224 46.0296 29.7365 46.1026C30.1505 46.1755 30.6132 46.1026 30.9785 45.8837C31.3439 45.6405 31.5874 45.2513 31.6605 44.8378C31.7335 44.4244 31.6605 43.9622 31.4169 43.6461Z" fill="#7B9B30"/>
<path d="M32.0499 40.63C32.4152 40.4597 32.8293 40.4597 33.1946 40.557C33.5599 40.6543 33.9008 40.8732 34.0957 41.1894C34.3149 41.5056 34.3879 41.8947 34.3392 42.2839C34.2905 42.673 34.1444 43.0378 33.8521 43.3297C34.1931 43.1108 34.4366 42.7217 34.5097 42.3082C34.5828 41.8947 34.5097 41.4326 34.2905 41.0678C34.047 40.7029 33.6573 40.4597 33.2433 40.3867C32.8292 40.3138 32.3665 40.3867 32.0499 40.63Z" fill="#7B9B30"/>
<path d="M10.8359 25.3557C10.8359 25.2828 10.8603 25.2098 10.8846 25.1368C11.0064 24.8936 11.1769 24.6747 11.323 24.4558C11.4691 24.2369 11.5909 23.9694 11.5909 23.7018C11.5909 23.6045 11.5665 23.5072 11.5422 23.4343C11.2986 23.337 11.0551 23.2154 10.8359 23.0938C10.8115 23.1424 10.7872 23.1667 10.7628 23.2154C10.6654 23.41 10.6167 23.6288 10.4706 23.7748C10.3001 23.9207 10.0078 23.8964 9.86172 23.7505C9.69123 23.5802 9.69124 23.3127 9.83737 23.1424C9.88608 23.0938 9.95914 23.0451 10.0078 22.9965C10.1296 22.9235 10.2514 22.8505 10.3732 22.7776C10.0809 22.5344 9.81301 22.2425 9.59382 21.902C9.47205 22.0722 9.32592 22.2425 9.17979 22.3884C9.13109 22.4371 9.08237 22.4857 9.00931 22.51C8.71706 22.583 8.44916 22.2668 8.42481 22.0236C8.42481 21.8777 8.47352 21.7317 8.59529 21.6588C8.71706 21.5615 8.86318 21.5615 9.00931 21.5371C9.13108 21.5371 9.25286 21.5128 9.32592 21.4885C9.22851 21.2939 9.15544 21.0994 9.10673 20.9048C8.71706 20.8561 8.30303 20.8805 7.93772 21.0264C7.69417 21.148 7.45063 21.3182 7.18273 21.3182C6.89047 21.3182 6.62258 21.075 6.59822 20.7832C6.57387 20.4913 6.79306 20.1994 7.08531 20.1508C7.18273 20.1265 7.28015 20.1508 7.37757 20.1508C7.71853 20.1994 8.03514 20.2967 8.3761 20.2967C8.57094 20.2967 8.79013 20.2481 8.98496 20.1508C8.98496 20.0535 8.96061 19.9319 8.96061 19.8346C8.96061 19.5671 8.98496 19.2995 9.03367 19.0563H9.00931C8.79012 19.0806 8.59529 19.1293 8.3761 19.1293C8.32739 19.1293 8.25433 19.1293 8.20562 19.1049C7.96207 18.9833 7.96208 18.6185 8.13256 18.4239C8.20562 18.3266 8.35174 18.278 8.47352 18.278C8.59529 18.3023 8.71706 18.3753 8.81448 18.4482C8.9119 18.5212 9.03367 18.5942 9.15544 18.6428C9.2285 18.3753 9.35028 18.1321 9.47205 17.9132C9.4477 17.6943 9.37463 17.4754 9.25285 17.3051C9.08237 17.0862 8.83883 16.9646 8.57093 16.8673C8.32739 16.77 8.05949 16.7214 7.81594 16.5998C7.74288 16.5754 7.66982 16.5268 7.62111 16.4538C7.42628 16.1863 7.64546 15.7485 7.91336 15.6512C8.05949 15.5782 8.25433 15.6026 8.3761 15.6755C8.52223 15.7728 8.59529 15.9187 8.66835 16.0647C8.81448 16.4052 8.93625 16.5268 9.25285 16.7214C9.4964 16.8673 9.81301 17.0132 10.1296 17.0376C10.3488 16.8187 10.5923 16.6484 10.8359 16.4782C10.8115 16.4538 10.7872 16.4052 10.7628 16.3809C10.6411 16.2106 10.4706 16.0647 10.4219 15.8458C10.3732 15.6269 10.5193 15.3837 10.7385 15.3107C10.9577 15.2377 11.2012 15.3593 11.2986 15.5782C11.323 15.6512 11.3473 15.7242 11.3473 15.7971C11.3473 15.9187 11.3473 16.0647 11.3717 16.2106C11.7127 16.0647 12.1023 15.9674 12.492 15.9431C12.5651 15.7485 12.6138 15.5296 12.6138 15.3593C12.6625 14.9945 12.6138 14.8243 12.4433 14.5081C12.3702 14.3621 12.2972 14.2162 12.2972 14.0459C12.2972 13.8757 12.4189 13.7298 12.5407 13.6568C12.8086 13.5109 13.2713 13.5595 13.3688 13.9C13.3931 13.973 13.3688 14.0459 13.3688 14.1189C13.3201 14.3865 13.1983 14.6297 13.1252 14.8972C13.0522 15.1648 13.0034 15.4323 13.0521 15.6998C13.0765 15.7971 13.1252 15.8701 13.1739 15.9674C13.4418 15.9917 13.7097 16.0404 13.9533 16.1133C13.9533 16.089 13.9533 16.0404 13.9533 16.016C13.9533 15.7971 13.9533 15.5539 13.9776 15.335C13.9776 15.262 14.002 15.2134 14.0507 15.1648C14.2212 14.9215 14.6108 15.0188 14.7813 15.2134C14.8787 15.3107 14.9031 15.4566 14.8787 15.6026C14.83 15.7242 14.7326 15.8215 14.6352 15.9187C14.4891 16.0404 14.416 16.1376 14.3429 16.2836C14.6352 16.4052 14.9274 16.5754 15.171 16.77C15.4876 16.5754 15.7798 16.3079 15.9503 15.9917C16.0965 15.7728 16.1695 15.5053 16.3887 15.335C16.6079 15.1648 16.9732 15.1404 17.1437 15.335C17.3142 15.5053 17.3142 15.8458 17.1193 16.0647C17.0463 16.1376 16.9732 16.1863 16.8758 16.2349C16.5835 16.4052 16.2669 16.5511 15.999 16.77C15.8529 16.8916 15.7068 17.0376 15.6337 17.2078C15.926 17.524 16.1695 17.8645 16.3644 18.2537C16.3887 18.2293 16.4131 18.205 16.4374 18.1807C16.6322 18.0104 16.7784 17.8402 16.9976 17.6943C17.0463 17.6456 17.1193 17.6213 17.1924 17.6213C17.509 17.5726 17.7282 17.9375 17.7038 18.205C17.6795 18.351 17.6064 18.4969 17.4603 18.5455C17.3385 18.6185 17.1681 18.5942 17.0219 18.5942C16.8271 18.5699 16.681 18.5942 16.5348 18.6428C16.6566 19.032 16.7297 19.4454 16.7297 19.8832C16.7297 20.0535 16.7297 20.1994 16.7053 20.3697C16.754 20.394 16.7784 20.394 16.8271 20.4183C17.168 20.5156 17.3629 20.5156 17.7038 20.4183C17.85 20.3697 18.0205 20.321 18.1909 20.3697C18.3371 20.4183 18.4832 20.5399 18.5319 20.6859C18.6293 20.9777 18.4832 21.4155 18.1422 21.4399C18.0692 21.4399 17.9961 21.4155 17.923 21.3912C17.6795 21.2939 17.4603 21.1237 17.2168 21.0021C17.0463 20.9048 16.8514 20.8318 16.6566 20.8075C16.4861 21.5128 16.1208 22.1695 15.6094 22.656C15.7798 22.9965 15.999 23.3127 16.3156 23.5316C16.5348 23.6775 16.8271 23.7748 16.9732 24.018C17.1193 24.2612 17.0706 24.6261 16.8271 24.7963C16.5835 24.9666 16.2182 24.9422 16.0234 24.7233C15.9503 24.6504 15.9016 24.5531 15.8773 24.4801C15.7311 24.1639 15.6337 23.8477 15.4632 23.5559C15.3658 23.3856 15.1953 23.2154 15.0249 23.1424C14.7326 23.337 14.4404 23.4829 14.0994 23.5802C14.1968 23.7991 14.3186 24.0423 14.3916 24.2855C14.416 24.3585 14.4404 24.4315 14.416 24.5044C14.3429 24.845 13.8802 24.9666 13.6123 24.8206C13.4662 24.7477 13.3444 24.6017 13.32 24.4558C13.2957 24.2855 13.3688 24.1396 13.4175 23.9694C13.4662 23.8721 13.4905 23.7991 13.5149 23.7261C13.2957 23.7505 13.0765 23.7748 12.8573 23.7748C12.6381 23.7748 12.4189 23.7505 12.1997 23.7261C12.078 23.8964 12.0049 24.091 11.9318 24.2612C11.8101 24.6017 11.7857 24.772 11.8831 25.1368C11.9318 25.3071 11.9562 25.4773 11.9075 25.6233C11.8588 25.7692 11.7127 25.8908 11.5665 25.9394C11.2743 25.8908 10.8359 25.6962 10.8359 25.3557Z" fill="#94B052"/>
<path d="M13.0761 18.1564C13.3683 18.0105 13.7337 17.9861 14.0503 18.0834C14.3669 18.1807 14.6348 18.3753 14.8053 18.6671C14.9757 18.9347 15.0244 19.2752 14.9757 19.6157C14.9514 19.786 14.9027 19.9319 14.8296 20.1022C14.7566 20.2481 14.6591 20.394 14.5374 20.5156C14.6835 20.4183 14.7809 20.2724 14.8783 20.1265C14.9514 19.9805 15.0245 19.8103 15.0488 19.64C15.1219 19.2995 15.0732 18.9347 14.8783 18.6185C14.7078 18.3023 14.3912 18.0834 14.0503 18.0105C13.8798 17.9618 13.7093 17.9618 13.5388 17.9861C13.3927 17.9861 13.2222 18.0591 13.0761 18.1564Z" fill="#7B9B30"/>
<path d="M11.5178 17.3295C11.5665 17.4754 11.5665 17.597 11.5178 17.7429C11.4691 17.8646 11.3961 17.9862 11.2986 18.0591C11.2012 18.1321 11.0551 18.1564 10.9333 18.1564C10.8116 18.1564 10.6654 18.0835 10.568 18.0105C10.6411 18.1321 10.7872 18.2294 10.9333 18.2537C11.0794 18.278 11.2499 18.2537 11.3717 18.1807C11.4935 18.0835 11.5909 17.9375 11.6152 17.7916C11.6396 17.597 11.6152 17.4268 11.5178 17.3295Z" fill="#7B9B30"/>
<path d="M12.7108 21.3183C12.9057 21.2453 13.1005 21.221 13.271 21.2939C13.4415 21.3426 13.6119 21.4642 13.7094 21.6101C13.8068 21.7561 13.8555 21.9506 13.8311 22.1452C13.8068 22.3398 13.7337 22.51 13.5876 22.656C13.7581 22.5587 13.8798 22.3641 13.9042 22.1452C13.9529 21.9506 13.9042 21.7074 13.7824 21.5372C13.6606 21.3669 13.4658 21.2453 13.271 21.1966C13.1005 21.1723 12.8813 21.1966 12.7108 21.3183Z" fill="#7B9B30"/>
<path d="M11.225 21.0264C11.1519 20.8318 11.1275 20.6372 11.2006 20.467C11.2493 20.2967 11.3711 20.1265 11.5172 20.0292C11.6633 19.9319 11.8582 19.8833 12.053 19.9076C12.2478 19.9319 12.4183 20.0049 12.5645 20.1508C12.467 19.9806 12.2722 19.8589 12.053 19.8346C11.8582 19.786 11.6146 19.8346 11.4442 19.9562C11.2737 20.0778 11.1519 20.2724 11.1032 20.467C11.0788 20.6372 11.1032 20.8561 11.225 21.0264Z" fill="#7B9B30"/>
<path d="M75.01 40.6057C75.01 40.5084 75.0344 40.4111 75.0831 40.3381C75.2292 40.0219 75.4484 39.7787 75.6189 39.4869C75.7894 39.195 75.9599 38.8788 75.9355 38.5383C75.9355 38.4167 75.9112 38.3194 75.8868 38.1978C75.5702 38.0762 75.2779 37.9302 74.9857 37.76C74.9613 37.8086 74.9126 37.8573 74.8883 37.9059C74.7665 38.1491 74.7178 38.4167 74.523 38.5869C74.3038 38.7572 73.9628 38.7572 73.7436 38.5626C73.5488 38.368 73.5244 38.0032 73.7193 37.7843C73.7923 37.7113 73.8654 37.6627 73.9384 37.6141C74.0846 37.5168 74.2551 37.4195 74.4012 37.3465C74.0359 37.0303 73.6949 36.6655 73.4514 36.252C73.2809 36.4709 73.1348 36.6898 72.9399 36.8601C72.8669 36.9087 72.8181 36.9817 72.7207 37.006C72.3554 37.1033 72.0145 36.7141 71.9901 36.3736C71.9901 36.2034 72.0632 36.0088 72.2093 35.9115C72.3554 35.8142 72.5502 35.7899 72.7207 35.7656C72.8912 35.7413 73.013 35.7413 73.1348 35.6926C73.013 35.4494 72.9156 35.2062 72.8425 34.9629C72.3311 34.89 71.8196 34.9143 71.3812 35.1332C71.0646 35.2791 70.7724 35.498 70.4314 35.498C70.0661 35.498 69.7251 35.1818 69.6764 34.817C69.6521 34.4522 69.92 34.0874 70.2853 34.0144C70.4071 33.9901 70.5288 33.9901 70.6506 34.0144C71.0646 34.063 71.4787 34.1846 71.917 34.1846C72.1849 34.1846 72.4528 34.136 72.672 33.9901C72.672 33.8685 72.6477 33.7225 72.6477 33.6009C72.6477 33.2604 72.672 32.9199 72.7451 32.6037H72.7207C72.4528 32.628 72.1849 32.701 71.917 32.701C71.844 32.701 71.7709 32.701 71.6978 32.6523C71.3812 32.5064 71.4056 32.02 71.6004 31.8011C71.6978 31.6795 71.8683 31.6065 72.0388 31.6308C72.2093 31.6551 72.3311 31.7524 72.4528 31.8497C72.5746 31.947 72.7207 32.0443 72.8669 32.0929C72.9643 31.7768 73.1104 31.4606 73.2809 31.1687C73.2809 31.1687 73.2809 31.1687 73.2809 31.1444C73.2565 30.8768 73.1591 30.585 73.013 30.3904C72.8181 30.1229 72.4772 29.9769 72.1606 29.8553C71.844 29.7337 71.503 29.6607 71.2108 29.5148C71.1133 29.4662 71.0403 29.4175 70.9916 29.3445C70.7237 29.004 71.0159 28.469 71.3569 28.323C71.5517 28.2501 71.7709 28.2501 71.9414 28.3717C72.1119 28.4933 72.2093 28.6878 72.3067 28.8581C72.5015 29.2716 72.6477 29.4418 73.0373 29.6851C73.3296 29.8796 73.7436 30.0499 74.1333 30.0985C74.4012 29.831 74.6934 29.6121 75.0344 29.3932C75.01 29.3445 74.9857 29.2959 74.9613 29.2716C74.8152 29.0527 74.596 28.8824 74.523 28.6149C74.4742 28.3473 74.6447 28.0312 74.9126 27.9582C75.1805 27.8852 75.4971 28.0312 75.6189 28.2987C75.6433 28.396 75.6676 28.4933 75.6676 28.5662C75.692 28.7365 75.692 28.9067 75.692 29.077C76.1304 28.9067 76.5931 28.7851 77.0802 28.7365C77.1532 28.4933 77.2263 28.2257 77.2507 28.0068C77.2994 27.5447 77.2507 27.3258 77.0315 26.9367C76.934 26.7664 76.8366 26.5718 76.861 26.3529C76.8853 26.1584 77.0071 25.9638 77.1776 25.8665C77.4942 25.6719 78.0787 25.7692 78.2005 26.1827C78.2248 26.28 78.2248 26.3773 78.2005 26.4745C78.1274 26.815 78.0056 27.1069 77.8839 27.4474C77.7865 27.7636 77.7134 28.1284 77.8108 28.4446C77.8352 28.5662 77.8839 28.6635 77.9569 28.7608C78.2979 28.7851 78.6145 28.8581 78.9311 28.9554C78.9311 28.9067 78.9311 28.8581 78.9311 28.8095C78.9555 28.5176 78.9311 28.2501 78.9798 27.9582C79.0042 27.8852 79.0042 27.7879 79.0529 27.7393C79.2721 27.4474 79.7592 27.5447 79.954 27.7879C80.0514 27.9095 80.1001 28.1041 80.0514 28.2744C80.0027 28.4446 79.8809 28.5662 79.7348 28.6878C79.5643 28.8581 79.4426 28.9797 79.3695 29.1256C79.7348 29.2716 80.1001 29.4905 80.4167 29.7094C80.8064 29.4418 81.1717 29.15 81.3909 28.7608C81.5614 28.469 81.6588 28.1528 81.9267 27.9339C82.219 27.715 82.6573 27.6906 82.8765 27.9339C83.0957 28.1528 83.0714 28.5662 82.8278 28.8338C82.7548 28.9311 82.633 29.004 82.5356 29.0527C82.1702 29.2716 81.7806 29.4418 81.4396 29.7094C81.2448 29.8553 81.0743 30.0499 80.9769 30.2445C81.3422 30.6336 81.6588 31.0714 81.878 31.5579C81.9023 31.5335 81.9511 31.5092 81.9754 31.4849C82.1946 31.2903 82.4138 31.0471 82.6573 30.8768C82.7304 30.8282 82.8035 30.7795 82.9009 30.7795C83.2906 30.7309 83.5585 31.193 83.5341 31.5335C83.5097 31.7038 83.4123 31.8984 83.2418 31.9713C83.0714 32.0686 82.8765 32.0443 82.706 32.02C82.4625 31.9957 82.2677 32.02 82.0972 32.0686C82.2677 32.5551 82.3651 33.0901 82.3651 33.6252C82.3651 33.8198 82.3407 34.0144 82.3164 34.209C82.3651 34.2333 82.4138 34.2333 82.4625 34.2576C82.9009 34.3792 83.1201 34.3792 83.5584 34.2576C83.7533 34.209 83.9725 34.136 84.1673 34.1846C84.3621 34.2333 84.5326 34.4035 84.5813 34.5981C84.7031 34.9629 84.5083 35.5224 84.0942 35.5467C83.9968 35.5467 83.8994 35.5224 83.802 35.498C83.4854 35.3764 83.2175 35.1818 82.9009 35.0116C82.6817 34.89 82.4381 34.7927 82.1946 34.7684C81.9754 35.6683 81.5127 36.4709 80.8795 37.079C81.0987 37.5168 81.3666 37.9059 81.7806 38.1735C82.0728 38.368 82.4138 38.4897 82.6086 38.7815C82.8035 39.0977 82.7304 39.5355 82.4381 39.7787C82.1459 39.9976 81.6832 39.949 81.4396 39.6814C81.3666 39.5841 81.2935 39.4869 81.2448 39.3652C81.0743 38.9761 80.9525 38.5626 80.7333 38.1978C80.5872 37.9789 80.4167 37.7843 80.1732 37.6627C79.8322 37.9059 79.4426 38.0762 79.0285 38.2221C79.1503 38.514 79.2964 38.7815 79.3938 39.0977C79.4182 39.195 79.4426 39.2923 79.4182 39.3896C79.3451 39.8274 78.7606 39.949 78.4197 39.803C78.2248 39.7058 78.0787 39.5355 78.0544 39.3409C78.03 39.1463 78.1031 38.9274 78.1761 38.7572C78.2248 38.6356 78.2735 38.5383 78.2979 38.441C78.03 38.4897 77.7621 38.514 77.4698 38.514C77.2019 38.514 76.9097 38.4897 76.6418 38.441C76.4957 38.6599 76.3739 38.8788 76.3008 39.0977C76.1304 39.5355 76.1304 39.7544 76.2278 40.1922C76.2765 40.3868 76.3252 40.6057 76.2521 40.8002C76.1791 40.9948 76.0086 41.1408 75.8137 41.1894C75.5702 41.2867 75.01 41.0435 75.01 40.6057Z" fill="#002F59"/>
<path d="M77.8109 31.6309C78.2006 31.4363 78.6389 31.412 79.0286 31.5336C79.4183 31.6552 79.7592 31.8984 79.9784 32.2632C80.1976 32.6037 80.2463 33.0415 80.1976 33.455C80.1733 33.6496 80.1246 33.8685 80.0271 34.0387C79.9541 34.2333 79.8079 34.4036 79.6618 34.5495C79.8323 34.4279 79.9784 34.2576 80.0759 34.0631C80.1733 33.8685 80.2463 33.6739 80.295 33.455C80.3681 33.0172 80.3194 32.5551 80.0759 32.1903C79.8567 31.8011 79.467 31.5336 79.0286 31.4363C78.8094 31.3876 78.5902 31.3633 78.371 31.412C78.1762 31.412 77.9814 31.4849 77.8109 31.6309Z" fill="#174968"/>
<path d="M75.862 30.5849C75.9351 30.7552 75.9107 30.9254 75.862 31.0957C75.8133 31.2416 75.7159 31.3875 75.5941 31.4848C75.4723 31.5821 75.3018 31.6064 75.1314 31.6064C74.9609 31.5821 74.8147 31.5335 74.6686 31.4119C74.766 31.5821 74.9365 31.6794 75.107 31.728C75.3018 31.7767 75.4967 31.728 75.6672 31.6307C75.8376 31.5091 75.9351 31.3389 75.9594 31.1443C76.0081 30.9254 75.9594 30.7065 75.862 30.5849Z" fill="#174968"/>
<path d="M77.3478 35.571C77.567 35.4737 77.8349 35.4737 78.0541 35.5223C78.2733 35.5953 78.4925 35.7169 78.6142 35.9115C78.736 36.1061 78.7847 36.3493 78.7604 36.5925C78.736 36.8357 78.6386 37.0546 78.4681 37.2492C78.6873 37.1033 78.8334 36.8844 78.8821 36.6168C78.9308 36.3493 78.8821 36.0817 78.736 35.8628C78.5899 35.6439 78.3463 35.498 78.0784 35.4494C77.8349 35.3764 77.567 35.425 77.3478 35.571Z" fill="#174968"/>
<path d="M75.4973 35.206C75.3999 34.9871 75.3999 34.7195 75.4486 34.5007C75.5216 34.2818 75.6434 34.0629 75.8382 33.9412C76.0331 33.8196 76.2766 33.771 76.5202 33.7953C76.7637 33.8196 76.9829 33.9169 77.1777 34.0872C77.0316 33.8683 76.8124 33.7223 76.5445 33.6737C76.2766 33.6251 76.0087 33.6737 75.7895 33.8196C75.5703 33.9656 75.4242 34.2088 75.3755 34.4763C75.3024 34.7195 75.3512 34.9871 75.4973 35.206Z" fill="#174968"/>
<path d="M11.3961 75.6294C11.4448 75.5807 11.5179 75.5564 11.5666 75.5321C11.8101 75.4591 12.0537 75.4348 12.2972 75.3618C12.5408 75.3132 12.7843 75.2159 12.9548 75.0457C13.0035 74.997 13.0522 74.924 13.1009 74.8511C13.0035 74.6322 12.9304 74.389 12.8574 74.1701C12.8087 74.1701 12.7843 74.1944 12.7356 74.1944C12.5651 74.2674 12.3703 74.3646 12.1754 74.3646C11.9806 74.3403 11.7858 74.1457 11.7858 73.9512C11.7858 73.7566 11.9563 73.562 12.1754 73.5377C12.2485 73.5377 12.3216 73.5377 12.3703 73.562C12.4921 73.5863 12.6382 73.635 12.76 73.6593C12.7356 73.2945 12.76 72.954 12.833 72.5891C12.6382 72.6134 12.4434 72.6378 12.2485 72.6378C12.1755 72.6378 12.1267 72.6378 12.078 72.5891C11.8345 72.4432 11.8588 72.0784 12.0293 71.9081C12.1267 71.8108 12.2485 71.7622 12.3946 71.7865C12.5164 71.8108 12.6382 71.8838 12.7356 71.9811C12.833 72.054 12.9061 72.1027 12.9791 72.1513C13.0522 71.9811 13.1253 71.7865 13.2227 71.6162C13.0035 71.3244 12.7113 71.0812 12.3703 70.9352C12.1267 70.8379 11.8588 70.8136 11.6884 70.6434C11.4935 70.4488 11.4692 70.1083 11.664 69.9137C11.8345 69.7191 12.1755 69.6705 12.3946 69.8164C12.4677 69.865 12.5408 69.938 12.5895 70.011C12.7843 70.2542 12.9304 70.5217 13.1496 70.7406C13.2714 70.8623 13.4419 70.9839 13.6367 71.0325C13.7098 70.9595 13.7585 70.8866 13.8316 70.8136C14.002 70.6434 14.1969 70.4974 14.3917 70.3515C14.3917 70.3515 14.3673 70.3515 14.3673 70.3272C14.2212 70.2056 14.0507 70.1083 13.9046 69.9623C13.8559 69.9137 13.8316 69.8894 13.8072 69.8164C13.7341 69.5732 13.9777 69.3543 14.1969 69.33C14.3186 69.33 14.4404 69.3543 14.5135 69.4516C14.5865 69.5489 14.6109 69.6705 14.6109 69.7921C14.6352 69.9137 14.6596 70.0353 14.7083 70.1326C14.9275 70.011 15.1467 69.938 15.3902 69.865C15.512 69.7191 15.6094 69.5245 15.6338 69.33C15.6581 69.0867 15.5851 68.8435 15.4877 68.6246C15.3902 68.4057 15.2441 68.1868 15.171 67.9679C15.1467 67.895 15.1223 67.822 15.1467 67.7733C15.1954 67.4572 15.6094 67.3355 15.853 67.4572C15.9991 67.5058 16.0965 67.6274 16.1452 67.7733C16.1696 67.9193 16.1209 68.0652 16.0722 68.2111C15.9504 68.5273 15.9504 68.6976 16.0235 69.0138C16.0965 69.257 16.1939 69.5732 16.3644 69.7921C16.6323 69.7921 16.9246 69.8407 17.1925 69.8894C17.1925 69.865 17.2168 69.8164 17.2168 69.7921C17.2412 69.5975 17.2168 69.4029 17.3386 69.2327C17.4604 69.0624 17.7039 68.9895 17.8744 69.0867C18.0449 69.184 18.1423 69.4273 18.0692 69.6218C18.0449 69.6948 17.9962 69.7434 17.9475 69.7921C17.8744 69.8894 17.777 69.9623 17.7039 70.0596C18.0205 70.1812 18.3371 70.3758 18.605 70.5947C18.7755 70.5217 18.946 70.4001 19.0678 70.3028C19.3357 70.0839 19.4087 69.9623 19.5061 69.6462C19.5548 69.5002 19.6036 69.3543 19.701 69.257C19.8227 69.1597 19.9689 69.1354 20.115 69.1597C20.3829 69.2327 20.6508 69.5732 20.4803 69.8407C20.456 69.9137 20.3829 69.938 20.3342 69.9867C20.1394 70.1326 19.8958 70.2056 19.6766 70.3272C19.4574 70.4488 19.2382 70.5947 19.1165 70.7893C19.0678 70.8623 19.0434 70.9352 19.019 71.0325C19.1895 71.2271 19.3113 71.4217 19.4331 71.6406C19.4574 71.6162 19.4818 71.5919 19.5061 71.5676C19.6523 71.4217 19.7984 71.2757 19.9689 71.1541C20.0176 71.1298 20.0663 71.0812 20.115 71.0812C20.3829 71.0325 20.5777 71.3487 20.5534 71.5676C20.529 71.6892 20.4803 71.8108 20.3585 71.8595C20.2368 71.9081 20.115 71.9081 19.9932 71.9081C19.8227 71.9081 19.701 71.9081 19.5792 71.9568C19.701 72.2243 19.774 72.5162 19.8227 72.808C20.1637 72.881 20.5047 72.9053 20.8213 72.808C21.0648 72.7351 21.284 72.6378 21.5276 72.6621C21.7955 72.6864 22.0146 72.9053 22.0146 73.1485C22.0146 73.3674 21.7955 73.5863 21.5276 73.5863C21.4301 73.5863 21.3571 73.562 21.2597 73.562C20.9674 73.489 20.6751 73.3918 20.3585 73.3431C20.1881 73.3188 19.9932 73.3431 19.8471 73.3918C19.8471 73.7809 19.774 74.1701 19.6279 74.5349C19.6523 74.5349 19.6766 74.5349 19.7253 74.5349C19.9445 74.5592 20.1637 74.5349 20.3829 74.5835C20.456 74.5835 20.5047 74.6079 20.5534 74.6565C20.7726 74.8268 20.6995 75.2159 20.4803 75.3618C20.3829 75.4348 20.2368 75.4835 20.0906 75.4348C19.9689 75.3862 19.8715 75.2889 19.774 75.1916C19.6523 75.0457 19.5548 74.9727 19.4331 74.8997C19.2626 75.2402 19.0434 75.5564 18.7511 75.8483C18.6537 75.9456 18.532 76.0429 18.4345 76.1402C18.4589 76.1645 18.4589 76.2131 18.4833 76.2374C18.6294 76.5293 18.7512 76.6509 19.0434 76.7969C19.1652 76.8698 19.3113 76.9428 19.3844 77.0644C19.4574 77.186 19.4574 77.3563 19.3844 77.5022C19.2626 77.7454 18.8729 77.94 18.6294 77.7454C18.5807 77.6968 18.532 77.6238 18.5076 77.5752C18.4102 77.3563 18.3615 77.113 18.2884 76.8698C18.2397 76.6996 18.1666 76.5293 18.0692 76.3834C17.4847 76.7239 16.8515 76.9185 16.1939 76.8941C16.0722 77.2346 16.0235 77.5752 16.0965 77.9157C16.1452 78.1589 16.267 78.4021 16.2183 78.6453C16.1696 78.9129 15.8773 79.1075 15.6094 79.0588C15.3415 79.0345 15.1223 78.7669 15.1467 78.4994C15.1467 78.4021 15.171 78.3291 15.2198 78.2319C15.3172 77.94 15.4877 77.6724 15.5607 77.3563C15.6094 77.186 15.6094 76.9671 15.5607 76.7969C15.2685 76.7482 14.9519 76.6266 14.684 76.505C14.6109 76.7239 14.5378 76.9428 14.4161 77.1374C14.3917 77.2103 14.343 77.259 14.2943 77.3076C14.0264 77.4779 13.6611 77.259 13.5637 76.9914C13.5149 76.8455 13.5149 76.6752 13.6124 76.5779C13.7098 76.4563 13.8559 76.3834 13.9777 76.3347C14.0751 76.3104 14.1482 76.2618 14.1969 76.2374C14.0264 76.1158 13.8803 75.9942 13.7341 75.8483C13.588 75.7024 13.4662 75.5564 13.3445 75.3862C13.1496 75.4348 12.9791 75.4835 12.833 75.5564C12.5408 75.7024 12.3946 75.7996 12.2242 76.0915C12.1511 76.2131 12.0537 76.3591 11.9319 76.4077C11.8101 76.4807 11.6397 76.4563 11.4935 76.3834C11.3474 76.2618 11.1769 75.8726 11.3961 75.6294Z" fill="#002F59"/>
<path d="M17.5094 72.443C17.8017 72.5403 18.0452 72.7592 18.1914 73.0267C18.3375 73.2943 18.3862 73.6105 18.3131 73.878C18.2401 74.1699 18.0452 74.4131 17.826 74.6077C17.7043 74.705 17.5825 74.7779 17.4364 74.8266C17.2902 74.8752 17.1441 74.8995 16.9736 74.8995C17.1198 74.9239 17.2902 74.8995 17.4364 74.8752C17.5825 74.8266 17.7286 74.7536 17.8747 74.6806C18.1426 74.5104 18.3375 74.2185 18.4349 73.9023C18.508 73.5861 18.4592 73.2456 18.2888 72.9781C18.2157 72.8321 18.0939 72.7105 17.9722 72.6376C17.8017 72.516 17.6556 72.4673 17.5094 72.443Z" fill="#174968"/>
<path d="M17.0469 70.8864C16.9982 71.008 16.9007 71.1053 16.8033 71.1539C16.7059 71.2026 16.5841 71.2269 16.4624 71.2026C16.3406 71.1783 16.2432 71.1053 16.1701 71.0323C16.0971 70.935 16.0483 70.8134 16.024 70.6918C15.9753 70.8134 16.024 70.9594 16.097 71.081C16.1701 71.2026 16.2919 71.2999 16.438 71.3242C16.5841 71.3485 16.7303 71.3242 16.852 71.2269C16.9495 71.1296 17.0225 71.008 17.0469 70.8864Z" fill="#174968"/>
<path d="M15.22 74.2429C15.3905 74.3159 15.5366 74.4375 15.6097 74.5834C15.6827 74.7294 15.7315 74.9239 15.6827 75.0699C15.6584 75.2401 15.5366 75.3861 15.4148 75.4834C15.2687 75.5806 15.0982 75.6536 14.9278 75.6536C15.0982 75.7023 15.3174 75.6536 15.4636 75.532C15.634 75.4347 15.7558 75.2645 15.7802 75.0699C15.8289 74.8753 15.7802 74.6807 15.6584 74.5105C15.5853 74.3889 15.4148 74.2672 15.22 74.2429Z" fill="#174968"/>
<path d="M14.4653 73.0754C14.5383 72.9051 14.6601 72.7592 14.8062 72.6862C14.9524 72.6132 15.1472 72.5646 15.2933 72.6132C15.4638 72.6376 15.6099 72.7592 15.7073 72.8808C15.8048 73.0267 15.8778 73.197 15.8778 73.3672C15.9265 73.197 15.8778 72.9781 15.756 72.8321C15.6586 72.6619 15.4881 72.5403 15.2933 72.516C15.0985 72.4673 14.9036 72.516 14.7332 72.6376C14.6114 72.7349 14.4896 72.9051 14.4653 73.0754Z" fill="#174968"/>
<path d="M99.5351 60.1849C99.6082 60.1849 99.6569 60.2092 99.73 60.2336C99.9248 60.3309 100.12 60.4768 100.314 60.5984C100.509 60.72 100.729 60.8173 100.948 60.8173C101.021 60.8173 101.094 60.793 101.167 60.7686C101.24 60.5497 101.337 60.3552 101.459 60.1606C101.435 60.1363 101.386 60.112 101.362 60.112C101.191 60.039 101.021 59.9903 100.899 59.8687C100.777 59.7228 100.777 59.4796 100.923 59.358C101.069 59.212 101.289 59.212 101.435 59.3336C101.484 59.3823 101.532 59.4309 101.557 59.4796C101.63 59.5769 101.678 59.6985 101.751 59.7958C101.971 59.5525 102.214 59.3336 102.482 59.1391C102.336 59.0175 102.19 58.9202 102.068 58.7986C102.019 58.7499 101.995 58.7013 101.971 58.6526C101.898 58.4094 102.165 58.1662 102.385 58.1662C102.506 58.1662 102.628 58.2148 102.701 58.3121C102.774 58.4094 102.774 58.531 102.799 58.6526C102.799 58.7742 102.823 58.8472 102.847 58.9202C103.018 58.8472 103.164 58.7742 103.359 58.7256C103.408 58.3851 103.383 58.0446 103.237 57.7284C103.14 57.5095 102.993 57.3149 102.993 57.096C102.993 56.8528 103.213 56.6096 103.456 56.5852C103.7 56.5609 103.943 56.7555 103.992 56.9987C104.016 57.0717 103.992 57.169 103.992 57.2419C103.968 57.5338 103.87 57.8014 103.87 58.0932C103.87 58.2635 103.919 58.458 103.992 58.604C104.089 58.604 104.162 58.5797 104.26 58.5797C104.479 58.5797 104.723 58.604 104.917 58.6526V58.6283C104.893 58.458 104.844 58.2635 104.844 58.0932C104.844 58.0446 104.844 57.9959 104.869 57.9473C104.966 57.7527 105.283 57.7527 105.429 57.8743C105.502 57.9473 105.551 58.0446 105.551 58.1662C105.551 58.2635 105.478 58.3608 105.405 58.458C105.332 58.5553 105.283 58.6526 105.234 58.7499C105.453 58.8229 105.648 58.9202 105.843 59.0175C106.013 58.9931 106.208 58.9445 106.354 58.8229C106.525 58.6769 106.647 58.458 106.72 58.2635C106.793 58.0689 106.841 57.8257 106.939 57.6311C106.963 57.5825 107.012 57.5095 107.061 57.4852C107.304 57.3149 107.645 57.5095 107.743 57.7284C107.791 57.85 107.791 57.9959 107.718 58.1175C107.645 58.2391 107.499 58.2878 107.377 58.3608C107.109 58.4824 106.988 58.604 106.817 58.8472C106.695 59.0418 106.574 59.3336 106.549 59.5769C106.72 59.7471 106.89 59.966 107.012 60.1849C107.036 60.1606 107.061 60.1606 107.085 60.1363C107.231 60.039 107.353 59.8931 107.523 59.8444C107.718 59.7958 107.913 59.9174 107.962 60.112C108.01 60.2822 107.913 60.5011 107.743 60.5741C107.694 60.5984 107.621 60.5984 107.548 60.6227C107.426 60.6227 107.329 60.6227 107.207 60.6227C107.329 60.9146 107.402 61.2308 107.45 61.5713C107.621 61.6199 107.791 61.6686 107.937 61.6686C108.254 61.6929 108.4 61.6686 108.668 61.5226C108.79 61.4497 108.912 61.401 109.058 61.401C109.204 61.401 109.326 61.4983 109.399 61.6199C109.52 61.8388 109.472 62.228 109.18 62.3253C109.106 62.3496 109.058 62.3253 108.985 62.3253C108.765 62.2766 108.546 62.1793 108.327 62.1307C108.108 62.0577 107.864 62.0091 107.645 62.082C107.572 62.1064 107.499 62.1307 107.426 62.1793C107.402 62.3982 107.353 62.6415 107.304 62.836C107.329 62.836 107.377 62.836 107.402 62.836C107.596 62.836 107.791 62.836 107.962 62.8603C108.01 62.8603 108.059 62.8847 108.108 62.909C108.303 63.0549 108.23 63.3711 108.059 63.517C107.962 63.59 107.84 63.6143 107.743 63.59C107.621 63.5657 107.548 63.4684 107.475 63.3711C107.377 63.2495 107.28 63.1765 107.182 63.1279C107.085 63.3711 106.939 63.6143 106.793 63.8332C106.963 64.1008 107.182 64.344 107.45 64.4899C107.645 64.6115 107.864 64.6845 108.01 64.8548C108.157 65.0493 108.157 65.3412 108.01 65.4871C107.864 65.6331 107.572 65.6331 107.402 65.4628C107.353 65.4142 107.304 65.3412 107.256 65.2682C107.109 65.025 106.988 64.7575 106.817 64.5386C106.72 64.417 106.598 64.2954 106.452 64.2224C106.184 64.4656 105.892 64.6845 105.575 64.8304C105.599 64.8548 105.599 64.8791 105.624 64.9034C105.77 65.0493 105.916 65.1953 106.038 65.3655C106.062 65.4142 106.111 65.4628 106.111 65.5358C106.135 65.8033 105.843 65.9979 105.599 65.9493C105.478 65.9249 105.356 65.852 105.307 65.7547C105.258 65.6331 105.258 65.5115 105.258 65.3898C105.283 65.2196 105.258 65.098 105.234 64.9764C104.893 65.098 104.552 65.1466 104.187 65.1466C104.041 65.1466 103.919 65.1466 103.797 65.1223C103.797 65.1466 103.773 65.1953 103.773 65.2196C103.675 65.5115 103.675 65.6574 103.773 65.9493C103.822 66.0709 103.846 66.2168 103.822 66.3627C103.797 66.4843 103.675 66.606 103.554 66.6546C103.31 66.7519 102.945 66.606 102.92 66.3141C102.92 66.2411 102.945 66.1925 102.969 66.1195C103.042 65.9006 103.188 65.7304 103.286 65.5115C103.359 65.3655 103.432 65.1953 103.456 65.0493C102.847 64.9034 102.312 64.5872 101.898 64.1737C101.605 64.3197 101.337 64.5143 101.167 64.7818C101.045 64.9764 100.948 65.2196 100.753 65.3412C100.534 65.4628 100.241 65.4142 100.095 65.2196C99.9492 65.025 99.9735 64.7088 100.144 64.5386C100.217 64.4899 100.29 64.4413 100.363 64.417C100.631 64.2954 100.899 64.2224 101.143 64.0765C101.289 63.9792 101.41 63.8576 101.508 63.7116C101.337 63.4684 101.216 63.2252 101.118 62.9333C100.923 63.0306 100.729 63.1279 100.534 63.1765C100.461 63.2009 100.412 63.2009 100.339 63.2009C100.047 63.1522 99.9492 62.7631 100.071 62.5198C100.12 62.3982 100.241 62.3009 100.388 62.2766C100.534 62.2523 100.655 62.3009 100.777 62.3496C100.85 62.3739 100.923 62.3982 100.996 62.4226C100.972 62.2523 100.948 62.0577 100.948 61.8631C100.948 61.6686 100.972 61.4983 100.996 61.3037C100.85 61.2064 100.704 61.1335 100.558 61.0848C100.266 60.9875 100.12 60.9632 99.8274 61.0362C99.6813 61.0605 99.5595 61.1092 99.4134 61.0605C99.2916 61.0119 99.1942 60.8903 99.1455 60.7686C99.0724 60.5741 99.2429 60.2092 99.5351 60.1849Z" fill="#94B052"/>
<path d="M105.6 62.0818C105.721 62.3494 105.746 62.6413 105.673 62.9088C105.6 63.1763 105.429 63.4196 105.186 63.5412C104.942 63.6871 104.674 63.7358 104.382 63.6871C104.236 63.6628 104.114 63.6385 103.992 63.5655C103.871 63.5169 103.749 63.4196 103.651 63.3223C103.724 63.4439 103.846 63.5412 103.968 63.6141C104.09 63.6871 104.236 63.7358 104.382 63.7601C104.674 63.8087 104.991 63.7601 105.234 63.6141C105.502 63.4682 105.673 63.2007 105.746 62.9088C105.77 62.7629 105.795 62.6169 105.77 62.471C105.746 62.3251 105.697 62.2035 105.6 62.0818Z" fill="#7B9B30"/>
<path d="M106.306 60.7686C106.184 60.8172 106.062 60.8172 105.965 60.7686C105.867 60.7442 105.77 60.6713 105.697 60.574C105.648 60.4767 105.624 60.3794 105.624 60.2578C105.624 60.1362 105.672 60.0389 105.746 59.9416C105.648 59.9902 105.551 60.1119 105.526 60.2335C105.502 60.3551 105.526 60.501 105.599 60.6226C105.672 60.7442 105.794 60.8172 105.916 60.8172C106.086 60.8658 106.208 60.8415 106.306 60.7686Z" fill="#7B9B30"/>
<path d="M102.921 61.7657C102.994 61.9117 102.994 62.0819 102.945 62.2522C102.896 62.3981 102.799 62.5441 102.677 62.6414C102.555 62.7386 102.385 62.763 102.214 62.7386C102.044 62.7143 101.898 62.6657 101.776 62.5441C101.873 62.69 102.019 62.7873 102.214 62.8116C102.385 62.8359 102.58 62.8116 102.726 62.7143C102.872 62.617 102.969 62.4468 103.018 62.2765C103.067 62.1063 103.018 61.9117 102.921 61.7657Z" fill="#7B9B30"/>
<path d="M103.188 60.5253C103.334 60.4523 103.505 60.4523 103.675 60.501C103.821 60.5496 103.967 60.6469 104.065 60.7685C104.162 60.8901 104.187 61.0604 104.162 61.2306C104.138 61.4009 104.089 61.5468 103.967 61.6684C104.114 61.5711 104.211 61.4252 104.235 61.2306C104.26 61.0604 104.235 60.8658 104.138 60.7199C104.041 60.574 103.87 60.4767 103.7 60.428C103.505 60.3794 103.31 60.428 103.188 60.5253Z" fill="#7B9B30"/>
<path d="M68.873 121.598C45.5228 121.598 26.5937 119.235 26.5937 116.321C26.5937 113.406 45.5228 111.043 68.873 111.043C92.2233 111.043 111.152 113.406 111.152 116.321C111.152 119.235 92.2233 121.598 68.873 121.598Z" fill="#D4DCBD"/>
<path d="M110.787 98.4193C110.251 102.53 108.863 106.81 105.575 109.389C103.797 110.775 101.605 111.553 99.4375 112.161C94.7371 113.45 89.8906 114.01 85.0684 114.593C85.7503 109.072 86.5784 103.503 88.5754 98.2977C89.988 94.6494 91.985 91.147 94.7127 88.3013C97.8058 85.0665 102.19 82.8775 106.622 82.0262C109.033 81.5641 112.686 81.0777 115 81.9532C114.562 83.4126 113.661 84.8476 113.125 86.3069C112.711 87.45 112.102 88.6418 111.81 89.8336C111.152 92.6306 111.152 95.5736 110.787 98.4193Z" fill="#94B052"/>
<path d="M91.5462 100.098V101.314L91.5218 102.53C91.4975 103.332 91.4731 104.135 91.4244 104.938C91.4001 105.473 91.3513 106.008 91.327 106.519C91.668 106.032 91.9846 105.546 92.3255 105.084C92.7639 104.476 93.2023 103.843 93.665 103.259C94.1278 102.651 94.5661 102.043 95.0532 101.46C95.9787 100.268 96.9529 99.1004 97.9027 97.9329C98.0245 97.787 98.1462 97.6654 98.2437 97.5194C98.3167 96.7168 98.4141 95.9142 98.5116 95.1116C98.609 94.2603 98.7307 93.4333 98.8525 92.5821L99.0473 91.3173L99.2665 90.0526C99.4127 89.2256 99.5588 88.3743 99.7536 87.5474C99.7536 88.3987 99.7293 89.2499 99.7049 90.1012L99.6319 91.366L99.5588 92.6307C99.4857 93.482 99.437 94.3333 99.3396 95.1602C99.2909 95.5494 99.2665 95.9628 99.2178 96.352C100.777 94.5765 102.36 92.8253 104.016 91.1471C106.159 88.9824 108.375 86.915 110.811 85.0665C108.619 87.1582 106.549 89.3472 104.503 91.5848L102.993 93.2631L101.507 94.9656L100.022 96.6682L99.778 96.96C100.119 96.8871 100.436 96.8141 100.777 96.7411C101.507 96.5952 102.238 96.4249 102.993 96.3033C103.723 96.1574 104.478 96.0358 105.209 95.9142C105.964 95.7926 106.695 95.671 107.45 95.598C106.743 95.8412 106.013 96.0844 105.306 96.3033C104.576 96.5222 103.87 96.7411 103.139 96.9357C102.408 97.1303 101.678 97.3249 100.971 97.5194C100.289 97.6897 99.6075 97.86 98.9256 98.0302L98.5846 98.4437C97.6104 99.5868 96.6606 100.754 95.7108 101.946C94.761 103.114 93.8355 104.305 92.8857 105.497C92.5447 105.935 92.2281 106.348 91.9115 106.786C92.5447 106.689 93.1779 106.592 93.8355 106.494C94.834 106.348 95.8569 106.202 96.8554 106.081C97.854 105.935 98.8769 105.813 99.8754 105.716C100.874 105.594 101.897 105.497 102.92 105.424C101.921 105.667 100.947 105.886 99.9485 106.105C98.9499 106.324 97.9514 106.519 96.9529 106.713C95.9543 106.908 94.9558 107.102 93.9573 107.273C93.0318 107.443 92.1307 107.589 91.2052 107.759C89.9631 109.413 88.7211 111.115 87.5521 112.842C88.4288 111.14 89.4273 109.486 90.4746 107.881H90.4259L90.4502 107.37C90.4989 106.567 90.572 105.765 90.6207 104.962C90.6938 104.159 90.7668 103.357 90.8399 102.554L90.986 101.338L91.1322 100.146C91.2539 99.3436 91.3513 98.541 91.5218 97.7383C91.5218 98.468 91.5462 99.2706 91.5462 100.098Z" fill="white"/>
<path d="M79.1016 80.5912C80.2949 73.0514 83.9968 65.9007 89.5009 60.5498C90.6943 59.3824 92.4478 58.2392 93.9334 59.0175C94.6397 59.3824 95.0781 60.0877 95.3703 60.8174C96.929 64.49 95.7113 68.6734 94.7371 72.5406C92.8375 80.1048 91.8877 87.9365 91.9607 95.7196C91.9851 98.8815 92.8131 105.084 89.8906 107.321C87.4308 109.218 85.4337 107.491 83.8507 105.546C78.7363 99.222 77.8839 88.35 79.1016 80.5912Z" fill="#94B052"/>
<path d="M87.3093 107.394C87.0414 106.178 86.7491 104.986 86.5056 103.77L86.5543 103.722C87.0414 103.187 87.4797 102.603 87.8694 102.019C88.0642 101.727 88.2591 101.411 88.4296 101.095C88.6 100.779 88.7705 100.462 88.9166 100.146C89.2089 99.4896 89.4524 98.8086 89.6229 98.1276C89.7934 97.4222 89.8665 96.7169 89.8178 96.0115C89.7203 96.7169 89.5742 97.3979 89.355 98.0546C89.1358 98.7113 88.8436 99.3437 88.527 99.976C88.2104 100.584 87.8451 101.192 87.4554 101.776C87.1144 102.262 86.7735 102.749 86.3838 103.211C86.3107 102.797 86.2377 102.408 86.189 101.995C85.8723 100.171 85.7019 98.3221 85.5801 96.498C85.5314 95.9143 85.507 95.3305 85.507 94.7711C85.9454 94.3576 86.3838 93.9198 86.7735 93.4577C87.2362 92.8983 87.6746 92.3389 88.0399 91.7309C88.4296 91.1228 88.7462 90.4904 88.9897 89.8094C89.2333 89.1284 89.4281 88.4474 89.4768 87.742C89.3063 88.423 89.0871 89.1041 88.7705 89.7121C88.4783 90.3445 88.113 90.9525 87.6989 91.512C87.3093 92.0957 86.8709 92.6308 86.4081 93.1415C86.1159 93.482 85.7993 93.7982 85.4827 94.1144C85.4583 93.0686 85.4583 92.0227 85.4827 90.9769C85.5314 89.1284 85.6775 87.3042 85.8723 85.4557C85.8967 85.1882 85.9454 84.9207 85.9698 84.6531C86.5056 84.3126 86.9926 83.9235 87.4797 83.51C88.0155 83.0479 88.5513 82.5371 89.0141 82.002C89.4768 81.4669 89.9152 80.8832 90.2805 80.2508C90.6215 79.6184 90.9381 78.9861 91.1085 78.2807C90.8406 78.9374 90.4997 79.5455 90.0857 80.1292C89.696 80.7129 89.2333 81.248 88.7462 81.7345C88.2591 82.2452 87.7476 82.7074 87.1875 83.1451C86.8222 83.437 86.4325 83.7289 86.0672 83.9964C86.262 82.6587 86.4812 81.321 86.7247 79.9833C87.0657 78.1591 87.5041 76.3836 87.9912 74.5838L88.0155 74.5595C88.527 74.2676 89.0141 73.9757 89.4768 73.6352C89.9395 73.2947 90.3779 72.9299 90.7919 72.5164C91.206 72.1272 91.5713 71.6894 91.9122 71.2273C92.2532 70.7652 92.5455 70.2788 92.7646 69.768C92.1558 70.7166 91.3764 71.5192 90.5484 72.2489C90.1344 72.6137 89.696 72.9542 89.2333 73.2704C88.8923 73.4893 88.5513 73.7325 88.2104 73.9271C88.6487 72.3705 89.1358 70.8382 89.696 69.3059C90.3049 67.5547 91.0111 65.8278 91.7905 64.1496C91.3277 64.9522 90.8894 65.7792 90.4997 66.6304C90.11 67.4817 89.7203 68.3087 89.355 69.1843C88.7462 70.6193 88.2104 72.1029 87.7476 73.5866C87.5772 73.2947 87.4067 73.0028 87.2605 72.6867C87.017 72.1516 86.7978 71.5922 86.6273 71.0328C86.4569 70.4733 86.3351 69.8653 86.2864 69.2816C86.2133 68.6978 86.2133 68.0898 86.2377 67.4817C86.0915 68.0655 86.0428 68.6978 86.0428 69.3059C86.0428 69.6221 86.0672 69.9139 86.0915 70.2301C86.1402 70.5463 86.189 70.8382 86.2377 71.13C86.3838 71.7381 86.5786 72.3218 86.8222 72.8812C87.0414 73.3434 87.2605 73.7811 87.5284 74.2189C87.5041 74.2919 87.4797 74.3649 87.4554 74.4622C86.5056 77.5024 85.8236 80.6157 85.3853 83.7532C85.1417 83.3397 84.9225 82.9263 84.7277 82.4885C84.4111 81.8074 84.1432 81.0778 83.924 80.3481C83.7292 79.6184 83.583 78.8645 83.4856 78.1105C83.3882 77.3565 83.4125 76.5782 83.4613 75.7999C83.2908 76.5539 83.2421 77.3322 83.2421 78.1105C83.2421 78.4996 83.2908 78.8888 83.3151 79.2779C83.3638 79.6671 83.4369 80.0562 83.5343 80.4454C83.7048 81.1994 83.9727 81.9534 84.2893 82.683C84.5816 83.3154 84.8982 83.9235 85.2878 84.5072C85.2391 84.7991 85.2148 85.0909 85.1661 85.3828C84.9712 87.2313 84.8495 89.1041 84.8007 90.9525V92.3389C84.8007 92.5821 84.8007 92.801 84.8007 93.0442L84.8251 93.7496C84.8251 93.8955 84.8251 94.0415 84.8495 94.1631C84.4841 93.7496 84.1432 93.3118 83.8509 92.874C83.4125 92.2416 83.0472 91.5849 82.7306 90.9039C82.414 90.2229 82.1461 89.4932 81.9513 88.7636C81.7321 88.0339 81.6347 87.2556 81.5373 86.5016C81.4885 87.2799 81.5616 88.0582 81.6834 88.8122C81.7564 89.2014 81.8539 89.5662 81.9513 89.9553C82.0731 90.3202 82.1948 90.7093 82.3409 91.0742C82.6332 91.8038 82.9985 92.5092 83.4369 93.1659C83.8753 93.7982 84.3137 94.4063 84.8738 94.9657C84.8738 95.0387 84.8738 95.1116 84.8738 95.1846L84.9956 96.5709C85.1904 98.7843 85.5557 100.949 86.0672 103.114C85.7993 102.919 85.5557 102.7 85.3122 102.506C84.9225 102.165 84.5328 101.825 84.1919 101.46C83.8266 101.095 83.4856 100.73 83.1446 100.341C82.8037 99.9517 82.4871 99.5382 82.1705 99.1248C82.414 99.5869 82.6819 100.025 82.9742 100.462C83.2664 100.9 83.6074 101.289 83.9483 101.703C84.2893 102.092 84.6546 102.481 85.0443 102.822C85.434 103.187 85.8236 103.527 86.262 103.843C86.5543 104.986 86.8952 106.202 87.3093 107.394Z" fill="white"/>
<path d="M31.8297 95.744C31.2695 99.8544 31.4887 104.354 33.9972 107.686C35.3367 109.486 37.2607 110.799 39.2091 111.943C43.3981 114.375 47.9524 116.175 52.458 117.95C53.2373 112.429 53.8949 106.859 53.3347 101.314C52.945 97.4222 51.9222 93.555 50.0225 90.1013C47.8793 86.1854 44.2261 82.9506 40.1589 80.9805C37.967 79.9103 34.533 78.5239 32.0732 78.7672C32.0976 80.2995 32.609 81.9047 32.7552 83.437C32.8526 84.6531 33.1448 85.9665 33.0961 87.1826C32.9744 90.0526 32.2194 92.8983 31.8297 95.744Z" fill="#94B052"/>
<path d="M49.9734 102.262L49.6568 103.43L49.3645 104.597C49.1697 105.375 48.9992 106.178 48.8287 106.956C48.7313 107.467 48.6096 108.002 48.5121 108.513C48.3173 107.954 48.1225 107.419 47.9033 106.859C47.6354 106.154 47.3675 105.448 47.0996 104.743C46.8073 104.038 46.5394 103.332 46.2472 102.651C45.6627 101.265 45.0295 99.8787 44.4206 98.5166C44.3475 98.3464 44.2745 98.2005 44.1771 98.0302C44.3232 97.2276 44.4206 96.4249 44.5424 95.6466C44.6641 94.7954 44.7616 93.9684 44.8833 93.1171L45.0295 91.8524L45.1512 90.5876C45.2243 89.7364 45.2974 88.8851 45.3217 88.0338C45.0782 88.8608 44.9077 89.6877 44.7129 90.5147L44.445 91.7551L44.2014 92.9955C44.0309 93.8225 43.8848 94.6737 43.7387 95.5007C43.6656 95.8899 43.6169 96.3033 43.5438 96.6925C42.521 94.5765 41.425 92.4848 40.256 90.4417C38.746 87.8149 37.163 85.2368 35.2877 82.8532C36.8707 85.4314 38.2833 88.0825 39.6715 90.7579L40.6944 92.7766L41.6929 94.7954L42.6671 96.8141L42.8132 97.1546C42.521 97.0087 42.2043 96.8384 41.9121 96.6925C41.2545 96.352 40.5726 96.0115 39.8907 95.6953C39.2088 95.3548 38.5268 95.0629 37.8449 94.7467C37.163 94.4305 36.4811 94.1387 35.7748 93.8468C36.408 94.2603 37.0412 94.6737 37.6744 95.0629C38.3076 95.4521 38.9652 95.8412 39.5984 96.2304C40.256 96.6195 40.8892 96.9844 41.5468 97.3492C42.1556 97.6897 42.7645 98.0302 43.3734 98.3707L43.5925 98.8571C44.2258 100.219 44.859 101.581 45.4678 102.968C46.0767 104.33 46.6856 105.716 47.2701 107.102C47.4893 107.589 47.6841 108.1 47.8789 108.586C47.2944 108.318 46.7099 108.075 46.1011 107.808C45.1756 107.419 44.2258 107.005 43.3003 106.64C42.3748 106.251 41.425 105.886 40.4752 105.497C39.5254 105.132 38.5755 104.767 37.6257 104.427C38.5268 104.913 39.4279 105.375 40.3291 105.838C41.2302 106.3 42.1313 106.762 43.0568 107.2C43.9579 107.637 44.8833 108.075 45.8088 108.513C46.6612 108.902 47.4893 109.291 48.3417 109.68C49.121 111.602 49.8516 113.548 50.5336 115.518C50.1195 113.645 49.6081 111.797 48.9992 109.972L49.0479 109.997L49.1697 109.486C49.3402 108.708 49.4863 107.905 49.6324 107.102C49.7786 106.3 49.9247 105.521 50.0465 104.719L50.2413 103.527L50.4118 102.335C50.5092 101.533 50.6066 100.73 50.6797 99.9273C50.4118 100.706 50.1926 101.484 49.9734 102.262Z" fill="white"/>
<path d="M53.5785 83.8749C53.6029 86.6962 57.5727 85.4315 60.0081 84.2397C60.4465 83.7532 60.9823 83.3155 61.6399 82.9749C64.0022 81.7832 66.9248 81.8318 69.1897 83.2182C71.1381 84.4099 73.4031 85.8936 74.8156 87.6691C78.1035 91.8282 81.2452 96.1089 84.2652 100.463C85.0201 101.557 85.7508 102.627 86.6032 103.649C88.7707 106.227 91.6445 108.392 92.8136 111.529C93.2763 112.721 93.7634 114.205 93.3981 115.494C93.3494 115.713 93.2519 115.883 93.1789 116.053C93.325 116.029 93.4468 115.98 93.5685 115.883C94.6645 115.104 95.4682 114.205 96.0527 113.232C99.4136 107.565 95.0542 98.9302 91.5958 94.4063C88.9412 90.9283 86.7493 87.4745 84.6305 83.6803C82.8282 80.4698 82.4873 76.3593 80.0518 73.465C78.5419 71.6652 74.9374 70.9112 72.7211 70.4977C69.0436 69.8167 65.1713 70.2058 61.6886 71.5436C59.7402 72.2975 57.3778 73.6596 56.428 75.581C55.3321 77.7943 54.6014 80.4941 53.7977 82.829C53.7003 83.1695 53.5785 83.51 53.5785 83.8749Z" fill="#FFBF5E"/>
<path d="M70.8454 85.3586C72.6233 87.3773 73.9385 90.0041 75.0101 92.1201C75.9355 93.9443 76.5931 96.0117 77.7865 97.6413C78.9311 99.1979 80.5142 100.365 81.6101 101.946C83.5585 104.719 85.3607 107.613 87.5526 110.264C88.5998 111.553 89.4035 113.037 90.4995 114.326C91.3762 115.348 93.836 117.391 94.2744 114.715C94.3475 114.278 94.2744 113.84 94.2014 113.402C93.8117 111.432 93.2028 109.17 92.0095 107.54C91.3519 106.64 90.6213 105.789 89.8663 104.962C89.501 104.573 89.1113 104.184 88.7216 103.795C88.5268 103.6 88.0153 102.919 87.7718 102.846C88.5024 103.065 89.2574 103.308 89.9637 103.624C90.4751 103.843 91.498 104.233 91.8146 104.719C89.574 101.338 85.2633 99.8546 82.7548 96.6684C83.802 96.4251 84.8493 96.1576 85.8965 95.9144C82.633 93.847 80.0271 90.8311 78.3953 87.353C77.5429 85.5288 76.7392 83.8263 76.7149 81.8076C76.6905 80.6401 76.9341 78.3781 75.9355 77.5025C75.0101 76.6999 73.2078 78.0133 72.6233 78.7916C72.258 79.2781 72.0388 79.8131 71.844 80.3726C71.2351 82.0021 70.9429 83.6804 70.8454 85.3586Z" fill="#F0A83B"/>
<path d="M65.7553 81.71C65.7553 81.71 64.0261 80.7372 61.4446 82.3911C61.4446 82.3911 58.9604 81.102 57.5235 82.1235V83.0721L63.466 84.2882L66.7295 82.3181L65.7553 81.71Z" fill="#F0A83B"/>
<path d="M85.9941 95.9144C85.4827 95.8657 84.9713 95.7928 84.4598 95.6955C83.9484 95.5982 83.4613 95.4766 82.9742 95.3063C82 94.9902 81.0502 94.601 80.1491 94.1146C79.248 93.6524 78.3712 93.093 77.5431 92.4607C76.7395 91.8283 75.9845 91.1229 75.4487 90.223C75.6679 90.6851 75.9845 91.1229 76.3011 91.5121C76.642 91.9013 77.0317 92.2661 77.4214 92.6066C78.2251 93.2633 79.1018 93.8227 80.0273 94.3335C80.9528 94.8199 81.927 95.2091 82.9255 95.5009C83.4369 95.6469 83.9484 95.7441 84.4598 95.8171C84.9469 95.8901 85.4827 95.9144 85.9941 95.9144Z" fill="#F0A83B"/>
<path d="M91.6201 104.476C90.9382 103.697 90.0858 103.041 89.209 102.457C88.3323 101.898 87.3824 101.411 86.4083 100.998C85.4341 100.609 84.4356 100.244 83.437 100C82.4141 99.7329 81.3913 99.5383 80.344 99.4897C80.8555 99.5627 81.3669 99.6599 81.8783 99.7816C82.1219 99.8302 82.3898 99.9032 82.6333 99.9761L83.3883 100.195C84.3868 100.487 85.361 100.827 86.3352 101.241C87.285 101.63 88.2348 102.092 89.1116 102.627C89.55 102.895 89.9884 103.187 90.4024 103.479C90.5972 103.649 90.8164 103.795 91.0113 103.965C91.2304 104.135 91.4253 104.305 91.6201 104.476Z" fill="#F0A83B"/>
<path d="M60.3975 76.2377C60.227 76.4566 60.0809 76.6999 59.9347 76.9188C59.7886 77.162 59.6425 77.3809 59.4964 77.6241C59.2041 78.0862 58.9606 78.597 58.717 79.0834C58.4735 79.5699 58.2543 80.0806 58.0351 80.5914C57.9377 80.8589 57.8403 81.1021 57.7428 81.3697C57.6454 81.6372 57.5724 81.8805 57.4993 82.148C57.6211 81.9048 57.7428 81.6616 57.8646 81.4183L58.2299 80.6643L58.9362 79.1807L59.6668 77.6971C59.9104 77.2106 60.1783 76.7242 60.3975 76.2377Z" fill="#F0A83B"/>
<path d="M53.8697 118.461C51.4586 118.509 49.0232 118.461 46.6121 118.412C45.37 118.388 44.1279 118.363 42.8858 118.315C41.7899 118.266 40.6939 118.388 39.6223 118.144C39.3301 118.071 39.0378 117.974 38.8187 117.804C38.5995 117.609 38.429 117.317 38.4777 117.026C38.5507 116.564 39.0866 116.32 39.5493 116.199C41.108 115.761 42.7154 115.542 44.2497 115.031C45.7353 114.52 47.1479 113.839 48.6335 113.353C49.8025 112.988 50.7767 113.231 51.9457 113.207C53.1634 113.183 54.5029 113.11 55.6719 112.794C55.745 112.769 55.8424 112.745 55.9155 112.794C55.9886 112.842 56.0129 112.94 56.0129 113.037C56.1103 114.326 55.7207 115.834 55.5502 117.123C55.5015 117.463 55.4284 117.828 55.2092 118.096C54.8683 118.412 54.3325 118.436 53.8697 118.461Z" fill="#FFC5AB"/>
<path d="M47.7082 113.597C47.7082 113.621 47.7082 113.645 47.7082 113.645C47.7813 113.961 48.0979 114.18 48.4145 114.326C49.2913 114.715 50.4116 114.74 51.3614 114.813C52.2138 114.886 53.0662 114.886 53.943 114.813C54.5275 114.764 55.3555 114.861 55.7939 114.375C55.8913 114.253 55.9644 114.132 56.0131 113.986C56.0618 113.864 56.0862 113.743 56.1349 113.597C56.3297 112.794 56.3297 111.918 56.4271 111.091C56.5976 109.778 56.7437 108.489 56.8899 107.176C57.1821 104.768 57.45 102.36 57.6936 99.9519C57.7179 99.7817 57.7423 99.6114 57.7423 99.4169C57.8397 98.5413 57.9128 97.69 57.8884 96.8144C57.8641 96.4009 58.0589 94.8686 57.8641 94.6011C58.7408 95.7199 59.0818 97.5684 59.5445 98.9061C59.715 99.3682 59.8855 99.8303 60.0316 100.292C61.0788 103.308 62.5158 106.276 64.2206 108.975C65.3652 110.775 66.4125 112.77 67.9711 114.253C70.4309 116.564 73.2074 117.926 76.4465 118.826C79.9779 119.823 83.8503 119.142 87.406 118.607C87.747 118.558 88.1366 118.485 88.3315 118.194C88.4776 117.999 88.502 117.731 88.502 117.488C88.4532 116.126 87.3329 115.275 86.6997 114.205C85.9447 112.891 85.3359 111.554 84.4591 110.313C82.7543 107.93 80.7085 105.838 78.8332 103.6C77.9808 102.579 77.2502 101.484 76.4952 100.414C73.4753 96.0604 70.3335 91.804 67.0457 87.6206C65.6575 85.8451 63.3682 84.3372 61.4198 83.1697C60.129 82.3914 58.6434 82.0266 57.1578 82.0995C56.0131 82.1482 54.8928 82.4157 53.8699 82.9508C51.264 84.2885 50.7038 86.9639 50.2898 89.6637C49.8758 92.3635 49.5835 95.0632 49.4131 97.7873C49.34 98.9304 49.2913 100.098 49.2669 101.241C49.1939 104.427 49.4374 107.638 48.8042 110.8C48.6581 111.481 48.1953 112.235 47.8787 112.843C47.8057 113.11 47.6595 113.353 47.7082 113.597Z" fill="#002F59"/>
<path d="M61.6148 118.461C59.2037 118.509 56.7683 118.461 54.3572 118.412C53.1151 118.388 51.8731 118.363 50.631 118.315C49.535 118.266 48.4391 118.388 47.3675 118.145C47.0752 118.072 46.783 117.974 46.5638 117.804C46.3446 117.609 46.1741 117.318 46.2228 117.026C46.2959 116.564 46.8317 116.32 47.2944 116.199C48.8531 115.761 50.4605 115.542 51.9948 115.031C53.4805 114.521 54.893 113.839 56.3786 113.353C57.5476 112.988 58.5218 113.231 59.6908 113.207C60.9086 113.183 62.2481 113.11 63.4171 112.794C63.4901 112.769 63.5875 112.745 63.6606 112.794C63.7337 112.842 63.758 112.94 63.758 113.037C63.8554 114.326 63.4658 115.834 63.2953 117.123C63.2466 117.463 63.1735 117.828 62.9543 118.096C62.6377 118.412 62.1019 118.436 61.6148 118.461Z" fill="#FFC5AB"/>
<path d="M47.3922 118.12C47.1486 118.047 46.8807 117.95 46.6859 117.804C46.4911 117.658 46.3206 117.415 46.3206 117.172C46.2962 116.928 46.4424 116.709 46.6615 116.563C46.8564 116.418 47.1243 116.345 47.3678 116.272C48.3907 116.004 49.4379 115.809 50.4608 115.566C51.5081 115.323 52.5066 114.983 53.4808 114.545L54.9421 113.912C55.4291 113.693 55.9162 113.499 56.4033 113.329C55.8919 113.475 55.3804 113.645 54.8933 113.815L53.4077 114.374C52.9206 114.569 52.4092 114.764 51.9221 114.91C51.4107 115.08 50.9236 115.201 50.3878 115.323C49.3649 115.566 48.3176 115.761 47.2948 116.077C47.0269 116.15 46.7833 116.247 46.5641 116.418C46.3449 116.588 46.1745 116.855 46.1988 117.147C46.2475 117.439 46.418 117.682 46.6615 117.828C46.8564 117.998 47.1243 118.071 47.3922 118.12Z" fill="#FFDACA"/>
<path d="M55.4534 113.597C55.5021 113.962 55.8431 114.181 56.184 114.327C57.0608 114.716 58.1811 114.74 59.1309 114.813C59.9833 114.886 60.8601 114.886 61.7125 114.813C62.297 114.765 63.125 114.862 63.5634 114.375C63.7582 114.157 63.8313 113.889 63.9044 113.597C64.0992 112.819 64.0992 111.919 64.1966 111.092C64.3671 109.779 64.5132 108.489 64.6594 107.176C64.9516 104.598 65.2682 102.02 65.5361 99.4173C65.6335 98.5417 65.7066 97.6904 65.6822 96.8148C65.6579 96.4014 65.8527 94.8691 65.6579 94.6015C66.5347 95.7203 66.8756 97.5688 67.3384 98.8822C67.8985 100.415 68.4343 101.947 68.8727 103.503C69.579 106.057 70.821 108.562 71.99 110.922C72.5502 112.065 73.2565 112.94 74.2063 113.792C75.6189 115.081 77.1532 116.2 78.8093 117.197C79.6617 117.708 80.5385 118.17 81.4883 118.462C84.289 119.313 87.4551 119.021 90.1585 117.999C91.4005 117.537 92.6426 117.172 93.2271 116.054C93.3245 115.883 93.3976 115.689 93.4463 115.494C93.8116 114.205 93.3245 112.721 92.8618 111.53C91.6684 108.392 88.7946 106.227 86.6514 103.649C85.799 102.628 85.0684 101.533 84.3134 100.463C81.2934 96.1095 78.1517 91.8531 74.8639 87.6697C73.4757 85.8942 71.1864 84.3862 69.238 83.2188C66.973 81.8567 64.0505 81.7838 61.6881 82.9755C61.0062 83.3161 60.4948 83.7539 60.0564 84.2403C58.8143 85.6753 58.4246 87.6697 58.108 89.6641C57.4992 93.507 57.1582 97.3742 57.0851 101.241C57.0121 104.428 57.2556 107.638 56.6224 110.8C56.5006 111.505 56.0135 112.235 55.6969 112.843C55.5508 113.111 55.429 113.354 55.4534 113.597Z" fill="#002F59"/>
<path d="M56.5982 110.824C56.9148 109.316 57.0366 107.759 57.0853 106.227C57.134 104.694 57.1097 103.138 57.134 101.606C57.2071 98.5166 57.4263 95.452 57.8159 92.3875C57.9134 91.6335 58.0108 90.8552 58.1325 90.1012C58.2543 89.3472 58.3761 88.5689 58.5222 87.8392C58.6927 87.0852 58.9119 86.3556 59.2285 85.6746C59.5451 84.9935 59.9835 84.3612 60.568 83.8504C61.1281 83.3396 61.8101 82.9748 62.5163 82.7073C63.2226 82.4397 64.002 82.2938 64.7569 82.2208C66.2913 82.0992 67.85 82.464 69.1895 83.218C67.8743 82.4154 66.2913 82.0019 64.7569 82.0992C63.9776 82.1479 63.1983 82.2938 62.4676 82.5613C61.737 82.8289 61.0307 83.1937 60.4462 83.7045C60.3001 83.8261 60.154 83.972 60.0322 84.1179C59.9104 84.2639 59.7886 84.4098 59.6669 84.5801C59.4477 84.8963 59.2285 85.2368 59.058 85.6016C58.717 86.3069 58.4979 87.0609 58.3274 87.8149C58.1569 88.5689 58.0351 89.3472 57.9134 90.1012C57.7916 90.8552 57.6942 91.6335 57.5967 92.3875C57.2314 95.452 57.0122 98.541 56.9879 101.63C56.9879 103.186 57.0122 104.719 57.0122 106.251C56.9635 107.759 56.8905 109.316 56.5982 110.824Z" fill="#00426B"/>
<path d="M72.3311 110.824C71.6248 109.535 71.0159 108.197 70.4314 106.859C69.8713 105.497 69.3111 104.159 68.7997 102.797C68.3126 101.435 67.9716 100 67.4602 98.614C67.241 97.933 67.0461 97.2276 66.8026 96.5223C66.559 95.817 66.2911 95.1116 65.8041 94.4792L65.4631 94.7468C65.4631 94.7225 65.4631 94.7711 65.4875 94.7954C65.4875 94.8198 65.5118 94.8684 65.5118 94.9171C65.5118 95.0143 65.5362 95.1116 65.5362 95.1846C65.5362 95.3792 65.5362 95.5737 65.5118 95.7683C65.4875 96.1575 65.4387 96.571 65.4631 96.9844C65.4875 97.7627 65.4144 98.5654 65.317 99.368L64.8299 104.159L64.3428 108.951L64.0992 111.359L63.9775 112.551L63.9288 113.159C63.9044 113.353 63.8801 113.548 63.7826 113.742C63.8801 113.572 63.9288 113.378 63.9775 113.159L64.0749 112.551L64.2454 111.359L64.5863 108.975C64.8055 107.394 65.0004 105.789 65.2196 104.208C65.4144 102.603 65.6092 101.022 65.8041 99.4166C65.9015 98.614 65.9745 97.8114 65.9745 96.9844C65.9502 96.5953 65.9989 96.2061 66.0232 95.7926C66.0232 95.5981 66.0476 95.3792 66.0476 95.1846C66.0476 95.0873 66.0476 94.9657 66.0232 94.8684C66.0232 94.8198 65.9989 94.7468 65.9989 94.6981C65.9745 94.6252 65.9745 94.5765 65.9015 94.4792L65.5605 94.7468C65.9745 95.2819 66.2424 95.9629 66.486 96.6439C66.7052 97.3249 66.9 98.0303 67.1192 98.7599C67.6306 100.146 67.9716 101.557 68.483 102.943C68.7266 103.649 69.0432 104.305 69.3111 104.986C69.6034 105.667 69.8956 106.324 70.2366 107.005C70.748 108.343 71.4786 109.632 72.3311 110.824Z" fill="#00426B"/>
<path d="M67.7044 97.1547C67.7775 97.4465 67.5826 97.8114 67.266 97.8114C67.5583 98.2978 67.2417 99.0275 66.6571 99.1491C66.6571 99.5139 66.6571 99.9031 66.438 100.171C66.3893 100.244 66.3162 100.292 66.2675 100.365C66.1944 100.511 66.2188 100.681 66.1701 100.827C66.0726 101.119 65.7073 101.289 65.4151 101.168C65.6343 101.362 65.4638 101.752 65.1959 101.825C64.928 101.922 64.6357 101.8 64.3678 101.703C63.5154 101.362 62.6874 100.998 61.835 100.657C61.4209 100.487 60.9582 100.268 60.7634 99.8544C60.3737 99.0275 61.0313 97.4465 61.2748 96.5953C61.5427 95.671 62.0298 94.309 63.1501 94.1631C64.0999 94.0171 64.928 94.917 65.7073 95.3062C66.5597 95.744 67.4852 96.1818 67.7044 97.1547Z" fill="#FFC5AB"/>
<path d="M45.9799 93.0687C46.0042 92.8012 46.0286 92.5579 46.0773 92.2904C46.2721 91.0743 46.7349 89.9312 47.2219 88.788C47.5873 87.8881 47.8795 87.0125 48.4397 86.2342C49.0242 85.4072 49.6087 84.556 50.1445 83.7047C51.0456 82.221 51.7519 80.4942 52.7748 79.1078C53.822 77.6971 55.0397 76.4081 56.3061 75.192C56.9637 74.5596 60.6412 70.814 61.1283 73.1489C61.4449 74.6812 59.253 76.0432 58.9121 77.4053C58.7903 77.916 57.8648 82.1238 57.2316 82.1481C56.087 82.1967 54.9667 82.4643 53.9438 82.9994C51.9467 84.0209 51.143 85.845 50.7046 87.8395C51.0212 87.8151 51.3378 87.8151 51.6544 87.8638C52.653 88.034 53.5297 88.5448 54.3822 89.0799C56.0139 90.1257 57.3047 91.2202 59.0826 92.0715C59.4479 92.2417 63.101 93.9686 63.6125 94.1875C63.6612 94.2118 63.6612 94.2118 63.6855 94.2118C63.1254 95.2577 62.6383 96.3279 62.1999 97.4224C61.8833 98.225 61.6154 99.0763 61.0309 99.733C60.9578 99.8059 60.9091 99.8789 60.8361 99.9275C60.5925 100.171 60.349 100.292 60.1054 100.341C59.7401 100.414 59.3505 100.341 58.839 100.219C58.4737 100.146 58.1084 100.073 57.7431 99.9762C56.4279 99.6843 55.0884 99.4168 53.7733 99.1249C52.5799 98.8817 51.4109 98.6141 50.2663 98.1763C49.9984 98.0791 49.7305 97.9574 49.4869 97.8358C47.3194 96.79 45.8094 95.5496 45.9799 93.0687Z" fill="#FFBF5E"/>
<path d="M47.9776 85.4073C47.8558 85.5289 47.7828 85.6749 47.7828 85.8451C47.7828 85.8938 47.7828 85.9911 47.8071 86.0397C47.8315 86.0883 47.9045 86.1613 47.8558 86.2099C47.8315 86.2343 47.7341 86.2343 47.7097 86.2586C47.5636 86.3316 47.4905 86.4532 47.4175 86.5991C47.3687 86.7207 47.2957 86.8423 47.2713 86.9639C47.247 87.0612 47.2713 87.2072 47.32 87.2801C47.3687 87.3531 47.4905 87.4261 47.3931 87.499C47.2957 87.5963 47.2226 87.572 47.1496 87.7179C47.1008 87.8882 47.0278 88.0584 47.0278 88.2287C47.0278 88.4476 47.1008 88.5449 47.2226 88.7151C47.1739 88.7151 47.1252 88.7151 47.0765 88.7638C46.7842 88.9583 46.8817 89.4448 46.9791 89.7123C47.1252 90.1015 47.4174 90.4177 47.7341 90.6852C48.4647 91.2933 49.926 91.7554 50.8027 91.9986C51.2411 92.1202 51.7282 92.2418 52.1422 92.0473C52.9703 91.6581 53.4817 90.0042 53.8227 89.2016C54.2124 88.3017 54.6994 86.9639 53.9201 86.137C53.847 86.064 53.7253 85.9424 53.6035 85.8938C53.4087 85.8451 53.2382 85.8451 53.0677 85.7965C52.8729 85.7235 52.6537 85.6749 52.4588 85.5776C51.9474 85.3587 51.4847 85.0911 50.9489 84.9209C50.6322 84.8236 50.1452 84.6533 49.8529 84.8479C49.7555 84.8966 49.6824 84.9938 49.6094 85.0668C49.4145 85.2127 49.1953 85.2857 48.9518 85.2371C48.7082 85.2127 48.4403 85.0911 48.1968 85.2127C48.1481 85.2371 48.1237 85.2614 48.075 85.31C48.0263 85.3344 48.002 85.383 47.9776 85.4073Z" fill="#FFC5AB"/>
<path d="M76.9833 82.5129C76.618 83.3885 76.2526 84.2641 75.8873 85.1397C75.1323 86.9882 74.4017 88.8366 73.6467 90.6851C72.8187 92.7525 71.8932 94.9415 70.0666 96.2549C69.2386 96.8629 68.2644 97.2278 67.2658 97.471C65.3418 97.9331 63.2961 97.8601 61.4208 97.2764C60.2761 96.9116 59.1802 96.3765 58.0842 95.8414C56.5499 95.0631 54.9912 94.3091 53.4569 93.5308C52.6045 93.1173 52.1174 92.8498 52.0687 91.8039C52.0443 90.9527 52.3609 90.1014 52.6288 89.2988C52.9941 88.1799 53.3107 87.0368 53.5299 85.8937C53.5299 85.918 58.0599 86.9882 58.4739 87.0854C59.3263 87.28 60.1544 87.4746 61.0068 87.6449C61.5669 87.7665 62.5898 88.2286 63.0525 87.7665C63.223 87.5962 63.3204 87.3773 63.4178 87.1341C64.4164 85.164 65.2688 83.0723 65.9994 80.9806C66.4378 79.7158 66.8518 78.4511 67.5825 77.2836C67.9234 76.7242 68.1183 76.0432 68.3862 75.4108C68.6297 74.8758 68.8732 74.3407 69.1898 73.8299C69.5065 73.3435 69.8961 72.93 70.2614 72.4679C70.3345 72.3949 70.3832 72.2976 70.4806 72.2246C70.6024 72.1274 70.7242 72.0544 70.8703 72.0057C71.3574 71.7868 71.8688 71.5923 72.3803 71.422C72.9891 71.2274 73.5006 71.1058 74.1338 71.2761C74.8157 71.4463 75.3759 71.6652 75.8386 72.2246C76.3257 72.784 76.618 73.5137 76.8615 74.1947C77.2025 75.0947 77.5434 76.0189 77.6652 76.9918C77.7383 77.5025 77.7626 78.0133 77.9087 78.5241C77.9575 78.6943 78.0305 78.8889 78.0549 79.0592C78.1279 79.5456 77.8357 80.178 77.6896 80.6401C77.4704 81.2725 77.2268 81.8805 76.9833 82.5129Z" fill="#FFBF5E"/>
<path d="M67.2656 97.4468C66.5593 97.5927 65.8531 97.6657 65.1468 97.6657C64.4405 97.69 63.7342 97.6413 63.028 97.5197C62.3217 97.3981 61.6397 97.2279 60.9822 96.9846C60.3246 96.7414 59.667 96.4496 59.0338 96.1334L55.1858 94.2606L53.2618 93.3363C52.9452 93.1904 52.6286 93.0201 52.4094 92.7526C52.1902 92.485 52.1172 92.1202 52.0685 91.7554C52.0685 92.0959 52.1172 92.485 52.3364 92.7769C52.5555 93.0688 52.8965 93.2633 53.1888 93.4336L55.0884 94.4065C56.3548 95.0632 57.6213 95.6956 58.9121 96.3279C59.5453 96.6441 60.2028 96.936 60.8848 97.1549C61.5667 97.3981 62.273 97.5684 62.9792 97.6657C64.4405 97.9089 65.9018 97.8359 67.2656 97.4468Z" fill="#F0A83B"/>
<path d="M62.9788 87.9612C63.1737 88.4234 63.4903 88.8125 63.8312 89.153C64.1966 89.4935 64.6106 89.7611 65.049 89.98C65.4873 90.1989 65.9501 90.3691 66.4372 90.4907C66.9243 90.6123 67.4113 90.7096 67.8984 90.7583C67.387 90.8069 66.8755 90.7826 66.3885 90.6853C65.9014 90.588 65.3899 90.4178 64.9515 90.1989C64.5862 90.0043 64.2453 89.7854 63.9287 89.5179C64.0261 89.6881 64.0991 89.834 64.1722 90.0043C64.3914 90.5394 64.5619 91.0988 64.5619 91.6825C64.367 91.1474 64.1722 90.6123 63.953 90.1016C63.7825 89.6881 63.5877 89.299 63.3929 88.9098C63.198 88.5936 63.0519 88.2774 62.9788 87.9612Z" fill="#F0A83B"/>
<path d="M74.8398 87.6693C75.2295 87.1829 75.5218 86.5991 75.7653 86.0154C76.0088 85.4317 76.228 84.8479 76.3985 84.2399C76.4959 83.948 76.569 83.6318 76.6664 83.34C76.7395 83.0238 76.8125 82.7319 76.8856 82.4157L77.0804 81.4915C77.1291 81.1753 77.1779 80.8591 77.2266 80.5673C77.0561 81.1753 76.8856 81.7834 76.7151 82.3914C76.5446 82.9995 76.3742 83.6075 76.1793 84.1912C76.0088 84.7993 75.814 85.383 75.5948 85.9668C75.4974 86.2586 75.3756 86.5505 75.2539 86.8423C75.1321 87.1099 74.986 87.4018 74.8398 87.6693Z" fill="#F0A83B"/>
<path d="M74.791 71.1302C74.1334 71.1059 73.4759 71.1545 72.8183 71.2762C72.1607 71.4221 71.5275 71.641 70.943 71.9815C70.3585 72.322 69.8958 72.8571 69.5305 73.4165C69.1651 73.9759 68.8729 74.584 68.5806 75.1677C67.9961 76.3595 67.436 77.5512 66.9245 78.7674C66.681 79.3754 66.4374 79.9835 66.2183 80.6158C65.9991 81.2482 65.7068 81.8319 65.512 82.4643C65.7555 81.8563 66.0721 81.2725 66.34 80.6645C66.5836 80.0564 66.8515 79.4484 67.1194 78.8403C67.6552 77.6485 68.2153 76.4324 68.8242 75.265C69.1164 74.6812 69.4087 74.0732 69.7496 73.5381C70.0906 72.9787 70.529 72.4923 71.0648 72.1518C71.6249 71.8112 72.2338 71.568 72.867 71.4221C73.4759 71.2275 74.1334 71.1545 74.791 71.1302Z" fill="#F0A83B"/>
<path d="M61.9315 80.2265C61.8341 80.4941 61.761 80.7859 61.6879 81.0535C61.6636 81.1021 61.6636 81.1508 61.6149 81.1994C61.5418 81.2481 61.4444 81.2237 61.3957 81.1751C61.347 81.1265 61.3226 81.0292 61.2983 80.9562C60.8112 78.9618 60.6164 77.0647 60.8843 75.0216C61.1765 72.784 61.8341 70.6193 62.4916 68.4546C62.7352 67.6763 62.9544 66.9223 63.3684 66.217C63.4902 65.9981 63.6607 65.7792 63.8799 65.6333C64.2939 65.3657 64.854 65.463 65.2681 65.7062C68.3854 67.5304 64.9758 72.9056 63.9773 75.0459C63.7094 75.6297 63.4415 76.2134 63.2223 76.8214C62.8326 77.9646 62.3212 79.0591 61.9315 80.2265Z" fill="#002F59"/>
<path d="M69.2861 62.7875C69.2861 63.2496 69.4322 63.6874 69.4079 64.1252C69.3835 64.8305 69.4079 65.5359 69.481 66.2169C69.6027 67.433 69.8706 68.6005 70.3334 69.7436C70.5525 70.303 70.9422 70.6922 71.5267 70.8624C71.892 70.23 72.1112 69.5247 71.892 68.941C71.6728 68.3329 69.6514 63.1037 69.2861 62.7875Z" fill="#FFC5AB"/>
<path d="M56.3301 65.5359C56.3057 65.5116 56.3057 65.4629 56.2814 65.4386C56.3057 65.4629 56.3057 65.5116 56.3301 65.5359Z" fill="#FFC5AB"/>
<path d="M55.0878 64.6603C55.4287 65.0495 55.8184 65.4143 56.3299 65.5359C56.3055 65.5116 56.3055 65.4629 56.2811 65.4386C56.2324 65.3413 56.2081 65.244 56.1594 65.1468V65.1224C55.6966 63.9793 55.3313 62.7389 55.0391 61.5714C54.8442 60.8417 54.6981 60.1121 54.5763 59.3581C54.5276 59.1149 54.4789 57.8744 54.7225 57.8258C54.7955 57.8015 54.8686 57.8744 54.9904 58.069C55.4287 58.7744 56.0863 59.3338 56.8657 59.65C58.5705 60.331 60.324 60.0878 62.0775 59.9662C63.3683 59.8932 64.7078 59.8932 65.9012 60.3796C66.1447 60.4769 66.8023 61.2309 66.8997 60.6715C67.0215 60.0391 67.2894 59.1635 68.0687 59.0662C68.5071 59.0176 68.9698 59.2122 69.2377 59.5527C69.53 59.8932 69.6761 60.331 69.7004 60.7688C69.7492 61.2066 69.7735 61.9849 69.4813 62.3497C69.4326 62.4227 69.3595 62.4713 69.3108 62.5686C69.2864 62.6173 69.2864 62.6659 69.2864 62.7389C69.2864 62.7632 69.2864 62.7632 69.2864 62.7875V62.8118C69.2864 63.274 69.4326 63.7118 69.4082 64.1496C69.3838 64.8549 69.4082 65.5602 69.4813 66.2413C69.603 67.4574 69.8709 68.6248 70.3337 69.768C70.5529 70.3274 70.9425 70.7165 71.527 70.8868C71.6001 70.9111 71.6732 70.9354 71.7462 70.9354C72.4038 71.057 73.0857 70.8625 73.7676 70.8868C74.5226 70.9111 75.2046 71.1543 75.8865 71.4462C77.226 72.0056 78.4924 72.8325 79.5153 73.8541C80.1972 74.5594 80.7574 75.362 81.147 76.262C81.9264 78.1104 81.8533 80.1292 82.0969 82.0749C82.3161 83.7288 83.1441 85.7476 83.9965 87.1826C84.6541 88.2771 85.5552 90.0283 87.0652 90.0283C87.1382 90.0283 87.2113 90.0283 87.2844 89.9796C87.3574 89.9067 87.3574 89.7851 87.3331 89.6878C87.0652 87.4745 86.7973 85.2611 86.505 83.0478C86.432 82.4641 86.3589 81.9047 86.2128 81.3453C86.0666 80.7615 86.0666 79.8616 85.7744 79.3022C86.2858 80.2021 86.8703 80.9804 87.3574 81.929C87.1626 81.2723 87.0165 80.494 86.8216 79.9589C86.4807 79.0104 86.1397 77.9402 85.5795 77.0889C85.0437 76.2863 84.5567 75.4837 84.0452 74.681C83.5581 73.927 83.1685 73.0514 82.5596 72.4191C83.2172 73.1001 83.8747 73.7811 84.5323 74.4621C84.922 74.8756 85.4091 75.3134 85.9692 75.2891C86.0179 75.2891 86.0423 75.2161 86.0179 75.1675L84.0696 72.5407C83.3633 71.5921 82.8275 70.449 82.0482 69.5734C81.147 68.5762 80.2946 67.5546 79.4666 66.5088C77.8592 64.4414 76.3492 62.2524 74.8149 60.1364C72.8178 57.3637 70.6259 54.591 67.7034 52.7182C64.5617 50.6994 60.7137 50.9183 57.4015 52.4263C56.5734 52.7911 55.721 53.2289 54.966 53.7397C53.6996 54.591 52.6767 55.6611 52.3601 57.0961C51.7512 59.6256 53.4317 62.7875 55.0878 64.6603Z" fill="#002F59"/>
<path d="M81.293 72.8327C81.1468 72.3219 80.9277 71.8111 80.6598 71.3247C80.3919 70.8626 80.0752 70.4005 79.7099 69.987C78.9793 69.1844 78.1269 68.479 77.2988 67.7737C76.8848 67.4332 76.4708 67.0927 76.0568 66.7278C75.6671 66.363 75.2774 65.9739 74.9365 65.5604C74.5955 65.1469 74.2789 64.7091 74.0353 64.2227C73.7674 63.7605 73.597 63.2498 73.4265 62.739C73.6213 63.8092 74.0841 64.8307 74.766 65.682C75.4479 66.5576 76.276 67.2629 77.104 67.9683C77.9564 68.6493 78.7845 69.3303 79.5394 70.1086C79.9048 70.4978 80.2457 70.9112 80.538 71.3733C80.8546 71.8598 81.0981 72.3462 81.293 72.8327Z" fill="#00426B"/>
<path d="M59.3988 53.2291C60.4703 52.9372 61.5663 52.9129 62.6135 53.1318C63.6608 53.3507 64.6593 53.8128 65.5117 54.4938C64.8054 53.6668 63.7582 53.1074 62.6622 52.8642C61.5907 52.6453 60.3973 52.7426 59.3988 53.2291Z" fill="#00426B"/>
<path d="M57.7671 54.8344C58.035 55.1506 58.4003 55.3938 58.7656 55.5884C59.1553 55.783 59.545 55.9046 59.959 56.0019C60.373 56.0992 60.787 56.1478 61.2254 56.1965C61.6395 56.2208 62.0778 56.2451 62.4919 56.2694C63.3199 56.3181 64.1236 56.5126 64.8786 56.8288C65.2683 56.9748 65.6336 57.145 66.0232 57.3396C66.3886 57.5099 66.7782 57.7288 67.1436 57.899C66.4616 57.4369 65.731 56.9748 64.976 56.6343C64.221 56.2694 63.3686 56.0505 62.5162 56.0019C61.6638 55.9532 60.8358 55.9532 60.0321 55.8073C59.2284 55.6614 58.4247 55.3938 57.7671 54.8344Z" fill="#00426B"/>
<path d="M61.542 58.6043C60.6652 58.6286 59.8372 58.5557 59.0091 58.3611C58.1811 58.1665 57.4017 57.826 56.6468 57.4125C57.28 57.9963 58.0837 58.4097 58.9361 58.6286C59.8128 58.8232 60.7139 58.8232 61.542 58.6043Z" fill="#00426B"/>
<path d="M82.8518 76.2622C83.071 76.627 83.2415 77.0162 83.3876 77.4053C83.5337 77.7945 83.6555 78.208 83.7042 78.6215C83.8503 79.4484 83.826 80.2754 83.8747 81.1266C83.899 81.5401 83.9234 81.9779 84.0208 82.3914C84.0939 82.8049 84.2156 83.2183 84.3374 83.6318C84.4835 84.0453 84.6297 84.4344 84.8001 84.8236C84.9706 85.2127 85.1411 85.6019 85.3359 85.9667C85.068 85.1641 84.7758 84.3615 84.5322 83.5588C84.3131 82.7562 84.1669 81.9293 84.1426 81.1023C84.0939 80.2754 84.0939 79.3998 83.9234 78.5728C83.826 78.1593 83.7042 77.7459 83.5094 77.3567C83.3145 76.9675 83.0953 76.6027 82.8518 76.2622Z" fill="#00426B"/>
<path d="M69.4085 64.1252C69.3841 64.8305 69.4085 65.5359 69.4815 66.2169C69.6033 67.4087 69.8712 68.6004 70.3339 69.7436C70.5775 70.376 71.0402 70.7651 71.7465 70.911C72.4041 71.0327 73.086 70.8381 73.7679 70.8624C74.5229 70.8867 75.2048 71.1299 75.8868 71.4218C77.2506 71.9812 78.4196 72.8082 79.4912 73.8054C78.7119 71.4948 76.9096 69.9868 74.7177 68.868C74.1819 68.6004 73.5487 68.3572 73.1347 67.8951C72.7207 67.433 72.3067 66.9222 71.9413 66.4358C71.1376 65.3899 70.4314 64.2468 70.1148 62.9577C70.066 62.7631 70.0173 62.5442 69.8469 62.4226C69.0919 61.9119 69.4085 63.9306 69.4085 64.1252Z" fill="#002C4C"/>
<path d="M54.5522 59.3337C54.674 60.0877 54.8445 60.8174 55.015 61.5471C55.3072 62.7388 55.6725 63.9549 56.1353 65.0981V65.1224C56.184 65.2197 56.2327 65.317 56.257 65.4143C56.2814 65.4386 56.2814 65.4872 56.3058 65.5116C56.3058 65.5359 56.3058 65.5359 56.3058 65.5602C56.3058 65.6088 56.2814 65.6332 56.257 65.6818C56.2327 65.8034 56.2814 65.925 56.3058 66.0466C56.3788 66.2899 56.4762 66.5088 56.5493 66.752C56.7198 67.1898 56.9146 67.6276 57.1582 68.0411C57.4748 68.5761 57.8644 69.0869 58.2785 69.549C58.6925 70.0111 59.1065 70.303 59.6423 70.6435C60.4217 71.13 61.4933 71.4218 62.4187 71.4705C62.7597 71.4948 63.1006 71.4705 63.4416 71.3732C63.4416 71.3732 63.4416 71.3732 63.466 71.3732C63.7095 71.3002 63.9287 71.2029 64.1235 71.0813C64.1966 71.3975 64.1966 72.419 64.1966 72.492C64.2697 73.0757 64.294 73.7811 64.7811 74.2189C65.0246 74.4378 65.3413 74.5594 65.6579 74.6323C65.8283 74.681 65.9745 74.7053 66.145 74.7053C66.7051 74.681 67.1922 74.4134 67.6549 74.1459C68.1907 73.8297 68.7265 73.4892 69.2136 73.1244C69.8468 72.6379 70.5044 72.1272 71.0402 71.5191C71.2107 71.3245 71.3812 71.0813 71.5029 70.8381C70.9184 70.6678 70.5288 70.303 70.3096 69.7193C69.8468 68.5761 69.5789 67.3844 69.4572 66.1926C69.3841 65.5116 69.3597 64.8062 69.3841 64.1009C69.4084 63.6388 69.2623 63.201 69.2623 62.7632C69.238 62.7388 69.238 62.7388 69.238 62.7388C69.238 62.7388 69.2623 62.7388 69.2623 62.7145C69.2623 62.6902 69.2623 62.6659 69.2623 62.6659C69.2623 62.6172 69.2623 62.5443 69.2867 62.4956C69.311 62.4227 69.3841 62.3497 69.4572 62.2767C69.7494 61.9119 69.7251 61.1336 69.6763 60.6958C69.6276 60.258 69.4815 59.8202 69.2136 59.4797C68.9214 59.1392 68.483 58.9446 68.0446 58.9932C67.2896 59.0905 66.9974 59.9418 66.8756 60.5985C66.7782 61.1579 66.145 60.4282 65.8771 60.3066C64.6837 59.8202 63.3442 59.8202 62.0534 59.8932C60.2999 59.9904 58.5464 60.2337 56.8416 59.577C56.0622 59.2608 55.4046 58.7014 54.9663 57.996C54.8445 57.8015 54.7471 57.7528 54.6984 57.7528C54.4548 57.8501 54.5035 59.1148 54.5522 59.3337Z" fill="#FFC5AB"/>
<path d="M64.2207 72.5651C68.4096 68.5033 67.7764 65.4144 67.7764 65.4144C67.7764 65.4144 65.9011 69.8896 64.0989 71.0085L64.2207 72.5651Z" fill="#F4B69D"/>
<path d="M56.3061 65.5847C56.3061 65.5603 56.3305 65.536 56.3548 65.5117C56.3792 65.4874 56.4035 65.4874 56.4279 65.4874C56.8175 65.3658 57.2803 65.2441 57.6212 65.0009C57.9378 64.8063 58.2057 64.5388 58.5467 64.3929C58.839 64.3199 59.1069 64.3685 59.3991 64.3929C60.2272 64.4415 61.0065 64.3929 61.8102 64.2226C62.5165 64.0767 63.2228 63.8091 63.9047 63.5659C64.4405 63.3713 65.0006 63.1524 65.4877 62.8606C65.9261 62.6174 66.2427 62.3012 66.5837 61.9607C66.6324 61.5958 66.6811 61.2553 66.7541 60.8905C66.8029 60.6959 66.8516 60.5013 66.9003 60.3311C66.9246 60.2338 66.9733 60.1365 66.9977 60.0635C67.0464 59.9662 67.0708 59.869 67.1438 59.8203C67.0464 59.9906 67.0464 60.1851 66.9977 60.3797C66.9733 60.5743 66.949 60.7689 66.9246 60.9635L66.8029 62.1066V62.1309C66.9003 62.5201 66.949 62.9579 67.022 63.347C67.0464 63.4929 67.0707 63.6389 67.1195 63.7848C67.3143 64.8793 67.363 65.9981 66.9977 67.0683C66.608 68.1628 66.0235 69.0627 65.3416 69.9869C65.2929 70.0356 65.2685 70.0842 65.2198 70.1329C65.1711 70.2058 65.1224 70.2545 65.0737 70.3031C64.8545 70.5464 64.6353 70.7896 64.3674 70.9598C64.0995 71.1544 63.7829 71.3003 63.4419 71.3976C63.4419 71.3976 63.4419 71.3976 63.4176 71.3976C63.0766 71.4706 62.7357 71.5192 62.3947 71.4949C61.4936 71.4463 60.3976 71.1787 59.6183 70.668C59.0825 70.3275 58.6685 70.0356 58.2545 69.5735C57.8404 69.1114 57.4508 68.6006 57.1342 68.0655C56.8906 67.652 56.6714 67.2142 56.5253 66.7764C56.4766 66.4359 56.2087 65.9495 56.3061 65.5847Z" fill="#F6F6F6"/>
<path d="M68.6777 63.3956C68.9213 63.0065 69.1648 62.6417 69.4814 62.3011C69.2623 62.6903 69.0674 63.0795 68.8726 63.4929L68.2881 64.6847C67.8984 65.4873 67.5087 66.2656 67.046 67.0439C67.3139 66.1927 67.6549 65.3657 68.0445 64.5631C68.2394 64.1739 68.4586 63.7848 68.6777 63.3956Z" fill="#F6F6F6"/>
<path d="M61.9316 68.187C61.8829 68.6005 61.542 68.6491 61.201 68.7221C60.787 68.7951 60.373 69.0869 59.9346 68.941C59.4231 68.7708 59.2527 67.9924 59.5449 67.6033C59.8615 67.1898 60.4217 67.1898 60.9088 67.1412C61.1523 67.1169 61.3958 67.0439 61.6394 67.2871C61.8099 67.4574 61.9316 67.7736 61.9316 68.0411C61.9316 68.1141 61.9316 68.1384 61.9316 68.187Z" fill="#EAEAEA"/>
<path d="M61.4203 62.2767C60.9819 62.3983 60.5436 62.3497 60.1539 62.1794C60.0808 62.1551 60.0565 62.0335 60.1052 61.9605C60.1539 61.8876 60.2513 61.8633 60.3244 61.9119C60.641 62.0578 61.0063 62.0822 61.3473 61.9849C61.4447 61.9605 61.5177 62.0092 61.5421 62.1065C61.5665 62.1551 61.4934 62.2524 61.4203 62.2767Z" fill="#002F59"/>
<path d="M56.1111 63.7359C56.5008 63.6386 56.8174 63.3954 57.0123 63.0792C57.061 63.0063 56.9879 62.909 56.9392 62.8847C56.8661 62.836 56.7687 62.8847 56.7444 62.9333C56.5739 63.1765 56.3303 63.3711 56.0137 63.4441C55.9407 63.4684 55.892 63.5414 55.9163 63.6143C55.9407 63.7116 56.0381 63.7603 56.1111 63.7359Z" fill="#002F59"/>
<path d="M60.2516 63.2498C60.3246 63.4687 60.5682 63.5903 60.7874 63.5416C61.0066 63.4687 61.1527 63.2498 61.0796 63.0066C61.0066 62.7877 60.763 62.666 60.5438 62.7147C60.3246 62.7633 60.2029 63.0309 60.2516 63.2498Z" fill="#002F59"/>
<path d="M56.6715 64.2955C56.7446 64.5144 56.9881 64.636 57.2073 64.5874C57.4265 64.5144 57.5726 64.2955 57.4995 64.0523C57.4265 63.8334 57.1829 63.7118 56.9638 63.7604C56.7446 63.8334 56.5984 64.0766 56.6715 64.2955Z" fill="#002F59"/>
<path d="M58.6199 63.3956C58.7174 64.0523 58.6443 64.709 58.6199 65.3657C58.6199 65.536 58.6199 65.7062 58.6199 65.8765C58.6443 66.0467 58.6443 66.217 58.7417 66.4116C58.7904 66.5089 58.8878 66.5818 58.9853 66.6061C59.0827 66.6305 59.1801 66.6305 59.2775 66.6061C59.448 66.5575 59.5941 66.4602 59.7402 66.3629C59.5698 66.4116 59.4236 66.4602 59.2531 66.4602C59.0827 66.4845 58.9609 66.4116 58.9365 66.3143C58.8878 66.1927 58.8878 66.0224 58.8878 65.8765C58.8878 65.7062 58.8878 65.5603 58.9122 65.39C58.9122 65.0495 58.9365 64.709 58.9122 64.3928C58.8391 64.028 58.7661 63.6875 58.6199 63.3956Z" fill="#002F59"/>
<path d="M18.933 88.7023C19.1867 87.594 18.4922 86.4903 17.3819 86.2372C16.2716 85.984 15.166 86.6772 14.9124 87.7855C14.6587 88.8938 15.3532 89.9975 16.4635 90.2506C17.5737 90.5038 18.6794 89.8106 18.933 88.7023Z" fill="#2A393F"/>
<path d="M54.4128 24.863C55.578 24.3902 56.1386 23.064 55.6649 21.901C55.1912 20.7379 53.8627 20.1784 52.6976 20.6512C51.5324 21.124 50.9719 22.4501 51.4455 23.6132C51.9192 24.7762 53.2477 25.3358 54.4128 24.863Z" fill="#FBE698"/>
<path d="M55.0306 8.88114C55.9229 8.88114 56.6462 8.15911 56.6462 7.26844C56.6462 6.37778 55.9229 5.65576 55.0306 5.65576C54.1384 5.65576 53.415 6.37778 53.415 7.26844C53.415 8.15911 54.1384 8.88114 55.0306 8.88114Z" fill="#94B052"/>
<path d="M101.091 45.7504C102.917 44.9527 103.75 42.8283 102.951 41.0055C102.151 39.1826 100.023 38.3516 98.1971 39.1493C96.371 39.947 95.5385 42.0714 96.3376 43.8942C97.1367 45.7171 99.2649 46.5481 101.091 45.7504Z" fill="#FBE698"/>
</g>
<path d="M6.99357 50.0547C7.2472 48.9464 6.55274 47.8428 5.44247 47.5896C4.33219 47.3364 3.22653 48.0296 2.9729 49.1379C2.71928 50.2462 3.41373 51.3499 4.52401 51.6031C5.63429 51.8562 6.73995 51.163 6.99357 50.0547Z" fill="#2A393F"/>
<defs>
<clipPath id="clip0">
<rect width="108.402" height="121.598" fill="white" transform="matrix(-1 0 0 1 115 0)"/>
</clipPath>
</defs>
</svg>
