<svg width="151" height="101" viewBox="0 0 151 101" fill="none" xmlns="http://www.w3.org/2000/svg">
<path d="M81.5 101C119.884 101 151 97.1944 151 92.5C151 87.8056 119.884 84 81.5 84C43.1162 84 12 87.8056 12 92.5C12 97.1944 43.1162 101 81.5 101Z" fill="#D4DCBD"/>
<path d="M29.9912 20.2634C29.9912 20.2634 22.2733 24.2781 18.6377 32.9608C20.9106 36.1547 24.1776 34.7141 24.1776 34.7141L30.5497 27.5892L29.9912 20.2634Z" fill="#0E6A41"/>
<path d="M43.8619 25.3223C44.4091 29.0187 47.9665 37.2659 50.6974 38.7065L53.8136 34.5633C53.8136 34.5633 50.9431 25.8471 49.9044 22.6142C49.4688 21.2182 48.2123 20.3862 46.9781 20.3081C45.1463 20.1964 43.3257 21.7208 43.8619 25.3223Z" fill="#0E6A41"/>
<path d="M66.0216 32.3466C66.0216 32.3466 55.8688 32.4694 52.0712 33.0836C50.4349 33.346 50.5578 37.4054 50.6918 38.7009C52.9983 39.5998 61.3026 38.5836 66.4516 36.0932C66.4348 35.1105 66.0216 32.3466 66.0216 32.3466Z" fill="#0E6A41"/>
<path d="M71.0931 33.7034C71.1713 31.4141 70.462 32.3131 69.7975 32.3187C67.9266 32.3354 70.261 31.0847 70.1828 30.2862C70.1102 29.5826 67.3514 30.5989 66.0781 32.9273L66.3462 35.6633C67.9825 36.9923 70.8027 36.9476 71.0931 33.7034Z" fill="#F1C4A1"/>
<path d="M73.8186 22.1339L77.5491 24.5517C78.0182 24.8532 78.1522 25.4841 77.8451 25.9532L74.9913 29.7501C74.6898 30.2192 74.0587 30.3532 73.5896 30.0461L72.7407 29.4542L67.0165 38.6841C66.8155 39.0024 66.3966 39.1029 66.0783 38.9019C66.0225 38.8684 65.9778 38.8293 65.9387 38.7846C65.7321 38.5668 65.693 38.2262 65.8605 37.9582L71.6238 28.6613L70.5069 27.8796C70.0378 27.578 69.9038 26.9471 70.2109 26.478L72.4224 22.4354C72.724 21.9664 73.3495 21.8324 73.8186 22.1339Z" fill="#062440"/>
<path d="M73.9191 29.1247C74.1146 29.2699 74.3938 29.2308 74.539 29.0354L77.0633 25.6516C77.2085 25.4562 77.1694 25.177 76.9739 25.0319C76.7784 24.8867 76.4992 24.9258 76.354 25.1212L73.8298 28.5049C73.6846 28.7004 73.7237 28.9796 73.9191 29.1247Z" fill="#C9D6FF"/>
<path d="M72.6295 28.276C72.8361 28.41 73.1098 28.3542 73.2438 28.1532L75.5726 24.6354C75.7066 24.4288 75.6508 24.1552 75.4497 24.0212C75.2431 23.8872 74.9695 23.9431 74.8354 24.1441L72.5066 27.6618C72.3726 27.8628 72.4285 28.142 72.6295 28.276Z" fill="#C9D6FF"/>
<path d="M71.2264 27.3436C71.4386 27.4664 71.7067 27.3994 71.8351 27.1872L73.974 23.5466C74.0969 23.3344 74.0298 23.0664 73.8176 22.938C73.6054 22.8151 73.3374 22.8822 73.2089 23.0943L71.07 26.7349C70.9472 26.9471 71.0142 27.2207 71.2264 27.3436Z" fill="#C9D6FF"/>
<path d="M69.8087 35.9257C69.792 35.8531 69.7975 35.8085 69.7529 35.7526C69.7529 35.7526 69.7808 35.7303 69.7975 35.7582C70.4398 35.6968 70.9312 35.2445 70.853 34.7867C70.8363 34.7141 70.8195 34.6415 70.8028 34.5689C71.1713 34.3902 71.4171 34.0552 71.3724 33.7425C71.3612 33.6252 71.2998 33.4968 71.216 33.3963C71.6069 33.24 71.8527 32.9049 71.8136 32.5029C71.7633 32.0227 71.2663 31.6988 70.719 31.7658C70.1661 31.8384 69.7752 32.2516 69.8087 32.7039C69.8199 32.8212 69.859 32.9217 69.9483 33.0222C69.3954 33.1394 69.0045 33.5526 69.038 33.9603C69.0548 34.0329 69.0715 34.1054 69.0883 34.178C68.7197 34.3567 68.474 34.6917 68.5187 35.0044C68.5298 35.1217 68.5913 35.2501 68.6583 35.3227C68.3176 35.4344 68.0719 35.7694 68.1166 36.0821C68.1501 36.4897 68.5801 36.741 69.0325 36.7075C69.4848 36.6795 69.8255 36.3054 69.8087 35.9257Z" fill="#F1C4A1"/>
<path d="M38.7473 14.3391H38.7529L41.1375 14.3502L41.6792 19.9898L38.8925 21.4639L35.9215 20.0065L35.8936 13.6913L38.7473 14.3391Z" fill="#F1C4A1"/>
<path d="M35.0831 9.6543C35.0663 13.7807 37.6743 17.1365 40.9134 17.1533C44.1525 17.17 46.794 13.8365 46.8163 9.71014C46.8331 5.58376 44.2251 2.22793 40.986 2.21118C37.7469 2.19443 35.1054 5.52792 35.0831 9.6543Z" fill="#F1C4A1"/>
<path d="M42.8401 10.8101C43.3204 11.6532 43.9291 12.6806 43.9291 12.6806C43.9291 12.6806 43.5941 13.5349 42.4492 13.5014C42.9407 13.3227 43.4321 13.0156 43.2646 12.3623C43.0915 11.709 42.8401 10.8101 42.8401 10.8101Z" fill="#E1AC82"/>
<path d="M34.2174 6.2147C34.4017 2.30608 38.1266 1.52994 38.1266 1.52994C38.1266 1.52994 37.3727 1.13908 37.7246 0C38.2383 0.424364 38.9029 0.675633 39.5675 0.703551C44.0407 0.871064 46.7213 1.98223 46.04 3.65177C45.7999 4.24364 48.6201 4.95278 46.7828 8.86139C46.5761 8.3421 46.5817 6.49947 45.7775 5.98018C44.9734 5.4609 45.2861 6.94617 43.3706 6.4548C41.4327 5.96343 40.2655 4.96953 38.7242 5.55024C37.4788 6.09744 35.4014 10.5979 35.4237 10.9274C35.3734 10.1736 34.1392 7.92891 34.2174 6.2147Z" fill="#201D40"/>
<path d="M46.5477 11.9212C46.5477 11.9212 45.8664 14.071 45.308 14.5959C45.3359 13.6354 43.1747 13.9426 42.2588 13.8979C40.6002 13.8141 39.1426 12.139 38.2937 14.2106C36.1939 14.0431 36.0655 9.35272 36.0655 9.35272C34.1555 13.7583 35.9873 17.4156 40.9743 18.5771C44.2581 19.342 46.6874 15.3497 46.5477 11.9212Z" fill="#201D40"/>
<path d="M40.5118 10.2461C40.199 10.2238 39.9645 9.95579 39.9868 9.6431C40.0092 9.33041 40.2772 9.0959 40.5955 9.11823C40.9083 9.14057 41.1428 9.40859 41.1205 9.72128C41.0982 10.0284 40.8245 10.2629 40.5118 10.2461Z" fill="black"/>
<path d="M45.1797 10.7096C44.867 10.6873 44.6325 10.4192 44.6548 10.1065C44.6771 9.79386 44.9452 9.55934 45.2579 9.58167C45.5707 9.60401 45.8052 9.87203 45.7829 10.1847C45.7605 10.4974 45.4925 10.7319 45.1797 10.7096Z" fill="black"/>
<path d="M46.2739 9.6654C46.179 9.65982 46.0896 9.60398 46.0394 9.50906C45.9109 9.25779 45.749 9.09587 45.5479 9.04003C45.2072 8.93952 44.8442 9.14612 44.8442 9.14612C44.7102 9.22429 44.5371 9.17962 44.4589 9.04561C44.3807 8.9116 44.4198 8.73851 44.5538 8.66033C44.5762 8.64917 45.1235 8.32531 45.6987 8.49282C46.0561 8.59333 46.3353 8.85018 46.5364 9.25221C46.609 9.3918 46.5476 9.55931 46.4135 9.6319C46.3744 9.65982 46.3242 9.67099 46.2739 9.6654Z" fill="#201D40"/>
<path d="M39.366 9.17412C39.3046 9.16854 39.2432 9.1462 39.1929 9.10153C39.0812 8.99544 39.0701 8.81676 39.1762 8.70509C39.5783 8.26955 40.0027 8.0462 40.4439 8.0462C41.0079 8.04062 41.3765 8.41473 41.3877 8.43148C41.4938 8.54316 41.4882 8.72184 41.3765 8.82793C41.2648 8.93402 41.0861 8.92844 40.98 8.82234C40.9744 8.81676 40.7566 8.60458 40.4383 8.61016C40.1646 8.61575 39.8798 8.77767 39.5894 9.09036C39.5336 9.1462 39.4498 9.1797 39.366 9.17412Z" fill="#201D40"/>
<path d="M36.0101 9.3639C36.6133 10.1233 36.6021 11.1395 35.9822 11.6309C35.3623 12.1278 34.3682 11.9157 33.7651 11.1563C33.162 10.3969 33.1731 9.38065 33.793 8.88928C34.4073 8.39233 35.4014 8.60451 36.0101 9.3639Z" fill="#F1C4A1"/>
<path d="M35.1104 11.2344C35.1439 11.2289 35.1718 11.2121 35.1997 11.1898C35.5795 10.8771 35.7079 10.4583 35.546 10.0619C35.384 9.65982 34.9596 9.3918 34.5463 9.42531C34.429 9.43647 34.3453 9.53698 34.3508 9.65424C34.362 9.7715 34.4625 9.85526 34.5798 9.84967C34.8088 9.83292 35.0601 9.99485 35.1495 10.2238C35.2388 10.4415 35.1606 10.6705 34.9261 10.8603C34.8367 10.9329 34.8255 11.0669 34.8981 11.1563C34.9484 11.2289 35.0322 11.2568 35.1104 11.2344Z" fill="#E1AC82"/>
<path d="M40.349 14.2776C40.3434 14.1268 40.3993 13.9984 40.5389 14.0375C40.9019 14.138 41.505 14.2832 42.0914 14.3725C42.6778 14.4563 43.2977 14.4842 43.6719 14.4954C43.8226 14.5009 43.8338 14.6405 43.7835 14.7801C43.5769 15.3552 42.8118 15.9304 41.9183 15.7964C41.0247 15.6679 40.3602 14.8304 40.349 14.2776Z" fill="white"/>
<path d="M43.1031 88.1169C45.2141 91.0317 50.4022 89.2449 50.229 93.1814C42.3436 93.1311 39.0654 93.1814 39.0654 93.1814C39.0766 92.2768 39.233 90.1271 39.4117 89.2895L43.1031 88.1169Z" fill="black"/>
<path d="M31.3092 88.1895C33.4201 91.1042 38.6082 89.3174 38.4351 93.254C30.5496 93.2037 27.2715 93.254 27.2715 93.254C27.2827 92.3494 27.439 90.1997 27.6177 89.3621L31.3092 88.1895Z" fill="black"/>
<path d="M46.7552 43.6481C46.7552 43.6481 48.0341 62.3145 47.5147 66.4688C46.9954 70.6175 45.1525 75.9388 45.3591 89.6692C42.7902 90.3114 39.0652 89.6692 39.0652 89.6692C39.0652 89.6692 38.5124 74.1464 41.2321 67.2114C40.1263 60.4775 36.5801 45.0496 36.5801 45.0496L46.7552 43.6481Z" fill="#1B2C40"/>
<path d="M41.8918 44.1618C41.8918 44.1618 39.3061 65.1176 38.044 69.0932C36.7763 73.0688 35.6762 75.9779 33.3865 89.5018C30.7449 89.6358 26.9307 89.552 26.9307 89.552C26.9307 89.552 27.2769 72.7952 31.3872 68.8978C31.5268 62.0689 30.7226 44.2958 30.7226 44.2958L41.8918 44.1618Z" fill="#142334"/>
<path d="M29.9898 20.2633C29.9898 20.2633 34.4408 18.9177 35.9877 19.3811C40.6397 21.6202 41.6784 19.5207 41.6784 19.5207C43.1639 19.6491 46.9726 20.308 46.9726 20.308C47.9611 25.2105 47.989 30.409 47.8996 34.2004C47.8382 37.5003 47.922 46.5572 47.922 46.5572C47.922 46.5572 44.1747 47.0429 39.4948 47.0764C34.8149 47.0485 30.364 46.412 30.364 46.412C30.364 46.412 29.638 37.4445 29.8446 34.0608C29.772 30.2694 29.9898 25.2608 29.9898 20.2633Z" fill="#3F964F"/>
<path d="M30.1692 43.6648L32.9168 44.9211L33.5981 42.1572C33.5981 42.1572 31.8111 41.8166 29.9905 41.1298C29.9347 42.0176 29.9905 43.0003 30.1692 43.6648Z" fill="white"/>
<path d="M33.9563 65.8155C33.9563 65.8155 45.6672 65.4023 49.8947 65.4023C49.6825 59.2546 49.0291 52.5206 48.6214 46.1719C48.0406 37.0369 48.0295 30.4983 45.5722 20.0791C45.1534 19.8781 44.4609 19.8501 44.338 19.8836L45.0305 28.2928L36.5531 28.1587L35.0006 19.2918C34.3193 19.1857 33.7608 19.409 33.7608 19.409C33.7608 19.409 35.3412 29.1973 32.9175 44.9323C32.8896 45.111 33.9563 65.8155 33.9563 65.8155Z" fill="white"/>
<path d="M26.3389 43.0673C27.6848 44.9826 29.3601 44.4186 29.8292 44.1952C30.3374 43.944 31.0802 43.8267 31.4264 44.145C31.7839 44.4744 32.0128 44.8765 32.3702 44.6754C32.8728 44.3907 32.0966 43.1064 30.9908 43.246C30.9908 43.246 31.8565 43.1176 32.2195 43.5029C32.616 43.9216 32.9119 44.2343 33.2303 44.1282C33.4034 44.0668 33.5207 43.8435 33.4201 43.6145C33.6547 43.7485 34.1517 43.8156 34.1294 43.4805C34.068 42.4252 33.113 41.2247 31.5716 41.18C33.2917 40.5881 33.705 42.1404 34.269 42.0678C34.6041 42.0232 34.5594 41.61 34.4421 41.3587C34.068 40.5491 33.247 40.0298 32.3535 39.9851C31.4599 39.9404 30.1922 40.4206 29.8292 41.2414C29.8292 41.2414 28.8631 41.8054 28.3326 41.247L26.3389 43.0673Z" fill="#F1C4A1"/>
<path d="M28.7341 41.2079L24.3111 34.446C24.3111 34.446 22.915 31.6206 18.6428 32.9607C18.3468 35.2166 18.9722 38.6171 26.2825 43.8937C26.813 42.643 28.7341 41.2079 28.7341 41.2079Z" fill="#0E6A41"/>
<path opacity="0.7" d="M60.3761 55.1394C60.3761 55.1394 62.6658 49.4496 59.8846 46.9648C57.0756 44.4521 55.1545 45.2841 52.8033 42.6653C50.0501 39.5943 61.0406 36.3445 58.2539 32.3633C56.4892 29.8451 51.625 30.4425 51.625 30.4425C51.625 30.4425 57.5838 26.5953 61.9007 31.0679C64.76 34.0273 59.3653 38.2654 66.1505 38.9522C73.606 39.7115 77.2527 35.373 87.8021 42.0232C95.2128 46.6912 95.7434 55.1394 95.7434 55.1394H60.3761Z" fill="white"/>
<path d="M62.531 93.1368H61.4531L67.7023 64.4587H68.7801L62.531 93.1368Z" fill="#062440"/>
<path d="M94.0509 93.1368L87.8018 64.4587H88.874L95.1232 93.1368H94.0509Z" fill="#062440"/>
<path d="M95.7705 55.8653C95.7705 62.8003 87.8404 68.4231 78.0562 68.4231C68.2719 68.4231 60.3418 62.8003 60.3418 55.8653C60.3418 55.6196 60.353 55.3795 60.3697 55.1394C60.3865 54.9105 60.4144 54.6815 60.4535 54.4526C61.442 52.448 68.9477 50.8846 78.0562 50.8846C87.1647 50.8846 94.6704 52.448 95.6588 54.4526C95.6979 54.6815 95.7203 54.9049 95.7426 55.1394C95.7594 55.3795 95.7705 55.6252 95.7705 55.8653Z" fill="#94B052"/>
<path d="M95.7698 54.91C95.7698 54.9882 95.7586 55.0663 95.7419 55.1445C95.2113 57.2552 87.499 58.9303 78.061 58.9303C68.6231 58.9303 60.9051 57.2552 60.3746 55.1445C60.3523 55.0663 60.3467 54.9882 60.3467 54.91C60.3467 54.7592 60.3858 54.6085 60.4584 54.4577C61.4468 52.4532 68.9525 50.8897 78.061 50.8897C87.1695 50.8897 94.6752 52.4532 95.6637 54.4577C95.7307 54.6029 95.7698 54.7537 95.7698 54.91Z" fill="#062440"/>
<path d="M80.4414 93.1368L78.3584 64.4587H79.4586L81.5416 93.1368H80.4414Z" fill="#062440"/>
<path d="M89.6604 71.7678H66.7803V72.7896H89.6604V71.7678Z" fill="#062440"/>
<path d="M74.1128 53.3973C74.1128 54.1846 71.8231 54.8268 68.9973 54.8268C66.1715 54.8268 63.8818 54.1846 63.8818 53.3973C63.8818 53.1572 63.8818 52.5151 63.8818 52.5151C63.8818 52.5151 67.0371 51.9679 68.9973 51.9679C71.1139 51.9679 74.1128 52.5151 74.1128 52.5151C74.1128 52.5151 74.1128 53.2019 74.1128 53.3973Z" fill="#E1AC82"/>
<path d="M74.1138 52.5151C74.1138 53.3024 71.8241 53.9445 68.9983 53.9445C66.1725 53.9445 63.8828 53.3024 63.8828 52.5151C63.8828 51.7278 66.1725 51.0856 68.9983 51.0856C71.8241 51.0856 74.1138 51.7278 74.1138 52.5151Z" fill="#F1C4A1"/>
<path d="M71.0701 53.0902L68.2275 52.0126C68.127 51.9735 68.0767 51.8674 68.1158 51.7669L68.1326 51.7278C68.1716 51.6273 68.2778 51.577 68.3783 51.6161L71.2208 52.6938C71.3214 52.7329 71.3716 52.839 71.3325 52.9395L71.3158 52.9786C71.2767 53.0791 71.165 53.1293 71.0701 53.0902Z" fill="#E1AC82"/>
<path d="M73.0076 52.9283L70.165 51.8506C70.0645 51.8115 70.0142 51.7055 70.0533 51.6049L70.0701 51.5659C70.1092 51.4654 70.2153 51.4151 70.3158 51.4542L73.1584 52.5318C73.2589 52.5709 73.3092 52.677 73.2701 52.7775L73.2533 52.8166C73.2142 52.9171 73.1081 52.9674 73.0076 52.9283Z" fill="#E1AC82"/>
<path d="M69.2986 53.2521L66.456 52.1745C66.3555 52.1354 66.3052 52.0293 66.3443 51.9288L66.3611 51.8897C66.4002 51.7892 66.5063 51.739 66.6068 51.778L69.4494 52.8557C69.5499 52.8948 69.6002 53.0009 69.5611 53.1014L69.5443 53.1405C69.5052 53.241 69.3991 53.2912 69.2986 53.2521Z" fill="#E1AC82"/>
<path d="M67.4956 53.4867L64.6474 52.409C64.5469 52.37 64.4966 52.2639 64.5357 52.1634L64.5525 52.1243C64.5916 52.0238 64.6977 51.9735 64.7982 52.0126L67.6463 53.0903C67.7469 53.1294 67.7971 53.241 67.758 53.336L67.7413 53.375C67.7078 53.4755 67.5961 53.5258 67.4956 53.4867Z" fill="#E1AC82"/>
<path d="M91.4634 53.5146C91.4634 54.3019 89.1737 54.944 86.3479 54.944C83.5221 54.944 81.2324 54.3019 81.2324 53.5146C81.2324 53.2745 81.2324 52.6324 81.2324 52.6324C81.2324 52.6324 84.3877 52.0851 86.3479 52.0851C88.4645 52.0851 91.4634 52.6324 91.4634 52.6324C91.4634 52.6324 91.4634 53.3191 91.4634 53.5146Z" fill="#E1AC82"/>
<path d="M91.4644 52.6323C91.4644 53.4196 89.1747 54.0618 86.3489 54.0618C83.5231 54.0618 81.2334 53.4196 81.2334 52.6323C81.2334 51.845 83.5231 51.2029 86.3489 51.2029C89.1747 51.2029 91.4644 51.845 91.4644 52.6323Z" fill="#F1C4A1"/>
<path d="M88.4138 53.2075L85.5712 52.1299C85.4707 52.0908 85.4205 51.9847 85.4596 51.8842L85.4763 51.8451C85.5154 51.7446 85.6215 51.6943 85.722 51.7334L88.5646 52.8111C88.6651 52.8502 88.7154 52.9562 88.6763 53.0568L88.6595 53.0958C88.626 53.1908 88.5143 53.241 88.4138 53.2075Z" fill="#E1AC82"/>
<path d="M90.3572 53.0456L87.5146 51.9679C87.4141 51.9289 87.3638 51.8228 87.4029 51.7223L87.4197 51.6832C87.4588 51.5827 87.5649 51.5324 87.6654 51.5715L90.508 52.6491C90.6085 52.6882 90.6587 52.7943 90.6196 52.8948L90.6029 52.9339C90.5638 53.0344 90.4521 53.0791 90.3572 53.0456Z" fill="#E1AC82"/>
<path d="M86.6489 53.3695L83.8007 52.2918C83.7002 52.2527 83.65 52.1466 83.6891 52.0461L83.7058 52.007C83.7449 51.9065 83.851 51.8563 83.9515 51.8953L86.7997 52.973C86.9002 53.0121 86.9504 53.1182 86.9114 53.2187L86.8946 53.2578C86.8555 53.3583 86.7438 53.4086 86.6489 53.3695Z" fill="#E1AC82"/>
<path d="M84.8452 53.6039L81.997 52.5263C81.8965 52.4872 81.8462 52.3811 81.8853 52.2806L81.9021 52.2415C81.9412 52.141 82.0473 52.0908 82.1478 52.1298L84.996 53.2075C85.0965 53.2466 85.1467 53.3527 85.1076 53.4532L85.0909 53.4922C85.0574 53.5928 84.9457 53.6374 84.8452 53.6039Z" fill="#E1AC82"/>
<path d="M82.9595 56.6973C82.9595 57.4846 80.6698 58.1268 77.844 58.1268C75.0182 58.1268 72.7285 57.4846 72.7285 56.6973C72.7285 56.4572 72.7285 55.8151 72.7285 55.8151C72.7285 55.8151 75.8838 55.2679 77.844 55.2679C79.9606 55.2679 82.9595 55.8151 82.9595 55.8151C82.9595 55.8151 82.9595 56.5019 82.9595 56.6973Z" fill="#E1AC82"/>
<path d="M77.845 57.2445C80.6702 57.2445 82.9605 56.6045 82.9605 55.8151C82.9605 55.0256 80.6702 54.3856 77.845 54.3856C75.0198 54.3856 72.7295 55.0256 72.7295 55.8151C72.7295 56.6045 75.0198 57.2445 77.845 57.2445Z" fill="#F1C4A1"/>
<path d="M79.9109 56.3902L77.0683 55.3125C76.9678 55.2735 76.9175 55.1674 76.9566 55.0669L76.9734 55.0278C77.0125 54.9273 77.1186 54.877 77.2191 54.9161L80.0617 55.9938C80.1622 56.0328 80.2124 56.1389 80.1734 56.2394L80.1566 56.2785C80.1231 56.379 80.0114 56.4293 79.9109 56.3902Z" fill="#E1AC82"/>
<path d="M81.855 56.2283L79.0068 55.1506C78.9063 55.1115 78.856 55.0054 78.8951 54.9049L78.9119 54.8658C78.9509 54.7653 79.0571 54.7151 79.1576 54.7542L82.0058 55.8318C82.1063 55.8709 82.1565 55.977 82.1174 56.0775L82.1007 56.1166C82.0616 56.2171 81.9555 56.2674 81.855 56.2283Z" fill="#E1AC82"/>
<path d="M78.1462 56.5521L75.3037 55.4745C75.2031 55.4354 75.1529 55.3293 75.192 55.2288L75.2087 55.1897C75.2478 55.0892 75.3539 55.0389 75.4545 55.078L78.3026 56.1557C78.4031 56.1948 78.4534 56.3065 78.4143 56.4014L78.3975 56.4405C78.3529 56.541 78.2412 56.5912 78.1462 56.5521Z" fill="#E1AC82"/>
<path d="M76.3425 56.7867L73.5 55.709C73.3994 55.6699 73.3492 55.5638 73.3883 55.4633L73.405 55.4243C73.4441 55.3238 73.5502 55.2735 73.6507 55.3126L76.4933 56.3902C76.5938 56.4293 76.6441 56.5354 76.605 56.6359L76.5882 56.675C76.5547 56.7755 76.443 56.8258 76.3425 56.7867Z" fill="#E1AC82"/>
<path opacity="0.7" d="M95.1231 46.6856C95.6313 50.1252 90.7783 35.7918 78.3525 35.8755C83.9427 33.8542 93.0903 32.8938 95.1231 46.6856Z" fill="white"/>
<path d="M96.2425 8.90052C96.2595 7.54378 95.1732 6.43018 93.8162 6.41322C92.4593 6.39626 91.3455 7.48237 91.3286 8.83912C91.3116 10.1959 92.3979 11.3095 93.7548 11.3264C95.1118 11.3434 96.2256 10.2573 96.2425 8.90052Z" fill="#2A393F"/>
<path d="M109.816 50.6053C109.816 51.9622 108.716 53.0622 107.359 53.0622C106.002 53.0622 104.901 51.9622 104.901 50.6053C104.901 49.2485 106.002 48.1485 107.359 48.1485C108.716 48.1485 109.816 49.2485 109.816 50.6053Z" fill="#FBE698"/>
<path d="M16.7982 48.5561C16.7982 49.913 15.6981 51.013 14.341 51.013C12.984 51.013 11.8838 49.913 11.8838 48.5561C11.8838 47.1993 12.984 46.0993 14.341 46.0993C15.6981 46.0993 16.7982 47.1993 16.7982 48.5561Z" fill="#FBE698"/>
<path d="M4.91445 38.5166C4.91445 39.8735 3.81429 40.9734 2.45723 40.9734C1.10017 40.9734 0 39.8735 0 38.5166C0 37.1598 1.10017 36.0598 2.45723 36.0598C3.81429 36.0598 4.91445 37.1598 4.91445 38.5166Z" fill="#94B052"/>
<path d="M23.8289 10.2852C23.8289 10.8324 23.3822 11.2791 22.8349 11.2791C22.2876 11.2791 21.8408 10.8324 21.8408 10.2852C21.8408 9.73802 22.2876 9.29132 22.8349 9.29132C23.3878 9.29132 23.8289 9.73802 23.8289 10.2852Z" fill="#FBE698"/>
<path d="M117.167 89.4514L115.324 82.1925L119.898 81.5616C120.054 84.9956 120.311 88.3737 120.289 89.2895L117.167 89.4514Z" fill="#F1C4A1"/>
<path d="M128.08 81.5225H132.855C132.699 82.6672 132.073 88.8595 132.073 88.8595C131.671 89.7753 128.114 89.5687 128.114 89.0494C128.382 87.9382 128.102 81.6677 128.08 81.5225Z" fill="#F1C4A1"/>
<path d="M120.273 84.3591L115.565 85.0514L112.298 65.5307C112.968 58.1211 119.491 42.3638 119.491 42.3638L126.84 44.9379L127.019 51.8896L118.167 66.8764C119.329 69.7743 120.116 79.1494 120.273 84.3591Z" fill="#142334"/>
<path d="M123.914 42.8887C123.981 42.4308 124.004 42.2856 124.383 42.0567L131.442 40.0521L133.123 41.7105C134.715 47.4897 133.726 55.5247 132.475 61.9069C134.313 67.4292 133.592 78.8088 132.855 84.1581H127.835C127.544 80.5845 127.634 73.951 127.611 70.7459C126.963 68.1718 126.332 65.4246 125.774 62.5378C125.059 58.847 124.16 55.2734 123.914 51.9231C123.691 48.7516 123.624 45.3455 123.914 42.8887Z" fill="#1B2C40"/>
<path d="M118.277 89.3342C117.796 88.0778 116.775 87.9382 116.775 87.9382C114.786 90.5905 109.905 88.9601 110.067 92.5448C117.489 92.5002 120.572 92.5448 120.572 92.5448C120.561 91.724 120.416 89.7697 120.243 89.0047L119.857 89.0717L118.277 89.3342Z" fill="#2C2858"/>
<path d="M110.259 93.5053H120.39C120.496 93.5053 120.58 93.4216 120.58 93.3155V92.45H110.069V93.3155C110.069 93.4216 110.159 93.5053 110.259 93.5053Z" fill="white"/>
<path d="M127.259 92.5839C127.259 92.5839 127.856 90.3616 127.907 90.0768C127.968 89.7529 128.141 88.9824 128.175 88.5915C128.186 88.4966 129.208 87.8712 129.99 87.8712C131.045 87.8712 132.011 88.4854 132.034 88.6027C132.156 89.3453 132.162 90.2164 132.363 90.9367C132.514 91.4727 132.922 92.7235 132.922 92.7235L127.259 92.5839Z" fill="#2C2858"/>
<path d="M127.258 92.4108C127.398 92.8519 129.112 92.3438 130.357 92.3438C131.407 92.3438 132.764 92.7514 132.921 92.5951C133.183 93.0585 132.965 94.0189 132.965 94.0189C132.965 94.0189 131.871 94.0748 130.558 94.0189C129.246 93.9631 127.733 94.0469 127.157 93.8738C126.806 93.2707 127.258 92.4108 127.258 92.4108Z" fill="white"/>
<path d="M115.805 15.9471C114.593 12.7811 114.671 9.64308 116.81 7.40958C118.982 5.14817 122.696 5.60604 122.696 5.60604C122.696 5.60604 125.17 3.78574 128.521 5.79588C131.866 7.80603 130.699 10.8157 132.335 12.5243C133.301 13.5349 136.473 12.8537 136.847 16.9857C136.953 18.1806 135.831 19.342 134.708 19.7608C132.737 20.4979 130.632 20.2857 130.051 21.3075C128.135 24.6745 121.903 25.54 120.367 23.4461C119.892 22.7984 114.961 25.8136 114.006 20.7045C113.52 18.1304 116.888 18.7781 115.805 15.9471Z" fill="black"/>
<path d="M124.114 23.5187C126.488 26.9024 121.171 32.5252 116.955 37.4612C115.257 38.6394 115.084 32.7932 115.084 32.7932L117.865 28.3486C117.871 28.343 121.395 22.5806 124.114 23.5187Z" fill="#EA8249"/>
<path d="M124.12 19.3811C124.12 19.3811 124.483 22.7034 124.6 23.9319L129.074 24.0659C127.705 21.9496 128.325 15.9192 128.325 15.9192L124.12 19.3811Z" fill="#F1C4A1"/>
<path d="M129.141 14.5121C129.37 18.4989 127.013 21.877 123.88 22.0613C120.747 22.24 118.022 19.1522 117.793 15.1654C117.564 11.1786 119.92 7.80044 123.053 7.61617C126.186 7.43191 128.912 10.5197 129.141 14.5121Z" fill="#F1C4A1"/>
<path d="M119.725 16.3939C119.675 16.6898 119.39 16.8908 119.094 16.8405C118.798 16.7903 118.597 16.5055 118.647 16.2096C118.698 15.9137 118.982 15.7126 119.278 15.7629C119.574 15.8131 119.775 16.0923 119.725 16.3939Z" fill="black"/>
<path d="M123.706 15.4279C123.651 15.7517 123.343 15.9639 123.025 15.9081C122.707 15.8522 122.489 15.5451 122.545 15.2268C122.601 14.903 122.908 14.6908 123.226 14.7466C123.545 14.8025 123.762 15.104 123.706 15.4279Z" fill="black"/>
<path d="M124.187 14.8584C124.142 14.8528 124.103 14.8304 124.069 14.7913C123.6 14.2665 122.802 14.3781 122.791 14.3781C122.679 14.3949 122.573 14.3167 122.556 14.2051C122.539 14.0934 122.617 13.9873 122.729 13.9705C122.768 13.9649 123.757 13.8198 124.377 14.5177C124.449 14.6015 124.444 14.7299 124.36 14.8081C124.31 14.8528 124.243 14.8695 124.187 14.8584Z" fill="#2C2858"/>
<path d="M118.126 15.8411C118.104 15.8355 118.082 15.8299 118.065 15.8187C117.964 15.7629 117.931 15.64 117.981 15.5395C118.406 14.7634 119.215 14.7913 119.249 14.7913C119.36 14.7969 119.45 14.8918 119.444 15.0035C119.439 15.1152 119.344 15.2045 119.232 15.1989C119.204 15.1989 118.634 15.1878 118.339 15.735C118.299 15.8187 118.21 15.8578 118.126 15.8411Z" fill="#2C2858"/>
<path d="M120.709 16.6396C120.513 17.0193 120.351 17.399 120.128 17.6558C120.055 17.7396 120.061 17.8736 120.144 17.9518C120.485 18.2756 121.228 18.404 121.675 18.4543C121.742 18.4599 121.764 18.3705 121.703 18.3426C121.2 18.1137 120.949 17.9071 120.831 17.7842C120.776 17.7228 120.748 17.6391 120.764 17.5609C120.798 17.3766 120.859 16.9969 120.887 16.6898C120.904 16.5837 120.759 16.5447 120.709 16.6396Z" fill="#E1AC82"/>
<path d="M127.739 14.9588C127.197 15.7238 127.264 16.7065 127.89 17.1532C128.515 17.5999 129.465 17.3375 130.012 16.5725C130.554 15.8075 130.487 14.8248 129.861 14.3781C129.23 13.9314 128.281 14.1882 127.739 14.9588Z" fill="#F1C4A1"/>
<path d="M128.711 16.7177C128.683 16.7121 128.649 16.7009 128.621 16.6786C128.242 16.3994 128.091 15.9974 128.225 15.6065C128.359 15.2101 128.755 14.9253 129.157 14.9365C129.269 14.9421 129.358 15.0314 129.358 15.1487C129.353 15.2603 129.264 15.3497 129.146 15.3497C128.923 15.3441 128.694 15.5172 128.616 15.7405C128.543 15.9583 128.632 16.1705 128.867 16.3436C128.956 16.4106 128.979 16.539 128.912 16.6284C128.861 16.7009 128.783 16.7344 128.711 16.7177Z" fill="#E1AC82"/>
<path d="M123.903 18.7893C123.875 18.6385 123.797 18.5157 123.657 18.5883C123.311 18.7614 122.741 19.0406 122.172 19.2472C121.602 19.4538 120.988 19.6157 120.614 19.705C120.468 19.7385 120.479 19.8893 120.558 20.0177C120.887 20.5538 121.775 20.9669 122.646 20.6487C123.517 20.3304 124.009 19.3477 123.903 18.7893Z" fill="white"/>
<path d="M129.113 14.1604C125.483 14.7411 119.535 12.6583 118.586 10.9553C118.603 8.55987 121.864 6.37663 124.198 6.78425C126.533 7.18628 129.761 10.9609 129.113 14.1604Z" fill="black"/>
<path d="M128.609 22.2344L123.907 22.9547C121.807 25.8694 119.679 28.371 119.674 30.074C119.668 32.3187 124.421 42.1125 124.421 42.1125C128.47 42.6486 131.77 42.1349 134.272 40.51C132.317 34.9877 136.511 28.0304 132.893 24.3004C131.988 23.3735 129.268 23.3959 128.609 22.2344Z" fill="#F29456"/>
<path d="M120.585 30.9059C118.96 29.6608 116.547 28.7227 113.917 29.7501C107.4 32.3019 108.896 40.3257 113.766 42.4531C114.252 42.6653 114.749 42.8161 115.252 42.911C116.586 43.1567 117.765 43.9161 118.524 45.044C119.412 46.3561 120.674 47.4394 122.238 48.115C126.488 49.9353 129.638 47.4338 131.553 43.2237C133.524 38.8739 133.39 34.3399 129.029 32.4359C127.46 31.7491 125.801 31.576 124.232 31.8328C122.936 32.0339 121.624 31.6988 120.585 30.9059Z" fill="#FBE698"/>
<path d="M115.927 33.173L113.788 38.2096L95.2529 29.1471L96.5374 26.1263L115.927 33.173Z" fill="#FEDA34"/>
<path d="M99.3352 26.0537L99.7485 26.9471C99.8546 27.1761 99.8602 27.4329 99.7597 27.6674L98.5646 30.4816C98.4585 30.7273 98.2518 30.9116 98.0005 30.9842L97.1182 31.2466C96.8892 31.3136 96.6435 31.2857 96.4368 31.1684L90.1319 27.6283C89.7409 27.4106 89.5734 26.9248 89.7521 26.5116L90.7741 24.105C90.9472 23.6974 91.3996 23.4796 91.8296 23.6025L98.7768 25.5791C99.0225 25.6461 99.2236 25.8192 99.3352 26.0537Z" fill="#FBE698"/>
<path d="M120.098 34.3567C121.679 35.0268 122.382 36.9253 121.679 38.5892C120.969 40.2532 119.115 41.0628 117.535 40.3927C115.954 39.7227 115.251 37.8242 115.954 36.1603C116.664 34.4907 118.518 33.6867 120.098 34.3567Z" fill="#FEDA34"/>
<path d="M95.6719 30.1912L95.1134 31.0679C94.9403 31.3359 94.4991 31.3861 94.125 31.1851C93.7508 30.9841 93.5889 30.6044 93.7564 30.3364L94.3148 29.4598C94.488 29.1917 94.9292 29.1415 95.3033 29.3425C95.6775 29.5435 95.845 29.9232 95.6719 30.1912Z" fill="#FEDA34"/>
<path d="M93.0469 28.6334L92.4884 29.51C92.3153 29.778 91.8741 29.8283 91.5 29.6273C91.1258 29.4263 90.9639 29.0466 91.1314 28.7786L91.6898 27.9019C91.863 27.6339 92.3041 27.5836 92.6783 27.7846C93.0525 27.9857 93.22 28.3654 93.0469 28.6334Z" fill="#FEDA34"/>
<path d="M97.5756 25.7187L97.8157 24.7081C97.8883 24.401 97.6203 24.0436 97.2182 23.9152C96.8161 23.7868 96.4252 23.9319 96.3526 24.239L96.1125 25.2497C96.0399 25.5568 96.3079 25.9142 96.71 26.0426C97.1121 26.171 97.503 26.0258 97.5756 25.7187Z" fill="#FEDA34"/>
<path d="M94.6274 24.909L94.8675 23.8984C94.9401 23.5913 94.672 23.2339 94.27 23.1055C93.8679 22.9771 93.4769 23.1222 93.4043 23.4293L93.1642 24.44C93.0916 24.7471 93.3597 25.1045 93.7618 25.2329C94.1694 25.3613 94.5548 25.2217 94.6274 24.909Z" fill="#FEDA34"/>
<path d="M126.427 39.1084C126.388 39.2034 126.282 39.248 126.187 39.2034L93.6954 25.4004C93.6004 25.3613 93.5558 25.2552 93.6004 25.1603C93.6395 25.0653 93.7456 25.0207 93.8406 25.0653L126.332 38.8683C126.421 38.9074 126.466 39.0191 126.427 39.1084Z" fill="#F2F2F2"/>
<path d="M125.827 40.5044C125.788 40.5993 125.682 40.644 125.587 40.5994L93.0958 26.7964C93.0008 26.7573 92.9561 26.6512 93.0008 26.5563C93.0399 26.4613 93.146 26.4167 93.241 26.4613L125.732 40.2643C125.827 40.3034 125.872 40.4095 125.827 40.5044Z" fill="#F2F2F2"/>
<path d="M125.236 41.9004C125.197 41.9953 125.091 42.04 124.996 41.9953L92.5049 28.1923C92.41 28.1532 92.3653 28.0471 92.41 27.9522C92.4491 27.8573 92.5552 27.8126 92.6501 27.8573L125.141 41.6603C125.236 41.6993 125.275 41.8054 125.236 41.9004Z" fill="#F2F2F2"/>
<path d="M129.33 37.2659L126.035 45.0161C124.946 44.5527 124.438 43.2963 124.901 42.2131L126.521 38.3994C126.99 37.3106 128.246 36.8024 129.33 37.2659Z" fill="#FEDA34"/>
<path d="M132.295 24.0044C136.339 24.8587 136.294 32.5922 136.59 39.0805C136.16 41.1018 132.033 36.9475 132.033 36.9475L131.028 31.7993C131.028 31.7993 129.665 25.177 132.295 24.0044Z" fill="#EA8249"/>
<path d="M114.883 37.3887C115.983 37.6846 117.687 37.9694 117.798 37.3887C117.977 36.4562 117.111 36.378 117.162 35.6689C117.201 35.0379 118.876 35.306 120.038 37.8131L120.485 37.774L120.954 40.2532L120.507 40.2197C119.072 41.4537 115.486 41.4257 113.554 39.9516C111.599 38.4608 113.409 36.9922 114.883 37.3887Z" fill="#F1C4A1"/>
<path d="M102.943 33.8598C102.921 33.776 102.893 33.7314 102.91 33.6588C102.91 33.6588 102.87 33.6532 102.865 33.6867C102.189 33.9715 101.458 33.776 101.296 33.2847C101.273 33.2009 101.251 33.1227 101.229 33.039C100.765 33.0557 100.341 32.8547 100.218 32.5197C100.167 32.3913 100.162 32.2405 100.19 32.0898C99.7151 32.1456 99.2963 31.9446 99.1176 31.5202C98.9165 31.0177 99.2293 30.4258 99.8157 30.2024C100.402 29.9791 101.011 30.1801 101.223 30.6491C101.273 30.7776 101.29 30.8948 101.256 31.04C101.871 30.8613 102.485 31.0623 102.664 31.4867C102.686 31.5705 102.708 31.6486 102.731 31.7324C103.194 31.7156 103.613 31.9167 103.742 32.2517C103.792 32.3801 103.797 32.5309 103.775 32.6425C104.177 32.57 104.596 32.7766 104.719 33.106C104.898 33.5304 104.607 34.005 104.144 34.2172C103.669 34.4349 103.133 34.2507 102.943 33.8598Z" fill="#F1C4A1"/>
<path d="M120.355 37.7405C120.355 37.7405 131.05 36.4115 132.452 36.674C133.853 36.9364 136.646 37.64 136.568 38.9856C136.484 40.3313 133.429 41.9394 130.687 41.7496C127.945 41.5597 120.724 40.4039 120.724 40.4039L120.355 37.7405Z" fill="#EA8249"/>
<path d="M139.661 25.383C139.979 24.7538 139.726 23.9865 139.096 23.6691C138.465 23.3517 137.696 23.6044 137.378 24.2336C137.061 24.8628 137.314 25.6301 137.944 25.9475C138.574 26.2649 139.343 26.0122 139.661 25.383Z" fill="#94B052"/>
<path d="M143.967 75.4983C145.09 75.0341 145.623 73.7492 145.158 72.6285C144.693 71.5077 143.406 70.9755 142.283 71.4398C141.16 71.904 140.627 73.1889 141.092 74.3096C141.557 75.4303 142.844 75.9625 143.967 75.4983Z" fill="#FBE698"/>
</svg>
