<svg width="137" height="114" viewBox="0 0 137 114" fill="none" xmlns="http://www.w3.org/2000/svg">
<path d="M136.733 112.013C136.88 111.368 136.476 110.726 135.831 110.579C135.185 110.432 134.542 110.835 134.394 111.48C134.247 112.124 134.651 112.766 135.296 112.914C135.942 113.061 136.585 112.658 136.733 112.013Z" fill="#2A393F"/>
<path d="M12.7588 103.865H133.504C133.504 103.865 117.523 113.113 73.1455 113.113C28.7683 113.113 12.7588 103.865 12.7588 103.865Z" fill="#D4DCBD"/>
<path d="M52.3613 57.2888L54.2993 56.1364L55.5071 58.5818L53.6814 59.6781L52.3613 57.2888Z" fill="url(#paint0_linear)"/>
<path d="M36.6895 88.2648L36.858 88.7146C37.2512 89.7265 37.8129 90.6541 38.5151 91.4693L45.0874 99.0868L47.0816 97.7656L41.9136 89.1362L41.6608 87.7308L36.6895 88.2648Z" fill="#FFC5AB"/>
<path d="M27.392 86.3815L24.3867 99.3397L26.7179 99.7895L32.0825 87.8432L27.392 86.3815Z" fill="#FFC5AB"/>
<path d="M29.7517 76.2623L26.6621 86.3534L32.7008 88.2648L35.6499 80.6473L35.032 76.2623H29.7517Z" fill="#1B2C40"/>
<path d="M34.1611 76.2623L35.7902 88.6021L42.3625 87.5902L41.6884 76.431L34.1611 76.2623Z" fill="#1B2C40"/>
<path d="M38.6828 59.9873L44.7776 60.6057C45.4798 60.69 46.182 60.5214 46.7718 60.1841L52.2488 57.064L53.7654 59.7905L48.2323 63.8101C47.8391 64.0912 47.3897 64.288 46.9123 64.4004L42.0251 65.3842L42.4464 76.3467C42.4464 76.3467 40.1433 76.7683 35.2281 76.7683C30.3129 76.7683 29.4703 76.1499 29.4703 76.1499L30.987 64.8501L26.7459 64.0912C25.8752 63.9226 25.1169 63.4447 24.6113 62.742L20.8477 57.4013L23.4036 55.9958L26.0999 59.5657C26.6335 60.2122 27.4481 60.5776 28.2626 60.5495L38.6828 59.9873Z" fill="#F0932B"/>
<path d="M34.7228 59.2845L33.9925 59.7343L33.7959 60.7743L35.1441 60.0716L35.3126 59.397L34.7228 59.2845Z" fill="#D67D25"/>
<path d="M38.0087 58.6944C38.0087 58.6944 40.5365 56.8111 40.5365 53.438C40.5365 51.3017 39.1041 51.6952 39.1041 51.6952C39.1041 51.6952 39.0198 50.5428 36.2673 50.5428C34.1327 50.5428 32.7564 48.3222 31.4925 49.9806C30.2286 51.639 31.633 53.6348 33.7114 54.3094C35.7898 54.9559 38.0087 58.6944 38.0087 58.6944Z" fill="#002F59"/>
<path d="M33.5428 53.1569C33.5428 53.1569 32.8125 54.0001 32.8125 56.0802C32.8125 58.4694 33.6551 58.6943 35.1437 59.4814V60.0716L35.3122 60.7744C35.3122 60.7744 35.7054 60.9149 36.1548 60.9149C37.2783 60.9149 38.0367 60.1841 38.0367 60.1841L38.2052 57.064C38.2052 57.064 39.5253 56.6143 39.6657 55.4618C39.8342 54.2812 39.0759 54.0282 38.6265 54.6466L38.3175 55.4618L38.1209 54.5623H38.0647C37.3345 54.5342 36.7166 53.972 36.6323 53.2412L33.5428 53.1569Z" fill="#FFC5AB"/>
<path d="M36.8857 60.8587L37.0262 59.7905L37.5598 60.6338C37.5879 60.6057 37.3351 60.7743 36.8857 60.8587Z" fill="#D67D25"/>
<path d="M37.0537 59.7905L38.0929 59.2565V59.0035H38.5704L38.6827 59.9873L37.5593 61.1116L37.0537 59.7905Z" fill="#F0932B"/>
<path d="M35.3132 60.7743L35.1447 60.0716V59.5094L34.7234 59.2845L33.9932 59.7343L35.3132 60.7743Z" fill="#F0932B"/>
<path d="M45.0865 99.0867L42.334 103.528C42.334 103.528 42.8115 104.174 43.963 103.612C44.8618 103.162 47.4177 101.392 48.485 100.633C48.7378 100.464 48.794 100.099 48.6254 99.8457L47.1088 97.7375L45.0865 99.0867Z" fill="#F29456"/>
<path d="M24.387 99.3397L19.2752 100.52C19.2752 100.52 19.1629 101.335 20.3706 101.729C21.3256 102.038 24.387 102.6 25.679 102.825C25.988 102.881 26.2969 102.657 26.325 102.347L26.7182 99.7895L24.387 99.3397Z" fill="#F29456"/>
<path d="M21.354 57.1202L20.5957 55.2651L22.5337 54.3937L23.4044 55.9959L21.354 57.1202Z" fill="#FFC5AB"/>
<path d="M22.1681 51.9201C22.1681 51.9201 21.1851 49.6995 21.1008 49.5027C21.0165 49.3341 20.7357 49.1654 20.5671 49.2497C20.3986 49.3341 20.4548 49.6995 20.4829 49.8681C20.511 50.0649 21.1851 51.7514 21.1851 51.7514C21.1851 51.7514 20.2863 50.0368 20.2301 49.9243C20.1739 49.8119 19.9211 49.587 19.6965 49.6433C19.4718 49.6995 19.6122 50.1773 19.6122 50.1773L20.511 52.0887C20.511 52.0887 19.4718 50.5708 19.4156 50.4303C19.3313 50.2898 19.0505 50.1211 18.8819 50.2054C18.7134 50.2898 18.7134 50.6271 18.8258 50.8238C18.9381 51.0206 19.8369 52.4822 19.8369 52.4822C19.8369 52.4822 18.7696 51.1049 18.7134 50.9925C18.6572 50.8519 18.3483 50.7676 18.2921 50.7957C18.2078 50.8519 18.1236 51.0206 18.3483 51.4141C18.5449 51.8076 19.3594 53.1569 19.3594 53.1569C19.3594 53.1569 19.9211 54.5904 20.6514 55.265L22.5894 54.4218L22.1681 51.9201Z" fill="#FFC5AB"/>
<path d="M22.505 54.4217C22.505 54.4217 22.7858 52.8757 23.0948 51.6952C23.4038 50.5427 22.4769 51.0487 22.2522 51.4422C22.0275 51.8357 21.8871 52.1168 21.8871 52.1168C21.8871 52.1168 21.2692 52.3698 21.1568 52.7352C21.0445 53.1287 21.1849 54.3374 22.505 54.4217Z" fill="url(#paint1_linear)"/>
<path d="M35.5938 53.8315H36.8857C36.8857 53.8315 36.4925 53.438 36.0712 53.438C35.678 53.438 35.5938 53.8315 35.5938 53.8315Z" fill="#002F59"/>
<path opacity="0.1" d="M35.1445 60.0717C35.1445 60.0717 36.4084 59.8468 36.8578 58.5538L35.1445 59.5095V60.0717Z" fill="black"/>
<path d="M33.9365 53.8315H32.6445C32.6445 53.8315 33.0377 53.438 33.459 53.438C33.8523 53.438 33.9365 53.8315 33.9365 53.8315Z" fill="#002F59"/>
<path d="M32.8136 55.4899C32.8136 55.4899 33.4877 55.6304 33.9371 55.4618C34.3864 55.265 34.9763 55.2931 35.3414 55.4337C35.9593 55.6585 37.0266 55.6866 37.3075 55.4056C37.3075 55.4056 37.1109 56.9234 37.7569 57.3732C37.7569 57.3732 37.3356 58.6943 35.3976 59.4532C34.3022 59.8749 33.263 58.4694 33.0383 57.8791C32.8136 57.2607 32.6451 56.1083 32.8136 55.4899Z" fill="white"/>
<path d="M36.6323 56.0239L36.5762 55.8553L38.8231 54.4498L38.6265 54.6747L38.5703 54.8434L36.6323 56.0239Z" fill="white"/>
<path d="M37.3911 57.7386L37.335 57.5137L38.4865 56.8953L38.8517 56.7267L38.5708 57.0359L37.3911 57.7386Z" fill="white"/>
<path d="M36.6329 54.9839C36.6048 54.9839 36.5767 54.9839 36.5486 54.9558C36.3801 54.7872 36.2397 54.7028 36.0712 54.7309C35.8184 54.7309 35.6779 54.9558 35.6499 54.9558C35.6218 55.012 35.5375 55.012 35.5094 54.9839C35.4533 54.9558 35.4533 54.8715 35.4813 54.8434C35.4813 54.8434 35.706 54.5623 36.0431 54.5342C36.2678 54.5342 36.4925 54.6185 36.6891 54.8153C36.7172 54.8434 36.7172 54.9277 36.6891 54.9558C36.6891 54.9839 36.661 54.9839 36.6329 54.9839Z" fill="#002F59"/>
<path d="M34.1329 54.9839C34.1048 54.9839 34.0767 54.9839 34.0486 54.9558C33.8801 54.7872 33.7397 54.7028 33.5712 54.7309C33.3184 54.7309 33.1779 54.9558 33.1499 54.9558C33.1218 55.012 33.0375 55.012 33.0094 54.9839C32.9533 54.9558 32.9533 54.8715 32.9813 54.8434C32.9813 54.8434 33.206 54.5623 33.5431 54.5342C33.7678 54.5342 33.9925 54.6185 34.1891 54.8153C34.2172 54.8434 34.2172 54.9277 34.1891 54.9558C34.1891 54.9839 34.161 54.9839 34.1329 54.9839Z" fill="#002F59"/>
<path d="M59.7201 56.0802C59.7201 56.0802 58.3438 58.6381 58.2315 59.3689C58.1191 60.0998 57.2203 59.4814 57.2203 58.9473C57.1922 58.4132 57.3046 57.7386 57.3046 57.7386L59.7201 56.0802Z" fill="#FFC5AB"/>
<path d="M62.8381 91.8909L60.9562 98.89L53.0919 99.3959C52.9234 99.3959 52.7549 99.5646 52.7549 99.7332C52.7549 99.8457 52.8111 99.9581 52.9234 100.042C53.5975 100.436 56.3219 101.954 62.0797 103.837C62.6695 104.034 63.2875 103.668 63.4279 103.078C63.6245 102.263 63.8492 101.139 64.0177 100.127C64.3267 98.2997 67.1634 92.8185 67.1634 92.8185L62.8381 91.8909Z" fill="#1B2C40"/>
<path d="M92.8623 93.0996L97.5528 98.637L93.4802 105.411C93.3959 105.58 93.424 105.777 93.5926 105.861C93.7049 105.917 93.8173 105.945 93.9296 105.889C94.6318 105.58 97.4405 104.203 102.243 100.52C102.721 100.155 102.805 99.4241 102.384 98.9743C101.822 98.3559 101.036 97.5127 100.305 96.8099C98.9852 95.5169 96.0642 90.0919 96.0642 90.0919L92.8623 93.0996Z" fill="#1B2C40"/>
<path d="M121.23 97.3159L124.489 101.139L126.483 99.8176L123.421 95.011L121.23 97.3159Z" fill="#FFC5AB"/>
<path d="M105.081 95.6856L103.761 101.392L106.12 101.87L107.918 96.6413L105.081 95.6856Z" fill="#FFC5AB"/>
<path d="M114.967 84.9761L116.54 91.5254L121.23 97.3159L123.842 94.8985L120.977 90.2043C120.977 90.2043 121.314 87.2529 121.034 84.2452L114.967 84.9761Z" fill="#1B2C40"/>
<path d="M107.636 84.2452L105.08 95.6856L108.17 96.9224L109.462 94.0834L114.18 84.5825L107.636 84.2452Z" fill="#1B2C40"/>
<path d="M113.562 61.7301L114.433 61.3928H117.326L118.225 61.7301L115.388 66.621L113.562 61.7301Z" fill="#FEDA34"/>
<path d="M119.208 62.3484C119.208 62.3484 119.741 62.3766 120.5 63.5852C121.258 64.7939 124.376 70.1627 124.376 70.1627L124.994 77.1899L122.803 77.5272L121.567 71.2027L120.64 69.5443L120.837 71.0341L118 68.0827L118.112 64.2317L119.208 62.3484Z" fill="#FEDA34"/>
<path d="M112.439 62.0393L106.203 62.2079L100.417 60.1841L99.1816 62.8544L105.08 65.2437L110.725 66.3961L110.557 68.5605L112.776 62.6858L112.439 62.0393Z" fill="#FEDA34"/>
<path d="M110.389 61.1117H121.68C121.68 61.1117 120.472 60.0716 120.472 59.3127C120.472 58.5819 120.893 58.4975 120.753 57.4294C120.64 56.3613 120.135 56.1645 120.051 55.2369C119.994 54.3093 118.815 51.3298 115.444 51.3298C112.074 51.3298 111.54 54.478 111.428 55.0683C111.316 55.6585 111.147 56.6423 111.287 57.2045C111.428 57.7667 110.922 58.2164 110.922 58.6381C110.922 59.0597 111.091 59.3689 111.091 59.8468C111.091 60.2965 110.389 61.1117 110.389 61.1117Z" fill="#002F59"/>
<path d="M114.433 52.7914C114.433 52.7914 112.271 54.0845 112.271 56.4737C112.271 58.863 112.973 59.9873 114.433 60.7463V61.3647C114.433 61.3647 114.63 62.1798 115.753 62.1798C116.877 62.1798 117.326 61.4771 117.326 61.4771V61.1117C117.326 61.1117 116.764 60.6338 116.989 59.4814C117.214 58.3289 117.719 58.1321 117.719 58.1321C117.719 58.1321 118.815 57.9354 118.955 56.7548C119.124 55.5742 118.365 55.3212 117.916 55.9396L117.579 56.7548L117.467 55.518C117.495 55.518 114.911 55.8272 114.433 52.7914Z" fill="#FFC5AB"/>
<path opacity="0.1" d="M120.64 69.5443L119.854 68.3638L120.275 70.2752L120.752 70.3876L120.64 69.5443Z" fill="black"/>
<path d="M113.619 61.5895L114.602 64.9063C114.742 65.3561 115.332 65.4685 115.613 65.075L118.085 61.5895L119.433 62.2922C119.433 62.2922 118.506 64.4285 118.984 67.0707C119.461 69.7129 120.894 70.5 120.894 70.5L122.157 84.4701C122.157 84.4701 119.939 85.2852 114.04 85.2852C108.142 85.2852 106.906 84.189 106.906 84.189L110.361 68.5043C110.361 68.5043 111.962 65.075 112.383 62.0111L113.619 61.5895Z" fill="#F0932B"/>
<path d="M124.488 101.139L121.735 105.58C121.735 105.58 122.213 106.226 123.364 105.664C124.263 105.214 126.819 103.444 127.886 102.685C128.139 102.516 128.195 102.151 128.027 101.898L126.51 99.7894L124.488 101.139Z" fill="#F29456"/>
<path d="M103.76 101.392L98.6483 102.572C98.6483 102.572 98.5359 103.387 99.7437 103.781C100.699 104.09 103.76 104.652 105.052 104.877C105.361 104.933 105.67 104.709 105.698 104.399L106.091 101.841L103.76 101.392Z" fill="#F29456"/>
<path opacity="0.1" d="M114.433 61.3928C114.433 61.3928 116.371 61.1398 116.595 59.65L114.433 60.7744V61.3928Z" fill="black"/>
<path d="M113.365 56.1082C113.365 56.2769 113.225 56.3893 113.085 56.3893C112.916 56.3893 112.804 56.2488 112.804 56.1082C112.804 55.9396 112.944 55.8271 113.085 55.8271C113.253 55.8271 113.365 55.9677 113.365 56.1082Z" fill="#002F59"/>
<path d="M115.894 56.0521C115.894 56.2207 115.753 56.3332 115.613 56.3332C115.444 56.3332 115.332 56.1926 115.332 56.0521C115.332 55.8834 115.472 55.771 115.613 55.771C115.781 55.7429 115.894 55.8834 115.894 56.0521Z" fill="#002F59"/>
<path d="M115.275 55.0963H116.567C116.567 55.0963 116.174 54.7028 115.753 54.7028C115.332 54.7028 115.275 55.0963 115.275 55.0963Z" fill="#002F59"/>
<path d="M113.618 55.0963H112.326C112.326 55.0963 112.719 54.7028 113.141 54.7028C113.534 54.7028 113.618 55.0963 113.618 55.0963Z" fill="#002F59"/>
<path d="M112.158 56.7828C112.158 56.7828 113.001 56.9234 113.45 56.7547C113.899 56.558 114.489 56.5861 114.854 56.7266C115.472 56.9515 116.455 56.8953 116.764 56.6142C116.764 56.6142 116.68 58.1321 117.298 58.5537C117.298 58.5537 116.849 59.9873 114.882 60.7181C113.787 61.1397 112.748 59.7343 112.523 59.144C112.327 58.5537 111.99 56.8672 112.158 56.7828Z" fill="white"/>
<path d="M115.949 57.345L115.865 57.1482L118.14 55.7428L117.916 55.9677L117.859 56.1644L115.949 57.345Z" fill="white"/>
<path d="M116.905 58.8911L116.849 58.6943L118.028 57.9916L118.422 57.8229L118.113 58.1321L116.905 58.8911Z" fill="white"/>
<path d="M73.8199 50.0087C73.8199 50.0087 67.9216 66.368 66.4892 74.098C66.4892 74.098 62.7256 86.4378 62.1357 91.8066C62.1357 91.8066 64.6916 92.9871 70.8427 93.9428C70.8427 93.9428 72.2189 86.0723 72.6964 78.9046L80.8978 65.5248L79.7181 49.9525L73.8199 50.0087Z" fill="#1B2C40"/>
<path d="M77.3301 49.5027C77.3301 49.5027 79.6332 68.5324 82.0487 80.5911L90.6713 94.6455C90.6713 94.6455 94.9124 93.3806 98.002 89.8108L89.1266 76.0656C89.1266 76.0656 90.0815 61.4771 89.913 58.5256C89.7445 55.5742 88.9861 51.4703 88.1997 50.0086L77.3301 49.5027Z" fill="#1B2C40"/>
<path d="M78.1174 25.8351L74.9716 27.1843C74.0729 27.5778 73.3988 28.393 73.146 29.3768L70.6463 39.9738C70.4216 40.9577 69.8598 41.829 69.0453 42.4474L62.5292 47.4789C61.7708 48.0692 61.2652 48.9406 61.1248 49.8963L60.9844 50.9363L62.8381 53.8315H63.9054C64.7199 53.8315 65.5064 53.5504 66.1804 53.0726L74.0729 47.0573L73.5673 48.7157C73.483 48.9687 73.5111 49.2498 73.5954 49.5028L73.792 50.0087H88.1444L88.341 49.0249C88.3972 48.7438 88.3691 48.4627 88.2567 48.1816C87.9478 47.4789 87.4703 45.3707 88.4533 39.6084L89.2398 40.5079C89.97 41.3512 90.4756 42.4193 90.6441 43.5156L91.9642 51.6109C92.1046 52.398 92.4697 53.1288 93.0315 53.6629L94.9976 55.6024L98.3961 54.8153L99.1263 52.7634C99.351 52.1169 99.4072 51.4142 99.2668 50.7677L97.4411 41.8571C97.2445 40.9577 96.9356 40.1144 96.4581 39.3554L89.633 27.9151C89.1836 27.1843 88.4814 26.6502 87.6669 26.4535L85.1391 25.8351H78.1174Z" fill="#FEDA34"/>
<path d="M73.5391 24.2891H90.2507C90.2507 24.2891 89.6328 22.4339 89.352 21.5344C89.1273 20.7754 89.352 19.5387 89.352 17.9927C89.352 16.4467 88.2566 15.1537 88.2566 14.1418C88.2566 13.1017 87.5263 8.23889 81.5438 8.23889C75.5332 8.23889 75.5051 14.0293 75.6737 15.0975C75.8422 16.1094 74.7468 17.2618 74.4659 18.8922C74.1289 20.6068 74.4098 22.6025 73.5391 24.2891Z" fill="#002F59"/>
<path d="M62.1355 54.0001L58.4 57.317C58.4 57.317 55.5632 58.6943 54.9172 58.9192C54.0746 59.2284 54.215 58.3289 54.5801 57.9916C54.2712 58.104 53.8218 58.1321 53.7094 57.7948C53.6252 57.5137 54.1869 57.1202 54.1869 57.1202C54.1869 57.1202 53.6252 57.1202 53.5409 56.7829C53.4847 56.4737 53.9622 56.0802 53.9622 56.0802C53.9622 56.0802 53.569 56.1645 53.4848 55.7429C53.4286 55.4337 55.1419 54.2812 55.1419 54.2812C55.1419 54.2812 57.0237 53.3536 57.9787 52.932L60.1413 51.8638L62.1355 54.0001Z" fill="#FFC5AB"/>
<path d="M61.0117 50.9363L60.1972 51.4422C60.0286 51.5547 59.9725 51.7795 60.0848 51.9482L61.7419 54.3656C61.8824 54.5623 62.1352 54.5904 62.3037 54.4218L62.8935 53.8315L61.0117 50.9363Z" fill="#EBC30C"/>
<path d="M79.072 11.4152C78.0328 11.4152 77.134 12.2304 77.0778 13.2704C76.9655 15.2661 76.7688 17.5992 77.0216 18.6392C77.3587 20.129 78.117 22.0966 79.072 22.0966C79.072 22.0966 79.6056 22.1809 79.9988 22.0123C79.9988 22.0123 79.9988 23.755 79.9427 24.795C79.9146 25.0761 79.7461 25.301 79.4652 25.3853L78.117 25.8632L79.9427 31.3725L85.1949 25.8632L84.3523 25.301C83.8186 24.9356 83.4535 24.3453 83.4254 23.6707C83.3693 22.2934 83.3973 19.9041 84.4366 18.4705C84.4366 18.4705 85.8128 17.7116 85.9813 16.8121C86.1499 15.9126 86.3184 14.7602 85.5039 14.6196C84.6893 14.4791 83.9591 15.5472 83.9591 15.5472V14.1418C83.9591 14.1418 80.8134 13.8607 79.072 11.4152Z" fill="#FFC5AB"/>
<path d="M96.5427 59.5095C96.5427 59.5095 96.4865 62.4047 96.2337 63.1074C95.9809 63.8102 97.0482 63.6977 97.3291 63.248C97.61 62.7983 97.8627 62.1799 97.8627 62.1799L96.5427 59.5095Z" fill="url(#paint2_linear)"/>
<path d="M95.4473 56.5299L97.0763 61.2522C97.0763 61.2522 98.8739 63.8383 99.3233 64.3723C99.885 65.0469 100.222 64.2037 100.054 63.7258C100.278 63.9788 100.643 64.2318 100.896 63.9788C101.121 63.7539 100.812 63.1636 100.812 63.1636C100.812 63.1636 101.317 63.4166 101.542 63.1636C101.739 62.9388 101.514 62.3485 101.514 62.3485C101.514 62.3485 101.795 62.6015 102.104 62.2923C102.329 62.0674 101.345 60.2122 101.345 60.2122C101.345 60.2122 100.138 58.4976 99.5479 57.6543L98.1998 55.6586L95.4473 56.5299Z" fill="#FFC5AB"/>
<path d="M95.0537 55.6305L95.2784 56.5862C95.3346 56.7829 95.5312 56.8954 95.7278 56.8673L98.5646 56.1364C98.7612 56.0802 98.9016 55.8553 98.8173 55.6586L98.5084 54.8715L95.0537 55.6305Z" fill="#EBC30C"/>
<path d="M98.6206 64.035C98.6206 64.035 100.25 63.0512 100.334 62.8826C100.418 62.7139 100.334 62.5171 100.025 62.6296C99.6879 62.742 98.5644 63.3323 98.5644 63.3323C98.5644 63.3323 99.9687 62.4328 100.081 62.3204C100.193 62.2079 100.165 62.1236 100.137 62.0112C100.109 61.9269 99.9126 61.8987 99.8564 61.8987C99.8002 61.9269 98.2555 62.7701 98.2555 62.7701C98.2555 62.7701 99.6598 61.8144 99.6879 61.7582C99.716 61.702 99.8564 61.5614 99.7721 61.449C99.6879 61.3366 99.4632 61.3928 99.3508 61.449C99.2385 61.4771 98.0027 62.2923 98.0027 62.2923C98.0027 62.2923 99.07 61.449 99.1823 61.3647C99.2947 61.2804 99.3508 61.1117 99.3228 61.0274C99.2947 60.943 99.1823 60.943 98.9576 60.9993C98.7329 61.0836 97.2443 61.955 97.2443 61.955C97.2443 61.955 97.132 62.2642 97.8061 63.1355C98.4521 64.035 98.6206 64.035 98.6206 64.035Z" fill="url(#paint3_linear)"/>
<path d="M123.534 79.27C123.534 79.27 122.804 80.7317 122.523 81.0409C122.242 81.3501 122.804 81.5469 123.057 81.3782C123.309 81.2095 123.59 80.9566 123.59 80.9566L123.534 79.27Z" fill="url(#paint4_linear)"/>
<path d="M123.703 77.4992L123.422 80.282C123.422 80.282 123.731 82.0247 123.843 82.3902C123.984 82.868 124.349 82.5026 124.377 82.2215C124.433 82.3902 124.573 82.615 124.742 82.5588C124.91 82.5026 124.882 82.1091 124.882 82.1091C124.882 82.1091 125.079 82.362 125.248 82.2777C125.416 82.1934 125.416 81.8561 125.416 81.8561C125.416 81.8561 125.5 82.0528 125.725 81.9685C125.894 81.8842 125.837 80.7317 125.837 80.7317C125.837 80.7317 125.641 79.5793 125.5 78.989L125.276 77.19L123.703 77.4992Z" fill="#FFC5AB"/>
<path d="M77.8085 16.5029C78.0101 16.5029 78.1736 16.3393 78.1736 16.1375C78.1736 15.9357 78.0101 15.7721 77.8085 15.7721C77.6068 15.7721 77.4434 15.9357 77.4434 16.1375C77.4434 16.3393 77.6068 16.5029 77.8085 16.5029Z" fill="#002F59"/>
<path d="M81.038 16.4186C81.2396 16.4186 81.4031 16.255 81.4031 16.0532C81.4031 15.8513 81.2396 15.6877 81.038 15.6877C80.8363 15.6877 80.6729 15.8513 80.6729 16.0532C80.6729 16.255 80.8363 16.4186 81.038 16.4186Z" fill="#002F59"/>
<path d="M80.6172 14.8445H82.2743C82.2743 14.8445 81.7688 14.3385 81.2351 14.3385C80.7014 14.3385 80.6172 14.8445 80.6172 14.8445Z" fill="#002F59"/>
<path d="M78.5096 14.8445H76.8525C76.8525 14.8445 77.3581 14.3385 77.8917 14.3385C78.3973 14.3385 78.5096 14.8445 78.5096 14.8445Z" fill="#002F59"/>
<path opacity="0.1" d="M79.999 23.4739C79.999 23.4739 82.8077 23.4739 83.0324 19.876L79.999 22.0122V23.4739Z" fill="black"/>
<path d="M76.8534 16.9807C76.8534 16.9807 77.9207 17.1775 78.5105 16.9245C79.1004 16.6715 79.8587 16.7278 80.3362 16.8964C81.1226 17.2056 82.1618 16.9526 82.527 16.5872C82.527 16.5872 82.2742 18.7797 83.4538 19.2295C83.4538 19.2295 82.5551 21.1409 80.0272 22.0122C77.8926 22.7431 77.6399 20.7473 77.359 19.9884C77.05 19.2295 76.6287 17.0651 76.8534 16.9807Z" fill="white"/>
<path d="M81.9373 17.4024L81.7969 17.2056L84.0157 15.1818L84.4932 15.0131L84.0719 15.4348L81.9373 17.4024Z" fill="white"/>
<path d="M83.0608 19.5668L82.9766 19.3419L84.6056 18.33L85.0269 18.0489L84.6056 18.583L83.0608 19.5668Z" fill="white"/>
<path d="M44.27 25.4496C44.5212 24.352 43.8334 23.2588 42.7338 23.0081C41.6341 22.7573 40.539 23.4439 40.2878 24.5416C40.0366 25.6393 40.7244 26.7324 41.8241 26.9831C42.9237 27.2339 44.0188 26.5473 44.27 25.4496Z" fill="#2A393F"/>
<path d="M107.719 38.1965C108.603 38.1965 109.319 37.4814 109.319 36.5993C109.319 35.7171 108.603 35.002 107.719 35.002C106.836 35.002 106.119 35.7171 106.119 36.5993C106.119 37.4814 106.836 38.1965 107.719 38.1965Z" fill="#94B052"/>
<path d="M122.044 45.623C123.198 45.1547 123.753 43.8413 123.284 42.6894C122.815 41.5375 121.499 40.9833 120.345 41.4515C119.191 41.9198 118.636 43.2333 119.105 44.3852C119.574 45.5371 120.89 46.0913 122.044 45.623Z" fill="#FBE698"/>
<path d="M108.688 12.3793C108.939 11.2816 108.251 10.1885 107.152 9.93772C106.052 9.68697 104.957 10.3735 104.706 11.4712C104.455 12.5689 105.142 13.662 106.242 13.9128C107.342 14.1635 108.437 13.4769 108.688 12.3793Z" fill="#2A393F"/>
<path d="M17.5073 81.1543C17.7585 80.0566 17.0707 78.9635 15.9711 78.7128C14.8714 78.462 13.7763 79.1486 13.5251 80.2463C13.2739 81.3439 13.9618 82.437 15.0614 82.6878C16.1611 82.9385 17.2561 82.252 17.5073 81.1543Z" fill="#2A393F"/>
<path d="M41.4761 11.5656C44.0677 10.4336 45.2492 7.41875 44.1151 4.83185C42.981 2.24495 39.9607 1.06558 37.3692 2.19764C34.7776 3.32971 33.5961 6.34453 34.7302 8.93143C35.8643 11.5183 38.8846 12.6977 41.4761 11.5656Z" fill="#FBE698"/>
<path d="M3.73439 93.5075C5.79684 93.5075 7.46879 91.8356 7.46879 89.7731C7.46879 87.7107 5.79684 86.0388 3.73439 86.0388C1.67194 86.0388 0 87.7107 0 89.7731C0 91.8356 1.67194 93.5075 3.73439 93.5075Z" fill="#94B052"/>
<defs>
<linearGradient id="paint0_linear" x1="52.3661" y1="57.9018" x2="55.502" y2="57.9018" gradientUnits="userSpaceOnUse">
<stop stop-color="#FFC2BD"/>
<stop offset="0.3896" stop-color="#F2B2AD"/>
<stop offset="1" stop-color="#D8908D"/>
</linearGradient>
<linearGradient id="paint1_linear" x1="20.9029" y1="52.8631" x2="23.5268" y2="52.6439" gradientUnits="userSpaceOnUse">
<stop stop-color="#FFC2BD"/>
<stop offset="0.3896" stop-color="#F2B2AD"/>
<stop offset="1" stop-color="#D8908D"/>
</linearGradient>
<linearGradient id="paint2_linear" x1="96.1799" y1="61.5656" x2="97.833" y2="61.5656" gradientUnits="userSpaceOnUse">
<stop stop-color="#FFC2BD"/>
<stop offset="0.3896" stop-color="#F2B2AD"/>
<stop offset="1" stop-color="#D8908D"/>
</linearGradient>
<linearGradient id="paint3_linear" x1="97.9252" y1="62.8696" x2="100.197" y2="61.9618" gradientUnits="userSpaceOnUse">
<stop stop-color="#FFC2BD"/>
<stop offset="0.3896" stop-color="#F2B2AD"/>
<stop offset="1" stop-color="#D8908D"/>
</linearGradient>
<linearGradient id="paint4_linear" x1="122.879" y1="80.2435" x2="123.724" y2="80.6339" gradientUnits="userSpaceOnUse">
<stop stop-color="#FFC2BD"/>
<stop offset="0.3896" stop-color="#F2B2AD"/>
<stop offset="1" stop-color="#D8908D"/>
</linearGradient>
</defs>
</svg>
