<svg width="132" height="113" viewBox="0 0 132 113" fill="none" xmlns="http://www.w3.org/2000/svg">
<path d="M46.4178 70.4744C46.4178 70.4744 40.1578 49.9807 43.1648 40.4696C46.1718 30.9586 80.151 33.8473 84.7981 37.4719C89.4453 41.0964 83.6773 68.9755 81.9278 71.9733C80.1783 74.971 55.3568 74.5895 54.9741 74.4805C54.5641 74.3715 46.4178 70.4744 46.4178 70.4744Z" fill="#F29456"/>
<path d="M44.8049 62.9801C44.5042 60.1186 45.1329 57.1754 46.5817 54.6409C47.5112 53.0058 48.7687 51.5341 49.4794 49.8172C50.4088 47.5826 50.3815 45.0753 50.6822 42.6771C50.9829 40.2789 51.803 37.7172 53.8806 36.3546C55.6848 35.1555 58.0084 35.1555 60.1953 35.1555C61.8081 35.1828 63.421 35.1828 65.0338 35.319C66.92 35.4825 68.7789 35.8368 70.5831 36.3274C72.0866 36.7634 73.6721 37.363 74.5469 38.6438C75.039 39.3796 75.2303 40.2517 75.4217 41.0965C75.7224 42.4864 76.0231 43.8762 76.3511 45.2934C76.8978 47.7188 77.4172 50.1988 78.4833 52.4607C79.3308 54.3139 80.5336 56.0035 81.2443 57.8839C81.8457 59.41 82.1191 61.0452 82.4198 62.6803C82.6385 64.0157 82.7478 65.6781 81.545 66.3866C81.135 66.6319 80.6156 66.7137 80.1235 66.7409C73.4534 67.3132 67.0841 63.8249 60.414 63.3889C56.7509 63.1436 53.0878 63.8522 49.4521 64.261C48.9053 64.3155 48.3039 64.37 47.8119 64.0974C47.4292 63.8794 47.1831 63.4706 46.8278 63.1981C46.4724 62.9256 46.0077 62.7893 45.625 62.5713C45.2423 62.326 44.8869 61.9173 44.9962 61.4812" fill="#EA8249"/>
<path d="M41.1693 107.238C41.1693 107.238 81.5726 109.99 86.8485 107.238C92.1244 104.485 91.3864 87.9704 91.1403 87.6162C90.8943 87.2619 88.352 77.124 88.352 77.124C88.352 77.124 78.5109 76.4155 76.816 76.4155C75.0938 76.4155 52.924 78.1596 51.3112 78.4594C49.6983 78.7592 37.6429 78.9227 37.5336 79.7675C37.4243 80.5578 41.1693 107.238 41.1693 107.238Z" fill="#EA8249"/>
<path d="M42.7824 86.5259C43.3565 87.5343 44.4226 88.1338 45.5434 88.4336C46.6642 88.7334 47.8123 88.7606 48.9604 88.8696C49.7258 88.9514 50.5459 89.0876 51.1747 89.5237C51.8307 89.9597 52.2681 90.7773 52.0494 91.5404C51.9127 91.9764 51.5574 92.3579 51.4754 92.794C51.366 93.2845 51.5574 93.775 51.7487 94.2111C52.0494 94.9196 52.3501 95.6282 52.8422 96.2277C53.3342 96.8273 54.0723 97.2361 54.8377 97.1816C56.0679 97.0998 56.8333 95.9007 57.5714 94.8924C58.6375 93.448 60.1137 92.1672 61.8905 92.0036C62.4646 91.9491 63.066 92.0036 63.6401 91.8946C64.2688 91.7584 64.8429 91.4313 65.4716 91.3223C66.4284 91.1588 67.3852 91.5404 68.2599 91.9764C69.5721 92.6304 70.8022 93.4753 72.1417 94.0476C73.4812 94.6471 75.012 94.9741 76.4335 94.6199C76.8982 94.4836 77.3629 94.2656 77.691 93.9113C78.4291 93.0392 78.1284 91.7039 78.4837 90.6138C78.8664 89.4692 79.9326 88.7061 81.026 88.2156C82.1195 87.725 83.3223 87.4798 84.3611 86.9075C85.4272 86.3624 86.384 85.4086 86.5206 84.2095C86.63 83.1194 85.9192 81.9748 84.8805 81.6205C84.197 81.3752 83.4316 81.4298 82.6935 81.5115C70.6929 82.6016 58.6648 83.2012 46.6095 83.3102C45.7074 83.3102 44.1219 83.0376 43.2744 83.4737C42.2357 84.0732 42.2903 85.6266 42.7824 86.5259Z" fill="#D16E32"/>
<path d="M95.1584 74.1533C90.3198 72.3547 77.9637 69.8475 77.9637 69.8475C77.9637 69.8475 75.4761 80.1761 76.0229 80.0671C76.5696 79.9581 87.9962 83.5281 88.1602 83.3101C88.3242 83.0649 95.1584 74.1533 95.1584 74.1533Z" fill="#EA8249"/>
<path d="M80.6429 71.6463C81.5724 72.7091 82.5292 73.772 83.4586 74.8075C83.9506 75.3526 84.4154 75.8976 84.7161 76.5517C84.8801 76.9332 84.9621 77.342 85.0714 77.7235C85.1808 78.1868 85.2628 78.7591 84.9074 79.1134C84.6067 79.4404 84.0873 79.3859 83.6499 79.3042C82.7752 79.1134 81.9551 78.7591 81.1897 78.3503C80.6976 78.1051 80.2329 77.8326 79.8228 77.451C79.3035 76.9605 78.9481 76.3337 78.5927 75.7069C78.1553 74.8893 77.6906 74.0445 77.7179 73.1179C77.7453 72.1913 78.456 71.2102 79.3855 71.2647" fill="#D16E32"/>
<path d="M33.1602 74.1533C37.9987 72.3547 49.726 69.8475 49.726 69.8475C49.726 69.8475 52.8424 80.1761 52.323 80.0671C51.7762 79.9581 40.3496 83.5281 40.1856 83.3101C39.9943 83.0649 33.1602 74.1533 33.1602 74.1533Z" fill="#EA8249"/>
<path d="M48.6868 72.6819C48.9055 72.4911 49.1515 72.3004 49.4248 72.2459C49.8622 72.1641 50.3269 72.4366 50.5456 72.8182C50.7643 73.1997 50.819 73.663 50.7643 74.1263C50.573 75.7069 49.2882 76.9333 48.1127 78.0234C47.7573 78.3504 47.4293 78.6502 47.0739 78.9772C46.7185 79.3042 46.3632 79.6313 45.8984 79.7675C45.297 79.931 44.1216 79.9583 43.8482 79.277C43.5475 78.5957 44.3676 77.6963 44.723 77.2058C45.8711 75.5434 47.1559 73.99 48.6868 72.6819Z" fill="#D16E32"/>
<path d="M91.9054 73.4721C97.072 73.6084 97.7554 76.5516 97.5914 81.13C97.4274 85.7084 95.1585 104.622 92.9169 107.129C90.648 109.636 87.0669 108.382 86.1375 107.21C85.208 106.039 84.962 82.3836 85.372 78.7863C85.8094 75.2435 88.5704 73.3904 91.9054 73.4721Z" fill="#F29456"/>
<path d="M36.4128 73.4721C31.2189 73.6084 30.5628 76.5789 30.7268 81.1573C30.8909 85.7357 33.1598 104.649 35.4014 107.156C37.643 109.663 41.2514 108.41 42.1808 107.238C43.1102 106.066 43.3563 82.4109 42.9462 78.8136C42.5088 75.2435 39.7479 73.3904 36.4128 73.4721Z" fill="#F29456"/>
<path d="M50.2173 39.6521C50.026 39.4886 49.8073 39.3251 49.5613 39.1888C49.3426 39.0526 49.0966 38.9163 48.8232 38.8345C48.6865 38.78 48.5498 38.78 48.3858 38.78C48.2491 38.8073 48.1398 38.8345 48.0031 38.9163C47.9484 38.9708 47.8938 39.0525 47.9484 39.1071C48.0031 39.1888 48.0578 39.2706 48.1398 39.3523C48.2491 39.4341 48.3311 39.4886 48.4678 39.5703C48.5498 39.5976 48.6318 39.6248 48.7138 39.6794C48.7138 39.6794 48.7412 39.6793 48.7685 39.7066C48.7959 39.7066 48.8232 39.7339 48.8232 39.7339C48.9325 39.7884 49.0419 39.8429 49.1512 39.8974C49.2606 39.9519 49.3426 40.0064 49.4519 40.0881C49.5066 40.1154 49.5339 40.1426 49.5886 40.1971C49.5886 40.1971 49.6159 40.2244 49.6433 40.2244C49.6433 40.2244 49.698 40.2516 49.698 40.2789C49.8073 40.3607 49.8893 40.4697 49.9987 40.5242C50.0533 40.5514 50.1353 40.6059 50.19 40.6332C50.2447 40.6604 50.3267 40.6604 50.3814 40.6604C50.4907 40.6877 50.6001 40.5514 50.6001 40.4424C50.6547 40.0609 50.4634 39.8429 50.2173 39.6521Z" fill="#EA8249"/>
<path d="M50.1633 41.369C50.1087 41.2872 50.0266 41.26 49.972 41.2327C49.89 41.1782 49.7806 41.151 49.6986 41.1237C49.6166 41.0965 49.5073 41.0692 49.4252 41.042C49.3706 41.042 49.3159 41.0147 49.2612 41.0147C49.1792 41.0147 49.1245 41.0147 49.0425 41.0692C49.0699 41.042 49.0972 41.042 49.1245 41.0147C49.0425 41.0147 48.9605 41.0147 48.9058 41.0692C48.8785 41.0965 48.8512 41.151 48.8785 41.2055C48.9332 41.26 49.0152 41.3145 49.0699 41.3417C49.1519 41.3962 49.2612 41.4235 49.3706 41.4508C49.4526 41.4508 49.5346 41.478 49.6439 41.478C49.6986 41.478 49.7259 41.478 49.7806 41.478C49.8353 41.478 49.8626 41.478 49.9173 41.478C49.9993 41.478 50.1087 41.478 50.1633 41.4235C50.1633 41.4235 50.1907 41.3962 50.1633 41.369Z" fill="#EA8249"/>
<path d="M48.878 49.2993C48.6593 49.2448 48.4406 49.2993 48.2219 49.3538C47.9759 49.4083 47.7572 49.5173 47.5385 49.6263C47.0738 49.8716 46.6091 50.1714 46.1444 50.4439C45.9257 50.5802 45.543 50.7164 45.543 50.989C45.543 51.2615 45.871 51.2615 46.0624 51.1525C46.5271 50.8799 46.9918 50.5529 47.4565 50.2259C47.7025 50.0624 47.9212 49.9261 48.1673 49.7626C48.386 49.6263 48.6593 49.5173 48.878 49.3538C48.9327 49.3811 48.9327 49.3266 48.878 49.2993Z" fill="#EA8249"/>
<path d="M49.0146 48.0185C48.9876 48.0185 48.9605 48.0454 49.0146 48.0185V48.0185Z" fill="#ECC58B"/>
<path d="M49.2881 47.528C49.2061 47.4462 49.124 47.4189 49.0147 47.4189C48.96 47.4189 48.9327 47.4189 48.878 47.4189C48.7687 47.4189 48.6593 47.4462 48.5226 47.4734C48.4133 47.5007 48.3039 47.5552 48.1946 47.637C48.1399 47.6642 48.0853 47.7187 48.0306 47.746C47.9486 47.8005 47.9212 47.8822 47.8939 47.964C47.8666 47.9912 47.8666 48.0185 47.8392 48.073C47.8119 48.2093 47.8939 48.291 48.0306 48.3183C48.0579 48.3183 48.0853 48.3183 48.1126 48.3183C48.1399 48.3183 48.1673 48.3183 48.1946 48.3183C48.2493 48.3183 48.2766 48.3183 48.3039 48.291C48.3586 48.2638 48.386 48.2638 48.4406 48.2638C48.5226 48.2365 48.6046 48.2093 48.6867 48.182C48.796 48.1548 48.9053 48.1275 48.9874 48.073C49.0147 48.073 49.042 48.0457 49.0694 48.0457C49.1514 48.0185 49.2061 47.9912 49.2607 47.9095C49.2881 47.855 49.3427 47.8005 49.3427 47.746C49.3427 47.637 49.3427 47.5552 49.2881 47.528Z" fill="#EA8249"/>
<path d="M80.3419 51.1525C80.0959 50.9618 79.8225 50.771 79.5765 50.6075C79.3304 50.4167 79.0571 50.2532 78.7837 50.0897C78.483 49.8989 78.2096 49.7082 77.9089 49.5446C77.6902 49.4356 77.2802 49.2176 77.0615 49.4356C77.0068 49.4901 77.0068 49.5719 77.0615 49.6264C77.1435 49.7082 77.2802 49.7354 77.3895 49.7899C77.5262 49.8444 77.6629 49.9262 77.7996 50.0079C78.0456 50.1714 78.2917 50.3622 78.565 50.5257C78.811 50.7165 79.0844 50.9073 79.3304 51.0708C79.4671 51.1525 79.5765 51.2343 79.7131 51.3433C79.8225 51.425 79.9865 51.5068 80.0412 51.6158C80.0685 51.6703 80.0412 51.7248 80.0412 51.7793C80.0412 51.8338 80.0685 51.8883 80.0959 51.9428C80.1505 51.9973 80.3419 51.9973 80.3966 51.9701C80.4512 51.9428 80.4786 51.9156 80.5059 51.8611C80.6426 51.6158 80.5606 51.3433 80.3419 51.1525Z" fill="#EA8249"/>
<path d="M79.0846 48.4C79.0299 48.3182 78.9752 48.2365 78.8659 48.2092C78.8112 48.2092 78.7565 48.182 78.7292 48.182C78.6198 48.1547 78.5105 48.1547 78.3738 48.1547C78.3191 48.1547 78.2918 48.1275 78.2371 48.1275C78.1825 48.1275 78.1551 48.1275 78.1005 48.1275C78.1005 48.1275 78.1004 48.1275 78.0731 48.1275C78.0458 48.1275 77.9911 48.1002 77.9364 48.1002C77.9091 48.1002 77.8544 48.1002 77.8271 48.1002H77.7998C77.6357 48.1002 77.5537 48.291 77.6631 48.4272L77.6904 48.4545C77.6631 48.4273 77.6631 48.4273 77.6904 48.4545C77.6904 48.509 77.7451 48.5363 77.7998 48.5635C77.8271 48.5908 77.8818 48.618 77.9364 48.6453C78.0458 48.6998 78.1551 48.7543 78.2918 48.7815C78.4012 48.8088 78.5378 48.836 78.6472 48.836C78.7018 48.836 78.7565 48.836 78.8385 48.8088C78.9479 48.7815 79.0572 48.727 79.1119 48.618C79.1392 48.5908 79.1392 48.4818 79.0846 48.4Z" fill="#EA8249"/>
<path d="M80.3422 41.4779C80.0415 41.3416 79.6861 41.3416 79.3581 41.3689C79.03 41.3961 78.702 41.4506 78.374 41.5051C77.7452 41.6414 77.0892 41.8049 76.6244 42.2409C76.5424 42.3227 76.5971 42.4317 76.7065 42.4317C77.3079 42.4044 77.8819 42.1864 78.4833 42.0774C78.784 42.0229 79.0847 41.9957 79.3854 41.9957C79.6861 41.9957 80.0142 41.9957 80.3149 41.9139C80.4789 41.8594 80.5609 41.5596 80.3422 41.4779Z" fill="#EA8249"/>
<path d="M77.8002 39.7067C77.6909 39.6794 77.5542 39.6794 77.4448 39.7067C77.3082 39.7067 77.1988 39.7612 77.0621 39.7884C76.9528 39.8157 76.8434 39.8429 76.7068 39.8974C76.5701 39.9247 76.4881 40.0064 76.3787 40.0609C76.2967 40.1154 76.3241 40.2244 76.4334 40.2517H76.6248C76.7068 40.2517 76.7614 40.2517 76.8161 40.2244C76.9255 40.1972 77.0621 40.1972 77.1715 40.1427C77.2808 40.1154 77.4175 40.0882 77.5269 40.0337C77.6362 39.9792 77.7455 39.9519 77.8276 39.8702C77.8822 39.7884 77.8549 39.7339 77.8002 39.7067Z" fill="#EA8249"/>
<path d="M42.2354 80.367C45.1877 76.1429 52.2952 72.3004 52.2952 72.3004H77.6633C77.6633 72.3004 84.3608 76.5245 85.5909 79.3315C85.5909 79.3315 64.0225 85.218 63.5304 85.0817C63.0657 84.9727 42.2354 80.367 42.2354 80.367Z" fill="#4789C8"/>
<path d="M52.0762 75.6796C52.0762 75.6796 50.9007 77.3965 51.6661 77.9688C52.4316 78.5411 53.3337 78.8136 54.0991 78.8409C54.8645 78.8954 62.136 80.9938 62.9561 81.2936C63.8035 81.5934 65.061 82.0022 65.061 82.0022C65.061 82.0022 71.3484 79.2224 72.9065 78.9499C74.4647 78.7046 76.2142 78.1869 76.4056 77.9961C76.6243 77.7781 77.0343 76.0067 75.9409 75.2981C74.8474 74.5895 58.8009 74.2625 58.7736 74.2625C58.7189 74.2625 52.0762 75.6796 52.0762 75.6796Z" fill="#80AAB7"/>
<path d="M63.0932 24.9087C54.2362 24.9087 51.6939 33.0299 51.6939 39.1616C51.6939 45.2934 50.6004 53.2238 49.5343 55.7583C48.4408 58.2928 78.2102 57.5569 78.2102 57.5569C78.2102 57.5569 74.6838 45.8385 74.4924 39.6249C74.3284 33.3842 72.7703 24.9087 63.0932 24.9087Z" fill="#2A393F"/>
<path d="M66.3461 83.3104C66.3461 83.3104 70.802 84.0462 72.5241 85.1091C74.219 86.1719 79.4129 91.8404 79.0029 92.6852C78.6202 93.53 78.5655 93.9388 77.9094 93.7753C77.9094 93.7753 77.5814 94.5384 76.8706 94.5384C76.8706 94.5384 76.4059 95.3014 75.7498 95.2197C75.7498 95.2197 75.4218 95.8192 74.6564 95.574C73.891 95.3287 71.7587 90.4233 70.6926 89.6602C69.6265 88.8971 66.2641 88.2158 65.034 88.1886C63.8312 88.1613 63.1751 84.455 63.5852 84.4823C63.9679 84.5368 66.3461 83.3104 66.3461 83.3104Z" fill="#FFC5AB"/>
<path d="M47.019 77.9145C42.0438 77.8328 40.0756 82.7109 43.4106 85.4361C46.7457 88.1614 65.4165 88.8699 66.1545 88.7882C66.8926 88.7064 68.0681 84.128 67.3847 83.1197C66.6466 82.1114 52.4043 77.9963 47.019 77.9145Z" fill="#4789C8"/>
<path d="M61.7803 84.6185C61.7803 84.6185 57.4338 85.8449 55.8483 87.0985C54.2628 88.3521 49.7523 94.5384 50.2443 95.3287C50.7364 96.119 50.8184 96.5278 51.4471 96.2825C51.4471 96.2825 51.8572 96.9911 52.5679 96.9093C52.5679 96.9093 53.142 97.6179 53.7707 97.4816C53.7707 97.4816 54.1808 98.0539 54.8915 97.7269C55.6023 97.3999 57.2151 92.3037 58.1719 91.4044C59.1287 90.5323 62.409 89.4967 63.6118 89.3332C64.8147 89.1697 65.0607 85.4089 64.6506 85.4906C64.2406 85.5724 61.7803 84.6185 61.7803 84.6185Z" fill="#FFC5AB"/>
<path d="M55.9036 49.7356C51.3111 50.5804 49.8076 52.1611 48.7142 53.7417C47.6207 55.3223 44.4497 62.9802 43.9576 67.6676C43.4656 72.3278 50.3817 75.2438 51.9945 75.8433C53.58 76.4156 75.1485 76.4156 75.1485 76.4156C75.1485 76.4156 81.3265 73.7449 82.912 70.3383C84.4975 66.9318 77.8274 53.4964 75.8045 51.834C74.1644 50.4714 70.4466 49.4904 70.4466 49.4904L62.1637 50.1444L55.9036 49.7356Z" fill="#FFBF5E"/>
<path d="M60.4412 45.6478C60.4412 45.6478 59.1563 49.7356 55.876 49.7356C55.876 49.7356 57.9535 53.9052 63.3935 53.8235C68.8334 53.7417 70.4189 49.4903 70.4189 49.4903C70.4189 49.4903 66.0725 49.0816 65.8264 45.4843L60.4412 45.6478Z" fill="#FFC5AB"/>
<path d="M80.3695 77.1513C85.29 76.5245 87.805 81.1574 84.798 84.2369C81.791 87.3164 63.3116 90.0689 62.5735 90.0689C61.8354 90.0689 60.1405 85.654 60.7419 84.5639C61.316 83.4738 75.0389 77.8054 80.3695 77.1513Z" fill="#4789C8"/>
<path d="M66.3192 47.1192C66.0732 46.7105 65.9092 46.2199 65.8545 45.6749C65.6632 45.6204 65.4718 45.5659 65.2805 45.5114L60.4419 45.6476C60.4419 45.6476 59.8952 47.3645 58.6377 48.5636C58.747 48.6181 58.829 48.6454 58.9384 48.6726C60.4692 49.1087 62.5741 49.4084 64.0503 48.7816C65.0344 48.3456 65.8272 47.8823 66.3192 47.1192Z" fill="#DD9878"/>
<path d="M56.5875 37.363C56.5875 37.363 54.9473 37.2812 54.9473 39.1616C54.9473 41.042 56.5875 41.151 56.5875 41.151C56.5875 41.151 58.4737 48.0186 63.0935 48.1004C67.8774 48.1821 69.2169 41.2055 69.2169 41.2055C69.2169 41.2055 70.8844 40.715 70.7751 39.0799C70.6657 37.4447 69.3262 37.5265 69.3262 37.5265C69.3262 37.5265 63.9956 35.8096 63.1755 31.7762C63.2029 31.7762 61.016 36.5454 56.5875 37.363Z" fill="#FFC5AB"/>
<path d="M56.3953 38.78C56.3406 38.6438 56.3133 38.4803 56.2039 38.344C56.1219 38.2077 55.9579 38.126 55.8212 38.1532C55.6845 38.1805 55.5479 38.2622 55.5479 38.4258C55.5479 38.5348 55.7392 38.562 55.7665 38.453C55.7665 38.3985 55.8212 38.3985 55.8486 38.3713C55.9032 38.3713 55.9579 38.3985 55.9852 38.453C56.0399 38.5348 56.0672 38.6165 56.0946 38.6983C56.1219 38.7528 56.1219 38.8073 56.1219 38.8618C56.0672 38.8345 55.9852 38.8345 55.9032 38.889C55.7665 38.9708 55.7119 39.1071 55.6845 39.2433C55.6572 39.4068 55.6845 39.5976 55.8486 39.7066C55.9852 39.7611 56.1493 39.7611 56.2586 39.6794C56.3953 39.5976 56.45 39.4341 56.45 39.2706C56.4773 39.1071 56.4226 38.9436 56.3953 38.78Z" fill="#DD9878"/>
<path d="M69.6263 39.3525C69.6263 39.2707 69.6536 39.1617 69.681 39.08C69.7357 38.971 69.7903 38.862 69.845 38.7529C69.845 38.7257 69.8723 38.6984 69.8723 38.6984C69.8723 38.6984 69.8997 38.6712 69.8997 38.6439C69.9817 38.7257 70.1457 38.6984 70.1457 38.5622C70.1457 38.3442 69.8997 38.2897 69.7357 38.3714C69.6536 38.4259 69.599 38.4804 69.5716 38.5622C69.517 38.6439 69.4623 38.7257 69.435 38.8074C69.2709 39.1345 69.2163 39.4888 69.3803 39.843C69.4623 40.0065 69.599 40.1701 69.7903 40.1428C69.9817 40.1428 70.091 39.952 70.1184 39.8158C70.173 39.6523 70.173 39.4615 70.0364 39.3252C69.927 39.2435 69.7357 39.2707 69.6263 39.3525Z" fill="#DD9878"/>
<path d="M70.3917 49.463C70.1183 49.9263 69.8996 50.3896 69.5716 50.8256C69.2709 51.2344 68.9155 51.6159 68.5328 51.9702C67.7127 52.6787 66.7559 53.1965 65.7171 53.4963C64.5964 53.8233 63.3936 53.8778 62.2454 53.6326C61.644 53.5236 61.0426 53.3056 60.4686 53.0875C59.8672 52.8423 59.2931 52.597 58.7464 52.27C58.1996 51.9429 57.6802 51.5887 57.2155 51.1526C56.7508 50.7166 56.3681 50.226 55.9854 49.7355C55.9034 49.6537 55.794 49.7627 55.8487 49.8445C56.3954 50.8528 57.2975 51.6977 58.1996 52.379C58.719 52.7605 59.3204 53.0603 59.9218 53.3328C60.5232 53.6053 61.1246 53.8778 61.7807 54.0414C64.1316 54.6682 66.7013 54.0959 68.6148 52.597C69.1069 52.2155 69.5443 51.7794 69.927 51.2889C70.3097 50.7983 70.6924 50.2533 70.9111 49.6537C70.9384 49.3812 70.5284 49.2177 70.3917 49.463Z" fill="#EBAE53"/>
<path d="M52.7867 56.8756C52.7867 56.7938 52.7047 56.7666 52.6501 56.8483C52.5407 57.0118 52.486 57.2026 52.404 57.3934C52.3494 57.5841 52.2673 57.7749 52.2127 57.9657C52.1033 58.3744 51.9666 58.7832 51.8573 59.192C51.7479 59.6008 51.6659 60.0096 51.5566 60.4184C51.5019 60.6091 51.4472 60.7999 51.4199 61.0179C51.3926 61.1269 51.3652 61.2359 51.3652 61.3449C51.3652 61.4539 51.4199 61.5357 51.4472 61.6175C51.4746 61.672 51.5293 61.6992 51.5839 61.6447C51.6659 61.5902 51.7479 61.5085 51.7753 61.4267C51.83 61.3449 51.8573 61.2359 51.8846 61.1542C51.9393 60.9634 51.994 60.7726 52.0487 60.5546C52.158 60.1458 52.2673 59.7098 52.3494 59.301C52.4587 58.8922 52.5407 58.4835 52.6227 58.0747C52.6774 57.8839 52.6774 57.6659 52.7321 57.4751C52.7867 57.3116 52.8141 57.0936 52.7867 56.8756Z" fill="#EBAE53"/>
<path d="M75.3672 62.1081C75.3126 61.8628 75.2305 61.5903 75.1759 61.345C75.0392 60.8272 74.8752 60.3094 74.7111 59.7916C74.5471 59.3011 74.3558 58.7833 74.1371 58.2928C74.0277 58.0475 73.9184 57.8022 73.809 57.5569C73.7544 57.4207 73.6997 57.2844 73.6177 57.1754C73.563 57.0937 73.5357 56.9846 73.4263 56.9574C73.3717 56.9574 73.3443 56.9574 73.317 57.0119C73.2897 57.0937 73.317 57.2027 73.3443 57.2844C73.3717 57.4207 73.4263 57.5297 73.4537 57.666C73.5357 57.9112 73.6177 58.1837 73.6997 58.429C73.8637 58.9196 74.0277 59.4101 74.1918 59.9279C74.3558 60.4184 74.4925 60.909 74.6291 61.4268C74.7111 61.672 74.7658 61.9446 74.8205 62.1898C74.8478 62.2988 74.9025 62.4078 74.9298 62.5441C74.9845 62.6804 75.0939 62.7621 75.1759 62.8711C75.2032 62.9256 75.2852 62.9256 75.3125 62.8439C75.3399 62.7349 75.3946 62.6259 75.3946 62.5169C75.4219 62.3806 75.3946 62.2443 75.3672 62.1081Z" fill="#EBAE53"/>
<path d="M78.1001 66.2231C77.7448 66.3594 77.4441 66.6592 77.198 66.9589C76.8973 67.286 76.624 67.5857 76.3506 67.9128C76.0772 68.2125 75.8039 68.5396 75.5305 68.8666C75.3938 69.0301 75.2571 69.1664 75.1478 69.3571C75.0658 69.4661 74.9838 69.6569 74.9564 69.7114C74.9291 69.7387 74.9291 69.8204 74.9838 69.8204C75.3118 69.9022 75.6125 69.5752 75.8039 69.3571C76.1046 69.0301 76.3779 68.7031 76.6786 68.3761C76.952 68.049 77.2527 67.722 77.5261 67.395C77.7994 67.0952 78.1001 66.7409 78.2095 66.3321C78.2095 66.2776 78.1548 66.1959 78.1001 66.2231Z" fill="#A94E56"/>
<path d="M51.8307 69.5481C51.7487 69.3573 51.5847 69.1938 51.448 69.0303C51.3113 68.8667 51.1746 68.7032 51.0379 68.5397C50.7372 68.2127 50.4365 67.9129 50.1358 67.6131C49.9992 67.4496 49.8351 67.3134 49.6711 67.1771C49.5071 67.0136 49.3431 66.9046 49.1791 66.7411C49.0971 66.6593 48.933 66.4413 48.7964 66.4685C48.7144 66.4958 48.687 66.5775 48.7144 66.632C48.7144 66.6593 48.7417 66.632 48.7417 66.632C48.7417 66.632 48.8237 66.7411 48.851 66.7683C48.9057 66.8501 48.9604 66.9046 49.0424 66.9863C49.1517 67.1226 49.2611 67.2861 49.3704 67.4224C49.6165 67.6949 49.8625 67.9674 50.1085 68.2399C50.3545 68.5125 50.6006 68.7577 50.8466 69.0303C50.9833 69.1665 51.12 69.2755 51.2566 69.4118C51.3933 69.5208 51.53 69.6571 51.694 69.7388C51.8034 69.7388 51.858 69.6571 51.8307 69.5481Z" fill="#A94E56"/>
<path d="M48.6319 62.5442L51.3109 76.3611C51.4476 77.0696 52.0763 77.6147 52.8144 77.6147H74.8749C75.6676 77.6147 76.3237 77.0151 76.4057 76.2521L77.9366 62.2172C78.0459 61.3178 77.3078 60.5003 76.4057 60.5275L50.1354 60.7455C49.1787 60.7183 48.4406 61.5904 48.6319 62.5442Z" fill="#DCEAF2"/>
<path d="M65.7987 68.6759C65.6893 68.3216 65.498 67.9945 65.2519 67.722C65.1152 67.613 64.9512 67.504 64.8145 67.395C64.4865 67.2042 64.1038 67.0952 63.7211 67.0952C63.4204 67.0952 63.147 67.1497 62.8737 67.286C62.6003 67.3677 62.3816 67.5313 62.1629 67.722C61.9442 67.9128 61.8075 68.1581 61.7255 68.4306C61.5889 68.6759 61.5342 68.9756 61.5342 69.2754C61.5615 69.4662 61.5889 69.6569 61.6162 69.8477C61.7255 70.202 61.9169 70.529 62.1629 70.8015C62.2996 70.9105 62.4636 71.0196 62.6003 71.1286C62.9283 71.3193 63.311 71.4283 63.6938 71.4283C63.9945 71.4283 64.2678 71.3738 64.5412 71.2376C64.8145 71.1558 65.0332 70.9923 65.2519 70.8015C65.4706 70.6108 65.6073 70.3655 65.6893 70.093C65.826 69.8477 65.8807 69.5479 65.8807 69.2482C65.8533 69.0574 65.826 68.8666 65.7987 68.6759Z" fill="#FDFAF5"/>
<path d="M84.1962 84.4004C84.0048 84.6184 83.7588 84.782 83.5401 84.9455C83.2941 85.109 83.0207 85.2452 82.7747 85.3543C82.1186 85.6268 81.4352 85.8175 80.7518 86.0083C79.303 86.4171 77.8815 86.7714 76.4053 87.1257C74.9018 87.4799 73.4256 87.8615 71.9221 88.2157C70.4733 88.57 69.0245 88.9243 67.5483 89.2241C65.9628 89.5239 64.3773 89.7146 62.7918 89.9599C62.7918 89.9599 62.7918 89.9326 62.7644 89.9326C61.835 88.9243 61.1516 87.6707 60.8235 86.3353C60.7415 86.0083 60.6595 85.654 60.6595 85.2997C60.6595 84.9455 60.8235 84.6729 61.0969 84.4549C61.3156 84.2642 61.589 84.1279 61.8623 83.9916C62.2177 83.8009 62.5731 83.6374 62.9284 83.4466C65.7714 82.0567 68.6691 80.6941 71.6488 79.6585C72.4689 79.3587 73.3163 79.1135 74.1637 78.8682C74.5738 78.7592 74.9838 78.6229 75.4212 78.5139C75.8312 78.4049 76.2686 78.2959 76.6513 78.0779V78.0506C76.2413 78.0234 75.8586 78.1051 75.4759 78.2141C75.0658 78.2959 74.6831 78.4049 74.2731 78.5139C73.4803 78.7319 72.6875 78.9772 71.9221 79.2497C70.3913 79.7675 68.8878 80.3398 67.3843 80.9939C66.5915 81.3482 65.8261 81.7024 65.0333 82.0567C64.7053 81.866 64.3499 81.7297 63.9946 81.5934C63.5845 81.4299 63.2018 81.2664 62.7918 81.1029C61.9717 80.7759 61.1516 80.4488 60.2768 80.2308C58.4453 79.7675 56.7231 79.3315 55.0282 78.9227C54.5362 78.8137 54.0714 78.7319 53.5794 78.6229C53.0873 78.5139 52.5953 78.3777 52.1032 78.3777C52.0212 78.3777 51.9939 78.4867 52.0759 78.5139C52.4586 78.6774 52.9233 78.7592 53.3334 78.8682C53.7707 78.9772 54.2081 79.0862 54.6455 79.1952C55.5203 79.4132 56.395 79.6313 57.2698 79.8765C58.992 80.3126 60.7415 80.7214 62.4091 81.3482C62.8464 81.5117 63.3112 81.7024 63.7485 81.866C64.0766 82.0022 64.4046 82.1385 64.76 82.193C64.1312 82.4928 63.5025 82.7925 62.8738 83.0923C62.4911 83.2831 62.1084 83.4738 61.753 83.6646C61.4796 83.8009 61.2063 83.9371 60.9602 84.1551C60.7142 84.3459 60.5228 84.5912 60.4135 84.891C60.3041 85.2452 60.3588 85.6268 60.4135 85.9811C60.7142 87.5617 61.4523 89.0333 62.5184 90.2052C62.6004 90.3142 62.7098 90.2597 62.7918 90.1779C64.2679 90.2597 65.7168 90.0416 67.1656 89.7964C68.6691 89.5239 70.1726 89.1696 71.6488 88.8153C73.1796 88.4338 74.6831 88.0795 76.214 87.6979C77.6901 87.3437 79.1663 86.9894 80.6151 86.5534C81.3805 86.3353 82.1733 86.0628 82.9114 85.7358C83.2121 85.5995 83.5128 85.4633 83.7588 85.2725C83.8955 85.1635 84.0322 85.0817 84.1142 84.9455C84.1962 84.8092 84.2509 84.6729 84.3055 84.5094C84.3329 84.4004 84.2235 84.3459 84.1962 84.4004Z" fill="#1B2C40"/>
<path d="M54.6458 87.916C54.5091 87.807 54.3178 87.7797 54.1264 87.7525C53.9077 87.7252 53.689 87.698 53.4703 87.6707C53.0603 87.6162 52.6776 87.5617 52.2675 87.5345C51.5021 87.4527 50.7094 87.3437 49.9439 87.2074C48.3858 86.9622 46.8276 86.6079 45.3514 86.0356C44.9414 85.8721 44.5313 85.7086 44.1486 85.5178C43.7659 85.327 43.3832 85.0818 43.0005 84.8637C42.9185 84.8092 42.8638 84.9182 42.9185 84.9727C43.4926 85.5178 44.2306 85.8721 44.9414 86.1718C45.6521 86.4989 46.4175 86.7441 47.1556 86.9622C48.7138 87.3982 50.2993 87.6435 51.9122 87.8615C52.3769 87.916 52.8416 87.9705 53.279 88.025C53.525 88.0523 53.7437 88.0795 53.9897 88.1068C54.2084 88.134 54.4271 88.1613 54.6458 88.0795C54.7278 88.0795 54.7005 87.9705 54.6458 87.916Z" fill="#678791"/>
<path d="M55.7939 88.5964C55.8198 88.5706 55.8198 88.5706 55.7939 88.5964C55.7939 88.5706 55.7939 88.5706 55.7939 88.5964Z" fill="#DD9878"/>
<path d="M56.2312 87.9978C56.2039 87.9433 56.1766 87.9161 56.1219 87.9161C56.1219 87.9161 56.1219 87.9161 56.0946 87.9161C56.0672 87.9161 56.0399 87.9161 56.0125 87.9161C55.9852 87.9161 55.9579 87.9161 55.9579 87.9161C55.9032 87.9161 55.8759 87.9433 55.8212 87.9706C55.7392 88.0251 55.6572 88.1068 55.5752 88.1886C55.5205 88.2704 55.4931 88.3521 55.4658 88.4339C55.4385 88.4884 55.4385 88.5429 55.4385 88.5974C55.4385 88.6246 55.4385 88.6246 55.4385 88.6519C55.4385 88.6791 55.4385 88.7064 55.4658 88.7609C55.4385 88.7064 55.4658 88.7609 55.4658 88.7609C55.4931 88.8427 55.5752 88.9244 55.6845 88.8699C55.7118 88.8699 55.7118 88.8699 55.7392 88.8427C55.7665 88.8154 55.7939 88.8154 55.7665 88.8427C55.7939 88.8427 55.7938 88.8154 55.7938 88.8154C55.7938 88.8154 55.7938 88.8154 55.7938 88.7881L55.8212 88.7609C55.8485 88.7336 55.8485 88.6791 55.8212 88.6791L55.7938 88.6519C55.7938 88.6246 55.7938 88.6246 55.7938 88.5974C55.7938 88.5701 55.7938 88.5701 55.7938 88.5429C55.7938 88.5156 55.7938 88.5156 55.8212 88.4884C55.8212 88.4884 55.8212 88.4884 55.8212 88.4611C55.8485 88.4339 55.8485 88.4066 55.8759 88.3794C55.8759 88.3521 55.9032 88.3521 55.9032 88.3249L55.9305 88.2976C55.9305 88.2976 55.9579 88.2976 55.9579 88.2704C55.9852 88.2704 55.9852 88.2431 56.0125 88.2159C56.0125 88.2159 56.0125 88.2159 56.0399 88.2159C56.0672 88.2159 56.0672 88.1886 56.0946 88.1886C56.1219 88.1886 56.1219 88.1613 56.1492 88.1613C56.1492 88.1613 56.1492 88.1613 56.1766 88.1613C56.2312 88.1341 56.2586 88.0523 56.2312 87.9978Z" fill="#DD9878"/>
<path d="M61.0965 38.0442C60.9599 37.8535 60.7412 37.7717 60.5498 37.69C60.3585 37.6354 60.1671 37.6082 59.9757 37.6354C59.8117 37.6627 59.6204 37.7445 59.511 37.8535C59.4563 37.908 59.4017 37.9897 59.3743 38.0715C59.347 38.1532 59.3197 38.235 59.3743 38.3167C59.4017 38.3713 59.4563 38.4258 59.5384 38.4258C59.6204 38.4258 59.7024 38.3985 59.757 38.3167L59.7844 38.2895C59.7844 38.2895 59.7844 38.2895 59.8117 38.2895H59.8391C59.8391 38.2895 59.8664 38.2895 59.8664 38.2622C59.8937 38.235 59.9211 38.235 59.9484 38.2077C59.9484 38.2077 59.9757 38.2077 59.9757 38.1805C60.0031 38.1805 60.0304 38.1532 60.0851 38.1532H60.1124C60.1124 38.1532 60.1124 38.1532 60.1398 38.1532C60.1671 38.1532 60.1944 38.1532 60.2218 38.1532H60.2491H60.2764C60.3038 38.1532 60.3584 38.1805 60.3858 38.1805C60.4131 38.1805 60.4131 38.1805 60.4405 38.2077H60.4678H60.4951C60.5225 38.2077 60.5225 38.235 60.5498 38.235C60.5771 38.2622 60.6045 38.2622 60.6318 38.2895C60.7138 38.344 60.7685 38.3713 60.8778 38.4258C61.0145 38.4803 61.2332 38.235 61.0965 38.0442Z" fill="#2A393F"/>
<path d="M60.9333 40.388C60.9333 40.2517 60.9059 40.1154 60.8786 39.9792C60.8513 39.8974 60.8239 39.8429 60.7693 39.7884C60.7419 39.7339 60.6873 39.6794 60.6052 39.6522C60.5506 39.6249 60.5232 39.6249 60.4686 39.5976C60.3866 39.5704 60.3319 39.5704 60.2499 39.5976C60.1952 39.5976 60.1405 39.5976 60.1132 39.6249C60.0312 39.6522 59.9765 39.6794 59.9492 39.7339C59.9218 39.7612 59.8945 39.8157 59.8672 39.8429C59.8125 39.9247 59.7852 40.0337 59.7852 40.1154V40.388V40.5242C59.7852 40.5515 59.7852 40.5787 59.7852 40.606C59.7852 40.6332 59.7852 40.6605 59.8125 40.715C59.8125 40.7422 59.8125 40.7695 59.8398 40.7695C59.8398 40.824 59.8672 40.8513 59.8945 40.9058C59.9492 40.9875 60.0312 41.0693 60.1405 41.0965C60.1952 41.1238 60.2225 41.151 60.3045 41.1783C60.3866 41.2055 60.4412 41.2055 60.5232 41.1783C60.6052 41.1783 60.6599 41.151 60.7146 41.1238C60.7966 41.0693 60.8513 41.0148 60.906 40.933C60.9333 40.9058 60.9333 40.8785 60.9333 40.8513C60.9606 40.824 60.9606 40.7968 60.9606 40.7695V40.7423C60.988 40.6605 60.988 40.606 60.988 40.5515C60.9333 40.497 60.9333 40.4425 60.9333 40.388Z" fill="#2A393F"/>
<path d="M65.4711 38.4259C65.5531 38.3987 65.6351 38.3442 65.7171 38.2897C65.7445 38.2624 65.7718 38.2624 65.7991 38.2352C65.8265 38.2352 65.8265 38.2079 65.8538 38.2079H65.8812H65.9085C65.9358 38.2079 65.9358 38.2079 65.9632 38.1807C65.9905 38.1807 66.0178 38.1534 66.0725 38.1534H66.0998H66.1272C66.1545 38.1534 66.1819 38.1534 66.2092 38.1534C66.2092 38.1534 66.2092 38.1534 66.2365 38.1534H66.2639C66.2912 38.1534 66.3185 38.1807 66.3732 38.1807C66.3732 38.1807 66.4005 38.1807 66.4005 38.2079C66.4279 38.2352 66.4552 38.2352 66.4826 38.2624L66.5099 38.2897C66.5099 38.2897 66.5099 38.2897 66.5372 38.2897H66.5646L66.5919 38.3169C66.6466 38.3714 66.7286 38.4259 66.8106 38.4259C66.8653 38.4259 66.9199 38.3714 66.9746 38.3169C67.0293 38.2352 67.002 38.1534 66.9746 38.0717C66.9473 37.9899 66.8926 37.9354 66.8379 37.8536C66.7286 37.7446 66.5372 37.6629 66.3732 37.6356C66.1819 37.6084 65.9632 37.6084 65.7991 37.6901C65.6078 37.7719 65.3618 37.8536 65.2524 38.0444C65.0611 38.2352 65.2524 38.4804 65.4711 38.4259Z" fill="#2A393F"/>
<path d="M65.334 40.5515C65.334 40.6332 65.334 40.6605 65.3613 40.7422V40.7695C65.3613 40.7967 65.3887 40.824 65.3887 40.8512C65.3887 40.8785 65.416 40.9057 65.416 40.933C65.4707 41.0147 65.5253 41.0692 65.6074 41.1237C65.662 41.151 65.744 41.1783 65.7987 41.1783C65.8807 41.2055 65.9354 41.1783 66.0174 41.1783C66.0721 41.151 66.1268 41.1238 66.1814 41.0965C66.2908 41.0692 66.3728 40.9875 66.4275 40.9057C66.4548 40.8512 66.4821 40.824 66.4821 40.7695C66.4821 40.7422 66.4821 40.715 66.5095 40.715C66.5095 40.6877 66.5095 40.6605 66.5368 40.606C66.5368 40.5515 66.5368 40.5515 66.5368 40.5242V40.3879V40.1154C66.5368 40.0064 66.5095 39.9246 66.4548 39.8429C66.4275 39.8156 66.4001 39.7611 66.3728 39.7339C66.3181 39.6794 66.2634 39.6521 66.2088 39.6249C66.1541 39.5976 66.1268 39.5976 66.0721 39.5976C65.9901 39.5704 65.9354 39.5976 65.8534 39.5976C65.7987 39.6249 65.7714 39.6249 65.7167 39.6521C65.662 39.6794 65.6074 39.7339 65.5527 39.7884C65.498 39.8429 65.4707 39.8974 65.4433 39.9792C65.416 40.1154 65.3887 40.2517 65.3887 40.3879C65.3613 40.4424 65.3613 40.4969 65.334 40.5515Z" fill="#2A393F"/>
<path d="M63.6668 42.8134C63.5847 42.8406 63.5301 42.8679 63.4754 42.9224C63.4754 42.9224 63.4754 42.9224 63.5027 42.9224C63.5027 42.9224 63.4754 42.9224 63.4754 42.9496C63.4481 42.9496 63.4481 42.9769 63.4207 42.9769C63.4207 42.9769 63.4207 42.9769 63.3934 42.9769C63.3661 42.9769 63.3661 42.9769 63.3387 43.0041H63.3114C63.284 43.0041 63.2567 43.0041 63.2567 43.0041C63.2567 43.0041 63.2294 43.0041 63.2567 43.0041C63.284 43.0041 63.2294 43.0041 63.2294 43.0041H63.202C63.1747 43.0041 63.1474 43.0041 63.1474 42.9769C63.1474 42.9769 63.1474 42.9769 63.12 42.9769C63.0927 42.9769 63.0927 42.9496 63.0654 42.9496C63.038 42.9224 62.9833 42.8951 62.9287 42.8951H62.9013C62.8467 42.8951 62.8193 42.9224 62.792 42.9496C62.7647 43.0042 62.7647 43.0859 62.792 43.1404C62.8193 43.1949 62.8467 43.2222 62.9013 43.2767C62.9833 43.3584 63.12 43.4402 63.2294 43.4674C63.3661 43.4947 63.5027 43.4947 63.6121 43.4402C63.7761 43.3857 63.9401 43.3039 63.9675 43.1404C63.9675 42.8951 63.8308 42.7589 63.6668 42.8134Z" fill="#DD9878"/>
<path opacity="0.2" d="M68.3418 42.1595C68.2598 41.887 68.0411 41.669 67.7678 41.6145C67.7131 41.5872 67.6311 41.56 67.5491 41.56C67.4397 41.5327 67.303 41.5055 67.1664 41.5327C67.0844 41.5327 67.0023 41.56 66.9203 41.56C66.8383 41.5872 66.7563 41.6145 66.6743 41.6417C66.565 41.6962 66.4556 41.7507 66.3736 41.8597C66.2916 41.9415 66.2369 42.0233 66.2096 42.105C66.1822 42.1868 66.1276 42.2958 66.1549 42.4048C66.1549 42.4865 66.1822 42.5683 66.2096 42.6501C66.2369 42.7318 66.2916 42.7863 66.3463 42.8408C66.4009 42.8953 66.4829 42.9498 66.5376 43.0043C66.7563 43.1406 67.0297 43.1951 67.2757 43.1678C67.4124 43.1678 67.5491 43.1406 67.6584 43.1133C67.7678 43.0861 67.9045 43.0588 68.0138 42.9771C68.1778 42.8681 68.2872 42.7318 68.3418 42.5683C68.3692 42.4593 68.3965 42.323 68.3418 42.1595Z" fill="#D7826F"/>
<path opacity="0.2" d="M60.0039 42.1595C59.9219 41.887 59.7032 41.669 59.4299 41.6145C59.3752 41.5872 59.2932 41.56 59.2112 41.56C59.1018 41.5327 58.9652 41.5055 58.8285 41.5327C58.7465 41.5327 58.6645 41.56 58.5824 41.56C58.5004 41.5872 58.4184 41.6145 58.3364 41.6417C58.2271 41.6962 58.1177 41.7507 58.0357 41.8597C57.9537 41.9415 57.899 42.0233 57.8717 42.105C57.8444 42.1868 57.7897 42.2958 57.817 42.4048C57.817 42.4865 57.8444 42.5683 57.8717 42.6501C57.899 42.7318 57.9537 42.7863 58.0084 42.8408C58.063 42.8953 58.1451 42.9498 58.1997 43.0043C58.4184 43.1406 58.6918 43.1951 58.9378 43.1678C59.0745 43.1678 59.2112 43.1406 59.3205 43.1133C59.4299 43.0861 59.5666 43.0588 59.6759 42.9771C59.8399 42.8681 59.9493 42.7318 60.0039 42.5683C60.0313 42.4593 60.0586 42.323 60.0039 42.1595Z" fill="#D7826F"/>
<path d="M98.0019 36.6816C97.9472 36.0003 96.9905 36.0003 96.9358 36.6816C96.8538 37.7717 96.9085 38.8618 96.9085 39.9519V43.2767C96.9085 45.4841 96.9358 47.6916 96.9632 49.8718C96.9632 50.5258 97.9746 50.5258 97.9746 49.8718C98.0019 47.6643 98.0293 45.4841 98.0293 43.2767C98.0293 42.1866 98.0293 41.0965 98.0293 40.0064C98.0566 38.9163 98.1113 37.7717 98.0019 36.6816Z" fill="#94B052"/>
<path d="M98.6576 50.0899C98.6029 49.8719 98.4935 49.6811 98.3295 49.5448C98.2475 49.4903 98.1655 49.4086 98.0835 49.3541C97.8921 49.2451 97.6734 49.1906 97.4547 49.1906C97.2907 49.1906 97.1267 49.2178 96.9627 49.2996C96.7987 49.3541 96.662 49.4358 96.5526 49.5721C96.416 49.6811 96.3339 49.8174 96.2793 49.9809C96.1973 50.1444 96.1699 50.2806 96.1699 50.4714L96.2246 50.7984C96.2793 51.0165 96.3886 51.2072 96.5526 51.3435C96.6346 51.398 96.7167 51.4798 96.7987 51.5343C96.99 51.6433 97.2087 51.6978 97.4274 51.6978C97.5914 51.6978 97.7554 51.6705 97.9195 51.5888C98.0835 51.5343 98.2202 51.4525 98.3295 51.3162C98.4662 51.2072 98.5482 51.071 98.6029 50.9075C98.6849 50.7439 98.7122 50.6077 98.7122 50.4169C98.6849 50.3079 98.6576 50.1989 98.6576 50.0899Z" fill="#2A393F"/>
<path d="M109.182 80.5851C109.155 73.0634 109.155 65.5418 109.155 58.0202C109.155 56.0035 109.155 54.0141 109.155 51.9974C109.155 46.5742 109.155 41.151 109.155 35.755C109.155 35.1827 108.471 34.9102 107.788 34.9102C107.105 34.9102 106.421 35.1827 106.421 35.755C106.421 42.7861 106.421 49.79 106.421 56.8211C106.421 59.3555 106.421 61.9172 106.421 64.4517C106.421 74.0173 106.394 83.5828 106.366 93.1484C106.366 98.5171 106.284 103.886 106.339 109.282C106.339 109.718 106.722 109.99 107.187 110.099C107.515 110.317 108.089 110.317 108.389 110.099C108.881 109.963 109.237 109.69 109.237 109.282C109.346 99.7162 109.209 90.1506 109.182 80.5851Z" fill="#2A393F"/>
<path d="M99.1224 18.8042C99.1224 18.8042 93.6005 32.1851 93.1084 37.4175C93.1084 37.4175 109.784 42.0504 123.561 37.4175C123.561 37.4175 119.925 22.674 117.547 18.6679C117.547 18.6679 107.023 15.1796 99.1224 18.8042Z" fill="#94B052"/>
<path d="M111.724 20.9843C111.341 20.7117 110.849 20.8208 110.439 20.8753C109.975 20.9298 109.51 21.0115 109.045 21.0933C108.116 21.284 107.214 21.5293 106.311 21.8291C104.507 22.4286 102.758 23.2735 101.2 24.3636C100.407 24.9086 99.4227 25.6172 98.958 26.4892C98.9307 26.5165 98.958 26.571 99.0127 26.571C99.5321 26.3802 99.9968 26.0259 100.461 25.7262C100.926 25.4264 101.418 25.1266 101.883 24.8268C102.894 24.2 103.961 23.655 105.054 23.219C106.147 22.7557 107.241 22.4014 108.389 22.1289C108.963 21.9926 109.537 21.8836 110.111 21.8018C110.631 21.7201 111.341 21.7746 111.724 21.3658C111.888 21.2295 111.833 21.066 111.724 20.9843Z" fill="#819F3A"/>
<path d="M118.285 28.9693C118.149 28.9148 118.067 28.833 117.957 28.7513C117.821 28.6422 117.629 28.615 117.438 28.615C117.083 28.615 116.7 28.6967 116.344 28.7513C115.661 28.8603 115.005 28.9693 114.322 29.1328C113.009 29.4053 111.697 29.7596 110.44 30.1956C107.843 31.0404 105.383 32.185 103.059 33.6294C102.43 34.0109 101.829 34.447 101.227 34.883C100.927 35.101 100.626 35.3736 100.353 35.6188C100.107 35.8641 99.7786 36.0821 99.6419 36.4092C99.6145 36.4909 99.6692 36.5727 99.7512 36.5454C100.025 36.4909 100.271 36.3274 100.517 36.1911C100.817 36.0276 101.145 35.8641 101.446 35.7006C102.02 35.3736 102.594 35.0465 103.168 34.7195C104.316 34.0655 105.519 33.4659 106.722 32.9209C109.1 31.8308 111.615 30.9859 114.158 30.4136C114.868 30.2501 115.606 30.1139 116.344 29.9776C116.7 29.9231 117.055 29.8686 117.411 29.8141C117.629 29.7868 117.875 29.7323 118.039 29.5688C118.149 29.4598 118.203 29.3235 118.34 29.2145C118.395 29.16 118.367 29.0238 118.285 28.9693Z" fill="#819F3A"/>
<path d="M6.23306 84.6182C6.39708 83.0648 6.80713 81.5387 7.02582 79.9581C7.73656 75.0799 6.61577 70.12 4.97559 65.4871C9.32207 68.6756 13.0125 73.3903 13.1218 78.759C13.1492 80.0943 12.9578 81.4297 12.9852 82.7651C13.0398 84.6182 13.5319 86.4714 14.434 88.1065C15.1447 89.3874 16.0742 90.532 16.6209 91.8673C17.1676 93.2027 17.2496 94.8923 16.3202 96.0097C13.9419 98.8167 10.9076 95.3829 9.24007 93.7205C6.88913 91.404 5.90502 87.8612 6.23306 84.6182Z" fill="#94B052"/>
<path d="M16.8946 85.5176C17.1679 82.5743 17.6873 79.5493 19.2455 77.0149C20.0929 75.5977 21.2411 74.3986 22.2525 73.0905C25.1228 69.4387 27.009 65.0511 27.6924 60.4727C30.9181 65.9777 30.8361 73.254 27.4738 78.6772C26.5717 80.1489 25.4235 81.5115 24.7401 83.0921C23.1819 86.7712 24.3574 91.077 23.2093 94.8924C22.8266 96.1732 22.1158 97.4268 20.9677 98.1081C20.0382 98.6532 18.6441 98.7622 17.742 98.1081C16.7305 97.3723 16.8946 96.2005 16.8126 95.0286C16.5665 91.8674 16.5939 88.6788 16.8946 85.5176Z" fill="#94B052"/>
<path d="M12.5747 90.1505C11.5633 88.1883 10.9072 85.9809 11.0986 83.8007C11.2899 81.9203 12.0554 80.1762 12.7661 78.432C13.8049 75.8158 14.707 73.0088 14.3243 70.2291C14.1876 69.1662 13.8596 68.1306 13.6955 67.0678C13.2582 64.2063 14.1056 61.2631 15.5818 58.7559C17.0579 56.2486 19.1082 54.1502 21.2951 52.2426C19.8462 56.3849 20.5843 60.8815 21.2131 65.2146C21.8418 69.5478 22.3338 74.1534 20.5296 78.1322C19.5455 80.2852 17.9327 82.1928 17.55 84.5093C17.0853 87.4798 18.7801 90.314 19.2175 93.2845C19.3815 94.4019 19.2995 95.6555 18.4794 96.4185C16.9486 97.8084 16.2652 96.1188 15.8278 95.0832C15.035 93.3118 13.4769 91.8674 12.5747 90.1505Z" fill="#94B052"/>
<path d="M6.50684 95.3283C6.50684 95.3283 8.03768 107.347 9.7052 110.889C9.7052 110.889 17.9881 113.587 23.2914 110.889C25.3143 107.592 26.7085 99.825 26.9545 95.8189C26.9545 95.7916 17.7421 92.7394 6.50684 95.3283Z" fill="#F29456"/>
<path d="M28.0209 66.55C28.0209 66.5227 27.9662 66.5227 27.9662 66.55C27.7749 66.9588 27.6929 67.3676 27.6108 67.8036C27.5015 68.2941 27.4195 68.8119 27.2828 69.3025C27.0641 70.229 26.8181 71.1284 26.49 72.0277C25.834 73.7991 24.7679 75.4342 23.7564 76.9876C21.7608 80.0671 19.5193 83.2011 19.2186 86.962C19.0272 89.1966 19.4646 91.4313 20.0113 93.5843C20.1207 94.0203 20.8041 93.8295 20.6947 93.3935C20.23 91.4858 19.7653 89.5509 19.82 87.5615C19.8746 85.6811 20.476 83.8824 21.2961 82.2201C22.9363 78.8953 25.4786 76.061 26.7907 72.5727C27.1735 71.5644 27.4742 70.5561 27.7202 69.5205C27.8295 69.0299 27.9115 68.5121 27.9936 67.9944C28.0482 67.5038 28.1029 67.0405 28.0209 66.55Z" fill="white"/>
<path d="M13.2863 93.2027C12.3296 92.1126 11.5641 90.9135 11.0174 89.5509C10.4707 88.1883 10.1153 86.7712 9.92396 85.3268C9.81461 84.482 9.75994 83.6371 9.86928 82.7923C9.97863 81.9748 10.1426 81.1844 10.252 80.3941C10.4433 78.868 10.3613 77.3146 10.0333 75.7885C9.84195 74.9164 9.56858 74.0443 9.26788 73.1995C9.1312 72.818 8.96718 72.4365 8.80316 72.0549C8.61181 71.6189 8.44779 71.1828 8.17443 70.8013C8.14709 70.7468 8.06508 70.7741 8.09242 70.8286C8.17443 71.2101 8.33844 71.5644 8.47513 71.9459C8.61181 72.3547 8.74849 72.7635 8.88517 73.1723C9.10386 73.9353 9.29522 74.6984 9.4319 75.4615C9.70526 77.0693 9.81461 78.7045 9.48657 80.3396C9.32255 81.1299 9.10386 81.9203 8.99452 82.7378C8.88517 83.5826 8.91251 84.4275 9.02185 85.245C9.18587 86.7439 9.51391 88.2155 10.0606 89.6326C10.6347 91.1315 11.4548 92.6577 12.6303 93.8022C13.095 94.211 13.669 93.6115 13.2863 93.2027Z" fill="white"/>
<path d="M16.8122 64.9967C16.8395 63.6068 17.0309 62.2169 17.3589 60.8816C17.6869 59.5462 18.1243 58.2654 18.6164 56.9573C18.6437 56.8755 18.5344 56.8482 18.4797 56.9027C17.851 57.9383 17.4136 59.1102 17.0309 60.2548C16.6481 61.4266 16.4295 62.6257 16.2928 63.8521C15.9921 66.3865 16.3748 68.8665 16.6208 71.3737C16.7302 72.6273 16.8122 73.8809 16.6481 75.1073C16.4841 76.3609 16.0467 77.4782 15.4727 78.5956C14.926 79.6857 14.4066 80.7485 14.2152 81.9476C14.0239 83.2012 14.1332 84.4821 14.2699 85.7357C14.4066 87.0983 14.5979 88.4337 14.8439 89.769C14.9806 90.4231 15.0626 91.0499 15.2813 91.6767C15.5 92.3307 15.7187 92.9848 16.2381 93.4481C16.3748 93.5571 16.6755 93.5026 16.6481 93.2846C16.5935 92.685 16.3474 92.1945 16.1288 91.6222C15.9374 91.0771 15.7734 90.5048 15.6094 89.9598C15.2813 88.8152 15.172 87.5888 15.0353 86.417C14.8986 85.1906 14.7346 83.9643 14.8166 82.7379C14.8986 81.4843 15.336 80.3942 15.8827 79.2769C16.4295 78.214 16.9488 77.1512 17.1949 75.9794C17.4409 74.7803 17.4682 73.5539 17.3862 72.3548C17.1949 69.9021 16.7302 67.4766 16.8122 64.9967Z" fill="#C4DEDB"/>
<path d="M23.7116 37.937C24.0463 36.4788 23.1298 35.0266 21.6647 34.6935C20.1995 34.3603 18.7405 35.2725 18.4058 36.7307C18.0711 38.1889 18.9875 39.6411 20.4527 39.9742C21.9178 40.3074 23.3769 39.3953 23.7116 37.937Z" fill="#2A393F"/>
<path d="M8.1822 36.2442C10.592 35.1946 11.6906 32.3994 10.6361 30.001C9.58149 27.6026 6.77308 26.5091 4.3633 27.5587C1.95352 28.6083 0.85489 31.4035 1.90945 33.8019C2.96401 36.2004 5.77242 37.2938 8.1822 36.2442Z" fill="#FBE698"/>
<path d="M39.8766 6.66815C41.4141 6.04605 42.1539 4.30117 41.5288 2.77085C40.9038 1.24054 39.1506 0.504286 37.6131 1.12639C36.0755 1.74849 35.3358 3.49337 35.9608 5.02369C36.5859 6.554 38.339 7.29026 39.8766 6.66815Z" fill="#FBE698"/>
<path d="M128.608 60C130.146 59.3779 130.885 57.633 130.26 56.1027C129.635 54.5724 127.882 53.8361 126.345 54.4582C124.807 55.0803 124.067 56.8252 124.692 58.3555C125.317 59.8858 127.07 60.6221 128.608 60Z" fill="#FBE698"/>
<path d="M129.425 38.9716C130.602 38.9716 131.557 38.0216 131.557 36.8496C131.557 35.6777 130.602 34.7277 129.425 34.7277C128.247 34.7277 127.293 35.6777 127.293 36.8496C127.293 38.0216 128.247 38.9716 129.425 38.9716Z" fill="#94B052"/>
<path d="M89.0757 18.0415C90.182 17.5854 90.7074 16.323 90.2491 15.2219C89.7909 14.1208 88.5225 13.5979 87.4162 14.054C86.3099 14.5101 85.7846 15.7725 86.2428 16.8736C86.7011 17.9747 87.9694 18.4976 89.0757 18.0415Z" fill="#F8D671"/>
</svg>
