<svg width="561" height="350" viewBox="0 0 561 350" fill="none" xmlns="http://www.w3.org/2000/svg">
<path fill-rule="evenodd" clip-rule="evenodd" d="M282.509 309.299C344.158 309.299 400.876 310.018 445.901 311.217C556.068 262.499 517.918 167.547 478.359 113.837C423.304 39.0926 293.216 12.2159 239.429 71.8548C166.397 152.812 95.9297 124.562 57.8924 186.032C19.8552 247.524 77.6155 306.465 119.118 311.195C164.143 310.018 220.861 309.299 282.509 309.299ZM185.979 102.001C157.775 118.611 111.145 131.472 95.6479 113.816C84.0677 100.628 98.3246 75.8874 126.247 57.1195C154.141 38.3733 191.502 27.0166 211.873 40.8365C236.076 57.2285 207.703 89.2277 185.979 102.001Z" fill="#EAEFF8"/>
<path d="M273.512 325.581C421.263 325.581 541.039 321.562 541.039 316.604C541.039 311.646 421.263 307.626 273.512 307.626C125.76 307.626 5.98438 311.646 5.98438 316.604C5.98438 321.562 125.76 325.581 273.512 325.581Z" fill="#D2DFEE"/>
<path fill-rule="evenodd" clip-rule="evenodd" d="M402.394 60.6583C453.522 72.042 486.063 119.078 489.241 141.78C490.547 151.096 488.13 129.287 462.033 109.436C438.722 91.6967 420.569 88.4101 392.839 86.277C373.249 84.7534 352.724 82.3591 354.182 70.6707C355.358 61.4202 369.397 53.3014 402.394 60.6583ZM196.491 41.1124C205.284 41.6348 210.661 48.8611 211.009 57.1975C211.161 60.7454 208.375 51.473 198.624 50.1888C192.573 49.3835 191.659 51.1683 189.504 48.6652C187.327 46.1839 189.395 40.6771 196.491 41.1124Z" fill="white"/>
<path fill-rule="evenodd" clip-rule="evenodd" d="M68.409 291.203C66.08 288.286 62.7934 285.87 61.8357 282.257C60.7038 277.991 63.2069 273.507 62.5757 269.132C61.7921 263.625 56.503 260.055 53.6299 255.31C50.822 250.653 52.128 249.085 51.8668 243.644C51.475 235.46 44.7711 225.121 35.8035 227.885C26.727 230.715 28.2071 239.138 29.796 245.516C30.9279 250.043 30.1878 250.696 29.0778 255.223C27.75 260.708 23.4186 265.998 25.2252 271.33C26.3352 274.639 29.5784 276.859 30.7537 280.146C32.0815 283.868 30.4708 287.894 29.8613 291.812C28.5554 300.018 30.4272 306.853 36.3911 313.644C37.0224 314.253 37.6971 314.819 38.3936 315.341C46.7518 314.862 56.1547 314.427 66.4718 314.035L66.5371 313.948C72.0222 308.006 73.6546 297.776 68.409 291.203Z" fill="#D2DFEE"/>
<path fill-rule="evenodd" clip-rule="evenodd" d="M39.9381 235.286C39.8075 234.916 39.3721 234.742 39.0021 234.872C38.6321 235.003 38.458 235.438 38.5886 235.808C39.3068 237.658 39.8945 239.617 40.3952 241.62C40.1993 241.424 39.9816 241.25 39.7639 241.076C38.7845 240.292 37.6744 239.617 36.4555 239.03C36.1072 238.855 35.6719 239.008 35.4978 239.378C35.3237 239.748 35.476 240.161 35.846 240.335C36.9779 240.88 38.0009 241.489 38.8715 242.207C39.7204 242.882 40.4387 243.644 41.0481 244.471C41.9623 248.846 42.5718 253.569 43.1159 258.532C42.2888 257.248 41.3964 256.072 40.4604 255.049C38.828 253.265 36.9996 251.871 35.0189 250.892C34.6707 250.718 34.2354 250.87 34.0612 251.219C33.8871 251.567 34.0395 252.002 34.3877 252.176C36.2161 253.09 37.8921 254.353 39.4157 256.029C40.9393 257.683 42.2888 259.686 43.5077 262.08L43.6383 263.429C43.943 266.389 44.2477 269.437 44.6178 272.527C44.6178 272.549 44.6178 272.593 44.6178 272.615C45.0095 275.858 45.4666 279.166 46.0325 282.54C44.4872 280.146 42.8112 278.034 41.0264 276.184C38.4144 273.485 35.5413 271.396 32.407 269.872C32.0588 269.698 31.6234 269.85 31.4493 270.199C31.2752 270.547 31.4275 270.982 31.7758 271.156C34.7577 272.593 37.4785 274.595 39.9816 277.164C42.4847 279.732 44.7484 282.866 46.7726 286.567C47.665 291.029 48.7751 295.578 50.2769 300.17V300.192C51.017 302.434 51.8223 304.698 52.7583 306.983C50.5817 305.111 48.2745 303.501 45.8367 302.151C42.4412 300.257 38.7845 298.864 34.8883 297.95C34.4965 297.863 34.1265 298.103 34.0177 298.494C33.9306 298.886 34.1701 299.256 34.5618 299.365C38.3491 300.236 41.8752 301.585 45.1401 303.414C48.3833 305.22 51.387 307.484 54.1513 310.226C54.7825 311.641 55.479 313.056 56.1973 314.471L57.7862 314.405C55.2396 309.508 53.2589 304.654 51.6917 299.822C51.4305 296.318 51.8441 292.813 52.9324 289.331C54.0425 285.783 55.8708 282.235 58.3957 278.665C58.6351 278.339 58.548 277.904 58.2215 277.664C57.895 277.425 57.4597 277.512 57.2203 277.838C54.6084 281.517 52.7147 285.217 51.5611 288.896C50.9081 290.985 50.4728 293.096 50.2769 295.186C48.1221 287.415 46.925 279.797 46.0543 272.549C46.9032 269.48 47.8391 266.868 48.8839 264.735C49.9069 262.624 51.0387 260.991 52.2576 259.838C52.5406 259.577 52.5624 259.12 52.2794 258.815C51.9965 258.532 51.5611 258.51 51.2564 258.793C49.9069 260.056 48.688 261.84 47.5779 264.104C46.8814 265.519 46.2284 267.129 45.6408 268.936C45.4231 267.021 45.2272 265.127 45.0531 263.277L44.9007 261.84C44.9007 261.819 44.9007 261.797 44.9007 261.753C43.8777 251.893 42.8547 242.904 39.9381 235.286Z" fill="white"/>
<path fill-rule="evenodd" clip-rule="evenodd" d="M44.3586 295.055C41.8555 293.705 38.8517 293.009 37.1105 290.767C35.0645 288.133 35.478 284.259 33.7367 281.408C31.5601 277.794 26.8151 276.902 23.3979 274.421C20.0459 272.005 20.503 270.525 18.7182 266.824C16.0192 261.23 8.27045 256.028 2.87247 260.599C-2.61257 265.257 0.913529 270.699 3.91724 274.66C6.05032 277.468 5.72382 278.143 6.28974 281.625C6.98626 285.826 5.5497 290.811 8.37928 293.988C10.1423 295.969 13.059 296.557 14.8438 298.494C16.868 300.692 16.9551 303.979 17.6734 306.874C18.6311 310.726 20.3071 313.817 22.9625 316.32C30.1236 315.776 38.547 315.276 48.037 314.819C48.7771 313.774 49.3647 312.642 49.7783 311.445C51.8678 305.677 49.9742 298.08 44.3586 295.055Z" fill="#C5DEF8"/>
<path fill-rule="evenodd" clip-rule="evenodd" d="M7.96338 264.54C7.74572 264.322 7.41923 264.322 7.20157 264.518C6.98391 264.735 6.98391 265.062 7.1798 265.28C8.22457 266.368 9.20404 267.543 10.1617 268.806C9.96585 268.74 9.76996 268.675 9.5523 268.61C8.63813 268.349 7.65866 268.196 6.63565 268.153C6.33093 268.131 6.0915 268.37 6.06973 268.675C6.04797 268.98 6.28739 269.219 6.59212 269.241C7.54982 269.285 8.44224 269.415 9.26935 269.655C10.0529 269.872 10.793 270.177 11.4677 270.591C13.4049 273.377 15.2115 276.467 17.0616 279.776C16.1039 279.123 15.1462 278.579 14.1667 278.143C12.4907 277.382 10.8147 276.968 9.13875 276.859C8.83402 276.837 8.57283 277.077 8.57283 277.36C8.55106 277.665 8.79049 277.926 9.07345 277.926C10.6188 278.013 12.1642 278.405 13.7096 279.123C15.255 279.819 16.8004 280.821 18.3458 282.127L18.8464 283.019C19.9347 285 21.0665 287.024 22.2419 289.07C22.2419 289.092 22.2637 289.113 22.2854 289.135C23.5261 291.268 24.8103 293.445 26.2033 295.622C24.4185 294.424 22.6119 293.423 20.8271 292.683C18.1934 291.573 15.5815 290.964 12.9478 290.855C12.6431 290.833 12.4037 291.072 12.3819 291.377C12.3601 291.682 12.5995 291.921 12.9043 291.943C15.4074 292.052 17.8887 292.64 20.4136 293.706C22.9167 294.751 25.4198 296.274 27.9228 298.255C29.86 301.107 31.9931 303.936 34.3874 306.679C35.5627 308.028 36.8034 309.356 38.1311 310.684C36.0633 310.031 33.9738 309.595 31.8843 309.356C28.9459 309.051 26.0074 309.16 23.0037 309.682C22.699 309.726 22.5031 310.009 22.5684 310.314C22.6119 310.618 22.8949 310.814 23.1996 310.749C26.0945 310.248 28.9459 310.139 31.7754 310.444C34.5615 310.749 37.3258 311.424 40.0683 312.534C41.0042 313.404 41.9837 314.253 43.0067 315.102L44.6174 315.015C41.0695 312.185 37.9788 309.138 35.2362 306.026C34.0173 303.675 33.2555 301.107 32.9943 298.342C32.7114 295.534 32.929 292.531 33.6473 289.288C33.7126 288.983 33.5167 288.7 33.2338 288.635C32.9508 288.569 32.6461 288.765 32.5808 289.048C31.8625 292.378 31.6231 295.513 31.9278 298.429C32.0802 300.084 32.4067 301.672 32.9073 303.196C29.0982 298.408 26.0074 293.467 23.2649 288.678C22.9384 286.284 22.8296 284.194 22.9167 282.41C23.0037 280.625 23.3084 279.166 23.8091 277.991C23.9179 277.708 23.8091 277.403 23.5261 277.273C23.2431 277.164 22.9384 277.273 22.8078 277.556C22.2419 278.84 21.9154 280.429 21.8284 282.344C21.7631 283.541 21.7848 284.847 21.9154 286.284C21.1971 285 20.5006 283.759 19.8259 282.518L19.3035 281.561C19.3035 281.539 19.2817 281.517 19.2817 281.517C15.625 274.944 12.2513 268.98 7.96338 264.54Z" fill="white"/>
<path fill-rule="evenodd" clip-rule="evenodd" d="M459.205 284.718C461.751 281.54 465.343 278.885 466.388 274.945C467.628 270.287 464.886 265.39 465.582 260.623C466.431 254.615 472.221 250.719 475.355 245.539C478.424 240.468 476.988 238.748 477.271 232.828C477.684 223.882 485.019 212.607 494.792 215.632C504.696 218.701 503.085 227.93 501.344 234.852C500.103 239.793 500.908 240.511 502.127 245.452C503.586 251.416 508.287 257.206 506.328 263.039C505.109 266.652 501.583 269.068 500.299 272.659C498.841 276.73 500.604 281.126 501.279 285.371C502.693 294.338 500.669 301.782 494.139 309.183C493.356 309.923 492.529 310.619 491.68 311.251C482.669 310.794 472.613 310.38 461.686 310.01C461.534 309.858 461.381 309.705 461.251 309.531C455.265 303.045 453.48 291.879 459.205 284.718Z" fill="#D2DFEE"/>
<path fill-rule="evenodd" clip-rule="evenodd" d="M490.286 223.683C490.438 223.27 490.895 223.074 491.287 223.226C491.701 223.379 491.897 223.836 491.744 224.227C490.961 226.252 490.33 228.363 489.764 230.583C489.981 230.387 490.221 230.191 490.46 229.995C491.527 229.147 492.724 228.385 494.073 227.754C494.465 227.579 494.922 227.732 495.118 228.124C495.292 228.515 495.14 228.973 494.748 229.168C493.507 229.756 492.397 230.431 491.44 231.214C490.525 231.954 489.72 232.782 489.045 233.674C488.044 238.462 487.391 243.599 486.803 249.019C487.718 247.604 488.675 246.342 489.72 245.232C491.505 243.273 493.486 241.771 495.662 240.704C496.054 240.509 496.511 240.661 496.707 241.053C496.903 241.444 496.751 241.902 496.359 242.097C494.378 243.077 492.528 244.492 490.874 246.298C489.219 248.105 487.739 250.303 486.412 252.893L486.259 254.373C485.933 257.595 485.585 260.925 485.171 264.299C485.171 264.342 485.171 264.364 485.149 264.386C484.736 267.934 484.235 271.547 483.604 275.204C485.302 272.592 487.13 270.284 489.067 268.26C491.918 265.322 495.053 263.015 498.47 261.382C498.862 261.186 499.319 261.36 499.515 261.752C499.711 262.144 499.537 262.601 499.145 262.797C495.902 264.364 492.92 266.541 490.177 269.349C487.456 272.156 484.997 275.574 482.777 279.622C481.819 284.498 480.578 289.439 478.946 294.445V294.467C478.141 296.926 477.248 299.386 476.247 301.867C478.619 299.843 481.144 298.08 483.8 296.6C487.5 294.532 491.505 293.008 495.749 292.029C496.163 291.92 496.598 292.203 496.685 292.616C496.794 293.03 496.511 293.465 496.098 293.552C491.962 294.51 488.131 295.99 484.54 297.971C481.014 299.952 477.727 302.411 474.723 305.415C473.983 307.069 473.178 308.723 472.329 310.356L470.588 310.29C473.439 304.849 475.659 299.429 477.422 294.053C477.727 290.222 477.27 286.413 476.073 282.604C474.854 278.73 472.873 274.855 470.109 270.959C469.848 270.611 469.935 270.11 470.283 269.871C470.631 269.61 471.132 269.697 471.371 270.045C474.223 274.072 476.269 278.077 477.553 282.125C478.271 284.411 478.728 286.696 478.946 288.981C481.297 280.493 482.603 272.2 483.56 264.277C482.646 260.925 481.623 258.074 480.47 255.766C479.338 253.459 478.119 251.674 476.791 250.434C476.486 250.129 476.465 249.65 476.769 249.324C477.074 249.019 477.553 248.997 477.879 249.28C479.338 250.673 480.687 252.61 481.884 255.07C482.646 256.615 483.343 258.378 483.996 260.359C484.235 258.27 484.431 256.202 484.649 254.178L484.801 252.61C484.801 252.589 484.801 252.545 484.801 252.523C485.976 241.814 487.108 232.02 490.286 223.683Z" fill="white"/>
<path fill-rule="evenodd" clip-rule="evenodd" d="M485.454 288.918C488.175 287.459 491.44 286.676 493.355 284.238C495.597 281.365 495.14 277.142 497.034 274.03C499.406 270.09 504.587 269.111 508.309 266.412C511.965 263.778 511.465 262.167 513.402 258.119C516.34 252.024 524.786 246.343 530.706 251.328C536.692 256.421 532.839 262.341 529.574 266.673C527.245 269.742 527.593 270.482 526.984 274.291C526.222 278.884 527.789 284.303 524.698 287.786C522.783 289.941 519.605 290.594 517.646 292.705C515.426 295.099 515.361 298.691 514.555 301.847C513.489 306.113 511.617 309.53 508.657 312.273C500.843 311.75 491.766 311.25 481.623 310.793C480.731 309.574 480.013 308.246 479.512 306.809C477.27 300.519 479.338 292.204 485.454 288.918Z" fill="#C5DEF8"/>
<path fill-rule="evenodd" clip-rule="evenodd" d="M525.155 255.615C525.373 255.376 525.765 255.376 526.004 255.593C526.244 255.811 526.244 256.203 526.026 256.442C524.894 257.618 523.806 258.902 522.761 260.273C522.979 260.208 523.196 260.121 523.414 260.077C524.415 259.794 525.482 259.642 526.614 259.598C526.94 259.577 527.223 259.838 527.223 260.164C527.245 260.491 526.984 260.774 526.657 260.774C525.612 260.817 524.655 260.97 523.741 261.209C522.892 261.449 522.086 261.797 521.346 262.232C519.235 265.258 517.254 268.653 515.23 272.245C516.275 271.526 517.341 270.939 518.386 270.46C520.214 269.633 522.043 269.175 523.871 269.067C524.198 269.045 524.481 269.306 524.502 269.633C524.524 269.959 524.263 270.242 523.936 270.264C522.26 270.351 520.563 270.786 518.865 271.57C517.189 272.332 515.491 273.42 513.793 274.835L513.249 275.814C512.052 277.969 510.833 280.167 509.549 282.409C509.527 282.431 509.527 282.453 509.506 282.475C508.156 284.804 506.741 287.176 505.218 289.549C507.177 288.221 509.114 287.154 511.073 286.327C513.946 285.13 516.797 284.455 519.67 284.325C519.997 284.303 520.28 284.564 520.301 284.891C520.323 285.217 520.062 285.5 519.736 285.522C517.015 285.652 514.272 286.284 511.552 287.437C508.831 288.591 506.088 290.245 503.346 292.4C501.234 295.512 498.905 298.581 496.294 301.607C495.009 303.087 493.66 304.545 492.202 305.96C494.465 305.242 496.729 304.763 499.014 304.524C502.214 304.175 505.435 304.306 508.7 304.872C509.027 304.937 509.244 305.242 509.179 305.568C509.114 305.895 508.809 306.112 508.483 306.047C505.326 305.481 502.214 305.372 499.123 305.699C496.076 306.025 493.05 306.787 490.068 307.963C488.937 309.007 487.783 310.009 486.564 311.01L484.779 310.923C488.784 307.745 492.267 304.349 495.314 300.845C496.642 298.277 497.469 295.469 497.752 292.465C498.057 289.396 497.817 286.109 497.055 282.583C496.99 282.257 497.186 281.952 497.512 281.887C497.839 281.822 498.144 282.017 498.209 282.344C498.993 285.979 499.254 289.396 498.927 292.574C498.753 294.381 498.405 296.122 497.861 297.776C502.018 292.552 505.37 287.176 508.395 281.93C508.744 279.318 508.874 277.033 508.765 275.074C508.657 273.137 508.33 271.526 507.786 270.264C507.655 269.959 507.786 269.611 508.091 269.48C508.395 269.35 508.744 269.48 508.874 269.785C509.484 271.178 509.832 272.919 509.941 275.009C510.006 276.315 509.984 277.73 509.854 279.318C510.637 277.925 511.399 276.554 512.139 275.205L512.727 274.16C512.727 274.138 512.749 274.116 512.749 274.095C516.797 266.955 520.476 260.469 525.155 255.615Z" fill="white"/>
<path fill-rule="evenodd" clip-rule="evenodd" d="M321.512 93.4138C320.772 103.47 319.292 104.863 309.715 105.625C319.292 106.408 320.794 107.779 321.512 117.835C322.252 107.779 323.732 106.386 333.309 105.625C323.732 104.863 322.252 103.47 321.512 93.4138ZM360.495 119.947C360.103 125.323 359.32 126.063 354.183 126.476C359.298 126.89 360.103 127.63 360.495 133.006C360.887 127.63 361.67 126.89 366.807 126.476C361.67 126.041 360.887 125.301 360.495 119.947ZM343.43 78.6129C343.039 84.0544 342.233 84.7945 337.053 85.2298C342.233 85.6433 343.039 86.4052 343.43 91.8249C343.822 86.3834 344.628 85.6433 349.808 85.2298C344.628 84.8162 343.822 84.0544 343.43 78.6129Z" fill="white"/>
<path fill-rule="evenodd" clip-rule="evenodd" d="M307.385 258.293C307.973 266.433 309.17 267.565 316.94 268.196C309.17 268.827 307.973 269.937 307.385 278.1C306.797 269.959 305.6 268.827 297.83 268.196C305.6 267.565 306.797 266.433 307.385 258.293ZM275.803 279.776C276.129 284.129 276.76 284.717 280.918 285.065C276.76 285.391 276.129 286.001 275.803 290.354C275.498 286.001 274.845 285.413 270.688 285.065C274.845 284.738 275.498 284.129 275.803 279.776ZM289.646 246.3C289.972 250.696 290.625 251.306 294.826 251.654C290.625 252.002 289.972 252.59 289.646 257.008C289.319 252.612 288.666 252.002 284.465 251.654C288.666 251.306 289.319 250.718 289.646 246.3Z" fill="white"/>
<path fill-rule="evenodd" clip-rule="evenodd" d="M431.475 238.203C431.018 244.45 430.104 245.299 424.162 245.778C430.104 246.257 431.018 247.127 431.475 253.352C431.933 247.106 432.847 246.257 438.789 245.778C432.847 245.299 431.933 244.45 431.475 238.203ZM455.636 254.658C455.396 257.989 454.896 258.446 451.718 258.707C454.896 258.968 455.375 259.425 455.636 262.755C455.875 259.425 456.376 258.968 459.554 258.707C456.376 258.446 455.875 257.989 455.636 254.658ZM445.058 229.04C444.818 232.414 444.317 232.871 441.096 233.132C444.317 233.393 444.818 233.85 445.058 237.224C445.297 233.85 445.798 233.393 449.019 233.132C445.798 232.871 445.297 232.392 445.058 229.04Z" fill="white"/>
<path fill-rule="evenodd" clip-rule="evenodd" d="M84.9323 100.705H375.214C381.828 100.705 377.078 110.848 377.256 114.07L389.108 304.697C389.464 310.225 376.501 315.754 364.027 315.754H73.701C67.0866 315.754 61.6707 313.099 61.7151 309.855L62.8693 114.07C62.8693 110.827 78.2734 100.705 84.9323 100.705Z" fill="#183B56"/>
<path fill-rule="evenodd" clip-rule="evenodd" d="M85.0197 100.4H375.301C380.717 100.4 379.43 105.929 378.497 110.217C378.142 111.762 377.831 113.155 377.876 114.004L389.729 304.631C389.729 304.805 389.684 304.979 389.64 305.175C388.974 306.873 388.397 309.964 383.38 312.14C378.409 314.317 368.909 315.601 365.224 315.993C364.736 316.036 364.247 316.08 363.848 316.08H73.5665C70.1039 316.08 66.952 315.383 64.688 314.273C62.424 313.163 61.0035 311.618 61.0479 309.92L62.2021 114.134C62.2021 113.939 62.2465 113.721 62.3352 113.503C63.0899 111.653 66.8189 108.562 71.1693 105.842C75.5642 103.099 80.7137 100.748 84.1763 100.444C84.487 100.422 84.7978 100.4 85.0197 100.4ZM375.079 101.031H84.7978C84.6202 101.031 84.4426 101.031 84.2207 101.053C81.1576 101.336 76.3632 103.556 72.1903 106.168C67.9731 108.802 64.3329 111.762 63.667 113.503C63.5782 113.699 63.5338 113.873 63.5338 114.004L62.3797 309.789C62.3797 311.335 63.667 312.75 65.7535 313.773C67.8399 314.796 70.7254 315.427 73.8773 315.427H364.159C364.469 315.427 364.869 315.405 365.224 315.362C368.642 314.992 377.831 313.773 382.626 311.683C387.42 309.594 387.775 306.677 388.397 305.131C388.441 304.979 388.486 304.849 388.486 304.74L376.633 114.113C376.589 113.198 376.899 111.805 377.254 110.238C378.142 106.233 379.296 101.031 375.079 101.031Z" fill="#FC9774"/>
<path fill-rule="evenodd" clip-rule="evenodd" d="M88.9245 100.705H379.206C385.82 100.705 391.236 103.361 391.236 106.604L390.082 306.373C390.082 309.616 384.622 312.271 378.007 312.271H87.6815C81.0671 312.271 75.6512 309.616 75.6956 306.373L76.8498 106.604C76.8942 103.361 82.31 100.705 88.9245 100.705Z" fill="#D53232"/>
<path fill-rule="evenodd" clip-rule="evenodd" d="M89.0602 100.4H379.342C382.804 100.4 385.956 101.097 388.22 102.207C390.484 103.317 391.905 104.862 391.86 106.56L390.706 306.285C390.706 306.677 390.617 307.09 390.484 307.46C389.996 308.723 388.708 309.855 386.888 310.725C385.068 311.596 382.76 312.227 380.185 312.445C379.43 312.51 378.631 312.554 377.877 312.554H87.5509C84.0883 312.554 80.9364 311.857 78.6724 310.747C76.4084 309.637 74.9879 308.092 75.0323 306.394L76.1865 106.669C76.1865 106.277 76.2752 105.863 76.4084 105.493C76.8967 104.231 78.1841 103.099 80.0042 102.228C81.8243 101.358 84.1327 100.727 86.7074 100.487C87.5065 100.444 88.2612 100.4 89.0602 100.4ZM379.12 101.031H88.7939C88.0836 101.031 87.3733 101.053 86.7074 101.118C84.4434 101.336 82.4014 101.858 80.8476 102.642C79.2939 103.404 78.1397 104.405 77.6958 105.515C77.5626 105.863 77.4738 106.212 77.4738 106.582L76.3196 306.307C76.3196 307.852 77.607 309.267 79.6935 310.29C81.7799 311.313 84.6654 311.944 87.8172 311.944H378.099C378.809 311.944 379.519 311.922 380.185 311.857C382.449 311.64 384.491 311.117 386.045 310.334C387.599 309.572 388.753 308.57 389.197 307.46C389.33 307.112 389.419 306.764 389.419 306.394L390.617 106.669C390.617 105.123 389.33 103.708 387.243 102.685C385.157 101.662 382.272 101.031 379.12 101.031Z" fill="#FC9774"/>
<path fill-rule="evenodd" clip-rule="evenodd" d="M103.062 113.713H362.567C367.925 113.713 372.264 115.864 372.264 118.471V295.665C372.264 298.293 367.88 300.444 362.567 300.444H103.062C97.7043 300.444 93.3652 298.293 93.3652 295.665V118.492C93.3652 115.864 97.7486 113.713 103.062 113.713Z" fill="white"/>
<path d="M155.919 238.81H123.156C119.088 238.81 115.875 236.158 115.875 231.237C115.875 230.113 116.145 228.585 116.999 227.035L149.358 163.597C151.448 159.53 154.953 158.002 158.459 158.002C162.234 158.002 169.38 161.215 169.38 166.271C169.38 167.103 169.11 167.957 168.683 168.923L143.897 218.63H155.942V208.833C155.942 204.204 161.403 202.249 166.863 202.249C172.324 202.249 177.784 204.204 177.784 208.833V218.63H183.807C188.279 218.63 190.526 223.664 190.526 228.72C190.526 233.754 187.155 238.81 183.807 238.81H177.784V253.664C177.784 258.136 172.324 260.383 166.863 260.383C161.403 260.383 155.942 258.136 155.942 253.664V238.81H155.919Z" fill="#D53232" stroke="#183B56" stroke-width="1.66151" stroke-miterlimit="10" stroke-linejoin="round"/>
<path d="M198.594 228.181V191.058C198.594 166.968 213.582 158.002 232.908 158.002C252.234 158.002 267.357 166.968 267.357 191.058V228.181C267.357 252.27 252.234 261.237 232.908 261.237C213.582 261.214 198.594 252.27 198.594 228.181ZM245.515 191.058C245.515 181.395 240.751 177.058 232.908 177.058C225.065 177.058 220.436 181.395 220.436 191.058V228.181C220.436 237.844 225.065 242.181 232.908 242.181C240.751 242.181 245.515 237.844 245.515 228.181V191.058Z" fill="#D53232" stroke="#183B56" stroke-width="1.66151" stroke-miterlimit="10" stroke-linejoin="round"/>
<path d="M315.468 238.81H282.705C278.637 238.81 275.424 236.158 275.424 231.237C275.424 230.113 275.693 228.585 276.547 227.035L308.907 163.597C310.996 159.53 314.502 158.002 318.008 158.002C321.783 158.002 328.929 161.215 328.929 166.271C328.929 167.103 328.659 167.957 328.232 168.923L303.446 218.63H315.491V208.833C315.491 204.204 320.951 202.249 326.412 202.249C331.873 202.249 337.333 204.204 337.333 208.833V218.63H343.356C347.827 218.63 350.075 223.664 350.075 228.72C350.075 233.754 346.704 238.81 343.356 238.81H337.333V253.664C337.333 258.136 331.873 260.383 326.412 260.383C320.951 260.383 315.491 258.136 315.491 253.664V238.81H315.468Z" fill="#D53232" stroke="#183B56" stroke-width="1.66151" stroke-miterlimit="10" stroke-linejoin="round"/>
<path fill-rule="evenodd" clip-rule="evenodd" d="M355.461 114.678C360.832 114.678 365.227 116.833 365.227 119.467V297.013C365.227 298.253 364.25 299.407 362.608 300.256H362.918C368.29 300.256 372.64 298.101 372.64 295.467V117.943C372.64 115.31 368.246 113.177 362.918 113.177H102.735C99.9383 113.177 97.3636 113.764 95.5879 114.7H355.461V114.678Z" fill="#FBBFA8"/>
<path fill-rule="evenodd" clip-rule="evenodd" d="M233.806 110.401C235.83 110.401 237.506 108.747 237.506 106.701C237.506 104.677 235.852 103.001 233.806 103.001C231.781 103.001 230.105 104.655 230.105 106.701C230.105 108.747 231.76 110.401 233.806 110.401Z" fill="#FFE2DC"/>
<g filter="url(#filter0_d_806_26506)">
<path d="M346.96 127.29C348.905 119.054 343.805 110.801 335.569 108.856C327.332 106.912 319.079 112.012 317.135 120.248C315.19 128.484 320.29 136.737 328.526 138.682C336.762 140.626 345.015 135.526 346.96 127.29Z" fill="#306F46"/>
<path fill-rule="evenodd" clip-rule="evenodd" d="M317.414 123.242C317.414 114.775 324.27 107.919 332.737 107.919C341.204 107.919 348.061 114.775 348.061 123.242C348.061 131.709 341.204 138.566 332.737 138.566C324.27 138.566 317.414 131.709 317.414 123.242Z" fill="#183B56"/>
<path fill-rule="evenodd" clip-rule="evenodd" d="M319.525 123.548C319.525 116.365 325.359 110.554 332.541 110.554C339.724 110.554 345.558 116.365 345.558 123.548C345.558 130.731 339.724 136.564 332.541 136.564C325.337 136.543 319.525 130.731 319.525 123.548Z" fill="#306F46"/>
<path fill-rule="evenodd" clip-rule="evenodd" d="M319.721 123.242C319.721 116.059 325.554 110.226 332.737 110.226C339.92 110.226 345.753 116.059 345.753 123.242C345.753 130.425 339.92 136.258 332.737 136.258C325.554 136.236 319.721 130.425 319.721 123.242Z" fill="#50B975"/>
<g opacity="0.29">
<path opacity="0.3" fill-rule="evenodd" clip-rule="evenodd" d="M322.528 127.008C320.896 120.891 324.531 114.579 330.647 112.947C334.217 111.989 337.874 112.838 340.594 114.928C337.786 112.12 333.607 110.836 329.494 111.946C323.377 113.578 319.742 119.89 321.375 126.006C322.05 128.553 323.551 130.664 325.489 132.144C324.096 130.751 323.073 129.01 322.528 127.008Z" fill="white"/>
</g>
<path fill-rule="evenodd" clip-rule="evenodd" d="M332.213 115.016C330.211 115.037 328.578 116.67 328.6 118.672C328.622 120.675 330.254 122.307 332.257 122.285C334.259 122.264 335.891 120.631 335.87 118.629C335.87 116.626 334.215 115.016 332.213 115.016ZM332.278 123.548C328.556 123.57 325.553 126.617 325.574 130.339C325.574 131.318 326.38 132.102 327.359 132.102L337.306 132.037C338.286 132.037 339.069 131.231 339.069 130.252C339.048 126.508 336 123.504 332.278 123.548Z" fill="#183B56"/>
<path fill-rule="evenodd" clip-rule="evenodd" d="M332.629 114.711C330.627 114.733 329.016 116.365 329.016 118.368C329.038 120.37 330.67 121.981 332.673 121.981C334.675 121.959 336.307 120.327 336.286 118.324C336.264 116.3 334.631 114.689 332.629 114.711ZM332.694 123.222C328.972 123.243 325.969 126.291 325.99 130.013C325.99 130.992 326.796 131.776 327.775 131.776L337.722 131.71C338.702 131.71 339.485 130.905 339.485 129.926C339.464 126.182 336.416 123.2 332.694 123.222Z" fill="white"/>
<g opacity="0.42">
<path opacity="0.3" fill-rule="evenodd" clip-rule="evenodd" d="M339.55 112.142C340.835 114.166 341.596 116.56 341.596 119.15C341.596 126.333 335.763 132.166 328.58 132.166C326.077 132.166 323.748 131.47 321.768 130.251C324.075 133.864 328.123 136.259 332.738 136.259C339.92 136.259 345.754 130.425 345.754 123.242C345.732 118.541 343.251 114.427 339.55 112.142Z" fill="white"/>
</g>
</g>
<g filter="url(#filter1_d_806_26506)">
<path d="M118.505 162.79C125.776 155.518 125.776 143.728 118.505 136.456C111.233 129.184 99.4427 129.184 92.1708 136.456C84.8989 143.728 84.8989 155.518 92.1708 162.79C99.4427 170.062 111.233 170.062 118.505 162.79Z" fill="#A20101"/>
<path fill-rule="evenodd" clip-rule="evenodd" d="M87.5605 149.001C87.5605 138.712 95.8924 130.38 106.182 130.38C116.471 130.38 124.802 138.712 124.802 149.001C124.802 159.29 116.471 167.622 106.182 167.622C95.8924 167.622 87.5605 159.29 87.5605 149.001Z" fill="#183B56"/>
<path d="M121.304 153.113C123.364 144.623 118.152 136.071 109.663 134.012C101.173 131.952 92.6216 137.164 90.5617 145.653C88.5019 154.142 93.7139 162.694 102.203 164.754C110.693 166.814 119.244 161.602 121.304 153.113Z" fill="#A20101"/>
<path d="M121.788 151.62C123.247 143.007 117.447 134.841 108.834 133.383C100.221 131.924 92.0554 137.724 90.5966 146.337C89.1377 154.95 94.9376 163.115 103.551 164.574C112.164 166.033 120.329 160.233 121.788 151.62Z" fill="#D53232"/>
<g opacity="0.29">
<path opacity="0.3" fill-rule="evenodd" clip-rule="evenodd" d="M93.7787 153.579C91.795 146.146 96.2122 138.476 103.645 136.492C107.983 135.328 112.426 136.36 115.732 138.899C112.32 135.487 107.242 133.926 102.243 135.275C94.8103 137.259 90.3931 144.93 92.3769 152.362C93.1968 155.457 95.0219 158.022 97.376 159.821C95.6832 158.128 94.4136 156.012 93.7787 153.579Z" fill="white"/>
</g>
<path fill-rule="evenodd" clip-rule="evenodd" d="M105.548 139.002C103.115 139.029 101.131 141.012 101.157 143.446C101.184 145.879 103.167 147.837 105.601 147.837C108.034 147.81 110.018 145.826 109.992 143.393C109.992 140.96 107.981 139.002 105.548 139.002ZM105.627 149.371C101.104 149.397 97.4542 153.1 97.4806 157.623C97.4806 158.813 98.4593 159.766 99.6495 159.766L111.737 159.686C112.928 159.686 113.88 158.708 113.88 157.517C113.853 152.968 110.15 149.318 105.627 149.371Z" fill="#183B56"/>
<path fill-rule="evenodd" clip-rule="evenodd" d="M106.052 138.632C103.618 138.659 101.635 140.643 101.661 143.076C101.688 145.51 103.671 147.493 106.105 147.467C108.538 147.44 110.522 145.457 110.495 143.023C110.469 140.563 108.485 138.606 106.052 138.632ZM106.131 148.975C101.608 149.001 97.9581 152.704 97.9845 157.227C97.9845 158.417 98.9632 159.369 100.153 159.369L112.241 159.29C113.431 159.29 114.384 158.311 114.384 157.121C114.331 152.572 110.654 148.948 106.131 148.975Z" fill="white"/>
<g opacity="0.42">
<path opacity="0.3" fill-rule="evenodd" clip-rule="evenodd" d="M114.438 135.511C115.999 137.971 116.924 140.881 116.924 144.028C116.924 152.757 109.836 159.845 101.107 159.845C98.0653 159.845 95.2351 158.999 92.8281 157.518C95.6319 161.908 100.552 164.818 106.159 164.818C114.888 164.818 121.976 157.756 121.976 149.001C121.976 143.287 118.961 138.288 114.438 135.511Z" fill="white"/>
</g>
</g>
<g filter="url(#filter2_d_806_26506)">
<path d="M309.782 293.311C318.245 293.311 325.106 286.451 325.106 277.988C325.106 269.525 318.245 262.665 309.782 262.665C301.319 262.665 294.459 269.525 294.459 277.988C294.459 286.451 301.319 293.311 309.782 293.311Z" fill="#000066"/>
<path fill-rule="evenodd" clip-rule="evenodd" d="M295.156 277.464C295.156 268.997 302.013 262.141 310.48 262.141C318.947 262.141 325.803 268.997 325.803 277.464C325.803 285.931 318.947 292.787 310.48 292.787C302.034 292.787 295.156 285.931 295.156 277.464Z" fill="#183B56"/>
<path fill-rule="evenodd" clip-rule="evenodd" d="M297.268 277.77C297.268 270.587 303.101 264.775 310.284 264.775C317.466 264.775 323.3 270.587 323.3 277.77C323.3 284.953 317.466 290.786 310.284 290.786C303.101 290.786 297.268 284.953 297.268 277.77Z" fill="#3939A3"/>
<path fill-rule="evenodd" clip-rule="evenodd" d="M297.486 277.463C297.486 270.28 303.298 264.447 310.481 264.447C317.663 264.447 323.497 270.258 323.497 277.463C323.497 284.646 317.663 290.479 310.481 290.479C303.32 290.479 297.486 284.646 297.486 277.463Z" fill="#3939A3"/>
<g opacity="0.29">
<path opacity="0.3" fill-rule="evenodd" clip-rule="evenodd" d="M300.269 281.23C298.636 275.113 302.271 268.801 308.387 267.169C311.957 266.211 315.614 267.06 318.335 269.149C315.527 266.342 311.348 265.057 307.234 266.167C301.118 267.8 297.483 274.112 299.115 280.228C299.79 282.775 301.292 284.886 303.229 286.366C301.858 284.995 300.813 283.254 300.269 281.23Z" fill="white"/>
</g>
<path fill-rule="evenodd" clip-rule="evenodd" d="M309.977 269.258C307.974 269.28 306.342 270.912 306.363 272.915C306.385 274.917 308.018 276.528 310.02 276.528C312.023 276.506 313.655 274.874 313.633 272.871C313.612 270.869 311.979 269.236 309.977 269.258ZM310.042 277.769C306.32 277.79 303.316 280.838 303.338 284.56C303.338 285.539 304.143 286.323 305.123 286.323L315.07 286.257C316.049 286.257 316.833 285.452 316.833 284.473C316.789 280.751 313.764 277.747 310.042 277.769Z" fill="#183B56"/>
<path fill-rule="evenodd" clip-rule="evenodd" d="M310.371 268.932C308.369 268.954 306.758 270.586 306.758 272.588C306.78 274.591 308.412 276.202 310.415 276.202C312.417 276.18 314.05 274.547 314.028 272.545C314.028 270.542 312.395 268.932 310.371 268.932ZM310.436 277.464C306.714 277.486 303.711 280.533 303.733 284.255C303.733 285.235 304.538 286.018 305.517 286.018L315.464 285.953C316.444 285.953 317.227 285.147 317.227 284.168C317.206 280.424 314.158 277.421 310.436 277.464Z" fill="white"/>
<g opacity="0.42">
<path opacity="0.3" fill-rule="evenodd" clip-rule="evenodd" d="M317.291 266.364C318.597 268.388 319.337 270.782 319.337 273.372C319.337 280.555 313.525 286.389 306.321 286.389C303.817 286.389 301.489 285.692 299.508 284.473C301.815 288.086 305.863 290.481 310.456 290.481C317.639 290.481 323.472 284.669 323.472 277.464C323.494 272.763 321.013 268.671 317.291 266.364Z" fill="white"/>
</g>
</g>
<g filter="url(#filter3_d_806_26506)">
<path fill-rule="evenodd" clip-rule="evenodd" d="M317.503 217.615L395.795 201.551C396.013 201.508 396.209 201.638 396.274 201.856L418.824 311.774C418.867 311.992 418.737 312.188 418.519 312.232L340.227 328.295C340.009 328.338 339.813 328.208 339.77 327.99L317.22 218.072C317.155 217.876 317.285 217.658 317.503 217.615Z" fill="#D53232"/>
<path d="M393.491 205.551L321.209 220.382L342.533 324.305L414.814 309.474L393.491 205.551Z" fill="white"/>
<path fill-rule="evenodd" clip-rule="evenodd" d="M363.538 241.992L371.134 240.425L371.94 244.386C369.654 244.865 369.545 244.648 368.043 246.606C366.89 248.108 366.433 252.396 366.063 254.094L365.519 254.203C364.517 252.788 362.406 249.023 360.752 248.087C358.597 246.889 358.575 247.107 356.29 247.586L355.484 243.625L363.081 242.057L363.538 241.992Z" fill="#D53232"/>
<path fill-rule="evenodd" clip-rule="evenodd" d="M361.666 270.332C359.728 279.452 360.273 289.116 369.393 288.333C371.874 288.115 374.965 287.397 377.098 286.156C383.497 282.391 380.82 274.468 376.184 267.698C384.128 265.021 391.333 260.189 388.351 253.224C387.371 250.96 385.325 248.544 383.453 246.912C376.597 240.861 370.437 248.305 366.563 256.794C359.054 250.721 349.585 246.368 346.19 255.227C345.298 257.556 344.601 260.646 344.797 263.106C345.341 270.441 353.59 271.529 361.666 270.332Z" fill="#D53232"/>
</g>
<g filter="url(#filter4_d_806_26506)">
<path fill-rule="evenodd" clip-rule="evenodd" d="M407.961 190.23L486.145 206.838C486.362 206.881 486.493 207.099 486.449 207.317L463.116 317.061C463.073 317.279 462.855 317.409 462.637 317.366L384.454 300.758C384.236 300.715 384.105 300.497 384.149 300.279L407.46 190.535C407.526 190.317 407.743 190.187 407.961 190.23Z" fill="#50B975"/>
<path fill-rule="evenodd" clip-rule="evenodd" d="M410.226 194.257L482.424 209.58L460.375 313.361L388.199 298.016L410.226 194.257Z" fill="white"/>
<path fill-rule="evenodd" clip-rule="evenodd" d="M437.932 243.405C437.932 243.405 442.808 238.225 450.034 239.705C456.499 241.011 459.72 248.02 458.284 255.094C456.629 263.299 448.576 271.766 431.098 277.012C417.037 265.367 412.945 254.419 414.621 246.213C416.057 239.139 421.738 233.959 428.203 235.265C435.473 236.723 437.932 243.405 437.932 243.405Z" fill="#50B975"/>
<path fill-rule="evenodd" clip-rule="evenodd" d="M441.09 229.975L448.664 231.586L447.815 235.526C445.53 235.047 445.508 234.808 443.353 236.005C441.699 236.919 439.544 240.663 438.543 242.077L437.999 241.969C437.651 240.271 437.215 235.961 436.083 234.459C434.603 232.5 434.494 232.696 432.209 232.217L433.058 228.278L440.632 229.888L441.09 229.975Z" fill="#50B975"/>
</g>
<g filter="url(#filter5_d_806_26506)">
<path fill-rule="evenodd" clip-rule="evenodd" d="M497.661 205.272L560.151 255.094C560.325 255.225 560.347 255.486 560.216 255.66L490.26 343.377C490.13 343.551 489.868 343.573 489.694 343.443L427.204 293.62C427.03 293.49 427.008 293.228 427.139 293.076L497.095 205.359C497.247 205.163 497.508 205.141 497.661 205.272Z" fill="#F8FAFD"/>
<path fill-rule="evenodd" clip-rule="evenodd" d="M497.899 209.887L555.601 255.9L489.453 338.829L431.773 292.815L497.899 209.887Z" fill="#000066"/>
<path fill-rule="evenodd" clip-rule="evenodd" d="M502.405 263.321C502.405 263.321 509.066 260.862 514.899 265.411C520.101 269.481 519.84 277.186 515.4 282.867C510.241 289.462 499.249 293.424 481.292 290.311C473.935 273.617 475.154 261.993 480.334 255.398C484.797 249.696 492.197 247.628 497.377 251.676C503.189 256.247 502.405 263.321 502.405 263.321Z" fill="white"/>
</g>
<g filter="url(#filter6_d_806_26506)">
<path fill-rule="evenodd" clip-rule="evenodd" d="M406.983 288.369C423.015 288.369 435.976 301.366 435.976 317.362C435.976 333.393 422.979 346.354 406.983 346.354C390.951 346.354 377.99 333.358 377.99 317.362C377.99 301.33 390.987 288.369 406.983 288.369Z" fill="#183B56"/>
<path fill-rule="evenodd" clip-rule="evenodd" d="M406.98 297.045C418.192 297.045 427.297 306.15 427.297 317.361C427.297 328.573 418.192 337.678 406.98 337.678C395.769 337.678 386.664 328.573 386.664 317.361C386.664 306.15 395.769 297.045 406.98 297.045Z" fill="white"/>
<path fill-rule="evenodd" clip-rule="evenodd" d="M406.983 298.687C417.301 298.687 425.656 307.042 425.656 317.361C425.656 327.68 417.301 336.035 406.983 336.035C396.664 336.035 388.309 327.68 388.309 317.361C388.309 307.042 396.664 298.687 406.983 298.687Z" fill="#FFCC00"/>
<path fill-rule="evenodd" clip-rule="evenodd" d="M406.983 298.508C412.196 298.508 416.909 300.615 420.301 304.043C423.693 307.435 425.836 312.148 425.836 317.361C425.836 322.574 423.729 327.287 420.301 330.679C416.874 334.071 412.196 336.213 406.983 336.213C401.77 336.213 397.057 334.107 393.665 330.679C390.237 327.287 388.131 322.574 388.131 317.361C388.131 312.148 390.237 307.435 393.665 304.043C397.093 300.615 401.806 298.508 406.983 298.508ZM420.087 304.257C416.731 300.901 412.125 298.83 406.983 298.83C401.877 298.83 397.236 300.901 393.879 304.257C390.523 307.613 388.452 312.219 388.452 317.361C388.452 322.467 390.523 327.108 393.879 330.465C397.236 333.821 401.877 335.892 406.983 335.892C412.089 335.892 416.731 333.821 420.087 330.465C423.443 327.108 425.514 322.502 425.514 317.361C425.514 312.255 423.443 307.613 420.087 304.257Z" fill="#183B56"/>
<path fill-rule="evenodd" clip-rule="evenodd" d="M403.055 298.688L403.019 298.51L402.983 298.331L402.948 298.152L402.912 297.974L402.876 297.795L402.841 297.617L402.805 297.51C402.769 297.51 402.733 297.51 402.698 297.545C402.591 297.581 402.519 297.581 402.412 297.617C402.305 297.653 402.198 297.653 402.126 297.688C402.019 297.724 401.912 297.724 401.805 297.76C401.698 297.795 401.591 297.831 401.484 297.867C401.377 297.903 401.27 297.938 401.162 297.974C401.055 298.01 400.948 298.045 400.841 298.081C400.734 298.117 400.627 298.152 400.484 298.188C400.377 298.224 400.234 298.26 400.127 298.295C400.02 298.331 399.877 298.402 399.77 298.438C399.627 298.474 399.52 298.545 399.377 298.581C399.234 298.617 399.127 298.688 398.984 298.759L399.056 298.938L399.127 299.117L399.199 299.295L399.27 299.474L399.341 299.652L399.413 299.795L399.484 299.973L399.52 300.045L399.663 300.33C400.163 300.116 400.663 299.938 401.198 299.759C401.841 299.545 402.519 299.366 403.162 299.224L403.09 298.902L403.055 298.688Z" fill="#183B56"/>
<path fill-rule="evenodd" clip-rule="evenodd" d="M412.909 299.259L412.98 299.081L413.052 298.902L413.123 298.724L413.194 298.545L413.266 298.367L413.337 298.188L413.373 298.081C413.337 298.081 413.301 298.045 413.266 298.045C413.159 298.01 413.087 297.974 412.98 297.938C412.873 297.903 412.766 297.867 412.694 297.867C412.587 297.831 412.48 297.795 412.373 297.795C412.266 297.76 412.159 297.724 412.052 297.724C411.945 297.688 411.837 297.653 411.73 297.653C411.623 297.617 411.516 297.581 411.409 297.581C411.302 297.545 411.159 297.545 411.052 297.51C410.945 297.474 410.802 297.474 410.695 297.438C410.552 297.403 410.445 297.403 410.302 297.367C410.159 297.331 410.052 297.331 409.909 297.296C409.767 297.26 409.624 297.26 409.481 297.224L409.445 297.403L409.41 297.581L409.374 297.76L409.338 297.938L409.302 298.117L409.267 298.295L409.231 298.474V298.581L409.195 298.902C409.731 298.974 410.266 299.045 410.802 299.152C411.48 299.295 412.123 299.474 412.802 299.688L412.909 299.366V299.259Z" fill="#183B56"/>
<path fill-rule="evenodd" clip-rule="evenodd" d="M421.157 304.649L421.3 304.507L421.443 304.364L421.585 304.221L421.728 304.078L421.871 303.935L422.014 303.792L422.121 303.721C422.085 303.685 422.085 303.65 422.05 303.65C421.978 303.578 421.907 303.507 421.835 303.435C421.764 303.364 421.693 303.293 421.621 303.221C421.55 303.15 421.478 303.078 421.407 303.007C421.335 302.936 421.264 302.864 421.157 302.793C421.086 302.721 420.978 302.65 420.907 302.578C420.836 302.507 420.728 302.436 420.657 302.329C420.586 302.257 420.479 302.186 420.407 302.079C420.3 302.007 420.229 301.9 420.121 301.829C420.014 301.757 419.943 301.65 419.836 301.579C419.729 301.507 419.622 301.4 419.514 301.329C419.407 301.257 419.3 301.15 419.193 301.079L419.086 301.222L418.979 301.365L418.872 301.507L418.765 301.65L418.658 301.793L418.55 301.936L418.443 302.079L418.372 302.15L418.193 302.4C418.622 302.721 419.05 303.078 419.443 303.435C419.943 303.9 420.443 304.364 420.907 304.899L421.157 304.649Z" fill="#183B56"/>
<path fill-rule="evenodd" clip-rule="evenodd" d="M425.622 313.434L425.801 313.398L425.979 313.362L426.158 313.326L426.336 313.291L426.515 313.255L426.694 313.219L426.801 313.184C426.801 313.148 426.801 313.112 426.765 313.077C426.729 312.969 426.729 312.862 426.694 312.791C426.658 312.684 426.658 312.577 426.622 312.505C426.586 312.398 426.551 312.291 426.551 312.184C426.515 312.077 426.479 311.97 426.479 311.863C426.444 311.755 426.408 311.648 426.372 311.541C426.336 311.434 426.301 311.327 426.265 311.22C426.229 311.113 426.194 311.006 426.158 310.863C426.122 310.756 426.087 310.649 426.051 310.506C426.015 310.363 425.979 310.256 425.908 310.149C425.872 310.006 425.801 309.899 425.765 309.756C425.694 309.613 425.658 309.506 425.587 309.363L425.444 309.435L425.265 309.506L425.087 309.577L424.944 309.649L424.765 309.72L424.587 309.792L424.408 309.863L424.301 309.899L424.016 310.042C424.23 310.541 424.408 311.041 424.587 311.577C424.801 312.22 424.98 312.898 425.122 313.576L425.444 313.505L425.622 313.434Z" fill="#183B56"/>
<path fill-rule="evenodd" clip-rule="evenodd" d="M425.05 323.29L425.228 323.361L425.407 323.432L425.585 323.504L425.764 323.575L425.942 323.647L426.121 323.718L426.228 323.754C426.228 323.718 426.264 323.682 426.264 323.647C426.299 323.54 426.335 323.468 426.371 323.361C426.406 323.254 426.442 323.183 426.442 323.075C426.478 322.968 426.513 322.861 426.513 322.754C426.549 322.647 426.585 322.54 426.585 322.433C426.621 322.326 426.656 322.219 426.656 322.111C426.692 322.004 426.692 321.897 426.728 321.79C426.763 321.683 426.763 321.54 426.799 321.433C426.835 321.326 426.835 321.183 426.871 321.076C426.906 320.933 426.906 320.826 426.942 320.683C426.978 320.54 426.978 320.433 427.013 320.29C427.049 320.148 427.049 320.005 427.085 319.862L426.906 319.826L426.728 319.791L426.549 319.755L426.371 319.719L426.192 319.683L426.014 319.648L425.835 319.612H425.728L425.407 319.576C425.335 320.112 425.264 320.647 425.157 321.183C425.014 321.861 424.835 322.504 424.621 323.183L424.907 323.29H425.05Z" fill="#183B56"/>
<path fill-rule="evenodd" clip-rule="evenodd" d="M419.656 331.537L419.799 331.679L419.942 331.822L420.085 331.965L420.227 332.108L420.37 332.251L420.513 332.394L420.585 332.501C420.62 332.465 420.656 332.465 420.656 332.429C420.727 332.358 420.799 332.286 420.87 332.215C420.942 332.144 421.013 332.072 421.084 332.001C421.156 331.929 421.227 331.858 421.299 331.787C421.37 331.715 421.441 331.644 421.513 331.572C421.584 331.501 421.656 331.394 421.727 331.322C421.799 331.251 421.87 331.144 421.977 331.072C422.048 330.965 422.156 330.894 422.227 330.822C422.298 330.715 422.405 330.644 422.477 330.537C422.548 330.43 422.655 330.323 422.727 330.251C422.798 330.144 422.905 330.037 422.977 329.93C423.048 329.823 423.155 329.716 423.227 329.609L423.084 329.501L422.941 329.394L422.798 329.287L422.655 329.18L422.513 329.073L422.37 328.966L422.227 328.859L422.156 328.787L421.906 328.609C421.584 329.037 421.227 329.466 420.87 329.858C420.406 330.358 419.942 330.858 419.406 331.322L419.656 331.537Z" fill="#183B56"/>
<path fill-rule="evenodd" clip-rule="evenodd" d="M410.875 335.999L410.911 336.178L410.947 336.356L410.982 336.535L411.018 336.713L411.054 336.892L411.089 337.07L411.125 337.177C411.161 337.177 411.197 337.177 411.232 337.142C411.339 337.106 411.411 337.106 411.518 337.07C411.625 337.035 411.732 337.035 411.804 336.999C411.911 336.963 412.018 336.963 412.125 336.927C412.232 336.892 412.339 336.856 412.446 336.856C412.553 336.82 412.66 336.785 412.768 336.749C412.875 336.713 412.982 336.677 413.089 336.642C413.196 336.606 413.303 336.57 413.446 336.535C413.553 336.499 413.696 336.463 413.803 336.428C413.91 336.392 414.053 336.32 414.16 336.285C414.303 336.249 414.41 336.178 414.553 336.142C414.696 336.07 414.803 336.035 414.946 335.963L414.874 335.785L414.803 335.606L414.731 335.463L414.66 335.285L414.589 335.106L414.517 334.928L414.446 334.749L414.41 334.678L414.267 334.392C413.767 334.607 413.267 334.785 412.732 334.964C412.089 335.178 411.411 335.356 410.732 335.499L410.804 335.821L410.875 335.999Z" fill="#183B56"/>
<path fill-rule="evenodd" clip-rule="evenodd" d="M401.019 335.428L400.947 335.606L400.876 335.785L400.805 335.963L400.733 336.142L400.662 336.32L400.59 336.499L400.555 336.606C400.59 336.606 400.626 336.642 400.662 336.642C400.769 336.677 400.84 336.713 400.947 336.749C401.055 336.785 401.126 336.82 401.233 336.82C401.34 336.856 401.447 336.892 401.554 336.892C401.662 336.927 401.769 336.963 401.876 336.963C401.983 336.999 402.09 337.034 402.197 337.034C402.304 337.07 402.411 337.07 402.554 337.106C402.661 337.142 402.768 337.142 402.911 337.177C403.018 337.213 403.161 337.213 403.268 337.249C403.411 337.284 403.518 337.284 403.661 337.32C403.804 337.356 403.911 337.356 404.054 337.392C404.197 337.427 404.339 337.427 404.482 337.463L404.518 337.284L404.554 337.106L404.589 336.927L404.625 336.749L404.661 336.57L404.696 336.392L404.732 336.213V336.106L404.768 335.785C404.232 335.713 403.697 335.642 403.161 335.535C402.483 335.392 401.84 335.213 401.162 334.999L401.055 335.285L401.019 335.428Z" fill="#183B56"/>
<path fill-rule="evenodd" clip-rule="evenodd" d="M392.771 330.037L392.628 330.179L392.485 330.322L392.342 330.465L392.199 330.608L392.057 330.751L391.914 330.893L391.807 330.965C391.842 331.001 391.842 331.036 391.878 331.036C391.949 331.108 392.021 331.179 392.092 331.251C392.164 331.322 392.235 331.393 392.306 331.465C392.378 331.536 392.449 331.608 392.521 331.679C392.592 331.75 392.664 331.822 392.735 331.893C392.806 331.965 392.913 332.036 392.985 332.143C393.056 332.215 393.163 332.286 393.235 332.357C393.342 332.429 393.413 332.536 393.485 332.607C393.592 332.679 393.663 332.786 393.77 332.857C393.878 332.929 393.985 333.036 394.056 333.107C394.163 333.179 394.27 333.286 394.377 333.357C394.485 333.464 394.592 333.536 394.734 333.607L394.842 333.464L394.949 333.321L395.056 333.179L395.163 333.036L395.27 332.893L395.377 332.75L395.484 332.607L395.556 332.536L395.734 332.286C395.306 331.965 394.877 331.608 394.485 331.251C393.985 330.786 393.485 330.322 393.021 329.787L392.771 330.037Z" fill="#183B56"/>
<path fill-rule="evenodd" clip-rule="evenodd" d="M388.309 321.252L388.131 321.287L387.952 321.323L387.774 321.359L387.595 321.394L387.417 321.43L387.238 321.466L387.131 321.501C387.131 321.537 387.131 321.573 387.167 321.609C387.202 321.716 387.202 321.787 387.238 321.894C387.274 322.001 387.274 322.108 387.309 322.18C387.345 322.287 387.345 322.394 387.381 322.501C387.417 322.608 387.452 322.715 387.452 322.823C387.488 322.93 387.524 323.037 387.559 323.144C387.595 323.251 387.631 323.358 387.666 323.465C387.702 323.572 387.738 323.679 387.774 323.822C387.809 323.929 387.845 324.072 387.881 324.179C387.916 324.286 387.952 324.429 388.023 324.536C388.059 324.679 388.131 324.786 388.166 324.929C388.202 325.072 388.273 325.179 388.345 325.322L388.523 325.251L388.702 325.179L388.845 325.108L389.023 325.036L389.166 324.965L389.309 324.893L389.487 324.822L389.559 324.786L389.845 324.644C389.63 324.144 389.452 323.644 389.273 323.108C389.059 322.466 388.88 321.787 388.738 321.144L388.416 321.216L388.309 321.252Z" fill="#183B56"/>
<path fill-rule="evenodd" clip-rule="evenodd" d="M388.879 311.397L388.701 311.325L388.522 311.254L388.344 311.183L388.165 311.111L387.987 311.04L387.808 310.968L387.701 310.933C387.701 310.968 387.665 311.004 387.665 311.04C387.63 311.147 387.594 311.218 387.558 311.325C387.523 311.432 387.487 311.504 387.451 311.611C387.416 311.718 387.38 311.825 387.38 311.932C387.344 312.039 387.308 312.147 387.308 312.254C387.273 312.361 387.237 312.468 387.237 312.575C387.201 312.682 387.201 312.789 387.166 312.932C387.13 313.039 387.13 313.182 387.094 313.289C387.059 313.396 387.059 313.539 387.023 313.646C386.987 313.789 386.987 313.896 386.951 314.039C386.916 314.182 386.916 314.289 386.88 314.432C386.844 314.575 386.844 314.717 386.809 314.86L386.987 314.896L387.166 314.932L387.344 314.967L387.523 315.003L387.701 315.039L387.88 315.074L388.058 315.11H388.165L388.487 315.146C388.558 314.61 388.63 314.075 388.737 313.539C388.879 312.861 389.058 312.218 389.272 311.575L388.951 311.468L388.879 311.397Z" fill="#183B56"/>
<path fill-rule="evenodd" clip-rule="evenodd" d="M394.27 303.151L394.127 303.008L393.984 302.865L393.841 302.723L393.698 302.58L393.556 302.437L393.413 302.294L393.341 302.187C393.306 302.223 393.306 302.223 393.27 302.258C393.199 302.33 393.127 302.401 393.056 302.473C392.984 302.544 392.913 302.615 392.842 302.687C392.77 302.758 392.699 302.83 392.627 302.901C392.556 302.973 392.485 303.044 392.413 303.151C392.342 303.222 392.27 303.33 392.199 303.401C392.127 303.472 392.02 303.58 391.949 303.651C391.877 303.758 391.77 303.829 391.699 303.937C391.628 304.044 391.52 304.115 391.449 304.222C391.378 304.329 391.271 304.401 391.199 304.508C391.128 304.615 391.021 304.722 390.949 304.829C390.878 304.936 390.771 305.043 390.699 305.151L390.842 305.258L390.985 305.365L391.128 305.472L391.271 305.579L391.413 305.686L391.556 305.793L391.699 305.9L391.77 305.972L392.02 306.15C392.342 305.722 392.699 305.293 393.056 304.901C393.52 304.401 393.984 303.901 394.52 303.437L394.27 303.151Z" fill="#183B56"/>
<path fill-rule="evenodd" clip-rule="evenodd" d="M406.983 298.687C417.302 298.687 425.657 307.042 425.657 317.361C425.657 322.181 423.8 326.609 420.801 329.929C423.407 326.716 424.978 322.646 424.978 318.182C424.978 307.864 416.623 299.508 406.304 299.508C400.841 299.508 395.878 301.865 392.486 305.614C395.914 301.365 401.127 298.687 406.983 298.687Z" fill="#306F46"/>
<path fill-rule="evenodd" clip-rule="evenodd" d="M387.057 306.042C388.271 304.185 389.664 302.507 391.199 300.936C392.056 300.115 392.913 299.329 393.841 298.579L390.021 293.795C386.736 296.151 383.986 299.186 381.951 302.685L387.057 306.042Z" fill="white"/>
<path fill-rule="evenodd" clip-rule="evenodd" d="M406.803 294.439C409.016 294.581 411.159 294.903 413.301 295.474C414.444 295.795 415.551 296.152 416.657 296.581L418.871 290.904C415.193 289.261 411.194 288.369 407.124 288.333L406.803 294.439Z" fill="white"/>
<path fill-rule="evenodd" clip-rule="evenodd" d="M426.729 305.756C427.728 307.72 428.514 309.791 429.085 311.898C429.406 313.04 429.621 314.183 429.799 315.361L435.833 314.433C435.441 310.434 434.191 306.506 432.191 302.971L426.729 305.756Z" fill="white"/>
<path fill-rule="evenodd" clip-rule="evenodd" d="M426.907 328.645C425.693 330.502 424.301 332.18 422.765 333.751C421.944 334.572 421.051 335.358 420.123 336.108L423.944 340.892C427.228 338.536 429.978 335.501 432.013 332.001L426.907 328.645Z" fill="white"/>
<path fill-rule="evenodd" clip-rule="evenodd" d="M407.16 340.25C404.946 340.142 402.768 339.785 400.662 339.214C399.519 338.893 398.412 338.536 397.306 338.107L395.092 343.784C398.769 345.427 402.768 346.319 406.839 346.355L407.16 340.25Z" fill="white"/>
<path fill-rule="evenodd" clip-rule="evenodd" d="M387.238 328.966C386.238 327.002 385.452 324.931 384.881 322.825C384.595 321.682 384.346 320.504 384.167 319.361L378.133 320.289C378.526 324.288 379.775 328.216 381.775 331.751L387.238 328.966Z" fill="white"/>
<path fill-rule="evenodd" clip-rule="evenodd" d="M423.55 298.331C424.086 298.331 424.514 298.759 424.514 299.295C424.514 299.83 424.086 300.259 423.55 300.259C423.014 300.259 422.586 299.83 422.586 299.295C422.586 298.795 423.014 298.331 423.55 298.331ZM398.806 293.511C399.056 293.046 399.663 292.904 400.127 293.154C400.591 293.403 400.734 294.01 400.484 294.475C400.234 294.939 399.627 295.082 399.163 294.832C398.699 294.546 398.556 293.975 398.806 293.511ZM382.239 312.506C381.989 312.042 382.132 311.435 382.596 311.185C383.06 310.935 383.667 311.078 383.917 311.542C384.203 312.006 384.024 312.613 383.56 312.863C383.096 313.149 382.525 312.97 382.239 312.506ZM390.415 336.393C389.88 336.393 389.451 335.964 389.451 335.429C389.451 334.893 389.88 334.465 390.415 334.465C390.951 334.465 391.379 334.893 391.379 335.429C391.415 335.929 390.951 336.393 390.415 336.393ZM415.195 341.213C414.909 341.677 414.338 341.82 413.874 341.57C413.41 341.32 413.267 340.713 413.517 340.249C413.802 339.785 414.374 339.642 414.838 339.892C415.302 340.142 415.445 340.749 415.195 341.213ZM431.762 322.182C432.012 322.646 431.869 323.253 431.405 323.503C430.941 323.753 430.334 323.61 430.084 323.146C429.834 322.682 429.977 322.075 430.441 321.825C430.87 321.575 431.477 321.754 431.762 322.182Z" fill="white"/>
<path fill-rule="evenodd" clip-rule="evenodd" d="M406.981 296.937C412.622 296.937 417.728 299.223 421.441 302.936C425.155 306.614 427.44 311.719 427.44 317.397C427.44 323.038 425.155 328.144 421.441 331.857C417.728 335.571 412.622 337.856 406.981 337.856C401.339 337.856 396.233 335.571 392.52 331.857C388.807 328.18 386.521 323.038 386.521 317.397C386.521 311.755 388.807 306.649 392.52 302.936C396.233 299.223 401.339 296.937 406.981 296.937ZM421.263 303.079C417.621 299.437 412.551 297.152 406.981 297.152C401.411 297.152 396.34 299.401 392.699 303.079C389.057 306.721 386.771 311.791 386.771 317.361C386.771 322.931 389.021 328.001 392.699 331.643C396.34 335.285 401.411 337.57 406.981 337.57C412.551 337.57 417.621 335.321 421.263 331.643C424.905 328.001 427.19 322.931 427.19 317.361C427.19 311.791 424.94 306.721 421.263 303.079Z" fill="#183B56"/>
<g opacity="0.23">
<path opacity="0.4" fill-rule="evenodd" clip-rule="evenodd" d="M422.014 338.106C406.054 339.391 392.057 327.465 390.808 311.505C390.129 303.15 393.093 295.331 398.341 289.582C385.595 293.474 376.847 305.792 377.954 319.61C379.239 335.571 393.2 347.496 409.16 346.211C416.765 345.604 423.442 342.14 428.227 336.927C426.227 337.534 424.156 337.963 422.014 338.106Z" fill="white"/>
</g>
<path fill-rule="evenodd" clip-rule="evenodd" d="M406.983 309.577C409.554 310.791 410.696 312.755 410.625 315.326C409.375 315.897 409.197 316.932 409.518 318.146C410.732 318.468 411.66 317.896 412.16 316.04L419.123 314.362L414.303 323.288H406.983H399.699L394.879 314.362L401.841 316.04C402.341 317.896 403.27 318.468 404.484 318.146C404.805 316.897 404.626 315.897 403.377 315.326C403.234 312.719 404.412 310.791 406.983 309.577ZM399.771 323.966H414.195V325.145H399.771V323.966Z" fill="white"/>
</g>
<path fill-rule="evenodd" clip-rule="evenodd" d="M487.74 162.762C487.131 170.99 485.934 172.143 478.076 172.774C485.934 173.406 487.153 174.538 487.74 182.787C488.35 174.538 489.547 173.406 497.404 172.774C489.569 172.143 488.35 170.99 487.74 162.762Z" fill="white"/>
<path d="M321.795 94.0244C327.132 94.0244 331.459 89.5417 331.459 84.012C331.459 78.4823 327.132 73.9996 321.795 73.9996C316.458 73.9996 312.131 78.4823 312.131 84.012C312.131 89.5417 316.458 94.0244 321.795 94.0244Z" fill="white"/>
<path fill-rule="evenodd" clip-rule="evenodd" d="M191.607 58.699C190.998 66.9265 189.801 68.0801 181.943 68.7114C189.801 69.3426 191.02 70.4744 191.607 78.7237C192.217 70.4744 193.414 69.3426 201.272 68.7114C193.414 68.0584 192.217 66.9265 191.607 58.699Z" fill="white"/>
<g filter="url(#filter7_d_806_26506)">
<path fill-rule="evenodd" clip-rule="evenodd" d="M447.957 159.234C462.609 159.234 474.454 171.112 474.454 185.73C474.454 200.382 462.576 212.227 447.957 212.227C433.306 212.227 421.461 200.349 421.461 185.73C421.461 171.079 433.339 159.234 447.957 159.234Z" fill="#183B56"/>
<path fill-rule="evenodd" clip-rule="evenodd" d="M447.956 167.163C458.202 167.163 466.523 175.484 466.523 185.73C466.523 195.976 458.202 204.297 447.956 204.297C437.71 204.297 429.389 195.976 429.389 185.73C429.389 175.484 437.71 167.163 447.956 167.163Z" fill="white"/>
<path fill-rule="evenodd" clip-rule="evenodd" d="M447.955 168.664C457.385 168.664 465.021 176.3 465.021 185.73C465.021 195.16 457.385 202.796 447.955 202.796C438.524 202.796 430.889 195.16 430.889 185.73C430.889 176.3 438.524 168.664 447.955 168.664Z" fill="#D53232"/>
<path fill-rule="evenodd" clip-rule="evenodd" d="M447.956 168.5C452.72 168.5 457.027 170.425 460.127 173.558C463.227 176.658 465.185 180.965 465.185 185.729C465.185 190.493 463.26 194.8 460.127 197.9C456.994 201 452.72 202.958 447.956 202.958C443.192 202.958 438.884 201.033 435.784 197.9C432.652 194.8 430.727 190.493 430.727 185.729C430.727 180.965 432.652 176.658 435.784 173.558C438.917 170.425 443.224 168.5 447.956 168.5ZM459.931 173.753C456.864 170.686 452.655 168.794 447.956 168.794C443.289 168.794 439.047 170.686 435.98 173.753C432.913 176.821 431.02 181.03 431.02 185.729C431.02 190.395 432.913 194.637 435.98 197.705C439.047 200.772 443.289 202.664 447.956 202.664C452.622 202.664 456.864 200.772 459.931 197.705C462.999 194.637 464.891 190.428 464.891 185.729C464.891 181.063 462.999 176.821 459.931 173.753Z" fill="#1C2642"/>
<path fill-rule="evenodd" clip-rule="evenodd" d="M444.366 168.662L444.334 168.499L444.301 168.336L444.269 168.173L444.236 168.01L444.203 167.846L444.171 167.683L444.138 167.585C444.105 167.585 444.073 167.585 444.04 167.618C443.942 167.651 443.877 167.651 443.779 167.683C443.681 167.716 443.583 167.716 443.518 167.748C443.42 167.781 443.322 167.781 443.224 167.814C443.126 167.846 443.029 167.879 442.931 167.912C442.833 167.944 442.735 167.977 442.637 168.01C442.539 168.042 442.441 168.075 442.343 168.107C442.245 168.14 442.147 168.173 442.017 168.205C441.919 168.238 441.789 168.271 441.691 168.303C441.593 168.336 441.462 168.401 441.364 168.434C441.234 168.466 441.136 168.532 441.005 168.564C440.875 168.597 440.777 168.662 440.646 168.727L440.712 168.891L440.777 169.054L440.842 169.217L440.908 169.38L440.973 169.543L441.038 169.674L441.103 169.837L441.136 169.902L441.266 170.163C441.723 169.967 442.18 169.804 442.67 169.641C443.257 169.445 443.877 169.282 444.464 169.152L444.399 168.858L444.366 168.662Z" fill="#1C2642"/>
<path fill-rule="evenodd" clip-rule="evenodd" d="M453.374 169.185L453.439 169.022L453.505 168.858L453.57 168.695L453.635 168.532L453.7 168.369L453.766 168.206L453.798 168.108C453.766 168.108 453.733 168.075 453.7 168.075C453.603 168.043 453.537 168.01 453.439 167.977C453.341 167.945 453.244 167.912 453.178 167.912C453.08 167.879 452.983 167.847 452.885 167.847C452.787 167.814 452.689 167.782 452.591 167.782C452.493 167.749 452.395 167.716 452.297 167.716C452.199 167.684 452.101 167.651 452.004 167.651C451.906 167.618 451.775 167.618 451.677 167.586C451.579 167.553 451.449 167.553 451.351 167.52C451.22 167.488 451.123 167.488 450.992 167.455C450.861 167.423 450.764 167.423 450.633 167.39C450.503 167.357 450.372 167.357 450.242 167.325L450.209 167.488L450.176 167.651L450.144 167.814L450.111 167.977L450.078 168.14L450.046 168.304L450.013 168.467V168.565L449.98 168.858C450.47 168.924 450.959 168.989 451.449 169.087C452.069 169.217 452.656 169.38 453.276 169.576L453.374 169.283V169.185Z" fill="#1C2642"/>
<path fill-rule="evenodd" clip-rule="evenodd" d="M460.91 174.112L461.04 173.982L461.171 173.851L461.301 173.721L461.432 173.59L461.562 173.459L461.693 173.329L461.791 173.264C461.758 173.231 461.758 173.198 461.725 173.198C461.66 173.133 461.595 173.068 461.53 173.003C461.464 172.937 461.399 172.872 461.334 172.807C461.269 172.742 461.203 172.676 461.138 172.611C461.073 172.546 461.007 172.481 460.91 172.415C460.844 172.35 460.746 172.285 460.681 172.22C460.616 172.154 460.518 172.089 460.453 171.991C460.387 171.926 460.29 171.861 460.224 171.763C460.126 171.697 460.061 171.6 459.963 171.534C459.865 171.469 459.8 171.371 459.702 171.306C459.604 171.241 459.506 171.143 459.409 171.077C459.311 171.012 459.213 170.914 459.115 170.849L459.017 170.98L458.919 171.11L458.821 171.241L458.723 171.371L458.625 171.502L458.527 171.632L458.43 171.763L458.364 171.828L458.201 172.056C458.593 172.35 458.984 172.676 459.343 173.003C459.8 173.427 460.257 173.851 460.681 174.341L460.91 174.112Z" fill="#1C2642"/>
<path fill-rule="evenodd" clip-rule="evenodd" d="M464.988 182.14L465.151 182.108L465.314 182.075L465.477 182.043L465.641 182.01L465.804 181.977L465.967 181.945L466.065 181.912C466.065 181.879 466.065 181.847 466.032 181.814C465.999 181.716 465.999 181.618 465.967 181.553C465.934 181.455 465.934 181.357 465.902 181.292C465.869 181.194 465.836 181.096 465.836 180.998C465.804 180.9 465.771 180.803 465.771 180.705C465.738 180.607 465.706 180.509 465.673 180.411C465.641 180.313 465.608 180.215 465.575 180.117C465.543 180.019 465.51 179.922 465.477 179.791C465.445 179.693 465.412 179.595 465.379 179.465C465.347 179.334 465.314 179.236 465.249 179.138C465.216 179.008 465.151 178.91 465.118 178.779C465.053 178.649 465.021 178.551 464.955 178.421L464.825 178.486L464.662 178.551L464.498 178.616L464.368 178.682L464.205 178.747L464.042 178.812L463.878 178.877L463.781 178.91L463.52 179.041C463.715 179.497 463.878 179.954 464.042 180.444C464.237 181.031 464.401 181.651 464.531 182.271L464.825 182.206L464.988 182.14Z" fill="#1C2642"/>
<path fill-rule="evenodd" clip-rule="evenodd" d="M464.468 191.145L464.631 191.21L464.794 191.276L464.957 191.341L465.12 191.406L465.284 191.471L465.447 191.537L465.545 191.569C465.545 191.537 465.577 191.504 465.577 191.471C465.61 191.374 465.642 191.308 465.675 191.21C465.708 191.112 465.74 191.047 465.74 190.949C465.773 190.851 465.806 190.754 465.806 190.656C465.838 190.558 465.871 190.46 465.871 190.362C465.904 190.264 465.936 190.166 465.936 190.068C465.969 189.97 465.969 189.872 466.001 189.775C466.034 189.677 466.034 189.546 466.067 189.448C466.099 189.35 466.099 189.22 466.132 189.122C466.165 188.991 466.165 188.894 466.197 188.763C466.23 188.633 466.23 188.535 466.262 188.404C466.295 188.274 466.295 188.143 466.328 188.013L466.165 187.98L466.001 187.947L465.838 187.915L465.675 187.882L465.512 187.849L465.349 187.817L465.186 187.784H465.088L464.794 187.751C464.729 188.241 464.664 188.73 464.566 189.22C464.435 189.84 464.272 190.427 464.076 191.047L464.337 191.145H464.468Z" fill="#1C2642"/>
<path fill-rule="evenodd" clip-rule="evenodd" d="M459.543 198.685L459.673 198.815L459.804 198.946L459.934 199.076L460.065 199.207L460.196 199.337L460.326 199.468L460.391 199.566C460.424 199.533 460.457 199.533 460.457 199.501C460.522 199.435 460.587 199.37 460.652 199.305C460.718 199.24 460.783 199.174 460.848 199.109C460.913 199.044 460.979 198.979 461.044 198.913C461.109 198.848 461.174 198.783 461.24 198.718C461.305 198.652 461.37 198.554 461.435 198.489C461.501 198.424 461.566 198.326 461.664 198.261C461.729 198.163 461.827 198.098 461.892 198.032C461.958 197.934 462.055 197.869 462.121 197.771C462.186 197.673 462.284 197.575 462.349 197.51C462.414 197.412 462.512 197.314 462.578 197.216C462.643 197.119 462.741 197.021 462.806 196.923L462.675 196.825L462.545 196.727L462.414 196.629L462.284 196.531L462.153 196.433L462.023 196.335L461.892 196.238L461.827 196.172L461.599 196.009C461.305 196.401 460.979 196.792 460.652 197.151C460.228 197.608 459.804 198.065 459.314 198.489L459.543 198.685Z" fill="#1C2642"/>
<path fill-rule="evenodd" clip-rule="evenodd" d="M451.511 202.762L451.544 202.925L451.577 203.088L451.609 203.251L451.642 203.414L451.675 203.578L451.707 203.741L451.74 203.839C451.772 203.839 451.805 203.839 451.838 203.806C451.936 203.773 452.001 203.773 452.099 203.741C452.197 203.708 452.295 203.708 452.36 203.676C452.458 203.643 452.556 203.643 452.653 203.61C452.751 203.578 452.849 203.545 452.947 203.545C453.045 203.512 453.143 203.48 453.241 203.447C453.339 203.414 453.437 203.382 453.534 203.349C453.632 203.317 453.73 203.284 453.861 203.251C453.959 203.219 454.089 203.186 454.187 203.153C454.285 203.121 454.416 203.056 454.513 203.023C454.644 202.99 454.742 202.925 454.872 202.892C455.003 202.827 455.101 202.794 455.231 202.729L455.166 202.566L455.101 202.403L455.036 202.272L454.97 202.109L454.905 201.946L454.84 201.783L454.774 201.62L454.742 201.555L454.611 201.293C454.154 201.489 453.698 201.652 453.208 201.816C452.621 202.011 452.001 202.175 451.381 202.305L451.446 202.599L451.511 202.762Z" fill="#1C2642"/>
<path fill-rule="evenodd" clip-rule="evenodd" d="M442.506 202.242L442.441 202.405L442.376 202.568L442.31 202.731L442.245 202.894L442.18 203.057L442.115 203.22L442.082 203.318C442.115 203.318 442.147 203.351 442.18 203.351C442.278 203.384 442.343 203.416 442.441 203.449C442.539 203.482 442.604 203.514 442.702 203.514C442.8 203.547 442.898 203.579 442.996 203.579C443.094 203.612 443.191 203.645 443.289 203.645C443.387 203.677 443.485 203.71 443.583 203.71C443.681 203.743 443.779 203.743 443.909 203.775C444.007 203.808 444.105 203.808 444.236 203.84C444.334 203.873 444.464 203.873 444.562 203.906C444.692 203.938 444.79 203.938 444.921 203.971C445.051 204.004 445.149 204.004 445.28 204.036C445.41 204.069 445.541 204.069 445.671 204.102L445.704 203.938L445.737 203.775L445.769 203.612L445.802 203.449L445.835 203.286L445.867 203.123L445.9 202.959V202.862L445.932 202.568C445.443 202.503 444.954 202.437 444.464 202.339C443.844 202.209 443.257 202.046 442.637 201.85L442.539 202.111L442.506 202.242Z" fill="#1C2642"/>
<path fill-rule="evenodd" clip-rule="evenodd" d="M434.967 197.312L434.836 197.443L434.706 197.573L434.575 197.704L434.445 197.834L434.314 197.965L434.184 198.095L434.086 198.161C434.119 198.193 434.119 198.226 434.151 198.226C434.216 198.291 434.282 198.356 434.347 198.422C434.412 198.487 434.477 198.552 434.543 198.618C434.608 198.683 434.673 198.748 434.739 198.813C434.804 198.879 434.869 198.944 434.934 199.009C435 199.074 435.097 199.14 435.163 199.237C435.228 199.303 435.326 199.368 435.391 199.433C435.489 199.499 435.554 199.596 435.62 199.662C435.717 199.727 435.783 199.825 435.881 199.89C435.979 199.955 436.076 200.053 436.142 200.119C436.24 200.184 436.337 200.282 436.435 200.347C436.533 200.445 436.631 200.51 436.762 200.575L436.86 200.445L436.957 200.314L437.055 200.184L437.153 200.053L437.251 199.923L437.349 199.792L437.447 199.662L437.512 199.596L437.675 199.368C437.284 199.074 436.892 198.748 436.533 198.422C436.076 197.998 435.62 197.573 435.195 197.084L434.967 197.312Z" fill="#1C2642"/>
<path fill-rule="evenodd" clip-rule="evenodd" d="M430.891 189.285L430.728 189.317L430.565 189.35L430.402 189.383L430.239 189.415L430.076 189.448L429.912 189.481L429.814 189.513C429.814 189.546 429.814 189.578 429.847 189.611C429.88 189.709 429.88 189.774 429.912 189.872C429.945 189.97 429.945 190.068 429.978 190.133C430.01 190.231 430.01 190.329 430.043 190.427C430.076 190.525 430.108 190.623 430.108 190.721C430.141 190.818 430.173 190.916 430.206 191.014C430.239 191.112 430.271 191.21 430.304 191.308C430.337 191.406 430.369 191.504 430.402 191.634C430.434 191.732 430.467 191.863 430.5 191.961C430.532 192.058 430.565 192.189 430.63 192.287C430.663 192.417 430.728 192.515 430.761 192.646C430.793 192.776 430.859 192.874 430.924 193.005L431.087 192.939L431.25 192.874L431.381 192.809L431.544 192.744L431.674 192.678L431.805 192.613L431.968 192.548L432.033 192.515L432.294 192.385C432.099 191.928 431.935 191.471 431.772 190.982C431.577 190.394 431.413 189.774 431.283 189.187L430.989 189.252L430.891 189.285Z" fill="#1C2642"/>
<path fill-rule="evenodd" clip-rule="evenodd" d="M431.414 180.279L431.251 180.214L431.088 180.149L430.925 180.084L430.761 180.018L430.598 179.953L430.435 179.888L430.337 179.855C430.337 179.888 430.305 179.92 430.305 179.953C430.272 180.051 430.239 180.116 430.207 180.214C430.174 180.312 430.141 180.377 430.109 180.475C430.076 180.573 430.044 180.671 430.044 180.769C430.011 180.867 429.978 180.965 429.978 181.063C429.946 181.16 429.913 181.258 429.913 181.356C429.88 181.454 429.88 181.552 429.848 181.683C429.815 181.78 429.815 181.911 429.783 182.009C429.75 182.107 429.75 182.237 429.717 182.335C429.685 182.466 429.685 182.564 429.652 182.694C429.619 182.825 429.619 182.923 429.587 183.053C429.554 183.184 429.554 183.314 429.521 183.445L429.685 183.477L429.848 183.51L430.011 183.543L430.174 183.575L430.337 183.608L430.5 183.64L430.664 183.673H430.761L431.055 183.706C431.12 183.216 431.186 182.727 431.284 182.237C431.414 181.617 431.577 181.03 431.773 180.443L431.479 180.345L431.414 180.279Z" fill="#1C2642"/>
<path fill-rule="evenodd" clip-rule="evenodd" d="M436.339 172.743L436.209 172.613L436.078 172.482L435.948 172.352L435.817 172.221L435.687 172.09L435.556 171.96L435.491 171.862C435.458 171.895 435.458 171.895 435.426 171.927C435.36 171.993 435.295 172.058 435.23 172.123C435.165 172.188 435.099 172.254 435.034 172.319C434.969 172.384 434.904 172.449 434.838 172.515C434.773 172.58 434.708 172.645 434.642 172.743C434.577 172.808 434.512 172.906 434.447 172.972C434.381 173.037 434.284 173.135 434.218 173.2C434.153 173.298 434.055 173.363 433.99 173.461C433.925 173.559 433.827 173.624 433.761 173.722C433.696 173.82 433.598 173.885 433.533 173.983C433.468 174.081 433.37 174.179 433.305 174.277C433.239 174.375 433.141 174.473 433.076 174.57L433.207 174.668L433.337 174.766L433.468 174.864L433.598 174.962L433.729 175.06L433.859 175.158L433.99 175.256L434.055 175.321L434.284 175.484C434.577 175.093 434.904 174.701 435.23 174.342C435.654 173.885 436.078 173.428 436.568 173.004L436.339 172.743Z" fill="#1C2642"/>
<path fill-rule="evenodd" clip-rule="evenodd" d="M447.957 168.664C457.388 168.664 465.023 176.299 465.023 185.73C465.023 190.135 463.326 194.181 460.585 197.216C462.967 194.279 464.403 190.559 464.403 186.48C464.403 177.05 456.768 169.414 447.337 169.414C442.345 169.414 437.809 171.568 434.709 174.994C437.842 171.111 442.606 168.664 447.957 168.664Z" fill="#A20101"/>
<path fill-rule="evenodd" clip-rule="evenodd" d="M429.746 175.386C430.856 173.689 432.128 172.156 433.531 170.72C434.315 169.97 435.098 169.252 435.946 168.566L432.455 164.194C429.453 166.347 426.94 169.121 425.08 172.319L429.746 175.386Z" fill="white"/>
<path fill-rule="evenodd" clip-rule="evenodd" d="M447.793 164.78C449.816 164.911 451.774 165.205 453.732 165.727C454.776 166.02 455.788 166.347 456.799 166.738L458.822 161.55C455.461 160.049 451.807 159.233 448.087 159.201L447.793 164.78Z" fill="white"/>
<path fill-rule="evenodd" clip-rule="evenodd" d="M466 175.125C466.914 176.92 467.632 178.812 468.154 180.738C468.447 181.782 468.643 182.826 468.806 183.903L474.321 183.054C473.962 179.4 472.82 175.81 470.993 172.58L466 175.125Z" fill="white"/>
<path fill-rule="evenodd" clip-rule="evenodd" d="M466.165 196.042C465.055 197.738 463.783 199.272 462.38 200.708C461.629 201.458 460.813 202.176 459.965 202.861L463.456 207.234C466.458 205.08 468.971 202.307 470.831 199.109L466.165 196.042Z" fill="white"/>
<path fill-rule="evenodd" clip-rule="evenodd" d="M448.117 206.646C446.094 206.548 444.104 206.222 442.178 205.7C441.134 205.406 440.123 205.08 439.111 204.688L437.088 209.876C440.449 211.377 444.104 212.193 447.823 212.226L448.117 206.646Z" fill="white"/>
<path fill-rule="evenodd" clip-rule="evenodd" d="M429.913 196.334C428.999 194.539 428.281 192.647 427.759 190.721C427.498 189.677 427.27 188.6 427.106 187.556L421.592 188.405C421.951 192.059 423.093 195.649 424.92 198.879L429.913 196.334Z" fill="white"/>
<path fill-rule="evenodd" clip-rule="evenodd" d="M463.098 168.336C463.587 168.336 463.979 168.728 463.979 169.217C463.979 169.707 463.587 170.098 463.098 170.098C462.608 170.098 462.217 169.707 462.217 169.217C462.217 168.761 462.608 168.336 463.098 168.336ZM440.484 163.931C440.713 163.507 441.268 163.376 441.692 163.605C442.116 163.833 442.246 164.388 442.018 164.812C441.79 165.236 441.235 165.367 440.811 165.139C440.386 164.877 440.256 164.355 440.484 163.931ZM425.344 181.291C425.115 180.867 425.246 180.312 425.67 180.083C426.094 179.855 426.649 179.986 426.877 180.41C427.138 180.834 426.975 181.389 426.551 181.617C426.127 181.878 425.605 181.715 425.344 181.291ZM432.816 203.121C432.327 203.121 431.935 202.729 431.935 202.24C431.935 201.75 432.327 201.359 432.816 201.359C433.306 201.359 433.697 201.75 433.697 202.24C433.73 202.697 433.306 203.121 432.816 203.121ZM455.462 207.526C455.201 207.95 454.679 208.081 454.255 207.852C453.83 207.624 453.7 207.069 453.928 206.645C454.189 206.221 454.711 206.09 455.136 206.319C455.56 206.547 455.69 207.102 455.462 207.526ZM470.603 190.134C470.831 190.558 470.701 191.113 470.276 191.341C469.852 191.57 469.297 191.439 469.069 191.015C468.841 190.591 468.971 190.036 469.395 189.808C469.787 189.579 470.342 189.742 470.603 190.134Z" fill="white"/>
<path fill-rule="evenodd" clip-rule="evenodd" d="M447.953 167.066C453.109 167.066 457.775 169.154 461.169 172.548C464.563 175.909 466.651 180.575 466.651 185.763C466.651 190.919 464.563 195.585 461.169 198.979C457.775 202.373 453.109 204.461 447.953 204.461C442.798 204.461 438.131 202.373 434.738 198.979C431.344 195.618 429.256 190.919 429.256 185.763C429.256 180.608 431.344 175.942 434.738 172.548C438.131 169.154 442.798 167.066 447.953 167.066ZM461.006 172.678C457.677 169.35 453.044 167.262 447.953 167.262C442.863 167.262 438.229 169.317 434.901 172.678C431.573 176.007 429.484 180.64 429.484 185.731C429.484 190.821 431.54 195.455 434.901 198.783C438.229 202.112 442.863 204.2 447.953 204.2C453.044 204.2 457.677 202.144 461.006 198.783C464.334 195.455 466.422 190.821 466.422 185.731C466.422 180.64 464.367 176.007 461.006 172.678Z" fill="#1C2642"/>
<g opacity="0.23">
<path opacity="0.4" fill-rule="evenodd" clip-rule="evenodd" d="M461.695 204.689C447.109 205.864 434.317 194.965 433.175 180.379C432.555 172.743 435.263 165.597 440.06 160.343C428.411 163.9 420.416 175.158 421.428 187.786C422.603 202.372 435.361 213.271 449.947 212.096C456.898 211.541 463 208.376 467.372 203.612C465.545 204.167 463.652 204.558 461.695 204.689Z" fill="white"/>
</g>
<path fill-rule="evenodd" clip-rule="evenodd" d="M447.953 178.613C450.302 179.723 451.346 181.518 451.281 183.867C450.139 184.389 449.976 185.335 450.269 186.445C451.379 186.739 452.227 186.216 452.684 184.52L459.047 182.986L454.642 191.144H447.953H441.296L436.891 182.986L443.254 184.52C443.71 186.216 444.559 186.739 445.668 186.445C445.962 185.303 445.799 184.389 444.657 183.867C444.526 181.485 445.603 179.723 447.953 178.613ZM441.361 191.764H454.544V192.84H441.361V191.764Z" fill="white"/>
</g>
<path d="M418.261 113.926C421.53 109.263 424.438 104.336 426.962 99.1924C403.384 95.2026 385.43 74.6767 385.43 49.9687C385.43 22.8092 407.422 0 435.374 0C462.077 0 483.901 20.9825 485.247 47.397C486.929 82.8967 458.881 115.704 419.607 116.425C418.31 116.449 417.516 114.983 418.261 113.926Z" fill="#D53232"/>
<path d="M435.352 16.2972C416.893 16.2972 401.871 31.3191 401.871 49.778C401.871 68.2368 416.893 83.2587 435.352 83.2587C453.811 83.2587 468.833 68.2368 468.833 49.778C468.833 31.3191 453.811 16.2972 435.352 16.2972ZM435.352 25.8391C441.793 25.8391 447.634 28.4109 451.936 32.5689L413.648 59.8486C412.23 56.7962 411.413 53.3832 411.413 49.778C411.413 36.5828 422.157 25.8391 435.352 25.8391ZM435.352 73.7168C429.199 73.7168 423.599 71.3614 419.345 67.5158L457.368 40.4043C458.594 43.2885 459.267 46.4371 459.267 49.7539C459.291 62.9732 448.547 73.7168 435.352 73.7168Z" fill="white"/>
<defs>
<filter id="filter0_d_806_26506" x="314.544" y="107.919" width="33.5164" height="32.9172" filterUnits="userSpaceOnUse" color-interpolation-filters="sRGB">
<feFlood flood-opacity="0" result="BackgroundImageFix"/>
<feColorMatrix in="SourceAlpha" type="matrix" values="0 0 0 0 0 0 0 0 0 0 0 0 0 0 0 0 0 0 127 0" result="hardAlpha"/>
<feOffset dx="-2.1766" dy="1.74128"/>
<feComposite in2="hardAlpha" operator="out"/>
<feColorMatrix type="matrix" values="0 0 0 0 0 0 0 0 0 0 0 0 0 0 0 0 0 0 0.06 0"/>
<feBlend mode="normal" in2="BackgroundImageFix" result="effect1_dropShadow_806_26506"/>
<feBlend mode="normal" in="SourceGraphic" in2="effect1_dropShadow_806_26506" result="shape"/>
</filter>
<filter id="filter1_d_806_26506" x="84.0718" y="130.38" width="40.731" height="39.9799" filterUnits="userSpaceOnUse" color-interpolation-filters="sRGB">
<feFlood flood-opacity="0" result="BackgroundImageFix"/>
<feColorMatrix in="SourceAlpha" type="matrix" values="0 0 0 0 0 0 0 0 0 0 0 0 0 0 0 0 0 0 127 0" result="hardAlpha"/>
<feOffset dx="-2.64502" dy="2.11602"/>
<feComposite in2="hardAlpha" operator="out"/>
<feColorMatrix type="matrix" values="0 0 0 0 0 0 0 0 0 0 0 0 0 0 0 0 0 0 0.06 0"/>
<feBlend mode="normal" in2="BackgroundImageFix" result="effect1_dropShadow_806_26506"/>
<feBlend mode="normal" in="SourceGraphic" in2="effect1_dropShadow_806_26506" result="shape"/>
</filter>
<filter id="filter2_d_806_26506" x="292.282" y="262.141" width="33.5204" height="32.9119" filterUnits="userSpaceOnUse" color-interpolation-filters="sRGB">
<feFlood flood-opacity="0" result="BackgroundImageFix"/>
<feColorMatrix in="SourceAlpha" type="matrix" values="0 0 0 0 0 0 0 0 0 0 0 0 0 0 0 0 0 0 127 0" result="hardAlpha"/>
<feOffset dx="-2.1766" dy="1.74128"/>
<feComposite in2="hardAlpha" operator="out"/>
<feColorMatrix type="matrix" values="0 0 0 0 0 0 0 0 0 0 0 0 0 0 0 0 0 0 0.06 0"/>
<feBlend mode="normal" in2="BackgroundImageFix" result="effect1_dropShadow_806_26506"/>
<feBlend mode="normal" in="SourceGraphic" in2="effect1_dropShadow_806_26506" result="shape"/>
</filter>
<filter id="filter3_d_806_26506" x="315.027" y="201.543" width="103.806" height="128.502" filterUnits="userSpaceOnUse" color-interpolation-filters="sRGB">
<feFlood flood-opacity="0" result="BackgroundImageFix"/>
<feColorMatrix in="SourceAlpha" type="matrix" values="0 0 0 0 0 0 0 0 0 0 0 0 0 0 0 0 0 0 127 0" result="hardAlpha"/>
<feOffset dx="-2.1766" dy="1.74128"/>
<feComposite in2="hardAlpha" operator="out"/>
<feColorMatrix type="matrix" values="0 0 0 0 0 0 0 0 0 0 0 0 0 0 0 0 0 0 0.06 0"/>
<feBlend mode="normal" in2="BackgroundImageFix" result="effect1_dropShadow_806_26506"/>
<feBlend mode="normal" in="SourceGraphic" in2="effect1_dropShadow_806_26506" result="shape"/>
</filter>
<filter id="filter4_d_806_26506" x="381.964" y="190.222" width="104.493" height="128.894" filterUnits="userSpaceOnUse" color-interpolation-filters="sRGB">
<feFlood flood-opacity="0" result="BackgroundImageFix"/>
<feColorMatrix in="SourceAlpha" type="matrix" values="0 0 0 0 0 0 0 0 0 0 0 0 0 0 0 0 0 0 127 0" result="hardAlpha"/>
<feOffset dx="-2.1766" dy="1.74128"/>
<feComposite in2="hardAlpha" operator="out"/>
<feColorMatrix type="matrix" values="0 0 0 0 0 0 0 0 0 0 0 0 0 0 0 0 0 0 0.06 0"/>
<feBlend mode="normal" in2="BackgroundImageFix" result="effect1_dropShadow_806_26506"/>
<feBlend mode="normal" in="SourceGraphic" in2="effect1_dropShadow_806_26506" result="shape"/>
</filter>
<filter id="filter5_d_806_26506" x="424.878" y="205.189" width="135.423" height="140.078" filterUnits="userSpaceOnUse" color-interpolation-filters="sRGB">
<feFlood flood-opacity="0" result="BackgroundImageFix"/>
<feColorMatrix in="SourceAlpha" type="matrix" values="0 0 0 0 0 0 0 0 0 0 0 0 0 0 0 0 0 0 127 0" result="hardAlpha"/>
<feOffset dx="-2.1766" dy="1.74128"/>
<feComposite in2="hardAlpha" operator="out"/>
<feColorMatrix type="matrix" values="0 0 0 0 0 0 0 0 0 0 0 0 0 0 0 0 0 0 0.06 0"/>
<feBlend mode="normal" in2="BackgroundImageFix" result="effect1_dropShadow_806_26506"/>
<feBlend mode="normal" in="SourceGraphic" in2="effect1_dropShadow_806_26506" result="shape"/>
</filter>
<filter id="filter6_d_806_26506" x="374.289" y="288.333" width="61.6877" height="60.8787" filterUnits="userSpaceOnUse" color-interpolation-filters="sRGB">
<feFlood flood-opacity="0" result="BackgroundImageFix"/>
<feColorMatrix in="SourceAlpha" type="matrix" values="0 0 0 0 0 0 0 0 0 0 0 0 0 0 0 0 0 0 127 0" result="hardAlpha"/>
<feOffset dx="-3.57053" dy="2.85643"/>
<feComposite in2="hardAlpha" operator="out"/>
<feColorMatrix type="matrix" values="0 0 0 0 0 0 0 0 0 0 0 0 0 0 0 0 0 0 0.06 0"/>
<feBlend mode="normal" in2="BackgroundImageFix" result="effect1_dropShadow_806_26506"/>
<feBlend mode="normal" in="SourceGraphic" in2="effect1_dropShadow_806_26506" result="shape"/>
</filter>
<filter id="filter7_d_806_26506" x="418.079" y="159.201" width="56.3744" height="55.6366" filterUnits="userSpaceOnUse" color-interpolation-filters="sRGB">
<feFlood flood-opacity="0" result="BackgroundImageFix"/>
<feColorMatrix in="SourceAlpha" type="matrix" values="0 0 0 0 0 0 0 0 0 0 0 0 0 0 0 0 0 0 127 0" result="hardAlpha"/>
<feOffset dx="-3.26309" dy="2.61047"/>
<feComposite in2="hardAlpha" operator="out"/>
<feColorMatrix type="matrix" values="0 0 0 0 0 0 0 0 0 0 0 0 0 0 0 0 0 0 0.06 0"/>
<feBlend mode="normal" in2="BackgroundImageFix" result="effect1_dropShadow_806_26506"/>
<feBlend mode="normal" in="SourceGraphic" in2="effect1_dropShadow_806_26506" result="shape"/>
</filter>
</defs>
</svg>
