<svg width="382" height="262" viewBox="0 0 382 262" fill="none" xmlns="http://www.w3.org/2000/svg">
<path d="M111.568 44V9.296H135.4L135.376 15.2H118.6V23.624H133.168V29.408H118.552V38.024L135.64 38.048V44H111.568ZM142.177 44V9.296H156.817C159.585 9.296 161.849 9.736 163.609 10.616C165.369 11.496 166.665 12.72 167.497 14.288C168.329 15.84 168.745 17.632 168.745 19.664C168.745 21.488 168.457 23.032 167.881 24.296C167.321 25.544 166.577 26.584 165.649 27.416C164.737 28.248 163.737 28.928 162.649 29.456L169.105 44H161.833L156.193 30.632H149.161V44H142.177ZM149.161 25.232H155.569C157.441 25.232 158.921 24.728 160.009 23.72C161.113 22.712 161.665 21.416 161.665 19.832C161.665 18.232 161.137 16.968 160.081 16.04C159.025 15.112 157.689 14.648 156.073 14.648H149.161V25.232ZM175.599 44V9.296H190.239C193.007 9.296 195.271 9.736 197.031 10.616C198.791 11.496 200.087 12.72 200.919 14.288C201.751 15.84 202.167 17.632 202.167 19.664C202.167 21.488 201.879 23.032 201.303 24.296C200.743 25.544 199.999 26.584 199.071 27.416C198.159 28.248 197.159 28.928 196.071 29.456L202.527 44H195.255L189.615 30.632H182.583V44H175.599ZM182.583 25.232H188.991C190.863 25.232 192.343 24.728 193.431 23.72C194.535 22.712 195.087 21.416 195.087 19.832C195.087 18.232 194.559 16.968 193.503 16.04C192.447 15.112 191.111 14.648 189.495 14.648H182.583V25.232ZM222.695 44.48C219.415 44.48 216.575 43.768 214.175 42.344C211.791 40.904 209.943 38.864 208.631 36.224C207.335 33.568 206.687 30.4 206.687 26.72C206.687 23.024 207.343 19.84 208.655 17.168C209.983 14.496 211.847 12.44 214.247 11C216.647 9.544 219.463 8.816 222.695 8.816C225.911 8.816 228.711 9.536 231.095 10.976C233.479 12.416 235.319 14.472 236.615 17.144C237.927 19.816 238.583 23.008 238.583 26.72C238.583 30.384 237.935 33.544 236.639 36.2C235.359 38.856 233.527 40.904 231.143 42.344C228.759 43.768 225.943 44.48 222.695 44.48ZM222.695 38.72C224.391 38.72 225.855 38.32 227.087 37.52C228.335 36.704 229.295 35.424 229.967 33.68C230.639 31.92 230.975 29.632 230.975 26.816C230.975 23.92 230.631 21.576 229.943 19.784C229.271 17.992 228.311 16.68 227.063 15.848C225.831 15 224.375 14.576 222.695 14.576C221.015 14.576 219.551 15 218.303 15.848C217.055 16.68 216.087 18 215.399 19.808C214.711 21.6 214.367 23.936 214.367 26.816C214.367 29.648 214.711 31.936 215.399 33.68C216.087 35.424 217.055 36.704 218.303 37.52C219.551 38.32 221.015 38.72 222.695 38.72ZM244.786 44V9.296H259.426C262.194 9.296 264.458 9.736 266.218 10.616C267.978 11.496 269.274 12.72 270.106 14.288C270.938 15.84 271.354 17.632 271.354 19.664C271.354 21.488 271.066 23.032 270.49 24.296C269.93 25.544 269.186 26.584 268.258 27.416C267.346 28.248 266.346 28.928 265.258 29.456L271.714 44H264.442L258.802 30.632H251.77V44H244.786ZM251.77 25.232H258.178C260.05 25.232 261.53 24.728 262.618 23.72C263.722 22.712 264.274 21.416 264.274 19.832C264.274 18.232 263.746 16.968 262.69 16.04C261.634 15.112 260.298 14.648 258.682 14.648H251.77V25.232Z" fill="#01231F"/>
<path d="M280.441 65.1851C280.851 65.6905 281.719 65.3013 282.045 65.9897C282.068 66.0345 282.335 66.038 282.346 66.0129C282.393 65.8444 282.48 65.6186 282.411 65.5013C282.171 65.1469 281.832 64.8451 282.313 64.4345C282.969 63.874 283.617 63.3128 284.273 62.7608C284.753 62.3588 285.241 62.5258 285.433 63.1607C285.604 63.7078 285.855 63.9914 286.188 64.0114C286.874 64.0646 286.903 64.0324 286.589 63.3967C286.455 63.1279 286.246 62.9309 286.526 62.6598L287.802 61.4498C288.27 60.3895 289.031 59.7395 290.086 59.4997C290.292 59.8515 290.596 59.832 290.876 59.6643C291.14 59.4953 291.342 59.2268 291.613 59.0669C291.895 58.8907 292.206 58.8804 292.454 59.5799C292.535 59.767 292.59 59.6076 292.585 59.4522C292.591 59.3752 292.471 59.2539 292.402 59.2486C292.334 59.2433 292.204 59.3538 292.19 59.4217C292.161 59.5744 292.182 59.7483 292.213 59.9057C292.211 59.9313 292.393 59.9196 292.446 59.5792C292.635 59.0256 292.909 58.8315 293.126 58.5986C293.446 58.2531 293.804 58.0914 294.26 58.23C294.504 58.3092 294.947 58.0508 294.964 58.4999C294.979 58.8713 294.836 59.2564 294.755 59.6376C293.465 59.4601 293.974 60.0249 294.345 60.5789C294.376 60.6329 294.219 60.8705 294.092 60.9554C293.891 61.0948 293.418 60.6276 293.4 61.186C293.379 62.0196 293.016 62.3532 292.2 62.1867C291.928 62.1311 291.869 62.2299 291.888 62.5413C291.91 62.8186 291.74 63.3393 291.471 63.0171C290.895 62.318 290.441 62.6101 289.874 62.9106C289.774 62.9632 289.532 62.7549 289.262 62.5532C289.231 62.5163 289.29 62.6415 289.359 62.6468C289.427 62.6521 289.547 62.5495 289.571 62.4738C289.633 62.2203 289.718 61.9082 289.272 61.9856C289.21 61.998 289.206 62.2819 289.262 62.5532C289.158 63.1221 288.95 63.571 288.751 64.0291C288.551 64.4873 288.441 65.0213 288.12 65.3753C287.752 65.7773 287.533 66.1565 287.379 66.6956C287.223 67.2605 286.692 67.6499 285.945 67.6955C285.26 67.7371 284.577 67.9769 283.905 68.1832C283.763 68.2239 283.698 68.5116 283.598 68.6847C283.748 68.7566 283.902 68.8891 284.048 68.8918C284.48 68.8908 284.591 69.1319 284.395 69.4268C284.228 69.6894 283.922 69.8551 283.672 70.0683C283.099 70.5578 282.485 71.0097 281.96 71.5459C281.435 72.0822 280.835 72.3629 280.091 72.3828C280.234 73.3239 279.494 73.7316 278.895 74.1071C277.67 74.8819 277.047 76.5645 275.266 76.4782C275.142 77.08 274.923 77.5711 274.406 78.0046C271.175 80.6994 267.975 83.4396 264.808 86.1995C264.336 86.6107 263.886 86.6275 263.354 86.5777C263.465 87.9383 262.205 88.2626 261.493 88.9825C260.818 89.6707 260.038 90.2647 259.29 90.8871C258.811 91.2805 258.435 91.8973 257.642 91.655C257.608 91.6523 257.423 91.9222 257.429 92.0605C257.45 92.5787 257.071 92.7905 256.756 93.0674C254.869 94.678 252.99 96.3063 251.089 97.8899C250.637 98.2682 250.382 98.6618 250.432 99.234C250.026 99.237 249.616 99.2999 249.225 99.218C248.639 99.0951 248.551 99.3294 248.512 99.843C248.492 100.091 248.195 100.361 247.964 100.558C246.418 101.902 244.832 103.209 243.301 104.572C242.773 105.039 241.94 105.31 242.011 106.289C242.007 106.34 241.256 106.342 241.007 106.547C239.097 108.13 237.218 109.758 235.333 111.36C235.018 111.628 235.483 112.207 234.92 112.344C234.629 112.416 234.238 112.343 234.035 112.508C233.391 113.018 232.54 113.417 232.674 114.469C231.71 114.093 231.862 114.923 231.584 115.384C231.309 115.819 230.807 116.391 230.383 116.402C228.79 116.459 228.02 117.708 226.98 118.532C225.462 119.74 224.014 121.04 222.535 122.304C221.712 123.006 220.858 123.663 220.083 124.421C219.429 125.06 218.341 125.389 218.429 126.593C217.954 126.702 217.48 126.579 217.017 126.983C214.099 129.547 211.133 132.055 208.167 134.564C207.816 134.864 207.671 135.171 207.584 135.621C207.456 136.274 206.951 136.657 206.254 136.741C205.958 136.778 205.543 136.789 205.407 136.976C205.118 137.367 205.072 137.958 204.752 138.303C204.421 138.665 203.733 138.19 203.314 138.7C203.046 139.032 202.417 139.242 202.384 139.558C202.226 140.924 201.043 141.374 200.255 142.183C200.179 142.263 200.088 142.325 200.014 142.397L196.815 145.128C195.668 146.107 194.449 147.021 193.39 148.092C192.462 149.037 190.82 149.4 190.782 151.111C189.343 150.844 188.825 152.191 187.874 152.763C187.457 153.015 187.452 153.419 187.325 153.831C187.139 154.445 186.66 154.942 185.94 154.869C185.281 154.801 184.704 155.23 184.642 155.578C184.41 156.903 183.301 157.403 182.513 158.203C182.091 158.636 181.625 158.642 181.078 158.669C180.628 158.686 180.411 159.151 180.478 159.621C180.521 159.952 180.446 160.032 180.134 159.939C179.678 159.801 179.097 159.954 179.083 160.349C179.051 161.095 178.666 161.496 178.168 161.914C175.617 164.076 173.026 166.2 170.556 168.446C169.422 169.477 167.719 170.06 167.465 171.892C166.794 172.417 166.163 172.988 165.446 173.44C165.191 173.601 164.643 173.214 164.631 173.928C164.628 174.186 164.388 174.495 164.175 174.685C163.127 175.62 162.047 176.518 160.984 177.426C159.92 178.334 158.776 179.175 157.809 180.177C156.889 181.13 155.23 181.484 155.209 183.205C155.106 183.197 154.992 183.214 154.9 183.181C154.105 182.964 153.644 183.557 153.331 184.041C151.871 186.278 151.362 186.713 149.059 187.8C148.423 188.095 147.943 188.713 147.389 189.178C147.54 190.137 146.713 190.443 146.177 190.901C142.744 193.855 139.296 196.8 135.839 199.736C135.34 200.154 134.853 200.529 134.915 201.3C134.921 201.439 134.45 201.721 134.19 201.744C132.967 201.812 132.246 202.42 132.007 203.615C131.991 203.709 131.959 203.792 131.934 203.885C130.764 203.493 130.585 204.358 130.343 205.14C129.618 205.023 129.292 205.222 128.997 206.017C128.559 207.215 127.457 208.068 126.272 208.424C125.557 208.635 125.156 208.682 125.066 209.502C125.04 209.835 124.609 210.172 124.295 210.432C116.093 217.443 107.883 224.446 99.6899 231.458C98.8392 232.184 98.1242 232.163 97.1823 231.504C96.4126 230.963 96.3155 231.101 96.3541 230.381C96.3886 229.712 96.388 229.721 95.4655 229.925C95.3427 229.95 95.045 229.78 95.0503 229.712C95.0828 229.292 95.1919 228.887 94.5145 228.938C94.1929 228.965 93.8635 228.871 93.5433 228.88C93.2488 228.892 93.2383 228.805 93.2714 228.489C93.335 227.779 93.575 227.023 92.9935 226.392C93.2842 225.76 93.4859 225.052 93.9073 224.517C94.367 223.932 95.0294 223.519 95.6033 223.021C103.805 216.018 112.015 209.007 120.217 201.996C120.92 201.396 121.795 200.912 121.847 199.788C121.856 199.677 122.38 199.485 122.655 199.498C123.059 199.521 123.199 199.385 123.167 199.021C123.122 198.492 123.684 198.372 123.84 198.023C124.112 197.415 125.202 198.386 125.171 197.23C125.149 196.505 125.953 196.275 126.416 195.871C129.757 192.978 133.131 190.114 136.496 187.24C137.319 186.537 138.149 185.853 138.956 185.132C139.634 184.521 140.557 184.084 140.565 182.974C141.579 183.38 141.318 182.404 141.632 182.023C141.974 181.619 142.43 181.302 142.854 180.964C143.267 180.643 143.718 180.067 144.121 180.098C144.937 180.153 144.782 179.701 144.973 179.243C145.163 178.801 145.698 178.463 146.144 178.171C146.982 177.607 147.489 176.415 148.804 176.715C148.841 175.004 150.493 174.641 151.412 173.696C152.388 172.696 153.524 171.854 154.587 170.946C155.65 170.038 156.707 169.103 157.794 168.223C158.172 167.917 158.176 167.521 158.326 167.145C158.402 166.953 158.996 166.973 159.34 166.879C159.437 166.852 159.53 166.765 159.58 166.674C159.838 166.246 159.665 165.69 160.171 165.29C161.532 164.224 162.805 163.057 164.133 161.963C164.262 161.861 164.546 161.978 164.748 161.933C165.407 161.786 165.502 161.794 165.596 161.25C165.674 160.791 165.803 160.465 166.178 160.193C166.911 159.647 167.477 158.812 168.563 158.948C168.735 157.17 170.531 156.844 171.455 155.727C171.655 155.485 172.041 155.515 172.305 156.224C172.386 156.411 172.441 156.252 172.436 156.096C172.442 156.019 172.322 155.898 172.253 155.893C172.185 155.887 172.055 155.998 172.041 156.066C172.012 156.218 172.033 156.392 172.064 156.55C172.062 156.575 172.245 156.564 172.297 156.223C172.329 155.804 172.492 155.713 172.478 155.669C172.256 154.851 173.052 154.387 173.179 153.648C173.27 153.138 173.975 152.728 174.439 152.308C175.163 151.658 175.902 151.034 176.649 150.421C177.139 150.011 177.643 149.628 178.14 149.227C179.397 149.729 178.784 148.27 179.418 148C179.99 147.76 180.391 147.154 180.92 146.79C181.668 146.271 182.146 145.223 183.325 145.504C183.305 144.53 184.072 144.098 184.683 143.569C187.874 140.836 191.064 138.104 194.271 135.39C194.613 135.098 194.919 134.82 194.836 134.34C194.784 134.009 194.867 133.938 195.188 134.032C195.643 134.17 196.216 134.017 196.23 133.613C196.254 132.857 196.655 132.475 197.146 132.048C197.563 131.684 197.962 131.431 198.57 131.504C198.681 131.512 198.882 130.701 199.011 130.711C199.775 130.77 200.229 130.59 200.279 129.724C200.299 129.468 200.54 129.142 200.776 128.996C201.704 128.38 202.237 127.069 203.696 127.302C203.815 127.32 204.067 126.858 204.175 126.582C204.497 125.763 204.47 125.778 205.569 126.087C205.974 126.204 206.415 126.196 206.837 126.211C206.871 126.214 206.992 125.887 206.951 125.746C206.655 124.664 207.142 123.281 208.153 122.705C208.487 122.516 208.637 122.82 208.591 123.187C208.58 123.324 208.698 123.479 208.764 123.631C208.943 123.55 209.17 123.507 209.301 123.379C209.432 123.252 209.51 123.025 209.525 122.828C209.566 122.186 209.852 121.838 210.518 121.941C210.944 122.008 211.02 121.808 211.021 121.463C211.025 120.973 211.293 120.632 211.781 120.678C212.271 120.716 212.349 120.602 212.558 120.127C212.956 119.228 213.219 118.284 214.104 117.551C221.197 111.599 228.226 105.565 235.256 99.5307C235.82 99.0492 236.341 98.5728 237.159 98.7137C237.158 97.267 238.515 96.9157 239.301 96.1327C240.209 95.2214 241.246 94.4405 242.235 93.5958C243.132 92.83 244.045 92.074 244.935 91.2819C245.353 90.9095 245.744 90.6471 246.351 90.7285C246.437 90.7352 246.575 90.0656 246.755 89.7523C246.844 89.6042 247.09 89.5458 247.286 89.4748C247.375 89.4387 247.501 89.4829 247.603 89.4994C248.1 89.5551 248.418 89.3473 248.499 88.8541C248.714 87.6394 249.453 87.0249 250.655 86.9975C250.932 86.9931 250.995 86.9635 250.976 86.6434C250.947 86.0212 251.221 85.6032 251.912 85.7084C252.568 85.8196 252.897 85.3628 253.245 85.0022C253.582 84.6581 253.289 83.6451 254.311 84.0515C254.388 82.8432 255.417 82.3719 256.177 81.7074C256.371 81.533 256.757 81.5715 257.047 81.5079C257.609 81.3792 257.618 81.3799 257.856 80.7611C257.931 80.5689 257.859 80.2705 257.98 80.1593C258.862 79.3665 259.751 78.5829 260.689 77.8547C260.891 77.6981 261.305 77.8163 261.572 77.7078C261.83 77.6073 262.236 77.389 262.242 77.1914C262.287 76.6094 262.492 76.2032 262.959 75.8605C263.48 75.479 263.963 75.0428 264.437 74.6059C265.403 73.7249 266.34 72.7813 267.665 74.0638C268.459 73.6258 269.546 73.9684 270.182 73.1135C270.523 73.5101 270.793 73.9272 271.45 73.9178C272.185 73.9058 272.198 73.9585 271.964 73.1912C271.909 73.0061 271.838 72.8026 271.844 72.6136C271.86 72.2962 271.818 72.1724 271.441 72.0312C270.299 71.6069 270.272 71.3982 271.098 70.6527C271.581 70.2251 271.77 69.8953 271.267 69.3655C271.179 69.2726 271.26 69.0119 271.265 68.8315C271.45 68.906 271.644 68.9641 271.818 69.0551C271.909 69.1052 271.952 69.2205 272.032 69.2956C272.542 69.7772 273.04 69.8157 273.526 69.4113C274.015 69.0015 274.49 68.556 274.995 68.1732C275.224 68.0015 275.539 67.8279 275.806 67.8399C276.426 67.8621 276.845 67.6879 276.854 67.0169C276.86 66.3802 277.476 66.0145 277.52 65.3291C277.546 64.9952 278.212 64.6507 278.646 64.3916C278.864 64.2535 278.961 64.459 278.894 64.7638C278.839 65.0265 278.741 65.3978 279.255 65.3343C279.656 65.2879 280.098 65.6063 280.457 65.2035L280.441 65.1851ZM181.646 152.685C181.749 152.693 181.901 152.731 181.94 152.682C182.129 152.464 182.408 152.21 182.409 151.978C182.408 151.762 182.089 151.531 181.888 151.335C181.832 151.279 181.644 151.264 181.597 151.312C181.465 151.448 181.524 152.581 181.646 152.685ZM213.171 123.025C213.308 123.035 213.442 123.089 213.506 123.051C213.734 122.888 214.076 122.716 214.119 122.495C214.162 122.266 213.927 121.964 213.754 121.735C213.707 121.68 213.321 121.753 213.308 121.813C213.225 122.211 213.211 122.623 213.17 123.033L213.171 123.025ZM97.1345 228.22C97.4877 228.342 97.985 227.941 97.9561 227.534C97.9522 227.474 97.8816 227.382 97.8314 227.361C97.4789 227.23 96.9809 227.64 97.0105 228.038C97.0144 228.099 97.0963 228.157 97.1345 228.22ZM279.71 69.1671C279.568 69.4403 279.477 69.6055 279.402 69.7891C279.392 69.8142 279.487 69.9249 279.555 69.9387C279.954 70.0299 280.471 69.5878 280.334 69.2499C280.289 69.1517 279.906 69.191 279.709 69.1757L279.71 69.1671ZM177.343 156.735C177.117 156.64 176.849 156.533 176.581 156.426C176.672 156.7 176.718 157.005 176.873 157.232C176.958 157.359 177.234 157.355 177.421 157.404C177.392 157.212 177.373 157.013 177.335 156.726L177.343 156.735ZM174.536 157.189C174.592 157.142 174.673 157.096 174.687 157.028C174.778 156.631 174.349 156.15 173.98 156.233C173.918 156.246 173.843 156.326 173.83 156.385C173.739 156.783 174.168 157.255 174.536 157.189ZM183.555 155.459C183.564 155.34 183.572 155.237 183.58 155.134C183.422 155.174 183.256 155.187 183.121 155.262C183.076 155.285 183.107 155.45 183.099 155.553C183.256 155.522 183.414 155.492 183.563 155.46L183.555 155.459ZM260.456 88.7644C260.314 88.7103 260.163 88.6555 260.011 88.6007C260.003 88.7034 259.948 88.8628 259.989 88.8918C260.111 88.9873 260.281 89.0263 260.423 89.089C260.431 88.9863 260.439 88.8835 260.448 88.7637L260.456 88.7644ZM178.251 158.717C178.394 158.771 178.545 158.826 178.696 158.881C178.704 158.778 178.76 158.619 178.719 158.589C178.597 158.494 178.427 158.455 178.285 158.392C178.277 158.495 178.269 158.598 178.26 158.718L178.251 158.717ZM276.317 73.9504C276.308 74.0703 276.3 74.173 276.292 74.2757C276.45 74.2363 276.615 74.2233 276.751 74.1477C276.796 74.1253 276.765 73.9593 276.773 73.8566C276.616 73.8875 276.458 73.9183 276.308 73.9498L276.317 73.9504ZM258.102 89.5034C258.093 89.6232 258.085 89.7259 258.077 89.8287C258.236 89.7893 258.401 89.7762 258.536 89.7006C258.581 89.6782 258.551 89.5123 258.559 89.4096C258.401 89.4404 258.243 89.4712 258.094 89.5027L258.102 89.5034ZM171.552 163.83C171.672 163.839 171.775 163.847 171.878 163.855C171.839 163.697 171.826 163.532 171.75 163.397C171.727 163.352 171.561 163.383 171.458 163.375C171.489 163.532 171.52 163.689 171.551 163.838L171.552 163.83ZM95.6571 227.787C95.5145 227.733 95.3633 227.678 95.2121 227.623C95.2042 227.726 95.1487 227.885 95.1896 227.914C95.3117 228.01 95.4814 228.049 95.6233 228.111C95.6313 228.009 95.6392 227.906 95.6485 227.786L95.6571 227.787ZM254.934 90.498C254.88 90.6401 254.825 90.7909 254.77 90.9416C254.873 90.9496 255.034 90.9965 255.062 90.9643C255.158 90.8425 255.197 90.6733 255.26 90.5318C255.157 90.5238 255.054 90.5158 254.934 90.5065L254.934 90.498ZM95.7546 226.417C95.7453 226.536 95.7374 226.639 95.7294 226.742C95.8879 226.702 96.0529 226.689 96.1883 226.614C96.2332 226.591 96.2029 226.425 96.2109 226.323C96.0531 226.354 95.8953 226.384 95.746 226.416L95.7546 226.417ZM284.847 64.7084C284.857 64.5886 284.864 64.4858 284.872 64.3831C284.714 64.4225 284.549 64.4355 284.413 64.5112C284.369 64.5335 284.399 64.6995 284.391 64.8022C284.549 64.7714 284.707 64.7406 284.856 64.7091L284.847 64.7084ZM277.23 69.75C277.175 69.8922 277.121 70.0429 277.066 70.1937C277.169 70.2016 277.329 70.2485 277.358 70.2163C277.453 70.0945 277.492 69.9253 277.555 69.7838C277.452 69.7758 277.349 69.7678 277.229 69.7585L277.23 69.75ZM212.567 125.139C212.709 125.194 212.861 125.248 213.012 125.303C213.02 125.2 213.075 125.041 213.034 125.012C212.912 124.916 212.743 124.877 212.601 124.815C212.593 124.918 212.585 125.02 212.575 125.14L212.567 125.139ZM208.138 128.921C208.281 128.975 208.432 129.03 208.583 129.085C208.591 128.982 208.638 128.822 208.605 128.794C208.483 128.698 208.314 128.659 208.172 128.596L208.147 128.922L208.138 128.921ZM171.526 160.607C171.58 160.465 171.635 160.314 171.689 160.163C171.586 160.155 171.427 160.1 171.398 160.141C171.302 160.262 171.263 160.432 171.2 160.573C171.303 160.581 171.406 160.589 171.526 160.598L171.526 160.607ZM211.167 125.487C211.31 125.541 211.461 125.596 211.612 125.651C211.62 125.548 211.675 125.389 211.635 125.36C211.512 125.264 211.343 125.225 211.201 125.163C211.193 125.265 211.185 125.368 211.176 125.488L211.167 125.487ZM255.554 86.7398C255.696 86.7939 255.847 86.8486 255.998 86.9034C256.006 86.8007 256.062 86.6414 256.021 86.6124C255.899 86.5168 255.729 86.4778 255.587 86.4151C255.579 86.5179 255.571 86.6206 255.562 86.7404L255.554 86.7398ZM201.39 132.988C201.533 133.042 201.684 133.097 201.835 133.152C201.843 133.049 201.899 132.89 201.858 132.861C201.736 132.765 201.566 132.726 201.424 132.663C201.416 132.766 201.408 132.869 201.399 132.989L201.39 132.988ZM258.589 83.1171C258.579 83.2369 258.571 83.3396 258.563 83.4423C258.722 83.4029 258.887 83.3899 259.022 83.3143C259.067 83.2919 259.037 83.126 259.045 83.0232C258.887 83.0541 258.729 83.0849 258.58 83.1164L258.589 83.1171ZM209.818 125.064C209.921 125.072 210.081 125.128 210.11 125.087C210.206 124.965 210.245 124.796 210.308 124.654C210.205 124.646 210.045 124.591 210.016 124.632C209.92 124.754 209.881 124.923 209.818 125.064ZM245 92.3461C245.142 92.4002 245.293 92.4549 245.445 92.5097C245.453 92.407 245.5 92.247 245.467 92.2187C245.345 92.1231 245.175 92.0841 245.033 92.0215L245.008 92.3467L245 92.3461ZM238.917 97.9716C238.971 97.8294 239.026 97.6786 239.081 97.5279C238.978 97.5199 238.817 97.473 238.789 97.5053C238.693 97.627 238.654 97.7962 238.591 97.9377C238.694 97.9457 238.797 97.9537 238.918 97.963L238.917 97.9716ZM201.182 129.769C201.325 129.823 201.476 129.877 201.627 129.932C201.635 129.829 201.691 129.67 201.65 129.641C201.527 129.546 201.358 129.507 201.216 129.444C201.208 129.547 201.2 129.649 201.191 129.769L201.182 129.769Z" fill="#E6E9E9"/>
<path d="M305.603 47.7766C305.375 48.1636 305.035 48.4215 304.736 48.7169C304.464 48.9972 304.162 48.9911 303.92 48.7742C303.597 48.4823 303.367 48.1114 303.981 47.6509C304.018 47.6193 303.892 47.6785 303.887 47.747C303.882 47.8154 303.985 47.9354 304.061 47.9585C304.315 48.0212 304.628 48.1057 304.55 47.6605C304.538 47.5993 304.253 47.5945 303.981 47.6509C303.457 47.3864 303.785 46.9468 303.738 46.5471C303.682 46.0433 304.037 46.1483 304.311 46.1781C304.961 46.2629 305.181 45.6513 305.614 45.4008C305.592 44.1246 306.736 43.7396 307.424 43.0006C307.791 42.6071 308.219 42.8728 308.619 42.8349C309.055 42.7911 309 43.0538 309.053 43.368C309.219 44.3453 309.295 44.3684 310.192 44.0504C310.378 43.9873 310.579 43.9598 310.771 43.923C310.773 44.1212 310.741 44.3168 310.786 44.5098C310.948 45.2112 310.238 45.5695 310.163 46.201C310.122 46.6197 309.04 46.7684 308.81 46.3975C308.756 46.3072 308.91 45.9919 309.056 45.8913C309.368 45.6571 309.435 45.3437 309.23 45.0953C309.056 44.8838 308.724 44.7117 308.466 44.7089C308.198 44.7054 307.921 45.0542 307.663 45.0428C307.198 45.024 306.719 45.073 306.609 45.495C306.486 45.9677 306.482 46.5788 306.682 46.9991C306.95 47.5537 307.477 47.9992 307.898 48.471C308.113 48.703 308.257 48.9553 307.988 49.2014C307.932 49.2573 307.538 49.0977 307.488 48.9646C307.146 48.1458 306.224 48.3499 305.602 47.7851C305.571 47.7482 305.63 47.8734 305.699 47.8787C305.767 47.884 305.888 47.7814 305.911 47.7057C305.974 47.4522 306.058 47.1402 305.612 47.2175C305.55 47.23 305.546 47.5138 305.602 47.7851L305.603 47.7766ZM307.62 43.8081C307.611 43.9279 307.603 44.0306 307.595 44.1333C307.753 44.0939 307.919 44.0809 308.054 44.0053C308.099 43.9829 308.068 43.817 308.076 43.7142C307.919 43.7451 307.761 43.7759 307.612 43.8074L307.62 43.8081Z" fill="#E6E9E9"/>
<path d="M325.651 30.85C325.891 30.6448 326.148 30.4494 326.373 30.2257C326.821 29.7953 327.108 30.1018 327.393 30.4253C327.537 30.5828 327.707 30.7251 327.796 30.9129C327.878 31.0828 327.948 31.3983 327.856 31.4773C327.407 31.9247 326.96 32.4584 326.398 32.6819C325.988 32.8481 325.384 32.6291 324.914 32.4549C324.754 32.3994 324.598 31.8449 324.706 31.681C324.931 31.3368 325.32 31.1086 325.644 30.8322L325.651 30.85Z" fill="#E6E9E9"/>
<path d="M324.691 34.2115C325.121 33.685 325.725 33.6802 326.364 33.5747C326.819 33.498 327.199 32.9333 327.598 32.5767C327.886 32.3148 328.177 32.346 328.416 32.6142C328.542 32.7618 328.672 32.9785 328.659 33.1497C328.646 33.3209 328.488 33.5756 328.337 33.6328C327.874 33.8037 327.338 33.8224 326.914 34.0565C326.454 34.305 326.092 34.742 325.669 35.0795C325.347 35.3387 325.015 35.6058 324.646 35.8011C324.547 35.8537 324.215 35.6816 324.148 35.5386C324.043 35.3324 323.429 35.2332 323.952 34.8431C324.208 34.6477 324.442 34.4247 324.701 34.2036L324.691 34.2115Z" fill="#E6E9E9"/>
<path d="M333.069 29.6164C332.744 30.1252 332.191 29.9101 331.684 29.9913C331.465 30.0261 331.277 30.2353 331.241 29.914C331.186 29.2897 331.991 28.9215 331.812 28.2273C331.985 28.2235 332.179 28.1697 332.322 28.2238C332.589 28.3392 332.823 28.5554 333.09 28.6708C333.776 28.9565 333.801 28.967 333.356 29.3631C333.273 29.4341 333.189 29.5052 333.069 29.6078L333.069 29.6164Z" fill="#E6E9E9"/>
<path d="M323.558 33.4521C323.455 33.4442 323.341 33.4612 323.249 33.4282C322.855 33.2771 322.599 32.7923 322.78 32.4618C322.871 32.2881 323.066 32.1137 323.242 32.0671C323.62 31.9759 323.723 32.2163 323.662 32.556C323.629 32.7601 323.63 32.9669 323.614 33.1723C323.607 33.2665 323.583 33.3508 323.559 33.4436L323.558 33.4521Z" fill="#E6E9E9"/>
<path d="M296.398 57.9307C296.264 57.7739 296.103 57.6237 295.996 57.4431C295.95 57.3707 295.974 57.1659 296.019 57.1436C296.171 57.0778 296.419 56.9937 296.492 57.0596C296.798 57.3417 297.065 57.681 297.316 58.0104C297.363 58.0744 297.338 58.2877 297.293 58.3015C297.142 58.3672 296.937 58.4461 296.821 58.3769C296.647 58.2859 296.534 58.0704 296.4 57.9136L296.398 57.9307Z" fill="#E6E9E9"/>
<path d="M297.74 55.5289C297.337 55.8335 297.063 55.8036 296.745 55.3398C296.644 55.1942 296.679 54.9644 296.65 54.7728C296.745 54.7801 296.849 54.7709 296.944 54.7783C297.15 54.7942 297.365 54.7937 297.562 54.8261C297.715 54.8552 297.863 54.9528 298.004 55.0155C297.914 55.1807 297.823 55.3544 297.732 55.5197L297.74 55.5289Z" fill="#E6E9E9"/>
<path d="M300.275 49.5853C300.288 49.4141 300.271 49.3009 300.304 49.2087C300.447 48.8065 300.963 48.502 301.248 48.7221C301.461 48.8764 301.529 49.2175 301.656 49.4771C301.497 49.5165 301.345 49.5907 301.189 49.5959C300.886 49.6069 300.576 49.5915 300.275 49.5853Z" fill="#E6E9E9"/>
<path d="M287.802 57.859C287.774 57.6674 287.754 57.4764 287.726 57.2847C287.829 57.2927 287.923 57.3 288.026 57.308C288.335 57.332 288.655 57.3309 288.952 57.397C289.011 57.4102 289.089 57.7434 289.029 57.8507C288.701 58.4023 288.218 58.3993 287.802 57.8676L287.802 57.859Z" fill="#E6E9E9"/>
<path d="M280.241 64.963C279.67 64.3074 279.646 64.1764 280.145 63.7586C280.274 63.6481 280.499 63.6482 280.683 63.6108C280.709 63.6128 280.786 63.7308 280.78 63.7992C280.749 64.2016 280.719 64.5953 280.67 64.9963C280.664 65.0733 280.526 65.1832 280.449 65.1772C280.38 65.1719 280.313 65.0375 280.25 64.9637L280.241 64.963Z" fill="#E6E9E9"/>
<path d="M269.571 72.4031C269.436 72.2462 269.257 72.1118 269.184 71.9339C269.126 71.7917 269.201 71.5994 269.241 71.4302C269.242 71.4131 269.476 71.4054 269.524 71.4522C269.841 71.8212 270.139 72.206 270.427 72.6072C270.474 72.6711 270.437 72.8146 270.396 72.8976C270.245 73.1786 270.108 73.1594 269.958 72.8636C269.869 72.6845 269.698 72.5507 269.563 72.3938L269.571 72.4031Z" fill="#E6E9E9"/>
<path d="M330.984 30.5485C331.199 30.5652 331.295 29.8751 331.617 30.4081C331.685 30.5254 331.601 30.8289 331.488 30.9493C331.208 31.2289 330.87 31.4697 330.541 31.694C330.477 31.7407 330.257 31.6891 330.249 31.6714C330.237 31.4982 330.185 31.2789 330.271 31.165C330.462 30.9301 330.726 30.7525 330.976 30.5393L330.984 30.5485Z" fill="#E6E9E9"/>
<path d="M314.575 40.4115C314.516 40.1744 314.326 39.841 314.419 39.6416C314.521 39.4342 314.899 39.3516 315.151 39.2161C315.2 39.3663 315.283 39.5191 315.289 39.6659C315.307 39.874 315.257 40.0768 315.241 40.2823L315.217 40.5904C315.031 40.5415 314.837 40.4834 314.566 40.4108L314.575 40.4115Z" fill="#E6E9E9"/>
<path d="M312.397 41.4397C312.521 41.2857 312.623 41.0869 312.785 40.9962C312.948 40.9054 313.17 40.9313 313.362 40.9117C313.304 41.0967 313.296 41.3199 313.189 41.4666C313.074 41.6127 312.87 41.6916 312.691 41.7725C312.601 41.8086 312.485 41.7565 312.382 41.7485C312.39 41.6458 312.398 41.5431 312.406 41.4404L312.397 41.4397Z" fill="#E6E9E9"/>
<path d="M301.356 51.6412C301.064 51.7391 300.886 51.8029 300.693 51.8482C300.666 51.8547 300.571 51.744 300.568 51.6749C300.539 51.2679 301.057 50.8258 301.37 51.0137C301.461 51.0724 301.363 51.4437 301.348 51.6406L301.356 51.6412Z" fill="#E6E9E9"/>
<path d="M289.893 59.2954C289.809 58.8238 290.096 58.5705 290.48 58.4108C290.56 58.374 290.765 58.4071 290.763 58.4328C290.785 58.5981 290.837 58.8174 290.751 58.9227C290.569 59.1497 290.305 59.3273 290.074 59.5247C290.011 59.4509 289.904 59.3823 289.892 59.3039L289.893 59.2954Z" fill="#E6E9E9"/>
<path d="M315.546 42.0282C315.708 42.058 315.993 42.0628 316.004 42.1326C316.082 42.5778 315.769 42.4933 315.515 42.4306C315.439 42.4075 315.336 42.2875 315.342 42.219C315.347 42.1506 315.472 42.0914 315.546 42.0282Z" fill="#E6E9E9"/>
<path d="M312.101 45.266L312.126 44.9407C312.276 45.0041 312.437 45.0424 312.559 45.1379C312.6 45.1669 312.545 45.3263 312.537 45.429C312.386 45.3742 312.235 45.3194 312.092 45.2653L312.101 45.266Z" fill="#E6E9E9"/>
<path d="M299.3 55.8995C299.462 55.9293 299.746 55.9341 299.758 56.0039C299.836 56.4491 299.523 56.3646 299.269 56.3018C299.193 56.2787 299.09 56.1588 299.095 56.0903C299.101 56.0218 299.226 55.9627 299.3 55.8995Z" fill="#E6E9E9"/>
<path d="M323.002 35.1657C323.01 35.063 322.998 34.8898 323.024 34.8832C323.182 34.8524 323.348 34.8308 323.509 34.8606C323.587 34.8665 323.688 35.0036 323.683 35.0721C323.678 35.1405 323.557 35.2517 323.479 35.2543C323.323 35.2595 323.163 35.204 323.001 35.1743L323.002 35.1657Z" fill="#E6E9E9"/>
<path d="M314.635 42.3107C314.643 42.208 314.63 42.0348 314.657 42.0282C314.815 41.9974 314.98 41.9758 315.142 42.0055C315.219 42.0115 315.321 42.1485 315.316 42.217C315.31 42.2855 315.19 42.3967 315.112 42.3993C314.956 42.4044 314.796 42.349 314.634 42.3192L314.635 42.3107Z" fill="#E6E9E9"/>
<path d="M302.15 53.3474L301.823 53.3222C301.887 53.1721 301.925 53.0114 302.021 52.8897C302.05 52.8489 302.21 52.9043 302.313 52.9123C302.258 53.0631 302.203 53.2138 302.149 53.356L302.15 53.3474Z" fill="#E6E9E9"/>
<path d="M298.381 56.1899C298.389 56.0872 298.377 55.914 298.403 55.9074C298.561 55.8766 298.726 55.855 298.888 55.8847C298.965 55.8907 299.067 56.0278 299.062 56.0962C299.056 56.1647 298.936 56.2759 298.858 56.2785C298.702 56.2836 298.542 56.2282 298.38 56.1984L298.381 56.1899Z" fill="#E6E9E9"/>
<path d="M321.587 35.5901C321.651 35.44 321.689 35.2793 321.785 35.1576C321.814 35.1168 321.973 35.1722 322.076 35.1802C322.013 35.3303 321.975 35.4909 321.879 35.6127C321.85 35.6535 321.69 35.598 321.587 35.5901Z" fill="#E6E9E9"/>
<path d="M318.754 36.6105C318.604 36.642 318.447 36.6729 318.289 36.7037C318.297 36.601 318.275 36.4357 318.311 36.4127C318.447 36.337 318.62 36.3247 318.77 36.2846C318.762 36.3873 318.754 36.49 318.745 36.6099L318.754 36.6105Z" fill="#E6E9E9"/>
<path d="M294.96 54.6246C295.08 54.6339 295.183 54.6419 295.286 54.6499C295.223 54.8 295.184 54.9606 295.089 55.0824C295.06 55.1232 294.9 55.0677 294.797 55.0598C294.852 54.909 294.907 54.7582 294.961 54.6161L294.96 54.6246Z" fill="#E6E9E9"/>
<path d="M301.769 48.1339C301.778 48.014 301.786 47.9113 301.794 47.8086C301.944 47.8719 302.105 47.9102 302.227 48.0058C302.268 48.0348 302.213 48.1941 302.205 48.2968C302.054 48.2421 301.903 48.1873 301.76 48.1332L301.769 48.1339Z" fill="#E6E9E9"/>
<path d="M292.478 54.9144C292.64 54.9442 292.924 54.949 292.936 55.0188C293.014 55.464 292.701 55.3795 292.447 55.3167C292.371 55.2936 292.268 55.1737 292.273 55.1052C292.278 55.0367 292.404 54.9776 292.478 54.9144Z" fill="#E6E9E9"/>
<path d="M290.511 56.8977C290.52 56.7779 290.528 56.6752 290.536 56.5724C290.686 56.6358 290.848 56.6741 290.97 56.7697C291.011 56.7987 290.955 56.958 290.947 57.0607C290.796 57.0059 290.645 56.9512 290.502 56.8971L290.511 56.8977Z" fill="#E6E9E9"/>
<path d="M291.559 55.1963C291.567 55.0936 291.554 54.9204 291.581 54.9138C291.738 54.883 291.904 54.8614 292.066 54.8911C292.143 54.8971 292.245 55.0342 292.24 55.1026C292.234 55.1711 292.113 55.2823 292.035 55.2849C291.88 55.29 291.72 55.2346 291.558 55.2049L291.559 55.1963Z" fill="#E6E9E9"/>
<path d="M284.137 62.0357C283.987 61.9724 283.826 61.934 283.704 61.8385C283.663 61.8095 283.718 61.6502 283.726 61.5474C283.877 61.6108 284.038 61.6491 284.16 61.7447C284.201 61.7737 284.145 61.933 284.137 62.0357Z" fill="#E6E9E9"/>
<path d="M281.941 60.6255C282.09 60.594 282.248 60.5631 282.406 60.5323C282.398 60.635 282.42 60.8003 282.384 60.8233C282.248 60.899 282.075 60.9114 281.925 60.9514C281.933 60.8487 281.941 60.746 281.95 60.6261L281.941 60.6255Z" fill="#E6E9E9"/>
<g opacity="0.75" filter="url(#filter0_f_665_33595)">
<path d="M32 209.073V210.639C33.4204 211.611 35.8911 213.056 39.4034 214.969C42.907 216.881 46.0922 218.622 48.9416 220.187C50.2587 220.884 51.5156 221.561 52.7208 222.223C54.1412 223.059 55.5186 223.875 56.8357 224.676C65.0569 229.476 72.7271 233.809 79.855 237.67L86.759 241.374H111.586C103.477 236.782 97.4422 233.38 93.4995 231.173C89.5568 228.963 83.6341 225.632 75.7401 221.179C73.1059 219.753 70.618 218.51 68.2592 217.447C65.9005 216.384 63.1371 215.332 59.952 214.289V213.767H129.173V207.505H32V209.07V209.073ZM90.3746 200.697V221.545H112.404V199.628H90.3746V200.699V200.697Z" fill="#B3BDBC"/>
<path d="M252.827 209.073V210.639C254.247 211.611 256.718 213.056 260.23 214.969C263.734 216.881 266.919 218.622 269.769 220.187C271.086 220.884 272.343 221.561 273.548 222.223C274.968 223.059 276.346 223.875 277.654 224.676C285.875 229.476 293.545 233.809 300.673 237.67L307.577 241.374H332.404C324.295 236.782 318.261 233.38 314.318 231.173C310.375 228.963 304.452 225.632 296.558 221.179C293.924 219.753 291.436 218.51 289.078 217.447C286.719 216.384 283.955 215.332 280.77 214.289V213.767H349.992V207.505H252.818V209.07L252.827 209.073ZM311.202 200.697V221.545H333.231V199.628H311.202V200.699V200.697Z" fill="#B3BDBC"/>
<path d="M164.116 219.373C164.064 219.843 164.03 220.321 164.03 220.813C164.03 225.302 166.251 228.78 170.693 231.249C175.135 233.719 182.228 234.954 191.982 234.954C198.447 234.954 203.741 234.388 207.882 233.26L224.651 238.582C223.79 238.817 222.912 239.044 222 239.26C214.269 241.087 204.654 242 193.144 242C181.634 242 171.519 241.068 163.462 239.208C155.404 237.347 149.378 234.798 145.375 231.564C141.372 228.329 139.375 224.676 139.375 220.605C139.375 217.633 140.322 214.903 142.181 212.409L164.125 219.373H164.116Z" fill="#B3BDBC"/>
<path d="M219.512 224.446C219.9 223.285 220.106 222.042 220.106 220.709C220.106 215.977 217.885 212.352 213.443 209.83C209.001 207.308 201.908 206.046 192.146 206.046C185.569 206.046 180.197 206.636 176.031 207.819C174.498 208.256 173.112 208.762 171.881 209.333L154.854 203.929C157.049 203.125 159.468 202.401 162.136 201.765C169.867 199.921 179.483 199 190.992 199C202.502 199 212.617 199.948 220.675 201.844C228.732 203.74 234.758 206.333 238.761 209.62C242.764 212.906 244.761 216.674 244.761 220.917C244.761 224.649 243.177 227.993 240.044 230.965L219.495 224.444L219.512 224.446Z" fill="#B3BDBC"/>
</g>
<path d="M32 169.152V164.232C33.4204 161.176 35.8911 156.634 39.4034 150.624C42.907 144.614 46.0922 139.145 48.9416 134.226C50.2587 132.037 51.5156 129.907 52.7208 127.83C54.1412 125.202 55.5186 122.635 56.8357 120.12C65.0569 105.035 72.7271 91.4185 79.855 79.2871L86.759 67.6451H111.586C103.477 82.0774 97.4422 92.7664 93.4995 99.7035C89.5568 106.649 83.6341 117.115 75.7401 131.109C73.1059 135.591 70.618 139.497 68.2592 142.837C65.9005 146.177 63.1371 149.482 59.952 152.762V154.402H129.173V174.08H32V169.16V169.152ZM90.3746 195.475V129.959H112.404V198.832H90.3746V195.466V195.475Z" fill="#01231F"/>
<path d="M252.827 169.152V164.232C254.247 161.176 256.718 156.634 260.23 150.624C263.734 144.614 266.919 139.145 269.769 134.226C271.086 132.037 272.343 129.907 273.548 127.83C274.968 125.202 276.346 122.635 277.654 120.12C285.875 105.035 293.545 91.4185 300.673 79.2871L307.577 67.6451H332.404C324.295 82.0774 318.261 92.7664 314.318 99.7035C310.375 106.649 304.452 117.115 296.558 131.109C293.924 135.591 291.436 139.497 289.078 142.837C286.719 146.177 283.955 149.482 280.77 152.762V154.402H349.992V174.08H252.818V169.16L252.827 169.152ZM311.202 195.475V129.959H333.231V198.832H311.202V195.466V195.475Z" fill="#01231F"/>
<path d="M164.116 136.784C164.064 135.308 164.03 133.805 164.03 132.26C164.03 118.154 166.251 107.224 170.693 99.4631C175.135 91.7018 182.228 87.8211 191.982 87.8211C198.447 87.8211 203.741 89.5983 207.882 93.1442L224.651 76.4196C223.79 75.6812 222.912 74.9686 222 74.2904C214.269 68.5466 204.654 65.6791 193.144 65.6791C181.634 65.6791 171.519 68.6067 163.462 74.4535C155.404 80.3002 149.378 88.3105 145.375 98.4758C141.372 108.641 139.375 120.12 139.375 132.912C139.375 142.253 140.322 150.83 142.181 158.669L164.125 136.784H164.116Z" fill="#01231F"/>
<path d="M219.512 120.841C219.9 124.49 220.106 128.396 220.106 132.586C220.106 147.456 217.885 158.849 213.443 166.774C209.001 174.698 201.908 178.665 192.146 178.665C185.569 178.665 180.197 176.81 176.031 173.093C174.498 171.719 173.112 170.131 171.881 168.336L154.854 185.318C157.049 187.843 159.468 190.118 162.136 192.118C169.867 197.913 179.483 200.807 190.992 200.807C202.502 200.807 212.617 197.827 220.675 191.869C228.732 185.911 234.758 177.763 238.761 167.435C242.764 157.106 244.761 145.267 244.761 131.934C244.761 120.206 243.177 109.697 240.044 100.356L219.495 120.85L219.512 120.841Z" fill="#01231F"/>
<path d="M257.423 61.6267C257.871 62.0989 258.706 61.6439 259.085 62.305C259.111 62.3479 259.378 62.3307 259.386 62.305C259.421 62.1333 259.489 61.9015 259.412 61.7899C259.145 61.455 258.784 61.1803 259.231 60.7338C259.842 60.1243 260.445 59.5147 261.056 58.9137C261.504 58.4758 262.003 58.6046 262.244 59.2228C262.457 59.7551 262.729 60.0184 263.062 60.0127C263.751 60.0127 263.777 59.9783 263.415 59.3687C263.26 59.1112 263.036 58.9309 263.294 58.639L264.474 57.334C264.858 56.2407 265.567 55.5339 266.6 55.2133C266.833 55.5482 267.134 55.5052 267.401 55.3164C267.65 55.1275 267.831 54.8442 268.089 54.6639C268.356 54.4664 268.666 54.4321 268.967 55.1103C269.062 55.2906 269.105 55.1275 269.088 54.9729C269.088 54.8957 268.959 54.7841 268.89 54.7841C268.821 54.7841 268.701 54.9043 268.692 54.9729C268.675 55.1275 268.709 55.2992 268.752 55.4537C268.752 55.4795 268.933 55.4537 268.959 55.1103C269.105 54.5437 269.363 54.329 269.561 54.0801C269.854 53.7109 270.199 53.522 270.663 53.625C270.913 53.6851 271.335 53.3932 271.386 53.8397C271.43 54.2088 271.318 54.6038 271.266 54.9901C269.966 54.9128 270.517 55.4366 270.93 55.9603C270.965 56.0118 270.827 56.2608 270.706 56.3552C270.517 56.5098 270.009 56.0805 270.035 56.6385C270.078 57.4713 269.742 57.8319 268.916 57.7289C268.64 57.6946 268.589 57.7976 268.632 58.1067C268.675 58.3814 268.546 58.9137 268.253 58.6132C267.625 57.9607 267.194 58.287 266.652 58.6304C266.557 58.6905 266.299 58.5016 266.015 58.3213C265.98 58.287 266.049 58.4072 266.118 58.4072C266.187 58.4072 266.299 58.2955 266.316 58.2183C266.359 57.9607 266.419 57.643 265.98 57.7547C265.92 57.7718 265.937 58.0551 266.015 58.3213C265.954 58.8965 265.782 59.3601 265.619 59.8324C265.455 60.3046 265.386 60.8454 265.094 61.2232C264.758 61.6525 264.569 62.0474 264.457 62.5969C264.345 63.1721 263.845 63.6014 263.105 63.7044C262.425 63.7989 261.762 64.0908 261.108 64.3483C260.97 64.3999 260.927 64.6918 260.841 64.8721C260.996 64.9322 261.16 65.0524 261.306 65.0438C261.736 65.0094 261.865 65.2412 261.693 65.5503C261.547 65.825 261.254 66.0139 261.022 66.2457C260.488 66.778 259.911 67.276 259.429 67.8512C258.947 68.4265 258.37 68.7527 257.63 68.83C257.845 69.7572 257.139 70.2208 256.571 70.6415C255.409 71.5087 254.918 73.2344 253.136 73.2859C253.059 73.8954 252.878 74.402 252.396 74.8742C249.383 77.8104 246.404 80.7896 243.46 83.786C243.021 84.2324 242.574 84.2839 242.04 84.2753C242.255 85.6233 241.024 86.044 240.37 86.8167C239.75 87.555 239.018 88.2075 238.321 88.8858C237.873 89.315 237.546 89.959 236.737 89.7787C236.703 89.7787 236.539 90.062 236.556 90.1993C236.617 90.7145 236.255 90.9549 235.962 91.2554C234.206 93.0068 232.459 94.7754 230.685 96.5011C230.263 96.9132 230.04 97.3253 230.134 97.892C229.73 97.9263 229.325 98.0208 228.929 97.9692C228.335 97.892 228.266 98.1324 228.266 98.6475C228.266 98.8965 227.991 99.1884 227.776 99.403C226.338 100.863 224.857 102.288 223.437 103.764C222.946 104.271 222.137 104.606 222.283 105.576C222.283 105.628 221.534 105.688 221.302 105.911C219.52 107.637 217.772 109.405 216.016 111.148C215.724 111.44 216.231 111.981 215.681 112.161C215.396 112.256 215 112.213 214.811 112.393C214.208 112.951 213.391 113.415 213.606 114.453C212.616 114.153 212.831 114.969 212.59 115.449C212.349 115.904 211.893 116.514 211.471 116.557C209.887 116.737 209.216 118.042 208.243 118.944C206.822 120.266 205.479 121.674 204.102 123.048C203.336 123.812 202.535 124.533 201.821 125.348C201.218 126.035 200.159 126.447 200.34 127.641C199.875 127.787 199.393 127.701 198.963 128.139C196.251 130.92 193.488 133.651 190.724 136.381C190.397 136.707 190.277 137.025 190.225 137.48C190.148 138.141 189.674 138.562 188.985 138.699C188.693 138.759 188.28 138.802 188.159 138.999C187.901 139.412 187.901 140.004 187.608 140.373C187.307 140.76 186.584 140.339 186.205 140.88C185.964 141.232 185.353 141.489 185.344 141.807C185.292 143.181 184.147 143.722 183.424 144.589C183.355 144.674 183.269 144.743 183.2 144.82L180.222 147.791C179.154 148.856 178.01 149.86 177.037 151.011C176.184 152.024 174.575 152.513 174.669 154.222C173.215 154.067 172.801 155.449 171.897 156.093C171.501 156.377 171.527 156.78 171.433 157.201C171.295 157.828 170.856 158.36 170.133 158.343C169.47 158.325 168.927 158.798 168.893 159.15C168.764 160.489 167.696 161.073 166.973 161.931C166.586 162.395 166.121 162.438 165.579 162.507C165.131 162.558 164.95 163.039 165.054 163.503C165.123 163.829 165.054 163.915 164.735 163.846C164.27 163.743 163.702 163.94 163.719 164.335C163.745 165.082 163.392 165.512 162.927 165.967C160.551 168.319 158.132 170.637 155.842 173.067C154.792 174.183 153.139 174.896 153.027 176.741C152.399 177.317 151.814 177.935 151.134 178.441C150.893 178.622 150.316 178.278 150.359 178.991C150.376 179.248 150.161 179.575 149.963 179.781C148.99 180.794 147.983 181.773 146.993 182.76C146.003 183.747 144.927 184.674 144.04 185.748C143.197 186.769 141.57 187.25 141.681 188.967C141.578 188.967 141.466 188.993 141.372 188.967C140.562 188.813 140.149 189.439 139.874 189.946C138.591 192.29 138.117 192.762 135.905 194.024C135.294 194.368 134.863 195.02 134.347 195.527C134.571 196.471 133.77 196.84 133.271 197.338C130.077 200.549 126.866 203.751 123.646 206.945C123.182 207.4 122.725 207.812 122.846 208.577C122.863 208.714 122.415 209.032 122.157 209.075C120.943 209.238 120.272 209.899 120.126 211.109C120.117 211.204 120.091 211.29 120.074 211.384C118.877 211.084 118.765 211.959 118.585 212.758C117.853 212.698 117.543 212.921 117.311 213.736C116.966 214.964 115.933 215.9 114.78 216.346C114.082 216.613 113.686 216.69 113.661 217.514C113.661 217.849 113.256 218.218 112.963 218.501C105.327 226.125 97.6831 233.741 90.0559 241.365C89.2639 242.155 88.5494 242.189 87.5594 241.605C86.7502 241.124 86.6641 241.27 86.6469 240.549C86.6297 239.879 86.6297 239.888 85.7258 240.163C85.6053 240.197 85.2954 240.051 85.2954 239.982C85.2954 239.562 85.3729 239.15 84.7014 239.253C84.3829 239.304 84.0471 239.235 83.7286 239.27C83.4359 239.304 83.4187 239.218 83.4273 238.901C83.4359 238.188 83.6167 237.415 82.9883 236.832C83.2293 236.179 83.3757 235.458 83.7544 234.891C84.1677 234.273 84.7961 233.809 85.3298 233.269C92.9656 225.653 100.61 218.029 108.246 210.405C108.9 209.753 109.735 209.203 109.701 208.079C109.701 207.967 110.209 207.735 110.484 207.727C110.889 207.718 111.018 207.572 110.957 207.211C110.871 206.688 111.422 206.525 111.551 206.164C111.775 205.537 112.937 206.422 112.817 205.271C112.739 204.55 113.523 204.258 113.953 203.82C117.061 200.678 120.203 197.561 123.337 194.436C124.103 193.672 124.878 192.925 125.626 192.144C126.255 191.483 127.142 190.976 127.064 189.869C128.106 190.195 127.77 189.242 128.054 188.838C128.364 188.409 128.794 188.057 129.19 187.688C129.578 187.336 129.982 186.726 130.387 186.726C131.205 186.718 131.015 186.28 131.17 185.808C131.325 185.353 131.833 184.975 132.255 184.649C133.047 184.022 133.46 182.794 134.795 182.992C134.7 181.283 136.318 180.794 137.162 179.781C138.057 178.708 139.125 177.78 140.115 176.793C141.105 175.806 142.086 174.793 143.102 173.831C143.455 173.496 143.429 173.101 143.549 172.715C143.61 172.517 144.204 172.492 144.539 172.371C144.634 172.337 144.72 172.243 144.763 172.148C144.987 171.702 144.772 171.161 145.245 170.723C146.519 169.555 147.699 168.293 148.938 167.1C149.059 166.988 149.352 167.083 149.55 167.023C150.195 166.825 150.29 166.825 150.342 166.276C150.385 165.812 150.488 165.477 150.841 165.177C151.53 164.576 152.029 163.7 153.122 163.752C153.157 161.966 154.921 161.502 155.756 160.317C155.937 160.06 156.325 160.06 156.643 160.747C156.738 160.927 156.781 160.764 156.764 160.609C156.764 160.532 156.634 160.42 156.566 160.42C156.497 160.42 156.376 160.541 156.368 160.609C156.35 160.764 156.385 160.935 156.428 161.09C156.428 161.116 156.609 161.09 156.634 160.747C156.634 160.326 156.789 160.223 156.772 160.18C156.488 159.382 157.246 158.858 157.315 158.111C157.366 157.596 158.038 157.132 158.468 156.677C159.14 155.973 159.828 155.295 160.526 154.625C160.982 154.179 161.455 153.758 161.92 153.32C163.211 153.724 162.488 152.316 163.099 151.998C163.65 151.715 164.003 151.079 164.503 150.676C165.209 150.101 165.605 149.019 166.801 149.208C166.706 148.237 167.438 147.748 168.006 147.173C170.976 144.202 173.946 141.232 176.933 138.278C177.252 137.961 177.536 137.66 177.416 137.188C177.338 136.862 177.416 136.784 177.743 136.853C178.208 136.956 178.767 136.759 178.75 136.355C178.715 135.6 179.086 135.188 179.542 134.724C179.929 134.329 180.308 134.046 180.919 134.071C181.031 134.071 181.169 133.247 181.298 133.247C182.064 133.247 182.503 133.033 182.486 132.165C182.486 131.908 182.701 131.564 182.925 131.401C183.803 130.714 184.233 129.367 185.706 129.487C185.826 129.495 186.041 129.015 186.127 128.731C186.386 127.89 186.36 127.907 187.479 128.13C187.892 128.216 188.331 128.173 188.753 128.156C188.787 128.156 188.882 127.821 188.83 127.684C188.452 126.628 188.83 125.211 189.795 124.559C190.113 124.344 190.285 124.636 190.268 125.005C190.268 125.142 190.397 125.288 190.475 125.434C190.647 125.34 190.871 125.28 190.991 125.142C191.112 125.005 191.172 124.773 191.172 124.576C191.163 123.932 191.422 123.563 192.093 123.614C192.524 123.649 192.584 123.442 192.558 123.099C192.524 122.61 192.765 122.249 193.255 122.258C193.746 122.258 193.815 122.138 193.987 121.648C194.314 120.721 194.503 119.759 195.33 118.961C201.941 112.479 208.484 105.919 215.026 99.3601C215.551 98.8364 216.034 98.3213 216.86 98.3985C216.748 96.9562 218.074 96.5011 218.797 95.6597C219.632 94.681 220.605 93.8224 221.526 92.9038C222.361 92.071 223.213 91.2468 224.039 90.3882C224.427 89.9847 224.797 89.6928 225.408 89.7271C225.494 89.7271 225.58 89.0489 225.735 88.7226C225.813 88.5681 226.054 88.4908 226.243 88.405C226.329 88.362 226.458 88.3964 226.562 88.405C227.061 88.4221 227.362 88.1903 227.405 87.6924C227.526 86.4646 228.215 85.795 229.411 85.6748C229.687 85.649 229.747 85.6147 229.704 85.297C229.626 84.6789 229.867 84.241 230.565 84.2925C231.228 84.3526 231.52 83.8718 231.839 83.4855C232.149 83.1163 231.779 82.129 232.829 82.4552C232.812 81.2446 233.802 80.6952 234.507 79.974C234.688 79.7851 235.076 79.7937 235.36 79.7078C235.911 79.5361 235.919 79.5361 236.109 78.9008C236.169 78.7033 236.074 78.4114 236.186 78.2912C237.004 77.4327 237.83 76.5827 238.708 75.7843C238.898 75.6125 239.32 75.6984 239.578 75.5696C239.828 75.4494 240.215 75.2004 240.206 75.003C240.206 74.4192 240.378 73.9985 240.818 73.6207C241.308 73.2 241.756 72.7278 242.195 72.2556C243.09 71.3026 243.951 70.2895 245.371 71.4657C246.129 70.9678 247.24 71.2253 247.808 70.3239C248.178 70.693 248.479 71.088 249.133 71.0279C249.865 70.9592 249.882 71.0107 249.59 70.2638C249.521 70.0835 249.435 69.886 249.426 69.6971C249.417 69.3795 249.366 69.2593 248.978 69.1476C247.808 68.8128 247.765 68.6068 248.531 67.7997C248.978 67.3361 249.142 66.9927 248.6 66.5033C248.505 66.4174 248.565 66.1513 248.557 65.971C248.746 66.0311 248.944 66.074 249.125 66.1513C249.219 66.1942 249.271 66.3058 249.357 66.3745C249.902 66.8152 250.402 66.8152 250.855 66.3745C251.311 65.9281 251.75 65.4473 252.224 65.0266C252.439 64.8377 252.74 64.6402 253.007 64.6317C253.627 64.6059 254.032 64.3999 253.989 63.7302C253.946 63.0949 254.531 62.6827 254.522 61.9959C254.522 61.6611 255.159 61.2661 255.573 60.9742C255.779 60.8197 255.891 61.0172 255.848 61.3262C255.814 61.5924 255.745 61.9701 256.253 61.8671C256.649 61.7899 257.114 62.0732 257.441 61.6439L257.423 61.6267ZM165.682 156.497C165.785 156.497 165.94 156.523 165.975 156.471C166.147 156.239 166.405 155.964 166.388 155.733C166.371 155.518 166.035 155.312 165.82 155.132C165.76 155.08 165.57 155.08 165.527 155.132C165.407 155.278 165.553 156.402 165.682 156.497ZM194.822 124.49C194.96 124.49 195.097 124.533 195.158 124.49C195.373 124.31 195.7 124.112 195.726 123.889C195.752 123.657 195.493 123.374 195.304 123.159C195.252 123.108 194.874 123.211 194.865 123.271C194.813 123.674 194.831 124.086 194.822 124.499V124.49ZM87.2581 238.334C87.6197 238.428 88.0845 237.991 88.0243 237.587C88.0157 237.527 87.9382 237.441 87.8865 237.424C87.525 237.321 87.0601 237.767 87.1204 238.162C87.129 238.222 87.2151 238.274 87.2581 238.334ZM257.002 65.6533C256.881 65.9367 256.804 66.1084 256.743 66.2973C256.735 66.323 256.838 66.426 256.907 66.4346C257.312 66.4947 257.794 66.0139 257.63 65.6877C257.578 65.5932 257.2 65.6619 257.002 65.6619V65.6533ZM161.705 160.867C161.472 160.79 161.197 160.704 160.922 160.618C161.033 160.884 161.102 161.184 161.274 161.399C161.369 161.519 161.645 161.494 161.834 161.528C161.791 161.339 161.757 161.142 161.696 160.858L161.705 160.867ZM158.942 161.536C158.993 161.485 159.071 161.433 159.079 161.365C159.14 160.961 158.675 160.515 158.313 160.626C158.253 160.644 158.184 160.729 158.175 160.79C158.115 161.193 158.58 161.631 158.942 161.536ZM167.8 159.115C167.8 158.995 167.8 158.892 167.8 158.789C167.645 158.841 167.481 158.866 167.352 158.952C167.309 158.978 167.352 159.141 167.352 159.244C167.507 159.201 167.662 159.158 167.808 159.115H167.8ZM239.32 86.6793C239.173 86.6364 239.018 86.5934 238.863 86.5505C238.863 86.6535 238.82 86.8167 238.863 86.8424C238.993 86.9283 239.165 86.954 239.311 87.0055C239.311 86.9025 239.311 86.7995 239.311 86.6793H239.32ZM162.764 162.773C162.91 162.816 163.065 162.859 163.22 162.902C163.22 162.799 163.263 162.635 163.22 162.61C163.091 162.524 162.919 162.498 162.772 162.447C162.772 162.55 162.772 162.653 162.772 162.773H162.764ZM253.989 70.6845C253.989 70.8047 253.989 70.9077 253.989 71.0107C254.144 70.9592 254.307 70.9334 254.436 70.8476C254.479 70.8218 254.436 70.6587 254.436 70.5557C254.281 70.5986 254.126 70.6415 253.98 70.6845H253.989ZM237.03 87.5979C237.03 87.7181 237.03 87.8212 237.03 87.9242C237.185 87.8727 237.348 87.8469 237.477 87.7611C237.52 87.7353 237.477 87.5722 237.477 87.4692C237.322 87.5121 237.167 87.555 237.021 87.5979H237.03ZM156.48 168.388C156.6 168.388 156.703 168.388 156.807 168.388C156.755 168.233 156.729 168.07 156.643 167.941C156.617 167.898 156.454 167.941 156.35 167.941C156.393 168.096 156.436 168.25 156.48 168.396V168.388ZM85.7516 238.016C85.6053 237.973 85.4503 237.93 85.2954 237.888C85.2954 237.991 85.2523 238.154 85.2954 238.179C85.4245 238.265 85.5967 238.291 85.743 238.343C85.743 238.24 85.743 238.137 85.743 238.016H85.7516ZM233.948 88.8343C233.905 88.9802 233.862 89.1347 233.819 89.2893C233.922 89.2893 234.086 89.3236 234.111 89.2893C234.198 89.1605 234.223 88.9888 234.275 88.8428C234.172 88.8428 234.068 88.8428 233.948 88.8428V88.8343ZM85.743 236.643C85.743 236.763 85.743 236.866 85.743 236.969C85.898 236.917 86.0615 236.892 86.1907 236.806C86.2337 236.78 86.1907 236.617 86.1907 236.514C86.0357 236.557 85.8808 236.6 85.7344 236.643H85.743ZM261.779 60.8111C261.779 60.6909 261.779 60.5879 261.779 60.4849C261.624 60.5364 261.461 60.5621 261.332 60.648C261.289 60.6737 261.332 60.8369 261.332 60.9399C261.487 60.897 261.642 60.854 261.788 60.8111H261.779ZM254.574 66.426C254.531 66.572 254.488 66.7265 254.445 66.8811C254.548 66.8811 254.712 66.9154 254.738 66.8811C254.824 66.7523 254.849 66.5806 254.901 66.4346C254.798 66.4346 254.695 66.4346 254.574 66.4346V66.426ZM194.383 126.645C194.529 126.688 194.684 126.731 194.839 126.774C194.839 126.671 194.882 126.508 194.839 126.482C194.71 126.396 194.538 126.37 194.392 126.319C194.392 126.422 194.392 126.525 194.392 126.645H194.383ZM190.259 130.757C190.406 130.8 190.561 130.843 190.716 130.886C190.716 130.783 190.75 130.62 190.716 130.594C190.587 130.508 190.414 130.483 190.268 130.431V130.757H190.259ZM156.204 165.177C156.247 165.031 156.29 164.876 156.333 164.722C156.23 164.722 156.066 164.679 156.04 164.722C155.954 164.85 155.929 165.022 155.877 165.168C155.98 165.168 156.084 165.168 156.204 165.168V165.177ZM193.014 127.1C193.161 127.143 193.316 127.186 193.47 127.229C193.47 127.126 193.514 126.963 193.47 126.937C193.341 126.851 193.169 126.825 193.023 126.774C193.023 126.877 193.023 126.98 193.023 127.1H193.014ZM234.275 85.0395C234.421 85.0824 234.576 85.1253 234.731 85.1682C234.731 85.0652 234.774 84.9021 234.731 84.8763C234.602 84.7905 234.43 84.7647 234.284 84.7132C234.284 84.8162 234.284 84.9193 234.284 85.0395H234.275ZM183.846 135.333C183.992 135.376 184.147 135.419 184.302 135.462C184.302 135.359 184.345 135.196 184.302 135.17C184.173 135.084 184.001 135.059 183.855 135.007C183.855 135.11 183.855 135.213 183.855 135.333H183.846ZM237.021 81.1931C237.021 81.3133 237.021 81.4164 237.021 81.5194C237.176 81.4679 237.34 81.4421 237.469 81.3563C237.512 81.3305 237.469 81.1674 237.469 81.0644C237.314 81.1073 237.159 81.1502 237.013 81.1931H237.021ZM191.637 126.782C191.74 126.782 191.904 126.825 191.93 126.782C192.016 126.653 192.041 126.482 192.093 126.336C191.99 126.336 191.826 126.293 191.8 126.336C191.714 126.465 191.689 126.636 191.637 126.782ZM224.186 91.4443C224.332 91.4872 224.487 91.5301 224.642 91.573C224.642 91.47 224.676 91.3069 224.642 91.2811C224.513 91.1953 224.341 91.1695 224.194 91.118V91.4443H224.186ZM218.556 97.5228C218.599 97.3769 218.642 97.2223 218.685 97.0678C218.582 97.0678 218.418 97.0334 218.392 97.0678C218.306 97.1966 218.28 97.3683 218.229 97.5142C218.332 97.5142 218.435 97.5142 218.556 97.5142V97.5228ZM183.39 132.14C183.536 132.183 183.691 132.226 183.846 132.268C183.846 132.165 183.889 132.002 183.846 131.977C183.717 131.891 183.545 131.865 183.398 131.813C183.398 131.916 183.398 132.019 183.398 132.14H183.39Z" fill="#FF3D00"/>
<path d="M281.167 42.3265C280.969 42.73 280.65 43.0133 280.375 43.331C280.125 43.6315 279.824 43.6486 279.566 43.4512C279.221 43.185 278.963 42.833 279.54 42.3265C279.574 42.2921 279.454 42.3608 279.454 42.4295C279.454 42.4982 279.566 42.6098 279.643 42.627C279.901 42.6699 280.22 42.73 280.108 42.2921C280.091 42.232 279.807 42.2492 279.54 42.3265C278.997 42.1033 279.29 41.6396 279.213 41.2447C279.118 40.7467 279.48 40.824 279.755 40.8326C280.409 40.8669 280.581 40.2402 280.995 39.9569C280.874 38.6862 281.985 38.214 282.613 37.4241C282.949 37.0035 283.396 37.2353 283.792 37.1666C284.223 37.0893 284.188 37.3555 284.266 37.6645C284.507 38.6261 284.584 38.6433 285.454 38.2569C285.635 38.1797 285.833 38.1367 286.022 38.0852C286.039 38.2827 286.022 38.4802 286.082 38.669C286.298 39.3559 285.617 39.768 285.592 40.4033C285.583 40.824 284.516 41.0558 284.257 40.7038C284.197 40.618 284.326 40.2917 284.464 40.1801C284.757 39.9225 284.8 39.6049 284.576 39.3731C284.386 39.1756 284.042 39.0296 283.784 39.0468C283.517 39.064 283.267 39.4332 283.009 39.4417C282.544 39.4589 282.071 39.5448 281.993 39.974C281.907 40.4548 281.95 41.0644 282.183 41.4679C282.493 42.0002 283.052 42.4037 283.508 42.8416C283.741 43.0562 283.904 43.2966 283.655 43.5628C283.603 43.6229 283.198 43.4941 283.138 43.3653C282.734 42.5755 281.83 42.8502 281.167 42.3351C281.132 42.3007 281.201 42.4209 281.27 42.4209C281.339 42.4209 281.451 42.3093 281.468 42.232C281.511 41.9745 281.571 41.6568 281.132 41.7684C281.072 41.7856 281.089 42.0689 281.167 42.3351V42.3265ZM282.871 38.214C282.871 38.3342 282.871 38.4372 282.871 38.5403C283.026 38.4887 283.19 38.463 283.319 38.3771C283.362 38.3514 283.319 38.1883 283.319 38.0852C283.164 38.1282 283.009 38.1711 282.863 38.214H282.871Z" fill="#FF3D00"/>
<path d="M299.846 23.902C300.07 23.6787 300.311 23.4641 300.518 23.2237C300.931 22.7601 301.241 23.0434 301.551 23.3439C301.705 23.4898 301.886 23.6186 301.99 23.7989C302.084 23.9621 302.179 24.2711 302.093 24.357C301.68 24.8378 301.275 25.4044 300.733 25.6706C300.337 25.868 299.717 25.6963 299.235 25.559C299.071 25.516 298.873 24.9751 298.968 24.8034C299.166 24.4428 299.536 24.1853 299.837 23.8848L299.846 23.902Z" fill="#FF3D00"/>
<path d="M299.148 27.3276C299.536 26.7695 300.138 26.718 300.767 26.5635C301.215 26.4519 301.55 25.8595 301.92 25.4731C302.187 25.1898 302.48 25.1984 302.738 25.4473C302.876 25.5847 303.022 25.7908 303.022 25.9625C303.022 26.1342 302.885 26.4003 302.738 26.469C302.291 26.6751 301.757 26.7352 301.352 27.0013C300.913 27.2846 300.586 27.7483 300.19 28.1174C299.889 28.4008 299.579 28.6927 299.226 28.9159C299.131 28.976 298.787 28.83 298.709 28.6927C298.589 28.4952 297.969 28.4437 298.46 28.0144C298.701 27.7998 298.916 27.5594 299.157 27.319L299.148 27.3276Z" fill="#FF3D00"/>
<path d="M307.147 22.099C306.863 22.6313 306.294 22.4596 305.795 22.5798C305.58 22.6313 305.408 22.8545 305.347 22.5368C305.244 21.9187 306.019 21.4894 305.786 20.8112C305.959 20.794 306.148 20.7253 306.294 20.7682C306.57 20.8627 306.819 21.0601 307.095 21.1546C307.801 21.3864 307.827 21.395 307.413 21.8242C307.336 21.9015 307.259 21.9788 307.147 22.0904V22.099Z" fill="#FF3D00"/>
<path d="M297.961 26.6579C297.858 26.6579 297.746 26.6837 297.651 26.6579C297.246 26.5377 296.954 26.0741 297.109 25.7307C297.186 25.5504 297.367 25.3615 297.539 25.3014C297.909 25.1812 298.03 25.413 297.995 25.7564C297.978 25.9625 297.995 26.1685 297.995 26.3746C297.995 26.469 297.978 26.5549 297.961 26.6493V26.6579Z" fill="#FF3D00"/>
<path d="M272.773 53.1614C272.627 53.0154 272.455 52.8781 272.334 52.7064C272.283 52.6377 272.291 52.4316 272.334 52.4059C272.481 52.3286 272.722 52.2256 272.799 52.2857C273.126 52.5432 273.419 52.8609 273.695 53.17C273.746 53.2301 273.738 53.4447 273.695 53.4619C273.548 53.5392 273.35 53.6336 273.23 53.5735C273.049 53.4962 272.92 53.2902 272.773 53.1442V53.1614Z" fill="#FF3D00"/>
<path d="M273.926 50.663C273.547 50.9979 273.272 50.9893 272.919 50.5514C272.807 50.4141 272.824 50.1823 272.781 49.9934C272.876 49.9934 272.979 49.9762 273.074 49.9762C273.281 49.9762 273.496 49.959 273.694 49.9762C273.849 49.9934 274.004 50.0792 274.15 50.1307C274.073 50.3024 273.995 50.4827 273.918 50.6545L273.926 50.663Z" fill="#FF3D00"/>
<path d="M275.992 44.5415C275.992 44.3698 275.966 44.2582 275.992 44.1637C276.104 43.7516 276.595 43.4082 276.896 43.6057C277.12 43.7431 277.214 44.0779 277.361 44.3269C277.206 44.3784 277.059 44.4642 276.904 44.4814C276.603 44.5158 276.293 44.5243 275.992 44.5415Z" fill="#FF3D00"/>
<path d="M264.199 53.7538C264.156 53.5649 264.121 53.376 264.078 53.1872C264.181 53.1872 264.276 53.1872 264.379 53.1872C264.689 53.1872 265.008 53.1614 265.309 53.2043C265.369 53.2129 265.473 53.5392 265.421 53.6508C265.137 54.226 264.655 54.2604 264.199 53.7624V53.7538Z" fill="#FF3D00"/>
<path d="M257.209 61.4207C256.589 60.8111 256.555 60.6823 257.02 60.2273C257.14 60.1071 257.364 60.0899 257.545 60.0384C257.57 60.0384 257.657 60.15 257.657 60.2187C257.657 60.6222 257.657 61.0171 257.639 61.4207C257.639 61.4979 257.51 61.6181 257.433 61.6181C257.364 61.6181 257.286 61.4893 257.218 61.4207H257.209Z" fill="#FF3D00"/>
<path d="M247.143 69.6628C246.997 69.5168 246.807 69.3966 246.721 69.2249C246.652 69.0876 246.713 68.8901 246.739 68.7184C246.739 68.7012 246.971 68.6754 247.023 68.7184C247.367 69.0618 247.694 69.4224 248.013 69.8002C248.064 69.8603 248.038 70.0062 248.004 70.0921C247.875 70.384 247.737 70.3754 247.565 70.0921C247.462 69.9203 247.281 69.8002 247.135 69.6542L247.143 69.6628Z" fill="#FF3D00"/>
<path d="M305.14 23.1894C305.355 23.1894 305.398 22.4939 305.76 23.0005C305.837 23.1121 305.777 23.4212 305.674 23.5499C305.415 23.8504 305.097 24.1166 304.787 24.3656C304.727 24.4171 304.503 24.3827 304.494 24.3656C304.469 24.1939 304.4 23.9792 304.477 23.859C304.649 23.61 304.899 23.4126 305.131 23.1808L305.14 23.1894Z" fill="#FF3D00"/>
<path d="M289.542 34.2905C289.465 34.0586 289.25 33.741 289.327 33.5349C289.413 33.3203 289.783 33.2087 290.024 33.0541C290.085 33.2001 290.179 33.346 290.197 33.492C290.231 33.6981 290.197 33.9041 290.197 34.1102V34.4192C290.007 34.3849 289.809 34.342 289.534 34.2905H289.542Z" fill="#FF3D00"/>
<path d="M287.449 35.4838C287.561 35.3207 287.647 35.1146 287.802 35.0116C287.957 34.9086 288.181 34.9172 288.37 34.8828C288.327 35.0717 288.336 35.2949 288.241 35.4495C288.138 35.604 287.94 35.6984 287.768 35.7929C287.682 35.8358 287.561 35.7929 287.458 35.7929C287.458 35.6899 287.458 35.5868 287.458 35.4838H287.449Z" fill="#FF3D00"/>
<path d="M277.232 46.5077C276.948 46.6278 276.776 46.7051 276.586 46.7652C276.56 46.7738 276.457 46.6708 276.449 46.6021C276.388 46.1986 276.87 45.7178 277.197 45.8809C277.292 45.9324 277.223 46.3102 277.223 46.5077H277.232Z" fill="#FF3D00"/>
<path d="M266.393 55.0245C266.272 54.5609 266.539 54.2861 266.909 54.0973C266.987 54.0543 267.193 54.0715 267.193 54.0973C267.228 54.2604 267.296 54.475 267.219 54.5866C267.055 54.827 266.806 55.0245 266.591 55.2391C266.522 55.1704 266.41 55.1103 266.393 55.0331V55.0245Z" fill="#FF3D00"/>
<path d="M290.637 35.8273C290.8 35.8444 291.084 35.8273 291.102 35.896C291.213 36.3338 290.895 36.2737 290.637 36.2308C290.559 36.2136 290.447 36.102 290.447 36.0333C290.447 35.9646 290.568 35.896 290.637 35.8273Z" fill="#FF3D00"/>
<path d="M287.45 39.3216V38.9953C287.605 39.0468 287.769 39.0726 287.898 39.1584C287.941 39.1842 287.898 39.3473 287.898 39.4503C287.743 39.4074 287.588 39.3645 287.441 39.3216H287.45Z" fill="#FF3D00"/>
<path d="M275.51 50.912C275.673 50.9292 275.957 50.912 275.975 50.9807C276.086 51.4185 275.768 51.3584 275.51 51.3155C275.432 51.2983 275.32 51.1867 275.32 51.118C275.32 51.0494 275.441 50.9807 275.51 50.912Z" fill="#FF3D00"/>
<path d="M297.539 28.4093C297.539 28.3063 297.513 28.1346 297.539 28.126C297.694 28.0831 297.857 28.0487 298.021 28.0659C298.098 28.0659 298.21 28.1947 298.21 28.2634C298.21 28.3321 298.098 28.4523 298.021 28.4609C297.866 28.478 297.702 28.4351 297.539 28.4179V28.4093Z" fill="#FF3D00"/>
<path d="M289.75 36.1792C289.75 36.0762 289.724 35.9045 289.75 35.8959C289.905 35.853 290.068 35.8186 290.232 35.8358C290.309 35.8358 290.421 35.9646 290.421 36.0333C290.421 36.102 290.309 36.2222 290.232 36.2307C290.077 36.2479 289.913 36.205 289.75 36.1878V36.1792Z" fill="#FF3D00"/>
<path d="M278.153 48.1475H277.826C277.878 47.9929 277.904 47.8298 277.99 47.701C278.016 47.6581 278.179 47.701 278.282 47.701C278.239 47.8556 278.196 48.0101 278.153 48.1561V48.1475Z" fill="#FF3D00"/>
<path d="M274.615 51.2726C274.615 51.1696 274.589 50.9979 274.615 50.9893C274.77 50.9464 274.934 50.912 275.097 50.9292C275.175 50.9292 275.286 51.058 275.286 51.1267C275.286 51.1953 275.175 51.3155 275.097 51.3241C274.942 51.3413 274.779 51.2984 274.615 51.2812V51.2726Z" fill="#FF3D00"/>
<path d="M296.162 28.9417C296.214 28.7871 296.24 28.624 296.326 28.4952C296.351 28.4523 296.515 28.4952 296.618 28.4952C296.567 28.6498 296.541 28.8129 296.455 28.9417C296.429 28.9846 296.265 28.9417 296.162 28.9417Z" fill="#FF3D00"/>
<path d="M293.415 30.1779C293.269 30.2209 293.114 30.2638 292.959 30.3067C292.959 30.2037 292.924 30.0406 292.959 30.0148C293.088 29.929 293.26 29.9032 293.406 29.8517C293.406 29.9547 293.406 30.0577 293.406 30.1779H293.415Z" fill="#FF3D00"/>
<path d="M271.084 49.9762C271.205 49.9762 271.308 49.9762 271.411 49.9762C271.36 50.1307 271.334 50.2938 271.248 50.4226C271.222 50.4655 271.058 50.4226 270.955 50.4226C270.998 50.2681 271.041 50.1135 271.084 49.9676V49.9762Z" fill="#FF3D00"/>
<path d="M277.37 42.979C277.37 42.8588 277.37 42.7557 277.37 42.6527C277.525 42.7042 277.688 42.73 277.818 42.8158C277.861 42.8416 277.818 43.0047 277.818 43.1077C277.663 43.0648 277.508 43.0219 277.361 42.979H277.37Z" fill="#FF3D00"/>
<path d="M268.631 50.457C268.794 50.4741 269.078 50.457 269.096 50.5257C269.208 50.9635 268.889 50.9034 268.631 50.8605C268.553 50.8433 268.441 50.7317 268.441 50.663C268.441 50.5943 268.562 50.5257 268.631 50.457Z" fill="#FF3D00"/>
<path d="M266.825 52.5861C266.825 52.4659 266.825 52.3629 266.825 52.2599C266.98 52.3114 267.144 52.3372 267.273 52.423C267.316 52.4488 267.273 52.6119 267.273 52.7149C267.118 52.672 266.963 52.6291 266.816 52.5861H266.825Z" fill="#FF3D00"/>
<path d="M267.736 50.809C267.736 50.706 267.71 50.5343 267.736 50.5257C267.891 50.4827 268.055 50.4484 268.218 50.4656C268.296 50.4656 268.408 50.5944 268.408 50.663C268.408 50.7317 268.296 50.8519 268.218 50.8605C268.063 50.8777 267.9 50.8348 267.736 50.8176V50.809Z" fill="#FF3D00"/>
<path d="M260.867 58.2011C260.712 58.1496 260.549 58.1239 260.42 58.038C260.376 58.0122 260.42 57.8491 260.42 57.7461C260.574 57.7976 260.738 57.8234 260.867 57.9092C260.91 57.935 260.867 58.0981 260.867 58.2011Z" fill="#FF3D00"/>
<path d="M258.568 56.9648C258.715 56.9219 258.87 56.8789 259.025 56.836C259.025 56.939 259.059 57.1021 259.025 57.1279C258.895 57.2138 258.723 57.2395 258.577 57.291C258.577 57.188 258.577 57.085 258.577 56.9648H258.568Z" fill="#FF3D00"/>
<defs>
<filter id="filter0_f_665_33595" x="12" y="179" width="357.992" height="83" filterUnits="userSpaceOnUse" color-interpolation-filters="sRGB">
<feFlood flood-opacity="0" result="BackgroundImageFix"/>
<feBlend mode="normal" in="SourceGraphic" in2="BackgroundImageFix" result="shape"/>
<feGaussianBlur stdDeviation="10" result="effect1_foregroundBlur_665_33595"/>
</filter>
</defs>
</svg>
