<svg width="466" height="380" viewBox="0 0 466 380" fill="none" xmlns="http://www.w3.org/2000/svg">
<g clip-path="url(#clip0_745_11731)">
<rect width="380" height="380" rx="190" fill="#DEF1FC"/>
<path d="M125.069 131C127.657 138.495 159.982 228.807 203.64 263.83C217.939 275.301 226.622 273.725 231.227 267.985C235.023 263.253 233.952 258.123 227.681 253.092C218.933 246.075 216.405 254.055 200.827 241.558C158.767 207.817 127.858 137.508 125.069 131Z" stroke="#ED5A61" stroke-width="2" stroke-linecap="round" stroke-linejoin="round" stroke-dasharray="6 6"/>
<path d="M90.0875 186C92.1451 191.958 117.845 263.764 152.557 291.609C163.926 300.73 170.829 299.476 174.49 294.912C177.508 291.15 176.657 287.072 171.671 283.072C164.716 277.493 162.706 283.837 150.321 273.901C116.88 247.075 92.3045 191.174 90.0875 186Z" stroke="#ED5A61" stroke-width="2" stroke-linecap="round" stroke-linejoin="round" stroke-dasharray="6 6"/>
<path d="M59.3644 239C60.7594 243.04 78.1834 291.721 101.716 310.6C109.424 316.783 114.105 315.933 116.587 312.839C118.633 310.289 118.056 307.524 114.675 304.812C109.96 301.029 108.597 305.331 100.2 298.594C77.5287 280.407 60.8675 242.508 59.3644 239Z" stroke="#ED5A61" stroke-width="2" stroke-linecap="round" stroke-linejoin="round" stroke-dasharray="6 6"/>
<g opacity="0.43" filter="url(#filter0_f_745_11731)">
<path d="M241.597 156.453C222.406 167.808 221.421 170.929 222.22 171.437C223.019 171.946 224.859 172.424 226.606 171.825C228.359 171.226 242.569 158.121 257.562 154.93C263.882 153.585 273.458 151.987 283.553 150.443C288.405 149.7 418.571 131.797 458.676 126.268C461.378 125.894 463.299 125.053 463.82 124.007C464.341 122.964 463.406 121.845 461.307 121.009C460.583 120.72 459.858 120.435 459.145 120.162C456.301 119.07 452.01 118.698 448.478 119.237C418.553 123.788 280.457 144.706 277.201 145.312C263.857 147.803 250.493 151.184 241.591 156.453L241.597 156.453Z" fill="url(#paint0_linear_745_11731)"/>
<path d="M248.569 169.27C227.797 180.791 226.407 183.891 227.144 184.383C227.88 184.875 229.664 185.315 231.505 184.696C233.346 184.078 249.331 170.902 264.821 167.516C271.951 165.956 283.035 164.04 294.418 162.213C299.922 161.331 425.71 133.504 460.499 126.085C462.753 125.604 464.327 124.805 464.829 123.888C465.33 122.972 464.721 122.019 463.134 121.274C462.416 120.936 461.686 120.597 460.962 120.267C458.017 118.924 452.697 118.604 448.666 119.522C416.911 126.762 290.475 156.789 285.009 157.866C271.532 160.516 258.01 164.03 248.569 169.27Z" fill="url(#paint1_linear_745_11731)"/>
</g>
</g>
<rect x="0.5" y="0.5" width="379" height="379" rx="189.5" stroke="#A5D0EA"/>
<path d="M241.088 127.507C222.252 161.21 221.38 170.025 222.201 171.363C223.022 172.701 224.886 173.841 226.617 171.987C228.354 170.134 242.125 132.061 257.054 121.589C263.348 117.175 272.9 111.716 282.973 106.353C287.816 103.773 417.793 40.2155 457.839 20.5966C460.537 19.2717 462.433 16.7238 462.917 13.7491C463.401 10.7808 462.421 7.75516 460.283 5.64039C459.544 4.90787 458.806 4.18808 458.081 3.50014C455.185 0.7484 450.864 0.156011 447.339 2.02873C417.475 17.8576 279.651 90.6578 276.406 92.6898C263.106 101.034 249.819 111.869 241.082 127.507H241.088Z" fill="#238482"/>
<path d="M248.211 141.851C227.389 174.363 225.996 183.108 226.734 184.497C227.472 185.886 229.26 187.128 231.105 185.382C232.951 183.637 248.975 146.457 264.502 136.902C271.648 132.501 282.759 127.093 294.169 121.939C299.686 119.449 425.775 40.9286 460.647 19.9912C462.906 18.6344 464.485 16.3795 464.987 13.7934C465.49 11.2072 464.879 8.5192 463.288 6.41717C462.569 5.4617 461.837 4.50624 461.112 3.57625C458.159 -0.213769 452.826 -1.11828 448.786 1.47422C416.955 21.9021 290.217 106.633 284.738 109.671C271.228 117.149 257.674 127.067 248.211 141.851Z" fill="#50B1AF"/>
<defs>
<filter id="filter0_f_745_11731" x="207.035" y="103.992" width="272.965" height="96.0076" filterUnits="userSpaceOnUse" color-interpolation-filters="sRGB">
<feFlood flood-opacity="0" result="BackgroundImageFix"/>
<feBlend mode="normal" in="SourceGraphic" in2="BackgroundImageFix" result="shape"/>
<feGaussianBlur stdDeviation="7.5" result="effect1_foregroundBlur_745_11731"/>
</filter>
<linearGradient id="paint0_linear_745_11731" x1="239.409" y1="168.93" x2="370.495" y2="125.462" gradientUnits="userSpaceOnUse">
<stop stop-color="#0B1A47"/>
<stop offset="1" stop-color="#0B1A47" stop-opacity="0"/>
</linearGradient>
<linearGradient id="paint1_linear_745_11731" x1="244.14" y1="181.015" x2="374.75" y2="135.876" gradientUnits="userSpaceOnUse">
<stop stop-color="#0B1A47"/>
<stop offset="1" stop-color="#0B1A47" stop-opacity="0"/>
</linearGradient>
<clipPath id="clip0_745_11731">
<rect width="380" height="380" rx="190" fill="white"/>
</clipPath>
</defs>
</svg>
