<svg width="402" height="353" viewBox="0 0 402 353" fill="none" xmlns="http://www.w3.org/2000/svg">
<path d="M11.832 64.8499H400" stroke="#F15A89" stroke-width="2" stroke-miterlimit="10"/>
<path d="M392.135 351.633H19.5907C15.3299 351.633 11.7246 348.137 11.7246 343.767V33.495C11.7246 29.2342 15.2206 25.6289 19.5907 25.6289H392.135C396.396 25.6289 400.002 29.1249 400.002 33.495V343.767C400.002 348.028 396.506 351.633 392.135 351.633Z" stroke="#F15A89" stroke-width="2" stroke-miterlimit="10"/>
<path d="M44.6071 51.0842C47.6239 51.0842 50.0696 48.6386 50.0696 45.6217C50.0696 42.6048 47.6239 40.1592 44.6071 40.1592C41.5902 40.1592 39.1445 42.6048 39.1445 45.6217C39.1445 48.6386 41.5902 51.0842 44.6071 51.0842Z" stroke="#F15A89" stroke-width="2" stroke-miterlimit="10"/>
<path d="M65.9118 51.0842C68.9286 51.0842 71.3743 48.6386 71.3743 45.6217C71.3743 42.6048 68.9286 40.1592 65.9118 40.1592C62.8949 40.1592 60.4492 42.6048 60.4492 45.6217C60.4492 48.6386 62.8949 51.0842 65.9118 51.0842Z" stroke="#F15A89" stroke-width="2" stroke-miterlimit="10"/>
<path d="M87.1071 51.0842C90.1239 51.0842 92.5696 48.6386 92.5696 45.6217C92.5696 42.6048 90.1239 40.1592 87.1071 40.1592C84.0902 40.1592 81.6445 42.6048 81.6445 45.6217C81.6445 48.6386 84.0902 51.0842 87.1071 51.0842Z" stroke="#F15A89" stroke-width="2" stroke-miterlimit="10"/>
<g clip-path="url(#clip0)">
<path d="M301.646 210.242L301.702 209.745L301.646 210.242C313.386 211.559 318.615 215.158 320.111 219.801C320.867 222.146 320.704 224.837 319.849 227.783C318.994 230.728 317.457 233.891 315.512 237.153C312.15 242.792 307.611 248.659 303.373 254.137C302.704 255.002 302.042 255.857 301.394 256.7C299.023 259.784 296.829 262.706 295.115 265.333C293.408 267.949 292.144 270.318 291.674 272.29C291.223 274.179 291.008 275.59 291.052 276.583C291.074 277.081 291.163 277.517 291.354 277.865C291.556 278.232 291.861 278.479 292.252 278.588C292.622 278.691 293.031 278.66 293.443 278.564C293.86 278.466 294.322 278.29 294.821 278.061C295.817 277.604 297.031 276.899 298.433 276.057C298.794 275.841 299.168 275.615 299.556 275.38C305.227 271.954 313.799 266.774 324.862 264.711C330.7 263.623 335.699 264.792 340.095 267.629C344.507 270.476 348.332 275.016 351.765 280.7C358.377 291.648 363.452 306.689 368.487 321.61C368.684 322.195 368.881 322.779 369.078 323.363C374.288 338.791 375.018 348.289 374.47 353.9C374.196 356.704 373.604 358.535 373.094 359.652C372.839 360.211 372.604 360.592 372.438 360.829C372.393 360.892 372.354 360.946 372.32 360.989C336.684 360.498 301.047 360.006 265.43 359.515C259.478 359.434 251.95 359.717 243.537 360.034C239.71 360.178 235.7 360.329 231.572 360.456C218.353 360.861 203.894 361.02 190.248 359.921C176.596 358.821 163.797 356.464 153.88 351.862C143.975 347.266 136.993 340.456 134.843 330.452C134.488 328.662 134.481 326.71 134.829 324.667C135.888 318.538 140.108 311.673 146.128 305.242C152.139 298.822 159.896 292.883 167.943 288.598C175.997 284.309 184.296 281.7 191.395 281.882C198.464 282.062 204.326 285.001 207.654 291.827C207.865 292.261 208.089 292.617 208.338 292.865C208.591 293.117 208.919 293.3 209.308 293.26C209.676 293.223 209.969 292.995 210.193 292.739C210.423 292.477 210.636 292.125 210.84 291.712C211.647 290.079 212.523 287.048 213.642 283.163L213.699 282.964C215.951 275.147 219.242 263.718 225.007 252.188C230.82 240.561 239.136 228.862 251.406 220.676C263.666 212.498 279.913 207.802 301.646 210.242Z" fill="white" stroke="#333333"/>
<path d="M195.837 359.16C241.921 237.552 113.526 202.469 113.526 202.469C113.526 202.469 89.5099 341.639 195.837 359.16Z" fill="#FFC5CF"/>
<path d="M189.272 348.567C188.965 348.571 188.675 348.382 188.575 348.076C188.317 347.408 162.964 280.769 119.06 216.686C118.825 216.343 118.916 215.881 119.258 215.647C119.601 215.412 120.063 215.502 120.297 215.845C164.3 280.08 189.712 346.891 189.97 347.56C190.109 347.942 189.923 348.367 189.541 348.525C189.426 348.565 189.349 348.566 189.272 348.567Z" fill="#333333"/>
<path d="M149.422 266.268C146.389 266.306 134.146 265.154 115.559 246.608C115.268 246.324 115.262 245.844 115.565 245.552C115.85 245.26 116.329 245.254 116.621 245.558C134.974 263.877 147.081 264.8 149.518 264.769C150.498 261.762 155.528 244.935 151.391 230.451C151.271 230.049 151.515 229.643 151.898 229.523C152.3 229.422 152.706 229.647 152.826 230.03C157.504 246.37 150.833 265.54 150.778 265.733C150.686 266.003 150.458 266.178 150.17 266.22C150.074 266.241 149.825 266.263 149.422 266.268Z" fill="#333333"/>
<path d="M164.088 299.956C156.852 300.047 141.767 298.95 128.577 289.668C128.248 289.423 128.165 288.963 128.391 288.634C128.637 288.304 129.096 288.221 129.426 288.448C145.773 299.936 165.069 298.542 167.868 298.276C169.166 296.148 177.161 281.512 175.841 248.309C175.817 247.906 176.139 247.556 176.561 247.532C176.984 247.565 177.314 247.829 177.338 248.251C178.776 284.775 169.315 298.815 168.919 299.396C168.806 299.57 168.615 299.688 168.405 299.71C168.347 299.73 166.737 299.923 164.088 299.956Z" fill="#333333"/>
<path d="M183.111 331.784C181.537 331.766 145.111 331.205 134.581 325.865C134.214 325.678 134.074 325.238 134.261 324.871C134.449 324.503 134.889 324.363 135.256 324.551C144.858 329.423 178.407 330.23 182.67 330.311C184.36 327.275 195.443 306.321 195.154 283.302C195.149 282.898 195.471 282.549 195.893 282.544C196.296 282.538 196.646 282.86 196.651 283.283C196.967 308.491 183.891 331.218 183.76 331.45C183.608 331.644 183.361 331.781 183.111 331.784Z" fill="#333333"/>
<path d="M81.0141 265.585C80.9613 265.368 80.917 265.182 80.8809 265.027C81.0022 265.017 81.1428 265.006 81.3021 264.994C81.9479 264.946 82.9016 264.889 84.1273 264.852C86.5788 264.779 90.1177 264.788 94.4568 265.12C103.136 265.782 115.01 267.732 127.786 272.88C153.218 283.127 182.278 306.064 196.817 356.9C149.34 360.222 120.369 337.244 103.231 313.362C94.6212 301.363 89.0006 289.138 85.5326 279.909C83.799 275.296 82.6042 271.434 81.8432 268.727C81.4627 267.374 81.1907 266.31 81.0141 265.585Z" fill="white" stroke="#333333"/>
<path d="M87.3558 350.423C68.1562 307.498 14.5675 320.691 31.9652 330.208C49.3821 339.724 71.6002 337.141 77.6507 345.034C83.7015 352.946 87.6488 355.412 87.6488 355.412C87.6488 355.412 100.055 354.238 100.311 351.643C100.566 349.047 98.0932 331.009 100.631 323.662C103.169 316.314 108.351 294.819 89.9547 306.667C71.5585 318.535 87.3558 350.423 87.3558 350.423Z" fill="#FFC5CF"/>
<path d="M302.642 361.112C285.766 350.36 324.92 270.007 363.994 275.123C403.069 280.24 394.838 302.022 369.569 315.454C344.3 328.867 329.901 367.011 322.273 368.067C314.684 369.141 302.642 361.112 302.642 361.112Z" fill="#FFC5CF"/>
<path d="M313.071 347.79C302.905 279.712 241.371 300.762 255.743 315.444C268.773 328.76 289.97 332.008 297.52 370.643C298.833 377.367 313.071 347.79 313.071 347.79Z" fill="#FFC4CF"/>
<path d="M331.734 324.997C326.834 324.617 322.012 325.906 317.283 328.423C312.553 330.941 308.225 334.797 304 339.324C304 339.324 304.555 337.647 305.387 335.121C306.239 332.614 307.271 329.221 308.497 325.903C310.986 319.266 313.475 312.649 313.475 312.649C314.074 312.91 319.276 312.845 324.901 309.817C327.342 308.5 329.662 306.781 331.657 305.085C333.748 303.465 335.514 301.869 336.727 300.682C337.714 299.748 337.852 298.536 337.006 298.413C333.179 297.904 329.37 298.758 325.611 300.649C323.684 301.575 321.934 302.846 320.167 304.289C318.399 305.732 316.654 307.405 314.949 309.212C314.949 309.212 315.62 307.649 316.609 305.313C317.616 302.996 318.863 299.831 320.399 296.816C321.897 293.783 323.317 290.712 324.498 288.45C325.737 286.226 326.544 284.738 326.544 284.738C326.663 285.024 326.915 285.213 327.298 285.17C329.025 285.033 330.691 284.705 332.278 284.205C333.865 283.686 335.411 282.994 336.995 282.206C338.539 281.38 340.043 280.382 341.468 279.174C341.829 278.881 342.19 278.57 342.531 278.239C342.892 277.927 343.272 277.615 343.633 277.303C344.355 276.661 345.076 275.979 345.776 275.222C346.44 274.522 346.256 273.641 345.467 273.555C342.258 273.25 339.154 273.75 336.272 275.091C334.86 275.8 333.508 276.682 332.177 277.735C330.866 278.808 329.499 279.977 328.365 281.431C328.365 281.431 328.459 281.257 328.647 280.929C328.835 280.619 329.04 280.156 329.398 279.633C330.057 278.587 330.942 277.213 331.827 275.819C332.731 274.445 333.539 273.014 334.294 272.025C335.03 271.036 335.521 270.358 335.521 270.358C335.733 270.375 335.981 270.295 336.248 270.138C338.019 269.002 339.558 267.753 341.156 266.581C342.715 265.371 344.042 263.991 345.427 262.726C346.11 262.064 346.735 261.346 347.36 260.647C348.023 259.986 348.648 259.286 349.253 258.549C349.858 257.793 350.522 257.151 351.145 256.375C351.467 255.987 351.809 255.675 352.13 255.287C352.471 254.899 352.812 254.549 353.192 254.218C353.818 253.615 353.788 252.77 352.617 252.823C351.447 252.857 350.395 253.139 349.285 253.422C348.272 253.78 347.201 254.178 346.229 254.67C345.295 255.2 344.38 255.768 343.485 256.375C342.591 256.981 341.871 257.72 341.093 258.46C339.537 259.9 338.349 261.624 337.296 263.423C336.186 265.204 335.482 267.209 334.932 269.29C334.859 269.598 334.862 269.829 334.96 270.019C334.96 270.019 333.015 272.579 331.36 275.307C330.513 276.662 329.646 277.997 329.007 279.023C328.667 279.527 328.423 279.952 328.274 280.261C328.105 280.571 328.011 280.745 328.011 280.745C329.197 277.331 330.021 274.152 330.077 271.002C330.269 267.909 329.923 264.86 328.809 261.782C328.53 260.979 327.516 261.242 326.934 262.247C326.201 263.524 325.187 265.303 324.387 267.387C323.665 269.47 323.08 271.839 322.898 274.165C322.678 276.491 323.088 278.56 323.589 280.243C324.09 281.927 324.74 283.224 325.25 284.12C325.427 284.406 325.678 284.518 325.946 284.496C325.946 284.496 325.12 285.985 323.881 288.208C322.719 290.47 321.279 293.541 319.782 296.594C318.227 299.628 316.999 302.773 315.992 305.109C315.003 307.445 314.332 309.009 314.332 309.009C314.627 306.547 314.789 304.145 314.798 301.802C314.803 300.631 314.769 299.479 314.678 298.367C314.607 297.254 314.555 296.16 314.426 295.105C313.912 290.849 312.597 287.006 310.157 283.868C309.611 283.165 308.625 284.099 308.317 285.62C307.919 287.506 307.452 290.124 307.2 292.95C307.045 294.372 307.025 295.851 307.082 297.348C307.139 298.845 307.273 300.322 307.521 301.74C308.639 308.216 312.129 312.474 312.878 312.464C312.878 312.464 310.314 319.294 307.751 326.143C306.527 329.576 305.438 333.065 304.549 335.65C303.699 338.253 303.125 339.969 303.125 339.969C302.805 335.844 301.189 327.973 298.717 322.243C296.126 316.112 292.512 312.72 290.4 311.191C289.567 310.568 288.7 311.865 288.799 313.592C288.97 316.547 289.272 319.213 289.725 321.626C290.235 324.039 290.838 326.182 291.515 328.094C292.849 331.918 294.44 334.778 295.984 336.909C299.07 341.153 301.947 342.441 302.386 342.225C300.556 347.912 299.199 352.922 297.89 357.259C297.245 359.417 296.656 361.422 296.123 363.291C295.589 365.141 296.337 365.036 296.889 363.166C297.442 361.297 298.03 359.254 298.675 357.057C299.319 354.86 300 352.509 300.736 349.965C301.491 347.44 302.225 344.704 303.225 341.83C303.753 342.553 310.715 342.005 317.313 338.446C320.249 336.873 323.027 334.822 325.44 332.833C327.93 330.901 330.037 328.993 331.498 327.592C332.617 326.464 332.772 325.08 331.734 324.997Z" fill="#FF395D"/>
</g>
<path d="M225.683 235.87L225.701 236.122L225.915 236.258C248.648 250.646 256.742 279.444 259.129 304.813C260.321 317.479 260.086 329.246 259.559 337.856C259.296 342.16 258.96 345.673 258.694 348.114C258.56 349.334 258.444 350.285 258.363 350.934C258.344 351.089 258.326 351.227 258.311 351.348C258.304 351.402 258.298 351.453 258.292 351.5H136.254C139.263 302.71 144.591 274.627 149.163 258.748C151.457 250.781 153.559 245.894 155.077 243.007C155.837 241.565 156.449 240.624 156.867 240.048C157.075 239.761 157.235 239.565 157.34 239.444C157.392 239.383 157.431 239.342 157.455 239.316C157.467 239.303 157.475 239.295 157.48 239.29L157.483 239.287L157.483 239.286L157.484 239.286L157.484 239.286L157.636 239.14V238.927V228.692L224.953 225.317L225.683 235.87Z" fill="white" stroke="#333333"/>
<path d="M157.025 238.817L226.181 235.835" stroke="black" stroke-miterlimit="10"/>
<path d="M171.119 284.2L185.322 289.942L192.86 351.89" stroke="black" stroke-miterlimit="10"/>
<path d="M111.469 118.929C115.183 106.802 128.294 100.138 140.311 104.29C152.001 108.332 158.337 121.005 154.404 132.695L142.824 167.874L101.309 152.36L111.469 118.929Z" fill="#333333"/>
<mask id="path-21-inside-1" fill="white">
<path fill-rule="evenodd" clip-rule="evenodd" d="M94.9365 172.883L67.0031 119.912C67.0031 119.912 68.0956 103.634 41.1107 102.651H40.0182H30.9504C29.3116 102.651 27.7821 103.853 27.5636 105.491C27.3451 107.458 28.6561 109.097 30.4041 109.315L39.4719 110.626L27.1266 113.904L24.8323 114.778L7.89848 103.634C6.58748 102.651 4.73022 103.088 3.85621 104.617C3.20071 105.71 3.52846 107.13 4.51171 108.004C5.60422 108.878 7.24298 110.298 9.10024 111.937L5.38572 109.752C3.96546 108.878 2.1082 109.534 1.4527 110.954C0.906442 112.156 1.34344 113.576 2.3267 114.231C2.77409 114.567 3.30735 114.931 3.88254 115.324C4.43102 115.699 5.01762 116.099 5.60422 116.526L4.51171 115.979C3.09145 115.433 1.4527 115.87 0.57869 117.072C-0.623067 118.82 0.141687 121.114 1.99895 121.879L20.4623 129.636C23.6306 130.947 26.6896 131.821 30.4041 130.947L46.7917 127.123L81.8865 225.409C83.2632 231.422 87.2529 236.755 93.114 239.651C104.695 245.551 118.788 239.76 122.83 227.415L142.714 167.764L101.199 152.251L94.9365 172.883Z"/>
</mask>
<path fill-rule="evenodd" clip-rule="evenodd" d="M94.9365 172.883L67.0031 119.912C67.0031 119.912 68.0956 103.634 41.1107 102.651H40.0182H30.9504C29.3116 102.651 27.7821 103.853 27.5636 105.491C27.3451 107.458 28.6561 109.097 30.4041 109.315L39.4719 110.626L27.1266 113.904L24.8323 114.778L7.89848 103.634C6.58748 102.651 4.73022 103.088 3.85621 104.617C3.20071 105.71 3.52846 107.13 4.51171 108.004C5.60422 108.878 7.24298 110.298 9.10024 111.937L5.38572 109.752C3.96546 108.878 2.1082 109.534 1.4527 110.954C0.906442 112.156 1.34344 113.576 2.3267 114.231C2.77409 114.567 3.30735 114.931 3.88254 115.324C4.43102 115.699 5.01762 116.099 5.60422 116.526L4.51171 115.979C3.09145 115.433 1.4527 115.87 0.57869 117.072C-0.623067 118.82 0.141687 121.114 1.99895 121.879L20.4623 129.636C23.6306 130.947 26.6896 131.821 30.4041 130.947L46.7917 127.123L81.8865 225.409C83.2632 231.422 87.2529 236.755 93.114 239.651C104.695 245.551 118.788 239.76 122.83 227.415L142.714 167.764L101.199 152.251L94.9365 172.883Z" fill="white"/>
<path d="M94.9365 172.883L94.052 173.349L95.1868 175.501L95.8934 173.173L94.9365 172.883ZM67.0031 119.912L66.0053 119.846L65.9864 120.128L66.1186 120.379L67.0031 119.912ZM41.1107 102.651L41.1471 101.652L41.1289 101.651H41.1107V102.651ZM27.5636 105.491L26.5724 105.359L26.5709 105.37L26.5697 105.381L27.5636 105.491ZM30.4041 109.315L30.5472 108.325L30.5377 108.324L30.5282 108.323L30.4041 109.315ZM39.4719 110.626L39.7285 111.593L39.615 109.636L39.4719 110.626ZM27.1266 113.904L26.87 112.937L26.8195 112.951L26.7706 112.969L27.1266 113.904ZM24.8323 114.778L24.2826 115.613L24.7101 115.894L25.1883 115.712L24.8323 114.778ZM7.89848 103.634L7.29848 104.434L7.32308 104.453L7.34877 104.469L7.89848 103.634ZM3.85621 104.617L4.7137 105.132L4.71918 105.123L4.72445 105.114L3.85621 104.617ZM4.51171 108.004L3.84735 108.752L3.86675 108.769L3.88702 108.785L4.51171 108.004ZM9.10024 111.937L8.59322 112.799L9.76186 111.187L9.10024 111.937ZM5.38572 109.752L4.86162 110.604L4.87011 110.609L4.8787 110.614L5.38572 109.752ZM1.4527 110.954L0.544721 110.535L0.542329 110.54L1.4527 110.954ZM2.3267 114.231L2.9267 113.431L2.9045 113.415L2.8814 113.399L2.3267 114.231ZM3.88254 115.324L3.31859 116.15H3.31859L3.88254 115.324ZM5.60422 116.526L5.15701 117.42L6.19239 115.717L5.60422 116.526ZM4.51171 115.979L4.95893 115.085L4.91575 115.063L4.87069 115.046L4.51171 115.979ZM0.57869 117.072L-0.230046 116.484L-0.237843 116.495L-0.245352 116.505L0.57869 117.072ZM1.99895 121.879L2.38628 120.957L2.3797 120.954L1.99895 121.879ZM20.4623 129.636L20.075 130.558L20.08 130.56L20.4623 129.636ZM30.4041 130.947L30.1769 129.973L30.1751 129.973L30.4041 130.947ZM46.7917 127.123L47.7335 126.787L47.4334 125.946L46.5645 126.149L46.7917 127.123ZM81.8865 225.409L82.8613 225.186L82.8482 225.129L82.8283 225.073L81.8865 225.409ZM93.114 239.651L93.568 238.76L93.557 238.755L93.114 239.651ZM122.83 227.415L121.882 227.099L121.88 227.104L122.83 227.415ZM142.714 167.764L143.663 168.081L143.968 167.165L143.064 166.828L142.714 167.764ZM101.199 152.251L101.549 151.314L100.551 150.941L100.242 151.96L101.199 152.251ZM95.821 172.417L67.8876 119.446L66.1186 120.379L94.052 173.349L95.821 172.417ZM67.0031 119.912C68.0009 119.979 68.0009 119.979 68.001 119.978C68.001 119.977 68.0011 119.976 68.0011 119.975C68.0012 119.974 68.0013 119.972 68.0015 119.97C68.0017 119.966 68.002 119.961 68.0023 119.955C68.003 119.942 68.0038 119.926 68.0046 119.906C68.0062 119.866 68.0079 119.811 68.0087 119.741C68.0104 119.602 68.0086 119.406 67.996 119.16C67.9709 118.669 67.9026 117.978 67.7314 117.151C67.3888 115.497 66.6323 113.29 64.9803 111.056C61.6485 106.55 54.8465 102.151 41.1471 101.652L41.0743 103.65C54.3597 104.134 60.504 108.366 63.3722 112.245C64.8201 114.203 65.4771 116.128 65.7729 117.556C65.9209 118.271 65.9781 118.859 65.9986 119.262C66.0089 119.463 66.01 119.618 66.0089 119.718C66.0083 119.768 66.0071 119.804 66.0062 119.825C66.0058 119.836 66.0054 119.843 66.0052 119.847C66.0051 119.849 66.0051 119.849 66.0051 119.849C66.0051 119.849 66.0051 119.849 66.0052 119.848C66.0052 119.848 66.0052 119.847 66.0052 119.847C66.0053 119.846 66.0053 119.846 67.0031 119.912ZM41.1107 101.651H40.0182V103.651H41.1107V101.651ZM40.0182 101.651H30.9504V103.651H40.0182V101.651ZM30.9504 101.651C28.8663 101.651 26.8642 103.17 26.5724 105.359L28.5548 105.624C28.7 104.535 29.757 103.651 30.9504 103.651V101.651ZM26.5697 105.381C26.2946 107.857 27.9562 110.017 30.2801 110.307L30.5282 108.323C29.356 108.176 28.3956 107.059 28.5575 105.602L26.5697 105.381ZM30.261 110.305L39.3288 111.616L39.615 109.636L30.5472 108.325L30.261 110.305ZM39.2153 109.66L26.87 112.937L27.3832 114.87L39.7285 111.593L39.2153 109.66ZM26.7706 112.969L24.4763 113.843L25.1883 115.712L27.4826 114.838L26.7706 112.969ZM25.3821 113.942L8.4482 102.799L7.34877 104.469L24.2826 115.613L25.3821 113.942ZM8.49848 102.834C6.65517 101.452 4.12779 102.127 2.98797 104.121L4.72445 105.114C5.33264 104.049 6.51978 103.85 7.29848 104.434L8.49848 102.834ZM2.99872 104.103C2.05269 105.68 2.57118 107.617 3.84735 108.752L5.17608 107.257C4.48573 106.643 4.34872 105.74 4.7137 105.132L2.99872 104.103ZM3.88702 108.785C4.95801 109.642 6.5796 111.047 8.43862 112.687L9.76186 111.187C7.90636 109.55 6.25043 108.115 5.13641 107.223L3.88702 108.785ZM9.60726 111.075L5.89274 108.89L4.8787 110.614L8.59322 112.799L9.60726 111.075ZM5.90982 108.901C3.95013 107.695 1.43701 108.602 0.544736 110.535L2.36065 111.373C2.77939 110.466 3.98079 110.062 4.86162 110.604L5.90982 108.901ZM0.542329 110.54C-0.202483 112.179 0.372202 114.13 1.772 115.063L2.8814 113.399C2.31469 113.022 2.01537 112.133 2.36306 111.368L0.542329 110.54ZM1.7267 115.031C2.19546 115.383 2.74874 115.761 3.31859 116.15L4.44648 114.498C3.86597 114.102 3.35271 113.751 2.9267 113.431L1.7267 115.031ZM3.31859 116.15C3.86872 116.525 4.4433 116.918 5.01605 117.334L6.19239 115.717C5.59194 115.28 4.99332 114.872 4.44648 114.498L3.31859 116.15ZM6.05143 115.631L4.95893 115.085L4.0645 116.874L5.15701 117.42L6.05143 115.631ZM4.87069 115.046C3.05892 114.349 0.929241 114.89 -0.230046 116.484L1.38743 117.66C1.97615 116.851 3.12399 116.517 4.15273 116.913L4.87069 115.046ZM-0.245352 116.505C-1.81935 118.795 -0.809173 121.804 1.6182 122.804L2.3797 120.954C1.09255 120.424 0.57322 118.845 1.40273 117.638L-0.245352 116.505ZM1.61162 122.801L20.075 130.558L20.8496 128.714L2.38627 120.957L1.61162 122.801ZM20.08 130.56C23.316 131.899 26.6133 132.866 30.6332 131.92L30.1751 129.973C26.7659 130.776 23.9452 129.995 20.8447 128.712L20.08 130.56ZM30.6313 131.921L47.019 128.097L46.5645 126.149L30.1769 129.973L30.6313 131.921ZM45.85 127.459L80.9448 225.746L82.8283 225.073L47.7335 126.787L45.85 127.459ZM93.557 238.755C87.9754 235.997 84.1734 230.917 82.8613 225.186L80.9118 225.633C82.353 231.927 86.5304 237.514 92.671 240.548L93.557 238.755ZM121.88 227.104C118.029 238.864 104.604 244.382 93.568 238.76L92.6601 240.542C104.785 246.719 119.547 240.657 123.781 227.726L121.88 227.104ZM141.765 167.448L121.882 227.099L123.779 227.731L143.663 168.081L141.765 167.448ZM100.849 153.187L142.364 168.701L143.064 166.828L101.549 151.314L100.849 153.187ZM95.8934 173.173L102.155 152.541L100.242 151.96L93.9796 172.593L95.8934 173.173Z" fill="#333333" mask="url(#path-21-inside-1)"/>
<path d="M148.396 103.197L130.806 104.508C130.806 104.508 105.242 139.14 157.136 228.071L225.417 224.684L230.552 128.871L222.14 101.667H191.55L148.396 103.197Z" fill="#333333"/>
<path d="M243.225 112.156C237.654 100.793 223.669 96.205 212.526 102.104C201.601 107.895 197.34 121.333 203.021 132.367L219.955 165.251L258.52 143.401L243.225 112.156Z" fill="#333333"/>
<mask id="path-25-inside-2" fill="white">
<path fill-rule="evenodd" clip-rule="evenodd" d="M342.314 100.684C343.734 100.138 345.373 100.575 346.247 101.777C347.34 103.416 346.684 105.71 344.936 106.365L326.473 112.92C325.162 113.467 323.851 113.794 322.54 113.904H322.431C321.666 114.013 320.901 114.013 320.136 113.904H307.682L289.045 212.951C288.57 219.02 285.494 224.812 280.261 228.617C269.664 236.155 254.915 232.659 248.907 221.079L219.955 165.251L258.521 143.401L268.275 163.51L288.563 106.038C288.563 106.038 286.487 97.0791 292.059 92.709C292.113 92.709 292.141 92.6817 292.168 92.6544C292.195 92.6271 292.223 92.5998 292.277 92.5998C296.21 89.1038 301.345 87.2465 306.698 87.2465H315.766C317.405 87.2465 318.935 88.4483 319.153 90.087C319.481 92.0535 318.17 93.6923 316.313 93.9108L307.245 95.2218L319.59 98.4993L331.717 86.0447C332.809 84.6245 334.994 84.406 336.415 85.717C337.726 86.8095 337.726 88.776 336.742 90.087L330.624 98.0623L337.835 92.272C339.255 91.0703 341.44 91.398 342.533 92.9275C343.516 94.3478 343.188 96.2051 341.877 97.2976L334.12 103.853L342.314 100.684Z"/>
</mask>
<path fill-rule="evenodd" clip-rule="evenodd" d="M342.314 100.684C343.734 100.138 345.373 100.575 346.247 101.777C347.34 103.416 346.684 105.71 344.936 106.365L326.473 112.92C325.162 113.467 323.851 113.794 322.54 113.904H322.431C321.666 114.013 320.901 114.013 320.136 113.904H307.682L289.045 212.951C288.57 219.02 285.494 224.812 280.261 228.617C269.664 236.155 254.915 232.659 248.907 221.079L219.955 165.251L258.521 143.401L268.275 163.51L288.563 106.038C288.563 106.038 286.487 97.0791 292.059 92.709C292.113 92.709 292.141 92.6817 292.168 92.6544C292.195 92.6271 292.223 92.5998 292.277 92.5998C296.21 89.1038 301.345 87.2465 306.698 87.2465H315.766C317.405 87.2465 318.935 88.4483 319.153 90.087C319.481 92.0535 318.17 93.6923 316.313 93.9108L307.245 95.2218L319.59 98.4993L331.717 86.0447C332.809 84.6245 334.994 84.406 336.415 85.717C337.726 86.8095 337.726 88.776 336.742 90.087L330.624 98.0623L337.835 92.272C339.255 91.0703 341.44 91.398 342.533 92.9275C343.516 94.3478 343.188 96.2051 341.877 97.2976L334.12 103.853L342.314 100.684Z" fill="white"/>
<path d="M346.247 101.777L347.079 101.222L347.068 101.205L347.056 101.189L346.247 101.777ZM342.314 100.684L341.955 99.751L341.954 99.7516L342.314 100.684ZM344.936 106.365L345.271 107.308L345.279 107.305L345.287 107.302L344.936 106.365ZM326.473 112.92L326.138 111.978L326.113 111.987L326.088 111.997L326.473 112.92ZM322.54 113.904V114.904H322.581L322.623 114.9L322.54 113.904ZM322.431 113.904V112.904H322.359L322.289 112.914L322.431 113.904ZM320.136 113.904L320.278 112.914L320.207 112.904H320.136V113.904ZM307.682 113.904V112.904H306.852L306.699 113.719L307.682 113.904ZM289.045 212.951L288.062 212.766L288.052 212.819L288.048 212.873L289.045 212.951ZM280.261 228.617L280.841 229.432L280.85 229.426L280.261 228.617ZM248.907 221.079L248.019 221.539L248.019 221.539L248.907 221.079ZM219.955 165.251L219.462 164.381L218.624 164.856L219.067 165.712L219.955 165.251ZM258.521 143.401L259.42 142.965L258.955 142.006L258.028 142.531L258.521 143.401ZM268.275 163.51L267.375 163.946L268.42 166.101L269.218 163.843L268.275 163.51ZM288.563 106.038L289.506 106.37L289.603 106.096L289.537 105.812L288.563 106.038ZM292.059 92.709V91.709H291.713L291.442 91.9222L292.059 92.709ZM292.277 92.5998V93.5998H292.658L292.942 93.3472L292.277 92.5998ZM319.153 90.087L318.162 90.2192L318.164 90.2353L318.167 90.2514L319.153 90.087ZM316.313 93.9108L316.196 92.9176L316.183 92.9192L316.169 92.9211L316.313 93.9108ZM307.245 95.2218L307.102 94.2321L306.988 96.1883L307.245 95.2218ZM319.59 98.4993L319.333 99.4658L319.899 99.6159L320.307 99.1969L319.59 98.4993ZM331.717 86.0447L332.433 86.7424L332.474 86.7006L332.509 86.6544L331.717 86.0447ZM336.415 85.717L335.736 86.4518L335.755 86.469L335.774 86.4852L336.415 85.717ZM336.742 90.087L337.536 90.6957L337.542 90.687L336.742 90.087ZM330.624 98.0623L329.831 97.4537L331.25 98.842L330.624 98.0623ZM337.835 92.272L338.461 93.0517L338.471 93.0437L338.481 93.0354L337.835 92.272ZM342.533 92.9275L343.355 92.3583L343.351 92.3523L343.346 92.3463L342.533 92.9275ZM341.877 97.2976L341.237 96.5293L341.232 96.5338L341.877 97.2976ZM334.12 103.853L333.475 103.089L334.481 104.785L334.12 103.853ZM347.056 101.189C345.897 99.5946 343.767 99.0541 341.955 99.751L342.673 101.618C343.702 101.222 344.85 101.556 345.438 102.365L347.056 101.189ZM345.287 107.302C347.705 106.395 348.488 103.336 347.079 101.222L345.415 102.332C346.191 103.495 345.663 105.025 344.585 105.429L345.287 107.302ZM326.807 113.863L345.271 107.308L344.602 105.423L326.138 111.978L326.807 113.863ZM322.623 114.9C324.046 114.782 325.458 114.427 326.857 113.843L326.088 111.997C324.866 112.507 323.656 112.807 322.457 112.907L322.623 114.9ZM322.431 114.904H322.54V112.904H322.431V114.904ZM319.995 114.894C320.853 115.016 321.713 115.016 322.572 114.894L322.289 112.914C321.618 113.01 320.949 113.01 320.278 112.914L319.995 114.894ZM307.682 114.904H320.136V112.904H307.682V114.904ZM290.028 213.136L308.664 114.089L306.699 113.719L288.062 212.766L290.028 213.136ZM280.85 229.426C286.324 225.444 289.545 219.382 290.042 213.029L288.048 212.873C287.596 218.658 284.663 224.179 279.673 227.808L280.85 229.426ZM248.019 221.539C254.309 233.663 269.752 237.32 280.841 229.432L279.682 227.802C269.576 234.99 255.521 231.656 249.794 220.618L248.019 221.539ZM219.067 165.712L248.019 221.539L249.794 220.618L220.843 164.791L219.067 165.712ZM258.028 142.531L219.462 164.381L220.448 166.122L259.014 144.271L258.028 142.531ZM269.174 163.073L259.42 142.965L257.621 143.838L267.375 163.946L269.174 163.073ZM287.62 105.705L267.332 163.177L269.218 163.843L289.506 106.37L287.62 105.705ZM291.442 91.9222C288.33 94.3629 287.409 98.0399 287.223 100.948C287.13 102.417 287.22 103.736 287.333 104.687C287.389 105.164 287.451 105.551 287.501 105.822C287.525 105.958 287.546 106.065 287.562 106.139C287.57 106.177 287.576 106.206 287.58 106.227C287.583 106.237 287.585 106.245 287.586 106.251C287.587 106.255 287.587 106.257 287.588 106.259C287.588 106.26 287.588 106.261 287.588 106.262C287.588 106.262 287.588 106.262 287.588 106.263C287.589 106.263 287.589 106.263 288.563 106.038C289.537 105.812 289.537 105.812 289.537 105.812C289.537 105.812 289.537 105.813 289.537 105.813C289.537 105.813 289.537 105.813 289.537 105.813C289.537 105.813 289.537 105.812 289.537 105.811C289.536 105.808 289.535 105.804 289.534 105.797C289.531 105.784 289.526 105.762 289.52 105.733C289.508 105.674 289.49 105.584 289.469 105.466C289.426 105.23 289.37 104.883 289.319 104.452C289.216 103.587 289.135 102.393 289.219 101.076C289.389 98.4124 290.216 95.4252 292.676 93.4959L291.442 91.9222ZM291.461 91.9473C291.434 91.9741 291.504 91.8976 291.609 91.8345C291.744 91.7535 291.901 91.709 292.059 91.709V93.709C292.553 93.709 292.837 93.3993 292.875 93.3615L291.461 91.9473ZM292.277 91.5998C291.783 91.5998 291.499 91.9094 291.461 91.9473L292.875 93.3615C292.902 93.3348 292.832 93.4112 292.727 93.4744C292.592 93.5554 292.435 93.5998 292.277 93.5998V91.5998ZM306.698 86.2465C301.115 86.2465 295.74 88.1842 291.613 91.8524L292.942 93.3472C296.681 90.0233 301.576 88.2465 306.698 88.2465V86.2465ZM315.766 86.2465H306.698V88.2465H315.766V86.2465ZM320.144 89.9549C319.852 87.7658 317.85 86.2465 315.766 86.2465V88.2465C316.96 88.2465 318.017 89.1307 318.162 90.2192L320.144 89.9549ZM316.429 94.9039C318.843 94.62 320.563 92.4631 320.139 89.9226L318.167 90.2514C318.399 91.6439 317.496 92.7646 316.196 92.9176L316.429 94.9039ZM307.388 96.2115L316.456 94.9005L316.169 92.9211L307.102 94.2321L307.388 96.2115ZM319.847 97.5328L307.501 94.2553L306.988 96.1883L319.333 99.4658L319.847 97.5328ZM331 85.3471L318.874 97.8017L320.307 99.1969L332.433 86.7424L331 85.3471ZM337.093 84.9822C335.249 83.2802 332.382 83.5402 330.924 85.435L332.509 86.6544C333.237 85.7088 334.74 85.5318 335.736 86.4518L337.093 84.9822ZM337.542 90.687C338.771 89.0483 338.863 86.4555 337.055 84.9488L335.774 86.4852C336.588 87.1635 336.68 88.5037 335.942 89.487L337.542 90.687ZM331.418 98.671L337.536 90.6957L335.949 89.4784L329.831 97.4537L331.418 98.671ZM337.209 91.4923L329.998 97.2826L331.25 98.842L338.461 93.0517L337.209 91.4923ZM343.346 92.3463C341.935 90.3697 339.082 89.9069 337.189 91.5086L338.481 93.0354C339.428 92.2336 340.946 92.4263 341.719 93.5088L343.346 92.3463ZM342.517 98.0658C344.196 96.6668 344.655 94.2356 343.355 92.3583L341.71 93.4967C342.377 94.46 342.18 95.7433 341.237 96.5293L342.517 98.0658ZM334.766 104.616L342.523 98.0614L341.232 96.5338L333.475 103.089L334.766 104.616ZM341.954 99.7516L333.76 102.92L334.481 104.785L342.675 101.617L341.954 99.7516Z" fill="#333333" mask="url(#path-25-inside-2)"/>
<path d="M146.975 23.8811C144.899 25.3013 130.588 29.0159 130.369 31.6379C130.369 31.6379 135.067 49.992 130.26 53.3788C117.259 62.6651 113.107 80.6914 113.107 80.6914C113.107 80.6914 147.303 106.365 238.309 79.3804C238.309 79.3804 239.401 68.4554 222.795 60.5893C218.097 58.295 213.837 54.9083 211.215 50.3197C209.139 46.7145 208.811 45.185 208.265 42.0167C206.844 33.0581 182.045 -0.263314 146.975 23.8811Z" fill="#333333"/>
<path d="M147.788 51.3301L147.788 51.3301L147.788 51.3392C148.205 57.069 143.827 62.0768 138.091 62.494C132.361 62.9107 127.353 58.533 126.936 52.7961C126.519 47.0664 130.897 42.0587 136.633 41.6413C142.478 41.224 147.476 45.6061 147.788 51.3301Z" fill="white" stroke="#333333"/>
<mask id="path-29-inside-3" fill="white">
<path fill-rule="evenodd" clip-rule="evenodd" d="M154.84 101.777L153.31 78.0692L178.547 64.8499L182.685 101.978L191.439 101.667C191.439 101.667 190.346 122.862 164.782 120.895C146.974 119.584 148.394 103.197 148.394 103.197L154.94 102.964C154.9 102.575 154.866 102.179 154.84 101.777Z"/>
</mask>
<path fill-rule="evenodd" clip-rule="evenodd" d="M154.84 101.777L153.31 78.0692L178.547 64.8499L182.685 101.978L191.439 101.667C191.439 101.667 190.346 122.862 164.782 120.895C146.974 119.584 148.394 103.197 148.394 103.197L154.94 102.964C154.9 102.575 154.866 102.179 154.84 101.777Z" fill="white"/>
<path d="M153.31 78.0692L152.846 77.1834L152.271 77.4849L152.313 78.1336L153.31 78.0692ZM154.84 101.777L153.842 101.841L153.842 101.842L154.84 101.777ZM178.547 64.8499L179.541 64.7391L179.379 63.2852L178.083 63.964L178.547 64.8499ZM182.685 101.978L181.691 102.089L181.794 103.011L182.72 102.978L182.685 101.978ZM191.439 101.667L192.438 101.719L192.494 100.629L191.403 100.668L191.439 101.667ZM164.782 120.895L164.858 119.898L164.855 119.898L164.782 120.895ZM148.394 103.197L148.359 102.197L147.474 102.229L147.398 103.111L148.394 103.197ZM154.94 102.964L154.975 103.964L156.044 103.926L155.934 102.862L154.94 102.964ZM152.313 78.1336L153.842 101.841L155.838 101.712L154.308 78.0048L152.313 78.1336ZM178.083 63.964L152.846 77.1834L153.775 78.955L179.011 65.7357L178.083 63.964ZM183.679 101.868L179.541 64.7391L177.554 64.9606L181.691 102.089L183.679 101.868ZM182.72 102.978L191.474 102.667L191.403 100.668L182.649 100.979L182.72 102.978ZM191.439 101.667C190.44 101.616 190.44 101.615 190.44 101.615C190.44 101.615 190.44 101.615 190.44 101.614C190.44 101.614 190.44 101.614 190.44 101.615C190.44 101.616 190.44 101.618 190.44 101.622C190.439 101.629 190.439 101.64 190.437 101.657C190.435 101.691 190.431 101.743 190.425 101.813C190.412 101.954 190.389 102.165 190.351 102.437C190.276 102.981 190.14 103.763 189.9 104.7C189.419 106.577 188.523 109.048 186.873 111.453C183.617 116.195 177.305 120.856 164.858 119.898L164.705 121.893C177.823 122.902 184.84 117.948 188.521 112.585C190.339 109.937 191.315 107.232 191.837 105.197C192.099 104.177 192.248 103.319 192.332 102.712C192.375 102.407 192.401 102.166 192.416 101.997C192.424 101.912 192.429 101.846 192.432 101.799C192.434 101.776 192.435 101.757 192.436 101.744C192.436 101.737 192.437 101.732 192.437 101.727C192.437 101.725 192.437 101.724 192.437 101.722C192.437 101.721 192.437 101.721 192.437 101.72C192.437 101.719 192.438 101.719 191.439 101.667ZM164.855 119.898C160.561 119.582 157.496 118.364 155.296 116.768C153.094 115.17 151.703 113.152 150.826 111.152C149.945 109.147 149.584 107.169 149.446 105.685C149.377 104.945 149.364 104.334 149.368 103.913C149.37 103.702 149.376 103.539 149.381 103.431C149.384 103.378 149.386 103.338 149.388 103.313C149.389 103.3 149.39 103.291 149.39 103.286C149.39 103.284 149.39 103.282 149.39 103.282C149.39 103.282 149.39 103.282 149.39 103.282C149.39 103.282 149.39 103.282 149.39 103.282C149.39 103.283 149.39 103.283 148.394 103.197C147.398 103.111 147.398 103.111 147.398 103.112C147.398 103.112 147.398 103.113 147.398 103.113C147.397 103.115 147.397 103.116 147.397 103.118C147.397 103.121 147.397 103.126 147.396 103.131C147.395 103.142 147.394 103.156 147.393 103.175C147.39 103.212 147.387 103.264 147.384 103.331C147.377 103.464 147.37 103.655 147.368 103.895C147.364 104.374 147.379 105.054 147.455 105.871C147.607 107.5 148.004 109.701 148.994 111.957C149.987 114.218 151.581 116.543 154.121 118.386C156.663 120.231 160.098 121.553 164.708 121.893L164.855 119.898ZM148.43 104.196L154.975 103.964L154.904 101.965L148.359 102.197L148.43 104.196ZM153.842 101.842C153.869 102.256 153.904 102.664 153.945 103.066L155.934 102.862C155.896 102.485 155.864 102.101 155.838 101.711L153.842 101.842Z" fill="#333333" mask="url(#path-29-inside-3)"/>
<mask id="path-31-inside-4" fill="white">
<path fill-rule="evenodd" clip-rule="evenodd" d="M134.519 59.3874C134.956 70.8588 146.536 81.8931 160.52 81.8931C173.495 80.9603 184.165 73.0504 188.19 61.7397C189.985 62.7489 192.082 63.2619 194.28 63.102C200.289 62.665 204.878 57.421 204.441 51.4122C204.004 45.4034 198.76 40.8149 192.751 41.2519C191.691 41.329 190.674 41.5559 189.722 41.9102L189.472 29.4528C188.379 14.7039 173.084 3.8881 158.445 4.87136C144.023 5.85462 133.098 18.0907 133.645 32.4025L134.519 59.3874Z"/>
</mask>
<path fill-rule="evenodd" clip-rule="evenodd" d="M134.519 59.3874C134.956 70.8588 146.536 81.8931 160.52 81.8931C173.495 80.9603 184.165 73.0504 188.19 61.7397C189.985 62.7489 192.082 63.2619 194.28 63.102C200.289 62.665 204.878 57.421 204.441 51.4122C204.004 45.4034 198.76 40.8149 192.751 41.2519C191.691 41.329 190.674 41.5559 189.722 41.9102L189.472 29.4528C188.379 14.7039 173.084 3.8881 158.445 4.87136C144.023 5.85462 133.098 18.0907 133.645 32.4025L134.519 59.3874Z" fill="white"/>
<path d="M160.52 81.8931V82.8931H160.556L160.592 82.8905L160.52 81.8931ZM134.519 59.3874L133.519 59.4198L133.519 59.4255L134.519 59.3874ZM188.19 61.7397L188.679 60.8679L187.645 60.2866L187.247 61.4045L188.19 61.7397ZM194.28 63.102L194.208 62.1046L194.28 63.102ZM204.441 51.4122L205.438 51.3396L204.441 51.4122ZM192.751 41.2519L192.824 42.2492L192.751 41.2519ZM189.722 41.9102L188.722 41.9303L188.751 43.3388L190.071 42.8474L189.722 41.9102ZM189.472 29.4528L190.472 29.4327L190.471 29.4057L190.469 29.3789L189.472 29.4528ZM158.445 4.87136L158.378 3.87361L158.377 3.87368L158.445 4.87136ZM133.645 32.4025L134.644 32.3702L134.644 32.3644L133.645 32.4025ZM160.52 80.8931C147.002 80.8931 135.932 70.2152 135.518 59.3494L133.519 59.4255C133.979 71.5023 146.07 82.8931 160.52 82.8931V80.8931ZM187.247 61.4045C183.366 72.3139 173.057 79.9892 160.449 80.8957L160.592 82.8905C173.932 81.9314 184.965 73.7869 189.132 62.0749L187.247 61.4045ZM194.208 62.1046C192.213 62.2498 190.311 61.7848 188.679 60.8679L187.7 62.6114C189.66 63.7131 191.951 64.2741 194.353 64.0994L194.208 62.1046ZM203.443 51.4847C203.84 56.9357 199.673 61.7072 194.208 62.1046L194.353 64.0994C200.906 63.6228 205.916 57.9063 205.438 51.3396L203.443 51.4847ZM192.824 42.2492C198.274 41.8528 203.046 46.0197 203.443 51.4847L205.438 51.3396C204.962 44.7871 199.245 39.7769 192.678 40.2545L192.824 42.2492ZM190.071 42.8474C190.936 42.5256 191.859 42.3194 192.824 42.2492L192.678 40.2545C191.522 40.3386 190.413 40.5861 189.373 40.973L190.071 42.8474ZM188.472 29.4729L188.722 41.9303L190.722 41.8901L190.472 29.4327L188.472 29.4729ZM158.512 5.86911C172.723 4.91459 187.431 15.4391 188.474 29.5266L190.469 29.3789C189.327 13.9688 173.445 2.86162 158.378 3.87361L158.512 5.86911ZM134.644 32.3644C134.118 18.5921 144.632 6.81548 158.513 5.86904L158.377 3.87368C143.415 4.89376 132.078 17.5893 132.645 32.4407L134.644 32.3644ZM135.518 59.3551L134.644 32.3702L132.645 32.4349L133.519 59.4198L135.518 59.3551Z" fill="#333333" mask="url(#path-31-inside-4)"/>
<path d="M167.077 0.173601C163.581 -0.0448999 160.085 0.392103 156.698 1.26611C148.286 3.45112 133.209 9.67841 130.587 25.8475C129.713 30.1083 130.369 31.5285 130.369 31.5285C130.369 31.5285 158.555 32.621 175.162 24.755C177.565 34.9153 179.75 41.1426 189.801 51.0844L198.65 37.7558L208.702 46.7144C208.811 47.0421 208.811 2.46787 167.077 0.173601Z" fill="#333333"/>
<path d="M11.7246 343.767C11.7246 348.137 15.3299 351.633 19.5907 351.633H392.135C396.505 351.633 400.002 348.028 400.002 343.767" stroke="#F15A89" stroke-width="2" stroke-miterlimit="10"/>
<defs>
<clipPath id="clip0">
<rect width="365" height="153" fill="white" transform="translate(27 199)"/>
</clipPath>
</defs>
</svg>
