<svg width="602" height="217" viewBox="0 0 602 217" fill="none" xmlns="http://www.w3.org/2000/svg">
<path d="M295.192 192.841C338.185 192.841 373.038 157.988 373.038 114.995C373.038 72.0014 338.185 37.1486 295.192 37.1486C252.199 37.1486 217.346 72.0014 217.346 114.995C217.346 157.988 252.199 192.841 295.192 192.841Z" fill="#0A4586"/>
<path d="M295.192 179.218C330.661 179.218 359.415 150.464 359.415 114.995C359.415 79.5252 330.661 50.7716 295.192 50.7716C259.722 50.7716 230.969 79.5252 230.969 114.995C230.969 150.464 259.722 179.218 295.192 179.218Z" fill="#093B73"/>
<path d="M295.193 160.301C320.215 160.301 340.499 140.017 340.499 114.995C340.499 89.9726 320.215 69.6882 295.193 69.6882C270.171 69.6882 249.887 89.9726 249.887 114.995C249.887 140.017 270.171 160.301 295.193 160.301Z" fill="#DAE6F2"/>
<path d="M295.191 155.397C317.505 155.397 335.593 137.308 335.593 114.995C335.593 92.6812 317.505 74.5925 295.191 74.5925C272.878 74.5925 254.789 92.6812 254.789 114.995C254.789 137.308 272.878 155.397 295.191 155.397Z" fill="white"/>
<path d="M295.191 145.199C311.872 145.199 325.395 131.676 325.395 114.995C325.395 98.3133 311.872 84.7904 295.191 84.7904C278.509 84.7904 264.986 98.3133 264.986 114.995C264.986 131.676 278.509 145.199 295.191 145.199Z" fill="#DAE6F2"/>
<path d="M295.192 159.99C283.203 159.99 271.916 155.319 263.353 146.834C254.867 138.348 250.197 127.061 250.197 114.995C250.197 102.928 254.867 91.7187 263.353 83.1556C271.838 74.6704 283.126 69.9996 295.192 69.9996C307.258 69.9996 318.468 74.6704 327.031 83.1556C335.516 91.7187 340.187 103.006 340.187 114.995C340.187 126.983 335.516 138.271 327.031 146.834C318.546 155.397 307.258 159.99 295.192 159.99ZM295.192 165.595C323.138 165.595 345.792 142.941 345.792 114.995C345.792 87.0479 323.138 64.3947 295.192 64.3947C267.245 64.3947 244.592 87.0479 244.592 114.995C244.592 142.941 267.245 165.595 295.192 165.595Z" fill="#FF4019"/>
<path d="M295.192 165.595C295.192 165.595 295.27 165.595 295.192 165.595C295.27 165.595 295.27 165.595 295.192 165.595C295.27 165.595 295.27 165.595 295.192 165.595C295.27 165.595 295.27 165.595 295.192 165.595C295.27 165.595 295.27 165.595 295.192 165.595C295.27 165.595 295.27 165.595 295.192 165.595C295.27 165.595 295.27 165.595 295.27 165.595C295.347 165.595 295.347 165.595 295.347 165.595C295.425 165.595 295.581 165.595 295.659 165.595H295.737H295.814H295.892C298.773 165.517 301.653 165.127 304.378 164.583L302.898 157.732C299.94 158.355 296.904 158.666 293.868 158.666V165.595H295.192ZM315.665 161.313C318.935 159.912 321.971 158.121 324.773 156.097L320.647 150.415C318.156 152.205 315.587 153.684 312.785 154.93L315.665 161.313ZM332.636 149.091C332.713 149.091 332.713 149.091 332.636 149.091C332.713 149.013 332.713 149.013 332.636 149.091C332.713 149.013 332.713 149.013 332.636 149.091C332.713 149.013 332.713 149.013 332.636 149.091C332.713 149.013 332.713 149.013 332.636 149.091C332.713 149.013 332.713 149.013 332.713 149.013L332.791 148.935L332.869 148.858C332.869 148.78 332.947 148.78 332.947 148.702C333.025 148.624 333.181 148.468 333.258 148.391C335.127 146.211 336.839 143.798 338.318 141.307L332.246 137.726C330.689 140.295 328.899 142.786 326.875 145.043L332.636 149.091ZM343.223 131.031C343.612 129.785 344.001 128.54 344.313 127.294C344.313 127.294 344.313 127.294 344.313 127.216C344.313 127.139 344.313 127.139 344.313 127.061V126.983V126.905C344.313 126.827 344.313 126.827 344.313 126.749C344.313 126.749 344.313 126.749 344.313 126.672V126.594C344.313 126.516 344.313 126.516 344.313 126.438C344.313 126.438 344.313 126.438 344.313 126.36V126.282C344.313 126.204 344.313 126.204 344.313 126.127C344.313 126.127 344.313 126.127 344.313 126.049C344.313 126.049 344.313 126.049 344.313 125.971V125.893V125.815L337.306 125.037C336.995 128.073 336.294 131.031 335.36 133.911L343.223 131.031ZM338.63 110.869L345.636 110.168C345.325 106.587 344.624 103.162 343.534 99.8146L336.839 101.916C337.696 104.875 338.318 107.833 338.63 110.869ZM333.181 93.6648L339.33 90.2396C338.396 88.6048 337.384 87.0479 336.372 85.5688C336.372 85.5688 336.372 85.491 336.294 85.491C336.294 85.491 336.294 85.4131 336.217 85.4131L336.139 85.3353L330.845 90.006C329.989 88.527 331.701 91.018 333.181 93.6648ZM321.27 80.1196L325.474 74.5147C325.396 74.5147 325.396 74.4368 325.318 74.4368C324.384 73.7362 323.372 73.0356 322.36 72.4128C322.282 72.4128 322.282 72.335 322.204 72.335C322.126 72.335 322.126 72.2571 322.049 72.2571C322.049 72.2571 321.971 72.2571 321.971 72.1793C321.971 72.1793 321.893 72.1793 321.893 72.1015C321.893 72.1015 321.893 72.1015 321.815 72.1015H321.737C321.737 72.1015 321.737 72.1015 321.659 72.1015C321.659 72.1015 321.582 72.1014 321.582 72.0236C321.582 72.0236 321.504 72.0236 321.504 71.9458C320.803 71.5565 320.025 71.2451 319.324 70.8559L316.366 77.2393C316.288 76.7722 318.857 78.3291 321.27 80.1196ZM305 72.5685L306.557 65.7181C305.078 65.4067 303.521 65.0953 301.964 64.8618H301.886C300.252 64.7061 298.617 64.5504 296.904 64.5504L296.749 71.5565C299.006 71.4787 302.042 71.8679 305 72.5685ZM278.299 74.9039C281.102 73.7362 283.982 72.8799 286.94 72.2571L285.617 65.3289C285.539 65.3289 285.461 65.3288 285.305 65.4067H285.227C283.359 65.7959 281.491 66.263 279.7 66.8858C279.622 66.8858 279.545 66.9636 279.467 66.9636C279.389 66.9636 279.389 67.0415 279.311 67.0415C278.377 67.3528 277.443 67.7421 276.586 68.1313L278.299 74.9039ZM263.508 85.1796C265.61 82.9999 267.868 80.9759 270.359 79.2633L266.311 73.5027C266.155 73.5805 265.999 73.7362 265.844 73.8141C265.844 73.8141 265.766 73.8141 265.766 73.8919L265.688 73.9698C265.688 73.9698 265.688 73.9698 265.61 74.0476L263.508 85.1796ZM254.089 100.593C255.101 97.7128 256.424 94.9882 257.981 92.4193L251.987 88.7605C250.197 91.7187 248.718 94.8325 247.55 98.102L254.089 100.593ZM244.747 119.043L251.754 118.498C251.676 117.33 251.598 116.24 251.598 115.072C251.598 113.204 251.754 111.258 251.987 109.468L244.981 108.533C244.981 108.533 244.981 108.533 244.981 108.611V108.689C244.747 110.402 244.67 112.114 244.592 113.905V113.983V114.06C244.592 114.06 244.592 114.06 244.592 114.138C244.592 114.138 244.592 114.138 244.592 114.216C244.592 114.216 244.592 114.216 244.592 114.294V114.372V114.45C244.592 115.384 244.67 116.24 244.67 117.174C244.67 117.174 244.67 117.174 244.67 117.252C244.747 118.809 244.747 118.887 244.747 119.043ZM250.664 139.049L256.814 135.702C255.412 133.055 254.245 130.252 253.388 127.372L246.616 129.396C246.694 129.785 246.849 130.175 247.005 130.564C247.005 130.564 247.005 130.564 247.005 130.642C247.005 130.72 247.005 130.72 247.083 130.797V130.875C248.173 133.911 249.34 136.558 250.664 139.049ZM264.209 155.007L268.491 149.48C266.077 147.612 263.898 145.51 261.951 143.175L256.58 147.69C256.58 147.69 256.58 147.768 256.658 147.768C256.658 147.768 256.658 147.846 256.736 147.846L256.814 147.923L256.891 148.001L256.969 148.079C256.969 148.157 257.047 148.157 257.047 148.235C257.125 148.313 257.203 148.391 257.281 148.468C260.706 152.127 262.419 153.606 264.209 155.007ZM283.048 164.193L284.76 157.343C281.802 156.642 279 155.552 276.275 154.307L273.239 160.612C274.64 161.313 276.042 161.858 277.443 162.403C277.521 162.403 277.599 162.481 277.599 162.481C277.599 162.481 277.599 162.481 277.676 162.481H277.754H277.832H277.91C277.91 162.481 277.91 162.481 277.988 162.481H278.066H278.143C278.221 162.481 278.299 162.559 278.377 162.559C281.569 163.804 282.347 163.96 283.048 164.193ZM295.192 165.595V158.588C294.725 158.588 294.18 158.588 293.713 158.588L293.479 165.595C293.635 165.595 293.79 165.595 293.946 165.595H294.024C294.024 165.595 294.024 165.595 294.102 165.595C294.102 165.595 294.102 165.595 294.18 165.595C294.18 165.595 294.18 165.595 294.258 165.595C295.114 165.595 295.192 165.595 295.192 165.595Z" fill="white"/>
<path d="M295.97 145.432C295.425 145.355 294.88 145.355 294.335 145.277C294.335 137.103 294.335 128.228 294.335 118.186V116.785L293.323 117.797C287.095 123.947 280.556 129.941 272.927 136.558C272.616 136.247 272.304 135.935 272.071 135.702C279.7 129.007 286.161 123.091 292.389 116.863L293.401 115.851H291.922C287.64 115.851 283.359 115.851 279.155 115.851C274.251 115.851 269.424 115.851 264.598 115.851C264.598 115.384 264.598 114.917 264.598 114.45C269.424 114.45 274.328 114.45 279.155 114.45C283.359 114.45 287.64 114.45 291.922 114.45H293.401L292.389 113.438C286.161 107.288 279.7 101.294 272.071 94.599C272.382 94.2876 272.694 93.9762 272.927 93.7427C280.556 100.36 287.095 106.354 293.323 112.504L294.335 113.516V112.114C294.335 102.072 294.335 93.1199 294.335 85.0239C294.88 84.946 295.425 84.946 295.97 84.8682C295.814 93.7427 295.658 102.928 295.658 112.114V113.593L296.67 112.581C302.976 106.198 309.515 99.1919 317.222 90.551C317.533 90.8623 317.767 91.0959 318.078 91.4073C310.371 100.126 303.91 107.21 297.604 113.593L296.592 114.605H298.071C307.257 114.528 316.365 114.45 325.084 114.372C325.084 114.995 325.084 115.695 325.084 116.318C316.287 116.162 307.257 116.084 298.071 116.084H296.592L297.604 117.096C303.832 123.48 310.371 130.486 318.078 139.283C317.767 139.594 317.533 139.827 317.222 140.139C309.515 131.498 302.976 124.492 296.67 118.108L295.658 117.096V118.576C295.658 127.372 295.814 136.558 295.97 145.432Z" fill="white"/>
<path opacity="0.1" d="M277.366 113.204C278.066 113.438 278.845 113.126 279.234 112.581L288.809 115.773C288.42 118.965 290.133 122.079 293.091 123.402L290.755 133.211C290.055 133.288 289.432 133.756 289.276 134.534C289.043 135.468 289.588 136.48 290.522 136.714C291.456 136.947 292.468 136.402 292.702 135.468C292.935 134.768 292.624 133.989 292.079 133.6L295.27 124.025C298.462 124.414 301.576 122.701 302.899 119.743L312.708 122.079C312.786 122.779 313.253 123.402 314.031 123.558C314.966 123.791 315.978 123.246 316.211 122.312C316.445 121.378 315.9 120.366 314.966 120.132C314.265 119.899 313.486 120.21 313.097 120.755L303.522 117.564C303.911 114.372 302.199 111.258 299.241 109.935L301.576 100.126C302.277 100.048 302.899 99.5811 303.055 98.8026C303.289 97.8685 302.744 96.8565 301.81 96.623C300.875 96.3894 299.863 96.9343 299.63 97.8685C299.396 98.5691 299.708 99.3476 300.253 99.7368L297.061 109.312C293.869 108.923 290.755 110.635 289.432 113.593L279.623 111.258C279.546 110.557 279.078 109.935 278.3 109.779C277.366 109.545 276.354 110.09 276.12 111.024C275.887 111.959 276.432 112.893 277.366 113.204Z" fill="#383838"/>
<path d="M275.885 111.725C276.586 111.959 277.364 111.647 277.754 111.102L287.329 114.294C286.94 117.486 288.652 120.6 291.61 121.923L289.275 131.732C288.574 131.809 287.952 132.276 287.796 133.055C287.562 133.989 288.107 135.001 289.041 135.235C289.976 135.468 290.988 134.923 291.221 133.989C291.455 133.288 291.143 132.51 290.598 132.121L293.79 122.546C296.982 122.935 300.096 121.222 301.419 118.264L311.228 120.6C311.305 121.3 311.772 121.923 312.551 122.079C313.485 122.312 314.497 121.767 314.731 120.833C314.964 119.899 314.419 118.887 313.485 118.653C312.784 118.42 312.006 118.731 311.617 119.276L302.042 116.084C302.431 112.893 300.718 109.779 297.76 108.456L300.096 98.6469C300.796 98.5691 301.419 98.102 301.575 97.3236C301.808 96.3894 301.263 95.3774 300.329 95.1439C299.395 94.9103 298.383 95.4553 298.149 96.3894C297.916 97.09 298.227 97.8685 298.772 98.2577L295.58 107.833C292.389 107.444 289.275 109.156 287.952 112.114L278.143 109.779C278.065 109.078 277.598 108.456 276.82 108.3C275.885 108.066 274.873 108.611 274.64 109.545C274.406 110.402 274.951 111.414 275.885 111.725Z" fill="#FF4019"/>
<path d="M294.645 118.731C296.623 118.731 298.226 117.128 298.226 115.15C298.226 113.173 296.623 111.569 294.645 111.569C292.668 111.569 291.064 113.173 291.064 115.15C291.064 117.128 292.668 118.731 294.645 118.731Z" fill="#0A4586"/>
<path d="M296.124 120.366C297.414 120.366 298.46 119.32 298.46 118.031C298.46 116.741 297.414 115.695 296.124 115.695C294.835 115.695 293.789 116.741 293.789 118.031C293.789 119.32 294.835 120.366 296.124 120.366Z" fill="white"/>
<path opacity="0.2" d="M323.293 154.385C324.798 154.385 326.018 153.165 326.018 151.66C326.018 150.155 324.798 148.936 323.293 148.936C321.788 148.936 320.568 150.155 320.568 151.66C320.568 153.165 321.788 154.385 323.293 154.385Z" fill="#328FD9"/>
<path d="M322.049 154.385C323.554 154.385 324.773 153.165 324.773 151.66C324.773 150.155 323.554 148.936 322.049 148.936C320.544 148.936 319.324 150.155 319.324 151.66C319.324 153.165 320.544 154.385 322.049 154.385Z" fill="#0A4586"/>
<path opacity="0.2" d="M321.192 153.217C322.052 153.217 322.749 152.52 322.749 151.66C322.749 150.8 322.052 150.103 321.192 150.103C320.332 150.103 319.635 150.8 319.635 151.66C319.635 152.52 320.332 153.217 321.192 153.217Z" fill="white"/>
<path d="M293.79 112.659C294.22 112.659 294.569 112.311 294.569 111.881C294.569 111.451 294.22 111.102 293.79 111.102C293.36 111.102 293.012 111.451 293.012 111.881C293.012 112.311 293.36 112.659 293.79 112.659Z" fill="white"/>
<path d="M296.282 77.7842H294.725L293.869 79.1076L294.725 80.5088H296.282L297.061 79.1076L296.282 77.7842Z" fill="#3DA8FB"/>
<path d="M296.282 148.546H294.725L293.869 149.947L294.725 151.349H296.282L297.061 149.947L296.282 148.546Z" fill="#3DA8FB"/>
<path d="M332.246 115.306V113.749L330.923 112.971L329.521 113.749V115.306L330.923 116.162L332.246 115.306Z" fill="#3DA8FB"/>
<path d="M261.484 115.306V113.749L260.083 112.971L258.682 113.749V115.306L260.083 116.162L261.484 115.306Z" fill="#3DA8FB"/>
<path d="M320.958 141.151L322.048 139.983L321.659 138.426L320.102 138.037L319.012 139.127L319.401 140.684L320.958 141.151Z" fill="#3DA8FB"/>
<path d="M270.903 91.018L271.993 89.9282L271.604 88.3713L270.047 87.982L268.879 89.0719L269.346 90.6288L270.903 91.018Z" fill="#3DA8FB"/>
<path d="M268.879 139.983L270.047 141.151L271.604 140.684L271.993 139.127L270.903 138.037L269.346 138.426L268.879 139.983Z" fill="#3DA8FB"/>
<path d="M319.012 89.9282L320.102 91.018L321.659 90.6288L322.048 89.0719L320.958 87.982L319.401 88.3713L319.012 89.9282Z" fill="#3DA8FB"/>
<path d="M201.777 137.959V166.451H185.118V192.918H154.213V166.451H80.5703V137.959L132.416 37.2264H165.345L113.733 137.959H154.213V101.06H185.118V137.959H201.777Z" fill="#0A4586"/>
<path d="M509.892 137.959V166.451H493.233V192.918H462.328V166.451H388.686V137.959L440.531 37.2264H473.46L421.848 137.959H462.328V101.06H493.233V137.959H509.892Z" fill="#0A4586"/>
<path d="M600.839 198.255L594.378 186.5C593.677 185.255 592.12 184.788 590.875 185.489L579.12 191.95C577.874 192.65 577.407 194.207 578.108 195.453L584.569 207.208C585.27 208.453 586.827 208.92 588.072 208.22L599.827 201.758C601.073 201.058 601.54 199.501 600.839 198.255Z" fill="#0A4586"/>
<path d="M594.378 186.5C593.911 185.644 593.055 185.177 592.199 185.177C591.732 185.956 591.654 186.89 592.121 187.746L597.259 197.088C597.959 198.411 597.492 200.124 596.169 200.824L586.827 205.962C585.971 206.429 585.504 207.285 585.504 208.142C586.282 208.609 587.217 208.687 588.073 208.22L599.828 201.758C601.073 201.058 601.54 199.501 600.84 198.255L594.378 186.5Z" fill="#093B73"/>
<path d="M590.954 193.584C592.029 193.584 592.9 192.713 592.9 191.638C592.9 190.563 592.029 189.692 590.954 189.692C589.879 189.692 589.008 190.563 589.008 191.638C589.008 192.713 589.879 193.584 590.954 193.584Z" fill="#FFF9EB"/>
<path d="M587.917 204.016C588.992 204.016 589.863 203.145 589.863 202.07C589.863 200.995 588.992 200.124 587.917 200.124C586.842 200.124 585.971 200.995 585.971 202.07C585.971 203.145 586.842 204.016 587.917 204.016Z" fill="#FFF9EB"/>
<path d="M589.473 198.8C590.548 198.8 591.42 197.929 591.42 196.854C591.42 195.779 590.548 194.908 589.473 194.908C588.399 194.908 587.527 195.779 587.527 196.854C587.527 197.929 588.399 198.8 589.473 198.8Z" fill="#FFF9EB"/>
<path d="M583.543 167.166L579.806 150.351C579.417 148.561 577.704 147.471 575.914 147.86L559.099 151.597C557.309 151.986 556.219 153.698 556.608 155.489L560.345 172.304C560.734 174.094 562.446 175.184 564.237 174.795L581.052 171.058C582.842 170.669 583.932 168.878 583.543 167.166Z" fill="#3DA8FB"/>
<path d="M579.884 150.273C579.65 149.106 578.716 148.171 577.704 147.86C576.848 148.639 576.459 149.806 576.692 150.974L579.65 164.363C580.04 166.31 578.872 168.178 576.926 168.567L563.536 171.525C562.369 171.759 561.434 172.693 561.123 173.705C561.902 174.561 563.069 174.95 564.237 174.717L581.052 170.98C582.842 170.591 583.932 168.878 583.543 167.088L579.884 150.273Z" fill="#3799E6"/>
<path d="M572.411 160.082C573.787 160.082 574.902 158.967 574.902 157.591C574.902 156.215 573.787 155.1 572.411 155.1C571.035 155.1 569.92 156.215 569.92 157.591C569.92 158.967 571.035 160.082 572.411 160.082Z" fill="#FFF9EB"/>
<path d="M567.585 167.711C568.961 167.711 570.076 166.595 570.076 165.22C570.076 163.844 568.961 162.729 567.585 162.729C566.209 162.729 565.094 163.844 565.094 165.22C565.094 166.595 566.209 167.711 567.585 167.711Z" fill="#FFF9EB"/>
<path d="M545.71 174.95L532.788 186.394C531.464 187.562 531.308 189.663 532.476 190.987L543.919 203.909C545.087 205.233 547.189 205.388 548.512 204.221L561.435 192.777C562.758 191.61 562.914 189.508 561.746 188.184L550.303 175.262C549.135 173.938 547.033 173.783 545.71 174.95Z" fill="#ED2939"/>
<path d="M547.191 174.25C546.802 175.34 547.035 176.585 547.814 177.442L556.922 187.639C558.245 189.118 558.089 191.376 556.61 192.622L546.412 201.729C545.478 202.508 545.167 203.753 545.4 204.843C546.49 205.233 547.736 204.999 548.592 204.221L561.515 192.777C562.838 191.61 562.994 189.508 561.826 188.184L550.383 175.262C549.526 174.328 548.281 174.016 547.191 174.25Z" fill="#B32D11"/>
<path d="M540.184 191.687C541.56 191.687 542.676 190.572 542.676 189.196C542.676 187.821 541.56 186.705 540.184 186.705C538.809 186.705 537.693 187.821 537.693 189.196C537.693 190.572 538.809 191.687 540.184 191.687Z" fill="#FFF9EB"/>
<path d="M547.579 185.148C548.955 185.148 550.07 184.033 550.07 182.657C550.07 181.281 548.955 180.166 547.579 180.166C546.203 180.166 545.088 181.281 545.088 182.657C545.088 184.033 546.203 185.148 547.579 185.148Z" fill="#FFF9EB"/>
<path d="M546.723 199.005C548.099 199.005 549.215 197.89 549.215 196.514C549.215 195.138 548.099 194.023 546.723 194.023C545.348 194.023 544.232 195.138 544.232 196.514C544.232 197.89 545.348 199.005 546.723 199.005Z" fill="#FFF9EB"/>
<path d="M554.04 192.466C555.416 192.466 556.531 191.351 556.531 189.975C556.531 188.599 555.416 187.484 554.04 187.484C552.664 187.484 551.549 188.599 551.549 189.975C551.549 191.351 552.664 192.466 554.04 192.466Z" fill="#FFF9EB"/>
<path d="M58.3853 217C67.027 217 74.0324 209.995 74.0324 201.353C74.0324 192.711 67.027 185.706 58.3853 185.706C49.7437 185.706 42.7383 192.711 42.7383 201.353C42.7383 209.995 49.7437 217 58.3853 217Z" fill="#3DA8FB"/>
<path d="M58.3848 211.162C63.8019 211.162 68.1934 206.77 68.1934 201.353C68.1934 195.936 63.8019 191.544 58.3848 191.544C52.9676 191.544 48.5762 195.936 48.5762 201.353C48.5762 206.77 52.9676 211.162 58.3848 211.162Z" fill="#3799E6"/>
<path d="M58.3845 209.605C62.9418 209.605 66.6362 205.91 66.6362 201.353C66.6362 196.796 62.9418 193.101 58.3845 193.101C53.8272 193.101 50.1328 196.796 50.1328 201.353C50.1328 205.91 53.8272 209.605 58.3845 209.605Z" fill="#3DA8FB"/>
<g opacity="0.2">
<path opacity="0.2" d="M52.7793 212.952C52.8571 212.718 53.0907 212.641 53.3242 212.718C53.5578 212.796 53.6356 213.03 53.5578 213.263C53.4799 213.497 53.2464 213.575 53.0128 213.497C52.7793 213.419 52.7015 213.186 52.7793 212.952ZM51.5338 212.718C51.3781 212.641 51.3002 212.329 51.3781 212.174C51.4559 212.018 51.7673 211.94 51.923 212.018C52.0787 212.096 52.1565 212.407 52.0787 212.563C52.0008 212.796 51.7673 212.796 51.5338 212.718ZM54.1805 213.575C54.2584 213.341 54.4919 213.263 54.6476 213.341C54.8811 213.419 54.959 213.653 54.8811 213.808C54.8033 214.042 54.5698 214.12 54.4141 214.042C54.4141 214.042 54.4141 214.042 54.3362 214.042C54.2584 213.964 54.1027 213.73 54.1805 213.575ZM50.2104 211.784C50.0547 211.629 49.9768 211.395 50.1325 211.239C50.2882 211.084 50.5218 211.006 50.6775 211.162C50.8331 211.317 50.911 211.551 50.7553 211.706C50.6775 211.862 50.4439 211.862 50.2882 211.862C50.2882 211.862 50.2104 211.862 50.2104 211.784ZM55.6596 213.964C55.7375 213.73 55.8931 213.575 56.1267 213.653C56.3602 213.73 56.5159 213.886 56.4381 214.12C56.3602 214.353 56.2045 214.509 55.971 214.431H55.8931C55.7374 214.353 55.6596 214.198 55.6596 213.964ZM49.0427 210.772C48.887 210.617 48.887 210.383 49.0427 210.227C49.1984 210.072 49.4319 210.072 49.5876 210.227C49.7433 210.383 49.7433 210.617 49.5876 210.772C49.4319 210.928 49.2762 210.928 49.1205 210.85C49.0427 210.85 49.0427 210.772 49.0427 210.772ZM57.2165 214.198C57.2165 213.964 57.4501 213.808 57.6058 213.808C57.8393 213.808 57.995 214.042 57.995 214.198C57.995 214.431 57.7614 214.587 57.6058 214.587C57.5279 214.587 57.5279 214.587 57.4501 214.587C57.2944 214.509 57.2165 214.353 57.2165 214.198ZM47.9528 209.527C47.7972 209.371 47.875 209.138 48.0307 208.982C48.1864 208.826 48.4199 208.904 48.5756 209.06C48.7313 209.215 48.6535 209.449 48.4978 209.605C48.3421 209.682 48.1864 209.682 48.1085 209.682C48.0307 209.605 47.9528 209.605 47.9528 209.527ZM58.7734 214.275C58.7734 214.042 58.9291 213.886 59.1627 213.886C59.3962 213.886 59.5519 214.042 59.5519 214.275C59.5519 214.509 59.3962 214.665 59.1627 214.665C59.0848 214.665 59.007 214.665 59.007 214.665C58.9291 214.509 58.7734 214.431 58.7734 214.275ZM47.0187 208.203C46.9408 208.048 46.9408 207.814 47.1744 207.658C47.3301 207.581 47.5636 207.581 47.7193 207.814C47.7972 207.97 47.7972 208.203 47.5636 208.359C47.4858 208.437 47.3301 208.437 47.1744 208.359C47.0965 208.359 47.0965 208.281 47.0187 208.203ZM60.3304 214.12C60.2525 213.886 60.4082 213.73 60.6418 213.653C60.8753 213.653 61.031 213.73 61.1088 213.964C61.1867 214.198 61.031 214.353 60.7974 214.431C60.7196 214.431 60.6417 214.431 60.5639 214.431C60.4861 214.353 60.3304 214.275 60.3304 214.12ZM46.3181 206.802C46.2402 206.569 46.3181 206.335 46.5516 206.257C46.7852 206.179 47.0187 206.257 47.0965 206.491C47.1744 206.724 47.0965 206.958 46.863 207.036C46.7852 207.114 46.6295 207.114 46.5516 207.036C46.3959 206.958 46.3181 206.88 46.3181 206.802ZM61.8873 213.808C61.8094 213.575 61.9651 213.341 62.1208 213.341C62.3544 213.263 62.5101 213.419 62.5879 213.575C62.6657 213.808 62.5101 213.964 62.3544 214.042C62.2765 214.042 62.1987 214.042 62.043 214.042C61.9651 213.964 61.8873 213.886 61.8873 213.808ZM45.6953 205.323C45.6175 205.09 45.7732 204.934 45.9289 204.856C46.1624 204.778 46.3181 204.934 46.3959 205.09C46.4738 205.323 46.3181 205.557 46.1624 205.557C46.0845 205.557 45.9288 205.557 45.851 205.557C45.851 205.479 45.7732 205.401 45.6953 205.323ZM63.3664 213.263C63.2885 213.108 63.3664 212.874 63.5999 212.718C63.8334 212.641 64.067 212.718 64.1448 212.952C64.2227 213.108 64.1448 213.341 63.9113 213.497C63.8334 213.575 63.6777 213.575 63.5999 213.497C63.4442 213.419 63.3664 213.341 63.3664 213.263ZM45.3061 203.766C45.2282 203.533 45.3839 203.377 45.6175 203.299C45.851 203.299 46.0067 203.377 46.0845 203.61C46.0845 203.844 46.0067 204 45.7732 204.078C45.6953 204.078 45.6175 204.078 45.5396 204.078C45.4618 204 45.3839 203.844 45.3061 203.766ZM64.7676 212.641C64.6897 212.485 64.6897 212.251 64.9233 212.096C65.079 212.018 65.3125 212.018 65.4682 212.251C65.546 212.407 65.5461 212.641 65.3125 212.796C65.2347 212.874 65.079 212.874 64.9233 212.796C64.8454 212.718 64.7676 212.641 64.7676 212.641ZM45.1504 202.131C45.1504 201.898 45.3061 201.742 45.5396 201.742C45.7732 201.742 45.9289 201.898 45.9289 202.131C45.9289 202.365 45.7732 202.521 45.5396 202.521C45.4618 202.521 45.3839 202.521 45.3839 202.521C45.2282 202.443 45.1504 202.287 45.1504 202.131ZM66.091 211.784C65.9353 211.629 66.0131 211.395 66.1688 211.239C66.3245 211.084 66.558 211.162 66.7137 211.317C66.8694 211.473 66.7916 211.706 66.6359 211.862C66.4802 211.94 66.3245 211.94 66.2467 211.94C66.1688 211.862 66.091 211.784 66.091 211.784ZM45.1504 200.575C45.1504 200.341 45.3839 200.185 45.5396 200.185C45.7732 200.185 45.9289 200.419 45.9289 200.575C45.9289 200.808 45.6953 200.964 45.5396 200.964C45.4618 200.964 45.4618 200.964 45.3839 200.964C45.2282 200.886 45.1504 200.73 45.1504 200.575ZM67.2587 210.772C67.103 210.617 67.103 210.383 67.2587 210.227C67.4144 210.072 67.6479 210.072 67.8036 210.227C67.9593 210.383 67.9593 210.617 67.8036 210.772C67.6479 210.928 67.4922 210.928 67.3365 210.85L67.2587 210.772ZM45.3061 198.94C45.3839 198.706 45.5396 198.551 45.7732 198.628C46.0067 198.628 46.0845 198.862 46.0845 199.095C46.0067 199.329 45.851 199.485 45.6175 199.407H45.5396C45.3839 199.329 45.3061 199.173 45.3061 198.94ZM68.3485 209.605C68.1928 209.449 68.115 209.215 68.2707 209.06C68.4264 208.904 68.6599 208.826 68.8156 208.982C68.9713 209.138 69.0491 209.371 68.8934 209.527C68.8156 209.682 68.582 209.682 68.4264 209.605C68.3485 209.682 68.3485 209.682 68.3485 209.605ZM45.6953 197.383C45.7732 197.149 46.0067 197.071 46.1624 197.149C46.3959 197.227 46.4738 197.461 46.3959 197.616C46.3181 197.85 46.0845 197.928 45.9289 197.85C45.9289 197.85 45.9288 197.85 45.851 197.85C45.7732 197.772 45.6175 197.616 45.6953 197.383ZM69.2827 208.359C69.127 208.281 69.0491 207.97 69.127 207.814C69.2048 207.658 69.5162 207.581 69.6719 207.658C69.8276 207.736 69.9054 208.048 69.8276 208.203C69.6719 208.437 69.4384 208.515 69.2827 208.359ZM46.3181 195.904C46.3959 195.67 46.6295 195.592 46.863 195.67C47.0965 195.748 47.1744 195.982 47.0965 196.215C47.0187 196.449 46.7852 196.526 46.5516 196.449C46.3181 196.293 46.1624 196.059 46.3181 195.904ZM69.8276 206.491C69.9054 206.257 70.139 206.179 70.3725 206.257C70.606 206.335 70.6839 206.569 70.606 206.802C70.5282 207.036 70.2947 207.114 70.0611 207.036C69.8276 206.958 69.7497 206.724 69.8276 206.491ZM47.1744 195.047C47.0187 194.97 46.9408 194.658 47.0187 194.503C47.0965 194.347 47.4079 194.269 47.5636 194.347C47.7193 194.425 47.7972 194.736 47.7193 194.892C47.5636 195.047 47.4079 195.125 47.1744 195.047ZM70.3725 205.012C70.4504 204.778 70.6839 204.7 70.8396 204.778C71.0731 204.856 71.151 205.09 71.0731 205.245C70.9953 205.479 70.7617 205.557 70.606 205.479C70.606 205.479 70.606 205.479 70.5282 205.479C70.3725 205.479 70.2947 205.245 70.3725 205.012ZM48.0307 193.724C47.875 193.568 47.7972 193.335 47.9528 193.179C48.1085 193.023 48.3421 192.946 48.4978 193.101C48.6535 193.257 48.7313 193.49 48.5756 193.646C48.4199 193.802 48.2642 193.802 48.0307 193.724ZM70.7617 203.61C70.7617 203.377 70.9953 203.221 71.2288 203.299C71.4623 203.377 71.618 203.533 71.5402 203.766C71.4624 204 71.3067 204.155 71.0731 204.078H70.9953C70.7617 203.922 70.6839 203.766 70.7617 203.61ZM48.9648 192.478C48.8092 192.323 48.8092 192.089 48.9648 191.934C49.1205 191.778 49.3541 191.778 49.5098 191.934C49.6655 192.089 49.6655 192.323 49.5098 192.478C49.3541 192.634 49.1984 192.634 49.0427 192.556C49.0427 192.556 49.0427 192.556 48.9648 192.478ZM70.9174 202.054C70.9174 201.82 71.151 201.664 71.3067 201.664C71.5402 201.664 71.6959 201.898 71.6959 202.054C71.6959 202.287 71.4623 202.443 71.3067 202.443C71.2288 202.443 71.2288 202.443 71.151 202.443C70.9953 202.365 70.9174 202.209 70.9174 202.054ZM50.1325 191.467C49.9768 191.311 50.0547 191.077 50.2104 190.922C50.3661 190.766 50.5996 190.844 50.7553 190.999C50.911 191.155 50.8331 191.389 50.6775 191.544C50.5218 191.622 50.3661 191.622 50.2882 191.622C50.2104 191.544 50.2104 191.467 50.1325 191.467ZM70.9174 200.575C70.9174 200.341 71.0731 200.185 71.3067 200.185C71.5402 200.185 71.6959 200.341 71.6959 200.575C71.6959 200.808 71.5402 200.964 71.3067 200.964C71.2288 200.964 71.151 200.964 71.151 200.964C70.9953 200.808 70.9174 200.73 70.9174 200.575ZM51.3781 190.532C51.3002 190.377 51.3002 190.143 51.5338 189.987C51.6895 189.91 52.0008 189.91 52.0787 190.143C52.1565 190.299 52.1565 190.532 51.923 190.688C51.8451 190.766 51.6895 190.766 51.5338 190.688C51.5338 190.61 51.4559 190.61 51.3781 190.532ZM70.6839 199.095C70.606 198.862 70.7617 198.706 70.9953 198.628C71.2288 198.551 71.3845 198.706 71.4623 198.94C71.4623 199.173 71.3845 199.329 71.151 199.407C71.0731 199.407 70.9953 199.407 70.9174 199.407C70.8396 199.329 70.7617 199.173 70.6839 199.095ZM52.7793 189.754C52.7015 189.52 52.7793 189.287 53.0128 189.209C53.1685 189.131 53.4799 189.209 53.5578 189.443C53.6356 189.676 53.5578 189.91 53.3242 189.987C53.2464 190.065 53.0907 190.065 53.0128 189.987C52.8571 189.91 52.7793 189.832 52.7793 189.754ZM70.3725 197.616C70.2947 197.383 70.4503 197.227 70.606 197.149C70.8396 197.071 70.9953 197.227 71.0731 197.383C71.151 197.616 70.9953 197.772 70.8396 197.85C70.7617 197.85 70.606 197.85 70.5282 197.85C70.4503 197.772 70.3725 197.694 70.3725 197.616ZM54.1805 189.131C54.1027 188.898 54.2584 188.742 54.4141 188.664C54.6476 188.586 54.8033 188.742 54.8811 188.898C54.959 189.131 54.8033 189.287 54.6476 189.365C54.5698 189.365 54.4919 189.365 54.3362 189.365C54.3362 189.365 54.2584 189.287 54.1805 189.131ZM69.8276 196.215C69.7497 195.982 69.8276 195.748 70.0611 195.67C70.2947 195.592 70.5282 195.67 70.606 195.904C70.6839 196.137 70.606 196.293 70.3725 196.449C70.2947 196.526 70.139 196.526 70.0611 196.449C69.9054 196.371 69.8276 196.293 69.8276 196.215ZM55.6596 188.742C55.5818 188.508 55.7375 188.353 55.971 188.275C56.2045 188.275 56.3602 188.353 56.4381 188.586C56.4381 188.82 56.3602 188.975 56.1267 189.053C56.0488 189.053 55.971 189.053 55.8931 189.053C55.8153 188.975 55.7375 188.82 55.6596 188.742ZM69.127 194.892C69.0491 194.736 69.0491 194.503 69.2827 194.347C69.4384 194.269 69.6719 194.269 69.8276 194.503C69.9054 194.658 69.9054 194.892 69.6719 195.047C69.594 195.125 69.4384 195.125 69.2827 195.047C69.2048 194.97 69.127 194.892 69.127 194.892ZM57.2165 188.508C57.2165 188.275 57.3722 188.119 57.6058 188.119C57.8393 188.119 57.995 188.275 57.995 188.508C57.995 188.742 57.8393 188.898 57.6058 188.898C57.5279 188.898 57.4501 188.898 57.4501 188.898C57.2944 188.742 57.2165 188.664 57.2165 188.508ZM68.2707 193.646C68.115 193.49 68.1928 193.257 68.3485 193.101C68.5042 192.946 68.7377 193.023 68.8934 193.179C69.0491 193.335 68.9713 193.568 68.8156 193.724C68.7377 193.802 68.5042 193.802 68.4264 193.802C68.3485 193.724 68.2707 193.646 68.2707 193.646ZM58.7734 188.431C58.7734 188.197 59.007 188.041 59.1627 188.041C59.3962 188.041 59.5519 188.275 59.5519 188.431C59.5519 188.664 59.3184 188.82 59.1627 188.82C59.0848 188.82 59.0848 188.82 59.007 188.82C58.8513 188.742 58.7734 188.586 58.7734 188.431ZM67.2587 192.478C67.103 192.323 67.103 192.089 67.2587 191.934C67.4144 191.778 67.6479 191.778 67.8036 191.934C67.9593 192.089 67.9593 192.323 67.8036 192.478C67.6479 192.556 67.4922 192.634 67.3365 192.556C67.3365 192.556 67.2587 192.556 67.2587 192.478ZM60.3304 188.586C60.4082 188.353 60.5639 188.275 60.7974 188.275C61.031 188.353 61.1867 188.508 61.1088 188.742C61.1088 188.975 60.8753 189.131 60.6418 189.053H60.5639C60.4082 188.898 60.3304 188.742 60.3304 188.586ZM66.091 191.467C65.9353 191.311 65.8574 191.077 66.0131 190.922C66.1688 190.766 66.4024 190.688 66.5581 190.844C66.7137 190.999 66.7916 191.233 66.6359 191.389C66.558 191.544 66.3245 191.544 66.1688 191.544C66.1688 191.544 66.1688 191.467 66.091 191.467ZM61.8873 188.898C61.9651 188.664 62.1987 188.586 62.3544 188.664C62.5879 188.742 62.6657 188.975 62.5879 189.131C62.5101 189.365 62.2765 189.443 62.1208 189.365C62.1208 189.365 62.1208 189.365 62.043 189.365C61.8873 189.287 61.8094 189.131 61.8873 188.898ZM64.8454 190.61C64.6897 190.532 64.6119 190.221 64.6897 190.065C64.7676 189.91 65.079 189.832 65.2347 189.91C65.3904 189.987 65.4682 190.299 65.3904 190.455C65.3125 190.688 65.079 190.766 64.8454 190.61C64.9233 190.61 64.9233 190.61 64.8454 190.61ZM63.3664 189.443C63.4442 189.209 63.6777 189.131 63.9113 189.209C64.1448 189.287 64.2227 189.52 64.1448 189.754C64.067 189.987 63.8334 190.065 63.5999 189.987C63.3664 189.832 63.2107 189.598 63.3664 189.443Z" fill="white"/>
</g>
<path d="M55.5047 207.736C54.4927 207.269 53.7142 206.646 53.0136 205.868L53.6364 205.401C54.2591 206.102 54.9598 206.724 55.8161 207.114L55.5047 207.736ZM57.8401 208.359L57.9179 207.581C58.8521 207.658 59.7862 207.503 60.6425 207.191L60.9539 207.892C59.9419 208.281 58.8521 208.437 57.8401 208.359ZM51.8459 203.844C51.4567 202.832 51.301 201.82 51.3788 200.73L52.1573 200.808C52.0795 201.742 52.2351 202.676 52.5465 203.533L51.8459 203.844ZM62.9 206.724L62.433 206.102C63.1336 205.479 63.7564 204.778 64.1456 203.844L64.8462 204.155C64.3791 205.245 63.7564 206.102 62.9 206.724ZM52.0016 198.473C52.4687 197.461 53.0914 196.682 53.8699 195.982L54.337 196.604C53.6364 197.227 53.0914 197.928 52.7022 198.784L52.0016 198.473ZM64.6905 201.898C64.7684 200.964 64.6127 200.03 64.3013 199.173L65.0019 198.862C65.3911 199.874 65.5468 200.886 65.469 201.976L64.6905 201.898ZM56.2053 195.515L55.8939 194.814C56.9059 194.425 57.9179 194.269 59.0077 194.347L58.9299 195.125C57.9957 195.047 57.0616 195.203 56.2053 195.515ZM63.2114 197.305C62.5887 196.604 61.8881 196.059 61.0317 195.67L61.3431 194.97C62.2773 195.437 63.1336 196.059 63.8342 196.838L63.2114 197.305Z" fill="white"/>
<path d="M66.2897 189.47L62.0332 187.547L61.0717 189.675L65.3282 191.598L66.2897 189.47Z" fill="white"/>
<path d="M55.8737 212.609L51.6172 210.686L50.6557 212.814L54.9122 214.737L55.8737 212.609Z" fill="white"/>
<path d="M70.1864 209L72.1094 204.744L69.9811 203.782L68.0582 208.039L70.1864 209Z" fill="white"/>
<path d="M47.0692 198.524L48.9922 194.267L46.864 193.306L44.941 197.562L47.0692 198.524Z" fill="white"/>
<path d="M72.3064 198.448L70.6562 194.079L68.4715 194.904L70.1217 199.273L72.3064 198.448Z" fill="white"/>
<path d="M48.5642 207.458L46.9141 203.088L44.7293 203.913L46.3795 208.283L48.5642 207.458Z" fill="white"/>
<path d="M61.2282 215.021L65.5977 213.371L64.7726 211.186L60.4031 212.836L61.2282 215.021Z" fill="white"/>
<path d="M52.2047 191.209L56.5742 189.559L55.7491 187.374L51.3796 189.025L52.2047 191.209Z" fill="white"/>
<path d="M395.225 29.1144C403.265 29.1144 409.782 22.5969 409.782 14.5572C409.782 6.51748 403.265 0 395.225 0C387.185 0 380.668 6.51748 380.668 14.5572C380.668 22.5969 387.185 29.1144 395.225 29.1144Z" fill="#FF4019"/>
<path d="M395.225 23.6652C400.255 23.6652 404.333 19.5874 404.333 14.5572C404.333 9.527 400.255 5.44922 395.225 5.44922C390.195 5.44922 386.117 9.527 386.117 14.5572C386.117 19.5874 390.195 23.6652 395.225 23.6652Z" fill="#B32D11"/>
<path d="M395.225 22.1861C399.438 22.1861 402.854 18.7705 402.854 14.5572C402.854 10.3439 399.438 6.92829 395.225 6.92829C391.011 6.92829 387.596 10.3439 387.596 14.5572C387.596 18.7705 391.011 22.1861 395.225 22.1861Z" fill="#FF4019"/>
<g opacity="0.2">
<path opacity="0.2" d="M390.009 25.3778C390.087 25.2221 390.321 25.1443 390.477 25.2221C390.632 25.3 390.71 25.5335 390.632 25.6892C390.554 25.8449 390.321 25.9227 390.165 25.8449C390.009 25.767 389.932 25.5335 390.009 25.3778ZM388.842 25.1443C388.686 25.0664 388.608 24.8329 388.686 24.6772C388.764 24.5215 388.997 24.4437 389.153 24.5215C389.309 24.5993 389.387 24.8329 389.309 24.9886C389.231 25.2221 389.075 25.2221 388.842 25.1443ZM391.333 25.9227C391.411 25.767 391.566 25.6113 391.8 25.6892C391.956 25.767 392.111 25.9227 392.033 26.1563C391.956 26.312 391.8 26.4677 391.566 26.3898C391.566 26.3898 391.566 26.3898 391.489 26.3898C391.333 26.312 391.255 26.0784 391.333 25.9227ZM387.596 24.288C387.441 24.1323 387.441 23.8987 387.518 23.743C387.674 23.5874 387.908 23.5873 388.063 23.6652C388.219 23.8209 388.219 24.0544 388.141 24.2101C387.985 24.3658 387.83 24.4437 387.596 24.288C387.674 24.3658 387.596 24.3658 387.596 24.288ZM392.734 26.312C392.734 26.0784 392.968 26.0006 393.123 26.0006C393.357 26.0006 393.435 26.2341 393.435 26.3898C393.435 26.6233 393.201 26.7012 393.045 26.7012H392.968C392.812 26.6233 392.656 26.4677 392.734 26.312ZM386.506 23.3538C386.351 23.1981 386.351 22.9646 386.506 22.8089C386.662 22.6532 386.896 22.6532 387.051 22.8089C387.207 22.9646 387.207 23.1981 387.051 23.3538C386.973 23.4317 386.74 23.5095 386.662 23.4317C386.584 23.3538 386.506 23.3538 386.506 23.3538ZM394.135 26.5455C394.135 26.312 394.291 26.1563 394.525 26.2341C394.758 26.2341 394.914 26.3898 394.836 26.6233C394.836 26.8569 394.68 27.0126 394.447 26.9347C394.369 26.9347 394.369 26.9347 394.291 26.9347C394.213 26.8569 394.135 26.7012 394.135 26.5455ZM385.494 22.1861C385.339 22.0304 385.417 21.7969 385.572 21.6412C385.728 21.4855 385.961 21.5634 386.117 21.719C386.273 21.8747 386.195 22.1083 386.039 22.264C385.961 22.3418 385.806 22.3418 385.65 22.3418C385.572 22.264 385.494 22.264 385.494 22.1861ZM395.614 26.6233C395.614 26.3898 395.77 26.2341 395.926 26.2341C396.159 26.2341 396.315 26.3898 396.315 26.5455C396.315 26.779 396.159 26.9347 396.004 26.9347C395.926 26.9347 395.848 26.9347 395.848 26.9347C395.692 26.8569 395.614 26.7012 395.614 26.6233ZM384.638 20.9406C384.56 20.7849 384.56 20.5514 384.794 20.4735C384.949 20.3957 385.183 20.3957 385.261 20.6292C385.339 20.7849 385.339 21.0184 385.105 21.0963C385.027 21.1741 384.872 21.1741 384.794 21.0963C384.716 21.0963 384.716 21.0184 384.638 20.9406ZM397.016 26.4677C397.016 26.2341 397.093 26.0784 397.327 26.0784C397.561 26.0784 397.716 26.1563 397.716 26.3898C397.716 26.6233 397.638 26.779 397.405 26.779C397.327 26.779 397.249 26.779 397.171 26.779C397.171 26.7012 397.093 26.5455 397.016 26.4677ZM383.937 19.6172C383.86 19.4615 383.937 19.228 384.093 19.1501C384.249 19.0723 384.482 19.1501 384.56 19.3058C384.638 19.4615 384.56 19.695 384.405 19.7729C384.327 19.8507 384.171 19.8507 384.093 19.7729C384.093 19.7729 384.015 19.695 383.937 19.6172ZM398.495 26.1563C398.417 25.9227 398.573 25.767 398.728 25.6892C398.884 25.6113 399.117 25.767 399.195 25.9227C399.273 26.0784 399.117 26.312 398.962 26.3898C398.884 26.3898 398.806 26.3898 398.728 26.3898C398.573 26.312 398.495 26.2341 398.495 26.1563ZM383.393 18.216C383.315 18.0603 383.47 17.8267 383.626 17.7489C383.782 17.6711 384.015 17.8267 384.093 17.9824C384.171 18.216 384.015 18.3717 383.86 18.4495C383.782 18.4495 383.704 18.4495 383.626 18.4495C383.548 18.4495 383.47 18.3717 383.393 18.216ZM399.818 25.6892C399.74 25.5335 399.818 25.3 399.974 25.2221C400.129 25.1443 400.363 25.2221 400.441 25.3778C400.519 25.5335 400.441 25.767 400.285 25.8449C400.207 25.9227 400.052 25.8449 399.974 25.8449C399.974 25.8449 399.896 25.767 399.818 25.6892ZM383.081 16.8147C383.081 16.5812 383.159 16.4255 383.393 16.3477C383.626 16.3477 383.782 16.4255 383.782 16.6591C383.782 16.8926 383.704 17.0483 383.47 17.0483C383.393 17.0483 383.315 17.0483 383.237 17.0483C383.159 17.0483 383.081 16.8926 383.081 16.8147ZM401.141 25.0664C401.064 24.9107 401.064 24.6772 401.297 24.5993C401.453 24.5215 401.686 24.5215 401.764 24.755C401.842 24.9107 401.842 25.1443 401.609 25.2221C401.531 25.3 401.375 25.3 401.297 25.2221C401.219 25.1443 401.219 25.1443 401.141 25.0664ZM382.848 15.3357C382.848 15.1021 383.003 14.9464 383.159 14.9464C383.393 14.9464 383.548 15.1021 383.548 15.2578C383.548 15.4914 383.393 15.6471 383.237 15.6471C383.159 15.6471 383.081 15.6471 383.081 15.6471C383.003 15.5692 382.926 15.4135 382.848 15.3357ZM402.387 24.288C402.231 24.1323 402.309 23.8987 402.465 23.743C402.621 23.5874 402.854 23.6652 403.01 23.8209C403.165 23.9766 403.088 24.2101 402.932 24.3658C402.854 24.4437 402.698 24.4437 402.543 24.4437C402.465 24.3658 402.387 24.288 402.387 24.288ZM382.848 13.7787C382.848 13.5452 383.003 13.3895 383.237 13.4674C383.47 13.4674 383.626 13.6231 383.548 13.8566C383.548 14.0901 383.393 14.2458 383.159 14.168C383.081 14.168 383.081 14.168 383.003 14.168C382.925 14.0901 382.848 13.9344 382.848 13.7787ZM403.477 23.3538C403.321 23.1981 403.321 22.9646 403.477 22.8089C403.633 22.6532 403.866 22.6532 404.022 22.8089C404.177 22.9646 404.177 23.1981 404.022 23.3538C403.944 23.4317 403.71 23.5095 403.633 23.4317C403.555 23.3538 403.555 23.3538 403.477 23.3538ZM383.081 12.2997C383.081 12.0661 383.315 11.9883 383.548 11.9883C383.782 11.9883 383.86 12.2218 383.86 12.3775C383.86 12.6111 383.626 12.6889 383.47 12.6889H383.393C383.159 12.6889 383.003 12.5332 383.081 12.2997ZM404.489 22.264C404.333 22.1083 404.333 21.8747 404.411 21.719C404.567 21.5634 404.8 21.5634 404.956 21.6412C405.112 21.7969 405.112 22.0304 405.034 22.1861C404.878 22.3418 404.722 22.4197 404.489 22.264C404.567 22.3418 404.489 22.264 404.489 22.264ZM383.393 10.8984C383.47 10.7428 383.626 10.5871 383.86 10.6649C384.015 10.7428 384.171 10.8984 384.093 11.132C384.015 11.2877 383.86 11.4434 383.626 11.3655C383.626 11.3655 383.626 11.3655 383.548 11.3655C383.47 11.2098 383.393 11.0541 383.393 10.8984ZM405.345 21.0963C405.189 21.0184 405.112 20.7849 405.189 20.6292C405.267 20.4735 405.501 20.3957 405.657 20.4735C405.812 20.5514 405.89 20.7849 405.812 20.9406C405.734 21.1741 405.579 21.1741 405.345 21.0963ZM383.937 9.49722C384.015 9.34152 384.249 9.26368 384.405 9.34153C384.56 9.41937 384.638 9.65291 384.56 9.8086C384.482 9.96429 384.249 10.0421 384.093 9.96429C383.937 9.88645 383.86 9.65291 383.937 9.49722ZM405.89 19.3837C405.89 19.3058 405.89 19.3058 405.89 19.3837C405.968 19.1501 406.201 19.0723 406.357 19.1501C406.513 19.228 406.591 19.4615 406.513 19.6172C406.435 19.7729 406.201 19.8507 406.046 19.7729C405.89 19.7729 405.812 19.5394 405.89 19.3837ZM384.794 8.64091C384.638 8.56307 384.56 8.32953 384.638 8.17384C384.716 8.01814 384.949 7.9403 385.105 8.01814C385.261 8.09599 385.339 8.32953 385.261 8.48522C385.183 8.71876 384.949 8.71876 384.794 8.64091ZM406.357 17.9824C406.435 17.8267 406.591 17.6711 406.824 17.7489C406.98 17.8267 407.136 17.9824 407.058 18.216C406.98 18.3717 406.824 18.5274 406.591 18.4495C406.591 18.4495 406.591 18.4495 406.513 18.4495C406.435 18.3717 406.357 18.216 406.357 17.9824ZM385.572 7.47322C385.417 7.31753 385.417 7.08399 385.494 6.9283C385.65 6.77261 385.884 6.77261 386.039 6.85045C386.195 7.00615 386.195 7.23968 386.117 7.39538C385.961 7.47322 385.806 7.55107 385.572 7.47322ZM406.746 16.6591C406.746 16.4255 406.98 16.3477 407.136 16.3477C407.369 16.3477 407.447 16.5812 407.447 16.7369C407.447 16.9704 407.213 17.0483 407.058 17.0483H406.98C406.824 16.9704 406.669 16.8147 406.746 16.6591ZM386.506 6.30553C386.351 6.14984 386.351 5.9163 386.506 5.76061C386.662 5.60492 386.896 5.60492 387.051 5.76061C387.207 5.9163 387.207 6.14984 387.051 6.30553C386.973 6.38338 386.74 6.46122 386.662 6.38338C386.584 6.38338 386.506 6.38338 386.506 6.30553ZM406.902 15.2578C406.902 15.0243 407.058 14.8686 407.291 14.9464C407.525 14.9464 407.681 15.1021 407.603 15.3357C407.603 15.5692 407.447 15.7249 407.213 15.6471C407.136 15.6471 407.136 15.6471 407.058 15.6471C406.98 15.5692 406.902 15.4135 406.902 15.2578ZM387.518 5.29353C387.363 5.13784 387.441 4.9043 387.596 4.74861C387.752 4.59292 387.985 4.67076 388.141 4.82646C388.297 4.98215 388.219 5.21569 388.063 5.37138C387.985 5.44922 387.83 5.44923 387.674 5.44923C387.596 5.37138 387.596 5.37138 387.518 5.29353ZM406.902 13.8566C406.902 13.6231 407.058 13.4674 407.213 13.4674C407.447 13.4674 407.603 13.6231 407.603 13.7787C407.603 14.0123 407.447 14.168 407.291 14.168C407.213 14.168 407.136 14.168 407.136 14.168C406.98 14.0901 406.902 14.0123 406.902 13.8566ZM388.686 4.43723C388.608 4.28153 388.608 4.048 388.842 3.97015C388.997 3.8923 389.231 3.8923 389.309 4.12584C389.387 4.28153 389.387 4.51507 389.153 4.59292C389.075 4.67076 388.92 4.67076 388.842 4.59292C388.842 4.59292 388.764 4.51507 388.686 4.43723ZM406.746 12.4554C406.746 12.2218 406.824 12.0661 407.058 12.0661C407.291 12.0661 407.447 12.144 407.447 12.3775C407.447 12.6111 407.369 12.7668 407.136 12.7668C407.058 12.7668 406.98 12.7668 406.902 12.7668C406.824 12.6889 406.746 12.5332 406.746 12.4554ZM390.009 3.73661C389.932 3.58092 390.009 3.34738 390.165 3.26954C390.321 3.19169 390.554 3.26953 390.632 3.42523C390.71 3.58092 390.632 3.81446 390.477 3.8923C390.399 3.97015 390.243 3.97015 390.165 3.8923C390.087 3.8923 390.009 3.81446 390.009 3.73661ZM406.357 11.0541C406.279 10.8984 406.435 10.6649 406.591 10.5871C406.824 10.5092 406.98 10.6649 407.058 10.8206C407.136 10.9763 406.98 11.2098 406.824 11.2877C406.746 11.2877 406.669 11.2877 406.591 11.2877C406.513 11.2877 406.435 11.2098 406.357 11.0541ZM391.333 3.19169C391.255 3.036 391.411 2.80246 391.566 2.72461C391.8 2.64677 391.956 2.80246 392.033 2.95815C392.111 3.11384 391.956 3.34738 391.8 3.42523C391.722 3.42523 391.644 3.42523 391.566 3.42523C391.411 3.34738 391.333 3.26954 391.333 3.19169ZM405.89 9.73076C405.812 9.57507 405.89 9.34153 406.046 9.26368C406.201 9.18583 406.435 9.26368 406.513 9.41937C406.591 9.57506 406.513 9.8086 406.357 9.88645C406.279 9.96429 406.124 9.96429 406.046 9.88645C405.968 9.88645 405.89 9.8086 405.89 9.73076ZM392.734 2.80246C392.734 2.56892 392.812 2.41323 393.045 2.41323C393.279 2.41323 393.435 2.49107 393.435 2.72461C393.435 2.95815 393.357 3.11384 393.123 3.11384C393.045 3.11384 392.968 3.11384 392.89 3.11384C392.812 3.036 392.734 2.95815 392.734 2.80246ZM405.189 8.48522C405.112 8.32953 405.112 8.09599 405.345 8.01814C405.501 7.9403 405.734 7.9403 405.812 8.17384C405.89 8.32953 405.89 8.56307 405.657 8.64091C405.579 8.71876 405.423 8.71876 405.345 8.64091C405.345 8.64091 405.267 8.56306 405.189 8.48522ZM394.135 2.56892C394.135 2.33538 394.291 2.17969 394.447 2.17969C394.68 2.17969 394.836 2.33538 394.836 2.49108C394.836 2.72461 394.68 2.88031 394.525 2.88031C394.447 2.88031 394.369 2.88031 394.369 2.88031C394.213 2.80246 394.135 2.72461 394.135 2.56892ZM404.411 7.31753C404.255 7.16184 404.333 6.9283 404.489 6.77261C404.645 6.61691 404.878 6.69476 405.034 6.85045C405.189 7.00615 405.112 7.23968 404.956 7.39538C404.878 7.47322 404.722 7.47322 404.567 7.47322C404.489 7.47322 404.489 7.39537 404.411 7.31753ZM395.614 2.56892C395.614 2.33538 395.77 2.17969 396.004 2.25754C396.237 2.25754 396.393 2.41323 396.315 2.64677C396.315 2.8803 396.159 3.036 395.926 2.95815C395.848 2.95815 395.848 2.95815 395.77 2.95815C395.692 2.80246 395.614 2.72461 395.614 2.56892ZM403.477 6.30553C403.321 6.14984 403.321 5.9163 403.477 5.76061C403.633 5.60492 403.866 5.60492 404.022 5.76061C404.177 5.9163 404.177 6.14984 404.022 6.30553C403.944 6.38338 403.71 6.46122 403.633 6.38338C403.555 6.38338 403.477 6.30553 403.477 6.30553ZM397.016 2.64677C397.016 2.41323 397.249 2.33538 397.405 2.33538C397.638 2.33538 397.716 2.56892 397.716 2.72461C397.716 2.95815 397.483 3.036 397.327 3.036H397.249C397.093 2.95815 397.016 2.80246 397.016 2.64677ZM402.387 5.37138C402.231 5.21569 402.231 4.98215 402.309 4.82646C402.465 4.67076 402.698 4.67076 402.854 4.74861C403.01 4.9043 403.01 5.13784 402.932 5.29353C402.854 5.44922 402.621 5.44922 402.387 5.37138C402.465 5.37138 402.465 5.37138 402.387 5.37138ZM398.495 2.95815C398.573 2.80246 398.728 2.64677 398.962 2.72461C399.117 2.80246 399.273 2.95815 399.195 3.19169C399.117 3.34738 398.962 3.50307 398.728 3.42523C398.728 3.42523 398.728 3.42523 398.65 3.42523C398.495 3.34738 398.417 3.11384 398.495 2.95815ZM401.297 4.59292C401.141 4.51507 401.064 4.28153 401.141 4.12584C401.219 3.97015 401.453 3.8923 401.609 3.97015C401.764 4.048 401.842 4.28153 401.764 4.43723C401.686 4.59292 401.453 4.67076 401.297 4.59292ZM399.818 3.42523C399.896 3.26953 400.129 3.19169 400.285 3.26954C400.441 3.34738 400.519 3.58092 400.441 3.73661C400.363 3.8923 400.129 3.97015 399.974 3.8923C399.818 3.81446 399.74 3.65876 399.818 3.42523Z" fill="white"/>
</g>
<path d="M392.578 20.5514C391.644 20.1621 390.866 19.5394 390.243 18.7609L390.788 18.2938C391.333 18.9944 392.034 19.4615 392.89 19.8507L392.578 20.5514ZM394.68 21.0963L394.758 20.3957C395.614 20.4735 396.549 20.3178 397.327 20.0064L397.561 20.707C396.626 21.0184 395.614 21.1741 394.68 21.0963ZM389.153 16.8926C388.842 15.9584 388.686 14.9464 388.764 14.0123L389.465 14.0901C389.387 14.9464 389.542 15.8806 389.854 16.6591L389.153 16.8926ZM399.429 19.6172L398.962 19.0723C399.662 18.5274 400.129 17.8267 400.519 16.9704L401.219 17.2818C400.83 18.1381 400.207 18.9166 399.429 19.6172ZM389.231 11.9104C389.62 10.9763 390.243 10.1978 391.022 9.57506L391.489 10.12C390.788 10.6649 390.321 11.3655 389.932 12.144L389.231 11.9104ZM401.064 15.0243C401.141 14.168 400.986 13.2338 400.674 12.4554L401.375 12.2218C401.686 13.156 401.842 14.168 401.764 15.1021L401.064 15.0243ZM393.201 9.10799L392.968 8.40737C393.902 8.09599 394.914 7.9403 395.848 8.01814L395.77 8.71876C394.914 8.64091 393.98 8.7966 393.201 9.10799ZM399.74 10.8206C399.195 10.12 398.495 9.65291 397.716 9.26368L398.028 8.56307C398.962 8.9523 399.74 9.57506 400.363 10.2757L399.74 10.8206Z" fill="white"/>
<path d="M402.641 3.48473L398.668 1.68998L397.771 3.67633L401.743 5.47108L402.641 3.48473Z" fill="white"/>
<path d="M392.885 25.129L388.912 23.3343L388.015 25.3206L391.987 27.1154L392.885 25.129Z" fill="white"/>
<path d="M406.184 21.6899L407.979 17.7172L405.992 16.8198L404.197 20.7925L406.184 21.6899Z" fill="white"/>
<path d="M384.643 11.9816L386.438 8.00886L384.451 7.11148L382.656 11.0842L384.643 11.9816Z" fill="white"/>
<path d="M408.23 11.8805L406.689 7.80235L404.65 8.57243L406.191 12.6506L408.23 11.8805Z" fill="white"/>
<path d="M386.026 20.2358L384.486 16.1576L382.447 16.9277L383.987 21.0058L386.026 20.2358Z" fill="white"/>
<path d="M397.871 27.2946L401.949 25.7545L401.179 23.7154L397.101 25.2555L397.871 27.2946Z" fill="white"/>
<path d="M389.525 5.07632L393.604 3.53616L392.833 1.49706L388.755 3.03722L389.525 5.07632Z" fill="white"/>
<path d="M25.7662 187.639C34.4078 187.639 41.4132 180.633 41.4132 171.991C41.4132 163.35 34.4078 156.344 25.7662 156.344C17.1246 156.344 10.1191 163.35 10.1191 171.991C10.1191 180.633 17.1246 187.639 25.7662 187.639Z" fill="#0A4586"/>
<path d="M25.7676 181.8C31.1847 181.8 35.5762 177.409 35.5762 171.991C35.5762 166.574 31.1847 162.183 25.7676 162.183C20.3504 162.183 15.959 166.574 15.959 171.991C15.959 177.409 20.3504 181.8 25.7676 181.8Z" fill="#328FD9"/>
<path d="M25.7673 180.243C30.3246 180.243 34.019 176.549 34.019 171.991C34.019 167.434 30.3246 163.74 25.7673 163.74C21.21 163.74 17.5156 167.434 17.5156 171.991C17.5156 176.549 21.21 180.243 25.7673 180.243Z" fill="#0A4586"/>
<g opacity="0.2">
<path opacity="0.2" d="M23.12 184.68C23.12 184.447 23.3535 184.291 23.5871 184.369C23.8206 184.369 23.9763 184.603 23.8984 184.836C23.8984 185.07 23.6649 185.225 23.4314 185.147C23.1978 185.07 23.0421 184.836 23.12 184.68ZM21.8744 184.758C21.6409 184.68 21.5631 184.447 21.6409 184.291C21.7188 184.058 21.9523 183.98 22.108 184.058C22.3415 184.135 22.4194 184.369 22.3415 184.525C22.2637 184.68 22.108 184.758 21.8744 184.758ZM24.5991 184.914C24.5991 184.68 24.8326 184.525 24.9883 184.525C25.2218 184.525 25.3775 184.758 25.3775 184.914C25.3775 185.147 25.144 185.303 24.9883 185.303C24.9883 185.303 24.9883 185.303 24.9104 185.303C24.7548 185.225 24.5991 185.07 24.5991 184.914ZM20.3175 184.135C20.084 184.058 20.0061 183.824 20.084 183.591C20.1618 183.357 20.3954 183.279 20.6289 183.357C20.8624 183.435 20.9403 183.668 20.8625 183.902C20.7846 184.058 20.6289 184.135 20.4732 184.135C20.3954 184.213 20.3954 184.213 20.3175 184.135ZM26.156 184.914C26.156 184.68 26.3117 184.525 26.5452 184.525C26.7787 184.525 26.9344 184.68 26.9344 184.914C26.9344 185.147 26.7787 185.303 26.5452 185.303H26.4674C26.3117 185.225 26.2338 185.07 26.156 184.914ZM18.9163 183.435C18.7606 183.357 18.6828 183.046 18.7606 182.89C18.8385 182.734 19.1498 182.656 19.3055 182.734C19.4612 182.812 19.5391 183.123 19.4612 183.279C19.3834 183.435 19.2277 183.513 19.072 183.435C18.9941 183.435 18.9941 183.435 18.9163 183.435ZM27.7129 184.758C27.6351 184.525 27.7907 184.369 28.0243 184.291C28.2578 184.291 28.4135 184.369 28.4914 184.603C28.5692 184.836 28.4135 184.992 28.18 185.07C28.1021 185.07 28.1021 185.07 28.0243 185.07C27.8686 185.07 27.7907 184.914 27.7129 184.758ZM17.5929 182.501C17.4372 182.345 17.3594 182.111 17.5151 181.956C17.6708 181.8 17.9043 181.722 18.06 181.878C18.2157 182.034 18.2935 182.267 18.1378 182.423C18.06 182.579 17.9043 182.579 17.7486 182.579C17.6708 182.579 17.6708 182.579 17.5929 182.501ZM29.2698 184.447C29.192 184.213 29.3477 184.058 29.5034 183.98C29.7369 183.902 29.8926 184.058 29.9704 184.213C30.0483 184.447 29.8926 184.603 29.7369 184.68C29.659 184.68 29.5812 184.68 29.5812 184.68C29.4255 184.68 29.2698 184.603 29.2698 184.447ZM16.4252 181.489C16.2695 181.333 16.2695 181.099 16.4252 180.944C16.5809 180.788 16.8145 180.788 16.9701 180.944C17.1258 181.099 17.1258 181.333 16.9701 181.489C16.8923 181.567 16.7366 181.644 16.6588 181.567C16.5031 181.567 16.4252 181.489 16.4252 181.489ZM30.7489 183.902C30.6711 183.668 30.7489 183.435 30.9046 183.357C31.1381 183.279 31.3717 183.357 31.4495 183.513C31.5274 183.746 31.4495 183.98 31.2938 184.058C31.216 184.058 31.1381 184.135 31.0603 184.058C30.9046 184.135 30.7489 184.058 30.7489 183.902ZM15.3354 180.243C15.1797 180.087 15.2575 179.854 15.4132 179.698C15.5689 179.543 15.8025 179.62 15.9581 179.776C16.1138 179.932 16.036 180.165 15.8803 180.321C15.8025 180.399 15.6468 180.399 15.5689 180.399C15.4911 180.399 15.4132 180.321 15.3354 180.243ZM32.1501 183.279C32.0723 183.123 32.0723 182.89 32.3058 182.734C32.4615 182.656 32.695 182.656 32.8507 182.89C32.9286 183.046 32.9286 183.279 32.695 183.435C32.6172 183.513 32.5394 183.513 32.3837 183.513C32.3058 183.435 32.228 183.357 32.1501 183.279ZM14.4012 178.92C14.3234 178.764 14.3234 178.531 14.5569 178.375C14.7126 178.297 14.9462 178.297 15.1018 178.531C15.1797 178.686 15.1797 178.92 14.9462 179.075C14.8683 179.153 14.7905 179.153 14.7126 179.153C14.5569 179.075 14.4791 178.998 14.4012 178.92ZM33.4735 182.423C33.3178 182.267 33.3957 182.034 33.5514 181.878C33.707 181.722 33.9406 181.8 34.0963 181.956C34.252 182.111 34.1741 182.345 34.0184 182.501C33.9406 182.579 33.7849 182.579 33.707 182.579C33.5514 182.501 33.4735 182.501 33.4735 182.423ZM13.6228 177.519C13.5449 177.285 13.6228 177.051 13.7785 176.974C14.012 176.896 14.2455 176.974 14.3234 177.207C14.4012 177.441 14.3234 177.596 14.1677 177.752C14.0898 177.752 14.012 177.83 13.9342 177.752C13.7785 177.752 13.7006 177.674 13.6228 177.519ZM34.6412 181.411C34.4855 181.255 34.4855 181.022 34.6412 180.866C34.7969 180.71 35.0304 180.71 35.1861 180.866C35.3418 181.022 35.3418 181.255 35.1861 181.411C35.1083 181.489 34.9526 181.567 34.8747 181.489C34.7969 181.489 34.719 181.411 34.6412 181.411ZM13.0778 176.039C13 175.806 13.1557 175.65 13.3114 175.572C13.5449 175.495 13.7006 175.65 13.7785 175.806C13.8563 176.039 13.7006 176.195 13.5449 176.273C13.4671 176.273 13.3892 176.273 13.3892 176.273C13.2335 176.273 13.1557 176.195 13.0778 176.039ZM35.731 180.243C35.5753 180.087 35.4975 179.854 35.6532 179.698C35.8089 179.543 36.0424 179.465 36.1981 179.62C36.3538 179.776 36.4317 180.01 36.276 180.165C36.1981 180.321 36.0424 180.321 35.8867 180.321C35.8089 180.321 35.731 180.321 35.731 180.243ZM12.6886 174.483C12.6108 174.249 12.7665 174.093 13 174.015C13.2335 174.015 13.3892 174.093 13.4671 174.327C13.4671 174.56 13.3892 174.716 13.1557 174.794C13.0778 174.794 13.0778 174.794 13 174.794C12.8443 174.716 12.6886 174.638 12.6886 174.483ZM36.5873 178.998C36.4317 178.92 36.3538 178.608 36.4317 178.453C36.5095 178.297 36.743 178.219 36.9766 178.297C37.1323 178.375 37.2101 178.686 37.1323 178.842C37.0544 178.998 36.8987 179.075 36.743 178.998C36.743 179.075 36.6652 178.998 36.5873 178.998ZM12.4551 172.848C12.4551 172.614 12.6108 172.459 12.8443 172.459C13.0778 172.459 13.2335 172.614 13.2335 172.848C13.2335 173.081 13.0778 173.237 12.8443 173.237H12.7665C12.6108 173.237 12.5329 173.081 12.4551 172.848ZM37.3658 177.674C37.1323 177.596 37.0544 177.363 37.1323 177.129C37.2101 176.896 37.4437 176.818 37.6772 176.896C37.9107 176.974 37.9886 177.207 37.9107 177.441C37.8329 177.596 37.6772 177.674 37.5215 177.674C37.4437 177.674 37.4437 177.674 37.3658 177.674ZM12.4551 171.291C12.4551 171.057 12.6886 170.902 12.8443 170.902C13.0778 170.902 13.2335 171.135 13.2335 171.291C13.2335 171.524 13 171.68 12.8443 171.68C12.8443 171.68 12.8443 171.68 12.7665 171.68C12.6108 171.602 12.4551 171.447 12.4551 171.291ZM37.9886 176.195C37.755 176.117 37.6772 175.884 37.755 175.728C37.8329 175.495 38.0664 175.417 38.2221 175.495C38.4557 175.572 38.5335 175.806 38.4557 175.962C38.3778 176.117 38.2221 176.273 37.9886 176.195ZM12.6886 169.656C12.6886 169.423 12.9222 169.267 13.1557 169.345C13.3892 169.345 13.5449 169.578 13.4671 169.812C13.4671 170.045 13.2335 170.201 13 170.123C12.7665 170.123 12.6108 169.89 12.6886 169.656ZM38.0664 174.249C38.0664 174.171 38.0664 174.171 38.0664 174.249C38.1443 174.015 38.3 173.86 38.5335 173.86C38.767 173.86 38.9227 174.093 38.8449 174.327C38.8449 174.56 38.6113 174.716 38.3778 174.638C38.1443 174.638 38.0664 174.483 38.0664 174.249ZM13.3114 168.566C13.0778 168.488 13 168.255 13.0778 168.099C13.1557 167.866 13.3892 167.788 13.5449 167.866C13.7785 167.943 13.8563 168.177 13.7785 168.333C13.7006 168.566 13.5449 168.644 13.3114 168.566C13.3114 168.644 13.3114 168.644 13.3114 168.566ZM38.2221 172.692C38.2221 172.459 38.4557 172.303 38.6113 172.303C38.8449 172.303 39.0006 172.536 39.0006 172.692C39.0006 172.926 38.767 173.081 38.6113 173.081C38.6113 173.081 38.6113 173.081 38.5335 173.081C38.3778 173.081 38.2221 172.926 38.2221 172.692ZM13.7785 167.165C13.5449 167.087 13.4671 166.854 13.5449 166.62C13.6228 166.387 13.8563 166.309 14.0898 166.387C14.3234 166.464 14.4012 166.698 14.3234 166.931C14.2455 167.087 14.0898 167.165 13.8563 167.165C13.8563 167.165 13.8563 167.165 13.7785 167.165ZM38.2221 171.213C38.2221 170.979 38.3778 170.824 38.6113 170.824C38.8449 170.824 39.0006 170.979 39.0006 171.213C39.0006 171.447 38.8449 171.602 38.6113 171.602H38.5335C38.3778 171.524 38.2221 171.369 38.2221 171.213ZM14.4791 165.686C14.3234 165.608 14.2455 165.297 14.3234 165.141C14.4012 164.985 14.7126 164.907 14.8683 164.985C15.024 165.063 15.1018 165.375 15.024 165.53C14.9462 165.686 14.7905 165.764 14.6348 165.686C14.5569 165.764 14.4791 165.764 14.4791 165.686ZM38.0664 169.656C37.9886 169.423 38.1443 169.267 38.3778 169.189C38.6113 169.111 38.767 169.267 38.8449 169.5C38.9227 169.734 38.767 169.89 38.5335 169.967C38.4557 169.967 38.4557 169.967 38.3778 169.967C38.2221 169.967 38.0664 169.812 38.0664 169.656ZM15.3354 164.44C15.1797 164.285 15.1018 164.051 15.2575 163.895C15.4132 163.74 15.6468 163.662 15.8025 163.818C15.9582 163.973 16.036 164.207 15.8803 164.363C15.8025 164.518 15.6468 164.518 15.4911 164.518C15.4132 164.44 15.3354 164.44 15.3354 164.44ZM37.6772 168.255C37.5993 168.021 37.755 167.788 37.9107 167.788C38.1443 167.71 38.3 167.866 38.3778 168.021C38.4557 168.255 38.3 168.411 38.1443 168.488C38.0664 168.488 37.9886 168.488 37.9886 168.488C37.8329 168.488 37.755 168.333 37.6772 168.255ZM16.2695 163.195C16.1138 163.039 16.1138 162.806 16.2695 162.65C16.4252 162.494 16.6588 162.494 16.8145 162.65C16.9701 162.806 16.9701 163.039 16.8145 163.195C16.7366 163.273 16.5809 163.351 16.5031 163.273C16.4252 163.273 16.3474 163.273 16.2695 163.195ZM37.1323 166.776C37.0544 166.542 37.1323 166.309 37.288 166.231C37.5215 166.153 37.755 166.231 37.8329 166.387C37.9107 166.62 37.8329 166.776 37.6772 166.931C37.5993 166.931 37.5215 167.009 37.4437 166.931C37.288 167.009 37.2101 166.931 37.1323 166.776ZM17.4372 162.105C17.2815 161.949 17.3594 161.716 17.5151 161.56C17.6708 161.404 17.9043 161.482 18.06 161.638C18.2157 161.794 18.1378 162.027 17.9821 162.183C17.9043 162.261 17.7486 162.261 17.6708 162.261C17.5929 162.261 17.5151 162.183 17.4372 162.105ZM36.4317 165.452C36.3538 165.297 36.3538 165.063 36.5873 164.907C36.743 164.83 36.9766 164.83 37.1323 165.063C37.2101 165.219 37.2101 165.452 36.9766 165.608C36.8987 165.686 36.8209 165.686 36.743 165.686C36.5873 165.608 36.5095 165.608 36.4317 165.452ZM18.6828 161.171C18.6049 161.015 18.6049 160.782 18.8385 160.626C18.9941 160.548 19.2277 160.548 19.3834 160.782C19.4612 160.937 19.4612 161.171 19.2277 161.327C19.1498 161.404 19.072 161.404 18.9941 161.404C18.8385 161.327 18.7606 161.327 18.6828 161.171ZM35.5753 164.207C35.4197 164.051 35.4975 163.818 35.6532 163.662C35.8089 163.506 36.0424 163.584 36.1981 163.74C36.3538 163.895 36.276 164.129 36.1203 164.285C36.0424 164.363 35.8867 164.363 35.8089 164.363C35.731 164.363 35.6532 164.285 35.5753 164.207ZM20.0061 160.47C19.9283 160.237 20.0061 160.003 20.1618 159.925C20.3175 159.847 20.5511 159.925 20.7068 160.081C20.7846 160.315 20.7068 160.548 20.5511 160.626C20.4732 160.626 20.3954 160.704 20.3175 160.626C20.2397 160.626 20.084 160.548 20.0061 160.47ZM34.5634 163.117C34.4077 162.961 34.4077 162.728 34.5634 162.572C34.719 162.416 34.9526 162.416 35.1083 162.572C35.264 162.728 35.264 162.961 35.1083 163.117C35.0304 163.195 34.8747 163.273 34.7969 163.195C34.719 163.195 34.6412 163.195 34.5634 163.117ZM21.4852 159.847C21.4074 159.614 21.5631 159.458 21.7188 159.38C21.9523 159.303 22.108 159.458 22.1858 159.614C22.2637 159.847 22.108 160.003 21.9523 160.081C21.8744 160.081 21.7966 160.081 21.7966 160.081C21.6409 160.081 21.4852 160.003 21.4852 159.847ZM33.3957 162.105C33.24 161.949 33.1621 161.716 33.3178 161.56C33.4735 161.404 33.707 161.327 33.8627 161.482C34.0184 161.638 34.0963 161.871 33.9406 162.027C33.8627 162.183 33.707 162.183 33.5514 162.183C33.5514 162.183 33.4735 162.183 33.3957 162.105ZM22.9643 159.38C22.8864 159.147 23.0421 158.991 23.2757 158.913C23.5092 158.835 23.6649 158.991 23.7428 159.225C23.8206 159.458 23.6649 159.614 23.4314 159.692C23.3535 159.692 23.3535 159.692 23.2757 159.692C23.12 159.692 23.0421 159.536 22.9643 159.38ZM32.1501 161.249C31.9944 161.171 31.9166 160.859 31.9944 160.704C32.0723 160.548 32.3837 160.47 32.5394 160.548C32.695 160.626 32.7729 160.937 32.695 161.093C32.6172 161.249 32.4615 161.327 32.3058 161.249C32.228 161.327 32.228 161.249 32.1501 161.249ZM24.5212 159.147C24.5212 158.913 24.6769 158.758 24.9104 158.758C25.144 158.758 25.2997 158.913 25.2997 159.147C25.2997 159.38 25.144 159.536 24.9104 159.536H24.8326C24.6769 159.458 24.5212 159.303 24.5212 159.147ZM30.8267 160.548C30.5932 160.47 30.5154 160.237 30.5932 160.003C30.6711 159.77 30.9046 159.692 31.1381 159.77C31.3717 159.847 31.4495 160.081 31.3717 160.315C31.2938 160.47 31.1381 160.548 30.9824 160.548C30.9046 160.626 30.8267 160.548 30.8267 160.548ZM26.0781 159.069C26.0781 158.835 26.3117 158.68 26.4674 158.68C26.7009 158.68 26.8566 158.913 26.8566 159.069C26.8566 159.303 26.6231 159.458 26.4674 159.458C26.4674 159.458 26.4674 159.458 26.3895 159.458C26.2338 159.458 26.0781 159.303 26.0781 159.069ZM29.4255 160.003C29.192 159.925 29.1141 159.692 29.192 159.536C29.2698 159.303 29.5034 159.225 29.6591 159.303C29.8926 159.38 29.9704 159.614 29.8926 159.77C29.8147 160.003 29.6591 160.081 29.4255 160.003C29.4255 160.081 29.4255 160.081 29.4255 160.003ZM27.6351 159.225C27.6351 158.991 27.8686 158.835 28.1021 158.913C28.3357 158.913 28.4914 159.147 28.4135 159.38C28.4135 159.614 28.18 159.77 27.9464 159.692C27.7129 159.614 27.5572 159.458 27.6351 159.225Z" fill="white"/>
</g>
<path d="M24.5207 178.92C23.4308 178.764 22.4967 178.297 21.6403 177.674L22.1074 177.051C22.8859 177.596 23.7422 177.986 24.6763 178.141L24.5207 178.92ZM26.856 178.998L26.7003 178.219C27.6345 178.063 28.4908 177.674 29.2693 177.207L29.7363 177.83C28.88 178.375 27.868 178.764 26.856 178.998ZM20.0056 176.039C19.3828 175.183 18.9936 174.171 18.8379 173.159L19.6164 173.003C19.772 173.938 20.1613 174.794 20.6283 175.572L20.0056 176.039ZM31.4489 176.117L30.8262 175.65C31.3711 174.872 31.7603 174.015 31.916 173.081L32.6945 173.159C32.4609 174.327 32.0717 175.261 31.4489 176.117ZM18.8379 170.746C18.9936 169.656 19.4607 168.722 20.0834 167.866L20.7062 168.333C20.1613 169.111 19.772 169.967 19.6164 170.902L18.8379 170.746ZM31.916 170.979C31.7603 170.045 31.3711 169.189 30.904 168.411L31.5268 167.943C32.1496 168.8 32.5388 169.812 32.6945 170.824L31.916 170.979ZM22.1853 166.854L21.7182 166.231C22.5745 165.608 23.5865 165.219 24.5985 165.063L24.7542 165.842C23.82 165.997 22.9637 166.309 22.1853 166.854ZM29.425 166.931C28.6465 166.387 27.7902 165.997 26.856 165.842L27.0117 165.063C28.0237 165.219 29.0357 165.686 29.892 166.309L29.425 166.931Z" fill="white"/>
<path d="M30.5281 158.568L25.9316 157.738L25.5166 160.036L30.1131 160.866L30.5281 158.568Z" fill="white"/>
<path d="M26.0203 183.557L21.4238 182.727L21.0088 185.026L25.6053 185.856L26.0203 183.557Z" fill="white"/>
<path d="M39.0157 176.58L39.8457 171.984L37.5475 171.569L36.7175 176.165L39.0157 176.58Z" fill="white"/>
<path d="M14.004 172.015L14.834 167.418L12.5357 167.003L11.7057 171.6L14.004 172.015Z" fill="white"/>
<path d="M38.4836 165.808L35.8203 161.971L33.9018 163.303L36.5651 167.14L38.4836 165.808Z" fill="white"/>
<path d="M17.6262 180.312L14.9629 176.475L13.0444 177.807L15.7076 181.644L17.6262 180.312Z" fill="white"/>
<path d="M31.8095 184.53L35.6465 181.867L34.3149 179.949L30.4778 182.612L31.8095 184.53Z" fill="white"/>
<path d="M17.288 163.638L21.125 160.974L19.7934 159.056L15.9563 161.719L17.288 163.638Z" fill="white"/>
<path d="M592.785 61.203L536.58 75.6824C534.089 76.3051 531.52 74.8261 530.897 72.335L522.49 39.6397C521.867 37.1486 523.346 34.5797 525.837 33.9569L582.042 19.4775C584.533 18.8548 587.102 20.3338 587.725 22.8249L596.132 55.5202C596.833 58.0892 595.276 60.5802 592.785 61.203Z" fill="#0A4586"/>
<path d="M552.303 68.9876L536.267 73.1134C535.022 73.4248 533.776 72.6464 533.387 71.4008L525.135 39.4061C524.824 38.1606 525.602 36.915 526.848 36.5258L542.884 32.4L552.303 68.9876Z" fill="white"/>
<path d="M545.688 62.6042C545.455 62.6821 545.299 62.8378 545.299 62.9935C545.299 63.1492 545.455 63.227 545.688 63.227L543.664 65.6402L541.64 64.239C541.796 64.1612 541.951 64.0055 541.874 63.8498C541.796 63.6941 541.562 63.6162 541.329 63.6941C541.095 63.7719 540.939 63.9276 540.939 64.0833C540.939 64.239 541.173 64.3168 541.329 64.3168L540.395 66.4187L537.281 65.3288C537.436 65.251 537.514 65.0953 537.514 65.0175C537.436 64.8618 537.203 64.7839 536.969 64.8618C536.736 64.9396 536.58 65.0953 536.58 65.251C536.658 65.4067 536.891 65.4845 537.125 65.4067L538.293 68.7541L546.233 66.7301L545.844 63.1492C546.077 63.0713 546.233 62.9156 546.233 62.7599C546.233 62.6042 545.999 62.5264 545.688 62.6042Z" fill="#FF4019"/>
<path d="M541.251 63.7719C541.017 63.8498 540.862 64.0055 540.939 64.1611C540.939 64.3168 541.173 64.3947 541.329 64.3947L540.395 66.4965L537.281 65.4067C537.436 65.3288 537.514 65.1731 537.514 65.0953C537.436 64.9396 537.203 64.8618 536.969 64.9396C536.736 65.0175 536.58 65.1731 536.58 65.3288C536.658 65.4845 536.891 65.5624 537.125 65.4845L538.293 68.8319L543.041 67.5864L541.251 63.7719Z" fill="#CC3314"/>
<path d="M539.616 38.2384C539.071 36.3701 537.125 35.2803 534.945 35.436C534.712 35.2024 534.322 35.1246 533.933 35.2024C533.544 35.2803 533.233 35.5917 533.233 35.903C531.209 36.7593 530.119 38.7833 530.586 40.6516C531.131 42.52 533.077 43.6098 535.257 43.4541C535.49 43.7655 535.879 43.9212 536.346 43.7655C536.814 43.6876 537.047 43.2984 537.125 42.9092C538.993 41.975 540.083 40.0289 539.616 38.2384Z" fill="#FF4019"/>
<path d="M534.09 42.2687C535.081 41.9823 535.575 40.6786 535.193 39.3569C534.811 38.0352 533.698 37.1959 532.707 37.4824C531.716 37.7688 531.222 39.0725 531.604 40.3942C531.986 41.7159 533.099 42.5552 534.09 42.2687Z" fill="#CC3314"/>
<path d="M563.73 27.0895L545.484 31.7804L554.885 68.3464L573.131 63.6556L563.73 27.0895Z" fill="white"/>
<path d="M559.854 30.9209C559.621 30.9987 559.465 31.1544 559.465 31.3101C559.465 31.4658 559.621 31.5437 559.854 31.5437L557.83 33.9569L555.806 32.5557C555.962 32.4778 556.117 32.3221 556.04 32.1664C555.962 32.0107 555.728 31.9329 555.495 32.0107C555.261 32.0886 555.105 32.2443 555.105 32.4C555.105 32.5557 555.339 32.6335 555.495 32.6335L554.561 34.7354L551.447 33.6455C551.602 33.5677 551.68 33.412 551.68 33.3341C551.602 33.1784 551.369 33.1006 551.135 33.1784C550.902 33.2563 550.746 33.412 550.746 33.5677C550.746 33.7234 551.057 33.8012 551.291 33.7234L552.459 37.0707L560.399 35.0467L560.01 31.4658C560.243 31.388 560.399 31.2323 560.399 31.0766C560.321 30.9209 560.088 30.8431 559.854 30.9209Z" fill="#328FD9"/>
<path d="M555.417 32.0886C555.183 32.1664 555.028 32.3221 555.105 32.4778C555.105 32.6335 555.339 32.7114 555.495 32.7114L554.561 34.8132L551.447 33.7234C551.602 33.6455 551.68 33.4898 551.68 33.412C551.602 33.2563 551.369 33.1784 551.135 33.2563C550.902 33.3341 550.746 33.4898 550.746 33.6455C550.746 33.8012 551.057 33.879 551.291 33.8012L552.459 37.1486L557.207 35.903L555.417 32.0886Z" fill="#0A4586"/>
<path d="M561.646 56.2987L563.981 59.0233L568.963 57.6999L565.46 60.7359L567.873 63.4605L563.358 62.5264L559.855 65.5624L560.556 61.9815L555.963 61.1252L560.945 59.8018L561.646 56.2987Z" fill="#FF4019"/>
<path d="M564.292 61.5144L560.789 64.4725L561.49 60.8916L558.765 60.4245L555.963 61.1252L560.556 61.9815L559.855 65.5624L563.358 62.5264L567.873 63.4605L566.55 61.9036L564.292 61.5144Z" fill="#CC3314"/>
<path d="M536.813 46.4123L539.616 50.7716L544.598 49.4483L541.328 53.4184L544.131 57.6999L539.304 55.8316L536.113 59.8018L536.346 54.7418L531.598 52.8735L536.58 51.5501L536.813 46.4123Z" fill="#328FD9"/>
<path d="M540.239 54.3526L536.969 58.3227L537.28 53.2627L534.4 52.095L531.598 52.8735L536.346 54.7418L536.113 59.8018L539.304 55.8316L544.131 57.6999L542.574 55.2867L540.239 54.3526Z" fill="#0A4586"/>
<path d="M563.826 45.9452C563.047 43.1427 560.868 41.2744 558.688 41.2744C558.454 40.8852 557.987 40.7295 557.598 40.8073C557.209 40.8852 556.975 41.2744 556.898 41.7415C554.951 42.8313 554.017 45.556 554.796 48.3584C555.574 51.1609 557.676 53.0292 559.934 53.0292C560.167 53.4963 560.634 53.8076 561.101 53.6519C561.568 53.4963 561.802 53.107 561.802 52.5621C563.67 51.4723 564.604 48.7476 563.826 45.9452Z" fill="#328FD9"/>
<path d="M558.649 51.183C559.645 50.9145 560.018 49.0815 559.481 47.0888C558.944 45.0961 557.701 43.6984 556.704 43.9669C555.708 44.2354 555.336 46.0684 555.873 48.0611C556.41 50.0538 557.653 51.4515 558.649 51.183Z" fill="#0A4586"/>
<path d="M591.85 58.8676L575.814 62.9935L566.395 26.4058L582.431 22.28C583.676 21.9686 584.922 22.7471 585.311 23.9926L593.563 55.9873C593.796 57.2329 593.096 58.5562 591.85 58.8676Z" fill="white"/>
<path d="M583.832 37.6935C583.599 37.7713 583.443 38.0049 583.521 38.2384C583.599 38.3941 583.754 38.5498 583.91 38.6277L582.12 41.975L579.862 39.7175C580.018 39.6397 580.173 39.4061 580.096 39.1726C580.018 38.939 579.784 38.7833 579.551 38.8612C579.317 38.939 579.161 39.1726 579.239 39.4061C579.317 39.6396 579.473 39.7953 579.706 39.7953L579.006 42.8313L575.658 40.8073C575.814 40.7295 575.892 40.496 575.814 40.3403C575.736 40.1067 575.503 39.951 575.269 40.0289C575.036 40.1067 574.88 40.3403 574.958 40.5738C575.036 40.8073 575.269 40.963 575.503 40.8852L577.137 46.023L585.078 43.999L584.221 38.7055C584.455 38.6277 584.611 38.3941 584.533 38.1606C584.377 37.7713 584.066 37.6157 583.832 37.6935Z" fill="#FF4019"/>
<path d="M579.396 38.8612C579.163 38.939 579.085 39.1726 579.085 39.4061C579.163 39.6396 579.319 39.7953 579.552 39.7953L578.851 42.8313L575.504 40.8073C575.66 40.7295 575.738 40.496 575.66 40.3403C575.582 40.1067 575.348 39.951 575.115 40.0289C574.881 40.1067 574.726 40.3403 574.803 40.5738C574.881 40.8073 575.115 40.963 575.348 40.8852L576.983 46.023L581.732 44.8553L579.396 38.8612Z" fill="#CC3314"/>
<path d="M575.736 24.6154L578.149 27.34L583.053 26.0166L579.628 29.0526L581.963 31.7772L577.448 30.843L573.945 33.879L574.646 30.2981L570.131 29.4418L575.035 28.1184L575.736 24.6154Z" fill="#328FD9"/>
<path d="M578.383 29.7532L574.957 32.7892L575.58 29.2083L572.933 28.6634L570.131 29.4418L574.646 30.2981L573.945 33.879L577.448 30.843L581.963 31.7772L580.64 30.2203L578.383 29.7532Z" fill="#0A4586"/>
<path d="M588.112 53.8076C587.567 51.9393 585.621 50.8495 583.441 51.0052C583.208 50.7716 582.819 50.6938 582.429 50.7716C582.04 50.8495 581.729 51.1609 581.729 51.4723C579.705 52.3286 578.615 54.3526 579.082 56.2209C579.627 58.0892 581.573 59.179 583.753 59.0233C583.986 59.3347 584.375 59.4904 584.843 59.3347C585.31 59.2569 585.543 58.8676 585.621 58.4784C587.489 57.5442 588.657 55.5981 588.112 53.8076Z" fill="#328FD9"/>
<path d="M582.66 57.8266C583.652 57.5402 584.146 56.2365 583.764 54.9148C583.382 53.5931 582.269 52.7538 581.277 53.0403C580.286 53.3267 579.792 54.6304 580.174 55.9521C580.556 57.2738 581.669 58.1131 582.66 57.8266Z" fill="#0A4586"/>
<path d="M594.263 48.047L589.748 30.5317C591.227 30.1424 592.628 30.9987 593.018 32.4778L596.209 44.7775C596.521 46.2566 595.664 47.6578 594.263 48.047Z" fill="#0A4586"/>
<path d="M596.054 38.939L594.731 39.2504L594.419 37.927L595.743 37.6157C596.132 37.5378 596.288 37.1486 596.21 36.7593L593.174 25.0046L594.497 24.6932L597.533 36.448C597.845 37.6157 597.144 38.7055 596.054 38.939Z" fill="#328FD9"/>
<path d="M594.109 27.34C595.14 27.34 595.977 26.5035 595.977 25.4717C595.977 24.4398 595.14 23.6034 594.109 23.6034C593.077 23.6034 592.24 24.4398 592.24 25.4717C592.24 26.5035 593.077 27.34 594.109 27.34Z" fill="#FF4019"/>
<path d="M65.8311 65.5889L48.1558 79.0108C46.4544 80.2396 44.0914 79.956 42.8626 78.2546L18.6654 46.5903C17.4366 44.8889 17.7202 42.5259 19.4216 41.2971L37.0969 27.8752C38.7983 26.6465 41.1613 26.93 42.39 28.6314L66.5873 60.2957C67.816 61.9026 67.5325 64.2656 65.8311 65.5889Z" fill="#0A4586"/>
<path d="M57.9861 63.4149L43.2409 80.0505C41.8231 81.6574 39.4601 81.7519 37.9477 80.3341L8.07928 54.0574C6.47244 52.6396 6.37792 50.2766 7.79572 48.7642L22.5409 32.1286C23.9587 30.5218 26.3217 30.4273 27.8341 31.8451L57.7025 58.1218C59.2148 59.4451 59.4039 61.9026 57.9861 63.4149Z" fill="#328FD9"/>
<path d="M39.2722 79.5779L8.83658 52.6396C8.08042 51.9779 7.9859 50.7492 8.64754 49.993L23.8653 32.7903C24.527 32.0341 25.7557 31.9396 26.5119 32.6013L56.9475 59.4451C57.7037 60.1067 57.7982 61.3355 57.1365 62.0916L41.9187 79.2943C41.1626 80.145 40.0283 80.2396 39.2722 79.5779Z" fill="white"/>
<path d="M30.4808 53.6793C31.8041 53.7738 33.6945 53.6793 35.0178 53.3958C35.2068 53.3958 35.3014 53.4903 35.3014 53.6793C35.2069 55.0026 35.3014 56.893 35.5849 58.2163C35.5849 58.4053 35.4904 58.4999 35.3014 58.4999C33.9781 58.4053 32.0877 58.4999 30.7644 58.7834C30.5753 58.7834 30.4808 58.6889 30.4808 58.4999C30.5753 57.1766 30.4808 55.2862 30.1973 53.9629C30.1973 53.7738 30.2918 53.6793 30.4808 53.6793Z" fill="#FF4019"/>
<path d="M35.3959 58.3108C34.3562 57.8382 32.9384 57.4601 31.9932 57.2711C31.8986 57.2711 31.7096 57.0821 31.7096 56.9875C31.426 56.0423 30.8589 54.8136 30.2918 53.7738C30.2918 53.6793 30.2918 53.6793 30.2918 53.6793C30.1973 53.7738 30.1973 53.8684 30.1973 53.9629C30.4808 55.2862 30.5753 57.082 30.4808 58.4999C30.4808 58.6889 30.5753 58.7834 30.7644 58.7834C32.0877 58.4999 33.8836 58.4053 35.3014 58.4999C35.3959 58.4999 35.4904 58.4053 35.5849 58.4053C35.4904 58.3108 35.4904 58.4053 35.3959 58.3108Z" fill="#B32D11"/>
<path d="M51.5595 59.8231C52.1266 59.8231 52.8827 59.8231 53.4499 59.7286C53.5444 59.7286 53.5444 59.7286 53.5444 59.8231C53.5444 60.3903 53.5444 61.1464 53.6389 61.7136C53.6389 61.8081 53.6389 61.8081 53.5444 61.8081C52.9773 61.8081 52.2211 61.8081 51.654 61.9026C51.5595 61.9026 51.5595 61.9026 51.5595 61.8081C51.5595 61.241 51.5595 60.4848 51.4649 59.9177C51.3704 59.8231 51.4649 59.8231 51.5595 59.8231Z" fill="#FF4019"/>
<path d="M53.639 61.8081C53.1664 61.619 52.5993 61.43 52.2212 61.3355C52.1267 61.3355 52.1267 61.241 52.1267 61.241C52.0322 60.8629 51.7486 60.2958 51.5596 59.8231C51.5596 59.8231 51.5596 59.8231 51.5596 59.7286C51.5596 59.7286 51.4651 59.8231 51.5596 59.8231C51.6541 60.3903 51.7486 61.1464 51.6541 61.7136C51.6541 61.8081 51.7486 61.8081 51.7486 61.8081C52.2212 61.8081 52.9774 61.8081 53.639 61.8081C53.7336 61.8081 53.639 61.8081 53.639 61.8081Z" fill="#B32D11"/>
<path d="M51.3706 58.4053L50.9925 58.7834L49.1021 58.2163L49.1966 58.5944L50.3309 59.5396L50.0473 59.8231L47.1172 57.1766L47.4007 56.893L48.8186 58.1218C48.724 57.9327 48.6295 57.6492 48.6295 57.4601L48.1569 56.1368L48.4405 55.7588C48.724 56.6095 48.9131 57.2711 49.1021 57.6492L51.3706 58.4053Z" fill="#FF4019"/>
<path d="M15.8308 53.9629C16.398 53.9629 17.1541 53.9629 17.7213 53.8684C17.8158 53.8684 17.8158 53.8684 17.8158 53.9629C17.8158 54.53 17.8158 55.2862 17.9103 55.8533C17.9103 55.9478 17.9103 55.9478 17.8158 55.9478C17.2487 55.9478 16.4925 55.9478 15.9254 56.0423C15.8308 56.0423 15.8308 56.0423 15.8308 55.9478C15.8308 55.3807 15.8308 54.6245 15.7363 54.0574C15.7363 54.0574 15.7363 53.9629 15.8308 53.9629Z" fill="#FF4019"/>
<path d="M18.0062 55.9478C17.5336 55.7588 16.9665 55.5697 16.5884 55.4752C16.4939 55.4752 16.4939 55.3807 16.4939 55.3807C16.3994 55.0026 16.1158 54.4355 15.9268 53.9629C15.9268 53.9629 15.9268 53.9629 15.9268 53.8684C15.9268 53.8684 15.8323 53.9629 15.9268 53.9629C16.0213 54.53 16.1158 55.2862 16.0213 55.8533C16.0213 55.9478 16.1158 55.9478 16.1158 55.9478C16.5884 56.0423 17.3446 56.0423 18.0062 55.9478C17.9117 56.0423 18.0062 56.0423 18.0062 55.9478Z" fill="#B32D11"/>
<path d="M15.6421 52.6396L15.264 53.0177L13.3736 52.4505L13.4681 52.8286L14.6024 53.7738L14.3188 54.0574L11.3887 51.4108L11.6722 51.1273L13.09 52.356C12.9955 52.167 12.901 51.8834 12.901 51.6944L12.4284 50.3711L12.712 49.993C12.9955 50.8437 13.1846 51.5053 13.3736 51.8834L15.6421 52.6396Z" fill="#FF4019"/>
<path d="M52.5989 62.0916L41.2565 81.1848C40.2168 82.9806 37.8537 83.5478 36.0579 82.508L1.84145 62.1861C0.0455657 61.1464 -0.521557 58.7834 0.518168 56.9875L11.8606 37.8944C12.9003 36.0985 15.2634 35.5314 17.0592 36.5711L51.3702 56.893C53.0715 57.9327 53.7332 60.2957 52.5989 62.0916Z" fill="#328FD9"/>
<path d="M37.1929 81.4683L2.22037 60.6738C1.36968 60.1067 0.991603 58.9725 1.55873 58.1218L13.2793 38.367C13.8464 37.5163 14.9806 37.1382 15.8313 37.7054L50.7094 58.4053C51.56 58.9725 51.9381 60.1067 51.371 60.9574L39.745 80.8067C39.2724 81.6574 38.0436 81.9409 37.1929 81.4683Z" fill="white"/>
<path d="M23.771 57.6492C25.0943 57.4601 26.8902 57.082 28.119 56.5149C28.308 56.4204 28.4025 56.5149 28.4971 56.704C28.6861 58.0272 29.0642 59.8231 29.6313 61.0519C29.7258 61.2409 29.6313 61.3355 29.4423 61.43C28.119 61.619 26.3231 61.9971 25.0943 62.5642C24.9053 62.6587 24.8108 62.5642 24.7162 62.3752C24.5272 61.0519 24.1491 59.256 23.582 58.0273C23.4875 57.8382 23.582 57.6492 23.771 57.6492Z" fill="#FF4019"/>
<path d="M29.4411 61.3355C28.3069 61.1464 26.8891 60.9574 25.9439 60.9574C25.8493 60.9574 25.6603 60.8629 25.5658 60.7683C25.0932 59.9177 24.337 58.7834 23.5808 57.8382V57.7437C23.4863 57.8382 23.4863 57.9327 23.4863 58.0272C23.9589 59.256 24.4315 61.0519 24.6206 62.3752C24.6206 62.5642 24.8096 62.6587 24.9987 62.5642C26.2274 62.0916 28.0233 61.619 29.3466 61.43C29.4411 61.43 29.5356 61.3355 29.5356 61.2409C29.5356 61.3355 29.5356 61.3355 29.4411 61.3355Z" fill="#B32D11"/>
<path d="M45.6044 59.7286C46.1715 59.6341 46.9277 59.445 47.4948 59.256C47.5893 59.256 47.5893 59.256 47.6838 59.3505C47.7783 59.9177 47.9674 60.6738 48.1564 61.2409C48.1564 61.3355 48.1564 61.3355 48.0619 61.43C47.4948 61.5245 46.7386 61.7135 46.1715 61.9026C46.077 61.9026 46.077 61.9026 45.9825 61.8081C45.8879 61.2409 45.6989 60.4848 45.5099 59.9177C45.4153 59.8231 45.5099 59.7286 45.6044 59.7286Z" fill="#FF4019"/>
<path d="M48.0599 61.2409C47.5873 61.1464 47.0201 61.0519 46.5475 61.0519C46.453 61.0519 46.453 61.0519 46.3585 60.9574C46.1695 60.5793 45.7914 60.1067 45.5078 59.7286C45.5078 59.7286 45.5078 59.7286 45.5078 59.6341V59.7286C45.6969 60.2957 45.8859 61.0519 45.9804 61.619C45.9804 61.7135 46.0749 61.7135 46.1695 61.7135C46.6421 61.619 47.3982 61.43 48.0599 61.2409C48.0599 61.3355 48.0599 61.3355 48.0599 61.2409Z" fill="#B32D11"/>
<path d="M45.1307 58.4053L44.8472 58.7834L42.8622 58.5944L42.9568 58.9725L44.1855 59.7286L43.9965 60.1067L40.5938 58.0272L40.7828 57.6492L42.3896 58.5944C42.2951 58.4053 42.1061 58.2163 42.0116 57.9327L41.2554 56.704L41.539 56.3259C42.0116 57.1766 42.2951 57.7437 42.4842 58.0272L45.1307 58.4053Z" fill="#FF4019"/>
<path d="M9.40116 60.6738C9.96828 60.5793 10.7244 60.3903 11.2916 60.2012C11.3861 60.2012 11.3861 60.2012 11.4806 60.2957C11.5751 60.8629 11.7642 61.619 11.9532 62.1861C11.9532 62.2807 11.9532 62.2807 11.8587 62.3752C11.2916 62.4697 10.5354 62.6587 9.96828 62.8478C9.87376 62.8478 9.87376 62.8478 9.77924 62.7533C9.68472 62.1861 9.49568 61.43 9.30664 60.8629C9.30664 60.7683 9.40116 60.6738 9.40116 60.6738Z" fill="#FF4019"/>
<path d="M11.8587 62.2807C11.3861 62.1861 10.819 62.0916 10.3464 62.0916C10.2518 62.0916 10.2518 62.0916 10.1573 61.9971C9.96828 61.619 9.5902 61.1464 9.30664 60.7683C9.30664 60.7683 9.30664 60.7683 9.30664 60.6738V60.7683C9.49568 61.3355 9.68472 62.0916 9.77924 62.6587C9.77924 62.7533 9.87376 62.7533 9.96828 62.7533C10.5354 62.5642 11.2916 62.3752 11.8587 62.2807C11.8587 62.2807 11.9532 62.2807 11.8587 62.2807C11.9532 62.1861 11.9532 62.2807 11.8587 62.2807Z" fill="#B32D11"/>
<path d="M9.02526 59.3505L8.7417 59.7286L6.75677 59.5396L6.85129 59.9177L8.08006 60.6738L7.89102 61.0519L4.48828 58.9725L4.67732 58.5944L6.28417 59.5396C6.18965 59.3505 6.00061 59.1615 5.90609 58.8779L5.14992 57.6492L5.43349 57.2711C5.90609 58.1218 6.18965 58.6889 6.37869 58.9725L9.02526 59.3505Z" fill="#FF4019"/>
</svg>
