<svg width="80" height="80" viewBox="0 0 80 80" fill="none" xmlns="http://www.w3.org/2000/svg">
<g clip-path="url(#clip0_461_4529)">
<path d="M36.7769 29.8527C36.7769 28.408 36.7769 27.0874 36.7769 25.7667C36.7769 23.7699 36.7995 23.7429 38.804 23.4814C38.804 23.1704 38.804 22.8436 38.804 22.5168C38.804 15.6272 38.804 8.73765 38.804 1.84805C38.804 1.56634 38.7746 1.27786 38.8266 1.00742C38.9462 0.380887 39.3412 -0.00224382 39.9914 9.88825e-06C40.6415 0.0022636 41.032 0.389902 41.1471 1.01869C41.1968 1.29139 41.1697 1.57986 41.1697 1.86158C41.1697 8.75117 41.1697 15.6408 41.1697 22.5304C41.1697 22.8369 41.1697 23.1411 41.1697 23.4093C41.269 23.4792 41.3119 23.5355 41.3593 23.54C43.0636 23.6888 43.199 23.833 43.199 25.5301C43.199 26.9341 43.199 28.3359 43.199 29.8549C44.7792 29.8549 46.3141 29.8662 47.8514 29.8391C48.032 29.8369 48.2329 29.6363 48.3819 29.4853C53.3616 24.446 61.5331 24.1553 66.9304 28.834C69.874 31.3852 71.9259 34.599 73.7408 37.9863C77.9801 45.8968 80.1539 54.3302 79.9913 63.3135C79.9169 67.4063 79.4315 71.4562 77.497 75.168C75.1787 79.6214 70.9462 81.1178 66.3119 79.1616C63.1674 77.8342 60.7182 75.6008 58.5963 73.018C57.2442 71.3705 56.0297 69.6036 54.8627 67.8164C53.3683 65.5312 51.3141 64.3412 48.5963 64.3345C42.8514 64.3187 37.1065 64.3187 31.3616 64.3345C28.6437 64.3435 26.5534 65.5086 25.1178 67.8367C22.7972 71.5982 20.1178 75.0509 16.4451 77.6156C14.5489 78.9408 12.4947 79.9008 10.1336 79.973C6.66855 80.0811 4.2532 78.4089 2.6234 75.4543C1.02747 72.5605 0.375097 69.3963 0.142591 66.16C-0.753571 53.76 2.58954 42.5298 9.7453 32.4174C11.7069 29.6476 14.1336 27.2632 17.4609 26.24C22.7092 24.6263 27.4496 25.7126 31.5444 29.429C31.7385 29.6048 31.9914 29.8301 32.2216 29.8346C33.7069 29.8707 35.1945 29.8527 36.7769 29.8527ZM77.6708 63.2392C77.725 54.2739 75.5241 46.12 71.3232 38.4799C69.6324 35.4103 67.7588 32.4737 64.9891 30.2381C60.4112 26.542 53.5241 27.1775 49.6776 31.5925C49.3886 31.9238 48.8243 32.1853 48.3841 32.1898C42.7792 32.2303 37.1742 32.2303 31.5692 32.1898C31.1336 32.1875 30.6437 31.872 30.278 31.579C29.6031 31.0359 29.0907 30.2471 28.357 29.8324C23.2013 26.9161 18.1155 27.0107 13.892 31.1981C11.1742 33.8936 9.27352 37.1344 7.59857 40.5217C3.40218 49.0115 1.51279 57.9362 2.65049 67.404C2.96652 70.0408 3.5918 72.6056 5.04327 74.8886C6.45862 77.1153 8.4383 77.9536 11.0478 77.4758C13.0207 77.1152 14.664 76.0988 16.181 74.8615C19.0297 72.5402 21.2081 69.6532 23.1403 66.5544C24.9936 63.5817 27.7182 62.0131 31.2126 61.9793C37.0704 61.9207 42.9304 61.9185 48.7882 61.9793C52.2103 62.0154 54.8853 63.5434 56.7679 66.4237C57.506 67.5528 58.2306 68.6954 59.0365 69.7749C61.0546 72.4749 63.3164 74.9427 66.3412 76.5518C70.5151 78.7695 73.9417 77.5592 75.8153 73.2344C77.2216 69.9755 77.5444 66.5093 77.6708 63.2392ZM40.7679 29.8414C40.7679 28.5433 40.7679 27.2587 40.7679 25.9808C40.2081 25.9808 39.7137 25.9808 39.2103 25.9808C39.2103 27.297 39.2103 28.5636 39.2103 29.8414C39.7498 29.8414 40.2239 29.8414 40.7679 29.8414Z" fill="#000066"/>
<path d="M22.7775 49.9373C22.7775 51.1498 22.7887 52.2158 22.7729 53.2818C22.7594 54.2442 22.3463 54.6476 21.3689 54.6588C20.1589 54.6724 18.949 54.6746 17.7368 54.6566C16.8226 54.6431 16.3847 54.2239 16.3621 53.3134C16.335 52.2226 16.3553 51.1318 16.3553 49.9351C15.2605 49.9351 14.2289 49.9396 13.1973 49.9328C12.0325 49.926 11.633 49.5294 11.624 48.3597C11.6149 47.2644 11.6149 46.1669 11.624 45.0716C11.6352 43.9154 12.0371 43.53 13.2222 43.5232C14.2312 43.5187 15.238 43.5232 16.3553 43.5232C16.3553 42.4302 16.3486 41.4003 16.3576 40.3726C16.3666 39.1984 16.7617 38.8062 17.931 38.7995C19.0845 38.7927 20.2402 38.7882 21.3937 38.8017C22.3553 38.813 22.7639 39.2277 22.7752 40.2013C22.7887 41.265 22.7775 42.331 22.7775 43.5232C23.8587 43.5232 24.8858 43.521 25.9152 43.5232C27.1454 43.5278 27.5043 43.8906 27.5088 45.1392C27.5134 46.2908 27.5224 47.4447 27.5043 48.5964C27.4908 49.5046 27.0664 49.9193 26.1454 49.9328C25.0551 49.9486 23.9648 49.9373 22.7775 49.9373ZM25.107 45.8874C23.9942 45.8874 22.9829 45.8919 21.9738 45.8851C20.8158 45.8784 20.4231 45.4795 20.414 44.2985C20.405 43.2708 20.4118 42.2431 20.4118 41.2019C19.8023 41.2019 19.3079 41.2019 18.721 41.2019C18.721 42.3017 18.7301 43.3632 18.7188 44.4225C18.7075 45.4862 18.3102 45.8761 17.2267 45.8829C16.168 45.8919 15.1093 45.8851 14.0303 45.8851C14.0303 46.4914 14.0303 46.985 14.0303 47.5732C15.1296 47.5732 16.1906 47.5664 17.2515 47.5754C18.317 47.5844 18.7097 47.9811 18.7188 49.0606C18.7278 50.1199 18.721 51.1769 18.721 52.2316C19.3463 52.2316 19.861 52.2316 20.4118 52.2316C20.4118 51.1273 20.4005 50.0883 20.414 49.0516C20.4298 47.9901 20.8452 47.5844 21.9106 47.5754C22.9693 47.5664 24.0303 47.5732 25.1048 47.5732C25.107 46.9714 25.107 46.4756 25.107 45.8874Z" fill="#CB0101"/>
<path d="M58.2231 44.4026C56.0967 44.3981 54.3495 42.6493 54.3653 40.5353C54.3789 38.4145 56.1283 36.6656 58.2389 36.6611C60.4015 36.6566 62.1486 38.419 62.1283 40.5894C62.108 42.7214 60.3811 44.4071 58.2231 44.4026ZM58.2705 39.0253C57.4602 39.0208 56.7604 39.6969 56.7355 40.506C56.7107 41.3511 57.415 42.052 58.2818 42.0385C59.1216 42.025 59.7671 41.3691 59.7649 40.5353C59.7604 39.7127 59.0854 39.0298 58.2705 39.0253Z" fill="#CB0101"/>
<path d="M60.5879 46.7122C60.5947 44.5734 62.3103 42.8606 64.4502 42.8516C66.5586 42.8426 68.3373 44.6027 68.3441 46.7032C68.3509 48.851 66.5653 50.6246 64.4141 50.6044C62.2809 50.5863 60.5811 48.8555 60.5879 46.7122ZM65.9739 46.6964C65.9559 45.8851 65.2583 45.209 64.4412 45.2135C63.5879 45.218 62.9152 45.9347 62.9513 46.8024C62.9852 47.625 63.6872 48.2763 64.5044 48.2425C65.3215 48.2087 65.992 47.5033 65.9739 46.6964Z" fill="#CB0101"/>
<path d="M58.3195 49.0589C60.4481 49.0769 62.1547 50.8235 62.1321 52.96C62.1073 55.0875 60.3466 56.8229 58.236 56.7981C56.1073 56.7733 54.3691 55.0312 54.3691 52.9195C54.3669 50.7649 56.1321 49.0408 58.3195 49.0589ZM58.2924 51.423C57.4617 51.405 56.7687 52.0428 56.7348 52.8609C56.6987 53.697 57.4211 54.443 58.2563 54.4362C59.0757 54.4295 59.7506 53.7578 59.7642 52.9352C59.7777 52.1059 59.1321 51.441 58.2924 51.423Z" fill="#CB0101"/>
<path d="M55.9213 46.742C55.9258 48.8695 54.1877 50.6139 52.068 50.6116C49.9371 50.6094 48.2035 48.8965 48.1741 46.7645C48.147 44.619 49.9236 42.8431 52.0838 42.8566C54.2148 42.8679 55.9168 44.5942 55.9213 46.742ZM52.0771 45.2162C51.2622 45.2027 50.5647 45.8698 50.5376 46.6856C50.5105 47.5285 51.2238 48.2587 52.0703 48.2475C52.8942 48.2362 53.5466 47.5691 53.5511 46.733C53.5534 45.8968 52.9055 45.2297 52.0771 45.2162Z" fill="#CB0101"/>
<path d="M73.7009 61.443C73.4684 59.4101 73.2494 57.3728 72.9943 55.3422C72.877 54.4001 73.1975 53.7691 73.9357 53.6541C74.6738 53.5392 75.2404 53.999 75.3217 54.9703C75.5655 57.9024 75.7506 60.839 75.9492 63.7756C75.965 63.9987 75.9447 64.2263 75.9131 64.4472C75.8115 65.1593 75.3939 65.6011 74.6738 65.5605C73.9582 65.5177 73.5767 65.0534 73.5745 64.3187C73.5722 63.3631 73.5745 62.4098 73.5745 61.4542C73.6174 61.4497 73.658 61.4475 73.7009 61.443Z" fill="#000066"/>
<path d="M40.0284 55.8047C41.5476 55.8047 43.0668 55.7957 44.5859 55.8092C45.4663 55.8159 45.9471 56.2351 45.9584 56.9473C45.9697 57.6572 45.4798 58.1508 44.6333 58.1576C41.5385 58.1778 38.446 58.1778 35.3512 58.1576C34.5024 58.153 34.0126 57.664 34.0216 56.9541C34.0306 56.2419 34.5137 55.8182 35.3873 55.8092C36.9336 55.7934 38.4798 55.8047 40.0284 55.8047Z" fill="#000066"/>
</g>
<defs>
<clipPath id="clip0_461_4529">
<rect width="80" height="80" fill="white"/>
</clipPath>
</defs>
</svg>
