<svg width="21" height="17" viewBox="0 0 21 17" fill="none" xmlns="http://www.w3.org/2000/svg">
<path fill-rule="evenodd" clip-rule="evenodd" d="M15.6846 0.206543C17.2531 0.206543 18.6473 1.07792 19.4315 2.38496C20.3901 4.12772 20.9129 6.04475 21 8.04889C21 12.8414 19.083 16.7626 16.6432 16.7626C15.3361 16.7626 14.2905 15.5427 13.5062 13.0157C13.332 12.6671 12.9834 12.4057 12.6349 12.4057H8.36514C7.92943 12.4057 7.58088 12.6671 7.49376 13.0157C6.70954 15.5427 5.66389 16.7626 4.35684 16.7626C1.91703 16.7626 0 12.8414 0 8.04889C0 6.04475 0.522826 4.12772 1.48132 2.38496C2.26558 1.07792 3.65974 0.206543 5.22822 0.206543H15.6846ZM15.0747 12.4929C15.6846 14.3227 16.2946 15.0198 16.556 15.0198C17.4274 15.0198 19.1701 12.3186 19.1702 8.04889C19.1702 6.3933 18.7345 4.7377 17.9503 3.25638C17.4275 2.47216 16.5561 1.94934 15.6847 1.94934H5.22826C4.35688 1.94934 3.48551 2.47216 2.96268 3.25638C2.17842 4.7377 1.74275 6.3933 1.74275 8.04889C1.74275 12.3186 3.48547 15.0198 4.35684 15.0198C4.61824 15.0198 5.22822 14.3227 5.83816 12.4929C6.18671 11.4472 7.23237 10.663 8.36514 10.663H12.5477C13.6805 10.663 14.7261 11.3601 15.0747 12.4929ZM7.00001 5.85957H7.875C8.4 5.85957 8.74998 6.20956 8.74998 6.7346C8.74998 7.2596 8.4 7.60958 7.875 7.60958H6.99997V8.48457C6.99997 9.00957 6.64998 9.35956 6.12498 9.35956C5.59998 9.35956 5.25 9.00957 5.25 8.48457V7.60954H4.37505C3.85005 7.60954 3.50007 7.25955 3.50007 6.73455C3.50007 6.20956 3.85005 5.85957 4.37505 5.85957H5.25004V4.98458C5.25004 4.45958 5.60003 4.1096 6.12503 4.1096C6.65003 4.1096 7.00001 4.45958 7.00001 4.98458V5.85957ZM16.1875 6.73456C16.9124 6.73456 17.5 6.14693 17.5 5.42206C17.5 4.69718 16.9124 4.10956 16.1875 4.10956C15.4626 4.10956 14.875 4.69718 14.875 5.42206C14.875 6.14693 15.4626 6.73456 16.1875 6.73456ZM14.875 8.04706C14.875 8.77193 14.2874 9.35956 13.5625 9.35956C12.8376 9.35956 12.25 8.77193 12.25 8.04706C12.25 7.32218 12.8376 6.73456 13.5625 6.73456C14.2874 6.73456 14.875 7.32218 14.875 8.04706Z" fill="#CC0000"/>
</svg>
