<svg width="423" height="421" viewBox="0 0 423 421" fill="none" xmlns="http://www.w3.org/2000/svg">
<g clip-path="url(#clip0)">
<path d="M258.016 422.397C305.703 362.229 259.204 361.672 240.129 373.191C221.054 384.71 289.943 314.149 248.763 296.592C215.179 282.277 184.179 367.957 174.642 360.633C165.104 353.308 161.406 315.609 133.981 326.076C106.544 336.543 85.0822 408.787 82.6948 426.591C139.226 435.19 238.929 446.474 258.016 422.397Z" fill="#F7EDFF"/>
<path d="M214.887 434.395C202.047 393.788 242.175 349.754 242.175 349.754C242.175 349.754 251.267 405.32 237.895 427.986C224.511 450.641 223.979 445.939 223.979 445.939L214.887 434.395Z" fill="white"/>
<path d="M132.999 439.036C111.417 402.32 140.703 350.439 140.703 350.439C140.703 350.439 161.97 402.572 153.996 427.652C146.007 452.723 144.439 448.258 144.439 448.258L132.999 439.036Z" fill="white"/>
<path d="M86.1079 367.117C89.7571 367.785 93.0846 369.777 96.1524 372.61C97.7111 374.021 99.1955 375.654 100.618 377.435C102.053 379.217 103.352 381.172 104.725 383.201C104.725 383.201 104.663 382.855 104.552 382.236C104.428 381.63 104.292 380.751 104.131 379.687C103.81 377.572 103.377 374.763 102.944 371.954C102.548 369.133 102.201 366.312 101.929 364.197C101.793 363.133 101.682 362.254 101.595 361.636C101.521 361.017 101.484 360.658 101.484 360.658C100.989 360.732 97.2905 359.718 93.8763 355.956C90.8704 352.702 88.7304 348.063 87.58 345.353C87.1223 344.277 87.3326 343.237 87.9634 343.411C90.7838 344.19 93.2578 345.997 95.4226 348.483C96.5112 349.733 97.5008 351.144 98.4533 352.69C99.4181 354.237 100.321 355.907 101.162 357.676C101.162 357.676 101.014 356.328 100.804 354.299C100.569 352.269 100.334 349.572 100.098 346.863C99.9748 345.514 99.8511 344.153 99.7398 342.891C99.6408 341.617 99.5542 340.441 99.48 339.414C99.3315 337.385 99.2326 336.024 99.2326 336.024C99.0718 336.197 98.8367 336.259 98.577 336.111C96.3009 334.812 94.433 332.956 92.9857 330.518C91.5136 328.081 90.5117 325.037 89.955 321.387C89.8313 320.534 90.3014 319.952 90.8457 320.286C95.1876 322.983 97.674 327.301 99.0223 333.03C99.0223 333.03 98.8739 330.407 98.713 327.784C98.5893 325.161 98.4656 322.538 98.4656 322.538C98.3296 322.451 98.2059 322.303 98.1069 322.08C95.5958 316.005 95.3113 309.608 97.6616 303.138C97.9337 302.383 98.577 302.395 98.8367 303.138C101.1 309.287 101.36 315.498 99.2821 322.018C99.2078 322.253 99.0965 322.414 98.9604 322.501C98.9604 322.501 99.0841 325.037 99.1955 327.574C99.3439 330.11 99.4924 332.646 99.4924 332.646C100.173 326.881 102.313 322.526 106.296 319.68C106.803 319.309 107.335 319.853 107.286 320.682C107.149 322.773 106.679 326.472 105.22 329.739C103.735 333.005 101.571 335.022 100.321 335.987C100.111 336.148 99.9006 336.148 99.7274 336.037C99.7274 336.037 99.8264 337.385 99.9748 339.414C100.049 340.429 100.136 341.617 100.235 342.879C100.346 344.141 100.47 345.489 100.593 346.85C100.828 349.547 101.063 352.257 101.298 354.274C101.521 356.291 101.657 357.639 101.657 357.639C101.966 355.672 102.362 353.779 102.857 352.01C103.364 350.24 104.007 348.57 104.737 347.061C106.222 344.042 108.164 341.629 110.749 340.082C111.318 339.748 111.739 340.639 111.541 341.765C111.306 343.176 110.935 345.118 110.378 347.209C109.809 349.3 109.054 351.539 108.102 353.544C105.9 358.097 102.498 360.782 101.966 360.621C101.966 360.621 102.003 360.98 102.078 361.623C102.164 362.254 102.276 363.17 102.412 364.259C102.709 366.436 103.043 369.344 103.463 372.239C103.908 375.134 104.341 378.029 104.675 380.195C104.824 381.283 105.009 382.174 105.121 382.805C105.232 383.436 105.294 383.795 105.294 383.795C105.455 382.978 105.69 381.989 106.011 380.912C106.345 379.823 106.754 378.636 107.224 377.435C108.151 375.023 109.327 372.523 110.65 370.519C113.545 366.226 116.773 364.333 118.579 363.541C119.297 363.232 119.693 364.283 119.322 365.521C118.01 369.764 116.687 373.13 115.202 375.864C113.73 378.586 112.221 380.628 110.885 382.112C108.176 385.094 105.925 385.886 105.628 385.663C106.061 388.026 106.42 390.241 106.853 392.295C107.286 394.349 107.694 396.254 108.077 398.024C108.782 401.587 109.599 404.556 110.23 407.105C111.442 412.203 112.518 415.42 113.112 417.523C114.336 421.717 114.151 421.334 113.965 421.396C113.78 421.457 113.842 421.89 112.568 417.634C111.961 415.506 110.873 412.227 109.661 407.056C109.017 404.47 108.226 401.451 107.508 397.838C107.125 396.032 106.716 394.101 106.271 392.023C105.863 389.932 105.479 387.692 105.047 385.292C104.811 385.552 103.426 385.416 101.521 384.735C99.6284 384.055 97.1544 382.818 94.9278 380.9C90.9323 377.497 87.5305 372.4 85.8605 369.406C85.2173 368.181 85.3286 366.968 86.1079 367.117Z" fill="url(#paint0_linear)"/>
<path d="M31.6078 322.328C31.6022 322.386 31.5961 322.448 31.5898 322.515C31.5392 323.041 31.4677 323.817 31.3846 324.814C31.2183 326.807 31.0052 329.681 30.8182 333.202C30.4442 340.245 30.1749 349.873 30.5931 360.217C31.0115 370.563 32.1171 381.61 34.4875 391.497C36.8606 401.395 40.4877 410.07 45.9079 415.729C67.7828 438.554 93.4404 435.218 96.2559 434.747L96.258 434.747C96.9377 434.636 98.6973 434.14 101.002 433.44C103.289 432.746 106.07 431.863 108.764 430.994C111.457 430.125 114.06 429.271 115.99 428.634C116.955 428.316 117.752 428.051 118.307 427.867C118.511 427.799 118.682 427.742 118.817 427.697C116.3 374.886 86.2964 340.249 58.8127 331.241L34.4916 323.273L31.6078 322.328Z" fill="white" stroke="#333333"/>
<path d="M107.361 433.904C107.497 433.904 107.633 433.88 107.769 433.818C108.301 433.595 108.561 432.976 108.326 432.444C108.029 431.727 77.6478 360.002 44.2609 335.208C43.7908 334.861 43.1352 334.96 42.7888 335.43C42.4425 335.901 42.5415 336.556 43.0115 336.903C75.9407 361.363 106.099 432.556 106.396 433.273C106.557 433.657 106.953 433.904 107.361 433.904Z" fill="#333333"/>
<path d="M83.2385 387.68C84.2281 387.68 84.8466 387.655 84.995 387.655L85.8238 387.618L85.9846 386.801C86.1454 386.01 89.6338 367.24 77.6348 343.707C77.375 343.188 76.7441 342.99 76.2246 343.25C75.705 343.509 75.5071 344.14 75.7669 344.66C86.0465 364.815 84.5744 381.692 84.0549 385.564C79.1563 385.601 54.4532 385.082 38.0752 371.645C37.6299 371.274 36.9619 371.348 36.5908 371.793C36.2197 372.239 36.2939 372.907 36.7393 373.278C53.0801 386.69 76.6081 387.68 83.2385 387.68Z" fill="#333333"/>
<path d="M75.1245 419.515C87.4327 419.515 100.83 416.93 101.609 416.781L102.017 416.707L102.264 416.373C102.512 416.026 108.412 407.514 107.93 384.427C107.918 383.845 107.435 383.387 106.854 383.4C106.272 383.412 105.815 383.895 105.827 384.476C106.248 404.384 101.794 413.069 100.768 414.814C97.2917 415.457 74.2586 419.478 62.6183 416.039C50.0132 412.302 42.8509 407.588 42.7767 407.539C42.2943 407.217 41.6386 407.353 41.317 407.836C40.9954 408.318 41.1315 408.974 41.6139 409.296C41.9108 409.494 49.0854 414.22 62.0246 418.056C65.6861 419.132 70.3249 419.515 75.1245 419.515Z" fill="#333333"/>
<path d="M41.0936 425.566C43.2213 423.623 45.8561 422.535 48.9115 422.176C50.4207 422.015 52.0288 422.04 53.6987 422.225C55.344 422.46 57.1005 422.782 58.82 423.339C58.82 423.339 58.0406 422.621 56.816 421.619C56.1975 421.124 55.5048 420.505 54.7255 419.899C53.9461 419.293 53.105 418.65 52.2762 418.006C50.5691 416.769 48.8497 415.544 47.5137 414.69C46.8581 414.257 46.3014 413.886 45.9056 413.651C45.5097 413.416 45.2871 413.267 45.2871 413.267C45.1881 413.441 44.5449 413.985 43.4687 414.542C42.4048 415.099 40.8957 415.717 39.102 416.064C37.5558 416.336 35.8982 416.497 34.4385 416.509C32.9417 416.583 31.6429 416.509 30.678 416.509C29.9234 416.484 29.4162 416.027 29.7255 415.631C32.5211 412.092 37.5929 411.102 43.3821 412.104C43.3821 412.104 42.5038 411.609 41.1926 410.867C39.8566 410.15 38.0753 409.222 36.2445 408.38C34.4138 407.526 32.5582 406.759 31.1357 406.24C30.4306 405.968 29.8368 405.745 29.4162 405.609C28.9957 405.473 28.7606 405.386 28.7606 405.386C28.8348 405.559 28.7977 405.745 28.6246 405.881C25.5073 408.43 21.6973 409.395 17.0461 409.321C16.5019 409.321 16.1926 408.887 16.4771 408.504C18.679 405.436 22.2911 404.198 26.633 404.706C26.633 404.706 26.1629 404.569 25.4702 404.359C24.7651 404.161 23.825 403.926 22.8848 403.679C21.9323 403.481 20.9798 403.246 20.2624 403.122C19.5449 402.998 19.0625 402.912 19.0625 402.912C18.9759 402.998 18.8522 403.072 18.679 403.109C16.2916 403.642 14.0526 403.901 11.8631 403.938C10.7621 403.951 9.68594 403.951 8.57264 403.889C7.4717 403.877 6.37075 403.79 5.22034 403.963C4.68842 404.05 4.31731 403.703 4.71316 403.184C5.55432 402.144 6.75422 401.452 7.94175 400.994C9.14165 400.561 10.4034 400.326 11.6404 400.301C14.1268 400.239 16.5885 400.907 18.8274 402.194C18.9883 402.293 19.0872 402.404 19.1367 402.516C19.1367 402.516 19.6068 402.602 20.2995 402.726C21.0046 402.837 21.92 403.072 22.8477 403.258C23.7631 403.493 24.6785 403.728 25.3712 403.901C26.0516 404.099 26.5093 404.235 26.5093 404.235C22.6622 402.231 19.8789 399.905 17.9863 396.428C17.7389 395.983 18.2584 395.649 18.9635 395.81C20.7077 396.23 23.7136 397.282 25.8413 399.249C27.9813 401.192 28.773 403.357 29.0575 404.557C29.107 404.755 29.0451 404.904 28.9091 405.003C28.9091 405.003 29.1441 405.089 29.5647 405.225C29.9853 405.361 30.579 405.584 31.2841 405.856C32.7067 406.388 34.5746 407.155 36.4054 408.009C38.2485 408.85 40.0298 409.791 41.3658 410.496C42.6894 411.238 43.5676 411.733 43.5676 411.733C39.4608 407.44 35.9848 403.184 35.4157 398.42C35.3539 397.901 36.2074 397.913 36.9744 398.494C38.966 399.88 42.1451 402.689 43.9264 405.757C45.955 409.271 45.819 412.649 45.4726 412.884C45.4726 412.884 45.7076 413.02 46.1159 413.28C46.5241 413.515 47.0931 413.898 47.7735 414.356C49.1465 415.235 50.9278 416.509 52.6844 417.796C56.1975 420.394 59.4261 423.339 59.4261 423.339C58.387 421.05 56.5439 416.62 55.7274 412.834C54.8244 408.85 55.2697 405.881 55.6779 404.396C55.8388 403.802 56.7789 404.149 57.385 405.101C61.5414 411.511 62.2217 416.41 62.0486 419.565C61.8383 422.745 60.7621 424.267 60.4775 424.279C61.8135 425.479 62.9763 426.667 64.1144 427.743C65.1906 428.869 66.2049 429.921 67.1327 430.898C68.0357 431.901 68.8645 432.841 69.6438 433.695C70.3984 434.561 71.0664 435.39 71.6972 436.144C72.9714 437.629 73.9115 438.928 74.7279 439.968C75.5443 441.007 76.1381 441.861 76.6082 442.516C78.5008 445.176 78.2657 444.941 78.142 445.028C78.0183 445.115 78.1668 445.412 76.2371 442.739C75.7546 442.071 75.1608 441.217 74.332 440.166C73.5033 439.114 72.5508 437.802 71.2766 436.293C68.7779 433.249 65.2895 429.179 59.9333 424.316C59.9085 424.588 58.9808 425.17 57.5335 425.714C56.0862 426.259 54.1193 426.766 51.9669 426.976C48.1817 427.261 44.1614 426.853 41.9843 426.58C41.1431 426.531 40.6483 425.974 41.0936 425.566Z" fill="url(#paint1_linear)"/>
<path d="M70.2257 299.191C73.0956 302.593 77.8333 303.311 77.8333 303.311C77.8333 303.311 77.9075 298.523 75.0377 295.12C72.1678 291.718 67.4301 291 67.4301 291C67.4301 291 67.3559 295.788 70.2257 299.191Z" fill="url(#paint2_linear)"/>
<path d="M3.5257 383.25C6.42031 386.677 10.5024 388.001 10.5024 388.001C10.5024 388.001 9.87156 383.757 6.97695 380.33C4.08235 376.903 0.000214577 375.579 0.000214577 375.579C0.000214577 375.579 0.631098 379.823 3.5257 383.25Z" fill="url(#paint3_linear)"/>
<path d="M70.5715 325.717C73.1321 329.107 76.8926 330.604 76.8926 330.604C76.8926 330.604 76.4967 326.583 73.9237 323.193C71.3631 319.79 67.6026 318.306 67.6026 318.306C67.6026 318.306 68.0109 322.314 70.5715 325.717Z" fill="url(#paint4_linear)"/>
<path d="M110.848 302.865C109.24 306.812 109.896 310.796 109.896 310.796C109.896 310.796 113.149 308.395 114.745 304.448C116.341 300.502 115.698 296.518 115.698 296.518C115.698 296.518 112.457 298.918 110.848 302.865Z" fill="url(#paint5_linear)"/>
<path d="M230.819 438.124C236.707 394.523 267.211 378.711 267.211 378.711C267.211 378.711 263.463 409.915 250.091 426.16C236.707 442.393 230.819 438.124 230.819 438.124Z" fill="white"/>
<path d="M149.36 439.114C145.366 395.298 171.57 373.075 171.57 373.075C171.57 373.075 174.883 404.328 165.475 423.149C156.052 441.96 149.36 439.114 149.36 439.114Z" fill="white"/>
<path d="M266.91 431.664C277.697 378.994 324.32 388.063 325.173 401.883C326.039 415.704 308.771 413.972 297.118 419.156C285.465 424.34 282.014 435.995 282.014 435.995L266.91 431.664Z" fill="#F7EDFF"/>
<path d="M270.361 441.167C270.831 441.167 271.276 440.907 271.511 440.462L277.56 428.807C281.556 421.098 293.073 402.911 313.681 400.572C314.386 400.486 314.906 399.855 314.819 399.137C314.733 398.432 314.102 397.912 313.384 397.999C291.539 400.486 279.441 419.54 275.26 427.619L269.211 439.274C268.877 439.905 269.124 440.684 269.767 441.018C269.953 441.117 270.163 441.167 270.361 441.167Z" fill="white"/>
<path d="M216.969 71.3667C196.948 74.6389 186.381 97.1188 192.041 113.676C198.845 133.636 208.529 141.49 226.228 140.999C243.927 140.508 254.068 141.49 282.236 153.368C320.284 169.434 322.246 133.342 340.96 127.452C359.64 121.562 375.408 141.555 394.089 135.338C426.935 124.376 400.305 85.7971 367.524 93.3558C344.983 98.5259 316.031 103.205 282.89 83.1793C257.602 67.9309 236.075 68.2254 216.969 71.3667Z" fill="#333333"/>
<path d="M227.11 266.88L227.11 266.88C226.519 266.763 225.469 266.405 224.055 265.835C222.652 265.271 220.922 264.511 218.987 263.608C215.118 261.803 210.442 259.434 205.942 256.929C201.439 254.421 197.126 251.785 193.975 249.446C192.398 248.275 191.129 247.191 190.275 246.246C189.848 245.774 189.537 245.35 189.342 244.979C189.145 244.605 189.085 244.323 189.103 244.118C189.47 240.1 191.026 236.595 193.089 233.318C194.614 230.897 196.396 228.626 198.171 226.364C198.809 225.552 199.445 224.741 200.069 223.924C204.758 217.782 208.637 211.41 205.466 202.705C202.408 194.267 198.577 183.147 195.703 172.926C194.266 167.816 193.071 162.938 192.33 158.738C191.588 154.524 191.313 151.043 191.684 148.701C192.419 144.054 195.599 140.964 199.495 138.827C203.395 136.688 207.938 135.546 211.259 134.777C213.106 134.35 214.452 133.036 215.39 131.223C216.324 129.417 216.877 127.076 217.136 124.483C217.635 119.478 217.052 113.411 215.857 108.122H231.071C231.064 108.201 231.055 108.287 231.046 108.381C230.997 108.901 230.93 109.651 230.861 110.572C230.724 112.413 230.578 114.939 230.545 117.674C230.512 120.408 230.592 123.361 230.908 126.054C231.223 128.735 231.778 131.211 232.724 132.958C233.723 134.81 235.59 135.727 237.731 136.301C239.135 136.676 240.735 136.922 242.363 137.171C243.197 137.299 244.038 137.428 244.865 137.576C247.346 138.021 249.762 138.647 251.772 139.92C253.762 141.181 255.379 143.093 256.237 146.172C257.101 149.275 257.109 153.642 256.55 158.681C255.992 163.706 254.878 169.346 253.537 174.966C251.247 184.562 248.307 194.064 246.374 200.31C246.042 201.381 245.741 202.356 245.477 203.22C244.52 206.35 245.342 209.244 247.058 212.059C248.727 214.797 251.282 217.526 253.971 220.398L254.149 220.588C259.7 226.518 265.812 233.143 266.821 242.164C266.846 242.389 266.789 242.703 266.597 243.123C266.406 243.537 266.101 244.017 265.682 244.555C264.843 245.631 263.589 246.887 262.021 248.251C258.89 250.977 254.567 254.086 249.978 256.979C245.39 259.872 240.552 262.54 236.397 264.388C234.318 265.313 232.421 266.027 230.818 266.464C229.197 266.905 227.94 267.044 227.11 266.88Z" fill="white" stroke="#333333"/>
<path d="M239.959 99.619L239.959 99.6191C240.152 107.343 237.136 113.267 233.55 117.219C231.755 119.196 229.822 120.674 228.086 121.634C226.33 122.603 224.84 123.007 223.915 122.93C221.277 122.701 217.383 120.42 214.077 116.266C210.791 112.136 208.143 106.219 207.949 98.8413C207.662 87.2529 215.803 80.9316 223.872 80.9316C231.898 80.9316 239.67 87.9642 239.959 99.619Z" fill="white" stroke="#333333"/>
<path d="M264.505 351.826C265.116 348.696 266.011 344.877 267.032 340.518C270.653 325.054 275.865 302.803 275.661 280.493C275.53 264.688 270.263 242.143 265.584 235.238M264.505 351.826L265.584 235.238M264.505 351.826C261.781 365.8 260.619 375.464 258.802 390.575C257.738 399.42 256.451 410.131 254.494 424.665C249.194 464.029 230.317 500.449 226.457 499.958C222.597 499.467 215.792 436.739 222.531 406.963L264.505 351.826ZM265.584 235.238L265.17 235.519C265.226 235.601 265.282 235.686 265.338 235.773L265.646 235.735L265.584 235.238ZM230.333 240.101C230.338 240.016 230.343 239.943 230.346 239.884L230.355 239.737L230.358 239.7L230.358 239.69L230.358 239.688C230.358 239.687 230.358 239.687 229.859 239.656L229.921 240.152L230.333 240.101ZM226.541 499.467C226.541 499.467 226.539 499.466 226.534 499.463C226.529 499.463 226.524 499.463 226.52 499.462C226.534 499.464 226.541 499.467 226.541 499.467Z" fill="white" stroke="#333333"/>
<path d="M204.995 363.527L204.996 363.527C212.535 366.152 217.561 367.585 220.72 368.092C222.309 368.347 223.367 368.358 224.021 368.204C224.342 368.129 224.529 368.022 224.637 367.918C224.737 367.822 224.796 367.703 224.814 367.534C224.854 367.152 224.675 366.552 224.198 365.703C223.735 364.878 223.04 363.903 222.178 362.803C221.144 361.483 219.899 360.019 218.562 358.445C217.66 357.384 216.716 356.272 215.765 355.123C213.458 352.33 208.325 347.622 201.935 342.04C197.831 338.455 193.226 334.525 188.546 330.53C185.952 328.316 183.335 326.083 180.767 323.877C173.572 317.697 166.766 311.739 161.971 307.077C159.577 304.749 157.667 302.728 156.462 301.157C155.862 300.375 155.415 299.677 155.176 299.089C154.952 298.539 154.833 297.886 155.252 297.408C155.539 297.079 156.017 296.794 156.586 296.53C157.17 296.26 157.911 295.987 158.782 295.706C160.525 295.144 162.836 294.537 165.552 293.856C166.63 293.586 167.773 293.304 168.971 293.009C173.822 291.812 179.586 290.39 185.647 288.619C193.205 286.41 201.208 283.662 208.449 280.142C215.694 276.621 222.147 272.34 226.632 267.08C228.858 264.464 229.914 262.101 230.119 259.975C230.324 257.858 229.689 255.918 228.417 254.128C225.849 250.514 220.723 247.572 214.923 245.258C209.146 242.953 202.795 241.308 197.881 240.238C195.426 239.703 193.332 239.313 191.854 239.057C191.114 238.929 190.529 238.834 190.129 238.771C189.929 238.74 189.775 238.717 189.672 238.701L189.611 238.692C172.661 242.876 153.06 248.399 136.224 255.933C119.332 263.492 105.338 273.026 99.5146 285.159L204.995 363.527ZM204.995 363.527C201.083 362.17 196.513 360.876 191.731 359.523C189.518 358.896 187.259 358.257 185 357.593C177.839 355.487 170.647 353.126 164.721 350.105M204.995 363.527L164.721 350.105M164.721 350.105C147.21 341.168 128.693 329.379 115.663 317.548M164.721 350.105L115.663 317.548M115.663 317.548C109.146 311.631 104.027 305.727 101.084 300.187M115.663 317.548L101.084 300.187M101.084 300.187C98.1415 294.647 97.4105 289.548 99.5145 285.159L101.084 300.187Z" fill="white" stroke="#333333"/>
<path d="M322.573 93.356C329.476 95.3193 343.249 96.9554 360.621 90.7383C369.748 87.4661 379.138 73.4611 366.837 80.5618C341.908 94.9921 313.282 90.7055 322.573 93.356Z" fill="#333333"/>
<path d="M401.286 137.629C416.793 131.674 421.635 117.276 422.616 122.544C423.598 127.78 421.308 135.993 410.806 138.284C400.305 140.607 397.033 139.265 401.286 137.629Z" fill="#333333"/>
<path d="M196.948 107.787C211.474 99.4103 218.344 84.4237 218.344 84.4237C218.344 84.4237 224.233 101.145 240.721 105.104C257.209 109.031 258.682 101.668 258.682 101.668C258.682 101.668 238.987 75.098 234.832 74.6071C230.645 74.1163 203.851 80.9879 203.851 80.9879L196.948 107.787Z" fill="#333333"/>
<mask id="path-26-inside-1" fill="white">
<path fill-rule="evenodd" clip-rule="evenodd" d="M217.607 32.4633C222.502 33.7396 224.226 28.3004 224.528 19.2085C224.605 16.8988 224.735 14.4271 224.861 12.0518C225.271 4.29791 225.627 -2.42983 223.874 0.851518C221.797 4.70875 215.39 24.7625 214.213 28.4685C200.373 33.6661 164.587 57.2319 160.537 66.9172C155.629 78.7298 163.481 122.021 177.254 141.229L177.54 141.626C183.581 150.037 196.159 167.549 201.987 182.556C207.908 197.837 210.852 136.32 210.852 136.32C200.384 133.866 194.004 131.412 191.06 125.489C188.115 119.599 176.796 85.6341 178.268 76.2757C179.018 71.5118 190.219 60.5075 200.779 50.1339C207.711 43.3238 214.367 36.7856 217.607 32.4633Z"/>
</mask>
<path fill-rule="evenodd" clip-rule="evenodd" d="M217.607 32.4633C222.502 33.7396 224.226 28.3004 224.528 19.2085C224.605 16.8988 224.735 14.4271 224.861 12.0518C225.271 4.29791 225.627 -2.42983 223.874 0.851518C221.797 4.70875 215.39 24.7625 214.213 28.4685C200.373 33.6661 164.587 57.2319 160.537 66.9172C155.629 78.7298 163.481 122.021 177.254 141.229L177.54 141.626C183.581 150.037 196.159 167.549 201.987 182.556C207.908 197.837 210.852 136.32 210.852 136.32C200.384 133.866 194.004 131.412 191.06 125.489C188.115 119.599 176.796 85.6341 178.268 76.2757C179.018 71.5118 190.219 60.5075 200.779 50.1339C207.711 43.3238 214.367 36.7856 217.607 32.4633Z" fill="white"/>
<path d="M217.607 32.4633L217.859 31.4956L217.209 31.3262L216.807 31.8635L217.607 32.4633ZM224.528 19.2085L223.528 19.1753V19.1753L224.528 19.2085ZM224.861 12.0518L223.862 11.999V11.999L224.861 12.0518ZM223.874 0.851518L224.754 1.32554L224.756 1.32273L223.874 0.851518ZM214.213 28.4685L214.565 29.4046L215.019 29.2339L215.166 28.7711L214.213 28.4685ZM160.537 66.9172L159.614 66.5314L159.613 66.5336L160.537 66.9172ZM177.254 141.229L176.441 141.811L176.442 141.812L177.254 141.229ZM177.54 141.626L176.727 142.21L176.727 142.21L177.54 141.626ZM201.987 182.556L202.919 182.195L202.919 182.194L201.987 182.556ZM210.852 136.32L211.851 136.368L211.891 135.537L211.081 135.347L210.852 136.32ZM191.06 125.489L191.955 125.044L191.954 125.042L191.06 125.489ZM178.268 76.2757L179.256 76.4311L178.268 76.2757ZM200.779 50.1339L200.078 49.4206L200.779 50.1339ZM217.355 33.4309C218.769 33.7998 220.069 33.7069 221.195 33.0844C222.299 32.4738 223.104 31.4264 223.698 30.1437C224.869 27.6095 225.376 23.799 225.527 19.2417L223.528 19.1753C223.378 23.7099 222.872 27.1649 221.882 29.3042C221.395 30.3582 220.832 30.9996 220.227 31.334C219.644 31.6565 218.892 31.7649 217.859 31.4956L217.355 33.4309ZM225.527 19.2417C225.604 16.9436 225.734 14.482 225.86 12.1046L223.862 11.999C223.737 14.3723 223.606 16.854 223.528 19.1753L225.527 19.2417ZM225.86 12.1046C226.063 8.25031 226.259 4.57464 226.178 2.27824C226.157 1.70043 226.119 1.18182 226.053 0.755305C225.994 0.380115 225.892 -0.0985238 225.64 -0.453097C225.497 -0.65396 225.228 -0.922044 224.8 -0.986592C224.378 -1.0503 224.043 -0.878859 223.846 -0.734696C223.489 -0.473933 223.214 -0.0362909 222.992 0.380305L224.756 1.32273C224.971 0.91899 225.069 0.849079 225.026 0.879984C224.986 0.909218 224.794 1.03515 224.501 0.990976C224.203 0.94596 224.05 0.762446 224.01 0.706803C223.965 0.64267 224.02 0.697076 224.076 1.06245C224.125 1.3765 224.16 1.80595 224.179 2.34865C224.256 4.53425 224.069 8.09939 223.862 11.999L225.86 12.1046ZM222.993 0.377494C222.434 1.41538 221.621 3.46085 220.715 5.92799C219.799 8.42053 218.764 11.4143 217.758 14.3973C215.747 20.3645 213.849 26.311 213.26 28.1658L215.166 28.7711C215.754 26.92 217.648 20.9866 219.654 15.0361C220.657 12.0603 221.686 9.08578 222.592 6.61758C223.508 4.12398 224.275 2.21627 224.754 1.32554L222.993 0.377494ZM213.861 27.5323C206.822 30.176 194.333 37.425 183.134 45.1881C177.523 49.0774 172.204 53.1179 168.025 56.8046C165.935 58.6476 164.118 60.4133 162.688 62.0365C161.269 63.647 160.183 65.1712 159.614 66.5314L161.459 67.303C161.903 66.2419 162.821 64.9111 164.189 63.3586C165.545 61.819 167.296 60.1139 169.348 58.3045C173.45 54.6862 178.701 50.6943 184.274 46.8318C195.44 39.0913 207.764 31.9586 214.565 29.4046L213.861 27.5323ZM159.613 66.5336C158.296 69.7033 157.881 74.8141 158.143 80.8541C158.407 86.9389 159.367 94.1128 160.911 101.504C163.993 116.256 169.435 132.04 176.441 141.811L178.067 140.646C171.3 131.209 165.93 115.744 162.869 101.095C161.342 93.7863 160.399 86.7221 160.141 80.7674C159.88 74.7678 160.323 70.0375 161.46 67.3009L159.613 66.5336ZM176.442 141.812L176.727 142.21L178.352 141.043L178.066 140.645L176.442 141.812ZM176.727 142.21C182.787 150.646 195.281 168.051 201.054 182.918L202.919 182.194C197.036 167.046 184.374 149.428 178.352 141.043L176.727 142.21ZM201.054 182.918C201.437 183.907 201.848 184.696 202.316 185.221C202.797 185.76 203.527 186.197 204.389 185.904C205.088 185.667 205.556 185.029 205.878 184.449C206.227 183.82 206.54 183.006 206.826 182.072C207.966 178.351 208.897 172.004 209.634 165.278C210.374 158.523 210.929 151.295 211.298 145.76C211.482 142.992 211.621 140.645 211.713 138.989C211.759 138.162 211.794 137.507 211.817 137.059C211.828 136.835 211.837 136.662 211.843 136.546C211.845 136.488 211.848 136.443 211.849 136.413C211.85 136.399 211.85 136.387 211.851 136.38C211.851 136.376 211.851 136.373 211.851 136.371C211.851 136.37 211.851 136.369 211.851 136.369C211.851 136.368 211.851 136.368 210.852 136.32C209.854 136.272 209.854 136.273 209.854 136.273C209.854 136.274 209.854 136.274 209.853 136.275C209.853 136.277 209.853 136.28 209.853 136.283C209.853 136.291 209.852 136.302 209.851 136.316C209.85 136.345 209.848 136.389 209.845 136.447C209.839 136.562 209.831 136.733 209.819 136.956C209.796 137.402 209.762 138.053 209.716 138.878C209.624 140.527 209.486 142.867 209.302 145.627C208.934 151.149 208.382 158.345 207.646 165.06C206.907 171.802 205.991 177.97 204.914 181.486C204.646 182.361 204.381 183.025 204.129 183.478C203.85 183.981 203.695 184.028 203.746 184.01C203.962 183.937 204.021 184.128 203.808 183.89C203.583 183.636 203.276 183.116 202.919 182.195L201.054 182.918ZM211.081 135.347C200.556 132.879 194.664 130.494 191.955 125.044L190.164 125.934C193.344 132.33 200.211 134.853 210.624 137.294L211.081 135.347ZM191.954 125.042C190.527 122.187 186.982 112.301 183.968 101.905C182.466 96.7215 181.106 91.4454 180.213 86.8928C179.311 82.2926 178.919 78.5756 179.256 76.4311L177.28 76.1203C176.882 78.6549 177.352 82.693 178.25 87.2775C179.158 91.9095 180.536 97.2475 182.047 102.462C185.062 112.86 188.649 122.902 190.165 125.936L191.954 125.042ZM179.256 76.4311C179.404 75.4887 180.119 74.0724 181.433 72.2182C182.72 70.4021 184.49 68.2896 186.585 65.9805C190.776 61.3629 196.194 56.0402 201.48 50.8473L200.078 49.4206C194.805 54.6013 189.342 59.9675 185.104 64.6364C182.986 66.9705 181.155 69.1508 179.801 71.0619C178.474 72.9351 177.507 74.6807 177.28 76.1203L179.256 76.4311ZM201.48 50.8473C208.382 44.0664 215.11 37.462 218.407 33.063L216.807 31.8635C213.624 36.1092 207.04 42.5812 200.078 49.4206L201.48 50.8473Z" fill="#333333" mask="url(#path-26-inside-1)"/>
<mask id="path-28-inside-2" fill="white">
<path fill-rule="evenodd" clip-rule="evenodd" d="M232.745 32.5986C228.358 33.2229 226.778 27.8752 226.49 19.2085C226.413 16.8989 226.283 14.4273 226.157 12.0521C225.747 4.29807 225.391 -2.42987 227.144 0.851518C229.152 4.58026 235.206 23.4445 236.67 28.0449C251.379 34.1881 285.023 56.5619 288.942 65.9352C293.882 77.7478 277.623 126.961 272.716 135.796C271.418 138.141 269.431 141.445 267.099 145.321C260.612 156.107 251.465 171.315 247.133 182.556C241.244 197.837 238.267 136.32 238.267 136.32C238.885 135.701 240.238 134.985 241.894 134.109C245.49 132.205 250.514 129.545 252.531 125.489C255.475 119.599 272.716 84.6521 271.211 75.2937C270.461 70.5298 259.26 59.5255 248.7 49.1519C242.341 42.9053 236.215 36.8874 232.745 32.5986Z"/>
</mask>
<path fill-rule="evenodd" clip-rule="evenodd" d="M232.745 32.5986C228.358 33.2229 226.778 27.8752 226.49 19.2085C226.413 16.8989 226.283 14.4273 226.157 12.0521C225.747 4.29807 225.391 -2.42987 227.144 0.851518C229.152 4.58026 235.206 23.4445 236.67 28.0449C251.379 34.1881 285.023 56.5619 288.942 65.9352C293.882 77.7478 277.623 126.961 272.716 135.796C271.418 138.141 269.431 141.445 267.099 145.321C260.612 156.107 251.465 171.315 247.133 182.556C241.244 197.837 238.267 136.32 238.267 136.32C238.885 135.701 240.238 134.985 241.894 134.109C245.49 132.205 250.514 129.545 252.531 125.489C255.475 119.599 272.716 84.6521 271.211 75.2937C270.461 70.5298 259.26 59.5255 248.7 49.1519C242.341 42.9053 236.215 36.8874 232.745 32.5986Z" fill="white"/>
<path d="M232.745 32.5986L233.522 31.9695L233.165 31.5287L232.604 31.6086L232.745 32.5986ZM226.49 19.2085L227.489 19.1753L226.49 19.2085ZM226.157 12.0521L225.158 12.1049L226.157 12.0521ZM227.144 0.851518L226.262 1.32273L226.264 1.32554L227.144 0.851518ZM236.67 28.0449L235.717 28.3482L235.858 28.7893L236.285 28.9677L236.67 28.0449ZM288.942 65.9352L289.865 65.5494L288.942 65.9352ZM272.716 135.796L271.842 135.311L271.841 135.312L272.716 135.796ZM267.099 145.321L267.956 145.837H267.956L267.099 145.321ZM247.133 182.556L246.199 182.196L247.133 182.556ZM238.267 136.32L237.56 135.613L237.247 135.926L237.268 136.368L238.267 136.32ZM241.894 134.109L241.426 133.225L241.894 134.109ZM252.531 125.489L251.636 125.042L251.635 125.044L252.531 125.489ZM271.211 75.2937L270.223 75.4491L270.224 75.4524L271.211 75.2937ZM248.7 49.1519L249.401 48.4386L248.7 49.1519ZM232.604 31.6086C231.733 31.7325 231.076 31.5583 230.538 31.1744C229.973 30.7715 229.451 30.0735 229.003 29.0019C228.098 26.8387 227.633 23.4917 227.489 19.1753L225.49 19.2417C225.635 23.5919 226.103 27.2522 227.158 29.7734C227.689 31.044 228.402 32.1075 229.376 32.8026C230.377 33.5167 231.563 33.7768 232.886 33.5886L232.604 31.6086ZM227.489 19.1753C227.412 16.8541 227.281 14.3725 227.156 11.9993L225.158 12.1049C225.284 14.4822 225.414 16.9436 225.49 19.2417L227.489 19.1753ZM227.156 11.9993C226.949 8.09961 226.762 4.53439 226.839 2.34873C226.858 1.80602 226.893 1.37655 226.942 1.06248C226.998 0.697102 227.053 0.642676 227.007 0.706797C226.968 0.762428 226.814 0.945945 226.516 0.990972C226.224 1.03516 226.032 0.909225 225.992 0.879986C225.949 0.849077 226.047 0.918981 226.262 1.32273L228.026 0.380307C227.804 -0.0362915 227.529 -0.473942 227.172 -0.734707C226.975 -0.878872 226.639 -1.05031 226.218 -0.986586C225.79 -0.922022 225.521 -0.65393 225.378 -0.453071C225.126 -0.0984951 225.024 0.380144 224.965 0.755347C224.899 1.18187 224.86 1.7005 224.84 2.27832C224.759 4.57477 224.955 8.25052 225.158 12.1049L227.156 11.9993ZM226.264 1.32554C226.727 2.18529 227.458 3.99616 228.336 6.37286C229.204 8.72528 230.191 11.5669 231.164 14.4418C233.108 20.1905 234.986 26.0499 235.717 28.3482L237.623 27.7416C236.89 25.4395 235.009 19.5666 233.058 13.8009C232.083 10.9186 231.089 8.05747 230.212 5.68037C229.343 3.32756 228.566 1.38212 228.025 0.377495L226.264 1.32554ZM236.285 28.9677C243.542 31.9989 255.562 39.0815 266.278 46.5975C271.628 50.3506 276.627 54.1935 280.524 57.6705C282.472 59.4092 284.133 61.0456 285.42 62.5245C286.718 64.0153 287.591 65.2952 288.02 66.321L289.865 65.5494C289.314 64.2319 288.278 62.7622 286.928 61.2113C285.568 59.6485 283.842 57.9512 281.855 56.1783C277.881 52.6319 272.815 48.7399 267.426 44.9601C256.662 37.4101 244.507 30.2342 237.056 27.1222L236.285 28.9677ZM288.02 66.321C288.563 67.6198 288.847 69.5276 288.865 71.9736C288.883 74.4007 288.64 77.274 288.191 80.4521C287.293 86.8073 285.582 94.2978 283.557 101.719C281.533 109.137 279.203 116.462 277.073 122.481C274.935 128.524 273.023 133.184 271.842 135.311L273.59 136.282C274.862 133.992 276.822 129.187 278.959 123.148C281.104 117.085 283.449 109.713 285.487 102.246C287.523 94.7826 289.257 87.2028 290.171 80.732C290.628 77.4971 290.884 74.5185 290.865 71.9587C290.846 69.4179 290.557 67.2038 289.865 65.5494L288.02 66.321ZM271.841 135.312C270.554 137.637 268.578 140.923 266.242 144.806L267.956 145.837C270.283 141.968 272.282 138.645 273.591 136.281L271.841 135.312ZM266.242 144.806C259.772 155.563 250.57 170.855 246.199 182.196L248.066 182.915C252.359 171.774 261.452 156.65 267.956 145.837L266.242 144.806ZM246.199 182.196C245.844 183.118 245.539 183.638 245.315 183.891C245.103 184.129 245.165 183.936 245.383 184.01C245.436 184.028 245.281 183.982 245.002 183.479C244.751 183.026 244.487 182.361 244.219 181.486C243.143 177.97 242.226 171.802 241.485 165.059C240.747 158.345 240.192 151.148 239.822 145.626C239.636 142.866 239.497 140.527 239.405 138.877C239.358 138.053 239.323 137.401 239.3 136.955C239.289 136.732 239.28 136.561 239.274 136.446C239.271 136.388 239.269 136.344 239.268 136.315C239.267 136.301 239.266 136.29 239.266 136.282C239.266 136.279 239.266 136.276 239.266 136.274C239.266 136.273 239.266 136.273 239.266 136.272C239.266 136.272 239.266 136.272 238.267 136.32C237.268 136.368 237.268 136.369 237.268 136.369C237.268 136.37 237.268 136.37 237.268 136.371C237.268 136.373 237.268 136.376 237.269 136.38C237.269 136.387 237.269 136.399 237.27 136.414C237.272 136.443 237.274 136.488 237.277 136.546C237.283 136.663 237.291 136.835 237.303 137.059C237.326 137.507 237.361 138.162 237.408 138.99C237.501 140.645 237.64 142.992 237.826 145.76C238.198 151.295 238.755 158.523 239.497 165.278C240.237 172.004 241.168 178.35 242.307 182.071C242.593 183.005 242.905 183.819 243.253 184.448C243.573 185.027 244.04 185.665 244.739 185.903C245.602 186.197 246.331 185.758 246.81 185.219C247.276 184.694 247.685 183.904 248.066 182.915L246.199 182.196ZM238.974 137.027C239.187 136.814 239.584 136.534 240.198 136.173C240.797 135.821 241.528 135.434 242.361 134.992L241.426 133.225C240.604 133.66 239.83 134.069 239.185 134.449C238.554 134.819 237.966 135.207 237.56 135.613L238.974 137.027ZM242.361 134.992C244.152 134.045 246.367 132.874 248.389 131.417C250.406 129.964 252.314 128.171 253.426 125.934L251.635 125.044C250.731 126.863 249.118 128.427 247.22 129.794C245.327 131.158 243.232 132.269 241.426 133.225L242.361 134.992ZM253.425 125.936C254.9 122.985 259.958 112.753 264.461 102.081C266.711 96.7462 268.831 91.2821 270.296 86.5523C271.028 84.1878 271.602 81.9894 271.945 80.0719C272.285 78.1725 272.413 76.4713 272.198 75.1349L270.224 75.4524C270.385 76.4556 270.303 77.8937 269.977 79.7197C269.653 81.5276 269.104 83.6408 268.386 85.9607C266.949 90.5996 264.857 95.995 262.618 101.303C258.14 111.916 253.105 122.103 251.636 125.042L253.425 125.936ZM272.199 75.1383C271.972 73.6987 271.006 71.9531 269.678 70.0799C268.324 68.1688 266.493 65.9885 264.375 63.6544C260.137 58.9855 254.674 53.6193 249.401 48.4386L247.999 49.8653C253.285 55.0582 258.703 60.3809 262.894 64.9985C264.99 67.3076 266.76 69.42 268.046 71.2362C269.36 73.0904 270.075 74.5067 270.223 75.4491L272.199 75.1383ZM249.401 48.4386C243.022 42.1726 236.948 36.2029 233.522 31.9695L231.967 33.2276C235.483 37.572 241.66 43.6381 247.999 49.8653L249.401 48.4386Z" fill="#333333" mask="url(#path-28-inside-2)"/>
<path d="M198.877 164.887L198.878 164.886C201.144 161.226 202.097 157.218 202.428 152.238C202.709 147.992 202.539 143.002 202.331 136.888C202.301 136.006 202.27 135.101 202.24 134.172C202.427 134.161 202.663 134.149 202.934 134.136C203.646 134.102 204.601 134.066 205.575 134.054C206.551 134.042 207.535 134.054 208.309 134.117C208.697 134.148 209.018 134.191 209.252 134.245C209.356 134.269 209.433 134.292 209.485 134.314C209.494 134.356 209.503 134.411 209.512 134.481C209.541 134.689 209.567 134.98 209.597 135.352C209.613 135.543 209.629 135.753 209.646 135.981C209.696 136.632 209.756 137.427 209.843 138.317C210.077 140.722 210.507 143.865 211.453 146.972C212.398 150.075 213.87 153.181 216.215 155.478C218.574 157.79 221.791 159.254 226.147 159.102C229.758 158.982 232.264 157.351 233.973 154.988C235.667 152.648 236.571 149.605 237.059 146.638C237.548 143.663 237.626 140.716 237.634 138.537C237.636 138.056 237.634 137.618 237.633 137.226C237.631 136.718 237.63 136.286 237.636 135.936C237.64 135.738 237.646 135.579 237.654 135.457C237.756 135.441 237.866 135.418 237.983 135.39C238.279 135.32 238.645 135.212 239.051 135.079C239.864 134.814 240.87 134.442 241.861 134.052C242.852 133.661 243.835 133.249 244.604 132.902C244.965 132.739 245.283 132.589 245.533 132.461C245.542 132.511 245.55 132.564 245.559 132.621C245.648 133.204 245.751 134.079 245.869 135.171C246.009 136.478 246.168 138.082 246.343 139.851C246.461 141.039 246.585 142.301 246.717 143.597C247.044 146.819 247.413 150.246 247.813 153.237C248.211 156.217 248.645 158.802 249.108 160.319C250.044 163.381 251.659 165.019 253.076 165.884C253.779 166.314 254.425 166.548 254.9 166.675C255.042 166.713 255.169 166.741 255.278 166.763C255.301 166.998 255.334 167.336 255.376 167.762C255.463 168.647 255.586 169.913 255.732 171.439C256.025 174.491 256.411 178.58 256.78 182.73C257.15 186.881 257.505 191.09 257.736 194.383C257.852 196.03 257.936 197.444 257.977 198.505C257.997 199.036 258.006 199.474 258.003 199.806C257.999 200.159 257.981 200.341 257.967 200.398L257.966 200.401C257.94 200.51 257.789 200.75 257.337 201.099C256.91 201.428 256.288 201.798 255.476 202.191C253.853 202.973 251.528 203.816 248.615 204.592C242.794 206.144 234.675 207.414 225.246 207.414C220.867 207.414 212.918 206.31 206.025 204.651C202.579 203.821 199.424 202.859 197.124 201.839C195.971 201.327 195.058 200.812 194.432 200.307C193.793 199.791 193.542 199.356 193.521 199.019C193.474 198.052 193.661 190.221 193.861 182.584C193.961 178.773 194.065 175.022 194.143 172.225C194.182 170.826 194.215 169.665 194.238 168.854L194.259 168.12C194.562 168.121 194.96 168.08 195.419 167.934C196.436 167.611 197.696 166.788 198.877 164.887ZM209.466 134.232C209.465 134.228 209.464 134.226 209.464 134.226C209.464 134.225 209.465 134.227 209.466 134.232Z" fill="white" stroke="#333333"/>
<path d="M265.584 235.239C264.243 232.326 262.509 229.676 260.612 227.222C238.038 231.312 211.212 231.541 196.196 228.105C193.742 231.279 191.419 234.551 189.98 238.282C189.718 238.249 189.554 238.216 189.554 238.216C155.596 246.593 110.842 260.369 99.0319 284.976C91.1803 301.369 121.671 327.285 155.596 345.74C163.415 341.846 174.244 327.121 178.464 321.232C165.476 309.877 153.895 299.733 155.596 297.77C159.031 293.843 208.791 288.771 226.948 267.437C227.373 267.535 227.864 267.535 228.453 267.47C227.569 290.179 226.882 321.559 228.878 340.57C232.248 373.063 228.42 380.916 222.499 406.996C221.354 412.002 220.634 417.925 220.176 424.338C225.41 426.171 232.575 427.905 240.688 427.676C247.264 427.479 251.451 427.152 254.167 426.792C254.265 426.105 254.363 425.418 254.461 424.731C259.761 385.366 260.121 374.045 264.472 351.892C267.253 337.625 275.889 309.124 275.628 280.558C275.53 264.688 270.263 242.11 265.584 235.239Z" fill="#333333"/>
<path d="M213.13 354.044C213.265 353.683 213.388 353.369 213.49 353.115C216.544 356.322 220.506 356.285 223.663 356.158C223.817 356.152 223.969 356.145 224.119 356.139C224.792 356.11 225.421 356.084 226.005 356.088C226.719 356.093 227.331 356.144 227.837 356.28C228.337 356.415 228.711 356.627 228.98 356.941C229.249 357.255 229.451 357.717 229.525 358.422C229.846 361.473 229.615 368.569 228.643 376.358C227.671 384.147 225.969 392.543 223.385 398.214C223.064 398.917 222.778 399.426 222.524 399.774C222.263 400.132 222.076 400.262 221.975 400.297C221.927 400.314 221.884 400.324 221.783 400.239C221.655 400.13 221.493 399.905 221.314 399.515C220.96 398.745 220.63 397.534 220.3 395.976C219.972 394.428 219.652 392.578 219.311 390.547C219.259 390.238 219.206 389.925 219.153 389.609C218.51 385.771 217.778 381.403 216.771 377.359C215.684 372.996 214.26 368.934 212.228 366.31C211.541 365.421 211.249 364.142 211.243 362.647C211.237 361.162 211.514 359.529 211.893 357.999C212.272 356.473 212.748 355.069 213.13 354.044Z" fill="white" stroke="#333333"/>
<path d="M230.056 358.371C229.663 354.477 225.541 355.851 221.092 355.655C220.765 361.446 219.685 374.47 216.675 379.018C219.587 391.78 220.078 406.701 223.873 398.422C229.107 386.937 230.71 364.62 230.056 358.371Z" fill="#333333"/>
</g>
<defs>
<linearGradient id="paint0_linear" x1="85.4423" y1="362.006" x2="119.463" y2="362.006" gradientUnits="userSpaceOnUse">
<stop stop-color="#BA58E1"/>
<stop offset="1" stop-color="#6F49BC"/>
</linearGradient>
<linearGradient id="paint1_linear" x1="4.54749" y1="420.426" x2="78.2231" y2="420.426" gradientUnits="userSpaceOnUse">
<stop stop-color="#BA58E1"/>
<stop offset="1" stop-color="#6F49BC"/>
</linearGradient>
<linearGradient id="paint2_linear" x1="67.4299" y1="297.155" x2="77.8335" y2="297.155" gradientUnits="userSpaceOnUse">
<stop stop-color="#BA58E1"/>
<stop offset="1" stop-color="#6F49BC"/>
</linearGradient>
<linearGradient id="paint3_linear" x1="0.000214577" y1="381.79" x2="10.5024" y2="381.79" gradientUnits="userSpaceOnUse">
<stop stop-color="#BA58E1"/>
<stop offset="1" stop-color="#6F49BC"/>
</linearGradient>
<linearGradient id="paint4_linear" x1="67.6026" y1="324.455" x2="76.8926" y2="324.455" gradientUnits="userSpaceOnUse">
<stop stop-color="#BA58E1"/>
<stop offset="1" stop-color="#6F49BC"/>
</linearGradient>
<linearGradient id="paint5_linear" x1="109.764" y1="303.657" x2="115.826" y2="303.657" gradientUnits="userSpaceOnUse">
<stop stop-color="#BA58E1"/>
<stop offset="1" stop-color="#6F49BC"/>
</linearGradient>
<clipPath id="clip0">
<rect width="423" height="421" fill="white"/>
</clipPath>
</defs>
</svg>
