<svg width="54" height="55" viewBox="0 0 54 55" fill="none" xmlns="http://www.w3.org/2000/svg">
<rect y="0.832031" width="54" height="54" rx="27" fill="white"/>
<g clip-path="url(#clip0_387_24485)">
<path d="M27.0009 39.5643C29.3215 39.5643 31.5901 38.8762 33.5196 37.5869C35.4491 36.2976 36.953 34.4651 37.8411 32.3211C38.7292 30.1772 38.9615 27.818 38.5088 25.5419C38.0561 23.2659 36.9386 21.1752 35.2976 19.5343C33.6567 17.8933 31.566 16.7758 29.29 16.3231C27.0139 15.8704 24.6547 16.1027 22.5108 16.9908C20.3668 17.8789 18.5343 19.3828 17.245 21.3123C15.9557 23.2418 15.2676 25.5104 15.2676 27.831C15.2711 30.9418 16.5084 33.9242 18.7081 36.1238C20.9078 38.3235 23.8901 39.5608 27.0009 39.5643ZM27.0009 17.1643C29.1106 17.1643 31.1729 17.7899 32.927 18.962C34.6811 20.1341 36.0483 21.8 36.8556 23.749C37.663 25.6981 37.8742 27.8428 37.4626 29.912C37.051 31.9811 36.0351 33.8817 34.5434 35.3735C33.0516 36.8652 31.151 37.8811 29.0819 38.2927C27.0127 38.7043 24.868 38.493 22.919 37.6857C20.9699 36.8784 19.304 35.5112 18.1319 33.7571C16.9598 32.003 16.3342 29.9407 16.3342 27.831C16.3375 25.003 17.4623 22.2918 19.462 20.2921C21.4617 18.2924 24.1729 17.1676 27.0009 17.1643Z" fill="#0D4EE3"/>
<path d="M12.3275 30.6292L13.4587 30.8148C13.806 32.4076 14.4345 33.9257 15.3147 35.298L14.6533 36.2222C14.4604 36.4852 14.3587 36.8039 14.3636 37.13C14.3685 37.4561 14.4798 37.7716 14.6805 38.0286C14.9749 38.3897 15.3157 38.7641 15.6939 39.1417C16.0208 39.4676 16.3723 39.7876 16.8187 40.163C17.0738 40.3598 17.3861 40.4682 17.7083 40.4719C18.0304 40.4757 18.3451 40.3746 18.6048 40.1838L19.5339 39.5172C20.9063 40.3974 22.4246 41.0259 24.0176 41.3732L24.2027 42.5038C24.2537 42.824 24.4075 43.1189 24.6409 43.344C24.8743 43.569 25.1747 43.712 25.4965 43.7513C26.4985 43.8583 27.509 43.8583 28.5109 43.7513C28.8317 43.7113 29.1307 43.5681 29.363 43.3432C29.5952 43.1184 29.748 42.8242 29.7984 42.5049L29.984 41.3737C31.5769 41.0262 33.095 40.3975 34.4672 39.5172L35.3973 40.1828C35.6608 40.3751 35.9799 40.4758 36.306 40.4697C36.6321 40.4635 36.9472 40.3507 37.2032 40.1486C37.6299 39.7876 37.9835 39.4676 38.3104 39.1417C38.6698 38.7846 39.0108 38.4095 39.3323 38.018C39.5286 37.7626 39.6367 37.4504 39.6405 37.1284C39.6442 36.8063 39.5434 36.4917 39.3531 36.2318L38.6864 35.298C39.5666 33.9256 40.1951 32.4072 40.5424 30.8142L41.6731 30.6286C41.9932 30.5777 42.2881 30.4239 42.5131 30.1906C42.7381 29.9573 42.8812 29.6571 42.9205 29.3353C43.0272 28.3355 43.0272 27.3271 42.9205 26.3273V26.3209C42.8806 26.0001 42.7374 25.701 42.5126 25.4688C42.2877 25.2365 41.9935 25.0837 41.6741 25.0334L40.5429 24.8478C40.1955 23.255 39.5668 21.7368 38.6864 20.3646L39.352 19.4345C39.5436 19.1722 39.6445 18.8545 39.6393 18.5297C39.6341 18.2048 39.5231 17.8905 39.3232 17.6345C39.0069 17.2445 38.6685 16.8729 38.3099 16.5214C37.9531 16.1621 37.5784 15.821 37.1872 15.4996C36.932 15.3028 36.6198 15.1944 36.2976 15.1907C35.9754 15.1869 35.6608 15.288 35.4011 15.4788L34.4672 16.1454C33.0948 15.2652 31.5765 14.6367 29.9835 14.2894L29.7984 13.1588C29.7474 12.8385 29.5936 12.5436 29.3601 12.3186C29.1267 12.0935 28.8264 11.9506 28.5045 11.9113C27.5027 11.803 26.492 11.803 25.4901 11.9113C25.1694 11.9512 24.8703 12.0944 24.638 12.3192C24.4058 12.5441 24.253 12.8384 24.2027 13.1577L24.0171 14.2889C22.4242 14.6364 20.9061 15.2651 19.5339 16.1454L18.6032 15.4798C18.3409 15.2879 18.0229 15.1871 17.6979 15.1927C17.3729 15.1984 17.0587 15.3103 16.8032 15.5113C16.4168 15.8275 16.0466 16.1628 15.6939 16.5161C15.3318 16.8706 14.9906 17.2458 14.672 17.6398C14.4739 17.8953 14.3643 18.2083 14.3597 18.5315C14.3551 18.8548 14.4557 19.1708 14.6464 19.4318L15.3147 20.3646C14.4344 21.737 13.8059 23.2553 13.4587 24.8484L12.328 25.0334C12.0078 25.0844 11.7129 25.2383 11.4878 25.4717C11.2628 25.7051 11.1198 26.0054 11.0805 26.3273C10.9732 27.3296 10.9732 28.3405 11.0805 29.3428C11.1213 29.6632 11.2648 29.9618 11.4897 30.1937C11.7145 30.4257 12.0085 30.5784 12.3275 30.6292ZM12.1413 26.4414C12.1545 26.3514 12.1966 26.268 12.2612 26.204C12.3258 26.1399 12.4096 26.0986 12.4997 26.0862L13.9931 25.8414C14.101 25.8238 14.2009 25.7734 14.2792 25.6971C14.3575 25.6207 14.4105 25.5222 14.4309 25.4148C14.7551 23.7083 15.4268 22.0868 16.4043 20.651C16.4655 20.5608 16.4976 20.454 16.4962 20.3451C16.4949 20.2361 16.4602 20.1301 16.3968 20.0414L15.5152 18.8094C15.461 18.7376 15.4309 18.6505 15.4292 18.5606C15.4275 18.4706 15.4542 18.3825 15.5056 18.3086C15.7989 17.9465 16.1128 17.6015 16.4459 17.2756C16.7979 16.9236 17.1456 16.6073 17.4677 16.3444C17.5417 16.2886 17.6319 16.2584 17.7245 16.2584C17.8172 16.2584 17.9073 16.2886 17.9813 16.3444L19.2117 17.2249C19.3005 17.2884 19.4065 17.3232 19.5156 17.3245C19.6247 17.3258 19.7316 17.2937 19.8219 17.2324C21.2573 16.2546 22.8787 15.5829 24.5851 15.259C24.6925 15.2386 24.791 15.1856 24.8674 15.1073C24.9437 15.029 24.9941 14.9291 25.0117 14.8212L25.2565 13.3278C25.2686 13.2386 25.3091 13.1557 25.372 13.0913C25.435 13.027 25.517 12.9846 25.6059 12.9705C26.5317 12.8708 27.4656 12.8708 28.3915 12.9705C28.4815 12.9836 28.5649 13.0257 28.6289 13.0904C28.693 13.155 28.7343 13.2387 28.7467 13.3289L28.9915 14.8222C29.0091 14.9301 29.0595 15.03 29.1358 15.1084C29.2122 15.1867 29.3107 15.2397 29.4181 15.2601C31.1245 15.584 32.7459 16.2557 34.1813 17.2334C34.2716 17.2947 34.3785 17.3269 34.4876 17.3256C34.5967 17.3242 34.7027 17.2895 34.7915 17.226L36.0235 16.3444C36.095 16.2896 36.1822 16.2592 36.2723 16.2574C36.3624 16.2557 36.4507 16.2828 36.5243 16.3348C36.8576 16.6068 37.2053 16.9214 37.5627 17.2798C37.892 17.6028 38.2027 17.9441 38.4933 18.3022C38.5469 18.3764 38.5752 18.4659 38.5741 18.5574C38.5729 18.6489 38.5424 18.7377 38.4869 18.8105L37.6064 20.0409C37.543 20.1296 37.5083 20.2355 37.507 20.3445C37.5056 20.4535 37.5377 20.5603 37.5989 20.6505C38.5764 22.0863 39.2481 23.7078 39.5723 25.4142C39.5927 25.5217 39.6457 25.6202 39.724 25.6965C39.8023 25.7728 39.9022 25.8232 40.0101 25.8409L41.5035 26.0857C41.5932 26.098 41.6765 26.139 41.741 26.2025C41.8055 26.266 41.8477 26.3487 41.8613 26.4382C41.9598 27.3627 41.9598 28.2951 41.8613 29.2196C41.8465 29.3091 41.8038 29.3917 41.7394 29.4556C41.6749 29.5196 41.592 29.5616 41.5024 29.5758L40.0091 29.8206C39.9011 29.8383 39.8013 29.8887 39.7229 29.965C39.6446 30.0413 39.5916 30.1399 39.5712 30.2473C39.247 31.9537 38.5753 33.5752 37.5979 35.011C37.5367 35.1012 37.5046 35.208 37.5059 35.317C37.5072 35.426 37.5419 35.532 37.6053 35.6206L38.4912 36.8585C38.544 36.93 38.5729 37.0163 38.5738 37.1051C38.5748 37.1939 38.5477 37.2808 38.4965 37.3534C38.2006 37.7133 37.8867 38.0581 37.5563 38.3865C37.2523 38.691 36.9216 38.9913 36.5344 39.3177C36.4604 39.3735 36.3703 39.4036 36.2776 39.4036C36.1849 39.4036 36.0948 39.3735 36.0208 39.3177L34.7904 38.4372C34.7017 38.3738 34.5958 38.3391 34.4868 38.3377C34.3778 38.3364 34.271 38.3685 34.1808 38.4297C32.745 39.4071 31.1235 40.0788 29.4171 40.403C29.3096 40.4235 29.2111 40.4764 29.1348 40.5548C29.0584 40.6331 29.008 40.733 28.9904 40.8409L28.7456 42.3342C28.7336 42.4233 28.6931 42.5062 28.6303 42.5706C28.5675 42.6349 28.4856 42.6774 28.3968 42.6916C27.4709 42.7913 26.5371 42.7913 25.6112 42.6916C25.521 42.6785 25.4376 42.6365 25.3734 42.5718C25.3092 42.5072 25.2678 42.4234 25.2555 42.3332L25.0107 40.8398C24.993 40.7319 24.9426 40.632 24.8663 40.5537C24.79 40.4754 24.6914 40.4224 24.584 40.402C22.8776 40.0778 21.2561 39.4061 19.8203 38.4286C19.7301 38.3674 19.6233 38.3353 19.5143 38.3367C19.4053 38.338 19.2993 38.3727 19.2107 38.4361L17.9787 39.3177C17.9084 39.372 17.8227 39.4027 17.7339 39.4053C17.6451 39.408 17.5577 39.3826 17.4843 39.3326C17.0795 38.9918 16.7488 38.6926 16.4448 38.387C16.0928 38.035 15.7765 37.6873 15.5136 37.3652C15.4578 37.2912 15.4277 37.201 15.4277 37.1084C15.4277 37.0157 15.4578 36.9256 15.5136 36.8516L16.3941 35.6212C16.4575 35.5325 16.4922 35.4265 16.4936 35.3175C16.4949 35.2085 16.4628 35.1018 16.4016 35.0116C15.4241 33.5757 14.7525 31.9542 14.4283 30.2478C14.4078 30.1404 14.3549 30.0418 14.2765 29.9655C14.1982 29.8892 14.0983 29.8388 13.9904 29.8212L12.4971 29.5764C12.4087 29.5625 12.3268 29.5215 12.2627 29.459C12.1987 29.3965 12.1557 29.3156 12.1397 29.2276C12.0405 28.3015 12.0405 27.3675 12.1397 26.4414H12.1413Z" fill="#0D4EE3"/>
<path d="M21.6665 34.7642H32.8665C33.2909 34.7642 33.6978 34.5956 33.9979 34.2955C34.298 33.9955 34.4665 33.5885 34.4665 33.1642V31.4159C34.6282 31.323 34.7625 31.1893 34.8561 31.0281C34.9497 30.8669 34.9993 30.6839 34.9999 30.4975V28.3642C34.9993 28.1778 34.9497 27.9948 34.8561 27.8336C34.7625 27.6724 34.6282 27.5386 34.4665 27.4458V25.6975C34.4664 25.4743 34.4187 25.2536 34.3268 25.0502C34.2348 24.8468 34.1007 24.6653 33.9332 24.5178V22.4975C33.9332 22.0731 33.7646 21.6662 33.4646 21.3661C33.1645 21.0661 32.7576 20.8975 32.3332 20.8975H31.7359C31.6845 20.7455 31.601 20.6063 31.4912 20.4893C31.3813 20.3724 31.2476 20.2804 31.0991 20.2196L26.3471 18.3231C26.0816 18.2126 25.7835 18.21 25.5162 18.3159C25.2489 18.4217 25.0334 18.6277 24.9156 18.89L24.0031 20.8975H21.6665C21.1007 20.8975 20.5581 21.1223 20.158 21.5223C19.758 21.9224 19.5332 22.465 19.5332 23.0308V32.6308C19.5332 33.1966 19.758 33.7392 20.158 34.1393C20.5581 34.5394 21.1007 34.7642 21.6665 34.7642ZM32.8665 33.6975H21.6665C21.3836 33.6975 21.1123 33.5851 20.9123 33.3851C20.7123 33.185 20.5999 32.9137 20.5999 32.6308V24.8778C20.9238 25.0659 21.2919 25.1647 21.6665 25.1642H32.8665C33.0077 25.165 33.1429 25.2215 33.2427 25.3213C33.3426 25.4211 33.399 25.5563 33.3999 25.6975V27.2975H32.8665C32.3007 27.2975 31.7581 27.5223 31.358 27.9223C30.958 28.3224 30.7332 28.865 30.7332 29.4308C30.7332 29.9966 30.958 30.5392 31.358 30.9393C31.7581 31.3394 32.3007 31.5642 32.8665 31.5642H33.3999V33.1642C33.3999 33.3056 33.3437 33.4413 33.2437 33.5413C33.1436 33.6413 33.008 33.6975 32.8665 33.6975ZM27.9033 20.0927L28.8399 20.466C28.7023 20.7291 28.622 21.0183 28.6042 21.3146C28.5865 21.6109 28.6317 21.9076 28.7369 22.1852C28.8421 22.4627 29.0049 22.7149 29.2146 22.925C29.4243 23.1351 29.6761 23.2984 29.9535 23.4042L29.7023 24.0975H23.7204L25.0265 21.2212C25.2877 21.3474 25.5722 21.4183 25.8621 21.4294C26.152 21.4404 26.441 21.3914 26.711 21.2854C26.9811 21.1795 27.2263 21.0188 27.4313 20.8135C27.6363 20.6083 27.7966 20.3629 27.9023 20.0927H27.9033ZM32.8665 30.4975C32.5836 30.4975 32.3123 30.3851 32.1123 30.1851C31.9123 29.985 31.7999 29.7137 31.7999 29.4308C31.7999 29.1479 31.9123 28.8766 32.1123 28.6766C32.3123 28.4765 32.5836 28.3642 32.8665 28.3642H33.9332V30.4975H32.8665ZM31.6132 21.9642H32.3332C32.4747 21.9642 32.6103 22.0204 32.7103 22.1204C32.8103 22.2204 32.8665 22.356 32.8665 22.4975V24.0975H30.8399L31.6132 21.9642ZM30.73 21.2708L30.3167 22.4068C30.1738 22.3482 30.0456 22.2588 29.9413 22.1449C29.837 22.0311 29.7592 21.8955 29.7133 21.7481C29.6675 21.6006 29.6547 21.4449 29.6761 21.2919C29.6974 21.139 29.7522 20.9926 29.8367 20.8634L30.6975 21.2068C30.7099 21.2115 30.7201 21.2207 30.7261 21.2325C30.7321 21.2444 30.7335 21.258 30.73 21.2708ZM25.9428 19.3092L26.9161 19.6975C26.8627 19.8332 26.7816 19.9563 26.678 20.059C26.5744 20.1616 26.4505 20.2416 26.3143 20.2937C26.178 20.3458 26.0325 20.369 25.8868 20.3618C25.7411 20.3545 25.5985 20.317 25.4681 20.2516L25.8868 19.33L25.9428 19.3092ZM21.6665 21.9642H23.5183L22.5492 24.0975H21.6665C21.3836 24.0975 21.1123 23.9851 20.9123 23.7851C20.7123 23.585 20.5999 23.3137 20.5999 23.0308C20.5999 22.7479 20.7123 22.4766 20.9123 22.2766C21.1123 22.0765 21.3836 21.9642 21.6665 21.9642Z" fill="#0D4EE3"/>
</g>
<defs>
<clipPath id="clip0_387_24485">
<rect width="32" height="32" fill="white" transform="translate(11 11.832)"/>
</clipPath>
</defs>
</svg>
