<svg width="48" height="48" viewBox="0 0 48 48" fill="none" xmlns="http://www.w3.org/2000/svg">
<g clip-path="url(#clip0_387_26143)">
<path d="M41.6004 48C43.8084 47.9974 45.5977 46.2081 45.6004 44V4.00003C45.5978 1.79194 43.8084 0.002625 41.6004 0H16.0004C13.7923 0.002625 12.003 1.79194 12.0004 4.00003V16H6.40042C4.19242 16.0027 2.40311 17.792 2.40039 20.0001V44.0001C2.40302 46.2081 4.19233 47.9974 6.40042 48.0001L41.6004 48ZM17.6004 17.6L16.6404 18.8799C16.4892 19.0814 16.2521 19.1999 16.0003 19.1999H9.60039C9.34858 19.1999 9.11148 19.0813 8.96036 18.8799L8.00036 17.6H17.6004ZM32.7932 8.49441C32.7636 8.59041 32.7556 8.7 32.7308 8.80003H29.582V7.2C29.582 6.75816 29.2239 6.40003 28.782 6.40003C28.3402 6.40003 27.982 6.75825 27.982 7.2V8.80003H24.85C24.8252 8.69522 24.802 8.58806 24.7701 8.48803C24.3706 7.20487 23.8342 5.96841 23.17 4.8H23.9781C24.2542 4.79231 24.5234 4.88691 24.7341 5.06559C25.7142 5.77809 27.0419 5.77809 28.0221 5.06559C28.4639 4.7115 29.0922 4.7115 29.5341 5.06559C30.5142 5.77809 31.8419 5.77809 32.8221 5.06559C33.0338 4.88597 33.3046 4.79128 33.5821 4.8H34.3821C33.7245 5.97244 33.192 7.21069 32.7932 8.49441ZM23.982 10.4H33.582C34.0239 10.4 34.382 10.7582 34.382 11.1999C34.382 11.6418 34.0239 11.9999 33.582 11.9999H23.982C23.5402 11.9999 23.182 11.6417 23.182 11.1999C23.1819 10.7582 23.5402 10.4 23.982 10.4ZM24.0475 13.6H33.5307C36.4937 15.5889 38.0366 19.1139 37.4875 22.6401C37.3559 23.702 36.9718 24.717 36.3675 25.6H32.0004C30.9869 25.6042 30.0853 26.2446 29.7475 27.2001H23.9683C23.7086 27.1965 23.4505 27.1594 23.2003 27.0896V20.0001C23.1994 18.6397 22.506 17.3735 21.3603 16.6401C21.9103 15.3668 22.8516 14.302 24.0475 13.6ZM31.2004 28C31.2004 27.5582 31.5585 27.2001 32.0004 27.2001H40.0003C40.4422 27.2001 40.8003 27.5582 40.8003 28V36C40.8003 36.4418 40.4422 36.8 40.0003 36.8H32.0004C31.5585 36.8 31.2004 36.4418 31.2004 36V28ZM41.6004 46.4H22.3795C22.909 45.7117 23.1974 44.8684 23.2003 44V41.6H44.0004V44C44.0004 45.3255 42.9259 46.4 41.6004 46.4ZM13.6004 4.00003C13.6004 2.67459 14.675 1.60003 16.0004 1.60003H41.6004C42.9259 1.60003 44.0005 2.67459 44.0005 4.00003V40H23.2004V28.7304C23.454 28.775 23.7109 28.7982 23.9684 28.8H29.6005V36C29.6005 37.3254 30.675 38.4 32.0005 38.4H40.0004C41.3259 38.4 42.4004 37.3254 42.4004 36V28C42.4004 26.6746 41.3259 25.6 40.0004 25.6H38.226C38.6598 24.7383 38.9461 23.81 39.0732 22.8536C39.5612 19.3336 38.4044 15.9344 35.1669 12.9888C35.8129 12.425 36.1056 11.5572 35.933 10.7173C35.7604 9.87741 35.1492 9.19538 34.3332 8.93203C34.6967 7.77019 35.1792 6.64903 35.7732 5.58647C36.0556 5.09316 36.0539 4.48669 35.7689 3.99497C35.4838 3.50316 34.9585 3.20034 34.39 3.20016H33.582C32.99 3.19172 32.4119 3.37959 31.938 3.73453C31.4962 4.08862 30.8679 4.08862 30.426 3.73453C29.4459 3.02203 28.1182 3.02203 27.138 3.73453C26.6962 4.08862 26.0679 4.08862 25.626 3.73453C25.1521 3.37959 24.574 3.19162 23.982 3.20016H23.174C22.607 3.20109 22.083 3.50269 21.7975 3.99263C21.5121 4.48256 21.508 5.08716 21.7869 5.58094C22.3822 6.64537 22.8669 7.76803 23.2332 8.93137C22.4146 9.19397 21.8015 9.87816 21.6297 10.7206C21.4581 11.563 21.7546 12.4326 22.4052 12.9946C21.3785 13.8585 20.514 14.8985 19.8524 16.0658C19.6373 16.026 19.4192 16.0041 19.2004 16.0001H13.6004V4.00003ZM4.00042 44V20C4.00464 18.8213 4.86405 17.8203 6.02842 17.6376L7.68039 19.8399C8.13498 20.4427 8.84542 20.798 9.60039 20.7999H16.0004C16.7554 20.7982 17.466 20.4428 17.9204 19.8399L19.5724 17.6376C20.7368 17.8203 21.5962 18.8213 21.6004 20V44C21.6004 45.3254 20.5258 46.4 19.2004 46.4H6.40042C5.07489 46.4 4.00042 45.3255 4.00042 44Z" fill="white"/>
<path d="M18.4004 43.1992H7.20036C6.75852 43.1992 6.40039 43.5574 6.40039 43.9992C6.40039 44.441 6.75861 44.7992 7.20036 44.7992H18.4004C18.8422 44.7992 19.2004 44.4409 19.2004 43.9992C19.2004 43.5574 18.8422 43.1992 18.4004 43.1992Z" fill="white"/>
<path d="M32.0008 43.1992H25.6008C25.1589 43.1992 24.8008 43.5574 24.8008 43.9992C24.8008 44.441 25.1589 44.7992 25.6008 44.7992H32.0008C32.4426 44.7992 32.8008 44.4409 32.8008 43.9992C32.8008 43.5574 32.4426 43.1992 32.0008 43.1992Z" fill="white"/>
<path d="M12.2018 38.1316C12.3562 38.2995 12.5738 38.395 12.8018 38.395C13.0298 38.395 13.2474 38.2995 13.4018 38.1316C13.4738 38.0517 19.8778 30.8397 19.8066 30.9221C20.0526 30.6285 20.0616 30.2034 19.8282 29.8996L16.6282 25.8996C16.4722 25.7134 16.2431 25.604 16.0002 25.5996H9.60024C9.35855 25.6051 9.13093 25.7145 8.97539 25.8996L5.77543 29.8996C5.54227 30.2035 5.55127 30.6284 5.79699 30.9221L5.80177 30.9316L12.2018 38.1316ZM13.6003 31.1997H17.4187L13.6003 35.4957V31.1997ZM12.8002 29.1196L11.2642 27.1996H14.3362L12.8002 29.1196ZM12.0002 35.4957L8.1818 31.1997H12.0002V35.4957ZM14.465 29.5996L16.0002 27.6796L17.5353 29.5996H14.465ZM9.60024 27.6796L11.1354 29.5996H8.06508L9.60024 27.6796Z" fill="white"/>
<path d="M26.3822 22.0003C26.3822 21.5585 26.024 21.2004 25.5822 21.2004C25.1404 21.2004 24.7822 21.5586 24.7822 22.0003C24.7822 23.3779 26.1358 24.4923 27.9822 24.7451V24.8004C27.9822 25.2422 28.3404 25.6003 28.7822 25.6003C29.2239 25.6003 29.5821 25.2422 29.5821 24.8004V24.7451C31.4293 24.4923 32.7821 23.378 32.7821 22.0003C32.7821 20.6228 31.4293 19.5084 29.5821 19.2555V16.8804C30.5326 17.0651 31.1822 17.5508 31.1822 18.0004C31.1822 18.4422 31.5403 18.8004 31.9821 18.8004C32.424 18.8004 32.7821 18.4421 32.7821 18.0004C32.7821 16.6228 31.4293 15.5084 29.5821 15.2556V15.2004C29.5821 14.7585 29.224 14.4004 28.7822 14.4004C28.3403 14.4004 27.9822 14.7586 27.9822 15.2004V15.2556C26.1358 15.5084 24.7822 16.6227 24.7822 18.0004C24.7822 19.378 26.1358 20.4924 27.9822 20.7452V23.1204C27.0318 22.9347 26.3822 22.4491 26.3822 22.0003ZM31.1822 22.0003C31.1822 22.4491 30.5326 22.9347 29.5821 23.1204V20.8803C30.5326 21.0659 31.1822 21.5515 31.1822 22.0003ZM26.3822 18.0003C26.3822 17.5515 27.0318 17.0659 27.9822 16.8803V19.1202C27.0318 18.9347 26.3822 18.4491 26.3822 18.0003Z" fill="white"/>
<path d="M38.4006 30.4007C38.8424 30.4007 39.2005 30.0426 39.2005 29.6007C39.2005 29.1589 38.8424 28.8008 38.4006 28.8008C37.9587 28.8008 37.6006 29.1589 37.6006 29.6007C37.6006 30.0426 37.9587 30.4007 38.4006 30.4007Z" fill="white"/>
<path d="M36.0002 32.7992C36.442 32.7992 36.8001 32.441 36.8001 31.9992C36.8001 31.5574 36.442 31.1992 36.0002 31.1992C35.5584 31.1992 35.2002 31.5574 35.2002 31.9992C35.2002 32.441 35.5584 32.7992 36.0002 32.7992Z" fill="white"/>
<path d="M33.6007 30.4007C34.0426 30.4007 34.4007 30.0426 34.4007 29.6007C34.4007 29.1589 34.0426 28.8008 33.6007 28.8008C33.1589 28.8008 32.8008 29.1589 32.8008 29.6007C32.8008 30.0426 33.1589 30.4007 33.6007 30.4007Z" fill="white"/>
<path d="M33.6007 35.1995C34.0426 35.1995 34.4007 34.8414 34.4007 34.3996C34.4007 33.9578 34.0426 33.5996 33.6007 33.5996C33.1589 33.5996 32.8008 33.9578 32.8008 34.3996C32.8008 34.8414 33.1589 35.1995 33.6007 35.1995Z" fill="white"/>
<path d="M38.4006 35.1995C38.8424 35.1995 39.2005 34.8414 39.2005 34.3996C39.2005 33.9578 38.8424 33.5996 38.4006 33.5996C37.9587 33.5996 37.6006 33.9578 37.6006 34.3996C37.6006 34.8414 37.9587 35.1995 38.4006 35.1995Z" fill="white"/>
</g>
<defs>
<clipPath id="clip0_387_26143">
<rect width="48" height="48" fill="white"/>
</clipPath>
</defs>
</svg>
