<svg width="64" height="64" viewBox="0 0 64 64" fill="none" xmlns="http://www.w3.org/2000/svg">
<path d="M50.5505 15.8346C50.7278 16.1227 51.0354 16.2809 51.3503 16.2809C51.5178 16.2809 51.6872 16.236 51.8405 16.1417L56.9226 13.0158C57.3635 12.7448 57.5012 12.1671 57.2297 11.7262C56.9587 11.2853 56.3811 11.1476 55.9397 11.4191L50.8581 14.5451C50.4172 14.8161 50.2795 15.3937 50.5505 15.8346Z" fill="url(#paint0_linear)"/>
<path d="M63.1534 22.0636L55.7032 21.34C55.188 21.2892 54.7295 21.6671 54.6792 22.1822C54.6294 22.6979 55.0064 23.1564 55.522 23.2062L62.9717 23.9298C63.003 23.9327 63.0332 23.9342 63.0635 23.9342C63.5406 23.9342 63.9488 23.5719 63.9956 23.0875C64.0454 22.5724 63.6685 22.1139 63.1534 22.0636Z" fill="url(#paint1_linear)"/>
<path d="M46.7471 9.28722C46.8584 9.33067 46.9736 9.35167 47.0864 9.35167C47.4619 9.35167 47.8164 9.12462 47.9604 8.75353L50.6738 1.77745C50.8618 1.29503 50.6225 0.751572 50.1401 0.564072C49.6577 0.376572 49.1142 0.615342 48.9267 1.09776L46.2129 8.07384C46.0254 8.55626 46.2641 9.09972 46.7471 9.28722Z" fill="url(#paint2_linear)"/>
<path d="M40.1255 4.12023C39.4956 3.10022 38.1538 2.78186 37.1333 3.41174L36.0117 4.10363C35.5171 4.40832 35.1714 4.88781 35.0376 5.45275C34.9038 6.01818 34.998 6.60168 35.3027 7.09582L35.9478 8.14074L21.2061 26.3907L18.0928 28.3116C17.6523 28.5836 17.5156 29.1612 17.7876 29.6017C17.9648 29.8888 18.272 30.047 18.5864 30.047C18.7539 30.047 18.9243 30.0021 19.0776 29.9073L21.5293 28.3946L26.3071 36.1383C25.6167 36.0934 24.9282 36.2364 24.3027 36.5577C24.2915 36.5631 24.2808 36.569 24.2695 36.5748C24.1855 36.6193 24.1021 36.6656 24.0205 36.7159L21.2173 38.4542C20.9097 38.6451 20.626 38.8707 20.3682 39.1232C20.0562 39.4283 19.7832 39.7726 19.5625 40.1486L18.8706 41.1915L18.3618 41.9571C18.3574 41.9557 18.3525 41.9542 18.3486 41.9528C18.3408 41.9493 18.3335 41.9454 18.3257 41.942C18.2861 41.9244 18.2471 41.9049 18.2095 41.8839C18.2012 41.8795 18.1934 41.8751 18.1855 41.8707C18.144 41.8458 18.1035 41.819 18.0649 41.7902C18.0566 41.7843 18.0488 41.7779 18.041 41.7716C18.0059 41.7443 17.9712 41.715 17.9385 41.6837C17.9346 41.6798 17.9302 41.6764 17.9263 41.6725C17.8911 41.6383 17.8579 41.6012 17.8262 41.5631C17.8193 41.5548 17.813 41.546 17.8062 41.5377C17.7749 41.4977 17.7451 41.4567 17.7183 41.4132L13.667 34.8473C13.4756 34.5372 13.4165 34.1715 13.5005 33.8175C13.5845 33.463 13.8013 33.1627 14.1108 32.9718L15.3237 32.2237C15.7642 31.9518 15.9014 31.3741 15.6294 30.9337C15.3574 30.4928 14.7798 30.3561 14.3394 30.628L13.1265 31.3761C12.3906 31.8302 11.8755 32.5436 11.6758 33.3854C11.5474 33.9288 11.561 34.4835 11.7085 35.0065L10.8066 35.5631C9.6001 36.3077 9.22412 37.8951 9.96875 39.1022L12.2568 42.8107C12.6172 43.3951 13.1841 43.8038 13.8525 43.9625C14.0508 44.0094 14.251 44.0328 14.4502 44.0328C14.9214 44.0328 15.3843 43.9025 15.7954 43.6486L16.6987 43.0914C16.8872 43.2628 17.0938 43.4108 17.3154 43.5328L14.7124 47.4537L14.0986 47.8727C13.9707 47.8077 13.8301 47.7667 13.6826 47.754C13.3809 47.7286 13.0879 47.8214 12.8569 48.0157L11.2417 49.3751C10.8652 49.1349 10.3716 49.131 9.98486 49.3946C9.9668 49.4073 9.94873 49.42 9.93164 49.4337L0.837891 56.6119C0.305176 57.0323 0 57.6627 0 58.3409V61.2613C0 62.4757 0.988281 63.464 2.20264 63.464H17.0786C17.7495 63.464 18.3755 63.1642 18.7959 62.6407L20.0293 61.1061C20.2451 60.859 20.3369 60.5426 20.3042 60.2355L21.9639 58.8385C22.126 58.7023 22.2427 58.5275 22.3081 58.3317L26.1338 59.1158C26.1904 59.1276 26.2476 59.1339 26.3052 59.1349C26.417 59.1368 26.5283 59.1383 26.6396 59.1383C27.5464 59.1383 28.4473 59.0465 29.394 58.4742L33.248 56.1788C33.3125 56.1827 33.377 56.1852 33.4409 56.1852C33.9971 56.1852 34.5449 56.0323 35.0317 55.7345L38.1279 53.8419C39.5679 52.962 40.0239 51.0743 39.144 49.6344C38.8438 49.1422 38.4189 48.7565 37.917 48.5026C38.4028 47.5714 38.4043 46.4147 37.8179 45.4547C37.3921 44.7579 36.7227 44.2667 35.9312 44.0685C36.0947 43.3175 35.9819 42.5055 35.5508 41.7994C35.1436 41.132 34.5117 40.6564 33.7651 40.442C33.9692 39.6578 33.8687 38.795 33.4141 38.0504C33.2959 37.857 33.1577 37.6813 33.0049 37.5211L51.5811 33.4777L52.2261 34.5226C52.6367 35.1881 53.3501 35.5548 54.0801 35.5548C54.4692 35.5548 54.8633 35.4508 55.2183 35.2316L56.3398 34.5397C56.834 34.2345 57.1802 33.7555 57.314 33.1901C57.4478 32.6251 57.3535 32.0416 57.0483 31.547L40.1255 4.12023ZM14.8115 42.0528C14.6528 42.1505 14.4658 42.1808 14.2852 42.1378C14.104 42.0948 13.9507 41.984 13.8525 41.8258L11.5645 38.1173C11.3628 37.7906 11.4648 37.3605 11.7915 37.1583L12.5869 36.6676L15.6069 41.5616L14.8115 42.0528ZM17.334 61.4664C17.2715 61.5445 17.1787 61.589 17.0786 61.589H2.20264C2.02197 61.589 1.875 61.442 1.875 61.2613V58.3409C1.875 58.2399 1.92041 58.1461 1.99951 58.0836L10.5288 51.3507L18.2163 60.3688L17.334 61.4664ZM19.2402 58.6798L12.4971 50.7692L13.4956 49.9288L20.1885 57.8824L19.2402 58.6798ZM28.4297 56.8663C27.8574 57.2125 27.3203 57.2736 26.4248 57.2618L21.6216 56.277C21.5078 56.2535 21.3931 56.2516 21.2822 56.2696L15.3862 49.2638L15.9204 48.899C15.9209 48.899 15.9214 48.8986 15.9224 48.8981C15.9312 48.8917 15.9399 48.8844 15.9487 48.878C15.9688 48.8629 15.9888 48.8478 16.0073 48.8317C16.0166 48.8234 16.0254 48.8146 16.0342 48.8063C16.0532 48.7887 16.0708 48.7706 16.0879 48.7516C16.0947 48.7443 16.1021 48.7364 16.1084 48.7286C16.1294 48.7032 16.1494 48.6774 16.1675 48.6505C16.1694 48.6481 16.1714 48.6461 16.1729 48.6437L16.1772 48.6373C16.1787 48.6349 16.1802 48.6324 16.1816 48.63L21.1396 41.1627C21.1504 41.1466 21.1606 41.13 21.1704 41.1134C21.4204 40.6813 21.7783 40.3131 22.2056 40.048L25.0088 38.3097C25.0605 38.2775 25.1133 38.2486 25.1665 38.2218C25.1904 38.2096 25.2148 38.1993 25.2388 38.1881C25.2671 38.1754 25.2949 38.1627 25.3237 38.1515C25.3564 38.1383 25.3892 38.1261 25.4229 38.1149C25.4399 38.1085 25.4575 38.1031 25.4751 38.0978C25.5161 38.0851 25.5576 38.0729 25.5991 38.0626H25.5996C25.7505 38.026 25.9038 38.0079 26.0566 38.007C26.0601 38.007 26.0635 38.007 26.0664 38.007C26.1113 38.007 26.1558 38.0089 26.2002 38.0118C26.2144 38.0133 26.2285 38.0143 26.2432 38.0157C26.2827 38.0192 26.3218 38.0236 26.3608 38.0294C26.3838 38.0328 26.4072 38.0377 26.4307 38.0421C26.4902 38.0533 26.5493 38.0675 26.6074 38.0846C26.6299 38.0909 26.6528 38.0968 26.6748 38.1036C26.7046 38.1139 26.7334 38.1251 26.7627 38.1368C26.7856 38.1456 26.8091 38.1544 26.8315 38.1642C26.8604 38.1764 26.8892 38.1901 26.9175 38.2042C26.939 38.215 26.96 38.2257 26.9805 38.2369C27.0088 38.2521 27.0371 38.2682 27.0649 38.2853C27.084 38.297 27.1025 38.3092 27.1211 38.3214C27.1489 38.34 27.1768 38.3585 27.2036 38.379C27.2202 38.3912 27.2358 38.4044 27.2515 38.4171C27.2793 38.4391 27.3066 38.4611 27.333 38.485C27.4609 38.6002 27.5732 38.733 27.665 38.8829L27.7339 38.9957L28.7334 40.6266L29.9878 42.6735L30.3066 43.1945C30.3369 43.2438 30.3618 43.295 30.3809 43.3483C30.4395 43.5084 30.4487 43.6832 30.4072 43.8561C30.3477 44.1046 30.1909 44.3175 29.9663 44.4547L29.4023 44.7994L29.4019 44.7999C29.3628 44.8234 29.3232 44.8434 29.2822 44.861C29.2734 44.8649 29.2646 44.8688 29.2559 44.8722C29.2153 44.8888 29.1743 44.9025 29.1328 44.9132C29.1279 44.9147 29.1226 44.9156 29.1177 44.9166C29.0786 44.9259 29.0396 44.9327 29.0005 44.9371C28.9927 44.9381 28.9854 44.9391 28.9775 44.9401C28.9355 44.9435 28.8936 44.9445 28.8521 44.943C28.8442 44.9425 28.8364 44.942 28.8286 44.9415C28.7861 44.9386 28.7441 44.9337 28.7026 44.9254C28.7021 44.9249 28.7017 44.9249 28.7012 44.9249C28.6567 44.9156 28.6138 44.9029 28.5713 44.8873C28.5674 44.8859 28.564 44.8849 28.5601 44.8834C28.4731 44.8502 28.3911 44.8033 28.3174 44.7433C28.3169 44.7433 28.3169 44.7428 28.3169 44.7428C28.2798 44.7125 28.2466 44.6803 28.2158 44.6461C28.2134 44.6432 28.2109 44.6403 28.208 44.6368C28.1787 44.6027 28.1514 44.567 28.1284 44.5289L27.1938 43.0011C26.8457 42.4318 26.2935 42.0323 25.6387 41.8771C24.9678 41.7174 24.2725 41.8317 23.6816 42.1984C23.4438 42.3458 23.2847 42.5914 23.2466 42.8683C23.2358 42.9484 23.2227 43.027 23.2085 43.1046C23.1978 43.1612 23.1855 43.2174 23.1729 43.2731C23.1689 43.2916 23.165 43.3107 23.1606 43.3292C23.144 43.3995 23.126 43.4689 23.106 43.5372C23.1055 43.5397 23.1045 43.5426 23.1035 43.5455C22.9985 43.9054 22.8511 44.2389 22.6616 44.5421C22.6611 44.5426 22.6611 44.5431 22.6611 44.5436C22.312 45.1031 21.8188 45.5763 21.1724 45.9694C20.73 46.2384 20.5894 46.8151 20.8584 47.2574C21.1274 47.6998 21.7041 47.8404 22.1465 47.5714C22.603 47.2936 23.0078 46.982 23.3618 46.6388L27.2769 52.8131C27.998 53.9318 29.2446 54.5807 30.5342 54.5807C30.6025 54.5807 30.6709 54.5773 30.7393 54.5734C30.7661 54.6222 30.7935 54.6705 30.8228 54.7189C30.9331 54.899 31.0601 55.0651 31.2012 55.2159L28.4297 56.8663ZM29.2251 49.9737C29.2251 49.9742 29.2256 49.9747 29.2256 49.9752C29.2412 50.0192 29.2583 50.0621 29.2764 50.1056C29.2783 50.1105 29.2803 50.1158 29.2827 50.1212C29.2988 50.1603 29.3164 50.1988 29.3345 50.2374C29.3389 50.2457 29.3423 50.255 29.3467 50.2638C29.3638 50.2999 29.3828 50.3356 29.4014 50.3712C29.4072 50.382 29.4121 50.3927 29.418 50.4029C29.4429 50.4488 29.4692 50.4943 29.4966 50.5392C29.5435 50.6163 29.5947 50.6901 29.6475 50.7618C29.6665 50.7872 29.686 50.8121 29.7056 50.837C29.7402 50.881 29.7759 50.9235 29.8125 50.9654C29.8384 50.9947 29.8638 51.025 29.8906 51.0533C29.9106 51.0748 29.9326 51.0944 29.9536 51.1153C30.0293 51.191 30.1084 51.2623 30.1914 51.3297C30.2002 51.3365 30.2085 51.3439 30.2173 51.3502C30.3784 51.4781 30.5513 51.589 30.7354 51.6822C30.5659 52.0011 30.4541 52.3468 30.4043 52.7028C29.7861 52.6642 29.2012 52.3385 28.8564 51.8033L24.5464 45.006C24.7461 44.5934 24.8999 44.1529 25.0044 43.6837C25.0713 43.6798 25.1387 43.6857 25.2051 43.7013C25.3701 43.7403 25.5083 43.8395 25.5942 43.9796L26.5288 45.5074C26.5303 45.5094 26.5317 45.5113 26.5332 45.5138C26.5791 45.5885 26.6284 45.6608 26.6816 45.7306C26.7207 45.7819 26.7627 45.8297 26.8047 45.8776C26.8193 45.8942 26.8325 45.9122 26.8477 45.9288C26.8496 45.9371 26.8521 45.9454 26.854 45.9537C26.8687 46.0187 26.8853 46.0831 26.9038 46.1471C26.9097 46.1656 26.915 46.1842 26.9204 46.2028C26.9434 46.275 26.9678 46.3468 26.9961 46.4171C26.9985 46.4244 27.002 46.4313 27.0049 46.4381C27.0308 46.5026 27.0596 46.5655 27.0903 46.628C27.0991 46.6461 27.1079 46.6642 27.1172 46.6818C27.1523 46.7501 27.189 46.8175 27.229 46.8839C27.6543 47.5802 28.3228 48.0704 29.1128 48.2696C28.9907 48.8282 29.0249 49.4195 29.2251 49.9737ZM29.8232 38.816L30.1382 38.6236C30.416 38.4537 30.7432 38.4025 31.0601 38.4786C31.3765 38.5553 31.644 38.7501 31.8135 39.0279C32.1636 39.6012 31.9824 40.3527 31.4092 40.7028L31.0962 40.8942L30.1694 39.382L29.8232 38.816ZM36.8101 50.0773C37.1182 50.1515 37.3784 50.3414 37.5439 50.6119C37.8848 51.17 37.708 51.9015 37.1499 52.2428L34.0537 54.1354C33.8052 54.2872 33.5161 54.3404 33.2314 54.2906C33.2153 54.2872 33.1987 54.2833 33.1821 54.2809C33.1738 54.2789 33.165 54.2779 33.1567 54.276C32.8481 54.2018 32.5879 54.0118 32.4224 53.7413C32.3481 53.6197 32.3003 53.4903 32.2734 53.3585C32.2729 53.3546 32.2729 53.3512 32.272 53.3478C32.1978 52.9625 32.3218 52.569 32.5864 52.2955C32.5938 52.2882 32.6006 52.2804 32.6079 52.2736C32.6216 52.2604 32.6357 52.2477 32.6499 52.235C32.6641 52.2223 32.6787 52.2096 32.6943 52.1979C32.7056 52.1886 32.7163 52.1798 32.728 52.171C32.7559 52.1505 32.7837 52.131 32.8135 52.1124C32.8145 52.1119 32.8154 52.1114 32.8159 52.111L33.4312 51.735C33.5396 51.6847 33.646 51.6295 33.7495 51.5665L36.1182 50.1183C36.3379 50.0362 36.5767 50.0211 36.8101 50.0773ZM34.6533 45.9679C34.9053 45.8473 35.1885 45.817 35.4639 45.8834C35.7803 45.9596 36.0479 46.1549 36.2178 46.4327C36.5679 47.006 36.3862 47.757 35.8135 48.107L35.2559 48.4479C35.1465 48.4982 35.0391 48.5548 34.9351 48.6183L32.5786 50.0582C32.1387 50.2311 31.6436 50.1295 31.3071 49.819C31.3066 49.8185 31.3066 49.8185 31.3066 49.8185C31.2803 49.7941 31.2554 49.7692 31.2314 49.7423C31.2251 49.735 31.2192 49.7272 31.2129 49.7198C31.1953 49.6993 31.1777 49.6788 31.1611 49.6569C31.1382 49.6261 31.1167 49.5944 31.0962 49.5616C31.0757 49.5275 31.0571 49.4933 31.04 49.4581C31.0347 49.4469 31.0303 49.4357 31.0249 49.4239C31.0142 49.4 31.0034 49.3756 30.9941 49.3507C30.9893 49.3375 30.9854 49.3248 30.981 49.3116C30.9731 49.2877 30.9658 49.2643 30.9595 49.2403C30.9561 49.2272 30.9526 49.2135 30.9497 49.2003C30.9443 49.1764 30.9395 49.152 30.9351 49.1271C30.9331 49.1144 30.9312 49.1017 30.9292 49.089C30.9258 49.0636 30.9233 49.0382 30.9219 49.0128C30.9209 49.0006 30.9199 48.9884 30.9194 48.9762C30.9185 48.9498 30.9185 48.9235 30.9194 48.8976C30.9194 48.8859 30.9194 48.8746 30.9204 48.8634C30.9214 48.8365 30.9248 48.8102 30.9277 48.7838C30.9292 48.7726 30.9297 48.7613 30.9316 48.7501C30.9351 48.7267 30.9399 48.7032 30.9448 48.6798C30.998 48.4288 31.1294 48.194 31.3354 48.0138C31.3438 48.0065 31.3511 47.9977 31.3594 47.9903C31.3711 47.9801 31.3823 47.9698 31.3945 47.9601C31.4238 47.9435 31.4536 47.9283 31.4824 47.9108L34.5244 46.0514C34.5684 46.0245 34.6113 45.9967 34.6533 45.9679ZM33.1968 42.2277C33.5132 42.3038 33.7808 42.4991 33.9507 42.777C34.2769 43.3111 34.1411 44.0001 33.6572 44.3751C33.626 44.3922 33.5952 44.4098 33.5645 44.4283L31.2158 45.8639C31.2236 45.858 31.231 45.8512 31.2388 45.8448C31.2837 45.8092 31.3286 45.7731 31.3706 45.735C31.397 45.7115 31.4219 45.6866 31.4473 45.6622C31.4854 45.6251 31.5234 45.5875 31.5596 45.548C31.5845 45.5216 31.6079 45.4938 31.6313 45.4664C31.665 45.4264 31.6982 45.3863 31.7295 45.3448C31.7515 45.316 31.7734 45.2867 31.7944 45.2565C31.8242 45.214 31.8525 45.1705 31.8804 45.1261C31.8994 45.0953 31.9185 45.0651 31.936 45.0338C31.9629 44.9869 31.9873 44.9386 32.0112 44.8903C32.0264 44.8595 32.0425 44.8297 32.0562 44.7985C32.0806 44.7443 32.1021 44.6886 32.1235 44.6324C32.1333 44.6056 32.145 44.5792 32.1543 44.5519C32.1831 44.4674 32.209 44.382 32.23 44.2945C32.25 44.2111 32.2656 44.1271 32.2778 44.0431C32.2817 44.0162 32.2837 43.9894 32.2871 43.9625C32.2939 43.9049 32.2993 43.8478 32.3027 43.7902C32.3042 43.7589 32.3047 43.7277 32.3052 43.6964C32.3066 43.6427 32.3062 43.5895 32.3042 43.5362C32.3032 43.5045 32.3013 43.4728 32.2993 43.441C32.2954 43.3873 32.2891 43.3336 32.2822 43.2804C32.2783 43.2506 32.2749 43.2208 32.27 43.1915C32.2598 43.131 32.2471 43.0714 32.2324 43.0118C32.2275 42.9903 32.2236 42.9684 32.2183 42.9469C32.1968 42.8663 32.1724 42.7867 32.1436 42.7081C32.1377 42.693 32.1309 42.6778 32.1245 42.6622C32.104 42.6095 32.084 42.5563 32.0601 42.5045L32.2754 42.3727C32.5532 42.2028 32.8804 42.1515 33.1968 42.2277ZM55.4893 32.7584C55.4785 32.8033 55.4468 32.8873 55.355 32.944L54.2334 33.6363C54.0933 33.7228 53.9082 33.6793 53.8213 33.5387L42.0132 14.401C41.7417 13.9606 41.1641 13.8238 40.7231 14.0953C40.2827 14.3673 40.146 14.9449 40.418 15.3854L50.5376 31.7862L28.7515 36.5289L22.9814 27.1769L36.9917 9.83264L38.1235 11.6676C38.3955 12.108 38.9731 12.2447 39.4136 11.9733C39.8545 11.7013 39.9912 11.1237 39.7192 10.6827L36.8984 6.11145C36.8418 6.01965 36.8511 5.93029 36.8618 5.88537C36.8726 5.83996 36.9043 5.75598 36.9961 5.69934L38.1177 5.00744C38.2583 4.92053 38.4429 4.96447 38.5298 5.1051L55.4526 32.5323C55.5093 32.6241 55.5 32.7135 55.4893 32.7584Z" fill="url(#paint3_linear)"/>
<defs>
<linearGradient id="paint0_linear" x1="50.4116" y1="13.7804" x2="57.3689" y2="13.7804" gradientUnits="userSpaceOnUse">
<stop stop-color="#4E2267"/>
<stop offset="1" stop-color="#9441C4"/>
</linearGradient>
<linearGradient id="paint1_linear" x1="54.6748" y1="22.6348" x2="64.0001" y2="22.6348" gradientUnits="userSpaceOnUse">
<stop stop-color="#4E2267"/>
<stop offset="1" stop-color="#9441C4"/>
</linearGradient>
<linearGradient id="paint2_linear" x1="46.1489" y1="4.9259" x2="50.738" y2="4.9259" gradientUnits="userSpaceOnUse">
<stop stop-color="#4E2267"/>
<stop offset="1" stop-color="#9441C4"/>
</linearGradient>
<linearGradient id="paint3_linear" x1="2.13732e-07" y1="33.2761" x2="57.3733" y2="33.2761" gradientUnits="userSpaceOnUse">
<stop stop-color="#4E2267"/>
<stop offset="1" stop-color="#9441C4"/>
</linearGradient>
</defs>
</svg>
