<svg width="30" height="30" viewBox="0 0 30 30" fill="none" xmlns="http://www.w3.org/2000/svg">
<g clip-path="url(#clip0)">
<path d="M8.50001 16.2L8.00001 15.2L7.50001 16.2C7.40001 16.5 7.10001 16.6 6.80001 16.7L5.70001 16.9L6.50001 17.7C6.70001 17.9 6.80001 18.2 6.70001 18.5L6.50001 19.6L7.50001 19.1C7.70001 19 7.80001 19 8.00001 19C8.10001 19 8.30001 19 8.40001 19.1L9.40001 19.6L9.20001 18.5C9.20001 18.2 9.20001 17.9 9.40001 17.7L10.2 16.9L9.10001 16.7C8.90001 16.7 8.60001 16.5 8.50001 16.2Z" fill="#FF3333"/>
<path d="M22.5 16.2L22 15.2L21.5 16.2C21.4 16.5 21.1 16.6 20.8 16.7L19.7 16.9L20.5 17.7C20.7 17.9 20.8 18.2 20.7 18.5L20.5 19.6L21.5 19.1C21.8 19 21.9 19 22 19C22.1 19 22.3 19 22.4 19.1L23.4 19.6L23.2 18.5C23.2 18.2 23.2 17.9 23.4 17.7L24.2 16.9L23.1 16.7C22.9 16.7 22.7 16.5 22.5 16.2Z" fill="#FF3333"/>
<path d="M27.3 7.09998H20L20.2 8.49998C20.4 9.49998 20 10.5 19.1 11.1C18.3 11.7 17.2 11.8 16.3 11.3L15 10.5L13.6 11.2C12.7 11.6 11.7 11.6 10.8 11C10 10.4 9.6 9.39998 9.8 8.39998L10 7.09998H2.7C1.2 7.09998 0 8.29998 0 9.69998V23.8C0 25.3 1.2 26.4 2.7 26.4H12.3L14.2 29.6C14.4 29.9 14.6 30 14.9 30C15.2 30 15.5 29.8 15.6 29.6L17.5 26.4H27.1C28.6 26.4 29.8 25.2 29.8 23.8V9.69998C30 8.29998 28.8 7.09998 27.3 7.09998ZM12.8 16.9L11 18.6L11.4 21C11.5 21.3 11.3 21.7 11 21.9C10.7 22.1 10.4 22.1 10.1 22L8 20.8L5.8 22C5.5 22.2 5.1 22.1 4.9 21.9C4.6 21.7 4.5 21.4 4.5 21L4.9 18.6L3.2 16.9C2.9 16.7 2.9 16.3 3 16C3.1 15.7 3.4 15.5 3.7 15.4L6.1 15L7.2 12.8C7.5 12.2 8.5 12.2 8.8 12.8L9.9 15L12.3 15.4C12.6 15.4 12.9 15.7 13 16C13.1 16.3 13 16.7 12.8 16.9ZM26.8 16.9L25.1 18.6L25.5 21C25.6 21.3 25.4 21.7 25.1 21.9C24.8 22.1 24.5 22.1 24.2 22L22 20.8L19.9 22C19.6 22.2 19.2 22.1 19 21.9C18.7 21.7 18.6 21.4 18.6 21L19 18.6L17.3 16.9C17 16.7 16.9 16.3 17 16C17.1 15.7 17.4 15.5 17.7 15.4L20.1 15L21.2 12.8C21.5 12.2 22.5 12.2 22.8 12.8L23.9 15L26.3 15.4C26.6 15.4 26.9 15.7 27 16C27.1 16.3 27.1 16.7 26.8 16.9Z" fill="#0A4586"/>
<path d="M20 3.69995C19.9 3.39995 19.6 3.19995 19.3 3.09995L16.9 2.69995L15.8 0.399951C15.5 -0.200049 14.5 -0.200049 14.2 0.399951L13.1 2.69995L10.7 3.09995C10.4 3.09995 10.1 3.39995 9.99998 3.69995C9.89998 3.99995 9.99998 4.39995 10.2 4.59995L12 6.29995L11.6 8.69995C11.5 8.99995 11.7 9.39995 12 9.59995C12.3 9.79995 12.6 9.79995 12.9 9.69995L15 8.49995L17.2 9.59995C17.5 9.79995 17.9 9.69995 18.1 9.49995C18.4 9.29995 18.5 8.99995 18.5 8.59995L18 6.29995L19.7 4.59995C20 4.39995 20.1 3.99995 20 3.69995Z" fill="#FF3333"/>
</g>
<defs>
<clipPath id="clip0">
<rect width="30" height="30" fill="white"/>
</clipPath>
</defs>
</svg>
