<svg width="50" height="48" viewBox="0 0 50 48" fill="none" xmlns="http://www.w3.org/2000/svg">
<path d="M22.9 22.5C27.5392 22.5 31.3 17.799 31.3 12C31.3 6.20101 27.5392 1.5 22.9 1.5C18.2608 1.5 14.5 6.20101 14.5 12C14.5 17.799 18.2608 22.5 22.9 22.5Z" stroke="white" stroke-width="2" stroke-miterlimit="10" stroke-linecap="round" stroke-linejoin="round"/>
<path d="M14.5 10.1C20.6 6.10005 25.5 13.8 31.2 10.8" stroke="white" stroke-width="2" stroke-miterlimit="10" stroke-linecap="round" stroke-linejoin="round"/>
<path d="M26.5989 32.5L22.8989 29.4L19.1989 32.5L15.8989 27.0999C15.6989 26.6999 15.8989 26.2 16.3989 26.2H29.3989C29.7989 26.2 30.0989 26.6999 29.8989 27.0999L26.5989 32.5Z" stroke="white" stroke-width="2" stroke-miterlimit="10" stroke-linecap="round" stroke-linejoin="round"/>
<path d="M18.2 20.7C18.2 22.4 17 26.2 17 26.2" stroke="white" stroke-width="2" stroke-miterlimit="10" stroke-linecap="round" stroke-linejoin="round"/>
<path d="M27.6992 20.7C27.6992 22.4 28.8992 26.2 28.8992 26.2" stroke="white" stroke-width="2" stroke-miterlimit="10" stroke-linecap="round" stroke-linejoin="round"/>
<path d="M10.8984 40.3V46.5" stroke="white" stroke-width="2" stroke-miterlimit="10" stroke-linecap="round" stroke-linejoin="round"/>
<path d="M23.5996 34.8999H22.0996" stroke="white" stroke-width="2" stroke-miterlimit="10" stroke-linecap="round" stroke-linejoin="round"/>
<path d="M23.5996 38.8H22.0996" stroke="white" stroke-width="2" stroke-miterlimit="10" stroke-linecap="round" stroke-linejoin="round"/>
<path d="M16.5992 28.3C16.5992 28.3 1.69922 31.5 1.69922 38.6V44.7001C1.69922 45.6001 2.49922 46.4001 3.39922 46.4001H42.2992C43.1992 46.4001 43.9992 45.6001 43.9992 44.7001V43" stroke="white" stroke-width="2" stroke-miterlimit="10" stroke-linecap="round" stroke-linejoin="round"/>
<path d="M35.5996 29.6001H32.5996V38.7001H35.5996V29.6001Z" stroke="#3DA8FB" stroke-width="2" stroke-miterlimit="10" stroke-linecap="round" stroke-linejoin="round"/>
<path d="M48.1992 25.8H45.1992V38.7001H48.1992V25.8Z" stroke="#ED2939" stroke-width="2" stroke-miterlimit="10" stroke-linejoin="round"/>
<path d="M41.8984 32.3H38.8984V38.7001H41.8984V32.3Z" stroke="#3DA8FB" stroke-width="2" stroke-miterlimit="10" stroke-linecap="round" stroke-linejoin="round"/>
</svg>
