<svg width="81" height="94" viewBox="0 0 81 94" fill="none" xmlns="http://www.w3.org/2000/svg">
<g clip-path="url(#clip0)">
<mask id="path-1-outside-1" maskUnits="userSpaceOnUse" x="-2.45124" y="-2.3721" width="85.9031" height="98.8427" fill="black">
<rect fill="white" x="-2.45124" y="-2.3721" width="85.9031" height="98.8427"/>
<path d="M78.2789 24.0354C78.3633 20.5415 76.9076 17.0673 74.3653 14.7421C71.7866 12.3599 68.1786 11.2374 64.7357 11.7361C61.6164 12.1754 58.7139 14.0022 56.939 16.5678C52.2747 13.938 47.2008 12.7209 42.1673 12.9504L42.1095 11.4346C43.4901 11.249 44.969 10.84 45.6682 9.81791C45.9582 9.39175 46.2512 8.65584 45.9243 7.61982C45.5033 6.269 44.0313 5.53589 41.8925 5.60332C35.3171 5.78683 28.7055 8.28229 23.284 12.6413C18.1908 16.6969 14.1937 22.3013 11.6932 28.824C8.43091 37.3188 9.00574 44.0459 10.0506 48.1973C11.0989 52.3332 13.1851 56.2078 16.2329 59.7227C19.0483 62.9577 22.6452 65.7605 26.6164 67.829C28.0071 68.5605 29.4652 69.2088 30.9838 69.8052C30.9769 69.8363 30.9545 69.864 30.9476 69.8952C30.1953 72.3433 29.5884 74.8724 29.1633 77.3927C28.7358 77.3311 28.3273 77.2573 27.9153 77.1991C26.38 76.9749 24.6026 76.8116 23.0325 77.5599C22.0469 78.0287 21.2437 78.9298 20.9044 79.9496C20.6219 80.7858 20.6804 81.6319 21.0484 82.3339C21.6698 83.5166 22.9148 84.0199 24.0367 84.4144C27.4338 85.6047 30.6297 86.522 33.6677 87.192C36.1604 87.7418 38.5595 88.1239 40.8804 88.3417C42.8482 88.5306 45.0493 88.4769 46.4291 86.7391C47.5171 85.3617 47.4211 83.7231 46.1749 82.4843C44.8611 81.1816 42.8924 80.4043 40.8876 79.8642C41.1503 77.4878 41.6658 75.1509 42.427 72.8845C42.4373 72.8378 42.4511 72.7754 42.4614 72.7287C45.4194 73.1687 48.5658 73.4216 51.9161 73.4906C53.1984 73.5284 54.5325 73.4795 55.6458 72.7285C56.3787 72.2203 56.8964 71.3542 56.9608 70.4699C57.0254 69.7326 56.7786 69.0737 56.2777 68.6038C55.4112 67.7919 54.1862 67.8648 53.3868 67.9335C49.4193 68.2184 45.5982 68.0618 42.0101 67.5155L42.0595 65.958C51.9019 66.7401 61.9879 61.8252 67.4377 53.486C70.2773 49.1294 71.7696 44.0672 71.6269 39.2325C71.618 39.0508 71.6056 38.8847 71.6122 38.7065C71.6017 38.6061 71.5877 38.5213 71.5426 38.4297C72.577 37.0731 73.5525 35.6872 74.4725 34.2564C76.1935 31.5645 78.1761 27.9827 78.2789 24.0354ZM54.8428 28.1462C54.9785 29.6792 55.1921 31.2293 55.4627 32.743C54.0347 32.4771 52.3693 32.0281 51.0457 31.0663C49.5679 29.9889 48.7554 28.3393 48.9849 26.8542C49.1647 25.6686 50.0229 24.5182 51.2954 23.7859C52.2134 23.2532 53.3498 22.9157 54.7927 22.7438C54.6019 24.6459 54.6966 26.5129 54.8428 28.1462ZM52.5328 16.2495C50.4427 17.5039 47.9344 18.0617 45.5147 17.7731C43.2076 17.493 41.0065 16.4357 39.3133 14.8533C43.7248 14.1108 48.2403 14.6003 52.5328 16.2495ZM40.5754 13.0568C39.1359 13.2131 37.7225 13.4732 36.3128 13.8648L36.2081 12.1916C36.2081 12.1916 36.2115 12.176 36.1959 12.1726C37.4033 11.8834 38.5711 11.6998 39.7529 11.601C39.8844 11.5974 40.0505 11.585 40.2322 11.5761C40.3325 11.5655 40.4138 11.5671 40.5298 11.56L40.5754 13.0568ZM41.1882 64.2792C37.801 63.8588 34.5061 62.7237 31.5026 60.934C31.8846 60.6098 32.4571 60.4583 32.9417 60.4835C33.7516 60.5151 34.5828 60.8945 35.3448 61.2913C35.4782 61.3534 35.6081 61.431 35.7414 61.4931C36.5035 61.8899 37.2932 62.3092 38.1744 62.5362C39.5507 62.8887 40.9088 62.7308 42.4122 62.5069L42.497 62.493C43.7651 62.2989 44.945 62.1343 46.0736 62.3506C46.9963 62.5377 48.039 63.1435 48.3364 64.0913C45.9784 64.4861 43.5766 64.5609 41.1882 64.2792ZM33.5214 63.7809L33.4667 65.2882C32.2183 64.8004 31.0147 64.2573 29.8405 63.6552C22.3293 59.7113 16.8416 52.9626 15.1306 45.6091C13.7626 39.5893 14.7194 32.9549 17.8678 26.902C19.0841 24.5726 20.5948 22.3898 22.3793 20.4471C25.696 16.8165 29.7479 14.1486 34.1221 12.7608C34.2985 12.7016 34.4559 12.6547 34.6288 12.6111L34.7476 14.3691C31.5653 15.4643 28.6279 17.1528 26.1983 19.2799C18.5205 26.0167 15.3549 37.5552 18.4887 47.3464C20.0313 52.1304 23.0007 56.4449 27.0934 59.8145C29.0894 61.431 31.2477 62.7566 33.5214 63.7809ZM45.1903 85.7634C44.2853 86.9035 42.6639 86.9216 41.0492 86.7615C36.0232 86.2902 30.6342 85.0199 24.5639 82.9132C23.6999 82.6083 22.8116 82.2654 22.4679 81.6014C22.2475 81.1934 22.3125 80.7503 22.4246 80.4646C22.6243 79.8551 23.1426 79.2833 23.727 79.0037C24.8959 78.4447 26.3359 78.5825 27.6963 78.7846C28.2987 78.8684 28.8976 78.9678 29.5121 79.0707C29.5554 79.0965 29.6021 79.1069 29.6488 79.1172C29.6644 79.1206 29.68 79.124 29.6956 79.1275C29.7579 79.1412 29.8081 79.1359 29.8582 79.1307C31.5078 79.4291 33.2285 79.776 35.1033 80.2385C35.7542 80.3984 36.4587 80.5374 37.21 80.6868C39.9467 81.2414 43.3412 81.9247 45.0693 83.6455C45.7573 84.3037 45.7999 84.9993 45.1903 85.7634ZM39.3365 79.4894C38.7134 79.3519 38.1023 79.2335 37.5103 79.1029C36.7746 78.957 36.0857 78.8214 35.4659 78.6684C33.7902 78.2661 32.2322 77.9225 30.7229 77.6549C31.1533 75.1849 31.7429 72.7336 32.4659 70.3444C34.2874 70.9749 36.2108 71.5135 38.2049 71.9533C39.0774 72.1457 39.9689 72.326 40.8828 72.4786C40.1337 74.764 39.6148 77.1165 39.3365 79.4894ZM53.5243 69.5322C54.2199 69.4896 54.8809 69.4557 55.2188 69.7753C55.354 69.9031 55.4253 70.0985 55.4015 70.3547C55.3744 70.7735 55.1156 71.2065 54.7888 71.4285C54.0594 71.9212 53.0575 71.9452 51.988 71.9054C42.0565 71.6755 34.0087 69.8678 27.3704 66.4106C23.5758 64.43 20.1331 61.7429 17.446 58.667C14.5508 55.3491 12.5792 51.6958 11.5953 47.7865C9.79468 40.691 11.4658 33.8548 13.1718 29.3788C15.5672 23.1107 19.4159 17.735 24.274 13.8562C29.4346 9.71741 35.7089 7.34362 41.94 7.16585C42.1875 7.15508 42.7412 7.16285 43.2554 7.27624C43.7695 7.38963 44.2751 7.61552 44.4039 8.06869C44.5483 8.52531 44.45 8.74869 44.3533 8.89074C43.7508 9.77078 41.2038 9.91153 40.1258 9.9842C39.9285 9.9897 39.7624 10.0021 39.6275 10.0213C37.6654 10.1767 35.7677 10.5587 33.6386 11.2491C28.9998 12.7256 24.7075 15.5202 21.1991 19.3536C19.3248 21.4072 17.7243 23.7009 16.4494 26.148C13.1284 32.5387 12.1169 39.5694 13.5875 45.9387C15.3962 53.7384 21.189 60.8812 29.109 65.0459C35.9172 68.6223 44.3487 70.1715 53.5243 69.5322ZM35.0423 65.8481L35.0954 64.4221C36.2417 64.8546 37.393 65.1902 38.577 65.4514C39.2002 65.5888 39.8459 65.6985 40.4793 65.7892L40.4349 67.2498C38.5672 66.9032 36.7616 66.4233 35.0423 65.8481ZM66.109 52.6212C62.4079 58.2909 56.4303 62.2822 49.9072 63.7842C49.9106 63.7686 49.9106 63.7686 49.895 63.7652C49.5069 62.3399 48.1587 61.193 46.4606 60.8185C46.4294 60.8116 46.4138 60.8082 46.3827 60.8013C44.9771 60.5076 43.5896 60.7244 42.2557 60.9204L42.1709 60.9343C40.8371 61.1303 39.645 61.2758 38.5457 61.0007C37.8481 60.8305 37.1761 60.4699 36.4764 60.0868C36.3465 60.0092 36.2131 59.9471 36.0676 59.866C35.1289 59.3812 34.1176 58.9294 32.9858 58.8759C31.835 58.8344 30.7559 59.2826 30.0961 60.052C29.4136 59.591 28.7413 59.0833 28.0916 58.5479C24.2449 55.396 21.449 51.3321 20.0073 46.8317C17.0526 37.6356 20.0169 26.7878 27.2453 20.4584C29.592 18.411 32.4689 16.7746 35.5527 15.7556C36.1857 15.5522 36.8153 15.3643 37.4692 15.2144C39.2236 17.1861 41.6121 18.5788 44.1827 19.1457C44.5566 19.2282 44.934 19.2951 45.3148 19.3464C48.3679 19.7257 51.5507 18.9246 54.0674 17.1434C54.1435 17.0949 54.1884 17.0394 54.2367 16.9684C54.8757 17.2564 55.4888 17.5876 56.1141 17.9379C55.6121 18.9545 55.2591 20.0366 55.0376 21.115C53.15 21.3032 51.7057 21.7035 50.4902 22.3993C48.8063 23.3676 47.6581 24.9442 47.4029 26.6196C47.0964 28.6759 48.1538 30.9186 50.0942 32.3432C51.43 33.324 53.0124 33.8527 54.4458 34.1688C54.9132 34.2719 55.3528 34.3525 55.7648 34.4107C56.1555 36.343 56.6277 38.424 57.3007 40.4839C54.7665 39.974 52.15 39.9851 49.6175 40.5048C48.5899 40.7193 47.1388 41.1507 46.4382 42.4012C45.955 43.2586 45.917 44.3938 46.3393 45.5162C46.5774 46.1405 46.8984 46.6851 47.2194 47.2297C47.353 47.4389 47.471 47.6446 47.589 47.8504C48.6858 49.8404 49.1532 52.1654 48.899 54.4292C48.894 54.5261 48.8699 54.6352 48.8649 54.7321C48.7162 55.9246 48.5403 57.3889 49.5491 58.4446C49.9201 58.8368 50.3877 59.087 50.9174 59.2038C51.5717 59.3481 52.3053 59.2812 52.9659 58.9531C53.8598 58.5294 54.5854 57.7582 55.1426 56.6395C55.7359 55.4307 56.0211 54.1376 56.2804 52.8878L56.356 52.545C56.6119 51.3108 56.9283 50.0245 57.5963 48.9956C58.1193 48.1797 59.0974 47.3008 60.2464 47.2765C60.3121 47.2746 60.3813 47.2572 60.4315 47.252C60.6049 47.5026 60.7628 47.7498 60.9518 48.0039C61.0645 48.1594 61.2378 48.263 61.4247 48.3042C61.6272 48.3489 61.847 48.3157 62.0371 48.1942C62.9948 47.5559 63.8432 46.7464 64.6569 45.9457C64.8418 45.7741 65.0301 45.5869 65.196 45.4274C66.9083 43.8119 68.5132 42.091 70.0227 40.2837C69.9395 44.5131 68.5741 48.8518 66.109 52.6212ZM54.8033 52.2516L54.7277 52.5943C54.4787 53.7974 54.2435 54.9381 53.7225 55.9668C53.4552 56.5124 52.9873 57.2261 52.2957 57.5473C51.7302 57.8147 51.0587 57.7483 50.7155 57.3785C50.2405 56.8653 50.3566 55.8943 50.4659 54.9545C50.4744 54.842 50.4984 54.733 50.5035 54.6361C50.7953 52.0537 50.2597 49.3706 48.9964 47.0988C48.8662 46.8741 48.7361 46.6493 48.6059 46.4246C48.3058 45.9336 48.0333 45.4651 47.8491 44.967C47.5936 44.2735 47.5874 43.635 47.8342 43.1829C48.1293 42.6599 48.7966 42.3006 49.9436 42.0634C52.5643 41.5142 55.3263 41.5842 57.923 42.2549C58.3749 43.4655 58.9149 44.6466 59.5345 45.7635C58.2716 46.0077 57.0686 46.8697 56.2486 48.1429C55.4408 49.4351 55.0901 50.8771 54.8033 52.2516ZM64.1075 44.2888C63.9226 44.4604 63.7343 44.6476 63.5494 44.8192C62.9723 45.3617 62.3883 45.9354 61.7903 46.4244C59.0913 42.3655 57.8523 36.946 57.0736 32.6245C56.7908 31.0918 56.5773 29.5416 56.445 27.9931C56.1652 25.0396 56.083 21.2639 57.7896 18.1931C59.2425 15.6055 61.9927 13.7287 64.9615 13.3052C66.1414 13.1407 67.3545 13.1959 68.523 13.4536C70.2679 13.8384 71.9288 14.6785 73.2718 15.9223C75.4727 17.9435 76.7494 20.9697 76.6678 24.0068C76.5852 27.5665 74.7233 30.8971 73.1249 33.4037C70.5839 37.3687 67.5545 41.03 64.1075 44.2888Z"/>
</mask>
<path d="M78.2789 24.0354C78.3633 20.5415 76.9076 17.0673 74.3653 14.7421C71.7866 12.3599 68.1786 11.2374 64.7357 11.7361C61.6164 12.1754 58.7139 14.0022 56.939 16.5678C52.2747 13.938 47.2008 12.7209 42.1673 12.9504L42.1095 11.4346C43.4901 11.249 44.969 10.84 45.6682 9.81791C45.9582 9.39175 46.2512 8.65584 45.9243 7.61982C45.5033 6.269 44.0313 5.53589 41.8925 5.60332C35.3171 5.78683 28.7055 8.28229 23.284 12.6413C18.1908 16.6969 14.1937 22.3013 11.6932 28.824C8.43091 37.3188 9.00574 44.0459 10.0506 48.1973C11.0989 52.3332 13.1851 56.2078 16.2329 59.7227C19.0483 62.9577 22.6452 65.7605 26.6164 67.829C28.0071 68.5605 29.4652 69.2088 30.9838 69.8052C30.9769 69.8363 30.9545 69.864 30.9476 69.8952C30.1953 72.3433 29.5884 74.8724 29.1633 77.3927C28.7358 77.3311 28.3273 77.2573 27.9153 77.1991C26.38 76.9749 24.6026 76.8116 23.0325 77.5599C22.0469 78.0287 21.2437 78.9298 20.9044 79.9496C20.6219 80.7858 20.6804 81.6319 21.0484 82.3339C21.6698 83.5166 22.9148 84.0199 24.0367 84.4144C27.4338 85.6047 30.6297 86.522 33.6677 87.192C36.1604 87.7418 38.5595 88.1239 40.8804 88.3417C42.8482 88.5306 45.0493 88.4769 46.4291 86.7391C47.5171 85.3617 47.4211 83.7231 46.1749 82.4843C44.8611 81.1816 42.8924 80.4043 40.8876 79.8642C41.1503 77.4878 41.6658 75.1509 42.427 72.8845C42.4373 72.8378 42.4511 72.7754 42.4614 72.7287C45.4194 73.1687 48.5658 73.4216 51.9161 73.4906C53.1984 73.5284 54.5325 73.4795 55.6458 72.7285C56.3787 72.2203 56.8964 71.3542 56.9608 70.4699C57.0254 69.7326 56.7786 69.0737 56.2777 68.6038C55.4112 67.7919 54.1862 67.8648 53.3868 67.9335C49.4193 68.2184 45.5982 68.0618 42.0101 67.5155L42.0595 65.958C51.9019 66.7401 61.9879 61.8252 67.4377 53.486C70.2773 49.1294 71.7696 44.0672 71.6269 39.2325C71.618 39.0508 71.6056 38.8847 71.6122 38.7065C71.6017 38.6061 71.5877 38.5213 71.5426 38.4297C72.577 37.0731 73.5525 35.6872 74.4725 34.2564C76.1935 31.5645 78.1761 27.9827 78.2789 24.0354ZM54.8428 28.1462C54.9785 29.6792 55.1921 31.2293 55.4627 32.743C54.0347 32.4771 52.3693 32.0281 51.0457 31.0663C49.5679 29.9889 48.7554 28.3393 48.9849 26.8542C49.1647 25.6686 50.0229 24.5182 51.2954 23.7859C52.2134 23.2532 53.3498 22.9157 54.7927 22.7438C54.6019 24.6459 54.6966 26.5129 54.8428 28.1462ZM52.5328 16.2495C50.4427 17.5039 47.9344 18.0617 45.5147 17.7731C43.2076 17.493 41.0065 16.4357 39.3133 14.8533C43.7248 14.1108 48.2403 14.6003 52.5328 16.2495ZM40.5754 13.0568C39.1359 13.2131 37.7225 13.4732 36.3128 13.8648L36.2081 12.1916C36.2081 12.1916 36.2115 12.176 36.1959 12.1726C37.4033 11.8834 38.5711 11.6998 39.7529 11.601C39.8844 11.5974 40.0505 11.585 40.2322 11.5761C40.3325 11.5655 40.4138 11.5671 40.5298 11.56L40.5754 13.0568ZM41.1882 64.2792C37.801 63.8588 34.5061 62.7237 31.5026 60.934C31.8846 60.6098 32.4571 60.4583 32.9417 60.4835C33.7516 60.5151 34.5828 60.8945 35.3448 61.2913C35.4782 61.3534 35.6081 61.431 35.7414 61.4931C36.5035 61.8899 37.2932 62.3092 38.1744 62.5362C39.5507 62.8887 40.9088 62.7308 42.4122 62.5069L42.497 62.493C43.7651 62.2989 44.945 62.1343 46.0736 62.3506C46.9963 62.5377 48.039 63.1435 48.3364 64.0913C45.9784 64.4861 43.5766 64.5609 41.1882 64.2792ZM33.5214 63.7809L33.4667 65.2882C32.2183 64.8004 31.0147 64.2573 29.8405 63.6552C22.3293 59.7113 16.8416 52.9626 15.1306 45.6091C13.7626 39.5893 14.7194 32.9549 17.8678 26.902C19.0841 24.5726 20.5948 22.3898 22.3793 20.4471C25.696 16.8165 29.7479 14.1486 34.1221 12.7608C34.2985 12.7016 34.4559 12.6547 34.6288 12.6111L34.7476 14.3691C31.5653 15.4643 28.6279 17.1528 26.1983 19.2799C18.5205 26.0167 15.3549 37.5552 18.4887 47.3464C20.0313 52.1304 23.0007 56.4449 27.0934 59.8145C29.0894 61.431 31.2477 62.7566 33.5214 63.7809ZM45.1903 85.7634C44.2853 86.9035 42.6639 86.9216 41.0492 86.7615C36.0232 86.2902 30.6342 85.0199 24.5639 82.9132C23.6999 82.6083 22.8116 82.2654 22.4679 81.6014C22.2475 81.1934 22.3125 80.7503 22.4246 80.4646C22.6243 79.8551 23.1426 79.2833 23.727 79.0037C24.8959 78.4447 26.3359 78.5825 27.6963 78.7846C28.2987 78.8684 28.8976 78.9678 29.5121 79.0707C29.5554 79.0965 29.6021 79.1069 29.6488 79.1172C29.6644 79.1206 29.68 79.124 29.6956 79.1275C29.7579 79.1412 29.8081 79.1359 29.8582 79.1307C31.5078 79.4291 33.2285 79.776 35.1033 80.2385C35.7542 80.3984 36.4587 80.5374 37.21 80.6868C39.9467 81.2414 43.3412 81.9247 45.0693 83.6455C45.7573 84.3037 45.7999 84.9993 45.1903 85.7634ZM39.3365 79.4894C38.7134 79.3519 38.1023 79.2335 37.5103 79.1029C36.7746 78.957 36.0857 78.8214 35.4659 78.6684C33.7902 78.2661 32.2322 77.9225 30.7229 77.6549C31.1533 75.1849 31.7429 72.7336 32.4659 70.3444C34.2874 70.9749 36.2108 71.5135 38.2049 71.9533C39.0774 72.1457 39.9689 72.326 40.8828 72.4786C40.1337 74.764 39.6148 77.1165 39.3365 79.4894ZM53.5243 69.5322C54.2199 69.4896 54.8809 69.4557 55.2188 69.7753C55.354 69.9031 55.4253 70.0985 55.4015 70.3547C55.3744 70.7735 55.1156 71.2065 54.7888 71.4285C54.0594 71.9212 53.0575 71.9452 51.988 71.9054C42.0565 71.6755 34.0087 69.8678 27.3704 66.4106C23.5758 64.43 20.1331 61.7429 17.446 58.667C14.5508 55.3491 12.5792 51.6958 11.5953 47.7865C9.79468 40.691 11.4658 33.8548 13.1718 29.3788C15.5672 23.1107 19.4159 17.735 24.274 13.8562C29.4346 9.71741 35.7089 7.34362 41.94 7.16585C42.1875 7.15508 42.7412 7.16285 43.2554 7.27624C43.7695 7.38963 44.2751 7.61552 44.4039 8.06869C44.5483 8.52531 44.45 8.74869 44.3533 8.89074C43.7508 9.77078 41.2038 9.91153 40.1258 9.9842C39.9285 9.9897 39.7624 10.0021 39.6275 10.0213C37.6654 10.1767 35.7677 10.5587 33.6386 11.2491C28.9998 12.7256 24.7075 15.5202 21.1991 19.3536C19.3248 21.4072 17.7243 23.7009 16.4494 26.148C13.1284 32.5387 12.1169 39.5694 13.5875 45.9387C15.3962 53.7384 21.189 60.8812 29.109 65.0459C35.9172 68.6223 44.3487 70.1715 53.5243 69.5322ZM35.0423 65.8481L35.0954 64.4221C36.2417 64.8546 37.393 65.1902 38.577 65.4514C39.2002 65.5888 39.8459 65.6985 40.4793 65.7892L40.4349 67.2498C38.5672 66.9032 36.7616 66.4233 35.0423 65.8481ZM66.109 52.6212C62.4079 58.2909 56.4303 62.2822 49.9072 63.7842C49.9106 63.7686 49.9106 63.7686 49.895 63.7652C49.5069 62.3399 48.1587 61.193 46.4606 60.8185C46.4294 60.8116 46.4138 60.8082 46.3827 60.8013C44.9771 60.5076 43.5896 60.7244 42.2557 60.9204L42.1709 60.9343C40.8371 61.1303 39.645 61.2758 38.5457 61.0007C37.8481 60.8305 37.1761 60.4699 36.4764 60.0868C36.3465 60.0092 36.2131 59.9471 36.0676 59.866C35.1289 59.3812 34.1176 58.9294 32.9858 58.8759C31.835 58.8344 30.7559 59.2826 30.0961 60.052C29.4136 59.591 28.7413 59.0833 28.0916 58.5479C24.2449 55.396 21.449 51.3321 20.0073 46.8317C17.0526 37.6356 20.0169 26.7878 27.2453 20.4584C29.592 18.411 32.4689 16.7746 35.5527 15.7556C36.1857 15.5522 36.8153 15.3643 37.4692 15.2144C39.2236 17.1861 41.6121 18.5788 44.1827 19.1457C44.5566 19.2282 44.934 19.2951 45.3148 19.3464C48.3679 19.7257 51.5507 18.9246 54.0674 17.1434C54.1435 17.0949 54.1884 17.0394 54.2367 16.9684C54.8757 17.2564 55.4888 17.5876 56.1141 17.9379C55.6121 18.9545 55.2591 20.0366 55.0376 21.115C53.15 21.3032 51.7057 21.7035 50.4902 22.3993C48.8063 23.3676 47.6581 24.9442 47.4029 26.6196C47.0964 28.6759 48.1538 30.9186 50.0942 32.3432C51.43 33.324 53.0124 33.8527 54.4458 34.1688C54.9132 34.2719 55.3528 34.3525 55.7648 34.4107C56.1555 36.343 56.6277 38.424 57.3007 40.4839C54.7665 39.974 52.15 39.9851 49.6175 40.5048C48.5899 40.7193 47.1388 41.1507 46.4382 42.4012C45.955 43.2586 45.917 44.3938 46.3393 45.5162C46.5774 46.1405 46.8984 46.6851 47.2194 47.2297C47.353 47.4389 47.471 47.6446 47.589 47.8504C48.6858 49.8404 49.1532 52.1654 48.899 54.4292C48.894 54.5261 48.8699 54.6352 48.8649 54.7321C48.7162 55.9246 48.5403 57.3889 49.5491 58.4446C49.9201 58.8368 50.3877 59.087 50.9174 59.2038C51.5717 59.3481 52.3053 59.2812 52.9659 58.9531C53.8598 58.5294 54.5854 57.7582 55.1426 56.6395C55.7359 55.4307 56.0211 54.1376 56.2804 52.8878L56.356 52.545C56.6119 51.3108 56.9283 50.0245 57.5963 48.9956C58.1193 48.1797 59.0974 47.3008 60.2464 47.2765C60.3121 47.2746 60.3813 47.2572 60.4315 47.252C60.6049 47.5026 60.7628 47.7498 60.9518 48.0039C61.0645 48.1594 61.2378 48.263 61.4247 48.3042C61.6272 48.3489 61.847 48.3157 62.0371 48.1942C62.9948 47.5559 63.8432 46.7464 64.6569 45.9457C64.8418 45.7741 65.0301 45.5869 65.196 45.4274C66.9083 43.8119 68.5132 42.091 70.0227 40.2837C69.9395 44.5131 68.5741 48.8518 66.109 52.6212ZM54.8033 52.2516L54.7277 52.5943C54.4787 53.7974 54.2435 54.9381 53.7225 55.9668C53.4552 56.5124 52.9873 57.2261 52.2957 57.5473C51.7302 57.8147 51.0587 57.7483 50.7155 57.3785C50.2405 56.8653 50.3566 55.8943 50.4659 54.9545C50.4744 54.842 50.4984 54.733 50.5035 54.6361C50.7953 52.0537 50.2597 49.3706 48.9964 47.0988C48.8662 46.8741 48.7361 46.6493 48.6059 46.4246C48.3058 45.9336 48.0333 45.4651 47.8491 44.967C47.5936 44.2735 47.5874 43.635 47.8342 43.1829C48.1293 42.6599 48.7966 42.3006 49.9436 42.0634C52.5643 41.5142 55.3263 41.5842 57.923 42.2549C58.3749 43.4655 58.9149 44.6466 59.5345 45.7635C58.2716 46.0077 57.0686 46.8697 56.2486 48.1429C55.4408 49.4351 55.0901 50.8771 54.8033 52.2516ZM64.1075 44.2888C63.9226 44.4604 63.7343 44.6476 63.5494 44.8192C62.9723 45.3617 62.3883 45.9354 61.7903 46.4244C59.0913 42.3655 57.8523 36.946 57.0736 32.6245C56.7908 31.0918 56.5773 29.5416 56.445 27.9931C56.1652 25.0396 56.083 21.2639 57.7896 18.1931C59.2425 15.6055 61.9927 13.7287 64.9615 13.3052C66.1414 13.1407 67.3545 13.1959 68.523 13.4536C70.2679 13.8384 71.9288 14.6785 73.2718 15.9223C75.4727 17.9435 76.7494 20.9697 76.6678 24.0068C76.5852 27.5665 74.7233 30.8971 73.1249 33.4037C70.5839 37.3687 67.5545 41.03 64.1075 44.2888Z" fill="#0C214C"/>
<path d="M78.2789 24.0354C78.3633 20.5415 76.9076 17.0673 74.3653 14.7421C71.7866 12.3599 68.1786 11.2374 64.7357 11.7361C61.6164 12.1754 58.7139 14.0022 56.939 16.5678C52.2747 13.938 47.2008 12.7209 42.1673 12.9504L42.1095 11.4346C43.4901 11.249 44.969 10.84 45.6682 9.81791C45.9582 9.39175 46.2512 8.65584 45.9243 7.61982C45.5033 6.269 44.0313 5.53589 41.8925 5.60332C35.3171 5.78683 28.7055 8.28229 23.284 12.6413C18.1908 16.6969 14.1937 22.3013 11.6932 28.824C8.43091 37.3188 9.00574 44.0459 10.0506 48.1973C11.0989 52.3332 13.1851 56.2078 16.2329 59.7227C19.0483 62.9577 22.6452 65.7605 26.6164 67.829C28.0071 68.5605 29.4652 69.2088 30.9838 69.8052C30.9769 69.8363 30.9545 69.864 30.9476 69.8952C30.1953 72.3433 29.5884 74.8724 29.1633 77.3927C28.7358 77.3311 28.3273 77.2573 27.9153 77.1991C26.38 76.9749 24.6026 76.8116 23.0325 77.5599C22.0469 78.0287 21.2437 78.9298 20.9044 79.9496C20.6219 80.7858 20.6804 81.6319 21.0484 82.3339C21.6698 83.5166 22.9148 84.0199 24.0367 84.4144C27.4338 85.6047 30.6297 86.522 33.6677 87.192C36.1604 87.7418 38.5595 88.1239 40.8804 88.3417C42.8482 88.5306 45.0493 88.4769 46.4291 86.7391C47.5171 85.3617 47.4211 83.7231 46.1749 82.4843C44.8611 81.1816 42.8924 80.4043 40.8876 79.8642C41.1503 77.4878 41.6658 75.1509 42.427 72.8845C42.4373 72.8378 42.4511 72.7754 42.4614 72.7287C45.4194 73.1687 48.5658 73.4216 51.9161 73.4906C53.1984 73.5284 54.5325 73.4795 55.6458 72.7285C56.3787 72.2203 56.8964 71.3542 56.9608 70.4699C57.0254 69.7326 56.7786 69.0737 56.2777 68.6038C55.4112 67.7919 54.1862 67.8648 53.3868 67.9335C49.4193 68.2184 45.5982 68.0618 42.0101 67.5155L42.0595 65.958C51.9019 66.7401 61.9879 61.8252 67.4377 53.486C70.2773 49.1294 71.7696 44.0672 71.6269 39.2325C71.618 39.0508 71.6056 38.8847 71.6122 38.7065C71.6017 38.6061 71.5877 38.5213 71.5426 38.4297C72.577 37.0731 73.5525 35.6872 74.4725 34.2564C76.1935 31.5645 78.1761 27.9827 78.2789 24.0354ZM54.8428 28.1462C54.9785 29.6792 55.1921 31.2293 55.4627 32.743C54.0347 32.4771 52.3693 32.0281 51.0457 31.0663C49.5679 29.9889 48.7554 28.3393 48.9849 26.8542C49.1647 25.6686 50.0229 24.5182 51.2954 23.7859C52.2134 23.2532 53.3498 22.9157 54.7927 22.7438C54.6019 24.6459 54.6966 26.5129 54.8428 28.1462ZM52.5328 16.2495C50.4427 17.5039 47.9344 18.0617 45.5147 17.7731C43.2076 17.493 41.0065 16.4357 39.3133 14.8533C43.7248 14.1108 48.2403 14.6003 52.5328 16.2495ZM40.5754 13.0568C39.1359 13.2131 37.7225 13.4732 36.3128 13.8648L36.2081 12.1916C36.2081 12.1916 36.2115 12.176 36.1959 12.1726C37.4033 11.8834 38.5711 11.6998 39.7529 11.601C39.8844 11.5974 40.0505 11.585 40.2322 11.5761C40.3325 11.5655 40.4138 11.5671 40.5298 11.56L40.5754 13.0568ZM41.1882 64.2792C37.801 63.8588 34.5061 62.7237 31.5026 60.934C31.8846 60.6098 32.4571 60.4583 32.9417 60.4835C33.7516 60.5151 34.5828 60.8945 35.3448 61.2913C35.4782 61.3534 35.6081 61.431 35.7414 61.4931C36.5035 61.8899 37.2932 62.3092 38.1744 62.5362C39.5507 62.8887 40.9088 62.7308 42.4122 62.5069L42.497 62.493C43.7651 62.2989 44.945 62.1343 46.0736 62.3506C46.9963 62.5377 48.039 63.1435 48.3364 64.0913C45.9784 64.4861 43.5766 64.5609 41.1882 64.2792ZM33.5214 63.7809L33.4667 65.2882C32.2183 64.8004 31.0147 64.2573 29.8405 63.6552C22.3293 59.7113 16.8416 52.9626 15.1306 45.6091C13.7626 39.5893 14.7194 32.9549 17.8678 26.902C19.0841 24.5726 20.5948 22.3898 22.3793 20.4471C25.696 16.8165 29.7479 14.1486 34.1221 12.7608C34.2985 12.7016 34.4559 12.6547 34.6288 12.6111L34.7476 14.3691C31.5653 15.4643 28.6279 17.1528 26.1983 19.2799C18.5205 26.0167 15.3549 37.5552 18.4887 47.3464C20.0313 52.1304 23.0007 56.4449 27.0934 59.8145C29.0894 61.431 31.2477 62.7566 33.5214 63.7809ZM45.1903 85.7634C44.2853 86.9035 42.6639 86.9216 41.0492 86.7615C36.0232 86.2902 30.6342 85.0199 24.5639 82.9132C23.6999 82.6083 22.8116 82.2654 22.4679 81.6014C22.2475 81.1934 22.3125 80.7503 22.4246 80.4646C22.6243 79.8551 23.1426 79.2833 23.727 79.0037C24.8959 78.4447 26.3359 78.5825 27.6963 78.7846C28.2987 78.8684 28.8976 78.9678 29.5121 79.0707C29.5554 79.0965 29.6021 79.1069 29.6488 79.1172C29.6644 79.1206 29.68 79.124 29.6956 79.1275C29.7579 79.1412 29.8081 79.1359 29.8582 79.1307C31.5078 79.4291 33.2285 79.776 35.1033 80.2385C35.7542 80.3984 36.4587 80.5374 37.21 80.6868C39.9467 81.2414 43.3412 81.9247 45.0693 83.6455C45.7573 84.3037 45.7999 84.9993 45.1903 85.7634ZM39.3365 79.4894C38.7134 79.3519 38.1023 79.2335 37.5103 79.1029C36.7746 78.957 36.0857 78.8214 35.4659 78.6684C33.7902 78.2661 32.2322 77.9225 30.7229 77.6549C31.1533 75.1849 31.7429 72.7336 32.4659 70.3444C34.2874 70.9749 36.2108 71.5135 38.2049 71.9533C39.0774 72.1457 39.9689 72.326 40.8828 72.4786C40.1337 74.764 39.6148 77.1165 39.3365 79.4894ZM53.5243 69.5322C54.2199 69.4896 54.8809 69.4557 55.2188 69.7753C55.354 69.9031 55.4253 70.0985 55.4015 70.3547C55.3744 70.7735 55.1156 71.2065 54.7888 71.4285C54.0594 71.9212 53.0575 71.9452 51.988 71.9054C42.0565 71.6755 34.0087 69.8678 27.3704 66.4106C23.5758 64.43 20.1331 61.7429 17.446 58.667C14.5508 55.3491 12.5792 51.6958 11.5953 47.7865C9.79468 40.691 11.4658 33.8548 13.1718 29.3788C15.5672 23.1107 19.4159 17.735 24.274 13.8562C29.4346 9.71741 35.7089 7.34362 41.94 7.16585C42.1875 7.15508 42.7412 7.16285 43.2554 7.27624C43.7695 7.38963 44.2751 7.61552 44.4039 8.06869C44.5483 8.52531 44.45 8.74869 44.3533 8.89074C43.7508 9.77078 41.2038 9.91153 40.1258 9.9842C39.9285 9.9897 39.7624 10.0021 39.6275 10.0213C37.6654 10.1767 35.7677 10.5587 33.6386 11.2491C28.9998 12.7256 24.7075 15.5202 21.1991 19.3536C19.3248 21.4072 17.7243 23.7009 16.4494 26.148C13.1284 32.5387 12.1169 39.5694 13.5875 45.9387C15.3962 53.7384 21.189 60.8812 29.109 65.0459C35.9172 68.6223 44.3487 70.1715 53.5243 69.5322ZM35.0423 65.8481L35.0954 64.4221C36.2417 64.8546 37.393 65.1902 38.577 65.4514C39.2002 65.5888 39.8459 65.6985 40.4793 65.7892L40.4349 67.2498C38.5672 66.9032 36.7616 66.4233 35.0423 65.8481ZM66.109 52.6212C62.4079 58.2909 56.4303 62.2822 49.9072 63.7842C49.9106 63.7686 49.9106 63.7686 49.895 63.7652C49.5069 62.3399 48.1587 61.193 46.4606 60.8185C46.4294 60.8116 46.4138 60.8082 46.3827 60.8013C44.9771 60.5076 43.5896 60.7244 42.2557 60.9204L42.1709 60.9343C40.8371 61.1303 39.645 61.2758 38.5457 61.0007C37.8481 60.8305 37.1761 60.4699 36.4764 60.0868C36.3465 60.0092 36.2131 59.9471 36.0676 59.866C35.1289 59.3812 34.1176 58.9294 32.9858 58.8759C31.835 58.8344 30.7559 59.2826 30.0961 60.052C29.4136 59.591 28.7413 59.0833 28.0916 58.5479C24.2449 55.396 21.449 51.3321 20.0073 46.8317C17.0526 37.6356 20.0169 26.7878 27.2453 20.4584C29.592 18.411 32.4689 16.7746 35.5527 15.7556C36.1857 15.5522 36.8153 15.3643 37.4692 15.2144C39.2236 17.1861 41.6121 18.5788 44.1827 19.1457C44.5566 19.2282 44.934 19.2951 45.3148 19.3464C48.3679 19.7257 51.5507 18.9246 54.0674 17.1434C54.1435 17.0949 54.1884 17.0394 54.2367 16.9684C54.8757 17.2564 55.4888 17.5876 56.1141 17.9379C55.6121 18.9545 55.2591 20.0366 55.0376 21.115C53.15 21.3032 51.7057 21.7035 50.4902 22.3993C48.8063 23.3676 47.6581 24.9442 47.4029 26.6196C47.0964 28.6759 48.1538 30.9186 50.0942 32.3432C51.43 33.324 53.0124 33.8527 54.4458 34.1688C54.9132 34.2719 55.3528 34.3525 55.7648 34.4107C56.1555 36.343 56.6277 38.424 57.3007 40.4839C54.7665 39.974 52.15 39.9851 49.6175 40.5048C48.5899 40.7193 47.1388 41.1507 46.4382 42.4012C45.955 43.2586 45.917 44.3938 46.3393 45.5162C46.5774 46.1405 46.8984 46.6851 47.2194 47.2297C47.353 47.4389 47.471 47.6446 47.589 47.8504C48.6858 49.8404 49.1532 52.1654 48.899 54.4292C48.894 54.5261 48.8699 54.6352 48.8649 54.7321C48.7162 55.9246 48.5403 57.3889 49.5491 58.4446C49.9201 58.8368 50.3877 59.087 50.9174 59.2038C51.5717 59.3481 52.3053 59.2812 52.9659 58.9531C53.8598 58.5294 54.5854 57.7582 55.1426 56.6395C55.7359 55.4307 56.0211 54.1376 56.2804 52.8878L56.356 52.545C56.6119 51.3108 56.9283 50.0245 57.5963 48.9956C58.1193 48.1797 59.0974 47.3008 60.2464 47.2765C60.3121 47.2746 60.3813 47.2572 60.4315 47.252C60.6049 47.5026 60.7628 47.7498 60.9518 48.0039C61.0645 48.1594 61.2378 48.263 61.4247 48.3042C61.6272 48.3489 61.847 48.3157 62.0371 48.1942C62.9948 47.5559 63.8432 46.7464 64.6569 45.9457C64.8418 45.7741 65.0301 45.5869 65.196 45.4274C66.9083 43.8119 68.5132 42.091 70.0227 40.2837C69.9395 44.5131 68.5741 48.8518 66.109 52.6212ZM54.8033 52.2516L54.7277 52.5943C54.4787 53.7974 54.2435 54.9381 53.7225 55.9668C53.4552 56.5124 52.9873 57.2261 52.2957 57.5473C51.7302 57.8147 51.0587 57.7483 50.7155 57.3785C50.2405 56.8653 50.3566 55.8943 50.4659 54.9545C50.4744 54.842 50.4984 54.733 50.5035 54.6361C50.7953 52.0537 50.2597 49.3706 48.9964 47.0988C48.8662 46.8741 48.7361 46.6493 48.6059 46.4246C48.3058 45.9336 48.0333 45.4651 47.8491 44.967C47.5936 44.2735 47.5874 43.635 47.8342 43.1829C48.1293 42.6599 48.7966 42.3006 49.9436 42.0634C52.5643 41.5142 55.3263 41.5842 57.923 42.2549C58.3749 43.4655 58.9149 44.6466 59.5345 45.7635C58.2716 46.0077 57.0686 46.8697 56.2486 48.1429C55.4408 49.4351 55.0901 50.8771 54.8033 52.2516ZM64.1075 44.2888C63.9226 44.4604 63.7343 44.6476 63.5494 44.8192C62.9723 45.3617 62.3883 45.9354 61.7903 46.4244C59.0913 42.3655 57.8523 36.946 57.0736 32.6245C56.7908 31.0918 56.5773 29.5416 56.445 27.9931C56.1652 25.0396 56.083 21.2639 57.7896 18.1931C59.2425 15.6055 61.9927 13.7287 64.9615 13.3052C66.1414 13.1407 67.3545 13.1959 68.523 13.4536C70.2679 13.8384 71.9288 14.6785 73.2718 15.9223C75.4727 17.9435 76.7494 20.9697 76.6678 24.0068C76.5852 27.5665 74.7233 30.8971 73.1249 33.4037C70.5839 37.3687 67.5545 41.03 64.1075 44.2888Z" stroke="white" stroke-width="4" mask="url(#path-1-outside-1)"/>
<path d="M60.831 20.4012L60.831 20.4012L60.8285 20.4057C59.3492 23.0957 59.676 26.3092 61.7325 28.5457L61.7328 28.5461C62.714 29.6119 64.0257 30.3145 65.3916 30.6158C66.8489 30.9372 68.42 30.8131 69.8137 30.1758L69.8166 30.1745C72.2129 29.0693 73.8212 26.5418 73.8776 23.8803C73.9486 20.6519 71.3044 17.522 68.0835 16.9252C65.1521 16.3753 62.3044 17.7545 60.831 20.4012ZM68.3364 26.9084L68.3351 26.909C67.083 27.4858 65.3595 27.1402 64.3934 26.098C63.2201 24.8128 63.4049 23.1866 63.9843 22.1192C64.5746 21.0551 65.7702 20.1286 67.4194 20.4433L67.4222 20.4438C68.1527 20.581 68.8876 21.0408 69.4434 21.7003C69.9996 22.3602 70.3049 23.1338 70.298 23.8211C70.27 25.1609 69.4618 26.3918 68.3364 26.9084Z" fill="#0C214C" stroke="white" stroke-width="2"/>
<path d="M42.6568 51.1743C40.9496 47.2852 39.0747 44.6008 36.7391 42.746C36.4186 42.4956 36.2937 42.321 36.233 42.2259C36.3246 42.1808 36.4976 42.1373 36.6204 42.099C36.674 42.0781 36.7432 42.0607 36.7934 42.0555C38.1563 41.6536 39.2327 40.5513 39.6164 39.1819C40.0001 37.8125 39.6603 36.3162 38.7172 35.2586C38.6253 35.1567 38.5335 35.0547 38.4382 34.9683C38.2111 34.7385 37.9199 34.4293 37.9387 34.27C37.9437 34.1731 38.2289 33.991 38.5854 34.0042C38.845 34.0125 39.141 34.0778 39.4492 34.1621C39.7764 34.2342 40.1001 34.322 40.4687 34.3543C42.2842 34.4933 44.1129 33.1648 44.7294 31.2586C45.6902 28.2357 43.8087 25.7295 42.293 23.7125L42.2046 23.5949C40.6647 21.5399 39.3709 20.8134 36.8873 20.5924C35.1566 20.4394 33.4385 20.5996 31.7798 21.0833C28.8843 21.9151 26.2984 23.7137 24.5112 26.1132C23.3542 27.6552 22.675 29.2535 22.4837 30.8614C22.2549 32.7877 22.7908 34.6541 23.9385 35.9691C25.1139 37.3066 26.7571 37.9304 28.3414 38.5249C28.6271 38.6369 28.9128 38.749 29.1985 38.861C29.6487 39.042 30.1665 39.2869 30.2882 39.6241C30.3977 39.9424 30.1665 40.3978 29.8953 40.6648C29.643 40.9195 29.3354 41.1294 29.0087 41.3514C28.7805 41.4972 28.5488 41.6585 28.3294 41.8388C26.4507 43.3196 25.4755 45.9635 25.8499 48.5621C26.1632 50.7714 27.3936 52.9706 29.3051 54.7482C30.7868 56.1042 32.5987 57.2227 35.1927 58.3503C35.9373 58.6779 36.7598 59.0227 37.6634 59.222C38.0373 59.3044 38.4337 59.3592 38.8369 59.3828C40.372 59.4599 41.816 58.9125 42.6745 57.9092C43.4241 57.029 43.7906 55.7375 43.6483 54.3827C43.5149 53.2097 43.0702 52.115 42.6568 51.1743ZM41.4494 56.8712C40.9174 57.5054 39.9627 57.8339 38.9123 57.782C37.8306 57.7231 36.7501 57.2888 35.8254 56.8888C33.3959 55.8301 31.7105 54.8049 30.3675 53.5611C28.7107 52.0358 27.6643 50.1876 27.4035 48.3329C27.1216 46.2776 27.8538 44.2172 29.2969 43.0814C29.4749 42.941 29.6685 42.804 29.8812 42.6548C30.2649 42.3964 30.6521 42.1223 31.0097 41.7601C31.6196 41.1431 32.144 40.0988 31.7703 39.0524C31.3844 37.9871 30.2572 37.5424 29.7637 37.3356C29.478 37.2235 29.1767 37.1081 28.8754 36.9926C27.4123 36.4412 26.0271 35.907 25.1117 34.8719C24.2606 33.9163 23.8603 32.472 24.0362 31.0077C24.1967 29.6871 24.7708 28.3434 25.7638 27.0267C27.361 24.8956 29.6548 23.3104 32.2043 22.5657C33.6711 22.1376 35.1885 21.9985 36.7254 22.1414C38.7434 22.3251 39.644 22.8342 40.9065 24.5176L40.9949 24.6351C42.4221 26.5347 43.9013 28.4946 43.1937 30.7402C42.8131 31.9469 41.6603 32.8036 40.5821 32.7292C40.3415 32.7088 40.0767 32.6504 39.8153 32.5764C39.4604 32.4818 39.0553 32.3924 38.633 32.381C37.5947 32.348 36.4588 32.9797 36.3429 34.0978C36.2596 34.9943 36.842 35.6129 37.2839 36.0534C37.3637 36.1364 37.4434 36.2193 37.5231 36.3022C38.0987 36.952 38.3148 37.8982 38.079 38.7448C37.8467 39.5758 37.1539 40.2725 36.3289 40.5317C36.2753 40.5525 36.2251 40.5578 36.1715 40.5786C35.7374 40.6953 35.0732 40.8919 34.7541 41.524C34.4867 42.0695 34.4258 42.9383 35.7288 43.9935C37.8547 45.6877 39.577 48.1751 41.1887 51.8308C41.5482 52.6452 41.9426 53.5981 42.0427 54.5514C42.1497 55.4736 41.9296 56.3236 41.4494 56.8712Z" fill="#0C214C"/>
</g>
<defs>
<clipPath id="clip0">
<rect width="64.6777" height="81.6847" fill="white" transform="translate(17.593) rotate(12.4377)"/>
</clipPath>
</defs>
</svg>
