<svg width="187" height="86" viewBox="0 0 187 86" fill="none" xmlns="http://www.w3.org/2000/svg">
<path d="M3.9745 85.1049L3.67853 85.0309C3.13592 84.8335 2.86461 84.4882 2.86461 83.995C5.47902 59.7254 7.25484 42.7317 8.19208 33.014L10.1899 11.9261C9.20331 13.1593 8.34007 14.4419 7.60014 15.7737C5.03506 20.1146 3.40722 24.7762 2.71662 29.7583C2.51931 30.301 2.22334 30.5723 1.82871 30.5723C1.53274 30.5723 1.26143 30.4736 1.01479 30.2763C0.768151 30.079 0.64483 29.8077 0.64483 29.4624C0.743486 28.0812 0.990129 26.7 1.38476 25.3188C2.71662 19.9913 5.05972 15.1325 8.41406 10.7422C11.6204 6.30267 15.7393 3.09633 20.7708 1.12319C22.6453 0.43259 24.5198 0.0872899 26.3943 0.0872899C29.4526 0.0872899 32.289 1.12319 34.9034 3.19499C38.751 6.74663 40.7242 11.8028 40.8228 18.3635V19.6214C40.8228 24.6035 40.1322 29.561 38.751 34.4939C37.6658 38.7855 36.0133 42.8797 33.7935 46.7767C37.0985 46.234 40.4529 45.9627 43.8565 45.9627C47.7042 45.9627 49.8499 46.1354 50.2939 46.4807C50.4912 46.6287 50.5899 46.8753 50.5899 47.2206C50.5899 47.4673 50.4912 47.7139 50.2939 47.9605C50.1459 48.2072 49.9239 48.3305 49.628 48.3305C48.2468 48.1825 46.397 48.1085 44.0785 48.1085C40.1322 48.1085 36.2106 48.4785 32.3137 49.2184C29.7486 53.1154 26.5669 56.371 22.7686 58.9854C20.9435 60.3173 19.3403 60.9832 17.9591 60.9832C17.5152 60.9832 17.0712 60.9093 16.6272 60.7613C15.542 60.416 14.8761 59.6514 14.6294 58.4675L14.5554 57.8016C14.5554 56.667 14.9994 55.6311 15.8873 54.6939C17.7125 52.5727 19.8583 50.9942 22.3247 49.9583C24.8404 48.9224 27.7261 48.0345 30.9818 47.2946C31.9191 45.8148 32.7576 44.2609 33.4976 42.6331C35.52 38.4401 36.9259 34.0499 37.7151 29.4624C38.4057 26.2067 38.751 22.9264 38.751 19.6214C38.751 14.6392 37.6658 10.4709 35.4954 7.11659C34.2128 5.14346 32.437 3.7376 30.1679 2.89901C28.9347 2.45506 27.6768 2.23308 26.3943 2.23308C24.8158 2.23308 23.2373 2.50438 21.6587 3.04699C18.1071 4.37886 15.0487 6.45066 12.4837 9.26238C12.9769 9.4597 13.2482 9.87899 13.2976 10.5203C13.2976 11.3095 12.9769 11.7781 12.3357 11.9261C12.3357 12.3207 12.2617 13.184 12.1137 14.5159C12.015 15.8477 11.8917 17.1796 11.7437 18.5115L11.0038 26.7246C7.15618 65.2502 5.03506 84.6362 4.64043 84.8829C4.44312 85.0309 4.22114 85.1049 3.9745 85.1049ZM17.7371 58.8375C18.625 58.8375 19.6116 58.4922 20.6968 57.8016C23.7552 55.8778 26.5669 53.2633 29.132 49.9583C28.7867 50.0077 28.4167 50.1063 28.0221 50.2543C25.6543 50.8463 23.3852 51.7588 21.2148 52.992C19.9816 53.7813 18.995 54.5459 18.2551 55.2858C17.2192 56.2724 16.7012 57.111 16.7012 57.8016C16.7506 58.4922 17.0959 58.8375 17.7371 58.8375ZM67.8539 64.3869C67.4592 64.3869 67.0399 64.2883 66.596 64.0909C66.152 63.8936 65.8067 63.721 65.5601 63.573C65.3134 63.129 65.1901 62.6851 65.1901 62.2411V61.6492C65.1901 59.972 65.7327 58.0235 66.818 55.8038C67.7552 53.9293 68.2978 52.1041 68.4458 50.3283C68.4458 49.3911 68.1252 48.4785 67.4839 47.5906C66.7933 46.9 65.9547 46.5547 64.9681 46.5547C64.1789 46.5547 63.3896 46.604 62.6004 46.7027C61.7618 46.7027 60.9479 46.4807 60.1586 46.0367C58.4321 44.9022 57.5689 42.929 57.5689 40.1173C57.5689 36.911 58.4815 34.0253 60.3066 31.4602C61.1945 30.1776 62.3537 29.5364 63.7843 29.5364C64.5735 29.5857 65.1901 29.9063 65.6341 30.4983C66.1274 31.0409 66.374 31.7068 66.374 32.4961C66.374 33.68 66.1027 34.8145 65.5601 35.8997C64.5242 38.8594 63.0937 41.6218 61.2685 44.1869C61.7125 44.3842 62.2058 44.4829 62.7484 44.4829L65.0421 44.4089C66.5713 44.4089 67.9279 44.9762 69.1117 46.1107C70.0983 47.3933 70.5916 48.7991 70.5916 50.3283C70.5423 52.2028 69.975 54.1759 68.8898 56.2477L68.5938 56.9876C67.7552 58.9115 67.3359 60.4653 67.3359 61.6492V62.0931L67.9279 62.1671C68.5198 62.1671 69.1117 61.9945 69.7037 61.6492C71.0849 60.7613 73.0087 58.9115 75.4751 56.0997C78.3855 53.0414 81.0985 49.8104 83.6143 46.4067C83.8609 46.0614 84.1816 45.8887 84.5762 45.8887C84.7242 45.8887 84.9215 45.9627 85.1681 46.1107C85.4641 46.2587 85.6121 46.5547 85.6121 46.9986C85.6121 47.1959 85.5628 47.3686 85.4641 47.5166C83.2443 50.5256 80.8519 53.436 78.2868 56.2477C76.955 57.7276 75.5491 59.2074 74.0692 60.6873C71.8495 63.1537 69.7777 64.3869 67.8539 64.3869ZM59.9366 42.2631C61.5152 39.994 62.773 37.4782 63.7103 34.7159L63.8583 34.2719C64.1049 33.68 64.2282 33.1373 64.2282 32.6441C64.2282 32.0028 64.0556 31.6822 63.7103 31.6822C63.2663 31.6822 62.6497 32.1508 61.8605 33.088C60.6766 34.5679 59.986 36.467 59.7887 38.7855L59.7147 40.3393C59.7147 40.9806 59.7887 41.6218 59.9366 42.2631ZM89.2244 61.6492L87.7446 61.5012C84.0943 60.7613 82.2691 58.0729 82.2691 53.436C82.2691 52.0055 82.4171 50.5996 82.7131 49.2184C83.2557 46.604 84.2423 44.1623 85.6728 41.8931C87.2513 39.476 89.0765 38.2675 91.1482 38.2675C92.2828 38.2675 93.2694 38.6868 94.108 39.5254C94.5519 40.068 94.7739 40.6106 94.7739 41.1532C94.7739 41.7452 94.6259 42.3618 94.3299 43.003C92.3568 47.2946 89.0765 50.2296 84.4889 51.8082V53.732C84.4889 56.0011 85.0315 57.5796 86.1167 58.4675C87.054 59.1581 88.0652 59.5034 89.1504 59.5034C91.2716 59.5034 93.7133 58.3688 96.4757 56.0997C99.8794 53.3373 102.74 50.131 105.059 46.4807C105.306 46.1354 105.601 45.9627 105.947 45.9627C106.243 45.9627 106.514 46.0861 106.761 46.3327C107.007 46.53 107.131 46.7767 107.131 47.0726C107.131 47.2206 107.081 47.3933 106.983 47.5906C103.382 53.0167 99.2874 57.1356 94.6999 59.9473C92.9734 61.0819 91.1482 61.6492 89.2244 61.6492ZM84.9329 49.3664C86.5114 48.7251 87.9419 47.8126 89.2244 46.6287L89.5944 46.2587C90.1863 45.6668 90.7043 45.0008 91.1482 44.2609C91.9868 43.225 92.4555 42.2384 92.5541 41.3012C92.5541 41.0052 92.3815 40.7833 92.0362 40.6353C91.7402 40.4873 91.4689 40.4133 91.2222 40.4133C90.3343 40.4133 89.5944 40.7093 89.0025 41.3012C87.0787 43.1757 85.7221 45.8641 84.9329 49.3664ZM108.76 61.9452C107.921 61.9452 107.107 61.8465 106.318 61.6492C103.999 61.0079 102.569 59.5034 102.026 57.1356C101.928 56.593 101.878 56.0504 101.878 55.5078C101.878 53.7813 102.248 52.0795 102.988 50.4023C103.925 48.1825 105.109 46.1354 106.54 44.2609C108.02 42.3864 109.82 40.8819 111.941 39.7474C112.681 39.3527 113.421 39.1554 114.161 39.1554C114.556 39.1554 114.95 39.2294 115.345 39.3774C116.825 40.068 117.565 41.4245 117.565 43.447C117.565 45.4201 116.924 47.2946 115.641 49.0704C115.394 49.4157 115.074 49.5884 114.679 49.5884C114.531 49.5884 114.309 49.5144 114.013 49.3664C113.766 49.2184 113.643 48.9224 113.643 48.4785C113.643 48.2812 113.693 48.1085 113.791 47.9605C114.482 46.974 114.95 45.8887 115.197 44.7049C115.345 44.2116 115.419 43.6936 115.419 43.151C115.419 41.9178 115 41.3012 114.161 41.3012C113.865 41.3012 113.569 41.3505 113.273 41.4492C112.237 41.8438 111.103 42.6824 109.87 43.9649C106.959 46.7767 105.06 50.131 104.172 54.0279C104.073 54.5212 104.024 55.0392 104.024 55.5818C104.024 58.3935 105.578 59.7994 108.686 59.7994C113.224 59.4541 117.392 57.7522 121.19 54.6939C124.397 52.1781 127.233 49.3417 129.7 46.1847C129.897 45.9381 130.119 45.8148 130.366 45.8148C130.661 45.8148 130.908 45.9381 131.105 46.1847C131.352 46.382 131.475 46.6533 131.475 46.9986C131.475 47.1959 131.377 47.4179 131.179 47.6646C127.874 52.0055 123.953 55.6311 119.415 58.5415C117.392 59.7254 115.271 60.6379 113.051 61.2792C111.621 61.7232 110.19 61.9452 108.76 61.9452ZM132.741 33.9019C132.445 33.9019 132.198 33.8033 132.001 33.606C131.804 33.4087 131.68 33.1867 131.631 32.94C131.631 32.6441 131.606 32.3728 131.557 32.1261C131.557 31.1395 131.779 30.1776 132.223 29.2404C132.42 28.8951 132.716 28.7224 133.111 28.7224C133.308 28.7224 133.505 28.7718 133.703 28.8704C134.048 29.1171 134.221 29.4377 134.221 29.8323L134.147 30.3503C133.9 30.8929 133.777 31.4355 133.777 31.9781L133.851 32.866C133.851 33.162 133.727 33.4087 133.481 33.606C133.283 33.8033 133.037 33.9019 132.741 33.9019ZM132.001 62.3891C130.373 62.3891 129.189 61.6985 128.449 60.3173C128.005 59.2814 127.783 58.1962 127.783 57.0616C127.783 55.9271 127.981 54.1019 128.375 51.5862C129.312 44.8775 130.274 41.5232 131.261 41.5232C131.557 41.5232 131.828 41.6218 132.075 41.8192C132.321 41.9671 132.445 42.1891 132.445 42.4851L132.371 42.7811C131.532 45.8394 130.891 48.8978 130.447 51.9561L130.299 53.362C130.102 54.6445 129.978 55.9517 129.929 57.2836C129.929 58.0235 130.077 58.7388 130.373 59.4294C130.817 59.972 131.36 60.2433 132.001 60.2433C132.395 60.2433 132.815 60.1693 133.259 60.0213C134.443 59.6267 135.454 58.9854 136.292 58.0975C139.597 54.6939 142.631 50.8956 145.394 46.7027C145.689 46.4067 145.985 46.2587 146.281 46.2587C146.627 46.2587 146.898 46.3574 147.095 46.5547C147.342 46.7027 147.465 46.9246 147.465 47.2206C147.465 47.3686 147.416 47.5412 147.317 47.7386C145.689 50.1557 143.815 52.6714 141.694 55.2858L140.954 56.1737C139.474 58.2455 137.723 59.9473 135.7 61.2792C134.517 62.0191 133.283 62.3891 132.001 62.3891ZM145.447 69.7144C144.905 69.7144 144.387 69.5664 143.893 69.2704C142.512 68.4812 141.822 67.248 141.822 65.5708C141.822 64.4856 142.118 63.4743 142.71 62.5371C143.302 61.5505 143.967 60.6379 144.707 59.7994C146.582 57.4809 148.752 55.4585 151.219 53.732C150.134 51.6602 148.802 49.9583 147.223 48.6265L145.965 47.4426C144.288 45.7161 143.449 43.9896 143.449 42.2631V41.8931C143.449 40.8572 143.745 39.92 144.337 39.0814C145.225 38.1935 146.261 37.6509 147.445 37.4536C147.79 37.4536 148.062 37.5769 148.259 37.8235C148.456 38.0702 148.555 38.3415 148.555 38.6375C148.555 39.0321 148.284 39.3527 147.741 39.5994C147.149 39.7474 146.656 39.9693 146.261 40.2653C145.867 40.5613 145.645 41.1779 145.595 42.1151C145.595 43.6936 146.607 45.3215 148.629 46.9986L149.221 47.5166C150.947 49.0951 152.205 50.7229 152.995 52.4001C156.3 50.131 159.728 48.0345 163.28 46.1107C163.477 46.0121 163.649 45.9627 163.797 45.9627C164.093 45.9627 164.34 46.0861 164.537 46.3327C164.784 46.5793 164.907 46.8507 164.907 47.1466C164.907 47.4426 164.735 47.7139 164.389 47.9605C160.739 49.8843 157.187 52.0548 153.734 54.4719C154.08 55.7051 154.252 56.963 154.252 58.2455C154.252 60.416 153.66 62.5124 152.477 64.5349C151.342 66.5574 149.69 68.0865 147.519 69.1224C146.828 69.5171 146.138 69.7144 145.447 69.7144ZM145.447 67.4946C145.99 67.4946 146.681 67.2233 147.519 66.6807C148.16 66.3354 148.925 65.6694 149.813 64.6829C151.293 62.8577 152.057 60.7119 152.107 58.2455C152.107 57.4563 152.033 56.667 151.885 55.8778C149.418 57.8509 147.371 59.8487 145.743 61.8712L145.447 62.2411C144.559 63.3757 144.066 64.4856 143.967 65.5708C143.967 66.2614 144.239 66.8533 144.781 67.3466C144.979 67.4453 145.201 67.4946 145.447 67.4946ZM168.709 61.6492L167.229 61.5012C163.579 60.7613 161.753 58.0729 161.753 53.436C161.753 52.0055 161.901 50.5996 162.197 49.2184C162.74 46.604 163.727 44.1623 165.157 41.8931C166.736 39.476 168.561 38.2675 170.633 38.2675C171.767 38.2675 172.754 38.6868 173.592 39.5254C174.036 40.068 174.258 40.6106 174.258 41.1532C174.258 41.7452 174.11 42.3618 173.814 43.003C171.841 47.2946 168.561 50.2296 163.973 51.8082V53.732C163.973 56.0011 164.516 57.5796 165.601 58.4675C166.538 59.1581 167.55 59.5034 168.635 59.5034C170.756 59.5034 173.198 58.3688 175.96 56.0997C179.364 53.3373 182.225 50.131 184.543 46.4807C184.79 46.1354 185.086 45.9627 185.431 45.9627C185.727 45.9627 185.998 46.0861 186.245 46.3327C186.492 46.53 186.615 46.7767 186.615 47.0726C186.615 47.2206 186.566 47.3933 186.467 47.5906C182.866 53.0167 178.772 57.1356 174.184 59.9473C172.458 61.0819 170.633 61.6492 168.709 61.6492ZM164.417 49.3664C165.996 48.7251 167.426 47.8126 168.709 46.6287L169.079 46.2587C169.671 45.6668 170.189 45.0008 170.633 44.2609C171.471 43.225 171.94 42.2384 172.038 41.3012C172.038 41.0052 171.866 40.7833 171.52 40.6353C171.224 40.4873 170.953 40.4133 170.707 40.4133C169.819 40.4133 169.079 40.7093 168.487 41.3012C166.563 43.1757 165.206 45.8641 164.417 49.3664Z" fill="#FFA0A0"/>
</svg>
