<svg width="24" height="23" viewBox="0 0 24 23" fill="none" xmlns="http://www.w3.org/2000/svg">
<g clip-path="url(#clip0_317_4144)">
<path opacity="0.3" fill-rule="evenodd" clip-rule="evenodd" d="M12 17.5L16.0844 19.6473C16.279 19.7496 16.502 19.7849 16.7188 19.7478C17.2631 19.6544 17.6287 19.1375 17.5353 18.5931L16.7553 14.0451L20.0596 10.8242C20.2171 10.6707 20.3196 10.4695 20.3512 10.2519C20.4306 9.70533 20.0519 9.19789 19.5054 9.11847L14.9389 8.45493L12.8967 4.317C12.7994 4.11978 12.6398 3.96016 12.4426 3.86283C12.3 3.79248 12.1489 3.75923 12 3.75934V17.5Z" fill="#EC4B37"/>
<path fill-rule="evenodd" clip-rule="evenodd" d="M12.0003 3.75934C11.6319 3.75962 11.2776 3.96427 11.1035 4.317L9.06135 8.45492L4.49487 9.11847C4.27724 9.1501 4.07609 9.25258 3.92259 9.41007C3.53708 9.80555 3.54518 10.4387 3.94066 10.8242L7.24499 14.0451L6.46495 18.5931C6.42777 18.8099 6.46308 19.0328 6.56542 19.2275C6.82242 19.7164 7.42705 19.9043 7.9159 19.6473L12.0003 17.5V3.75934Z" fill="#EC4B37"/>
</g>
<defs>
<clipPath id="clip0_317_4144">
<rect width="24" height="23" fill="white"/>
</clipPath>
</defs>
</svg>
