<svg width="48" height="48" viewBox="0 0 48 48" fill="none" xmlns="http://www.w3.org/2000/svg">
<rect width="48" height="48" rx="24" fill="#1977F1"/>
<path d="M27.5823 17.8084H28.9871V15.1902C28.1222 15.0601 27.2486 14.9966 26.374 15.0001C25.3874 15.009 24.4442 15.4075 23.7503 16.109C23.0563 16.8104 22.6678 17.7577 22.6696 18.7444V21.3755H20V24.4161H22.6696V33H25.9439V24.4161H28.5197L28.9409 21.3755H25.9439V19.4494C25.9434 19.234 25.9854 19.0205 26.0675 18.8214C26.1497 18.6222 26.2703 18.4412 26.4225 18.2888C26.5747 18.1363 26.7555 18.0154 26.9545 17.933C27.1536 17.8505 27.3669 17.8082 27.5823 17.8084V17.8084Z" fill="#FEFEFF"/>
</svg>
