<svg width="72" height="72" viewBox="0 0 72 72" fill="none" xmlns="http://www.w3.org/2000/svg">
<rect width="72" height="72" rx="36" fill="#359D9E"/>
<path d="M43.6668 55.9778C43.3118 55.9778 43.0234 55.6894 43.0234 55.3344V50.4315C43.0234 50.0765 43.3118 49.7881 43.6668 49.7881C44.0218 49.7881 44.3102 50.0765 44.3102 50.4315V55.3344C44.3102 55.6894 44.0218 55.9778 43.6668 55.9778Z" fill="white"/>
<path d="M28.2703 55.9778C27.9153 55.9778 27.627 55.6894 27.627 55.3344V50.4315C27.627 50.0765 27.9153 49.7881 28.2703 49.7881C28.6253 49.7881 28.9137 50.0765 28.9137 50.4315V55.3344C28.9137 55.6894 28.6253 55.9778 28.2703 55.9778Z" fill="white"/>
<path d="M35.9019 40.404C29.2907 40.404 27.3384 31.064 27.2718 30.6647C27.2274 30.4872 27.2718 30.3319 27.3605 30.1766C27.4493 30.0435 27.6046 29.9326 27.7821 29.9104C28.7138 29.7329 29.6456 29.511 30.5109 29.2448C33.6168 28.2909 37.1221 28.2465 40.6273 29.0895C42.4909 29.5332 43.9551 29.3779 43.9551 29.3779C44.1548 29.3779 44.3544 29.4223 44.4875 29.5776C44.6207 29.7107 44.6872 29.9104 44.665 30.11C44.5985 30.5316 43.0455 40.404 35.9019 40.404ZM28.6695 31.0418C29.2019 33.0385 31.2208 39.1172 35.9019 39.1172C40.9157 39.1172 42.7571 32.9054 43.2674 30.6869C42.5796 30.6869 41.5369 30.6203 40.3389 30.3319C37.0555 29.5554 33.7721 29.5998 30.888 30.465C30.1781 30.6869 29.4238 30.8643 28.6695 31.0196V31.0418Z" fill="white"/>
<path d="M51.3652 55.9777H20.5721C20.2171 55.9777 19.9287 55.6893 19.9287 55.3343V48.9672C19.9287 46.2162 21.9919 43.9089 24.6985 43.5761L29.4018 42.9993C30.5111 42.8662 31.9753 41.4464 32.1971 40.2705L32.419 38.9394C32.4634 38.7398 32.5965 38.5623 32.774 38.4735C32.9514 38.3848 33.1733 38.3848 33.373 38.4735C34.1494 38.9172 35.0147 39.1391 35.9021 39.1391C36.856 39.1391 37.7434 38.9172 38.5643 38.4735C38.7418 38.3848 38.9637 38.3626 39.1411 38.4735C39.3186 38.5623 39.4517 38.7398 39.4961 38.9394L39.7179 40.3149C39.9398 41.4685 41.404 42.8884 42.5133 43.0215L47.2166 43.5983C49.9454 43.9311 51.9864 46.2606 51.9864 48.9893V55.3565C51.9864 55.7115 51.698 55.9999 51.343 55.9999L51.3652 55.9777ZM21.1933 54.6909H50.7218V48.9672C50.7218 46.8596 49.1467 45.0847 47.0613 44.8407L42.358 44.2639C40.6941 44.0642 38.8083 42.245 38.4534 40.5146L38.3646 39.9599C37.5882 40.2705 36.7451 40.4258 35.8799 40.4258C35.0591 40.4258 34.2826 40.2705 33.5283 39.9821L33.4395 40.5146C33.0846 42.2672 31.1988 44.0864 29.5349 44.2861L24.8316 44.8629C22.7462 45.1069 21.1711 46.8817 21.1711 48.9893V54.7131L21.1933 54.6909Z" fill="white"/>
<path d="M43.1563 24.741H28.7137C28.3587 24.741 28.0703 24.4526 28.0703 24.0976V18.1742C28.0703 16.9762 29.0465 16 30.2445 16H41.6255C42.8235 16 43.7996 16.9762 43.7996 18.1742V24.0976C43.7996 24.4526 43.5112 24.741 43.1563 24.741ZM29.3571 23.4542H42.5129V18.1742C42.5129 17.6861 42.1136 17.2867 41.6255 17.2867H30.2445C29.7564 17.2867 29.3571 17.6861 29.3571 18.1742V23.4542Z" fill="white"/>
<path d="M27.8926 31.197C27.582 31.197 27.3158 30.9752 27.2715 30.6646C27.2493 30.5093 26.739 26.9818 28.1367 23.8537C28.2476 23.6319 28.4694 23.4766 28.7135 23.4766H43.023C43.267 23.4766 43.5111 23.6319 43.5998 23.8537C44.8865 26.7822 44.6647 29.9546 44.6647 30.0878C44.6425 30.4427 44.3319 30.709 43.9769 30.6868C43.622 30.6646 43.3557 30.354 43.3779 29.999C43.3779 29.9768 43.5554 27.2702 42.5793 24.7633H29.1128C28.0479 27.4699 28.4916 30.4427 28.4916 30.4871C28.536 30.8421 28.3142 31.1527 27.9592 31.2192C27.937 31.2192 27.8927 31.2192 27.8705 31.2192L27.8926 31.197Z" fill="white"/>
<path d="M35.9684 22.8552C34.5929 22.8552 33.4614 21.7459 33.4614 20.3482C33.4614 18.9506 34.5707 17.8413 35.9684 17.8413C37.366 17.8413 38.4753 18.9506 38.4753 20.3482C38.4753 21.7459 37.366 22.8552 35.9684 22.8552ZM35.9684 19.1502C35.3028 19.1502 34.7482 19.7049 34.7482 20.3704C34.7482 21.036 35.3028 21.5906 35.9684 21.5906C36.6339 21.5906 37.1886 21.036 37.1886 20.3704C37.1886 19.7049 36.6339 19.1502 35.9684 19.1502Z" fill="white"/>
<path d="M34.1049 20.9918H28.6917C28.3367 20.9918 28.0483 20.7034 28.0483 20.3485C28.0483 19.9935 28.3367 19.7051 28.6917 19.7051H34.1049C34.4599 19.7051 34.7483 19.9935 34.7483 20.3485C34.7483 20.7034 34.4599 20.9918 34.1049 20.9918Z" fill="white"/>
<path d="M43.1568 20.9918H37.8323C37.4774 20.9918 37.189 20.7034 37.189 20.3485C37.189 19.9935 37.4774 19.7051 37.8323 19.7051H43.1568C43.5118 19.7051 43.8002 19.9935 43.8002 20.3485C43.8002 20.7034 43.5118 20.9918 43.1568 20.9918Z" fill="white"/>
<path d="M35.9685 45.8835C33.8388 45.8835 31.8643 45.0405 30.3779 43.5097C30.1338 43.2657 30.1338 42.8442 30.3779 42.6001C30.6219 42.3561 31.0434 42.3561 31.2875 42.6001C32.5076 43.8869 34.1716 44.5746 35.9464 44.5746C37.7212 44.5746 39.3851 43.8647 40.6053 42.6001C40.8493 42.3561 41.2486 42.3339 41.5149 42.6001C41.7589 42.8442 41.7811 43.2435 41.5149 43.5097C40.0506 45.0405 38.0539 45.8835 35.9242 45.8835H35.9685Z" fill="white"/>
<path d="M54.2047 55.9782H17.6434C17.2884 55.9782 17 55.6897 17 55.3348C17 54.9798 17.2884 54.6914 17.6434 54.6914H54.2047C54.5596 54.6914 54.848 54.9798 54.848 55.3348C54.848 55.6897 54.5596 55.9782 54.2047 55.9782Z" fill="white"/>
</svg>
