<svg width="18" height="19" viewBox="0 0 18 19" fill="none" xmlns="http://www.w3.org/2000/svg">
<path fill-rule="evenodd" clip-rule="evenodd" d="M10.1249 5C10.1249 5 9.94203 7.57143 8.8706 8.375C8.8706 8.375 9.37492 3.5 7.93004 2C7.93004 2 7.93004 4.94643 6.59075 7.35714C5.96296 8.48716 5.25146 9.60637 5.25146 11.1071C5.25146 13.25 7.85221 14 9.00363 14C10.3518 14 12.7499 13.25 12.7499 10.625C12.7499 9.00592 10.1249 5 10.1249 5Z" fill="white"/>
<path opacity="0.3" d="M6 16.5C6 15.9477 6.44772 15.5 7 15.5H11C11.5523 15.5 12 15.9477 12 16.5V17.75H6V16.5Z" fill="white"/>
</svg>
