<svg width="75" height="75" viewBox="0 0 75 75" fill="none" xmlns="http://www.w3.org/2000/svg">
<g clip-path="url(#clip0)">
<path d="M49.6968 21.796L50.4013 20.7539C50.6508 20.3723 50.8416 19.932 50.9443 19.477C53.6156 21.4437 55.8318 23.9828 57.4023 26.9183C58.3122 28.6355 60.367 29.3693 62.1576 28.6355L63.3318 28.1511C63.7428 27.975 64.1244 27.7108 64.462 27.4026C65.4306 29.9564 66.0324 32.6277 66.2379 35.3429C66.3847 37.295 68.0138 38.8067 69.9805 38.8214H71.2281C72.2702 38.8214 73.2682 38.3811 73.9874 37.6179C74.7066 36.8547 75.0588 35.8273 74.9854 34.7852C73.5031 14.8537 56.6831 -0.425173 36.7222 0.0151403C16.7467 0.455453 0.616521 16.4535 0.0294367 36.429C-0.587002 56.5073 14.7359 73.518 34.7848 74.9858C34.8729 74.9858 34.961 75.0004 35.049 75.0004C37.1185 75.0004 38.8064 73.3126 38.8064 71.2431V69.9809C38.8064 69.5846 38.733 69.1883 38.6009 68.8067C41.4482 68.7186 44.2809 68.249 46.9962 67.3977C47.9796 67.0748 48.7868 66.3703 49.2271 65.431C49.6674 64.4623 49.6968 63.3615 49.2858 62.3781L48.8015 61.204C48.64 60.837 48.4346 60.4995 48.1704 60.2059C51.3993 58.7089 54.2614 56.5513 56.5657 53.8507C57.2408 53.0582 57.549 52.0161 57.4023 50.974C57.2555 49.9026 56.6684 48.9486 55.7731 48.3468L54.731 47.6423C54.4081 47.4222 54.0559 47.2607 53.6743 47.1727C53.689 47.1433 53.7183 47.1139 53.733 47.0699C53.7623 47.0259 53.8064 46.9819 53.8357 46.9378C53.8504 46.9085 53.8504 46.8938 53.8651 46.8644C57.1968 41.0817 57.1821 33.9779 53.8357 28.2098C53.8357 28.1952 53.8357 28.1805 53.821 28.1805C53.8064 28.1658 53.8064 28.1658 53.7917 28.1511C52.5441 26.0083 50.8856 24.1443 48.9189 22.6472C49.2124 22.3977 49.4766 22.1188 49.6968 21.796ZM36.2966 71.2431C36.2966 71.5953 36.1498 71.9329 35.8856 72.1678C35.6361 72.4026 35.2985 72.52 34.961 72.4906C16.5999 71.155 2.42181 55.8321 2.48051 37.4271C2.53922 19.022 16.8347 3.80183 35.1958 2.58363C35.959 2.5396 36.7222 2.51025 37.4854 2.51025C55.8318 2.5396 71.0667 16.659 72.4903 34.9613C72.5197 35.3136 72.4023 35.6511 72.1528 35.9006C71.9179 36.1648 71.5804 36.3116 71.2281 36.3116H69.9805C69.3201 36.3116 68.777 35.7979 68.7477 35.1374C68.4394 30.9838 67.28 26.9476 65.3573 23.249C65.3132 23.1462 65.2839 23.0435 65.2252 22.9408C61.4091 15.705 54.8925 10.2451 47.0989 7.74997C45.8367 7.35369 44.5451 7.03079 43.2535 6.79596H43.2242C42.3142 6.63451 41.4189 6.50242 40.5089 6.41436C40.2594 6.385 39.9952 6.37032 39.7457 6.35565C39.1733 6.31162 38.6156 6.28226 38.0432 6.28226C37.5148 6.26758 36.9864 6.28226 36.4433 6.29694C36.2085 6.31162 35.959 6.31162 35.7242 6.32629C35.6361 6.32629 35.548 6.32629 35.4453 6.34097C35.0784 6.37032 34.7261 6.42903 34.3592 6.47306C33.9042 6.51709 33.4492 6.56113 32.9942 6.61983C32.3338 6.72257 31.6733 6.85467 31.0275 6.98676C30.8073 7.03079 30.6019 7.07482 30.3817 7.11886C29.6332 7.29498 28.8993 7.50046 28.1801 7.73529C28.048 7.77933 27.9013 7.80868 27.7692 7.86739C27.05 8.10222 26.3455 8.38109 25.6557 8.65995C25.4942 8.73334 25.3328 8.79204 25.1713 8.85075C24.5549 9.11494 23.9531 9.40848 23.3514 9.7167C23.1019 9.8488 22.8377 9.96621 22.5882 10.113C22.1185 10.3772 21.6635 10.6414 21.2085 10.9202C20.8269 11.1404 20.4747 11.3752 20.1077 11.61C19.7995 11.8155 19.4913 12.0504 19.1831 12.2705C18.6987 12.6228 18.2291 12.975 17.7741 13.3419C17.5979 13.4887 17.4218 13.6355 17.2604 13.7823C16.7026 14.2519 16.1596 14.7363 15.6459 15.25C15.5578 15.338 15.4844 15.4261 15.3964 15.4995C14.824 16.0719 14.2662 16.659 13.7525 17.2754C13.6938 17.3341 13.6498 17.4075 13.5911 17.4809C13.0627 18.112 12.5637 18.7431 12.094 19.4183C12.006 19.5504 11.9179 19.6971 11.8152 19.8292C11.4042 20.4163 11.0079 21.0181 10.641 21.6492C10.4355 21.9868 10.2594 22.3537 10.0686 22.7059C9.87778 23.0582 9.65762 23.4104 9.48149 23.7774C9.43746 23.8654 9.39343 23.9682 9.3494 24.0562C9.26134 24.2324 9.18795 24.4232 9.09989 24.5993C8.82103 25.2304 8.54216 25.8468 8.30733 26.4926C8.21926 26.7128 8.14588 26.9329 8.05782 27.1678C7.82298 27.8282 7.60283 28.5034 7.41202 29.1932C7.36799 29.34 7.32396 29.4868 7.27993 29.6335C7.0451 30.4995 6.86897 31.3654 6.70752 32.246V32.2607C5.73883 37.7793 6.29656 43.4594 8.29265 48.6844C8.43942 49.0807 8.60087 49.4623 8.77699 49.8439C8.79167 49.8879 8.82103 49.9466 8.8357 49.9907C8.98247 50.3429 9.14392 50.6805 9.32005 51.0327C9.40811 51.2089 9.48149 51.3997 9.56956 51.5758C9.62827 51.7079 9.70165 51.8253 9.77504 51.9574C11.2427 54.8194 13.1508 57.4319 15.4257 59.7069C15.6459 59.9271 15.8954 60.1179 16.1155 60.338C16.277 60.4848 16.4384 60.6462 16.6146 60.793C17.1429 61.2774 17.686 61.7323 18.2584 62.1727C18.5373 62.3928 18.8161 62.5983 19.095 62.8038C19.3885 63.0239 19.6821 63.2441 19.9903 63.4349C20.5627 63.8165 21.1351 64.1834 21.7369 64.5357C21.9277 64.6384 22.1038 64.7411 22.2946 64.8586C22.9991 65.2548 23.7183 65.6218 24.4668 65.974H24.4815C24.8925 66.1648 25.2887 66.3556 25.6997 66.5171C28.7232 67.7646 31.9375 68.5132 35.1958 68.7627C35.8416 68.8214 36.3259 69.3498 36.3259 69.9955V71.2431H36.2966ZM46.9375 64.3742C46.8054 64.6824 46.5412 64.9026 46.2183 65.0053C42.5931 66.1501 38.777 66.5464 34.9756 66.1942C34.3005 66.1355 33.64 66.0474 32.9795 65.9447C32.8181 65.9153 32.6567 65.886 32.4805 65.8566C31.8201 65.7392 31.1449 65.5924 30.4991 65.431C30.323 65.3869 30.1469 65.3429 29.9707 65.2842C29.3543 65.1227 28.7525 64.9319 28.1508 64.7265C27.9159 64.6384 27.6811 64.565 27.4463 64.477C26.9619 64.3008 26.4776 64.0954 25.9932 63.8899C25.5529 63.6991 25.1126 63.4789 24.6723 63.2588C24.2907 63.068 23.8944 62.8772 23.5128 62.6717C23.0725 62.4368 22.6615 62.1726 22.2506 61.9085C21.8837 61.6883 21.5167 61.4682 21.1498 61.2186C20.7975 60.9691 20.4453 60.6903 20.1077 60.4261C19.2711 59.795 18.4639 59.1051 17.7007 58.386C17.5099 58.2098 17.3044 58.0337 17.1283 57.8576C16.9228 57.6521 16.7173 57.4319 16.5265 57.2118C16.1009 56.7568 15.6752 56.2871 15.279 55.7881C15.0735 55.5386 14.868 55.2744 14.6625 55.0102C14.2662 54.4965 13.8846 53.9682 13.5324 53.4104C13.3856 53.2049 13.2535 52.9848 13.1214 52.7646C12.7251 52.1188 12.3435 51.4584 11.9913 50.7832C11.9179 50.6511 11.8445 50.519 11.7858 50.3869C11.4042 49.6384 11.0813 48.8605 10.7731 48.0826C9.17328 44.0171 8.51281 39.6286 8.85038 35.2695C8.92377 34.3889 9.02651 33.523 9.17328 32.6717L9.18795 32.613C9.32005 31.8204 9.49617 31.0278 9.70165 30.2646C9.74568 30.1032 9.78971 29.9417 9.83375 29.7803C9.99519 29.1932 10.186 28.6208 10.3768 28.0484C10.4649 27.7842 10.5676 27.52 10.6703 27.2558C10.8758 26.7275 11.096 26.1991 11.3308 25.6707C11.4189 25.4799 11.5069 25.2744 11.595 25.0836C12.6664 22.8674 14.002 20.7979 15.6019 18.9339C17.2017 17.0553 19.0363 15.3821 21.0617 13.9731C21.2379 13.841 21.414 13.7382 21.5901 13.6355C22.0157 13.3419 22.4561 13.0778 22.8964 12.8136C23.2046 12.6374 23.5275 12.4466 23.8357 12.2852C24.1439 12.1091 24.4521 11.9623 24.7604 11.8155C25.1566 11.6247 25.5529 11.4192 25.9639 11.2431C26.0226 11.2138 26.0813 11.1991 26.14 11.1697C27.1527 10.7294 28.1801 10.3625 29.2222 10.0396C29.4424 9.98089 29.6478 9.9075 29.868 9.8488C30.3083 9.7167 30.7486 9.62864 31.1889 9.5259C31.5412 9.45251 31.8934 9.37913 32.2457 9.30574C32.5979 9.23236 32.9649 9.17365 33.3318 9.11494C34.0803 9.0122 34.8435 8.90946 35.6068 8.86543C35.8269 8.85075 36.0471 8.85075 36.2672 8.83608C36.5608 8.8214 36.869 8.80672 37.1625 8.80672C37.5441 8.80672 37.9111 8.80672 38.2927 8.8214C38.4688 8.8214 38.6449 8.83608 38.821 8.83608C49.0657 9.3351 58.2829 15.2059 63.0676 24.2764C63.1704 24.5406 63.185 24.8194 63.0823 25.0983C62.9649 25.4359 62.7007 25.7147 62.3778 25.8468L61.2036 26.3312C60.6019 26.5807 59.9121 26.3165 59.6185 25.7441C57.2555 21.3263 53.6156 17.7157 49.1537 15.3967C49.139 15.3821 49.1244 15.3674 49.095 15.3527C48.4345 15.0005 47.7594 14.6922 47.0696 14.4134C47.0255 14.3987 46.9668 14.384 46.9228 14.3547C46.2623 14.0905 45.6019 13.8556 44.9267 13.6502C44.8533 13.6208 44.7653 13.5915 44.6919 13.5621C44.4277 13.4887 44.1635 13.43 43.8846 13.3566C43.5911 13.2832 43.2976 13.1952 42.9893 13.1365C42.5197 13.0337 42.05 12.9457 41.5803 12.8723C41.3749 12.8429 41.1841 12.7989 40.9786 12.7695C40.4649 12.6962 39.9659 12.6374 39.4522 12.6081C39.2614 12.5934 39.0706 12.5787 38.8797 12.5641C38.3954 12.5347 37.9111 12.5347 37.4267 12.5347C37.1919 12.5347 36.957 12.5347 36.7222 12.5494C36.2966 12.5641 35.8856 12.5934 35.46 12.6374C35.1518 12.6668 34.8435 12.6962 34.5353 12.7255C34.1978 12.7695 33.8602 12.8282 33.5079 12.8723C33.2731 12.9163 33.0383 12.931 32.8034 12.975C32.6126 13.019 32.4218 13.0631 32.2163 13.1071L31.9522 13.1658C30.6606 13.4594 29.3837 13.8703 28.1508 14.3693L28.0334 14.4134C26.8298 14.9124 25.6703 15.4848 24.5549 16.1599C24.4228 16.2333 24.3054 16.3067 24.1733 16.3948C23.6889 16.703 23.2193 17.0259 22.7643 17.3488C22.5735 17.4956 22.3827 17.6423 22.1919 17.8038C21.9277 18.0093 21.6782 18.2147 21.4287 18.4202C21.1792 18.6257 20.915 18.8605 20.6655 19.0807C20.5627 19.1688 20.4747 19.2715 20.3719 19.3596C19.8289 19.8733 19.3152 20.4016 18.8161 20.9594C18.7428 21.0474 18.6694 21.1208 18.596 21.2089C17.8181 22.1188 17.0989 23.0729 16.4531 24.0856C16.233 24.4232 16.0275 24.7607 15.8367 25.0983C15.778 25.201 15.7046 25.3038 15.6459 25.4212C15.6312 25.4506 15.6165 25.4946 15.6019 25.5239C15.5725 25.5826 15.5285 25.656 15.4991 25.7147C14.7359 27.1384 14.1195 28.6355 13.6498 30.1766C13.5911 30.3674 13.5324 30.5729 13.4883 30.7637C13.3269 31.3214 13.1948 31.8644 13.0774 32.4222C13.004 32.7451 12.9453 33.0533 12.8866 33.3762C12.8132 33.7871 12.7545 34.1981 12.7105 34.6091C12.6664 35.02 12.6077 35.431 12.5784 35.8419C12.5637 36.0327 12.5637 36.2235 12.5637 36.4143C12.5197 37.3977 12.5343 38.3957 12.6077 39.3791C12.6224 39.6727 12.6371 39.9515 12.6664 40.2451C12.7105 40.656 12.7838 41.0817 12.8426 41.4926C12.9159 41.9036 12.9893 42.3145 13.0774 42.7402C13.1508 43.0631 13.2095 43.386 13.2975 43.7089C13.459 44.3547 13.6498 44.9858 13.8553 45.6169C13.8846 45.7049 13.8993 45.8077 13.9433 45.8958C13.958 45.9104 13.958 45.9398 13.9727 45.9545C14.2662 46.7617 14.5891 47.5543 14.9561 48.3321C14.9707 48.3468 14.9707 48.3615 14.9854 48.3909C15.3377 49.1394 15.7339 49.8586 16.1743 50.5631C16.2183 50.6365 16.2623 50.7098 16.3064 50.7832C16.7173 51.4437 17.1723 52.1042 17.6566 52.7353C17.686 52.7793 17.73 52.8233 17.7594 52.8674C18.7868 54.203 19.9463 55.4212 21.2085 56.522C21.2379 56.5513 21.2819 56.5807 21.3112 56.5954L21.3406 56.61C21.9424 57.1237 22.5735 57.6081 23.2193 58.0484C23.5275 58.2539 23.8357 58.4447 24.1439 58.6501C24.5109 58.885 24.8631 59.1051 25.2447 59.3253C25.641 59.5455 26.0373 59.7509 26.4336 59.9564C26.7418 60.1032 27.05 60.25 27.3582 60.3967C27.593 60.4995 27.8132 60.6316 28.0627 60.7343C28.3269 60.8517 28.6058 60.9251 28.8846 61.0278L29.1488 61.1306C29.7799 61.3507 30.4111 61.5562 31.0568 61.7323L31.1596 61.7617C35.6801 62.9652 40.4649 62.8772 44.9414 61.5122C45.5578 61.3067 46.233 61.6149 46.4972 62.202L46.9815 63.3762C47.1136 63.6697 47.0989 64.0513 46.9375 64.3742ZM54.9072 51.3116C54.9512 51.6345 54.8631 51.9721 54.643 52.2216C48.2144 59.6775 37.7056 62.1139 28.6498 58.2245C28.503 58.1658 28.3709 58.0924 28.2388 58.0337C27.6958 57.7842 27.1527 57.5347 26.6244 57.2411C26.4336 57.1384 26.2574 57.021 26.0666 56.9036C25.6116 56.6394 25.142 56.3605 24.7017 56.0523C24.1439 55.6707 23.6156 55.2597 23.0872 54.8194C23.0285 54.7754 22.9551 54.7314 22.9111 54.6873C21.7222 53.6746 20.6508 52.5445 19.6968 51.3116L19.6527 51.2676C19.1977 50.6658 18.7721 50.0494 18.3905 49.4183L18.3171 49.3008C17.4952 47.9652 16.82 46.5562 16.3064 45.0885C16.2917 45.0445 16.277 45.0151 16.2623 44.9711C16.0422 44.34 15.8514 43.6942 15.6899 43.0484C15.6312 42.7989 15.5725 42.5494 15.5285 42.3145C15.4404 41.8889 15.3523 41.4486 15.2936 41.023C15.2349 40.7001 15.1909 40.3772 15.1469 40.0396C15.1028 39.6873 15.0882 39.3351 15.0735 38.9828C15.0294 38.3811 15.0148 37.7793 15.0294 37.1776C15.0441 36.7813 15.0441 36.3703 15.0735 35.974C15.0882 35.6658 15.1322 35.3576 15.1762 35.0494C15.2202 34.6091 15.279 34.1687 15.3523 33.7431C15.3964 33.4936 15.4404 33.2588 15.4991 33.0093C15.6165 32.4515 15.7486 31.9085 15.9101 31.3654C15.9541 31.2333 15.9835 31.0866 16.0275 30.9545C16.4825 29.5161 17.0696 28.1218 17.7741 26.8008C19.7261 23.2343 22.6028 20.2549 26.1107 18.1854C26.2721 18.0973 26.4336 18.0093 26.595 17.9065C27.094 17.6277 27.5931 17.3781 28.1214 17.1286C28.3269 17.0406 28.5177 16.9378 28.7232 16.8498C29.3983 16.5562 30.1028 16.292 30.8073 16.0719C30.8514 16.0572 30.8954 16.0425 30.9541 16.0279C31.6293 15.8224 32.3338 15.6462 33.0383 15.4995C33.2731 15.4554 33.5226 15.4114 33.7721 15.3674C34.1537 15.3087 34.5353 15.2353 34.9023 15.1913C35.1224 15.1619 35.3279 15.1472 35.548 15.1326C35.9884 15.0885 36.4287 15.0592 36.8543 15.0445H37.3386C37.823 15.0445 38.3073 15.0445 38.7917 15.0738C38.9238 15.0738 39.0559 15.0885 39.188 15.1032C39.6723 15.1326 40.1713 15.1913 40.6557 15.25C40.8171 15.2793 40.9786 15.3087 41.14 15.3234C41.5803 15.3967 42.0207 15.4701 42.4463 15.5729C42.7105 15.6316 42.9747 15.705 43.2535 15.7783C43.5617 15.8517 43.87 15.9398 44.1782 16.0279C44.8093 16.2187 45.4257 16.4388 46.0422 16.6883L46.1156 16.7177C46.7614 16.9819 47.3925 17.2754 48.0089 17.5983C48.2731 17.7598 48.4639 18.0093 48.5373 18.3175C48.6254 18.6697 48.5666 19.0513 48.3612 19.3449L47.6567 20.387C47.2751 20.9153 46.5559 21.0768 45.9981 20.7686C45.7486 20.6365 45.4991 20.5484 45.2496 20.4457C45.0001 20.3282 44.7946 20.2402 44.5598 20.1374C44.1048 19.9466 43.6498 19.7999 43.1801 19.6531C43.0921 19.6237 43.004 19.5944 42.916 19.565C35.8416 17.4075 28.1655 19.6531 23.366 25.2891C23.2927 25.3772 23.2046 25.4652 23.1165 25.568C22.8377 25.9055 22.5882 26.2431 22.3386 26.5954C22.2212 26.7421 22.1038 26.8889 22.0011 27.0504C21.9864 27.0797 21.9717 27.1091 21.957 27.1237C21.7809 27.3733 21.6341 27.6521 21.4727 27.9163C21.4433 27.975 21.3993 28.0337 21.37 28.0924C21.3406 28.1218 21.3259 28.1365 21.2966 28.1658C21.2819 28.1952 21.2819 28.2245 21.2672 28.2392C21.1645 28.4153 21.0617 28.5768 20.9737 28.7382C20.9443 28.7823 20.9296 28.8116 20.9003 28.8703C20.3866 29.8537 19.961 30.8811 19.6234 31.9378C19.5647 32.1286 19.5206 32.3194 19.4619 32.5102C19.3739 32.8478 19.2711 33.2001 19.1977 33.5523C19.139 33.8312 19.095 34.11 19.0363 34.4036C18.9923 34.6678 18.9482 34.9173 18.9042 35.1815C18.8602 35.5044 18.8308 35.8273 18.8161 36.1502C18.8015 36.3703 18.7868 36.5905 18.7868 36.8106C18.7721 37.1629 18.7721 37.5004 18.7721 37.8527C18.7721 38.0582 18.7868 38.249 18.8015 38.4545C18.8161 38.8067 18.8308 39.1736 18.8748 39.5259C18.8895 39.6873 18.9189 39.8488 18.9482 40.0102C18.9923 40.3772 19.0363 40.7441 19.1097 41.111C19.1831 41.4779 19.2858 41.8155 19.3739 42.1678C19.4179 42.3439 19.4473 42.5053 19.506 42.6815C19.6087 43.019 19.7114 43.3566 19.8289 43.6795C19.9022 43.885 19.961 44.0758 20.0343 44.2813C20.1664 44.5895 20.2838 44.9124 20.4306 45.2059C20.5187 45.4114 20.6214 45.6316 20.7242 45.837C20.8709 46.1159 21.003 46.3948 21.1645 46.6736C21.2966 46.9085 21.4433 47.1433 21.5901 47.3781C21.7369 47.613 21.869 47.8478 22.0304 48.068C22.2359 48.3762 22.4707 48.6844 22.6909 48.9779C22.8083 49.1247 22.9111 49.2715 23.0138 49.4183C23.7183 50.2842 24.4962 51.0768 25.3475 51.7959C25.3915 51.8253 25.4208 51.8547 25.4649 51.884C25.6997 52.0895 25.9492 52.2656 26.1987 52.4564C26.4482 52.6472 26.7124 52.8527 26.9766 53.0435C27.006 53.0582 27.0206 53.0728 27.05 53.1022C27.4169 53.3517 27.7839 53.5719 28.1508 53.792L28.1655 53.8067L28.1948 53.8214L28.3416 53.9094C28.5617 54.0415 28.7819 54.1443 29.0021 54.247C29.2516 54.3791 29.5011 54.4965 29.7506 54.6139C30.0588 54.7607 30.367 54.8781 30.6752 55.0102C30.8073 55.0543 30.9248 55.0983 31.0568 55.157C37.4854 57.5934 44.7212 56.2725 49.8876 51.7226C49.9463 51.6638 50.0197 51.6198 50.0784 51.5611C50.6361 51.0621 51.1645 50.5337 51.6635 49.976C52.0745 49.477 52.7937 49.3595 53.3514 49.7118L54.3935 50.4163C54.6576 50.6218 54.8484 50.9447 54.9072 51.3116ZM50.959 28.3566L49.9169 28.9584C49.5207 29.1785 49.2858 29.5895 49.2858 30.0445C49.2858 30.4995 49.5207 30.9104 49.9169 31.1306C50.3132 31.3507 50.7829 31.3507 51.1792 31.1306L52.2066 30.5288C52.8083 31.7764 53.2486 33.0973 53.5128 34.4623C53.6302 35.064 53.7036 35.6805 53.7477 36.2969H52.5441C51.8543 36.2969 51.2966 36.8547 51.2966 37.5445C51.2966 38.2343 51.8543 38.792 52.5441 38.792H53.7477C53.6009 40.7881 53.0725 42.7549 52.1919 44.5601L51.1645 43.9584C50.7829 43.7382 50.2985 43.7235 49.9023 43.9584C49.506 44.1785 49.2711 44.6042 49.2711 45.0445C49.2711 45.4848 49.5207 45.9104 49.9023 46.1306L50.9443 46.7323C50.46 47.4222 49.9316 48.0826 49.3445 48.6991C49.1537 48.9046 48.9629 49.11 48.7574 49.3008C48.552 49.4916 48.3171 49.7118 48.097 49.9026C47.9355 50.0347 47.7741 50.1815 47.6126 50.3136C47.3191 50.5484 47.0255 50.7539 46.7173 50.974L46.1156 49.932C45.8954 49.5357 45.4844 49.3008 45.0295 49.3008C44.5745 49.3008 44.1635 49.5357 43.9434 49.932C43.7232 50.3282 43.7232 50.7979 43.9434 51.1942L44.5451 52.2216C43.2976 52.8233 41.9766 53.2637 40.6116 53.5278C40.0099 53.6453 39.3935 53.7186 38.777 53.7627V52.5592C38.777 51.8693 38.2193 51.3116 37.5295 51.3116C36.8396 51.3116 36.2819 51.8693 36.2819 52.5592V53.7627C34.6234 53.6453 32.9942 53.2637 31.4385 52.6325C31.3651 52.6032 31.2917 52.5738 31.2183 52.5445C30.9835 52.4417 30.7486 52.3243 30.5138 52.2069L31.1009 51.1795C31.4385 50.5777 31.233 49.8145 30.6459 49.477C30.0441 49.1394 29.2956 49.3302 28.9433 49.932L28.3416 50.974C28.1214 50.8126 27.9013 50.6511 27.6958 50.4897C27.4756 50.3282 27.2702 50.1815 27.0647 50.0053C26.2868 49.3595 25.5676 48.6257 24.9218 47.8478C24.8631 47.7744 24.8044 47.701 24.7457 47.6276C24.5255 47.3488 24.3201 47.0552 24.1146 46.7764L25.1566 46.1746C25.5529 45.9545 25.7878 45.5435 25.7878 45.0885C25.7878 44.6335 25.5529 44.2226 25.1566 44.0024C24.7604 43.7822 24.2907 43.7822 23.8944 44.0024L22.867 44.6042C22.7936 44.4574 22.7202 44.2959 22.6469 44.1492C22.5441 43.929 22.4561 43.7089 22.368 43.474C22.2799 43.2392 22.1919 43.0044 22.1185 42.7548C22.0451 42.52 21.957 42.2999 21.8983 42.065C21.8103 41.7568 21.7369 41.4486 21.6782 41.1404C21.6048 40.8321 21.5461 40.4946 21.4874 40.1717C21.4287 39.8488 21.3846 39.5552 21.3553 39.247C21.3406 39.1003 21.3406 38.9682 21.3259 38.8214H22.5148C23.2046 38.8214 23.7623 38.2637 23.7623 37.5738C23.7623 36.884 23.2046 36.3263 22.5148 36.3263H21.3112V36.2969C21.3259 36.0474 21.3553 35.8126 21.3846 35.5777C21.414 35.3136 21.458 35.0347 21.5167 34.7705C21.5461 34.565 21.5901 34.3596 21.6341 34.1394C21.7075 33.7871 21.7956 33.4496 21.8983 33.112C21.9277 32.9799 21.957 32.8625 22.0011 32.7304C22.2359 31.9819 22.5294 31.2627 22.8817 30.5582L23.9091 31.1453C24.2907 31.3654 24.775 31.3801 25.1713 31.1453C25.5676 30.9251 25.8024 30.4995 25.8024 30.0592C25.8024 29.6042 25.5529 29.1932 25.1713 28.9731L24.1439 28.3713C24.2613 28.2098 24.3788 28.0484 24.4962 27.8869C24.6576 27.6668 24.8191 27.432 24.9952 27.2118C25.1273 27.065 25.2447 26.9329 25.3768 26.7862C25.6116 26.522 25.8465 26.2578 26.096 26.0083C26.1694 25.9349 26.2428 25.8762 26.3161 25.8028C26.9473 25.201 27.6371 24.6433 28.3563 24.1443L28.958 25.1864C29.1782 25.5826 29.5891 25.8175 30.0441 25.8175C30.4991 25.8175 30.9101 25.5826 31.1302 25.1864C31.3504 24.7901 31.3504 24.3204 31.1302 23.9241L30.5285 22.8821C31.776 22.2803 33.097 21.84 34.4619 21.5758C35.0784 21.4584 35.6948 21.385 36.3113 21.341V22.5445C36.3113 23.2343 36.869 23.792 37.5588 23.792C38.2486 23.792 38.8064 23.2343 38.8064 22.5445V21.3263C39.4962 21.385 40.186 21.4731 40.8612 21.6198C41.0373 21.6639 41.2134 21.6932 41.3895 21.7372C41.6244 21.796 41.8445 21.8547 42.0794 21.928C42.4169 22.0308 42.7398 22.1335 43.0774 22.2509C43.1801 22.295 43.2976 22.3243 43.4003 22.3684C43.7966 22.5298 44.1929 22.7059 44.5891 22.8967L43.9874 23.9388C43.7672 24.3204 43.7526 24.8048 43.9874 25.201C44.2075 25.5973 44.6332 25.8322 45.0735 25.8322C45.5285 25.8322 45.9394 25.5826 46.1596 25.201L46.7614 24.159C48.3905 25.2744 49.8289 26.6981 50.959 28.3566Z" fill="black"/>
<path d="M46.3062 36.2969H38.7915V27.5347C38.7915 26.8448 38.2338 26.2871 37.5439 26.2871C36.8541 26.2871 36.2964 26.8448 36.2964 27.5347V37.5444C36.2964 38.2343 36.8541 38.792 37.5439 38.792H46.3062C46.996 38.792 47.5537 38.2343 47.5537 37.5444C47.5537 36.8546 46.996 36.2969 46.3062 36.2969Z" fill="black"/>
</g>
<defs>
<clipPath id="clip0">
<rect width="74.9853" height="75" fill="white"/>
</clipPath>
</defs>
</svg>
