<svg width="48" height="48" viewBox="0 0 48 48" fill="none" xmlns="http://www.w3.org/2000/svg">
<g clip-path="url(#clip0_387_26452)">
<path d="M46.5421 22.4153C45.9027 22.4488 45.4231 22.4289 44.2186 22.4289C43.7865 22.3757 43.3587 22.5559 43.0947 22.9021C42.6742 23.4352 42.1211 23.5655 41.1892 23.3537C40.2452 23.129 39.3508 22.8166 38.095 22.4936C39.3469 15.3469 36.4597 8.10548 30.6342 3.78066C24.8086 -0.544152 17.0413 -1.2123 10.5627 2.05415C4.08419 5.32059 0.002636 11.9626 0.0156561 19.2181C0.0213699 29.8105 8.60674 38.3959 19.1992 38.4016C23.8685 38.4714 28.3726 36.6746 31.7116 33.4098C32.2045 33.1493 32.5247 32.6492 32.5549 32.0926C32.5694 31.8024 32.5637 31.4859 32.5918 31.3364C32.6146 30.9272 32.7992 30.5439 33.1049 30.2709C33.5437 29.9871 34.5061 30.3028 34.5892 30.3164C35.0615 30.4379 35.5332 30.5562 36.0064 30.7032C36.8193 30.9628 37.6755 31.0593 38.5258 30.987C37.9775 31.505 37.4228 32.0133 36.876 32.5128C36.1734 33.1523 35.47 33.7998 34.7842 34.4592C31.5302 37.5765 29.9172 41.5523 29.854 46.6088C29.8226 46.9863 29.9498 47.3598 30.2049 47.6399C30.4892 47.893 30.8646 48.0189 31.2439 47.9885L38.7383 47.9964H38.7935C39.1816 48.023 39.5644 47.8954 39.859 47.6415C40.1415 47.3377 40.2861 46.9308 40.2587 46.5169C40.3022 43.2579 41.0303 40.0444 42.396 37.085C42.9865 35.8246 43.6484 34.5989 44.3784 33.4138C44.8404 32.6297 45.3192 31.82 45.7532 30.9966C47.0123 28.8204 47.771 26.3911 47.9744 23.8851V23.874C48.0198 23.4677 47.8912 23.0612 47.6204 22.7549C47.3255 22.4939 46.9335 22.3703 46.5421 22.4153ZM1.63426 18.4187C1.7772 15.1919 2.81113 12.0678 4.62129 9.39287C6.12206 9.85972 7.65497 10.2163 9.20772 10.46C8.46699 13.0498 8.06767 15.7254 8.0199 18.4187H1.63426ZM10.812 10.6997C13.3289 11.0219 15.8626 11.1951 18.3999 11.2185V18.4187H9.61865C9.66886 15.8039 10.0702 13.2077 10.812 10.6997ZM30.3784 18.4187C30.3308 15.7254 29.9314 13.0498 29.1906 10.46C30.7425 10.2162 32.2747 9.85963 33.7747 9.39287C35.5857 12.0676 36.6205 15.1918 36.7642 18.4187H30.3784ZM28.7798 18.4187H19.9985V11.2185C22.5359 11.1951 25.0695 11.0219 27.5864 10.6997C28.3282 13.2077 28.7296 15.8039 28.7798 18.4187ZM19.9985 9.61983V1.69867C22.9168 2.14313 25.4674 4.98947 27.0589 9.15711C24.7158 9.44261 22.3587 9.59707 19.9985 9.61983ZM18.3999 1.69867V9.61983C16.0397 9.59707 13.6826 9.44252 11.3395 9.15701C12.931 4.99022 15.4816 2.14313 18.3999 1.69867ZM18.3999 20.0173V27.2247C15.8721 27.2448 13.3478 27.4172 10.8408 27.7411C10.0855 25.2339 9.6757 22.6354 9.62259 20.0173H18.3999ZM18.3999 28.8234V36.7366C15.6151 36.2938 12.9989 33.5209 11.366 29.2838C13.6999 28.9966 16.0484 28.8429 18.3999 28.8234ZM19.9985 28.8234C21.9841 28.8458 23.8624 28.9537 25.6073 29.1431L25.6017 31.9919C25.5959 32.4189 25.7619 32.8304 26.0626 33.1337C26.3633 33.4371 26.7732 33.6068 27.2003 33.6048H28.9852C26.398 35.5805 23.2527 36.6881 19.9985 36.7693V28.8234ZM25.6017 24.0275L25.608 27.5445C23.8559 27.3583 21.9776 27.2527 19.9985 27.2304V20.0173H28.7654C28.7446 20.8289 28.6913 21.6322 28.6055 22.4273C28.1179 22.4273 27.6335 22.4273 27.1963 22.4273C26.7726 22.4247 26.3655 22.5918 26.0659 22.8915C25.7662 23.1911 25.5991 23.5982 25.6017 24.0219V24.0275ZM30.364 20.0173H36.7585C36.7245 20.7442 36.6445 21.4683 36.5188 22.185C34.4989 21.9213 32.9051 22.261 31.7604 23.2098C31.4698 22.7202 30.9415 22.4212 30.3721 22.4241H30.2066C30.2912 21.6285 30.3438 20.8263 30.364 20.0173ZM32.762 8.03326C31.426 8.41609 30.0671 8.71377 28.6934 8.92452C27.89 6.54485 26.5706 4.37219 24.8295 2.56202C27.9288 3.61524 30.6742 5.50952 32.7588 8.03335L32.762 8.03326ZM13.5784 2.56193C11.8374 4.37219 10.518 6.54485 9.71457 8.92443C8.34091 8.71367 6.98204 8.41599 5.64604 8.03316C7.72971 5.5099 10.4739 3.61562 13.5721 2.56183L13.5784 2.56193ZM1.64551 20.0173H8.02402C8.07667 22.7097 8.48441 25.3833 9.23658 27.9689C7.67698 28.2113 6.13752 28.5691 4.63094 29.0392C2.81806 26.3671 1.78432 23.2434 1.64551 20.0173ZM5.63648 30.4028C6.98673 30.0156 8.36077 29.7163 9.74979 29.5068C10.5568 31.904 11.8877 34.0914 13.6456 35.9101C10.5076 34.8712 7.72971 32.9611 5.63648 30.4028ZM44.3416 30.243C43.9251 31.0334 43.4568 31.8272 43.0035 32.5954C42.2427 33.8325 41.554 35.1125 40.9404 36.4289C39.5077 39.5601 38.7329 42.952 38.664 46.3948L31.4566 46.3868C31.562 41.8979 33.0136 38.3721 35.8919 35.6128C36.569 34.9614 37.2628 34.3268 37.9557 33.6945C38.7326 32.9831 41.0595 30.8545 41.9347 29.8282C42.285 29.4198 42.2657 28.8114 41.8899 28.4262C41.5534 28.0111 40.9473 27.9402 40.524 28.2663C39.994 28.586 39.1651 29.9648 36.4658 29.1728C35.9767 29.0241 35.4827 28.8954 34.9871 28.7683C34.0871 28.4427 33.0929 28.5005 32.2367 28.9282C31.5482 29.4299 31.1053 30.2005 31.0185 31.048C30.9738 31.3657 30.9533 31.6863 30.9569 32.0071H27.2001C27.2001 31.9272 27.1954 23.484 27.1954 24.022C28.1825 24.0276 29.4071 24.0292 30.3926 24.022V25.2529C30.3918 25.6258 30.649 25.9497 31.0123 26.0334C31.3756 26.1172 31.7487 25.9386 31.9112 25.6029C32.7634 23.8588 34.4539 23.3281 37.2218 23.9244C38.3832 24.1834 39.611 24.6262 40.8316 24.9148C42.0418 25.3151 43.3743 24.9713 44.2398 24.0355C44.3197 24.0355 45.8473 24.0483 46.3692 24.0314C46.1366 26.2215 45.4457 28.3382 44.3414 30.2437V30.243H44.3416Z" fill="#0D4EE3"/>
</g>
<defs>
<clipPath id="clip0_387_26452">
<rect width="48" height="48" fill="white"/>
</clipPath>
</defs>
</svg>
