<svg width="49" height="50" viewBox="0 0 49 50" fill="none" xmlns="http://www.w3.org/2000/svg">
<path d="M35.3004 12.9C35.8004 12.9 36.2004 12.5 36.2004 12V6.9C36.2004 6.4 35.8004 6 35.3004 6C34.8004 6 34.4004 6.4 34.4004 6.9V12.1C34.5004 12.5 34.9004 12.9 35.3004 12.9Z" fill="#ED2939"/>
<path d="M35.3004 4.29999C35.8004 4.29999 36.2004 3.89999 36.2004 3.39999V1.69999C36.2004 1.19999 35.8004 0.799988 35.3004 0.799988C34.8004 0.799988 34.4004 1.19999 34.4004 1.69999V3.39999C34.5004 3.89999 34.9004 4.29999 35.3004 4.29999Z" fill="#3DA8FB"/>
<path d="M40.4996 12.1C40.9996 12.1 41.3996 11.7 41.3996 11.2V0.9C41.3996 0.4 40.9996 0 40.4996 0C39.9996 0 39.5996 0.4 39.5996 0.9V11.2C39.6996 11.7 39.9996 12.1 40.4996 12.1Z" fill="#3DA8FB"/>
<path d="M44.8 12.9C45.3 12.9 45.7 12.5 45.7 12V10.3C45.7 9.80002 45.3 9.40002 44.8 9.40002C44.3 9.40002 44 9.90003 44 10.3V12C44 12.5 44.4 12.9 44.8 12.9Z" fill="#ED2939"/>
<path d="M44.8 7.79998C45.3 7.79998 45.7 7.39998 45.7 6.89998V5.99998C45.7 5.49998 45.3 5.09998 44.8 5.09998C44.3 5.09998 44 5.59998 44 5.99998V6.89998C44 7.39998 44.4 7.79998 44.8 7.79998Z" fill="#3DA8FB"/>
<path d="M16.4 3.4C16.9 3.4 17.3 3 17.3 2.5V0.9C17.3 0.4 16.9 0 16.4 0C15.9 0 15.5 0.4 15.5 0.9V2.6C15.5 3.1 15.9 3.4 16.4 3.4Z" fill="#3DA8FB"/>
<path d="M16.4 6.89999C16.9 6.89999 17.3 6.49999 17.3 5.99999V5.19999C17.3 4.69999 16.9 4.29999 16.4 4.29999C15.9 4.29999 15.5 4.69999 15.5 5.19999V5.99999C15.5 6.49999 15.9 6.89999 16.4 6.89999Z" fill="#ED2939"/>
<path d="M21.6002 5.2C22.1002 5.2 22.5002 4.8 22.5002 4.3V0.9C22.4002 0.4 22.0002 0 21.6002 0C21.2002 0 20.7002 0.4 20.7002 0.9V4.3C20.7002 4.8 21.1002 5.2 21.6002 5.2Z" fill="#3DA8FB"/>
<path d="M25.9 6.90002C26.4 6.90002 26.8 6.50002 26.8 6.00002V4.30002C26.8 3.80002 26.4 3.40002 25.9 3.40002C25.4 3.40002 25 3.80002 25 4.30002V6.00002C25 6.50002 25.4 6.90002 25.9 6.90002Z" fill="#ED2939"/>
<path d="M29.3 24.1C29.3 22.3 29.8 20.5 30.7 18.9H28C26.6 21.1 24.1 22.3 21.6 22.3C19.1 22.3 16.6 21 15.2 18.9H2.6C1.2 19 0 20.1 0 21.6V38.8H5.2C5.7 38.8 6.1 39.2 6.1 39.7C6.1 40.2 5.7 40.6 5.2 40.6H0V44.9H44.8V40.6H12.1C11.6 40.6 11.2 40.2 11.2 39.7C11.2 39.2 11.6 38.8 12.1 38.8H44.9V33.1C41.7 35 37.8 35 34.6 33.1C31.3 31.3 29.3 27.8 29.3 24.1ZM6 21.6C7 21.6 7.9 22 8.6 22.8C9.5 21.7 11.1 21.3 12.4 21.8C13.7 22.3 14.6 23.6 14.6 25C14.6 26.4 13.7 27.7 12.4 28.2C11.1 28.7 9.5 28.3 8.6 27.2C7.6 28.4 5.8 28.7 4.4 28C3 27.3 2.3 25.7 2.6 24.1C3.1 22.6 4.4 21.5 6 21.6ZM6 35.3H4.3C3.8 35.3 3.4 34.9 3.4 34.4C3.4 33.9 3.8 33.5 4.3 33.5H6C6.5 33.5 6.9 33.9 6.9 34.4C6.9 35 6.5 35.3 6 35.3ZM16.4 35.3H9.5C9 35.3 8.6 34.9 8.6 34.4C8.6 33.9 9 33.5 9.5 33.5H16.4C16.9 33.5 17.3 33.9 17.3 34.4C17.2 35 16.9 35.3 16.4 35.3Z" fill="#0A4586"/>
<path d="M39.6996 15.5C34.8996 15.5 31.0996 19.4 31.0996 24.1C31.0996 28.8 34.9996 32.7 39.6996 32.7C44.3996 32.7 48.2996 28.8 48.2996 24.1C48.2996 19.4 44.3996 15.5 39.6996 15.5ZM39.6996 23.5C40.8996 23.5 41.9996 24.4 42.1996 25.7C42.3996 27 41.5996 28.1 40.3996 28.4V29.1C40.3996 29.4 40.0996 29.7 39.7996 29.7C39.4996 29.7 38.9996 29.4 38.9996 29.1V28.4C37.8996 28.1 37.0996 27.1 37.0996 26C37.0996 25.7 37.3996 25.4 37.6996 25.4C37.9996 25.4 38.2996 25.7 38.2996 26C38.2996 26.5 38.5996 26.9 38.9996 27.1C39.0996 26.8 39.2996 26.6 39.5996 26.6C39.8996 26.6 40.0996 26.8 40.1996 27.1C40.6996 26.8 40.9996 26.3 40.7996 25.7C40.5996 25.1 40.1996 24.8 39.5996 24.8C38.3996 24.8 37.2996 23.9 37.0996 22.6C36.8996 21.4 37.6996 20.2 38.8996 19.9V19.2C38.8996 18.9 39.1996 18.6 39.4996 18.6C39.7996 18.6 40.0996 18.9 40.0996 19.2V19.9C41.1996 20.2 41.9996 21.2 41.9996 22.3C41.9996 22.6 41.6996 22.9 41.3996 22.9C41.0996 22.9 40.7996 22.6 40.7996 22.3C40.7996 21.8 40.4996 21.4 40.0996 21.2C39.9996 21.5 39.7996 21.7 39.4996 21.7C39.1996 21.7 38.9996 21.5 38.8996 21.2C38.3996 21.5 38.0996 22 38.2996 22.6C38.5996 23.1 39.0996 23.5 39.6996 23.5Z" fill="#ED2939"/>
<path d="M0 47.4C0 48.8 1.2 50 2.6 50H42.3C43.7 50 44.9 48.8 44.9 47.4V46.5H0V47.4Z" fill="#3DA8FB"/>
<path d="M11.2 26.7C12.1389 26.7 12.9 25.9389 12.9 25C12.9 24.0611 12.1389 23.3 11.2 23.3C10.2611 23.3 9.5 24.0611 9.5 25C9.5 25.9389 10.2611 26.7 11.2 26.7Z" fill="#ED2939"/>
<path d="M21.6003 20.7C24.9003 20.7 27.6003 18 27.6003 14.7C27.6003 11.4 24.9003 8.70001 21.6003 8.70001C18.3003 8.70001 15.6003 11.4 15.6003 14.7C15.5003 18 18.2003 20.7 21.6003 20.7ZM21.0003 12.1C21.0003 11.7 21.2003 11.5 21.5003 11.5C21.8003 11.5 22.0003 11.7 22.0003 12V12.1C22.4003 12.2 22.7003 12.5 22.9003 12.9C23.0003 13.1 23.0003 13.3 22.9003 13.4C22.8003 13.6 22.6003 13.6 22.4003 13.6C22.2003 13.6 22.0003 13.5 22.0003 13.3C21.9003 13.1 21.6003 13 21.4003 13C21.2003 13 21.0003 13.4 21.0003 13.7C21.0003 14 21.3003 14.1 21.5003 14.1C22.3003 14.1 22.9003 14.7 23.1003 15.4C23.2003 16.2 22.8003 16.9 22.1003 17.2V17.3C22.1003 17.6 21.9003 17.8 21.6003 17.8C21.3003 17.8 21.0003 17.6 21.0003 17.3V17.2C20.6003 17.1 20.3003 16.8 20.1003 16.4C20.0003 16.2 20.0003 16 20.1003 15.9C20.2003 15.7 20.4003 15.7 20.6003 15.7C20.8003 15.7 21.0003 15.8 21.0003 16C21.1003 16.2 21.4003 16.3 21.6003 16.3C21.8003 16.3 22.0003 16 22.0003 15.7C22.0003 15.4 21.7003 15.3 21.5003 15.3C20.7003 15.3 20.1003 14.7 19.9003 14C19.7003 13.3 20.3003 12.4 21.0003 12.1Z" fill="#ED2939"/>
<path d="M5.9998 26.7C6.93869 26.7 7.6998 25.9389 7.6998 25C7.6998 24.0611 6.93869 23.3 5.9998 23.3C5.06092 23.3 4.2998 24.0611 4.2998 25C4.2998 25.9389 5.06092 26.7 5.9998 26.7Z" fill="#3DA8FB"/>
</svg>
