<svg width="48" height="48" viewBox="0 0 48 48" fill="none" xmlns="http://www.w3.org/2000/svg">
<g clip-path="url(#clip0_387_26209)">
<path d="M13.5997 24H7.19986C5.43264 24 4 25.4326 4 27.1999V30.3997C4 32.1669 5.43264 33.5996 7.19986 33.5996H13.5997C15.3669 33.5996 16.7995 32.1669 16.7995 30.3997V27.1999C16.7995 25.4326 15.3669 24 13.5997 24ZM11.9997 27.1999V30.3997C11.9997 31.2834 11.2834 31.9997 10.3997 31.9997C9.51606 31.9997 8.79974 31.2834 8.79974 30.3997V27.1999C8.79974 26.3162 9.51606 25.5999 10.3997 25.5999C11.2834 25.5999 11.9997 26.3163 11.9997 27.1999ZM5.59988 30.3998V27.1999C5.59988 26.3163 6.3162 25.6 7.19986 25.6H7.64468C7.35679 26.0843 7.20323 26.6365 7.19986 27.1999V30.3998C7.20314 30.9632 7.35669 31.5155 7.64468 31.9998H7.19986C6.77556 31.9998 6.3686 31.8312 6.06852 31.5311C5.76844 31.2311 5.59988 30.8241 5.59988 30.3998ZM15.1995 30.3998C15.1995 31.2835 14.4832 31.9998 13.5996 31.9998H13.1547C13.4426 31.5155 13.5962 30.9632 13.5996 30.3998V27.1999C13.5963 26.6365 13.4427 26.0843 13.1547 25.6H13.5996C14.4832 25.6 15.1995 26.3163 15.1995 27.1999V30.3998Z" fill="#0D4EE3"/>
<path d="M34.3988 2.63728e-05C29.7773 -0.00906706 25.4688 2.33394 22.9646 6.21806C20.4603 10.1022 20.1044 14.9936 22.02 19.1994H4.79983C2.15008 19.202 0.00262491 21.3494 0 23.9992V43.1985C0.00262491 45.8483 2.15008 47.9957 4.79983 47.9983H35.1988C37.8485 47.9957 39.996 45.8483 39.9986 43.1985V25.9783C45.8373 23.3431 49.0433 16.9888 47.6935 10.7269C46.3438 4.46499 40.8046 -0.00428598 34.3988 2.63728e-05ZM44.652 19.8018L42.6841 18.4243C43.1192 17.6802 43.451 16.8803 43.6705 16.0467L46.0384 16.4643C45.7488 17.6408 45.2813 18.7662 44.652 19.8018ZM37.2635 25.2415L36.8459 22.8736C37.6796 22.6536 38.4796 22.3219 39.2243 21.8872L40.601 23.8543C39.5657 24.4835 38.4402 24.9504 37.2636 25.239V25.2415H37.2635ZM28.1966 23.852L29.5733 21.8849C30.318 22.3195 31.118 22.6514 31.9517 22.8713L31.5341 25.2393C30.3573 24.9499 29.2317 24.4821 28.1966 23.852ZM25.0592 21.1193L27.0271 19.7418C27.4002 20.1891 27.8128 20.602 28.2599 20.9753L26.8791 22.9392C26.2091 22.3993 25.599 21.7892 25.0592 21.1193ZM22.3992 13.5996C22.4001 13.1683 22.4241 12.7372 22.4712 12.3084L24.8431 12.7268C24.8175 13.0148 24.7991 13.3052 24.7991 13.5996C24.7991 13.8939 24.8175 14.1844 24.8431 14.4724L22.4712 14.8908C22.4242 14.462 22.4001 14.0309 22.3992 13.5996ZM24.1456 7.39739L26.1135 8.77491C25.6784 9.51897 25.3466 10.3188 25.1271 11.1524L22.7592 10.7349C23.0488 9.55835 23.5164 8.43282 24.1456 7.39739ZM25.1271 16.0466C25.3466 16.8802 25.6783 17.6801 26.1135 18.4242L24.1456 19.8017C23.5164 18.7661 23.0488 17.6407 22.7593 16.4642L25.1271 16.0466ZM33.5268 23.1552C33.8148 23.1808 34.1052 23.1992 34.3996 23.1992C34.694 23.1992 34.9844 23.1808 35.2724 23.1552L35.6899 25.5271C34.8323 25.6231 33.9668 25.6231 33.1092 25.5271L33.5268 23.1552ZM34.3988 21.5993C29.9807 21.5993 26.3991 18.0177 26.3991 13.5996C26.3991 9.18149 29.9807 5.59989 34.3988 5.59989C38.8169 5.59989 42.3984 9.18149 42.3984 13.5996C42.3937 18.0157 38.8149 21.5944 34.3988 21.5993ZM29.5733 5.31425L28.1966 3.34716C29.2317 2.71709 30.3572 2.24929 31.534 1.95999L31.9516 4.32794C31.118 4.54777 30.318 4.87964 29.5733 5.31425ZM36.8459 4.32784L37.2635 1.9599C38.4403 2.2492 39.5658 2.71699 40.6009 3.34706L39.2242 5.31415C38.4796 4.87964 37.6796 4.54777 36.8459 4.32784ZM46.0383 10.7349L43.6704 11.1524C43.4509 10.3188 43.1192 9.51897 42.684 8.77491L44.6519 7.39739C45.2812 8.43282 45.7488 9.55835 46.0383 10.7349ZM43.9585 14.4724C43.9841 14.1844 44.0025 13.8939 44.0025 13.5996C44.0025 13.3052 43.9841 13.0148 43.9585 12.7268L46.3304 12.3084C46.4264 13.1665 46.4264 14.0326 46.3304 14.8908L43.9585 14.4724ZM43.7385 6.07978L41.7705 7.4573C41.3974 7.00994 40.9848 6.59708 40.5378 6.22378L41.9186 4.25988C42.5884 4.79986 43.1985 5.40996 43.7385 6.07978ZM35.6892 1.672L35.2716 4.04388C34.9836 4.01829 34.6932 3.99992 34.3989 3.99992C34.1045 3.99992 33.8141 4.01829 33.5261 4.04388L33.1085 1.672C33.966 1.576 34.8316 1.576 35.6892 1.672ZM26.8791 4.25988L28.2566 6.22696C27.8095 6.60036 27.3969 7.01322 27.0238 7.46048L25.0591 6.07969C25.599 5.40996 26.2091 4.79986 26.8791 4.25988ZM38.3987 41.5985H1.59997V38.3987H38.3987V41.5985ZM35.1988 46.3984H4.79983C3.03261 46.3984 1.59997 44.9657 1.59997 43.1985H38.3987C38.3987 44.9657 36.966 46.3984 35.1988 46.3984ZM38.3987 36.7987H1.59997V23.9992C1.59997 22.232 3.03261 20.7993 4.79983 20.7993H22.8792C25.3586 24.7763 29.7123 27.195 34.3988 27.1991C35.7534 27.1832 37.0993 26.9804 38.3987 26.5967V36.7987ZM41.9186 22.9392L40.541 20.9721C40.9881 20.5987 41.4007 20.1859 41.7738 19.7386L43.7417 21.1161C43.2009 21.7872 42.5897 22.3985 41.9186 22.9392Z" fill="#0D4EE3"/>
<path d="M35.3126 7.4879C34.7633 7.1056 34.034 7.1056 33.4846 7.4879C32.3567 8.27902 27.9832 12.1229 28.8296 15.1364C29.0614 16.0542 29.6814 16.8255 30.528 17.2492C30.9312 17.446 31.369 17.5617 31.8167 17.5899L31.7367 17.7699C31.525 18.2648 31.5761 18.833 31.873 19.2821C32.1699 19.7311 32.6728 20.0006 33.2111 19.9995H35.587C36.1247 19.9996 36.6266 19.7296 36.9227 19.2808C37.2189 18.8319 37.2698 18.2644 37.0582 17.77L36.9782 17.59C37.4259 17.5618 37.8638 17.446 38.2669 17.2493C39.1135 16.8257 39.7336 16.0544 39.9653 15.1365C40.8149 12.1229 36.4414 8.27902 35.3126 7.4879ZM38.4286 14.7037C38.3166 15.1836 37.9996 15.5901 37.5614 15.8156C37.0629 16.0451 36.4918 16.0595 35.9822 15.8556C35.6817 15.7358 35.3385 15.8089 35.1127 16.0407C34.887 16.2725 34.8232 16.6175 34.951 16.9148L35.591 18.3995H33.2151L33.8551 16.9148C33.983 16.6175 33.9192 16.2725 33.6934 16.0407C33.4677 15.8089 33.1246 15.7358 32.8239 15.8556C32.3145 16.0602 31.7432 16.0458 31.2448 15.8156C30.8066 15.59 30.4895 15.1836 30.3776 14.7037C29.9016 13.0398 32.7887 9.92944 34.399 8.79988C36.0094 9.92944 38.8965 13.0397 38.4286 14.7037Z" fill="#0D4EE3"/>
<path d="M22.3991 31.998H19.9992C19.5573 31.998 19.1992 32.3563 19.1992 32.798C19.1992 33.2397 19.5573 33.5979 19.9992 33.5979H22.3991C22.8409 33.5979 23.199 33.2398 23.199 32.798C23.199 32.3562 22.8409 31.998 22.3991 31.998Z" fill="#0D4EE3"/>
<path d="M28.7995 32H26.3996C25.9577 32 25.5996 32.3582 25.5996 32.7999C25.5996 33.2417 25.9577 33.5999 26.3996 33.5999H28.7995C29.2413 33.5999 29.5994 33.2418 29.5994 32.7999C29.5994 32.3581 29.2413 32 28.7995 32Z" fill="#0D4EE3"/>
<path d="M35.1989 31.998H32.799C32.3571 31.998 31.999 32.3563 31.999 32.798C31.999 33.2397 32.3572 33.5979 32.799 33.5979H35.1989C35.6407 33.5979 35.9988 33.2398 35.9988 32.798C35.9988 32.3562 35.6407 31.998 35.1989 31.998Z" fill="#0D4EE3"/>
</g>
<defs>
<clipPath id="clip0_387_26209">
<rect width="48" height="48" fill="white"/>
</clipPath>
</defs>
</svg>
