<svg width="25" height="25" viewBox="0 0 25 25" fill="none" xmlns="http://www.w3.org/2000/svg">
<rect width="25" height="25" fill="#02BE91"/>
<g clip-path="url(#clip0_501_19415)">
<path d="M15.056 7.87165C14.3568 7.27911 13.6367 6.66442 12.9078 5.9379L12.4924 5.52539L12.0846 5.93847C10.7725 7.25406 10.1526 9.27405 9.88338 10.4859C9.67735 10.1666 9.52447 9.81595 9.43068 9.44769L9.18423 8.49626L8.46761 9.16979C7.21198 10.3484 6.37474 11.5178 6.37474 13.3903C6.35063 16.1694 8.22012 18.6086 10.9099 19.3075C11.3038 19.4034 11.7059 19.4619 12.1108 19.4823C12.2438 19.492 12.6246 19.5015 12.6899 19.4975C15.9899 19.3982 18.6128 16.693 18.61 13.3915C18.61 10.8897 16.9629 9.49136 15.056 7.87165ZM12.6052 18.3247C12.5442 18.3299 12.4888 18.3305 12.4271 18.3299C11.3376 18.2966 10.4709 17.4052 10.4682 16.3152C10.4682 15.5769 10.8642 15.2089 11.7603 14.4461C11.9863 14.2539 12.232 14.0449 12.4905 13.8055C12.717 14.0111 12.9371 14.1974 13.1404 14.3704C14.0406 15.1343 14.5105 15.5681 14.5105 16.3135C14.5084 17.3827 13.6728 18.2648 12.6052 18.3247ZM15.5283 17.2934L15.5167 17.3016C15.6212 16.9832 15.6746 16.6503 15.675 16.3152C15.675 14.9963 14.8097 14.2614 13.8944 13.4841C13.5701 13.2093 13.2353 12.9251 12.901 12.5909L12.4888 12.1792L12.0771 12.5909C11.6998 12.9676 11.3306 13.282 11.0051 13.5592C10.0921 14.336 9.30307 15.0074 9.30307 16.3152C9.3043 16.6647 9.36333 17.0115 9.47777 17.3417C8.2491 16.3983 7.53198 14.9348 7.53934 13.3857C7.52977 12.3639 7.92524 11.3799 8.63927 10.6489C8.76226 10.8984 8.90806 11.1361 9.07483 11.3587C9.32374 11.6946 9.74847 11.8505 10.1556 11.7553C10.5694 11.6631 10.8912 11.3375 10.9783 10.9226C11.2222 9.5843 11.7495 8.31366 12.5249 7.19596C13.1392 7.77824 13.7477 8.29356 14.2968 8.75999C16.1205 10.3089 17.4412 11.428 17.4412 13.3892C17.4441 14.9171 16.7371 16.3596 15.5278 17.2934H15.5283Z" fill="white"/>
</g>
<defs>
<clipPath id="clip0_501_19415">
<rect width="14" height="14" fill="white" transform="translate(5.5 5.5)"/>
</clipPath>
</defs>
</svg>
