<svg width="78" height="78" viewBox="0 0 78 78" fill="none" xmlns="http://www.w3.org/2000/svg">
<circle opacity="0.08" cx="39" cy="39" r="39" fill="url(#paint0_linear)"/>
<path d="M35.6367 22.3682H24.8144C23.4464 22.3682 22.3335 23.4811 22.3335 24.8491V35.6714C22.3335 37.0394 23.4464 38.1523 24.8144 38.1523H35.6367C37.0047 38.1523 38.1177 37.0394 38.1177 35.6713V24.8491C38.1177 23.4811 37.0047 22.3682 35.6367 22.3682ZM36.5345 35.6714C36.5345 36.1665 36.1317 36.5692 35.6367 36.5692H24.8144C24.3194 36.5692 23.9167 36.1665 23.9167 35.6714V24.8491C23.9167 24.3542 24.3194 23.9514 24.8144 23.9514H35.6367C36.1317 23.9514 36.5345 24.3542 36.5345 24.8491V35.6714Z" fill="url(#paint1_linear)"/>
<path d="M54.8749 26.9165C55.3121 26.9165 55.6665 26.5621 55.6665 26.1249V24.8491C55.6665 23.4811 54.5536 22.3682 53.1856 22.3682H42.3633C40.9953 22.3682 39.8823 23.4811 39.8823 24.8491V35.6714C39.8823 37.0394 40.9953 38.1524 42.3633 38.1524H53.1856C54.5536 38.1524 55.6665 37.0395 55.6665 35.6714V28.9901C55.6665 28.5529 55.3121 28.1985 54.8749 28.1985C54.4377 28.1985 54.0833 28.5529 54.0833 28.9901V35.6714C54.0833 36.1665 53.6806 36.5692 53.1856 36.5692H42.3633C41.8683 36.5692 41.4655 36.1665 41.4655 35.6714V24.8491C41.4655 24.3542 41.8683 23.9514 42.3633 23.9514H53.1856C53.6806 23.9514 54.0833 24.3542 54.0833 24.8491V26.1249C54.0833 26.562 54.4376 26.9165 54.8749 26.9165Z" fill="url(#paint2_linear)"/>
<path d="M35.6367 39.8476H24.8144C23.4464 39.8476 22.3335 40.9605 22.3335 42.3286V53.1509C22.3335 54.5189 23.4464 55.6319 24.8144 55.6319H35.6367C37.0047 55.6319 38.1177 54.519 38.1177 53.1509V42.3286C38.1177 40.9606 37.0047 39.8476 35.6367 39.8476ZM36.5345 53.1509C36.5345 53.6459 36.1317 54.0487 35.6367 54.0487H24.8144C24.3194 54.0487 23.9167 53.6459 23.9167 53.1509V42.3286C23.9167 41.8335 24.3194 41.4308 24.8144 41.4308H35.6367C36.1317 41.4308 36.5345 41.8335 36.5345 42.3286V53.1509Z" fill="url(#paint3_linear)"/>
<path d="M53.1856 39.8476H42.3633C40.9953 39.8476 39.8823 40.9605 39.8823 42.3286V53.1509C39.8823 54.5189 40.9953 55.6319 42.3633 55.6319H53.1856C54.5536 55.6319 55.6665 54.519 55.6665 53.1509V42.3286C55.6665 40.9606 54.5536 39.8476 53.1856 39.8476ZM54.0833 53.1509C54.0833 53.6459 53.6806 54.0487 53.1856 54.0487H42.3633C41.8683 54.0487 41.4655 53.6459 41.4655 53.1509V42.3286C41.4655 41.8335 41.8683 41.4308 42.3633 41.4308H53.1856C53.6806 41.4308 54.0833 41.8335 54.0833 42.3286V53.1509Z" fill="url(#paint4_linear)"/>
<path d="M58.6935 14H19.3065C16.3805 14 14 16.3806 14 19.3065V53.7023C14 54.1395 14.3544 54.4939 14.7916 54.4939C15.2288 54.4939 15.5832 54.1395 15.5832 53.7023V19.3065C15.5832 17.2535 17.2535 15.5832 19.3065 15.5832H58.6936C60.7466 15.5832 62.4169 17.2535 62.4169 19.3065V58.6935C62.4169 60.7465 60.7466 62.4168 58.6936 62.4168H19.3065C17.2535 62.4168 15.5832 60.7465 15.5832 58.6935V56.9257C15.5832 56.4885 15.2288 56.1341 14.7916 56.1341C14.3544 56.1341 14 56.4885 14 56.9257V58.6935C14 61.6195 16.3805 64 19.3065 64H58.6936C61.6195 64 64 61.6195 64 58.6935V19.3065C64 16.3806 61.6195 14 58.6935 14Z" fill="url(#paint5_linear)"/>
<defs>
<linearGradient id="paint0_linear" x1="1.45286e-07" y1="39" x2="78" y2="39" gradientUnits="userSpaceOnUse">
<stop stop-color="#2047F4"/>
<stop offset="1" stop-color="#4D6CF5"/>
</linearGradient>
<linearGradient id="paint1_linear" x1="22.3335" y1="30.2603" x2="38.1177" y2="30.2603" gradientUnits="userSpaceOnUse">
<stop stop-color="#2047F4"/>
<stop offset="1" stop-color="#4D6CF5"/>
</linearGradient>
<linearGradient id="paint2_linear" x1="39.8823" y1="30.2603" x2="55.6665" y2="30.2603" gradientUnits="userSpaceOnUse">
<stop stop-color="#2047F4"/>
<stop offset="1" stop-color="#4D6CF5"/>
</linearGradient>
<linearGradient id="paint3_linear" x1="22.3335" y1="47.7397" x2="38.1177" y2="47.7397" gradientUnits="userSpaceOnUse">
<stop stop-color="#2047F4"/>
<stop offset="1" stop-color="#4D6CF5"/>
</linearGradient>
<linearGradient id="paint4_linear" x1="39.8823" y1="47.7397" x2="55.6665" y2="47.7397" gradientUnits="userSpaceOnUse">
<stop stop-color="#2047F4"/>
<stop offset="1" stop-color="#4D6CF5"/>
</linearGradient>
<linearGradient id="paint5_linear" x1="14" y1="39" x2="64" y2="39" gradientUnits="userSpaceOnUse">
<stop stop-color="#2047F4"/>
<stop offset="1" stop-color="#4D6CF5"/>
</linearGradient>
</defs>
</svg>
