<svg width="78" height="78" viewBox="0 0 78 78" fill="none" xmlns="http://www.w3.org/2000/svg">
<circle opacity="0.08" cx="39" cy="39" r="39" fill="url(#paint0_linear)"/>
<path d="M61.4559 22.2721C61.1818 21.9047 60.6617 21.829 60.2942 22.1032C59.9268 22.3773 59.8511 22.8974 60.1253 23.2649C63.5368 27.8372 65.3399 33.2784 65.3399 39.0002C65.3399 46.0358 62.6001 52.6503 57.6251 57.6252C52.6502 62.6002 46.0357 65.3399 39 65.3399C31.9645 65.3399 25.3499 62.6001 20.375 57.6251C15.4 52.6502 12.6601 46.0355 12.6601 39C12.6601 31.9645 15.3999 25.3499 20.3749 20.375C25.3498 15.4 31.9643 12.6601 39 12.6601C45.8977 12.6601 52.419 15.308 57.3628 20.1161C57.6913 20.4357 58.2169 20.4285 58.5365 20.0998C58.856 19.7712 58.8487 19.2457 58.5202 18.9261C53.2648 13.8149 46.3325 11 39 11C31.5209 11 24.4895 13.9125 19.201 19.201C13.9125 24.4895 11 31.5209 11 39C11 46.4791 13.9125 53.5105 19.201 58.799C24.4895 64.0875 31.5209 67 39 67C46.4791 67 53.5105 64.0875 58.799 58.799C64.0875 53.5105 67 46.4791 67 39C67 32.9178 65.0829 27.1332 61.4559 22.2721Z" fill="url(#paint1_linear)"/>
<path d="M38.9626 23.9366C35.0218 23.9366 31.8158 27.1426 31.8158 31.0833C31.8158 35.0241 35.0218 38.2301 38.9626 38.2301C42.9034 38.2301 46.1094 35.0241 46.1094 31.0833C46.1094 27.1426 42.9034 23.9366 38.9626 23.9366ZM38.9626 36.57C35.9372 36.57 33.4759 34.1088 33.4759 31.0833C33.4759 28.0579 35.9372 25.5966 38.9626 25.5966C41.9879 25.5966 44.4493 28.0579 44.4493 31.0833C44.4493 34.1088 41.988 36.57 38.9626 36.57Z" fill="url(#paint2_linear)"/>
<path d="M45.0695 39.8357H32.2851C30.3955 39.8357 28.5428 40.4831 27.0681 41.6587C26.7097 41.9445 26.6507 42.4666 26.9364 42.8252C27.2221 43.1835 27.7442 43.2424 28.1029 42.9568C29.3019 42.001 30.748 41.4959 32.2851 41.4959H45.0695C48.7722 41.4959 51.7847 44.5083 51.7847 48.2111V52.2846C51.7847 52.2934 51.7774 52.3006 51.7685 52.3006H48.0442V48.363C48.0442 47.9046 47.6726 47.533 47.2142 47.533C46.7558 47.533 46.3842 47.9046 46.3842 48.363V52.3006H31.1564V48.363C31.1564 47.9046 30.7848 47.533 30.3264 47.533C29.868 47.533 29.4963 47.9046 29.4963 48.363V52.3006H25.5859C25.5771 52.3006 25.5699 52.2934 25.5699 52.2846V48.2111C25.5699 47.0739 25.8589 45.9508 26.406 44.963C26.6282 44.5619 26.4832 44.0568 26.0821 43.8347C25.681 43.6126 25.1759 43.7576 24.9538 44.1587C24.2707 45.392 23.9097 46.7933 23.9097 48.211V52.2845C23.9097 53.2087 24.6616 53.9606 25.5858 53.9606H51.7685C52.6928 53.9606 53.4447 53.2087 53.4447 52.2845V48.211C53.4447 43.5929 49.6876 39.8357 45.0695 39.8357Z" fill="url(#paint3_linear)"/>
<defs>
<linearGradient id="paint0_linear" x1="1.45286e-07" y1="39" x2="78" y2="39" gradientUnits="userSpaceOnUse">
<stop stop-color="#2047F4"/>
<stop offset="1" stop-color="#4D6CF5"/>
</linearGradient>
<linearGradient id="paint1_linear" x1="11" y1="39" x2="67" y2="39" gradientUnits="userSpaceOnUse">
<stop stop-color="#2047F4"/>
<stop offset="1" stop-color="#4D6CF5"/>
</linearGradient>
<linearGradient id="paint2_linear" x1="31.8158" y1="31.0833" x2="46.1094" y2="31.0833" gradientUnits="userSpaceOnUse">
<stop stop-color="#2047F4"/>
<stop offset="1" stop-color="#4D6CF5"/>
</linearGradient>
<linearGradient id="paint3_linear" x1="23.9097" y1="46.8982" x2="53.4447" y2="46.8982" gradientUnits="userSpaceOnUse">
<stop stop-color="#2047F4"/>
<stop offset="1" stop-color="#4D6CF5"/>
</linearGradient>
</defs>
</svg>
