<svg width="668" height="623" viewBox="0 0 668 623" fill="none" xmlns="http://www.w3.org/2000/svg">
<path opacity="0.1" d="M538.526 8.85908C585.011 32.5371 602.552 106.202 626.233 173.728C650.792 240.378 679.735 300.888 663.071 347.367C645.529 393.846 582.379 427.171 537.648 473.65C492.04 520.129 465.728 578.886 420.997 606.071C376.266 632.38 313.117 626.242 264 599.933C214.884 573.624 179.801 526.268 136.824 482.42C94.7244 438.571 44.731 398.231 19.2957 342.982C-6.13954 287.734 -7.01663 218.453 20.1728 161.451C47.3622 105.325 102.618 63.2308 160.505 44.8146C218.392 27.2753 280.665 34.291 349.077 23.7674C416.612 13.2439 492.04 -13.942 538.526 8.85908Z" fill="url(#paint0_linear)"/>
<defs>
<linearGradient id="paint0_linear" x1="1.24425e-06" y1="311.5" x2="668" y2="311.5" gradientUnits="userSpaceOnUse">
<stop stop-color="#2047F4"/>
<stop offset="1" stop-color="#4D6CF5"/>
</linearGradient>
</defs>
</svg>
