<svg width="104" height="104" viewBox="0 0 104 104" fill="none" xmlns="http://www.w3.org/2000/svg">
<circle cx="2" cy="2" r="2" fill="#C7CCE0"/>
<circle cx="2" cy="22" r="2" fill="#C7CCE0"/>
<circle cx="2" cy="42" r="2" fill="#C7CCE0"/>
<circle cx="2" cy="62" r="2" fill="#C7CCE0"/>
<circle cx="2" cy="82" r="2" fill="#C7CCE0"/>
<circle cx="2" cy="102" r="2" fill="#C7CCE0"/>
<circle cx="22" cy="2" r="2" fill="#C7CCE0"/>
<circle cx="22" cy="22" r="2" fill="#C7CCE0"/>
<circle cx="22" cy="42" r="2" fill="#C7CCE0"/>
<circle cx="22" cy="62" r="2" fill="#C7CCE0"/>
<circle cx="22" cy="82" r="2" fill="#C7CCE0"/>
<circle cx="22" cy="102" r="2" fill="#C7CCE0"/>
<circle cx="42" cy="2" r="2" fill="#C7CCE0"/>
<circle cx="42" cy="22" r="2" fill="#C7CCE0"/>
<circle cx="42" cy="42" r="2" fill="#C7CCE0"/>
<circle cx="42" cy="62" r="2" fill="#C7CCE0"/>
<circle cx="42" cy="82" r="2" fill="#C7CCE0"/>
<circle cx="42" cy="102" r="2" fill="#C7CCE0"/>
<circle cx="62" cy="2" r="2" fill="#C7CCE0"/>
<circle cx="62" cy="22" r="2" fill="#C7CCE0"/>
<circle cx="62" cy="42" r="2" fill="#C7CCE0"/>
<circle cx="62" cy="62" r="2" fill="#C7CCE0"/>
<circle cx="62" cy="82" r="2" fill="#C7CCE0"/>
<circle cx="62" cy="102" r="2" fill="#C7CCE0"/>
<circle cx="82" cy="2" r="2" fill="#C7CCE0"/>
<circle cx="82" cy="22" r="2" fill="#C7CCE0"/>
<circle cx="82" cy="42" r="2" fill="#C7CCE0"/>
<circle cx="82" cy="62" r="2" fill="#C7CCE0"/>
<circle cx="82" cy="82" r="2" fill="#C7CCE0"/>
<circle cx="82" cy="102" r="2" fill="#C7CCE0"/>
<circle cx="102" cy="2" r="2" fill="#C7CCE0"/>
<circle cx="102" cy="22" r="2" fill="#C7CCE0"/>
<circle cx="102" cy="42" r="2" fill="#C7CCE0"/>
<circle cx="102" cy="62" r="2" fill="#C7CCE0"/>
<circle cx="102" cy="82" r="2" fill="#C7CCE0"/>
<circle cx="102" cy="102" r="2" fill="#C7CCE0"/>
</svg>
