<svg width="78" height="78" viewBox="0 0 78 78" fill="none" xmlns="http://www.w3.org/2000/svg">
<circle opacity="0.08" cx="39" cy="39" r="39" fill="url(#paint0_linear)"/>
<path d="M59.7652 18.7878H18.2348C15.8997 18.7878 14 20.6876 14 23.0225V26.7214V54.9773C14 57.3124 15.8997 59.2121 18.2348 59.2121H20.1574C20.5946 59.2121 20.949 58.8577 20.949 58.4205C20.949 57.9833 20.5946 57.6289 20.1574 57.6289H18.2348C16.7727 57.6289 15.5832 56.4394 15.5832 54.9773V27.5131H56.4327C56.8699 27.5131 57.2243 27.1587 57.2243 26.7215C57.2243 26.2843 56.8699 25.9299 56.4327 25.9299H15.5832V23.0226C15.5832 21.5605 16.7727 20.3711 18.2348 20.3711H59.7652C61.2273 20.3711 62.4168 21.5605 62.4168 23.0226V25.9299H59.3967C58.9595 25.9299 58.6051 26.2843 58.6051 26.7215C58.6051 27.1587 58.9595 27.5131 59.3967 27.5131H62.4168V54.9774C62.4168 56.4395 61.2272 57.629 59.7652 57.629H22.9925C22.5553 57.629 22.2009 57.9834 22.2009 58.4206C22.2009 58.8578 22.5553 59.2122 22.9925 59.2122H59.7652C62.1003 59.2122 64 57.3125 64 54.9774V26.7215V23.0225C64 20.6876 62.1003 18.7878 59.7652 18.7878Z" fill="url(#paint1_linear)"/>
<path d="M29.5989 50.4518H27.5107C26.5588 50.4518 25.7842 51.2263 25.7842 52.1783V54.2664C25.7842 55.2185 26.5587 55.993 27.5107 55.993H29.5989C30.5509 55.993 31.3255 55.2185 31.3255 54.2664V52.1783C31.3255 51.2263 30.551 50.4518 29.5989 50.4518ZM29.7424 54.2664C29.7424 54.3455 29.678 54.4098 29.599 54.4098H27.5107C27.4317 54.4098 27.3675 54.3455 27.3675 54.2664V52.1783C27.3675 52.0992 27.4318 52.035 27.5108 52.035H29.599C29.678 52.035 29.7424 52.0993 29.7424 52.1783V54.2664Z" fill="url(#paint2_linear)"/>
<path d="M36.5623 50.4518H34.4742C33.5222 50.4518 32.7477 51.2263 32.7477 52.1783V54.2664C32.7477 55.2185 33.5222 55.993 34.4742 55.993H36.5623C37.5143 55.993 38.2889 55.2185 38.2889 54.2664V52.1783C38.2889 51.2263 37.5144 50.4518 36.5623 50.4518ZM36.7057 54.2664C36.7057 54.3455 36.6413 54.4098 36.5623 54.4098H34.4742C34.3952 54.4098 34.3309 54.3455 34.3309 54.2664V52.1783C34.3309 52.0992 34.3952 52.035 34.4742 52.035H36.5623C36.6413 52.035 36.7057 52.0993 36.7057 52.1783V54.2664Z" fill="url(#paint3_linear)"/>
<path d="M43.5258 50.4518H41.4376C40.4857 50.4518 39.7111 51.2263 39.7111 52.1783V54.2664C39.7111 55.2185 40.4856 55.993 41.4376 55.993H43.5258C44.4778 55.993 45.2524 55.2185 45.2524 54.2664V52.1783C45.2524 51.2263 44.4779 50.4518 43.5258 50.4518ZM43.6693 54.2664C43.6693 54.3455 43.6049 54.4098 43.5259 54.4098H41.4377C41.3586 54.4098 41.2944 54.3455 41.2944 54.2664V52.1783C41.2944 52.0992 41.3587 52.035 41.4377 52.035H43.5259C43.6049 52.035 43.6693 52.0993 43.6693 52.1783V54.2664Z" fill="url(#paint4_linear)"/>
<path d="M50.4891 50.4518H48.401C47.4489 50.4518 46.6744 51.2263 46.6744 52.1783V54.2664C46.6744 55.2185 47.4489 55.993 48.401 55.993H50.4891C51.441 55.993 52.2157 55.2185 52.2157 54.2664V52.1783C52.2157 51.2263 51.4411 50.4518 50.4891 50.4518ZM50.6324 54.2664C50.6324 54.3455 50.5681 54.4098 50.4891 54.4098H48.401C48.3219 54.4098 48.2576 54.3455 48.2576 54.2664V52.1783C48.2576 52.0992 48.322 52.035 48.401 52.035H50.4891C50.5681 52.035 50.6324 52.0993 50.6324 52.1783V54.2664Z" fill="url(#paint5_linear)"/>
<defs>
<linearGradient id="paint0_linear" x1="1.45286e-07" y1="39" x2="78" y2="39" gradientUnits="userSpaceOnUse">
<stop stop-color="#2047F4"/>
<stop offset="1" stop-color="#4D6CF5"/>
</linearGradient>
<linearGradient id="paint1_linear" x1="14" y1="39" x2="64" y2="39" gradientUnits="userSpaceOnUse">
<stop stop-color="#2047F4"/>
<stop offset="1" stop-color="#4D6CF5"/>
</linearGradient>
<linearGradient id="paint2_linear" x1="25.7842" y1="53.2224" x2="31.3255" y2="53.2224" gradientUnits="userSpaceOnUse">
<stop stop-color="#2047F4"/>
<stop offset="1" stop-color="#4D6CF5"/>
</linearGradient>
<linearGradient id="paint3_linear" x1="32.7477" y1="53.2224" x2="38.2889" y2="53.2224" gradientUnits="userSpaceOnUse">
<stop stop-color="#2047F4"/>
<stop offset="1" stop-color="#4D6CF5"/>
</linearGradient>
<linearGradient id="paint4_linear" x1="39.7111" y1="53.2224" x2="45.2524" y2="53.2224" gradientUnits="userSpaceOnUse">
<stop stop-color="#2047F4"/>
<stop offset="1" stop-color="#4D6CF5"/>
</linearGradient>
<linearGradient id="paint5_linear" x1="46.6744" y1="53.2224" x2="52.2157" y2="53.2224" gradientUnits="userSpaceOnUse">
<stop stop-color="#2047F4"/>
<stop offset="1" stop-color="#4D6CF5"/>
</linearGradient>
</defs>
</svg>
