<svg width="78" height="78" viewBox="0 0 78 78" fill="none" xmlns="http://www.w3.org/2000/svg">
<circle opacity="0.08" cx="39" cy="39" r="39" fill="url(#paint0_linear)"/>
<path d="M63.2451 22.8898C62.8281 22.8898 62.4902 23.2278 62.4902 23.6447V58.7232C62.4902 60.8003 60.8004 62.4901 58.7233 62.4901H19.2767C17.1996 62.4901 15.5098 60.8004 15.5098 58.7232V19.2767C15.5098 17.1996 17.1996 15.5098 19.2767 15.5098H58.7232C60.8003 15.5098 62.4901 17.1995 62.4901 19.2767C62.4901 19.6936 62.8281 20.0315 63.245 20.0315C63.662 20.0315 63.9999 19.6936 63.9999 19.2767C64 16.3671 61.6329 14 58.7233 14H19.2767C16.3671 14 14 16.3671 14 19.2767V58.7232C14 61.6329 16.3671 64 19.2767 64H58.7232C61.6329 64 64 61.6329 64 58.7233V23.6447C64 23.2278 63.662 22.8898 63.2451 22.8898Z" fill="url(#paint1_linear)"/>
<path d="M26.1145 24.3506H24.436C23.2837 24.3506 22.3461 25.2881 22.3461 26.4405V28.1191C22.3461 29.2715 23.2837 30.209 24.436 30.209H26.1145C27.2669 30.209 28.2045 29.2715 28.2045 28.1191V26.4405C28.2045 25.2882 27.2669 24.3506 26.1145 24.3506ZM26.6946 28.1191C26.6946 28.439 26.4345 28.6991 26.1145 28.6991H24.436C24.1162 28.6991 23.8559 28.439 23.8559 28.1191V26.4405C23.8559 26.1207 24.1161 25.8605 24.436 25.8605H26.1145C26.4344 25.8605 26.6946 26.1206 26.6946 26.4405V28.1191Z" fill="url(#paint2_linear)"/>
<path d="M54.899 26.5249H31.7982C31.3812 26.5249 31.0433 26.8629 31.0433 27.2798C31.0433 27.6967 31.3813 28.0347 31.7982 28.0347H54.899C55.316 28.0347 55.6539 27.6967 55.6539 27.2798C55.6539 26.8629 55.316 26.5249 54.899 26.5249Z" fill="url(#paint3_linear)"/>
<path d="M26.1145 35.6634H24.436C23.2837 35.6634 22.3461 36.6009 22.3461 37.7532V39.4318C22.3461 40.5842 23.2837 41.5218 24.436 41.5218H26.1145C27.2669 41.5218 28.2045 40.5843 28.2045 39.4318V37.7532C28.2045 36.6009 27.2669 35.6634 26.1145 35.6634ZM26.6946 39.4318C26.6946 39.7517 26.4345 40.0119 26.1145 40.0119H24.436C24.1162 40.0119 23.8559 39.7518 23.8559 39.4318V37.7532C23.8559 37.4334 24.1161 37.1732 24.436 37.1732H26.1145C26.4344 37.1732 26.6946 37.4334 26.6946 37.7532V39.4318Z" fill="url(#paint4_linear)"/>
<path d="M54.899 37.8376H31.7982C31.3812 37.8376 31.0433 38.1756 31.0433 38.5925C31.0433 39.0094 31.3813 39.3474 31.7982 39.3474H54.899C55.316 39.3474 55.6539 39.0094 55.6539 38.5925C55.6539 38.1756 55.316 37.8376 54.899 37.8376Z" fill="url(#paint5_linear)"/>
<path d="M26.1145 47.791H24.436C23.2837 47.791 22.3461 48.7285 22.3461 49.8809V51.5595C22.3461 52.7119 23.2837 53.6495 24.436 53.6495H26.1145C27.2669 53.6495 28.2045 52.712 28.2045 51.5595V49.8808C28.2045 48.7285 27.2669 47.791 26.1145 47.791ZM26.6946 51.5594C26.6946 51.8793 26.4345 52.1395 26.1145 52.1395H24.436C24.1162 52.1395 23.8559 51.8794 23.8559 51.5594V49.8808C23.8559 49.561 24.1161 49.3008 24.436 49.3008H26.1145C26.4344 49.3008 26.6946 49.5609 26.6946 49.8808V51.5594Z" fill="url(#paint6_linear)"/>
<path d="M54.899 49.9652H31.7982C31.3812 49.9652 31.0433 50.3032 31.0433 50.7201C31.0433 51.137 31.3813 51.475 31.7982 51.475H54.899C55.316 51.475 55.6539 51.137 55.6539 50.7201C55.6539 50.3033 55.316 49.9652 54.899 49.9652Z" fill="url(#paint7_linear)"/>
<defs>
<linearGradient id="paint0_linear" x1="1.45286e-07" y1="39" x2="78" y2="39" gradientUnits="userSpaceOnUse">
<stop stop-color="#2047F4"/>
<stop offset="1" stop-color="#4D6CF5"/>
</linearGradient>
<linearGradient id="paint1_linear" x1="14" y1="39" x2="64" y2="39" gradientUnits="userSpaceOnUse">
<stop stop-color="#2047F4"/>
<stop offset="1" stop-color="#4D6CF5"/>
</linearGradient>
<linearGradient id="paint2_linear" x1="22.3461" y1="27.2798" x2="28.2045" y2="27.2798" gradientUnits="userSpaceOnUse">
<stop stop-color="#2047F4"/>
<stop offset="1" stop-color="#4D6CF5"/>
</linearGradient>
<linearGradient id="paint3_linear" x1="31.0433" y1="27.2798" x2="55.6539" y2="27.2798" gradientUnits="userSpaceOnUse">
<stop stop-color="#2047F4"/>
<stop offset="1" stop-color="#4D6CF5"/>
</linearGradient>
<linearGradient id="paint4_linear" x1="22.3461" y1="38.5926" x2="28.2045" y2="38.5926" gradientUnits="userSpaceOnUse">
<stop stop-color="#2047F4"/>
<stop offset="1" stop-color="#4D6CF5"/>
</linearGradient>
<linearGradient id="paint5_linear" x1="31.0433" y1="38.5925" x2="55.6539" y2="38.5925" gradientUnits="userSpaceOnUse">
<stop stop-color="#2047F4"/>
<stop offset="1" stop-color="#4D6CF5"/>
</linearGradient>
<linearGradient id="paint6_linear" x1="22.3461" y1="50.7202" x2="28.2045" y2="50.7202" gradientUnits="userSpaceOnUse">
<stop stop-color="#2047F4"/>
<stop offset="1" stop-color="#4D6CF5"/>
</linearGradient>
<linearGradient id="paint7_linear" x1="31.0433" y1="50.7201" x2="55.6539" y2="50.7201" gradientUnits="userSpaceOnUse">
<stop stop-color="#2047F4"/>
<stop offset="1" stop-color="#4D6CF5"/>
</linearGradient>
</defs>
</svg>
