<svg width="104" height="104" viewBox="0 0 104 104" fill="none" xmlns="http://www.w3.org/2000/svg">
<circle cx="2" cy="2" r="2" fill="url(#paint0_linear)"/>
<circle cx="2" cy="22" r="2" fill="url(#paint1_linear)"/>
<circle cx="2" cy="42" r="2" fill="url(#paint2_linear)"/>
<circle cx="2" cy="62" r="2" fill="url(#paint3_linear)"/>
<circle cx="2" cy="82" r="2" fill="url(#paint4_linear)"/>
<circle cx="2" cy="102" r="2" fill="url(#paint5_linear)"/>
<circle cx="22" cy="2" r="2" fill="url(#paint6_linear)"/>
<circle cx="22" cy="22" r="2" fill="url(#paint7_linear)"/>
<circle cx="22" cy="42" r="2" fill="url(#paint8_linear)"/>
<circle cx="22" cy="62" r="2" fill="url(#paint9_linear)"/>
<circle cx="22" cy="82" r="2" fill="url(#paint10_linear)"/>
<circle cx="22" cy="102" r="2" fill="url(#paint11_linear)"/>
<circle cx="42" cy="2" r="2" fill="url(#paint12_linear)"/>
<circle cx="42" cy="22" r="2" fill="url(#paint13_linear)"/>
<circle cx="42" cy="42" r="2" fill="url(#paint14_linear)"/>
<circle cx="42" cy="62" r="2" fill="url(#paint15_linear)"/>
<circle cx="42" cy="82" r="2" fill="url(#paint16_linear)"/>
<circle cx="42" cy="102" r="2" fill="url(#paint17_linear)"/>
<circle cx="62" cy="2" r="2" fill="url(#paint18_linear)"/>
<circle cx="62" cy="22" r="2" fill="url(#paint19_linear)"/>
<circle cx="62" cy="42" r="2" fill="url(#paint20_linear)"/>
<circle cx="62" cy="62" r="2" fill="url(#paint21_linear)"/>
<circle cx="62" cy="82" r="2" fill="url(#paint22_linear)"/>
<circle cx="62" cy="102" r="2" fill="url(#paint23_linear)"/>
<circle cx="82" cy="2" r="2" fill="url(#paint24_linear)"/>
<circle cx="82" cy="22" r="2" fill="url(#paint25_linear)"/>
<circle cx="82" cy="42" r="2" fill="url(#paint26_linear)"/>
<circle cx="82" cy="62" r="2" fill="url(#paint27_linear)"/>
<circle cx="82" cy="82" r="2" fill="url(#paint28_linear)"/>
<circle cx="82" cy="102" r="2" fill="url(#paint29_linear)"/>
<circle cx="102" cy="2" r="2" fill="url(#paint30_linear)"/>
<circle cx="102" cy="22" r="2" fill="url(#paint31_linear)"/>
<circle cx="102" cy="42" r="2" fill="url(#paint32_linear)"/>
<circle cx="102" cy="62" r="2" fill="url(#paint33_linear)"/>
<circle cx="102" cy="82" r="2" fill="url(#paint34_linear)"/>
<circle cx="102" cy="102" r="2" fill="url(#paint35_linear)"/>
<defs>
<linearGradient id="paint0_linear" x1="7.45058e-09" y1="2" x2="4" y2="2" gradientUnits="userSpaceOnUse">
<stop stop-color="#2047F4"/>
<stop offset="1" stop-color="#4D6CF5"/>
</linearGradient>
<linearGradient id="paint1_linear" x1="7.45058e-09" y1="22" x2="4" y2="22" gradientUnits="userSpaceOnUse">
<stop stop-color="#2047F4"/>
<stop offset="1" stop-color="#4D6CF5"/>
</linearGradient>
<linearGradient id="paint2_linear" x1="7.45058e-09" y1="42" x2="4" y2="42" gradientUnits="userSpaceOnUse">
<stop stop-color="#2047F4"/>
<stop offset="1" stop-color="#4D6CF5"/>
</linearGradient>
<linearGradient id="paint3_linear" x1="7.45058e-09" y1="62" x2="4" y2="62" gradientUnits="userSpaceOnUse">
<stop stop-color="#2047F4"/>
<stop offset="1" stop-color="#4D6CF5"/>
</linearGradient>
<linearGradient id="paint4_linear" x1="7.45058e-09" y1="82" x2="4" y2="82" gradientUnits="userSpaceOnUse">
<stop stop-color="#2047F4"/>
<stop offset="1" stop-color="#4D6CF5"/>
</linearGradient>
<linearGradient id="paint5_linear" x1="7.45058e-09" y1="102" x2="4" y2="102" gradientUnits="userSpaceOnUse">
<stop stop-color="#2047F4"/>
<stop offset="1" stop-color="#4D6CF5"/>
</linearGradient>
<linearGradient id="paint6_linear" x1="20" y1="2" x2="24" y2="2" gradientUnits="userSpaceOnUse">
<stop stop-color="#2047F4"/>
<stop offset="1" stop-color="#4D6CF5"/>
</linearGradient>
<linearGradient id="paint7_linear" x1="20" y1="22" x2="24" y2="22" gradientUnits="userSpaceOnUse">
<stop stop-color="#2047F4"/>
<stop offset="1" stop-color="#4D6CF5"/>
</linearGradient>
<linearGradient id="paint8_linear" x1="20" y1="42" x2="24" y2="42" gradientUnits="userSpaceOnUse">
<stop stop-color="#2047F4"/>
<stop offset="1" stop-color="#4D6CF5"/>
</linearGradient>
<linearGradient id="paint9_linear" x1="20" y1="62" x2="24" y2="62" gradientUnits="userSpaceOnUse">
<stop stop-color="#2047F4"/>
<stop offset="1" stop-color="#4D6CF5"/>
</linearGradient>
<linearGradient id="paint10_linear" x1="20" y1="82" x2="24" y2="82" gradientUnits="userSpaceOnUse">
<stop stop-color="#2047F4"/>
<stop offset="1" stop-color="#4D6CF5"/>
</linearGradient>
<linearGradient id="paint11_linear" x1="20" y1="102" x2="24" y2="102" gradientUnits="userSpaceOnUse">
<stop stop-color="#2047F4"/>
<stop offset="1" stop-color="#4D6CF5"/>
</linearGradient>
<linearGradient id="paint12_linear" x1="40" y1="2" x2="44" y2="2" gradientUnits="userSpaceOnUse">
<stop stop-color="#2047F4"/>
<stop offset="1" stop-color="#4D6CF5"/>
</linearGradient>
<linearGradient id="paint13_linear" x1="40" y1="22" x2="44" y2="22" gradientUnits="userSpaceOnUse">
<stop stop-color="#2047F4"/>
<stop offset="1" stop-color="#4D6CF5"/>
</linearGradient>
<linearGradient id="paint14_linear" x1="40" y1="42" x2="44" y2="42" gradientUnits="userSpaceOnUse">
<stop stop-color="#2047F4"/>
<stop offset="1" stop-color="#4D6CF5"/>
</linearGradient>
<linearGradient id="paint15_linear" x1="40" y1="62" x2="44" y2="62" gradientUnits="userSpaceOnUse">
<stop stop-color="#2047F4"/>
<stop offset="1" stop-color="#4D6CF5"/>
</linearGradient>
<linearGradient id="paint16_linear" x1="40" y1="82" x2="44" y2="82" gradientUnits="userSpaceOnUse">
<stop stop-color="#2047F4"/>
<stop offset="1" stop-color="#4D6CF5"/>
</linearGradient>
<linearGradient id="paint17_linear" x1="40" y1="102" x2="44" y2="102" gradientUnits="userSpaceOnUse">
<stop stop-color="#2047F4"/>
<stop offset="1" stop-color="#4D6CF5"/>
</linearGradient>
<linearGradient id="paint18_linear" x1="60" y1="2" x2="64" y2="2" gradientUnits="userSpaceOnUse">
<stop stop-color="#2047F4"/>
<stop offset="1" stop-color="#4D6CF5"/>
</linearGradient>
<linearGradient id="paint19_linear" x1="60" y1="22" x2="64" y2="22" gradientUnits="userSpaceOnUse">
<stop stop-color="#2047F4"/>
<stop offset="1" stop-color="#4D6CF5"/>
</linearGradient>
<linearGradient id="paint20_linear" x1="60" y1="42" x2="64" y2="42" gradientUnits="userSpaceOnUse">
<stop stop-color="#2047F4"/>
<stop offset="1" stop-color="#4D6CF5"/>
</linearGradient>
<linearGradient id="paint21_linear" x1="60" y1="62" x2="64" y2="62" gradientUnits="userSpaceOnUse">
<stop stop-color="#2047F4"/>
<stop offset="1" stop-color="#4D6CF5"/>
</linearGradient>
<linearGradient id="paint22_linear" x1="60" y1="82" x2="64" y2="82" gradientUnits="userSpaceOnUse">
<stop stop-color="#2047F4"/>
<stop offset="1" stop-color="#4D6CF5"/>
</linearGradient>
<linearGradient id="paint23_linear" x1="60" y1="102" x2="64" y2="102" gradientUnits="userSpaceOnUse">
<stop stop-color="#2047F4"/>
<stop offset="1" stop-color="#4D6CF5"/>
</linearGradient>
<linearGradient id="paint24_linear" x1="80" y1="2" x2="84" y2="2" gradientUnits="userSpaceOnUse">
<stop stop-color="#2047F4"/>
<stop offset="1" stop-color="#4D6CF5"/>
</linearGradient>
<linearGradient id="paint25_linear" x1="80" y1="22" x2="84" y2="22" gradientUnits="userSpaceOnUse">
<stop stop-color="#2047F4"/>
<stop offset="1" stop-color="#4D6CF5"/>
</linearGradient>
<linearGradient id="paint26_linear" x1="80" y1="42" x2="84" y2="42" gradientUnits="userSpaceOnUse">
<stop stop-color="#2047F4"/>
<stop offset="1" stop-color="#4D6CF5"/>
</linearGradient>
<linearGradient id="paint27_linear" x1="80" y1="62" x2="84" y2="62" gradientUnits="userSpaceOnUse">
<stop stop-color="#2047F4"/>
<stop offset="1" stop-color="#4D6CF5"/>
</linearGradient>
<linearGradient id="paint28_linear" x1="80" y1="82" x2="84" y2="82" gradientUnits="userSpaceOnUse">
<stop stop-color="#2047F4"/>
<stop offset="1" stop-color="#4D6CF5"/>
</linearGradient>
<linearGradient id="paint29_linear" x1="80" y1="102" x2="84" y2="102" gradientUnits="userSpaceOnUse">
<stop stop-color="#2047F4"/>
<stop offset="1" stop-color="#4D6CF5"/>
</linearGradient>
<linearGradient id="paint30_linear" x1="100" y1="2" x2="104" y2="2" gradientUnits="userSpaceOnUse">
<stop stop-color="#2047F4"/>
<stop offset="1" stop-color="#4D6CF5"/>
</linearGradient>
<linearGradient id="paint31_linear" x1="100" y1="22" x2="104" y2="22" gradientUnits="userSpaceOnUse">
<stop stop-color="#2047F4"/>
<stop offset="1" stop-color="#4D6CF5"/>
</linearGradient>
<linearGradient id="paint32_linear" x1="100" y1="42" x2="104" y2="42" gradientUnits="userSpaceOnUse">
<stop stop-color="#2047F4"/>
<stop offset="1" stop-color="#4D6CF5"/>
</linearGradient>
<linearGradient id="paint33_linear" x1="100" y1="62" x2="104" y2="62" gradientUnits="userSpaceOnUse">
<stop stop-color="#2047F4"/>
<stop offset="1" stop-color="#4D6CF5"/>
</linearGradient>
<linearGradient id="paint34_linear" x1="100" y1="82" x2="104" y2="82" gradientUnits="userSpaceOnUse">
<stop stop-color="#2047F4"/>
<stop offset="1" stop-color="#4D6CF5"/>
</linearGradient>
<linearGradient id="paint35_linear" x1="100" y1="102" x2="104" y2="102" gradientUnits="userSpaceOnUse">
<stop stop-color="#2047F4"/>
<stop offset="1" stop-color="#4D6CF5"/>
</linearGradient>
</defs>
</svg>
