<svg width="78" height="78" viewBox="0 0 78 78" fill="none" xmlns="http://www.w3.org/2000/svg">
<circle opacity="0.08" cx="39" cy="39" r="39" fill="url(#paint0_linear)"/>
<path d="M34.3359 21.0312H34.3273C33.8961 21.0312 33.5508 21.3805 33.5508 21.8125C33.5508 22.2445 33.9039 22.5938 34.3359 22.5938C34.7672 22.5938 35.1172 22.2445 35.1172 21.8125C35.1172 21.3805 34.7672 21.0312 34.3359 21.0312Z" fill="url(#paint1_linear)"/>
<path d="M18.7109 57.75H18.7023C18.2711 57.75 17.9258 58.0992 17.9258 58.5312C17.9258 58.9633 18.2789 59.3125 18.7109 59.3125C19.1422 59.3125 19.4922 58.9633 19.4922 58.5312C19.4922 58.0992 19.1422 57.75 18.7109 57.75Z" fill="url(#paint2_linear)"/>
<path d="M60.0938 43.6875C59.6617 43.6875 59.3125 44.0367 59.3125 44.4688C59.3125 44.9008 59.6617 45.25 60.0938 45.25C61.3859 45.25 62.4375 46.3016 62.4375 47.5938C62.4375 48.4289 61.9891 49.207 61.2656 49.625C60.893 49.8406 60.7648 50.318 60.9813 50.6922C61.125 50.9422 61.3875 51.082 61.6578 51.082C61.7906 51.082 61.925 51.0484 62.0484 50.9766C63.2523 50.2805 64 48.9836 64 47.5938C64 45.4398 62.2477 43.6875 60.0938 43.6875Z" fill="url(#paint3_linear)"/>
<path d="M62.3437 49.9305C62.1398 49.5508 61.6648 49.4086 61.2859 49.6125L40.1922 60.9688C39.8125 61.1727 39.6695 61.6469 39.8742 62.0266C40.0156 62.2891 40.2851 62.4375 40.5633 62.4375C40.6883 62.4375 40.8148 62.4078 40.932 62.3445L62.0258 50.9883C62.4054 50.7844 62.5476 50.3102 62.3437 49.9305Z" fill="url(#paint4_linear)"/>
<path d="M40.6633 60.882L22.6945 58.5383C22.2602 58.4781 21.8742 58.7836 21.8195 59.2117C21.7625 59.639 22.0648 60.0312 22.493 60.0867L40.4617 62.4305C40.4961 62.4351 40.5297 62.4375 40.5633 62.4375C40.95 62.4375 41.286 62.1508 41.3367 61.757C41.3938 61.3297 41.0914 60.9375 40.6633 60.882Z" fill="url(#paint5_linear)"/>
<path d="M22.5938 39H14.7812C14.3492 39 14 39.3492 14 39.7812V60.875C14 61.307 14.3492 61.6562 14.7812 61.6562H22.5938C23.0258 61.6562 23.375 61.307 23.375 60.875V39.7812C23.375 39.3492 23.0258 39 22.5938 39ZM21.8125 60.0938H15.5625V40.5625H21.8125V60.0938Z" fill="url(#paint6_linear)"/>
<path d="M60.3329 44.3977C60.2681 43.9711 59.8673 43.6789 59.4431 43.743L44.3517 46.0398C43.9251 46.1047 43.6321 46.5031 43.697 46.9297C43.7556 47.3172 44.0884 47.5937 44.4681 47.5937C44.5071 47.5937 44.547 47.5906 44.5868 47.5844L59.6782 45.2875C60.1048 45.2227 60.3977 44.8242 60.3329 44.3977Z" fill="url(#paint7_linear)"/>
<path d="M42.0133 42.9649C41.5883 42.8922 41.1844 43.1766 41.1109 43.6016C41.0375 44.0266 41.3227 44.4305 41.7477 44.5039C42.8719 44.6977 43.6875 45.6688 43.6875 46.8125C43.6875 48.1047 42.6359 49.1563 41.3438 49.1563C40.9117 49.1563 40.5625 49.5055 40.5625 49.9375C40.5625 50.3695 40.9117 50.7188 41.3438 50.7188C43.4977 50.7188 45.25 48.9664 45.25 46.8125C45.25 44.9063 43.8891 43.2867 42.0133 42.9649Z" fill="url(#paint8_linear)"/>
<path d="M42.0305 42.9672L29.7742 40.5766C29.3508 40.4914 28.9398 40.7695 28.8578 41.1937C28.775 41.6172 29.0515 42.0281 29.475 42.1101L41.7312 44.5008C41.7812 44.5109 41.832 44.5156 41.8812 44.5156C42.2477 44.5156 42.575 44.257 42.6477 43.8836C42.7305 43.4601 42.4539 43.0492 42.0305 42.9672Z" fill="url(#paint9_linear)"/>
<path d="M29.625 40.5625H22.5938C22.1617 40.5625 21.8125 40.9117 21.8125 41.3438C21.8125 41.7758 22.1617 42.125 22.5938 42.125H29.625C30.057 42.125 30.4062 41.7758 30.4062 41.3438C30.4062 40.9117 30.057 40.5625 29.625 40.5625Z" fill="url(#paint10_linear)"/>
<path d="M41.0749 49.1414L31.2476 48.3774C30.8156 48.3344 30.4421 48.6656 30.4085 49.0961C30.3749 49.5266 30.6968 49.9016 31.1273 49.9352L40.9546 50.6992C40.9749 50.7008 40.9953 50.7016 41.0156 50.7016C41.4203 50.7016 41.7617 50.3898 41.7937 49.9805C41.8273 49.55 41.5054 49.175 41.0749 49.1414Z" fill="url(#paint11_linear)"/>
<path d="M60.0938 43.6875C59.8688 43.6875 59.6453 43.7063 59.4273 43.7445C59.0016 43.8172 58.7164 44.2211 58.7898 44.6461C58.8547 45.0266 59.1844 45.2953 59.5586 45.2953C59.6023 45.2953 59.6477 45.2914 59.6914 45.2836C59.8219 45.2617 59.9563 45.25 60.0938 45.25C60.5258 45.25 60.875 44.9008 60.875 44.4687C60.875 44.0367 60.5258 43.6875 60.0938 43.6875Z" fill="url(#paint12_linear)"/>
<path d="M41.3438 49.1562C41.2617 49.1562 41.1797 49.1516 41.0992 49.143C40.6633 49.0922 40.286 49.4078 40.2399 49.8375C40.1946 50.2664 40.5047 50.6508 40.9344 50.6969C41.068 50.7109 41.2047 50.7188 41.3438 50.7188C41.7758 50.7188 42.125 50.3695 42.125 49.9375C42.125 49.5055 41.7758 49.1562 41.3438 49.1562Z" fill="url(#paint13_linear)"/>
<path d="M42.7336 18.0797C41.1109 16.4563 38.9524 15.5625 36.657 15.5625C34.3617 15.5625 32.2039 16.4563 30.5813 18.0797C28.9578 19.7023 28.0641 21.8602 28.0641 24.1555C28.0641 26.4516 28.9578 28.6094 30.5813 30.232C32.2039 31.8555 34.3617 32.7492 36.657 32.7492C38.9524 32.7492 41.1109 31.8555 42.7336 30.232C44.357 28.6094 45.2508 26.4508 45.2508 24.1555C45.2508 21.8602 44.357 19.7023 42.7336 18.0797ZM41.6289 29.1273C40.3008 30.4555 38.5352 31.1867 36.657 31.1867C34.7789 31.1867 33.0133 30.4555 31.686 29.1273C30.3578 27.8 29.6266 26.0336 29.6266 24.1555C29.6266 22.2781 30.3578 20.5117 31.686 19.1844C33.0133 17.8563 34.7789 17.125 36.657 17.125C38.5352 17.125 40.3008 17.8563 41.6289 19.1844C42.957 20.5117 43.6883 22.2773 43.6883 24.1555C43.6883 26.0336 42.957 27.7992 41.6289 29.1273Z" fill="url(#paint14_linear)"/>
<path d="M47.3649 39.2289L46.0313 37.8953V36.6563C46.0313 36.2242 45.682 35.875 45.25 35.875H44.4688V35.0938C44.4688 34.6617 44.1195 34.3125 43.6875 34.3125H42.4484L39.2742 31.1383C38.9688 30.8328 38.475 30.8328 38.1695 31.1383C37.8641 31.4438 37.8641 31.9375 38.1695 32.243L41.5727 35.6461C41.7188 35.793 41.9172 35.875 42.125 35.875H42.9063V36.6563C42.9063 37.0883 43.2555 37.4375 43.6875 37.4375H44.4688V38.2188C44.4688 38.4266 44.5508 38.625 44.6977 38.7711L46.2602 40.3336C46.4125 40.4859 46.6125 40.5625 46.8125 40.5625C47.0125 40.5625 47.2125 40.4859 47.3649 40.3336C47.6703 40.0281 47.6703 39.5344 47.3649 39.2289Z" fill="url(#paint15_linear)"/>
<path d="M52.836 33.7617L44.7579 25.6289C44.4516 25.3226 43.9586 25.3211 43.6524 25.625C43.3461 25.9297 43.3446 26.4234 43.6485 26.7305L51.7266 34.8633C51.8798 35.0164 52.0805 35.0937 52.2813 35.0937C52.4805 35.0937 52.6798 35.018 52.8321 34.8672C53.1383 34.5625 53.1399 34.0687 52.836 33.7617Z" fill="url(#paint16_linear)"/>
<path d="M52.2812 39H46.8125C46.3805 39 46.0312 39.3492 46.0312 39.7812C46.0312 40.2133 46.3805 40.5625 46.8125 40.5625H52.2812C52.7133 40.5625 53.0625 40.2133 53.0625 39.7812C53.0625 39.3492 52.7133 39 52.2812 39Z" fill="url(#paint17_linear)"/>
<path d="M52.2812 33.5312C51.8492 33.5312 51.5 33.8805 51.5 34.3125V39.7812C51.5 40.2133 51.8492 40.5625 52.2812 40.5625C52.7133 40.5625 53.0625 40.2133 53.0625 39.7812V34.3125C53.0625 33.8805 52.7133 33.5312 52.2812 33.5312Z" fill="url(#paint18_linear)"/>
<defs>
<linearGradient id="paint0_linear" x1="1.45286e-07" y1="39" x2="78" y2="39" gradientUnits="userSpaceOnUse">
<stop stop-color="#2047F4"/>
<stop offset="1" stop-color="#4D6CF5"/>
</linearGradient>
<linearGradient id="paint1_linear" x1="33.5508" y1="21.8125" x2="35.1172" y2="21.8125" gradientUnits="userSpaceOnUse">
<stop stop-color="#2047F4"/>
<stop offset="1" stop-color="#4D6CF5"/>
</linearGradient>
<linearGradient id="paint2_linear" x1="17.9258" y1="58.5312" x2="19.4922" y2="58.5313" gradientUnits="userSpaceOnUse">
<stop stop-color="#2047F4"/>
<stop offset="1" stop-color="#4D6CF5"/>
</linearGradient>
<linearGradient id="paint3_linear" x1="59.3125" y1="47.3848" x2="64" y2="47.3848" gradientUnits="userSpaceOnUse">
<stop stop-color="#2047F4"/>
<stop offset="1" stop-color="#4D6CF5"/>
</linearGradient>
<linearGradient id="paint4_linear" x1="39.7808" y1="55.9785" x2="62.4368" y2="55.9785" gradientUnits="userSpaceOnUse">
<stop stop-color="#2047F4"/>
<stop offset="1" stop-color="#4D6CF5"/>
</linearGradient>
<linearGradient id="paint5_linear" x1="21.8126" y1="60.4841" x2="41.3436" y2="60.4841" gradientUnits="userSpaceOnUse">
<stop stop-color="#2047F4"/>
<stop offset="1" stop-color="#4D6CF5"/>
</linearGradient>
<linearGradient id="paint6_linear" x1="14" y1="50.3281" x2="23.375" y2="50.3281" gradientUnits="userSpaceOnUse">
<stop stop-color="#2047F4"/>
<stop offset="1" stop-color="#4D6CF5"/>
</linearGradient>
<linearGradient id="paint7_linear" x1="43.688" y1="45.664" x2="60.3419" y2="45.664" gradientUnits="userSpaceOnUse">
<stop stop-color="#2047F4"/>
<stop offset="1" stop-color="#4D6CF5"/>
</linearGradient>
<linearGradient id="paint8_linear" x1="40.5625" y1="46.8361" x2="45.25" y2="46.8361" gradientUnits="userSpaceOnUse">
<stop stop-color="#2047F4"/>
<stop offset="1" stop-color="#4D6CF5"/>
</linearGradient>
<linearGradient id="paint9_linear" x1="28.8431" y1="42.5384" x2="42.6623" y2="42.5384" gradientUnits="userSpaceOnUse">
<stop stop-color="#2047F4"/>
<stop offset="1" stop-color="#4D6CF5"/>
</linearGradient>
<linearGradient id="paint10_linear" x1="21.8125" y1="41.3438" x2="30.4063" y2="41.3438" gradientUnits="userSpaceOnUse">
<stop stop-color="#2047F4"/>
<stop offset="1" stop-color="#4D6CF5"/>
</linearGradient>
<linearGradient id="paint11_linear" x1="30.4061" y1="49.5376" x2="41.7961" y2="49.5376" gradientUnits="userSpaceOnUse">
<stop stop-color="#2047F4"/>
<stop offset="1" stop-color="#4D6CF5"/>
</linearGradient>
<linearGradient id="paint12_linear" x1="58.7783" y1="44.4914" x2="60.875" y2="44.4914" gradientUnits="userSpaceOnUse">
<stop stop-color="#2047F4"/>
<stop offset="1" stop-color="#4D6CF5"/>
</linearGradient>
<linearGradient id="paint13_linear" x1="40.2355" y1="49.9282" x2="42.125" y2="49.9282" gradientUnits="userSpaceOnUse">
<stop stop-color="#2047F4"/>
<stop offset="1" stop-color="#4D6CF5"/>
</linearGradient>
<linearGradient id="paint14_linear" x1="28.0641" y1="24.1559" x2="45.2508" y2="24.1559" gradientUnits="userSpaceOnUse">
<stop stop-color="#2047F4"/>
<stop offset="1" stop-color="#4D6CF5"/>
</linearGradient>
<linearGradient id="paint15_linear" x1="37.9404" y1="35.7358" x2="47.594" y2="35.7358" gradientUnits="userSpaceOnUse">
<stop stop-color="#2047F4"/>
<stop offset="1" stop-color="#4D6CF5"/>
</linearGradient>
<linearGradient id="paint16_linear" x1="43.4216" y1="30.2459" x2="53.0629" y2="30.2459" gradientUnits="userSpaceOnUse">
<stop stop-color="#2047F4"/>
<stop offset="1" stop-color="#4D6CF5"/>
</linearGradient>
<linearGradient id="paint17_linear" x1="46.0313" y1="39.7812" x2="53.0625" y2="39.7813" gradientUnits="userSpaceOnUse">
<stop stop-color="#2047F4"/>
<stop offset="1" stop-color="#4D6CF5"/>
</linearGradient>
<linearGradient id="paint18_linear" x1="51.5" y1="37.0469" x2="53.0625" y2="37.0469" gradientUnits="userSpaceOnUse">
<stop stop-color="#2047F4"/>
<stop offset="1" stop-color="#4D6CF5"/>
</linearGradient>
</defs>
</svg>
