<svg width="86" height="86" viewBox="0 0 86 86" fill="none" xmlns="http://www.w3.org/2000/svg">
<path d="M77.5 5V10.9406C77.5 13.5398 78.5325 16.0325 80.3704 17.8704L81.6335 19.1335C84.1777 21.6777 84.5896 25.657 82.6207 28.6684V28.6684C79.9804 32.7064 74.295 33.295 70.8835 29.8835L64.5 23.5" stroke="#CB0101" stroke-width="3" stroke-linecap="round"/>
<path d="M2 53.0001C2 48.6667 2.4 40.0001 4 40.0001C5.6 40.0001 11.3333 43.0001 14 44.5001C25.3333 31.6667 53.7 15.4001 76.5 53.0001" stroke="#000066" stroke-width="3" stroke-linecap="round"/>
<path d="M2 52.9999C2 57.3333 2.4 65.9999 4 65.9999C5.6 65.9999 11.3333 62.9999 14 61.4999C25.3333 74.3333 53.7 90.5999 76.5 52.9999" stroke="#000066" stroke-width="3" stroke-linecap="round"/>
<path d="M30.5 32.5008C30.5 21.3341 35.5 5.70079 55.5 32.5008" stroke="#000066" stroke-width="3" stroke-linecap="round"/>
<path d="M35.5 75C36.8333 81.5 42.2 90.6 53 75" stroke="#000066" stroke-width="3" stroke-linecap="round"/>
<path d="M55.9997 32.5C50.1663 38.8333 41.9997 55.8 55.9997 73" stroke="#000066" stroke-width="3" stroke-linecap="round"/>
<path d="M59.5 49H60" stroke="#000066" stroke-width="5" stroke-linecap="round"/>
</svg>
