<svg width="41" height="41" viewBox="0 0 41 41" fill="none" xmlns="http://www.w3.org/2000/svg">
<path d="M33.7887 12.5845C35.8548 12.8002 37.94 12.5462 39.8843 11.8506" stroke="black" stroke-linecap="round"/>
<path d="M11.6268 40.1305C12.792 36.9009 12.7399 33.2783 11.3294 29.9879C9.10161 24.7879 10.4042 18.6157 14.4042 14.6157C17.4668 11.5514 21.8077 10.0696 26.0077 10.5462" stroke="black" stroke-linecap="round"/>
<path d="M15.5737 31.0272C19.6242 31.3455 23.7529 29.8603 26.7007 26.9142C30.7007 22.9125 32.0033 16.7403 29.7755 11.5403C28.3668 8.25507 28.3129 4.63942 29.4729 1.41333" stroke="black" stroke-linecap="round"/>
<path d="M1.22083 29.677C3.28517 28.9379 5.51126 28.6962 7.70256 28.9883" stroke="black" stroke-linecap="round"/>
<path d="M21.7812 10.9253L30.3899 19.534" stroke="black" stroke-linecap="round"/>
<path d="M28.9094 3.29614L38.0207 12.4074" stroke="black"/>
<path d="M3.06519 29.1013L12.2148 38.2509" stroke="black"/>
<path d="M16.5367 13.0601L28.2567 24.7783" stroke="black" stroke-linecap="round"/>
<path d="M10.4633 21.7422L19.5728 30.8535" stroke="black"/>
<path d="M12.8478 16.749L24.5678 28.469" stroke="black"/>
</svg>
