<svg width="39" height="40" viewBox="0 0 39 40" fill="none" xmlns="http://www.w3.org/2000/svg">
<path d="M30.1798 14.1978H32.4998" stroke="black" stroke-linecap="round" stroke-linejoin="round"/>
<path d="M27.2827 6.04815L29.021 4.30981" stroke="black" stroke-linecap="round" stroke-linejoin="round"/>
<path d="M19.1658 3.18377V0.86377" stroke="black" stroke-linecap="round" stroke-linejoin="round"/>
<path d="M11.0507 6.04815L9.31067 4.30981" stroke="black" stroke-linecap="round" stroke-linejoin="round"/>
<path d="M8.15097 14.1978H5.83264" stroke="black" stroke-linecap="round" stroke-linejoin="round"/>
<path fill-rule="evenodd" clip-rule="evenodd" d="M0.83252 25.8333V39.1667H37.4992V25.8333C28.3325 19.9483 9.99919 20.0517 0.83252 25.8333V25.8333Z" stroke="black" stroke-linecap="round" stroke-linejoin="round"/>
<path d="M27.7173 39.2008L22.2806 21.5525" stroke="black" stroke-linecap="round" stroke-linejoin="round"/>
<path d="M37.531 37.5112L24.7227 21.7712" stroke="black" stroke-linecap="round" stroke-linejoin="round"/>
<path d="M10.6145 39.1666L16.0512 21.5649" stroke="black" stroke-linecap="round" stroke-linejoin="round"/>
<path d="M0.939941 37.5112L13.7783 21.7712" stroke="black" stroke-linecap="round" stroke-linejoin="round"/>
<path d="M19.1658 39.2009V21.4592" stroke="black" stroke-linecap="round" stroke-linejoin="round"/>
<path d="M15.3718 21.6212C12.6768 20.2395 10.8318 17.4345 10.8318 14.1978C10.8318 9.5945 14.5635 5.8645 19.1651 5.8645C23.7685 5.8645 27.4985 9.5945 27.4985 14.1978C27.4985 17.4212 25.6685 20.2178 22.9901 21.6045" stroke="black" stroke-linecap="round" stroke-linejoin="round"/>
</svg>
