<svg width="40" height="40" viewBox="0 0 40 40" fill="none" xmlns="http://www.w3.org/2000/svg">
<path fill-rule="evenodd" clip-rule="evenodd" d="M25.8326 12.3746C23.8259 13.7129 22.7926 16.1563 25.8326 18.2079C27.4993 22.3746 30.5993 21.2529 32.4343 19.3196C34.2693 17.3863 35.2293 11.9929 33.8726 9.04126C30.9426 11.2496 28.3326 10.7079 25.8326 12.3746V12.3746Z" stroke="black" stroke-linecap="round" stroke-linejoin="round"/>
<path fill-rule="evenodd" clip-rule="evenodd" d="M20.0332 6.49252C22.1916 9.03252 23.3316 12.3742 18.1882 14.6175C15.8316 19.8742 12.2516 17.9275 9.86823 15.1225C7.48489 12.3125 6.57489 4.80085 8.67323 0.83252C12.5416 4.10752 17.3382 3.31585 20.0332 6.49252V6.49252Z" stroke="black" stroke-linecap="round" stroke-linejoin="round"/>
<path d="M29.9991 14.8747C24.9991 17.3747 22.4991 24.0413 22.4991 24.0413C22.4991 24.0413 20.3924 14.2747 12.0591 6.77466" stroke="black" stroke-linecap="round" stroke-linejoin="round"/>
<path fill-rule="evenodd" clip-rule="evenodd" d="M0.831787 37.5001H7.49845V24.1667H0.831787V37.5001Z" stroke="black" stroke-linejoin="round"/>
<path d="M7.49927 34.9999C25.3809 40.9616 18.7859 41.0216 39.1659 30.8332C37.3943 29.0632 35.9943 28.6449 34.1659 29.1666L26.7759 31.6182" stroke="black" stroke-linecap="round" stroke-linejoin="round"/>
<path d="M7.49927 25.8333H12.4993C16.4209 25.8333 19.1659 28.3333 19.9993 29.1666H24.9993C27.6543 29.1666 27.6543 32.4999 24.9993 32.4999H15.8326" stroke="black" stroke-linecap="round" stroke-linejoin="round"/>
</svg>
