<svg width="17" height="17" viewBox="0 0 17 17" fill="none" xmlns="http://www.w3.org/2000/svg">
<g clip-path="url(#clip0_387_37278)">
<path d="M2.27379 3.75332L3.17513 6.66999L0.703125 8.41198C0.720856 6.73207 1.27076 5.10104 2.27379 3.75332V3.75332ZM5.28046 13.1667L2.20646 13.1593C3.19875 14.542 4.60527 15.5731 6.22246 16.1033L5.28046 13.1667ZM8.69846 2.66799L11.1491 0.887319C9.55616 0.370894 7.84076 0.370894 6.24779 0.887319L8.69846 2.66799ZM15.1171 3.74532L14.2131 6.66999L16.6945 8.41798C16.6774 6.73259 16.125 5.09625 15.1171 3.74532V3.74532ZM12.1085 13.1667L11.1651 16.1067C12.7866 15.5764 14.1969 14.543 15.1911 13.1567L12.1085 13.1667ZM9.65913 16.4393C9.34041 16.4787 9.01961 16.499 8.69846 16.5C8.3743 16.4974 8.05059 16.4751 7.72912 16.4333L6.25379 11.8333L1.43179 11.8213C1.15712 11.2243 0.95781 10.5955 0.838458 9.94932L4.73713 7.20199L3.31513 2.60199C3.77481 2.17825 4.28248 1.80975 4.82779 1.50399L8.69846 4.31599L12.5691 1.50399C13.1124 1.80801 13.6185 2.17425 14.0771 2.59532L12.6538 7.20199L16.5598 9.95465C16.4399 10.5989 16.2409 11.2259 15.9671 11.8213L11.1351 11.8333L9.65913 16.4393ZM6.26446 11.8333H11.1311L12.6351 7.20398L8.69846 4.34265L4.76046 7.20398L6.26446 11.8333ZM6.33113 7.71265L7.23179 10.5H10.1651L11.0705 7.71265L8.69846 5.99065L6.33113 7.71265Z" fill="#011955"/>
</g>
<defs>
<clipPath id="clip0_387_37278">
<rect width="16" height="16" fill="white" transform="translate(0.699219 0.5)"/>
</clipPath>
</defs>
</svg>
