<svg width="50" height="50" viewBox="0 0 50 50" fill="none" xmlns="http://www.w3.org/2000/svg">
<path fill-rule="evenodd" clip-rule="evenodd" d="M25 50C38.7363 50 50 38.7912 50 25C50 11.2088 38.7363 0 25 0C11.2088 0 0 11.2088 0 25C0 38.7912 11.2088 50 25 50Z" fill="#0A4586"/>
<path fill-rule="evenodd" clip-rule="evenodd" d="M17.9121 0.989014C7.58242 4.06594 0 13.6264 0 25C0 38.7912 11.2088 50 25 50C35.989 50 45.3297 42.8571 48.6813 33.022C44.6154 37.8022 38.5165 40.8242 31.7033 40.8242C19.3956 40.8242 9.45055 30.8242 9.45055 18.5165C9.39561 11.4286 12.7473 5.10989 17.9121 0.989014Z" fill="#093B73"/>
<path fill-rule="evenodd" clip-rule="evenodd" d="M17.4715 48.8462C18.021 49.011 18.5704 49.1759 19.1199 49.2858C18.5155 49.011 18.021 48.6264 17.6364 48.1869C17.0869 47.4726 16.8122 46.4836 16.977 44.8901L16.4276 44.8352C16.2628 46.5385 16.5375 47.6924 17.1968 48.5165C17.3067 48.6814 17.4166 48.7363 17.4715 48.8462Z" fill="white"/>
<path fill-rule="evenodd" clip-rule="evenodd" d="M4.66992 39.5604C4.94465 39.945 5.21937 40.2747 5.4941 40.6044C7.36223 41.5934 8.90069 41.978 10.9886 41.5384L10.8787 40.989C8.57102 41.4835 6.97761 40.8242 4.66992 39.5604Z" fill="white"/>
<path fill-rule="evenodd" clip-rule="evenodd" d="M0 24.066C0 24.3956 0 24.6704 0 25C0 25.1099 0 25.2198 0 25.3297C0.274725 24.7802 0.549451 24.2857 0.824176 23.7363C1.48352 22.6923 2.1978 21.6484 3.07692 20.7693L2.74725 20.3846C1.81319 21.2638 1.04396 22.3627 0.384615 23.4616C0.274725 23.6813 0.164835 23.8462 0 24.066Z" fill="white"/>
<path fill-rule="evenodd" clip-rule="evenodd" d="M4.56091 10.5495C4.39608 10.8242 4.23124 11.044 4.06641 11.3187V11.4836C4.28619 14.1759 4.61586 18.2968 5.11036 21.4286L5.65981 21.3737C5.22025 18.2418 4.89058 14.1209 4.6708 11.4286C4.61586 11.0989 4.61586 10.8242 4.56091 10.5495Z" fill="white"/>
<path d="M32.1434 1.75824C37.8027 3.62637 41.3192 6.86813 44.8357 10.0549L45.2203 10.4396L44.8357 10.8791L44.451 10.4396C40.9895 7.25274 37.528 4.12088 31.9785 2.25275L32.1434 1.75824Z" fill="white"/>
<path d="M27.9674 2.36261C28.5718 4.45052 29.1213 6.42854 29.6158 8.46151C30.0553 10.4395 30.385 12.4725 30.4949 14.5055L29.9454 14.5604C29.8356 12.5274 29.5059 10.5494 29.0663 8.5714C28.6268 6.59338 28.0773 4.61536 27.418 2.52744L27.9674 2.36261Z" fill="white" stroke="white" stroke-width="0.75" stroke-miterlimit="10"/>
<path d="M20.0005 2.74725C17.8027 3.62637 15.9346 4.72527 14.3412 6.04396C12.7478 7.30769 11.4291 8.79121 10.3302 10.3846L9.89062 10.0549C10.9895 8.40659 12.3632 6.92308 14.0115 5.6044C15.6599 4.28571 17.5829 3.18681 19.8357 2.25275L20.0005 2.74725Z" fill="white" stroke="white" stroke-width="0.75" stroke-miterlimit="10"/>
<path d="M10.385 16.4835C11.2641 16.5934 12.1982 16.7033 13.1323 16.8132C17.3081 17.3077 21.374 17.8022 23.7916 19.1758L23.5169 19.6703C21.2092 18.3517 17.1982 17.8571 13.0773 17.4176C12.1982 17.3077 11.2641 17.1978 10.3301 17.0879L10.385 16.4835Z" fill="white" stroke="white" stroke-width="0.75" stroke-miterlimit="10"/>
<path d="M46.9782 16.4285C45.22 16.8681 43.4617 17.3077 41.7035 17.8022C39.8903 18.2967 38.1321 18.7912 36.3738 19.2857L36.209 18.7362C38.0222 18.2417 39.7804 17.6923 41.5387 17.2527C43.2969 16.7582 45.1101 16.3187 46.8683 15.8791L46.9782 16.4285Z" fill="white" stroke="white" stroke-width="0.75" stroke-miterlimit="10"/>
<path d="M49.5603 22.1428C49.3405 24.6703 48.901 27.1428 48.2416 29.6153C47.5273 32.0879 46.5383 34.5604 45.1097 36.978L44.6152 36.7033C45.9889 34.3406 46.9779 31.923 47.6922 29.5055C48.4064 27.0879 48.7911 24.6153 49.0108 22.1428H49.5603Z" fill="white"/>
<path d="M34.4515 25.8242C35.8801 27.6923 37.0889 29.6703 38.1878 31.7582C39.2867 33.7912 40.2208 35.9341 41.0449 38.1319L40.4955 38.3516C39.6713 36.1538 38.7372 34.0659 37.6383 32.0329C36.5944 30 35.3856 28.022 33.957 26.2088L34.4515 25.8242Z" fill="white" stroke="white" stroke-width="0.75" stroke-miterlimit="10"/>
<path d="M27.5281 26.2088C26.0995 28.4066 24.5611 30.4945 22.9677 32.5824C21.3193 34.6703 19.616 36.7033 17.8028 38.7363L17.3633 38.3517C19.1215 36.3736 20.8798 34.2857 22.4732 32.2528C24.1215 30.1649 25.66 28.0769 27.0336 25.9341L27.5281 26.2088Z" fill="white" stroke="white" stroke-width="0.75" stroke-miterlimit="10"/>
<path d="M19.9458 43.2417C22.803 44.1209 25.5502 44.5055 28.1876 44.4505C30.8249 44.3956 33.3524 43.9011 35.8249 42.8571L36.0447 43.3516C33.5173 44.3956 30.9348 44.945 28.2425 45C25.5502 45.0549 22.748 44.6154 19.8359 43.7362L19.9458 43.2417Z" fill="white" stroke="white" stroke-width="0.75" stroke-miterlimit="10"/>
<path d="M5.71377 21.3736C6.20828 24.6703 6.86762 27.8022 7.74674 30.4395C8.62586 33.0769 9.77971 35.2747 11.3731 36.7033L10.9885 37.1428C9.34014 35.6044 8.13135 33.3516 7.19729 30.6593C6.26322 27.967 5.65883 24.8351 5.10938 21.4835L5.71377 21.3736Z" fill="white" stroke="white" stroke-width="0.75" stroke-miterlimit="10"/>
<path fill-rule="evenodd" clip-rule="evenodd" d="M37.5816 46.5934C40.4387 44.9451 42.9112 42.7473 44.8892 40.1648C45.7684 38.3517 46.4277 36.3736 46.2629 34.2308C44.5046 35.4945 42.4717 36.3187 39.8893 36.2088C38.3508 39.8352 36.3178 42.6374 33.5156 43.956C34.5046 45.3846 35.7684 46.4835 37.5816 46.5934Z" fill="#3DA8FB"/>
<path fill-rule="evenodd" clip-rule="evenodd" d="M49.8343 22.6373C49.3947 17.6923 47.4717 13.1868 44.6145 9.50548C44.2299 9.34064 43.8453 9.17581 43.5156 9.06592C45.3838 11.5384 45.6585 13.956 44.9991 16.5384C46.9772 18.6813 48.0761 20.7143 49.0101 24.1209C49.3398 23.7362 49.6145 23.2417 49.8343 22.6373Z" fill="#3DA8FB"/>
<path fill-rule="evenodd" clip-rule="evenodd" d="M25.0001 0C23.2418 0 21.5935 0.164835 19.9451 0.494505C19.066 1.26374 18.7913 2.08791 18.7363 3.02198C26.3187 3.40659 27.5275 4.23077 28.4616 5.10989C29.2308 3.62637 31.8682 3.2967 34.5056 2.91209C33.9561 2.1978 32.9671 1.53846 31.8133 0.934066C29.6154 0.32967 27.3627 0 25.0001 0Z" fill="#3DA8FB"/>
<path fill-rule="evenodd" clip-rule="evenodd" d="M30.0557 12.5824C33.8469 14.3956 35.5502 15.4395 38.6271 18.2967C38.0227 22.3077 37.4733 24.4505 35.8249 28.1868C32.2535 28.6264 29.2315 28.7362 25.5502 28.5714C24.4513 25.2747 23.1876 21.8132 21.9238 18.6813C24.781 15.8791 26.704 14.6703 30.0557 12.5824Z" fill="#FF3333"/>
<path fill-rule="evenodd" clip-rule="evenodd" d="M10.8792 9.12091C10.9891 12.0879 11.2638 14.8352 12.4177 16.9781C9.50558 18.9011 7.63745 21.6484 6.20888 24.9451C4.67042 24.3956 3.1869 23.6264 1.64844 22.033C1.75833 14.011 5.10998 10.055 10.8792 9.12091Z" fill="#3DA8FB"/>
<path fill-rule="evenodd" clip-rule="evenodd" d="M9.67066 34.7802C12.9674 36.0989 16.2091 36.4286 19.4509 36.4286C20.33 39.4505 21.7036 42.0879 23.4619 44.3406C21.2091 46.0989 19.0663 46.9231 16.8685 46.8132C13.1322 46.6483 8.95637 42.967 8.35197 41.3736C7.96736 38.956 8.68165 36.8132 9.67066 34.7802Z" fill="#3DA8FB"/>
</svg>
