<svg width="40" height="32" viewBox="0 0 40 32" fill="none" xmlns="http://www.w3.org/2000/svg">
<path d="M16.0006 9.42999L8.9668 14.5314L11.6721 22.7247H20.3291L23.0344 14.5314L16.0006 9.42999Z" stroke="#0A4586" stroke-width="1.4" stroke-miterlimit="10" stroke-linecap="round" stroke-linejoin="round"/>
<path d="M11.9041 18.087L10.9766 15.1498L16.0007 11.5169" stroke="#3BA8FF" stroke-width="1.4" stroke-miterlimit="10" stroke-linecap="round" stroke-linejoin="round"/>
<path d="M11.5169 22.7247L9.27539 25.2754" stroke="#0A4586" stroke-width="1.4" stroke-miterlimit="10" stroke-linecap="round" stroke-linejoin="round"/>
<path d="M4.79297 12.3672L9.12147 14.4541" stroke="#0A4586" stroke-width="1.4" stroke-miterlimit="10" stroke-linecap="round" stroke-linejoin="round"/>
<path d="M25.9701 12.5991L23.1875 14.2995" stroke="#0A4586" stroke-width="1.4" stroke-miterlimit="10" stroke-linecap="round" stroke-linejoin="round"/>
<path d="M16 9.50723V3.94202" stroke="#0A4586" stroke-width="1.4" stroke-miterlimit="10" stroke-linecap="round" stroke-linejoin="round"/>
<path d="M20.7149 30.686C19.2463 31.1498 17.6231 31.459 16 31.459C7.49754 31.459 0.541016 24.5024 0.541016 16C0.541016 7.4976 7.49754 0.541077 16 0.541077C24.5024 0.541077 31.4589 7.4976 31.4589 16C31.4589 17.7005 31.1497 19.3237 30.6859 20.8696" stroke="#0A4586" stroke-width="1.4" stroke-miterlimit="10" stroke-linecap="round" stroke-linejoin="round"/>
<path d="M26.2793 12.3672L31.3807 16.773C31.3807 16.5411 31.3807 16.3092 31.3807 16C31.3807 11.7488 29.6803 7.96138 26.9749 5.17877L26.2793 12.3672Z" stroke="#0A4586" stroke-width="1.4" stroke-miterlimit="10" stroke-linecap="round" stroke-linejoin="round"/>
<path d="M4.79222 12.3671L4.09657 6.10626C1.85503 8.81158 0.541016 12.2125 0.541016 16L4.79222 12.3671Z" stroke="#0A4586" stroke-width="1.4" stroke-miterlimit="10" stroke-linecap="round" stroke-linejoin="round"/>
<path d="M15.9996 0.541077C14.2991 0.541077 12.5986 0.850255 11.0527 1.31402L15.9996 3.86475L20.9465 1.31402C19.4006 0.850255 17.7001 0.541077 15.9996 0.541077Z" stroke="#0A4586" stroke-width="1.4" stroke-miterlimit="10" stroke-linecap="round" stroke-linejoin="round"/>
<path d="M9.27537 25.3526L3.0918 24.4251C5.17875 27.5942 8.34784 29.913 12.058 30.9179L9.27537 25.3526Z" stroke="#0A4586" stroke-width="1.4" stroke-miterlimit="10" stroke-linecap="round" stroke-linejoin="round"/>
<path d="M31.6127 25.6619H23.4194C22.9557 25.6619 22.6465 25.3527 22.6465 24.8889V23.4976C22.6465 23.0338 22.9557 22.7247 23.4194 22.7247H31.69C32.1537 22.7247 32.4629 23.0338 32.4629 23.4976V24.8889C32.3856 25.2754 32.0764 25.6619 31.6127 25.6619Z" stroke="#ED2939" stroke-width="1.4" stroke-miterlimit="10" stroke-linecap="round" stroke-linejoin="round"/>
<path d="M31.6127 28.5218H23.4194C22.9557 28.5218 22.6465 28.2126 22.6465 27.7488V26.3575C22.6465 25.8938 22.9557 25.5846 23.4194 25.5846H31.69C32.1537 25.5846 32.4629 25.8938 32.4629 26.3575V27.7488C32.3856 28.2126 32.0764 28.5218 31.6127 28.5218Z" stroke="#ED2939" stroke-width="1.4" stroke-miterlimit="10" stroke-linecap="round" stroke-linejoin="round"/>
<path d="M31.6127 31.459H23.4194C22.9557 31.459 22.6465 31.1498 22.6465 30.686V29.2947C22.6465 28.831 22.9557 28.5218 23.4194 28.5218H31.69C32.1537 28.5218 32.4629 28.831 32.4629 29.2947V30.686C32.3856 31.1498 32.0764 31.459 31.6127 31.459Z" stroke="#ED2939" stroke-width="1.4" stroke-miterlimit="10" stroke-linecap="round" stroke-linejoin="round"/>
<path d="M32.1543 28.5218H38.7243C38.8789 28.5218 39.0335 28.831 39.0335 29.2174V30.686C39.0335 31.0725 38.8789 31.3817 38.7243 31.3817H32.1543" stroke="#ED2939" stroke-width="1.4" stroke-miterlimit="10" stroke-linecap="round" stroke-linejoin="round"/>
<path d="M32.1543 25.6619H38.7243C38.8789 25.6619 39.0335 25.971 39.0335 26.3575V27.8261C39.0335 28.2126 38.8789 28.5218 38.7243 28.5218H32.1543" stroke="#ED2939" stroke-width="1.4" stroke-miterlimit="10" stroke-linecap="round" stroke-linejoin="round"/>
</svg>
