<svg width="40" height="40" viewBox="0 0 40 40" fill="none" xmlns="http://www.w3.org/2000/svg">
<path fill-rule="evenodd" clip-rule="evenodd" d="M20 40C30.989 40 40 31.033 40 20C40 8.96703 30.989 0 20 0C8.96703 0 0 8.96703 0 20C0 31.033 8.96703 40 20 40Z" fill="#0A4586"/>
<path fill-rule="evenodd" clip-rule="evenodd" d="M14.3297 0.791016C6.06593 3.25255 0 10.9009 0 19.9998C0 31.0328 8.96703 39.9998 20 39.9998C28.7912 39.9998 36.2637 34.2855 38.9451 26.4174C35.6923 30.2416 30.8132 32.6591 25.3626 32.6591C15.5165 32.6591 7.56044 24.6591 7.56044 14.813C7.51648 9.14266 10.1978 4.08772 14.3297 0.791016Z" fill="#093B73"/>
<path fill-rule="evenodd" clip-rule="evenodd" d="M13.978 39.077C14.4176 39.2088 14.8571 39.3407 15.2967 39.4286C14.8132 39.2088 14.4176 38.9011 14.1099 38.5495C13.6703 37.9781 13.4505 37.1868 13.5824 35.9121L13.1429 35.8682C13.011 37.2308 13.2308 38.1539 13.7582 38.8132C13.8461 38.9451 13.9341 38.989 13.978 39.077Z" fill="white"/>
<path fill-rule="evenodd" clip-rule="evenodd" d="M3.73633 31.6484C3.95611 31.9561 4.17589 32.2199 4.39567 32.4836C5.89017 33.2748 7.12094 33.5825 8.79127 33.2309L8.70336 32.7913C6.85721 33.1869 5.58248 32.6594 3.73633 31.6484Z" fill="white"/>
<path fill-rule="evenodd" clip-rule="evenodd" d="M0 19.2527C0 19.5164 0 19.7362 0 19.9999C0 20.0878 0 20.1757 0 20.2637C0.21978 19.8241 0.43956 19.4285 0.659341 18.9889C1.18681 18.1538 1.75824 17.3186 2.46154 16.6153L2.1978 16.3076C1.45055 17.0109 0.835165 17.89 0.307692 18.7692C0.21978 18.945 0.131868 19.0768 0 19.2527Z" fill="white"/>
<path fill-rule="evenodd" clip-rule="evenodd" d="M3.64756 8.43945C3.51569 8.65923 3.38382 8.83506 3.25195 9.05484V9.18671C3.42778 11.3406 3.69151 14.6373 4.08712 17.1427L4.52668 17.0988C4.17503 14.5933 3.91129 11.2966 3.73547 9.14275C3.69151 8.87901 3.69151 8.65923 3.64756 8.43945Z" fill="white"/>
<path d="M25.7139 1.40674C30.2414 2.90124 33.0546 5.49465 35.8677 8.0441L36.1754 8.35179L35.8677 8.70344L35.5601 8.35179C32.7908 5.80234 30.0216 3.29685 25.582 1.80234L25.7139 1.40674Z" fill="white"/>
<path d="M22.3732 1.89014C22.8567 3.56047 23.2962 5.14288 23.6918 6.76926C24.0435 8.35167 24.3072 9.97805 24.3951 11.6044L23.9556 11.6484C23.8677 10.022 23.6039 8.43959 23.2523 6.85717C22.9006 5.27475 22.4611 3.69233 21.9336 2.022L22.3732 1.89014Z" fill="white" stroke="white" stroke-width="0.75" stroke-miterlimit="10"/>
<path d="M16 2.19785C14.2418 2.90115 12.7473 3.78027 11.4725 4.83521C10.1978 5.8462 9.14288 7.03302 8.26376 8.30774L7.91211 8.044C8.79123 6.72532 9.89013 5.53851 11.2088 4.48356C12.5275 3.42862 14.066 2.5495 15.8682 1.80225L16 2.19785Z" fill="white" stroke="white" stroke-width="0.75" stroke-miterlimit="10"/>
<path d="M8.30763 13.187C9.01092 13.2749 9.75818 13.3628 10.5054 13.4507C13.8461 13.8464 17.0988 14.242 19.0329 15.3409L18.8131 15.7365C16.967 14.6815 13.7582 14.2859 10.4615 13.9343C9.75818 13.8464 9.01092 13.7584 8.26367 13.6705L8.30763 13.187Z" fill="white" stroke="white" stroke-width="0.75" stroke-miterlimit="10"/>
<path d="M37.5822 13.1427C36.1756 13.4943 34.769 13.846 33.3624 14.2416C31.9119 14.6372 30.5053 15.0328 29.0987 15.4284L28.9668 14.9888C30.4173 14.5932 31.8239 14.1537 33.2305 13.802C34.6371 13.4064 36.0877 13.0548 37.4943 12.7031L37.5822 13.1427Z" fill="white" stroke="white" stroke-width="0.75" stroke-miterlimit="10"/>
<path d="M39.6475 17.7144C39.4716 19.7363 39.12 21.7144 38.5925 23.6924C38.0211 25.6704 37.2299 27.6484 36.087 29.5825L35.6914 29.3627C36.7903 27.4726 37.5815 25.5385 38.1529 23.6045C38.7244 21.6704 39.0321 19.6924 39.2079 17.7144H39.6475Z" fill="white"/>
<path d="M27.5597 20.6592C28.7025 22.1537 29.6696 23.7361 30.5487 25.4064C31.4278 27.0328 32.175 28.7471 32.8344 30.5053L32.3948 30.6812C31.7355 28.9229 30.9882 27.2526 30.1091 25.6262C29.274 23.9998 28.3069 22.4174 27.1641 20.9669L27.5597 20.6592Z" fill="white" stroke="white" stroke-width="0.75" stroke-miterlimit="10"/>
<path d="M22.0225 20.9669C20.8796 22.7251 19.6489 24.3954 18.3741 26.0658C17.0555 27.7361 15.6928 29.3625 14.2423 30.9888L13.8906 30.6811C15.2972 29.0987 16.7038 27.4284 17.9785 25.802C19.2972 24.1317 20.528 22.4614 21.6269 20.7471L22.0225 20.9669Z" fill="white" stroke="white" stroke-width="0.75" stroke-miterlimit="10"/>
<path d="M15.9571 34.5933C18.2428 35.2966 20.4406 35.6043 22.5505 35.5604C24.6604 35.5164 26.6823 35.1208 28.6603 34.2856L28.8362 34.6812C26.8142 35.5164 24.7483 35.956 22.5944 35.9999C20.4406 36.0439 18.1988 35.6922 15.8691 34.9889L15.9571 34.5933Z" fill="white" stroke="white" stroke-width="0.75" stroke-miterlimit="10"/>
<path d="M4.57141 17.0991C4.96701 19.7365 5.49448 22.242 6.19778 24.3519C6.90108 26.4618 7.82415 28.22 9.09888 29.3629L8.79119 29.7145C7.47251 28.4837 6.50547 26.6815 5.75822 24.5277C5.01097 22.3738 4.52745 19.8684 4.08789 17.187L4.57141 17.0991Z" fill="white" stroke="white" stroke-width="0.75" stroke-miterlimit="10"/>
<path fill-rule="evenodd" clip-rule="evenodd" d="M30.0652 37.2749C32.351 35.9562 34.329 34.198 35.9114 32.132C36.6147 30.6815 37.1422 29.0991 37.0103 27.3848C35.6037 28.3958 33.9773 29.0551 31.9114 28.9672C30.6806 31.8683 29.0543 34.11 26.8125 35.165C27.6037 36.3078 28.6147 37.187 30.0652 37.2749Z" fill="#3DA8FB"/>
<path fill-rule="evenodd" clip-rule="evenodd" d="M39.8675 18.1101C39.5158 14.154 37.9773 10.5496 35.6916 7.60458C35.3839 7.47271 35.0762 7.34084 34.8125 7.25293C36.307 9.23095 36.5268 11.165 35.9993 13.231C37.5817 14.9452 38.4609 16.5716 39.2081 19.2969C39.4718 18.9892 39.6916 18.5936 39.8675 18.1101Z" fill="#3DA8FB"/>
<path fill-rule="evenodd" clip-rule="evenodd" d="M19.9993 0C18.5927 0 17.274 0.131868 15.9553 0.395604C15.252 1.01099 15.0322 1.67033 14.9883 2.41758C21.0542 2.72527 22.0212 3.38461 22.7685 4.08791C23.3839 2.9011 25.4938 2.63736 27.6037 2.32967C27.1641 1.75824 26.3729 1.23077 25.4498 0.747253C23.6916 0.263736 21.8894 0 19.9993 0Z" fill="#3DA8FB"/>
<path fill-rule="evenodd" clip-rule="evenodd" d="M24.0446 10.0659C27.0775 11.5165 28.4402 12.3516 30.9017 14.6373C30.4182 17.8461 29.9786 19.5604 28.6599 22.5494C25.8028 22.9011 23.3852 22.989 20.4402 22.8571C19.561 20.2198 18.5501 17.4505 17.5391 14.945C19.8248 12.7033 21.3632 11.7362 24.0446 10.0659Z" fill="#FF3333"/>
<path fill-rule="evenodd" clip-rule="evenodd" d="M8.70297 7.29688C8.79089 9.6705 9.01067 11.8683 9.93374 13.5826C7.60407 15.1211 6.10957 17.3189 4.96671 19.9562C3.73594 19.5167 2.54913 18.9013 1.31836 17.6265C1.40627 11.209 4.08759 8.04413 8.70297 7.29688Z" fill="#3DA8FB"/>
<path fill-rule="evenodd" clip-rule="evenodd" d="M7.73731 27.8242C10.3747 28.8792 12.9681 29.1429 15.5615 29.1429C16.2648 31.5605 17.3637 33.6704 18.7703 35.4726C16.9681 36.8792 15.2538 37.5385 13.4955 37.4506C10.5065 37.3187 7.16588 34.3737 6.68236 33.0989C6.37467 31.1649 6.9461 29.4506 7.73731 27.8242Z" fill="#3DA8FB"/>
</svg>
