<svg width="81" height="80" viewBox="0 0 81 80" fill="none" xmlns="http://www.w3.org/2000/svg">
<g clip-path="url(#clip0_461_4477)">
<path d="M49.2566 52.9752H31.7424L26.3418 36.3502L40.4995 26.0752L54.6572 36.3502L49.2566 52.9752ZM33.5847 50.4752H47.4143L51.7046 37.3002L40.4995 29.1752L29.2945 37.3002L33.5847 50.4752Z" fill="#CB0101"/>
<path d="M78.9081 41.15L65.1289 31.95L69.621 16L72.0437 16.65L68.0563 30.875L80.3213 39.075L78.9081 41.15Z" fill="#CB0101"/>
<path d="M51.9308 77.525L49.5586 76.675L55.3125 61.125L71.893 61.775L71.792 64.275L57.0539 63.7L51.9308 77.525Z" fill="#CB0101"/>
<path d="M27.8313 76.425L22.7083 62.575L7.97009 63.15L7.86914 60.65L24.4496 60L30.2035 75.55L27.8313 76.425Z" fill="#CB0101"/>
<path d="M2.09098 41.15L0.677734 39.075L12.9679 30.875L8.98057 16.65L11.4033 16L15.8954 31.95L2.09098 41.15Z" fill="#CB0101"/>
<path d="M40.4962 14.8496L27.0703 5.09961L28.5593 3.09961L40.4962 11.7496L52.4331 3.09961L53.922 5.09961L40.4962 14.8496Z" fill="#CB0101"/>
<path d="M31.7418 50.8727L22.6621 60.4316L24.5001 62.1449L33.5798 52.586L31.7418 50.8727Z" fill="#000066"/>
<path d="M49.3665 51.0112L47.3262 52.4824L55.1679 63.1546L57.2083 61.6834L49.3665 51.0112Z" fill="#000066"/>
<path d="M66.1141 30.2689L52.7207 35.6709L53.6724 37.9864L67.0657 32.5844L66.1141 30.2689Z" fill="#000066"/>
<path d="M41.76 13.2998H39.2363V28.4248H41.76V13.2998Z" fill="#000066"/>
<path d="M14.8975 30.2656L13.9453 32.5809L27.3372 37.9857L28.2894 35.6704L14.8975 30.2656Z" fill="#000066"/>
<path d="M40.5 80C18.4432 80 0.5 62.05 0.5 40C0.5 17.95 18.4432 0 40.5 0C62.5568 0 80.5 17.95 80.5 40C80.5252 62.05 62.582 80 40.5 80ZM40.5 2.5C19.8312 2.5 3.02366 19.325 3.02366 40C3.02366 60.675 19.8312 77.5 40.5 77.5C61.1687 77.5 77.9763 60.675 77.9763 40C77.9763 19.325 61.1687 2.5 40.5 2.5Z" fill="#000066"/>
</g>
<defs>
<clipPath id="clip0_461_4477">
<rect width="80" height="80" fill="white" transform="translate(0.5)"/>
</clipPath>
</defs>
</svg>
