<svg width="64" height="67" viewBox="0 0 64 67" fill="none" xmlns="http://www.w3.org/2000/svg">
<path fill-rule="evenodd" clip-rule="evenodd" d="M63.4968 18.9689L32.558 0.160717C32.2081 -0.0535723 31.7682 -0.0535723 31.4183 0.160717L0.499416 18.9689C0.176563 19.1746 -0.0132836 19.5369 0.000724869 19.9205V65.8611C0.000724869 66.4755 0.433339 67 1.04534 67H7.64289C8.25544 66.9855 8.74074 66.4761 8.72782 65.8611V34.3211H55.2723V65.8611C55.2594 66.4761 55.7447 66.9855 56.3572 67H62.9548C63.5668 67 63.9994 66.4755 63.9994 65.8611V19.9208C64.012 19.5364 63.8208 19.1742 63.4968 18.9689ZM49.2145 46.8212L46.2856 38.8647C45.7441 37.3985 44.3567 36.4205 42.7991 36.4069H21.7232C20.1655 36.4207 18.7782 37.3986 18.2365 38.8647L15.3485 46.6998L14.2106 47.7773C13.0996 48.7379 12.4628 50.1384 12.468 51.6104V65.8611C12.4563 66.4766 12.9425 66.9857 13.5556 67H20.9507C21.244 66.9926 21.5222 66.8684 21.724 66.6547C21.9258 66.441 22.0345 66.1554 22.0262 65.8611V61.8548H41.9739V65.8611C41.9656 66.1554 42.0743 66.441 42.2761 66.6547C42.4779 66.8684 42.7562 66.9926 43.0494 67H50.4446C51.0576 66.9857 51.5438 66.4766 51.5321 65.8611V51.3104C51.5336 49.9374 50.9785 48.6229 49.9945 47.6694L49.2145 46.8212ZM20.3148 39.6609C20.53 39.0608 21.0881 38.653 21.7232 38.6319H42.7991C43.4342 38.653 43.9922 39.0608 44.2075 39.6609L46.6336 46.2802H17.8885L20.3148 39.6609ZM14.6844 64.7751H19.8098V61.8548H14.6844V64.7751ZM44.1903 64.7751V61.8548H49.3157V64.7751H44.1903ZM14.6844 59.6299H49.3157V51.3104C49.3181 50.5401 49.0036 49.8031 48.4465 49.2736L48.4349 49.2627L48.4348 49.2627C48.4303 49.2585 48.4264 49.2549 48.4223 49.2508L48.4145 49.243L48.4085 49.2366L47.7047 48.5051H16.7318L15.6974 49.4518C15.6912 49.4577 15.6862 49.4574 15.6812 49.4571C15.6763 49.4568 15.6713 49.4565 15.665 49.4618C15.0387 49.998 14.6799 50.7842 14.6844 51.6104V59.6299ZM8.72782 27.6462V32.0961H55.2723V27.6462H8.72782ZM19.5152 51.1472H20.1544C21.9522 51.1472 23.4097 52.6103 23.4097 54.4151C23.4097 56.2199 21.9522 57.683 20.1544 57.683H19.5152C17.7173 57.683 16.2599 56.2199 16.2599 54.4151C16.2599 52.6103 17.7173 51.1472 19.5152 51.1472ZM19.5152 55.4581H20.1544C20.7281 55.4581 21.1933 54.9911 21.1933 54.4151C21.1933 53.8391 20.7281 53.3722 20.1544 53.3722H19.5152C18.9414 53.3722 18.4763 53.8391 18.4763 54.4151C18.4763 54.9911 18.9414 55.4581 19.5152 55.4581ZM57.4887 64.775H61.783V20.5479L32.0001 2.41278L2.21713 20.5479V64.775H6.51141V26.5439C6.52151 25.923 7.02429 25.4241 7.64289 25.4213H56.3572C56.9758 25.4241 57.4786 25.923 57.4887 26.5439V64.775ZM43.8458 51.1472H44.4849C46.2828 51.1472 47.7403 52.6103 47.7403 54.4151C47.7403 56.2199 46.2828 57.683 44.4849 57.683H43.8458C42.0479 57.683 40.5904 56.2199 40.5904 54.4151C40.5904 52.6103 42.0479 51.1472 43.8458 51.1472ZM43.8458 55.4581H44.4849C45.0587 55.4581 45.5239 54.9911 45.5239 54.4151C45.5239 53.8391 45.0587 53.3722 44.4849 53.3722H43.8458C43.272 53.3722 42.8068 53.8391 42.8068 54.4151C42.8068 54.9911 43.272 55.4581 43.8458 55.4581ZM38.6493 52.3988C38.6493 51.7844 38.1531 51.2863 37.5411 51.2863H26.3205C25.7085 51.2863 25.2123 51.7844 25.2123 52.3988V56.5706C25.2123 57.185 25.7085 57.683 26.3205 57.683H37.5411C38.1531 57.683 38.6493 57.185 38.6493 56.5706V52.3988ZM36.5714 53.5112V55.4581H27.4287V53.5112H36.5714Z" fill="#618396"/>
</svg>
