<svg width="64" height="54" viewBox="0 0 64 54" fill="none" xmlns="http://www.w3.org/2000/svg">
<path fill-rule="evenodd" clip-rule="evenodd" d="M60.0564 0H3.94362C1.769 0 0 1.76966 0 3.94498V42.0359C0 44.2112 1.769 45.9809 3.94362 45.9809H22.9219L22.1542 52.1243H18.9737C18.4559 52.1243 18.0362 52.5442 18.0362 53.0621C18.0362 53.5801 18.4559 54 18.9737 54H45.0262C45.5441 54 45.9637 53.5801 45.9637 53.0621C45.9637 52.5442 45.5441 52.1243 45.0262 52.1243H41.8459L41.0781 45.9809H60.0564C62.2309 45.9809 64 44.2112 64 42.0359V3.94498C64 1.76966 62.231 0 60.0564 0ZM53.0422 4.00963H4.9455C4.42762 4.00963 4.008 4.42941 4.008 4.94748V41.0335C4.008 41.5516 4.42762 41.9714 4.9455 41.9714H6.94963C7.4675 41.9714 7.88713 41.5516 7.88713 41.0335C7.88725 40.5156 7.4675 40.0957 6.94975 40.0957H5.88312V5.88533H53.0422C53.5601 5.88533 53.9797 5.46542 53.9797 4.94748C53.9797 4.42941 53.5601 4.00963 53.0422 4.00963ZM24.8116 45.9809L24.0439 52.1243H39.9561L39.1886 45.9809H35.7383L35.3997 47.3351C35.009 48.8986 33.611 49.9904 32.0001 49.9904C30.3892 49.9904 28.9912 48.8986 28.6005 47.3351L28.262 45.9809H24.8116ZM59.0545 4.00963H57.0504C56.5325 4.00963 56.1129 4.42941 56.1129 4.94748C56.1129 5.46542 56.5325 5.88533 57.0504 5.88533H58.117V40.0957H10.9578C10.4399 40.0957 10.0203 40.5156 10.0203 41.0335C10.0203 41.5516 10.4399 41.9714 10.9578 41.9714H59.0544C59.5723 41.9714 59.9919 41.5516 59.9919 41.0335V4.94748C59.992 4.42941 59.5723 4.00963 59.0545 4.00963ZM33.8053 45.9809H30.1946L30.4193 46.8802C30.601 47.607 31.2508 48.1147 31.9999 48.1147C32.749 48.1147 33.3989 47.6071 33.5805 46.8802L33.8053 45.9809ZM44.7625 14.3933C44.594 14.1778 44.3399 14.0468 44.0669 14.0344L22.0226 13.0319C22.0054 13.0311 21.9885 13.0308 21.9711 13.031C21.8406 12.6025 21.5649 12.2308 21.1916 11.9817L18.492 10.1813C18.0612 9.89409 17.4791 10.0105 17.192 10.4415C16.9049 10.8726 17.0212 11.4548 17.452 11.742L20.1515 13.5422C20.1642 13.5507 20.1736 13.5636 20.1779 13.5783L23.6165 25.618C23.7237 25.9934 23.9002 26.3307 24.1269 26.6221L22.8687 29.1393C22.5659 29.7452 22.5976 30.4508 22.9536 31.027C23.0827 31.236 23.2465 31.4139 23.4346 31.5565C23.1884 31.9865 23.0467 32.4839 23.0467 33.0141C23.0467 34.6367 24.3664 35.9567 25.9883 35.9567C27.6101 35.9567 28.9297 34.6366 28.9297 33.0141C28.9297 32.6379 28.858 32.2782 28.7287 31.9472H37.2759C37.1466 32.2782 37.0749 32.6379 37.0749 33.0141C37.0749 34.6367 38.3945 35.9567 40.0164 35.9567C41.6383 35.9567 42.9579 34.6366 42.9579 33.0141C42.9579 32.5435 42.8463 32.0987 42.649 31.7038C42.8382 31.5322 42.9579 31.2851 42.9579 31.0094C42.9579 30.4914 42.5382 30.0715 42.0204 30.0715H24.6031C24.5897 30.0715 24.5671 30.0715 24.5482 30.0409C24.5295 30.0105 24.5394 29.9904 24.5454 29.9783L24.5455 29.9781L25.7045 27.6594C25.9404 27.72 26.1861 27.7528 26.4376 27.7528C26.5535 27.7528 26.6705 27.7459 26.7882 27.7322L39.9615 26.1818C41.6629 25.9815 43.0317 24.718 43.3678 23.0374L44.9435 15.1552C44.9971 14.887 44.931 14.6087 44.7625 14.3933ZM40.0161 31.9475C40.6042 31.9475 41.0826 32.4262 41.0826 33.0144C41.0826 33.6027 40.6042 34.0813 40.0161 34.0813C39.428 34.0813 38.9496 33.6027 38.9496 33.0144C38.9496 32.426 39.428 31.9475 40.0161 31.9475ZM27.0545 33.0144C27.0545 32.426 26.5761 31.9475 25.988 31.9475C25.3999 31.9475 24.9215 32.426 24.9215 33.0144C24.9215 33.6027 25.3999 34.0813 25.988 34.0813C26.5761 34.0813 27.0545 33.6027 27.0545 33.0144ZM23.689 19.0454L22.5141 14.932L26.2622 15.1024L26.9121 19.0454H23.689ZM25.4191 25.1028C25.5634 25.6084 26.0465 25.9309 26.5693 25.8693L28.0089 25.6999L27.2212 20.9211H24.2248L25.4191 25.1028ZM32.0646 25.2226L29.8731 25.4806L29.1217 20.9212H32.0646V25.2226ZM28.8125 19.0454H32.0646V15.3664L28.177 15.1896L28.8125 19.0454ZM36.8124 24.6637L33.9396 25.0019V20.9211H37.151L36.8124 24.6637ZM33.9396 19.0454H37.3207L37.6307 15.6194L33.9396 15.4515V19.0454ZM41.529 22.6698C41.3528 23.5511 40.6348 24.214 39.7424 24.319L38.7152 24.4399L39.0336 20.9212H41.8785L41.529 22.6698ZM39.2035 19.0454H42.2536L42.8907 15.8586L39.5057 15.7046L39.2035 19.0454ZM60.0564 44.1052C61.197 44.1052 62.125 43.1769 62.125 42.0359V3.94498C62.125 2.80393 61.197 1.8757 60.0564 1.8757H3.94362C2.803 1.8757 1.875 2.80393 1.875 3.94498V42.0359C1.875 43.1769 2.803 44.1052 3.94362 44.1052H60.0564Z" fill="#618396"/>
</svg>
