<svg width="64" height="64" viewBox="0 0 64 64" fill="none" xmlns="http://www.w3.org/2000/svg">
<path fill-rule="evenodd" clip-rule="evenodd" d="M56.7393 19.7928V0H64V64H56.7392V52.1243H6.60086V64H0V0H6.60099V19.7928H11.216V3.95855H31.6718V9.23654H51.4647V19.7928H56.7393ZM47.1744 14.5147H43.2158V16.4974H47.1744V14.5147ZM1.98272 62.0173V1.98271H4.61814V62.0173H1.98272ZM41.8963 14.5147H35.2987V16.4974H41.8963V14.5147ZM31.6718 11.2192H49.4819V19.7926H31.6718V11.2192ZM30.0206 40.905H26.062V42.8877H30.0206V40.905ZM19.7961 5.94127H23.0915V11.8757H19.7961V5.94127ZM24.7427 40.905H18.1452V42.8877H24.7427V40.905ZM13.1987 5.94127H17.8135V13.8584H25.0744V5.94127H29.6892V19.7928H13.1987V5.94127ZM6.60099 50.1416H56.7393V48.1658H6.60099V50.1416ZM14.5181 46.1831V37.6097H32.3282V46.1831H14.5181ZM46.1865 32.3316V40.2487H38.9258V32.3316H34.3109V46.1831H50.8013V32.3316H46.1865ZM40.9086 38.266V32.3316H44.204V38.266H40.9086ZM52.7842 46.1831H56.7393V25.734H6.60099V46.1831H12.5354V35.627H32.3282V30.3489H52.7842V46.1831ZM56.7393 23.7513H6.60099V21.7755H56.7393V23.7513ZM58.7219 62.0173H62.0173V1.98271H58.7219V62.0173Z" fill="#618396"/>
</svg>
