<svg width="64" height="64" viewBox="0 0 64 64" fill="none" xmlns="http://www.w3.org/2000/svg">
<path fill-rule="evenodd" clip-rule="evenodd" d="M37.3336 19.312V1.33337C37.3336 0.597 36.7367 0 36.0004 0H26.6669C25.9305 0 25.3335 0.597 25.3335 1.33337V19.6908C24.4235 19.9709 23.5329 20.308 22.6668 20.6997V16C22.6668 15.2636 22.0698 14.6666 21.3335 14.6666H14.6668C13.9304 14.6666 13.3334 15.2636 13.3334 16V32.9706L0.908009 54.0934C0.313628 55.1036 0.000125001 56.2544 0.000125001 57.4266C0 61.0569 2.94303 63.9999 6.57331 64H30.8536C32.1014 63.9996 33.3226 63.6391 34.3706 62.9618C35.0386 62.5299 35.6007 61.996 36.0496 61.3936C37.2684 62.9767 39.1817 63.9974 41.3337 64H53.3338C57.0139 63.9956 59.9961 61.0134 60.0005 57.3334V39.2186L63.0591 36.1612C63.6612 35.558 63.9995 34.7406 64 33.8884C64.0011 32.1101 62.5602 30.6676 60.7818 30.6666H40.0004C37.0549 30.6666 34.667 33.0545 34.667 36V51.4834L22.6668 32.9334V23.6666C24.0405 22.9418 25.4947 22.3792 27.0003 21.9907C27.5893 21.8386 28.0008 21.3071 28.0003 20.6987V2.66663H34.667V20.388C34.6672 21.028 35.1222 21.5776 35.751 21.6974C40.4263 22.5911 44.6302 25.1215 47.6085 28.8347L49.6871 27.1654C46.5495 23.2552 42.2057 20.4939 37.3336 19.312ZM30.8536 61.3334H6.57331C5.87443 61.3345 5.18793 61.1481 4.58554 60.7936C2.72603 59.6994 2.10565 57.3049 3.19991 55.4454L15.8162 34.0094C15.9367 33.8045 16.0002 33.5711 16.0002 33.3334V17.3334H20.0002V33.3334C20.0001 33.5902 20.0742 33.8416 20.2136 34.0574L34.0537 55.448C34.453 56.0649 34.6655 56.7839 34.6657 57.5188C34.6663 59.6248 32.9597 61.3326 30.8536 61.3334ZM16.9082 37.4134L19.2068 38.764L9.06671 56H16V58.6666H6.73732C6.00093 58.6675 5.4033 58.0711 5.40255 57.3348C5.4023 57.0966 5.46593 56.8626 5.58668 56.6574L16.9082 37.4134ZM57.7246 37.724L61.1726 34.276C61.3883 34.0606 61.3886 33.7111 61.1733 33.4954C61.0696 33.3915 60.9287 33.3332 60.782 33.3334H40.0004C38.5276 33.3334 37.3337 34.5272 37.3337 36V57.3333C37.3337 59.5424 39.1246 61.3333 41.3338 61.3333H53.3339C55.543 61.3333 57.3339 59.5424 57.3339 57.3333V38.6666C57.3339 38.3131 57.4746 37.974 57.7246 37.724ZM52.0005 56V38.6666H54.6673V57.3333C54.6673 58.0696 54.0703 58.6666 53.3339 58.6666H48.0005V56H52.0005ZM56.6672 18.6666C54.0898 18.6666 52.0005 20.756 52.0005 23.3332C52.0005 25.9106 54.0899 27.9999 56.6672 27.9999C59.2446 27.9999 61.3338 25.9105 61.3338 23.3332C61.3338 20.756 59.2446 18.6666 56.6672 18.6666ZM56.6672 25.3334C55.5625 25.3334 54.6672 24.438 54.6672 23.3334C54.6672 22.2287 55.5625 21.3334 56.6672 21.3334C57.7718 21.3334 58.6672 22.2287 58.6672 23.3334C58.6672 24.438 57.7718 25.3334 56.6672 25.3334ZM48.0005 13.3334C48.0005 11.1243 49.7914 9.33337 52.0005 9.33337C54.2097 9.33337 56.0005 11.1243 56.0005 13.3334C56.0005 15.5425 54.2097 17.3334 52.0005 17.3334C49.7914 17.3334 48.0005 15.5425 48.0005 13.3334ZM50.6671 13.3333C50.6671 14.0696 51.2641 14.6666 52.0005 14.6666C52.7369 14.6666 53.3339 14.0697 53.3339 13.3334C53.3339 12.597 52.7369 12 52.0005 12C51.2641 12 50.6671 12.5969 50.6671 13.3333ZM4.66667 10.6666C2.08927 10.6666 0 12.756 0 15.3333C0 17.9106 2.08927 20 4.66667 20C7.24407 20 9.33334 17.9106 9.33334 15.3334C9.33334 12.756 7.24407 10.6666 4.66667 10.6666ZM4.66667 17.3334C3.56203 17.3334 2.66665 16.438 2.66665 15.3334C2.66665 14.2288 3.56203 13.3334 4.66667 13.3334C5.77131 13.3334 6.66669 14.2288 6.66669 15.3334C6.66669 16.438 5.77131 17.3334 4.66667 17.3334ZM6.66669 5.33337C6.66669 3.12425 8.45758 1.33337 10.6667 1.33337C12.8759 1.33337 14.6668 3.12425 14.6668 5.33337C14.6668 7.5425 12.8759 9.33337 10.6667 9.33337C8.45758 9.33337 6.66669 7.5425 6.66669 5.33337ZM9.33334 5.33325C9.33334 6.06962 9.93035 6.66663 10.6667 6.66663C11.4031 6.66663 12.0001 6.06975 12.0001 5.33337C12.0001 4.597 11.4031 4 10.6667 4C9.93035 4 9.33334 4.597 9.33334 5.33325ZM44.0004 38.6666H40.0004V41.3333H44.0004V38.6666ZM40.0004 44H42.667V46.6666H40.0004V44ZM44.0004 49.3334H40.0004V52H44.0004V49.3334ZM40.0004 54.6666H42.667V57.3333H40.0004V54.6666ZM5.3333 24H2.66665V26.6666H5.3333V24ZM6.66669 30.6666H9.33334V33.3332H6.66669V30.6666ZM32.0002 36H29.3335V38.6666H32.0002V36ZM26.6669 30.6666H29.3335V33.3332H26.6669V30.6666ZM28.0001 25.3334H25.3335V28H28.0001V25.3334ZM26.6669 54.6666H29.3335V57.3333H26.6669V54.6666ZM25.3335 49.3334H22.6668V52H25.3335V49.3334Z" fill="#618396"/>
</svg>
