<svg width="64" height="64" viewBox="0 0 64 64" fill="none" xmlns="http://www.w3.org/2000/svg">
<path fill-rule="evenodd" clip-rule="evenodd" d="M59.0844 23.7558C59.6046 24.0677 60.1796 24.2231 60.7535 24.2231C61.3017 24.2231 61.8498 24.0811 62.3535 23.7969C63.3848 23.2153 64 22.1621 64 20.9812C64 19.8498 63.3961 18.7863 62.4248 18.2067L32 0L1.57626 18.2067C0.603871 18.7863 0 19.8498 0 20.9812C0 22.1621 0.615226 23.2153 1.64645 23.7969C2.67665 24.3796 3.89884 24.3652 4.91561 23.7558L6.19355 22.9908V61.941H4.12903V64H15.4839H29.9355H34.0645H48.5161H59.871V61.941H57.8064V22.9908L59.0844 23.7558ZM3.85239 21.9902C3.31871 22.3103 2.84284 22.1055 2.66323 22.0056C2.48258 21.9037 2.06452 21.6 2.06452 20.9812C2.06452 20.5705 2.28439 20.1834 2.63845 19.9723L32 2.4008L61.3626 19.9713C61.7156 20.1824 61.9355 20.5694 61.9355 20.9812C61.9355 21.601 61.5174 21.9037 61.3368 22.0056C61.1561 22.1065 60.6813 22.3103 60.1476 21.9902L32 5.14751L3.85239 21.9902ZM13.4194 22.8199C12.8495 22.8199 12.3871 23.2811 12.3871 23.8494C12.3871 24.4177 12.8495 24.8789 13.4194 24.8789H50.5806C51.1505 24.8789 51.6129 24.4177 51.6129 23.8494C51.6129 23.2811 51.1505 22.8199 50.5806 22.8199H13.4194ZM27.871 45.469V41.351H36.129V45.469H39.2258C39.7956 45.469 40.2581 45.0078 40.2581 44.4395V32.0854C40.2581 31.5172 39.7956 31.0559 39.2258 31.0559H36.129V35.174H27.871V31.0559H24.7742C24.2044 31.0559 23.7419 31.5172 23.7419 32.0854V44.4395C23.7419 45.0078 24.2044 45.469 24.7742 45.469H27.871ZM20.6452 47.528H24.7742V49.587H20.6452V47.528ZM39.2258 47.528H43.3548V49.587H39.2258V47.528ZM42.3226 44.4395C42.3226 44.8019 42.2483 45.1457 42.1326 45.469H48.5161C48.8795 45.469 49.2243 45.5431 49.5484 45.6584V26.9379H14.4516V45.6584C14.7757 45.5431 15.1205 45.469 15.4839 45.469H21.8674C21.7517 45.1457 21.6774 44.8019 21.6774 44.4395V32.0854C21.6774 30.3827 23.0668 28.9969 24.7742 28.9969H39.2258C40.9332 28.9969 42.3226 30.3827 42.3226 32.0854V44.4395ZM24.7742 61.941H20.6452V59.882H24.7742V61.941ZM26.8387 57.823V61.941H29.9355C30.5053 61.941 30.9677 61.4798 30.9677 60.9115V48.5575C30.9677 47.9892 30.5053 47.528 29.9355 47.528H26.8387V51.646H18.5806V47.528H15.4839C14.9141 47.528 14.4516 47.9892 14.4516 48.5575V60.9115C14.4516 61.4798 14.9141 61.941 15.4839 61.941H18.5806V57.823H26.8387ZM43.3548 61.941H39.2258V59.882H43.3548V61.941ZM45.4194 57.823V61.941H48.5161C49.0859 61.941 49.5484 61.4798 49.5484 60.9115V48.5575C49.5484 47.9892 49.0859 47.528 48.5161 47.528H45.4194V51.646H37.1613V47.528H34.0645C33.4947 47.528 33.0323 47.9892 33.0323 48.5575V60.9115C33.0323 61.4798 33.4947 61.941 34.0645 61.941H37.1613V57.823H45.4194ZM55.7419 61.941H51.6129V60.9115V48.5575V26.7485C52.8114 26.3223 53.6774 25.1898 53.6774 23.8494C53.6774 22.1466 52.288 20.7609 50.5806 20.7609H13.4194C11.712 20.7609 10.3226 22.1466 10.3226 23.8494C10.3226 25.1898 11.1886 26.3223 12.3871 26.7485V48.5575V60.9115V61.941H8.25806V21.7554L32 7.54831L55.7419 21.7554V61.941ZM32 18.7019C29.7228 18.7019 27.871 16.855 27.871 14.5839C27.871 12.3128 29.7228 10.4659 32 10.4659C34.2772 10.4659 36.129 12.3128 36.129 14.5839C36.129 16.855 34.2772 18.7019 32 18.7019ZM32 16.6429C33.1386 16.6429 34.0645 15.7195 34.0645 14.5839C34.0645 13.4484 33.1386 12.5249 32 12.5249C30.8614 12.5249 29.9355 13.4484 29.9355 14.5839C29.9355 15.7195 30.8614 16.6429 32 16.6429ZM29.9355 45.469V43.41H34.0645V45.469H29.9355ZM34.0645 31.0559H29.9355V33.1149H34.0645V31.0559ZM2.06452 61.941H0V64H2.06452V61.941ZM64 61.941H61.9355V64H64V61.941Z" fill="#618396"/>
</svg>
