<svg width="64" height="64" viewBox="0 0 64 64" fill="none" xmlns="http://www.w3.org/2000/svg">
<path fill-rule="evenodd" clip-rule="evenodd" d="M22 23.6821C21.3096 23.6821 20.75 24.2422 20.75 24.9329V27.518C20.75 28.2087 21.3096 28.7688 22 28.7688C22.6904 28.7688 23.25 28.2087 23.25 27.518V24.9329C23.25 24.2422 22.6904 23.6821 22 23.6821ZM27 23.6821C26.3096 23.6821 25.75 24.2422 25.75 24.9329V27.518C25.75 28.2087 26.3096 28.7688 27 28.7688C27.6904 28.7688 28.25 28.2087 28.25 27.518V24.9329C28.25 24.2422 27.6904 23.6821 27 23.6821ZM32 23.6821C31.3096 23.6821 30.75 24.2422 30.75 24.9329V27.518C30.75 28.2087 31.3096 28.7688 32 28.7688C32.6904 28.7688 33.25 28.2087 33.25 27.518V24.9329C33.25 24.2422 32.6904 23.6821 32 23.6821ZM37 23.6821C36.3096 23.6821 35.75 24.2422 35.75 24.9329V27.518C35.75 28.2087 36.3096 28.7688 37 28.7688C37.6904 28.7688 38.25 28.2087 38.25 27.518V24.9329C38.25 24.2422 37.6904 23.6821 37 23.6821ZM42 23.6821C41.3096 23.6821 40.75 24.2422 40.75 24.9329V27.518C40.75 28.2087 41.3096 28.7688 42 28.7688C42.6904 28.7688 43.25 28.2087 43.25 27.518V24.9329C43.25 24.2422 42.6904 23.6821 42 23.6821ZM14.5 56.5368C14.1713 56.5368 13.8488 56.6706 13.6163 56.9034C13.3837 57.1359 13.25 57.4586 13.25 57.7876C13.25 58.1167 13.3837 58.4392 13.6163 58.6719C13.8488 58.9045 14.1713 59.0384 14.5 59.0384C14.8287 59.0384 15.1512 58.9047 15.3837 58.6719C15.6163 58.4391 15.75 58.1167 15.75 57.7876C15.75 57.4586 15.6163 57.1359 15.3837 56.9034C15.1512 56.6706 14.8287 56.5368 14.5 56.5368ZM14.5 46.1968C13.8096 46.1968 13.25 46.7569 13.25 47.4476V52.8656C13.25 53.5563 13.8096 54.1164 14.5 54.1164C15.1904 54.1164 15.75 53.5563 15.75 52.8656V47.4476C15.75 46.7569 15.1904 46.1968 14.5 46.1968ZM21.5 46.1968C20.8096 46.1968 20.25 46.7569 20.25 47.4476V57.7877C20.25 58.4784 20.8096 59.0385 21.5 59.0385C22.1904 59.0385 22.75 58.4784 22.75 57.7877V47.4476C22.75 46.7569 22.1904 46.1968 21.5 46.1968ZM28.5 46.1968C27.8096 46.1968 27.25 46.7569 27.25 47.4476V57.7877C27.25 58.4784 27.8096 59.0385 28.5 59.0385C29.1904 59.0385 29.75 58.4784 29.75 57.7877V47.4476C29.75 46.7569 29.1904 46.1968 28.5 46.1968ZM35.5 46.1968C34.8096 46.1968 34.25 46.7569 34.25 47.4476V57.7877C34.25 58.4784 34.8096 59.0385 35.5 59.0385C36.1904 59.0385 36.75 58.4784 36.75 57.7877V47.4476C36.75 46.7569 36.1904 46.1968 35.5 46.1968ZM42.5 46.1968C41.8096 46.1968 41.25 46.7569 41.25 47.4476V57.7877C41.25 58.4784 41.8096 59.0385 42.5 59.0385C43.1904 59.0385 43.75 58.4784 43.75 57.7877V47.4476C43.75 46.7569 43.1904 46.1968 42.5 46.1968ZM49.5 46.1963C49.1712 46.1963 48.8488 46.3301 48.6162 46.5629C48.3838 46.7968 48.25 47.1181 48.25 47.4471C48.25 47.7774 48.3838 48.0988 48.6162 48.3314C48.8488 48.5653 49.1712 48.6979 49.5 48.6979C49.8288 48.6979 50.1512 48.5653 50.3838 48.3314C50.6162 48.0988 50.75 47.7773 50.75 47.4471C50.75 47.1181 50.6162 46.7968 50.3838 46.5629C50.1512 46.3301 49.8288 46.1963 49.5 46.1963ZM49.5 51.2C48.8096 51.2 48.25 51.7601 48.25 52.4508V57.7877C48.25 58.4784 48.8096 59.0385 49.5 59.0385C50.1904 59.0385 50.75 58.4784 50.75 57.7877V52.4508C50.75 51.7601 50.1904 51.2 49.5 51.2ZM19.5 34.1264C18.8096 34.1264 18.25 34.6865 18.25 35.3772V37.9623C18.25 38.653 18.8096 39.2131 19.5 39.2131C20.1904 39.2131 20.75 38.653 20.75 37.9623V35.3772C20.75 34.6865 20.1904 34.1264 19.5 34.1264ZM24.5 34.1264C23.8096 34.1264 23.25 34.6865 23.25 35.3772V37.9623C23.25 38.653 23.8096 39.2131 24.5 39.2131C25.1904 39.2131 25.75 38.653 25.75 37.9623V35.3772C25.75 34.6865 25.1904 34.1264 24.5 34.1264ZM29.5 34.1264C28.8096 34.1264 28.25 34.6865 28.25 35.3772V37.9623C28.25 38.653 28.8096 39.2131 29.5 39.2131C30.1904 39.2131 30.75 38.653 30.75 37.9623V35.3772C30.75 34.6865 30.1904 34.1264 29.5 34.1264ZM34.5 34.1264C33.8096 34.1264 33.25 34.6865 33.25 35.3772V37.9623C33.25 38.653 33.8096 39.2131 34.5 39.2131C35.1904 39.2131 35.75 38.653 35.75 37.9623V35.3772C35.75 34.6865 35.1904 34.1264 34.5 34.1264ZM39.5 34.1264C38.8096 34.1264 38.25 34.6865 38.25 35.3772V37.9623C38.25 38.653 38.8096 39.2131 39.5 39.2131C40.1904 39.2131 40.75 38.653 40.75 37.9623V35.3772C40.75 34.6865 40.1904 34.1264 39.5 34.1264ZM44.5 34.1264C43.8096 34.1264 43.25 34.6865 43.25 35.3772V37.9623C43.25 38.653 43.8096 39.2131 44.5 39.2131C45.1904 39.2131 45.75 38.653 45.75 37.9623V35.3772C45.75 34.6865 45.1904 34.1264 44.5 34.1264ZM62.75 44.4873H57.75V41.7355C57.75 41.0448 57.1904 40.4847 56.5 40.4847H50.75V31.9791H51.625C52.3154 31.9791 52.875 31.419 52.875 30.7283C52.875 30.0376 52.3154 29.4775 51.625 29.4775H48.125V22.9669C48.7566 22.9041 49.25 22.3708 49.25 21.7224C49.25 21.0317 48.6904 20.4716 48 20.4716H46.875H44.9166V19.3876C44.9166 12.6826 39.7879 7.15442 33.25 6.52313V1.25082C33.25 0.560115 32.6904 0 32 0C31.3096 0 30.75 0.560115 30.75 1.25082V6.52313C24.212 7.15442 19.0834 12.6826 19.0834 19.3876V20.4716H17.125H16C15.3096 20.4716 14.75 21.0317 14.75 21.7224C14.75 22.371 15.2434 22.9042 15.875 22.9669V29.4775H12.375C11.6846 29.4775 11.125 30.0376 11.125 30.7283C11.125 31.419 11.6846 31.9791 12.375 31.9791H13.25V40.4847H7.5C6.80963 40.4847 6.25 41.0448 6.25 41.7355V44.4873H1.25C0.559625 44.4873 0 45.0474 0 45.7381V62.7492C0 63.4399 0.559625 64 1.25 64H62.75C63.4404 64 64 63.4399 64 62.7492V45.7381C64 45.0474 63.4404 44.4873 62.75 44.4873ZM21.5834 19.3876C21.5834 13.6401 26.2563 8.9641 32 8.9641C37.7438 8.9641 42.4166 13.6401 42.4166 19.3876V20.4716H21.5834V19.3876ZM20.3334 22.9732H18.375V29.4775H45.625V22.9732H43.6667H20.3334ZM48.25 31.9791V40.4847H15.75V31.9791H48.25ZM6.25 46.9889H2.5V61.4984H6.25V46.9889ZM8.75 45.7381V42.9863H55.25V45.7381V61.4984H8.75V45.7381ZM57.75 61.4984H61.5V46.9889H57.75V61.4984Z" fill="#618396"/>
</svg>
