<svg width="480" height="536" viewBox="0 0 480 536" fill="none" xmlns="http://www.w3.org/2000/svg">
<g clip-path="url(#clip0_537_34598)">
<rect width="480" height="536" fill="#DEF1FC"/>
<g opacity="0.4">
<path d="M504.274 -216.828C504.274 -216.828 567.669 -37.0646 419.749 88.1976C271.83 213.46 -39.6268 193.544 -67.7946 570.845" stroke="#A5D0EA" stroke-miterlimit="10"/>
<path d="M536.529 -184.572C536.529 -184.572 599.931 -4.80141 452.004 120.454C304.092 245.709 -7.37177 225.801 -35.5396 603.101" stroke="#A5D0EA" stroke-miterlimit="10"/>
<path d="M568.795 -152.309C568.795 -152.309 632.19 27.4539 484.271 152.716C336.352 277.978 24.8947 258.063 -3.27308 635.363" stroke="#A5D0EA" stroke-miterlimit="10"/>
<path d="M601.056 -120.047C601.056 -120.047 664.451 59.7161 516.532 184.978C368.612 310.241 57.1554 290.325 28.9877 667.625" stroke="#A5D0EA" stroke-miterlimit="10"/>
</g>
<g filter="url(#filter0_d_537_34598)">
<rect x="35" y="113" width="230" height="230" rx="115" fill="white"/>
<path d="M219.17 224.755C219.17 259.508 188.203 287.678 150 287.678C111.797 287.678 80.832 259.508 80.832 224.755C80.832 190.003 111.799 161.833 150.003 161.833C188.206 161.833 219.173 190.003 219.173 224.755H219.17Z" fill="#50B1AF"/>
<path d="M150.001 287.678C113.262 287.678 83.2188 261.621 80.9716 228.716C80.8828 230.027 80.8301 231.346 80.8301 232.676C80.8301 267.428 111.798 295.598 150.001 295.598C188.204 295.598 219.171 267.425 219.171 232.676C219.171 231.346 219.121 230.024 219.03 228.716C216.782 261.621 186.739 287.678 150.001 287.678Z" fill="#50B1AF"/>
<path d="M150.001 287.678C113.262 287.678 83.2188 261.621 80.9716 228.716C80.8828 230.027 80.8301 231.346 80.8301 232.676C80.8301 267.428 111.798 295.598 150.001 295.598C188.204 295.598 219.171 267.425 219.171 232.676C219.171 231.346 219.121 230.024 219.03 228.716C216.782 261.621 186.739 287.678 150.001 287.678Z" fill="#238482"/>
<path d="M150 287.678C186.738 287.678 216.781 261.621 219.029 228.716C216.781 195.811 186.738 169.753 150 169.753C113.262 169.753 83.2207 195.813 80.9707 228.719C83.2179 261.624 113.262 287.681 150 287.681V287.678Z" fill="#50B1AF"/>
<path d="M150.375 231.662V239.804L211.411 203.639V195.497L150.375 231.662Z" fill="#238482"/>
<path d="M88.374 196.782V204.264L150.595 239.366V231.881L88.374 196.782Z" fill="#238482"/>
<path d="M211.411 195.497L211.289 195.569C211.328 195.638 211.37 195.708 211.411 195.777V195.497Z" fill="#50B1AF"/>
<path d="M219.171 224.756C219.171 214.303 216.366 204.45 211.408 195.774V203.639L211.378 203.656C215.717 211.237 218.414 219.721 219.03 228.719C219.118 227.408 219.171 226.089 219.171 224.756V224.756Z" fill="#238482"/>
<path d="M150.001 161.833C123.142 161.833 99.8571 175.76 88.399 196.11L88.374 196.782L91.7809 198.704C104.082 181.292 125.559 169.756 150.001 169.756C174.443 169.756 195.157 180.884 207.558 197.779L211.289 195.569C199.726 175.516 176.621 161.836 150.001 161.836V161.833Z" fill="#238482"/>
<path d="M80.833 224.755C80.833 226.086 80.8829 227.408 80.9745 228.718C81.5765 219.893 84.1817 211.562 88.3765 204.094V196.782L88.4015 196.11C83.563 204.702 80.833 214.439 80.833 224.755V224.755Z" fill="#238482"/>
<path d="M150.373 232.542C150.226 232.542 150.079 232.506 149.943 232.428L87.9443 197.548C87.5198 197.31 87.37 196.774 87.6086 196.349C87.8472 195.924 88.3826 195.774 88.8071 196.013L150.806 230.893C151.23 231.131 151.38 231.667 151.142 232.092C150.981 232.381 150.681 232.542 150.373 232.542V232.542Z" fill="white"/>
<path d="M151.116 288.4C150.636 288.4 150.245 288.014 150.237 287.531L149.496 231.67C149.491 231.184 149.879 230.784 150.365 230.779C150.85 230.779 151.25 231.162 151.255 231.648L151.996 287.506C152.001 287.992 151.613 288.392 151.127 288.397H151.116V288.4Z" fill="white"/>
<path d="M150.376 232.542C150.073 232.542 149.782 232.387 149.618 232.109C149.371 231.69 149.51 231.151 149.929 230.904L210.127 195.274C210.546 195.027 211.084 195.166 211.331 195.585C211.578 196.005 211.44 196.543 211.021 196.791L150.822 232.42C150.681 232.503 150.528 232.542 150.376 232.542V232.542Z" fill="white"/>
<path d="M191.058 227.069C191.044 227.036 191.027 227 191.013 226.963C191 226.927 190.983 226.891 190.969 226.852C190.952 226.813 190.939 226.772 190.922 226.73C190.908 226.697 190.897 226.661 190.883 226.627C190.864 226.577 190.847 226.525 190.83 226.475C190.819 226.444 190.811 226.419 190.8 226.389C190.772 226.308 190.747 226.225 190.722 226.141C190.697 226.058 190.672 225.975 190.65 225.891C190.644 225.869 190.639 225.847 190.633 225.825C190.617 225.764 190.603 225.703 190.586 225.642C190.583 225.628 190.581 225.617 190.575 225.603C190.556 225.514 190.536 225.425 190.517 225.339C189.604 225.55 188.381 225.833 188.381 225.833C188.333 225.839 183.684 226.852 182.618 227.05C181.963 227.169 181.292 227.263 180.629 227.302C179.985 227.341 179.281 227.302 178.706 227.649C177.347 228.471 177.644 230.651 179.117 231.185C180.285 231.609 180.97 231.037 181.958 230.482C182.299 230.29 184.46 229.524 184.877 229.393C186.089 229.018 188.944 228.096 189.052 228.052C189.052 228.052 190.259 227.588 191.138 227.249C191.127 227.224 191.116 227.197 191.105 227.172C191.088 227.136 191.072 227.1 191.055 227.061L191.058 227.069Z" fill="#0B1A47"/>
<path d="M191.608 228.552C191.608 228.552 191.616 228.546 191.619 228.543C191.635 228.529 191.652 228.513 191.666 228.493C191.899 228.177 191.824 227.116 191.466 225.916C191.069 224.6 190.459 223.561 190.093 223.595C190.093 223.589 190.015 223.611 190.018 223.617C189.738 223.767 189.746 224.683 190.007 225.775C190.01 225.786 190.012 225.8 190.018 225.813C190.032 225.872 190.049 225.933 190.065 225.997C190.071 226.019 190.076 226.041 190.082 226.063C190.104 226.144 190.129 226.227 190.154 226.313C190.179 226.397 190.204 226.477 190.232 226.561C190.243 226.591 190.251 226.616 190.262 226.644C190.279 226.694 190.295 226.747 190.315 226.797C190.329 226.83 190.34 226.866 190.354 226.899C190.37 226.941 190.384 226.983 190.401 227.022C190.415 227.06 190.431 227.096 190.445 227.133C190.459 227.169 190.476 227.202 190.49 227.238C190.504 227.277 190.523 227.313 190.54 227.349C190.553 227.38 190.567 227.413 190.581 227.441C190.595 227.477 190.614 227.513 190.631 227.549C190.645 227.577 190.656 227.605 190.67 227.63C190.687 227.666 190.703 227.699 190.723 227.735C190.737 227.76 190.748 227.782 190.762 227.807C190.781 227.841 190.798 227.871 190.817 227.905C190.828 227.927 190.842 227.949 190.853 227.971C190.872 228.002 190.889 228.03 190.909 228.057C190.922 228.077 190.934 228.096 190.947 228.116C190.967 228.141 190.983 228.166 191 228.191C191.014 228.21 191.025 228.227 191.039 228.243C191.056 228.266 191.072 228.288 191.089 228.307C191.1 228.324 191.114 228.341 191.128 228.355C191.144 228.371 191.158 228.388 191.175 228.405C191.189 228.418 191.2 228.432 191.214 228.443C191.23 228.457 191.244 228.468 191.258 228.482C191.272 228.493 191.286 228.502 191.3 228.513C191.314 228.524 191.327 228.532 191.339 228.538C191.352 228.546 191.366 228.552 191.38 228.56C191.391 228.566 191.405 228.571 191.416 228.574C191.43 228.579 191.444 228.582 191.455 228.585C191.466 228.585 191.477 228.588 191.488 228.588C191.508 228.588 191.527 228.588 191.544 228.582C191.566 228.577 191.586 228.566 191.602 228.552H191.608Z" fill="#FFC2C6"/>
<path opacity="0.7" d="M191.507 228.59C191.507 228.59 191.496 228.59 191.494 228.59C191.482 228.59 191.471 228.59 191.46 228.588C191.227 228.549 190.978 228.174 190.853 227.971C190.733 227.771 190.634 227.563 190.536 227.349C190.52 227.313 190.503 227.277 190.486 227.238C190.306 226.81 190.145 226.333 190.02 225.813C190.018 225.799 190.015 225.788 190.009 225.774C189.748 224.68 189.74 223.767 190.02 223.617C190.018 223.611 182.097 225.994 177.347 227.421C176.415 227.702 175.888 228.685 176.168 229.618L176.651 231.226C176.934 232.159 177.913 232.687 178.845 232.406C183.637 230.965 186.727 230.034 191.577 228.574C191.577 228.574 191.51 228.59 191.51 228.588L191.507 228.59Z" fill="#ED5A61"/>
<path d="M191.793 225.039C191.679 225.066 190.955 225.241 190.522 225.344C190.539 225.43 190.559 225.516 190.581 225.608C190.583 225.619 190.586 225.633 190.592 225.647C190.606 225.705 190.622 225.769 190.639 225.83C190.645 225.852 190.65 225.875 190.656 225.897C190.678 225.98 190.7 226.063 190.728 226.147C190.753 226.23 190.778 226.311 190.805 226.394C190.814 226.422 190.825 226.449 190.836 226.48C190.853 226.53 190.869 226.583 190.889 226.633C190.9 226.669 190.914 226.702 190.928 226.735C190.944 226.777 190.958 226.819 190.975 226.858C190.989 226.894 191.005 226.933 191.019 226.969C191.033 227.002 191.05 227.041 191.063 227.074C191.077 227.113 191.097 227.149 191.113 227.185C191.124 227.213 191.136 227.238 191.147 227.263C191.549 227.108 192.129 226.88 192.295 226.816C193.25 226.436 196.271 225.25 199.37 224.094C199.273 223.742 199.154 223.392 199.009 223.05C196.496 223.77 194.121 224.472 191.801 225.044L191.793 225.039Z" fill="#0B1A47"/>
<path d="M160.376 256.258C160.409 256.244 160.445 256.231 160.481 256.217C160.517 256.203 160.556 256.189 160.592 256.175C160.631 256.161 160.676 256.144 160.714 256.131C160.748 256.119 160.784 256.106 160.82 256.095C160.87 256.078 160.922 256.061 160.972 256.045C161.003 256.036 161.028 256.025 161.058 256.017C161.139 255.989 161.222 255.967 161.305 255.942C161.389 255.917 161.475 255.895 161.555 255.875C161.577 255.87 161.599 255.864 161.622 255.861C161.683 255.845 161.746 255.831 161.805 255.82C161.819 255.817 161.83 255.811 161.844 255.811C161.932 255.792 162.021 255.775 162.107 255.758C161.913 254.839 161.652 253.612 161.652 253.612C161.649 253.565 160.72 248.891 160.542 247.819C160.434 247.163 160.357 246.489 160.326 245.822C160.298 245.178 160.354 244.475 160.018 243.892C159.219 242.515 157.038 242.773 156.481 244.239C156.034 245.403 156.594 246.097 157.13 247.097C157.316 247.444 158.043 249.621 158.162 250.038C158.514 251.257 159.38 254.128 159.424 254.239C159.424 254.239 159.865 255.456 160.187 256.342C160.212 256.331 160.24 256.319 160.265 256.308C160.301 256.294 160.34 256.278 160.379 256.261L160.376 256.258Z" fill="#0B1A47"/>
<path d="M158.88 256.784C158.88 256.784 158.886 256.792 158.891 256.795C158.902 256.811 158.922 256.828 158.941 256.842C159.252 257.081 160.314 257.025 161.519 256.689C162.842 256.317 163.888 255.725 163.863 255.356C163.871 255.356 163.849 255.278 163.843 255.284C163.696 255.001 162.784 254.992 161.685 255.234C161.674 255.24 161.66 255.24 161.646 255.242C161.588 255.256 161.527 255.273 161.463 255.287C161.441 255.292 161.419 255.295 161.396 255.303C161.313 255.323 161.23 255.348 161.144 255.37C161.061 255.395 160.978 255.417 160.897 255.445C160.869 255.453 160.842 255.462 160.811 255.473C160.761 255.489 160.708 255.503 160.659 255.523C160.622 255.534 160.589 255.548 160.553 255.559C160.511 255.573 160.47 255.589 160.431 255.603C160.392 255.617 160.356 255.631 160.32 255.648C160.284 255.662 160.248 255.676 160.215 255.689C160.176 255.703 160.14 255.72 160.104 255.737C160.07 255.75 160.04 255.762 160.009 255.775C159.973 255.789 159.937 255.806 159.901 255.825C159.873 255.837 159.846 255.85 159.818 255.864C159.782 255.881 159.746 255.898 159.712 255.914C159.69 255.928 159.665 255.939 159.64 255.953C159.607 255.97 159.574 255.987 159.543 256.006C159.521 256.02 159.499 256.031 159.477 256.042C159.449 256.059 159.418 256.075 159.391 256.095C159.371 256.106 159.352 256.12 159.332 256.134C159.305 256.15 159.28 256.167 159.257 256.186C159.238 256.198 159.219 256.211 159.202 256.225C159.18 256.239 159.158 256.256 159.138 256.273C159.121 256.284 159.105 256.298 159.091 256.311C159.072 256.325 159.055 256.339 159.038 256.356C159.024 256.37 159.011 256.384 158.999 256.398C158.986 256.411 158.972 256.425 158.961 256.442C158.949 256.456 158.938 256.47 158.93 256.481C158.919 256.495 158.911 256.509 158.902 256.523C158.894 256.536 158.886 256.548 158.88 256.561C158.875 256.575 158.869 256.586 158.866 256.598C158.861 256.611 158.858 256.622 158.855 256.636C158.855 256.647 158.85 256.659 158.85 256.67C158.85 256.689 158.85 256.709 158.855 256.728C158.861 256.747 158.872 256.77 158.883 256.786L158.88 256.784Z" fill="#FFC2C6"/>
<path opacity="0.7" d="M158.844 256.683C158.844 256.683 158.844 256.672 158.844 256.667C158.844 256.656 158.844 256.645 158.85 256.633C158.891 256.403 159.271 256.156 159.474 256.039C159.677 255.922 159.887 255.825 160.101 255.734C160.137 255.717 160.173 255.7 160.212 255.686C160.642 255.511 161.122 255.362 161.641 255.245C161.655 255.242 161.666 255.242 161.68 255.237C162.776 254.995 163.691 255.003 163.838 255.287C163.844 255.284 161.608 247.311 160.267 242.534C160.004 241.596 159.033 241.051 158.098 241.312L156.483 241.768C155.546 242.032 155.002 243.004 155.263 243.942C156.616 248.763 157.488 251.874 158.855 256.753C158.855 256.753 158.839 256.686 158.841 256.686L158.844 256.683Z" fill="#ED5A61"/>
<path d="M162.387 257.033C162.362 256.919 162.199 256.189 162.107 255.756C162.021 255.773 161.932 255.789 161.844 255.809C161.83 255.809 161.819 255.814 161.805 255.817C161.747 255.828 161.683 255.845 161.622 255.859C161.6 255.864 161.58 255.87 161.555 255.872C161.472 255.892 161.389 255.914 161.305 255.939C161.219 255.961 161.139 255.986 161.059 256.014C161.028 256.022 161.003 256.034 160.972 256.042C160.923 256.059 160.87 256.075 160.82 256.092C160.787 256.103 160.751 256.117 160.714 256.128C160.673 256.142 160.631 256.159 160.592 256.172C160.556 256.186 160.517 256.2 160.481 256.214C160.445 256.228 160.409 256.242 160.376 256.256C160.337 256.27 160.301 256.289 160.262 256.303C160.237 256.314 160.21 256.325 160.185 256.336C160.332 256.739 160.548 257.328 160.612 257.492C160.992 258.5 162.218 261.807 163.364 265.09C163.686 264.928 164.01 264.765 164.332 264.595C163.63 261.949 162.942 259.458 162.39 257.028L162.387 257.033Z" fill="#0B1A47"/>
<path d="M183.173 241.329C183.173 241.293 183.173 241.254 183.173 241.215C183.173 241.177 183.173 241.138 183.176 241.096C183.176 241.052 183.176 241.007 183.181 240.966C183.181 240.929 183.181 240.893 183.181 240.854C183.184 240.802 183.189 240.746 183.192 240.693C183.192 240.663 183.195 240.635 183.198 240.605C183.203 240.518 183.212 240.432 183.22 240.346C183.231 240.257 183.239 240.174 183.25 240.088C183.253 240.066 183.256 240.044 183.262 240.021C183.27 239.96 183.278 239.896 183.289 239.835C183.289 239.821 183.292 239.81 183.295 239.796C183.309 239.708 183.325 239.619 183.342 239.533C182.415 239.377 181.181 239.169 181.181 239.169C181.134 239.155 176.451 238.305 175.391 238.075C174.742 237.936 174.084 237.761 173.457 237.544C172.847 237.333 172.214 237.025 171.551 237.125C169.978 237.361 169.418 239.488 170.572 240.546C171.49 241.388 172.342 241.121 173.465 240.991C173.856 240.946 176.145 241.068 176.578 241.11C177.84 241.229 180.828 241.477 180.945 241.474C180.945 241.474 182.238 241.51 183.178 241.535C183.178 241.507 183.178 241.479 183.178 241.452C183.178 241.413 183.176 241.371 183.176 241.329H183.173Z" fill="#0B1A47"/>
<path d="M183.112 242.912C183.112 242.912 183.12 242.912 183.126 242.909C183.145 242.904 183.167 242.896 183.19 242.882C183.525 242.679 183.867 241.671 183.994 240.427C184.133 239.058 183.966 237.866 183.617 237.755C183.62 237.75 183.539 237.741 183.542 237.747C183.226 237.78 182.882 238.627 182.704 239.738C182.704 239.749 182.699 239.763 182.699 239.777C182.687 239.838 182.679 239.899 182.671 239.963C182.668 239.985 182.665 240.007 182.662 240.03C182.651 240.113 182.643 240.202 182.632 240.288C182.624 240.374 182.615 240.46 182.61 240.546C182.61 240.577 182.604 240.607 182.604 240.638C182.599 240.691 182.596 240.746 182.593 240.799C182.593 240.838 182.593 240.874 182.588 240.91C182.588 240.954 182.582 240.999 182.582 241.041C182.582 241.079 182.582 241.121 182.582 241.16C182.582 241.199 182.582 241.238 182.582 241.274C182.582 241.315 182.582 241.354 182.582 241.396C182.582 241.429 182.582 241.465 182.582 241.499C182.582 241.54 182.582 241.579 182.588 241.618C182.588 241.649 182.588 241.679 182.593 241.71C182.593 241.749 182.596 241.788 182.599 241.826C182.604 241.854 182.604 241.879 182.607 241.907C182.61 241.943 182.618 241.982 182.621 242.015C182.626 242.04 182.626 242.065 182.632 242.09C182.638 242.124 182.643 242.157 182.649 242.19C182.654 242.212 182.657 242.237 182.662 242.26C182.668 242.29 182.676 242.321 182.682 242.349C182.687 242.371 182.693 242.39 182.699 242.412C182.704 242.44 182.71 242.465 182.718 242.49C182.724 242.51 182.732 242.529 182.737 242.548C182.746 242.571 182.751 242.593 182.76 242.615C182.768 242.632 182.773 242.651 182.785 242.668C182.793 242.685 182.801 242.704 182.81 242.721C182.818 242.737 182.826 242.751 182.834 242.765C182.846 242.779 182.854 242.793 182.862 242.807C182.873 242.821 182.882 242.832 182.893 242.84C182.901 242.851 182.909 242.859 182.921 242.868C182.932 242.879 182.94 242.884 182.954 242.893C182.965 242.898 182.973 242.904 182.982 242.909C183.001 242.918 183.02 242.923 183.04 242.926C183.059 242.926 183.084 242.926 183.104 242.921L183.112 242.912Z" fill="#FFC2C6"/>
<path opacity="0.7" d="M183.004 242.907C183.004 242.907 182.996 242.901 182.99 242.898C182.982 242.893 182.971 242.887 182.963 242.882C182.763 242.757 182.674 242.312 182.638 242.082C182.605 241.851 182.591 241.618 182.583 241.385C182.583 241.346 182.58 241.304 182.583 241.263C182.58 240.799 182.613 240.296 182.696 239.769C182.696 239.755 182.702 239.744 182.702 239.73C182.879 238.619 183.224 237.772 183.54 237.739C183.54 237.733 175.308 236.886 170.378 236.381C169.413 236.281 168.547 236.986 168.447 237.952L168.278 239.621C168.178 240.591 168.88 241.454 169.848 241.554C174.826 242.065 178.035 242.393 183.071 242.909C183.071 242.909 183.002 242.901 183.004 242.898V242.907Z" fill="#ED5A61"/>
<path d="M184.633 239.738C184.517 239.718 183.781 239.602 183.343 239.529C183.326 239.615 183.31 239.704 183.296 239.793C183.293 239.807 183.29 239.818 183.29 239.832C183.279 239.893 183.271 239.957 183.263 240.018C183.257 240.04 183.257 240.062 183.252 240.085C183.24 240.168 183.229 240.254 183.221 240.343C183.213 240.429 183.204 240.515 183.199 240.601C183.199 240.632 183.196 240.66 183.193 240.69C183.19 240.743 183.185 240.798 183.182 240.851C183.182 240.887 183.182 240.926 183.182 240.962C183.179 241.007 183.179 241.051 183.177 241.093C183.177 241.132 183.177 241.173 183.174 241.212C183.174 241.251 183.174 241.287 183.174 241.326C183.174 241.368 183.177 241.407 183.177 241.448C183.177 241.476 183.177 241.504 183.177 241.532C183.607 241.543 184.231 241.557 184.408 241.562C185.596 241.579 189.757 241.668 193.544 241.831C193.497 241.498 193.45 241.162 193.4 240.829C190.307 240.454 187.394 240.16 184.63 239.738H184.633Z" fill="#0B1A47"/>
<path d="M156.47 178.726C156.47 178.695 156.47 178.665 156.47 178.634C156.47 178.601 156.47 178.57 156.47 178.54C156.47 178.507 156.47 178.47 156.47 178.434C156.47 178.404 156.47 178.376 156.473 178.346C156.473 178.301 156.476 178.259 156.479 178.218C156.479 178.193 156.481 178.171 156.484 178.146C156.487 178.079 156.495 178.01 156.501 177.94C156.506 177.871 156.515 177.801 156.523 177.735C156.523 177.718 156.529 177.698 156.531 177.682C156.54 177.629 156.545 177.579 156.554 177.532C156.554 177.521 156.554 177.51 156.559 177.501C156.57 177.429 156.584 177.36 156.595 177.29C155.854 177.168 154.867 177.004 154.867 177.004C154.828 176.993 151.08 176.321 150.231 176.143C149.709 176.032 149.185 175.896 148.683 175.724C148.194 175.555 147.687 175.31 147.157 175.394C145.9 175.585 145.456 177.287 146.383 178.132C147.118 178.801 147.798 178.587 148.697 178.479C149.007 178.443 150.841 178.534 151.185 178.568C152.195 178.659 154.586 178.848 154.684 178.848C154.684 178.848 155.718 178.873 156.468 178.893C156.468 178.87 156.468 178.848 156.468 178.823C156.468 178.793 156.465 178.759 156.465 178.726H156.47Z" fill="#0B1A47"/>
<path d="M156.262 177.932C156.251 177.968 156.243 178.004 156.231 178.04C156.223 178.079 156.212 178.115 156.204 178.157C156.193 178.198 156.184 178.243 156.173 178.284C156.165 178.321 156.159 178.354 156.148 178.393C156.14 178.446 156.129 178.498 156.118 178.551C156.112 178.582 156.107 178.609 156.101 178.64C156.087 178.723 156.071 178.809 156.057 178.895C156.043 178.982 156.032 179.068 156.021 179.154C156.021 179.176 156.015 179.198 156.012 179.22C156.007 179.284 155.998 179.345 155.993 179.406C155.993 179.42 155.993 179.431 155.99 179.445C155.982 179.537 155.973 179.626 155.968 179.715C155.033 179.629 153.787 179.517 153.787 179.517C153.737 179.517 148.993 179.156 147.908 179.109C147.242 179.079 146.566 179.081 145.902 179.131C145.259 179.181 144.568 179.318 143.952 179.054C142.49 178.429 142.484 176.227 143.869 175.496C144.97 174.916 145.725 175.388 146.779 175.802C147.143 175.943 149.39 176.404 149.82 176.474C151.071 176.677 154.023 177.196 154.14 177.226C154.14 177.226 155.399 177.521 156.315 177.732C156.306 177.76 156.298 177.787 156.292 177.812C156.281 177.851 156.27 177.887 156.259 177.929L156.262 177.932Z" fill="#0B1A47"/>
<path d="M156.897 176.429C156.897 176.429 156.905 176.435 156.911 176.438C156.93 176.449 156.95 176.463 156.967 176.479C157.238 176.76 157.313 177.823 157.125 179.059C156.911 180.42 156.45 181.531 156.084 181.55C156.084 181.556 156.004 181.542 156.009 181.536C155.713 181.425 155.593 180.517 155.701 179.398C155.701 179.384 155.704 179.37 155.704 179.359C155.713 179.298 155.718 179.234 155.726 179.173C155.726 179.151 155.732 179.129 155.735 179.106C155.746 179.023 155.757 178.934 155.771 178.848C155.785 178.762 155.799 178.676 155.812 178.593C155.818 178.562 155.823 178.534 155.829 178.504C155.84 178.448 155.848 178.398 155.86 178.345C155.868 178.309 155.876 178.273 155.885 178.237C155.893 178.193 155.901 178.151 155.912 178.109C155.921 178.07 155.932 178.032 155.943 177.993C155.951 177.957 155.959 177.918 155.973 177.884C155.982 177.846 155.995 177.807 156.004 177.768C156.015 177.734 156.023 177.701 156.032 177.671C156.043 177.632 156.057 177.593 156.068 177.557C156.079 177.526 156.087 177.498 156.095 177.471C156.106 177.432 156.12 177.396 156.134 177.36C156.145 177.335 156.154 177.31 156.165 177.282C156.176 177.246 156.19 177.212 156.204 177.179C156.215 177.157 156.226 177.132 156.234 177.11C156.245 177.076 156.259 177.046 156.276 177.015C156.284 176.993 156.295 176.971 156.306 176.951C156.32 176.924 156.334 176.896 156.348 176.871C156.359 176.851 156.37 176.832 156.378 176.812C156.392 176.787 156.406 176.765 156.42 176.743C156.431 176.724 156.442 176.707 156.453 176.69C156.467 176.671 156.481 176.651 156.492 176.635C156.503 176.621 156.514 176.604 156.528 176.59C156.542 176.576 156.553 176.56 156.567 176.546C156.578 176.532 156.592 176.521 156.603 176.51C156.617 176.499 156.628 176.488 156.642 176.476C156.653 176.468 156.667 176.457 156.678 176.451C156.689 176.443 156.703 176.438 156.714 176.432C156.725 176.426 156.739 176.421 156.75 176.415C156.761 176.413 156.772 176.41 156.783 176.407C156.803 176.407 156.822 176.401 156.842 176.407C156.861 176.41 156.883 176.418 156.903 176.429H156.897Z" fill="#FFC2C6"/>
<path opacity="0.7" d="M156.792 176.407C156.792 176.407 156.781 176.41 156.778 176.41C156.767 176.41 156.756 176.415 156.745 176.418C156.52 176.488 156.323 176.893 156.232 177.112C156.137 177.326 156.068 177.548 156.001 177.771C155.99 177.807 155.979 177.846 155.971 177.887C155.849 178.334 155.757 178.829 155.704 179.362C155.704 179.376 155.704 179.387 155.702 179.401C155.593 180.52 155.713 181.425 156.01 181.539C156.007 181.545 147.834 180.278 142.934 179.52C141.974 179.37 141.314 178.47 141.464 177.51L141.719 175.849C141.869 174.888 142.77 174.23 143.727 174.377C148.674 175.143 151.862 175.638 156.864 176.413L156.795 176.404L156.792 176.407Z" fill="#ED5A61"/>
<path d="M166.633 178.545C166.33 178.507 166.028 178.47 165.72 178.432C162.834 178.071 160.163 177.832 157.635 177.449C157.541 177.435 156.953 177.343 156.6 177.285C156.587 177.354 156.575 177.424 156.564 177.496C156.564 177.507 156.564 177.518 156.559 177.526C156.553 177.573 156.545 177.626 156.537 177.676C156.537 177.693 156.531 177.71 156.528 177.729C156.52 177.796 156.512 177.865 156.506 177.934C156.501 178.004 156.492 178.073 156.489 178.14C156.489 178.165 156.487 178.187 156.484 178.212C156.484 178.254 156.478 178.298 156.478 178.34C156.478 178.37 156.478 178.398 156.476 178.429C156.476 178.462 156.476 178.498 156.476 178.534C156.476 178.568 156.476 178.598 156.476 178.629C156.476 178.659 156.476 178.69 156.476 178.72C156.476 178.754 156.476 178.784 156.478 178.818C156.478 178.84 156.478 178.862 156.478 178.887C156.822 178.895 157.322 178.904 157.466 178.906C158.617 178.92 163.253 179.006 166.621 179.19C166.641 178.97 166.646 178.754 166.638 178.543L166.633 178.545Z" fill="#0B1A47"/>
<path d="M157.519 178.02C157.347 177.976 156.739 177.834 156.32 177.734C156.312 177.762 156.304 177.79 156.298 177.815C156.287 177.854 156.276 177.89 156.265 177.932C156.254 177.968 156.245 178.004 156.234 178.04C156.226 178.079 156.215 178.115 156.207 178.156C156.195 178.198 156.187 178.243 156.176 178.284C156.168 178.32 156.162 178.354 156.151 178.393C156.143 178.445 156.132 178.498 156.121 178.551C156.115 178.581 156.109 178.609 156.104 178.64C156.09 178.723 156.073 178.809 156.059 178.895C156.046 178.981 156.035 179.067 156.023 179.153C156.023 179.176 156.018 179.198 156.015 179.22C156.01 179.284 156.001 179.345 155.996 179.406C155.996 179.42 155.996 179.431 155.993 179.445C155.985 179.537 155.976 179.626 155.971 179.714C156.415 179.753 157.155 179.826 157.272 179.839C160.129 180.137 163.101 180.606 166.286 181.036C166.358 180.72 166.433 180.4 166.491 180.084C162.768 179.281 158.678 178.304 157.519 178.018V178.02Z" fill="#0B1A47"/>
<path d="M176.379 194.167C176.387 194.139 176.396 194.108 176.404 194.078C176.415 194.047 176.421 194.017 176.429 193.986C176.437 193.953 176.446 193.919 176.454 193.883C176.462 193.856 176.468 193.825 176.476 193.797C176.484 193.756 176.493 193.714 176.501 193.672C176.507 193.647 176.512 193.625 176.515 193.603C176.529 193.536 176.543 193.467 176.554 193.4C176.565 193.331 176.576 193.261 176.587 193.195C176.587 193.178 176.59 193.159 176.593 193.142C176.598 193.092 176.607 193.042 176.609 192.992C176.609 192.981 176.612 192.973 176.615 192.961C176.623 192.889 176.629 192.817 176.634 192.748C177.381 192.828 178.377 192.931 178.377 192.931C178.415 192.931 182.208 193.281 183.074 193.331C183.603 193.361 184.147 193.37 184.68 193.336C185.193 193.303 185.751 193.203 186.239 193.422C187.402 193.942 187.379 195.702 186.261 196.272C185.374 196.722 184.774 196.336 183.934 195.991C183.645 195.872 181.856 195.475 181.509 195.414C180.513 195.236 178.157 194.783 178.063 194.758C178.063 194.758 177.059 194.508 176.329 194.328C176.337 194.305 176.343 194.283 176.349 194.264C176.36 194.233 176.368 194.203 176.376 194.169L176.379 194.167Z" fill="#0B1A47"/>
<path d="M176.792 193.455C176.792 193.492 176.792 193.53 176.792 193.569C176.792 193.608 176.792 193.65 176.789 193.689C176.789 193.733 176.787 193.778 176.784 193.819C176.784 193.855 176.784 193.892 176.778 193.93C176.776 193.983 176.77 194.036 176.767 194.091C176.764 194.122 176.764 194.15 176.759 194.18C176.751 194.266 176.745 194.352 176.734 194.439C176.723 194.525 176.712 194.611 176.701 194.694C176.698 194.716 176.695 194.739 176.69 194.761C176.678 194.825 176.67 194.886 176.659 194.947C176.659 194.961 176.656 194.972 176.651 194.986C176.637 195.075 176.617 195.163 176.604 195.249C177.525 195.416 178.759 195.641 178.759 195.641C178.806 195.655 183.476 196.566 184.533 196.81C185.185 196.96 185.837 197.141 186.464 197.366C187.071 197.585 187.701 197.902 188.367 197.81C189.94 197.593 190.531 195.474 189.388 194.4C188.481 193.547 187.626 193.803 186.5 193.919C186.111 193.958 183.822 193.808 183.39 193.761C182.13 193.625 179.145 193.342 179.026 193.342C179.026 193.342 177.733 193.289 176.795 193.25C176.795 193.278 176.795 193.306 176.795 193.336V193.458L176.792 193.455Z" fill="#0B1A47"/>
<path d="M176.578 191.839C176.578 191.839 176.567 191.842 176.564 191.845C176.545 191.85 176.523 191.859 176.5 191.873C176.165 192.07 175.81 193.075 175.665 194.317C175.507 195.683 175.657 196.877 176.007 196.994C176.004 196.999 176.084 197.007 176.084 197.002C176.401 196.974 176.753 196.13 176.947 195.022C176.947 195.011 176.953 194.997 176.953 194.983C176.964 194.922 176.972 194.858 176.983 194.797C176.986 194.775 176.992 194.753 176.994 194.73C177.005 194.647 177.017 194.561 177.028 194.475C177.039 194.386 177.047 194.303 177.053 194.217C177.053 194.186 177.058 194.158 177.058 194.128C177.064 194.075 177.069 194.019 177.072 193.967C177.072 193.931 177.075 193.892 177.078 193.856C177.078 193.811 177.08 193.767 177.083 193.725C177.083 193.683 177.083 193.644 177.083 193.606C177.083 193.567 177.083 193.528 177.083 193.492C177.083 193.45 177.083 193.411 177.083 193.37C177.083 193.336 177.083 193.3 177.083 193.267C177.083 193.225 177.083 193.186 177.078 193.147C177.078 193.117 177.075 193.086 177.075 193.056C177.072 193.017 177.069 192.978 177.064 192.939C177.064 192.911 177.061 192.884 177.058 192.859C177.055 192.822 177.05 192.786 177.047 192.75C177.044 192.725 177.041 192.7 177.036 192.675C177.03 192.642 177.028 192.606 177.019 192.573C177.019 192.55 177.014 192.525 177.008 192.503C177.003 192.473 176.997 192.442 176.992 192.411C176.986 192.389 176.98 192.367 176.975 192.348C176.969 192.32 176.961 192.295 176.955 192.27C176.95 192.25 176.944 192.228 176.936 192.212C176.928 192.189 176.922 192.167 176.911 192.145C176.906 192.128 176.897 192.109 176.889 192.092C176.881 192.073 176.872 192.056 176.864 192.039C176.856 192.023 176.847 192.009 176.839 191.995C176.828 191.981 176.82 191.967 176.811 191.953C176.803 191.939 176.792 191.928 176.783 191.917C176.772 191.909 176.764 191.898 176.756 191.889C176.745 191.878 176.734 191.873 176.722 191.864C176.711 191.859 176.703 191.853 176.692 191.848C176.675 191.839 176.656 191.834 176.636 191.831C176.617 191.831 176.595 191.831 176.573 191.837L176.578 191.839Z" fill="#FFC2C6"/>
<path opacity="0.7" d="M176.684 191.845C176.684 191.845 176.693 191.85 176.698 191.853C176.709 191.859 176.718 191.864 176.729 191.87C176.926 191.998 177.009 192.442 177.039 192.675C177.073 192.906 177.084 193.139 177.087 193.369C177.087 193.408 177.087 193.45 177.087 193.492C177.084 193.955 177.042 194.458 176.953 194.986C176.953 195 176.948 195.011 176.948 195.025C176.754 196.133 176.401 196.977 176.085 197.005C176.085 197.01 184.303 197.96 189.227 198.529C190.193 198.64 191.067 197.946 191.18 196.98L191.372 195.311C191.483 194.344 190.792 193.469 189.824 193.358C184.852 192.784 181.65 192.414 176.618 191.834C176.618 191.834 176.687 191.845 176.684 191.848V191.845Z" fill="#ED5A61"/>
<path d="M175.596 192.628C173.055 192.322 170.417 191.845 167.54 191.428C167.42 191.412 167.306 191.395 167.19 191.375C167.182 191.609 167.159 191.839 167.129 192.067C170.339 192.786 174.337 193.808 175.38 194.08C175.519 194.116 176.001 194.241 176.334 194.325C176.343 194.303 176.348 194.28 176.354 194.261C176.365 194.23 176.373 194.2 176.381 194.166C176.39 194.139 176.398 194.108 176.406 194.078C176.417 194.047 176.423 194.016 176.431 193.986C176.44 193.953 176.448 193.919 176.456 193.883C176.465 193.855 176.47 193.825 176.479 193.797C176.487 193.755 176.495 193.714 176.503 193.672C176.509 193.647 176.515 193.625 176.517 193.603C176.531 193.536 176.545 193.467 176.556 193.4C176.567 193.331 176.578 193.261 176.589 193.194C176.589 193.178 176.592 193.158 176.595 193.142C176.601 193.092 176.609 193.042 176.612 192.992C176.612 192.981 176.614 192.972 176.617 192.961C176.626 192.889 176.631 192.817 176.637 192.747C176.284 192.708 175.691 192.642 175.599 192.631L175.596 192.628Z" fill="#0B1A47"/>
<path d="M176.789 193.25C176.362 193.233 175.735 193.211 175.558 193.206C174.428 193.172 170.611 193.044 166.988 192.85C166.918 193.181 166.841 193.514 166.766 193.85C169.776 194.25 172.614 194.577 175.311 195.027C175.427 195.047 176.162 195.174 176.601 195.252C176.617 195.166 176.634 195.077 176.648 194.988C176.653 194.975 176.653 194.963 176.656 194.95C176.667 194.888 176.676 194.825 176.687 194.763C176.692 194.741 176.695 194.719 176.698 194.697C176.709 194.614 176.72 194.527 176.731 194.441C176.742 194.355 176.751 194.269 176.756 194.183C176.762 194.153 176.762 194.125 176.764 194.094C176.767 194.041 176.773 193.986 176.776 193.933C176.778 193.897 176.778 193.858 176.781 193.822C176.784 193.778 176.787 193.733 176.787 193.692C176.787 193.653 176.787 193.611 176.789 193.572C176.789 193.536 176.789 193.497 176.789 193.458V193.336C176.789 193.306 176.789 193.278 176.789 193.25V193.25Z" fill="#0B1A47"/>
<path d="M150.594 204.864C150.594 204.833 150.594 204.803 150.594 204.772V204.678C150.597 204.644 150.6 204.608 150.6 204.572C150.6 204.542 150.6 204.514 150.6 204.483C150.6 204.439 150.6 204.397 150.594 204.356V204.283C150.591 204.214 150.588 204.145 150.583 204.075C150.58 204.006 150.575 203.936 150.569 203.867C150.569 203.85 150.563 203.831 150.563 203.814C150.558 203.764 150.552 203.714 150.547 203.664C150.547 203.653 150.544 203.642 150.541 203.634C150.533 203.561 150.522 203.489 150.511 203.42C151.257 203.323 152.247 203.195 152.247 203.195C152.286 203.184 156.054 202.645 156.908 202.495C157.433 202.403 157.963 202.284 158.47 202.128C158.964 201.978 159.48 201.751 160.007 201.851C161.256 202.087 161.641 203.803 160.687 204.617C159.93 205.261 159.256 205.022 158.359 204.883C158.051 204.836 156.218 204.864 155.868 204.883C154.855 204.942 152.458 205.047 152.367 205.044C152.367 205.044 151.332 205.033 150.58 205.028C150.583 205.005 150.583 204.983 150.586 204.961C150.586 204.928 150.591 204.897 150.591 204.864H150.594Z" fill="#0B1A47"/>
<path d="M150.83 204.081C150.838 204.117 150.847 204.153 150.855 204.192C150.863 204.23 150.872 204.267 150.88 204.308C150.888 204.35 150.896 204.394 150.905 204.439C150.913 204.475 150.919 204.511 150.924 204.547C150.933 204.6 150.941 204.653 150.949 204.705C150.955 204.736 150.96 204.764 150.963 204.794C150.977 204.878 150.988 204.964 150.999 205.05C151.01 205.139 151.019 205.225 151.024 205.308C151.024 205.33 151.03 205.352 151.03 205.377C151.035 205.441 151.041 205.502 151.044 205.563C151.044 205.577 151.044 205.588 151.044 205.602C151.049 205.694 151.052 205.783 151.057 205.872C151.992 205.819 153.244 205.752 153.244 205.752C153.294 205.752 158.049 205.558 159.131 205.547C159.797 205.541 160.474 205.566 161.137 205.638C161.778 205.711 162.463 205.872 163.087 205.627C164.571 205.052 164.652 202.853 163.292 202.073C162.213 201.456 161.439 201.901 160.371 202.275C160.002 202.406 157.741 202.789 157.308 202.842C156.048 203.003 153.08 203.42 152.966 203.445C152.966 203.445 151.698 203.692 150.774 203.875C150.78 203.903 150.788 203.931 150.794 203.958C150.805 203.997 150.813 204.033 150.824 204.075L150.83 204.081Z" fill="#0B1A47"/>
<path d="M150.248 202.556C150.248 202.556 150.239 202.562 150.237 202.564C150.217 202.575 150.198 202.589 150.181 202.606C149.898 202.878 149.787 203.936 149.937 205.178C150.101 206.544 150.522 207.671 150.889 207.702C150.889 207.707 150.966 207.699 150.963 207.694C151.266 207.591 151.416 206.688 151.346 205.569C151.346 205.555 151.346 205.541 151.344 205.53C151.341 205.469 151.335 205.405 151.33 205.344C151.33 205.322 151.327 205.3 151.324 205.275C151.316 205.191 151.305 205.105 151.296 205.016C151.285 204.93 151.274 204.844 151.26 204.761C151.255 204.73 151.252 204.703 151.246 204.672C151.238 204.619 151.23 204.567 151.221 204.514C151.216 204.478 151.208 204.442 151.199 204.406C151.191 204.361 151.183 204.319 151.177 204.275C151.169 204.236 151.16 204.197 151.152 204.158C151.144 204.122 151.138 204.083 151.127 204.047C151.119 204.006 151.108 203.97 151.099 203.931C151.091 203.897 151.083 203.864 151.074 203.833C151.063 203.795 151.052 203.756 151.041 203.717C151.033 203.686 151.027 203.658 151.016 203.628C151.005 203.589 150.991 203.556 150.98 203.517C150.972 203.492 150.963 203.464 150.955 203.439C150.941 203.406 150.93 203.37 150.916 203.336C150.908 203.311 150.9 203.286 150.891 203.264C150.88 203.231 150.866 203.2 150.852 203.17C150.844 203.147 150.833 203.125 150.825 203.106C150.811 203.075 150.797 203.05 150.786 203.023C150.775 203.003 150.766 202.984 150.755 202.964C150.744 202.939 150.73 202.917 150.717 202.895C150.705 202.875 150.694 202.859 150.686 202.839C150.672 202.82 150.661 202.8 150.647 202.781C150.636 202.764 150.625 202.75 150.614 202.734C150.6 202.717 150.589 202.7 150.575 202.687C150.564 202.673 150.553 202.662 150.542 202.65C150.531 202.639 150.517 202.628 150.506 202.617C150.495 202.606 150.481 202.598 150.47 202.589C150.459 202.584 150.447 202.575 150.436 202.57C150.422 202.562 150.411 202.559 150.397 202.553C150.386 202.548 150.375 202.545 150.364 202.545C150.345 202.539 150.328 202.539 150.309 202.542C150.287 202.542 150.267 202.55 150.245 202.562L150.248 202.556Z" fill="#FFC2C6"/>
<path opacity="0.7" d="M150.353 202.536C150.353 202.536 150.361 202.542 150.366 202.542C150.378 202.542 150.391 202.548 150.4 202.55C150.622 202.628 150.805 203.042 150.891 203.261C150.974 203.478 151.038 203.703 151.096 203.928C151.104 203.967 151.116 204.006 151.124 204.044C151.229 204.497 151.304 204.994 151.34 205.527C151.34 205.541 151.34 205.552 151.343 205.566C151.412 206.688 151.263 207.591 150.96 207.691C150.963 207.696 159.178 206.713 164.1 206.124C165.065 206.011 165.756 205.13 165.639 204.167L165.44 202.5C165.326 201.534 164.449 200.845 163.484 200.959C158.515 201.553 155.31 201.939 150.283 202.539C150.283 202.539 150.353 202.534 150.353 202.536V202.536Z" fill="#ED5A61"/>
<path d="M150.6 204.486C150.6 204.442 150.6 204.4 150.594 204.358V204.286C150.592 204.217 150.589 204.147 150.583 204.078C150.58 204.008 150.575 203.939 150.569 203.869C150.569 203.853 150.564 203.833 150.564 203.817C150.558 203.767 150.553 203.717 150.547 203.667C150.547 203.656 150.544 203.645 150.542 203.636C150.533 203.564 150.522 203.492 150.511 203.422C150.159 203.467 149.565 203.539 149.473 203.55C146.929 203.844 144.252 203.989 141.358 204.25C140.329 204.342 139.336 204.428 138.376 204.528C138.404 204.703 138.434 204.875 138.468 205.044C141.63 204.878 148.194 204.983 149.596 205.011C149.74 205.014 150.239 205.022 150.58 205.025C150.583 205.002 150.583 204.98 150.586 204.958C150.586 204.925 150.592 204.894 150.592 204.861C150.592 204.83 150.592 204.8 150.592 204.769V204.675C150.594 204.641 150.597 204.605 150.597 204.569C150.597 204.539 150.597 204.511 150.597 204.48L150.6 204.486Z" fill="#0B1A47"/>
<path d="M151.046 205.602C151.046 205.602 151.046 205.577 151.046 205.563C151.043 205.502 151.035 205.438 151.032 205.377C151.032 205.355 151.03 205.333 151.027 205.308C151.019 205.224 151.01 205.136 151.002 205.05C150.991 204.963 150.98 204.877 150.966 204.794C150.96 204.763 150.957 204.736 150.952 204.705C150.944 204.652 150.935 204.6 150.927 204.547C150.921 204.508 150.913 204.475 150.908 204.439C150.899 204.394 150.894 204.352 150.883 204.308C150.874 204.269 150.866 204.23 150.858 204.191C150.849 204.153 150.841 204.116 150.833 204.08C150.822 204.039 150.813 204 150.802 203.964C150.797 203.936 150.788 203.908 150.783 203.88C150.361 203.964 149.748 204.086 149.573 204.122C148.208 204.408 142.823 205.499 138.703 206.196C138.764 206.469 138.822 206.744 138.881 207.018C139.128 206.996 139.375 206.971 139.624 206.949C143.242 206.605 146.566 206.174 149.756 205.955C149.875 205.946 150.619 205.899 151.063 205.874C151.057 205.785 151.057 205.697 151.049 205.605L151.046 205.602Z" fill="#0B1A47"/>
<path d="M131.226 189.734C131.215 189.706 131.207 189.679 131.193 189.651C131.182 189.62 131.174 189.592 131.162 189.562C131.151 189.529 131.14 189.495 131.129 189.462C131.121 189.434 131.113 189.406 131.101 189.379C131.088 189.34 131.076 189.298 131.065 189.256C131.057 189.231 131.051 189.212 131.046 189.187C131.027 189.12 131.007 189.054 130.99 188.987C130.971 188.918 130.954 188.851 130.941 188.784C130.935 188.768 130.932 188.748 130.929 188.732C130.916 188.682 130.907 188.632 130.896 188.584C130.896 188.573 130.896 188.565 130.891 188.554C130.874 188.482 130.863 188.412 130.852 188.343C130.117 188.487 129.132 188.679 129.132 188.679C129.093 188.679 125.345 189.359 124.487 189.484C123.96 189.562 123.422 189.615 122.889 189.629C122.373 189.64 121.813 189.587 121.344 189.848C120.231 190.464 120.406 192.217 121.569 192.686C122.493 193.058 123.056 192.619 123.86 192.206C124.138 192.061 125.888 191.511 126.227 191.42C127.206 191.156 129.512 190.501 129.6 190.467C129.6 190.467 130.58 190.131 131.29 189.887C131.279 189.865 131.273 189.845 131.265 189.823C131.254 189.792 131.24 189.765 131.229 189.734H131.226Z" fill="#0B1A47"/>
<path d="M130.755 189.062C130.757 189.098 130.76 189.137 130.766 189.176C130.771 189.215 130.774 189.254 130.78 189.296C130.785 189.337 130.791 189.382 130.796 189.426C130.802 189.462 130.807 189.498 130.81 189.534C130.819 189.587 130.827 189.64 130.835 189.693C130.841 189.723 130.843 189.751 130.849 189.782C130.863 189.865 130.88 189.951 130.899 190.034C130.916 190.12 130.935 190.206 130.954 190.287C130.96 190.309 130.966 190.331 130.971 190.354C130.985 190.415 131.002 190.476 131.015 190.537C131.015 190.548 131.021 190.562 131.027 190.573C131.049 190.662 131.074 190.748 131.099 190.831C130.194 191.078 128.987 191.406 128.987 191.406C128.94 191.423 124.365 192.736 123.333 193.07C122.698 193.272 122.065 193.511 121.461 193.789C120.875 194.061 120.273 194.43 119.605 194.397C118.018 194.319 117.246 192.256 118.292 191.09C119.119 190.162 119.996 190.343 121.128 190.362C121.516 190.37 123.785 190.02 124.213 189.934C125.456 189.69 128.405 189.148 128.524 189.137C128.524 189.137 129.806 188.973 130.741 188.854L130.746 188.94C130.746 188.979 130.752 189.018 130.757 189.06L130.755 189.062Z" fill="#0B1A47"/>
<path d="M130.826 187.435C130.826 187.435 130.837 187.435 130.84 187.435C130.859 187.44 130.884 187.446 130.903 187.457C131.259 187.624 131.697 188.596 131.947 189.82C132.221 191.17 132.174 192.372 131.838 192.517C131.841 192.522 131.761 192.536 131.763 192.531C131.444 192.531 131.02 191.72 130.734 190.634C130.731 190.62 130.726 190.609 130.723 190.595C130.706 190.534 130.693 190.473 130.679 190.412C130.673 190.389 130.668 190.367 130.662 190.345C130.643 190.262 130.626 190.178 130.607 190.092C130.59 190.006 130.573 189.923 130.559 189.837C130.554 189.806 130.548 189.779 130.546 189.748C130.534 189.695 130.529 189.642 130.521 189.59C130.515 189.554 130.509 189.515 130.507 189.479C130.501 189.434 130.496 189.39 130.487 189.348C130.482 189.309 130.479 189.27 130.476 189.229C130.471 189.193 130.468 189.154 130.465 189.115C130.46 189.073 130.46 189.034 130.454 188.995C130.454 188.962 130.448 188.926 130.446 188.893C130.443 188.854 130.44 188.812 130.44 188.773C130.44 188.743 130.437 188.712 130.435 188.682C130.435 188.643 130.435 188.604 130.435 188.565C130.435 188.537 130.435 188.509 130.435 188.484C130.435 188.446 130.435 188.409 130.437 188.373C130.437 188.348 130.437 188.323 130.437 188.298C130.437 188.265 130.443 188.229 130.446 188.196C130.446 188.173 130.451 188.148 130.451 188.126C130.451 188.096 130.46 188.065 130.462 188.035C130.468 188.012 130.468 187.99 130.473 187.971C130.476 187.943 130.482 187.915 130.487 187.89C130.493 187.868 130.498 187.848 130.501 187.829C130.507 187.804 130.512 187.785 130.518 187.762C130.523 187.743 130.529 187.726 130.537 187.707C130.543 187.687 130.551 187.668 130.557 187.651C130.562 187.635 130.571 187.618 130.579 187.604C130.587 187.59 130.593 187.574 130.601 187.562C130.609 187.549 130.618 187.537 130.626 187.524C130.637 187.512 130.645 187.501 130.651 187.493C130.662 187.482 130.673 187.474 130.681 187.465C130.69 187.457 130.698 187.451 130.709 187.446C130.726 187.435 130.743 187.426 130.762 187.424C130.784 187.418 130.806 187.418 130.826 187.424V187.435Z" fill="#FFC2C6"/>
<path opacity="0.7" d="M130.721 187.446C130.721 187.446 130.715 187.454 130.71 187.454C130.699 187.46 130.69 187.465 130.682 187.473C130.496 187.618 130.452 188.068 130.438 188.304C130.427 188.537 130.438 188.768 130.452 189.001C130.455 189.04 130.457 189.081 130.463 189.12C130.505 189.581 130.591 190.078 130.727 190.595C130.727 190.606 130.735 190.62 130.738 190.634C131.026 191.72 131.451 192.53 131.767 192.53C131.767 192.536 123.663 194.197 118.805 195.191C117.853 195.385 116.921 194.771 116.727 193.816L116.391 192.172C116.197 191.217 116.81 190.287 117.765 190.092C122.667 189.09 125.827 188.443 130.79 187.429C130.79 187.429 130.721 187.446 130.724 187.446H130.721Z" fill="#ED5A61"/>
<path d="M139.796 186.238C136.966 186.904 134.377 187.61 131.872 188.132C131.781 188.151 131.195 188.271 130.846 188.337C130.857 188.407 130.871 188.476 130.885 188.548C130.885 188.559 130.885 188.568 130.89 188.579C130.901 188.629 130.91 188.679 130.923 188.726C130.926 188.743 130.929 188.762 130.934 188.779C130.948 188.845 130.968 188.912 130.984 188.981C131.001 189.048 131.02 189.115 131.04 189.181C131.045 189.204 131.054 189.226 131.059 189.251C131.07 189.292 131.082 189.334 131.095 189.373C131.106 189.404 131.115 189.429 131.123 189.456C131.134 189.49 131.148 189.523 131.156 189.556C131.168 189.587 131.179 189.615 131.187 189.645C131.198 189.673 131.209 189.703 131.22 189.728C131.231 189.759 131.245 189.79 131.256 189.817C131.265 189.84 131.27 189.859 131.281 189.881C131.606 189.77 132.078 189.604 132.213 189.556C133.24 189.193 137.216 187.796 140.373 186.799C140.27 186.588 140.17 186.377 140.076 186.166C139.982 186.188 139.887 186.21 139.79 186.232L139.796 186.238Z" fill="#0B1A47"/>
<path d="M131.961 188.706C131.783 188.726 131.162 188.804 130.737 188.856L130.743 188.943C130.743 188.981 130.748 189.02 130.754 189.062C130.757 189.098 130.759 189.137 130.765 189.176C130.771 189.215 130.773 189.254 130.779 189.295C130.784 189.337 130.79 189.381 130.796 189.426C130.801 189.462 130.807 189.498 130.809 189.534C130.818 189.587 130.826 189.64 130.834 189.692C130.84 189.723 130.843 189.751 130.848 189.781C130.862 189.865 130.879 189.951 130.898 190.034C130.915 190.12 130.934 190.206 130.954 190.287C130.959 190.309 130.965 190.331 130.97 190.353C130.984 190.414 131.001 190.475 131.015 190.537C131.015 190.548 131.02 190.562 131.026 190.573C131.048 190.662 131.073 190.748 131.098 190.831C131.528 190.714 132.247 190.525 132.363 190.495C135.151 189.778 138.109 189.181 141.255 188.473C141.091 188.171 140.925 187.865 140.764 187.56C137.082 188.087 133.112 188.568 131.958 188.701L131.961 188.706Z" fill="#0B1A47"/>
<path d="M109.014 227.352C109.037 227.332 109.056 227.31 109.081 227.291C109.103 227.269 109.128 227.246 109.15 227.224C109.175 227.199 109.2 227.174 109.225 227.149C109.248 227.13 109.267 227.108 109.286 227.088C109.317 227.058 109.345 227.027 109.375 226.994C109.392 226.977 109.408 226.96 109.425 226.941C109.472 226.891 109.517 226.838 109.564 226.788C109.611 226.735 109.655 226.683 109.697 226.63C109.708 226.616 109.719 226.602 109.73 226.588C109.764 226.549 109.794 226.508 109.825 226.472C109.833 226.463 109.838 226.455 109.844 226.447C109.888 226.388 109.933 226.333 109.972 226.274C110.568 226.73 111.364 227.341 111.364 227.341C111.398 227.36 114.452 229.637 115.162 230.135C115.601 230.44 116.059 230.729 116.53 230.979C116.985 231.22 117.512 231.423 117.815 231.865C118.536 232.914 117.598 234.403 116.35 234.306C115.359 234.228 115.049 233.586 114.513 232.853C114.327 232.603 113.007 231.329 112.743 231.095C111.986 230.423 110.21 228.807 110.146 228.738C110.146 228.738 109.417 227.999 108.89 227.466L108.94 227.421C108.965 227.399 108.987 227.38 109.012 227.357L109.014 227.352Z" fill="#0B1A47"/>
<path d="M108.207 228.432C108.235 228.405 108.26 228.377 108.285 228.352C108.313 228.324 108.341 228.296 108.366 228.266C108.393 228.232 108.424 228.202 108.452 228.169C108.477 228.141 108.502 228.113 108.526 228.085C108.56 228.044 108.596 228.005 108.632 227.96C108.651 227.938 108.671 227.916 108.69 227.891C108.743 227.824 108.798 227.758 108.851 227.691C108.904 227.621 108.957 227.552 109.006 227.483C109.02 227.463 109.034 227.447 109.045 227.43C109.084 227.377 109.12 227.327 109.153 227.274C109.162 227.263 109.167 227.252 109.176 227.241C109.226 227.166 109.276 227.091 109.326 227.016C110.1 227.547 111.134 228.252 111.134 228.252C111.176 228.274 115.143 230.91 116.067 231.479C116.633 231.829 117.224 232.156 117.829 232.437C118.414 232.709 119.086 232.923 119.494 233.456C120.465 234.717 119.396 236.639 117.832 236.603C116.589 236.572 116.156 235.789 115.437 234.914C115.191 234.611 113.454 233.112 113.113 232.842C112.119 232.054 109.794 230.16 109.711 230.076C109.711 230.076 108.751 229.207 108.058 228.571C108.077 228.552 108.096 228.532 108.119 228.513C108.146 228.485 108.174 228.457 108.205 228.427L108.207 228.432Z" fill="#0B1A47"/>
<path d="M107.652 229.263C107.669 229.24 107.685 229.221 107.705 229.202C107.721 229.179 107.741 229.16 107.76 229.138C107.78 229.116 107.799 229.093 107.818 229.068C107.835 229.049 107.852 229.029 107.868 229.01C107.891 228.982 107.913 228.952 107.938 228.921C107.949 228.904 107.963 228.888 107.974 228.871C108.01 228.824 108.046 228.774 108.082 228.727C108.118 228.677 108.151 228.627 108.185 228.577C108.193 228.563 108.201 228.552 108.21 228.538C108.235 228.499 108.257 228.463 108.282 228.427C108.287 228.418 108.29 228.41 108.296 228.402C108.329 228.349 108.362 228.293 108.393 228.241C108.95 228.588 109.697 229.049 109.697 229.049C109.727 229.063 112.582 230.785 113.245 231.154C113.65 231.382 114.077 231.593 114.507 231.77C114.926 231.94 115.401 232.073 115.703 232.431C116.422 233.284 115.734 234.661 114.638 234.684C113.767 234.7 113.442 234.167 112.912 233.575C112.729 233.373 111.467 232.376 111.223 232.198C110.504 231.679 108.82 230.423 108.759 230.368C108.759 230.368 108.063 229.79 107.558 229.368C107.571 229.354 107.583 229.338 107.599 229.324C107.619 229.304 107.638 229.282 107.657 229.263H107.652Z" fill="#0B1A47"/>
<path d="M110.393 225.472C110.393 225.472 110.382 225.47 110.379 225.467C110.36 225.461 110.335 225.456 110.31 225.456C109.919 225.447 109.095 226.122 108.324 227.105C107.477 228.188 106.984 229.288 107.222 229.568C107.219 229.574 107.283 229.621 107.283 229.616C107.566 229.755 108.31 229.221 109.05 228.377C109.059 228.366 109.067 228.358 109.078 228.347C109.117 228.299 109.159 228.252 109.198 228.202C109.214 228.185 109.228 228.169 109.242 228.149C109.295 228.083 109.35 228.016 109.403 227.947C109.456 227.877 109.508 227.811 109.561 227.741C109.578 227.716 109.594 227.691 109.614 227.666C109.644 227.622 109.677 227.58 109.708 227.536C109.73 227.505 109.75 227.475 109.769 227.444C109.791 227.408 109.819 227.372 109.844 227.336C109.866 227.302 109.886 227.269 109.908 227.236C109.927 227.205 109.949 227.172 109.969 227.141C109.991 227.108 110.01 227.072 110.03 227.036C110.046 227.005 110.066 226.977 110.083 226.95C110.102 226.914 110.121 226.88 110.141 226.844C110.155 226.816 110.171 226.791 110.185 226.764C110.205 226.73 110.221 226.697 110.241 226.661C110.252 226.636 110.266 226.611 110.277 226.589C110.293 226.555 110.307 226.522 110.324 226.489C110.335 226.466 110.343 226.441 110.354 226.419C110.368 226.389 110.382 226.358 110.393 226.325C110.402 226.303 110.413 226.28 110.418 226.258C110.429 226.228 110.44 226.2 110.449 226.172C110.457 226.153 110.463 226.13 110.471 226.108C110.479 226.083 110.485 226.055 110.493 226.03C110.499 226.011 110.504 225.989 110.51 225.972C110.515 225.947 110.518 225.925 110.524 225.903C110.524 225.883 110.529 225.864 110.532 225.847C110.532 225.828 110.535 225.808 110.538 225.789C110.538 225.772 110.538 225.753 110.538 225.739C110.538 225.722 110.538 225.706 110.538 225.692C110.538 225.675 110.538 225.661 110.532 225.644C110.532 225.633 110.526 225.617 110.521 225.606C110.518 225.592 110.51 225.581 110.507 225.569C110.501 225.558 110.496 225.547 110.49 225.539C110.479 225.522 110.465 225.506 110.452 225.495C110.435 225.481 110.415 225.47 110.393 225.464V225.472Z" fill="#FFC2C6"/>
<path opacity="0.7" d="M110.482 225.531C110.482 225.531 110.488 225.542 110.491 225.545C110.496 225.553 110.502 225.561 110.507 225.575C110.61 225.786 110.449 226.208 110.355 226.425C110.263 226.639 110.152 226.844 110.033 227.044C110.013 227.078 109.994 227.114 109.972 227.15C109.728 227.544 109.431 227.95 109.081 228.352C109.07 228.361 109.062 228.372 109.053 228.383C108.313 229.227 107.569 229.76 107.286 229.621C107.286 229.627 113.8 234.726 117.707 237.78C118.475 238.383 119.579 238.244 120.179 237.478L121.211 236.153C121.81 235.387 121.674 234.278 120.905 233.679C116.963 230.593 114.422 228.605 110.432 225.486C110.432 225.486 110.485 225.531 110.482 225.531V225.531Z" fill="#ED5A61"/>
<path d="M109.145 225.63C107.136 224.045 105.133 222.259 102.894 220.401C102.522 220.093 102.159 219.79 101.795 219.49C101.676 219.66 101.557 219.826 101.438 219.996C103.904 222.334 107.366 225.891 108.196 226.752C108.296 226.855 108.645 227.213 108.887 227.46L108.937 227.416C108.962 227.394 108.984 227.374 109.009 227.352C109.031 227.333 109.05 227.31 109.075 227.291C109.098 227.269 109.122 227.247 109.145 227.224C109.17 227.199 109.195 227.174 109.22 227.149C109.242 227.13 109.261 227.108 109.281 227.088C109.311 227.058 109.339 227.027 109.369 226.994C109.386 226.977 109.403 226.96 109.419 226.941C109.467 226.891 109.511 226.838 109.558 226.788C109.605 226.736 109.65 226.683 109.691 226.63C109.702 226.616 109.713 226.602 109.725 226.588C109.758 226.549 109.788 226.508 109.819 226.472C109.827 226.463 109.833 226.455 109.838 226.447C109.883 226.388 109.927 226.333 109.966 226.275C109.686 226.058 109.214 225.691 109.142 225.633L109.145 225.63Z" fill="#0B1A47"/>
<path d="M108.254 226.272C105.885 224.603 103.496 222.723 100.899 220.771C100.713 221.034 100.525 221.298 100.336 221.565C103.191 224.081 106.279 226.927 107.153 227.741C107.283 227.863 107.743 228.285 108.063 228.574C108.082 228.555 108.101 228.535 108.124 228.516C108.151 228.488 108.179 228.46 108.21 228.43C108.237 228.402 108.262 228.374 108.287 228.349C108.315 228.321 108.343 228.294 108.368 228.263C108.395 228.23 108.426 228.199 108.454 228.166C108.479 228.138 108.504 228.11 108.529 228.082C108.562 228.041 108.598 228.002 108.634 227.958C108.653 227.935 108.673 227.913 108.692 227.888C108.745 227.821 108.801 227.755 108.853 227.688C108.906 227.619 108.959 227.549 109.009 227.48C109.022 227.46 109.036 227.444 109.047 227.427C109.086 227.374 109.122 227.324 109.156 227.272C109.164 227.26 109.17 227.249 109.178 227.238C109.228 227.163 109.278 227.088 109.328 227.013C108.961 226.763 108.348 226.338 108.251 226.269L108.254 226.272Z" fill="#0B1A47"/>
<path d="M107.622 227.752C105.738 226.544 103.838 225.161 101.732 223.736C101.047 223.273 100.384 222.823 99.7345 222.395C99.6429 222.52 99.5514 222.645 99.457 222.767C101.729 224.447 105.982 228.032 106.895 228.813C106.989 228.893 107.325 229.177 107.555 229.368C107.569 229.354 107.58 229.338 107.597 229.324C107.616 229.304 107.636 229.282 107.655 229.263C107.672 229.24 107.689 229.221 107.708 229.202C107.725 229.179 107.744 229.16 107.763 229.138C107.783 229.115 107.802 229.093 107.822 229.068C107.838 229.049 107.855 229.029 107.872 229.01C107.894 228.982 107.916 228.952 107.941 228.921C107.952 228.904 107.966 228.888 107.977 228.871C108.013 228.824 108.049 228.774 108.085 228.727C108.121 228.677 108.155 228.627 108.188 228.577C108.196 228.563 108.205 228.552 108.213 228.538C108.238 228.499 108.26 228.463 108.285 228.427C108.291 228.418 108.293 228.41 108.299 228.402C108.332 228.349 108.366 228.293 108.396 228.241C108.132 228.077 107.691 227.799 107.622 227.752V227.752Z" fill="#0B1A47"/>
<path d="M121.526 262.184C121.513 262.157 121.499 262.132 121.485 262.104C121.471 262.076 121.457 262.048 121.443 262.018C121.429 261.987 121.413 261.954 121.399 261.921C121.385 261.896 121.374 261.868 121.363 261.84C121.346 261.801 121.329 261.76 121.313 261.721C121.304 261.698 121.293 261.676 121.285 261.654C121.257 261.59 121.232 261.526 121.207 261.462C121.182 261.396 121.157 261.332 121.135 261.268C121.13 261.251 121.124 261.235 121.119 261.218C121.102 261.171 121.088 261.121 121.069 261.076C121.069 261.065 121.063 261.057 121.06 261.046C121.038 260.976 121.016 260.907 120.999 260.84C120.281 261.062 119.324 261.36 119.324 261.36C119.285 261.368 115.631 262.448 114.793 262.665C114.277 262.801 113.747 262.912 113.22 262.984C112.707 263.054 112.146 263.059 111.708 263.37C110.67 264.106 111.034 265.828 112.241 266.167C113.198 266.436 113.708 265.942 114.466 265.439C114.726 265.267 116.408 264.528 116.732 264.403C117.678 264.034 119.901 263.131 119.984 263.09C119.984 263.09 120.922 262.648 121.601 262.329C121.59 262.309 121.582 262.29 121.571 262.268C121.557 262.24 121.54 262.212 121.526 262.182V262.184Z" fill="#0B1A47"/>
<path d="M121.909 263.475C121.895 263.442 121.879 263.406 121.865 263.37C121.851 263.334 121.834 263.298 121.82 263.259C121.804 263.22 121.787 263.178 121.77 263.137C121.756 263.103 121.743 263.07 121.729 263.034C121.712 262.984 121.693 262.934 121.676 262.884C121.665 262.856 121.654 262.828 121.643 262.801C121.615 262.72 121.587 262.64 121.559 262.556C121.534 262.473 121.51 262.39 121.485 262.306C121.476 262.284 121.471 262.265 121.465 262.242C121.446 262.181 121.432 262.12 121.415 262.059C121.41 262.045 121.41 262.034 121.404 262.02C121.382 261.931 121.362 261.845 121.343 261.759C120.433 261.99 119.218 262.292 119.218 262.292C119.171 262.301 114.538 263.4 113.475 263.617C112.823 263.75 112.154 263.853 111.491 263.909C110.848 263.961 110.146 263.931 109.577 264.289C108.231 265.136 108.567 267.311 110.051 267.819C111.228 268.219 111.905 267.636 112.881 267.063C113.217 266.866 115.367 266.058 115.778 265.922C116.982 265.525 119.817 264.55 119.925 264.503C119.925 264.503 121.127 264.017 121.995 263.664C121.984 263.639 121.97 263.612 121.962 263.587C121.945 263.55 121.928 263.514 121.912 263.475H121.909Z" fill="#0B1A47"/>
<path d="M122.145 264.448C122.134 264.423 122.126 264.398 122.117 264.373C122.106 264.348 122.098 264.323 122.09 264.295C122.079 264.267 122.067 264.237 122.059 264.209C122.054 264.184 122.043 264.162 122.034 264.137C122.023 264.101 122.012 264.065 122.001 264.028C121.995 264.009 121.99 263.99 121.981 263.967C121.962 263.909 121.948 263.854 121.932 263.795C121.915 263.737 121.898 263.679 121.887 263.62C121.882 263.604 121.879 263.59 121.876 263.576C121.868 263.531 121.857 263.487 121.846 263.445C121.846 263.434 121.846 263.426 121.843 263.418C121.829 263.356 121.818 263.293 121.804 263.231C121.163 263.365 120.303 263.54 120.303 263.54C120.27 263.543 116.996 264.17 116.247 264.29C115.786 264.362 115.315 264.414 114.849 264.431C114.396 264.448 113.905 264.406 113.497 264.639C112.532 265.189 112.698 266.722 113.719 267.119C114.532 267.436 115.021 267.047 115.723 266.678C115.964 266.55 117.493 266.053 117.784 265.97C118.636 265.731 120.65 265.137 120.727 265.106C120.727 265.106 121.579 264.803 122.201 264.584C122.195 264.567 122.187 264.548 122.176 264.528C122.167 264.503 122.156 264.476 122.145 264.451V264.448Z" fill="#0B1A47"/>
<path d="M120.883 259.944C120.883 259.944 120.894 259.944 120.897 259.944C120.919 259.944 120.942 259.949 120.964 259.957C121.336 260.085 121.877 261.004 122.257 262.193C122.676 263.504 122.759 264.703 122.44 264.887C122.443 264.892 122.365 264.917 122.365 264.909C122.051 264.942 121.538 264.184 121.136 263.134C121.13 263.123 121.125 263.109 121.122 263.098C121.1 263.04 121.078 262.982 121.058 262.921C121.05 262.901 121.041 262.879 121.033 262.857C121.003 262.776 120.978 262.693 120.95 262.61C120.922 262.526 120.897 262.443 120.872 262.362C120.864 262.332 120.858 262.304 120.847 262.276C120.833 262.224 120.819 262.174 120.806 262.121C120.795 262.085 120.786 262.049 120.778 262.012C120.767 261.971 120.756 261.926 120.747 261.885C120.736 261.846 120.731 261.807 120.72 261.768C120.711 261.732 120.703 261.693 120.697 261.657C120.686 261.618 120.684 261.576 120.675 261.538C120.67 261.504 120.661 261.471 120.656 261.438C120.647 261.396 120.642 261.357 120.636 261.318C120.631 261.288 120.625 261.257 120.623 261.227C120.617 261.188 120.611 261.149 120.609 261.11C120.609 261.082 120.603 261.057 120.6 261.029C120.595 260.993 120.595 260.954 120.589 260.918C120.589 260.893 120.584 260.868 120.584 260.843C120.584 260.81 120.578 260.774 120.578 260.741C120.578 260.716 120.578 260.693 120.578 260.671C120.578 260.638 120.578 260.61 120.578 260.58C120.578 260.557 120.578 260.535 120.578 260.513C120.578 260.485 120.584 260.457 120.584 260.432C120.584 260.41 120.589 260.391 120.589 260.371C120.592 260.346 120.595 260.324 120.6 260.302C120.603 260.282 120.606 260.263 120.611 260.246C120.617 260.227 120.623 260.207 120.625 260.188C120.631 260.171 120.636 260.155 120.642 260.138C120.647 260.121 120.656 260.107 120.661 260.094C120.667 260.08 120.675 260.066 120.681 260.052C120.686 260.041 120.695 260.03 120.703 260.019C120.711 260.007 120.72 259.999 120.731 259.988C120.739 259.98 120.747 259.971 120.756 259.966C120.772 259.952 120.789 259.944 120.808 259.938C120.828 259.932 120.85 259.93 120.872 259.93L120.883 259.944Z" fill="#FFC2C6"/>
<path opacity="0.7" d="M120.778 259.968C120.778 259.968 120.769 259.977 120.764 259.979C120.755 259.985 120.747 259.991 120.739 260.002C120.569 260.166 120.575 260.615 120.589 260.851C120.603 261.085 120.636 261.315 120.678 261.543C120.686 261.582 120.692 261.621 120.7 261.662C120.794 262.118 120.93 262.601 121.122 263.101C121.127 263.112 121.13 263.126 121.135 263.137C121.54 264.187 122.051 264.945 122.364 264.912C122.364 264.917 114.491 267.45 109.772 268.963C108.845 269.263 107.855 268.752 107.558 267.825L107.044 266.225C106.748 265.298 107.258 264.306 108.185 264.009C112.948 262.479 116.022 261.493 120.841 259.943L120.778 259.968V259.968Z" fill="#ED5A61"/>
<path d="M129.666 257.78C126.925 258.749 124.431 259.732 121.998 260.524C121.909 260.554 121.34 260.735 121.002 260.84C121.021 260.91 121.041 260.976 121.063 261.046C121.063 261.057 121.069 261.065 121.071 261.076C121.088 261.124 121.105 261.171 121.121 261.218C121.127 261.235 121.132 261.251 121.138 261.268C121.16 261.332 121.185 261.398 121.21 261.462C121.235 261.526 121.26 261.59 121.288 261.654C121.296 261.676 121.307 261.698 121.315 261.721C121.332 261.759 121.349 261.798 121.365 261.84C121.376 261.868 121.388 261.893 121.401 261.921C121.415 261.954 121.432 261.984 121.446 262.018C121.46 262.045 121.476 262.073 121.487 262.104C121.501 262.132 121.515 262.159 121.529 262.184C121.543 262.215 121.56 262.243 121.573 262.27C121.585 262.29 121.593 262.309 121.604 262.332C121.915 262.184 122.367 261.971 122.495 261.907C123.502 261.418 127.477 259.516 130.54 258.174C130.421 257.98 130.304 257.786 130.18 257.597C130.01 257.658 129.838 257.716 129.666 257.78V257.78Z" fill="#0B1A47"/>
<path d="M122.609 261.435C122.495 261.465 121.774 261.654 121.344 261.762C121.363 261.848 121.385 261.934 121.405 262.023C121.41 262.037 121.41 262.048 121.416 262.062C121.43 262.123 121.446 262.184 121.466 262.245C121.471 262.268 121.477 262.287 121.485 262.309C121.507 262.393 121.535 262.476 121.56 262.559C121.588 262.643 121.616 262.723 121.643 262.804C121.654 262.831 121.666 262.859 121.677 262.887C121.693 262.94 121.713 262.99 121.729 263.037C121.743 263.073 121.757 263.106 121.771 263.14C121.785 263.181 121.804 263.223 121.821 263.262C121.835 263.301 121.851 263.337 121.865 263.373C121.879 263.406 121.896 263.442 121.91 263.478C121.926 263.517 121.943 263.551 121.96 263.59C121.971 263.615 121.985 263.642 121.993 263.667C122.39 263.506 122.97 263.267 123.136 263.198C124.218 262.745 127.977 261.19 131.47 259.835C131.32 259.538 131.157 259.241 130.993 258.946C128.041 259.838 125.283 260.726 122.609 261.44V261.435Z" fill="#0B1A47"/>
<path d="M129.611 261.31C127.141 261.92 124.883 262.562 122.697 263.042C122.616 263.062 122.106 263.17 121.801 263.231C121.812 263.292 121.823 263.353 121.84 263.417C121.84 263.426 121.84 263.434 121.842 263.445C121.853 263.487 121.865 263.531 121.873 263.576C121.876 263.589 121.878 263.603 121.884 263.62C121.898 263.678 121.915 263.737 121.928 263.795C121.945 263.853 121.959 263.912 121.978 263.967C121.984 263.987 121.989 264.006 121.998 264.028C122.009 264.064 122.02 264.1 122.031 264.137C122.039 264.162 122.05 264.184 122.056 264.209C122.067 264.239 122.075 264.267 122.087 264.295C122.095 264.323 122.106 264.348 122.114 264.373C122.123 264.398 122.134 264.423 122.142 264.448C122.153 264.473 122.164 264.5 122.173 264.525C122.184 264.542 122.189 264.561 122.198 264.581C122.481 264.481 122.891 264.331 123.01 264.286C124.142 263.867 129.4 261.965 132.105 261.179C132.041 261.035 131.977 260.893 131.911 260.749C131.164 260.923 130.399 261.112 129.608 261.307L129.611 261.31Z" fill="#0B1A47"/>
<path d="M181.475 256.569C181.456 256.6 181.433 256.633 181.411 256.664C181.389 256.697 181.367 256.728 181.342 256.761C181.32 256.797 181.289 256.83 181.264 256.866C181.242 256.897 181.22 256.925 181.198 256.955C181.167 256.997 181.131 257.039 181.098 257.083C181.078 257.108 181.062 257.13 181.039 257.153C180.987 257.219 180.931 257.286 180.876 257.352C180.82 257.419 180.762 257.483 180.704 257.547C180.687 257.563 180.673 257.58 180.657 257.597C180.615 257.644 180.573 257.691 180.529 257.736C180.518 257.747 180.512 257.755 180.501 257.763C180.437 257.83 180.374 257.894 180.312 257.955C180.987 258.61 181.886 259.482 181.886 259.482C181.916 259.519 185.29 262.882 186.033 263.673C186.488 264.159 186.929 264.673 187.326 265.209C187.709 265.731 188.053 266.342 188.661 266.639C190.087 267.339 191.757 265.906 191.407 264.378C191.127 263.165 190.275 262.901 189.276 262.368C188.932 262.185 187.115 260.782 186.782 260.502C185.811 259.685 183.492 257.786 183.392 257.719C183.392 257.719 182.349 256.955 181.589 256.4C181.575 256.422 181.558 256.447 181.544 256.472C181.522 256.505 181.5 256.539 181.478 256.572L181.475 256.569Z" fill="#0B1A47"/>
<path d="M182.424 255.301C182.424 255.301 182.415 255.298 182.41 255.295C182.39 255.29 182.365 255.284 182.343 255.281C181.952 255.259 181.1 255.895 180.287 256.845C179.397 257.892 178.859 258.969 179.083 259.258C179.078 259.261 179.139 259.314 179.142 259.308C179.422 259.461 180.185 258.958 180.962 258.147C180.97 258.139 180.978 258.128 180.986 258.119C181.031 258.075 181.072 258.028 181.114 257.981C181.128 257.964 181.145 257.947 181.158 257.931C181.217 257.867 181.272 257.803 181.328 257.736C181.386 257.67 181.439 257.603 181.494 257.536C181.514 257.514 181.527 257.489 181.55 257.464C181.583 257.422 181.616 257.381 181.65 257.339C181.672 257.309 181.694 257.281 181.716 257.25C181.741 257.214 181.769 257.178 181.794 257.145C181.816 257.111 181.838 257.081 181.863 257.048C181.885 257.017 181.908 256.986 181.927 256.953C181.949 256.92 181.971 256.886 181.994 256.853C182.013 256.825 182.03 256.795 182.049 256.767C182.071 256.734 182.091 256.7 182.11 256.664C182.127 256.639 182.143 256.614 182.157 256.587C182.177 256.553 182.196 256.52 182.216 256.484C182.229 256.462 182.243 256.437 182.254 256.412C182.271 256.378 182.29 256.345 182.307 256.314C182.318 256.292 182.332 256.27 182.343 256.248C182.357 256.214 182.374 256.187 182.385 256.156C182.393 256.134 182.404 256.112 182.413 256.092C182.426 256.062 182.437 256.034 182.449 256.006C182.457 255.984 182.465 255.964 182.471 255.945C182.482 255.92 182.487 255.895 182.496 255.87C182.501 255.851 182.51 255.831 182.515 255.812C182.521 255.79 182.526 255.767 182.532 255.745C182.535 255.726 182.54 255.709 182.543 255.69C182.546 255.67 182.548 255.651 182.551 255.631C182.551 255.615 182.554 255.598 182.554 255.581C182.554 255.565 182.554 255.548 182.554 255.534C182.554 255.517 182.554 255.501 182.548 255.487C182.548 255.473 182.543 255.459 182.54 255.448C182.537 255.434 182.532 255.423 182.526 255.409C182.523 255.398 182.518 255.39 182.512 255.379C182.501 255.362 182.49 255.345 182.476 255.334C182.46 255.32 182.44 255.309 182.418 255.301H182.424Z" fill="#FFC2C6"/>
<path opacity="0.7" d="M182.511 255.364C182.511 255.364 182.513 255.375 182.516 255.378C182.522 255.389 182.527 255.397 182.53 255.409C182.624 255.625 182.447 256.039 182.344 256.253C182.241 256.461 182.122 256.661 181.994 256.855C181.972 256.889 181.95 256.922 181.928 256.955C181.667 257.339 181.351 257.733 180.985 258.122C180.974 258.133 180.968 258.141 180.96 258.15C180.183 258.96 179.42 259.463 179.14 259.31C179.14 259.316 185.432 264.689 189.205 267.908C189.946 268.538 191.058 268.452 191.688 267.711L192.776 266.433C193.405 265.692 193.319 264.581 192.579 263.948C188.769 260.699 186.314 258.605 182.463 255.317L182.513 255.364H182.511Z" fill="#ED5A61"/>
<path d="M180.59 255.676C179.702 255.042 176.781 252.935 173.97 250.821C173.893 251.205 173.798 251.591 173.688 251.974C175.691 253.734 177.605 255.381 179.375 257.05C179.458 257.131 179.999 257.647 180.318 257.956C180.382 257.894 180.446 257.831 180.507 257.764C180.515 257.756 180.524 257.744 180.535 257.736C180.579 257.692 180.618 257.645 180.662 257.597C180.679 257.581 180.693 257.564 180.709 257.547C180.765 257.483 180.823 257.42 180.881 257.353C180.937 257.286 180.992 257.22 181.045 257.153C181.065 257.131 181.084 257.106 181.103 257.084C181.137 257.042 181.17 257 181.203 256.956C181.225 256.925 181.248 256.897 181.27 256.867C181.295 256.831 181.325 256.798 181.348 256.761C181.372 256.728 181.395 256.698 181.417 256.664C181.439 256.634 181.461 256.603 181.481 256.57C181.506 256.536 181.525 256.5 181.547 256.47C181.564 256.445 181.578 256.423 181.592 256.398C181.245 256.145 180.74 255.778 180.593 255.676H180.59Z" fill="#0B1A47"/>
<path d="M119.078 243.239C119.086 243.211 119.095 243.181 119.103 243.153C119.111 243.123 119.122 243.092 119.128 243.061C119.139 243.028 119.147 242.995 119.156 242.959C119.164 242.931 119.172 242.903 119.178 242.873C119.189 242.831 119.197 242.789 119.208 242.748C119.214 242.725 119.22 242.7 119.225 242.678C119.239 242.612 119.256 242.545 119.267 242.476C119.281 242.406 119.295 242.339 119.306 242.27C119.306 242.253 119.311 242.234 119.314 242.217C119.322 242.167 119.328 242.117 119.339 242.07C119.339 242.059 119.342 242.048 119.342 242.04C119.353 241.967 119.361 241.895 119.367 241.826C120.11 241.92 121.103 242.048 121.103 242.048C121.142 242.048 124.926 242.484 125.789 242.553C126.319 242.598 126.863 242.617 127.396 242.598C127.912 242.575 128.467 242.487 128.952 242.717C130.101 243.261 130.037 245.022 128.908 245.564C128.012 245.994 127.421 245.594 126.591 245.23C126.303 245.105 124.521 244.669 124.18 244.6C123.187 244.4 120.84 243.895 120.751 243.867C120.751 243.867 119.749 243.595 119.025 243.398C119.034 243.375 119.039 243.353 119.045 243.334C119.056 243.303 119.064 243.273 119.075 243.242L119.078 243.239Z" fill="#0B1A47"/>
<path d="M118.923 244.578C118.934 244.542 118.942 244.503 118.951 244.467C118.959 244.428 118.967 244.389 118.976 244.35C118.987 244.309 118.995 244.267 119.003 244.223C119.012 244.186 119.017 244.15 119.026 244.114C119.037 244.061 119.045 244.009 119.053 243.956C119.059 243.925 119.064 243.898 119.07 243.867C119.084 243.784 119.098 243.698 119.109 243.612C119.12 243.525 119.131 243.439 119.139 243.353C119.142 243.331 119.145 243.309 119.148 243.287C119.153 243.223 119.159 243.159 119.164 243.098C119.164 243.084 119.164 243.073 119.164 243.059C119.173 242.967 119.178 242.878 119.184 242.79C120.119 242.859 121.37 242.948 121.37 242.948C121.417 242.948 126.17 243.231 127.254 243.262C127.92 243.281 128.597 243.267 129.26 243.206C129.904 243.145 130.592 242.995 131.213 243.251C132.687 243.853 132.728 246.053 131.355 246.808C130.265 247.405 129.499 246.947 128.436 246.55C128.073 246.414 125.817 245.989 125.387 245.925C124.133 245.742 121.173 245.272 121.059 245.242C121.059 245.242 119.794 244.97 118.873 244.772C118.881 244.747 118.89 244.72 118.895 244.692C118.904 244.653 118.915 244.617 118.926 244.575L118.923 244.578Z" fill="#0B1A47"/>
<path d="M118.858 245.575C118.864 245.547 118.87 245.522 118.872 245.494C118.878 245.467 118.883 245.442 118.886 245.411C118.892 245.381 118.897 245.353 118.9 245.319C118.903 245.294 118.908 245.269 118.911 245.244C118.917 245.208 118.922 245.169 118.928 245.133C118.931 245.111 118.933 245.092 118.936 245.07C118.944 245.011 118.95 244.95 118.956 244.889C118.961 244.828 118.967 244.767 118.972 244.708C118.972 244.692 118.972 244.678 118.972 244.661C118.972 244.617 118.978 244.572 118.981 244.528C118.981 244.52 118.981 244.509 118.981 244.5C118.983 244.436 118.986 244.375 118.986 244.311C119.641 244.331 120.518 244.356 120.518 244.356C120.551 244.356 123.883 244.406 124.643 244.395C125.109 244.386 125.581 244.356 126.041 244.295C126.488 244.231 126.965 244.106 127.406 244.267C128.452 244.642 128.552 246.18 127.614 246.75C126.868 247.202 126.322 246.902 125.567 246.661C125.306 246.577 123.716 246.35 123.414 246.319C122.532 246.23 120.445 245.991 120.365 245.975C120.365 245.975 119.472 245.825 118.825 245.714C118.831 245.694 118.834 245.675 118.839 245.655C118.845 245.628 118.85 245.6 118.856 245.575H118.858Z" fill="#0B1A47"/>
<path d="M119.328 240.918C119.328 240.918 119.317 240.918 119.314 240.921C119.295 240.926 119.27 240.934 119.25 240.946C118.909 241.137 118.532 242.134 118.362 243.37C118.174 244.734 118.299 245.93 118.643 246.055C118.643 246.061 118.723 246.072 118.72 246.067C119.036 246.044 119.408 245.208 119.627 244.106C119.63 244.095 119.633 244.081 119.636 244.067C119.647 244.006 119.658 243.942 119.666 243.881C119.672 243.859 119.677 243.837 119.677 243.814C119.694 243.731 119.705 243.645 119.716 243.556C119.73 243.47 119.741 243.384 119.75 243.301C119.75 243.27 119.755 243.242 119.758 243.212C119.763 243.159 119.769 243.103 119.772 243.051C119.774 243.015 119.777 242.976 119.78 242.94C119.78 242.895 119.786 242.851 119.788 242.809C119.791 242.77 119.794 242.728 119.794 242.69C119.794 242.654 119.799 242.615 119.799 242.576C119.799 242.534 119.799 242.495 119.799 242.454C119.799 242.42 119.799 242.384 119.799 242.351C119.799 242.312 119.799 242.27 119.799 242.231C119.799 242.201 119.799 242.17 119.799 242.14C119.799 242.101 119.797 242.062 119.794 242.023C119.794 241.995 119.794 241.968 119.788 241.943C119.786 241.904 119.783 241.868 119.777 241.832C119.777 241.807 119.772 241.782 119.769 241.757C119.763 241.723 119.761 241.687 119.755 241.657C119.755 241.634 119.75 241.609 119.744 241.587C119.738 241.554 119.733 241.526 119.727 241.495C119.722 241.473 119.716 241.451 119.713 241.429C119.708 241.401 119.7 241.376 119.694 241.351C119.688 241.329 119.683 241.309 119.677 241.293C119.672 241.271 119.663 241.248 119.655 241.226C119.647 241.209 119.641 241.19 119.636 241.173C119.627 241.154 119.619 241.137 119.611 241.121C119.605 241.104 119.594 241.09 119.586 241.076C119.577 241.062 119.569 241.048 119.561 241.037C119.55 241.023 119.544 241.012 119.533 241.001C119.525 240.99 119.516 240.982 119.505 240.973C119.494 240.962 119.483 240.954 119.475 240.948C119.464 240.943 119.455 240.937 119.444 240.932C119.428 240.923 119.408 240.915 119.389 240.912C119.369 240.91 119.344 240.912 119.325 240.915L119.328 240.918Z" fill="#FFC2C6"/>
<path opacity="0.7" d="M119.436 240.924C119.436 240.924 119.445 240.929 119.447 240.932C119.459 240.938 119.467 240.943 119.478 240.949C119.672 241.082 119.744 241.526 119.772 241.762C119.8 241.993 119.805 242.226 119.803 242.459C119.803 242.498 119.803 242.54 119.803 242.582C119.789 243.045 119.733 243.545 119.633 244.07C119.631 244.084 119.628 244.095 119.625 244.109C119.409 245.211 119.034 246.047 118.718 246.07C118.718 246.075 126.91 247.211 131.824 247.889C132.787 248.022 133.674 247.347 133.808 246.383L134.038 244.72C134.171 243.756 133.5 242.868 132.534 242.734C127.576 242.048 124.38 241.607 119.367 240.913L119.434 240.926L119.436 240.924Z" fill="#ED5A61"/>
<path d="M118.329 241.684C115.796 241.323 113.168 240.785 110.302 240.304C110.019 240.257 109.736 240.21 109.459 240.163C109.398 240.371 109.34 240.582 109.284 240.79C112.561 241.584 116.977 242.82 118.076 243.134C118.215 243.173 118.698 243.309 119.028 243.398C119.036 243.376 119.042 243.353 119.047 243.334C119.058 243.303 119.067 243.273 119.078 243.242C119.086 243.215 119.094 243.184 119.103 243.156C119.111 243.126 119.122 243.095 119.128 243.065C119.139 243.031 119.147 242.998 119.155 242.962C119.164 242.934 119.172 242.906 119.178 242.876C119.189 242.834 119.197 242.792 119.208 242.751C119.214 242.729 119.219 242.704 119.225 242.681C119.239 242.615 119.255 242.548 119.266 242.479C119.28 242.409 119.294 242.343 119.305 242.273C119.305 242.256 119.311 242.237 119.314 242.22C119.322 242.17 119.327 242.12 119.338 242.073C119.338 242.062 119.341 242.051 119.341 242.043C119.352 241.97 119.361 241.898 119.366 241.829C119.011 241.782 118.423 241.701 118.329 241.687V241.684Z" fill="#0B1A47"/>
<path d="M117.882 242.687C115.083 242.442 112.173 242.034 109.06 241.662C108.979 241.987 108.899 242.309 108.818 242.626C112.511 243.359 116.517 244.25 117.666 244.514C117.841 244.553 118.451 244.689 118.87 244.778C118.878 244.753 118.887 244.725 118.892 244.697C118.9 244.659 118.911 244.622 118.923 244.581C118.934 244.545 118.942 244.506 118.95 244.47C118.959 244.431 118.967 244.392 118.975 244.353C118.986 244.311 118.995 244.27 119.003 244.225C119.011 244.189 119.017 244.153 119.025 244.117C119.036 244.064 119.045 244.012 119.053 243.959C119.059 243.928 119.064 243.9 119.07 243.87C119.084 243.787 119.097 243.7 119.108 243.614C119.12 243.528 119.131 243.442 119.139 243.356C119.142 243.334 119.145 243.312 119.147 243.289C119.153 243.226 119.158 243.162 119.164 243.101C119.164 243.087 119.164 243.076 119.164 243.062C119.172 242.97 119.178 242.881 119.183 242.792C118.739 242.759 117.996 242.698 117.879 242.687H117.882Z" fill="#0B1A47"/>
<path d="M118.989 244.314C118.678 244.306 118.157 244.286 118.074 244.281C115.837 244.184 113.504 243.942 110.966 243.767C110.133 243.709 109.329 243.653 108.544 243.609C108.497 243.762 108.449 243.912 108.399 244.059C111.171 244.359 116.778 245.345 117.979 245.561C118.101 245.583 118.534 245.658 118.831 245.708C118.837 245.689 118.839 245.669 118.845 245.65C118.85 245.622 118.856 245.594 118.862 245.569C118.867 245.542 118.873 245.517 118.875 245.489C118.881 245.461 118.887 245.436 118.889 245.406C118.895 245.375 118.9 245.347 118.903 245.314C118.906 245.289 118.911 245.264 118.914 245.239C118.92 245.203 118.925 245.164 118.931 245.128C118.934 245.106 118.936 245.086 118.939 245.064C118.948 245.006 118.953 244.945 118.959 244.884C118.964 244.822 118.97 244.761 118.975 244.703C118.975 244.686 118.975 244.673 118.975 244.656C118.975 244.611 118.981 244.567 118.984 244.523C118.984 244.514 118.984 244.503 118.984 244.495C118.986 244.431 118.989 244.37 118.989 244.306V244.314Z" fill="#0B1A47"/>
<path opacity="0.4" d="M87.0967 258.877C95.5086 275.565 111.708 288.328 131.464 293.313V285.39C111.705 280.402 95.5058 267.633 87.0967 250.94V258.877V258.877Z" fill="#50B1AF"/>
<path opacity="0.4" d="M143.467 162.119V170.036C145.617 169.853 147.798 169.756 150 169.756C163.969 169.756 176.964 173.527 187.834 180.006V172.08C176.962 165.604 163.967 161.833 150 161.833C147.795 161.833 145.62 161.936 143.467 162.119Z" fill="#50B1AF"/>
<path d="M150 288.511C131.317 288.511 113.747 281.888 100.53 269.866C87.291 257.822 80 241.801 80 224.756C80 207.71 87.291 191.692 100.53 179.645C113.747 167.62 131.317 161 150 161C168.683 161 186.253 167.623 199.47 179.645C212.709 191.689 220 207.71 220 224.756C220 241.801 212.709 257.819 199.47 269.866C186.253 281.891 168.683 288.511 150 288.511V288.511ZM150 162.663C131.731 162.663 114.56 169.131 101.648 180.875C88.7587 192.6 81.6618 208.182 81.6618 224.753C81.6618 241.323 88.7587 256.906 101.648 268.63C114.56 280.374 131.731 286.845 150 286.845C168.269 286.845 185.44 280.377 198.352 268.63C211.241 256.906 218.338 241.323 218.338 224.753C218.338 208.182 211.241 192.6 198.352 180.875C185.44 169.131 168.269 162.663 150 162.663V162.663Z" fill="white"/>
</g>
<g filter="url(#filter1_d_537_34598)">
<rect x="215" y="193" width="230" height="230" rx="115" fill="#F3FBFF"/>
<path d="M309.703 296.385C302.112 309.967 301.761 313.52 302.092 314.059C302.422 314.598 303.174 315.058 303.871 314.311C304.572 313.564 310.121 298.221 316.138 294C318.674 292.221 322.523 290.022 326.583 287.86C328.535 286.82 380.915 261.207 397.054 253.3C398.141 252.766 398.906 251.74 399.1 250.541C399.295 249.344 398.9 248.125 398.039 247.273C397.741 246.978 397.444 246.688 397.151 246.41C395.985 245.301 394.243 245.063 392.822 245.817C380.787 252.196 325.244 281.535 323.936 282.354C318.577 285.717 313.222 290.083 309.701 296.385H309.703Z" fill="#238482"/>
<path d="M274.661 355.219C274.549 356.254 274.384 357.304 274.146 358.318C273.915 359.303 273.538 360.338 273.8 361.357C274.415 363.767 277.813 364.304 279.278 362.335C280.437 360.772 279.888 359.488 279.506 357.755C279.375 357.157 279.198 353.569 279.193 352.888C279.18 350.904 279.083 346.209 279.065 346.024C279.065 346.024 278.87 343.408 278.762 341.971H275.703C275.61 343.419 275.444 346.024 275.444 346.024C275.431 346.098 274.854 353.533 274.667 355.222L274.661 355.219Z" fill="#0B1A47"/>
<path d="M330.557 355.219C330.444 356.254 330.28 357.304 330.042 358.318C329.811 359.303 329.431 360.338 329.693 361.357C330.311 363.767 333.706 364.304 335.171 362.335C336.33 360.772 335.781 359.488 335.396 357.755C335.266 357.157 335.089 353.569 335.084 352.888C335.068 350.904 334.973 346.209 334.955 346.024C334.955 346.024 334.76 343.408 334.653 341.971H331.593C331.501 343.419 331.334 346.024 331.334 346.024C331.321 346.098 330.744 353.533 330.557 355.222V355.219Z" fill="#0B1A47"/>
<path d="M331.388 345.202C331.357 345.69 331.334 346.021 331.334 346.021C331.321 346.095 330.744 353.53 330.557 355.219C330.444 356.253 330.28 357.303 330.042 358.317C329.811 359.303 329.431 360.337 329.693 361.356C330.311 363.767 333.706 364.303 335.171 362.334C336.33 360.771 335.781 359.488 335.396 357.755C335.266 357.157 335.089 353.568 335.084 352.888C335.068 350.903 334.973 346.208 334.955 346.024C334.955 346.024 334.93 345.692 334.894 345.202C334.201 345.21 333.522 345.212 332.87 345.212C332.842 345.212 332.296 345.21 331.383 345.202H331.388Z" fill="#0B1A47"/>
<path opacity="0.7" d="M349.538 351.509C349.538 348.873 349.207 343.79 349.086 342.07C347.966 342.057 341.859 342.052 335.204 342.052H331.134C326.318 342.052 321.682 342.058 318.873 342.06C316.581 342.055 312.913 342.052 308.9 342.052H308.887C308.764 342.612 307.015 343.059 304.866 343.059C302.717 343.059 300.968 342.612 300.845 342.052H300.765C296.852 342.052 293.256 342.058 290.925 342.06C288.322 342.055 283.947 342.052 279.305 342.05H275.238C268.362 342.05 261.851 342.058 260.507 342.065C260.038 345.107 260.056 348.478 260.056 351.509C260.056 356.838 259.392 365.392 262.648 369.35C265.411 372.708 343.875 372.6 346.481 369.35C349.686 365.351 349.538 356.836 349.538 351.509Z" fill="#ED5A61"/>
<path opacity="0.7" d="M349.538 351.509C349.538 348.873 349.207 343.79 349.087 342.07C347.966 342.057 341.86 342.052 335.205 342.052H331.135C326.319 342.052 321.682 342.058 318.874 342.06C316.581 342.055 312.914 342.052 308.9 342.052V362.771C308.9 364.293 307.667 365.53 306.146 365.53H303.522C302.002 365.53 300.768 364.296 300.768 362.771V342.052C296.855 342.052 293.259 342.058 290.928 342.06C288.325 342.055 283.95 342.052 279.308 342.05H275.241C268.365 342.05 261.854 342.058 260.51 342.065C260.041 345.107 260.059 348.478 260.059 351.509C260.059 356.838 259.394 365.392 262.651 369.35C265.413 372.708 343.878 372.6 346.484 369.35C349.689 365.351 349.541 356.836 349.541 351.509H349.538Z" fill="#ED5A61"/>
<path d="M345.145 339.763C342.388 339.198 337.533 338.849 332.876 338.849H275.966C271.309 338.849 266.454 339.196 263.698 339.763C260.941 340.33 260.61 341.465 260.512 342.066C260.43 342.558 260.602 343.714 261.89 344.168C264.572 345.115 296.878 345.138 300.768 345.19L308.903 345.164C312.501 345.082 332.709 345.21 332.876 345.21C337.772 345.21 344.245 345.033 346.955 344.171C348.035 343.827 349.089 342.905 349.089 342.073C349.089 341.195 347.904 340.333 345.147 339.766L345.145 339.763ZM304.874 343.059C302.65 343.059 300.847 342.579 300.847 341.989C300.847 341.398 302.65 340.918 304.874 340.918C307.097 340.918 308.903 341.398 308.903 341.989C308.903 342.579 307.1 343.059 304.874 343.059Z" fill="#FFC2C6"/>
<path d="M278.754 341.054C278.708 340.631 277.985 332.072 277.598 324.956L276.167 324.951C276.033 330.683 276.085 335.977 275.813 341.016C275.805 341.136 275.772 341.529 275.746 341.986H278.834C278.803 341.562 278.767 341.198 278.752 341.057L278.754 341.054Z" fill="#0B1A47"/>
<path d="M333.507 325.187L332.058 325.182C331.932 330.827 331.979 336.043 331.709 341.016C331.702 341.136 331.666 341.529 331.643 341.986H334.73C334.7 341.562 334.666 341.198 334.651 341.057C334.605 340.638 333.897 332.259 333.507 325.19V325.187Z" fill="#0B1A47"/>
<path d="M306.184 305.654C306.125 305.659 306.066 305.665 306.007 305.672C305.943 305.677 305.884 305.685 305.82 305.69C305.753 305.695 305.684 305.701 305.615 305.703C305.558 305.708 305.499 305.713 305.44 305.716C305.358 305.721 305.274 305.721 305.192 305.726C305.143 305.726 305.097 305.731 305.051 305.731C304.917 305.734 304.781 305.736 304.645 305.736C304.509 305.736 304.371 305.736 304.24 305.731C304.204 305.731 304.171 305.729 304.135 305.726C304.035 305.724 303.938 305.719 303.84 305.713C303.82 305.713 303.799 305.713 303.779 305.708C303.635 305.698 303.496 305.69 303.36 305.677C303.266 307.143 303.14 309.102 303.14 309.102C303.127 309.176 302.55 316.608 302.363 318.299C302.25 319.334 302.083 320.384 301.847 321.398C301.617 322.384 301.237 323.418 301.499 324.435C302.114 326.845 305.512 327.382 306.976 325.413C308.138 323.849 307.589 322.566 307.205 320.833C307.071 320.235 306.897 316.646 306.892 315.966C306.876 313.982 306.782 309.284 306.764 309.102C306.764 309.102 306.615 307.082 306.505 305.613C306.461 305.618 306.417 305.624 306.374 305.629C306.312 305.636 306.251 305.647 306.187 305.652L306.184 305.654Z" fill="#0B1A47"/>
<path d="M308.656 305.495C308.656 305.495 308.651 305.483 308.648 305.475C308.635 305.444 308.617 305.411 308.594 305.38C308.225 304.89 306.602 304.52 304.65 304.52C302.498 304.52 300.673 304.969 300.555 305.534C300.544 305.531 300.544 305.657 300.555 305.655C300.655 306.14 302.027 306.54 303.783 306.643C303.804 306.643 303.824 306.645 303.845 306.648C303.94 306.653 304.04 306.656 304.14 306.661C304.176 306.661 304.209 306.663 304.245 306.666C304.378 306.669 304.514 306.671 304.65 306.671C304.786 306.671 304.919 306.669 305.055 306.666C305.102 306.666 305.148 306.661 305.196 306.661C305.281 306.658 305.366 306.653 305.445 306.651C305.504 306.648 305.561 306.643 305.62 306.64C305.689 306.635 305.758 306.63 305.825 306.628C305.886 306.622 305.948 306.615 306.012 306.61C306.071 306.604 306.13 306.599 306.189 306.592C306.253 306.584 306.315 306.576 306.376 306.568C306.427 306.563 306.481 306.556 306.533 306.548C306.597 306.538 306.656 306.53 306.717 306.52C306.763 306.512 306.812 306.504 306.858 306.497C306.92 306.486 306.979 306.474 307.038 306.463C307.079 306.456 307.122 306.448 307.163 306.438C307.222 306.425 307.276 306.412 307.333 306.399C307.374 306.389 307.41 306.381 307.448 306.371C307.502 306.358 307.553 306.343 307.602 306.327C307.635 306.317 307.671 306.307 307.707 306.296C307.756 306.284 307.799 306.268 307.843 306.253C307.879 306.24 307.91 306.23 307.94 306.217C307.981 306.201 308.02 306.186 308.058 306.171C308.089 306.158 308.117 306.145 308.146 306.132C308.181 306.117 308.212 306.101 308.243 306.083C308.271 306.07 308.297 306.055 308.32 306.04C308.348 306.024 308.374 306.009 308.399 305.991C308.423 305.976 308.443 305.96 308.464 305.945C308.487 305.929 308.505 305.911 308.523 305.896C308.541 305.878 308.558 305.863 308.574 305.845C308.587 305.829 308.602 305.811 308.612 305.796C308.625 305.778 308.635 305.76 308.643 305.739C308.651 305.724 308.659 305.709 308.664 305.691C308.674 305.662 308.682 305.632 308.682 305.603C308.682 305.57 308.674 305.537 308.661 305.503L308.656 305.495Z" fill="#FFC2C6"/>
<path opacity="0.7" d="M308.669 305.665C308.669 305.665 308.661 305.68 308.659 305.688C308.654 305.706 308.646 305.722 308.638 305.737C308.477 306.068 307.802 306.276 307.446 306.368C307.094 306.458 306.733 306.517 306.374 306.564C306.312 306.571 306.251 306.579 306.187 306.587C305.466 306.666 304.679 306.689 303.845 306.646C303.825 306.646 303.804 306.641 303.784 306.641C302.029 306.54 300.655 306.137 300.555 305.652C300.545 305.655 300.542 318.611 300.542 326.376C300.542 327.898 301.776 329.133 303.296 329.133H305.92C307.443 329.133 308.677 327.898 308.677 326.376V305.555C308.677 305.555 308.672 305.663 308.669 305.663V305.665Z" fill="#ED5A61"/>
<path d="M305.145 286.207L303.858 286.163C303.845 286.669 303.835 287.177 303.822 287.69C303.681 293.382 303.732 298.631 303.483 303.632C303.473 303.817 303.409 304.982 303.365 305.675C303.501 305.688 303.642 305.698 303.783 305.706C303.804 305.706 303.824 305.708 303.845 305.711C303.94 305.716 304.04 305.721 304.14 305.724C304.176 305.724 304.209 305.726 304.245 305.729C304.378 305.732 304.514 305.734 304.65 305.734C304.786 305.734 304.919 305.734 305.055 305.729C305.101 305.729 305.148 305.724 305.196 305.724C305.281 305.721 305.366 305.719 305.445 305.714C305.504 305.711 305.56 305.706 305.619 305.701C305.689 305.696 305.758 305.69 305.825 305.688C305.886 305.683 305.948 305.678 306.012 305.67C306.071 305.665 306.13 305.657 306.189 305.652C306.253 305.644 306.314 305.637 306.376 305.629C306.42 305.624 306.463 305.619 306.507 305.613C306.456 304.943 306.379 303.965 306.355 303.688C306.163 301.491 305.458 292.765 305.148 286.207H305.145Z" fill="#0B1A47"/>
<path d="M309.787 258.129C308.795 257.937 307.726 258.26 307.402 258.848L306.438 260.604V250.279C306.438 249.663 305.592 249.163 304.546 249.163C303.499 249.163 302.653 249.663 302.653 250.279V260.604L301.689 258.848C301.365 258.26 300.299 257.939 299.301 258.129C298.306 258.319 297.762 258.951 298.085 259.539L302.745 268.012C302.773 268.061 302.807 268.11 302.845 268.153C302.85 268.161 302.855 268.169 302.861 268.177C302.912 268.238 302.976 268.292 303.043 268.346C303.061 268.359 303.081 268.372 303.102 268.384C303.153 268.423 303.209 268.459 303.271 268.49C303.299 268.505 303.33 268.521 303.361 268.533C303.42 268.562 303.484 268.587 303.548 268.613C303.579 268.623 303.612 268.636 303.645 268.646C303.745 268.68 303.851 268.708 303.958 268.728C304.053 268.746 304.151 268.762 304.251 268.77C304.32 268.777 304.392 268.777 304.461 268.78C304.489 268.78 304.515 268.782 304.543 268.782C304.569 268.782 304.594 268.78 304.62 268.78C304.692 268.78 304.763 268.777 304.833 268.77C304.933 268.759 305.03 268.746 305.125 268.728H305.13C305.238 268.705 305.341 268.677 305.441 268.646C305.476 268.636 305.507 268.623 305.541 268.61C305.605 268.587 305.666 268.562 305.728 268.533C305.759 268.518 305.789 268.503 305.82 268.487C305.879 268.456 305.935 268.42 305.989 268.382C306.007 268.369 306.03 268.356 306.048 268.341C306.118 268.287 306.179 268.233 306.23 268.171C306.236 268.164 306.241 268.156 306.246 268.148C306.282 268.102 306.318 268.056 306.346 268.007L311.003 259.533C311.326 258.946 310.782 258.314 309.787 258.124V258.129Z" fill="#50B1AF"/>
<path d="M312.572 302.166C304.181 315.268 303.619 318.793 303.916 319.352C304.214 319.912 304.934 320.413 305.678 319.709C306.422 319.006 312.879 304.022 319.137 300.172C322.017 298.398 326.495 296.218 331.093 294.142C333.316 293.138 384.13 261.494 398.181 253.056C399.092 252.51 399.728 251.601 399.93 250.559C400.133 249.517 399.887 248.433 399.245 247.586C398.956 247.201 398.661 246.816 398.368 246.441C397.178 244.914 395.029 244.549 393.401 245.594C380.573 253.827 329.498 287.973 327.29 289.198C321.845 292.211 316.383 296.208 312.569 302.166H312.572Z" fill="#50B1AF"/>
<rect x="217.5" y="195.5" width="225" height="225" rx="112.5" stroke="white" stroke-width="5"/>
</g>
</g>
<defs>
<filter id="filter0_d_537_34598" x="-25" y="63" width="350" height="350" filterUnits="userSpaceOnUse" color-interpolation-filters="sRGB">
<feFlood flood-opacity="0" result="BackgroundImageFix"/>
<feColorMatrix in="SourceAlpha" type="matrix" values="0 0 0 0 0 0 0 0 0 0 0 0 0 0 0 0 0 0 127 0" result="hardAlpha"/>
<feOffset dy="10"/>
<feGaussianBlur stdDeviation="30"/>
<feComposite in2="hardAlpha" operator="out"/>
<feColorMatrix type="matrix" values="0 0 0 0 0.0282176 0 0 0 0 0.0690799 0 0 0 0 0.191667 0 0 0 0.1 0"/>
<feBlend mode="normal" in2="BackgroundImageFix" result="effect1_dropShadow_537_34598"/>
<feBlend mode="normal" in="SourceGraphic" in2="effect1_dropShadow_537_34598" result="shape"/>
</filter>
<filter id="filter1_d_537_34598" x="155" y="143" width="350" height="350" filterUnits="userSpaceOnUse" color-interpolation-filters="sRGB">
<feFlood flood-opacity="0" result="BackgroundImageFix"/>
<feColorMatrix in="SourceAlpha" type="matrix" values="0 0 0 0 0 0 0 0 0 0 0 0 0 0 0 0 0 0 127 0" result="hardAlpha"/>
<feOffset dy="10"/>
<feGaussianBlur stdDeviation="30"/>
<feComposite in2="hardAlpha" operator="out"/>
<feColorMatrix type="matrix" values="0 0 0 0 0.0282176 0 0 0 0 0.0690799 0 0 0 0 0.191667 0 0 0 0.1 0"/>
<feBlend mode="normal" in2="BackgroundImageFix" result="effect1_dropShadow_537_34598"/>
<feBlend mode="normal" in="SourceGraphic" in2="effect1_dropShadow_537_34598" result="shape"/>
</filter>
<clipPath id="clip0_537_34598">
<rect width="480" height="536" fill="white"/>
</clipPath>
</defs>
</svg>
