<svg width="37" height="36" viewBox="0 0 37 36" fill="none" xmlns="http://www.w3.org/2000/svg">
<g clip-path="url(#clip0_6945_54186)">
<circle cx="18.332" cy="18" r="17" stroke="#8F8F8F" stroke-width="2"/>
<path d="M27.9486 11.9248L19.3035 7.19458C19.0725 7.06695 18.8129 7 18.549 7C18.2851 7 18.0255 7.06695 17.7945 7.19458L9.14939 11.9268C8.9025 12.0619 8.69641 12.2608 8.55263 12.5027C8.40886 12.7446 8.33267 13.0207 8.33203 13.3022V22.6978C8.33267 22.9793 8.40886 23.2554 8.55263 23.4973C8.69641 23.7392 8.9025 23.9381 9.14939 24.0732L17.7945 28.8054C18.0255 28.9331 18.2851 29 18.549 29C18.8129 29 19.0725 28.9331 19.3035 28.8054L27.9486 24.0732C28.1955 23.9381 28.4016 23.7392 28.5454 23.4973C28.6891 23.2554 28.7653 22.9793 28.766 22.6978V13.3031C28.7658 13.0212 28.6899 12.7445 28.5461 12.502C28.4023 12.2595 28.1959 12.0602 27.9486 11.9248ZM18.549 8.56994L26.4416 12.8925L23.517 14.4938L15.6234 10.1713L18.549 8.56994ZM18.549 17.2151L10.6564 12.8925L13.9867 11.0692L21.8793 15.3917L18.549 17.2151ZM9.90387 14.2679L17.7631 18.5688V26.9968L9.90387 22.6988V14.2679ZM27.1941 22.6949L19.3349 26.9968V18.5727L22.4786 16.8526V20.3587C22.4786 20.5672 22.5614 20.7671 22.7088 20.9145C22.8562 21.0619 23.0561 21.1447 23.2645 21.1447C23.473 21.1447 23.6729 21.0619 23.8202 20.9145C23.9676 20.7671 24.0504 20.5672 24.0504 20.3587V15.992L27.1941 14.2679V22.6939V22.6949Z" fill="white"/>
<circle cx="10.332" cy="11" r="7" fill="#8F8F8F"/>
<path d="M10.332 4C8.94756 4 7.59419 4.41054 6.44304 5.17971C5.2919 5.94888 4.39469 7.04213 3.86488 8.32122C3.33506 9.6003 3.19644 11.0078 3.46654 12.3656C3.73663 13.7235 4.40332 14.9708 5.38229 15.9497C6.36125 16.9287 7.60853 17.5954 8.9664 17.8655C10.3243 18.1356 11.7317 17.997 13.0108 17.4672C14.2899 16.9373 15.3832 16.0401 16.1523 14.889C16.9215 13.7378 17.332 12.3845 17.332 11C17.3301 9.14409 16.5919 7.36475 15.2796 6.05242C13.9673 4.74009 12.1879 4.00196 10.332 4ZM16.2551 11C16.2557 11.7599 16.1094 12.5127 15.8243 13.2171L12.8157 11.3668C12.6878 11.2879 12.5447 11.2367 12.3957 11.2167L10.8597 11.0094C10.6481 10.9818 10.433 11.0173 10.2414 11.1114C10.0499 11.2055 9.89031 11.3541 9.7828 11.5385H9.19588L8.94011 11.0094C8.8694 10.8621 8.76592 10.7329 8.63759 10.6318C8.50926 10.5306 8.35948 10.4602 8.19973 10.4259L7.66126 10.3094L8.18761 9.38461H9.31232C9.49432 9.38426 9.67328 9.33795 9.83261 9.25L10.6571 8.795C10.7296 8.75462 10.7973 8.70631 10.8591 8.65096L12.6703 7.01269C12.8519 6.84995 12.9726 6.63017 13.0125 6.38961C13.0524 6.14904 13.0091 5.90207 12.8897 5.68942L12.8655 5.64567C13.879 6.12625 14.7355 6.8844 15.3354 7.83213C15.9354 8.77987 16.2543 9.87832 16.2551 11ZM11.3625 5.16712L11.9474 6.21442L10.1362 7.85269L9.31232 8.30769H8.18761C7.9983 8.30741 7.81226 8.35704 7.64825 8.45157C7.48423 8.54611 7.34803 8.68221 7.25338 8.84615L6.66578 9.87125L5.98261 8.05125L6.71896 6.31C7.37072 5.8064 8.1205 5.44449 8.92024 5.24745C9.71998 5.05041 10.5521 5.02259 11.3632 5.16577L11.3625 5.16712ZM4.40896 11C4.40806 10.1196 4.60447 9.25025 4.98376 8.45577L5.74703 10.4932C5.81064 10.6619 5.91558 10.8119 6.05223 10.9295C6.18888 11.0471 6.35286 11.1285 6.52915 11.1662L7.97155 11.4765L8.22799 12.0096C8.31699 12.1909 8.45492 12.3437 8.62619 12.4508C8.79746 12.5578 8.99525 12.6148 9.19723 12.6154H9.29684L8.81021 13.7078C8.72446 13.9001 8.697 14.1134 8.73122 14.3212C8.76543 14.529 8.85982 14.7222 9.00271 14.8769L9.01213 14.8863L10.332 16.246L10.2015 16.919C8.65461 16.883 7.18308 16.2439 6.10088 15.1381C5.01869 14.0323 4.41152 12.5473 4.40896 11ZM11.3134 16.841L11.3894 16.4499C11.4207 16.2838 11.4126 16.1126 11.3659 15.9502C11.3191 15.7877 11.235 15.6384 11.1202 15.5143C11.1169 15.5114 11.1138 15.5082 11.1108 15.5049L9.79357 14.146L10.7157 12.0769L12.2516 12.2842L15.329 14.1769C14.8831 14.8771 14.2954 15.4759 13.6037 15.9348C12.912 16.3937 12.1318 16.7024 11.3134 16.841Z" fill="white"/>
</g>
<defs>
<clipPath id="clip0_6945_54186">
<rect x="0.332031" width="36" height="36" rx="18" fill="white"/>
</clipPath>
</defs>
</svg>
