<svg width="54" height="54" viewBox="0 0 54 54" fill="none" xmlns="http://www.w3.org/2000/svg">
<rect width="54" height="54" rx="27" fill="#0D4EE3"/>
<g clip-path="url(#clip0_387_22119)">
<path d="M34 23V22.068C33.9987 20.7243 33.4643 19.436 32.5142 18.4858C31.564 17.5357 30.2757 17.0013 28.932 17H28V15H26V17H25.068C23.8653 17.0013 22.7023 17.4302 21.7868 18.2102C20.8713 18.9901 20.263 20.0702 20.0707 21.2574C19.8783 22.4446 20.1144 23.6615 20.7368 24.6907C21.3592 25.7198 22.3273 26.494 23.468 26.875L26 27.72V35H25.068C24.2546 34.9992 23.4747 34.6757 22.8995 34.1005C22.3243 33.5253 22.0008 32.7454 22 31.932V31H20V31.932C20.0013 33.2757 20.5357 34.564 21.4858 35.5142C22.436 36.4643 23.7243 36.9987 25.068 37H26V39H28V37H28.932C30.1347 36.9987 31.2977 36.5698 32.2132 35.7898C33.1287 35.0099 33.737 33.9298 33.9293 32.7426C34.1217 31.5554 33.8856 30.3385 33.2632 29.3093C32.6408 28.2802 31.6727 27.506 30.532 27.125L28 26.28V19H28.932C29.7454 19.0008 30.5253 19.3243 31.1005 19.8995C31.6757 20.4747 31.9992 21.2546 32 22.068V23H34ZM29.9 29.021C30.5913 29.2511 31.1781 29.7196 31.5555 30.3428C31.9328 30.966 32.0761 31.7031 31.9597 32.4223C31.8433 33.1415 31.4747 33.7958 30.92 34.2681C30.3652 34.7403 29.6605 34.9998 28.932 35H28V28.387L29.9 29.021ZM26 25.613L24.1 24.979C23.4087 24.7489 22.8219 24.2804 22.4445 23.6572C22.0672 23.034 21.9239 22.2969 22.0403 21.5777C22.1567 20.8585 22.5253 20.2042 23.08 19.7319C23.6348 19.2597 24.3395 19.0002 25.068 19H26V25.613Z" fill="white"/>
</g>
<defs>
<clipPath id="clip0_387_22119">
<rect width="24" height="24" fill="white" transform="translate(15 15)"/>
</clipPath>
</defs>
</svg>
