<svg width="19" height="18" viewBox="0 0 19 18" fill="none" xmlns="http://www.w3.org/2000/svg">
<g clip-path="url(#clip0_387_37132)">
<path d="M9.33399 18C7.55396 18 5.8139 17.4722 4.33386 16.4832C2.85381 15.4943 1.70026 14.0887 1.01907 12.4442C0.337884 10.7996 0.159654 8.99002 0.506921 7.24419C0.854188 5.49836 1.71135 3.89472 2.97003 2.63604C4.2287 1.37737 5.83235 0.520204 7.57818 0.172937C9.32401 -0.17433 11.1336 0.00389957 12.7781 0.685088C14.4227 1.36628 15.8283 2.51983 16.8172 3.99987C17.8061 5.47991 18.334 7.21997 18.334 9C18.3314 11.3862 17.3824 13.6738 15.6951 15.3611C14.0078 17.0484 11.7201 17.9974 9.33399 18ZM9.33399 1.5C7.85063 1.5 6.40058 1.93987 5.16721 2.76398C3.93384 3.58809 2.97255 4.75943 2.40489 6.12988C1.83723 7.50032 1.68871 9.00832 1.9781 10.4632C2.26749 11.918 2.98179 13.2544 4.03069 14.3033C5.07958 15.3522 6.41595 16.0665 7.87081 16.3559C9.32567 16.6453 10.8337 16.4968 12.2041 15.9291C13.5746 15.3614 14.7459 14.4001 15.57 13.1668C16.3941 11.9334 16.834 10.4834 16.834 9C16.8318 7.01155 16.0409 5.10516 14.6349 3.69911C13.2288 2.29307 11.3224 1.50219 9.33399 1.5ZM9.33399 15C8.1473 15 6.98726 14.6481 6.00057 13.9888C5.01387 13.3295 4.24484 12.3925 3.79071 11.2961C3.33659 10.1997 3.21777 8.99335 3.44928 7.82946C3.68079 6.66558 4.25223 5.59648 5.09135 4.75736C5.93046 3.91825 6.99956 3.3468 8.16345 3.11529C9.32733 2.88378 10.5337 3.0026 11.6301 3.45673C12.7264 3.91085 13.6635 4.67989 14.3228 5.66658C14.9821 6.65328 15.334 7.81332 15.334 9C15.3322 10.5908 14.6995 12.1158 13.5747 13.2407C12.4498 14.3655 10.9247 14.9982 9.33399 15ZM9.33399 4.5C8.44397 4.5 7.57394 4.76392 6.83392 5.25839C6.0939 5.75286 5.51712 6.45566 5.17653 7.27793C4.83594 8.1002 4.74682 9.005 4.92045 9.87791C5.09409 10.7508 5.52267 11.5526 6.15201 12.182C6.78134 12.8113 7.58317 13.2399 8.45608 13.4135C9.329 13.5872 10.2338 13.4981 11.0561 13.1575C11.8783 12.8169 12.5811 12.2401 13.0756 11.5001C13.5701 10.76 13.834 9.89002 13.834 9C13.8328 7.8069 13.3583 6.66299 12.5147 5.81934C11.671 4.97568 10.5271 4.5012 9.33399 4.5ZM11.584 7.836V6.75H7.08399V8.25H9.68049L7.91799 11.655L9.24999 12.345L11.584 7.836Z" fill="#000C28"/>
</g>
<defs>
<clipPath id="clip0_387_37132">
<rect width="18" height="18" fill="white" transform="translate(0.333984)"/>
</clipPath>
</defs>
</svg>
