<svg width="48" height="48" viewBox="0 0 48 48" fill="none" xmlns="http://www.w3.org/2000/svg">
<g clip-path="url(#clip0_387_26175)">
<path d="M3.19997 22.4H20.7999V34.7056L17.7096 33.16C16.1715 32.3537 14.2719 32.8645 13.3459 34.3336C12.4198 35.8027 12.7779 37.7368 14.1687 38.7768C15.9387 40.0794 17.624 41.4936 19.2143 43.0103C20.0409 43.8766 20.7397 44.8563 21.2895 45.92C21.9902 47.2042 23.3371 48.0022 24.7999 48H33.6C36.2498 47.9974 38.3974 45.8498 38.4 43.2V33.2C38.4 31.6536 37.1464 30.3999 35.6 30.3999C35.1797 30.4024 34.7654 30.5005 34.3888 30.6871C34.3284 29.1893 33.0991 28.0046 31.6 27.9999C31.1797 28.0024 30.7655 28.1005 30.3889 28.2871C30.3596 27.3463 29.8552 26.4846 29.0494 25.9984C28.2434 25.5122 27.2459 25.4678 26.4001 25.8807V22.3999H44.8001C46.5674 22.3999 48.0001 20.9672 48.0001 19.1999V3.19997C48 1.43269 46.5673 0 44.8 0H3.19997C1.43269 0 0 1.43269 0 3.19997V19.2C0 20.9673 1.43269 22.4 3.19997 22.4ZM27.6 27.2C28.2627 27.2 28.8 27.7373 28.8 28.4V35.1999C28.8 35.6418 29.1581 35.9999 29.6 35.9999C30.0418 35.9999 30.3999 35.6417 30.3999 35.1999V30.8C30.3999 30.1372 30.9372 29.6 31.5999 29.6C32.2627 29.6 32.7999 30.1372 32.7999 30.8V35.1999C32.7999 35.6418 33.1582 35.9999 33.5999 35.9999C34.0417 35.9999 34.3999 35.6417 34.3999 35.1999V33.2C34.3999 32.5373 34.9372 32 35.5999 32C36.2626 32 36.7999 32.5373 36.7999 33.2V43.2C36.7999 44.9673 35.3672 46.4 33.5999 46.4H24.7999C23.9203 46.3985 23.1116 45.9176 22.6903 45.1456C22.0676 43.9464 21.2752 42.8434 20.3375 41.8704C18.6952 40.3028 16.9545 38.8415 15.1263 37.4952C14.3736 36.934 14.206 35.8749 14.7487 35.1088C15.263 34.4003 16.2208 34.1795 16.9935 34.5912L21.2423 36.72C21.4917 36.8329 21.781 36.8138 22.0134 36.6692C22.2459 36.5246 22.3909 36.2736 22.3999 36V22C22.3999 21.3373 22.9372 20.8 23.5999 20.8C24.2626 20.8 24.7999 21.3373 24.7999 22V35.2C24.7999 35.6419 25.158 36 25.5998 36C26.0417 36 26.3998 35.6418 26.3998 35.2V28.4001C26.4 27.7372 26.9373 27.2 27.6 27.2ZM1.60003 3.19997C1.60003 2.31628 2.31638 1.59994 3.20006 1.59994H44.8C45.6837 1.59994 46.4001 2.31628 46.4001 3.19997V19.2C46.4001 20.0837 45.6837 20.8 44.8 20.8H26.1192C25.6574 19.8263 24.6777 19.2041 23.6001 19.2C22.5192 19.1953 21.5346 19.8201 21.0785 20.8H3.19997C2.31628 20.8 1.59994 20.0837 1.59994 19.2L1.60003 3.19997Z" fill="#0D4EE3"/>
<path d="M9.59964 15.1995C8.29886 15.1995 7.19964 14.4667 7.19964 13.5995C7.19964 13.1576 6.84152 12.7995 6.39967 12.7995C5.95783 12.7995 5.5997 13.1577 5.5997 13.5995C5.5997 15.3643 7.39408 16.7995 9.59973 16.7995C11.8054 16.7995 13.5998 15.3642 13.5998 13.5995C13.5998 11.8346 11.8054 10.3995 9.59973 10.3995C8.29895 10.3995 7.19973 9.66667 7.19973 8.79948C7.19973 7.9323 8.29886 7.19955 9.59964 7.19955C10.9004 7.19955 11.9996 7.93239 11.9996 8.79958C11.9996 9.24142 12.3579 9.59955 12.7996 9.59955C13.2415 9.59955 13.5996 9.24133 13.5996 8.79958C13.5996 7.03473 11.8052 5.59961 9.59955 5.59961C7.39389 5.59961 5.59961 7.03473 5.59961 8.79958C5.59961 10.5644 7.39408 11.9995 9.59964 11.9995C10.9004 11.9995 11.9996 12.7324 11.9996 13.5996C11.9996 14.4668 10.9004 15.1995 9.59964 15.1995Z" fill="#0D4EE3"/>
<path d="M16.0002 16.7996C16.442 16.7996 16.8001 16.4414 16.8001 15.9997V11.9996H19.2001C20.9674 11.9996 22.4001 10.567 22.4001 8.79967C22.4001 7.03239 20.9674 5.59961 19.2001 5.59961H16.0002C15.5583 5.59961 15.2002 5.95783 15.2002 6.39958V15.9996C15.2001 16.4415 15.5583 16.7996 16.0002 16.7996ZM20.8002 8.79967C20.8002 9.68336 20.0838 10.3997 19.2001 10.3997H16.8001V7.19964H19.2001C20.0838 7.19964 20.8002 7.91598 20.8002 8.79967Z" fill="#0D4EE3"/>
<path d="M32.0002 16.7995C32.442 16.7995 32.8001 16.4413 32.8001 15.9996V9.35955L36.9089 16.3995C37.0907 16.7114 37.4588 16.8629 37.8074 16.7695C38.1561 16.6759 38.3989 16.3605 38.4001 15.9996V6.39958C38.4001 5.95773 38.042 5.59961 37.6001 5.59961C37.1583 5.59961 36.8002 5.95783 36.8002 6.39958V13.0396L32.6914 5.99955C32.5096 5.68764 32.1415 5.53614 31.7929 5.62961C31.4442 5.72317 31.2014 6.03855 31.2002 6.39948V15.9995C31.2002 16.4414 31.5584 16.7995 32.0002 16.7995Z" fill="#0D4EE3"/>
<path d="M41.5998 13.5996C42.0416 13.5996 42.3997 13.2414 42.3997 12.7996V6.39958C42.3997 5.95773 42.0415 5.59961 41.5998 5.59961C41.1579 5.59961 40.7998 5.95783 40.7998 6.39958V12.7996C40.7998 13.2414 41.158 13.5996 41.5998 13.5996Z" fill="#0D4EE3"/>
<path d="M41.5998 16.7992C42.0416 16.7992 42.3997 16.441 42.3997 15.9992C42.3997 15.5574 42.0416 15.1992 41.5998 15.1992C41.158 15.1992 40.7998 15.5574 40.7998 15.9992C40.7998 16.441 41.158 16.7992 41.5998 16.7992Z" fill="#0D4EE3"/>
<path d="M24.0002 15.1995C23.5583 15.1995 23.2002 15.5577 23.2002 15.9995C23.2002 16.4413 23.5584 16.7995 24.0002 16.7995H28.8002C29.242 16.7995 29.6001 16.4412 29.6001 15.9995C29.6001 15.5576 29.242 15.1995 28.8002 15.1995H27.2001V7.19955H28.8002C29.242 7.19955 29.6001 6.84142 29.6001 6.39958C29.6001 5.95773 29.242 5.59961 28.8002 5.59961H24.0002C23.5583 5.59961 23.2002 5.95783 23.2002 6.39958C23.2002 6.84142 23.5584 7.19955 24.0002 7.19955H25.6002V15.1995H24.0002Z" fill="#0D4EE3"/>
</g>
<defs>
<clipPath id="clip0_387_26175">
<rect width="48" height="48" fill="white"/>
</clipPath>
</defs>
</svg>
