<svg width="64" height="64" viewBox="0 0 64 64" fill="none" xmlns="http://www.w3.org/2000/svg">
<g clip-path="url(#clip0)">
<path d="M42.624 13.1425H9.875C9.64294 13.1425 9.42038 13.2346 9.25628 13.3987C9.09219 13.5628 9 13.7854 9 14.0175V32.642C9 32.874 9.09219 33.0966 9.25628 33.2607C9.42038 33.4248 9.64294 33.517 9.875 33.517H42.625C42.8571 33.517 43.0796 33.4248 43.2437 33.2607C43.4078 33.0966 43.5 32.874 43.5 32.642V14.0175C43.5 13.9025 43.4773 13.7886 43.4333 13.6824C43.3893 13.5762 43.3247 13.4796 43.2434 13.3984C43.162 13.3171 43.0654 13.2527 42.9592 13.2088C42.8529 13.1649 42.739 13.1423 42.624 13.1425ZM30.624 14.8925V31.767H21.874V14.8925H30.624ZM10.7505 14.8925H20.1255V31.767H10.75L10.7505 14.8925ZM41.7505 31.767H32.3735V14.8925H41.75L41.7505 31.767Z" fill="url(#paint0_linear)"/>
<path d="M42.624 36.771H9.875C9.64294 36.771 9.42038 36.8632 9.25628 37.0273C9.09219 37.1914 9 37.4139 9 37.646V42.146C9 42.3781 9.09219 42.6006 9.25628 42.7647C9.42038 42.9288 9.64294 43.021 9.875 43.021H42.625C42.7399 43.021 42.8538 42.9983 42.96 42.9543C43.0662 42.9103 43.1626 42.8458 43.2439 42.7645C43.3252 42.6832 43.3896 42.5867 43.4335 42.4805C43.4775 42.3743 43.5001 42.2604 43.5 42.1455V37.6455C43.4999 37.5305 43.4772 37.4167 43.4332 37.3106C43.3891 37.2044 43.3245 37.108 43.2432 37.0267C43.1618 36.9455 43.0653 36.8811 42.959 36.8373C42.8528 36.7934 42.7389 36.7709 42.624 36.771ZM41.749 41.271H10.749V38.521H41.749V41.271Z" fill="url(#paint1_linear)"/>
<path d="M18.4145 18.8415C18.3345 18.7221 18.2263 18.6243 18.0995 18.5566C17.9727 18.4889 17.8312 18.4535 17.6875 18.4535H13.5C13.2679 18.4535 13.0454 18.5457 12.8813 18.7098C12.7172 18.8739 12.625 19.0964 12.625 19.3285C12.625 19.5606 12.7172 19.7831 12.8813 19.9472C13.0454 20.1113 13.2679 20.2035 13.5 20.2035H16.382L13.5635 27.0585C13.5198 27.1648 13.4975 27.2787 13.4979 27.3936C13.4982 27.5085 13.5212 27.6222 13.5655 27.7283C13.6098 27.8343 13.6745 27.9306 13.756 28.0116C13.8375 28.0926 13.9342 28.1568 14.0405 28.2005C14.1468 28.2442 14.2607 28.2665 14.3756 28.2661C14.4905 28.2658 14.6042 28.2428 14.7103 28.1985C14.8163 28.1542 14.9126 28.0895 14.9936 28.008C15.0747 27.9265 15.1388 27.8298 15.1825 27.7235L18.497 19.661C18.5515 19.5281 18.5725 19.3838 18.5581 19.2409C18.5437 19.098 18.4944 18.9608 18.4145 18.8415Z" fill="url(#paint2_linear)"/>
<path d="M24.1553 20.2035H27.0373L24.2193 27.0585C24.1735 27.1651 24.1494 27.2798 24.1484 27.3958C24.1474 27.5119 24.1695 27.627 24.2134 27.7344C24.2572 27.8418 24.3221 27.9395 24.404 28.0216C24.486 28.1037 24.5835 28.1687 24.6908 28.2128C24.7982 28.257 24.9132 28.2793 25.0293 28.2785C25.1453 28.2777 25.26 28.2538 25.3668 28.2083C25.4735 28.1628 25.5701 28.0964 25.651 28.0132C25.7318 27.93 25.7953 27.8315 25.8378 27.7235L29.1523 19.661C29.2069 19.5281 29.2279 19.3838 29.2135 19.2408C29.1991 19.0978 29.1497 18.9606 29.0697 18.8413C28.9897 18.7219 28.8815 18.6241 28.7547 18.5565C28.6279 18.4888 28.4865 18.4535 28.3428 18.4535H24.1553C23.9232 18.4535 23.7006 18.5457 23.5366 18.7098C23.3725 18.8739 23.2803 19.0964 23.2803 19.3285C23.2803 19.5606 23.3725 19.7831 23.5366 19.9472C23.7006 20.1113 23.9232 20.2035 24.1553 20.2035Z" fill="url(#paint3_linear)"/>
<path d="M34.8113 20.2035H37.6928L34.8748 27.0585C34.829 27.1651 34.8049 27.2798 34.8039 27.3958C34.8029 27.5119 34.825 27.627 34.8689 27.7344C34.9128 27.8418 34.9776 27.9395 35.0595 28.0216C35.1415 28.1037 35.239 28.1687 35.3463 28.2128C35.4537 28.257 35.5687 28.2793 35.6848 28.2785C35.8008 28.2777 35.9155 28.2538 36.0223 28.2083C36.129 28.1628 36.2256 28.0964 36.3065 28.0132C36.3873 27.93 36.4508 27.8315 36.4933 27.7235L39.8078 19.661C39.8623 19.5282 39.8834 19.384 39.869 19.2412C39.8547 19.0983 39.8055 18.9612 39.7256 18.8419C39.6458 18.7226 39.5378 18.6247 39.4112 18.557C39.2846 18.4893 39.1433 18.4537 38.9998 18.4535H34.8113C34.5792 18.4535 34.3567 18.5457 34.1926 18.7098C34.0285 18.8739 33.9363 19.0964 33.9363 19.3285C33.9363 19.5606 34.0285 19.7831 34.1926 19.9472C34.3567 20.1113 34.5792 20.2035 34.8113 20.2035Z" fill="url(#paint4_linear)"/>
<path d="M61.125 13.1425H56.531C55.7688 13.1434 55.0381 13.4466 54.4991 13.9856C53.9601 14.5245 53.6569 15.2553 53.656 16.0175V18.4225C53.6569 19.0844 53.8858 19.7258 54.3041 20.2388C54.7225 20.7518 55.3048 21.105 55.953 21.239V31.126C55.9516 32.0223 55.6462 32.8917 55.0866 33.592C54.5271 34.2922 53.7465 34.7819 52.8725 34.981V30.831C52.8725 30.5989 52.7803 30.3764 52.6162 30.2123C52.4521 30.0482 52.2296 29.956 51.9975 29.956H48.5V11.0175C48.4991 10.2553 48.1959 9.52454 47.6569 8.98558C47.1179 8.44661 46.3872 8.14341 45.625 8.14249H38.52L33.7775 2.77999C33.6953 2.6873 33.5943 2.61309 33.4814 2.56224C33.3684 2.51139 33.2459 2.48506 33.122 2.48499H19.377C19.2531 2.48494 19.1306 2.51121 19.0176 2.56207C18.9046 2.61292 18.8036 2.6872 18.7215 2.77999L13.979 8.14249H6.875C6.11279 8.14341 5.38206 8.44661 4.84309 8.98558C4.30412 9.52454 4.00093 10.2553 4 11.0175V55.391H0.875C0.642936 55.391 0.420376 55.4832 0.256282 55.6473C0.0921872 55.8114 0 56.0339 0 56.266L0 60.64C0 60.8721 0.0921872 61.0946 0.256282 61.2587C0.420376 61.4228 0.642936 61.515 0.875 61.515H51.625C51.8571 61.515 52.0796 61.4228 52.2437 61.2587C52.4078 61.0946 52.5 60.8721 52.5 60.64V56.266C52.5 56.0339 52.4078 55.8114 52.2437 55.6473C52.0796 55.4832 51.8571 55.391 51.625 55.391H48.5V45.958H52C52.2321 45.958 52.4546 45.8658 52.6187 45.7017C52.7828 45.5376 52.875 45.3151 52.875 45.083V40.7875C55.2861 40.5671 57.5281 39.4542 59.1615 37.6671C60.795 35.8799 61.7022 33.5472 61.7055 31.126V21.239C62.3533 21.1045 62.935 20.7511 63.3528 20.2381C63.7707 19.7252 63.9992 19.0841 64 18.4225V16.0175C63.9991 15.2553 63.6959 14.5245 63.1569 13.9856C62.6179 13.4466 61.8872 13.1434 61.125 13.1425ZM19.771 4.23499H32.7275L36.184 8.14249H16.315L19.771 4.23499ZM50.75 59.765H1.75V57.141H50.75V59.765ZM5.75 55.391V11.0175C5.7504 10.7192 5.86905 10.4333 6.07994 10.2224C6.29084 10.0115 6.57675 9.89288 6.875 9.89249H45.625C45.9232 9.89288 46.2092 10.0115 46.4201 10.2224C46.6309 10.4333 46.7496 10.7192 46.75 11.0175V55.391H5.75ZM51.1225 44.208H48.5V31.708H51.1235V44.208H51.1225ZM59.953 31.126C59.9507 33.0838 59.2275 34.9723 57.9215 36.4309C56.6155 37.8895 54.8182 38.8161 52.8725 39.034V36.765C54.2172 36.5542 55.4426 35.8705 56.3282 34.8367C57.2137 33.803 57.7012 32.4871 57.703 31.126V21.3H59.953V31.126ZM62.25 18.4225C62.2496 18.7207 62.1309 19.0067 61.9201 19.2175C61.7092 19.4284 61.4232 19.5471 61.125 19.5475H56.531C56.2327 19.5471 55.9468 19.4284 55.7359 19.2175C55.5251 19.0067 55.4064 18.7207 55.406 18.4225V16.0175C55.4064 15.7192 55.5251 15.4333 55.7359 15.2224C55.9468 15.0115 56.2327 14.8929 56.531 14.8925H61.125C61.4232 14.8929 61.7092 15.0115 61.9201 15.2224C62.1309 15.4333 62.2496 15.7192 62.25 16.0175V18.4225Z" fill="url(#paint5_linear)"/>
</g>
<defs>
<linearGradient id="paint0_linear" x1="9" y1="23.3297" x2="43.5" y2="23.3297" gradientUnits="userSpaceOnUse">
<stop stop-color="#4E2267"/>
<stop offset="1" stop-color="#9441C4"/>
</linearGradient>
<linearGradient id="paint1_linear" x1="9" y1="39.896" x2="43.5" y2="39.896" gradientUnits="userSpaceOnUse">
<stop stop-color="#4E2267"/>
<stop offset="1" stop-color="#9441C4"/>
</linearGradient>
<linearGradient id="paint2_linear" x1="12.625" y1="23.3598" x2="18.5625" y2="23.3598" gradientUnits="userSpaceOnUse">
<stop stop-color="#4E2267"/>
<stop offset="1" stop-color="#9441C4"/>
</linearGradient>
<linearGradient id="paint3_linear" x1="23.2803" y1="23.366" x2="29.2179" y2="23.366" gradientUnits="userSpaceOnUse">
<stop stop-color="#4E2267"/>
<stop offset="1" stop-color="#9441C4"/>
</linearGradient>
<linearGradient id="paint4_linear" x1="33.9363" y1="23.366" x2="39.8734" y2="23.366" gradientUnits="userSpaceOnUse">
<stop stop-color="#4E2267"/>
<stop offset="1" stop-color="#9441C4"/>
</linearGradient>
<linearGradient id="paint5_linear" x1="2.38419e-07" y1="32" x2="64" y2="32" gradientUnits="userSpaceOnUse">
<stop stop-color="#4E2267"/>
<stop offset="1" stop-color="#9441C4"/>
</linearGradient>
<clipPath id="clip0">
<rect width="64" height="64" fill="white"/>
</clipPath>
</defs>
</svg>
