<svg width="19" height="19" viewBox="0 0 19 19" fill="none" xmlns="http://www.w3.org/2000/svg">
<path fill-rule="evenodd" clip-rule="evenodd" d="M5.51402 5.95385C5.81565 6.23774 5.83004 6.7124 5.54615 7.01403L3.02994 9.6875L5.54615 12.361C5.83004 12.6626 5.81565 13.1373 5.51402 13.4212C5.21239 13.705 4.73774 13.6907 4.45385 13.389L1.45385 10.2015C1.18205 9.91274 1.18205 9.46227 1.45385 9.17348L4.45385 5.98598C4.73774 5.68435 5.21239 5.66996 5.51402 5.95385ZM13.486 5.95385C13.1844 6.23774 13.17 6.7124 13.4539 7.01403L15.9701 9.6875L13.4539 12.361C13.17 12.6626 13.1844 13.1373 13.486 13.4212C13.7876 13.705 14.2623 13.6907 14.5462 13.389L17.5462 10.2015C17.818 9.91274 17.818 9.46227 17.5462 9.17348L14.5462 5.98598C14.2623 5.68435 13.7876 5.66997 13.486 5.95385Z" fill="#3800D8"/>
<rect opacity="0.3" x="10.3281" y="3.51025" width="1.5" height="12" rx="0.75" transform="rotate(15 10.3281 3.51025)" fill="#3800D8"/>
</svg>
