<svg width="46" height="59" viewBox="0 0 46 59" fill="none" xmlns="http://www.w3.org/2000/svg">
<g clip-path="url(#clip0)">
<path d="M26.4368 19.5625C17.8008 19.5625 10.8097 26.5536 10.751 35.2483C10.751 35.4833 10.751 35.7183 10.8097 35.9533C10.8097 36.0708 10.8097 36.1295 10.751 36.247C10.751 36.482 10.8097 36.717 10.8685 36.952C11.7497 44.8831 18.447 50.9341 26.4368 50.9341C34.4266 50.9341 41.1239 44.8831 42.0051 36.952C42.0639 36.717 42.1226 36.482 42.1226 36.247C42.1226 36.1295 42.1226 36.0708 42.0639 35.9533C42.0639 35.7183 42.1226 35.4833 42.1226 35.2483C42.1226 26.6123 35.1316 19.6212 26.4368 19.5625ZM40.0077 33.1334C37.5402 31.7822 34.8966 31.0184 32.1354 30.7247C31.9591 27.6698 31.1367 24.6736 29.7267 21.9712C35.0728 23.2637 39.1264 27.6698 40.0077 33.1334ZM30.3729 35.2483C30.3729 36.8345 30.2554 38.4207 30.0792 40.0069C28.963 40.1244 27.7293 40.1832 26.4368 40.1832C25.1443 40.1832 23.9106 40.1244 22.7944 40.0069C22.6182 38.4207 22.5007 36.8345 22.5007 35.2483C22.5007 34.3083 22.5594 33.3684 22.6182 32.4871C23.7931 32.3696 25.0856 32.3109 26.4368 32.3109C27.788 32.3109 29.0805 32.3696 30.2554 32.4871C30.3142 33.3684 30.3729 34.3083 30.3729 35.2483ZM26.4368 21.5599C27.7293 21.5599 29.433 24.9674 30.0792 30.5485C28.9042 30.431 27.6705 30.3722 26.4368 30.3722C25.2031 30.3722 23.9694 30.431 22.7944 30.5485C23.4406 24.9086 25.2031 21.5599 26.4368 21.5599ZM23.2056 21.9712C21.7957 24.7324 21.0319 27.6698 20.797 30.7247C18.0358 30.9597 15.3334 31.7822 12.9247 33.1334C13.8059 27.6698 17.8595 23.2637 23.2056 21.9712ZM12.8072 36.5408C12.8072 36.3645 12.8072 36.1883 12.8072 36.0121C13.1009 34.8371 15.9796 33.3684 20.6795 32.7221C20.6207 33.5446 20.6207 34.4258 20.6207 35.2483C20.6207 36.7758 20.6795 38.2445 20.8557 39.7719C16.2146 39.067 13.2772 37.7158 12.8072 36.5408ZM13.5122 39.6545C15.9208 40.7707 18.447 41.5344 21.0907 41.7694C21.3844 44.1193 22.0894 46.4105 23.2056 48.5255C18.682 47.4092 14.9809 44.0606 13.5122 39.6545ZM26.4368 48.9367C25.3206 48.9367 23.8519 46.3518 23.0881 41.9456C24.2044 42.0044 25.3206 42.0631 26.4368 42.0631C27.553 42.0631 28.6692 42.0044 29.7855 41.9456C29.0217 46.3518 27.553 48.9367 26.4368 48.9367ZM29.7267 48.5255C30.8429 46.4105 31.5479 44.1193 31.8417 41.7694C34.4853 41.5344 37.0703 40.8294 39.4202 39.6545C37.8927 44.0606 34.2503 47.4092 29.7267 48.5255ZM40.1252 36.5408C39.6552 37.7158 36.7178 39.1257 32.1354 39.7719C32.3116 38.2445 32.3704 36.7758 32.3704 35.2483C32.3704 34.4258 32.3704 33.5446 32.3116 32.7221C37.0115 33.4271 39.8902 34.8958 40.1839 36.0121C40.1252 36.1883 40.1252 36.3645 40.1252 36.5408Z" fill="#425BFF"/>
<path d="M41.1239 0H8.81226C3.93614 0 0 3.93614 0 8.81226V49.9361C0 54.2248 3.11367 57.9259 7.4023 58.6309C7.5198 58.6897 7.69604 58.7484 7.87229 58.7484C7.93103 58.7484 7.98978 58.7484 8.04853 58.6897C8.28353 58.6897 8.57727 58.7484 8.81226 58.7484H41.1239C43.8263 58.7484 46 56.5747 46 53.8723V4.87612C46.0588 2.17369 43.8263 0 41.1239 0ZM6.87356 56.516C3.99489 55.6347 1.99745 52.9911 1.99745 49.9361V14.3346C3.23116 15.8621 4.99361 16.9195 6.87356 17.3895V56.516ZM44.0613 53.8723C44.0613 55.5172 42.7688 56.8097 41.1239 56.8097H8.81226V17.6245H41.1239C42.7688 17.6245 44.0613 18.917 44.0613 20.5619V53.8723ZM44.0613 16.6845C43.2388 16.0383 42.1814 15.6858 41.1239 15.6858H8.81226C5.22861 15.6858 2.23244 12.8659 1.99745 9.28225V8.81226C1.99745 5.05236 5.05236 1.9387 8.87101 1.9387H41.1826C42.8276 1.9387 44.1201 3.23116 44.1201 4.87612L44.0613 16.6845Z" fill="#425BFF"/>
<path d="M41.1238 3.9375H7.87226C7.34352 3.9375 6.87354 4.34874 6.87354 4.93622C6.87354 5.52371 7.28477 5.93495 7.87226 5.93495H41.1826C41.7113 5.93495 42.1813 5.52371 42.1813 4.93622C42.1813 4.34874 41.7113 3.9375 41.1238 3.9375Z" fill="#425BFF"/>
<path d="M41.124 7.8125H4.935C4.40627 7.8125 3.93628 8.22374 3.93628 8.81122C3.93628 9.39871 4.34752 9.80995 4.935 9.80995H41.1828C41.7115 9.80995 42.1815 9.39871 42.1815 8.81122C42.1815 8.22374 41.7115 7.8125 41.124 7.8125Z" fill="#425BFF"/>
<path d="M41.1238 11.75H7.87226C7.34352 11.75 6.87354 12.1612 6.87354 12.7487C6.87354 13.3362 7.28477 13.7474 7.87226 13.7474H41.1826C41.7113 13.7474 42.1813 13.3362 42.1813 12.7487C42.1813 12.1612 41.7113 11.75 41.1238 11.75Z" fill="#425BFF"/>
<path d="M26.4368 52.873H19.622C19.0933 52.873 18.6233 53.2843 18.6233 53.8718C18.6233 54.4005 19.0345 54.8705 19.622 54.8705H26.4956C27.0243 54.8705 27.4943 54.4593 27.4943 53.8718C27.4355 53.2843 27.0243 52.873 26.4368 52.873Z" fill="#425BFF"/>
<path d="M31.3717 52.873H30.373C29.8443 52.873 29.3743 53.2843 29.3743 53.8718C29.3743 54.4005 29.7855 54.8705 30.373 54.8705H31.3717C31.9005 54.8705 32.3704 54.4593 32.3704 53.8718C32.3117 53.2843 31.9005 52.873 31.3717 52.873Z" fill="#425BFF"/>
</g>
<defs>
<clipPath id="clip0">
<rect width="46" height="58.7484" fill="white"/>
</clipPath>
</defs>
</svg>
