<svg width="18" height="19" viewBox="0 0 18 19" fill="none" xmlns="http://www.w3.org/2000/svg">
<path opacity="0.3" d="M13.9669 7.8125H14.0625C14.9945 7.8125 15.75 8.56802 15.75 9.5C15.75 10.432 14.9945 11.1875 14.0625 11.1875L14.0141 11.1875C13.8684 11.1881 13.7369 11.2751 13.6795 11.4091C13.6168 11.5514 13.6457 11.7111 13.7459 11.8135L13.7794 11.847C14.0963 12.1636 14.2743 12.5931 14.2743 13.0409C14.2743 13.4888 14.0963 13.9183 13.7798 14.2344C13.4633 14.5513 13.0338 14.7293 12.5859 14.7293C12.1381 14.7293 11.7086 14.5513 11.3923 14.2346L11.3629 14.2052C11.2561 14.1007 11.0964 14.0718 10.9541 14.1345C10.8201 14.1919 10.7331 14.3234 10.7325 14.4669V14.5625C10.7325 15.4945 9.97698 16.25 9.045 16.25C8.11302 16.25 7.3575 15.4945 7.3575 14.5625C7.35414 14.3749 7.25924 14.2422 7.08538 14.1771C6.94864 14.1168 6.78893 14.1457 6.6865 14.2459L6.65297 14.2794C6.33645 14.5963 5.90694 14.7743 5.45906 14.7743C5.01118 14.7743 4.58168 14.5963 4.2656 14.2798C3.94872 13.9633 3.77068 13.5338 3.77068 13.0859C3.77068 12.6381 3.94873 12.2086 4.26538 11.8923L4.29476 11.8629C4.39928 11.7561 4.42824 11.5964 4.36548 11.4541C4.30808 11.3201 4.17661 11.2331 4.03313 11.2325H3.9375C3.00552 11.2325 2.25 10.477 2.25 9.545C2.25 8.61302 3.00552 7.8575 3.9375 7.8575C4.12506 7.85414 4.25775 7.75924 4.32289 7.58538C4.38324 7.44864 4.35428 7.28893 4.25413 7.1865L4.2206 7.15297C3.90373 6.83645 3.72568 6.40694 3.72568 5.95906C3.72568 5.51118 3.90372 5.08168 4.22016 4.7656C4.53668 4.44872 4.96618 4.27068 5.41406 4.27068C5.86194 4.27068 6.29145 4.44873 6.60775 4.76538L6.63709 4.79476C6.74393 4.89928 6.90364 4.92824 7.04038 4.86789L7.12114 4.85086C7.23781 4.78767 7.31197 4.66551 7.3125 4.53313V4.4375C7.3125 3.50552 8.06802 2.75 9 2.75C9.93198 2.75 10.6875 3.50552 10.6875 4.4375L10.6875 4.48588C10.6881 4.63161 10.7751 4.76308 10.9146 4.82289C11.0514 4.88324 11.2111 4.85428 11.3135 4.75413L11.347 4.7206C11.6636 4.40373 12.0931 4.22568 12.5409 4.22568C12.9888 4.22568 13.4183 4.40372 13.7344 4.72016C14.0513 5.03668 14.2293 5.46618 14.2293 5.91406C14.2293 6.36194 14.0513 6.79145 13.7346 7.10775L13.7052 7.13709C13.6007 7.24393 13.5718 7.40364 13.6321 7.54038L13.6491 7.62114C13.7123 7.73781 13.8345 7.81197 13.9669 7.8125Z" fill="#3800D8"/>
<path fill-rule="evenodd" clip-rule="evenodd" d="M9 11.75C10.2426 11.75 11.25 10.7426 11.25 9.5C11.25 8.25736 10.2426 7.25 9 7.25C7.75736 7.25 6.75 8.25736 6.75 9.5C6.75 10.7426 7.75736 11.75 9 11.75Z" fill="#3800D8"/>
</svg>
