<svg width="45" height="24" viewBox="0 0 45 24" fill="none" xmlns="http://www.w3.org/2000/svg">
<path fill-rule="evenodd" clip-rule="evenodd" d="M21.6572 7.34179V10.9711H23.8954C24.4288 10.9711 24.8696 10.7916 25.2181 10.4333C25.5763 10.076 25.7559 9.64934 25.7559 9.15601C25.7559 8.67245 25.5763 8.25112 25.2181 7.89201C24.8696 7.5249 24.4288 7.3409 23.8954 7.3409H21.6572V7.34179ZM21.6572 12.2485V16.4582H20.3203V6.06445H23.867C24.7674 6.06445 25.5319 6.36401 26.1621 6.96401C26.8021 7.56401 27.1221 8.29468 27.1221 9.15601C27.1221 10.0369 26.8021 10.7729 26.1621 11.3622C25.5425 11.9533 24.7763 12.2476 23.8661 12.2476H21.6572V12.2485ZM28.4732 14.2813C28.4732 14.6298 28.6208 14.9196 28.9168 15.1525C29.2119 15.3836 29.5585 15.5 29.955 15.5C30.5176 15.5 31.0181 15.292 31.459 14.8769C31.9008 14.46 32.1203 13.9711 32.1203 13.4102C31.7034 13.0813 31.1221 12.9169 30.3763 12.9169C29.8341 12.9169 29.3808 13.0485 29.0181 13.3098C28.6545 13.5711 28.4732 13.8938 28.4732 14.2813ZM30.203 9.11245C31.1914 9.11245 31.971 9.37645 32.5434 9.90356C33.1141 10.4316 33.4003 11.1551 33.4003 12.0742V16.4582H32.1212V15.4716H32.0634C31.5105 16.284 30.7745 16.6911 29.8536 16.6911C29.0696 16.6911 28.4128 16.4582 27.8848 15.9942C27.3568 15.5293 27.0928 14.9489 27.0928 14.252C27.0928 13.516 27.371 12.9311 27.9283 12.4956C28.4856 12.06 29.2288 11.8422 30.1594 11.8422C30.9523 11.8422 31.6074 11.9871 32.1203 12.2778V11.972C32.1203 11.508 31.9363 11.1133 31.5683 10.7898C31.2138 10.4707 30.7519 10.2971 30.275 10.3036C29.5283 10.3036 28.9381 10.6173 28.5016 11.2476L27.3248 10.5062C27.9736 9.57734 28.9336 9.11245 30.203 9.11245ZM40.739 9.34534L36.2768 19.5942H34.8963L36.5532 16.0085L33.6181 9.34534H35.0714L37.1932 14.4556H37.2216L39.2856 9.34445L40.739 9.34534Z" fill="#5F6368"/>
<path fill-rule="evenodd" clip-rule="evenodd" d="M16.2539 11.3412C16.2539 10.9207 16.2184 10.5145 16.1508 10.127H10.5117V12.4274H13.7419C13.6757 12.795 13.5358 13.1453 13.3304 13.4573C13.1251 13.7692 12.8587 14.0363 12.5473 14.2425V15.7358H14.4753C15.6042 14.6958 16.2539 13.1581 16.2539 11.3412Z" fill="#4285F4"/>
<path fill-rule="evenodd" clip-rule="evenodd" d="M10.5141 17.177C12.1283 17.177 13.4865 16.6481 14.4777 15.7361L12.5497 14.2419C12.0137 14.6028 11.323 14.8134 10.5141 14.8134C8.95499 14.8134 7.63054 13.7628 7.15765 12.3477H5.17188V13.8863C5.67003 14.876 6.43333 15.7078 7.37662 16.289C8.31992 16.8702 9.40613 17.1779 10.5141 17.1779" fill="#34A853"/>
<path fill-rule="evenodd" clip-rule="evenodd" d="M7.15436 12.3483C6.90491 11.6067 6.90491 10.8038 7.15436 10.0621V8.52344H5.16859C4.74879 9.3547 4.53046 10.2731 4.53125 11.2043C4.53125 12.1688 4.76236 13.0799 5.16859 13.8861L7.15436 12.3474V12.3483Z" fill="#FABB05"/>
<path fill-rule="evenodd" clip-rule="evenodd" d="M10.5132 7.59598C11.395 7.59598 12.1843 7.8982 12.8065 8.49198V8.49287L14.5132 6.78798C13.4785 5.82442 12.1274 5.23242 10.5141 5.23242C9.40622 5.23227 8.32008 5.53987 7.37679 6.12091C6.4335 6.70195 5.67016 7.53359 5.17188 8.52309L7.15765 10.0618C7.63054 8.64664 8.95499 7.59598 10.5141 7.59598" fill="#E94235"/>
</svg>
