<svg width="24" height="25" viewBox="0 0 24 25" fill="none" xmlns="http://www.w3.org/2000/svg">
<path opacity="0.4" d="M22 8.31V14.4L20.37 13C19.59 12.33 18.33 12.33 17.55 13L13.39 16.57C12.61 17.24 11.35 17.24 10.57 16.57L10.23 16.29C9.52 15.67 8.39 15.61 7.59 16.15L2.67 19.45L2.56 19.53C2.19 18.73 2 17.78 2 16.69V8.31C2 4.67 4.17 2.5 7.81 2.5H16.19C19.83 2.5 22 4.67 22 8.31Z" fill="#183B56"/>
<path d="M9.00012 10.8801C10.3146 10.8801 11.3801 9.81456 11.3801 8.50012C11.3801 7.18568 10.3146 6.12012 9.00012 6.12012C7.68568 6.12012 6.62012 7.18568 6.62012 8.50012C6.62012 9.81456 7.68568 10.8801 9.00012 10.8801Z" fill="#183B56"/>
<path d="M21.9996 14.4001V16.6901C21.9996 20.3301 19.8296 22.5001 16.1896 22.5001H7.80957C5.25957 22.5001 3.41957 21.4301 2.55957 19.5301L2.66957 19.4501L7.58957 16.1501C8.38957 15.6101 9.51957 15.6701 10.2296 16.2901L10.5696 16.5701C11.3496 17.2401 12.6096 17.2401 13.3896 16.5701L17.5496 13.0001C18.3296 12.3301 19.5896 12.3301 20.3696 13.0001L21.9996 14.4001Z" fill="#183B56"/>
</svg>
