<svg width="23" height="30" viewBox="0 0 23 30" fill="none" xmlns="http://www.w3.org/2000/svg">
<g clip-path="url(#clip0)">
<path d="M15.9 1.9H13.9C13.5 0.8 12.5 0 11.2 0C9.89998 0 8.99998 0.8 8.59998 1.9H6.59998C5.99998 1.9 5.59998 2.3 5.59998 2.8V6.6C5.59998 7.1 5.99998 7.5 6.49998 7.5H15.9C16.4 7.5 16.8 7.1 16.8 6.6V2.8C16.9 2.3 16.5 1.9 15.9 1.9Z" fill="#FF3333"/>
<path d="M20.6 3.80005H18.7V6.60005C18.7 8.20005 17.4 9.40005 15.9 9.40005H6.6C5 9.40005 3.8 8.10005 3.8 6.60005V3.80005H1.9C0.8 3.80005 0 4.60005 0 5.60005V28.1C0 29.2001 0.8 30 1.9 30H20.7C21.8 30 22.6 29.2001 22.6 28.1V5.60005C22.5 4.60005 21.7 3.80005 20.6 3.80005ZM11 20.4L7.3 24.2001C7.1 24.4001 6.9 24.5 6.6 24.5C6.3 24.5 6.1 24.4001 5.9 24.2001L4 22.2001C3.6 21.8001 3.6 21.2 4 20.9C4.4 20.5 5 20.5 5.3 20.9L6.5 22.1L9.6 19C10 18.6 10.6 18.6 10.9 19C11.3 19.4 11.3 20 11 20.4ZM11 12.9L7.3 16.7C7.1 16.9 6.9 17 6.6 17C6.3 17 6.1 16.9 5.9 16.7L4 14.7C3.6 14.3 3.6 13.7 4 13.4C4.4 13 5 13 5.3 13.4L6.5 14.6L9.6 11.5C10 11.1 10.6 11.1 10.9 11.5C11.3 11.9 11.3 12.5 11 12.9ZM17.8 22.5H14C13.5 22.5 13.1 22.1 13.1 21.6C13.1 21.1 13.5 20.7001 14 20.7001H17.8C18.3 20.7001 18.7 21.1 18.7 21.6C18.7 22.1 18.3 22.5 17.8 22.5ZM17.8 15H14C13.5 15 13.1 14.6 13.1 14.1C13.1 13.6 13.5 13.2 14 13.2H17.8C18.3 13.2 18.7 13.6 18.7 14.1C18.7 14.6 18.3 15 17.8 15Z" fill="#0A4586"/>
</g>
<defs>
<clipPath id="clip0">
<rect width="22.5" height="30" fill="white"/>
</clipPath>
</defs>
</svg>
