<svg width="24" height="24" viewBox="0 0 24 24" fill="none" xmlns="http://www.w3.org/2000/svg">
<g clip-path="url(#clip0_387_37041)">
<path d="M23.9991 22.5879L17.7493 16.3381C21.244 12.064 20.6121 5.76624 16.3381 2.27157C12.064 -1.2231 5.76624 -0.591276 2.27157 3.68283C-1.2231 7.95694 -0.591271 14.2547 3.68279 17.7494C7.36425 20.7595 12.6566 20.7595 16.338 17.7494L22.5879 23.9991L23.9991 22.5879ZM10.0264 18.0108C5.61675 18.0108 2.04202 14.4361 2.04202 10.0264C2.04202 5.61676 5.61675 2.04202 10.0264 2.04202C14.4361 2.04202 18.0108 5.61676 18.0108 10.0264C18.0058 14.434 14.434 18.0059 10.0264 18.0108ZM11.9976 6.03422C11.2709 6.02536 10.5663 6.28355 10.0174 6.7598C9.45679 6.2821 8.74181 6.02429 8.00536 6.03422C6.29817 6.09282 4.95966 7.52058 5.01122 9.22801C5.01122 11.9647 8.97248 14.846 9.42459 15.1654L10.0015 15.5736L10.5773 15.1654C11.0294 14.846 14.9917 11.9646 14.9917 9.22801C15.0427 7.52077 13.7045 6.09333 11.9976 6.03422ZM10.0015 13.1014C8.60423 11.9916 7.00734 10.2999 7.00734 9.22801C6.95752 8.62336 7.40166 8.0904 8.00541 8.03035C8.53448 7.99515 8.99194 8.39555 9.02714 8.92463C9.02944 8.95918 9.02986 8.99382 9.0284 9.02836H11.0245C10.9776 8.52507 11.3475 8.0791 11.8508 8.03218C11.8996 8.02763 11.9487 8.02702 11.9976 8.0303C12.601 8.09087 13.0449 8.62346 12.9956 9.22796C12.9956 10.2999 11.3947 11.9916 10.0015 13.1014Z" fill="#000C28"/>
</g>
<defs>
<clipPath id="clip0_387_37041">
<rect width="24" height="24" fill="white"/>
</clipPath>
</defs>
</svg>
