<svg width="19" height="22" viewBox="0 0 19 22" fill="none" xmlns="http://www.w3.org/2000/svg">
<path fill-rule="evenodd" clip-rule="evenodd" d="M9.02344 10.8284C11.7374 10.8284 13.9453 8.62042 13.9453 5.90649C13.9453 3.19257 11.7374 0.984619 9.02344 0.984619C6.30952 0.984619 4.10156 3.19257 4.10156 5.90649C4.10156 8.62042 6.30952 10.8284 9.02344 10.8284ZM9.02344 2.62524C10.8327 2.62524 12.3047 4.09721 12.3047 5.90649C12.3047 7.71578 10.8327 9.18774 9.02344 9.18774C7.21416 9.18774 5.74219 7.71578 5.74219 5.90649C5.74219 4.09721 7.21416 2.62524 9.02344 2.62524ZM9.02344 15.4221C8.57038 15.4221 8.20312 15.0549 8.20312 14.6018V12.9612C8.20312 12.5081 8.57038 12.1409 9.02344 12.1409C9.4765 12.1409 9.84375 12.5081 9.84375 12.9612V14.6018C9.84375 15.0549 9.4765 15.4221 9.02344 15.4221ZM11.8555 11.3167C12.0871 11.1651 12.3796 11.1407 12.6331 11.2514C15.9218 12.6883 18.0469 15.9354 18.0469 19.5237C18.0469 20.8806 16.9429 21.9846 15.5859 21.9846H2.46094C1.10398 21.9846 0 20.8806 0 19.5237C0 15.9354 2.12506 12.6883 5.41373 11.2514L5.4162 11.2505C5.948 11.0199 6.56082 11.4046 6.56238 12.0006L6.5625 12.0031V14.6018C6.5625 14.8438 6.66869 15.0723 6.85388 15.2289L9.02344 17.0627L9.02405 17.0628L11.193 15.2289C11.3782 15.0723 11.4844 14.8438 11.4844 14.6018V12.0031C11.4844 11.7264 11.624 11.4683 11.8555 11.3167ZM4.92188 13.3833C2.89513 14.7379 1.64062 17.03 1.64062 19.5237C1.64062 19.976 2.00862 20.344 2.46094 20.344H8.20308V18.4834C8.11921 18.435 8.03931 18.3791 7.96458 18.3159L5.79473 16.4818C5.24003 16.013 4.92188 15.3277 4.92188 14.6018V13.3833ZM9.84375 20.344H15.5859C16.0383 20.344 16.4062 19.976 16.4062 19.5237C16.4062 17.0299 15.1519 14.7375 13.125 13.383V14.6018C13.125 15.3278 12.8068 16.0131 12.252 16.4819L10.0823 18.316C10.0075 18.3791 9.92763 18.435 9.84375 18.4834V20.344Z" fill="#CC0000"/>
</svg>
