<svg width="19" height="18" viewBox="0 0 19 18" fill="none" xmlns="http://www.w3.org/2000/svg">
<g clip-path="url(#clip0_387_37122)">
<path d="M14.916 6V5.301C14.915 4.29322 14.5142 3.32699 13.8016 2.61438C13.089 1.90177 12.1228 1.50099 11.115 1.5H10.416V0H8.91602V1.5H8.21702C7.315 1.50096 6.44273 1.82268 5.75611 2.40763C5.06949 2.99259 4.61327 3.80267 4.46901 4.69307C4.32474 5.58347 4.50182 6.49615 4.96861 7.26799C5.4354 8.03983 6.16146 8.62052 7.01702 8.90625L8.91602 9.54V15H8.21702C7.60694 14.9994 7.02201 14.7568 6.59062 14.3254C6.15923 13.894 5.91661 13.3091 5.91602 12.699V12H4.41602V12.699C4.41701 13.7068 4.81779 14.673 5.5304 15.3856C6.24301 16.0982 7.20923 16.499 8.21702 16.5H8.91602V18H10.416V16.5H11.115C12.017 16.499 12.8893 16.1773 13.5759 15.5924C14.2625 15.0074 14.7188 14.1973 14.863 13.3069C15.0073 12.4165 14.8302 11.5038 14.3634 10.732C13.8966 9.96017 13.1706 9.37948 12.315 9.09375L10.416 8.46V3H11.115C11.7251 3.0006 12.31 3.24321 12.7414 3.67461C13.1728 4.106 13.4154 4.69092 13.416 5.301V6H14.916ZM11.841 10.5157C12.3595 10.6883 12.7996 11.0397 13.0826 11.5071C13.3656 11.9745 13.4731 12.5274 13.3858 13.0667C13.2985 13.6061 13.022 14.0968 12.606 14.451C12.1899 14.8053 11.6614 14.9998 11.115 15H10.416V10.0403L11.841 10.5157ZM8.91602 7.95975L7.49102 7.48425C6.97257 7.3117 6.53245 6.96028 6.24942 6.49289C5.96638 6.0255 5.85892 5.47264 5.94624 4.93326C6.03357 4.39387 6.30999 3.90317 6.72604 3.54896C7.14209 3.19475 7.67061 3.00015 8.21702 3H8.91602V7.95975Z" fill="#000C28"/>
</g>
<defs>
<clipPath id="clip0_387_37122">
<rect width="18" height="18" fill="white" transform="translate(0.666016)"/>
</clipPath>
</defs>
</svg>
