<svg width="60" height="60" viewBox="0 0 60 60" fill="none" xmlns="http://www.w3.org/2000/svg">
<path d="M51.3492 47.6C50.9742 47.975 50.4992 48.15 50.0242 48.15C49.5492 48.15 49.0742 47.975 48.6992 47.6L36.3242 35.225L37.6492 33.9L38.9742 32.575L51.3492 44.95C52.0742 45.675 52.0742 46.875 51.3492 47.6Z" fill="#000066"/>
<path opacity="0.4" d="M16.1734 23.2L30.6734 37.7C31.6484 38.675 31.6484 40.25 30.6734 41.225L28.4234 43.5C26.3984 45.5 23.1984 45.5 21.1984 43.5L10.3484 32.65C8.37344 30.675 8.37344 27.45 10.3484 25.45L12.6234 23.175C13.5984 22.225 15.1984 22.225 16.1734 23.2Z" fill="#000066"/>
<path d="M46.4758 25.475L36.9508 34.975C35.9508 35.975 34.3508 35.975 33.3508 34.975L18.9258 20.55C17.9258 19.55 17.9258 17.95 18.9258 16.95L28.4508 7.42498C30.4258 5.44998 33.6507 5.44998 35.6507 7.42498L46.5008 18.275C48.4508 20.25 48.4508 23.45 46.4758 25.475Z" fill="#000066"/>
<path d="M20 54.375H5C3.975 54.375 3.125 53.525 3.125 52.5C3.125 51.475 3.975 50.625 5 50.625H20C21.025 50.625 21.875 51.475 21.875 52.5C21.875 53.525 21.025 54.375 20 54.375Z" fill="#000066"/>
</svg>
