<svg width="54" height="54" viewBox="0 0 54 54" fill="none" xmlns="http://www.w3.org/2000/svg">
<rect width="54" height="54" rx="27" fill="#0D4EE3"/>
<g clip-path="url(#clip0_387_23933)">
<path fill-rule="evenodd" clip-rule="evenodd" d="M40.3328 15.2656H13.6662C13.3716 15.2656 13.1328 15.5044 13.1328 15.799C13.1328 16.0935 13.3716 16.3323 13.6662 16.3323H40.3328C40.6274 16.3323 40.8662 16.0935 40.8662 15.799C40.8662 15.5044 40.6274 15.2656 40.3328 15.2656Z" fill="white"/>
<path d="M14.1994 14.1995C14.4939 14.1995 14.7327 13.9607 14.7327 13.6662C14.7327 13.3716 14.4939 13.1328 14.1994 13.1328C13.9048 13.1328 13.666 13.3716 13.666 13.6662C13.666 13.9607 13.9048 14.1995 14.1994 14.1995Z" fill="white"/>
<path d="M16.3322 14.1995C16.6267 14.1995 16.8655 13.9607 16.8655 13.6662C16.8655 13.3716 16.6267 13.1328 16.3322 13.1328C16.0376 13.1328 15.7988 13.3716 15.7988 13.6662C15.7988 13.9607 16.0376 14.1995 16.3322 14.1995Z" fill="white"/>
<path d="M18.4669 14.1995C18.7615 14.1995 19.0003 13.9607 19.0003 13.6662C19.0003 13.3716 18.7615 13.1328 18.4669 13.1328C18.1724 13.1328 17.9336 13.3716 17.9336 13.6662C17.9336 13.9607 18.1724 14.1995 18.4669 14.1995Z" fill="white"/>
<path d="M40.3333 11H13.6667C12.1946 11.0017 11.0017 12.1946 11 13.6667V40.3333C11.0017 41.8054 12.1946 42.9983 13.6667 43H40.3333C41.8054 42.9982 42.9983 41.8054 43 40.3333V13.6667C42.9983 12.1946 41.8054 11.0017 40.3333 11ZM41.9334 40.3333C41.9334 41.217 41.217 41.9333 40.3334 41.9333H13.6667C12.783 41.9333 12.0667 41.217 12.0667 40.3333V13.6667C12.0667 12.783 12.783 12.0667 13.6667 12.0667H40.3333C41.217 12.0667 41.9333 12.783 41.9333 13.6667V40.3333H41.9334Z" fill="white"/>
<path d="M23.2658 30.7327C23.5603 30.7327 23.7991 30.4939 23.7991 30.1994C23.7991 29.9048 23.5603 29.666 23.2658 29.666C22.9712 29.666 22.7324 29.9048 22.7324 30.1994C22.7324 30.4939 22.9712 30.7327 23.2658 30.7327Z" fill="white"/>
<path d="M37.2113 34.4927L39.0556 33.3892C39.326 33.2233 39.4751 32.9151 39.4373 32.6C39.3994 32.2849 39.1816 32.0208 38.8795 31.9236L33.3995 30.1695C33.3951 28.8614 33.136 27.5668 32.6369 26.3577C32.6326 26.346 32.6369 26.3337 32.6299 26.322C32.623 26.3102 32.6118 26.2985 32.6048 26.2846C31.5727 23.8236 29.6127 21.8683 27.1494 20.842L27.1441 20.8377H27.1334C26.5351 20.5918 25.9144 20.4045 25.28 20.2783L25.8134 19.3497C25.9776 19.0667 25.9766 18.7171 25.8107 18.435C25.6221 18.1195 25.2796 17.9284 24.912 17.9337H21.6203C21.254 17.9291 20.9128 18.1193 20.7243 18.4335C20.5584 18.7155 20.5574 19.0651 20.7216 19.3481L21.2517 20.2767C20.6168 20.4031 19.9956 20.5907 19.3968 20.8367C19.3968 20.8367 19.3904 20.8367 19.3877 20.8367L19.3819 20.8404C16.9193 21.8678 14.9603 23.8237 13.9291 26.2846C13.9221 26.298 13.9104 26.3076 13.904 26.322C13.8976 26.3364 13.904 26.346 13.8971 26.3577C12.8769 28.8235 12.8781 31.5936 13.9003 34.0586C13.9003 34.0655 13.9003 34.0724 13.904 34.0788C13.9078 34.0853 13.9105 34.0884 13.9131 34.0938C14.9469 36.5607 16.9092 38.5223 19.3766 39.5551C19.3814 39.5551 19.384 39.5609 19.3883 39.5631C19.3926 39.5653 19.4033 39.5631 19.4107 39.5674C23.5697 41.2863 28.3642 40.0485 31.1712 36.5311L31.9222 38.8778C32.0158 39.1806 32.2794 39.3996 32.5942 39.4362C32.9141 39.4772 33.228 39.3253 33.3942 39.049L34.494 37.2111L37.8876 40.6047C38.236 40.9518 38.7995 40.9518 39.1479 40.6047L40.6076 39.145C40.9543 38.7967 40.9543 38.2336 40.6076 37.8853L37.2113 34.4927ZM29.1761 30.2975L29.83 32.3412L25.8796 30.7071C25.9477 30.3728 25.9477 30.0281 25.8796 29.6937L31.8225 27.2324C32.1121 28.0673 32.2775 28.9403 32.3132 29.8234L30.295 29.1775C29.9773 29.0757 29.6293 29.16 29.3934 29.3959C29.1575 29.6318 29.0732 29.9798 29.175 30.2975H29.1761V30.2975ZM23.878 31.6762L23.8732 31.6794C23.485 31.8408 23.0485 31.8408 22.6604 31.6794L22.6556 31.6767C22.6519 31.6767 22.6471 31.6767 22.6433 31.674C22.2607 31.5111 21.956 31.2065 21.7932 30.8239C21.7932 30.8201 21.7932 30.8164 21.7932 30.8121L21.79 30.8079C21.7095 30.6154 21.6675 30.409 21.6663 30.2004C21.6664 29.9924 21.7075 29.7865 21.7873 29.5945L21.7905 29.5887C21.7905 29.5844 21.7905 29.5807 21.7905 29.5764C21.9533 29.1944 22.2576 28.8902 22.6396 28.7273C22.6433 28.7273 22.6476 28.7273 22.6519 28.7247L22.6567 28.7214C23.0449 28.5604 23.4813 28.5604 23.8694 28.7214L23.8742 28.7247C23.878 28.7247 23.8828 28.7247 23.887 28.7273C24.2692 28.8903 24.5736 29.1948 24.7366 29.577V29.5892L24.7398 29.5951C24.9013 29.9832 24.9013 30.4197 24.7398 30.8079L24.7366 30.8126V30.8249C24.5738 31.2069 24.2696 31.5111 23.8876 31.674C23.886 31.6751 23.8822 31.6746 23.878 31.6762ZM14.1996 30.2004C14.2014 29.1894 14.3732 28.1859 14.7078 27.2319L20.6529 29.6932C20.5848 30.0275 20.5848 30.3722 20.6529 30.7066L14.7089 33.1684C14.3737 32.2147 14.2015 31.2113 14.1996 30.2004ZM31.422 26.2442L25.4742 28.7071C25.2835 28.4254 25.041 28.1825 24.7595 27.9914L27.2209 22.0495C29.0518 22.9373 30.5313 24.4146 31.422 26.2442ZM24.7809 19.0004L23.2662 21.6521L21.7515 19.0004H24.7809ZM22.3676 22.2297C22.5589 22.5427 22.8994 22.7336 23.2662 22.7336C23.6331 22.7336 23.9735 22.5427 24.1649 22.2297L24.7175 21.2622C25.2331 21.344 25.7406 21.4705 26.2343 21.6404L23.7713 27.587C23.437 27.5186 23.0923 27.5186 22.758 27.587L20.2971 21.6409C20.7912 21.4708 21.299 21.3441 21.815 21.2623L22.3676 22.2297ZM19.3121 22.0495L21.7729 27.9925C21.4915 28.1833 21.249 28.4258 21.0582 28.7071L15.1105 26.2442C16.0013 24.4147 17.481 22.9376 19.3121 22.05V22.0495ZM15.119 34.153L21.0583 31.6937C21.249 31.9755 21.4915 32.2183 21.7729 32.4095L19.3148 38.3482C17.4873 37.4571 16.0103 35.9803 15.119 34.153ZM20.2993 38.7583L22.7612 32.8138C23.0955 32.8823 23.4402 32.8823 23.7745 32.8138L26.2396 38.7647C24.3162 39.4347 22.2223 39.4317 20.3009 38.7562L20.2993 38.7583ZM27.2241 38.3604L24.7595 32.4084C25.0411 32.2176 25.2837 31.9751 25.4747 31.6937L30.2561 33.6724L30.7697 35.2778C29.8803 36.5999 28.6571 37.6634 27.2241 38.3604ZM38.5158 39.7284L34.7627 35.9753C34.6628 35.8753 34.5271 35.8191 34.3857 35.8191C34.3637 35.8192 34.3418 35.8206 34.3201 35.8233C34.1569 35.8434 34.012 35.9377 33.9275 36.0788L32.7664 38.0185L30.296 30.2969L38.0171 32.7673L36.0774 33.9284C35.9362 34.0127 35.8418 34.1574 35.8216 34.3207C35.8014 34.4839 35.8576 34.6473 35.974 34.7635L39.7271 38.5166L38.5158 39.7284Z" fill="white"/>
<path fill-rule="evenodd" clip-rule="evenodd" d="M33.4005 21.1331H39.8005C40.0951 21.1331 40.3339 20.8943 40.3339 20.5997C40.3339 20.3052 40.0951 20.0664 39.8005 20.0664H33.4005C33.106 20.0664 32.8672 20.3052 32.8672 20.5997C32.8672 20.8943 33.106 21.1331 33.4005 21.1331Z" fill="white"/>
<path fill-rule="evenodd" clip-rule="evenodd" d="M33.4005 23.2659H39.8005C40.0951 23.2659 40.3339 23.0271 40.3339 22.7326C40.3339 22.438 40.0951 22.1992 39.8005 22.1992H33.4005C33.106 22.1992 32.8672 22.438 32.8672 22.7326C32.8672 23.0271 33.106 23.2659 33.4005 23.2659Z" fill="white"/>
</g>
<defs>
<clipPath id="clip0_387_23933">
<rect width="32" height="32" fill="white" transform="translate(11 11)"/>
</clipPath>
</defs>
</svg>
