<svg width="60" height="61" viewBox="0 0 60 61" fill="none" xmlns="http://www.w3.org/2000/svg">
<g clip-path="url(#clip0)">
<path d="M25.4307 32.1229H34.688V60.4667H25.4307V32.1229Z" fill="#D92400"/>
<path d="M37.6167 32.1229H56.3667V57.5134C56.3667 58.2963 56.0581 59.047 55.5089 59.6006C54.9596 60.1541 54.2145 60.4651 53.4377 60.4651H37.6167V32.1229Z" fill="white"/>
<path d="M3.63306 32.1229H22.4999V60.4667H6.562C6.17724 60.4667 5.79624 60.3903 5.44078 60.2418C5.08532 60.0934 4.76237 59.8758 4.49037 59.6016C4.21837 59.3273 4.00266 59.0018 3.85556 58.6435C3.70846 58.2852 3.63285 57.9012 3.63306 57.5134V32.1229Z" fill="white"/>
<path d="M2.81211 14.4082H22.5V28.5793H2.81211C2.06629 28.5793 1.35102 28.2807 0.823647 27.7493C0.296275 27.2178 0 26.497 0 25.7454L0 17.2421C0 16.4905 0.296275 15.7697 0.823647 15.2382C1.35102 14.7068 2.06629 14.4082 2.81211 14.4082Z" fill="white"/>
<path d="M25.429 14.4082H34.6863V28.5793H25.429V14.4082Z" fill="#D92400"/>
<path d="M37.6169 14.4082H57.188C57.9338 14.4082 58.6491 14.7068 59.1765 15.2382C59.7038 15.7697 60.0001 16.4905 60.0001 17.2421V25.7454C60.0001 26.497 59.7038 27.2178 59.1765 27.7493C58.6491 28.2807 57.9338 28.5793 57.188 28.5793H37.6169V14.4082Z" fill="white"/>
<path d="M36.7926 10.8646C39.1705 10.8689 41.4537 9.92586 43.1446 8.24095C44.8355 6.55604 45.7969 4.26589 45.8194 1.86964C45.8194 1.83623 45.8194 1.80441 45.8194 1.77099V0H44.0621C41.1203 0.0561811 38.2509 0.928425 35.769 2.5209C33.2871 4.11337 31.2888 6.36445 29.9936 9.0268C28.7036 6.37078 26.7132 4.12367 24.2404 2.53152C21.7677 0.939373 18.9079 0.0635673 15.9742 0L14.2168 0V1.77099C14.2168 1.80441 14.2168 1.83623 14.2168 1.86964C14.2393 4.26589 15.2008 6.55604 16.8916 8.24095C18.5825 9.92586 20.8657 10.8689 23.2436 10.8646H36.7926Z" fill="#D92400"/>
</g>
<defs>
<clipPath id="clip0">
<rect width="60" height="60.4651" fill="white"/>
</clipPath>
</defs>
</svg>
