<svg width="758" height="469" viewBox="0 0 758 469" fill="none" xmlns="http://www.w3.org/2000/svg">
<path d="M186.611 302.593L167.376 283.382H154.925L148.588 277.127V261.564L156.938 253.149H174.682L182.66 261.117H189.966V248.905L217.849 221.13V201.769H234.326V186.653L207.934 160.293H192.501V188.44H181.541L164.244 171.165V159.251L181.541 141.9V133.933H170.656L162.977 126.189V114.572H160.368H154.254V133.486H108.03L101.991 127.455H81.1158H45.7767L41.3034 123.061H15.6565L0 138.699V163.197L16.3275 179.505H27.138L38.1721 168.484H63.9681L95.0575 199.461V234.906L126.072 265.883V274.818L144.338 293.137H163.35L185.269 315.029V342.357L203.237 360.228V414.215L195.334 422.108V455.095L208.456 468.201H217.7V440.873L253.859 404.758V391.131L274.437 370.579V335.209L241.782 302.593H186.611Z" fill="#425BFF"/>
<path d="M455.232 369.763V387.634H463.135V376.986L469.919 370.284V362.391L466.266 358.742L455.232 369.763Z" fill="#425BFF"/>
<path d="M201.298 114.572H169.538V124.253H189.295L199.584 134.603V144.656L214.495 159.474L225.529 148.453L217.775 140.709L222.621 135.869L201.298 114.572Z" fill="#425BFF"/>
<path d="M566.691 316.967V320.913L579.217 333.349V337.147L584.212 342.136H588.611V333.87L571.687 316.967H566.691Z" fill="#425BFF"/>
<path d="M265.639 71.0131H233.357L216.06 88.2142H203.087V99.3093H225.976L243.422 116.734V147.487L256.842 160.816H269.367L291.808 138.403H302.022L320.362 120.085V61.1094H275.555L265.639 71.0131Z" fill="#425BFF"/>
<path d="M358.982 192.315V182.933L352.794 176.753V169.455H346.233V199.39H351.825L358.982 192.315Z" fill="#425BFF"/>
<path d="M488.463 97.7056L463.95 122.189L469.591 127.823L494.104 103.34L488.463 97.7056Z" fill="#425BFF"/>
<path d="M172.446 99.5344H195.036V82.6311H208.903L227.989 63.5684H179.976L166.556 76.9718V82.8545H172.446V99.5344Z" fill="#425BFF"/>
<path d="M341.088 185.686H332.291V194.472H341.088V185.686Z" fill="#425BFF"/>
<path d="M676.81 365.591L673.157 361.942V355.762H667.416V366.038L664.061 369.389H658.768L653.996 364.623V355.762H639.458L626.486 368.718V373.707H616.495L606.729 383.462V402.525L615.824 411.61H629.99L637.52 404.163H649.001L666.298 421.439H680.538L693.436 408.557V389.792L676.81 373.112V365.591Z" fill="#425BFF"/>
<path d="M693.883 118H600.242L594.054 111.894L604.566 101.394V95.5117H572.06L555.807 111.745H507.123V121.946H484.234L449.417 156.647H438.01V147.041H445.317L451.803 140.562V129.691H399.987L370.315 159.327V173.624H385.747V180.326H398.645V160.295L411.543 147.487L416.091 152.03L408.338 159.774V180.996L401.926 187.326H372.999L356.149 204.154V214.207H347.053L340.865 220.313V236.248H358.609L377.546 217.26L395.29 234.982L400.733 229.472L394.396 223.143L398.124 219.494L410.351 231.632H419.297L426.827 239.152H438.01V247.195L433.09 252.035H417.135L412.214 247.195H399.167L394.47 251.886L384.555 241.982H348.694L325.134 265.513V295.968L344.966 315.776H380.23V344.37L390.817 354.944V396.792L404.833 410.792H418.626L432.717 396.718V376.389L447.255 361.794V334.019L467.907 313.467V302.074H455.605L441.44 287.852V266.406H446.584V276.757L464.477 294.628H470.442L485.8 279.288V273.108H477.301L464.03 259.779L467.311 256.428L475.81 264.842H503.992L513.758 274.672H519.35V299.021L527.253 306.914H532.248L536.423 302.745V292.171L547.383 281.15V275.491H554.763L566.916 287.703H573.253V307.808L577.055 311.68V314.286L586.449 323.669L588.388 321.733V317.339L577.428 306.393V298.351H582.125L589.581 305.798H593.308L598.825 300.287V291.426L591.221 283.831V278.618H602.702L623.354 257.992V248.46L616.868 241.982V230.44L623.279 224.111L631.033 231.781V242.652H637.147L641.322 238.482V227.238L665.403 203.186V189.411H657.575V178.986L669.802 166.774H712L697.76 180.996V198.048H705.141L720.201 182.932V166.774H733.248L758 142.126V128.946H704.843L693.883 118Z" fill="#425BFF"/>
<path d="M719.53 437.822L724.227 442.513L736.379 430.376V423.823L735.037 422.408L719.53 437.822Z" fill="#425BFF"/>
<path d="M611.202 344.297H594.576L592.563 346.307L595.694 349.435H616.346L611.202 344.297Z" fill="#425BFF"/>
<path d="M670.92 235.652V225.6H668.012L655.636 237.886V243.248H646.317V248.832H657.724L670.92 235.652Z" fill="#425BFF"/>
<path d="M619.7 332.978V314.66H614.183L604.789 323.968H599.645V329.925L607.697 337.967H614.78L619.7 332.978Z" fill="#425BFF"/>
<path d="M644.005 335.583H651.088L665.626 350.103H680.761L686.875 356.284L690.006 353.156L681.656 344.742V339.381L673.38 331.115H661.526L657.873 334.764H655.711L649.821 328.807H647.062L644.005 331.86V335.583Z" fill="#425BFF"/>
<path d="M405.503 185.146C412.822 185.146 418.755 179.213 418.755 171.894C418.755 164.576 412.822 158.643 405.503 158.643C398.184 158.643 392.251 164.576 392.251 171.894C392.251 179.213 398.184 185.146 405.503 185.146Z" fill="#FFA0A0"/>
<path d="M406.033 198.929C420.671 198.929 432.537 187.063 432.537 172.425C432.537 157.788 420.671 145.922 406.033 145.922C391.396 145.922 379.53 157.788 379.53 172.425C379.53 187.063 391.396 198.929 406.033 198.929Z" stroke="#FFA0A0" stroke-width="5"/>
<path d="M406.034 229.673C437.651 229.673 463.281 204.042 463.281 172.425C463.281 140.808 437.651 115.178 406.034 115.178C374.417 115.178 348.786 140.808 348.786 172.425C348.786 204.042 374.417 229.673 406.034 229.673Z" stroke="#FFA0A0" stroke-width="5"/>
<g opacity="0.5" filter="url(#filter0_f)">
<path d="M406.034 267.839C458.729 267.839 501.446 225.121 501.446 172.426C501.446 119.731 458.729 77.0137 406.034 77.0137C353.339 77.0137 310.621 119.731 310.621 172.426C310.621 225.121 353.339 267.839 406.034 267.839Z" stroke="#FFA0A0" stroke-width="5"/>
</g>
<g opacity="0.3" filter="url(#filter1_f)">
<path d="M406.034 335.686C496.786 335.686 570.355 262.117 570.355 171.365C570.355 80.6123 496.786 7.04297 406.034 7.04297C315.281 7.04297 241.712 80.6123 241.712 171.365C241.712 262.117 315.281 335.686 406.034 335.686Z" stroke="#FFA0A0" stroke-width="5"/>
</g>
<defs>
<filter id="filter0_f" x="304.121" y="70.5137" width="203.825" height="203.825" filterUnits="userSpaceOnUse" color-interpolation-filters="sRGB">
<feFlood flood-opacity="0" result="BackgroundImageFix"/>
<feBlend mode="normal" in="SourceGraphic" in2="BackgroundImageFix" result="shape"/>
<feGaussianBlur stdDeviation="2" result="effect1_foregroundBlur"/>
</filter>
<filter id="filter1_f" x="235.212" y="0.542969" width="341.643" height="341.643" filterUnits="userSpaceOnUse" color-interpolation-filters="sRGB">
<feFlood flood-opacity="0" result="BackgroundImageFix"/>
<feBlend mode="normal" in="SourceGraphic" in2="BackgroundImageFix" result="shape"/>
<feGaussianBlur stdDeviation="2" result="effect1_foregroundBlur"/>
</filter>
</defs>
</svg>
