<svg width="18" height="19" viewBox="0 0 18 19" fill="none" xmlns="http://www.w3.org/2000/svg">
<path opacity="0.3" fill-rule="evenodd" clip-rule="evenodd" d="M2.28516 10.7731L3.71484 11.2269C4.73396 8.0167 6.46734 6.5 9 6.5C11.5327 6.5 13.266 8.0167 14.2852 11.2269L15.7148 10.7731C14.5117 6.9833 12.2451 5 9 5C5.75488 5 3.48826 6.9833 2.28516 10.7731ZM9 5C8.58579 5 8.25 5.33579 8.25 5.75C8.25 6.16421 8.58579 6.5 9 6.5C9.41421 6.5 9.75 6.16421 9.75 5.75C9.75 5.33579 9.41421 5 9 5Z" fill="#3800D8"/>
<path fill-rule="evenodd" clip-rule="evenodd" d="M9 8C9.97966 8 10.8131 7.37389 11.122 6.5H13.7007C13.96 6.94835 14.4448 7.25 15 7.25C15.8284 7.25 16.5 6.57843 16.5 5.75C16.5 4.92157 15.8284 4.25 15 4.25C14.4448 4.25 13.96 4.55165 13.7007 5H11.122C10.8131 4.12611 9.97966 3.5 9 3.5C8.02034 3.5 7.18691 4.12611 6.87803 5H4.29933C4.03997 4.55165 3.55521 4.25 3 4.25C2.17157 4.25 1.5 4.92157 1.5 5.75C1.5 6.57843 2.17157 7.25 3 7.25C3.55521 7.25 4.03997 6.94835 4.29933 6.5H6.87803C7.18691 7.37389 8.02034 8 9 8ZM9.75 5.75C9.75 6.16421 9.41421 6.5 9 6.5C8.58579 6.5 8.25 6.16421 8.25 5.75C8.25 5.33579 8.58579 5 9 5C9.41421 5 9.75 5.33579 9.75 5.75ZM3 14.75C4.24264 14.75 5.25 13.7426 5.25 12.5C5.25 11.2574 4.24264 10.25 3 10.25C1.75736 10.25 0.75 11.2574 0.75 12.5C0.75 13.7426 1.75736 14.75 3 14.75ZM3.75 12.5C3.75 12.9142 3.41421 13.25 3 13.25C2.58579 13.25 2.25 12.9142 2.25 12.5C2.25 12.0858 2.58579 11.75 3 11.75C3.41421 11.75 3.75 12.0858 3.75 12.5ZM15 14.75C16.2426 14.75 17.25 13.7426 17.25 12.5C17.25 11.2574 16.2426 10.25 15 10.25C13.7574 10.25 12.75 11.2574 12.75 12.5C12.75 13.7426 13.7574 14.75 15 14.75ZM15.75 12.5C15.75 12.9142 15.4142 13.25 15 13.25C14.5858 13.25 14.25 12.9142 14.25 12.5C14.25 12.0858 14.5858 11.75 15 11.75C15.4142 11.75 15.75 12.0858 15.75 12.5Z" fill="#3800D8"/>
</svg>
