<svg width="64" height="64" viewBox="0 0 64 64" fill="none" xmlns="http://www.w3.org/2000/svg">
<path d="M24.3927 14.589C24.5399 14.7325 24.6072 14.9394 24.5724 15.1421L23.7372 20.0116C23.3827 21.8787 25.4677 23.6511 27.3644 22.6469L31.7374 20.3477C31.9195 20.2521 32.1369 20.2519 32.319 20.3477L36.6921 22.6469C38.364 23.6 40.6913 22.0521 40.3194 20.0116L39.4841 15.1421C39.4494 14.9394 39.5165 14.7326 39.6639 14.589L43.2018 11.1403C43.8881 10.4711 44.1305 9.48925 43.8344 8.57763C43.5381 7.666 42.7649 7.014 41.8163 6.87625L36.9268 6.16575C36.7234 6.13625 36.5475 6.00837 36.4564 5.824L34.27 1.3935C33.8458 0.534 32.9868 0 32.0283 0C31.0698 0 30.2108 0.534 29.7865 1.3935L27.6 5.82387C27.5089 6.0085 27.333 6.13625 27.1294 6.16575L22.24 6.87625C20.3107 7.09212 19.3623 9.7085 20.8547 11.1404L24.3927 14.589ZM22.0053 9.15713C22.0414 9.046 22.1628 8.78212 22.5098 8.73175L27.3989 8.02125C28.2133 7.90312 28.917 7.392 29.2814 6.65387L31.4679 2.2235C31.623 1.909 31.9114 1.87513 32.0283 1.87513C32.1452 1.87513 32.4335 1.909 32.5887 2.2235L34.7753 6.654C35.1397 7.392 35.8433 7.90312 36.6575 8.02125L41.5468 8.73175C41.8938 8.78212 42.0153 9.04613 42.0513 9.15713C42.0873 9.26813 42.1443 9.553 41.8931 9.79762L38.3553 13.2463C37.766 13.8206 37.4971 14.6479 37.6363 15.459L38.4715 20.3285C38.5308 20.6741 38.3174 20.8711 38.2229 20.9398C38.1284 21.0084 37.8753 21.1504 37.5648 20.9872L33.1917 18.6881C32.4633 18.3053 31.5935 18.3053 30.865 18.6881L26.4919 20.9872C26.1815 21.1507 25.9283 21.0084 25.8338 20.9398C25.7393 20.8711 25.5259 20.6741 25.5852 20.3285L26.4204 15.459C26.5595 14.6479 26.2907 13.8206 25.7014 13.2463L22.1635 9.79775C21.9124 9.553 21.9693 9.26825 22.0053 9.15713Z" fill="url(#paint0_linear)"/>
<path d="M42.7868 17.3751C42.5434 18.1239 42.7425 18.9306 43.3064 19.4804L45.8336 21.9437C45.8758 21.9849 45.895 22.044 45.8851 22.102L45.2885 25.5806C44.9786 27.1157 46.7306 28.5409 48.2683 27.7454L51.3921 26.103C51.4443 26.0756 51.5065 26.0756 51.5585 26.103L54.6824 27.7454C55.9221 28.5101 58.0113 27.3009 57.6621 25.5806L57.0655 22.102C57.0555 22.044 57.0749 21.9847 57.1169 21.9439L59.6444 19.4802C60.784 18.4475 60.2174 16.2085 58.5061 15.9775L55.0135 15.47C54.9554 15.4616 54.905 15.425 54.879 15.3722L53.317 12.2075C52.6464 10.7922 50.4896 10.6477 49.6339 12.2074L48.072 15.3721C48.046 15.425 47.9956 15.4616 47.9375 15.47L44.4448 15.9775C43.6653 16.0907 43.03 16.6262 42.7868 17.3751ZM44.57 17.9545C44.5928 17.8844 44.6413 17.8435 44.7141 17.8329L48.2069 17.3254C48.8758 17.2281 49.4538 16.8081 49.7531 16.202L51.3151 13.0371C51.3478 12.9711 51.4016 12.9375 51.4753 12.9375C51.5489 12.9375 51.6028 12.971 51.6354 13.037V13.0371L53.1975 16.2021C53.4968 16.8082 54.0748 17.2281 54.7438 17.3254L58.2364 17.8329C58.3093 17.8435 58.3579 17.8844 58.3806 17.9545C58.4034 18.0246 58.3883 18.0862 58.3355 18.1376L55.8079 20.6014C55.3239 21.0732 55.1033 21.7527 55.2174 22.4189L55.814 25.8976C55.8265 25.9701 55.8026 26.029 55.743 26.0721C55.6834 26.1155 55.6201 26.12 55.5549 26.0856L52.4308 24.4432C51.8325 24.1287 51.1181 24.1287 50.5196 24.4432L47.3956 26.0856C47.3304 26.1197 47.2671 26.1154 47.2075 26.0721C47.1479 26.0289 47.124 25.9701 47.1365 25.8975L47.7331 22.4189C47.8474 21.7526 47.6265 21.0731 47.1425 20.6011L44.6153 18.1377C44.5624 18.0861 44.5471 18.0245 44.57 17.9545Z" fill="url(#paint1_linear)"/>
<path d="M6.81451 21.9437C6.85664 21.9848 6.87589 22.044 6.86601 22.102L6.26939 25.5806C6.00951 27.0915 7.61776 28.5713 9.24914 27.7453L12.373 26.103C12.4251 26.0756 12.4874 26.0756 12.5394 26.103L15.6634 27.7453C16.9978 28.51 18.9521 27.2795 18.6431 25.5806L18.0465 22.1018C18.0365 22.044 18.0558 21.9848 18.0979 21.9438L20.625 19.4802C21.7646 18.4475 21.198 16.2085 19.4868 15.9775L15.9943 15.47C15.936 15.4616 15.8856 15.425 15.8596 15.3722L14.2976 12.2073C13.6528 10.7826 11.3668 10.6625 10.6145 12.2073L9.05251 15.3721C9.02651 15.425 8.97614 15.4616 8.91801 15.47L5.42526 15.9775C3.86951 16.1572 3.05539 18.2638 4.28714 19.4803L6.81451 21.9437ZM5.55076 17.9545C5.57351 17.8843 5.62201 17.8435 5.69489 17.8328L9.18764 17.3253C9.85651 17.2281 10.4345 16.8081 10.7339 16.202L12.2959 13.037C12.3285 12.971 12.3824 12.9375 12.456 12.9375C12.5296 12.9375 12.5836 12.971 12.6161 13.0371L14.1781 16.2021C14.4774 16.8082 15.0554 17.2281 15.7244 17.3253L19.217 17.8328C19.2899 17.8435 19.3385 17.8843 19.3613 17.9545C19.384 18.0246 19.3689 18.0862 19.3161 18.1376L16.7886 20.6012C16.3045 21.0731 16.0838 21.7527 16.1981 22.4188L16.7948 25.8975C16.8073 25.9701 16.7833 26.029 16.7238 26.0721C16.6643 26.1155 16.6009 26.12 16.5356 26.0856L13.4116 24.4432C12.8133 24.1287 12.0989 24.1287 11.5004 24.4432L8.37639 26.0856C8.31126 26.12 8.24789 26.1153 8.18839 26.0721C8.12889 26.0288 8.10489 25.9701 8.11739 25.8975L8.71401 22.419C8.82839 21.7527 8.60751 21.0731 8.12339 20.6011L5.59614 18.1377C5.54326 18.0861 5.52801 18.0245 5.55076 17.9545Z" fill="url(#paint2_linear)"/>
<path d="M29.9526 15.2001C30.3775 15.4731 30.7214 15.6146 31.0908 15.6851V15.977C31.0908 16.4904 31.4863 16.938 31.9994 16.9534C32.5303 16.9694 32.9658 16.5437 32.9658 16.0162V15.5526C33.7715 15.2216 34.3796 14.4969 34.5314 13.5929C34.7283 12.4205 34.0936 11.362 32.9521 10.959C32.7624 10.8819 32.4871 10.8325 31.886 10.6069C31.7206 10.5259 31.625 10.3427 31.6653 10.163C31.6846 10.0881 31.7378 9.94024 31.943 9.80024C32.2244 9.65636 32.5733 9.95111 32.5885 9.96374C33.0094 10.3112 33.6426 10.2295 33.9589 9.77036C34.246 9.35361 34.1244 8.78399 33.7256 8.47236C33.5093 8.30324 33.2506 8.15311 32.9658 8.04611V7.77686C32.9658 7.26349 32.5703 6.81586 32.0571 6.80049C31.5263 6.78449 31.0908 7.21011 31.0908 7.73761V8.12399C31.086 8.12636 31.0813 8.12811 31.0765 8.13049C30.4298 8.46111 29.9736 9.07049 29.8251 9.80261C29.6871 10.4829 29.8445 11.1747 30.246 11.6531C30.8195 12.3026 31.4844 12.468 32.328 12.727C32.4325 12.7639 32.7505 12.8761 32.6824 13.2821C32.6458 13.5004 32.4575 13.8704 31.9845 13.8735C31.4433 13.8769 31.3284 13.8592 30.9405 13.6059C30.4766 13.303 29.8439 13.4635 29.5879 13.974C29.3702 14.4081 29.544 14.9376 29.9526 15.2001Z" fill="url(#paint3_linear)"/>
<path d="M59.7845 55.0976L55.063 53.1521V51.3256C56.6432 49.7657 57.9687 47.1057 58.1982 44.906C59.8003 40.787 58.0655 37.3095 56.2904 35.6907C56.7885 32.892 54.4353 30.0693 51.5415 30.1253C48.6648 30.1331 46.3277 32.7276 46.79 35.6748C45.7383 36.5896 44.8792 37.9847 44.4418 39.5171C43.8818 41.4791 44.0558 43.4898 44.9258 45.2018C45.2519 47.3502 46.4583 49.7386 48.0222 51.3216V53.1522L44.2862 54.6917C43.8508 54.1527 43.2974 53.7055 42.6513 53.4C42.1833 53.1787 41.6244 53.3786 41.403 53.8466C41.1817 54.3147 41.3817 54.8736 41.8497 55.095C42.8287 55.558 43.4613 56.5572 43.4613 57.6407V62.125H32.9648V57.401C33.9347 57.3675 34.7132 56.5682 34.7132 55.5905V53.0546C34.9925 52.8878 35.2563 52.6935 35.5023 52.4756L37.8494 53.4428C38.1924 53.5735 38.7893 53.5121 39.0734 52.9332C39.2708 52.4545 39.0425 51.9065 38.5638 51.7092L36.2193 50.7431V47.1883C38.4168 45.3695 39.7202 42.4145 40.1269 39.2346C41.223 37.389 43.031 32.5445 39.8505 29.3241C38.5394 27.9967 36.6832 27.7376 35.1715 28.0503C33.9524 25.3787 29.9327 25.0578 26.5328 27.0458C26.0873 27.3096 25.94 27.8847 26.2039 28.3302C26.4677 28.7756 27.0429 28.923 27.4883 28.6591C30.176 27.1883 32.996 27.2167 33.5577 29.1285L32.3563 32.3343C31.6928 33.0712 30.8545 33.6403 29.9188 33.9808C27.5984 34.8253 26.0303 36.173 25.1058 37.1845C24.6387 35.6506 24.3902 33.355 25.0915 31.4461C25.27 30.96 25.0209 30.4213 24.5348 30.2427C24.049 30.0643 23.5102 30.3135 23.3315 30.7993C22.243 33.7621 22.9532 37.4643 23.9295 39.242C24.3599 42.4087 25.517 45.2118 27.8375 47.1898V50.7432L21.6248 53.3031C20.8727 53.613 20.2353 54.1015 19.75 54.7065L15.9783 53.1522V51.1087C17.7537 49.1701 19.2152 45.609 19.1698 43.2202C19.1698 38.8648 16.6603 36.2646 12.4569 36.2646C10.7922 36.2646 9.38504 36.6712 8.27504 37.473C7.85529 37.7762 7.76079 38.3622 8.06404 38.782C8.36729 39.2017 8.95329 39.2962 9.37291 38.993C10.1568 38.4267 11.1944 38.1396 12.4569 38.1396C16.4554 38.1396 17.2948 40.9025 17.2948 43.2202C17.4378 45.611 14.8794 50.9872 12.4569 51.2275C9.60804 50.6926 7.14191 44.987 7.68529 42.1571C7.75254 41.6437 7.39091 41.173 6.87754 41.1057C6.36429 41.0398 5.89354 41.4001 5.82616 41.9135C5.39004 44.8801 6.73104 48.5482 8.93729 51.1097V53.152L4.21579 55.0975C2.68691 55.7273 1.69891 57.203 1.69891 58.8566V61.811C1.69891 63.0178 2.68079 63.9998 3.88766 63.9998H60.1127C61.3195 63.9998 62.3014 63.018 62.3014 61.811V58.8566C62.3013 57.2031 61.3134 55.7275 59.7845 55.0976ZM38.5164 30.6416C40.428 32.5771 39.7612 35.5301 39.0058 37.2967C38.3218 36.6068 37.2999 35.6846 36.0469 34.8826C35.198 34.3391 34.531 33.6006 34.1759 32.8213L35.2462 29.9655C36.1483 29.706 37.5813 29.6948 38.5164 30.6416ZM25.8247 39.2711C26.2578 38.648 27.7489 36.7657 30.5598 35.7427C31.4169 35.4307 32.2125 34.9726 32.911 34.3953C33.4317 35.1883 34.1568 35.8987 35.036 36.4616C36.5777 37.4485 37.7487 38.6688 38.2373 39.2166C37.7208 42.9196 35.5843 46.8232 32.0272 46.8232C28.4895 46.8232 26.3538 42.9533 25.8247 39.2711ZM32.0272 48.6982C32.8367 48.6982 33.612 48.5545 34.3442 48.2762V50.9965C33.1827 52.1593 30.9968 52.2372 29.7124 50.9972V48.2771C30.4439 48.5548 31.2185 48.6982 32.0272 48.6982ZM18.7205 62.125H16.8475L18.7204 59.4622V62.125H18.7205ZM8.93716 60.1002L6.25404 56.2857L8.93716 55.1802V60.1002ZM10.8122 56.8251C11.7248 57.2091 12.9967 57.2751 14.1032 56.825V62.125H10.8122V56.8251ZM15.9782 55.1801L18.6623 56.2861L15.9782 60.1022V55.1801ZM14.1032 52.652V54.6491C13.2852 55.4081 11.7789 55.5061 10.8122 54.6485C10.8122 54.171 10.8122 53.1632 10.8122 52.6526C11.7999 53.1665 12.9039 53.3006 14.1032 52.652ZM3.57379 61.8111V58.8567C3.57379 58.129 3.92904 57.4656 4.50791 57.062L8.06904 62.125H3.88754C3.71454 62.125 3.57379 61.9842 3.57379 61.8111ZM20.5955 57.6406C20.5955 56.4951 21.2799 55.4728 22.3389 55.0366L28.5543 52.4756C29.698 53.4378 31.1742 53.9846 32.838 53.7311V55.5281C31.8682 55.5616 31.0897 56.3608 31.0897 57.3387V62.125H20.5955V57.6406ZM51.5415 32.0002C53.027 32.0002 54.2574 33.1097 54.4497 34.5433C52.6457 33.8062 50.4799 33.814 48.6304 34.5672C48.812 33.1221 50.0478 32.0002 51.5415 32.0002ZM48.3223 36.8522C49.1888 36.2447 50.3995 35.8703 51.6354 35.8703C52.7233 35.8703 53.8308 36.1603 54.7403 36.8368C55.673 37.5307 57.6854 39.9941 56.6992 43.4927C55.8827 42.8951 54.7567 41.3398 54.0243 39.9131C53.8818 39.6348 53.6099 39.4463 53.2995 39.4097C52.9893 39.3731 52.6808 39.494 52.4774 39.7311C51.5428 40.8225 48.7672 43.5237 46.4 43.9251C45.2774 41.1466 46.6817 38.0026 48.3223 36.8522ZM46.9434 45.7265C49.3868 45.2051 51.7579 43.1457 53.0044 41.905C53.6189 43.01 55.2352 45.0083 56.2237 45.3716C55.585 48.4293 53.1532 51.2275 51.5414 51.2275C50.0294 51.2275 47.6958 48.6251 46.9434 45.7265ZM51.5415 53.1025C52.0757 53.1025 52.6315 52.9635 53.1879 52.6996C53.188 52.693 53.1878 53.7128 53.188 53.7927C53.2223 55.2428 52.605 56.8688 51.5447 57.9857C50.5572 56.9621 49.8769 55.3452 49.8965 53.8342C49.8973 53.7852 49.8967 52.863 49.8968 52.7025C50.4353 52.958 50.9883 53.1025 51.5415 53.1025ZM48.125 55.1376C48.3589 56.5607 48.9835 57.8995 49.9423 59.0006L50.605 59.7618V62.125H45.3362V57.6406C45.3362 57.2022 45.2729 56.7723 45.1553 56.3613L48.125 55.1376ZM60.4263 61.8111C60.4263 61.9842 60.2855 62.125 60.1125 62.125H52.4799V59.7622L53.1204 59.0331C54.0948 57.9237 54.7272 56.5747 54.9615 55.1383L59.0703 56.8313C59.894 57.1707 60.4264 57.9657 60.4264 58.8568V61.8111H60.4263Z" fill="url(#paint4_linear)"/>
<path d="M36.5781 58.3611C36.0603 58.3611 35.6406 58.7807 35.6406 59.2986C35.6406 59.8165 36.0603 60.2361 36.5781 60.2361H40.1192C40.6369 60.2361 41.0567 59.8165 41.0567 59.2986C41.0567 58.7807 40.6369 58.3611 40.1192 58.3611H36.5781Z" fill="url(#paint5_linear)"/>
<defs>
<linearGradient id="paint0_linear" x1="20.1215" y1="11.4688" x2="43.9586" y2="11.4688" gradientUnits="userSpaceOnUse">
<stop stop-color="#4E2267"/>
<stop offset="1" stop-color="#9441C4"/>
</linearGradient>
<linearGradient id="paint1_linear" x1="42.6847" y1="19.5354" x2="60.2381" y2="19.5354" gradientUnits="userSpaceOnUse">
<stop stop-color="#4E2267"/>
<stop offset="1" stop-color="#9441C4"/>
</linearGradient>
<linearGradient id="paint2_linear" x1="3.68896" y1="19.5378" x2="21.2188" y2="19.5378" gradientUnits="userSpaceOnUse">
<stop stop-color="#4E2267"/>
<stop offset="1" stop-color="#9441C4"/>
</linearGradient>
<linearGradient id="paint3_linear" x1="29.4934" y1="11.8769" x2="34.5669" y2="11.8769" gradientUnits="userSpaceOnUse">
<stop stop-color="#4E2267"/>
<stop offset="1" stop-color="#9441C4"/>
</linearGradient>
<linearGradient id="paint4_linear" x1="1.69891" y1="44.8826" x2="62.3014" y2="44.8826" gradientUnits="userSpaceOnUse">
<stop stop-color="#4E2267"/>
<stop offset="1" stop-color="#9441C4"/>
</linearGradient>
<linearGradient id="paint5_linear" x1="35.6406" y1="59.2986" x2="41.0567" y2="59.2986" gradientUnits="userSpaceOnUse">
<stop stop-color="#4E2267"/>
<stop offset="1" stop-color="#9441C4"/>
</linearGradient>
</defs>
</svg>
