<svg width="17" height="17" viewBox="0 0 17 17" fill="none" xmlns="http://www.w3.org/2000/svg">
<g clip-path="url(#clip0_387_37302)">
<path d="M11.6322 11.166H4.96549C4.78868 11.166 4.61911 11.2363 4.49409 11.3613C4.36907 11.4863 4.29883 11.6559 4.29883 11.8327V16.4993H12.2988V11.8327C12.2988 11.6559 12.2286 11.4863 12.1036 11.3613C11.9785 11.2363 11.809 11.166 11.6322 11.166Z" fill="#011955"/>
<path d="M8.29883 7.16602C9.4034 7.16602 10.2988 6.27059 10.2988 5.16602C10.2988 4.06145 9.4034 3.16602 8.29883 3.16602C7.19426 3.16602 6.29883 4.06145 6.29883 5.16602C6.29883 6.27059 7.19426 7.16602 8.29883 7.16602Z" fill="#011955"/>
<path d="M14.2988 0.5H2.29883C1.7684 0.5 1.25969 0.710714 0.884615 1.08579C0.509542 1.46086 0.298828 1.96957 0.298828 2.5L0.298828 16.5H2.96549V11.8333C2.96549 11.3029 3.17621 10.7942 3.55128 10.4191C3.92635 10.044 4.43506 9.83333 4.9655 9.83333H11.6322C12.1626 9.83333 12.6713 10.044 13.0464 10.4191C13.4214 10.7942 13.6322 11.3029 13.6322 11.8333V16.5H16.2988V2.5C16.2988 1.96957 16.0881 1.46086 15.713 1.08579C15.338 0.710714 14.8293 0.5 14.2988 0.5V0.5ZM8.29883 8.5C7.63956 8.5 6.99509 8.3045 6.44693 7.93823C5.89876 7.57196 5.47152 7.05136 5.21923 6.44228C4.96694 5.83319 4.90093 5.16297 5.02954 4.51637C5.15816 3.86976 5.47563 3.27582 5.94181 2.80964C6.40798 2.34347 7.00192 2.026 7.64853 1.89738C8.29513 1.76877 8.96535 1.83478 9.57444 2.08707C10.1835 2.33936 10.7041 2.7666 11.0704 3.31477C11.4367 3.86293 11.6322 4.5074 11.6322 5.16667C11.6311 6.0504 11.2796 6.89763 10.6547 7.52252C10.0298 8.14741 9.18256 8.49894 8.29883 8.5Z" fill="#011955"/>
</g>
<defs>
<clipPath id="clip0_387_37302">
<rect width="16" height="16" fill="white" transform="translate(0.298828 0.5)"/>
</clipPath>
</defs>
</svg>
