<svg width="128" height="129" viewBox="0 0 128 129" fill="none" xmlns="http://www.w3.org/2000/svg">
<path d="M57.5774 0.432471L58.3276 11.4605L55.8822 11.626L55.1321 0.605994L57.5774 0.432471ZM61.9555 4.38878L62.081 6.22812L57.8631 6.51376L57.7376 4.67709L61.9555 4.38878ZM63.939 0L64.6865 11.0173L62.2412 11.1828L61.4937 0.154836L63.939 0Z" fill="#A3B3C3"/>
<path d="M79.449 2.02619C79.6374 2.06681 79.807 2.16879 79.9311 2.31614C80.0553 2.4635 80.127 2.64789 80.1351 2.84042L80.936 13.7029L78.5013 13.153L78.1143 4.7278C78.1143 4.54093 78.1143 4.35139 78.1143 4.15918C78.1143 3.96698 78.1143 3.78544 78.1143 3.62527L77.6925 3.52917C77.6231 3.68667 77.551 3.85485 77.4709 4.02838C77.3906 4.20187 77.3015 4.37116 77.2039 4.53559L73.1996 11.949L70.7489 11.3884L76.2162 1.94077C76.3071 1.7709 76.4519 1.63601 76.6277 1.55726C76.8036 1.47851 77.0006 1.46035 77.1879 1.50563L79.449 2.02619ZM79.716 8.54263L79.3049 10.3366L73.7148 9.05785L74.1099 7.2639L79.716 8.54263Z" fill="#A3B3C3"/>
<path d="M93.7368 7.45078L88.7928 17.3362L86.6144 16.247L91.5584 6.3696L93.7368 7.45078Z" fill="#A3B3C3"/>
<path d="M104.041 14.1728L96.9213 22.6246L95.0713 21.0656L102.191 12.6191L104.041 14.1728ZM105.555 15.2406C106.174 15.7386 106.715 16.3282 107.156 16.9892C107.477 17.4675 107.607 18.0482 107.522 18.6176C107.371 19.2873 107.043 19.9046 106.574 20.4062C106.284 20.7616 105.938 21.0673 105.549 21.3112C105.216 21.5166 104.828 21.6171 104.436 21.5995C103.982 21.5567 103.548 21.3936 103.179 21.127L103.128 21.1884C103.264 21.3549 103.371 21.5436 103.443 21.7464C103.53 21.9958 103.568 22.2595 103.555 22.5232C103.532 22.8611 103.434 23.1895 103.267 23.4842L101.785 26.7385L99.8125 25.0753L101.339 21.9626C101.485 21.7052 101.542 21.4066 101.5 21.1137C101.422 20.8493 101.261 20.6171 101.04 20.4516C100.485 19.9853 100.02 19.5893 99.6443 19.2636C99.2688 18.938 98.9546 18.6639 98.7019 18.4414L98.0318 17.8354L99.2145 16.5006L102.263 19.0688C102.52 19.2994 102.813 19.4861 103.131 19.6214C103.246 19.6669 103.37 19.6874 103.494 19.6814C103.617 19.6754 103.738 19.6431 103.849 19.5867C104.415 19.2292 104.856 18.705 105.112 18.0864C105.147 17.9686 105.157 17.8446 105.141 17.7226C105.125 17.6006 105.083 17.4835 105.018 17.3789C104.833 17.091 104.601 16.8358 104.332 16.6234C103.563 15.9774 102.91 15.4346 102.373 14.995C101.839 14.5572 101.462 14.2635 101.251 14.114L102.191 12.6191C102.57 12.8682 102.917 13.1112 103.232 13.3479C103.547 13.5846 103.886 13.8515 104.249 14.1487C104.612 14.4477 105.047 14.8099 105.555 15.2353V15.2406Z" fill="#A3B3C3"/>
<path d="M121.933 36.6693L111.842 41.1835L110.854 38.9758L120.945 34.4642L121.933 36.6693ZM122.83 38.271C123.177 38.9899 123.411 39.7579 123.524 40.5482C123.606 41.1185 123.471 41.6988 123.145 42.1739C122.717 42.7104 122.154 43.1232 121.514 43.3699C121.098 43.5648 120.652 43.6902 120.195 43.741C119.806 43.7796 119.414 43.7016 119.069 43.5167C118.68 43.2793 118.361 42.9431 118.145 42.5423L118.07 42.577C118.122 42.7855 118.136 43.0017 118.11 43.2151C118.081 43.4771 118.001 43.731 117.875 43.9625C117.707 44.2571 117.476 44.5106 117.197 44.7047L114.445 46.9872L113.393 44.654L116.116 42.5183C116.361 42.3498 116.542 42.1046 116.631 41.8215C116.678 41.5478 116.633 41.2664 116.503 41.0207C116.207 40.356 115.969 39.798 115.761 39.3415C115.553 38.885 115.401 38.5033 115.275 38.1936C115.15 37.8839 115.032 37.601 114.934 37.3527L116.575 36.6719L118.204 40.3106C118.332 40.6292 118.512 40.9243 118.738 41.1835C118.821 41.2754 118.923 41.3483 119.036 41.3971C119.15 41.4459 119.273 41.4696 119.397 41.4665C120.063 41.3935 120.69 41.1134 121.188 40.6656C121.271 40.5746 121.334 40.4672 121.373 40.3504C121.411 40.2336 121.425 40.11 121.413 39.9876C121.37 39.6455 121.272 39.3127 121.122 39.0025C120.711 38.0877 120.359 37.3153 120.067 36.6853C119.775 36.0553 119.566 35.6281 119.44 35.4039L120.937 34.4722C121.167 34.8593 121.375 35.2277 121.554 35.5801C121.733 35.9325 121.925 36.3222 122.123 36.7494C122.32 37.1765 122.561 37.681 122.83 38.2844V38.271Z" fill="#A3B3C3"/>
<path d="M127.408 54.0135C127.493 54.6061 127.576 55.2041 127.656 55.8075C127.736 56.4108 127.808 57.0043 127.87 57.5881C127.932 58.1718 127.973 58.7217 127.993 59.2379L126.215 59.3767L125.617 55.1748C125.61 55.0656 125.58 54.959 125.53 54.8616C125.48 54.7643 125.41 54.6783 125.326 54.6088C125.139 54.4904 124.912 54.4502 124.696 54.4967L119.114 55.2976C118.892 55.313 118.686 55.4157 118.54 55.5832C118.478 55.6731 118.435 55.7746 118.414 55.8815C118.393 55.9885 118.394 56.0986 118.417 56.2052L119.018 60.4045L117.272 60.7649C117.156 60.263 117.044 59.7237 116.935 59.1471C116.826 58.5678 116.727 57.9805 116.636 57.3772C116.546 56.7738 116.457 56.1785 116.369 55.5859C116.253 54.9683 116.386 54.3298 116.74 53.8106C116.915 53.5678 117.139 53.3648 117.397 53.2148C117.656 53.0648 117.943 52.9712 118.241 52.9403L124.869 51.998C125.165 51.942 125.468 51.95 125.76 52.0214C126.052 52.0928 126.326 52.2259 126.562 52.4118C127.044 52.813 127.349 53.3888 127.408 54.0135ZM122.678 52.6013L123.612 59.1498L121.898 59.3927L120.964 52.8442L122.678 52.6013Z" fill="#A3B3C3"/>
<path d="M127.88 72.5403C127.811 73.0742 127.709 73.6642 127.571 74.2942C127.435 74.9165 127.237 75.5237 126.981 76.1069L125.395 75.7465C125.464 75.282 125.543 74.7383 125.632 74.1154C125.721 73.4925 125.803 72.8785 125.878 72.2734C125.915 71.977 125.939 71.7234 125.95 71.5152C125.966 71.3409 125.944 71.1652 125.886 71C125.838 70.8675 125.743 70.7573 125.619 70.6903C125.443 70.6054 125.253 70.5538 125.059 70.5381C124.914 70.5074 124.765 70.5057 124.621 70.5332C124.476 70.5607 124.338 70.6168 124.215 70.6983C123.965 70.9339 123.769 71.2208 123.641 71.5392L122.693 73.5681C122.285 74.409 121.807 74.967 121.254 75.2446C120.607 75.5368 119.888 75.6297 119.188 75.5116C118.658 75.4599 118.141 75.3182 117.658 75.0924C117.289 74.9149 116.981 74.6291 116.777 74.2729C116.568 73.8637 116.452 73.4134 116.436 72.9541C116.403 72.3112 116.433 71.6666 116.524 71.0293C116.569 70.6689 116.657 70.1564 116.791 69.497C116.951 68.7341 117.166 67.9838 117.434 67.2519L119.132 67.6256C119.041 68.2503 118.961 68.7922 118.886 69.2514C118.812 69.7106 118.753 70.103 118.708 70.4314C118.662 70.7597 118.622 71.0427 118.593 71.2883C118.542 71.6195 118.527 71.955 118.547 72.2894C118.55 72.3911 118.574 72.4911 118.618 72.583C118.662 72.6749 118.724 72.7567 118.801 72.8233C118.999 72.9574 119.23 73.0366 119.468 73.0529C119.676 73.0864 119.889 73.0773 120.093 73.0262C120.255 72.9746 120.397 72.8739 120.499 72.7379C120.632 72.5529 120.741 72.352 120.825 72.1399L121.866 70.0042C122.279 69.2034 122.755 68.6694 123.297 68.3758C123.931 68.0769 124.643 67.9836 125.333 68.1088C125.862 68.1581 126.377 68.3019 126.855 68.5333C127.213 68.7176 127.506 69.0074 127.693 69.3635C127.89 69.7736 127.994 70.2221 127.998 70.677C128.009 71.3002 127.97 71.9234 127.88 72.5403Z" fill="#A3B3C3"/>
<path d="M122.696 90.4185L112.509 86.1311L113.459 83.8727L123.652 88.168L122.696 90.4185ZM121.404 93.4885L119.631 92.7437L123.16 84.3585L124.933 85.1034L121.404 93.4885Z" fill="#A3B3C3"/>
<path d="M113.975 105.045C113.513 105.638 112.966 106.16 112.352 106.593C111.869 106.933 111.298 107.125 110.708 107.146C110.055 107.134 109.415 106.968 108.839 106.66C107.198 105.767 105.736 104.578 104.528 103.152C104.108 102.65 103.814 102.054 103.671 101.414C103.571 100.832 103.642 100.233 103.876 99.6899C104.176 99.0002 104.576 98.3587 105.064 97.7865C105.526 97.1936 106.072 96.6711 106.685 96.2355C107.171 95.8969 107.745 95.7043 108.337 95.6802C108.994 95.6827 109.641 95.8468 110.219 96.1581C111.046 96.5898 111.823 97.1108 112.536 97.7117C113.272 98.2869 113.941 98.9423 114.531 99.6659C114.952 100.169 115.244 100.767 115.382 101.409C115.479 101.994 115.406 102.594 115.174 103.139C114.869 103.829 114.466 104.472 113.975 105.045ZM112.47 103.82C112.785 103.477 112.985 103.045 113.044 102.584C113.041 102.122 112.873 101.676 112.568 101.329C112.074 100.729 111.513 100.188 110.897 99.7139C110.311 99.209 109.669 98.7728 108.983 98.4138C108.58 98.1811 108.105 98.1041 107.648 98.1976C107.223 98.3702 106.848 98.6474 106.558 99.0035C106.268 99.3595 106.073 99.7829 105.991 100.234C105.994 100.699 106.166 101.147 106.474 101.495C106.966 102.089 107.524 102.626 108.137 103.096C108.726 103.603 109.371 104.041 110.059 104.402C110.463 104.632 110.938 104.707 111.394 104.613C111.826 104.467 112.202 104.19 112.47 103.82Z" fill="#A3B3C3"/>
<path d="M99.9168 117.814C99.2688 118.281 98.553 118.645 97.7944 118.895C97.2473 119.072 96.654 119.041 96.1286 118.807C95.5258 118.478 95.021 117.995 94.6657 117.408C94.4011 117.032 94.2 116.615 94.0704 116.175C93.9631 115.798 93.9715 115.398 94.0944 115.027C94.261 114.602 94.5374 114.229 94.8953 113.945L94.8499 113.879C94.6526 113.964 94.4423 114.015 94.2279 114.031C93.9647 114.046 93.7009 114.011 93.4511 113.927C93.1321 113.814 92.8422 113.631 92.6021 113.393L89.8605 111.081L91.9961 109.631L94.5856 111.938C94.7927 112.15 95.0656 112.286 95.3598 112.322C95.6355 112.317 95.9022 112.224 96.1206 112.055C96.7222 111.648 97.2294 111.306 97.6423 111.03C98.0552 110.754 98.404 110.527 98.6888 110.35C98.9744 110.168 99.2227 110.008 99.4549 109.869L100.416 111.367L97.1137 113.606C96.8219 113.789 96.5636 114.02 96.3502 114.29C96.2746 114.388 96.2209 114.501 96.1928 114.622C96.1647 114.743 96.1628 114.868 96.1874 114.989C96.2673 115.312 96.4106 115.616 96.6092 115.884C96.7847 116.17 97.0152 116.418 97.2872 116.615C97.3917 116.68 97.5086 116.722 97.6305 116.739C97.7523 116.756 97.8764 116.748 97.9947 116.714C98.3243 116.614 98.6348 116.46 98.913 116.257C99.7441 115.691 100.444 115.21 101.011 114.813C101.579 114.416 101.963 114.136 102.165 113.972L103.344 115.283C103.003 115.58 102.674 115.847 102.359 116.084C102.044 116.32 101.694 116.574 101.308 116.845C100.929 117.126 100.465 117.449 99.9168 117.814ZM101.35 116.647L95.1436 107.501L97.1457 106.142L103.353 115.288L101.35 116.647Z" fill="#A3B3C3"/>
<path d="M82.265 125.985C82.0823 126.046 81.8846 126.044 81.703 125.98C81.5214 125.917 81.366 125.794 81.2613 125.633L75.0625 116.676L77.4438 115.921L82.0514 122.979C82.1475 123.139 82.2436 123.302 82.3398 123.468C82.4385 123.633 82.5266 123.791 82.6067 123.946L83.0178 123.815C82.9991 123.641 82.9778 123.46 82.9564 123.281C82.9351 123.102 82.9244 122.902 82.9191 122.715L82.6174 114.29L85.02 113.532L85.0974 124.429C85.1059 124.621 85.0499 124.811 84.9381 124.968C84.8263 125.124 84.6653 125.239 84.4808 125.294L82.265 125.985ZM78.7438 120.499L78.1886 118.743L83.6532 116.999L84.2111 118.756L78.7438 120.499Z" fill="#A3B3C3"/>
<path d="M62.0969 128.762L62.0168 126.842L71.1067 126.466L71.1868 128.385L62.0969 128.762ZM65.4259 128.623L64.9667 117.581L67.4174 117.48L67.8739 128.521L65.4259 128.623Z" fill="#A3B3C3"/>
<path d="M50.7539 127.283L52.8068 116.423L55.2094 116.877L53.1565 127.736L50.7539 127.283Z" fill="#A3B3C3"/>
<path d="M37.048 122.987C36.3558 122.688 35.711 122.29 35.134 121.805C34.6846 121.42 34.3563 120.914 34.1889 120.347C34.0347 119.71 34.0347 119.046 34.1889 118.409C34.6444 116.597 35.4309 114.884 36.5088 113.358C36.891 112.826 37.3954 112.393 37.9797 112.095C38.5179 111.852 39.1155 111.771 39.6989 111.863C41.1836 112.136 42.5756 112.779 43.746 113.732C44.1956 114.117 44.5254 114.623 44.6964 115.189C44.855 115.828 44.855 116.495 44.6964 117.133C44.2409 118.945 43.4544 120.657 42.3765 122.184C41.9941 122.718 41.4862 123.15 40.8976 123.441C40.3559 123.682 39.7562 123.762 39.1704 123.671C38.4332 123.548 37.7181 123.318 37.048 122.987ZM37.8489 121.228C38.2581 121.445 38.7241 121.531 39.1837 121.474C39.6308 121.356 40.0205 121.081 40.2809 120.699C41.1606 119.421 41.8135 118 42.211 116.5C42.3311 116.055 42.2875 115.581 42.0882 115.165C41.8143 114.797 41.4522 114.504 41.0352 114.312C40.6181 114.12 40.1595 114.036 39.7016 114.068C39.2517 114.186 38.8605 114.464 38.6017 114.85C38.1457 115.475 37.7615 116.15 37.4565 116.861C37.1121 117.557 36.8488 118.291 36.6716 119.047C36.5512 119.493 36.5957 119.967 36.7971 120.382C37.0532 120.768 37.4239 121.064 37.8569 121.228H37.8489Z" fill="#A3B3C3"/>
<path d="M17.4326 108.945L24.2507 101.396C24.6422 100.962 25.0569 100.94 25.4947 101.332L26.4932 102.234C26.6632 102.367 26.7798 102.556 26.8215 102.768C26.8376 102.994 26.8086 103.221 26.7361 103.435L25.121 109.792C25.0516 110.059 24.9608 110.347 24.854 110.651C24.7472 110.956 24.6298 111.238 24.507 111.503L24.6378 111.62C24.8087 111.385 24.9822 111.15 25.1717 110.918C25.3613 110.686 25.5401 110.464 25.7323 110.251L30.0704 105.446L31.7923 107.005L24.9768 114.551C24.5844 114.989 24.176 115.005 23.7221 114.605L22.7344 113.713C22.5662 113.582 22.4552 113.391 22.4247 113.179C22.4116 112.952 22.4378 112.725 22.5021 112.507L24.0718 106.348C24.1413 106.081 24.224 105.79 24.3228 105.475C24.4216 105.16 24.5283 104.84 24.6458 104.516L24.5043 104.388C24.3121 104.655 24.1226 104.893 23.9304 105.13C23.7382 105.368 23.5406 105.598 23.3404 105.819L19.1465 110.491L17.4326 108.945Z" fill="#A3B3C3"/>
<path d="M8.87639 97.8853C8.59342 97.4208 8.30777 96.9002 8.0248 96.3236C7.74317 95.7508 7.51873 95.1517 7.35474 94.535L8.82033 93.8302C9.05526 94.236 9.33289 94.7103 9.65324 95.2531C9.97359 95.7959 10.2913 96.3298 10.6063 96.8548C10.7638 97.1218 10.9026 97.3247 11.0227 97.4928C11.1211 97.6382 11.2483 97.7618 11.3965 97.8559C11.5191 97.9293 11.6649 97.9541 11.8049 97.9253C11.9952 97.8799 12.1759 97.8013 12.3388 97.6931C12.4709 97.6276 12.5884 97.5362 12.6843 97.4243C12.7801 97.3124 12.8524 97.1822 12.8968 97.0417C12.9462 96.7021 12.9207 96.3559 12.822 96.0272L12.2881 93.8515C12.0826 92.9386 12.1092 92.2044 12.3682 91.6438C12.6954 91.0145 13.2017 90.4961 13.8231 90.1542C14.2697 89.8642 14.7627 89.6529 15.2807 89.5295C15.6811 89.4371 16.1001 89.4688 16.482 89.6203C16.9002 89.8101 17.2719 90.0888 17.5712 90.4372C17.9963 90.9214 18.3752 91.4442 18.7031 91.9989C18.8935 92.3085 19.1427 92.7632 19.4506 93.363C19.8017 94.0588 20.1007 94.7798 20.3449 95.52L18.7859 96.2835C18.4691 95.7496 18.195 95.2753 17.9636 94.8606C17.7367 94.4575 17.5392 94.1105 17.371 93.8275C17.2028 93.5445 17.0533 93.2936 16.9252 93.0854C16.7573 92.7942 16.5596 92.5213 16.3352 92.2712C16.2692 92.1925 16.1878 92.1282 16.0959 92.0823C16.0041 92.0364 15.9038 92.0098 15.8013 92.0042C15.5635 92.0235 15.335 92.1055 15.1392 92.2418C14.9555 92.3442 14.7947 92.4833 14.6667 92.6502C14.5703 92.7915 14.5217 92.9599 14.5279 93.1308C14.5391 93.3581 14.5785 93.5832 14.6453 93.8008L15.1579 96.1153C15.3359 97.0052 15.3012 97.7269 15.0538 98.2804C14.7457 98.9102 14.2506 99.4295 13.6362 99.7673C13.1926 100.059 12.6996 100.267 12.1813 100.381C11.7862 100.461 11.376 100.418 11.0067 100.256C10.5936 100.058 10.229 99.772 9.93888 99.4176C9.54457 98.9359 9.18929 98.4235 8.87639 97.8853Z" fill="#A3B3C3"/>
<path d="M0 70.5996L6.60186 72.575C6.66376 72.6067 6.7335 72.6197 6.80265 72.6126C6.87181 72.6055 6.93743 72.5786 6.99162 72.535C7.03442 72.4885 7.06586 72.4328 7.08347 72.3721C7.10107 72.3114 7.10435 72.2475 7.09306 72.1853L6.42567 65.8798L7.87524 65.7249L8.25699 67.0597L8.97244 73.7523C9.01127 74.0304 8.9528 74.3133 8.80693 74.5532C8.6664 74.7815 8.45263 74.9555 8.2005 75.0466C7.94837 75.1378 7.67279 75.1407 7.41875 75.0551L0.24827 72.8954L0 70.5996ZM1.85268 67.7138L10.7077 66.7794L10.9453 69.0245L3.84152 69.7747L2.04756 69.5611L1.85268 67.7138Z" fill="#A3B3C3"/>
<path d="M0.347046 53.7946C0.446297 53.0924 0.641206 52.4071 0.926343 51.7577C1.11539 51.3132 1.46257 50.9546 1.90074 50.7513C2.41416 50.5652 2.97049 50.5318 3.50248 50.6552C3.95282 50.7225 4.39309 50.8454 4.81324 51.0209C5.15405 51.1591 5.44978 51.3892 5.66751 51.6856C5.88363 52.0182 5.98834 52.4109 5.9665 52.8068H6.03057C6.27083 52.0781 6.64457 51.6109 7.14378 51.4027C7.77191 51.1853 8.44714 51.142 9.09791 51.2772C9.74098 51.3498 10.3572 51.5759 10.8945 51.9366C11.3408 52.2716 11.6463 52.7607 11.7515 53.3087C11.8844 54.063 11.8735 54.8356 11.7194 55.5859C11.6126 56.2159 11.4738 56.8486 11.3083 57.4813C11.1428 58.114 10.9666 58.7226 10.7744 59.3099L9.02049 58.9175C9.12461 58.501 9.21003 58.1166 9.28745 57.799C9.36487 57.4813 9.42627 57.1529 9.48767 56.8513C9.54907 56.5496 9.6078 56.2373 9.66119 55.9196C9.74337 55.5121 9.76674 55.095 9.7306 54.6809C9.71971 54.5421 9.68016 54.4072 9.61445 54.2845C9.54875 54.1618 9.45831 54.0541 9.34885 53.9681C9.05775 53.7733 8.72485 53.6498 8.37712 53.6077C8.09038 53.5544 7.79626 53.5544 7.50951 53.6077C7.26327 53.6643 7.0471 53.8109 6.90352 54.0188C6.70608 54.3352 6.58625 54.6938 6.55381 55.0653L6.22011 57.1369L4.61836 56.8699L4.96808 54.7984C5.02556 54.5215 5.03189 54.2365 4.98677 53.9574C4.95429 53.7705 4.87119 53.596 4.7465 53.4529C4.62529 53.3312 4.47714 53.2398 4.31403 53.1859C4.12616 53.1213 3.93331 53.0722 3.7374 53.0391C3.46607 52.9875 3.1865 52.9994 2.92052 53.0738C2.81764 53.115 2.72443 53.177 2.64677 53.2561C2.56912 53.3351 2.5087 53.4294 2.46936 53.533C2.34085 53.8613 2.25126 54.2036 2.2024 54.5528C2.11163 55.1 2.02888 55.6206 1.95947 56.1545C1.89006 56.6884 1.82599 57.1209 1.7726 57.5106L0.0614014 57.3371C0.0614014 56.7285 0.0774188 56.1358 0.128141 55.5538C0.178863 54.9719 0.250941 54.3632 0.347046 53.7946Z" fill="#A3B3C3"/>
<path d="M5.65141 36.8348C6.10524 35.8791 6.63471 35.1992 7.23981 34.7952C7.89914 34.3786 8.69004 34.2225 9.45823 34.3574C10.5802 34.548 11.6667 34.9081 12.6804 35.4252C13.7244 35.8801 14.693 36.4913 15.5529 37.2379C16.144 37.747 16.5247 38.4578 16.6207 39.232C16.6919 39.9546 16.5015 40.7946 16.0494 41.7521C15.5974 42.7096 15.0688 43.3895 14.4637 43.7917C13.8051 44.2076 13.0143 44.361 12.2479 44.2215C11.127 44.0232 10.0419 43.6588 9.02843 43.1403C7.98571 42.685 7.01668 42.0767 6.15329 41.3357C5.56079 40.831 5.17965 40.1221 5.08546 39.3495C5.00716 38.6287 5.19581 37.7905 5.65141 36.8348ZM7.37062 37.673C7.23278 37.9427 7.1588 38.2405 7.15438 38.5433C7.16619 38.8279 7.27446 39.0999 7.46139 39.3148C7.72285 39.6197 8.0343 39.8779 8.38239 40.0783C8.92467 40.4081 9.4853 40.7066 10.0616 40.9726C10.6295 41.2478 11.2124 41.4911 11.8075 41.7014C12.1863 41.843 12.5858 41.9215 12.9901 41.9337C13.2716 41.9339 13.5451 41.84 13.7669 41.6667C13.9986 41.4713 14.1814 41.2245 14.3008 40.9459C14.4448 40.6693 14.5234 40.3633 14.5304 40.0516C14.5218 39.7689 14.4205 39.4969 14.2421 39.2774C13.9806 38.9676 13.6671 38.7056 13.3158 38.5033C12.7756 38.1754 12.2167 37.8794 11.6419 37.617C11.0716 37.3395 10.486 37.0944 9.88803 36.8828C9.51032 36.7419 9.11119 36.6669 8.70808 36.6612C8.42528 36.663 8.15073 36.7567 7.92589 36.9282C7.68687 37.1313 7.49702 37.386 7.37062 37.673Z" fill="#A3B3C3"/>
<path d="M14.8459 22.937L17.1844 25.0086C17.4555 25.2481 17.7081 25.5078 17.9399 25.7854C18.1719 26.062 18.3774 26.3596 18.5539 26.6744C18.8609 26.8292 19.1653 26.9974 19.4696 27.1736C19.7543 27.3357 20.0226 27.5253 20.2705 27.7396L23.1216 30.2676L21.5198 32.091L13.2441 24.7603L14.8459 22.937ZM19.0398 18.2012L20.452 23.3134C20.5148 23.5137 20.5543 23.7207 20.5695 23.9301C20.5852 24.1077 20.5852 24.2864 20.5695 24.464L20.6068 24.496C21.0258 24.373 21.4685 24.3547 21.8962 24.4426L27.4436 25.377L25.6283 27.4272L19.0371 26.1458L17.2859 20.1793L19.0398 18.2012ZM19.0051 24.9552L20.2758 26.0818L18.9597 27.5687L17.689 26.4421L19.0051 24.9552Z" fill="#A3B3C3"/>
<path d="M34.899 13.0222L35.86 14.4984L29.7521 18.4761L28.791 16.9972L34.899 13.0222ZM31.1296 12.2907L34.9978 18.2519L33.5322 19.2049L29.6399 13.2544L31.1296 12.2907Z" fill="#A3B3C3"/>
<path d="M71.1144 78.2025C71.0298 77.8734 71.0652 77.5248 71.2145 77.2195C71.3637 76.9142 71.6169 76.6721 71.9287 76.5367C72.0494 76.4783 72.178 76.4378 72.3104 76.4166C73.3236 76.4646 74.3305 76.6031 75.319 76.8303C78.2796 77.4546 81.2978 77.7651 84.3235 77.7567H101.676C102.03 77.7567 102.369 77.616 102.62 77.3657C102.87 77.1154 103.011 76.7759 103.011 76.4219C103.011 76.0679 102.87 75.7284 102.62 75.4781C102.369 75.2277 102.03 75.0871 101.676 75.0871H84.3235C81.4674 75.1002 78.6181 74.8094 75.8236 74.2195C74.6692 73.9518 73.4919 73.7954 72.3077 73.7523C71.8101 73.7668 71.3206 73.8821 70.8688 74.0914C69.9723 74.4766 69.243 75.1697 68.8126 76.0455C68.3823 76.9213 68.2793 77.9221 68.5223 78.8672C68.6641 79.4101 68.9078 79.921 69.2404 80.3729C69.9292 81.398 70.973 82.9463 70.973 85.7654C70.973 91.6758 67.078 93.7741 63.7437 93.7741C61.981 93.7526 60.2694 93.1784 58.8504 92.1323C56.2663 90.1836 54.9555 86.6944 54.9555 81.761C54.9693 81.0125 55.0353 80.2659 55.1531 79.5266C55.42 77.6285 55.7243 75.4795 52.6944 74.1047C52.2382 73.8853 51.7402 73.766 51.2341 73.755C50.0234 73.8012 48.8191 73.9548 47.6355 74.2142C44.7735 74.7995 41.8593 75.092 38.9381 75.0871H29.5946C29.2405 75.0871 28.901 75.2277 28.6507 75.4781C28.4004 75.7284 28.2598 76.0679 28.2598 76.4219C28.2598 76.7759 28.4004 77.1154 28.6507 77.3657C28.901 77.616 29.2405 77.7567 29.5946 77.7567H38.9381C42.0221 77.7594 45.0986 77.4526 48.1214 76.841C49.1453 76.6136 50.1866 76.4734 51.2341 76.4219C51.3587 76.4379 51.4796 76.4749 51.5918 76.5313C52.8012 77.0813 52.7638 77.3562 52.5102 79.1529C52.3741 80.015 52.2992 80.8857 52.2859 81.7584C52.2859 87.5754 53.9544 91.78 57.2433 94.2627C59.1233 95.6621 61.4002 96.426 63.7437 96.4437C66.2632 96.4804 68.6993 95.5421 70.5432 93.8249C72.5694 91.8974 73.6425 89.1104 73.6425 85.7654C73.6767 83.2933 72.9086 80.8767 71.4535 78.8779C71.2956 78.6782 71.1803 78.4484 71.1144 78.2025Z" fill="#A3B3C3"/>
<path d="M59.3285 88.8194C59.8166 89.5379 60.4763 90.1231 61.2478 90.5222C62.0193 90.9212 62.8782 91.1214 63.7466 91.1046C66.6004 91.1046 68.3062 89.1077 68.3062 85.7654C68.3062 83.7606 67.6255 82.7515 67.0275 81.8625C66.3441 80.8454 65.6367 79.7962 65.6367 76.4219C65.6367 58.2207 78.6829 34.595 78.8137 34.3601C78.9797 34.0582 79.0225 33.7038 78.9333 33.3711C78.844 33.0383 78.6296 32.753 78.3347 32.5747C78.0399 32.3964 77.6876 32.3391 77.3515 32.4146C77.0153 32.4901 76.7214 32.6927 76.5312 32.9799C73.082 38.4404 69.9351 44.0862 67.1049 49.8917C60.8154 62.8071 57.6279 73.5281 57.6279 81.761C57.6279 84.8578 58.2046 87.2337 59.3285 88.8194ZM65.3937 60.3164C63.792 66.2775 62.9671 71.6647 62.9671 76.4192C62.9671 80.6078 63.9895 82.1294 64.8118 83.3601C65.327 84.1236 65.6367 84.5828 65.6367 85.7627C65.6367 86.6971 65.6367 88.4323 63.7466 88.4323C60.8955 88.4323 60.2975 84.8044 60.2975 81.7584C60.2975 76.0482 62.0434 68.7442 65.3937 60.3164Z" fill="#A3B3C3"/>
<path d="M37.6063 61.7392C37.6063 62.0932 37.747 62.4327 37.9973 62.6831C38.2476 62.9334 38.5871 63.074 38.9411 63.074C43.4313 63.074 45.615 65.2577 45.615 69.748C45.615 70.102 45.7557 70.4415 46.006 70.6918C46.2563 70.9421 46.5958 71.0827 46.9498 71.0827C47.3038 71.0827 47.6434 70.9421 47.8937 70.6918C48.144 70.4415 48.2846 70.102 48.2846 69.748C48.2846 65.2577 50.4657 63.074 54.9586 63.074C55.3126 63.074 55.6521 62.9334 55.9024 62.6831C56.1527 62.4327 56.2933 62.0932 56.2933 61.7392C56.2933 61.3852 56.1527 61.0457 55.9024 60.7954C55.6521 60.5451 55.3126 60.4044 54.9586 60.4044C50.4657 60.4044 48.2846 58.2207 48.2846 53.7305C48.2846 53.3765 48.144 53.037 47.8937 52.7867C47.6434 52.5363 47.3038 52.3957 46.9498 52.3957C46.5958 52.3957 46.2563 52.5363 46.006 52.7867C45.7557 53.037 45.615 53.3765 45.615 53.7305C45.615 58.2207 43.4313 60.4044 38.9411 60.4044C38.5871 60.4044 38.2476 60.5451 37.9973 60.7954C37.747 61.0457 37.6063 61.3852 37.6063 61.7392ZM46.9498 59.2058C47.5718 60.2468 48.4422 61.1173 49.4833 61.7392C48.4446 62.3641 47.5747 63.234 46.9498 64.2727C46.3254 63.2327 45.4544 62.3626 44.4137 61.7392C45.4561 61.1182 46.3277 60.2476 46.9498 59.2058Z" fill="#A3B3C3"/>
<path d="M52.289 43.0522C55.8796 43.0522 57.6282 44.7981 57.6282 48.3914C57.6282 48.7454 57.7688 49.0849 58.0191 49.3352C58.2694 49.5855 58.6089 49.7262 58.9629 49.7262C59.317 49.7262 59.6565 49.5855 59.9068 49.3352C60.1571 49.0849 60.2977 48.7454 60.2977 48.3914C60.2977 44.7981 62.0436 43.0522 65.6369 43.0522C65.9909 43.0522 66.3304 42.9116 66.5807 42.6613C66.831 42.4109 66.9717 42.0714 66.9717 41.7174C66.9717 41.3634 66.831 41.0239 66.5807 40.7736C66.3304 40.5233 65.9909 40.3826 65.6369 40.3826C62.0436 40.3826 60.2977 38.6367 60.2977 35.0435C60.2977 34.6895 60.1571 34.35 59.9068 34.0997C59.6565 33.8493 59.317 33.7087 58.9629 33.7087C58.6089 33.7087 58.2694 33.8493 58.0191 34.0997C57.7688 34.35 57.6282 34.6895 57.6282 35.0435C57.6282 38.6367 55.8796 40.3826 52.289 40.3826C51.935 40.3826 51.5955 40.5233 51.3452 40.7736C51.0949 41.0239 50.9542 41.3634 50.9542 41.7174C50.9542 42.0714 51.0949 42.4109 51.3452 42.6613C51.5955 42.9116 51.935 43.0522 52.289 43.0522ZM58.9629 40.0356C59.4102 40.6991 59.9812 41.2702 60.6448 41.7174C59.983 42.1679 59.4123 42.7394 58.9629 43.4019C58.5173 42.7399 57.9502 42.1684 57.2918 41.7174C57.9563 41.2683 58.5282 40.6955 58.9763 40.0303L58.9629 40.0356Z" fill="#A3B3C3"/>
<path d="M78.9846 56.4001C78.9846 59.9933 77.236 61.7392 73.6455 61.7392C73.2914 61.7392 72.9519 61.8799 72.7016 62.1302C72.4513 62.3805 72.3107 62.72 72.3107 63.074C72.3107 63.428 72.4513 63.7675 72.7016 64.0179C72.9519 64.2682 73.2914 64.4088 73.6455 64.4088C77.236 64.4088 78.9846 66.1547 78.9846 69.748C78.9846 70.102 79.1252 70.4415 79.3755 70.6918C79.6259 70.9421 79.9654 71.0828 80.3194 71.0828C80.6734 71.0828 81.0129 70.9421 81.2632 70.6918C81.5135 70.4415 81.6542 70.102 81.6542 69.748C81.6542 66.1547 83.4001 64.4088 86.9933 64.4088C87.3473 64.4088 87.6868 64.2682 87.9372 64.0179C88.1875 63.7675 88.3281 63.428 88.3281 63.074C88.3281 62.72 88.1875 62.3805 87.9372 62.1302C87.6868 61.8799 87.3473 61.7392 86.9933 61.7392C83.4001 61.7392 81.6542 59.9933 81.6542 56.4001C81.6542 56.0461 81.5135 55.7066 81.2632 55.4563C81.0129 55.2059 80.6734 55.0653 80.3194 55.0653C79.9654 55.0653 79.6259 55.2059 79.3755 55.4563C79.1252 55.7066 78.9846 56.0461 78.9846 56.4001ZM82.0012 63.074C81.3394 63.5245 80.7688 64.096 80.3194 64.7585C79.8737 64.0965 79.3067 63.525 78.6482 63.074C79.3132 62.6276 79.8852 62.0564 80.3327 61.3922C80.78 62.0557 81.351 62.6268 82.0146 63.074H82.0012Z" fill="#A3B3C3"/>
</svg>
