<svg width="37" height="36" viewBox="0 0 37 36" fill="none" xmlns="http://www.w3.org/2000/svg">
<g clip-path="url(#clip0_6945_54173)">
<circle cx="18.668" cy="18" r="17" stroke="#8F8F8F" stroke-width="2"/>
<path d="M7.61792 15.8885L13.864 9.59984C15.5322 7.93501 17.7927 7 20.1495 7C22.5063 7 24.7668 7.93501 26.4349 9.59984L26.4433 9.60817L27.7182 10.9257C27.8503 11.0677 27.9215 11.2557 27.9164 11.4495C27.9114 11.6433 27.8306 11.8275 27.6913 11.9623C27.5521 12.0972 27.3655 12.1722 27.1716 12.171C26.9777 12.1699 26.792 12.0928 26.6544 11.9562L25.3831 10.6433C24.8717 10.132 24.288 9.69836 23.6508 9.35633L19.3453 13.6664L28.2339 22.555C28.3715 22.6926 28.4807 22.8559 28.5552 23.0356C28.6296 23.2154 28.668 23.4081 28.668 23.6026C28.668 23.7972 28.6296 23.9899 28.5552 24.1696C28.4807 24.3494 28.3715 24.5127 28.2339 24.6503L26.3183 26.566C26.1807 26.7036 26.0174 26.8127 25.8376 26.8872C25.6579 26.9617 25.4652 27 25.2706 27C25.076 27 24.8834 26.9617 24.7036 26.8872C24.5239 26.8127 24.3605 26.7036 24.223 26.566L15.3343 17.6774L14.0066 19.0051L12.3715 20.6384C12.2339 20.776 12.0706 20.8851 11.8908 20.9596C11.7111 21.0341 11.5184 21.0724 11.3238 21.0724C11.1293 21.0724 10.9366 21.0341 10.7568 20.9596C10.5771 20.8851 10.4137 20.776 10.2762 20.6384L7.61977 17.982C7.3422 17.7045 7.1861 17.3281 7.18575 16.9356C7.1854 16.5431 7.34084 16.1665 7.61792 15.8885ZM25.2711 25.5179L27.1858 23.6022L20.8897 17.3061L18.975 19.2218L25.2711 25.5179ZM15.8584 16.1033L17.9269 18.1727L19.8425 16.2589L17.7732 14.1895C17.7043 14.1207 17.6497 14.039 17.6124 13.9491C17.5751 13.8592 17.5559 13.7628 17.5559 13.6655C17.5559 13.5681 17.5751 13.4717 17.6124 13.3818C17.6497 13.2919 17.7043 13.2102 17.7732 13.1414L22.1564 8.75913C20.89 8.40247 19.5515 8.38954 18.2784 8.72167C17.0054 9.0538 15.8438 9.719 14.9131 10.6489L10.8187 14.77L13.4826 17.4311L14.8103 16.1033C14.8791 16.0345 14.9608 15.9798 15.0507 15.9426C15.1406 15.9053 15.237 15.8861 15.3343 15.8861C15.4317 15.8861 15.5281 15.9053 15.618 15.9426C15.7079 15.9798 15.7896 16.0345 15.8584 16.1033ZM11.3215 19.5903L12.4326 18.4792L9.77897 15.8191L8.66789 16.9302L11.3215 19.5903Z" fill="white"/>
<rect x="-0.046875" y="13.5312" width="32.8577" height="8.65471" transform="rotate(45 -0.046875 13.5312)" fill="#FF3D00"/>
<circle cx="13.668" cy="23" r="1" fill="#FF3D00"/>
<circle cx="5.66797" cy="15" r="1" fill="#FF3D00"/>
<circle cx="18.168" cy="24.5" r="1.5" fill="#FF3D00"/>
<circle cx="8.16797" cy="10.5" r="1.5" fill="#FF3D00"/>
</g>
<defs>
<clipPath id="clip0_6945_54173">
<rect x="0.667969" width="36" height="36" rx="18" fill="white"/>
</clipPath>
</defs>
</svg>
