<svg width="37" height="36" viewBox="0 0 37 36" fill="none" xmlns="http://www.w3.org/2000/svg">
<g clip-path="url(#clip0_4418_20115)">
<circle cx="18.666" cy="18" r="17" stroke="#80918F" stroke-width="2"/>
<path d="M7.61597 15.8885L13.8621 9.59984C15.5302 7.93501 17.7907 7 20.1475 7C22.5043 7 24.7648 7.93501 26.433 9.59984L26.4413 9.60817L27.7163 10.9257C27.8483 11.0677 27.9195 11.2557 27.9145 11.4495C27.9094 11.6433 27.8286 11.8275 27.6894 11.9623C27.5501 12.0972 27.3635 12.1722 27.1696 12.171C26.9758 12.1699 26.7901 12.0928 26.6524 11.9562L25.3812 10.6433C24.8697 10.132 24.286 9.69836 23.6488 9.35633L19.3434 13.6664L28.232 22.555C28.3696 22.6926 28.4787 22.8559 28.5532 23.0356C28.6277 23.2154 28.666 23.4081 28.666 23.6026C28.666 23.7972 28.6277 23.9899 28.5532 24.1696C28.4787 24.3494 28.3696 24.5127 28.232 24.6503L26.3163 26.566C26.1787 26.7036 26.0154 26.8127 25.8357 26.8872C25.6559 26.9617 25.4632 27 25.2687 27C25.0741 27 24.8814 26.9617 24.7017 26.8872C24.5219 26.8127 24.3586 26.7036 24.221 26.566L15.3324 17.6774L14.0047 19.0051L12.3695 20.6384C12.232 20.776 12.0686 20.8851 11.8889 20.9596C11.7091 21.0341 11.5164 21.0724 11.3219 21.0724C11.1273 21.0724 10.9346 21.0341 10.7549 20.9596C10.5751 20.8851 10.4118 20.776 10.2742 20.6384L7.61782 17.982C7.34024 17.7045 7.18414 17.3281 7.1838 16.9356C7.18345 16.5431 7.33889 16.1665 7.61597 15.8885ZM25.2691 25.5179L27.1839 23.6022L20.8878 17.3061L18.973 19.2218L25.2691 25.5179ZM15.8565 16.1033L17.9249 18.1727L19.8406 16.2589L17.7712 14.1895C17.7023 14.1207 17.6477 14.039 17.6104 13.9491C17.5732 13.8592 17.554 13.7628 17.554 13.6655C17.554 13.5681 17.5732 13.4717 17.6104 13.3818C17.6477 13.2919 17.7023 13.2102 17.7712 13.1414L22.1544 8.75913C20.888 8.40247 19.5495 8.38954 18.2765 8.72167C17.0034 9.0538 15.8418 9.719 14.9111 10.6489L10.8168 14.77L13.4806 17.4311L14.8083 16.1033C14.8771 16.0345 14.9588 15.9798 15.0487 15.9426C15.1387 15.9053 15.2351 15.8861 15.3324 15.8861C15.4297 15.8861 15.5261 15.9053 15.616 15.9426C15.706 15.9798 15.7877 16.0345 15.8565 16.1033ZM11.3196 19.5903L12.4306 18.4792L9.77701 15.8191L8.66594 16.9302L11.3196 19.5903Z" fill="white"/>
<rect x="-0.0488281" y="13.5312" width="32.8577" height="8.65471" transform="rotate(45 -0.0488281 13.5312)" fill="#FF3D00"/>
<circle cx="13.666" cy="23" r="1" fill="#FF3D00"/>
<circle cx="5.66602" cy="15" r="1" fill="#FF3D00"/>
<circle cx="18.166" cy="24.5" r="1.5" fill="#FF3D00"/>
<circle cx="8.16602" cy="10.5" r="1.5" fill="#FF3D00"/>
</g>
<defs>
<clipPath id="clip0_4418_20115">
<rect x="0.666016" width="36" height="36" rx="18" fill="white"/>
</clipPath>
</defs>
</svg>
