<svg width="54" height="50" viewBox="0 0 54 50" fill="none" xmlns="http://www.w3.org/2000/svg">
<path d="M42.4 25C35.2 25 29.3 19.5 28.5 12.5H3C1.3 12.5 0 13.8 0 15.5V47C0 48.7 1.3 50 3 50H47.2C48.9 50 50.2 48.7 50.2 47V22.6C48 24.1 45.3 25 42.4 25ZM36.1 28.1C37 28.1 37.7 28.8 37.7 29.7C37.7 30.6 37 31.3 36.1 31.3C35.2 31.3 34.5 30.6 34.5 29.7C34.5 28.8 35.3 28.1 36.1 28.1ZM29.9 28.1C30.8 28.1 31.5 28.8 31.5 29.7C31.5 30.6 30.8 31.3 29.9 31.3C29 31.3 28.3 30.6 28.3 29.7C28.3 28.8 29 28.1 29.9 28.1ZM21.9 42.2C21.9 43.1 21.2 43.8 20.3 43.8H7.8C6.9 43.8 6.2 43.1 6.2 42.2V39.1C6.2 36.4 7.6 34 9.6 32.6C8.4 31.5 7.7 29.9 7.7 28.1C7.7 24.7 10.5 21.9 13.9 21.9C17.3 21.9 20.1 24.7 20.1 28.1C20.1 29.8 19.4 31.4 18.2 32.6C20.3 34 21.6 36.4 21.6 39.1V42.2H21.9ZM42.4 43.8H29.9C29 43.8 28.3 43.1 28.3 42.2C28.3 41.3 29 40.6 29.9 40.6H42.4C43.3 40.6 44 41.3 44 42.2C44 43.1 43.3 43.8 42.4 43.8ZM42.4 37.5H29.9C29 37.5 28.3 36.8 28.3 35.9C28.3 35 29 34.3 29.9 34.3H42.4C43.3 34.3 44 35 44 35.9C44 36.8 43.3 37.5 42.4 37.5ZM42.4 31.2C41.5 31.2 40.8 30.5 40.8 29.6C40.8 28.7 41.5 28 42.4 28C43.3 28 44 28.7 44 29.6C44 30.5 43.3 31.2 42.4 31.2Z" fill="#0A4586"/>
<path d="M14.1 25C12.4 25 11 26.4 11 28.1C11 29.8 12.4 31.2 14.1 31.2C15.8 31.2 17.2 29.8 17.2 28.1C17.2 26.4 15.8 25 14.1 25Z" fill="#3DA8FB"/>
<path d="M14.1004 34.4C11.5004 34.4 9.40039 36.5 9.40039 39.1V40.7H18.8004V39.1C18.8004 36.5 16.6004 34.4 14.1004 34.4Z" fill="#3DA8FB"/>
<path d="M42.3 0C36.3 0 31.5 4.9 31.5 10.9C31.5 16.9 36.4 21.8 42.4 21.8C48.4 21.8 53.3 17 53.3 10.9C53.3 4.8 48.3 0 42.3 0ZM48.2 8.9L42 15.2C41.4 15.8 40.4 15.8 39.8 15.2L36.6 12C36 11.4 36 10.4 36.6 9.8C37.2 9.2 38.2 9.2 38.8 9.8L40.8 11.8L46 6.7C46.6 6.1 47.6 6.1 48.2 6.7C48.8 7.3 48.8 8.3 48.2 8.9Z" fill="#ED2939"/>
</svg>
