<svg width="48" height="48" viewBox="0 0 48 48" fill="none" xmlns="http://www.w3.org/2000/svg">
<g clip-path="url(#clip0_387_24531)">
<path d="M2.4 42.4H4V44C4 45.3255 5.07452 46.4 6.4 46.4H37.472C37.9138 46.4 38.272 46.0418 38.272 45.6C38.272 45.1582 37.9138 44.8 37.472 44.8H6.4C5.95817 44.8 5.6 44.4418 5.6 44V42.4H19.824C20.2658 42.4 20.624 42.0418 20.624 41.6C20.624 41.1582 20.2658 40.8 19.824 40.8H2.4C1.95817 40.8 1.6 40.4418 1.6 40V12.8H10.4C11.7255 12.8 12.8 11.7255 12.8 10.4V1.6H34.4C34.8418 1.6 35.2 1.95817 35.2 2.4V14.608C35.2 15.0498 35.5582 15.408 36 15.408C36.4418 15.408 36.8 15.0498 36.8 14.608V5.6H38.4C38.8418 5.6 39.2 5.95817 39.2 6.4V16.792C39.2 17.2338 39.5582 17.592 40 17.592C40.4418 17.592 40.8 17.2338 40.8 16.792V6.4C40.8 5.07452 39.7255 4 38.4 4H36.8V2.4C36.8 1.07452 35.7255 0 34.4 0H12C11.7878 4.5312e-05 11.5844 0.0843605 11.4344 0.2344L0.2344 11.4344C0.0843605 11.5844 4.5312e-05 11.7878 0 12V40C0 41.3255 1.07452 42.4 2.4 42.4ZM10.4 11.2H2.7312L11.2 2.7312V10.4C11.2 10.8418 10.8418 11.2 10.4 11.2Z" fill="#0D4EE3"/>
<path d="M3.99922 33.5996C3.55739 33.5996 3.19922 33.9578 3.19922 34.3996V38.3996C3.19922 38.8414 3.55739 39.1996 3.99922 39.1996H7.99922C8.44105 39.1996 8.79922 38.8414 8.79922 38.3996C8.79922 37.9578 8.44105 37.5996 7.99922 37.5996H4.79922V34.3996C4.79922 33.9578 4.44105 33.5996 3.99922 33.5996Z" fill="#0D4EE3"/>
<path d="M32.8 8.79922C33.2418 8.79922 33.6 8.44105 33.6 7.99922V3.99922C33.6 3.55739 33.2418 3.19922 32.8 3.19922H28.8C28.3582 3.19922 28 3.55739 28 3.99922C28 4.44105 28.3582 4.79922 28.8 4.79922H32V7.99922C32 8.44105 32.3582 8.79922 32.8 8.79922Z" fill="#0D4EE3"/>
<path d="M30.4008 43.2005C32.651 43.2051 34.8667 42.648 36.8472 41.5797L42.2872 47.0245C43.6018 48.3024 45.6992 48.287 46.995 46.9899C48.2907 45.6929 48.304 43.5955 47.0248 42.2821L41.7824 37.0469C45.1912 31.8371 44.6271 24.9778 40.4129 20.3949C36.1987 15.8121 29.4106 14.6761 23.9339 17.6371C18.4572 20.5982 15.6905 26.9001 17.2174 32.9359C18.7443 38.9717 24.1748 43.1999 30.4008 43.2005ZM45.8888 43.4117C46.5736 44.0948 46.575 45.2037 45.892 45.8885C45.2089 46.5733 44.1 46.5748 43.4152 45.8917L38.236 40.7045C38.8705 40.2597 39.4665 39.7622 40.0176 39.2173C40.2976 38.9365 40.5584 38.6413 40.8112 38.3421L45.8888 43.4117ZM21.916 21.1157C25.9643 17.0678 32.3083 16.4434 37.0682 19.6243C41.8281 22.8051 43.6782 28.9054 41.487 34.1944C39.2958 39.4834 33.6736 42.488 28.0588 41.3707C22.444 40.2534 18.4003 35.3254 18.4008 29.6005C18.3922 26.4163 19.658 23.3609 21.916 21.1157Z" fill="#0D4EE3"/>
<path d="M25.2268 37.4206C25.8205 38.0066 26.7637 38.0413 27.3988 37.5006L39.7684 26.9006C40.439 26.3258 40.5171 25.3164 39.9428 24.6454L38.9028 23.4286C38.3277 22.759 37.3189 22.6817 36.6484 23.2558L26.5252 31.9302L24.3308 29.7366C23.706 29.112 22.6932 29.112 22.0684 29.7366L20.9372 30.8678C20.3126 31.4926 20.3126 32.5054 20.9372 33.1302L25.226 37.4198L25.2268 37.4206ZM23.1996 30.8678L25.9196 33.5878C26.2152 33.8834 26.6886 33.9015 27.006 33.6294L37.686 24.4702L38.726 25.6854L26.3572 36.2886L22.0684 31.999L23.1996 30.8678Z" fill="#0D4EE3"/>
<path d="M4.8 17.6H19.2C19.6418 17.6 20 17.2418 20 16.8C20 16.3582 19.6418 16 19.2 16H4.8C4.35817 16 4 16.3582 4 16.8C4 17.2418 4.35817 17.6 4.8 17.6Z" fill="#0D4EE3"/>
<path d="M18.392 19.9992C18.392 19.5574 18.0338 19.1992 17.592 19.1992H4.8C4.35817 19.1992 4 19.5574 4 19.9992C4 20.441 4.35817 20.7992 4.8 20.7992H17.592C18.0338 20.7992 18.392 20.441 18.392 19.9992Z" fill="#0D4EE3"/>
<path d="M16.528 23.2004C16.528 22.7586 16.1698 22.4004 15.728 22.4004H4.8C4.35817 22.4004 4 22.7586 4 23.2004C4 23.6422 4.35817 24.0004 4.8 24.0004H15.728C16.1698 24.0004 16.528 23.6422 16.528 23.2004Z" fill="#0D4EE3"/>
<path d="M15.52 26.3996C15.52 25.9578 15.1618 25.5996 14.72 25.5996H4.8C4.35817 25.5996 4 25.9578 4 26.3996C4 26.8414 4.35817 27.1996 4.8 27.1996H14.72C15.1618 27.1996 15.52 26.8414 15.52 26.3996Z" fill="#0D4EE3"/>
<path d="M15.2 29.6008C15.2 29.159 14.8418 28.8008 14.4 28.8008H4.8C4.35817 28.8008 4 29.159 4 29.6008C4 30.0426 4.35817 30.4008 4.8 30.4008H14.4C14.8418 30.4008 15.2 30.0426 15.2 29.6008Z" fill="#0D4EE3"/>
</g>
<defs>
<clipPath id="clip0_387_24531">
<rect width="48" height="48" fill="white"/>
</clipPath>
</defs>
</svg>
