<svg width="32" height="32" viewBox="0 0 32 32" fill="none" xmlns="http://www.w3.org/2000/svg">
<path d="M29.814 14.9662C29.3473 14.3659 28.694 13.9123 27.974 13.6589C27.8806 10.5774 26.6673 7.69605 24.4807 5.52168C22.214 3.25393 19.2007 2 16.0007 2C12.8007 2 9.78732 3.25393 7.52065 5.52168C5.33398 7.70939 4.10732 10.5908 4.02732 13.6589C3.30732 13.9123 2.66732 14.3525 2.18732 14.9662C1.64065 15.6598 1.33398 16.5403 1.33398 17.434V19.9419C1.33398 20.8356 1.64065 21.7027 2.18732 22.3964C2.73398 23.1034 3.50732 23.597 4.37398 23.8104L6.70732 24.3973C6.86732 24.4374 7.04065 24.4507 7.21398 24.4507C7.36065 24.4507 7.52065 24.4374 7.66732 24.3973C7.97398 24.3306 8.28065 24.1972 8.53398 23.9838C8.78732 23.7837 8.98732 23.5303 9.13398 23.2368C9.28065 22.9433 9.34732 22.6232 9.34732 22.303V15.0195C9.34732 14.6994 9.26732 14.3792 9.13398 14.0858C8.98732 13.7923 8.78732 13.5388 8.53398 13.3387C8.28065 13.1386 7.97398 13.0052 7.65398 12.9252C7.36065 12.8585 7.04065 12.8718 6.74732 12.9252C6.98732 10.8309 7.90732 8.88328 9.41398 7.37589C11.174 5.61505 13.5207 4.64126 16.014 4.64126C18.5073 4.64126 20.854 5.61505 22.614 7.37589C24.1206 8.88328 25.054 10.8309 25.2806 12.9252C24.9873 12.8585 24.6673 12.8452 24.374 12.9252C24.054 12.9919 23.7607 13.1253 23.494 13.3387C23.2407 13.5388 23.0406 13.7923 22.894 14.0858C22.7473 14.3792 22.6807 14.6994 22.6807 15.0195V22.303C22.6807 22.6232 22.7606 22.9433 22.894 23.2368C23.0406 23.5303 23.254 23.797 23.494 23.9705C23.7473 24.1706 24.054 24.3173 24.3607 24.384C24.6673 24.4507 24.974 24.4507 25.2806 24.384C25.214 24.5974 25.1073 24.7842 24.9473 24.9443C24.694 25.1977 24.3606 25.3311 24.0006 25.3311H21.0406C20.8806 24.9576 20.6407 24.5974 20.3473 24.304C19.7207 23.677 18.8673 23.3302 17.9873 23.3302H13.9873C13.094 23.3302 12.254 23.677 11.6273 24.304C11.0007 24.9309 10.654 25.7847 10.654 26.6651C10.654 27.5455 11.014 28.3992 11.6273 29.0262C12.254 29.6532 13.094 30 13.9873 30H17.9873C18.8673 30 19.7207 29.6398 20.3473 29.0262C20.6407 28.7327 20.8673 28.3859 21.0406 27.999H24.0006C25.0673 27.999 26.0673 27.5855 26.8273 26.8252C27.5873 26.0648 28.0006 25.0643 28.0006 23.9971V23.6903C28.7206 23.4369 29.3473 22.9833 29.814 22.383C30.3607 21.676 30.6673 20.809 30.6673 19.9152V17.4073C30.6673 16.5136 30.3607 15.6465 29.814 14.9395V14.9662ZM6.66732 21.636L5.01398 21.2225C4.72065 21.1558 4.46732 20.9824 4.28065 20.7423C4.09398 20.5155 4.00065 20.222 4.00065 19.9285V17.4207C4.00065 17.1272 4.10732 16.8337 4.28065 16.607C4.46732 16.3802 4.72065 16.2068 5.01398 16.1401L6.66732 15.7265V21.6494V21.636ZM18.4673 27.1453C18.3473 27.2654 18.174 27.3454 18.0007 27.3454H14.0007C13.8273 27.3454 13.654 27.2787 13.534 27.1453C13.414 27.0252 13.334 26.8518 13.334 26.6784C13.334 26.505 13.4006 26.3316 13.534 26.2115C13.654 26.0915 13.8273 26.0114 14.0007 26.0114H18.0007C18.174 26.0114 18.3473 26.0781 18.4673 26.2115C18.5873 26.3449 18.6673 26.505 18.6673 26.6784C18.6673 26.8518 18.6007 27.0252 18.4673 27.1453ZM28.0006 19.9285C28.0006 20.222 27.894 20.5155 27.7207 20.7556C27.534 20.9824 27.2806 21.1558 26.9873 21.2225L25.334 21.636V15.7132L26.9873 16.1267C27.2673 16.1934 27.534 16.3668 27.7073 16.5936C27.894 16.8204 27.9873 17.1139 27.9873 17.4073V19.9152L28.0006 19.9285Z" fill="black"/>
</svg>
