<svg width="18" height="18" viewBox="0 0 18 18" fill="none" xmlns="http://www.w3.org/2000/svg">
<path opacity="0.3" fill-rule="evenodd" clip-rule="evenodd" d="M3.75 5.25C3.75 6.90685 5.09315 8.25 6.75 8.25C8.40685 8.25 9.75 6.90685 9.75 5.25C9.75 3.59315 8.40685 2.25 6.75 2.25C5.09315 2.25 3.75 3.59315 3.75 5.25ZM11.25 8.25C11.25 9.49264 12.2574 10.5 13.5 10.5C14.7426 10.5 15.75 9.49264 15.75 8.25C15.75 7.00736 14.7426 6 13.5 6C12.2574 6 11.25 7.00736 11.25 8.25Z" fill="#3800D8"/>
<path fill-rule="evenodd" clip-rule="evenodd" d="M6.73751 9.75C3.19643 9.75 0.291194 11.5699 0.000488763 15.1494C-0.0153463 15.3444 0.357534 15.75 0.545627 15.75H12.935C13.4984 15.75 13.5072 15.2966 13.4984 15.15C13.2787 11.4699 10.3284 9.75 6.73751 9.75ZM17.592 15.75H14.7C14.7 14.0618 14.1422 12.5039 13.2009 11.2505C15.7558 11.2784 17.8419 12.5701 17.9989 15.3C18.0052 15.41 17.9989 15.75 17.592 15.75Z" fill="#3800D8"/>
</svg>
