<svg width="36" height="32" viewBox="0 0 36 32" fill="none" xmlns="http://www.w3.org/2000/svg">
<path fill-rule="evenodd" clip-rule="evenodd" d="M17.3157 16.018C17.0389 14.7145 16.9614 13.3989 17.0727 12.108C14.3516 9.77862 12.8023 6.43027 12.8023 2.82924V1.05468C12.8023 0.472136 13.2744 0 13.857 0H15.6315C18.2122 0 20.7242 0.817929 22.7927 2.31701C24.9724 0.820401 27.5698 0 30.2886 0H33.1176C33.7001 0 34.1723 0.472136 34.1723 1.05468V3.88365C34.1723 7.00815 33.1258 9.92556 31.1461 12.3203C28.7527 15.2149 25.0169 16.8752 20.897 16.8752H18.352H18.3518H18.3476C17.8272 16.873 17.405 16.4965 17.3157 16.018ZM32.0629 3.88365V2.10937H30.2886C26.9043 2.10937 23.743 3.61888 21.6152 6.25092C19.9272 8.33914 19.067 10.9152 19.1375 13.5433L23.9342 8.74646C24.3461 8.33475 25.0138 8.33475 25.4258 8.74646C25.8378 9.15844 25.8378 9.82614 25.4258 10.2381L20.8981 14.7658C24.3865 14.7656 27.5291 13.3843 29.5201 10.9761C31.1837 8.96426 32.0629 6.51157 32.0629 3.88365ZM15.6315 2.10937H14.9117V2.82952C14.9117 5.37806 15.8496 7.77417 17.5308 9.62069C17.789 8.71789 18.1438 7.84146 18.5926 7.00596L17.6061 6.01939C17.1941 5.6074 17.1941 4.93971 17.6061 4.52772C18.018 4.11601 18.6857 4.11601 19.0974 4.52772L19.7635 5.19377C19.8327 5.1034 19.903 5.01359 19.9747 4.92488C20.3238 4.49312 20.6968 4.08772 21.0901 3.70815C19.4748 2.67077 17.5772 2.10937 15.6315 2.10937ZM34.832 15.9521C35.4879 16.5006 35.8966 17.271 35.9831 18.1216C36.0694 18.9725 35.8233 19.8094 35.2907 20.4782L26.4954 31.2532C26.2951 31.4988 25.9952 31.641 25.6785 31.641H1.05468C0.472136 31.641 0 31.1689 0 30.5864V20.0393C0 19.457 0.472136 18.9846 1.05468 18.9846H5.40415C6.65412 17.5539 8.35068 16.6709 10.2359 16.4822C13.5662 16.1488 15.6086 18.044 16.3657 18.7465C16.4944 18.866 16.586 18.9509 16.6404 18.9846H22.5705C23.9861 18.9846 25.1872 19.919 25.5901 21.203L30.3886 16.2023C31.5655 14.9655 33.5186 14.8543 34.832 15.9521ZM25.1778 29.5317L33.6439 19.1598C34.0311 18.669 33.9594 17.9719 33.4791 17.5704C33.0165 17.1839 32.3288 17.2229 31.9135 17.6596L25.5305 24.3118C24.8504 25.0377 23.8787 25.3973 22.8971 25.2959C22.8751 25.2982 22.8562 25.3002 22.8372 25.3019C22.599 25.3239 22.3572 25.3076 16.2424 25.3127C15.6599 25.3127 15.1877 24.8405 15.1877 24.258C15.1877 23.6757 15.6599 23.2033 16.2424 23.2033C17.2915 23.1996 18.3254 23.2012 19.2576 23.2027C20.94 23.2054 22.2913 23.2076 22.8037 23.1767C23.2734 23.0698 23.6252 22.6501 23.6252 22.1486C23.6252 21.5672 23.152 21.0939 22.5705 21.0939H16.2424C15.9859 21.0939 15.7381 21.0006 15.5456 20.8311C15.4333 20.7574 15.2873 20.6207 15.1045 20.4495C14.3188 19.7138 12.8519 18.3402 10.446 18.5811C8.97332 18.7286 7.65854 19.4729 6.74393 20.6773C6.5459 20.9379 6.23087 21.0939 5.90403 21.0939H2.10937V29.5317H25.1778Z" fill="#F4BBB3"/>
</svg>
