<svg width="93" height="88" viewBox="0 0 93 88" fill="none" xmlns="http://www.w3.org/2000/svg">
<g clip-path="url(#clip0)">
<path d="M46.5999 80.2999C67.9733 80.2999 85.2999 62.9733 85.2999 41.5999C85.2999 20.2265 67.9733 2.8999 46.5999 2.8999C25.2265 2.8999 7.8999 20.2265 7.8999 41.5999C7.8999 62.9733 25.2265 80.2999 46.5999 80.2999Z" fill="url(#paint0_radial)"/>
<path opacity="0.28" d="M39.7 77.4C61.0734 77.4 78.4 60.0734 78.4 38.7C78.4 17.3266 61.0734 0 39.7 0C18.3266 0 1 17.3266 1 38.7C1 60.0734 18.3266 77.4 39.7 77.4Z" fill="#40C85C"/>
<path opacity="0.28" d="M46.4002 87.2C67.7736 87.2 85.1002 69.8735 85.1002 48.5C85.1002 27.1266 67.7736 9.80005 46.4002 9.80005C25.0268 9.80005 7.7002 27.1266 7.7002 48.5C7.7002 69.8735 25.0268 87.2 46.4002 87.2Z" fill="#40C85C"/>
<path opacity="0.28" d="M53.5999 77.4C74.9733 77.4 92.2999 60.0734 92.2999 38.7C92.2999 17.3266 74.9733 0 53.5999 0C32.2265 0 14.8999 17.3266 14.8999 38.7C14.8999 60.0734 32.2265 77.4 53.5999 77.4Z" fill="#40C85C"/>
<path d="M78.8002 41.4999C78.8002 41.4999 77.9002 40.9999 77.3002 40.1999C76.9002 39.6999 76.6002 39.0999 76.3002 38.3999C75.6002 36.9999 74.8002 35.3999 73.3002 34.8999C74.3002 33.6999 74.3002 31.9999 74.2002 30.4999C74.2002 29.7999 74.1002 29.0999 74.2002 28.4999C74.3002 27.4999 74.9002 26.5999 74.9002 26.5999C75.0002 26.3999 75.0002 26.1999 74.9002 25.9999C74.8002 25.7999 74.6002 25.6999 74.3002 25.6999C74.3002 25.6999 73.5002 25.7999 72.4002 25.2999C71.8002 25.0999 71.2002 24.5999 70.6002 24.1999C69.3002 23.2999 67.8002 22.2999 66.2002 22.6999C66.7002 21.0999 65.7002 19.4999 64.8002 18.0999C64.4002 17.4999 64.0002 16.8999 63.8002 16.2999C63.4002 15.3999 63.4002 14.2999 63.4002 14.2999C63.4002 14.0999 63.3002 13.8999 63.1002 13.7999C62.9002 13.6999 62.7002 13.6999 62.5002 13.7999C62.5002 13.7999 61.8002 14.2999 60.6002 14.3999C60.0002 14.4999 59.3002 14.3999 58.5002 14.3999C56.9002 14.2999 55.1002 14.1999 53.9002 15.2999C53.5002 13.6999 51.8002 12.8999 50.4002 12.1999C49.7002 11.8999 49.1002 11.5999 48.6002 11.1999C47.8002 10.5999 47.3002 9.6999 47.3002 9.6999C47.2002 9.4999 47.0002 9.3999 46.8002 9.3999C46.6002 9.3999 46.4002 9.4999 46.3002 9.7999C46.3002 9.7999 46.0002 10.4999 45.0002 11.2999C44.5002 11.6999 43.9002 11.9999 43.2002 12.2999C41.8002 12.9999 40.2002 13.7999 39.8002 15.3999C38.7002 14.1999 36.8002 14.1999 35.2002 14.2999C34.4002 14.2999 33.7002 14.3999 33.1002 14.2999C31.9002 14.0999 31.3002 13.6999 31.3002 13.6999C31.1002 13.5999 30.9002 13.4999 30.7002 13.5999C30.5002 13.6999 30.4002 13.8999 30.4002 14.0999C30.4002 14.0999 30.4002 15.1999 30.0002 16.0999C29.8002 16.6999 29.4002 17.1999 28.9002 17.8999C28.0002 19.1999 27.0002 20.6999 27.4002 22.2999C25.9002 21.8999 24.4002 22.8999 23.1002 23.7999C22.5002 24.1999 21.9002 24.5999 21.3002 24.8999C20.2002 25.3999 19.4002 25.2999 19.4002 25.2999C19.2002 25.2999 19.0002 25.3999 18.8002 25.5999C18.7002 25.7999 18.7002 25.9999 18.8002 26.1999C18.8002 26.1999 19.3002 27.0999 19.4002 28.0999C19.5002 28.6999 19.4002 29.3999 19.4002 30.0999C19.3002 31.6999 19.2002 33.5999 20.4002 34.7999C18.9002 35.2999 18.1002 36.7999 17.5002 38.1999C17.2002 38.8999 16.9002 39.4999 16.5002 39.9999C15.8002 40.9999 15.1002 41.2999 15.1002 41.2999C14.9002 41.3999 14.8002 41.5999 14.7002 41.7999C14.7002 41.9999 14.8002 42.1999 15.0002 42.2999C15.0002 42.2999 15.9002 42.7999 16.5002 43.5999C16.9002 44.0999 17.2002 44.6999 17.5002 45.3999C18.2002 46.7999 19.0002 48.1999 20.4002 48.7999C19.3002 49.8999 19.4002 51.6999 19.5002 53.2999C19.5002 54.0999 19.6002 54.7999 19.5002 55.3999C19.3002 56.5999 18.9002 57.1999 18.9002 57.1999C18.8002 57.3999 18.7002 57.5999 18.8002 57.7999C18.9002 57.9999 19.1002 58.0999 19.3002 58.0999C19.3002 58.0999 20.4002 58.0999 21.3002 58.4999C21.9002 58.6999 22.4002 59.0999 23.1002 59.5999C24.2002 60.3999 25.5002 61.1999 26.8002 61.1999C27.0002 61.1999 27.3002 61.1999 27.5002 61.0999C27.1002 62.5999 28.1002 64.0999 29.0002 65.3999C29.4002 65.9999 29.8002 66.5999 30.1002 67.1999C30.6002 68.2999 30.5002 69.0999 30.5002 69.0999C30.5002 69.2999 30.6002 69.4999 30.8002 69.6999C30.9002 69.7999 31.0002 69.7999 31.1002 69.7999C31.2002 69.7999 31.3002 69.7999 31.4002 69.6999C31.4002 69.6999 32.3002 69.1999 33.3002 69.0999C33.9002 68.9999 34.6002 69.0999 35.3002 69.0999C37.0002 69.1999 38.8002 69.2999 40.0002 68.0999C40.5002 69.5999 42.0002 70.3999 43.4002 70.9999C44.1002 71.2999 44.7002 71.5999 45.2002 71.9999C46.2002 72.6999 46.5002 73.3999 46.5002 73.3999C46.6002 73.5999 46.8002 73.6999 47.0002 73.7999C47.2002 73.7999 47.4002 73.6999 47.5002 73.4999C47.5002 73.4999 48.0002 72.5999 48.8002 71.9999C49.3002 71.5999 49.9002 71.2999 50.6002 70.9999C51.9002 70.2999 53.4002 69.5999 53.9002 68.1999C55.1002 69.4999 56.9002 69.2999 58.6002 69.1999C59.4002 69.0999 60.1002 69.0999 60.7002 69.1999C61.9002 69.2999 62.6002 69.7999 62.6002 69.7999C62.7002 69.8999 62.8002 69.8999 62.9002 69.8999C63.0002 69.8999 63.1002 69.8999 63.2002 69.7999C63.4002 69.6999 63.5002 69.4999 63.5002 69.2999C63.5002 69.2999 63.5002 68.1999 63.9002 67.2999C64.1002 66.6999 64.5002 66.0999 64.9002 65.4999C65.7002 64.1999 66.6002 62.7999 66.4002 61.2999C66.6002 61.2999 66.8002 61.3999 67.0002 61.3999C68.3002 61.3999 69.5002 60.5999 70.6002 59.8999C71.2002 59.4999 71.8002 59.0999 72.4002 58.8999C73.5002 58.3999 74.3002 58.4999 74.3002 58.4999C74.5002 58.4999 74.7002 58.3999 74.9002 58.1999C75.0002 57.9999 75.0002 57.7999 74.9002 57.5999C74.9002 57.5999 74.4002 56.6999 74.3002 55.6999C74.2002 55.0999 74.3002 54.3999 74.3002 53.5999C74.4002 51.9999 74.5002 50.2999 73.5002 49.0999C75.0002 48.5999 75.8002 47.0999 76.5002 45.6999C76.8002 44.9999 77.2002 44.3999 77.5002 43.8999C78.2002 42.8999 79.0002 42.5999 79.0002 42.5999C79.2002 42.4999 79.3002 42.2999 79.4002 42.0999C79.1002 41.7999 79.0002 41.5999 78.8002 41.4999ZM47.9002 64.9999L54.2002 54.0999H66.7002C62.7002 60.3999 55.8002 64.5999 47.9002 64.9999ZM27.0002 54.0999H39.5002L45.8002 64.9999C37.9002 64.5999 31.0002 60.3999 27.0002 54.0999ZM23.4002 41.4999C23.4002 37.5999 24.4002 33.9999 26.0002 30.6999L32.2002 41.4999L26.0002 52.2999C24.3002 49.0999 23.4002 45.3999 23.4002 41.4999ZM45.8002 17.9999L39.5002 28.8999H27.0002C31.0002 22.6999 37.9002 18.3999 45.8002 17.9999ZM66.7002 28.8999H54.2002L47.9002 17.9999C55.8002 18.3999 62.7002 22.6999 66.7002 28.8999ZM53.5002 52.8999H40.2002L33.6002 41.4999L40.2002 30.0999H53.5002L60.1002 41.4999L53.5002 52.8999ZM60.8002 42.6999L66.7002 52.8999H54.9002L60.8002 42.6999ZM46.9002 64.3999L40.9002 54.0999H52.8002L46.9002 64.3999ZM38.8002 52.8999H27.0002L32.9002 42.6999L38.8002 52.8999ZM32.9002 40.2999L27.0002 30.0999H38.8002L32.9002 40.2999ZM40.9002 28.8999L46.9002 18.5999L52.9002 28.8999H40.9002ZM54.9002 30.0999H66.7002L60.8002 40.2999L54.9002 30.0999ZM67.7002 52.2999L61.5002 41.4999L67.7002 30.6999C69.4002 33.8999 70.3002 37.5999 70.3002 41.4999C70.3002 45.3999 69.4002 49.0999 67.7002 52.2999ZM69.9002 25.0999C70.5002 25.4999 71.2002 25.9999 71.9002 26.2999C72.5002 26.4999 73.0002 26.6999 73.4002 26.7999C73.2002 27.1999 73.1002 27.6999 73.0002 28.2999C72.9002 28.9999 72.9002 29.7999 73.0002 30.5999C73.1002 32.2999 73.2002 33.8999 71.9002 34.5999C71.7002 34.6999 71.1002 34.8999 70.7002 34.9999C69.6002 31.0999 67.6002 27.5999 65.0002 24.7999C65.4002 24.4999 65.8002 24.1999 66.1002 23.9999C67.2002 23.2999 68.5002 24.1999 69.9002 25.0999ZM58.4002 15.5999C59.2002 15.6999 60.0002 15.6999 60.7002 15.5999C61.3002 15.4999 61.8002 15.3999 62.2002 15.1999C62.3002 15.5999 62.4002 16.1999 62.6002 16.6999C62.9002 17.3999 63.3002 17.9999 63.7002 18.6999C64.6002 20.0999 65.5002 21.4999 64.8002 22.6999C64.7002 22.8999 64.3002 23.3999 63.9002 23.6999C61.1002 20.9999 57.6002 18.8999 53.8002 17.7999C54.0002 17.2999 54.2002 16.7999 54.3002 16.5999C55.1002 15.3999 56.7002 15.4999 58.4002 15.5999ZM43.6002 13.2999C44.3002 12.8999 45.0002 12.5999 45.6002 12.0999C46.1002 11.6999 46.5002 11.2999 46.7002 10.9999C47.0002 11.2999 47.4002 11.7999 47.8002 12.0999C48.4002 12.4999 49.1002 12.8999 49.8002 13.1999C51.3002 13.8999 52.8002 14.5999 52.8002 16.0999C52.8002 16.3999 52.7002 16.9999 52.6002 17.3999C50.8002 16.9999 48.8002 16.6999 46.9002 16.6999C44.8002 16.6999 42.8002 16.9999 40.9002 17.3999C40.8002 16.8999 40.7002 16.3999 40.7002 16.0999C40.7002 14.7999 42.1002 14.0999 43.6002 13.2999ZM29.7002 18.4999C30.1002 17.8999 30.6002 17.1999 30.9002 16.5999C31.1002 16.0999 31.3002 15.4999 31.3002 15.0999C31.7002 15.2999 32.2002 15.3999 32.8002 15.4999C33.5002 15.5999 34.3002 15.5999 35.1002 15.4999C36.8002 15.3999 38.4002 15.2999 39.1002 16.5999C39.3002 16.8999 39.5002 17.4999 39.7002 17.9999C35.9002 19.1999 32.5002 21.1999 29.8002 23.8999C29.4002 23.5999 28.8002 22.8999 28.6002 22.5999C27.8002 21.1999 28.7002 19.8999 29.7002 18.4999ZM21.5002 25.7999C22.2002 25.4999 22.9002 25.0999 23.5002 24.5999C24.9002 23.6999 26.2002 22.7999 27.4002 23.4999C27.7002 23.6999 28.4002 24.1999 28.8002 24.5999C26.2002 27.3999 24.2002 30.7999 23.1002 34.4999H23.0002C22.5002 34.3999 21.6002 34.0999 21.3002 33.8999C20.1002 33.1999 20.2002 31.5999 20.3002 29.8999C20.3002 29.0999 20.4002 28.2999 20.3002 27.5999C20.2002 26.9999 20.1002 26.4999 19.9002 26.0999C20.4002 26.1999 20.9002 26.0999 21.5002 25.7999ZM18.3002 44.7999C18.0002 44.0999 17.6002 43.3999 17.2002 42.7999C16.9002 42.2999 16.4002 41.9999 16.1002 41.6999C16.4002 41.3999 16.8002 41.0999 17.2002 40.5999C17.6002 39.9999 18.0002 39.2999 18.3002 38.5999C19.0002 37.0999 19.7002 35.6999 21.1002 35.6999C21.5002 35.6999 22.3002 35.7999 22.8002 35.8999C22.4002 37.6999 22.1002 39.5999 22.1002 41.4999C22.1002 43.4999 22.3002 45.4999 22.8002 47.3999C22.5002 47.4999 22.2002 47.5999 21.9002 47.6999C21.6002 47.7999 21.3002 47.7999 21.2002 47.7999C19.8002 47.6999 19.1002 46.2999 18.3002 44.7999ZM23.4002 58.4999C22.8002 58.0999 22.1002 57.5999 21.5002 57.2999C20.9002 57.1999 20.4002 56.9999 20.0002 56.9999C20.2002 56.5999 20.3002 56.0999 20.4002 55.4999C20.5002 54.7999 20.5002 53.9999 20.4002 53.1999C20.3002 51.4999 20.2002 49.8999 21.5002 49.2999C21.7002 49.1999 22.0002 48.9999 22.3002 48.8999C22.6002 48.7999 23.0002 48.6999 23.2002 48.6999C24.3002 52.3999 26.3002 55.7999 28.9002 58.5999L28.8002 58.6999C28.5002 59.0999 27.8002 59.6999 27.5002 59.8999C26.1002 60.3999 24.8002 59.4999 23.4002 58.4999ZM35.0002 67.8999C34.2002 67.8999 33.4002 67.7999 32.7002 67.8999C32.1002 67.9999 31.6002 68.0999 31.2002 68.2999C31.1002 67.8999 31.0002 67.3999 30.8002 66.7999C30.5002 66.0999 30.1002 65.3999 29.6002 64.7999C28.7002 63.3999 27.8002 62.0999 28.5002 60.8999C28.7002 60.4999 29.2002 59.8999 29.6002 59.4999L29.7002 59.3999C32.4002 61.9999 35.8002 64.0999 39.5002 65.1999C39.5002 65.1999 39.5002 65.1999 39.5002 65.2999C39.4002 65.7999 39.1002 66.6999 38.9002 66.9999C38.2002 68.0999 36.6002 67.9999 35.0002 67.8999ZM49.7002 69.8999C49.0002 70.1999 48.3002 70.5999 47.7002 70.9999C47.2002 71.2999 46.9002 71.7999 46.6002 72.0999C46.3002 71.7999 46.0002 71.3999 45.5002 70.9999C44.9002 70.5999 44.2002 70.1999 43.5002 69.8999C42.0002 69.1999 40.6002 68.4999 40.6002 67.0999C40.6002 66.6999 40.7002 65.9999 40.8002 65.3999C42.7002 65.8999 44.8002 66.1999 46.9002 66.1999C48.8002 66.1999 50.6002 65.9999 52.4002 65.5999C52.5002 66.0999 52.7002 66.6999 52.7002 66.9999C52.7002 68.3999 51.2002 69.0999 49.7002 69.8999ZM63.6002 64.8999C63.2002 65.4999 62.8002 66.1999 62.5002 66.8999C62.3002 67.3999 62.2002 67.9999 62.1002 68.3999C61.7002 68.2999 61.2002 68.0999 60.6002 67.9999C59.9002 67.8999 59.1002 67.9999 58.3002 67.9999C56.6002 68.0999 55.1002 68.1999 54.3002 66.9999C54.1002 66.5999 53.7002 65.8999 53.6002 65.2999C53.6002 65.2999 53.6002 65.2999 53.6002 65.1999C57.4002 64.0999 60.8002 62.1999 63.6002 59.5999C63.8002 59.7999 64.0002 59.9999 64.3002 60.1999C64.5002 60.3999 64.7002 60.5999 64.7002 60.6999C65.4002 62.0999 64.5002 63.4999 63.6002 64.8999ZM71.7002 57.6999C71.0002 57.9999 70.3002 58.3999 69.7002 58.8999C68.3002 59.7999 67.0002 60.6999 65.8002 59.9999C65.6002 59.8999 65.4002 59.6999 65.1002 59.4999C64.9002 59.2999 64.7002 58.9999 64.5002 58.8999C67.2002 56.1999 69.3002 52.7999 70.5002 49.0999C71.0002 49.1999 71.7002 49.4999 72.0002 49.5999C73.2002 50.2999 73.1002 51.8999 73.0002 53.5999C72.9002 54.3999 72.9002 55.1999 73.0002 55.8999C73.1002 56.4999 73.2002 56.9999 73.4002 57.3999C72.8002 57.3999 72.3002 57.4999 71.7002 57.6999ZM76.3002 43.0999C75.8002 43.6999 75.5002 44.3999 75.1002 45.0999C74.3002 46.5999 73.6002 47.9999 72.2002 47.9999C71.8002 47.9999 71.2002 47.8999 70.6002 47.7999C71.1002 45.7999 71.4002 43.6999 71.4002 41.4999C71.4002 39.6999 71.2002 37.8999 70.8002 36.1999C71.3002 36.0999 71.9002 35.9999 72.2002 35.9999C73.6002 35.9999 74.3002 37.3999 75.1002 38.9999C75.4002 39.6999 75.8002 40.3999 76.2002 40.9999C76.5002 41.4999 76.9002 41.7999 77.3002 42.0999C77.1002 42.2999 76.7002 42.5999 76.3002 43.0999Z" fill="white"/>
</g>
<defs>
<radialGradient id="paint0_radial" cx="0" cy="0" r="1" gradientUnits="userSpaceOnUse" gradientTransform="translate(46.624 41.5787) scale(38.662)">
<stop offset="0.00392649" stop-color="#40C85C"/>
<stop offset="1" stop-color="#40C85C" stop-opacity="0"/>
</radialGradient>
<clipPath id="clip0">
<rect width="91.2" height="87.2" fill="white" transform="translate(1)"/>
</clipPath>
</defs>
</svg>
