<svg width="40" height="40" viewBox="0 0 40 40" fill="none" xmlns="http://www.w3.org/2000/svg">
<path d="M20 0C9 0 0 9 0 20C0 31 9 40 20 40C31 40 40 31 40 20C40 9 31 0 20 0ZM20 38.75C9.625 38.75 1.25 30.375 1.25 20C1.25 9.625 9.625 1.25 20 1.25C30.375 1.25 38.75 9.625 38.75 20C38.75 30.375 30.375 38.75 20 38.75Z" fill="url(#paint0_linear_152_6068)"/>
<path d="M20 6.25C20.375 6.25 20.625 6 20.625 5.625V3.125C20.625 2.75 20.375 2.5 20 2.5C19.625 2.5 19.375 2.75 19.375 3.125V5.625C19.375 6 19.625 6.25 20 6.25Z" fill="url(#paint1_linear_152_6068)"/>
<path d="M20 33.75C19.625 33.75 19.375 34 19.375 34.375V36.875C19.375 37.25 19.625 37.5 20 37.5C20.375 37.5 20.625 37.25 20.625 36.875V34.375C20.625 34 20.375 33.75 20 33.75Z" fill="url(#paint2_linear_152_6068)"/>
<path d="M36.875 19.375H34.375C34 19.375 33.75 19.625 33.75 20C33.75 20.375 34 20.625 34.375 20.625H36.875C37.25 20.625 37.5 20.375 37.5 20C37.5 19.625 37.25 19.375 36.875 19.375Z" fill="url(#paint3_linear_152_6068)"/>
<path d="M5.625 19.375H3.125C2.75 19.375 2.5 19.625 2.5 20C2.5 20.375 2.75 20.625 3.125 20.625H5.625C6 20.625 6.25 20.375 6.25 20C6.25 19.625 6 19.375 5.625 19.375Z" fill="url(#paint4_linear_152_6068)"/>
<path d="M31.5 7.625L30.625 8.5C30.375 8.75 30.375 9.125 30.625 9.375C30.75 9.5 30.875 9.5 31.125 9.5C31.375 9.5 31.5 9.5 31.625 9.375L32.5 8.5C32.75 8.25 32.75 7.875 32.5 7.625C32.25 7.375 31.75 7.375 31.5 7.625Z" fill="url(#paint5_linear_152_6068)"/>
<path d="M8.5 30.625L7.625 31.5C7.375 31.75 7.375 32.125 7.625 32.375C7.75 32.5 7.875 32.5 8.125 32.5C8.375 32.5 8.5 32.5 8.625 32.375L9.5 31.5C9.75 31.25 9.75 30.875 9.5 30.625C9.25 30.375 8.75 30.375 8.5 30.625Z" fill="url(#paint6_linear_152_6068)"/>
<path d="M31.5 30.625C31.25 30.375 30.875 30.375 30.625 30.625C30.375 30.875 30.375 31.25 30.625 31.5L31.5 32.375C31.625 32.5 31.75 32.5 32 32.5C32.25 32.5 32.375 32.5 32.5 32.375C32.75 32.125 32.75 31.75 32.5 31.5L31.5 30.625Z" fill="url(#paint7_linear_152_6068)"/>
<path d="M8.5 9.375C8.625 9.5 8.75 9.625 9 9.625C9.25 9.625 9.375 9.625 9.5 9.5C9.75 9.25 9.75 8.875 9.5 8.625L8.5 7.625C8.25 7.375 7.875 7.375 7.625 7.625C7.375 7.875 7.375 8.25 7.625 8.5L8.5 9.375Z" fill="url(#paint8_linear_152_6068)"/>
<path d="M34.375 14.625H34.625L35.75 14.125C36.125 14 36.25 13.625 36.125 13.25C36 12.875 35.625 12.75 35.25 12.875L34.125 13.375C33.75 13.5 33.625 13.875 33.75 14.25C34 14.5 34.125 14.625 34.375 14.625Z" fill="url(#paint9_linear_152_6068)"/>
<path d="M5.375 25.375L4.25 25.875C3.875 26 3.75 26.375 3.875 26.75C4 27 4.25 27.125 4.5 27.125H4.75L5.875 26.625C6.25 26.5 6.375 26.125 6.25 25.75C6 25.375 5.625 25.25 5.375 25.375Z" fill="url(#paint10_linear_152_6068)"/>
<path d="M26.625 34.25C26.5 33.875 26.125 33.75 25.75 33.875C25.375 34 25.25 34.375 25.375 34.75L25.875 35.875C26 36.125 26.25 36.25 26.5 36.25H26.75C27.125 36.125 27.25 35.75 27.125 35.375L26.625 34.25Z" fill="url(#paint11_linear_152_6068)"/>
<path d="M13.375 5.75C13.5 6 13.75 6.25 14 6.25H14.25C14.625 6.125 14.75 5.75 14.625 5.375L14.125 4.25C14 3.875 13.625 3.75 13.25 3.875C12.875 4 12.75 4.375 12.875 4.75L13.375 5.75Z" fill="url(#paint12_linear_152_6068)"/>
<path d="M4.125 14.125L5.25 14.625H5.5C5.75 14.625 6 14.5 6.125 14.25C6.25 13.875 6.125 13.625 5.75 13.375L4.625 12.875C4.25 12.75 4 12.875 3.75 13.25C3.75 13.625 3.875 14 4.125 14.125Z" fill="url(#paint13_linear_152_6068)"/>
<path d="M35.875 25.875L34.75 25.375C34.375 25.25 34.125 25.375 33.875 25.75C33.75 26.125 33.875 26.375 34.25 26.625L35.375 27.125H35.625C35.875 27.125 36.125 27 36.25 26.75C36.25 26.375 36.125 26 35.875 25.875Z" fill="url(#paint14_linear_152_6068)"/>
<path d="M14.25 33.875C13.875 33.75 13.625 33.875 13.375 34.25L12.875 35.375C12.75 35.75 12.875 36 13.25 36.25H13.5C13.75 36.25 14 36.125 14.125 35.875L14.625 34.75C14.75 34.375 14.625 34 14.25 33.875Z" fill="url(#paint15_linear_152_6068)"/>
<path d="M25.75 6.125H26C26.25 6.125 26.5 6 26.625 5.75L27.125 4.625C27.25 4.25 27.125 4 26.75 3.75C26.375 3.625 26.125 3.75 25.875 4.125L25.375 5.25C25.25 5.625 25.375 6 25.75 6.125Z" fill="url(#paint16_linear_152_6068)"/>
<path d="M28.125 15.375C27.875 15.25 27.5 15.25 27.25 15.625L21.625 25.625C21.5 25.875 21.5 26.25 21.875 26.5C22 26.5 22.125 26.625 22.125 26.625C22.375 26.625 22.5 26.5 22.625 26.25L28.25 16.25C28.5 16 28.375 15.625 28.125 15.375Z" fill="url(#paint17_linear_152_6068)"/>
<path d="M30.5 20C30.375 19.875 30.25 19.75 30 19.75H27.5C27.125 19.75 26.875 20 26.875 20.375C26.875 20.75 27.125 21 27.5 21H29.125L27.5 25.125C27.375 25.5 27.5 25.75 27.875 25.875H28.125C28.375 25.875 28.625 25.75 28.75 25.5L30.625 20.5C30.625 20.375 30.625 20.125 30.5 20Z" fill="url(#paint18_linear_152_6068)"/>
<path d="M21.875 21.625V21H22.5C22.875 21 23.125 20.75 23.125 20.375C23.125 20 22.875 19.75 22.5 19.75H21.875V16.625C21.875 16.25 21.625 16 21.25 16C20.875 16 20.625 16.25 20.625 16.625V19.75H18.25L19.375 14.25C19.5 13.875 19.25 13.625 18.875 13.5C18.5 13.375 18.25 13.625 18.125 14L16.875 20.25C16.875 20.375 16.875 20.625 17 20.75C17.125 20.875 17.25 21 17.5 21H20.625V21.625C20.625 22 20.875 22.25 21.25 22.25C21.625 22.25 21.875 21.875 21.875 21.625Z" fill="url(#paint19_linear_152_6068)"/>
<path d="M15.625 16.625C15.625 14.875 14.25 13.5 12.5 13.5C10.75 13.5 9.375 14.875 9.375 16.625C9.375 17 9.625 17.25 10 17.25C10.375 17.25 10.625 17 10.625 16.625C10.625 15.625 11.5 14.75 12.5 14.75C13.5 14.75 14.375 15.625 14.375 16.625C14.375 17.125 14.125 17.625 13.875 17.875L9.625 21.125C9.375 21.25 9.375 21.625 9.375 21.875C9.375 22.125 9.75 22.25 10 22.25H15C15.375 22.25 15.625 22 15.625 21.625C15.625 21.25 15.375 21 15 21H11.875L14.75 18.875C15.25 18.125 15.625 17.375 15.625 16.625Z" fill="url(#paint20_linear_152_6068)"/>
<defs>
<linearGradient id="paint0_linear_152_6068" x1="7.45058e-08" y1="20" x2="40" y2="20" gradientUnits="userSpaceOnUse">
<stop stop-color="#2047F4"/>
<stop offset="1" stop-color="#4D6CF5"/>
</linearGradient>
<linearGradient id="paint1_linear_152_6068" x1="7.45058e-08" y1="20" x2="40" y2="20" gradientUnits="userSpaceOnUse">
<stop stop-color="#2047F4"/>
<stop offset="1" stop-color="#4D6CF5"/>
</linearGradient>
<linearGradient id="paint2_linear_152_6068" x1="7.45058e-08" y1="20" x2="40" y2="20" gradientUnits="userSpaceOnUse">
<stop stop-color="#2047F4"/>
<stop offset="1" stop-color="#4D6CF5"/>
</linearGradient>
<linearGradient id="paint3_linear_152_6068" x1="7.45058e-08" y1="20" x2="40" y2="20" gradientUnits="userSpaceOnUse">
<stop stop-color="#2047F4"/>
<stop offset="1" stop-color="#4D6CF5"/>
</linearGradient>
<linearGradient id="paint4_linear_152_6068" x1="7.45058e-08" y1="20" x2="40" y2="20" gradientUnits="userSpaceOnUse">
<stop stop-color="#2047F4"/>
<stop offset="1" stop-color="#4D6CF5"/>
</linearGradient>
<linearGradient id="paint5_linear_152_6068" x1="7.45058e-08" y1="20" x2="40" y2="20" gradientUnits="userSpaceOnUse">
<stop stop-color="#2047F4"/>
<stop offset="1" stop-color="#4D6CF5"/>
</linearGradient>
<linearGradient id="paint6_linear_152_6068" x1="7.45058e-08" y1="20" x2="40" y2="20" gradientUnits="userSpaceOnUse">
<stop stop-color="#2047F4"/>
<stop offset="1" stop-color="#4D6CF5"/>
</linearGradient>
<linearGradient id="paint7_linear_152_6068" x1="7.45058e-08" y1="20" x2="40" y2="20" gradientUnits="userSpaceOnUse">
<stop stop-color="#2047F4"/>
<stop offset="1" stop-color="#4D6CF5"/>
</linearGradient>
<linearGradient id="paint8_linear_152_6068" x1="7.45058e-08" y1="20" x2="40" y2="20" gradientUnits="userSpaceOnUse">
<stop stop-color="#2047F4"/>
<stop offset="1" stop-color="#4D6CF5"/>
</linearGradient>
<linearGradient id="paint9_linear_152_6068" x1="7.45058e-08" y1="20" x2="40" y2="20" gradientUnits="userSpaceOnUse">
<stop stop-color="#2047F4"/>
<stop offset="1" stop-color="#4D6CF5"/>
</linearGradient>
<linearGradient id="paint10_linear_152_6068" x1="7.45058e-08" y1="20" x2="40" y2="20" gradientUnits="userSpaceOnUse">
<stop stop-color="#2047F4"/>
<stop offset="1" stop-color="#4D6CF5"/>
</linearGradient>
<linearGradient id="paint11_linear_152_6068" x1="7.45058e-08" y1="20" x2="40" y2="20" gradientUnits="userSpaceOnUse">
<stop stop-color="#2047F4"/>
<stop offset="1" stop-color="#4D6CF5"/>
</linearGradient>
<linearGradient id="paint12_linear_152_6068" x1="7.45058e-08" y1="20" x2="40" y2="20" gradientUnits="userSpaceOnUse">
<stop stop-color="#2047F4"/>
<stop offset="1" stop-color="#4D6CF5"/>
</linearGradient>
<linearGradient id="paint13_linear_152_6068" x1="7.45058e-08" y1="20" x2="40" y2="20" gradientUnits="userSpaceOnUse">
<stop stop-color="#2047F4"/>
<stop offset="1" stop-color="#4D6CF5"/>
</linearGradient>
<linearGradient id="paint14_linear_152_6068" x1="7.45058e-08" y1="20" x2="40" y2="20" gradientUnits="userSpaceOnUse">
<stop stop-color="#2047F4"/>
<stop offset="1" stop-color="#4D6CF5"/>
</linearGradient>
<linearGradient id="paint15_linear_152_6068" x1="7.45058e-08" y1="20" x2="40" y2="20" gradientUnits="userSpaceOnUse">
<stop stop-color="#2047F4"/>
<stop offset="1" stop-color="#4D6CF5"/>
</linearGradient>
<linearGradient id="paint16_linear_152_6068" x1="7.45058e-08" y1="20" x2="40" y2="20" gradientUnits="userSpaceOnUse">
<stop stop-color="#2047F4"/>
<stop offset="1" stop-color="#4D6CF5"/>
</linearGradient>
<linearGradient id="paint17_linear_152_6068" x1="7.45058e-08" y1="20" x2="40" y2="20" gradientUnits="userSpaceOnUse">
<stop stop-color="#2047F4"/>
<stop offset="1" stop-color="#4D6CF5"/>
</linearGradient>
<linearGradient id="paint18_linear_152_6068" x1="7.45058e-08" y1="20" x2="40" y2="20" gradientUnits="userSpaceOnUse">
<stop stop-color="#2047F4"/>
<stop offset="1" stop-color="#4D6CF5"/>
</linearGradient>
<linearGradient id="paint19_linear_152_6068" x1="7.45058e-08" y1="20" x2="40" y2="20" gradientUnits="userSpaceOnUse">
<stop stop-color="#2047F4"/>
<stop offset="1" stop-color="#4D6CF5"/>
</linearGradient>
<linearGradient id="paint20_linear_152_6068" x1="7.45058e-08" y1="20" x2="40" y2="20" gradientUnits="userSpaceOnUse">
<stop stop-color="#2047F4"/>
<stop offset="1" stop-color="#4D6CF5"/>
</linearGradient>
</defs>
</svg>
