<svg width="16" height="16" viewBox="0 0 16 16" fill="none" xmlns="http://www.w3.org/2000/svg">
<g id="Icon / help-circle">
<path id="Vector" d="M8 1C6.61553 1 5.26216 1.41054 4.11101 2.17971C2.95987 2.94888 2.06266 4.04213 1.53285 5.32122C1.00303 6.6003 0.86441 8.00776 1.13451 9.36563C1.4046 10.7235 2.07129 11.9708 3.05026 12.9497C4.02922 13.9287 5.2765 14.5954 6.63437 14.8655C7.99224 15.1356 9.3997 14.997 10.6788 14.4672C11.9579 13.9373 13.0511 13.0401 13.8203 11.889C14.5895 10.7378 15 9.38447 15 8C14.998 6.14409 14.2599 4.36475 12.9476 3.05242C11.6353 1.74009 9.85592 1.00196 8 1ZM8 12.3077C7.84026 12.3077 7.6841 12.2603 7.55127 12.1716C7.41845 12.0828 7.31492 11.9567 7.25379 11.8091C7.19266 11.6615 7.17666 11.4991 7.20783 11.3424C7.23899 11.1857 7.31592 11.0418 7.42888 10.9289C7.54183 10.8159 7.68575 10.739 7.84243 10.7078C7.99911 10.6767 8.16151 10.6927 8.30909 10.7538C8.45668 10.8149 8.58282 10.9184 8.67157 11.0513C8.76032 11.1841 8.80769 11.3403 8.80769 11.5C8.80769 11.7142 8.7226 11.9197 8.57113 12.0711C8.41965 12.2226 8.21422 12.3077 8 12.3077ZM8.53846 9.02846V9.07692C8.53846 9.21973 8.48173 9.35669 8.38075 9.45767C8.27977 9.55865 8.14281 9.61538 8 9.61538C7.85719 9.61538 7.72023 9.55865 7.61925 9.45767C7.51827 9.35669 7.46154 9.21973 7.46154 9.07692V8.53846C7.46154 8.39565 7.51827 8.25869 7.61925 8.15771C7.72023 8.05673 7.85719 8 8 8C8.89048 8 9.61539 7.39423 9.61539 6.65385C9.61539 5.91346 8.89048 5.30769 8 5.30769C7.10952 5.30769 6.38462 5.91346 6.38462 6.65385V6.92308C6.38462 7.06588 6.32789 7.20284 6.22691 7.30383C6.12592 7.40481 5.98897 7.46154 5.84616 7.46154C5.70335 7.46154 5.56639 7.40481 5.46541 7.30383C5.36443 7.20284 5.30769 7.06588 5.30769 6.92308V6.65385C5.30769 5.31779 6.51519 4.23077 8 4.23077C9.48481 4.23077 10.6923 5.31779 10.6923 6.65385C10.6923 7.82365 9.76616 8.80298 8.53846 9.02846Z" fill="white"/>
</g>
</svg>
