<svg width="64" height="64" viewBox="0 0 64 64" fill="none" xmlns="http://www.w3.org/2000/svg">
<path d="M61.0499 61.5H58.3083V21.692C58.3083 19.8392 56.8008 18.3318 54.9481 18.3318H48.8201C46.9672 18.3318 45.4598 19.8393 45.4598 21.692V61.5H38.4983V39.7282C38.4983 37.8753 36.9909 36.3679 35.1381 36.3679H29.0101C27.1572 36.3679 25.6498 37.8754 25.6498 39.7282V61.5H18.6883V50.2245C18.6883 48.3717 17.1808 46.8643 15.3281 46.8643H9.19995C7.34707 46.8643 5.83969 48.3718 5.83969 50.2245V61.5H2.9502C2.25982 61.5 1.7002 62.0597 1.7002 62.75C1.7002 63.4404 2.25982 64 2.9502 64H61.0499C61.7403 64 62.2999 63.4404 62.2999 62.75C62.2999 62.0597 61.7403 61.5 61.0499 61.5ZM16.1881 61.5H8.33957V50.2245C8.33957 49.7502 8.72545 49.3643 9.19982 49.3643H15.3278C15.8022 49.3643 16.1881 49.7502 16.1881 50.2245V61.5ZM35.9982 61.5H28.1497V39.7282C28.1497 39.2538 28.5356 38.8679 29.0099 38.8679H35.1379C35.6122 38.8679 35.9982 39.2538 35.9982 39.7282V61.5ZM55.8083 61.5H47.9598V21.692C47.9598 21.2177 48.3457 20.8318 48.8201 20.8318H54.9481C55.4224 20.8318 55.8083 21.2177 55.8083 21.692V61.5Z" fill="url(#paint0_linear)"/>
<path d="M58.3049 1.3145C58.3224 0.973375 58.2024 0.6265 57.9419 0.366C57.6814 0.1055 57.3346 -0.014625 56.9934 0.003C56.9733 0.002125 56.9534 0 56.9329 0H49.3704C48.6801 0 48.1204 0.559625 48.1204 1.25C48.1204 1.94037 48.6801 2.5 49.3704 2.5H54.0401L41.6829 14.8573L37.0229 10.1973C36.7886 9.96288 36.4706 9.83113 36.1391 9.83113C35.8076 9.83113 35.4896 9.96288 35.2552 10.1973L12.7841 32.6685C12.2959 33.1566 12.2959 33.9481 12.7841 34.4364C13.0282 34.6802 13.3481 34.8022 13.6679 34.8022C13.9878 34.8022 14.3078 34.6803 14.5518 34.4361L36.1391 12.8488L40.7991 17.5088C41.2872 17.9969 42.0787 17.9969 42.5669 17.5088L55.8079 4.26788V8.49413C55.8079 9.1845 56.3676 9.74413 57.0579 9.74413C57.7483 9.74413 58.3079 9.1845 58.3079 8.49413V1.375C58.3079 1.35462 58.3058 1.33475 58.3049 1.3145Z" fill="url(#paint1_linear)"/>
<path d="M9.45557 39.1636C10.1459 39.1636 10.7056 38.6039 10.7056 37.9136C10.7056 37.2232 10.1459 36.6636 9.45557 36.6636C8.76521 36.6636 8.20557 37.2232 8.20557 37.9136C8.20557 38.6039 8.76521 39.1636 9.45557 39.1636Z" fill="url(#paint2_linear)"/>
<defs>
<linearGradient id="paint0_linear" x1="1.7002" y1="41.1659" x2="62.2999" y2="41.1659" gradientUnits="userSpaceOnUse">
<stop stop-color="#4E2267"/>
<stop offset="1" stop-color="#9441C4"/>
</linearGradient>
<linearGradient id="paint1_linear" x1="12.418" y1="17.4011" x2="58.3079" y2="17.4011" gradientUnits="userSpaceOnUse">
<stop stop-color="#4E2267"/>
<stop offset="1" stop-color="#9441C4"/>
</linearGradient>
<linearGradient id="paint2_linear" x1="8.20557" y1="37.9136" x2="10.7056" y2="37.9136" gradientUnits="userSpaceOnUse">
<stop stop-color="#4E2267"/>
<stop offset="1" stop-color="#9441C4"/>
</linearGradient>
</defs>
</svg>
