<svg width="54" height="54" viewBox="0 0 54 54" fill="none" xmlns="http://www.w3.org/2000/svg">
<rect width="54" height="54" rx="27" fill="#0D4EE3"/>
<g clip-path="url(#clip0_387_22556)">
<path fill-rule="evenodd" clip-rule="evenodd" d="M20.8672 39.8009C20.8672 40.0954 21.106 40.3343 21.4005 40.3343H33.1338C33.4284 40.3343 33.6672 40.0955 33.6672 39.8009C33.6672 39.5063 33.4284 39.2676 33.1338 39.2676H21.4005C21.106 39.2676 20.8672 39.5063 20.8672 39.8009Z" fill="white"/>
<path d="M32.0668 26.4675C32.9504 26.4675 33.6667 25.7512 33.6667 24.8676C33.6667 23.9839 32.9504 23.2676 32.0668 23.2676C31.1831 23.2676 30.4668 23.9839 30.4668 24.8676C30.4668 25.7512 31.1831 26.4675 32.0668 26.4675ZM32.0668 24.3342C32.3613 24.3342 32.6001 24.573 32.6001 24.8676C32.6001 25.1621 32.3613 25.4009 32.0668 25.4009C31.7722 25.4009 31.5334 25.1621 31.5334 24.8676C31.5334 24.573 31.7722 24.3342 32.0668 24.3342Z" fill="white"/>
<path d="M32.0668 29.666C31.1831 29.666 30.4668 30.3824 30.4668 31.266C30.4668 32.1497 31.1831 32.866 32.0668 32.866C32.9504 32.866 33.6667 32.1496 33.6667 31.266C33.6668 30.3824 32.9504 29.666 32.0668 29.666ZM32.0668 31.7993C31.7722 31.7993 31.5334 31.5606 31.5334 31.266C31.5334 30.9714 31.7722 30.7326 32.0668 30.7326C32.3613 30.7326 32.6001 30.9714 32.6001 31.266C32.6001 31.5606 32.3613 31.7993 32.0668 31.7993Z" fill="white"/>
<path d="M38.4672 26.4675C39.3508 26.4675 40.0671 25.7512 40.0671 24.8676C40.0671 23.9839 39.3508 23.2676 38.4672 23.2676C37.5835 23.2676 36.8672 23.9839 36.8672 24.8676C36.8671 25.7512 37.5835 26.4675 38.4672 26.4675ZM38.4672 24.3342C38.7617 24.3342 39.0005 24.573 39.0005 24.8676C39.0005 25.1621 38.7617 25.4009 38.4672 25.4009C38.1726 25.4009 37.9338 25.1621 37.9338 24.8676C37.9338 24.573 38.1726 24.3342 38.4672 24.3342Z" fill="white"/>
<path d="M38.4672 29.666C37.5835 29.666 36.8672 30.3824 36.8672 31.266C36.8672 32.1497 37.5835 32.866 38.4672 32.866C39.3508 32.866 40.0671 32.1496 40.0671 31.266C40.0671 30.3824 39.3508 29.666 38.4672 29.666ZM38.4672 31.7993C38.1726 31.7993 37.9338 31.5606 37.9338 31.266C37.9338 30.9714 38.1726 30.7326 38.4672 30.7326C38.7617 30.7326 39.0005 30.9714 39.0005 31.266C39.0005 31.5606 38.7617 31.7993 38.4672 31.7993Z" fill="white"/>
<path d="M33.668 28.0668C33.668 28.9504 34.3843 29.6667 35.2679 29.6667C36.1516 29.6667 36.8679 28.9504 36.8679 28.0668C36.8679 27.1831 36.1516 26.4668 35.2679 26.4668C34.3843 26.4668 33.668 27.1831 33.668 28.0668ZM35.8013 28.0668C35.8013 28.3613 35.5625 28.6001 35.2679 28.6001C34.9734 28.6001 34.7346 28.3613 34.7346 28.0668C34.7346 27.7722 34.9734 27.5334 35.2679 27.5334C35.5625 27.5334 35.8013 27.7722 35.8013 28.0668Z" fill="white"/>
<path d="M16.7736 31.2666H13.9347C13.6401 31.2666 13.4014 31.5054 13.4014 31.8C13.4014 32.0945 13.6401 32.3333 13.9347 32.3333H17.8403L19.4403 33.9333H15.5347C15.2402 33.9333 15.0014 34.1721 15.0014 34.4666C15.0014 34.7612 15.2402 35 15.5347 35H17.668V39.2667C17.6704 41.3275 19.3405 42.9976 21.4014 43H33.1347C35.1956 42.9976 36.8657 41.3276 36.868 39.2667V35H40.068C41.2462 35 42.2014 34.0449 42.2014 32.8667V23.2667C42.2014 22.0885 41.2462 21.1333 40.068 21.1333H36.868V14.7333C36.8657 12.6724 35.1956 11.0024 33.1347 11H21.4014C19.3405 11.0024 17.6704 12.6724 17.668 14.7333V19.7045L12.9747 24.4037C12.5671 24.8086 12.3379 25.3594 12.3379 25.9338C12.3379 26.5084 12.5671 27.0591 12.9747 27.4639L16.7736 31.2666ZM28.6307 33.9333H23.363L28.3347 28.9658V32.8667C28.3365 33.2422 28.4387 33.6105 28.6307 33.9333ZM35.8014 39.2667C35.7996 40.7387 34.6067 41.9316 33.1347 41.9333H21.4014C19.9294 41.9315 18.7365 40.7387 18.7347 39.2667V35H21.3854H21.4014H21.4174H30.4553H30.468H35.8014V39.2667ZM41.1347 23.2667V32.8667C41.1347 33.4558 40.6571 33.9333 40.068 33.9333H34.2078H34.2013H30.4552C29.8711 33.9263 29.4013 33.4508 29.4013 32.8667V27.6789V23.2667C29.4013 22.6776 29.8789 22.2 30.468 22.2H40.068C40.6571 22.2 41.1347 22.6776 41.1347 23.2667ZM32.347 12.0667L31.9736 12.9963C31.813 13.4016 31.4208 13.6675 30.9848 13.6667H23.5512C23.1146 13.6682 22.7216 13.4021 22.5608 12.9963L22.189 12.0667H32.347ZM18.7347 14.7333C18.7388 13.3988 19.7307 12.2735 21.0542 12.1019L21.5704 13.3925C21.8922 14.2042 22.6781 14.7362 23.5512 14.7333H30.9849C31.858 14.7362 32.6439 14.2042 32.9656 13.3925L33.4819 12.1019C34.8054 12.2735 35.7973 13.3987 35.8014 14.7333V21.1333H30.468C29.4206 21.1371 28.5309 21.9008 28.3683 22.9355L22.9283 17.4981C22.0831 16.6549 20.7148 16.6549 19.8696 17.4981L18.7347 18.6368V14.7333ZM13.7251 25.1595L20.6264 18.2533C21.0606 17.8406 21.7421 17.8406 22.1763 18.2533L28.3347 24.4112V27.4576L22.1747 33.6133C21.7432 34.0297 21.0595 34.0297 20.628 33.6133L18.4435 31.4267L18.4349 31.4187L13.7214 26.7083C13.5154 26.5036 13.3996 26.2253 13.3996 25.9349C13.3996 25.6446 13.5154 25.3663 13.7214 25.1616L13.7251 25.1595Z" fill="white"/>
<path d="M21.4005 23.2664C21.8251 23.2676 22.2326 23.099 22.5322 22.7982C22.8323 22.4981 23.001 22.0911 23.001 21.6667C23.001 21.2423 22.8324 20.8353 22.5322 20.5353C21.899 19.931 20.9026 19.931 20.2693 20.5353C19.8118 20.9928 19.675 21.6809 19.9226 22.2787C20.1702 22.8764 20.7535 23.2663 21.4005 23.2664ZM21.0272 21.2931C21.1604 21.1513 21.3602 21.0932 21.5487 21.1416C21.7372 21.1901 21.8843 21.3373 21.9326 21.5258C21.9809 21.7143 21.9227 21.9141 21.7808 22.0472C21.5699 22.2492 21.2374 22.2492 21.0266 22.0472C20.8184 21.8389 20.8184 21.5013 21.0266 21.2931L21.0272 21.2931Z" fill="white"/>
<path d="M21.4005 31.7996C21.8251 31.8008 22.2326 31.6322 22.5322 31.3314C22.8323 31.0313 23.001 30.6243 23.001 30.1999C23.001 29.7755 22.8324 29.3685 22.5322 29.0685C21.899 28.4642 20.9026 28.4642 20.2693 29.0685C19.8118 29.526 19.675 30.2141 19.9226 30.8119C20.1702 31.4096 20.7535 31.7995 21.4005 31.7996ZM21.0272 29.8263C21.1604 29.6845 21.3602 29.6264 21.5487 29.6748C21.7372 29.7233 21.8843 29.8705 21.9326 30.059C21.9809 30.2475 21.9227 30.4473 21.7808 30.5804C21.5699 30.7824 21.2374 30.7824 21.0266 30.5804C20.8184 30.3721 20.8184 30.0345 21.0266 29.8263H21.0272V29.8263Z" fill="white"/>
<path d="M24.5371 27.0658C25.162 27.6907 26.1751 27.6907 26.8 27.0658C27.4249 26.4409 27.4249 25.4277 26.8 24.8028C26.1668 24.1985 25.1704 24.1985 24.5371 24.8028C24.237 25.1029 24.0684 25.5099 24.0684 25.9343C24.0684 26.3587 24.237 26.7657 24.5371 27.0658ZM25.2939 25.5596C25.4271 25.4178 25.627 25.3597 25.8154 25.4082C26.0039 25.4566 26.151 25.6038 26.1993 25.7923C26.2476 25.9808 26.1894 26.1806 26.0475 26.3137C25.8367 26.5153 25.5046 26.5153 25.2939 26.3137C25.0857 26.1055 25.0857 25.7679 25.2939 25.5596Z" fill="white"/>
<path d="M16.0039 27.0658C16.6288 27.6907 17.6419 27.6907 18.2668 27.0658C18.8917 26.4409 18.8917 25.4277 18.2668 24.8028C17.6336 24.1985 16.6372 24.1985 16.0039 24.8028C15.7038 25.1029 15.5352 25.5099 15.5352 25.9343C15.5352 26.3587 15.7038 26.7657 16.0039 27.0658ZM16.7607 25.5596C16.8939 25.4178 17.0937 25.3597 17.2822 25.4082C17.4707 25.4566 17.6178 25.6038 17.6661 25.7923C17.7144 25.9808 17.6562 26.1806 17.5143 26.3137C17.3035 26.5153 16.9714 26.5153 16.7607 26.3137C16.5525 26.1055 16.5525 25.7679 16.7607 25.5596Z" fill="white"/>
<path fill-rule="evenodd" clip-rule="evenodd" d="M12.3341 35.0003H13.4008C13.6954 35.0003 13.9341 34.7615 13.9341 34.4669C13.9341 34.1724 13.6954 33.9336 13.4008 33.9336H12.3341C12.0395 33.9336 11.8008 34.1724 11.8008 34.4669C11.8008 34.7615 12.0395 35.0003 12.3341 35.0003Z" fill="white"/>
</g>
<defs>
<clipPath id="clip0_387_22556">
<rect width="32" height="32" fill="white" transform="translate(11 11)"/>
</clipPath>
</defs>
</svg>
