<svg width="16" height="16" viewBox="0 0 16 16" fill="none" xmlns="http://www.w3.org/2000/svg">
<path d="M3.70169 0.0275366C3.58644 0.044376 3.32203 0.414842 1.78983 2.60396C0.80678 4.00162 0.00677966 5.17195 0 5.18879C0 5.21405 0.813559 5.23089 1.81695 5.23089H3.64068L5.41017 2.66289C6.38644 1.25681 7.2 0.0780546 7.21356 0.0527956C7.24068 0.00227756 3.95932 -0.0229814 3.70169 0.0275366Z" fill="black"/>
<path d="M8.8134 0.0456346C8.79984 0.062474 9.59984 1.24123 10.5761 2.66415L12.3659 5.24057H14.1829C15.1863 5.24057 15.9998 5.22373 15.9998 5.19847C15.9931 5.18163 15.1863 4.0113 14.1965 2.58837L12.3998 0.0203757L10.61 0.0119558C9.63374 0.00353615 8.82018 0.0203756 8.8134 0.0456346Z" fill="black"/>
<path d="M6.28467 2.69817C5.34908 4.04532 4.58297 5.17355 4.57619 5.19039C4.56941 5.20723 6.1084 5.23249 7.99992 5.23249C9.89145 5.23249 11.4372 5.22407 11.4372 5.20723C11.4372 5.18197 10.9491 4.47472 8.69823 1.22473C8.33213 0.694289 8.02026 0.256467 8.0067 0.248047C7.99314 0.248047 7.21348 1.35102 6.28467 2.69817Z" fill="black"/>
<path d="M0.298286 6.41161C0.447439 6.60526 1.97286 8.59231 3.68134 10.8319C5.38981 13.0716 6.79998 14.9071 6.81354 14.9071C6.84066 14.9071 6.80676 14.8313 5.17964 10.3857L3.60676 6.09167L1.81693 6.07483L0.0270996 6.06641L0.298286 6.41161Z" fill="black"/>
<path d="M4.36599 6.11692C4.43379 6.35267 7.98633 16.0016 7.99989 16.0016C8.02023 16.0016 11.5321 6.44529 11.6338 6.13376C11.6473 6.07483 11.0168 6.06641 7.99989 6.06641C5.78972 6.06641 4.35921 6.08325 4.36599 6.11692Z" fill="black"/>
<path d="M12.3389 6.2348C12.3118 6.32742 11.627 8.19658 10.827 10.3857C9.11178 15.0755 9.16602 14.9071 9.18636 14.9071C9.19314 14.9071 10.6033 13.08 12.3186 10.8404C14.0338 8.60073 15.5525 6.61368 15.7016 6.41161L15.9728 6.06641H14.1897H12.3999L12.3389 6.2348Z" fill="black"/>
</svg>
