<svg width="28" height="28" viewBox="0 0 28 28" fill="none" xmlns="http://www.w3.org/2000/svg">
<path d="M27.4361 11.7783L24.9682 6.21534L25.1675 4.50952C25.1851 4.35125 25.1089 4.19884 24.9682 4.11091C24.9037 4.06988 24.8275 4.05815 24.7454 4.05815C23.9775 4.06988 23.2272 4.79089 22.9048 5.14847C22.2834 5.05468 21.6679 5.08985 21.07 5.24812C20.8414 5.30674 20.7124 5.55294 20.7945 5.7757C20.8649 5.96914 21.07 6.08052 21.2693 6.02776C21.8203 5.88121 22.3948 5.86363 22.981 5.98086C23.1276 6.01017 23.2741 5.95742 23.3679 5.84018C23.5789 5.58225 23.9424 5.22468 24.2999 5.01951L24.1827 6.0219C23.5555 6.37361 21.6562 7.60461 20.9762 9.91421C20.8942 10.0783 20.648 10.6235 20.648 11.4266C20.648 11.7842 20.6949 12.1417 20.7886 12.5052C19.7804 12.6283 18.5611 12.4935 17.166 12.0948C17.4298 11.8076 17.5705 11.4383 17.5587 11.0514C17.547 10.6821 17.4122 10.3421 17.166 10.0783C17.7287 8.99389 18.5904 7.65737 19.7335 6.79567C19.9035 6.66671 19.9445 6.43223 19.8273 6.25637C19.6983 6.06293 19.4345 6.01604 19.2528 6.15672C18.4732 6.74878 17.4591 7.80392 16.486 9.65042C16.3394 9.60939 16.187 9.58594 16.0288 9.59181L13.9009 9.6387L12.9219 7.25876C12.9219 7.25876 12.9161 7.24118 12.9102 7.22945L12.6523 6.7136C12.8106 6.73705 12.9688 6.74878 13.133 6.74878C14.704 6.74878 16.0053 5.56467 16.1929 4.04057L16.7498 4.13436C16.7498 4.13436 16.7967 4.13436 16.8201 4.13436C17.0253 4.13436 17.2012 3.97609 17.2187 3.76506C17.2363 3.55403 17.0781 3.37231 16.8729 3.33714L16.187 3.2199C15.976 1.72511 14.6864 0.570312 13.133 0.570312C12.1892 0.570312 11.3392 0.998233 10.7765 1.67235C10.6475 1.61373 10.4893 1.55511 10.3134 1.50822C9.66858 1.34409 9.09998 1.48477 8.67792 1.90097C7.89242 2.68647 7.37071 2.79784 7.00141 2.79784C6.84314 2.79784 6.69073 2.88577 6.62039 3.03232C6.53832 3.21404 6.6028 3.43093 6.76693 3.53644C6.84314 3.5892 8.17966 4.43918 9.41066 4.43918C9.65686 4.43918 9.8972 4.40401 10.1258 4.32194C10.2196 4.75572 10.4072 5.15433 10.6651 5.49432C10.1903 5.59984 9.78582 5.91052 9.55721 6.36189C9.48687 6.50844 9.41066 6.65498 9.33446 6.80739C9.24066 7.0067 9.31101 7.2529 9.50445 7.35255C9.70376 7.45807 9.94996 7.376 10.0496 7.17083C10.1258 7.01842 10.202 6.86601 10.2724 6.7136C10.413 6.43223 10.7003 6.25637 11.0168 6.25637C11.3392 6.25637 11.6147 6.42637 11.7613 6.7136L12.1833 7.55772L13.2619 10.178C13.3264 10.3304 13.4788 10.4301 13.643 10.4242L14.915 10.3949V11.7842L13.344 11.8193L12.9219 11.8311C12.6816 11.8369 12.4589 11.7197 12.3299 11.5204C12.3064 11.4852 12.283 11.4442 12.2654 11.4031L10.8879 8.05012C10.8058 7.84495 10.5713 7.7453 10.3662 7.83323C10.161 7.9153 10.0613 8.14977 10.1493 8.35494L11.0754 10.6059L8.74826 10.3714C8.90654 9.83801 9.14687 9.16389 9.52204 8.31977C9.60997 8.12046 9.53376 7.87426 9.33446 7.78047C9.12929 7.68082 8.88309 7.77461 8.79516 7.97978C7.94518 9.90249 7.59933 11.2449 7.72829 12.1183C7.64622 12.1476 7.56416 12.1769 7.48795 12.2121C7.08934 11.4969 6.38591 10.6704 5.1256 10.178C4.18769 9.8087 3.26151 9.92007 2.51704 10.4945C1.48535 11.2976 0.928464 12.8862 1.12777 14.4513C1.38569 16.4678 0.617782 17.4937 0.588472 17.5288C0.500544 17.6402 0.477096 17.7926 0.529853 17.9275C0.58261 18.0623 0.699849 18.1561 0.840535 18.1795C0.858121 18.1795 1.01639 18.203 1.25673 18.203C1.72568 18.203 2.4936 18.115 3.05634 17.5992C3.54874 17.1537 3.77736 16.4971 3.73046 15.653C3.68943 14.8324 4.08218 14.0703 4.69182 13.7948C5.09043 13.6131 5.52421 13.6834 5.91696 13.9882C5.91696 14 5.9111 14.0058 5.90523 14.0176C5.20766 15.7761 5.62386 17.0364 6.09281 17.7868C6.33902 18.1795 6.62039 18.4726 6.85486 18.6719C5.93454 19.2522 5.03767 18.7188 4.99664 18.6895C4.85009 18.5957 4.66251 18.6074 4.52768 18.7188L3.61908 19.4691C3.46081 19.5981 3.42564 19.8267 3.53702 19.9967C4.59802 21.5912 5.0025 22.9453 4.70354 23.9183C4.44562 24.7625 3.74805 25.0555 3.7246 25.0673C3.57219 25.1259 3.46667 25.2783 3.47254 25.4542C3.47254 25.5304 3.50185 25.6007 3.53702 25.6593L4.43389 27.0838C4.48665 27.1717 4.57458 27.242 4.67423 27.2714C4.7094 27.2831 4.74457 27.2831 4.77974 27.2831C4.8794 27.2831 4.97319 27.2479 5.04939 27.1776C6.98383 25.4248 6.80211 22.8925 6.55591 21.6439C7.28278 21.8784 7.92173 21.9956 8.46689 21.9956C9.13515 21.9956 10.4072 21.7436 11.5385 20.1081H14.7274C14.9502 20.1081 15.126 19.9264 15.126 19.7095V19.264C15.126 19.264 15.126 19.2464 15.126 19.2347C15.3957 19.2464 15.6595 19.2698 15.9174 19.305L17.9163 21.3039H17.418L16.1343 20.3191C15.976 20.196 15.7474 20.2136 15.6067 20.3543L14.2233 21.7377C14.1588 21.8022 14.1119 21.8843 14.1002 21.9722C14.0767 22.1539 14.1705 22.318 14.3229 22.3942L16.3453 23.3497C16.3922 23.3732 16.4391 23.3849 16.4919 23.3908C16.5153 23.3908 16.5446 23.3908 16.5681 23.3908L21.8028 22.8573C21.9493 22.8397 22.0783 22.746 22.131 22.6111C22.1896 22.4763 22.1662 22.318 22.0724 22.2067L20.6831 20.4833C21.7793 20.6005 22.7934 20.6181 23.3386 20.6181V22.9687L22.1193 23.3615C21.9434 23.4201 21.8262 23.5901 21.8438 23.7718L22.0021 25.8528C22.0138 25.9759 22.0783 26.0872 22.1779 26.1576C22.2424 26.2045 22.3186 26.2221 22.4007 26.2221C22.4417 26.2221 22.4886 26.2162 22.5296 26.2045C24.3996 25.5831 25.4606 24.1528 25.5954 22.0718C25.6951 20.5536 25.2613 19.2347 25.2437 19.1819C25.2027 19.0647 25.1147 18.9767 25.0034 18.9357L22.049 17.8278C22.1896 17.5757 22.3596 17.224 22.4886 16.8137C22.8462 15.653 22.7172 14.5217 22.1076 13.5427C22.0138 13.3903 21.9317 13.2438 21.8555 13.0914C22.2072 12.98 22.5296 12.8276 22.8286 12.6459C22.8462 12.6341 22.8638 12.6224 22.8814 12.6107C23.0338 12.6693 23.192 12.7221 23.3503 12.7631L24.2061 12.9683L24.3937 13.1559C24.9447 13.7069 25.8475 13.7069 26.3985 13.1559L27.3364 12.2179C27.4536 12.1007 27.4888 11.9248 27.4185 11.7724L27.4361 11.7783ZM10.2782 2.52233C10.2782 2.52233 10.2606 2.5575 10.2548 2.57509C10.1493 2.85646 10.0789 3.16128 10.0613 3.47782C9.63341 3.77678 8.96515 3.64782 8.46103 3.47782C8.34379 3.43679 8.22655 3.3899 8.11518 3.34886C8.49034 3.16128 8.8655 2.87991 9.25239 2.48716C9.58066 2.15889 10.0379 2.24682 10.3427 2.36992C10.3193 2.41682 10.2958 2.46957 10.2782 2.52233ZM13.1388 1.39098C14.1998 1.39098 15.0909 2.11786 15.3488 3.0968L11.2513 2.39923C11.6616 1.79545 12.3592 1.39098 13.1447 1.39098H13.1388ZM10.9641 4.36297C10.8937 4.14608 10.8586 3.91161 10.8586 3.67127C10.8586 3.48955 10.882 3.31955 10.9172 3.14956L11.8492 3.30783L10.9641 4.36297ZM11.3744 5.11916L12.7637 3.4661L14.024 3.68299L13.9536 4.03471C13.9068 4.2516 14.0474 4.46263 14.2643 4.50952C14.2936 4.50952 14.3171 4.51538 14.3464 4.51538C14.534 4.51538 14.6981 4.38642 14.7391 4.19298L14.8153 3.81195L15.4133 3.91161C15.2902 5.05468 14.3229 5.95155 13.1447 5.95155C12.4354 5.95155 11.8023 5.62329 11.3803 5.11916H11.3744ZM24.3703 6.84257L25.8709 10.2308C25.7478 10.3128 25.6013 10.4242 25.4371 10.5649C24.3644 9.85559 23.4089 8.49563 23.0455 7.93288C23.5379 7.41117 24.042 7.04773 24.3703 6.84257ZM15.7239 10.4008H16.0522C16.2398 10.389 16.4098 10.4535 16.5446 10.5825C16.6794 10.7114 16.7556 10.8814 16.7615 11.0631C16.7615 11.2507 16.697 11.4207 16.5681 11.5555C16.4391 11.6904 16.2691 11.7666 16.0815 11.7724H15.7181V10.3949L15.7239 10.4008ZM4.36941 13.0796C3.44909 13.49 2.87462 14.5451 2.93324 15.7116C2.96255 16.3037 2.82773 16.7433 2.52291 17.0247C2.25326 17.2709 1.88396 17.3706 1.57327 17.4057C1.8312 16.802 2.10085 15.7879 1.91913 14.3693C1.75499 13.0972 2.20636 11.7724 3.00944 11.1511C3.53116 10.7466 4.14666 10.6763 4.8325 10.9459C5.90523 11.368 6.49143 12.0773 6.81383 12.6752C6.62039 12.8452 6.45039 13.0503 6.29798 13.2907C5.6942 12.8803 5.00836 12.8041 4.37527 13.0855L4.36941 13.0796ZM4.85595 26.2572L4.43975 25.5948C4.59802 25.4835 4.77974 25.3369 4.94974 25.1318L5.40111 25.4483C5.2487 25.7355 5.06698 26.0052 4.85595 26.2514V26.2572ZM10.8351 19.6684C10.8351 19.6684 10.8351 19.7212 10.8351 19.7447C10.3779 20.3777 9.56893 21.2043 8.47862 21.2043C7.86311 21.2043 7.08348 21.0225 6.1573 20.6591C6.01075 20.5946 5.83489 20.6239 5.71179 20.7412C5.63558 20.8174 5.59455 20.9229 5.59455 21.0225C5.59455 21.0694 5.60041 21.1163 5.618 21.1574C5.64731 21.2512 5.91109 22.0777 5.91696 23.1446C5.91696 23.6956 5.85248 24.2056 5.71765 24.6745L5.38352 24.44C5.41869 24.358 5.45387 24.2701 5.48317 24.1763C5.84661 23.0156 5.48904 21.5618 4.42217 19.8619L4.85009 19.5102C5.54179 19.815 6.76694 19.985 7.81036 18.9416C7.89829 18.8536 7.93932 18.7305 7.92173 18.6074C7.90415 18.4843 7.8338 18.373 7.72243 18.3143C7.6345 18.2616 5.58869 17.0423 6.66728 14.3224C6.98383 13.5252 7.41761 13.0621 8.02139 12.8803C8.78343 14.0762 10.6417 14.5275 11.4682 14.6741L10.841 19.6626L10.8351 19.6684ZM8.58999 12.2648C8.51379 12.0948 8.46103 11.7724 8.56654 11.1745L11.4272 11.4618L11.5327 11.7255C11.5678 11.8135 11.6147 11.9014 11.6675 11.9835C11.9547 12.4173 12.4354 12.6635 12.9513 12.6517H13.2385L13.4378 12.7866C13.7133 12.9741 13.8599 13.3024 13.8305 13.6307L13.6078 15.3423H12.1775L12.2947 14.3927C12.3064 14.2872 12.2771 14.1758 12.2127 14.0938C12.1482 14.0117 12.0485 13.9531 11.943 13.9413C11.1751 13.8593 9.07067 13.3962 8.58413 12.2648H8.58999ZM14.3405 19.3167H11.6909L12.0896 16.1396H13.514L13.2561 18.1326C13.2385 18.2499 13.2737 18.3612 13.3499 18.4492C13.4261 18.5371 13.5375 18.584 13.6488 18.584C14.0299 18.584 14.3347 18.8947 14.3347 19.2698V19.3109L14.3405 19.3167ZM16.3863 22.4763L15.2022 21.9136L15.9408 21.175L16.7732 21.8139L16.3863 22.4763ZM21.0055 22.1363L17.2891 22.5173L17.5236 22.1129H18.8952C19.0594 22.1129 19.2059 22.0132 19.2645 21.8667C19.329 21.7143 19.2939 21.5443 19.1766 21.427L17.4708 19.7212C17.5177 19.7388 17.5646 19.7622 17.6115 19.7798C18.1684 20.0202 18.8425 20.196 19.5342 20.3191L20.9997 22.1363H21.0055ZM22.7817 25.2549L22.6879 24.0297L23.5731 23.7425L23.9424 24.3932C23.6375 24.7507 23.2507 25.038 22.7817 25.2549ZM21.1462 17.7809C21.07 17.8806 21.0407 18.0154 21.0759 18.1385C21.111 18.2616 21.199 18.3612 21.3221 18.4023L24.552 19.6157C24.6575 20.0084 24.8861 20.9874 24.8099 22.0425C24.7689 22.6463 24.6399 23.1739 24.4289 23.6311L24.1593 23.1563V20.2195C24.1593 20.114 24.1182 20.0084 24.0361 19.9322C23.9599 19.856 23.8544 19.815 23.7431 19.8209C23.702 19.8209 19.9094 19.9146 17.928 19.0529C17.0136 18.6543 15.9877 18.4492 14.874 18.4433C14.6864 18.1678 14.4109 17.9626 14.0943 17.863L14.6336 13.7303C14.6336 13.7303 14.6336 13.7245 14.6336 13.7186C14.6688 13.3258 14.575 12.9448 14.3698 12.6224L16.0346 12.5814C17.547 13.0972 18.8835 13.361 20.0383 13.361C20.4018 13.361 20.7418 13.3376 21.0642 13.2848C21.1697 13.5134 21.2928 13.742 21.4335 13.9707C22.6 15.8406 21.1931 17.7106 21.1345 17.7868L21.1462 17.7809ZM21.58 12.341C21.4979 12.0362 21.451 11.7314 21.451 11.4324C21.6269 11.7021 21.8438 11.9366 22.0959 12.1417C21.9317 12.2179 21.7617 12.2883 21.58 12.341ZM22.8169 11.6728C22.2717 11.3211 21.8848 10.7583 21.7676 10.0901C21.9434 9.50974 22.2131 9.00561 22.5179 8.57183C22.7934 8.97631 23.2272 9.57422 23.7606 10.1428C23.6844 10.4535 23.45 11.1159 22.8169 11.6669V11.6728ZM24.2003 12.1359L23.6317 12.0011C24.0303 11.579 24.2648 11.1276 24.4054 10.7642C24.5579 10.8932 24.7103 11.0163 24.8685 11.1276C24.6282 11.409 24.3937 11.7373 24.2003 12.13V12.1359ZM25.8533 12.5872C25.613 12.8276 25.2203 12.8276 24.9799 12.5872L24.9037 12.511C25.273 11.7549 25.8416 11.2449 26.2051 10.9694L26.5919 11.8428L25.8475 12.5872H25.8533Z" fill="#000C28"/>
</svg>
