<svg width="40" height="40" viewBox="0 0 40 40" fill="none" xmlns="http://www.w3.org/2000/svg">
<path d="M20 40C31.0457 40 40 31.0457 40 20C40 8.9543 31.0457 0 20 0C8.9543 0 0 8.9543 0 20C0 31.0457 8.9543 40 20 40Z" fill="#0A4586"/>
<path d="M19.9993 39.9997C27.6437 39.9997 34.2882 35.7108 37.666 29.3775L24.3549 16.0664L14.7326 16.8442L7.04375 34.5331L6.84375 35.0442C10.3549 38.1331 14.9549 39.9997 19.9993 39.9997Z" fill="#093B73"/>
<path d="M21.0231 14.2001C20.8675 14.0001 19.9342 13.6001 19.7564 13.3112C17.1786 9.33346 12.2009 8.4668 12.2009 8.4668C12.2009 8.4668 12.512 11.6446 13.7342 13.2001C12.512 13.2224 11.8231 13.7779 10.2675 15.489C8.71198 17.2224 3.86753 24.6001 2.48976 26.689C2.24531 27.0668 1.88976 27.3335 1.46753 27.489H1.44531C3.71198 33.1112 8.48976 37.489 14.3786 39.2001C14.7786 38.4001 15.0009 37.6001 14.9786 36.8224C14.8009 29.7335 14.2898 23.8668 15.912 23.3779C16.0231 23.3335 16.1342 23.3112 16.2453 23.289C16.2675 23.3335 16.312 23.3779 16.3342 23.4224C17.8898 25.4668 20.1564 24.4001 20.1564 24.4001C20.1564 24.4001 20.9564 25.6668 22.5342 26.3557C24.112 27.0446 26.2009 27.5112 26.2009 27.5112C26.2009 27.5112 26.1564 28.689 27.312 28.5779C28.4898 28.4668 28.3786 27.289 28.3786 27.289C28.3786 27.289 29.0898 27.5557 29.6009 27.6668C30.112 27.7779 31.4231 25.4668 31.312 24.289C31.2231 23.3779 25.0231 17.089 21.0231 14.2001Z" fill="#3DA8FB"/>
<path d="M21.8215 14.8665C21.5104 14.6887 21.1548 14.4665 21.0882 14.3109C21.0659 14.2887 21.0659 14.2665 21.0437 14.2443C20.8215 14.0665 20.5993 13.8887 20.377 13.7332C20.2215 13.5332 19.2882 13.1332 19.1104 12.8443C18.8882 12.4887 18.6215 12.1776 18.3548 11.8887C15.9993 10.7109 13.5104 11.022 13.5104 11.022C13.5104 11.022 13.8437 12.6665 15.0659 14.2443C13.8437 14.2665 13.1548 14.822 11.5993 16.5332C10.2215 18.0665 6.28815 23.9776 4.44371 26.7998C3.86593 27.6887 2.99926 28.3776 2.02148 28.7554C3.51037 31.7998 5.7326 34.3998 8.48815 36.3554C9.9326 37.2887 11.4882 38.0443 13.1548 38.5776C13.4437 37.6887 13.5548 36.7554 13.4215 35.7776C12.4882 28.7554 13.6437 23.4443 15.2882 22.9554C15.3993 22.9109 15.5104 22.8887 15.6215 22.8665C15.6437 22.9109 15.6882 22.9554 15.7104 22.9998C17.2659 25.0443 19.5326 23.9776 19.5326 23.9776C19.5326 23.9776 20.1104 24.8887 21.2437 25.5776C21.4215 25.5109 21.5326 25.4665 21.5326 25.4665C21.5326 25.4665 21.6437 25.6443 21.8882 25.9109C23.4882 26.5998 25.577 27.0887 25.577 27.0887C25.577 27.0887 25.5326 28.2665 26.6882 28.1554C27.8659 28.0443 27.7548 26.8665 27.7548 26.8665C27.7548 26.8665 28.4659 27.1331 28.977 27.2443C29.4881 27.3554 30.7993 25.0443 30.6882 23.8665C30.5548 23.0443 25.7104 18.022 21.8215 14.8665Z" fill="white"/>
<path d="M22.4891 15.3113C22.1779 15.1335 21.8224 14.9113 21.7557 14.7558C21.7335 14.7335 21.7335 14.7113 21.7113 14.6891C21.4891 14.5113 21.2668 14.3335 21.0446 14.178C20.8891 13.978 19.9557 13.578 19.778 13.2891C19.5557 12.9335 19.2891 12.6224 19.0224 12.3335C16.6668 11.1558 14.178 11.4669 14.178 11.4669C14.178 11.4669 14.5113 13.1113 15.7335 14.6891C14.5113 14.7113 13.8224 15.2669 12.2668 16.978C10.8891 18.5113 6.95573 24.4224 5.11128 27.2446C4.46684 28.2446 3.48906 28.978 2.33351 29.3113H2.28906C4.68906 33.8669 8.80017 37.378 13.778 39.0002C14.0668 38.1113 14.178 37.178 14.0446 36.2002C13.1113 29.178 14.2668 23.8669 15.9113 23.378C16.0224 23.3335 16.1335 23.3113 16.2446 23.2891C16.2668 23.3335 16.3113 23.378 16.3335 23.4224C17.8891 25.4669 20.1557 24.4002 20.1557 24.4002C20.1557 24.4002 20.7335 25.3113 21.8668 26.0002C22.0446 25.9335 22.1557 25.8891 22.1557 25.8891C22.1557 25.8891 22.2668 26.0669 22.5113 26.3335C24.1113 27.0224 26.2002 27.5113 26.2002 27.5113C26.2002 27.5113 26.1557 28.6891 27.3113 28.578C28.4891 28.4669 28.378 27.2891 28.378 27.2891C28.378 27.2891 29.0891 27.5558 29.6002 27.6669C30.1113 27.778 31.4224 25.4669 31.3113 24.2891C31.2224 23.4891 26.378 18.4669 22.4891 15.3113Z" fill="#3DA8FB"/>
<path d="M25.9547 24.6891C25.1102 24.2446 13.7102 16.8224 11.5547 13.9113L12.5102 13.2002C14.4658 15.8446 25.3991 23.0446 26.5325 23.6446L25.9547 24.6891Z" fill="#FF3333"/>
<path d="M25.4893 27.711L24.4004 27.2887C25.0226 25.6887 27.3559 21.7554 28.4671 20.6221L29.3115 21.4443C28.3115 22.4443 26.0448 26.2443 25.4893 27.711Z" fill="#FF3333"/>
<path d="M25.6897 17.7333C24.6008 15.311 20.8008 14.311 20.8008 14.311L22.6897 18.1777C22.6897 18.1777 25.9786 18.4221 25.6897 17.7333Z" fill="#3DA8FB"/>
<path d="M25.6662 26.4892C24.7329 26.4892 23.9106 25.778 23.8217 24.8225C23.7329 23.8003 24.4662 22.9114 25.4884 22.8003C26.5106 22.7114 27.3995 23.4447 27.5106 24.4669C27.5995 25.4892 26.8662 26.378 25.844 26.4892C25.7995 26.4892 25.7329 26.4892 25.6662 26.4892ZM25.6884 23.4669C25.644 23.4669 25.6217 23.4669 25.5773 23.4669C24.9329 23.5336 24.444 24.1114 24.5106 24.7558C24.5773 25.4003 25.1551 25.8669 25.7995 25.8225C26.444 25.7558 26.9329 25.178 26.8662 24.5336C26.7995 23.9114 26.2662 23.4669 25.6884 23.4669Z" fill="white"/>
<path d="M19.4668 16.8222C21.089 15.9555 22.4668 16.8222 22.4668 16.8222C22.4668 16.8222 20.9335 17.1111 20.3335 18.3111L19.4668 16.8222Z" fill="white"/>
<path d="M20.6221 16.4665C20.5999 16.5999 20.5999 16.7332 20.6221 16.8665C20.6444 17.1332 20.7332 17.3999 20.8888 17.6221C21.5777 16.9999 22.4888 16.8443 22.4888 16.8443C22.4888 16.8443 21.711 16.3332 20.6221 16.4665Z" fill="#0A4586"/>
<path d="M22.0445 16.8001C22.0445 16.7335 22.0223 16.6668 21.9778 16.6224C21.7778 16.5557 21.5334 16.489 21.2445 16.4668C21.1112 16.5779 21.0445 16.7335 21.0667 16.9112C21.0889 17.089 21.2 17.2224 21.3334 17.3112C21.5778 17.1557 21.8445 17.0446 22.0445 16.9779C22.0445 16.889 22.0445 16.8446 22.0445 16.8001Z" fill="#151E34"/>
</svg>
