<svg width="50" height="50" viewBox="0 0 50 50" fill="none" xmlns="http://www.w3.org/2000/svg">
<path d="M25 50C38.8071 50 50 38.8071 50 25C50 11.1929 38.8071 0 25 0C11.1929 0 0 11.1929 0 25C0 38.8071 11.1929 50 25 50Z" fill="#0A4586"/>
<path d="M25.0011 49.9999C34.5566 49.9999 42.8622 44.6388 47.0844 36.7221L30.4455 20.0833L18.4178 21.0555L8.80664 43.1666L8.55664 43.8055C12.9455 47.6666 18.6955 49.9999 25.0011 49.9999Z" fill="#093B73"/>
<path d="M26.2769 17.75C26.0825 17.5 24.9158 17 24.6936 16.6389C21.4714 11.6667 15.2491 10.5834 15.2491 10.5834C15.2491 10.5834 15.638 14.5556 17.1658 16.5C15.638 16.5278 14.7769 17.2223 12.8325 19.3612C10.888 21.5278 4.83247 30.75 3.11024 33.3612C2.80469 33.8334 2.36024 34.1667 1.83247 34.3612H1.80469C4.63802 41.3889 10.6102 46.8611 17.9714 49C18.4714 48 18.7491 47 18.7214 46.0278C18.4991 37.1667 17.8602 29.8334 19.888 29.2223C20.0269 29.1667 20.1658 29.1389 20.3047 29.1112C20.3325 29.1667 20.388 29.2223 20.4158 29.2778C22.3602 31.8334 25.1936 30.5 25.1936 30.5C25.1936 30.5 26.1936 32.0834 28.1658 32.9445C30.138 33.8056 32.7491 34.3889 32.7491 34.3889C32.7491 34.3889 32.6936 35.8612 34.138 35.7223C35.6102 35.5834 35.4714 34.1112 35.4714 34.1112C35.4714 34.1112 36.3602 34.4445 36.9991 34.5834C37.638 34.7223 39.2769 31.8334 39.138 30.3612C39.0269 29.2223 31.2769 21.3612 26.2769 17.75Z" fill="#3DA8FB"/>
<path d="M27.2773 18.5833C26.8885 18.3611 26.444 18.0833 26.3607 17.8889C26.3329 17.8611 26.3329 17.8333 26.3051 17.8056C26.0273 17.5833 25.7496 17.3611 25.4718 17.1667C25.2773 16.9167 24.1107 16.4167 23.8885 16.0556C23.6107 15.6111 23.2773 15.2222 22.944 14.8611C19.9996 13.3889 16.8885 13.7778 16.8885 13.7778C16.8885 13.7778 17.3051 15.8333 18.8329 17.8056C17.3051 17.8333 16.444 18.5278 14.4996 20.6667C12.7773 22.5833 7.86068 29.9722 5.55512 33.5C4.8329 34.6111 3.74957 35.4722 2.52734 35.9445C4.38845 39.75 7.16623 43 10.6107 45.4445C12.4162 46.6111 14.3607 47.5556 16.444 48.2222C16.8051 47.1111 16.944 45.9445 16.7773 44.7222C15.6107 35.9445 17.0551 29.3056 19.1107 28.6945C19.2496 28.6389 19.3885 28.6111 19.5273 28.5833C19.5551 28.6389 19.6107 28.6945 19.6385 28.75C21.5829 31.3056 24.4162 29.9722 24.4162 29.9722C24.4162 29.9722 25.1385 31.1111 26.5551 31.9722C26.7773 31.8889 26.9162 31.8333 26.9162 31.8333C26.9162 31.8333 27.0551 32.0556 27.3607 32.3889C29.3607 33.25 31.9718 33.8611 31.9718 33.8611C31.9718 33.8611 31.9162 35.3333 33.3607 35.1945C34.8329 35.0556 34.694 33.5833 34.694 33.5833C34.694 33.5833 35.5829 33.9167 36.2218 34.0556C36.8607 34.1945 38.4996 31.3056 38.3607 29.8333C38.194 28.8056 32.1385 22.5278 27.2773 18.5833Z" fill="white"/>
<path d="M28.1113 19.1389C27.7224 18.9167 27.278 18.6389 27.1947 18.4444C27.1669 18.4167 27.1669 18.3889 27.1391 18.3611C26.8613 18.1389 26.5835 17.9167 26.3058 17.7222C26.1113 17.4722 24.9447 16.9722 24.7224 16.6111C24.4447 16.1667 24.1113 15.7778 23.778 15.4167C20.8335 13.9444 17.7224 14.3333 17.7224 14.3333C17.7224 14.3333 18.1391 16.3889 19.6669 18.3611C18.1391 18.3889 17.278 19.0833 15.3336 21.2222C13.6113 23.1389 8.69466 30.5278 6.38911 34.0556C5.58355 35.3056 4.36133 36.2222 2.91688 36.6389H2.86133C5.86133 42.3333 11.0002 46.7222 17.2224 48.75C17.5836 47.6389 17.7224 46.4722 17.5558 45.25C16.3891 36.4722 17.8336 29.8333 19.8891 29.2222C20.028 29.1667 20.1669 29.1389 20.3058 29.1111C20.3336 29.1667 20.3891 29.2222 20.4169 29.2778C22.3613 31.8333 25.1947 30.5 25.1947 30.5C25.1947 30.5 25.9169 31.6389 27.3336 32.5C27.5558 32.4167 27.6947 32.3611 27.6947 32.3611C27.6947 32.3611 27.8336 32.5833 28.1391 32.9167C30.1391 33.7778 32.7502 34.3889 32.7502 34.3889C32.7502 34.3889 32.6947 35.8611 34.1391 35.7222C35.6113 35.5833 35.4724 34.1111 35.4724 34.1111C35.4724 34.1111 36.3613 34.4444 37.0002 34.5833C37.6391 34.7222 39.278 31.8333 39.1391 30.3611C39.028 29.3611 32.9724 23.0833 28.1113 19.1389Z" fill="#3DA8FB"/>
<path d="M32.4453 30.8611C31.3898 30.3055 17.1398 21.0278 14.4453 17.3889L15.6398 16.5C18.0842 19.8056 31.7509 28.8056 33.1675 29.5556L32.4453 30.8611Z" fill="#FF3333"/>
<path d="M31.8611 34.6388L30.5 34.111C31.2778 32.111 34.1944 27.1944 35.5833 25.7777L36.6389 26.8055C35.3889 28.0555 32.5556 32.8055 31.8611 34.6388Z" fill="#FF3333"/>
<path d="M32.1111 22.1667C30.75 19.1389 26 17.8889 26 17.8889L28.3611 22.7222C28.3611 22.7222 32.4722 23.0278 32.1111 22.1667Z" fill="#3DA8FB"/>
<path d="M32.0842 33.1112C30.9175 33.1112 29.8898 32.2223 29.7786 31.0279C29.6675 29.7501 30.5842 28.639 31.862 28.5001C33.1398 28.389 34.2509 29.3056 34.3898 30.5834C34.5009 31.8612 33.5842 32.9723 32.3064 33.1112C32.2509 33.1112 32.1675 33.1112 32.0842 33.1112ZM32.112 29.3334C32.0564 29.3334 32.0286 29.3334 31.9731 29.3334C31.1675 29.4168 30.5564 30.139 30.6398 30.9445C30.7231 31.7501 31.4453 32.3334 32.2509 32.2779C33.0564 32.1945 33.6675 31.4723 33.5842 30.6668C33.5009 29.889 32.8342 29.3334 32.112 29.3334Z" fill="white"/>
<path d="M24.334 21.0277C26.3618 19.9444 28.084 21.0277 28.084 21.0277C28.084 21.0277 26.1673 21.3889 25.4173 22.8889L24.334 21.0277Z" fill="white"/>
<path d="M25.7786 20.5834C25.7509 20.7501 25.7509 20.9167 25.7786 21.0834C25.8064 21.4167 25.9175 21.7501 26.112 22.0279C26.9731 21.2501 28.112 21.0556 28.112 21.0556C28.112 21.0556 27.1398 20.4167 25.7786 20.5834Z" fill="#0A4586"/>
<path d="M27.5556 21C27.5556 20.9167 27.5278 20.8334 27.4723 20.7778C27.2223 20.6945 26.9167 20.6112 26.5556 20.5834C26.3889 20.7223 26.3056 20.9167 26.3334 21.1389C26.3612 21.3612 26.5001 21.5278 26.6667 21.6389C26.9723 21.4445 27.3056 21.3056 27.5556 21.2223C27.5556 21.1112 27.5556 21.0556 27.5556 21Z" fill="#26314D"/>
</svg>
