<svg width="22" height="22" viewBox="0 0 22 22" fill="none" xmlns="http://www.w3.org/2000/svg">
<path d="M11 0C4.93488 0 0 4.93488 0 11C0 17.0651 4.93488 22 11 22C17.0651 22 22 17.0651 22 11C22 4.93488 17.0651 0 11 0ZM11.6985 3.57363L14.5269 2.05288C16.093 2.673 17.4598 3.68912 18.4993 4.98163L17.8255 8.09188L15.6681 9.14925L11.6985 6.25763V3.57363ZM7.4965 2.04463L10.3249 3.57087V6.25763L6.358 9.14925L4.18962 8.0905L3.51587 4.961C4.55813 3.67125 5.92763 2.66062 7.4965 2.04463ZM3.06625 16.4368C2.16838 15.1305 1.584 13.5946 1.42312 11.935L3.751 9.40637L5.874 10.4445L7.47312 14.9861L6.1215 16.6059L3.06625 16.4368ZM13.4516 20.2964C12.6665 20.504 11.8484 20.625 11 20.625C9.97425 20.625 8.987 20.46 8.05888 20.1616L7.194 17.4694L8.57312 15.8125H13.4324L14.7867 17.4158L13.4516 20.2964ZM15.8593 16.5591L14.5296 14.9847L16.1508 10.4445L18.2641 9.40913L20.5782 11.9364C20.4394 13.3677 19.9788 14.7029 19.2789 15.884L15.8593 16.5591Z" fill="#A89175"/>
</svg>
