<svg width="100" height="100" viewBox="0 0 100 100" fill="none" xmlns="http://www.w3.org/2000/svg">
<path d="M82.6752 24.3568L66.3802 43.9108L55.574 44.4254L56.0886 33.6192L75.6426 17.1527L76.8433 7.89025C53.6872 -7.03256 22.8124 -0.1715 7.88958 22.9846C-7.03324 46.1407 -0.172172 77.187 22.9839 92.1098C46.14 107.033 77.1863 100.172 91.9376 76.8439C102.401 60.3774 102.401 39.4511 91.9376 22.9846L82.6752 24.3568Z" fill="#FF3333"/>
<path d="M66.3802 43.7393L55.574 44.2539L56.0886 33.4477L72.7267 19.554C55.9171 7.0326 32.2464 10.2916 19.5535 27.1012C6.86049 43.9108 10.291 67.5815 27.1006 80.2745C43.9102 92.9674 67.5809 89.5369 80.2739 72.7273C90.3939 59.1767 90.3939 40.6518 80.2739 27.1012L66.3802 43.7393Z" fill="#3DA8FB"/>
<path d="M66.3802 43.7393L55.5741 44.2539L56.0886 33.4477L63.1212 27.6158C50.7713 20.2402 34.9909 24.3568 27.6152 36.7067C20.2396 49.0567 24.3562 64.8371 36.7061 72.2128C49.056 79.5884 64.8365 75.4718 72.2121 63.1218C77.0149 55.0601 77.0149 44.94 72.2121 36.7067L66.3802 43.7393Z" fill="#A6D8FF"/>
<path d="M55.5745 44.2539L55.9175 37.3928C49.0564 34.1338 40.6516 36.8782 37.3926 43.9108C34.1336 50.9434 36.8781 59.1767 43.9107 62.4357C50.9432 65.6947 59.1765 62.9503 62.4355 55.9177C64.3223 52.1441 64.3223 47.6844 62.4355 43.9108L55.5745 44.2539Z" fill="#FCF9F0"/>
<path d="M82.6738 24.3568L97.5966 22.47L99.998 20.0686L90.0495 15.7805L82.6738 24.3568Z" fill="#06274D"/>
<path d="M75.6426 17.1527L77.5294 2.22985L79.9307 0L84.2189 9.94854L75.6426 17.1527Z" fill="#06274D"/>
<path d="M89.8792 15.6089L84.2188 9.94855L56.26 33.6192L55.7454 42.3671L49.0559 49.0566C48.5413 49.5712 48.5413 50.4288 49.0559 51.1149C49.5704 51.6295 50.4281 51.6295 51.1142 51.1149L57.8037 44.4254L66.5516 43.9108L89.8792 15.6089Z" fill="#0A4586"/>
</svg>
