<svg width="78" height="100" viewBox="0 0 78 100" fill="none" xmlns="http://www.w3.org/2000/svg">
<path d="M20.5134 93.8461H57.18C60.3852 93.8461 62.9493 96.4102 62.9493 99.6154V100H14.7441V99.6154C14.7441 96.4102 17.3082 93.8461 20.5134 93.8461Z" fill="#FF3333"/>
<path d="M38.8472 78.9743C33.9754 78.9743 29.1036 77.6923 25.0011 75.1282L22.6934 93.9743H55.1293L52.8216 75.1282C48.5908 77.5641 43.719 78.9743 38.8472 78.9743Z" fill="#0A4586"/>
<path d="M29.7441 87.1795H47.8211V93.8462H29.7441V87.1795Z" fill="#3DA8FB"/>
<path d="M48.8463 5.12823L38.8463 19.4872L28.8463 5.12823C8.2053 10.6411 -4.23059 31.9231 1.28223 52.5641C6.79505 73.2052 28.0771 85.6411 48.7181 80.1282C69.3592 74.6154 81.7951 53.3334 76.2822 32.6923C72.8207 19.2308 62.3079 8.71798 48.8463 5.12823Z" fill="#FF3333"/>
<path d="M69.4871 42.6923C69.4871 43.2051 69.4871 43.7179 69.4871 44.2308C69.1025 51.282 66.282 57.9487 61.5384 63.2051C60.8974 63.9743 60.1282 64.7436 59.3589 65.3846C54.1025 70.1282 47.4358 72.8205 40.3846 73.2051C39.8717 73.2051 39.3589 73.2051 38.8461 73.2051C38.3333 73.2051 37.8205 73.2051 37.3076 73.2051C30.2564 72.8205 23.5897 70.1282 18.3333 65.3846C17.5641 64.6154 16.7948 63.9743 16.1538 63.2051C11.4102 57.9487 8.58969 51.282 8.20508 44.2308C8.20508 43.7179 8.20508 43.2051 8.20508 42.6923C8.20508 42.1795 8.20508 41.6667 8.20508 41.1538C8.58969 34.1026 11.282 27.4359 16.0256 22.1795C16.6666 21.4102 17.4358 20.641 18.2051 20C22.5641 16.0256 27.9487 13.4615 33.8461 12.5641L37.1794 17.3077L38.7179 19.6154L40.2564 17.3077L43.5897 12.5641C57.8205 14.8718 68.4615 26.7949 69.2307 41.1538C69.4871 41.5384 69.4871 42.1795 69.4871 42.6923Z" fill="white"/>
<path d="M40.3836 17.1795V35C40.3836 35.8974 39.6143 36.5385 38.8451 36.5385C38.0759 36.5385 37.3066 35.7692 37.3066 35V17.1795L38.8451 19.4872L40.3836 17.1795Z" fill="#73C3F9"/>
<path d="M40.3836 50.2564V73.2051C39.8707 73.2051 39.3579 73.2051 38.8451 73.2051C38.3323 73.2051 37.8195 73.2051 37.3066 73.2051V50.2564C37.3066 49.359 38.0759 48.718 38.8451 48.718C39.6143 48.718 40.3836 49.359 40.3836 50.2564Z" fill="#73C3F9"/>
<path d="M61.5387 22.1795L45.3849 38.3334C44.7438 38.9744 43.8464 38.9744 43.2054 38.3334C42.5644 37.6923 42.5644 36.7949 43.2054 36.1539L59.4874 19.8718C60.1285 20.6411 60.8977 21.4103 61.5387 22.1795Z" fill="#73C3F9"/>
<path d="M34.6158 49.1026L18.3338 65.3846C17.5646 64.6154 16.7953 63.9744 16.1543 63.2051L32.4363 46.9231C33.0774 46.2821 34.103 46.2821 34.6158 46.9231C35.2569 47.5641 35.2569 48.5898 34.6158 49.1026Z" fill="#73C3F9"/>
<path d="M69.4865 42.6923C69.4865 43.2052 69.4865 43.718 69.4865 44.2308H46.4096C45.5121 44.2308 44.8711 43.4616 44.8711 42.6923C44.8711 41.9231 45.6403 41.1539 46.4096 41.1539H69.3583C69.4865 41.5385 69.4865 42.1795 69.4865 42.6923Z" fill="#73C3F9"/>
<path d="M32.8205 42.6923C32.8205 43.5898 32.0512 44.2308 31.282 44.2308H8.20508C8.20508 43.718 8.20508 43.2051 8.20508 42.6923C8.20508 42.1795 8.20508 41.6667 8.20508 41.1539H31.1538C32.0512 41.0257 32.8205 41.7949 32.8205 42.6923Z" fill="#73C3F9"/>
<path d="M61.538 63.2051C60.897 63.9744 60.1278 64.7436 59.3585 65.3846L43.0765 49.1026C42.4354 48.4616 42.4354 47.4359 43.0765 46.9231C43.7175 46.2821 44.7431 46.2821 45.256 46.9231L61.538 63.2051Z" fill="#73C3F9"/>
<path d="M34.6158 38.3333C33.9748 38.9744 33.0774 38.9744 32.4363 38.3333L16.1543 22.1795C16.7953 21.4103 17.5646 20.641 18.3338 20L34.6158 36.1538C35.1287 36.7949 35.2569 37.8205 34.6158 38.3333Z" fill="#73C3F9"/>
<path d="M38.8466 19.4872L29.3594 5.89744C27.6927 3.33333 29.4876 0 32.4363 0H45.1286C48.2056 0 49.8722 3.33333 48.2056 5.89744L38.8466 19.4872Z" fill="#0A4586"/>
<path d="M38.8454 50.2564C43.0229 50.2564 46.4095 46.8699 46.4095 42.6923C46.4095 38.5148 43.0229 35.1282 38.8454 35.1282C34.6678 35.1282 31.2812 38.5148 31.2812 42.6923C31.2812 46.8699 34.6678 50.2564 38.8454 50.2564Z" fill="#73C3F9"/>
<path d="M38.8458 45.8974C40.6159 45.8974 42.0509 44.4625 42.0509 42.6923C42.0509 40.9222 40.6159 39.4872 38.8458 39.4872C37.0756 39.4872 35.6406 40.9222 35.6406 42.6923C35.6406 44.4625 37.0756 45.8974 38.8458 45.8974Z" fill="#0A4586"/>
</svg>
