<svg width="130" height="130" viewBox="0 0 130 130" fill="none" xmlns="http://www.w3.org/2000/svg">
<path fill-rule="evenodd" clip-rule="evenodd" d="M72.4865 129.657C61.8399 127.867 55.0495 117.595 48.4221 108.991C43.3578 102.416 43.2167 93.7384 39.2115 86.4563C33.6871 76.4123 20.1659 70.0083 20.6677 58.5296C21.1673 47.103 32.3872 39.2478 41.5682 32.5525C50.7259 25.8742 61.2252 19.8588 72.4865 20.7405C83.401 21.595 91.6253 30.1463 100.108 37.1358C108.081 43.705 116.807 50.0636 120.045 59.9276C123.294 69.822 120.47 80.3276 117.573 90.3327C114.588 100.641 111.221 111.178 103.173 118.197C94.7119 125.577 83.514 131.512 72.4865 129.657Z" fill="#E5EFCF"/>
<path d="M27.2779 54.4365C30.7038 51.4968 34.2809 48.7521 38.0369 46.2457C38.6515 45.8353 39.2729 45.4386 39.8966 45.0442C37.709 45.8766 35.6682 46.9497 33.7191 48.1696C32.7056 48.7865 31.7311 49.4652 30.7794 50.1737C30.3025 50.5292 29.8186 50.8685 29.3646 51.2561C28.9037 51.6321 28.4543 52.0219 27.998 52.4049C27.771 52.5975 27.5416 52.7878 27.3215 52.9873L26.6657 53.5996C26.2277 54.0054 25.8012 54.4251 25.3724 54.8424C24.9551 55.2758 24.5515 55.7229 24.141 56.1609L23.8407 56.4957L23.5517 56.8465C23.3591 57.0804 23.1665 57.312 22.9808 57.5505C22.2218 58.4906 21.5453 59.5156 20.9514 60.5865C20.8138 60.864 20.6785 61.1437 20.5478 61.4212C20.4171 61.6986 20.3185 62.0036 20.2108 62.2902C20.1672 62.398 20.1397 62.5172 20.1099 62.6342C21.2839 60.614 22.7515 58.814 24.3979 57.1538C25.3289 56.2159 26.2782 55.2941 27.2779 54.4365Z" fill="#E5EFCF"/>
<path d="M78.7985 26.2185C80.9058 26.3675 82.9214 26.8284 84.8361 27.7456C87.1154 28.8348 89.2158 30.1992 91.1901 31.7654C91.8505 32.2882 92.4994 32.8293 93.1461 33.3705C94.5105 34.5079 96.1156 35.1843 97.7872 35.6911C99.1401 36.1015 100.369 36.7207 101.513 37.5278C102.502 38.2249 103.261 39.1123 103.85 40.1304C103.852 40.1304 103.852 40.1327 103.855 40.1327C104.045 40.2841 104.228 40.4423 104.41 40.6051C104.251 40.002 103.956 39.431 103.593 38.922C103.35 38.578 103.077 38.257 102.784 37.9543C102.493 37.6516 102.183 37.3673 101.855 37.1013C101.529 36.8353 101.186 36.59 100.828 36.3629C100.459 36.1359 100.073 35.9296 99.6859 35.7553C98.9085 35.4067 98.1243 35.143 97.3814 34.8862C97.0122 34.7509 96.6499 34.6248 96.3059 34.4849C95.9642 34.3382 95.6318 34.1937 95.3245 34.0217C95.2465 33.9805 95.1754 33.9323 95.0998 33.8887L94.9874 33.8222L94.8659 33.742C94.7031 33.6342 94.5403 33.5287 94.3775 33.4164C94.0541 33.1962 93.7331 32.9715 93.4167 32.7399C92.144 31.8181 90.9241 30.8046 89.6675 29.814C89.0369 29.3187 88.4018 28.8303 87.7437 28.351C87.0512 27.8534 86.3197 27.4086 85.5584 27.0256C84.0289 26.2735 82.371 25.8034 80.704 25.6315C79.0346 25.4641 77.363 25.5672 75.7533 25.8837C74.9943 26.0304 74.2536 26.2414 73.5267 26.4822C73.7079 26.4547 73.8913 26.4294 74.0748 26.4111C75.6478 26.2529 77.214 26.1084 78.7985 26.2185Z" fill="#E5EFCF"/>
<path d="M58.7044 104.478C57.8216 104.311 56.9411 104.139 56.0674 103.928C52.4146 103.045 48.7228 102.343 45.0333 101.639C43.4327 101.334 41.839 100.977 40.2522 100.603C38.9085 100.287 37.6611 99.7156 36.4183 99.1125C35.4345 98.6356 34.3843 98.2893 33.3525 97.9132C31.9743 97.4134 30.5824 96.9525 29.2777 96.2714C27.7987 95.501 26.7324 94.3682 26.0078 92.9648C26.0491 93.0887 26.0949 93.2079 26.1477 93.3248C26.5054 94.1137 27.0351 94.7878 27.6107 95.4001C28.7778 96.6154 30.1445 97.5876 31.5593 98.4338C31.9147 98.6424 32.277 98.8396 32.6462 99.0139C32.8342 99.1056 33.0039 99.1951 33.1942 99.2432C33.3823 99.2937 33.5703 99.3487 33.7469 99.429C34.4623 99.7293 35.1708 100.039 35.8817 100.36C36.5971 100.676 37.3126 101.02 38.0945 101.339C38.4843 101.497 38.8902 101.646 39.2983 101.772C39.7065 101.905 40.1238 102.004 40.5251 102.121C40.931 102.243 41.3323 102.341 41.7427 102.387C42.1486 102.426 42.5568 102.47 42.958 102.497C43.3593 102.527 43.7629 102.557 44.1596 102.577C44.5586 102.6 44.9599 102.621 45.3405 102.651C46.886 102.754 48.4361 102.933 49.9885 103.128C51.5432 103.325 53.0956 103.559 54.6457 103.822C56.1981 104.075 57.7505 104.35 59.296 104.662L59.3281 104.549C59.1126 104.554 58.9062 104.515 58.7044 104.478Z" fill="#E5EFCF"/>
<path d="M126.675 50.5684C126.739 49.869 126.588 49.2223 126.235 48.617C125.795 47.8649 125.21 47.2343 124.586 46.6358C122.77 44.8954 120.892 43.2306 118.948 41.6346C117.175 40.1808 115.407 38.7179 113.715 37.1724C112.486 36.0488 111.36 34.8082 110.232 33.5791C107.59 30.6991 105.169 27.631 102.683 24.6179C101.75 23.4874 100.766 22.3959 99.7525 21.3343C99.3375 20.8986 98.9041 20.495 98.457 20.1189C97.4434 19.3462 96.384 18.6376 95.2719 18.0414C94.0681 17.4452 92.7862 16.9912 91.4287 16.6679C91.3875 16.6587 91.3439 16.6496 91.3026 16.6404C91.2889 16.6931 91.3026 16.7504 91.3622 16.7848C94.7262 18.7592 97.8126 20.9788 100.532 23.7947C103.038 26.3881 105.249 29.2384 107.565 31.9992C111.786 37.0279 117.106 40.8367 121.69 45.4984C123.1 46.9316 125.6 49.2063 125.091 51.4512C125.054 51.6163 125.07 51.7837 125.127 51.9373C125.387 51.8639 125.641 51.7699 125.893 51.6736C126.391 51.4787 126.627 51.0889 126.675 50.5684Z" fill="#E5EFCF"/>
<path d="M45.5722 66.8104C46.0721 65.2924 46.893 63.8753 47.9111 62.6737C50.023 60.1835 52.7197 58.5531 55.7809 57.645C61.9974 55.8014 69.0806 56.3609 75.203 58.3238C76.9526 58.8833 78.6541 59.5758 80.3028 60.4013C81.0801 60.7911 81.9423 61.4332 82.8343 61.8987C82.5179 61.4561 82.1716 61.0365 81.7956 60.6421C80.1423 58.9085 78.1702 57.6794 76.0148 56.7553C72.5569 55.2786 68.9453 54.6411 65.2168 54.6228C64.2491 54.6755 63.2792 54.7053 62.3138 54.7879C61.525 54.8567 60.7362 54.9668 59.9542 55.1021C56.5605 55.6891 53.3686 56.8471 50.445 58.7664C49.1081 59.6446 47.9065 60.6833 46.8976 61.956C46.2647 62.7517 45.735 63.6162 45.3521 64.5701C44.6298 66.3655 44.5037 68.1748 45.0265 69.9748C45.0356 69.7134 45.0402 69.4497 45.0677 69.1814C45.1434 68.3765 45.32 67.5786 45.5722 66.8104Z" fill="#E5EFCF"/>
<path d="M82.3756 58.1445C82.3206 58.1193 82.2678 58.0941 82.2151 58.0688C82.316 58.1606 82.4169 58.2546 82.5178 58.3486C82.4696 58.2821 82.4238 58.2133 82.3756 58.1445Z" fill="#E5EFCF"/>
<path d="M86.1591 64.0659C86.0673 63.7517 85.9275 63.4582 85.7646 63.1785C85.9068 63.5545 86.0284 63.9329 86.127 64.309C86.166 64.2379 86.1843 64.153 86.1591 64.0659Z" fill="#E5EFCF"/>
<path d="M85.4046 71.6371C85.4298 71.5247 85.4527 71.4101 85.4757 71.2954C85.3908 71.4834 85.3014 71.6715 85.2051 71.8595C85.2716 71.7861 85.3404 71.7127 85.4046 71.6371Z" fill="#E5EFCF"/>
<path d="M75.5078 76.1681C69.7041 79.3165 62.9694 79.8805 56.6131 78.4772C53.3867 77.7641 50.4356 76.5029 47.7 74.6684C48.2847 75.2922 48.952 75.8471 49.7133 76.3194C50.807 76.9959 51.9261 77.6104 53.1024 78.1172C56.0834 79.3967 59.195 80.0571 62.4099 80.2291C66.4342 80.4469 70.3668 79.9333 74.1756 78.5437C76.4893 77.6999 78.6447 76.5487 80.5434 74.9138C81.9169 73.7306 83.0749 72.3616 83.8247 70.6556C84.1802 69.8462 84.4141 69.0436 84.5287 68.2456C82.1072 71.4811 79.14 74.1984 75.5078 76.1681Z" fill="#E5EFCF"/>
<path d="M84.8796 61.3156C84.2352 60.1943 83.4304 59.2198 82.5154 58.3484C82.4168 58.2544 82.3159 58.1604 82.2128 58.0687C81.9468 57.8279 81.6739 57.5917 81.3918 57.367C79.3396 55.7274 77.0465 54.5717 74.5838 53.7829C69.2295 52.0677 63.8041 51.8682 58.3283 53.0744C55.462 53.705 52.7287 54.7116 50.2132 56.2961C48.2504 57.5321 46.5168 59.0524 45.157 60.9946C43.8615 62.8474 43.0474 64.9019 42.9672 67.2065C42.8732 69.926 43.7147 72.3383 45.4551 74.3723C46.0605 75.0808 46.7805 75.6862 47.4547 76.3305C49.2066 77.9999 51.2245 79.2175 53.435 80.1003C57.0717 81.5518 60.853 82.1342 65.3565 82.0815C67.4432 82.0425 70.11 81.6733 72.7241 80.9235C75.7074 80.0682 78.5026 78.7887 80.986 76.8419C82.637 75.5463 84.0587 74.026 85.0653 72.1342C85.1135 72.0425 85.1547 71.9531 85.2006 71.8614C85.2946 71.6733 85.3863 71.4853 85.4712 71.2973C86.5214 68.9561 86.7301 66.624 86.1201 64.3103C86.0215 63.932 85.9 63.5559 85.7578 63.1799C85.5285 62.5562 85.235 61.9347 84.8796 61.3156ZM45.3038 70.7836C45.196 70.5153 45.1043 70.2471 45.0263 69.9765C44.5035 68.1787 44.6296 66.3672 45.3519 64.5718C45.7372 63.6155 46.2669 62.7534 46.8975 61.9577C47.9064 60.6873 49.108 59.6463 50.4448 58.768C53.3662 56.851 56.5581 55.6908 59.9541 55.1037C60.736 54.9684 61.5248 54.8584 62.3137 54.7896C63.279 54.7047 64.249 54.6772 65.2167 54.6245C68.9452 54.6428 72.5567 55.2803 76.0146 56.757C78.1724 57.6788 80.1421 58.9079 81.7954 60.6438C82.1715 61.0382 82.5177 61.4578 82.8342 61.9003C83.0749 62.2351 83.2997 62.5814 83.4992 62.9483C84.4439 64.6841 84.7879 66.4498 84.5287 68.2406C84.4141 69.0386 84.1779 69.8435 83.8248 70.6506C83.0772 72.3544 81.9193 73.7233 80.5434 74.9088C78.6448 76.5438 76.4893 77.6972 74.1756 78.5387C70.3646 79.9283 66.4343 80.442 62.41 80.2241C59.1974 80.0521 56.0857 79.3918 53.1025 78.1122C51.9261 77.6078 50.8071 76.9932 49.7133 76.3145C48.952 75.8421 48.2848 75.2872 47.7 74.6635C46.6682 73.5697 45.8908 72.2535 45.3038 70.7836Z" fill="black"/>
<path d="M28.2203 56.0535C32.036 52.8432 35.8837 49.6696 39.7246 46.4892C40.6303 45.7394 41.5315 44.9895 42.2997 44.0952C42.4487 43.921 42.5725 43.7215 42.7078 43.5334C42.6688 43.4899 42.6321 43.4486 42.5932 43.405C42.373 43.522 42.1437 43.6252 41.9351 43.7582C41.2563 44.187 40.5776 44.6089 39.8988 45.0377C39.2751 45.4321 38.6537 45.8311 38.0392 46.2392C34.2831 48.7455 30.706 51.4926 27.2802 54.43C26.2804 55.2876 25.3311 56.2094 24.4024 57.1473C22.756 58.8052 21.2884 60.6075 20.1144 62.6277C19.9928 62.8363 19.8713 63.0427 19.7567 63.256C19.6007 63.5449 19.4563 63.843 19.3531 64.1526C19.2751 64.391 19.3485 64.6318 19.5686 64.7877C19.8025 64.9551 20.0662 64.9528 20.2863 64.7831C20.479 64.6341 20.6601 64.4621 20.8229 64.281C20.9078 64.2672 20.9903 64.2512 21.0683 64.2214C21.3916 64.0998 21.7035 63.9416 22.0153 63.7857C24.3909 62.5979 26.5189 61.0501 28.5574 59.3647C30.4813 57.7756 32.373 56.1567 34.0309 54.281C34.3451 53.9255 34.6294 53.5403 34.9069 53.1551C35.01 53.0106 35.0811 52.8295 35.1132 52.6529C35.1706 52.3319 34.9779 52.1416 34.6638 52.2287C34.4024 52.2998 34.1593 52.4374 33.914 52.5612C31.7516 53.6435 29.8415 55.0973 27.9841 56.6199C26.9889 57.4339 26.0213 58.2755 25.0742 59.1422C26.0511 58.0485 27.0875 57.0051 28.2203 56.0535ZM31.5131 54.5745C32.357 53.9645 33.2902 53.4807 34.1845 52.9418C34.2396 52.9074 34.3107 52.9006 34.4024 52.8707C33.5723 54.7144 25.7484 61.1234 21.9075 63.0175C22.1024 62.8042 22.2905 62.5841 22.4946 62.38C25.3035 59.5481 28.2776 56.9088 31.5131 54.5745Z" fill="black"/>
<path d="M52.1029 12.6664C50.3785 12.4623 48.661 12.5288 46.9458 12.7513C46.2739 12.8384 45.6089 12.9737 44.9417 13.1021C43.5223 13.3773 42.2129 13.9322 40.9609 14.643C39.0095 15.7506 37.2003 17.0599 35.3957 18.3876C31.4608 21.2814 27.7759 24.4802 24.0588 27.6401C21.6007 29.7313 19.1746 31.8661 16.5399 33.7396C14.3523 35.2943 12.1281 36.7893 9.8098 38.1354C9.60342 38.2684 9.39705 38.4013 9.18838 38.5321C8.52798 38.9402 7.85382 39.3232 7.16591 39.6786C6.81966 39.8506 6.47341 40.0225 6.11569 40.1647C5.93683 40.2381 5.75797 40.3023 5.57682 40.3619C5.40026 40.4192 5.20305 40.4743 5.04025 40.4949L5.02649 40.7242C5.46676 40.7426 5.8474 40.6577 6.2441 40.5706C6.63621 40.4811 7.01915 40.3619 7.3998 40.2381C8.16109 39.9904 8.89258 39.674 9.62177 39.3507C11.0756 38.6994 12.4812 37.9519 13.8524 37.1585C15.226 36.3651 16.5651 35.519 17.8928 34.6545C18.5486 34.2142 19.209 33.7763 19.858 33.3222L20.8325 32.6458L21.7956 31.9533C26.9251 28.2546 31.7933 24.2349 36.5239 20.0753C37.1178 19.557 37.7048 19.0319 38.2895 18.5045L39.1677 17.7134L39.2778 17.6148L39.3443 17.5552C39.3971 17.5116 39.459 17.4612 39.5232 17.4107C39.6493 17.3121 39.7892 17.2113 39.929 17.1149C41.071 16.3353 42.3826 15.7047 43.7378 15.2392C46.4619 14.2945 49.4223 14.0124 52.3803 14.2417C52.7495 14.2784 53.121 14.2991 53.4924 14.3518L54.0519 14.4206L54.6367 14.5054C55.4163 14.6224 56.2005 14.721 56.9825 14.8196C58.5486 15.0191 60.1194 15.1911 61.697 15.3172C63.0361 15.4318 64.3776 15.5098 65.7259 15.5511C63.0315 15.1842 60.3785 14.5742 57.7461 13.8588C55.8887 13.352 54.0198 12.8934 52.1029 12.6664Z" fill="#E5EFCF"/>
<path d="M71.9834 119.415C73.756 119.885 75.5308 120.335 77.3492 120.605C79.4221 120.913 81.479 120.805 83.5427 120.527C85.8725 120.213 88.0211 119.427 89.9839 118.138C90.9493 117.505 91.933 116.895 92.8663 116.216C96.3242 113.703 99.6881 111.071 102.924 108.273C105.476 106.065 108.044 103.873 110.665 101.75C114.451 98.6838 118.503 96.0101 122.834 93.7652C123.015 93.6711 123.199 93.5794 123.382 93.49C123.185 93.5427 122.99 93.6001 122.793 93.6597C122.027 93.8936 121.289 94.194 120.555 94.5035C119.09 95.1272 117.67 95.8473 116.283 96.6154C114.893 97.3836 113.538 98.2022 112.197 99.0415C111.532 99.468 110.862 99.8945 110.206 100.335L109.218 100.991L108.243 101.665C103.045 105.263 98.099 109.188 93.2882 113.256C92.6851 113.763 92.0866 114.277 91.4927 114.792L90.5984 115.565L90.4861 115.662L90.4173 115.719C90.3623 115.762 90.3003 115.811 90.2361 115.859C90.1077 115.955 89.9656 116.051 89.8234 116.148C88.6654 116.904 87.3423 117.512 85.9779 117.95C83.2355 118.842 80.2705 119.067 77.3194 118.782C76.9502 118.739 76.5787 118.709 76.2095 118.652L75.6523 118.574L75.0676 118.477C74.2902 118.347 73.5083 118.232 72.7287 118.117C71.1671 117.888 69.5987 117.686 68.0256 117.528C66.4526 117.363 64.8727 117.244 63.2859 117.184C62.4925 117.157 61.6968 117.147 60.9011 117.17C60.2476 117.196 59.5918 117.232 58.9406 117.335C60.548 117.409 62.1508 117.533 63.7514 117.73C66.5374 118.074 69.2708 118.698 71.9834 119.415Z" fill="#E5EFCF"/>
<path d="M127.938 47.8559C127.484 46.8791 126.842 46.0352 126.095 45.2694C124.648 43.7835 123.176 42.3274 121.561 41.018C120.679 40.3003 119.826 39.5482 118.945 38.8282C117.67 37.7825 116.411 36.7094 115.093 35.7211C113.708 34.68 112.421 33.5496 111.254 32.2701C109.981 30.8736 108.736 29.445 107.386 28.1288C105.219 26.0215 103.364 23.6573 101.529 21.2749C99.3692 18.4682 96.6221 16.5282 93.2536 15.4482C90.5753 14.5906 87.8351 14.1847 85.0239 14.2191C80.5134 14.2742 76.0007 14.343 71.4903 14.3338C69.0871 14.3292 66.6863 14.0839 64.3291 13.6161C61.9397 13.1414 59.571 12.559 57.2023 11.988C55.4893 11.573 53.7741 11.1877 52.0222 10.9882C49.7774 10.7314 47.5554 10.9493 45.3426 11.3253C43.2169 11.6853 41.2403 12.4352 39.4173 13.5748C38.3602 14.2352 37.294 14.8864 36.2827 15.6156C32.6941 18.1999 29.2041 20.9103 25.886 23.8385C24.1662 25.3542 22.396 26.8149 20.6854 28.3421C17.3628 31.3093 13.7122 33.827 9.9906 36.2531C8.54598 37.1932 7.07842 38.099 5.60399 38.991C4.97799 39.3693 4.30383 39.6674 3.65948 40.0183C3.44623 40.1329 3.17794 40.2155 3.13208 40.5961C3.61362 40.814 4.06765 40.6856 4.50791 40.6122C5.42284 40.4585 6.24605 40.0458 7.06466 39.633C7.99794 39.163 8.91057 38.6608 9.81174 38.1403C12.13 36.7965 14.3543 35.2992 16.5419 33.7445C19.1766 31.8711 21.6026 29.7362 24.0608 27.645C27.7778 24.4851 31.4627 21.2863 35.3976 18.3925C37.2023 17.0671 39.0115 15.7555 40.9629 14.6479C42.2172 13.9371 43.5265 13.3799 44.9436 13.107C45.6086 12.9786 46.2759 12.8433 46.9477 12.7562C48.6629 12.5338 50.3804 12.4673 52.1048 12.6713C54.0241 12.8983 55.8906 13.3547 57.7503 13.8591C60.3827 14.5723 63.0358 15.1822 65.7301 15.5514C66.7391 15.689 67.7503 15.7945 68.7707 15.8541C71.2954 16.0054 73.8269 16.0788 76.3561 16.0926C79.4563 16.1086 82.5542 16.0077 85.6544 15.9963C87.56 15.9894 89.4426 16.2118 91.3045 16.6452C91.3458 16.6544 91.3894 16.6635 91.4306 16.6727C92.7881 16.996 94.0722 17.4501 95.2738 18.0462C96.4089 18.608 97.4728 19.296 98.4589 20.1238C98.9083 20.4998 99.3394 20.9057 99.7544 21.3391C100.766 22.4008 101.752 23.4922 102.685 24.6227C105.171 27.6358 107.592 30.7039 110.234 33.584C111.362 34.813 112.488 36.0536 113.717 37.1772C115.409 38.7227 117.177 40.1857 118.95 41.6395C120.894 43.2354 122.772 44.9025 124.588 46.6406C125.212 47.2391 125.797 47.8697 126.237 48.6218C126.592 49.2272 126.741 49.8738 126.677 50.5732C126.629 51.0914 126.393 51.4835 125.895 51.6739C125.643 51.7702 125.388 51.8642 125.129 51.9376C125.038 51.9628 124.944 51.9857 124.852 52.0064C122.456 52.4925 120.117 52.2288 117.801 51.5042C116.047 50.9538 114.506 50.0894 113.261 48.725C112.456 47.8445 111.63 46.9846 110.86 46.0765C109.413 44.3751 107.863 42.8043 105.838 41.7816C105.691 41.7083 105.554 41.589 105.4 41.5615C105.372 41.5569 105.34 41.5523 105.31 41.55C105.035 41.2084 104.735 40.9011 104.418 40.6122C104.237 40.4494 104.054 40.2934 103.864 40.1398C103.861 40.1398 103.861 40.1375 103.859 40.1375C103.27 39.1194 102.511 38.232 101.522 37.5349C100.376 36.7255 99.1468 36.1086 97.7962 35.6982C96.1245 35.1891 94.5194 34.5149 93.155 33.3776C92.5061 32.8364 91.8595 32.2953 91.1991 31.7725C89.2247 30.2086 87.1243 28.8442 84.845 27.7527C82.9303 26.8378 80.9147 26.3746 78.8074 26.2256C77.2252 26.1132 75.6567 26.26 74.0883 26.4182C73.9048 26.4365 73.7214 26.4617 73.5403 26.4893C72.6872 26.6177 71.8572 26.8424 71.0431 27.1267C70.7702 27.223 70.4928 27.3469 70.2612 27.5166C69.876 27.7986 69.9081 28.2687 70.3116 28.5163C70.4469 28.6012 70.6166 28.6608 70.7748 28.6745C71.1211 28.7044 71.4742 28.741 71.8136 28.6998C73.4508 28.5049 75.0858 28.2801 76.723 28.0761C79.3508 27.7482 81.8663 28.0738 84.2672 29.2639C86.7528 30.4952 89.0115 32.0522 91.0294 33.9394C92.4121 35.2327 93.9691 36.1728 95.7645 36.7415C95.9227 36.7919 96.0741 36.8562 96.23 36.9089C97.7388 37.4134 99.0986 38.2113 100.406 39.0965C101.369 39.7477 102.05 40.6626 102.554 41.6991C103.109 42.8433 102.939 43.8683 102.064 44.7832C101.275 45.6087 100.268 46.0467 99.172 46.2668C97.4224 46.62 95.6659 46.5397 93.9232 46.2141C92.3662 45.9229 90.8849 45.3771 89.4219 44.7878C85.4825 43.2056 81.4329 41.988 77.2986 41.0433C74.6386 40.4356 71.9374 40.1215 69.2156 40.4379C66.3768 40.7658 63.5471 41.19 60.7198 41.6097C58.468 41.9444 56.2162 42.2723 53.9347 42.1944C51.504 42.1118 49.1147 41.7702 46.8445 40.8369C45.8104 40.4127 44.79 39.9587 43.7581 39.5253C43.4554 39.3969 43.1458 39.2776 42.8294 39.1882C42.5175 39.1011 42.2126 39.1286 41.9535 39.4335C42.075 39.7981 42.3639 39.9449 42.6322 40.0848C43.9461 40.7727 45.2692 41.4445 46.5923 42.1187C47.0738 42.3641 47.5668 42.5704 48.0667 42.7447C47.9796 42.841 47.9062 42.9717 47.8512 43.1506C47.7549 43.4647 47.6838 43.7926 47.6586 44.1182C47.576 45.2166 47.1633 46.1705 46.5075 47.0419C45.6957 48.1219 44.7143 49.0139 43.6205 49.8073C42.3914 50.7016 41.1853 51.6303 40.0135 52.6003C39.5412 52.9901 39.1697 53.5106 38.7936 54.0036C38.6217 54.2283 38.5253 54.5241 38.4428 54.8016C38.3534 55.0997 38.4244 55.3886 38.679 55.5973C38.9358 55.8082 39.2316 55.8197 39.4999 55.6477C39.837 55.4345 40.1786 55.2075 40.4699 54.9369C41.3183 54.1458 42.2194 53.4326 43.194 52.8066C44.2144 52.1508 45.2738 51.5707 46.3997 51.1189C47.7503 50.5778 48.8005 49.656 49.6719 48.514C50.1488 47.8903 50.4423 47.1864 50.5364 46.4021C50.5685 46.1384 50.596 45.8747 50.6258 45.611C50.6785 45.6179 50.706 45.6133 50.7106 45.6225C50.8138 45.7945 50.917 45.9687 51.011 46.1453C51.6668 47.3767 52.6941 48.2159 53.9255 48.8075C55.0881 49.367 56.418 49.085 57.1335 48.2205C57.6953 48.4246 58.2318 48.6654 58.7913 48.8121C59.8989 49.1056 60.8184 48.6998 61.5659 47.8972C62.2057 47.2093 62.0452 46.3265 61.2289 45.861C61.0271 45.7463 60.7909 45.6477 60.5616 45.6248C59.5779 45.5262 58.6239 45.65 57.7297 46.1086C57.2779 46.3402 56.9936 46.6933 56.8606 47.1864C56.7895 47.4501 56.6863 47.7046 56.59 47.9614C56.4914 48.2228 56.2873 48.3627 56.0259 48.4361C55.3678 48.6195 54.7166 48.631 54.0998 48.3054C52.9968 47.7206 52.0429 46.9685 51.41 45.861C51.2105 45.5101 51.0362 45.141 50.7955 44.8199C50.5662 44.5127 50.4607 44.187 50.385 43.8224C50.3506 43.6528 50.3025 43.4831 50.2451 43.318C51.0294 43.4647 51.825 43.5656 52.6253 43.6436C54.7556 43.85 56.8789 43.7238 58.9931 43.49C60.1878 43.3592 61.3779 43.2125 62.5703 43.0657C63.4302 43.1896 64.2717 43.4097 65.0972 43.678C67.6173 44.4966 69.9218 45.7142 71.8136 47.622C72.0956 47.9064 72.4121 48.1655 72.7423 48.3925C73.233 48.7296 73.8246 48.592 74.1066 48.0669C74.2305 47.8353 74.2947 47.5464 74.2992 47.2827C74.3153 46.487 74.0424 45.7624 73.5976 45.1203C72.5542 43.6069 71.2013 42.7264 69.6306 42.3113C71.5774 42.2311 73.5173 42.348 75.4527 42.7172C76.1979 42.8594 76.9386 43.0199 77.6746 43.1896C77.7778 43.6459 77.9796 44.0701 78.319 44.453C78.7959 44.9942 79.321 45.4689 79.9585 45.8151C80.4423 46.0765 80.9308 46.3288 81.3962 46.62C82.286 47.1749 82.7469 47.9866 82.7744 49.0391C82.7904 49.711 82.5932 50.3393 82.3731 50.963C82.2837 51.2175 82.2217 51.4881 82.1919 51.7587C82.1805 51.8573 82.2699 52.0018 82.357 52.0637C82.4075 52.0981 82.5749 52.0362 82.6391 51.9697C83.3018 51.2795 83.9186 50.5571 84.2396 49.6307C84.5446 48.7502 84.5561 47.8926 84.2007 47.0052C83.7466 45.8656 82.983 45.0171 81.9535 44.3842C81.887 44.343 81.8182 44.3017 81.7517 44.2604C82.8409 44.5769 83.9278 44.9139 85.0078 45.2602C86.7505 45.822 88.468 46.4709 90.1901 47.0923C92.8867 48.0669 95.6499 48.4888 98.5139 48.154C99.8805 47.9958 101.176 47.6243 102.355 46.9112C103.822 46.0238 104.664 44.6113 104.721 43.0933C105.145 43.6757 105.432 44.3338 105.567 45.0745C105.615 45.345 105.689 45.611 105.765 45.8747C106.338 47.9064 106.397 49.9426 105.975 52.0224C105.581 53.9623 104.721 55.6041 103.261 56.9364C102.628 57.5143 101.905 57.9408 101.087 58.1884C100.848 58.2618 100.548 58.3489 100.341 58.2664C99.8599 58.0715 99.3784 57.8284 98.9679 57.512C98.507 57.1588 98.092 56.73 97.7159 56.2852C96.9088 55.3359 96.1406 54.3521 95.3472 53.3891C94.751 52.6645 94.0172 52.1348 93.1206 51.839C92.5313 51.6463 91.9397 51.5982 91.3343 51.7449C90.3116 51.9926 90.064 52.5911 90.3736 53.5565C90.4446 53.7789 90.573 53.9921 90.7152 54.1802C90.9468 54.4874 91.1853 54.7947 91.465 55.0561C92.0131 55.5698 92.5886 56.0559 93.1573 56.5443C93.7352 57.0396 94.3818 57.434 95.1064 57.6541C96.1383 57.9683 97.1908 58.2159 98.2341 58.4934C98.3281 58.5186 98.4222 58.5393 98.5254 58.5645C98.4955 58.6264 98.491 58.6493 98.4795 58.6585C96.5556 60.1971 94.8633 61.9811 93.1642 63.7537C92.6253 64.3155 92.2011 64.9621 91.9489 65.7005C91.8205 66.0742 91.7425 66.4847 91.7402 66.8791C91.7379 67.4913 92.1553 67.9362 92.7469 68.0967C93.1848 68.2159 93.609 68.1242 93.9645 67.9041C94.5056 67.5693 95.0468 67.207 95.5054 66.769C96.9936 65.3519 98.0369 63.6413 98.695 61.6968C98.9954 60.8094 99.3394 59.9449 99.876 59.163C100.059 58.8947 100.273 58.7777 100.587 58.7273C100.963 58.6677 101.346 58.5805 101.694 58.4315C103.774 57.5395 105.212 55.9825 106.042 53.9165C106.751 52.1531 107.088 50.2911 106.964 48.3719C106.867 46.8997 106.53 45.4734 106.12 44.0632C105.998 43.6482 105.774 43.2561 105.565 42.8731C105.531 42.8089 105.503 42.7585 105.48 42.7103C105.762 42.9534 106.051 43.1873 106.329 43.4349C106.725 43.7881 107.14 44.1297 107.489 44.5264C108.156 45.2831 108.798 46.0628 109.42 46.8562C109.447 46.8905 109.477 46.9249 109.504 46.9616C109.507 46.9823 109.507 47.0052 109.509 47.0258C109.745 49.2707 109.624 51.4812 108.989 53.6642C108.482 55.4092 107.817 57.0946 107.15 58.78C107.056 59.0185 106.948 59.2593 106.906 59.5069C106.881 59.6674 106.918 59.8807 107.01 60.0091C107.143 60.1948 107.383 60.1719 107.56 60.0573C107.833 59.8807 108.133 59.7087 108.326 59.4588C108.647 59.0414 108.936 58.5828 109.158 58.1059C110.192 55.8839 110.718 53.5381 110.795 51.0914C110.809 50.6397 110.798 50.1857 110.798 49.7316C110.846 49.7271 110.896 49.7225 110.945 49.7179C111.048 50.0274 111.162 50.3347 111.252 50.6489C111.894 52.9373 112.034 55.2648 111.747 57.6197C111.72 57.8376 111.692 58.06 111.713 58.2756C111.77 58.858 112.263 59.1332 112.788 58.8717C112.965 58.7846 113.146 58.6585 113.256 58.5003C113.494 58.1586 113.744 57.8055 113.893 57.4225C114.501 55.8747 114.558 54.2856 114.157 52.6736C114.033 52.1737 113.857 51.7105 113.641 51.2749C114.274 51.7312 114.953 52.1118 115.684 52.403C118.33 53.4624 121.08 53.9096 123.928 53.5886C124.71 53.5014 125.492 53.3891 126.258 53.2148C127.388 52.9557 128.051 52.1921 128.303 51.0754C128.562 49.9632 128.418 48.8878 127.938 47.8559ZM57.3651 47.168C57.4705 46.8745 57.6746 46.6796 57.9475 46.542C58.5162 46.2531 59.1261 46.1499 59.7728 46.0696C60.1419 46.1545 60.5364 46.1843 60.8711 46.3402C61.4306 46.6016 61.5132 47.1061 61.0936 47.5487C60.5065 48.1724 59.7865 48.5072 58.9175 48.2847C58.4611 48.1678 58.0163 47.9889 57.5875 47.7917C57.2619 47.6404 57.2458 47.5051 57.3651 47.168ZM39.1628 55.0722C39.1468 55.1226 39.1124 55.1685 39.0803 55.212C39.0711 55.2258 39.0505 55.2304 38.9794 55.2671C38.9404 55.157 38.8555 55.0424 38.8785 54.9552C38.9312 54.7443 39.0161 54.5379 39.1215 54.3476C39.4449 53.7628 39.8782 53.2606 40.4079 52.8571C41.5889 51.9582 42.7698 51.057 43.9897 50.2132C45.1958 49.3808 46.2461 48.4063 47.1128 47.2253C47.7686 46.331 48.186 45.3588 48.225 44.2329C48.2387 43.8591 48.2181 43.4601 48.4588 43.1277C49.2201 43.3478 49.3004 43.451 49.1812 44.2054C49.0527 45.0125 48.7294 45.7532 48.2937 46.4388C47.388 47.8628 46.2667 49.0644 44.8152 49.9724C43.5586 50.7589 42.3662 51.6486 41.1532 52.5039C40.2291 53.1575 39.5297 53.9875 39.1628 55.0722ZM49.2316 48.3421C48.4428 49.3923 47.4499 50.1742 46.23 50.6695C44.657 51.307 43.2146 52.1714 41.864 53.1919C41.3252 53.6 40.8322 54.0701 40.3185 54.5104C40.174 54.6342 40.0273 54.7557 39.8828 54.8795C39.8759 54.4691 40.041 54.1664 40.2726 53.9142C40.5937 53.5633 40.917 53.2033 41.2976 52.9259C42.4809 52.0637 43.6618 51.1923 44.8977 50.4081C46.1222 49.633 47.1862 48.7135 48.0736 47.567C48.8808 46.5237 49.493 45.3932 49.7911 44.0953C50.1282 45.5835 50.2153 47.0327 49.2316 48.3421ZM73.2238 47.716C73.0885 47.6266 72.9716 47.5051 72.8615 47.3836C71.6347 46.0375 70.2704 44.8589 68.6698 43.9715C68.6492 43.96 68.64 43.9256 68.6217 43.8981C70.0067 44.3636 72.3754 46.1705 73.593 47.7229C73.405 47.7252 73.288 47.7596 73.2238 47.716ZM73.5494 46.7163C73.5655 46.769 73.5746 46.8241 73.5792 46.8768C73.5815 46.8905 73.5632 46.9089 73.5425 46.9479C71.6347 44.8727 69.3807 43.3707 66.6106 42.6897C67.1702 42.5498 67.7251 42.5498 68.2708 42.6576C69.4265 42.8846 70.5364 43.2584 71.5132 43.9394C72.5061 44.6296 73.2032 45.5468 73.5494 46.7163ZM80.706 44.2811C81.1257 44.5425 81.5384 44.8176 81.9443 45.0974C82.7652 45.6638 83.366 46.4067 83.742 47.3354C84.2052 48.475 83.9163 49.9105 82.9647 50.8736C83.0633 50.5182 83.1481 50.2246 83.2238 49.9266C83.6274 48.3214 82.9876 46.8103 81.5522 45.9917C81.0752 45.7188 80.5845 45.4689 80.1053 45.2006C79.4701 44.8474 78.9289 44.3751 78.546 43.7605C78.4634 43.6275 78.3969 43.4831 78.335 43.3386C78.9083 43.4785 79.4793 43.623 80.0479 43.7766C80.252 43.9623 80.4676 44.1343 80.706 44.2811ZM92.3662 54.9965C91.7838 54.4278 91.1578 53.8912 90.9537 53.0176C91.0454 53.0841 91.144 53.1414 91.2266 53.2148C91.8273 53.7491 92.4121 54.304 93.0312 54.8199C93.4073 55.1364 93.8223 55.4092 94.2373 55.6752C95.0537 56.198 95.8838 56.6979 96.707 57.2116C96.856 57.3056 96.9936 57.4225 97.1358 57.528C95.1775 57.3285 93.6962 56.2966 92.3662 54.9965ZM91.3343 52.4237C91.7608 52.2746 92.1369 52.3044 92.5107 52.3916C93.3981 52.6025 94.1181 53.0864 94.7097 53.7651C95.4435 54.6067 96.1681 55.4574 96.8973 56.3035C97.0257 56.4526 97.1587 56.6016 97.2871 56.7484C95.1316 55.5422 93.0129 54.3223 91.3343 52.4237ZM95.0605 66.2989C94.6891 66.6452 94.258 66.9364 93.8338 67.2207C93.6113 67.3698 93.3499 67.4845 93.022 67.3973C94.7762 64.8176 96.4501 62.2081 98.6721 59.8967C97.9567 62.3801 96.9133 64.5723 95.0605 66.2989ZM92.7606 67.3148C92.4602 67.1703 92.4006 66.9593 92.4281 66.7346C92.4602 66.464 92.5084 66.1912 92.6024 65.9366C92.8225 65.329 93.1413 64.7695 93.5884 64.2994C95.1041 62.708 96.629 61.1258 98.1562 59.5482C98.3419 59.3556 98.5712 59.2042 98.7799 59.0346C98.8166 59.069 98.851 59.1033 98.8877 59.1377C96.441 61.5615 94.3772 64.2719 92.7606 67.3148ZM108.684 58.0623C108.514 58.4246 108.285 58.7617 108.048 59.0873C107.904 59.2868 107.698 59.4404 107.521 59.6147C107.475 59.5826 107.427 59.5505 107.381 59.5184C107.477 59.2891 107.567 59.0552 107.67 58.8282C108.374 57.2574 109.007 55.6592 109.488 54.0013C109.979 52.3113 110.176 50.5961 110.059 48.725C110.328 49.1974 110.321 49.617 110.33 50.0091C110.392 52.8158 109.881 55.5124 108.684 58.0623ZM113.32 57.3515C113.222 57.6037 113.072 57.8445 112.907 58.06C112.797 58.2068 112.618 58.3008 112.469 58.4177C112.421 58.3925 112.373 58.365 112.325 58.3398C112.341 58.0508 112.339 57.7619 112.375 57.4753C112.715 54.7924 112.453 52.1737 111.532 49.6262C111.52 49.5964 111.536 49.5574 111.545 49.484C112.291 50.1008 112.862 50.8254 113.24 51.6853C114.068 53.561 114.068 55.4551 113.32 57.3515Z" fill="black"/>
<path d="M3.6989 81.924C3.46272 82.4697 3.35036 83.0224 3.34119 83.575C3.40769 83.9763 3.55215 84.3592 3.7654 84.7238C4.20567 85.4759 4.7904 86.1065 5.41411 86.705C7.2302 88.4454 9.10821 90.1102 11.0527 91.7061C11.7475 92.2771 12.44 92.8504 13.1302 93.4282C13.7516 93.8731 14.3662 94.3271 14.9715 94.7949C15.5746 95.2604 16.1639 95.7419 16.7464 96.2326C16.7372 96.2418 16.728 96.2533 16.7189 96.2647C15.8934 95.5929 15.0679 94.9233 14.2446 94.2468C14.1759 94.1918 14.1002 94.178 14.0314 94.1895C14.7927 94.8384 15.5471 95.4943 16.2832 96.1684C17.5122 97.292 18.6381 98.5325 19.764 99.7616C22.4056 102.642 24.8271 105.708 27.3105 108.723C27.7232 109.223 28.1474 109.713 28.5762 110.2C28.5946 110.197 28.6106 110.193 28.629 110.188C28.6817 110.273 28.7367 110.356 28.7895 110.44C29.2779 110.984 29.7755 111.518 30.2823 112.045C32.1121 113.953 34.2722 115.286 36.7166 116.134C36.6776 116.029 36.6134 115.932 36.5239 115.87C35.3843 115.068 34.1919 114.554 33.2105 113.513C32.2176 112.458 31.4494 111.213 30.7065 109.975C29.0876 107.281 27.3242 104.696 25.3247 102.268C21.1811 97.2416 16.1754 92.926 10.5597 89.6217C9.00502 88.7068 7.38613 87.8378 6.13642 86.5101C4.95779 85.2558 4.11853 83.2448 4.53587 81.5112C4.43956 81.5433 4.34325 81.5777 4.24694 81.6075C4.01993 81.6786 3.83878 81.7887 3.6989 81.924Z" fill="#E5EFCF"/>
<path d="M125.921 92.6626C125.01 92.7589 124.185 93.0937 123.38 93.4881C123.196 93.5776 123.015 93.6693 122.832 93.7633C118.503 96.0082 114.451 98.6819 110.663 101.748C108.039 103.871 105.471 106.063 102.921 108.271C99.6881 111.071 96.3242 113.704 92.864 116.215C91.9307 116.893 90.947 117.503 89.9816 118.136C88.0165 119.425 85.8702 120.211 83.5404 120.526C81.4767 120.803 79.4198 120.911 77.3469 120.603C75.5285 120.333 73.7537 119.883 71.9811 119.413C69.2685 118.696 66.5351 118.072 63.7445 117.728C62.1439 117.531 60.5388 117.407 58.9337 117.334C57.1726 117.253 55.407 117.233 53.639 117.251C50.5572 117.283 47.4776 117.357 44.3957 117.359C42.3389 117.359 40.3049 117.109 38.2985 116.604C37.7573 116.469 37.2299 116.311 36.714 116.132C34.2696 115.286 32.1095 113.951 30.2797 112.044C29.7752 111.516 29.2753 110.982 28.7869 110.438C28.7158 110.358 28.6447 110.278 28.5737 110.198C28.1426 109.714 27.7184 109.221 27.3079 108.721C24.8245 105.706 22.4008 102.64 19.7615 99.7596C18.6333 98.5305 17.5097 97.29 16.2806 96.1664C15.5422 95.4923 14.7878 94.8364 14.0288 94.1875C13.7284 93.933 13.4281 93.6784 13.1277 93.4262C12.4375 92.8484 11.7449 92.2751 11.0502 91.7041C9.10794 90.1082 7.22764 88.4411 5.41154 86.703C4.78783 86.1045 4.20081 85.4739 3.76283 84.7218C3.54958 84.3572 3.40741 83.9742 3.33862 83.573C3.30422 83.3666 3.28817 83.1556 3.29734 82.9378C3.3134 82.5182 3.43722 82.1719 3.69634 81.922C3.83851 81.7844 4.01736 81.6766 4.24438 81.6032C4.34068 81.5711 4.43699 81.539 4.5333 81.5069C4.76719 81.4267 5.00338 81.3487 5.24415 81.3097C7.05107 81.0116 8.84882 80.9726 10.6466 81.429C12.254 81.8371 13.8316 82.2911 15.2052 83.268C16.1545 83.9421 16.9341 84.7975 17.7161 85.6459C18.9222 86.9529 20.094 88.2921 21.3162 89.5831C22.0729 90.3833 23.0291 90.9061 23.9761 91.4427C24.3178 91.8761 24.8635 92.0252 25.3955 92.1719C25.4803 92.1948 25.5652 92.1971 25.6431 92.1834C25.7509 92.4517 25.8702 92.7131 26.0009 92.9653C26.7255 94.3687 27.7917 95.5014 29.2707 96.2719C30.5778 96.9529 31.9674 97.4138 33.3455 97.9137C34.3774 98.2875 35.4276 98.6337 36.4113 99.113C37.6541 99.7161 38.9016 100.287 40.2453 100.603C41.8321 100.977 43.4258 101.335 45.0263 101.64C48.7158 102.344 52.4076 103.046 56.0605 103.928C56.9318 104.139 57.8147 104.311 58.6975 104.479C58.8993 104.518 59.1079 104.554 59.3212 104.55C59.5138 104.545 59.7133 104.506 59.9243 104.398C59.7867 104.298 59.711 104.222 59.6216 104.178C59.1057 103.94 58.5989 103.681 58.0692 103.479C55.5652 102.527 53.0176 101.713 50.4127 101.092C47.9889 100.514 45.5491 99.9958 43.1231 99.4317C41.3528 99.0213 39.5918 98.5604 37.9912 97.6661C36.3792 96.7672 34.6824 96.093 32.9098 95.6C31.6464 95.2492 30.4792 94.7218 29.3854 93.972C28.3971 93.2932 27.755 92.3966 27.3239 91.3327C26.9479 90.4108 27.1199 89.5303 27.7642 88.7598C28.5163 87.861 29.523 87.3771 30.6305 87.1295C32.5406 86.703 34.4714 86.7557 36.3609 87.2052C37.7459 87.5354 39.1148 87.9871 40.4379 88.5122C44.1779 90.0004 48.0119 91.1698 51.9146 92.1261C54.7099 92.8117 57.5418 93.1854 60.4219 92.9424C62.082 92.8025 63.7353 92.5617 65.3886 92.3393C68.005 91.9862 70.6099 91.5459 73.2309 91.257C75.8541 90.9681 78.4705 91.179 81.0387 91.8165C82.5406 92.1903 83.9463 92.8208 85.3565 93.4377C85.861 93.6578 86.3609 93.894 86.8791 94.0683C87.1451 94.1577 87.4569 94.176 87.7367 94.1371C88.0554 94.0935 88.1151 93.8481 87.8812 93.6303C87.7229 93.4812 87.5372 93.3528 87.3446 93.2519C86.1109 92.6053 84.875 91.9655 83.6367 91.3281C82.9167 90.9566 82.1783 90.6677 81.4262 90.4384C81.7908 89.7092 82.4031 89.1772 83.068 88.6956C83.9509 88.0559 84.9254 87.6041 85.9458 87.2281C88.6539 86.2329 90.2224 84.2517 90.8094 81.4634C91.0433 80.3489 90.8186 79.2368 90.7062 78.127C90.681 77.877 90.6947 77.5652 90.3393 77.5491C89.9954 77.5331 89.9518 77.838 89.8922 78.0811C89.656 79.0534 89.1561 79.8834 88.4544 80.5736C87.8972 81.124 87.2918 81.6376 86.6636 82.1054C85.1112 83.2542 83.9073 84.6667 83.1529 86.4553C82.919 87.0102 82.6255 87.5422 82.3503 88.0811C82.2701 88.237 82.16 88.3769 82.0637 88.5237C82.1187 87.7303 82.2242 86.9713 82.3664 86.2169C82.6026 84.9625 83.107 83.8046 83.6918 82.681C83.8775 82.3232 84.0953 81.9816 84.2604 81.6147C84.4416 81.2134 84.2352 80.9566 83.8018 81.03C83.13 81.1423 82.4902 81.3418 81.9123 81.7316C80.1949 82.8919 79.2937 85.1735 79.6973 87.2831C79.8578 88.1201 80.2407 88.8745 80.4769 89.6817C80.5457 89.9201 80.6305 90.115 80.7658 90.2595C79.3854 89.9064 77.9591 89.739 76.5168 89.6587C74.515 89.5464 72.52 89.6839 70.5319 89.9155C67.7092 90.2435 64.891 90.6149 62.066 90.9268C59.8509 91.1721 57.6381 91.14 55.4299 90.7915C54.852 90.6998 54.2788 90.592 53.7078 90.475C54.382 90.3398 55.0378 90.1013 55.6707 89.7436C56.0788 89.5143 56.4663 89.2047 56.7805 88.8585C57.5418 88.0215 57.418 87.0171 56.5237 86.3292C55.9619 85.8958 55.3106 85.6963 54.6227 85.7238C53.9302 85.7514 53.24 85.8706 52.5521 85.9669C51.4469 86.1228 50.3439 86.3132 49.2364 86.4485C48.6287 86.5218 48.0279 86.4118 47.4638 86.1641C46.4641 85.7238 46.1637 84.974 46.5948 83.9697C46.7163 83.6853 46.9043 83.4285 47.035 83.1465C47.0809 83.0456 47.0969 82.869 47.0396 82.8025C46.9823 82.736 46.7897 82.7154 46.7002 82.7589C46.0375 83.0845 45.4001 83.4491 44.9804 84.0866C44.5425 84.7516 44.4737 85.4556 44.8452 86.171C45.4322 87.3038 46.4388 87.8793 47.6358 88.1017C48.3329 88.2302 49.0575 88.2164 49.7706 88.2485C50.376 88.276 50.9814 88.2691 51.5844 88.2966C51.7816 88.3058 51.988 88.354 52.1669 88.4365C52.6691 88.6681 52.7378 89.035 52.293 89.3492C52.0064 89.5509 51.7289 89.7894 51.4033 89.9431C50.3003 89.6656 49.2043 89.3606 48.1082 89.0579C45.4368 88.3173 42.8364 87.3748 40.2407 86.4118C37.6312 85.4464 34.9529 84.9236 32.1554 85.1368C30.9561 85.2285 29.8004 85.451 28.7112 85.9073C29.0093 84.5681 29.6445 83.4262 30.7039 82.4906C31.7495 83.1006 32.5819 83.0456 33.1896 82.3599C33.7055 81.7775 33.7307 80.9038 33.2492 80.287C32.7378 79.6312 31.7771 79.4363 31.0158 79.833C30.6603 80.0187 30.4081 80.2939 30.2476 80.6608C30.016 81.1928 30.1696 81.6904 30.3966 82.1696C29.0621 82.9951 28.0417 84.9236 28.06 86.2146C27.9224 86.2856 27.7871 86.3567 27.6519 86.437C26.2577 87.2625 25.4024 88.6108 25.2808 90.06C24.8429 89.8101 24.4393 89.4936 24.0885 89.1313C24.0586 89.0511 24.0151 88.9731 23.9761 88.8974C23.4143 87.8449 23.3295 86.7718 23.6298 85.6023C24.2398 83.2313 25.3771 81.2249 27.3423 79.7229C27.9316 79.2712 28.5782 78.9272 29.3006 78.7575C29.9954 78.5947 30.697 78.4595 31.3987 78.3242C32.8823 78.0398 34.3178 77.6133 35.6431 76.8704C37.0259 76.0953 38.0921 75.0107 38.7777 73.5775C38.9337 73.2519 39.0621 72.8942 39.1102 72.5365C39.2318 71.6445 38.6012 70.9703 37.7138 71.0712C37.2322 71.1263 36.73 71.2593 36.299 71.4794C35.3886 71.9472 34.492 72.4517 33.6367 73.0157C31.9284 74.1439 30.4884 75.5886 29.0735 77.0561C28.952 77.1822 28.8236 77.3015 28.6883 77.4345C28.6677 77.3817 28.6539 77.3657 28.6562 77.3565C28.6975 77.2739 28.7411 77.1937 28.7846 77.1134C29.5023 75.8362 29.9816 74.4718 30.1765 73.0249C30.2522 72.4562 30.2522 71.8371 30.1169 71.2845C29.7638 69.8399 28.3306 69.3056 27.113 70.1494C26.6865 70.4452 26.2967 70.8419 25.9963 71.2661C25.1822 72.415 24.7397 73.7197 24.7466 75.1299C24.7511 76.32 24.836 77.5101 24.9162 78.6979C24.9667 79.4386 25.0011 80.1563 24.586 80.8259C24.4324 81.0712 24.3522 81.3625 24.2352 81.6307C23.4991 83.3368 22.8754 85.0818 22.7218 86.9483C22.6576 87.7142 22.6668 88.4755 22.8548 89.1955C22.7401 89.0855 22.6255 88.9708 22.52 88.8516C21.8413 88.0834 21.1877 87.2877 20.5549 86.4806C19.6262 85.2928 18.6425 84.1623 17.5624 83.1075C16.4663 82.0389 15.1983 81.2547 13.7651 80.741C11.1717 79.8078 8.50487 79.4409 5.75779 79.7871C5.08593 79.872 4.41177 79.966 3.75366 80.1242C2.65988 80.3902 1.96508 81.0988 1.70367 82.1971C1.43997 83.3047 1.55233 84.3801 2.02011 85.4212C2.46955 86.4209 3.11849 87.2831 3.87749 88.0628C5.30835 89.5372 6.76903 90.9818 8.36499 92.282C9.27533 93.0226 10.1582 93.7977 11.0639 94.5429C12.3251 95.5771 13.5679 96.6388 14.8727 97.6156C16.2737 98.6658 17.567 99.8169 18.7548 101.103C20.3462 102.83 21.972 104.522 23.5771 106.235C24.2788 106.985 24.9988 107.721 25.65 108.512C26.675 109.757 27.6473 111.046 28.6493 112.312C30.2224 114.298 32.1073 115.898 34.4141 116.974C37.5578 118.441 40.8828 119.106 44.3315 119.134C46.5856 119.152 48.8442 119.09 51.0983 119.026C54.437 118.932 57.7757 118.865 61.1052 119.17C62.7287 119.319 64.3613 119.478 65.955 119.796C68.4682 120.299 70.9561 120.938 73.4533 121.528C75.7601 122.071 78.0761 122.553 80.4631 122.461C81.4148 122.424 82.3664 122.346 83.3134 122.232C85.7005 121.943 87.9958 121.335 90.0687 120.067C91.2267 119.361 92.4122 118.684 93.4968 117.879C96.088 115.958 98.6814 114.029 101.179 111.986C104.072 109.617 106.865 107.123 109.702 104.681C111.704 102.956 113.747 101.278 115.948 99.8147C119.367 97.5422 122.71 95.1483 126.393 93.2955C126.576 93.2038 126.725 93.0433 126.952 92.8667C126.57 92.525 126.232 92.6282 125.921 92.6626ZM89.9999 80.0096C90.0252 79.9041 90.0619 79.8032 90.0963 79.7C90.1008 79.6885 90.1261 79.6862 90.1857 79.661C90.5182 82.548 88.7342 85.5152 86.0674 86.5448C85.4918 86.7672 84.9139 86.9827 84.2306 87.2396C84.3797 87.0561 84.4508 86.9369 84.5494 86.852C85.118 86.3613 85.6936 85.8798 86.2646 85.3936C86.8218 84.9167 87.4134 84.4764 87.9202 83.9513C88.9864 82.8438 89.6468 81.5046 89.9999 80.0096ZM83.7743 86.6984C84.3567 85.3432 85.2373 84.2036 86.3494 83.2519C87.2368 82.4929 88.1632 81.7821 89.1057 81.0208C88.6241 82.3003 87.872 83.3437 86.902 84.2334C86.62 84.4925 86.3219 84.7378 86.0169 84.9717C85.2304 85.5771 84.4966 86.2375 83.866 87.0057C83.7972 87.0905 83.7376 87.1799 83.6734 87.2694C83.6344 87.2464 83.5954 87.2212 83.5588 87.1983C83.6298 87.0332 83.7032 86.8658 83.7743 86.6984ZM83.1621 81.8371C83.201 81.8578 83.2423 81.8807 83.2813 81.9013C83.201 82.055 83.1277 82.2132 83.0405 82.3622C82.16 83.8642 81.55 85.4533 81.4079 87.2075C81.3712 87.6638 81.3184 88.1338 81.1281 88.5604C81.0891 88.5604 81.0502 88.5604 81.0112 88.5604C80.9699 88.1912 80.8919 87.822 80.8942 87.4528C80.8988 86.3132 80.9882 85.1827 81.5432 84.1485C81.6464 83.9559 81.7404 83.7541 81.8688 83.5775C82.0843 83.2817 82.3297 83.0089 82.5475 82.7154C82.7608 82.431 82.958 82.1306 83.1621 81.8371ZM80.3691 87.1341C79.828 85.7399 80.6443 83.4652 82.0155 82.5526C80.9493 83.8963 80.4287 85.428 80.3691 87.1341ZM52.7493 89.6197C53.2767 89.0923 53.2263 88.4663 52.6255 88.0261C52.3045 87.7899 51.9399 87.6798 51.5455 87.6706C50.9424 87.6569 50.3347 87.6775 49.7317 87.6431C48.9291 87.5973 48.1173 87.5743 47.3308 87.4299C46.4641 87.2694 45.728 86.8314 45.2487 86.038C44.8887 85.4418 44.9529 84.8754 45.3473 84.348C45.5606 84.0614 45.8495 83.8344 46.104 83.5798C46.1339 83.6165 46.1614 83.6532 46.1912 83.6922C46.1407 83.8481 46.0857 84.0018 46.0421 84.1577C45.7761 85.0795 46.049 85.8752 46.8378 86.4186C47.6106 86.9483 48.4842 87.0928 49.4015 87.0653C50.8163 87.024 52.2013 86.758 53.5909 86.5218C54.1733 86.4232 54.7672 86.3705 55.3313 86.5677C55.6661 86.6846 55.994 86.8795 56.2646 87.1089C56.6039 87.3955 56.6246 87.7601 56.4136 88.1545C56.354 88.2668 56.2806 88.3769 56.1935 88.4686C55.1501 89.5693 53.8064 89.9431 52.3205 90.0164C52.465 89.8811 52.6117 89.7573 52.7493 89.6197ZM31.6785 80.2847C32.3205 80.287 32.841 80.7709 32.825 81.3556C32.8112 81.9082 32.3434 82.3049 31.7014 82.3095C31.0456 82.3141 30.5915 81.8944 30.5984 81.2868C30.6053 80.7227 31.08 80.2824 31.6785 80.2847ZM38.3031 73.0777C37.7871 74.0683 37.0832 74.8983 36.1728 75.5542C35.0722 76.3475 33.8431 76.8681 32.5338 77.1776C31.362 77.4551 30.1742 77.65 28.991 77.8793C29.0116 77.861 29.0323 77.8403 29.0529 77.822C29.1561 77.7326 29.2639 77.6477 29.3716 77.5583C29.3671 77.5743 29.3625 77.5904 29.3579 77.6087C29.4358 77.595 29.5023 77.5973 29.5505 77.5697C30.8323 76.8612 32.1508 76.226 33.5083 75.6688C34.3682 75.3134 35.1937 74.8685 36.0169 74.4283C36.996 73.9054 37.8078 73.1763 38.4728 72.1788C38.576 72.5755 38.4338 72.83 38.3031 73.0777ZM35.5445 72.4241C36.0651 72.126 36.6269 71.8921 37.1864 71.672C37.4455 71.5688 37.7459 71.5711 38.1128 71.5115C37.9339 71.844 37.8307 72.0504 37.7161 72.2499C37.3698 72.8506 36.8929 73.3368 36.2944 73.6716C35.2419 74.2609 34.1871 74.8525 33.0933 75.357C32.0293 75.85 30.9699 76.343 29.9816 76.9736C29.9197 77.0148 29.844 77.0446 29.7202 77.1043C29.7087 77.102 29.6973 77.1043 29.6858 77.1111C29.7546 76.9896 29.7729 76.9415 29.805 76.9093C31.5753 75.2285 33.4166 73.6395 35.5445 72.4241ZM29.3877 77.3473C29.3831 77.3519 29.3785 77.3542 29.3762 77.3588C29.3716 77.3519 29.3671 77.3473 29.3602 77.3427C29.3602 77.3404 29.3625 77.3404 29.3625 77.3381C29.3716 77.3404 29.3808 77.3427 29.3877 77.3473ZM28.8397 70.5736C29.3372 70.9245 29.562 71.3808 29.5666 71.9128C29.5711 72.4402 29.5459 72.9768 29.4496 73.495C29.1125 75.318 28.4613 77.0217 27.3217 78.4961C26.9777 78.941 26.4847 79.2735 26.0215 79.6243C26.7163 77.8931 26.8447 76.0563 27.2529 74.2815C27.4799 73.2932 27.7665 72.3416 28.3604 71.5C28.5507 71.2363 28.6654 70.9199 28.8397 70.5736ZM25.4047 74.4168C25.517 73.3414 25.8931 72.3553 26.5145 71.4702C26.8034 71.0598 27.1657 70.7227 27.622 70.5094C27.8284 70.4131 28.0577 70.3673 28.2779 70.2985C28.3031 70.3375 28.3306 70.3787 28.3558 70.4177C28.3031 70.5071 28.2595 70.608 28.1953 70.6883C27.3354 71.7362 26.8997 72.9745 26.6269 74.2746C26.3448 75.6161 26.1063 76.969 25.8403 78.315C25.7784 78.6291 25.6821 78.9364 25.556 79.2391C25.4574 77.6248 25.2373 76.0242 25.4047 74.4168ZM25.274 90.6172C25.274 90.6287 25.274 90.6379 25.274 90.6493C25.2212 90.6218 25.1731 90.592 25.1226 90.5622C25.1731 90.5805 25.2235 90.6012 25.274 90.6172Z" fill="black"/>
<path d="M102.669 69.4727C102.458 69.0187 102.187 68.6014 101.779 68.3033C101.383 68.0144 101.004 68.1221 100.791 68.5647C100.752 68.6472 100.722 68.7344 100.695 68.8215C100.264 70.1859 99.9035 71.5663 99.6857 72.9857C99.1262 76.6248 97.7824 79.9084 95.3128 82.6761C93.6228 84.0772 91.9306 85.4759 90.2406 86.8747C89.3348 87.6245 88.4359 88.3766 87.6724 89.2732C87.5256 89.4452 87.4087 89.6447 87.278 89.8327C87.3055 89.8648 87.333 89.8992 87.3605 89.9313C87.5967 89.8121 87.842 89.7135 88.0645 89.5736C89.383 88.7435 90.7129 87.9295 92.0062 87.0627C95.7301 84.5748 99.2775 81.8506 102.676 78.9384C103.689 78.0694 104.652 77.1338 105.595 76.1868C107.386 74.3844 108.963 72.4147 110.186 70.1744C110.344 69.8855 110.502 69.5943 110.619 69.2893C110.736 68.982 110.646 68.7091 110.433 68.5463C110.197 68.3652 109.917 68.3698 109.628 68.606C109.417 68.7779 109.222 68.9774 109.048 69.1884C108.335 70.0483 107.615 70.9059 106.927 71.7864C105.363 73.7837 103.687 75.68 101.745 77.315C101.649 77.3975 101.55 77.4778 101.454 77.558C102.197 76.3014 102.729 74.9325 103.052 73.4512C103.35 72.0845 103.263 70.7546 102.669 69.4727ZM102.396 72.8229C102.142 74.3753 101.593 75.8314 100.841 77.2072C100.403 78.0098 99.8141 78.7114 99.1491 79.3672C99.2225 79.209 99.2981 79.0508 99.3692 78.8926C99.8691 77.7919 100.376 76.6935 100.864 75.586C101.277 74.6459 101.353 73.6369 101.428 72.6303C101.438 72.5087 101.373 72.3826 101.344 72.2611C101.293 72.2588 101.245 72.2542 101.194 72.2519C101.133 72.4491 101.055 72.6417 101.011 72.8412C100.846 73.6117 100.795 74.4211 100.518 75.148C99.837 76.9412 99.1239 78.7252 98.1103 80.3533C97.7916 80.6193 97.4729 80.8829 97.1541 81.1467C97.3445 80.9105 97.5279 80.6674 97.7022 80.4129C98.6263 79.0531 99.305 77.5764 99.8072 76.0125C100.252 74.6275 100.438 73.1898 100.688 71.7635C100.851 70.8325 101.1 69.9222 101.426 68.9637C101.729 69.2297 101.885 69.514 102.018 69.8121C102.453 70.7752 102.566 71.7864 102.396 72.8229Z" fill="black"/>
</svg>
