<svg width="296" height="300" viewBox="0 0 296 300" fill="none" xmlns="http://www.w3.org/2000/svg">
<path fill-rule="evenodd" clip-rule="evenodd" d="M86.7629 242.307C71.1131 226.911 71.7891 201.856 70.7902 179.773C70.0269 162.899 79.9209 148.254 81.7476 131.434C84.2671 108.235 69.2132 81.789 83.4483 63.2192C97.6187 44.7338 125.483 44.7027 148.595 44.2308C171.649 43.7601 196.165 45.9592 213.9 60.5558C231.088 74.7029 234.809 98.5583 240.785 120.109C246.4 140.363 253.518 161.144 247.4 181.379C241.263 201.676 224.295 215.916 207.789 229.235C190.783 242.958 172.874 256.616 151.27 258.949C128.558 261.403 102.973 258.254 86.7629 242.307Z" fill="#E5EFCF"/>
<path d="M61.2257 113.893C67.1672 108.795 73.3711 104.035 79.8853 99.6878C80.9511 98.9759 82.0288 98.2879 83.1105 97.6039C79.3166 99.0475 75.7771 100.909 72.3968 103.024C70.639 104.094 68.9488 105.271 67.2984 106.5C66.4712 107.117 65.6321 107.705 64.8447 108.377C64.0453 109.03 63.2658 109.706 62.4744 110.37C62.0807 110.704 61.683 111.034 61.3013 111.38L60.1639 112.442C59.4043 113.146 58.6646 113.873 57.9209 114.597C57.1971 115.349 56.4972 116.124 55.7853 116.884L55.2643 117.465L54.7633 118.073C54.4292 118.479 54.0951 118.88 53.773 119.294C52.4567 120.924 51.2835 122.702 50.2535 124.559C50.0149 125.04 49.7802 125.526 49.5535 126.007C49.3268 126.488 49.1558 127.017 48.9689 127.514C48.8934 127.701 48.8456 127.908 48.7939 128.111C50.8301 124.607 53.3753 121.485 56.2307 118.606C57.8453 116.979 59.4918 115.381 61.2257 113.893Z" fill="#E5EFCF"/>
<path d="M150.579 64.9551C154.234 65.2136 157.73 66.0129 161.051 67.6037C165.004 69.4927 168.646 71.859 172.07 74.5752C173.216 75.4819 174.341 76.4205 175.463 77.359C177.829 79.3315 180.613 80.5047 183.512 81.3836C185.858 82.0955 187.99 83.1692 189.974 84.5691C191.688 85.7781 193.005 87.3171 194.027 89.0829C194.031 89.0829 194.031 89.0868 194.035 89.0868C194.365 89.3493 194.683 89.6237 194.997 89.9061C194.723 88.8602 194.21 87.8699 193.581 86.9871C193.16 86.3905 192.687 85.8338 192.178 85.3088C191.673 84.7839 191.136 84.2907 190.567 83.8294C190.002 83.3681 189.406 82.9426 188.785 82.5488C188.145 82.1551 187.477 81.7972 186.805 81.495C185.457 80.8905 184.097 80.4331 182.808 79.9877C182.168 79.7531 181.539 79.5344 180.943 79.2918C180.35 79.0372 179.774 78.7867 179.241 78.4884C179.106 78.4168 178.982 78.3333 178.851 78.2578L178.656 78.1424L178.445 78.0033C178.163 77.8163 177.881 77.6334 177.598 77.4385C177.038 77.0568 176.481 76.667 175.932 76.2654C173.725 74.6666 171.609 72.9089 169.43 71.1908C168.336 70.3318 167.235 69.4848 166.093 68.6536C164.892 67.7906 163.624 67.0191 162.303 66.3549C159.651 65.0505 156.775 64.2353 153.884 63.937C150.989 63.6467 148.09 63.8256 145.298 64.3744C143.982 64.629 142.697 64.9948 141.437 65.4124C141.751 65.3647 142.069 65.321 142.387 65.2891C145.115 65.0147 147.831 64.7642 150.579 64.9551Z" fill="#E5EFCF"/>
<path d="M115.73 200.682C114.199 200.391 112.672 200.093 111.156 199.727C104.821 198.196 98.4185 196.979 92.0197 195.758C89.2438 195.229 86.4799 194.609 83.7278 193.961C81.3974 193.412 79.234 192.422 77.0785 191.376C75.3724 190.549 73.551 189.948 71.7614 189.296C69.3713 188.429 66.9573 187.63 64.6945 186.448C62.1294 185.112 60.2801 183.148 59.0234 180.714C59.095 180.929 59.1746 181.135 59.266 181.338C59.8864 182.706 60.8051 183.875 61.8033 184.937C63.8275 187.045 66.1977 188.731 68.6515 190.199C69.2679 190.561 69.8962 190.903 70.5365 191.205C70.8626 191.364 71.1569 191.519 71.487 191.603C71.8131 191.69 72.1392 191.785 72.4454 191.925C73.6862 192.446 74.9151 192.983 76.1479 193.539C77.3887 194.088 78.6295 194.685 79.9856 195.237C80.6617 195.512 81.3656 195.77 82.0735 195.989C82.7814 196.22 83.5051 196.391 84.2011 196.594C84.905 196.804 85.601 196.975 86.3128 197.055C87.0167 197.122 87.7246 197.198 88.4206 197.246C89.1165 197.297 89.8165 197.349 90.5045 197.385C91.1964 197.425 91.8924 197.46 92.5526 197.512C95.233 197.691 97.9214 198.001 100.614 198.339C103.31 198.681 106.002 199.087 108.691 199.544C111.383 199.982 114.075 200.459 116.756 201L116.812 200.805C116.438 200.813 116.08 200.745 115.73 200.682Z" fill="#E5EFCF"/>
<path d="M233.613 107.185C233.724 105.972 233.462 104.851 232.849 103.801C232.086 102.497 231.072 101.403 229.99 100.365C226.84 97.3465 223.583 94.4592 220.211 91.6913C217.137 89.17 214.07 86.6327 211.135 83.9523C209.004 82.0036 207.051 79.8521 205.095 77.7205C200.513 72.7256 196.314 67.4045 192.003 62.1789C190.384 60.2182 188.678 58.3252 186.92 56.484C186.2 55.7283 185.449 55.0284 184.673 54.3762C182.915 53.036 181.078 51.8071 179.149 50.7731C177.061 49.7391 174.838 48.9517 172.484 48.391C172.412 48.3751 172.337 48.3592 172.265 48.3433C172.241 48.4347 172.265 48.5342 172.369 48.5938C178.203 52.0179 183.556 55.8675 188.272 60.7511C192.619 65.249 196.453 70.1923 200.469 74.9805C207.791 83.7018 217.017 90.3074 224.967 98.3924C227.413 100.878 231.748 104.823 230.865 108.716C230.801 109.003 230.829 109.293 230.928 109.559C231.378 109.432 231.819 109.269 232.257 109.102C233.12 108.764 233.529 108.088 233.613 107.185Z" fill="#E5EFCF"/>
<path d="M92.9546 135.353C93.8216 132.721 95.2453 130.263 97.011 128.179C100.674 123.86 105.351 121.032 110.66 119.458C121.441 116.26 133.726 117.231 144.344 120.635C147.378 121.605 150.329 122.806 153.189 124.238C154.537 124.914 156.032 126.027 157.579 126.835C157.03 126.067 156.43 125.339 155.778 124.655C152.91 121.649 149.49 119.517 145.752 117.915C139.755 115.353 133.491 114.248 127.025 114.216C125.346 114.308 123.664 114.359 121.99 114.502C120.622 114.622 119.254 114.813 117.898 115.047C112.012 116.065 106.476 118.074 101.406 121.402C99.087 122.925 97.0031 124.727 95.2533 126.934C94.1556 128.314 93.237 129.813 92.5728 131.468C91.3201 134.582 91.1014 137.719 92.0081 140.841C92.024 140.388 92.032 139.931 92.0797 139.465C92.2109 138.069 92.5172 136.685 92.9546 135.353Z" fill="#E5EFCF"/>
<path d="M156.782 120.325C156.687 120.281 156.595 120.237 156.504 120.194C156.679 120.353 156.854 120.516 157.029 120.679C156.945 120.563 156.866 120.444 156.782 120.325Z" fill="#E5EFCF"/>
<path d="M163.344 130.595C163.185 130.05 162.943 129.541 162.66 129.056C162.907 129.708 163.118 130.364 163.289 131.017C163.356 130.893 163.388 130.746 163.344 130.595Z" fill="#E5EFCF"/>
<path d="M162.036 143.726C162.08 143.531 162.12 143.332 162.16 143.133C162.013 143.459 161.857 143.785 161.69 144.111C161.806 143.984 161.925 143.857 162.036 143.726Z" fill="#E5EFCF"/>
<path d="M144.872 151.583C134.807 157.043 123.127 158.021 112.103 155.588C106.507 154.351 101.389 152.164 96.6445 148.982C97.6586 150.064 98.8159 151.026 100.136 151.845C102.033 153.019 103.974 154.084 106.014 154.963C111.184 157.182 116.581 158.328 122.156 158.626C129.136 159.004 135.956 158.113 142.562 155.703C146.574 154.239 150.313 152.243 153.606 149.408C155.988 147.355 157.996 144.981 159.296 142.022C159.913 140.619 160.319 139.227 160.517 137.843C156.318 143.454 151.172 148.167 144.872 151.583Z" fill="#E5EFCF"/>
<path d="M161.126 125.824C160.008 123.879 158.612 122.189 157.026 120.678C156.855 120.515 156.68 120.352 156.501 120.192C156.039 119.775 155.566 119.365 155.077 118.976C151.518 116.132 147.541 114.128 143.269 112.76C133.983 109.785 124.574 109.439 115.077 111.531C110.106 112.624 105.366 114.37 101.003 117.118C97.5989 119.262 94.5923 121.899 92.234 125.267C89.9871 128.48 88.5753 132.044 88.4361 136.04C88.2731 140.757 89.7326 144.941 92.751 148.468C93.8009 149.697 95.0497 150.747 96.2189 151.864C99.2572 154.76 102.757 156.871 106.591 158.402C112.898 160.92 119.456 161.93 127.266 161.838C130.885 161.771 135.511 161.131 140.044 159.83C145.218 158.347 150.066 156.128 154.373 152.751C157.236 150.504 159.702 147.868 161.448 144.587C161.531 144.428 161.603 144.273 161.682 144.113C161.846 143.787 162.005 143.461 162.152 143.135C163.973 139.075 164.335 135.03 163.277 131.018C163.106 130.361 162.895 129.709 162.649 129.057C162.251 127.975 161.742 126.897 161.126 125.824ZM92.4886 142.244C92.3017 141.779 92.1426 141.314 92.0074 140.844C91.1006 137.727 91.3194 134.585 92.5721 131.471C93.2402 129.813 94.1589 128.317 95.2525 126.937C97.0023 124.734 99.0862 122.929 101.405 121.405C106.471 118.081 112.007 116.068 117.897 115.05C119.253 114.816 120.621 114.625 121.989 114.506C123.663 114.358 125.346 114.311 127.024 114.219C133.49 114.251 139.754 115.357 145.751 117.918C149.493 119.516 152.909 121.648 155.777 124.659C156.429 125.343 157.03 126.07 157.578 126.838C157.996 127.418 158.386 128.019 158.732 128.655C160.37 131.666 160.967 134.728 160.517 137.834C160.318 139.218 159.909 140.614 159.296 142.014C158 144.968 155.992 147.343 153.605 149.399C150.313 152.234 146.574 154.235 142.562 155.694C135.952 158.104 129.136 158.995 122.156 158.617C116.585 158.319 111.188 157.174 106.014 154.954C103.974 154.08 102.033 153.014 100.136 151.837C98.8158 151.017 97.6585 150.055 96.6444 148.973C94.8548 147.076 93.5067 144.794 92.4886 142.244Z" fill="black"/>
<path d="M62.8607 116.698C69.4782 111.131 76.1515 105.627 82.8127 100.111C84.3836 98.8102 85.9465 97.5097 87.2788 95.9587C87.5373 95.6565 87.752 95.3105 87.9867 94.9844C87.9191 94.9088 87.8554 94.8372 87.7878 94.7617C87.406 94.9645 87.0084 95.1435 86.6465 95.3741C85.4693 96.1178 84.2921 96.8496 83.115 97.5932C82.0333 98.2773 80.9555 98.9692 79.8897 99.6771C73.3756 104.024 67.1716 108.788 61.2302 113.883C59.4962 115.37 57.8498 116.969 56.2392 118.595C53.3838 121.47 50.8386 124.596 48.8024 128.1C48.5916 128.462 48.3808 128.82 48.182 129.19C47.9116 129.691 47.661 130.208 47.4821 130.745C47.3469 131.158 47.4741 131.576 47.8559 131.846C48.2615 132.137 48.7189 132.133 49.1007 131.838C49.4347 131.58 49.7489 131.281 50.0313 130.967C50.1784 130.943 50.3216 130.916 50.4568 130.864C51.0175 130.653 51.5584 130.379 52.0992 130.108C56.2193 128.048 59.9098 125.364 63.4453 122.441C66.7819 119.685 70.0628 116.877 72.9381 113.624C73.483 113.008 73.9761 112.34 74.4573 111.671C74.6363 111.421 74.7595 111.107 74.8152 110.8C74.9146 110.244 74.5806 109.914 74.0357 110.065C73.5824 110.188 73.1608 110.427 72.7353 110.641C68.9851 112.519 65.6724 115.04 62.4511 117.681C60.7251 119.092 59.0469 120.552 57.4044 122.055C59.0986 120.158 60.8961 118.349 62.8607 116.698ZM68.5715 114.133C70.035 113.075 71.6536 112.236 73.2046 111.302C73.3 111.242 73.4233 111.23 73.5824 111.178C72.1428 114.376 58.5736 125.491 51.9123 128.776C52.2504 128.406 52.5765 128.024 52.9304 127.67C57.8021 122.759 62.9601 118.182 68.5715 114.133Z" fill="black"/>
<path d="M104.28 41.4508C101.29 41.0969 98.311 41.2122 95.3362 41.598C94.171 41.7491 93.0177 41.9837 91.8604 42.2065C89.3988 42.6837 87.128 43.6461 84.9566 44.8789C81.5722 46.7998 78.4345 49.0706 75.3047 51.3732C68.4803 56.392 62.0895 61.9398 55.6429 67.4199C51.3797 71.0469 47.1722 74.7493 42.6027 77.9985C38.8088 80.6948 34.9512 83.2877 30.9306 85.6221C30.5726 85.8528 30.2147 86.0835 29.8528 86.3101C28.7075 87.018 27.5383 87.6822 26.3452 88.2986C25.7447 88.5969 25.1442 88.8951 24.5238 89.1417C24.2136 89.269 23.9034 89.3803 23.5892 89.4837C23.283 89.5831 22.941 89.6786 22.6586 89.7144L22.6348 90.1121C23.3983 90.1439 24.0585 89.9967 24.7465 89.8456C25.4265 89.6905 26.0907 89.4837 26.7508 89.269C28.0712 88.8394 29.3398 88.2906 30.6044 87.7299C33.1258 86.6005 35.5636 85.304 37.9418 83.928C40.324 82.552 42.6465 81.0845 44.9491 79.5852C46.0865 78.8217 47.2318 78.0621 48.3573 77.2747L50.0475 76.1015L51.7177 74.9005C60.614 68.4857 69.057 61.5142 77.2613 54.3002C78.2913 53.4014 79.3094 52.4907 80.3235 51.576L81.8466 50.204L82.0375 50.033L82.1529 49.9296C82.2443 49.854 82.3517 49.7665 82.4631 49.679C82.6818 49.508 82.9244 49.333 83.167 49.166C85.1475 47.8139 87.4222 46.7202 89.7726 45.9129C94.4971 44.2744 99.6313 43.7853 104.761 44.183C105.402 44.2466 106.046 44.2824 106.69 44.3739L107.661 44.4932L108.675 44.6403C110.027 44.8431 111.387 45.0141 112.743 45.1851C115.459 45.5311 118.183 45.8294 120.92 46.0481C123.242 46.247 125.569 46.3822 127.907 46.4538C123.234 45.8175 118.633 44.7596 114.067 43.5188C110.846 42.6399 107.605 41.8446 104.28 41.4508Z" fill="#E5EFCF"/>
<path d="M138.76 226.588C141.834 227.403 144.912 228.182 148.066 228.652C151.661 229.185 155.228 228.998 158.808 228.516C162.848 227.972 166.575 226.607 169.979 224.372C171.653 223.275 173.359 222.217 174.978 221.04C180.975 216.681 186.809 212.116 192.42 207.264C196.847 203.434 201.301 199.632 205.846 195.95C212.412 190.632 219.439 185.995 226.952 182.102C227.266 181.939 227.584 181.78 227.902 181.625C227.56 181.716 227.222 181.816 226.88 181.919C225.552 182.325 224.271 182.846 222.999 183.383C220.457 184.464 217.996 185.713 215.59 187.045C213.18 188.378 210.829 189.797 208.503 191.253C207.35 191.993 206.188 192.732 205.051 193.496L203.337 194.633L201.647 195.802C192.631 202.042 184.053 208.851 175.709 215.906C174.664 216.785 173.626 217.675 172.596 218.57L171.045 219.91L170.85 220.077L170.73 220.177C170.635 220.252 170.528 220.336 170.416 220.419C170.194 220.586 169.947 220.753 169.7 220.921C167.692 222.233 165.397 223.287 163.031 224.046C158.275 225.593 153.133 225.983 148.014 225.49C147.374 225.414 146.73 225.363 146.09 225.263L145.123 225.128L144.109 224.961C142.761 224.734 141.405 224.536 140.053 224.337C137.344 223.939 134.624 223.589 131.896 223.315C129.168 223.028 126.428 222.821 123.676 222.718C122.3 222.67 120.92 222.654 119.54 222.694C118.406 222.738 117.269 222.802 116.14 222.981C118.927 223.108 121.707 223.323 124.483 223.665C129.315 224.261 134.056 225.343 138.76 226.588Z" fill="#E5EFCF"/>
<path d="M235.804 102.481C235.016 100.787 233.903 99.3233 232.606 97.995C230.097 95.418 227.544 92.8926 224.744 90.6218C223.213 89.3771 221.733 88.0726 220.206 86.8239C217.995 85.0104 215.812 83.1493 213.525 81.4352C211.123 79.6297 208.892 77.6691 206.868 75.45C204.661 73.0281 202.501 70.5505 200.159 68.2677C196.401 64.613 193.183 60.5128 190.002 56.3808C186.256 51.5131 181.491 48.1487 175.649 46.2755C171.004 44.7882 166.252 44.0843 161.376 44.1439C153.554 44.2394 145.727 44.3587 137.905 44.3428C133.737 44.3348 129.573 43.9093 125.485 43.098C121.341 42.2748 117.233 41.2647 113.125 40.2744C110.154 39.5546 107.179 38.8865 104.141 38.5405C100.247 38.0951 96.3939 38.4729 92.5562 39.1251C88.8696 39.7495 85.4415 41.0499 82.2799 43.0264C80.4465 44.1718 78.5973 45.3012 76.8435 46.5659C70.6197 51.0478 64.5668 55.7485 58.8123 60.827C55.8296 63.4557 52.7595 65.989 49.7927 68.6376C44.0302 73.7837 37.699 78.1503 31.2445 82.3579C28.739 83.9884 26.1938 85.5592 23.6367 87.1063C22.551 87.7624 21.3818 88.2794 20.2643 88.8879C19.8944 89.0867 19.4291 89.2299 19.3496 89.8901C20.1848 90.2679 20.9722 90.0452 21.7357 89.9179C23.3225 89.6515 24.7502 88.9356 26.17 88.2198C27.7886 87.4045 29.3714 86.5336 30.9343 85.6308C34.9549 83.3004 38.8125 80.7035 42.6065 78.0071C47.1759 74.758 51.3834 71.0555 55.6467 67.4286C62.0932 61.9485 68.4841 56.4007 75.3084 51.3819C78.4382 49.0832 81.576 46.8084 84.9603 44.8876C87.1357 43.6548 89.4065 42.6884 91.8642 42.2151C93.0175 41.9924 94.1748 41.7578 95.34 41.6067C98.3147 41.2209 101.293 41.1056 104.284 41.4595C107.613 41.8532 110.85 42.6446 114.075 43.5196C118.641 44.7564 123.242 45.8142 127.915 46.4545C129.665 46.6931 131.418 46.8761 133.188 46.9795C137.567 47.2419 141.957 47.3692 146.344 47.3931C151.72 47.4209 157.093 47.2459 162.47 47.226C165.775 47.2141 169.04 47.5998 172.269 48.3515C172.341 48.3674 172.416 48.3833 172.488 48.3992C174.842 48.9599 177.069 49.7474 179.153 50.7814C181.121 51.7557 182.967 52.9488 184.677 54.3844C185.456 55.0366 186.204 55.7405 186.924 56.4922C188.678 58.3335 190.388 60.2265 192.006 62.1871C196.317 67.4127 200.517 72.7338 205.098 77.7288C207.055 79.8604 209.007 82.0119 211.139 83.9605C214.074 86.641 217.14 89.1782 220.214 91.6996C223.587 94.4675 226.844 97.3587 229.993 100.373C231.075 101.411 232.089 102.505 232.853 103.809C233.469 104.859 233.728 105.981 233.616 107.194C233.533 108.092 233.123 108.772 232.26 109.102C231.823 109.269 231.381 109.433 230.932 109.56C230.773 109.604 230.61 109.643 230.451 109.679C226.295 110.522 222.239 110.065 218.222 108.808C215.18 107.854 212.507 106.354 210.348 103.988C208.952 102.461 207.52 100.97 206.184 99.3948C203.674 96.444 200.986 93.7198 197.474 91.9461C197.22 91.8189 196.981 91.6121 196.715 91.5643C196.667 91.5564 196.611 91.5484 196.56 91.5445C196.083 90.9519 195.562 90.419 195.013 89.9179C194.699 89.6356 194.38 89.3651 194.05 89.0987C194.046 89.0987 194.046 89.0947 194.042 89.0947C193.02 87.329 191.704 85.7899 189.99 84.5809C188.001 83.1771 185.87 82.1073 183.527 81.3954C180.628 80.5126 177.845 79.3434 175.478 77.3708C174.353 76.4323 173.231 75.4937 172.086 74.587C168.662 71.8748 165.019 69.5085 161.066 67.6155C157.745 66.0287 154.25 65.2254 150.595 64.9669C147.851 64.7721 145.131 65.0266 142.41 65.301C142.092 65.3328 141.774 65.3765 141.46 65.4243C139.981 65.647 138.541 66.0367 137.129 66.5298C136.656 66.6969 136.175 66.9116 135.773 67.2059C135.105 67.6951 135.161 68.5103 135.861 68.9398C136.095 69.087 136.389 69.1904 136.664 69.2142C137.264 69.2659 137.877 69.3296 138.465 69.258C141.305 68.9199 144.14 68.5302 146.98 68.1763C151.537 67.6076 155.9 68.1723 160.064 70.2363C164.375 72.3719 168.292 75.0722 171.792 78.3452C174.19 80.5881 176.89 82.2187 180.004 83.2049C180.278 83.2924 180.541 83.4038 180.811 83.4952C183.428 84.3702 185.786 85.7541 188.053 87.2892C189.723 88.4186 190.905 90.0054 191.78 91.803C192.742 93.7874 192.448 95.5651 190.928 97.1519C189.56 98.5836 187.815 99.3431 185.914 99.7249C182.879 100.337 179.833 100.198 176.811 99.6334C174.11 99.1284 171.541 98.1819 169.004 97.1598C162.172 94.4158 155.148 92.3041 147.978 90.6656C143.365 89.6117 138.68 89.0669 133.96 89.6157C129.036 90.1844 124.129 90.9201 119.225 91.6479C115.32 92.2285 111.415 92.7972 107.458 92.662C103.242 92.5188 99.0981 91.9262 95.161 90.3076C93.3675 89.5719 91.5977 88.7845 89.8081 88.0329C89.2832 87.8102 88.7463 87.6034 88.1975 87.4483C87.6566 87.2971 87.1277 87.3449 86.6783 87.8738C86.8891 88.5061 87.3902 88.7606 87.8555 89.0032C90.1342 90.1963 92.4289 91.3615 94.7236 92.5307C95.5587 92.9563 96.4138 93.3142 97.2807 93.6164C97.1296 93.7835 97.0023 94.0101 96.9069 94.3203C96.7399 94.8652 96.6166 95.4339 96.5728 95.9986C96.4297 97.9035 95.7138 99.5579 94.5764 101.069C93.1686 102.942 91.4665 104.489 89.5695 105.865C87.4379 107.416 85.3461 109.027 83.3139 110.709C82.4946 111.385 81.8504 112.288 81.1982 113.143C80.8999 113.533 80.7329 114.046 80.5897 114.527C80.4346 115.044 80.5579 115.545 80.9993 115.907C81.4447 116.273 81.9578 116.293 82.4231 115.994C83.0077 115.625 83.6002 115.231 84.1053 114.762C85.5767 113.39 87.1396 112.153 88.8298 111.067C90.5995 109.93 92.4369 108.923 94.3895 108.14C96.7319 107.201 98.5533 105.603 100.065 103.622C100.892 102.541 101.401 101.32 101.564 99.9596C101.62 99.5022 101.667 99.0449 101.719 98.5875C101.81 98.5995 101.858 98.5915 101.866 98.6074C102.045 98.9057 102.224 99.2079 102.387 99.5141C103.524 101.65 105.306 103.105 107.442 104.131C109.458 105.102 111.765 104.613 113.005 103.113C113.98 103.467 114.91 103.885 115.881 104.139C117.801 104.648 119.396 103.944 120.693 102.552C121.802 101.359 121.524 99.8283 120.108 99.021C119.758 98.8222 119.348 98.6512 118.951 98.6114C117.245 98.4404 115.59 98.6551 114.039 99.4505C113.256 99.8522 112.763 100.465 112.532 101.32C112.409 101.777 112.23 102.218 112.063 102.664C111.892 103.117 111.538 103.36 111.084 103.487C109.943 103.805 108.814 103.825 107.744 103.26C105.831 102.246 104.177 100.942 103.079 99.021C102.733 98.4125 102.431 97.7723 102.013 97.2155C101.616 96.6826 101.433 96.1179 101.301 95.4856C101.242 95.1913 101.158 94.897 101.059 94.6106C102.419 94.8652 103.799 95.0401 105.187 95.1754C108.881 95.5333 112.564 95.3146 116.231 94.9089C118.303 94.6822 120.367 94.4277 122.435 94.1732C123.926 94.3879 125.385 94.7697 126.817 95.235C131.188 96.6548 135.184 98.7665 138.465 102.075C138.955 102.568 139.503 103.018 140.076 103.411C140.927 103.996 141.953 103.757 142.442 102.847C142.657 102.445 142.768 101.944 142.776 101.487C142.804 100.107 142.331 98.85 141.559 97.7365C139.75 95.1117 137.404 93.5846 134.679 92.8648C138.056 92.7256 141.42 92.9284 144.777 93.5687C146.069 93.8153 147.354 94.0936 148.63 94.3879C148.809 95.1793 149.159 95.9151 149.748 96.5792C150.575 97.5177 151.486 98.341 152.591 98.9415C153.43 99.3948 154.277 99.8323 155.085 100.337C156.628 101.3 157.427 102.708 157.475 104.533C157.503 105.698 157.161 106.788 156.779 107.87C156.624 108.311 156.516 108.78 156.465 109.25C156.445 109.421 156.6 109.671 156.751 109.778C156.839 109.838 157.129 109.731 157.24 109.615C158.39 108.418 159.459 107.166 160.016 105.559C160.545 104.032 160.565 102.545 159.949 101.005C159.161 99.029 157.837 97.5575 156.051 96.4599C155.936 96.3883 155.817 96.3167 155.701 96.2451C157.59 96.794 159.475 97.3786 161.348 97.9791C164.371 98.9534 167.35 100.079 170.336 101.157C175.013 102.847 179.805 103.579 184.772 102.998C187.142 102.723 189.389 102.079 191.434 100.842C193.979 99.3034 195.438 96.8536 195.538 94.2209C196.273 95.231 196.771 96.3724 197.005 97.6569C197.089 98.1262 197.216 98.5875 197.347 99.0449C198.341 102.568 198.445 106.1 197.713 109.707C197.029 113.071 195.538 115.919 193.004 118.229C191.907 119.232 190.654 119.971 189.234 120.401C188.821 120.528 188.3 120.679 187.942 120.536C187.107 120.198 186.272 119.776 185.56 119.228C184.76 118.615 184.041 117.871 183.388 117.1C181.988 115.454 180.656 113.747 179.28 112.077C178.246 110.82 176.974 109.902 175.419 109.389C174.397 109.055 173.371 108.971 172.321 109.226C170.547 109.655 170.117 110.693 170.654 112.367C170.778 112.753 171 113.123 171.247 113.449C171.649 113.982 172.062 114.515 172.547 114.968C173.498 115.859 174.496 116.702 175.482 117.549C176.484 118.408 177.606 119.092 178.863 119.474C180.652 120.019 182.478 120.448 184.287 120.93C184.45 120.973 184.613 121.009 184.792 121.053C184.74 121.16 184.732 121.2 184.713 121.216C181.376 123.885 178.441 126.979 175.494 130.053C174.56 131.027 173.824 132.148 173.386 133.429C173.164 134.077 173.028 134.789 173.025 135.473C173.021 136.535 173.744 137.307 174.77 137.585C175.53 137.792 176.266 137.633 176.882 137.251C177.821 136.67 178.759 136.042 179.555 135.282C182.136 132.825 183.945 129.858 185.086 126.485C185.607 124.946 186.204 123.447 187.135 122.091C187.453 121.626 187.823 121.423 188.367 121.335C189.02 121.232 189.684 121.081 190.288 120.822C193.895 119.275 196.389 116.575 197.828 112.992C199.057 109.934 199.642 106.704 199.427 103.376C199.26 100.823 198.675 98.3489 197.964 95.9031C197.753 95.1833 197.363 94.5033 197.001 93.8391C196.942 93.7278 196.894 93.6403 196.854 93.5568C197.343 93.9783 197.844 94.384 198.326 94.8135C199.013 95.4259 199.733 96.0185 200.338 96.7065C201.495 98.0188 202.609 99.371 203.686 100.747C203.734 100.807 203.786 100.866 203.833 100.93C203.837 100.966 203.837 101.005 203.841 101.041C204.251 104.935 204.04 108.768 202.939 112.554C202.06 115.581 200.906 118.504 199.749 121.427C199.586 121.84 199.399 122.258 199.328 122.687C199.284 122.966 199.348 123.336 199.507 123.558C199.737 123.881 200.155 123.841 200.461 123.642C200.934 123.336 201.455 123.037 201.789 122.604C202.346 121.88 202.847 121.085 203.233 120.258C205.027 116.404 205.937 112.336 206.072 108.092C206.096 107.309 206.076 106.521 206.076 105.734C206.16 105.726 206.247 105.718 206.331 105.71C206.51 106.247 206.709 106.78 206.864 107.325C207.977 111.294 208.22 115.33 207.723 119.414C207.675 119.792 207.627 120.178 207.663 120.552C207.763 121.562 208.618 122.039 209.528 121.586C209.835 121.435 210.149 121.216 210.34 120.942C210.753 120.349 211.187 119.737 211.445 119.072C212.499 116.388 212.599 113.632 211.903 110.836C211.688 109.969 211.382 109.166 211.008 108.41C212.105 109.202 213.283 109.862 214.551 110.367C219.141 112.204 223.909 112.98 228.848 112.423C230.204 112.272 231.56 112.077 232.889 111.775C234.849 111.326 235.999 110.001 236.436 108.064C236.885 106.136 236.635 104.271 235.804 102.481ZM113.407 101.288C113.59 100.779 113.944 100.441 114.417 100.202C115.403 99.7011 116.461 99.5221 117.583 99.3829C118.223 99.5301 118.907 99.5817 119.488 99.8522C120.458 100.306 120.601 101.18 119.873 101.948C118.855 103.03 117.607 103.61 116.099 103.225C115.308 103.022 114.536 102.712 113.793 102.37C113.228 102.107 113.2 101.872 113.407 101.288ZM81.8385 114.996C81.8106 115.084 81.751 115.163 81.6953 115.239C81.6794 115.263 81.6436 115.271 81.5203 115.334C81.4527 115.143 81.3056 114.944 81.3453 114.793C81.4368 114.427 81.5839 114.07 81.7669 113.739C82.3276 112.725 83.0792 111.854 83.9979 111.154C86.046 109.596 88.0941 108.033 90.2098 106.569C92.3016 105.126 94.1231 103.435 95.6263 101.387C96.7637 99.8363 97.4875 98.1501 97.5551 96.1974C97.579 95.5492 97.5432 94.8572 97.9608 94.2806C99.2811 94.6623 99.4203 94.8413 99.2135 96.1497C98.9908 97.5496 98.43 98.8341 97.6744 100.023C96.1036 102.493 94.1589 104.577 91.6415 106.152C89.4622 107.516 87.3942 109.059 85.2904 110.542C83.6877 111.675 82.4748 113.115 81.8385 114.996ZM99.301 103.324C97.9329 105.145 96.2109 106.502 94.0952 107.361C91.3671 108.466 88.8656 109.965 86.5232 111.735C85.5887 112.443 84.7336 113.258 83.8428 114.022C83.5923 114.237 83.3377 114.447 83.0872 114.662C83.0753 113.95 83.3616 113.425 83.7633 112.988C84.32 112.379 84.8808 111.755 85.5409 111.274C87.593 109.778 89.6411 108.267 91.7847 106.907C93.9083 105.563 95.7536 103.968 97.2926 101.98C98.6925 100.17 99.7543 98.2097 100.271 95.9588C100.856 98.5398 101.007 101.053 99.301 103.324ZM140.911 102.238C140.677 102.083 140.474 101.872 140.283 101.662C138.155 99.3272 135.789 97.2831 133.013 95.7441C132.977 95.7242 132.961 95.6645 132.93 95.6168C135.332 96.4241 139.44 99.5579 141.551 102.25C141.225 102.254 141.023 102.314 140.911 102.238ZM141.476 100.504C141.504 100.596 141.52 100.691 141.528 100.783C141.532 100.807 141.5 100.838 141.464 100.906C138.155 97.307 134.246 94.7021 129.442 93.521C130.412 93.2784 131.375 93.2784 132.321 93.4653C134.325 93.859 136.25 94.5072 137.944 95.6884C139.666 96.8854 140.875 98.4762 141.476 100.504ZM153.888 96.2809C154.616 96.7343 155.331 97.2115 156.035 97.6967C157.459 98.679 158.501 99.9675 159.153 101.578C159.956 103.555 159.455 106.044 157.805 107.714C157.976 107.098 158.123 106.589 158.254 106.072C158.954 103.288 157.845 100.667 155.355 99.2477C154.528 98.7744 153.677 98.341 152.846 97.8757C151.744 97.2632 150.806 96.444 150.142 95.3782C149.998 95.1475 149.883 94.897 149.776 94.6464C150.77 94.889 151.76 95.1396 152.746 95.406C153.1 95.7281 153.474 96.0264 153.888 96.2809ZM174.11 114.865C173.1 113.879 172.014 112.948 171.66 111.433C171.82 111.548 171.991 111.648 172.134 111.775C173.176 112.702 174.19 113.664 175.264 114.559C175.916 115.108 176.636 115.581 177.355 116.042C178.771 116.949 180.211 117.816 181.638 118.707C181.897 118.87 182.136 119.072 182.382 119.255C178.986 118.909 176.417 117.12 174.11 114.865ZM172.321 110.403C173.06 110.144 173.713 110.196 174.361 110.347C175.9 110.713 177.149 111.552 178.175 112.729C179.447 114.189 180.704 115.664 181.969 117.132C182.191 117.39 182.422 117.649 182.645 117.903C178.906 115.811 175.232 113.696 172.321 110.403ZM178.783 134.467C178.139 135.068 177.391 135.573 176.655 136.066C176.27 136.324 175.816 136.523 175.248 136.372C178.29 131.898 181.193 127.372 185.047 123.364C183.806 127.671 181.996 131.472 178.783 134.467ZM174.794 136.229C174.273 135.978 174.17 135.612 174.218 135.223C174.273 134.753 174.357 134.28 174.52 133.839C174.902 132.785 175.454 131.814 176.23 130.999C178.859 128.239 181.503 125.495 184.152 122.759C184.474 122.425 184.872 122.163 185.234 121.868C185.297 121.928 185.357 121.988 185.42 122.047C181.177 126.251 177.598 130.951 174.794 136.229ZM202.41 120.182C202.115 120.81 201.718 121.395 201.308 121.96C201.058 122.306 200.7 122.572 200.393 122.874C200.314 122.819 200.23 122.763 200.151 122.707C200.318 122.31 200.473 121.904 200.652 121.51C201.873 118.786 202.971 116.014 203.806 113.139C204.657 110.208 204.999 107.233 204.796 103.988C205.261 104.807 205.249 105.535 205.265 106.215C205.373 111.083 204.486 115.76 202.41 120.182ZM210.451 118.949C210.28 119.387 210.022 119.804 209.735 120.178C209.544 120.433 209.234 120.596 208.976 120.798C208.892 120.755 208.809 120.707 208.725 120.663C208.753 120.162 208.749 119.661 208.813 119.164C209.401 114.511 208.948 109.969 207.349 105.551C207.329 105.499 207.357 105.432 207.373 105.304C208.665 106.374 209.656 107.631 210.312 109.122C211.747 112.375 211.748 115.66 210.451 118.949Z" fill="black"/>
<path d="M20.3323 161.566C19.9227 162.512 19.7278 163.471 19.7119 164.429C19.8272 165.125 20.0778 165.789 20.4476 166.422C21.2112 167.726 22.2253 168.82 23.307 169.858C26.4567 172.876 29.7138 175.763 33.0862 178.531C34.2912 179.521 35.4922 180.516 36.6892 181.518C37.767 182.289 38.8328 183.077 39.8827 183.888C40.9286 184.695 41.9507 185.53 42.9608 186.382C42.9449 186.397 42.929 186.417 42.9131 186.437C41.4814 185.272 40.0497 184.111 38.622 182.938C38.5027 182.842 38.3715 182.818 38.2522 182.838C39.5725 183.964 40.8809 185.101 42.1575 186.27C44.2891 188.219 46.2417 190.37 48.1944 192.502C52.7758 197.497 56.9754 202.814 61.2823 208.044C61.9982 208.911 62.7339 209.762 63.4776 210.605C63.5094 210.601 63.5372 210.593 63.569 210.585C63.6605 210.732 63.756 210.875 63.8474 211.022C64.6945 211.965 65.5575 212.891 66.4364 213.806C69.6099 217.115 73.3562 219.425 77.5955 220.897C77.5279 220.714 77.4166 220.547 77.2615 220.44C75.2849 219.048 73.217 218.157 71.5149 216.351C69.7929 214.522 68.4606 212.363 67.1721 210.215C64.3644 205.542 61.3062 201.06 57.8383 196.849C50.6521 188.131 41.9706 180.647 32.2312 174.916C29.5348 173.329 26.7271 171.822 24.5597 169.52C22.5156 167.344 21.0601 163.856 21.7839 160.85C21.6168 160.906 21.4498 160.965 21.2828 161.017C20.8891 161.14 20.5749 161.331 20.3323 161.566Z" fill="#E5EFCF"/>
<path d="M232.304 180.19C230.725 180.357 229.293 180.938 227.898 181.622C227.579 181.777 227.265 181.936 226.947 182.099C219.439 185.993 212.412 190.63 205.842 195.947C201.292 199.629 196.838 203.431 192.416 207.261C186.808 212.117 180.974 216.682 174.973 221.037C173.355 222.214 171.648 223.272 169.974 224.37C166.566 226.605 162.844 227.969 158.803 228.513C155.224 228.995 151.657 229.182 148.062 228.649C144.908 228.179 141.83 227.4 138.756 226.585C134.051 225.34 129.311 224.258 124.471 223.662C121.695 223.32 118.911 223.105 116.127 222.978C113.073 222.838 110.011 222.803 106.945 222.834C101.6 222.89 96.2586 223.017 90.9137 223.021C87.3464 223.021 83.8189 222.588 80.3391 221.713C79.4006 221.478 78.4859 221.204 77.5911 220.894C73.3517 219.426 69.6055 217.112 66.432 213.803C65.557 212.888 64.6901 211.962 63.843 211.019C63.7197 210.88 63.5964 210.741 63.4731 210.602C62.7255 209.762 61.9898 208.907 61.2779 208.04C56.9709 202.811 52.7674 197.494 48.19 192.499C46.2333 190.367 44.2847 188.216 42.1531 186.267C40.8725 185.098 39.5641 183.96 38.2477 182.835C37.7268 182.393 37.2058 181.952 36.6848 181.515C35.4878 180.512 34.2868 179.518 33.0818 178.528C29.7133 175.76 26.4523 172.869 23.3026 169.854C22.2209 168.816 21.2028 167.723 20.4432 166.418C20.0734 165.786 19.8268 165.122 19.7075 164.426C19.6478 164.068 19.62 163.702 19.6359 163.324C19.6637 162.597 19.8785 161.996 20.3279 161.563C20.5745 161.324 20.8847 161.137 21.2784 161.01C21.4454 160.954 21.6124 160.898 21.7795 160.843C22.1851 160.704 22.5947 160.568 23.0123 160.501C26.1461 159.984 29.264 159.916 32.3818 160.708C35.1696 161.415 37.9057 162.203 40.2879 163.897C41.9343 165.066 43.2865 166.55 44.6426 168.021C46.7344 170.288 48.7666 172.61 50.8863 174.849C52.1987 176.237 53.857 177.144 55.4995 178.075C56.092 178.826 57.0385 179.085 57.9612 179.339C58.1083 179.379 58.2555 179.383 58.3907 179.359C58.5776 179.824 58.7844 180.278 59.0111 180.715C60.2678 183.149 62.117 185.114 64.6821 186.45C66.949 187.631 69.3589 188.43 71.7491 189.297C73.5387 189.946 75.3601 190.546 77.0662 191.377C79.2216 192.423 81.3851 193.413 83.7155 193.962C86.4675 194.611 89.2315 195.231 92.0073 195.76C98.4061 196.981 104.809 198.198 111.144 199.729C112.655 200.095 114.186 200.393 115.718 200.683C116.067 200.751 116.429 200.814 116.799 200.807C117.133 200.799 117.479 200.731 117.845 200.544C117.607 200.369 117.475 200.238 117.32 200.162C116.425 199.749 115.547 199.299 114.628 198.949C110.285 197.299 105.867 195.887 101.349 194.809C97.1455 193.807 92.9141 192.908 88.7065 191.93C85.6363 191.218 82.5821 190.419 79.8062 188.868C77.0105 187.309 74.0676 186.14 70.9934 185.285C68.8022 184.676 66.7779 183.762 64.881 182.461C63.1669 181.284 62.0534 179.729 61.3057 177.884C60.6535 176.285 60.9518 174.758 62.0693 173.422C63.3737 171.863 65.1196 171.024 67.0404 170.594C70.3532 169.854 73.7017 169.946 76.9787 170.725C79.3807 171.298 81.7549 172.081 84.0496 172.992C90.5359 175.573 97.1852 177.601 103.954 179.26C108.802 180.449 113.713 181.097 118.708 180.675C121.587 180.433 124.455 180.015 127.322 179.63C131.86 179.017 136.377 178.254 140.923 177.752C145.473 177.251 150.01 177.617 154.464 178.723C157.069 179.371 159.507 180.465 161.953 181.534C162.828 181.916 163.695 182.326 164.593 182.628C165.055 182.783 165.596 182.815 166.081 182.747C166.634 182.672 166.737 182.246 166.331 181.869C166.057 181.61 165.735 181.387 165.401 181.212C163.261 180.091 161.118 178.981 158.97 177.876C157.721 177.231 156.441 176.73 155.136 176.333C155.769 175.068 156.831 174.145 157.984 173.31C159.515 172.201 161.205 171.417 162.975 170.765C167.672 169.039 170.392 165.603 171.41 160.767C171.816 158.834 171.426 156.906 171.231 154.981C171.187 154.547 171.211 154.006 170.595 153.979C169.998 153.951 169.923 154.48 169.819 154.901C169.41 156.587 168.543 158.027 167.326 159.224C166.359 160.179 165.309 161.069 164.22 161.881C161.527 163.873 159.439 166.323 158.131 169.425C157.725 170.387 157.216 171.31 156.739 172.244C156.6 172.515 156.409 172.757 156.242 173.012C156.337 171.636 156.52 170.32 156.767 169.011C157.177 166.836 158.052 164.828 159.066 162.879C159.388 162.258 159.766 161.666 160.052 161.03C160.366 160.334 160.008 159.888 159.257 160.016C158.091 160.21 156.982 160.556 155.98 161.232C153.001 163.245 151.438 167.202 152.138 170.861C152.416 172.312 153.08 173.62 153.49 175.02C153.609 175.434 153.756 175.772 153.991 176.023C151.597 175.41 149.123 175.12 146.622 174.981C143.15 174.786 139.69 175.024 136.242 175.426C131.347 175.995 126.459 176.639 121.56 177.18C117.718 177.605 113.88 177.55 110.05 176.945C109.048 176.786 108.054 176.599 107.064 176.396C108.233 176.162 109.37 175.748 110.468 175.128C111.176 174.73 111.848 174.193 112.393 173.593C113.713 172.141 113.498 170.399 111.947 169.206C110.973 168.454 109.844 168.109 108.651 168.156C107.45 168.204 106.253 168.411 105.059 168.578C103.143 168.848 101.23 169.178 99.3089 169.413C98.255 169.54 97.2131 169.349 96.2348 168.92C94.5008 168.156 93.9799 166.856 94.7275 165.114C94.9383 164.621 95.2644 164.175 95.4911 163.686C95.5706 163.511 95.5985 163.205 95.499 163.09C95.3996 162.974 95.0656 162.939 94.9105 163.014C93.7611 163.579 92.6556 164.211 91.9278 165.317C91.1682 166.47 91.0489 167.691 91.6932 168.932C92.7112 170.896 94.4571 171.895 96.533 172.28C97.742 172.503 98.9987 172.479 100.236 172.535C101.285 172.583 102.335 172.571 103.381 172.618C103.723 172.634 104.081 172.718 104.391 172.861C105.262 173.263 105.382 173.899 104.61 174.444C104.113 174.794 103.632 175.207 103.067 175.474C101.154 174.992 99.2532 174.464 97.3523 173.939C92.7192 172.654 88.2094 171.02 83.7076 169.349C79.1819 167.675 74.5369 166.768 69.685 167.138C67.6051 167.297 65.6008 167.683 63.7118 168.474C64.2288 166.152 65.3304 164.171 67.1677 162.549C68.9811 163.607 70.4248 163.511 71.4786 162.322C72.3734 161.312 72.4172 159.797 71.582 158.727C70.6952 157.59 69.0289 157.252 67.7085 157.94C67.0921 158.262 66.6547 158.739 66.3763 159.375C65.9746 160.298 66.2411 161.161 66.6348 161.992C64.3202 163.424 62.5505 166.768 62.5823 169.007C62.3437 169.131 62.1091 169.254 61.8744 169.393C59.4565 170.825 57.9731 173.163 57.7623 175.677C57.0028 175.243 56.3028 174.694 55.6944 174.066C55.6427 173.927 55.5671 173.791 55.4995 173.66C54.5252 171.835 54.378 169.974 54.899 167.945C55.9568 163.833 57.9294 160.354 61.3376 157.749C62.3596 156.965 63.4811 156.369 64.7338 156.074C65.9388 155.792 67.1557 155.557 68.3727 155.323C70.9457 154.83 73.4353 154.09 75.7339 152.801C78.132 151.457 79.9812 149.576 81.1703 147.091C81.4407 146.526 81.6634 145.906 81.747 145.285C81.9577 143.738 80.8641 142.569 79.325 142.744C78.4899 142.839 77.6189 143.07 76.8713 143.452C75.2925 144.263 73.7375 145.138 72.2541 146.116C69.2913 148.073 66.7939 150.578 64.3401 153.124C64.1293 153.342 63.9066 153.549 63.672 153.78C63.6362 153.688 63.6123 153.66 63.6163 153.645C63.6879 153.501 63.7635 153.362 63.839 153.223C65.0838 151.008 65.915 148.642 66.253 146.132C66.3842 145.146 66.3842 144.072 66.1496 143.114C65.5372 140.608 63.0516 139.682 60.9399 141.145C60.2002 141.658 59.5241 142.346 59.0031 143.082C57.5913 145.074 56.8238 147.337 56.8357 149.783C56.8437 151.847 56.9908 153.911 57.13 155.971C57.2175 157.256 57.2772 158.5 56.5573 159.662C56.2909 160.087 56.1517 160.592 55.9489 161.057C54.6723 164.016 53.5906 167.043 53.3241 170.28C53.2128 171.608 53.2287 172.928 53.5548 174.177C53.3559 173.986 53.1571 173.788 52.9742 173.581C51.797 172.248 50.6636 170.868 49.566 169.469C47.9553 167.409 46.2492 165.448 44.3761 163.619C42.4752 161.765 40.276 160.405 37.7904 159.514C33.2925 157.896 28.6674 157.26 23.9031 157.86C22.7379 158.007 21.5687 158.17 20.4273 158.445C18.5303 158.906 17.3253 160.135 16.872 162.04C16.4146 163.961 16.6095 165.826 17.4208 167.631C18.2003 169.365 19.3257 170.861 20.6421 172.213C23.1236 174.77 25.6569 177.275 28.4248 179.53C30.0037 180.815 31.5348 182.159 33.1056 183.451C35.2929 185.245 37.4484 187.086 39.7112 188.78C42.1411 190.602 44.3841 192.598 46.4441 194.829C49.2041 197.824 52.0237 200.759 54.8075 203.73C56.0244 205.03 57.2732 206.307 58.4026 207.679C60.1803 209.838 61.8665 212.073 63.6044 214.268C66.3325 217.712 69.6015 220.488 73.6023 222.353C79.0546 224.899 84.8211 226.052 90.8023 226.1C94.7116 226.131 98.6288 226.024 102.538 225.913C108.328 225.75 114.119 225.634 119.893 226.163C122.709 226.422 125.54 226.696 128.304 227.249C132.663 228.12 136.978 229.229 141.309 230.251C145.31 231.194 149.326 232.029 153.466 231.87C155.117 231.806 156.767 231.671 158.409 231.472C162.549 230.971 166.53 229.917 170.125 227.718C172.134 226.493 174.19 225.32 176.071 223.924C180.565 220.592 185.063 217.247 189.393 213.704C194.412 209.595 199.256 205.269 204.175 201.033C207.647 198.043 211.191 195.131 215.009 192.594C220.938 188.653 226.736 184.501 233.123 181.288C233.441 181.129 233.7 180.85 234.094 180.544C233.429 179.952 232.845 180.131 232.304 180.19ZM170.006 158.246C170.05 158.063 170.113 157.888 170.173 157.709C170.181 157.689 170.225 157.685 170.328 157.641C170.905 162.648 167.811 167.794 163.186 169.58C162.187 169.966 161.185 170.34 160 170.785C160.259 170.467 160.382 170.26 160.553 170.113C161.539 169.262 162.537 168.427 163.528 167.584C164.494 166.756 165.52 165.993 166.399 165.082C168.248 163.161 169.394 160.839 170.006 158.246ZM159.209 169.846C160.219 167.496 161.746 165.52 163.675 163.869C165.214 162.553 166.821 161.32 168.455 160C167.62 162.219 166.315 164.028 164.633 165.571C164.144 166.021 163.627 166.446 163.098 166.852C161.734 167.902 160.462 169.047 159.368 170.379C159.249 170.526 159.145 170.682 159.034 170.837C158.966 170.797 158.899 170.753 158.835 170.713C158.958 170.427 159.086 170.137 159.209 169.846ZM158.147 161.415C158.215 161.451 158.286 161.491 158.354 161.527C158.215 161.793 158.087 162.068 157.936 162.326C156.409 164.931 155.351 167.687 155.105 170.729C155.041 171.521 154.95 172.336 154.619 173.076C154.552 173.076 154.484 173.076 154.417 173.076C154.345 172.435 154.21 171.795 154.214 171.155C154.222 169.178 154.377 167.218 155.339 165.424C155.518 165.09 155.681 164.74 155.904 164.434C156.278 163.921 156.703 163.448 157.081 162.939C157.451 162.445 157.793 161.924 158.147 161.415ZM153.303 170.602C152.365 168.184 153.78 164.239 156.159 162.656C154.309 164.987 153.407 167.643 153.303 170.602ZM105.401 174.913C106.316 173.998 106.229 172.913 105.187 172.149C104.63 171.739 103.998 171.549 103.314 171.533C102.268 171.509 101.214 171.545 100.168 171.485C98.776 171.405 97.3682 171.366 96.0041 171.115C94.5008 170.837 93.2243 170.077 92.3931 168.701C91.7687 167.667 91.8801 166.685 92.5641 165.77C92.9339 165.273 93.435 164.879 93.8765 164.438C93.9282 164.501 93.9759 164.565 94.0276 164.633C93.9401 164.903 93.8446 165.17 93.7691 165.44C93.3078 167.039 93.781 168.419 95.1491 169.361C96.4893 170.28 98.0045 170.53 99.5952 170.483C102.049 170.411 104.451 169.95 106.861 169.54C107.871 169.369 108.901 169.278 109.879 169.62C110.46 169.823 111.029 170.161 111.498 170.558C112.087 171.055 112.122 171.688 111.757 172.372C111.653 172.567 111.526 172.757 111.375 172.917C109.565 174.825 107.235 175.474 104.658 175.601C104.908 175.366 105.163 175.152 105.401 174.913ZM68.8579 158.723C69.9714 158.727 70.8741 159.566 70.8463 160.58C70.8224 161.539 70.0112 162.227 68.8976 162.235C67.7602 162.243 66.9728 161.515 66.9847 160.461C66.9967 159.483 67.8199 158.719 68.8579 158.723ZM80.3471 146.224C79.4523 147.942 78.2314 149.381 76.6526 150.519C74.7437 151.895 72.612 152.797 70.3412 153.334C68.309 153.816 66.249 154.154 64.1969 154.551C64.2327 154.519 64.2685 154.484 64.3043 154.452C64.4833 154.297 64.6702 154.15 64.8571 153.995C64.8492 154.022 64.8412 154.05 64.8332 154.082C64.9685 154.058 65.0838 154.062 65.1673 154.014C67.3904 152.786 69.6771 151.684 72.0314 150.718C73.5228 150.101 74.9544 149.33 76.3821 148.566C78.0803 147.659 79.4881 146.395 80.6414 144.665C80.8203 145.353 80.5738 145.794 80.3471 146.224ZM75.5629 145.09C76.4656 144.573 77.44 144.168 78.4103 143.786C78.8597 143.607 79.3807 143.611 80.017 143.507C79.7068 144.084 79.5278 144.442 79.329 144.788C78.7285 145.83 77.9013 146.673 76.8633 147.254C75.0379 148.276 73.2086 149.302 71.3116 150.177C69.4663 151.032 67.629 151.887 65.915 152.98C65.8076 153.052 65.6763 153.104 65.4616 153.207C65.4417 153.203 65.4218 153.207 65.4019 153.219C65.5213 153.008 65.5531 152.925 65.6087 152.869C68.6789 149.954 71.8723 147.198 75.5629 145.09ZM64.8849 153.629C64.877 153.637 64.869 153.641 64.8651 153.649C64.8571 153.637 64.8492 153.629 64.8372 153.621C64.8372 153.617 64.8412 153.617 64.8412 153.613C64.8571 153.617 64.873 153.621 64.8849 153.629ZM63.9345 141.881C64.7975 142.489 65.1872 143.281 65.1951 144.203C65.2031 145.118 65.1593 146.049 64.9923 146.947C64.4077 150.109 63.2783 153.064 61.3018 155.621C60.7052 156.393 59.8502 156.969 59.0469 157.578C60.2519 154.575 60.4746 151.39 61.1825 148.312C61.5762 146.597 62.0733 144.947 63.1033 143.488C63.4334 143.03 63.6322 142.481 63.9345 141.881ZM57.9771 148.546C58.172 146.681 58.8242 144.971 59.9019 143.436C60.403 142.724 61.0313 142.139 61.8227 141.77C62.1807 141.603 62.5784 141.523 62.9601 141.404C63.0039 141.471 63.0516 141.543 63.0953 141.61C63.0039 141.766 62.9283 141.941 62.817 142.08C61.3256 143.897 60.57 146.045 60.0968 148.3C59.6076 150.626 59.194 152.972 58.7327 155.307C58.6253 155.852 58.4583 156.385 58.2396 156.91C58.0686 154.11 57.6868 151.334 57.9771 148.546ZM57.7504 176.643C57.7504 176.663 57.7504 176.679 57.7504 176.699C57.6589 176.651 57.5754 176.599 57.4879 176.547C57.5754 176.579 57.6629 176.615 57.7504 176.643Z" fill="black"/>
<path d="M191.978 139.971C191.612 139.184 191.143 138.46 190.435 137.943C189.747 137.442 189.091 137.629 188.721 138.396C188.653 138.539 188.602 138.69 188.554 138.842C187.806 141.208 187.182 143.602 186.804 146.064C185.834 152.375 183.503 158.07 179.22 162.87C176.289 165.3 173.354 167.726 170.423 170.152C168.852 171.452 167.293 172.756 165.969 174.311C165.715 174.61 165.512 174.956 165.285 175.282C165.333 175.337 165.381 175.397 165.428 175.453C165.838 175.246 166.263 175.075 166.649 174.832C168.936 173.393 171.243 171.981 173.485 170.478C179.944 166.163 186.096 161.438 191.99 156.388C193.748 154.88 195.418 153.258 197.053 151.615C200.158 148.489 202.895 145.073 205.014 141.188C205.289 140.687 205.563 140.182 205.766 139.653C205.969 139.12 205.814 138.647 205.444 138.364C205.034 138.05 204.549 138.058 204.048 138.468C203.682 138.766 203.344 139.112 203.042 139.478C201.805 140.969 200.556 142.457 199.363 143.984C196.651 147.447 193.744 150.736 190.375 153.572C190.208 153.715 190.037 153.854 189.87 153.993C191.159 151.814 192.081 149.44 192.642 146.871C193.159 144.501 193.008 142.194 191.978 139.971ZM191.505 145.781C191.063 148.474 190.113 150.999 188.808 153.385C188.049 154.777 187.027 155.994 185.874 157.131C186.001 156.857 186.132 156.582 186.255 156.308C187.122 154.399 188.001 152.494 188.848 150.573C189.564 148.943 189.695 147.193 189.827 145.447C189.842 145.236 189.731 145.018 189.679 144.807C189.592 144.803 189.508 144.795 189.421 144.791C189.314 145.133 189.178 145.467 189.103 145.813C188.816 147.149 188.729 148.553 188.248 149.814C187.067 152.924 185.83 156.018 184.072 158.841C183.519 159.303 182.966 159.76 182.414 160.217C182.744 159.808 183.062 159.386 183.364 158.945C184.967 156.586 186.144 154.025 187.015 151.313C187.786 148.911 188.109 146.417 188.542 143.944C188.824 142.329 189.258 140.75 189.823 139.088C190.348 139.549 190.618 140.043 190.849 140.56C191.604 142.23 191.799 143.984 191.505 145.781Z" fill="black"/>
</svg>
