<svg width="18" height="18" viewBox="0 0 18 18" fill="none" xmlns="http://www.w3.org/2000/svg">
<path d="M11.595 13.59L12.66 14.655L14.25 13.0575L15.84 14.655L16.905 13.59L15.3075 12L16.905 10.41L15.84 9.345L14.25 10.9425L12.66 9.345L11.595 10.41L13.1925 12M11.2275 8.715C11.145 7.71 10.185 6.7275 9 6.75C7.725 6.78 6.75 7.725 6.75 9C6.75 10.275 7.725 11.205 9 11.25C9.2925 11.25 9.5775 11.19 9.855 11.0775C10.0575 10.2525 10.395 9.4725 11.2275 8.715ZM9.75 12H5.25C5.25 11.175 4.575 10.5 3.75 10.5V7.5C4.575 7.5 5.25 6.825 5.25 6H12.75C12.75 6.825 13.425 7.5 14.25 7.5V7.5375C14.7525 7.545 15.255 7.635 15.75 7.8V4.5H2.25V13.5H9.99C9.825 12.9975 9.75 12.495 9.75 12Z" fill="#FFCC00"/>
</svg>
