<svg width="20" height="20" viewBox="0 0 20 20" fill="none" xmlns="http://www.w3.org/2000/svg">
<g clip-path="url(#clip0)">
<path d="M9.1168 13.8231C8.45606 13.0848 8.09215 12.1322 8.09215 11.1408C8.09215 8.92259 9.89684 7.11791 12.1151 7.11791C13.0456 7.11791 13.9294 7.43947 14.632 8.00298C15.3346 7.43947 16.2185 7.11791 17.149 7.11791C17.218 7.11791 17.2867 7.11966 17.3549 7.1231C17.3004 4.47705 15.1313 2.34119 12.4724 2.34119C10.9854 2.34119 9.59649 3.01779 8.67813 4.15064C7.75981 3.01779 6.37094 2.34119 4.88387 2.34119C2.19086 2.34119 0 4.53208 0 7.22505C0 8.42869 0.44168 9.58501 1.24371 10.4811C2.04398 11.3752 8.67805 17.6581 8.67805 17.6581C8.67805 17.6581 9.8491 16.5882 10.8926 15.5871C10.065 14.7845 9.3325 14.0641 9.1168 13.8231Z" fill="#6C41BF"/>
<path d="M14.6319 17.5554C14.632 17.5553 18.7518 13.6245 19.2739 13.0413C19.7254 12.5369 19.9999 11.8708 19.9999 11.1406C19.9999 9.566 18.7234 8.28955 17.1488 8.28955C16.0714 8.28955 15.1341 8.88748 14.6493 9.76932H14.6146C14.1298 8.88748 13.1924 8.28955 12.115 8.28955C10.5404 8.28955 9.26392 9.566 9.26392 11.1406C9.26392 11.8708 9.53841 12.5369 9.98989 13.0413C10.5119 13.6245 14.6318 17.5554 14.6319 17.5554Z" fill="#6C41BF"/>
</g>
<defs>
<clipPath id="clip0">
<rect width="20" height="20" fill="white"/>
</clipPath>
</defs>
</svg>
