<svg width="20" height="20" viewBox="0 0 20 20" fill="none" xmlns="http://www.w3.org/2000/svg">
<g clip-path="url(#clip0)">
<path d="M9.1168 13.8227C8.45606 13.0845 8.09215 12.1319 8.09215 11.1405C8.09215 8.92223 9.89684 7.11754 12.1151 7.11754C13.0456 7.11754 13.9294 7.4391 14.632 8.00262C15.3346 7.4391 16.2185 7.11754 17.149 7.11754C17.218 7.11754 17.2867 7.1193 17.3549 7.12273C17.3004 4.47668 15.1313 2.34082 12.4724 2.34082C10.9854 2.34082 9.59649 3.01742 8.67813 4.15027C7.75981 3.01742 6.37094 2.34082 4.88387 2.34082C2.19086 2.34082 0 4.53172 0 7.22469C0 8.42832 0.44168 9.58465 1.24371 10.4807C2.04398 11.3748 8.67805 17.6577 8.67805 17.6577C8.67805 17.6577 9.8491 16.5879 10.8926 15.5867C10.065 14.7841 9.3325 14.0637 9.1168 13.8227Z" fill="#6C41BF"/>
<path d="M14.6316 17.555C14.6318 17.5548 18.7516 13.6241 19.2737 13.0408C19.7251 12.5364 19.9996 11.8703 19.9996 11.1401C19.9996 9.56551 18.7232 8.28906 17.1486 8.28906C16.0712 8.28906 15.1338 8.88699 14.649 9.76883H14.6143C14.1295 8.88699 13.1921 8.28906 12.1147 8.28906C10.5401 8.28906 9.26367 9.56551 9.26367 11.1401C9.26367 11.8703 9.53816 12.5364 9.98965 13.0408C10.5117 13.6241 14.6315 17.5549 14.6316 17.555Z" fill="#6C41BF"/>
</g>
<defs>
<clipPath id="clip0">
<rect width="20" height="20" fill="white"/>
</clipPath>
</defs>
</svg>
