<svg width="20" height="20" viewBox="0 0 20 20" fill="none" xmlns="http://www.w3.org/2000/svg">
<path d="M13.2114 9.37512C12.5728 9.37512 12.3313 10.1751 12.3216 10.2094C12.2484 10.46 12.0269 10.6637 11.7545 10.6328C11.4925 10.6311 11.263 10.4577 11.1932 10.2054C11.1846 10.1751 10.9432 9.37512 10.3046 9.37512C9.73465 9.37512 9.43652 9.87407 9.43652 10.3673C9.43652 11.0654 10.0677 11.629 11.3809 12.7368C11.5028 12.8398 11.6287 12.9462 11.758 13.0561C11.8873 12.9462 12.0132 12.8404 12.1345 12.7374C13.0188 11.9916 14.0794 11.157 14.0794 10.3673C14.0794 9.87407 13.7813 9.37512 13.2114 9.37512Z" fill="#6C41BF"/>
<path d="M17.6172 11.1328C17.6172 8.55832 16.1166 6.30082 13.821 5.27016C13.9927 4.94223 14.1016 4.57914 14.1016 4.19141C14.1016 3.18375 13.4595 2.2934 12.504 1.97527L11.7578 1.72578C10.8151 1.41227 9.94602 0.874492 9.24297 0.172188C9.13359 0.0625 8.98051 0 8.82812 0H5.3125C5.06016 0 4.83641 0.161367 4.75688 0.400547L4.14918 2.22359C3.73719 3.45898 3.87625 4.8134 4.52969 5.93891C5.27297 7.21895 5.05898 8.85371 3.99695 10.0079C2.95617 11.1397 2.38281 12.6097 2.38281 14.1472C2.38281 15.3586 2.73758 16.531 3.40934 17.5375L4.82496 19.7391C4.93367 19.9021 5.1168 20 5.31246 20H12.3437C12.6676 20 12.9296 19.7379 12.9296 19.4141C12.9296 18.7311 12.7893 18.0044 12.5518 17.4049C15.4845 16.7697 17.6172 14.2161 17.6172 11.1328ZM12.8902 13.6328C12.655 13.8313 12.4044 14.043 12.1418 14.2708C12.0314 14.3663 11.8946 14.4138 11.7579 14.4138C11.6211 14.4138 11.4843 14.3663 11.3739 14.2708C11.1107 14.0425 10.8601 13.8313 10.6249 13.6322C9.25445 12.4763 8.26453 11.6409 8.26453 10.3672C8.26449 9.15355 9.16059 8.20312 10.3044 8.20312C10.9481 8.20312 11.4254 8.49723 11.7578 8.86746C12.0903 8.49723 12.5675 8.20312 13.2112 8.20312C14.355 8.20312 15.2511 9.15355 15.2511 10.3672C15.2511 11.7343 14.0426 12.6608 12.8902 13.6328Z" fill="#6C41BF"/>
</svg>
