<svg width="19" height="18" viewBox="0 0 19 18" fill="none" xmlns="http://www.w3.org/2000/svg">
<path d="M9.50085 1.79999C5.53074 1.79999 2.30078 5.02995 2.30078 9.00006C2.30078 12.9702 5.53074 16.2001 9.50079 16.2001C13.4709 16.2001 16.7009 12.9702 16.7009 9.00006C16.7009 5.02995 13.471 1.79999 9.50085 1.79999ZM8.92172 2.36056H10.0386V3.47748H8.92172V2.36056ZM14.5292 9.00006C14.5292 11.7728 12.2735 14.0285 9.50085 14.0285C6.72821 14.0285 4.47252 11.7727 4.47252 9.00006C4.47252 6.22741 6.72827 3.97166 9.50085 3.97166C12.2735 3.97166 14.5292 6.22741 14.5292 9.00006ZM5.20094 3.91035L5.99073 4.70014L5.20094 5.48993L4.41115 4.70014L5.20094 3.91035ZM3.95761 9.55852H2.84069V8.44159H3.95761V9.55852ZM5.20094 14.0898L4.41115 13.3L5.20094 12.5102L5.99073 13.3L5.20094 14.0898ZM10.0386 15.6396H8.92172V14.5226H10.0386V15.6396ZM13.8008 14.0898L13.011 13.3L13.8008 12.5102L14.5906 13.3L13.8008 14.0898ZM13.8008 5.48993L13.011 4.70014L13.8008 3.91035L14.5906 4.70014L13.8008 5.48993ZM15.0028 9.55852V8.44159H16.1197V9.55852H15.0028Z" fill="#3939A3"/>
<path d="M5.4043 8.99997C5.4043 11.2594 7.24244 13.0976 9.50186 13.0976C11.7613 13.0976 13.5995 11.2594 13.5995 8.99997C13.5995 6.74055 11.7613 4.90234 9.50186 4.90234C7.24244 4.90234 5.4043 6.74055 5.4043 8.99997ZM11.4612 8.6526C11.6545 8.96696 11.7168 9.24656 11.7168 9.57872C11.7168 10.3997 11.1375 10.841 10.4789 10.841C10.0296 10.841 9.77377 10.6288 9.63421 10.4522L9.87237 11.2959H9.12378L9.35666 10.4715C9.21276 10.6428 8.96083 10.8575 8.52796 10.8575C7.86935 10.8575 7.28687 10.408 7.28687 9.58697C7.28687 9.25475 7.34762 8.96689 7.54085 8.65254C7.84217 8.16227 9.5062 6.7511 9.5062 6.7511C9.5062 6.7511 11.1599 8.16234 11.4612 8.6526Z" fill="#3939A3"/>
</svg>
