<svg width="20" height="20" viewBox="0 0 20 20" fill="none" xmlns="http://www.w3.org/2000/svg">
<path d="M18.9641 6.43975C18.9641 5.98205 18.5926 5.61058 18.1349 5.61058H16.3808C15.9729 2.44647 13.2752 0 10.0004 0C6.72514 0 4.02744 2.44647 3.6199 5.61058H1.86579C1.40809 5.61058 1.03662 5.98205 1.03662 6.43975C1.03662 11.1026 4.61615 14.9437 9.1712 15.3637V18.3417H6.19986C5.74216 18.3417 5.37069 18.7131 5.37069 19.1708C5.37069 19.6285 5.74216 20 6.19986 20H13.8009C14.2586 20 14.63 19.6285 14.63 19.1708C14.63 18.7131 14.2586 18.3417 13.8009 18.3417H10.8295V15.3637C15.3846 14.9437 18.9641 11.1026 18.9641 6.43975ZM2.74139 7.26892H3.6199C4.02744 10.433 6.72556 12.8795 10.0004 12.8795C13.2752 12.8795 15.9733 10.433 16.3808 7.26892H17.2593C16.8464 10.9081 13.7482 13.7452 10.0004 13.7452C6.25252 13.7452 3.15432 10.9081 2.74139 7.26892Z" fill="#6C41BF"/>
</svg>
