<svg width="18" height="18" viewBox="0 0 18 18" fill="none" xmlns="http://www.w3.org/2000/svg">
<path d="M9 1.6875C4.96185 1.6875 1.6875 4.96181 1.6875 9C1.6875 13.0382 4.96185 16.3125 9 16.3125C13.0385 16.3125 16.3125 13.0381 16.3125 9C16.3125 4.96188 13.0384 1.6875 9 1.6875ZM10.4467 15.5454C9.97161 15.6388 9.38053 15.6926 8.89984 15.7018C8.44447 15.6953 7.99095 15.6424 7.54632 15.5438C7.4665 15.5233 7.38676 15.5025 7.30709 15.4814L6.44868 13.1809L7.13932 11.8125H10.8608L10.8808 11.8503L11.5607 13.2162L10.7304 15.4761C10.6363 15.5013 10.5418 15.5244 10.4467 15.5454V15.5454ZM6.66485 2.71687L8.68359 4.09837V6.14261L6.18761 8.25434L4.45078 7.46297L4.30429 7.39621L3.51918 5.14554C4.29293 4.04852 5.38731 3.19324 6.66485 2.71687ZM14.469 5.13517L13.6804 7.40215L11.7823 8.25954L9.28125 6.14261V4.09837L11.3061 2.71269C12.5845 3.1867 13.6934 4.03991 14.469 5.13517V5.13517ZM2.32537 9.61221L4.21523 7.97681L5.95684 8.77131L5.97649 8.78027L6.6697 11.4974L5.95136 12.8519L3.49534 12.8198C2.85029 11.893 2.43313 10.7967 2.32537 9.61221ZM12.0487 12.8519L11.3303 11.4974L12.0247 8.7757L13.7824 7.97481L15.6746 9.61221C15.5669 10.7967 15.1497 11.893 14.5047 12.8197L12.0487 12.8519Z" fill="#FFCC00"/>
</svg>
