<svg width="19" height="18" viewBox="0 0 19 18" fill="none" xmlns="http://www.w3.org/2000/svg">
<path d="M9.5 1.6875C5.46185 1.6875 2.1875 4.96181 2.1875 9C2.1875 13.0382 5.46185 16.3125 9.5 16.3125C13.5385 16.3125 16.8125 13.0381 16.8125 9C16.8125 4.96188 13.5384 1.6875 9.5 1.6875ZM10.9467 15.5454C10.4716 15.6388 9.88053 15.6926 9.39984 15.7018C8.94447 15.6953 8.49095 15.6424 8.04632 15.5438C7.9665 15.5233 7.88676 15.5025 7.80709 15.4814L6.94868 13.1809L7.63932 11.8125H11.3608L11.3808 11.8503L12.0607 13.2162L11.2304 15.4761C11.1363 15.5013 11.0418 15.5244 10.9467 15.5454V15.5454ZM7.16485 2.71687L9.18359 4.09837V6.14261L6.68761 8.25434L4.95078 7.46297L4.80429 7.39621L4.01918 5.14554C4.79293 4.04852 5.88731 3.19324 7.16485 2.71687ZM14.969 5.13517L14.1804 7.40215L12.2823 8.25954L9.78125 6.14261V4.09837L11.8061 2.71269C13.0845 3.1867 14.1934 4.03991 14.969 5.13517V5.13517ZM2.82537 9.61221L4.71523 7.97681L6.45684 8.77131L6.47649 8.78027L7.1697 11.4974L6.45136 12.8519L3.99534 12.8198C3.35029 11.893 2.93313 10.7967 2.82537 9.61221ZM12.5487 12.8519L11.8303 11.4974L12.5247 8.7757L14.2824 7.97481L16.1746 9.61221C16.0669 10.7967 15.6497 11.893 15.0047 12.8197L12.5487 12.8519Z" fill="#3939A3"/>
</svg>
