<svg width="20" height="20" viewBox="0 0 20 20" fill="none" xmlns="http://www.w3.org/2000/svg">
<g clip-path="url(#clip0)">
<path d="M15.7502 1.05647C15.2526 0.588156 14.6158 0.363281 13.974 0.363281C13.2516 0.363281 12.522 0.648122 11.978 1.19282L11.7445 1.42626L11.5111 1.1921C10.9671 0.648122 10.2375 0.363281 9.51507 0.363281C8.87329 0.363281 8.2365 0.588156 7.73892 1.05647C6.64453 2.08661 6.62526 3.80993 7.68038 4.86505L11.7445 8.92921L15.8087 4.86505C16.8638 3.80993 16.8445 2.08661 15.7502 1.05647Z" fill="#6C41BF"/>
<path d="M19.739 10.9985C19.1144 10.5752 18.3783 10.6951 17.7266 11.0713C17.0748 11.4475 13.3326 14.6472 13.3326 14.6472L9.64892 14.6479C9.47758 14.6479 9.29197 14.4551 9.29197 14.2845C9.29197 14.0839 9.46687 13.9276 9.64892 13.9276H11.9027C12.6915 13.9276 13.5746 13.4136 13.5746 12.4998C13.5746 11.5289 12.6915 11.072 11.9027 11.072C10.5341 11.072 10.2679 11.0777 10.2679 11.0777C9.71959 11.0777 9.16347 11.0449 8.73514 10.8157C8.16403 10.523 7.50582 10.3574 6.80336 10.3574C5.62401 10.3574 4.56817 10.8279 3.84429 11.5696L0 15.3546L4.28333 19.638L5.71111 18.2102H12.9407C13.6603 18.2102 14.3549 17.946 14.8924 17.4685L19.7876 11.9772C20.0867 11.7117 20.0695 11.2234 19.739 10.9985Z" fill="#6C41BF"/>
</g>
<defs>
<clipPath id="clip0">
<rect width="20" height="20" fill="white"/>
</clipPath>
</defs>
</svg>
