<svg width="20" height="20" viewBox="0 0 20 20" fill="none" xmlns="http://www.w3.org/2000/svg">
<path d="M19.9998 8.11955C19.9997 7.92495 19.993 7.73132 19.9803 7.53894C19.0945 7.53894 4.0349 7.53894 3.55816 7.53894L2.80306 5.08487C2.51166 4.13791 1.60013 3.47656 0.586409 3.47656C0.262824 3.47656 0.000488281 3.7389 0.000488281 4.06248C0.000488281 4.38607 0.262824 4.6484 0.586409 4.6484C1.08257 4.6484 1.54376 4.97691 1.68302 5.42947C2.65322 8.58258 2.55901 8.27783 2.57127 8.31384C2.59014 8.36896 2.68849 8.6436 3.67331 11.4011C4.03314 12.4087 5.16518 13.0857 6.49022 13.0857H8.50973L7.96272 14.453C6.25839 14.1656 4.72691 15.4863 4.72691 17.1871C4.72691 18.7255 5.97266 19.9995 7.50027 19.9995C8.84292 19.9995 9.94766 19.0215 10.2119 17.773H12.2885C12.3984 18.2924 12.6533 18.7726 13.034 19.1626C14.1236 20.2791 15.8763 20.2794 16.9662 19.1626C17.4867 18.6292 17.7734 17.9276 17.7734 17.1871C17.7734 15.486 16.2417 14.1657 14.5376 14.453L13.9905 13.0857H16.0101C17.3337 13.0857 18.4647 12.4101 18.8258 11.4044C20.0359 8.13233 19.9998 8.27123 19.9998 8.11955ZM12.2895 16.6012H10.2108C10.0576 15.8919 9.63282 15.2826 9.05061 14.8886L9.77188 13.0857H12.7284L13.4497 14.8886C12.8675 15.2826 12.4427 15.8919 12.2895 16.6012Z" fill="#6C41BF"/>
<path d="M19.8225 6.367C19.0997 2.83804 16.1588 0 12.5001 0H11.5627C11.3101 0 11.086 0.161792 11.0065 0.401512L9.02832 6.367H19.8225Z" fill="#6C41BF"/>
</svg>
