<svg width="20" height="16" viewBox="0 0 20 16" fill="none" xmlns="http://www.w3.org/2000/svg">
<path d="M2.15313 12.1625C1.77833 11.7877 1.44548 11.3897 1.14981 10.9795C0.636335 11.3012 0.255671 11.6027 0.0702415 11.7575C-0.00421165 11.8197 -0.0218288 11.9267 0.028718 12.0095C0.41407 12.6408 2.09067 15.1598 4.53071 15.5622C5.60942 15.74 6.67938 15.478 7.58676 15.0895C5.96747 14.6748 3.82969 13.8391 2.15313 12.1625Z" fill="#6C41BF"/>
<path d="M18.8501 10.9795C18.5544 11.3898 18.2215 11.7877 17.8467 12.1625C16.1701 13.8391 14.0324 14.6749 12.4131 15.0895C13.3205 15.478 14.3904 15.74 15.4691 15.5622C17.9092 15.1599 19.5858 12.6408 19.9711 12.0095C20.0217 11.9267 20.0041 11.8198 19.9296 11.7575C19.7442 11.6027 19.3636 11.3012 18.8501 10.9795Z" fill="#6C41BF"/>
<path d="M6.23309 4.95188C6.44566 4.1041 6.7498 3.32118 7.08227 2.62801C6.14012 1.75602 5.25531 1.19528 4.87191 0.969538C4.76672 0.907585 4.63148 0.955983 4.58941 1.07059C4.43301 1.497 4.0941 2.52485 3.92188 3.83489C4.67395 4.10907 5.46719 4.47203 6.23309 4.95188Z" fill="#6C41BF"/>
<path d="M16.0784 3.83489C15.9061 2.52485 15.5672 1.497 15.4108 1.07059C15.3688 0.955983 15.2335 0.907585 15.1283 0.969538C14.7449 1.19524 13.8602 1.75602 12.918 2.62801C13.2504 3.32118 13.5545 4.10407 13.7671 4.95188C14.533 4.47203 15.3263 4.10907 16.0784 3.83489Z" fill="#6C41BF"/>
<path d="M5.92747 7.34755C5.92747 6.95762 5.95302 6.57512 5.99899 6.20153C3.71915 4.60946 1.01509 4.25474 0.216493 4.18247C0.0928997 4.1713 -0.0103424 4.27454 0.000829442 4.39813C0.0858685 5.33743 0.561142 8.91301 2.98177 11.3336C4.59149 12.9434 6.71173 13.6927 8.22802 14.0391C7.27462 12.656 5.92747 10.1968 5.92747 7.34755Z" fill="#6C41BF"/>
<path d="M19.7835 4.18247C18.9849 4.25474 16.2809 4.60946 14.001 6.20157C14.0471 6.57512 14.0726 6.95762 14.0726 7.34755C14.0726 10.1968 12.7254 12.656 11.772 14.0391C13.2883 13.6926 15.4085 12.9434 17.0183 11.3336C19.4389 8.91297 19.9142 5.33739 19.9992 4.3981C20.0104 4.27454 19.9071 4.1713 19.7835 4.18247Z" fill="#6C41BF"/>
<path d="M12.9005 7.34773C12.9005 10.7152 10.744 13.5328 10.1498 14.2453C10.0716 14.3391 9.92799 14.3391 9.84978 14.2453C9.25557 13.5328 7.09912 10.7152 7.09912 7.34773C7.09912 3.98031 9.25561 1.1627 9.84982 0.450195C9.92803 0.356445 10.0717 0.356445 10.1499 0.450195C10.744 1.1627 12.9005 3.98035 12.9005 7.34773Z" fill="#6C41BF"/>
</svg>
