<svg width="20" height="20" viewBox="0 0 20 20" fill="none" xmlns="http://www.w3.org/2000/svg">
<g clip-path="url(#clip0)">
<path d="M5.43424 13.4995C5.15669 13.2106 4.67067 13.1747 4.35344 13.4156L4.34511 13.4102L3.62719 14.1281C3.46977 14.285 3.38347 14.4944 3.38347 14.7171C3.374 15.1654 3.76876 15.5593 4.21663 15.5502C4.47736 15.5544 4.70956 15.4241 4.87962 15.2325L5.43424 14.6778C5.55046 14.5616 5.62843 14.417 5.6608 14.2595C5.71891 13.9873 5.63299 13.6953 5.43424 13.4995Z" fill="#6C41BF"/>
<path d="M3.43693 11.0583C3.11196 10.7333 2.58392 10.7337 2.25855 11.0583C2.18293 11.1343 1.71668 11.6003 1.63037 11.687C0.88092 12.5004 1.99448 13.6144 2.80827 12.8654C2.80827 12.8654 3.35347 12.3201 3.43693 12.2367C3.76211 11.9121 3.76211 11.3835 3.43693 11.0583Z" fill="#6C41BF"/>
<path d="M7.1376 15.3997C6.91497 15.3997 6.70557 15.4865 6.54816 15.6439L5.9195 16.2726C5.91655 16.2755 5.91361 16.2784 5.91067 16.2819C5.59565 16.5931 5.60036 17.1443 5.9195 17.4509C6.24462 17.7756 6.77325 17.7756 7.09788 17.4509L7.72704 16.8218C8.24811 16.302 7.87356 15.3969 7.1376 15.3997Z" fill="#6C41BF"/>
<path d="M12.7289 6.1513C11.4427 6.96239 9.718 6.80841 8.59846 5.68887L7.14105 4.23195L8.95987 2.41313C7.00634 0.220878 3.57122 0.0818056 1.49181 2.17534C-0.598884 4.25181 -0.464863 7.68286 1.72278 9.63698C3.31593 8.74655 5.27505 9.99025 5.14613 11.8045C6.20104 11.9185 7.09412 12.8746 7.14247 13.9298C8.13446 13.9085 9.11983 14.6515 9.36144 15.6314C10.1873 15.41 11.1129 15.6843 11.6785 16.3385L11.6952 16.3189C12.5151 16.8112 13.3826 15.8 12.7642 15.0635L12.7657 15.0616C12.7529 15.0493 9.45413 11.7505 9.45413 11.7505C9.71334 11.4913 10.2351 10.9696 10.4942 10.7104L13.768 13.9842C14.5813 14.7335 15.6956 13.6192 14.9459 12.8058L11.6726 9.53204C11.9318 9.27282 12.4535 8.75111 12.7127 8.49194C13.4485 9.22766 15.2335 11.0127 15.9865 11.7657C16.2965 12.0887 16.8548 12.0885 17.1649 11.7657C17.4895 11.4406 17.4895 10.912 17.1649 10.5873L12.7289 6.1513Z" fill="#6C41BF"/>
<path d="M18.5083 2.17547C16.5149 0.182559 13.2715 0.182559 11.2781 2.17547C10.8905 2.56331 9.58799 3.86611 9.22192 4.23213L9.63875 4.64895C10.3635 5.37373 11.5424 5.37373 12.2667 4.64895L12.787 4.12866C13.0636 4.40832 18.1415 9.47749 18.2842 9.63024C20.4666 7.67539 20.5959 4.24924 18.5083 2.17547Z" fill="#6C41BF"/>
<path d="M10.5372 17.2706C10.212 16.946 9.68376 16.9456 9.35879 17.2706L8.73012 17.8993C8.40662 18.2094 8.40677 18.7675 8.73012 19.0777C9.04068 19.4005 9.59814 19.4003 9.9085 19.0777L10.5372 18.449C10.86 18.1393 10.86 17.5796 10.5372 17.2706Z" fill="#6C41BF"/>
</g>
<defs>
<clipPath id="clip0">
<rect width="20" height="20" fill="white"/>
</clipPath>
</defs>
</svg>
