<svg width="20" height="20" viewBox="0 0 20 20" fill="none" xmlns="http://www.w3.org/2000/svg">
<path d="M11.6426 11.27C12.2791 10.7333 12.7551 10.3089 13.0309 9.78835C12.6683 5.78075 8.52209 1.89907 7.58673 1.07109C7.53541 1.02529 7.46902 0.999982 7.40023 1C7.33143 1.00002 7.26506 1.02536 7.21376 1.07119C6.23562 1.93803 1.74121 6.14912 1.74121 10.341C1.74168 11.2528 1.96234 12.151 2.38443 12.9592C2.80652 13.7673 3.41755 14.4616 4.16555 14.983C4.91355 15.5044 5.7764 15.8374 6.68072 15.9537C7.58505 16.0701 8.50409 15.9663 9.35969 15.6512C9.34823 15.5264 9.34082 15.4009 9.34082 15.2743C9.34082 13.2106 10.617 12.1347 11.6426 11.27ZM5.77189 14.5458C4.92183 14.1839 4.19696 13.5801 3.68746 12.8094C3.17797 12.0387 2.90635 11.1352 2.90641 10.2113C2.90641 8.48862 3.81696 6.76282 4.83776 5.36919C4.88111 5.3111 4.94428 5.27096 5.01528 5.25639C5.08628 5.24181 5.16016 5.25382 5.22289 5.29013C5.28562 5.32644 5.33283 5.38453 5.35555 5.45335C5.37828 5.52218 5.37493 5.59695 5.34616 5.66347C4.62265 7.37227 4.13563 9.31335 4.47977 11.0905C4.6975 12.2236 5.26227 13.261 6.09584 14.0589C6.14718 14.1068 6.17983 14.1714 6.18798 14.2411C6.19614 14.3109 6.17926 14.3813 6.14036 14.4397C6.10146 14.4982 6.04307 14.5409 5.97558 14.5604C5.9081 14.5798 5.83591 14.5746 5.77189 14.5458ZM10.3407 15.2743C10.3407 12.1356 14.0698 12.015 14.2927 8.91461C14.295 8.87308 14.309 8.83305 14.3332 8.79919C14.3573 8.76534 14.3906 8.73904 14.4291 8.72338C14.4677 8.70772 14.5099 8.70334 14.5508 8.71075C14.5917 8.71815 14.6297 8.73704 14.6603 8.76521C15.6367 9.67286 18.2585 12.3597 18.2585 15.0411C18.2585 15.561 18.1561 16.0758 17.9571 16.5561C17.7582 17.0364 17.4666 17.4729 17.099 17.8405C16.7314 18.2081 16.2949 18.4997 15.8146 18.6987C15.3343 18.8976 14.8195 19 14.2996 19C12.1132 19 10.3407 17.1189 10.3407 15.2743Z" fill="#6C41BF"/>
</svg>
