<svg width="20" height="20" viewBox="0 0 20 20" fill="none" xmlns="http://www.w3.org/2000/svg">
<g clip-path="url(#clip0)">
<path d="M10.0463 6.34565C10.0498 6.34565 10.0534 6.3454 10.0569 6.3454C10.0605 6.3454 10.064 6.34565 10.0676 6.34565C11.8199 6.34565 13.2403 4.92516 13.2403 3.17276C13.2403 1.42057 11.8199 0 10.0676 0C10.064 0 10.0605 0.000247601 10.0569 0.000247601C10.0534 0.000247601 10.0498 0 10.0463 0C8.2939 0 6.87354 1.42057 6.87354 3.17276C6.87345 4.92516 8.29382 6.34565 10.0463 6.34565Z" fill="#6C41BF"/>
<path d="M18.0152 12.8357L14.4372 10.2342L13.3058 7.47122C13.0905 6.94548 12.5777 6.63201 12.0415 6.64382L12.0413 6.64258H9.99947H7.95771L7.95754 6.64382C7.42132 6.63201 6.90858 6.94548 6.6932 7.47122L5.56175 10.2342L1.98383 12.8357C1.38781 13.2691 1.25588 14.1036 1.68935 14.6997C1.95044 15.0587 2.35725 15.2494 2.76967 15.2494C3.04179 15.2494 3.31638 15.1664 3.55325 14.994L7.42177 12.1815L7.32319 13.1997L3.66541 16.9071C3.15795 17.4351 3.01484 18.2152 3.30189 18.8891C3.5889 19.5628 4.25049 20.0002 4.9829 20.0002H6.73129C6.28074 19.5924 5.99344 18.9839 5.99344 18.3044C5.99344 17.0793 6.92488 16.0826 8.06979 16.0826C8.06979 16.0826 9.40902 16.0826 10.0612 16.0826C10.7135 16.0826 11.2312 16.6159 11.2312 16.6159H8.06979C7.19967 16.6159 6.49174 17.3733 6.49174 18.3044C6.49174 19.2355 7.19967 19.9929 8.06979 19.9929H11.1315C11.1658 19.9904 11.2008 19.9903 11.2346 19.9863H14.9356C15.668 19.9863 16.3295 19.5488 16.6166 18.875C16.9036 18.2013 16.7605 17.4212 16.2531 16.8931L12.675 13.1811H12.674L12.5772 12.1815L16.4457 14.994C16.6825 15.1664 16.9572 15.2494 17.2292 15.2494C17.6417 15.2494 18.0485 15.0587 18.3096 14.6997C18.7431 14.1036 18.6112 13.2691 18.0152 12.8357Z" fill="#6C41BF"/>
</g>
<defs>
<clipPath id="clip0">
<rect width="20" height="20" fill="white"/>
</clipPath>
</defs>
</svg>
