<svg width="19" height="18" viewBox="0 0 19 18" fill="none" xmlns="http://www.w3.org/2000/svg">
<path d="M12.095 13.59L13.16 14.655L14.75 13.0575L16.34 14.655L17.405 13.59L15.8075 12L17.405 10.41L16.34 9.345L14.75 10.9425L13.16 9.345L12.095 10.41L13.6925 12M11.7275 8.715C11.645 7.71 10.685 6.7275 9.5 6.75C8.225 6.78 7.25 7.725 7.25 9C7.25 10.275 8.225 11.205 9.5 11.25C9.7925 11.25 10.0775 11.19 10.355 11.0775C10.5575 10.2525 10.895 9.4725 11.7275 8.715ZM10.25 12H5.75C5.75 11.175 5.075 10.5 4.25 10.5V7.5C5.075 7.5 5.75 6.825 5.75 6H13.25C13.25 6.825 13.925 7.5 14.75 7.5V7.5375C15.2525 7.545 15.755 7.635 16.25 7.8V4.5H2.75V13.5H10.49C10.325 12.9975 10.25 12.495 10.25 12Z" fill="#3939A3"/>
</svg>
