<svg width="18" height="18" viewBox="0 0 18 18" fill="none" xmlns="http://www.w3.org/2000/svg">
<path d="M8.99987 1.80005C5.02976 1.80005 1.7998 5.03001 1.7998 9.00012C1.7998 12.9702 5.02976 16.2002 8.99981 16.2002C12.9699 16.2002 16.1999 12.9702 16.1999 9.00012C16.1999 5.03001 12.97 1.80005 8.99987 1.80005ZM8.42075 2.36062H9.53767V3.47755H8.42075V2.36062ZM14.0283 9.00012C14.0283 11.7728 11.7725 14.0285 8.99987 14.0285C6.22723 14.0285 3.97154 11.7728 3.97154 9.00012C3.97154 6.22748 6.22729 3.97172 8.99987 3.97172C11.7725 3.97172 14.0283 6.22748 14.0283 9.00012ZM4.69996 3.91042L5.48975 4.70021L4.69996 5.49L3.91017 4.70021L4.69996 3.91042ZM3.45664 9.55858H2.33971V8.44165H3.45664V9.55858ZM4.69996 14.0899L3.91017 13.3001L4.69996 12.5103L5.48975 13.3001L4.69996 14.0899ZM9.53767 15.6396H8.42075V14.5227H9.53767V15.6396ZM13.2998 14.0899L12.51 13.3001L13.2998 12.5103L14.0896 13.3001L13.2998 14.0899ZM13.2998 5.49L12.51 4.70021L13.2998 3.91042L14.0896 4.70021L13.2998 5.49ZM14.5018 9.55858V8.44165H15.6187V9.55858H14.5018Z" fill="#FFCC00"/>
<path d="M4.9043 8.99997C4.9043 11.2594 6.74244 13.0976 9.00186 13.0976C11.2613 13.0976 13.0995 11.2594 13.0995 8.99997C13.0995 6.74055 11.2613 4.90234 9.00186 4.90234C6.74244 4.90234 4.9043 6.74055 4.9043 8.99997ZM10.9612 8.6526C11.1545 8.96696 11.2168 9.24656 11.2168 9.57872C11.2168 10.3997 10.6375 10.841 9.97886 10.841C9.52961 10.841 9.27377 10.6288 9.13421 10.4522L9.37237 11.2959H8.62378L8.85666 10.4715C8.71276 10.6428 8.46083 10.8575 8.02796 10.8575C7.36935 10.8575 6.78687 10.408 6.78687 9.58697C6.78687 9.25475 6.84762 8.96689 7.04085 8.65254C7.34217 8.16227 9.0062 6.7511 9.0062 6.7511C9.0062 6.7511 10.6599 8.16234 10.9612 8.6526Z" fill="#FFCC00"/>
</svg>
