<svg width="20" height="20" viewBox="0 0 20 20" fill="none" xmlns="http://www.w3.org/2000/svg">
<g clip-path="url(#clip0)">
<path d="M8.62709 11.9731C8.89095 11.8794 15.1116 9.65745 17.0122 7.75672C18.3377 6.43099 18.3209 4.2953 17.0121 2.98627C15.6971 1.67123 13.5575 1.67126 12.2427 2.98627C10.342 4.88701 8.12073 11.109 8.02707 11.373C7.96645 11.5439 8.00949 11.7343 8.13765 11.8625C8.27288 11.9977 8.46601 12.0302 8.62709 11.9731Z" fill="#6C41BF"/>
<path d="M4 2C2.34582 2 1 3.46048 1 5.2556C1 6.42591 1.5659 7.38665 2.16503 8.40383C2.97173 9.77341 3.8059 11.1896 3.53209 13.418C3.5016 13.6661 3.64085 13.9018 3.86135 13.9754C4.1812 14.082 4.37649 13.814 4.42218 13.7148C5.76105 10.8089 7 7.77292 7 5.25563C7.00003 3.46048 5.65421 2 4 2V2Z" fill="#6C41BF"/>
<path d="M16.2764 12.5527C14.9221 12.5527 13.355 12.8852 11.4858 13.569C9.78355 14.1918 8.06093 15.0223 6.60034 15.7526C6.34421 15.8806 6.21819 16.175 6.3023 16.4488C6.3864 16.7224 6.65589 16.8951 6.93983 16.8575C9.48878 16.5175 11.1087 17.5531 12.6753 18.5544C13.8388 19.2982 14.9378 20.0007 16.2764 20.0007C18.3298 20.0007 20.0004 18.3301 20.0004 16.2767C20.0004 14.2234 18.3298 12.5527 16.2764 12.5527Z" fill="#6C41BF"/>
</g>
<defs>
<clipPath id="clip0">
<rect width="20" height="20" fill="white"/>
</clipPath>
</defs>
</svg>
