<svg width="20" height="22" viewBox="0 0 20 22" fill="none" xmlns="http://www.w3.org/2000/svg">
<path d="M13.5081 14.8584H11.3165V11.3501H8.68315V14.8584L6.49159 14.8584C5.76443 14.8584 5.17493 15.4479 5.17491 16.1751C5.17491 16.9022 5.76441 17.4917 6.49159 17.4918L8.68315 17.4918L8.68315 19.6833C8.68315 20.4105 9.27265 21 9.99983 21C10.727 21 11.3165 20.4105 11.3165 19.6833L11.3165 17.4918L13.5081 17.4918C14.2352 17.4918 14.8247 16.9023 14.8248 16.1751C14.8248 15.4479 14.2353 14.8584 13.5081 14.8584Z" fill="#6C41BF"/>
<path d="M11.3165 11.3501H8.68315V14.8584L6.49159 14.8584C5.76443 14.8584 5.17493 15.4479 5.17491 16.1751C5.17491 16.9022 5.76441 17.4917 6.49159 17.4918L8.68315 17.4918L8.68315 19.6833C8.68315 20.4105 9.27265 21 9.99983 21C10.727 21 11.3165 20.4105 11.3165 19.6833L11.3165 17.4918C10.5894 17.4918 9.99985 16.9023 9.99985 16.1751C9.99985 15.4479 10.5893 14.8584 11.3165 14.8584V11.3501Z" fill="#6C41BF"/>
<path d="M14.4222 2.83183C11.9798 0.389389 8.01986 0.389395 5.57744 2.83182C3.13499 5.27426 3.13501 9.23423 5.5774 11.6766C8.01982 14.119 11.9798 14.1191 14.4222 11.6766C16.8646 9.23418 16.8647 5.27424 14.4222 2.83183ZM12.5602 4.69386C13.9719 6.10564 13.9719 8.40275 12.5602 9.81453C11.1484 11.2263 8.85125 11.2263 7.43948 9.81454C6.0277 8.40277 6.02771 6.10565 7.43949 4.69387C8.85127 3.28209 11.1484 3.28208 12.5602 4.69386Z" fill="#6C41BF"/>
<path d="M5.57741 4.69389C6.0916 5.20808 6.9253 5.20806 7.43949 4.69387C6.02771 6.10565 6.0277 8.40277 7.43948 9.81454C8.85125 11.2263 11.1484 11.2263 12.5602 9.81453C12.046 10.3287 12.0459 11.1624 12.5601 11.6766C13.0743 12.1908 13.908 12.1908 14.4222 11.6766C11.9798 14.1191 8.01982 14.119 5.5774 11.6766C3.13501 9.23423 3.13499 5.27426 5.57744 2.83182C5.06322 3.34603 5.06322 4.1797 5.57741 4.69389Z" fill="#6C41BF"/>
<path d="M13.2132 4.19341C14.9878 5.96808 14.9878 8.84539 13.2132 10.6201C11.4385 12.3947 8.56118 12.3947 6.78651 10.6201C5.01184 8.84539 5.01184 5.96808 6.78651 4.19341C8.56118 2.41874 11.4385 2.41874 13.2132 4.19341Z" fill="#6C41BF"/>
</svg>
