<svg width="20" height="20" viewBox="0 0 20 20" fill="none" xmlns="http://www.w3.org/2000/svg">
<path d="M17.807 2.19688C16.39 0.780039 14.5065 0 12.5025 0C10.4986 0 8.61516 0.780039 7.19809 2.19688C6.79114 2.60379 6.43461 3.06316 6.10821 3.60027C6.02602 3.7366 6.02762 3.90789 6.11391 4.04219C6.2002 4.17605 6.35891 4.25094 6.51356 4.23059C6.87657 4.18746 7.19973 4.16672 7.50169 4.16672C12.0972 4.16672 15.8365 7.90492 15.8365 12.5C15.8365 12.802 15.8161 13.1161 15.7722 13.4888C15.7543 13.6471 15.8275 13.8017 15.961 13.888C16.0302 13.932 16.1083 13.9539 16.1865 13.9539C16.2613 13.9539 16.3362 13.934 16.403 13.8933C16.941 13.567 17.4 13.2101 17.807 12.8032C20.7315 9.87914 20.7315 5.12086 17.807 2.19688Z" fill="#6C41BF"/>
<path d="M7.5 5C3.36426 5 0 8.36465 0 12.5C0 16.6354 3.36426 20 7.5 20C11.6357 20 15 16.6354 15 12.5C15 8.36465 11.6357 5 7.5 5ZM10.4167 9.16668C11.106 9.16668 11.6667 9.72738 11.6667 10.4167C11.6667 11.106 11.106 11.6667 10.4167 11.6667C9.72738 11.6667 9.16668 11.106 9.16668 10.4167C9.16668 9.72738 9.72738 9.16668 10.4167 9.16668ZM4.58332 9.16668C5.27262 9.16668 5.83332 9.72738 5.83332 10.4167C5.83332 11.106 5.27262 11.6667 4.58332 11.6667C3.89402 11.6667 3.33332 11.106 3.33332 10.4167C3.33332 9.72738 3.89406 9.16668 4.58332 9.16668ZM12.4878 13.8509C12.478 13.8875 11.5283 17.5 7.5 17.5C3.47168 17.5 2.52199 13.8875 2.51223 13.8509C2.45688 13.6283 2.59199 13.4029 2.81496 13.3468C3.03957 13.291 3.26336 13.4257 3.32035 13.6479C3.35211 13.7711 4.13336 16.6666 7.50004 16.6666C10.8667 16.6666 11.648 13.7711 11.6797 13.6479C11.7359 13.4257 11.9597 13.291 12.1851 13.3468C12.408 13.4029 12.5431 13.6283 12.4878 13.8509Z" fill="#6C41BF"/>
</svg>
