<svg width="20" height="20" viewBox="0 0 20 20" fill="none" xmlns="http://www.w3.org/2000/svg">
<g clip-path="url(#clip0)">
<path d="M14.2545 5.57717C12.8364 3.23651 11.2591 1.21071 10.4451 0.211454C10.3362 0.0776324 10.1727 -5.21461e-05 10.0002 2.62621e-08C9.82758 2.62621e-08 9.66417 0.0776846 9.55519 0.211507C8.74119 1.21108 7.16392 3.23755 5.74582 5.57842C3.91833 8.59518 2.9917 11.0894 2.9917 12.9916C2.9917 16.856 6.13566 20 10.0001 20C13.8646 20 17.0085 16.856 17.0085 12.9916C17.0086 11.0881 16.082 8.59356 14.2545 5.57717ZM10.9619 17.4187C10.5526 17.5233 10.1278 17.5763 9.69902 17.5763C7.0807 17.5763 4.95056 15.5975 4.95056 13.1652C4.95056 12.578 5.10551 11.8919 5.41098 11.1261C5.46258 10.9967 5.6096 10.9229 5.75454 10.9542C5.89937 10.9854 5.99662 11.1117 5.98169 11.249C5.96385 11.4132 5.95477 11.5736 5.95477 11.7256C5.95477 14.3726 8.08763 16.5892 10.916 16.8813C11.0568 16.8959 11.1666 17.0012 11.1778 17.1324C11.1891 17.2636 11.0984 17.3837 10.9619 17.4187Z" fill="#6C41BF"/>
</g>
<defs>
<clipPath id="clip0">
<rect width="19.9999" height="20" fill="white"/>
</clipPath>
</defs>
</svg>
