<svg width="32" height="32" viewBox="0 0 32 32" fill="none" xmlns="http://www.w3.org/2000/svg">
<path d="M30.7459 26.0008H2.49969V22.0638C2.49969 20.6855 3.62106 19.5641 4.99938 19.5641H26.9964C28.3748 19.5641 29.4961 20.6855 29.4961 22.0638C29.4961 22.7541 30.0557 23.3136 30.7459 23.3136C31.4363 23.3136 31.9958 22.7541 31.9958 22.0638C31.9958 20.2174 30.9889 18.6028 29.4961 17.7371V3.87875C29.4961 3.18844 28.9365 2.62894 28.2463 2.62894C27.556 2.62894 26.9964 3.1885 26.9964 3.87875V5.85094C25.7451 5.47787 23.8279 5.0325 21.1944 4.759C21.3544 4.3595 21.4484 3.92356 21.4484 3.443C21.4484 2.47219 21.1062 1.59037 20.4847 0.959875C19.8746 0.340875 19.0406 0 18.1364 0C17.2628 0 16.5837 0.266875 16.0741 0.663562C15.5646 0.266875 14.8856 0 14.0119 0C13.1078 0 12.2739 0.340875 11.6636 0.959813C11.0421 1.59031 10.6999 2.47213 10.6999 3.44294C10.6999 3.91756 10.7917 4.34862 10.9481 4.74412C8.23919 5.01612 6.27375 5.47094 4.99931 5.85087V3.87875C4.99931 3.18844 4.43975 2.62894 3.7495 2.62894C3.05919 2.62894 2.49969 3.1885 2.49969 3.87875V17.7371C1.00687 18.6029 0 20.2175 0 22.0639V27.2507C0 27.941 0.559563 28.5005 1.24981 28.5005H2.49962V30.7502C2.49962 31.4405 3.05919 32 3.74944 32C4.43969 32 4.99925 31.4404 4.99925 30.7502V28.5005H26.9963V30.7502C26.9963 31.4405 27.5559 32 28.2461 32C28.9364 32 29.4959 31.4404 29.4959 30.7502V28.5005H30.7458C31.4361 28.5005 31.9956 27.9409 31.9956 27.2507C31.9958 26.5604 31.4362 26.0008 30.7459 26.0008ZM5.18906 17.0645C5.39838 16.5569 5.7765 16.0831 6.30281 15.6803C7.24275 14.9609 8.51081 14.5648 9.87369 14.5648C11.2366 14.5648 12.5046 14.9609 13.4446 15.6803C13.9709 16.0831 14.349 16.5569 14.5583 17.0645H5.18906ZM17.4374 17.0645C17.6467 16.5569 18.0249 16.0831 18.5512 15.6803C19.4911 14.9609 20.7592 14.5648 22.1221 14.5648C23.4849 14.5648 24.753 14.9609 25.6929 15.6803C26.2192 16.0831 26.5974 16.5569 26.8067 17.0645H17.4374ZM14.0119 2.49969C14.4264 2.49969 14.5762 2.63631 14.6681 2.76988C14.7723 2.92138 14.8174 3.10944 14.8286 3.18394C14.8594 3.84019 15.3925 4.33706 16.0508 4.35012C16.0589 4.35031 16.0668 4.35038 16.0749 4.35038C16.7262 4.35031 17.2694 3.82494 17.3202 3.17281C17.3203 3.17125 17.3535 2.97731 17.4552 2.80875C17.5522 2.64825 17.7017 2.49975 18.1364 2.49975C18.6527 2.49975 18.9487 2.84356 18.9487 3.44306C18.9487 4.22013 17.9344 4.97806 16.9534 5.71088C16.6584 5.93131 16.359 6.155 16.0741 6.389C15.7893 6.15513 15.4897 5.93138 15.1948 5.71088C14.2139 4.978 13.1995 4.22013 13.1995 3.44306C13.1996 2.8435 13.4957 2.49969 14.0119 2.49969ZM4.99931 8.47325C6.13619 8.07294 8.69388 7.35144 12.8922 7.09531C13.1636 7.31331 13.4374 7.51806 13.6986 7.71331C14.2676 8.13844 14.8051 8.54 15.0998 8.90681C15.3371 9.20206 15.6954 9.37381 16.0741 9.37381C16.4529 9.37381 16.8111 9.20206 17.0484 8.90681C17.3431 8.54 17.8806 8.13844 18.4496 7.71331C18.7074 7.52069 18.9774 7.31887 19.2451 7.10413C23.3223 7.36581 25.8614 8.08169 26.9964 8.47744V13.5379C25.6519 12.587 23.9329 12.0652 22.122 12.0652C20.2131 12.0652 18.4055 12.6441 17.0319 13.6952C16.639 13.9959 16.2937 14.3256 15.9978 14.6782C15.7019 14.3256 15.3566 13.9959 14.9637 13.6952C13.5902 12.6441 11.7825 12.0652 9.87362 12.0652C8.06281 12.0652 6.34369 12.587 4.99925 13.5379V8.47325H4.99931Z" fill="white"/>
</svg>
