<svg width="14" height="14" viewBox="0 0 14 14" fill="none" xmlns="http://www.w3.org/2000/svg">
<path d="M3.01 4.27781C3.71 4.27781 4.27 3.70906 4.27 3.01781C4.27 2.32656 3.70125 1.75781 3.01 1.75781C2.31875 1.75781 1.75 2.32656 1.75 3.01781C1.75 3.70906 2.31875 4.27781 3.01 4.27781ZM5.46875 5.23156V12.2491H7.63875V8.78406C7.63875 7.86531 7.81375 6.98156 8.9425 6.98156C10.0712 6.98156 10.0712 8.03156 10.0712 8.83656V12.2491H12.25V8.39906C12.25 6.50906 11.8475 5.05656 9.6425 5.05656C8.58375 5.05656 7.875 5.63406 7.58625 6.18531H7.56V5.22281H5.4775L5.46875 5.23156ZM1.925 5.23156H4.10375V12.2491H1.925V5.23156Z" fill="#0076B2"/>
</svg>
