<svg width="74" height="50" viewBox="0 0 74 50" fill="none" xmlns="http://www.w3.org/2000/svg">
<g clip-path="url(#clip0)">
<path d="M62.2885 48.1699H8.04016C6.60225 48.1699 5.42578 46.9935 5.42578 45.5555V2.61438C5.42578 1.17647 6.60225 0 8.04016 0H65.099C66.5369 0 67.7134 1.17647 67.7134 2.61438V46.4052C67.7787 49.4771 65.2951 48.1699 62.2885 48.1699Z" fill="#0A4586"/>
<path d="M0.653595 44.3137H72.549C72.9412 44.3137 73.2026 44.5752 73.2026 44.9673V49.281C73.2026 49.6732 72.9412 49.9346 72.549 49.9346H0.653595C0.261438 49.9346 0 49.6732 0 49.281V44.9673C0 44.6405 0.261438 44.3137 0.653595 44.3137Z" fill="#093B73"/>
<path d="M9.28125 4.5752H63.8564V39.2157H9.28125V4.5752Z" fill="#3799E6"/>
<path d="M36.6016 4.5752H63.9218V39.2157H36.6016V4.5752Z" fill="#3DA8FB"/>
<path d="M18.8887 27.9739L24.8364 13.7909L26.7972 14.6406L20.8495 28.8236L18.8887 27.9739Z" fill="white"/>
<path d="M26.7984 14.6406L22.7461 24.2484V18.6929L24.8376 13.7909L26.7984 14.6406Z" fill="white"/>
<path d="M18.2357 20.9804C16.4056 20.9804 14.9023 19.3464 14.9023 17.2549C14.9023 15.1634 16.4056 13.5294 18.2357 13.5294C20.0657 13.5294 21.569 15.1634 21.569 17.2549C21.569 19.3464 20.0657 20.9804 18.2357 20.9804ZM18.2357 15.7516C17.5821 15.7516 17.0592 16.4706 17.0592 17.3203C17.0592 18.1699 17.5821 18.8889 18.2357 18.8889C18.8893 18.8889 19.4121 18.1699 19.4121 17.3203C19.4121 16.4706 18.8893 15.7516 18.2357 15.7516Z" fill="white"/>
<path d="M27.2552 29.3464C25.4251 29.3464 23.9219 27.7124 23.9219 25.6209C23.9219 23.5947 25.4251 21.8954 27.2552 21.8954C29.0853 21.8954 30.5885 23.5294 30.5885 25.6209C30.5885 27.647 29.0853 29.3464 27.2552 29.3464ZM27.2552 24.0522C26.6016 24.0522 26.0787 24.7712 26.0787 25.6209C26.0787 26.4705 26.6016 27.1895 27.2552 27.1895C27.9088 27.1895 28.4317 26.4705 28.4317 25.6209C28.4317 24.7712 27.9088 24.0522 27.2552 24.0522Z" fill="white"/>
<path d="M49.9991 31.6339C55.4858 31.6339 59.9337 27.186 59.9337 21.6993C59.9337 16.2125 55.4858 11.7646 49.9991 11.7646C44.5123 11.7646 40.0645 16.2125 40.0645 21.6993C40.0645 27.186 44.5123 31.6339 49.9991 31.6339Z" fill="#ED2939"/>
<path d="M50.0004 29.4771C54.296 29.4771 57.7782 25.9948 57.7782 21.6993C57.7782 17.4037 54.296 13.9215 50.0004 13.9215C45.7049 13.9215 42.2227 17.4037 42.2227 21.6993C42.2227 25.9948 45.7049 29.4771 50.0004 29.4771Z" fill="#B32D11"/>
<path d="M49.8037 24.902L47.32 26.0131C47.2547 26.0784 47.124 25.9477 47.124 25.8824L47.4507 23.2026C47.4507 23.0719 47.4508 22.8758 47.32 22.8105L45.49 20.7843C45.4246 20.719 45.49 20.5883 45.5553 20.5883L48.2351 20.0654C48.3658 20.0654 48.4965 19.9347 48.5619 19.8039L49.8691 17.451C49.9344 17.3856 50.0651 17.3856 50.1305 17.451L51.4377 19.8039C51.503 19.9347 51.6338 20 51.7645 20.0654L54.4442 20.5883C54.5749 20.5883 54.5749 20.719 54.5096 20.7843L52.6795 22.8105C52.5488 22.9412 52.5488 23.0719 52.5488 23.2026L52.8756 25.8824C52.8756 26.0131 52.8102 26.0784 52.6795 26.0131L50.1959 24.902C50.1305 24.8366 49.9344 24.8366 49.8037 24.902Z" fill="white"/>
</g>
<defs>
<clipPath id="clip0">
<rect width="73.2026" height="50" fill="white"/>
</clipPath>
</defs>
</svg>
