<svg width="32" height="32" viewBox="0 0 32 32" fill="none" xmlns="http://www.w3.org/2000/svg">
<path d="M30.0831 25.765C31.3398 24.054 32 22.0657 32 19.9702C32 16.6157 30.2603 13.5014 27.3255 11.5579C27.0548 8.56922 25.6593 5.79754 23.3261 3.66205C20.7459 1.30056 17.3229 0 13.6875 0C10.0521 0 6.62914 1.30056 4.04897 3.66205C1.43797 6.05173 4.16756e-05 9.23784 4.16756e-05 12.6335C4.16756e-05 15.2452 0.841977 17.7213 2.44253 19.8399L0.0911664 25.6564C-0.0995205 26.1281 0.0146666 26.6682 0.379978 27.0223C0.61804 27.2532 0.931789 27.375 1.25035 27.375C1.42054 27.3749 1.59216 27.3402 1.75429 27.2687L8.46058 24.3125C9.30245 24.6343 10.1698 24.875 11.0573 25.0344C11.9662 26.5293 13.2627 27.7952 14.8388 28.7167C16.5984 29.7454 18.6301 30.2951 20.7199 30.3109C20.7506 30.3132 20.7813 30.3156 20.8125 30.3156C22.2574 30.3156 23.6572 30.066 24.9815 29.5731L30.2458 31.8937C30.4079 31.9652 30.5794 32 30.7497 32C31.0682 32 31.382 31.8782 31.62 31.6473C31.9853 31.2932 32.0995 30.753 31.9088 30.2814L30.0831 25.765ZM27.493 26.0285L28.4373 28.3644L25.51 27.074C25.1936 26.9345 24.8333 26.9323 24.5153 27.0681C23.368 27.5576 22.1395 27.8085 20.8631 27.815C20.8462 27.8143 20.8296 27.8124 20.8125 27.8124C18.3491 27.8124 16.0219 26.8498 14.396 25.2485C16.4575 25.1497 18.478 24.6233 20.2795 23.7084C20.895 23.3958 21.1405 22.6434 20.8279 22.0279C20.5153 21.4124 19.7629 21.1669 19.1474 21.4794C17.489 22.3217 15.601 22.7669 13.6874 22.7669C12.0247 22.7669 10.4239 22.4437 8.9297 21.8061C8.61158 21.6704 8.25145 21.6725 7.93489 21.8121L3.56253 23.7395L5.03471 20.0979C5.20927 19.6661 5.12927 19.1729 4.82709 18.8185C3.30478 17.0324 2.50003 14.8936 2.50003 12.6335C2.50003 7.04579 7.51877 2.49999 13.6875 2.49999C19.8562 2.49999 24.875 7.04579 24.875 12.6335C24.875 14.4383 24.3443 16.21 23.3405 17.7571C22.9648 18.3363 23.1296 19.1103 23.7088 19.4861C24.2878 19.8619 25.062 19.6971 25.4378 19.1178C26.3286 17.7448 26.9238 16.2288 27.1991 14.6543C28.6634 16.0883 29.4999 17.9771 29.4999 19.9702C29.4999 21.7156 28.8778 23.368 27.7006 24.7491C27.3985 25.1035 27.3185 25.5967 27.493 26.0285Z" fill="white"/>
<path d="M19.5822 8.21534C18.808 7.43159 17.7466 6.99997 16.5937 6.99997C15.3995 6.99997 14.3753 7.39409 13.625 8.12715C12.8746 7.39409 11.8505 6.99997 10.6562 6.99997C9.50337 6.99997 8.44199 7.43159 7.66775 8.21534C6.87444 9.01846 6.4375 10.1496 6.4375 11.4005C6.4375 14.0438 8.70949 15.7377 10.535 17.0987C11.3828 17.7308 12.1835 18.3279 12.6514 18.9089C12.8887 19.2036 13.2467 19.3749 13.625 19.3749C14.0033 19.3749 14.3613 19.2036 14.5986 18.9089C15.0664 18.3279 15.8672 17.7308 16.7149 17.0987C18.5405 15.7377 20.8125 14.0438 20.8125 11.4005C20.8125 10.1496 20.3755 9.01846 19.5822 8.21534ZM15.2207 15.0946C14.6778 15.4993 14.1243 15.9119 13.625 16.3489C13.1257 15.9119 12.5722 15.4993 12.0294 15.0946C10.5093 13.9612 8.93749 12.7893 8.93749 11.4005C8.93749 10.246 9.61218 9.49996 10.6562 9.49996C11.5407 9.49996 11.8888 9.87365 12.0736 10.1546C12.3134 10.5192 12.3717 10.9195 12.3792 10.9783C12.418 11.6385 12.9627 12.1547 13.625 12.1547C14.2872 12.1547 14.832 11.6384 14.8707 10.9783C14.8782 10.9195 14.9365 10.5192 15.1763 10.1546C15.3612 9.87365 15.7092 9.49996 16.5937 9.49996C17.6378 9.49996 18.3125 10.246 18.3125 11.4005C18.3125 12.7893 16.7407 13.9612 15.2207 15.0946Z" fill="white"/>
</svg>
