<svg width="50" height="50" viewBox="0 0 50 50" fill="none" xmlns="http://www.w3.org/2000/svg">
<path fill-rule="evenodd" clip-rule="evenodd" d="M25.4392 0.125112L49.6056 15.1251C49.9221 15.3212 50.0701 15.7036 49.968 16.0617C49.866 16.4198 49.5388 16.6668 49.1664 16.6667H47.4998V49.1667C47.4998 49.6269 47.1267 50 46.6664 50H3.33355C2.87332 50 2.50023 49.6269 2.50023 49.1667V16.6667H0.833577C0.461204 16.6668 0.133972 16.4198 0.0319542 16.0617C-0.0700633 15.7036 0.0778974 15.3212 0.394415 15.1251L24.5608 0.125112C24.8299 -0.041704 25.1701 -0.041704 25.4392 0.125112ZM25 5.83343C23.1591 5.83343 21.6667 7.32581 21.6667 9.16676C21.6667 11.0077 23.1591 12.5001 25 12.5001C26.8409 12.5001 28.3333 11.0077 28.3333 9.16676C28.3333 8.28271 27.9821 7.43486 27.357 6.80974C26.7319 6.18462 25.884 5.83343 25 5.83343ZM25 10.8334C24.0795 10.8334 23.3334 10.0872 23.3334 9.16676C23.3334 8.24629 24.0795 7.5001 25 7.5001C25.9205 7.5001 26.6667 8.24629 26.6667 9.16676C26.6667 10.0872 25.9205 10.8334 25 10.8334ZM25 1.81427L46.2439 15.0001H3.75605L25 1.81427ZM40.8332 48.3333H42.4998V24.1667H7.50018V48.3333H9.16683V39.1667C9.16683 38.7065 9.53992 38.3334 10.0002 38.3334H14.1668V29.1667C14.1668 28.7065 14.5399 28.3334 15.0001 28.3334H34.9999C35.4601 28.3334 35.8332 28.7065 35.8332 29.1667V38.3334H39.9998C40.4601 38.3334 40.8332 38.7065 40.8332 39.1667V48.3333ZM25.8333 38.3334V30H34.1666V38.3334H25.8333ZM15.8334 30V38.3334H24.1667V30H15.8334ZM19.1667 40V48.3333H10.8335V40H19.1667ZM29.1666 48.3333V40H20.8334V48.3333H29.1666ZM30.8333 48.3333V40H39.1665V48.3333H30.8333ZM44.1665 48.3333H45.8331V16.6667H4.16688V48.3333H5.83353V23.3334C5.83353 22.8732 6.20662 22.5001 6.66685 22.5001H43.3331C43.7934 22.5001 44.1665 22.8732 44.1665 23.3334V48.3333Z" fill="white"/>
</svg>
