<svg width="53" height="50" viewBox="0 0 53 50" fill="none" xmlns="http://www.w3.org/2000/svg">
<path fill-rule="evenodd" clip-rule="evenodd" d="M52.1545 23.679V48.3673L53 48.3672V50H0V48.3672H0.845412V32.8346L12.4815 26.9759L14.1628 7.50527H22.2841L23.9067 29.5625L29.0324 26.9818L30.707 0H38.8606L40.491 29.5516L52.1545 23.679ZM37.3268 1.63281H32.2304L32.1247 3.33568H37.4207L37.3268 1.63281ZM32.0234 4.96859H37.5107L37.6047 6.67145H31.9177L32.0234 4.96859ZM37.6949 8.30416H31.8164L30.7096 26.1373L35.5921 23.679V32.0182L38.911 30.3471L37.6949 8.30416ZM15.6495 9.13808H20.7784L20.9036 10.8409H15.5025L15.6495 9.13808ZM21.0236 12.4738H15.3614L15.2143 14.1766H21.1489L21.0236 12.4738ZM15.0733 15.8094H21.269L22.3388 30.3519L19.0295 32.0182V23.679L14.1832 26.1192L15.0733 15.8094ZM2.46698 48.3673H5.81416H5.81427V46.6644H2.46698V48.3673ZM20.7204 48.3673H7.43573V42.4948H20.7204V48.3673ZM22.342 48.3673H50.5329V46.6644H22.342V48.3673ZM50.5329 45.0315H22.342V40.8619H5.81416V45.0315H2.46698V33.8439L17.4079 26.3211V34.6603L33.9704 26.3211V34.6603L50.533 26.3211V45.0315H50.5329ZM25.6891 38.3425H27.3105V43.3461H25.6891V38.3425ZM5.79688 38.36H22.359V39.9928H5.79688V38.36ZM32.2799 38.3425H30.6584V43.3461H32.2799V38.3425ZM35.6268 38.3425H37.2482V43.3461H35.6268V38.3425ZM42.2166 38.3425H40.5951V43.3461H42.2166V38.3425ZM45.5645 38.3425H47.1859V43.3461H45.5645V38.3425Z" fill="white"/>
</svg>
