<svg width="53" height="50" viewBox="0 0 53 50" fill="none" xmlns="http://www.w3.org/2000/svg">
<path fill-rule="evenodd" clip-rule="evenodd" d="M5.59719 21.5517H0.854839C0.382674 21.5517 0 21.1658 0 20.6897V15.5172C0 15.0414 0.382674 14.6552 0.854839 14.6552H5.59719C5.87768 13.6355 6.28173 12.6542 6.80131 11.7346L3.44407 8.35096C3.28378 8.18932 3.19362 7.9701 3.19362 7.74111C3.19362 7.51212 3.28378 7.2929 3.44407 7.13126L7.07112 3.4732C7.41005 3.14992 7.94065 3.14992 8.27991 3.4732L11.6368 6.85884C12.5488 6.33553 13.5211 5.92773 14.5323 5.64487V0.862069C14.5323 0.386247 14.9149 0 15.3871 0H20.5161C20.9883 0 21.371 0.386247 21.371 0.862069V5.64487C22.3821 5.92773 23.3545 6.33553 24.2664 6.85884L27.6233 3.4732C27.9572 3.13679 28.4982 3.13679 28.8321 3.4732L32.4585 7.13126C32.6188 7.2929 32.7089 7.51212 32.7089 7.74111C32.7089 7.9701 32.6188 8.18932 32.4585 8.35096L29.1019 11.7346C29.6215 12.6542 30.0255 13.6355 30.306 14.6552H35.0484C35.5205 14.6552 35.9032 15.0414 35.9032 15.5172V20.6897C35.9032 21.1658 35.5205 21.5517 35.0484 21.5517H30.306C30.0255 22.5717 29.6215 23.553 29.1019 24.4727L32.4592 27.8563C32.6194 28.0179 32.7096 28.2371 32.7096 28.4661C32.7096 28.6951 32.6194 28.9143 32.4592 29.076L28.8321 32.734C28.4932 33.0573 27.9626 33.0573 27.6233 32.734L24.2664 29.3484C23.3545 29.872 22.3824 30.2798 21.371 30.5624V35.3448C21.371 35.821 20.9883 36.2069 20.5161 36.2069H15.3871C14.9149 36.2069 14.5323 35.821 14.5323 35.3448V30.5624C13.5208 30.2798 12.5488 29.872 11.6368 29.3484L8.27991 32.734C7.94599 33.0701 7.40504 33.0701 7.07112 32.734L3.44473 29.076C3.28445 28.9143 3.19429 28.6951 3.19429 28.4661C3.19429 28.2371 3.28445 28.0179 3.44473 27.8563L6.80131 24.4727C6.28173 23.553 5.87768 22.5717 5.59719 21.5517ZM17.9516 25C21.7286 25 24.7903 21.9127 24.7903 18.1034C24.7903 14.2945 21.7286 11.2069 17.9516 11.2069C14.1746 11.2069 11.1129 14.2945 11.1129 18.1034C11.1169 21.9104 14.1766 24.996 17.9516 25ZM17.9516 12.931C20.7839 12.931 23.0806 15.2472 23.0806 18.1034C23.0806 20.9601 20.7839 23.2759 17.9516 23.2759C15.1193 23.2759 12.8226 20.9601 12.8226 18.1034C12.8256 15.2478 15.12 12.9341 17.9516 12.931ZM1.70968 16.3793H6.26603C6.66774 16.3793 7.01535 16.0975 7.10117 15.7018C7.38167 14.4107 7.88889 13.1802 8.59881 12.069C8.81552 11.7282 8.76744 11.2806 8.48327 10.9941L5.25726 7.74077L7.67552 5.30172L10.9009 8.55502C11.185 8.84227 11.6291 8.89076 11.9677 8.67188C13.07 7.95629 14.2898 7.44477 15.5701 7.16157C15.9621 7.07469 16.2419 6.72414 16.2419 6.31903V1.72414H19.6613V6.31903C19.6613 6.72414 19.9411 7.07469 20.3331 7.16157C21.6134 7.44477 22.8332 7.95629 23.9355 8.67188C24.2741 8.89076 24.7182 8.84227 25.0024 8.55502L28.2277 5.30172L30.6453 7.74077L27.42 10.9931C27.1351 11.28 27.0874 11.7278 27.3044 12.069C28.0143 13.1809 28.5209 14.411 28.8011 15.7025C28.8872 16.0981 29.2348 16.3803 29.6362 16.3803H34.1936V19.8286H29.6362C29.2348 19.8286 28.8872 20.1105 28.8011 20.5061C28.5209 21.7972 28.014 23.0273 27.3044 24.1379C27.0877 24.4791 27.1358 24.9266 27.42 25.2132L30.646 28.4658L28.2277 30.9055L25.0024 27.6519C24.7182 27.365 24.2741 27.3165 23.9355 27.5354C22.8339 28.2513 21.6144 28.7628 20.3341 29.0457C19.9415 29.1319 19.6613 29.4828 19.6613 29.8879V34.4828H16.2419V29.8879C16.2419 29.4828 15.9618 29.1319 15.5691 29.0457C14.2888 28.7628 13.0693 28.2513 11.9677 27.5354C11.6291 27.3165 11.185 27.365 10.9009 27.6519L7.67552 30.9055L5.25793 28.4665L8.48327 25.2138C8.76811 24.9273 8.81586 24.4794 8.59881 24.1379C7.88889 23.0263 7.38167 21.7959 7.10117 20.5044C7.01502 20.1088 6.66774 19.8276 6.26603 19.8276H1.70968V16.3793ZM17.9516 27.5862C23.1448 27.5862 27.3548 23.3409 27.3548 18.1034C27.3548 12.8664 23.1448 8.62069 17.9516 8.62069C12.7585 8.62069 8.54839 12.8664 8.54839 18.1034C8.55473 23.3382 12.7608 27.5801 17.9516 27.5862ZM17.9516 10.3448C22.2008 10.3448 25.6452 13.8184 25.6452 18.1034C25.6452 22.3885 22.2008 25.8621 17.9516 25.8621C13.7025 25.8621 10.2581 22.3885 10.2581 18.1034C10.2627 13.8207 13.7045 10.3495 17.9516 10.3448ZM48.7258 32.7586C48.7258 32.2828 48.3431 31.8966 47.871 31.8966H46.1613V25C46.1613 24.5242 45.7786 24.1379 45.3064 24.1379H37.6129C37.1407 24.1379 36.7581 24.5242 36.7581 25V31.8966H32.4839C32.0117 31.8966 31.629 32.2828 31.629 32.7586V39.6552H4.27419C1.91471 39.6582 0.00300529 41.5861 0 43.9655V45.6897C0.00300529 48.0694 1.91471 49.9973 4.27419 50H48.7258C51.0853 49.9973 52.997 48.0694 53 45.6897V43.9655C52.997 41.5861 51.0853 39.6582 48.7258 39.6552V32.7586ZM47.0161 39.6552H41.0323V33.6207H47.0161V39.6552ZM44.4516 25.8621H38.4677V31.8966H44.4516V25.8621ZM33.3387 33.6207H39.3226V39.6552H33.3387V33.6207ZM48.7258 48.2759C50.142 48.2759 51.2903 47.1181 51.2903 45.6897V43.9655C51.2903 42.5374 50.142 41.3793 48.7258 41.3793H4.27419C2.85803 41.3793 1.70968 42.5374 1.70968 43.9655V45.6897C1.70968 47.1181 2.85803 48.2759 4.27419 48.2759H48.7258ZM26.5 42.2414C25.0838 42.2414 23.9355 43.3994 23.9355 44.8276C23.9355 46.2561 25.0838 47.4138 26.5 47.4138C27.9162 47.4138 29.0645 46.2561 29.0645 44.8276C29.0645 43.3994 27.9162 42.2414 26.5 42.2414ZM26.5 45.6897C26.0278 45.6897 25.6452 45.3037 25.6452 44.8276C25.6452 44.3518 26.0278 43.9655 26.5 43.9655C26.9722 43.9655 27.3548 44.3518 27.3548 44.8276C27.3548 45.3037 26.9722 45.6897 26.5 45.6897ZM15.3871 44.8276C15.3871 43.3994 16.5355 42.2414 17.9516 42.2414C19.3678 42.2414 20.5161 43.3994 20.5161 44.8276C20.5161 46.2561 19.3678 47.4138 17.9516 47.4138C16.5355 47.4138 15.3871 46.2561 15.3871 44.8276ZM17.0968 44.8276C17.0968 45.3037 17.4794 45.6897 17.9516 45.6897C18.4238 45.6897 18.8065 45.3037 18.8065 44.8276C18.8065 44.3518 18.4238 43.9655 17.9516 43.9655C17.4794 43.9655 17.0968 44.3518 17.0968 44.8276ZM35.0484 42.2414C33.6322 42.2414 32.4839 43.3994 32.4839 44.8276C32.4839 46.2561 33.6322 47.4138 35.0484 47.4138C36.4645 47.4138 37.6129 46.2561 37.6129 44.8276C37.6129 43.3994 36.4645 42.2414 35.0484 42.2414ZM35.0484 45.6897C34.5762 45.6897 34.1936 45.3037 34.1936 44.8276C34.1936 44.3518 34.5762 43.9655 35.0484 43.9655C35.5206 43.9655 35.9032 44.3518 35.9032 44.8276C35.9032 45.3037 35.5206 45.6897 35.0484 45.6897ZM6.83871 44.8276C6.83871 43.3994 7.98707 42.2414 9.40323 42.2414C10.8194 42.2414 11.9677 43.3994 11.9677 44.8276C11.9677 46.2561 10.8194 47.4138 9.40323 47.4138C7.98707 47.4138 6.83871 46.2561 6.83871 44.8276ZM8.54839 44.8276C8.54839 45.3037 8.93106 45.6897 9.40323 45.6897C9.87539 45.6897 10.2581 45.3037 10.2581 44.8276C10.2581 44.3518 9.87539 43.9655 9.40323 43.9655C8.93106 43.9655 8.54839 44.3518 8.54839 44.8276ZM43.5968 42.2414C42.1806 42.2414 41.0323 43.3994 41.0323 44.8276C41.0323 46.2561 42.1806 47.4138 43.5968 47.4138C45.0129 47.4138 46.1613 46.2561 46.1613 44.8276C46.1613 43.3994 45.0129 42.2414 43.5968 42.2414ZM43.5968 45.6897C43.1246 45.6897 42.7419 45.3037 42.7419 44.8276C42.7419 44.3518 43.1246 43.9655 43.5968 43.9655C44.0689 43.9655 44.4516 44.3518 44.4516 44.8276C44.4516 45.3037 44.0689 45.6897 43.5968 45.6897Z" fill="white"/>
</svg>
