<svg width="51" height="51" viewBox="0 0 51 51" fill="none" xmlns="http://www.w3.org/2000/svg">
<path fill-rule="evenodd" clip-rule="evenodd" d="M4.50058 0.5H4.50016H1.16683C0.706725 0.499896 0.3336 0.872813 0.333496 1.33292V1.33333V4.66667C0.333392 5.12677 0.706309 5.4999 1.16641 5.5H1.16683H4.50016C4.96027 5.5001 5.33339 5.12719 5.3335 4.66708V6.33333H2.8335C2.37339 6.33323 2.00027 6.70615 2.00016 7.16625V7.16667V9.66667H1.16683C0.706725 9.66656 0.3336 10.0395 0.333496 10.4996V10.5V49.6667C0.333392 50.1268 0.706309 50.4999 1.16641 50.5H1.16683H49.5002C49.9603 50.5001 50.3334 50.1272 50.3335 49.6671V49.6667V22.1667C50.3336 21.7066 49.9607 21.3334 49.5006 21.3333H49.5002H41.1668V17.1618C41.9205 17.5864 42.7616 17.8322 43.6254 17.8803C43.7129 17.8852 43.8004 17.8868 43.887 17.8868C45.2805 17.8839 46.6144 17.3215 47.5893 16.3259C47.9147 16.0007 47.9148 15.4732 47.5896 15.1479L47.5893 15.1476L44.7268 12.2851L46.756 10.2558L45.5777 9.0775L43.5484 11.1067L40.6859 8.24417C40.3553 7.93167 39.8382 7.93167 39.5076 8.24417C37.4326 10.3429 37.4292 13.7196 39.5003 15.8223V21.3333H32.0003V10.5C32.0004 10.0399 31.6275 9.66677 31.1674 9.66667H31.1669H30.3336V7.16667C30.3337 6.70656 29.9608 6.33344 29.5007 6.33333H29.5003H27.0003V1.33333C27.0004 0.873229 26.6275 0.500104 26.1674 0.5H26.1669H6.16683C5.70673 0.499896 5.3336 0.872813 5.3335 1.33292V1.33295C5.33339 0.873021 4.96056 0.500104 4.50058 0.5ZM17.8335 13H17.8339C18.294 13.0001 18.6669 13.3732 18.6668 13.8333V17.1667V17.1671C18.6667 17.6272 18.2936 18.0001 17.8335 18H14.5002H14.4997C14.0396 17.9999 13.6667 17.6268 13.6668 17.1667V13.8333V13.8329C13.6669 13.3728 14.0401 12.9999 14.5002 13H17.8335ZM15.3335 16.3333H17.0002V14.6667H15.3335V16.3333ZM2.00016 3.83333H3.66683V2.16667H2.00016V3.83333ZM27.8335 13H27.8339C28.294 13.0001 28.6669 13.3732 28.6668 13.8333V17.1667V17.1671C28.6667 17.6272 28.2936 18.0001 27.8335 18H24.5002H24.4997C24.0396 17.9999 23.6667 17.6268 23.6668 17.1667V13.8333V13.8329C23.6669 13.3728 24.0401 12.9999 24.5002 13H27.8335ZM25.3335 16.3333H27.0002V14.6667H25.3335V16.3333ZM7.83391 22.1667H7.8335H4.50016C4.04006 22.1666 3.66693 22.5395 3.66683 22.9996V23V26.3333C3.66673 26.7934 4.03964 27.1666 4.49975 27.1667H4.50016H7.8335C8.2936 27.1668 8.66673 26.7939 8.66683 26.3337V26.3333V23C8.66693 22.5399 8.29402 22.1668 7.83391 22.1667ZM7.00016 23.8333V25.5H5.3335V23.8333H7.00016ZM17.8335 22.1667H17.8339C18.294 22.1668 18.6669 22.5399 18.6668 23V26.3333V26.3337C18.6667 26.7939 18.2936 27.1668 17.8335 27.1667H14.5002H14.4997C14.0396 27.1666 13.6667 26.7934 13.6668 26.3333V23V22.9996C13.6669 22.5395 14.0401 22.1666 14.5002 22.1667H17.8335ZM15.3335 25.5H17.0002V23.8333H15.3335V25.5ZM27.8339 22.1667H27.8335H24.5002C24.0401 22.1666 23.6669 22.5395 23.6668 22.9996V23V26.3333C23.6667 26.7934 24.0396 27.1666 24.4997 27.1667H24.5002H27.8335C28.2936 27.1668 28.6667 26.7939 28.6668 26.3337V26.3333V23C28.6669 22.5399 28.294 22.1668 27.8339 22.1667ZM27.0002 25.5H25.3335V23.8333H27.0002V25.5ZM7.8335 31.3333H7.83391C8.29402 31.3334 8.66693 31.7066 8.66683 32.1667V35.5V35.5004C8.66673 35.9605 8.2936 36.3334 7.8335 36.3333H4.50016H4.49975C4.03964 36.3332 3.66673 35.9601 3.66683 35.5V32.1667V32.1663C3.66693 31.7061 4.04006 31.3332 4.50016 31.3333H7.8335ZM5.3335 33V34.6667H7.00016V33H5.3335ZM17.8339 31.3333H17.8335H14.5002C14.0401 31.3332 13.6669 31.7061 13.6668 32.1663V32.1667V35.5C13.6667 35.9601 14.0396 36.3332 14.4997 36.3333H14.5002H17.8335C18.2936 36.3334 18.6667 35.9605 18.6668 35.5004V35.5V32.1667C18.6669 31.7066 18.294 31.3334 17.8339 31.3333ZM17.0002 34.6667H15.3335V33H17.0002V34.6667ZM27.8335 31.3333H27.8339C28.294 31.3334 28.6669 31.7066 28.6668 32.1667V35.5V35.5004C28.6667 35.9605 28.2936 36.3334 27.8335 36.3333H24.5002H24.4997C24.0396 36.3332 23.6667 35.9601 23.6668 35.5V32.1667V32.1663C23.6669 31.7061 24.0401 31.3332 24.5002 31.3333H27.8335ZM25.3335 34.6667H27.0002V33H25.3335V34.6667ZM7.83391 40.5H7.8335H4.50016C4.04006 40.4999 3.66693 40.8728 3.66683 41.3329V41.3333V44.6667C3.66673 45.1268 4.03964 45.4999 4.49975 45.5H4.50016H7.8335C8.2936 45.5001 8.66673 45.1272 8.66683 44.6671V44.6667V41.3333C8.66693 40.8732 8.29402 40.5001 7.83391 40.5ZM7.00016 42.1667V43.8333H5.3335V42.1667H7.00016ZM27.8335 40.5H27.8339C28.294 40.5001 28.6669 40.8732 28.6668 41.3333V44.6667V44.6671C28.6667 45.1272 28.2936 45.5001 27.8335 45.5H24.5002H24.4997C24.0396 45.4999 23.6667 45.1268 23.6668 44.6667V41.3333V41.3329C23.6669 40.8728 24.0401 40.4999 24.5002 40.5H27.8335ZM25.3335 43.8333H27.0002V42.1667H25.3335V43.8333ZM25.3335 2.16667H7.00016V6.33333H25.3335V2.16667ZM3.66683 8H28.6668V9.66667H3.66683V8ZM12.0002 48.8333H15.3335V41.3333H13.5061C12.6746 41.3343 12.0009 42.0082 12.0002 42.8397V48.8333ZM20.3335 42.8397V48.8333H17.0002V41.3333H18.8276C19.659 41.3343 20.3328 42.0082 20.3335 42.8397ZM22.0002 48.8333H30.3335V11.3333H2.00016V48.8333H10.3335V42.8397C10.3354 41.0882 11.7546 39.6688 13.5061 39.6667H18.8276C20.579 39.6688 21.9983 41.0882 22.0002 42.8397V48.8333ZM40.1602 10.0752L45.7595 15.675C45.1505 16.0684 44.4321 16.2579 43.7084 16.2161C42.6501 16.1416 41.6572 15.6764 40.9228 14.9108C39.5368 13.693 39.2163 11.6603 40.1602 10.0752ZM37.8335 48.8333H42.8335V44.3224C42.8327 43.5923 42.2408 43.0006 41.5107 43H39.1563C38.4262 43.0006 37.8344 43.5923 37.8335 44.3224V48.8333ZM48.6668 48.8333H44.5002V44.3224C44.4981 42.6723 43.1608 41.3352 41.5107 41.3333H39.1563C37.5062 41.3352 36.1689 42.6723 36.1668 44.3224V48.8333H32.0002V23H48.6668V48.8333ZM42.8335 24.6667H42.8339C43.294 24.6668 43.6669 25.0399 43.6668 25.5V30.5V30.5004C43.6667 30.9605 43.2936 31.3334 42.8335 31.3333H37.8335H37.8331C37.373 31.3332 37.0001 30.9601 37.0002 30.5V25.5V25.4996C37.0003 25.0395 37.3734 24.6666 37.8335 24.6667H42.8335ZM38.6668 29.6667H42.0002V26.3333H38.6668V29.6667ZM42.8339 33H42.8335H37.8335C37.3734 32.9999 37.0003 33.3728 37.0002 33.8329V33.8333V38.8333C37.0001 39.2934 37.373 39.6666 37.8331 39.6667H37.8335H42.8335C43.2936 39.6668 43.6667 39.2939 43.6668 38.8338V38.8333V33.8333C43.6669 33.3732 43.294 33.0001 42.8339 33ZM42.0002 38H38.6668V34.6667H42.0002V38Z" fill="white"/>
</svg>
