<svg width="194" height="186" viewBox="0 0 194 186" fill="none" xmlns="http://www.w3.org/2000/svg">
<path fill-rule="evenodd" clip-rule="evenodd" d="M43.2846 59.3687C53.319 49.2824 68.6814 48.8839 82.3704 44.9969C93.7668 41.7609 104.649 37.5001 116.447 38.5944C129.487 39.8039 142.96 42.571 152.537 51.5047C162.56 60.8541 167.524 74.3439 169.333 87.927C171.182 101.801 170.079 116.419 162.777 128.358C155.574 140.135 141.849 144.876 130.084 152.101C116.086 160.698 103.99 175.088 87.5679 174.546C70.3489 173.978 55.3396 162.179 43.9419 149.258C32.6264 136.431 24.6785 120.212 24.5535 103.113C24.4346 86.8517 31.8166 70.896 43.2846 59.3687Z" fill="#FFE5EA"/>
<path d="M128.395 26.9425C128.586 28.1345 128.778 29.333 128.749 30.5567C128.727 31.4128 128.79 32.2688 128.857 33.128C128.978 34.6625 128.94 36.2096 129.017 37.7505C129.099 39.4371 129.154 41.1397 128.908 42.8295C128.746 43.9518 128.736 45.0964 128.554 46.2124C128.194 48.4253 127.812 50.6383 127.238 52.8101C126.639 55.0833 125.91 57.3184 125.145 59.5409C124.756 60.6664 124.304 61.7665 123.781 62.8381C122.838 64.7785 121.675 66.5919 120.391 68.3262C119.368 69.7085 118.335 71.094 117.064 72.2702C116.452 72.8377 115.802 73.364 115.145 73.8808C113.708 75.0126 112.217 76.0589 110.499 76.75C108.39 77.5997 106.258 77.9231 104.037 77.2414C103.384 77.0417 102.708 76.9117 102.052 76.7151C100.245 76.1762 98.4574 75.5801 96.9215 74.4419C95.6915 73.532 94.624 72.4573 93.6425 71.2842C92.4221 69.8258 91.2303 68.3484 90.1947 66.7568C89.4076 65.5457 88.697 64.2902 87.945 63.0569C86.699 61.012 85.7558 58.8244 84.7265 56.6812C83.9171 54.9945 83.2607 53.2349 82.6298 51.4721C82.104 49.9979 81.5878 48.5141 81.2946 46.9701C81.2181 46.5738 81.0875 46.187 81.0333 45.7907C80.9983 45.5307 80.9759 45.2707 80.8867 45.0235C80.925 45.5815 80.9696 46.1363 81.0237 46.6911C81.489 51.5609 82.5852 56.2944 84.3569 60.8661C86.1254 65.422 88.4771 69.6356 91.7752 73.2816C93.856 75.5801 96.2141 77.549 99.0151 78.9218C104.658 81.6927 110.222 81.512 115.658 78.3416C118.354 76.769 120.575 74.6544 122.494 72.2195C125.948 67.8411 128.172 62.8635 129.635 57.5308C131.094 52.2108 131.693 46.783 131.601 41.276C131.493 34.7544 130.377 28.4199 128.112 22.2914C127.455 20.5191 126.697 18.8166 125.817 17.1902C126.295 18.5598 126.757 19.9326 127.127 21.3339C127.627 23.1887 128.089 25.0497 128.395 26.9425Z" fill="#FFE5EA"/>
<path d="M125.786 101.884C124.145 104.636 123.176 107.648 122.424 110.742C121.57 114.258 121.108 117.819 121.076 122.13C121.079 124.613 121.452 127.761 122.039 130.878C122.88 135.338 123.906 139.758 125.362 144.063C127.577 150.598 129.616 157.186 131.42 163.841C132.793 168.913 133.781 174.068 134.361 179.293C134.511 180.638 134.539 181.995 134.581 183.348C134.699 183.694 134.874 184.084 135.081 184.217C135.709 184.617 135.422 183.18 135.432 182.993C136.158 168.856 133.096 154.095 128.74 140.665C125.069 129.346 122.089 115.942 127.37 104.607C129.31 100.438 132.341 96.8651 135.569 93.5773C137.168 91.9477 138.832 90.3689 140.689 89.0373C141.569 88.4064 142.579 87.6423 142.891 86.6848C140.552 88.0164 138.264 89.4272 136.069 90.9839C131.914 93.9261 128.402 97.496 125.786 101.884Z" fill="#FFE5EA"/>
<path d="M168.702 76.8847C167.577 78.4033 166.793 80.1058 166.06 81.8432C165.301 83.6409 164.457 85.4036 163.603 87.16C162.784 88.8467 161.478 90.1212 159.958 91.1865C159.69 91.3736 159.387 91.5162 159.084 91.6494C158.893 91.735 158.696 91.7382 158.53 91.6589C158.326 92.1123 158.234 92.5783 158.361 93.0095C158.603 93.818 159.598 94.1984 160.429 94.0462C163.616 93.4661 165.375 89.5442 166.745 87.0554C168.427 83.996 169.858 80.8065 171.362 77.6582C172.554 75.1599 173.787 72.6775 175.221 70.3092C176.126 68.8127 178.698 66.0386 178.452 63.981C177.621 65.0494 176.786 66.1147 175.97 67.1958C173.536 70.4138 171.107 73.6381 168.702 76.8847Z" fill="#FFE5EA"/>
<path d="M188.019 15.895C187.448 16.5798 186.747 16.9825 186.285 17.829C185.606 19.0718 185.246 20.4224 185.061 21.8079C184.724 24.3442 184.424 26.8901 184.134 29.4328C183.851 31.9026 183.449 34.347 182.773 36.7311C182.802 36.7755 182.831 36.8136 182.872 36.8358C183.353 37.1179 184.102 36.227 184.271 35.8656C184.641 35.0793 184.749 34.1916 185.023 33.3705C185.906 30.7358 186.594 27.9458 186.977 25.2637C187.235 23.4565 187.149 21.5796 187.725 19.8264C188.009 18.9608 188.433 18.1429 189.163 17.569C189.679 17.1632 190.985 16.9 190.638 15.9965C190.275 15.0548 189.335 14.9946 188.34 15.3117C188.34 15.3243 188.347 15.337 188.347 15.3465C188.344 15.5526 188.191 15.6858 188.019 15.895Z" fill="#FFE5EA"/>
<path d="M44.4856 15.3866C46.3465 21.6514 48.7142 27.7101 51.9358 33.4201C52.1843 33.8576 52.4456 34.2919 52.4392 35.0148C52.2385 34.6502 52.1238 34.4378 51.9995 34.2285C50.744 32.1392 49.5586 30.0087 48.2075 27.9796C47.3407 26.6766 46.2509 25.5193 45.2281 24.3241C44.954 24.0039 44.5876 23.7376 44.2147 23.5315C43.6603 23.2271 43.2014 23.4744 43.0931 24.099C43.0548 24.3178 43.0612 24.5587 43.0994 24.7775C43.1855 25.2499 43.2811 25.7254 43.4149 26.1851C44.6736 30.4462 46.5345 34.4314 48.9595 38.1599C51.1391 41.511 53.6438 44.6117 56.2822 47.6078C56.5117 47.8709 56.7188 48.1753 56.8526 48.4923C58.0349 51.3299 59.3987 54.0786 60.8932 56.764C60.9984 56.9542 61.0908 57.154 61.1895 57.3474C60.8709 57.1888 60.6574 56.9606 60.4439 56.726C58.8347 54.96 57.2382 53.1814 55.6099 51.4345C53.9592 49.6622 52.0792 48.1404 50.1386 46.6947C49.8135 46.4537 49.4598 46.2508 49.1029 46.0543C48.7938 45.8831 48.4624 45.8577 48.1724 46.105C47.8857 46.3523 47.8665 46.6884 47.9685 47.0149C48.0737 47.351 48.2011 47.687 48.3668 48.0009C49.189 49.5513 50.0876 51.0604 51.2793 52.3634C52.4966 53.6919 53.7266 55.0171 55.0331 56.2599C57.9488 59.0309 61.078 61.5545 64.2678 64.0021C65.6507 65.0642 66.9413 66.1865 67.8718 67.6798C68.0853 68.0222 68.3657 68.3266 68.6079 68.6532C68.6971 68.7736 68.7672 68.91 68.8469 69.0399C68.4422 68.8497 68.1267 68.5929 67.7953 68.3583C65.6603 66.8397 63.5476 65.2893 61.3744 63.8277C60.6064 63.311 59.7014 62.9812 58.8347 62.623C58.5192 62.493 58.1336 62.4771 57.7863 62.4898C57.0757 62.5152 56.7411 63.0446 56.9992 63.7009C57.0884 63.9324 57.235 64.1511 57.388 64.3509C59.558 67.1345 62.0244 69.6043 64.9943 71.5573C67.9801 73.5166 71.1284 75.1779 74.3819 76.6395C75.1212 76.9724 75.8955 77.2419 76.6731 77.4765C77.0969 77.6033 77.4697 77.7713 77.817 78.044C79.2797 79.1949 80.806 80.2538 82.5108 81.0242C83.2055 81.3381 83.9289 81.5854 84.6458 81.8422C84.9008 81.9341 85.1621 81.8961 85.3246 81.6424C85.503 81.3634 85.4234 81.0971 85.2003 80.8879C85.0155 80.7167 84.802 80.5708 84.5885 80.4377C83.2278 79.5912 81.8672 78.7478 80.5033 77.9077C79.9775 77.5843 79.5983 77.188 79.6334 76.5095C79.6429 76.3161 79.5601 76.1132 79.5059 75.9166C78.2759 71.5383 77.492 67.0743 76.8133 62.5818C76.45 60.1786 75.937 57.7976 75.4494 55.4134C75.2614 54.494 74.9491 53.5967 74.3883 52.8232C74.127 52.4617 73.7988 52.113 73.4259 51.872C72.881 51.5201 72.3011 51.7294 72.0366 52.3222C71.906 52.6171 71.8135 52.9531 71.7976 53.2734C71.7466 54.2594 71.6861 55.2485 71.7275 56.2345C71.8582 59.4177 72.4413 62.5279 73.3176 65.5842C74.2194 68.7324 75.22 71.8458 76.8866 74.6992C76.9184 74.7531 76.8993 74.8323 76.9089 74.9465C76.7687 74.8387 76.6635 74.7658 76.5743 74.6802C74.4743 72.7113 72.5082 70.6188 70.7237 68.3646C70.4465 68.0159 70.2521 67.5847 70.0928 67.163C68.9297 64.0941 68.2414 60.8951 67.5053 57.7088C66.782 54.5732 66.1064 51.425 65.3512 48.2958C64.8987 46.4189 64.2582 44.5959 63.3022 42.906C62.9963 42.3671 62.5757 41.8534 62.0977 41.4571C61.3552 40.8421 60.5905 41.1179 60.3483 42.0405C60.2272 42.5002 60.173 42.9916 60.1698 43.4672C60.1571 45.9718 60.4821 48.4384 61.3234 50.7972C62.2666 53.4446 63.3437 56.0475 64.3634 58.6726C64.4526 58.9009 64.5482 59.126 64.6406 59.3511C63.0664 57.2079 59.6218 50.6926 58.7359 48.3497C58.6562 48.1404 58.5957 47.909 58.5893 47.687C58.5351 46.0416 58.4204 44.393 58.4682 42.7475C58.567 39.352 58.7901 35.9596 58.8952 32.5641C58.9653 30.3352 59.0099 28.1001 58.9048 25.8776C58.8474 24.6792 58.481 23.4903 58.1782 22.3172C58.054 21.8416 57.7704 21.3819 57.4676 20.9856C56.8909 20.2247 56.1643 20.2976 55.715 21.1283C55.5716 21.3946 55.4665 21.6863 55.3868 21.978C54.2875 25.9283 53.87 29.9389 54.2938 34.0256C54.3576 34.6565 54.4245 35.2843 54.4882 35.9152C54.1441 35.1067 53.9497 34.2698 53.7139 33.4454C53.4303 32.4531 53.3219 31.4639 53.5705 30.4462C53.6661 30.0531 53.6979 29.6441 53.7457 29.2414C54.1281 25.9157 54.6571 22.6152 55.3581 19.337C56.2026 15.393 56.9291 11.4268 57.1745 7.39395C57.2255 6.5633 57.1554 5.7263 57.1107 4.89565C57.098 4.67372 57.0152 4.44545 56.9132 4.24571C56.6296 3.67503 56.107 3.59577 55.6927 4.07451C55.4983 4.29961 55.3326 4.57226 55.2275 4.85443C54.7623 6.08773 54.2524 7.30835 53.8955 8.57336C53.1626 11.1668 52.8949 13.849 52.5221 16.509C52.3946 17.4125 52.4392 18.3637 52.1684 19.2165C51.8848 20.1106 51.8242 20.9983 51.7764 21.9019C51.7509 22.4218 51.7318 22.9386 51.7127 23.4586C51.5438 23.3444 51.4865 23.2176 51.4578 23.0844C50.7822 20.1455 50.1449 17.1969 49.4248 14.2706C48.8352 11.8833 48.131 9.52132 47.0062 7.31469C46.5823 6.48404 46.0661 5.69143 45.5276 4.92735C45.1739 4.42642 44.6895 3.97622 43.9821 4.19498C43.2524 4.42008 43.109 5.0827 43.058 5.71996C43.007 6.34771 43.0134 6.99131 43.0708 7.61905C43.3097 10.2505 43.7336 12.8503 44.4856 15.3866ZM72.9129 55.648C72.8715 54.8205 72.8938 53.9994 73.0499 53.0387C73.5375 53.5143 73.7701 53.9899 73.9007 54.4908C74.2417 55.8129 74.589 57.1381 74.8344 58.4824C75.5769 62.5184 76.2684 66.5638 76.9917 70.603C77.1287 71.3702 77.3136 72.1311 77.3582 72.9364C77.2658 72.7779 77.151 72.6257 77.0841 72.4577C74.8472 67.0584 73.1997 61.5197 72.9129 55.648ZM73.8466 74.5819C74.0537 74.7436 74.2385 74.937 74.3532 75.2191C74.2417 75.1779 74.127 75.143 74.0218 75.0923C71.0392 73.6688 68.1012 72.1692 65.3385 70.343C62.7255 68.6151 60.5172 66.4655 58.5638 64.0402C58.5033 63.9641 58.4587 63.8753 58.3312 63.6724C59.2266 63.8436 59.8703 64.2019 60.4694 64.6172C62.2029 65.8156 63.9427 67.0077 65.6284 68.2695C68.3912 70.3462 71.1125 72.4735 73.8466 74.5819ZM61.7982 48.5716C61.3234 46.7803 61.1417 44.9351 61.2182 43.0772C61.2278 42.8775 61.2533 42.6746 61.2915 42.478C61.3043 42.4146 61.3744 42.3607 61.4381 42.2751C61.9384 42.5573 62.2316 43.0107 62.4323 43.4926C62.9804 44.8241 63.6018 46.1462 63.9714 47.5285C64.7585 50.4865 65.4086 53.4794 66.1096 56.4596C66.5525 58.3302 66.9859 60.2039 67.4256 62.0777C67.4766 62.2964 67.5244 62.5152 67.6073 62.8956C67.448 62.7213 67.3779 62.6674 67.3428 62.6008C65.023 58.1083 63.0919 53.4604 61.7982 48.5716ZM63.1716 61.5292C62.9613 61.4531 62.8912 61.4467 62.8466 61.4087C60.0041 59.1006 57.1394 56.8179 54.5105 54.2625C52.6273 52.43 50.8842 50.4865 49.616 48.1658C49.5172 47.9882 49.4184 47.8107 49.3324 47.63C49.3164 47.5951 49.3451 47.538 49.3706 47.3859C49.6988 47.6363 49.992 47.8519 50.2788 48.0802C52.1652 49.5925 53.972 51.1935 55.5876 52.9975C57.9265 55.61 60.2623 58.2256 62.598 60.838C62.7605 61.0219 62.9135 61.2185 63.1716 61.5292ZM55.1096 30.1323C55.1956 27.5675 55.5876 25.0438 56.2536 22.5645C56.33 22.2855 56.4416 22.016 56.5658 21.6609C56.9928 22.0636 57.1203 22.5043 57.2446 22.9291C57.6525 24.3209 57.8755 25.754 57.8532 27.1997C57.8182 29.6029 57.713 32.0092 57.6238 34.4124C57.5123 37.4497 57.388 40.4838 57.2701 43.5211C57.2669 43.6194 57.251 43.7208 57.2414 43.8191C57.1936 43.8191 57.1426 43.8223 57.0948 43.8223C56.7124 42.1737 56.3045 40.5345 55.9572 38.8764C55.355 35.9976 55.0108 33.084 55.1096 30.1323ZM52.9236 25.1389C53.0383 22.9132 53.0766 20.6781 53.3187 18.462C53.6278 15.6181 54.023 12.7774 54.5328 9.96518C54.8005 8.48141 55.3932 7.05789 55.8489 5.609C55.9062 5.42511 56.0209 5.25708 56.1516 4.9971C56.4033 5.54242 56.3428 6.02432 56.2918 6.48721C56.0942 8.22461 55.9253 9.96835 55.6322 11.6899C54.963 15.6339 54.2205 19.5684 53.5195 23.5093C53.357 24.4287 53.2295 25.3545 52.9905 26.2803C52.965 25.8998 52.9045 25.5193 52.9236 25.1389ZM54.0262 40.804C54.5774 41.9803 54.9216 43.2548 55.3613 44.4817C50.9416 40.3697 44.2115 28.4298 44.0873 24.5714C44.3358 24.8092 44.5429 24.9804 44.7214 25.1769C45.8208 26.3785 46.8213 27.6499 47.6881 29.0322C50.0621 32.8177 52.1302 36.7681 54.0262 40.804ZM44.1892 5.23489C44.2625 5.20952 44.3326 5.18416 44.4059 5.15879C44.7469 5.65021 45.1643 6.10993 45.4161 6.64256C46.0406 7.97097 46.6811 9.30256 47.1527 10.688C48.5261 14.7208 49.4726 18.8709 50.3616 23.0337C50.7089 24.6697 51.0627 26.3024 51.3781 27.9416C51.5693 28.9307 51.6872 29.9326 51.837 30.9281C51.786 30.944 51.735 30.963 51.684 30.9788C51.6171 30.8901 51.5343 30.8108 51.4897 30.7125C49.0009 25.1865 46.6588 19.6033 45.107 13.7317C44.5175 11.4965 44.1924 9.21696 43.9917 6.91522C43.9407 6.34454 43.9407 5.76752 44.1892 5.23489Z" fill="black"/>
<path d="M131.266 78.5673C131.206 78.8082 130.979 79.046 130.766 79.2013C130.128 79.6642 129.472 80.1017 128.803 80.5202C127.962 81.0434 127.095 81.5316 126.25 82.0516C126.037 82.1816 125.804 82.3401 125.686 82.5462C125.591 82.711 125.588 82.9995 125.67 83.1676C125.737 83.2976 126.005 83.38 126.184 83.3863C126.375 83.3927 126.572 83.288 126.767 83.2246C129.055 82.4827 131.04 81.2082 132.92 79.753C133.411 79.3726 133.911 79.0872 134.526 78.9382C135.163 78.786 135.781 78.5229 136.384 78.2566C139.459 76.8933 142.425 75.3271 145.277 73.5421C148.512 71.5162 151.211 68.9291 153.54 65.9362C153.709 65.7175 153.875 65.4797 153.974 65.2261C154.232 64.5698 153.888 64.0245 153.177 64.0245C152.702 64.0245 152.189 64.0815 151.762 64.2686C150.879 64.6522 149.987 65.0612 149.197 65.6033C147.036 67.0871 144.93 68.6438 142.801 70.1719C142.591 70.3241 142.374 70.47 142.161 70.6221C142.69 69.7534 143.302 68.9767 143.866 68.165C144.277 67.5722 144.768 67.0776 145.332 66.6306C147.403 64.9851 149.471 63.3365 151.52 61.6625C154.063 59.5827 156.516 57.4077 158.747 54.995C160.203 53.4193 161.462 51.701 162.456 49.8019C162.679 49.377 162.896 48.9332 163.004 48.4735C163.183 47.7221 162.641 47.2782 161.927 47.573C161.558 47.7284 161.207 47.9535 160.882 48.1945C158.919 49.6497 157.02 51.1905 155.35 52.9818C153.703 54.7477 152.093 56.5454 150.465 58.3303C150.271 58.5428 150.07 58.7488 149.872 58.9581C149.837 58.7552 149.892 58.622 149.962 58.4984C151.517 55.7274 152.925 52.8899 154.142 49.9572C154.248 49.7068 154.407 49.4658 154.582 49.2534C155.85 47.7316 157.154 46.2351 158.397 44.6943C161.685 40.6171 164.432 36.2102 166.315 31.3119C166.924 29.733 167.351 28.0812 167.832 26.4579C167.915 26.1789 167.905 25.8492 167.848 25.5575C167.74 25.0122 167.309 24.7871 166.815 25.0439C166.439 25.2405 166.06 25.4973 165.786 25.8143C164.744 27.0254 163.635 28.2017 162.753 29.5237C161.401 31.5496 160.216 33.6834 158.961 35.7727C158.836 35.9756 158.728 36.188 158.61 36.3973C158.537 36.1531 158.559 35.9534 158.629 35.7727C158.718 35.5381 158.833 35.3066 158.957 35.0879C160.156 32.9922 161.239 30.8426 162.198 28.6265C164.18 24.0325 165.977 19.3752 167.086 14.4832C167.587 12.2797 167.934 10.0477 167.94 7.78087C167.94 7.3814 167.889 6.9629 167.768 6.58562C167.456 5.61863 166.615 5.365 165.872 6.0403C165.429 6.44295 165.012 6.93119 164.741 7.45749C164.078 8.73834 163.396 10.0255 162.912 11.3793C161.382 15.6626 160.433 20.1044 159.528 24.5493C159.496 24.7047 159.435 24.8537 159.388 25.009C159.241 24.3686 159.235 23.7472 159.19 23.1258C159.142 22.4949 159.078 21.864 158.98 21.2394C158.91 20.7955 158.734 20.3675 158.671 19.9237C158.527 18.9186 158.46 17.9041 158.295 16.9054C157.909 14.6068 157.571 12.2956 157.042 10.0287C156.724 8.65908 156.096 7.3592 155.57 6.04347C155.411 5.644 155.137 5.24135 154.611 5.32061C154.091 5.39987 154.002 5.87227 153.881 6.2876C153.859 6.36052 153.846 6.43661 153.843 6.5127C153.814 7.2197 153.738 7.92988 153.773 8.63372C153.932 11.7788 154.429 14.8858 155.032 17.9707C155.831 22.051 156.679 26.1155 157.176 30.2529C157.593 33.7341 157.664 33.7277 156.762 36.9013C156.708 37.0947 156.625 37.2786 156.558 37.4657C156.545 36.784 156.625 36.1341 156.689 35.481C157.093 31.3943 156.673 27.3837 155.56 23.4365C155.484 23.1702 155.385 22.9039 155.251 22.6629C154.815 21.8608 154.127 21.7784 153.54 22.4663C153.346 22.6946 153.167 22.9578 153.049 23.2336C152.833 23.744 152.626 24.2672 152.489 24.8061C152.062 26.4611 151.874 28.1509 151.937 29.8566C152.087 33.8609 152.25 37.8652 152.431 41.8663C152.536 44.2251 152.619 46.5807 152.393 48.9332C152.348 49.4024 152.231 49.8843 152.043 50.3155C150.526 53.8125 148.706 57.1573 146.75 60.426C146.641 60.6067 146.514 60.7716 146.396 60.9428C146.428 60.6448 146.539 60.3943 146.641 60.1375C147.546 57.8516 148.474 55.5721 149.347 53.2735C150.188 51.051 150.644 48.7398 150.765 46.3715C150.809 45.4932 150.787 44.5897 150.644 43.7241C150.462 42.6177 149.589 42.3387 148.744 43.0932C148.298 43.4895 147.894 43.9873 147.632 44.5199C147.097 45.6105 146.606 46.7329 146.217 47.8806C145.204 50.8893 144.573 53.9964 143.92 57.097C143.104 60.965 142.276 64.8329 140.944 68.5709C140.727 69.1796 140.427 69.7217 140.02 70.2163C138.35 72.2359 136.572 74.1572 134.673 75.9643C134.491 76.1355 134.3 76.2972 134.112 76.4621C134.096 76.4336 134.08 76.4082 134.061 76.3797C134.536 75.4 135.068 74.4457 135.476 73.4407C137.343 68.8625 138.71 64.1513 139.143 59.2054C139.271 57.766 139.398 56.3203 139.182 54.8777C139.131 54.529 139.067 54.1707 138.927 53.8505C138.665 53.2576 138.079 53.0547 137.537 53.4098C137.164 53.6508 136.839 53.9995 136.578 54.3641C136.02 55.1377 135.702 56.0349 135.52 56.9544C134.985 59.6651 134.443 62.3727 134.003 65.0992C133.478 68.3521 132.961 71.605 132.152 74.8071C131.836 76.0499 131.588 77.3181 131.266 78.5673ZM159.429 30.2371C160.433 25.5575 161.287 20.8431 162.609 16.2396C163.195 14.1978 163.858 12.1719 164.594 10.1809C164.958 9.19172 165.55 8.28497 166.07 7.35603C166.207 7.10874 166.446 6.91534 166.704 6.62366C167.038 7.26726 167.054 7.84428 166.984 8.41496C166.79 9.99701 166.624 11.5886 166.334 13.1548C165.595 17.1337 164.196 20.916 162.711 24.6603C161.749 27.0857 160.688 29.4698 159.665 31.873C159.572 32.095 159.442 32.301 159.33 32.5135C159.282 32.5008 159.235 32.4849 159.187 32.4722C159.26 31.724 159.273 30.9631 159.429 30.2371ZM156.905 21.8957C156.335 18.6777 155.723 15.466 155.188 12.2449C154.945 10.796 154.824 9.32805 154.675 7.86647C154.633 7.45432 154.582 7.01997 154.837 6.47782C154.996 6.83925 155.111 7.08338 155.213 7.33067C156.077 9.43267 156.561 11.6298 156.896 13.8649C157.456 17.5775 157.858 21.3028 158.024 25.0534C158.065 25.9602 158.03 26.8733 158.03 27.7832C157.992 27.7895 157.954 27.7927 157.915 27.799C157.581 25.8334 157.253 23.8645 156.905 21.8957ZM157.014 42.1865C158.83 38.3376 160.799 34.5616 163.049 30.9378C163.963 29.4667 164.993 28.0907 166.149 26.8067C166.35 26.5816 166.538 26.347 166.733 26.1155C166.806 26.1536 166.879 26.1884 166.952 26.2265C166.876 26.5657 166.819 26.9113 166.72 27.2442C165.518 31.1977 163.74 34.885 161.51 38.3566C159.821 40.9817 157.944 43.4737 155.94 45.8705C155.879 45.9403 155.815 46.0069 155.752 46.0766C155.704 46.0512 155.656 46.029 155.611 46.0037C156.067 44.726 156.437 43.4071 157.014 42.1865ZM153.575 25.0059C153.719 24.3971 153.875 23.7821 154.385 23.1638C154.541 23.6172 154.687 23.9723 154.783 24.3401C155.615 27.5232 155.997 30.7539 155.847 34.0416C155.707 37.1138 155.146 40.1225 154.407 43.1027C154.222 43.8541 154.034 44.6087 153.849 45.3601C153.811 45.3569 153.776 45.3506 153.738 45.3474C153.725 45.2364 153.706 45.1223 153.7 45.0113C153.505 40.1035 153.314 35.1925 153.116 30.2846C153.049 28.506 153.167 26.7401 153.575 25.0059ZM148.231 62.5343C151.036 59.4178 153.789 56.2537 156.673 53.2133C158.046 51.7644 159.668 50.5469 161.182 49.228C161.303 49.1234 161.459 49.0536 161.599 48.968C161.628 48.9934 161.656 49.0188 161.685 49.0441C161.577 49.2597 161.472 49.4785 161.357 49.6909C160.238 51.7358 158.75 53.4986 157.112 55.1441C155.028 57.2334 152.785 59.1515 150.491 61.0062C149.662 61.6783 148.84 62.3568 147.929 62.9719C148.027 62.826 148.113 62.6643 148.231 62.5343ZM144.704 58.714C145.414 55.6577 146.061 52.5855 146.861 49.5514C147.266 48.0201 147.932 46.5553 148.515 45.0716C148.716 44.558 149.047 44.1078 149.633 43.6956C149.688 44.1046 149.751 44.3931 149.761 44.6816C149.828 47.0563 149.49 49.3865 148.773 51.6439C147.46 55.775 145.867 59.7983 143.882 63.663C143.77 63.8818 143.64 64.0942 143.515 64.3066C143.48 64.2876 143.445 64.2686 143.41 64.2496C143.84 62.4044 144.274 60.5592 144.704 58.714ZM137.168 76.0721C139.781 74.0557 142.384 72.0235 145.022 70.0419C146.727 68.7611 148.474 67.5373 150.229 66.323C150.787 65.9362 151.427 65.6636 152.036 65.356C152.183 65.2831 152.361 65.2736 152.629 65.2134C152.505 65.4099 152.45 65.5177 152.374 65.6097C150.354 68.1143 148.053 70.3114 145.335 72.0679C142.664 73.7957 139.838 75.2383 136.97 76.6079C136.862 76.6618 136.744 76.6967 136.629 76.7411C136.604 76.6999 136.575 76.6587 136.549 76.6174C136.757 76.4336 136.951 76.2402 137.168 76.0721ZM133.57 74.0113C134.169 70.749 134.765 67.4834 135.374 64.2242C135.82 61.8337 136.253 59.44 136.766 57.0653C136.929 56.3139 137.33 55.6101 137.62 54.8841C137.658 54.789 137.7 54.6939 137.738 54.5987C137.799 54.6273 137.859 54.6558 137.92 54.6843C137.952 54.8682 138.018 55.0521 138.015 55.236C137.993 56.501 138.034 57.7724 137.916 59.0278C137.432 64.1957 135.906 69.094 133.943 73.875C133.86 74.0779 133.736 74.265 133.634 74.4584C133.605 74.4489 133.576 74.4393 133.548 74.4298C133.551 74.2903 133.544 74.1477 133.57 74.0113Z" fill="black"/>
<path d="M128.409 66.3114C131.599 59.8151 133.164 52.9036 133.6 45.7194C133.881 41.0937 133.61 36.4934 132.842 31.9248C131.873 26.1831 130.149 20.6856 127.364 15.5463C125.067 11.3043 122.167 7.54414 118.305 4.57978C114.067 1.32375 109.3 -0.290007 103.917 0.0428885C101.05 0.220433 98.3442 0.92427 95.8969 2.48095C93.9563 3.71425 92.1782 5.15363 90.5307 6.74836C87 10.1566 84.4699 14.2369 82.5707 18.7199C79.6486 25.622 78.4377 32.8569 78.3867 40.466C78.4345 47.7136 79.6837 54.8946 82.4209 61.7935C84.2787 66.4762 86.7642 70.7944 90.2057 74.5228C92.2929 76.7802 94.6478 78.7014 97.3914 80.1218C101.607 82.3094 106.04 83.0608 110.721 82.0367C114.334 81.2473 117.479 79.5258 120.271 77.1416C123.789 74.1328 126.389 70.4329 128.409 66.3114ZM83.9664 20.7617C85.2761 17.1664 86.9681 13.7582 89.3007 10.7114C91.9041 7.3127 95.2182 4.77635 99.2109 3.19747C102.149 2.03709 105.192 1.85638 108.283 2.66484C112.464 3.75547 116.071 5.82577 119.254 8.72038C121.985 11.2028 124.13 14.0499 125.825 17.1918C126.705 18.8182 127.463 20.5207 128.119 22.293C130.385 28.4215 131.5 34.756 131.609 41.2776C131.701 46.7878 131.099 52.2124 129.643 57.5324C128.18 62.8651 125.959 67.8427 122.502 72.2211C120.58 74.656 118.362 76.7706 115.666 78.3432C110.23 81.5104 104.666 81.6912 99.0229 78.9234C96.2187 77.5474 93.8639 75.5817 91.783 73.2832C88.4818 69.634 86.1301 65.4237 84.3647 60.8677C82.593 56.296 81.4968 51.5657 81.0316 46.6927C80.9774 46.1379 80.9328 45.5799 80.8945 45.0251C80.7798 43.4081 80.7065 41.788 80.6046 40.1711C80.6747 33.5069 81.6816 27.0265 83.9664 20.7617Z" fill="black"/>
<path d="M162.846 70.8166C166.014 67.0057 169.153 63.1758 171.957 59.0828C173.19 57.2788 174.567 55.5699 176.198 54.0988C176.928 53.4426 177.76 52.8624 178.626 52.409C179.703 51.8447 180.765 52.3614 181.055 53.5408C181.22 54.2193 181.271 54.9422 181.258 55.6428C181.233 56.8888 180.771 58.0112 180.108 59.0606C178.814 61.1055 177.336 63.0078 175.746 64.8276C172.731 68.2707 169.93 71.885 167.238 75.5849C166.036 77.2367 165.08 79.0248 164.373 80.9398C164.188 81.4407 163.99 81.9353 163.79 82.4267C162.566 85.4323 161.11 88.292 158.64 90.5113C158.564 90.5779 158.497 90.6572 158.433 90.7364C158.248 90.9679 158.118 91.2374 158.328 91.4973C158.388 91.5734 158.462 91.6273 158.541 91.6654C158.71 91.7446 158.905 91.7415 159.096 91.6559C159.395 91.5227 159.701 91.38 159.969 91.193C161.489 90.1245 162.795 88.8532 163.614 87.1665C164.465 85.4101 165.313 83.6473 166.071 81.8497C166.804 80.1123 167.588 78.4066 168.713 76.8911C171.116 73.6446 173.547 70.4203 175.985 67.2023C176.8 66.1243 177.639 65.0559 178.467 63.9874C179.101 63.1726 179.732 62.3547 180.35 61.5272C180.94 60.7377 181.472 59.8881 181.918 59.0067C182.89 57.0886 183.231 55.0753 182.616 52.9638C182.278 51.8034 181.542 51.0267 180.385 50.6557C179.442 50.3514 178.521 50.4433 177.639 50.8745C176.574 51.3913 175.634 52.0761 174.796 52.9068C173.04 54.6473 171.402 56.4989 169.984 58.5121C167.375 62.212 164.484 65.69 161.616 69.187C156.655 75.2361 150.718 80.1123 143.813 83.8154C141.05 85.296 138.399 86.9541 135.799 88.6947C131.663 91.4656 128.298 95.0134 125.471 99.062C123.295 102.179 121.982 105.685 121.042 109.353C119.372 115.884 119.018 122.46 120.169 129.108C121.02 134.035 122.336 138.854 123.543 143.695C125.337 150.876 127.313 158.013 129.152 165.182C130.312 169.703 131.252 174.271 131.892 178.897C132.118 180.526 132.453 182.14 132.759 183.76C132.819 184.077 132.931 184.407 133.103 184.677C133.409 185.165 134.081 185.219 134.397 184.781C134.547 184.572 134.629 184.264 134.62 184.004C134.614 183.789 134.607 183.57 134.601 183.354C134.559 182.001 134.527 180.644 134.381 179.299C133.804 174.075 132.816 168.919 131.44 163.847C129.636 157.192 127.594 150.604 125.382 144.07C123.923 139.764 122.9 135.345 122.058 130.884C121.472 127.767 121.099 124.619 121.096 122.136C121.131 117.825 121.59 114.264 122.444 110.748C123.196 107.654 124.165 104.645 125.806 101.89C128.422 97.5021 131.93 93.9322 136.089 90.9869C138.284 89.4334 140.572 88.0194 142.911 86.6878C143.517 86.3454 144.122 86.0061 144.731 85.6732C151.703 81.856 157.764 76.926 162.846 70.8166Z" fill="black"/>
<path d="M192.248 14.5535C191.483 15.4253 191.85 17.1849 191.757 18.2914C191.646 19.6832 191.544 21.0751 191.477 22.4669C191.292 26.2651 191.219 30.0696 191.002 33.8646C190.792 37.517 190.221 41.1249 189.224 44.6504C188.064 48.7562 186.522 52.7287 184.712 56.5935C183.141 59.9446 182.335 63.4828 181.971 67.1415C181.774 69.1326 181.624 71.1331 181.353 73.1146C181.057 75.2864 180.477 77.3884 179.339 79.2938C178.243 81.1263 177.061 82.9049 175.63 84.4965C172.501 87.9713 169.423 91.4905 166.106 94.7941C162.753 98.1326 159.493 101.553 156.527 105.244C154.867 107.311 153.398 109.492 152.136 111.823C147.767 119.882 147.228 128.318 149.574 137.047C149.644 137.31 149.752 137.605 149.937 137.782C150.115 137.953 150.447 138.105 150.66 138.058C150.874 138.01 151.046 137.712 151.199 137.497C151.263 137.408 151.247 137.249 151.24 137.126C151.167 135.404 151.215 133.667 150.989 131.964C150.485 128.195 150.676 124.479 151.476 120.779C152.493 116.058 154.621 111.851 157.473 107.989C159.694 104.981 162.119 102.143 164.729 99.4578C168.789 95.2823 172.689 90.9642 176.436 86.5097C178.077 84.5599 179.534 82.4864 180.789 80.2703C181.446 79.1163 181.933 77.8957 182.296 76.6211C183.007 74.1197 183.316 71.5548 183.504 68.9709C183.81 64.7637 184.69 60.7087 186.509 56.863C188.357 52.957 189.81 48.8925 190.846 44.7012C192.111 39.5809 192.57 34.356 192.65 29.0931C192.688 26.5821 192.701 24.0711 192.685 21.5633C192.675 19.3884 193.156 16.6079 192.248 14.5535Z" fill="black"/>
<path d="M179.741 42.6032C179.859 42.6698 180.117 42.6444 180.219 42.5557C180.423 42.3749 180.608 42.1467 180.723 41.8994C181.216 40.8436 181.749 39.8005 182.141 38.7067C182.373 38.0536 182.58 37.3942 182.768 36.7316C183.444 34.3474 183.845 31.903 184.129 29.4332C184.419 26.8905 184.718 24.3447 185.056 21.8083C185.241 20.4228 185.601 19.0722 186.28 17.8294C186.742 16.9829 187.446 16.5803 188.013 15.8954C188.186 15.6894 188.338 15.5562 188.335 15.3501C188.335 15.3406 188.329 15.3248 188.329 15.3152C188.326 15.274 188.319 15.2328 188.303 15.1821C186.955 14.9919 185.751 16.1491 185.098 17.1351C184.505 18.0323 184.097 19.0151 183.814 20.0455C183.237 22.1317 182.982 24.2686 182.746 26.415C182.491 28.7579 182.246 31.1072 181.902 33.4375C181.494 36.1767 180.691 38.824 179.786 41.4428C179.703 41.6838 179.594 41.9216 179.566 42.1689C179.553 42.3115 179.633 42.5398 179.741 42.6032Z" fill="black"/>
<path d="M78.2822 163.523C80.0858 156.868 82.1284 150.28 84.3398 143.746C85.7993 139.44 86.8222 135.021 87.6634 130.56C88.2498 127.443 88.6226 124.295 88.6258 121.813C88.5907 117.501 88.1319 113.94 87.2779 110.424C86.5258 107.33 85.5571 104.321 83.916 101.566C81.2999 97.1784 77.7914 93.6085 73.633 90.6631C71.4374 89.1096 69.1495 87.6956 66.8105 86.364C67.1228 87.3215 68.133 88.0856 69.0125 88.7165C70.8702 90.0481 72.5336 91.6269 74.1333 93.2565C77.3613 96.5443 80.3885 100.117 82.3323 104.286C87.6124 115.624 84.633 129.029 80.9621 140.344C76.6092 153.771 73.5438 168.535 74.2703 182.672C74.2799 182.859 73.9899 184.296 74.6208 183.896C74.8279 183.763 75.0032 183.373 75.1211 183.027C75.1625 181.674 75.1944 180.317 75.341 178.972C75.9177 173.754 76.9088 168.596 78.2822 163.523Z" fill="#FFE5EA"/>
<path d="M50.6141 91.3318C50.3146 91.1986 50.0086 91.0559 49.741 90.8689C48.221 89.8004 46.9145 88.5291 46.0955 86.8424C45.2447 85.086 44.3971 83.3232 43.6387 81.5256C42.9058 79.7882 42.1219 78.0825 40.997 76.567C38.5944 73.3205 36.163 70.0962 33.7253 66.8782C32.9096 65.8002 32.0715 64.7318 31.243 63.6633C30.9976 65.7209 33.5692 68.4983 34.4742 69.9915C35.9081 72.3598 37.1413 74.8455 38.3331 77.3406C39.8371 80.4888 41.2679 83.6783 42.9504 86.7378C44.3206 89.2266 46.0796 93.1484 49.2662 93.7286C50.0979 93.8808 51.0953 93.5003 51.3342 92.6919C51.4617 92.2639 51.3661 91.7978 51.1654 91.3413C51.0028 91.4205 50.8053 91.4174 50.6141 91.3318Z" fill="#FFE5EA"/>
<path d="M20.5465 17.2516C21.2762 17.8286 21.6968 18.6434 21.9836 19.509C22.5604 21.2622 22.4744 23.1391 22.7325 24.9463C23.1149 27.6285 23.8031 30.4185 24.6858 33.0531C24.9567 33.8711 25.0682 34.762 25.4379 35.5482C25.6067 35.9065 26.3556 36.7974 26.8368 36.5184C26.875 36.4962 26.9069 36.4581 26.9355 36.4138C26.26 34.0296 25.8585 31.5852 25.5749 29.1154C25.2849 26.5727 24.9854 24.0269 24.6476 21.4905C24.4628 20.105 24.1027 18.7544 23.4239 17.5116C22.9619 16.6651 22.2577 16.2624 21.6905 15.5776C21.5184 15.3716 21.3654 15.2384 21.3686 15.0323C21.3686 15.0228 21.375 15.007 21.375 14.9974C20.3808 14.6804 19.4376 14.7406 19.0775 15.6823C18.7238 16.5827 20.0303 16.8458 20.5465 17.2516Z" fill="#FFE5EA"/>
<path d="M84.2474 98.7369C81.4209 94.6883 78.0559 91.1406 73.9197 88.3696C71.3195 86.629 68.6683 84.9709 65.9055 83.4903C59.0003 79.7872 53.0637 74.9111 48.1022 68.8619C45.2343 65.3649 42.3441 61.8901 39.7343 58.1871C38.3131 56.1738 36.6784 54.3223 34.9226 52.5817C34.0845 51.7511 33.1445 51.0631 32.0802 50.5495C31.1975 50.1215 30.2766 50.0295 29.3333 50.3307C28.1766 50.7017 27.4405 51.4784 27.1027 52.6388C26.4877 54.7503 26.8319 56.7667 27.8006 58.6816C28.2467 59.5598 28.7789 60.4095 29.3684 61.2021C29.9866 62.0296 30.6175 62.8476 31.2517 63.6624C32.0833 64.7308 32.9182 65.7961 33.734 66.8772C36.1717 70.0984 38.6031 73.3227 41.0057 76.5661C42.1306 78.0847 42.9145 79.7872 43.6474 81.5246C44.4058 83.3223 45.2502 85.085 46.1042 86.8415C46.9232 88.5281 48.2297 89.8026 49.7497 90.8679C50.0173 91.055 50.3201 91.1976 50.6228 91.3308C50.814 91.4164 51.0115 91.4196 51.1772 91.3403C51.2569 91.3023 51.327 91.2484 51.3907 91.1723C51.6011 90.9123 51.4704 90.646 51.2856 90.4114C51.2219 90.3321 51.1549 90.256 51.0785 90.1863C48.6089 87.967 47.1526 85.1072 45.929 82.1017C45.7282 81.6071 45.5306 81.1125 45.3458 80.6147C44.6384 78.6998 43.6824 76.9116 42.4811 75.2599C39.7885 71.5631 36.9907 67.9488 33.973 64.5026C32.3797 62.6827 30.9011 60.7805 29.6106 58.7355C28.9478 57.6861 28.4825 56.5638 28.4602 55.3178C28.4475 54.6171 28.4985 53.8943 28.6642 53.2158C28.951 52.0396 30.0121 51.5196 31.0923 52.084C31.9623 52.5373 32.7939 53.1175 33.5205 53.7738C35.152 55.2417 36.5286 56.9538 37.7618 58.7577C40.566 62.8508 43.7047 66.6838 46.8722 70.4915C51.9548 76.6009 58.0156 81.531 64.9974 85.345C65.606 85.6779 66.2146 86.0171 66.8169 86.3596C69.1558 87.6911 71.4438 89.102 73.6393 90.6587C77.7978 93.604 81.3062 97.1739 83.9224 101.562C85.5635 104.314 86.5322 107.326 87.2842 110.42C88.1382 113.936 88.6002 117.496 88.6321 121.808C88.6289 124.291 88.2561 127.439 87.6698 130.555C86.8285 135.016 85.8024 139.436 84.3462 143.741C82.1315 150.276 80.0921 156.864 78.2885 163.518C76.9151 168.591 75.9273 173.746 75.3473 178.971C75.1976 180.315 75.1689 181.672 75.1275 183.026C75.1211 183.242 75.1147 183.461 75.1083 183.676C75.0988 183.936 75.1816 184.244 75.3314 184.453C75.6469 184.89 76.3192 184.833 76.6251 184.348C76.7972 184.076 76.9087 183.749 76.9693 183.432C77.2752 181.815 77.6098 180.198 77.836 178.569C78.4765 173.94 79.4166 169.371 80.5765 164.853C82.4183 157.685 84.394 150.548 86.1848 143.367C87.3925 138.526 88.7086 133.704 89.5594 128.78C90.7098 122.128 90.356 115.556 88.6863 109.025C87.7367 105.36 86.4206 101.853 84.2474 98.7369Z" fill="black"/>
<path d="M53.176 104.937C50.2093 101.247 46.9495 97.8227 43.5972 94.4874C40.28 91.1838 37.2018 87.6646 34.0726 84.1898C32.6386 82.5983 31.4564 80.8197 30.3634 78.9872C29.2226 77.0786 28.6459 74.9766 28.3495 72.808C28.0786 70.8265 27.9289 68.8259 27.7313 66.8349C27.368 63.1762 26.5618 59.638 24.9909 56.2868C23.1809 52.4221 21.6386 48.4495 20.4787 44.3438C19.4813 40.8183 18.9109 37.2103 18.7006 33.558C18.4839 29.7629 18.4106 25.9584 18.2258 22.1602C18.1589 20.7652 18.0569 19.3734 17.9454 17.9848C17.8562 16.8783 18.2194 15.1187 17.4546 14.2468C16.5465 16.3013 17.0276 19.0817 17.0117 21.2725C16.9958 23.7835 17.0053 26.2945 17.0468 28.8023C17.1296 34.0621 17.5885 39.2869 18.8504 44.4104C19.886 48.6049 21.3391 52.6662 23.1873 56.5722C25.0068 60.4179 25.8895 64.4697 26.1922 68.6801C26.3802 71.264 26.6893 73.8257 27.3999 76.3303C27.76 77.6048 28.2507 78.8255 28.9072 79.9795C30.1658 82.1925 31.6189 84.2659 33.26 86.2189C37.0106 90.6734 40.9077 94.9915 44.9674 99.167C47.5772 101.849 50.0022 104.69 52.2232 107.699C55.0752 111.56 57.2038 115.767 58.2203 120.488C59.017 124.191 59.2082 127.907 58.7079 131.673C58.4816 133.376 58.5294 135.113 58.4562 136.835C58.4498 136.962 58.4338 137.117 58.4976 137.206C58.6505 137.421 58.8226 137.716 59.0361 137.767C59.2528 137.815 59.581 137.662 59.7595 137.491C59.9475 137.311 60.0526 137.019 60.1227 136.756C62.468 128.027 61.9295 119.588 57.5607 111.532C56.3052 109.186 54.8362 107.001 53.176 104.937Z" fill="black"/>
<path d="M21.6832 15.5804C22.2536 16.2652 22.9547 16.6678 23.4167 17.5143C24.0954 18.7571 24.4555 20.1077 24.6404 21.4932C24.9781 24.0296 25.2777 26.5754 25.5676 29.1181C25.8512 31.5879 26.2528 34.0323 26.9283 36.4165C27.1163 37.0791 27.3202 37.7385 27.5561 38.3916C27.948 39.4855 28.4833 40.5285 28.9741 41.5843C29.0888 41.8316 29.2736 42.0598 29.4776 42.2406C29.5795 42.3293 29.8376 42.3547 29.9555 42.2881C30.0671 42.2247 30.1467 41.9933 30.1308 41.8506C30.1021 41.6033 29.9938 41.3655 29.9109 41.1246C29.0059 38.509 28.2029 35.8616 27.795 33.1192C27.4477 30.7889 27.2055 28.4397 26.9506 26.0967C26.718 23.9535 26.4631 21.8134 25.8831 19.7273C25.5963 18.6937 25.1916 17.7141 24.5989 16.8168C23.9457 15.8308 22.7412 14.6704 21.3932 14.8638C21.3741 14.9114 21.3709 14.9558 21.3678 14.997C21.3678 15.0097 21.3614 15.0224 21.3614 15.0319C21.3582 15.238 21.5111 15.3711 21.6832 15.5804Z" fill="black"/>
</svg>
