<svg width="24" height="24" viewBox="0 0 24 24" fill="none" xmlns="http://www.w3.org/2000/svg">
<circle cx="12" cy="12" r="12" fill="#C13584"/>
<path d="M12 6.26125C13.8691 6.26125 14.0905 6.2684 14.8286 6.30207C15.5111 6.33319 15.8817 6.44723 16.1284 6.54309C16.4551 6.67008 16.6883 6.82176 16.9333 7.0667C17.1782 7.31167 17.3299 7.54485 17.4569 7.87159C17.5528 8.11825 17.6668 8.48889 17.6979 9.17138C17.7316 9.9095 17.7387 10.1309 17.7387 12C17.7387 13.869 17.7316 14.0904 17.6979 14.8286C17.6668 15.5111 17.5528 15.8817 17.4569 16.1284C17.3299 16.4551 17.1782 16.6883 16.9333 16.9332C16.6883 17.1782 16.4551 17.3299 16.1284 17.4569C15.8817 17.5527 15.5111 17.6668 14.8286 17.6979C14.0906 17.7316 13.8692 17.7387 12 17.7387C10.1308 17.7387 9.90944 17.7316 9.1714 17.6979C8.48891 17.6668 8.11826 17.5527 7.8716 17.4569C7.54486 17.3299 7.31167 17.1782 7.06674 16.9332C6.8218 16.6883 6.67008 16.4551 6.5431 16.1284C6.44723 15.8817 6.3332 15.5111 6.30208 14.8286C6.2684 14.0904 6.26126 13.869 6.26126 12C6.26126 10.1309 6.2684 9.9095 6.30208 9.17138C6.3332 8.48889 6.44723 8.11825 6.5431 7.87159C6.67008 7.54485 6.82177 7.31167 7.06674 7.06673C7.31167 6.82176 7.54486 6.67008 7.8716 6.54309C8.11826 6.44723 8.48891 6.33319 9.1714 6.30207C9.90952 6.2684 10.1309 6.26125 12 6.26125ZM12 5C10.0989 5 9.86053 5.00806 9.11391 5.04212C8.36884 5.07611 7.85999 5.19445 7.41473 5.36748C6.95442 5.54636 6.56405 5.78572 6.17487 6.17487C5.78572 6.56404 5.54637 6.95442 5.3675 7.41473C5.19445 7.85998 5.07611 8.36883 5.04212 9.11389C5.00806 9.86052 5 10.0989 5 12C5 13.9011 5.00806 14.1394 5.04212 14.8861C5.07611 15.6311 5.19445 16.14 5.3675 16.5852C5.54637 17.0455 5.78572 17.4359 6.17487 17.8251C6.56405 18.2142 6.95442 18.4536 7.41473 18.6324C7.85999 18.8055 8.36884 18.9238 9.11391 18.9578C9.86053 18.9919 10.0989 19 12 19C13.9011 19 14.1395 18.9919 14.8861 18.9578C15.6312 18.9238 16.14 18.8055 16.5853 18.6324C17.0456 18.4536 17.436 18.2142 17.8251 17.8251C18.2143 17.4359 18.4536 17.0455 18.6325 16.5852C18.8055 16.14 18.9239 15.6311 18.9579 14.8861C18.9919 14.1394 19 13.9011 19 12C19 10.0989 18.9919 9.86052 18.9579 9.11389C18.9239 8.36883 18.8055 7.85998 18.6325 7.41473C18.4536 6.95442 18.2143 6.56404 17.8251 6.17487C17.436 5.78572 17.0456 5.54636 16.5853 5.36748C16.14 5.19445 15.6312 5.07611 14.8861 5.04212C14.1395 5.00806 13.9011 5 12 5Z" fill="white"/>
<path d="M12.0033 8.40865C10.018 8.40865 8.40865 10.018 8.40865 12.0032C8.40865 13.9885 10.018 15.5978 12.0033 15.5978C13.9885 15.5978 15.5978 13.9885 15.5978 12.0032C15.5978 10.018 13.9885 8.40865 12.0033 8.40865ZM12.0033 14.3366C10.7146 14.3366 9.66991 13.2919 9.66991 12.0032C9.66991 10.7146 10.7146 9.66991 12.0033 9.66991C13.2919 9.66991 14.3366 10.7146 14.3366 12.0032C14.3366 13.2919 13.2919 14.3366 12.0033 14.3366Z" fill="white"/>
<path d="M16.5796 8.26442C16.5796 8.72831 16.2035 9.1044 15.7396 9.1044C15.2757 9.1044 14.8996 8.72831 14.8996 8.26442C14.8996 7.80049 15.2757 7.4244 15.7396 7.4244C16.2035 7.4244 16.5796 7.80049 16.5796 8.26442Z" fill="white"/>
</svg>
