<svg width="18" height="18" viewBox="0 0 18 18" fill="none" xmlns="http://www.w3.org/2000/svg">
<g clip-path="url(#clip0_387_37109)">
<path d="M3.85528e-08 16.4992H18V17.9992H3.85528e-08V16.4992ZM18 5.93095V7.4992H15.75V13.4992H17.25V14.9992H0.75V13.4992H2.25V7.4992H3.85528e-08V5.93095C-7.47784e-05 5.52673 0.108746 5.12995 0.315025 4.78233C0.521303 4.4347 0.81742 4.14907 1.17225 3.95545L7.92225 0.273696C8.25268 0.0928408 8.62331 -0.00195312 9 -0.00195312C9.37669 -0.00195312 9.74732 0.0928408 10.0778 0.273696L16.8278 3.95545C17.1826 4.14907 17.4787 4.4347 17.685 4.78233C17.8913 5.12995 18.0001 5.52673 18 5.93095ZM3.75 13.4992H6V7.4992H3.75V13.4992ZM7.5 7.4992V13.4992H10.5V7.4992H7.5ZM14.25 7.4992H12V13.4992H14.25V7.4992ZM16.5 5.93095C16.5 5.79621 16.4638 5.66395 16.395 5.54807C16.3262 5.4322 16.2275 5.33699 16.1093 5.27245L9.35925 1.5907C9.24906 1.53057 9.12553 1.49906 9 1.49906C8.87447 1.49906 8.75094 1.53057 8.64075 1.5907L1.89075 5.27245C1.77247 5.33699 1.67377 5.4322 1.60501 5.54807C1.53625 5.66395 1.49998 5.79621 1.5 5.93095V5.9992H16.5V5.93095Z" fill="#000C28"/>
</g>
<defs>
<clipPath id="clip0_387_37109">
<rect width="18" height="18" fill="white"/>
</clipPath>
</defs>
</svg>
