<svg width="46" height="46" viewBox="0 0 46 46" fill="none" xmlns="http://www.w3.org/2000/svg">
<g clip-path="url(#clip0_955_83846)">
<path d="M9.88281 93.0781C37.1734 93.0781 59.2969 70.9547 59.2969 43.6641C59.2969 16.3734 37.1734 -5.75 9.88281 -5.75C-17.4078 -5.75 -39.5312 16.3734 -39.5312 43.6641C-39.5312 70.9547 -17.4078 93.0781 9.88281 93.0781Z" fill="url(#paint0_radial_955_83846)"/>
<path d="M9.88281 38.4531C39.3567 38.4531 63.25 14.5598 63.25 -14.9141C63.25 -44.3879 39.3567 -68.2812 9.88281 -68.2812C-19.5911 -68.2812 -43.4844 -44.3879 -43.4844 -14.9141C-43.4844 14.5598 -19.5911 38.4531 9.88281 38.4531Z" fill="url(#paint1_radial_955_83846)"/>
<path d="M4.98617 175.738C41.8295 175.738 71.697 145.871 71.697 109.027C71.697 72.1838 41.8295 42.3164 4.98617 42.3164C-31.8572 42.3164 -61.7246 72.1838 -61.7246 109.027C-61.7246 145.871 -31.8572 175.738 4.98617 175.738Z" fill="url(#paint2_radial_955_83846)"/>
<path d="M9.88281 38.4531C39.3567 38.4531 63.25 14.5598 63.25 -14.9141C63.25 -44.3879 39.3567 -68.2812 9.88281 -68.2812C-19.5911 -68.2812 -43.4844 -44.3879 -43.4844 -14.9141C-43.4844 14.5598 -19.5911 38.4531 9.88281 38.4531Z" fill="url(#paint3_radial_955_83846)"/>
<path d="M9.88281 38.4531C39.3567 38.4531 63.25 14.5598 63.25 -14.9141C63.25 -44.3879 39.3567 -68.2812 9.88281 -68.2812C-19.5911 -68.2812 -43.4844 -44.3879 -43.4844 -14.9141C-43.4844 14.5598 -19.5911 38.4531 9.88281 38.4531Z" fill="url(#paint4_radial_955_83846)"/>
<path d="M4.98617 58.5817C41.8295 58.5817 71.697 28.7143 71.697 -8.12906C71.697 -44.9724 41.8295 -74.8398 4.98617 -74.8398C-31.8572 -74.8398 -61.7246 -44.9724 -61.7246 -8.12906C-61.7246 28.7143 -31.8572 58.5817 4.98617 58.5817Z" fill="url(#paint5_radial_955_83846)"/>
<path d="M29.4688 18.3281C30.4611 18.3281 31.2656 17.5236 31.2656 16.5312C31.2656 15.5389 30.4611 14.7344 29.4688 14.7344C28.4764 14.7344 27.6719 15.5389 27.6719 16.5312C27.6719 17.5236 28.4764 18.3281 29.4688 18.3281Z" fill="white"/>
<path d="M23 17.25C21.8628 17.25 20.7511 17.5872 19.8055 18.2191C18.8599 18.8509 18.1229 19.7489 17.6877 20.7996C17.2525 21.8502 17.1386 23.0064 17.3605 24.1218C17.5824 25.2372 18.13 26.2617 18.9341 27.0659C19.7383 27.87 20.7628 28.4176 21.8782 28.6395C22.9936 28.8614 24.1498 28.7475 25.2004 28.3123C26.2511 27.8771 27.1491 27.1401 27.781 26.1945C28.4128 25.2489 28.75 24.1372 28.75 23C28.75 21.475 28.1442 20.0125 27.0659 18.9341C25.9875 17.8558 24.525 17.25 23 17.25V17.25ZM23 25.875C22.4314 25.875 21.8755 25.7064 21.4027 25.3905C20.9299 25.0746 20.5615 24.6256 20.3438 24.1002C20.1262 23.5749 20.0693 22.9968 20.1802 22.4391C20.2912 21.8814 20.565 21.3691 20.9671 20.9671C21.3691 20.565 21.8814 20.2912 22.4391 20.1802C22.9968 20.0693 23.5749 20.1262 24.1002 20.3438C24.6256 20.5614 25.0746 20.9299 25.3905 21.4027C25.7064 21.8755 25.875 22.4314 25.875 23C25.875 23.7625 25.5721 24.4938 25.0329 25.0329C24.4938 25.5721 23.7625 25.875 23 25.875V25.875Z" fill="white"/>
<path d="M30.1875 11.5H15.8125C13.4308 11.5 11.5 13.4308 11.5 15.8125V30.1875C11.5 32.5692 13.4308 34.5 15.8125 34.5H30.1875C32.5692 34.5 34.5 32.5692 34.5 30.1875V15.8125C34.5 13.4308 32.5692 11.5 30.1875 11.5Z" stroke="white" stroke-width="2.875" stroke-miterlimit="10"/>
</g>
<defs>
<radialGradient id="paint0_radial_955_83846" cx="0" cy="0" r="1" gradientUnits="userSpaceOnUse" gradientTransform="translate(9.88281 43.6641) scale(49.4141)">
<stop stop-color="#FFD676"/>
<stop offset="0.25" stop-color="#F2A454"/>
<stop offset="0.38" stop-color="#F05C3C"/>
<stop offset="0.7" stop-color="#C22F86"/>
<stop offset="0.96" stop-color="#6666AD"/>
<stop offset="0.99" stop-color="#5C6CB2"/>
</radialGradient>
<radialGradient id="paint1_radial_955_83846" cx="0" cy="0" r="1" gradientUnits="userSpaceOnUse" gradientTransform="translate(9.88281 -14.9141) scale(53.3672)">
<stop stop-color="#FFD676"/>
<stop offset="0.25" stop-color="#F2A454"/>
<stop offset="0.38" stop-color="#F05C3C"/>
<stop offset="0.7" stop-color="#C22F86"/>
<stop offset="0.96" stop-color="#6666AD"/>
<stop offset="0.99" stop-color="#5C6CB2"/>
</radialGradient>
<radialGradient id="paint2_radial_955_83846" cx="0" cy="0" r="1" gradientUnits="userSpaceOnUse" gradientTransform="translate(4.98618 109.027) scale(66.7108)">
<stop stop-color="#FFD676"/>
<stop offset="0.25" stop-color="#F2A454"/>
<stop offset="0.38" stop-color="#F05C3C"/>
<stop offset="0.7" stop-color="#C22F86"/>
<stop offset="0.96" stop-color="#6666AD"/>
<stop offset="0.99" stop-color="#5C6CB2"/>
</radialGradient>
<radialGradient id="paint3_radial_955_83846" cx="0" cy="0" r="1" gradientUnits="userSpaceOnUse" gradientTransform="translate(9.88281 -14.9141) scale(53.3672)">
<stop stop-color="#FFD676"/>
<stop offset="0.25" stop-color="#F2A454"/>
<stop offset="0.38" stop-color="#F05C3C"/>
<stop offset="0.7" stop-color="#C22F86"/>
<stop offset="0.96" stop-color="#6666AD"/>
<stop offset="0.99" stop-color="#5C6CB2"/>
</radialGradient>
<radialGradient id="paint4_radial_955_83846" cx="0" cy="0" r="1" gradientUnits="userSpaceOnUse" gradientTransform="translate(9.88281 -14.9141) scale(53.3672)">
<stop stop-color="#FFD676"/>
<stop offset="0.25" stop-color="#F2A454"/>
<stop offset="0.38" stop-color="#F05C3C"/>
<stop offset="0.7" stop-color="#C22F86"/>
<stop offset="0.96" stop-color="#6666AD"/>
<stop offset="0.99" stop-color="#5C6CB2"/>
</radialGradient>
<radialGradient id="paint5_radial_955_83846" cx="0" cy="0" r="1" gradientUnits="userSpaceOnUse" gradientTransform="translate(4.98618 -8.12906) scale(66.7108)">
<stop stop-color="#FFD676"/>
<stop offset="0.25" stop-color="#F2A454"/>
<stop offset="0.38" stop-color="#F05C3C"/>
<stop offset="0.7" stop-color="#C22F86"/>
<stop offset="0.96" stop-color="#6666AD"/>
<stop offset="0.99" stop-color="#5C6CB2"/>
</radialGradient>
<clipPath id="clip0_955_83846">
<rect width="46" height="46" rx="23" fill="white"/>
</clipPath>
</defs>
</svg>
