<svg width="54" height="54" viewBox="0 0 54 54" fill="none" xmlns="http://www.w3.org/2000/svg">
<rect width="54" height="54" rx="27" fill="#0D4EE3"/>
<g clip-path="url(#clip0_387_22131)">
<path d="M15 36.9996H39V38.9996H15V36.9996ZM39 22.9086V24.9996H36V32.9996H38V34.9996H16V32.9996H18V24.9996H15V22.9086C14.9999 22.3696 15.145 21.8406 15.42 21.3771C15.6951 20.9136 16.0899 20.5327 16.563 20.2746L25.563 15.3656C26.0036 15.1244 26.4977 14.998 27 14.998C27.5023 14.998 27.9964 15.1244 28.437 15.3656L37.437 20.2746C37.9101 20.5327 38.3049 20.9136 38.58 21.3771C38.855 21.8406 39.0001 22.3696 39 22.9086ZM20 32.9996H23V24.9996H20V32.9996ZM25 24.9996V32.9996H29V24.9996H25ZM34 24.9996H31V32.9996H34V24.9996ZM37 22.9086C37 22.7289 36.9517 22.5526 36.86 22.3981C36.7683 22.2436 36.6367 22.1166 36.479 22.0306L27.479 17.1216C27.3321 17.0414 27.1674 16.9994 27 16.9994C26.8326 16.9994 26.6679 17.0414 26.521 17.1216L17.521 22.0306C17.3633 22.1166 17.2317 22.2436 17.14 22.3981C17.0483 22.5526 17 22.7289 17 22.9086V22.9996H37V22.9086Z" fill="white"/>
</g>
<defs>
<clipPath id="clip0_387_22131">
<rect width="24" height="24" fill="white" transform="translate(15 15)"/>
</clipPath>
</defs>
</svg>
