<svg width="55" height="56" viewBox="0 0 55 56" fill="none" xmlns="http://www.w3.org/2000/svg">
<g clip-path="url(#clip0)">
<path d="M49.5 -0.0010766C49.115 -0.0010766 48.73 0.0549234 48.4 0.110923C48.4 0.110923 48.345 0.110923 48.345 0.166923C48.29 0.166923 48.235 0.222923 48.18 0.222923C48.125 0.222923 48.07 0.278923 48.015 0.334923C47.96 0.390923 47.905 0.390923 47.905 0.446923C47.85 0.502923 47.795 0.558923 47.795 0.614923C47.795 0.670923 47.74 0.726923 47.74 0.782923C47.74 0.838923 47.685 0.894923 47.685 0.950923C47.685 1.00692 47.685 1.00692 47.685 1.06292V6.55092H28.985C27.775 2.57492 24.2 -0.0570766 20.185 -0.0010766C16.17 -0.0570766 12.54 2.57492 11.33 6.55092H7.315V1.00692C7.315 0.950923 7.315 0.950923 7.315 0.894923C7.315 0.838923 7.315 0.782923 7.26 0.726923C7.26 0.670923 7.205 0.614923 7.205 0.558923C7.205 0.502923 7.15 0.446923 7.095 0.390923C6.985 0.222923 6.82 0.166923 6.655 0.110923C6.655 0.110923 6.6 0.110923 6.6 0.0549234C6.27 0.0549234 5.885 -0.0010766 5.5 -0.0010766C4.015 -0.0010766 2.64 0.558923 1.595 1.62292C0.55 2.68692 0 4.08692 0 5.59892V50.3989C0 53.4789 2.475 55.9989 5.5 55.9989H49.5C52.525 55.9989 55 53.4789 55 50.3989V5.59892C55 2.51892 52.525 -0.0010766 49.5 -0.0010766ZM40.315 8.39892H47.63V11.1989H40.315V8.39892ZM29.315 8.39892H33V23.3509H22.935C25.3 19.4869 29.37 12.2069 29.37 8.90292C29.315 8.73492 29.315 8.56692 29.315 8.39892ZM20.185 1.84692C24.09 1.73492 27.39 4.87092 27.5 8.90292C27.5 11.7589 23.265 19.4869 20.625 23.5749C20.515 23.6869 20.405 23.7989 20.35 23.9669C20.295 24.0789 20.185 24.1909 20.13 24.3029C17.545 20.4389 12.76 11.9269 12.76 8.90292C12.98 4.87092 16.225 1.73492 20.185 1.84692ZM7.315 8.39892H11C11 8.56692 11 8.73492 11 8.90292C11 12.2069 15.07 19.4869 17.435 23.3509H7.315V8.39892ZM1.815 5.59892C1.815 4.59092 2.2 3.63892 2.86 2.96692C3.575 2.23892 4.51 1.84692 5.445 1.84692V44.7989C4.07 44.7989 2.805 45.3029 1.76 46.2549V5.59892H1.815ZM5.5 54.1509C3.465 54.1509 1.815 52.4709 1.815 50.3989C1.815 48.3269 3.465 46.6469 5.5 46.6469C5.72 46.6469 5.995 46.6469 6.215 46.7029C6.27 46.7029 6.27 46.7029 6.325 46.7029C6.38 46.7029 6.38 46.7029 6.435 46.7029C6.49 46.7029 6.49 46.7029 6.545 46.7029C6.82 46.7029 7.095 46.4789 7.26 46.2549C7.315 46.1989 7.315 46.1429 7.315 46.0869C7.315 46.0869 7.315 46.0309 7.37 46.0309C7.37 45.9749 7.37 45.9749 7.37 45.9189C7.37 45.8629 7.37 45.8629 7.37 45.8069V30.7989H33V35.0549L14.3 54.0949L5.5 54.1509ZM33 54.1509H24.64L33 45.6389V54.1509ZM38.775 43.2309C38.61 43.3989 38.5 43.6229 38.5 43.9029V54.1509H34.815V43.3989C34.815 43.0069 34.595 42.6709 34.265 42.5589C33.935 42.3909 33.55 42.5029 33.275 42.7829L22.055 54.1509H16.885L34.595 36.1189C34.76 35.9509 34.87 35.7269 34.87 35.4469V29.8469C34.87 29.6229 34.76 29.3429 34.595 29.1749C34.43 29.0069 34.21 28.8949 33.935 28.8949H7.315V25.1989H18.59C18.645 25.2549 18.645 25.3109 18.7 25.3109C19.03 25.8149 19.58 26.0949 20.185 26.0949C20.79 26.0949 21.34 25.8149 21.67 25.3109C21.67 25.2549 21.725 25.1989 21.78 25.1989H33.935C34.155 25.1989 34.43 25.0869 34.595 24.9189C34.76 24.7509 34.87 24.5269 34.87 24.2469V8.39892H38.5V12.1509C38.5 12.3749 38.61 12.6549 38.775 12.8229C38.94 12.9909 39.16 13.1029 39.435 13.1029H47.685V16.7989H39.435C39.215 16.7989 38.94 16.9109 38.775 17.0789C38.61 17.2469 38.5 17.4709 38.5 17.7509V38.3029C38.5 38.5269 38.61 38.8069 38.775 38.9749C38.94 39.1429 39.16 39.2549 39.435 39.2549H47.685V43.0069H39.435C39.16 42.9509 38.94 43.0069 38.775 43.2309ZM47.685 18.6469V37.2949H40.315V18.6469H47.685ZM49.5 54.1509H40.315V44.7989H47.63V45.8069C47.63 45.8629 47.63 45.8629 47.63 45.9189C47.63 45.9749 47.63 45.9749 47.63 46.0309C47.63 46.0309 47.63 46.0869 47.685 46.0869C47.685 46.1429 47.74 46.1989 47.74 46.2549C47.85 46.4789 48.015 46.5909 48.29 46.7029C48.345 46.7029 48.4 46.7589 48.455 46.7589C48.51 46.7589 48.51 46.7589 48.565 46.7589C48.62 46.7589 48.675 46.7589 48.785 46.7589C49.005 46.7029 49.28 46.7029 49.5 46.7029C51.535 46.7029 53.185 48.3829 53.185 50.4549C53.185 52.4709 51.535 54.1509 49.5 54.1509ZM53.185 46.2549C52.14 45.3029 50.875 44.7989 49.5 44.7989V1.84692C51.535 1.84692 53.185 3.52692 53.185 5.59892V46.2549Z" fill="#425BFF"/>
<path d="M24.7501 9.35112C24.7501 6.77513 22.7151 4.70312 20.1851 4.70312C17.6551 4.70312 15.6201 6.77513 15.6201 9.35112C15.6201 11.9271 17.6551 13.9991 20.1851 13.9991C22.7151 13.9991 24.7501 11.9271 24.7501 9.35112ZM20.1851 12.1511C18.6451 12.1511 17.4351 10.9191 17.4351 9.35112C17.4351 7.78312 18.6451 6.55112 20.1851 6.55112C21.7251 6.55112 22.9351 7.78312 22.9351 9.35112C22.9351 10.9191 21.6701 12.1511 20.1851 12.1511Z" fill="#425BFF"/>
</g>
<defs>
<clipPath id="clip0">
<rect width="55" height="56" fill="white"/>
</clipPath>
</defs>
</svg>
