<svg width="568" height="525" viewBox="0 0 568 525" fill="none" xmlns="http://www.w3.org/2000/svg">
<g filter="url(#filter0_d_701_11615)">
<rect x="228" y="175" width="280" height="280" rx="140" fill="white"/>
<path d="M301.78 369.806C301.643 371.061 301.444 372.334 301.155 373.564C300.875 374.756 300.417 376.013 300.735 377.249C301.481 380.172 305.602 380.823 307.378 378.435C308.783 376.54 308.118 374.983 307.655 372.882C307.496 372.156 307.281 367.804 307.275 366.979C307.26 364.573 307.141 358.879 307.12 358.655C307.12 358.655 306.883 355.483 306.753 353.74H303.042C302.93 355.495 302.728 358.655 302.728 358.655C302.713 358.745 302.013 367.758 301.786 369.809L301.78 369.806Z" fill="#0B1A47"/>
<path d="M369.566 369.806C369.429 371.061 369.23 372.334 368.94 373.564C368.661 374.756 368.2 376.013 368.517 377.249C369.267 380.172 373.385 380.823 375.16 378.435C376.566 376.54 375.901 374.983 375.437 372.882C375.279 372.156 375.064 367.804 375.058 366.979C375.039 364.573 374.927 358.879 374.902 358.655C374.902 358.655 374.666 355.483 374.535 353.74H370.825C370.713 355.495 370.511 358.655 370.511 358.655C370.495 358.745 369.796 367.758 369.569 369.809L369.566 369.806Z" fill="#0B1A47"/>
<path opacity="0.7" d="M370.266 353.842C364.425 353.842 358.802 353.849 355.397 353.852C352.616 353.845 348.169 353.842 343.302 353.842H343.286C343.137 354.524 341.016 355.066 338.41 355.066C335.804 355.066 333.683 354.524 333.533 353.842H333.437C328.691 353.842 324.331 353.849 321.504 353.852C318.347 353.845 313.041 353.842 307.412 353.839H302.48C294.142 353.839 286.245 353.849 284.616 353.858C284.046 357.547 284.068 361.634 284.068 365.311C284.068 371.773 283.26 382.146 287.212 386.946C290.562 391.018 385.716 390.888 388.876 386.946C392.764 382.096 392.583 371.77 392.583 365.311C392.583 362.114 392.182 355.95 392.036 353.864C390.677 353.849 383.272 353.842 375.201 353.842H370.266Z" fill="#ED5A61"/>
<path opacity="0.7" d="M370.266 353.842C364.425 353.842 358.802 353.849 355.397 353.852C352.616 353.845 348.169 353.842 343.302 353.842V378.968C343.302 380.814 341.806 382.311 339.961 382.311H336.78C334.933 382.311 333.44 380.814 333.44 378.968V353.842C328.694 353.842 324.334 353.849 321.507 353.852C318.35 353.845 313.044 353.842 307.415 353.839H302.482C294.144 353.839 286.248 353.849 284.618 353.858C284.049 357.547 284.071 361.634 284.071 365.311C284.071 371.773 283.262 382.146 287.215 386.946C290.565 391.018 385.719 390.888 388.879 386.946C392.767 382.096 392.586 371.77 392.586 365.311C392.586 362.114 392.185 355.95 392.039 353.864C390.68 353.849 383.275 353.842 375.204 353.842H370.269H370.266Z" fill="#ED5A61"/>
<path d="M387.256 351.066C383.913 350.378 378.026 349.957 372.375 349.957C372.173 349.957 304.181 349.957 303.976 349.96C303.771 349.96 303.565 349.957 303.36 349.957C297.712 349.957 291.825 350.378 288.482 351.066C285.138 351.754 284.737 353.129 284.619 353.861C284.52 354.459 284.728 355.86 286.289 356.411C289.542 357.559 297.426 357.671 303.36 357.671C303.562 357.671 303.771 357.671 303.976 357.671C304.181 357.671 372.173 357.671 372.375 357.671C378.312 357.671 386.162 357.457 389.449 356.411C390.755 355.993 392.036 354.876 392.036 353.867C392.036 352.803 390.6 351.757 387.256 351.069V351.066ZM338.419 355.066C335.723 355.066 333.537 354.484 333.537 353.768C333.537 353.052 335.723 352.466 338.419 352.466C341.116 352.466 343.305 353.049 343.305 353.768C343.305 354.487 341.119 355.066 338.419 355.066Z" fill="#FFC2C6"/>
<path d="M306.743 352.628C306.687 352.115 305.81 341.736 305.341 333.106L303.608 333.1C303.446 340.052 303.509 346.471 303.179 352.582C303.17 352.728 303.129 353.204 303.098 353.758H306.843C306.805 353.245 306.762 352.803 306.743 352.631V352.628Z" fill="#0B1A47"/>
<path d="M373.142 333.387L371.385 333.38C371.232 340.226 371.288 346.555 370.962 352.582C370.952 352.728 370.909 353.204 370.881 353.758H374.625C374.588 353.245 374.548 352.803 374.529 352.631C374.473 352.124 373.615 341.963 373.142 333.39V333.387Z" fill="#0B1A47"/>
<path d="M342.496 302.315C333.29 318.786 332.864 323.095 333.266 323.749C333.667 324.402 334.578 324.959 335.424 324.054C336.273 323.148 343.003 304.541 350.299 299.423C353.375 297.266 358.043 294.598 362.966 291.977C365.333 290.716 428.856 259.654 448.427 250.066C449.746 249.418 450.672 248.173 450.909 246.719C451.145 245.269 450.666 243.79 449.621 242.756C449.26 242.398 448.9 242.047 448.545 241.71C447.13 240.366 445.018 240.076 443.295 240.991C428.7 248.727 361.343 284.306 359.757 285.299C353.257 289.377 346.763 294.673 342.493 302.315H342.496Z" fill="#238482"/>
<path d="M340.009 312.19C339.937 312.196 339.866 312.202 339.794 312.212C339.716 312.218 339.645 312.227 339.567 312.233C339.486 312.24 339.402 312.246 339.318 312.249C339.25 312.255 339.178 312.261 339.11 312.265C339.01 312.271 338.908 312.271 338.805 312.277C338.746 312.277 338.69 312.283 338.634 312.283C338.472 312.286 338.31 312.289 338.143 312.289C337.975 312.289 337.813 312.289 337.651 312.283C337.608 312.283 337.567 312.283 337.524 312.277C337.402 312.274 337.284 312.268 337.166 312.261C337.141 312.261 337.116 312.261 337.091 312.255C336.917 312.246 336.749 312.233 336.584 312.218C336.469 313.995 336.317 316.371 336.317 316.371C336.301 316.461 335.602 325.476 335.375 327.525C335.238 328.779 335.039 330.052 334.749 331.282C334.47 332.478 334.009 333.732 334.327 334.968C335.073 337.891 339.194 338.542 340.97 336.154C342.378 334.258 341.713 332.702 341.246 330.6C341.085 329.875 340.873 325.523 340.867 324.698C340.848 322.292 340.736 316.598 340.711 316.374C340.711 316.374 340.531 313.924 340.397 312.143C340.344 312.149 340.292 312.156 340.239 312.162C340.164 312.171 340.089 312.184 340.012 312.19H340.009Z" fill="#0B1A47"/>
<path d="M343.006 312C343.006 312 342.999 311.984 342.996 311.975C342.981 311.938 342.959 311.897 342.931 311.863C342.483 311.268 340.514 310.82 338.145 310.82C335.535 310.82 333.321 311.365 333.178 312.05C333.169 312.047 333.169 312.199 333.178 312.196C333.299 312.784 334.963 313.27 337.093 313.395C337.118 313.395 337.143 313.398 337.168 313.401C337.286 313.407 337.404 313.41 337.526 313.416C337.569 313.416 337.61 313.419 337.653 313.423C337.815 313.426 337.98 313.429 338.145 313.429C338.309 313.429 338.471 313.429 338.636 313.423C338.692 313.423 338.748 313.416 338.807 313.416C338.91 313.41 339.012 313.407 339.112 313.404C339.183 313.401 339.252 313.395 339.32 313.391C339.404 313.385 339.488 313.382 339.569 313.376C339.644 313.37 339.718 313.363 339.796 313.354C339.868 313.348 339.939 313.342 340.011 313.332C340.088 313.323 340.163 313.314 340.238 313.304C340.3 313.295 340.365 313.289 340.427 313.279C340.505 313.27 340.577 313.258 340.651 313.245C340.707 313.236 340.766 313.226 340.822 313.217C340.897 313.205 340.968 313.189 341.04 313.177C341.09 313.167 341.143 313.158 341.192 313.146C341.264 313.13 341.329 313.114 341.398 313.099C341.447 313.089 341.491 313.077 341.538 313.065C341.603 313.049 341.665 313.03 341.724 313.012C341.765 312.999 341.808 312.987 341.852 312.974C341.911 312.956 341.964 312.937 342.017 312.921C342.06 312.906 342.097 312.893 342.135 312.878C342.185 312.859 342.231 312.84 342.278 312.822C342.315 312.806 342.349 312.791 342.384 312.775C342.427 312.756 342.464 312.738 342.502 312.716C342.536 312.7 342.567 312.682 342.595 312.663C342.629 312.644 342.66 312.623 342.691 312.604C342.719 312.585 342.744 312.566 342.769 312.548C342.797 312.529 342.819 312.507 342.841 312.489C342.863 312.467 342.884 312.448 342.903 312.426C342.919 312.408 342.937 312.386 342.95 312.367C342.965 312.345 342.978 312.324 342.987 312.299C342.996 312.28 343.006 312.258 343.012 312.24C343.024 312.205 343.034 312.168 343.034 312.134C343.034 312.093 343.024 312.053 343.009 312.012L343.006 312Z" fill="#FFC2C6"/>
<path opacity="0.7" d="M343.021 312.202C343.021 312.202 343.012 312.221 343.009 312.23C343.003 312.249 342.993 312.271 342.984 312.289C342.788 312.691 341.97 312.943 341.538 313.055C341.112 313.167 340.676 313.236 340.238 313.295C340.163 313.304 340.088 313.314 340.011 313.323C339.137 313.419 338.182 313.447 337.171 313.395C337.146 313.395 337.121 313.391 337.097 313.388C334.969 313.267 333.302 312.781 333.181 312.19C333.172 312.193 333.166 327.904 333.166 337.321C333.166 339.167 334.661 340.665 336.506 340.665H339.687C341.535 340.665 343.031 339.167 343.031 337.321V312.072C343.031 312.072 343.024 312.202 343.021 312.202Z" fill="#ED5A61"/>
<path d="M338.748 288.608L337.187 288.559C337.171 289.172 337.156 289.788 337.14 290.411C336.969 297.313 337.031 303.679 336.729 309.743C336.717 309.967 336.639 311.38 336.586 312.221C336.754 312.236 336.922 312.249 337.093 312.258C337.118 312.258 337.143 312.261 337.168 312.264C337.286 312.271 337.404 312.277 337.526 312.28C337.569 312.28 337.61 312.283 337.653 312.286C337.815 312.289 337.98 312.292 338.145 312.292C338.309 312.292 338.471 312.292 338.636 312.286C338.692 312.286 338.748 312.28 338.807 312.28C338.91 312.277 339.012 312.274 339.112 312.268C339.183 312.264 339.252 312.258 339.32 312.252C339.404 312.246 339.488 312.24 339.569 312.236C339.644 312.23 339.718 312.224 339.796 312.215C339.867 312.208 339.939 312.202 340.011 312.193C340.088 312.184 340.163 312.174 340.238 312.165C340.29 312.159 340.343 312.152 340.396 312.146C340.334 311.334 340.241 310.148 340.213 309.811C339.979 307.147 339.124 296.565 338.748 288.612V288.608Z" fill="#0B1A47"/>
<path d="M345.973 309.326C335.797 325.215 335.116 329.489 335.477 330.168C335.838 330.846 336.712 331.453 337.614 330.6C338.516 329.747 346.347 311.577 353.935 306.907C357.428 304.756 362.858 302.113 368.434 299.594C371.13 298.377 432.753 260.003 449.796 249.77C450.9 249.107 451.671 248.005 451.917 246.741C452.162 245.477 451.864 244.164 451.086 243.136C450.735 242.669 450.377 242.202 450.023 241.748C448.58 239.896 445.973 239.453 443.998 240.72C428.442 250.704 366.503 292.114 363.825 293.599C357.222 297.253 350.598 302.1 345.973 309.326Z" fill="#50B1AF"/>
<path d="M344.378 266.727C343.171 266.96 341.877 266.568 341.485 265.855L340.316 263.726V276.247C340.316 276.994 339.29 277.601 338.021 277.601C336.752 277.601 335.725 276.994 335.725 276.247V263.726L334.556 265.855C334.164 266.568 332.87 266.957 331.661 266.727C330.457 266.497 329.795 265.731 330.187 265.018L335.837 254.742C335.872 254.683 335.912 254.623 335.959 254.57C335.965 254.561 335.971 254.552 335.977 254.542C336.04 254.468 336.117 254.402 336.198 254.337C336.22 254.321 336.245 254.306 336.27 254.29C336.332 254.244 336.4 254.2 336.475 254.163C336.509 254.144 336.547 254.125 336.584 254.11C336.655 254.076 336.733 254.044 336.811 254.013C336.848 254.001 336.889 253.985 336.929 253.973C337.05 253.932 337.178 253.898 337.308 253.873C337.424 253.851 337.542 253.833 337.663 253.823C337.747 253.814 337.834 253.814 337.918 253.811C337.952 253.811 337.983 253.808 338.018 253.808C338.049 253.808 338.08 253.811 338.111 253.811C338.198 253.811 338.285 253.814 338.372 253.823C338.493 253.836 338.612 253.851 338.724 253.873H338.73C338.863 253.901 338.985 253.935 339.106 253.973C339.15 253.985 339.187 254.001 339.227 254.016C339.305 254.044 339.38 254.076 339.454 254.11C339.492 254.128 339.529 254.147 339.566 254.166C339.638 254.203 339.706 254.247 339.772 254.293C339.793 254.309 339.821 254.325 339.843 254.343C339.927 254.409 340.002 254.474 340.064 254.549C340.07 254.558 340.076 254.567 340.083 254.577C340.126 254.63 340.17 254.689 340.204 254.748L345.852 265.024C346.244 265.737 345.584 266.503 344.378 266.733V266.727Z" fill="#50B1AF"/>
</g>
<g filter="url(#filter1_d_701_11615)">
<rect x="128" y="50" width="200" height="200" rx="100" fill="white"/>
<path d="M226.261 189.721C226.169 190.652 226.03 191.595 225.828 192.507C225.63 193.395 225.3 194.328 225.545 195.239C226.123 197.396 229.178 197.846 230.472 196.062C231.497 194.646 230.993 193.499 230.631 191.947C230.505 191.41 230.314 188.193 230.302 187.579C230.27 185.798 230.139 181.584 230.118 181.418C230.118 181.418 229.917 179.072 229.805 177.779L227.057 177.809C226.991 179.111 226.864 181.453 226.864 181.453C226.853 181.52 226.408 188.199 226.258 189.716L226.261 189.721Z" fill="#0B1A47"/>
<path d="M201.168 190C201.076 190.931 200.94 191.874 200.736 192.786C200.537 193.674 200.208 194.607 200.452 195.518C201.03 197.677 204.086 198.125 205.38 196.343C206.407 194.928 205.903 193.78 205.539 192.229C205.415 191.691 205.221 188.474 205.21 187.861C205.178 186.079 205.046 181.863 205.026 181.699C205.026 181.699 204.825 179.353 204.712 178.06L201.965 178.09C201.898 179.39 201.772 181.734 201.772 181.734C201.763 181.801 201.316 188.481 201.166 189.997L201.168 190Z" fill="#0B1A47"/>
<path d="M251.356 189.444C251.264 190.375 251.126 191.318 250.924 192.231C250.725 193.118 250.396 194.052 250.64 194.962C251.218 197.122 254.274 197.569 255.568 195.787C256.595 194.372 256.089 193.224 255.727 191.673C255.603 191.136 255.409 187.918 255.4 187.305C255.368 185.523 255.237 181.308 255.216 181.144C255.216 181.144 255.015 178.798 254.905 177.504L252.155 177.534C252.089 178.837 251.962 181.179 251.962 181.179C251.953 181.245 251.506 187.925 251.356 189.444Z" fill="#0B1A47"/>
<path d="M268.36 185.927C268.334 183.56 267.987 179 267.862 177.456C265.617 177.456 260.924 177.497 255.84 177.553L255.395 177.557C255.501 178.816 255.676 180.932 255.685 181.056C255.708 181.25 255.84 185.599 255.87 187.245C255.881 187.904 256.077 191.046 256.187 191.525C256.236 191.731 256.284 191.927 256.335 192.118C256.66 193.393 256.966 194.596 255.962 195.981C255.382 196.781 254.451 197.246 253.413 197.258C251.909 197.274 250.654 196.375 250.292 195.02C250.062 194.165 250.274 193.305 250.461 192.549C250.497 192.394 250.537 192.24 250.571 192.088C250.753 191.267 250.898 190.343 250.995 189.35C251.105 188.236 251.382 184.233 251.515 182.308C251.577 181.397 251.593 181.169 251.6 181.1C251.607 180.941 251.695 178.848 251.748 177.601L251.313 177.606C247.497 177.652 243.806 177.7 241.072 177.739C238.558 177.751 234.779 177.786 230.749 177.832L230.302 177.836C230.408 179.095 230.583 181.211 230.593 181.333C230.616 181.527 230.749 185.876 230.779 187.522C230.791 188.179 230.984 191.323 231.097 191.802C231.145 192.007 231.196 192.203 231.244 192.394C231.569 193.669 231.875 194.872 230.871 196.258C230.291 197.057 229.361 197.523 228.322 197.535C226.818 197.551 225.563 196.652 225.202 195.296C224.972 194.441 225.183 193.582 225.37 192.825C225.409 192.671 225.446 192.517 225.48 192.365C225.662 191.542 225.807 190.62 225.906 189.626C226.017 188.513 226.293 184.509 226.427 182.585C226.489 181.674 226.505 181.448 226.512 181.377C226.519 181.218 226.606 179.125 226.659 177.878L226.224 177.882C222.409 177.928 218.717 177.977 215.984 178.016C213.469 178.028 209.691 178.062 205.661 178.108L205.216 178.113C205.322 179.371 205.497 181.487 205.507 181.61C205.53 181.803 205.661 186.153 205.691 187.798C205.702 188.458 205.898 191.602 206.009 192.079C206.057 192.284 206.105 192.48 206.156 192.671C206.478 193.946 206.787 195.149 205.781 196.534C205.2 197.334 204.272 197.8 203.231 197.811C201.728 197.827 200.473 196.928 200.111 195.573C199.881 194.718 200.093 193.858 200.279 193.102C200.316 192.948 200.355 192.793 200.39 192.641C200.574 191.821 200.717 190.896 200.814 189.903C200.924 188.789 201.2 184.786 201.334 182.861C201.396 181.951 201.412 181.725 201.419 181.653C201.426 181.494 201.514 179.401 201.564 178.154L201.129 178.159C195.932 178.221 190.958 178.288 188.337 178.334C187.948 181.07 187.997 184.094 188.026 186.816C188.079 191.602 187.566 199.289 190.53 202.811C193.044 205.798 263.492 204.922 265.799 201.976C268.638 198.353 268.42 190.71 268.367 185.927H268.36Z" fill="#ED5A61"/>
<path opacity="0.7" d="M268.36 185.927C268.334 183.56 267.987 179 267.862 177.456C265.928 177.456 247.467 177.663 240.734 177.749C235.311 177.797 221.315 177.954 215.641 178.028C209.186 178.083 190.596 178.297 188.33 178.334C187.941 181.07 187.99 184.094 188.02 186.816C188.073 191.602 187.559 199.289 190.523 202.811C193.037 205.798 263.485 204.922 265.792 201.976C268.632 198.353 268.413 190.71 268.36 185.927Z" fill="#ED5A61"/>
<path d="M264.3 175.423C261.818 174.941 257.456 174.679 253.274 174.725C253.122 174.725 227.878 175.008 227.726 175.01C227.574 175.01 207.268 175.234 203.086 175.28C202.937 175.28 193.64 175.695 191.17 176.232C188.699 176.769 188.416 177.79 188.33 178.334C188.261 178.779 188.427 179.812 189.59 180.208C192.008 181.031 202.543 180.999 202.697 180.996C202.849 180.996 252.733 180.443 252.885 180.441C253.037 180.441 253.189 180.439 253.339 180.436C257.735 180.388 263.542 180.164 265.969 179.362C266.934 179.044 267.871 178.205 267.865 177.456C267.855 176.668 266.782 175.905 264.302 175.423H264.3Z" fill="#FFC2C6"/>
<path d="M228.674 163.64H227.304C227.265 168.363 227.336 172.758 227.154 176.958C227.15 177.066 227.122 177.421 227.106 177.829L229.878 177.799C229.846 177.419 229.812 177.094 229.798 176.965C229.754 176.608 229.1 169.769 228.674 163.64Z" fill="#0B1A47"/>
<path d="M203.561 163.64H202.212C202.168 168.469 202.246 172.954 202.06 177.237C202.055 177.345 202.027 177.7 202.011 178.108L204.784 178.078C204.751 177.7 204.715 177.373 204.701 177.244C204.657 176.88 203.985 169.84 203.559 163.64H203.561Z" fill="#0B1A47"/>
<path d="M253.786 163.64H252.393C252.358 168.259 252.425 172.563 252.247 176.682C252.243 176.79 252.215 177.145 252.197 177.553L254.969 177.523C254.937 177.145 254.9 176.818 254.886 176.688C254.843 176.336 254.209 169.697 253.783 163.64H253.786Z" fill="#0B1A47"/>
<path opacity="0.2" d="M231.986 196.442C232.002 197.809 230.906 198.931 229.54 198.945L227.184 198.971C225.819 198.987 224.697 197.889 224.684 196.523L224.327 164.281L231.631 164.2L231.988 196.442H231.986Z" fill="white"/>
<path d="M229.542 199.155L227.187 199.18C225.708 199.196 224.49 198.005 224.474 196.525L224.115 164.073L231.836 163.988L232.195 196.44C232.211 197.919 231.021 199.139 229.542 199.155ZM224.538 164.488L224.893 196.52C224.907 197.77 225.934 198.777 227.182 198.763L229.538 198.738C230.786 198.724 231.792 197.696 231.778 196.444L231.424 164.412L224.538 164.488Z" fill="#A5D0EA"/>
<path d="M233.788 165.931C233.604 166.406 233.151 166.719 232.642 166.726L223.323 166.83C222.839 166.835 222.395 166.558 222.185 166.122L214.213 149.46L240.354 149.068L233.788 165.931Z" fill="#238482"/>
<path d="M240.354 148.678L240.176 97.6464C234.452 96.5077 233.125 95.9384 227.055 96.0052C221.008 96.0721 219.716 96.7682 214.036 98.0221L214.213 149.068L240.354 148.676V148.678Z" fill="#50B1AF"/>
</g>
<g filter="url(#filter2_d_701_11615)">
<rect x="60" y="301" width="154" height="154" rx="77" fill="white"/>
<path d="M178.087 375.831C178.087 396.474 159.693 413.207 137 413.207C114.308 413.207 95.9146 396.474 95.9146 375.831C95.9146 355.188 114.309 338.455 137.002 338.455C159.694 338.455 178.089 355.188 178.089 375.831H178.087Z" fill="#50B1AF"/>
<path d="M137 413.207C115.177 413.207 97.3315 397.729 95.9966 378.183C95.9439 378.962 95.9126 379.745 95.9126 380.535C95.9126 401.178 114.307 417.911 137 417.911C159.692 417.911 178.087 401.176 178.087 380.535C178.087 379.745 178.057 378.96 178.003 378.183C176.668 397.729 158.822 413.207 137 413.207Z" fill="#50B1AF"/>
<path d="M137 413.207C115.177 413.207 97.3315 397.729 95.9966 378.183C95.9439 378.962 95.9126 379.745 95.9126 380.535C95.9126 401.178 114.307 417.911 137 417.911C159.692 417.911 178.087 401.176 178.087 380.535C178.087 379.745 178.057 378.96 178.003 378.183C176.668 397.729 158.822 413.207 137 413.207Z" fill="#238482"/>
<path d="M137 413.207C158.822 413.207 176.668 397.729 178.003 378.183C176.668 358.637 158.822 343.159 137 343.159C115.177 343.159 97.3331 358.639 95.9966 378.185C97.3314 397.73 115.177 413.208 137 413.208V413.207Z" fill="#50B1AF"/>
<path d="M137.223 379.933V384.77L173.478 363.287V358.451L137.223 379.933Z" fill="#238482"/>
<path d="M100.394 359.215V363.659L137.353 384.509V380.064L100.394 359.215Z" fill="#238482"/>
<path d="M173.478 358.451L173.406 358.494C173.429 358.535 173.454 358.576 173.478 358.618V358.451Z" fill="#50B1AF"/>
<path d="M178.088 375.831C178.088 369.622 176.422 363.769 173.477 358.616V363.287L173.458 363.297C176.036 367.801 177.638 372.84 178.004 378.185C178.056 377.406 178.088 376.623 178.088 375.831Z" fill="#238482"/>
<path d="M137 338.455C121.046 338.455 107.215 346.727 100.409 358.816L100.394 359.215L102.418 360.356C109.725 350.013 122.482 343.161 137 343.161C151.519 343.161 163.823 349.771 171.189 359.807L173.406 358.494C166.537 346.582 152.813 338.457 137 338.457V338.455Z" fill="#238482"/>
<path d="M95.9146 375.831C95.9146 376.621 95.9442 377.406 95.9986 378.185C96.3562 372.942 97.9037 367.994 100.395 363.558V359.215L100.41 358.816C97.5362 363.919 95.9146 369.703 95.9146 375.831Z" fill="#238482"/>
<path d="M137.221 380.456C137.133 380.456 137.046 380.435 136.965 380.389L100.138 359.67C99.8858 359.528 99.7968 359.21 99.9385 358.957C100.08 358.705 100.398 358.616 100.65 358.758L137.478 379.476C137.73 379.618 137.819 379.937 137.677 380.189C137.581 380.361 137.404 380.456 137.221 380.456Z" fill="white"/>
<path d="M137.662 413.636C137.377 413.636 137.145 413.406 137.14 413.119L136.7 379.938C136.696 379.65 136.927 379.412 137.216 379.409C137.504 379.409 137.741 379.636 137.745 379.925L138.185 413.105C138.188 413.393 137.957 413.631 137.669 413.634H137.662V413.636Z" fill="white"/>
<path d="M137.222 380.456C137.043 380.456 136.87 380.364 136.772 380.199C136.626 379.95 136.708 379.63 136.957 379.483L172.715 358.319C172.963 358.172 173.283 358.255 173.43 358.504C173.577 358.753 173.494 359.073 173.245 359.22L137.488 380.384C137.404 380.433 137.313 380.456 137.222 380.456Z" fill="white"/>
<path d="M161.389 377.205C161.381 377.185 161.371 377.164 161.362 377.142C161.354 377.121 161.344 377.099 161.336 377.076C161.326 377.053 161.318 377.028 161.308 377.004C161.3 376.984 161.293 376.962 161.285 376.943C161.273 376.913 161.264 376.882 161.254 376.852C161.247 376.834 161.242 376.819 161.236 376.801C161.219 376.753 161.204 376.703 161.189 376.654C161.175 376.604 161.16 376.555 161.147 376.506C161.143 376.492 161.14 376.479 161.137 376.466C161.127 376.43 161.118 376.393 161.109 376.357C161.107 376.349 161.105 376.342 161.102 376.334C161.09 376.281 161.079 376.228 161.067 376.177C160.525 376.303 159.798 376.471 159.798 376.471C159.77 376.474 157.008 377.076 156.376 377.193C155.987 377.264 155.588 377.32 155.194 377.343C154.812 377.367 154.393 377.343 154.052 377.55C153.244 378.038 153.421 379.333 154.296 379.65C154.99 379.902 155.397 379.562 155.983 379.232C156.186 379.118 157.47 378.663 157.717 378.586C158.437 378.363 160.133 377.815 160.197 377.789C160.197 377.789 160.914 377.513 161.437 377.312C161.43 377.297 161.423 377.281 161.417 377.266C161.407 377.245 161.397 377.223 161.387 377.2L161.389 377.205Z" fill="#0B1A47"/>
<path d="M161.715 378.086C161.715 378.086 161.72 378.082 161.722 378.081C161.732 378.073 161.741 378.063 161.75 378.051C161.888 377.863 161.844 377.233 161.631 376.52C161.395 375.738 161.033 375.122 160.815 375.141C160.815 375.138 160.769 375.151 160.771 375.155C160.604 375.244 160.609 375.788 160.764 376.436C160.766 376.443 160.767 376.451 160.771 376.459C160.779 376.494 160.789 376.53 160.799 376.568C160.802 376.581 160.805 376.595 160.809 376.608C160.822 376.656 160.837 376.705 160.852 376.756C160.866 376.806 160.881 376.854 160.898 376.903C160.904 376.921 160.909 376.936 160.916 376.953C160.926 376.982 160.936 377.014 160.947 377.043C160.955 377.063 160.962 377.084 160.97 377.104C160.98 377.129 160.988 377.154 160.998 377.177C161.006 377.2 161.016 377.221 161.025 377.243C161.033 377.264 161.043 377.284 161.051 377.306C161.059 377.329 161.071 377.35 161.081 377.372C161.089 377.39 161.097 377.409 161.105 377.426C161.114 377.447 161.125 377.469 161.135 377.49C161.143 377.507 161.15 377.523 161.158 377.538C161.168 377.56 161.178 377.579 161.189 377.601C161.198 377.616 161.204 377.629 161.212 377.644C161.224 377.664 161.234 377.682 161.245 377.701C161.252 377.715 161.26 377.728 161.267 377.741C161.278 377.759 161.288 377.776 161.3 377.792C161.308 377.804 161.315 377.815 161.323 377.827C161.334 377.842 161.344 377.857 161.354 377.871C161.362 377.883 161.369 377.893 161.377 377.903C161.387 377.916 161.397 377.929 161.407 377.941C161.413 377.951 161.422 377.96 161.43 377.969C161.44 377.979 161.448 377.988 161.458 377.998C161.466 378.007 161.473 378.015 161.481 378.021C161.491 378.03 161.499 378.036 161.507 378.045C161.516 378.051 161.524 378.056 161.532 378.063C161.54 378.069 161.549 378.074 161.555 378.078C161.563 378.082 161.572 378.086 161.58 378.091C161.587 378.094 161.595 378.097 161.601 378.099C161.61 378.102 161.618 378.104 161.624 378.106C161.631 378.106 161.638 378.107 161.644 378.107C161.656 378.107 161.667 378.107 161.677 378.104C161.69 378.101 161.702 378.094 161.712 378.086H161.715Z" fill="#FFC2C6"/>
<path opacity="0.7" d="M161.655 378.109C161.655 378.109 161.649 378.109 161.647 378.109C161.64 378.109 161.634 378.109 161.627 378.107C161.489 378.084 161.341 377.861 161.266 377.741C161.196 377.622 161.136 377.499 161.079 377.371C161.069 377.35 161.059 377.329 161.049 377.306C160.942 377.051 160.846 376.768 160.772 376.459C160.77 376.451 160.769 376.444 160.765 376.436C160.611 375.786 160.606 375.244 160.772 375.154C160.77 375.151 156.065 376.567 153.244 377.414C152.69 377.581 152.377 378.165 152.544 378.719L152.83 379.674C152.999 380.229 153.58 380.542 154.134 380.375C156.98 379.519 158.816 378.967 161.697 378.099C161.697 378.099 161.657 378.109 161.657 378.107L161.655 378.109Z" fill="#ED5A61"/>
<path d="M161.825 375.999C161.758 376.016 161.327 376.119 161.07 376.181C161.08 376.232 161.092 376.283 161.105 376.337C161.107 376.344 161.108 376.352 161.112 376.36C161.12 376.395 161.13 376.433 161.14 376.469C161.143 376.482 161.146 376.496 161.149 376.509C161.163 376.558 161.176 376.608 161.192 376.657C161.207 376.707 161.222 376.755 161.238 376.804C161.243 376.821 161.25 376.837 161.257 376.855C161.266 376.885 161.276 376.916 161.288 376.946C161.294 376.967 161.303 376.987 161.311 377.007C161.321 377.032 161.329 377.056 161.339 377.08C161.347 377.101 161.357 377.124 161.365 377.146C161.374 377.165 161.383 377.188 161.392 377.208C161.4 377.231 161.411 377.253 161.421 377.274C161.428 377.291 161.435 377.306 161.441 377.32C161.68 377.228 162.024 377.093 162.123 377.055C162.69 376.829 164.485 376.124 166.326 375.438C166.268 375.229 166.197 375.021 166.111 374.818C164.618 375.245 163.208 375.663 161.83 376.002L161.825 375.999Z" fill="#0B1A47"/>
<path d="M143.163 394.543C143.183 394.535 143.204 394.527 143.226 394.519C143.247 394.511 143.27 394.502 143.292 394.494C143.315 394.486 143.341 394.476 143.364 394.468C143.384 394.461 143.405 394.453 143.427 394.446C143.456 394.436 143.488 394.426 143.517 394.416C143.536 394.412 143.55 394.405 143.569 394.4C143.616 394.383 143.666 394.37 143.715 394.355C143.765 394.341 143.816 394.327 143.864 394.316C143.877 394.313 143.89 394.309 143.903 394.308C143.939 394.298 143.977 394.289 144.012 394.283C144.02 394.281 144.027 394.278 144.035 394.278C144.088 394.266 144.14 394.256 144.191 394.247C144.076 393.701 143.921 392.971 143.921 392.971C143.92 392.943 143.367 390.167 143.262 389.53C143.198 389.141 143.152 388.74 143.133 388.344C143.117 387.962 143.15 387.544 142.951 387.198C142.476 386.38 141.181 386.533 140.849 387.404C140.584 388.095 140.917 388.508 141.235 389.102C141.345 389.308 141.777 390.601 141.848 390.848C142.057 391.573 142.572 393.278 142.598 393.344C142.598 393.344 142.86 394.067 143.051 394.593C143.066 394.586 143.082 394.58 143.097 394.573C143.119 394.565 143.142 394.555 143.165 394.545L143.163 394.543Z" fill="#0B1A47"/>
<path d="M142.275 394.855C142.275 394.855 142.278 394.86 142.282 394.862C142.288 394.872 142.3 394.882 142.311 394.89C142.496 395.032 143.127 394.999 143.842 394.799C144.628 394.578 145.25 394.227 145.235 394.007C145.24 394.007 145.226 393.961 145.223 393.965C145.136 393.796 144.594 393.791 143.941 393.935C143.934 393.938 143.926 393.938 143.918 393.94C143.883 393.948 143.847 393.958 143.809 393.966C143.796 393.969 143.783 393.971 143.77 393.976C143.72 393.988 143.671 394.002 143.62 394.016C143.57 394.031 143.521 394.044 143.473 394.06C143.457 394.065 143.44 394.07 143.422 394.077C143.392 394.087 143.361 394.095 143.331 394.106C143.31 394.113 143.29 394.121 143.269 394.128C143.244 394.136 143.219 394.146 143.196 394.154C143.173 394.162 143.152 394.171 143.13 394.181C143.109 394.189 143.087 394.197 143.068 394.205C143.045 394.214 143.023 394.223 143.002 394.233C142.982 394.242 142.964 394.248 142.946 394.256C142.924 394.265 142.903 394.275 142.881 394.286C142.865 394.293 142.848 394.301 142.832 394.309C142.811 394.319 142.789 394.329 142.769 394.339C142.756 394.347 142.741 394.354 142.727 394.362C142.707 394.372 142.687 394.382 142.669 394.393C142.656 394.402 142.642 394.408 142.629 394.415C142.613 394.425 142.595 394.435 142.578 394.446C142.567 394.453 142.555 394.461 142.544 394.469C142.527 394.479 142.512 394.489 142.499 394.501C142.488 394.507 142.476 394.515 142.466 394.524C142.453 394.532 142.44 394.542 142.428 394.552C142.418 394.558 142.408 394.567 142.4 394.575C142.389 394.583 142.379 394.591 142.369 394.601C142.361 394.61 142.352 394.618 142.346 394.626C142.338 394.634 142.329 394.642 142.323 394.652C142.316 394.661 142.31 394.669 142.305 394.675C142.298 394.684 142.293 394.692 142.288 394.7C142.283 394.708 142.278 394.715 142.275 394.723C142.272 394.732 142.268 394.738 142.267 394.745C142.263 394.753 142.262 394.76 142.26 394.768C142.26 394.774 142.257 394.781 142.257 394.788C142.257 394.799 142.257 394.811 142.26 394.822C142.263 394.834 142.27 394.847 142.277 394.857L142.275 394.855Z" fill="#FFC2C6"/>
<path opacity="0.7" d="M142.253 394.796C142.253 394.796 142.253 394.789 142.253 394.786C142.253 394.779 142.253 394.773 142.257 394.766C142.281 394.629 142.507 394.482 142.627 394.413C142.748 394.344 142.873 394.286 143 394.232C143.021 394.222 143.043 394.212 143.066 394.204C143.321 394.1 143.606 394.011 143.914 393.941C143.923 393.94 143.929 393.94 143.937 393.936C144.588 393.793 145.132 393.798 145.22 393.966C145.223 393.964 143.895 389.229 143.099 386.391C142.942 385.834 142.365 385.51 141.81 385.666L140.851 385.936C140.294 386.093 139.971 386.67 140.126 387.228C140.93 390.091 141.447 391.939 142.26 394.837C142.26 394.837 142.25 394.798 142.252 394.798L142.253 394.796Z" fill="#ED5A61"/>
<path d="M144.358 395.004C144.343 394.936 144.246 394.502 144.191 394.245C144.14 394.255 144.088 394.265 144.035 394.276C144.027 394.276 144.02 394.28 144.012 394.281C143.977 394.288 143.939 394.298 143.903 394.306C143.89 394.309 143.878 394.313 143.863 394.314C143.814 394.326 143.765 394.339 143.715 394.354C143.664 394.367 143.616 394.382 143.568 394.398C143.55 394.403 143.535 394.41 143.517 394.415C143.488 394.425 143.456 394.435 143.427 394.445C143.407 394.451 143.386 394.459 143.364 394.466C143.339 394.474 143.315 394.484 143.292 394.492C143.27 394.501 143.247 394.509 143.226 394.517C143.204 394.525 143.183 394.534 143.163 394.542C143.14 394.55 143.119 394.562 143.095 394.57C143.081 394.576 143.064 394.583 143.049 394.59C143.137 394.829 143.265 395.179 143.303 395.276C143.529 395.875 144.257 397.839 144.938 399.789C145.129 399.693 145.322 399.596 145.513 399.496C145.096 397.923 144.687 396.444 144.359 395L144.358 395.004Z" fill="#0B1A47"/>
<path d="M156.704 385.675C156.704 385.654 156.704 385.631 156.704 385.608C156.704 385.585 156.704 385.562 156.706 385.537C156.706 385.51 156.706 385.484 156.709 385.459C156.709 385.438 156.709 385.416 156.709 385.393C156.711 385.362 156.714 385.329 156.716 385.298C156.716 385.28 156.718 385.263 156.719 385.245C156.723 385.194 156.728 385.143 156.732 385.092C156.739 385.039 156.744 384.989 156.751 384.938C156.752 384.925 156.754 384.912 156.757 384.898C156.762 384.862 156.767 384.824 156.774 384.788C156.774 384.78 156.775 384.773 156.777 384.765C156.785 384.712 156.795 384.659 156.805 384.608C156.255 384.516 155.521 384.392 155.521 384.392C155.493 384.384 152.711 383.879 152.082 383.742C151.696 383.66 151.306 383.556 150.933 383.427C150.571 383.302 150.195 383.119 149.801 383.178C148.867 383.318 148.534 384.582 149.219 385.21C149.765 385.71 150.271 385.552 150.938 385.474C151.171 385.448 152.53 385.52 152.787 385.545C153.537 385.616 155.312 385.763 155.381 385.761C155.381 385.761 156.149 385.783 156.708 385.798C156.708 385.781 156.708 385.765 156.708 385.748C156.708 385.725 156.706 385.7 156.706 385.675H156.704Z" fill="#0B1A47"/>
<path d="M156.668 386.616C156.668 386.616 156.673 386.616 156.677 386.614C156.688 386.611 156.701 386.606 156.714 386.598C156.914 386.477 157.117 385.878 157.192 385.139C157.275 384.326 157.176 383.618 156.968 383.552C156.97 383.549 156.922 383.544 156.924 383.548C156.736 383.567 156.531 384.07 156.426 384.73C156.426 384.737 156.423 384.745 156.423 384.753C156.416 384.79 156.411 384.826 156.406 384.864C156.405 384.877 156.403 384.89 156.401 384.903C156.395 384.953 156.39 385.006 156.383 385.057C156.378 385.108 156.373 385.159 156.37 385.21C156.37 385.228 156.367 385.247 156.367 385.265C156.363 385.296 156.362 385.329 156.36 385.36C156.36 385.383 156.36 385.405 156.357 385.426C156.357 385.453 156.354 385.479 156.354 385.504C156.354 385.527 156.354 385.552 156.354 385.575C156.354 385.598 156.354 385.621 156.354 385.642C156.354 385.667 156.354 385.69 156.354 385.715C156.354 385.735 156.354 385.756 156.354 385.776C156.354 385.801 156.354 385.824 156.357 385.847C156.357 385.865 156.357 385.883 156.36 385.901C156.36 385.925 156.362 385.948 156.363 385.971C156.367 385.987 156.367 386.002 156.368 386.019C156.37 386.04 156.375 386.063 156.377 386.083C156.38 386.098 156.38 386.113 156.383 386.127C156.386 386.147 156.39 386.167 156.393 386.187C156.396 386.2 156.398 386.215 156.401 386.228C156.405 386.246 156.41 386.264 156.413 386.281C156.416 386.294 156.419 386.306 156.423 386.319C156.426 386.335 156.429 386.35 156.434 386.365C156.438 386.377 156.443 386.388 156.446 386.4C156.451 386.413 156.454 386.426 156.459 386.439C156.464 386.449 156.467 386.461 156.474 386.471C156.479 386.48 156.484 386.492 156.489 386.502C156.494 386.512 156.499 386.52 156.503 386.528C156.51 386.537 156.515 386.545 156.52 386.553C156.527 386.561 156.531 386.568 156.538 386.573C156.543 386.579 156.548 386.584 156.555 386.589C156.561 386.596 156.566 386.599 156.574 386.604C156.581 386.607 156.586 386.611 156.591 386.614C156.602 386.619 156.614 386.622 156.625 386.624C156.637 386.624 156.652 386.624 156.663 386.621L156.668 386.616Z" fill="#FFC2C6"/>
<path opacity="0.7" d="M156.604 386.612C156.604 386.612 156.599 386.609 156.596 386.607C156.591 386.604 156.584 386.601 156.579 386.598C156.461 386.523 156.408 386.259 156.387 386.122C156.367 385.986 156.359 385.847 156.354 385.708C156.354 385.685 156.352 385.661 156.354 385.636C156.352 385.36 156.372 385.062 156.421 384.748C156.421 384.74 156.425 384.734 156.425 384.725C156.53 384.065 156.734 383.562 156.922 383.543C156.922 383.539 152.033 383.036 149.104 382.736C148.531 382.677 148.017 383.096 147.957 383.67L147.857 384.661C147.797 385.237 148.214 385.75 148.789 385.809C151.746 386.113 153.653 386.307 156.644 386.614C156.644 386.614 156.602 386.609 156.604 386.607V386.612Z" fill="#ED5A61"/>
<path d="M157.571 384.73C157.502 384.719 157.065 384.649 156.805 384.607C156.795 384.658 156.785 384.71 156.777 384.763C156.775 384.771 156.774 384.778 156.774 384.786C156.767 384.823 156.762 384.861 156.757 384.897C156.754 384.91 156.754 384.923 156.751 384.936C156.744 384.986 156.738 385.037 156.733 385.09C156.728 385.141 156.723 385.192 156.719 385.243C156.719 385.261 156.718 385.278 156.716 385.296C156.714 385.327 156.711 385.36 156.71 385.392C156.71 385.413 156.71 385.436 156.71 385.458C156.708 385.484 156.708 385.51 156.706 385.535C156.706 385.558 156.706 385.583 156.705 385.606C156.705 385.629 156.705 385.651 156.705 385.674C156.705 385.699 156.706 385.722 156.706 385.746C156.706 385.763 156.706 385.779 156.706 385.796C156.962 385.802 157.332 385.811 157.438 385.814C158.143 385.824 160.615 385.877 162.865 385.974C162.837 385.776 162.809 385.576 162.779 385.379C160.942 385.156 159.211 384.981 157.57 384.73H157.571Z" fill="#0B1A47"/>
<path d="M140.843 348.489C140.843 348.471 140.843 348.453 140.843 348.435C140.843 348.415 140.843 348.397 140.843 348.379C140.843 348.359 140.843 348.337 140.843 348.316C140.843 348.298 140.843 348.281 140.845 348.263C140.845 348.237 140.846 348.212 140.848 348.187C140.848 348.172 140.85 348.159 140.851 348.144C140.853 348.105 140.858 348.064 140.861 348.022C140.865 347.981 140.869 347.94 140.874 347.9C140.874 347.89 140.878 347.879 140.879 347.869C140.884 347.838 140.888 347.808 140.893 347.78C140.893 347.773 140.893 347.767 140.896 347.762C140.902 347.719 140.911 347.678 140.917 347.636C140.477 347.564 139.891 347.466 139.891 347.466C139.867 347.46 137.641 347.061 137.137 346.955C136.827 346.889 136.516 346.808 136.217 346.706C135.927 346.605 135.626 346.46 135.311 346.51C134.564 346.623 134.301 347.635 134.851 348.136C135.288 348.534 135.692 348.407 136.225 348.342C136.41 348.321 137.499 348.375 137.704 348.395C138.304 348.45 139.724 348.562 139.782 348.562C139.782 348.562 140.396 348.577 140.841 348.588C140.841 348.575 140.841 348.562 140.841 348.547C140.841 348.529 140.84 348.509 140.84 348.489H140.843Z" fill="#0B1A47"/>
<path d="M140.72 348.017C140.713 348.039 140.708 348.06 140.701 348.082C140.696 348.105 140.69 348.126 140.685 348.151C140.678 348.176 140.673 348.202 140.667 348.227C140.662 348.248 140.659 348.268 140.652 348.291C140.647 348.323 140.64 348.354 140.634 348.385C140.631 348.403 140.627 348.42 140.624 348.438C140.616 348.488 140.606 348.539 140.598 348.59C140.589 348.641 140.583 348.692 140.576 348.743C140.576 348.756 140.573 348.77 140.571 348.783C140.568 348.821 140.563 348.857 140.56 348.893C140.56 348.902 140.56 348.908 140.558 348.916C140.553 348.971 140.548 349.024 140.545 349.076C139.989 349.025 139.25 348.959 139.25 348.959C139.22 348.959 136.402 348.745 135.757 348.717C135.362 348.699 134.96 348.7 134.566 348.73C134.184 348.76 133.773 348.841 133.407 348.684C132.539 348.313 132.536 347.005 133.358 346.571C134.012 346.226 134.461 346.506 135.087 346.752C135.303 346.836 136.637 347.11 136.893 347.151C137.636 347.272 139.39 347.58 139.459 347.598C139.459 347.598 140.207 347.773 140.751 347.899C140.746 347.915 140.741 347.932 140.738 347.946C140.731 347.97 140.724 347.991 140.718 348.016L140.72 348.017Z" fill="#0B1A47"/>
<path d="M141.097 347.125C141.097 347.125 141.102 347.128 141.105 347.13C141.117 347.137 141.128 347.145 141.138 347.155C141.3 347.321 141.344 347.953 141.232 348.687C141.105 349.495 140.832 350.155 140.614 350.167C140.614 350.17 140.566 350.162 140.57 350.159C140.393 350.093 140.322 349.553 140.387 348.888C140.387 348.88 140.388 348.872 140.388 348.865C140.393 348.829 140.397 348.791 140.401 348.755C140.401 348.742 140.405 348.728 140.406 348.715C140.413 348.666 140.42 348.613 140.428 348.562C140.436 348.511 140.444 348.459 140.453 348.41C140.456 348.392 140.459 348.375 140.462 348.357C140.469 348.324 140.474 348.295 140.481 348.263C140.486 348.242 140.49 348.22 140.495 348.199C140.5 348.172 140.505 348.148 140.512 348.123C140.517 348.1 140.523 348.077 140.53 348.054C140.535 348.032 140.54 348.009 140.548 347.989C140.553 347.966 140.561 347.943 140.566 347.92C140.573 347.9 140.578 347.88 140.583 347.862C140.589 347.839 140.598 347.816 140.604 347.795C140.611 347.777 140.616 347.76 140.621 347.744C140.627 347.72 140.635 347.699 140.644 347.678C140.65 347.663 140.655 347.648 140.662 347.631C140.668 347.61 140.677 347.59 140.685 347.57C140.692 347.557 140.698 347.542 140.703 347.529C140.71 347.509 140.718 347.491 140.728 347.473C140.733 347.46 140.739 347.447 140.746 347.435C140.754 347.419 140.762 347.402 140.771 347.387C140.777 347.376 140.784 347.364 140.789 347.353C140.797 347.338 140.805 347.325 140.813 347.311C140.82 347.3 140.827 347.29 140.833 347.28C140.841 347.268 140.85 347.257 140.856 347.247C140.863 347.239 140.869 347.229 140.878 347.221C140.886 347.212 140.893 347.202 140.901 347.194C140.907 347.186 140.916 347.179 140.922 347.173C140.93 347.166 140.937 347.16 140.945 347.153C140.952 347.148 140.96 347.141 140.967 347.138C140.973 347.133 140.982 347.13 140.988 347.127C140.995 347.123 141.003 347.12 141.01 347.117C141.016 347.115 141.023 347.113 141.029 347.112C141.041 347.112 141.052 347.108 141.064 347.112C141.075 347.113 141.089 347.118 141.1 347.125H141.097Z" fill="#FFC2C6"/>
<path opacity="0.7" d="M141.034 347.112C141.034 347.112 141.028 347.113 141.026 347.113C141.019 347.113 141.013 347.117 141.006 347.118C140.873 347.16 140.756 347.4 140.701 347.531C140.645 347.658 140.604 347.79 140.564 347.922C140.558 347.943 140.551 347.966 140.546 347.991C140.474 348.257 140.419 348.55 140.388 348.867C140.388 348.875 140.388 348.882 140.386 348.89C140.322 349.555 140.393 350.093 140.569 350.16C140.568 350.163 135.713 349.411 132.803 348.961C132.232 348.872 131.84 348.337 131.929 347.767L132.081 346.78C132.17 346.209 132.705 345.819 133.274 345.906C136.212 346.361 138.106 346.655 141.077 347.115L141.036 347.11L141.034 347.112Z" fill="#ED5A61"/>
<path d="M146.88 348.382C146.7 348.359 146.521 348.337 146.338 348.314C144.624 348.1 143.037 347.958 141.536 347.73C141.479 347.722 141.13 347.668 140.921 347.633C140.913 347.674 140.906 347.716 140.899 347.758C140.899 347.765 140.899 347.772 140.896 347.777C140.893 347.805 140.888 347.836 140.883 347.866C140.883 347.876 140.88 347.885 140.878 347.897C140.873 347.937 140.868 347.978 140.865 348.019C140.862 348.06 140.857 348.101 140.855 348.141C140.855 348.156 140.853 348.169 140.852 348.184C140.852 348.209 140.848 348.235 140.848 348.26C140.848 348.278 140.848 348.295 140.847 348.313C140.847 348.332 140.847 348.354 140.847 348.375C140.847 348.395 140.847 348.413 140.847 348.431C140.847 348.45 140.847 348.468 140.847 348.486C140.847 348.506 140.847 348.524 140.848 348.544C140.848 348.557 140.848 348.57 140.848 348.585C141.053 348.59 141.349 348.595 141.435 348.596C142.119 348.605 144.873 348.656 146.873 348.765C146.885 348.634 146.888 348.506 146.883 348.38L146.88 348.382Z" fill="#0B1A47"/>
<path d="M141.466 348.07C141.364 348.044 141.003 347.96 140.754 347.9C140.749 347.917 140.744 347.933 140.741 347.948C140.734 347.971 140.728 347.993 140.721 348.017C140.714 348.039 140.71 348.06 140.703 348.082C140.698 348.105 140.691 348.126 140.686 348.151C140.68 348.176 140.675 348.202 140.668 348.227C140.663 348.248 140.66 348.268 140.654 348.291C140.649 348.323 140.642 348.354 140.635 348.385C140.632 348.403 140.629 348.42 140.625 348.438C140.617 348.487 140.607 348.539 140.599 348.59C140.591 348.641 140.584 348.692 140.578 348.743C140.578 348.756 140.574 348.77 140.573 348.783C140.569 348.821 140.565 348.857 140.561 348.893C140.561 348.902 140.561 348.908 140.56 348.916C140.555 348.971 140.55 349.024 140.546 349.076C140.81 349.099 141.25 349.142 141.319 349.151C143.017 349.327 144.782 349.606 146.674 349.862C146.716 349.674 146.761 349.484 146.796 349.296C144.584 348.819 142.155 348.238 141.466 348.068V348.07Z" fill="#0B1A47"/>
<path d="M152.669 357.661C152.674 357.644 152.679 357.626 152.684 357.608C152.69 357.59 152.694 357.572 152.698 357.554C152.703 357.534 152.708 357.514 152.713 357.492C152.718 357.476 152.722 357.458 152.727 357.441C152.731 357.417 152.736 357.392 152.741 357.367C152.745 357.352 152.748 357.339 152.75 357.326C152.758 357.286 152.766 357.245 152.773 357.205C152.779 357.164 152.786 357.123 152.792 357.083C152.792 357.073 152.794 357.062 152.796 357.052C152.799 357.022 152.804 356.993 152.806 356.963C152.806 356.956 152.807 356.951 152.809 356.945C152.814 356.902 152.817 356.859 152.82 356.818C153.264 356.866 153.855 356.927 153.855 356.927C153.878 356.927 156.131 357.135 156.645 357.164C156.96 357.182 157.283 357.187 157.6 357.168C157.904 357.148 158.236 357.088 158.526 357.219C159.216 357.527 159.203 358.573 158.539 358.911C158.012 359.178 157.656 358.949 157.156 358.745C156.985 358.674 155.922 358.438 155.716 358.401C155.124 358.296 153.725 358.027 153.669 358.012C153.669 358.012 153.073 357.864 152.639 357.756C152.644 357.743 152.647 357.73 152.651 357.718C152.657 357.7 152.662 357.682 152.667 357.662L152.669 357.661Z" fill="#0B1A47"/>
<path d="M152.914 357.238C152.914 357.26 152.914 357.283 152.914 357.306C152.914 357.329 152.914 357.354 152.913 357.377C152.913 357.403 152.911 357.43 152.909 357.455C152.909 357.476 152.909 357.497 152.906 357.521C152.904 357.552 152.901 357.583 152.899 357.616C152.898 357.634 152.898 357.651 152.895 357.669C152.89 357.72 152.886 357.771 152.88 357.822C152.873 357.874 152.867 357.925 152.86 357.974C152.858 357.987 152.857 358.001 152.853 358.014C152.847 358.052 152.842 358.088 152.835 358.124C152.835 358.133 152.834 358.139 152.83 358.147C152.822 358.2 152.81 358.253 152.802 358.304C153.349 358.403 154.083 358.537 154.083 358.537C154.111 358.545 156.884 359.086 157.512 359.231C157.899 359.32 158.287 359.427 158.659 359.561C159.02 359.691 159.394 359.879 159.79 359.825C160.724 359.696 161.075 358.438 160.396 357.799C159.857 357.293 159.35 357.445 158.681 357.514C158.45 357.537 157.09 357.448 156.833 357.42C156.085 357.339 154.312 357.171 154.241 357.171C154.241 357.171 153.473 357.14 152.916 357.116C152.916 357.133 152.916 357.149 152.916 357.168V357.24L152.914 357.238Z" fill="#0B1A47"/>
<path d="M152.787 356.278C152.787 356.278 152.78 356.28 152.779 356.282C152.767 356.285 152.754 356.29 152.741 356.298C152.541 356.415 152.331 357.012 152.245 357.75C152.151 358.561 152.24 359.271 152.448 359.34C152.446 359.343 152.494 359.348 152.494 359.345C152.682 359.328 152.891 358.827 153.006 358.169C153.006 358.162 153.01 358.154 153.01 358.146C153.016 358.109 153.021 358.071 153.028 358.035C153.029 358.022 153.033 358.009 153.034 357.996C153.041 357.946 153.047 357.895 153.054 357.844C153.061 357.791 153.066 357.742 153.069 357.69C153.069 357.672 153.072 357.656 153.072 357.638C153.075 357.606 153.079 357.573 153.08 357.542C153.08 357.521 153.082 357.497 153.084 357.476C153.084 357.45 153.085 357.423 153.087 357.398C153.087 357.374 153.087 357.351 153.087 357.328C153.087 357.304 153.087 357.281 153.087 357.26C153.087 357.235 153.087 357.212 153.087 357.187C153.087 357.168 153.087 357.146 153.087 357.126C153.087 357.102 153.087 357.078 153.084 357.055C153.084 357.037 153.082 357.019 153.082 357.001C153.08 356.978 153.079 356.955 153.075 356.932C153.075 356.915 153.074 356.899 153.072 356.884C153.07 356.862 153.067 356.841 153.066 356.819C153.064 356.805 153.062 356.79 153.059 356.775C153.056 356.755 153.054 356.734 153.049 356.714C153.049 356.701 153.046 356.686 153.042 356.673C153.039 356.655 153.036 356.636 153.033 356.618C153.029 356.605 153.026 356.592 153.023 356.58C153.019 356.564 153.014 356.549 153.011 356.534C153.008 356.523 153.005 356.509 153 356.499C152.995 356.486 152.991 356.473 152.985 356.46C152.982 356.45 152.977 356.438 152.972 356.429C152.967 356.417 152.962 356.407 152.957 356.397C152.952 356.387 152.947 356.379 152.942 356.371C152.935 356.363 152.93 356.354 152.925 356.346C152.921 356.338 152.914 356.331 152.909 356.325C152.902 356.32 152.897 356.313 152.893 356.308C152.886 356.302 152.879 356.298 152.873 356.293C152.866 356.29 152.861 356.287 152.855 356.283C152.845 356.278 152.833 356.275 152.822 356.273C152.81 356.273 152.797 356.273 152.784 356.277L152.787 356.278Z" fill="#FFC2C6"/>
<path opacity="0.7" d="M152.85 356.282C152.85 356.282 152.855 356.285 152.858 356.287C152.864 356.29 152.869 356.293 152.876 356.297C152.993 356.372 153.042 356.636 153.061 356.775C153.08 356.912 153.087 357.05 153.089 357.187C153.089 357.21 153.089 357.235 153.089 357.26C153.087 357.535 153.062 357.834 153.009 358.147C153.009 358.156 153.006 358.162 153.006 358.17C152.891 358.829 152.682 359.33 152.494 359.347C152.494 359.35 157.375 359.914 160.3 360.252C160.874 360.318 161.393 359.906 161.46 359.332L161.574 358.34C161.64 357.766 161.23 357.247 160.654 357.181C157.701 356.839 155.799 356.62 152.81 356.275C152.81 356.275 152.851 356.282 152.85 356.283V356.282Z" fill="#ED5A61"/>
<path d="M152.204 356.747C150.694 356.565 149.127 356.282 147.418 356.034C147.347 356.024 147.28 356.014 147.211 356.003C147.206 356.141 147.192 356.278 147.174 356.414C149.081 356.841 151.456 357.448 152.075 357.61C152.158 357.631 152.445 357.705 152.642 357.755C152.647 357.742 152.651 357.728 152.654 357.717C152.66 357.699 152.665 357.681 152.67 357.661C152.675 357.644 152.68 357.626 152.685 357.608C152.692 357.59 152.695 357.572 152.7 357.554C152.705 357.534 152.71 357.514 152.715 357.492C152.72 357.476 152.723 357.458 152.728 357.441C152.733 357.417 152.738 357.392 152.743 357.367C152.746 357.352 152.749 357.339 152.751 357.326C152.759 357.286 152.768 357.245 152.774 357.205C152.781 357.164 152.787 357.123 152.794 357.083C152.794 357.073 152.796 357.062 152.797 357.052C152.8 357.022 152.805 356.993 152.807 356.963C152.807 356.956 152.809 356.951 152.81 356.945C152.815 356.902 152.819 356.859 152.822 356.818C152.613 356.795 152.26 356.755 152.206 356.749L152.204 356.747Z" fill="#0B1A47"/>
<path d="M152.913 357.116C152.659 357.106 152.286 357.093 152.181 357.09C151.51 357.07 149.243 356.994 147.09 356.879C147.049 357.075 147.003 357.273 146.958 357.473C148.747 357.71 150.432 357.905 152.034 358.172C152.103 358.184 152.54 358.26 152.801 358.306C152.81 358.255 152.82 358.202 152.829 358.149C152.832 358.141 152.832 358.134 152.834 358.126C152.84 358.09 152.845 358.052 152.852 358.015C152.855 358.002 152.857 357.989 152.858 357.976C152.865 357.926 152.871 357.875 152.878 357.824C152.885 357.773 152.89 357.722 152.893 357.671C152.896 357.652 152.896 357.636 152.898 357.618C152.899 357.587 152.903 357.554 152.904 357.522C152.906 357.501 152.906 357.478 152.908 357.456C152.909 357.43 152.911 357.403 152.911 357.379C152.911 357.356 152.911 357.331 152.913 357.308C152.913 357.286 152.913 357.263 152.913 357.24V357.168C152.913 357.149 152.913 357.133 152.913 357.116Z" fill="#0B1A47"/>
<path d="M137.353 364.015C137.353 363.997 137.353 363.979 137.353 363.96V363.904C137.354 363.885 137.356 363.863 137.356 363.842C137.356 363.824 137.356 363.807 137.356 363.789C137.356 363.763 137.356 363.738 137.353 363.713V363.67C137.351 363.629 137.349 363.588 137.346 363.546C137.344 363.505 137.341 363.464 137.338 363.423C137.338 363.413 137.335 363.401 137.335 363.391C137.331 363.362 137.328 363.332 137.325 363.302C137.325 363.296 137.323 363.289 137.321 363.284C137.316 363.241 137.31 363.198 137.303 363.157C137.747 363.099 138.335 363.024 138.335 363.024C138.358 363.017 140.596 362.697 141.103 362.608C141.415 362.553 141.73 362.482 142.031 362.39C142.325 362.301 142.631 362.166 142.944 362.225C143.686 362.365 143.915 363.385 143.348 363.868C142.898 364.251 142.498 364.109 141.965 364.026C141.782 363.998 140.693 364.015 140.485 364.026C139.884 364.061 138.46 364.124 138.406 364.122C138.406 364.122 137.791 364.116 137.344 364.112C137.346 364.099 137.346 364.086 137.348 364.073C137.348 364.053 137.351 364.035 137.351 364.015H137.353Z" fill="#0B1A47"/>
<path d="M137.492 363.55C137.497 363.571 137.502 363.593 137.507 363.616C137.512 363.639 137.517 363.66 137.522 363.685C137.527 363.71 137.532 363.736 137.537 363.763C137.542 363.784 137.545 363.805 137.548 363.827C137.553 363.858 137.558 363.89 137.563 363.921C137.567 363.939 137.57 363.956 137.572 363.974C137.58 364.023 137.586 364.074 137.593 364.125C137.6 364.178 137.604 364.229 137.608 364.279C137.608 364.292 137.611 364.305 137.611 364.32C137.614 364.358 137.618 364.394 137.619 364.431C137.619 364.439 137.619 364.445 137.619 364.454C137.623 364.508 137.624 364.561 137.628 364.614C138.183 364.582 138.926 364.543 138.926 364.543C138.956 364.543 141.78 364.427 142.423 364.421C142.819 364.417 143.221 364.432 143.615 364.475C143.995 364.518 144.402 364.614 144.773 364.469C145.655 364.127 145.703 362.821 144.895 362.357C144.254 361.991 143.794 362.255 143.16 362.478C142.941 362.555 141.598 362.783 141.34 362.814C140.592 362.91 138.829 363.157 138.761 363.172C138.761 363.172 138.008 363.319 137.459 363.428C137.463 363.444 137.468 363.461 137.471 363.477C137.478 363.5 137.483 363.522 137.489 363.546L137.492 363.55Z" fill="#0B1A47"/>
<path d="M137.147 362.644C137.147 362.644 137.142 362.647 137.14 362.649C137.129 362.656 137.117 362.664 137.107 362.674C136.939 362.835 136.873 363.464 136.962 364.201C137.059 365.013 137.31 365.683 137.527 365.701C137.527 365.704 137.573 365.699 137.572 365.696C137.751 365.635 137.84 365.099 137.799 364.434C137.799 364.426 137.799 364.417 137.798 364.411C137.796 364.375 137.793 364.337 137.789 364.3C137.789 364.287 137.788 364.274 137.786 364.259C137.781 364.21 137.775 364.158 137.77 364.106C137.763 364.054 137.756 364.003 137.748 363.954C137.745 363.936 137.743 363.919 137.74 363.901C137.735 363.87 137.73 363.838 137.725 363.807C137.722 363.786 137.717 363.764 137.712 363.743C137.707 363.716 137.702 363.692 137.699 363.665C137.694 363.642 137.689 363.619 137.684 363.596C137.679 363.574 137.676 363.551 137.669 363.53C137.664 363.505 137.657 363.484 137.653 363.461C137.648 363.441 137.643 363.421 137.638 363.403C137.631 363.38 137.625 363.357 137.618 363.334C137.613 363.315 137.61 363.299 137.603 363.281C137.597 363.258 137.588 363.238 137.582 363.215C137.577 363.2 137.572 363.184 137.567 363.169C137.559 363.149 137.552 363.127 137.544 363.108C137.539 363.093 137.534 363.078 137.529 363.065C137.522 363.045 137.514 363.027 137.506 363.009C137.501 362.995 137.494 362.982 137.489 362.971C137.481 362.953 137.473 362.938 137.466 362.921C137.46 362.91 137.455 362.898 137.448 362.887C137.442 362.872 137.433 362.859 137.425 362.845C137.419 362.834 137.412 362.824 137.407 362.812C137.399 362.801 137.392 362.789 137.384 362.778C137.377 362.768 137.371 362.76 137.364 362.75C137.356 362.74 137.349 362.73 137.341 362.722C137.334 362.713 137.328 362.707 137.321 362.7C137.315 362.694 137.306 362.687 137.3 362.68C137.293 362.674 137.285 362.669 137.278 362.664C137.272 362.661 137.265 362.656 137.259 362.652C137.25 362.647 137.244 362.646 137.236 362.642C137.229 362.639 137.222 362.637 137.216 362.637C137.204 362.634 137.194 362.634 137.183 362.636C137.17 362.636 137.158 362.641 137.145 362.647L137.147 362.644Z" fill="#FFC2C6"/>
<path opacity="0.7" d="M137.209 362.633C137.209 362.633 137.214 362.636 137.217 362.636C137.224 362.636 137.232 362.639 137.237 362.641C137.369 362.687 137.478 362.933 137.529 363.063C137.578 363.192 137.616 363.325 137.651 363.459C137.656 363.482 137.662 363.505 137.667 363.528C137.73 363.797 137.774 364.092 137.796 364.409C137.796 364.417 137.796 364.424 137.797 364.432C137.839 365.099 137.75 365.635 137.57 365.694C137.572 365.697 142.451 365.114 145.375 364.764C145.948 364.696 146.359 364.173 146.289 363.601L146.171 362.611C146.103 362.037 145.583 361.628 145.009 361.696C142.058 362.049 140.154 362.278 137.168 362.634C137.168 362.634 137.209 362.631 137.209 362.633Z" fill="#ED5A61"/>
<path d="M137.356 363.791C137.356 363.764 137.356 363.739 137.352 363.715V363.672C137.351 363.631 137.349 363.589 137.346 363.548C137.344 363.507 137.341 363.466 137.338 363.424C137.338 363.414 137.334 363.403 137.334 363.393C137.331 363.363 137.328 363.334 137.324 363.304C137.324 363.297 137.323 363.291 137.321 363.286C137.316 363.243 137.31 363.2 137.303 363.159C137.094 363.185 136.741 363.228 136.687 363.235C135.175 363.41 133.585 363.495 131.866 363.65C131.255 363.705 130.665 363.756 130.095 363.815C130.111 363.919 130.129 364.022 130.149 364.122C132.028 364.023 135.927 364.086 136.759 364.102C136.845 364.104 137.141 364.109 137.344 364.111C137.346 364.097 137.346 364.084 137.347 364.071C137.347 364.051 137.351 364.033 137.351 364.013C137.351 363.995 137.351 363.977 137.351 363.959V363.903C137.352 363.883 137.354 363.861 137.354 363.84C137.354 363.822 137.354 363.805 137.354 363.787L137.356 363.791Z" fill="#0B1A47"/>
<path d="M137.621 364.454C137.621 364.454 137.621 364.439 137.621 364.431C137.62 364.394 137.615 364.356 137.613 364.32C137.613 364.307 137.611 364.294 137.61 364.279C137.605 364.229 137.6 364.177 137.595 364.125C137.588 364.074 137.582 364.023 137.574 363.974C137.57 363.956 137.569 363.939 137.565 363.921C137.56 363.89 137.555 363.858 137.551 363.827C137.547 363.804 137.542 363.784 137.539 363.763C137.534 363.736 137.531 363.711 137.524 363.685C137.519 363.662 137.514 363.639 137.509 363.616C137.504 363.593 137.499 363.571 137.494 363.55C137.488 363.525 137.483 363.502 137.476 363.48C137.473 363.464 137.468 363.447 137.465 363.431C137.214 363.48 136.85 363.553 136.746 363.574C135.936 363.744 132.737 364.393 130.29 364.807C130.326 364.968 130.36 365.132 130.395 365.295C130.542 365.282 130.688 365.267 130.837 365.254C132.986 365.049 134.96 364.794 136.855 364.663C136.926 364.658 137.368 364.63 137.631 364.615C137.628 364.563 137.628 364.51 137.623 364.455L137.621 364.454Z" fill="#0B1A47"/>
<path d="M125.848 355.028C125.842 355.012 125.837 354.995 125.828 354.979C125.822 354.96 125.817 354.944 125.81 354.926C125.804 354.906 125.797 354.886 125.79 354.866C125.786 354.85 125.781 354.833 125.774 354.817C125.766 354.794 125.759 354.769 125.753 354.744C125.748 354.73 125.744 354.718 125.741 354.703C125.73 354.664 125.718 354.624 125.708 354.584C125.697 354.543 125.687 354.504 125.678 354.464C125.675 354.454 125.673 354.442 125.672 354.433C125.664 354.403 125.659 354.373 125.652 354.345C125.652 354.339 125.652 354.334 125.649 354.327C125.639 354.284 125.632 354.243 125.626 354.202C125.189 354.287 124.604 354.401 124.604 354.401C124.581 354.401 122.354 354.805 121.845 354.88C121.532 354.926 121.212 354.957 120.896 354.965C120.589 354.972 120.257 354.941 119.978 355.096C119.317 355.462 119.421 356.503 120.112 356.782C120.66 357.003 120.995 356.742 121.473 356.496C121.638 356.41 122.677 356.084 122.879 356.029C123.46 355.873 124.83 355.483 124.882 355.464C124.882 355.464 125.464 355.264 125.886 355.119C125.879 355.106 125.876 355.094 125.871 355.081C125.865 355.063 125.856 355.046 125.85 355.028H125.848Z" fill="#0B1A47"/>
<path d="M125.568 354.629C125.57 354.65 125.571 354.673 125.575 354.697C125.578 354.72 125.579 354.743 125.583 354.767C125.586 354.792 125.589 354.819 125.593 354.845C125.596 354.866 125.599 354.888 125.601 354.909C125.606 354.941 125.611 354.972 125.616 355.003C125.619 355.021 125.621 355.038 125.624 355.056C125.632 355.106 125.642 355.157 125.654 355.206C125.664 355.257 125.675 355.309 125.687 355.356C125.69 355.37 125.693 355.383 125.696 355.396C125.705 355.432 125.715 355.469 125.723 355.505C125.723 355.511 125.726 355.52 125.729 355.526C125.743 355.579 125.757 355.63 125.772 355.68C125.235 355.826 124.518 356.021 124.518 356.021C124.49 356.031 121.773 356.811 121.16 357.009C120.782 357.13 120.406 357.271 120.047 357.436C119.7 357.598 119.342 357.817 118.945 357.798C118.002 357.752 117.544 356.526 118.165 355.833C118.656 355.282 119.177 355.389 119.849 355.401C120.08 355.406 121.428 355.198 121.682 355.147C122.42 355.002 124.172 354.68 124.243 354.673C124.243 354.673 125.004 354.576 125.56 354.505L125.563 354.556C125.563 354.579 125.566 354.602 125.57 354.627L125.568 354.629Z" fill="#0B1A47"/>
<path d="M125.611 353.662C125.611 353.662 125.618 353.662 125.62 353.662C125.631 353.666 125.646 353.669 125.657 353.675C125.868 353.774 126.129 354.352 126.277 355.079C126.44 355.881 126.412 356.595 126.213 356.681C126.214 356.684 126.167 356.692 126.168 356.689C125.979 356.689 125.727 356.208 125.557 355.563C125.555 355.554 125.552 355.548 125.55 355.539C125.54 355.503 125.532 355.467 125.524 355.431C125.521 355.417 125.517 355.404 125.514 355.391C125.503 355.341 125.493 355.292 125.481 355.241C125.471 355.19 125.461 355.14 125.453 355.089C125.45 355.071 125.446 355.054 125.445 355.036C125.438 355.005 125.435 354.974 125.43 354.942C125.427 354.921 125.423 354.898 125.422 354.876C125.418 354.85 125.415 354.824 125.41 354.799C125.407 354.776 125.405 354.753 125.404 354.728C125.4 354.706 125.399 354.683 125.397 354.66C125.394 354.635 125.394 354.612 125.39 354.589C125.39 354.569 125.387 354.548 125.385 354.528C125.384 354.505 125.382 354.48 125.382 354.457C125.382 354.439 125.381 354.421 125.379 354.403C125.379 354.38 125.379 354.357 125.379 354.334C125.379 354.317 125.379 354.301 125.379 354.286C125.379 354.263 125.379 354.241 125.381 354.22C125.381 354.205 125.381 354.19 125.381 354.175C125.381 354.155 125.384 354.134 125.385 354.114C125.385 354.101 125.389 354.086 125.389 354.073C125.389 354.055 125.394 354.037 125.395 354.019C125.399 354.005 125.399 353.992 125.402 353.981C125.404 353.964 125.407 353.948 125.41 353.933C125.414 353.92 125.417 353.908 125.418 353.896C125.422 353.882 125.425 353.87 125.428 353.857C125.432 353.845 125.435 353.835 125.44 353.824C125.443 353.812 125.448 353.801 125.451 353.791C125.455 353.781 125.46 353.771 125.465 353.763C125.47 353.755 125.473 353.745 125.478 353.738C125.483 353.73 125.488 353.723 125.493 353.715C125.499 353.708 125.504 353.702 125.507 353.697C125.514 353.69 125.521 353.685 125.526 353.68C125.531 353.675 125.535 353.672 125.542 353.669C125.552 353.662 125.562 353.657 125.573 353.656C125.587 353.652 125.6 353.652 125.611 353.656V353.662Z" fill="#FFC2C6"/>
<path opacity="0.7" d="M125.548 353.669C125.548 353.669 125.545 353.674 125.542 353.674C125.535 353.677 125.53 353.68 125.525 353.685C125.415 353.771 125.388 354.038 125.38 354.179C125.374 354.317 125.38 354.454 125.388 354.593C125.39 354.616 125.392 354.64 125.395 354.664C125.42 354.937 125.471 355.233 125.552 355.539C125.552 355.546 125.556 355.554 125.558 355.563C125.73 356.208 125.982 356.689 126.17 356.689C126.17 356.692 121.356 357.679 118.47 358.269C117.905 358.385 117.351 358.02 117.236 357.453L117.036 356.476C116.921 355.909 117.285 355.356 117.852 355.241C120.764 354.645 122.641 354.261 125.589 353.659C125.589 353.659 125.548 353.669 125.55 353.669H125.548Z" fill="#ED5A61"/>
<path d="M130.939 352.951C129.258 353.347 127.72 353.766 126.232 354.076C126.178 354.088 125.83 354.159 125.623 354.198C125.629 354.24 125.637 354.281 125.646 354.324C125.646 354.33 125.646 354.335 125.649 354.342C125.656 354.372 125.66 354.401 125.669 354.429C125.67 354.439 125.672 354.451 125.675 354.461C125.684 354.5 125.695 354.54 125.705 354.581C125.715 354.621 125.726 354.66 125.738 354.7C125.741 354.713 125.746 354.726 125.749 354.741C125.756 354.766 125.763 354.791 125.771 354.814C125.777 354.832 125.782 354.847 125.787 354.863C125.794 354.883 125.802 354.903 125.807 354.923C125.814 354.941 125.82 354.957 125.825 354.975C125.832 354.992 125.838 355.01 125.845 355.025C125.852 355.043 125.86 355.061 125.866 355.078C125.871 355.091 125.875 355.102 125.881 355.116C126.074 355.05 126.354 354.951 126.435 354.923C127.045 354.706 129.406 353.877 131.282 353.284C131.221 353.159 131.161 353.034 131.105 352.908C131.049 352.922 130.993 352.935 130.936 352.948L130.939 352.951Z" fill="#0B1A47"/>
<path d="M126.285 354.418C126.18 354.429 125.811 354.475 125.559 354.507L125.562 354.558C125.562 354.581 125.565 354.604 125.568 354.629C125.57 354.65 125.572 354.673 125.575 354.697C125.578 354.72 125.58 354.743 125.583 354.767C125.587 354.792 125.59 354.819 125.593 354.845C125.596 354.866 125.6 354.888 125.601 354.909C125.606 354.941 125.611 354.972 125.616 355.003C125.62 355.021 125.621 355.038 125.625 355.056C125.633 355.106 125.643 355.157 125.654 355.206C125.664 355.257 125.676 355.309 125.687 355.356C125.69 355.37 125.694 355.383 125.697 355.396C125.705 355.432 125.715 355.469 125.723 355.505C125.723 355.511 125.727 355.52 125.73 355.526C125.743 355.579 125.758 355.63 125.773 355.68C126.028 355.61 126.455 355.498 126.524 355.48C128.181 355.054 129.937 354.7 131.806 354.279C131.709 354.099 131.61 353.918 131.514 353.736C129.328 354.05 126.969 354.335 126.284 354.414L126.285 354.418Z" fill="#0B1A47"/>
<path d="M112.654 377.373C112.667 377.362 112.679 377.348 112.694 377.337C112.707 377.324 112.722 377.31 112.735 377.297C112.75 377.282 112.765 377.268 112.779 377.253C112.793 377.241 112.804 377.228 112.816 377.216C112.834 377.198 112.85 377.18 112.868 377.16C112.878 377.15 112.888 377.141 112.898 377.129C112.926 377.099 112.953 377.068 112.981 377.038C113.009 377.007 113.035 376.976 113.06 376.944C113.066 376.936 113.073 376.928 113.079 376.919C113.099 376.896 113.117 376.872 113.135 376.85C113.14 376.845 113.144 376.84 113.147 376.835C113.173 376.801 113.2 376.768 113.223 376.733C113.577 377.004 114.05 377.367 114.05 377.367C114.07 377.378 115.884 378.731 116.306 379.026C116.567 379.207 116.838 379.379 117.119 379.527C117.389 379.671 117.702 379.791 117.882 380.054C118.31 380.677 117.753 381.561 117.011 381.504C116.423 381.457 116.239 381.076 115.921 380.641C115.81 380.492 115.026 379.735 114.869 379.597C114.419 379.198 113.365 378.238 113.327 378.196C113.327 378.196 112.893 377.757 112.58 377.441L112.61 377.414C112.625 377.401 112.638 377.39 112.653 377.376L112.654 377.373Z" fill="#0B1A47"/>
<path d="M112.175 378.015C112.191 377.998 112.206 377.982 112.221 377.967C112.238 377.95 112.254 377.934 112.269 377.916C112.285 377.896 112.303 377.878 112.32 377.858C112.335 377.842 112.35 377.825 112.364 377.809C112.384 377.784 112.406 377.761 112.427 377.734C112.439 377.721 112.45 377.708 112.462 377.693C112.493 377.654 112.526 377.614 112.557 377.574C112.589 377.533 112.62 377.492 112.65 377.451C112.658 377.439 112.666 377.429 112.673 377.419C112.696 377.388 112.717 377.358 112.737 377.327C112.742 377.32 112.745 377.314 112.75 377.307C112.78 377.263 112.809 377.218 112.839 377.174C113.299 377.489 113.914 377.908 113.914 377.908C113.938 377.921 116.295 379.486 116.844 379.824C117.18 380.032 117.531 380.227 117.89 380.393C118.238 380.555 118.637 380.682 118.879 380.999C119.456 381.748 118.821 382.889 117.892 382.868C117.153 382.85 116.896 382.385 116.47 381.865C116.323 381.685 115.291 380.794 115.089 380.634C114.499 380.166 113.118 379.041 113.068 378.991C113.068 378.991 112.498 378.475 112.086 378.097C112.097 378.086 112.109 378.074 112.122 378.063C112.139 378.046 112.155 378.03 112.173 378.011L112.175 378.015Z" fill="#0B1A47"/>
<path d="M111.845 378.508C111.855 378.495 111.865 378.483 111.876 378.472C111.886 378.459 111.898 378.447 111.909 378.434C111.921 378.421 111.932 378.407 111.944 378.393C111.954 378.381 111.964 378.369 111.974 378.358C111.987 378.341 112 378.323 112.015 378.305C112.021 378.295 112.03 378.285 112.036 378.275C112.058 378.247 112.079 378.218 112.101 378.19C112.122 378.16 112.142 378.13 112.162 378.101C112.166 378.092 112.171 378.086 112.176 378.077C112.191 378.054 112.204 378.033 112.219 378.011C112.222 378.007 112.224 378.002 112.227 377.997C112.247 377.965 112.267 377.932 112.285 377.901C112.616 378.107 113.06 378.381 113.06 378.381C113.078 378.389 114.774 379.412 115.167 379.631C115.408 379.767 115.662 379.892 115.917 379.998C116.166 380.098 116.448 380.177 116.628 380.39C117.054 380.897 116.646 381.715 115.995 381.728C115.477 381.738 115.284 381.421 114.97 381.07C114.861 380.949 114.111 380.357 113.966 380.252C113.539 379.943 112.539 379.198 112.503 379.165C112.503 379.165 112.089 378.821 111.789 378.571C111.797 378.562 111.804 378.553 111.814 378.544C111.825 378.533 111.837 378.52 111.848 378.508H111.845Z" fill="#0B1A47"/>
<path d="M113.474 376.256C113.474 376.256 113.467 376.255 113.465 376.253C113.454 376.25 113.439 376.246 113.424 376.246C113.192 376.242 112.702 376.642 112.244 377.226C111.741 377.87 111.448 378.523 111.59 378.689C111.588 378.693 111.626 378.721 111.626 378.718C111.794 378.8 112.236 378.483 112.676 377.982C112.681 377.975 112.686 377.97 112.692 377.964C112.715 377.936 112.74 377.908 112.763 377.878C112.773 377.868 112.781 377.858 112.79 377.847C112.821 377.807 112.854 377.767 112.885 377.726C112.916 377.685 112.948 377.645 112.979 377.604C112.989 377.589 112.999 377.574 113.01 377.56C113.029 377.533 113.048 377.508 113.066 377.482C113.08 377.464 113.091 377.446 113.103 377.428C113.116 377.406 113.132 377.385 113.147 377.363C113.16 377.343 113.172 377.324 113.185 377.304C113.197 377.286 113.21 377.266 113.221 377.248C113.235 377.228 113.246 377.207 113.258 377.185C113.268 377.167 113.279 377.15 113.289 377.134C113.3 377.112 113.312 377.093 113.324 377.071C113.332 377.055 113.342 377.04 113.35 377.023C113.361 377.004 113.371 376.984 113.383 376.962C113.389 376.948 113.398 376.933 113.404 376.919C113.414 376.9 113.422 376.88 113.432 376.86C113.439 376.847 113.444 376.832 113.45 376.819C113.459 376.801 113.467 376.783 113.474 376.763C113.478 376.75 113.485 376.736 113.488 376.723C113.495 376.705 113.502 376.689 113.506 376.672C113.511 376.661 113.515 376.647 113.52 376.634C113.525 376.619 113.528 376.603 113.533 376.588C113.536 376.576 113.539 376.563 113.543 376.553C113.546 376.538 113.548 376.525 113.551 376.512C113.551 376.501 113.554 376.489 113.556 376.479C113.556 376.468 113.558 376.456 113.559 376.444C113.559 376.435 113.559 376.423 113.559 376.415C113.559 376.405 113.559 376.395 113.559 376.387C113.559 376.377 113.559 376.369 113.556 376.359C113.556 376.352 113.553 376.342 113.549 376.336C113.548 376.327 113.543 376.321 113.541 376.314C113.538 376.307 113.534 376.301 113.531 376.296C113.525 376.286 113.516 376.276 113.508 376.27C113.498 376.261 113.487 376.255 113.474 376.251V376.256Z" fill="#FFC2C6"/>
<path opacity="0.7" d="M113.526 376.291C113.526 376.291 113.53 376.298 113.531 376.299C113.535 376.304 113.538 376.309 113.541 376.317C113.602 376.443 113.507 376.694 113.451 376.822C113.396 376.949 113.33 377.071 113.259 377.19C113.248 377.21 113.236 377.231 113.223 377.253C113.078 377.487 112.902 377.728 112.694 377.967C112.688 377.972 112.683 377.979 112.678 377.985C112.238 378.487 111.796 378.803 111.628 378.721C111.628 378.724 115.497 381.753 117.818 383.567C118.274 383.925 118.93 383.843 119.286 383.387L119.899 382.601C120.255 382.145 120.174 381.487 119.718 381.131C117.376 379.298 115.867 378.117 113.497 376.265C113.497 376.265 113.528 376.291 113.526 376.291Z" fill="#ED5A61"/>
<path d="M112.732 376.35C111.539 375.409 110.349 374.348 109.019 373.244C108.798 373.061 108.582 372.881 108.366 372.703C108.296 372.804 108.225 372.903 108.154 373.003C109.619 374.392 111.676 376.505 112.168 377.017C112.228 377.078 112.435 377.291 112.579 377.437L112.608 377.411C112.623 377.398 112.636 377.386 112.651 377.373C112.664 377.362 112.676 377.348 112.691 377.337C112.704 377.324 112.719 377.31 112.732 377.297C112.747 377.282 112.762 377.268 112.776 377.253C112.79 377.241 112.801 377.228 112.813 377.216C112.831 377.198 112.847 377.18 112.865 377.16C112.875 377.15 112.885 377.141 112.895 377.129C112.923 377.099 112.949 377.068 112.977 377.038C113.005 377.007 113.032 376.976 113.057 376.944C113.063 376.936 113.07 376.928 113.076 376.92C113.096 376.896 113.114 376.872 113.132 376.85C113.137 376.845 113.141 376.84 113.144 376.835C113.17 376.801 113.197 376.768 113.22 376.733C113.053 376.604 112.773 376.387 112.73 376.352L112.732 376.35Z" fill="#0B1A47"/>
<path d="M112.203 376.731C110.795 375.74 109.377 374.623 107.834 373.464C107.724 373.62 107.612 373.777 107.5 373.935C109.195 375.43 111.029 377.121 111.549 377.604C111.626 377.677 111.9 377.927 112.089 378.099C112.101 378.087 112.112 378.076 112.125 378.064C112.142 378.048 112.158 378.031 112.176 378.013C112.193 377.997 112.208 377.98 112.223 377.965C112.239 377.949 112.256 377.932 112.27 377.914C112.287 377.894 112.305 377.876 112.321 377.856C112.336 377.84 112.351 377.823 112.366 377.807C112.386 377.782 112.407 377.759 112.429 377.733C112.44 377.72 112.452 377.706 112.463 377.692C112.495 377.652 112.527 377.612 112.559 377.573C112.59 377.531 112.621 377.49 112.651 377.449C112.659 377.437 112.668 377.428 112.674 377.418C112.697 377.386 112.719 377.357 112.738 377.325C112.743 377.319 112.747 377.312 112.752 377.305C112.781 377.261 112.811 377.216 112.841 377.172C112.623 377.023 112.259 376.771 112.201 376.73L112.203 376.731Z" fill="#0B1A47"/>
<path d="M111.827 377.611C110.708 376.893 109.579 376.072 108.328 375.225C107.921 374.95 107.527 374.683 107.142 374.429C107.087 374.503 107.033 374.577 106.977 374.65C108.327 375.648 110.853 377.777 111.395 378.241C111.451 378.289 111.651 378.457 111.787 378.571C111.796 378.562 111.802 378.553 111.812 378.544C111.824 378.533 111.835 378.52 111.847 378.508C111.857 378.495 111.867 378.483 111.878 378.472C111.888 378.459 111.9 378.447 111.911 378.434C111.923 378.421 111.934 378.407 111.946 378.393C111.956 378.381 111.965 378.369 111.975 378.358C111.989 378.341 112.002 378.323 112.017 378.305C112.023 378.295 112.031 378.285 112.038 378.275C112.059 378.247 112.081 378.218 112.102 378.19C112.124 378.16 112.143 378.13 112.163 378.101C112.168 378.092 112.173 378.086 112.178 378.077C112.193 378.054 112.206 378.033 112.221 378.012C112.224 378.007 112.226 378.002 112.229 377.997C112.249 377.965 112.269 377.932 112.287 377.901C112.13 377.804 111.868 377.639 111.827 377.611Z" fill="#0B1A47"/>
<path d="M120.087 398.064C120.078 398.047 120.07 398.032 120.062 398.016C120.054 397.999 120.045 397.983 120.037 397.965C120.029 397.947 120.019 397.927 120.011 397.907C120.003 397.892 119.996 397.876 119.989 397.859C119.979 397.836 119.97 397.811 119.96 397.788C119.955 397.775 119.948 397.762 119.943 397.749C119.927 397.711 119.912 397.673 119.897 397.635C119.882 397.595 119.867 397.557 119.854 397.519C119.851 397.509 119.848 397.5 119.844 397.49C119.834 397.462 119.826 397.432 119.815 397.406C119.815 397.399 119.811 397.394 119.81 397.387C119.797 397.346 119.783 397.305 119.773 397.265C119.347 397.397 118.778 397.574 118.778 397.574C118.755 397.579 116.585 398.22 116.087 398.349C115.78 398.43 115.466 398.496 115.153 398.539C114.848 398.58 114.515 398.583 114.254 398.768C113.638 399.205 113.854 400.228 114.571 400.429C115.139 400.589 115.443 400.296 115.893 399.997C116.047 399.895 117.046 399.456 117.239 399.382C117.801 399.162 119.121 398.626 119.17 398.601C119.17 398.601 119.727 398.339 120.131 398.149C120.124 398.138 120.12 398.126 120.113 398.113C120.105 398.097 120.095 398.08 120.087 398.062V398.064Z" fill="#0B1A47"/>
<path d="M120.314 398.831C120.306 398.811 120.296 398.79 120.287 398.768C120.279 398.747 120.269 398.725 120.261 398.702C120.251 398.679 120.241 398.654 120.231 398.63C120.223 398.61 120.215 398.59 120.207 398.568C120.197 398.539 120.185 398.509 120.175 398.479C120.169 398.463 120.162 398.446 120.156 398.43C120.139 398.382 120.123 398.334 120.106 398.285C120.091 398.235 120.077 398.186 120.062 398.136C120.057 398.123 120.053 398.112 120.05 398.098C120.039 398.062 120.03 398.026 120.02 397.989C120.017 397.981 120.017 397.975 120.014 397.966C120.001 397.914 119.989 397.862 119.978 397.811C119.437 397.948 118.715 398.128 118.715 398.128C118.687 398.133 115.935 398.786 115.304 398.915C114.917 398.994 114.52 399.055 114.126 399.088C113.743 399.119 113.326 399.101 112.989 399.314C112.189 399.817 112.389 401.109 113.27 401.411C113.969 401.648 114.371 401.302 114.951 400.962C115.151 400.845 116.428 400.365 116.672 400.284C117.387 400.048 119.071 399.469 119.136 399.441C119.136 399.441 119.849 399.152 120.365 398.943C120.358 398.928 120.35 398.912 120.345 398.897C120.335 398.875 120.325 398.854 120.315 398.831H120.314Z" fill="#0B1A47"/>
<path d="M120.454 399.408C120.447 399.393 120.442 399.378 120.438 399.364C120.431 399.349 120.426 399.334 120.421 399.317C120.414 399.301 120.408 399.283 120.403 399.266C120.4 399.251 120.393 399.238 120.388 399.223C120.382 399.202 120.375 399.18 120.368 399.159C120.365 399.147 120.362 399.136 120.357 399.123C120.345 399.088 120.337 399.055 120.327 399.02C120.317 398.986 120.307 398.951 120.301 398.917C120.297 398.907 120.296 398.898 120.294 398.89C120.289 398.864 120.283 398.837 120.276 398.813C120.276 398.806 120.276 398.801 120.274 398.796C120.266 398.76 120.26 398.722 120.251 398.686C119.871 398.765 119.36 398.869 119.36 398.869C119.34 398.87 117.395 399.243 116.95 399.314C116.677 399.357 116.397 399.388 116.12 399.398C115.851 399.408 115.56 399.383 115.317 399.522C114.744 399.849 114.843 400.759 115.449 400.995C115.932 401.183 116.222 400.952 116.639 400.733C116.782 400.657 117.69 400.362 117.863 400.312C118.369 400.17 119.566 399.817 119.612 399.799C119.612 399.799 120.118 399.619 120.487 399.489C120.484 399.479 120.479 399.468 120.472 399.456C120.467 399.441 120.461 399.425 120.454 399.41V399.408Z" fill="#0B1A47"/>
<path d="M119.704 396.732C119.704 396.732 119.711 396.732 119.712 396.732C119.726 396.732 119.739 396.736 119.752 396.741C119.973 396.817 120.294 397.363 120.52 398.069C120.769 398.847 120.818 399.56 120.629 399.669C120.63 399.672 120.584 399.687 120.584 399.682C120.398 399.702 120.093 399.251 119.854 398.628C119.851 398.621 119.848 398.613 119.846 398.606C119.833 398.572 119.82 398.537 119.808 398.501C119.803 398.489 119.798 398.476 119.793 398.463C119.775 398.415 119.76 398.366 119.744 398.316C119.727 398.267 119.712 398.217 119.698 398.169C119.693 398.151 119.689 398.135 119.683 398.118C119.675 398.087 119.666 398.057 119.658 398.026C119.651 398.004 119.647 397.983 119.642 397.961C119.635 397.937 119.628 397.91 119.623 397.886C119.617 397.862 119.614 397.839 119.607 397.816C119.602 397.795 119.597 397.772 119.594 397.75C119.587 397.727 119.586 397.702 119.581 397.679C119.577 397.66 119.572 397.64 119.569 397.62C119.564 397.595 119.561 397.572 119.558 397.549C119.554 397.531 119.551 397.513 119.549 397.495C119.546 397.471 119.543 397.448 119.541 397.425C119.541 397.409 119.538 397.394 119.536 397.377C119.533 397.356 119.533 397.333 119.53 397.311C119.53 397.297 119.526 397.282 119.526 397.267C119.526 397.247 119.523 397.226 119.523 397.206C119.523 397.191 119.523 397.178 119.523 397.165C119.523 397.145 119.523 397.128 119.523 397.11C119.523 397.097 119.523 397.084 119.523 397.071C119.523 397.054 119.526 397.038 119.526 397.023C119.526 397.01 119.53 396.998 119.53 396.987C119.531 396.972 119.533 396.958 119.536 396.945C119.538 396.934 119.539 396.922 119.543 396.912C119.546 396.901 119.549 396.889 119.551 396.878C119.554 396.868 119.558 396.858 119.561 396.848C119.564 396.838 119.569 396.83 119.572 396.822C119.576 396.813 119.581 396.805 119.584 396.797C119.587 396.79 119.592 396.784 119.597 396.777C119.602 396.77 119.607 396.765 119.614 396.759C119.619 396.754 119.623 396.749 119.628 396.746C119.638 396.737 119.648 396.732 119.66 396.729C119.671 396.726 119.684 396.724 119.698 396.724L119.704 396.732Z" fill="#FFC2C6"/>
<path opacity="0.7" d="M119.642 396.747C119.642 396.747 119.637 396.752 119.633 396.754C119.629 396.757 119.624 396.761 119.619 396.767C119.518 396.864 119.521 397.132 119.53 397.272C119.538 397.41 119.558 397.547 119.582 397.683C119.587 397.706 119.591 397.729 119.596 397.754C119.652 398.024 119.732 398.311 119.846 398.608C119.849 398.615 119.851 398.623 119.854 398.629C120.095 399.253 120.398 399.703 120.584 399.684C120.584 399.687 115.907 401.191 113.104 402.09C112.554 402.268 111.965 401.965 111.789 401.414L111.484 400.464C111.308 399.913 111.611 399.324 112.162 399.147C114.991 398.239 116.817 397.653 119.68 396.732L119.642 396.747Z" fill="#ED5A61"/>
<path d="M124.922 395.447C123.293 396.023 121.812 396.607 120.367 397.077C120.314 397.095 119.976 397.203 119.775 397.265C119.786 397.307 119.798 397.346 119.811 397.387C119.811 397.394 119.814 397.399 119.816 397.406C119.826 397.434 119.836 397.462 119.846 397.49C119.849 397.5 119.852 397.509 119.856 397.519C119.869 397.557 119.884 397.597 119.899 397.635C119.913 397.673 119.928 397.711 119.945 397.749C119.95 397.762 119.956 397.775 119.961 397.788C119.971 397.811 119.981 397.834 119.991 397.859C119.997 397.876 120.004 397.89 120.012 397.907C120.02 397.927 120.03 397.945 120.039 397.965C120.047 397.981 120.057 397.998 120.063 398.016C120.072 398.032 120.08 398.049 120.088 398.064C120.096 398.082 120.106 398.098 120.114 398.115C120.121 398.126 120.126 398.138 120.133 398.151C120.317 398.064 120.586 397.937 120.662 397.899C121.26 397.608 123.621 396.478 125.441 395.682C125.37 395.566 125.301 395.451 125.226 395.339C125.126 395.375 125.024 395.41 124.922 395.447Z" fill="#0B1A47"/>
<path d="M120.729 397.618C120.661 397.636 120.233 397.749 119.978 397.813C119.989 397.864 120.002 397.915 120.014 397.968C120.017 397.976 120.017 397.983 120.02 397.991C120.029 398.027 120.039 398.064 120.05 398.1C120.053 398.113 120.057 398.125 120.062 398.138C120.075 398.187 120.091 398.237 120.106 398.286C120.123 398.336 120.139 398.384 120.156 398.432C120.162 398.448 120.169 398.465 120.175 398.481C120.185 398.512 120.197 398.542 120.207 398.57C120.215 398.592 120.223 398.611 120.231 398.631C120.24 398.656 120.251 398.681 120.261 398.704C120.269 398.727 120.279 398.748 120.287 398.77C120.296 398.79 120.305 398.811 120.314 398.832C120.324 398.856 120.334 398.875 120.343 398.898C120.35 398.913 120.358 398.93 120.363 398.945C120.599 398.849 120.943 398.707 121.042 398.666C121.685 398.397 123.918 397.473 125.993 396.668C125.904 396.492 125.806 396.315 125.709 396.14C123.956 396.67 122.318 397.198 120.729 397.622V397.618Z" fill="#0B1A47"/>
<path d="M124.889 397.544C123.422 397.907 122.08 398.288 120.782 398.573C120.734 398.585 120.431 398.649 120.25 398.686C120.256 398.722 120.263 398.758 120.273 398.796C120.273 398.801 120.273 398.806 120.274 398.813C120.281 398.837 120.287 398.864 120.292 398.89C120.294 398.898 120.296 398.907 120.299 398.917C120.307 398.951 120.317 398.986 120.325 399.02C120.335 399.055 120.343 399.09 120.355 399.123C120.358 399.134 120.362 399.146 120.367 399.159C120.373 399.18 120.38 399.202 120.386 399.223C120.391 399.238 120.398 399.251 120.401 399.266C120.408 399.284 120.413 399.301 120.419 399.317C120.424 399.334 120.431 399.349 120.436 399.364C120.441 399.378 120.447 399.393 120.452 399.408C120.459 399.423 120.465 399.439 120.47 399.454C120.477 399.464 120.48 399.476 120.485 399.487C120.653 399.428 120.897 399.339 120.968 399.312C121.64 399.063 124.763 397.933 126.37 397.467C126.332 397.381 126.294 397.297 126.255 397.211C125.811 397.315 125.357 397.427 124.887 397.542L124.889 397.544Z" fill="#0B1A47"/>
<path d="M155.696 394.728C155.685 394.746 155.672 394.766 155.658 394.784C155.645 394.804 155.632 394.822 155.617 394.842C155.604 394.864 155.586 394.883 155.571 394.905C155.558 394.923 155.545 394.939 155.532 394.958C155.513 394.982 155.492 395.007 155.472 395.033C155.461 395.048 155.451 395.061 155.438 395.075C155.406 395.114 155.373 395.154 155.34 395.193C155.307 395.233 155.273 395.271 155.238 395.309C155.228 395.319 155.22 395.329 155.21 395.339C155.185 395.367 155.161 395.395 155.134 395.421C155.128 395.428 155.125 395.433 155.118 395.438C155.08 395.477 155.042 395.515 155.006 395.551C155.406 395.941 155.94 396.459 155.94 396.459C155.958 396.48 157.962 398.478 158.404 398.948C158.674 399.237 158.936 399.542 159.172 399.86C159.399 400.17 159.604 400.533 159.965 400.71C160.812 401.125 161.804 400.274 161.596 399.367C161.43 398.646 160.924 398.489 160.33 398.173C160.126 398.064 159.047 397.231 158.849 397.064C158.272 396.579 156.894 395.451 156.835 395.411C156.835 395.411 156.215 394.958 155.764 394.628C155.756 394.641 155.746 394.656 155.738 394.671C155.724 394.69 155.711 394.71 155.698 394.73L155.696 394.728Z" fill="#0B1A47"/>
<path d="M156.26 393.974C156.26 393.974 156.255 393.973 156.251 393.971C156.24 393.968 156.225 393.965 156.212 393.963C155.979 393.95 155.474 394.327 154.991 394.892C154.462 395.513 154.142 396.153 154.275 396.325C154.272 396.327 154.308 396.358 154.31 396.355C154.476 396.445 154.93 396.147 155.391 395.665C155.396 395.66 155.401 395.654 155.406 395.649C155.432 395.622 155.457 395.594 155.482 395.566C155.49 395.556 155.5 395.546 155.508 395.537C155.543 395.499 155.576 395.461 155.609 395.421C155.643 395.382 155.675 395.342 155.708 395.302C155.719 395.289 155.727 395.274 155.74 395.259C155.76 395.235 155.78 395.21 155.8 395.185C155.813 395.167 155.826 395.151 155.839 395.132C155.854 395.111 155.871 395.09 155.886 395.07C155.899 395.05 155.912 395.032 155.927 395.012C155.94 394.994 155.953 394.976 155.965 394.956C155.978 394.936 155.991 394.916 156.004 394.897C156.016 394.88 156.026 394.862 156.037 394.845C156.05 394.826 156.062 394.806 156.073 394.784C156.083 394.77 156.093 394.755 156.101 394.738C156.113 394.718 156.124 394.699 156.136 394.677C156.144 394.664 156.152 394.649 156.159 394.634C156.169 394.614 156.18 394.595 156.19 394.577C156.197 394.563 156.205 394.55 156.212 394.537C156.22 394.517 156.23 394.501 156.237 394.482C156.241 394.469 156.248 394.456 156.253 394.445C156.261 394.426 156.268 394.41 156.274 394.393C156.279 394.38 156.284 394.369 156.288 394.357C156.294 394.342 156.297 394.327 156.302 394.313C156.306 394.301 156.311 394.289 156.314 394.278C156.317 394.265 156.321 394.252 156.324 394.238C156.326 394.227 156.329 394.217 156.33 394.205C156.332 394.194 156.334 394.182 156.335 394.171C156.335 394.161 156.337 394.151 156.337 394.141C156.337 394.131 156.337 394.121 156.337 394.113C156.337 394.103 156.337 394.093 156.334 394.085C156.334 394.077 156.33 394.068 156.329 394.062C156.327 394.054 156.324 394.047 156.321 394.039C156.319 394.032 156.316 394.027 156.312 394.021C156.306 394.011 156.299 394.001 156.291 393.994C156.281 393.986 156.269 393.979 156.256 393.974H156.26Z" fill="#FFC2C6"/>
<path opacity="0.7" d="M156.31 394.012C156.31 394.012 156.312 394.019 156.314 394.021C156.317 394.027 156.32 394.032 156.322 394.039C156.378 394.167 156.272 394.413 156.212 394.54C156.151 394.664 156.08 394.783 156.004 394.898C155.991 394.918 155.978 394.938 155.964 394.958C155.809 395.185 155.622 395.419 155.404 395.65C155.397 395.657 155.394 395.662 155.389 395.667C154.928 396.149 154.475 396.447 154.308 396.356C154.308 396.36 158.046 399.552 160.287 401.463C160.727 401.838 161.388 401.787 161.762 401.346L162.408 400.588C162.782 400.147 162.731 399.487 162.291 399.111C160.028 397.181 158.57 395.937 156.282 393.984L156.312 394.012H156.31Z" fill="#ED5A61"/>
<path d="M155.17 394.197C154.643 393.821 152.908 392.569 151.238 391.314C151.192 391.541 151.136 391.771 151.07 391.998C152.26 393.044 153.397 394.022 154.449 395.014C154.498 395.061 154.819 395.368 155.009 395.551C155.047 395.515 155.085 395.477 155.121 395.438C155.126 395.433 155.131 395.426 155.138 395.421C155.164 395.395 155.187 395.367 155.213 395.339C155.223 395.329 155.231 395.319 155.241 395.309C155.274 395.271 155.309 395.233 155.344 395.193C155.376 395.154 155.409 395.114 155.441 395.075C155.452 395.061 155.464 395.047 155.475 395.033C155.495 395.009 155.515 394.984 155.535 394.958C155.548 394.939 155.561 394.923 155.574 394.905C155.589 394.883 155.607 394.864 155.62 394.842C155.635 394.822 155.648 394.804 155.662 394.784C155.675 394.766 155.688 394.748 155.699 394.728C155.714 394.708 155.726 394.687 155.739 394.669C155.749 394.654 155.757 394.641 155.765 394.626C155.559 394.476 155.259 394.258 155.172 394.197H155.17Z" fill="#0B1A47"/>
<path d="M118.631 386.81C118.636 386.794 118.641 386.776 118.646 386.759C118.651 386.741 118.658 386.723 118.661 386.705C118.668 386.685 118.673 386.665 118.678 386.644C118.682 386.627 118.687 386.611 118.691 386.593C118.697 386.568 118.702 386.543 118.709 386.518C118.712 386.505 118.715 386.49 118.719 386.477C118.727 386.438 118.737 386.398 118.743 386.357C118.752 386.315 118.76 386.276 118.767 386.235C118.767 386.225 118.77 386.213 118.771 386.203C118.776 386.174 118.78 386.144 118.786 386.116C118.786 386.109 118.788 386.103 118.788 386.098C118.795 386.055 118.8 386.012 118.803 385.971C119.244 386.027 119.834 386.103 119.834 386.103C119.857 386.103 122.105 386.362 122.618 386.403C122.933 386.429 123.256 386.441 123.572 386.429C123.879 386.416 124.208 386.363 124.497 386.5C125.179 386.824 125.141 387.869 124.47 388.191C123.938 388.447 123.587 388.209 123.094 387.993C122.923 387.919 121.865 387.66 121.662 387.619C121.072 387.5 119.678 387.2 119.625 387.183C119.625 387.183 119.03 387.021 118.6 386.904C118.605 386.891 118.608 386.878 118.612 386.866C118.618 386.848 118.623 386.83 118.63 386.812L118.631 386.81Z" fill="#0B1A47"/>
<path d="M118.539 387.605C118.546 387.584 118.551 387.561 118.556 387.539C118.561 387.516 118.566 387.493 118.571 387.47C118.577 387.445 118.582 387.421 118.587 387.394C118.592 387.373 118.595 387.351 118.6 387.33C118.607 387.299 118.612 387.267 118.617 387.236C118.62 387.218 118.623 387.201 118.627 387.183C118.635 387.134 118.643 387.083 118.65 387.031C118.656 386.98 118.663 386.929 118.668 386.878C118.67 386.865 118.671 386.852 118.673 386.838C118.676 386.8 118.68 386.762 118.683 386.726C118.683 386.718 118.683 386.711 118.683 386.703C118.688 386.649 118.691 386.596 118.694 386.543C119.25 386.584 119.993 386.637 119.993 386.637C120.021 386.637 122.844 386.805 123.488 386.824C123.884 386.835 124.286 386.827 124.68 386.791C125.062 386.754 125.471 386.665 125.84 386.817C126.715 387.175 126.74 388.481 125.924 388.93C125.276 389.285 124.822 389.013 124.19 388.777C123.974 388.696 122.635 388.443 122.379 388.405C121.634 388.297 119.876 388.018 119.808 388C119.808 388 119.057 387.838 118.51 387.721C118.515 387.706 118.52 387.69 118.523 387.673C118.528 387.65 118.534 387.629 118.541 387.604L118.539 387.605Z" fill="#0B1A47"/>
<path d="M118.501 388.198C118.505 388.181 118.508 388.166 118.509 388.15C118.513 388.133 118.516 388.118 118.518 388.1C118.521 388.082 118.524 388.066 118.526 388.046C118.528 388.031 118.531 388.016 118.533 388.001C118.536 387.98 118.539 387.957 118.542 387.935C118.544 387.922 118.546 387.911 118.547 387.897C118.552 387.863 118.556 387.826 118.559 387.79C118.562 387.754 118.565 387.718 118.569 387.683C118.569 387.673 118.569 387.665 118.569 387.655C118.569 387.629 118.572 387.602 118.574 387.576C118.574 387.571 118.574 387.564 118.574 387.559C118.575 387.521 118.577 387.485 118.577 387.447C118.966 387.459 119.487 387.473 119.487 387.473C119.506 387.473 121.486 387.503 121.937 387.497C122.214 387.492 122.494 387.473 122.768 387.437C123.033 387.399 123.317 387.325 123.579 387.421C124.2 387.643 124.259 388.557 123.702 388.895C123.259 389.164 122.934 388.986 122.486 388.843C122.331 388.793 121.387 388.658 121.207 388.64C120.683 388.587 119.444 388.445 119.396 388.435C119.396 388.435 118.865 388.346 118.481 388.28C118.485 388.269 118.486 388.257 118.49 388.245C118.493 388.229 118.496 388.212 118.5 388.198H118.501Z" fill="#0B1A47"/>
<path d="M118.78 385.431C118.78 385.431 118.773 385.431 118.771 385.433C118.76 385.436 118.745 385.441 118.733 385.448C118.531 385.562 118.307 386.154 118.206 386.888C118.094 387.698 118.168 388.409 118.372 388.483C118.372 388.486 118.42 388.493 118.419 388.49C118.606 388.476 118.827 387.98 118.958 387.325C118.959 387.318 118.961 387.31 118.962 387.302C118.969 387.266 118.976 387.228 118.981 387.191C118.984 387.178 118.987 387.165 118.987 387.152C118.997 387.102 119.004 387.051 119.01 386.998C119.018 386.947 119.025 386.896 119.03 386.847C119.03 386.828 119.033 386.812 119.035 386.794C119.038 386.762 119.042 386.73 119.043 386.698C119.045 386.677 119.046 386.654 119.048 386.632C119.048 386.606 119.051 386.579 119.053 386.555C119.055 386.532 119.056 386.507 119.056 386.484C119.056 386.462 119.06 386.439 119.06 386.416C119.06 386.391 119.06 386.368 119.06 386.344C119.06 386.324 119.06 386.302 119.06 386.282C119.06 386.259 119.06 386.235 119.06 386.212C119.06 386.193 119.06 386.175 119.06 386.157C119.06 386.134 119.058 386.111 119.056 386.088C119.056 386.071 119.056 386.055 119.053 386.04C119.051 386.017 119.05 385.995 119.046 385.974C119.046 385.959 119.043 385.944 119.042 385.929C119.038 385.91 119.037 385.888 119.033 385.87C119.033 385.857 119.03 385.842 119.027 385.829C119.023 385.809 119.02 385.793 119.017 385.774C119.014 385.761 119.01 385.748 119.009 385.735C119.005 385.718 119 385.703 118.997 385.689C118.994 385.675 118.99 385.664 118.987 385.654C118.984 385.641 118.979 385.628 118.974 385.614C118.969 385.604 118.966 385.593 118.962 385.583C118.958 385.572 118.953 385.562 118.948 385.552C118.944 385.542 118.938 385.534 118.933 385.525C118.928 385.517 118.923 385.509 118.918 385.502C118.911 385.494 118.908 385.487 118.901 385.481C118.897 385.474 118.892 385.469 118.885 385.464C118.878 385.458 118.872 385.453 118.867 385.449C118.86 385.446 118.855 385.443 118.849 385.44C118.839 385.435 118.827 385.43 118.816 385.428C118.804 385.426 118.789 385.428 118.778 385.43L118.78 385.431Z" fill="#FFC2C6"/>
<path opacity="0.7" d="M118.844 385.435C118.844 385.435 118.849 385.438 118.85 385.44C118.857 385.443 118.862 385.446 118.869 385.449C118.984 385.529 119.027 385.793 119.043 385.933C119.06 386.07 119.063 386.208 119.061 386.347C119.061 386.37 119.061 386.395 119.061 386.419C119.053 386.695 119.02 386.992 118.961 387.304C118.959 387.312 118.958 387.318 118.956 387.327C118.827 387.982 118.605 388.478 118.417 388.491C118.417 388.495 123.283 389.169 126.202 389.572C126.774 389.651 127.301 389.25 127.38 388.678L127.517 387.69C127.596 387.117 127.197 386.589 126.624 386.51C123.679 386.103 121.781 385.84 118.803 385.428L118.842 385.436L118.844 385.435Z" fill="#ED5A61"/>
<path d="M118.186 385.887C116.682 385.672 115.121 385.352 113.419 385.067C113.251 385.039 113.083 385.011 112.918 384.983C112.882 385.106 112.847 385.232 112.814 385.355C114.76 385.827 117.384 386.561 118.036 386.748C118.119 386.771 118.406 386.852 118.602 386.904C118.607 386.891 118.61 386.878 118.613 386.866C118.62 386.848 118.625 386.83 118.631 386.812C118.636 386.795 118.641 386.777 118.646 386.761C118.651 386.743 118.658 386.725 118.661 386.706C118.668 386.687 118.673 386.667 118.677 386.645C118.682 386.629 118.687 386.612 118.691 386.594C118.697 386.569 118.702 386.545 118.709 386.52C118.712 386.507 118.715 386.492 118.719 386.479C118.727 386.439 118.737 386.4 118.743 386.358C118.752 386.317 118.76 386.278 118.766 386.236C118.766 386.226 118.77 386.215 118.771 386.205C118.776 386.175 118.78 386.146 118.786 386.118C118.786 386.111 118.788 386.104 118.788 386.099C118.794 386.056 118.799 386.014 118.803 385.972C118.592 385.944 118.242 385.896 118.186 385.888V385.887Z" fill="#0B1A47"/>
<path d="M117.922 386.482C116.259 386.337 114.53 386.094 112.681 385.873C112.633 386.066 112.585 386.258 112.538 386.446C114.731 386.881 117.111 387.411 117.793 387.567C117.897 387.591 118.259 387.671 118.508 387.724C118.513 387.709 118.518 387.693 118.521 387.676C118.526 387.653 118.533 387.632 118.54 387.607C118.546 387.586 118.551 387.563 118.556 387.541C118.561 387.518 118.566 387.495 118.571 387.472C118.577 387.447 118.582 387.422 118.587 387.396C118.592 387.374 118.596 387.353 118.6 387.332C118.607 387.3 118.612 387.269 118.617 387.238C118.62 387.219 118.624 387.203 118.627 387.185C118.635 387.135 118.643 387.084 118.65 387.033C118.657 386.982 118.663 386.931 118.668 386.88C118.67 386.866 118.671 386.853 118.673 386.84C118.676 386.802 118.68 386.764 118.683 386.728C118.683 386.72 118.683 386.713 118.683 386.705C118.688 386.65 118.691 386.598 118.694 386.545C118.431 386.525 117.989 386.489 117.92 386.482H117.922Z" fill="#0B1A47"/>
<path d="M118.579 387.449C118.394 387.444 118.084 387.432 118.035 387.429C116.707 387.371 115.321 387.228 113.813 387.124C113.319 387.089 112.841 387.056 112.374 387.03C112.346 387.12 112.318 387.21 112.289 387.297C113.935 387.475 117.265 388.061 117.979 388.189C118.052 388.203 118.309 388.247 118.485 388.277C118.488 388.265 118.49 388.254 118.493 388.242C118.496 388.226 118.5 388.209 118.503 388.194C118.506 388.178 118.51 388.163 118.511 388.147C118.515 388.13 118.518 388.115 118.52 388.097C118.523 388.079 118.526 388.062 118.528 388.043C118.529 388.028 118.533 388.013 118.534 387.998C118.538 387.977 118.541 387.954 118.544 387.932C118.546 387.919 118.548 387.907 118.549 387.894C118.554 387.859 118.557 387.823 118.561 387.787C118.564 387.751 118.567 387.714 118.571 387.68C118.571 387.67 118.571 387.662 118.571 387.652C118.571 387.625 118.574 387.599 118.576 387.572C118.576 387.568 118.576 387.561 118.576 387.556C118.577 387.518 118.579 387.482 118.579 387.444V387.449Z" fill="#0B1A47"/>
<path opacity="0.4" d="M99.6353 396.099C104.632 406.011 114.254 413.593 125.99 416.554V411.848C114.253 408.885 104.63 401.3 99.6353 391.385V396.099Z" fill="#50B1AF"/>
<path opacity="0.4" d="M133.119 338.625V343.328C134.396 343.219 135.692 343.161 137 343.161C145.298 343.161 153.017 345.401 159.474 349.25V344.542C153.015 340.695 145.296 338.455 137 338.455C135.69 338.455 134.398 338.516 133.119 338.625Z" fill="#50B1AF"/>
<path d="M137 413.702C125.902 413.702 115.466 409.767 107.615 402.626C99.7508 395.472 95.4199 385.956 95.4199 375.831C95.4199 365.706 99.7508 356.191 107.615 349.035C115.466 341.893 125.902 337.96 137 337.96C148.097 337.96 158.534 341.894 166.385 349.035C174.249 356.189 178.58 365.706 178.58 375.831C178.58 385.956 174.249 395.471 166.385 402.626C158.534 409.769 148.097 413.702 137 413.702ZM137 338.948C126.148 338.948 115.949 342.79 108.279 349.766C100.623 356.73 96.4071 365.986 96.4071 375.829C96.4071 385.672 100.623 394.928 108.279 401.892C115.949 408.868 126.148 412.712 137 412.712C147.852 412.712 158.051 408.87 165.721 401.892C173.377 394.928 177.593 385.672 177.593 375.829C177.593 365.986 173.377 356.73 165.721 349.766C158.051 342.79 147.852 338.948 137 338.948Z" fill="white"/>
</g>
<defs>
<filter id="filter0_d_701_11615" x="168" y="125" width="400" height="400" filterUnits="userSpaceOnUse" color-interpolation-filters="sRGB">
<feFlood flood-opacity="0" result="BackgroundImageFix"/>
<feColorMatrix in="SourceAlpha" type="matrix" values="0 0 0 0 0 0 0 0 0 0 0 0 0 0 0 0 0 0 127 0" result="hardAlpha"/>
<feOffset dy="10"/>
<feGaussianBlur stdDeviation="30"/>
<feComposite in2="hardAlpha" operator="out"/>
<feColorMatrix type="matrix" values="0 0 0 0 0.0282176 0 0 0 0 0.0690799 0 0 0 0 0.191667 0 0 0 0.1 0"/>
<feBlend mode="normal" in2="BackgroundImageFix" result="effect1_dropShadow_701_11615"/>
<feBlend mode="normal" in="SourceGraphic" in2="effect1_dropShadow_701_11615" result="shape"/>
</filter>
<filter id="filter1_d_701_11615" x="68" y="0" width="320" height="320" filterUnits="userSpaceOnUse" color-interpolation-filters="sRGB">
<feFlood flood-opacity="0" result="BackgroundImageFix"/>
<feColorMatrix in="SourceAlpha" type="matrix" values="0 0 0 0 0 0 0 0 0 0 0 0 0 0 0 0 0 0 127 0" result="hardAlpha"/>
<feOffset dy="10"/>
<feGaussianBlur stdDeviation="30"/>
<feComposite in2="hardAlpha" operator="out"/>
<feColorMatrix type="matrix" values="0 0 0 0 0.0282176 0 0 0 0 0.0690799 0 0 0 0 0.191667 0 0 0 0.1 0"/>
<feBlend mode="normal" in2="BackgroundImageFix" result="effect1_dropShadow_701_11615"/>
<feBlend mode="normal" in="SourceGraphic" in2="effect1_dropShadow_701_11615" result="shape"/>
</filter>
<filter id="filter2_d_701_11615" x="0" y="251" width="274" height="274" filterUnits="userSpaceOnUse" color-interpolation-filters="sRGB">
<feFlood flood-opacity="0" result="BackgroundImageFix"/>
<feColorMatrix in="SourceAlpha" type="matrix" values="0 0 0 0 0 0 0 0 0 0 0 0 0 0 0 0 0 0 127 0" result="hardAlpha"/>
<feOffset dy="10"/>
<feGaussianBlur stdDeviation="30"/>
<feComposite in2="hardAlpha" operator="out"/>
<feColorMatrix type="matrix" values="0 0 0 0 0.0282176 0 0 0 0 0.0690799 0 0 0 0 0.191667 0 0 0 0.1 0"/>
<feBlend mode="normal" in2="BackgroundImageFix" result="effect1_dropShadow_701_11615"/>
<feBlend mode="normal" in="SourceGraphic" in2="effect1_dropShadow_701_11615" result="shape"/>
</filter>
</defs>
</svg>
