<svg width="58" height="41" viewBox="0 0 58 41" fill="none" xmlns="http://www.w3.org/2000/svg">
<path d="M19.3998 18.9001C23.321 18.9001 26.4998 14.9154 26.4998 10.0001C26.4998 5.08476 23.321 1.1001 19.3998 1.1001C15.4786 1.1001 12.2998 5.08476 12.2998 10.0001C12.2998 14.9154 15.4786 18.9001 19.3998 18.9001Z" stroke="white" stroke-width="2" stroke-miterlimit="10"/>
<path d="M12.2998 8.39992C17.3998 4.99992 21.5998 11.5999 26.4998 8.99992" stroke="white" stroke-width="2" stroke-miterlimit="10"/>
<path d="M22.5001 27.3001L19.3001 24.7001L16.1001 27.3001L13.3001 22.8001C13.1001 22.5001 13.3001 22.1001 13.7001 22.1001H24.7001C25.1001 22.1001 25.3001 22.5001 25.1001 22.8001L22.5001 27.3001Z" stroke="white" stroke-width="2" stroke-miterlimit="10"/>
<path d="M15.4004 17.2998C15.4004 18.6998 14.4004 21.9998 14.4004 21.9998" stroke="white" stroke-width="2" stroke-miterlimit="10"/>
<path d="M23.4004 17.2998C23.4004 18.6998 24.4004 21.9998 24.4004 21.9998" stroke="white" stroke-width="2" stroke-miterlimit="10"/>
<path d="M2.9 39.0998C2.1 39.0998 1.5 38.4998 1.5 37.6998V32.4998C1.5 26.4998 14.1 23.7998 14.1 23.7998L16.2 27.2998L19.4 24.6998L22.6 27.2998L24.7 23.7998C24.7 23.7998 37.3 26.4998 37.3 32.4998V37.6998C37.3 38.4998 36.7 39.0998 35.9 39.0998H2.9Z" stroke="white" stroke-width="2" stroke-miterlimit="10"/>
<path d="M29.7002 33.8999V39.0999" stroke="white" stroke-width="2" stroke-miterlimit="10"/>
<path d="M9.2998 33.8999V39.0999" stroke="white" stroke-width="2" stroke-miterlimit="10"/>
<path d="M20.0002 29.2998H18.7002" stroke="#3DA8FB" stroke-width="2" stroke-miterlimit="10" stroke-linecap="round"/>
<path d="M20.0002 32.6001H18.7002" stroke="#3DA8FB" stroke-width="2" stroke-miterlimit="10" stroke-linecap="round"/>
<path d="M45.0004 26.0997C47.5409 26.0997 49.6004 23.5477 49.6004 20.3997C49.6004 17.2517 47.5409 14.6997 45.0004 14.6997C42.4599 14.6997 40.4004 17.2517 40.4004 20.3997C40.4004 23.5477 42.4599 26.0997 45.0004 26.0997Z" stroke="#3DA8FB" stroke-width="2" stroke-miterlimit="10"/>
<path d="M39.7998 39.0997H55.1998C55.8998 39.0997 56.3998 38.5997 56.3998 37.8997V34.8997C56.3998 32.1997 52.3998 30.4997 49.9998 29.6997C48.9998 29.3997 47.8998 29.1997 46.8998 29.1997H42.8998C41.7998 29.1997 40.7998 29.3997 39.7998 29.6997" stroke="#3DA8FB" stroke-width="2" stroke-miterlimit="10"/>
<path d="M47.7998 2.8999V8.6999H38.2998C37.4998 8.6999 36.7998 8.9999 36.2998 9.4999L35.7998 9.9999V2.8999H47.7998ZM48.9998 0.899902H34.6998C34.1998 0.899902 33.7998 1.2999 33.7998 1.7999V12.6999C33.7998 13.1999 34.1998 13.5999 34.6998 13.5999C34.8998 13.5999 35.0998 13.4999 35.2998 13.2999L37.6998 10.8999C37.8998 10.6999 38.0998 10.5999 38.2998 10.5999H48.9998C49.4998 10.5999 49.8998 10.1999 49.8998 9.6999V1.6999C49.7998 1.2999 49.3998 0.899902 48.9998 0.899902Z" fill="#ED2939"/>
</svg>
