<svg width="16" height="16" viewBox="0 0 16 16" fill="none" xmlns="http://www.w3.org/2000/svg">
<g clip-path="url(#clip0_6382_32903)">
<path d="M8 0C3.582 0 0 3.582 0 8C0 12.418 3.582 16 8 16C12.418 16 16 12.418 16 8C16 3.582 12.418 0 8 0ZM13.203 5.0195C12.6298 5.51275 12.1768 5.96 11.3387 5.99125C10.6982 6.01475 10.2275 6.0175 9.749 5.59175C9.06725 4.9725 9.53425 4.1475 9.5595 3.21575C9.56825 2.8575 9.628 2.545 9.706 2.25C11.1973 2.6915 12.4432 3.69725 13.203 5.0195ZM2.46675 10.3223C2.98925 9.8145 3.84375 9.545 4.454 8.86825C5.077 8.172 5.0565 6.90925 5.98625 7.0245C6.746 7.13 6.61125 8.082 7.21275 8.55575C7.92175 9.12225 8.79475 8.76175 9.36025 9.47475C10.1025 10.4172 9.9295 11.4913 9.36025 12.548C8.94125 13.3118 8.40125 13.5822 7.6795 13.9835C5.329 13.8595 3.335 12.3888 2.46675 10.3223Z" fill="#3C72FF"/>
</g>
<defs>
<clipPath id="clip0_6382_32903">
<rect width="16" height="16" fill="white"/>
</clipPath>
</defs>
</svg>
