<svg width="76" height="91" viewBox="0 0 76 91" fill="none" xmlns="http://www.w3.org/2000/svg">
<g clip-path="url(#clip0)">
<path d="M38.9427 72.2286C38.7194 72.4104 38.5527 72.6317 38.4425 72.8731M38.9427 72.2286C38.9432 72.2282 38.9437 72.2278 38.9442 72.2274L39.5747 73.0036M38.9427 72.2286C38.9422 72.229 38.9417 72.2295 38.9412 72.2299L39.5747 73.0036M38.9427 72.2286C39.0909 72.1073 39.1738 72.0391 39.2328 71.9856C39.2449 71.9746 39.2542 71.9658 39.261 71.9592M38.4425 72.8731L39.5747 73.0036M38.4425 72.8731C38.3251 72.7939 38.2035 72.72 38.078 72.6516M38.4425 72.8731L37.5192 73.4873M39.5747 73.0036C39.878 72.7553 40.0187 72.6401 40.1101 72.4941C40.1893 72.3677 40.2315 72.2182 40.3103 71.9394C40.6363 70.7854 40.0483 69.6067 38.9821 69.3055L37.3709 68.8503L27.3012 66.0054L25.6901 65.5502C24.6239 65.249 23.506 65.9457 23.18 67.0997C22.854 68.2537 23.442 69.4323 24.5082 69.7335L25.4323 69.9946L36.9235 73.2412L37.2552 73.3349C37.35 73.3617 37.438 73.4125 37.5192 73.4873M39.261 71.9592C39.2554 71.9748 39.2526 71.9811 39.2526 71.9812C39.2526 71.9812 39.2578 71.9698 39.2683 71.9546C39.2739 71.9465 39.2779 71.942 39.2778 71.9421C39.2777 71.9422 39.273 71.9475 39.261 71.9592ZM39.261 71.9592C39.2611 71.9589 39.2612 71.9586 39.2614 71.9582C39.2802 71.9053 39.3021 71.8299 39.3479 71.6675C39.547 70.9628 39.1663 70.3967 38.7102 70.2678L37.099 69.8127L27.0294 66.9677L25.4182 66.5126C24.9621 66.3837 24.3414 66.6669 24.1423 67.3716C23.9432 68.0762 24.324 68.6423 24.7801 68.7712L25.7041 69.0323L37.1954 72.2788L37.5271 72.3725C37.736 72.4316 37.9198 72.5297 38.078 72.6516M38.078 72.6516C38.0437 72.633 38.0092 72.6148 37.9744 72.597L37.5192 73.4873M38.078 72.6516C38.1194 72.6836 38.1591 72.7172 38.197 72.7522L37.5192 73.4873M40.6292 66.1079C40.2928 66.2993 40.042 66.5875 39.892 66.9186C39.8284 66.8975 39.764 66.8777 39.6988 66.8593L38.0876 66.4041L27.9943 63.5525C26.2212 63.0515 25.1825 61.1783 25.6347 59.4649L27.1339 55.8517C27.2111 55.6655 27.2303 55.4603 27.1889 55.263L27.0035 54.3799C26.9614 54.1796 26.8589 53.997 26.7098 53.8568C21.1838 48.6605 19.0449 40.8598 21.132 33.4725C24.1848 22.6669 35.3178 16.3487 45.9326 19.3476C56.5475 22.3466 62.7284 33.5563 59.6755 44.362C57.5951 51.7258 51.6833 57.2776 44.2557 58.8139C44.0553 58.8554 43.8724 58.9573 43.7318 59.106L43.1116 59.7615C42.9724 59.9087 42.8811 60.0948 42.85 60.295L42.264 64.0612C42.0022 64.9348 41.4237 65.6558 40.6292 66.1079ZM26.4336 78.7675L34.7022 81.1036C37.1187 81.7863 39.6129 80.3498 40.2959 77.9323C40.5411 77.0643 40.5184 76.186 40.2801 75.3836C40.5786 75.3431 40.8705 75.2277 41.1261 75.0387C41.1356 75.0317 41.145 75.0245 41.1542 75.0172C41.5862 74.6736 41.9545 74.3693 42.2239 73.9693C42.4971 73.5637 42.6277 73.1201 42.7653 72.633C43.1045 71.4324 42.9643 70.1888 42.4445 69.1509C44.0318 68.2208 45.1931 66.7564 45.7244 64.8759C45.7355 64.8365 45.7442 64.7966 45.7504 64.7562L46.1699 62.0316C54.3446 59.8931 60.7546 53.6039 63.0861 45.3515L63.0866 45.3496C66.638 32.685 59.4009 19.4908 46.8907 15.9564C34.3809 12.4221 21.3081 19.8784 17.7316 32.5378C15.3998 40.7911 17.5719 49.5056 23.4203 55.6057L22.3218 58.2445C22.3066 58.2811 22.2935 58.3187 22.2827 58.3569C21.7619 60.2004 22.0215 62.0748 22.8712 63.623C21.8851 64.2285 21.1136 65.2117 20.7724 66.4195C20.3886 67.7777 20.6223 69.1433 21.2915 70.2282C20.7644 70.7597 20.3553 71.4275 20.1341 72.2102C19.5237 74.371 20.5564 76.6211 22.5082 77.5621C22.4272 78.8269 22.9118 80.0494 23.73 81.0613C24.7387 82.309 26.2891 83.2958 28.1283 83.8155C29.5679 84.2222 31.0718 84.3038 32.4501 84.0067L32.4583 84.0049C33.3979 83.7941 34.0129 82.8536 33.811 81.8993C33.6122 80.9603 32.6801 80.3188 31.7073 80.5369C30.9664 80.7001 30.0263 80.6638 29.0932 80.4002C28.0261 80.0987 27.155 79.5551 26.6142 78.9767C26.5473 78.9051 26.4873 78.8353 26.4336 78.7675ZM36.2068 75.6874C36.7283 75.8347 37.0446 76.3791 36.8853 76.9428C36.7261 77.5065 36.1717 77.8049 35.6502 77.6576L24.1826 74.4177C23.6611 74.2704 23.3448 73.726 23.5041 73.1623C23.6588 72.6148 24.2254 72.3024 24.7392 72.4476L36.2068 75.6874Z" fill="#0C214C" stroke="white" stroke-width="2" stroke-linecap="round" stroke-linejoin="round"/>
<path d="M46.0894 53.1155C46.3941 53.1237 46.6415 52.882 46.6519 52.5734C46.6623 52.2648 46.4256 52.0162 46.1209 52.008C44.9021 51.9752 43.7381 51.205 43.0079 49.9862C44.1564 49.0905 44.9464 47.8339 45.2083 46.4541C45.341 45.7128 45.2399 45.165 44.8949 44.756C44.5669 44.3777 44.1303 44.2025 43.6258 44.2676C42.8808 44.3687 42.0576 45.0188 41.7081 45.8027C41.179 46.9513 41.1507 48.3192 41.6337 49.598C40.8851 49.9836 40.086 50.0953 39.3075 49.9533C38.4578 49.7911 37.6763 49.2068 37.1658 48.3876C37.9688 47.628 38.5722 46.76 39.0096 46.0269C39.5115 45.1562 39.5968 44.4014 39.2452 43.8348C39.0018 43.4285 38.5788 43.2052 38.0709 43.1915C37.3532 43.1964 36.5368 43.6408 36.1198 44.3018C35.4079 45.3728 35.2949 46.7687 35.8118 48.1089C35.3883 48.4306 34.9073 48.6842 34.3925 48.8762C34.3315 48.9109 34.2537 48.9149 34.169 48.9429C34.0551 47.5348 33.8092 46.1413 33.3534 44.7663C32.8097 43.1589 31.9806 42.743 31.3848 42.6785C31.009 42.6502 30.6061 42.7181 30.1861 42.9369C29.3461 43.3746 28.7257 44.2118 28.5047 45.2657C28.2498 46.4398 28.4959 47.6516 29.1891 48.5484C30.0887 49.7112 31.5812 50.3146 33.1386 50.2354C33.1653 54.5784 31.763 59.0889 30.1273 63.4296C30.0221 63.7114 30.1607 64.0361 30.4382 64.1405C30.4619 64.1472 30.4619 64.1472 30.4856 64.1539C30.7462 64.2275 31.0443 64.0781 31.1427 63.8203C32.8428 59.3421 34.2926 54.6633 34.2255 50.1011C34.3949 50.0451 34.5879 49.9958 34.7572 49.9398C35.3262 49.7371 35.8444 49.4422 36.3153 49.1339C36.9983 50.1576 38.0032 50.8569 39.0966 51.0619C40.0884 51.2643 41.1347 51.0926 42.0899 50.6095C42.9959 52.1117 44.4949 53.0544 46.0894 53.1155ZM30.026 47.8503C29.5559 47.2501 29.3536 46.3363 29.5439 45.4814C29.7003 44.7468 30.0834 44.2059 30.6558 43.9004C30.8692 43.7789 31.0859 43.7363 31.2586 43.7591C31.2823 43.7658 31.3297 43.7792 31.3534 43.7859C31.8509 43.9265 32.1787 44.6681 32.3069 45.1197C32.729 46.4332 32.9953 47.7545 33.0753 49.1012C31.853 49.1712 30.6787 48.7096 30.026 47.8503ZM36.669 47.3386C36.4294 46.4661 36.525 45.5845 36.9725 44.9061C37.1996 44.5549 37.6637 44.2707 38.0158 44.2923C38.0632 44.3056 38.0937 44.2883 38.141 44.3017C38.2358 44.3285 38.2764 44.3659 38.2865 44.4207C38.4116 44.6118 38.3266 45.0032 38.0418 45.4679C37.7231 46.0528 37.2519 46.7245 36.669 47.3386ZM42.6557 46.2522C42.8559 45.8155 43.3539 45.411 43.7264 45.3604C43.8042 45.3565 43.8584 45.3458 43.9058 45.3592C43.9769 45.3793 44.0175 45.4167 44.0581 45.4542C44.1731 45.5905 44.1931 45.8817 44.1386 46.2558C43.9549 47.2683 43.3717 48.2458 42.5585 48.9506C42.2546 48.034 42.2927 47.0842 42.6557 46.2522Z" fill="#0C214C"/>
<path d="M42.1455 52.3125C38.9563 56.0845 37.1309 60.5533 36.683 65.4892C36.6113 66.1958 37.7116 66.1951 37.7596 65.4818C38.1666 60.8718 39.9072 56.6127 42.8727 53.0891C43.3573 52.551 42.6064 51.7677 42.1455 52.3125Z" fill="#0C214C"/>
<path d="M54.4836 24.4518L54.4735 24.4415C54.1514 24.1151 53.7284 23.9539 53.2949 23.9822C52.8883 24.0089 52.5419 24.1962 52.298 24.436C52.0541 24.6758 51.8606 25.0194 51.8277 25.4263C51.7927 25.8579 51.9466 26.2812 52.265 26.6069C56.241 30.7433 57.4425 36.769 55.4 42.2129L55.3999 42.2129L55.3954 42.2254C55.2404 42.656 55.275 43.119 55.5149 43.5071C55.7373 43.8669 56.0818 44.0766 56.4075 44.1687C57.0471 44.3494 57.9765 44.1357 58.3164 43.2064C60.7749 36.7002 59.2528 29.4267 54.4836 24.4518Z" fill="#0C214C" stroke="white" stroke-width="2" stroke-linecap="round" stroke-linejoin="round"/>
<path d="M57.5591 45.303L57.5591 45.303C57.4134 46.6774 56.8483 47.9264 55.858 48.9269L57.5591 45.303ZM57.5591 45.303L57.5595 45.2986M57.5591 45.303L57.5595 45.2986M57.5595 45.2986C57.6051 44.8493 57.4663 44.401 57.1266 44.0774M57.5595 45.2986L57.1266 44.0774M57.1266 44.0774C56.8118 43.7773 56.414 43.669 56.0733 43.6714M57.1266 44.0774L56.0733 43.6714M56.0733 43.6714C55.3997 43.676 54.5906 44.1437 54.4931 45.104M56.0733 43.6714L54.4931 45.104M54.4931 45.104L55.488 45.205M54.4931 45.104L55.488 45.205M55.488 45.205L54.4933 45.102C54.4309 45.7054 54.1518 46.2717 53.7067 46.7458M55.488 45.205L53.7067 46.7458M55.488 45.205C55.3992 46.0626 55.0024 46.8332 54.4196 47.4473L55.488 45.205ZM53.7067 46.7458C53.3944 47.0548 53.228 47.4592 53.2416 47.8834C53.2548 48.2932 53.4328 48.6487 53.6723 48.9014C53.9112 49.1536 54.259 49.3533 54.6732 49.3842C55.1145 49.4172 55.5379 49.2504 55.8574 48.9275L53.7067 46.7458Z" fill="#0C214C" stroke="white" stroke-width="2" stroke-linecap="round" stroke-linejoin="round"/>
<path d="M22.1424 32.3216C22.0031 32.7572 22.0561 33.2115 22.2955 33.5855C22.5188 33.9345 22.8575 34.1427 23.1841 34.2349C23.8305 34.4175 24.7792 34.1933 25.0898 33.2255L25.0901 33.2247C25.909 30.6647 27.3177 28.5437 29.3083 26.7659C29.653 26.4639 29.8452 26.0453 29.8304 25.5952C29.8166 25.1749 29.6267 24.8218 29.3944 24.5775C28.9493 24.1093 28.0147 23.7759 27.2413 24.4585C24.82 26.5866 23.1187 29.2496 22.1424 32.3216ZM22.1424 32.3216C22.1426 32.321 22.1428 32.3204 22.143 32.3199L23.0951 32.6255L22.1421 32.3226C22.1422 32.3223 22.1423 32.3219 22.1424 32.3216Z" fill="#0C214C" stroke="white" stroke-width="2" stroke-linecap="round" stroke-linejoin="round"/>
<path d="M24.089 38.6697C24.0864 38.6603 24.0836 38.651 24.0806 38.6417C23.8328 37.8571 23.8877 37.0531 24.2541 36.3074L24.2542 36.3074L24.2573 36.301C24.6852 35.4141 24.2074 34.5935 23.6433 34.2466C23.3552 34.0695 22.9619 33.9539 22.5385 34.0407C22.0804 34.1346 21.7207 34.4393 21.5203 34.8521C20.8168 36.2882 20.6256 37.9054 21.1193 39.5044C21.2461 39.9368 21.5344 40.2731 21.9159 40.4566C22.2785 40.6312 22.6688 40.6422 22.9995 40.5557C23.3295 40.4694 23.6705 40.2671 23.9007 39.9254C24.1468 39.5601 24.214 39.1096 24.089 38.6697Z" fill="#0C214C" stroke="white" stroke-width="2" stroke-linecap="round" stroke-linejoin="round"/>
<path d="M47.5858 11.5602L48.5368 8.19434C48.6612 7.754 48.5917 7.30742 48.3524 6.9459C48.1283 6.60718 47.7949 6.40043 47.4677 6.30798C47.1405 6.21553 46.7482 6.21728 46.3799 6.38862C45.9869 6.5715 45.694 6.91571 45.5696 7.35605L44.6186 10.7219C44.4942 11.1623 44.5637 11.6089 44.803 11.9704C45.0271 12.3091 45.3605 12.5159 45.6877 12.6083C46.0149 12.7008 46.4072 12.699 46.7755 12.5277C47.1685 12.3448 47.4614 12.0006 47.5858 11.5602Z" fill="#0C214C" stroke="white" stroke-width="2" stroke-linecap="round" stroke-linejoin="round"/>
<path d="M66.2994 28.8857L66.2764 28.8935C65.3406 29.2239 65.1245 30.1536 65.28 30.7807C65.3602 31.1039 65.555 31.4585 65.9106 31.6945C66.294 31.9491 66.7584 31.9936 67.1911 31.8453C67.9369 31.6022 68.6765 31.3576 69.4138 31.1138L69.4148 31.1134C70.156 30.8683 70.8947 30.6239 71.639 30.3814L71.662 30.3736C72.5979 30.0432 72.814 29.1135 72.6584 28.4864C72.5783 28.1633 72.3835 27.8086 72.0279 27.5726C71.6445 27.318 71.18 27.2735 70.7473 27.4218C70.0015 27.6649 69.2618 27.9096 68.5246 28.1534L68.5236 28.1537C67.7825 28.3988 67.0437 28.6432 66.2994 28.8857Z" fill="#0C214C" stroke="white" stroke-width="2" stroke-linecap="round" stroke-linejoin="round"/>
<path d="M18.115 19.4926L18.1151 19.4926L18.1086 19.4809C17.8876 19.079 17.5223 18.8076 17.0925 18.7208C16.6907 18.6397 16.3073 18.7333 16.0117 18.9015C15.7158 19.0699 15.4432 19.3496 15.3052 19.7285C15.1582 20.1321 15.1904 20.5811 15.411 20.9824L16.3512 22.6921L17.3039 24.4248C17.525 24.8268 17.8903 25.0982 18.3201 25.1849C18.7218 25.2661 19.1053 25.1724 19.4008 25.0042C19.6968 24.8358 19.9694 24.5561 20.1074 24.1772C20.2544 23.7736 20.2222 23.3247 20.0015 22.9233L20.0016 22.9233L19.995 22.9117C19.3504 21.7755 18.7293 20.6461 18.115 19.4926Z" fill="#0C214C" stroke="white" stroke-width="2" stroke-linecap="round" stroke-linejoin="round"/>
<path d="M29.8736 14.6377L29.8736 14.6377L29.8763 14.6459C30.1962 15.5933 31.1304 15.8182 31.7688 15.6512C32.0944 15.566 32.4424 15.3649 32.6726 15.0117C32.9194 14.6331 32.9672 14.175 32.8248 13.743C32.6344 13.1403 32.4367 12.543 32.2415 11.9533L32.2405 11.9501C32.0434 11.3547 31.8489 10.767 31.6622 10.176L31.6561 10.1573C31.3362 9.20986 30.402 8.98496 29.7636 9.15193C29.438 9.23709 29.0901 9.4382 28.8598 9.79148C28.6131 10.17 28.5653 10.6281 28.7076 11.0602C28.9965 11.9745 29.2996 12.8943 29.5962 13.7948C29.6895 14.0779 29.7822 14.3592 29.8736 14.6377Z" fill="#0C214C" stroke="white" stroke-width="2" stroke-linecap="round" stroke-linejoin="round"/>
<path d="M58.0351 18.8839L58.0351 18.8839L58.0276 18.8895C57.2569 19.4689 57.2929 20.403 57.5936 20.9604C57.7503 21.2508 58.0344 21.5609 58.464 21.6925C58.9276 21.8346 59.3892 21.7165 59.7463 21.4464C60.6105 20.8333 61.4795 20.1978 62.3145 19.5823C63.098 19.0196 63.0909 18.0859 62.7734 17.5084C62.6108 17.2128 62.325 16.9168 61.9103 16.7857C61.4602 16.6435 60.9971 16.7404 60.6247 17.0044C59.7534 17.6224 58.8769 18.2633 58.0351 18.8839Z" fill="#0C214C" stroke="white" stroke-width="2" stroke-linecap="round" stroke-linejoin="round"/>
</g>
<defs>
<clipPath id="clip0">
<rect width="55.8153" height="77.8477" fill="white" transform="translate(21.8682 0.113281) rotate(15.7762)"/>
</clipPath>
</defs>
</svg>
