<svg width="80" height="80" viewBox="0 0 80 80" fill="none" xmlns="http://www.w3.org/2000/svg">
<path d="M61.2451 41.7388V12.3965C61.2451 10.3524 59.6867 8.69531 57.7672 8.69531H10.2806C8.36007 8.69531 6.80273 10.3535 6.80273 12.3965V41.7388" stroke="#000066" stroke-width="2.96" stroke-miterlimit="10" stroke-linecap="round" stroke-linejoin="round"/>
<path d="M65.348 52.1733H2.70458C1.97982 52.1733 1.49432 51.537 1.78842 50.9713L4.51398 45.7256C4.67448 45.4164 5.03437 45.2168 5.43014 45.2168H62.6224C63.0192 45.2168 63.3781 45.4164 63.5386 45.7256L66.2642 50.9713C66.5583 51.537 66.0728 52.1733 65.348 52.1733Z" stroke="#000066" stroke-width="2.96" stroke-miterlimit="10" stroke-linecap="round" stroke-linejoin="round"/>
<path d="M6.80273 55.6545V67.5476C6.80273 68.6623 7.67406 69.5654 8.74991 69.5654H60.664C61.7388 69.5654 62.6101 68.6623 62.6101 67.5476V64.7696H64.4254C64.7342 64.7696 64.9838 64.5102 64.9838 64.1905V63.4251H66.0228C66.2028 63.4251 66.349 63.2737 66.349 63.0863C66.349 62.4024 66.349 60.6323 66.349 59.9484C66.349 59.761 66.2028 59.6096 66.0228 59.6096H64.9838V58.8442C64.9838 58.5245 64.7342 58.2651 64.4254 58.2651H62.6101V55.6523" stroke="#000066" stroke-width="2.96" stroke-miterlimit="10" stroke-linecap="round" stroke-linejoin="round"/>
<path d="M19.8438 21.5227V19.4775" stroke="#CB0101" stroke-width="2.96" stroke-miterlimit="10" stroke-linecap="round" stroke-linejoin="round"/>
<path d="M22.0922 22.5522C22.0922 22.5522 21.2425 21.5234 19.8459 21.5234C17.5109 21.5234 16.3999 24.2932 19.8459 25.3002C23.744 26.439 22.3888 29.4517 19.8459 29.4517C18.3908 29.4517 17.2334 28.4011 17.2334 28.4011" stroke="#CB0101" stroke-width="2.96" stroke-miterlimit="10" stroke-linecap="round" stroke-linejoin="round"/>
<path d="M19.8438 29.4512V31.6427" stroke="#CB0101" stroke-width="2.96" stroke-miterlimit="10" stroke-linecap="round" stroke-linejoin="round"/>
<path d="M34.6797 21.5227V19.4775" stroke="#CB0101" stroke-width="2.96" stroke-miterlimit="10" stroke-linecap="round" stroke-linejoin="round"/>
<path d="M36.9291 22.5522C36.9291 22.5522 36.0795 21.5234 34.6829 21.5234C32.3478 21.5234 31.2368 24.2932 34.6829 25.3002C38.581 26.439 37.2258 29.4517 34.6829 29.4517C33.2278 29.4517 32.0693 28.4011 32.0693 28.4011" stroke="#CB0101" stroke-width="2.96" stroke-miterlimit="10" stroke-linecap="round" stroke-linejoin="round"/>
<path d="M34.6797 29.4512V31.6427" stroke="#CB0101" stroke-width="2.96" stroke-miterlimit="10" stroke-linecap="round" stroke-linejoin="round"/>
<path d="M49.167 21.5227V19.4775" stroke="#CB0101" stroke-width="2.96" stroke-miterlimit="10" stroke-linecap="round" stroke-linejoin="round"/>
<path d="M51.4183 22.5522C51.4183 22.5522 50.5687 21.5234 49.1721 21.5234C46.8371 21.5234 45.7261 24.2932 49.1721 25.3002C53.0702 26.439 51.715 29.4517 49.1721 29.4517C47.717 29.4517 46.5596 28.4011 46.5596 28.4011" stroke="#CB0101" stroke-width="2.96" stroke-miterlimit="10" stroke-linecap="round" stroke-linejoin="round"/>
<path d="M49.167 29.4512V31.6427" stroke="#CB0101" stroke-width="2.96" stroke-miterlimit="10" stroke-linecap="round" stroke-linejoin="round"/>
<path d="M15.3125 62.6084H52.7416" stroke="#000066" stroke-width="2.96" stroke-miterlimit="10" stroke-linecap="round" stroke-linejoin="round"/>
<path d="M71.4555 38.2607V58.7021C71.4555 60.8593 70.1044 62.6086 68.4377 62.6086H66.3516" stroke="#000066" stroke-width="2.96" stroke-miterlimit="10" stroke-linecap="round" stroke-linejoin="round"/>
<path d="M72.306 38.26C74.6551 38.26 76.5593 35.9241 76.5593 33.0426C76.5593 30.1611 74.6551 27.8252 72.306 27.8252C69.957 27.8252 68.0527 30.1611 68.0527 33.0426C68.0527 35.9241 69.957 38.26 72.306 38.26Z" stroke="#000066" stroke-width="2.96" stroke-miterlimit="10" stroke-linecap="round" stroke-linejoin="round"/>
</svg>
