<svg width="54" height="54" viewBox="0 0 54 54" fill="none" xmlns="http://www.w3.org/2000/svg">
<rect width="54" height="54" rx="27" fill="#0D4EE3"/>
<g clip-path="url(#clip0_387_24693)">
<path fill-rule="evenodd" clip-rule="evenodd" d="M20.8662 39.8009C20.8662 40.0954 21.105 40.3343 21.3996 40.3343H33.1329C33.4274 40.3343 33.6662 40.0955 33.6662 39.8009C33.6662 39.5063 33.4274 39.2676 33.1329 39.2676H21.3996C21.105 39.2676 20.8662 39.5063 20.8662 39.8009Z" fill="white"/>
<path d="M32.0668 26.4675C32.9504 26.4675 33.6667 25.7512 33.6667 24.8676C33.6667 23.9839 32.9504 23.2676 32.0668 23.2676C31.1831 23.2676 30.4668 23.9839 30.4668 24.8676C30.4668 25.7512 31.1831 26.4675 32.0668 26.4675ZM32.0668 24.3342C32.3613 24.3342 32.6001 24.573 32.6001 24.8676C32.6001 25.1621 32.3613 25.4009 32.0668 25.4009C31.7722 25.4009 31.5334 25.1621 31.5334 24.8676C31.5334 24.573 31.7722 24.3342 32.0668 24.3342Z" fill="white"/>
<path d="M32.0668 29.666C31.1831 29.666 30.4668 30.3824 30.4668 31.266C30.4668 32.1497 31.1831 32.866 32.0668 32.866C32.9504 32.866 33.6667 32.1496 33.6667 31.266C33.6668 30.3824 32.9504 29.666 32.0668 29.666ZM32.0668 31.7993C31.7722 31.7993 31.5334 31.5606 31.5334 31.266C31.5334 30.9714 31.7722 30.7326 32.0668 30.7326C32.3613 30.7326 32.6001 30.9714 32.6001 31.266C32.6001 31.5606 32.3613 31.7993 32.0668 31.7993Z" fill="white"/>
<path d="M38.4662 26.4675C39.3499 26.4675 40.0662 25.7512 40.0662 24.8676C40.0662 23.9839 39.3498 23.2676 38.4662 23.2676C37.5826 23.2676 36.8662 23.9839 36.8662 24.8676C36.8662 25.7512 37.5825 26.4675 38.4662 26.4675ZM38.4662 24.3342C38.7608 24.3342 38.9995 24.573 38.9995 24.8676C38.9995 25.1621 38.7608 25.4009 38.4662 25.4009C38.1716 25.4009 37.9328 25.1621 37.9328 24.8676C37.9328 24.573 38.1716 24.3342 38.4662 24.3342Z" fill="white"/>
<path d="M38.4662 29.666C37.5825 29.666 36.8662 30.3824 36.8662 31.266C36.8662 32.1497 37.5826 32.866 38.4662 32.866C39.3498 32.866 40.0662 32.1496 40.0662 31.266C40.0662 30.3824 39.3499 29.666 38.4662 29.666ZM38.4662 31.7993C38.1716 31.7993 37.9328 31.5606 37.9328 31.266C37.9328 30.9714 38.1716 30.7326 38.4662 30.7326C38.7608 30.7326 38.9995 30.9714 38.9995 31.266C38.9995 31.5606 38.7608 31.7993 38.4662 31.7993Z" fill="white"/>
<path d="M33.666 28.0668C33.666 28.9504 34.3824 29.6667 35.266 29.6667C36.1496 29.6667 36.866 28.9504 36.866 28.0668C36.866 27.1831 36.1496 26.4668 35.266 26.4668C34.3824 26.4668 33.666 27.1831 33.666 28.0668ZM35.7993 28.0668C35.7993 28.3613 35.5606 28.6001 35.266 28.6001C34.9714 28.6001 34.7326 28.3613 34.7326 28.0668C34.7326 27.7722 34.9714 27.5334 35.266 27.5334C35.5606 27.5334 35.7993 27.7722 35.7993 28.0668Z" fill="white"/>
<path d="M16.7717 31.2666H13.9328C13.6382 31.2666 13.3994 31.5054 13.3994 31.8C13.3994 32.0945 13.6382 32.3333 13.9328 32.3333H17.8384L19.4383 33.9333H15.5328C15.2382 33.9333 14.9994 34.1721 14.9994 34.4666C14.9994 34.7612 15.2382 35 15.5328 35H17.6661V39.2667C17.6685 41.3275 19.3385 42.9976 21.3994 43H33.1328C35.1936 42.9976 36.8637 41.3276 36.8661 39.2667V35H40.0661C41.2443 35 42.1994 34.0449 42.1994 32.8667V23.2667C42.1994 22.0885 41.2443 21.1333 40.0661 21.1333H36.8661V14.7333C36.8637 12.6724 35.1936 11.0024 33.1328 11H21.3994C19.3386 11.0024 17.6685 12.6724 17.6661 14.7333V19.7045L12.9727 24.4037C12.5652 24.8086 12.3359 25.3594 12.3359 25.9338C12.3359 26.5084 12.5651 27.0591 12.9727 27.4639L16.7717 31.2666ZM28.6287 33.9333H23.361L28.3327 28.9658V32.8667C28.3346 33.2422 28.4368 33.6105 28.6287 33.9333ZM35.7994 39.2667C35.7976 40.7387 34.6048 41.9316 33.1328 41.9333H21.3994C19.9274 41.9315 18.7345 40.7387 18.7328 39.2667V35H21.3834H21.3994H21.4154H30.4533H30.4661H35.7994V39.2667ZM41.1327 23.2667V32.8667C41.1327 33.4558 40.6551 33.9333 40.066 33.9333H34.2058H34.1994H30.4532C29.8692 33.9263 29.3994 33.4508 29.3994 32.8667V27.6789V23.2667C29.3994 22.6776 29.8769 22.2 30.466 22.2H40.066C40.6552 22.2 41.1327 22.6776 41.1327 23.2667ZM32.345 12.0667L31.9717 12.9963C31.8111 13.4016 31.4189 13.6675 30.9828 13.6667H23.5492C23.1126 13.6682 22.7196 13.4021 22.5588 12.9963L22.1871 12.0667H32.345ZM18.7327 14.7333C18.7369 13.3988 19.7287 12.2735 21.0522 12.1019L21.5685 13.3925C21.8902 14.2042 22.6761 14.7362 23.5493 14.7333H30.9829C31.856 14.7362 32.642 14.2042 32.9637 13.3925L33.48 12.1019C34.8035 12.2735 35.7953 13.3987 35.7995 14.7333V21.1333H30.4661C29.4187 21.1371 28.5289 21.9008 28.3664 22.9355L22.9263 17.4981C22.0811 16.6549 20.7129 16.6549 19.8676 17.4981L18.7327 18.6368V14.7333ZM13.7232 25.1595L20.6245 18.2533C21.0587 17.8406 21.7401 17.8406 22.1743 18.2533L28.3327 24.4112V27.4576L22.1728 33.6133C21.7413 34.0297 21.0576 34.0297 20.6261 33.6133L18.4415 31.4267L18.433 31.4187L13.7194 26.7083C13.5134 26.5036 13.3976 26.2253 13.3976 25.9349C13.3976 25.6446 13.5134 25.3663 13.7194 25.1616L13.7232 25.1595Z" fill="white"/>
<path d="M21.3995 23.2664C21.8242 23.2676 22.2316 23.099 22.5312 22.7982C22.8314 22.4981 23 22.0911 23 21.6667C23 21.2423 22.8314 20.8353 22.5312 20.5353C21.898 19.931 20.9016 19.931 20.2683 20.5353C19.8108 20.9928 19.6741 21.6809 19.9216 22.2787C20.1692 22.8764 20.7525 23.2663 21.3995 23.2664ZM21.0262 21.2931C21.1594 21.1513 21.3593 21.0932 21.5478 21.1416C21.7362 21.1901 21.8833 21.3373 21.9316 21.5258C21.9799 21.7143 21.9217 21.9141 21.7798 22.0472C21.569 22.2492 21.2364 22.2492 21.0256 22.0472C20.8174 21.8389 20.8174 21.5013 21.0256 21.2931L21.0262 21.2931Z" fill="white"/>
<path d="M21.3995 31.7996C21.8242 31.8008 22.2316 31.6322 22.5312 31.3314C22.8314 31.0313 23 30.6243 23 30.1999C23 29.7755 22.8314 29.3685 22.5312 29.0685C21.898 28.4642 20.9016 28.4642 20.2683 29.0685C19.8108 29.526 19.6741 30.2141 19.9216 30.8119C20.1692 31.4096 20.7525 31.7995 21.3995 31.7996ZM21.0262 29.8263C21.1594 29.6845 21.3593 29.6264 21.5478 29.6748C21.7362 29.7233 21.8833 29.8705 21.9316 30.059C21.9799 30.2475 21.9217 30.4473 21.7798 30.5804C21.569 30.7824 21.2364 30.7824 21.0256 30.5804C20.8174 30.3721 20.8174 30.0345 21.0256 29.8263H21.0262V29.8263Z" fill="white"/>
<path d="M24.5361 27.0658C25.161 27.6907 26.1742 27.6907 26.7991 27.0658C27.424 26.4409 27.424 25.4277 26.7991 24.8028C26.1658 24.1985 25.1694 24.1985 24.5361 24.8028C24.236 25.1029 24.0674 25.5099 24.0674 25.9343C24.0674 26.3587 24.236 26.7657 24.5361 27.0658ZM25.2929 25.5596C25.4261 25.4178 25.626 25.3597 25.8145 25.4082C26.0029 25.4566 26.15 25.6038 26.1983 25.7923C26.2466 25.9808 26.1884 26.1806 26.0465 26.3137C25.8357 26.5153 25.5036 26.5153 25.2929 26.3137C25.0847 26.1055 25.0847 25.7679 25.2929 25.5596Z" fill="white"/>
<path d="M16.0029 27.0658C16.6278 27.6907 17.641 27.6907 18.2659 27.0658C18.8908 26.4409 18.8908 25.4277 18.2659 24.8028C17.6326 24.1985 16.6362 24.1985 16.0029 24.8028C15.7028 25.1029 15.5342 25.5099 15.5342 25.9343C15.5342 26.3587 15.7028 26.7657 16.0029 27.0658ZM16.7597 25.5596C16.8929 25.4178 17.0928 25.3597 17.2813 25.4082C17.4697 25.4566 17.6168 25.6038 17.6651 25.7923C17.7134 25.9808 17.6552 26.1806 17.5133 26.3137C17.3025 26.5153 16.9704 26.5153 16.7597 26.3137C16.5515 26.1055 16.5515 25.7679 16.7597 25.5596Z" fill="white"/>
<path fill-rule="evenodd" clip-rule="evenodd" d="M12.3331 35.0003H13.3998C13.6944 35.0003 13.9332 34.7615 13.9332 34.4669C13.9332 34.1724 13.6944 33.9336 13.3998 33.9336H12.3331C12.0386 33.9336 11.7998 34.1724 11.7998 34.4669C11.7998 34.7615 12.0386 35.0003 12.3331 35.0003Z" fill="white"/>
</g>
<defs>
<clipPath id="clip0_387_24693">
<rect width="32" height="32" fill="white" transform="translate(11 11)"/>
</clipPath>
</defs>
</svg>
