<svg width="120" height="115" viewBox="0 0 120 115" fill="none" xmlns="http://www.w3.org/2000/svg">
<path fill-rule="evenodd" clip-rule="evenodd" d="M63.435 0.0599499C81.1129 0.833428 96.4582 11.0953 107.173 25.1287C117.554 38.7242 122.541 55.8102 118.719 72.4642C114.9 89.1097 103.225 102.881 87.6825 110.067C72.4157 117.126 55.2021 115.537 39.705 108.996C23.0257 101.955 6.90217 91.2383 1.94433 73.8759C-3.28412 55.5658 2.39837 35.7257 14.6001 21.0783C26.516 6.77381 44.7977 -0.755509 63.435 0.0599499Z" fill="#F7EDFF"/>
<path d="M78.459 42.0748H80.5919L79.5255 39.9418V31.41C79.5255 30.2786 79.076 29.1935 78.276 28.3935C77.476 27.5935 76.3909 27.144 75.2595 27.144H70.9936V30.3435L74.193 31.41V37.8089C74.193 38.9403 74.6425 40.0253 75.4425 40.8253C76.2425 41.6254 77.3276 42.0748 78.459 42.0748Z" fill="#333333"/>
<path d="M69.9271 60.2046L72.0601 65.537H61.3953V58.0716L60.2288 57.2944C59.6751 56.9252 59.2088 56.4394 58.8625 55.871C58.5162 55.3027 58.2984 54.6655 58.2242 54.0041C58.1501 53.3428 58.2214 52.6732 58.4332 52.0422C58.6449 51.4113 58.9921 50.8343 59.4503 50.3516L61.214 48.4933L65.2799 44.2073V38.667H62.847C62.5822 38.6647 62.3291 38.5575 62.1434 38.3687C61.9577 38.18 61.8545 37.9253 61.8565 37.6605V35.2969L60.3288 34.1357L61.8565 31.3456V30.687C61.8541 29.4684 62.331 28.2977 63.1843 27.4276C63.6136 26.9906 64.1269 26.645 64.6933 26.4117C65.2043 26.2014 65.75 26.0884 66.3024 26.0785C67.481 26.0561 68.6235 26.4853 69.4957 27.2782C70.368 28.0712 70.9039 29.1677 70.9936 30.3431V44.2073C72.3669 46.9547 72.6797 50.1117 71.8721 53.0751L71.7361 53.5737L70.5083 58.0716L69.9271 60.2046Z" fill="#FFEDDF"/>
<path d="M69.3672 34.5029L70.3489 33.5042C70.5447 33.3039 70.6858 33.0566 70.7587 32.7862C70.8316 32.5157 70.8338 32.231 70.7651 31.9594C70.7091 31.7258 70.6007 31.5079 70.4481 31.3223C70.2954 31.1368 70.1026 30.9884 69.8841 30.8883C69.6657 30.7883 69.4273 30.7393 69.1871 30.745C68.9469 30.7507 68.7111 30.8109 68.4977 30.9212L68.1523 31.1016L64.6931 26.412C65.2313 26.1905 65.8077 26.077 66.3896 26.0776H68.4502C68.5313 26.0776 68.6121 26.0793 68.6926 26.0826C72.069 26.2205 74.5659 29.3507 74.1472 32.7614L74.1176 32.941C73.7238 35.3304 72.6783 37.1621 70.9936 38.8754L69.3672 34.5029Z" fill="#333333"/>
<path d="M71.7361 53.5741L70.5083 58.072H61.3953L60.2288 57.2948C59.6751 56.9256 59.2088 56.4398 58.8625 55.8714C58.5162 55.3031 58.2984 54.6659 58.2242 54.0045C58.1501 53.3432 58.2214 52.6736 58.4332 52.0426C58.6449 51.4117 58.9921 50.8347 59.4503 50.352L61.214 48.4937C62.4591 50.4267 65.3119 53.0395 71.7361 53.5741Z" fill="#F7EDFF"/>
<path d="M80.5919 85.9661C80.592 86.2245 80.5412 86.4804 80.4423 86.7191C80.3434 86.9579 80.1985 87.1748 80.0158 87.3576C79.833 87.5403 79.6161 87.6852 79.3774 87.7841C79.1386 87.883 78.8827 87.9338 78.6243 87.9337H46.9417C45.2065 87.9338 43.5354 87.2779 42.2636 86.0974C40.9918 84.917 40.2133 83.2993 40.0842 81.5689C39.9552 79.8385 40.4852 78.1233 41.5679 76.7672C42.6505 75.4112 44.2059 74.5147 45.9219 74.2574L61.3953 71.9365V65.5376H72.0601L73.5625 69.2916C74.0671 70.5541 74.2733 71.9161 74.165 73.2714C74.0566 74.6267 73.6366 75.9386 72.9377 77.1048C72.2389 78.2711 71.28 79.2601 70.136 79.9948C68.992 80.7294 67.6937 81.1899 66.3424 81.3402L64.5947 81.5348L58.5637 81.9121L61.3953 82.1147L67.6795 82.5627L69.4619 80.7803C69.7723 80.4698 70.1776 80.272 70.6134 80.2184C71.0491 80.1647 71.4903 80.2584 71.8668 80.4843L77.2552 83.7171C77.5607 83.9007 77.9106 83.9974 78.267 83.9971H78.6243C78.8828 83.9971 79.1387 84.0481 79.3775 84.1471C79.6163 84.2461 79.8332 84.3912 80.0159 84.574C80.1987 84.7569 80.3436 84.9739 80.4424 85.2128C80.5412 85.4516 80.592 85.7076 80.5919 85.9661Z" fill="#FFEDDF"/>
<path d="M74.193 72.5697C74.1932 74.7415 73.3923 76.8371 71.9438 78.4553C70.4954 80.0735 68.5009 81.1007 66.3424 81.3402L64.5947 81.5348L58.5637 81.9121L61.3953 82.1147V87.9337H46.9417C45.2065 87.9338 43.5354 87.2779 42.2636 86.0974C40.9918 84.917 40.2133 83.2993 40.0842 81.5689C39.9552 79.8385 40.4852 78.1233 41.5679 76.7672C42.6505 75.4112 44.2059 74.5147 45.9219 74.2574L61.3953 71.9365V65.5376H72.0601L73.5625 69.2916C73.9779 70.3347 74.1918 71.447 74.193 72.5697Z" fill="url(#paint0_linear)"/>
<path d="M64.5948 47.4075V63.4047L57.1294 68.7371H50.7305L48.5975 70.8701L48.6419 73.8473L57.3794 72.5364L67.5896 68.5771C68.3209 68.2935 68.9806 67.852 69.5217 67.2842C70.0629 66.7163 70.472 66.0361 70.7201 65.292C70.9013 64.7483 70.9937 64.179 70.9937 63.606V47.4075C70.9937 46.5589 70.6566 45.7451 70.0566 45.1451C69.4566 44.5451 68.6428 44.208 67.7942 44.208C66.9457 44.208 66.1319 44.5451 65.5319 45.1451C64.9319 45.7451 64.5948 46.5589 64.5948 47.4075Z" fill="#FFF2E8"/>
<path d="M73.1315 38.0045C73.1835 39.3833 73.7674 40.6883 74.7606 41.646C75.7538 42.6036 77.0793 43.1395 78.459 43.1413H80.5919C80.7737 43.1412 80.9525 43.0948 81.1113 43.0062C81.2701 42.9177 81.4036 42.7901 81.4991 42.6354C81.5947 42.4808 81.6492 42.3043 81.6573 42.1227C81.6655 41.9411 81.6271 41.7604 81.5458 41.5978L80.5919 39.69V31.4099C80.5904 29.9962 80.028 28.6408 79.0284 27.6411C78.0287 26.6414 76.6733 26.0791 75.2595 26.0775V28.2105C76.1078 28.2115 76.921 28.5488 77.5208 29.1486C78.1206 29.7485 78.458 30.5617 78.459 31.4099V37.4664C78.459 38.7087 78.299 39.8734 78.8664 41.0083H78.459C77.6107 41.0073 76.7975 40.6699 76.1977 40.0701C75.5979 39.4703 75.2605 38.6571 75.2595 37.8088V31.4099C75.2589 31.2844 75.236 31.16 75.1918 31.0425C75.0084 29.699 74.4457 28.4356 73.5698 27.4005C72.5686 26.222 71.1955 25.4198 69.6772 25.1264C68.7573 24.9521 67.8298 25.0109 66.8999 25.0048C65.2114 24.9936 63.6315 25.458 62.4232 26.6812C61.3723 27.7493 60.7854 29.189 60.79 30.6874V31.0731L59.3933 33.624C59.2707 33.848 59.2325 34.1086 59.2857 34.3584C59.339 34.6082 59.4801 34.8306 59.6834 34.9852L60.7899 35.8263V37.6609C60.7884 38.2083 61.0041 38.7341 61.3898 39.1227C61.7754 39.5113 62.2994 39.7311 62.8469 39.7338H64.2133V43.7823L58.6768 49.6176C58.1115 50.213 57.6832 50.9248 57.4219 51.7031C57.1606 52.4814 57.0726 53.3074 57.164 54.1233C57.2554 54.9391 57.5241 55.7252 57.9512 56.4263C58.3784 57.1275 58.9536 57.7268 59.6366 58.1823L60.3288 58.643V65.1409L56.7877 67.6704H50.7304C50.5904 67.6703 50.4517 67.6979 50.3223 67.7515C50.1929 67.8051 50.0753 67.8837 49.9763 67.9827L47.8433 70.1157C47.7424 70.2166 47.6627 70.3367 47.6091 70.469C47.5554 70.6013 47.5289 70.7429 47.531 70.8857L47.5615 72.9329L45.7637 73.2027C43.7818 73.5002 41.9856 74.5359 40.7353 76.1022C39.485 77.6685 38.873 79.6495 39.022 81.648C39.171 83.6466 40.0701 85.515 41.5389 86.8784C43.0077 88.2419 44.9376 88.9998 46.9418 89H53.9299V86.867H46.9418C45.4756 86.8672 44.0635 86.3131 42.9889 85.3157C41.9142 84.3183 41.2564 82.9515 41.1474 81.4894C41.0384 80.0272 41.4862 78.578 42.4011 77.4322C43.3159 76.2865 44.6302 75.5291 46.0802 75.3118L61.5534 72.9909C61.564 72.9893 61.5744 72.9866 61.5851 72.9856L66.251 72.1413L65.9295 70.3644L67.9749 69.5712C69.4097 69.0173 70.5959 67.9634 71.3149 66.6039H71.3382L72.5719 69.6867C74.1075 73.5231 72.2718 78.016 68.4916 79.6739C66.6786 80.4688 60.1955 80.957 55.5233 80.6293C53.516 80.4885 51.5087 80.3452 49.5016 80.1993L47.607 80.0639L47.455 82.1914L60.3288 83.1113V86.867H56.0628V89H78.5636C79.3684 88.9999 80.1402 88.68 80.7092 88.1109C81.2782 87.5417 81.5978 86.7698 81.5977 85.965C81.5976 85.1602 81.2778 84.3884 80.7086 83.8194C80.1394 83.2504 79.3675 82.9308 78.5627 82.9309H78.2064C78.043 82.931 77.8826 82.8865 77.7426 82.8024L72.3575 79.5712C73.7281 78.2018 74.6667 76.4604 75.057 74.5626C75.4472 72.6649 75.272 70.6943 74.553 68.8952L73.0504 65.1407L72.0601 62.6659V56.4392L72.901 53.356C73.756 50.2249 73.4575 46.8909 72.0601 43.9614V39.3019C72.4432 38.8916 72.801 38.4583 73.1315 38.0045ZM76.645 84.6313C77.1167 84.9143 77.6563 85.0637 78.2064 85.0637H78.5627C78.6811 85.0637 78.7984 85.0869 78.9078 85.1322C79.0172 85.1775 79.1166 85.2438 79.2004 85.3275C79.2842 85.4112 79.3506 85.5105 79.396 85.6199C79.4414 85.7293 79.4648 85.8465 79.4648 85.9649C79.4649 86.0833 79.4416 86.2006 79.3964 86.31C79.3511 86.4194 79.2847 86.5189 79.2011 86.6026C79.1174 86.6864 79.018 86.7529 78.9086 86.7982C78.7993 86.8436 78.682 86.867 78.5636 86.867H62.4617V83.2633L67.5418 83.6261C67.6943 83.6372 67.8473 83.6152 67.9906 83.5618C68.1338 83.5084 68.2639 83.4248 68.3719 83.3166L70.155 81.5336C70.297 81.3911 70.4827 81.3004 70.6823 81.2759C70.8819 81.2513 71.084 81.2944 71.2564 81.3981L76.645 84.6313ZM63.5282 47.6034V49.5408C63.1923 49.248 62.8815 48.9275 62.5992 48.5827L63.5282 47.6034ZM59.2623 53.4957C59.2607 52.5988 59.6052 51.7358 60.2239 51.0864L61.1198 50.1419C61.8176 50.9412 62.6291 51.6336 63.5282 52.1969V57.0055H61.718L60.8202 56.4074C60.3404 56.0882 59.947 55.6553 59.6752 55.1472C59.4034 54.6392 59.2615 54.0717 59.2623 53.4955V53.4957ZM63.5282 59.1385V62.8556L62.4617 63.6173V59.1385H63.5282ZM69.9271 63.6057C69.927 64.4659 69.6669 65.3059 69.1809 66.0156C68.695 66.7253 68.0058 67.2715 67.2039 67.5825L57.104 71.4992L49.6906 72.6112L49.6712 71.3048L51.1721 69.8033H57.1293C57.3516 69.8033 57.5683 69.7339 57.7492 69.6047L65.2146 64.2723C65.3527 64.1736 65.4653 64.0434 65.543 63.8924C65.6207 63.7415 65.6612 63.5742 65.6612 63.4044V47.4072C65.6612 46.8415 65.8859 46.299 66.2859 45.899C66.6859 45.4989 67.2285 45.2742 67.7942 45.2742C68.3599 45.2742 68.9024 45.4989 69.3024 45.899C69.7024 46.299 69.9271 46.8415 69.9271 47.4072V63.6057ZM69.9271 43.7158C69.3898 43.4044 68.7909 43.2143 68.1723 43.1589C67.5537 43.1035 66.9305 43.1842 66.3464 43.3952V38.6674C66.3464 38.3845 66.234 38.1132 66.034 37.9132C65.834 37.7132 65.5628 37.6009 65.2799 37.6009H62.923V35.2973C62.923 35.1329 62.885 34.9707 62.8119 34.8234C62.7389 34.6761 62.6328 34.5477 62.5019 34.4482L61.7053 33.8429C61.6867 33.8287 62.5115 32.4811 62.5805 32.3411C62.8289 31.8267 62.9466 31.2589 62.923 30.6881C62.9193 30.1242 63.0503 29.5675 63.3052 29.0645C63.5601 28.5614 63.9314 28.1265 64.3883 27.796L67.2932 31.7351C67.4442 31.9399 67.6635 32.0839 67.9115 32.1412C68.1594 32.1984 68.4197 32.1651 68.6452 32.0473L68.9908 31.8669C69.0578 31.8313 69.1322 31.8115 69.2082 31.8092C69.2841 31.8069 69.3595 31.8221 69.4287 31.8536C69.5038 31.8873 69.5702 31.9379 69.6225 32.0015C69.6748 32.0651 69.7117 32.14 69.7302 32.2202C69.7542 32.3144 69.7538 32.4132 69.7288 32.5072C69.7039 32.6012 69.6554 32.6872 69.5878 32.7572L68.606 33.7557C68.4638 33.9003 68.3658 34.0824 68.3235 34.2808C68.2811 34.4791 68.2962 34.6854 68.367 34.8755L69.9271 39.0674V43.7158ZM71.3643 36.8141L70.6026 34.767L71.1092 34.2523C71.4321 33.9208 71.6651 33.5123 71.7858 33.0656C71.9066 32.6189 71.9113 32.1487 71.7993 31.6996C71.7024 31.3067 71.5172 30.941 71.2577 30.6304C70.9983 30.3198 70.6714 30.0724 70.302 29.9071C69.7358 29.6514 69.0972 29.6053 68.5002 29.7772L66.5582 27.144H68.4502C68.5168 27.144 68.5835 27.1455 68.6491 27.148C69.2819 27.1749 69.902 27.334 70.4695 27.6153C71.037 27.8965 71.5392 28.2936 71.9438 28.7808C73.9474 31.1412 73.0379 34.5482 71.3643 36.8135V36.8141Z" fill="#333333"/>
<defs>
<linearGradient id="paint0_linear" x1="74.193" y1="76.7357" x2="40.0652" y2="76.7357" gradientUnits="userSpaceOnUse">
<stop stop-color="#BA58E1"/>
<stop offset="1" stop-color="#6F49BC"/>
</linearGradient>
</defs>
</svg>
