<svg width="60" height="60" viewBox="0 0 60 60" fill="none" xmlns="http://www.w3.org/2000/svg">
<path d="M36.9248 49.375H23.1498C22.0498 49.375 20.6498 49.25 19.7248 48.3C18.8248 47.375 18.8498 46.225 18.8748 45.45V43.225C12.5748 39.025 8.4248 31.725 8.4248 24.775C8.4248 18.2 11.3748 12.05 16.4998 7.925C21.6248 3.8 28.3498 2.25 34.9248 3.7C41.1748 5.075 46.5748 9.25 49.3748 14.875C54.7998 25.8 49.5748 37.625 41.2248 43.25V45.125C41.2498 45.85 41.2748 47.175 40.2498 48.225C39.4748 48.975 38.3748 49.375 36.9248 49.375ZM22.5998 45.6C22.7248 45.6 22.8998 45.625 23.1248 45.625H36.9248C37.1748 45.625 37.3498 45.6 37.4498 45.575C37.4498 45.5 37.4498 45.4 37.4498 45.325V42.175C37.4498 41.525 37.7998 40.9 38.3498 40.575C45.7498 36.1 50.6498 25.875 45.9748 16.5C43.6748 11.875 39.2248 8.45 34.0748 7.325C28.6248 6.125 23.0498 7.4 18.7998 10.825C14.5498 14.25 12.1248 19.325 12.1248 24.775C12.1248 31.725 16.9248 37.725 21.6748 40.6C22.2498 40.95 22.5748 41.55 22.5748 42.2V45.575C22.5998 45.575 22.5998 45.575 22.5998 45.6Z" fill="#FFCC00"/>
<path d="M38.7502 56.8751C38.5751 56.8751 38.4002 56.8501 38.2251 56.8001C32.8251 55.2501 27.1501 55.2501 21.7501 56.8001C20.7501 57.0751 19.7251 56.5001 19.4251 55.5001C19.1251 54.5001 19.7251 53.4751 20.7251 53.1751C26.7751 51.4501 33.2001 51.4501 39.2501 53.1751C40.2502 53.4501 40.8251 54.5001 40.5501 55.5001C40.3251 56.3501 39.5751 56.8751 38.7502 56.8751Z" fill="#403300"/>
</svg>
