<svg width="48" height="48" viewBox="0 0 48 48" fill="none" xmlns="http://www.w3.org/2000/svg">
<path fill-rule="evenodd" clip-rule="evenodd" d="M32.7994 42.4004H15.1994C14.7576 42.4004 14.3994 42.7585 14.3994 43.2004C14.3994 43.6422 14.7576 44.0004 15.1994 44.0004H32.7994C33.2413 44.0004 33.5994 43.6423 33.5994 43.2004C33.5994 42.7585 33.2412 42.4004 32.7994 42.4004Z" fill="#0D4EE3"/>
<path d="M9.5998 33.6328V42.4C9.60335 45.4913 12.1084 47.9964 15.1998 48H32.7998C35.8911 47.9964 38.3962 45.4914 38.3998 42.4V33.6328C40.7774 29.9135 40.0846 25.252 39.0174 21.8816C39.1317 21.5321 39.1932 21.1676 39.1998 20.7999C39.1884 19.9428 38.9086 19.1107 38.3998 18.4208V5.60001C38.3962 2.50863 35.8911 0.00355386 32.7998 0H15.1998C12.1085 0.00355386 9.60335 2.50863 9.5998 5.60001V18.4208C9.09096 19.1108 8.81123 19.9428 8.79978 20.8C8.80634 21.1677 8.86786 21.5322 8.98221 21.8817C7.91495 25.252 7.22218 29.9144 9.5998 33.6328ZM15.2293 16.58C15.2647 17.1223 15.3506 17.6602 15.4862 18.1864C13.7214 18.8576 12.4462 19.7016 12.091 20.46C11.9889 20.6764 11.9889 20.9269 12.091 21.1432C12.7934 22.6232 17.1773 24.7145 23.5446 24.7912C23.6958 24.8 23.847 24.8 23.9982 24.8C24.1495 24.8 24.3006 24.8 24.415 24.792C30.819 24.712 35.2031 22.6232 35.9055 21.1432C36.0076 20.9269 36.0076 20.6764 35.9055 20.46C35.5487 19.7016 34.275 18.86 32.5103 18.1864C32.6457 17.6602 32.7317 17.1223 32.7671 16.58C35.7735 17.6544 37.5999 19.2264 37.5999 20.8C37.5999 23.504 32.1351 26.4 23.9999 26.4C15.8647 26.4 10.3999 23.504 10.3999 20.8C10.3998 19.2264 12.2262 17.6544 15.2293 16.58ZM31.9758 19.6952C32.7349 19.9646 33.4539 20.3362 34.1126 20.7999C32.8187 21.6548 31.3711 22.25 29.8502 22.5527C30.7453 21.7544 31.4686 20.7822 31.9758 19.6952ZM31.1998 15.9999C31.1998 19.9764 27.9762 23.1999 23.9998 23.1999C20.0234 23.1999 16.7998 19.9763 16.7998 15.9999C16.7998 12.0236 20.0234 8.79999 23.9998 8.79999C27.9744 8.80441 31.1953 12.0254 31.1998 15.9999ZM18.1526 22.56C16.6304 22.2568 15.1814 21.661 13.8862 20.8056C14.5449 20.3402 15.2641 19.9672 16.0238 19.6968C16.5316 20.7858 17.2559 21.76 18.1526 22.56ZM11.1998 35.532C12.1638 36.3938 13.2655 37.088 14.459 37.5855L12.4727 39.0399C12.228 39.2192 11.9029 39.2447 11.6333 39.1057C11.3637 38.9667 11.1958 38.6872 11.1999 38.3839L11.1998 35.532ZM32.7998 46.4H15.1998C12.9918 46.3973 11.2024 44.608 11.1998 42.4V40.64C11.942 40.9299 12.7816 40.8132 13.4166 40.332L16.2766 38.236C18.7924 38.9215 21.3928 39.2461 23.9998 39.1999C26.6067 39.2474 29.2071 38.9242 31.723 38.2399L34.5845 40.3367C35.22 40.8161 36.0588 40.9309 36.7997 40.6399V42.3999C36.7971 44.608 35.0078 46.3973 32.7998 46.4ZM33.5406 37.5855C34.7341 37.0879 35.8357 36.3938 36.7998 35.532V38.3935C36.8065 38.6944 36.6388 38.9722 36.3694 39.1063C36.1003 39.2494 35.7729 39.2245 35.5286 39.0424L33.5406 37.5855ZM36.9373 32.96C34.8501 36.0384 30.4974 37.6 23.9997 37.6C17.5021 37.6 13.1493 36.0384 11.0613 32.96C9.18368 30.1976 9.39809 26.668 10.1125 23.7664C12.4573 26.2816 17.7221 28 23.9997 28C30.2773 28 35.5421 26.2816 37.8869 23.7648C38.6013 26.6663 38.8158 30.196 36.9373 32.96ZM31.6182 1.60003L31.0582 2.9944C30.8176 3.60274 30.2291 4.00172 29.5749 3.99999H18.4246C17.7698 4.00236 17.1806 3.6033 16.9398 2.9944L16.3822 1.60003H31.6182ZM14.679 1.65278L15.4534 3.58798C15.9358 4.80584 17.1146 5.6042 18.4246 5.60001H29.5749C30.8847 5.60436 32.0635 4.8064 32.5462 3.58877L33.3206 1.65278C35.3059 1.91024 36.7936 3.59808 36.7998 5.60001V16.8392C35.5516 15.9737 34.1747 15.3104 32.7199 14.8736C32.158 10.4859 28.4234 7.19901 23.9999 7.19901C19.5763 7.19901 15.8417 10.4859 15.2799 14.8736C13.8251 15.3104 12.4482 15.9737 11.1999 16.8392V5.60001C11.206 3.59808 12.6937 1.91032 14.679 1.65278Z" fill="#0D4EE3"/>
<path d="M26.4 14.0004C26.4 14.4422 26.7582 14.8004 27.2 14.8004C27.6419 14.8004 28.0001 14.4422 28.0001 14.0004C28.0001 12.6227 26.6472 11.5084 24.8001 11.2556V11.2004C24.8001 10.7585 24.4419 10.4004 24.0001 10.4004C23.5582 10.4004 23.2001 10.7585 23.2001 11.2004V11.2556C21.3528 11.5084 20.0001 12.6228 20.0001 14.0004C20.0001 15.3779 21.3529 16.4923 23.2001 16.7451V19.1203C22.2497 18.9355 21.6 18.4499 21.6 18.0003C21.6 17.5584 21.2419 17.2003 20.8 17.2003C20.3582 17.2003 20 17.5584 20 18.0003C20 19.3779 21.3528 20.4922 23.2 20.745V20.8002C23.2 21.2421 23.5581 21.6003 24 21.6003C24.4419 21.6003 24.8 21.2421 24.8 20.8002V20.745C26.6472 20.4922 28 19.3778 28 18.0003C28 16.6227 26.6471 15.5083 24.8 15.2555V12.8804C25.7505 13.0659 26.4 13.5516 26.4 14.0004ZM21.6 14.0004C21.6 13.5516 22.2496 13.0659 23.2001 12.8804V15.1203C22.2497 14.9348 21.6 14.4492 21.6 14.0004ZM26.4 18.0004C26.4 18.4492 25.7505 18.9348 24.8 19.1204V16.8804C25.7505 17.0659 26.4 17.5515 26.4 18.0004Z" fill="#0D4EE3"/>
<path fill-rule="evenodd" clip-rule="evenodd" d="M27.9994 30.4004H26.3993C25.982 30.4264 25.655 30.7694 25.6491 31.1876C25.6432 31.6058 25.9604 31.9579 26.3769 31.9956C26.2641 32.8804 25.2273 33.6004 23.9993 33.6004C22.7713 33.6004 21.7345 32.8804 21.6217 31.9956C22.0382 31.9579 22.3554 31.6058 22.3495 31.1876C22.3437 30.7694 22.0167 30.4264 21.5993 30.4004H19.9992C19.5574 30.4004 19.1992 30.7585 19.1992 31.2004C19.1992 31.6423 19.5574 32.0004 19.9992 32.0004H20.0184C20.12 33.7772 21.8585 35.2004 23.9992 35.2004C26.14 35.2004 27.8785 33.7772 27.98 32.0004H27.9992C28.4411 32.0004 28.7992 31.6423 28.7992 31.2004C28.7992 30.7585 28.4411 30.4004 27.9994 30.4004Z" fill="#0D4EE3"/>
</svg>
