<svg width="54" height="54" viewBox="0 0 54 54" fill="none" xmlns="http://www.w3.org/2000/svg">
<rect width="54" height="54" rx="27" fill="#0D4EE3"/>
<g clip-path="url(#clip0_387_22540)">
<path d="M40.3328 15.2676H13.6661C13.3716 15.2676 13.1328 15.5064 13.1328 15.8009C13.1328 16.0955 13.3716 16.3342 13.6661 16.3342H40.3328C40.6274 16.3342 40.8661 16.0955 40.8661 15.8009C40.8661 15.5063 40.6273 15.2676 40.3328 15.2676Z" fill="white"/>
<path d="M14.1993 14.1994C14.4939 14.1994 14.7326 13.9607 14.7326 13.6661C14.7326 13.3716 14.4939 13.1328 14.1993 13.1328C13.9048 13.1328 13.666 13.3716 13.666 13.6661C13.666 13.9607 13.9048 14.1994 14.1993 14.1994Z" fill="white"/>
<path d="M16.3341 14.1994C16.6286 14.1994 16.8674 13.9607 16.8674 13.6661C16.8674 13.3716 16.6286 13.1328 16.3341 13.1328C16.0396 13.1328 15.8008 13.3716 15.8008 13.6661C15.8008 13.9607 16.0396 14.1994 16.3341 14.1994Z" fill="white"/>
<path d="M18.4669 14.1994C18.7614 14.1994 19.0002 13.9607 19.0002 13.6661C19.0002 13.3716 18.7614 13.1328 18.4669 13.1328C18.1724 13.1328 17.9336 13.3716 17.9336 13.6661C17.9336 13.9607 18.1724 14.1994 18.4669 14.1994Z" fill="white"/>
<path d="M40.3333 11H13.6667C12.1946 11.0018 11.0018 12.1946 11 13.6667V40.3334C11.0018 41.8054 12.1946 42.9982 13.6667 43H40.3334C41.8054 42.9982 42.9982 41.8054 43.0001 40.3333V13.6667C42.9982 12.1946 41.8054 11.0018 40.3333 11ZM41.9333 40.3333C41.9333 41.2169 41.2169 41.9333 40.3333 41.9333H13.6667C12.7831 41.9333 12.0667 41.2169 12.0667 40.3333V13.6667C12.0667 12.7831 12.7831 12.0667 13.6667 12.0667H40.3334C41.217 12.0667 41.9334 12.7831 41.9334 13.6667L41.9333 40.3333Z" fill="white"/>
<path d="M35.5124 28.6252C35.284 23.5259 31.6383 19.2253 26.6452 18.1652C21.6521 17.1051 16.5735 19.5531 14.2927 24.1196C12.0119 28.6861 13.1055 34.217 16.9525 37.572C20.7994 40.927 26.4275 41.2583 30.6415 38.3778C32.397 40.3362 35.2419 40.8858 37.6005 39.722C39.959 38.5581 41.2537 35.966 40.7673 33.3813C40.281 30.7966 38.1327 28.8522 35.5124 28.6252ZM29.1343 34.4658H28.9999L27.4335 32.246L28.8133 28.1393L31.3061 27.2951L33.4165 28.8236C30.8877 29.5348 29.139 31.839 29.1343 34.4658ZM19.6687 34.4658H15.7343C14.848 33.0425 14.3315 31.4201 14.232 29.7463L17.3423 27.4103L19.8597 28.1511L21.2351 32.2461L19.6687 34.4658ZM15.7402 23.7895L16.6153 26.622L14.2377 28.4076C14.3534 26.7685 14.8693 25.1828 15.7402 23.7895ZM22.21 31.7991L20.9087 27.925L24.3343 25.518L27.76 27.925L26.4586 31.7991H22.21ZM32.8357 23.6391C33.7323 25.0203 34.2784 26.5995 34.4266 28.2396L32.0143 26.4887L32.8357 23.6391ZM32.0357 22.5639L30.9605 26.2876L28.4773 27.1287L24.8677 24.5885V21.9431L28.0533 19.7031C29.5963 20.3125 30.9645 21.2945 32.0357 22.5613V22.5639ZM26.7759 19.2978L24.3343 21.0135L21.9044 19.3068C23.5025 18.9006 25.1765 18.8979 26.7758 19.2988V19.2978H26.7759ZM20.6255 19.7116L23.801 21.9431V24.5884L20.1796 27.1335L17.6607 26.3921L16.5172 22.6913C17.6129 21.367 19.0263 20.3418 20.6255 19.7116ZM16.4863 35.5324H19.5615L20.5705 38.533C18.9778 37.8933 17.5728 36.8611 16.4863 35.5324ZM21.8324 38.9404L20.5364 35.0855L22.1028 32.8657H26.5657L28.1321 35.0855L26.8313 38.9553C26.015 39.1615 25.1763 39.2658 24.3343 39.2657C23.49 39.2625 22.6495 39.1531 21.8324 38.9404ZM28.0959 38.5399L29.1071 35.5325H29.2362C29.3671 36.2376 29.6273 36.9124 30.0036 37.5228C29.4062 37.9295 28.7665 38.2705 28.0959 38.5399ZM35.001 39.2658C32.35 39.2658 30.201 37.1167 30.201 34.4658C30.201 31.8148 32.35 29.6658 35.001 29.6658C37.6519 29.6658 39.801 31.8148 39.801 34.4658C39.798 37.1155 37.6507 39.2628 35.001 39.2658Z" fill="white"/>
<path d="M36.6006 33.1324C36.6006 33.427 36.8394 33.6657 37.1339 33.6657C37.4285 33.6657 37.6672 33.427 37.6672 33.1324C37.6672 32.214 36.7654 31.4711 35.5339 31.3025V31.2657C35.5339 30.9712 35.2952 30.7324 35.0006 30.7324C34.706 30.7324 34.4673 30.9712 34.4673 31.2657V31.3025C33.2359 31.4711 32.334 32.214 32.334 33.1324C32.334 34.0509 33.2359 34.7937 34.4673 34.9623V36.5457C33.8337 36.4225 33.4006 36.0988 33.4006 35.799C33.4006 35.5045 33.1618 35.2657 32.8673 35.2657C32.5727 35.2657 32.334 35.5045 32.334 35.799C32.334 36.7174 33.2359 37.4604 34.4673 37.6289V37.6657C34.4673 37.9603 34.7061 38.199 35.0006 38.199C35.2951 38.199 35.5339 37.9603 35.5339 37.6657V37.6289C36.7654 37.4604 37.6672 36.7175 37.6672 35.799C37.6672 34.8806 36.7654 34.1377 35.5339 33.9692V32.3857C36.1675 32.5095 36.6006 32.8332 36.6006 33.1324ZM33.4006 33.1324C33.4006 32.8332 33.8337 32.5095 34.4673 32.3857V33.879C33.8337 33.7554 33.4006 33.4317 33.4006 33.1324ZM36.6006 35.7991C36.6006 36.0983 36.1675 36.422 35.5339 36.5458V35.0525C36.1675 35.1762 36.6006 35.4999 36.6006 35.7991Z" fill="white"/>
</g>
<defs>
<clipPath id="clip0_387_22540">
<rect width="32" height="32" fill="white" transform="translate(11 11)"/>
</clipPath>
</defs>
</svg>
