<svg width="54" height="54" viewBox="0 0 54 54" fill="none" xmlns="http://www.w3.org/2000/svg">
<rect width="54" height="54" rx="27" fill="#0D4EE3"/>
<g clip-path="url(#clip0_387_23195)">
<path d="M40.3333 11H13.6667C12.1946 11.0018 11.0018 12.1946 11 13.6667V40.3334C11.0018 41.8054 12.1946 42.9982 13.6667 43H40.3334C41.8054 42.9982 42.9982 41.8054 43.0001 40.3333V13.6667C42.9982 12.1946 41.8054 11.0018 40.3333 11ZM41.9333 40.3333C41.9333 41.2169 41.2169 41.9333 40.3333 41.9333H13.6667C12.7831 41.9333 12.0667 41.2169 12.0667 40.3333V13.6667C12.0667 12.7831 12.7831 12.0667 13.6667 12.0667H40.3334C41.217 12.0667 41.9334 12.7831 41.9334 13.6667L41.9333 40.3333Z" fill="white"/>
<path d="M40.3328 15.2676H13.6661C13.3716 15.2676 13.1328 15.5064 13.1328 15.8009C13.1328 16.0955 13.3716 16.3342 13.6661 16.3342H40.3328C40.6274 16.3342 40.8661 16.0955 40.8661 15.8009C40.8661 15.5063 40.6273 15.2676 40.3328 15.2676Z" fill="white"/>
<path d="M14.1993 14.1994C14.4939 14.1994 14.7326 13.9607 14.7326 13.6661C14.7326 13.3716 14.4939 13.1328 14.1993 13.1328C13.9048 13.1328 13.666 13.3716 13.666 13.6661C13.666 13.9607 13.9048 14.1994 14.1993 14.1994Z" fill="white"/>
<path d="M16.3341 14.1994C16.6286 14.1994 16.8674 13.9607 16.8674 13.6661C16.8674 13.3716 16.6286 13.1328 16.3341 13.1328C16.0396 13.1328 15.8008 13.3716 15.8008 13.6661C15.8008 13.9607 16.0396 14.1994 16.3341 14.1994Z" fill="white"/>
<path d="M18.4667 14.1994C18.7612 14.1994 19 13.9607 19 13.6661C19 13.3716 18.7612 13.1328 18.4667 13.1328C18.1721 13.1328 17.9334 13.3716 17.9334 13.6661C17.9334 13.9607 18.1721 14.1994 18.4667 14.1994Z" fill="white"/>
<path d="M38.7325 36.067H31.7992V33.9337C31.7992 33.3445 31.3217 32.867 30.7325 32.867V31.267C30.7324 30.5067 30.1974 29.8515 29.4525 29.6995C29.0691 28.9619 28.8204 28.1618 28.7182 27.3368C28.9774 27.2491 29.2262 27.133 29.46 26.9907C33.9533 26.8307 33.9432 23.5411 33.9304 21.1283C33.926 20.5428 33.4515 20.0696 32.8658 20.067H31.2658V19.0003C31.2658 18.4112 30.7883 17.9336 30.1992 17.9336H23.7992C23.2101 17.9336 22.7325 18.4112 22.7325 19.0003V20.067H21.1325C20.5463 20.0684 20.0705 20.5416 20.0658 21.1278C20.053 23.5422 20.0429 26.8345 24.5357 26.9902C24.7696 27.1328 25.0186 27.2492 25.2781 27.3368C25.1758 28.1618 24.9271 28.9619 24.5437 29.6995C23.7997 29.8525 23.2657 30.5074 23.2658 31.267V32.867C22.6767 32.867 22.1992 33.3445 22.1992 33.9337V36.067H15.2659C14.6768 36.067 14.1992 36.5445 14.1992 37.1337V39.267C14.1992 39.8561 14.6768 40.3337 15.2659 40.3337H38.7326C39.3217 40.3337 39.7993 39.8561 39.7993 39.267V37.1337C39.7992 36.5445 39.3217 36.067 38.7325 36.067ZM32.8659 21.1336C32.8787 23.5165 32.7059 25.2136 30.7107 25.7502C31.0735 25.1645 31.2657 24.4892 31.2659 23.8003V21.1336H32.8659ZM30.1992 19.0003V23.8003C30.1968 25.2721 29.0043 26.4646 27.5325 26.467H26.4658C24.994 26.4646 23.8015 25.2721 23.7992 23.8003V19.0003H30.1992ZM21.1325 21.1336H22.7325V23.8003C22.7328 24.4899 22.9257 25.1658 23.2893 25.7517C21.2925 25.2163 21.1208 23.5182 21.1325 21.1336ZM27.6702 27.5267C27.7736 28.2612 27.9676 28.9801 28.2478 29.6669H25.7507C26.0309 28.9801 26.2249 28.2612 26.3283 27.5267C26.5507 27.5336 27.324 27.5395 27.6702 27.5267ZM24.3325 31.267C24.3325 30.9724 24.5713 30.7337 24.8658 30.7337H29.1325C29.4271 30.7337 29.6658 30.9725 29.6658 31.267V32.867H24.3325V31.267ZM15.2659 37.1336H22.1992V39.2669H15.2659V37.1336ZM23.2659 36.6003V33.9336H30.7326V39.2669H23.2659V36.6003ZM38.7325 39.267H31.7992V37.1337H38.7325V39.267Z" fill="white"/>
<path d="M16.8675 32.3334C16.8675 32.0389 16.6287 31.8001 16.3342 31.8001C16.0397 31.8001 15.8008 32.0389 15.8008 32.3334C15.8008 33.3638 16.7187 34.2252 17.9342 34.4235V34.4667C17.9342 34.7613 18.173 35 18.4675 35C18.762 35 19.0008 34.7612 19.0008 34.4667V34.4235C20.2162 34.2252 21.1341 33.3638 21.1341 32.3334C21.1341 31.303 20.2162 30.4417 19.0008 30.2433V28.1345C19.6141 28.2854 20.0675 28.6795 20.0675 29.1334C20.0675 29.428 20.3062 29.6667 20.6008 29.6667C20.8953 29.6667 21.1341 29.4279 21.1341 29.1334C21.1341 28.103 20.2162 27.2417 19.0008 27.0433V27.0001C19.0008 26.7055 18.762 26.4668 18.4675 26.4668C18.1729 26.4668 17.9342 26.7056 17.9342 27.0001V27.0433C16.7187 27.2417 15.8008 28.103 15.8008 29.1334C15.8008 30.1638 16.7187 31.0252 17.9341 31.2235V33.3324C17.3208 33.1814 16.8675 32.7873 16.8675 32.3334ZM20.0675 32.3334C20.0675 32.7873 19.6142 33.1814 19.0008 33.3324V31.3345C19.6141 31.4854 20.0675 31.8795 20.0675 32.3334ZM16.8675 29.1334C16.8675 28.6795 17.3208 28.2854 17.9342 28.1345V30.1324C17.3208 29.9814 16.8675 29.5873 16.8675 29.1334Z" fill="white"/>
<path d="M35.5338 26.4668C35.2392 26.4668 35.0005 26.7056 35.0005 27.0001V27.0433C33.7851 27.2417 32.8672 28.103 32.8672 29.1334C32.8672 30.1638 33.7851 31.0252 35.0005 31.2235V33.3324C34.3872 33.1814 33.9338 32.7873 33.9338 32.3334C33.9338 32.0389 33.6951 31.8001 33.4005 31.8001C33.1059 31.8001 32.8672 32.0389 32.8672 32.3334C32.8672 33.3638 33.7851 34.2252 35.0005 34.4235V34.4667C35.0005 34.7613 35.2392 35 35.5338 35C35.8284 35 36.0671 34.7612 36.0671 34.4667V34.4235C37.2826 34.2252 38.2004 33.3638 38.2004 32.3334C38.2004 31.303 37.2826 30.4417 36.0671 30.2433V28.1345C36.6804 28.2854 37.1338 28.6795 37.1338 29.1334C37.1338 29.428 37.3726 29.6667 37.6671 29.6667C37.9617 29.6667 38.2004 29.4279 38.2004 29.1334C38.2004 28.103 37.2826 27.2417 36.0671 27.0433V27.0001C36.0672 26.7055 35.8284 26.4668 35.5338 26.4668ZM33.9338 29.1334C33.9338 28.6795 34.3871 28.2854 35.0005 28.1345V30.1324C34.3872 29.9814 33.9338 29.5873 33.9338 29.1334ZM37.1338 32.3334C37.1338 32.7873 36.6805 33.1814 36.0671 33.3324V31.3345C36.6805 31.4854 37.1338 31.8795 37.1338 32.3334Z" fill="white"/>
</g>
<defs>
<clipPath id="clip0_387_23195">
<rect width="32" height="32" fill="white" transform="translate(11 11)"/>
</clipPath>
</defs>
</svg>
