<svg width="37" height="36" viewBox="0 0 37 36" fill="none" xmlns="http://www.w3.org/2000/svg">
<path opacity="0.4" d="M32.9753 15.045C32.3903 14.205 31.3553 13.725 30.1703 13.725H24.0203C23.6153 13.725 23.2403 13.56 22.9853 13.26C22.7153 12.96 22.6103 12.54 22.6703 12.105L23.4353 7.18496C23.7653 5.71496 22.7903 4.06496 21.3203 3.56996C19.9553 3.05996 18.3503 3.74996 17.7053 4.72496L11.3753 14.13L11.1953 14.43V27.69L11.4203 27.915L16.1753 31.59C16.8053 32.22 18.2303 32.565 19.2353 32.565H25.0853C27.0953 32.565 29.1203 31.05 29.5703 29.205L33.2603 17.97C33.6503 16.905 33.5453 15.87 32.9753 15.045Z" fill="#306F46"/>
<path d="M8.315 9.56995H6.77C4.445 9.56995 3.5 10.4699 3.5 12.6899V27.7799C3.5 29.9999 4.445 30.8999 6.77 30.8999H8.315C10.64 30.8999 11.585 29.9999 11.585 27.7799V12.6899C11.585 10.4699 10.64 9.56995 8.315 9.56995Z" fill="#306F46"/>
</svg>
