<svg width="24" height="24" viewBox="0 0 24 24" fill="none" xmlns="http://www.w3.org/2000/svg">
<circle cx="12" cy="12" r="12" fill="#0077B5"/>
<path fill-rule="evenodd" clip-rule="evenodd" d="M9.60441 7.3163C9.60441 8.0339 9.0873 8.61463 8.27863 8.61463C7.50147 8.61463 6.98436 8.0339 7.00036 7.3163C6.98436 6.56383 7.50145 6 8.29412 6C9.08729 6 9.58891 6.56383 9.60441 7.3163ZM7.06538 17.9989V9.6403H9.52389V17.9984L7.06538 17.9989Z" fill="white"/>
<path fill-rule="evenodd" clip-rule="evenodd" d="M11.4944 12.3078C11.4944 11.2653 11.4619 10.3764 11.4294 9.64141H13.5649L13.6784 10.7865H13.7269C14.0505 10.2565 14.8591 9.45382 16.1694 9.45382C17.7867 9.45382 19 10.582 19 13.0423V18H16.5415V13.3678C16.5415 12.2904 16.1859 11.5559 15.2962 11.5559C14.6166 11.5559 14.2125 12.0515 14.051 12.5298C13.9859 12.701 13.9539 12.9398 13.9539 13.1797V18H11.4954V12.3078H11.4944Z" fill="white"/>
</svg>
