<svg width="48" height="48" viewBox="0 0 48 48" fill="none" xmlns="http://www.w3.org/2000/svg">
<rect width="48" height="48" rx="24" fill="#2767AF"/>
<g clip-path="url(#clip0_207_4684)">
<path d="M18.8386 20.9509H15.3477V32.9206H18.8386V20.9509Z" fill="white"/>
<path d="M17.4325 19.1583C18.5746 18.9729 19.3501 17.8968 19.1647 16.7548C18.9793 15.6128 17.9032 14.8372 16.7612 15.0226C15.6192 15.208 14.8436 16.2841 15.029 17.4261C15.2144 18.5682 16.2905 19.3437 17.4325 19.1583Z" fill="white"/>
<path d="M27.0788 20.855C26.6161 20.9866 26.1898 21.2228 25.8328 21.5454C25.4759 21.8679 25.1979 22.2682 25.0203 22.7153V20.7526H21.5293V32.9222H25.0203V26.1584C25.0202 25.861 25.0793 25.5666 25.194 25.2922C25.3087 25.0179 25.4767 24.769 25.6884 24.5601C25.9 24.3512 26.151 24.1865 26.4269 24.0754C26.7027 23.9643 26.9979 23.9092 27.2952 23.9131C27.8885 23.9316 28.4512 24.1809 28.8634 24.608C29.2756 25.035 29.5049 25.6061 29.5025 26.1997V32.9222H32.9935V24.7425C33.0001 21.6447 29.7999 20.176 27.0788 20.855Z" fill="white"/>
</g>
<defs>
<clipPath id="clip0_207_4684">
<rect width="18" height="17.9207" fill="white" transform="translate(15 15)"/>
</clipPath>
</defs>
</svg>
