<svg width="84" height="74" viewBox="0 0 84 74" fill="none" xmlns="http://www.w3.org/2000/svg">
<path opacity="0.1" fill-rule="evenodd" clip-rule="evenodd" d="M37 74C57.4345 74 74 57.4345 74 37C74 16.5655 57.4345 0 37 0C16.5655 0 0 16.5655 0 37C0 57.4345 16.5655 74 37 74Z" fill="#7DA0B8"/>
<path fill-rule="evenodd" clip-rule="evenodd" d="M51.9998 20C53.8919 20 55.4257 21.5338 55.4257 23.4259C55.4257 24.8303 54.5795 26.0357 53.3701 26.5645V43.852C53.3701 44.6087 52.7565 45.2222 51.9998 45.2222C51.2431 45.2222 50.6296 44.6087 50.6296 43.852V26.5645C49.42 26.0357 48.574 24.8301 48.574 23.4259C48.574 21.5338 50.108 20 51.9998 20ZM40.4684 29.2872C41.2515 28.2245 41.3816 26.7576 40.6792 25.5412C39.7336 23.9027 37.6386 23.3413 35.9998 24.2872C34.3613 25.2333 33.8001 27.3283 34.7461 28.9669C35.4483 30.1831 36.7833 30.804 38.0953 30.6573L46.7394 45.6286C46.9932 46.0682 47.4536 46.3139 47.9274 46.3139C48.1598 46.3139 48.3955 46.2547 48.6114 46.1302C49.2667 45.7517 49.4914 44.9137 49.1128 44.2584L40.4684 29.2872ZM69.2536 28.9669C70.1996 27.3285 69.6384 25.2335 68 24.2872C66.3614 23.3413 64.2661 23.9028 63.3204 25.5412C62.6181 26.7576 62.7481 28.2242 63.5309 29.2869L54.8871 44.2582C54.5086 44.9135 54.7333 45.7516 55.3885 46.13C55.6042 46.2547 55.84 46.3138 56.0724 46.3138C56.5459 46.3138 57.0067 46.0679 57.2605 45.6285L65.9042 30.6573C67.2162 30.8042 68.5516 30.1831 69.2536 28.9669ZM59.7415 49.1128L74.7129 40.4689C75.7758 41.2519 77.243 41.3817 78.4591 40.6796C80.0972 39.7337 80.6589 37.6389 79.7128 35.9998C78.7668 34.3616 76.6717 33.8004 75.0331 34.7463C73.8169 35.4486 73.1961 36.7838 73.3427 38.0955L58.3712 46.7394C57.7159 47.1178 57.4912 47.9559 57.8696 48.6112C58.1235 49.0508 58.5839 49.2965 59.0577 49.2965C59.2901 49.2965 59.5259 49.2374 59.7415 49.1128ZM77.4355 50.6296C77.9645 49.4203 79.1697 48.5745 80.5738 48.5743C82.4659 48.5745 84 50.1083 84 52.0002C83.9997 53.8924 82.4657 55.426 80.5741 55.4259C79.1697 55.4259 77.9641 54.5799 77.4351 53.3701L60.1479 53.3703C59.391 53.3703 58.7776 52.7567 58.7776 52C58.7776 51.2433 59.391 50.6297 60.1479 50.6297L77.4355 50.6296ZM43.8518 50.6297L26.5644 50.6299C26.0354 49.4205 24.8298 48.5745 23.4255 48.5745C21.5338 48.5745 20 50.1081 20 52.0002C19.9998 53.8924 21.5338 55.4259 23.4259 55.426C24.83 55.426 26.0355 54.58 26.5645 53.3704L43.852 53.3703C44.6087 53.3703 45.2222 52.7567 45.2222 52C45.2222 51.2433 44.6085 50.6297 43.8518 50.6297ZM30.6568 38.0957L45.6283 46.7394C46.2838 47.1178 46.5085 47.9559 46.13 48.611C45.8762 49.0506 45.4154 49.2963 44.942 49.2963C44.7096 49.2963 44.4739 49.2372 44.2579 49.1126L29.2866 40.4689C28.224 41.2519 26.7569 41.3817 25.5405 40.6796C23.9028 39.7334 23.3408 37.6387 24.287 36C25.2332 34.3614 27.328 33.8003 28.9664 34.7461C30.1826 35.4484 30.8035 36.7837 30.6568 38.0957Z" fill="#618396"/>
</svg>
