<svg width="84" height="84" viewBox="0 0 84 84" fill="none" xmlns="http://www.w3.org/2000/svg">
<path opacity="0.1" fill-rule="evenodd" clip-rule="evenodd" d="M37 74C57.4345 74 74 57.4345 74 37C74 16.5655 57.4345 0 37 0C16.5655 0 0 16.5655 0 37C0 57.4345 16.5655 74 37 74Z" fill="#7DA0B8"/>
<path fill-rule="evenodd" clip-rule="evenodd" d="M84 35.125H69V20H57.75V35.125H46.25V20H35V35.125H20V68.875H35V84H46.25V68.875H57.75V84H69V68.875H84V35.125ZM80.25 38.875V42.625H69V38.875H80.25ZM69 57.625V46.375H72.75V57.625H69ZM76.5 46.375H80.25V57.625H76.5V46.375ZM57.75 38.875V42.625H46.25V38.875H57.75ZM57.75 46.375V57.625H46.25V46.375H57.75ZM35 38.875V42.625H23.75V38.875H35ZM23.75 57.625V46.375H27.5V57.625H23.75ZM31.25 46.375H35V57.625H31.25V46.375ZM23.75 65.125V61.375H35V65.125H23.75ZM42.5 80.25H38.75V23.75H42.5V80.25ZM46.25 65.125V61.375H57.75V65.125H46.25ZM65.25 80.25H61.5V23.75H65.25V80.25ZM69 65.125V61.375H80.25V65.125H69Z" fill="#618396"/>
</svg>
