<svg width="32" height="32" viewBox="0 0 32 32" fill="none" xmlns="http://www.w3.org/2000/svg">
<g clip-path="url(#clip0_387_24194)">
<path fill-rule="evenodd" clip-rule="evenodd" d="M29.3328 4.26562H2.66616C2.37158 4.26562 2.13281 4.50439 2.13281 4.79897C2.13281 5.09354 2.37158 5.33231 2.66616 5.33231H29.3328C29.6274 5.33231 29.8662 5.09354 29.8662 4.79897C29.8662 4.50439 29.6274 4.26562 29.3328 4.26562Z" fill="#0D4EE3"/>
<path d="M3.19936 3.1995C3.49392 3.1995 3.7327 2.96071 3.7327 2.66616C3.7327 2.3716 3.49392 2.13281 3.19936 2.13281C2.9048 2.13281 2.66602 2.3716 2.66602 2.66616C2.66602 2.96071 2.9048 3.1995 3.19936 3.1995Z" fill="#0D4EE3"/>
<path d="M5.33217 3.1995C5.62673 3.1995 5.86551 2.96071 5.86551 2.66616C5.86551 2.3716 5.62673 2.13281 5.33217 2.13281C5.03761 2.13281 4.79883 2.3716 4.79883 2.66616C4.79883 2.96071 5.03761 3.1995 5.33217 3.1995Z" fill="#0D4EE3"/>
<path d="M7.46694 3.1995C7.76149 3.1995 8.00028 2.96071 8.00028 2.66616C8.00028 2.3716 7.76149 2.13281 7.46694 2.13281C7.17238 2.13281 6.93359 2.3716 6.93359 2.66616C6.93359 2.96071 7.17238 3.1995 7.46694 3.1995Z" fill="#0D4EE3"/>
<path d="M27.7327 7.4668H4.26599C3.38232 7.4668 2.66602 8.18315 2.66602 9.06677V18.6668C2.66602 19.5505 3.38237 20.2668 4.26599 20.2668H27.7327C28.6163 20.2668 29.3327 19.5504 29.3327 18.6668V9.06683C29.3326 8.18315 28.6163 7.4668 27.7327 7.4668ZM3.73265 18.6668V9.06683C3.73265 8.77225 3.97142 8.53348 4.26599 8.53348H11.1993V19.2001H4.26599C3.97142 19.2001 3.73265 18.9614 3.73265 18.6668ZM12.266 19.2001V8.53348H19.7327V19.2001H12.266ZM28.266 18.6668C28.266 18.9614 28.0272 19.2001 27.7327 19.2001H20.7993V8.53348H27.7327C28.0272 8.53348 28.266 8.77225 28.266 9.06683V18.6668Z" fill="#0D4EE3"/>
<path fill-rule="evenodd" clip-rule="evenodd" d="M10.0739 10.953C9.982 10.7766 9.79967 10.666 9.60082 10.666H5.33412C5.03955 10.666 4.80078 10.9048 4.80078 11.1994C4.80078 11.4939 5.03955 11.7327 5.33412 11.7327H8.57625L7.45623 13.3327H5.86741C5.57284 13.3327 5.33407 13.5714 5.33407 13.866C5.33407 14.1606 5.57284 14.3994 5.86741 14.3994H6.70955L5.42953 16.2271C5.31333 16.3829 5.29116 16.5897 5.37156 16.7666C5.45201 16.9436 5.62233 17.0628 5.81613 17.0777C6.00994 17.0926 6.19653 17.0009 6.30309 16.8383L8.0119 14.3994H9.06737C9.36194 14.3994 9.60071 14.1606 9.60071 13.866C9.60071 13.5714 9.36194 13.3327 9.06737 13.3327H8.75858L10.0386 11.5049C10.1524 11.3418 10.1659 11.1291 10.0739 10.953Z" fill="#0D4EE3"/>
<path fill-rule="evenodd" clip-rule="evenodd" d="M18.134 10.666H13.8673C13.5728 10.666 13.334 10.9048 13.334 11.1994C13.334 11.4939 13.5728 11.7327 13.8673 11.7327H17.1095L15.9894 13.3327H14.4006C14.106 13.3327 13.8673 13.5714 13.8673 13.866C13.8673 14.1606 14.106 14.3994 14.4006 14.3994H15.2428L13.9628 16.2271C13.8466 16.3829 13.8244 16.5897 13.9048 16.7666C13.9853 16.9436 14.1556 17.0628 14.3494 17.0777C14.5432 17.0926 14.7298 17.0009 14.8363 16.8383L16.5452 14.3994H17.6006C17.8952 14.3994 18.134 14.1606 18.134 13.866C18.134 13.5714 17.8952 13.3327 17.6006 13.3327H17.2918L18.5719 11.5049C18.6858 11.3419 18.6996 11.1289 18.6076 10.9526C18.5155 10.7762 18.333 10.6658 18.134 10.666Z" fill="#0D4EE3"/>
<path fill-rule="evenodd" clip-rule="evenodd" d="M26.6672 10.666H22.4005C22.106 10.666 21.8672 10.9048 21.8672 11.1994C21.8672 11.4939 22.106 11.7327 22.4005 11.7327H25.6427L24.5226 13.3327H22.9338C22.6392 13.3327 22.4005 13.5714 22.4005 13.866C22.4005 14.1606 22.6392 14.3994 22.9338 14.3994H23.776L22.4959 16.2271C22.3797 16.3829 22.3576 16.5897 22.438 16.7666C22.5184 16.9436 22.6887 17.0628 22.8825 17.0777C23.0763 17.0926 23.2629 17.0009 23.3695 16.8383L25.0783 14.3994H26.1338C26.4284 14.3994 26.6671 14.1606 26.6671 13.866C26.6671 13.5714 26.4284 13.3327 26.1338 13.3327H25.825L27.105 11.5049C27.219 11.3419 27.2328 11.1289 27.1407 10.9526C27.0488 10.7762 26.8662 10.6658 26.6672 10.666Z" fill="#0D4EE3"/>
<path d="M29.3337 0H2.66703C1.195 0.00173745 0.00210747 1.19463 0.000370026 2.66666L0 29.3333C0.00173745 30.8054 1.19463 31.9983 2.66666 32H29.3333C30.8054 31.9982 31.9983 30.8054 32 29.3333L32.0004 2.66666C31.9986 1.19463 30.8057 0.00173745 29.3337 0ZM30.9334 29.3333C30.9334 30.217 30.217 30.9333 29.3334 30.9333H2.66666C1.78299 30.9333 1.06669 30.217 1.06669 29.3333L1.06706 2.66666C1.06706 1.78299 1.78341 1.06669 2.66703 1.06669H29.3337C30.2174 1.06669 30.9337 1.78304 30.9337 2.66666L30.9334 29.3333Z" fill="#0D4EE3"/>
<path fill-rule="evenodd" clip-rule="evenodd" d="M21.5333 25.0667H27.9334C28.2279 25.0667 28.4667 24.8279 28.4667 24.5333C28.4667 24.2388 28.2279 24 27.9334 24H21.5333C21.2388 24 21 24.2388 21 24.5333C21 24.8279 21.2388 25.0667 21.5333 25.0667Z" fill="#0D4EE3"/>
<path fill-rule="evenodd" clip-rule="evenodd" d="M4.53334 25.0667H10.9334C11.2279 25.0667 11.4667 24.8279 11.4667 24.5333C11.4667 24.2388 11.2279 24 10.9334 24H4.53334C4.23877 24 4 24.2388 4 24.5333C4 24.8279 4.23877 25.0667 4.53334 25.0667Z" fill="#0D4EE3"/>
<path fill-rule="evenodd" clip-rule="evenodd" d="M21.5333 27.1995H27.9334C28.2279 27.1995 28.4667 26.9607 28.4667 26.6662C28.4667 26.3716 28.2279 26.1328 27.9334 26.1328H21.5333C21.2388 26.1328 21 26.3716 21 26.6662C21 26.9607 21.2388 27.1995 21.5333 27.1995Z" fill="#0D4EE3"/>
<path fill-rule="evenodd" clip-rule="evenodd" d="M4.53334 27.1995H10.9334C11.2279 27.1995 11.4667 26.9607 11.4667 26.6662C11.4667 26.3716 11.2279 26.1328 10.9334 26.1328H4.53334C4.23877 26.1328 4 26.3716 4 26.6662C4 26.9607 4.23877 27.1995 4.53334 27.1995Z" fill="#0D4EE3"/>
</g>
<defs>
<clipPath id="clip0_387_24194">
<rect width="32" height="32" fill="white"/>
</clipPath>
</defs>
</svg>
