<svg width="36" height="37" viewBox="0 0 36 37" fill="none" xmlns="http://www.w3.org/2000/svg">
<g clip-path="url(#clip0_873_26685)">
<path d="M0.784151 6.76114C3.53488 6.76114 32.2015 6.76114 35.216 6.76114C35.216 8.92975 35.216 11.1012 35.216 13.2698C35.216 19.9385 31.2566 25.9872 25.0914 28.7329C20.5842 30.7416 15.416 30.7416 10.9059 28.7329C4.74357 25.9872 0.78125 19.9357 0.78125 13.2698V6.76114H0.784151Z" stroke="#000066" stroke-width="1.76087" stroke-miterlimit="10" stroke-linecap="round" stroke-linejoin="round"/>
<path d="M7.30301 22.6214C5.16114 20.1384 3.91406 16.9348 3.91406 13.5454V9.89133H32.088V13.5454C32.088 17.1994 30.6364 20.6423 28.1763 23.1957" stroke="#000066" stroke-width="1.76087" stroke-miterlimit="10" stroke-linecap="round" stroke-linejoin="round"/>
<path d="M10.9586 15.497V18.5004H7.82812V14.5873H9.65045" stroke="#000066" stroke-width="1.76087" stroke-miterlimit="10" stroke-linecap="round" stroke-linejoin="round"/>
<path d="M17.2164 15.497V18.5004H14.0859V14.5873H15.9083" stroke="#CB0101" stroke-width="1.76087" stroke-miterlimit="10" stroke-linecap="round" stroke-linejoin="round"/>
<path d="M16.4351 22.7219V26.3259H14.1106H13.3047V21.6303H15.1258" stroke="#000066" stroke-width="1.76087" stroke-miterlimit="10" stroke-linecap="round" stroke-linejoin="round"/>
<path d="M23.4795 22.7219V26.3259H19.5664V21.6303H21.8428" stroke="#000066" stroke-width="1.76087" stroke-miterlimit="10" stroke-linecap="round" stroke-linejoin="round"/>
<path d="M22.6968 15.497V18.5004H19.5664V14.5873H21.3875" stroke="#CB0101" stroke-width="1.76087" stroke-miterlimit="10" stroke-linecap="round" stroke-linejoin="round"/>
<path d="M28.1734 15.497V18.5004H25.043V14.5873H26.8653" stroke="#000066" stroke-width="1.76087" stroke-miterlimit="10" stroke-linecap="round" stroke-linejoin="round"/>
<path d="M12.3516 6.76114V8.36293" stroke="#000066" stroke-width="1.76087" stroke-miterlimit="10" stroke-linecap="round" stroke-linejoin="round"/>
<path d="M14 6.76114V8.36293" stroke="#000066" stroke-width="1.76087" stroke-miterlimit="10" stroke-linecap="round" stroke-linejoin="round"/>
<path d="M15.6484 6.76114V8.36293" stroke="#000066" stroke-width="1.76087" stroke-miterlimit="10" stroke-linecap="round" stroke-linejoin="round"/>
<path d="M17.293 6.76114V8.36293" stroke="#000066" stroke-width="1.76087" stroke-miterlimit="10" stroke-linecap="round" stroke-linejoin="round"/>
<path d="M18.9414 6.76114V8.36293" stroke="#000066" stroke-width="1.76087" stroke-miterlimit="10" stroke-linecap="round" stroke-linejoin="round"/>
<path d="M20.5898 6.76114V8.36293" stroke="#000066" stroke-width="1.76087" stroke-miterlimit="10" stroke-linecap="round" stroke-linejoin="round"/>
<path d="M22.2344 6.76114V8.36293" stroke="#000066" stroke-width="1.76087" stroke-miterlimit="10" stroke-linecap="round" stroke-linejoin="round"/>
<path d="M23.8828 6.76114V8.36293" stroke="#000066" stroke-width="1.76087" stroke-miterlimit="10" stroke-linecap="round" stroke-linejoin="round"/>
</g>
<defs>
<clipPath id="clip0_873_26685">
<rect width="36" height="36" fill="white" transform="translate(0 0.500061)"/>
</clipPath>
</defs>
</svg>
