<svg width="36" height="37" viewBox="0 0 36 37" fill="none" xmlns="http://www.w3.org/2000/svg">
<g clip-path="url(#clip0_873_26677)">
<path d="M25.2421 27.7813C30.367 23.7799 31.2778 16.3817 27.2765 11.2568C23.2752 6.13195 15.8769 5.22113 10.7521 9.22246C5.62718 13.2238 4.71637 20.622 8.7177 25.7469C12.719 30.8718 20.1173 31.7826 25.2421 27.7813Z" stroke="#000066" stroke-width="1.76087" stroke-miterlimit="10" stroke-linecap="round" stroke-linejoin="round"/>
<path d="M21.1291 4.02163C21.1291 4.66899 20.6025 5.19554 19.9552 5.19554C19.3078 5.19554 18.7812 4.66899 18.7812 4.02163C18.7812 3.37427 19.3078 2.84772 19.9552 2.84772C20.6056 2.84772 21.1291 3.37118 21.1291 4.02163Z" stroke="#000066" stroke-width="1.76087" stroke-miterlimit="10" stroke-linecap="round" stroke-linejoin="round"/>
<path d="M18 6.76114V11.4568" stroke="#000066" stroke-width="1.76087" stroke-miterlimit="10" stroke-linecap="round" stroke-linejoin="round"/>
<path d="M21.1303 7.54361L20.3477 11.4567" stroke="#000066" stroke-width="0.586957" stroke-miterlimit="10" stroke-linecap="round" stroke-linejoin="round"/>
<path d="M24.2605 9.1088L22.6953 12.2392" stroke="#000066" stroke-width="0.586957" stroke-miterlimit="10" stroke-linecap="round" stroke-linejoin="round"/>
<path d="M27.3922 11.4565L24.2617 13.8043" stroke="#000066" stroke-width="0.586957" stroke-miterlimit="10" stroke-linecap="round" stroke-linejoin="round"/>
<path d="M11.332 20.7657C10.0828 17.0877 12.0569 13.0807 15.7349 11.8315C19.4129 10.5823 23.4198 12.5564 24.669 16.2344C25.9182 19.9124 23.9441 23.9193 20.2661 25.1685C16.5882 26.4177 12.5812 24.4436 11.332 20.7657Z" stroke="#000066" stroke-width="1.76087" stroke-miterlimit="10" stroke-linecap="round" stroke-linejoin="round"/>
<path d="M28.956 14.5873L25.043 16.1525" stroke="#000066" stroke-width="0.586957" stroke-miterlimit="10" stroke-linecap="round" stroke-linejoin="round"/>
<path d="M29.7386 18.5001H25.043" stroke="#000066" stroke-width="1.76087" stroke-miterlimit="10" stroke-linecap="round" stroke-linejoin="round"/>
<path d="M28.956 21.6303L25.043 20.8477" stroke="#000066" stroke-width="0.586957" stroke-miterlimit="10" stroke-linecap="round" stroke-linejoin="round"/>
<path d="M27.3922 24.7606L24.2617 22.4128" stroke="#000066" stroke-width="0.586957" stroke-miterlimit="10" stroke-linecap="round" stroke-linejoin="round"/>
<path d="M25.0431 27.8916L22.6953 24.7611" stroke="#000066" stroke-width="0.586957" stroke-miterlimit="10" stroke-linecap="round" stroke-linejoin="round"/>
<path d="M21.9129 29.4567L20.3477 25.5436" stroke="#000066" stroke-width="0.586957" stroke-miterlimit="10" stroke-linecap="round" stroke-linejoin="round"/>
<path d="M18 30.2392V25.5436" stroke="#000066" stroke-width="1.76087" stroke-miterlimit="10" stroke-linecap="round" stroke-linejoin="round"/>
<path d="M14.8711 29.4567L15.6537 25.5436" stroke="#000066" stroke-width="0.586957" stroke-miterlimit="10" stroke-linecap="round" stroke-linejoin="round"/>
<path d="M11.7383 27.8916L14.0861 24.7611" stroke="#000066" stroke-width="0.586957" stroke-miterlimit="10" stroke-linecap="round" stroke-linejoin="round"/>
<path d="M8.60938 25.5432L12.5224 23.1954" stroke="#000066" stroke-width="0.586957" stroke-miterlimit="10" stroke-linecap="round" stroke-linejoin="round"/>
<path d="M7.04297 22.4129L10.956 20.8477" stroke="#000066" stroke-width="0.586957" stroke-miterlimit="10" stroke-linecap="round" stroke-linejoin="round"/>
<path d="M6.26172 19.2827L10.9574 18.5001" stroke="#000066" stroke-width="1.76087" stroke-miterlimit="10" stroke-linecap="round" stroke-linejoin="round"/>
<path d="M7.04297 15.3698L10.956 16.9351" stroke="#000066" stroke-width="0.586957" stroke-miterlimit="10" stroke-linecap="round" stroke-linejoin="round"/>
<path d="M8.60938 12.239L11.7398 14.5868" stroke="#000066" stroke-width="0.586957" stroke-miterlimit="10" stroke-linecap="round" stroke-linejoin="round"/>
<path d="M10.957 9.10876L13.3049 13.0218" stroke="#000066" stroke-width="0.586957" stroke-miterlimit="10" stroke-linecap="round" stroke-linejoin="round"/>
<path d="M14.0859 7.54361L15.6512 11.4567" stroke="#000066" stroke-width="0.586957" stroke-miterlimit="10" stroke-linecap="round" stroke-linejoin="round"/>
<path d="M34.4729 23.4882C37.2278 14.3898 32.0853 4.78072 22.9869 2.0258C13.8884 -0.729114 4.27935 4.41334 1.52443 13.5118C-1.23049 22.6103 3.91197 32.2193 13.0104 34.9742C22.1089 37.7291 31.7179 32.5867 34.4729 23.4882Z" stroke="#000066" stroke-width="1.76087" stroke-miterlimit="10" stroke-linecap="round" stroke-linejoin="round"/>
<path d="M17.9985 33.3696C9.79866 33.3696 3.12891 26.6999 3.12891 18.5001" stroke="#000066" stroke-width="1.76087" stroke-miterlimit="10" stroke-linecap="round" stroke-linejoin="round"/>
<path d="M24.2617 5.19537C29.3678 7.6667 32.8704 12.7008 32.8704 18.4997" stroke="#000066" stroke-width="1.76087" stroke-miterlimit="10" stroke-linecap="round" stroke-linejoin="round"/>
<path d="M18 18.5004V14.5873" stroke="#CB0101" stroke-width="1.76087" stroke-miterlimit="10" stroke-linecap="round" stroke-linejoin="round"/>
<path d="M18 18.5001V21.6305" stroke="#CB0101" stroke-width="1.76087" stroke-miterlimit="10" stroke-linecap="round" stroke-linejoin="round"/>
<path d="M18 18.5001H21.1304" stroke="#CB0101" stroke-width="1.76087" stroke-miterlimit="10" stroke-linecap="round" stroke-linejoin="round"/>
<path d="M18.0015 18.5001H14.8711" stroke="#CB0101" stroke-width="1.76087" stroke-miterlimit="10" stroke-linecap="round" stroke-linejoin="round"/>
<path d="M17.2188 14.5873H18.784" stroke="#CB0101" stroke-width="1.76087" stroke-miterlimit="10" stroke-linecap="round" stroke-linejoin="round"/>
<path d="M17.2188 21.6303H18.784" stroke="#CB0101" stroke-width="1.76087" stroke-miterlimit="10" stroke-linecap="round" stroke-linejoin="round"/>
<path d="M18 11.4565V13.0218" stroke="#000066" stroke-width="1.76087" stroke-miterlimit="10" stroke-linecap="round" stroke-linejoin="round"/>
<path d="M18 25.5438V23.9786" stroke="#000066" stroke-width="1.76087" stroke-miterlimit="10" stroke-linecap="round" stroke-linejoin="round"/>
<path d="M10.957 18.5001H12.5222" stroke="#000066" stroke-width="1.76087" stroke-miterlimit="10" stroke-linecap="round" stroke-linejoin="round"/>
<path d="M25.0457 18.5001H23.4805" stroke="#000066" stroke-width="1.76087" stroke-miterlimit="10" stroke-linecap="round" stroke-linejoin="round"/>
</g>
<defs>
<clipPath id="clip0_873_26677">
<rect width="36" height="36" fill="white" transform="translate(0 0.500061)"/>
</clipPath>
</defs>
</svg>
