<svg width="38" height="37" viewBox="0 0 38 37" fill="none" xmlns="http://www.w3.org/2000/svg">
<path d="M31.6183 12.8701V23.1301C31.6183 24.8101 30.7183 26.3701 29.2633 27.2251L20.3533 32.3701C18.8983 33.2101 17.0983 33.2101 15.6283 32.3701L6.71829 27.2251C5.26329 26.3851 4.36328 24.8251 4.36328 23.1301V12.8701C4.36328 11.1901 5.26329 9.63005 6.71829 8.77505L15.6283 3.63006C17.0833 2.79006 18.8833 2.79006 20.3533 3.63006L29.2633 8.77505C30.7183 9.63005 31.6183 11.1751 31.6183 12.8701Z" stroke="#000066" stroke-width="2.5" stroke-linecap="round" stroke-linejoin="round"/>
<path d="M14.625 18.0004V16.2004C14.625 13.8904 16.26 12.9454 18.255 14.1004L19.815 15.0004L21.375 15.9004C23.37 17.0554 23.37 18.9454 21.375 20.1004L19.815 21.0004L18.255 21.9004C16.26 23.0554 14.625 22.1104 14.625 19.8004V18.0004Z" stroke="#000066" stroke-width="2.5" stroke-miterlimit="10" stroke-linecap="round" stroke-linejoin="round"/>
<path d="M22 33.5001L19 28.0001L20.5 22.5001L27.5 17.0001L34.5 19.5001L35.5 24.0001L34.5 29.5001L22 33.5001Z" fill="white"/>
<path d="M29.375 18.7059C34.999 21.6654 37.1772 25.1017 37.1942 28.017M29.375 18.7059C23.797 21.7448 21.6602 25.206 21.6845 28.1198C21.7019 30.6324 23.3013 32.7891 25.597 32.7709C27.0999 32.763 28.1651 32.0354 28.7899 31.4334C28.7562 31.3892 28.7271 31.3496 28.7026 31.3154C28.6756 31.2777 28.6542 31.2464 28.6383 31.2226C28.6303 31.2107 28.6238 31.2007 28.6186 31.1926L28.6118 31.1821L28.6092 31.178L28.6081 31.1762L28.6076 31.1754C28.6073 31.175 28.6071 31.1746 29.4544 30.6435L37.1942 28.017M29.375 18.7059L28.9094 19.5908C29.0705 19.6756 29.2284 19.7607 29.3833 19.8459M29.375 18.7059L29.8535 19.584C29.6936 19.6711 29.5368 19.7584 29.3833 19.8459M37.1942 28.017C37.2116 30.5297 35.6475 32.7013 33.3518 32.7195L37.1942 28.017ZM29.3833 19.8459C34.4901 22.6587 36.1808 25.713 36.1942 28.0229L36.1942 28.024C36.2093 30.2062 34.8896 31.7073 33.3439 31.7195L33.3425 31.7196C32.3429 31.7289 31.5859 31.3309 31.0604 30.91C30.7969 30.699 30.5987 30.4871 30.4686 30.3311C30.404 30.2535 30.3575 30.1913 30.3293 30.1519C30.3153 30.1323 30.3059 30.1185 30.3013 30.1115C30.3002 30.1099 30.2994 30.1087 30.2988 30.1078M29.3833 19.8459C24.3177 22.7315 22.6652 25.8044 22.6845 28.1114L22.6845 28.1128C22.6996 30.296 24.0455 31.7832 25.589 31.7709L25.5917 31.7709C26.5842 31.7657 27.3331 31.3584 27.8526 30.9304C28.1129 30.7159 28.3082 30.5015 28.4363 30.3438C28.4999 30.2654 28.5457 30.2025 28.5734 30.1628C28.5872 30.1429 28.5964 30.129 28.601 30.122C28.6021 30.1203 28.6029 30.119 28.6034 30.1182M30.2988 30.1078L29.4428 28.7424L28.6034 30.1182M30.2988 30.1078C30.2982 30.1068 30.2978 30.1063 30.2979 30.1064L30.2989 30.1079L30.3 30.1097L30.2988 30.1078ZM28.6034 30.1182L28.6023 30.1201L28.6034 30.1182L28.6044 30.1167C28.6044 30.1167 28.6041 30.1172 28.6034 30.1182Z" stroke="#CB0101" stroke-width="2"/>
<path fill-rule="evenodd" clip-rule="evenodd" d="M29.3415 36.4456L26.6459 36.4395L26.6528 35.0367C27.4657 35.0361 27.4902 35.1161 28.1385 34.5539C28.6365 34.124 29.1024 32.6944 29.3421 32.1407L29.5353 32.1388C29.7755 32.6922 30.2325 34.1291 30.7257 34.5596C31.3702 35.1209 31.3932 35.0463 32.2061 35.0457L32.1991 36.4486L29.5035 36.4425L29.3415 36.4456Z" fill="#CB0101"/>
</svg>
