<svg width="64" height="64" viewBox="0 0 64 64" fill="none" xmlns="http://www.w3.org/2000/svg">
<path d="M21 37H19V47H25V45H21V37Z" fill="url(#paint0_linear)"/>
<path d="M35 41.877L34.219 45H33.781L33 41.877V37H31V42L32.219 47H35.781L36.97 42.243L37 37H35V41.877Z" fill="url(#paint1_linear)"/>
<path d="M39 47H45V45H41V43H45V41H41V39H45V37H39V47Z" fill="url(#paint2_linear)"/>
<path d="M27 37H29V47H27V37Z" fill="url(#paint3_linear)"/>
<path d="M7 58.766L14.943 54L7 49.234V58.766ZM9 52.766L11.057 54L9 55.234V52.766Z" fill="url(#paint4_linear)"/>
<path d="M61 49.184V5H42.932C39.974 2.508 36.162 1 32 1C27.838 1 24.026 2.508 21.068 5H3V48.356C1.752 49.901 1 51.863 1 54C1 58.962 5.037 63 10 63H60C61.654 63 63 61.654 63 60V52C63 50.698 62.161 49.598 61 49.184ZM59 49H57V9H46.396C45.956 8.298 45.473 7.628 44.938 7H59V49ZM10 45C9.662 45 9.329 45.022 9 45.059V11H16.526C15.555 13.138 15 15.503 15 18C15 27.374 22.626 35 32 35C41.374 35 49 27.374 49 18C49 15.503 48.445 13.138 47.474 11H55V49H17.478C15.862 46.59 13.114 45 10 45ZM22.382 13.661L25 15.517V20.483L22.382 22.339L17.108 19.731C17.042 19.162 17 18.586 17 18C17 17.414 17.042 16.838 17.108 16.269L22.382 13.661ZM21.433 24.101L21.16 28.339C19.528 26.629 18.296 24.539 17.613 22.212L21.433 24.101ZM23.441 24.04L26.017 22.214L31 25.535V28.465L26.052 31.764C24.98 31.299 23.981 30.704 23.056 30.014L23.441 24.04ZM32 12.202L37 15.535V20.465L32 23.798L27 20.465V15.535L32 12.202ZM32 30.202L35.539 32.561C34.402 32.837 33.221 33 32 33C30.779 33 29.598 32.837 28.461 32.561L32 30.202ZM37.948 31.764L33 28.465V25.535L37.983 22.213L40.559 24.039L40.944 30.013C40.019 30.704 39.02 31.299 37.948 31.764ZM41.618 13.661L46.892 16.269C46.958 16.838 47 17.414 47 18C47 18.586 46.958 19.162 46.892 19.731L41.618 22.339L39 20.483V15.517L41.618 13.661ZM42.841 28.339L42.568 24.101L46.388 22.212C45.705 24.539 44.472 26.629 42.841 28.339ZM42.567 11.899L42.84 7.661C44.472 9.371 45.704 11.461 46.387 13.788L42.567 11.899ZM40.559 11.96L37.983 13.786L33 10.465V7.535L37.948 4.236C39.02 4.701 40.019 5.296 40.944 5.986L40.559 11.96ZM31 10.465L26.017 13.787L23.441 11.961L23.056 5.987C23.981 5.296 24.98 4.701 26.052 4.237L31 7.535V10.465ZM21.433 11.899L17.613 13.788C18.296 11.461 19.528 9.371 21.16 7.661L21.433 11.899ZM35.539 3.439L32 5.798L28.461 3.439C29.598 3.163 30.779 3 32 3C33.221 3 34.402 3.163 35.539 3.439ZM19.062 7C18.527 7.628 18.045 8.298 17.604 9H7V45.525C6.289 45.777 5.616 46.108 5 46.522V7H19.062ZM3 54C3 50.14 6.141 47 10 47C13.859 47 17 50.14 17 54C17 57.86 13.859 61 10 61C6.141 61 3 57.86 3 54ZM61 60C61 60.551 60.552 61 60 61H15.644C17.688 59.349 19 56.826 19 54C19 52.947 18.809 51.94 18.475 51H60C60.552 51 61 51.449 61 52V60Z" fill="url(#paint5_linear)"/>
<path d="M32 53C30.698 53 29.598 53.839 29.184 55H21V57H29.184C29.598 58.161 30.698 59 32 59C33.302 59 34.402 58.161 34.816 57H59V55H34.816C34.402 53.839 33.302 53 32 53ZM32 57C31.448 57 31 56.551 31 56C31 55.449 31.448 55 32 55C32.552 55 33 55.449 33 56C33 56.551 32.552 57 32 57Z" fill="url(#paint6_linear)"/>
<defs>
<linearGradient id="paint0_linear" x1="19" y1="42" x2="25" y2="42" gradientUnits="userSpaceOnUse">
<stop stop-color="#4E2267"/>
<stop offset="1" stop-color="#9441C4"/>
</linearGradient>
<linearGradient id="paint1_linear" x1="31" y1="42" x2="37" y2="42" gradientUnits="userSpaceOnUse">
<stop stop-color="#4E2267"/>
<stop offset="1" stop-color="#9441C4"/>
</linearGradient>
<linearGradient id="paint2_linear" x1="39" y1="42" x2="45" y2="42" gradientUnits="userSpaceOnUse">
<stop stop-color="#4E2267"/>
<stop offset="1" stop-color="#9441C4"/>
</linearGradient>
<linearGradient id="paint3_linear" x1="27" y1="42" x2="29" y2="42" gradientUnits="userSpaceOnUse">
<stop stop-color="#4E2267"/>
<stop offset="1" stop-color="#9441C4"/>
</linearGradient>
<linearGradient id="paint4_linear" x1="7" y1="54" x2="14.943" y2="54" gradientUnits="userSpaceOnUse">
<stop stop-color="#4E2267"/>
<stop offset="1" stop-color="#9441C4"/>
</linearGradient>
<linearGradient id="paint5_linear" x1="1" y1="32" x2="63" y2="32" gradientUnits="userSpaceOnUse">
<stop stop-color="#4E2267"/>
<stop offset="1" stop-color="#9441C4"/>
</linearGradient>
<linearGradient id="paint6_linear" x1="21" y1="56" x2="59" y2="56" gradientUnits="userSpaceOnUse">
<stop stop-color="#4E2267"/>
<stop offset="1" stop-color="#9441C4"/>
</linearGradient>
</defs>
</svg>
