<svg width="64" height="64" viewBox="0 0 64 64" fill="none" xmlns="http://www.w3.org/2000/svg">
<g clip-path="url(#clip0_387_23801)">
<path fill-rule="evenodd" clip-rule="evenodd" d="M58.6666 8.5332H5.33329C4.74414 8.5332 4.2666 9.01074 4.2666 9.59989C4.2666 10.189 4.74414 10.6666 5.33329 10.6666H58.6666C59.2558 10.6666 59.7333 10.189 59.7333 9.59989C59.7333 9.01074 59.2558 8.5332 58.6666 8.5332Z" fill="white"/>
<path d="M6.39969 6.399C6.98881 6.399 7.46638 5.92143 7.46638 5.33231C7.46638 4.7432 6.98881 4.26562 6.39969 4.26562C5.81058 4.26562 5.33301 4.7432 5.33301 5.33231C5.33301 5.92143 5.81058 6.399 6.39969 6.399Z" fill="white"/>
<path d="M10.6663 6.399C11.2554 6.399 11.733 5.92143 11.733 5.33231C11.733 4.7432 11.2554 4.26562 10.6663 4.26562C10.0772 4.26562 9.59961 4.7432 9.59961 5.33231C9.59961 5.92143 10.0772 6.399 10.6663 6.399Z" fill="white"/>
<path d="M14.9339 6.399C15.523 6.399 16.0006 5.92143 16.0006 5.33231C16.0006 4.7432 15.523 4.26562 14.9339 4.26562C14.3448 4.26562 13.8672 4.7432 13.8672 5.33231C13.8672 5.92143 14.3448 6.399 14.9339 6.399Z" fill="white"/>
<path d="M58.6667 0H5.33332C2.38925 0.00347489 0.00347489 2.38925 0 5.33332V58.6667C0.00347489 61.6108 2.38925 63.9965 5.33332 64H58.6667C61.6108 63.9964 63.9965 61.6108 64 58.6667V5.33332C63.9965 2.38925 61.6108 0.00347489 58.6667 0ZM61.8667 58.6667C61.8667 60.434 60.434 61.8666 58.6668 61.8666H5.33332C3.56597 61.8666 2.13337 60.4339 2.13337 58.6667V5.33332C2.13337 3.56597 3.56608 2.13337 5.33332 2.13337H58.6667C60.434 2.13337 61.8666 3.56608 61.8666 5.33332V58.6667H61.8667Z" fill="white"/>
<path d="M55.4671 14.9336H8.53376C7.35556 14.9336 6.40039 15.8888 6.40039 17.067V40.5336C6.40039 41.7118 7.35556 42.667 8.53376 42.667H55.4671C56.6453 42.667 57.6005 41.7118 57.6005 40.5336V17.0669C57.6005 15.8887 56.6453 14.9336 55.4671 14.9336ZM8.53376 25.6002H23.4672V32.0003H8.53376V25.6002ZM25.6004 25.6002H55.4671V32.0003H25.6004V25.6002ZM55.4671 23.4669H25.6004V17.0669H55.4671V23.4669ZM8.53376 17.0669H23.4672V23.4669H8.53376V17.0669ZM8.53376 34.1335H23.4672V40.5335H8.53376V34.1335ZM25.6004 40.5335V34.1335H55.4671V40.5335H25.6004Z" fill="white"/>
<path fill-rule="evenodd" clip-rule="evenodd" d="M20.2671 19.1992H11.7337C11.1445 19.1992 10.667 19.6768 10.667 20.2659C10.667 20.8551 11.1445 21.3326 11.7337 21.3326H20.2671C20.8562 21.3326 21.3337 20.8551 21.3337 20.2659C21.3336 19.6768 20.8561 19.1992 20.2671 19.1992Z" fill="white"/>
<path fill-rule="evenodd" clip-rule="evenodd" d="M28.8001 21.3326H33.0667C33.6559 21.3326 34.1334 20.8551 34.1334 20.2659C34.1334 19.6768 33.6559 19.1992 33.0667 19.1992H28.8001C28.2109 19.1992 27.7334 19.6768 27.7334 20.2659C27.7334 20.8551 28.211 21.3326 28.8001 21.3326Z" fill="white"/>
<path fill-rule="evenodd" clip-rule="evenodd" d="M20.2671 27.7324H11.7337C11.1445 27.7324 10.667 28.21 10.667 28.7991C10.667 29.3883 11.1445 29.8658 11.7337 29.8658H20.2671C20.8562 29.8658 21.3337 29.3883 21.3337 28.7991C21.3336 28.2101 20.8561 27.7324 20.2671 27.7324Z" fill="white"/>
<path fill-rule="evenodd" clip-rule="evenodd" d="M52.2669 27.7324H48.0003C47.4111 27.7324 46.9336 28.21 46.9336 28.7991C46.9336 29.3883 47.4111 29.8658 48.0003 29.8658H52.2669C52.8561 29.8658 53.3336 29.3883 53.3336 28.7991C53.3336 28.2101 52.8561 27.7324 52.2669 27.7324Z" fill="white"/>
<path fill-rule="evenodd" clip-rule="evenodd" d="M20.2671 36.2656H11.7337C11.1445 36.2656 10.667 36.7432 10.667 37.3323C10.667 37.9215 11.1445 38.399 11.7337 38.399H20.2671C20.8562 38.399 21.3337 37.9215 21.3337 37.3323C21.3337 36.7432 20.8561 36.2656 20.2671 36.2656Z" fill="white"/>
<path fill-rule="evenodd" clip-rule="evenodd" d="M33.0667 36.2656H28.8001C28.2109 36.2656 27.7334 36.7432 27.7334 37.3323C27.7334 37.9215 28.2109 38.399 28.8001 38.399H33.0667C33.6559 38.399 34.1334 37.9215 34.1334 37.3323C34.1334 36.7432 33.6558 36.2656 33.0667 36.2656Z" fill="white"/>
<path fill-rule="evenodd" clip-rule="evenodd" d="M37.3333 21.3326H52.2667C52.8558 21.3326 53.3334 20.8551 53.3334 20.2659C53.3334 19.6768 52.8558 19.1992 52.2667 19.1992H37.3333C36.7441 19.1992 36.2666 19.6768 36.2666 20.2659C36.2666 20.8551 36.7441 21.3326 37.3333 21.3326Z" fill="white"/>
<path fill-rule="evenodd" clip-rule="evenodd" d="M43.7335 27.7324H28.8001C28.2109 27.7324 27.7334 28.21 27.7334 28.7991C27.7334 29.3883 28.2109 29.8658 28.8001 29.8658H43.7335C44.3226 29.8658 44.8002 29.3883 44.8002 28.7991C44.8002 28.2101 44.3225 27.7324 43.7335 27.7324Z" fill="white"/>
<path fill-rule="evenodd" clip-rule="evenodd" d="M52.2666 36.2656H37.3333C36.7441 36.2656 36.2666 36.7432 36.2666 37.3323C36.2666 37.9215 36.7441 38.399 37.3333 38.399H52.2667C52.8558 38.399 53.3334 37.9215 53.3334 37.3323C53.3334 36.7432 52.8557 36.2656 52.2666 36.2656Z" fill="white"/>
<path d="M39.4668 46.9336H24.5335C21.588 46.9336 19.2002 49.3214 19.2002 52.2669C19.2002 55.2125 21.588 57.6002 24.5335 57.6002H39.4669C42.4125 57.6002 44.8002 55.2125 44.8002 52.2669C44.8002 49.3215 42.4124 46.9336 39.4668 46.9336ZM39.4668 55.467H24.5335C22.7662 55.467 21.3336 54.0343 21.3336 52.267C21.3336 50.4997 22.7663 49.0671 24.5335 49.0671H39.4669C41.2343 49.0671 42.6669 50.4998 42.6669 52.267C42.6669 54.0343 41.2342 55.467 39.4668 55.467Z" fill="white"/>
</g>
<defs>
<clipPath id="clip0_387_23801">
<rect width="64" height="64" fill="white"/>
</clipPath>
</defs>
</svg>
