<svg width="88" height="88" viewBox="0 0 88 88" fill="none" xmlns="http://www.w3.org/2000/svg">
<rect width="88" height="88" rx="44" fill="#02BE91"/>
<g clip-path="url(#clip0_387_36476)">
<path d="M44.0001 58.8302C44.3884 58.8302 44.7033 58.5154 44.7033 58.127C44.7033 57.7387 44.3884 57.4238 44.0001 57.4238C43.6117 57.4238 43.2969 57.7387 43.2969 58.127C43.2969 58.5154 43.6117 58.8302 44.0001 58.8302Z" fill="white"/>
<path d="M44.0001 61.8927C44.3884 61.8927 44.7033 61.5779 44.7033 61.1895C44.7033 60.8012 44.3884 60.4863 44.0001 60.4863C43.6117 60.4863 43.2969 60.8012 43.2969 61.1895C43.2969 61.5779 43.6117 61.8927 44.0001 61.8927Z" fill="white"/>
<path d="M44.0001 64.9552C44.3884 64.9552 44.7033 64.6404 44.7033 64.252C44.7033 63.8637 44.3884 63.5488 44.0001 63.5488C43.6117 63.5488 43.2969 63.8637 43.2969 64.252C43.2969 64.6404 43.6117 64.9552 44.0001 64.9552Z" fill="white"/>
<path d="M61.3151 56.7429C60.7317 55.3826 59.6075 54.2911 58.2305 53.7482L50.4976 50.6991L50.4898 46.2273C51.6341 45.1143 52.5175 43.7879 53.1244 42.2604C53.3038 41.809 53.4586 41.3392 53.59 40.8527C53.5948 40.8527 53.5996 40.853 53.6044 40.853C55.815 40.853 57.6135 39.0545 57.6135 36.8438C57.6135 35.3896 56.8169 34.0577 55.5782 33.3544C55.7988 32.7736 55.9796 32.2044 56.1186 31.6496C56.6165 29.6629 56.5837 27.8579 56.0211 26.2852C55.1796 23.9324 53.1732 22.1288 50.0576 20.9243C44.1994 18.6596 39.7106 21.0802 38.4545 22.6073C38.2385 22.87 37.91 23.0343 37.5535 23.0581C36.6052 23.1216 34.8227 23.4602 33.5382 25.0139C33.2907 25.3132 33.3327 25.7565 33.6321 26.0039C33.9314 26.2514 34.3747 26.2093 34.6221 25.9099C35.5233 24.8197 36.7647 24.5204 37.6473 24.4613C38.3892 24.4117 39.0793 24.0615 39.5407 23.5005C40.3063 22.5696 42.0272 21.9255 42.8301 21.715C44.2907 21.332 46.6423 21.1116 49.5504 22.236C52.2676 23.2864 53.9991 24.8081 54.6968 26.7587C55.6754 29.4949 54.5093 32.709 53.2456 35.067C53.2433 35.0676 53.2412 35.0682 53.2388 35.0688C53.2369 35.0693 53.2349 35.0696 53.2329 35.07C52.6115 35.2321 51.968 35.3143 51.3206 35.3143C48.4991 35.3143 45.9327 33.7597 44.6227 31.2572C44.5014 31.0254 44.2613 30.8801 43.9997 30.8801C43.7381 30.8801 43.498 31.0254 43.3767 31.2571C42.0667 33.7596 39.5003 35.3142 36.6788 35.3142C36.0314 35.3142 35.388 35.232 34.7664 35.0699C34.7616 35.0686 34.7568 35.0681 34.752 35.0669C34.059 33.4071 33.2118 30.1512 33.7077 27.8333C33.789 27.4535 33.547 27.0797 33.1672 26.9985C32.7876 26.9172 32.4137 27.1593 32.3324 27.5391C31.9732 29.2182 32.2108 31.3244 32.6546 33.1368C31.1592 33.7516 30.1754 35.2033 30.1754 36.8437C30.1754 37.4102 30.2942 37.9494 30.5072 38.4385C29.2218 39.5631 28.489 41.168 28.489 42.8857C28.489 46.1459 31.1413 48.7982 34.4014 48.7982C35.5002 48.7982 36.5737 48.4865 37.4983 47.9191L37.5031 50.6985L29.7689 53.7481C28.3919 54.2909 27.2677 55.3825 26.6844 56.7427C25.3633 59.8231 24.6934 63.0846 24.6934 66.4365C24.6934 67.2985 25.3946 67.9997 26.2566 67.9997H32.8181C33.2065 67.9997 33.5213 67.6849 33.5213 67.2965C33.5213 66.9082 33.2065 66.5934 32.8181 66.5934H26.257C26.1704 66.5934 26.1001 66.5229 26.1001 66.4365C26.1001 63.2763 26.7317 60.2013 27.9773 57.297C28.4137 56.2793 29.2549 55.4626 30.2851 55.0564L37.4908 52.2151V56.3336C37.4908 56.8166 37.7404 57.2491 38.1587 57.4905C38.3678 57.6113 38.5972 57.6717 38.8266 57.6717C39.0561 57.6717 39.2855 57.6113 39.4946 57.4905L43.9999 54.8894L48.5052 57.4905C48.7143 57.6113 48.9437 57.6717 49.1732 57.6717C49.4025 57.6717 49.6319 57.6113 49.841 57.4905C50.2593 57.2491 50.5089 56.8166 50.5089 56.3336V52.2151L57.7146 55.0564C58.7427 55.4618 59.5826 56.276 60.0199 57.291C60.2491 57.8789 61.8996 63.0063 61.8996 66.4365C61.8996 66.523 61.8293 66.5934 61.7427 66.5934H57.6135V64.0921C57.6135 63.1973 56.8856 62.4694 55.9908 62.4694H50.7103C49.8155 62.4694 49.0876 63.1973 49.0876 64.0921V66.5934H35.6312C35.2429 66.5934 34.928 66.9082 34.928 67.2965C34.928 67.6849 35.2429 67.9997 35.6312 67.9997H61.7427C62.6047 67.9997 63.306 67.2984 63.306 66.4365C63.3061 62.3983 61.335 56.7892 61.3151 56.7429ZM49.0894 49.6709C48.8882 49.6838 48.6889 49.7432 48.5052 49.8492L43.9999 52.4503L39.4946 49.8492C39.3101 49.7428 39.1101 49.6833 38.908 49.6708L38.904 47.3857C39.0813 47.5115 39.2615 47.6349 39.4479 47.7529C40.8307 48.6292 42.415 49.0673 43.9999 49.0672C45.5843 49.0672 47.1694 48.629 48.5518 47.7529C48.7346 47.6371 48.9114 47.5162 49.0854 47.393L49.0894 49.6709ZM56.2072 36.8439C56.2072 38.1799 55.1953 39.2834 53.8978 39.4297C54.0598 38.4551 54.1367 37.4226 54.1273 36.3376C54.1625 36.2991 54.195 36.2571 54.2218 36.2098C54.5173 35.6875 54.7841 35.1712 55.0227 34.662C55.7481 35.1357 56.2072 35.9544 56.2072 36.8439ZM43.9999 32.9302C45.6668 35.294 48.3767 36.7207 51.3208 36.7207C51.7912 36.7207 52.2599 36.6837 52.7221 36.611C52.702 41.1593 51.0486 44.5059 47.7991 46.5651C45.4913 48.0276 42.5087 48.0277 40.2008 46.5651C36.9522 44.5065 35.2991 41.1593 35.2783 36.6111C35.7404 36.6838 36.2089 36.7207 36.6791 36.7207C39.6231 36.7207 42.333 35.294 43.9999 32.9302ZM33.0447 34.5044C33.2592 35.1591 33.4907 35.7337 33.7129 36.1781C33.7533 36.2589 33.8082 36.3271 33.8715 36.3842C33.8646 37.4577 33.9428 38.4794 34.1043 39.4446C32.7063 39.4018 31.5821 38.252 31.5821 36.8438C31.5822 35.8337 32.1574 34.935 33.0447 34.5044ZM29.8956 42.886C29.8956 41.6392 30.4031 40.4707 31.2979 39.6214C32.0277 40.3798 33.0518 40.8531 34.1849 40.8531C34.2592 40.8531 34.3334 40.8502 34.4076 40.8461C34.5468 41.3622 34.7126 41.8592 34.9055 42.3357C35.5037 43.8128 36.363 45.1002 37.4683 46.1864C36.633 46.9655 35.5557 47.392 34.4018 47.392C31.9171 47.3921 29.8956 45.3706 29.8956 42.886ZM38.8971 56.2117V51.314C38.9059 51.2693 38.9107 51.2231 38.9106 51.1758L38.9105 51.1361L43.2247 53.6269C43.2243 53.6414 43.2233 53.6556 43.2233 53.67C43.2233 53.6846 43.2243 53.6988 43.2247 53.7132L38.8971 56.2117ZM44.775 53.7132C44.7755 53.6987 44.7765 53.6845 44.7765 53.67C44.7765 53.6555 44.7754 53.6412 44.775 53.6268L49.0921 51.1344L49.0922 51.1781C49.0923 51.2177 49.0964 51.2561 49.1027 51.2939V56.2117L44.775 53.7132ZM50.4939 66.5936V64.0923C50.4939 63.9731 50.591 63.876 50.7103 63.876H55.9908C56.1101 63.876 56.2071 63.9731 56.2071 64.0923V66.5936H50.4939Z" fill="white"/>
<path d="M43.7496 43.9322C44.8573 43.9322 45.8519 43.273 46.2835 42.2527C46.4347 41.8951 46.2674 41.4824 45.9097 41.3311C45.5521 41.1799 45.1395 41.3471 44.9881 41.7048C44.7771 42.2035 44.291 42.5258 43.7496 42.5258C43.2082 42.5258 42.722 42.2035 42.5112 41.7048C42.3599 41.3471 41.9474 41.1799 41.5896 41.3311C41.2319 41.4823 41.0646 41.895 41.2159 42.2527C41.6473 43.2729 42.6419 43.9322 43.7496 43.9322Z" fill="white"/>
</g>
<defs>
<clipPath id="clip0_387_36476">
<rect width="48" height="48" fill="white" transform="translate(20 20)"/>
</clipPath>
</defs>
</svg>
