<svg width="64" height="64" viewBox="0 0 64 64" fill="none" xmlns="http://www.w3.org/2000/svg">
<path d="M8.15925 18.6927C8.15924 25.4125 13.5194 30.7975 20.208 30.7975C26.8942 30.7975 32.2567 25.4125 32.2567 18.6927C32.2567 11.973 26.8942 6.58789 20.208 6.58789C13.5194 6.58789 8.15925 11.973 8.15925 18.6927Z" fill="url(#paint0_linear_433_7519)"/>
<path d="M38.4177 44.5031C38.4177 38.2827 30.0297 36.7263 20.2089 36.7263C10.3347 36.7263 2 38.3362 2 44.5616C2 50.7821 10.388 52.3384 20.2089 52.3384C30.083 52.3384 38.4177 50.7285 38.4177 44.5031Z" fill="url(#paint1_linear_433_7519)"/>
<path d="M21.8188 17.8748C21.8188 26.9613 29.07 34.2496 38.1201 34.2496C47.1669 34.2496 54.4213 26.9614 54.4213 17.8748C54.4213 8.78819 47.1669 1.5 38.1201 1.5C29.07 1.5 21.8188 8.78825 21.8188 17.8748ZM62.498 51.7248C62.498 49.5603 61.7636 47.7821 60.4458 46.351C59.1385 44.9312 57.2785 43.8752 55.0534 43.0944C50.6099 41.5351 44.5692 41.026 38.1181 41.026C31.6313 41.026 25.59 41.5528 21.1546 43.1311C18.9334 43.9214 17.0803 44.9873 15.779 46.4148C14.4675 47.8534 13.7383 49.6364 13.7383 51.8014C13.7383 53.966 14.4727 55.7441 15.7905 57.1753C17.0978 58.595 18.9578 59.651 21.1829 60.4318C25.6264 61.9911 31.6671 62.5003 38.1181 62.5003C44.605 62.5003 50.6463 61.9735 55.0817 60.3952C57.3029 59.6048 59.156 58.5389 60.4573 57.1114C61.7688 55.6728 62.498 53.8898 62.498 51.7248Z" fill="#BA90FF" stroke="url(#paint2_linear_433_7519)" stroke-linecap="round" stroke-linejoin="round"/>
<defs>
<linearGradient id="paint0_linear_433_7519" x1="20.2091" y1="6.58887" x2="20.2091" y2="52.3394" gradientUnits="userSpaceOnUse">
<stop stop-color="#A471FA"/>
<stop offset="1" stop-color="#7B3FE1"/>
</linearGradient>
<linearGradient id="paint1_linear_433_7519" x1="20.2091" y1="6.58887" x2="20.2091" y2="52.3394" gradientUnits="userSpaceOnUse">
<stop stop-color="#A471FA"/>
<stop offset="1" stop-color="#7B3FE1"/>
</linearGradient>
<linearGradient id="paint2_linear_433_7519" x1="21.8409" y1="8.99011" x2="60.9898" y2="47.5853" gradientUnits="userSpaceOnUse">
<stop stop-color="white" stop-opacity="0.25"/>
<stop offset="1" stop-color="white" stop-opacity="0"/>
</linearGradient>
</defs>
</svg>
