<svg width="54" height="54" viewBox="0 0 54 54" fill="none" xmlns="http://www.w3.org/2000/svg">
<rect width="54" height="54" rx="27" fill="#0D4EE3"/>
<path d="M32.8671 11H21.1337C19.0729 11.0024 17.4028 12.6724 17.4004 14.7333V39.2667C17.4028 41.3275 19.0728 42.9976 21.1337 43H32.8671C34.9279 42.9976 36.598 41.3276 36.6004 39.2667V14.7333C36.598 12.6724 34.9279 11.0024 32.8671 11ZM32.0793 12.0667L31.706 12.9963C31.5455 13.4017 31.1532 13.6677 30.7171 13.6667H23.2836C22.847 13.6683 22.4539 13.4023 22.2932 12.9963L21.9215 12.0667H32.0793ZM24.3337 18.4667H35.5337V21.6667H24.3337V18.4667ZM35.5337 30.2H24.3337V27H35.5337V30.2ZM23.267 30.2H18.4671V27H23.267V30.2ZM35.5337 25.9333H24.3337V22.7333H35.5337V25.9333ZM23.267 25.9333H18.4671V22.7333H23.267V25.9333ZM23.267 21.6666H18.4671V18.4666H23.267V21.6666ZM32.8671 41.9333H21.1337C19.6617 41.9315 18.4688 40.7387 18.4671 39.2667V31.2666H35.5337V39.2666C35.5319 40.7387 34.3391 41.9315 32.8671 41.9333ZM35.5337 17.4H18.4671V14.7333C18.4712 13.3988 19.4631 12.2735 20.7866 12.1019L21.3028 13.392C21.6244 14.2039 22.4103 14.7361 23.2836 14.7333H30.7172C31.5905 14.7361 32.3764 14.2039 32.698 13.392L33.2143 12.1019C34.5378 12.2735 35.5296 13.3987 35.5338 14.7333L35.5337 17.4Z" fill="white"/>
<path fill-rule="evenodd" clip-rule="evenodd" d="M32.8663 39.2656H21.133C20.8384 39.2656 20.5996 39.5044 20.5996 39.799C20.5996 40.0935 20.8384 40.3323 21.133 40.3323H32.8663C33.1608 40.3323 33.3996 40.0935 33.3996 39.799C33.3996 39.5044 33.1608 39.2656 32.8663 39.2656Z" fill="white"/>
<path fill-rule="evenodd" clip-rule="evenodd" d="M20.0665 20.5999H21.6665C21.9611 20.5999 22.1999 20.3611 22.1999 20.0665C22.1999 19.772 21.9611 19.5332 21.6665 19.5332H20.0665C19.772 19.5332 19.5332 19.772 19.5332 20.0665C19.5332 20.3611 19.772 20.5999 20.0665 20.5999Z" fill="white"/>
<path fill-rule="evenodd" clip-rule="evenodd" d="M20.0665 24.8675H21.6665C21.9611 24.8675 22.1999 24.6287 22.1999 24.3341C22.1999 24.0395 21.9611 23.8008 21.6665 23.8008H20.0665C19.772 23.8008 19.5332 24.0395 19.5332 24.3341C19.5332 24.6287 19.772 24.8675 20.0665 24.8675Z" fill="white"/>
<path fill-rule="evenodd" clip-rule="evenodd" d="M20.0665 29.1331H21.6665C21.9611 29.1331 22.1999 28.8943 22.1999 28.5997C22.1999 28.3052 21.9611 28.0664 21.6665 28.0664H20.0665C19.772 28.0664 19.5332 28.3052 19.5332 28.5997C19.5332 28.8943 19.772 29.1331 20.0665 29.1331Z" fill="white"/>
<path fill-rule="evenodd" clip-rule="evenodd" d="M25.9337 29.1331H33.9337C34.2283 29.1331 34.467 28.8943 34.467 28.5997C34.467 28.3052 34.2283 28.0664 33.9337 28.0664H25.9337C25.6392 28.0664 25.4004 28.3052 25.4004 28.5997C25.4004 28.8943 25.6392 29.1331 25.9337 29.1331Z" fill="white"/>
<path fill-rule="evenodd" clip-rule="evenodd" d="M25.9337 24.8675H33.9337C34.2283 24.8675 34.467 24.6287 34.467 24.3341C34.467 24.0395 34.2283 23.8008 33.9337 23.8008H25.9337C25.6392 23.8008 25.4004 24.0395 25.4004 24.3341C25.4004 24.6287 25.6392 24.8675 25.9337 24.8675Z" fill="white"/>
<path fill-rule="evenodd" clip-rule="evenodd" d="M33.9337 19.5332H25.9337C25.6392 19.5332 25.4004 19.772 25.4004 20.0665C25.4004 20.3611 25.6392 20.5999 25.9337 20.5999H33.9337C34.2283 20.5999 34.467 20.3611 34.467 20.0665C34.467 19.772 34.2283 19.5332 33.9337 19.5332Z" fill="white"/>
<path d="M31.2662 32.8672H22.7329C21.5547 32.8672 20.5996 33.8223 20.5996 35.0005C20.5996 36.1787 21.5547 37.1338 22.7329 37.1338H31.2662C32.4444 37.1338 33.3996 36.1787 33.3996 35.0005C33.3996 33.8223 32.4445 32.8672 31.2662 32.8672ZM31.2662 36.0672H22.7329C22.1438 36.0672 21.6662 35.5896 21.6662 35.0005C21.6662 34.4114 22.1438 33.9338 22.7329 33.9338H31.2662C31.8553 33.9338 32.3329 34.4114 32.3329 35.0005C32.3329 35.5896 31.8553 36.0672 31.2662 36.0672Z" fill="white"/>
</svg>
