<svg width="82" height="80" viewBox="0 0 82 80" fill="none" xmlns="http://www.w3.org/2000/svg">
<path d="M70.2668 28.6004V51.4003C70.2668 55.1337 68.2669 58.6005 65.0335 60.5005L45.2335 71.9338C42.0002 73.8004 38.0002 73.8004 34.7336 71.9338L14.9336 60.5005C11.7002 58.6338 9.7002 55.167 9.7002 51.4003V28.6004C9.7002 24.8671 11.7002 21.4003 14.9336 19.5003L34.7336 8.06699C37.9669 6.20033 41.9669 6.20033 45.2335 8.06699L65.0335 19.5003C68.2669 21.4003 70.2668 24.8338 70.2668 28.6004Z" stroke="#000066" stroke-width="3" stroke-linecap="round" stroke-linejoin="round"/>
<path d="M32.5 40.0003V36.0003C32.5 30.867 36.1334 28.7671 40.5667 31.3337L44.0333 33.3337L47.5 35.3336C51.9333 37.9002 51.9333 42.1004 47.5 44.6671L44.0333 46.667L40.5667 48.6669C36.1334 51.2336 32.5 49.1337 32.5 44.0004V40.0003Z" stroke="#000066" stroke-width="2.96296" stroke-miterlimit="10" stroke-linecap="round" stroke-linejoin="round"/>
<path d="M48.8893 74.444L42.2227 62.2218L45.556 49.9996L61.1115 37.7773L76.6671 43.3329L78.8893 53.3329L76.6671 65.5551L48.8893 74.444Z" fill="white"/>
<path d="M72.5711 69.7103C75.1706 70.3208 77.9192 68.9872 79.2237 66.6675C81.3667 62.8733 78.6926 59.5111 75.7855 56.7782C72.0492 53.2657 67.4837 49.9036 65.8718 45.1045C64.2599 49.913 59.6943 53.2657 55.958 56.7782C53.051 59.5111 50.3769 62.8733 52.5199 66.6675C54.048 69.3722 57.6072 70.6777 60.4584 69.3441" stroke="#CB0101" stroke-width="3.8486" stroke-miterlimit="10" stroke-linecap="round" stroke-linejoin="round"/>
<path d="M66.8703 77.7958H56.5C64.0005 75.4949 65.836 69.5594 65.9385 67.7656C66.041 69.4655 67.7275 75.4103 75.3212 77.7958" stroke="#CB0101" stroke-width="3.8486" stroke-miterlimit="10" stroke-linecap="round" stroke-linejoin="round"/>
</svg>
