<svg width="64" height="64" viewBox="0 0 64 64" fill="none" xmlns="http://www.w3.org/2000/svg">
<g clip-path="url(#clip0_387_23768)">
<path d="M58.6693 59.7328V42.6644C58.6693 40.3076 56.7589 38.3972 54.4022 38.3972H47.6483C51.7755 34.3993 54.1883 28.9544 54.3775 23.2115C54.4021 22.9352 54.4021 22.6717 54.4021 22.3954C54.3915 12.9766 48.5008 4.56662 39.6527 1.33814C34.7081 -0.446047 29.2954 -0.446047 24.3507 1.33814C15.5007 4.56483 9.60782 12.9755 9.59725 22.3955C9.59725 22.6718 9.59725 22.9374 9.61965 23.1551C9.79314 28.9185 12.2082 34.3869 16.3511 38.3973H9.59725C7.24063 38.3973 5.33008 40.3077 5.33008 42.6645V59.7328C5.33008 62.0895 7.24052 64 9.59725 64H54.4022C56.7589 64 58.6693 62.0896 58.6693 59.7328ZM40.4711 38.3972L41.5464 35.1968H47.6986C46.7312 36.3845 45.6318 37.4582 44.4214 38.3972H40.4711ZM25.7793 38.3972L24.4031 34.3029L27.5363 29.863H36.4632L39.5964 34.3029L38.2202 38.3972H25.7793ZM31.9997 15.1648L38.8528 19.9835L36.2466 27.7295H27.7528L25.1466 19.9835L31.9997 15.1648ZM49.2186 33.0633H41.332L38.1977 28.6212L40.9532 20.4315L45.9862 18.9507L52.2131 23.6275C52.0178 26.9734 50.9885 30.2171 49.2186 33.0633ZM49.1952 11.6934C50.9502 14.4848 51.986 17.6677 52.2099 20.9574L47.4393 17.3741L49.1952 11.6934ZM47.6323 9.52256L45.3484 16.9144L40.3068 18.3983L33.0665 13.3076V8.01519L39.4267 3.54537C42.6291 4.80128 45.4548 6.85964 47.6323 9.52256ZM36.8728 2.73246L31.9997 6.15683L27.1266 2.73141C30.3282 1.94872 33.6714 1.94914 36.8728 2.73246ZM24.5727 3.54537L30.9329 8.01519V13.3075L23.6926 18.3982L18.651 16.9143L16.3671 9.5214C18.545 6.85933 21.3706 4.80149 24.5727 3.54537ZM16.5601 17.3741L11.7895 20.9574C12.0129 17.6674 13.0488 14.484 14.8042 11.6924L16.5601 17.3741ZM11.7874 23.6265L18.0132 18.9507L23.0462 20.4315L25.8017 28.6212L22.6675 33.0633H14.7808C13.0138 30.2155 11.9849 26.972 11.7874 23.6265ZM16.3009 35.1968H22.4531L23.5284 38.3972H19.5813C18.3698 37.4585 17.2692 36.3848 16.3009 35.1968ZM7.46366 59.7328V42.6644C7.46366 41.486 8.41889 40.5308 9.59725 40.5308H54.4022C55.5805 40.5308 56.5357 41.486 56.5357 42.6644V59.7328C56.5357 60.9112 55.5805 61.8664 54.4022 61.8664H9.59725C8.41889 61.8664 7.46366 60.9112 7.46366 59.7328Z" fill="white"/>
<path fill-rule="evenodd" clip-rule="evenodd" d="M24.5326 44.7988C23.9435 44.7988 23.4658 45.2765 23.4658 45.8656V56.5335C23.4658 57.1226 23.9435 57.6002 24.5326 57.6002C25.1217 57.6002 25.5994 57.1226 25.5994 56.5335V45.8656C25.5994 45.2764 25.1217 44.7988 24.5326 44.7988Z" fill="white"/>
<path fill-rule="evenodd" clip-rule="evenodd" d="M38.7978 44.8736C38.5352 44.7685 38.2414 44.7721 37.9813 44.8835C37.7212 44.9949 37.5161 45.2051 37.411 45.4678L34.1338 53.6607L30.8577 45.4678C30.6385 44.9205 30.0171 44.6545 29.4698 44.8736C28.9225 45.0928 28.6565 45.7142 28.8756 46.2615L33.1428 56.9293C33.3044 57.3351 33.697 57.6013 34.1338 57.6013C34.5706 57.6013 34.9632 57.3351 35.1248 56.9293L39.392 46.2615C39.4975 45.9986 39.4941 45.7047 39.3826 45.4444C39.2711 45.184 39.0608 44.9787 38.7978 44.8736Z" fill="white"/>
<path fill-rule="evenodd" clip-rule="evenodd" d="M50.1355 46.9305C50.7247 46.9305 51.2023 46.4528 51.2023 45.8637C51.2023 45.2745 50.7247 44.7969 50.1355 44.7969H43.7348C43.1456 44.7969 42.668 45.2745 42.668 45.8637V56.5316C42.668 57.1207 43.1456 57.5984 43.7348 57.5984H50.1354C50.7245 57.5984 51.2022 57.1207 51.2022 56.5316C51.2022 55.9425 50.7245 55.4648 50.1354 55.4648H44.8015V52.2644H50.1354C50.7245 52.2644 51.2022 51.7868 51.2022 51.1976C51.2022 50.6085 50.7245 50.1308 50.1354 50.1308H44.8015V46.9305H50.1355Z" fill="white"/>
<path fill-rule="evenodd" clip-rule="evenodd" d="M20.2654 55.4667H14.9314V45.8656C14.9314 45.2765 14.4538 44.7988 13.8646 44.7988C13.2755 44.7988 12.7979 45.2765 12.7979 45.8656V56.5335C12.7979 57.1226 13.2755 57.6002 13.8646 57.6002H20.2653C20.8544 57.6002 21.3321 57.1226 21.3321 56.5335C21.3322 55.9442 20.8545 55.4667 20.2654 55.4667Z" fill="white"/>
</g>
<defs>
<clipPath id="clip0_387_23768">
<rect width="64" height="64" fill="white"/>
</clipPath>
</defs>
</svg>
