<svg width="80" height="80" viewBox="0 0 80 80" fill="none" xmlns="http://www.w3.org/2000/svg">
<path d="M0 10.2774C0 4.7545 4.47715 0.277344 10 0.277344H70C75.5229 0.277344 80 4.7545 80 10.2773V69.9996C80 75.5224 75.5229 79.9996 70 79.9996H10C4.47715 79.9996 0 75.5224 0 69.9996V10.2774Z" fill="url(#paint0_linear_603_7348)"/>
<path d="M40 21.861C29.9949 21.861 22 30.0016 22 39.9999C22 49.9982 29.9949 58.1389 40 58.1389C49.8711 58.1389 57.9999 50.005 57.9999 39.9999C58.0001 39.953 57.9955 39.9062 57.9863 39.8602C57.9103 29.9273 49.957 21.8604 39.9996 21.8604L40 21.861ZM36.5117 23.6269V27.6602C35.5595 27.9301 34.6491 28.2986 33.8001 28.7694L30.9686 25.938C32.6323 24.8532 34.4988 24.0556 36.5117 23.6269ZM43.4882 23.6269C45.5012 24.0556 47.3676 24.8532 49.0313 25.938L46.2298 28.7394C45.3722 28.2574 44.4544 27.8778 43.4882 27.6111V23.6269V23.6269ZM40 28.5597C40.0045 28.5598 40.009 28.5598 40.0136 28.5597C46.3158 28.4285 51.4403 33.6804 51.4403 39.9999C51.4403 46.3195 46.3195 51.4404 39.9999 51.4404C33.6804 51.4404 28.5595 46.3195 28.5595 39.9999C28.5595 33.6804 33.6804 28.5597 39.9999 28.5597H40ZM26.0251 30.9415L28.7694 33.8001C28.2984 34.6493 27.9302 35.5593 27.6602 36.5117H23.7577C24.1774 34.4952 24.9595 32.6175 26.0251 30.9415ZM53.9721 30.9415C55.0381 32.6178 55.8224 34.4947 56.2422 36.5117H52.2879C52.0242 35.5691 51.6687 34.6642 51.2114 33.8193L53.9721 30.9415V30.9415ZM39.1633 32.1866V33.1625C37.6285 33.4415 36.7897 34.6979 36.7897 36.5117C36.7897 40.4186 41.1173 40.6976 41.1173 43.4881C41.1173 44.4649 40.6976 44.8837 40 44.8837C39.3023 44.8837 38.8826 44.4649 38.8826 43.4881V42.3709H36.7897V43.3492C36.7897 45.3027 37.6285 46.4196 39.1633 46.6987V47.6741H40.9756V46.6987C42.5104 46.4196 43.3492 45.1632 43.3492 43.3492C43.3492 39.4423 39.0243 39.3027 39.0243 36.3726C39.0243 35.396 39.4413 34.9775 40.1389 34.9775C40.8366 34.9775 41.2563 35.396 41.2563 36.3726V36.9314H43.3492V36.5117C43.3492 34.6979 42.5104 33.4415 40.9756 33.1625V32.1866H39.1633ZM23.7577 43.4881H27.6575C27.9274 44.441 28.2983 45.3503 28.7694 46.1997L26.0278 49.0586C24.9619 47.3821 24.1775 45.5052 23.7577 43.4881V43.4881ZM52.3424 43.4881H56.234C55.8091 45.4953 55.0201 47.3632 53.9503 49.0341L51.2305 46.1997C51.7016 45.3503 52.0725 44.441 52.3424 43.4881V43.4881ZM33.8001 51.2305C34.6496 51.7016 35.5588 52.0725 36.5117 52.3424V56.373C34.4988 55.9443 32.6323 55.1469 30.9686 54.0621L33.8001 51.2305ZM46.1998 51.2305H46.2049L49.0037 54.032C47.3412 55.1213 45.4809 55.9226 43.4879 56.3567V52.337C44.4407 52.0671 45.3499 51.6962 46.1995 51.2251L46.1998 51.2305Z" fill="white"/>
<defs>
<linearGradient id="paint0_linear_603_7348" x1="0" y1="40.1385" x2="80" y2="40.1385" gradientUnits="userSpaceOnUse">
<stop stop-color="#DE4624"/>
<stop offset="1" stop-color="#D11C3A"/>
</linearGradient>
</defs>
</svg>
