<svg width="24" height="24" viewBox="0 0 24 24" fill="none" xmlns="http://www.w3.org/2000/svg">
<g clip-path="url(#clip0_387_37076)">
<path d="M5.14037e-08 21.9996H24V23.9996H5.14037e-08V21.9996ZM24 7.90858V9.99958H21V17.9996H23V19.9996H1V17.9996H3V9.99958H5.14037e-08V7.90858C-9.97046e-05 7.36962 0.144995 6.84059 0.420033 6.37709C0.695071 5.91359 1.08989 5.53274 1.563 5.27458L10.563 0.365579C11.0036 0.124439 11.4977 -0.00195312 12 -0.00195312C12.5023 -0.00195312 12.9964 0.124439 13.437 0.365579L22.437 5.27458C22.9101 5.53274 23.3049 5.91359 23.58 6.37709C23.855 6.84059 24.0001 7.36962 24 7.90858ZM5 17.9996H8V9.99958H5V17.9996ZM10 9.99958V17.9996H14V9.99958H10ZM19 9.99958H16V17.9996H19V9.99958ZM22 7.90858C22 7.72893 21.9517 7.55258 21.86 7.39808C21.7683 7.24358 21.6367 7.11663 21.479 7.03058L12.479 2.12158C12.3321 2.04141 12.1674 1.99939 12 1.99939C11.8326 1.99939 11.6679 2.04141 11.521 2.12158L2.521 7.03058C2.3633 7.11663 2.23169 7.24358 2.14001 7.39808C2.04833 7.55258 1.99997 7.72893 2 7.90858V7.99958H22V7.90858Z" fill="#000C28"/>
</g>
<defs>
<clipPath id="clip0_387_37076">
<rect width="24" height="24" fill="white"/>
</clipPath>
</defs>
</svg>
