<svg width="178" height="63" viewBox="0 0 178 63" fill="none" xmlns="http://www.w3.org/2000/svg">
<path d="M76.9236 20.4877V19H69.4475L63.9186 36.1103L58.175 19H50.5407V20.4877H53.2713V41.1947H50.5407V42.6523H57.4895V41.1947H54.759V22.8153L61.4893 42.9762H63.2783L69.7789 22.9245V41.1947H67.0484V42.6523H76.9236V41.1947H74.193V20.4877H76.9236Z" fill="#0B1014"/>
<path d="M92.5989 34.5246V34.0915C92.605 33.0776 92.4087 32.0726 92.0214 31.1355C91.6342 30.1984 91.0638 29.348 90.3436 28.6342C89.6235 27.9204 88.7682 27.3575 87.8277 26.9785C86.8872 26.5995 85.8806 26.4121 84.8667 26.4271C82.6692 26.4271 80.5616 27.3001 79.0077 28.854C77.4538 30.4079 76.5809 32.5154 76.5809 34.7129C76.5809 36.9105 77.4538 39.018 79.0077 40.5719C80.5616 42.1258 82.6692 42.9988 84.8667 42.9988C86.3373 43.0246 87.7851 42.6342 89.0433 41.8725C90.3015 41.1108 91.3186 40.0089 91.9775 38.6939L92.2449 38.0649H90.6743L90.5576 38.3474C90.2224 39.1685 88.456 41.5111 84.8667 41.5111C81.0628 41.5111 80.769 36.3099 80.769 34.7129V34.5472L92.5989 34.5246ZM84.8667 27.896C87.1867 27.896 87.9927 30.5851 88.2564 33.037H80.8481C81.1456 30.5851 82.0985 27.896 84.8667 27.896Z" fill="#0B1014"/>
<path d="M105.536 37.1989L105.431 37.5002C104.523 40.1027 103.31 41.1611 101.243 41.1611H98.851L106.715 26.7324H95.5555L93.9548 31.5344H95.4613L95.5667 31.2369C96.4932 28.6758 97.8265 28.19 99.9206 28.19H101.273L93.4087 42.6488H105.461L107.02 37.1989H105.536Z" fill="#0B1014"/>
<path d="M121.098 37.1985L121 37.481C120.078 40.0533 118.428 41.4732 116.353 41.4732C112.553 41.4732 112.255 36.272 112.255 34.6751C112.255 32.6337 112.654 27.8957 116.323 27.8957C118.334 27.8957 119.776 29.0256 120.613 31.244L120.722 31.534H122.228L120.507 26.732H118.266C117.646 26.4981 116.985 26.3881 116.323 26.4081C115.235 26.41 114.158 26.6263 113.153 27.0445C112.148 27.4628 111.236 28.0748 110.468 28.8456C109.7 29.6164 109.091 30.5309 108.677 31.537C108.262 32.543 108.05 33.6209 108.052 34.709C108.054 35.7971 108.27 36.8741 108.688 37.8787C109.107 38.8832 109.719 39.7955 110.489 40.5635C111.26 41.3315 112.175 41.9402 113.181 42.3548C114.187 42.7693 115.265 42.9817 116.353 42.9797C116.994 42.9708 117.63 42.8602 118.236 42.6521H120.654L122.601 37.2023L121.098 37.1985Z" fill="#0B1014"/>
<path d="M149.353 41.1646V19H142.826V20.4877H145.135V41.1646H142.826V42.6523H151.658V41.1646H149.353Z" fill="#0B1014"/>
<path d="M139.165 41.1608V33.0445C139.211 30.8374 138.717 29.2405 137.659 28.1483C136.487 26.9544 134.646 26.397 131.821 26.397C131.116 26.4185 130.417 26.5273 129.738 26.7209H127.441L126.142 30.3516H127.753C128.597 28.717 129.897 27.8846 131.625 27.8846C134.152 27.8846 134.815 29.4213 134.924 32.6339C134.096 31.8054 132.823 31.1086 130.879 31.1086C127.433 31.1086 123.961 32.9465 123.961 37.0518C123.961 41.1571 127.433 42.9649 130.879 42.9649C132.834 42.9649 134.115 42.2606 134.943 41.4207V42.6372H141.47V41.1307L139.165 41.1608ZM134.947 38.0725C134.902 39.0146 134.488 39.9011 133.795 40.5404C133.101 41.1797 132.184 41.5203 131.241 41.4885C128.838 41.4885 127.987 39.1044 127.987 37.0631C127.987 34.9088 128.842 32.6076 131.241 32.6076C132.184 32.5758 133.101 32.9164 133.795 33.5557C134.488 34.1949 134.902 35.0815 134.947 36.0236V38.0725Z" fill="#0B1014"/>
<path d="M152.863 27.5947H155.876C157.567 27.5947 158.543 28.3254 158.543 29.8093C158.543 31.2932 157.567 32.0163 155.876 32.0163H154.441V34.3816H152.863V27.5947ZM156.114 30.6492C156.231 30.6603 156.35 30.6468 156.462 30.6094C156.574 30.5721 156.676 30.5117 156.764 30.4323C156.851 30.3529 156.921 30.2561 156.968 30.1482C157.016 30.0403 157.041 29.9235 157.041 29.8055C157.041 29.6875 157.016 29.5708 156.968 29.4629C156.921 29.3549 156.851 29.2582 156.764 29.1787C156.676 29.0993 156.574 29.039 156.462 29.0017C156.35 28.9643 156.231 28.9508 156.114 28.9619H154.453V30.6492H156.114Z" fill="#0B1014"/>
<path d="M162.072 27.5947H165.352C166.682 27.5947 167.755 28.1973 167.755 29.5871C167.755 30.427 167.198 31.1689 165.966 31.3422C166.349 31.3723 166.712 31.5242 167.002 31.7757C167.292 32.0271 167.494 32.3649 167.578 32.7395L168.098 34.3816H166.535L166.106 32.9617C165.868 32.1821 165.431 31.8695 164.784 31.8695H163.654V34.3703H162.091L162.072 27.5947ZM165.085 30.5626C165.955 30.5626 166.237 30.2198 166.237 29.7415C166.237 29.2632 165.955 28.9129 165.085 28.9129H163.635V30.5626H165.085Z" fill="#0B1014"/>
<path d="M171.25 30.9804C171.25 28.9391 172.41 27.4966 174.542 27.4966C176.674 27.4966 177.804 28.9391 177.804 30.9804C177.804 33.0217 176.674 34.4793 174.542 34.4793C172.41 34.4793 171.25 33.0707 171.25 30.9804ZM176.199 30.9804C176.199 29.7677 175.646 28.8788 174.542 28.8788C173.439 28.8788 172.851 29.7677 172.851 30.9804C172.851 32.1931 173.427 33.1197 174.542 33.1197C175.657 33.1197 176.199 32.2308 176.199 30.9729V30.9804Z" fill="#0B1014"/>
<path d="M14.2784 56.4704L13.878 57.4903C13.6358 57.005 13.4109 56.4793 13.2029 55.939L14.2784 56.4706V56.4704Z" fill="#F31C45"/>
<path d="M13.782 54.314L12.9977 55.3853C12.7506 54.6978 12.5326 54.0006 12.3435 53.3423L13.782 54.3142V54.314Z" fill="#F31C45"/>
<path d="M14.0022 51.8196L12.1407 52.6121C11.8062 51.3648 11.5935 50.351 11.5164 49.9702L15.3522 47.8286C15.3584 47.8367 15.3653 47.8455 15.3714 47.8546C15.304 48.3305 14.999 50.1731 14.999 50.1731L12.5166 49.9551L14.0024 51.8196H14.0022Z" fill="#F31C45"/>
<path d="M14.1408 54.8638L14.3354 55.9157L13.5456 55.5176L14.1408 54.8638Z" fill="#0B1014"/>
<path d="M13.9908 52.436L13.9146 53.6406L12.8983 52.9386L13.9908 52.436Z" fill="#1BA098"/>
<path d="M14.6539 50.6335L14.3514 51.404L13.647 50.5771L14.6539 50.6335Z" fill="#F31C45"/>
<path d="M0.956255 47.355C0.956255 47.355 2.87675 46.2969 2.55195 45.7286C2.22306 45.1564 0.481964 46.624 0.481964 46.624L0.956255 47.355Z" fill="#0B1014"/>
<path d="M6.20621 40.9621C6.20621 40.9621 4.63022 41.6276 4.94121 42.0342C5.27258 42.4687 6.74802 41.6457 6.74802 41.6457L6.20621 40.9619V40.9621Z" fill="#1BA098"/>
<path d="M0.861518 45.7446C0.861518 45.7446 2.69527 45.2493 2.58405 44.5317C2.47397 43.814 0.148193 44.9534 0.148193 44.9534L0.861518 45.7446Z" fill="#DEB992"/>
<path d="M6.14969 39.5984C6.14969 39.5984 4.06984 39.0104 4.162 39.7831C4.25285 40.5552 6.20571 40.5449 6.20571 40.5449L6.14969 39.5984Z" fill="#F31C45"/>
<path d="M3.9361 45.3235L2.32759 42.6081C2.32759 42.6081 0.557419 40.8543 0.456548 40.7503C0.436177 40.7293 0.339413 40.6556 0.203056 40.5547C0.176935 40.9043 0.158864 41.2534 0.153442 41.6017C0.374898 41.5834 0.605883 41.5567 0.852146 41.507C0.852146 41.507 0.778711 42.3043 1.34517 43.4269C1.34517 43.4269 2.47085 44.1 3.09726 44.0972C3.09726 44.0972 3.0603 45.1391 3.19748 45.5754C3.19748 45.5754 3.9683 46.5693 4.27256 46.6048L3.9361 45.3237V45.3235Z" fill="#F31C45"/>
<path d="M1.86924 37.4684C1.44802 37.38 0.929204 37.4505 0.416471 37.5863C0.405793 38.3677 0.324964 39.1525 0.254486 39.9364C0.337779 40.0074 0.421892 40.0777 0.502556 40.151C0.567777 40.2106 0.632999 40.2696 0.697563 40.3292C0.942183 40.5533 1.18894 40.784 1.43142 41.0191C2.20849 38.8903 1.86908 37.4684 1.86908 37.4684H1.86924Z" fill="#1BA098"/>
<path d="M3.7383 43.7628C3.59176 43.5194 3.43487 43.2828 3.26516 43.0559C3.25465 43.0395 3.24348 43.0249 3.23132 43.0097C2.90834 42.5796 2.54987 42.1656 2.17218 41.7663C1.93101 41.5115 1.68294 41.2621 1.43158 41.0183C1.51159 40.9912 3.45951 40.3363 4.67522 40.8019C4.67522 40.8019 4.71235 42.5754 3.73847 43.7627L3.7383 43.7628Z" fill="#1BA098"/>
<path d="M4.72882 46.3845C4.68495 46.1264 4.62565 45.8711 4.55369 45.6201C4.45068 45.2613 4.31909 44.9109 4.16368 44.5713C4.03751 44.2946 3.89507 44.025 3.73834 43.7642C3.73834 43.7642 5.26126 43.8113 5.9074 44.4735C5.9074 44.4735 5.7395 45.5427 4.72882 46.3847V46.3845Z" fill="#1BA098"/>
<path d="M3.3194 39.3469C3.2141 39.1406 2.95239 39.0667 2.73784 39.133C2.45872 39.2185 2.31349 39.5418 2.45444 39.8048C2.57158 40.0225 2.87945 40.1243 3.10058 40.0088C3.33912 39.8845 3.43637 39.5754 3.31957 39.3469H3.3194Z" fill="#DEB992"/>
<path d="M5.3245 42.8564C5.18667 42.7118 4.95239 42.6685 4.81538 42.8858C4.74835 42.9923 4.74753 43.1365 4.81275 43.2438C4.89785 43.3833 5.10896 43.4572 5.2601 43.3899C5.47991 43.2921 5.47351 43.0131 5.3245 42.8566V42.8564Z" fill="#DEB992"/>
<path d="M5.9638 46.0201C5.84355 45.911 5.64016 45.9253 5.53814 46.0517C5.50069 46.0916 5.47867 46.1433 5.47128 46.1974C5.46701 46.2319 5.46701 46.2583 5.47062 46.2843C5.49674 46.4658 5.71491 46.5747 5.87755 46.4952C6.06057 46.4059 6.12217 46.1642 5.96364 46.02L5.9638 46.0201Z" fill="#DEB992"/>
<path d="M0.26017 39.8745C0.228463 40.2239 0.198728 40.5732 0.178192 40.9218C2.27118 42.659 4.90894 45.6204 4.50808 49.3063L4.71081 49.0646C4.71081 49.0646 6.20055 44.4623 0.260335 39.8745H0.26017Z" fill="#0B1014"/>
<path d="M25.129 41.7644C24.8696 41.6888 24.6123 41.6066 24.358 41.5151C24.4236 41.6219 24.4815 41.7369 24.5305 41.8644C24.981 43.0389 24.4015 44.7405 23.1336 45.1467C23.0242 45.1818 22.9111 45.2056 22.797 45.2184C22.3912 45.264 21.9167 45.1637 21.607 44.8868C21.2116 44.5329 21.0383 43.9326 21.2325 43.4325C21.3858 43.0371 21.77 42.687 22.2136 42.706C22.5545 42.7205 22.8817 42.9313 22.9437 43.2674C23.0498 43.8449 22.4651 43.7532 22.4651 43.7532C22.4651 43.7532 22.6371 43.418 22.3777 43.3164C22.1183 43.2147 21.8147 43.5838 22.0036 43.9953C22.323 44.6914 23.1789 44.2761 23.4649 43.7775C23.7475 43.2853 23.6907 42.3513 23.1142 42.0799C22.7766 41.9209 22.4884 42.0824 22.4884 42.0824C22.4884 42.0824 21.9443 41.4287 21.1914 41.846C20.4383 42.2631 20.1193 42.8981 20.2604 43.6188C20.2604 43.6188 19.4526 44.1325 19.8058 45.1637C20.2341 46.4121 21.5512 46.604 22.2093 46.0675C22.2093 46.0675 22.7761 47.225 24.0968 46.5283C24.3647 46.387 24.5647 46.2327 24.715 46.0754C24.9499 44.6471 25.1037 43.2051 25.1292 41.7645L25.129 41.7644Z" fill="#1BA098"/>
<path d="M24.07 41.9014C24.1423 41.8533 24.171 41.7586 24.1249 41.6816L24.1194 41.6732C24.0764 41.6013 23.9721 41.5704 23.9 41.6182C23.8277 41.6663 23.7989 41.7609 23.8453 41.838L23.8503 41.8464C23.8934 41.9183 23.9979 41.9492 24.07 41.9014Z" fill="#F31C45"/>
<path d="M24.319 42.686C24.4956 42.5802 24.331 42.3055 24.1543 42.4116C23.9777 42.5178 24.1423 42.7923 24.319 42.686Z" fill="#F31C45"/>
<path d="M24.2767 43.5058C24.3491 43.458 24.3777 43.363 24.3316 43.2861L24.3263 43.2776C24.2833 43.2058 24.1788 43.1749 24.1068 43.2226C24.0345 43.2707 24.0058 43.3653 24.052 43.4424L24.0572 43.4509C24.0546 43.4465 24.0899 43.6297 24.2769 43.5056L24.2767 43.5058Z" fill="#F31C45"/>
<path d="M23.8873 44.2402C23.9597 44.1921 23.9883 44.0975 23.9422 44.0204L23.9371 44.0119C23.8939 43.9401 23.7894 43.9093 23.7173 43.957C23.645 44.005 23.6162 44.0999 23.6625 44.1766L23.6675 44.1853C23.7107 44.257 23.815 44.2879 23.8873 44.2402Z" fill="#F31C45"/>
<path d="M23.3164 44.7823C23.4084 44.7269 23.285 44.5209 23.1927 44.5763C23.0603 44.6558 23.1837 44.8619 23.3164 44.7823Z" fill="#F31C45"/>
<path d="M22.5715 44.9835C22.7039 44.904 22.5806 44.698 22.4478 44.7778C22.3154 44.8573 22.4388 45.063 22.5715 44.9835Z" fill="#F31C45"/>
<path d="M21.9455 44.7539C22.0339 44.701 21.8913 44.5638 21.8029 44.617C21.7147 44.6699 21.8573 44.8071 21.9455 44.7539Z" fill="#F31C45"/>
<path d="M21.4886 44.2685C21.5768 44.2153 21.5549 44.078 21.4664 44.1312C21.378 44.1842 21.4 44.3214 21.4886 44.2685Z" fill="#F31C45"/>
<path d="M21.4818 43.748C21.5331 43.7173 21.4511 43.5799 21.3995 43.611C21.3113 43.664 21.3935 43.8012 21.4818 43.748Z" fill="#F31C45"/>
<path d="M21.7373 43.2796C21.8255 43.2266 21.6831 43.0894 21.5945 43.1423C21.5063 43.1954 21.6489 43.3329 21.7373 43.2796Z" fill="#F31C45"/>
<path d="M22.1647 43.0584C22.2161 43.0275 22.1338 42.89 22.0822 42.921C21.9939 42.9741 22.0762 43.1116 22.1647 43.0584Z" fill="#F31C45"/>
<path d="M22.5436 43.0874C22.6098 43.0476 22.5481 42.9448 22.4818 42.9846C22.4155 43.0242 22.4772 43.1275 22.5436 43.0874Z" fill="#F31C45"/>
<path d="M22.7634 43.3166C22.8296 43.2768 22.7678 43.1738 22.7016 43.2136C22.6351 43.2536 22.697 43.3566 22.7634 43.3166Z" fill="#F31C45"/>
<path d="M22.7446 43.5967C22.8108 43.557 22.7492 43.454 22.6829 43.4939C22.6166 43.534 22.6783 43.6368 22.7446 43.5967Z" fill="#F31C45"/>
<path d="M23.7203 45.8034C23.7764 45.7679 23.8956 45.8619 23.9867 46.0133C24.0773 46.1648 24.1026 46.3114 24.0432 46.3404C23.9835 46.3695 23.8643 46.2759 23.7769 46.1303C23.6895 45.9853 23.6642 45.8385 23.7202 45.8034H23.7203Z" fill="white"/>
<path d="M23.2325 46.5131C23.1664 46.5078 23.1247 46.3567 23.1395 46.1756C23.1539 45.9947 23.2195 45.8523 23.2855 45.8576C23.3516 45.863 23.3935 46.014 23.3787 46.1948C23.3642 46.3759 23.2987 46.5183 23.2325 46.5131Z" fill="white"/>
<path d="M20.6727 45.822C20.6241 45.7771 20.6719 45.6464 20.7795 45.5301C20.8869 45.4139 21.0136 45.3561 21.0624 45.4009C21.1112 45.4461 21.0634 45.5767 20.9558 45.6932C20.8483 45.8093 20.7215 45.8672 20.6729 45.8222L20.6727 45.822Z" fill="white"/>
<path d="M20.1563 45.3104C20.1259 45.2516 20.2468 45.1286 20.4265 45.0358C20.6061 44.9429 20.7763 44.9155 20.8069 44.9743C20.8372 45.0333 20.7162 45.1563 20.5366 45.2492C20.3569 45.3418 20.1865 45.3694 20.1563 45.3104Z" fill="white"/>
<path d="M20.0411 44.6139C20.04 44.5475 20.1606 44.4915 20.3107 44.4889C20.4607 44.4861 20.5834 44.5378 20.5844 44.6042C20.5857 44.6706 20.4648 44.7263 20.3148 44.7291C20.1647 44.7317 20.0423 44.6799 20.0411 44.6139Z" fill="white"/>
<path d="M20.9527 42.1875C20.9933 42.1589 21.0935 42.2302 21.1768 42.347C21.2599 42.4639 21.2944 42.5819 21.254 42.6108C21.2134 42.6399 21.1132 42.5684 21.0301 42.4516C20.9468 42.3348 20.9123 42.2167 20.9527 42.1876V42.1875Z" fill="white"/>
<path d="M21.4477 41.9441C21.4965 41.9339 21.5589 42.0349 21.5874 42.1695C21.6158 42.3045 21.5993 42.4221 21.5507 42.4322C21.5021 42.4427 21.4395 42.3415 21.4112 42.2068C21.3828 42.0719 21.3994 41.9543 21.4479 41.9441H21.4477Z" fill="white"/>
<path d="M20.5916 42.6495C20.6157 42.6059 20.713 42.6143 20.8088 42.6679C20.9046 42.7214 20.9624 42.8001 20.9384 42.8437C20.9138 42.887 20.8165 42.8788 20.7211 42.8251C20.6253 42.7717 20.5673 42.693 20.5916 42.6496V42.6495Z" fill="white"/>
<path d="M24.7585 41.6507C24.6243 41.6073 24.4905 41.5629 24.3578 41.5151C24.4233 41.6219 24.4815 41.7371 24.5305 41.8646C24.9809 43.0394 24.401 44.7402 23.1335 45.1468C23.0238 45.1818 22.9114 45.2058 22.7969 45.2186C22.3911 45.2641 21.916 45.1637 21.607 44.8869C21.2114 44.5327 21.0383 43.9331 21.2324 43.4327C21.3859 43.0369 21.7697 42.687 22.2136 42.7062C22.3925 42.7138 22.883 42.9382 22.9436 43.2676C23.0496 43.8452 22.4651 43.7534 22.4651 43.7534C22.7215 43.9242 22.9727 43.8058 23.0682 43.5263C23.1828 43.1931 22.9804 42.8284 22.7007 42.6425C22.0355 42.1989 21.1582 42.6408 20.8505 43.3067C20.8148 43.3837 20.7866 43.4644 20.7642 43.5467C20.6496 43.9807 20.736 44.4404 20.9596 44.8253C21.2264 45.285 21.654 45.5809 22.1804 45.6968C22.8707 45.85 23.573 45.6076 24.0742 45.144C24.7927 44.48 25.117 43.4077 24.9951 42.4476C24.9592 42.1667 24.8768 41.8992 24.7583 41.651L24.7585 41.6507Z" fill="#0B1014"/>
<path d="M6.40298 56.1484C6.40117 56.1415 6.40019 56.1338 6.39838 56.1267C6.3031 55.7676 5.36733 54.1847 4.61819 53.7839C4.32839 53.6291 4.06652 53.652 3.89189 53.9892C3.68226 54.3957 3.63527 55.0531 3.73861 55.716C4.62854 55.8599 5.52258 55.9866 6.40298 56.1483V56.1484Z" fill="#DEB992"/>
<path d="M4.00653 51.2001C4.14896 51.1257 4.2546 50.9133 4.29271 50.4906C4.38208 49.5172 4.41675 46.9154 2.93128 46.7735C2.0977 46.6941 1.69586 47.5941 1.74942 48.1715C1.81891 48.9088 2.17705 49.5826 2.62506 50.1622C2.8176 50.4122 3.5301 51.4492 4.00636 51.2001H4.00653Z" fill="#F31C45"/>
<path d="M8.00937 54.3738C7.50995 53.9453 6.89831 53.6356 6.27091 53.417C5.95187 53.3069 4.69903 52.8057 4.4733 53.2294C4.40628 53.3554 4.45835 53.5767 4.7015 53.936C5.24824 54.7416 6.84624 56.7692 8.13078 56.3187C8.07492 55.6716 8.035 55.0245 8.00921 54.3738H8.00937Z" fill="#1BA098"/>
<path d="M4.40281 51.1715C4.79972 51.2469 5.3504 50.7557 5.58172 50.5613C6.09264 50.1296 6.59486 49.5551 6.75406 48.8426C6.9282 48.0607 6.49646 46.987 5.54295 47.108C5.16082 47.1567 4.85525 47.4116 4.65187 47.7292C4.19729 48.4387 3.66254 49.8935 4.06931 50.8629C4.14965 51.0545 4.26727 51.1457 4.40265 51.1715H4.40281Z" fill="#DEB992"/>
<path d="M7.53365 49.2202C7.45906 49.2394 7.38234 49.2537 7.31236 49.2808C6.72487 49.509 6.20803 49.9695 5.73161 50.3595C5.40517 50.6265 4.90706 51.0352 5.00267 51.5007C5.12227 52.0791 6.56601 51.8212 6.98181 51.7408C7.22348 51.6937 7.52872 51.6088 7.83462 51.4888C7.74229 50.7308 7.6217 49.9774 7.53365 49.2202Z" fill="#1BA098"/>
<path d="M7.96012 52.9773C7.94698 52.5815 7.9133 52.1885 7.87058 51.7969C7.47614 51.8503 6.76248 52.0073 6.16629 52.2193C5.43802 52.4793 4.89325 52.8186 5.35062 53.1432C6.02928 53.6265 6.98985 53.7326 7.78778 53.9262C7.85563 53.9428 7.92513 53.9556 7.99429 53.9697C7.98263 53.64 7.97129 53.3103 7.96028 52.9773H7.96012Z" fill="#F31C45"/>
<path d="M0.65863 48.3708C0.729273 49.4401 0.853308 50.4845 0.845094 51.5607C1.36851 51.8362 1.9389 52.065 2.35783 52.0736C2.714 52.0795 2.9601 51.9267 2.9711 51.508C2.99887 50.4792 1.88797 48.7568 0.65863 48.3706V48.3708Z" fill="#1BA098"/>
<path d="M3.69138 55.7099C3.71964 55.2897 3.69631 54.8736 3.61121 54.4607C3.55568 54.1928 3.49867 53.7472 3.10817 53.8187C3.07137 53.8088 3.02882 53.8128 2.98364 53.8386C2.5381 54.1045 2.18094 54.4918 1.86371 54.8903C2.07449 55.1161 2.30465 55.3191 2.5565 55.5031C2.93287 55.5787 3.31106 55.6482 3.69154 55.7101L3.69138 55.7099Z" fill="#F31C45"/>
<path d="M1.91225 54.9433C2.02594 54.8177 2.13338 54.6923 2.22587 54.5721C2.41398 54.3269 2.74781 53.942 2.74781 53.6859C2.74781 53.5847 2.69573 53.5034 2.56233 53.4577C2.21404 53.3407 1.64447 53.4081 1.23556 53.4467C1.10726 53.459 0.950693 53.4776 0.780823 53.5019C1.15424 54.0286 1.50729 54.52 1.91225 54.9433Z" fill="#1BA098"/>
<path d="M0.785227 53.5078C1.24555 53.4149 1.6975 53.2768 2.09179 53.1297C2.92093 52.8212 2.21681 52.3022 1.79312 52.0233C1.60961 51.9022 1.44089 51.8069 1.36252 51.7622C1.1961 51.6665 1.02262 51.5705 0.844534 51.4785C0.844206 51.7351 0.839113 51.9927 0.82137 52.2538C0.79147 52.6914 0.771099 53.0967 0.768799 53.4844C0.774385 53.4922 0.779806 53.4999 0.785392 53.5078H0.785227Z" fill="#F31C45"/>
<path d="M2.47876 53.142C2.47876 53.142 1.78334 53.613 1.21311 54.0992C1.36704 54.3063 1.52393 54.5046 1.68625 54.6925C2.26092 54.304 2.81521 53.8029 2.81521 53.8029C2.81521 53.8029 2.29558 54.3771 1.93448 54.9669C2.1239 55.1627 2.33189 55.3383 2.55433 55.5008C2.60904 55.5118 2.66308 55.525 2.71796 55.5355C3.0968 54.9695 3.38972 54.2496 3.38972 54.2496C3.38972 54.2496 3.19258 54.9685 3.17763 55.6198C3.45905 55.6694 3.74063 55.718 4.02353 55.7624C4.07117 55.1272 3.99889 54.3796 3.99889 54.3796C3.99889 54.3796 4.22396 55.2786 4.508 55.8371C4.72617 55.8705 4.94352 55.9053 5.16137 55.939C5.24909 55.3208 4.67163 54.1404 4.67163 54.1404C4.67163 54.1404 5.95568 55.7489 6.66014 55.7548C7.36459 55.7597 5.2302 53.7612 5.2302 53.7612C5.2302 53.7612 6.86057 54.9738 7.5085 54.6484C8.15644 54.3239 5.45691 53.0696 5.45691 53.0696C5.45691 53.0696 7.8121 53.5439 7.79584 52.8503C7.77941 52.1576 5.50406 52.5823 5.50406 52.5823C5.50406 52.5823 7.92727 51.9621 7.63254 51.3677C7.37708 50.8524 5.78598 51.6743 5.36689 51.9023C5.77793 51.6709 7.27456 50.7793 6.69431 50.3735C6.13163 49.9797 5.21377 50.9676 4.93449 51.2932C5.26667 50.89 6.44706 49.3973 5.88208 49.1975C5.22708 48.9654 4.40007 51.1207 4.40007 51.1207C4.40007 51.1207 5.14773 48.9644 4.20802 48.8424C3.26831 48.7223 3.67377 51.0612 3.67377 51.0612C3.67377 51.0612 2.98952 48.7541 2.03404 48.8691C1.07741 48.9853 2.78121 51.4045 2.78121 51.4045C2.78121 51.4045 1.49009 49.9373 0.797137 50.2017C0.818001 50.509 0.834594 50.8172 0.841822 51.1274C1.39251 51.5918 2.40762 51.9682 2.32926 52.0147C2.26092 52.0556 1.4988 51.6462 0.844122 51.4584C0.844122 51.7215 0.839358 51.9856 0.821122 52.2532C0.816851 52.3157 0.814551 52.3728 0.810608 52.434C1.51736 52.613 2.37247 52.6152 2.37247 52.6152C2.37247 52.6152 1.54315 52.6608 0.788265 52.8204C0.777094 53.0518 0.77348 53.273 0.773315 53.4905C0.833115 53.5749 0.893736 53.6603 0.952715 53.743C1.703 53.5279 2.47876 53.1422 2.47876 53.1422V53.142Z" fill="white"/>
<path d="M4.05456 49.9795C3.32924 49.9884 2.29375 50.3457 1.88238 50.9411C1.3386 51.728 1.36242 52.8035 1.71366 53.6054C1.74537 53.6769 1.77724 53.7415 1.80993 53.8019C1.81486 53.8139 1.81946 53.8277 1.82488 53.8387C2.19798 54.7168 2.94711 55.2031 4.01332 55.22C6.35865 55.2576 6.96191 52.6499 6.06294 51.1745C5.60952 50.4303 5.04043 49.9659 4.05456 49.9798V49.9795Z" fill="#1BA098"/>
<path d="M30.1577 37.4948C30.1577 37.4948 29.0979 39.6505 29.9883 40.0051C30.8791 40.3598 31.5012 38.2086 31.5012 38.2086L30.1577 37.4946V37.4948Z" fill="#F31C45"/>
<path d="M31.7747 38.2065C31.7747 38.2065 30.8003 40.1081 31.6071 40.4167C32.4144 40.7245 33.0462 38.3536 33.0462 38.3536L31.7747 38.2065Z" fill="#F31C45"/>
<path d="M33.2446 38.4995C33.2446 38.4995 32.2691 40.8286 33.3284 41.0397C34.3878 41.2508 34.2475 38.4995 34.2475 38.4995H33.2446Z" fill="#0B1014"/>
<path d="M35.4726 38.4331L34.5639 38.6822C34.5639 38.6822 34.1918 41.093 35.2649 41.0505C35.487 41.0416 35.649 40.9659 35.7734 40.8527C35.6988 40.0416 35.5508 39.243 35.4727 38.4331H35.4726Z" fill="#F31C45"/>
<path d="M28.9467 47.7998C28.8875 48.1632 28.8197 48.5263 28.7549 48.8893C28.731 49.1989 28.7061 49.5084 28.6787 49.8175C28.9927 49.9206 29.3513 49.7901 29.3513 49.7901C29.3283 50.5782 30.2215 50.3582 30.2215 50.3582C30.0705 50.2596 29.0336 49.1887 28.9465 47.8L28.9467 47.7998Z" fill="#1BA098"/>
<path d="M33.7469 44.1798C33.7469 44.1798 33.8359 43.534 33.3603 43.4304C32.8553 43.3203 32.5959 43.835 32.5959 43.835C32.5959 43.835 32.2228 43.0062 31.4669 43.2311C30.718 43.4548 30.7162 44.387 30.7162 44.387C30.7162 44.387 30.0741 43.8685 29.3496 44.2078C29.3526 44.2723 29.3608 44.3333 29.3562 44.4026C29.3076 45.1443 29.2249 45.8844 29.1234 46.6239C29.2506 46.2799 29.4433 45.9295 29.7419 45.5782C31.863 43.0834 34.438 44.9653 34.438 44.9653C34.2772 43.9336 33.7469 44.18 33.7469 44.18V44.1798Z" fill="#1BA098"/>
<path d="M34.1342 46.3093C34.0309 45.6699 34.0923 45.101 34.3156 44.6084C33.1605 44.0658 31.1235 43.5279 29.5423 45.3819C29.4182 45.5273 29.3167 45.6743 29.2245 45.8218C29.1294 46.649 29.0044 47.4747 28.8634 48.2998C29.0471 49.0318 29.4292 49.6909 29.7926 50.1857C30.1843 49.9824 30.6436 49.8741 31.1674 49.8636C33.0172 49.8284 34.0092 51.3768 34.411 52.2184C34.6827 51.8891 35.0092 51.4677 35.3261 51.0492C35.3303 50.1233 35.3323 49.1959 35.3382 48.2702C34.7716 47.837 34.2804 47.2127 34.134 46.3093H34.1342Z" fill="#F31C45"/>
<path d="M35.338 48.3245C34.2267 48.2211 32.5275 48.8338 33.3033 50.6862C33.8491 51.1784 34.2064 51.7896 34.4111 52.2184C34.6828 51.889 35.0092 51.4676 35.3261 51.0491C35.3304 50.1415 35.3321 49.2321 35.338 48.3246V48.3245Z" fill="white"/>
<path d="M35.3383 48.2672C35.0991 48.0839 34.8711 47.8711 34.6796 47.6127C34.1529 47.4312 33.3398 47.3088 32.7175 47.9253C32.0638 48.5728 32.1359 49.4387 32.3201 50.0666C32.7001 50.2156 33.0264 50.4358 33.3035 50.6863C32.5278 48.8338 34.2268 48.2214 35.3382 48.3246C35.3382 48.3053 35.3385 48.2863 35.3387 48.2671L35.3383 48.2672Z" fill="#DEB992"/>
<path d="M29.5423 45.3817C29.4182 45.5271 29.3167 45.6742 29.2245 45.8217C29.1294 46.6489 29.0044 47.4746 28.8634 48.2996C29.0471 49.0317 29.4292 49.6908 29.7926 50.1856C30.0092 50.0729 30.2469 49.9896 30.5048 49.9357C30.0069 49.2482 29.275 47.7823 30.5626 46.2393C31.9364 44.594 33.4256 45.176 34.0938 45.5002C34.1174 45.18 34.1914 44.8826 34.3154 44.6084C33.1603 44.0658 31.1233 43.5279 29.5421 45.3819L29.5423 45.3817Z" fill="#0B1014"/>
<path d="M30.5629 46.2392C31.9366 44.5939 33.4259 45.1759 34.094 45.5001C34.0751 45.7555 34.0886 46.0258 34.1342 46.3092C34.1523 46.4196 34.176 46.5255 34.2036 46.6277C33.5269 46.388 32.3301 46.1644 31.5144 47.1393C30.6733 48.1454 31.1456 49.2985 31.4829 49.8733C31.3805 49.8651 31.2754 49.8615 31.1674 49.8633C30.9335 49.8684 30.7124 49.8921 30.5049 49.9354C30.0068 49.2481 29.275 47.782 30.5627 46.239L30.5629 46.2392Z" fill="#1BA098"/>
<path d="M31.5144 47.1399C32.33 46.1648 33.5268 46.3886 34.2035 46.6283C34.3065 47.0088 34.4731 47.335 34.6795 47.6132C34.1528 47.4318 33.3397 47.3092 32.7174 47.9258C32.0637 48.5734 32.1358 49.4392 32.3198 50.0671C32.0657 49.9665 31.7867 49.8985 31.4828 49.8739C31.1454 49.2991 30.673 48.1459 31.5144 47.1399Z" fill="#F31C45"/>
<path d="M35.3384 48.2696C35.3488 46.6588 35.3624 45.0467 35.376 43.4346C35.1252 43.5946 34.8809 43.7899 34.6731 44.039C34.1697 44.6422 33.9885 45.4063 34.1344 46.3089C34.2806 47.212 34.7718 47.8361 35.3386 48.2695L35.3384 48.2696Z" fill="#0B1014"/>
<path d="M34.5946 52.6498C34.4088 52.1451 33.4295 49.8199 31.1675 49.8629C30.2531 49.881 29.5337 50.1957 29.0305 50.799C28.7717 51.1088 28.6014 51.4596 28.4849 51.8001C28.3306 53.2493 28.1547 54.6962 27.9779 56.1433C28.4924 56.1033 29.0821 56.1813 29.7328 56.3362C31.8705 55.9654 33.879 55.2652 35.2925 53.5266C35.3016 53.5156 35.3116 53.509 35.3206 53.4984C35.3223 53.0709 35.3219 52.6428 35.3236 52.2153C34.9529 52.351 34.706 52.5434 34.5948 52.6497L34.5946 52.6498Z" fill="white"/>
<path d="M33.7565 52.6791C33.7565 52.6791 32.2067 50.4122 30.7297 50.7907C29.2532 51.169 28.9538 53.4927 28.9538 53.4927C28.9538 53.4927 29.6652 51.8336 30.9407 51.6569C32.6046 51.426 33.7567 52.6791 33.7567 52.6791H33.7565Z" fill="#1BA098"/>
<path d="M33.8868 54.2833C30.4621 52.3365 29.6844 55.9467 29.6844 55.9467C29.6844 55.9467 29.6578 55.9334 29.6202 55.9153C29.6543 56.0508 29.6764 56.1895 29.6782 56.3299C29.6967 56.3334 29.714 56.3322 29.7327 56.3367C31.405 56.0465 32.9964 55.5524 34.2874 54.519C34.1594 54.4412 34.0261 54.3625 33.8868 54.2833Z" fill="#F31C45"/>
<path d="M35.3321 49.0664C33.6579 49.8474 33.7189 52.3238 35.3213 53.1612C35.3252 51.7967 35.3241 50.4303 35.3321 49.0664Z" fill="#1BA098"/>
<path d="M35.2924 53.527C35.3014 53.516 35.3113 53.5094 35.3205 53.4988C35.3208 53.3976 35.321 53.296 35.3211 53.1948C35.3195 53.1953 35.318 53.1956 35.3164 53.1961C34.5393 53.4713 34.0888 54.0866 33.9385 54.7738C34.4296 54.4293 34.8876 54.0248 35.2922 53.527H35.2924Z" fill="#F31C45"/>
<path d="M35.3212 53.167C35.3248 51.9561 35.3227 50.7437 35.3296 49.5332C34.1703 50.3977 34.2052 52.2561 35.3212 53.167Z" fill="#F31C45"/>
<path d="M33.9768 42.9457C33.918 42.5084 34.6358 42.2851 34.8144 42.8101C34.8753 42.9897 34.8124 43.2112 34.6519 43.312C34.4524 43.4382 34.135 43.2986 34.032 43.108C34.0013 43.0515 33.9839 42.9971 33.9768 42.9457Z" fill="#F31C45"/>
<path d="M33.9617 41.3898C34.3573 41.3366 34.5594 41.986 34.0843 42.1475C33.9218 42.2025 33.7215 42.1457 33.6302 42.0005C33.516 41.8199 33.6425 41.5329 33.8148 41.4398C33.8661 41.412 33.9152 41.3962 33.9617 41.3898Z" fill="#1BA098"/>
<path d="M32.2299 42.1104C32.4098 41.8562 32.7892 41.7955 32.9976 42.0388C33.1335 42.1978 33.1613 42.4406 33.065 42.6259C32.757 43.2182 31.8605 42.7544 32.2025 42.1541C32.2109 42.139 32.2204 42.1244 32.2299 42.1104Z" fill="#F31C45"/>
<path d="M31.7276 41.4717C31.7801 41.7786 31.5549 42.0898 31.2354 42.0653C31.0269 42.0489 30.8355 41.8967 30.7726 41.6976C30.5716 41.061 31.5334 40.7551 31.7161 41.4213C31.7208 41.4381 31.7244 41.455 31.7276 41.4716V41.4717Z" fill="#1BA098"/>
<path d="M19.2188 43.8487C19.2714 44.1556 19.0461 44.4667 18.7266 44.4423C18.5181 44.4258 18.3267 44.2737 18.2638 44.0746C18.0629 43.438 19.0246 43.1321 19.2073 43.7983C19.2121 43.815 19.2157 43.8319 19.2188 43.8485V43.8487Z" fill="#0B1014"/>
<path d="M29.4037 42.9138C29.3322 42.7413 29.3608 42.54 29.4551 42.3925C29.7834 41.8811 30.5964 41.9838 30.5566 42.7375C30.5294 43.2579 29.8318 43.5259 29.4617 43.0166C29.4379 42.9841 29.4186 42.9496 29.4037 42.9136V42.9138Z" fill="#F31C45"/>
<path d="M21.8197 40.7733C19.7331 40.4025 17.5 40.4804 15.3218 40.7719C14.7647 44.369 14.2105 49.2655 15.3794 48.9827C17.2156 48.5399 19.4325 46.4298 19.4325 46.4298C17.4059 43.8962 16.2958 43.7029 16.2958 43.7029C19.6019 42.9117 21.2393 41.4195 21.8197 40.7733Z" fill="#F31C45"/>
<path d="M15.8258 30.9064C16.5434 29.9345 17.434 28.3835 18.1946 26.0063C18.1946 26.0063 15.4018 25.1702 11.1713 26.4319C11.1713 26.4319 12.431 25.3723 12.9156 22.1643C12.9156 22.1643 10.0832 21.4654 7.17469 22.6682C5.83922 23.2195 10.8355 28.555 13.2634 31.0383C14.1177 30.9991 14.9718 30.956 15.8256 30.9066L15.8258 30.9064Z" fill="#F31C45"/>
<path d="M16.2955 40.6582L16.365 42.2176C18.341 41.6836 19.7341 40.5575 19.7341 40.5575C19.7284 40.5524 19.7225 40.5479 19.7167 40.5428C18.5884 40.4909 17.4386 40.5414 16.2953 40.658L16.2955 40.6582Z" fill="white"/>
<path d="M16.0992 45.5216C16.0992 45.5216 16.6852 45.6846 17.5776 46.7313C17.5776 46.7313 16.5992 47.3795 15.7386 47.5307L16.0992 45.5215V45.5216Z" fill="white"/>
<path d="M12.2863 27.9137C12.2863 27.9137 14.448 27.1764 15.6213 27.3448C15.6213 27.3448 15.1434 29.1663 13.7728 30.4276L12.2863 27.9137Z" fill="white"/>
<path d="M9.95074 25.0703C9.95074 25.0703 10.9006 23.6343 10.6371 22.6533C10.6371 22.6533 9.18123 22.6906 8.16217 23.4314L9.95058 25.0704L9.95074 25.0703Z" fill="white"/>
<path d="M8.04815 22.4342C6.87762 22.8635 5.7935 23.484 4.88698 24.2698C4.41844 24.6743 3.99097 25.1178 3.61082 25.5875C3.32381 25.9389 3.06687 26.3071 2.83375 26.6891C2.64794 26.9948 2.47988 27.3115 2.33153 27.6426C2.23066 27.8625 2.13948 28.0893 2.05569 28.3211C3.56284 29.5465 5.0189 31.0401 6.19666 32.6776C7.20668 31.0145 9.97981 31.1612 11.6608 31.108C12.7815 31.0725 13.9011 31.0152 15.0206 30.9527C13.171 26.8854 10.4485 24.1678 8.04799 22.4341L8.04815 22.4342Z" fill="#DEB992"/>
<path d="M17.1814 40.582C15.1931 40.7204 13.2104 41.0882 11.3712 41.5055C11.3878 43.9918 11.5177 46.4296 11.661 48.887C12.5508 49.0499 13.5092 49.4659 14.3909 49.2474C15.1844 49.0508 15.8949 48.8531 16.1982 48.6938C16.7908 46.5751 17.2647 43.685 17.1814 40.582Z" fill="#0B1014"/>
<path d="M7.17487 22.6685C6.00533 23.0974 4.9222 23.722 4.01682 24.5117C3.54911 24.9192 3.12196 25.3642 2.7428 25.8372C2.45628 26.1901 2.19868 26.56 1.96638 26.9455C1.78107 27.2532 1.61432 27.5712 1.46679 27.9052C1.45546 27.9302 1.44741 27.9573 1.4364 27.9824C1.50392 28.0315 1.57161 28.079 1.6365 28.1421C3.0482 29.5177 4.85944 30.9591 6.23861 32.6111C7.28182 31.0187 10.0025 31.1603 11.6608 31.1079C12.4588 31.0826 13.2562 31.0453 14.0533 31.0046C12.1982 27.0443 9.52941 24.3829 7.17487 22.6686V22.6685Z" fill="#1BA098"/>
<path d="M16.3436 40.6533C14.6373 40.8245 12.9514 41.1463 11.3712 41.5048C11.3891 44.1771 11.5384 46.7945 11.6929 49.4398C12.3074 49.4983 12.926 49.5012 13.5435 49.4266C14.153 49.3535 14.7661 49.2073 15.3794 48.9822C15.9882 46.7757 16.4762 43.914 16.3438 40.6533H16.3436Z" fill="#1BA098"/>
<path d="M6.601 32.1885C7.81326 31.0536 10.1514 31.1548 11.645 31.1088C12.0669 29.9354 12.1354 28.8944 12.1354 28.8944C9.95586 27.8025 7.27374 29.1817 7.27374 29.1817C8.47007 26.5177 7.86763 24.0499 7.86763 24.0499C5.58145 23.977 2.74277 25.8379 2.74277 25.8379L4.11142 30.2006C4.94024 30.8665 5.77974 31.5185 6.601 32.1885Z" fill="#0B1014"/>
<path d="M15.7022 41.5121C15.5716 41.2478 15.399 41.0077 15.2015 40.7876C13.8866 40.9683 12.5974 41.2252 11.3712 41.5034C11.3876 43.9578 11.5143 46.3646 11.6556 48.7899C13.602 48.2553 14.9536 47.5501 14.9536 47.5501C13.6322 44.5505 11.4924 43.8791 11.4924 43.8791C14.2677 43.0835 15.7022 41.5119 15.7022 41.5119V41.5121Z" fill="#DEB992"/>
<path d="M6.2357 28.2392C6.2357 28.2392 6.89597 26.7225 6.70194 25.5815C6.70194 25.5815 5.15684 25.8582 4.16095 26.6379L6.23587 28.2392H6.2357Z" fill="white"/>
<path d="M10.1212 31.147C10.4789 30.4805 10.5452 29.8996 10.5452 29.8996C9.62131 29.7606 8.20599 30.4018 8.20599 30.4018L8.72481 31.2811C9.18579 31.2053 9.66107 31.1669 10.1214 31.147H10.1212Z" fill="white"/>
<path d="M13.2999 41.1001C12.6822 41.2164 12.0745 41.3432 11.4821 41.4766L11.5013 42.5872C12.7566 42.3275 13.612 41.3955 13.612 41.3955C13.518 41.2856 13.4124 41.1878 13.3 41.1001H13.2999Z" fill="white"/>
<path d="M11.5944 47.6865C12.6024 47.4622 13.376 47.0729 13.376 47.0729C12.8801 46.1179 11.9323 45.5286 11.4743 45.2871C11.5099 46.0868 11.5494 46.8872 11.5944 47.6867V47.6865Z" fill="white"/>
<path d="M6.11953 32.8125C6.62996 31.83 7.70997 31.4251 8.87146 31.2555C7.10491 28.4952 4.80114 26.834 2.74281 25.8369C2.4563 26.1898 2.1987 26.5598 1.9664 26.9452C1.78109 27.2529 1.61434 27.5709 1.46681 27.9049C1.40521 28.0408 1.35592 28.1852 1.30072 28.3257C3.10145 29.4834 4.70421 31.0811 6.11953 32.8125Z" fill="white"/>
<path d="M11.4323 44.2621C11.5701 43.3634 11.6541 42.4204 11.6628 41.4365C11.5645 41.4584 11.4686 41.4809 11.371 41.5029C11.3771 42.4281 11.3986 43.3473 11.4321 44.2621H11.4323Z" fill="white"/>
<path d="M10.1647 26.7583C10.0625 26.4367 9.73938 26.2274 9.40144 26.3181C9.06663 26.408 8.83959 26.7656 8.94161 27.0867C9.04396 27.4087 9.36694 27.6175 9.70471 27.5266C10.0387 27.4369 10.2666 27.0791 10.1645 26.7581L10.1647 26.7583Z" fill="white"/>
<path d="M15.2514 44.1813C15.1615 43.8465 14.805 43.6196 14.4839 43.7213C14.1619 43.8236 13.9532 44.1471 14.0439 44.4849C14.1338 44.8192 14.4913 45.0462 14.8123 44.9442C15.1335 44.8427 15.3419 44.5187 15.2514 44.1813Z" fill="white"/>
<path d="M5.49242 27.6873C5.28443 26.9127 4.08105 27.2353 4.2892 28.0104C4.49702 28.7839 5.70073 28.4627 5.49242 27.6873Z" fill="#F31C45"/>
<path d="M17.8961 28.949C17.8938 28.7351 17.8971 28.5028 17.9893 28.2905C18.0844 28.0727 18.3619 27.9071 18.5999 28.0599C18.8161 28.1983 18.8544 28.5026 18.848 28.7272C18.8406 29.0194 18.7026 29.3096 18.4951 29.5622C18.3132 29.7844 18.0819 29.9799 17.8281 30.1471C17.8155 30.1553 17.801 30.1643 17.7887 30.1735C17.7747 30.1809 17.7612 30.19 17.7476 30.1983C17.5432 30.3247 17.3234 30.4329 17.0952 30.5218C17.0675 30.5325 17.0435 30.542 17.0203 30.5504C17.1928 30.4591 17.9127 30.028 17.8961 28.949Z" fill="#1BA098"/>
<path d="M18.2958 30.7674C18.7934 30.7389 19.2912 30.7115 19.7892 30.6864C19.5491 30.4947 19.2214 30.3923 18.8787 30.3608C18.5767 30.3327 18.2625 30.3573 17.9569 30.4145C17.94 30.4184 17.9245 30.4206 17.9086 30.4237C17.8926 30.4275 17.8765 30.4307 17.8606 30.4344C17.6204 30.4863 17.384 30.5609 17.1585 30.6553C17.1317 30.6662 17.107 30.6765 17.085 30.6856C17.2248 30.6461 17.7096 30.5354 18.296 30.7672L18.2958 30.7674Z" fill="#1BA098"/>
<path d="M19.9874 29.7041C19.6813 29.8937 19.2363 30.0191 18.8822 30.0808C18.7045 30.1127 18.5473 30.1311 18.4354 30.1405C18.3228 30.1512 18.2556 30.1538 18.2556 30.1538C18.2556 30.1538 18.2995 30.1081 18.3762 30.0345C18.4526 29.9599 18.5581 29.8597 18.6784 29.7478C18.9212 29.5242 19.2095 29.2604 19.4791 29.0932C19.7511 28.9274 19.9949 28.8096 20.1968 28.7528C20.3986 28.6954 20.5573 28.6989 20.6402 28.7751C20.7227 28.8494 20.7145 28.9846 20.6066 29.1507C20.4998 29.3171 20.2939 29.5169 19.9874 29.7041Z" fill="#0B1014"/>
<path d="M15.269 25.1134C15.4924 25.2393 15.7364 25.3707 15.9994 25.4119C16.2691 25.4538 16.5611 25.3029 16.5033 25.0044C16.4504 24.7326 16.1472 24.5228 15.9105 24.3983C15.6003 24.237 15.2363 24.1911 14.8821 24.2286C14.5721 24.2616 14.2673 24.353 13.9839 24.4809C13.9692 24.4887 13.9537 24.4944 13.9396 24.5013C13.9248 24.509 13.9095 24.5158 13.8957 24.5232C13.6746 24.6303 13.4676 24.7627 13.2762 24.9142C13.2544 24.9311 13.2335 24.9483 13.2151 24.963C13.3845 24.8639 14.1443 24.475 15.269 25.1136V25.1134Z" fill="#1BA098"/>
<path d="M15.748 23.2725C15.5122 23.5461 15.1139 23.7785 14.7843 23.92C14.6184 23.9921 14.4682 24.0447 14.3611 24.0792C14.2527 24.113 14.1865 24.1309 14.1865 24.1309C14.1865 24.1309 14.2147 24.0705 14.263 23.9742C14.312 23.877 14.381 23.7429 14.4607 23.5944C14.6202 23.2974 14.8117 22.9451 15.0191 22.7041C15.2289 22.4634 15.4291 22.2831 15.6106 22.1778C15.79 22.0729 15.9494 22.0429 16.0605 22.1099C16.1691 22.175 16.2096 22.3261 16.1631 22.5315C16.1178 22.737 15.9857 23.0023 15.7478 23.2727L15.748 23.2725Z" fill="#0B1014"/>
<path d="M24.212 52.1823L23.59 48.858C23.59 48.858 19.9378 47.3934 17.3758 50.5357C14.8133 53.6781 17.2319 56.8643 17.2319 56.8643L22.658 56.2585L24.0507 54.1327C24.0806 53.4798 24.1333 52.8296 24.2122 52.1821L24.212 52.1823Z" fill="#DEB992"/>
<path d="M16.3316 52.4442C15.3995 51.6012 16.4382 51.5503 16.6681 51.5503C16.5177 51.8516 16.411 52.1544 16.3316 52.4442Z" fill="#F31C45"/>
<path d="M17.9219 49.8926C17.5827 49.0842 18.4614 49.243 18.6901 49.2964C18.4212 49.4693 18.1647 49.6674 17.9219 49.8926Z" fill="#F31C45"/>
<path d="M16.6852 51.517C16.1049 50.7373 16.962 50.7165 17.1797 50.7229C16.9819 50.9888 16.8186 51.2542 16.6852 51.517Z" fill="#DEB992"/>
<path d="M16.1682 53.4134C15.1761 52.8603 16.1713 52.5179 16.3454 52.4629C16.2579 52.791 16.1861 53.1098 16.1682 53.4134Z" fill="#1BA098"/>
<path d="M16.2157 54.4348C15.2078 54.2561 15.9834 53.6013 16.1654 53.4595C16.149 53.8078 16.1713 54.1353 16.2157 54.4348Z" fill="#F31C45"/>
<path d="M17.344 50.5099C17.2967 50.5681 17.2512 50.6262 17.2076 50.6844C16.7851 49.8326 17.6653 49.8955 17.8889 49.9238C17.6992 50.103 17.5168 50.2982 17.344 50.5098V50.5099Z" fill="#DEB992"/>
<path d="M16.4715 55.457C16.5741 55.7486 16.6892 56.0057 16.7975 56.2183C15.7548 56.1754 16.3225 55.5939 16.4715 55.457Z" fill="#DEB992"/>
<path d="M21.7245 48.4804C22.3704 47.529 22.701 48.3881 22.7675 48.5939C22.4747 48.5374 22.1199 48.4906 21.7245 48.4804Z" fill="#DEB992"/>
<path d="M16.2218 54.4746C16.2444 54.6193 16.2722 54.7577 16.3032 54.8878C16.3489 55.0772 16.4026 55.2573 16.4605 55.4257C15.3701 55.357 16.0517 54.6382 16.2218 54.4746Z" fill="#1BA098"/>
<path d="M18.7391 49.2655C18.6492 48.307 19.3765 48.7312 19.5577 48.8503C19.2729 48.9633 18.9998 49.1022 18.7391 49.2655Z" fill="#F31C45"/>
<path d="M20.1261 48.662C19.9492 48.7094 19.7765 48.7667 19.6076 48.8316C19.8141 47.8911 20.3959 48.4215 20.5388 48.5705C20.4024 48.595 20.2649 48.6252 20.1261 48.6622V48.662Z" fill="#1BA098"/>
<path d="M20.5892 48.5607C21.0341 47.536 21.5609 48.2927 21.6758 48.4795C21.337 48.4734 20.9703 48.4948 20.5892 48.5607Z" fill="#1BA098"/>
<path d="M24.2286 52.049L23.6258 48.8287L23.605 48.8208C23.5889 48.814 21.9542 48.1727 20.1261 48.6618C19.0438 48.9514 18.1078 49.5732 17.3439 50.5096C16.0097 52.1461 16.0418 53.7932 16.303 54.8875C16.5864 56.0713 17.1934 56.8803 17.1995 56.8883L17.2133 56.9066L22.6812 56.2967L24.0474 54.212C24.0789 53.4876 24.1363 52.7663 24.2286 52.0488V52.049Z" fill="#1BA098"/>
<path d="M24.1782 52.4542L23.5091 49.9531L22.7448 49.099C22.7448 49.099 19.4831 48.6298 17.835 51.056C16.1869 53.4826 17.0137 55.2919 17.2817 56.2139C17.544 57.1176 20.8701 57.2582 20.8701 57.2582C20.8701 57.2582 23.1915 55.4849 23.3014 55.3891C23.3646 55.3336 23.7409 54.7154 24.0479 54.2023C24.0735 53.6177 24.1151 53.0348 24.1782 52.4544V52.4542Z" fill="#0B1014"/>
<path d="M24.6407 49.1528C24.4217 48.5721 24.3973 47.9034 24.781 46.9282C24.781 46.9282 23.3339 46.935 22.5992 49.138C21.8638 51.3414 23.073 54.3299 23.073 54.3299L23.539 55.1527L24.015 55.1453C24.0513 53.4952 24.1668 51.8545 24.5532 50.244C24.5712 49.8791 24.5985 49.5152 24.6406 49.153L24.6407 49.1528Z" fill="#F31C45"/>
<path d="M23.3832 57.4675C23.3716 56.9244 23.2004 56.4609 23.2004 56.4609L23.0123 55.6608L22.1003 55.4101C22.1003 55.4101 18.9066 54.9695 16.95 56.2217C16.211 56.6944 15.8013 57.1887 15.5771 57.6212C18.1762 57.5166 20.7951 57.5481 23.3832 57.4676V57.4675Z" fill="#F31C45"/>
<path d="M23.2112 54.8217C23.2112 54.8217 23.5554 48.3658 22.1672 49.2861C20.7793 50.2072 23.2112 54.8217 23.2112 54.8217Z" fill="#1BA098"/>
<path d="M23.1096 55.1769C23.0391 55.1254 18.689 50.6108 19.8068 49.8893C20.924 49.1676 23.1096 55.1769 23.1096 55.1769Z" fill="#F31C45"/>
<path d="M22.8486 55.2045C22.8486 55.2045 17.713 52.4925 18.2047 51.276C18.6966 50.0594 22.8486 55.2045 22.8486 55.2045Z" fill="#DEB992"/>
<path d="M22.7957 55.3746C22.7957 55.3746 17.165 54.7102 17.4531 53.3646C17.7415 52.0194 22.7957 55.3746 22.7957 55.3746Z" fill="#F31C45"/>
<path d="M22.8238 55.4795C22.8238 55.4795 17.821 57.1618 17.3041 55.8625C16.7873 54.5638 22.8238 55.4795 22.8238 55.4795Z" fill="#1BA098"/>
<path d="M23.3371 53.6503C23.3401 53.648 23.3437 53.6471 23.3468 53.6458C23.3966 53.5862 23.4622 53.5517 23.5459 53.5566C23.6269 53.5614 23.6866 53.608 23.7317 53.6718C23.7523 53.6793 23.771 53.6925 23.785 53.7181C23.9415 54.0156 23.9286 54.4122 23.8346 54.7321C23.7802 54.9185 23.5464 55.2548 23.3232 55.0924C23.0112 54.8663 22.964 53.8717 23.3373 53.6504L23.3371 53.6503Z" fill="#DEB992"/>
<path d="M22.3044 54.1609C22.3245 54.1527 22.344 54.148 22.3636 54.1427C22.4589 54.089 22.5914 54.0928 22.7097 54.1443C23.01 54.2761 23.1017 54.5695 23.1517 54.8721C23.1526 54.8769 23.1541 54.8815 23.1553 54.8866V54.8913L23.1556 54.8945C23.185 55.0773 23.0712 55.188 22.9148 55.1844C22.874 55.1913 22.8313 55.1926 22.7876 55.1859C22.4669 55.1351 21.8338 54.3581 22.3046 54.1609H22.3044Z" fill="#1BA098"/>
<path d="M21.9178 56.1058C22.1728 56.2093 22.4968 56.2228 22.7677 56.1931C23.0054 56.1683 23.0765 55.9751 22.9303 55.7851C22.9045 55.7521 22.874 55.7242 22.8411 55.6987C22.7128 55.5496 22.4872 55.4787 22.3051 55.4549C22.1112 55.43 21.7238 55.4424 21.5973 55.6299C21.4463 55.8536 21.7491 56.0372 21.918 56.1058H21.9178Z" fill="#1BA098"/>
<path d="M22.535 56.9032C22.5731 56.7818 22.657 56.6484 22.755 56.5321C22.7803 56.4743 22.8088 56.4173 22.8401 56.3609C22.9215 56.2135 23.1667 56.0244 23.3163 56.1961C23.4548 56.3547 23.371 56.6045 23.3017 56.7851C23.2976 56.7987 23.2941 56.8117 23.2892 56.8248C23.2417 56.949 23.1982 57.1026 23.1172 57.2093C23.0628 57.2801 22.9721 57.341 22.8783 57.3409C22.8488 57.3409 22.824 57.3343 22.8029 57.3241C22.5984 57.3276 22.4775 57.0864 22.535 56.9034V56.9032Z" fill="#1BA098"/>
<path d="M21.7983 54.9473C21.8505 54.7988 22.1569 54.8017 22.3021 54.8208C22.3749 54.8308 22.4584 54.8614 22.5387 54.9059C22.734 54.9793 22.9353 55.1217 22.9821 55.2918C23.0072 55.383 22.9778 55.4735 22.8963 55.5261C22.8344 55.5663 22.7664 55.5655 22.6987 55.5518C22.5799 55.5645 22.4286 55.5198 22.3347 55.4927C22.1342 55.4344 21.8112 55.3195 21.7601 55.0797C21.7477 55.0204 21.7646 54.978 21.7983 54.9471V54.9473Z" fill="#DEB992"/>
<path d="M23.2201 56.2385C23.2582 56.076 23.3379 55.9427 23.4866 55.9758C23.6413 56.0103 23.7566 56.221 23.7959 56.3577C23.8473 56.5347 23.8992 56.9529 23.7179 57.0821C23.4606 57.2646 23.2332 56.8854 23.1982 56.6713C23.1836 56.5831 23.1825 56.3968 23.2201 56.2386V56.2385Z" fill="#DEB992"/>
<path d="M21.9552 56.3074C21.9584 56.3022 21.9619 56.2968 21.9657 56.2918C22.1019 56.0967 22.4046 55.8796 22.6345 55.8262C22.9008 55.7641 23.1193 55.9435 23.0467 56.2322C23.0061 56.3943 22.8758 56.5217 22.7275 56.5989C22.4988 56.7181 21.6314 56.8302 21.9553 56.3074H21.9552Z" fill="#DEB992"/>
<path d="M23.1014 54.9044C23.1043 54.903 23.1074 54.9025 23.1102 54.9012C23.4904 54.7741 23.8443 55.0818 23.8947 55.4545C23.9632 55.9648 23.4357 56.4306 22.9599 56.1349C22.6803 55.9609 22.5945 55.5937 22.7092 55.296C22.7777 55.1183 22.9218 54.9681 23.1012 54.9044H23.1014Z" fill="white"/>
<path d="M35.724 33.4618C35.5984 31.3002 35.3059 29.1129 34.7027 27.0268C31.4482 23.0115 27.7087 21.3189 24.0891 20.9023C23.82 20.871 23.5528 20.8467 23.2873 20.8295C22.4416 20.7751 21.6049 20.7869 20.7866 20.8507C19.756 20.9313 18.7509 21.0956 17.7892 21.3138C17.7284 21.3279 17.6663 21.3435 17.6042 21.3573C17.6009 21.3582 17.5975 21.359 17.5942 21.3596C17.0636 21.486 16.7687 22.0549 16.9637 22.5642C17.5316 24.048 18.2553 25.6276 19.1142 27.1843C19.8464 28.5118 20.6816 29.8185 21.5991 31.0401C22.9593 31.1336 24.3123 31.2946 25.6701 31.4334C26.8186 31.5509 28.1794 31.3493 29.2591 31.8093C30.3266 32.2642 30.6509 33.1302 30.3902 34.2157C30.3435 34.4099 30.2921 34.599 30.2386 34.7848C30.2417 34.9259 30.2395 35.0677 30.2276 35.2098C30.1599 36.0148 30.027 36.8251 29.9003 37.6345C31.7436 38.3897 33.6659 38.8808 35.5121 39.1175C35.5653 37.2343 35.8346 35.359 35.7242 33.4618H35.724Z" fill="#1BA098"/>
<path d="M35.724 33.4626C35.7082 33.1915 35.6893 32.9201 35.6683 32.6485L21.0003 21.4468C19.4276 23.2687 18.6083 25.2058 18.6083 25.2058C21.057 26.6817 22.8234 26.0359 22.8234 26.0359C21.4089 28.0834 21.287 29.9845 21.287 29.9845C22.9717 30.902 25.4596 29.7085 25.4596 29.7085C25.2172 30.2932 25.0862 30.8509 25.0233 31.3658C25.2388 31.3886 25.4542 31.4121 25.6699 31.4341C26.8184 31.5516 28.1792 31.35 29.2589 31.81C30.3264 32.2649 30.6507 33.1309 30.39 34.2165C30.3433 34.4107 30.2919 34.5998 30.2384 34.7856C30.2415 34.9267 30.2393 35.0685 30.2274 35.2106C30.1827 35.7424 30.1071 36.2766 30.0259 36.8112C30.1699 37.0875 30.2738 37.2525 30.2738 37.2525C32.2872 36.8897 33.3348 34.4673 33.3348 34.4673C33.8571 36.6673 35.173 38.0598 35.54 38.4143C35.6261 36.7672 35.8208 35.1232 35.7242 33.4624L35.724 33.4626Z" fill="white"/>
<path d="M35.6488 36.7225C35.6969 36.0279 35.7373 35.3326 35.7454 34.6353L34.5155 34.6006C34.5155 34.6006 34.8768 36.0509 35.6046 36.7762C35.6046 36.7762 35.6217 36.756 35.6488 36.7225Z" fill="#F31C45"/>
<path d="M30.4602 33.3444C30.4852 33.6147 30.4647 33.9048 30.3901 34.2156C30.3876 34.2258 30.3845 34.2353 30.382 34.2455C30.4533 35.0834 30.7967 35.6804 30.7967 35.6804C31.4796 35.291 32.0788 34.0756 32.0788 34.0756L30.4604 33.3442L30.4602 33.3444Z" fill="#F31C45"/>
<path d="M24.6761 28.5507C24.6761 28.5507 23.6579 29.1928 22.729 28.9606C22.729 28.9606 22.8036 27.8317 23.4969 26.9766L24.676 28.5506L24.6761 28.5507Z" fill="#F31C45"/>
<path d="M22.3352 24.9582C22.3352 24.9582 21.0198 25.2964 19.9018 24.7165C19.9018 24.7165 20.4429 23.4901 21.3756 22.6597L22.3352 24.958V24.9582Z" fill="#F31C45"/>
<path d="M35.7241 33.4618C35.5984 31.3002 35.306 29.1129 34.7027 27.0268C31.4483 23.0115 27.7088 21.3189 24.0891 20.9023C23.82 20.871 23.5529 20.8467 23.2874 20.8295C22.4417 20.7751 21.605 20.7869 20.7867 20.8507C20.8448 21.0549 20.9069 21.2648 20.9739 21.4782C21.0907 21.8625 21.2195 22.2586 21.3649 22.668C21.6237 23.4053 21.9314 24.1779 22.3028 24.9655C22.6278 25.6575 23.0032 26.3593 23.4379 27.0557C23.7683 27.5852 24.1325 28.1114 24.5351 28.6299C24.8198 28.9953 25.1253 29.357 25.4556 29.717C25.8788 30.1788 26.3382 30.6271 26.8371 31.0593C26.845 31.0671 26.854 31.0745 26.8621 31.0822C27.0219 31.2205 27.1877 31.3559 27.3556 31.4901C28.0203 31.5075 28.6802 31.5627 29.2592 31.8095C30.0678 32.154 30.4482 32.7349 30.4729 33.4679C31.0149 33.7277 31.5468 33.9393 32.0642 34.1044C32.9229 34.382 33.7433 34.5448 34.5214 34.6237C34.9421 34.6687 35.3485 34.6858 35.7445 34.6861C35.7502 34.2788 35.7481 33.8709 35.7244 33.462L35.7241 33.4618Z" fill="#1BA098"/>
<path d="M34.7028 27.0269C31.4483 23.0116 27.7088 21.319 24.0891 20.9024C23.82 20.8712 23.5529 20.8468 23.2874 20.8296C23.6794 21.9104 24.1849 23.1358 24.8061 24.3538C25.879 26.4598 27.2928 28.5349 29.0523 29.7715C31.5567 31.5324 33.7065 32.1938 35.3237 32.3847C35.4374 32.3982 35.5398 32.4025 35.6482 32.4113C35.4954 30.5948 35.2086 28.7756 34.7029 27.0269H34.7028Z" fill="#0B1014"/>
<path d="M32.6988 37.7582C32.9357 37.9378 33.2588 37.9171 33.4336 37.6728L33.4446 37.6583C33.6081 37.4306 33.57 37.0508 33.3339 36.8717C33.0973 36.6918 32.7738 36.7119 32.599 36.9562L32.5885 36.9714C32.4254 37.199 32.4632 37.579 32.6989 37.7582H32.6988Z" fill="#DEB992"/>
<path d="M20.1819 27.81L20.1962 27.8215C20.4174 28.0052 20.7727 27.9799 20.9319 27.7366C21.0906 27.4916 21.0586 27.1461 20.8212 26.949L20.8069 26.9375C20.5858 26.7538 20.2299 26.7783 20.0715 27.0223C19.9125 27.2675 19.945 27.6127 20.1819 27.81Z" fill="#DEB992"/>
<path d="M31.3951 32.9899C31.9386 33.441 32.5647 32.5698 32.0196 32.1175C31.4756 31.6657 30.8497 32.5368 31.3951 32.9899Z" fill="white"/>
<path d="M27.5851 30.7787C27.8217 30.9576 28.1455 30.9374 28.3204 30.693L28.331 30.6787C28.4941 30.4502 28.4563 30.0702 28.2206 29.8919C27.9833 29.7125 27.6602 29.7322 27.4849 29.9769L27.4747 29.9908C27.3116 30.2193 27.349 30.5987 27.5851 30.7787Z" fill="white"/>
<path d="M24.2859 27.0934C24.3403 27.3932 24.5931 27.6239 24.8839 27.5899C24.8918 27.5889 24.9003 27.5884 24.9082 27.5874C25.1806 27.5558 25.404 27.2692 25.3505 26.971C25.2961 26.6704 25.0429 26.4408 24.752 26.4739C24.7441 26.4749 24.7359 26.476 24.7277 26.4773C24.4553 26.5089 24.2319 26.7946 24.2858 27.0935L24.2859 27.0934Z" fill="white"/>
<path d="M22.3334 23.6141L22.3472 23.6257C22.5683 23.8094 22.9237 23.7851 23.0821 23.5411C23.2419 23.2965 23.2099 22.951 22.9725 22.7539L22.9582 22.7424C22.7379 22.5584 22.3817 22.583 22.2228 22.8271C22.0642 23.0723 22.0967 23.4174 22.3333 23.6141H22.3334Z" fill="white"/>
<path d="M35.395 30.2346C35.2315 29.1499 35.0061 28.0757 34.7027 27.0264C31.4482 23.0111 27.7088 21.3185 24.0891 20.9019C26.256 23.3732 29.3391 23.2628 29.3391 23.2628C27.853 23.7576 26.8323 25.1136 26.4848 25.6338C26.3978 25.7616 26.3534 25.8393 26.3534 25.8393C26.5116 25.8596 26.6674 25.8743 26.8149 25.8853C29.3321 26.0686 30.4957 24.9646 30.5586 24.904C29.7393 26.0466 29.2982 26.9443 29.0635 27.6024C28.7303 28.536 28.8106 28.9903 28.8106 28.9903C29.2793 28.8385 29.6922 28.6155 30.0526 28.3589C31.3061 27.4665 31.9217 26.1728 31.9665 26.0772C31.5652 27.5748 31.5879 28.7806 31.7181 29.6293C31.8607 30.5516 32.132 31.0529 32.132 31.0529C32.3344 30.8104 32.5093 30.5758 32.6598 30.3497C33.8614 28.5551 33.5818 27.3078 33.5381 27.1419C33.9573 28.4728 34.6725 29.4866 35.3953 30.2342L35.395 30.2346Z" fill="#DEB992"/>
<path d="M29.2264 28.4464C31.3286 27.2836 31.9074 24.7695 31.9074 24.7695C29.6204 26.4666 29.2264 28.4464 29.2264 28.4464Z" fill="#F31C45"/>
<path d="M30.923 23.9384C30.923 23.9384 29.084 23.6805 27.1678 25.4971C27.1678 25.4971 28.6348 25.636 30.923 23.9384Z" fill="#F31C45"/>
<path d="M32.2819 30.402C33.4414 28.1132 32.9144 25.6665 32.9144 25.6665C31.7674 28.4547 32.2819 30.402 32.2819 30.402Z" fill="#F31C45"/>
<path d="M34.8981 27.7459C34.2453 26.9279 33.6645 26.3154 33.6645 26.3154C34.2285 27.7306 34.7789 28.7061 35.2527 29.3798C35.1526 28.8306 35.0347 28.2857 34.8981 27.7459Z" fill="#F31C45"/>
<path d="M25.2954 21.4053C26.4548 22.6059 29.5956 22.905 29.5956 22.905C27.1251 21.5221 25.2954 21.4053 25.2954 21.4053Z" fill="#F31C45"/>
<path d="M35.5639 31.5385C35.0845 31.1181 34.2465 30.2846 34.1004 29.481C34.1004 29.481 34.0548 30.7027 33.0347 31.2196C33.0347 31.2196 34.3513 31.8499 35.5956 31.8338C35.5857 31.7353 35.5746 31.6369 35.5639 31.5383V31.5385Z" fill="#F31C45"/>
<path d="M31.27 27.9951C30.4541 28.9861 29.2697 29.2493 29.2697 29.2493C30.2915 30.0405 31.2769 30.5378 31.2769 30.5378C30.8276 29.7462 31.27 27.9951 31.27 27.9951Z" fill="#F31C45"/>
<path d="M26.8053 26.4031C27.3994 27.4082 28.2272 28.2939 28.2272 28.2939C28.1097 27.3755 29.0512 26.2163 29.0512 26.2163C27.6975 26.5316 26.8053 26.4031 26.8053 26.4031Z" fill="#F31C45"/>
<path d="M24.6588 22.1675C24.6162 22.8208 25.9371 25.018 25.9371 25.018C25.9323 24.497 27.4373 23.4791 27.4373 23.4791C25.7621 23.0949 24.6588 22.1675 24.6588 22.1675Z" fill="#F31C45"/>
<path d="M6.01936 36.4859C4.17395 36.6944 2.00736 35.6594 1.48937 33.8204C1.43795 33.6384 1.40525 33.4508 1.3908 33.262C1.33954 32.5912 1.53192 31.816 2.00604 31.3224C2.61176 30.6921 3.60996 30.4417 4.42185 30.7903C5.06388 31.0657 5.61785 31.7185 5.56068 32.4478C5.51681 33.0082 5.15111 33.5347 4.59402 33.617C3.63706 33.7583 3.82221 32.8008 3.82221 32.8008C3.82221 32.8008 4.36402 33.1035 4.54655 32.6824C4.7289 32.2612 4.13895 31.7401 3.45044 32.0269C2.28582 32.512 2.9198 33.9453 3.72413 34.4453C4.24903 34.7719 5.09591 34.8579 5.75157 34.6139C5.69868 34.2211 5.66746 33.8314 5.70656 33.4682C5.81285 32.4793 6.42662 32.0041 7.22406 31.7732C7.25659 31.492 7.217 31.1703 7.03612 30.8148C6.39311 29.5506 5.36649 28.9886 4.17181 29.179C4.17181 29.179 3.37306 27.8192 1.65497 28.3408C1.24228 28.4664 0.898599 28.6535 0.615207 28.879C0.559186 30.3068 0.447636 31.7269 0.33313 33.147C0.363194 34.3561 0.381265 35.5646 0.377651 36.7728C1.3517 37.3671 2.29272 36.9812 2.29272 36.9812C2.29272 36.9812 3.34069 39.4529 6.18939 38.7807C6.28057 38.7591 6.36649 38.7292 6.45488 38.7033C6.23342 37.9809 6.10906 37.2418 6.0192 36.4861L6.01936 36.4859Z" fill="#F31C45"/>
<path d="M4.12453 35.7981C4.19911 35.9202 4.3537 35.9728 4.48283 35.9013L4.49729 35.8933C4.61787 35.8266 4.67488 35.6565 4.60062 35.535C4.52571 35.4131 4.37145 35.3602 4.24199 35.4318L4.22753 35.4398C4.10695 35.5067 4.05027 35.6769 4.12453 35.7981Z" fill="#0B1014"/>
<path d="M2.93449 35.2137C3.0094 35.3357 3.16367 35.3883 3.29312 35.3167L3.30758 35.309C3.42817 35.2419 3.48501 35.0717 3.41059 34.9503C3.336 34.8286 3.18108 34.7757 3.05228 34.8473L3.0375 34.855C2.91724 34.9221 2.86023 35.0921 2.93449 35.2137Z" fill="#0B1014"/>
<path d="M2.07815 34.1428C2.20137 34.3654 2.54784 34.1743 2.42447 33.9512C2.30125 33.7286 1.95478 33.9197 2.07815 34.1428Z" fill="#0B1014"/>
<path d="M1.78727 33.0036C1.91065 33.226 2.25663 33.0349 2.13309 32.812C2.00987 32.5894 1.66405 32.7806 1.78727 33.0036Z" fill="#0B1014"/>
<path d="M2.20555 31.888C2.28736 32.0367 2.51818 31.9091 2.43571 31.7604C2.3539 31.612 2.12308 31.7395 2.20555 31.888Z" fill="#0B1014"/>
<path d="M3.02723 31.2632C3.1097 31.4116 3.34052 31.2843 3.25805 31.1356C3.17591 30.9869 2.94509 31.1144 3.02723 31.2632Z" fill="#0B1014"/>
<path d="M3.88731 31.1824C3.96912 31.3308 4.20027 31.2036 4.1178 31.0549C4.03566 30.9064 3.80484 31.0339 3.88731 31.1824Z" fill="#0B1014"/>
<path d="M4.64367 31.6299C4.72581 31.7784 4.95663 31.651 4.87449 31.5021C4.79235 31.3536 4.5612 31.4814 4.64367 31.6299Z" fill="#0B1014"/>
<path d="M4.98345 32.3469C5.06559 32.4952 5.29674 32.3678 5.21427 32.2191C5.13213 32.0704 4.90098 32.1979 4.98345 32.3469Z" fill="#0B1014"/>
<path d="M4.91355 32.9687C4.97499 33.0801 5.14798 32.9843 5.08654 32.8729C5.0251 32.7615 4.85161 32.857 4.91355 32.9687Z" fill="#0B1014"/>
<path d="M4.52251 33.3173C4.58395 33.4285 4.75727 33.3331 4.69583 33.2217C4.63373 33.11 4.46058 33.2057 4.52251 33.3173Z" fill="#0B1014"/>
<path d="M4.06321 33.2704C4.12465 33.3816 4.29797 33.2864 4.2362 33.1746C4.1741 33.0633 4.00128 33.1587 4.06321 33.2704Z" fill="#0B1014"/>
<path d="M1.39245 28.9099C1.49102 28.8633 1.68652 29.0694 1.82896 29.3707C1.97123 29.6717 2.00655 29.9536 1.90798 30.0006C1.80908 30.0473 1.61374 29.8409 1.47114 29.5398C1.32904 29.2383 1.29355 28.9564 1.39245 28.9101V28.9099Z" fill="white"/>
<path d="M2.54629 28.7603C2.65554 28.7622 2.74081 28.964 2.73637 29.2112C2.73226 29.4583 2.63994 29.6574 2.53052 29.6551C2.42127 29.6533 2.33634 29.4511 2.34077 29.2042C2.34521 28.9569 2.43737 28.7583 2.54629 28.7603Z" fill="white"/>
<path d="M6.48816 30.4026C6.53301 30.4711 6.4098 30.6319 6.21249 30.7622C6.01502 30.8923 5.81886 30.9422 5.77369 30.8739C5.72818 30.8054 5.85172 30.6447 6.04886 30.5146C6.24601 30.3843 6.44249 30.3344 6.488 30.4026H6.48816Z" fill="white"/>
<path d="M6.85939 31.2313C6.87319 31.3123 6.70349 31.4091 6.48022 31.448C6.2563 31.4869 6.0636 31.4531 6.0498 31.3723C6.03517 31.2916 6.20537 31.1945 6.42896 31.1558C6.65272 31.1168 6.84543 31.151 6.85939 31.2313Z" fill="white"/>
<path d="M5.74849 29.781C5.81864 29.8234 5.79925 29.983 5.70561 30.1375C5.61196 30.2923 5.47906 30.3827 5.40874 30.3406C5.33859 30.2976 5.35798 30.138 5.45195 29.9839C5.54526 29.8293 5.67834 29.7383 5.74849 29.781Z" fill="white"/>
<path d="M5.6698 37.4664C5.77823 37.4521 5.89898 37.6895 5.9394 37.9967C5.9803 38.3041 5.9256 38.5648 5.81717 38.5791C5.70907 38.5936 5.58815 38.3559 5.54758 38.0488C5.507 37.7414 5.5617 37.4807 5.6698 37.4664Z" fill="white"/>
<path d="M4.90107 37.4219C5.00342 37.4598 5.00457 37.7112 4.90354 37.9834C4.80234 38.2556 4.63756 38.4454 4.53521 38.4076C4.43319 38.3693 4.43171 38.1178 4.53275 37.846C4.63362 37.5738 4.79872 37.3837 4.90124 37.4219H4.90107Z" fill="white"/>
<path d="M6.01943 36.4855C4.17385 36.6939 2.00808 35.6584 1.48944 33.8201C1.43818 33.6374 1.40516 33.4511 1.39086 33.2617C1.33961 32.5911 1.53248 31.8148 2.00611 31.3221C2.61216 30.6916 3.60937 30.4412 4.42192 30.79C5.06444 31.0659 5.61824 31.7177 5.56074 32.4475C5.51721 33.008 5.15118 33.5344 4.59409 33.6167C3.63697 33.7575 3.82228 32.8005 3.82228 32.8005C3.52624 33.2127 3.70646 33.6331 4.16087 33.8066C4.70268 34.0148 5.31481 33.703 5.63747 33.2531C6.40632 32.1838 5.72996 30.714 4.65176 30.1685C4.5269 30.1053 4.39564 30.0542 4.26158 30.0128C3.55368 29.7987 2.79189 29.9141 2.14526 30.2599C1.37296 30.6724 0.861046 31.3591 0.639426 32.219C0.347163 33.3465 0.705304 34.5168 1.43916 35.369C2.49042 36.5904 4.23694 37.1868 5.82459 37.0419C5.91264 37.0338 5.99922 37.0202 6.0858 37.0069C6.06083 36.8344 6.03996 36.6598 6.01926 36.4855H6.01943Z" fill="#1BA098"/>
<path d="M24.8242 3.93056C24.7944 3.18651 24.8242 2.14478 23.1425 1.47516C21.6014 0.861387 18.5063 0.872722 18.0001 0.878801C17.4939 0.872722 14.3988 0.861387 12.8577 1.47516C11.176 2.14478 11.2058 3.18651 11.176 3.93056C11.1463 4.6746 11.0729 6.31236 11.6226 6.66869C12.9388 7.52199 14.2119 8.40979 14.4202 9.45152C14.6285 10.4932 14.569 12.7305 14.569 12.7305C14.569 12.7305 14.4698 15.8491 17.9275 15.9357V15.9398C17.9525 15.9398 17.9755 15.938 18.0003 15.9378C18.0249 15.9381 18.0479 15.9398 18.073 15.9398V15.9357C21.5307 15.8491 21.4315 12.7305 21.4315 12.7305C21.4315 12.7305 21.372 10.4932 21.5804 9.45152C21.7887 8.40979 23.0617 7.52199 24.378 6.66869C24.9275 6.31236 24.8542 4.6746 24.8245 3.93056H24.8242Z" fill="#0B1014"/>
<path d="M21.8674 15.76C21.8674 15.76 21.8669 15.7332 21.8666 15.7255C21.8634 15.669 21.8463 15.5612 21.7588 15.5494C21.6469 15.5062 21.551 15.7606 21.551 15.7606C21.1439 16.7232 20.2132 17.7966 18.0821 17.8499V17.8545C18.054 17.8545 18.028 17.8525 18.0003 17.8522C17.9725 17.8525 17.9466 17.8545 17.9185 17.8545V17.8499C15.7872 17.7966 14.8567 16.7232 14.4496 15.7606C14.4496 15.7606 14.3536 15.5062 14.2418 15.5494C14.1542 15.5612 14.1371 15.669 14.134 15.7255C14.1338 15.7334 14.1332 15.76 14.1332 15.76C14.1332 15.76 14.0213 19.275 17.9186 19.3724V19.377C17.9467 19.377 17.9727 19.3751 18.0004 19.3747C18.0282 19.3751 18.0542 19.377 18.0823 19.377V19.3724C21.9796 19.2749 21.8677 15.76 21.8677 15.76H21.8674Z" fill="#0B1014"/>
<path d="M17.9997 58.196C11.5417 58.196 5.62942 57.1542 1.77974 55.3379C1.71008 55.3051 0.0693652 54.5009 0.0197512 51.7204C-0.0244415 49.2436 0.0192583 31.973 0.0197512 31.7988C0.0158083 31.7616 -0.420861 24.4096 6.21526 22.26C10.0685 21.0114 12.0187 19.1795 12.0658 16.7641L12.0737 16.3428C12.1344 13.4901 12.1119 11.7998 12.0922 11.0462C12.0853 10.7861 12.0038 10.5374 11.8557 10.328C11.5848 9.94287 11.3326 9.65077 11.1639 9.52772C10.8097 9.26963 10.6388 8.83346 10.7183 8.38841C10.7761 8.06953 11.0579 7.28589 12.4395 6.89687C14.7367 6.25024 15.672 6.11914 17.9996 6.11914C20.3272 6.11914 21.2634 6.25008 23.5606 6.89687C24.9423 7.28589 25.224 8.07002 25.2818 8.3889C25.3614 8.83346 25.1897 9.27012 24.8353 9.52772C24.6676 9.64995 24.4152 9.94189 24.1445 10.328C23.9963 10.5369 23.9148 10.7853 23.9079 11.0472C23.8884 11.7802 23.8647 13.4436 23.9265 16.3428L23.9354 16.7661C23.9818 19.1804 25.9313 21.0117 29.7839 22.26C36.238 24.3502 36.0024 31.3587 35.9799 31.813C35.9819 32.3924 36.0241 49.2738 35.9799 51.7204C35.9308 54.5009 34.2891 55.3051 34.2194 55.3379C30.3697 57.1542 24.4573 58.196 17.9994 58.196H17.9997ZM17.9997 7.12374C15.9066 7.12374 15.0127 7.21591 12.7124 7.86417C12.0295 8.05606 11.7438 8.36212 11.7075 8.56584C11.6956 8.63303 11.7114 8.68363 11.7546 8.71501C12.0216 8.90936 12.3316 9.25715 12.6781 9.74984C12.9391 10.1213 13.0843 10.5604 13.0972 11.0196C13.1157 11.783 13.1394 13.4911 13.0786 16.3643L13.0697 16.7839C12.9902 20.9201 12.6841 21.2204 6.52543 23.2158C0.628263 25.1259 1.01877 31.6991 1.0232 31.7648C1.02419 31.9753 0.980489 49.2355 1.02468 51.7026C1.06247 53.8227 2.16794 54.4081 2.21509 54.432C5.87437 56.1587 11.7775 57.191 17.9999 57.191C24.2224 57.191 30.1259 56.1587 33.7921 54.4291C33.8324 54.4081 34.9383 53.8227 34.9756 51.7025C35.0198 49.2354 34.9756 31.9751 34.9756 31.8015L34.9766 31.7657C34.9952 31.4948 35.3564 25.1207 29.4744 23.2154C23.3167 21.2204 23.0104 20.9197 22.9311 16.785L22.9222 16.3639C22.8604 13.4436 22.8839 11.7622 22.9037 11.0198C22.9165 10.5581 23.0617 10.119 23.3237 9.74852C23.6692 9.25583 23.9802 8.90804 24.2452 8.71468C24.2894 8.68281 24.305 8.6327 24.2933 8.56501C24.257 8.36196 23.9715 8.05573 23.2884 7.86385C20.9883 7.21574 20.0942 7.12341 18.0001 7.12341L17.9997 7.12374Z" fill="#0B1014"/>
<path d="M10.1972 56.977C10.056 56.977 9.93513 56.8666 9.92199 56.7255L9.15971 48.4961C9.14558 48.344 9.25779 48.2088 9.40992 48.1948H9.41254C9.57749 48.1948 9.69823 48.3047 9.71105 48.4447L10.4733 56.6742C10.4875 56.8264 10.3753 56.9616 10.2231 56.9755L10.1972 56.9768V56.977Z" fill="#0B1014"/>
<path d="M26.0561 56.9752C25.9058 56.9611 25.7936 56.8259 25.8077 56.6739L26.57 48.4444C26.5831 48.3013 26.7019 48.1934 26.8456 48.1934C27.0232 48.2085 27.1354 48.3437 27.1213 48.4958L26.359 56.7253C26.3459 56.8663 26.225 56.9765 26.0839 56.9765L26.0561 56.9752Z" fill="#0B1014"/>
<path d="M18.119 34.2895C14.8059 34.2895 11.6889 34.1477 9.34178 33.8904C5.59214 33.4794 5.28131 32.9676 5.28131 32.4352C5.28131 31.9027 5.59214 31.391 9.34178 30.9803C11.6889 30.7228 14.8064 30.5811 18.119 30.5811C21.4317 30.5811 24.5486 30.7228 26.8959 30.9803C30.6456 31.3913 30.9564 31.9031 30.9564 32.4352C30.9564 32.9673 30.6456 33.4794 26.8959 33.8904C24.5488 34.1475 21.4317 34.2895 18.119 34.2895ZM6.69465 32.4353C8.09321 32.8411 12.1773 33.2854 18.119 33.2854C24.0607 33.2854 28.1445 32.8411 29.5429 32.4353C28.1444 32.0296 24.0602 31.5853 18.119 31.5853C12.1778 31.5853 8.09354 32.0296 6.69465 32.4353Z" fill="#0B1014"/>
<path d="M18.119 62.1223C12.8918 62.1223 10.3234 61.4734 9.08896 60.9291C8.33637 60.5969 7.822 59.8855 7.74675 59.073L5.28347 32.4815C5.258 32.2053 5.46106 31.961 5.73722 31.9353C6.00796 31.9132 6.25768 32.113 6.2833 32.3887L8.74659 58.9805C8.78832 59.431 9.07451 59.8254 9.49442 60.0107C10.6401 60.5159 13.067 61.1182 18.1192 61.1182C18.3967 61.1182 18.6213 61.3431 18.6213 61.6202C18.6213 61.8974 18.3967 62.1223 18.1192 62.1223H18.119Z" fill="#0B1014"/>
<path d="M8.77008 41.7163C8.62895 41.7163 8.50804 41.6059 8.4949 41.4647L7.73262 33.2354C7.71849 33.0833 7.83069 32.948 7.98282 32.9341H7.98545C8.15039 32.9341 8.27114 33.044 8.28396 33.184L9.04624 41.4135C9.06037 41.5656 8.94816 41.7008 8.79603 41.7148L8.77008 41.7161V41.7163Z" fill="#0B1014"/>
<path d="M10.6039 39.2691C10.4606 39.2691 10.3397 39.1567 10.3282 39.0135L9.90402 33.4917C9.89827 33.4176 9.9216 33.3461 9.9699 33.2901C10.0179 33.2341 10.0851 33.1999 10.159 33.1943H10.1603C10.323 33.1943 10.4452 33.3062 10.4557 33.4491L10.8804 38.9709C10.8861 39.045 10.8628 39.1165 10.8145 39.1725C10.7665 39.2285 10.6993 39.2627 10.6254 39.2683L10.6039 39.2691Z" fill="#0B1014"/>
<path d="M12.5799 38.1826C12.4331 38.1826 12.3118 38.0675 12.3038 37.9204L12.0774 33.6469C12.0735 33.5728 12.0984 33.502 12.1477 33.4471C12.1973 33.3921 12.2655 33.3596 12.3394 33.356H12.3407C12.4986 33.356 12.623 33.4757 12.6305 33.6175L12.8569 37.891C12.8609 37.9651 12.8359 38.0359 12.7866 38.0908C12.737 38.1458 12.6688 38.1784 12.5949 38.182L12.5799 38.1826Z" fill="#0B1014"/>
<path d="M14.6155 37.2898C14.4655 37.2898 14.3443 37.1722 14.3393 37.0223L14.2321 33.7968C14.2268 33.6441 14.3467 33.516 14.4994 33.5107C14.6541 33.5109 14.7803 33.6282 14.7851 33.7779L14.8923 37.0038C14.8976 37.1564 14.7777 37.2845 14.625 37.2898H14.6153H14.6155Z" fill="#0B1014"/>
<path d="M18.119 62.1223C17.8415 62.1223 17.6169 61.8974 17.6169 61.6203C17.6169 61.3431 17.8415 61.1182 18.119 61.1182C23.1717 61.1182 25.5981 60.516 26.7433 60.0108C27.1632 59.8256 27.4494 59.4309 27.4911 58.9807L29.9544 32.3887C29.9799 32.1126 30.2196 31.9128 30.5005 31.9353C30.7767 31.9611 30.9797 32.2054 30.9543 32.4816L28.491 59.0734C28.4157 59.8863 27.9013 60.5975 27.1488 60.9293C25.9146 61.4736 23.3469 62.1225 18.1192 62.1225L18.119 62.1223Z" fill="#0B1014"/>
<path d="M27.4398 41.7154C27.2894 41.7013 27.1772 41.5661 27.1914 41.4141L27.9536 33.1846C27.9668 33.0415 28.0856 32.9336 28.2293 32.9336C28.4069 32.9487 28.5191 33.0839 28.505 33.236L27.7427 41.4656C27.7296 41.6065 27.6086 41.7168 27.4675 41.7168L27.4398 41.7154Z" fill="#0B1014"/>
<path d="M25.6107 39.2683C25.5386 39.2629 25.4714 39.2287 25.4234 39.1727C25.3751 39.1166 25.3518 39.0452 25.3575 38.9716L25.7814 33.4493C25.7929 33.3062 25.9151 33.1938 26.0597 33.1938C26.1525 33.2003 26.2197 33.2343 26.2677 33.2903C26.316 33.3463 26.3393 33.4178 26.3335 33.4914L25.9097 39.0136C25.8982 39.1569 25.7774 39.2693 25.634 39.2693L25.6107 39.2681V39.2683Z" fill="#0B1014"/>
<path d="M23.6535 38.1822C23.5743 38.1781 23.5066 38.1457 23.457 38.0907C23.4077 38.036 23.3827 37.965 23.3862 37.8912L23.6068 33.6175C23.6142 33.472 23.7317 33.354 23.8684 33.354C23.9717 33.3593 24.0394 33.3916 24.089 33.4465C24.1383 33.5012 24.1637 33.5722 24.1598 33.6459L23.9392 37.9196C23.9318 38.0672 23.8104 38.1823 23.663 38.1823H23.6533L23.6535 38.1822Z" fill="#0B1014"/>
<path d="M21.6145 37.2888C21.5384 37.2863 21.4699 37.2555 21.4193 37.2016C21.3687 37.1477 21.3419 37.0772 21.3445 37.0031L21.4474 33.7779C21.4521 33.6276 21.5736 33.5098 21.7235 33.5098C21.8067 33.5124 21.8752 33.5434 21.9258 33.5973C21.9764 33.6512 22.0032 33.7217 22.0005 33.7958L21.8977 37.021C21.8929 37.1713 21.7715 37.2891 21.6215 37.2891H21.6145V37.2888Z" fill="#0B1014"/>
<path d="M24.4343 40.77C23.3417 40.5801 21.3548 40.3516 18.1189 40.3516C14.883 40.3516 12.8961 40.5801 11.8034 40.77C11.1741 40.8794 10.7344 41.4539 10.7827 42.0908L11.9191 57.0687C11.9377 57.3125 12.1318 57.5049 12.3758 57.52C12.3825 57.5205 12.3893 57.5208 12.3962 57.5213C12.6922 57.5397 12.9388 57.292 12.9165 56.9963L11.9531 44.2448L11.7839 42.0149C11.7747 41.8919 11.8586 41.7795 11.9751 41.7592C13.0346 41.5752 14.9602 41.3555 18.1186 41.3555C21.2769 41.3555 23.203 41.5752 24.2625 41.7593C24.379 41.7795 24.4629 41.8919 24.4537 42.0149L24.3371 43.5527L23.329 56.9959C23.3068 57.2916 23.5529 57.5391 23.849 57.5208C23.8532 57.5205 23.8577 57.5203 23.862 57.52C24.1059 57.5049 24.3001 57.3125 24.3185 57.0687L25.4549 42.091C25.5032 41.4541 25.0635 40.8796 24.4342 40.7702L24.4343 40.77Z" fill="#0B1014"/>
<path d="M4.90029 51.6556C4.84098 51.6012 4.77544 51.5547 4.70118 51.5173C4.61756 51.4752 4.52326 51.4445 4.41417 51.4271C4.34599 51.4167 4.27223 51.4116 4.19222 51.4121C4.09382 51.4125 3.98539 51.4222 3.86595 51.4414C3.84936 51.444 3.83326 51.4468 3.81749 51.4499C3.71432 51.47 3.61756 51.5012 3.52851 51.5501C3.46461 51.5848 3.40448 51.6287 3.34813 51.6834C3.26549 51.7635 3.19074 51.8675 3.12569 52.0019C3.08576 52.0832 3.04946 52.1749 3.01627 52.2792C3.00642 52.3093 2.99705 52.3408 2.98802 52.3732C2.97044 52.4345 2.95927 52.501 2.95368 52.572C2.94793 52.6421 2.94809 52.7161 2.9545 52.7916C2.9614 52.8721 2.97504 52.9541 2.99656 53.0358C3.01627 53.112 3.04223 53.1876 3.07509 53.2615C3.11731 53.3543 3.16971 53.4434 3.23411 53.5245C3.28126 53.5853 3.33548 53.6417 3.3961 53.6921C3.4559 53.7417 3.52161 53.7857 3.59456 53.8222C3.66618 53.8583 3.74455 53.8877 3.82948 53.9081C3.89635 53.9242 3.96666 53.9351 4.0419 53.9397C4.06277 53.9411 4.08314 53.942 4.10335 53.9423C4.21079 53.9438 4.30788 53.9308 4.3961 53.9062C4.46165 53.8881 4.52277 53.8634 4.57911 53.8334C4.67079 53.7844 4.75014 53.722 4.81946 53.6515C4.86037 53.6099 4.89766 53.5659 4.93183 53.5201C4.98358 53.4511 5.02794 53.3783 5.06721 53.3063C5.11879 53.2104 5.16118 53.1161 5.19699 53.0313C5.21391 52.9898 5.23018 52.9508 5.24545 52.9153C5.26698 52.8633 5.28472 52.8137 5.29786 52.7658C5.33795 52.6237 5.34222 52.4963 5.32103 52.3783C5.30361 52.2786 5.26845 52.1849 5.22163 52.0944C5.1827 52.0188 5.13571 51.9454 5.08462 51.8721C5.0815 51.8675 5.07871 51.8636 5.07558 51.859C5.02285 51.7834 4.96535 51.7146 4.90029 51.6553V51.6556Z" fill="white"/>
<path d="M2.99639 53.0357C3.07788 53.016 3.22968 52.9896 3.31379 53.0366C3.40201 53.0858 3.19222 53.203 3.07492 53.2615C3.04206 53.1875 3.01594 53.112 2.99639 53.0357ZM3.24857 52.698C3.21703 52.6178 3.05439 52.5851 2.95368 52.572C2.94793 52.6421 2.94809 52.716 2.9545 52.7916C3.07492 52.7919 3.28077 52.7808 3.24857 52.698ZM3.39265 52.2403C3.42501 52.1821 3.24824 52.0707 3.12569 52.0019C3.08576 52.0832 3.04946 52.1749 3.01627 52.2792C3.11714 52.2904 3.35404 52.3089 3.39265 52.2403ZM3.66963 51.8393C3.78973 51.7634 3.62676 51.6216 3.52868 51.5499C3.46477 51.5846 3.40464 51.6285 3.34829 51.6832C3.40431 51.7599 3.54248 51.9201 3.6698 51.8393H3.66963ZM4.03369 51.8235C4.14869 51.8877 4.18237 51.5789 4.19239 51.4121C4.09398 51.4124 3.98555 51.4221 3.86612 51.4414C3.84953 51.444 3.83343 51.4468 3.81765 51.4499C3.8561 51.5725 3.93035 51.7661 4.03369 51.8236V51.8235ZM4.70118 51.5173C4.61756 51.4752 4.52326 51.4445 4.41417 51.4271C4.40382 51.5453 4.39495 51.7834 4.48909 51.8358C4.5755 51.8843 4.65797 51.6625 4.70118 51.5173ZM5.08462 51.8724C5.0815 51.8678 5.07871 51.8639 5.07558 51.8593C5.02285 51.7837 4.96535 51.7149 4.90029 51.6556C4.80977 51.7638 4.70069 51.9186 4.75704 51.9818C4.8147 52.0466 4.97586 51.9506 5.08462 51.8724ZM5.32086 52.3786C5.30345 52.2789 5.26829 52.1852 5.22147 52.0947C5.11583 52.1706 4.89931 52.3362 4.88978 52.4207C4.87992 52.5062 5.18122 52.4226 5.32086 52.3786ZM5.19683 53.0315C5.21375 52.9899 5.23001 52.951 5.24529 52.9155C5.26681 52.8634 5.28455 52.8138 5.2977 52.766C5.17695 52.7371 4.91541 52.6901 4.85774 52.8079C4.80386 52.9188 5.05226 52.9963 5.19666 53.0313L5.19683 53.0315ZM5.06704 53.3065C4.96321 53.2257 4.74849 53.0811 4.65288 53.1755C4.55661 53.2698 4.80139 53.4402 4.93151 53.5204C4.98326 53.4514 5.02761 53.3786 5.06688 53.3066L5.06704 53.3065ZM4.8193 53.6516C4.73075 53.5445 4.59045 53.4004 4.50535 53.4397C4.42551 53.477 4.50453 53.6797 4.57895 53.8333C4.67062 53.7844 4.74997 53.722 4.8193 53.6515V53.6516ZM4.39594 53.9063C4.39594 53.7433 4.37458 53.5227 4.25317 53.5608C4.11435 53.6043 4.10088 53.8269 4.10318 53.9426C4.21062 53.9441 4.30772 53.9311 4.39594 53.9064V53.9063ZM3.82932 53.9083C3.88173 53.8158 4.01266 53.5688 3.93249 53.5242C3.86004 53.4837 3.68245 53.704 3.59423 53.8223C3.66585 53.8585 3.74422 53.8879 3.82915 53.9083H3.82932ZM3.39593 53.6922C3.51126 53.5682 3.70643 53.3382 3.5755 53.325C3.45228 53.313 3.31084 53.4422 3.23395 53.5247C3.2811 53.5854 3.33531 53.6418 3.39593 53.6922Z" fill="#DEB992"/>
<path d="M4.90038 51.6554C4.84107 51.6011 4.77552 51.5546 4.70127 51.5171C4.61765 51.4751 4.52335 51.4443 4.41426 51.4269C4.34608 51.4166 4.27232 51.4115 4.19231 51.412C4.09391 51.4123 3.98548 51.422 3.86604 51.4412C3.84945 51.4438 3.83335 51.4466 3.81758 51.4498C3.71441 51.4698 3.61764 51.501 3.5286 51.55C3.46469 51.5846 3.40457 51.6285 3.34822 51.6832C3.26558 51.7634 3.19083 51.8674 3.12577 52.0018C3.08585 52.0831 3.04955 52.1747 3.01636 52.2791C3.0065 52.3091 2.99714 52.3407 2.9881 52.373C2.97053 52.4343 2.95935 52.5009 2.95377 52.5718C2.94802 52.642 2.94818 52.7159 2.95459 52.7915C2.96149 52.872 2.97513 52.954 2.99665 53.0356C3.01636 53.1118 3.04232 53.1874 3.07517 53.2613C3.1174 53.3542 3.1698 53.4432 3.2342 53.5244C3.28135 53.5851 3.33557 53.6415 3.39619 53.6919C3.45599 53.7415 3.5217 53.7856 3.59464 53.822C3.66627 53.8582 3.74464 53.8876 3.82957 53.908C3.89644 53.9241 3.96675 53.9349 4.04199 53.9395C4.06286 53.941 4.08323 53.9418 4.10343 53.9421C4.21088 53.9436 4.30797 53.9306 4.39619 53.906C4.46174 53.8879 4.52285 53.8633 4.5792 53.8332C4.67087 53.7842 4.75022 53.7218 4.81955 53.6513C4.86046 53.6098 4.89775 53.5657 4.93192 53.5199C4.98367 53.4509 5.02803 53.3781 5.06729 53.3062C5.11888 53.2102 5.16126 53.1159 5.19708 53.0312C5.214 52.9896 5.23026 52.9507 5.24554 52.9152C5.26706 52.8631 5.28481 52.8135 5.29795 52.7657C5.33804 52.6236 5.34231 52.4961 5.32111 52.3781C5.3037 52.2784 5.26854 52.1848 5.22172 52.0942C5.18279 52.0187 5.1358 51.9452 5.08471 51.872C5.08159 51.8674 5.07879 51.8634 5.07567 51.8588C5.02294 51.7833 4.96544 51.7144 4.90038 51.6551V51.6554ZM2.64606 52.0923C3.08897 51.2802 3.54339 50.8342 4.53698 51.1539C5.2163 51.3724 5.52926 51.7772 5.60204 52.2355C5.67498 52.6939 5.55703 53.3587 4.9495 53.9494C4.35134 54.5317 3.60089 54.3615 3.16635 54.0596C2.73149 53.7568 2.20299 52.9043 2.6459 52.0923H2.64606Z" fill="#0B1014"/>
<path d="M4.43844 52.1457C4.56888 52.2185 4.64265 52.3459 4.66401 52.5364C4.69621 52.8214 4.57332 52.9666 4.46423 53.0379C4.38209 53.0923 4.15604 53.204 3.83667 53.078C3.81432 53.0691 3.7928 53.0591 3.77227 53.0476C3.549 52.9232 3.50613 52.6824 3.53767 52.5145C3.57414 52.318 3.7772 52.0384 4.09739 52.063C4.25149 52.0745 4.35646 52.1003 4.43828 52.1458L4.43844 52.1457ZM3.91733 52.8584C3.9285 52.8649 3.94049 52.8703 3.95331 52.8749C3.96662 52.8799 3.98091 52.8841 3.99553 52.8873C4.01607 52.8919 4.03792 52.895 4.06289 52.897C4.09492 52.8993 4.12647 52.8989 4.14996 52.8984L4.18873 52.8973C4.20302 52.897 4.21633 52.8958 4.22849 52.8938C4.26101 52.8889 4.28845 52.8789 4.31194 52.8626C4.33018 52.8503 4.34694 52.8337 4.36402 52.8125C4.37667 52.7967 4.38949 52.7779 4.40411 52.7535C4.41955 52.7274 4.42908 52.7074 4.43549 52.688C4.4414 52.6694 4.44485 52.6514 4.44567 52.633C4.44682 52.6106 4.4437 52.5871 4.43696 52.5621C4.43236 52.5456 4.42546 52.5272 4.41676 52.5086C4.40559 52.4836 4.39064 52.457 4.3724 52.4296C4.36994 52.4258 4.36731 52.4218 4.36484 52.4184C4.34924 52.3964 4.33297 52.3791 4.31506 52.3657C4.308 52.3607 4.30094 52.356 4.29371 52.3519C4.28631 52.3476 4.27909 52.3441 4.27104 52.341C4.24409 52.3302 4.21321 52.3244 4.17674 52.3236C4.15127 52.3228 4.12417 52.3239 4.09476 52.3275C4.08589 52.3287 4.07669 52.3298 4.06732 52.331C4.05204 52.3333 4.03627 52.3376 4.02001 52.3433C4.00292 52.3496 3.98567 52.3576 3.96842 52.3668C3.95002 52.3772 3.93228 52.3895 3.91503 52.403C3.8986 52.4164 3.88365 52.4307 3.87002 52.4457C3.85211 52.4657 3.83716 52.4872 3.82599 52.5096C3.81679 52.527 3.8094 52.5451 3.80463 52.5631C3.79937 52.5815 3.79642 52.6009 3.7956 52.6198C3.79477 52.6402 3.79642 52.6607 3.8002 52.6811C3.80332 52.6985 3.80825 52.7161 3.81482 52.7335C3.81679 52.7381 3.81827 52.7427 3.82057 52.7475C3.83075 52.7713 3.84291 52.791 3.85753 52.8087C3.86755 52.8211 3.8784 52.8314 3.89022 52.8408C3.89877 52.8473 3.90797 52.8534 3.91766 52.8585L3.91733 52.8584Z" fill="#F31C45"/>
<path d="M4.11404 52.31C4.30314 52.3243 4.42471 52.3716 4.44886 52.5842C4.46545 52.7297 4.416 52.8222 4.33632 52.8746C4.25681 52.9267 4.12259 52.9606 3.96109 52.897C3.80157 52.8342 3.77003 52.6798 3.79007 52.573C3.80979 52.4659 3.92495 52.2952 4.11404 52.31Z" fill="white"/>
<path d="M29.1628 55.6972C29.3598 55.8078 29.5308 55.501 29.3335 55.3911C29.1362 55.2812 28.9652 55.5873 29.1628 55.6972Z" fill="#0B1014"/>
<path d="M29.2402 55.0182C29.438 55.1281 29.609 54.822 29.4115 54.7114C29.2142 54.6015 29.0427 54.9076 29.2402 55.0182Z" fill="#0B1014"/>
<path d="M29.4924 54.495C29.6889 54.6056 29.8604 54.2997 29.6626 54.189C29.4656 54.0791 29.2946 54.3851 29.4924 54.495Z" fill="#0B1014"/>
<path d="M29.8479 53.9306C29.9326 53.9738 30.0384 53.9487 30.0864 53.8631L30.0951 53.8481C30.1395 53.7673 30.1115 53.6511 30.0276 53.6088C29.9425 53.5664 29.8362 53.5907 29.7882 53.6763L29.78 53.6921C29.7348 53.7721 29.7624 53.8882 29.8479 53.9306Z" fill="#0B1014"/>
<path d="M30.3547 53.3099C30.4403 53.3523 30.5461 53.3279 30.594 53.2417L30.6023 53.2267C30.6466 53.1467 30.6192 53.0298 30.5347 52.9882C30.4496 52.945 30.3437 52.9693 30.2959 53.0557L30.2872 53.0707C30.2425 53.1507 30.2699 53.2677 30.3547 53.31V53.3099Z" fill="#0B1014"/>
<path d="M31.0888 52.8945C31.2861 53.0044 31.4571 52.6983 31.2603 52.5884C31.0625 52.4785 30.8915 52.7845 31.0888 52.8945Z" fill="#0B1014"/>
<path d="M31.8934 52.8214C32.0904 52.9313 32.2622 52.6244 32.0644 52.5147C31.8671 52.4048 31.6956 52.7108 31.8934 52.8214Z" fill="#0B1014"/>
<path d="M32.5509 52.8668C32.7482 52.9767 32.9197 52.6706 32.7222 52.5601C32.5249 52.4502 32.3534 52.7562 32.5509 52.8668Z" fill="#0B1014"/>
<path d="M33.173 53.0128C33.37 53.1227 33.5418 52.8166 33.344 52.7061C33.1471 52.5962 32.9752 52.9022 33.173 53.0128Z" fill="#0B1014"/>
<path d="M33.716 53.336C33.9133 53.4459 34.0848 53.1399 33.8874 53.0293C33.6896 52.9194 33.5185 53.2255 33.716 53.336Z" fill="#0B1014"/>
<path d="M34.2131 53.8143C34.4096 53.9242 34.5814 53.6173 34.3838 53.5075C34.1868 53.397 34.015 53.7037 34.2131 53.8143Z" fill="#0B1014"/>
<path d="M15.2324 50.8559C14.7504 51.0294 15.0179 51.7786 15.501 51.6038C15.9837 51.4321 15.7143 50.6825 15.2324 50.8559Z" fill="#0B1014"/>
<path d="M16.0642 49.478C15.5823 49.6515 15.8498 50.4006 16.3323 50.2265C16.815 50.0548 16.5462 49.3045 16.0642 49.478Z" fill="#0B1014"/>
<path d="M17.3084 48.4167C16.8258 48.5884 17.0945 49.3387 17.5764 49.1652C18.0584 48.9917 17.7909 48.2425 17.3084 48.4167Z" fill="#0B1014"/>
<path d="M18.8664 47.4369C18.385 47.6097 18.6538 48.3601 19.1356 48.1865C19.6195 48.0135 19.3502 47.2639 18.8664 47.4369Z" fill="#0B1014"/>
<path d="M20.6568 47.0057C20.1754 47.1785 20.4448 47.9282 20.926 47.7555C21.4085 47.5813 21.1406 46.8329 20.6568 47.0057Z" fill="#0B1014"/>
<path d="M22.4763 47.2414C21.9937 47.4131 22.2624 48.1634 22.7443 47.9899C23.2263 47.8164 22.9588 47.0673 22.4763 47.2414Z" fill="#0B1014"/>
<path d="M15.9948 56.7547C15.5134 56.9276 15.7815 57.6785 16.264 57.5044C16.7454 57.3315 16.4786 56.5817 15.9948 56.7547Z" fill="#0B1014"/>
<path d="M15.438 55.4339C14.9542 55.6069 15.2229 56.3573 15.7053 56.183C16.1886 56.0107 15.9193 55.2611 15.438 55.4339Z" fill="#0B1014"/>
<path d="M15.0218 53.807C14.5393 53.9787 14.8086 54.7283 15.2899 54.5555C15.7737 54.3825 15.505 53.6321 15.0218 53.807Z" fill="#0B1014"/>
<path d="M14.9993 52.2091L14.9604 52.2213C14.7647 52.2914 14.6392 52.5326 14.721 52.7314C14.802 52.9308 15.0198 53.0465 15.2291 52.9717L15.2679 52.9571C15.4631 52.8876 15.5893 52.6483 15.5068 52.4478C15.4251 52.249 15.2078 52.1327 14.9993 52.2093V52.2091Z" fill="#0B1014"/>
<path d="M14.0291 21.9784C13.946 21.8865 13.8699 21.8445 13.8507 21.835C13.811 21.8172 13.7659 21.7995 13.7096 21.7848C13.5353 21.7397 13.3447 21.8327 13.3109 21.9046C13.2728 21.9715 13.2484 22.0507 13.2434 22.1303C13.2271 22.3851 13.3097 22.6416 13.3899 22.8773C13.7991 24.0659 13.2392 24.6902 13.1027 24.829C13.1192 24.8151 13.1413 24.7996 13.1652 24.7816C13.3587 24.6349 13.5394 24.4714 13.6976 24.2874C13.7079 24.2746 13.7173 24.2626 13.7277 24.2496C13.7383 24.2383 13.7479 24.2261 13.7582 24.2138C13.9496 23.9759 14.1098 23.7127 14.2085 23.4293C14.3247 23.1047 14.3562 22.7564 14.2573 22.4318C14.2116 22.2853 14.1354 22.1175 14.029 21.978L14.0291 21.9784Z" fill="#1BA098"/>
</svg>
