<svg width="152" height="31" viewBox="0 0 152 31" fill="none" xmlns="http://www.w3.org/2000/svg">
<path fill-rule="evenodd" clip-rule="evenodd" d="M16 0C7.17763 0 0 6.95333 0 15.5C0 24.0467 7.17763 31 16 31C24.8224 31 32 24.0467 32 15.5C32 6.95333 24.8224 0 16 0ZM16 29.6878C7.92744 29.6878 1.3545 23.3262 1.3545 15.5C1.3545 7.67385 7.92744 1.31217 16 1.31217C24.0726 1.31217 30.6455 7.67385 30.6455 15.5C30.6455 23.3262 24.0786 29.6878 16 29.6878ZM27.2351 17.8256C27.3983 17.0758 27.483 16.3025 27.483 15.5059C27.483 14.7092 27.3923 13.9242 27.229 13.1744H29.3515C28.3356 10.7785 25.808 8.94501 23.0204 9.72997C21.5026 10.1517 19.7007 11.2472 17.5722 13.4029C18.3401 12.5945 19.2774 11.5752 19.1927 10.3978C19.102 9.1969 17.8564 8.02532 16.5926 8.08976C15.7884 8.13076 15.1655 8.65798 14.7241 9.2672C14.0831 8.84543 13.3091 8.57596 12.5412 8.81614C11.3439 9.19104 10.6062 10.72 10.963 11.874C11.3197 13.0045 12.5714 13.6313 13.5813 14.1234C13.6841 14.1703 13.8413 14.2406 13.9683 14.305C14.0892 14.3636 14.1436 14.51 14.0771 14.6272C14.0166 14.7326 13.8896 14.7736 13.7748 14.7326C13.7203 14.715 13.6659 14.6916 13.6236 14.674C12.5714 14.2757 11.2472 13.7895 10.1466 14.2991C9.02192 14.8146 8.34467 16.367 8.8647 17.48C9.19728 18.1888 9.9229 18.5695 10.6788 18.7453C10.5034 19.4717 10.5215 20.2742 11.0295 20.8834C11.8277 21.8324 13.5631 21.9437 14.5367 21.1997C15.4981 20.4734 15.6493 19.1085 15.7521 18.0189C15.7521 17.972 15.7581 17.9135 15.7642 17.8607C15.7702 17.7436 15.873 17.6499 15.994 17.644C16.133 17.644 16.2479 17.7494 16.2419 17.8783C16.2419 18.013 16.2419 18.1829 16.2419 18.2942C16.2419 19.3896 16.254 20.7604 17.1429 21.5746C18.0438 22.4006 19.7853 22.4533 20.6682 21.5746C21.2366 21.0181 21.3273 20.2215 21.2305 19.4834C21.9924 19.3721 22.7543 19.0675 23.1595 18.3938C23.7823 17.3335 23.2623 15.7226 22.198 15.1075C21.1459 14.5042 19.7853 14.8615 18.6969 15.1661C18.6002 15.1895 18.5034 15.2188 18.4127 15.2481C18.5034 15.2188 18.6002 15.1485 18.6848 15.1075C19.6342 14.6272 20.6379 14.223 21.672 13.9652C22.2706 13.8188 22.8995 13.7133 23.5223 13.7543C24.4051 13.8188 25.0945 14.264 25.2759 15.131C25.3908 15.6699 25.3424 16.2498 25.2638 16.7829C25.0461 18.2005 24.3568 19.5478 23.5042 20.7018C21.7868 23.0274 18.9569 24.4392 16.006 24.4392C10.9146 24.4392 6.78458 20.4382 6.78458 15.5059C6.78458 10.5735 10.9146 6.57256 16.006 6.57256C16.9615 6.57256 17.9108 6.71315 18.8178 6.99433C19.2593 7.12906 19.6886 7.29894 20.1058 7.49811C21.1398 7.99603 22.0106 8.13662 23.099 7.65042C23.3288 7.55083 25.8624 6.10979 25.7596 6.0102C23.8005 4.1181 21.2608 2.79422 18.4127 2.30801V4.61602C17.6387 4.45786 16.8345 4.37585 16.0121 4.37585C15.1897 4.37585 14.3855 4.45786 13.6115 4.61602V2.30801C11.5797 2.64777 9.69917 3.42101 8.07861 4.5223L9.77173 6.16251C8.41119 7.01191 7.25624 8.13662 6.37339 9.44879L4.68027 7.80858C3.53741 9.38435 2.73923 11.2062 2.38246 13.1744H4.77702C4.61376 13.9242 4.52305 14.7033 4.52305 15.5059C4.52305 16.3084 4.60771 17.0758 4.77098 17.8256H2.36432C2.72109 19.7997 3.52532 21.6215 4.66213 23.1914L6.34921 21.5571C7.226 22.8692 8.387 23.994 9.7415 24.8433L8.05442 26.4777C9.68103 27.579 11.5616 28.3522 13.5933 28.6978V26.3957C14.3673 26.5539 15.1716 26.6359 15.994 26.6359C16.8163 26.6359 17.6206 26.5539 18.3946 26.3957V28.692C19.0295 28.5865 19.6523 28.4401 20.263 28.2468C21.5692 27.8367 22.8027 27.2334 23.9214 26.466L22.2464 24.8433C23.6009 23.994 24.7619 22.8692 25.6387 21.5571L27.3137 23.1797C28.4444 21.6156 29.2789 19.747 29.6417 17.8256H27.2351Z" fill="#FEC901"/>
<path d="M52.1142 14.8246L49.7528 19.0353H47.3914L45.0347 14.8246V21.3967H42V9.59912H45.2007L48.5721 15.8346L51.9435 9.59912H55.1442V21.3967H52.1095V14.8246H52.1142Z" fill="white"/>
<path d="M56.571 9.59912H59.7717L62.5504 15.3272L65.3291 9.59912H68.5298L64.063 18.2766V21.3919H61.0283V18.2766L56.5615 9.59912H56.571Z" fill="white"/>
<path d="M74.9452 21.3967H71.6592L76.1259 9.59912H79.4974L83.9641 21.3967H80.6781L79.9194 19.2913H75.7087L74.95 21.3967H74.9452ZM76.4626 17.1006H79.1607L77.814 13.1412L76.4674 17.1006H76.4626Z" fill="white"/>
<path d="M91.9549 9.59912C93.2257 9.59912 94.1883 9.9263 94.8474 10.5854C95.5018 11.2445 95.8337 12.2071 95.8337 13.4732V17.5179C95.8337 18.7887 95.5065 19.7513 94.8474 20.4057C94.1883 21.0648 93.2257 21.3919 91.9549 21.3919H85.3828V9.59912H91.9549ZM92.799 13.4732C92.799 12.4632 92.2916 11.9558 91.2816 11.9558H88.4176V19.0305H91.2816C92.2916 19.0305 92.799 18.5232 92.799 17.5132V13.4684V13.4732Z" fill="white"/>
<path d="M102.325 17.8595L105.189 9.604H108.475L104.008 21.4016H100.637L96.1699 9.604H99.456L102.32 17.8595H102.325Z" fill="white"/>
<path d="M115.963 21.3967H109.898V19.0353H111.416V11.9605H109.898V9.59912H115.963V11.9605H114.446V19.0353H115.963V21.3967Z" fill="white"/>
<path d="M120.34 13.3071C120.34 13.9804 120.676 14.3171 121.35 14.3171H124.384C125.484 14.3171 126.295 14.5731 126.812 15.0805C127.329 15.5879 127.585 16.3845 127.585 17.4656V18.2954C127.585 19.3765 127.324 20.1732 126.812 20.6805C126.295 21.1879 125.484 21.444 124.384 21.444H119.903C119.083 21.444 118.267 21.3728 117.461 21.2258V19.0683H123.711C123.967 19.0683 124.176 18.9972 124.327 18.8549C124.479 18.7127 124.555 18.5183 124.555 18.2764V16.8444H120.681C119.5 16.8444 118.647 16.5789 118.111 16.0431C117.58 15.512 117.31 14.6537 117.31 13.473V12.9656C117.31 11.7849 117.575 10.9314 118.111 10.3956C118.642 9.86452 119.5 9.59424 120.681 9.59424H126.594V11.9556H121.354C120.681 11.9556 120.344 12.2923 120.344 12.9656V13.3023L120.34 13.3071Z" fill="white"/>
<path d="M139.96 18.1959C139.96 19.3766 139.695 20.2302 139.159 20.766C138.623 21.3018 137.77 21.5673 136.589 21.5673H132.378C131.198 21.5673 130.344 21.3018 129.808 20.766C129.277 20.2349 129.007 19.3766 129.007 18.1959V12.8045C129.007 11.6238 129.272 10.7703 129.808 10.2345C130.339 9.70339 131.198 9.43311 132.378 9.43311H136.589C137.77 9.43311 138.623 9.69865 139.159 10.2345C139.69 10.7703 139.96 11.6238 139.96 12.8045V18.1959ZM136.926 12.8045C136.926 12.1312 136.589 11.7945 135.916 11.7945H133.052C132.378 11.7945 132.042 12.1312 132.042 12.8045V18.1959C132.042 18.8693 132.378 19.2059 133.052 19.2059H135.916C136.589 19.2059 136.926 18.8693 136.926 18.1959V12.8045Z" fill="white"/>
<path d="M141.384 9.59912H148.463C149.644 9.59912 150.497 9.86466 151.033 10.4005C151.564 10.9363 151.835 11.7898 151.835 12.9705V14.4879C151.835 15.422 151.678 16.1428 151.37 16.6596C151.062 17.1765 150.568 17.5179 149.895 17.6886L152.001 21.3967H148.714L146.775 17.8593H144.414V21.3967H141.379V9.59912H141.384ZM148.8 12.9705C148.8 12.2972 148.463 11.9605 147.79 11.9605H144.418V15.4979H147.79C148.463 15.4979 148.8 15.1612 148.8 14.4879V12.9705Z" fill="white"/>
</svg>
