<svg width="156" height="68" viewBox="0 0 156 68" fill="none" xmlns="http://www.w3.org/2000/svg">
<path d="M9.3703 10.6874C8.9198 10.2042 8.42426 9.85635 7.88366 9.62443C7.34307 9.39896 6.7896 9.28945 6.21683 9.28945C5.67624 9.28945 5.18069 9.37319 4.7302 9.53425C4.2797 9.70174 3.88713 9.93365 3.55891 10.23C3.23069 10.5328 2.97327 10.8871 2.79307 11.2929C2.61287 11.6988 2.52277 12.1239 2.52277 12.5813C2.52277 13.0645 2.62574 13.5605 2.83812 14.0694C3.0505 14.5784 3.34654 15.1195 3.73911 15.6928L9.1 23.4941C9.51832 24.0933 9.84653 24.6988 10.0718 25.2979C10.297 25.897 10.4064 26.4833 10.4064 27.0566C10.4064 27.7201 10.2649 28.3514 9.97525 28.9506C9.69208 29.5497 9.29951 30.065 8.80396 30.4838C8.30842 30.9025 7.72277 31.2375 7.04703 31.4758C6.37129 31.7142 5.65693 31.8366 4.9104 31.8366C3.97723 31.8366 3.09554 31.6562 2.25248 31.2955C1.40941 30.9347 0.662871 30.4258 0 29.7623L0.180197 29.5368C0.778712 30.1681 1.44158 30.6513 2.16238 30.9798C2.88317 31.3083 3.60396 31.4758 4.32475 31.4758C4.80743 31.4758 5.25792 31.3921 5.67624 31.2246C6.09455 31.0571 6.45495 30.8252 6.75743 30.5289C7.0599 30.2261 7.29802 29.8653 7.47822 29.4466C7.65842 29.0279 7.74852 28.5898 7.74852 28.1389C7.74852 27.5397 7.61337 26.9084 7.34307 26.2449C7.07277 25.5814 6.66733 24.8792 6.12673 24.1255L1.17129 17.0908C0.778713 16.5174 0.489108 15.957 0.289603 15.4029C0.0965339 14.8489 0 14.282 0 13.7151C0 13.0516 0.141584 12.4267 0.431188 11.8405C0.714357 11.2543 1.10693 10.7454 1.60247 10.3073C2.09802 9.86924 2.68366 9.52781 3.35941 9.27013C4.03515 9.01244 4.7495 8.8836 5.50247 8.8836C6.28119 8.8836 7.02129 9.01888 7.7099 9.28945C8.39852 9.56002 9.02921 9.96586 9.60198 10.507L9.3703 10.6874Z" fill="#F7D39F"/>
<path d="M11.4877 9.19925H14.3258L17.9298 26.5605H18.0199L18.2902 25.2528L20.3624 14.9713L19.1461 9.19925H21.9842L25.3179 25.2528L25.6332 26.5605H25.7233L25.9936 25.2528L29.2372 9.19925H29.5976L24.9575 31.5209H24.0115L20.903 17.3162L20.5877 16.0085H20.4976L20.2723 17.3613L17.254 31.5209H16.353L11.4877 9.19925Z" fill="#F7D39F"/>
<path d="M37.3462 8.8836C38.1571 8.8836 38.9229 9.03177 39.6437 9.33454C40.3645 9.63732 40.9952 10.0496 41.5358 10.5714C42.0764 11.0997 42.5076 11.7117 42.8229 12.4203C43.1383 13.1289 43.2927 13.8697 43.2927 14.6492V26.1032C43.2927 26.8827 43.1383 27.6235 42.8229 28.3128C42.5076 29.0021 42.0893 29.6141 41.5615 30.1423C41.0338 30.6706 40.4096 31.0829 39.6952 31.3792C38.9744 31.682 38.2086 31.8301 37.3977 31.8301C36.619 31.8301 35.8596 31.6691 35.1259 31.3534C34.3922 31.0378 33.7422 30.6255 33.1888 30.1166C32.6353 29.6076 32.1912 29.0021 31.863 28.3128C31.5348 27.6235 31.3675 26.8827 31.3675 26.1032V14.6492C31.3675 13.8697 31.5284 13.1225 31.8373 12.4203C32.1526 11.7117 32.5902 11.0997 33.1437 10.5714C33.6972 10.0432 34.3343 9.63088 35.0615 9.33454C35.7695 9.03177 36.5353 8.8836 37.3462 8.8836ZM37.3462 9.15417C36.3873 9.15417 35.6214 9.48271 35.0487 10.1462C34.4759 10.8098 34.1927 11.7117 34.1927 12.8519V27.9134C34.1927 29.0536 34.4759 29.9491 35.0487 30.5997C35.6214 31.2439 36.4002 31.566 37.3912 31.566C38.3823 31.566 39.1482 31.2504 39.6888 30.619C40.2294 29.9877 40.4997 29.0858 40.4997 27.9134V12.8519C40.4997 11.6794 40.2229 10.7711 39.6695 10.1269C39.1096 9.47627 38.3373 9.15417 37.3462 9.15417Z" fill="#F7D39F"/>
<path d="M49.0138 9.19926V13.7087H49.149C49.3871 12.9292 49.6831 12.2335 50.0242 11.6344C50.3718 11.0352 50.7515 10.5328 51.1762 10.1269C51.5945 9.72106 52.0772 9.41185 52.6178 9.19926C53.1584 8.98667 53.744 8.8836 54.3747 8.8836V11.1834C53.7119 11.1254 53.094 11.1834 52.5084 11.3638C51.9227 11.5442 51.3822 11.8212 50.8866 12.1948C50.3911 12.5684 49.9856 13.0194 49.6703 13.5476C49.3549 14.0759 49.1361 14.6686 49.0138 15.3321V31.5209H46.3109V9.19926H49.0138Z" fill="#F7D39F"/>
<path d="M65.1414 28.7251H65.0514C64.7231 29.7493 64.2211 30.5224 63.539 31.0442C62.8632 31.5724 62.1038 31.8366 61.2672 31.8366C60.6043 31.8366 59.9672 31.6948 59.3494 31.4049C58.7315 31.1215 58.191 30.7221 57.7276 30.2132C57.2642 29.7042 56.8845 29.1051 56.6013 28.4287C56.3182 27.7523 56.1702 27.0501 56.1702 26.3351V14.5654C56.1702 13.8117 56.3117 13.0902 56.6013 12.4009C56.8845 11.7116 57.2707 11.0996 57.7533 10.5778C58.236 10.0496 58.783 9.63729 59.3944 9.34096C60.0122 9.03818 60.6622 8.89001 61.3509 8.89001C62.1617 8.89001 62.8954 9.1477 63.5583 9.65662C64.2212 10.1655 64.7167 10.9193 65.0449 11.9113H65.135V0H67.883V31.5209H65.135V28.7251H65.1414ZM64.8518 11.9307C64.6588 11.4024 64.4014 10.9386 64.086 10.5327C63.7707 10.1269 63.4103 9.80478 63.0048 9.56643C62.5994 9.32807 62.1746 9.20567 61.7177 9.20567C60.9647 9.20567 60.3276 9.54066 59.8063 10.2171C59.2786 10.8935 59.0147 11.7438 59.0147 12.7681V27.9198C59.0147 28.9119 59.2721 29.7558 59.7806 30.4451C60.289 31.1344 60.9518 31.4822 61.7627 31.4822C62.181 31.4822 62.5929 31.3598 62.9984 31.1215C63.4038 30.8831 63.7707 30.5546 64.0989 30.1552C64.4271 29.7493 64.6845 29.2855 64.8647 28.7573C65.0449 28.229 65.135 27.6943 65.135 27.1596V13.5734C65.1414 13 65.0449 12.4525 64.8518 11.9307Z" fill="#F7D39F"/>
<path d="M1.15197 39.4832C1.46732 38.7746 1.90494 38.1626 2.4584 37.6344C3.01187 37.1061 3.649 36.6938 4.37622 36.3975C5.09702 36.0947 5.86286 35.9466 6.67375 35.9466C7.48464 35.9466 8.25048 36.0947 8.97127 36.3975C9.69207 36.7003 10.3228 37.1126 10.8634 37.6344C11.4039 38.1626 11.8351 38.7746 12.1505 39.4832C12.4658 40.1919 12.6203 40.9327 12.6203 41.7122V47.349H3.2886V47.0784H9.82078V39.9084C9.82078 38.736 9.54405 37.8276 8.99058 37.1834C8.43712 36.5392 7.66484 36.2107 6.67375 36.2107C5.71484 36.2107 4.949 36.5392 4.37622 37.2028C3.80345 37.8663 3.52029 38.7682 3.52029 39.9084V54.4288C3.52029 55.0021 3.61682 55.5497 3.81632 56.0779C4.00939 56.6062 4.27325 57.0571 4.60147 57.4308C4.92969 57.8044 5.33514 58.1007 5.81781 58.3133C6.30048 58.5259 6.8089 58.629 7.34949 58.629C7.83217 58.629 8.32771 58.5452 8.83613 58.3842C9.34454 58.2167 9.82722 57.9783 10.2777 57.6627C10.7282 57.347 11.1401 56.9734 11.5134 56.5353C11.8866 56.0973 12.2084 55.627 12.4787 55.1116L12.7039 55.2469C12.1054 56.4194 11.2945 57.3213 10.2713 57.9526C9.24801 58.5839 8.12177 58.8996 6.89256 58.8996C6.04949 58.8996 5.24504 58.7514 4.4792 58.4486C3.71335 58.1458 3.04405 57.74 2.47128 57.2311C1.8985 56.7221 1.46088 56.1166 1.14553 55.4273C0.830185 54.738 0.67573 53.9843 0.67573 53.1726V41.7186C0.67573 40.9327 0.836622 40.1854 1.15197 39.4832Z" fill="#F7D39F"/>
<path d="M20.2272 36.958C20.9802 36.2815 21.894 35.9401 22.9752 35.9401C23.5738 35.9401 24.153 36.0561 24.7064 36.2751C25.2599 36.5006 25.7426 36.8162 26.148 37.2221C26.5535 37.6279 26.8688 38.1175 27.094 38.6844C27.3193 39.2578 27.4351 39.8569 27.4351 40.4882V58.571H24.597V39.4961C24.597 38.5041 24.3846 37.731 23.9663 37.177C23.548 36.623 22.9881 36.346 22.2995 36.346C21.7911 36.346 21.2955 36.4941 20.8129 36.7969C20.3302 37.0997 19.9119 37.5055 19.5515 38.0145C19.1911 38.5234 18.895 39.1032 18.6698 39.7474C18.4445 40.3916 18.3351 41.0487 18.3351 41.7057V58.571H15.5871V36.2493H18.3351V39.9922H18.4252C18.8757 38.6458 19.4742 37.6279 20.2272 36.958Z" fill="#F7D39F"/>
<path d="M31.3094 39.5477C31.6119 38.8262 32.0302 38.1948 32.5708 37.6537C33.1114 37.1126 33.7356 36.6938 34.4371 36.3911C35.145 36.0883 35.9173 35.9401 36.7539 35.9401C37.6871 35.9401 38.601 36.1334 39.502 36.5263C40.403 36.9193 41.1366 37.4282 41.7094 38.0596L41.5292 38.2399C41.0208 37.6666 40.3579 37.1963 39.547 36.8162C38.7361 36.4426 37.9381 36.2493 37.1594 36.2493C36.1104 36.2493 35.2673 36.6165 34.6366 37.3509C34.0059 38.0853 33.6906 39.071 33.6906 40.3014V54.3708C33.6906 55.6334 34.0381 56.6448 34.7267 57.4114C35.4153 58.178 36.3163 58.5646 37.4297 58.5646C37.9381 58.5646 38.4337 58.4873 38.9163 58.3391C39.399 58.1909 39.8624 57.9719 40.3129 57.682C40.7634 57.3986 41.1688 57.0636 41.5292 56.6899C41.8896 56.3163 42.2049 55.8847 42.4752 55.4015L42.7005 55.5368C42.102 56.5869 41.304 57.405 40.3129 57.9912C39.3218 58.5774 38.2084 58.8738 36.9792 58.8738C36.1104 58.8738 35.2995 58.7321 34.5465 58.4422C33.7936 58.1587 33.15 57.7464 32.6094 57.1989C32.0688 56.6577 31.6441 56.0264 31.3223 55.3049C31.0069 54.5834 30.8525 53.8039 30.8525 52.96V41.8217C30.8589 41.0358 31.0069 40.2692 31.3094 39.5477Z" fill="#F7D39F"/>
<path d="M46.0856 36.2558L50.0049 52.8505L50.3203 54.1582H50.4104L50.7708 52.8505L54.5549 36.2558H54.9153L47.7525 66.4689H47.3921L49.2391 58.5774H48.7436L43.2475 36.2558H46.0856Z" fill="#F7D39F"/>
<path d="M57.1228 39.5477C57.4252 38.8262 57.8436 38.1948 58.3842 37.6537C58.9247 37.1126 59.549 36.6938 60.2505 36.3911C60.9584 36.0883 61.7307 35.9401 62.5673 35.9401C63.5005 35.9401 64.4143 36.1334 65.3153 36.5263C66.2163 36.9193 66.95 37.4282 67.5228 38.0596L67.3426 38.2399C66.8342 37.6666 66.1713 37.1963 65.3604 36.8162C64.5495 36.4426 63.7515 36.2493 62.9728 36.2493C61.9238 36.2493 61.0807 36.6165 60.45 37.3509C59.8193 38.0853 59.504 39.071 59.504 40.3014V54.3708C59.504 55.6334 59.8515 56.6448 60.5401 57.4114C61.2287 58.178 62.1297 58.5646 63.2431 58.5646C63.7515 58.5646 64.247 58.4873 64.7297 58.3391C65.2124 58.1909 65.6757 57.9719 66.1262 57.682C66.5767 57.3986 66.9822 57.0636 67.3426 56.6899C67.703 56.3163 68.0183 55.8847 68.2886 55.4015L68.5138 55.5368C67.9153 56.5869 67.1173 57.405 66.1262 57.9912C65.1351 58.5774 64.0218 58.8738 62.7926 58.8738C61.9238 58.8738 61.1129 58.7321 60.3599 58.4422C59.6069 58.1587 58.9634 57.7464 58.4228 57.1989C57.8822 56.6577 57.4574 56.0264 57.1356 55.3049C56.8203 54.5834 56.6658 53.8039 56.6658 52.96V41.8217C56.6723 41.0358 56.8203 40.2692 57.1228 39.5477Z" fill="#F7D39F"/>
<path d="M83.0713 35.9401C83.8822 35.9401 84.648 36.0883 85.3688 36.3911C86.0896 36.6938 86.7203 37.1061 87.2609 37.6279C87.8015 38.1562 88.2327 38.7682 88.548 39.4768C88.8634 40.1854 89.0178 40.9263 89.0178 41.7057V53.1597C89.0178 53.9392 88.8634 54.68 88.548 55.3693C88.2327 56.0586 87.8143 56.6706 87.2866 57.1989C86.7589 57.7271 86.1346 58.1394 85.4203 58.4357C84.6995 58.7385 83.9337 58.8867 83.1228 58.8867C82.344 58.8867 81.5846 58.7256 80.851 58.41C80.1173 58.0943 79.4673 57.682 78.9139 57.1731C78.3604 56.6642 77.9163 56.0586 77.5881 55.3693C77.2599 54.68 77.0926 53.9392 77.0926 53.1597V41.7057C77.0926 40.9263 77.2535 40.179 77.5624 39.4768C77.8777 38.7682 78.3153 38.1562 78.8688 37.6279C79.4223 37.0997 80.0594 36.6874 80.7866 36.3911C81.4945 36.0883 82.2604 35.9401 83.0713 35.9401ZM83.0713 36.2107C82.1124 36.2107 81.3465 36.5392 80.7738 37.2028C80.201 37.8663 79.9178 38.7682 79.9178 39.9084V54.9699C79.9178 56.1102 80.201 57.0056 80.7738 57.6562C81.3465 58.3004 82.1252 58.6225 83.1163 58.6225C84.1074 58.6225 84.8733 58.3069 85.4139 57.6756C85.9545 57.0442 86.2247 56.1424 86.2247 54.9699V39.9084C86.2247 38.736 85.948 37.8276 85.3946 37.1834C84.8347 36.5328 84.0624 36.2107 83.0713 36.2107Z" fill="#F7D39F"/>
<path d="M95.4148 36.2558V39.0516H95.4599C95.8203 38.0273 96.3351 37.2543 97.0173 36.7325C97.6931 36.2042 98.4525 35.9401 99.2891 35.9401C99.9777 35.9401 100.634 36.0818 101.246 36.3717C101.863 36.6552 102.398 37.0546 102.848 37.5635C103.299 38.0724 103.665 38.6715 103.949 39.348C104.232 40.0244 104.38 40.7201 104.38 41.4416V53.2112C104.38 53.9327 104.238 54.6478 103.949 55.3564C103.665 56.0651 103.279 56.6771 102.797 57.2053C102.314 57.7335 101.767 58.1458 101.155 58.4422C100.538 58.7449 99.9005 58.8931 99.2376 58.8931C98.4267 58.8931 97.6931 58.6354 97.0302 58.1265C96.3673 57.6176 95.8589 56.8639 95.4985 55.8718H95.4084V57.0443L95.4148 36.2558ZM95.7044 55.8267C95.8975 56.3356 96.1549 56.793 96.4703 57.2053C96.7856 57.6111 97.146 57.9397 97.5515 58.1974C97.9569 58.4551 98.3817 58.5839 98.8386 58.5839C99.5916 58.5839 100.235 58.236 100.776 57.5467C101.316 56.8574 101.587 56.0135 101.587 55.0215V39.8698C101.587 38.8777 101.323 38.0338 100.795 37.3445C100.267 36.6552 99.6045 36.3073 98.7871 36.3073C98.3688 36.3073 97.9569 36.4297 97.5515 36.6681C97.146 36.9064 96.7792 37.235 96.451 37.6344C96.1228 38.0402 95.8653 38.5041 95.6851 39.0323C95.5049 39.5605 95.4148 40.0952 95.4148 40.6364V54.2097C95.4148 54.7766 95.5114 55.3178 95.7044 55.8267Z" fill="#F7D39F"/>
<path d="M107.778 39.4832C108.093 38.7746 108.531 38.1626 109.084 37.6344C109.638 37.1061 110.275 36.6938 111.002 36.3975C111.723 36.0947 112.489 35.9466 113.3 35.9466C114.11 35.9466 114.876 36.0947 115.597 36.3975C116.318 36.7003 116.949 37.1126 117.489 37.6344C118.03 38.1626 118.461 38.7746 118.776 39.4832C119.092 40.1919 119.246 40.9327 119.246 41.7122V47.349H109.921V47.0784H116.453V39.9084C116.453 38.736 116.176 37.8276 115.623 37.1834C115.069 36.5392 114.297 36.2107 113.306 36.2107C112.347 36.2107 111.581 36.5392 111.008 37.2028C110.436 37.8663 110.152 38.7682 110.152 39.9084V54.4288C110.152 55.0021 110.249 55.5497 110.449 56.0779C110.642 56.6062 110.905 57.0571 111.234 57.4308C111.562 57.8044 111.967 58.1007 112.45 58.3133C112.933 58.5259 113.441 58.629 113.982 58.629C114.464 58.629 114.96 58.5452 115.468 58.3842C115.977 58.2167 116.459 57.9783 116.91 57.6627C117.36 57.347 117.772 56.9734 118.146 56.5353C118.519 56.0973 118.841 55.627 119.111 55.1116L119.336 55.2469C118.738 56.4194 117.927 57.3213 116.903 57.9526C115.88 58.5839 114.754 58.8996 113.525 58.8996C112.682 58.8996 111.877 58.7514 111.111 58.4486C110.346 58.1458 109.676 57.74 109.103 57.2311C108.531 56.7221 108.093 56.1166 107.778 55.4273C107.462 54.738 107.308 53.9843 107.308 53.1726V41.7186C107.308 40.9327 107.462 40.1854 107.778 39.4832Z" fill="#F7D39F"/>
<path d="M131.139 55.7816H131.049C130.721 56.8059 130.219 57.5789 129.537 58.1007C128.861 58.629 128.101 58.8931 127.265 58.8931C126.602 58.8931 125.965 58.7514 125.347 58.4615C124.729 58.178 124.189 57.7786 123.725 57.2697C123.262 56.7608 122.882 56.1617 122.599 55.4853C122.316 54.8088 122.168 54.1067 122.168 53.3916V41.622C122.168 40.8683 122.309 40.1468 122.599 39.4575C122.882 38.7682 123.268 38.1562 123.751 37.6344C124.234 37.1061 124.781 36.6938 125.392 36.3975C126.01 36.0947 126.66 35.9466 127.349 35.9466C128.159 35.9466 128.893 36.2042 129.556 36.7132C130.219 37.2221 130.714 37.9758 131.043 38.9679H131.133V27.063H133.881V58.5839H131.133V55.7816H131.139ZM130.843 38.9872C130.65 38.459 130.393 37.9951 130.077 37.5893C129.762 37.1834 129.401 36.8613 128.996 36.623C128.591 36.3846 128.166 36.2622 127.709 36.2622C126.956 36.2622 126.319 36.5972 125.798 37.2736C125.27 37.95 125.006 38.8004 125.006 39.8247V54.9763C125.006 55.9684 125.263 56.8123 125.772 57.5016C126.28 58.1909 126.943 58.5388 127.754 58.5388C128.172 58.5388 128.584 58.4164 128.99 58.178C129.395 57.9397 129.762 57.6111 130.09 57.2117C130.418 56.8059 130.676 56.3421 130.856 55.8138C131.036 55.2856 131.126 54.7509 131.126 54.2162V40.6428C131.139 40.0566 131.043 39.509 130.843 38.9872Z" fill="#F7D39F"/>
<path d="M138.122 30.3935C138.424 30.0907 138.81 29.9426 139.293 29.9426C139.776 29.9426 140.162 30.0907 140.464 30.3935C140.767 30.6963 140.915 31.0699 140.915 31.5209C140.915 32.004 140.767 32.3906 140.464 32.6933C140.162 32.9961 139.776 33.1443 139.293 33.1443C138.81 33.1443 138.424 32.9961 138.122 32.6933C137.819 32.3906 137.671 32.004 137.671 31.5209C137.671 31.0699 137.819 30.6963 138.122 30.3935ZM140.645 36.2558V58.5774H137.897V36.2558H140.645Z" fill="#F7D39F"/>
<path d="M144.203 52.0839C144.203 51.3302 144.39 50.628 144.77 49.9644C145.143 49.3009 145.709 48.7018 146.456 48.1607C147.209 47.6195 148.136 47.1364 149.249 46.7176C150.362 46.2989 151.669 45.9188 153.168 45.5903V40.4045C153.168 39.174 152.834 38.1884 152.151 37.454C151.476 36.7196 150.613 36.3524 149.564 36.3524C149.204 36.3524 148.824 36.3975 148.419 36.4877C148.013 36.5779 147.621 36.7132 147.248 36.8935C146.874 37.0739 146.52 37.2736 146.186 37.4991C145.857 37.7246 145.587 37.9694 145.375 38.2464L145.15 38.066C145.42 37.7632 145.742 37.4798 146.115 37.2092C146.488 36.9386 146.894 36.7132 147.331 36.5328C147.769 36.3524 148.226 36.2107 148.702 36.1012C149.185 35.9981 149.68 35.9401 150.189 35.9401C151 35.9401 151.759 36.0818 152.467 36.3717C153.175 36.6552 153.786 37.0546 154.314 37.5635C154.842 38.0724 155.253 38.6844 155.549 39.3866C155.852 40.0952 156 40.8361 156 41.622V58.5774H153.162V56.2325H153.072C152.563 57.0442 151.855 57.6885 150.954 58.1716C150.053 58.6548 149.14 58.8931 148.206 58.8931C147.634 58.8931 147.106 58.7772 146.61 58.5517C146.115 58.3262 145.697 58.0041 145.349 57.5854C145.001 57.1666 144.725 56.6513 144.519 56.0522C144.306 55.4531 144.203 54.8024 144.203 54.1131V52.0839ZM151.521 57.4759C152.229 56.9798 152.776 56.3549 153.168 55.6012V45.8609C152.235 46.0735 151.386 46.3505 150.62 46.6983C149.854 47.0462 149.21 47.4392 148.683 47.8901C148.155 48.341 147.75 48.8371 147.466 49.3782C147.183 49.9193 147.035 50.4927 147.035 51.0918V54.6542C147.035 55.7365 147.254 56.5997 147.692 57.2439C148.129 57.8882 148.721 58.2103 149.474 58.2103C150.131 58.2167 150.819 57.9719 151.521 57.4759Z" fill="#F7D39F"/>
<path d="M70.5476 26.7409H73.2956V58.2618H70.5476V26.7409Z" fill="#F7D39F"/>
<path fill-rule="evenodd" clip-rule="evenodd" d="M86.3856 23.988C87.1515 23.988 87.7757 23.6401 88.194 23.0861H92.2099L92.6282 23.5048V65.0753L94.0183 68L95.4084 65.0753V23.5048C95.55 23.3631 95.6851 23.2278 95.8267 23.0861H99.3792C99.7267 23.6401 100.422 23.988 101.117 23.988C102.301 23.988 103.273 23.0152 103.273 21.8299C103.273 20.6446 102.301 19.7427 101.117 19.7427C100.493 19.7427 99.8683 20.0197 99.45 20.5093H95.6851C95.6143 20.3676 95.5436 20.3031 95.4084 20.2323V15.259C95.8975 14.9112 96.1743 14.2863 96.1743 13.6614C96.1743 12.4761 95.2025 11.5033 94.0183 11.5033C92.8342 11.5033 91.8624 12.4761 91.8624 13.6614C91.8624 14.2863 92.1391 14.9112 92.6282 15.259V20.2323C92.4866 20.3031 92.4223 20.374 92.3515 20.5093H88.1297C87.9881 20.5093 87.4346 19.7427 86.3921 19.7427C85.2079 19.7427 84.2361 20.6446 84.2361 21.8299C84.2361 23.0152 85.2079 23.988 86.3856 23.988Z" fill="#F7D39F"/>
</svg>
