<svg width="237" height="63" viewBox="0 0 237 63" fill="none" xmlns="http://www.w3.org/2000/svg">
<path fill-rule="evenodd" clip-rule="evenodd" d="M6.26999 26.5191C5.98414 26.7873 5.64313 26.9921 5.26999 27.1195C4.88869 27.2709 4.48114 27.3478 4.07001 27.346C3.40277 27.3378 2.74491 27.1902 2.14001 26.9128C1.47568 26.6095 0.87784 26.1815 0.380004 25.6528L0.22 25.8497C0.792249 26.4193 1.47151 26.874 2.22 27.1884C2.97138 27.4946 3.77677 27.6519 4.58999 27.6511C5.23634 27.6564 5.87886 27.5532 6.48999 27.346C7.06153 27.1515 7.59321 26.8581 8.06 26.4797C8.48514 26.1114 8.82599 25.6584 9.06 25.1508C9.3169 24.6397 9.45039 24.0771 9.45001 23.5069C9.44549 22.9813 9.34381 22.461 9.14999 21.9713C8.92445 21.4172 8.63238 20.8918 8.28 20.4061L3.51001 13.6336C3.19569 13.1922 2.92763 12.7206 2.70999 12.2259C2.52862 11.8158 2.43338 11.3739 2.42999 10.9266C2.42753 10.5431 2.50943 10.1636 2.67001 9.81425C2.83032 9.46346 3.06171 9.14859 3.35 8.88893C3.6411 8.62745 3.98061 8.42354 4.35 8.28842C4.77314 8.13849 5.22035 8.06515 5.67001 8.07189C6.19901 8.06481 6.72342 8.16917 7.20807 8.378C7.69272 8.58683 8.12641 8.89528 8.48001 9.28265L8.69 9.12517C7.95398 8.45885 7.04506 8.00597 6.06378 7.8166C5.0825 7.62723 4.06712 7.70874 3.13 8.05218C2.55834 8.25806 2.02967 8.56501 1.57001 8.95785C1.14874 9.32963 0.80854 9.78171 0.570006 10.2867C0.319872 10.7928 0.189923 11.3482 0.190001 11.911C0.192743 12.4108 0.280639 12.9065 0.450011 13.3777C0.640086 13.8996 0.902571 14.3932 1.23001 14.8444L5.64001 20.9574C6.0803 21.5236 6.4465 22.142 6.73001 22.7982C6.95772 23.3178 7.07999 23.8762 7.08999 24.442C7.09161 24.8318 7.00985 25.2175 6.85 25.5741C6.71874 25.9222 6.52195 26.2428 6.26999 26.5191Z" fill="black"/>
<path fill-rule="evenodd" clip-rule="evenodd" d="M23.4 21.9319L23.16 23.0738H23.08L22.8 21.9319L19.83 7.99314H17.3L18.38 13.0036L16.54 21.9319L16.3 23.0738H16.22L13.01 7.99314H10.48L14.81 27.3755H15.62L18.3 15.0806L18.5 13.9092H18.58L18.86 15.0413L21.63 27.3755H22.47L26.61 7.99314H26.29L23.4 21.9319Z" fill="black"/>
<path fill-rule="evenodd" clip-rule="evenodd" d="M38.8 12.728C38.8058 12.0496 38.6625 11.378 38.38 10.7592C38.1057 10.1562 37.7151 9.61128 37.23 9.15467C36.7419 8.69829 36.1723 8.33457 35.55 8.08173C34.9008 7.81535 34.2034 7.68137 33.5 7.68796C32.8133 7.68557 32.133 7.81952 31.5 8.08173C30.2266 8.57372 29.1973 9.53385 28.63 10.7592C28.3462 11.3776 28.2029 12.0494 28.21 12.728V22.6702C28.2072 23.3345 28.3577 23.9909 28.65 24.5897C28.9368 25.1845 29.3374 25.7193 29.83 26.1647C30.3425 26.614 30.9271 26.9765 31.56 27.2376C32.1914 27.5074 32.8718 27.6481 33.56 27.6511C34.9432 27.6546 36.2735 27.1286 37.27 26.1844C37.7373 25.7231 38.1166 25.183 38.39 24.5897C38.6712 23.9879 38.8147 23.3326 38.81 22.6702L38.8 12.728ZM36.31 24.2452C36.3673 25.0893 36.1114 25.9253 35.59 26.5978C35.3384 26.8707 35.0286 27.0854 34.6829 27.2266C34.3371 27.3679 33.9639 27.4322 33.59 27.4149C33.2021 27.4346 32.8146 27.3698 32.4551 27.2252C32.0955 27.0806 31.7728 26.8596 31.51 26.5781C30.9689 25.9216 30.6977 25.089 30.75 24.2452V11.1628C30.701 10.3163 30.9716 9.48187 31.51 8.82001C31.7767 8.54882 32.096 8.33318 32.4491 8.18591C32.8021 8.03864 33.1816 7.96271 33.565 7.96271C33.9484 7.96271 34.3279 8.03864 34.6809 8.18591C35.034 8.33318 35.3534 8.54882 35.62 8.82001C36.1492 9.49329 36.4122 10.3327 36.36 11.1825L36.31 24.2452Z" fill="black"/>
<path fill-rule="evenodd" clip-rule="evenodd" d="M43.89 13.3186C43.9907 12.7727 44.1906 12.2492 44.48 11.7731C44.7576 11.3133 45.1246 10.9119 45.56 10.5919C45.9939 10.2717 46.4812 10.0285 47 9.8733C47.5413 9.71609 48.1082 9.66259 48.67 9.71576V7.74702C48.1336 7.73959 47.6007 7.83317 47.1 8.02267C46.623 8.20508 46.1877 8.47953 45.82 8.82986C45.4259 9.21792 45.0893 9.65861 44.82 10.139C44.4937 10.7096 44.2322 11.3137 44.04 11.9405H43.92V8.00296H41.52V27.3952H43.92L43.89 13.3186Z" fill="black"/>
<path fill-rule="evenodd" clip-rule="evenodd" d="M53.1 27.2771C53.6308 27.5263 54.212 27.6542 54.8 27.6511C55.5264 27.6493 56.231 27.4066 56.8 26.962C57.4415 26.4568 57.9093 25.7694 58.14 24.9933H58.22V27.4247H60.72V0H58.28V10.3458H58.2C57.9662 9.57356 57.5031 8.88788 56.87 8.37704C56.3006 7.93677 55.594 7.70379 54.87 7.71753C54.2681 7.71498 53.6732 7.84623 53.13 8.10145C52.5749 8.36778 52.0762 8.73517 51.66 9.18424C51.2342 9.64652 50.8955 10.1798 50.66 10.7592C50.4015 11.3533 50.2688 11.9931 50.27 12.6394V22.8671C50.2761 23.4936 50.4086 24.1126 50.66 24.6881C50.9022 25.2552 51.2404 25.7778 51.66 26.2336C52.0628 26.6744 52.5528 27.0294 53.1 27.2771ZM52.8 11.0939C52.7663 10.2982 53.0137 9.51553 53.5 8.87908C53.6911 8.60942 53.9453 8.389 54.2412 8.23651C54.5372 8.08402 54.866 8.00392 55.2 8.00297C55.6043 8.00018 56.0019 8.10566 56.35 8.30813C56.7366 8.52294 57.0764 8.81058 57.35 9.15468C57.6428 9.51873 57.8725 9.92785 58.03 10.3655C58.2075 10.8208 58.2958 11.3052 58.29 11.7929V23.6054C58.2884 24.0779 58.2073 24.5468 58.05 24.9933C57.8965 25.4347 57.6627 25.845 57.36 26.2041C57.0821 26.5414 56.743 26.8251 56.36 27.0408C56.029 27.2418 55.6488 27.3507 55.26 27.3558C54.9145 27.3597 54.5735 27.2801 54.2666 27.1239C53.9597 26.9677 53.6965 26.7397 53.5 26.46C53.037 25.8205 52.7982 25.0499 52.82 24.2649L52.8 11.0939Z" fill="black"/>
<path fill-rule="evenodd" clip-rule="evenodd" d="M10.5 49.1105C10.1762 49.4822 9.80669 49.8129 9.39998 50.0948C9.00621 50.3642 8.57513 50.5764 8.11998 50.7249C7.68955 50.8585 7.2413 50.9281 6.79 50.9315C6.32312 50.9339 5.86053 50.8436 5.42998 50.6658C5.01707 50.491 4.64834 50.2289 4.35 49.898C4.03991 49.5534 3.80201 49.152 3.64998 48.7167C3.47088 48.2615 3.37934 47.7775 3.37999 47.2894V41.1371H11.49V36.2152C11.4958 35.5368 11.3525 34.8652 11.07 34.2464C10.7922 33.6453 10.4021 33.101 9.92 32.6419C9.43185 32.1855 8.86228 31.8217 8.23998 31.5689C6.9486 31.0313 5.49523 31.0102 4.18831 31.5101C2.88139 32.01 1.8238 32.9916 1.23998 34.2464C0.948345 34.8626 0.801385 35.5355 0.809987 36.2152V46.1672C0.803207 46.8334 0.942657 47.4931 1.2188 48.1013C1.49494 48.7096 1.90127 49.2519 2.40999 49.6913C3.5053 50.6219 4.90314 51.1352 6.35 51.1383C7.40722 51.1421 8.44512 50.8594 9.35 50.3212C10.2778 49.7494 11.0256 48.9349 11.51 47.9686L11.31 47.8504C11.0882 48.2987 10.8165 48.7213 10.5 49.1105ZM3.37999 34.6697C3.33222 33.8187 3.60654 32.9805 4.14998 32.317C4.41578 32.0461 4.73428 31.8307 5.08648 31.6835C5.43868 31.5364 5.81739 31.4605 6.2 31.4605C6.58261 31.4605 6.9613 31.5364 7.3135 31.6835C7.6657 31.8307 7.98419 32.0461 8.24999 32.317C8.78489 32.9912 9.04836 33.8359 8.98998 34.6894V40.9106H3.37999V34.6697Z" fill="black"/>
<path fill-rule="evenodd" clip-rule="evenodd" d="M23.53 32.3368C23.1639 31.9796 22.7286 31.6984 22.25 31.5099C21.7597 31.3184 21.2375 31.2183 20.71 31.2146C19.8092 31.1959 18.9343 31.5122 18.26 32.1005C17.5022 32.8275 16.9506 33.737 16.66 34.7386H16.58V31.4902H14.13V50.8725H16.58V36.225C16.5778 35.6452 16.6759 35.0694 16.87 34.522C17.0623 33.9869 17.3281 33.4802 17.66 33.016C17.9612 32.5974 18.3415 32.2398 18.78 31.9627C19.1755 31.7079 19.6374 31.5711 20.11 31.5689C20.3982 31.5633 20.6834 31.6267 20.9412 31.7535C21.199 31.8804 21.4216 32.067 21.59 32.2973C21.9871 32.8772 22.1835 33.5676 22.15 34.2661V50.8331H24.72V35.0831C24.7196 34.5467 24.6143 34.0153 24.41 33.518C24.201 33.0696 23.9016 32.6678 23.53 32.3368Z" fill="black"/>
<path fill-rule="evenodd" clip-rule="evenodd" d="M37.23 49.2385C36.9054 49.5715 36.5391 49.8626 36.14 50.1047C35.7542 50.3483 35.3372 50.5403 34.9 50.6757C34.4722 50.805 34.0274 50.8713 33.58 50.8725C33.1296 50.8914 32.6806 50.813 32.2642 50.643C31.8479 50.4729 31.4745 50.2153 31.17 49.8881C30.5347 49.1554 30.2059 48.2124 30.25 47.25V35.0044C30.2027 34.0789 30.5015 33.1684 31.09 32.445C31.365 32.1242 31.7103 31.8689 32.1001 31.6983C32.4898 31.5278 32.9137 31.4466 33.34 31.4607C34.0745 31.4719 34.7978 31.6398 35.46 31.9529C36.1289 32.2401 36.7313 32.6588 37.23 33.1833L37.39 33.0258C36.8247 32.4504 36.1435 31.9977 35.39 31.6969C34.6221 31.3599 33.7908 31.1855 32.95 31.185C32.2579 31.1744 31.5708 31.3014 30.9299 31.5585C30.2889 31.8156 29.7074 32.1975 29.22 32.6813C28.7387 33.15 28.3578 33.709 28.1 34.3252C27.834 34.9488 27.6947 35.6176 27.69 36.2939V45.9703C27.6831 46.6711 27.8262 47.3653 28.11 48.008C28.3847 48.6224 28.7748 49.1802 29.26 49.6519C29.7441 50.1346 30.3318 50.5046 30.98 50.7347C31.6746 50.987 32.4097 51.1137 33.15 51.1088C34.2027 51.1295 35.2408 50.8638 36.15 50.341C37.0387 49.8304 37.7738 49.0967 38.28 48.2147L38.08 48.0966C37.8474 48.5114 37.5618 48.8952 37.23 49.2385Z" fill="black"/>
<path fill-rule="evenodd" clip-rule="evenodd" d="M45.46 45.9014L45.14 47.0433H45.06L44.78 45.9014L41.29 31.4902H38.76L43.65 50.8824H44.09L42.45 57.7336H42.77L49.15 31.4902H48.83L45.46 45.9014Z" fill="black"/>
<path fill-rule="evenodd" clip-rule="evenodd" d="M60.21 49.2385C59.8869 49.5691 59.5242 49.86 59.13 50.1047C58.7442 50.3483 58.3272 50.5403 57.89 50.6757C57.4588 50.805 57.0108 50.8712 56.56 50.8725C56.1112 50.8913 55.6636 50.8129 55.2489 50.6428C54.8343 50.4727 54.4625 50.2151 54.16 49.8881C53.5175 49.1589 53.1845 48.2143 53.23 47.25V35.0044C53.1818 34.0771 53.4846 33.1652 54.08 32.445C54.3535 32.1249 54.6971 31.87 55.0851 31.6995C55.4731 31.529 55.8953 31.4474 56.32 31.4607C57.0577 31.472 57.7842 31.6399 58.45 31.9528C59.1161 32.24 59.7151 32.6589 60.21 33.1833L60.37 33.0258C59.8056 32.4495 59.1241 31.9967 58.37 31.6969C57.5985 31.3602 56.764 31.1858 55.92 31.185C55.2137 31.1814 54.5136 31.3152 53.86 31.5788C53.2397 31.8376 52.676 32.212 52.2 32.6813C51.7125 33.1469 51.3278 33.7065 51.07 34.3252C50.8026 34.948 50.6665 35.6178 50.67 36.2939V45.9703C50.66 46.6703 50.7997 47.3646 51.08 48.008C51.3583 48.6204 51.7481 49.1775 52.23 49.6519C52.7162 50.1369 53.3076 50.5071 53.96 50.7347C54.6513 50.9862 55.3831 51.1129 56.12 51.1087C57.1727 51.129 58.2107 50.8634 59.12 50.341C60.0033 49.8235 60.7368 49.0914 61.25 48.2147L61.04 48.0966C60.8137 48.5103 60.5347 48.894 60.21 49.2385Z" fill="black"/>
<path fill-rule="evenodd" clip-rule="evenodd" d="M77.95 32.6813C76.9428 31.741 75.6081 31.2162 74.22 31.2146C73.5338 31.2181 72.8548 31.3517 72.22 31.6083C71.5909 31.8596 71.0145 32.2234 70.52 32.6813C70.0257 33.1344 69.628 33.6798 69.35 34.2858C69.0713 34.9058 68.9282 35.5766 68.93 36.2545V46.2066C68.9268 46.8721 69.0808 47.5293 69.38 48.1261C69.6549 48.7061 70.0422 49.2277 70.52 49.6617C71.0278 50.1122 71.6094 50.475 72.24 50.7347C72.8713 51.0045 73.5518 51.1451 74.24 51.1481C74.9434 51.1547 75.6407 51.0208 76.29 50.7544C76.9114 50.511 77.4761 50.146 77.95 49.6814C78.4193 49.2256 78.799 48.6883 79.07 48.0965C79.3551 47.496 79.4987 46.8399 79.49 46.1771V36.225C79.5011 35.5461 79.3575 34.8734 79.07 34.2562C78.7984 33.6678 78.4187 33.1339 77.95 32.6813ZM77.03 47.752C77.0837 48.5943 76.8243 49.4271 76.3 50.0949C76.0493 50.3695 75.74 50.5861 75.3942 50.729C75.0484 50.872 74.6747 50.9378 74.3 50.9218C73.9109 50.9389 73.5227 50.873 73.1619 50.7286C72.8012 50.5842 72.4764 50.3646 72.21 50.085C71.6714 49.4271 71.4006 48.5956 71.45 47.752V34.6697C71.3994 33.82 71.6701 32.9819 72.21 32.317C72.4578 32.0363 72.7656 31.8131 73.1114 31.6633C73.4572 31.5135 73.8323 31.441 74.21 31.4508C74.5972 31.4317 74.9839 31.4978 75.342 31.6442C75.7001 31.7906 76.0205 32.0137 76.28 32.2973C76.8107 32.9736 77.0737 33.8168 77.02 34.6697L77.03 47.752Z" fill="black"/>
<path fill-rule="evenodd" clip-rule="evenodd" d="M91.83 32.632C91.4327 32.1921 90.9454 31.8399 90.4 31.5985C89.8567 31.3432 89.262 31.212 88.66 31.2145C87.9337 31.2171 87.2294 31.4597 86.66 31.9036C86.0128 32.4135 85.5299 33.0974 85.27 33.8724V48.4804H85.35C85.6028 49.2537 86.0789 49.9378 86.72 50.4492C87.2885 50.8923 87.9949 51.1287 88.72 51.1186C89.3133 51.1195 89.8987 50.9847 90.43 50.7248C90.9801 50.4594 91.4751 50.0955 91.89 49.6519C92.3146 49.1776 92.6529 48.6348 92.89 48.0473C93.1413 47.4548 93.2705 46.8191 93.27 46.177V35.9986C93.2684 35.3726 93.1392 34.7534 92.89 34.1775C92.6251 33.6087 92.267 33.0865 91.83 32.632ZM90.72 47.7914C90.7442 48.5829 90.4899 49.3584 90 49.9866C89.8068 50.2602 89.5498 50.4843 89.2506 50.6402C88.9513 50.796 88.6185 50.879 88.28 50.8823C87.8717 50.8837 87.4719 50.7674 87.13 50.5477C86.7454 50.326 86.4063 50.0355 86.13 49.6913C85.8455 49.3254 85.6165 48.9209 85.45 48.4903C85.2726 48.0418 85.1843 47.5639 85.19 47.0826V35.2701C85.1909 34.7944 85.272 34.322 85.43 33.8724C85.584 33.4332 85.8141 33.0235 86.11 32.6615C86.3905 32.3266 86.7291 32.0434 87.11 31.8248C87.5768 31.543 88.1349 31.4462 88.6714 31.5541C89.2079 31.6619 89.6828 31.9662 90 32.4056C90.4784 33.0385 90.7251 33.8123 90.7 34.6008L90.72 47.7914Z" fill="black"/>
<path fill-rule="evenodd" clip-rule="evenodd" d="M105.45 49.1105C105.126 49.4823 104.757 49.8129 104.35 50.0949C103.954 50.3668 103.519 50.5791 103.06 50.7249C102.633 50.8591 102.188 50.9288 101.74 50.9316C101.273 50.9339 100.811 50.8436 100.38 50.6658C99.9655 50.4888 99.594 50.227 99.29 49.898C98.9869 49.5485 98.7498 49.1485 98.59 48.7167C98.4182 48.2599 98.3301 47.7766 98.33 47.2894V41.1371H106.43V36.2152C106.436 35.5368 106.293 34.8652 106.01 34.2465C105.736 33.6435 105.345 33.0985 104.86 32.6419C104.372 32.1856 103.802 31.8218 103.18 31.5689C101.869 31.0442 100.401 31.0442 99.09 31.5689C97.8166 32.0609 96.7874 33.0211 96.22 34.2465C95.9362 34.8648 95.7929 35.5367 95.8 36.2152V46.1672C95.7932 46.8334 95.9327 47.4932 96.2088 48.1014C96.485 48.7096 96.8913 49.2519 97.4 49.6913C98.4904 50.6235 99.8858 51.1373 101.33 51.1383C102.388 51.1452 103.426 50.8623 104.33 50.3213C105.26 49.7497 106.012 48.9353 106.5 47.9687L106.3 47.8505C106.066 48.3006 105.78 48.7233 105.45 49.1105ZM98.33 34.6697C98.2794 33.82 98.5501 32.982 99.09 32.3171C99.3567 32.0459 99.676 31.8302 100.029 31.683C100.382 31.5357 100.762 31.4598 101.145 31.4598C101.528 31.4598 101.908 31.5357 102.261 31.683C102.614 31.8302 102.933 32.0459 103.2 32.3171C103.731 32.9934 103.994 33.8364 103.94 34.6894V40.9106H98.33V34.6697Z" fill="black"/>
<path fill-rule="evenodd" clip-rule="evenodd" d="M117.01 33.8527H116.93C116.705 33.0791 116.244 32.392 115.61 31.8839C115.041 31.4416 114.335 31.2052 113.61 31.2146C113.007 31.2112 112.411 31.346 111.87 31.6083C111.318 31.8703 110.822 32.2346 110.41 32.6813C109.986 33.1484 109.647 33.6846 109.41 34.2661C109.159 34.8622 109.03 35.5011 109.03 36.1463V46.3641C109.033 46.9899 109.162 47.609 109.41 48.1852C109.648 48.7545 109.986 49.2777 110.41 49.7306C110.813 50.1716 111.303 50.5267 111.85 50.7741C112.386 51.0189 112.969 51.1465 113.56 51.1481C114.286 51.1441 114.99 50.9016 115.56 50.4591C116.214 49.9423 116.686 49.2364 116.91 48.4411H116.98V50.8725H119.43V23.5069H116.98L117.01 33.8527ZM117.01 47.0925C117.008 47.565 116.927 48.034 116.77 48.4805C116.621 48.9239 116.387 49.335 116.08 49.6913C115.805 50.0342 115.466 50.3216 115.08 50.5378C114.748 50.7358 114.368 50.8413 113.98 50.843C113.634 50.8487 113.292 50.7698 112.985 50.6134C112.678 50.4571 112.415 50.2282 112.22 49.9472C111.756 49.3083 111.517 48.5373 111.54 47.752V34.591C111.509 33.7955 111.756 33.0137 112.24 32.3761C112.431 32.1064 112.685 31.886 112.981 31.7335C113.277 31.581 113.606 31.5009 113.94 31.5C114.345 31.5007 114.743 31.6095 115.09 31.815C115.476 32.0261 115.816 32.3104 116.09 32.6517C116.366 33.0367 116.578 33.4619 116.72 33.9117C116.902 34.3692 116.991 34.8577 116.98 35.3489L117.01 47.0925Z" fill="black"/>
<path fill-rule="evenodd" clip-rule="evenodd" d="M124.28 26.0368C124.095 26.033 123.911 26.066 123.739 26.1336C123.568 26.2012 123.411 26.3023 123.28 26.4305C123.147 26.5583 123.042 26.7116 122.971 26.8809C122.901 27.0502 122.866 27.232 122.87 27.4149C122.868 27.5976 122.903 27.7788 122.974 27.9479C123.044 28.117 123.148 28.2705 123.28 28.3993C123.411 28.5275 123.568 28.6285 123.739 28.6961C123.911 28.7638 124.095 28.7967 124.28 28.793C124.471 28.8028 124.662 28.7732 124.84 28.7061C125.019 28.6389 125.181 28.5358 125.317 28.4032C125.452 28.2706 125.558 28.1115 125.628 27.9362C125.697 27.7609 125.729 27.5733 125.72 27.3853C125.726 27.203 125.693 27.0215 125.624 26.8522C125.555 26.6828 125.452 26.5292 125.32 26.401C125.181 26.2736 125.017 26.1755 124.838 26.1129C124.659 26.0502 124.469 26.0243 124.28 26.0368Z" fill="black"/>
<path d="M125.49 31.4902H123.04V50.8824H125.49V31.4902Z" fill="black"/>
<path fill-rule="evenodd" clip-rule="evenodd" d="M137.65 32.6321C137.177 32.1851 136.62 31.8339 136.01 31.5985C135.375 31.3439 134.696 31.2135 134.01 31.2146C133.566 31.2188 133.124 31.2682 132.69 31.3622C132.272 31.4496 131.864 31.5748 131.47 31.7362C131.087 31.8923 130.722 32.0869 130.38 32.3171C130.067 32.5354 129.779 32.7862 129.52 33.0652L129.72 33.2227C129.924 32.9671 130.171 32.7475 130.45 32.573C130.747 32.3723 131.062 32.1977 131.39 32.0513C132.034 31.7489 132.737 31.5877 133.45 31.5788C133.884 31.5683 134.316 31.6509 134.715 31.8209C135.114 31.9909 135.47 32.2441 135.76 32.5631C136.389 33.2675 136.712 34.1863 136.66 35.1225V39.631C135.475 39.8792 134.309 40.2082 133.17 40.6153C132.291 40.9261 131.457 41.3498 130.69 41.8754C130.076 42.2787 129.563 42.8138 129.19 43.4405C128.854 43.9972 128.677 44.6335 128.68 45.2813V47.0433C128.673 47.6162 128.768 48.1858 128.96 48.7266C129.125 49.2092 129.375 49.6593 129.7 50.0555C130.003 50.4175 130.386 50.7069 130.82 50.9021C131.268 51.0941 131.751 51.1946 132.24 51.1974C133.098 51.1939 133.94 50.9772 134.69 50.5673C135.457 50.1764 136.108 49.5965 136.58 48.8841H136.66V50.9218H139.19V36.1561C139.196 35.4787 139.057 34.8077 138.78 34.1874C138.516 33.598 138.131 33.0685 137.65 32.6321ZM136.65 48.2934C136.307 48.9475 135.805 49.5087 135.19 49.9275C134.661 50.3199 134.022 50.5401 133.36 50.5575C133.045 50.5652 132.734 50.4921 132.457 50.3454C132.18 50.1987 131.947 49.9834 131.78 49.7208C131.359 49.0479 131.153 48.2659 131.19 47.4765V44.3756C131.19 43.8557 131.324 43.3442 131.58 42.8892C131.851 42.3943 132.218 41.9563 132.66 41.5997C133.183 41.1926 133.762 40.8612 134.38 40.6153C135.11 40.2993 135.871 40.0553 136.65 39.8869V48.2934Z" fill="black"/>
<path d="M65.52 23.2214H63.07V50.5969H65.52V23.2214Z" fill="black"/>
<path fill-rule="evenodd" clip-rule="evenodd" d="M85.2 20.4159L85.58 20.0517H88.72C88.8933 20.2977 89.1252 20.4981 89.3954 20.6354C89.6656 20.7727 89.9659 20.8427 90.27 20.8392C90.7775 20.8392 91.2643 20.6415 91.6241 20.2892C91.9839 19.9368 92.1873 19.4586 92.19 18.9591C92.1861 18.7156 92.1332 18.4754 92.0344 18.2522C91.9355 18.029 91.7927 17.8274 91.6141 17.6589C91.4355 17.4905 91.2248 17.3586 90.994 17.2708C90.7633 17.1831 90.5172 17.1413 90.27 17.1478C89.9877 17.1495 89.709 17.2101 89.4522 17.3255C89.1954 17.4409 88.9663 17.6085 88.78 17.8172H85.43C85.3792 17.7085 85.2905 17.6212 85.18 17.5711V13.2399C85.3962 13.0774 85.5705 12.867 85.6886 12.6259C85.8068 12.3847 85.8655 12.1196 85.86 11.8519C85.825 11.3755 85.6081 10.9297 85.2528 10.6044C84.8975 10.279 84.4302 10.0982 83.945 10.0982C83.4597 10.0982 82.9925 10.279 82.6372 10.6044C82.282 10.9297 82.065 11.3755 82.03 11.8519C82.0257 12.1204 82.0859 12.3861 82.2058 12.6273C82.3258 12.8685 82.502 13.0784 82.72 13.2399V17.5514C82.6095 17.6015 82.5209 17.6888 82.47 17.7975H78.72C78.29 17.416 77.7464 17.1813 77.17 17.1281C76.9228 17.1216 76.6767 17.1634 76.446 17.2511C76.2152 17.3389 76.0045 17.4707 75.8259 17.6392C75.6473 17.8077 75.5045 18.0093 75.4056 18.2325C75.3068 18.4557 75.2539 18.6959 75.25 18.9394C75.2527 19.4389 75.4561 19.9171 75.8159 20.2694C76.1757 20.6218 76.6625 20.8196 77.17 20.8196C77.4822 20.8211 77.7904 20.7506 78.07 20.6139C78.3495 20.4771 78.5927 20.2779 78.78 20.0321H82.35L82.73 20.3963V56.5524L83.97 59.0921L85.2 56.5524V20.4159Z" fill="black"/>
<path fill-rule="evenodd" clip-rule="evenodd" d="M232.87 8.02267H147.41C145.25 10.2867 141.82 15.5827 143.58 23.8809C141.48 16.823 142.14 10.4737 146.05 6.46734C147.41 5.08673 149.082 4.04129 150.93 3.4158C147.779 3.46466 144.755 4.64832 142.43 6.74299C134.95 13.8403 138.95 29.8758 151.36 42.5546C156.488 47.9745 162.854 52.1147 169.93 54.6328C167.932 53.5187 166.005 52.286 164.16 50.9414H232.87C233.899 50.9414 234.886 50.539 235.614 49.8227C236.341 49.1065 236.75 48.135 236.75 47.122V11.842C236.75 10.8291 236.341 9.8576 235.614 9.14133C234.886 8.42506 233.899 8.02267 232.87 8.02267ZM222.87 18.1027C223.233 17.7641 223.71 17.568 224.21 17.5514C224.455 17.5554 224.696 17.6131 224.916 17.7204C225.136 17.8276 225.328 17.9818 225.48 18.1716C225.824 18.5282 226.021 18.9987 226.03 19.4906C226.02 19.7246 225.961 19.9541 225.856 20.1643C225.751 20.3745 225.602 20.5608 225.42 20.7113C225.246 20.8951 225.035 21.0422 224.801 21.1437C224.568 21.2452 224.316 21.299 224.06 21.3019C223.816 21.2939 223.576 21.2344 223.357 21.1275C223.138 21.0205 222.944 20.8685 222.79 20.6817C222.434 20.3232 222.23 19.8444 222.22 19.343C222.228 19.1007 222.292 18.8635 222.406 18.6487C222.521 18.434 222.682 18.2474 222.88 18.1027H222.87ZM193.08 18.1027C193.443 17.7641 193.92 17.568 194.42 17.5514C194.669 17.5498 194.916 17.6038 195.141 17.7095C195.366 17.8153 195.564 17.9699 195.72 18.1617C196.064 18.5183 196.261 18.9889 196.27 19.4808C196.26 19.7148 196.201 19.9443 196.096 20.1544C195.991 20.3646 195.842 20.5509 195.66 20.7014C195.486 20.8862 195.276 21.0339 195.042 21.1355C194.808 21.237 194.556 21.2903 194.3 21.292C194.056 21.2841 193.816 21.2246 193.597 21.1176C193.378 21.0106 193.184 20.8586 193.03 20.6719C192.674 20.3134 192.47 19.8346 192.46 19.3331C192.466 19.095 192.526 18.8611 192.635 18.6484C192.744 18.4356 192.899 18.2493 193.09 18.1027H193.08ZM188.7 18.9C187.925 18.8856 187.164 19.1055 186.52 19.53C186.009 19.9644 185.632 20.5302 185.43 21.1641L177.94 41.3733C177.891 41.6059 177.768 41.8167 177.588 41.9746C177.407 42.1324 177.18 42.2288 176.94 42.2493C176.665 42.2559 176.396 42.1682 176.179 42.0013C175.962 41.8343 175.81 41.5985 175.75 41.3339L171.29 28.0941C171.07 27.405 170.89 27.0604 170.77 27.0604C170.65 27.0604 170.44 27.3656 170.23 27.9858L164.93 41.3339C164.71 41.9245 164.36 42.2297 163.88 42.2493C163.607 42.255 163.341 42.1667 163.127 41.9995C162.914 41.8323 162.766 41.5969 162.71 41.3339L155.78 20.9475C155.606 20.3141 155.26 19.7391 154.78 19.2839C154.202 19.0158 153.569 18.8843 152.93 18.9C152.805 18.7072 152.752 18.4775 152.78 18.2503C152.757 18.0078 152.81 17.7642 152.93 17.5514L156.48 17.6302C157.66 17.6302 159.09 17.6302 160.76 17.5514C160.879 17.7609 160.932 18.0012 160.91 18.2405C160.934 18.4705 160.882 18.7021 160.76 18.9C160.35 18.9118 159.942 18.9579 159.54 19.0378C159.395 19.0623 159.258 19.1199 159.14 19.206C159.022 19.2921 158.926 19.4043 158.86 19.5335C158.794 19.6627 158.759 19.8055 158.759 19.9502C158.759 20.0949 158.794 20.2375 158.86 20.3667L164.57 37.6425H164.64L169.44 25.3083C169.608 24.8539 169.696 24.3744 169.7 23.8908C169.698 23.5349 169.633 23.182 169.51 22.8474L168.94 21.1247C168.741 20.5225 168.357 19.9961 167.84 19.6186C167.195 19.1638 166.424 18.9131 165.63 18.9C165.505 18.7072 165.452 18.4775 165.48 18.2503C165.457 18.0078 165.51 17.7642 165.63 17.5514C167.63 17.5514 168.93 17.6302 169.44 17.6302C170.14 17.6302 171.69 17.6302 174.08 17.5514C174.199 17.7609 174.252 18.0012 174.23 18.2405C174.254 18.4705 174.202 18.7021 174.08 18.9C173.72 18.9 173.46 18.9 173.3 18.9788C173.074 19.0155 172.853 19.0749 172.64 19.1559C172.537 19.179 172.439 19.2223 172.354 19.2831C172.268 19.344 172.195 19.4213 172.14 19.5103C172.09 19.6481 172.01 19.8548 171.93 20.1305C171.855 20.4667 171.912 20.8185 172.09 21.1148L177.58 37.7212H177.72L183.72 20.7211C183.787 20.5309 183.824 20.3317 183.83 20.1305C183.835 19.9766 183.811 19.823 183.76 19.6776C183.698 19.5395 183.588 19.4277 183.45 19.3626C183.316 19.282 183.176 19.2129 183.03 19.1559C182.852 19.0939 182.668 19.051 182.48 19.028L181.87 18.9591L181.21 18.9C181.136 18.8098 181.081 18.7058 181.048 18.5942C181.015 18.4826 181.006 18.3656 181.02 18.2503C180.997 18.0025 181.064 17.7546 181.21 17.5514C183.21 17.5514 184.64 17.6302 185.39 17.6302L188.7 17.5514C188.819 17.7614 188.875 18.0005 188.86 18.2405C188.894 18.4697 188.844 18.7032 188.72 18.9H188.7ZM198.63 41.8655C196.45 41.8064 195.05 41.7769 194.42 41.7769C193.79 41.7769 192.29 41.7769 190.14 41.8655C190.017 41.6681 189.964 41.4361 189.99 41.2059C189.969 40.9635 190.021 40.7203 190.14 40.507C190.955 40.5399 191.758 40.3119 192.43 39.8573C192.847 39.0074 193.006 38.0575 192.89 37.1208V29.8955C192.985 29.2099 192.833 28.5131 192.46 27.9267C191.858 27.5632 191.166 27.3723 190.46 27.3755C190.316 27.0389 190.291 26.6644 190.39 26.3124C192.157 26.1329 193.9 25.7699 195.59 25.2295C195.92 25.2295 196.09 25.3181 196.09 25.4855C196.098 25.5739 196.098 25.6629 196.09 25.7513C196.09 25.8694 196.09 26.1056 196.09 26.4501C196.09 26.7947 196.09 27.1294 196.09 27.4345C196.09 27.7397 196.09 28.1236 196.09 28.5469C196.09 28.9701 196.09 29.354 196.09 29.7084V37.1011C195.972 38.0411 196.131 38.9947 196.55 39.8475C197.211 40.3074 198.012 40.5329 198.82 40.4873C198.971 40.6881 199.039 40.938 199.01 41.1863C199.006 41.3199 198.97 41.4508 198.906 41.5686C198.842 41.6865 198.751 41.7881 198.64 41.8655H198.63ZM218.45 41.8655C216.93 41.8163 215.89 41.7867 215.33 41.7867C214.77 41.7867 213.99 41.7867 212.98 41.8655C212.91 41.8655 212.86 41.7966 212.83 41.6785C212.444 40.7217 211.911 39.8287 211.25 39.0305L208.47 35.3883C208.128 34.9173 207.713 34.5021 207.24 34.1578C206.705 34.0216 206.153 33.9554 205.6 33.9609V37.1503C205.508 38.0654 205.635 38.9891 205.97 39.8475C206.173 40.0638 206.421 40.2346 206.697 40.3484C206.973 40.4622 207.271 40.5163 207.57 40.507C207.719 40.7093 207.79 40.957 207.77 41.2059C207.787 41.3235 207.778 41.4433 207.743 41.5571C207.709 41.671 207.649 41.7761 207.57 41.8655L204.12 41.7769C203.53 41.7769 202.18 41.7769 200.05 41.8655C199.974 41.7741 199.919 41.6684 199.886 41.555C199.853 41.4416 199.844 41.3228 199.86 41.2059C199.831 40.9576 199.899 40.7078 200.05 40.507C200.81 40.5587 201.562 40.3307 202.16 39.8672C202.551 38.9994 202.7 38.0444 202.59 37.1011V20.8294C202.59 20.0222 202.59 19.4316 202.59 19.0378C202.583 18.8654 202.536 18.6969 202.453 18.545C202.37 18.3932 202.253 18.2621 202.11 18.1617C201.92 18.0127 201.697 17.9083 201.46 17.8566L200.21 17.7679C200.061 17.6274 199.961 17.4452 199.921 17.2461C199.882 17.047 199.906 16.8407 199.99 16.6556C201.799 16.5828 203.588 16.2512 205.3 15.6712C205.64 15.6712 205.8 15.7992 205.8 16.0551C205.7 17.0461 205.65 18.3586 205.65 19.9926V33.0553C206.593 32.8962 207.48 32.507 208.23 31.9233C209.354 31.0427 210.362 30.0275 211.23 28.9012C211.348 28.7628 211.449 28.6108 211.53 28.4485C211.619 28.2665 211.686 28.0749 211.73 27.8775C211.752 27.7678 211.738 27.6541 211.689 27.5531C211.64 27.4521 211.56 27.3691 211.46 27.3164C211.122 27.1265 210.739 27.0312 210.35 27.0408C210.225 26.848 210.172 26.6182 210.2 26.3911C210.181 26.1456 210.233 25.9 210.35 25.6824C212.24 25.7414 213.48 25.7611 214.09 25.7611C214.42 25.7611 215.53 25.7611 217.4 25.6824C217.541 25.8876 217.605 26.1347 217.58 26.3812C217.611 26.6158 217.546 26.853 217.4 27.0408C215.913 27.0873 214.492 27.6605 213.4 28.6551L210.06 32.002C210.008 32.0502 209.966 32.1081 209.937 32.1723C209.908 32.2365 209.892 32.3058 209.89 32.3761C209.927 32.5741 210.025 32.7562 210.17 32.8978L215.17 39.0994C215.534 39.5599 216.013 39.9194 216.56 40.1428C217.169 40.351 217.799 40.4897 218.44 40.5563C218.584 40.7602 218.652 41.0075 218.63 41.2552C218.65 41.4721 218.589 41.6888 218.46 41.8655H218.45ZM228.45 41.8655C226.27 41.8064 224.87 41.7769 224.24 41.7769C223.61 41.7769 222.1 41.7769 219.96 41.8655C219.837 41.6681 219.784 41.4361 219.81 41.2059C219.789 40.9635 219.841 40.7203 219.96 40.507C220.775 40.5399 221.578 40.3119 222.25 39.8573C222.667 39.0074 222.826 38.0575 222.71 37.1208V29.8955C222.805 29.2099 222.653 28.5131 222.28 27.9267C221.678 27.5632 220.986 27.3723 220.28 27.3755C220.136 27.0389 220.111 26.6644 220.21 26.3124C221.977 26.1318 223.72 25.7688 225.41 25.2295C225.74 25.2295 225.91 25.3181 225.91 25.4855C225.91 25.6528 225.91 25.6331 225.91 25.7513C225.91 25.8694 225.91 26.1056 225.91 26.4501C225.91 26.7947 225.91 27.1294 225.86 27.4345C225.81 27.7397 225.86 28.1236 225.86 28.5469C225.86 28.9701 225.86 29.354 225.86 29.7084V37.1011C225.742 38.0411 225.901 38.9947 226.32 39.8475C226.981 40.3074 227.782 40.5329 228.59 40.4873C228.741 40.6881 228.809 40.938 228.78 41.1863C228.778 41.3182 228.746 41.448 228.685 41.5657C228.624 41.6835 228.537 41.786 228.43 41.8655H228.45Z" fill="#E9C795"/>
</svg>
