<svg width="60" height="21" viewBox="0 0 60 21" fill="none" xmlns="http://www.w3.org/2000/svg">
<path d="M20.5238 0.988607V20.0114C20.5238 20.128 20.4804 20.2304 20.393 20.3182C20.3056 20.4059 20.1937 20.4495 20.058 20.4495H16.9139C16.7776 20.4495 16.6664 20.4059 16.579 20.3182C16.4916 20.2304 16.4481 20.128 16.4481 20.0114V7.85552L12.227 15.2482C12.0522 15.5604 11.8193 15.7157 11.5283 15.7157H9.11215C8.82119 15.7157 8.58831 15.5604 8.41352 15.2482L4.07566 7.85552V20.0114C4.07566 20.128 4.03223 20.2304 3.94484 20.3182C3.85744 20.4059 3.74561 20.4495 3.6099 20.4495H0.465759C0.329505 20.4495 0.218223 20.4059 0.130825 20.3182C0.0434274 20.2304 0 20.128 0 20.0114V0.988607C0 0.872006 0.0434274 0.769572 0.130825 0.681849C0.218223 0.594126 0.330048 0.550537 0.465759 0.550537H3.7847C4.15329 0.550537 4.42525 0.706368 4.60005 1.01803L10.2478 10.8653L15.9243 1.01803C16.0795 0.706368 16.3417 0.550537 16.7103 0.550537H20.058C20.1937 0.550537 20.3056 0.594126 20.393 0.681849C20.4804 0.769572 20.5238 0.871461 20.5238 0.988607Z" fill="#111C24"/>
<path d="M24.0175 0.550537H38.0494C38.1852 0.550537 38.297 0.594126 38.3844 0.681849C38.4718 0.769572 38.5152 0.871461 38.5152 0.988607V3.85241C38.5152 3.96955 38.4718 4.07144 38.3844 4.15916C38.297 4.24689 38.1852 4.29048 38.0494 4.29048H27.7441V8.58618H36.536C36.6527 8.58618 36.7542 8.62977 36.8416 8.71749C36.929 8.80521 36.9725 8.9071 36.9725 9.02425V11.8586C36.9725 11.9954 36.9285 12.1071 36.8416 12.1948C36.7542 12.2825 36.6522 12.3261 36.536 12.3261H27.7441V16.7384H38.0494C38.36 16.7384 38.5152 16.8844 38.5152 17.1765V20.0109C38.5152 20.1275 38.4718 20.2299 38.3844 20.3176C38.297 20.4053 38.1852 20.4489 38.0494 20.4489H24.0175C23.8813 20.4489 23.77 20.4053 23.6826 20.3176C23.5952 20.2299 23.5518 20.1275 23.5518 20.0109V0.988607C23.5518 0.871461 23.5952 0.769572 23.6826 0.681849C23.77 0.594126 23.8813 0.550537 24.0175 0.550537V0.550537Z" fill="#111C24"/>
<path d="M47.3631 8.63042H45.7015C45.4322 8.63042 45.2145 8.41138 45.2145 8.14168V6.47385C45.2145 6.2036 44.9963 5.98511 44.7276 5.98511H41.9759C41.7067 5.98511 41.489 6.20414 41.489 6.47385V8.14168C41.489 8.41193 41.2708 8.63042 41.0021 8.63042H39.3404C39.0712 8.63042 38.8535 8.84945 38.8535 9.11916V11.8811C38.8535 12.1513 39.0717 12.3698 39.3404 12.3698H41.0021C41.2713 12.3698 41.489 12.5888 41.489 12.8586V14.5264C41.489 14.7966 41.7072 15.0151 41.9759 15.0151H44.7276C44.9969 15.0151 45.2145 14.7961 45.2145 14.5264V12.8586C45.2145 12.5883 45.4328 12.3698 45.7015 12.3698H47.3631C47.6324 12.3698 47.85 12.1508 47.85 11.8811V9.11916C47.85 8.84891 47.6318 8.63042 47.3631 8.63042Z" fill="url(#paint0_linear_619_10083)"/>
<path d="M57.6119 3.58924C55.7097 1.56344 52.983 0.550537 49.4312 0.550537H42.0078C41.8716 0.550537 41.7603 0.594126 41.6729 0.681849C41.5855 0.769572 41.5421 0.871461 41.5421 0.988607V3.59578C41.5421 3.86657 41.7608 4.08615 42.0306 4.08615H48.8493C51.2557 4.08615 53.0417 4.71002 54.2061 5.95667C55.2147 7.02841 55.72 8.53823 55.72 10.4856C55.72 13.2518 54.7304 15.1316 52.7507 16.1249C51.6829 16.6507 50.3535 16.9139 48.7624 16.9139H42.0312C41.7614 16.9139 41.5426 17.1334 41.5426 17.4042V20.0114C41.5426 20.128 41.5861 20.2304 41.6735 20.3182C41.7608 20.4059 41.8721 20.4495 42.0084 20.4495H49.0534C51.6927 20.4495 53.8668 19.9727 55.5746 19.0176C58.5244 17.3421 59.9993 14.4985 59.9993 10.485C59.9993 7.58254 59.2035 5.28376 57.6119 3.58869V3.58924Z" fill="#111C24"/>
<defs>
<linearGradient id="paint0_linear_619_10083" x1="38.8535" y1="5.98511" x2="47.9173" y2="15.0155" gradientUnits="userSpaceOnUse">
<stop stop-color="#359D9E"/>
<stop offset="1" stop-color="#55C595"/>
</linearGradient>
</defs>
</svg>
