<svg width="143" height="35" viewBox="0 0 143 35" fill="none" xmlns="http://www.w3.org/2000/svg">
<g clip-path="url(#clip0_501_10086)">
<path d="M15.3691 20.1792C14.9495 20.1792 14.6018 19.9823 14.3321 19.5407L12.8755 17.2792H8.1281C3.31478 17.2792 0 13.6393 0 8.88961C0 4.13987 3.23685 0.5 8.1341 0.5H20.0205C24.9358 0.5 28.1786 4.09214 28.1786 8.88961C28.1786 13.6871 24.8878 17.2792 20.0205 17.2792L21.4052 19.4214C21.4771 19.5467 21.5251 19.666 21.5251 19.7913C21.5251 19.9882 21.4052 20.1852 21.0575 20.1852H15.3751L15.3691 20.1792ZM18.3122 7.21288C18.3122 4.18761 17.545 3.3761 15.393 3.3761H12.2581C10.304 3.3761 9.53673 4.23535 9.53673 7.21288V9.89207C9.53673 13.2157 10.3759 14.3673 12.2581 14.3673H15.393C17.4191 14.3673 18.3122 13.2336 18.3122 9.89207V7.21288Z" fill="white"/>
<path d="M45.3399 20.1792C44.9203 20.1792 44.5727 19.9823 44.3029 19.5407L42.8463 17.2792H38.0989C33.2796 17.2792 29.9648 13.6393 29.9648 8.88961C29.9648 4.13987 33.2077 0.5 38.0989 0.5H49.9854C54.9006 0.5 58.1435 4.09214 58.1435 8.88961C58.1435 13.6871 54.8527 17.2792 49.9854 17.2792L51.37 19.4214C51.442 19.5467 51.4899 19.666 51.4899 19.7913C51.4899 19.9882 51.37 20.1852 51.0224 20.1852H45.3399V20.1792ZM48.283 7.21288C48.283 4.18761 47.5158 3.3761 45.3639 3.3761H42.2289C40.2748 3.3761 39.5076 4.23535 39.5076 7.21288V9.89207C39.5076 13.2157 40.3468 14.3673 42.2289 14.3673H45.3639C47.3899 14.3673 48.283 13.2336 48.283 9.89207V7.21288Z" fill="white"/>
<path d="M60.5769 17.2792C60.1573 17.2792 59.9355 17.0584 59.9355 16.6169V1.13847C59.9355 0.720779 60.1573 0.5 60.5769 0.5H82.0301C85.2909 0.5 86.9453 2.09916 86.9453 4.73061C86.9453 6.77132 85.6865 7.5351 84.9912 7.88119C86.0522 8.22727 87.6346 9.77273 87.6346 12.2371C87.6346 14.7015 85.8064 17.2792 81.6045 17.2792H60.5709H60.5769ZM71.6482 9.58178C71.2286 9.58178 71.0068 9.361 71.0068 8.94331V7.34416C71.0068 6.92647 71.2286 6.70569 71.6482 6.70569H75.6763C77.3067 6.70569 77.8282 6.01948 77.8282 5.03492C77.8282 4.05037 77.3067 3.38803 75.6763 3.38803H69.4483V14.3852H75.2567C77.1089 14.3852 77.9001 13.526 77.9001 11.9507C77.9001 10.3754 77.1089 9.58775 75.2567 9.58775H71.6482V9.58178Z" fill="#F3C934"/>
<path d="M97.6862 17.2792C93.0167 17.2792 89.582 13.7647 89.582 8.88961C89.582 4.01457 92.8189 0.5 97.6862 0.5H114.961C115.405 0.5 115.627 0.720779 115.627 1.13847V2.71376C115.627 3.15532 115.405 3.3761 114.961 3.3761H103.471C101.319 3.3761 100.557 4.18761 100.557 7.21288V9.89207C100.557 13.2396 101.445 14.3673 103.471 14.3673H115.039C115.483 14.3673 115.705 14.5881 115.705 15.0297V16.6049C115.705 17.0465 115.483 17.2673 115.039 17.2673H97.6922L97.6862 17.2792ZM102.979 9.58178C102.535 9.58178 102.314 9.361 102.314 8.94331V7.34416C102.314 6.92647 102.535 6.70569 102.979 6.70569H114.794C115.213 6.70569 115.435 6.85486 115.435 7.14724V9.14022C115.435 9.43857 115.213 9.58178 114.794 9.58178H102.979Z" fill="#F3C934"/>
<path d="M125.033 17.2792C124.715 17.2792 124.565 17.1837 124.565 16.957V3.3761H117.348C117.025 3.3761 116.881 3.30449 116.881 3.10758V0.822218C116.881 0.601439 117.031 0.5 117.348 0.5H141.589C141.907 0.5 142.056 0.601439 142.056 0.822218V3.10758C142.056 3.30449 141.907 3.3761 141.589 3.3761H134.348V16.957C134.348 17.1778 134.198 17.2792 133.904 17.2792H125.033Z" fill="#F3C934"/>
<path d="M95.9491 34.4991C95.7094 34.4991 95.5955 34.4275 95.5955 34.2605V24.1345H94.1928C93.8632 24.1345 93.6953 23.9674 93.6953 23.6392V22.4637C93.6953 22.1534 93.8632 21.9863 94.1928 21.9863H99.6835C101.506 21.9863 102.561 22.774 102.561 24.1345V34.2605C102.561 34.4275 102.447 34.4991 102.231 34.4991H95.9491Z" fill="white"/>
<path d="M108.5 34.4991C105.515 34.4991 103.969 32.5718 103.969 30.6624C103.969 29.3078 104.832 28.019 105.977 27.4879C105.036 26.921 104.592 25.9842 104.592 25.0295C104.592 23.5079 105.773 21.9863 108.189 21.9863H118.253C120.669 21.9863 121.849 23.5079 121.849 25.0295C121.849 25.9842 121.406 26.921 120.465 27.4879C121.61 28.019 122.473 29.3019 122.473 30.6624C122.473 32.5718 120.926 34.4991 117.941 34.4991H108.506H108.5ZM114.56 32.3331C115.999 32.3331 116.736 31.4321 116.736 30.5191C116.736 29.6062 115.999 28.6873 114.56 28.6873H111.887C110.43 28.6873 109.693 29.6062 109.693 30.5191C109.693 31.4321 110.43 32.3331 111.887 32.3331H114.56ZM111.743 24.1345C110.562 24.1345 109.993 24.8863 109.993 25.6023C109.993 26.3542 110.562 27.0881 111.743 27.0881H114.71C115.873 27.0881 116.443 26.3542 116.443 25.6023C116.443 24.8505 115.873 24.1345 114.71 24.1345H111.743Z" fill="white"/>
<path d="M128.215 34.4991C125.23 34.4991 123.684 32.5718 123.684 30.6624C123.684 29.3078 124.547 28.019 125.692 27.4879C124.751 26.921 124.307 25.9842 124.307 25.0295C124.307 23.5079 125.488 21.9863 127.903 21.9863H137.968C140.383 21.9863 141.564 23.5079 141.564 25.0295C141.564 25.9842 141.121 26.921 140.18 27.4879C141.324 28.019 142.188 29.3019 142.188 30.6624C142.188 32.5718 140.641 34.4991 137.656 34.4991H128.221H128.215ZM134.275 32.3331C135.714 32.3331 136.451 31.4321 136.451 30.5191C136.451 29.6062 135.714 28.6873 134.275 28.6873H131.602C130.145 28.6873 129.408 29.6062 129.408 30.5191C129.408 31.4321 130.145 32.3331 131.602 32.3331H134.275ZM131.458 24.1345C130.277 24.1345 129.708 24.8863 129.708 25.6023C129.708 26.3542 130.277 27.0881 131.458 27.0881H134.425C135.588 27.0881 136.157 26.3542 136.157 25.6023C136.157 24.8505 135.588 24.1345 134.425 24.1345H131.458Z" fill="white"/>
<path d="M0 25.4651V21.9863L89.5829 23.7287L0 25.4651Z" fill="#F3C934"/>
<path d="M0 29.9827V26.5039L89.5829 28.2463L0 29.9827Z" fill="#F3C934"/>
<path d="M0 34.5001V31.0273L89.5829 32.7637L0 34.5001Z" fill="#F3C934"/>
</g>
<defs>
<clipPath id="clip0_501_10086">
<rect width="142.182" height="34" fill="white" transform="translate(0 0.5)"/>
</clipPath>
</defs>
</svg>
