<svg width="90" height="33" viewBox="0 0 90 33" fill="none" xmlns="http://www.w3.org/2000/svg">
<path d="M23.5206 10.0484H16.9845L15.6957 13.0722H13.1924L19.077 0.00341797H21.467L27.3658 13.0722H24.8271L23.5206 10.0484ZM22.7275 8.14349L20.249 2.42879L17.8024 8.14349H22.7275Z" fill="#011A28"/>
<path d="M28.938 0.00341797H31.3634V11.0185H38.1969V13.0722H28.938V0.00341797Z" fill="#011A28"/>
<path d="M42.1989 2.0464V6.02261H48.5085V8.06559H42.1989V13.0686H39.77V0.00341797H49.3299V2.0464H42.1989Z" fill="#011A28"/>
<path d="M68.9843 0.00341797L63.0465 13.0722H60.4689L58.4259 3.40248L53.954 13.0722H51.3587L48.6323 0.00341797H51.1533L53.1821 9.91738L57.7851 0.00341797H60.0228L62.1011 9.99173L66.6722 0.00341797H68.9843Z" fill="#011A28"/>
<path d="M76.3916 10.0484H69.859L68.5702 13.0722H66.0669L71.9409 0.00341797H74.3309L80.2332 13.0722H77.691L76.3916 10.0484ZM75.5914 8.14349L73.1129 2.42879L70.6698 8.14349H75.5914Z" fill="#011A28"/>
<path d="M84.8837 8.46228V13.0652H82.4584V8.49769L77.3208 0H79.9161L83.7436 6.37326L87.6101 0H90.0001L84.8837 8.46228Z" fill="#011A28"/>
<path d="M2.42538 5.40286V1.98254V0.00683594H0V13.0756H2.42538V10.2041V7.47417V5.40286Z" fill="#011A28"/>
<path d="M9.18457 0.00341797V1.97912V5.39944V7.47076V10.2006V13.0722H11.6135V0.00341797H9.18457Z" fill="#011A28"/>
<path d="M5.80433 3.91943L1.2085 6.32003V8.81269L5.80433 6.41209L10.3966 8.81269V6.32003L5.80433 3.91943Z" fill="#011A28"/>
<path d="M10.1362 18.0757H0V25.614C0 29.4985 2.45546 31.9982 6.28108 31.9982C10.1067 31.9982 12.5474 29.4887 12.5474 25.614V18.0757H10.1362Z" fill="#3800D8"/>
<path d="M21.1173 18.0757H15.126V32.008H20.1351V28.8454H21.1173C24.7956 28.8454 27.2707 26.6796 27.2707 23.4433C27.2707 20.207 24.8595 18.0757 21.1173 18.0757Z" fill="#3800D8"/>
</svg>
