<svg width="151" height="42" viewBox="0 0 151 42" fill="none" xmlns="http://www.w3.org/2000/svg">
<path fill-rule="evenodd" clip-rule="evenodd" d="M11.3928 7.17054H9.54303H6.41593H0V29.6533C0 37.0936 5.66112 41.9999 14.1258 41.9999C22.5906 41.9999 28.2517 37.0936 28.2517 29.6533V7.22446H24.208H18.7087H15.959C14.1258 14.1796 14.7728 19.5172 16.552 22.3747C18.493 25.4479 18.3852 27.8741 18.3852 27.8741C18.3852 30.2464 16.4981 32.1334 14.1258 32.1334C12.6162 32.1334 11.2683 31.3247 10.5135 30.0846C10.4596 30.0307 10.4057 29.9229 10.3518 29.815C8.54776 26.7974 9.47749 20.9064 10.9194 15.6381C11.7938 12.6387 14.0442 5.5758 17.3071 0C17.3071 0 14.379 2.60596 11.3928 7.17054ZM20.4876 27.389C20.4876 30.9474 17.6301 33.805 14.0717 33.805C10.5133 33.805 7.65576 30.9474 7.65576 27.389H6.0383C6.0383 31.8101 9.65063 35.4224 14.0717 35.4224C18.4928 35.4224 22.1051 31.8101 22.1051 27.389H20.4876Z" fill="#50B1AF"/>
<path d="M42.3918 9.26645H43.2608V2.61111H42.3918V9.26645Z" fill="#838C9F"/>
<path d="M52.2946 9.26645H53.154V6.18227C53.154 4.68315 52.2278 3.93836 51.0342 3.93836C50.2321 3.93836 49.4873 4.34895 49.1818 5.10328C48.838 4.3203 48.1219 3.93836 47.2625 3.93836C46.575 3.93836 45.9544 4.23436 45.6106 4.78818V4.03384H44.7417V9.26645H45.6106V6.38279C45.6106 5.25606 46.2122 4.69269 47.0906 4.69269C47.95 4.69269 48.5229 5.23696 48.5229 6.3064V9.26645H49.3823V6.38279C49.3823 5.25606 49.9838 4.69269 50.8623 4.69269C51.7217 4.69269 52.2946 5.23696 52.2946 6.3064V9.26645Z" fill="#838C9F"/>
<path d="M55.4482 4.99825V4.03384H54.5793V11.7491H55.4482V8.30205C55.7729 8.83677 56.4508 9.35239 57.4057 9.35239C58.8093 9.35239 59.8883 8.25431 59.8883 6.63105C59.8883 4.99825 58.8093 3.94791 57.4057 3.94791C56.4508 3.94791 55.7633 4.44443 55.4482 4.99825ZM59.0003 6.63105C59.0003 7.86282 58.1887 8.58851 57.2243 8.58851C56.279 8.58851 55.4482 7.87236 55.4482 6.6406C55.4482 5.42793 56.279 4.70224 57.2243 4.70224C58.1887 4.70224 59.0003 5.39929 59.0003 6.63105Z" fill="#838C9F"/>
<path d="M61.0321 9.26645H61.901V2.20052H61.0321V9.26645Z" fill="#838C9F"/>
<path d="M63.0572 6.63105C63.0572 8.25431 64.1362 9.35239 65.5303 9.35239C66.4947 9.35239 67.1727 8.85587 67.4878 8.2925V9.26645H68.3662V4.03384H67.4878V4.9887C67.1822 4.44443 66.5138 3.94791 65.5399 3.94791C64.1362 3.94791 63.0572 4.99825 63.0572 6.63105ZM67.4878 6.6406C67.4878 7.87236 66.6666 8.58851 65.7117 8.58851C64.7569 8.58851 63.9453 7.86282 63.9453 6.63105C63.9453 5.39929 64.7569 4.70224 65.7117 4.70224C66.6666 4.70224 67.4878 5.42793 67.4878 6.6406Z" fill="#838C9F"/>
<path d="M73.6636 9.26645H74.523V6.18227C74.523 4.68315 73.5968 3.93836 72.3841 3.93836C71.6775 3.93836 71.0473 4.23436 70.7036 4.77863V4.03384H69.8346V9.26645H70.7036V6.37324C70.7036 5.24651 71.3147 4.69269 72.2027 4.69269C73.0811 4.69269 73.6636 5.23696 73.6636 6.3064V9.26645Z" fill="#838C9F"/>
<path d="M76.1333 7.83417C76.1333 8.88451 76.6585 9.26645 77.5847 9.26645H78.3677V8.53122H77.7279C77.1932 8.53122 77.0022 8.34979 77.0022 7.83417V4.74999H78.3677V4.03384H77.0022V2.71614H76.1333V4.03384H75.4554V4.74999H76.1333V7.83417Z" fill="#838C9F"/>
<path d="M81.6415 6.63105C81.6415 8.25431 82.7205 9.35239 84.1241 9.35239C85.079 9.35239 85.7569 8.86542 86.072 8.28295V9.26645H86.9505V2.20052H86.072V4.9696C85.7092 4.36804 84.9548 3.94791 84.1337 3.94791C82.7205 3.94791 81.6415 4.99825 81.6415 6.63105ZM86.072 6.6406C86.072 7.87236 85.2509 8.58851 84.296 8.58851C83.3411 8.58851 82.5295 7.86282 82.5295 6.63105C82.5295 5.39929 83.3411 4.70224 84.296 4.70224C85.2509 4.70224 86.072 5.42793 86.072 6.6406Z" fill="#838C9F"/>
<path d="M90.6437 4.68315C91.5413 4.68315 92.3051 5.24651 92.2956 6.26821H88.9918C89.0873 5.24651 89.7939 4.68315 90.6437 4.68315ZM93.0881 7.65275H92.1524C91.9614 8.21611 91.4649 8.61715 90.6819 8.61715C89.7939 8.61715 89.0491 8.03469 88.9823 6.9748H93.1645C93.1836 6.79338 93.1932 6.6406 93.1932 6.44963C93.1932 5.01735 92.2001 3.94791 90.6819 3.94791C89.1541 3.94791 88.0942 4.9887 88.0942 6.6406C88.0942 8.30205 89.1923 9.35239 90.6819 9.35239C91.9805 9.35239 92.8208 8.6076 93.0881 7.65275Z" fill="#838C9F"/>
<path d="M97.7547 5.77168V3.32725H99.0342C100.027 3.32725 100.447 3.78558 100.447 4.55901C100.447 5.3038 100.027 5.77168 99.0342 5.77168H97.7547ZM101.335 4.55901C101.335 3.47048 100.6 2.61111 99.0342 2.61111H96.8858V9.26645H97.7547V6.48782H99.0342C100.686 6.48782 101.335 5.57116 101.335 4.55901Z" fill="#838C9F"/>
<path d="M102.091 6.63105C102.091 8.25431 103.17 9.35239 104.564 9.35239C105.528 9.35239 106.206 8.85587 106.521 8.2925V9.26645H107.4V4.03384H106.521V4.9887C106.216 4.44443 105.547 3.94791 104.573 3.94791C103.17 3.94791 102.091 4.99825 102.091 6.63105ZM106.521 6.6406C106.521 7.87236 105.7 8.58851 104.745 8.58851C103.79 8.58851 102.979 7.86282 102.979 6.63105C102.979 5.39929 103.79 4.70224 104.745 4.70224C105.7 4.70224 106.521 5.42793 106.521 6.6406ZM106.273 2.27691V2.10503H105.757C105.757 2.56337 105.528 2.84027 104.917 2.84027C104.296 2.84027 104.067 2.56337 104.067 2.10503H103.552V2.26736C103.552 2.9835 104.039 3.51822 104.917 3.51822C105.796 3.51822 106.273 2.9835 106.273 2.27691Z" fill="#838C9F"/>
<path d="M109.737 6.42098C109.737 5.20832 110.367 4.83592 111.198 4.83592H111.427V3.93836C110.596 3.93836 110.033 4.3012 109.737 4.88367V4.03384H108.868V9.26645H109.737V6.42098Z" fill="#838C9F"/>
<path d="M114.651 5.93401C114.651 7.92966 116.112 9.32375 117.974 9.32375C119.416 9.32375 120.562 8.6076 121.058 7.3281H120.017C119.655 8.12063 118.948 8.56941 117.974 8.56941C116.58 8.56941 115.539 7.55726 115.539 5.93401C115.539 4.3012 116.58 3.28906 117.974 3.28906C118.948 3.28906 119.655 3.73784 120.017 4.53992H121.058C120.562 3.25086 119.416 2.52517 117.974 2.52517C116.112 2.52517 114.651 3.93836 114.651 5.93401Z" fill="#838C9F"/>
<path d="M122.352 9.26645H123.221V2.20052H122.352V9.26645Z" fill="#838C9F"/>
<path d="M129.342 4.03384H128.473V6.90796C128.473 8.03469 127.872 8.58851 126.974 8.58851C126.096 8.58851 125.513 8.04424 125.513 6.98435V4.03384H124.654V7.09893C124.654 8.59806 125.599 9.34284 126.802 9.34284C127.499 9.34284 128.139 9.03729 128.473 8.49302V9.26645H129.342V4.03384Z" fill="#838C9F"/>
<path d="M131.277 3.18402C131.602 3.18402 131.86 2.92621 131.86 2.59201C131.86 2.25781 131.602 2 131.277 2C130.953 2 130.695 2.25781 130.695 2.59201C130.695 2.92621 130.953 3.18402 131.277 3.18402ZM130.838 4.03384V10.3836C130.838 10.842 130.656 11.0138 130.179 11.0138H129.816V11.7491H130.322C131.21 11.7491 131.707 11.348 131.707 10.4027V4.03384H130.838Z" fill="#838C9F"/>
<path d="M88.5944 36.5668C90.012 36.5668 91.1611 35.4176 91.1611 34C91.1611 32.5824 90.012 31.4332 88.5944 31.4332C87.1768 31.4332 86.0276 32.5824 86.0276 34C86.0276 35.4176 87.1768 36.5668 88.5944 36.5668Z" fill="#0B1A47"/>
<path d="M100.532 19.8798V23.7632H108.39V28.7808H100.532V36.6851H94.4585V14.8623H109.935L109.008 19.8798H100.532Z" fill="#0B1A47"/>
<path d="M150.838 31.7019V36.7195H134.744V14.8623H150.667L149.774 19.8798H140.818V23.179H149.294V28.1965H140.852V31.6676H150.838V31.7019Z" fill="#0B1A47"/>
<path d="M50.4186 14.7491H42.3918V36.5667H50.4186C56.9291 36.5667 61.2695 32.1737 61.2695 25.5989C61.2695 19.0831 56.9291 14.7491 50.4186 14.7491ZM50.2105 31.5545H48.5159V19.7612H50.2105C53.0644 19.7612 54.967 22.0904 54.967 25.5989C54.967 29.1664 53.0644 31.5545 50.2105 31.5545Z" fill="#0B1A47"/>
<path d="M83.4603 36.5667L78.9713 27.3974C80.6955 26.1591 81.6766 24.3311 81.6766 22.0904C81.6766 17.6974 78.4064 14.7491 73.4715 14.7491H64.1367V36.5667H70.2608V29.1369H72.9066H73.2931L76.593 36.5667H83.4603ZM70.2608 19.7612H73.1147C74.4823 19.7612 75.4038 20.7047 75.4038 22.0904C75.4038 23.4761 74.4823 24.4196 73.1147 24.4196H70.2608V19.7612Z" fill="#0B1A47"/>
<path d="M128.729 14.8614H125.266V27.8395C125.266 29.466 123.929 30.7537 122.317 30.7537C120.706 30.7537 119.368 29.4321 119.368 27.8395V14.8614H117.414H115.288H113.299V28.9577C113.299 33.6339 116.9 36.7175 122.283 36.7175C127.666 36.7175 131.267 33.6339 131.267 28.9577V14.8614H128.729Z" fill="#0B1A47"/>
</svg>
