<svg width="273" height="363" viewBox="0 0 273 363" fill="none" xmlns="http://www.w3.org/2000/svg">
<g opacity="0.7">
<path opacity="0.7" fill-rule="evenodd" clip-rule="evenodd" d="M204.35 264.02L180.75 298.48L224.87 362.84H272.07L204.35 264.02ZM136.82 362.11L136.46 362.47L102.87 313.97L69.2899 362.84H203.63L170.22 313.97L136.82 362.11ZM68.5599 264.02L0.839844 362.84H48.0499L92.1599 298.48L68.5599 264.02ZM36.6099 187.08C37.196 187.902 37.7401 188.753 38.2399 189.63L78.9099 248.88L94.6998 272.04L113.04 298.84L136.64 333.12V332.57L159.69 298.84L150.98 286.08L136.64 264.93V264.38L136.46 264.75L125.93 249.24L118.48 238.31V238.13L97.0599 206.58L70.3799 167.38L69.8298 166.65C69.4039 166.148 69.0382 165.597 68.7399 165.01C62.6266 155.493 58.5509 144.813 56.7695 133.644C54.9882 122.474 55.54 111.056 58.3899 100.11C62.3236 84.8382 70.6436 71.053 82.3228 60.4561C94.0019 49.8592 108.529 42.9147 124.11 40.48C128.309 39.7889 132.569 39.5442 136.82 39.75C140.892 39.6931 144.962 40.0009 148.98 40.6699C180.39 45.5899 206.89 69.29 214.7 100.29C217.552 111.236 218.105 122.654 216.324 133.824C214.542 144.994 210.465 155.674 204.35 165.19C203.81 166.11 203.44 166.47 203.26 166.84L202.72 167.38L170.59 214.42L167.32 209.68L136.82 165.01V164.28L136.64 164.65L136.46 164.28L131.55 157.36C127.987 152.179 123.216 147.944 117.649 145.02C112.083 142.096 105.888 140.573 99.5999 140.58C91.7368 140.547 84.0597 142.969 77.6399 147.51L114.49 201.29L135.19 231.74L136.82 234.11L170.4 283.34L194 248.88L234.67 189.63C235.21 188.72 235.76 187.99 236.3 187.08L236.85 186.34C249.412 166.822 256.091 144.101 256.09 120.89C256.09 54.7101 202.54 0.920234 136.82 0.740234C70.7398 0.740234 16.9999 54.5201 16.9999 120.89C16.911 144.115 23.6011 166.861 36.2499 186.34L36.6099 187.08Z" fill="white"/>
</g>
</svg>
