<svg width="239" height="42" viewBox="0 0 239 42" fill="none" xmlns="http://www.w3.org/2000/svg">
<g clip-path="url(#clip0)">
<path d="M23.1804 30.3574L20.4922 34.2507L25.517 41.5221H30.8934L23.1804 30.3574Z" fill="#0C214C"/>
<path d="M15.4882 41.4401L15.4469 41.4813L11.6214 36.002L7.7959 41.5225H15.4262H15.4882H23.0979L19.293 36.002L15.4882 41.4401Z" fill="#0C214C"/>
<path d="M7.71301 30.3574L0 41.5221H5.37636L10.4012 34.2507L7.71301 30.3574Z" fill="#0C214C"/>
<path d="M4.07359 21.6656C4.13563 21.748 4.19766 21.8509 4.2597 21.9539L8.89164 28.6487L10.6907 31.2647L12.7792 34.2928L15.4673 38.1654V38.1036L18.0935 34.2928L17.1009 32.8509L15.4673 30.4614V30.3996L15.4467 30.4408L14.2473 28.6898L13.3995 27.4539V27.4333L10.9595 23.8697L7.91976 19.4409L7.85772 19.3585C7.81637 19.3173 7.79569 19.2761 7.73365 19.1731C6.34821 17.0308 5.89328 14.4147 6.55499 11.8398C7.44416 8.33794 10.4425 5.63946 14.0405 5.10388C14.5368 5.02149 15.0124 5.00089 15.488 5.02149C15.9429 5.02149 16.4185 5.04209 16.8735 5.12448C20.4508 5.68066 23.4699 8.35854 24.359 11.8604C25.0207 14.4353 24.5658 17.0514 23.1804 19.1937C23.1183 19.2967 23.077 19.3379 23.0563 19.3791L22.9942 19.4409L19.3342 24.7554L18.962 24.2198L15.488 19.1731V19.0907L15.4673 19.1319L15.4467 19.0907L14.8884 18.3079C14.0405 17.072 12.6344 16.4128 11.249 16.4128C10.3805 16.4128 9.51199 16.66 8.74689 17.1956L12.9446 23.2723L15.3019 26.7123L15.488 26.9801L19.3135 32.5419L22.0017 28.6487L26.6336 21.9539C26.6957 21.8509 26.7577 21.7686 26.8197 21.6656L26.8818 21.5832C28.3086 19.3791 29.0737 16.8248 29.0737 14.1881C29.0737 6.71061 22.9736 0.63388 15.488 0.613281C7.96111 0.613281 1.84033 6.69001 1.84033 14.1881C1.84033 16.8248 2.58475 19.3791 4.03223 21.5832L4.07359 21.6656Z" fill="#0C214C"/>
<path d="M48.8836 20.2639H43.7967V29.4511H40.6743V6.99805H48.8836C50.9308 6.99805 52.6264 7.63662 53.9085 8.89316C55.2112 10.1703 55.8522 11.7358 55.8522 13.6516C55.8522 15.5673 55.2112 17.1534 53.9085 18.4099C52.6057 19.6459 50.9308 20.2639 48.8836 20.2639ZM43.7761 17.483H48.3046C49.6487 17.483 50.7033 17.1328 51.4891 16.453C52.2749 15.7733 52.6678 14.8463 52.6678 13.6722C52.6678 12.498 52.2749 11.5504 51.4891 10.8295C50.7033 10.1291 49.6487 9.75833 48.3046 9.75833H43.7761V17.483Z" fill="#0C214C"/>
<path d="M60.8563 20.4907V29.4513H57.8579V6.50391H60.8563V15.9795C61.8695 14.4964 63.4204 13.7548 65.5089 13.7548C67.2665 13.7548 68.6313 14.311 69.5618 15.4439C70.513 16.5563 70.968 18.0188 70.968 19.7903V29.4513H67.9696V20.3053C67.9696 17.751 66.7909 16.4739 64.4129 16.4739C63.317 16.4739 62.4485 16.8446 61.8281 17.6068C61.2285 18.3484 60.8976 19.3165 60.8563 20.4907Z" fill="#0C214C"/>
<path d="M75.145 16.0415C76.6132 14.5171 78.4949 13.7344 80.7695 13.7344C83.0441 13.7344 84.9052 14.4965 86.394 16.0415C87.8622 17.5658 88.6066 19.5021 88.6066 21.8298C88.6066 24.1781 87.8829 26.1144 86.4147 27.6388C84.9465 29.1631 83.0648 29.9459 80.7902 29.9459C78.4949 29.9459 76.6132 29.1837 75.1657 27.6388C73.6975 26.1144 72.9738 24.1781 72.9738 21.8298C72.9324 19.5021 73.6769 17.5658 75.145 16.0415ZM77.3783 25.826C78.3088 26.7942 79.4254 27.268 80.7695 27.268C82.1136 27.268 83.2302 26.7942 84.1608 25.826C85.0913 24.8579 85.5462 23.5189 85.5462 21.8092C85.5462 20.1201 85.0913 18.8018 84.1608 17.8336C83.2302 16.8654 82.1136 16.3917 80.7695 16.3917C79.4254 16.3917 78.3088 16.8654 77.3783 17.8336C76.4478 18.8018 75.9928 20.1201 75.9928 21.8092C75.9928 23.5395 76.4478 24.8785 77.3783 25.826Z" fill="#0C214C"/>
<path d="M93.4661 20.6546V29.471H90.4678V14.2071H93.4041V16.3906C94.4173 14.6397 95.9889 13.7539 98.1188 13.7539C99.8764 13.7539 101.241 14.3101 102.172 15.443C103.123 16.5554 103.578 18.0179 103.578 19.7894V29.4504H100.579V20.3044C100.579 17.7501 99.4008 16.473 97.0228 16.473C95.9062 16.473 95.017 16.8644 94.3967 17.6677C93.797 18.4505 93.4661 19.4393 93.4661 20.6546Z" fill="#0C214C"/>
<path d="M117.577 24.241L120.162 25.1267C119.707 26.5481 118.88 27.7016 117.68 28.5874C116.481 29.4938 115.013 29.9263 113.296 29.9263C111.146 29.9263 109.326 29.1848 107.837 27.7222C106.348 26.2597 105.604 24.2822 105.604 21.7691C105.604 19.4414 106.328 17.5257 107.775 16.0013C109.223 14.477 110.939 13.7148 112.924 13.7148C115.24 13.7148 117.039 14.4358 118.342 15.8777C119.645 17.3197 120.286 19.256 120.286 21.6867C120.286 22.0575 120.265 22.3871 120.224 22.6343H108.706C108.726 23.9938 109.181 25.1061 110.05 25.9713C110.939 26.8365 112.014 27.2691 113.317 27.2691C115.468 27.3103 116.894 26.2803 117.577 24.241ZM108.768 20.2654H117.143C117.101 19.1324 116.708 18.1849 116.005 17.4639C115.281 16.7429 114.268 16.3721 112.945 16.3721C111.766 16.3721 110.774 16.7635 110.008 17.5257C109.243 18.3084 108.83 19.2148 108.768 20.2654Z" fill="#0C214C"/>
<path d="M126.655 11.1385V29.4511H122.23V11.1385H115.096V6.99805H133.789V11.1591H126.655V11.1385Z" fill="#0C214C"/>
<path d="M138.028 18.0602C137.552 17.9572 137.138 17.9366 136.745 17.9366C134.574 17.9366 132.713 18.9871 132.713 22.3448V29.4721H128.474V13.858H132.589V16.1651C133.54 14.1052 135.712 13.7344 137.035 13.7344C137.386 13.7344 137.697 13.7756 138.028 13.7962V18.0602Z" fill="#0C214C"/>
<path d="M144.231 20.4923L148.078 19.9156C148.967 19.792 149.256 19.3388 149.256 18.8032C149.256 17.6909 148.388 16.7845 146.609 16.7845C144.769 16.7845 143.756 17.9586 143.611 19.3182L139.868 18.5354C140.116 16.1047 142.391 13.4062 146.589 13.4062C151.552 13.4062 153.392 16.1871 153.392 19.3388V27.0016C153.392 27.8256 153.495 28.938 153.578 29.4735H149.711C149.608 29.0616 149.546 28.1964 149.546 27.599C148.76 28.835 147.25 29.9061 144.934 29.9061C141.585 29.9061 139.558 27.6608 139.558 25.2095C139.558 22.4286 141.626 20.8837 144.231 20.4923ZM149.256 23.1496V22.4492L145.72 22.9848C144.645 23.1496 143.776 23.747 143.776 24.9417C143.776 25.8687 144.438 26.7545 145.803 26.7545C147.602 26.7751 149.256 25.9099 149.256 23.1496Z" fill="#0C214C"/>
<path d="M159.74 21.6647C159.74 24.4868 161.58 26.0729 163.752 26.0729C165.923 26.0729 166.998 24.6516 167.35 23.4362L171.072 24.6722C170.369 27.2677 167.929 29.9249 163.752 29.9249C159.14 29.9249 155.501 26.4437 155.501 21.6441C155.501 16.8239 159.058 13.3633 163.607 13.3633C167.867 13.3633 170.286 16 170.948 18.616L167.164 19.8932C166.791 18.5954 165.799 17.2565 163.69 17.2565C161.56 17.2977 159.74 18.8426 159.74 21.6647Z" fill="#0C214C"/>
<path d="M181.907 20.4289L188.297 29.4719H183.106L178.971 23.5188L177.213 25.3521V29.4719H172.974V6.50391H177.213V19.6667L182.631 13.8578H188.173L181.907 20.4289Z" fill="#0C214C"/>
<path d="M201.944 25.0027C201.159 27.7011 198.677 29.9464 194.81 29.9464C190.509 29.9464 186.725 26.8772 186.725 21.6038C186.725 16.6188 190.427 13.3848 194.417 13.3848C199.256 13.3848 202.151 16.454 202.151 21.4596C202.151 22.057 202.089 22.6956 202.089 22.7574H190.881C190.985 24.8173 192.722 26.3004 194.831 26.3004C196.795 26.3004 197.891 25.3116 198.388 23.9315L201.944 25.0027ZM197.995 19.8941C197.933 18.3491 196.92 16.8248 194.5 16.8248C192.308 16.8248 191.088 18.4727 191.006 19.8941H197.995Z" fill="#0C214C"/>
<path d="M213.628 18.0602C213.152 17.9572 212.739 17.9366 212.346 17.9366C210.175 17.9366 208.314 18.9871 208.314 22.3448V29.4721H204.095V13.858H208.21V16.1651C209.161 14.1052 211.333 13.7344 212.656 13.7344C213.008 13.7344 213.318 13.7756 213.649 13.7962V18.0602H213.628Z" fill="#0C214C"/>
<path d="M215.551 29.4719V6.50391H219.79V29.4513H215.551V29.4719Z" fill="#0C214C"/>
<path d="M224.67 35.6101L228.371 27.494L221.713 13.8574H226.448L230.625 22.9828L234.471 13.8574H239L229.178 35.6101H224.67Z" fill="#0C214C"/>
</g>
<defs>
<clipPath id="clip0">
<rect width="239" height="40.9098" fill="white" transform="translate(0 0.613281)"/>
</clipPath>
</defs>
</svg>
