<svg width="90" height="24" viewBox="0 0 90 24" fill="none" xmlns="http://www.w3.org/2000/svg">
<path fill-rule="evenodd" clip-rule="evenodd" d="M6.30346 4.34839H5.28042H3.55021H0.000305176V16.788C0.000305176 20.9047 3.13258 23.6193 7.81607 23.6193C12.4996 23.6193 15.6318 20.9047 15.6318 16.788V4.37822H13.3945H10.3517H8.83033C7.81607 8.22644 8.17405 11.1797 9.15847 12.7608C10.2324 14.4612 10.1727 15.8036 10.1727 15.8036C10.1727 17.1161 9.12864 18.1602 7.81607 18.1602C6.9808 18.1602 6.23502 17.7128 5.81738 17.0266C5.78755 16.9968 5.75772 16.9371 5.72789 16.8775C4.72715 15.2035 5.24684 11.9314 6.04821 9.01077C6.53664 7.33852 7.77867 3.452 9.57586 0.380859C9.57586 0.380859 7.95574 1.82276 6.30346 4.34839ZM11.3359 15.5349C11.3359 17.5038 9.75483 19.0848 7.78597 19.0848C5.81711 19.0848 4.23606 17.5038 4.23606 15.5349H3.34113C3.34113 17.9811 5.33981 19.9798 7.78597 19.9798C10.2321 19.9798 12.2308 17.9811 12.2308 15.5349H11.3359Z" fill="#50B1AF"/>
<path d="M49.9863 18.3968C50.8976 18.3968 51.6364 17.6581 51.6364 16.7468C51.6364 15.8354 50.8976 15.0967 49.9863 15.0967C49.075 15.0967 48.3362 15.8354 48.3362 16.7468C48.3362 17.6581 49.075 18.3968 49.9863 18.3968Z" fill="#0B1A47"/>
<path d="M57.6606 7.66941V10.1659H62.7123V13.3915H57.6606V18.4728H53.756V4.44385H63.7049L63.1093 7.66941H57.6606Z" fill="#0B1A47"/>
<path d="M89.9997 15.2694V18.4949H79.6536V4.44385H89.8894L89.3158 7.66941H83.5582V9.79032H89.007V13.0159H83.5803V15.2473H89.9997V15.2694Z" fill="#0B1A47"/>
<path d="M25.4445 4.37109H20.2845V18.3967H25.4445C29.6299 18.3967 32.4201 15.5726 32.4201 11.346C32.4201 7.15726 29.6299 4.37109 25.4445 4.37109ZM25.3107 15.1746H24.2214V7.59319H25.3107C27.1454 7.59319 28.3685 9.09052 28.3685 11.346C28.3685 13.6394 27.1454 15.1746 25.3107 15.1746Z" fill="#0B1A47"/>
<path d="M46.6856 18.3967L43.7998 12.5022C44.9083 11.7061 45.539 10.531 45.539 9.09052C45.539 6.26645 43.4367 4.37109 40.2643 4.37109H34.2633V18.3967H38.2002V13.6204H39.9011H40.1496L42.2709 18.3967H46.6856ZM38.2002 7.59319H40.0349C40.914 7.59319 41.5065 8.19971 41.5065 9.09052C41.5065 9.98134 40.914 10.5879 40.0349 10.5879H38.2002V7.59319Z" fill="#0B1A47"/>
<path d="M75.7868 4.44336H73.5605V12.7864C73.5605 13.8321 72.7008 14.6598 71.6648 14.6598C70.6288 14.6598 69.7691 13.8103 69.7691 12.7864V4.44336H68.5126H67.146H65.8675V13.5053C65.8675 16.5114 68.182 18.4937 71.6427 18.4937C75.1035 18.4937 77.418 16.5114 77.418 13.5053V4.44336H75.7868Z" fill="#0B1A47"/>
</svg>
