<svg width="159" height="64" viewBox="0 0 159 64" fill="none" xmlns="http://www.w3.org/2000/svg">
<path d="M32.5549 15.8304C31.857 15.8251 31.1824 15.5779 30.6464 15.1308C30.1104 14.6837 29.746 14.0645 29.6155 13.3788C28.4626 7.72811 23.6164 4.07924 21.8553 2.91996C20.0879 4.07924 15.2417 7.72811 14.0888 13.3788C13.9583 14.0645 13.594 14.6837 13.058 15.1308C12.5219 15.5779 11.8474 15.8251 11.1494 15.8304C11.1494 5.78965 20.7911 0.379667 21.2028 0.157946C21.3979 0.0542336 21.6154 0 21.8363 0C22.0572 0 22.2748 0.0542336 22.4698 0.157946H22.5205C22.9133 0.386001 32.5549 5.78965 32.5549 15.8304Z" fill="#011A28"/>
<path d="M30.5848 32.6175L21.8553 28.0564L13.1196 32.6175L11.8716 30.2292L21.8553 25.0156L31.8327 30.2292L30.5848 32.6175Z" fill="#011A28"/>
<path d="M21.8553 20.2585C24.3044 20.2585 26.2897 18.2731 26.2897 15.8241C26.2897 13.375 24.3044 11.3896 21.8553 11.3896C19.4062 11.3896 17.4209 13.375 17.4209 15.8241C17.4209 18.2731 19.4062 20.2585 21.8553 20.2585Z" fill="#011A28"/>
<path d="M21.1395 63.5762L14.1141 50.5264C13.897 50.1196 13.8161 49.654 13.8834 49.1978C13.9507 48.7417 14.1626 48.3192 14.4879 47.9924L21.8617 40.6123L29.2228 47.9798C29.5499 48.3054 29.763 48.728 29.8303 49.1847C29.8977 49.6413 29.8157 50.1075 29.5965 50.5137L22.5712 63.5636C22.5032 63.694 22.4011 63.8035 22.2757 63.8804C22.1502 63.9573 22.0062 63.9986 21.8591 63.9999C21.712 64.0012 21.5674 63.9625 21.4406 63.8878C21.3138 63.8132 21.2097 63.7055 21.1395 63.5762ZM16.6734 49.6015L21.8617 59.2115L27.0373 49.6015L21.8617 44.4259L16.6734 49.6015Z" fill="#011A28"/>
<path d="M37.2173 33.0481L34.7277 31.7432C34.4214 32.4033 34.3822 33.1563 34.6183 33.8446C34.8545 34.533 35.3477 35.1033 35.9947 35.4364H36.0264C36.0771 35.4364 41.0436 37.9703 41.0436 41.5876V48.0681L21.8616 39.0789L2.686 48.0808V41.6002C2.686 37.964 7.65887 35.4744 7.75389 35.4364C8.377 35.1098 8.84998 34.5552 9.07422 33.8884C9.29846 33.2216 9.25665 32.4939 8.95751 31.8572L8.92582 31.7812L6.53759 33.0481C6.27152 33.1812 0 36.2979 0 41.6192V52.3378L21.8616 42.0563L43.7296 52.3188V41.6002C43.7232 36.2789 37.4517 33.1622 37.2173 33.0481Z" fill="#011A28"/>
<path d="M32.4284 41.2584H32.5551V21.0439C32.5551 20.3298 32.2714 19.645 31.7665 19.1401C31.2616 18.6352 30.5768 18.3516 29.8628 18.3516V38.6865C29.8858 39.0899 30.0112 39.4809 30.2274 39.8223C30.4436 40.1637 30.7432 40.4443 31.0981 40.6376L32.4284 41.2584Z" fill="#011A28"/>
<path d="M13.8417 38.6865V18.3516C13.1277 18.3516 12.4429 18.6352 11.938 19.1401C11.4331 19.645 11.1494 20.3298 11.1494 21.0439V41.3155L12.6064 40.6376C12.9759 40.4626 13.288 40.1864 13.5067 39.841C13.7254 39.4956 13.8415 39.0953 13.8417 38.6865Z" fill="#011A28"/>
<path d="M92.2501 26.0489H85.714L84.4252 29.0726H81.9219L87.8065 16.0039H90.1965L96.0953 29.0726H93.5566L92.2501 26.0489ZM91.457 24.144L88.9785 18.4293L86.5319 24.144H91.457Z" fill="#011A28"/>
<path d="M97.6675 16.0039H100.093V27.019H106.926V29.0726H97.6675V16.0039Z" fill="#011A28"/>
<path d="M110.928 18.0469V22.0231H117.238V24.0661H110.928V29.0691H108.5V16.0039H118.059V18.0469H110.928Z" fill="#011A28"/>
<path d="M137.714 16.0039L131.776 29.0726H129.198L127.155 19.403L122.684 29.0726H120.088L117.362 16.0039H119.883L121.912 25.9179L126.515 16.0039H128.752L130.831 25.9922L135.402 16.0039H137.714Z" fill="#011A28"/>
<path d="M145.121 26.0489H138.588L137.3 29.0726H134.796L140.67 16.0039H143.06L148.963 29.0726H146.421L145.121 26.0489ZM144.321 24.144L141.842 18.4293L139.399 24.144H144.321Z" fill="#011A28"/>
<path d="M153.613 24.4623V29.0652H151.188V24.4977L146.05 16H148.646L152.473 22.3733L156.34 16H158.73L153.613 24.4623Z" fill="#011A28"/>
<path d="M71.1549 21.4029V17.9825V16.0068H68.7295V29.0756H71.1549V26.2041V23.4742V21.4029Z" fill="#011A28"/>
<path d="M77.9141 16.0039V17.9796V21.3999V23.4712V26.2011V29.0726H80.343V16.0039H77.9141Z" fill="#011A28"/>
<path d="M74.5338 19.9199L69.938 22.3205V24.8132L74.5338 22.4126L79.1261 24.8132V22.3205L74.5338 19.9199Z" fill="#011A28"/>
<path d="M78.8657 34.0752H68.7295V41.6135C68.7295 45.498 71.185 47.9977 75.0106 47.9977C78.8362 47.9977 81.2769 45.4882 81.2769 41.6135V34.0752H78.8657Z" fill="#3800D8"/>
<path d="M89.8468 34.0752H83.8555V48.0075H88.8646V44.8449H89.8468C93.5251 44.8449 96.0002 42.6792 96.0002 39.4428C96.0002 36.2065 93.589 34.0752 89.8468 34.0752Z" fill="#3800D8"/>
</svg>
