<svg width="168" height="40" viewBox="0 0 168 40" fill="none" xmlns="http://www.w3.org/2000/svg">
<g clip-path="url(#clip0_503_9819)">
<path d="M18.0995 23.152C17.6054 23.152 17.196 22.9203 16.8783 22.4008L15.1629 19.7403H9.57214C3.90368 19.7403 0 15.4581 0 9.87013C0 4.2822 3.81191 0 9.5792 0H23.5774C29.3659 0 33.1848 4.22604 33.1848 9.87013C33.1848 15.5142 29.3094 19.7403 23.5774 19.7403L25.208 22.2604C25.2928 22.4079 25.3492 22.5483 25.3492 22.6957C25.3492 22.9273 25.2081 23.159 24.7986 23.159H18.1066L18.0995 23.152ZM21.5656 7.89751C21.5656 4.33836 20.662 3.38364 18.1278 3.38364H14.4359C12.1346 3.38364 11.231 4.39452 11.231 7.89751V11.0495C11.231 14.9596 12.2193 16.3145 14.4359 16.3145H18.1278C20.5138 16.3145 21.5656 14.9807 21.5656 11.0495V7.89751Z" fill="white"/>
<path d="M53.3957 23.152C52.9015 23.152 52.4921 22.9203 52.1744 22.4008L50.4591 19.7403H44.8683C39.1927 19.7403 35.2891 15.4581 35.2891 9.87013C35.2891 4.2822 39.108 0 44.8683 0H58.8665C64.6549 0 68.4739 4.22604 68.4739 9.87013C68.4739 15.5142 64.5984 19.7403 58.8665 19.7403L60.4971 22.2604C60.5818 22.4079 60.6383 22.5483 60.6383 22.6957C60.6383 22.9273 60.4971 23.159 60.0877 23.159H53.3957V23.152ZM56.8617 7.89751C56.8617 4.33836 55.9581 3.38364 53.4239 3.38364H49.732C47.4307 3.38364 46.5272 4.39452 46.5272 7.89751V11.0495C46.5272 14.9596 47.5154 16.3145 49.732 16.3145H53.4239C55.8099 16.3145 56.8617 14.9807 56.8617 11.0495V7.89751Z" fill="white"/>
<path d="M71.3393 19.7403C70.8452 19.7403 70.584 19.4805 70.584 18.961V0.751141C70.584 0.25974 70.8452 0 71.3393 0H96.6038C100.444 0 102.392 1.88136 102.392 4.97718C102.392 7.37803 100.91 8.27659 100.091 8.68375C101.34 9.09091 103.204 10.9091 103.204 13.8084C103.204 16.7076 101.051 19.7403 96.1026 19.7403H71.3323H71.3393ZM84.3775 10.6844C83.8833 10.6844 83.6221 10.4247 83.6221 9.93331V8.05195C83.6221 7.56055 83.8833 7.30081 84.3775 7.30081H89.1212C91.0413 7.30081 91.6554 6.49351 91.6554 5.3352C91.6554 4.1769 91.0413 3.39768 89.1212 3.39768H81.7868V16.3356H88.6271C90.8083 16.3356 91.7401 15.3247 91.7401 13.4714C91.7401 11.6181 90.8083 10.6915 88.6271 10.6915H84.3775V10.6844Z" fill="white"/>
<path d="M115.042 19.7403C109.543 19.7403 105.498 15.6055 105.498 9.87013C105.498 4.13478 109.31 0 115.042 0H135.386C135.909 0 136.17 0.25974 136.17 0.751141V2.60442C136.17 3.1239 135.909 3.38364 135.386 3.38364H121.854C119.32 3.38364 118.423 4.33836 118.423 7.89751V11.0495C118.423 14.9877 119.468 16.3145 121.854 16.3145H135.478C136 16.3145 136.262 16.5742 136.262 17.0937V18.947C136.262 19.4665 136 19.7262 135.478 19.7262H115.049L115.042 19.7403ZM121.275 10.6844C120.753 10.6844 120.492 10.4247 120.492 9.93331V8.05195C120.492 7.56055 120.753 7.30081 121.275 7.30081H135.189C135.683 7.30081 135.944 7.47631 135.944 7.82029V10.165C135.944 10.516 135.683 10.6844 135.189 10.6844H121.275Z" fill="white"/>
<path d="M147.245 19.7403C146.871 19.7403 146.694 19.6279 146.694 19.3612V3.38364H138.195C137.814 3.38364 137.645 3.2994 137.645 3.06774V0.37908C137.645 0.11934 137.821 0 138.195 0H166.742C167.116 0 167.293 0.11934 167.293 0.37908V3.06774C167.293 3.2994 167.116 3.38364 166.742 3.38364H158.215V19.3612C158.215 19.6209 158.038 19.7403 157.692 19.7403H147.245Z" fill="white"/>
<path d="M112.994 40.0003C112.712 40.0003 112.578 39.916 112.578 39.7195V27.8065H110.926C110.537 27.8065 110.34 27.6099 110.34 27.2238V25.8409C110.34 25.4759 110.537 25.2793 110.926 25.2793H117.392C119.538 25.2793 120.78 26.2059 120.78 27.8065V39.7195C120.78 39.916 120.646 40.0003 120.392 40.0003H112.994Z" fill="white"/>
<path d="M127.776 40.0003C124.261 40.0003 122.439 37.7328 122.439 35.4864C122.439 33.8928 123.456 32.3765 124.804 31.7517C123.696 31.0848 123.174 29.9827 123.174 28.8595C123.174 27.0694 124.564 25.2793 127.409 25.2793H139.261C142.106 25.2793 143.497 27.0694 143.497 28.8595C143.497 29.9827 142.974 31.0848 141.866 31.7517C143.214 32.3765 144.231 33.8858 144.231 35.4864C144.231 37.7328 142.41 40.0003 138.894 40.0003H127.783H127.776ZM134.913 37.452C136.607 37.452 137.475 36.392 137.475 35.3179C137.475 34.2438 136.607 33.1628 134.913 33.1628H131.765C130.049 33.1628 129.181 34.2438 129.181 35.3179C129.181 36.392 130.049 37.452 131.765 37.452H134.913ZM131.595 27.8065C130.204 27.8065 129.534 28.691 129.534 29.5334C129.534 30.4179 130.204 31.2814 131.595 31.2814H135.089C136.459 31.2814 137.129 30.4179 137.129 29.5334C137.129 28.6489 136.459 27.8065 135.089 27.8065H131.595Z" fill="white"/>
<path d="M150.993 40.0003C147.477 40.0003 145.656 37.7328 145.656 35.4864C145.656 33.8928 146.673 32.3765 148.021 31.7517C146.913 31.0848 146.39 29.9827 146.39 28.8595C146.39 27.0694 147.781 25.2793 150.626 25.2793H162.478C165.323 25.2793 166.714 27.0694 166.714 28.8595C166.714 29.9827 166.191 31.0848 165.083 31.7517C166.431 32.3765 167.448 33.8858 167.448 35.4864C167.448 37.7328 165.626 40.0003 162.111 40.0003H151H150.993ZM158.13 37.452C159.824 37.452 160.692 36.392 160.692 35.3179C160.692 34.2438 159.824 33.1628 158.13 33.1628H154.981C153.266 33.1628 152.398 34.2438 152.398 35.3179C152.398 36.392 153.266 37.452 154.981 37.452H158.13ZM154.812 27.8065C153.421 27.8065 152.751 28.691 152.751 29.5334C152.751 30.4179 153.421 31.2814 154.812 31.2814H158.306C159.676 31.2814 160.346 30.4179 160.346 29.5334C160.346 28.6489 159.676 27.8065 158.306 27.8065H154.812Z" fill="white"/>
<path d="M0 29.372V25.2793L105.498 27.3291L0 29.372Z" fill="white"/>
<path d="M0 34.6864V30.5938L105.498 32.6436L0 34.6864Z" fill="white"/>
<path d="M0 39.9997V35.9141L105.498 37.9569L0 39.9997Z" fill="white"/>
</g>
<defs>
<clipPath id="clip0_503_9819">
<rect width="167.442" height="40" fill="white"/>
</clipPath>
</defs>
</svg>
