<svg width="178" height="60" viewBox="0 0 178 60" fill="none" xmlns="http://www.w3.org/2000/svg">
<path d="M13.9878 54.463L13.5956 55.4622C13.3584 54.9867 13.1381 54.4717 12.9343 53.9424L13.9878 54.4632V54.463Z" fill="#9C9EA1"/>
<path d="M13.5015 52.3502L12.7332 53.3997C12.4911 52.7261 12.2776 52.0431 12.0923 51.3982L13.5015 52.3503V52.3502Z" fill="#9C9EA1"/>
<path d="M13.7173 49.9062L11.8937 50.6825C11.566 49.4607 11.3576 48.4675 11.2821 48.0944L15.0398 45.9963C15.0459 46.0042 15.0527 46.0129 15.0587 46.0218C14.9927 46.488 14.6938 48.2932 14.6938 48.2932L12.2619 48.0796L13.7175 49.9062H13.7173Z" fill="#9C9EA1"/>
<path d="M13.8532 52.8884L14.044 53.919L13.2701 53.529L13.8532 52.8884Z" fill="white"/>
<path d="M13.7063 50.5095L13.6316 51.6896L12.636 51.0018L13.7063 50.5095Z" fill="#5A5E62"/>
<path d="M14.3559 48.7442L14.0596 49.499L13.3695 48.689L14.3559 48.7442Z" fill="#9C9EA1"/>
<path d="M0.936813 45.5319C0.936813 45.5319 2.81825 44.4953 2.50006 43.9386C2.17785 43.378 0.472168 44.8157 0.472168 44.8157L0.936813 45.5319Z" fill="white"/>
<path d="M6.08002 39.2694C6.08002 39.2694 4.53608 39.9214 4.84075 40.3198C5.16537 40.7455 6.61081 39.9391 6.61081 39.9391L6.08002 39.2693V39.2694Z" fill="#5A5E62"/>
<path d="M0.844052 43.9549C0.844052 43.9549 2.64051 43.4696 2.53155 42.7666C2.42372 42.0635 0.145233 43.1798 0.145233 43.1798L0.844052 43.9549Z" fill="#EBEBEE"/>
<path d="M6.02461 37.9339C6.02461 37.9339 3.98706 37.3579 4.07735 38.1148C4.16635 38.8712 6.07949 38.8611 6.07949 38.8611L6.02461 37.9339Z" fill="#9C9EA1"/>
<path d="M3.85597 43.5415L2.28017 40.8813C2.28017 40.8813 0.545999 39.1632 0.44718 39.0613C0.427223 39.0407 0.332427 38.9684 0.198843 38.8696C0.173253 39.2121 0.155549 39.5541 0.150238 39.8953C0.367191 39.8775 0.593478 39.8512 0.834733 39.8026C0.834733 39.8026 0.762791 40.5837 1.31773 41.6834C1.31773 41.6834 2.42051 42.3428 3.03419 42.3401C3.03419 42.3401 2.99798 43.3608 3.13237 43.7882C3.13237 43.7882 3.88752 44.762 4.18559 44.7967L3.85597 43.5417V43.5415Z" fill="#9C9EA1"/>
<path d="M1.83103 35.8458C1.41837 35.7592 0.910112 35.8282 0.407806 35.9613C0.397344 36.7268 0.31816 37.4956 0.249115 38.2636C0.330714 38.3332 0.413117 38.402 0.492141 38.4738C0.556035 38.5322 0.61993 38.59 0.683181 38.6484C0.922827 38.868 1.16456 39.0939 1.40212 39.3243C2.16338 37.2387 1.83087 35.8458 1.83087 35.8458H1.83103Z" fill="#5A5E62"/>
<path d="M3.66207 42.0129C3.51851 41.7744 3.3648 41.5427 3.19855 41.3204C3.18825 41.3043 3.1773 41.29 3.16539 41.2752C2.84898 40.8538 2.4978 40.4482 2.12779 40.057C1.89152 39.8074 1.6485 39.5631 1.40225 39.3242C1.48063 39.2977 3.38895 38.6561 4.57993 39.1122C4.57993 39.1122 4.6163 40.8496 3.66223 42.0128L3.66207 42.0129Z" fill="#5A5E62"/>
<path d="M4.63253 44.58C4.58956 44.3272 4.53146 44.077 4.46097 43.8311C4.36005 43.4796 4.23114 43.1363 4.07889 42.8037C3.95528 42.5326 3.81574 42.2685 3.6622 42.0129C3.6622 42.0129 5.15415 42.0591 5.78715 42.7079C5.78715 42.7079 5.62266 43.7553 4.63253 44.5802V44.58Z" fill="#5A5E62"/>
<path d="M3.25188 37.6866C3.14871 37.4844 2.89233 37.412 2.68213 37.477C2.40869 37.5607 2.26642 37.8775 2.40451 38.1351C2.51926 38.3484 2.82087 38.4482 3.0375 38.335C3.27119 38.2132 3.36647 37.9105 3.25204 37.6866H3.25188Z" fill="#EBEBEE"/>
<path d="M5.21616 41.1235C5.08113 40.9819 4.85162 40.9394 4.71739 41.1523C4.65173 41.2566 4.65092 41.3979 4.71482 41.503C4.79819 41.6396 5.005 41.7121 5.15307 41.6461C5.36841 41.5503 5.36213 41.277 5.21616 41.1236V41.1235Z" fill="#EBEBEE"/>
<path d="M5.84239 44.2232C5.72458 44.1164 5.52533 44.1304 5.42539 44.2541C5.38869 44.2932 5.36713 44.3439 5.35988 44.3969C5.3557 44.4307 5.3557 44.4566 5.35924 44.482C5.38483 44.6599 5.59856 44.7666 5.7579 44.6887C5.93719 44.6011 5.99754 44.3644 5.84223 44.2231L5.84239 44.2232Z" fill="#EBEBEE"/>
<path d="M0.254841 38.2026C0.223779 38.545 0.194648 38.8871 0.17453 39.2287C2.22496 40.9305 4.80907 43.8317 4.41637 47.4426L4.61498 47.2059C4.61498 47.2059 6.07442 42.6972 0.255002 38.2026H0.254841Z" fill="white"/>
<path d="M24.6181 40.0554C24.364 39.9814 24.1119 39.9009 23.8628 39.8113C23.927 39.9159 23.9838 40.0286 24.0318 40.1534C24.4731 41.304 23.9054 42.9711 22.6633 43.3689C22.5561 43.4034 22.4454 43.4267 22.3335 43.4393C21.936 43.4839 21.4712 43.3857 21.1678 43.1143C20.7804 42.7677 20.6106 42.1796 20.8008 41.6897C20.951 41.3023 21.3274 40.9593 21.762 40.978C22.0959 40.9921 22.4165 41.1986 22.4772 41.5279C22.5812 42.0936 22.0084 42.0038 22.0084 42.0038C22.0084 42.0038 22.1769 41.6755 21.9228 41.5759C21.6686 41.4762 21.3712 41.8379 21.5563 42.2411C21.8692 42.923 22.7077 42.5161 22.9879 42.0276C23.2647 41.5455 23.209 40.6305 22.6443 40.3646C22.3135 40.2088 22.0312 40.367 22.0312 40.367C22.0312 40.367 21.4982 39.7266 20.7606 40.1354C20.0228 40.5441 19.7103 41.1661 19.8485 41.8722C19.8485 41.8722 19.0572 42.3754 19.4032 43.3857C19.8228 44.6087 21.1131 44.7967 21.7578 44.271C21.7578 44.271 22.3131 45.405 23.6069 44.7225C23.8694 44.5841 24.0653 44.4329 24.2125 44.2788C24.4427 42.8795 24.5933 41.4669 24.6183 40.0556L24.6181 40.0554Z" fill="#5A5E62"/>
<path d="M23.5807 40.1894C23.6515 40.1422 23.6797 40.0495 23.6344 39.974L23.6291 39.9658C23.587 39.8953 23.4848 39.8651 23.4141 39.9119C23.3433 39.9591 23.3151 40.0518 23.3605 40.1273L23.3655 40.1355C23.4077 40.206 23.51 40.2362 23.5807 40.1894Z" fill="#9C9EA1"/>
<path d="M23.8246 40.9573C23.9976 40.8536 23.8364 40.5845 23.6632 40.6885C23.4902 40.7925 23.6514 41.0614 23.8246 40.9573Z" fill="#9C9EA1"/>
<path d="M23.7831 41.761C23.8541 41.7142 23.8821 41.6212 23.8369 41.5459L23.8318 41.5375C23.7896 41.4672 23.6872 41.4369 23.6167 41.4836C23.5459 41.5307 23.5178 41.6234 23.563 41.6989L23.5681 41.7073C23.5656 41.7029 23.6002 41.8824 23.7833 41.7609L23.7831 41.761Z" fill="#9C9EA1"/>
<path d="M23.4016 42.4806C23.4726 42.4334 23.5006 42.3407 23.4554 42.2652L23.4504 42.2569C23.408 42.1865 23.3057 42.1564 23.235 42.2031C23.1642 42.2501 23.1361 42.3431 23.1814 42.4183L23.1863 42.4268C23.2286 42.497 23.3308 42.5272 23.4016 42.4806Z" fill="#9C9EA1"/>
<path d="M22.8424 43.012C22.9325 42.9578 22.8117 42.756 22.7212 42.8102C22.5915 42.8881 22.7123 43.0901 22.8424 43.012Z" fill="#9C9EA1"/>
<path d="M22.1127 43.2089C22.2424 43.131 22.1215 42.9292 21.9915 43.0074C21.8618 43.0853 21.9826 43.2868 22.1127 43.2089Z" fill="#9C9EA1"/>
<path d="M21.4993 42.9838C21.5859 42.9319 21.4462 42.7976 21.3596 42.8497C21.2732 42.9015 21.4129 43.0359 21.4993 42.9838Z" fill="#9C9EA1"/>
<path d="M21.0518 42.5084C21.1382 42.4563 21.1168 42.3217 21.03 42.3739C20.9434 42.4258 20.965 42.5602 21.0518 42.5084Z" fill="#9C9EA1"/>
<path d="M21.0451 41.999C21.0953 41.9689 21.015 41.8344 20.9645 41.8648C20.8781 41.9168 20.9585 42.0512 21.0451 41.999Z" fill="#9C9EA1"/>
<path d="M21.2955 41.54C21.3819 41.488 21.2423 41.3537 21.1556 41.4055C21.0692 41.4575 21.2089 41.5922 21.2955 41.54Z" fill="#9C9EA1"/>
<path d="M21.7141 41.3231C21.7644 41.2928 21.6838 41.1581 21.6333 41.1885C21.5467 41.2405 21.6273 41.3752 21.7141 41.3231Z" fill="#9C9EA1"/>
<path d="M22.0853 41.3515C22.1502 41.3125 22.0896 41.2118 22.0248 41.2507C21.9598 41.2895 22.0203 41.3908 22.0853 41.3515Z" fill="#9C9EA1"/>
<path d="M22.3006 41.5765C22.3655 41.5375 22.305 41.4366 22.2401 41.4756C22.1749 41.5149 22.2356 41.6158 22.3006 41.5765Z" fill="#9C9EA1"/>
<path d="M22.2822 41.8506C22.3471 41.8116 22.2867 41.7107 22.2217 41.7498C22.1568 41.7891 22.2172 41.8898 22.2822 41.8506Z" fill="#9C9EA1"/>
<path d="M23.238 44.012C23.2929 43.9772 23.4098 44.0693 23.4989 44.2177C23.5878 44.3661 23.6126 44.5096 23.5543 44.5381C23.4959 44.5666 23.379 44.4749 23.2934 44.3323C23.2078 44.1901 23.183 44.0464 23.2379 44.012H23.238Z" fill="white"/>
<path d="M22.7602 44.7077C22.6955 44.7026 22.6546 44.5545 22.6691 44.3772C22.6832 44.2 22.7475 44.0604 22.8122 44.0656C22.8769 44.0709 22.9179 44.2188 22.9034 44.396C22.8893 44.5733 22.825 44.7129 22.7602 44.7077Z" fill="white"/>
<path d="M20.2524 44.0297C20.2047 43.9857 20.2516 43.8576 20.357 43.7437C20.4622 43.6299 20.5863 43.5732 20.6341 43.6172C20.6819 43.6614 20.6351 43.7894 20.5297 43.9035C20.4244 44.0173 20.3002 44.0739 20.2525 44.0298L20.2524 44.0297Z" fill="white"/>
<path d="M19.7465 43.5295C19.7167 43.4719 19.8352 43.3514 20.0112 43.2604C20.1872 43.1695 20.3539 43.1426 20.3838 43.2003C20.4136 43.258 20.295 43.3786 20.1191 43.4695C19.943 43.5603 19.7761 43.5873 19.7465 43.5295Z" fill="white"/>
<path d="M19.6336 42.8469C19.6325 42.7819 19.7506 42.727 19.8977 42.7245C20.0446 42.7217 20.1649 42.7724 20.1658 42.8375C20.1671 42.9025 20.0487 42.957 19.9017 42.9598C19.7546 42.9623 19.6347 42.9116 19.6336 42.8469Z" fill="white"/>
<path d="M20.5267 40.4696C20.5664 40.4416 20.6646 40.5114 20.7462 40.6258C20.8276 40.7404 20.8614 40.856 20.8218 40.8843C20.7821 40.9128 20.6839 40.8428 20.6025 40.7284C20.5209 40.6139 20.4871 40.4982 20.5267 40.4697V40.4696Z" fill="white"/>
<path d="M21.0116 40.2316C21.0594 40.2217 21.1206 40.3207 21.1484 40.4525C21.1763 40.5848 21.1602 40.7 21.1125 40.7098C21.0649 40.7201 21.0036 40.621 20.9759 40.489C20.9481 40.3569 20.9643 40.2416 21.0118 40.2316H21.0116Z" fill="white"/>
<path d="M20.1729 40.9224C20.1966 40.8797 20.2919 40.8879 20.3857 40.9404C20.4795 40.9928 20.5362 41.0699 20.5127 41.1126C20.4885 41.1551 20.3933 41.147 20.2998 41.0944C20.2059 41.0421 20.1491 40.965 20.1729 40.9225V40.9224Z" fill="white"/>
<path d="M24.2552 39.9438C24.1237 39.9013 23.9927 39.8579 23.8626 39.811C23.9269 39.9156 23.9838 40.0285 24.0318 40.1534C24.4731 41.3043 23.905 42.9705 22.6633 43.3689C22.5558 43.4031 22.4457 43.4266 22.3335 43.4392C21.936 43.4838 21.4705 43.3854 21.1678 43.1143C20.7802 42.7673 20.6106 42.1798 20.8008 41.6896C20.9512 41.3019 21.3271 40.959 21.762 40.9779C21.9373 40.9853 22.4178 41.2051 22.4772 41.5278C22.581 42.0937 22.0084 42.0037 22.0084 42.0037C22.2596 42.1711 22.5057 42.0551 22.5992 41.7813C22.7116 41.4549 22.5133 41.0976 22.2392 40.9154C21.5875 40.4809 20.7281 40.9138 20.4266 41.5661C20.3917 41.6416 20.364 41.7206 20.3421 41.8013C20.2298 42.2265 20.3145 42.6768 20.5335 43.0539C20.7949 43.5042 21.2138 43.7941 21.7295 43.9077C22.4058 44.0577 23.0938 43.8203 23.5848 43.3661C24.2887 42.7156 24.6064 41.6651 24.4869 40.7246C24.4519 40.4493 24.3711 40.1873 24.255 39.9441L24.2552 39.9438Z" fill="white"/>
<path d="M6.27284 54.1466C6.27106 54.1398 6.2701 54.1322 6.26833 54.1253C6.17498 53.7735 5.25824 52.2228 4.52434 51.8301C4.24043 51.6785 3.98389 51.7009 3.81281 52.0313C3.60744 52.4295 3.56141 53.0736 3.66264 53.723C4.53448 53.864 5.41034 53.988 6.27284 54.1464V54.1466Z" fill="#EBEBEE"/>
<path d="M3.9251 49.298C4.06464 49.2251 4.16813 49.017 4.20547 48.6029C4.29302 47.6493 4.32698 45.1004 2.87172 44.9614C2.05509 44.8836 1.66142 45.7653 1.71389 46.331C1.78197 47.0533 2.13283 47.7133 2.57172 48.2811C2.76035 48.5261 3.45836 49.542 3.92494 49.298H3.9251Z" fill="#9C9EA1"/>
<path d="M7.84646 52.4069C7.35719 51.9872 6.758 51.6838 6.14335 51.4696C5.8308 51.3617 4.60344 50.8707 4.3823 51.2858C4.31664 51.4092 4.36766 51.626 4.60586 51.978C5.14148 52.7673 6.70698 54.7536 7.9654 54.3123C7.91068 53.6784 7.87157 53.0444 7.8463 52.4069H7.84646Z" fill="#5A5E62"/>
<path d="M4.31329 49.2698C4.70213 49.3437 5.24161 48.8624 5.46822 48.672C5.96876 48.2491 6.46076 47.6863 6.61672 46.9882C6.78732 46.2223 6.36436 45.1704 5.43024 45.289C5.05588 45.3366 4.75653 45.5864 4.55728 45.8975C4.11194 46.5926 3.58807 48.0178 3.98657 48.9675C4.06527 49.1552 4.18051 49.2445 4.31312 49.2698H4.31329Z" fill="#EBEBEE"/>
<path d="M7.38037 47.3586C7.3073 47.3775 7.23214 47.3915 7.16358 47.418C6.58805 47.6416 6.08171 48.0927 5.61498 48.4748C5.29518 48.7363 4.8072 49.1368 4.90087 49.5927C5.01804 50.1594 6.43241 49.9067 6.83976 49.828C7.07651 49.7818 7.37554 49.6986 7.67522 49.5811C7.58477 48.8385 7.46664 48.1004 7.38037 47.3586Z" fill="#5A5E62"/>
<path d="M7.79826 51.0387C7.78538 50.651 7.75239 50.266 7.71055 49.8823C7.32412 49.9346 6.62498 50.0885 6.04091 50.2961C5.32745 50.5509 4.79376 50.8832 5.24182 51.2013C5.90668 51.6748 6.84772 51.7787 7.62943 51.9683C7.6959 51.9846 7.76398 51.9971 7.83174 52.011C7.82031 51.688 7.8092 51.3649 7.79842 51.0387H7.79826Z" fill="#9C9EA1"/>
<path d="M0.645264 46.5268C0.71447 47.5744 0.835982 48.5975 0.827935 49.6518C1.3407 49.9217 1.8995 50.1459 2.30991 50.1543C2.65883 50.1601 2.89993 50.0104 2.91071 49.6002C2.93791 48.5923 1.84961 46.905 0.645264 46.5266V46.5268Z" fill="#5A5E62"/>
<path d="M3.61628 53.715C3.64396 53.3033 3.62111 52.8957 3.53774 52.4912C3.48334 52.2287 3.42749 51.7922 3.04493 51.8622C3.00887 51.8526 2.96719 51.8564 2.92293 51.8817C2.48645 52.1423 2.13656 52.5216 1.82578 52.9121C2.03227 53.1332 2.25775 53.3321 2.50448 53.5124C2.8732 53.5864 3.24369 53.6545 3.61644 53.7152L3.61628 53.715Z" fill="#9C9EA1"/>
<path d="M1.87338 52.965C1.98475 52.8419 2.09001 52.7191 2.18062 52.6013C2.3649 52.3612 2.69194 51.9841 2.69194 51.7332C2.69194 51.634 2.64092 51.5543 2.51023 51.5096C2.16903 51.395 1.61104 51.461 1.21045 51.4988C1.08475 51.5109 0.93137 51.5291 0.764954 51.5529C1.13078 52.0689 1.47665 52.5503 1.87338 52.965Z" fill="#5A5E62"/>
<path d="M0.76936 51.559C1.22033 51.4681 1.66308 51.3327 2.04935 51.1887C2.86163 50.8864 2.17183 50.378 1.75675 50.1047C1.57698 49.9861 1.41169 49.8928 1.33492 49.849C1.17188 49.7552 1.00192 49.6612 0.827461 49.571C0.827139 49.8224 0.822149 50.0748 0.804767 50.3305C0.775476 50.7593 0.755519 51.1563 0.753265 51.5362C0.758737 51.5437 0.764049 51.5513 0.769521 51.559H0.76936Z" fill="#9C9EA1"/>
<path d="M2.42842 51.2012C2.42842 51.2012 1.74714 51.6627 1.18851 52.1389C1.33931 52.3418 1.49301 52.5361 1.65203 52.7202C2.21501 52.3396 2.75803 51.8487 2.75803 51.8487C2.75803 51.8487 2.24897 52.4112 1.89521 52.989C2.08078 53.1808 2.28454 53.3529 2.50245 53.5121C2.55605 53.5228 2.609 53.5357 2.66275 53.546C3.03389 52.9916 3.32086 52.2863 3.32086 52.2863C3.32086 52.2863 3.12772 52.9906 3.11308 53.6286C3.38877 53.6772 3.66463 53.7248 3.94178 53.7683C3.98845 53.1461 3.91764 52.4136 3.91764 52.4136C3.91764 52.4136 4.13813 53.2943 4.4164 53.8415C4.63013 53.8742 4.84306 53.9083 5.05648 53.9413C5.14242 53.3357 4.5767 52.1793 4.5767 52.1793C4.5767 52.1793 5.83464 53.7551 6.52477 53.7609C7.2149 53.7657 5.12391 51.8078 5.12391 51.8078C5.12391 51.8078 6.72112 52.9958 7.35588 52.6769C7.99065 52.3591 5.34601 51.1302 5.34601 51.1302C5.34601 51.1302 7.65331 51.5949 7.63737 50.9154C7.62128 50.2369 5.3922 50.6529 5.3922 50.6529C5.3922 50.6529 7.76613 50.0453 7.4774 49.463C7.22713 48.9581 5.66838 49.7634 5.25782 49.9867C5.6605 49.76 7.1267 48.8865 6.55824 48.489C6.00701 48.1032 5.10782 49.071 4.83421 49.39C5.15964 48.995 6.31602 47.5327 5.76254 47.337C5.12085 47.1095 4.31066 49.221 4.31066 49.221C4.31066 49.221 5.04312 47.1086 4.12252 46.989C3.20192 46.8713 3.59913 49.1627 3.59913 49.1627C3.59913 49.1627 2.9288 46.9026 1.99274 47.0152C1.05557 47.129 2.72472 49.4991 2.72472 49.4991C2.72472 49.4991 1.45986 48.0617 0.780997 48.3207C0.801437 48.6218 0.817692 48.9237 0.824774 49.2276C1.36426 49.6826 2.35873 50.0513 2.28196 50.0968C2.21501 50.1369 1.46839 49.7358 0.827027 49.5519C0.827027 49.8095 0.822359 50.0683 0.804495 50.3305C0.80031 50.3917 0.798057 50.4477 0.794194 50.5076C1.48658 50.683 2.32429 50.6851 2.32429 50.6851C2.32429 50.6851 1.51184 50.7298 0.772306 50.8861C0.761362 51.1129 0.757821 51.3295 0.75766 51.5426C0.816244 51.6253 0.875632 51.709 0.933411 51.79C1.66844 51.5793 2.42842 51.2014 2.42842 51.2014V51.2012Z" fill="white"/>
<path d="M3.9722 48.103C3.26163 48.1117 2.2472 48.4618 1.8442 49.045C1.31147 49.816 1.33481 50.8697 1.67891 51.6552C1.70997 51.7252 1.74119 51.7885 1.77322 51.8477C1.77805 51.8595 1.78255 51.873 1.78787 51.8838C2.15337 52.744 2.88727 53.2204 3.9318 53.237C6.22944 53.2738 6.82042 50.7192 5.93974 49.2737C5.49553 48.5447 4.93802 48.0897 3.9722 48.1033V48.103Z" fill="#5A5E62"/>
<path d="M29.5444 35.872C29.5444 35.872 28.5062 37.9839 29.3785 38.3312C30.2511 38.6787 30.8606 36.5713 30.8606 36.5713L29.5444 35.8718V35.872Z" fill="#9C9EA1"/>
<path d="M31.1286 36.5701C31.1286 36.5701 30.1741 38.433 30.9645 38.7352C31.7553 39.0369 32.3743 36.7141 32.3743 36.7141L31.1286 36.5701Z" fill="#9C9EA1"/>
<path d="M32.5685 36.8569C32.5685 36.8569 31.6128 39.1386 32.6506 39.3454C33.6885 39.5523 33.5511 36.8569 33.5511 36.8569H32.5685Z" fill="white"/>
<path d="M34.7513 36.792L33.8611 37.036C33.8611 37.036 33.4966 39.3978 34.5478 39.3562C34.7654 39.3475 34.9241 39.2733 35.046 39.1624C34.9729 38.3678 34.8279 37.5854 34.7514 36.792H34.7513Z" fill="#9C9EA1"/>
<path d="M28.3581 45.9675C28.3001 46.3235 28.2337 46.6792 28.1703 47.0349C28.1468 47.3381 28.1225 47.6413 28.0956 47.9442C28.4031 48.0452 28.7545 47.9174 28.7545 47.9174C28.732 48.6894 29.607 48.4739 29.607 48.4739C29.4591 48.3773 28.4432 47.3281 28.3579 45.9677L28.3581 45.9675Z" fill="#5A5E62"/>
<path d="M33.0606 42.4222C33.0606 42.4222 33.1478 41.7895 32.6819 41.688C32.1872 41.5801 31.933 42.0844 31.933 42.0844C31.933 42.0844 31.5675 41.2724 30.827 41.4927C30.0933 41.712 30.0915 42.6251 30.0915 42.6251C30.0915 42.6251 29.4625 42.1172 28.7528 42.4496C28.7557 42.5128 28.7637 42.5725 28.7592 42.6404C28.7116 43.3671 28.6306 44.0922 28.5312 44.8166C28.6557 44.4795 28.8445 44.1363 29.1371 43.7922C31.2151 41.3481 33.7377 43.1917 33.7377 43.1917C33.5801 42.1809 33.0606 42.4224 33.0606 42.4224V42.4222Z" fill="#5A5E62"/>
<path d="M33.4401 44.5074C33.3388 43.881 33.399 43.3237 33.6177 42.8411C32.4861 42.3096 30.4906 41.7826 28.9415 43.5989C28.82 43.7413 28.7205 43.8854 28.6302 44.0299C28.5371 44.8402 28.4146 45.6491 28.2765 46.4574C28.4564 47.1746 28.8308 47.8203 29.1868 48.305C29.5705 48.1058 30.0205 47.9997 30.5336 47.9894C32.3458 47.955 33.3176 49.4719 33.7112 50.2964C33.9775 49.9737 34.2972 49.5609 34.6077 49.151C34.6119 48.2439 34.6138 47.3353 34.6196 46.4284C34.0645 46.004 33.5833 45.3924 33.4399 44.5074H33.4401Z" fill="#9C9EA1"/>
<path d="M34.6194 46.482C33.5308 46.3807 31.8661 46.9809 32.6261 48.7957C33.1608 49.2779 33.5108 49.8766 33.7114 50.2967C33.9776 49.974 34.2974 49.5611 34.6078 49.1512C34.612 48.262 34.6136 47.3712 34.6194 46.4821V46.482Z" fill="white"/>
<path d="M34.6198 46.4257C34.3854 46.2461 34.162 46.0377 33.9744 45.7845C33.4584 45.6067 32.6619 45.4868 32.0522 46.0908C31.4118 46.7251 31.4825 47.5734 31.6629 48.1885C32.0352 48.3345 32.3548 48.5502 32.6263 48.7956C31.8663 46.9808 33.5308 46.3808 34.6196 46.4819C34.6196 46.4631 34.6199 46.4444 34.6201 46.4256L34.6198 46.4257Z" fill="#EBEBEE"/>
<path d="M28.9415 43.599C28.82 43.7414 28.7205 43.8854 28.6302 44.03C28.5371 44.8403 28.4146 45.6492 28.2765 46.4575C28.4564 47.1747 28.8308 47.8204 29.1868 48.3051C29.3989 48.1947 29.6318 48.1131 29.8845 48.0603C29.3967 47.3868 28.6797 45.9507 29.9411 44.4391C31.2869 42.8272 32.7459 43.3975 33.4005 43.715C33.4236 43.4013 33.4961 43.11 33.6176 42.8414C32.486 42.3098 30.4904 41.7829 28.9413 43.5991L28.9415 43.599Z" fill="white"/>
<path d="M29.9413 44.439C31.2871 42.8272 32.7461 43.3974 33.4006 43.7149C33.3821 43.9652 33.3953 44.23 33.4401 44.5076C33.4578 44.6157 33.4809 44.7196 33.508 44.8197C32.845 44.5849 31.6726 44.3658 30.8735 45.3208C30.0494 46.3065 30.5122 47.4361 30.8426 47.9993C30.7423 47.9912 30.6393 47.9877 30.5336 47.9895C30.3044 47.9944 30.0878 48.0176 29.8845 48.0601C29.3965 47.3867 28.6797 45.9505 29.9411 44.4389L29.9413 44.439Z" fill="#5A5E62"/>
<path d="M30.8735 45.3208C31.6725 44.3656 32.845 44.5848 33.508 44.8196C33.6089 45.1924 33.7721 45.512 33.9742 45.7845C33.4582 45.6068 32.6617 45.4867 32.0521 46.0908C31.4117 46.7252 31.4823 47.5734 31.6626 48.1885C31.4136 48.09 31.1403 48.0234 30.8426 47.9992C30.512 47.4361 30.0493 46.3064 30.8735 45.3208Z" fill="#9C9EA1"/>
<path d="M34.6198 46.4282C34.63 44.8501 34.6433 43.2708 34.6567 41.6914C34.4109 41.8482 34.1716 42.0395 33.968 42.2835C33.4749 42.8745 33.2974 43.6231 33.4403 44.5073C33.5835 45.392 34.0647 46.0034 34.62 46.428L34.6198 46.4282Z" fill="white"/>
<path d="M33.8911 50.7196C33.7091 50.2252 32.7497 47.9472 30.5337 47.9893C29.6379 48.0071 28.9331 48.3154 28.4401 48.9064C28.1866 49.2099 28.0197 49.5536 27.9056 49.8872C27.7545 51.3069 27.5821 52.7243 27.4089 54.1421C27.913 54.1028 28.4906 54.1793 29.1281 54.331C31.2223 53.9678 33.19 53.2818 34.5748 51.5786C34.5837 51.5678 34.5935 51.5613 34.6023 51.5509C34.6039 51.1321 34.6036 50.7127 34.6052 50.2939C34.2421 50.4268 34.0002 50.6153 33.8913 50.7194L33.8911 50.7196Z" fill="white"/>
<path d="M33.0701 50.7483C33.0701 50.7483 31.5517 48.5274 30.1049 48.8982C28.6583 49.2689 28.3651 51.5452 28.3651 51.5452C28.3651 51.5452 29.0619 49.9199 30.3115 49.7469C31.9415 49.5206 33.0703 50.7483 33.0703 50.7483H33.0701Z" fill="#5A5E62"/>
<path d="M33.1978 52.3197C29.8427 50.4125 29.0808 53.9492 29.0808 53.9492C29.0808 53.9492 29.0547 53.9362 29.0179 53.9185C29.0514 54.0512 29.0729 54.1871 29.0747 54.3247C29.0929 54.3281 29.1098 54.3269 29.1281 54.3313C30.7664 54.0471 32.3254 53.5629 33.5901 52.5506C33.4648 52.4743 33.3342 52.3972 33.1978 52.3197Z" fill="#9C9EA1"/>
<path d="M34.6136 47.209C32.9734 47.9741 33.0331 50.4002 34.6029 51.2205C34.6068 49.8837 34.6057 48.5451 34.6136 47.209Z" fill="#5A5E62"/>
<path d="M34.5746 51.5786C34.5835 51.5678 34.5931 51.5614 34.6022 51.5509C34.6025 51.4518 34.6026 51.3523 34.6028 51.2532C34.6012 51.2537 34.5997 51.254 34.5981 51.2545C33.8369 51.524 33.3956 52.1268 33.2483 52.8C33.7294 52.4625 34.1781 52.0663 34.5745 51.5786H34.5746Z" fill="#9C9EA1"/>
<path d="M34.6029 51.2264C34.6065 50.0401 34.6044 48.8523 34.6111 47.6665C33.4753 48.5134 33.5096 50.334 34.6029 51.2264Z" fill="#9C9EA1"/>
<path d="M33.2858 41.2126C33.2282 40.7842 33.9314 40.5654 34.1063 41.0798C34.1661 41.2557 34.1044 41.4727 33.9472 41.5715C33.7518 41.6951 33.4408 41.5583 33.3399 41.3716C33.3098 41.3162 33.2928 41.263 33.2858 41.2126Z" fill="#9C9EA1"/>
<path d="M33.271 39.6888C33.6586 39.6367 33.8565 40.2729 33.3911 40.4311C33.2319 40.485 33.0357 40.4293 32.9462 40.287C32.8344 40.1102 32.9583 39.829 33.1271 39.7377C33.1774 39.7105 33.2255 39.6951 33.271 39.6888Z" fill="#5A5E62"/>
<path d="M31.5746 40.3944C31.7508 40.1454 32.1224 40.0859 32.3267 40.3242C32.4598 40.48 32.487 40.7179 32.3927 40.8994C32.0909 41.4796 31.2126 41.0253 31.5477 40.4372C31.5559 40.4224 31.5653 40.4081 31.5746 40.3944Z" fill="#9C9EA1"/>
<path d="M31.0824 39.7688C31.1339 40.0694 30.9132 40.3743 30.6002 40.3503C30.3959 40.3342 30.2084 40.1851 30.1468 39.9901C29.95 39.3664 30.8921 39.0667 31.0711 39.7194C31.0758 39.7358 31.0793 39.7524 31.0824 39.7686V39.7688Z" fill="#5A5E62"/>
<path d="M18.8279 42.0971C18.8794 42.3978 18.6587 42.7026 18.3457 42.6786C18.1415 42.6625 17.954 42.5135 17.8923 42.3184C17.6955 41.6948 18.6376 41.3951 18.8166 42.0477C18.8213 42.0642 18.8248 42.0807 18.8279 42.097V42.0971Z" fill="white"/>
<path d="M28.8059 41.1816C28.7359 41.0126 28.7639 40.8155 28.8563 40.671C29.1778 40.1699 29.9743 40.2705 29.9354 41.0089C29.9087 41.5188 29.2253 41.7813 28.8627 41.2824C28.8394 41.2505 28.8205 41.2167 28.8059 41.1815V41.1816Z" fill="#9C9EA1"/>
<path d="M21.376 39.0842C19.3319 38.7209 17.1442 38.7972 15.0102 39.0827C14.4644 42.6068 13.9216 47.4037 15.0667 47.1265C16.8656 46.6928 19.0373 44.6256 19.0373 44.6256C17.0519 42.1436 15.9644 41.9541 15.9644 41.9541C19.2033 41.179 20.8074 39.7172 21.376 39.0842Z" fill="#9C9EA1"/>
<path d="M15.5038 29.4186C16.2068 28.4665 17.0793 26.947 17.8245 24.6181C17.8245 24.6181 15.0884 23.7991 10.944 25.0351C10.944 25.0351 12.1781 23.997 12.6529 20.8543C12.6529 20.8543 9.87803 20.1696 7.02868 21.3479C5.72036 21.888 10.615 27.115 12.9936 29.5478C13.8305 29.5094 14.6672 29.4672 15.5037 29.4188L15.5038 29.4186Z" fill="#9C9EA1"/>
<path d="M15.9641 38.9718L16.0322 40.4995C17.968 39.9764 19.3328 38.8732 19.3328 38.8732C19.3272 38.8682 19.3214 38.8638 19.3158 38.8588C18.2104 38.808 17.084 38.8574 15.964 38.9717L15.9641 38.9718Z" fill="white"/>
<path d="M15.7717 43.7365C15.7717 43.7365 16.3458 43.8961 17.2201 44.9215C17.2201 44.9215 16.2616 45.5566 15.4185 45.7047L15.7717 43.7363V43.7365Z" fill="white"/>
<path d="M12.0365 26.4871C12.0365 26.4871 14.1542 25.7648 15.3036 25.9298C15.3036 25.9298 14.8354 27.7142 13.4927 28.9499L12.0365 26.4871Z" fill="white"/>
<path d="M9.74832 23.7008C9.74832 23.7008 10.6789 22.294 10.4207 21.333C10.4207 21.333 8.99446 21.3695 7.99612 22.0952L9.74816 23.701L9.74832 23.7008Z" fill="white"/>
<path d="M7.88457 21.1181C6.73785 21.5386 5.67578 22.1465 4.78769 22.9163C4.32867 23.3126 3.9099 23.7471 3.53747 24.2072C3.2563 24.5515 3.00459 24.9122 2.77621 25.2864C2.59418 25.5859 2.42953 25.8962 2.2842 26.2205C2.18538 26.436 2.09606 26.6581 2.01398 26.8852C3.49048 28.0857 4.91692 29.549 6.07073 31.1531C7.06022 29.5239 9.77695 29.6676 11.4237 29.6154C12.5217 29.5807 13.6185 29.5245 14.7152 29.4634C12.9033 25.4787 10.2361 22.8164 7.88441 21.1179L7.88457 21.1181Z" fill="#EBEBEE"/>
<path d="M16.8321 38.8975C14.8842 39.033 12.9417 39.3933 11.14 39.8021C11.1562 42.2379 11.2835 44.6261 11.4239 47.0335C12.2955 47.1932 13.2345 47.6007 14.0983 47.3866C14.8756 47.194 15.5717 47.0004 15.8688 46.8442C16.4493 44.7687 16.9137 41.9374 16.8321 38.8975Z" fill="white"/>
<path d="M7.02894 21.3479C5.88318 21.7681 4.82208 22.38 3.93511 23.1537C3.47691 23.5528 3.05845 23.9888 2.68699 24.4522C2.40631 24.7979 2.15395 25.1603 1.92637 25.5379C1.74483 25.8394 1.58147 26.151 1.43694 26.4782C1.42584 26.5026 1.41795 26.5292 1.40717 26.5538C1.47331 26.6019 1.53962 26.6484 1.6032 26.7102C2.98619 28.0578 4.7606 29.4699 6.11172 31.0884C7.13372 29.5284 9.79911 29.6671 11.4237 29.6158C12.2054 29.591 12.9866 29.5544 13.7675 29.5145C11.9501 25.6348 9.33559 23.0275 7.02894 21.3481V21.3479Z" fill="#5A5E62"/>
<path d="M16.0112 38.967C14.3397 39.1347 12.6881 39.45 11.14 39.8012C11.1575 42.4191 11.3038 44.9833 11.4551 47.5748C12.0572 47.6321 12.6631 47.635 13.2681 47.5619C13.8652 47.4903 14.4659 47.3471 15.0667 47.1266C15.6631 44.9649 16.1411 42.1615 16.0114 38.967H16.0112Z" fill="#5A5E62"/>
<path d="M6.46678 30.674C7.65439 29.5622 9.94494 29.6614 11.4082 29.6163C11.8216 28.4668 11.8887 27.4469 11.8887 27.4469C9.75342 26.3773 7.12585 27.7284 7.12585 27.7284C8.29784 25.1186 7.70766 22.701 7.70766 22.701C5.46796 22.6296 2.68701 24.4526 2.68701 24.4526L4.02784 28.7266C4.8398 29.3789 5.66222 30.0177 6.46678 30.674Z" fill="white"/>
<path d="M15.3829 39.8084C15.255 39.5494 15.0858 39.3143 14.8924 39.0986C13.6042 39.2757 12.3412 39.5274 11.14 39.7999C11.156 42.2044 11.2801 44.5622 11.4185 46.9382C13.3254 46.4145 14.6495 45.7236 14.6495 45.7236C13.355 42.7851 11.2587 42.1273 11.2587 42.1273C13.9776 41.3478 15.3829 39.8082 15.3829 39.8082V39.8084Z" fill="#EBEBEE"/>
<path d="M6.10904 26.8048C6.10904 26.8048 6.75587 25.3189 6.5658 24.2012C6.5658 24.2012 5.05212 24.4722 4.07648 25.236L6.1092 26.8048H6.10904Z" fill="white"/>
<path d="M9.91568 29.6525C10.2661 28.9996 10.3311 28.4305 10.3311 28.4305C9.42593 28.2943 8.0394 28.9225 8.0394 28.9225L8.54766 29.7838C8.99927 29.7096 9.46488 29.672 9.91585 29.6525H9.91568Z" fill="white"/>
<path d="M13.0295 39.4048C12.4244 39.5187 11.829 39.643 11.2487 39.7737L11.2675 40.8616C12.4973 40.6072 13.3353 39.6942 13.3353 39.6942C13.2432 39.5865 13.1398 39.4907 13.0297 39.4048H13.0295Z" fill="white"/>
<path d="M11.3588 45.8567C12.3464 45.637 13.1042 45.2556 13.1042 45.2556C12.6183 44.32 11.6899 43.7427 11.2411 43.5061C11.2761 44.2896 11.3147 45.0737 11.3588 45.8569V45.8567Z" fill="white"/>
<path d="M5.99498 31.2861C6.49503 30.3236 7.55308 29.9269 8.69096 29.7608C6.96032 27.0566 4.70341 25.4292 2.68694 24.4524C2.40625 24.7981 2.15389 25.1605 1.92632 25.5381C1.74477 25.8396 1.58141 26.1512 1.43688 26.4784C1.37653 26.6115 1.32825 26.7529 1.27417 26.8905C3.03828 28.0247 4.60845 29.5899 5.99498 31.2861Z" fill="white"/>
<path d="M11.1998 42.5022C11.3348 41.6218 11.417 40.698 11.4256 39.7341C11.3293 39.7555 11.2353 39.7776 11.1397 39.7992C11.1457 40.7056 11.1668 41.6061 11.1996 42.5022H11.1998Z" fill="white"/>
<path d="M9.95791 25.3541C9.8578 25.0391 9.54123 24.8341 9.21017 24.9229C8.88216 25.011 8.65974 25.3613 8.75968 25.6758C8.85995 25.9913 9.17637 26.1958 9.50727 26.1068C9.83447 26.019 10.0577 25.6684 9.95775 25.3539L9.95791 25.3541Z" fill="white"/>
<path d="M14.9412 42.4219C14.8531 42.0939 14.5039 41.8716 14.1892 41.9713C13.8738 42.0715 13.6694 42.3884 13.7582 42.7193C13.8463 43.0469 14.1965 43.2693 14.511 43.1693C14.8256 43.0699 15.0299 42.7525 14.9412 42.4219Z" fill="white"/>
<path d="M5.38079 26.2649C5.17704 25.5061 3.99812 25.8222 4.20204 26.5815C4.40563 27.3392 5.58487 27.0246 5.38079 26.2649Z" fill="#9C9EA1"/>
<path d="M17.5322 27.501C17.53 27.2914 17.5332 27.0638 17.6235 26.8559C17.7167 26.6425 17.9885 26.4803 18.2217 26.6299C18.4335 26.7656 18.471 27.0637 18.4647 27.2837C18.4575 27.57 18.3223 27.8542 18.119 28.1018C17.9409 28.3194 17.7142 28.5109 17.4656 28.6747C17.4532 28.6828 17.439 28.6916 17.427 28.7006C17.4133 28.7079 17.4001 28.7167 17.3867 28.7249C17.1865 28.8487 16.9712 28.9548 16.7476 29.0418C16.7204 29.0523 16.6969 29.0616 16.6742 29.0698C16.8432 28.9804 17.5485 28.558 17.5322 27.501Z" fill="#5A5E62"/>
<path d="M17.9237 29.2813C18.4112 29.2535 18.8989 29.2266 19.3867 29.202C19.1516 29.0142 18.8305 28.9139 18.4948 28.883C18.199 28.8555 17.8911 28.8796 17.5917 28.9356C17.5751 28.9395 17.56 28.9416 17.5444 28.9446C17.5288 28.9483 17.513 28.9515 17.4974 28.9551C17.2621 29.0059 17.0305 29.079 16.8095 29.1716C16.7833 29.1822 16.7591 29.1923 16.7376 29.2012C16.8745 29.1625 17.3495 29.0541 17.9239 29.2812L17.9237 29.2813Z" fill="#5A5E62"/>
<path d="M19.581 28.2401C19.2812 28.4259 18.8452 28.5487 18.4983 28.6092C18.3242 28.6404 18.1702 28.6584 18.0606 28.6676C17.9503 28.6781 17.8845 28.6806 17.8845 28.6806C17.8845 28.6806 17.9275 28.6359 18.0026 28.5638C18.0775 28.4907 18.1808 28.3926 18.2986 28.283C18.5365 28.0639 18.8189 27.8054 19.083 27.6416C19.3496 27.4792 19.5884 27.3638 19.7862 27.3081C19.9838 27.2519 20.1393 27.2553 20.2206 27.33C20.3014 27.4027 20.2933 27.5352 20.1876 27.6979C20.083 27.861 19.8813 28.0567 19.581 28.2401Z" fill="white"/>
<path d="M14.9585 23.7434C15.1774 23.8667 15.4164 23.9954 15.674 24.0358C15.9383 24.0769 16.2243 23.929 16.1676 23.6365C16.1158 23.3703 15.8189 23.1648 15.587 23.0428C15.2831 22.8847 14.9264 22.8398 14.5794 22.8765C14.2757 22.9089 13.9772 22.9984 13.6996 23.1238C13.6851 23.1313 13.67 23.1369 13.6561 23.1437C13.6416 23.1513 13.6267 23.1579 13.6131 23.1651C13.3965 23.27 13.1937 23.3998 13.0062 23.5482C12.9848 23.5647 12.9644 23.5816 12.9464 23.596C13.1123 23.4989 13.8566 23.118 14.9585 23.7435V23.7434Z" fill="#5A5E62"/>
<path d="M15.4277 21.9401C15.1968 22.208 14.8065 22.4358 14.4836 22.5744C14.3211 22.645 14.174 22.6965 14.069 22.7303C13.9628 22.7635 13.8979 22.781 13.8979 22.781C13.8979 22.781 13.9256 22.7218 13.9729 22.6275C14.0209 22.5322 14.0885 22.4009 14.1666 22.2554C14.3228 21.9644 14.5105 21.6193 14.7136 21.3832C14.9191 21.1474 15.1153 20.9707 15.2932 20.8675C15.4689 20.7649 15.625 20.7354 15.7338 20.8011C15.8402 20.8648 15.88 21.0129 15.8344 21.2141C15.79 21.4154 15.6606 21.6753 15.4276 21.9402L15.4277 21.9401Z" fill="white"/>
<path d="M23.7197 50.2623L23.1104 47.0056C23.1104 47.0056 19.5324 45.5708 17.0225 48.6492C14.5121 51.7277 16.8815 54.849 16.8815 54.849L22.1974 54.2556L23.5617 52.173C23.591 51.5334 23.6426 50.8964 23.7199 50.2621L23.7197 50.2623Z" fill="#EBEBEE"/>
<path d="M15.9995 50.5185C15.0863 49.6927 16.104 49.6428 16.3292 49.6428C16.1819 49.938 16.0773 50.2346 15.9995 50.5185Z" fill="#9C9EA1"/>
<path d="M17.5576 48.0184C17.2252 47.2264 18.0861 47.3821 18.3101 47.4344C18.0467 47.6037 17.7954 47.7978 17.5576 48.0184Z" fill="#9C9EA1"/>
<path d="M16.3461 49.6097C15.7776 48.8459 16.6172 48.8255 16.8305 48.8317C16.6367 49.0923 16.4767 49.3522 16.3461 49.6097Z" fill="#EBEBEE"/>
<path d="M15.8395 51.4688C14.8676 50.9269 15.8426 50.5915 16.0132 50.5376C15.9274 50.859 15.8571 51.1714 15.8395 51.4688Z" fill="#5A5E62"/>
<path d="M15.886 52.469C14.8986 52.2938 15.6585 51.6523 15.8368 51.5134C15.8207 51.8546 15.8426 52.1756 15.886 52.469Z" fill="#9C9EA1"/>
<path d="M16.9914 48.6237C16.945 48.6807 16.9005 48.7377 16.8578 48.7946C16.4439 47.9601 17.3062 48.0218 17.5252 48.0495C17.3394 48.225 17.1607 48.4162 16.9914 48.6235V48.6237Z" fill="#EBEBEE"/>
<path d="M16.1367 53.4705C16.2371 53.7561 16.35 54.008 16.456 54.2163C15.4345 54.1743 15.9907 53.6045 16.1367 53.4705Z" fill="#EBEBEE"/>
<path d="M21.2828 46.6355C21.9157 45.7035 22.2395 46.5451 22.3047 46.7468C22.0179 46.6914 21.6702 46.6455 21.2828 46.6355Z" fill="#EBEBEE"/>
<path d="M15.892 52.5078C15.9142 52.6496 15.9414 52.7851 15.9718 52.9126C16.0165 53.0982 16.0692 53.2745 16.1258 53.4395C15.0576 53.3722 15.7254 52.6681 15.892 52.5078Z" fill="#5A5E62"/>
<path d="M18.3581 47.4044C18.2701 46.4655 18.9826 46.881 19.1601 46.9977C18.8811 47.1084 18.6136 47.2444 18.3581 47.4044Z" fill="#9C9EA1"/>
<path d="M19.7169 46.8136C19.5436 46.8599 19.3744 46.9161 19.209 46.9797C19.4113 46.0583 19.9812 46.578 20.1212 46.7239C19.9876 46.7479 19.8529 46.7775 19.7169 46.8138V46.8136Z" fill="#5A5E62"/>
<path d="M20.1707 46.7143C20.6065 45.7105 21.1227 46.4518 21.2352 46.6348C20.9033 46.6288 20.5441 46.6498 20.1707 46.7143Z" fill="#5A5E62"/>
<path d="M23.736 50.1316L23.1454 46.9768L23.125 46.9691C23.1092 46.9625 21.5078 46.3342 19.7169 46.8133C18.6566 47.097 17.7397 47.7062 16.9913 48.6236C15.6842 50.2268 15.7156 51.8404 15.9715 52.9124C16.2492 54.0722 16.8438 54.8647 16.8498 54.8726L16.8633 54.8904L22.22 54.293L23.5584 52.2506C23.5893 51.541 23.6455 50.8343 23.736 50.1315V50.1316Z" fill="#5A5E62"/>
<path d="M23.6866 50.5285L23.0311 48.0783L22.2824 47.2416C22.2824 47.2416 19.087 46.7819 17.4724 49.1587C15.8578 51.536 16.6679 53.3085 16.9304 54.2117C17.1874 55.0971 20.4459 55.2349 20.4459 55.2349C20.4459 55.2349 22.72 53.4976 22.8277 53.4038C22.8896 53.3494 23.2582 52.7438 23.559 52.2411C23.5841 51.6683 23.6248 51.0973 23.6866 50.5287V50.5285Z" fill="white"/>
<path d="M24.1397 47.2946C23.9251 46.7256 23.9011 46.0706 24.2771 45.1152C24.2771 45.1152 22.8593 45.1218 22.1396 47.2801C21.4192 49.4387 22.6038 52.3664 22.6038 52.3664L23.0604 53.1724L23.5266 53.1652C23.5622 51.5487 23.6753 49.9413 24.0539 48.3636C24.0716 48.0061 24.0983 47.6496 24.1395 47.2947L24.1397 47.2946Z" fill="#9C9EA1"/>
<path d="M22.9078 55.4397C22.8964 54.9077 22.7287 54.4536 22.7287 54.4536L22.5444 53.6698L21.651 53.4242C21.651 53.4242 18.5222 52.9926 16.6054 54.2193C15.8815 54.6823 15.4801 55.1666 15.2604 55.5904C17.8067 55.4879 20.3723 55.5188 22.9078 55.4399V55.4397Z" fill="#9C9EA1"/>
<path d="M22.7395 52.8489C22.7395 52.8489 23.0766 46.5243 21.7167 47.4259C20.357 48.3283 22.7395 52.8489 22.7395 52.8489Z" fill="#5A5E62"/>
<path d="M22.6399 53.1969C22.5708 53.1463 18.3092 48.7236 19.4043 48.0167C20.4987 47.3097 22.6399 53.1969 22.6399 53.1969Z" fill="#9C9EA1"/>
<path d="M22.3841 53.2239C22.3841 53.2239 17.353 50.567 17.8347 49.3752C18.3166 48.1834 22.3841 53.2239 22.3841 53.2239Z" fill="#EBEBEE"/>
<path d="M22.3323 53.3905C22.3323 53.3905 16.8161 52.7396 17.0984 51.4213C17.3809 50.1035 22.3323 53.3905 22.3323 53.3905Z" fill="#9C9EA1"/>
<path d="M22.3599 53.4936C22.3599 53.4936 17.4588 55.1417 16.9525 53.8688C16.4461 52.5965 22.3599 53.4936 22.3599 53.4936Z" fill="#5A5E62"/>
<path d="M22.8627 51.7008C22.8656 51.6986 22.8691 51.6978 22.8722 51.6965C22.9209 51.6381 22.9852 51.6043 23.0672 51.6091C23.1466 51.6138 23.205 51.6595 23.2493 51.7219C23.2694 51.7293 23.2877 51.7422 23.3014 51.7673C23.4548 52.0588 23.4421 52.4473 23.35 52.7607C23.2967 52.9433 23.0677 53.2728 22.849 53.1136C22.5434 52.8921 22.4972 51.9178 22.8628 51.701L22.8627 51.7008Z" fill="#EBEBEE"/>
<path d="M21.851 52.201C21.8706 52.193 21.8898 52.1883 21.909 52.1832C22.0023 52.1305 22.1322 52.1342 22.2481 52.1848C22.5423 52.3139 22.6321 52.6013 22.681 52.8978C22.682 52.9024 22.6834 52.9069 22.6845 52.9119V52.9166L22.6849 52.9197C22.7137 53.0988 22.6021 53.2073 22.4489 53.2037C22.409 53.2105 22.3672 53.2118 22.3244 53.2052C22.0102 53.1554 21.3899 52.3942 21.8512 52.201H21.851Z" fill="#5A5E62"/>
<path d="M21.4723 54.107C21.7221 54.2084 22.0394 54.2216 22.3048 54.1925C22.5377 54.1682 22.6074 53.9789 22.4642 53.7929C22.4389 53.7605 22.409 53.7332 22.3768 53.7082C22.2511 53.5621 22.0301 53.4927 21.8516 53.4694C21.6617 53.4449 21.2822 53.4571 21.1583 53.6408C21.0104 53.86 21.307 54.0398 21.4724 54.107H21.4723Z" fill="#5A5E62"/>
<path d="M22.0769 54.8877C22.1142 54.7687 22.1964 54.6381 22.2924 54.5241C22.3172 54.4675 22.3452 54.4116 22.3757 54.3564C22.4556 54.212 22.6957 54.0268 22.8423 54.195C22.978 54.3503 22.8959 54.5951 22.828 54.772C22.824 54.7853 22.8206 54.798 22.8158 54.8109C22.7692 54.9326 22.7266 55.0831 22.6473 55.1875C22.594 55.2569 22.5051 55.3166 22.4132 55.3164C22.3843 55.3164 22.36 55.31 22.3394 55.3C22.139 55.3034 22.0205 55.0671 22.0769 54.8878V54.8877Z" fill="#5A5E62"/>
<path d="M21.3552 52.9714C21.4064 52.8259 21.7065 52.8288 21.8488 52.8474C21.9201 52.8573 22.0019 52.8872 22.0806 52.9308C22.2719 53.0028 22.4691 53.1423 22.515 53.3089C22.5396 53.3982 22.5108 53.4869 22.431 53.5384C22.3703 53.5778 22.3036 53.577 22.2373 53.5636C22.121 53.576 21.9727 53.5323 21.8807 53.5057C21.6843 53.4486 21.3679 53.3361 21.3179 53.1011C21.3056 53.043 21.3222 53.0015 21.3552 52.9712V52.9714Z" fill="#EBEBEE"/>
<path d="M22.7481 54.2362C22.7855 54.077 22.8635 53.9465 23.0092 53.9788C23.1608 54.0126 23.2738 54.2191 23.3123 54.353C23.3626 54.5264 23.4135 54.9361 23.2358 55.0626C22.9838 55.2414 22.761 54.87 22.7267 54.6603C22.7124 54.5738 22.7113 54.3913 22.7481 54.2363V54.2362Z" fill="#EBEBEE"/>
<path d="M21.5089 54.3033C21.5122 54.2981 21.5155 54.2928 21.5192 54.288C21.6527 54.0968 21.9493 53.8842 22.1744 53.8318C22.4353 53.771 22.6494 53.9468 22.5783 54.2295C22.5385 54.3884 22.4109 54.5131 22.2655 54.5888C22.0415 54.7056 21.1917 54.8154 21.5091 54.3033H21.5089Z" fill="#EBEBEE"/>
<path d="M22.6318 52.9293C22.6347 52.928 22.6378 52.9276 22.6405 52.9263C23.013 52.8017 23.3596 53.1032 23.409 53.4683C23.4762 53.9682 22.9594 54.4245 22.4933 54.1348C22.2193 53.9644 22.1353 53.6047 22.2477 53.313C22.3148 53.1389 22.4559 52.9918 22.6317 52.9293H22.6318Z" fill="white"/>
<path d="M34.9976 31.9223C34.8744 29.8046 34.588 27.6618 33.997 25.6181C30.8087 21.6845 27.1453 20.0262 23.5992 19.6181C23.3355 19.5875 23.0739 19.5637 22.8138 19.5468C21.9852 19.4935 21.1655 19.5051 20.3639 19.5676C19.3543 19.6466 18.3696 19.8075 17.4275 20.0213C17.3679 20.0351 17.3071 20.0504 17.2462 20.0639C17.243 20.0647 17.2396 20.0655 17.2364 20.0662C16.7166 20.1899 16.4277 20.7473 16.6187 21.2462C17.1751 22.6999 17.884 24.2473 18.7255 25.7724C19.4428 27.0729 20.261 28.353 21.1599 29.5498C22.4924 29.6414 23.8179 29.7991 25.1481 29.9351C26.2733 30.0502 27.6064 29.8527 28.6641 30.3033C29.7099 30.749 30.0276 31.5973 29.7722 32.6608C29.7265 32.8511 29.6761 33.0363 29.6236 33.2183C29.6267 33.3566 29.6246 33.4955 29.6128 33.6347C29.5465 34.4233 29.4163 35.2171 29.2922 36.0101C31.098 36.7499 32.9812 37.231 34.7899 37.4629C34.8421 35.618 35.1059 33.7809 34.9977 31.9223H34.9976Z" fill="#5A5E62"/>
<path d="M34.9975 31.9221C34.982 31.6565 34.9635 31.3906 34.9429 31.1246L20.5732 20.1506C19.0325 21.9355 18.2298 23.8332 18.2298 23.8332C20.6287 25.2791 22.3592 24.6464 22.3592 24.6464C20.9734 26.6523 20.854 28.5147 20.854 28.5147C22.5045 29.4136 24.9418 28.2444 24.9418 28.2444C24.7043 28.8172 24.576 29.3636 24.5144 29.868C24.7255 29.8903 24.9365 29.9133 25.1478 29.9349C26.273 30.05 27.6061 29.8525 28.6638 30.3031C29.7096 30.7488 30.0273 31.5971 29.7719 32.6607C29.7262 32.8509 29.6758 33.0361 29.6234 33.2182C29.6264 33.3564 29.6243 33.4953 29.6126 33.6345C29.5688 34.1555 29.4948 34.6789 29.4153 35.2026C29.5563 35.4733 29.6581 35.6349 29.6581 35.6349C31.6305 35.2795 32.6568 32.9064 32.6568 32.9064C33.1685 35.0616 34.4577 36.4258 34.8172 36.7731C34.9015 35.1595 35.0923 33.5489 34.9976 31.9219L34.9975 31.9221Z" fill="white"/>
<path d="M34.9239 35.1168C34.9711 34.4364 35.0107 33.7553 35.0185 33.072L33.8137 33.0381C33.8137 33.0381 34.1676 34.4589 34.8806 35.1695C34.8806 35.1695 34.8974 35.1497 34.9239 35.1168Z" fill="#9C9EA1"/>
<path d="M29.8408 31.8075C29.8652 32.0723 29.8451 32.3565 29.772 32.661C29.7696 32.671 29.7666 32.6803 29.7642 32.6903C29.834 33.5111 30.1704 34.096 30.1704 34.096C30.8394 33.7146 31.4264 32.5239 31.4264 32.5239L29.8409 31.8074L29.8408 31.8075Z" fill="#9C9EA1"/>
<path d="M24.1743 27.1108C24.1743 27.1108 23.1767 27.7397 22.2668 27.5123C22.2668 27.5123 22.3398 26.4063 23.019 25.5686L24.1741 27.1106L24.1743 27.1108Z" fill="#9C9EA1"/>
<path d="M21.881 23.5911C21.881 23.5911 20.5923 23.9225 19.4971 23.3544C19.4971 23.3544 20.0272 22.1529 20.9409 21.3394L21.881 23.591V23.5911Z" fill="#9C9EA1"/>
<path d="M34.9975 31.9223C34.8744 29.8046 34.5879 27.6618 33.9969 25.6181C30.8086 21.6845 27.1452 20.0262 23.5991 19.6181C23.3355 19.5875 23.0738 19.5637 22.8137 19.5468C21.9852 19.4935 21.1655 19.5051 20.3638 19.5676C20.4208 19.7676 20.4816 19.9733 20.5473 20.1824C20.6617 20.5588 20.7879 20.9468 20.9304 21.3479C21.1838 22.0702 21.4853 22.8272 21.8492 23.5987C22.1675 24.2766 22.5353 24.9642 22.9611 25.6464C23.2848 26.1651 23.6416 26.6806 24.0361 27.1886C24.315 27.5465 24.6142 27.9009 24.9379 28.2535C25.3525 28.706 25.8025 29.1452 26.2912 29.5686C26.299 29.5762 26.3078 29.5834 26.3157 29.591C26.4723 29.7265 26.6347 29.8591 26.7992 29.9906C27.4504 30.0077 28.0969 30.0618 28.664 30.3035C29.4562 30.641 29.829 31.2101 29.8531 31.9282C30.384 32.1827 30.9052 32.39 31.412 32.5517C32.2533 32.8237 33.057 32.9832 33.8192 33.0605C34.2314 33.1046 34.6296 33.1213 35.0175 33.1216C35.0231 32.7226 35.021 32.323 34.9978 31.9224L34.9975 31.9223Z" fill="#5A5E62"/>
<path d="M33.9971 25.6179C30.8088 21.6843 27.1454 20.0261 23.5993 19.6179C23.3357 19.5874 23.074 19.5635 22.8139 19.5466C23.1979 20.6055 23.6931 21.806 24.3016 22.9992C25.3528 25.0623 26.7379 27.0952 28.4616 28.3067C30.915 30.0318 33.0211 30.6798 34.6054 30.8668C34.7168 30.88 34.8171 30.8842 34.9233 30.8929C34.7736 29.1133 34.4926 27.331 33.9972 25.6179H33.9971Z" fill="white"/>
<path d="M32.0337 36.1308C32.2658 36.3067 32.5824 36.2864 32.7536 36.0471L32.7644 36.0329C32.9246 35.8099 32.8872 35.4378 32.6559 35.2623C32.4242 35.0861 32.1073 35.1058 31.936 35.3451L31.9257 35.36C31.7659 35.5829 31.8029 35.9552 32.0339 36.1308H32.0337Z" fill="#EBEBEE"/>
<path d="M19.7715 26.3848L19.7855 26.396C20.0022 26.576 20.3503 26.5512 20.5062 26.3128C20.6617 26.0729 20.6303 25.7344 20.3978 25.5413L20.3838 25.53C20.1671 25.3501 19.8185 25.3741 19.6634 25.6131C19.5076 25.8533 19.5395 26.1915 19.7715 26.3848Z" fill="#EBEBEE"/>
<path d="M30.7569 31.46C31.2893 31.902 31.9026 31.0485 31.3686 30.6054C30.8357 30.1628 30.2225 31.0162 30.7569 31.46Z" fill="white"/>
<path d="M27.0242 29.2937C27.256 29.4689 27.5732 29.4491 27.7446 29.2097L27.7549 29.1957C27.9147 28.9718 27.8777 28.5995 27.6467 28.4249C27.4143 28.2491 27.0978 28.2685 26.926 28.5081L26.9161 28.5218C26.7562 28.7457 26.7929 29.1173 27.0242 29.2937Z" fill="white"/>
<path d="M23.7923 25.684C23.8455 25.9777 24.0932 26.2037 24.3781 26.1704C24.3858 26.1694 24.3942 26.1689 24.4019 26.168C24.6688 26.1371 24.8876 25.8562 24.8352 25.5641C24.7819 25.2696 24.5339 25.0447 24.2489 25.0771C24.2411 25.078 24.2331 25.0792 24.225 25.0805C23.9582 25.1114 23.7393 25.3912 23.7921 25.6842L23.7923 25.684Z" fill="white"/>
<path d="M21.8793 22.275L21.8929 22.2865C22.1095 22.4664 22.4576 22.4426 22.6128 22.2036C22.7694 21.9639 22.738 21.6255 22.5054 21.4323L22.4914 21.4211C22.2756 21.2408 21.9267 21.2649 21.771 21.5041C21.6156 21.7442 21.6474 22.0824 21.8792 22.275H21.8793Z" fill="white"/>
<path d="M34.6752 28.7608C34.5151 27.6983 34.2943 26.6459 33.997 25.6179C30.8087 21.6843 27.1453 20.0261 23.5992 19.6179C25.7221 22.039 28.7425 21.9308 28.7425 21.9308C27.2866 22.4156 26.2867 23.744 25.9463 24.2536C25.861 24.3788 25.8175 24.4549 25.8175 24.4549C25.9725 24.4749 26.1251 24.4892 26.2696 24.5C28.7356 24.6796 29.8755 23.5981 29.9372 23.5387C29.1346 24.658 28.7024 25.5374 28.4724 26.1822C28.146 27.0968 28.2247 27.5418 28.2247 27.5418C28.6839 27.3931 29.0884 27.1747 29.4415 26.9233C30.6695 26.0491 31.2725 24.7816 31.3165 24.688C30.9233 26.1551 30.9455 27.3365 31.0731 28.1679C31.2128 29.0715 31.4785 29.5625 31.4785 29.5625C31.6768 29.3249 31.8482 29.0951 31.9957 28.8737C33.1728 27.1155 32.8989 25.8936 32.8561 25.7311C33.2668 27.0349 33.9674 28.0281 34.6755 28.7605L34.6752 28.7608Z" fill="#EBEBEE"/>
<path d="M28.6321 27.0093C30.6916 25.8702 31.2586 23.4072 31.2586 23.4072C29.0181 25.0698 28.6321 27.0093 28.6321 27.0093Z" fill="#9C9EA1"/>
<path d="M30.2942 22.5932C30.2942 22.5932 28.4925 22.3405 26.6153 24.1202C26.6153 24.1202 28.0525 24.2562 30.2942 22.5932Z" fill="#9C9EA1"/>
<path d="M31.6255 28.9253C32.7614 26.6831 32.2451 24.2861 32.2451 24.2861C31.1214 27.0177 31.6255 28.9253 31.6255 28.9253Z" fill="#9C9EA1"/>
<path d="M34.1886 26.3235C33.549 25.5221 32.9801 24.9221 32.9801 24.9221C33.5326 26.3085 34.0718 27.2642 34.536 27.9242C34.4379 27.3862 34.3224 26.8523 34.1886 26.3235Z" fill="#9C9EA1"/>
<path d="M24.781 20.1113C25.9168 21.2875 28.9937 21.5806 28.9937 21.5806C26.5735 20.2258 24.781 20.1113 24.781 20.1113Z" fill="#9C9EA1"/>
<path d="M34.8408 30.0384C34.3711 29.6265 33.5502 28.81 33.4071 28.0227C33.4071 28.0227 33.3623 29.2196 32.363 29.726C32.363 29.726 33.6528 30.3435 34.8718 30.3277C34.8622 30.2312 34.8512 30.1348 34.8408 30.0382V30.0384Z" fill="#9C9EA1"/>
<path d="M30.6341 26.5667C29.8349 27.5375 28.6745 27.7953 28.6745 27.7953C29.6755 28.5704 30.6409 29.0576 30.6409 29.0576C30.2007 28.2822 30.6341 26.5667 30.6341 26.5667Z" fill="#9C9EA1"/>
<path d="M26.2602 25.0079C26.8422 25.9926 27.6532 26.8603 27.6532 26.8603C27.5381 25.9606 28.4605 24.825 28.4605 24.825C27.1343 25.1338 26.2602 25.0079 26.2602 25.0079Z" fill="#9C9EA1"/>
<path d="M24.1574 20.8579C24.1157 21.498 25.4097 23.6505 25.4097 23.6505C25.405 23.1401 26.8794 22.1429 26.8794 22.1429C25.2383 21.7664 24.1574 20.8579 24.1574 20.8579Z" fill="#9C9EA1"/>
<path d="M5.89707 34.8848C4.08919 35.089 1.96666 34.075 1.4592 32.2734C1.40883 32.0951 1.3768 31.9113 1.36263 31.7264C1.31242 31.0693 1.50089 30.3098 1.96537 29.8263C2.55877 29.2087 3.53667 28.9635 4.33205 29.305C4.96102 29.5747 5.50373 30.2143 5.44772 30.9288C5.40475 31.4777 5.04648 31.9936 4.50072 32.0742C3.56322 32.2126 3.74461 31.2746 3.74461 31.2746C3.74461 31.2746 4.2754 31.5711 4.45421 31.1586C4.63286 30.7459 4.05491 30.2354 3.38039 30.5164C2.23946 30.9917 2.86054 32.3958 3.64852 32.8857C4.16274 33.2056 4.99241 33.2898 5.63473 33.0508C5.58291 32.666 5.55233 32.2842 5.59063 31.9284C5.69477 30.9597 6.29605 30.494 7.07728 30.2679C7.10914 29.9924 7.07035 29.6773 6.89316 29.329C6.26322 28.0905 5.25748 27.5399 4.0871 27.7264C4.0871 27.7264 3.30459 26.3943 1.62143 26.9053C1.21714 27.0283 0.880446 27.2116 0.602818 27.4326C0.547936 28.8313 0.438655 30.2225 0.326477 31.6137C0.35593 32.7983 0.373634 33.9822 0.370093 35.1658C1.32433 35.7481 2.24622 35.37 2.24622 35.37C2.24622 35.37 3.27288 37.7914 6.06365 37.1328C6.15297 37.1117 6.23715 37.0824 6.32374 37.057C6.10678 36.3493 5.98495 35.6253 5.89691 34.8849L5.89707 34.8848Z" fill="#9C9EA1"/>
<path d="M4.04087 34.2107C4.11394 34.3303 4.26539 34.3818 4.39189 34.3118L4.40605 34.3039C4.52419 34.2385 4.58003 34.0719 4.50729 33.9529C4.4339 33.8334 4.28277 33.7816 4.15595 33.8518L4.14178 33.8597C4.02365 33.9252 3.96812 34.0919 4.04087 34.2107Z" fill="white"/>
<path d="M2.87494 33.6382C2.94834 33.7578 3.09946 33.8093 3.22629 33.7391L3.24045 33.7315C3.35858 33.6659 3.41427 33.4991 3.34136 33.3802C3.26829 33.2609 3.11652 33.2091 2.99034 33.2793L2.97586 33.2868C2.85805 33.3525 2.8022 33.5191 2.87494 33.6382Z" fill="white"/>
<path d="M2.03609 32.5892C2.1568 32.8073 2.49623 32.6201 2.37536 32.4016C2.25465 32.1835 1.91522 32.3707 2.03609 32.5892Z" fill="white"/>
<path d="M1.75106 31.4737C1.87193 31.6916 2.21088 31.5045 2.08985 31.2861C1.96914 31.068 1.63035 31.2553 1.75106 31.4737Z" fill="white"/>
<path d="M2.16085 30.3799C2.241 30.5256 2.46713 30.4005 2.38633 30.2549C2.30618 30.1096 2.08006 30.2344 2.16085 30.3799Z" fill="white"/>
<path d="M2.96581 29.7681C3.0466 29.9134 3.27273 29.7887 3.19194 29.643C3.11146 29.4974 2.88534 29.6223 2.96581 29.7681Z" fill="white"/>
<path d="M3.80852 29.6895C3.88867 29.8348 4.11512 29.7102 4.03433 29.5646C3.95386 29.4191 3.72773 29.544 3.80852 29.6895Z" fill="white"/>
<path d="M4.54932 30.1282C4.62979 30.2737 4.85592 30.1488 4.77544 30.003C4.69497 29.8575 4.46852 29.9827 4.54932 30.1282Z" fill="white"/>
<path d="M4.88226 30.83C4.96274 30.9753 5.18919 30.8505 5.10839 30.7048C5.02792 30.5591 4.80147 30.684 4.88226 30.83Z" fill="white"/>
<path d="M4.81373 31.4396C4.87392 31.5487 5.0434 31.4549 4.9832 31.3458C4.92301 31.2366 4.75305 31.3301 4.81373 31.4396Z" fill="white"/>
<path d="M4.4306 31.7809C4.49079 31.8898 4.66059 31.7963 4.6004 31.6872C4.53956 31.5778 4.36992 31.6716 4.4306 31.7809Z" fill="white"/>
<path d="M3.98073 31.7348C4.04092 31.8437 4.21072 31.7504 4.1502 31.6409C4.08937 31.5318 3.92005 31.6253 3.98073 31.7348Z" fill="white"/>
<path d="M1.3643 27.4623C1.46087 27.4166 1.65239 27.6185 1.79193 27.9137C1.93131 28.2086 1.96591 28.4847 1.86935 28.5308C1.77246 28.5765 1.5811 28.3743 1.4414 28.0793C1.30218 27.784 1.26742 27.5078 1.3643 27.4624V27.4623Z" fill="white"/>
<path d="M2.49463 27.3164C2.60165 27.3184 2.68518 27.516 2.68084 27.7582C2.67681 28.0003 2.58636 28.1953 2.47917 28.1931C2.37215 28.1913 2.28894 27.9932 2.29328 27.7513C2.29763 27.5091 2.38792 27.3145 2.49463 27.3164Z" fill="white"/>
<path d="M6.35634 28.9251C6.40028 28.9922 6.27957 29.1498 6.08628 29.2774C5.89283 29.4049 5.70066 29.4538 5.6564 29.3869C5.61182 29.3198 5.73285 29.1624 5.92598 29.0349C6.11911 28.9073 6.3116 28.8583 6.35618 28.9251H6.35634Z" fill="white"/>
<path d="M6.72005 29.7373C6.73357 29.8166 6.56731 29.9114 6.34859 29.9496C6.12922 29.9877 5.94043 29.9545 5.92691 29.8754C5.91259 29.7963 6.07933 29.7012 6.29837 29.6632C6.51758 29.6251 6.70637 29.6586 6.72005 29.7373Z" fill="white"/>
<path d="M5.63168 28.3165C5.7004 28.358 5.68141 28.5143 5.58967 28.6657C5.49793 28.8173 5.36773 28.9059 5.29885 28.8647C5.23012 28.8225 5.24912 28.6662 5.34118 28.5152C5.43259 28.3638 5.56296 28.2746 5.63168 28.3165Z" fill="white"/>
<path d="M5.55462 35.8458C5.66084 35.8318 5.77914 36.0644 5.81873 36.3653C5.8588 36.6665 5.80521 36.9219 5.69899 36.9359C5.59308 36.9501 5.47463 36.7172 5.43488 36.4164C5.39512 36.1152 5.44872 35.8598 5.55462 35.8458Z" fill="white"/>
<path d="M4.80151 35.8021C4.90178 35.8393 4.90291 36.0855 4.80393 36.3522C4.70479 36.6189 4.54336 36.8048 4.44309 36.7678C4.34314 36.7303 4.3417 36.4839 4.44068 36.2177C4.5395 35.951 4.70124 35.7648 4.80167 35.8021H4.80151Z" fill="white"/>
<path d="M5.89718 34.8848C4.08913 35.0891 1.96741 34.0746 1.45931 32.2737C1.40909 32.0947 1.37674 31.9122 1.36274 31.7266C1.31253 31.0697 1.50147 30.3092 1.96548 29.8265C2.5592 29.2088 3.53613 28.9635 4.33216 29.3052C4.96161 29.5754 5.50415 30.2141 5.44782 30.929C5.40517 31.4781 5.04659 31.9938 4.50083 32.0744C3.56317 32.2124 3.74471 31.2749 3.74471 31.2749C3.45469 31.6787 3.63125 32.0905 4.07642 32.2605C4.60721 32.4644 5.20689 32.1589 5.52298 31.7183C6.2762 30.6707 5.61359 29.2307 4.55732 28.6964C4.435 28.6344 4.30641 28.5844 4.17508 28.5438C3.48157 28.3341 2.73527 28.4471 2.10179 28.7859C1.3452 29.19 0.843695 29.8627 0.626581 30.7051C0.340262 31.8097 0.69112 32.9562 1.41006 33.7911C2.43994 34.9877 4.15093 35.5719 5.7063 35.4299C5.79256 35.4221 5.87738 35.4087 5.9622 35.3957C5.93774 35.2267 5.9173 35.0556 5.89702 34.8848H5.89718Z" fill="#5A5E62"/>
<path d="M24.3193 2.99103C24.2902 2.26211 24.3193 1.24157 22.6719 0.585559C21.1621 -0.0157281 18.1299 -0.00462302 17.634 0.00133191C17.1382 -0.00462302 14.106 -0.0157281 12.5962 0.585559C10.9487 1.24157 10.9779 2.26211 10.9487 2.99103C10.9196 3.71994 10.8477 5.3244 11.3862 5.67348C12.6757 6.50943 13.9228 7.37917 14.1269 8.39971C14.331 9.42026 14.2727 11.612 14.2727 11.612C14.2727 11.612 14.1755 14.6672 17.5629 14.752V14.756C17.5874 14.756 17.6099 14.7543 17.6342 14.7541C17.6583 14.7544 17.6809 14.756 17.7055 14.756V14.752C21.0929 14.6672 20.9957 11.612 20.9957 11.612C20.9957 11.612 20.9374 9.42026 21.1415 8.39971C21.3456 7.37917 22.5927 6.50943 23.8822 5.67348C24.4206 5.3244 24.3488 3.71994 24.3197 2.99103H24.3193Z" fill="white"/>
<path d="M21.4226 14.5798C21.4226 14.5798 21.4221 14.5536 21.4218 14.546C21.4188 14.4907 21.402 14.3851 21.3162 14.3735C21.2066 14.3312 21.1126 14.5805 21.1126 14.5805C20.7138 15.5234 19.8021 16.575 17.7143 16.6272V16.6317C17.6868 16.6317 17.6614 16.6298 17.6342 16.6294C17.607 16.6298 17.5815 16.6317 17.554 16.6317V16.6272C15.4661 16.575 14.5545 15.5234 14.1557 14.5805C14.1557 14.5805 14.0617 14.3312 13.9521 14.3735C13.8663 14.3851 13.8496 14.4907 13.8465 14.546C13.8463 14.5537 13.8457 14.5798 13.8457 14.5798C13.8457 14.5798 13.7361 18.0234 17.5542 18.1188V18.1233C17.5817 18.1233 17.6071 18.1214 17.6343 18.1211C17.6615 18.1214 17.6869 18.1233 17.7145 18.1233V18.1188C21.5325 18.0232 21.4229 14.5798 21.4229 14.5798H21.4226Z" fill="white"/>
<path d="M17.6337 56.1531C11.307 56.1531 5.51495 55.1325 1.74354 53.3531C1.6753 53.3209 0.0679546 52.5331 0.0193495 49.8091C-0.0239445 47.3828 0.0188667 30.4633 0.0193495 30.2927C0.0154868 30.2562 -0.412302 23.0538 6.08887 20.9478C9.86376 19.7247 11.7743 17.93 11.8204 15.5638L11.8281 15.151C11.8877 12.3563 11.8656 10.7004 11.8463 9.96213C11.8396 9.70735 11.7597 9.46368 11.6146 9.25848C11.3492 8.88123 11.1021 8.59507 10.9368 8.47452C10.5898 8.22168 10.4225 7.79437 10.5003 7.35837C10.557 7.04598 10.833 6.27828 12.1866 5.89716C14.437 5.26369 15.3533 5.13525 17.6335 5.13525C19.9138 5.13525 20.831 5.26353 23.0815 5.89716C24.435 6.27828 24.7111 7.04646 24.7677 7.35886C24.8456 7.79437 24.6774 8.22216 24.3303 8.47452C24.1659 8.59426 23.9187 8.88026 23.6535 9.25848C23.5083 9.4632 23.4285 9.70655 23.4217 9.96309C23.4026 10.6812 23.3794 12.3108 23.4399 15.151L23.4486 15.5657C23.4941 17.931 25.404 19.725 29.1782 20.9478C35.5011 22.9955 35.2703 29.8616 35.2482 30.3066C35.2502 30.8742 35.2915 47.4124 35.2482 49.8091C35.2001 52.5331 33.5918 53.3209 33.5236 53.3531C29.7522 55.1325 23.9599 56.1531 17.6334 56.1531H17.6337ZM17.6337 6.11943C15.5831 6.11943 14.7074 6.20972 12.4539 6.8448C11.7848 7.03278 11.505 7.33262 11.4694 7.53219C11.4578 7.59802 11.4733 7.64759 11.5156 7.67833C11.7771 7.86873 12.0808 8.20945 12.4202 8.69212C12.676 9.05601 12.8183 9.48622 12.8308 9.93605C12.849 10.684 12.8722 12.3573 12.8126 15.172L12.8039 15.5831C12.726 19.6352 12.4262 19.9294 6.39273 21.8842C0.615487 23.7555 0.99805 30.1951 1.0024 30.2594C1.00336 30.4656 0.96055 47.3749 1.00384 49.7918C1.04086 51.8687 2.12385 52.4422 2.17004 52.4657C5.75491 54.1572 11.538 55.1686 17.6339 55.1686C23.7298 55.1686 29.5133 54.1572 33.1049 52.4628C33.1444 52.4422 34.2278 51.8687 34.2644 49.7916C34.3077 47.3747 34.2644 30.4654 34.2644 30.2953L34.2653 30.2602C34.2835 29.9948 34.6374 23.7504 28.875 21.8839C22.8425 19.9294 22.5425 19.6349 22.4648 15.5842L22.4561 15.1717C22.3956 12.3108 22.4186 10.6635 22.4379 9.93622C22.4504 9.48396 22.5927 9.05376 22.8494 8.69083C23.1879 8.20816 23.4926 7.86744 23.7522 7.67801C23.7955 7.64679 23.8107 7.5977 23.7993 7.53139C23.7637 7.33246 23.484 7.03246 22.8148 6.84448C20.5614 6.20956 19.6856 6.11911 17.634 6.11911L17.6337 6.11943Z" fill="white"/>
<path d="M9.98977 54.9586C9.85152 54.9586 9.73306 54.8504 9.72019 54.7122L8.97341 46.6502C8.95956 46.5011 9.06949 46.3687 9.21852 46.355H9.2211C9.38269 46.355 9.50098 46.4627 9.51353 46.5998L10.2603 54.6619C10.2742 54.811 10.1642 54.9434 10.0152 54.9571L9.98977 54.9584V54.9586Z" fill="white"/>
<path d="M25.5262 54.9573C25.379 54.9434 25.269 54.811 25.2829 54.6621L26.0297 46.5999C26.0425 46.4597 26.1589 46.354 26.2997 46.354C26.4737 46.3688 26.5836 46.5013 26.5698 46.6503L25.823 54.7125C25.8101 54.8506 25.6917 54.9586 25.5534 54.9586L25.5262 54.9573Z" fill="white"/>
<path d="M17.7506 32.7328C14.5048 32.7328 11.4513 32.5939 9.15184 32.3419C5.47846 31.9392 5.17395 31.4379 5.17395 30.9163C5.17395 30.3947 5.47846 29.8933 9.15184 29.4909C11.4513 29.2387 14.5053 29.0999 17.7506 29.0999C20.9959 29.0999 24.0495 29.2387 26.349 29.4909C30.0224 29.8936 30.3269 30.395 30.3269 30.9163C30.3269 31.4376 30.0224 31.9392 26.349 32.3419C24.0496 32.5938 20.9959 32.7328 17.7506 32.7328ZM6.55855 30.9164C7.92867 31.314 11.9297 31.7492 17.7506 31.7492C23.5715 31.7492 27.5722 31.314 28.9422 30.9164C27.5721 30.5189 23.571 30.0837 17.7506 30.0837C11.9302 30.0837 7.92899 30.5189 6.55855 30.9164Z" fill="white"/>
<path d="M17.7506 59.9998C12.6297 59.9998 10.1135 59.3641 8.90417 58.8309C8.16689 58.5055 7.66297 57.8086 7.58926 57.0125L5.17606 30.9618C5.15112 30.6913 5.35004 30.4519 5.62059 30.4267C5.88583 30.4051 6.13046 30.6008 6.15557 30.8709L8.56876 56.9219C8.60964 57.3632 8.89001 57.7497 9.30138 57.9312C10.4238 58.4261 12.8013 59.0161 17.7508 59.0161C18.0226 59.0161 18.2426 59.2365 18.2426 59.508C18.2426 59.7795 18.0226 59.9998 17.7508 59.9998H17.7506Z" fill="white"/>
<path d="M8.5917 40.0089C8.45345 40.0089 8.33499 39.9007 8.32211 39.7625L7.57533 31.7004C7.56149 31.5514 7.67142 31.419 7.82045 31.4053H7.82303C7.98461 31.4053 8.10291 31.5129 8.11546 31.6501L8.86224 39.7122C8.87608 39.8613 8.76616 39.9937 8.61712 40.0074L8.5917 40.0087V40.0089Z" fill="white"/>
<path d="M10.3883 37.6111C10.2479 37.6111 10.1295 37.5011 10.1182 37.3607L9.70265 31.9512C9.69702 31.8786 9.71987 31.8086 9.76719 31.7537C9.81419 31.6989 9.88001 31.6654 9.95244 31.6599H9.95373C10.1131 31.6599 10.2328 31.7695 10.2431 31.9095L10.6591 37.319C10.6648 37.3916 10.6419 37.4616 10.5946 37.5165C10.5476 37.5714 10.4818 37.6049 10.4094 37.6103L10.3883 37.6111Z" fill="white"/>
<path d="M12.3241 36.5459C12.1802 36.5459 12.0615 36.4331 12.0536 36.2891L11.8318 32.1024C11.8279 32.0298 11.8524 31.9605 11.9007 31.9067C11.9493 31.8528 12.0161 31.8209 12.0885 31.8174H12.0898C12.2444 31.8174 12.3663 31.9347 12.3737 32.0736L12.5955 36.2602C12.5993 36.3328 12.5749 36.4022 12.5266 36.456C12.478 36.5099 12.4112 36.5417 12.3388 36.5453L12.3241 36.5459Z" fill="white"/>
<path d="M14.3183 35.6719C14.1713 35.6719 14.0526 35.5567 14.0477 35.4099L13.9426 32.2499C13.9375 32.1004 14.055 31.9749 14.2045 31.9697C14.3561 31.9699 14.4797 32.0848 14.4844 32.2314L14.5895 35.3917C14.5946 35.5412 14.4771 35.6668 14.3276 35.6719H14.3181H14.3183Z" fill="white"/>
<path d="M17.7505 59.9999C17.4787 59.9999 17.2587 59.7796 17.2587 59.508C17.2587 59.2365 17.4787 59.0162 17.7505 59.0162C22.7005 59.0162 25.0775 58.4262 26.1995 57.9313C26.6108 57.7499 26.8912 57.3631 26.9321 56.9222L29.3453 30.8709C29.3702 30.6004 29.605 30.4047 29.8803 30.4267C30.1508 30.452 30.3497 30.6913 30.3248 30.9619L27.9116 57.0129C27.8379 57.8093 27.334 58.506 26.5967 58.8311C25.3877 59.3643 22.8721 60.0001 17.7507 60.0001L17.7505 59.9999Z" fill="white"/>
<path d="M26.8816 40.0076C26.7343 39.9937 26.6244 39.8613 26.6383 39.7124L27.385 31.6502C27.3979 31.51 27.5143 31.4043 27.6551 31.4043C27.8291 31.4191 27.939 31.5516 27.9252 31.7006L27.1784 39.7628C27.1655 39.9009 27.0471 40.0088 26.9088 40.0088L26.8816 40.0076Z" fill="white"/>
<path d="M25.09 37.6101C25.0193 37.6048 24.9535 37.5713 24.9065 37.5164C24.8592 37.4615 24.8363 37.3915 24.842 37.3194L25.2572 31.9094C25.2685 31.7693 25.3882 31.6592 25.5298 31.6592C25.6208 31.6655 25.6866 31.6988 25.7336 31.7537C25.7809 31.8085 25.8038 31.8785 25.7981 31.9506L25.3829 37.3606C25.3716 37.501 25.2533 37.6111 25.1128 37.6111L25.09 37.6099V37.6101Z" fill="white"/>
<path d="M23.1724 36.5457C23.0948 36.5416 23.0285 36.5099 22.9799 36.456C22.9316 36.4024 22.9072 36.3329 22.9106 36.2606L23.1267 32.0738C23.1339 31.9312 23.249 31.8157 23.3829 31.8157C23.4842 31.8208 23.5505 31.8525 23.5991 31.9063C23.6474 31.9599 23.6723 32.0294 23.6684 32.1017L23.4523 36.2885C23.4451 36.433 23.3261 36.5458 23.1817 36.5458H23.1723L23.1724 36.5457Z" fill="white"/>
<path d="M21.1749 35.6717C21.1003 35.6693 21.0332 35.639 20.9837 35.5862C20.9341 35.5334 20.9078 35.4644 20.9104 35.3918L21.0112 32.2321C21.0158 32.0849 21.1348 31.9695 21.2817 31.9695C21.3632 31.9721 21.4303 32.0025 21.4798 32.0553C21.5294 32.1081 21.5556 32.1771 21.5531 32.2497L21.4523 35.4093C21.4477 35.5566 21.3287 35.672 21.1818 35.672H21.1749V35.6717Z" fill="white"/>
<path d="M23.9375 39.0811C22.867 38.895 20.9206 38.6711 17.7504 38.6711C14.5803 38.6711 12.6339 38.895 11.5634 39.0811C10.9469 39.1883 10.5162 39.7511 10.5635 40.3751L11.6767 55.0483C11.6949 55.2872 11.8852 55.4756 12.1242 55.4904C12.1308 55.4909 12.1374 55.4912 12.1441 55.4917C12.4341 55.5098 12.6757 55.267 12.6538 54.9773L11.7101 42.4852L11.5443 40.3007C11.5353 40.1802 11.6175 40.0701 11.7316 40.0501C12.7695 39.8699 14.656 39.6547 17.7501 39.6547C20.8443 39.6547 22.7312 39.8699 23.7691 40.0503C23.8832 40.0701 23.9655 40.1802 23.9564 40.3007L23.8422 41.8071L22.8546 54.977C22.8329 55.2667 23.074 55.5091 23.364 55.4912C23.3682 55.4909 23.3725 55.4908 23.3767 55.4904C23.6157 55.4756 23.806 55.2872 23.824 55.0483L24.9372 40.3752C24.9846 39.7512 24.5539 39.1884 23.9373 39.0812L23.9375 39.0811Z" fill="white"/>
<path d="M4.80068 49.7454C4.74258 49.6921 4.67837 49.6466 4.60562 49.6099C4.5237 49.5687 4.43132 49.5386 4.32445 49.5215C4.25766 49.5114 4.1854 49.5064 4.10702 49.5069C4.01061 49.5072 3.90439 49.5167 3.78738 49.5355C3.77113 49.5381 3.75535 49.5408 3.7399 49.5439C3.63883 49.5635 3.54403 49.5941 3.4568 49.6421C3.39419 49.676 3.33529 49.719 3.28009 49.7726C3.19913 49.8511 3.1259 49.953 3.06217 50.0847C3.02306 50.1643 2.98749 50.2541 2.95498 50.3563C2.94532 50.3858 2.93615 50.4167 2.9273 50.4484C2.91008 50.5084 2.89913 50.5736 2.89366 50.6431C2.88803 50.7119 2.88819 50.7843 2.89446 50.8583C2.90122 50.9372 2.91458 51.0175 2.93566 51.0975C2.95498 51.1722 2.98041 51.2462 3.0126 51.3186C3.05396 51.4095 3.1053 51.4968 3.16839 51.5763C3.21458 51.6358 3.26769 51.691 3.32708 51.7404C3.38566 51.7891 3.45004 51.8322 3.5215 51.8679C3.59167 51.9033 3.66844 51.9321 3.75165 51.9521C3.81716 51.9679 3.88604 51.9785 3.95975 51.983C3.98019 51.9844 4.00015 51.9852 4.01995 51.9856C4.1252 51.987 4.22032 51.9743 4.30675 51.9502C4.37096 51.9325 4.43084 51.9083 4.48604 51.8789C4.57585 51.8309 4.65358 51.7697 4.7215 51.7007C4.76157 51.66 4.79811 51.6168 4.83159 51.5719C4.88228 51.5043 4.92574 51.433 4.9642 51.3626C5.01474 51.2686 5.05626 51.1762 5.09135 51.0931C5.10793 51.0524 5.12386 51.0143 5.13883 50.9795C5.15991 50.9285 5.17729 50.8799 5.19017 50.833C5.22944 50.6938 5.23362 50.5689 5.21286 50.4534C5.1958 50.3557 5.16136 50.2639 5.11549 50.1753C5.07735 50.1012 5.03132 50.0293 4.98126 49.9575C4.97821 49.953 4.97547 49.9491 4.97241 49.9446C4.92075 49.8706 4.86442 49.8032 4.80068 49.7451V49.7454Z" fill="white"/>
<path d="M2.9355 51.0974C3.01533 51.0781 3.16404 51.0522 3.24645 51.0982C3.33288 51.1465 3.12735 51.2613 3.01244 51.3186C2.98025 51.2462 2.95466 51.1721 2.9355 51.0974ZM3.18255 50.7665C3.15165 50.688 2.99232 50.656 2.89366 50.6431C2.88803 50.7118 2.88819 50.7842 2.89446 50.8583C3.01244 50.8586 3.2141 50.8477 3.18255 50.7665ZM3.3237 50.3182C3.35541 50.2612 3.18223 50.1521 3.06217 50.0846C3.02306 50.1643 2.98749 50.2541 2.95498 50.3563C3.0538 50.3672 3.28588 50.3854 3.3237 50.3182ZM3.59505 49.9253C3.7127 49.8509 3.55305 49.712 3.45696 49.6419C3.39436 49.6758 3.33545 49.7188 3.28025 49.7724C3.33513 49.8476 3.47048 50.0045 3.59521 49.9253H3.59505ZM3.9517 49.9098C4.06437 49.9728 4.09736 49.6702 4.10718 49.5068C4.01077 49.5072 3.90455 49.5167 3.78754 49.5355C3.77129 49.5381 3.75551 49.5408 3.74006 49.5439C3.77772 49.6639 3.85047 49.8537 3.9517 49.91V49.9098ZM4.60562 49.6098C4.5237 49.5686 4.43132 49.5385 4.32445 49.5215C4.31431 49.6374 4.30562 49.8706 4.39784 49.9219C4.4825 49.9694 4.56329 49.7521 4.60562 49.6098ZM4.98126 49.9578C4.97821 49.9533 4.97547 49.9494 4.97241 49.9449C4.92075 49.8709 4.86442 49.8035 4.80068 49.7454C4.712 49.8514 4.60514 50.003 4.66034 50.065C4.71683 50.1284 4.87472 50.0344 4.98126 49.9578ZM5.2127 50.4537C5.19564 50.356 5.1612 50.2642 5.11533 50.1756C5.01184 50.2499 4.79972 50.4121 4.79038 50.4949C4.78073 50.5787 5.0759 50.4968 5.2127 50.4537ZM5.09119 51.0933C5.10777 51.0525 5.1237 51.0144 5.13867 50.9796C5.15975 50.9286 5.17713 50.88 5.19001 50.8332C5.07171 50.8048 4.81549 50.7588 4.759 50.8742C4.70621 50.9829 4.94956 51.0588 5.09103 51.0931L5.09119 51.0933ZM4.96404 51.3627C4.86233 51.2835 4.65197 51.1419 4.5583 51.2344C4.46399 51.3268 4.7038 51.4937 4.83126 51.5722C4.88196 51.5046 4.92542 51.4333 4.96388 51.3628L4.96404 51.3627ZM4.72134 51.7008C4.63459 51.5959 4.49714 51.4547 4.41378 51.4932C4.33556 51.5297 4.41297 51.7283 4.48588 51.8788C4.57568 51.8309 4.65342 51.7697 4.72134 51.7007V51.7008ZM4.30659 51.9503C4.30659 51.7906 4.28566 51.5745 4.16673 51.6118C4.03073 51.6545 4.01753 51.8726 4.01978 51.9859C4.12504 51.9873 4.22016 51.9746 4.30659 51.9505V51.9503ZM3.75149 51.9522C3.80283 51.8616 3.9311 51.6197 3.85256 51.5759C3.78159 51.5363 3.60761 51.7522 3.52118 51.868C3.59135 51.9035 3.66812 51.9323 3.75133 51.9522H3.75149ZM3.32692 51.7406C3.4399 51.6191 3.6311 51.3937 3.50283 51.3809C3.38212 51.3691 3.24355 51.4956 3.16823 51.5764C3.21442 51.636 3.26753 51.6912 3.32692 51.7406Z" fill="#EBEBEE"/>
<path d="M4.80066 49.7454C4.74255 49.6922 4.67834 49.6466 4.60559 49.6099C4.52367 49.5687 4.43129 49.5386 4.32442 49.5215C4.25763 49.5114 4.18537 49.5064 4.10699 49.5069C4.01058 49.5072 3.90436 49.5167 3.78735 49.5356C3.7711 49.5381 3.75532 49.5409 3.73987 49.5439C3.6388 49.5636 3.544 49.5941 3.45677 49.6421C3.39417 49.6761 3.33526 49.719 3.28006 49.7726C3.1991 49.8512 3.12587 49.953 3.06214 50.0847C3.02303 50.1644 2.98746 50.2542 2.95495 50.3564C2.94529 50.3858 2.93612 50.4167 2.92727 50.4484C2.91005 50.5085 2.8991 50.5736 2.89363 50.6432C2.888 50.7119 2.88816 50.7843 2.89443 50.8584C2.90119 50.9372 2.91455 51.0175 2.93564 51.0975C2.95495 51.1722 2.98038 51.2462 3.01257 51.3187C3.05393 51.4096 3.10527 51.4968 3.16836 51.5763C3.21455 51.6359 3.26766 51.6911 3.32705 51.7405C3.38564 51.7891 3.45001 51.8322 3.52147 51.868C3.59164 51.9034 3.66841 51.9322 3.75162 51.9521C3.81713 51.9679 3.88601 51.9785 3.95972 51.983C3.98016 51.9845 4.00012 51.9853 4.01992 51.9856C4.12517 51.9871 4.22029 51.9743 4.30672 51.9502C4.37093 51.9325 4.43081 51.9083 4.48601 51.8789C4.57582 51.8309 4.65355 51.7698 4.72147 51.7007C4.76155 51.66 4.79808 51.6169 4.83156 51.572C4.88225 51.5044 4.92571 51.4331 4.96417 51.3626C5.01471 51.2686 5.05623 51.1762 5.09132 51.0932C5.1079 51.0525 5.12383 51.0143 5.1388 50.9795C5.15988 50.9285 5.17726 50.8799 5.19014 50.8331C5.22941 50.6939 5.2336 50.569 5.21283 50.4534C5.19577 50.3557 5.16133 50.264 5.11546 50.1753C5.07732 50.1013 5.03129 50.0293 4.98123 49.9575C4.97818 49.953 4.97544 49.9492 4.97238 49.9447C4.92072 49.8706 4.86439 49.8032 4.80066 49.7451V49.7454ZM2.59218 50.1734C3.02609 49.3778 3.47126 48.9409 4.44465 49.2541C5.11015 49.4681 5.41675 49.8647 5.48805 50.3137C5.55951 50.7627 5.44395 51.4141 4.84878 51.9927C4.26278 52.5632 3.52759 52.3965 3.10189 52.1007C2.67587 51.8041 2.15812 50.9689 2.59202 50.1734H2.59218Z" fill="white"/>
<path d="M4.34825 50.2262C4.47604 50.2975 4.54831 50.4224 4.56923 50.609C4.60077 50.8882 4.48039 51.0305 4.37352 51.1003C4.29305 51.1536 4.07159 51.263 3.75871 51.1396C3.73683 51.1309 3.71574 51.1211 3.69562 51.1098C3.4769 50.988 3.43489 50.7521 3.4658 50.5876C3.50152 50.3951 3.70045 50.1211 4.01413 50.1453C4.1651 50.1566 4.26794 50.1818 4.34809 50.2264L4.34825 50.2262ZM3.83774 50.9244C3.84868 50.9309 3.86043 50.9362 3.87298 50.9407C3.88602 50.9455 3.90002 50.9497 3.91435 50.9528C3.93446 50.9573 3.95587 50.9603 3.98033 50.9622C4.01172 50.9645 4.04262 50.9642 4.06563 50.9637L4.10362 50.9626C4.11762 50.9622 4.13066 50.9611 4.14257 50.9592C4.17443 50.9544 4.20131 50.9445 4.22432 50.9286C4.24219 50.9165 4.25861 50.9003 4.27534 50.8795C4.28774 50.8641 4.30029 50.8456 4.31461 50.8217C4.32974 50.7961 4.33908 50.7765 4.34535 50.7575C4.35115 50.7393 4.35453 50.7216 4.35533 50.7036C4.35646 50.6817 4.3534 50.6587 4.3468 50.6342C4.3423 50.618 4.33554 50.6 4.32701 50.5818C4.31606 50.5573 4.30142 50.5312 4.28355 50.5044C4.28114 50.5007 4.27856 50.4968 4.27615 50.4934C4.26086 50.4718 4.24493 50.455 4.22738 50.4418C4.22046 50.4369 4.21354 50.4323 4.20646 50.4282C4.19922 50.424 4.19214 50.4207 4.18425 50.4176C4.15786 50.407 4.1276 50.4014 4.09187 50.4006C4.06692 50.3997 4.04037 50.4009 4.01156 50.4044C4.00287 50.4055 3.99385 50.4067 3.98468 50.4078C3.96971 50.41 3.95426 50.4142 3.93833 50.4199C3.92159 50.426 3.90469 50.4339 3.88779 50.4429C3.86976 50.453 3.85238 50.4651 3.83548 50.4783C3.81939 50.4915 3.80474 50.5055 3.79139 50.5201C3.77384 50.5398 3.7592 50.5609 3.74825 50.5827C3.73924 50.5998 3.732 50.6175 3.72733 50.6352C3.72218 50.6532 3.71928 50.6722 3.71848 50.6907C3.71767 50.7107 3.71928 50.7308 3.72298 50.7508C3.72604 50.7678 3.73087 50.785 3.73731 50.8021C3.73924 50.8066 3.74069 50.8111 3.74294 50.8158C3.75292 50.8391 3.76483 50.8584 3.77915 50.8758C3.78897 50.8879 3.79959 50.898 3.81118 50.9072C3.81955 50.9136 3.82856 50.9196 3.83806 50.9246L3.83774 50.9244Z" fill="#9C9EA1"/>
<path d="M4.03041 50.3861C4.21566 50.4001 4.33476 50.4465 4.35842 50.6548C4.37467 50.7974 4.32623 50.888 4.24817 50.9393C4.17027 50.9903 4.03878 51.0235 3.88057 50.9612C3.7243 50.8997 3.69339 50.7484 3.71303 50.6438C3.73234 50.5389 3.84516 50.3717 4.03041 50.3861Z" fill="white"/>
<path d="M28.5698 53.7049C28.7627 53.8132 28.9303 53.5127 28.737 53.4051C28.5437 53.2974 28.3762 53.5972 28.5698 53.7049Z" fill="white"/>
<path d="M28.6455 53.0393C28.8393 53.1469 29.0068 52.8471 28.8134 52.7388C28.6201 52.6311 28.4521 52.931 28.6455 53.0393Z" fill="white"/>
<path d="M28.8926 52.5267C29.0851 52.635 29.2531 52.3353 29.0594 52.2268C28.8664 52.1192 28.6988 52.419 28.8926 52.5267Z" fill="white"/>
<path d="M29.2409 51.9732C29.3239 52.0155 29.4276 51.9909 29.4746 51.907L29.4831 51.8924C29.5266 51.8132 29.4992 51.6994 29.417 51.6579C29.3336 51.6164 29.2295 51.6402 29.1825 51.7241L29.1744 51.7395C29.1302 51.8179 29.1572 51.9317 29.2409 51.9732Z" fill="white"/>
<path d="M29.7373 51.3652C29.8212 51.4067 29.9248 51.3829 29.9718 51.2984L29.9798 51.2837C30.0233 51.2053 29.9964 51.0908 29.9137 51.05C29.8303 51.0077 29.7265 51.0315 29.6797 51.1162L29.6712 51.1308C29.6274 51.2092 29.6543 51.3238 29.7373 51.3653V51.3652Z" fill="white"/>
<path d="M30.4566 50.9586C30.6499 51.0662 30.8174 50.7664 30.6246 50.6587C30.4308 50.551 30.2633 50.8509 30.4566 50.9586Z" fill="white"/>
<path d="M31.2448 50.8869C31.4378 50.9946 31.6062 50.694 31.4124 50.5864C31.2191 50.4788 31.0511 50.7786 31.2448 50.8869Z" fill="white"/>
<path d="M31.8889 50.9314C32.0822 51.039 32.2503 50.7392 32.0568 50.6309C31.8635 50.5232 31.6955 50.823 31.8889 50.9314Z" fill="white"/>
<path d="M32.4983 51.0747C32.6913 51.1823 32.8596 50.8825 32.6659 50.7742C32.4729 50.6665 32.3045 50.9664 32.4983 51.0747Z" fill="white"/>
<path d="M33.0303 51.3913C33.2236 51.499 33.3916 51.1992 33.1981 51.0908C33.0044 50.9832 32.8368 51.283 33.0303 51.3913Z" fill="white"/>
<path d="M33.5173 51.86C33.7098 51.9677 33.8782 51.6671 33.6846 51.5596C33.4916 51.4512 33.3232 51.7517 33.5173 51.86Z" fill="white"/>
<path d="M14.9226 48.9624C14.4504 49.1323 14.7124 49.8662 15.1858 49.695C15.6586 49.5268 15.3947 48.7924 14.9226 48.9624Z" fill="white"/>
<path d="M15.7375 47.6125C15.2655 47.7824 15.5275 48.5163 16.0002 48.3457C16.473 48.1776 16.2097 47.4425 15.7375 47.6125Z" fill="white"/>
<path d="M16.9565 46.5719C16.4837 46.7401 16.747 47.4751 17.219 47.3052C17.6912 47.1352 17.4292 46.4013 16.9565 46.5719Z" fill="white"/>
<path d="M18.4826 45.6126C18.0111 45.7819 18.2744 46.5171 18.7464 46.347C19.2204 46.1775 18.9566 45.4431 18.4826 45.6126Z" fill="white"/>
<path d="M20.2368 45.1905C19.7652 45.3598 20.0291 46.0942 20.5005 45.925C20.9732 45.7544 20.7107 45.0212 20.2368 45.1905Z" fill="white"/>
<path d="M22.0192 45.4223C21.5463 45.5904 21.8097 46.3255 22.2817 46.1555C22.7539 45.9856 22.4919 45.2517 22.0192 45.4223Z" fill="white"/>
<path d="M15.6695 54.7413C15.1979 54.9106 15.4606 55.6463 15.9333 55.4757C16.4048 55.3063 16.1435 54.5718 15.6695 54.7413Z" fill="white"/>
<path d="M15.124 53.4465C14.65 53.616 14.9133 54.3512 15.3859 54.1805C15.8594 54.0116 15.5956 53.2772 15.124 53.4465Z" fill="white"/>
<path d="M14.7164 51.8534C14.2437 52.0215 14.5075 52.7559 14.9791 52.5866C15.4531 52.4171 15.1898 51.682 14.7164 51.8534Z" fill="white"/>
<path d="M14.6943 50.2875L14.6562 50.2994C14.4645 50.3681 14.3415 50.6044 14.4217 50.7991C14.501 50.9945 14.7144 51.1078 14.9195 51.0346L14.9574 51.0203C15.1486 50.9522 15.2722 50.7177 15.1915 50.5213C15.1115 50.3266 14.8985 50.2127 14.6943 50.2877V50.2875Z" fill="white"/>
<path d="M13.7439 20.6717C13.6625 20.5817 13.5879 20.5405 13.5691 20.5312C13.5302 20.5138 13.4861 20.4964 13.4309 20.4821C13.2601 20.4379 13.0734 20.529 13.0403 20.5994C13.0029 20.6649 12.9791 20.7425 12.9741 20.8206C12.9582 21.0702 13.0391 21.3214 13.1177 21.5524C13.5186 22.7168 12.9701 23.3284 12.8363 23.4644C12.8524 23.4507 12.8742 23.4356 12.8975 23.4179C13.0871 23.2742 13.2641 23.114 13.4191 22.9338C13.4293 22.9212 13.4384 22.9095 13.4486 22.8968C13.459 22.8857 13.4684 22.8737 13.4785 22.8617C13.666 22.6286 13.8229 22.3708 13.9196 22.0932C14.0334 21.7751 14.0643 21.4339 13.9674 21.1159C13.9227 20.9724 13.848 20.808 13.7437 20.6714L13.7439 20.6717Z" fill="#5A5E62"/>
<path d="M76.1803 19.4877V18H68.7043L63.1753 35.1103L57.4318 18H49.7975V19.4877H52.528V40.1947H49.7975V41.6523H56.7463V40.1947H54.0157V21.8153L60.7461 41.9762H62.5351L69.0357 21.9245V40.1947H66.3051V41.6523H76.1803V40.1947H73.4498V19.4877H76.1803Z" fill="white"/>
<path d="M91.8556 33.5251V33.092C91.8618 32.0781 91.6654 31.0731 91.2782 30.136C90.8909 29.1989 90.3205 28.3485 89.6004 27.6347C88.8802 26.9209 88.0249 26.358 87.0844 25.979C86.1439 25.6 85.1373 25.4125 84.1234 25.4276C81.9259 25.4276 79.8184 26.3006 78.2645 27.8545C76.7106 29.4084 75.8376 31.5159 75.8376 33.7134C75.8376 35.911 76.7106 38.0185 78.2645 39.5724C79.8184 41.1263 81.9259 41.9993 84.1234 41.9993C85.594 42.0251 87.0419 41.6347 88.3 40.873C89.5582 40.1113 90.5754 39.0094 91.2342 37.6944L91.5016 37.0654H89.931L89.8143 37.3479C89.4791 38.169 87.7127 40.5116 84.1234 40.5116C80.3195 40.5116 80.0257 35.3103 80.0257 33.7134V33.5477L91.8556 33.5251ZM84.1234 26.8964C86.4435 26.8964 87.2494 29.5856 87.5131 32.0374H80.1048C80.4023 29.5856 81.3552 26.8964 84.1234 26.8964Z" fill="white"/>
<path d="M104.793 36.1989L104.687 36.5002C103.78 39.1027 102.567 40.1611 100.499 40.1611H98.1077L105.972 25.7324H94.8122L93.2115 30.5344H94.718L94.8235 30.2369C95.75 27.6758 97.0833 27.19 99.1773 27.19H100.529L92.6654 41.6488H104.718L106.277 36.1989H104.793Z" fill="white"/>
<path d="M120.355 36.199L120.257 36.4814C119.334 39.0538 117.685 40.4737 115.61 40.4737C111.809 40.4737 111.512 35.2725 111.512 33.6756C111.512 31.6342 111.911 26.8962 115.58 26.8962C117.591 26.8962 119.033 28.0261 119.869 30.2445L119.979 30.5345H121.485L119.764 25.7324H117.523C116.902 25.4986 116.242 25.3886 115.58 25.4086C114.491 25.4105 113.414 25.6268 112.41 26.045C111.405 26.4633 110.493 27.0753 109.725 27.8461C108.957 28.6169 108.348 29.5314 107.934 30.5375C107.519 31.5435 107.307 32.6213 107.309 33.7095C107.311 34.7976 107.527 35.8746 107.945 36.8792C108.363 37.8837 108.975 38.796 109.746 39.564C110.517 40.332 111.432 40.9407 112.438 41.3553C113.444 41.7698 114.522 41.9822 115.61 41.9802C116.251 41.9713 116.886 41.8607 117.493 41.6526H119.911L121.858 36.2027L120.355 36.199Z" fill="white"/>
<path d="M148.61 40.1646V18H142.083V19.4877H144.392V40.1646H142.083V41.6523H150.915V40.1646H148.61Z" fill="white"/>
<path d="M138.422 40.1613V32.045C138.467 29.8379 137.974 28.241 136.916 27.1488C135.744 25.9549 133.902 25.3975 131.078 25.3975C130.373 25.419 129.673 25.5278 128.995 25.7214H126.698L125.398 29.3521H127.01C127.854 27.7175 129.153 26.8851 130.882 26.8851C133.409 26.8851 134.072 28.4218 134.181 31.6344C133.353 30.8059 132.08 30.1091 130.136 30.1091C126.69 30.1091 123.218 31.947 123.218 36.0523C123.218 40.1575 126.69 41.9654 130.136 41.9654C132.091 41.9654 133.371 41.2611 134.2 40.4212V41.6377H140.727V40.1312L138.422 40.1613ZM134.204 37.073C134.159 38.0151 133.745 38.9016 133.051 39.5409C132.358 40.1802 131.44 40.5207 130.498 40.489C128.095 40.489 127.244 38.1049 127.244 36.0636C127.244 33.9093 128.099 31.6081 130.498 31.6081C131.44 31.5763 132.358 31.9169 133.051 32.5561C133.745 33.1954 134.159 34.082 134.204 35.0241V37.073Z" fill="white"/>
<path d="M152.12 26.5947H155.133C156.824 26.5947 157.8 27.3254 157.8 28.8093C157.8 30.2932 156.824 31.0163 155.133 31.0163H153.698V33.3816H152.12V26.5947ZM155.37 29.6492C155.488 29.6603 155.606 29.6468 155.718 29.6094C155.83 29.5721 155.933 29.5117 156.02 29.4323C156.108 29.3529 156.177 29.2561 156.225 29.1482C156.273 29.0403 156.298 28.9235 156.298 28.8055C156.298 28.6875 156.273 28.5708 156.225 28.4629C156.177 28.3549 156.108 28.2582 156.02 28.1787C155.933 28.0993 155.83 28.039 155.718 28.0017C155.606 27.9643 155.488 27.9508 155.37 27.9619H153.709V29.6492H155.37Z" fill="white"/>
<path d="M161.329 26.5947H164.609C165.939 26.5947 167.012 27.1973 167.012 28.5871C167.012 29.427 166.455 30.1689 165.223 30.3422C165.606 30.3723 165.969 30.5242 166.259 30.7757C166.549 31.0271 166.751 31.3649 166.835 31.7395L167.355 33.3816H165.792L165.362 31.9617C165.125 31.1821 164.688 30.8695 164.04 30.8695H162.91V33.3703H161.347L161.329 26.5947ZM164.342 29.5626C165.212 29.5626 165.494 29.2198 165.494 28.7415C165.494 28.2632 165.212 27.9129 164.342 27.9129H162.892V29.5626H164.342Z" fill="white"/>
<path d="M170.507 29.9809C170.507 27.9396 171.667 26.4971 173.799 26.4971C175.93 26.4971 177.06 27.9396 177.06 29.9809C177.06 32.0222 175.93 33.4798 173.799 33.4798C171.667 33.4798 170.507 32.0712 170.507 29.9809ZM175.456 29.9809C175.456 28.7681 174.902 27.8793 173.799 27.8793C172.695 27.8793 172.108 28.7681 172.108 29.9809C172.108 31.1936 172.684 32.1201 173.799 32.1201C174.914 32.1201 175.456 31.2313 175.456 29.9734V29.9809Z" fill="white"/>
</svg>
