<svg width="259" height="92" viewBox="0 0 259 92" fill="none" xmlns="http://www.w3.org/2000/svg">
<path d="M80 0H0V92H80V0Z" fill="#425BFF"/>
<path fill-rule="evenodd" clip-rule="evenodd" d="M47.755 55.3654L45.232 59.0784L49.948 66.0124H54.993L47.755 55.3654ZM40.535 65.9324L40.497 65.9714L36.907 60.7474L33.316 66.0124H47.677L44.106 60.7474L40.535 65.9324ZM33.235 55.3654L26 66.0114H31.046L35.762 59.0774L33.235 55.3654ZM29.819 47.0774C29.878 47.1564 29.936 47.2544 29.994 47.3514L34.341 53.7354L36.029 56.2294L37.989 59.1174L40.512 62.8094V62.7504L42.977 59.1174L42.045 57.7414L40.512 55.4634V55.4044L40.493 55.4444L39.367 53.7734L38.576 52.5984V52.5764L36.286 49.1764L33.433 44.9544L33.375 44.8744C33.3285 44.8211 33.2892 44.7619 33.258 44.6984C32.6041 43.6712 32.1685 42.5205 31.9783 41.3179C31.788 40.1152 31.8472 38.8863 32.152 37.7074C32.5669 36.0672 33.4535 34.5846 34.702 33.4429C35.9505 32.3011 37.5063 31.5504 39.177 31.2834C39.6256 31.2093 40.0809 31.1832 40.535 31.2054C40.9705 31.1993 41.4056 31.2327 41.835 31.3054C43.503 31.5787 45.0553 32.3316 46.3028 33.4721C47.5502 34.6126 48.4387 36.0915 48.86 37.7284C49.1649 38.9076 49.224 40.1369 49.0338 41.3399C48.8435 42.5429 48.4079 43.6939 47.754 44.7214C47.695 44.8214 47.654 44.8584 47.637 44.8974L47.579 44.9564L44.144 50.0234L43.795 49.5134L40.535 44.6984V44.6224L40.516 44.6614L40.497 44.6224L39.973 43.8754C39.5938 43.3188 39.0844 42.8632 38.4891 42.5483C37.8937 42.2334 37.2305 42.0686 36.557 42.0684C35.7156 42.0653 34.8944 42.3263 34.209 42.8144L38.149 48.6094L40.361 51.8894L40.535 52.1454L44.126 57.4454L46.649 53.7334L51 47.3514C51.058 47.2514 51.116 47.1744 51.174 47.0774L51.228 46.9984C52.572 44.8923 53.2857 42.4458 53.285 39.9474C53.2699 37.9635 52.7931 36.0103 51.8923 34.2426C50.9915 32.4749 49.6915 30.9412 48.0953 29.763C46.499 28.5848 44.6504 27.7945 42.6957 27.4546C40.7411 27.1147 38.7341 27.2345 36.8339 27.8047C34.9336 28.3749 33.1921 29.3797 31.7475 30.7395C30.3028 32.0993 29.1947 33.7769 28.5107 35.6392C27.8268 37.5016 27.5859 39.4976 27.807 41.4692C28.0282 43.4408 28.7054 45.3339 29.785 46.9984L29.819 47.0774Z" fill="white"/>
<path fill-rule="evenodd" clip-rule="evenodd" d="M112.33 59.3983H108.405V66.3453H106V49.3633H112.333C113.042 49.3356 113.749 49.4479 114.414 49.6938C115.079 49.9397 115.689 50.3143 116.209 50.7963C116.685 51.2675 117.062 51.8282 117.32 52.4461C117.577 53.064 117.71 53.7268 117.71 54.3963C117.71 55.0657 117.577 55.7285 117.32 56.3464C117.062 56.9643 116.685 57.5251 116.209 57.9963C115.149 58.9522 113.756 59.4553 112.33 59.3983ZM108.389 57.2983H111.883C112.769 57.344 113.642 57.0669 114.34 56.5183C114.641 56.2602 114.879 55.937 115.037 55.5732C115.194 55.2093 115.267 54.8144 115.249 54.4183C115.264 54.0154 115.191 53.6141 115.033 53.2427C114.876 52.8714 114.64 52.5391 114.34 52.2693C113.65 51.7038 112.774 51.4148 111.883 51.4583H108.389V57.3003V57.2983ZM121.566 59.5723V66.3473H119.253V48.9883H121.566V56.1533C121.972 55.5908 122.514 55.1411 123.142 54.8468C123.77 54.5525 124.463 54.4232 125.155 54.4713C125.739 54.4328 126.324 54.5278 126.865 54.7491C127.407 54.9703 127.891 55.3121 128.281 55.7483C129.036 56.6719 129.423 57.8425 129.366 59.0343V66.3393H127.053V59.4243C127.053 57.4933 126.144 56.5243 124.309 56.5243C123.933 56.5045 123.558 56.5714 123.212 56.7198C122.866 56.8682 122.559 57.0942 122.315 57.3803C121.828 58.0045 121.565 58.7737 121.566 59.5653V59.5723ZM132.588 56.1983C133.755 55.0787 135.31 54.4537 136.927 54.4537C138.544 54.4537 140.099 55.0787 141.266 56.1983C142.361 57.3951 142.97 58.9578 142.973 60.5802C142.976 62.2025 142.373 63.7675 141.282 64.9683C140.718 65.5423 140.041 65.9935 139.295 66.2938C138.548 66.5941 137.747 66.7369 136.943 66.7133C136.138 66.7434 135.335 66.6037 134.588 66.303C133.84 66.0023 133.164 65.5476 132.604 64.9683C132.041 64.388 131.601 63.6997 131.31 62.945C131.019 62.1902 130.884 61.3845 130.913 60.5763C130.876 59.7705 131.005 58.9657 131.293 58.2123C131.581 57.459 132.022 56.7733 132.588 56.1983ZM134.311 63.5983C134.653 63.9437 135.061 64.2178 135.51 64.4049C135.959 64.592 136.441 64.6884 136.927 64.6884C137.413 64.6884 137.895 64.592 138.344 64.4049C138.793 64.2178 139.201 63.9437 139.543 63.5983C139.915 63.1887 140.201 62.7089 140.384 62.1872C140.568 61.6655 140.645 61.1123 140.612 60.5603C140.644 60.0132 140.566 59.4653 140.382 58.949C140.198 58.4327 139.913 57.9585 139.543 57.5543C139.201 57.2089 138.793 56.9347 138.344 56.7476C137.895 56.5605 137.413 56.4642 136.927 56.4642C136.441 56.4642 135.959 56.5605 135.51 56.7476C135.061 56.9347 134.653 57.2089 134.311 57.5543C133.619 58.4096 133.242 59.4763 133.242 60.5763C133.242 61.6763 133.619 62.743 134.311 63.5983ZM146.722 59.6883V66.3553H144.409V54.8143H146.674V56.4653C147.034 55.8271 147.566 55.3022 148.208 54.9499C148.851 54.5975 149.579 54.4318 150.311 54.4713C150.895 54.433 151.48 54.528 152.021 54.7493C152.563 54.9705 153.047 55.3122 153.437 55.7483C154.192 56.6719 154.579 57.8425 154.522 59.0343V66.3393H152.209V59.4243C152.209 57.4933 151.3 56.5243 149.465 56.5243C149.08 56.5037 148.696 56.5745 148.344 56.7309C147.992 56.8873 147.682 57.1249 147.439 57.4243C146.948 58.075 146.695 58.8745 146.722 59.6893V59.6883ZM165.322 62.3993L167.316 63.0693C166.978 64.1258 166.306 65.0441 165.402 65.6863C164.416 66.3843 163.228 66.7398 162.02 66.6983C161.243 66.7145 160.47 66.5755 159.747 66.2894C159.024 66.0034 158.365 65.576 157.809 65.0323C156.709 63.8213 156.095 62.2462 156.086 60.61C156.077 58.9738 156.674 57.3921 157.761 56.1693C158.831 55.0785 160.29 54.4562 161.818 54.4386C163.345 54.421 164.818 55.0095 165.913 56.0753C166.961 57.2914 167.498 58.8653 167.413 60.4683C167.416 60.7078 167.4 60.9473 167.365 61.1843H158.48C158.473 61.6532 158.561 62.1186 158.739 62.5524C158.917 62.9861 159.182 63.379 159.517 63.7073C159.851 64.0298 160.246 64.2826 160.678 64.451C161.111 64.6194 161.573 64.7001 162.037 64.6883C162.766 64.752 163.494 64.5575 164.094 64.139C164.695 63.7204 165.129 63.1043 165.321 62.3983L165.322 62.3993ZM158.522 59.3933H164.982C164.974 58.6005 164.66 57.8415 164.105 57.2753C163.786 56.9875 163.413 56.7662 163.008 56.6244C162.602 56.4825 162.173 56.423 161.744 56.4493C160.929 56.4258 160.138 56.7206 159.537 57.2712C158.936 57.8217 158.574 58.5848 158.526 59.3983L158.522 59.3933ZM172.322 52.4933V66.3403H168.909V52.4983H163.409V49.3633H177.83V52.5093H172.33V52.4983L172.322 52.4933ZM181.096 57.7273C180.771 57.6608 180.439 57.6296 180.107 57.6343C178.432 57.6343 176.996 58.4283 176.996 60.9673V66.3573H173.726V54.5493H176.9V56.2983C177.236 55.6955 177.737 55.2017 178.345 54.8759C178.953 54.55 179.642 54.4058 180.33 54.4603C180.601 54.4603 180.84 54.4913 181.096 54.5073V57.7313V57.7273ZM185.881 59.5653L188.848 59.1293C188.964 59.1373 189.08 59.1216 189.189 59.0831C189.299 59.0446 189.399 58.984 189.484 58.9053C189.569 58.8265 189.638 58.7311 189.684 58.625C189.731 58.5189 189.756 58.4043 189.757 58.2883C189.757 57.4473 189.088 56.7623 187.716 56.7623C187.156 56.7148 186.6 56.8889 186.168 57.2473C185.735 57.6056 185.461 58.1195 185.403 58.6783L182.515 58.0863C182.707 56.2483 184.462 54.2083 187.7 54.2083C191.528 54.2083 192.948 56.3083 192.948 58.6943V64.4883C192.956 65.1137 193.004 65.738 193.091 66.3573H190.11C190.022 65.8898 189.98 65.4149 189.983 64.9393C189.589 65.5099 189.055 65.9699 188.432 66.2752C187.809 66.5805 187.119 66.721 186.426 66.6833C183.841 66.6833 182.278 64.9833 182.278 63.1323C182.278 61.0293 183.873 59.8613 185.883 59.5653H185.881ZM189.757 61.5743V61.0453L187.03 61.4453C186.637 61.4488 186.26 61.6053 185.98 61.8815C185.7 62.1577 185.539 62.5321 185.53 62.9253C185.532 63.1221 185.576 63.3162 185.659 63.4949C185.741 63.6736 185.86 63.8329 186.008 63.9625C186.156 64.0921 186.33 64.1889 186.518 64.2468C186.706 64.3046 186.905 64.3222 187.1 64.2983C187.465 64.3387 187.834 64.2954 188.179 64.1718C188.525 64.0482 188.838 63.8475 189.094 63.5849C189.35 63.3223 189.543 63.0047 189.659 62.6564C189.774 62.308 189.808 61.9379 189.759 61.5743H189.757ZM197.845 60.4543C197.808 60.8816 197.861 61.3119 198 61.7175C198.14 62.1231 198.363 62.495 198.655 62.809C198.947 63.1231 199.302 63.3725 199.696 63.5409C200.091 63.7094 200.516 63.7934 200.945 63.7873C201.565 63.8175 202.177 63.6369 202.681 63.2747C203.185 62.9126 203.551 62.3904 203.72 61.7933L206.592 62.7283C206.232 63.9272 205.479 64.9704 204.455 65.6905C203.431 66.4106 202.195 66.7659 200.945 66.6993C200.111 66.7242 199.281 66.5801 198.504 66.2756C197.728 65.9711 197.021 65.5125 196.426 64.9275C195.831 64.3425 195.361 63.6432 195.044 62.8717C194.727 62.1002 194.569 61.2724 194.58 60.4383C194.559 59.6109 194.706 58.788 195.013 58.0193C195.319 57.2506 195.779 56.5522 196.364 55.9666C196.949 55.381 197.646 54.9203 198.415 54.6126C199.183 54.3048 200.006 54.1564 200.833 54.1763C202.089 54.0918 203.335 54.4398 204.366 55.1625C205.396 55.8851 206.148 56.9389 206.496 58.1483L203.577 59.1143C203.432 58.5221 203.085 57.999 202.596 57.6352C202.107 57.2713 201.506 57.0896 200.897 57.1213C200.472 57.122 200.053 57.211 199.664 57.3825C199.276 57.5539 198.927 57.8042 198.64 58.1174C198.353 58.4307 198.135 58.8 197.998 59.2021C197.862 59.6042 197.81 60.0302 197.847 60.4533L197.845 60.4543ZM214.945 59.5193L219.874 66.3573H215.874L212.684 61.8573L211.328 63.2443V66.3593H208.058V48.9883H211.328V58.9423L215.508 54.5493H219.783L214.945 59.5193ZM230.403 62.9773C230.032 64.1233 229.29 65.113 228.294 65.7902C227.298 66.4673 226.105 66.7932 224.903 66.7163C223.276 66.7032 221.717 66.0576 220.557 64.9161C219.397 63.7745 218.727 62.2265 218.688 60.5996C218.649 58.9726 219.245 57.3943 220.348 56.1985C221.452 55.0027 222.978 54.2832 224.603 54.1923C228.336 54.1923 230.569 56.5133 230.569 60.2993C230.569 60.7503 230.521 61.2333 230.521 61.2793H221.87C221.93 62.0343 222.282 62.7363 222.85 63.2365C223.419 63.7366 224.16 63.9955 224.917 63.9583C225.509 64.0083 226.1 63.8593 226.597 63.5348C227.094 63.2103 227.469 62.729 227.661 62.1673L230.403 62.9773ZM227.356 59.1143C227.348 58.7789 227.269 58.449 227.125 58.1458C226.981 57.8427 226.776 57.5731 226.521 57.3544C226.267 57.1357 225.969 56.9727 225.648 56.8761C225.327 56.7794 224.989 56.7512 224.656 56.7933C223.994 56.7592 223.344 56.9812 222.841 57.4134C222.339 57.8455 222.022 58.4546 221.956 59.1143H227.348H227.356ZM239.415 57.7283C239.09 57.6618 238.758 57.6306 238.426 57.6353C236.751 57.6353 235.316 58.4293 235.316 60.9683V66.3583H232.062V54.5493H235.236V56.2983C235.572 55.6955 236.073 55.2017 236.681 54.8759C237.289 54.55 237.978 54.4058 238.666 54.4603C238.937 54.4603 239.176 54.4913 239.431 54.5073V57.7313H239.415V57.7283ZM240.899 66.3583V48.9883H244.169V66.3403H240.9V66.3563L240.899 66.3583ZM247.936 70.9983L250.791 64.8613L245.654 54.5503H249.307L252.53 61.4503L255.497 54.5503H258.99L251.413 70.9983H247.936Z" fill="#425BFF"/>
</svg>
