<svg width="31" height="42" viewBox="0 0 31 42" fill="none" xmlns="http://www.w3.org/2000/svg">
<path d="M23.1804 29.8594L20.4922 33.7676L25.517 41.067H30.8934L23.1804 29.8594Z" fill="#0C214C"/>
<path d="M15.488 40.9825L15.4466 41.0239L11.6211 35.5234L7.79565 41.0652H15.426H15.488H23.0976L19.2928 35.5234L15.488 40.9825Z" fill="#0C214C"/>
<path d="M7.71301 29.8594L0 41.067H5.37636L10.4012 33.7676L7.71301 29.8594Z" fill="#0C214C"/>
<path d="M4.07359 21.1332C4.13563 21.216 4.19766 21.3193 4.2597 21.4227L8.89164 28.1432L10.6907 30.7693L12.7792 33.809L15.4673 37.6966V37.6345L18.0935 33.809L17.1009 32.3616L15.4673 29.9629V29.9008L15.4467 29.9422L14.2473 28.1845L13.3995 26.9438V26.9232L10.9595 23.3458L7.91976 18.9L7.85772 18.8173C7.81637 18.7759 7.79569 18.7346 7.73365 18.6312C6.34821 16.4806 5.89328 13.8545 6.55499 11.2697C7.44416 7.75437 10.4425 5.04551 14.0405 4.50787C14.5368 4.42516 15.0124 4.40448 15.488 4.42516C15.9429 4.42516 16.4185 4.44584 16.8735 4.52855C20.4508 5.08687 23.4699 7.77505 24.359 11.2904C25.0207 13.8751 24.5658 16.5013 23.1804 18.6518C23.1183 18.7552 23.077 18.7966 23.0563 18.8379L22.9942 18.9L19.3342 24.235L18.962 23.6973L15.488 18.6312V18.5484L15.4673 18.5898L15.4467 18.5484L14.8884 17.7627C14.0405 16.522 12.6344 15.8603 11.249 15.8603C10.3805 15.8603 9.51199 16.1084 8.74689 16.646L12.9446 22.7461L15.3019 26.1994L15.488 26.4682L19.3135 32.0514L22.0017 28.1432L26.6336 21.4227C26.6957 21.3193 26.7577 21.2366 26.8197 21.1332L26.8818 21.0505C28.3086 18.8379 29.0737 16.2738 29.0737 13.627C29.0737 6.12078 22.9736 0.0206783 15.488 0C7.96111 0 1.84033 6.1001 1.84033 13.627C1.84033 16.2738 2.58475 18.8379 4.03223 21.0505L4.07359 21.1332Z" fill="#0C214C"/>
</svg>
