<svg width="305" height="109" viewBox="0 0 305 109" fill="none" xmlns="http://www.w3.org/2000/svg">
<path d="M79.7082 34.0533H57.558L53.1904 44.3005H44.707L64.6494 0.0119629H72.7488L92.7392 44.3005H84.1359L79.7082 34.0533ZM77.0205 27.5978L68.6211 8.23128L60.3298 27.5978H77.0205Z" fill="white"/>
<path d="M98.0684 0.0119629H106.288V37.341H129.446V44.3005H98.0684V0.0119629Z" fill="white"/>
<path d="M143.008 6.9354V20.4103H164.39V27.3338H143.008V44.2884H134.776V0.0119629H167.174V6.9354H143.008Z" fill="white"/>
<path d="M233.781 0.0119629L213.659 44.3005H204.923L198 11.531L182.845 44.3005H174.05L164.811 0.0119629H173.354L180.229 33.6093L195.828 0.0119629H203.411L210.455 33.8613L225.946 0.0119629H233.781Z" fill="white"/>
<path d="M258.882 34.0533H236.744L232.376 44.3005H223.893L243.8 0.0119629H251.899L271.901 44.3005H263.286L258.882 34.0533ZM256.171 27.5978L247.771 8.23128L239.492 27.5978H256.171Z" fill="white"/>
<path d="M287.661 28.6777V44.2765H279.442V28.7977L262.031 0H270.827L283.798 21.5983L296.9 0H305L287.661 28.6777Z" fill="white"/>
<path d="M8.21935 18.3103V6.71926V0.0238037H0V44.3123H8.21935V34.581V25.3298V18.3103Z" fill="white"/>
<path d="M31.1255 0.0119629V6.70742V18.2985V25.318V34.5692V44.3005H39.3568V0.0119629H31.1255Z" fill="white"/>
<path d="M19.671 13.283L4.09619 21.4183V29.8657L19.671 21.7303L35.2337 29.8657V21.4183L19.671 13.283Z" fill="white"/>
<path d="M34.3504 61.256H0V86.8024C0 99.9667 8.32128 108.438 21.2859 108.438C34.2505 108.438 42.5219 99.9334 42.5219 86.8024V61.256H34.3504Z" fill="#C5C1FF"/>
<path d="M71.5633 61.256H51.2593V108.471H68.2348V97.7533H71.5633C84.0286 97.7533 92.4166 90.4139 92.4166 79.4464C92.4166 68.4789 84.245 61.256 71.5633 61.256Z" fill="#C5C1FF"/>
</svg>
