<svg width="157" height="68" viewBox="0 0 157 68" fill="none" xmlns="http://www.w3.org/2000/svg">
<path d="M9.38927 10.612C8.93786 10.1322 8.44131 9.78681 7.89962 9.55653C7.35793 9.33265 6.80335 9.22391 6.22942 9.22391C5.68773 9.22391 5.19118 9.30707 4.73977 9.46698C4.28837 9.63329 3.895 9.86357 3.56611 10.1578C3.23723 10.4585 2.97929 10.8103 2.79872 11.2133C2.61816 11.6162 2.52788 12.0384 2.52788 12.4926C2.52788 12.9723 2.63106 13.4649 2.84386 13.9702C3.05667 14.4755 3.35331 15.0128 3.74668 15.5821L9.11842 23.3284C9.53759 23.9233 9.86647 24.5246 10.0922 25.1194C10.3179 25.7143 10.4275 26.2964 10.4275 26.8657C10.4275 27.5246 10.2856 28.1514 9.99544 28.7463C9.7117 29.3412 9.31833 29.8529 8.82178 30.2687C8.32524 30.6845 7.73841 31.0171 7.0613 31.2538C6.38419 31.4904 5.66838 31.612 4.92034 31.612C3.98528 31.612 3.10181 31.4329 2.25704 31.0747C1.41226 30.7165 0.664213 30.2111 0 29.5523L0.180562 29.3284C0.780289 29.9553 1.4445 30.435 2.16675 30.7612C2.88901 31.0875 3.61126 31.2538 4.33351 31.2538C4.81716 31.2538 5.26856 31.1706 5.68773 31.0043C6.10689 30.838 6.46802 30.6077 6.77111 30.3135C7.07419 30.0128 7.31279 29.6546 7.49336 29.2388C7.67392 28.8231 7.7642 28.3881 7.7642 27.9403C7.7642 27.3455 7.62878 26.7186 7.35793 26.0597C7.08709 25.4009 6.68082 24.7037 6.13914 23.9553L1.17366 16.9702C0.780289 16.4009 0.490098 15.8444 0.29019 15.2943C0.0967293 14.7442 0 14.1813 0 13.6184C0 12.9595 0.141871 12.3391 0.432061 11.757C0.715803 11.1749 1.10917 10.6695 1.60572 10.2346C2.10227 9.79961 2.6891 9.46059 3.36621 9.20472C4.04332 8.94886 4.75912 8.82092 5.51361 8.82092C6.2939 8.82092 7.0355 8.95526 7.72551 9.22391C8.41552 9.49257 9.04749 9.89555 9.62142 10.4329L9.38927 10.612Z" fill="#0B1014"/>
<path d="M11.5109 9.13435H14.3548L17.9661 26.3732H18.0563L18.3272 25.0747L20.4037 14.8657L19.1849 9.13435H22.0287L25.3691 25.0747L25.6851 26.3732H25.7754L26.0463 25.0747L29.2964 9.13435H29.6575L25.008 31.2985H24.0601L20.9454 17.1941L20.6294 15.8955H20.5391L20.3134 17.2388L17.289 31.2985H16.3861L11.5109 9.13435Z" fill="#0B1014"/>
<path d="M37.4218 8.82092C38.2343 8.82092 39.0017 8.96805 39.724 9.26869C40.4462 9.56933 41.0782 9.97871 41.6199 10.4968C42.1616 11.0214 42.5936 11.629 42.9096 12.3327C43.2256 13.0363 43.3804 13.7719 43.3804 14.5459V25.919C43.3804 26.693 43.2256 27.4286 42.9096 28.113C42.5936 28.7975 42.1745 29.4052 41.6457 29.9297C41.1169 30.4542 40.4914 30.8636 39.7756 31.1578C39.0533 31.4585 38.2859 31.6056 37.4734 31.6056C36.6931 31.6056 35.9321 31.4457 35.197 31.1322C34.4618 30.8188 33.8105 30.4094 33.2559 29.9041C32.7014 29.3988 32.2564 28.7975 31.9275 28.113C31.5986 27.4286 31.431 26.693 31.431 25.919V14.5459C31.431 13.7719 31.5922 13.0299 31.9017 12.3327C32.2177 11.629 32.6562 11.0214 33.2108 10.4968C33.7654 9.97231 34.4038 9.56293 35.1325 9.26869C35.8419 8.96805 36.6093 8.82092 37.4218 8.82092ZM37.4218 9.08958C36.4609 9.08958 35.6936 9.41581 35.1196 10.0747C34.5457 10.7335 34.2619 11.629 34.2619 12.7612V27.7165C34.2619 28.8487 34.5457 29.7378 35.1196 30.3838C35.6936 31.0235 36.4738 31.3433 37.4669 31.3433C38.46 31.3433 39.2274 31.0299 39.7691 30.403C40.3108 29.7762 40.5816 28.8806 40.5816 27.7165V12.7612C40.5816 11.597 40.3043 10.6951 39.7498 10.0555C39.1887 9.40941 38.4149 9.08958 37.4218 9.08958Z" fill="#0B1014"/>
<path d="M49.1131 9.13436V13.612H49.2485C49.4871 12.838 49.7837 12.1472 50.1255 11.5523C50.4737 10.9574 50.8542 10.4585 51.2798 10.0555C51.699 9.65248 52.1826 9.34545 52.7243 9.13436C53.266 8.92327 53.8528 8.82092 54.4848 8.82092V11.1045C53.8206 11.0469 53.2015 11.1045 52.6147 11.2836C52.0279 11.4627 51.4862 11.7378 50.9896 12.1088C50.4931 12.4798 50.0868 12.9275 49.7708 13.4521C49.4548 13.9766 49.2356 14.5651 49.1131 15.2239V31.2985H46.4046V9.13436H49.1131Z" fill="#0B1014"/>
<path d="M65.2733 28.5224H65.183C64.8542 29.5395 64.3512 30.307 63.6676 30.8252C62.9905 31.3497 62.2295 31.612 61.3912 31.612C60.727 31.612 60.0886 31.4712 59.4695 31.1834C58.8504 30.9019 58.3088 30.5053 57.8444 30C57.3801 29.4947 56.9997 28.8998 56.7159 28.2282C56.4322 27.5565 56.2839 26.8593 56.2839 26.1493V14.4627C56.2839 13.7143 56.4257 12.9979 56.7159 12.3134C56.9997 11.629 57.3866 11.0213 57.8702 10.5032C58.3539 9.97868 58.902 9.5693 59.5146 9.27506C60.1337 8.97442 60.785 8.82729 61.475 8.82729C62.2876 8.82729 63.0227 9.08316 63.6869 9.58849C64.3512 10.0938 64.8477 10.8422 65.1766 11.8273H65.2669V0H68.0204V31.2985H65.2669V28.5224H65.2733ZM64.9831 11.8465C64.7897 11.322 64.5317 10.8614 64.2157 10.4584C63.8997 10.0554 63.5386 9.73561 63.1324 9.49894C62.7261 9.26226 62.3005 9.14072 61.8426 9.14072C61.0881 9.14072 60.4497 9.47335 59.9274 10.145C59.3986 10.8166 59.1342 11.661 59.1342 12.678V27.7228C59.1342 28.7079 59.3921 29.5459 59.9016 30.2303C60.411 30.9147 61.0752 31.2601 61.8878 31.2601C62.3069 31.2601 62.7196 31.1386 63.1259 30.9019C63.5322 30.6653 63.8997 30.339 64.2286 29.9424C64.5575 29.5395 64.8155 29.0789 64.996 28.5544C65.1766 28.0299 65.2669 27.4989 65.2669 26.968V13.4776C65.2733 12.9083 65.1766 12.3646 64.9831 11.8465Z" fill="#0B1014"/>
<path d="M1.1543 39.2047C1.47029 38.5011 1.90879 37.8934 2.46338 37.3689C3.01797 36.8443 3.65638 36.435 4.38508 36.1407C5.10734 35.8401 5.87473 35.693 6.68726 35.693C7.49979 35.693 8.26718 35.8401 8.98944 36.1407C9.71169 36.4414 10.3437 36.8507 10.8853 37.3689C11.427 37.8934 11.8591 38.5011 12.1751 39.2047C12.4911 39.9083 12.6458 40.6439 12.6458 41.4179V47.0149H3.29526V46.7463H9.84066V39.6269C9.84066 38.4627 9.56337 37.5608 9.00878 36.9211C8.4542 36.2814 7.68036 35.9552 6.68726 35.9552C5.72641 35.9552 4.95902 36.2814 4.38508 36.9403C3.81115 37.5991 3.52741 38.4947 3.52741 39.6269V54.0448C3.52741 54.6141 3.62414 55.1578 3.82405 55.6823C4.01751 56.2068 4.2819 56.6546 4.61079 57.0256C4.93967 57.3966 5.34594 57.6908 5.82959 57.9019C6.31324 58.113 6.82268 58.2154 7.36437 58.2154C7.84802 58.2154 8.34457 58.1322 8.85401 57.9723C9.36346 57.806 9.84711 57.5693 10.2985 57.2559C10.7499 56.9424 11.1626 56.5714 11.5367 56.1365C11.9107 55.7015 12.2331 55.2345 12.504 54.7228L12.7297 54.8571C12.1299 56.0213 11.3174 56.9168 10.2921 57.5437C9.26673 58.1706 8.13821 58.484 6.90651 58.484C6.06174 58.484 5.25565 58.3369 4.48826 58.0362C3.72087 57.7356 3.05021 57.3326 2.47628 56.8273C1.90235 56.322 1.46384 55.7207 1.14785 55.0362C0.831866 54.3518 0.677098 53.6034 0.677098 52.7974V41.4243C0.677098 40.6439 0.838316 39.9019 1.1543 39.2047Z" fill="#0B1014"/>
<path d="M20.2682 36.6972C21.0227 36.0256 21.9384 35.6866 23.0217 35.6866C23.6215 35.6866 24.2019 35.8017 24.7564 36.0192C25.311 36.2431 25.7947 36.5565 26.2009 36.9595C26.6072 37.3625 26.9232 37.8486 27.1489 38.4115C27.3746 38.9808 27.4907 39.5757 27.4907 40.2025V58.1578H24.6468V39.2175C24.6468 38.2324 24.434 37.4648 24.0148 36.9147C23.5957 36.3646 23.0346 36.0895 22.3446 36.0895C21.8352 36.0895 21.3386 36.2367 20.855 36.5373C20.3713 36.8379 19.9522 37.2409 19.5911 37.7463C19.2299 38.2516 18.9333 38.8273 18.7076 39.4669C18.4819 40.1066 18.3723 40.7591 18.3723 41.4115V58.1578H15.6187V35.9936H18.3723V39.71H18.4625C18.9139 38.3731 19.5137 37.3625 20.2682 36.6972Z" fill="#0B1014"/>
<path d="M31.3728 39.2687C31.6759 38.5522 32.095 37.9254 32.6367 37.3881C33.1784 36.8507 33.8039 36.435 34.5068 36.1343C35.2162 35.8337 35.99 35.6866 36.8284 35.6866C37.7634 35.6866 38.6791 35.8785 39.5819 36.2687C40.4847 36.6588 41.2199 37.1642 41.7938 37.791L41.6133 37.9701C41.1038 37.4008 40.4396 36.9339 39.6271 36.5565C38.8145 36.1855 38.0149 35.9936 37.2346 35.9936C36.1835 35.9936 35.3387 36.3582 34.7067 37.0874C34.0748 37.8166 33.7588 38.7953 33.7588 40.0171V53.9872C33.7588 55.2409 34.107 56.2452 34.797 57.0064C35.487 57.7676 36.3898 58.1514 37.5055 58.1514C38.0149 58.1514 38.5115 58.0746 38.9951 57.9275C39.4788 57.7804 39.9431 57.5629 40.3945 57.2751C40.8459 56.9936 41.2521 56.661 41.6133 56.29C41.9744 55.919 42.2904 55.4904 42.5612 55.0107L42.7869 55.145C42.1872 56.1876 41.3876 57 40.3945 57.5821C39.4014 58.1642 38.2858 58.4584 37.0541 58.4584C36.1835 58.4584 35.3709 58.3177 34.6165 58.0299C33.862 57.7484 33.2171 57.339 32.6754 56.7953C32.1337 56.258 31.7081 55.6311 31.3857 54.9147C31.0697 54.1983 30.9149 53.4243 30.9149 52.5863V41.5266C30.9214 40.7463 31.0697 39.9851 31.3728 39.2687Z" fill="#0B1014"/>
<path d="M46.1789 36L50.1062 52.4776L50.4222 53.7761H50.5124L50.8736 52.4776L54.6654 36H55.0265L47.8491 66H47.488L49.3388 58.1642H48.8422L43.3351 36H46.1789Z" fill="#0B1014"/>
<path d="M57.2384 39.2687C57.5415 38.5522 57.9607 37.9254 58.5023 37.3881C59.044 36.8507 59.6695 36.435 60.3725 36.1343C61.0818 35.8337 61.8556 35.6866 62.694 35.6866C63.629 35.6866 64.5447 35.8785 65.4476 36.2687C66.3504 36.6588 67.0855 37.1642 67.6595 37.791L67.4789 37.9701C66.9694 37.4008 66.3052 36.9339 65.4927 36.5565C64.6802 36.1855 63.8805 35.9936 63.1002 35.9936C62.0491 35.9936 61.2043 36.3582 60.5724 37.0874C59.9404 37.8166 59.6244 38.7953 59.6244 40.0171V53.9872C59.6244 55.2409 59.9726 56.2452 60.6626 57.0064C61.3526 57.7676 62.2555 58.1514 63.3711 58.1514C63.8805 58.1514 64.3771 58.0746 64.8607 57.9275C65.3444 57.7804 65.8087 57.5629 66.2601 57.2751C66.7115 56.9936 67.1178 56.661 67.4789 56.29C67.84 55.919 68.156 55.4904 68.4268 55.0107L68.6525 55.145C68.0528 56.1876 67.2532 57 66.2601 57.5821C65.267 58.1642 64.1514 58.4584 62.9197 58.4584C62.0491 58.4584 61.2366 58.3177 60.4821 58.0299C59.7276 57.7484 59.0827 57.339 58.541 56.7953C57.9993 56.258 57.5737 55.6311 57.2513 54.9147C56.9353 54.1983 56.7805 53.4243 56.7805 52.5863V41.5266C56.787 40.7463 56.9353 39.9851 57.2384 39.2687Z" fill="#0B1014"/>
<path d="M83.2394 35.6866C84.052 35.6866 84.8194 35.8337 85.5416 36.1343C86.2639 36.435 86.8958 36.8443 87.4375 37.3625C87.9792 37.887 88.4113 38.4947 88.7273 39.1983C89.0433 39.9019 89.198 40.6375 89.198 41.4115V52.7846C89.198 53.5586 89.0433 54.2942 88.7273 54.9787C88.4113 55.6631 87.9921 56.2708 87.4633 56.7953C86.9345 57.3198 86.309 57.7292 85.5932 58.0235C84.871 58.3241 84.1036 58.4712 83.291 58.4712C82.5107 58.4712 81.7498 58.3113 81.0146 57.9979C80.2795 57.6844 79.6282 57.2751 79.0736 56.7697C78.519 56.2644 78.0741 55.6631 77.7452 54.9787C77.4163 54.2942 77.2486 53.5586 77.2486 52.7846V41.4115C77.2486 40.6375 77.4098 39.8955 77.7194 39.1983C78.0354 38.4947 78.4739 37.887 79.0285 37.3625C79.5831 36.838 80.2215 36.4286 80.9502 36.1343C81.6595 35.8337 82.4269 35.6866 83.2394 35.6866ZM83.2394 35.9552C82.2786 35.9552 81.5112 36.2814 80.9373 36.9403C80.3633 37.5991 80.0796 38.4947 80.0796 39.6269V54.5821C80.0796 55.7143 80.3633 56.6034 80.9373 57.2495C81.5112 57.8891 82.2915 58.209 83.2846 58.209C84.2777 58.209 85.0451 57.8955 85.5868 57.2687C86.1284 56.6418 86.3993 55.7463 86.3993 54.5821V39.6269C86.3993 38.4627 86.122 37.5608 85.5674 36.9211C85.0064 36.275 84.2325 35.9552 83.2394 35.9552Z" fill="#0B1014"/>
<path d="M95.608 36V38.7761H95.6531C96.0143 37.7591 96.5302 36.9915 97.2137 36.4733C97.8908 35.9488 98.6518 35.6866 99.4901 35.6866C100.18 35.6866 100.838 35.8273 101.45 36.1151C102.07 36.3966 102.605 36.7932 103.056 37.2985C103.508 37.8038 103.875 38.3987 104.159 39.0704C104.443 39.742 104.591 40.4328 104.591 41.1493V52.8358C104.591 53.5522 104.449 54.2623 104.159 54.9659C103.875 55.6695 103.488 56.2772 103.005 56.8017C102.521 57.3262 101.973 57.7356 101.36 58.0299C100.741 58.3305 100.103 58.4776 99.4385 58.4776C98.626 58.4776 97.8908 58.2217 97.2266 57.7164C96.5624 57.2111 96.053 56.4627 95.6918 55.4776H95.6015V56.6418L95.608 36ZM95.8982 55.4328C96.0916 55.9382 96.3496 56.3923 96.6656 56.8017C96.9816 57.2047 97.3427 57.5309 97.749 57.7868C98.1552 58.0426 98.5808 58.1706 99.0387 58.1706C99.7932 58.1706 100.438 57.8252 100.98 57.1407C101.521 56.4563 101.792 55.6183 101.792 54.6333V39.5885C101.792 38.6034 101.528 37.7655 100.999 37.081C100.47 36.3966 99.8061 36.0512 98.9871 36.0512C98.5679 36.0512 98.1552 36.1727 97.749 36.4094C97.3427 36.646 96.9751 36.9723 96.6462 37.3689C96.3174 37.7719 96.0594 38.2324 95.8788 38.7569C95.6983 39.2814 95.608 39.8124 95.608 40.3497V53.8273C95.608 54.3902 95.7047 54.9275 95.8982 55.4328Z" fill="#0B1014"/>
<path d="M107.996 39.2047C108.312 38.5011 108.75 37.8934 109.305 37.3689C109.86 36.8443 110.498 36.435 111.227 36.1407C111.949 35.8401 112.716 35.693 113.529 35.693C114.341 35.693 115.109 35.8401 115.831 36.1407C116.553 36.4414 117.185 36.8507 117.727 37.3689C118.269 37.8934 118.701 38.5011 119.017 39.2047C119.333 39.9083 119.487 40.6439 119.487 41.4179V47.0149H110.143V46.7463H116.689V39.6269C116.689 38.4627 116.411 37.5608 115.857 36.9211C115.302 36.2814 114.528 35.9552 113.535 35.9552C112.574 35.9552 111.807 36.2814 111.233 36.9403C110.659 37.5991 110.375 38.4947 110.375 39.6269V54.0448C110.375 54.6141 110.472 55.1578 110.672 55.6823C110.866 56.2068 111.13 56.6546 111.459 57.0256C111.788 57.3966 112.194 57.6908 112.678 57.9019C113.161 58.113 113.671 58.2154 114.212 58.2154C114.696 58.2154 115.193 58.1322 115.702 57.9723C116.212 57.806 116.695 57.5693 117.147 57.2559C117.598 56.9424 118.011 56.5714 118.385 56.1365C118.759 55.7015 119.081 55.2345 119.352 54.7228L119.578 54.8571C118.978 56.0213 118.165 56.9168 117.14 57.5437C116.115 58.1706 114.986 58.484 113.755 58.484C112.91 58.484 112.104 58.3369 111.336 58.0362C110.569 57.7356 109.898 57.3326 109.324 56.8273C108.75 56.322 108.312 55.7207 107.996 55.0362C107.68 54.3518 107.525 53.6034 107.525 52.7974V41.4243C107.525 40.6439 107.68 39.9019 107.996 39.2047Z" fill="#0B1014"/>
<path d="M131.405 55.3881H131.314C130.985 56.4051 130.482 57.1727 129.799 57.6908C129.122 58.2154 128.361 58.4776 127.522 58.4776C126.858 58.4776 126.22 58.3369 125.601 58.049C124.982 57.7676 124.44 57.371 123.976 56.8657C123.511 56.3603 123.131 55.7655 122.847 55.0938C122.563 54.4222 122.415 53.7249 122.415 53.0149V41.3284C122.415 40.58 122.557 39.8635 122.847 39.1791C123.131 38.4947 123.518 37.887 124.001 37.3689C124.485 36.8443 125.033 36.435 125.646 36.1407C126.265 35.8401 126.916 35.693 127.606 35.693C128.419 35.693 129.154 35.9488 129.818 36.4541C130.482 36.9595 130.979 37.7079 131.308 38.693H131.398V26.8721H134.152V58.1706H131.398V55.3881H131.405ZM131.108 38.7121C130.914 38.1876 130.657 37.7271 130.341 37.3241C130.025 36.9211 129.663 36.6013 129.257 36.3646C128.851 36.1279 128.425 36.0064 127.967 36.0064C127.213 36.0064 126.575 36.339 126.052 37.0107C125.523 37.6823 125.259 38.5266 125.259 39.5437V54.5885C125.259 55.5736 125.517 56.4115 126.026 57.0959C126.536 57.7804 127.2 58.1258 128.013 58.1258C128.432 58.1258 128.844 58.0043 129.251 57.7676C129.657 57.5309 130.025 57.2047 130.353 56.8081C130.682 56.4051 130.94 55.9446 131.121 55.42C131.301 54.8955 131.392 54.3646 131.392 53.8337V40.3561C131.405 39.774 131.308 39.2303 131.108 38.7121Z" fill="#0B1014"/>
<path d="M138.401 30.1791C138.704 29.8785 139.091 29.7313 139.575 29.7313C140.059 29.7313 140.446 29.8785 140.749 30.1791C141.052 30.4797 141.2 30.8507 141.2 31.2985C141.2 31.7782 141.052 32.162 140.749 32.4627C140.446 32.7633 140.059 32.9104 139.575 32.9104C139.091 32.9104 138.704 32.7633 138.401 32.4627C138.098 32.162 137.95 31.7782 137.95 31.2985C137.95 30.8507 138.098 30.4797 138.401 30.1791ZM140.929 36V58.1642H138.176V36H140.929Z" fill="#0B1014"/>
<path d="M144.495 51.7164C144.495 50.968 144.682 50.2708 145.063 49.6119C145.437 48.9531 146.004 48.3582 146.752 47.8209C147.507 47.2836 148.436 46.8038 149.551 46.3881C150.667 45.9723 151.976 45.5949 153.478 45.2687V40.1194C153.478 38.8977 153.143 37.919 152.459 37.1898C151.782 36.4606 150.918 36.0959 149.867 36.0959C149.506 36.0959 149.126 36.1407 148.719 36.2303C148.313 36.3198 147.92 36.4541 147.546 36.6333C147.172 36.8124 146.817 37.0107 146.482 37.2345C146.153 37.4584 145.882 37.7015 145.669 37.9765L145.443 37.7974C145.714 37.4968 146.037 37.2153 146.411 36.9467C146.785 36.678 147.191 36.4541 147.629 36.275C148.068 36.0959 148.526 35.9552 149.003 35.8465C149.487 35.7441 149.983 35.6866 150.493 35.6866C151.305 35.6866 152.066 35.8273 152.775 36.1151C153.485 36.3966 154.097 36.7932 154.626 37.2985C155.155 37.8038 155.568 38.4115 155.864 39.1087C156.167 39.8124 156.316 40.548 156.316 41.3284V58.1642H153.472V55.8358H153.382C152.872 56.6418 152.163 57.2815 151.26 57.7612C150.357 58.2409 149.442 58.4776 148.506 58.4776C147.933 58.4776 147.404 58.3625 146.907 58.1386C146.411 57.9147 145.991 57.5949 145.643 57.1791C145.295 56.7633 145.018 56.2516 144.811 55.6567C144.599 55.0618 144.495 54.4158 144.495 53.7313V51.7164ZM151.828 57.0704C152.537 56.5778 153.085 55.9574 153.478 55.209V45.5373C152.543 45.7484 151.692 46.0234 150.925 46.3689C150.157 46.7143 149.512 47.1045 148.984 47.5522C148.455 48 148.049 48.4925 147.765 49.0298C147.481 49.5672 147.333 50.1365 147.333 50.7313V54.2687C147.333 55.3433 147.552 56.2004 147.991 56.8401C148.429 57.4797 149.022 57.7996 149.777 57.7996C150.435 57.806 151.125 57.5629 151.828 57.0704Z" fill="#0B1014"/>
<path d="M70.6904 26.5523H73.444V57.8508H70.6904V26.5523Z" fill="#0B1014"/>
<path fill-rule="evenodd" clip-rule="evenodd" d="M86.5605 23.8187C87.3279 23.8187 87.9534 23.4733 88.3726 22.9232H92.3966L92.8157 23.339V64.6162L94.2086 67.5203L95.6015 64.6162V23.339C95.7434 23.1983 95.8788 23.064 96.0207 22.9232H99.5804C99.9286 23.4733 100.625 23.8187 101.322 23.8187C102.508 23.8187 103.482 22.8529 103.482 21.6759C103.482 20.4989 102.508 19.6034 101.322 19.6034C100.696 19.6034 100.07 19.8785 99.6513 20.3646H95.8788C95.8079 20.2239 95.737 20.1599 95.6015 20.0895V15.1514C96.0916 14.806 96.3689 14.1855 96.3689 13.565C96.3689 12.388 95.3952 11.4222 94.2086 11.4222C93.0221 11.4222 92.0483 12.388 92.0483 13.565C92.0483 14.1855 92.3256 14.806 92.8157 15.1514V20.0895C92.6739 20.1599 92.6094 20.2303 92.5384 20.3646H88.3081C88.1662 20.3646 87.6116 19.6034 86.567 19.6034C85.3804 19.6034 84.4067 20.4989 84.4067 21.6759C84.4067 22.8529 85.3804 23.8187 86.5605 23.8187Z" fill="#0B1014"/>
</svg>
