<svg width="103" height="33" viewBox="0 0 103 33" fill="none" xmlns="http://www.w3.org/2000/svg">
<g clip-path="url(#clip0_153_3498)">
<path d="M4.73069 15.253C4.73069 15.6631 5.00217 15.9981 5.5509 16.258C6.09964 16.5179 6.7639 16.7432 7.54368 16.9396C8.32924 17.136 9.10902 17.3844 9.89458 17.679C10.6801 17.9793 11.3444 18.4761 11.8874 19.1808C12.4361 19.8797 12.7076 20.7577 12.7076 21.8089C12.7076 23.3974 12.1126 24.6161 10.9285 25.471C9.7444 26.3259 8.2657 26.7533 6.49242 26.7533C3.3213 26.7533 1.15523 25.5288 0 23.0739L3.45993 21.1273C3.91047 22.4674 4.9213 23.1374 6.48664 23.1374C7.90758 23.1374 8.61805 22.6927 8.61805 21.8089C8.61805 21.3988 8.34657 21.0638 7.79783 20.8039C7.2491 20.5439 6.58484 20.3129 5.80505 20.1107C5.01949 19.9028 4.23971 19.6486 3.45415 19.3367C2.66859 19.0248 2.00433 18.5396 1.46137 17.8696C0.912635 17.1995 0.641155 16.362 0.641155 15.3512C0.641155 13.8262 1.20144 12.6248 2.3278 11.7526C3.44838 10.8746 4.84621 10.4414 6.51552 10.4414C7.77473 10.4414 8.91841 10.7244 9.94657 11.2905C10.9747 11.8566 11.7892 12.6652 12.3899 13.7165L8.98773 15.5706C8.49097 14.5194 7.67076 13.9938 6.51552 13.9938C6.00144 13.9938 5.57401 14.1093 5.23321 14.3345C4.89242 14.5598 4.72491 14.8717 4.72491 15.2645L4.73069 15.253Z" fill="white"/>
<path d="M31.7169 10.8633H35.5465L31.0411 26.3203H27.1307L24.2079 16.9571L21.2852 26.3203H17.3747L12.8289 10.8633H17.0455L19.691 20.3535L22.5039 10.8633H26.2758L29.0888 20.3882L31.7112 10.8633H31.7169Z" fill="white"/>
<path d="M59.7313 13.5257C60.3898 12.538 61.2215 11.7928 62.2208 11.3019C63.2201 10.8051 64.2483 10.5625 65.2995 10.5625L64.7912 12.3185C64.3984 13.6701 63.3703 14.7964 62.0071 15.1546C61.5104 15.2816 61.0194 15.4838 60.5284 15.7611C59.3847 16.4022 58.5934 17.4593 58.1659 18.9437L56.0114 26.3315H52.0259L56.5313 10.8744H60.5169L59.7428 13.5315L59.7313 13.5257Z" fill="white"/>
<path d="M77.0714 4.68164H81.057V26.3192H77.0714V24.4939C75.8988 25.9957 74.2295 26.7524 72.0635 26.7524C69.8974 26.7524 68.205 25.9668 66.7321 24.3899C65.2591 22.8131 64.5198 20.8838 64.5198 18.5964C64.5198 16.3091 65.2534 14.3798 66.7321 12.8029C68.2108 11.226 69.984 10.4405 72.0635 10.4405C74.1429 10.4405 75.8988 11.1914 77.0714 12.699V4.68164ZM69.7299 21.7271C70.5443 22.5416 71.5667 22.9459 72.8086 22.9459C74.0505 22.9459 75.0671 22.5416 75.87 21.7271C76.6728 20.9127 77.0772 19.8672 77.0772 18.5907C77.0772 17.3141 76.6728 16.2686 75.87 15.4542C75.0671 14.6398 74.0447 14.2354 72.8086 14.2354C71.5725 14.2354 70.5443 14.6398 69.7299 15.4542C68.9154 16.2686 68.5111 17.3141 68.5111 18.5907C68.5111 19.8672 68.9154 20.9127 69.7299 21.7271Z" fill="white"/>
<path d="M85.6318 9.00927C84.9733 9.00927 84.4015 8.76667 83.9163 8.28148C83.4311 7.79628 83.1885 7.22444 83.1885 6.56595C83.1885 5.90747 83.4311 5.32985 83.9163 4.8331C84.4015 4.33635 84.9733 4.09375 85.6318 4.09375C86.2903 4.09375 86.891 4.34213 87.3762 4.8331C87.8614 5.32985 88.104 5.90747 88.104 6.56595C88.104 7.22444 87.8614 7.79628 87.3762 8.28148C86.891 8.76667 86.3076 9.00927 85.6318 9.00927ZM83.6506 26.3205V10.8634H87.6361V26.3205H83.6506Z" fill="white"/>
<path d="M94.3135 15.253C94.3135 15.6631 94.5849 15.9981 95.1337 16.258C95.6766 16.5179 96.3409 16.7432 97.1264 16.9396C97.912 17.136 98.6918 17.3844 99.4774 17.679C100.263 17.9793 100.927 18.4761 101.47 19.1808C102.019 19.8797 102.29 20.7577 102.29 21.8089C102.29 23.3974 101.695 24.6161 100.511 25.471C99.3272 26.3259 97.8485 26.7533 96.0752 26.7533C92.9041 26.7533 90.738 25.5288 89.5828 23.0739L93.0427 21.1273C93.4932 22.4674 94.5041 23.1374 96.0694 23.1374C97.4904 23.1374 98.2008 22.6927 98.2008 21.8089C98.2008 21.3988 97.9293 21.0638 97.3806 20.8039C96.8319 20.5439 96.1676 20.3129 95.3878 20.1107C94.6023 19.9028 93.8225 19.6486 93.0369 19.3367C92.2514 19.0248 91.5871 18.5396 91.0441 17.8696C90.4954 17.1995 90.2239 16.362 90.2239 15.3512C90.2239 13.8262 90.7842 12.6248 91.9106 11.7526C93.0311 10.8746 94.429 10.4414 96.0983 10.4414C97.3575 10.4414 98.5012 10.7244 99.5293 11.2905C100.557 11.8566 101.372 12.6652 101.973 13.7165L98.5705 15.5706C98.0737 14.5194 97.2535 13.9938 96.0983 13.9938C95.5842 13.9938 95.1568 14.1093 94.816 14.3345C94.4752 14.5598 94.3077 14.8717 94.3077 15.2645L94.3135 15.253Z" fill="white"/>
<path d="M47.8094 19.8453C47.7979 19.8858 47.7863 19.9262 47.7748 19.9666L45.8687 26.4995C47.2607 26.1529 48.5026 25.4598 49.577 24.3912C51.1654 22.8143 51.9567 20.8851 51.9567 18.5977C51.9567 16.3103 51.2289 14.5717 49.7964 13.041L47.8094 19.8453Z" fill="white"/>
<path d="M39.9827 25.8752L41.1264 21.9647C41.0108 21.8665 40.8953 21.7683 40.7856 21.6528C39.9942 20.8499 39.5957 19.8275 39.5957 18.5914C39.5957 17.3553 39.9942 16.3329 40.7856 15.53C41.4845 14.8196 42.3394 14.4268 43.3502 14.3402L44.4823 10.4586C44.2455 10.4412 44.0087 10.4297 43.7661 10.4297C41.4787 10.4297 39.5495 11.2152 37.9726 12.7921C36.3957 14.369 35.6101 16.2983 35.6101 18.5856C35.6101 20.873 36.3957 22.8022 37.9726 24.3791C38.5906 24.9972 39.2607 25.4882 39.9884 25.8636L39.9827 25.8752Z" fill="white"/>
<path d="M45.7359 9.72951L39.0933 32.505C41.4557 32.505 43.5351 30.9454 44.1994 28.6754L50.6167 6.67969L47.2377 8.06597C46.5099 8.36633 45.9611 8.9786 45.7416 9.72951H45.7359Z" fill="#FF3D00"/>
<path d="M51.1943 4.68195L52.4131 0.5H49.3921C48.8203 0.5 48.3177 0.875451 48.156 1.42419L47.2029 4.68195H43.2751C42.5647 4.68195 41.9871 5.25957 41.9871 5.97004V6.67473H54.3192C55.0297 6.67473 55.6073 6.09711 55.6073 5.38664V4.68195H51.1943ZM49.7733 1.713L50.6513 2.59097L49.7733 3.46895L48.8954 2.59097L49.7733 1.713Z" fill="#FF3D00"/>
</g>
<defs>
<clipPath id="clip0_153_3498">
<rect width="102.29" height="32" fill="white" transform="translate(0 0.5)"/>
</clipPath>
</defs>
</svg>
