<svg width="30" height="30" viewBox="0 0 30 30" fill="none" xmlns="http://www.w3.org/2000/svg">
<g clip-path="url(#clip0)">
<path d="M23.7012 9.4043C23.7012 14.2422 19.7793 18.1641 14.9414 18.1641C10.1035 18.1641 6.18164 14.2422 6.18164 9.4043C6.18164 4.56642 10.1035 0.644531 14.9414 0.644531C19.7793 0.644531 23.7012 4.56642 23.7012 9.4043Z" fill="#8559D9"/>
<path d="M17.4609 20.708C17.4609 25.5459 13.539 29.4678 8.70117 29.4678C3.8633 29.4678 -0.0585938 25.5459 -0.0585938 20.708C-0.0585938 15.8701 3.8633 11.9482 8.70117 11.9482C13.539 11.9482 17.4609 15.8701 17.4609 20.708Z" fill="#8F6AD6"/>
<path d="M29.9414 20.708C29.9414 25.5459 26.0195 29.4678 21.1816 29.4678C16.3438 29.4678 12.4219 25.5459 12.4219 20.708C12.4219 15.8701 16.3438 11.9482 21.1816 11.9482C26.0195 11.9482 29.9414 15.8701 29.9414 20.708Z" fill="#6C41BF"/>
</g>
<defs>
<clipPath id="clip0">
<rect width="30" height="30" fill="white"/>
</clipPath>
</defs>
</svg>
