<svg width="119" height="52" viewBox="0 0 119 52" fill="none" xmlns="http://www.w3.org/2000/svg">
<g clip-path="url(#clip0)">
<path d="M71.8998 50.2998C71.7998 50.5998 71.5998 50.7998 71.3998 50.9998C71.1998 51.1998 70.8998 51.2998 70.5998 51.2998H67.0998C66.7998 51.2998 66.5998 51.1998 66.4998 50.9998C66.3998 50.7998 66.3998 50.5998 66.4998 50.2998L70.6998 38.7998C70.7998 38.4998 70.9998 38.2998 71.1998 38.0998C71.3998 37.8998 71.6998 37.7998 71.9998 37.7998H75.4998C75.7998 37.7998 75.9998 37.8998 76.0998 38.0998C76.1998 38.2998 76.1998 38.4998 76.0998 38.7998L74.9998 41.8998H73.7998L74.8998 38.8998H71.8998L67.7998 50.1998H70.7998L71.9998 46.8998H73.1998L71.8998 50.2998ZM79.0998 51.2998H77.8998L78.4998 48.2998H75.7998L74.1998 51.2998H72.9998L80.2998 37.8998H81.4998L79.0998 51.2998ZM78.7998 47.2998L80.2998 39.9998L76.4998 47.2998C76.3998 47.2998 78.7998 47.2998 78.7998 47.2998ZM86.2998 50.2998C86.1998 50.5998 85.9998 50.7998 85.7998 50.9998C85.5998 51.1998 85.2998 51.2998 84.9998 51.2998H81.5998C81.2998 51.2998 81.0998 51.1998 80.9998 50.9998C80.8998 50.7998 80.8998 50.5998 80.9998 50.2998L82.1998 46.8998H83.3998L82.1998 50.1998H85.0998L86.2998 46.9998L84.1998 42.4998C84.0998 42.1998 84.0998 41.7998 84.1998 41.4998L85.1998 38.7998C85.2998 38.4998 85.4998 38.2998 85.6998 38.0998C85.8998 37.8998 86.1998 37.7998 86.4998 37.7998H89.9998C90.2998 37.7998 90.4998 37.8998 90.5998 38.0998C90.6998 38.2998 90.6998 38.4998 90.5998 38.7998L89.3998 41.9998H88.1998L89.2998 38.9998H86.3998L85.3998 41.7998L87.4998 46.2998C87.5998 46.5998 87.5998 46.8998 87.4998 47.2998L86.2998 50.2998ZM89.2998 51.2998H88.0998L92.9998 37.8998H94.1998L89.2998 51.2998ZM97.0998 51.2998H96.2998V41.3998L92.6998 51.2998H91.5998L96.4998 37.8998H97.3998V47.5998L101 37.8998H102.1L97.0998 51.2998ZM105.2 50.2998C105.1 50.5998 104.9 50.7998 104.7 50.9998C104.5 51.1998 104.2 51.2998 103.9 51.2998H100.1C99.7998 51.2998 99.5998 51.1998 99.4998 50.9998C99.3998 50.7998 99.3998 50.5998 99.4998 50.2998L103.7 38.7998C103.8 38.4998 104 38.2998 104.2 38.0998C104.4 37.8998 104.7 37.7998 105 37.7998H108.8C109.1 37.7998 109.3 37.8998 109.4 38.0998C109.5 38.2998 109.5 38.4998 109.4 38.7998L105.2 50.2998ZM104.1 50.1998L108.2 38.8998H105L100.9 50.1998H104.1Z" fill="#FA0000"/>
<path d="M0 46.5H44.8L46.2 42.4H1.4L0 46.5ZM49.9 42.4L48.5 46.5H53.2L54.7 42.4H49.9ZM61.1 42.4L59.7 46.5H64.4L65.8 42.4H61.1ZM90.8 3L88.5 9.6H98.6L101 3H90.8Z" fill="#0A102B"/>
<path d="M87.5002 12.2998L79.2002 36.1998H89.4002L97.7002 12.2998H87.5002Z" fill="url(#paint0_linear)"/>
<path d="M111.6 18.2H116.4L118.4 12.4H113.6C114.9 8.6 116 5.5 116 5.5H105.9L103.5 12.4H99.9998L97.9998 18.2H101.6L97.8998 28.8C95.6998 35.2 99.5998 36.2 103.1 36.2H110.2L112.6 29.4H109.7C107.8 29.4 108.3 28.1 108.8 26.8C108.8 26.2 110.1 22.4 111.6 18.2Z" fill="url(#paint1_linear)"/>
<path d="M77.4004 19C77.4004 19 84.7004 16.7 84.7004 10.3C84.7004 6.6 82.2004 5 79.2004 4.3L80.7004 0H73.7004L72.4004 3.9H68.1004L69.5004 0H62.5004L61.2004 3.9H57.2004L45.9004 36.2L50.7004 36.1L49.3004 40H56.1004L57.4004 36.1H62.0004L60.5004 40H67.3004L69.0004 35.2C75.4004 35.2 81.2004 28.4 81.2004 23.9C81.2004 19.4 77.4004 19 77.4004 19ZM70.4004 25.4C69.4004 28.2 66.7004 28.2 64.6004 28.2H59.7004L61.5004 22.6H66.2004C68.0004 22.7 71.4004 22.7 70.4004 25.4ZM68.7004 16.6H63.7004L65.5004 11.4H70.0004C71.3004 11.4 73.2004 11.4 73.2004 13.1C73.1004 14.9 71.5004 16.6 68.7004 16.6Z" fill="url(#paint2_linear)"/>
<path d="M42.2996 11.9999C36.3996 11.9999 31.9996 16.1999 31.9996 16.1999C31.8996 14.6999 30.2996 11.8999 25.6996 11.8999C20.7996 11.8999 15.9996 16.1999 15.9996 16.1999L17.2996 12.2999H8.49961L0.0996094 36.1999H9.89961L14.1996 23.7999C14.9996 21.4999 16.8996 19.2999 19.2996 19.2999C21.6996 19.2999 21.5996 21.5999 20.9996 23.4999C20.2996 25.3999 16.5996 36.1999 16.5996 36.1999H26.2996L30.7996 23.2999C31.2996 21.7999 32.9996 19.1999 35.9996 19.1999C38.9996 19.1999 38.1996 21.9999 37.6996 23.2999C36.1996 27.5999 34.6996 31.8999 33.1996 36.1999H42.9996C42.9996 36.1999 47.0996 24.4999 48.6996 19.8999C50.2996 15.2999 48.1996 11.9999 42.2996 11.9999Z" fill="#FFBA2A"/>
<path d="M42.2996 11.9999C36.3996 11.9999 31.9996 16.1999 31.9996 16.1999C31.8996 14.6999 30.2996 11.8999 25.6996 11.8999C20.7996 11.8999 15.9996 16.1999 15.9996 16.1999L17.2996 12.2999H8.49961L0.0996094 36.1999H9.89961L14.1996 23.7999C14.9996 21.4999 16.8996 19.2999 19.2996 19.2999C21.6996 19.2999 21.5996 21.5999 20.9996 23.4999C20.2996 25.3999 16.5996 36.1999 16.5996 36.1999H26.2996L30.7996 23.2999C31.2996 21.7999 32.9996 19.1999 35.9996 19.1999C38.9996 19.1999 38.1996 21.9999 37.6996 23.2999C36.1996 27.5999 34.6996 31.8999 33.1996 36.1999H42.9996C42.9996 36.1999 47.0996 24.4999 48.6996 19.8999C50.2996 15.2999 48.1996 11.9999 42.2996 11.9999Z" fill="url(#paint3_linear)"/>
<path d="M42.2996 11.9999C36.3996 11.9999 31.9996 16.1999 31.9996 16.1999C31.8996 14.6999 30.2996 11.8999 25.6996 11.8999C20.7996 11.8999 15.9996 16.1999 15.9996 16.1999L17.2996 12.2999H8.49961L0.0996094 36.1999H9.89961L14.1996 23.7999C14.9996 21.4999 16.8996 19.2999 19.2996 19.2999C21.6996 19.2999 21.5996 21.5999 20.9996 23.4999C20.2996 25.3999 16.5996 36.1999 16.5996 36.1999H26.2996L30.7996 23.2999C31.2996 21.7999 32.9996 19.1999 35.9996 19.1999C38.9996 19.1999 38.1996 21.9999 37.6996 23.2999C36.1996 27.5999 34.6996 31.8999 33.1996 36.1999H42.9996C42.9996 36.1999 47.0996 24.4999 48.6996 19.8999C50.2996 15.2999 48.1996 11.9999 42.2996 11.9999Z" fill="#FFBA2A"/>
<path d="M42.2996 11.9999C36.3996 11.9999 31.9996 16.1999 31.9996 16.1999C31.8996 14.6999 30.2996 11.8999 25.6996 11.8999C20.7996 11.8999 15.9996 16.1999 15.9996 16.1999L17.2996 12.2999H8.49961L0.0996094 36.1999H9.89961L14.1996 23.7999C14.9996 21.4999 16.8996 19.2999 19.2996 19.2999C21.6996 19.2999 21.5996 21.5999 20.9996 23.4999C20.2996 25.3999 16.5996 36.1999 16.5996 36.1999H26.2996L30.7996 23.2999C31.2996 21.7999 32.9996 19.1999 35.9996 19.1999C38.9996 19.1999 38.1996 21.9999 37.6996 23.2999C36.1996 27.5999 34.6996 31.8999 33.1996 36.1999H42.9996C42.9996 36.1999 47.0996 24.4999 48.6996 19.8999C50.2996 15.2999 48.1996 11.9999 42.2996 11.9999Z" fill="url(#paint4_linear)"/>
<path d="M79.1992 36.2001H89.3992L94.3992 21.9001C91.0992 21.6001 87.7992 21.3001 84.4992 21.1001L79.1992 36.2001Z" fill="#FFBA2A"/>
<path d="M79.1992 36.2001H89.3992L94.3992 21.9001C91.0992 21.6001 87.7992 21.3001 84.4992 21.1001L79.1992 36.2001ZM109.499 29.4001C107.599 29.4001 108.099 28.1001 108.599 26.8001C108.699 26.5001 109.099 25.4001 109.699 23.8001C106.499 23.3001 103.299 22.9001 99.9992 22.6001L97.7992 28.9001C95.5992 35.3001 99.4992 36.3001 102.999 36.3001H110.099L112.499 29.5001L109.499 29.4001Z" fill="#FFBA2A"/>
<path d="M109.499 29.3999C107.599 29.3999 108.099 28.0999 108.599 26.7999C108.699 26.4999 109.099 25.3999 109.699 23.7999C106.499 23.2999 103.299 22.8999 99.9994 22.5999L97.7994 28.8999C95.5994 35.2999 99.4994 36.2999 102.999 36.2999H110.099L112.499 29.4999L109.499 29.3999ZM80.3994 20.8999C69.8994 20.3999 60.0994 20.3999 51.2994 20.6999L45.8994 36.1999L50.6994 36.0999L49.2994 39.9999H56.0994L57.3994 36.0999H61.9994L60.4994 39.9999H67.2994L68.9994 35.1999C75.3994 35.1999 81.1994 28.3999 81.1994 23.8999C81.1994 22.4999 80.7994 21.5999 80.3994 20.8999ZM70.3994 25.3999C69.3994 28.1999 66.6994 28.1999 64.5994 28.1999H59.6994L61.4994 22.5999H66.1994C67.9994 22.6999 71.3994 22.6999 70.3994 25.3999Z" fill="#FFBA2A"/>
<path d="M80.3996 20.8999C69.8996 20.3999 60.0996 20.3999 51.2996 20.6999L45.8996 36.1999L50.6996 36.0999L49.2996 39.9999H56.0996L57.3996 36.0999H61.9996L60.4996 39.9999H67.2996L68.9996 35.1999C75.3996 35.1999 81.1996 28.3999 81.1996 23.8999C81.1996 22.4999 80.7996 21.5999 80.3996 20.8999ZM70.3996 25.3999C69.3996 28.1999 66.6996 28.1999 64.5996 28.1999H59.6996L61.4996 22.5999H66.1996C67.9996 22.6999 71.3996 22.6999 70.3996 25.3999ZM3.49961 26.5999L0.0996094 36.1999H9.89961L13.9996 24.4999C7.29961 25.5999 3.59961 26.5999 3.59961 26.5999H3.49961Z" fill="#FFBA2A"/>
<path d="M3.49961 26.6001L0.0996094 36.2001H9.89961L13.9996 24.5001C7.29961 25.6001 3.59961 26.6001 3.59961 26.6001H3.49961ZM21.0996 23.4001V23.5001C20.3996 25.4001 16.6996 36.2001 16.6996 36.2001H26.3996L30.8996 23.3001C30.9996 22.9001 31.1996 22.5001 31.4996 22.1001C30.2996 22.2001 29.0996 22.3001 27.8996 22.5001C25.3996 22.8001 23.0996 23.1001 21.0996 23.4001Z" fill="#FFBA2A"/>
<path d="M21.0992 23.3998V23.4998C20.3992 25.3998 16.6992 36.1998 16.6992 36.1998H26.3992L30.8992 23.2998C30.9992 22.8998 31.1992 22.4998 31.4992 22.0998C30.2992 22.1998 29.0992 22.2998 27.8992 22.4998C25.3992 22.7998 23.0992 23.0998 21.0992 23.3998ZM38.1992 21.4998C38.1992 22.1998 37.9992 22.8998 37.7992 23.2998C37.2992 24.5998 33.2992 36.1998 33.2992 36.1998H42.9992C42.9992 36.1998 46.5992 25.8998 48.3992 20.7998C44.7992 20.9998 41.3992 21.1998 38.1992 21.4998Z" fill="#FFBA2A"/>
<path d="M38.1998 21.4998C38.1998 22.1998 37.9998 22.8998 37.7998 23.2998C37.2998 24.5998 33.2998 36.1998 33.2998 36.1998H42.9998C42.9998 36.1998 46.5998 25.8998 48.3998 20.7998C44.7998 20.9998 41.3998 21.1998 38.1998 21.4998Z" fill="#FFBA2A"/>
<path d="M88.7002 35.2998H80.5002L85.4002 21.2998C85.1002 21.2998 84.8002 21.2998 84.4002 21.2998L79.2002 36.2998H89.4002L94.4002 21.9998L93.5002 21.8998C93.4002 21.7998 88.7002 35.2998 88.7002 35.2998Z" fill="#FFA61D"/>
<path d="M87.5004 12.2998L84.4004 21.1998C84.7004 21.1998 85.0004 21.1998 85.4004 21.1998L88.2004 13.1998H96.4004L93.4004 21.6998C93.7004 21.6998 94.0004 21.6998 94.3004 21.7998L97.6004 12.2998C97.7004 12.2998 87.5004 12.2998 87.5004 12.2998Z" fill="url(#paint5_linear)"/>
<path d="M116.1 5.3999H106L103.6 12.2999H100L98 18.1999H101.6L100.1 22.3999C100.4 22.3999 100.7 22.4999 101 22.4999L102.4 18.4999C102.5 18.1999 102.4 17.8999 102.3 17.6999C102.1 17.4999 101.8 17.2999 101.6 17.2999H99.3L100.7 13.2999H103.6C104 13.2999 104.3 13.0999 104.5 12.6999L106.7 6.3999H114.9L112.9 12.0999C112.8 12.3999 112.9 12.6999 113 12.8999C113.2 13.0999 113.5 13.2999 113.7 13.2999H117.2L115.8 17.2999H111.7C111.3 17.2999 111 17.4999 110.8 17.8999L109.7 21.0999L108.8 23.7999C109.1 23.8999 109.4 23.8999 109.7 23.9999C110.2 22.3999 110.9 20.3999 111.7 18.2999H116.5L118.5 12.4999H113.7C115 8.4999 116.1 5.3999 116.1 5.3999Z" fill="url(#paint6_linear)"/>
<path d="M107.8 26.4999C107.4 27.4999 107.1 28.5999 107.7 29.4999C108.1 29.9999 108.7 30.2999 109.6 30.2999H111.3L109.5 35.2999H103C100.7 35.2999 99.2002 34.7999 98.5002 33.7999C97.8002 32.7999 97.8002 31.1999 98.6002 28.9999L100.9 22.4999C100.6 22.4999 100.3 22.3999 100 22.3999L97.8002 28.7999C95.6002 35.1999 99.5002 36.1999 103 36.1999H110.1L112.5 29.3999H109.6C107.7 29.3999 108.2 28.0999 108.7 26.7999C108.8 26.4999 109.2 25.4999 109.7 23.8999C109.4 23.7999 109.1 23.7999 108.8 23.6999L107.8 26.4999Z" fill="#FFA61D"/>
<path d="M63.5996 17.5001H68.5996C71.9996 17.5001 73.9996 15.3001 73.9996 13.2001C73.9996 10.6001 71.0996 10.6001 69.8996 10.6001H65.3996C64.9996 10.6001 64.6996 10.8001 64.4996 11.2001L62.6996 16.4001C62.5996 16.7001 62.6996 17.0001 62.7996 17.2001C63.0996 17.4001 63.2996 17.5001 63.5996 17.5001ZM65.3996 11.5001H69.8996C71.1996 11.5001 73.0996 11.5001 73.0996 13.2001C73.0996 14.9001 71.3996 16.6001 68.5996 16.6001H63.5996L65.3996 11.5001Z" fill="url(#paint7_linear)"/>
<path d="M59.7002 29.1002H64.6002C66.8002 29.1002 70.1002 29.1002 71.3002 25.7002C71.7002 24.4002 71.4002 23.6002 71.1002 23.1002C70.1002 21.7002 67.7002 21.7002 66.2002 21.7002H61.5002C61.1002 21.7002 60.8002 21.9002 60.6002 22.3002L58.8002 27.9002C58.7002 28.2002 58.8002 28.5002 58.9002 28.7002C59.1002 29.0002 59.4002 29.1002 59.7002 29.1002ZM61.5002 22.7002H66.2002C68.0002 22.7002 71.4002 22.7002 70.4002 25.5002C69.4002 28.3002 66.7002 28.3002 64.6002 28.3002H59.7002L61.5002 22.7002Z" fill="#FFA61D"/>
<path d="M77.3998 19C77.3998 19 84.6998 16.7 84.6998 10.3C84.6998 6.6 82.1998 5 79.1998 4.3L80.6998 0H73.6998L72.3998 3.9H68.0998L69.4998 0H62.4998L61.1998 3.9H57.1998L51.2998 20.8C51.5998 20.8 51.8998 20.8 52.2998 20.8L57.8998 4.9H61.1998C61.5998 4.9 61.8998 4.7 62.0998 4.3L63.1998 1.1H68.1998L67.2998 3.8C67.1998 4.1 67.2998 4.4 67.3998 4.6C67.5998 4.8 67.8998 5 68.0998 5H72.3998C72.7998 5 73.0998 4.8 73.2998 4.4L74.3998 1.2H79.3998L78.2998 4.4C78.1998 4.6 78.1998 4.9 78.3998 5.1C78.4998 5 78.6998 5.2 78.9998 5.3C82.2998 6 83.7998 7.7 83.7998 10.4C83.7998 16 77.3998 18.1 77.0998 18.2C76.6998 18.3 76.3998 18.7 76.4998 19.2C76.4998 19.6 76.8998 20 77.2998 20C77.3998 20 78.4998 20.1 79.2998 21.1C79.6998 21.1 80.0998 21.1 80.4998 21.1C79.3998 19.2 77.3998 19 77.3998 19Z" fill="url(#paint8_linear)"/>
<path d="M80.3004 23.8999C80.3004 25.7999 78.9004 28.4999 76.9004 30.5999C74.6004 32.9999 71.7004 34.2999 69.1004 34.2999C68.7004 34.2999 68.4004 34.4999 68.2004 34.8999L66.7004 39.0999H61.8004L62.8004 36.3999C62.9004 36.0999 62.9004 35.7999 62.7004 35.5999C62.5004 35.3999 62.2004 35.1999 62.0004 35.1999H57.5004C57.1004 35.1999 56.8004 35.3999 56.6004 35.7999L55.5004 39.0999H50.6004L51.5004 36.4999C51.6004 36.1999 51.5004 35.8999 51.4004 35.6999C51.2004 35.4999 50.9004 35.2999 50.7004 35.2999L47.2004 35.3999L52.3004 20.8999C52.0004 20.8999 51.6004 20.8999 51.3004 20.8999L45.9004 36.2999L50.7004 36.1999L49.3004 39.9999H56.1004L57.4004 36.0999H62.0004L60.5004 39.9999H67.3004L69.0004 35.1999C75.4004 35.1999 81.2004 28.3999 81.2004 23.8999C81.2004 22.6999 80.9004 21.6999 80.5004 21.0999C80.1004 21.0999 79.7004 21.0999 79.3004 21.0999C79.8004 21.5999 80.3004 22.4999 80.3004 23.8999Z" fill="#FFA61D"/>
<path d="M43.1 12C36.4 12 32 16.2 32 16.2C32 16.2 31.4 12 25.9 12C20.3 12 16 16.3 16 16.3L17.3 12.4H8.5L3.5 26.7C3.8 26.6 4.1 26.6 4.3 26.5L9 13.1H16.3L15.3 16.1C15.2 16.4 15.3 16.8 15.6 16.9C15.7 17 15.8 17 16 17C16.2 17 16.4 16.9 16.5 16.8C16.5 16.8 20.7 12.7 25.9 12.7C30.7 12.7 31.2 16.2 31.2 16.4C31.2 16.7 31.4 16.9 31.7 17C31.8 17 31.8 17 31.9 17C32.1 17 32.3 16.9 32.4 16.8C32.4 16.8 36.7 12.7 43 12.7C45.2 12.7 46.7 13.3 47.5 14.4C49 16.4 47.9 19.6 47.9 19.7L47.6 21C47.9 21 48.1 21 48.4 21L48.7 20C48.7 19.9 51.4 12 43.1 12Z" fill="url(#paint9_linear)"/>
<path d="M42.5004 35.5H34.3004L38.8004 22.5C38.8004 22.4 38.9004 22.1 39.0004 21.7L38.3004 21.8C38.2004 22.1 38.2004 22.3 38.2004 22.3L33.4004 36.3H43.0004L48.3004 21C48.1004 21 47.8004 21 47.5004 21C47.6004 20.9 42.5004 35.5 42.5004 35.5Z" fill="#FFA61D"/>
<path d="M38.6 19.6C38.1 18.9 37.2 18.5 36 18.5C32.4 18.5 30.5 22.2 30.5 22.3C30.5 22.3 30.5 22.3 30.5 22.4C30.8 22.4 31.1 22.3 31.4 22.3C31.9 21.5 33.5 19.2 36.1 19.2C38.5 19.2 38.5 20.8 38.3 21.7L39 21.6C39.1 21 39 20.3 38.6 19.6Z" fill="url(#paint10_linear)"/>
<path d="M25.7996 35.5H17.5996L21.6996 23.8C21.6996 23.8 21.6996 23.6 21.7996 23.5C21.4996 23.5 21.2996 23.6 20.9996 23.6L16.5996 36.3H26.2996L31.0996 22.8C31.0996 22.8 31.1996 22.7 31.2996 22.5C30.9996 22.5 30.6996 22.6 30.3996 22.6L25.7996 35.5ZM9.39961 35.5H1.09961L4.29961 26.4C3.99961 26.5 3.69961 26.5 3.49961 26.6L0.0996094 36.2H9.89961L13.9996 24.5L13.1996 24.6L9.39961 35.5Z" fill="#FFA61D"/>
<path d="M21.5002 19.5C21.2002 19 20.5002 18.5 19.4002 18.5C16.0002 18.5 13.7002 23.2 13.6002 23.4C13.6002 23.4 13.6002 23.4 13.6002 23.5L13.2002 24.6L14.0002 24.5L14.3002 23.8C14.3002 23.8 16.4002 19.3 19.4002 19.3C22.4002 19.3 21.1002 23.5 21.1002 23.5C21.4002 23.5 21.6002 23.4 21.9002 23.4C22.0002 22.7 22.4002 20.8 21.5002 19.5Z" fill="url(#paint11_linear)"/>
</g>
<defs>
<linearGradient id="paint0_linear" x1="88.4566" y1="12.3259" x2="88.4566" y2="36.1819" gradientUnits="userSpaceOnUse">
<stop stop-color="#FFD12F"/>
<stop offset="0.4112" stop-color="#FFDC4E"/>
<stop offset="0.7606" stop-color="#FFE362"/>
<stop offset="1" stop-color="#FFE569"/>
</linearGradient>
<linearGradient id="paint1_linear" x1="107.793" y1="5.43754" x2="107.793" y2="36.1815" gradientUnits="userSpaceOnUse">
<stop stop-color="#FFD12F"/>
<stop offset="0.4112" stop-color="#FFDC4E"/>
<stop offset="0.7606" stop-color="#FFE362"/>
<stop offset="1" stop-color="#FFE569"/>
</linearGradient>
<linearGradient id="paint2_linear" x1="65.3061" y1="0.000332" x2="65.3061" y2="39.9663" gradientUnits="userSpaceOnUse">
<stop stop-color="#FFD12F"/>
<stop offset="0.4112" stop-color="#FFDC4E"/>
<stop offset="0.7606" stop-color="#FFE362"/>
<stop offset="1" stop-color="#FFE569"/>
</linearGradient>
<linearGradient id="paint3_linear" x1="24.6582" y1="11.9626" x2="24.6582" y2="36.1826" gradientUnits="userSpaceOnUse">
<stop stop-color="#FFD12F"/>
<stop offset="0.4112" stop-color="#FFDC4E"/>
<stop offset="0.7606" stop-color="#FFE362"/>
<stop offset="1" stop-color="#FFE569"/>
</linearGradient>
<linearGradient id="paint4_linear" x1="24.6582" y1="11.9626" x2="24.6582" y2="36.1826" gradientUnits="userSpaceOnUse">
<stop stop-color="#FFD12F"/>
<stop offset="0.4112" stop-color="#FFDC4E"/>
<stop offset="0.7606" stop-color="#FFE362"/>
<stop offset="1" stop-color="#FFE569"/>
</linearGradient>
<linearGradient id="paint5_linear" x1="91.0726" y1="12.3246" x2="91.0726" y2="21.8501" gradientUnits="userSpaceOnUse">
<stop offset="0.08244" stop-color="#EDB311"/>
<stop offset="0.3054" stop-color="#F3C42F"/>
<stop offset="0.5924" stop-color="#FAD64E"/>
<stop offset="0.8343" stop-color="#FEE162"/>
<stop offset="1" stop-color="#FFE569"/>
</linearGradient>
<linearGradient id="paint6_linear" x1="108.21" y1="5.43656" x2="108.21" y2="23.9021" gradientUnits="userSpaceOnUse">
<stop offset="0.08244" stop-color="#EDB311"/>
<stop offset="0.3054" stop-color="#F3C42F"/>
<stop offset="0.5924" stop-color="#FAD64E"/>
<stop offset="0.8343" stop-color="#FEE162"/>
<stop offset="1" stop-color="#FFE569"/>
</linearGradient>
<linearGradient id="paint7_linear" x1="68.4065" y1="10.5634" x2="68.4065" y2="17.5333" gradientUnits="userSpaceOnUse">
<stop offset="0.08244" stop-color="#EDB311"/>
<stop offset="0.3054" stop-color="#F3C42F"/>
<stop offset="0.5924" stop-color="#FAD64E"/>
<stop offset="0.8343" stop-color="#FEE162"/>
<stop offset="1" stop-color="#FFE569"/>
</linearGradient>
<linearGradient id="paint8_linear" x1="68.0222" y1="0.0009973" x2="68.0222" y2="21.0248" gradientUnits="userSpaceOnUse">
<stop offset="0.08244" stop-color="#EDB311"/>
<stop offset="0.3054" stop-color="#F3C42F"/>
<stop offset="0.5924" stop-color="#FAD64E"/>
<stop offset="0.8343" stop-color="#FEE162"/>
<stop offset="1" stop-color="#FFE569"/>
</linearGradient>
<linearGradient id="paint9_linear" x1="26.3011" y1="11.9635" x2="26.3011" y2="26.5755" gradientUnits="userSpaceOnUse">
<stop offset="0.08244" stop-color="#EDB311"/>
<stop offset="0.3054" stop-color="#F3C42F"/>
<stop offset="0.5924" stop-color="#FAD64E"/>
<stop offset="0.8343" stop-color="#FEE162"/>
<stop offset="1" stop-color="#FFE569"/>
</linearGradient>
<linearGradient id="paint10_linear" x1="34.7416" y1="18.4931" x2="34.7416" y2="22.4257" gradientUnits="userSpaceOnUse">
<stop offset="0.08244" stop-color="#EDB311"/>
<stop offset="0.3054" stop-color="#F3C42F"/>
<stop offset="0.5924" stop-color="#FAD64E"/>
<stop offset="0.8343" stop-color="#FEE162"/>
<stop offset="1" stop-color="#FFE569"/>
</linearGradient>
<linearGradient id="paint11_linear" x1="17.6239" y1="18.5552" x2="17.6239" y2="24.6732" gradientUnits="userSpaceOnUse">
<stop offset="0.08244" stop-color="#EDB311"/>
<stop offset="0.3054" stop-color="#F3C42F"/>
<stop offset="0.5924" stop-color="#FAD64E"/>
<stop offset="0.8343" stop-color="#FEE162"/>
<stop offset="1" stop-color="#FFE569"/>
</linearGradient>
<clipPath id="clip0">
<rect width="118.5" height="51.3" fill="white"/>
</clipPath>
</defs>
</svg>
