<svg width="22" height="22" viewBox="0 0 22 22" fill="none" xmlns="http://www.w3.org/2000/svg">
<g id="magnifying-glass-plus-fill 1">
<path id="Vector" d="M19.3393 18.4107L15.2328 14.3042C16.4254 12.874 17.0206 11.039 16.8947 9.18102C16.7687 7.32305 15.9313 5.58517 14.5567 4.3289C13.182 3.07264 11.3759 2.39472 9.51415 2.43618C7.65239 2.47764 5.87828 3.23529 4.5609 4.5515C3.24353 5.86771 2.48432 7.64115 2.44121 9.50288C2.39811 11.3646 3.07443 13.1713 4.32948 14.5471C5.58452 15.9228 7.32167 16.7618 9.17952 16.8893C11.0374 17.0169 12.8729 16.4233 14.3042 15.232L18.4107 19.3393C18.4717 19.4003 18.5441 19.4487 18.6237 19.4817C18.7034 19.5147 18.7888 19.5316 18.875 19.5316C18.9612 19.5316 19.0466 19.5147 19.1263 19.4817C19.2059 19.4487 19.2783 19.4003 19.3393 19.3393C19.4003 19.2784 19.4486 19.206 19.4816 19.1263C19.5146 19.0466 19.5316 18.9613 19.5316 18.875C19.5316 18.7888 19.5146 18.7034 19.4816 18.6238C19.4486 18.5441 19.4003 18.4717 19.3393 18.4107ZM12.3125 10.3438H10.3437V12.3125C10.3437 12.4866 10.2746 12.6535 10.1515 12.7766C10.0285 12.8996 9.86155 12.9688 9.6875 12.9688C9.51345 12.9688 9.34653 12.8996 9.22346 12.7766C9.10039 12.6535 9.03125 12.4866 9.03125 12.3125V10.3438H7.0625C6.88845 10.3438 6.72153 10.2746 6.59846 10.1516C6.47539 10.0285 6.40625 9.86158 6.40625 9.68753C6.40625 9.51348 6.47539 9.34656 6.59846 9.22349C6.72153 9.10042 6.88845 9.03128 7.0625 9.03128H9.03125V7.06253C9.03125 6.88848 9.10039 6.72156 9.22346 6.59849C9.34653 6.47542 9.51345 6.40628 9.6875 6.40628C9.86155 6.40628 10.0285 6.47542 10.1515 6.59849C10.2746 6.72156 10.3437 6.88848 10.3437 7.06253V9.03128H12.3125C12.4865 9.03128 12.6535 9.10042 12.7765 9.22349C12.8996 9.34656 12.9687 9.51348 12.9687 9.68753C12.9687 9.86158 12.8996 10.0285 12.7765 10.1516C12.6535 10.2746 12.4865 10.3438 12.3125 10.3438Z" fill="#4D6562"/>
</g>
</svg>
