<svg width="80" height="81" viewBox="0 0 80 81" fill="none" xmlns="http://www.w3.org/2000/svg">
<path d="M80 0.798981H0V80.799H80V0.798981Z" fill="url(#paint0_linear)"/>
<path d="M78 2.79898H2V78.799H78V2.79898Z" fill="white"/>
<g clip-path="url(#clip0)">
<path d="M21.3342 29.664L32.8604 40.8615L21.3342 52.0589C21.1264 51.6308 21.0002 51.1591 21.0002 50.6584V31.0646C21.0002 30.5639 21.1264 30.0922 21.3342 29.664Z" fill="black"/>
<path d="M24.34 27.799H55.6604C56.1725 27.799 56.6549 27.9223 57.0928 28.1255L42.3604 42.458C41.0615 43.728 38.9389 43.728 37.64 42.458L22.9076 28.1255C23.3455 27.9223 23.8279 27.799 24.34 27.799Z" fill="black"/>
<path d="M58.666 29.664C58.8738 30.0922 59 30.5639 59 31.0646V50.6584C59 51.1591 58.8738 51.6308 58.666 52.0589L47.1398 40.8615L58.666 29.664Z" fill="black"/>
<path d="M34.4338 42.4L36.0666 43.9965C38.2338 46.1155 41.7666 46.1155 43.9412 43.9965L45.574 42.4L57.0928 53.5974C56.6549 53.8006 56.1725 53.924 55.6604 53.924H24.34C23.8279 53.924 23.3455 53.8006 22.9076 53.5974L34.4338 42.4Z" fill="black"/>
</g>
<defs>
<linearGradient id="paint0_linear" x1="0" y1="0.798981" x2="80" y2="80.799" gradientUnits="userSpaceOnUse">
<stop stop-color="#D92400"/>
<stop offset="0.527" stop-color="#D92400" stop-opacity="0.3"/>
<stop offset="1" stop-color="#D92400"/>
</linearGradient>
<clipPath id="clip0">
<rect width="38" height="26.125" fill="white" transform="matrix(-1 0 0 1 59 27.799)"/>
</clipPath>
</defs>
</svg>
