<svg width="21" height="21" viewBox="0 0 21 21" fill="none" xmlns="http://www.w3.org/2000/svg">
<path fill-rule="evenodd" clip-rule="evenodd" d="M4.625 5.25C3.52043 5.25 2.625 6.14543 2.625 7.25V14.625C2.625 15.7296 3.52043 16.625 4.625 16.625H16.375C17.4796 16.625 18.375 15.7296 18.375 14.625V7.25C18.375 6.14543 17.4796 5.25 16.375 5.25H4.625ZM16.7653 7.12637C16.5935 6.80726 16.1955 6.68786 15.8764 6.85969L10.5 9.75466L5.12363 6.85969C4.80451 6.68786 4.40652 6.80726 4.23469 7.12637C4.06286 7.44549 4.18226 7.84348 4.50137 8.01531L10.1889 11.0778C10.3831 11.1824 10.6169 11.1824 10.8111 11.0778L16.4986 8.01531C16.8177 7.84348 16.9371 7.44549 16.7653 7.12637Z" fill="#3800D8"/>
</svg>
