<svg width="24" height="24" viewBox="0 0 24 24" fill="none" xmlns="http://www.w3.org/2000/svg">
<path d="M11.9999 11.7376C14.6682 11.7376 16.8316 9.11006 16.8316 5.86882C16.8316 2.62752 16.1213 0 11.9999 0C7.87837 0 7.16797 2.62752 7.16797 5.86882C7.16797 9.11006 9.33133 11.7376 11.9999 11.7376Z" fill="#94B052"/>
<path d="M2.87302 20.6983C2.8722 20.5006 2.87137 20.6426 2.87302 20.6983V20.6983Z" fill="#94B052"/>
<path d="M21.125 20.8523C21.1276 20.7982 21.1259 20.477 21.125 20.8523V20.8523Z" fill="#94B052"/>
<path d="M21.1149 20.4611C21.0254 14.8148 20.288 13.2059 14.645 12.1875C14.645 12.1875 13.8507 13.1997 11.9993 13.1997C10.1479 13.1997 9.35339 12.1875 9.35339 12.1875C3.77202 13.1948 2.98976 14.7798 2.8869 20.2777C2.87846 20.7266 2.87456 20.7502 2.87305 20.6981C2.87339 20.7958 2.8738 20.9764 2.8738 21.2913C2.8738 21.2913 4.21725 23.9996 11.9993 23.9996C19.7812 23.9996 21.1248 21.2913 21.1248 21.2913C21.1248 21.089 21.1249 20.9483 21.1251 20.8525C21.1236 20.8848 21.1206 20.8223 21.1149 20.4611Z" fill="#94B052"/>
</svg>
