<svg width="28" height="23" viewBox="0 0 28 23" fill="none" xmlns="http://www.w3.org/2000/svg">
<path d="M5.19968 21.9962V20.567C5.19968 20.0248 4.86652 19.6601 4.29818 19.6601C4.01401 19.6601 3.71025 19.7587 3.49467 20.0642C3.32809 19.808 3.09292 19.6601 2.74016 19.6601C2.50499 19.6601 2.26981 19.7291 2.08364 19.9952V19.7094H1.58389V21.9864H2.08364V20.7247C2.08364 20.3205 2.29921 20.1332 2.62257 20.1332C2.95574 20.1332 3.12232 20.3501 3.12232 20.7247V21.9864H3.62206V20.7247C3.62206 20.3205 3.85723 20.1332 4.161 20.1332C4.49416 20.1332 4.66074 20.3501 4.66074 20.7247V21.9864H5.19968V21.9962ZM12.5488 19.7193H11.7453V19.0293H11.2456V19.7193H10.7948V20.1727H11.2456V21.2175C11.2456 21.7399 11.4612 22.0455 12.0197 22.0455C12.2353 22.0455 12.4704 21.9765 12.637 21.8779L12.4998 21.4541C12.3627 21.5527 12.1961 21.5724 12.0785 21.5724C11.8433 21.5724 11.7453 21.4344 11.7453 21.1879V20.1628H12.5488V19.7193ZM16.7428 19.67C16.4586 19.67 16.2724 19.808 16.1548 20.0051V19.7193H15.6551V21.9962H16.1548V20.7148C16.1548 20.3304 16.3214 20.1234 16.6252 20.1234C16.7232 20.1234 16.8407 20.1431 16.9289 20.1727L17.0661 19.6995C16.9779 19.67 16.8407 19.67 16.7428 19.67ZM10.3931 19.9164C10.1579 19.7488 9.82475 19.6798 9.47199 19.6798C8.90366 19.6798 8.5313 19.9657 8.5313 20.4191C8.5313 20.8035 8.81547 21.0105 9.30541 21.0795L9.54058 21.0992C9.79535 21.1485 9.94234 21.2175 9.94234 21.3358C9.94234 21.5034 9.75616 21.6217 9.423 21.6217C9.08983 21.6217 8.83506 21.5034 8.66848 21.3851L8.43331 21.7695C8.68808 21.9568 9.05064 22.0554 9.4034 22.0554C10.0599 22.0554 10.4421 21.7498 10.4421 21.3161C10.4421 20.9119 10.1383 20.6951 9.66797 20.6261L9.4328 20.6064C9.21722 20.5867 9.05064 20.5374 9.05064 20.3895C9.05064 20.222 9.21722 20.1332 9.47199 20.1332C9.75616 20.1332 10.0403 20.2515 10.1775 20.3205L10.3931 19.9164ZM23.5628 19.67C23.2786 19.67 23.0924 19.808 22.9748 20.0051V19.7193H22.4751V21.9962H22.9748V20.7148C22.9748 20.3304 23.1414 20.1234 23.4452 20.1234C23.5432 20.1234 23.6608 20.1431 23.749 20.1727L23.8861 19.6995C23.8078 19.67 23.6608 19.67 23.5628 19.67ZM17.2425 20.8627C17.2425 21.5527 17.7128 22.0455 18.4478 22.0455C18.7809 22.0455 19.0161 21.9765 19.2513 21.7892L19.0161 21.3851C18.8299 21.5231 18.6339 21.6019 18.4282 21.6019C18.0264 21.6019 17.7422 21.3161 17.7422 20.8627C17.7422 20.4388 18.0264 20.153 18.4282 20.1234C18.6437 20.1234 18.8299 20.1924 19.0161 20.3402L19.2513 19.9361C19.0161 19.7488 18.7809 19.6798 18.4478 19.6798C17.7128 19.67 17.2425 20.1727 17.2425 20.8627ZM21.8186 20.8627V19.7193H21.3286V20.0051C21.1621 19.7883 20.9269 19.67 20.6231 19.67C19.9862 19.67 19.4864 20.1727 19.4864 20.8528C19.4864 21.5428 19.9862 22.0356 20.6231 22.0356C20.9563 22.0356 21.1915 21.9174 21.3286 21.7005V21.9864H21.8284V20.8627H21.8186ZM20.0058 20.8627C20.0058 20.4585 20.2606 20.1234 20.6917 20.1234C21.0935 20.1234 21.3776 20.429 21.3776 20.8627C21.3776 21.2668 21.0935 21.6019 20.6917 21.6019C20.2606 21.5724 20.0058 21.2668 20.0058 20.8627ZM14.0775 19.67C13.4209 19.67 12.9408 20.1431 12.9408 20.8528C12.9408 21.5625 13.4111 22.0356 14.0971 22.0356C14.4302 22.0356 14.7536 21.9371 15.0182 21.7301L14.783 21.3752C14.5968 21.5132 14.3616 21.6118 14.1265 21.6118C13.8227 21.6118 13.5091 21.4738 13.4405 21.0697H15.1161V20.8824C15.1455 20.153 14.7144 19.67 14.0775 19.67ZM14.0775 20.1037C14.3812 20.1037 14.5968 20.291 14.6458 20.6458H13.4699C13.5091 20.3402 13.7247 20.1037 14.0775 20.1037ZM26.3751 20.8627V18.8223H25.8753V20.0051C25.7087 19.7883 25.4736 19.67 25.1698 19.67C24.5329 19.67 24.0331 20.1727 24.0331 20.8528C24.0331 21.5428 24.5329 22.0356 25.1698 22.0356C25.503 22.0356 25.7381 21.9174 25.8753 21.7005V21.9864H26.3751V20.8627ZM24.5623 20.8627C24.5623 20.4585 24.817 20.1234 25.2482 20.1234C25.6499 20.1234 25.9341 20.429 25.9341 20.8627C25.9341 21.2668 25.6499 21.6019 25.2482 21.6019C24.817 21.5724 24.5623 21.2668 24.5623 20.8627ZM7.99236 20.8627V19.7193H7.49262V20.0051C7.32604 19.7883 7.09086 19.67 6.7871 19.67C6.15017 19.67 5.65043 20.1727 5.65043 20.8528C5.65043 21.5428 6.15017 22.0356 6.7871 22.0356C7.12026 22.0356 7.35543 21.9174 7.49262 21.7005V21.9864H7.99236V20.8627ZM6.15017 20.8627C6.15017 20.4585 6.40494 20.1234 6.83609 20.1234C7.23785 20.1234 7.52201 20.429 7.52201 20.8627C7.52201 21.2668 7.23785 21.6019 6.83609 21.6019C6.40494 21.5724 6.15017 21.2668 6.15017 20.8627Z" fill="black"/>
<path d="M17.6638 2.41211H10.2265V15.8472H17.6638V2.41211Z" fill="#FF5F00"/>
<path d="M10.7066 9.1339C10.7066 6.40352 11.9805 3.9787 13.9403 2.41143C12.4998 1.26802 10.687 0.587891 8.69787 0.587891C4.0042 0.587891 0.20224 4.4124 0.20224 9.1339C0.20224 13.8554 4.0042 17.6799 8.69787 17.6799C10.6772 17.6799 12.4998 16.9899 13.9403 15.8564C11.9805 14.3088 10.7066 11.8643 10.7066 9.1339Z" fill="#EB001B"/>
<path d="M27.6979 9.1339C27.6979 13.8554 23.8959 17.6799 19.2023 17.6799C17.2229 17.6799 15.4003 16.9899 13.9599 15.8564C15.9392 14.2891 17.1935 11.8643 17.1935 9.1339C17.1935 6.40352 15.9196 3.9787 13.9599 2.41143C15.4003 1.26802 17.2131 0.587891 19.2023 0.587891C23.8959 0.587891 27.6979 4.43212 27.6979 9.1339Z" fill="#F79E1B"/>
</svg>
