<svg width="45" height="32" viewBox="0 0 45 32" fill="none" xmlns="http://www.w3.org/2000/svg">
<rect x="0.75" y="0.75" width="43.5" height="30.5" rx="5.25" fill="white"/>
<rect x="0.75" y="0.75" width="43.5" height="30.5" rx="5.25" stroke="#E8E8E8" stroke-width="1.5"/>
<path fill-rule="evenodd" clip-rule="evenodd" d="M22.4073 22.4397C20.8629 23.7704 18.8596 24.5737 16.6705 24.5737C11.7859 24.5737 7.82617 20.5741 7.82617 15.6404C7.82617 10.7066 11.7859 6.70703 16.6705 6.70703C18.8596 6.70703 20.8629 7.51032 22.4073 8.84098C23.9517 7.51032 25.955 6.70703 28.1441 6.70703C33.0287 6.70703 36.9885 10.7066 36.9885 15.6404C36.9885 20.5741 33.0287 24.5737 28.1441 24.5737C25.955 24.5737 23.9517 23.7704 22.4073 22.4397Z" fill="#ED0006"/>
<path fill-rule="evenodd" clip-rule="evenodd" d="M22.4062 22.4406C24.3085 20.802 25.5148 18.3635 25.5148 15.6404C25.5148 12.9172 24.3085 10.4787 22.4062 8.84016C23.9505 7.50999 25.9535 6.70703 28.1421 6.70703C33.0267 6.70703 36.9864 10.7066 36.9864 15.6404C36.9864 20.5741 33.0267 24.5737 28.1421 24.5737C25.9535 24.5737 23.9505 23.7707 22.4062 22.4406Z" fill="#F9A000"/>
<path fill-rule="evenodd" clip-rule="evenodd" d="M22.4083 22.4405C24.31 20.8019 25.5159 18.3638 25.5159 15.6411C25.5159 12.9185 24.31 10.4803 22.4083 8.8418C20.5066 10.4803 19.3008 12.9185 19.3008 15.6411C19.3008 18.3638 20.5066 20.8019 22.4083 22.4405Z" fill="#FF5E00"/>
</svg>
