<svg width="47" height="34" viewBox="0 0 47 34" fill="none" xmlns="http://www.w3.org/2000/svg">
<rect width="47" height="34" rx="3" fill="#414141"/>
<path d="M28.6927 7.46313H18.6167V25.5679H28.6927V7.46313Z" fill="#FF5F00"/>
<path d="M19.2343 16.5154C19.2343 12.8369 20.9616 9.57418 23.6166 7.46302C21.6654 5.92763 19.2023 5 16.5154 5C10.1499 5 5 10.1499 5 16.5154C5 22.8809 10.1499 28.0308 16.5154 28.0308C19.2023 28.0308 21.6654 27.1032 23.6166 25.5678C20.9616 23.4886 19.2343 20.1939 19.2343 16.5154Z" fill="#EB001B"/>
<path d="M42.309 16.5154C42.309 22.8809 37.159 28.0308 30.7936 28.0308C28.1066 28.0308 25.6436 27.1032 23.6924 25.5678C26.3793 23.4567 28.0746 20.1939 28.0746 16.5154C28.0746 12.8369 26.3473 9.57418 23.6924 7.46302C25.6436 5.92763 28.1066 5 30.7936 5C37.159 5 42.309 10.1819 42.309 16.5154Z" fill="#F79E1B"/>
</svg>
