<svg width="37" height="36" viewBox="0 0 37 36" fill="none" xmlns="http://www.w3.org/2000/svg">
<path opacity="0.4" d="M29 13.5C29 15.675 28.355 17.67 27.245 19.335C25.625 21.735 23.06 23.43 20.075 23.865C19.565 23.955 19.04 24 18.5 24C17.96 24 17.435 23.955 16.925 23.865C13.94 23.43 11.375 21.735 9.755 19.335C8.645 17.67 8 15.675 8 13.5C8 7.695 12.695 3 18.5 3C24.305 3 29 7.695 29 13.5Z" fill="#CCA300"/>
<path d="M32.3746 27.705L29.8996 28.29C29.3446 28.425 28.9096 28.845 28.7896 29.4L28.2646 31.605C27.9796 32.805 26.4496 33.165 25.6546 32.22L18.4996 24L11.3446 32.235C10.5496 33.18 9.01963 32.82 8.73463 31.62L8.20963 29.415C8.07463 28.86 7.63963 28.425 7.09963 28.305L4.62463 27.72C3.48463 27.45 3.07963 26.025 3.90463 25.2L9.75463 19.35C11.3746 21.75 13.9396 23.445 16.9246 23.88C17.4346 23.97 17.9596 24.015 18.4996 24.015C19.0396 24.015 19.5646 23.97 20.0746 23.88C23.0596 23.445 25.6246 21.75 27.2446 19.35L33.0946 25.2C33.9196 26.01 33.5146 27.435 32.3746 27.705Z" fill="#CCA300"/>
<path d="M19.3709 8.97L20.2559 10.74C20.3759 10.98 20.6909 11.22 20.9759 11.265L22.5809 11.535C23.6009 11.7 23.8409 12.45 23.1059 13.185L21.8609 14.43C21.6509 14.64 21.5309 15.045 21.6059 15.345L21.9659 16.89C22.2509 18.105 21.6059 18.585 20.5259 17.94L19.0259 17.055C18.7559 16.89 18.3059 16.89 18.0359 17.055L16.5359 17.94C15.4559 18.57 14.8109 18.105 15.0959 16.89L15.4559 15.345C15.5159 15.06 15.4109 14.64 15.2009 14.43L13.9559 13.185C13.2209 12.45 13.4609 11.715 14.4809 11.535L16.0859 11.265C16.3559 11.22 16.6709 10.98 16.7909 10.74L17.6759 8.97C18.1109 8.01 18.8909 8.01 19.3709 8.97Z" fill="#CCA300"/>
</svg>
