<svg width="32" height="36" viewBox="0 0 32 36" fill="none" xmlns="http://www.w3.org/2000/svg">
<path fill-rule="evenodd" clip-rule="evenodd" d="M25.8328 26.3829C27.2648 26.0964 28.7341 26.4633 29.8635 27.3892C30.9929 28.3151 31.6407 29.6838 31.6407 31.1443C31.6407 33.8217 29.4624 36 26.785 36H4.91886C3.60535 36 2.32095 35.4604 1.39501 34.5193C0.474897 33.5842 -0.0203144 32.357 0.000638696 31.0637C0.0240528 29.6199 0.682811 28.2715 1.80802 27.3641C2.93295 26.4571 4.39102 26.0994 5.80803 26.3829L7.90187 26.8016L9.1407 24.8014V23.3438H8.08601C5.95365 23.3438 4.21883 21.6089 4.21883 19.4766C4.21883 15.011 7.31862 11.2565 11.4793 10.25C10.4246 9.16109 9.77351 7.67897 9.77351 6.04688C9.77351 2.71266 12.4862 0 15.8204 0C19.1546 0 21.8673 2.71266 21.8673 6.04688C21.8673 7.67897 21.2162 9.16109 20.1615 10.25C24.3222 11.2565 27.422 15.011 27.422 19.4766C27.422 21.6089 25.6871 23.3438 23.5548 23.3438H22.5001V24.8014L23.7389 26.8017L25.8328 26.3829ZM19.7579 6.04688C19.7579 3.87577 17.9915 2.10938 15.8204 2.10938C13.6492 2.10938 11.8829 3.87577 11.8829 6.04688C11.8829 8.21798 13.6493 9.98438 15.8204 9.98438C17.9915 9.98438 19.7579 8.21798 19.7579 6.04688ZM13.711 12.0938C9.64013 12.0938 6.3282 15.4057 6.3282 19.4766C6.3282 20.4458 7.11676 21.2344 8.08601 21.2344H11.1758C12.6255 21.2344 14.0292 20.8093 15.2354 20.0052C15.4125 19.8872 15.6165 19.8281 15.8204 19.8281C16.0243 19.8281 16.2283 19.8872 16.4055 20.0052C17.6116 20.8093 19.0153 21.2344 20.465 21.2344H23.5548C24.524 21.2344 25.3126 20.4458 25.3126 19.4766C25.3126 15.4057 22.0006 12.0938 17.9298 12.0938H13.711ZM11.2501 25.1016C11.2501 25.2978 11.1953 25.49 11.092 25.6569L10.1097 27.2432L15.8206 28.3854L21.5312 27.2432L20.5488 25.6569C20.4454 25.49 20.3907 25.2978 20.3907 25.1016V23.3426C18.7794 23.33 17.2138 22.9106 15.8204 22.1206C14.4269 22.9106 12.8614 23.33 11.2501 23.3426V25.1016ZM2.10987 31.0979C2.09813 31.8213 2.37833 32.511 2.89871 33.0399C3.43062 33.5805 4.16701 33.8906 4.91893 33.8906H8.68409C8.52568 33.5 8.43758 33.0737 8.43758 32.627C8.43758 31.2266 9.30882 29.9876 10.5775 29.4879L5.39445 28.4513C4.59282 28.2909 3.76833 28.4933 3.13222 29.0062C2.49568 29.5194 2.12309 30.2818 2.10987 31.0979ZM11.8105 33.8906H26.785C28.2993 33.8906 29.5313 32.6587 29.5313 31.1442C29.5313 30.3182 29.1649 29.544 28.5261 29.0204C28.0296 28.6134 27.4171 28.3974 26.7886 28.3974C26.6084 28.3974 26.4269 28.4152 26.2464 28.4513L11.5627 31.388C10.9741 31.5058 10.547 32.0268 10.547 32.627C10.547 33.3238 11.1138 33.8906 11.8105 33.8906ZM15.8203 16.3125L15.2308 17.0985C14.6313 17.8978 13.7584 18.4285 12.7728 18.5928L9.66557 19.1107C9.09076 19.2066 8.54753 18.8183 8.45183 18.2437C8.35607 17.6691 8.74419 17.1257 9.31879 17.03L12.426 16.5121C12.874 16.4374 13.2708 16.1962 13.5433 15.8329L14.9766 13.9219C15.1757 13.6563 15.4884 13.5 15.8203 13.5C16.1522 13.5 16.4649 13.6563 16.6641 13.9219L18.0974 15.8329C18.3698 16.1962 18.7666 16.4374 19.2146 16.5121L22.3218 17.03C22.8964 17.1257 23.2845 17.6692 23.1888 18.2437C23.1028 18.7596 22.6559 19.1252 22.1497 19.1252C22.0921 19.1252 22.0337 19.1204 21.975 19.1107L18.8678 18.5928C17.8821 18.4286 17.0092 17.8978 16.4098 17.0985L15.8203 16.3125Z" fill="#F4BBB3"/>
</svg>
