<svg width="92" height="92" viewBox="0 0 92 92" fill="none" xmlns="http://www.w3.org/2000/svg">
<path d="M46 92C71.4051 92 92 71.4051 92 46C92 20.5949 71.4051 0 46 0C20.5949 0 0 20.5949 0 46C0 71.4051 20.5949 92 46 92Z" fill="#FBE698"/>
<path d="M91.9999 46C91.9999 44.9147 91.9624 43.8384 91.8883 42.7717L69.9019 20.7854L43.5319 13.8359L21.2334 23.2057L15.2949 63.6969L43.533 91.935C44.3498 91.9781 45.1725 92 45.9999 92C71.405 92 91.9999 71.4051 91.9999 46Z" fill="#FEDA34"/>
<path d="M63.4759 78.9871C57.075 78.9871 51.8675 73.7798 51.8675 67.3787V44.492C51.8675 41.0635 49.0784 38.2742 45.65 38.2742C42.2215 38.2742 39.4322 41.0635 39.4322 44.492V58.9356H34.0416V44.492C34.0416 38.0911 39.249 32.8836 45.65 32.8836C52.0508 32.8836 57.2581 38.091 57.2581 44.492V67.3787C57.2581 70.8072 60.0472 73.5965 63.4759 73.5965C66.9043 73.5965 69.6936 70.8074 69.6936 67.3787V35.0999C69.6936 25.7161 62.0594 18.082 52.6758 18.082H39.1196C29.7358 18.082 22.1016 25.7162 22.1016 35.0999V42.3132H16.7109V35.0999C16.7109 22.7437 26.7634 12.6914 39.1196 12.6914H52.6756C65.0318 12.6914 75.084 22.7438 75.084 35.0999V67.3787C75.084 73.7796 69.8767 78.9871 63.4759 78.9871Z" fill="#636978"/>
<path d="M52.6759 12.6914H46.0217V18.082H52.6759C62.0595 18.082 69.6937 25.7162 69.6937 35.0999V67.3787C69.6937 70.8072 66.9046 73.5965 63.476 73.5965C60.0474 73.5965 57.2582 70.8074 57.2582 67.3787V44.492C57.2582 38.2157 52.2507 33.0904 46.0215 32.8931V38.2865C49.2774 38.4793 51.8676 41.1882 51.8676 44.492V67.3787C51.8676 73.7796 57.075 78.9871 63.476 78.9871C69.877 78.9871 75.0843 73.7798 75.0843 67.3787V35.0999C75.0843 22.7438 65.0321 12.6914 52.6759 12.6914Z" fill="#414952"/>
<path d="M36.6135 78.7684C33.5368 78.7684 31.043 76.2743 31.043 73.1979V50.6748H42.1841V73.1979C42.184 76.2743 39.6899 78.7684 36.6135 78.7684Z" fill="#94B052"/>
<path d="M19.4066 65.5088C16.33 65.5088 13.8359 63.0148 13.8359 59.9381V37.415H24.9771V59.9381C24.9771 63.0148 22.483 65.5088 19.4066 65.5088Z" fill="#94B052"/>
</svg>
