<svg width="120" height="127" viewBox="0 0 120 127" fill="none" xmlns="http://www.w3.org/2000/svg">
<g clip-path="url(#clip0_390_4890)">
<path d="M60 126.804C93.1371 126.804 120 99.9411 120 66.804C120 33.6669 93.1371 6.80402 60 6.80402C26.8629 6.80402 0 33.6669 0 66.804C0 99.9411 26.8629 126.804 60 126.804Z" fill="#DEF1FC"/>
<path d="M75.8653 58.9036H44.124V94.7617H75.8653V58.9036Z" fill="#E2988F"/>
<path d="M91.0866 33.7298C89.3345 29.5378 85.7551 31.6016 85.7551 31.6016C87.8297 12.5654 78.145 0 60.0009 0C41.8569 0 32.1722 12.5654 34.236 31.6016C34.236 31.6016 30.6566 29.5485 28.9046 33.7298C27.1525 37.9111 30.3556 47.7356 32.3334 50.8635C34.3112 53.9807 37.8153 56.3454 37.8153 56.3454C37.8153 56.3454 38.0411 59.8495 38.9547 62.2788C39.8684 64.7187 50.2195 75.919 53.2614 77.6281C57.2492 79.9821 63.1396 79.9821 66.719 77.6281C69.7609 75.919 80.1228 64.7187 81.0257 62.2788C81.9393 59.8388 82.165 56.3454 82.165 56.3454C82.165 56.3454 85.6692 53.9807 87.6469 50.8635C89.6247 47.7463 92.8279 37.9219 91.0758 33.7298H91.0866Z" fill="#E2988F"/>
<path d="M60.1627 79.7779C57.669 79.7779 55.1215 79.176 53.0685 77.9721C51.2304 76.9402 46.9846 72.6944 43.8352 69.1903L44.4371 68.6529C47.651 72.2215 51.7893 76.3275 53.4769 77.2734C57.3357 79.5414 63.0649 79.5522 66.5153 77.2842C68.2351 76.3168 72.3734 72.2107 75.5765 68.6529L76.1785 69.1903C73.0183 72.6944 68.7833 76.9295 66.9345 77.9721C65.1072 79.176 62.6672 79.7779 60.1627 79.7779Z" fill="#C46966"/>
<path d="M37.2122 48.1211L36.4121 48.2197L37.4185 56.3808L38.2186 56.2821L37.2122 48.1211Z" fill="#C46966"/>
<path d="M82.7276 48.1341L81.8193 56.2958L82.6206 56.385L83.5288 48.2233L82.7276 48.1341Z" fill="#C46966"/>
<path d="M31.2483 43.1459C31.0763 42.5332 29.6575 37.0728 31.6245 35.5787C32.2802 35.1595 32.8069 35.2025 33.1401 35.31C34.1397 35.6324 34.6449 36.8793 34.6987 37.019L33.9462 37.3092C33.8388 37.0298 33.4303 36.2559 32.8929 36.0839C32.6456 35.9979 32.3769 36.0624 32.0867 36.2451C30.9581 37.105 31.4418 40.8134 32.0222 42.9416L31.2483 43.1566V43.1459Z" fill="#C46966"/>
<path d="M88.7541 43.1459L87.9802 42.9309C88.5606 40.8026 89.0551 37.0943 87.8942 36.2236C87.6255 36.0516 87.3567 35.9979 87.1095 36.0731C86.4646 36.2881 86.0561 37.2878 86.0561 37.2985L85.3037 37.0083C85.3575 36.8685 85.8626 35.6324 86.8623 35.2992C87.1955 35.1917 87.7329 35.1487 88.3564 35.5572C90.3449 37.062 88.9261 42.5224 88.7541 43.1351V43.1459Z" fill="#C46966"/>
<path d="M36.8158 41.6087C42.201 41.641 38.1272 24.2601 42.3515 20.0466C44.5012 17.9076 47.6291 18.2623 50.3163 18.9394C53.4443 19.7349 56.6796 20.8205 59.9795 20.9065C63.4729 21.0032 66.7943 19.7134 70.1479 18.9072C72.7492 18.273 75.5761 17.9936 77.6399 20.0466C81.8642 24.2494 77.7904 41.6302 83.1755 41.6087C82.7993 37.5887 82.7886 33.1924 85.7445 31.6016C87.8298 12.5654 78.1451 0 60.001 0C41.857 0 32.1723 12.5654 34.2361 31.6016C36.6331 33.1602 37.1813 37.4059 36.8051 41.6087H36.8158Z" fill="#0B1A47"/>
<path d="M111.283 97.9649C94.343 90.4085 75.8765 87.732 75.8765 87.732C67.4064 96.5675 51.6164 96.6858 44.1352 87.732C44.1352 87.732 25.6687 90.4085 8.72852 97.9649C19.2624 115.249 38.2878 126.804 60.0112 126.804C81.7346 126.804 100.76 115.26 111.294 97.9649H111.283Z" fill="#50B1AF"/>
<path d="M39.8359 88.3446L44.1247 80.6484L58.0122 93.1171L49.5206 102.426L39.8359 88.3446Z" fill="white"/>
<path d="M80.1441 88.3446L75.8553 80.6484L61.9678 93.1171L70.4701 102.426L80.1441 88.3446Z" fill="white"/>
</g>
<defs>
<clipPath id="clip0_390_4890">
<rect width="120" height="126.804" fill="white"/>
</clipPath>
</defs>
</svg>
