<svg width="52" height="52" viewBox="0 0 52 52" fill="none" xmlns="http://www.w3.org/2000/svg">
<circle cx="26" cy="26" r="26" fill="url(#paint0_linear)"/>
<path d="M37.6129 17.8387C37.4892 17.8387 37.3653 17.7914 37.2708 17.697L35.8192 16.2453C35.6303 16.0564 35.6303 15.7501 35.8192 15.5611C36.0082 15.3722 36.3144 15.3722 36.5034 15.5611L37.955 17.0128C38.144 17.2017 38.144 17.508 37.955 17.697C37.8605 17.7914 37.7367 17.8387 37.6129 17.8387Z" fill="white"/>
<path d="M32.7744 32.5426C32.6301 32.5426 32.4869 32.4781 32.3917 32.3549C32.2279 32.1437 32.2667 31.8396 32.4779 31.6762L33.2432 31.0837C33.4539 30.9198 33.7582 30.9585 33.9219 31.1699C34.0857 31.3812 34.0469 31.6853 33.8357 31.8487L33.0704 32.4412C32.9824 32.5094 32.8778 32.5426 32.7744 32.5426Z" fill="white"/>
<path d="M34.782 30.988C34.6377 30.988 34.4944 30.9235 34.3992 30.8003C34.2355 30.5889 34.2743 30.285 34.4855 30.1216L35.7278 29.1598C35.9388 28.9962 36.2429 29.0346 36.4066 29.246C36.5703 29.4575 36.5315 29.7614 36.3203 29.9248L35.078 30.8866C34.9898 30.9549 34.8854 30.988 34.782 30.988ZM37.2665 29.0646C37.1222 29.0646 36.979 29.0001 36.8838 28.877C36.72 28.6655 36.7588 28.3616 36.9701 28.1982L38.2124 27.2364C38.4234 27.0725 38.728 27.1112 38.8911 27.3227C39.0549 27.5341 39.0161 27.838 38.8049 28.0014L37.5626 28.9632C37.4744 29.0314 37.37 29.0646 37.2665 29.0646Z" fill="white"/>
<path d="M39.7511 27.1412C39.6068 27.1412 39.4636 27.0767 39.3684 26.9536C39.2046 26.7424 39.2434 26.4383 39.4546 26.2748L39.7258 26.0648L39.4546 25.8548C39.2434 25.6913 39.2047 25.3873 39.3684 25.1761C39.5317 24.9646 39.8357 24.9264 40.0471 25.0898L40.8123 25.6823C40.9308 25.774 41 25.9151 41 26.0648C41 26.2146 40.9308 26.3557 40.8123 26.4473L40.0471 27.0398C39.959 27.1082 39.8545 27.1412 39.7511 27.1412Z" fill="white"/>
<path d="M38.5082 24.9945C38.4048 24.9945 38.3003 24.9615 38.2122 24.8931L36.9699 23.9313C36.7587 23.7678 36.72 23.464 36.8836 23.2526C37.0467 23.0411 37.3507 23.0024 37.5624 23.1663L38.8047 24.1281C39.0159 24.2917 39.0546 24.5954 38.891 24.8069C38.7958 24.93 38.6527 24.9945 38.5082 24.9945ZM36.0237 23.0709C35.9202 23.0709 35.8157 23.0379 35.7277 22.9695L34.4853 22.0077C34.2741 21.8442 34.2354 21.5404 34.3991 21.3289C34.5626 21.1177 34.8669 21.079 35.0778 21.2427L36.3202 22.2045C36.5314 22.3681 36.5701 22.6718 36.4064 22.8833C36.3112 23.0064 36.1681 23.0709 36.0237 23.0709Z" fill="white"/>
<path d="M33.5399 21.1474C33.4364 21.1474 33.3319 21.1144 33.2439 21.0461L32.4786 20.4536C32.2674 20.29 32.2287 19.986 32.3924 19.7748C32.5554 19.5634 32.8599 19.5246 33.0711 19.6886L33.8363 20.2811C34.0476 20.4446 34.0863 20.7486 33.9226 20.9598C33.8274 21.0828 33.6843 21.1474 33.5399 21.1474Z" fill="white"/>
<path d="M18.3823 21.208C18.238 21.208 18.0948 21.1435 17.9996 21.0203C17.8358 20.8091 17.8746 20.505 18.0858 20.3416L18.8511 19.7491C19.0616 19.5852 19.3662 19.6239 19.5298 19.8354C19.6936 20.0466 19.6548 20.3507 19.4436 20.5141L18.6783 21.1066C18.5903 21.1748 18.4859 21.208 18.3823 21.208Z" fill="white"/>
<path d="M13.4758 25.0066C13.3315 25.0066 13.1883 24.9421 13.0931 24.819C12.9293 24.6075 12.9681 24.3037 13.1793 24.1402L14.4061 23.1904C14.6168 23.0265 14.9212 23.0652 15.0848 23.2767C15.2485 23.4881 15.2098 23.792 14.9986 23.9554L13.7718 24.9052C13.6838 24.9735 13.5793 25.0066 13.4758 25.0066ZM15.9289 23.1073C15.7846 23.1073 15.6414 23.0428 15.5462 22.9197C15.3824 22.7082 15.4212 22.4044 15.6325 22.2409L16.8592 21.2911C17.0699 21.1273 17.3745 21.1661 17.5379 21.3773C17.7017 21.5888 17.6629 21.8927 17.4517 22.0561L16.225 23.0059C16.1369 23.0742 16.0325 23.1073 15.9289 23.1073Z" fill="white"/>
<path d="M12.2489 27.1408C12.1454 27.1408 12.0409 27.1078 11.9529 27.0394L11.1876 26.4469C11.0692 26.3552 11 26.2142 11 26.0644C11 25.9146 11.0692 25.7736 11.1876 25.6819L11.9529 25.0894C12.1638 24.9259 12.4679 24.9642 12.6316 25.1757C12.7954 25.3869 12.7566 25.691 12.5454 25.8544L12.2742 26.0644L12.5454 26.2744C12.7566 26.438 12.7953 26.7419 12.6316 26.9532C12.5364 27.0763 12.3933 27.1408 12.2489 27.1408Z" fill="white"/>
<path d="M17.1052 30.9004C17.0018 30.9004 16.8972 30.8674 16.8092 30.799L15.595 29.8591C15.3838 29.6956 15.3451 29.3918 15.5088 29.1804C15.6721 28.9687 15.9761 28.9305 16.1875 29.0941L17.4017 30.034C17.6129 30.1976 17.6516 30.5013 17.4879 30.7128C17.3927 30.8358 17.2495 30.9004 17.1052 30.9004ZM14.677 29.0207C14.5736 29.0207 14.4691 28.9877 14.381 28.9193L13.1668 27.9794C12.9556 27.8159 12.9169 27.5121 13.0806 27.3007C13.2439 27.089 13.5479 27.0507 13.7593 27.2144L14.9735 28.1543C15.1847 28.3179 15.2234 28.6216 15.0597 28.8331C14.9645 28.9561 14.8214 29.0207 14.677 29.0207Z" fill="white"/>
<path d="M19.0842 32.4329C18.9807 32.4329 18.8762 32.3999 18.7882 32.3316L18.0229 31.7391C17.8117 31.5755 17.773 31.2715 17.9367 31.0603C18.1 30.8486 18.404 30.8104 18.6154 30.974L19.3807 31.5666C19.5919 31.7301 19.6306 32.0341 19.4669 32.2453C19.3717 32.3683 19.2285 32.4329 19.0842 32.4329Z" fill="white"/>
<path d="M36.1613 17.8387C36.0375 17.8387 35.9137 17.7914 35.8192 17.697C35.6303 17.508 35.6303 17.2017 35.8192 17.0128L37.2708 15.5611C37.4598 15.3722 37.7661 15.3722 37.955 15.5611C38.144 15.7501 38.144 16.0564 37.955 16.2453L36.5034 17.697C36.4089 17.7914 36.285 17.8387 36.1613 17.8387Z" fill="white"/>
<path d="M35.6774 37.6776C34.877 37.6776 34.2258 37.0265 34.2258 36.226C34.2258 35.4256 34.877 34.7744 35.6774 34.7744C36.4779 34.7744 37.1291 35.4256 37.1291 36.226C37.1291 37.0265 36.4779 37.6776 35.6774 37.6776ZM35.6774 35.7422C35.4107 35.7422 35.1936 35.9593 35.1936 36.226C35.1936 36.4928 35.4107 36.7099 35.6774 36.7099C35.9442 36.7099 36.1613 36.4928 36.1613 36.226C36.1613 35.9593 35.9442 35.7422 35.6774 35.7422Z" fill="white"/>
<path d="M15.3548 15.9034C15.6221 15.9034 15.8387 15.6868 15.8387 15.4195C15.8387 15.1523 15.6221 14.9357 15.3548 14.9357C15.0876 14.9357 14.871 15.1523 14.871 15.4195C14.871 15.6868 15.0876 15.9034 15.3548 15.9034Z" fill="white"/>
<path d="M30.9344 39.129H21.0656C19.7843 39.129 18.7419 38.0604 18.7419 36.7471V15.382C18.7419 14.0686 19.7843 13 21.0656 13H30.9344C32.2157 13 33.2581 14.0686 33.2581 15.382V27.5161C33.2581 27.7833 33.0414 28 32.7742 28C32.507 28 32.2903 27.7833 32.2903 27.5161V15.382C32.2903 14.6021 31.6822 13.9677 30.9344 13.9677H21.0656C20.3178 13.9677 19.7097 14.6021 19.7097 15.382V36.7469C19.7097 37.5268 20.3178 38.1612 21.0656 38.1612H30.9344C31.6822 38.1612 32.2903 37.5268 32.2903 36.7469V29.4516C32.2903 29.1844 32.507 28.9677 32.7742 28.9677C33.0414 28.9677 33.2581 29.1844 33.2581 29.4516V36.7471C33.2581 38.0604 32.2157 39.129 30.9344 39.129Z" fill="white"/>
<path d="M27.647 15.4194H24.353C23.3935 15.4194 22.6129 14.6388 22.6129 13.6792C22.6129 13.3047 22.9178 13 23.2921 13H28.7079C29.0824 13 29.3871 13.3048 29.3871 13.6792C29.3871 14.6388 28.6065 15.4194 27.647 15.4194ZM23.6367 13.9677C23.751 14.2513 24.0291 14.4516 24.353 14.4516H27.647C27.9709 14.4516 28.249 14.2513 28.3634 13.9677H23.6367Z" fill="white"/>
<path d="M28.4194 37.6775H23.5807C23.3135 37.6775 23.0968 37.4608 23.0968 37.1936C23.0968 36.9264 23.3135 36.7097 23.5807 36.7097H28.4194C28.6866 36.7097 28.9033 36.9264 28.9033 37.1936C28.9033 37.4608 28.6866 37.6775 28.4194 37.6775Z" fill="white"/>
<path d="M25.9999 27.879C25.8851 27.879 25.7701 27.8384 25.6784 27.7568L21.3236 23.8859C21.2064 23.7817 21.1471 23.6269 21.1641 23.4712C21.1814 23.3153 21.273 23.1773 21.4101 23.1012L25.7649 20.6818C25.9114 20.6005 26.0886 20.6005 26.2351 20.6818L30.5899 23.1012C30.727 23.1773 30.8187 23.3153 30.8359 23.4712C30.8529 23.6269 30.7935 23.7816 30.6764 23.8859L26.3216 27.7568C26.2298 27.8384 26.1147 27.879 25.9999 27.879ZM22.4765 23.6159L25.9999 26.7477L29.5234 23.6158L25.9999 21.6584L22.4765 23.6159Z" fill="white"/>
<path d="M26 31.7499C25.9192 31.7499 25.8381 31.7296 25.7649 31.689L21.4101 29.2696C21.2565 29.1843 21.1613 29.0225 21.1613 28.8467V23.5241C21.1613 23.3526 21.252 23.194 21.3997 23.1072C21.5479 23.0199 21.7302 23.0181 21.8803 23.1012L26.2351 25.5206C26.3887 25.6059 26.484 25.7677 26.484 25.9435V31.2661C26.484 31.4376 26.3932 31.5962 26.2455 31.683C26.1696 31.7277 26.0848 31.7499 26 31.7499ZM22.129 28.562L25.5161 30.4436V26.2281L22.129 24.3465V28.562Z" fill="white"/>
<path d="M26 31.75C25.9152 31.75 25.8304 31.7277 25.7545 31.6831C25.6068 31.5962 25.5161 31.4377 25.5161 31.2661V25.9435C25.5161 25.7678 25.6113 25.6059 25.7649 25.5206L30.1198 23.1013C30.2696 23.0179 30.452 23.0198 30.6004 23.1072C30.748 23.1941 30.8387 23.3527 30.8387 23.5242V28.8468C30.8387 29.0225 30.7435 29.1844 30.5899 29.2697L26.235 31.689C26.1618 31.7297 26.0808 31.75 26 31.75ZM26.4839 26.2283V30.4438L29.871 28.5621V24.3466L26.4839 26.2283Z" fill="white"/>
<defs>
<linearGradient id="paint0_linear" x1="26" y1="1.3674e-06" x2="48.9412" y2="29.6706" gradientUnits="userSpaceOnUse">
<stop stop-color="#2F87F7"/>
<stop offset="1" stop-color="#00BBF9"/>
</linearGradient>
</defs>
</svg>
