<svg width="52" height="52" viewBox="0 0 52 52" fill="none" xmlns="http://www.w3.org/2000/svg">
<circle cx="26" cy="26" r="26" fill="url(#paint0_linear)"/>
<path d="M21.3125 25.0625C21.3125 24.2741 20.4889 23.6562 19.4375 23.6562C18.8652 23.6562 18.5 23.3788 18.5 23.1875C18.5 22.9962 18.8652 22.7188 19.4375 22.7188C20.0098 22.7188 20.375 22.9962 20.375 23.1875C20.375 23.3118 20.4244 23.431 20.5123 23.519C20.6002 23.6069 20.7194 23.6562 20.8438 23.6562C20.9681 23.6562 21.0873 23.6069 21.1752 23.519C21.2631 23.431 21.3125 23.3118 21.3125 23.1875C21.3125 22.5214 20.7223 21.9823 19.9062 21.8281V21.3125C19.9062 21.1882 19.8569 21.069 19.769 20.981C19.681 20.8931 19.5618 20.8438 19.4375 20.8438C19.3132 20.8438 19.194 20.8931 19.106 20.981C19.0181 21.069 18.9688 21.1882 18.9688 21.3125V21.8281C18.1527 21.9814 17.5625 22.5205 17.5625 23.1875C17.5625 23.9759 18.3861 24.5938 19.4375 24.5938C20.0098 24.5938 20.375 24.8713 20.375 25.0625C20.375 25.2537 20.0098 25.5312 19.4375 25.5312C18.8652 25.5312 18.5 25.2537 18.5 25.0625C18.5 24.9382 18.4506 24.819 18.3627 24.731C18.2748 24.6431 18.1556 24.5938 18.0312 24.5938C17.9069 24.5938 17.7877 24.6431 17.6998 24.731C17.6119 24.819 17.5625 24.9382 17.5625 25.0625C17.5625 25.7286 18.1527 26.2677 18.9688 26.4219V26.9375C18.9688 27.0618 19.0181 27.181 19.106 27.269C19.194 27.3569 19.3132 27.4062 19.4375 27.4062C19.5618 27.4062 19.681 27.3569 19.769 27.269C19.8569 27.181 19.9062 27.0618 19.9062 26.9375V26.4219C20.7223 26.2677 21.3125 25.7286 21.3125 25.0625Z" fill="white"/>
<path d="M38.6562 14.2812H16.1562C15.7836 14.2824 15.4266 14.4309 15.1631 14.6944C14.8996 14.9578 14.7511 15.3149 14.75 15.6875V18.0312H13.3438C12.9711 18.0324 12.6141 18.1809 12.3506 18.4444C12.0871 18.7078 11.9386 19.0649 11.9375 19.4375V37.25C11.9386 37.6226 12.0871 37.9797 12.3506 38.2431C12.6141 38.5066 12.9711 38.6551 13.3438 38.6562H35.8438C36.2164 38.6551 36.5734 38.5066 36.8369 38.2431C37.1004 37.9797 37.2489 37.6226 37.25 37.25V35.8438H38.6562C39.0289 35.8426 39.3859 35.6941 39.6494 35.4306C39.9129 35.1672 40.0614 34.8101 40.0625 34.4375V15.6875C40.0614 15.3149 39.9129 14.9578 39.6494 14.6944C39.3859 14.4309 39.0289 14.2824 38.6562 14.2812ZM12.875 19.4375C12.875 19.3132 12.9244 19.194 13.0123 19.106C13.1002 19.0181 13.2194 18.9688 13.3438 18.9688H14.75V21.7812H12.875V19.4375ZM36.3125 37.25C36.3125 37.3743 36.2631 37.4935 36.1752 37.5815C36.0873 37.6694 35.9681 37.7188 35.8438 37.7188H13.3438C13.2194 37.7188 13.1002 37.6694 13.0123 37.5815C12.9244 37.4935 12.875 37.3743 12.875 37.25V22.7188H14.75V34.4375C14.7511 34.8101 14.8996 35.1672 15.1631 35.4306C15.4266 35.6941 15.7836 35.8426 16.1562 35.8438H36.3125V37.25ZM39.125 34.4375C39.125 34.5618 39.0756 34.681 38.9877 34.769C38.8998 34.8569 38.7806 34.9062 38.6562 34.9062H16.1562C16.0319 34.9062 15.9127 34.8569 15.8248 34.769C15.7369 34.681 15.6875 34.5618 15.6875 34.4375V18.9688H39.125V34.4375ZM39.125 18.0312H15.6875V15.6875C15.6875 15.5632 15.7369 15.444 15.8248 15.356C15.9127 15.2681 16.0319 15.2188 16.1562 15.2188H38.6562C38.7806 15.2188 38.8998 15.2681 38.9877 15.356C39.0756 15.444 39.125 15.5632 39.125 15.6875V18.0312Z" fill="white"/>
<path d="M36.7812 32.0938H36.3125V24.125C36.3125 24.0007 36.2631 23.8815 36.1752 23.7935C36.0873 23.7056 35.9681 23.6562 35.8438 23.6562H33.9688C33.8444 23.6562 33.7252 23.7056 33.6373 23.7935C33.5494 23.8815 33.5 24.0007 33.5 24.125V32.0938H32.5625V26C32.5625 25.8757 32.5131 25.7565 32.4252 25.6685C32.3373 25.5806 32.2181 25.5312 32.0938 25.5312H30.2188C30.0944 25.5312 29.9752 25.5806 29.8873 25.6685C29.7994 25.7565 29.75 25.8757 29.75 26V32.0938H28.8125V27.875C28.8125 27.7507 28.7631 27.6315 28.6752 27.5435C28.5873 27.4556 28.4681 27.4062 28.3438 27.4062H26.4688C26.3444 27.4062 26.2252 27.4556 26.1373 27.5435C26.0494 27.6315 26 27.7507 26 27.875V32.0938H25.0625V28.8125C25.0625 28.6882 25.0131 28.569 24.9252 28.481C24.8373 28.3931 24.7181 28.3438 24.5938 28.3438H22.7188C22.5944 28.3438 22.4752 28.3931 22.3873 28.481C22.2994 28.569 22.25 28.6882 22.25 28.8125V32.0938H21.7812C21.6569 32.0938 21.5377 32.1431 21.4498 32.231C21.3619 32.319 21.3125 32.4382 21.3125 32.5625C21.3125 32.6868 21.3619 32.806 21.4498 32.894C21.5377 32.9819 21.6569 33.0312 21.7812 33.0312H36.7812C36.9056 33.0312 37.0248 32.9819 37.1127 32.894C37.2006 32.806 37.25 32.6868 37.25 32.5625C37.25 32.4382 37.2006 32.319 37.1127 32.231C37.0248 32.1431 36.9056 32.0938 36.7812 32.0938ZM24.125 32.0938H23.1875V29.2812H24.125V32.0938ZM27.875 32.0938H26.9375V28.3438H27.875V32.0938ZM31.625 32.0938H30.6875V26.4688H31.625V32.0938ZM35.375 32.0938H34.4375V24.5938H35.375V32.0938Z" fill="white"/>
<path d="M17.0938 17.0938H17.5625C17.6868 17.0938 17.806 17.0444 17.894 16.9565C17.9819 16.8685 18.0312 16.7493 18.0312 16.625C18.0312 16.5007 17.9819 16.3815 17.894 16.2935C17.806 16.2056 17.6868 16.1562 17.5625 16.1562H17.0938C16.9694 16.1562 16.8502 16.2056 16.7623 16.2935C16.6744 16.3815 16.625 16.5007 16.625 16.625C16.625 16.7493 16.6744 16.8685 16.7623 16.9565C16.8502 17.0444 16.9694 17.0938 17.0938 17.0938Z" fill="white"/>
<path d="M19.4375 17.0938H19.9062C20.0306 17.0938 20.1498 17.0444 20.2377 16.9565C20.3256 16.8685 20.375 16.7493 20.375 16.625C20.375 16.5007 20.3256 16.3815 20.2377 16.2935C20.1498 16.2056 20.0306 16.1562 19.9062 16.1562H19.4375C19.3132 16.1562 19.194 16.2056 19.106 16.2935C19.0181 16.3815 18.9688 16.5007 18.9688 16.625C18.9688 16.7493 19.0181 16.8685 19.106 16.9565C19.194 17.0444 19.3132 17.0938 19.4375 17.0938Z" fill="white"/>
<path d="M21.7812 17.0938H22.25C22.3743 17.0938 22.4935 17.0444 22.5815 16.9565C22.6694 16.8685 22.7188 16.7493 22.7188 16.625C22.7188 16.5007 22.6694 16.3815 22.5815 16.2935C22.4935 16.2056 22.3743 16.1562 22.25 16.1562H21.7812C21.6569 16.1562 21.5377 16.2056 21.4498 16.2935C21.3619 16.3815 21.3125 16.5007 21.3125 16.625C21.3125 16.7493 21.3619 16.8685 21.4498 16.9565C21.5377 17.0444 21.6569 17.0938 21.7812 17.0938Z" fill="white"/>
<path d="M23.6563 27.4062C23.7806 27.4062 23.8998 27.3568 23.9877 27.2689L26 25.2566L27.0749 26.3314C27.1628 26.4193 27.282 26.4686 27.4063 26.4686C27.5306 26.4686 27.6498 26.4193 27.7377 26.3314L30.2188 23.8503L30.8249 24.4564C30.9128 24.5443 31.032 24.5936 31.1563 24.5936C31.2806 24.5936 31.3998 24.5443 31.4877 24.4564L34.4375 21.5066V22.25C34.4375 22.3743 34.4869 22.4935 34.5748 22.5815C34.6627 22.6694 34.7819 22.7188 34.9063 22.7188C35.0306 22.7188 35.1498 22.6694 35.2377 22.5815C35.3256 22.4935 35.375 22.3743 35.375 22.25V20.375C35.3749 20.2823 35.3473 20.1918 35.2958 20.1148C35.2442 20.0377 35.171 19.9777 35.0853 19.9423C35.0286 19.9188 34.9677 19.9065 34.9063 19.9062H33.0313C32.9069 19.9062 32.7877 19.9556 32.6998 20.0435C32.6119 20.1315 32.5625 20.2507 32.5625 20.375C32.5625 20.4993 32.6119 20.6185 32.6998 20.7065C32.7877 20.7944 32.9069 20.8438 33.0313 20.8438H33.7747L31.1563 23.4622L30.5502 22.8561C30.4623 22.7682 30.3431 22.7189 30.2188 22.7189C30.0945 22.7189 29.9753 22.7682 29.8874 22.8561L27.4063 25.3372L26.3314 24.2623C26.2435 24.1745 26.1243 24.1251 26 24.1251C25.8757 24.1251 25.7565 24.1745 25.6686 24.2623L23.3249 26.6061C23.2593 26.6716 23.2147 26.7552 23.1966 26.8461C23.1785 26.937 23.1878 27.0312 23.2233 27.1169C23.2588 27.2025 23.3188 27.2757 23.3959 27.3272C23.473 27.3787 23.5636 27.4062 23.6563 27.4062Z" fill="white"/>
<defs>
<linearGradient id="paint0_linear" x1="9.68575e-08" y1="26" x2="52" y2="26" gradientUnits="userSpaceOnUse">
<stop stop-color="#F4C520"/>
<stop offset="1" stop-color="#F5A84D"/>
</linearGradient>
</defs>
</svg>
