<svg width="52" height="52" viewBox="0 0 52 52" fill="none" xmlns="http://www.w3.org/2000/svg">
<circle cx="26" cy="26" r="26" fill="url(#paint0_linear)"/>
<path d="M32.6666 13.0801C32.939 13.0801 33.1599 12.8533 33.1599 12.5734C33.1599 12.2936 32.939 12.0668 32.6666 12.0668C32.3941 12.0668 32.1732 12.2936 32.1732 12.5734C32.1732 12.8533 32.3941 13.0801 32.6666 13.0801Z" fill="white"/>
<path d="M40.0666 16.6267C40.3391 16.6267 40.5599 16.3999 40.5599 16.1201C40.5599 15.8402 40.3391 15.6134 40.0666 15.6134C39.7941 15.6134 39.5732 15.8402 39.5732 16.1201C39.5732 16.3999 39.7941 16.6267 40.0666 16.6267Z" fill="white"/>
<path d="M37.1065 14.6001C36.2904 14.6001 35.6265 13.9182 35.6265 13.0801C35.6265 12.2419 36.2904 11.5601 37.1065 11.5601C37.9226 11.5601 38.5865 12.2419 38.5865 13.0801C38.5865 13.9182 37.9226 14.6001 37.1065 14.6001ZM37.1065 12.5734C36.8343 12.5734 36.6131 12.8008 36.6131 13.0801C36.6131 13.3594 36.8343 13.5867 37.1065 13.5867C37.3787 13.5867 37.5998 13.3594 37.5998 13.0801C37.5998 12.8008 37.3787 12.5734 37.1065 12.5734Z" fill="white"/>
<path d="M25.7599 24.7333C25.6945 24.7333 25.6293 24.72 25.5677 24.6933L12.741 19.1199C12.5585 19.0408 12.4399 18.8569 12.4399 18.6533C12.4399 18.4497 12.5585 18.2658 12.741 18.1867L25.5677 12.6133C25.691 12.5599 25.8288 12.5599 25.9521 12.6133L38.7788 18.1867C38.9614 18.2658 39.0799 18.4497 39.0799 18.6533C39.0799 18.8569 38.9614 19.0408 38.7789 19.1199L25.9522 24.6933C25.8906 24.72 25.8254 24.7333 25.7599 24.7333ZM14.1994 18.6533L25.7599 23.6764L37.3205 18.6533L25.7599 13.6302L14.1994 18.6533Z" fill="white"/>
<path d="M25.7599 40.44C25.6896 40.44 25.6192 40.4247 25.5532 40.3936L12.7266 34.3136C12.5517 34.2307 12.4399 34.0511 12.4399 33.8534V18.6534C12.4399 18.4834 12.5228 18.3248 12.6606 18.2311C12.7988 18.1373 12.9732 18.1202 13.1256 18.1867L25.9522 23.7601C26.1348 23.8392 26.2533 24.023 26.2533 24.2267V39.9334C26.2533 40.106 26.1676 40.2671 26.0259 40.3601C25.9454 40.4131 25.8529 40.44 25.7599 40.44ZM13.4266 33.5292L25.2666 39.1415V24.5624L13.4266 19.4178V33.5292Z" fill="white"/>
<path d="M25.7599 40.4401C25.6669 40.4401 25.5744 40.4131 25.494 40.3601C25.3523 40.2672 25.2666 40.1061 25.2666 39.9334V24.2267C25.2666 24.0232 25.3851 23.8393 25.5677 23.7601L38.3943 18.1868C38.5465 18.1203 38.7205 18.1372 38.8593 18.2311C38.9971 18.3248 39.0799 18.4834 39.0799 18.6534V21.2461C39.0799 21.526 38.8593 21.7528 38.5866 21.7528C38.3139 21.7528 38.0933 21.526 38.0933 21.2461V19.4178L26.2533 24.5624V39.1415L38.0933 33.5293V23.6928C38.0933 23.413 38.3139 23.1862 38.5866 23.1862C38.8593 23.1862 39.0799 23.413 39.0799 23.6928V33.8534C39.0799 34.0511 38.9682 34.2307 38.7933 34.3136L25.9666 40.3936C25.9007 40.4247 25.8302 40.4401 25.7599 40.4401Z" fill="white"/>
<path d="M19.3466 29.7999C19.2536 29.7999 19.1611 29.7729 19.0807 29.72C18.939 29.627 18.8533 29.4659 18.8533 29.2932V21.6932C18.8533 21.4955 18.965 21.3159 19.1399 21.2331L25.5532 18.1931C25.7064 18.1209 25.8843 18.1334 26.0259 18.2265C26.1674 18.3196 26.2533 18.4806 26.2533 18.6533V26.2532C26.2533 26.451 26.1415 26.6306 25.9667 26.7134L19.5533 29.7534C19.4873 29.7846 19.4169 29.7999 19.3466 29.7999ZM19.8399 22.0174V28.5013L25.2666 25.9291V19.4452L19.8399 22.0174Z" fill="white"/>
<path d="M31.6799 29.8001C31.6043 29.8001 31.5291 29.7822 31.4593 29.7466L25.5393 26.7066C25.3721 26.6207 25.2666 26.4454 25.2666 26.2534V18.6534C25.2666 18.4777 25.3553 18.3147 25.5007 18.2225C25.6457 18.13 25.8273 18.1223 25.9806 18.2002L31.9006 21.2402C32.0678 21.3261 32.1733 21.5014 32.1733 21.6934V29.2934C32.1733 29.4691 32.0846 29.6321 31.9392 29.7243C31.8601 29.7746 31.77 29.8001 31.6799 29.8001ZM26.2533 25.9402L31.1866 28.4735V22.0065L26.2533 19.4732V25.9402Z" fill="white"/>
<path d="M25.7599 32.8401C25.6896 32.8401 25.6187 32.8245 25.5532 32.7936L19.1399 29.7536C18.965 29.6708 18.8533 29.4912 18.8533 29.2934C18.8533 29.0957 18.965 28.9161 19.1399 28.8333L25.5532 25.7933C25.6895 25.7292 25.8471 25.7317 25.9806 25.8002L31.9006 28.8402C32.0678 28.9261 32.1733 29.1014 32.1733 29.2934C32.1733 29.4855 32.0678 29.6608 31.9006 29.7467L25.9806 32.7867C25.9113 32.8223 25.8355 32.8401 25.7599 32.8401ZM20.5241 29.2934L25.7513 31.7713L30.5767 29.2934L25.7513 26.8156L20.5241 29.2934Z" fill="white"/>
<defs>
<linearGradient id="paint0_linear" x1="9.68575e-08" y1="26" x2="52" y2="26" gradientUnits="userSpaceOnUse">
<stop stop-color="#26D04C"/>
<stop offset="1" stop-color="#4BE793"/>
</linearGradient>
</defs>
</svg>
