<svg width="52" height="52" viewBox="0 0 52 52" fill="none" xmlns="http://www.w3.org/2000/svg">
<circle cx="26" cy="26" r="26" fill="url(#paint0_linear)"/>
<path d="M17.8206 16.4704C17.6906 16.4704 17.5604 16.4207 17.4612 16.3214L16.0232 14.8834C15.8246 14.6848 15.8246 14.363 16.0232 14.1644C16.2217 13.9659 16.5436 13.9659 16.7422 14.1644L18.1801 15.6024C18.3787 15.8009 18.3787 16.1228 18.1801 16.3214C18.0809 16.4208 17.9508 16.4704 17.8206 16.4704Z" fill="white"/>
<path d="M16.3827 16.4704C16.2526 16.4704 16.1225 16.4207 16.0232 16.3214C15.8246 16.1228 15.8246 15.8009 16.0232 15.6024L17.4612 14.1644C17.6597 13.9659 17.9816 13.9659 18.1801 14.1644C18.3787 14.363 18.3787 14.6848 18.1801 14.8834L16.7422 16.3214C16.6429 16.4208 16.5127 16.4704 16.3827 16.4704Z" fill="white"/>
<path d="M37.4406 24.3955H13.0339C12.7531 24.3955 12.5254 24.1679 12.5254 23.887V20.8362C12.5254 20.6309 12.6488 20.4459 12.8382 20.367L25.0416 15.2823C25.1667 15.2301 25.3078 15.2301 25.4329 15.2823L32.5536 18.2492C32.8128 18.3573 32.9352 18.6548 32.8271 18.914C32.7191 19.1727 32.4219 19.2964 32.1623 19.1876L25.2373 16.3024L13.5423 21.1751V23.3786H36.9322V21.1751L34.1603 20.0201C33.9012 19.912 33.7787 19.6145 33.8868 19.3553C33.9946 19.0963 34.292 18.9724 34.5516 19.0817L37.6363 20.367C37.8257 20.4459 37.9491 20.6309 37.9491 20.8362V23.887C37.9491 24.1679 37.7214 24.3955 37.4406 24.3955Z" fill="white"/>
<path d="M34.3898 15.7514C34.6706 15.7514 34.8983 15.5238 34.8983 15.243C34.8983 14.9621 34.6706 14.7345 34.3898 14.7345C34.109 14.7345 33.8813 14.9621 33.8813 15.243C33.8813 15.5238 34.109 15.7514 34.3898 15.7514Z" fill="white"/>
<path d="M39.4745 29.9886C38.6334 29.9886 37.9491 29.3043 37.9491 28.4632C37.9491 27.622 38.6334 26.9377 39.4745 26.9377C40.3157 26.9377 40.9999 27.622 40.9999 28.4632C40.9999 29.3043 40.3157 29.9886 39.4745 29.9886ZM39.4745 27.9547C39.1942 27.9547 38.966 28.1829 38.966 28.4632C38.966 28.7435 39.1942 28.9716 39.4745 28.9716C39.7548 28.9716 39.983 28.7435 39.983 28.4632C39.983 28.1829 39.7548 27.9547 39.4745 27.9547Z" fill="white"/>
<path d="M38.9661 40.6666H11.5085C11.2277 40.6666 11 40.439 11 40.1581V37.6158C11 37.335 11.2277 37.1073 11.5085 37.1073H38.9661C39.2469 37.1073 39.4746 37.335 39.4746 37.6158V40.1581C39.4746 40.439 39.2469 40.6666 38.9661 40.6666ZM12.0169 39.6497H38.4576V38.1242H12.0169V39.6497Z" fill="white"/>
<path d="M37.4406 38.1243H13.0339C12.7531 38.1243 12.5254 37.8967 12.5254 37.6159V35.582C12.5254 35.3012 12.7531 35.0735 13.0339 35.0735H37.4406C37.7214 35.0735 37.9491 35.3012 37.9491 35.582V37.6159C37.9491 37.8967 37.7214 38.1243 37.4406 38.1243ZM13.5423 37.1074H36.9322V36.0904H13.5423V37.1074Z" fill="white"/>
<path d="M37.4406 26.9379H13.0339C12.7531 26.9379 12.5254 26.7102 12.5254 26.4294V23.887C12.5254 23.6062 12.7531 23.3785 13.0339 23.3785H37.4406C37.7214 23.3785 37.9491 23.6062 37.9491 23.887V26.4294C37.9491 26.7102 37.7214 26.9379 37.4406 26.9379ZM13.5423 25.9209H36.9322V24.3955H13.5423V25.9209Z" fill="white"/>
<path d="M35.4068 26.9378C35.126 26.9378 34.8983 26.7102 34.8983 26.4294V25.4124C34.8983 25.1316 35.126 24.9039 35.4068 24.9039C35.6876 24.9039 35.9153 25.1316 35.9153 25.4124V26.4294C35.9153 26.7102 35.6876 26.9378 35.4068 26.9378Z" fill="white"/>
<path d="M33.373 26.9378C33.0922 26.9378 32.8645 26.7102 32.8645 26.4294V25.4124C32.8645 25.1316 33.0922 24.9039 33.373 24.9039C33.6538 24.9039 33.8815 25.1316 33.8815 25.4124V26.4294C33.8815 26.7102 33.6538 26.9378 33.373 26.9378Z" fill="white"/>
<path d="M31.339 26.9378C31.0582 26.9378 30.8306 26.7102 30.8306 26.4294V25.4124C30.8306 25.1316 31.0582 24.9039 31.339 24.9039C31.6198 24.9039 31.8475 25.1316 31.8475 25.4124V26.4294C31.8475 26.7102 31.6198 26.9378 31.339 26.9378Z" fill="white"/>
<path d="M29.3051 26.9378C29.0243 26.9378 28.7966 26.7102 28.7966 26.4294V25.4124C28.7966 25.1316 29.0243 24.9039 29.3051 24.9039C29.5859 24.9039 29.8136 25.1316 29.8136 25.4124V26.4294C29.8136 26.7102 29.5859 26.9378 29.3051 26.9378Z" fill="white"/>
<path d="M27.2713 26.9378C26.9905 26.9378 26.7628 26.7102 26.7628 26.4294V25.4124C26.7628 25.1316 26.9905 24.9039 27.2713 24.9039C27.5521 24.9039 27.7798 25.1316 27.7798 25.4124V26.4294C27.7798 26.7102 27.5521 26.9378 27.2713 26.9378Z" fill="white"/>
<path d="M25.2374 26.9378C24.9566 26.9378 24.7289 26.7102 24.7289 26.4294V25.4124C24.7289 25.1316 24.9566 24.9039 25.2374 24.9039C25.5182 24.9039 25.7458 25.1316 25.7458 25.4124V26.4294C25.7458 26.7102 25.5182 26.9378 25.2374 26.9378Z" fill="white"/>
<path d="M23.2034 26.9378C22.9226 26.9378 22.6949 26.7102 22.6949 26.4294V25.4124C22.6949 25.1316 22.9226 24.9039 23.2034 24.9039C23.4842 24.9039 23.7119 25.1316 23.7119 25.4124V26.4294C23.7119 26.7102 23.4842 26.9378 23.2034 26.9378Z" fill="white"/>
<path d="M21.1696 26.9378C20.8888 26.9378 20.6611 26.7102 20.6611 26.4294V25.4124C20.6611 25.1316 20.8888 24.9039 21.1696 24.9039C21.4504 24.9039 21.6781 25.1316 21.6781 25.4124V26.4294C21.6781 26.7102 21.4504 26.9378 21.1696 26.9378Z" fill="white"/>
<path d="M19.1357 26.9378C18.8549 26.9378 18.6272 26.7102 18.6272 26.4294V25.4124C18.6272 25.1316 18.8549 24.9039 19.1357 24.9039C19.4165 24.9039 19.6441 25.1316 19.6441 25.4124V26.4294C19.6441 26.7102 19.4165 26.9378 19.1357 26.9378Z" fill="white"/>
<path d="M17.1019 26.9378C16.8211 26.9378 16.5934 26.7102 16.5934 26.4294V25.4124C16.5934 25.1316 16.8211 24.9039 17.1019 24.9039C17.3827 24.9039 17.6103 25.1316 17.6103 25.4124V26.4294C17.6103 26.7102 17.3827 26.9378 17.1019 26.9378Z" fill="white"/>
<path d="M15.0678 26.9378C14.787 26.9378 14.5593 26.7102 14.5593 26.4294V25.4124C14.5593 25.1316 14.787 24.9039 15.0678 24.9039C15.3486 24.9039 15.5763 25.1316 15.5763 25.4124V26.4294C15.5763 26.7102 15.3486 26.9378 15.0678 26.9378Z" fill="white"/>
<path d="M17.6102 36.0904H14.0508C13.77 36.0904 13.5424 35.8627 13.5424 35.5819V33.548C13.5424 33.2672 13.77 33.0395 14.0508 33.0395V28.9717C13.77 28.9717 13.5424 28.7441 13.5424 28.4633V26.4294C13.5424 26.1486 13.77 25.9209 14.0508 25.9209H17.6102C17.891 25.9209 18.1186 26.1486 18.1186 26.4294V28.4633C18.1186 28.7441 17.891 28.9717 17.6102 28.9717V33.0395C17.891 33.0395 18.1186 33.2672 18.1186 33.548V35.5819C18.1186 35.8627 17.891 36.0904 17.6102 36.0904ZM14.5593 35.0734H17.1017V34.0565C16.8209 34.0565 16.5932 33.8288 16.5932 33.548V28.4633C16.5932 28.1825 16.8209 27.9548 17.1017 27.9548V26.9378H14.5593V27.9548C14.8401 27.9548 15.0678 28.1825 15.0678 28.4633V33.548C15.0678 33.8288 14.8401 34.0565 14.5593 34.0565V35.0734Z" fill="white"/>
<path d="M23.7118 36.0904H20.1525C19.8717 36.0904 19.644 35.8627 19.644 35.5819V33.548C19.644 33.2672 19.8717 33.0395 20.1525 33.0395V28.9717C19.8717 28.9717 19.644 28.7441 19.644 28.4633V26.4294C19.644 26.1486 19.8717 25.9209 20.1525 25.9209H23.7118C23.9926 25.9209 24.2203 26.1486 24.2203 26.4294V28.4633C24.2203 28.7441 23.9926 28.9717 23.7118 28.9717V33.0395C23.9926 33.0395 24.2203 33.2672 24.2203 33.548V35.5819C24.2203 35.8627 23.9926 36.0904 23.7118 36.0904ZM20.661 35.0734H23.2034V34.0565C22.9226 34.0565 22.6949 33.8288 22.6949 33.548V28.4633C22.6949 28.1825 22.9226 27.9548 23.2034 27.9548V26.9378H20.661V27.9548C20.9418 27.9548 21.1695 28.1825 21.1695 28.4633V33.548C21.1695 33.8288 20.9418 34.0565 20.661 34.0565V35.0734Z" fill="white"/>
<path d="M30.3221 36.0904H26.7627C26.4819 36.0904 26.2543 35.8627 26.2543 35.5819V33.548C26.2543 33.2672 26.4819 33.0395 26.7627 33.0395V28.9717C26.4819 28.9717 26.2543 28.7441 26.2543 28.4633V26.4294C26.2543 26.1486 26.4819 25.9209 26.7627 25.9209H30.3221C30.6029 25.9209 30.8305 26.1486 30.8305 26.4294V28.4633C30.8305 28.7441 30.6029 28.9717 30.3221 28.9717V33.0395C30.6029 33.0395 30.8305 33.2672 30.8305 33.548V35.5819C30.8305 35.8627 30.6029 36.0904 30.3221 36.0904ZM27.2712 35.0734H29.8136V34.0565C29.5328 34.0565 29.3051 33.8288 29.3051 33.548V28.4633C29.3051 28.1825 29.5328 27.9548 29.8136 27.9548V26.9378H27.2712V27.9548C27.552 27.9548 27.7797 28.1825 27.7797 28.4633V33.548C27.7797 33.8288 27.552 34.0565 27.2712 34.0565V35.0734Z" fill="white"/>
<path d="M36.4238 36.0904H32.8644C32.5836 36.0904 32.356 35.8627 32.356 35.5819V33.548C32.356 33.2672 32.5836 33.0395 32.8644 33.0395V28.9717C32.5836 28.9717 32.356 28.7441 32.356 28.4633V26.4294C32.356 26.1486 32.5836 25.9209 32.8644 25.9209H36.4238C36.7046 25.9209 36.9322 26.1486 36.9322 26.4294V28.4633C36.9322 28.7441 36.7046 28.9717 36.4238 28.9717V33.0395C36.7046 33.0395 36.9322 33.2672 36.9322 33.548V35.5819C36.9322 35.8627 36.7046 36.0904 36.4238 36.0904ZM33.3729 35.0734H35.9153V34.0565C35.6345 34.0565 35.4068 33.8288 35.4068 33.548V28.4633C35.4068 28.1825 35.6345 27.9548 35.9153 27.9548V26.9378H33.3729V27.9548C33.6537 27.9548 33.8814 28.1825 33.8814 28.4633V33.548C33.8814 33.8288 33.6537 34.0565 33.3729 34.0565V35.0734Z" fill="white"/>
<path d="M25.2372 16.2598C24.9564 16.2598 24.7288 16.0322 24.7288 15.7514V11.1751C24.7288 10.8943 24.9564 10.6666 25.2372 10.6666C25.518 10.6666 25.7457 10.8943 25.7457 11.1751V15.7514C25.7457 16.0322 25.518 16.2598 25.2372 16.2598Z" fill="white"/>
<path d="M29.305 14.7344H25.2372C24.9564 14.7344 24.7288 14.5068 24.7288 14.226V12.1921C24.7288 11.9113 24.9564 11.6836 25.2372 11.6836H29.305C29.5858 11.6836 29.8135 11.9113 29.8135 12.1921V14.226C29.8135 14.5068 29.5858 14.7344 29.305 14.7344ZM25.7457 13.7175H28.7966V12.7005H25.7457V13.7175Z" fill="white"/>
<defs>
<linearGradient id="paint0_linear" x1="26" y1="0" x2="38.8471" y2="37.6235" gradientUnits="userSpaceOnUse">
<stop stop-color="#C569CF"/>
<stop offset="1" stop-color="#EE609C"/>
</linearGradient>
</defs>
</svg>
