<svg width="52" height="52" viewBox="0 0 52 52" fill="none" xmlns="http://www.w3.org/2000/svg">
<circle cx="26" cy="26" r="26" fill="url(#paint0_linear)"/>
<path d="M12.1128 17.1205C12.4119 17.1205 12.6544 16.878 12.6544 16.5789C12.6544 16.2797 12.4119 16.0372 12.1128 16.0372C11.8137 16.0372 11.5712 16.2797 11.5712 16.5789C11.5712 16.878 11.8137 17.1205 12.1128 17.1205Z" fill="white"/>
<path d="M19.1599 16.4223C18.1822 16.4223 17.3866 15.6267 17.3866 14.6489C17.3866 13.6712 18.1822 12.8756 19.1599 12.8756C20.1377 12.8756 20.9333 13.6712 20.9333 14.6489C20.9333 15.6267 20.1377 16.4223 19.1599 16.4223ZM19.1599 13.8889C18.7408 13.8889 18.3999 14.2298 18.3999 14.6489C18.3999 15.0681 18.7408 15.4089 19.1599 15.4089C19.5791 15.4089 19.9199 15.0681 19.9199 14.6489C19.9199 14.2298 19.5791 13.8889 19.1599 13.8889Z" fill="white"/>
<path d="M41.7066 35.169H28.5333C28.2532 35.169 28.0266 34.9421 28.0266 34.6623V25.5423C28.0266 25.2625 28.2532 25.0356 28.5333 25.0356H41.7066C41.9867 25.0356 42.2133 25.2625 42.2133 25.5423V34.6623C42.2133 34.9421 41.9867 35.169 41.7066 35.169ZM29.0399 34.1557H41.1999V26.049H29.0399V34.1557Z" fill="white"/>
<path d="M35.12 23.5156H16.88C16.5999 23.5156 16.3733 23.2887 16.3733 23.0089V19.4622C16.3733 19.1824 16.5999 18.9556 16.88 18.9556H35.12C35.4 18.9556 35.6266 19.1824 35.6266 19.4622V20.4756C35.6266 20.7554 35.4 20.9822 35.12 20.9822C34.8399 20.9822 34.6133 20.7554 34.6133 20.4756V19.9689H17.3866V22.5022H35.12C35.4 22.5022 35.6266 22.7291 35.6266 23.0089C35.6266 23.2887 35.4 23.5156 35.12 23.5156Z" fill="white"/>
<path d="M28.5333 35.1689H13.3333C13.0533 35.1689 12.8267 34.9421 12.8267 34.6623V22.5023C12.8267 22.2225 13.0533 21.9956 13.3333 21.9956H36.64C36.9201 21.9956 37.1467 22.2225 37.1467 22.5023V28.5823C37.1467 28.8621 36.9201 29.0889 36.64 29.0889H29.04V34.6623C29.04 34.9421 28.8134 35.1689 28.5333 35.1689ZM13.84 34.1556H28.0267V28.5823C28.0267 28.3025 28.2533 28.0756 28.5333 28.0756H36.1333V23.0089H13.84V34.1556Z" fill="white"/>
<path d="M33.0933 22.5023H34.1066V28.5823H33.0933V22.5023Z" fill="white"/>
<path d="M30.5599 22.5023H31.5733V28.5823H30.5599V22.5023Z" fill="white"/>
<path d="M29.7999 10.84H32.0799V19.2H29.7999V10.84Z" fill="white"/>
<path d="M28.0266 22.5023H29.04V28.5823H28.0266V22.5023Z" fill="white"/>
<path d="M25.4933 22.5023H26.5066V34.6623H25.4933V22.5023Z" fill="white"/>
<path d="M22.96 22.5023H23.9733V34.6623H22.96V22.5023Z" fill="white"/>
<path d="M20.4266 22.5023H21.44V34.6623H20.4266V22.5023Z" fill="white"/>
<path d="M17.8933 22.5023H18.9066V34.6623H17.8933V22.5023Z" fill="white"/>
<path d="M15.36 22.5023H16.3733V34.6623H15.36V22.5023Z" fill="white"/>
<path d="M34.1066 35.169H30.0533C29.7732 35.169 29.5466 34.9422 29.5466 34.6624V30.1024C29.5466 29.8226 29.7732 29.5957 30.0533 29.5957H34.1066C34.3867 29.5957 34.6133 29.8226 34.6133 30.1024V34.6624C34.6133 34.9422 34.3867 35.169 34.1066 35.169ZM30.56 34.1557H33.6V30.609H30.56V34.1557Z" fill="white"/>
<path d="M13.3333 35.169H10.2933C10.0132 35.169 9.78662 34.9422 9.78662 34.6624V26.049C9.78662 25.7692 10.0132 25.5424 10.2933 25.5424H13.3333C13.6133 25.5424 13.84 25.7692 13.84 26.049V34.6624C13.84 34.9422 13.6133 35.169 13.3333 35.169ZM10.8 34.1557H12.8266V26.5557H10.8V34.1557Z" fill="white"/>
<path d="M39.6799 32.6357H36.1333C35.8532 32.6357 35.6266 32.4088 35.6266 32.129V30.1024C35.6266 29.8226 35.8532 29.5957 36.1333 29.5957H39.6799C39.96 29.5957 40.1866 29.8226 40.1866 30.1024V32.129C40.1866 32.4088 39.96 32.6357 39.6799 32.6357ZM36.6399 31.6224H39.1733V30.609H36.6399V31.6224Z" fill="white"/>
<path d="M25.0935 13.3641C24.9639 13.3641 24.8342 13.3146 24.7353 13.2156L23.2153 11.6956C23.0174 11.4978 23.0174 11.1771 23.2153 10.9792C23.4131 10.7813 23.7339 10.7813 23.9317 10.9792L25.4517 12.4992C25.6496 12.6971 25.6496 13.0178 25.4517 13.2156C25.3528 13.3146 25.2231 13.3641 25.0935 13.3641Z" fill="white"/>
<path d="M23.5735 13.3641C23.4439 13.3641 23.3142 13.3146 23.2153 13.2156C23.0174 13.0178 23.0174 12.6971 23.2153 12.4992L24.7353 10.9792C24.9331 10.7813 25.2539 10.7813 25.4517 10.9792C25.6496 11.1771 25.6496 11.4978 25.4517 11.6956L23.9317 13.2156C23.8328 13.3146 23.7031 13.3641 23.5735 13.3641Z" fill="white"/>
<defs>
<linearGradient id="paint0_linear" x1="26" y1="0" x2="38.8471" y2="37.6235" gradientUnits="userSpaceOnUse">
<stop stop-color="#F38C25"/>
<stop offset="1" stop-color="#FB6848"/>
</linearGradient>
</defs>
</svg>
