<svg width="52" height="52" viewBox="0 0 52 52" fill="none" xmlns="http://www.w3.org/2000/svg">
<circle cx="26" cy="26" r="26" fill="url(#paint0_linear)"/>
<path d="M22.8965 12.3273C23.1822 12.3273 23.4138 12.0958 23.4138 11.8101C23.4138 11.5244 23.1822 11.2928 22.8965 11.2928C22.6108 11.2928 22.3793 11.5244 22.3793 11.8101C22.3793 12.0958 22.6108 12.3273 22.8965 12.3273Z" fill="white"/>
<path d="M30.1379 39.7412H22.3792C22.2168 39.7412 22.064 39.6649 21.9663 39.5354C21.8687 39.4058 21.8373 39.2378 21.882 39.0817L22.9165 35.4611C22.9799 35.239 23.183 35.0861 23.4138 35.0861H29.1035C29.3343 35.0861 29.5373 35.2392 29.6011 35.4611L30.6356 39.0817C30.68 39.2378 30.6488 39.4058 30.5513 39.5354C30.4531 39.6649 30.3 39.7412 30.1379 39.7412ZM23.065 38.7067H29.452L28.7135 36.1205H23.804L23.065 38.7067Z" fill="white"/>
<path d="M40.4828 39.7413H11.5172C11.2316 39.7413 11 39.5097 11 39.224C11 38.9384 11.2316 38.7068 11.5172 38.7068H40.4828C40.7687 38.7068 41 38.9384 41 39.224C41 39.5097 40.7687 39.7413 40.4828 39.7413Z" fill="white"/>
<path d="M38.0879 36.1205H13.9132C12.3069 36.1205 11 34.8136 11 33.2073V31.9826C11 31.6969 11.2316 31.4653 11.5172 31.4653H40.4828C40.7687 31.4653 41 31.6969 41 31.9826V33.2084C41 34.8142 39.6937 36.1205 38.0879 36.1205ZM12.0345 32.4998V33.2073C12.0345 34.2432 12.8773 35.086 13.9132 35.086H38.0879C39.1234 35.086 39.9655 34.2437 39.9655 33.2084V32.4998H12.0345Z" fill="white"/>
<path d="M40.4828 32.4998H11.5172C11.2316 32.4998 11 32.2682 11 31.9826V16.7912C11 15.1854 12.3063 13.8792 13.9121 13.8792H38.0879C39.6937 13.8792 41 15.1854 41 16.7912C41 17.0769 40.7687 17.3085 40.4828 17.3085C40.1969 17.3085 39.9655 17.0769 39.9655 16.7912C39.9655 15.756 39.1234 14.9136 38.0879 14.9136H13.9121C12.8768 14.9136 12.0345 15.756 12.0345 16.7912V31.4654H39.9655V18.5482C39.9655 18.2625 40.1969 18.0309 40.4828 18.0309C40.7687 18.0309 41 18.2625 41 18.5482V31.9826C41 32.2682 40.7687 32.4998 40.4828 32.4998Z" fill="white"/>
<path d="M26.2585 34.5688C26.687 34.5688 27.0344 34.2214 27.0344 33.7929C27.0344 33.3645 26.687 33.0171 26.2585 33.0171C25.83 33.0171 25.4827 33.3645 25.4827 33.7929C25.4827 34.2214 25.83 34.5688 26.2585 34.5688Z" fill="white"/>
<path d="M18.7586 12.8447C18.6263 12.8447 18.4939 12.7941 18.3929 12.6931L16.8412 11.1414C16.6392 10.9394 16.6392 10.612 16.8412 10.41C17.0432 10.208 17.3706 10.208 17.5726 10.41L19.1243 11.9618C19.3263 12.1637 19.3263 12.4912 19.1243 12.6931C19.0233 12.7941 18.8909 12.8447 18.7586 12.8447Z" fill="white"/>
<path d="M17.2069 12.8447C17.0746 12.8447 16.9422 12.7941 16.8412 12.6931C16.6392 12.4912 16.6392 12.1637 16.8412 11.9618L18.3929 10.41C18.5949 10.208 18.9223 10.208 19.1243 10.41C19.3263 10.612 19.3263 10.9394 19.1243 11.1414L17.5726 12.6931C17.4716 12.7941 17.3392 12.8447 17.2069 12.8447Z" fill="white"/>
<path d="M19.2758 25.7757C19.1806 25.7757 19.0853 25.7495 19.0018 25.6972L14.8638 23.111C14.7422 23.035 14.6575 22.9118 14.6302 22.7708C14.6026 22.6299 14.6352 22.4841 14.7195 22.368L18.8575 16.6784C18.9893 16.4976 19.2231 16.4225 19.4356 16.4907C19.6488 16.56 19.793 16.7587 19.793 16.9826V25.2585C19.793 25.4466 19.691 25.6197 19.5265 25.7108C19.4483 25.7543 19.3621 25.7757 19.2758 25.7757ZM15.8827 22.5278L18.7585 24.3253V18.5733L15.8827 22.5278Z" fill="white"/>
<path d="M19.2759 25.7756C19.1895 25.7756 19.1034 25.7541 19.0252 25.7107C18.8607 25.6195 18.7587 25.4465 18.7587 25.2583V16.9825C18.7587 16.7585 18.9028 16.5599 19.1161 16.4905C19.3289 16.4215 19.5623 16.4968 19.6942 16.6781L23.8322 22.3677C23.9165 22.4839 23.9488 22.6296 23.9215 22.7705C23.8942 22.9115 23.8097 23.0347 23.6878 23.1108L19.5499 25.697C19.4664 25.7493 19.3711 25.7756 19.2759 25.7756ZM19.7931 18.5731V24.3251L22.669 22.5277L19.7931 18.5731Z" fill="white"/>
<path d="M18.7587 27.8448H16.1725C15.8869 27.8448 15.6553 27.6132 15.6553 27.3275C15.6553 27.0419 15.8869 26.8103 16.1725 26.8103H18.7587C19.0444 26.8103 19.276 27.0419 19.276 27.3275C19.276 27.6132 19.0444 27.8448 18.7587 27.8448Z" fill="white"/>
<path d="M35.3105 27.8448H28.5863C28.3004 27.8448 28.0691 27.6132 28.0691 27.3275C28.0691 27.0419 28.3004 26.8103 28.5863 26.8103H35.3105C35.5964 26.8103 35.8277 27.0419 35.8277 27.3275C35.8277 27.6132 35.5964 27.8448 35.3105 27.8448Z" fill="white"/>
<path d="M34.276 29.3966H32.7243C32.4384 29.3966 32.207 29.165 32.207 28.8793C32.207 28.5937 32.4384 28.3621 32.7243 28.3621H34.276C34.5619 28.3621 34.7932 28.5937 34.7932 28.8793C34.7932 29.165 34.5619 29.3966 34.276 29.3966Z" fill="white"/>
<path d="M22.3794 29.3966H16.1725C15.8869 29.3966 15.6553 29.165 15.6553 28.8793C15.6553 28.5937 15.8869 28.3621 16.1725 28.3621H22.3794C22.6651 28.3621 22.8967 28.5937 22.8967 28.8793C22.8967 29.165 22.6651 29.3966 22.3794 29.3966Z" fill="white"/>
<path d="M32.2069 25.2585C32.1074 25.2585 32.0079 25.2297 31.9221 25.1732C31.7771 25.0775 31.6897 24.9151 31.6897 24.7413V20.6034C31.6897 20.3965 31.8129 20.2093 32.0034 20.128L35.6241 18.5763C35.7828 18.5084 35.967 18.524 36.1125 18.6197C36.2575 18.7154 36.3449 18.8778 36.3449 19.0516V23.1896C36.3449 23.3965 36.2216 23.5836 36.0312 23.6649L32.4105 25.2166C32.3453 25.2447 32.2761 25.2585 32.2069 25.2585ZM32.7242 20.9443V23.9569L35.3104 22.8487V19.8362L32.7242 20.9443Z" fill="white"/>
<path d="M32.2069 25.2584C32.1377 25.2584 32.0685 25.2446 32.0034 25.2165L28.3827 23.6648C28.1922 23.5835 28.069 23.3963 28.069 23.1894V19.0515C28.069 18.8777 28.1564 18.7153 28.3013 18.6196C28.4468 18.5234 28.6307 18.5078 28.7897 18.5762L32.4104 20.1279C32.6009 20.2092 32.7241 20.3963 32.7241 20.6032V24.7412C32.7241 24.915 32.6367 25.0774 32.4918 25.1731C32.4059 25.2296 32.3065 25.2584 32.2069 25.2584ZM29.1035 22.8485L31.6897 23.9566V20.9441L29.1035 19.8359V22.8485Z" fill="white"/>
<path d="M32.2069 21.1205C32.1377 21.1205 32.068 21.1067 32.0034 21.0786L28.3827 19.5269C28.1922 19.4456 28.069 19.2585 28.069 19.0516C28.069 18.8447 28.1922 18.6576 28.3827 18.5762L32.0034 17.0245C32.1327 16.9684 32.2811 16.9684 32.4104 17.0245L36.0311 18.5762C36.2216 18.6576 36.3448 18.8447 36.3448 19.0516C36.3448 19.2585 36.2216 19.4456 36.0311 19.5269L32.4104 21.0786C32.3458 21.1067 32.2761 21.1205 32.2069 21.1205ZM29.8995 19.0516L32.2069 20.0405L34.5143 19.0516L32.2069 18.0626L29.8995 19.0516Z" fill="white"/>
<path d="M31.1724 29.3964H28.5862C28.3003 29.3964 28.069 29.1648 28.069 28.8792C28.069 28.5935 28.3003 28.3619 28.5862 28.3619H31.1724C31.4583 28.3619 31.6896 28.5935 31.6896 28.8792C31.6896 29.1648 31.4583 29.3964 31.1724 29.3964Z" fill="white"/>
<defs>
<linearGradient id="paint0_linear" x1="26" y1="0" x2="40.6824" y2="48.9412" gradientUnits="userSpaceOnUse">
<stop stop-color="#3BCFF0"/>
<stop offset="1" stop-color="#57C2FE"/>
</linearGradient>
</defs>
</svg>
