<svg width="52" height="52" viewBox="0 0 52 52" fill="none" xmlns="http://www.w3.org/2000/svg">
<circle cx="26" cy="26" r="26" fill="url(#paint0_linear)"/>
<path d="M37.1067 13.6733C37.3792 13.6733 37.6001 13.4524 37.6001 13.18C37.6001 12.9075 37.3792 12.6866 37.1067 12.6866C36.8343 12.6866 36.6134 12.9075 36.6134 13.18C36.6134 13.4524 36.8343 13.6733 37.1067 13.6733Z" fill="white"/>
<path d="M24.7733 40.3133C24.6796 40.3133 24.5858 40.2865 24.504 40.2334L13.1573 32.8362C13.0176 32.7452 12.9333 32.5895 12.9333 32.4228V21.0733C12.9333 20.9118 13.0124 20.7606 13.1449 20.6684L24.4915 12.775C24.6611 12.657 24.8856 12.657 25.0552 12.775L36.4018 20.6684C36.5343 20.7606 36.6133 20.912 36.6133 21.0733V32.4199C36.6133 32.5867 36.529 32.742 36.3896 32.8331L25.043 40.2331C24.9609 40.2866 24.8671 40.3133 24.7733 40.3133ZM13.92 32.1555L24.7733 39.231L35.6267 32.1528V21.331L24.7733 13.781L13.92 21.331V32.1555Z" fill="white"/>
<path d="M24.7733 40.3133C24.6007 40.3133 24.4407 40.223 24.3513 40.0753L13.0046 21.3286C12.9124 21.1764 12.9095 20.9861 12.997 20.8309C13.0844 20.6758 13.2487 20.58 13.4267 20.58H36.12C36.298 20.58 36.4623 20.6758 36.5497 20.8309C36.6371 20.9861 36.6343 21.1764 36.542 21.3286L25.1954 40.0753C25.106 40.223 24.946 40.3133 24.7733 40.3133ZM14.3018 21.5666L24.7733 38.8673L35.2448 21.5666H14.3018Z" fill="white"/>
<path d="M24.7734 20.0866C24.5009 20.0866 24.28 19.8657 24.28 19.5933V13.6733C24.28 13.4008 24.5009 13.1799 24.7734 13.1799C25.0458 13.1799 25.2667 13.4008 25.2667 13.6733V19.5933C25.2667 19.8657 25.0458 20.0866 24.7734 20.0866Z" fill="white"/>
<path d="M36.12 21.0732L13.4266 32.4199L36.12 21.0732Z" fill="white"/>
<path d="M13.2003 31.9717L35.8828 20.6304L36.3239 21.5126L13.6414 32.8539L13.2003 31.9717Z" fill="white"/>
<path d="M13.4266 21.0732L36.12 32.4199L13.4266 21.0732Z" fill="white"/>
<path d="M13.2 21.5203L13.641 20.6381L36.3235 31.9793L35.8824 32.8615L13.2 21.5203Z" fill="white"/>
<path d="M27.98 25.5132H21.5667C21.1579 25.5132 20.8267 25.8445 20.8267 26.2532C20.8267 26.6619 21.1579 26.9932 21.5667 26.9932H23.7867V29.285L22.1381 33.0755C21.9555 33.4412 22.1034 33.8855 22.4691 34.0684C22.5755 34.1215 22.6883 34.1468 22.7996 34.1468C23.0708 34.1468 23.3324 33.9967 23.462 33.7375L24.7733 30.6214L26.0847 33.7375C26.2143 33.9968 26.4759 34.1468 26.7471 34.1468C26.8584 34.1468 26.9711 34.1215 27.0777 34.0684C27.4434 33.8857 27.5912 33.4412 27.4087 33.0755L25.76 29.2851V26.9932H27.98C28.3885 26.9932 28.72 26.6619 28.72 26.2532C28.72 25.8445 28.3885 25.5132 27.98 25.5132Z" fill="#DCC0E8"/>
<path d="M26.7472 34.6401C26.2768 34.6401 25.8538 34.3788 25.6435 33.9582L24.7736 31.8929L23.9168 33.9289C23.6017 34.5624 22.8478 34.8076 22.2492 34.5102C21.6405 34.2059 21.3932 33.4638 21.6968 32.8553L23.2934 29.1824V27.4866H21.5667C20.8866 27.4866 20.3334 26.9333 20.3334 26.2532C20.3334 25.5732 20.8866 25.0199 21.5667 25.0199H27.98C28.6601 25.0199 29.2134 25.5732 29.2134 26.2532C29.2134 26.9333 28.6601 27.4866 27.98 27.4866H26.2534V29.1824L27.861 32.8788C28.1537 33.4637 27.9063 34.2059 27.2984 34.5099C27.1242 34.5964 26.9392 34.6401 26.7472 34.6401ZM24.7734 30.1281C24.9718 30.1281 25.151 30.2471 25.2282 30.4302L26.5396 33.5463C26.5957 33.6545 26.7542 33.679 26.8578 33.627C26.9787 33.5665 27.0282 33.4179 26.9675 33.2959L25.3078 29.4817C25.2808 29.4196 25.2668 29.3526 25.2668 29.2849V26.9932C25.2668 26.7208 25.4877 26.4999 25.7602 26.4999H27.9802C28.1163 26.4999 28.2268 26.3894 28.2268 26.2532C28.2268 26.1171 28.1163 26.0066 27.9802 26.0066H21.5668C21.4307 26.0066 21.3202 26.1171 21.3202 26.2532C21.3202 26.3894 21.4307 26.4999 21.5668 26.4999H23.7868C24.0593 26.4999 24.2802 26.7208 24.2802 26.9932V29.285C24.2802 29.3527 24.2662 29.4197 24.2392 29.4819L22.5906 33.2724C22.5188 33.4179 22.5682 33.5665 22.6899 33.6272C22.7915 33.6775 22.9442 33.6694 23.0209 33.5168L24.3188 30.4302C24.3957 30.2471 24.5749 30.1281 24.7734 30.1281Z" fill="white"/>
<path d="M24.7734 25.5132C23.6853 25.5132 22.8 24.6279 22.8 23.5399C22.8 22.4518 23.6853 21.5665 24.7734 21.5665C25.8614 21.5665 26.7467 22.4518 26.7467 23.5399C26.7467 24.6279 25.8614 25.5132 24.7734 25.5132ZM24.7734 22.5532C24.2292 22.5532 23.7867 22.9957 23.7867 23.5399C23.7867 24.084 24.2292 24.5265 24.7734 24.5265C25.3175 24.5265 25.76 24.084 25.76 23.5399C25.76 22.9957 25.3175 22.5532 24.7734 22.5532Z" fill="white"/>
<path d="M33.16 15.1533C33.0339 15.1533 32.9076 15.105 32.8112 15.0087L31.3313 13.5287C31.1386 13.3361 31.1386 13.0238 31.3313 12.8311C31.5239 12.6385 31.8362 12.6385 32.0288 12.8311L33.5088 14.3111C33.7015 14.5038 33.7015 14.8161 33.5088 15.0087C33.4125 15.1052 33.2862 15.1533 33.16 15.1533Z" fill="white"/>
<path d="M31.68 15.1533C31.5539 15.1533 31.4276 15.105 31.3313 15.0087C31.1386 14.8161 31.1386 14.5038 31.3313 14.3111L32.8112 12.8311C33.0039 12.6385 33.3162 12.6385 33.5088 12.8311C33.7015 13.0238 33.7015 13.3361 33.5088 13.5287L32.0288 15.0087C31.9325 15.1052 31.8062 15.1533 31.68 15.1533Z" fill="white"/>
<path d="M38.5867 19.0999C37.7706 19.0999 37.1067 18.436 37.1067 17.6199C37.1067 16.8038 37.7706 16.1399 38.5867 16.1399C39.4028 16.1399 40.0667 16.8038 40.0667 17.6199C40.0667 18.436 39.4028 19.0999 38.5867 19.0999ZM38.5867 17.1266C38.3147 17.1266 38.0934 17.3479 38.0934 17.6199C38.0934 17.8918 38.3147 18.1132 38.5867 18.1132C38.8586 18.1132 39.08 17.8918 39.08 17.6199C39.08 17.3479 38.8586 17.1266 38.5867 17.1266Z" fill="white"/>
<defs>
<linearGradient id="paint0_linear" x1="-4.68" y1="-17.42" x2="59.41" y2="66.95" gradientUnits="userSpaceOnUse">
<stop stop-color="#8338E3"/>
<stop offset="1" stop-color="#E0A9BB"/>
</linearGradient>
</defs>
</svg>
