<svg width="52" height="52" viewBox="0 0 52 52" fill="none" xmlns="http://www.w3.org/2000/svg">
<circle cx="26" cy="26" r="26" fill="url(#paint0_linear)"/>
<path d="M16.5 25.5449C15.6729 25.5449 15 24.872 15 24.0449C15 23.2178 15.6729 22.5449 16.5 22.5449C17.3271 22.5449 18 23.2178 18 24.0449C18 24.872 17.3271 25.5449 16.5 25.5449ZM16.5 23.5449C16.2241 23.5449 16 23.7693 16 24.0449C16 24.3205 16.2241 24.5449 16.5 24.5449C16.7759 24.5449 17 24.3205 17 24.0449C17 23.7693 16.7759 23.5449 16.5 23.5449Z" fill="white"/>
<path d="M36.1661 24.3811C36.4423 24.3811 36.6661 24.1572 36.6661 23.8811C36.6661 23.605 36.4423 23.3811 36.1661 23.3811C35.89 23.3811 35.6661 23.605 35.6661 23.8811C35.6661 24.1572 35.89 24.3811 36.1661 24.3811Z" fill="white"/>
<path d="M34.8329 20.6866C34.7051 20.6866 34.5771 20.6377 34.4794 20.5401L32.9794 19.0401C32.7842 18.8448 32.7842 18.5283 32.9794 18.3331C33.1747 18.1378 33.4912 18.1378 33.6864 18.3331L35.1864 19.8331C35.3817 20.0283 35.3817 20.3448 35.1864 20.5401C35.0888 20.6377 34.9609 20.6866 34.8329 20.6866Z" fill="white"/>
<path d="M33.3329 20.6866C33.2051 20.6866 33.0771 20.6377 32.9794 20.5401C32.7842 20.3448 32.7842 20.0283 32.9794 19.8331L34.4794 18.3331C34.6747 18.1378 34.9912 18.1378 35.1864 18.3331C35.3817 18.5283 35.3817 18.8448 35.1864 19.0401L33.6864 20.5401C33.5888 20.6377 33.4609 20.6866 33.3329 20.6866Z" fill="white"/>
<path d="M14 39.5449H11.5C11.2236 39.5449 11 39.321 11 39.0449V36.5449C11 36.2688 11.2236 36.0449 11.5 36.0449C11.7764 36.0449 12 36.2688 12 36.5449V38.5449H14C14.2764 38.5449 14.5 38.7688 14.5 39.0449C14.5 39.321 14.2764 39.5449 14 39.5449Z" fill="white"/>
<path d="M41.5 39.5449H39C38.7236 39.5449 38.5 39.321 38.5 39.0449C38.5 38.7688 38.7236 38.5449 39 38.5449H41V36.5449C41 36.2688 41.2236 36.0449 41.5 36.0449C41.7764 36.0449 42 36.2688 42 36.5449V39.0449C42 39.321 41.7764 39.5449 41.5 39.5449Z" fill="white"/>
<path d="M28.2832 13.795C28.1554 13.795 28.0274 13.7461 27.9297 13.6485L26.5152 12.2342L25.1012 13.6485C24.906 13.8437 24.5895 13.8437 24.3942 13.6485C24.199 13.4533 24.199 13.1367 24.3942 12.9415L26.1619 11.1736C26.3494 10.9861 26.6814 10.9861 26.8689 11.1736L28.637 12.9415C28.8322 13.1366 28.8322 13.4532 28.637 13.6485C28.539 13.7461 28.4111 13.795 28.2832 13.795Z" fill="white"/>
<path d="M26.5 29.9768C26.3813 29.9768 26.2627 29.9348 26.168 29.8506L21.668 25.8506C21.5468 25.7429 21.4853 25.5829 21.503 25.4221C21.5211 25.2609 21.6157 25.1183 21.7573 25.0397L26.2573 22.5397C26.4077 22.4557 26.5923 22.4557 26.7427 22.5397L31.2427 25.0397C31.3843 25.1183 31.4791 25.2609 31.4971 25.4221C31.5147 25.5829 31.4531 25.7428 31.3321 25.8506L26.8321 29.8506C26.7372 29.9348 26.6186 29.9768 26.5 29.9768ZM22.8588 25.5716L26.5 28.8078L30.1411 25.5714L26.5 23.5488L22.8588 25.5716Z" fill="white"/>
<path d="M26.5 33.9769C26.4165 33.9769 26.3325 33.9559 26.2574 33.9139L21.7574 31.4139C21.5986 31.3258 21.5 31.1585 21.5 30.9769V25.4769C21.5 25.2996 21.5937 25.1358 21.7466 25.046C21.8995 24.9563 22.0889 24.954 22.2427 25.0399L26.7427 27.5399C26.9015 27.628 27.0001 27.7953 27.0001 27.9769V33.4769C27.0001 33.6541 26.9064 33.818 26.7535 33.9078C26.6752 33.9539 26.5879 33.9769 26.5 33.9769ZM22.5 30.6826L26 32.627V28.271L22.5 26.3266V30.6826Z" fill="white"/>
<path d="M26.5 33.9769C26.4121 33.9769 26.3248 33.9539 26.2466 33.9078C26.0938 33.8179 26 33.6542 26 33.4769V27.9769C26 27.7953 26.0986 27.628 26.2574 27.5399L30.7574 25.0399C30.9111 24.9533 31.1006 24.9557 31.2535 25.046C31.4064 25.1359 31.5001 25.2997 31.5001 25.4769V30.9769C31.5001 31.1585 31.4015 31.3258 31.2428 31.4139L26.7428 33.9139C26.6675 33.9559 26.5835 33.9769 26.5 33.9769ZM27 28.271V32.627L30.5 30.6827V26.3267L27 28.271Z" fill="white"/>
<path d="M40.9995 39.0448C40.895 39.0448 40.79 39.0123 40.7001 38.9447L36.3148 35.6558C36.0936 35.4903 36.0487 35.1768 36.2147 34.9558C36.3802 34.7353 36.6942 34.6902 36.9145 34.856L41.2997 38.1448C41.521 38.3103 41.5658 38.6238 41.3998 38.8448C41.3017 38.9757 41.1518 39.0448 40.9995 39.0448Z" fill="white"/>
<path d="M35.3335 34.7955C35.229 34.7955 35.124 34.763 35.0341 34.6954L30.7001 31.4449C30.4788 31.2794 30.434 30.9659 30.6 30.7449C30.766 30.5244 31.079 30.479 31.2997 30.645L35.6337 33.8955C35.855 34.061 35.8998 34.3745 35.7338 34.5955C35.6357 34.7264 35.4858 34.7955 35.3335 34.7955Z" fill="white"/>
<path d="M12.0005 39.045C11.8481 39.045 11.6982 38.9759 11.6001 38.845C11.4341 38.624 11.479 38.3107 11.7002 38.145L21.7002 30.645C21.921 30.4783 22.234 30.5242 22.4 30.7449C22.566 30.9659 22.5211 31.2793 22.2999 31.4449L12.2998 38.9449C12.21 39.0125 12.105 39.045 12.0005 39.045Z" fill="white"/>
<path d="M26.5 23.5449C26.2236 23.5449 26 23.321 26 23.0449V12.0449C26 11.7688 26.2236 11.5449 26.5 11.5449C26.7764 11.5449 27 11.7688 27 12.0449V23.0449C27 23.321 26.7764 23.5449 26.5 23.5449Z" fill="white"/>
<defs>
<linearGradient id="paint0_linear" x1="0" y1="52" x2="52" y2="0" gradientUnits="userSpaceOnUse">
<stop stop-color="#FFB199"/>
<stop offset="1" stop-color="#FF0844"/>
</linearGradient>
</defs>
</svg>
