<svg width="42" height="32" viewBox="0 0 42 32" fill="none" xmlns="http://www.w3.org/2000/svg">
<path d="M41.5997 1.33932C41.5931 1.33275 41.5931 1.31963 41.5866 1.31307C41.58 1.3065 41.5669 1.29994 41.5603 1.29338C41.3044 1.044 40.9566 0.893066 40.5694 0.893066H1.43719C1.05656 0.893066 0.70875 1.044 0.452812 1.29338C0.439687 1.3065 0.426562 1.3065 0.42 1.31963C0.413437 1.32619 0.406875 1.33932 0.400313 1.34588C0.150938 1.60182 0 1.94963 0 2.33682V29.6631C0 30.0831 0.18375 30.4637 0.479063 30.7262L0.485625 30.7328C0.492188 30.7393 0.505312 30.7459 0.511875 30.7524C0.76125 30.969 1.08281 31.1003 1.43719 31.1003H40.5628C40.9172 31.1003 41.2387 30.9624 41.4947 30.7524C41.5012 30.7459 41.5078 30.7459 41.5209 30.7393C41.5209 30.7393 41.5209 30.7328 41.5275 30.7328C41.8162 30.4703 42.0066 30.0962 42.0066 29.6696V2.33682C42 1.94963 41.8425 1.60182 41.5997 1.33932ZM39.8016 2.17275L21.1181 20.5281C21.0525 20.5937 20.9475 20.5937 20.8819 20.5281L2.19844 2.17275H39.8016ZM1.27313 29.0462V3.05213L14.385 15.9343L1.27313 29.0462ZM2.29031 29.8271L15.2972 16.8203L19.9959 21.4337C20.2716 21.7028 20.6391 21.8406 21 21.8406C21.3675 21.8406 21.7284 21.7028 22.0106 21.4337L26.7094 16.8203L39.7163 29.8271H2.29031ZM40.7269 29.0462L27.615 15.9343L40.7269 3.05213V29.0462Z" fill="url(#paint0_linear_57_4837)"/>
<defs>
<linearGradient id="paint0_linear_57_4837" x1="7.82433e-08" y1="15.9967" x2="42.0066" y2="15.9967" gradientUnits="userSpaceOnUse">
<stop stop-color="#2047F4"/>
<stop offset="1" stop-color="#4D6CF5"/>
</linearGradient>
</defs>
</svg>
