<svg width="80" height="80" viewBox="0 0 80 80" fill="none" xmlns="http://www.w3.org/2000/svg">
<path opacity="0.4" d="M6.66797 43.2333V23.3C6.66797 14.1 14.1346 6.66663 23.3346 6.66663H56.668C65.868 6.66663 73.3346 14.1 73.3346 23.3V46.5666C73.3346 55.7333 65.868 63.1666 56.668 63.1666H51.668C50.6346 63.1666 49.6346 63.6666 49.0013 64.5L44.0013 71.1333C41.8013 74.0666 38.2013 74.0666 36.0013 71.1333L31.0013 64.5C30.468 63.7666 29.268 63.1666 28.3346 63.1666H23.3346C14.1346 63.1666 6.66797 55.7333 6.66797 46.5666V43.2333Z" fill="#FFCC00"/>
<path d="M56.6654 29.1666H23.332C21.9654 29.1666 20.832 28.0333 20.832 26.6666C20.832 25.3 21.9654 24.1666 23.332 24.1666H56.6654C58.032 24.1666 59.1654 25.3 59.1654 26.6666C59.1654 28.0333 58.032 29.1666 56.6654 29.1666Z" fill="#FFCC00"/>
<path d="M43.332 45.8334H23.332C21.9654 45.8334 20.832 44.7 20.832 43.3334C20.832 41.9667 21.9654 40.8334 23.332 40.8334H43.332C44.6987 40.8334 45.832 41.9667 45.832 43.3334C45.832 44.7 44.6987 45.8334 43.332 45.8334Z" fill="#FFCC00"/>
</svg>
