<svg width="16" height="16" viewBox="0 0 16 16" fill="none" xmlns="http://www.w3.org/2000/svg">
<g clip-path="url(#clip0_6382_32959)">
<path d="M3.52576 13.4287C3.41853 13.2314 3.28314 13.0479 3.11984 12.8846C2.94861 12.7136 2.75456 12.5741 2.5465 12.464C2.29786 12.3324 2.4944 12.0505 2.4944 12.0505C2.74888 11.6633 2.98092 11.2743 3.17277 10.9354L1.88478 9.6485H0.634387C0.393912 9.6485 0.198975 9.4534 0.198975 9.21287C0.198975 8.97245 0.393912 8.77734 0.634387 8.77734H2.06483C2.1806 8.77734 2.29125 8.82321 2.37289 8.9048L7.07979 13.6069C7.16155 13.6886 7.20742 13.7995 7.20742 13.915V15.3524C7.20742 15.593 7.01242 15.7877 6.77189 15.7877C6.53114 15.7877 6.33615 15.5931 6.33615 15.3524V14.0955L5.05329 12.8143C4.70702 13.0187 4.30452 13.2692 3.90571 13.5448C3.90566 13.5447 3.6772 13.7073 3.52576 13.4287Z" fill="#80918F"/>
<path d="M1.46709 13.0723C1.07534 13.0723 0.707185 13.2246 0.429994 13.5014C0.153299 13.7779 0.000976562 14.1456 0.000976562 14.5366C0.000976562 14.9279 0.153354 15.2953 0.429994 15.5717C0.70713 15.8483 1.07534 16.0008 1.46709 16.0009C1.85862 16.0009 2.22683 15.8482 2.50374 15.5717C2.78066 15.2953 2.9332 14.9277 2.9332 14.5366C2.9332 14.1456 2.7806 13.7778 2.50374 13.5014C2.22688 13.2246 1.85862 13.0723 1.46709 13.0723Z" fill="#80918F"/>
<path d="M5.56737 10.0511C5.37431 10.244 5.05841 10.244 4.86535 10.0511L4.37966 9.56596C4.1866 9.37311 4.1866 9.0575 4.37966 8.86465L12.6706 0.582391C12.8637 0.389548 13.244 0.211535 13.5158 0.186837L15.5479 0.00204325C15.8197 -0.0226547 16.0218 0.17945 15.9971 0.451238L15.8127 2.47951C15.788 2.75129 15.6098 3.13141 15.4167 3.32431L7.12527 11.6076C6.93221 11.8004 6.61632 11.8004 6.42325 11.6076L5.9369 11.1217C5.74384 10.9289 5.74384 10.6132 5.9369 10.4204L12.8788 3.4849C12.981 3.38302 12.9811 3.21741 12.879 3.11542C12.7771 3.01327 12.6114 3.01327 12.5091 3.11531L5.56737 10.0511Z" fill="#80918F"/>
</g>
<defs>
<clipPath id="clip0_6382_32959">
<rect width="16" height="16" fill="white"/>
</clipPath>
</defs>
</svg>
