<svg width="48" height="48" viewBox="0 0 48 48" fill="none" xmlns="http://www.w3.org/2000/svg">
<g clip-path="url(#clip0_387_26411)">
<path fill-rule="evenodd" clip-rule="evenodd" d="M26.8004 42.4004H9.2004C8.75854 42.4004 8.40039 42.7585 8.40039 43.2004C8.40039 43.6422 8.75854 44.0004 9.2004 44.0004H26.8004C27.2422 44.0004 27.6004 43.6423 27.6004 43.2004C27.6004 42.7585 27.2422 42.4004 26.8004 42.4004Z" fill="#0D4EE3"/>
<path d="M3.60036 27.2V42.4C3.60431 45.4911 6.10923 47.996 9.20038 48H26.8004C28.2878 48.0017 29.7138 47.4073 30.7596 46.3496C30.798 46.4024 30.826 46.46 30.8668 46.5096C30.8864 46.5387 30.9075 46.5667 30.9299 46.5936C31.695 47.4845 32.8101 47.9979 33.9844 48H42.7923C45.4444 47.9995 47.5955 45.852 47.6003 43.2V33.2C47.6003 32.4574 47.3053 31.7452 46.7802 31.2201C46.2551 30.695 45.5429 30.4 44.8003 30.4C44.38 30.4024 43.9658 30.5006 43.5891 30.6873C43.5287 29.1894 42.2994 28.0048 40.8003 28.0001C40.38 28.0024 39.9657 28.1007 39.589 28.2873C39.5598 27.3465 39.0554 26.4848 38.2495 25.9986C37.4436 25.5124 36.4461 25.4681 35.6003 25.8809V11.2C35.6003 9.43273 34.1676 8.00005 32.4003 8.00005V5.60001C32.3964 2.50887 29.8915 0.00394873 26.8004 0H9.20038C6.10923 0.00394873 3.60431 2.50887 3.60036 5.60001V7.99997C1.83307 7.99997 0.400391 9.43265 0.400391 11.1999V23.9999C0.400391 25.7673 1.83307 27.2 3.60036 27.2ZM26.8004 46.4H9.20038C6.99233 46.3973 5.203 44.608 5.20039 42.4V27.2H29.9683V34.692L26.8804 33.1543C25.8459 32.6132 24.6037 32.6525 23.6055 33.258C22.6073 33.8635 21.9985 34.9469 22.0004 36.1144C21.9963 37.1648 22.4928 38.1544 23.3372 38.7792C25.1099 40.0819 26.7981 41.496 28.3915 43.0127C28.9645 43.5938 29.4674 44.2402 29.8899 44.9384C29.1332 45.8665 27.9979 46.4035 26.8004 46.4ZM36.8004 27.2C37.4631 27.2 38.0004 27.7372 38.0004 28.4V35.2C38.0004 35.6419 38.3585 36 38.8004 36C39.2423 36 39.6004 35.6419 39.6004 35.2V30.8C39.6004 30.1373 40.1377 29.6 40.8004 29.6C41.4632 29.6 42.0004 30.1373 42.0004 30.8V35.2C42.0004 35.6419 42.3586 36 42.8005 36C43.2423 36 43.6005 35.6419 43.6005 35.2V33.2C43.6005 32.5372 44.1377 32 44.8005 32C45.4632 32 46.0005 32.5372 46.0005 33.2V43.2C45.9966 44.9688 44.5613 46.4004 42.7925 46.4H33.9844C33.3009 46.4025 32.6488 46.1135 32.1916 45.6056C32.178 45.5848 32.1619 45.5656 32.1468 45.5463C32.0412 45.4226 31.9482 45.2886 31.8692 45.1463C31.2471 43.9471 30.454 42.8446 29.5148 41.8735C27.8694 40.3059 26.1258 38.8445 24.2948 37.4983C23.8555 37.1734 23.5975 36.6584 23.6004 36.1119C23.6039 35.752 23.7154 35.4014 23.9204 35.1056C24.44 34.3991 25.3982 34.1791 26.174 34.588L30.414 36.7008C30.6626 36.8247 30.9577 36.8107 31.1936 36.664C31.4294 36.5172 31.5722 36.2586 31.5708 35.9808V22C31.5692 21.6799 31.6984 21.373 31.9284 21.1504C32.2763 20.8097 32.7935 20.7087 33.244 20.8935C33.6944 21.0782 33.9919 21.5132 34.0005 22V35.1999C34.0005 35.6418 34.3586 36 34.8005 36C35.2423 36 35.6005 35.6418 35.6005 35.1999V28.3999C35.6003 27.7372 36.1376 27.2 36.8004 27.2ZM25.6187 1.60003L25.0587 2.9944C24.8182 3.60274 24.2296 4.00172 23.5755 3.99999H12.4251C11.7703 4.00236 11.1811 3.6033 10.9403 2.9944L10.3818 1.60003H25.6187ZM5.20039 5.60001C5.20663 3.59816 6.69435 1.91032 8.67962 1.65278L9.45404 3.58798C9.93642 4.80584 11.1153 5.6042 12.4252 5.60001H23.5757C24.8856 5.6042 26.0645 4.80592 26.5468 3.58798L27.3213 1.65278C29.3065 1.91024 30.7943 3.59808 30.8005 5.60001V7.99997H5.20039V5.60001ZM2.00042 11.2C2.00042 10.3164 2.7168 9.6 3.60044 9.6H32.4004C33.2841 9.6 34.0005 10.3164 34.0005 11.2V19.4857C32.9308 18.9599 31.6454 19.1713 30.8005 20.012C30.2647 20.5342 29.9644 21.2518 29.9685 22V25.6H3.60036C2.71672 25.6 2.00034 24.8836 2.00034 24L2.00042 11.2Z" fill="#0D4EE3"/>
<path d="M6.80001 23.2001H9.99999C11.3344 23.206 12.5311 22.3797 12.9986 21.1299C13.466 19.88 13.1051 18.4713 12.0943 17.6C13.1051 16.7289 13.466 15.3201 12.9986 14.0702C12.5311 12.8203 11.3343 11.9941 9.99999 12H6.80001C6.35815 12 6 12.3582 6 12.8V22.4C6 22.8419 6.35815 23.2001 6.80001 23.2001ZM11.5999 20.0001C11.5999 20.8837 10.8836 21.6001 9.99991 21.6001H7.59995V18.4001H9.99991C10.8836 18.4001 11.5999 19.1164 11.5999 20.0001ZM7.59995 13.6001H9.99991C10.8836 13.6001 11.5999 14.3164 11.5999 15.2001C11.5999 16.0837 10.8836 16.8001 9.99991 16.8001H7.59995V13.6001Z" fill="#0D4EE3"/>
<path fill-rule="evenodd" clip-rule="evenodd" d="M15.6008 23.2H20.4008C20.8427 23.2 21.2008 22.8419 21.2008 22.4C21.2008 21.9581 20.8427 21.6 20.4008 21.6H16.4008V18.4H20.4008C20.8427 18.4 21.2008 18.0419 21.2008 17.6C21.2008 17.1581 20.8427 16.8 20.4008 16.8H16.4008V13.6H20.4008C20.8427 13.6 21.2008 13.2419 21.2008 12.8C21.2008 12.3581 20.8427 12 20.4008 12H15.6008C15.1589 12 14.8008 12.3581 14.8008 12.8V22.4C14.8008 22.8419 15.1589 23.2 15.6008 23.2Z" fill="#0D4EE3"/>
<path fill-rule="evenodd" clip-rule="evenodd" d="M23.6008 13.6H26.0008V22.4C26.0008 22.8419 26.3589 23.2 26.8008 23.2C27.2426 23.2 27.6008 22.8419 27.6008 22.4V13.6H30.0007C30.4426 13.6 30.8008 13.2419 30.8008 12.8C30.8008 12.3581 30.4426 12 30.0007 12H23.6008C23.1589 12 22.8008 12.3581 22.8008 12.8C22.8008 13.2419 23.1589 13.6 23.6008 13.6Z" fill="#0D4EE3"/>
</g>
<defs>
<clipPath id="clip0_387_26411">
<rect width="48" height="48" fill="white"/>
</clipPath>
</defs>
</svg>
