<svg width="48" height="48" viewBox="0 0 48 48" fill="none" xmlns="http://www.w3.org/2000/svg">
<path d="M13.6009 48H34.4008C37.0506 47.9974 39.1982 45.8499 39.2008 43.2V4.79998C39.1982 2.15014 37.0506 0.00263355 34.4008 0H13.6009C10.9509 0.00263355 8.80351 2.15014 8.80078 4.79998V43.1999C8.80351 45.8499 10.9509 47.9974 13.6009 48ZM32.188 1.60003L30.9808 3.61206C30.8362 3.85278 30.576 3.99997 30.2952 4.00006H17.7065C17.4256 3.99987 17.1653 3.85229 17.0209 3.61128L15.8136 1.60012H32.188V1.60003ZM10.4008 4.79998C10.4008 3.03268 11.8335 1.60003 13.6008 1.60003H13.948L15.6488 4.43441C16.0838 5.1558 16.8639 5.59775 17.7064 5.59999H30.2952C31.1377 5.59775 31.9178 5.1558 32.3528 4.43441L34.0536 1.60003H34.4008C36.1681 1.60003 37.6008 3.03268 37.6008 4.79998V43.1999C37.6008 44.9672 36.1681 46.3999 34.4008 46.3999H13.6009C11.8336 46.3999 10.4009 44.9672 10.4009 43.1999L10.4008 4.79998Z" fill="#F3C934"/>
<path d="M15.2004 44.0004H32.8004C33.2422 44.0004 33.6004 43.6423 33.6004 43.2004C33.6004 42.7586 33.2422 42.4004 32.8004 42.4004H15.2004C14.7586 42.4004 14.4004 42.7586 14.4004 43.2004C14.4004 43.6423 14.7587 44.0004 15.2004 44.0004Z" fill="#F3C934"/>
<path d="M21.6 33.6C21.6 33.1581 21.2419 32.7999 20.8 32.7999C20.3582 32.7999 20 33.1581 20 33.6C20 35.1456 21.3768 36.4376 23.2 36.7352V37.5999C23.2 38.0418 23.5581 38.3999 24 38.3999C24.4418 38.3999 24.8 38.0418 24.8 37.5999V36.7352C26.6232 36.4376 27.9999 35.1456 27.9999 33.6C27.9999 32.0544 26.6232 30.7624 24.8 30.4648V27.3016C25.72 27.528 26.4 28.1192 26.4 28.8C26.4 29.2418 26.7582 29.6 27.2 29.6C27.6419 29.6 28 29.2418 28 28.8C28 27.2544 26.6233 25.9624 24.8001 25.6648V24.8C24.8001 24.3582 24.4419 24 24.0001 24C23.5582 24 23.2001 24.3582 23.2001 24.8V25.6648C21.3769 25.9624 20.0001 27.2544 20.0001 28.8C20.0001 30.3456 21.3769 31.6376 23.2001 31.9352V35.0984C22.2801 34.872 21.6 34.2808 21.6 33.6ZM26.4 33.6C26.4 34.2808 25.72 34.872 24.8 35.0984V32.1016C25.7201 32.328 26.4 32.9191 26.4 33.6ZM21.6 28.8C21.6 28.1192 22.2801 27.528 23.2001 27.3016V30.2984C22.2801 30.072 21.6 29.4808 21.6 28.8Z" fill="#F3C934"/>
<path d="M24.0004 40.7995C29.3023 40.7995 33.6003 36.5015 33.6003 31.1996C33.6003 25.8977 29.3023 21.5996 24.0004 21.5996C18.6984 21.5996 14.4004 25.8977 14.4004 31.1996C14.406 36.499 18.7008 40.7938 24.0004 40.7995ZM24.0004 23.1995C28.4187 23.1995 32.0004 26.7813 32.0004 31.1996C32.0004 35.6179 28.4187 39.1996 24.0004 39.1996C19.582 39.1996 16.0003 35.6179 16.0003 31.1996C16.0052 26.7833 19.5841 23.2044 24.0004 23.1995Z" fill="#F3C934"/>
<path d="M20.8944 16.0948L21.6015 15.39V19.31C21.6015 19.7519 21.9597 20.11 22.4016 20.11C22.8434 20.11 23.2016 19.7519 23.2016 19.31V13.4636C23.2015 13.1403 23.0068 12.8488 22.7082 12.7249C22.4095 12.6009 22.0657 12.669 21.8368 12.8972L19.7616 14.966C19.6115 15.1145 19.4084 15.1972 19.1973 15.1958C18.9861 15.1944 18.7842 15.1092 18.636 14.9588C18.4845 14.8119 18.3989 14.6098 18.3989 14.3988C18.3989 14.1878 18.4845 13.9857 18.636 13.8389L23.4359 9.03487C23.7481 8.73104 24.246 8.73289 24.556 9.03887L29.356 13.8389C29.5072 13.9858 29.5927 14.1878 29.5927 14.3988C29.5927 14.6098 29.5073 14.8118 29.356 14.9588C29.043 15.2658 28.5418 15.2658 28.2288 14.9588L26.1576 12.8948C25.9276 12.6724 25.5872 12.6085 25.2921 12.7323C24.9971 12.8561 24.8041 13.1437 24.8016 13.4636V19.3117C24.8016 19.7535 25.1598 20.1117 25.6016 20.1117C26.0435 20.1117 26.4016 19.7535 26.4016 19.3117V15.3917L27.108 16.0957C28.0539 17.0021 29.5461 17.0021 30.492 16.0957C30.9465 15.6486 31.2026 15.0377 31.2026 14.4001C31.2026 13.7625 30.9465 13.1516 30.492 12.7045L25.696 7.9045C24.7505 6.99017 23.2503 6.99017 22.3048 7.9045L17.5048 12.7045C17.0507 13.1507 16.7943 13.7603 16.793 14.397C16.7916 15.0336 17.0454 15.6443 17.4976 16.0925C18.4435 17.0102 19.9472 17.0113 20.8944 16.0948Z" fill="#F3C934"/>
</svg>
