<svg width="80" height="80" viewBox="0 0 80 80" fill="none" xmlns="http://www.w3.org/2000/svg">
<path d="M0 10C0 4.47716 4.47715 0 10 0H70C75.5229 0 80 4.47715 80 10V69.7222C80 75.2451 75.5229 79.7222 70 79.7222H10C4.47715 79.7222 0 75.2451 0 69.7222V10Z" fill="url(#paint0_linear_603_7350)"/>
<path d="M35.2245 18.0792C34.4629 18.2745 33.76 18.831 33.3499 19.5829C33.1939 19.866 33.1745 20.2664 33.1449 23.381C33.1255 25.3045 33.1255 26.8766 33.1449 26.8766C33.1643 26.8766 33.3892 26.8082 33.6524 26.7302C33.9161 26.6521 34.2579 26.5838 34.414 26.5838H34.6874V23.5569C34.6874 21.0575 34.7164 20.4715 34.8338 20.2373C35.1561 19.6125 34.6777 19.6518 42.8696 19.6518H50.329L50.6611 19.9838L50.9932 20.3159V32.4421V44.5688L50.6611 44.9008L50.329 45.2329H42.8992C36.1523 45.2329 35.4397 45.2135 35.2148 45.0768C34.6874 44.7254 34.6874 44.7254 34.6874 39.951V35.5377L35.732 33.1847C36.9037 30.5191 37.0307 29.9819 36.6594 29.2597C35.9269 27.834 34.1013 27.5708 32.949 28.7225C32.6756 28.9959 29.6391 33.6729 29.278 34.3758C29.0729 34.7762 27.5008 43.1242 27.4228 44.2566C27.3835 44.7157 27.4034 45.389 27.4519 45.77L27.5396 46.4535L25.5967 48.4061L23.6543 50.3587L27.9798 54.6842L32.2956 59L34.7073 56.5883L37.1286 54.167L38.1733 54.1476C39.2863 54.1379 40.7609 53.8742 41.8933 53.513C42.5962 53.2789 45.6526 51.7553 51.6767 48.631C55.6895 46.5514 56.0409 46.3168 56.2756 45.5359C56.6076 44.4326 55.6217 43.0166 54.5087 42.9875C54.3526 42.9778 54.499 42.8998 54.8795 42.7824C56.1975 42.3626 56.6954 41.191 56.0705 39.9607C55.7675 39.3649 55.0743 38.8961 54.4888 38.8767C54.3618 38.8767 54.5377 38.789 54.8795 38.6814C56.2072 38.2616 56.7051 37.0996 56.0705 35.8596C55.8262 35.3812 55.2993 34.9807 54.7229 34.8343L54.2735 34.717L54.6545 34.6487C55.2207 34.5416 55.8262 34.1605 56.0899 33.7407C56.5878 32.9205 56.2853 31.6514 55.4258 31.046C54.7815 30.5971 54.3908 30.5971 52.8284 31.0363C52.6724 31.0852 52.6622 30.7236 52.6331 25.6371L52.604 20.1889L52.3694 19.6716C52.0669 18.9978 51.3344 18.3342 50.6708 18.1388C50.251 18.0118 49.1181 17.9925 42.8497 18.0021C38.8175 18.0108 35.3908 18.0404 35.2245 18.0792Z" fill="white"/>
<path d="M42.4588 23.1752C41.6778 23.3899 41.3065 24.4544 41.8048 25.0594C41.8732 25.1374 41.7952 25.167 41.5217 25.167C41.053 25.167 40.6628 25.4404 40.4184 25.9286C40.0864 26.583 40.5159 27.4027 41.258 27.5297C41.7462 27.6078 42.0976 27.5007 42.4006 27.1686L42.674 26.8758L42.547 27.5399C42.469 27.9011 42.3909 28.2724 42.3516 28.3602C42.293 28.5162 42.342 28.5361 42.7714 28.5361H43.2596L43.1326 28.0189C43.0642 27.7455 42.9765 27.3548 42.9469 27.1696L42.8882 26.8279L43.103 27.0916C43.5228 27.5797 44.0992 27.697 44.6455 27.414C45.2509 27.1013 45.4264 26.1546 44.9872 25.6174C44.7041 25.2854 44.167 25.0706 43.8548 25.1681C43.6595 25.2364 43.6595 25.2267 43.8059 24.9339C43.8936 24.7778 43.962 24.4652 43.962 24.2504C43.9625 23.5266 43.1912 22.9798 42.4588 23.1752Z" fill="white"/>
<path d="M38.3498 30.802C37.7637 31.5636 37.2658 32.2175 37.2465 32.2568C37.2174 32.3251 38.9649 34.6491 39.375 35.1076C39.4143 35.1566 39.9606 34.5414 40.5758 33.7503L41.7082 32.3052L41.2103 31.6707C40.3314 30.548 39.4429 29.4151 39.4332 29.4151C39.4235 29.4253 38.945 30.0405 38.3498 30.802Z" fill="white"/>
<path d="M44.7732 30.0002C44.3243 30.293 44.0213 30.9765 44.0897 31.533C44.1387 32.0212 44.3044 32.2655 45.4271 33.5835C45.8276 34.062 46.2474 34.5695 46.3647 34.7159L46.56 34.999L46.9895 34.4328C47.2237 34.1207 47.722 33.5249 48.0831 33.1051C49.0594 31.9921 49.2354 31.455 48.8544 30.6251C48.5029 29.8635 47.6338 29.5901 46.8824 30.0196C46.5111 30.2247 46.5014 30.2247 46.3065 30.0487C45.9938 29.7661 45.1634 29.7467 44.7732 30.0002Z" fill="white"/>
<path d="M42.3537 36.2208C42.139 36.5233 41.7095 36.992 41.3968 37.2654C40.7327 37.8413 40.518 38.1933 40.5277 38.7008C40.5373 39.3843 41.0551 39.8628 41.787 39.8628C41.9921 39.8628 42.2655 39.7944 42.3828 39.7067C42.6465 39.521 42.6562 39.5991 42.4512 40.3509C42.3731 40.6437 42.3048 40.8978 42.3048 40.9074C42.3048 40.9268 42.5292 40.9365 42.7929 40.9365C43.0663 40.9365 43.2811 40.9268 43.2811 40.9074C43.2811 40.8978 43.2127 40.6733 43.1347 40.4096C43.0566 40.1459 42.9883 39.8434 42.9883 39.7455C42.9883 39.57 43.0076 39.57 43.203 39.7062C43.3203 39.7939 43.5937 39.8623 43.7988 39.8623C44.5603 39.8623 45.0388 39.3741 45.0388 38.5932C45.0388 38.2122 44.9801 38.1244 44.1798 37.2945C43.711 36.7967 43.1938 36.23 43.0372 36.0351L42.7444 35.674L42.3537 36.2208Z" fill="white"/>
<defs>
<linearGradient id="paint0_linear_603_7350" x1="0" y1="39.8611" x2="80" y2="39.8611" gradientUnits="userSpaceOnUse">
<stop stop-color="#DE4624"/>
<stop offset="1" stop-color="#D11C3A"/>
</linearGradient>
</defs>
</svg>
