<svg width="39" height="36" viewBox="0 0 39 36" fill="none" xmlns="http://www.w3.org/2000/svg">
<path d="M27.4054 9.68931V23.0677C27.4054 28.419 26.0676 29.7569 20.7162 29.7569H12.6892C7.33784 29.7569 6 28.419 6 23.0677V9.68931C6 4.33796 7.33784 3.00012 12.6892 3.00012H20.7162C26.0676 3.00012 27.4054 4.33796 27.4054 9.68931Z" stroke="#000066" stroke-width="2.66129" stroke-linecap="round" stroke-linejoin="round"/>
<path d="M32.3133 14.1486H25.1782L20.7188 23.5134V32.8783L31.4215 33.3242L32.3133 14.1486Z" fill="white"/>
<path d="M34.0946 21.4185V25.8779C34.0946 28.6606 31.4992 30.6495 28.2973 30.6495C25.0954 30.6495 22.5 28.6606 22.5 25.8779V21.4185C22.5 18.6358 25.0954 16.3793 28.2973 16.3793C29.9027 16.3793 31.3476 16.9412 32.4 17.8509C33.4435 18.7695 34.0946 20.0271 34.0946 21.4185Z" fill="white" stroke="#CB0101" stroke-width="1.33784" stroke-linecap="round" stroke-linejoin="round"/>
<path d="M34.0946 25.8773V29.1773C34.0946 31.96 31.4992 34.2165 28.2973 34.2165C25.0954 34.2165 22.5 31.96 22.5 29.1773V25.8773C22.5 28.66 25.0954 30.6489 28.2973 30.6489C31.4992 30.6489 34.0946 28.66 34.0946 25.8773Z" fill="white" stroke="#CB0101" stroke-width="1.5" stroke-linecap="round" stroke-linejoin="round"/>
<path d="M34.0946 21.4185C34.0946 22.2301 33.8716 22.9793 33.4792 23.6214C32.5249 25.1912 30.5627 26.1901 28.2973 26.1901C26.0319 26.1901 24.0697 25.1912 23.1154 23.6214C22.723 22.9793 22.5 22.2301 22.5 21.4185C22.5 20.0271 23.1511 18.7695 24.1946 17.8598C25.247 16.9412 26.6919 16.3793 28.2973 16.3793C29.9027 16.3793 31.3476 16.9412 32.4 17.8509C33.4435 18.7695 34.0946 20.0271 34.0946 21.4185Z" fill="white" stroke="#CB0101" stroke-width="1.5" stroke-linecap="round" stroke-linejoin="round"/>
<path fill-rule="evenodd" clip-rule="evenodd" d="M28.2092 22.0353C28.2092 22.0353 27.7348 22.6582 26.7902 22.6622C25.9457 22.6676 25.3573 22.032 25.3509 21.2915C25.342 20.4328 26.128 19.4128 28.18 18.5172C30.2489 19.3894 31.0502 20.4021 31.0564 21.2612C31.0628 22.0017 30.4874 22.6417 29.6429 22.6471C28.6935 22.6541 28.2092 22.0353 28.2092 22.0353Z" fill="#000066"/>
<path fill-rule="evenodd" clip-rule="evenodd" d="M28.1666 23.4508L27.175 23.449L27.1776 23.0356C27.4766 23.0354 27.4856 23.059 27.7241 22.8933C27.9073 22.7666 28.0787 22.3453 28.1668 22.1821L28.2379 22.1815C28.3263 22.3446 28.4944 22.7681 28.6758 22.8949C28.9129 23.0604 28.9214 23.0384 29.2204 23.0382L29.2178 23.4516L28.2262 23.4499L28.1666 23.4508Z" fill="#000066"/>
<path d="M19.3787 7.68274H14.0273" stroke="#000066" stroke-width="2" stroke-linecap="round" stroke-linejoin="round"/>
<path d="M16.7026 25.8769C17.8478 25.8769 18.7762 24.9485 18.7762 23.8033C18.7762 22.658 17.8478 21.7296 16.7026 21.7296C15.5573 21.7296 14.6289 22.658 14.6289 23.8033C14.6289 24.9485 15.5573 25.8769 16.7026 25.8769Z" stroke="#000066" stroke-width="2" stroke-linecap="round" stroke-linejoin="round"/>
</svg>
