<svg width="24" height="24" viewBox="0 0 24 24" fill="none" xmlns="http://www.w3.org/2000/svg">
<path fill-rule="evenodd" clip-rule="evenodd" d="M2.80195 6.48947V17.3539H11.918C11.9278 17.3265 11.9395 17.2992 11.9512 17.2719L11.9688 17.229L12.6127 15.668H6.29268C6.29268 14.6534 5.56098 13.9373 4.67902 13.9451V9.6524C5.09929 9.64216 5.49864 9.46695 5.79074 9.16462C6.08284 8.86229 6.24423 8.45715 6.24 8.03679H18.1229C18.1229 9.05337 18.8566 9.76752 19.7424 9.76167V11.0826C19.8459 11.0104 19.9376 10.9343 20.0429 10.8583C20.7419 10.3294 21.2869 9.62346 21.6215 8.81337L21.6059 6.48752L2.80195 6.48947ZM13.6937 17.9295L16.1249 12.0524L17.0654 14.1012C20.039 13.5158 22.8 11.5861 23.5415 8.95776C25.1024 13.1041 22.2029 16.7061 18.9385 18.1909L19.9024 20.2924L13.6937 17.9295ZM14.3746 10.7314C14.1478 10.3013 13.7992 9.94745 13.3725 9.71411C12.9459 9.48077 12.4599 9.37825 11.9753 9.41933C11.4908 9.46041 11.029 9.64328 10.6477 9.94512C10.2664 10.247 9.98239 10.6544 9.83116 11.1166C9.67994 11.5788 9.66817 12.0753 9.79733 12.5442C9.92648 13.013 10.1908 13.4335 10.5574 13.753C10.924 14.0726 11.3766 14.2771 11.8587 14.3411C12.3408 14.4051 12.831 14.3257 13.2683 14.1129L14.3844 11.4163C14.4286 11.3093 14.4828 11.2067 14.5463 11.11C14.5044 10.9752 14.4502 10.8446 14.3844 10.7197L14.3746 10.7314ZM0 3.70703V13.828H1.29366V6.4563C1.29049 6.29018 1.32203 6.12522 1.38625 5.97199C1.45047 5.81875 1.54596 5.6806 1.66661 5.56637C1.78727 5.45214 1.93044 5.36435 2.08696 5.3086C2.24348 5.25286 2.40991 5.23039 2.57561 5.24264H17.8166L17.8049 3.70703H0Z" fill="black"/>
</svg>
