<svg width="60" height="61" viewBox="0 0 60 61" fill="none" xmlns="http://www.w3.org/2000/svg">
<path opacity="0.4" d="M42.5 19.875C42.025 19.875 41.55 19.7 41.175 19.325C40.45 18.6 40.45 17.4 41.175 16.675L46.3 11.55C41.9 7.8 36.225 5.5 30 5.5C16.2 5.5 5 16.7 5 30.5C5 44.3 16.2 55.5 30 55.5C43.8 55.5 55 44.3 55 30.5C55 24.275 52.7 18.6 48.95 14.2L43.825 19.325C43.45 19.7 42.975 19.875 42.5 19.875Z" fill="#000066"/>
<path d="M34.375 30.05L31.875 29.175V23.625H32.075C33.35 23.625 34.375 24.75 34.375 26.125C34.375 27.15 35.225 28 36.25 28C37.275 28 38.125 27.15 38.125 26.125C38.125 22.675 35.425 19.875 32.075 19.875H31.875V19.25C31.875 18.225 31.025 17.375 30 17.375C28.975 17.375 28.125 18.225 28.125 19.25V19.875H27.375C24.35 19.875 21.875 22.425 21.875 25.575C21.875 29.225 24 30.4 25.625 30.975L28.125 31.85V37.4H27.925C26.65 37.4 25.625 36.275 25.625 34.9C25.625 33.875 24.775 33.025 23.75 33.025C22.725 33.025 21.875 33.875 21.875 34.9C21.875 38.35 24.575 41.15 27.925 41.15H28.125V41.775C28.125 42.8 28.975 43.65 30 43.65C31.025 43.65 31.875 42.8 31.875 41.775V41.15H32.625C35.65 41.15 38.125 38.6 38.125 35.45C38.125 31.775 36 30.6 34.375 30.05ZM26.85 27.4C26 27.1 25.625 26.925 25.625 25.55C25.625 24.475 26.425 23.6 27.375 23.6H28.125V27.825L26.85 27.4ZM32.625 37.375H31.875V33.15L33.15 33.6C34 33.9 34.375 34.075 34.375 35.45C34.375 36.5 33.575 37.375 32.625 37.375Z" fill="#000066"/>
<path d="M56.7246 4.77498C56.5246 4.32498 56.1746 3.94999 55.6996 3.74999C55.4746 3.64999 55.2246 3.59998 54.9746 3.59998H44.9746C43.9496 3.59998 43.0996 4.44998 43.0996 5.47498C43.0996 6.49998 43.9496 7.34998 44.9746 7.34998H50.4496L46.2747 11.525C47.2247 12.35 48.0997 13.225 48.9247 14.175L53.0996 9.99999V15.5C53.0996 16.525 53.9496 17.375 54.9746 17.375C55.9996 17.375 56.8496 16.525 56.8496 15.5V5.49998C56.8746 5.24998 56.8246 5.02498 56.7246 4.77498Z" fill="#000066"/>
</svg>
