<svg width="50" height="50" viewBox="0 0 50 50" fill="none" xmlns="http://www.w3.org/2000/svg">
<path d="M50 25C50 38.7931 38.7931 50 25 50C11.2069 50 0 38.7931 0 25C0 11.2069 11.2069 0 25 0C38.7931 0 50 11.2069 50 25Z" fill="#0A4586"/>
<path d="M49.9422 26.4368L42.9882 19.4827L39.6549 23.5057L30.9767 14.8276L27.7009 20.8621L20.8618 14.0804L9.88477 30.5747L29.0227 49.7126C40.402 47.8735 49.3101 38.2184 49.9422 26.4368Z" fill="#093B73"/>
<path d="M40.1145 30.5747C36.8386 25.1149 29.195 30.1149 25.9766 24.6552C27.2984 21.4368 28.6777 18.2184 29.9996 15C33.2754 20.4598 40.9191 15.4598 44.1375 20.9195C42.8156 24.1379 41.4938 27.3563 40.1145 30.5747Z" fill="#F7F7F7"/>
<path d="M35.0006 22.5862L32.9316 27.5862C35.6903 27.7011 38.5064 27.7586 40.173 30.5747C40.8627 28.908 41.5523 27.2414 42.242 25.5747C40.5753 22.8161 37.7592 22.7586 35.0006 22.5862Z" fill="#F7F7F7"/>
<path d="M36.954 17.931L35 22.5862C37.7586 22.7011 40.5747 22.7586 42.2414 25.5747C42.8736 24.023 43.5632 22.4713 44.1954 20.9195C42.5287 18.1609 39.7701 18.046 36.954 17.931Z" fill="#FF3333"/>
<path d="M28.1041 19.6552C27.4145 21.3218 26.7248 22.9885 26.0352 24.6552C27.6444 27.3563 30.288 27.4712 32.9892 27.6437L35.0581 22.6437C32.357 22.4712 29.6558 22.3563 28.1041 19.6552Z" fill="#FF3333"/>
<path d="M29.1373 14.0804L30.9764 14.8276L21.6086 37.1264L19.7695 36.3793L29.1373 14.0804Z" fill="#3DA8FB"/>
<path d="M29.1379 14.0804L25 23.9655V29.0804L30.977 14.8276L29.1379 14.0804Z" fill="#3DA8FB"/>
<path d="M9.88432 30.5747C13.1602 25.1149 20.8039 30.1149 24.0222 24.6552C22.7004 21.4368 21.3211 18.2184 19.9993 15C16.7234 20.4598 9.07972 15.4598 5.86133 20.9195C7.18317 24.1379 8.50501 27.3563 9.88432 30.5747Z" fill="white"/>
<path d="M14.9992 22.5862L17.0682 27.5862C14.3095 27.7011 11.4934 27.7586 9.82678 30.5747C9.13712 28.908 8.44747 27.2414 7.75781 25.5747C9.42448 22.8161 12.1831 22.7586 14.9992 22.5862Z" fill="white"/>
<path d="M13.0461 17.931L15.0001 22.5862C12.2415 22.7011 9.42538 22.7586 7.75871 25.5747C7.12653 24.023 6.43687 22.4713 5.80469 20.9195C7.47135 18.1609 10.23 18.046 13.0461 17.931Z" fill="#FF3333"/>
<path d="M21.8974 19.6552C22.587 21.3218 23.2767 22.9885 23.9663 24.6552C22.3572 27.3563 19.7135 27.4712 17.0123 27.6437L14.9434 22.6437C17.6445 22.4712 20.2882 22.3563 21.8974 19.6552Z" fill="#FF3333"/>
<path d="M30.1729 36.3218L28.3338 37.069L19.0234 14.8276L20.8625 14.0804L30.1729 36.3218Z" fill="#3799E6"/>
<path d="M30.1724 36.3219L25 23.9656V29.0805L28.3908 37.1265L30.1724 36.3219Z" fill="#3799E6"/>
</svg>
