<svg width="80" height="80" viewBox="0 0 80 80" fill="none" xmlns="http://www.w3.org/2000/svg">
<g clip-path="url(#clip0_461_4507)">
<path d="M68.1024 67.9254H65.6024V66.8504C65.6524 62.6254 65.7274 57.8504 58.5274 52.8254C50.1524 46.9754 50.3774 40.2254 50.3774 39.9504C50.3274 39.7004 49.1274 29.0004 58.5524 22.6004C65.7774 17.6754 65.6274 12.1504 65.6274 11.9004L68.1274 11.7754C68.1524 12.0754 68.4274 18.9004 59.9774 24.6754C51.8524 30.2004 52.8524 39.4754 52.8774 39.8754C52.8774 40.3004 52.7774 45.7754 59.9524 50.7754C68.2524 56.5504 68.1524 62.5254 68.1024 66.9004V67.9254Z" fill="#CB0101"/>
<path d="M14.3973 67.9254H11.8973V66.8754C11.8473 62.5004 11.7473 56.5254 20.0473 50.7504C27.2223 45.7504 27.1223 40.2754 27.1223 40.0504C27.1223 39.8004 27.7473 30.0254 20.0223 24.6504C11.6473 18.8004 11.8723 12.0754 11.8973 11.7754L14.3973 11.9004C14.3973 12.1254 14.2973 17.6004 21.4723 22.6004C30.3723 28.8004 29.6723 39.6254 29.6223 40.1004C29.6473 40.2254 29.8723 46.9754 21.4723 52.8254C14.2473 57.8504 14.3223 62.6504 14.3723 66.8754L14.3973 67.9254Z" fill="#CB0101"/>
<path d="M41.25 1.25H38.75V78.75H41.25V1.25Z" fill="#000066"/>
<path d="M78.75 38.75H1.25V41.25H78.75V38.75Z" fill="#000066"/>
<path d="M40 80C17.95 80 0 62.05 0 40C0 17.95 17.95 0 40 0C62.05 0 80 17.95 80 40C80 62.05 62.05 80 40 80ZM40 2.5C19.325 2.5 2.5 19.325 2.5 40C2.5 60.675 19.325 77.5 40 77.5C60.675 77.5 77.5 60.675 77.5 40C77.5 19.325 60.675 2.5 40 2.5Z" fill="#000066"/>
</g>
<defs>
<clipPath id="clip0_461_4507">
<rect width="80" height="80" fill="white"/>
</clipPath>
</defs>
</svg>
