<svg width="28" height="28" viewBox="0 0 28 28" fill="none" xmlns="http://www.w3.org/2000/svg">
<path d="M26.5502 9.0837C26.4681 8.87849 26.2336 8.77881 26.0283 8.86676C25.829 8.94884 25.741 9.17751 25.8173 9.37686C26.685 11.5814 26.9137 13.9795 26.4798 16.3247C26.3801 16.8759 26.2394 17.4212 26.0694 17.9488C22.4811 14.5365 18.0837 12.0915 13.3052 10.8368C13.7567 10.1625 14.2726 9.53516 14.859 8.96057C17.1925 6.69152 20.3879 5.51888 23.6303 5.74754C24.1697 6.3749 24.6446 7.04917 25.0492 7.76448C25.1547 7.9521 25.3892 8.02246 25.5769 7.92279C25.7762 7.81725 25.8466 7.57099 25.741 7.37751C25.143 6.31627 24.3984 5.33712 23.5306 4.46937C20.9801 1.92474 17.5912 0.523438 13.9853 0.523438C10.3795 0.523438 6.99642 1.92474 4.45179 4.47523C1.9013 7.01985 0.5 10.4088 0.5 14.0088C0.5 17.6088 1.9013 20.9977 4.45179 23.5482C7.00228 26.0987 10.3502 27.4824 13.9267 27.5C17.3743 27.5176 20.7104 26.2042 23.2199 23.8414C25.3306 21.8537 26.7261 19.2974 27.2479 16.4655C27.7052 13.9736 27.4648 11.429 26.5443 9.0837H26.5502ZM22.8622 4.93256C19.6785 4.93256 16.6003 6.16383 14.302 8.3977C13.6101 9.07197 13.0003 9.82832 12.4844 10.6374C11.2472 10.3501 9.99251 10.1449 8.73779 10.0218C9.68762 8.05178 10.9775 6.26937 12.5664 4.72735C13.8329 3.49608 15.2577 2.45243 16.7938 1.62572C19.0687 2.13582 21.156 3.26741 22.8622 4.93256ZM13.9853 1.31497C14.5189 1.31497 15.0466 1.35015 15.5684 1.41464C14.2902 2.18858 13.1 3.10911 12.0153 4.16448C10.2857 5.84722 8.90195 7.79379 7.89935 9.95731C7.08436 9.89868 6.25765 9.87523 5.44267 9.88696C5.62443 8.1749 5.57752 6.45112 5.31368 4.74494C7.67068 2.52865 10.7371 1.31497 13.9853 1.31497ZM4.6101 5.44852C4.79772 6.92604 4.80358 8.42116 4.63941 9.90454C3.71889 9.93972 2.79837 10.0218 1.88371 10.1449C2.43485 8.41529 3.35537 6.81464 4.6101 5.44852ZM1.29153 14.0088C1.29153 12.971 1.41466 11.9567 1.65505 10.9716C2.61075 10.8309 3.57231 10.7371 4.53974 10.6961C4.14691 13.229 3.23811 15.6739 1.87785 17.8374C1.49088 16.6179 1.29153 15.328 1.29153 14.0088ZM13.9912 26.7085C11.9567 26.7085 9.99837 26.2335 8.23355 25.3365C7.0316 22.3697 6.60945 19.1273 6.99642 15.9378C7.01987 15.7267 6.87329 15.5273 6.66222 15.498C6.44528 15.4687 6.24007 15.6212 6.21075 15.8381C5.84137 18.8342 6.16971 21.8772 7.15472 24.715C6.38665 24.2225 5.67134 23.6479 5.00879 22.9853C3.78339 21.7599 2.83941 20.3293 2.21205 18.7697C3.84202 16.3482 4.91498 13.5632 5.343 10.6726C6.0759 10.6609 6.82052 10.6726 7.55928 10.7195C7.12541 11.769 6.77948 12.8655 6.53322 13.9795C6.48632 14.1964 6.62704 14.4075 6.84397 14.4544C7.05505 14.4954 7.26026 14.3606 7.30717 14.1495C7.56515 12.9944 7.92866 11.8687 8.39186 10.784C9.62313 10.8954 10.8544 11.083 12.0681 11.3528C9.54104 16.0316 10.3267 21.8596 14.0674 25.7058C14.3958 26.0401 14.7417 26.3625 15.1111 26.6615C14.7417 26.6909 14.3664 26.7085 13.9912 26.7085ZM22.9678 22.9912C21.1033 24.8557 18.7638 26.0694 16.2251 26.515C15.6564 26.1104 15.1228 25.6531 14.6362 25.1547C11.0831 21.5078 10.3795 15.9495 12.8655 11.5404C17.7202 12.7658 22.1704 15.2576 25.7704 18.758C25.1371 20.3293 24.1932 21.7658 22.9678 22.9853V22.9912Z" fill="#000C28"/>
</svg>
