<svg width="32" height="32" viewBox="0 0 32 32" fill="none" xmlns="http://www.w3.org/2000/svg">
<path fill-rule="evenodd" clip-rule="evenodd" d="M16 28.5C23.1799 28.5 29 22.6799 29 15.5C29 8.3201 23.1799 2.5 16 2.5C8.8201 2.5 3 8.3201 3 15.5C3 22.6799 8.8201 28.5 16 28.5ZM19.9 12.9C19.9 13.9343 19.4891 14.9263 18.7577 15.6577C18.0263 16.3891 17.0343 16.8 16 16.8C14.9657 16.8 13.9737 16.3891 13.2423 15.6577C12.5109 14.9263 12.1 13.9343 12.1 12.9C12.1 11.8657 12.5109 10.8737 13.2423 10.1423C13.9737 9.41089 14.9657 9 16 9C17.0343 9 18.0263 9.41089 18.7577 10.1423C19.4891 10.8737 19.9 11.8657 19.9 12.9ZM8.2 22C9.10741 20.7883 10.2849 19.8048 11.6389 19.1278C12.9929 18.4508 14.4862 18.0989 16 18.1C17.5138 18.0989 19.0071 18.4508 20.3611 19.1278C21.7151 19.8048 22.8926 20.7883 23.8 22C22.8926 23.2117 21.7151 24.1952 20.3611 24.8722C19.0071 25.5492 17.5138 25.9011 16 25.9C14.4862 25.9011 12.9929 25.5492 11.6389 24.8722C10.2849 24.1952 9.10741 23.2117 8.2 22Z" fill="#01231F"/>
</svg>
