<svg width="1308" height="504" viewBox="0 0 1308 504" fill="none" xmlns="http://www.w3.org/2000/svg">
<path d="M81.7561 293.901C77.7654 305.632 41.2881 306.418 46.8544 315.567C48.798 318.747 50.8094 321.823 53.9502 323.848C52.9208 328.743 64.9503 330.127 79.694 329.851C78.2419 332.769 79.7428 335.145 88.808 336.173C95.1218 334.464 98.2787 333.609 100.71 331.471C102.857 330.113 104.522 329.038 105.824 327.951C111.631 327.248 116.884 326.485 120.977 325.79C117.282 337.637 81.1612 339.247 86.8817 348.272C89.336 352.152 91.7903 356.032 96.5527 357.621L112.843 348.115C157.567 342.419 97.4924 364.972 129.065 367.841C135.342 365.959 138.48 365.019 140.721 362.832C153.873 354.266 149.178 352.573 139.635 349.309C179.712 338.763 172.222 368.323 192.196 365.491C192.416 366.522 189.549 367.045 187.237 367.63C188.062 368.532 184.492 369.565 184 368.951C183.765 369.541 183.148 370.032 181.335 370.42C178.938 369.764 182.182 368.89 182.176 368.442C180.918 368.891 178.169 369.119 177.866 369.813C180.924 369.339 175.646 370.827 178.437 371.219C179.473 370.998 178.654 370.544 180.084 370.058C180.7 370.825 179.929 371.44 178.689 371.974C176.821 372.104 176.336 370.679 175.917 370.409C174.887 371.079 172.373 370.718 171.231 372.131C173.309 370.877 177.119 370.962 176.149 372.338C174.201 372.934 175.102 371.662 174.325 371.829C173.449 372.375 170.125 373.715 170.658 371.983C168.678 372.856 169.134 373.298 170.335 373.85C168.041 374.521 168.03 373.624 168.888 372.991C167.648 373.526 167.76 372.783 166.724 373.004C165.94 373.981 168.036 374.072 167.474 374.822C166.438 375.043 166.223 374.46 165.65 374.313C163.979 374.94 163.522 375.757 161.105 376.273C159.479 375.003 158.016 377.024 155.669 376.177C155.97 376.742 156.852 376.643 155.526 377.196C154.49 377.418 154.738 376.466 153.702 376.687C154.003 377.252 154.2 377.75 153.182 378.057C153.145 377.885 153.041 377.818 152.609 377.91C152.536 377.566 153.762 377.394 153.307 376.952C147.467 379.189 146.209 379.638 141.735 378.976C141.352 380.137 138.448 380.488 136.907 380.458C137.59 381.121 136.468 381.361 136.388 381.827C138.645 380.985 137.811 382.152 137.835 382.687C139.703 382.557 140.406 382.047 142.379 381.985C141.954 381.267 143.871 380.947 144.489 380.455C145.03 380.879 146.035 380.933 146.885 381.111C146.843 380.491 150.136 379.427 150.622 379.593C150.406 380.269 146.997 380.368 148.099 381.301C150.128 380.238 150.312 381.098 148.851 381.86C155.151 380.513 154.806 380.586 160.047 378.927C160.503 379.369 159.232 380.18 160.101 380.443C160.411 378.939 164.281 379.73 166.611 379.231C165.921 379.379 164.799 379.619 164.786 379.981C165.71 380.503 166.149 379.6 166.986 380.14C166.228 380.392 167.078 380.57 167.682 380.441C168.207 379.519 167.739 379.44 168.06 378.832C172.376 377.909 179.096 376.832 181.473 378.661C179.186 378.521 177.735 380.179 174.962 379.873C175.35 380.42 174.296 380.555 174.961 381.132C178.123 380.726 180.09 380.215 183.634 379.907C183.19 380.361 183.331 380.601 184.386 380.465C184.33 380.208 184.257 379.864 185.138 379.765C184.694 380.22 184.836 380.459 185.89 380.324C185.452 379.968 187.864 379.003 188.233 379.463C185.44 380.33 188.373 380.961 186.498 381.902C184.186 382.486 184.736 380.84 183.725 381.596C184.452 381.62 183.631 382.425 185.049 382.301C184.309 382.639 182.766 383.868 181.774 383.451C182.614 382.732 181.499 382.161 180.272 382.334C181.732 382.831 181.256 383.562 181.022 384.151C178.777 384.631 176.107 385.651 175.387 384.816C175.955 384.515 176.14 384.116 175.943 383.619C174.076 383.748 175.955 384.515 174.728 384.688C174.037 384.835 172.915 385.075 172.902 385.438C174.135 385.714 174.864 384.479 175.479 385.246C173.734 385.529 173.758 386.064 172.205 386.396C172.058 385.708 170.849 385.966 170.702 385.279C172.188 385.051 170.932 384.241 170.845 384.259C171.11 384.652 167.466 385.341 169.63 385.328C169.575 385.07 170.333 384.818 170.579 385.125C169.802 385.291 170.554 385.85 169.881 386.084C169.049 385.992 167.773 386.354 167.163 386.035C167.071 385.606 168.508 385.568 168.434 385.224C166.974 384.727 164.714 388.087 163.428 386.295C164.082 385.975 166.054 385.913 165.771 385.434C163.898 385.115 162.337 386.258 160.137 386.099C160.506 386.56 160.32 386.959 159.58 387.297C159.347 386.628 157.239 386.899 156.486 387.599C155.272 387.409 156.58 386.77 155.538 386.543C155.513 387.268 152.818 387.754 152.874 388.012C153.478 387.883 154.082 387.753 154.001 388.22C153.335 388.902 152.67 388.325 151.085 388.933C151.096 389.83 153.316 388.816 153.858 389.24C150.991 389.763 153.678 390.087 153.678 390.087C152.845 391.254 150.861 390.42 150.387 389.892C151.28 390.69 149.546 391.869 151.655 391.598C151.952 390.456 153.627 391.536 154.892 390.277C155.003 390.793 155.335 391.081 156.217 390.983C157.228 390.227 154.979 390.259 156.736 389.613C160.934 388.985 158.804 391.688 155.66 392.18C157.047 392.334 156.838 392.198 158.7 391.621C157.416 392.794 159.846 391.915 160.523 392.13C159.53 392.971 155.517 393.2 155.46 394.201C158.568 393.537 161.343 392.584 162.884 392.614C162.439 393.069 161.89 393.456 161.132 393.708C161.132 393.708 161.113 393.622 161.095 393.536C156.434 394.532 151.218 395.468 145.725 396.372C145.812 396.354 145.966 396.231 146.034 396.126C145.43 396.256 144.825 396.385 144.906 395.918C143.734 396.348 142.618 397.036 142.33 396.109C144.82 395.936 141.498 396.018 141.899 394.943C141.209 395.09 140.087 395.33 140.074 395.693C143.095 395.047 137.527 396.866 139.931 396.712C139.889 396.092 141.812 396.22 141.577 396.81C138.987 397.363 138.027 396.67 135.764 397.064C135.942 397.475 135.566 397.825 134.998 398.126C131.941 398.6 128.969 399.056 125.979 399.425C125.807 399.462 125.548 399.517 125.461 399.536C120.727 400.189 116.079 400.823 111.776 401.383C112.325 400.996 113.17 400.725 112.887 400.247C111.801 400.658 111.061 400.996 110.531 401.469C108.94 401.63 107.282 401.894 105.778 402.036C103.071 402.885 100.728 403.745 98.4705 404.587C98.3786 404.157 98.0462 403.869 97.5595 403.703C96.9552 403.832 96.1785 403.999 96.1657 404.361C97.2014 404.139 97.5707 404.6 98.23 404.729C94.8013 406.001 91.8042 407.181 89.4298 408.318C89.4298 408.318 89.2571 408.355 89.1708 408.373C89.1892 408.459 89.035 408.582 88.9487 408.601C88.5355 408.779 88.036 408.976 87.6412 409.24C87.4684 409.277 87.3823 409.295 87.3143 409.4C81.93 412.079 79.326 414.254 78.8306 416.158C78.3989 416.25 77.9674 416.342 77.3632 416.472C77.4368 416.815 76.6784 417.067 76.6656 417.43C77.4919 417.073 78.0777 416.858 78.6819 416.729C78.5499 418.645 80.5944 420.186 84.1739 421.308C79.9078 422.041 75.5298 423.516 71.831 423.947C71.5297 423.382 70.6482 423.481 71.401 422.781C69.8218 423.837 67.2195 424.753 65.124 424.662C65.4436 425.313 64.1674 425.676 62.9774 426.02C62.9039 425.676 63.508 425.547 63.1572 425.172C62.4666 425.32 62.1582 425.566 61.7634 425.83C61.7082 425.572 62.0351 425.412 62.0846 425.222C60.7955 425.947 59.385 425.26 59.1867 426.021C59.8094 425.978 60.3456 425.953 60.8323 426.119C59.8828 426.322 59.87 426.684 59.0068 426.869C59.3226 425.812 57.4476 426.753 57.5595 426.01C56.0849 427.134 55.3266 427.386 52.7315 427.491C53.1007 427.952 52.9152 428.351 52.1752 428.689C53.0584 427.331 48.3663 428.604 47.6318 429.391C47.5583 429.047 47.6941 428.838 47.8116 428.543C44.6914 429.57 41.4979 430.253 38.7614 430.118C39.4999 431.039 35.9058 431.538 34.5927 431.729C34.7102 431.434 34.8955 431.035 35.2904 430.771C34.7469 431.606 37.6633 430.893 37.3124 430.518C34.6055 431.366 35.2664 430.236 34.3976 429.973C33.397 431.625 32.8552 431.201 34.3081 432.509C35.7571 432.109 39.8579 430.603 39.3695 431.696C38.791 431.101 38.771 432.274 37.9757 432.354C35.7996 432.729 36.0088 432.864 34.0053 433.203C34.3561 433.577 33.5113 433.848 33.3075 434.161C34.2569 433.958 33.9908 434.824 35.0945 434.498C34.6278 433.16 39.6011 433.625 41.6064 432.027C41.2628 430.842 48.5444 429.016 50.7814 429.346C48.6787 430.066 47.3656 430.257 46.4713 430.717C47.2481 430.551 47.0499 431.313 47.7405 431.165C48.4309 431.018 51.0515 430.188 50.4049 429.697C51.5877 430.163 52.9264 429.247 54.0173 429.284C53.0935 428.762 55.1228 427.699 55.6646 428.123C55.3194 428.196 54.7151 428.326 54.7702 428.584C60.5022 428.796 65.8569 425.135 70.9038 425.943C72.0387 425.341 69.9745 424.973 70.9055 424.684C73.6659 425.353 77.7499 422.502 81.6013 423.207C81.5461 422.949 81.2816 422.556 81.7812 422.359C82.2862 422.611 84.0309 422.328 85.2888 421.879C86.2439 422.124 87.2174 422.456 88.345 422.664C86.6187 423.033 84.7949 422.524 83.8015 423.366C84.2075 423.998 87.3516 423.506 88.536 422.713C103.565 425.883 131.776 425.694 145.554 424.277C145.368 424.676 145.096 425.094 144.825 425.512C144.029 425.592 143.216 425.586 142.421 425.666C142.395 426.391 143.962 425.696 144.639 425.911C144.503 426.12 144.368 426.329 144.213 426.452C143.436 426.618 142.66 426.784 141.901 427.036C141.791 426.52 141.458 426.231 140.577 426.33C141.832 428.399 132.074 428.777 130.13 431.081C130.229 430.7 130.605 430.35 130.686 429.883C129.755 430.172 129.595 429.847 129.04 429.785C127.992 430.369 130.223 430.252 128.897 430.805C126.844 431.334 127.689 431.063 128.201 430.504C126.111 430.861 127.768 431.855 125.678 432.212C125.433 430.646 123.144 433.024 122.387 432.017C121.572 433.27 119.97 432.534 118.022 433.13C117.638 434.291 120.611 432.576 120.74 433.178C120.049 433.326 120.486 433.682 119.987 433.879C120.806 434.333 121.298 434.947 122.562 434.946C121.972 433.454 124.152 434.786 125.282 433.735C124.991 434.067 125.115 434.221 125.392 434.251C115.798 436.662 106.994 438.544 109.687 443.542C109.724 443.714 109.847 443.867 109.97 444.021C109.434 444.046 108.898 444.07 108.429 443.991C108.576 444.679 109.471 444.218 108.804 444.9C109.236 444.807 109.772 444.783 110.413 444.825C110.573 445.151 110.751 445.562 110.997 445.869C110.171 446.226 109.603 446.527 109.713 447.042C110.213 446.846 110.713 446.649 111.298 446.434C112.325 448.282 113.574 449.903 115.064 451.382C114.682 451.284 114.3 451.186 114.004 451.069C113.178 451.426 112.056 451.666 111.716 452.188C113.356 451.837 113.885 452.623 115.766 452.131C116.535 452.776 117.459 453.297 118.469 453.801C113.845 454.969 108.813 456.764 105.059 456.937C106.095 456.716 105.625 457.895 106.507 457.797C107.926 456.414 110.466 456.051 112.463 456.523C115.3 455.018 120.861 454.009 123.999 453.068C124.706 454.265 129.232 453.477 128.916 454.534C130.315 454.325 132.69 453.188 133.404 453.574C132.042 453.955 132.275 454.625 131.294 455.104C132.539 455.018 133.63 455.054 135.424 454.581C135.553 455.182 134.813 455.52 136.317 455.379C140.165 454.376 144.456 452.919 148.857 453.237C148.24 453.729 147.623 454.22 147.024 454.798C145.902 455.038 144.78 455.277 144.058 455.701C146.136 455.707 141.728 456.2 142.288 456.709C143.669 456.414 143.982 457.875 142.896 458.287C141.737 458.355 140.973 458.159 140.876 457.281C139.668 457.539 138.409 457.988 138.729 458.639C141.381 457.532 139.763 459.676 140.694 459.387C140.794 459.006 141.256 458.638 141.91 458.318C142.088 458.73 142.538 458.723 142.883 458.65C142.235 459.417 141.76 460.148 141.543 460.824C140.513 461.494 139.397 462.182 138.206 462.526C138.298 462.956 138.631 463.245 139.099 463.324C134.826 464.867 130.564 467.307 127.957 466.515C126.372 467.124 123.278 467.426 122.716 468.175C124.479 467.978 124.977 469.04 126.13 468.524C124.564 469.219 123.57 470.06 122.768 470.951C122.017 470.392 119.229 471.708 118.083 471.413C117.523 470.904 120.414 470.915 119.853 470.405C114.208 470.174 105.648 473.622 100.126 473.544C100.91 472.568 104.638 473.119 104.812 471.823C102.717 471.732 100.392 472.678 97.5874 472.649C96.8858 471.9 97.9527 471.402 99.6973 471.119C100.25 472.439 106.522 470.109 104.99 472.235C107.106 471.153 109.899 470.286 111.896 470.758C112.808 470.383 111.952 469.757 113.543 469.597C113.894 469.972 113.049 470.242 112.845 470.555C115.109 468.903 124.455 467.444 127.459 465.453C127.724 465.846 128.056 466.135 128.784 466.159C128.914 465.502 130.19 465.139 130.234 464.5C128.495 465.232 128.502 464.421 127.516 464.452C127.503 464.814 125.388 465.896 124.655 465.423C124.286 464.963 125.963 464.784 125.871 464.354C125.439 464.447 124.921 464.557 124.798 464.404C125.143 464.33 125.748 464.201 125.692 463.943C123.448 464.423 121.294 466.591 119.415 465.824C121.351 465.59 120.095 464.78 121.007 464.405C123.43 464.337 126.767 462.635 127.661 462.174C124.627 463.182 124.641 461.561 122.601 461.727C124.322 460.91 123.766 462.108 125.264 461.517C125.143 460.105 123.497 460.007 121.938 459.891C123.337 459.682 122.691 459.191 123.154 458.822C121.699 458.774 119.134 459.862 120.239 458.277C118.772 458.591 116.533 459.519 116.109 458.8C116.861 458.1 120.233 457.829 119.667 456.871C112.234 461.786 106.404 456.47 99.0454 460.471C99.238 459.261 97.5301 459.716 96.5072 459.575C97.0139 458.568 98.0569 457.535 99.1183 456.589C100.246 456.798 100.327 456.331 101.517 455.987C103.058 456.017 101.719 456.932 103.34 456.496C103.249 456.066 102.916 455.777 102.448 455.698C104.637 454.96 105.469 455.052 108.958 454.486C109.465 453.478 110.846 453.183 109.799 452.508C106.611 453.639 104.96 453.093 102.214 455.028C103.226 454.273 99.8009 453.027 99.2997 454.483C100.077 454.317 101.076 453.923 101.322 454.23C101.395 454.574 101.851 455.016 101.179 455.25C99.0703 455.521 98.0825 456.811 97.5662 455.663C98.3118 455.773 99.5202 455.515 99.3916 454.913C97.6653 455.282 99.2998 454.483 97.6047 454.576C96.6297 455.503 92.8005 456.592 91.2725 456.199C91.2173 455.941 91.1623 455.683 91.0392 455.53C93.3752 455.48 93.9515 453.109 93.3273 454.411C89.5056 454.689 88.5839 457.134 88.3178 458C86.9736 458.467 87.5298 457.269 86.4941 457.49C86.733 458.608 84.2483 459.229 83.2548 460.071C83.995 459.733 85.2327 460.457 84.1475 460.869C80.9666 461.189 75.2443 463.132 72.5757 462.893C72.8292 462.39 73.964 461.788 72.201 461.985C72.6365 463.6 67.9164 462.631 66.9598 463.645C66.8846 464.56 69.0681 463.374 68.9249 464.393C66.3851 464.756 67.6101 465.843 66.0253 466.451C63.702 466.139 57.4931 467.916 55.7044 468.838C56.8193 469.408 58.3066 467.922 59.3719 468.683C58.7055 469.365 59.3392 470.218 58.6726 470.9C57.6679 470.845 55.2751 471.896 54.5038 472.511C56.4396 472.276 57.2036 472.473 55.3966 473.309C59.5948 472.681 61.6368 471.255 66.0757 470.486C65.9838 470.056 66.0829 469.675 66.6319 469.288C67.069 469.644 68.944 468.704 69.2086 469.097C69.3924 469.957 66.3657 470.154 66.7222 470.977C68.2079 470.749 72.2846 468.709 72.3014 470.054C73.1646 469.869 73.9414 469.703 74.7862 469.433C73.9191 467.91 80.694 467.091 79.3298 468.731C81.6969 468.405 85.1072 467.046 85.6602 468.367C82.4609 468.601 80.1855 469.357 77.9341 470.648C78.8836 470.445 79.0987 471.028 80.5109 470.456C79.9507 469.947 81.3501 469.738 81.7265 469.387C82.0958 469.848 83.921 469.098 84.4445 469.436C84.351 470.265 85.541 469.92 85.8918 470.295C83.8995 471.53 80.972 471.347 78.8636 471.618C78.9795 472.582 81.712 471.009 82.1548 471.813C82.2467 472.243 80.8105 472.28 80.884 472.624C81.5985 473.011 84.2814 471.628 85.0142 472.101C83.9658 472.684 81.7896 473.06 81.9734 473.919C80.2103 474.116 78.6511 474 77.0917 473.884C78.3976 474.504 75.0866 475.482 75.1217 476.912C77.1638 475.487 80.1681 473.496 82.8477 474.631C85.1726 473.685 89.02 472.683 90.8253 473.106C89.6906 473.708 88.7282 474.273 88.339 474.986C89.7496 475.673 91.8667 473.332 93.7216 473.565C93.1175 473.694 92.6179 473.891 92.9687 474.266C94.436 473.952 94.4985 473.399 95.1154 472.908C96.0833 472.791 98.0117 473.367 96.7594 474.264C90.3977 474.905 85.2668 477.081 78.5359 477.261C82.205 475.848 86.9562 476.54 88.2287 474.47C86.1499 475.723 84.8202 474.569 83.9186 475.841C81.6872 475.958 80.9488 475.037 79.1785 476.045C80.8497 475.418 79.9113 476.518 79.4118 476.714C77.7351 476.893 77.8892 476.77 75.7994 477.127C75.9025 478.454 71.3038 478.897 71.6842 480.254C75.928 477.729 81.6104 478.132 85.9373 478.106C87.1402 477.399 84.6994 477.382 85.9389 476.847C86.6478 476.786 87.3072 476.914 87.7259 477.184C86.7748 478.646 88.3414 477.952 90.066 478.842C87.5006 479.929 88.0329 478.197 86.2202 478.585C85.0486 479.015 83.5613 480.502 82.6062 480.257C82.5327 479.913 83.4141 479.814 83.359 479.556C82.5637 479.636 82.0092 479.575 81.1956 479.569C81.5648 480.03 81.3794 480.429 80.6394 480.767C79.8641 479.674 78.404 479.177 75.9009 479.713C75.9065 480.161 76.8927 480.13 76.1342 480.382C74.2298 480.339 71.486 481.016 69.8037 480.746C69.1922 481.686 67.5595 481.226 66.0666 482.265C65.8276 481.147 61.7196 483.464 61.3264 482.469C61.3632 482.641 61.0364 482.801 60.4322 482.93C60.6694 485.306 67.275 482.006 69.1044 482.964C66.3423 483.554 67.5067 483.934 68.9245 483.811C65.5071 485.98 60.2891 483.949 60.4473 485.534C59.1526 485.81 55.5291 485.327 56.2802 485.885C58.6659 485.645 56.7486 485.965 57.2281 486.941C57.9425 487.328 60.1019 485.607 61.1985 486.092C61.272 486.436 57.7332 487.193 59.4284 487.1C61.531 486.381 61.4135 486.675 62.6659 485.778C63.4979 485.87 63.7992 486.435 64.6311 486.527C65.3712 486.189 64.0285 485.397 65.7052 485.219C67.3604 487.472 73.2258 484.51 76.3994 485C69.8011 487.489 63.131 488.376 58.3525 489.667C58.8703 489.557 59.1348 489.949 58.4628 490.183C57.9449 490.294 57.5133 490.386 56.9954 490.497C56.8852 489.981 56.5343 489.606 56.0476 489.441C54.3637 490.43 53.7978 489.472 51.8805 489.792C48.4023 491.255 38.7847 493.132 35.4808 493.299C33.0641 493.815 24.7521 496.312 21.7455 495.336C21.8191 495.68 22.2747 496.122 21.6025 496.356C19.0444 496.633 11.4247 497.723 11.3384 497.741C11.1529 498.14 12.0583 498.576 11.1952 498.76C10.1227 498.81 9.71672 498.178 8.7984 498.104C6.88503 500.131 2.84997 498.567 -0.000100515 500.435C1.01571 501.386 2.29924 500.213 1.98507 500.01C2.86663 499.912 4.05666 499.567 4.64813 499.801C2.57654 500.244 4.72166 500.144 4.88148 500.47C4.26455 500.961 3.74659 501.072 2.91457 500.98C3.57785 502.816 8.17974 499.855 10.3376 499.393C12.7545 498.877 12.259 500.78 14.8796 499.95C14.7693 499.435 14.0108 499.687 13.6103 499.503C15.6763 498.611 18.2418 497.524 20.084 498.119C18.4128 498.746 20.0457 499.206 21.4083 498.824C22.1428 498.038 23.0611 498.111 24.5045 497.263C23.6397 498.707 27.5438 496.704 26.007 498.381C28.578 497.741 26.6366 497.527 28.1168 496.851C29.7863 497.483 28.0801 496.679 29.9422 496.101C30.3978 496.543 31.5878 496.199 30.8349 496.899C33.597 496.308 34.9174 495.307 37.167 495.275C37.5252 494.839 37.6921 494.354 38.2412 493.967C40.3679 493.782 42.3899 493.529 45.2694 492.644C45.6553 494.45 53.005 492.519 55.7654 493.187C55.7103 492.929 55.4457 492.536 55.9453 492.339C57.24 492.063 57.534 493.438 58.6633 492.388C58.7385 491.473 56.5366 492.573 56.6982 491.639C59.2141 490.742 63.4506 489.027 66.3909 488.848C64.6095 488.959 63.9173 490.365 64.7988 490.267C65.829 489.597 66.3909 488.848 68.3578 488.337C67.9997 488.773 68.1964 489.271 67.8382 489.707C70.5507 489.307 73.1659 488.028 75.1878 487.776C75.2429 488.034 74.7617 488.317 74.4349 488.476C71.0558 489.558 65.1569 489.831 63.7927 491.471C67.1349 490.217 71.9301 490.27 76.0805 488.574C76.3562 489.863 82.4934 486.484 84.3778 487.699C89.0221 485.358 98.3001 484.003 102.282 484.051C101.936 484.125 101.819 484.42 101.96 484.659C103.255 484.382 104.236 483.903 104.68 483.448C104.076 483.578 103.472 483.707 103.552 483.24C106.968 482.33 107.991 482.471 110.026 481.856C109.927 482.237 109.551 482.587 109.47 483.054C112.313 481.996 112.724 483.077 115.462 481.952C114.97 481.338 113.607 481.72 115.032 480.786C115.179 481.473 116.61 480.988 117.374 481.184C118.145 480.57 116.136 480.46 117.893 479.814C121.087 479.131 121.032 478.874 124.171 477.933C124.286 478.897 127.443 478.042 126.332 479.179C129.353 478.533 130.345 478.95 131.573 477.519C131.135 478.422 132.966 478.12 131.768 479.275C132.718 479.072 132.731 478.71 133.594 478.525C133.138 478.083 131.956 477.617 133.54 477.008C139.033 476.104 145.999 475.334 149.244 473.202C149.422 473.613 149.409 473.975 149.101 474.221C149.964 474.036 150.741 473.87 151.586 473.6C151.025 473.09 151.402 472.74 152.801 472.531C151.986 473.784 154.015 472.721 154.304 473.648C152.293 474.797 150.124 474.362 147.22 474.713C146.583 476.377 140.036 477.418 138.921 476.847C141.478 477.829 148.673 476.02 150.635 475.062C153.852 474.913 156.675 475.029 160.578 474.284C160.017 473.775 161.417 473.566 161.793 473.215C161.887 472.386 160.696 472.731 160.722 472.006C158.768 472.154 160.006 472.878 158.434 473.125C158.695 471.81 156.166 473.07 156.272 471.879C158.621 471.466 162.276 471.674 162.604 470.255C163.467 470.071 164.244 469.905 165.003 469.653C164.645 470.089 164.841 470.586 164.483 471.022C167.332 470.413 163.517 469.88 166.452 469.253C167.561 469.375 167.862 469.94 168.474 469C170.279 469.423 167.973 470.456 169.082 470.578C168.99 470.149 172.252 469.361 172.498 469.668C172.867 470.129 172.681 470.528 171.941 470.866C172.288 469.533 169.062 471.751 167.576 471.979C166.898 471.764 166.597 471.2 165.611 471.231C165.868 472.434 162.99 472.061 162.195 472.141C163.216 473.54 165.887 472.52 167.113 472.348C167.451 473.085 165.442 472.975 165.003 473.878C166.934 473.195 168.753 471.997 169.923 472.826C169.881 472.206 173.481 472.155 172.033 471.296C170.511 471.352 169.782 472.586 169.135 472.095C170.709 470.59 172.329 471.412 174.197 471.283C174.463 470.417 172.538 471.547 172.872 470.577C173.39 470.466 173.335 470.208 173.767 470.116C176.406 469.372 176.948 469.796 179.148 469.955C180.492 469.487 178.211 469.795 178.397 469.396C179.087 469.248 179.396 469.003 179.79 468.738C180.604 468.744 181.486 468.646 181.614 469.247C182.002 469.794 179.771 469.911 180.54 470.556C182.384 469.892 182.97 469.677 184.511 469.707C185.491 469.228 184.981 468.528 186.62 468.177C187.656 467.956 187.871 468.539 188.821 468.336C189.438 467.845 192.194 466.806 194.635 466.823C194.956 466.215 196.042 465.803 196.745 465.293C194.291 465.638 193.384 466.461 192.201 465.995C192.769 465.694 193.164 465.43 193.472 465.184C192.264 465.442 192.097 465.928 191.184 466.303C191.217 464.767 188.077 466.967 187.516 466.457C187.529 466.095 188.01 465.812 187.659 465.438C185.063 466.802 180.839 468.155 178.664 467.271C179.735 468.481 173.596 468.894 175.428 467.334C172.857 467.973 174.799 468.188 173.319 468.864C172.968 468.489 172 468.606 171.871 468.004C175.893 465.706 179.011 465.938 183.443 465.98C186.385 464.542 187.771 464.695 189.578 463.859C189.633 464.117 189.775 464.356 189.898 464.51C189.924 463.785 195.244 462.917 193.457 462.58C192.636 463.385 189.387 463.81 188.913 463.282C191.966 462.36 193.784 462.42 196.836 461.498C196.397 462.401 197.242 462.131 198.283 462.357C197.945 461.621 198.685 461.283 199.462 461.117C203.388 466.39 207.08 470.995 216.685 469.481C231.452 465.514 234.276 460.146 233.845 454.754C236.243 454.152 238.66 453.635 240.115 453.684C241.25 453.082 244.715 451.981 248.063 451.175C269.46 458.377 308.973 459.549 342.115 454.98C359.886 449.023 379.316 447.027 399.615 445.294C398.234 445.589 396.415 446.787 396.154 448.101C395.794 449.796 393.414 450.485 390.961 450.83C389.839 451.07 388.661 451.052 387.502 451.12C381.881 451.423 380.463 451.546 379.8 453.935C378.817 456.932 375.483 456.117 373.177 457.149C369.717 458.698 363.348 460.149 365.192 463.711C365.512 464.361 363.988 465.676 363.013 466.604C361.902 467.74 362.209 468.753 363.392 469.22C366.749 470.57 370.347 471.778 374.099 472.864C375.35 473.226 377.322 473.164 378.999 472.985C382.525 472.591 386.169 471.901 389.658 471.335C392.799 473.361 397.28 468.987 400.483 470.459C406.631 467.976 412.732 468.65 418.73 467.996C421.911 467.676 425.14 468.424 428.783 467.735C432.322 466.978 436.058 466.719 439.455 465.723C443.18 464.567 445.766 466.531 449.139 465.001C450.619 464.325 451.872 463.428 452.943 464.637C453.89 465.693 452.126 467.149 449.277 467.758C445.134 468.644 440.954 469.358 436.811 470.244C435.689 470.484 434.136 470.816 433.623 471.375C432.444 472.616 434.885 472.633 435.31 473.352C436.226 474.684 436.508 476.422 438.078 477.435C439.962 478.65 441.379 479.785 438.979 481.647C437.041 483.14 438.314 485.295 434.917 486.291C432.882 486.906 429.479 487.454 428.401 487.055C426.99 486.368 429.666 485.795 430.992 485.242C431.732 484.904 432.14 484.278 432.67 483.805C428.929 483.616 425.183 482.978 421.293 483.36C416.676 483.718 411.793 484.942 407.077 485.681C406.559 485.791 406.054 485.54 405.567 485.374C406.184 484.883 406.659 484.152 407.35 484.004C410.889 483.247 414.428 482.491 417.967 481.734C420.038 481.291 421.586 480.511 421.834 479.559C422.181 478.226 422.467 476.187 420.217 476.219C416.186 476.361 413.477 474.244 409.062 475.547C404.043 476.98 400.032 475.95 395.483 476.203C390.311 476.5 384.853 478.835 379.887 477.56C379.801 477.578 378.888 477.953 378.752 478.162C378.536 478.837 377.906 479.691 378.429 480.029C379.304 480.741 380.677 481.256 382.187 481.563C384.633 482.029 397.283 480.403 401.581 479.394C402.185 479.265 403.022 479.805 403.632 480.124C403.946 480.327 404.038 480.757 403.834 481.07C402.834 482.722 401.728 484.307 400.641 485.978C399.962 487.022 398.581 487.317 398.138 486.513C396.988 484.511 394.746 483.732 390.485 484.913C384.171 486.622 378.913 486.937 376.533 483.401C369.372 482.415 362.433 481.201 354.185 481.886C353.131 482.021 351.769 482.403 351.065 482.913C350.362 483.422 349.991 484.221 350.101 484.737C350.23 485.339 350.809 485.934 351.659 486.112C354.506 486.762 357.575 487.184 360.557 487.625C360.782 490.364 365.665 489.141 368.321 489.741C370.681 490.226 373.676 490.304 375.555 491.071C377.034 491.654 377.229 493.411 380.079 491.543C383.323 489.411 388.192 489.808 391.45 487.314C393.011 486.171 393.687 487.644 394.197 488.344C394.339 488.584 394.69 488.958 395.053 488.97C397.839 488.914 400.761 488.649 403.411 488.802C406.062 488.954 404.973 491.884 409.134 491.084C410.861 490.715 412.574 490.708 414.356 490.597C414.873 490.486 415.311 490.842 415.865 490.904C415.471 491.168 415.112 491.604 414.613 491.801C408.299 493.51 401.813 495.256 395.594 494.878C392.667 494.695 390.004 494.904 387.032 495.36C379.986 496.597 373.185 498.141 366.135 497.67C362.653 497.426 357.948 499.061 353.909 500.014C353.305 500.144 352.539 501.206 352.477 501.759C352.501 502.293 353.326 503.196 353.776 503.189C358.473 502.365 362.529 502.756 366.652 503.043C366.999 501.711 368.356 500.881 370.846 500.708C372.627 500.597 373.638 501.1 373.753 502.065C373.864 502.58 373.992 503.182 374.189 503.679C376.452 503.286 378.8 502.873 381.081 502.566C381.136 502.823 381.296 503.149 381.66 503.161C388.106 503.761 391.954 502.758 395.509 499.121C396.329 498.317 396.842 497.758 397.797 498.003C402.017 499.168 406.287 500.143 412.089 498.993C413.384 498.716 415.454 499.532 416.051 500.213C418.161 502.909 422.038 502.889 427.199 501.696C431.86 500.699 436.68 500.028 441.341 499.031C443.672 498.533 445.134 497.771 446.307 496.082C448.907 492.2 449.276 492.66 457.45 491.632C463.085 490.967 466.978 492.292 471.946 492.308C474.387 492.326 476.242 492.559 478.179 491.066C479.568 489.96 480.813 489.873 482.445 490.333C484.565 490.959 486.19 492.23 489.421 491.719C489.626 490.147 488.359 488.44 492.619 487.259C492.959 486.737 493.225 485.871 493.811 485.656C495.587 485.097 495.839 485.852 496.245 486.484C498.144 486.078 499.26 485.39 499.471 484.266C499.682 483.142 498.444 482.418 496.767 482.597C493.845 482.862 490.861 483.68 487.871 484.049C487.095 484.215 486.43 483.638 485.647 483.356C486.042 483.092 486.468 482.551 486.9 482.459C493.373 481.075 499.847 479.691 506.308 478.669C513.564 477.567 519.995 475.563 525.91 472.411C527.131 471.79 528.168 470.31 530.306 471.021C534.077 472.193 536.773 470.448 539.555 468.684C543.134 469.807 547.259 468.835 551.42 468.035C559.139 466.565 566.858 465.094 574.527 463.814C577.394 463.291 580.914 462.449 583.151 462.78C587.175 463.448 591.127 462.513 595.203 461.731C617.151 457.578 639.012 453.444 660.978 449.377C665.399 448.522 665.417 448.608 667.188 451.825C667.489 452.39 668.204 452.776 668.746 453.2C669.467 452.776 670.466 452.383 670.892 451.842C673.54 449.028 679.848 446.871 683.613 447.594C683.786 447.557 683.964 447.968 683.742 448.196C683.452 448.527 682.921 449.001 682.471 449.007C676.892 449.93 673.377 451.221 674.617 454.911C675.066 456.164 672.789 458.179 671.788 459.831C670.855 461.379 669.155 461.023 667.818 460.68C666.394 460.355 665.513 460.454 665.283 461.492C665.122 462.425 665.306 463.285 665.317 464.181C673.689 462.391 682.516 462.302 690.109 457.712C691.861 456.618 696.336 456.021 698.506 456.456C702.252 457.094 706.346 456.398 710.136 456.397C710.864 456.421 711.251 456.968 711.793 457.391C713.933 456.844 716.533 457.187 718.193 455.663C720.711 453.507 724.27 451.577 725.259 449.028C725.476 448.353 726.247 447.739 726.741 447.094C727.597 447.72 728.298 448.469 729.413 449.039C731.156 450.015 733.265 449.744 735.411 448.386C736.287 447.839 737.626 446.924 738.094 447.004C741.145 447.34 745.386 447.333 746.629 448.505C748.765 450.476 749.487 450.052 752.337 448.184C754.774 446.494 752.805 444.038 757.342 442.888C757.46 442.593 757.405 442.336 757.695 442.004C760.695 438.306 766.237 442.695 769.379 439.236C770.143 439.433 770.993 439.61 771.516 439.948C772.231 440.334 772.451 441.366 773.074 441.323C780.613 440.7 787.17 441.815 794.387 441.8C794.837 441.794 795.491 441.475 795.886 441.21C796.848 440.645 796.411 440.289 795.246 439.909C794.655 439.676 794.435 438.644 794.521 438.625C799.534 436.745 804.664 435.828 809.958 435.685C812.294 435.635 810.735 435.519 810.087 436.286C808.198 438.848 809.103 439.284 813.16 438.416C815.49 437.918 818.067 437.727 820.151 436.921C822.667 436.024 824.76 433.149 827.49 434.094C831.679 435.536 833.526 432.354 836.516 431.984C838.797 431.677 841.065 431.731 843.383 431.595C844.369 431.564 845.928 431.68 846.218 431.348C849.322 428.977 852.194 428.902 855.614 429.699C856.932 429.957 859.059 429.772 860.681 429.335C867.444 427.619 875.099 427.961 881.089 423.893C881.725 423.488 883.401 423.309 884.474 423.259C886.742 423.314 889.01 423.368 890.988 423.754C897.181 424.858 903.093 424.223 909.162 420.948C910.057 420.487 911.278 419.866 912.332 419.731C921.424 418.776 929.374 415.008 937.895 412.647C942.588 411.374 947.779 409.905 950.058 406.631C953.011 406.089 956.822 404.915 958.627 405.338C962.17 406.289 965.027 403.61 967.837 404.088C971.238 404.799 974.913 403.834 978.243 402.942C982.935 401.669 985.897 403.283 989.874 402.883C991.032 402.815 992.309 402.452 993.412 402.126C996.36 401.136 999.032 398.857 1002.56 400.17C1005.37 397.682 1010.25 397.717 1013.83 395.873C1019.13 393.213 1026.17 391.976 1029.81 387.872C1030.32 387.313 1032.94 389.001 1035.55 387.274C1037.37 386.076 1038.15 383.392 1041.91 384.116C1045.59 384.857 1046.77 381.909 1049.55 381.853C1050.62 381.804 1052.06 381.766 1052.5 382.122C1053.04 382.546 1053.03 383.356 1052.63 383.983C1052.2 384.524 1050.85 384.991 1049.98 385.538C1049 386.017 1048.04 386.582 1047.14 387.043C1047.99 387.221 1048.81 387.675 1049.69 387.576C1052.66 387.121 1055.62 386.58 1058.66 386.02C1062.2 385.263 1065.89 384.832 1069.27 383.75C1071.98 382.901 1073.84 381.065 1077.14 380.449C1080.61 379.797 1084.13 378.955 1087.53 377.958C1088.57 377.737 1089.37 376.846 1090.14 376.232C1090.74 375.654 1091.15 375.028 1091.49 374.506C1091.49 374.506 1090.53 374.26 1090 374.285C1081.31 374.614 1074.25 378.731 1066.19 380.723C1064.29 381.129 1063.54 383.537 1060.67 382.353C1059.49 381.886 1061.88 380.387 1065.5 378.353C1068.56 376.62 1071.71 375.317 1075.24 374.923C1083.15 373.95 1089.76 370.65 1096.95 368.394C1097.64 368.246 1098.32 367.202 1098.3 366.667C1098.27 366.133 1097.45 365.679 1096.82 365.274C1096.53 365.157 1095.73 365.237 1095.2 365.262C1094.11 365.226 1093.08 365.085 1092.06 364.944C1092.85 364.416 1093.52 363.734 1094.38 363.549C1096.67 362.879 1099.13 362.534 1101.44 361.95C1105.96 360.714 1111.77 360.46 1114.54 361.577C1116.71 362.46 1119.17 362.564 1122.42 362.139C1130.51 361.129 1136.76 357.454 1143.87 355.217C1151.57 352.85 1158.27 348.72 1166.9 347.686C1175.8 346.681 1182.68 343.412 1188.82 339.222C1190.56 338.042 1192.08 336.727 1194.73 336.431C1196.4 336.253 1199.31 335.902 1199.49 336.313C1200.05 337.271 1197.79 337.665 1196.38 338.236C1195.79 338.452 1195.49 339.146 1195.04 339.6L1208 338.988C1209.06 338.041 1210.04 337.114 1211.1 336.168C1210.01 336.131 1208.98 335.99 1207.89 335.954C1206.89 335.899 1205.87 335.758 1204.77 335.722C1205.44 335.04 1206.04 334.462 1206.71 333.78C1208.66 331.925 1211.63 331.47 1214.65 330.824C1222.78 329.175 1227.82 324.862 1234.51 321.992C1235.52 318.27 1240.99 315.572 1244.5 312.574C1247.24 310.191 1248.69 308.084 1247.83 305.75C1246.79 303.006 1246.99 300.537 1253.95 299.319C1260.27 295.54 1267.79 292.313 1272.9 287.896C1273.34 287.441 1273.3 286.821 1273.19 286.305C1273.15 286.133 1272.21 285.974 1271.7 286.084C1268.72 286.54 1265.65 287.376 1262.8 287.537C1259.95 287.698 1257.44 286.974 1256.23 285.525C1255.51 284.69 1257.83 282.036 1260.17 280.727C1262.51 279.419 1264.57 279.786 1266.62 280.068C1268.79 280.503 1270.8 280.613 1272.89 278.997C1274.52 277.75 1275.88 276.11 1277.83 275.514C1283.68 273.724 1282.33 272.484 1280.3 270.581C1279.61 269.918 1282.83 267.252 1282.14 266.951C1277.77 265.098 1279.06 261.855 1278.28 259.055C1277.78 257.545 1277.47 256.083 1275.58 254.868C1272.55 252.91 1271.86 250.54 1278.6 248.29C1279.36 248.038 1280.04 246.994 1280.1 246.441C1280.2 244.801 1279.85 243.168 1279.69 241.584C1279.55 239.637 1277.77 238.937 1274.25 239.332C1272.4 239.547 1272.48 239.081 1273.37 238.171C1274.26 237.262 1275.45 235.659 1274.84 235.34C1271.62 233.781 1273.86 231.594 1274.12 229.469C1274.38 227.707 1276.26 225.956 1276.24 224.611C1276.26 222.99 1273.63 221.664 1271.66 220.467C1268.95 218.798 1269.18 216.501 1268.97 214.211C1268.89 213.867 1270.66 212.859 1270.85 212.908C1274.46 213.754 1275.67 213.048 1275.71 210.702C1275.74 207.459 1273.31 204.562 1276.68 200.876C1277.55 199.881 1273.46 196.799 1270.46 196.72C1265.03 196.624 1266.2 194.935 1268.07 192.736C1268.37 192.404 1268.88 191.845 1268.79 191.863C1266.2 190.71 1265.18 189.31 1264.93 187.744C1266.31 187.449 1267.77 187.498 1269.31 187.976C1271.05 188.503 1272.9 189.547 1274.59 189.454C1278.16 189.232 1277.13 185.676 1277.89 183.355C1278.95 180.253 1280.78 177.434 1282.32 174.498C1284.11 171.058 1286.45 171.008 1290.12 171.75C1295.49 172.761 1299.14 166.226 1304.81 166.543C1305.64 166.635 1306.64 164.983 1307.34 164.025C1307.61 163.607 1307.41 162.661 1307.11 162.096C1306.52 161.053 1305.67 159.168 1304.96 159.229C1298.78 159.471 1292.25 158.89 1287.82 164.781C1285.85 167.361 1283.67 166.477 1281.12 165.496C1279.45 164.864 1276.27 164.373 1275.88 165.086C1274.57 167.795 1272.36 168.895 1270.05 169.479C1269.83 168.447 1269.44 167.453 1267.63 167.029C1261.9 165.558 1260.71 162.488 1261.51 159.079C1266.04 158.291 1270.4 157.178 1274.89 156.219C1277.65 155.628 1278.73 153.061 1280.07 150.886C1281.02 149.424 1280.95 148.27 1279.61 147.478C1277.36 146.251 1275.11 144.575 1272.79 144.263C1270.38 143.969 1267.95 145.296 1265.45 145.831C1263.64 146.219 1261.55 147.024 1259.99 146.46C1257.64 145.613 1254.59 144.017 1253.87 141.924C1253.37 140.413 1255.5 136.451 1257.33 135.702C1261.89 133.827 1266.95 133.014 1271.75 131.809C1275.18 130.985 1276.39 129.019 1276.58 124.843C1276.82 119.666 1281.87 116.25 1281.64 110.097C1281.53 105.804 1281.1 102.931 1277.1 101.986C1274.17 101.355 1271.07 101.209 1268.11 100.853C1266.15 93.8103 1261.56 96.4096 1257.33 96.8656C1253.8 97.2599 1252.26 100.196 1249.88 102.143C1247.1 104.355 1244 100.794 1241.02 100.802C1239.93 100.765 1238.55 101.509 1237.75 102.399C1235.6 105.016 1232.88 106.227 1229.71 106.996C1217.05 109.88 1203.83 110.911 1192.46 118.554C1191.98 118.837 1191.38 118.966 1190.65 118.942C1190.97 118.334 1191.57 117.756 1192.27 117.246C1192.58 117 1192.8 116.773 1192.94 116.564C1197.84 114.978 1202.49 113.085 1206.92 110.609C1207.09 110.572 1207.2 110.639 1207.37 110.602C1208.32 110.399 1209.35 109.73 1210.24 109.269C1209.99 109.324 1209.69 109.208 1209.41 109.177C1212.21 107.499 1214.96 105.564 1217.54 103.303C1216.07 100.203 1214.24 97.9863 1212.14 96.1877C1219.31 93.3971 1226.05 89.8882 1231.98 85.1145C1232.48 84.9178 1232.87 84.6536 1233.29 84.4753C1235.47 83.2893 1237.21 81.299 1239.29 80.0455C1241.76 78.5278 1244.78 83.3659 1247.55 79.4469C1249.54 76.5046 1251.95 80.5753 1254.23 80.2674C1256.06 79.9659 1257.87 79.5783 1259.67 79.1048C1260.18 78.9941 1260.45 78.1281 1260.88 77.5876C1263.53 73.9634 1265.63 69.8298 1269.65 67.5316C1270.7 66.9478 1269.93 65.4927 1268.23 65.1371C1266.62 64.763 1264.19 65.642 1264.13 63.2286C1264.12 61.5214 1266.38 58.1615 1266.78 58.3456C1271.51 60.2108 1274.83 53.7492 1277.84 55.1729C1284.35 58.1858 1286.12 54.2119 1286.47 49.5507C1286.8 45.1659 1288.48 43.7283 1291.86 43.0946C1293.68 42.7071 1295.61 42.473 1297.35 41.7416C1298.09 41.4036 1298.61 40.0339 1298.93 38.9776C1299.04 38.6828 1298.22 37.7803 1297.63 37.5472C1294.67 36.3814 1291.7 35.578 1288.81 34.3079C1283.22 31.8166 1276.17 32.1568 1273.3 24.2297C1272.9 23.235 1270.06 23.0334 1268.29 22.7823C1266.51 22.4451 1263.85 23.1032 1263.09 22.0963C1261.6 20.1685 1260.71 17.301 1260.54 14.8201C1260.46 12.3207 1261.47 9.85776 1262.01 7.31517C1258.18 7.14459 1255.78 3.52224 1252.44 2.25836C1248.24 0.730734 1243.89 3.18872 1239.61 0.506587C1237.33 -0.892761 1234.6 0.680307 1234.75 4.33417C1234.93 7.71167 1233.16 9.16773 1230.49 9.73979C1224.96 10.9208 1222.24 17.6155 1216.17 17.9248C1215.82 17.9986 1215.32 20.2648 1215.55 21.3824C1215.79 22.5 1216.73 23.9182 1217.63 24.3539C1219.93 25.3909 1222.45 25.7524 1224.74 26.7894C1227.16 27.9799 1228.54 30.2025 1229.32 33.0025C1230.1 35.8026 1229.42 39.3646 1227.45 39.875C1223.76 40.7545 1220.15 41.6155 1216.4 42.2371C1212.76 42.9262 1211 40.6055 1211.67 36.1468C1212.6 29.9256 1212.62 30.0116 1206.8 27.2993C1205.09 26.4954 1203.4 25.3293 1201.88 24.1262C1199.75 22.6039 1198.3 21.7447 1195.75 24.1775C1191.48 28.2382 1184.96 30.2609 1180.09 28.1563C1172.74 25.0515 1166.25 30.1263 1159.76 27.6476C1152.3 24.8377 1146.28 29.1816 1139.52 29.6384C1137.65 29.768 1135.82 30.5179 1133.95 30.6475C1132.15 30.6727 1129.86 30.8946 1128.56 29.9125C1122.9 25.3701 1117.01 24.8318 1110.72 27.0755C1102.34 22.9333 1094.95 24.2439 1088.17 30.5471C1087.57 31.1246 1084.91 29.6271 1083.44 28.6819C1081.14 27.1966 1081.98 25.6672 1083.75 24.6594C1087.05 22.7852 1089.75 18.0741 1094.54 21.9044C1094.87 22.1929 1096.08 21.9346 1096.26 21.5353C1098.55 17.4507 1101.54 17.0812 1105.38 19.4073C1106 19.8124 1107.53 18.4976 1108.56 17.8279C1108.73 17.791 1108.62 16.8269 1108.44 16.4155C1103.53 7.39601 1101.41 6.77041 1093.77 11.5508C1086.61 16.0486 1079.05 18.2928 1067.18 17.2346C1064.05 16.9164 1062.74 21.7806 1059.31 18.828C1057.21 17.0294 1056.45 20.2476 1055.03 21.1815C1053.45 22.2383 1051.82 23.0372 1049.83 21.7544C1046.7 19.815 1043.85 19.9757 1041.53 23.0777C1039.46 26.0384 1036.11 26.8441 1033.18 26.6609C1025.98 26.3134 1018.39 22.4534 1012.85 30.7396C1012.37 31.4706 1009.3 30.5997 1007.61 29.8818C1003.6 28.0409 999.011 28.9329 996.857 31.1015C990.839 37.1526 983.344 37.1368 976.112 38.7729C963.911 41.6512 951.605 44.462 939.348 47.0825C935.636 47.876 932.331 49.3019 929.597 52.1339C924.695 49.0467 921.314 51.3876 918.387 55.4295C910.209 54.7507 905.729 63.3498 898.177 64.335C893.788 64.9139 889.588 66.8007 885.317 67.0846C879.886 67.4366 877.327 73.1978 872.284 74.0962C869.244 74.6561 866.47 75.609 863.884 77.8698C858.935 82.1641 852.745 84.0271 846.491 82.2177C841.784 80.8867 838.535 81.3116 834.451 84.1625C829.355 87.7691 824.478 93.6663 816.839 90.4449C816.143 90.1443 814.619 91.459 813.903 92.3313C810.681 96.2566 806.752 97.7256 802.151 95.2033C798.875 93.3867 795.066 93.3021 793.362 95.4644C789.219 100.575 783.776 101.289 778.357 102.538C773.541 103.657 769.213 104.942 764.839 108.125C760.002 111.676 753.583 113.318 747.047 111.03C741.97 109.239 737.105 110.548 733.205 114.259C731.255 116.114 729.066 116.852 726.741 117.798C723.744 118.979 721.082 113.704 718.273 117.451C715.667 120.885 711.686 120.837 708.079 121.699C697.067 124.233 685.982 126.423 674.848 128.803C635.488 137.218 596.166 145.805 556.929 154.373C553.304 155.148 548.86 155.469 546.588 157.933C543.36 161.41 537.635 156.161 536.031 162.168C531.734 163.176 527.455 164.271 523.244 165.261C513.422 167.451 503.582 169.555 493.779 171.83C490.758 172.476 487.004 172.649 485.091 174.677C481.196 178.836 476.339 179.335 471.505 180.368C467.88 181.143 463.312 181.311 460.868 183.811C455.826 188.934 449.668 189.262 443.645 190.64C437.257 192.005 430.784 193.389 424.415 194.841C418.055 194.223 411.548 192.917 404.802 190.494L411.357 192.868C412.575 194.765 408.233 196.412 404.86 197.943C405.451 198.176 406.061 198.495 406.652 198.728C393.187 201.607 379.741 204.572 366.294 207.537C360.856 208.699 355.856 210.218 350.809 213.634C345.936 217.013 338.94 216.801 332.812 218.111C321.039 213.706 310.737 220.403 299.801 222.022C294.399 228.841 286.375 228.039 279.284 229.915C273.815 231.354 267.429 231.46 263.246 234.692C262.234 235.448 261.291 236.099 260.328 236.664C252.933 236.268 242.565 236.327 224.929 237.85C194.707 248.896 158.915 263.021 121.631 268.475C108.105 270.648 94.6055 266.612 96.2064 263.123C80.3357 267.415 57.3393 272.152 40.6566 275.179C-27.5553 303.157 54.969 298.639 81.8847 294.503L81.7561 293.901ZM141.005 381.47C141.133 382.071 139.402 381.992 139.019 381.894C139.223 381.581 140.222 381.187 139.341 381.286C139.68 380.764 141.339 380.499 142.06 380.075C143.366 380.695 139.359 381.372 140.986 381.384L141.005 381.47ZM153.469 380.243C152.52 380.446 151.484 380.668 150.553 380.956C151.028 380.226 151.763 379.439 152.898 378.837C154.624 378.468 153.532 379.69 153.469 380.243ZM158.907 379.08C159.432 378.159 157.403 379.222 155.868 379.64C154.69 379.622 156.257 378.928 155.116 379.082C154.624 378.468 157.878 378.491 157.404 377.963C158.644 377.429 158.532 378.172 159.568 377.95C160.653 377.538 158.804 377.754 159.748 377.103C160.198 377.096 160.666 377.176 161.338 376.943C161.048 377.274 161.035 377.637 161.195 377.962C162.965 376.954 161.615 376.973 164.47 376.812C164.598 377.414 163.026 377.66 161.75 378.023C162.218 378.103 162.773 378.164 163.395 378.121C162.439 379.134 161.022 377.999 158.907 379.08ZM166.508 377.905C165.509 378.298 165.195 378.096 164.486 378.157C164.431 377.899 165.294 377.715 165.88 377.5C166.793 377.125 165.468 376.419 167.527 376.339C167.582 376.596 167.724 376.836 167.847 376.989C166.811 377.211 166.312 377.407 166.576 377.8L166.508 377.905ZM159.689 389.072C158.087 388.335 156.551 390.012 154.808 389.037C157.551 388.36 158.649 387.586 160.19 387.616C160.11 388.083 159.006 388.409 159.671 388.986L159.689 389.072ZM123.143 462.151C125.202 462.07 120.776 462.477 122.767 462.501C122.131 462.907 120.295 462.76 119.296 463.153C119.24 462.895 120.104 462.711 120.708 462.582C121.226 462.471 120.856 462.01 121.461 461.881C121.696 461.292 121.521 462.587 123.248 462.218L123.143 462.151ZM120.23 460.346C120.23 460.346 119.965 459.953 119.534 460.046C122.044 458.7 120.124 461.538 117.887 461.207C117.604 460.728 119.576 460.666 120.23 460.346ZM115.348 460.311C115.953 460.182 115.701 459.427 115.029 459.66C117.181 458.751 115.879 459.838 117.426 460.317C116.662 460.12 115.095 460.815 114.331 460.619C114.258 460.275 115.225 460.158 115.281 460.416L115.348 460.311ZM114.13 463.898C113.986 464.918 112.144 464.323 110.337 465.158C109.636 464.409 113.575 463.837 114.13 463.898ZM112.914 464.967C115.232 464.831 115.25 464.917 117.278 465.113C117.443 465.887 115.28 465.9 114.738 465.476C112.874 467.313 109.201 467.019 106.635 468.107C105.897 467.186 104.804 468.409 103.344 467.912C105.059 466.646 110.927 466.65 112.896 464.881L112.914 464.967ZM101.895 468.312C102.024 468.913 101.579 469.368 100.303 469.731C99.8164 469.565 99.3977 469.295 99.3553 468.675C100.459 468.349 101.254 468.269 101.895 468.312ZM69.5175 482.785C68.1988 482.528 69.3153 481.84 68.9093 481.207C71.1535 480.727 70.3823 481.342 72.8799 480.358C73.9947 480.929 71.295 480.967 71.6642 481.427C71.8112 482.115 74.766 480.315 74.3823 481.476C72.3292 482.004 71.0288 481.833 69.4991 482.699L69.5175 482.785ZM31.0092 495.603C31.0532 494.964 32.6068 494.632 33.6738 494.134C34.3259 495.074 32.1496 495.449 31.0092 495.603ZM49.9857 491.906C51.3243 490.99 52.4023 491.389 53.9192 490.885C53.9927 491.229 54.1342 491.468 54.2941 491.793C52.3272 492.304 51.0453 492.218 49.9857 491.906ZM75.5116 480.425C76.1709 480.554 77.361 480.209 78.551 479.865C78.7165 480.639 75.4604 481.874 75.5116 480.425ZM80.8198 484.145C80.0686 483.586 83.7617 482.707 83.5396 482.934C84.3275 483.664 81.7325 483.77 80.8198 484.145ZM89.492 484.178C89.9308 483.275 92.8527 483.01 93.9804 483.219C94.4471 484.557 90.3608 484.442 89.492 484.178ZM85.995 471.621C86.9389 470.97 89.6202 470.846 90.3035 471.509C88.6891 471.135 86.9429 472.677 85.995 471.621ZM87.8094 460.266C88.8029 459.424 88.2482 459.363 87.6145 458.509C90.1855 457.87 90.9552 458.514 91.9247 457.138C94.0697 457.039 97.069 458.825 93.5669 459.754C93.8275 458.44 89.3375 460.658 87.8094 460.266ZM91.1357 461.892C90.748 461.346 93.3799 461.412 92.3513 460.823C92.9922 460.866 93.7876 460.786 94.8913 460.46C95.9805 461.755 92.2632 462.1 91.1541 461.978L91.1357 461.892ZM94.5273 470.157C94.5033 469.622 96.9073 469.468 97.8017 469.007C98.1086 470.02 95.3961 470.42 94.5273 470.157ZM110.333 473.16C108.021 473.744 105.795 474.31 103.483 474.894C103.207 473.605 101.937 474.416 100.247 474.957C98.8789 474.89 103.095 474.348 100.803 473.759C102.616 473.372 103.386 474.016 104.934 473.236C104.989 473.494 105.044 473.752 105.167 473.905C106.789 473.468 107.542 472.768 109.532 472.792C109.964 472.7 109.804 472.374 109.854 472.184C111.339 471.956 109.619 472.773 110.228 473.093L110.333 473.16ZM113.194 472.189C112.706 473.282 112.221 471.858 111.549 472.091C111.747 471.33 113.819 470.887 115.163 470.419C116.419 471.23 111.253 471.975 113.194 472.189ZM125.284 470.054C124.601 469.391 125.409 468.948 125.662 468.444C127.216 468.112 128.343 468.321 128.613 469.162C127.491 469.402 126.301 469.746 125.198 470.072L125.284 470.054ZM129.649 468.94C130.619 467.565 127.813 468.794 127.95 467.326C131.26 467.607 135.562 467.047 138.966 466.499C136.492 468.017 131.987 467.632 129.735 468.922L129.649 468.94ZM385.459 501.09C384.01 501.49 382.438 501.736 380.885 502.068C380.885 502.068 380.903 502.154 380.921 502.24L380.539 502.142C380.539 502.142 380.798 502.087 380.971 502.05C380.916 501.792 381.033 501.497 381.151 501.202C381.676 500.281 383.107 499.795 385.024 499.475C385.455 499.383 386.392 499.542 386.342 499.733C386.262 500.199 385.977 500.979 385.546 501.072L385.459 501.09ZM424.378 490.612C426.48 489.893 428.669 489.155 429.101 489.063C433.195 488.367 435.611 487.851 437.163 488.777C437.477 488.98 437.569 489.41 437.366 489.723C437.026 490.245 436.069 491.259 435.878 491.21C434.233 491.112 432.809 490.787 431.164 490.689C428.964 490.53 425.719 492.663 424.396 490.698L424.378 490.612ZM440.744 494.125C440.744 494.125 439.35 494.783 438.523 495.139C438.523 495.139 438.56 495.311 438.388 495.348C438.301 495.366 438.129 495.403 438.042 495.422C437.807 496.011 437.745 496.564 437.091 496.884C436.111 497.363 435.051 497.05 435.65 496.473C436.008 496.036 437.111 495.711 438.042 495.422C438.042 495.422 438.006 495.25 438.178 495.213C438.265 495.194 438.437 495.157 438.523 495.139C438.659 494.93 438.691 494.654 438.826 494.445C438.944 494.15 439.148 493.837 439.475 493.677C440.35 493.13 441.342 493.547 440.744 494.125ZM1234.39 30.1205C1234.39 30.1205 1235.42 30.7097 1235.62 31.2071C1235.65 31.379 1235.69 31.5509 1235.57 31.8458C1235.54 32.1221 1235.41 32.331 1235.29 32.6258C1235.29 32.6258 1234.86 32.718 1234.68 32.7549C1234.51 32.7919 1234.34 32.8288 1234.13 32.6937C1233.01 32.123 1233.07 31.122 1234.31 30.139L1234.39 30.1205ZM193.446 365.853C192.929 365.963 192.874 365.705 192.664 365.57C193.182 365.46 193.632 365.453 194.236 365.324C206.748 360.941 210.236 356.15 210.316 351.458C212.77 351.113 215.908 350.173 218.423 350.534C220.23 349.698 222.476 347.96 223.805 349.114C225.359 348.782 224.867 348.168 225.952 347.756C227.006 347.62 226.332 349.113 227.455 348.873C227.308 348.185 228.848 348.215 229.565 347.343C230.784 347.981 233.269 347.36 234.248 348.14C232.94 348.779 229.444 350.156 231.527 350.609C232.558 348.681 235.746 347.55 238.564 347.217C239.864 347.388 241.232 347.456 242.514 347.541C242.81 347.658 243.105 347.774 243.333 347.995C243.937 347.866 243.901 347.694 243.796 347.627C244.628 347.718 245.528 347.706 246.36 347.798C246.483 347.951 246.606 348.105 246.747 348.344C246.057 348.492 245.453 348.621 244.781 348.854C245.203 350.832 247.515 350.248 250.105 349.694C249.747 350.13 249.302 350.585 249.067 351.174C247.119 351.771 244.456 351.98 241.521 352.608C241.015 353.615 241.841 353.259 242.969 353.467C241.871 354.241 240.317 354.573 238.64 354.752C238.702 354.199 238.783 353.733 238.846 353.18C239.518 352.946 240.171 352.627 240.948 352.461C240.875 352.117 240.493 352.019 240.197 351.902C239.852 351.976 239.507 352.05 239.248 352.105C239.598 352.479 239.376 352.707 238.963 352.885C239.007 352.246 239.051 351.608 239.095 350.969C239.458 350.981 239.736 351.012 239.945 351.147C241.931 350.722 242.678 349.574 244.255 349.776C244.749 349.131 243.4 349.15 244.775 348.406C242.735 348.573 241.236 349.163 243.128 349.567C242.006 349.807 240.625 350.103 239.157 350.416C239.102 350.158 237.488 349.784 236.601 349.435C236.538 349.987 236.458 350.454 236.395 351.007C234.669 351.376 233.066 351.898 231.986 352.759C232.917 352.47 233.163 352.777 234.008 352.506C233.953 352.248 235.124 351.818 236.314 351.474C236.252 352.026 236.19 352.579 236.06 353.236C236.06 353.236 236.183 353.39 236.287 353.457C235.942 353.531 235.683 353.586 235.51 353.623C235.769 353.568 236.115 353.494 236.084 353.77C235.479 353.9 234.702 354.066 234.69 354.428C235.312 354.385 235.984 354.151 236.675 354.004C237.026 354.378 237.272 354.685 237.623 355.059C235.428 355.349 233.233 355.638 231.987 356.984C233.281 356.707 234.699 356.583 236.672 356.521C227.904 358.576 223.583 359.05 214.975 361.43C214.902 361.086 215.66 360.834 215.673 360.471C213.638 361.086 213.391 362.038 211.183 362.69C211.042 362.45 211.036 362.002 210.432 362.131C210.506 362.475 209.433 362.525 208.965 362.445C208.871 363.274 210.66 362.352 210.788 362.954C208.093 364.699 204.093 364.565 200.343 366.446C199.246 365.961 196.953 366.631 195.461 366.411C195.269 367.621 196.55 367.706 194.762 368.628C193.419 367.836 190.8 367.407 193.637 365.902L193.446 365.853ZM166.675 396.838C166.855 395.99 168.315 396.487 168.697 396.585C168.425 397.003 167.235 397.347 166.409 397.704C166.353 397.446 166.976 397.403 167.303 397.243C167.248 396.985 167.038 396.85 166.607 396.942L166.675 396.838ZM168.177 397.955C170.266 398.857 173.542 396.448 174.831 395.723C175.736 396.159 177.104 396.226 178.3 396.33C178.294 395.882 177.308 395.913 178.067 395.661C179.62 395.328 180.335 395.715 181.358 395.856C181.211 395.168 181.538 395.008 182.296 394.756C184.241 396.678 186.299 397.856 188.436 398.568C186.284 399.477 182.912 399.749 181.39 399.805C180.009 400.1 182.191 400.173 181.623 400.474C176.033 400.5 170.881 399.624 167.092 398.367C167.314 398.139 167.659 398.065 168.159 397.869L168.177 397.955ZM236.46 386.772C236.46 386.772 235.683 386.938 235.338 387.012C235.751 386.834 236.164 386.656 236.577 386.477C236.577 386.477 236.441 386.686 236.46 386.772ZM229.043 379.099C227.68 379.48 227.094 379.695 226.336 379.947C226.299 379.775 226.262 379.603 226.225 379.431C227.36 378.829 228.618 378.38 228.975 379.203L229.043 379.099ZM190.584 368.083C191.878 367.806 191.631 368.758 192.925 368.481C192.314 369.421 189.313 368.894 190.584 368.083ZM183.929 371.573C183.418 370.873 184.522 370.548 183.734 369.817C185.306 369.571 187.822 368.673 188.419 369.355C184.239 370.069 185.736 370.738 183.929 371.573ZM169.898 387.428C171.248 387.409 171.632 386.249 172.383 386.807C172.475 387.237 170.798 387.416 171.167 387.876C172.703 387.458 172.868 388.232 174.78 387.463C175.108 386.045 182.23 383.893 181.611 385.643C183.554 384.599 184.867 384.408 182.63 384.077C184.621 384.101 187.637 383.007 186.799 382.467C187.064 382.86 188.458 382.202 188.586 382.804C188.437 383.375 185.651 383.431 186.439 384.162C186.759 384.812 189.732 383.098 190.052 383.749C188.757 384.026 189.995 384.75 188.405 384.91C189.275 383.915 187.376 384.321 186.241 384.923C187.012 384.309 186.057 384.063 184.454 384.586C186.087 385.046 185.624 385.415 184.076 386.195C186.992 385.482 189.982 385.112 192.553 384.473C191.604 384.676 193.997 383.625 193.627 383.164C197.247 381.941 198.503 382.751 202.105 381.442C201.383 381.866 201.87 382.031 202.27 382.215C201.925 382.289 201.666 382.345 201.407 382.4C200.23 382.382 198.127 383.101 198.041 383.12C198.645 382.99 198.441 383.304 198.151 383.635C199.304 383.119 200.254 382.916 200.999 383.026C200.728 383.444 200.511 384.12 200.331 384.967C200.159 385.004 199.986 385.041 199.813 385.078C199.721 384.648 199.389 384.36 198.921 384.28C198.008 384.655 195.413 384.76 196.201 385.491C199.543 384.237 198.284 385.944 200.157 386.263C200.194 386.435 200.126 386.539 200.076 386.73C200.131 386.988 199.909 387.215 199.792 387.51C198.497 387.787 197.289 388.045 196.13 388.113C196.666 388.088 196.98 388.291 196.203 388.457C194.822 388.752 193.75 388.802 192.967 388.519C193.515 389.391 193.077 389.035 191.696 389.331C191.788 389.76 192.411 389.717 192.589 390.129C190.776 390.516 189.296 391.192 188.002 391.469C187.219 391.187 186.418 390.819 185.563 390.192C185.335 389.971 185.058 389.941 184.83 389.72C187.895 388.435 192.326 388.477 194.324 387.69C193.16 387.31 190.971 388.047 189.961 387.544C193.567 386.683 195.119 387.61 197.364 387.13C196.656 385.933 194.375 386.241 192.625 386.075C191.382 384.903 196.658 384.674 197.313 383.095C194.779 383.907 192.195 384.909 190.517 386.346C188.379 385.635 186.622 386.28 183.632 386.65C185.129 387.319 184.945 386.459 184.703 387.859C185.966 387.859 186.282 386.802 186.688 387.435C186.471 388.11 184.381 388.467 184.165 389.143C182.969 389.039 182.501 388.959 181.125 389.703C181.125 389.703 181.144 389.789 181.248 389.856C180.989 389.912 180.854 390.12 180.613 390.262C180.613 390.262 180.681 390.157 180.576 390.09C179.867 390.151 179.449 389.881 179.252 389.384C180.547 389.107 181.823 388.744 183.186 388.363C182.071 387.793 183.169 387.018 181.024 387.117C181.066 387.738 182.084 387.43 181.972 388.173C180.418 388.505 177.711 389.354 177.663 388.285C178.088 389.004 171.979 389.141 174.567 389.846C173.618 390.049 172.927 390.197 172.404 389.859C171.807 389.178 172.337 388.705 172.209 388.103C171 388.361 170.064 388.202 168.973 388.166C169.749 388 168.998 387.441 169.67 387.207L169.898 387.428ZM170.328 388.595C169.735 389.621 168.257 389.038 168.736 390.014C166.615 390.647 166.178 390.291 164.802 391.035C164.767 389.604 167.911 389.112 170.242 388.613L170.328 388.595ZM166.661 388.75C163.652 389.033 167.013 387.865 168.431 387.742C168.177 388.246 167.647 388.719 166.839 389.161C165.698 389.315 164.231 389.629 163.226 389.574C163.592 388.327 164.989 389.377 166.642 388.664L166.661 388.75ZM170.878 392.433C170.878 392.433 169.886 392.016 170.645 391.764C171.932 392.298 173.148 391.229 175.133 390.804C175.484 391.179 175.699 391.762 176.957 391.313C175.855 390.38 178.949 390.078 179.3 390.453C179.263 390.281 179.208 390.023 179.621 389.844C180.459 390.385 177.579 391.27 179.102 391.214C179.028 390.87 179.891 390.686 180.391 390.489C179.879 391.048 179.625 391.552 179.631 392C178.626 391.945 179.484 391.312 177.653 391.614C178.163 392.314 175.616 393.488 174.47 393.193C174.637 392.708 175.883 392.622 174.65 392.346C173.662 393.636 171.253 393.342 171.751 394.404C169.359 394.196 168.976 395.357 166.171 395.327C165.782 396.04 166.768 396.009 166.028 396.347C165.246 396.064 164.647 396.642 163.993 396.961C162.583 396.274 161.518 395.513 161.161 394.69C163.671 393.344 168.259 392.004 170.927 392.243L170.878 392.433ZM139.668 428.412C139.999 429.96 137.294 429.549 134.605 430.483C135.044 429.581 138.484 429.205 139.668 428.412ZM124.716 432.778C124.716 432.778 123.753 433.343 122.89 433.527C122.644 433.221 123.23 433.005 123.07 432.68C123.015 432.422 122.429 432.637 121.998 432.729C122.387 432.017 125.136 431.789 124.716 432.778C128.335 431.554 131.189 431.394 135.097 431.097C132.168 432.173 128.925 433.046 125.75 433.815C125.867 433.52 126.989 433.28 126.916 432.937C125.966 433.139 124.758 433.398 124.716 432.778ZM121.984 452.51C121.121 452.694 120.172 452.897 119.222 453.1L122.183 451.748C122.183 451.748 122.484 452.313 121.984 452.51ZM122.596 451.57L124.816 450.556C125.352 450.531 125.821 450.611 126.116 450.727C125.253 450.912 123.705 451.692 122.596 451.57ZM143.892 450.703C142.764 450.494 141.865 450.507 142.998 451.164C140.902 451.072 137.215 452.4 135.736 451.817C135.521 451.234 136.261 450.896 135.683 450.3C138.02 448.991 142.65 448.271 145.807 447.417C145.543 447.024 145.21 446.735 144.483 446.711C144.766 447.19 144.389 447.54 143.267 447.78C142.639 447.375 142.621 447.289 142.837 446.613C141.647 446.957 140.457 447.302 140.261 446.804C140.951 446.657 141.555 446.528 142.228 446.294C141.97 445.09 137.926 445.595 136.791 446.198C137.587 446.118 138.16 446.265 138.578 446.535C137.906 446.768 137.894 447.131 137.308 447.346C135.304 447.684 136.365 446.738 135.342 446.597C134.626 447.47 134.714 446.192 134.215 446.389C133.943 446.807 133.776 447.292 132.568 447.55C132.531 447.378 132.494 447.206 132.371 447.053L135.485 445.578C135.485 445.578 135.633 446.266 136.699 445.768C136.663 445.596 136.663 445.596 136.54 445.442C142.093 445.244 145.902 445.329 148.503 445.671C147.695 446.114 146.887 446.556 145.783 446.882C147.805 446.63 150.215 446.924 152.36 446.825C152.815 447.267 152.994 447.678 152.845 448.249C152.672 448.286 152.586 448.305 152.345 448.446C152.272 448.102 152.876 447.973 152.525 447.598C148.592 448.619 150.191 446.389 146.017 447.552C145.332 448.147 145.201 448.805 144.048 449.321C145.275 449.148 144.546 450.383 144.046 450.58L143.892 450.703ZM140.987 462.022C140.987 462.022 141.06 462.366 141.097 462.537C140.598 462.734 140.012 462.949 139.149 463.134C138.952 462.636 140.037 462.225 140.901 462.04L140.987 462.022ZM139.718 465.799C141.482 465.602 140.674 466.044 142.758 465.239C143.392 466.092 139.52 466.56 139.718 465.799ZM171.458 468.183C171.001 468.999 168.696 468.773 168.74 468.134C170.547 467.299 170.163 468.459 171.458 468.183ZM230.59 440.797C230.788 440.035 231.091 439.341 231.672 438.678C231.782 439.194 232.083 439.759 232.193 440.275C232.107 440.293 232.058 440.483 231.885 440.52C231.453 440.613 231.022 440.705 230.59 440.797ZM589.826 424.764C589.826 424.764 589.999 424.727 590.085 424.709C589.865 423.677 590.735 422.682 592.462 422.313C595.828 421.593 599.268 421.217 602.639 420.946C603.157 420.835 603.6 421.64 603.969 422.1C604.056 422.082 604.228 422.045 604.315 422.026C604.315 422.026 604.351 422.198 604.456 422.266C605.27 422.272 606.237 422.155 606.656 422.425C607.284 422.83 606.513 423.444 605.576 423.285C605.003 423.138 604.72 422.659 604.456 422.266C604.283 422.303 604.197 422.321 604.024 422.358C604.024 422.358 604.024 422.358 604.006 422.272C603.093 422.647 602.076 422.954 601.545 423.427C598.837 425.535 596.038 425.953 592.877 425.101C592.113 424.905 591.04 424.954 590.122 424.881C590.036 424.899 589.863 424.936 589.777 424.955C589.641 425.163 589.61 425.44 589.474 425.649C589.356 425.943 589.153 426.257 588.826 426.416C587.845 426.896 586.89 426.651 587.47 425.987C587.915 425.532 588.846 425.244 589.691 424.973C589.691 424.973 589.672 424.887 589.74 424.783L589.826 424.764ZM611.59 439.169C611.59 439.169 612.558 439.052 612.94 439.151C613.877 439.31 614.986 439.432 615.7 439.819C616.292 440.052 616.42 440.654 616.771 441.028C615.772 441.422 614.755 441.729 613.842 442.104C611.838 442.443 610.588 442.081 610.626 440.994C610.602 440.459 611.182 439.796 611.59 439.169ZM399.024 445.061C400.355 444.956 401.687 444.851 403 444.66C402.882 444.955 402.851 445.231 402.82 445.507C401.852 445.625 400.829 445.484 399.905 444.962C399.696 444.827 399.351 444.901 399.006 444.975L399.024 445.061ZM455.242 488.059C450.747 489.829 447.742 487.595 443.562 488.308C443.13 488.401 442.533 487.719 442.096 487.363C443.095 486.97 444.162 486.472 445.161 486.079C446.746 485.47 447.567 484.665 447.814 483.713C447.814 483.713 447.728 483.732 447.642 483.75C447.642 483.75 447.605 483.578 447.587 483.492C446.119 483.806 444.566 484.138 443.062 484.28C442.63 484.372 441.761 484.109 441.761 484.109C442.033 483.691 442.336 482.997 442.835 482.8C444.266 482.314 445.856 482.154 447.41 481.822C447.41 481.822 447.392 481.736 447.373 481.65C447.373 481.65 447.373 481.65 447.46 481.632C446.517 481.024 445.575 480.416 444.806 479.772C444.264 479.348 443.321 478.741 443.661 478.219C445.545 475.209 448.68 472.561 453.798 470.747C454.402 470.618 455.48 471.017 456.398 471.09C454.38 473.05 452.43 474.905 456.046 476.2C458.88 477.212 461.944 477.187 465.655 476.393C466.173 476.282 466.678 476.534 467.288 476.853C467.479 476.902 467.688 477.037 467.879 477.086C467.639 477.228 467.503 477.436 467.262 477.578C467.022 477.719 466.868 477.842 466.609 477.897C460.308 479.244 453.884 480.438 447.546 481.613C447.546 481.613 447.651 481.681 447.755 481.748C447.669 481.767 447.583 481.785 447.496 481.804C447.625 482.405 447.649 482.94 447.691 483.56C447.778 483.541 447.95 483.505 448.037 483.486C448.055 483.572 447.901 483.695 447.919 483.781C452.413 483.27 454.377 485.277 457.538 486.129C457.92 486.228 458.166 486.535 458.48 486.737C457.481 487.13 456.414 487.628 455.415 488.022L455.242 488.059ZM480.549 483.997C480.549 483.997 479.969 484.66 479.469 484.857C479.21 484.912 478.52 485.06 478.311 484.925C476.567 483.949 475.287 482.604 473.168 481.979C470.075 481.022 469.956 482.576 469.522 483.927C469.355 484.412 468.375 484.891 467.671 485.401C467.13 484.978 466.31 484.524 466.2 484.008C465.601 480.36 466.082 480.078 474.164 478.619C478.517 477.868 479.472 478.114 479.999 480.159C480.257 481.362 480.532 482.652 480.549 483.997ZM507.156 475.881C507.156 475.881 506.515 475.838 506.151 475.826C506.114 475.654 505.973 475.415 506.041 475.31C506.639 474.733 507.435 474.653 508.099 475.23C508.099 475.23 507.482 475.721 507.069 475.899L507.156 475.881ZM511.023 463.997C510.362 465.127 509.437 465.864 507.433 466.203C505.103 466.701 502.174 467.776 500.405 467.525C494.249 466.594 487.812 468.15 481.419 469.067C480.556 469.252 479.355 468.7 478.985 468.239C478.352 467.386 478.822 466.207 480.665 465.543C482.941 464.786 485.062 464.153 484.885 462.483C480.867 462.263 477.318 460.864 472.531 464.225C470.575 465.632 465.854 465.922 462.278 466.507C461.588 466.655 460.627 465.961 460.239 465.415C459.396 464.426 460.593 463.271 462.32 462.902C475.304 460.306 488.429 457.95 501.431 455.439C504.107 454.867 505.635 455.26 506.398 456.715C506.84 457.519 508.387 457.998 509.57 458.464C510.771 459.016 513.18 459.31 513.136 459.949C513.116 461.122 511.524 462.541 510.814 463.862L511.023 463.997ZM627.485 449.346C625.235 449.377 623.122 449.2 620.853 449.145C617.963 449.134 615.059 449.485 612.481 450.935C611.587 451.396 610.248 452.312 609.78 452.232C601.159 450.749 592.382 454.873 583.721 455.736C577.982 456.333 572.414 458.153 566.418 457.547C562.554 457.205 557.14 458.902 552.442 459.726C543.133 461.357 533.853 463.97 524.72 463.046C521.947 462.74 518.048 465.192 515.603 463.467C518.521 461.495 522.33 461.579 525.697 460.859C528.631 460.232 531.584 459.691 534.538 459.149C539.303 458.22 544.001 457.396 548.767 456.467C552.306 455.71 555.585 455.009 558.626 453.19C560.946 451.795 564.621 450.83 566.777 451.627C569.906 452.756 571.833 450.366 574.082 450.335C576.868 450.279 579.623 450.499 582.002 451.069C584.83 451.633 587.691 450.662 590.545 450.501C594.299 450.328 596.633 447.312 599.874 447.697C603.966 448.261 608.017 446.945 612.043 446.354C615.551 445.874 619.194 445.185 622.733 444.428C625.927 443.746 628.627 443.708 630.733 444.696C631.83 445.181 632.636 445.997 632.993 446.82C633.367 447.729 630.167 449.222 627.639 449.223L627.485 449.346ZM691.225 452.799C689.578 453.96 688.829 456.368 685.095 455.368C682.889 454.761 682.252 456.425 680.853 456.635C680.076 456.801 678.48 456.513 678.529 456.322C678.796 455.456 678.988 454.246 680.037 453.663C681.24 452.956 683.28 452.789 684.661 452.494C686.683 452.242 688.409 451.873 690.104 451.78C691.695 451.62 692.255 452.129 691.311 452.78L691.225 452.799ZM708.298 443.575C708.298 443.575 707.435 443.76 707.176 443.815C706.239 443.656 706.406 443.17 707.646 442.636C707.818 442.599 708.41 442.832 708.637 443.053C708.656 443.139 708.366 443.471 708.211 443.594L708.298 443.575ZM719.22 447.802C719.22 447.802 717.988 447.526 718.038 447.336C717.982 447.078 718.926 446.427 719.117 446.476C720.781 446.66 720.787 447.108 719.22 447.802ZM729.179 439.92C729.179 439.92 728.032 439.626 727.996 439.454C727.941 439.196 728.885 438.544 729.076 438.593C730.74 438.777 730.745 439.225 729.179 439.92ZM732.922 443.075C732.922 443.075 731.881 442.848 731.844 442.676C731.807 442.504 732.461 442.185 732.856 441.921C733.219 441.933 733.583 441.945 733.965 442.043C733.589 442.393 733.317 442.811 732.94 443.161L732.922 443.075ZM750.063 433.747C750.063 433.747 749.28 433.465 748.985 433.348C749.293 433.102 749.688 432.838 749.996 432.592C750.36 432.605 750.637 432.635 751.001 432.647C750.711 432.979 750.334 433.329 750.044 433.661L750.063 433.747ZM823.125 425.498C821.94 426.291 820.232 426.746 818.58 427.459C816.934 427.361 815.461 427.226 813.902 427.11C814.796 426.649 815.672 426.103 816.653 425.623C817.633 425.144 818.632 424.75 819.631 424.357C820.131 424.16 820.612 423.878 821.093 423.595C822.142 423.011 823.214 422.962 823.639 423.68C823.921 424.159 823.76 425.093 823.125 425.498ZM835.877 411.265C835.877 411.265 835.569 411.51 835.31 411.566C835.051 411.621 834.582 411.542 834.305 411.511C834.268 411.339 834.232 411.167 834.281 410.977C834.99 410.915 835.717 410.939 836.426 410.878C836.253 410.915 836.118 411.123 835.877 411.265ZM862.41 426.448C862.41 426.448 861.628 426.166 861.246 426.068C861.641 425.804 861.949 425.558 862.344 425.294C862.708 425.306 863.071 425.318 863.435 425.33C863.058 425.68 862.768 426.012 862.41 426.448ZM875.799 416.034C875.799 416.034 875.103 415.734 874.598 415.482C874.992 415.218 875.591 414.64 875.782 414.69C877.446 414.873 877.452 415.321 875.799 416.034ZM902.604 407.157C902.604 407.157 902.554 407.348 902.468 407.366C902.468 407.366 902.209 407.421 902.036 407.458C902.071 408.889 900.418 409.602 898.07 410.014C897.638 410.107 897.065 409.96 896.665 409.775C895.882 409.493 896.117 408.904 897.461 408.436C898.892 407.951 900.482 407.791 902.036 407.458C902.036 407.458 902.018 407.372 901.999 407.286C902.172 407.25 902.345 407.213 902.517 407.176C902.771 406.672 903.024 406.168 903.382 405.732C903.382 405.732 904.504 405.492 904.522 405.578C905.002 406.555 903.812 406.899 902.517 407.176L902.604 407.157ZM949.571 406.465C949.571 406.465 949.553 406.379 949.534 406.293C946.187 407.099 942.056 407.622 939.91 408.98C936.819 410.989 933.968 408.632 930.951 410.985C928.946 412.583 924.384 413.198 921.615 414.6C918.364 416.283 914.925 416.659 911.454 417.311C909.555 417.717 908.15 417.478 907.566 416.435C906.963 415.305 908.197 414.322 909.905 413.867C912.803 413.067 915.774 412.612 918.691 411.899C919.208 411.788 919.579 410.989 919.66 410.523C919.642 410.437 918.773 410.173 918.237 410.198C916.492 410.481 914.679 410.868 912.916 411.065C912.398 411.176 911.893 410.925 911.425 410.845C910.643 410.563 910.946 409.869 912.499 409.536C917.037 408.386 921.562 407.599 925.775 405.35C928.199 404.022 933.359 402.829 935.787 403.209C940.471 404.006 947.74 402.542 949.343 406.244C949.43 406.226 949.602 406.189 949.775 406.152L949.466 406.398L949.571 406.465ZM1274.09 243.68C1274.09 243.68 1274.96 243.943 1275.34 244.042C1274.95 244.306 1274.57 244.656 1274.09 244.939C1273.69 244.755 1273.29 244.57 1272.8 244.405C1273.2 244.141 1273.64 243.686 1274.07 243.594L1274.09 243.68ZM1270.79 207.977C1270.94 208.665 1270.53 209.291 1269.83 209.801C1269.12 210.311 1268.11 210.618 1266.78 210.723C1266.48 210.607 1265.99 210.441 1265.59 210.257C1265.19 210.073 1264.9 209.956 1264.98 209.938C1266.35 208.746 1267.85 207.708 1269.32 206.583C1269.78 207.025 1270.66 207.375 1270.69 207.909L1270.79 207.977ZM1274.32 174.679C1273.85 175.858 1273.4 177.123 1272.7 178.082C1271.67 179.562 1270.54 181.061 1269.12 181.995C1267.85 182.806 1266.53 182.548 1265.69 181.56C1266.43 179.963 1267.15 178.28 1267.37 176.794C1267.45 175.879 1268.17 175.006 1268.86 174.048C1269.55 173.901 1270.24 173.753 1270.93 173.605C1272.1 173.986 1273.25 174.28 1274.41 174.66L1274.32 174.679ZM1223.91 125.495C1224.34 125.402 1224.94 126.084 1225.47 126.421C1225.13 126.944 1224.75 127.742 1224.32 127.834C1223.89 127.927 1223.29 127.245 1222.68 126.926C1223.2 126.367 1223.48 125.587 1223.91 125.495ZM1191.46 72.9205C1192.52 73.2333 1193.69 73.6136 1194.75 73.9264C1193.82 74.6637 1192.99 75.8308 1191.95 76.0522C1190.92 76.2737 1189.75 75.445 1188.58 75.0647C1189.51 74.3274 1190.52 73.5717 1191.44 72.8345L1191.46 72.9205ZM1183.3 79.0705C1183.3 79.0705 1183.95 79.5616 1184.28 79.8501C1183.62 80.1697 1182.95 80.4033 1182.39 80.7044C1182.29 80.2745 1182.98 79.6786 1183.4 79.1381L1183.3 79.0705ZM1075.05 43.061C1075.05 43.061 1075.98 43.5827 1076.34 44.0432C1076.49 44.2826 1076.25 44.8722 1076.15 45.253C1075.72 45.3453 1075.24 45.6279 1074.94 45.5114C1073.85 45.0266 1073.9 44.0256 1075.14 43.0426L1075.05 43.061ZM1063.53 29.7022C1064.02 28.609 1064.94 28.6823 1065.84 29.9286C1065.85 30.0146 1065.33 30.9359 1064.93 31.2001C1064.69 31.3415 1064.17 31.0039 1063.79 30.9058C1063.7 30.4759 1063.41 29.997 1063.53 29.7022ZM1066.35 120.976C1067.47 120.736 1068.42 120.981 1069.26 121.521C1067.81 121.472 1066.28 121.528 1064.8 121.756C1065.26 121.387 1065.76 121.191 1066.35 120.976ZM1040.77 30.0726C1041.38 30.3917 1042.08 30.6924 1042.69 31.0115C1042.44 31.5152 1042.08 31.9513 1041.82 32.455C1041.39 32.099 1040.95 31.7429 1040.51 31.3869L1040.79 30.1586L1040.77 30.0726ZM1028.16 112.508C1028.16 112.508 1029.12 113.202 1029.56 113.558C1029.2 113.994 1028.93 114.86 1028.57 114.848C1028.14 114.94 1027.63 114.24 1027.11 113.903C1027.46 113.467 1027.8 112.945 1028.25 112.49L1028.16 112.508ZM987.013 121.845C987.458 121.39 987.761 120.696 988.26 120.5C992.614 118.49 996.601 118.986 1000.1 123.093C1000.45 123.468 1000.68 124.137 1000.58 124.518C1000.35 125.107 999.717 125.961 999.335 125.863C996.612 125.367 993.956 124.766 991.282 124.079C990.857 123.361 990.433 122.642 990.163 121.801C989.287 122.348 988.479 122.79 987.689 123.319C987.498 123.27 987.221 123.239 987.03 123.19C987.03 123.19 987.037 122.379 987.032 121.931L987.013 121.845ZM976.441 123.476C976.441 123.476 977.364 123.998 977.734 124.458C977.875 124.698 977.535 125.22 977.368 125.705C977.023 125.779 976.524 125.976 976.228 125.859C975.113 125.288 975.188 124.373 976.459 123.562L976.441 123.476ZM212.877 340.213C212.877 340.213 213.609 340.686 214.028 340.956C214.212 341.815 214.346 342.865 214.53 343.725C212.631 344.131 210.769 344.709 209.055 344.716C209.055 344.716 208.883 344.753 208.901 344.839C208.809 344.409 208.545 344.016 208.453 343.586C210.1 342.425 211.575 341.3 212.944 340.109L212.877 340.213Z" fill="#F5F5F5"/>
</svg>
