<svg width="72" height="72" viewBox="0 0 72 72" fill="none" xmlns="http://www.w3.org/2000/svg">
<rect width="72" height="72" rx="36" fill="#215273"/>
<path d="M34.3742 23.3874H30.14C29.7796 23.3874 29.4868 23.0946 29.4868 22.7343V20.3694C29.4868 18.8379 30.7255 17.5991 32.2571 17.5991C33.7886 17.5991 35.0274 18.8379 35.0274 20.3694V22.7343C35.0274 23.0946 34.7346 23.3874 34.3742 23.3874ZM30.7931 22.0811H33.721V20.3469C33.721 19.5361 33.0679 18.8829 32.2571 18.8829C31.4463 18.8829 30.7931 19.5361 30.7931 20.3469V22.0811Z" fill="white"/>
<path d="M47.257 36.4506C46.8966 36.4506 46.6038 36.1578 46.6038 35.7974V21.3155C46.6038 19.9641 45.5002 18.8605 44.1489 18.8605H22.1444C21.784 18.8605 21.4912 18.5677 21.4912 18.2074C21.4912 17.847 21.784 17.5542 22.1444 17.5542H44.1489C46.2209 17.5542 47.8876 19.2434 47.8876 21.2929V35.7749C47.8876 36.1353 47.5948 36.4281 47.2345 36.4281L47.257 36.4506Z" fill="white"/>
<path d="M39.5991 27.3063H24.9144C24.554 27.3063 24.2612 27.0135 24.2612 26.6532C24.2612 26.2928 24.554 26 24.9144 26H39.5991C39.9594 26 40.2522 26.2928 40.2522 26.6532C40.2522 27.0135 39.9594 27.3063 39.5991 27.3063Z" fill="white"/>
<path d="M30.8154 30.7296H28.2479C27.8875 30.7296 27.5947 30.4369 27.5947 30.0765C27.5947 29.7161 27.8875 29.4233 28.2479 29.4233H30.8154C31.1758 29.4233 31.4686 29.7161 31.4686 30.0765C31.4686 30.4369 31.1758 30.7296 30.8154 30.7296Z" fill="white"/>
<path d="M30.8154 33.59H28.2479C27.8875 33.59 27.5947 33.2972 27.5947 32.9368C27.5947 32.5765 27.8875 32.2837 28.2479 32.2837H30.8154C31.1758 32.2837 31.4686 32.5765 31.4686 32.9368C31.4686 33.2972 31.1758 33.59 30.8154 33.59Z" fill="white"/>
<path d="M30.8154 36.4503H28.2479C27.8875 36.4503 27.5947 36.1576 27.5947 35.7972C27.5947 35.4368 27.8875 35.144 28.2479 35.144H30.8154C31.1758 35.144 31.4686 35.4368 31.4686 35.7972C31.4686 36.1576 31.1758 36.4503 30.8154 36.4503Z" fill="white"/>
<path d="M30.8154 39.2882H28.2479C27.8875 39.2882 27.5947 38.9954 27.5947 38.6351C27.5947 38.2747 27.8875 37.9819 28.2479 37.9819H30.8154C31.1758 37.9819 31.4686 38.2747 31.4686 38.6351C31.4686 38.9954 31.1758 39.2882 30.8154 39.2882Z" fill="white"/>
<path d="M32.2567 44.9188C30.2297 44.9188 28.2027 44.1305 26.6261 42.5765C25.1171 41.09 24.2612 38.9504 24.2612 36.6981V25.0314C24.2612 23.4098 25.5675 22.1035 27.1891 22.1035H37.3243C38.9459 22.1035 40.2522 23.4098 40.2522 25.0314V36.7432C40.2522 38.9954 39.3964 41.135 37.8873 42.6215C36.3108 44.1756 34.2837 44.9639 32.2567 44.9639V44.9188ZM27.1891 23.3873C26.2882 23.3873 25.5675 24.1305 25.5675 25.0089V36.7206C25.5675 38.635 26.2883 40.4368 27.5495 41.6531C30.1847 44.2657 34.3513 44.2657 36.9864 41.6531C38.2477 40.4143 38.9684 38.6125 38.9684 36.7206V25.0314C38.9684 24.1305 38.2252 23.4098 37.3468 23.4098H27.2117L27.1891 23.3873Z" fill="white"/>
<path d="M32.257 48.0722C30.748 48.0722 29.5093 46.8334 29.5093 45.3244V43.9506C29.5093 43.7479 29.5994 43.5452 29.7796 43.4325C29.9372 43.3199 30.1624 43.2749 30.3426 43.3199C31.5814 43.6803 32.9102 43.6803 34.1489 43.3199C34.3516 43.2524 34.5543 43.3199 34.712 43.4325C34.8696 43.5452 34.9823 43.7479 34.9823 43.9506V45.3244C34.9823 46.8334 33.7435 48.0722 32.2345 48.0722H32.257ZM30.8156 44.7839V45.3244C30.8156 46.1127 31.4687 46.7659 32.257 46.7659C33.0453 46.7659 33.6985 46.1127 33.6985 45.3244V44.7839C32.7525 44.9641 31.7615 44.9641 30.8156 44.7839Z" fill="white"/>
<path d="M32.2567 52.5764C31.8963 52.5764 31.6035 52.2836 31.6035 51.9233V47.4188C31.6035 47.0584 31.8963 46.7656 32.2567 46.7656C32.617 46.7656 32.9098 47.0584 32.9098 47.4188V51.9233C32.9098 52.2836 32.617 52.5764 32.2567 52.5764Z" fill="white"/>
<path d="M49.3963 55.9999H45.117C44.7567 55.9999 44.4639 55.7071 44.4639 55.3467V37.9368C44.4639 36.4053 45.7251 35.144 47.2567 35.144C48.7882 35.144 50.0495 36.4053 50.0495 37.9368V55.3467C50.0495 55.7071 49.7567 55.9999 49.3963 55.9999ZM45.7702 54.6936H48.7432V37.9368C48.7432 37.126 48.0675 36.4503 47.2567 36.4503C46.4459 36.4503 45.7702 37.126 45.7702 37.9368V54.6936Z" fill="white"/>
<path d="M22.1444 20.5045C21.784 20.5045 21.4912 20.2117 21.4912 19.8514V16.6532C21.4912 16.2928 21.784 16 22.1444 16C22.5047 16 22.7975 16.2928 22.7975 16.6532V19.8288C22.7975 20.1892 22.5047 20.482 22.1444 20.482V20.5045Z" fill="white"/>
<path d="M53.6532 56.0002H18.6532C18.2928 56.0002 18 55.7074 18 55.347C18 54.9866 18.2928 54.6938 18.6532 54.6938H53.6532C54.0135 54.6938 54.3063 54.9866 54.3063 55.347C54.3063 55.7074 54.0135 56.0002 53.6532 56.0002Z" fill="white"/>
</svg>
