<svg width="40" height="32" viewBox="0 0 40 32" fill="none" xmlns="http://www.w3.org/2000/svg">
<path d="M25.1118 0.735209C27.7556 -0.041284 30.6397 -0.355578 33.2373 0.559574C37.0458 1.90919 39.6063 5.85636 39.8652 9.88673C40.124 13.9171 38.3307 17.9105 35.576 20.8686C32.8213 23.8266 31.4532 29.4285 27.6631 30.852C23.9286 32.2571 17.4948 29.5394 13.7232 28.2545C5.95832 25.62 7.3634 18.1601 10.5341 12.5213C13.6678 6.94715 18.9553 2.54703 25.1118 0.735209Z" fill="#F3F8F9"/>
<path d="M31.1638 7.03058C27.6692 6.44814 26.5742 11.1853 26.5742 11.1853L26.714 11.1931C30.4416 10.7504 31.1638 7.03058 31.1638 7.03058Z" fill="#1F5274"/>
<path d="M30.6045 12.7151C29.7115 11.7366 28.601 11.4104 27.8943 11.5191C27.5215 11.5812 27.2109 11.6822 26.9002 11.7754C26.5663 11.8841 26.2479 11.9851 25.8596 12.0317C26.1004 11.1619 26.675 8.5448 25.1918 8.02449C25.0364 7.97013 24.8578 8.05556 24.8035 8.21087C24.7491 8.37396 24.8345 8.5448 24.9898 8.59916C25.9295 8.93309 25.4713 11.2085 25.2151 12.0472C25.0054 12.0317 24.7802 11.9928 24.555 11.9462V6.63441C24.555 6.54898 24.5239 6.47133 24.4618 6.41697C24.4074 6.3626 24.3298 6.32377 24.2443 6.33154L21.8602 6.35484V5.41517C21.8602 5.24433 21.7204 5.11231 21.5573 5.11231H19.647C19.6314 4.76284 19.5382 4.21147 19.1422 3.75329C18.7073 3.25627 18.0317 3 17.1386 3C16.2455 3 15.5621 3.25627 15.0962 3.75329C14.6691 4.21147 14.5448 4.77061 14.5137 5.11231H12.5956C12.4247 5.11231 12.2927 5.25209 12.2927 5.41517V6.44803L9.30287 6.47909C9.13202 6.47909 9 6.61888 9 6.78196V28.6971C9 28.868 9.13978 29 9.30287 29H24.2521C24.4229 29 24.555 28.8602 24.555 28.6971V23.6959C24.7491 23.6882 24.9277 23.6804 25.0908 23.6726L25.3082 23.6571L25.5257 23.6726C25.7509 23.6882 26.0072 23.7037 26.2945 23.7037C27.9486 23.7037 30.4337 23.1912 31.5675 18.7879C32.4373 15.371 31.3345 13.5149 30.6045 12.7151ZM15.5388 4.16487C15.8805 3.79988 16.4164 3.60574 17.1308 3.60574C17.8375 3.60574 18.3501 3.78435 18.6685 4.14158C18.9403 4.45221 19.0102 4.84827 19.0257 5.10454H15.1195C15.1505 4.85603 15.2515 4.47551 15.5388 4.16487ZM12.8907 5.72581H21.239V6.37037L12.8907 6.44803V5.72581ZM9.59797 28.3865V7.08483L21.5263 6.9761C21.5341 6.9761 21.5418 6.9761 21.5418 6.9761C21.5496 6.9761 21.5573 6.9761 21.5651 6.9761L23.9259 6.95281V11.8065C23.8716 11.7909 23.8172 11.7754 23.7706 11.7676C23.4134 11.6744 23.0484 11.5812 22.7067 11.5191C22 11.4104 20.8895 11.7288 19.9964 12.7073C19.2664 13.5149 18.1637 15.371 19.0412 18.7802C20.0896 22.8572 22.3029 23.595 23.9337 23.6804V28.3865H9.59797ZM30.9618 18.6326C29.7658 23.2999 27.0245 23.1446 25.549 23.0591L25.3082 23.0436C25.3005 23.0436 25.3005 23.0436 25.2927 23.0436C25.2849 23.0436 25.285 23.0436 25.2772 23.0436L25.0364 23.0591C23.5609 23.1446 20.8196 23.2999 19.6237 18.6326C18.8238 15.503 19.7945 13.8411 20.4391 13.1266C21.1768 12.319 22.0777 12.0472 22.598 12.1249C22.9086 12.1792 23.2503 12.2646 23.6075 12.3578C24.2288 12.5209 24.8734 12.6918 25.4869 12.6762C26.1392 12.6607 26.6129 12.5054 27.0711 12.3578C27.3662 12.2646 27.6458 12.1714 27.9719 12.1171C28.5 12.0317 29.4008 12.3112 30.1386 13.1189C30.7987 13.8411 31.7694 15.503 30.9618 18.6326Z" fill="#5BC095"/>
<path d="M28.1034 21.5605C27.9558 21.6459 27.9015 21.8323 27.9869 21.9798C28.0412 22.0808 28.15 22.1351 28.2509 22.1351C28.3053 22.1351 28.3519 22.1196 28.3985 22.0963C30.2623 21.0402 30.7282 18.6871 30.7438 18.5862C30.7748 18.4231 30.6661 18.26 30.503 18.2289C30.3399 18.1979 30.1768 18.3066 30.1458 18.4697C30.1458 18.493 29.7187 20.6441 28.1034 21.5605Z" fill="#5BC095"/>
<path d="M10.817 8.00879C10.6462 8.00879 10.5142 8.14857 10.5142 8.31166V27.2913C10.5142 27.4622 10.6539 27.5942 10.817 27.5942C10.9801 27.5942 11.1199 27.4544 11.1199 27.2913V8.31166C11.1199 8.14081 10.9801 8.00879 10.817 8.00879Z" fill="#5BC095"/>
<path d="M15.7329 10.502H12.6188C12.4479 10.502 12.3159 10.6417 12.3159 10.8048V13.9189C12.3159 14.0898 12.4557 14.2218 12.6188 14.2218H15.7329C15.9037 14.2218 16.0358 14.082 16.0358 13.9189V10.8048C16.0435 10.6417 15.9037 10.502 15.7329 10.502ZM15.43 13.6161H12.9294V11.1155H15.43V13.6161Z" fill="#5BC095"/>
<path d="M15.7329 15.7827H12.6188C12.4479 15.7827 12.3159 15.9225 12.3159 16.0856V19.1997C12.3159 19.3705 12.4557 19.5025 12.6188 19.5025H15.7329C15.9037 19.5025 16.0358 19.3628 16.0358 19.1997V16.0856C16.0435 15.9225 15.9037 15.7827 15.7329 15.7827ZM15.43 18.8968H12.9294V16.3962H15.43V18.8968Z" fill="#5BC095"/>
<path d="M15.7329 21.3818H12.6188C12.4479 21.3818 12.3159 21.5216 12.3159 21.6847V24.7988C12.3159 24.9697 12.4557 25.1017 12.6188 25.1017H15.7329C15.9037 25.1017 16.0358 24.9619 16.0358 24.7988V21.6847C16.0435 21.5216 15.9037 21.3818 15.7329 21.3818ZM15.43 24.4959H12.9294V21.9953H15.43V24.4959Z" fill="#5BC095"/>
<path d="M16.7267 11.8684H20.0272C20.198 11.8684 20.33 11.7286 20.33 11.5656C20.33 11.3947 20.1903 11.2627 20.0272 11.2627H16.7267C16.5558 11.2627 16.4238 11.4025 16.4238 11.5656C16.4238 11.7286 16.5558 11.8684 16.7267 11.8684Z" fill="#5BC095"/>
<path d="M16.7653 13.3909H18.699C18.8698 13.3909 19.0018 13.2511 19.0018 13.088C19.0018 12.9172 18.862 12.7852 18.699 12.7852H16.7653C16.5944 12.7852 16.4624 12.9249 16.4624 13.088C16.4624 13.2589 16.6022 13.3909 16.7653 13.3909Z" fill="#5BC095"/>
<path d="M16.7812 17.2425H17.7908C17.9616 17.2425 18.0936 17.1027 18.0936 16.9396C18.0936 16.7687 17.9538 16.6367 17.7908 16.6367H16.7812C16.6104 16.6367 16.4783 16.7765 16.4783 16.9396C16.4706 17.1027 16.6104 17.2425 16.7812 17.2425Z" fill="#5BC095"/>
<path d="M16.7814 18.8342H17.9773C18.1482 18.8342 18.2802 18.6945 18.2802 18.5314C18.2802 18.3683 18.1404 18.2285 17.9773 18.2285H16.7814C16.6105 18.2285 16.4785 18.3683 16.4785 18.5314C16.4785 18.6945 16.6105 18.8342 16.7814 18.8342Z" fill="#5BC095"/>
<path d="M20.2372 22.5234H16.7814C16.6105 22.5234 16.4785 22.6632 16.4785 22.8263C16.4785 22.9972 16.6183 23.1292 16.7814 23.1292H20.2372C20.408 23.1292 20.54 22.9894 20.54 22.8263C20.54 22.6632 20.4003 22.5234 20.2372 22.5234Z" fill="#5BC095"/>
<path d="M19.81 23.8589H16.7736C16.6027 23.8589 16.4707 23.9987 16.4707 24.1618C16.4707 24.3248 16.6105 24.4646 16.7736 24.4646H19.81C19.9809 24.4646 20.1129 24.3248 20.1129 24.1618C20.1129 23.9987 19.9809 23.8589 19.81 23.8589Z" fill="#5BC095"/>
</svg>
