<svg width="21" height="22" viewBox="0 0 21 22" fill="none" xmlns="http://www.w3.org/2000/svg">
<path d="M19.3515 2.63332C16.3403 -0.373487 8.19714 0.909512 4.06069 5.04508C-0.0757527 9.18065 -1.35788 17.3247 1.64893 20.3359C3.0569 21.5185 4.86853 22.1091 6.70294 21.9835C10.5012 21.9499 14.1507 20.5027 16.9398 17.9242C21.0745 13.7886 22.3583 5.64452 19.3515 2.63332ZM14.2975 2.72096C15.6682 2.61111 17.0299 3.02233 18.1106 3.87251C19.001 4.76377 19.3612 6.48933 19.228 8.45678L13.5316 2.7604C13.7901 2.74375 14.0495 2.72096 14.2975 2.72096ZM2.88987 19.095C1.99948 18.2055 1.63929 16.4799 1.7725 14.5125L7.46888 20.2088C5.50494 20.3447 3.77938 19.9854 2.88987 19.095ZM15.7006 16.685C14.0041 18.2835 11.9052 19.3912 9.62825 19.8898L2.0915 12.3531C2.59129 10.0768 3.70026 7.97912 5.29988 6.28426C6.99917 4.68628 9.10183 3.58163 11.3819 3.08903L18.9063 10.6135C18.4077 12.8905 17.2997 14.9891 15.7006 16.685ZM15.5016 11.2278C15.3373 11.3921 15.1144 11.4844 14.8821 11.4844C14.6497 11.4844 14.4268 11.3921 14.2625 11.2278L13.1293 10.0947L11.7394 11.4846L12.8726 12.6178C12.9563 12.6986 13.023 12.7953 13.0689 12.9022C13.1149 13.0091 13.1391 13.1241 13.1401 13.2405C13.1411 13.3569 13.1189 13.4723 13.0748 13.58C13.0308 13.6877 12.9657 13.7855 12.8834 13.8678C12.8011 13.9501 12.7033 14.0152 12.5956 14.0592C12.4879 14.1033 12.3725 14.1255 12.2561 14.1245C12.1398 14.1234 12.0248 14.0993 11.9178 14.0533C11.8109 14.0074 11.7142 13.9406 11.6334 13.8569L10.5002 12.7238L9.11031 14.1137L10.2435 15.2469C10.3272 15.3277 10.3939 15.4244 10.4398 15.5313C10.4858 15.6382 10.51 15.7532 10.511 15.8696C10.512 15.986 10.4898 16.1014 10.4457 16.2091C10.4017 16.3168 10.3366 16.4146 10.2543 16.4969C10.172 16.5792 10.0742 16.6443 9.96648 16.6883C9.85878 16.7324 9.74338 16.7546 9.62702 16.7536C9.51065 16.7525 9.39566 16.7284 9.28874 16.6824C9.18182 16.6365 9.08512 16.5697 9.00427 16.486L5.49881 12.9806C5.33917 12.8153 5.25084 12.5939 5.25284 12.3641C5.25483 12.1344 5.347 11.9146 5.50949 11.7521C5.67197 11.5896 5.89177 11.4974 6.12155 11.4954C6.35134 11.4934 6.57271 11.5818 6.73799 11.7414L7.87113 12.8745L9.26105 11.4846L8.12791 10.3515C7.96827 10.1862 7.87994 9.96482 7.88193 9.73504C7.88393 9.50526 7.9761 9.28546 8.13858 9.12297C8.30107 8.96049 8.52087 8.86832 8.75065 8.86632C8.98043 8.86433 9.2018 8.95266 9.36709 9.1123L10.5002 10.2454L11.8901 8.85552L10.757 7.72238C10.5974 7.5571 10.509 7.33572 10.511 7.10594C10.513 6.87616 10.6052 6.65636 10.7677 6.49388C10.9302 6.33139 11.15 6.23922 11.3797 6.23723C11.6095 6.23523 11.8309 6.32356 11.9962 6.4832L15.5016 9.98866C15.6659 10.153 15.7582 10.3759 15.7582 10.6083C15.7582 10.8406 15.6659 11.0635 15.5016 11.2278Z" fill="#CC0000"/>
</svg>
