<svg width="80" height="80" viewBox="0 0 80 80" fill="none" xmlns="http://www.w3.org/2000/svg">
<path d="M0 10C0 4.47716 4.47715 0 10 0H70C75.5229 0 80 4.47715 80 10V69.7222C80 75.2451 75.5229 79.7222 70 79.7222H10C4.47715 79.7222 0 75.2451 0 69.7222V10Z" fill="url(#paint0_linear_335_7526)"/>
<path d="M49.1978 24.1543C44.5448 24.1543 40.9329 27.643 40.4741 32.0947C41.5103 33.1772 42.0733 34.6067 42.3173 36.3155C43.7853 35.998 45.177 35.9536 46.484 36.1084C45.3963 35.2729 44.6829 33.9553 44.6829 32.4339C44.6829 29.9439 46.7094 27.8227 49.1978 27.8227C51.7815 27.8227 53.8089 29.9439 53.8089 32.4339C53.8089 34.8721 51.995 36.7966 49.6181 37.0059C51.26 37.799 52.6383 39.0347 53.6047 40.7163C56.4591 39.2553 58.0176 36.4697 58.0176 32.9742C58.0176 28.0836 54.0897 24.1543 49.1978 24.1543V24.1543ZM31.219 29.2967C26.7942 29.3676 22.9699 32.4962 22.147 36.9699C21.1912 42.1662 24.5426 47.0282 29.739 47.984C31.1605 48.2454 32.3136 48.1119 33.6176 47.762C33.3193 45.3786 33.8302 43.2509 34.8994 41.4667C34.0658 42.5915 32.7376 43.3189 31.201 43.3189C28.7125 43.3189 26.683 41.2902 26.683 38.7079C26.683 36.2179 28.7125 34.097 31.201 34.097C33.7847 34.097 35.812 36.2179 35.812 38.7079C35.812 39.5143 35.5953 40.2549 35.2446 40.9085C36.477 39.1393 38.2975 37.7579 40.5101 36.9036C39.967 33.0147 37.2333 30.2106 33.1463 29.4589C32.4967 29.34 31.8511 29.2867 31.219 29.2973V29.2967ZM49.1498 29.7949C48.8978 29.7949 48.6364 29.8286 48.3663 29.8961C48.0984 29.9617 47.885 30.0328 47.7238 30.1123V30.8237H47.7569C47.9725 30.6835 48.2014 30.5768 48.4443 30.4996C48.6872 30.4233 48.9161 30.3824 49.1318 30.3824C49.2725 30.3824 49.3988 30.4002 49.51 30.4162C49.6213 30.4393 49.7246 30.48 49.8222 30.5386C49.9152 30.5972 49.9892 30.6734 50.0414 30.7667C50.0935 30.8572 50.1195 30.9653 50.1195 31.088C50.1195 31.3648 50.0169 31.5762 49.8103 31.7214C49.606 31.8651 49.3297 31.9346 48.9847 31.9346H48.7475V32.4991H49.0538C49.2218 32.4991 49.3798 32.5167 49.5251 32.5416C49.6704 32.5664 49.7922 32.6162 49.8943 32.6854C49.9964 32.7528 50.0777 32.8468 50.1345 32.9675C50.1934 33.0846 50.2214 33.2363 50.2214 33.4178C50.2214 33.6017 50.1957 33.7537 50.1433 33.874C50.0933 33.9947 50.0166 34.1043 49.9122 34.2042C49.8123 34.2965 49.6801 34.3657 49.5189 34.4143C49.3578 34.4622 49.2056 34.4871 49.0626 34.4871C48.8198 34.4871 48.5702 34.4444 48.3092 34.361C48.0481 34.2776 47.8206 34.1701 47.6277 34.043H47.5766V34.7544C47.7514 34.8343 47.9736 34.9071 48.246 34.9737C48.5184 35.0411 48.7961 35.0766 49.0776 35.0766C49.3522 35.0766 49.6048 35.0411 49.8341 34.9648C50.0656 34.8885 50.2642 34.7692 50.4345 34.6104C50.5866 34.4666 50.7047 34.299 50.7887 34.1061C50.8726 33.9132 50.9149 33.7014 50.9149 33.4698C50.9149 33.2359 50.8803 33.0439 50.8098 32.8964C50.7394 32.7491 50.6515 32.6277 50.5427 32.5301C50.445 32.4431 50.3262 32.3703 50.1854 32.3139C50.0447 32.2553 49.9191 32.2146 49.8102 32.1969V32.1525C50.0803 32.0975 50.3121 31.9649 50.5096 31.7561C50.7094 31.5451 50.8098 31.2992 50.8098 31.0178C50.8098 30.8112 50.7678 30.6317 50.6836 30.4773C50.5997 30.3229 50.4779 30.19 50.3144 30.0811C50.1623 29.9817 49.9925 29.9071 49.8041 29.8618C49.6157 29.8157 49.3971 29.7962 49.1496 29.7962L49.1498 29.7949ZM31.0809 36.0692C30.8238 36.0692 30.558 36.1012 30.2824 36.1686C30.009 36.236 29.7894 36.3089 29.6249 36.3909V37.1202H29.6609C29.8949 36.9676 30.1329 36.855 30.3784 36.781C30.6239 36.7065 30.8521 36.6692 31.0629 36.6692C31.3802 36.6692 31.6283 36.7438 31.8043 36.8973C31.9827 37.0482 32.0715 37.2591 32.0715 37.5277C32.0715 37.8218 31.9897 38.0954 31.8254 38.3503C31.6609 38.6026 31.3545 38.943 30.9098 39.3738C30.699 39.5801 30.4708 39.7899 30.2253 39.9984L29.4958 40.6227V41.3493H32.9991V40.7549H30.2163C30.4456 40.5604 30.6907 40.3484 30.9548 40.1214C31.2189 39.8922 31.4755 39.6562 31.7233 39.4131C31.897 39.2445 32.0441 39.0897 32.1646 38.9508C32.2874 38.8124 32.3955 38.671 32.4858 38.5275C32.5831 38.3749 32.6533 38.2131 32.7019 38.044C32.7529 37.8718 32.78 37.6886 32.78 37.4918C32.78 37.054 32.6279 36.7079 32.3267 36.453C32.0256 36.1959 31.6113 36.0689 31.0809 36.0689L31.0809 36.0692ZM44.6978 37.7652C39.5193 37.7652 35.2747 42.0116 35.2747 47.1916C35.2747 52.3701 39.5193 56.6148 44.6978 56.6148C49.8779 56.6148 54.1241 52.3701 54.1241 47.1916C54.1241 42.0116 49.8779 37.7652 44.6978 37.7652ZM44.6528 42.5806C47.2365 42.5806 49.2638 44.7016 49.2638 47.1916C49.2638 49.7737 47.2365 51.8026 44.6528 51.8026C42.1643 51.8026 40.1348 49.7737 40.1348 47.1916C40.1348 44.7016 42.1643 42.5806 44.6528 42.5806ZM44.5057 44.6189C44.4968 44.768 44.4625 44.8867 44.4006 44.9761C44.341 45.0631 44.257 45.1359 44.1514 45.1923C44.0666 45.2385 43.9414 45.2756 43.7762 45.3004C43.611 45.3235 43.4555 45.3342 43.3109 45.3342V45.8026H44.3796V49.2398H43.3109V49.7621H46.0847V49.2398H45.04V44.6198H44.5057L44.5057 44.6189Z" fill="white"/>
<defs>
<linearGradient id="paint0_linear_335_7526" x1="0" y1="39.8611" x2="80" y2="39.8611" gradientUnits="userSpaceOnUse">
<stop stop-color="#DE4624"/>
<stop offset="1" stop-color="#D11C3A"/>
</linearGradient>
</defs>
</svg>
