<svg width="45" height="32" viewBox="0 0 45 32" fill="none" xmlns="http://www.w3.org/2000/svg">
<path d="M3.94141 25.5073V2.55074C3.94141 1.46861 4.79165 0.541077 5.95107 0.541077H38.183C39.2651 0.541077 40.1926 1.39132 40.1926 2.55074V25.7391" stroke="#0A4586" stroke-width="1.4" stroke-miterlimit="10" stroke-linecap="round" stroke-linejoin="round"/>
<path d="M3.09174 31.4589H40.9661C42.3574 31.4589 43.5169 30.2995 43.5169 28.9082V28.5217H24.0386C23.884 29.4493 20.2512 29.4493 20.0966 28.5217H0.541016V28.9082C0.541016 30.2995 1.70044 31.4589 3.09174 31.4589Z" stroke="#0A4586" stroke-width="1.4" stroke-miterlimit="10" stroke-linecap="round" stroke-linejoin="round"/>
<path d="M17.1587 12.2899C17.0814 12.2899 17.0041 12.2899 17.0041 12.2899C16.6176 12.5217 14.8398 13.6812 14.8398 14.9952C14.8398 15.6908 15.3809 16.2319 16.0766 16.2319C16.3084 16.2319 16.5403 16.1546 16.6949 16.0773C16.7722 16.0773 16.7722 16.0773 16.7722 16.1546C16.6949 16.3865 16.5403 16.6957 16.3857 16.9275C16.3084 17.0048 16.3857 17.1594 16.463 17.1594H17.6997C17.777 17.1594 17.8543 17.0048 17.777 16.9275C17.6225 16.6957 17.4679 16.4638 17.3906 16.2319C17.3906 16.1546 17.4679 16.1546 17.4679 16.1546C17.6225 16.2319 17.8543 16.3092 18.0862 16.3092C18.7819 16.3092 19.3229 15.7681 19.3229 15.0725C19.3229 13.6812 17.5452 12.5217 17.1587 12.2899Z" fill="#0A4586"/>
<path d="M21.4881 23.9614H12.5992C11.9035 23.9614 11.2852 23.343 11.2852 22.6474V6.72465C11.2852 6.029 11.9035 5.41064 12.5992 5.41064H21.4108C22.1064 5.41064 22.7248 6.029 22.7248 6.72465V16.8503" stroke="#3BA8FF" stroke-width="1.4" stroke-miterlimit="10" stroke-linecap="round" stroke-linejoin="round"/>
<path d="M22.4922 5.95172L23.6516 6.10631C24.3473 6.18361 24.8883 6.87926 24.811 7.57491L23.5743 16.9276" stroke="#3BA8FF" stroke-width="1.4" stroke-miterlimit="10" stroke-linecap="round" stroke-linejoin="round"/>
<path d="M24.6562 16.9276L27.207 8.96623C27.4389 8.27058 26.9751 7.49763 26.2794 7.34304L24.7335 6.87927" stroke="#3BA8FF" stroke-width="1.4" stroke-miterlimit="10" stroke-linecap="round" stroke-linejoin="round"/>
<path d="M27.9814 19.2464H21.5659C21.1021 19.2464 20.793 18.9372 20.793 18.4734V17.7005C20.793 17.2367 21.1021 16.9276 21.5659 16.9276H27.9814C28.4451 16.9276 28.7543 17.2367 28.7543 17.7005V18.4734C28.7543 18.9372 28.3679 19.2464 27.9814 19.2464Z" stroke="#ED2939" stroke-width="1.4" stroke-miterlimit="10" stroke-linecap="round" stroke-linejoin="round"/>
<path d="M27.9814 21.5652H21.5659C21.1021 21.5652 20.793 21.2561 20.793 20.7923V20.0193C20.793 19.5556 21.1021 19.2464 21.5659 19.2464H27.9814C28.4451 19.2464 28.7543 19.5556 28.7543 20.0193V20.7923C28.7543 21.2561 28.3679 21.5652 27.9814 21.5652Z" stroke="#ED2939" stroke-width="1.4" stroke-miterlimit="10" stroke-linecap="round" stroke-linejoin="round"/>
<path d="M27.9814 23.9614H21.5659C21.1021 23.9614 20.793 23.6522 20.793 23.1884V22.4155C20.793 21.9517 21.1021 21.6425 21.5659 21.6425H27.9814C28.4451 21.6425 28.7543 21.9517 28.7543 22.4155V23.1884C28.7543 23.5749 28.3679 23.9614 27.9814 23.9614Z" stroke="#ED2939" stroke-width="1.4" stroke-miterlimit="10" stroke-linecap="round" stroke-linejoin="round"/>
<path d="M28.5215 21.5652H32.4635C32.6181 21.5652 32.6954 21.7971 32.6954 22.1836V23.343C32.6954 23.6522 32.6181 23.9614 32.4635 23.9614H28.5215" stroke="#ED2939" stroke-width="1.4" stroke-miterlimit="10" stroke-linecap="round" stroke-linejoin="round"/>
<path d="M28.5215 19.2464H32.4635C32.6181 19.2464 32.6954 19.4783 32.6954 19.8648V21.0242C32.6954 21.3334 32.6181 21.6425 32.4635 21.6425H28.5215" stroke="#ED2939" stroke-width="1.4" stroke-miterlimit="10" stroke-linecap="round" stroke-linejoin="round"/>
</svg>
