<svg width="17" height="17" viewBox="0 0 17 17" fill="none" xmlns="http://www.w3.org/2000/svg">
<g clip-path="url(#clip0_387_37285)">
<path d="M12.0996 8.49999C12.0996 7.70887 11.865 6.93551 11.4255 6.27771C10.986 5.61992 10.3612 5.10723 9.63034 4.80448C8.89943 4.50173 8.09517 4.42251 7.31924 4.57685C6.54332 4.73119 5.83059 5.11216 5.27118 5.67157C4.71177 6.23098 4.3308 6.94371 4.17646 7.71963C4.02212 8.49556 4.10134 9.29982 4.40409 10.0307C4.70684 10.7616 5.21953 11.3863 5.87732 11.8259C6.53512 12.2654 7.30848 12.5 8.0996 12.5C9.16014 12.4989 10.1769 12.0772 10.9269 11.3273C11.6768 10.5773 12.0985 9.56054 12.0996 8.49999V8.49999ZM8.0996 11.1667L6.0996 8.49999L8.0996 5.83333L10.0996 8.49999L8.0996 11.1667ZM11.0269 1.06199C12.0469 1.46613 12.9733 2.07483 13.749 2.85058C14.5248 3.62634 15.1335 4.55272 15.5376 5.57266L12.9729 6.34199C12.4338 5.13289 11.4667 4.16578 10.2576 3.62666L11.0269 1.06199ZM6.4476 0.673328C7.53681 0.442224 8.66239 0.442224 9.7516 0.673328L8.9796 3.24533C8.39763 3.14044 7.80158 3.14044 7.2196 3.24533L6.4476 0.673328ZM13.3543 9.37999C13.4592 8.79802 13.4592 8.20197 13.3543 7.61999L15.9263 6.84799C16.1574 7.9372 16.1574 9.06278 15.9263 10.152L13.3543 9.37999ZM2.84494 9.37999L0.272937 10.152C0.0418335 9.06278 0.0418335 7.9372 0.272937 6.84799L2.84494 7.61999C2.74005 8.20197 2.74005 8.79802 2.84494 9.37999V9.37999ZM9.7516 16.3267C8.66239 16.5578 7.53681 16.5578 6.4476 16.3267L7.2196 13.7547C7.80158 13.8596 8.39763 13.8596 8.9796 13.7547L9.7516 16.3267ZM15.5376 11.4273C15.1335 12.4473 14.5248 13.3737 13.749 14.1494C12.9733 14.9252 12.0469 15.5339 11.0269 15.938L10.2576 13.3733C11.4667 12.8342 12.4338 11.8671 12.9729 10.658L15.5376 11.4273ZM0.66227 5.57266C1.06616 4.55269 1.67469 3.62625 2.45035 2.85048C3.22601 2.0747 4.15236 1.46603 5.17227 1.06199L5.9416 3.62666C4.73253 4.1656 3.76558 5.13279 3.22694 6.34199L0.66227 5.57266ZM5.17227 15.938C4.15236 15.534 3.22601 14.9253 2.45035 14.1495C1.67469 13.3737 1.06616 12.4473 0.66227 11.4273L3.22694 10.658C3.76558 11.8672 4.73253 12.8344 5.9416 13.3733L5.17227 15.938Z" fill="#011955"/>
</g>
<defs>
<clipPath id="clip0_387_37285">
<rect width="16" height="16" fill="white" transform="translate(0.0996094 0.5)"/>
</clipPath>
</defs>
</svg>
