<svg width="36" height="37" viewBox="0 0 36 37" fill="none" xmlns="http://www.w3.org/2000/svg">
<path d="M27.5616 19.2824V6.07837C27.5616 5.15853 26.8603 4.41284 25.9965 4.41284H4.62753C3.7633 4.41284 3.0625 5.15901 3.0625 6.07837V19.2824" stroke="#000066" stroke-miterlimit="10" stroke-linecap="round" stroke-linejoin="round"/>
<path d="M29.4067 23.9782H1.21716C0.891016 23.9782 0.672544 23.6918 0.804885 23.4372L2.03139 21.0767C2.10362 20.9376 2.26556 20.8477 2.44366 20.8477H28.1802C28.3587 20.8477 28.5202 20.9376 28.5925 21.0767L29.819 23.4372C29.9513 23.6918 29.7329 23.9782 29.4067 23.9782Z" stroke="#000066" stroke-miterlimit="10" stroke-linecap="round" stroke-linejoin="round"/>
<path d="M3.0625 25.5445V30.8964C3.0625 31.3981 3.4546 31.8044 3.93873 31.8044H27.3001C27.7837 31.8044 28.1758 31.3981 28.1758 30.8964V29.6463H28.9927C29.1317 29.6463 29.244 29.5296 29.244 29.3858V29.0413H29.7115C29.7925 29.0413 29.8583 28.9732 29.8583 28.8889C29.8583 28.5811 29.8583 27.7846 29.8583 27.4768C29.8583 27.3925 29.7925 27.3244 29.7115 27.3244H29.244V26.9799C29.244 26.8361 29.1317 26.7193 28.9927 26.7193H28.1758V25.5436" stroke="#000066" stroke-miterlimit="10" stroke-linecap="round" stroke-linejoin="round"/>
<path d="M8.92969 10.1853V9.26501" stroke="#CB0101" stroke-miterlimit="10" stroke-linecap="round" stroke-linejoin="round"/>
<path d="M9.94035 10.6486C9.94035 10.6486 9.558 10.1856 8.92953 10.1856C7.87877 10.1856 7.37881 11.432 8.92953 11.8851C10.6837 12.3976 10.0738 13.7533 8.92953 13.7533C8.27473 13.7533 7.75391 13.2805 7.75391 13.2805" stroke="#CB0101" stroke-miterlimit="10" stroke-linecap="round" stroke-linejoin="round"/>
<path d="M8.92969 13.7533V14.7395" stroke="#CB0101" stroke-miterlimit="10" stroke-linecap="round" stroke-linejoin="round"/>
<path d="M15.6055 10.1854V9.26514" stroke="#CB0101" stroke-miterlimit="10" stroke-linecap="round" stroke-linejoin="round"/>
<path d="M16.6166 10.6487C16.6166 10.6487 16.2342 10.1857 15.6058 10.1857C14.555 10.1857 14.0551 11.4321 15.6058 11.8853C17.3599 12.3977 16.7501 13.7534 15.6058 13.7534C14.951 13.7534 14.4297 13.2807 14.4297 13.2807" stroke="#CB0101" stroke-miterlimit="10" stroke-linecap="round" stroke-linejoin="round"/>
<path d="M15.6055 13.7534V14.7396" stroke="#CB0101" stroke-miterlimit="10" stroke-linecap="round" stroke-linejoin="round"/>
<path d="M22.125 10.1853V9.26501" stroke="#CB0101" stroke-miterlimit="10" stroke-linecap="round" stroke-linejoin="round"/>
<path d="M23.1396 10.6486C23.1396 10.6486 22.7572 10.1856 22.1288 10.1856C21.078 10.1856 20.5781 11.432 22.1288 11.8851C23.8829 12.3976 23.2731 13.7533 22.1288 13.7533C21.474 13.7533 20.9531 13.2805 20.9531 13.2805" stroke="#CB0101" stroke-miterlimit="10" stroke-linecap="round" stroke-linejoin="round"/>
<path d="M22.125 13.7533V14.7395" stroke="#CB0101" stroke-miterlimit="10" stroke-linecap="round" stroke-linejoin="round"/>
<path d="M6.89062 28.674H23.7337" stroke="#000066" stroke-miterlimit="10" stroke-linecap="round" stroke-linejoin="round"/>
<path d="M32.1562 17.7175V26.9161C32.1562 27.8868 31.5481 28.674 30.7982 28.674H29.8594" stroke="#000066" stroke-miterlimit="10" stroke-linecap="round" stroke-linejoin="round"/>
<path d="M32.539 17.7172C33.5961 17.7172 34.453 16.666 34.453 15.3694C34.453 14.0727 33.5961 13.0215 32.539 13.0215C31.4819 13.0215 30.625 14.0727 30.625 15.3694C30.625 16.666 31.4819 17.7172 32.539 17.7172Z" stroke="#000066" stroke-miterlimit="10" stroke-linecap="round" stroke-linejoin="round"/>
</svg>
