<svg width="24" height="24" viewBox="0 0 24 24" fill="none" xmlns="http://www.w3.org/2000/svg">
<path d="M20.4853 3.51473C18.2188 1.24819 15.2053 0 12 0C8.79469 0 5.78123 1.24819 3.51473 3.51473C1.24819 5.78123 0 8.79469 0 12C0 15.2053 1.24819 18.2188 3.51473 20.4853C5.78123 22.7518 8.79469 24 12 24C15.2053 24 18.2188 22.7518 20.4853 20.4853C22.7518 18.2188 24 15.2053 24 12C24 8.79469 22.7518 5.78123 20.4853 3.51473ZM23.0525 11.5483H22.3412C22.2605 10.0295 21.8688 8.51925 21.2015 7.16227C21.0872 6.92991 20.8062 6.83419 20.574 6.94847C20.3417 7.0627 20.246 7.34367 20.3602 7.57594C20.9648 8.80523 21.3221 10.1721 21.4019 11.5483H19.8148C19.7111 9.73481 18.9872 8.08491 17.8526 6.80742L20.1414 4.51861C21.8588 6.38602 22.9433 8.84358 23.0525 11.5483ZM12.4593 0.947766C15.1596 1.05862 17.6131 2.14163 19.4784 3.8558L17.1895 6.1447C15.9142 5.01319 14.2683 4.29094 12.4593 4.18575V0.947766ZM11.5218 0.948469V4.18692C9.71916 4.29609 8.07947 5.01792 6.80836 6.14663L4.5195 3.85777C6.38072 2.14645 8.82792 1.06364 11.5218 0.948469ZM3.85659 4.52077L6.14545 6.80963C5.01187 8.08678 4.28883 9.73584 4.18519 11.5483H0.947484C1.05666 8.84461 2.14036 6.38789 3.85659 4.52077ZM0.94875 12.4858H4.18739C4.29806 14.2844 5.01867 15.9204 6.14466 17.1895L3.85575 19.4784C2.1472 17.6192 1.06561 15.1756 0.94875 12.4858ZM11.5218 23.0515C8.8275 22.9363 6.37992 21.8532 4.51861 20.1413L6.80742 17.8526C8.07867 18.9817 9.71873 19.7039 11.5218 19.8131V23.0515ZM5.10938 12C5.10938 8.2005 8.2005 5.10938 12 5.10938C15.7995 5.10938 18.8906 8.2005 18.8906 12C18.8906 15.7995 15.7995 18.8906 12 18.8906C8.2005 18.8906 5.10938 15.7995 5.10938 12ZM12.4592 23.0522V19.8143H12.4593C14.2688 19.7091 15.915 18.9865 17.1904 17.8545L19.4792 20.1434C17.6138 21.858 15.1599 22.9413 12.4592 23.0522ZM20.1422 19.4805L17.8534 17.1917C18.9805 15.9224 19.7018 14.2855 19.8126 12.4859H23.0513C22.9343 15.1767 21.852 17.6211 20.1422 19.4805Z" fill="#A89175"/>
<path d="M20.3607 5.73119C20.2123 5.51917 19.92 5.46756 19.7079 5.61601C19.4959 5.76447 19.4442 6.05674 19.5927 6.26885L19.5932 6.26955C19.6843 6.39972 19.8295 6.46929 19.9771 6.46929C20.07 6.46929 20.1639 6.44172 20.2458 6.3844C20.4578 6.23594 20.5092 5.9433 20.3607 5.73119Z" fill="#A89175"/>
<path d="M8.42253 15.6489L8.41193 15.6384C8.22785 15.4564 7.93104 15.458 7.74903 15.642C7.56697 15.8261 7.56856 16.1229 7.75264 16.3049L7.76323 16.3154C7.85464 16.4058 7.97375 16.4509 8.09286 16.4509C8.2137 16.4509 8.33445 16.4045 8.42613 16.3118C8.6082 16.1278 8.6066 15.831 8.42253 15.6489Z" fill="#A89175"/>
<path d="M16.2409 7.69019C13.8641 5.35155 10.0278 5.38258 7.68914 7.75938C6.80643 8.65648 6.23339 9.78508 6.03187 11.0233C5.83495 12.2335 6.00449 13.458 6.52218 14.5644C6.63192 14.7989 6.91096 14.9001 7.14538 14.7904C7.37985 14.6806 7.48101 14.4016 7.37132 14.1671C6.47076 12.2425 6.86709 9.93166 8.35743 8.41694C10.3335 6.40863 13.575 6.38243 15.5834 8.35849C17.5917 10.3346 17.6179 13.5761 15.6419 15.5844C14.1515 17.0991 11.8473 17.5327 9.90829 16.6634C9.67213 16.5575 9.39473 16.6631 9.28879 16.8994C9.1829 17.1356 9.28856 17.4129 9.52476 17.5189C10.3078 17.8699 11.1462 18.0482 11.9942 18.0482C12.3534 18.0482 12.7143 18.0162 13.0733 17.9518C14.3081 17.7303 15.4274 17.139 16.3101 16.2419C18.6487 13.8651 18.6177 10.0289 16.2409 7.69019Z" fill="#A89175"/>
<path d="M12.4688 11.5506V9.4808C12.9022 9.64059 13.207 10.0149 13.207 10.4502C13.207 10.7091 13.4168 10.9189 13.6757 10.9189C13.9346 10.9189 14.1445 10.7091 14.1445 10.4502C14.1445 9.50259 13.4265 8.70816 12.4688 8.50917V8.29688C12.4688 8.03798 12.259 7.82812 12.0001 7.82812C11.7412 7.82812 11.5313 8.03798 11.5313 8.29688V8.50917C10.5737 8.70816 9.85571 9.50259 9.85571 10.4502C9.85571 11.3977 10.5737 12.1922 11.5313 12.3912V14.461C11.098 14.3012 10.7932 13.9268 10.7932 13.4916C10.7932 13.2327 10.5834 13.0229 10.3245 13.0229C10.0656 13.0229 9.85571 13.2327 9.85571 13.4916C9.85571 14.4392 10.5737 15.2336 11.5313 15.4326V15.7031C11.5313 15.962 11.7412 16.1719 12.0001 16.1719C12.259 16.1719 12.4688 15.962 12.4688 15.7031V15.4326C13.4265 15.2336 14.1445 14.4392 14.1445 13.4916C14.1445 12.544 13.4265 11.7495 12.4688 11.5506ZM11.5313 11.4195C11.098 11.2597 10.7932 10.8854 10.7932 10.4502C10.7932 10.0149 11.098 9.64059 11.5313 9.4808V11.4195ZM12.4688 14.461V12.5223C12.9022 12.682 13.207 13.0564 13.207 13.4916C13.207 13.9268 12.9022 14.3012 12.4688 14.461Z" fill="#A89175"/>
</svg>
