<svg width="17" height="17" viewBox="0 0 17 17" fill="none" xmlns="http://www.w3.org/2000/svg">
<g clip-path="url(#clip0_387_37291)">
<path d="M9.54683 4.5L10.8562 7.83333H6.15216L7.4855 4.5H9.54683ZM12.2882 7.83333H16.4535C16.3882 7.59831 16.2807 7.37715 16.1362 7.18067L14.7715 5.31867C14.5855 5.06538 14.3426 4.85933 14.0624 4.71713C13.7821 4.57493 13.4724 4.50055 13.1582 4.5H10.9788L12.2882 7.83333ZM10.9102 9.16667H6.0915L8.50083 16.4193L10.9102 9.16667ZM12.3155 9.16667L10.4868 14.67L15.9315 9.782C16.1092 9.60478 16.2525 9.39614 16.3542 9.16667H12.3155ZM4.68616 9.16667H0.654161C0.760093 9.40489 0.909538 9.62126 1.09483 9.80467L6.51483 14.6713L4.68616 9.16667ZM4.71616 7.83333L6.0495 4.5H3.84349C3.52925 4.50055 3.21953 4.57493 2.9393 4.71713C2.65907 4.85933 2.41616 5.06538 2.23016 5.31867L0.865495 7.18067C0.721165 7.37718 0.613856 7.59835 0.548828 7.83333H4.71616ZM9.1675 0.5H7.83416V3.16667H9.1675V0.5ZM13.7302 1.60133L12.6048 0.885333L11.2715 2.98L12.3968 3.696L13.7302 1.60133ZM5.73016 2.98L4.39683 0.885333L3.27149 1.60133L4.60483 3.696L5.73016 2.98Z" fill="#011955"/>
</g>
<defs>
<clipPath id="clip0_387_37291">
<rect width="16" height="16" fill="white" transform="translate(0.5 0.5)"/>
</clipPath>
</defs>
</svg>
