<svg width="36" height="37" viewBox="0 0 36 37" fill="none" xmlns="http://www.w3.org/2000/svg">
<g clip-path="url(#clip0_873_26673)">
<path d="M17.0871 30.1873H2.49038C1.54966 30.1873 0.785156 29.4167 0.785156 28.4685V5.8035C0.785156 4.8553 1.54966 4.08472 2.49038 4.08472H17.0871C18.0278 4.08472 18.7923 4.8553 18.7923 5.8035V28.4685C18.7923 29.4167 18.0278 30.1873 17.0871 30.1873Z" stroke="#000066" stroke-width="1.76087" stroke-miterlimit="10" stroke-linecap="round" stroke-linejoin="round"/>
<path d="M11.8293 19.6571C12.6222 19.8433 13.4606 19.4366 13.8585 18.729C14.5121 17.5717 13.6965 16.5461 12.8097 15.7125C11.6701 14.6412 10.2775 13.6156 9.78583 12.1518C9.29416 13.6185 7.90156 14.6412 6.7619 15.7125C5.87519 16.5461 5.05952 17.5717 5.71319 18.729C6.17928 19.554 7.26495 19.9522 8.13461 19.5454" stroke="#000066" stroke-width="1.76087" stroke-miterlimit="10" stroke-linecap="round" stroke-linejoin="round"/>
<path d="M10.0889 22.1233H6.92578C9.21362 21.4215 9.77348 19.611 9.80475 19.0639C9.83601 19.5824 10.3504 21.3957 12.6667 22.1233" stroke="#000066" stroke-width="1.76087" stroke-miterlimit="10" stroke-linecap="round" stroke-linejoin="round"/>
<mask id="path-4-inside-1_873_26673" fill="white">
<path d="M4.17109 8.08082C4.3814 8.23265 4.58318 8.43604 4.84465 8.49906C5.10896 8.56208 5.38748 8.42458 5.52105 8.18968C5.73989 7.80295 5.46704 7.46206 5.17147 7.18419C4.79064 6.82611 4.3274 6.48522 4.1654 5.99823C4.00056 6.48522 3.53732 6.82897 3.15933 7.18419C2.86375 7.46206 2.59091 7.80295 2.80974 8.18968C2.96606 8.46468 3.327 8.59646 3.61689 8.46182C3.81299 8.37015 3.99488 8.20687 4.17109 8.08082Z"/>
</mask>
<path d="M4.17109 8.08082C4.3814 8.23265 4.58318 8.43604 4.84465 8.49906C5.10896 8.56208 5.38748 8.42458 5.52105 8.18968C5.73989 7.80295 5.46704 7.46206 5.17147 7.18419C4.79064 6.82611 4.3274 6.48522 4.1654 5.99823C4.00056 6.48522 3.53732 6.82897 3.15933 7.18419C2.86375 7.46206 2.59091 7.80295 2.80974 8.18968C2.96606 8.46468 3.327 8.59646 3.61689 8.46182C3.81299 8.37015 3.99488 8.20687 4.17109 8.08082Z" fill="#000066"/>
<path d="M4.17109 8.08082L5.20177 6.65311L4.1758 5.91245L3.14662 6.64865L4.17109 8.08082ZM4.84465 8.49906L4.43204 10.2109L4.43624 10.2119L4.84465 8.49906ZM5.52105 8.18968L7.05175 9.0601L7.05357 9.05688L5.52105 8.18968ZM5.17147 7.18419L3.96526 8.46704L3.96536 8.46714L5.17147 7.18419ZM4.1654 5.99823L5.83625 5.44242L4.17992 0.463191L2.49749 5.43367L4.1654 5.99823ZM3.15933 7.18419L1.95346 5.90101L1.95321 5.90124L3.15933 7.18419ZM2.80974 8.18968L1.27722 9.05689L1.27889 9.05981L2.80974 8.18968ZM3.61689 8.46182L4.35863 10.0588L4.36257 10.057L3.61689 8.46182ZM3.14041 9.50853C3.15698 9.52049 3.17763 9.53655 3.23889 9.58479C3.28879 9.62408 3.37404 9.69139 3.46914 9.75892C3.6571 9.89241 3.98621 10.1034 4.43204 10.2109L5.25726 6.78721C5.35239 6.81014 5.42252 6.84124 5.46346 6.86227C5.5023 6.88223 5.51976 6.89574 5.50824 6.88756C5.50315 6.88395 5.49394 6.87721 5.47831 6.86525C5.46205 6.8528 5.44398 6.83864 5.41769 6.81793C5.39416 6.79941 5.3605 6.77283 5.32649 6.74654C5.29136 6.71939 5.2489 6.68713 5.20177 6.65311L3.14041 9.50853ZM4.43624 10.2119C5.54041 10.4752 6.57223 9.90336 7.05175 9.0601L3.99036 7.31925C4.20273 6.9458 4.6775 6.64897 5.25306 6.78621L4.43624 10.2119ZM7.05357 9.05688C7.48571 8.29321 7.41367 7.50458 7.1375 6.9072C6.90996 6.415 6.5548 6.06784 6.37759 5.90124L3.96536 8.46714C4.01041 8.50949 4.02524 8.52711 4.02446 8.52616C4.02292 8.5243 4.01326 8.51252 3.99917 8.49112C3.98511 8.46977 3.96361 8.43429 3.94083 8.38502C3.89459 8.28499 3.83809 8.11629 3.83949 7.89731C3.84094 7.66872 3.90515 7.46984 3.98854 7.32247L7.05357 9.05688ZM6.37768 5.90133C6.2657 5.79604 6.13424 5.67964 6.05695 5.60981C5.96464 5.52639 5.90302 5.46828 5.85517 5.41856C5.75282 5.31221 5.79841 5.32867 5.83625 5.44242L2.49455 6.55404C2.69439 7.15478 3.05259 7.58518 3.31757 7.86054C3.52915 8.0804 3.89878 8.40454 3.96526 8.46704L6.37768 5.90133ZM2.49749 5.43367C2.53401 5.32578 2.57566 5.31328 2.47235 5.42082C2.42416 5.471 2.36237 5.5294 2.27089 5.61224C2.19486 5.68108 2.06345 5.79765 1.95346 5.90101L4.36519 8.46737C4.43564 8.40117 4.79782 8.08366 5.01224 7.86042C5.27626 7.58554 5.63195 7.15767 5.83331 6.56279L2.49749 5.43367ZM1.95321 5.90124C1.776 6.06784 1.42084 6.415 1.1933 6.9072C0.917129 7.50458 0.845085 8.29321 1.27722 9.05688L4.34226 7.32247C4.42565 7.46984 4.48986 7.66872 4.49131 7.89731C4.4927 8.11629 4.43621 8.28499 4.38997 8.38502C4.36719 8.43429 4.34569 8.46977 4.33163 8.49112C4.31754 8.51252 4.30788 8.5243 4.30634 8.52616C4.30556 8.52711 4.32039 8.50949 4.36544 8.46714L1.95321 5.90124ZM1.27889 9.05981C1.85081 10.066 3.17073 10.6106 4.35863 10.0588L2.87515 6.86479C3.19167 6.71779 3.50588 6.73468 3.73868 6.81518C3.96757 6.89433 4.19242 7.05885 4.3406 7.31954L1.27889 9.05981ZM4.36257 10.057C4.62122 9.9361 4.82755 9.78939 4.94836 9.70007C5.16219 9.54195 5.08314 9.59341 5.19556 9.513L3.14662 6.64865C3.07599 6.69917 3.01071 6.74916 2.96548 6.78388C2.91331 6.82393 2.88434 6.84632 2.85454 6.86836C2.8415 6.878 2.83202 6.88479 2.82517 6.88956C2.81835 6.89432 2.8154 6.89618 2.81571 6.89599C2.81603 6.89578 2.82081 6.89274 2.8296 6.88783C2.83838 6.88291 2.85238 6.87543 2.87121 6.86663L4.36257 10.057Z" fill="#000066" mask="url(#path-4-inside-1_873_26673)"/>
<mask id="path-6-inside-2_873_26673" fill="white">
<path d="M5.12753 9.18681H3.21484C3.97651 8.98342 4.16408 8.45919 4.17261 8.30164C4.18398 8.4506 4.35449 8.97769 5.12753 9.18681Z"/>
</mask>
<path d="M5.12753 9.18681H3.21484C3.97651 8.98342 4.16408 8.45919 4.17261 8.30164C4.18398 8.4506 4.35449 8.97769 5.12753 9.18681Z" fill="#000066"/>
<path d="M5.12753 9.18681V10.9477L5.58734 7.48704L5.12753 9.18681ZM3.21484 9.18681L2.76055 7.48555L3.21484 10.9477V9.18681ZM4.17261 8.30164L5.92837 8.16764L2.41431 8.20649L4.17261 8.30164ZM5.12753 7.42594H3.21484V10.9477H5.12753V7.42594ZM3.66913 10.8881C5.16605 10.4883 5.88112 9.31682 5.9309 8.39679L2.41431 8.20649C2.42062 8.08997 2.43877 8.00236 2.45168 7.95057C2.46602 7.89305 2.48251 7.84553 2.49836 7.80705C2.53013 7.72994 2.56842 7.66721 2.60961 7.61653C2.70611 7.49778 2.7911 7.47739 2.76055 7.48555L3.66913 10.8881ZM2.41684 8.43563C2.48086 9.27448 3.1239 10.469 4.66771 10.8866L5.58734 7.48704C5.55144 7.47732 5.6411 7.49824 5.74153 7.62426C5.78416 7.67775 5.82136 7.74127 5.85121 7.81537C5.87489 7.87417 5.91488 7.99091 5.92837 8.16764L2.41684 8.43563Z" fill="#000066" mask="url(#path-6-inside-2_873_26673)"/>
<mask id="path-8-inside-3_873_26673" fill="white">
<path d="M15.4054 27.3802C15.6158 27.532 15.8175 27.7354 16.079 27.7984C16.3433 27.8615 16.6218 27.724 16.7554 27.4891C16.9743 27.1023 16.7014 26.7614 16.4059 26.4836C16.025 26.1255 15.5618 25.7846 15.3998 25.2976C15.2349 25.7846 14.7717 26.1284 14.3937 26.4836C14.0981 26.7614 13.8253 27.1023 14.0441 27.4891C14.2004 27.7641 14.5614 27.8958 14.8512 27.7612C15.0473 27.6695 15.2264 27.5062 15.4054 27.3802Z"/>
</mask>
<path d="M15.4054 27.3802C15.6158 27.532 15.8175 27.7354 16.079 27.7984C16.3433 27.8615 16.6218 27.724 16.7554 27.4891C16.9743 27.1023 16.7014 26.7614 16.4059 26.4836C16.025 26.1255 15.5618 25.7846 15.3998 25.2976C15.2349 25.7846 14.7717 26.1284 14.3937 26.4836C14.0981 26.7614 13.8253 27.1023 14.0441 27.4891C14.2004 27.7641 14.5614 27.8958 14.8512 27.7612C15.0473 27.6695 15.2264 27.5062 15.4054 27.3802Z" fill="#000066"/>
<path d="M15.4054 27.3802L16.4361 25.9525L15.4183 25.2177L14.3918 25.9403L15.4054 27.3802ZM16.079 27.7984L15.6664 29.5103L15.6706 29.5113L16.079 27.7984ZM16.7554 27.4891L18.2861 28.3595L18.2879 28.3563L16.7554 27.4891ZM16.4059 26.4836L15.1996 27.7664L15.1997 27.7665L16.4059 26.4836ZM15.3998 25.2976L17.0706 24.7418L15.4143 19.7626L13.7319 24.733L15.3998 25.2976ZM14.3937 26.4836L13.1878 25.2004L13.1876 25.2006L14.3937 26.4836ZM14.0441 27.4891L12.5116 28.3563L12.5133 28.3592L14.0441 27.4891ZM14.8512 27.7612L15.593 29.3582L15.5969 29.3564L14.8512 27.7612ZM14.3748 28.8079C14.3913 28.8199 14.412 28.8359 14.4732 28.8842C14.5231 28.9235 14.6084 28.9908 14.7035 29.0583C14.8915 29.1918 15.2206 29.4028 15.6664 29.5103L16.4916 26.0866C16.5868 26.1095 16.6569 26.1406 16.6978 26.1617C16.7367 26.1816 16.7541 26.1951 16.7426 26.1869C16.7375 26.1833 16.7283 26.1766 16.7127 26.1646C16.6964 26.1522 16.6783 26.138 16.6521 26.1173C16.6285 26.0988 16.5949 26.0722 16.5609 26.0459C16.5257 26.0188 16.4833 25.9865 16.4361 25.9525L14.3748 28.8079ZM15.6706 29.5113C16.7748 29.7746 17.8066 29.2027 18.2861 28.3595L15.2247 26.6186C15.4371 26.2452 15.9119 25.9483 16.4874 26.0856L15.6706 29.5113ZM18.2879 28.3563C18.7201 27.5926 18.648 26.804 18.3719 26.2066C18.1444 25.7144 17.7892 25.3672 17.612 25.2006L15.1997 27.7665C15.2448 27.8089 15.2596 27.8265 15.2588 27.8255C15.2573 27.8237 15.2476 27.8119 15.2335 27.7905C15.2195 27.7691 15.198 27.7336 15.1752 27.6844C15.1289 27.5843 15.0725 27.4156 15.0738 27.1967C15.0753 26.9681 15.1395 26.7692 15.2229 26.6218L18.2879 28.3563ZM17.6121 25.2007C17.5001 25.0954 17.3686 24.979 17.2913 24.9092C17.199 24.8258 17.1374 24.7677 17.0895 24.7179C16.9872 24.6116 17.0328 24.628 17.0706 24.7418L13.7289 25.8534C13.9288 26.4542 14.287 26.8846 14.552 27.1599C14.7635 27.3798 15.1332 27.7039 15.1996 27.7664L17.6121 25.2007ZM13.7319 24.733C13.7684 24.6251 13.81 24.6126 13.7067 24.7202C13.6585 24.7704 13.5968 24.8288 13.5053 24.9116C13.4292 24.9805 13.2978 25.097 13.1878 25.2004L15.5996 27.7667C15.67 27.7006 16.0322 27.383 16.2466 27.1598C16.5106 26.8849 16.8663 26.4571 17.0677 25.8622L13.7319 24.733ZM13.1876 25.2006C13.0103 25.3672 12.6552 25.7144 12.4276 26.2066C12.1515 26.804 12.0795 27.5926 12.5116 28.3563L15.5766 26.6218C15.66 26.7692 15.7242 26.9681 15.7257 27.1967C15.7271 27.4156 15.6706 27.5843 15.6244 27.6844C15.6016 27.7336 15.5801 27.7691 15.566 27.7905C15.5519 27.8119 15.5423 27.8237 15.5407 27.8255C15.5399 27.8265 15.5548 27.8089 15.5998 27.7665L13.1876 25.2006ZM12.5133 28.3592C13.0852 29.3654 14.4051 29.9099 15.593 29.3582L14.1095 26.1642C14.426 26.0172 14.7402 26.0341 14.9731 26.1146C15.202 26.1937 15.4268 26.3582 15.575 26.6189L12.5133 28.3592ZM15.5969 29.3564C15.8585 29.2341 16.0659 29.0854 16.1843 28.9975C16.3715 28.8585 16.3371 28.8778 16.4191 28.8201L14.3918 25.9403C14.3166 25.9933 14.2485 26.0451 14.2006 26.0817C14.1446 26.1246 14.1172 26.1459 14.0852 26.1697C14.0718 26.1796 14.0622 26.1865 14.0554 26.1913C14.0486 26.1961 14.0459 26.1978 14.0465 26.1974C14.0467 26.1973 14.0676 26.1838 14.1056 26.166L15.5969 29.3564Z" fill="#000066" mask="url(#path-8-inside-3_873_26673)"/>
<mask id="path-10-inside-4_873_26673" fill="white">
<path d="M16.3619 28.4888H14.4492C15.2109 28.2854 15.3985 27.7612 15.407 27.6036C15.4184 27.7526 15.5889 28.2768 16.3619 28.4888Z"/>
</mask>
<path d="M16.3619 28.4888H14.4492C15.2109 28.2854 15.3985 27.7612 15.407 27.6036C15.4184 27.7526 15.5889 28.2768 16.3619 28.4888Z" fill="#000066"/>
<path d="M16.3619 28.4888V30.2496L16.8276 26.7906L16.3619 28.4888ZM14.4492 28.4888L13.9949 26.7875L14.4492 30.2496V28.4888ZM15.407 27.6036L17.1627 27.4696L13.6487 27.5085L15.407 27.6036ZM16.3619 26.7279H14.4492V30.2496H16.3619V26.7279ZM14.9035 30.19C16.4004 29.7903 17.1155 28.6188 17.1653 27.6988L13.6487 27.5085C13.655 27.3919 13.6731 27.3043 13.6861 27.2525C13.7004 27.195 13.7169 27.1475 13.7327 27.109C13.7645 27.0319 13.8028 26.9692 13.844 26.9185C13.9405 26.7998 14.0255 26.7794 13.9949 26.7875L14.9035 30.19ZM13.6512 27.7376C13.7157 28.5823 14.3627 29.7664 15.8962 30.187L16.8276 26.7906C16.7876 26.7796 16.875 26.7988 16.9748 26.9238C17.0173 26.977 17.0547 27.0405 17.0849 27.1152C17.1089 27.1746 17.1492 27.2921 17.1627 27.4696L13.6512 27.7376Z" fill="#000066" mask="url(#path-10-inside-4_873_26673)"/>
<path d="M20.3987 6.77632L20.9388 5.90043C21.3703 5.19916 22.2835 4.98512 22.9795 5.42165L34.5191 12.6991C35.2123 13.1356 35.4239 14.0594 34.9924 14.7635L23.9622 32.6642C23.5307 33.3655 22.6176 33.5795 21.9216 33.143L18.7812 31.1631" stroke="#CB0101" stroke-width="1.76087" stroke-miterlimit="10" stroke-linecap="round" stroke-linejoin="round"/>
<path d="M20.3477 23.196L25.8259 21.2728L25.2625 14.5873L24.2397 14.9509" stroke="#CB0101" stroke-width="1.76087" stroke-miterlimit="10" stroke-linecap="round" stroke-linejoin="round"/>
<path d="M23.4781 15.3699L20.3477 16.1525" stroke="#CB0101" stroke-width="1.76087" stroke-miterlimit="10" stroke-linecap="round" stroke-linejoin="round"/>
<mask id="path-15-inside-5_873_26673" fill="white">
<path d="M23.2912 7.54358L21.1289 8.14573L21.2879 9.8914L23.4767 9.25611L23.2912 7.54358Z"/>
</mask>
<path d="M23.2912 7.54358L21.1289 8.14573L21.2879 9.8914L23.4767 9.25611L23.2912 7.54358Z" fill="#000066"/>
<path d="M23.2912 7.54358L25.0418 7.3539L24.8182 5.29045L22.8188 5.84726L23.2912 7.54358ZM21.1289 8.14573L20.6565 6.44941L19.2421 6.84329L19.3753 8.30549L21.1289 8.14573ZM21.2879 9.8914L19.5343 10.0512L19.7281 12.1777L21.7788 11.5825L21.2879 9.8914ZM23.4767 9.25611L23.9676 10.9472L25.3865 10.5353L25.2274 9.06643L23.4767 9.25611ZM22.8188 5.84726L20.6565 6.44941L21.6013 9.84205L23.7636 9.2399L22.8188 5.84726ZM19.3753 8.30549L19.5343 10.0512L23.0416 9.73164L22.8825 7.98596L19.3753 8.30549ZM21.7788 11.5825L23.9676 10.9472L22.9859 7.56503L20.7971 8.20033L21.7788 11.5825ZM25.2274 9.06643L25.0418 7.3539L21.5406 7.73326L21.7261 9.44579L25.2274 9.06643Z" fill="#CB0101" mask="url(#path-15-inside-5_873_26673)"/>
<mask id="path-17-inside-6_873_26673" fill="white">
<path d="M23.3556 28.674L21.9141 29.2741L22.0176 31.0218L23.4793 30.3885L23.3556 28.674Z"/>
</mask>
<path d="M23.3556 28.674L21.9141 29.2741L22.0176 31.0218L23.4793 30.3885L23.3556 28.674Z" fill="#000066"/>
<path d="M23.3556 28.674L25.1119 28.5473L24.9359 26.1087L22.6788 27.0483L23.3556 28.674ZM21.9141 29.2741L21.2373 27.6484L20.0823 28.1293L20.1563 29.3782L21.9141 29.2741ZM22.0176 31.0218L20.2598 31.1259L20.4085 33.6379L22.7176 32.6376L22.0176 31.0218ZM23.4793 30.3885L24.1793 32.0043L25.3255 31.5077L25.2356 30.2618L23.4793 30.3885ZM22.6788 27.0483L21.2373 27.6484L22.5908 30.8997L24.0323 30.2996L22.6788 27.0483ZM20.1563 29.3782L20.2598 31.1259L23.7754 30.9177L23.6719 29.17L20.1563 29.3782ZM22.7176 32.6376L24.1793 32.0043L22.7793 28.7728L21.3176 29.4061L22.7176 32.6376ZM25.2356 30.2618L25.1119 28.5473L21.5993 28.8007L21.723 30.5153L25.2356 30.2618Z" fill="#CB0101" mask="url(#path-17-inside-6_873_26673)"/>
</g>
<defs>
<clipPath id="clip0_873_26673">
<rect width="36" height="36" fill="white" transform="translate(0 0.500061)"/>
</clipPath>
</defs>
</svg>
