<svg width="54" height="54" viewBox="0 0 54 54" fill="none" xmlns="http://www.w3.org/2000/svg">
<path d="M41.3404 28.1735V8.36743C41.3404 6.98768 40.2885 5.86914 38.9928 5.86914H6.93933C5.643 5.86914 4.5918 6.9884 4.5918 8.36743V28.1735" stroke="#000066" stroke-width="1.76087" stroke-miterlimit="10" stroke-linecap="round" stroke-linejoin="round"/>
<path d="M44.1101 35.2171H1.82574C1.33652 35.2171 1.00882 34.7876 1.20733 34.4058L3.04708 30.865C3.15542 30.6562 3.39834 30.5215 3.66549 30.5215H42.2703C42.5381 30.5215 42.7804 30.6562 42.8887 30.865L44.7285 34.4058C44.927 34.7876 44.5993 35.2171 44.1101 35.2171Z" stroke="#000066" stroke-width="1.76087" stroke-miterlimit="10" stroke-linecap="round" stroke-linejoin="round"/>
<path d="M4.5918 37.5667V45.5946C4.5918 46.3471 5.17994 46.9566 5.90614 46.9566H40.9482C41.6737 46.9566 42.2618 46.3471 42.2618 45.5946V43.7195H43.4871C43.6956 43.7195 43.864 43.5444 43.864 43.3286V42.8119H44.5654C44.6869 42.8119 44.7856 42.7097 44.7856 42.5832C44.7856 42.1216 44.7856 40.9268 44.7856 40.4652C44.7856 40.3387 44.6869 40.2365 44.5654 40.2365H43.864V39.7198C43.864 39.504 43.6956 39.3289 43.4871 39.3289H42.2618V37.5653" stroke="#000066" stroke-width="1.76087" stroke-miterlimit="10" stroke-linecap="round" stroke-linejoin="round"/>
<path d="M13.3945 14.5279V13.1474" stroke="#CB0101" stroke-width="1.76087" stroke-miterlimit="10" stroke-linecap="round" stroke-linejoin="round"/>
<path d="M14.9125 15.2227C14.9125 15.2227 14.3389 14.5283 13.3963 14.5283C11.8201 14.5283 11.0702 16.3978 13.3963 17.0776C16.0275 17.8463 15.1127 19.8798 13.3963 19.8798C12.4141 19.8798 11.6328 19.1707 11.6328 19.1707" stroke="#CB0101" stroke-width="1.76087" stroke-miterlimit="10" stroke-linecap="round" stroke-linejoin="round"/>
<path d="M13.3945 19.8798V21.3591" stroke="#CB0101" stroke-width="1.76087" stroke-miterlimit="10" stroke-linecap="round" stroke-linejoin="round"/>
<path d="M23.4082 14.528V13.1476" stroke="#CB0101" stroke-width="1.76087" stroke-miterlimit="10" stroke-linecap="round" stroke-linejoin="round"/>
<path d="M24.9268 15.2229C24.9268 15.2229 24.3533 14.5284 23.4106 14.5284C21.8345 14.5284 21.0845 16.398 23.4106 17.0777C26.0419 17.8464 25.1271 19.88 23.4106 19.88C22.4284 19.88 21.6465 19.1708 21.6465 19.1708" stroke="#CB0101" stroke-width="1.76087" stroke-miterlimit="10" stroke-linecap="round" stroke-linejoin="round"/>
<path d="M23.4082 19.88V21.3592" stroke="#CB0101" stroke-width="1.76087" stroke-miterlimit="10" stroke-linecap="round" stroke-linejoin="round"/>
<path d="M33.1875 14.5279V13.1474" stroke="#CB0101" stroke-width="1.76087" stroke-miterlimit="10" stroke-linecap="round" stroke-linejoin="round"/>
<path d="M34.7074 15.2227C34.7074 15.2227 34.1339 14.5283 33.1912 14.5283C31.6151 14.5283 30.8651 16.3978 33.1912 17.0776C35.8224 17.8463 34.9077 19.8798 33.1912 19.8798C32.209 19.8798 31.4277 19.1707 31.4277 19.1707" stroke="#CB0101" stroke-width="1.76087" stroke-miterlimit="10" stroke-linecap="round" stroke-linejoin="round"/>
<path d="M33.1875 19.8798V21.3591" stroke="#CB0101" stroke-width="1.76087" stroke-miterlimit="10" stroke-linecap="round" stroke-linejoin="round"/>
<path d="M10.3359 42.2608H35.6006" stroke="#000066" stroke-width="1.76087" stroke-miterlimit="10" stroke-linecap="round" stroke-linejoin="round"/>
<path d="M48.2323 25.8261V39.624C48.2323 41.0801 47.3203 42.2609 46.1953 42.2609H44.7871" stroke="#000066" stroke-width="1.76087" stroke-miterlimit="10" stroke-linecap="round" stroke-linejoin="round"/>
<path d="M48.8065 25.8257C50.3921 25.8257 51.6775 24.249 51.6775 22.304C51.6775 20.359 50.3921 18.7822 48.8065 18.7822C47.2209 18.7822 45.9355 20.359 45.9355 22.304C45.9355 24.249 47.2209 25.8257 48.8065 25.8257Z" stroke="#000066" stroke-width="1.76087" stroke-miterlimit="10" stroke-linecap="round" stroke-linejoin="round"/>
</svg>
