<svg width="51" height="59" viewBox="0 0 51 59" fill="none" xmlns="http://www.w3.org/2000/svg">
<path d="M49.2301 22.2086L45.3029 19.3628C44.9614 19.1351 44.5061 18.9644 44.1076 18.9644H28.228V9.45934C29.8785 8.20718 30.5046 6.10127 29.8785 4.16611C29.2525 2.23095 27.4311 0.921875 25.3821 0.921875C23.3331 0.921875 21.5118 2.23095 20.8857 4.16611C20.2597 6.10127 20.8857 8.20718 22.5363 9.45934V11.3945H6.65662C6.20128 11.3945 5.80287 11.5083 5.46137 11.7929L1.53414 14.6387C1.02189 14.9802 0.737305 15.5494 0.737305 16.1755C0.737305 16.8016 1.02189 17.3138 1.53414 17.7122L5.46137 20.5581C5.80287 20.7857 6.2582 20.9565 6.65662 20.9565H22.5363V25.6805H6.65662C6.20128 25.6805 5.80287 25.7944 5.46137 26.079L1.53414 28.9248C1.02189 29.2663 0.737305 29.8354 0.737305 30.4615C0.737305 31.0876 1.02189 31.5998 1.53414 31.9983L5.46137 34.8441C5.80287 35.0718 6.2582 35.2425 6.65662 35.2425H22.5363V44.7476H16.8447C13.5435 44.7476 10.7546 47.195 10.2993 50.4392H9.27477C7.16887 50.4392 5.46137 52.1467 5.46137 54.2526V56.1308C5.46137 57.1553 6.31512 58.0091 7.33961 58.0091H43.3677C44.3922 58.0091 45.246 57.1553 45.246 56.1308V54.2526C45.246 52.1467 43.5385 50.4392 41.4326 50.4392H40.4081C39.9527 47.195 37.1638 44.7476 33.8627 44.7476H28.228V28.4694H44.1076C44.563 28.4694 44.9614 28.3556 45.3029 28.071L49.2301 25.2252C49.7424 24.8837 50.027 24.3145 50.027 23.6885C50.027 23.1193 49.7424 22.5501 49.2301 22.2086ZM6.65662 18.9644C6.5997 18.9644 6.5997 18.9644 6.54278 18.9644L2.61555 16.1186L6.54278 13.2727C6.5997 13.2727 6.5997 13.2158 6.65662 13.2727H22.5363V18.9644H6.65662ZM6.65662 33.1935C6.5997 33.1935 6.5997 33.1935 6.54278 33.1935L2.61555 30.3477L6.54278 27.5019C6.5997 27.5019 6.5997 27.4449 6.65662 27.5019H22.5363V33.1935H6.65662ZM41.4895 52.1467C42.514 52.1467 43.3677 53.0004 43.3677 54.0249V55.9032H7.33961V54.0249C7.33961 53.0004 8.19336 52.1467 9.21786 52.1467H41.4895ZM33.9196 46.455C36.1963 46.455 38.1314 48.0487 38.5868 50.2684H12.1775C12.6328 48.0487 14.568 46.455 16.8447 46.455H33.9196ZM24.4146 44.5768V10.3131C24.6991 10.37 25.0406 10.4269 25.3821 10.4269C25.7236 10.4269 26.0082 10.37 26.3497 10.3131V44.5199L24.4146 44.5768ZM25.3821 8.54868C23.7885 8.54868 22.5363 7.29652 22.5363 5.70286C22.5363 4.1092 23.7885 2.85703 25.3821 2.85703C26.9758 2.85703 28.228 4.1092 28.228 5.70286C28.228 7.29652 26.9758 8.54868 25.3821 8.54868ZM44.2215 26.5343C44.1646 26.5343 44.1646 26.5343 44.1076 26.5343H28.228V20.8426H44.1076C44.1646 20.8426 44.1646 20.8426 44.2215 20.8426L48.1487 23.6885L44.2215 26.5343Z" fill="#425BFF"/>
</svg>
