<svg width="32" height="32" viewBox="0 0 32 32" fill="none" xmlns="http://www.w3.org/2000/svg">
<path d="M28.0007 8.88802C27.7653 9.00992 27.4911 9.03336 27.2384 8.9532C26.9858 8.87303 26.7752 8.69582 26.6532 8.46052C25.6987 6.57488 24.2539 4.98114 22.4707 3.84677C22.3595 3.77667 22.2633 3.68538 22.1875 3.57809C22.1116 3.47081 22.0576 3.34963 22.0286 3.22149C21.9996 3.09334 21.9961 2.96074 22.0183 2.83124C22.0406 2.70175 22.0881 2.5779 22.1582 2.46677C22.2283 2.35564 22.3196 2.2594 22.4268 2.18355C22.5341 2.1077 22.6553 2.05373 22.7835 2.02471C22.9116 1.99569 23.0442 1.9922 23.1737 2.01443C23.3032 2.03666 23.427 2.08417 23.5382 2.15427C25.6164 3.48494 27.304 5.34372 28.4282 7.54052C28.5501 7.77592 28.5735 8.05008 28.4934 8.30276C28.4132 8.55544 28.236 8.76594 28.0007 8.88802ZM4.46442 9.00052C4.64763 9.00044 4.82729 8.95004 4.9838 8.85481C5.14031 8.75958 5.26765 8.62319 5.35193 8.46052C6.30643 6.57488 7.7512 4.98114 9.53442 3.84677C9.75886 3.70521 9.91788 3.48029 9.97648 3.22149C10.0351 2.96269 9.98848 2.69121 9.84692 2.46677C9.70537 2.24233 9.48045 2.08332 9.22165 2.02471C8.96285 1.96611 8.69137 2.01271 8.46693 2.15427C6.38868 3.48494 4.70115 5.34372 3.57693 7.54052C3.49797 7.69292 3.45957 7.86307 3.46543 8.03461C3.47128 8.20615 3.52118 8.37329 3.61033 8.51995C3.69949 8.66662 3.82489 8.78787 3.97448 8.87203C4.12406 8.9562 4.29279 9.00045 4.46442 9.00052ZM27.7269 21.993C27.9041 22.2968 27.998 22.642 27.9992 22.9937C28.0004 23.3453 27.9089 23.6911 27.7338 23.9961C27.5587 24.3011 27.3063 24.5546 27.002 24.7309C26.6978 24.9073 26.3524 25.0003 26.0007 25.0005H20.9007C20.6712 26.1308 20.0579 27.147 19.1649 27.8769C18.2719 28.6068 17.154 29.0055 16.0007 29.0055C14.8473 29.0055 13.7294 28.6068 12.8364 27.8769C11.9434 27.147 11.3302 26.1308 11.1007 25.0005H6.00067C5.6492 24.9998 5.30412 24.9065 5.00018 24.73C4.69625 24.5535 4.4442 24.3 4.26942 23.9951C4.09465 23.6901 4.00332 23.3445 4.00464 22.993C4.00595 22.6416 4.09987 22.2966 4.27692 21.993C5.40317 20.0493 6.00067 17.2855 6.00067 14.0005C6.00067 11.3484 7.05424 8.80481 8.92961 6.92945C10.805 5.05409 13.3485 4.00052 16.0007 4.00052C18.6528 4.00052 21.1964 5.05409 23.0717 6.92945C24.9471 8.80481 26.0007 11.3484 26.0007 14.0005C26.0007 17.2843 26.5982 20.048 27.7269 21.993ZM18.8282 25.0005H13.1732C13.3804 25.5848 13.7634 26.0905 14.2698 26.4482C14.7761 26.8059 15.3808 26.9979 16.0007 26.9979C16.6206 26.9979 17.2253 26.8059 17.7316 26.4482C18.2379 26.0905 18.621 25.5848 18.8282 25.0005Z" fill="black"/>
</svg>
