<svg width="42" height="40" viewBox="0 0 42 40" fill="none" xmlns="http://www.w3.org/2000/svg">
<g clip-path="url(#clip0)">
<path fill-rule="evenodd" clip-rule="evenodd" d="M40.2004 37.9001C43.5004 34.4001 42.0004 18.7001 31.4004 8.90009C20.8004 -0.899908 5.60041 -1.79991 1.80041 2.30009C-1.99959 6.40009 0.000406265 21.5001 10.6004 31.3001C21.2004 41.2001 36.9004 41.5001 40.2004 37.9001Z" fill="#0A4586"/>
<path fill-rule="evenodd" clip-rule="evenodd" d="M20.6004 2.20023C12.4004 -0.999768 4.40041 -0.499768 1.80041 2.30023C-1.99959 6.40023 0.000406265 21.5002 10.6004 31.3002C15.4004 35.7002 21.2004 38.2002 26.4004 39.3002C22.6004 37.9002 18.7004 35.8002 15.3004 32.6002C4.70041 22.9002 2.70041 7.80023 6.50041 3.70023C8.60041 1.50023 14.2004 0.700232 20.6004 2.20023Z" fill="#093B73"/>
<path fill-rule="evenodd" clip-rule="evenodd" d="M40.4996 37.6001C40.5996 37.4001 40.6996 37.2001 40.7996 37.0001C36.4996 30.6001 30.6996 23.7001 23.5996 17.2001C16.5996 10.7001 9.29961 5.4001 2.59961 1.6001C2.39961 1.7001 2.19961 1.9001 2.09961 2.0001C8.89961 5.8001 16.1996 11.1001 23.2996 17.7001C30.2996 24.2001 36.1996 31.1001 40.4996 37.6001Z" fill="#3DA8FB"/>
<path fill-rule="evenodd" clip-rule="evenodd" d="M18.0996 1.3002C16.3996 0.800195 14.6996 0.400195 13.0996 0.200195L0.599609 13.8002C0.899609 15.4002 1.39961 17.0002 1.99961 18.7002L18.0996 1.3002Z" fill="#FF4019"/>
<path fill-rule="evenodd" clip-rule="evenodd" d="M17.8 1.70029C15.6 1.40029 13.7 1.40029 11.9 1.60029L13.1 0.300293C14.7 0.500293 16.4 0.900293 18.1 1.40029L17.8 1.70029ZM4.7 9.30029C4.7 11.0003 4.8 13.0003 5.3 15.2003L2 18.7003C1.4 17.0003 0.9 15.4003 0.5 13.8003L4.7 9.30029Z" fill="#B32D11"/>
<path fill-rule="evenodd" clip-rule="evenodd" d="M41.2 26.7003C40.9 25.1003 40.4 23.4003 39.8 21.8003L24 38.8003C25.7 39.3003 27.4 39.6003 29 39.8003L41.2 26.7003Z" fill="#FF4019"/>
<path fill-rule="evenodd" clip-rule="evenodd" d="M33.9996 28L33.5996 28.4C34.5996 29.6 35.4996 30.7 36.3996 31.8L36.7996 31.4C35.8996 30.3 34.9996 29.1 33.9996 28Z" fill="#C4C4C4"/>
<path d="M32.0008 24.6C30.8008 23.3 29.5008 21.9 28.2008 20.6C26.9008 19.3 25.5008 17.9 24.1008 16.7C22.7008 15.4 21.3008 14.2 19.9008 13C18.4008 11.8 17.0008 10.6 15.6008 9.5L14.3008 11.1C15.7008 12.2 17.2008 13.4 18.5008 14.5C19.9008 15.6 21.2008 16.9 22.6008 18.2C24.0008 19.5 25.3008 20.8 26.6008 22.1C27.9008 23.4 29.1008 24.7 30.4008 26.1L32.0008 24.6Z" fill="#FF4019"/>
<path fill-rule="evenodd" clip-rule="evenodd" d="M29.2002 26.9002C29.6002 26.8002 30.0002 26.7002 30.4002 26.6002C30.8002 26.4002 31.1002 26.2002 31.4002 25.9002C31.7002 25.6002 31.9002 25.3002 32.0002 24.9002C32.1002 24.6002 32.2002 24.2002 32.3002 23.7002C32.3002 23.5002 32.2002 23.5002 32.2002 23.4002L31.9002 23.2002C31.9002 23.2002 31.8002 23.0002 31.7002 23.2002C31.6002 23.6002 31.5002 23.9002 31.3002 24.2002C31.1002 24.6002 30.9002 24.9002 30.6002 25.2002C30.3002 25.5002 30.0002 25.7002 29.7002 25.9002C29.4002 26.1002 29.0002 26.3002 28.7002 26.4002C28.5002 26.5002 28.7002 26.5002 28.7002 26.6002L29.0002 26.8002C29.1002 26.9002 29.2002 26.9002 29.2002 26.9002Z" fill="white"/>
<path fill-rule="evenodd" clip-rule="evenodd" d="M13.5996 12.4002C13.5996 12.0002 13.6996 11.5002 13.7996 11.2002C13.8996 10.8002 14.1996 10.5002 14.3996 10.2002C14.6996 9.9002 14.9996 9.7002 15.3996 9.5002C15.6996 9.3002 16.0996 9.2002 16.4996 9.2002C16.6996 9.2002 16.6996 9.2002 16.7996 9.3002L17.0996 9.5002C17.0996 9.5002 17.2996 9.6002 17.0996 9.7002C16.6996 9.8002 16.3996 10.0002 16.0996 10.2002C15.7996 10.4002 15.4996 10.7002 15.1996 10.9002C14.8996 11.2002 14.6996 11.5002 14.4996 11.9002C14.2996 12.2002 14.1996 12.6002 14.0996 13.0002C14.0996 13.2002 13.9996 13.0002 13.8996 13.0002L13.5996 12.8002C13.5996 12.6002 13.5996 12.5002 13.5996 12.4002Z" fill="white"/>
<path fill-rule="evenodd" clip-rule="evenodd" d="M27.0995 24.6004C27.4995 24.5004 27.7995 24.3004 28.0995 24.1004C28.3995 23.9004 28.6995 23.7004 28.9995 23.4004C29.2995 23.1004 29.4995 22.8004 29.5995 22.5004C29.7995 22.2004 29.8995 21.8004 29.9995 21.5004C29.9995 21.3004 29.9995 21.3004 29.8995 21.2004C29.7995 21.1004 29.6995 21.0004 29.5995 20.9004C29.5995 20.9004 29.3995 20.8004 29.3995 20.9004C29.2995 21.2004 29.0995 21.5004 28.8995 21.8004C28.6995 22.1004 28.4995 22.4004 28.1995 22.7004C27.8995 23.0004 27.6995 23.2004 27.3995 23.5004C27.0995 23.7004 26.7995 23.9004 26.4995 24.1004C26.3995 24.2004 26.4995 24.3004 26.4995 24.3004C26.5995 24.4004 26.6995 24.5004 26.7995 24.6004C26.9995 24.6004 26.9995 24.6004 27.0995 24.6004Z" fill="white"/>
<path fill-rule="evenodd" clip-rule="evenodd" d="M25.2004 22.5C25.5004 22.3 25.8004 22.1 26.1004 21.9C26.4004 21.7 26.6004 21.4 26.9004 21.2C27.1004 20.9 27.4004 20.7 27.6004 20.3C27.8004 20 28.0004 19.7 28.2004 19.4C28.3004 19.3 28.2004 19.2 28.2004 19.1C28.1004 19 27.9004 18.9 27.8004 18.7C27.7004 18.6 27.6004 18.6 27.5004 18.7C27.3004 19 27.1004 19.3 26.9004 19.6C26.7004 19.9 26.4004 20.2 26.2004 20.4C25.9004 20.7 25.7004 20.9 25.4004 21.2C25.1004 21.4 24.9004 21.7 24.6004 21.9C24.5004 22 24.5004 22.1 24.6004 22.2C24.7004 22.3 24.9004 22.4 25.0004 22.6C25.0004 22.5 25.1004 22.5 25.2004 22.5Z" fill="white"/>
<path fill-rule="evenodd" clip-rule="evenodd" d="M23.3008 20.5L26.2008 17.4C26.3008 17.3 26.3008 17.2 26.2008 17.1L25.7008 16.7C25.6008 16.6 25.5008 16.6 25.4008 16.7L22.5008 19.8C22.4008 19.9 22.4008 20 22.5008 20.1L23.0008 20.5C23.1008 20.6 23.2008 20.5 23.3008 20.5Z" fill="white"/>
<path fill-rule="evenodd" clip-rule="evenodd" d="M21.3008 18.5L24.2008 15.4C24.3008 15.3 24.3008 15.2 24.2008 15.1L23.7008 14.7C23.6008 14.6 23.5008 14.6 23.4008 14.7L20.5008 17.8C20.4008 17.9 20.4008 18 20.5008 18.1L21.0008 18.5C21.0008 18.6 21.2008 18.6 21.3008 18.5Z" fill="white"/>
<path fill-rule="evenodd" clip-rule="evenodd" d="M16.1008 14.3C16.2008 13.9 16.3008 13.6 16.5008 13.2C16.7008 12.9 16.9008 12.5 17.1008 12.3C17.4008 12 17.7008 11.8 18.0008 11.6C18.3008 11.4 18.6008 11.2 19.0008 11.1C19.2008 11 19.2008 11.1 19.3008 11.2C19.4008 11.3 19.5008 11.4 19.6008 11.5C19.6008 11.5 19.7008 11.7 19.6008 11.7C19.3008 11.9 19.0008 12.1 18.7008 12.3C18.4008 12.5 18.1008 12.8 17.9008 13C17.7008 13.3 17.4008 13.6 17.2008 13.9C17.0008 14.2 16.8008 14.5 16.7008 14.9C16.6008 15 16.5008 15 16.5008 14.9C16.4008 14.8 16.3008 14.7 16.2008 14.6C16.0008 14.5 16.0008 14.4 16.1008 14.3Z" fill="white"/>
<path fill-rule="evenodd" clip-rule="evenodd" d="M18.3008 16.1003C18.5008 15.8003 18.7008 15.5003 18.9008 15.2003C19.1008 14.9003 19.3008 14.6003 19.6008 14.3003C19.8008 14.0003 20.1008 13.8003 20.4008 13.6003C20.7008 13.4003 21.0008 13.2003 21.3008 13.0003C21.4008 12.9003 21.5008 12.9003 21.6008 13.0003C21.7008 13.1003 21.9008 13.2003 22.0008 13.4003C22.1008 13.5003 22.1008 13.6003 22.0008 13.7003C21.7008 13.9003 21.5008 14.1003 21.2008 14.4003C20.9008 14.6003 20.7008 14.9003 20.4008 15.2003C20.1008 15.5003 19.9008 15.7003 19.7008 16.0003C19.5008 16.3003 19.3008 16.6003 19.1008 16.9003C19.0008 17.0003 18.9008 17.0003 18.8008 16.9003C18.7008 16.8003 18.5008 16.7003 18.4008 16.5003C18.3008 16.3003 18.3008 16.2003 18.3008 16.1003Z" fill="white"/>
<path fill-rule="evenodd" clip-rule="evenodd" d="M12.0996 7.8002C10.8996 6.9002 9.69961 6.0002 8.49961 5.2002L8.09961 5.7002C9.29961 6.5002 10.4996 7.3002 11.6996 8.2002L12.0996 7.8002Z" fill="#C4C4C4"/>
<path d="M32.3011 27.8C31.5011 28.5 30.7011 28.8 29.9011 28.8C29.0011 28.8 28.1011 28.3 27.4011 27.6L23.3011 23.4C22.8011 22.9 22.1011 22.5 21.4011 22.1C20.9011 21.8 20.5011 21.5 20.2011 21.3C19.9011 21 19.6011 20.6 19.3011 20.2C18.9011 19.6 18.3011 18.9 17.8011 18.5L13.3011 14.7C12.6011 14.1 12.0011 13.2 11.9011 12.3C11.8011 11.5 12.0011 10.6 12.7011 9.8C12.8011 9.6 13.0011 9.5 13.1011 9.4C13.2011 9.2 13.4011 9.1 13.5011 9C14.3011 8.3 15.6011 8 16.9011 8C18.2011 8.1 19.5011 8.6 20.4011 9.4C20.6011 9.6 20.9011 9.9 21.2011 10.2C22.1011 11 22.8011 11.7 24.3011 12.9C24.6011 13.1 25.0011 13.3 25.3011 13.6C25.8011 13.9 26.2011 14.2 26.6011 14.5C27.0011 14.9 27.3011 15.3 27.6011 15.7C27.8011 16 28.1011 16.4 28.3011 16.6C29.6011 18.1 30.3011 18.7 31.2011 19.5C31.5011 19.8 31.8011 20 32.0011 20.2C32.9011 21 33.5011 22.3 33.7011 23.6C33.9011 24.9 33.7011 26.1 33.0011 27C32.9011 27.2 32.8011 27.3 32.6011 27.4C32.6011 27.5 32.5011 27.6 32.3011 27.8ZM32.4011 27C32.5011 26.9 32.6011 26.7 32.8011 26.6C33.4011 25.8 33.6011 24.6 33.4011 23.5C33.2011 22.3 32.7011 21.1 31.8011 20.3C31.4011 20 31.2011 19.8 31.0011 19.6C30.1011 18.8 29.4011 18.2 28.1011 16.6C27.8011 16.3 27.6011 16 27.3011 15.6C27.0011 15.2 26.7011 14.8 26.3011 14.4C25.9011 14.1 25.5011 13.8 25.0011 13.5C24.6011 13.3 24.3011 13.1 24.0011 12.8C22.4011 11.6 21.7011 10.9 20.8011 10.1C20.6011 9.9 20.4011 9.7 20.0011 9.4C19.2011 8.6 18.0011 8.2 16.7011 8.1C15.6011 8 14.4011 8.3 13.7011 8.9C13.6011 9 13.4011 9.1 13.3011 9.3C13.2011 9.4 13.1011 9.6 12.9011 9.7C12.3011 10.4 12.1011 11.2 12.2011 11.9C12.3011 12.7 12.8011 13.5 13.4011 14L17.9011 17.8C18.5011 18.3 19.0011 19 19.5011 19.6C19.8011 20 20.1011 20.4 20.4011 20.7C20.6011 20.9 21.1011 21.2 21.5011 21.5C22.2011 21.9 22.9011 22.4 23.4011 22.9L27.5011 27.1C28.1011 27.7 28.9011 28.1 29.7011 28.2C30.4011 28.2 31.1011 28 31.8011 27.4C32.2011 27.3 32.3011 27.2 32.4011 27Z" fill="#3DA8FB"/>
</g>
<defs>
<clipPath id="clip0">
<rect width="41.8" height="40" fill="white"/>
</clipPath>
</defs>
</svg>
