<svg width="17" height="16" viewBox="0 0 17 16" fill="none" xmlns="http://www.w3.org/2000/svg">
<g clip-path="url(#clip0)">
<path d="M10.4824 0H2.81576C1.80242 0 0.982422 0.82 0.982422 1.83333V12.1667C0.982422 13.18 1.80242 14 2.81576 14H7.73575L7.88242 13.18C7.94909 12.8067 8.12242 12.4733 8.38909 12.2L12.3158 8.28V1.83333C12.3158 0.82 11.4958 0 10.4824 0V0ZM3.64909 2.66667H6.31575C6.68242 2.66667 6.98242 2.96667 6.98242 3.33333C6.98242 3.7 6.68242 4 6.31575 4H3.64909C3.28242 4 2.98242 3.7 2.98242 3.33333C2.98242 2.96667 3.28242 2.66667 3.64909 2.66667ZM6.98242 9.33333H3.64909C3.28242 9.33333 2.98242 9.03333 2.98242 8.66667C2.98242 8.3 3.28242 8 3.64909 8H6.98242C7.34909 8 7.64909 8.3 7.64909 8.66667C7.64909 9.03333 7.34909 9.33333 6.98242 9.33333ZM9.64909 6.66667H3.64909C3.28242 6.66667 2.98242 6.36667 2.98242 6C2.98242 5.63333 3.28242 5.33333 3.64909 5.33333H9.64909C10.0158 5.33333 10.3158 5.63333 10.3158 6C10.3158 6.36667 10.0158 6.66667 9.64909 6.66667Z" fill="url(#paint0_linear)"/>
<path d="M9.33568 16C9.20435 16 9.07635 15.948 8.98235 15.8533C8.86701 15.738 8.81501 15.574 8.84368 15.4127L9.19701 13.4093C9.21435 13.3087 9.26368 13.2153 9.33568 13.1427L14.2857 8.1933C14.8937 7.58396 15.491 7.74863 15.8177 8.0753L16.6424 8.89997C17.0977 9.35464 17.0977 10.0946 16.6424 10.55L11.6924 15.5C11.6204 15.5727 11.527 15.6213 11.4257 15.6387L9.42235 15.992C9.39368 15.9973 9.36435 16 9.33568 16ZM11.339 15.1467H11.3457H11.339Z" fill="url(#paint1_linear)"/>
</g>
<defs>
<linearGradient id="paint0_linear" x1="6.64909" y1="0" x2="6.64909" y2="14" gradientUnits="userSpaceOnUse">
<stop stop-color="#FF2A00"/>
<stop offset="1" stop-color="#D92400"/>
</linearGradient>
<linearGradient id="paint1_linear" x1="12.9099" y1="7.78308" x2="12.9099" y2="16" gradientUnits="userSpaceOnUse">
<stop stop-color="#FF2A00"/>
<stop offset="1" stop-color="#D92400"/>
</linearGradient>
<clipPath id="clip0">
<rect width="16" height="16" fill="white" transform="translate(0.982422)"/>
</clipPath>
</defs>
</svg>
