<svg width="71" height="24" viewBox="0 0 71 24" fill="none" xmlns="http://www.w3.org/2000/svg">
<path fill-rule="evenodd" clip-rule="evenodd" d="M24.3787 7.57812H27.8398C28.9983 7.57812 29.8708 7.89836 30.3627 8.50383C30.8106 9.05523 30.9588 9.84256 30.804 10.8446C30.4604 13.135 29.1445 14.2908 26.8646 14.2908H25.7689C25.5326 14.2908 25.3306 14.4711 25.2942 14.7166L24.9167 17.2244C24.8797 17.4698 24.6783 17.6501 24.4414 17.6501H22.7891C22.6114 17.6501 22.4758 17.4847 22.5036 17.3012L23.9035 8.00334C23.9404 7.75839 24.1418 7.57812 24.3787 7.57812ZM26.1827 12.2747C27.1002 12.2747 28.0491 12.2747 28.2384 10.9736C28.3077 10.5166 28.2521 10.1858 28.0704 9.9631C27.7657 9.58984 27.1761 9.58984 26.5511 9.58984H26.3117C26.17 9.58984 26.0486 9.698 26.0268 9.84486L25.6604 12.2747H26.1827Z" fill="#253B80"/>
<path fill-rule="evenodd" clip-rule="evenodd" d="M36.5295 10.9328H38.1869C38.3641 10.9328 38.4992 11.0988 38.4709 11.2817L37.5751 17.2246C37.5376 17.47 37.3372 17.6503 37.0999 17.6503H35.6069C35.4303 17.6503 35.2947 17.4849 35.3225 17.3004L35.3964 16.8179C35.3964 16.8179 34.578 17.812 33.1023 17.812C32.2424 17.812 31.5197 17.5522 31.0147 16.9287C30.464 16.2506 30.2388 15.2782 30.3972 14.2613C30.7019 12.2228 32.2662 10.7695 34.0978 10.7695C34.8964 10.7695 35.6965 10.9519 36.0553 11.4975L36.1712 11.6735L36.2446 11.1878C36.2663 11.041 36.3883 10.9328 36.5295 10.9328ZM34.0057 15.9696C34.9642 15.9696 35.7158 15.3037 35.8757 14.3117C35.9481 13.8314 35.8479 13.3956 35.5953 13.0833C35.3433 12.7742 34.9607 12.6104 34.49 12.6104C33.5462 12.6104 32.782 13.298 32.6327 14.2815C32.5548 14.764 32.6479 15.1971 32.8928 15.5015C33.1398 15.8079 33.5244 15.9696 34.0057 15.9696Z" fill="#253B80"/>
<path d="M47.0113 10.9336H45.3457C45.1868 10.9336 45.0375 11.0163 44.9474 11.1547L42.6503 14.6995L41.6766 11.2931C41.6154 11.0799 41.4276 10.9336 41.215 10.9336H39.5784C39.3795 10.9336 39.2413 11.1372 39.3046 11.3334L41.1391 16.9735L39.4144 19.5242C39.2787 19.7252 39.4154 20.0014 39.6497 20.0014H41.3132C41.4711 20.0014 41.6189 19.9208 41.7085 19.7851L47.2481 11.4081C47.3807 11.2077 47.2446 10.9336 47.0113 10.9336Z" fill="#253B80"/>
<path fill-rule="evenodd" clip-rule="evenodd" d="M49.0657 7.57812H52.5273C53.6858 7.57812 54.5578 7.89836 55.0492 8.50383C55.4971 9.05523 55.6463 9.84256 55.491 10.8446C55.1468 13.135 53.8315 14.2908 51.5511 14.2908H50.4559C50.2196 14.2908 50.0176 14.4711 49.9812 14.7166L49.5839 17.3521C49.5581 17.5239 49.4169 17.6501 49.2519 17.6501H47.4756C47.2989 17.6501 47.1633 17.4847 47.1911 17.3012L48.591 8.00334C48.6279 7.75839 48.8293 7.57812 49.0657 7.57812ZM50.8694 12.2747C51.7875 12.2747 52.7364 12.2747 52.9252 10.9736C52.9945 10.5166 52.9393 10.1858 52.7576 9.9631C52.453 9.58984 51.8629 9.58984 51.2384 9.58984H50.999C50.8568 9.58984 50.7363 9.698 50.7146 9.84486L50.3477 12.2747H50.8694Z" fill="#179BD7"/>
<path fill-rule="evenodd" clip-rule="evenodd" d="M61.2159 10.9328H62.8723C63.0499 10.9328 63.1855 11.0988 63.1582 11.2817L62.2619 17.2246C62.225 17.47 62.0236 17.6503 61.7872 17.6503H60.2948C60.1171 17.6503 59.9815 17.4849 60.0093 17.3004L60.0832 16.8179C60.0832 16.8179 59.2649 17.812 57.7891 17.812C56.9293 17.812 56.2076 17.5522 55.7015 16.9287C55.1509 16.2506 54.9267 15.2782 55.0846 14.2613C55.3893 12.2228 56.9531 10.7695 58.7846 10.7695C59.5832 10.7695 60.3828 10.9519 60.7417 11.4975L60.8581 11.6735L60.9314 11.1878C60.9527 11.041 61.0736 10.9328 61.2159 10.9328ZM58.6927 15.9696C59.6512 15.9696 60.4038 15.3037 60.5627 14.3117C60.6361 13.8314 60.5359 13.3956 60.2823 13.0833C60.0303 12.7742 59.6477 12.6104 59.177 12.6104C58.2332 12.6104 57.47 13.298 57.3197 14.2815C57.2427 14.764 57.3348 15.1971 57.5798 15.5015C57.8268 15.8079 58.2124 15.9696 58.6927 15.9696Z" fill="#179BD7"/>
<path d="M64.8266 7.83368L63.406 17.3018C63.3781 17.4852 63.5138 17.6506 63.6904 17.6506H65.1186C65.3559 17.6506 65.5574 17.4704 65.5938 17.2249L66.9946 7.92752C67.0225 7.74407 66.8869 7.57812 66.7102 7.57812H65.111C64.9698 7.57866 64.8483 7.68681 64.8266 7.83368Z" fill="#179BD7"/>
<path d="M8.12856 19.4571L8.39324 17.6959L7.80365 17.6815H4.98828L6.94482 4.68506C6.95089 4.64583 6.97063 4.60924 6.99948 4.58326C7.02832 4.55728 7.06527 4.54297 7.10373 4.54297H11.8508C13.4268 4.54297 14.5144 4.88653 15.0822 5.56464C15.3484 5.88275 15.518 6.21518 15.5999 6.58101C15.686 6.96487 15.6875 7.42348 15.6035 7.98283L15.5974 8.02365V8.38206L15.8636 8.54005C16.0878 8.66465 16.2659 8.80727 16.4026 8.97056C16.6303 9.24255 16.7776 9.58823 16.8399 9.99807C16.9041 10.4196 16.8829 10.9211 16.7776 11.489C16.6561 12.1421 16.4598 12.711 16.1946 13.1765C15.9507 13.6055 15.6399 13.9612 15.271 14.2369C14.9187 14.4988 14.5002 14.6977 14.027 14.8249C13.5685 14.95 13.0457 15.0131 12.4723 15.0131H12.1029C11.8387 15.0131 11.5821 15.1128 11.3807 15.2915C11.1788 15.4738 11.0451 15.723 11.0042 15.9956L10.9763 16.1541L10.5087 19.2583L10.4874 19.3723C10.4819 19.4084 10.4723 19.4264 10.4581 19.4386C10.4454 19.4497 10.4272 19.4571 10.4095 19.4571H8.12856Z" fill="#253B80"/>
<path d="M16.1184 8.06445C16.1042 8.15936 16.088 8.25638 16.0698 8.35606C15.4438 11.7233 13.302 12.8865 10.5666 12.8865H9.17387C8.83935 12.8865 8.55746 13.141 8.50533 13.4867L7.79225 18.2244L7.59032 19.5674C7.55642 19.7943 7.72342 19.999 7.94205 19.999H10.4123C10.7048 19.999 10.9533 19.7763 10.9993 19.4741L11.0236 19.3426L11.4887 16.2505L11.5186 16.0809C11.5641 15.7776 11.8131 15.5549 12.1056 15.5549H12.4751C14.8684 15.5549 16.7419 14.537 17.2895 11.5913C17.5183 10.3607 17.3998 9.33319 16.7945 8.61055C16.6113 8.39264 16.3841 8.21185 16.1184 8.06445Z" fill="#179BD7"/>
<path d="M15.4621 7.79009C15.3665 7.76093 15.2678 7.73442 15.1666 7.71056C15.0648 7.68723 14.9606 7.66656 14.8533 7.64853C14.4778 7.58491 14.0663 7.55469 13.6255 7.55469H9.90476C9.81316 7.55469 9.72611 7.57643 9.64817 7.61566C9.47661 7.70208 9.34907 7.87227 9.3182 8.08063L8.52668 13.3327L8.50391 13.4859C8.55603 13.1402 8.83792 12.8857 9.17245 12.8857H10.5652C13.3006 12.8857 15.4424 11.722 16.0684 8.35527C16.0871 8.2556 16.1028 8.15857 16.117 8.06367C15.9586 7.97566 15.787 7.90037 15.6023 7.83622C15.5568 7.82031 15.5097 7.80494 15.4621 7.79009Z" fill="#222D65"/>
<path d="M9.31865 8.08191C9.34952 7.87355 9.47706 7.70336 9.64862 7.61747C9.72706 7.57824 9.8136 7.5565 9.90521 7.5565H13.626C14.0668 7.5565 14.4782 7.58672 14.8537 7.65034C14.961 7.66837 15.0653 7.68905 15.167 7.71237C15.2682 7.73623 15.3669 7.76274 15.4626 7.7919C15.5101 7.80675 15.5572 7.82212 15.6033 7.8375C15.788 7.90165 15.9595 7.97747 16.1179 8.06495C16.3042 6.8206 16.1164 5.97336 15.4742 5.20618C14.7662 4.36159 13.4883 4 11.8531 4H7.10603C6.77202 4 6.48709 4.25449 6.43547 4.6007L4.45818 17.7308C4.41921 17.9906 4.61051 18.2249 4.86052 18.2249H7.79128L8.52713 13.334L9.31865 8.08191Z" fill="#253B80"/>
</svg>
