<svg width="62" height="16" viewBox="0 0 62 16" fill="none" xmlns="http://www.w3.org/2000/svg">
<g clip-path="url(#clip0_6385_33733)">
<path fill-rule="evenodd" clip-rule="evenodd" d="M19.751 3.57812H23.1819C24.3302 3.57812 25.1951 3.89836 25.6827 4.50384C26.1267 5.05523 26.2737 5.84256 26.1202 6.84462C25.7796 9.13504 24.4752 10.2909 22.2152 10.2909H21.1291C20.8948 10.2909 20.6946 10.4711 20.6585 10.7166L20.2842 13.2244C20.2476 13.4699 20.048 13.6501 19.8132 13.6501H18.1752C17.9991 13.6501 17.8647 13.4847 17.8923 13.3013L19.2799 4.00334C19.3165 3.75839 19.5162 3.57812 19.751 3.57812ZM21.5379 8.27514C22.4474 8.27514 23.3881 8.27514 23.5757 6.97405C23.6444 6.51703 23.5893 6.18619 23.4091 5.96351C23.1071 5.59026 22.5227 5.59026 21.9031 5.59026H21.6658C21.5254 5.59026 21.405 5.69841 21.3834 5.84528L21.0202 8.27514H21.5379Z" fill="#253B80"/>
<path fill-rule="evenodd" clip-rule="evenodd" d="M31.7949 6.93283H33.4379C33.6135 6.93283 33.7474 7.09878 33.7193 7.28169L32.8314 13.2246C32.7942 13.4701 32.5956 13.6503 32.3603 13.6503H30.8804C30.7053 13.6503 30.5708 13.4849 30.5984 13.3004L30.6717 12.8179C30.6717 12.8179 29.8605 13.812 28.3976 13.812C27.5452 13.812 26.8289 13.5522 26.3282 12.9287C25.7824 12.2506 25.5591 11.2783 25.7161 10.2614C26.0181 8.22278 27.5688 6.76953 29.3844 6.76953C30.176 6.76953 30.9691 6.95192 31.3248 7.49748L31.4397 7.6735L31.5125 7.18785C31.534 7.04099 31.6549 6.93283 31.7949 6.93283ZM29.2941 11.97C30.2443 11.97 30.9893 11.3041 31.1478 10.3121C31.2195 9.83179 31.1202 9.39597 30.8699 9.08369C30.62 8.77459 30.2408 8.61076 29.7742 8.61076C28.8386 8.61076 28.0811 9.29842 27.9331 10.2819C27.8558 10.7644 27.9481 11.1976 28.191 11.5019C28.4358 11.8083 28.817 11.97 29.2941 11.97Z" fill="#253B80"/>
<path d="M42.1885 6.93164H40.5375C40.38 6.93164 40.232 7.01435 40.1427 7.15273L37.8656 10.6976L36.9004 7.29111C36.8397 7.07797 36.6536 6.93164 36.4429 6.93164H34.8205C34.6233 6.93164 34.4863 7.13523 34.5491 7.3314L36.3676 12.9716L34.6579 15.5223C34.5235 15.7232 34.6589 15.9995 34.8912 15.9995H36.5402C36.6967 15.9995 36.8432 15.9189 36.932 15.7832L42.4233 7.40616C42.5547 7.20575 42.4198 6.93164 42.1885 6.93164Z" fill="#253B80"/>
<path fill-rule="evenodd" clip-rule="evenodd" d="M44.2241 3.57812H47.6555C48.8039 3.57812 49.6682 3.89836 50.1554 4.50384C50.5993 5.05523 50.7473 5.84256 50.5933 6.84462C50.2522 9.13504 48.9483 10.2909 46.6878 10.2909H45.6022C45.3679 10.2909 45.1677 10.4711 45.1316 10.7166L44.7378 13.3522C44.7122 13.524 44.5723 13.6501 44.4087 13.6501H42.6478C42.4728 13.6501 42.3383 13.4847 42.3659 13.3013L43.7535 4.00334C43.7902 3.75839 43.9898 3.57812 44.2241 3.57812ZM46.0137 8.27523C46.9237 8.27523 47.8643 8.27523 48.0515 6.97415C48.1202 6.51712 48.0655 6.18628 47.8854 5.9636C47.5834 5.59035 46.9985 5.59035 46.3794 5.59035H46.1421C46.0011 5.59035 45.8817 5.69851 45.8602 5.84537L45.4965 8.27523H46.0137Z" fill="#179BD7"/>
<path fill-rule="evenodd" clip-rule="evenodd" d="M56.2674 6.93283H57.9094C58.0855 6.93283 58.2199 7.09878 58.1928 7.28169L57.3043 13.2246C57.2677 13.4701 57.0681 13.6503 56.8338 13.6503H55.3543C55.1783 13.6503 55.0438 13.4849 55.0714 13.3004L55.1446 12.8179C55.1446 12.8179 54.3334 13.812 52.8706 13.812C52.0182 13.812 51.3028 13.5522 50.8012 12.9287C50.2554 12.2506 50.0331 11.2783 50.1896 10.2614C50.4916 8.22278 52.0418 6.76953 53.8574 6.76953C54.649 6.76953 55.4416 6.95192 55.7973 7.49748L55.9127 7.6735L55.9855 7.18785C56.0065 7.04099 56.1264 6.93283 56.2674 6.93283ZM53.7672 11.97C54.7174 11.97 55.4634 11.3041 55.6209 10.3121C55.6936 9.83179 55.5943 9.39597 55.343 9.08369C55.0931 8.77459 54.7139 8.61076 54.2473 8.61076C53.3117 8.61076 52.5552 9.29841 52.4062 10.2819C52.3299 10.7644 52.4212 11.1976 52.664 11.5019C52.9089 11.8083 53.2911 11.97 53.7672 11.97Z" fill="#179BD7"/>
<path d="M59.8464 3.83368L58.4382 13.3018C58.4106 13.4852 58.545 13.6507 58.7201 13.6507H60.1358C60.3711 13.6507 60.5708 13.4704 60.6069 13.2249L61.9955 3.92752C62.0231 3.74407 61.8887 3.57812 61.7136 3.57812H60.1283C59.9883 3.57866 59.8679 3.68681 59.8464 3.83368Z" fill="#179BD7"/>
<path d="M3.6451 15.4572L3.90748 13.6959L3.32303 13.6816H0.532227L2.47169 0.68506C2.47771 0.645826 2.49728 0.609242 2.52587 0.583263C2.55447 0.557284 2.59109 0.542969 2.62922 0.542969H7.3349C8.89711 0.542969 9.9752 0.886532 10.5381 1.56464C10.802 1.88276 10.97 2.21519 11.0513 2.58102C11.1366 2.96487 11.1381 3.42349 11.0548 3.98284L11.0488 4.02366V4.38207L11.3127 4.54007C11.5349 4.66466 11.7115 4.80728 11.8469 4.97058C12.0727 5.24257 12.2187 5.58825 12.2804 5.99809C12.3441 6.41959 12.323 6.92115 12.2187 7.48898C12.0983 8.14217 11.9036 8.71107 11.6407 9.17657C11.3989 9.6055 11.0909 9.96126 10.7252 10.237C10.376 10.4989 9.96115 10.6977 9.49209 10.8249C9.03757 10.9501 8.51935 11.0132 7.95095 11.0132H7.58473C7.32286 11.0132 7.06851 11.1128 6.86885 11.2915C6.66868 11.4739 6.53624 11.7231 6.4956 11.9956L6.46801 12.1541L6.00447 15.2584L5.98339 15.3724C5.97788 15.4084 5.96834 15.4264 5.9543 15.4386C5.94176 15.4498 5.9237 15.4572 5.90614 15.4572H3.6451Z" fill="#253B80"/>
<path d="M11.5625 4.06445C11.5485 4.15936 11.5324 4.25638 11.5144 4.35606C10.8938 7.72329 8.77071 8.88653 6.05917 8.88653H4.67857C4.34697 8.88653 4.06754 9.14102 4.01586 9.4867L3.30901 14.2245L3.10884 15.5674C3.07523 15.7944 3.24078 15.999 3.4575 15.999H5.90616C6.19613 15.999 6.44245 15.7763 6.4881 15.4741L6.51218 15.3426L6.97322 12.2506L7.00282 12.0809C7.04797 11.7777 7.29479 11.555 7.58476 11.555H7.95098C10.3234 11.555 12.1806 10.537 12.7234 7.59127C12.9501 6.3607 12.8328 5.3332 12.2327 4.61055C12.0511 4.39264 11.8259 4.21185 11.5625 4.06445Z" fill="#179BD7"/>
<path d="M10.9121 3.79204C10.8173 3.76288 10.7195 3.73637 10.6192 3.71252C10.5183 3.68919 10.415 3.66851 10.3086 3.65048C9.93639 3.58686 9.52853 3.55664 9.09157 3.55664H5.40328C5.31247 3.55664 5.22619 3.57838 5.14893 3.61761C4.97886 3.70403 4.85244 3.87422 4.82184 4.08259L4.03722 9.33465L4.01465 9.48787C4.06632 9.14219 4.34575 8.8877 4.67736 8.8877H6.05796C8.7695 8.8877 10.8926 7.72393 11.5131 4.35723C11.5317 4.25755 11.5473 4.16053 11.5613 4.06562C11.4043 3.97761 11.2342 3.90232 11.0511 3.83817C11.006 3.82227 10.9593 3.80689 10.9121 3.79204Z" fill="#222D65"/>
</g>
<defs>
<clipPath id="clip0_6385_33733">
<rect width="62" height="16" fill="white"/>
</clipPath>
</defs>
</svg>
