<svg width="14" height="14" viewBox="0 0 14 14" fill="none" xmlns="http://www.w3.org/2000/svg">
<g id="Layer_1" clip-path="url(#clip0_1727_36098)">
<path id="Vector" d="M6.99525 11.6397L13.4703 5.16473C13.8103 4.82473 14.0003 4.36973 14.0003 3.88473C14.0003 3.39973 13.8103 2.94473 13.4703 2.60473L11.3953 0.529727C10.6903 -0.175273 9.54025 -0.175273 8.83525 0.529727L2.36025 7.00473C1.81525 7.54973 1.42025 8.22973 1.22025 8.96973L0.0202517 13.3697C-0.0697483 13.6747 0.185252 14.0097 0.500252 13.9997H13.5003C13.7753 13.9997 14.0003 13.7747 14.0003 13.4997C14.0003 13.2247 13.7753 12.9997 13.5003 12.9997H4.23525L5.03025 12.7847C5.77025 12.5847 6.45025 12.1897 6.99525 11.6447V11.6397ZM4.76525 11.8147L1.21525 12.7847L2.18525 9.23473C2.34025 8.65973 2.64525 8.13473 3.07025 7.71473L7.50525 3.26973L10.7253 6.48973L6.28525 10.9297C5.86525 11.3497 5.33525 11.6547 4.76525 11.8147ZM10.6853 1.23473L12.7603 3.30973C12.9153 3.46473 12.9953 3.66473 12.9953 3.87973C12.9953 4.09473 12.9103 4.29973 12.7603 4.44973L11.4303 5.77973L8.21025 2.55973L9.54025 1.22973C9.70025 1.06973 9.90525 0.994727 10.1153 0.994727C10.3253 0.994727 10.5303 1.07473 10.6853 1.22973V1.23473Z" fill="#FF3D00"/>
</g>
<defs>
<clipPath id="clip0_1727_36098">
<rect width="14" height="14" fill="white"/>
</clipPath>
</defs>
</svg>
