<svg width="12" height="12" viewBox="0 0 12 12" fill="none" xmlns="http://www.w3.org/2000/svg">
<g id="pencil-simple-fill 1">
<path id="Vector" d="M10.6552 3.43957L8.56079 1.34473C8.49114 1.27507 8.40845 1.21981 8.31745 1.18211C8.22644 1.1444 8.1289 1.125 8.03039 1.125C7.93189 1.125 7.83435 1.1444 7.74334 1.18211C7.65234 1.21981 7.56965 1.27507 7.5 1.34473L1.71985 7.12535C1.6499 7.19475 1.59444 7.27735 1.5567 7.36836C1.51896 7.45938 1.49969 7.55698 1.5 7.65551V9.75035C1.5 9.94927 1.57902 10.14 1.71967 10.2807C1.86033 10.4213 2.05109 10.5004 2.25 10.5004H4.34485C4.44338 10.5007 4.54098 10.4814 4.632 10.4437C4.72301 10.4059 4.80561 10.3505 4.875 10.2805L10.6552 4.50036C10.7248 4.43071 10.7801 4.34802 10.8178 4.25702C10.8555 4.16601 10.8749 4.06847 10.8749 3.96996C10.8749 3.87146 10.8555 3.77392 10.8178 3.68291C10.7801 3.59191 10.7248 3.50922 10.6552 3.43957ZM9 5.09473L6.90516 3.00036L8.03016 1.87536L10.125 3.96973L9 5.09473Z" fill="#80918F"/>
</g>
</svg>
