<svg width="60" height="61" viewBox="0 0 60 61" fill="none" xmlns="http://www.w3.org/2000/svg">
<path opacity="0.4" d="M43.8246 19.925C43.6496 19.9 43.4746 19.9 43.2996 19.925C39.4246 19.8 36.3496 16.625 36.3496 12.725C36.3496 8.75 39.5746 5.5 43.5746 5.5C47.5496 5.5 50.7996 8.725 50.7996 12.725C50.7746 16.625 47.6996 19.8 43.8246 19.925Z" fill="#000066"/>
<path opacity="0.4" d="M51.975 37.25C49.175 39.125 45.25 39.825 41.625 39.35C42.575 37.3 43.075 35.025 43.1 32.625C43.1 30.125 42.55 27.75 41.5 25.675C45.2 25.175 49.125 25.875 51.95 27.75C55.9 30.35 55.9 34.625 51.975 37.25Z" fill="#000066"/>
<path opacity="0.4" d="M16.1 19.925C16.275 19.9 16.45 19.9 16.625 19.925C20.5 19.8 23.575 16.625 23.575 12.725C23.575 8.75 20.35 5.5 16.35 5.5C12.375 5.5 9.125 8.725 9.125 12.725C9.15 16.625 12.225 19.8 16.1 19.925Z" fill="#000066"/>
<path opacity="0.4" d="M16.3758 32.625C16.3758 35.05 16.9008 37.35 17.8508 39.425C14.3258 39.8 10.6508 39.05 7.95078 37.275C4.00078 34.65 4.00078 30.375 7.95078 27.75C10.6258 25.95 14.4008 25.225 17.9508 25.625C16.9258 27.725 16.3758 30.1 16.3758 32.625Z" fill="#3939A3"/>
<path d="M30.3 40.175C30.1 40.15 29.875 40.15 29.65 40.175C25.05 40.025 21.375 36.25 21.375 31.6C21.375 26.85 25.2 23 29.975 23C34.725 23 38.575 26.85 38.575 31.6C38.575 36.25 34.925 40.025 30.3 40.175Z" fill="#3939A3"/>
<path d="M22.175 45.35C18.4 47.875 18.4 52.025 22.175 54.525C26.475 57.4 33.525 57.4 37.825 54.525C41.6 52 41.6 47.85 37.825 45.35C33.55 42.475 26.5 42.475 22.175 45.35Z" fill="#3939A3"/>
</svg>
