<svg width="18" height="18" viewBox="0 0 18 18" fill="none" xmlns="http://www.w3.org/2000/svg">
<path d="M4 2.4C4.9 2.4 5.6 3.1 5.6 4C5.6 4.9 4.9 5.6 4 5.6C3.1 5.6 2.4 4.9 2.4 4C2.4 3.1 3.1 2.4 4 2.4ZM4 0C1.8 0 0 1.8 0 4C0 6.2 1.8 8 4 8C6.2 8 8 6.2 8 4C8 1.8 6.2 0 4 0Z" fill="#0A4586"/>
<path d="M14 12.4C14.9 12.4 15.6 13.1 15.6 14C15.6 14.9 14.9 15.6 14 15.6C13.1 15.6 12.4 14.9 12.4 14C12.4 13.1 13.1 12.4 14 12.4ZM14 10C11.8 10 10 11.8 10 14C10 16.2 11.8 18 14 18C16.2 18 18 16.2 18 14C18 11.8 16.2 10 14 10Z" fill="#FF3333"/>
<path d="M2.0002 17.2C1.37868 17.2 0.836376 16.5905 0.825365 15.9691C0.819936 15.6628 0.94488 15.3553 1.2002 15.1L15.2002 1.09998C15.7002 0.599976 16.4002 0.599976 16.9002 1.09998C17.4002 1.59998 17.4002 2.29998 16.9002 2.79998L2.9002 16.8C2.6002 17.1 2.3002 17.2 2.0002 17.2Z" fill="#0A4586"/>
</svg>
