<svg width="80" height="80" viewBox="0 0 80 80" fill="none" xmlns="http://www.w3.org/2000/svg">
<path d="M80 0H0V80H80V0Z" fill="url(#paint0_linear)"/>
<path d="M78 2H2V78H78V2Z" fill="white"/>
<path d="M45.2695 55.9868C37.9595 52.9268 26.9095 42.0468 23.8495 34.7368C22.6595 32.0168 22.6595 29.8068 23.8495 28.1068C24.3595 27.2568 27.0796 24.0268 29.6296 24.1968C30.3096 24.3668 30.9895 24.7068 31.4995 25.2168C33.0295 26.7468 34.3896 28.6168 35.2396 30.4868C35.4096 31.5068 35.0695 32.5268 34.5595 33.2068C34.0495 34.0568 32.8595 35.5868 33.1995 36.4368C35.2395 41.0268 38.9795 44.5968 43.5695 46.4668C44.4195 46.8068 45.9495 45.6168 46.7995 45.1068C47.6495 44.5968 48.4995 44.2568 49.5195 44.4268C51.3895 45.4468 53.2596 46.8068 54.7896 48.3368C55.2996 48.8468 55.6395 49.5268 55.8095 50.2068C55.9795 52.7568 52.4095 55.6468 51.8995 55.9868C51.0495 56.6668 50.0295 56.8368 49.0095 56.8368C47.6495 57.0068 46.4595 56.6668 45.2695 55.9868ZM48.1595 36.4368C47.6495 34.0568 45.7795 32.1868 43.5695 31.6768C42.7195 31.5068 42.2096 30.8268 42.3796 29.9768C42.5496 29.1268 43.2296 28.6168 44.0796 28.7868C47.6496 29.4668 50.3695 32.1868 51.0495 35.7568C51.2195 36.6068 50.7095 37.2868 49.8595 37.4568C49.6895 37.4568 49.6895 37.4568 49.5195 37.4568C49.0095 37.6268 48.3295 37.1168 48.1595 36.4368ZM54.1095 36.4368C53.5995 30.9968 49.1796 26.5768 43.7396 26.0668C42.8896 25.8968 42.3796 25.2168 42.3796 24.3668C42.3796 24.0268 42.5496 23.6868 42.8896 23.3468C43.2296 23.1768 43.5695 23.0068 43.9095 23.0068C50.7095 23.6868 56.1496 29.1268 56.8296 36.0968C56.9996 36.9468 56.3195 37.6268 55.4695 37.6268H55.2995C54.7895 37.6268 54.1095 37.1168 54.1095 36.4368Z" fill="#200E32"/>
<defs>
<linearGradient id="paint0_linear" x1="0" y1="0" x2="80" y2="80" gradientUnits="userSpaceOnUse">
<stop stop-color="#D92400"/>
<stop offset="0.527" stop-color="#D92400" stop-opacity="0.3"/>
<stop offset="1" stop-color="#D92400"/>
</linearGradient>
</defs>
</svg>
