<svg width="120" height="116" viewBox="0 0 120 116" fill="none" xmlns="http://www.w3.org/2000/svg">
<path fill-rule="evenodd" clip-rule="evenodd" d="M61.1008 0.0223519C79.796 -0.46543 98.3917 7.0369 109.719 21.8887C120.773 36.3828 122.427 55.926 117 73.3173C112.058 89.1571 98.2146 99.2642 83.2935 106.577C68.1819 113.982 51.4022 119.305 35.7413 113.139C18.7403 106.447 5.1913 92.0282 1.15024 74.2401C-2.88453 56.4795 4.11691 38.523 15.5693 24.3452C26.9363 10.273 42.9957 0.494738 61.1008 0.0223519Z" fill="#FFDCE2"/>
<path d="M44.0164 76.3207H34.4196C33.2884 76.3207 32.2036 75.8713 31.4037 75.0714C30.6038 74.2715 30.1544 73.1867 30.1544 72.0555V69.9229H33.3533L34.4196 72.0555H39.7511C40.8824 72.0555 41.9672 72.5048 42.7671 73.3047C43.567 74.1046 44.0164 75.1895 44.0164 76.3207Z" fill="#333333"/>
<path d="M39.7512 64.5909V61.392H36.5523L35.486 60.3257L33.5586 62.3143L32.5257 62.4703C31.9948 62.5777 31.4905 62.7889 31.0415 63.0918C30.5925 63.3946 30.2077 63.7831 29.9092 64.235C29.6043 64.6976 29.3949 65.2165 29.2934 65.7612C29.1975 66.2811 29.203 66.8147 29.3094 67.3326C29.7639 69.5625 32.1884 71.4432 34.4197 70.9887C34.4197 70.9887 37.6093 70.5982 40.8175 69.9224H44.0164V63.5246L39.7512 64.5909Z" fill="#FFF2E8"/>
<path d="M90.9337 75.0023C90.9333 75.3518 90.7943 75.6869 90.5472 75.934C90.3001 76.1812 89.965 76.3202 89.6155 76.3205H81.337L80.8251 63.5249L80.2707 48.5966L71.7402 53.9281C71.4437 55.7165 70.5217 57.3414 69.1385 58.5132C67.7553 59.685 66.0009 60.3274 64.1881 60.326H61.0772L58.0849 64.3166L51.4805 73.1216H44.0164V61.5216C44.0166 60.6301 44.2348 59.7522 44.6521 58.9644C45.0693 58.1766 45.6729 57.5028 46.4102 57.0018C47.3401 56.3796 48.4357 56.0517 49.5545 56.0607H51.4805L59.2632 50.8719L64.2761 47.5303L79.2177 40.558C80.0156 40.1858 80.8944 40.0207 81.773 40.078C82.6516 40.1354 83.5015 40.4133 84.2442 40.8862C84.9869 41.3591 85.5984 42.0115 86.0222 42.7833C86.4459 43.5551 86.6682 44.4213 86.6685 45.3017V72.0553L90.2046 73.824C90.4236 73.9333 90.6077 74.1015 90.7365 74.3096C90.8653 74.5177 90.9336 74.7576 90.9337 75.0023Z" fill="#FFF2E8"/>
<path d="M49.6612 64.6311C51.3375 64.8857 52.5468 66.3785 52.5468 68.0741V71.6995L58.0849 64.3162L51.4805 56.0607H49.5543C48.4355 56.0517 47.3398 56.3798 46.4101 57.0023C45.6728 57.5032 45.0692 58.1769 44.652 58.9646C44.2347 59.7523 44.0165 60.6301 44.0164 61.5215V73.1216L45.993 66.9626C46.4729 65.4687 47.9141 64.4552 49.4756 64.6074C49.5374 64.6134 49.5993 64.6213 49.6612 64.6311Z" fill="#FFA9B8"/>
<path d="M44.0164 73.1218C44.0164 72.2734 44.3534 71.4597 44.9533 70.8598C45.5532 70.2599 46.3669 69.9229 47.2153 69.9229H47.6619C48.7786 69.9229 49.888 70.1029 50.9473 70.456C52.0067 70.8091 53.1161 70.9891 54.2327 70.9892H58.9446L69.6076 72.0555L73.8728 70.9892H76.0055V76.3207H47.2153C46.3669 76.3207 45.5532 75.9836 44.9533 75.3837C44.3534 74.7838 44.0164 73.9702 44.0164 73.1218Z" fill="#FFF2E8"/>
<path d="M86.6685 45.3017V63.5249H80.8252L80.2707 48.5966L71.7403 53.9281C71.4946 55.4019 70.8232 56.7716 69.8089 57.8686C68.7946 58.9655 67.4816 59.7419 66.0315 60.102L59.2632 50.8719L64.2761 47.5303L79.2177 40.558C80.0156 40.1858 80.8945 40.0207 81.773 40.078C82.6516 40.1354 83.5016 40.4133 84.2443 40.8862C84.987 41.3591 85.5985 42.0115 86.0222 42.7833C86.4459 43.5551 86.6682 44.4213 86.6685 45.3017Z" fill="url(#paint0_linear)"/>
<path d="M29.0882 71.3996V72.0554C29.0897 73.4689 29.652 74.8241 30.6515 75.8236C31.651 76.8231 33.0062 77.3853 34.4197 77.3869H44.0164C44.2218 77.3868 44.4228 77.3273 44.5952 77.2157C44.7676 77.1041 44.9042 76.945 44.9883 76.7577C45.6579 77.1699 46.429 77.3878 47.2153 77.3869H58.9446V75.2543H47.2153C46.6502 75.2537 46.1084 75.029 45.7087 74.6296C45.3089 74.2302 45.0838 73.6886 45.0827 73.1236C45.0803 70.3596 48.9321 70.9082 50.6102 71.4675C51.7782 71.8572 53.0015 72.0558 54.2328 72.0554H58.8913L69.501 73.1164C69.6232 73.1286 69.7466 73.1196 69.8657 73.0897L74.0042 72.0554H74.9392V75.2543H61.0773V77.3869H76.0055C76.2883 77.3869 76.5595 77.2746 76.7595 77.0746C76.9595 76.8746 77.0718 76.6034 77.0718 76.3206V70.9891C77.0718 70.7063 76.9595 70.4351 76.7595 70.2351C76.5595 70.0351 76.2883 69.9228 76.0055 69.9228H73.8729C73.7857 69.9228 73.6989 69.9335 73.6143 69.9546L69.529 70.9758L59.0513 69.9281C59.0158 69.9245 58.9803 69.9227 58.9446 69.9228C58.9446 69.9228 53.8191 69.9143 53.6131 69.9005V68.0745C53.6131 65.8086 51.8547 63.7917 49.5941 63.5479L49.579 63.5464C47.6521 63.3584 45.8086 64.5245 45.0827 66.3477V61.5227C45.0869 60.8056 45.2644 60.1002 45.6002 59.4666C45.936 58.833 46.4201 58.29 47.0111 57.884C48.184 57.0842 49.6093 57.1284 50.968 57.1284L56.7361 64.3392L54.4662 67.3637L56.1723 68.6432L61.6104 61.3924H64.1882C66.1687 61.3937 68.0905 60.7205 69.6373 59.4835C71.184 58.2466 72.2633 56.5198 72.6974 54.5875L79.2736 50.4774L80.2716 76.3633C80.2827 76.6384 80.3997 76.8987 80.5983 77.0895C80.7969 77.2803 81.0616 77.3869 81.337 77.3869H89.6155C90.1526 77.387 90.674 77.2057 91.0953 76.8725C91.5165 76.5392 91.8128 76.0734 91.9362 75.5507C92.0596 75.028 92.0029 74.4789 91.7752 73.9924C91.5476 73.5059 91.1623 73.1106 90.6818 72.8704L87.7348 71.3966V58.1935H85.6022V62.4587H81.8526L81.3362 48.5567C81.3293 48.3699 81.2733 48.1882 81.174 48.0298C81.0746 47.8714 80.9354 47.7419 80.7702 47.6543C80.605 47.5667 80.4197 47.5241 80.2328 47.5307C80.046 47.5374 79.8641 47.593 79.7056 47.6921L71.1751 53.0236C71.047 53.1037 70.9374 53.21 70.8535 53.3357C70.7696 53.4613 70.7134 53.6033 70.6885 53.7523C70.4973 54.9036 70.0037 55.9835 69.258 56.8814C68.5124 57.7792 67.5415 58.4628 66.4449 58.8622L60.7828 51.1405L64.8004 48.4621L79.669 41.5238C80.3045 41.2274 81.0043 41.096 81.704 41.1418C82.4036 41.1875 83.0804 41.4089 83.6719 41.7855C84.2633 42.1621 84.7502 42.6817 85.0876 43.2963C85.425 43.911 85.602 44.6007 85.6022 45.3019V55.8387H87.7348V45.3019C87.7341 43.6307 87.07 42.0282 85.8883 40.8465C84.7066 39.6649 83.1041 39.0007 81.433 39C80.512 39.0013 79.6023 39.2033 78.7672 39.5918L63.8256 46.5641C63.7769 46.5869 63.7298 46.6133 63.685 46.6431L51.1577 54.9945C49.2482 54.9945 47.4523 55.0003 45.8091 56.1211C44.0928 57.2918 42.9501 59.4513 42.9501 61.5217V62.6925L40.8175 63.2256V61.3924C40.8175 61.1096 40.7052 60.8383 40.5052 60.6384C40.3052 60.4384 40.034 60.3261 39.7512 60.3261H36.9939L36.24 59.572C36.141 59.473 36.0234 59.3945 35.894 59.3409C35.7647 59.2873 35.626 59.2598 35.486 59.2598H35.4777C35.3363 59.2609 35.1964 59.2901 35.0664 59.3458C34.9363 59.4015 34.8187 59.4825 34.7202 59.584L33.0435 61.3141L32.3665 61.4164C32.3488 61.419 32.3311 61.4221 32.3132 61.4257C31.3084 61.6295 30.3866 62.1268 29.6644 62.8546C28.9422 63.5824 28.4521 64.508 28.256 65.5144C27.9198 66.8227 27.9147 68.1942 28.2411 69.5049C28.4176 70.1787 28.7038 70.8188 29.0882 71.3996ZM47.0083 67.2885C47.3415 66.2488 48.3364 65.5672 49.3644 65.6677C49.4024 65.6718 49.4414 65.6753 49.4792 65.682L49.5009 65.6854C50.6295 65.8575 51.4805 66.8838 51.4805 68.0741V69.5053C51.4152 69.4852 51.3496 69.4653 51.2846 69.4444C50.1166 69.0547 48.8933 68.8561 47.662 68.8565H47.2153C46.9703 68.8568 46.7257 68.8782 46.4844 68.9205L47.0083 67.2885ZM85.6022 64.5913V72.0554C85.6022 72.2534 85.6573 72.4475 85.7614 72.6159C85.8655 72.7844 86.0144 72.9205 86.1915 73.0091L89.729 74.7785C89.7704 74.7994 89.8053 74.8314 89.8298 74.8709C89.8542 74.9104 89.8673 74.9559 89.8674 75.0024C89.8671 75.0691 89.8404 75.133 89.7933 75.1801C89.7461 75.2273 89.6822 75.254 89.6155 75.2543H82.3616L81.9351 64.5913H85.6022ZM59.0066 52.3251L64.0917 59.2598H61.0773C60.9117 59.2598 60.7485 59.2983 60.6004 59.3723C60.4523 59.4464 60.3235 59.5539 60.2242 59.6863L58.0575 62.5753L53.04 56.3029L59.0066 52.3251ZM34.4197 75.2543C33.8499 75.2539 33.2905 75.1013 32.7994 74.8124C32.3083 74.5236 31.9032 74.1088 31.626 73.611C32.4531 74.0194 33.3639 74.23 34.2864 74.2262C35.5458 74.2262 36.8866 73.8565 38.268 73.1217H39.7512C40.4125 73.1225 41.0575 73.3279 41.5975 73.7097C42.1375 74.0915 42.5461 74.631 42.7674 75.2543H34.4197ZM42.9501 72.0583C42.3882 71.635 41.7479 71.3274 41.0662 71.1536C41.1329 71.0939 41.1924 71.0397 41.2472 70.9891H42.9501V72.0583ZM30.7977 64.8249C31.2391 64.1543 31.9278 63.6855 32.7136 63.5207C33.2726 63.4025 33.9033 63.4117 34.3853 63.0133C34.7878 62.6801 35.1325 62.223 35.498 61.8459L35.7984 62.1464C35.9984 62.3463 36.2695 62.4586 36.5523 62.4587H38.6849V64.5913C38.6849 64.7533 38.7218 64.9132 38.7929 65.0588C38.8639 65.2045 38.9673 65.332 39.095 65.4317C39.2227 65.5314 39.3715 65.6007 39.53 65.6343C39.6885 65.668 39.8526 65.665 40.0098 65.6257L42.9501 64.8906V68.8565H41.0238L37.6307 67.4915C37.4028 67.3998 37.1501 67.3896 36.9155 67.4627C36.6809 67.5358 36.4788 67.6877 36.3433 67.8927L35.647 68.9457C35.6102 69.0005 35.56 69.0449 35.5012 69.0747C35.4423 69.1046 35.3768 69.1188 35.3108 69.116C35.2537 69.1132 35.198 69.0976 35.1478 69.0703C35.0975 69.043 35.0541 69.0048 35.0206 68.9584C34.9872 68.912 34.9647 68.8587 34.9547 68.8024C34.9447 68.7461 34.9475 68.6883 34.963 68.6332L35.0583 68.2931C35.1262 68.0508 35.1062 67.7922 35.0018 67.5632C34.8975 67.3342 34.7155 67.1495 34.4881 67.0418L30.5922 65.1967C30.6522 65.0682 30.7209 64.944 30.7977 64.8249ZM30.1419 67.3431L32.8185 68.611C32.7911 69.1613 32.9453 69.7054 33.2573 70.1595C33.5693 70.6136 34.0219 70.9526 34.5455 71.1244C35.069 71.2962 35.6345 71.2912 36.1549 71.1102C36.6753 70.9292 37.1219 70.5823 37.4258 70.1227L37.6423 69.7952L38.7938 70.2584C37.276 71.4002 34.6441 72.8755 32.3728 71.5967C30.4182 70.4959 30.095 68.634 30.1419 67.3431Z" fill="#333333"/>
<defs>
<linearGradient id="paint0_linear" x1="64.5" y1="48" x2="85.5" y2="62.5" gradientUnits="userSpaceOnUse">
<stop offset="0.00349298" stop-color="#F15A89"/>
<stop offset="1" stop-color="#FF97B7"/>
</linearGradient>
</defs>
</svg>
