<svg width="22" height="24" viewBox="0 0 22 24" fill="none" xmlns="http://www.w3.org/2000/svg">
<path fill-rule="evenodd" clip-rule="evenodd" d="M17.2218 17.5886C18.1765 17.3976 19.156 17.6422 19.909 18.2595C20.6619 18.8768 21.0938 19.7892 21.0938 20.7629C21.0938 22.5478 19.6416 24 17.8567 24H3.27924C2.40357 24 1.5473 23.6402 0.930004 23.0129C0.316598 22.3895 -0.013543 21.5713 0.000425795 20.7091C0.0160352 19.7466 0.455207 18.8476 1.20535 18.2428C1.9553 17.6381 2.92735 17.3996 3.87202 17.5886L5.26791 17.8678L6.0938 16.5343V15.5625H5.39068C3.9691 15.5625 2.81255 14.406 2.81255 12.9844C2.81255 10.0073 4.87908 7.50436 7.65286 6.83334C6.94974 6.10739 6.51568 5.11931 6.51568 4.03125C6.51568 1.80844 8.32411 0 10.5469 0C12.7697 0 14.5782 1.80844 14.5782 4.03125C14.5782 5.11931 14.1441 6.10739 13.441 6.83334C16.2148 7.50436 18.2813 10.0073 18.2813 12.9844C18.2813 14.406 17.1248 15.5625 15.7032 15.5625H15.0001V16.5343L15.8259 17.8678L17.2218 17.5886ZM13.1719 4.03125C13.1719 2.58384 11.9943 1.40625 10.5469 1.40625C9.09947 1.40625 7.92193 2.58384 7.92193 4.03125C7.92193 5.47866 9.09952 6.65625 10.5469 6.65625C11.9943 6.65625 13.1719 5.47866 13.1719 4.03125ZM9.14068 8.0625C6.42675 8.0625 4.2188 10.2705 4.2188 12.9844C4.2188 13.6305 4.7445 14.1562 5.39068 14.1562H7.45055C8.41697 14.1562 9.35279 13.8729 10.1569 13.3368C10.275 13.2581 10.411 13.2188 10.5469 13.2188C10.6829 13.2188 10.8188 13.2581 10.937 13.3368C11.7411 13.8729 12.6769 14.1562 13.6433 14.1562H15.7032C16.3493 14.1562 16.8751 13.6305 16.8751 12.9844C16.8751 10.2705 14.6671 8.0625 11.9532 8.0625H9.14068ZM7.50005 16.7344C7.50005 16.8652 7.46354 16.9934 7.39468 17.1046L6.73979 18.1621L10.5471 18.9236L14.3542 18.1621L13.6992 17.1046C13.6303 16.9934 13.5938 16.8652 13.5938 16.7344V15.5617C12.5196 15.5534 11.4759 15.2738 10.5469 14.7471C9.61796 15.2738 8.57429 15.5534 7.50005 15.5617V16.7344ZM1.40658 20.7319C1.39875 21.2142 1.58555 21.674 1.93247 22.0266C2.28708 22.387 2.778 22.5938 3.27929 22.5938H5.78939C5.68378 22.3334 5.62505 22.0492 5.62505 21.7514C5.62505 20.8177 6.20588 19.9917 7.05169 19.6586L3.5963 18.9675C3.06188 18.8606 2.51222 18.9955 2.08814 19.3375C1.66378 19.6796 1.41539 20.1879 1.40658 20.7319ZM7.87369 22.5938H17.8567C18.8662 22.5938 19.6876 21.7725 19.6875 20.7628C19.6875 20.2121 19.4432 19.696 19.0174 19.3469C18.6864 19.0756 18.2781 18.9316 17.8591 18.9316C17.7389 18.9316 17.6179 18.9435 17.4976 18.9675L7.70846 20.9253C7.31607 21.0038 7.0313 21.3512 7.0313 21.7514C7.0313 22.2158 7.40921 22.5938 7.87369 22.5938ZM10.5468 10.875L10.1538 11.399C9.75417 11.9318 9.17222 12.2857 8.51517 12.3952L6.44367 12.7404C6.06047 12.8044 5.69831 12.5455 5.63452 12.1625C5.57067 11.7794 5.82942 11.4172 6.21248 11.3533L8.28398 11.0081C8.58263 10.9583 8.84719 10.7975 9.02883 10.5553L9.98433 9.28125C10.1171 9.1042 10.3255 9 10.5468 9C10.7681 9 10.9765 9.1042 11.1093 9.28125L12.0649 10.5553C12.2465 10.7975 12.511 10.9583 12.8097 11.0081L14.8812 11.3533C15.2642 11.4172 15.523 11.7795 15.4591 12.1625C15.4018 12.5064 15.1039 12.7501 14.7664 12.7501C14.728 12.7501 14.6891 12.747 14.65 12.7404L12.5785 12.3952C11.9214 12.2857 11.3394 11.9319 10.9398 11.399L10.5468 10.875Z" fill="url(#paint0_linear)"/>
<defs>
<linearGradient id="paint0_linear" x1="21.0938" y1="12" x2="0" y2="12" gradientUnits="userSpaceOnUse">
<stop stop-color="#BA58E1"/>
<stop offset="1" stop-color="#6F49BC"/>
</linearGradient>
</defs>
</svg>
