<svg width="30" height="27" viewBox="0 0 30 27" fill="none" xmlns="http://www.w3.org/2000/svg">
<path d="M14.3333 17.0505C14.5252 17.2222 14.7576 17.303 15 17.303C15.2424 17.303 15.4747 17.2222 15.6666 17.0505C15.9091 16.8384 21.5656 11.798 21.5656 6.56566C21.5656 2.9495 18.6262 0 15 0C11.3838 0 8.43433 2.9495 8.43433 6.56566C8.43433 11.798 14.0909 16.8384 14.3333 17.0505ZM15 4.84848C15.9394 4.84848 16.6969 5.61616 16.6969 6.56566C16.6969 7.51515 15.9394 8.28283 15 8.28283C14.0606 8.28283 13.303 7.51515 13.303 6.56566C13.303 5.61616 14.0606 4.84848 15 4.84848Z" fill="white"/>
<path d="M27.6164 17.0502L26.8589 14.3835C26.7376 13.9492 26.3437 13.6562 25.8892 13.6562H20.4649C20.273 13.9492 20.0609 14.2421 19.8386 14.535C18.3134 16.5754 16.7679 17.9593 16.5962 18.1108C16.1518 18.4946 15.5861 18.7169 15.0003 18.7169C14.4144 18.7169 13.8487 18.5047 13.4043 18.1108C13.2326 17.9593 11.6871 16.5754 10.1619 14.535C9.93965 14.2421 9.73763 13.9492 9.53561 13.6562H4.12146C3.66692 13.6562 3.27298 13.9593 3.15177 14.3835L2.24268 17.5552L22.4952 21.2623L27.6164 17.0502Z" fill="white"/>
<path d="M29.9595 25.2846L28.0201 18.4766L18.3838 26.5675H28.9898C29.303 26.5675 29.606 26.4159 29.7979 26.1634C29.9898 25.9109 30.0504 25.5877 29.9595 25.2846Z" fill="white"/>
<path d="M4.92938 19.4836L1.85868 18.918L0.040495 25.2816C-0.0504141 25.5846 0.010192 25.9079 0.202111 26.1604C0.39403 26.4129 0.68696 26.5644 1.01019 26.5644H4.92938V19.4836Z" fill="white"/>
<path d="M6.3335 19.7383V26.5666H16.1921L21.1012 22.4454L6.3335 19.7383Z" fill="white"/>
</svg>
