<svg width="36" height="36" viewBox="0 0 36 36" fill="none" xmlns="http://www.w3.org/2000/svg">
<circle cx="18" cy="18" r="18" fill="#BD081C"/>
<path fill-rule="evenodd" clip-rule="evenodd" d="M18.545 7.5C12.1993 7.5 9 11.6089 9 15.0353C9 17.1098 9.86977 18.9559 11.735 19.643C12.0409 19.7559 12.3149 19.647 12.4035 19.3411C12.4653 19.1292 12.6113 18.5949 12.676 18.3725C12.7654 18.0699 12.7305 17.9643 12.4834 17.7004C11.9457 17.1275 11.6021 16.3859 11.6021 15.3352C11.6021 12.2862 14.1278 9.55742 18.178 9.55742C21.7647 9.55742 23.7353 11.5374 23.7353 14.1802C23.7353 17.6584 22.0306 20.594 19.5012 20.594C18.1039 20.594 17.0583 19.5498 17.3933 18.2701C17.7944 16.7423 18.5726 15.0924 18.5726 13.9899C18.5726 13.0029 17.9855 12.1792 16.7713 12.1792C15.3427 12.1792 14.1954 13.5134 14.1954 15.3011C14.1954 16.4397 14.6212 17.2102 14.6212 17.2102C14.6212 17.2102 13.1592 22.8036 12.9034 23.7834C12.3933 25.7345 12.8271 28.126 12.8635 28.3675C12.8853 28.5106 13.0887 28.5447 13.181 28.4358C13.3125 28.2809 15.0136 26.3836 15.592 24.4883C15.7555 23.9521 16.5315 21.1728 16.5315 21.1728C16.9951 21.9721 18.3517 22.6763 19.794 22.6763C24.0877 22.6763 27 19.141 27 14.4086C27 10.8319 23.6452 7.5 18.545 7.5Z" fill="white"/>
</svg>
