<svg width="64" height="64" viewBox="0 0 64 64" fill="none" xmlns="http://www.w3.org/2000/svg">
<g clip-path="url(#clip0_387_22869)">
<path fill-rule="evenodd" clip-rule="evenodd" d="M35.7325 56.5332H12.2659C11.6768 56.5332 11.1992 57.0107 11.1992 57.5999C11.1992 58.1889 11.6768 58.6666 12.2659 58.6666H35.7325C36.3217 58.6666 36.7992 58.189 36.7992 57.5999C36.7992 57.0107 36.3217 56.5332 35.7325 56.5332Z" fill="white"/>
<path d="M4.79983 36.2666V56.5333C4.8051 60.6548 8.14499 63.9947 12.2665 64H35.7332C37.7164 64.0023 39.6178 63.2097 41.0121 61.7994C41.0633 61.8699 41.1007 61.9467 41.155 62.0128C41.1812 62.0515 41.2094 62.0889 41.2393 62.1248C42.2593 63.3127 43.7461 63.9973 45.3118 64H57.0558C60.5918 63.9994 63.46 61.1361 63.4664 57.6V44.2667C63.4664 43.2765 63.0731 42.3269 62.373 41.6268C61.6728 40.9267 60.7233 40.5334 59.7331 40.5334C59.1727 40.5365 58.6204 40.6675 58.1181 40.9163C58.0376 38.9192 56.3985 37.3397 54.3997 37.3334C53.8393 37.3366 53.287 37.4676 52.7847 37.7164C52.7458 36.4621 52.0732 35.313 50.9987 34.6648C49.9242 34.0166 48.5941 33.9575 47.4664 34.5079V14.9334C47.4664 12.577 45.5561 10.6667 43.1997 10.6667V7.46668C43.1946 3.34515 39.8547 0.00526498 35.7332 0H12.2665C8.14499 0.00526498 4.8051 3.34515 4.79983 7.46668V10.6666C2.44344 10.6666 0.533203 12.5769 0.533203 14.9333V31.9999C0.533203 34.3564 2.44344 36.2666 4.79983 36.2666ZM35.7332 61.8666H12.2665C9.32245 61.863 6.93668 59.4774 6.9332 56.5333V36.2666H39.9571V46.256L35.8398 44.2058C34.4605 43.4843 32.8042 43.5366 31.4734 44.3439C30.1424 45.1513 29.3306 46.5959 29.3332 48.1525C29.3278 49.5531 29.9897 50.8725 31.1156 51.7055C33.4792 53.4426 35.7301 55.3279 37.8547 57.3503C38.6187 58.1251 39.2892 58.9869 39.8526 59.9178C38.8436 61.1553 37.3299 61.8714 35.7332 61.8666ZM49.0665 36.2666C49.9502 36.2666 50.6665 36.983 50.6665 37.8667V46.9334C50.6665 47.5225 51.1441 48 51.7332 48C52.3224 48 52.7999 47.5225 52.7999 46.9334V41.0667C52.7999 40.183 53.5162 39.4667 54.3999 39.4667C55.2836 39.4667 55.9999 40.183 55.9999 41.0667V46.9334C55.9999 47.5225 56.4775 48 57.0666 48C57.6558 48 58.1333 47.5225 58.1333 46.9334V44.2667C58.1333 43.383 58.8497 42.6666 59.7333 42.6666C60.617 42.6666 61.3334 43.383 61.3334 44.2667V57.6C61.3281 59.9584 59.4144 61.8673 57.056 61.8666H45.3118C44.4006 61.87 43.5311 61.4847 42.9214 60.8074C42.9033 60.7797 42.8819 60.7541 42.8617 60.7284C42.7209 60.5634 42.5969 60.3847 42.4916 60.1951C41.6621 58.5961 40.6046 57.1261 39.3524 55.8314C37.1585 53.7412 34.8338 51.7927 32.3924 49.9978C31.8066 49.5646 31.4626 48.8778 31.4665 48.1493C31.4713 47.6693 31.6198 47.2019 31.8932 46.8074C32.5861 45.8655 33.8636 45.5722 34.898 46.1173L40.5513 48.9344C40.8828 49.0996 41.2763 49.0809 41.5908 48.8853C41.9052 48.6895 42.0956 48.3448 42.0938 47.9745V29.3333C42.0917 28.9065 42.2639 28.4973 42.5706 28.2005C43.0344 27.7463 43.724 27.6116 44.3246 27.8579C44.9253 28.1042 45.3218 28.6842 45.3333 29.3333V46.9333C45.3333 47.5224 45.8108 47.9999 46.4 47.9999C46.9891 47.9999 47.4667 47.5224 47.4667 46.9333V37.8666C47.4665 36.983 48.1828 36.2666 49.0665 36.2666ZM34.1577 2.13337L33.411 3.99254C33.0902 4.80366 32.3055 5.33563 31.4333 5.33331H16.5661C15.6931 5.33647 14.9074 4.8044 14.5864 3.99254L13.8418 2.13337H34.1577ZM6.9332 7.46668C6.94152 4.79755 8.92515 2.54709 11.5722 2.20371L12.6047 4.78397C13.2479 6.40779 14.8197 7.47226 16.5663 7.46668H31.4336C33.1802 7.47226 34.752 6.4079 35.3951 4.78397L36.4277 2.20371C39.0747 2.54698 41.0584 4.79745 41.0667 7.46668V10.6666H6.9332V7.46668ZM2.66657 14.9334C2.66657 13.7552 3.62174 12.8 4.79994 12.8H43.1999C44.3781 12.8 45.3333 13.7552 45.3333 14.9334V25.9809C43.9071 25.2799 42.1932 25.5618 41.0667 26.6827C40.3523 27.3789 39.9519 28.3358 39.9573 29.3334V34.1334H4.79983C3.62164 34.1334 2.66647 33.1782 2.66647 32L2.66657 14.9334Z" fill="white"/>
<path d="M9.06668 30.9334H13.3333C15.1126 30.9413 16.7082 29.8397 17.3314 28.1732C17.9547 26.5067 17.4735 24.6284 16.1258 23.4667C17.4735 22.3052 17.9547 20.4268 17.3314 18.7603C16.7082 17.0937 15.1125 15.9921 13.3333 16H9.06668C8.47753 16 8 16.4776 8 17.0667V29.8667C8 30.4559 8.47753 30.9334 9.06668 30.9334ZM15.4666 26.6668C15.4666 27.845 14.5114 28.8001 13.3332 28.8001H10.1333V24.5335H13.3332C14.5115 24.5334 15.4666 25.4886 15.4666 26.6668ZM10.1333 18.1334H13.3332C14.5114 18.1334 15.4666 19.0886 15.4666 20.2668C15.4666 21.445 14.5114 22.4001 13.3332 22.4001H10.1333V18.1334Z" fill="white"/>
<path fill-rule="evenodd" clip-rule="evenodd" d="M20.7991 30.9334H27.1991C27.7883 30.9334 28.2658 30.4558 28.2658 29.8667C28.2658 29.2775 27.7883 28.8 27.1991 28.8H21.8658V24.5334H27.1991C27.7883 24.5334 28.2658 24.0558 28.2658 23.4667C28.2658 22.8775 27.7883 22.4 27.1991 22.4H21.8658V18.1334H27.1991C27.7883 18.1334 28.2658 17.6558 28.2658 17.0667C28.2658 16.4775 27.7883 16 27.1991 16H20.7991C20.21 16 19.7324 16.4775 19.7324 17.0667V29.8667C19.7324 30.4558 20.21 30.9334 20.7991 30.9334Z" fill="white"/>
<path fill-rule="evenodd" clip-rule="evenodd" d="M31.4651 18.1334H34.6651V29.8667C34.6651 30.4558 35.1426 30.9334 35.7318 30.9334C36.3209 30.9334 36.7984 30.4558 36.7984 29.8667V18.1334H39.9984C40.5875 18.1334 41.0651 17.6558 41.0651 17.0667C41.0651 16.4775 40.5875 16 39.9984 16H31.4651C30.876 16 30.3984 16.4775 30.3984 17.0667C30.3984 17.6558 30.876 18.1334 31.4651 18.1334Z" fill="white"/>
</g>
<defs>
<clipPath id="clip0_387_22869">
<rect width="64" height="64" fill="white"/>
</clipPath>
</defs>
</svg>
