<svg width="48" height="48" viewBox="0 0 48 48" fill="none" xmlns="http://www.w3.org/2000/svg">
<path fill-rule="evenodd" clip-rule="evenodd" d="M14.3994 43.2004C14.3994 43.6422 14.7576 44.0004 15.1994 44.0004H32.7994C33.2413 44.0004 33.5994 43.6423 33.5994 43.2004C33.5994 42.7585 33.2413 42.4004 32.7994 42.4004H15.1994C14.7576 42.4004 14.3994 42.7585 14.3994 43.2004Z" fill="#F3C934"/>
<path d="M4.8062 16.0336C4.79704 16.4013 4.91487 16.7609 5.13979 17.052L9.5998 22.7128V42.4C9.60336 45.4913 12.1084 47.9964 15.1998 48H32.7998C35.8911 47.9964 38.3962 45.4914 38.3998 42.4V22.7136L42.8646 17.0471C43.0871 16.7579 43.203 16.4007 43.1926 16.036C43.1926 16.0232 43.1998 16.0127 43.1998 15.9999C43.1998 15.9872 43.1942 15.9808 43.1942 15.9711C43.1692 15.5761 43.0005 15.2039 42.7198 14.9247L38.3998 10.7679V5.60001C38.3962 2.50863 35.8911 0.00355386 32.7998 0H15.1998C12.1085 0.00355386 9.60336 2.50863 9.5998 5.60001V10.7688L5.2686 14.9352C4.99163 15.2132 4.8265 15.5834 4.80462 15.9752C4.80462 15.984 4.7998 15.992 4.7998 16.0008C4.7998 16.0096 4.8062 16.0216 4.8062 16.0336ZM10.9542 11.6856L10.9718 11.668L12.5318 10.1671L14.7686 15.1999H7.30141L10.9542 11.6856ZM37.0222 11.66C37.0328 11.6713 37.044 11.6819 37.0557 11.692L40.7061 15.1999H33.2309L35.4709 10.1663L37.0222 11.66ZM25.9998 35.8479L32.5701 16.8H41.0222L25.9998 35.8479ZM17.1198 16.8H30.8798L23.9998 36.7463L17.1198 16.8ZM31.7142 14.668L26.0798 9.6H33.9647L31.7142 14.668ZM29.915 15.2H18.0846L23.9998 9.87602L29.915 15.2ZM16.283 14.668L14.031 9.6H21.9198L16.283 14.668ZM15.4294 16.8L22.0086 35.8807L10.9926 21.9144C10.9798 21.8992 10.9702 21.8816 10.9558 21.8671L6.95984 16.8H15.4294ZM36.7998 42.4C36.7971 44.608 35.0078 46.3974 32.7998 46.4H15.1998C12.9918 46.3973 11.2024 44.608 11.1998 42.4V24.7439L22.7327 39.3839C23.036 39.7745 23.5024 40.0032 23.9969 40.004C24.4913 40.0048 24.9585 39.7775 25.2631 39.3879L36.7999 24.7439L36.7998 42.4ZM31.6182 1.60003L31.0582 2.9944C30.8176 3.60274 30.2291 4.00172 29.5749 3.99999H18.4246C17.7698 4.00236 17.1806 3.6033 16.9398 2.9944L16.3821 1.60003H31.6182ZM11.1998 5.60001C11.2061 3.59816 12.6938 1.91032 14.6791 1.65278L15.4535 3.58798C15.9359 4.80584 17.1147 5.6042 18.4247 5.60001H29.575C30.8847 5.60436 32.0635 4.8064 32.5462 3.58877L33.3206 1.65278C35.3059 1.91024 36.7936 3.59808 36.7999 5.60001V9.22882L35.7598 8.22481C35.6163 8.0859 35.4259 8.00566 35.2262 8.00005H12.7734C12.5751 8.00669 12.3863 8.08685 12.2438 8.22481L11.1998 9.22882V5.60001Z" fill="#F3C934"/>
</svg>
