<svg width="19" height="18" viewBox="0 0 19 18" fill="none" xmlns="http://www.w3.org/2000/svg">
<g id="plus-square-fill 1">
<path id="Vector" d="M15.291 2.25H4.04102C3.74265 2.25 3.4565 2.36853 3.24552 2.5795C3.03454 2.79048 2.91602 3.07663 2.91602 3.375V14.625C2.91602 14.9234 3.03454 15.2095 3.24552 15.4205C3.4565 15.6315 3.74265 15.75 4.04102 15.75H15.291C15.5894 15.75 15.8755 15.6315 16.0865 15.4205C16.2975 15.2095 16.416 14.9234 16.416 14.625V3.375C16.416 3.07663 16.2975 2.79048 16.0865 2.5795C15.8755 2.36853 15.5894 2.25 15.291 2.25ZM12.4785 9.5625H10.2285V11.8125C10.2285 11.9617 10.1693 12.1048 10.0638 12.2102C9.95827 12.3157 9.8152 12.375 9.66602 12.375C9.51683 12.375 9.37376 12.3157 9.26827 12.2102C9.16278 12.1048 9.10352 11.9617 9.10352 11.8125V9.5625H6.85352C6.70433 9.5625 6.56126 9.50324 6.45577 9.39775C6.35028 9.29226 6.29102 9.14918 6.29102 9C6.29102 8.85082 6.35028 8.70774 6.45577 8.60225C6.56126 8.49676 6.70433 8.4375 6.85352 8.4375H9.10352V6.1875C9.10352 6.03832 9.16278 5.89524 9.26827 5.78975C9.37376 5.68426 9.51683 5.625 9.66602 5.625C9.8152 5.625 9.95827 5.68426 10.0638 5.78975C10.1693 5.89524 10.2285 6.03832 10.2285 6.1875V8.4375H12.4785C12.6277 8.4375 12.7708 8.49676 12.8763 8.60225C12.9818 8.70774 13.041 8.85082 13.041 9C13.041 9.14918 12.9818 9.29226 12.8763 9.39775C12.7708 9.50324 12.6277 9.5625 12.4785 9.5625Z" fill="white"/>
</g>
</svg>
