<svg width="18" height="17" viewBox="0 0 18 17" fill="none" xmlns="http://www.w3.org/2000/svg">
<g clip-path="url(#clip0_517_8749)">
<circle cx="9" cy="8.5" r="8.5" fill="#359D9E"/>
<path fill-rule="evenodd" clip-rule="evenodd" d="M8 9.5V12C8 12.5523 8.44772 13 9 13C9.55228 13 10 12.5523 10 12V9.5H12.5C13.0523 9.5 13.5 9.05228 13.5 8.5C13.5 7.94772 13.0523 7.5 12.5 7.5H10V5C10 4.44772 9.55228 4 9 4C8.44771 4 8 4.44772 8 5V7.5H5.5C4.94772 7.5 4.5 7.94772 4.5 8.5C4.5 9.05228 4.94772 9.5 5.5 9.5H8Z" fill="white"/>
</g>
<defs>
<clipPath id="clip0_517_8749">
<rect width="17" height="17" fill="white" transform="translate(0.5)"/>
</clipPath>
</defs>
</svg>
