<svg width="260" height="54" viewBox="0 0 260 54" fill="none" xmlns="http://www.w3.org/2000/svg">
<g clip-path="url(#clip0_1229_121375)">
<rect width="260" height="54" rx="5" fill="#EBEBEE"/>
<path d="M21.9999 15C15.3727 15 10 20.3727 10 27.0001C10 33.6278 15.3727 39 21.9999 39C28.6279 39 34 33.6278 34 27.0001C34 20.3731 28.6279 15.0006 21.9998 15.0006L21.9999 15V15ZM27.503 32.3075C27.2881 32.6601 26.8267 32.7718 26.4742 32.5555C23.6567 30.8344 20.1099 30.4447 15.9328 31.399C15.5303 31.4907 15.1291 31.2385 15.0374 30.8359C14.9452 30.4332 15.1964 30.032 15.6 29.9403C20.1711 28.8955 24.092 29.3456 27.2551 31.2787C27.6076 31.495 27.7194 31.955 27.503 32.3075V32.3075ZM28.9718 29.0396C28.701 29.4803 28.1249 29.6193 27.685 29.3484C24.4594 27.3653 19.5426 26.7911 15.7273 27.9493C15.2325 28.0987 14.71 27.8199 14.5598 27.3259C14.4108 26.8311 14.6897 26.3095 15.1837 26.1591C19.5417 24.8367 24.9595 25.4772 28.6637 27.7535C29.1036 28.0244 29.2426 28.6004 28.9718 29.0398V29.0396ZM29.0979 25.6372C25.2304 23.34 18.8495 23.1287 15.1569 24.2495C14.5639 24.4293 13.9369 24.0946 13.7572 23.5016C13.5775 22.9083 13.9119 22.2817 14.5053 22.1014C18.7441 20.8146 25.7906 21.0632 30.2434 23.7067C30.7779 24.0232 30.9527 24.712 30.636 25.2447C30.3208 25.778 29.6301 25.9539 29.0985 25.6372H29.0979Z" fill="#0B1014"/>
<path d="M223.001 55.9421L221.14 56.7347C220.805 55.4874 220.593 54.4736 220.516 54.0928L224.351 51.9512C224.358 51.9592 224.364 51.9681 224.371 51.9771C224.303 52.4531 223.998 54.2957 223.998 54.2957L221.516 54.0777L223.002 55.9421H223.001Z" fill="#F31C45"/>
<path d="M209.957 51.4776C209.957 51.4776 211.877 50.4194 211.552 49.8512C211.224 49.279 209.482 50.7465 209.482 50.7465L209.957 51.4776V51.4776Z" fill="#0B1014"/>
<path d="M215.206 45.0846C215.206 45.0846 213.63 45.7502 213.941 46.1568C214.272 46.5913 215.748 45.7682 215.748 45.7682L215.206 45.0845V45.0846Z" fill="#1BA098"/>
<path d="M209.862 49.8672C209.862 49.8672 211.696 49.3719 211.584 48.6543C211.474 47.9365 209.148 49.076 209.148 49.076L209.862 49.8672V49.8672Z" fill="#DEB992"/>
<path d="M215.149 43.721C215.149 43.721 213.069 43.133 213.161 43.9056C213.252 44.6778 215.205 44.6674 215.205 44.6674L215.149 43.721V43.721Z" fill="#F31C45"/>
<path d="M212.937 49.4461L211.328 46.7306C211.328 46.7306 209.558 44.9769 209.457 44.8729C209.437 44.8519 209.34 44.7781 209.204 44.6772C209.178 45.0268 209.16 45.3759 209.154 45.7242C209.376 45.706 209.607 45.6792 209.853 45.6296C209.853 45.6296 209.78 46.4269 210.346 47.5494C210.346 47.5494 211.472 48.2225 212.098 48.2197C212.098 48.2197 212.061 49.2616 212.198 49.698C212.198 49.698 212.969 50.6919 213.273 50.7274L212.937 49.4463V49.4461Z" fill="#F31C45"/>
<path d="M210.871 41.5909C210.449 41.5026 209.931 41.573 209.418 41.7089C209.407 42.4902 209.326 43.275 209.256 44.059C209.339 44.13 209.423 44.2003 209.504 44.2736C209.569 44.3332 209.634 44.3922 209.699 44.4518C209.944 44.6759 210.19 44.9065 210.433 45.1416C211.21 43.0128 210.87 41.5909 210.87 41.5909H210.871Z" fill="#1BA098"/>
<path d="M212.738 47.8854C212.592 47.6419 212.435 47.4053 212.265 47.1785C212.255 47.162 212.244 47.1474 212.231 47.1323C211.908 46.7022 211.55 46.2882 211.172 45.8888C210.931 45.634 210.683 45.3846 210.432 45.1408C210.512 45.1137 212.46 44.4589 213.675 44.9245C213.675 44.9245 213.712 46.6979 212.739 47.8852L212.738 47.8854Z" fill="#1BA098"/>
<path d="M213.729 50.5071C213.685 50.249 213.626 49.9937 213.554 49.7426C213.451 49.3838 213.319 49.0334 213.164 48.6939C213.037 48.4172 212.895 48.1476 212.738 47.8867C212.738 47.8867 214.261 47.9339 214.907 48.5961C214.907 48.5961 214.739 49.6653 213.729 50.5072V50.5071Z" fill="#1BA098"/>
<path d="M212.32 43.4695C212.215 43.2631 211.953 43.1892 211.738 43.2556C211.459 43.341 211.314 43.6643 211.455 43.9273C211.572 44.145 211.88 44.2469 212.101 44.1314C212.34 44.007 212.437 43.698 212.32 43.4695H212.32Z" fill="#DEB992"/>
<path d="M214.326 46.979C214.188 46.8344 213.954 46.791 213.817 47.0084C213.75 47.1148 213.749 47.2591 213.814 47.3664C213.899 47.5058 214.11 47.5798 214.261 47.5124C214.481 47.4147 214.475 47.1357 214.326 46.9791V46.979Z" fill="#DEB992"/>
<path d="M214.965 50.1427C214.844 50.0336 214.641 50.0479 214.539 50.1742C214.501 50.2141 214.479 50.2659 214.472 50.3199C214.468 50.3544 214.468 50.3809 214.471 50.4069C214.498 50.5884 214.716 50.6973 214.878 50.6178C215.061 50.5284 215.123 50.2868 214.964 50.1425L214.965 50.1427Z" fill="#DEB992"/>
<path d="M209.262 43.9971C209.23 44.3465 209.2 44.6958 209.18 45.0444C211.273 46.7815 213.91 49.7429 213.51 53.4288L213.712 53.1872C213.712 53.1872 215.202 48.5849 209.262 43.9971H209.262Z" fill="#0B1014"/>
<path d="M234.129 45.8869C233.87 45.8113 233.613 45.7292 233.358 45.6377C233.424 45.7445 233.482 45.8595 233.531 45.987C233.981 47.1614 233.402 48.8631 232.134 49.2692C232.025 49.3044 231.911 49.3282 231.797 49.341C231.392 49.3865 230.917 49.2863 230.607 49.0093C230.212 48.6554 230.039 48.0551 230.233 47.5551C230.386 47.1596 230.77 46.8095 231.214 46.8286C231.555 46.8431 231.882 47.0538 231.944 47.39C232.05 47.9674 231.465 47.8757 231.465 47.8757C231.465 47.8757 231.637 47.5406 231.378 47.4389C231.119 47.3372 230.815 47.7064 231.004 48.1179C231.323 48.814 232.179 48.3987 232.465 47.9001C232.748 47.4079 232.691 46.4739 232.115 46.2025C231.777 46.0435 231.489 46.205 231.489 46.205C231.489 46.205 230.945 45.5513 230.192 45.9686C229.439 46.3857 229.12 47.0206 229.261 47.7414C229.261 47.7414 228.453 48.2551 228.806 49.2863C229.234 50.5347 230.552 50.7266 231.21 50.19C231.21 50.19 231.776 51.3476 233.097 50.6508C233.365 50.5096 233.565 50.3553 233.715 50.1979C233.95 48.7696 234.104 47.3277 234.129 45.8871L234.129 45.8869Z" fill="#1BA098"/>
<path d="M233.069 46.024C233.142 45.9758 233.171 45.8812 233.124 45.8042L233.119 45.7958C233.076 45.7238 232.972 45.6929 232.899 45.7407C232.827 45.7889 232.798 45.8835 232.845 45.9606L232.85 45.9689C232.893 46.0409 232.997 46.0718 233.069 46.024Z" fill="#F31C45"/>
<path d="M233.319 46.8086C233.495 46.7028 233.331 46.4281 233.154 46.5342C232.977 46.6403 233.142 46.9149 233.319 46.8086Z" fill="#F31C45"/>
<path d="M233.276 47.6284C233.349 47.5805 233.377 47.4856 233.331 47.4087L233.326 47.4002C233.283 47.3284 233.178 47.2975 233.107 47.3451C233.034 47.3933 233.005 47.4879 233.052 47.5649L233.057 47.5735C233.054 47.569 233.09 47.7522 233.277 47.6282L233.276 47.6284Z" fill="#F31C45"/>
<path d="M232.888 48.3628C232.96 48.3146 232.989 48.22 232.943 48.143L232.938 48.1344C232.894 48.0626 232.79 48.0319 232.718 48.0795C232.646 48.1275 232.617 48.2225 232.663 48.2992L232.668 48.3079C232.711 48.3795 232.816 48.4104 232.888 48.3628Z" fill="#F31C45"/>
<path d="M232.317 48.9048C232.409 48.8495 232.286 48.6434 232.193 48.6988C232.061 48.7783 232.184 48.9845 232.317 48.9048Z" fill="#F31C45"/>
<path d="M231.571 49.1061C231.704 49.0266 231.58 48.8205 231.447 48.9004C231.315 48.9799 231.438 49.1856 231.571 49.1061Z" fill="#F31C45"/>
<path d="M230.946 48.8764C231.034 48.8235 230.892 48.6864 230.803 48.7396C230.715 48.7925 230.858 48.9297 230.946 48.8764Z" fill="#F31C45"/>
<path d="M230.489 48.3911C230.577 48.3379 230.555 48.2005 230.466 48.2537C230.378 48.3068 230.4 48.444 230.489 48.3911Z" fill="#F31C45"/>
<path d="M230.481 47.8706C230.533 47.8398 230.451 47.7025 230.399 47.7335C230.311 47.7866 230.393 47.9238 230.481 47.8706Z" fill="#F31C45"/>
<path d="M230.737 47.4022C230.825 47.3491 230.683 47.212 230.594 47.2649C230.506 47.3179 230.649 47.4554 230.737 47.4022Z" fill="#F31C45"/>
<path d="M231.165 47.1809C231.217 47.1501 231.134 47.0125 231.083 47.0436C230.994 47.0967 231.077 47.2342 231.165 47.1809Z" fill="#F31C45"/>
<path d="M231.543 47.21C231.61 47.1702 231.548 47.0674 231.482 47.1071C231.415 47.1467 231.477 47.25 231.543 47.21Z" fill="#F31C45"/>
<path d="M231.764 47.4391C231.83 47.3994 231.769 47.2964 231.702 47.3361C231.636 47.3762 231.698 47.4792 231.764 47.4391Z" fill="#F31C45"/>
<path d="M231.744 47.7193C231.811 47.6795 231.749 47.5765 231.683 47.6165C231.616 47.6565 231.678 47.7594 231.744 47.7193Z" fill="#F31C45"/>
<path d="M232.721 49.9259C232.777 49.8905 232.897 49.9844 232.988 50.1359C233.078 50.2874 233.104 50.4339 233.044 50.463C232.985 50.4921 232.865 50.3984 232.778 50.2529C232.69 50.1078 232.665 49.9611 232.721 49.9259H232.721Z" fill="white"/>
<path d="M232.233 50.6356C232.167 50.6304 232.125 50.4792 232.14 50.2982C232.154 50.1173 232.22 49.9749 232.286 49.9801C232.352 49.9855 232.394 50.1365 232.379 50.3174C232.364 50.4984 232.299 50.6409 232.233 50.6356Z" fill="white"/>
<path d="M229.673 49.9446C229.625 49.8997 229.673 49.7689 229.78 49.6526C229.888 49.5365 230.014 49.4786 230.063 49.5235C230.112 49.5687 230.064 49.6993 229.956 49.8158C229.849 49.9319 229.722 49.9897 229.673 49.9447L229.673 49.9446Z" fill="white"/>
<path d="M229.157 49.433C229.127 49.3742 229.248 49.2511 229.427 49.1583C229.607 49.0655 229.777 49.0381 229.808 49.0969C229.838 49.1559 229.717 49.2789 229.537 49.3717C229.358 49.4644 229.187 49.492 229.157 49.433V49.433Z" fill="white"/>
<path d="M229.041 48.7365C229.04 48.6701 229.16 48.6141 229.311 48.6114C229.461 48.6086 229.583 48.6604 229.584 48.7268C229.586 48.7931 229.465 48.8488 229.315 48.8516C229.165 48.8542 229.042 48.8025 229.041 48.7365V48.7365Z" fill="white"/>
<path d="M229.952 46.31C229.993 46.2814 230.093 46.3527 230.177 46.4695C230.26 46.5865 230.294 46.7045 230.254 46.7334C230.213 46.7625 230.113 46.691 230.03 46.5742C229.947 46.4574 229.912 46.3393 229.952 46.3102V46.31Z" fill="white"/>
<path d="M230.449 46.0666C230.498 46.0564 230.56 46.1575 230.588 46.292C230.617 46.4271 230.6 46.5447 230.552 46.5547C230.503 46.5652 230.441 46.464 230.412 46.3293C230.384 46.1944 230.401 46.0768 230.449 46.0666H230.449Z" fill="white"/>
<path d="M229.591 46.772C229.616 46.7285 229.713 46.7369 229.809 46.7904C229.904 46.844 229.962 46.9227 229.938 46.9662C229.914 47.0096 229.816 47.0014 229.721 46.9477C229.625 46.8943 229.567 46.8156 229.591 46.7722V46.772Z" fill="white"/>
<path d="M233.76 45.7732C233.626 45.7299 233.492 45.6855 233.359 45.6377C233.425 45.7445 233.483 45.8596 233.532 45.9871C233.982 47.1619 233.402 48.8628 232.135 49.2694C232.025 49.3044 231.913 49.3284 231.798 49.3412C231.392 49.3867 230.917 49.2863 230.608 49.0095C230.213 48.6553 230.04 48.0556 230.234 47.5552C230.387 47.1595 230.771 46.8095 231.215 46.8288C231.394 46.8363 231.884 47.0607 231.945 47.3901C232.051 47.9677 231.466 47.8759 231.466 47.8759C231.723 48.0468 231.974 47.9283 232.069 47.6489C232.184 47.3157 231.982 46.951 231.702 46.765C231.037 46.3214 230.159 46.7634 229.852 47.4292C229.816 47.5063 229.788 47.5869 229.765 47.6692C229.651 48.1033 229.737 48.563 229.961 48.9479C230.228 49.4075 230.655 49.7034 231.182 49.8194C231.872 49.9725 232.574 49.7302 233.075 49.2666C233.794 48.6025 234.118 47.5303 233.996 46.5702C233.96 46.2892 233.878 46.0218 233.76 45.7736L233.76 45.7732Z" fill="#0B1014"/>
<path d="M213.006 55.3227C213.148 55.2483 213.254 55.0358 213.292 54.6131C213.382 53.6397 213.416 51.038 211.931 50.896C211.097 50.8167 210.695 51.7166 210.749 52.2941C210.818 53.0314 211.177 53.7051 211.625 54.2847C211.817 54.5348 212.53 55.5717 213.006 55.3227H213.006Z" fill="#F31C45"/>
<path d="M213.402 55.294C213.799 55.3694 214.349 54.8782 214.581 54.6839C215.092 54.2521 215.594 53.6776 215.753 52.9651C215.927 52.1833 215.495 51.1095 214.542 51.2306C214.16 51.2792 213.854 51.5342 213.651 51.8518C213.196 52.5613 212.662 54.016 213.068 54.9855C213.149 55.177 213.266 55.2682 213.402 55.294H213.402Z" fill="#DEB992"/>
<path d="M216.533 53.3428C216.459 53.362 216.382 53.3763 216.312 53.4034C215.724 53.6316 215.208 54.0921 214.731 54.4821C214.405 54.749 213.907 55.1578 214.002 55.6232C214.122 56.2017 215.566 55.9437 215.981 55.8634C216.223 55.8162 216.528 55.7313 216.834 55.6114C216.742 54.8534 216.621 54.1 216.533 53.3428V53.3428Z" fill="#1BA098"/>
<path d="M209.658 52.4933C209.729 53.5627 209.853 54.607 209.845 55.6832C210.368 55.9588 210.938 56.1876 211.357 56.1961C211.714 56.2021 211.96 56.0493 211.971 55.6305C211.998 54.6018 210.888 52.8794 209.658 52.4932V52.4933Z" fill="#1BA098"/>
<path d="M211.479 57.2646C211.479 57.2646 210.783 57.7356 210.213 58.2217C210.367 58.4289 210.524 58.6272 210.686 58.8151C211.261 58.4266 211.815 57.9255 211.815 57.9255C211.815 57.9255 211.296 58.4997 210.935 59.0895C211.124 59.2853 211.332 59.4609 211.554 59.6234C211.609 59.6344 211.663 59.6475 211.718 59.6581C212.097 59.0921 212.39 58.3722 212.39 58.3722C212.39 58.3722 212.193 59.0911 212.178 59.7423C212.459 59.7919 212.741 59.8406 213.024 59.8849C213.071 59.2498 212.999 58.5021 212.999 58.5021C212.999 58.5021 213.224 59.4011 213.508 59.9597C213.726 59.993 213.944 60.0279 214.161 60.0615C214.249 59.4433 213.672 58.2629 213.672 58.2629C213.672 58.2629 214.956 59.8715 215.66 59.8774C216.365 59.8823 214.23 57.8838 214.23 57.8838C214.23 57.8838 215.861 59.0964 216.509 58.7709C217.157 58.4464 214.457 57.1921 214.457 57.1921C214.457 57.1921 216.812 57.6664 216.796 56.9728C216.78 56.2802 214.504 56.7049 214.504 56.7049C214.504 56.7049 216.927 56.0847 216.633 55.4903C216.377 54.9749 214.786 55.7969 214.367 56.0249C214.778 55.7934 216.275 54.9018 215.694 54.4961C215.132 54.1023 214.214 55.0901 213.935 55.4157C214.267 55.0126 215.447 53.5199 214.882 53.3201C214.227 53.088 213.4 55.2432 213.4 55.2432C213.4 55.2432 214.148 53.087 213.208 52.9649C212.268 52.8448 212.674 55.1837 212.674 55.1837C212.674 55.1837 211.99 52.8767 211.034 52.9917C210.078 53.1078 211.781 55.5271 211.781 55.5271C211.781 55.5271 210.49 54.0599 209.797 54.3242C209.818 54.6316 209.835 54.9398 209.842 55.25C210.393 55.7144 211.408 56.0908 211.329 56.1373C211.261 56.1782 210.499 55.7688 209.844 55.581C209.844 55.844 209.839 56.1082 209.821 56.3758C209.817 56.4382 209.815 56.4954 209.811 56.5565C210.517 56.7356 211.373 56.7377 211.373 56.7377C211.373 56.7377 210.543 56.7834 209.788 56.9429C209.777 57.1744 209.774 57.3955 209.773 57.613C209.833 57.6975 209.894 57.7829 209.953 57.8655C210.703 57.6505 211.479 57.2647 211.479 57.2647V57.2646Z" fill="white"/>
<path d="M239.158 41.6174C239.158 41.6174 238.099 43.7731 238.989 44.1276C239.88 44.4823 240.502 42.3312 240.502 42.3312L239.158 41.6172V41.6174Z" fill="#F31C45"/>
<path d="M240.774 42.3291C240.774 42.3291 239.8 44.2307 240.607 44.5392C241.414 44.8471 242.046 42.4761 242.046 42.4761L240.774 42.3291V42.3291Z" fill="#F31C45"/>
<path d="M242.244 42.6221C242.244 42.6221 241.268 44.9511 242.328 45.1622C243.387 45.3733 243.247 42.6221 243.247 42.6221H242.244Z" fill="#0B1014"/>
<path d="M244.473 42.5557L243.564 42.8047C243.564 42.8047 243.192 45.2156 244.265 45.1731C244.487 45.1642 244.649 45.0884 244.774 44.9753C244.699 44.1642 244.551 43.3656 244.473 42.5557H244.473Z" fill="#F31C45"/>
<path d="M237.948 51.9224C237.888 52.2858 237.821 52.6488 237.756 53.0119C237.732 53.3214 237.707 53.6309 237.68 53.9401C237.994 54.0431 238.352 53.9127 238.352 53.9127C238.329 54.7007 239.222 54.4808 239.222 54.4808C239.072 54.3822 238.035 53.3112 237.947 51.9225L237.948 51.9224Z" fill="#1BA098"/>
<path d="M242.747 48.3024C242.747 48.3024 242.836 47.6566 242.36 47.5529C241.855 47.4428 241.596 47.9576 241.596 47.9576C241.596 47.9576 241.222 47.1287 240.467 47.3536C239.718 47.5774 239.716 48.5095 239.716 48.5095C239.716 48.5095 239.074 47.9911 238.349 48.3303C238.352 48.3949 238.36 48.4558 238.356 48.5252C238.307 49.2669 238.225 50.007 238.123 50.7465C238.25 50.4024 238.443 50.052 238.742 49.7008C240.863 47.2059 243.438 49.0878 243.438 49.0878C243.277 48.0561 242.747 48.3026 242.747 48.3026V48.3024Z" fill="#1BA098"/>
<path d="M243.134 50.4318C243.031 49.7924 243.092 49.2235 243.315 48.731C242.16 48.1884 240.123 47.6505 238.542 49.5045C238.418 49.6498 238.317 49.7969 238.224 49.9444C238.129 50.7716 238.004 51.5973 237.863 52.4223C238.047 53.1544 238.429 53.8135 238.792 54.3083C239.184 54.1049 239.643 53.9967 240.167 53.9861C242.017 53.951 243.009 55.4994 243.411 56.341C243.683 56.0116 244.009 55.5902 244.326 55.1718C244.33 54.2459 244.332 53.3185 244.338 52.3927C243.771 51.9595 243.28 51.3352 243.134 50.4318H243.134Z" fill="#F31C45"/>
<path d="M244.338 52.447C243.227 52.3437 241.528 52.9563 242.304 54.8088C242.849 55.301 243.207 55.9121 243.412 56.3409C243.683 56.0115 244.01 55.5901 244.327 55.1717C244.331 54.264 244.332 53.3547 244.338 52.4472V52.447Z" fill="white"/>
<path d="M244.338 52.3898C244.098 52.2064 243.87 51.9937 243.679 51.7353C243.152 51.5537 242.339 51.4313 241.717 52.0479C241.063 52.6953 241.135 53.5613 241.319 54.1892C241.699 54.3382 242.026 54.5583 242.303 54.8089C241.527 52.9564 243.226 52.3439 244.337 52.4471C244.337 52.4279 244.338 52.4088 244.338 52.3896L244.338 52.3898Z" fill="#DEB992"/>
<path d="M238.542 49.5043C238.418 49.6497 238.317 49.7967 238.224 49.9442C238.129 50.7714 238.004 51.5971 237.863 52.4222C238.047 53.1542 238.429 53.8133 238.792 54.3081C239.009 54.1954 239.247 54.1122 239.505 54.0583C239.007 53.3707 238.275 51.9048 239.562 50.3619C240.936 48.7165 242.425 49.2986 243.094 49.6227C243.117 49.3025 243.191 49.0052 243.315 48.731C242.16 48.1884 240.123 47.6505 238.542 49.5045L238.542 49.5043Z" fill="#0B1014"/>
<path d="M239.563 50.3617C240.937 48.7164 242.426 49.2985 243.094 49.6226C243.075 49.8781 243.088 50.1483 243.134 50.4317C243.152 50.5421 243.176 50.6481 243.203 50.7503C242.527 50.5106 241.33 50.287 240.514 51.2619C239.673 52.2679 240.145 53.4211 240.483 53.9959C240.38 53.9877 240.275 53.9841 240.167 53.9859C239.933 53.991 239.712 54.0146 239.505 54.058C239.007 53.3706 238.275 51.9045 239.563 50.3616L239.563 50.3617Z" fill="#1BA098"/>
<path d="M240.513 51.2624C241.329 50.2874 242.526 50.5111 243.202 50.7508C243.305 51.1313 243.472 51.4576 243.678 51.7357C243.152 51.5543 242.339 51.4318 241.716 52.0483C241.063 52.696 241.135 53.5617 241.319 54.1896C241.065 54.0891 240.786 54.0211 240.482 53.9964C240.144 53.4216 239.672 52.2685 240.513 51.2624V51.2624Z" fill="#F31C45"/>
<path d="M244.339 52.3922C244.349 50.7814 244.363 49.1693 244.376 47.5571C244.126 47.7171 243.881 47.9125 243.673 48.1615C243.17 48.7648 242.989 49.5289 243.135 50.4315C243.281 51.3345 243.772 51.9587 244.339 52.392L244.339 52.3922Z" fill="#0B1014"/>
<path d="M243.595 56.7724C243.409 56.2677 242.43 53.9424 240.168 53.9855C239.254 54.0035 238.534 54.3183 238.031 54.9215C237.772 55.2314 237.602 55.5821 237.485 55.9227C237.331 57.3719 237.155 58.8187 236.979 60.2659C237.493 60.2258 238.083 60.3039 238.733 60.4588C240.871 60.088 242.88 59.3878 244.293 57.6492C244.302 57.6382 244.312 57.6316 244.321 57.6209C244.323 57.1934 244.323 56.7653 244.324 56.3378C243.954 56.4735 243.707 56.6659 243.595 56.7722L243.595 56.7724Z" fill="white"/>
<path d="M244.334 53.189C242.66 53.97 242.721 56.4464 244.323 57.2838C244.327 55.9192 244.326 54.5529 244.334 53.189Z" fill="#1BA098"/>
<path d="M244.322 57.2896C244.325 56.0786 244.323 54.8662 244.33 53.6558C243.171 54.5202 243.206 56.3786 244.322 57.2896Z" fill="#F31C45"/>
<path d="M242.976 47.0682C242.917 46.6309 243.635 46.4077 243.814 46.9327C243.875 47.1123 243.812 47.3337 243.651 47.4346C243.452 47.5608 243.134 47.4211 243.031 47.2306C243.001 47.174 242.983 47.1197 242.976 47.0682Z" fill="#F31C45"/>
<path d="M242.961 45.5124C243.357 45.4591 243.559 46.1086 243.084 46.2701C242.921 46.3251 242.721 46.2682 242.63 46.123C242.515 45.9425 242.642 45.6555 242.814 45.5623C242.866 45.5345 242.915 45.5188 242.961 45.5124Z" fill="#1BA098"/>
<path d="M241.229 46.233C241.409 45.9788 241.788 45.918 241.997 46.1613C242.133 46.3204 242.16 46.5632 242.064 46.7485C241.756 47.3407 240.86 46.877 241.202 46.2767C241.21 46.2615 241.219 46.2469 241.229 46.233Z" fill="#F31C45"/>
<path d="M240.729 45.5943C240.781 45.9012 240.556 46.2123 240.236 46.1879C240.028 46.1714 239.836 46.0193 239.774 45.8202C239.573 45.1836 240.534 44.8777 240.717 45.5439C240.722 45.5606 240.725 45.5775 240.729 45.5941V45.5943Z" fill="#1BA098"/>
<path d="M228.219 47.9713C228.271 48.2781 228.046 48.5893 227.727 48.5648C227.518 48.5484 227.327 48.3963 227.264 48.1971C227.063 47.5605 228.025 47.2546 228.207 47.9208C228.212 47.9376 228.216 47.9545 228.219 47.9711V47.9713Z" fill="#0B1014"/>
<path d="M238.403 47.0363C238.332 46.8638 238.36 46.6626 238.455 46.5151C238.783 46.0036 239.596 46.1063 239.556 46.8601C239.529 47.3805 238.831 47.6485 238.461 47.1392C238.437 47.1066 238.418 47.0721 238.403 47.0362V47.0363Z" fill="#F31C45"/>
<path d="M230.821 44.8959C228.734 44.5251 226.501 44.603 224.323 44.8944C223.766 48.4916 223.211 53.3881 224.38 53.1052C226.217 52.6625 228.433 50.5524 228.433 50.5524C226.407 48.0188 225.297 47.8254 225.297 47.8254C228.603 47.0342 230.24 45.542 230.821 44.8959Z" fill="#F31C45"/>
<path d="M224.825 35.029C225.543 34.057 226.434 32.506 227.194 30.1288C227.194 30.1288 224.401 29.2928 220.171 30.5545C220.171 30.5545 221.431 29.4949 221.915 26.2869C221.915 26.2869 219.083 25.588 216.174 26.7907C214.839 27.3421 219.835 32.6775 222.263 35.1609C223.117 35.1216 223.971 35.0786 224.825 35.0291L224.825 35.029Z" fill="#F31C45"/>
<path d="M225.295 44.7807L225.365 46.3401C227.341 45.8062 228.734 44.68 228.734 44.68C228.728 44.6749 228.722 44.6705 228.716 44.6654C227.588 44.6135 226.438 44.6639 225.295 44.7806L225.295 44.7807Z" fill="white"/>
<path d="M225.099 49.6442C225.099 49.6442 225.685 49.8072 226.577 50.8538C226.577 50.8538 225.599 51.5021 224.738 51.6532L225.099 49.644V49.6442Z" fill="white"/>
<path d="M221.287 32.0363C221.287 32.0363 223.449 31.299 224.622 31.4674C224.622 31.4674 224.144 33.2888 222.774 34.5502L221.287 32.0363Z" fill="white"/>
<path d="M218.951 29.1928C218.951 29.1928 219.901 27.7568 219.637 26.7759C219.637 26.7759 218.181 26.8132 217.162 27.5539L218.951 29.193L218.951 29.1928Z" fill="white"/>
<path d="M217.049 26.5568C215.879 26.9861 214.794 27.6066 213.888 28.3924C213.419 28.7968 212.992 29.2404 212.612 29.7101C212.325 30.0615 212.068 30.4297 211.835 30.8116C211.649 31.1174 211.481 31.4341 211.332 31.7651C211.232 31.9851 211.14 32.2118 211.057 32.4436C212.564 33.669 214.02 35.1627 215.198 36.8001C216.208 35.1371 218.981 35.2838 220.662 35.2306C221.782 35.1951 222.902 35.1377 224.022 35.0753C222.172 31.0079 219.449 28.2903 217.049 26.5566L217.049 26.5568Z" fill="#DEB992"/>
<path d="M226.181 44.7046C224.193 44.8429 222.21 45.2108 220.371 45.628C220.388 48.1143 220.518 50.5521 220.661 53.0095C221.551 53.1725 222.509 53.5885 223.391 53.37C224.184 53.1733 224.895 52.9757 225.198 52.8163C225.791 50.6977 226.265 47.8076 226.181 44.7046V44.7046Z" fill="#0B1014"/>
<path d="M216.174 26.791C215.004 27.22 213.921 27.8446 213.016 28.6343C212.548 29.0417 212.121 29.4868 211.742 29.9597C211.455 30.3126 211.198 30.6826 210.966 31.068C210.78 31.3757 210.613 31.6938 210.466 32.0278C210.455 32.0527 210.447 32.0798 210.436 32.105C210.503 32.1541 210.571 32.2016 210.636 32.2647C212.047 33.6402 213.859 35.0817 215.238 36.7337C216.281 35.1413 219.002 35.2829 220.66 35.2305C221.458 35.2052 222.255 35.1679 223.052 35.1272C221.197 31.1669 218.529 28.5055 216.174 26.7912V26.791Z" fill="#1BA098"/>
<path d="M225.344 44.7759C223.637 44.9471 221.951 45.2689 220.371 45.6274C220.389 48.2996 220.538 50.917 220.693 53.5623C221.307 53.6208 221.926 53.6238 222.543 53.5492C223.153 53.4761 223.766 53.3299 224.379 53.1048C224.988 50.8983 225.476 48.0366 225.344 44.7759H225.344Z" fill="#1BA098"/>
<path d="M215.6 36.311C216.813 35.1761 219.151 35.2773 220.644 35.2313C221.066 34.058 221.135 33.0169 221.135 33.0169C218.955 31.9251 216.273 33.3043 216.273 33.3043C217.469 30.6402 216.867 28.1725 216.867 28.1725C214.581 28.0996 211.742 29.9604 211.742 29.9604L213.111 34.3232C213.94 34.989 214.779 35.6411 215.6 36.311V36.311Z" fill="#0B1014"/>
<path d="M224.702 45.6347C224.572 45.3703 224.399 45.1303 224.201 44.9102C222.886 45.0909 221.597 45.3478 220.371 45.6259C220.388 48.0804 220.514 50.4871 220.655 52.9125C222.602 52.3779 223.953 51.6726 223.953 51.6726C222.632 48.6731 220.492 48.0017 220.492 48.0017C223.268 47.206 224.702 45.6345 224.702 45.6345V45.6347Z" fill="#DEB992"/>
<path d="M215.235 32.3617C215.235 32.3617 215.895 30.8451 215.701 29.7041C215.701 29.7041 214.156 29.9808 213.16 30.7605L215.235 32.3617H215.235Z" fill="white"/>
<path d="M219.12 35.2696C219.478 34.6031 219.544 34.0222 219.544 34.0222C218.62 33.8832 217.205 34.5244 217.205 34.5244L217.724 35.4036C218.185 35.3279 218.66 35.2895 219.12 35.2696H219.12Z" fill="white"/>
<path d="M222.298 45.2227C221.681 45.339 221.073 45.4658 220.48 45.5992L220.5 46.7098C221.755 46.45 222.61 45.518 222.61 45.518C222.516 45.4081 222.411 45.3104 222.298 45.2227H222.298Z" fill="white"/>
<path d="M220.593 51.8091C221.601 51.5848 222.374 51.1954 222.374 51.1954C221.878 50.2405 220.931 49.6512 220.473 49.4097C220.508 50.2094 220.548 51.0098 220.593 51.8092V51.8091Z" fill="white"/>
<path d="M215.12 36.935C215.63 35.9526 216.71 35.5476 217.872 35.3781C216.105 32.6178 213.801 30.9565 211.743 29.9595C211.456 30.3124 211.199 30.6823 210.966 31.0677C210.781 31.3754 210.614 31.6935 210.467 32.0275C210.405 32.1634 210.356 32.3078 210.301 32.4482C212.102 33.6059 213.704 35.2036 215.12 36.935Z" fill="white"/>
<path d="M220.432 48.3846C220.57 47.486 220.654 46.543 220.663 45.5591C220.565 45.5809 220.469 45.6034 220.371 45.6255C220.377 46.5507 220.399 47.4699 220.432 48.3846H220.432Z" fill="white"/>
<path d="M219.166 30.8808C219.064 30.5593 218.74 30.35 218.402 30.4407C218.068 30.5306 217.841 30.8882 217.943 31.2092C218.045 31.5312 218.368 31.74 218.706 31.6492C219.04 31.5595 219.268 31.2017 219.166 30.8806L219.166 30.8808Z" fill="white"/>
<path d="M224.252 48.3038C224.162 47.969 223.806 47.7421 223.485 47.8438C223.163 47.9462 222.954 48.2697 223.045 48.6074C223.135 48.9417 223.492 49.1688 223.813 49.0668C224.134 48.9652 224.343 48.6413 224.252 48.3038Z" fill="white"/>
<path d="M214.493 31.8098C214.285 31.0352 213.082 31.3579 213.29 32.133C213.498 32.9064 214.701 32.5853 214.493 31.8098Z" fill="#F31C45"/>
<path d="M226.895 33.0715C226.893 32.8576 226.896 32.6253 226.988 32.4131C227.084 32.1952 227.361 32.0296 227.599 32.1824C227.815 32.3209 227.854 32.6252 227.847 32.8497C227.84 33.142 227.702 33.4321 227.494 33.6848C227.312 33.9069 227.081 34.1024 226.827 34.2697C226.815 34.2779 226.8 34.2869 226.788 34.2961C226.774 34.3035 226.76 34.3125 226.747 34.3209C226.542 34.4472 226.323 34.5555 226.094 34.6444C226.067 34.6551 226.043 34.6646 226.02 34.673C226.192 34.5816 226.912 34.1505 226.895 33.0715V33.0715Z" fill="#1BA098"/>
<path d="M227.295 34.8899C227.792 34.8615 228.29 34.8341 228.788 34.8089C228.548 34.6172 228.22 34.5149 227.878 34.4833C227.576 34.4552 227.261 34.4799 226.956 34.537C226.939 34.541 226.923 34.5431 226.908 34.5462C226.892 34.55 226.876 34.5533 226.86 34.5569C226.619 34.6088 226.383 34.6834 226.157 34.7779C226.131 34.7887 226.106 34.7991 226.084 34.8081C226.224 34.7687 226.709 34.658 227.295 34.8898L227.295 34.8899Z" fill="#1BA098"/>
<path d="M228.986 33.8267C228.68 34.0163 228.235 34.1416 227.88 34.2034C227.703 34.2353 227.546 34.2537 227.434 34.263C227.321 34.2737 227.254 34.2763 227.254 34.2763C227.254 34.2763 227.298 34.2307 227.374 34.1571C227.451 34.0825 227.556 33.9823 227.677 33.8704C227.919 33.6468 228.208 33.383 228.477 33.2157C228.749 33.05 228.993 32.9322 229.195 32.8753C229.397 32.818 229.556 32.8214 229.639 32.8977C229.721 32.9719 229.713 33.1071 229.605 33.2732C229.498 33.4396 229.292 33.6394 228.986 33.8267Z" fill="#0B1014"/>
<path d="M224.269 29.236C224.492 29.3618 224.736 29.4933 224.999 29.5345C225.269 29.5764 225.561 29.4254 225.503 29.1269C225.45 28.8552 225.147 28.6454 224.91 28.5209C224.6 28.3595 224.236 28.3137 223.882 28.3512C223.572 28.3842 223.267 28.4755 222.984 28.6035C222.969 28.6112 222.953 28.617 222.939 28.6239C222.925 28.6316 222.909 28.6383 222.895 28.6457C222.674 28.7528 222.467 28.8852 222.276 29.0367C222.254 29.0536 222.233 29.0709 222.215 29.0855C222.384 28.9864 223.144 28.5976 224.269 29.2362V29.236Z" fill="#1BA098"/>
<path d="M224.747 27.3951C224.511 27.6686 224.113 27.9011 223.783 28.0426C223.617 28.1147 223.467 28.1672 223.36 28.2017C223.252 28.2356 223.186 28.2535 223.186 28.2535C223.186 28.2535 223.214 28.193 223.262 28.0968C223.311 27.9995 223.38 27.8655 223.46 27.7169C223.619 27.4199 223.811 27.0677 224.018 26.8267C224.228 26.586 224.428 26.4056 224.61 26.3003C224.789 26.1955 224.948 26.1654 225.06 26.2325C225.168 26.2975 225.209 26.4487 225.162 26.654C225.117 26.8595 224.985 27.1249 224.747 27.3953L224.747 27.3951Z" fill="#0B1014"/>
<path d="M233.211 56.3049L232.589 52.9806C232.589 52.9806 228.937 51.5159 226.375 54.6582C223.812 57.8007 226.231 60.9868 226.231 60.9868L231.657 60.3811L233.05 58.2552C233.08 57.6024 233.132 56.9521 233.211 56.3047L233.211 56.3049Z" fill="#DEB992"/>
<path d="M226.921 54.0152C226.581 53.2067 227.46 53.3656 227.689 53.419C227.42 53.5918 227.164 53.7899 226.921 54.0152Z" fill="#F31C45"/>
<path d="M226.341 54.6325C226.294 54.6906 226.249 54.7488 226.205 54.807C225.782 53.9551 226.663 54.0181 226.886 54.0463C226.697 54.2255 226.514 54.4207 226.341 54.6323V54.6325Z" fill="#DEB992"/>
<path d="M230.723 52.603C231.369 51.6516 231.699 52.5106 231.766 52.7165C231.473 52.66 231.118 52.6132 230.723 52.603Z" fill="#DEB992"/>
<path d="M227.738 53.388C227.648 52.4296 228.376 52.8538 228.557 52.9729C228.272 53.0859 227.999 53.2247 227.738 53.388Z" fill="#F31C45"/>
<path d="M229.124 52.7846C228.947 52.8319 228.774 52.8893 228.605 52.9541C228.812 52.0136 229.394 52.5441 229.537 52.6931C229.4 52.7176 229.263 52.7478 229.124 52.7848V52.7846Z" fill="#1BA098"/>
<path d="M229.588 52.6832C230.033 51.6586 230.56 52.4153 230.674 52.6021C230.336 52.596 229.969 52.6174 229.588 52.6832Z" fill="#1BA098"/>
<path d="M233.227 56.1715L232.624 52.9512L232.603 52.9433C232.587 52.9366 230.953 52.2952 229.124 52.7843C228.042 53.0739 227.106 53.6958 226.342 54.6322C225.008 56.2686 225.04 57.9158 225.301 59.0101C225.585 60.1939 226.192 61.0028 226.198 61.0109L226.212 61.0291L231.68 60.4193L233.046 58.3345C233.077 57.6102 233.135 56.8888 233.227 56.1714V56.1715Z" fill="#1BA098"/>
<path d="M233.178 56.5767L232.509 54.0757L231.744 53.2216C231.744 53.2216 228.483 52.7524 226.835 55.1785C225.187 57.6052 226.013 59.4144 226.281 60.3364C226.544 61.2401 229.87 61.3808 229.87 61.3808C229.87 61.3808 232.191 59.6075 232.301 59.5117C232.364 59.4562 232.741 58.838 233.048 58.3249C233.073 57.7402 233.115 57.1573 233.178 56.5769V56.5767Z" fill="#0B1014"/>
<path d="M233.64 53.2754C233.421 52.6946 233.397 52.026 233.78 51.0508C233.78 51.0508 232.333 51.0575 231.599 53.2606C230.863 55.464 232.072 58.4525 232.072 58.4525L232.538 59.2752L233.014 59.2678C233.051 57.6177 233.166 55.977 233.553 54.3665C233.571 54.0017 233.598 53.6378 233.64 53.2755L233.64 53.2754Z" fill="#F31C45"/>
<path d="M232.21 58.9442C232.21 58.9442 232.554 52.4883 231.166 53.4087C229.778 54.3298 232.21 58.9442 232.21 58.9442Z" fill="#1BA098"/>
<path d="M232.107 59.2995C232.037 59.2479 227.687 54.7334 228.805 54.0118C229.922 53.2901 232.107 59.2995 232.107 59.2995Z" fill="#F31C45"/>
<path d="M244.723 37.5844C244.597 35.4227 244.305 33.2354 243.702 31.1494C240.447 27.1341 236.708 25.4414 233.088 25.0248C232.819 24.9936 232.552 24.9693 232.286 24.952C231.441 24.8977 230.604 24.9095 229.786 24.9732C228.755 25.0539 227.75 25.2182 226.788 25.4364C226.727 25.4505 226.665 25.4661 226.603 25.4799C226.6 25.4807 226.597 25.4815 226.593 25.4822C226.063 25.6085 225.768 26.1774 225.963 26.6867C226.531 28.1705 227.254 29.7501 228.113 31.3069C228.845 32.6343 229.681 33.9411 230.598 35.1627C231.958 35.2562 233.311 35.4172 234.669 35.556C235.818 35.6734 237.178 35.4719 238.258 35.9319C239.326 36.3868 239.65 37.2527 239.389 38.3383C239.343 38.5325 239.291 38.7216 239.238 38.9074C239.241 39.0485 239.239 39.1903 239.227 39.3324C239.159 40.1374 239.026 40.9476 238.899 41.7571C240.743 42.5123 242.665 43.0033 244.511 43.2401C244.564 41.3569 244.834 39.4816 244.723 37.5844H244.723Z" fill="#1BA098"/>
<path d="M244.723 37.5851C244.707 37.3141 244.688 37.0427 244.667 36.7711L229.999 25.5693C228.427 27.3913 227.607 29.3283 227.607 29.3283C230.056 30.8043 231.822 30.1585 231.822 30.1585C230.408 32.206 230.286 34.1071 230.286 34.1071C231.971 35.0246 234.459 33.8311 234.459 33.8311C234.216 34.4158 234.085 34.9735 234.022 35.4884C234.238 35.5112 234.453 35.5347 234.669 35.5567C235.818 35.6742 237.178 35.4726 238.258 35.9326C239.326 36.3875 239.65 37.2534 239.389 38.339C239.342 38.5332 239.291 38.7223 239.237 38.9081C239.241 39.0492 239.238 39.191 239.226 39.3331C239.182 39.8649 239.106 40.3992 239.025 40.9338C239.169 41.2101 239.273 41.375 239.273 41.375C241.286 41.0123 242.334 38.5899 242.334 38.5899C242.856 40.7898 244.172 42.1823 244.539 42.5368C244.625 40.8897 244.82 39.2457 244.723 37.585L244.723 37.5851Z" fill="white"/>
<path d="M244.647 40.845C244.695 40.1505 244.735 39.4552 244.744 38.7578L243.514 38.7231C243.514 38.7231 243.875 40.1735 244.603 40.8988C244.603 40.8988 244.62 40.8786 244.647 40.845V40.845Z" fill="#F31C45"/>
<path d="M239.459 37.467C239.484 37.7372 239.463 38.0273 239.389 38.3382C239.386 38.3483 239.383 38.3579 239.381 38.3681C239.452 39.2059 239.796 39.8029 239.796 39.8029C240.478 39.4136 241.078 38.1982 241.078 38.1982L239.459 37.4668L239.459 37.467Z" fill="#F31C45"/>
<path d="M233.676 32.6733C233.676 32.6733 232.657 33.3153 231.729 33.0832C231.729 33.0832 231.803 31.9542 232.496 31.0991L233.675 32.6731L233.676 32.6733Z" fill="#F31C45"/>
<path d="M231.334 29.0807C231.334 29.0807 230.018 29.419 228.9 28.8391C228.9 28.8391 229.442 27.6127 230.374 26.7822L231.334 29.0806V29.0807Z" fill="#F31C45"/>
<path d="M244.723 37.5844C244.597 35.4227 244.304 33.2354 243.701 31.1494C240.447 27.1341 236.707 25.4414 233.088 25.0248C232.819 24.9936 232.551 24.9693 232.286 24.952C231.44 24.8977 230.603 24.9095 229.785 24.9732C229.843 25.1774 229.905 25.3874 229.972 25.6008C230.089 25.9851 230.218 26.3812 230.363 26.7906C230.622 27.5279 230.93 28.3005 231.301 29.0881C231.626 29.78 232.002 30.4819 232.436 31.1783C232.767 31.7078 233.131 32.234 233.534 32.7525C233.818 33.1178 234.124 33.4796 234.454 33.8395C234.877 34.3013 235.337 34.7497 235.836 35.1819C235.843 35.1896 235.853 35.197 235.861 35.2047C236.02 35.3431 236.186 35.4784 236.354 35.6127C237.019 35.6301 237.679 35.6853 238.258 35.932C239.066 36.2765 239.447 36.8574 239.471 37.5905C240.013 37.8502 240.545 38.0618 241.063 38.2269C241.921 38.5046 242.742 38.6674 243.52 38.7462C243.941 38.7912 244.347 38.8083 244.743 38.8087C244.749 38.4014 244.747 37.9935 244.723 37.5846L244.723 37.5844Z" fill="#1BA098"/>
<path d="M243.702 31.1495C240.448 27.1342 236.709 25.4416 233.089 25.0249C232.82 24.9937 232.553 24.9694 232.287 24.9521C232.679 26.033 233.185 27.2584 233.806 28.4764C234.879 30.5824 236.293 32.6574 238.052 33.894C240.556 35.655 242.706 36.3164 244.323 36.5073C244.437 36.5208 244.539 36.525 244.648 36.5339C244.495 34.7174 244.208 32.8981 243.703 31.1495H243.702Z" fill="#0B1014"/>
<path d="M241.698 41.8807C241.935 42.0603 242.258 42.0396 242.433 41.7953L242.444 41.7809C242.607 41.5532 242.569 41.1733 242.333 40.9943C242.097 40.8144 241.773 40.8344 241.598 41.0787L241.588 41.094C241.425 41.3215 241.462 41.7015 241.698 41.8807H241.698Z" fill="#DEB992"/>
<path d="M229.181 31.9326L229.195 31.9441C229.417 32.1277 229.772 32.1024 229.931 31.8591C230.09 31.6142 230.058 31.2687 229.82 31.0715L229.806 31.06C229.585 30.8764 229.229 30.9009 229.071 31.1448C228.912 31.3901 228.944 31.7353 229.181 31.9326Z" fill="#DEB992"/>
<path d="M240.396 37.1124C240.939 37.5636 241.565 36.6923 241.02 36.2401C240.476 35.7883 239.85 36.6593 240.396 37.1124Z" fill="white"/>
<path d="M236.585 34.9013C236.822 35.0802 237.145 35.06 237.32 34.8155L237.331 34.8012C237.494 34.5727 237.456 34.1927 237.22 34.0145C236.983 33.8351 236.66 33.8548 236.485 34.0994L236.475 34.1134C236.312 34.3419 236.349 34.7212 236.585 34.9013V34.9013Z" fill="white"/>
<path d="M233.286 31.2159C233.34 31.5158 233.593 31.7464 233.884 31.7124C233.891 31.7114 233.9 31.7109 233.908 31.7099C234.18 31.6784 234.404 31.3917 234.35 31.0936C234.296 30.7929 234.043 30.5634 233.752 30.5964C233.744 30.5974 233.736 30.5986 233.727 30.5999C233.455 30.6314 233.232 30.9171 233.285 31.2161L233.286 31.2159Z" fill="white"/>
<path d="M231.333 27.7366L231.347 27.7483C231.568 27.932 231.924 27.9076 232.082 27.6637C232.242 27.4191 232.21 27.0736 231.973 26.8764L231.958 26.8649C231.738 26.6809 231.382 26.7056 231.223 26.9497C231.064 27.1948 231.097 27.54 231.333 27.7366H231.333Z" fill="white"/>
<path d="M244.394 34.3571C244.23 33.2725 244.005 32.1982 243.702 31.149C240.447 27.1337 236.708 25.441 233.088 25.0244C235.255 27.4958 238.338 27.3854 238.338 27.3854C236.852 27.8802 235.831 29.2362 235.484 29.7563C235.397 29.8841 235.352 29.9618 235.352 29.9618C235.51 29.9822 235.666 29.9968 235.814 30.0078C238.331 30.1912 239.495 29.0872 239.557 29.0266C238.738 30.1692 238.297 31.0668 238.062 31.7249C237.729 32.6586 237.809 33.1128 237.809 33.1128C238.278 32.961 238.691 32.7381 239.051 32.4815C240.305 31.5891 240.921 30.2953 240.965 30.1997C240.564 31.6973 240.587 32.9032 240.717 33.7519C240.86 34.6742 241.131 35.1754 241.131 35.1754C241.333 34.9329 241.508 34.6983 241.659 34.4723C242.86 32.6776 242.581 31.4304 242.537 31.2644C242.956 32.5953 243.671 33.6091 244.394 34.3568L244.394 34.3571Z" fill="#DEB992"/>
<path d="M238.225 32.569C240.327 31.4061 240.906 28.8921 240.906 28.8921C238.619 30.5892 238.225 32.569 238.225 32.569Z" fill="#F31C45"/>
<path d="M239.921 28.061C239.921 28.061 238.082 27.803 236.166 29.6197C236.166 29.6197 237.633 29.7585 239.921 28.061Z" fill="#F31C45"/>
<path d="M241.281 34.5246C242.441 32.2358 241.914 29.7891 241.914 29.7891C240.767 32.5773 241.281 34.5246 241.281 34.5246Z" fill="#F31C45"/>
<path d="M243.896 31.8684C243.243 31.0504 242.662 30.438 242.662 30.438C243.226 31.8531 243.776 32.8287 244.25 33.5024C244.15 32.9532 244.032 32.4083 243.896 31.8684Z" fill="#F31C45"/>
<path d="M234.293 25.5278C235.452 26.7284 238.593 27.0276 238.593 27.0276C236.123 25.6446 234.293 25.5278 234.293 25.5278Z" fill="#F31C45"/>
<path d="M244.562 35.661C244.083 35.2406 243.245 34.4072 243.099 33.6035C243.099 33.6035 243.053 34.8253 242.033 35.3421C242.033 35.3421 243.35 35.9725 244.594 35.9564C244.584 35.8578 244.573 35.7594 244.562 35.6609V35.661Z" fill="#F31C45"/>
<path d="M240.268 32.1177C239.452 33.1086 238.268 33.3718 238.268 33.3718C239.289 34.163 240.275 34.6603 240.275 34.6603C239.825 33.8688 240.268 32.1177 240.268 32.1177Z" fill="#F31C45"/>
<path d="M235.805 30.5257C236.399 31.5308 237.227 32.4164 237.227 32.4164C237.109 31.4981 238.051 30.3389 238.051 30.3389C236.697 30.6541 235.805 30.5257 235.805 30.5257V30.5257Z" fill="#F31C45"/>
<path d="M233.657 26.29C233.615 26.9434 234.936 29.1405 234.936 29.1405C234.931 28.6196 236.436 27.6017 236.436 27.6017C234.761 27.2174 233.657 26.29 233.657 26.29V26.29Z" fill="#F31C45"/>
<path d="M215.02 40.6085C213.175 40.817 211.008 39.782 210.49 37.943C210.439 37.7609 210.406 37.5733 210.392 37.3846C210.34 36.7138 210.533 35.9385 211.007 35.445C211.613 34.8146 212.611 34.5643 213.423 34.9129C214.065 35.1882 214.619 35.8411 214.562 36.5704C214.518 37.1307 214.152 37.6573 213.595 37.7396C212.638 37.8809 212.823 36.9234 212.823 36.9234C212.823 36.9234 213.365 37.226 213.547 36.805C213.73 36.3837 213.14 35.8626 212.451 36.1495C211.287 36.6346 211.921 38.0678 212.725 38.5679C213.25 38.8945 214.097 38.9804 214.752 38.7365C214.7 38.3436 214.668 37.954 214.707 37.5907C214.814 36.6019 215.427 36.1266 216.225 35.8958C216.257 35.6145 216.218 35.2929 216.037 34.9374C215.394 33.6732 214.367 33.1112 213.173 33.3016C213.173 33.3016 212.374 31.9418 210.656 32.4634C210.243 32.5889 209.899 32.776 209.616 33.0016C209.56 34.4294 209.448 35.8495 209.334 37.2696C209.364 38.4787 209.382 39.6872 209.379 40.8953C210.353 41.4897 211.294 41.1038 211.294 41.1038C211.294 41.1038 212.342 43.5755 215.19 42.9032C215.281 42.8817 215.367 42.8518 215.456 42.8258C215.234 42.1035 215.11 41.3644 215.02 40.6086L215.02 40.6085Z" fill="#F31C45"/>
<path d="M213.125 39.9207C213.2 40.0428 213.354 40.0953 213.483 40.0239L213.498 40.0158C213.618 39.9491 213.675 39.7791 213.601 39.6575C213.526 39.5356 213.372 39.4827 213.243 39.5543L213.228 39.5624C213.108 39.6293 213.051 39.7994 213.125 39.9207V39.9207Z" fill="#0B1014"/>
<path d="M211.936 39.3362C212.011 39.4583 212.165 39.5109 212.294 39.4392L212.309 39.4315C212.429 39.3645 212.486 39.1943 212.412 39.0729C212.337 38.9511 212.182 38.8982 212.053 38.9699L212.039 38.9776C211.918 39.0446 211.861 39.2147 211.936 39.3362V39.3362Z" fill="#0B1014"/>
<path d="M211.079 38.2653C211.202 38.4879 211.549 38.2969 211.425 38.0738C211.302 37.8512 210.956 38.0422 211.079 38.2653V38.2653Z" fill="#0B1014"/>
<path d="M210.788 37.1261C210.911 37.3486 211.257 37.1575 211.134 36.9346C211.01 36.712 210.665 36.9032 210.788 37.1261Z" fill="#0B1014"/>
<path d="M211.207 36.0106C211.289 36.1593 211.52 36.0316 211.437 35.8829C211.355 35.7346 211.125 35.8621 211.207 36.0106Z" fill="#0B1014"/>
<path d="M212.027 35.3858C212.11 35.5342 212.34 35.4068 212.258 35.2582C212.176 35.1095 211.945 35.237 212.027 35.3858Z" fill="#0B1014"/>
<path d="M212.889 35.305C212.97 35.4533 213.202 35.3262 213.119 35.1775C213.037 35.029 212.806 35.1565 212.889 35.305Z" fill="#0B1014"/>
<path d="M213.644 35.7525C213.727 35.901 213.957 35.7735 213.875 35.6247C213.793 35.4762 213.562 35.604 213.644 35.7525Z" fill="#0B1014"/>
<path d="M213.984 36.4695C214.066 36.6178 214.298 36.4903 214.215 36.3416C214.133 36.193 213.902 36.3205 213.984 36.4695Z" fill="#0B1014"/>
<path d="M213.914 37.0912C213.975 37.2026 214.148 37.1068 214.087 36.9954C214.025 36.8841 213.852 36.9795 213.914 37.0912Z" fill="#0B1014"/>
<path d="M213.523 37.4398C213.584 37.5511 213.758 37.4556 213.696 37.3442C213.634 37.2325 213.461 37.3283 213.523 37.4398Z" fill="#0B1014"/>
<path d="M213.064 37.393C213.125 37.5042 213.299 37.4089 213.237 37.2972C213.175 37.1858 213.002 37.2813 213.064 37.393Z" fill="#0B1014"/>
<path d="M210.394 33.0325C210.493 32.9858 210.688 33.192 210.83 33.4933C210.973 33.7943 211.008 34.0762 210.909 34.1232C210.811 34.1698 210.615 33.9635 210.473 33.6623C210.331 33.3609 210.295 33.079 210.394 33.0326V33.0325Z" fill="white"/>
<path d="M211.547 32.8828C211.657 32.8848 211.742 33.0865 211.738 33.3338C211.733 33.5809 211.641 33.78 211.532 33.7777C211.422 33.7759 211.338 33.5736 211.342 33.3267C211.346 33.0795 211.439 32.8809 211.547 32.8828V32.8828Z" fill="white"/>
<path d="M215.49 34.5251C215.534 34.5936 215.411 34.7545 215.214 34.8847C215.016 35.0149 214.82 35.0648 214.775 34.9965C214.73 34.9279 214.853 34.7673 215.05 34.6372C215.247 34.5069 215.444 34.4569 215.489 34.5251H215.49Z" fill="white"/>
<path d="M215.859 35.3539C215.873 35.4349 215.703 35.5316 215.48 35.5706C215.256 35.6095 215.064 35.5757 215.05 35.4948C215.035 35.4142 215.205 35.3171 215.429 35.2783C215.653 35.2394 215.845 35.2735 215.859 35.3539Z" fill="white"/>
<path d="M214.749 33.9036C214.819 33.946 214.8 34.1055 214.706 34.2601C214.613 34.4149 214.48 34.5052 214.409 34.4632C214.339 34.4201 214.359 34.2606 214.453 34.1065C214.546 33.9519 214.679 33.8609 214.749 33.9036Z" fill="white"/>
<path d="M214.671 41.589C214.779 41.5747 214.9 41.8121 214.94 42.1193C214.981 42.4267 214.927 42.6874 214.818 42.7017C214.71 42.7162 214.589 42.4784 214.549 42.1714C214.508 41.864 214.563 41.6033 214.671 41.589Z" fill="white"/>
<path d="M213.902 41.5444C214.005 41.5824 214.006 41.8337 213.905 42.1059C213.803 42.3782 213.639 42.5679 213.536 42.5301C213.434 42.4918 213.433 42.2403 213.534 41.9686C213.635 41.6964 213.8 41.5063 213.902 41.5444H213.902Z" fill="white"/>
<path d="M215.021 40.608C213.175 40.8165 211.01 39.781 210.491 37.9427C210.44 37.76 210.407 37.5737 210.392 37.3842C210.341 36.7136 210.534 35.9374 211.008 35.4447C211.614 34.8142 212.611 34.5638 213.423 34.9126C214.066 35.1884 214.62 35.8403 214.562 36.5701C214.519 37.1306 214.153 37.657 213.596 37.7393C212.638 37.8801 212.824 36.9231 212.824 36.9231C212.528 37.3353 212.708 37.7557 213.162 37.9292C213.704 38.1373 214.316 37.8255 214.639 37.3757C215.408 36.3064 214.731 34.8365 213.653 34.2911C213.528 34.2278 213.397 34.1767 213.263 34.1353C212.555 33.9213 211.793 34.0366 211.147 34.3824C210.374 34.795 209.863 35.4817 209.641 36.3415C209.349 37.469 209.707 38.6394 210.441 39.4915C211.492 40.713 213.238 41.3093 214.826 41.1644C214.914 41.1564 215.001 41.1428 215.087 41.1295C215.062 40.957 215.041 40.7823 215.021 40.608H215.021Z" fill="#1BA098"/>
<path d="M233.825 8.05312C233.795 7.30907 233.825 6.26734 232.143 5.59771C230.602 4.98395 227.507 4.99528 227.001 5.00136C226.495 4.99528 223.4 4.98395 221.859 5.59771C220.177 6.26734 220.207 7.30907 220.177 8.05312C220.147 8.79716 220.074 10.4349 220.623 10.7913C221.94 11.6445 223.213 12.5323 223.421 13.5741C223.629 14.6158 223.57 16.853 223.57 16.853C223.57 16.853 223.471 19.9717 226.928 20.0582V20.0623C226.953 20.0623 226.976 20.0605 227.001 20.0604C227.026 20.0607 227.049 20.0623 227.074 20.0623V20.0582C230.532 19.9717 230.432 16.853 230.432 16.853C230.432 16.853 230.373 14.6158 230.581 13.5741C230.79 12.5323 232.063 11.6445 233.379 10.7913C233.928 10.4349 233.855 8.79716 233.825 8.05312H233.825Z" fill="#0B1014"/>
<path d="M230.867 19.8825C230.867 19.8825 230.867 19.8558 230.867 19.848C230.863 19.7915 230.846 19.6838 230.759 19.6719C230.647 19.6287 230.551 19.8832 230.551 19.8832C230.144 20.8457 229.213 21.9192 227.082 21.9724V21.977C227.054 21.977 227.028 21.975 227 21.9747C226.972 21.975 226.947 21.977 226.918 21.977V21.9724C224.787 21.9192 223.857 20.8457 223.45 19.8832C223.45 19.8832 223.354 19.6287 223.242 19.6719C223.154 19.6838 223.137 19.7915 223.134 19.848C223.134 19.8559 223.133 19.8825 223.133 19.8825C223.133 19.8825 223.021 23.3976 226.919 23.495V23.4996C226.947 23.4996 226.973 23.4976 227 23.4973C227.028 23.4976 227.054 23.4996 227.082 23.4996V23.495C230.98 23.3974 230.868 19.8825 230.868 19.8825H230.867Z" fill="#0B1014"/>
<path d="M227 62.3185C220.542 62.3185 214.629 61.2768 210.78 59.4605C210.71 59.4276 209.069 58.6234 209.02 55.8429C208.976 53.3662 209.019 36.0955 209.02 35.9214C209.016 35.8841 208.579 28.5322 215.215 26.3825C219.069 25.134 221.019 23.302 221.066 20.8867L221.074 20.4653C221.134 17.6127 221.112 15.9223 221.092 15.1688C221.085 14.9087 221.004 14.66 220.856 14.4505C220.585 14.0654 220.333 13.7733 220.164 13.6503C219.81 13.3922 219.639 12.956 219.718 12.511C219.776 12.1921 220.058 11.4085 221.44 11.0194C223.737 10.3728 224.672 10.2417 227 10.2417C229.327 10.2417 230.263 10.3726 232.561 11.0194C233.942 11.4085 234.224 12.1926 234.282 12.5115C234.361 12.956 234.19 13.3927 233.835 13.6503C233.668 13.7725 233.415 14.0644 233.144 14.4505C232.996 14.6595 232.915 14.9079 232.908 15.1698C232.888 15.9028 232.865 17.5662 232.926 20.4653L232.935 20.8887C232.982 23.303 234.931 25.1343 238.784 26.3825C245.238 28.4727 245.002 35.4813 244.98 35.9355C244.982 36.515 245.024 53.3964 244.98 55.8429C244.931 58.6234 243.289 59.4276 243.219 59.4605C239.37 61.2768 233.457 62.3185 226.999 62.3185H227ZM227 11.2463C224.907 11.2463 224.013 11.3385 221.712 11.9867C221.029 12.1786 220.744 12.4847 220.707 12.6884C220.696 12.7556 220.711 12.8062 220.755 12.8376C221.022 13.0319 221.332 13.3797 221.678 13.8724C221.939 14.2438 222.084 14.683 222.097 15.1422C222.116 15.9056 222.139 17.6137 222.079 20.4868L222.07 20.9064C221.99 25.0426 221.684 25.3429 215.525 27.3383C209.628 29.2485 210.019 35.8217 210.023 35.8874C210.024 36.0978 209.98 53.3581 210.025 55.8252C210.062 57.9453 211.168 58.5306 211.215 58.5546C214.874 60.2812 220.777 61.3136 227 61.3136C233.222 61.3136 239.126 60.2812 242.792 58.5516C242.832 58.5306 243.938 57.9453 243.976 55.825C244.02 53.3579 243.976 36.0977 243.976 35.924L243.977 35.8882C243.995 35.6173 244.356 29.2432 238.474 27.338C232.317 25.3429 232.01 25.0423 231.931 20.9076L231.922 20.4865C231.86 17.5662 231.884 15.8847 231.904 15.1423C231.916 14.6807 232.062 14.2415 232.324 13.8711C232.669 13.3784 232.98 13.0306 233.245 12.8372C233.289 12.8054 233.305 12.7553 233.293 12.6876C233.257 12.4845 232.972 12.1783 232.288 11.9864C229.988 11.3383 229.094 11.246 227 11.246L227 11.2463Z" fill="#0B1014"/>
<path d="M219.197 61.0996C219.056 61.0996 218.935 60.9892 218.922 60.848L218.159 52.6187C218.145 52.4666 218.257 52.3313 218.41 52.3174H218.412C218.577 52.3174 218.698 52.4273 218.711 52.5673L219.473 60.7968C219.487 60.9489 219.375 61.0841 219.223 61.0981L219.197 61.0994V61.0996Z" fill="#0B1014"/>
<path d="M235.056 61.0978C234.906 61.0836 234.794 60.9484 234.808 60.7965L235.57 52.5669C235.583 52.4239 235.702 52.3159 235.846 52.3159C236.023 52.331 236.136 52.4662 236.121 52.6184L235.359 60.8479C235.346 60.9889 235.225 61.0991 235.084 61.0991L235.056 61.0978V61.0978Z" fill="#0B1014"/>
<path d="M227.119 38.412C223.806 38.412 220.689 38.2702 218.342 38.013C214.592 37.6019 214.281 37.0902 214.281 36.5577C214.281 36.0253 214.592 35.5135 218.342 35.1028C220.689 34.8454 223.806 34.7036 227.119 34.7036C230.432 34.7036 233.549 34.8454 235.896 35.1028C239.646 35.5139 239.956 36.0256 239.956 36.5577C239.956 37.0899 239.646 37.6019 235.896 38.013C233.549 38.2701 230.432 38.412 227.119 38.412ZM215.695 36.5579C217.093 36.9637 221.177 37.4079 227.119 37.4079C233.061 37.4079 237.144 36.9637 238.543 36.5579C237.144 36.1521 233.06 35.7079 227.119 35.7079C221.178 35.7079 217.093 36.1521 215.695 36.5579Z" fill="#0B1014"/>
<path d="M227.119 66.2448C221.892 66.2448 219.323 65.5959 218.089 65.0516C217.336 64.7194 216.822 64.0081 216.747 63.1955L214.283 36.6041C214.258 36.3279 214.461 36.0836 214.737 36.0578C215.008 36.0358 215.258 36.2356 215.283 36.5112L217.747 63.103C217.788 63.5535 218.074 63.948 218.494 64.1333C219.64 64.6385 222.067 65.2407 227.119 65.2407C227.397 65.2407 227.621 65.4656 227.621 65.7428C227.621 66.0199 227.397 66.2448 227.119 66.2448H227.119Z" fill="#0B1014"/>
<path d="M217.769 45.8388C217.628 45.8388 217.507 45.7284 217.494 45.5873L216.732 37.3579C216.718 37.2058 216.83 37.0706 216.982 37.0566H216.985C217.149 37.0566 217.27 37.1665 217.283 37.3065L218.045 45.536C218.059 45.6882 217.947 45.8234 217.795 45.8373L217.769 45.8387V45.8388Z" fill="#0B1014"/>
<path d="M219.603 43.3917C219.46 43.3917 219.339 43.2793 219.327 43.136L218.903 37.6142C218.897 37.5402 218.921 37.4687 218.969 37.4127C219.017 37.3567 219.084 37.3225 219.158 37.3169H219.159C219.322 37.3169 219.444 37.4288 219.455 37.5717L219.88 43.0935C219.885 43.1676 219.862 43.239 219.814 43.2951C219.766 43.3511 219.699 43.3853 219.625 43.3908L219.603 43.3917V43.3917Z" fill="#0B1014"/>
<path d="M221.579 42.3052C221.432 42.3052 221.311 42.19 221.303 42.043L221.077 37.7695C221.073 37.6954 221.098 37.6246 221.147 37.5697C221.197 37.5147 221.265 37.4821 221.339 37.4785H221.34C221.498 37.4785 221.622 37.5983 221.63 37.7401L221.856 42.0136C221.86 42.0877 221.835 42.1585 221.786 42.2134C221.736 42.2684 221.668 42.3009 221.594 42.3045L221.579 42.3052V42.3052Z" fill="#0B1014"/>
<path d="M223.616 41.4123C223.466 41.4123 223.345 41.2947 223.34 41.1449L223.233 37.9193C223.227 37.7667 223.347 37.6386 223.5 37.6333C223.655 37.6335 223.781 37.7508 223.786 37.9004L223.893 41.1263C223.898 41.2789 223.778 41.4071 223.626 41.4123H223.616H223.616Z" fill="#0B1014"/>
<path d="M227.119 66.2449C226.842 66.2449 226.617 66.02 226.617 65.7428C226.617 65.4657 226.842 65.2408 227.119 65.2408C232.172 65.2408 234.598 64.6385 235.744 64.1333C236.163 63.9482 236.45 63.5534 236.491 63.1033L238.955 36.5113C238.98 36.2351 239.22 36.0354 239.501 36.0579C239.777 36.0837 239.98 36.328 239.954 36.6041L237.491 63.1959C237.416 64.0088 236.902 64.72 236.149 65.0519C234.915 65.5961 232.347 66.2451 227.119 66.2451L227.119 66.2449Z" fill="#0B1014"/>
<path d="M236.439 45.838C236.289 45.8239 236.177 45.6887 236.191 45.5367L236.953 37.3072C236.966 37.1641 237.085 37.0562 237.229 37.0562C237.406 37.0713 237.518 37.2065 237.504 37.3586L236.742 45.5881C236.729 45.7291 236.608 45.8393 236.467 45.8393L236.439 45.838Z" fill="#0B1014"/>
<path d="M234.611 43.3908C234.539 43.3854 234.472 43.3512 234.424 43.2952C234.376 43.2392 234.353 43.1677 234.358 43.0941L234.782 37.5719C234.794 37.4288 234.916 37.3164 235.06 37.3164C235.153 37.3228 235.22 37.3568 235.268 37.4128C235.317 37.4689 235.34 37.5403 235.334 37.6139L234.91 43.1362C234.899 43.2795 234.778 43.3918 234.635 43.3918L234.611 43.3907V43.3908Z" fill="#0B1014"/>
<path d="M232.654 42.3047C232.575 42.3006 232.507 42.2683 232.458 42.2132C232.409 42.1585 232.384 42.0875 232.387 42.0138L232.608 37.7401C232.615 37.5945 232.733 37.4766 232.869 37.4766C232.973 37.4818 233.04 37.5142 233.09 37.5691C233.139 37.6238 233.165 37.6947 233.161 37.7685L232.94 42.0422C232.933 42.1897 232.811 42.3049 232.664 42.3049H232.654L232.654 42.3047Z" fill="#0B1014"/>
<path d="M230.614 41.4114C230.538 41.4089 230.469 41.378 230.419 41.3241C230.368 41.2703 230.341 41.1998 230.344 41.1257L230.447 37.9004C230.452 37.7501 230.573 37.6323 230.723 37.6323C230.806 37.635 230.875 37.666 230.925 37.7199C230.976 37.7738 231.003 37.8443 231 37.9183L230.897 41.1436C230.892 41.2939 230.771 41.4117 230.621 41.4117H230.614V41.4114Z" fill="#0B1014"/>
<path d="M233.435 44.8926C232.342 44.7026 230.355 44.4741 227.119 44.4741C223.883 44.4741 221.896 44.7026 220.804 44.8926C220.174 45.002 219.735 45.5765 219.783 46.2134L220.919 61.1913C220.938 61.4351 221.132 61.6274 221.376 61.6426C221.383 61.643 221.389 61.6434 221.396 61.6439C221.692 61.6623 221.939 61.4145 221.917 61.1188L220.953 48.3673L220.784 46.1375C220.775 46.0145 220.859 45.9021 220.975 45.8817C222.035 45.6977 223.96 45.4781 227.119 45.4781C230.277 45.4781 232.203 45.6977 233.263 45.8819C233.379 45.9021 233.463 46.0145 233.454 46.1375L233.337 47.6752L232.329 61.1185C232.307 61.4142 232.553 61.6616 232.849 61.6434C232.853 61.643 232.858 61.6429 232.862 61.6426C233.106 61.6274 233.3 61.4351 233.319 61.1913L234.455 46.2136C234.503 45.5766 234.064 45.0021 233.434 44.8927L233.435 44.8926Z" fill="#0B1014"/>
<path d="M225.065 53.6006C224.583 53.774 224.85 54.5232 225.333 54.349C225.816 54.1774 225.547 53.4271 225.065 53.6006Z" fill="#0B1014"/>
<path d="M226.309 52.5392C225.826 52.7109 226.095 53.4612 226.577 53.2877C227.059 53.1142 226.792 52.3651 226.309 52.5392Z" fill="#0B1014"/>
<path d="M227.867 51.5594C227.385 51.7322 227.654 52.4827 228.136 52.3091C228.62 52.1361 228.351 51.3864 227.867 51.5594Z" fill="#0B1014"/>
<path d="M229.658 51.1283C229.176 51.3011 229.446 52.0507 229.927 51.8781C230.409 51.7039 230.141 50.9554 229.658 51.1283Z" fill="#0B1014"/>
<path d="M231.477 51.364C230.994 51.5356 231.263 52.2859 231.745 52.1124C232.227 51.939 231.96 51.1898 231.477 51.364Z" fill="#0B1014"/>
<path d="M223.03 26.1009C222.947 26.0091 222.871 25.967 222.852 25.9575C222.812 25.9398 222.767 25.922 222.71 25.9074C222.536 25.8622 222.346 25.9552 222.312 26.0272C222.274 26.094 222.249 26.1732 222.244 26.2529C222.228 26.5077 222.311 26.7642 222.391 26.9999C222.8 28.1885 222.24 28.8128 222.104 28.9516C222.12 28.9376 222.142 28.9222 222.166 28.9041C222.359 28.7574 222.54 28.594 222.698 28.41C222.709 28.3971 222.718 28.3852 222.728 28.3722C222.739 28.3608 222.749 28.3487 222.759 28.3364C222.95 28.0985 223.111 27.8353 223.209 27.5519C223.325 27.2273 223.357 26.879 223.258 26.5544C223.212 26.4078 223.136 26.2401 223.03 26.1006L223.03 26.1009Z" fill="#1BA098"/>
<path d="M59.3903 14.8678V14H55.0292L51.8039 23.9812L48.4534 14H44V14.8678H45.5929V26.9472H44V27.7975H48.0536V26.9472H46.4607V16.2256L50.3868 27.9864H51.4304L55.2225 16.2893V26.9472H53.6297V27.7975H59.3903V26.9472H57.7975V14.8678H59.3903Z" fill="#0B1014"/>
<path d="M68.5335 23.0562V22.8035C68.5371 22.212 68.4226 21.6258 68.1967 21.0791C67.9707 20.5325 67.638 20.0364 67.2179 19.62C66.7978 19.2036 66.2989 18.8753 65.7502 18.6542C65.2016 18.4331 64.6144 18.3237 64.023 18.3325C62.741 18.3325 61.5116 18.8418 60.6052 19.7482C59.6987 20.6547 59.1895 21.8841 59.1895 23.166C59.1895 24.448 59.6987 25.6774 60.6052 26.5838C61.5116 27.4903 62.741 27.9995 64.023 27.9995C64.8808 28.0146 65.7254 27.7869 66.4594 27.3425C67.1933 26.8982 67.7867 26.2554 68.171 25.4883L68.327 25.1214H67.4108L67.3427 25.2862C67.1472 25.7651 66.1168 27.1317 64.023 27.1317C61.8039 27.1317 61.6326 24.0976 61.6326 23.166V23.0694L68.5335 23.0562ZM64.023 19.1894C65.3764 19.1894 65.8465 20.7581 66.0003 22.1884H61.6787C61.8523 20.7581 62.4081 19.1894 64.023 19.1894V19.1894Z" fill="#0B1014"/>
<path d="M76.0823 24.6164L76.0208 24.7921C75.4913 26.3103 74.7839 26.9276 73.5777 26.9276H72.1826L76.77 18.5107H70.2601L69.3264 21.312H70.2052L70.2667 21.1384C70.8072 19.6444 71.585 19.361 72.8065 19.361H73.5953L69.0078 27.7955H76.0384L76.948 24.6164H76.0823Z" fill="#0B1014"/>
<path d="M85.1594 24.6162L85.1023 24.781C84.564 26.2816 83.6017 27.1099 82.3911 27.1099C80.1743 27.1099 80.0008 24.0757 80.0008 23.1442C80.0008 21.9534 80.2336 19.1895 82.3736 19.1895C83.5468 19.1895 84.3883 19.8486 84.876 21.1427L84.9397 21.3118H85.8185L84.8145 18.5106H83.5072C83.1453 18.3742 82.7602 18.31 82.3736 18.3217C81.7388 18.3228 81.1105 18.449 80.5245 18.6929C79.9385 18.9369 79.4063 19.2939 78.9583 19.7436C78.5103 20.1932 78.1552 20.7267 77.9134 21.3136C77.6716 21.9005 77.5477 22.5292 77.5488 23.164C77.55 23.7987 77.6762 24.427 77.9201 25.013C78.1641 25.599 78.5211 26.1312 78.9708 26.5792C79.4204 27.0272 79.9539 27.3823 80.5408 27.6241C81.1276 27.866 81.7564 27.9898 82.3911 27.9887C82.7651 27.9835 83.1359 27.919 83.4897 27.7975H84.9002L86.036 24.6184L85.1594 24.6162Z" fill="#0B1014"/>
<path d="M101.641 26.9296V14H97.834V14.8678H99.1808V26.9296H97.834V27.7975H102.986V26.9296H101.641Z" fill="#0B1014"/>
<path d="M95.6996 26.9279V22.1932C95.7259 20.9058 95.4381 19.9742 94.8208 19.3371C94.1375 18.6406 93.0631 18.3154 91.4153 18.3154C91.0041 18.328 90.596 18.3915 90.2004 18.5044H88.8602L88.1022 20.6223H89.0425C89.5347 19.6688 90.2926 19.1833 91.3011 19.1833C92.7753 19.1833 93.162 20.0797 93.2257 21.9537C92.7423 21.4704 91.9997 21.0639 90.8661 21.0639C88.8558 21.0639 86.8301 22.1361 86.8301 24.5309C86.8301 26.9257 88.8558 27.9803 90.8661 27.9803C92.0063 27.9803 92.7533 27.5694 93.2367 27.0795V27.7891H97.0442V26.9103L95.6996 26.9279ZM93.2389 25.1263C93.2126 25.6759 92.9711 26.193 92.5665 26.566C92.162 26.9389 91.6269 27.1375 91.077 27.119C89.6753 27.119 89.1787 25.7283 89.1787 24.5375C89.1787 23.2808 89.6775 21.9384 91.077 21.9384C91.6269 21.9198 92.162 22.1185 92.5665 22.4914C92.9711 22.8643 93.2126 23.3815 93.2389 23.9311V25.1263Z" fill="#0B1014"/>
<path d="M103.689 19.0137H105.447C106.434 19.0137 107.003 19.4399 107.003 20.3055C107.003 21.1712 106.434 21.593 105.447 21.593H104.61V22.9728H103.689V19.0137ZM105.586 20.7955C105.654 20.802 105.723 20.7941 105.788 20.7723C105.854 20.7505 105.914 20.7153 105.965 20.669C106.016 20.6226 106.056 20.5662 106.084 20.5032C106.112 20.4403 106.126 20.3722 106.126 20.3033C106.126 20.2345 106.112 20.1664 106.084 20.1035C106.056 20.0405 106.016 19.984 105.965 19.9377C105.914 19.8914 105.854 19.8562 105.788 19.8344C105.723 19.8126 105.654 19.8047 105.586 19.8112H104.617V20.7955H105.586Z" fill="#0B1014"/>
<path d="M109.061 19.0137H110.974C111.75 19.0137 112.376 19.3652 112.376 20.1759C112.376 20.6659 112.051 21.0987 111.332 21.1997C111.556 21.2173 111.767 21.3059 111.937 21.4526C112.106 21.5993 112.224 21.7963 112.273 22.0148L112.576 22.9728H111.664L111.414 22.1445C111.275 21.6897 111.02 21.5073 110.642 21.5073H109.983V22.9662H109.072L109.061 19.0137ZM110.818 20.7449C111.326 20.7449 111.49 20.545 111.49 20.266C111.49 19.987 111.326 19.7826 110.818 19.7826H109.972V20.7449H110.818Z" fill="#0B1014"/>
<path d="M114.416 20.9893C114.416 19.7985 115.093 18.957 116.336 18.957C117.58 18.957 118.239 19.7985 118.239 20.9893C118.239 22.1801 117.58 23.0304 116.336 23.0304C115.093 23.0304 114.416 22.2087 114.416 20.9893ZM117.303 20.9893C117.303 20.2819 116.98 19.7634 116.336 19.7634C115.693 19.7634 115.35 20.2819 115.35 20.9893C115.35 21.6968 115.686 22.2372 116.336 22.2372C116.987 22.2372 117.303 21.7187 117.303 20.9849V20.9893Z" fill="#0B1014"/>
<path d="M46.165 39H44.61V31.625H47.135C47.6983 31.625 48.18 31.735 48.58 31.955C48.9833 32.1717 49.29 32.4667 49.5 32.84C49.7133 33.21 49.82 33.6283 49.82 34.095C49.82 34.5583 49.7117 34.9833 49.495 35.37C49.2817 35.7533 48.975 36.0617 48.575 36.295C48.175 36.525 47.695 36.64 47.135 36.64H46.165V39ZM46.165 36.16L45.465 35.44H46.97C47.23 35.44 47.4567 35.3883 47.65 35.285C47.8433 35.1783 47.9933 35.025 48.1 34.825C48.2067 34.6217 48.26 34.3783 48.26 34.095C48.26 33.8083 48.2067 33.5717 48.1 33.385C47.9967 33.195 47.8483 33.055 47.655 32.965C47.465 32.8717 47.2367 32.825 46.97 32.825H45.465L46.165 32.085V36.16ZM56.1616 39.12C55.7016 39.12 55.2716 39.0367 54.8716 38.87C54.4716 38.7033 54.12 38.4583 53.8166 38.135C53.5133 37.8117 53.275 37.4133 53.1016 36.94C52.9283 36.4633 52.8416 35.9183 52.8416 35.305C52.8416 34.6883 52.9266 34.145 53.0966 33.675C53.27 33.2017 53.5083 32.805 53.8116 32.485C54.115 32.165 54.4666 31.9233 54.8666 31.76C55.2666 31.5967 55.6983 31.515 56.1616 31.515C56.6216 31.515 57.0516 31.5967 57.4516 31.76C57.855 31.9233 58.2083 32.165 58.5116 32.485C58.815 32.805 59.0516 33.2017 59.2216 33.675C59.3916 34.145 59.4766 34.6883 59.4766 35.305C59.4766 35.9183 59.39 36.4633 59.2166 36.94C59.0466 37.4133 58.8083 37.8117 58.5016 38.135C58.1983 38.4583 57.845 38.7033 57.4416 38.87C57.0416 39.0367 56.615 39.12 56.1616 39.12ZM56.1616 37.875C56.4716 37.875 56.7583 37.79 57.0216 37.62C57.2883 37.45 57.5016 37.1767 57.6616 36.8C57.8216 36.42 57.9016 35.9217 57.9016 35.305C57.9016 34.685 57.82 34.1883 57.6566 33.815C57.4966 33.4417 57.285 33.1733 57.0216 33.01C56.7583 32.8433 56.4716 32.76 56.1616 32.76C55.8516 32.76 55.5633 32.8433 55.2966 33.01C55.0333 33.1733 54.8216 33.4417 54.6616 33.815C54.5016 34.1883 54.4216 34.685 54.4216 35.305C54.4216 35.925 54.5016 36.4233 54.6616 36.8C54.8216 37.1767 55.0333 37.45 55.2966 37.62C55.5633 37.79 55.8516 37.875 56.1616 37.875ZM62.7526 39V31.625H65.1376C65.6309 31.625 66.0792 31.715 66.4826 31.895C66.8892 32.0717 67.2376 32.3233 67.5276 32.65C67.8209 32.9733 68.0459 33.36 68.2026 33.81C68.3592 34.26 68.4376 34.7567 68.4376 35.3C68.4376 35.8433 68.3592 36.3417 68.2026 36.795C68.0459 37.2483 67.8209 37.64 67.5276 37.97C67.2376 38.2967 66.8892 38.55 66.4826 38.73C66.0792 38.91 65.6309 39 65.1376 39H62.7526ZM64.3126 38.54L63.6126 37.8H64.9376C65.2976 37.8 65.6226 37.7 65.9126 37.5C66.2059 37.2967 66.4376 37.0083 66.6076 36.635C66.7776 36.2583 66.8626 35.8133 66.8626 35.3C66.8626 34.7833 66.7776 34.3417 66.6076 33.975C66.4376 33.605 66.2059 33.3217 65.9126 33.125C65.6226 32.925 65.2976 32.825 64.9376 32.825H63.6126L64.3126 32.085V38.54ZM77.7466 36.305C77.7466 36.625 77.6849 36.95 77.5616 37.28C77.4416 37.61 77.2582 37.9133 77.0116 38.19C76.7682 38.4667 76.4582 38.6917 76.0816 38.865C75.7082 39.035 75.2649 39.12 74.7516 39.12C74.0682 39.12 73.4849 38.9583 73.0016 38.635C72.5182 38.3083 72.1482 37.8583 71.8916 37.285C71.6382 36.7117 71.5116 36.0533 71.5116 35.31C71.5116 34.5667 71.6382 33.91 71.8916 33.34C72.1482 32.77 72.5182 32.3233 73.0016 32C73.4849 31.6767 74.0682 31.515 74.7516 31.515C75.3216 31.515 75.8066 31.6183 76.2066 31.825C76.6099 32.0317 76.9316 32.3 77.1716 32.63C77.4149 32.96 77.5799 33.3083 77.6666 33.675C77.7199 33.8983 77.7466 34.1133 77.7466 34.32H76.1916C76.1916 34.22 76.1832 34.1233 76.1666 34.03C76.1332 33.7867 76.0566 33.57 75.9366 33.38C75.8166 33.19 75.6566 33.04 75.4566 32.93C75.2599 32.8167 75.0249 32.76 74.7516 32.76C74.4316 32.76 74.1466 32.8517 73.8966 33.035C73.6466 33.2183 73.4499 33.4983 73.3066 33.875C73.1632 34.2517 73.0916 34.73 73.0916 35.31C73.0916 35.8933 73.1632 36.375 73.3066 36.755C73.4499 37.1317 73.6466 37.4133 73.8966 37.6C74.1466 37.7833 74.4316 37.875 74.7516 37.875C74.9816 37.875 75.1849 37.8333 75.3616 37.75C75.5416 37.6667 75.6916 37.5517 75.8116 37.405C75.9349 37.2583 76.0282 37.09 76.0916 36.9C76.1582 36.71 76.1916 36.5117 76.1916 36.305H77.7466ZM80.3648 39L82.2048 31.615H84.6598L86.4898 39H84.8998L83.4298 32.56H83.4398L81.9548 39H80.3648ZM81.6848 37.29V36.08H85.1848V37.29H81.6848ZM92.1295 39.12C91.5962 39.12 91.1262 39.035 90.7195 38.865C90.3162 38.695 89.9995 38.4417 89.7695 38.105C89.5429 37.765 89.4295 37.3433 89.4295 36.84C89.4295 36.7867 89.4295 36.7383 89.4295 36.695C89.4295 36.6483 89.4295 36.5983 89.4295 36.545H90.9845C90.9845 36.595 90.9845 36.64 90.9845 36.68C90.9845 36.7167 90.9845 36.76 90.9845 36.81C90.9845 37.1533 91.0812 37.4167 91.2745 37.6C91.4679 37.7833 91.7545 37.875 92.1345 37.875C92.5179 37.875 92.8129 37.815 93.0195 37.695C93.2262 37.5717 93.3295 37.37 93.3295 37.09C93.3295 36.8933 93.2512 36.72 93.0945 36.57C92.9412 36.42 92.7312 36.2867 92.4645 36.17C92.2012 36.05 91.8995 35.9383 91.5595 35.835C91.1895 35.7183 90.8462 35.565 90.5295 35.375C90.2129 35.185 89.9579 34.9433 89.7645 34.65C89.5745 34.3567 89.4795 33.995 89.4795 33.565C89.4795 33.1317 89.5945 32.7633 89.8245 32.46C90.0545 32.1533 90.3679 31.92 90.7645 31.76C91.1612 31.5967 91.6095 31.515 92.1095 31.515C92.6329 31.515 93.0945 31.5967 93.4945 31.76C93.8979 31.92 94.2129 32.1617 94.4395 32.485C94.6695 32.805 94.7845 33.205 94.7845 33.685C94.7845 33.7383 94.7845 33.7883 94.7845 33.835C94.7845 33.8783 94.7845 33.9283 94.7845 33.985H93.2345C93.2345 33.9483 93.2345 33.91 93.2345 33.87C93.2345 33.83 93.2345 33.7917 93.2345 33.755C93.2345 33.4317 93.1445 33.1833 92.9645 33.01C92.7879 32.8367 92.5095 32.75 92.1295 32.75C91.7629 32.75 91.4779 32.8167 91.2745 32.95C91.0745 33.0833 90.9745 33.2883 90.9745 33.565C90.9745 33.765 91.0462 33.935 91.1895 34.075C91.3362 34.215 91.5362 34.34 91.7895 34.45C92.0429 34.56 92.3312 34.67 92.6545 34.78C93.0945 34.9333 93.4779 35.1033 93.8045 35.29C94.1345 35.4733 94.3895 35.705 94.5695 35.985C94.7495 36.2617 94.8395 36.615 94.8395 37.045C94.8395 37.485 94.7262 37.86 94.4995 38.17C94.2729 38.48 93.9545 38.7167 93.5445 38.88C93.1379 39.04 92.6662 39.12 92.1295 39.12ZM103.005 32.825H100.57L101.19 32.085V39H99.645V32.085L100.285 32.825H97.835V31.625H103.005V32.825Z" fill="#5A5E62"/>
</g>
<defs>
<clipPath id="clip0_1229_121375">
<rect width="260" height="54" rx="5" fill="white"/>
</clipPath>
</defs>
</svg>
