<svg width="80" height="80" viewBox="0 0 80 80" fill="none" xmlns="http://www.w3.org/2000/svg">
<path d="M80 70C80 75.5228 75.5228 80 70 80L10 80C4.47716 80 8.02927e-06 75.5228 8.52255e-06 70L1.38814e-05 10C1.43747e-05 4.47715 4.47716 1.16686e-06 10 1.63945e-06L70 6.77369e-06C75.5229 7.24628e-06 80 4.47716 80 10L80 70Z" fill="url(#paint0_radial_98_188)"/>
<path d="M49.3093 33.3252V32.3325C49.3093 32.2041 49.4133 32.1001 49.5416 32.1001C49.6699 32.1001 49.774 32.2042 49.774 32.3325V33.3252C49.774 33.4536 49.6699 33.5576 49.5416 33.5576C49.4133 33.5577 49.3093 33.4537 49.3093 33.3252ZM49.3093 37.6217C49.3093 37.7501 49.4133 37.8541 49.5416 37.8541C49.6699 37.8541 49.774 37.75 49.774 37.6217V34.4501C49.774 34.3217 49.6699 34.2177 49.5416 34.2177C49.4133 34.2177 49.3093 34.3218 49.3093 34.4501V37.6217ZM27.2362 21.832C27.2362 21.7037 27.1321 21.5996 27.0038 21.5996C25.1352 21.5996 23.6152 23.1198 23.6152 24.9882C23.6152 25.1166 23.7193 25.2206 23.8476 25.2206C23.976 25.2206 24.08 25.1165 24.08 24.9882C24.08 23.376 25.3915 22.0644 27.0038 22.0644C27.1322 22.0644 27.2362 21.9603 27.2362 21.832ZM28.2396 21.5996C28.1112 21.5996 28.0072 21.7037 28.0072 21.832C28.0072 21.9603 28.1113 22.0644 28.2396 22.0644H28.9906C29.119 22.0644 29.223 21.9603 29.223 21.832C29.223 21.7037 29.119 21.5996 28.9907 21.5996H28.2396ZM36.8965 35.9631C36.8131 36.1051 36.579 36.1051 36.4957 35.9631C34.7807 33.04 30.2717 34.2694 30.2717 37.6579C30.2717 42.0572 35.7721 46.1868 36.6961 46.8491C37.6202 46.1864 43.1168 42.0571 43.1168 37.6579C43.1168 34.2693 38.6107 33.0407 36.8965 35.9631ZM40.1157 50.6599C40.1157 54.0975 42.3151 57.033 45.379 58.1318H27.0031C25.9545 58.1318 25.103 57.2784 25.103 56.2299V24.9888C25.103 23.9402 25.9545 23.0868 27.0031 23.0868H46.3847C47.4333 23.0868 48.2867 23.9402 48.2867 24.9888V42.727C43.7224 42.6136 40.1157 46.2686 40.1157 50.6599ZM29.1207 28.6755C29.1895 28.629 30.7921 27.5265 30.7921 26.2474C30.7921 25.3141 29.6785 24.8269 28.9906 25.4554C28.3028 24.8269 27.1891 25.316 27.1891 26.2474C27.1891 27.5265 28.7917 28.629 28.8605 28.6755C28.8996 28.7015 28.9461 28.7145 28.9907 28.7145C29.0371 28.7146 29.0817 28.7015 29.1207 28.6755ZM43.5812 37.6571C43.5812 33.9833 38.8552 32.4496 36.6968 35.4224C34.5364 32.4477 29.8068 33.9833 29.8068 37.6571C29.8068 42.6841 36.2896 47.1387 36.5647 47.3264C36.6447 47.3785 36.7487 47.3785 36.8269 47.3264C37.1021 47.1387 43.5812 42.6842 43.5812 37.6571ZM56.2518 54.0612C56.1363 54.0056 55.9972 54.0537 55.9415 54.1695C55.7916 54.4804 55.6278 54.7765 55.4546 55.0494C55.3857 55.1578 55.4178 55.3014 55.5262 55.3702C55.6343 55.4387 55.7781 55.407 55.8469 55.2985C56.0297 55.0103 56.2024 54.6984 56.3601 54.3714C56.416 54.2558 56.3674 54.1169 56.2518 54.0612ZM54.8055 55.9526C54.1419 56.7624 53.3485 57.4399 52.4473 57.9666C52.3366 58.0315 52.2992 58.1736 52.364 58.2845C52.4293 58.3963 52.5723 58.4321 52.6819 58.3679C53.6308 57.8135 54.4663 57.1 55.165 56.2471C55.2463 56.148 55.2318 56.0014 55.1326 55.9201C55.0332 55.8389 54.887 55.8531 54.8055 55.9526ZM48.2849 45.1456C49.6323 45.2013 50.8564 45.7418 51.7868 46.5977L53.173 45.2116C51.8872 44.003 50.1746 43.2451 48.2848 43.1877L48.2849 45.1456ZM42.6055 45.5404C41.3971 46.8256 40.6393 48.5376 40.5815 50.4263H42.5394C42.5956 49.0797 43.1362 47.8565 43.9917 46.9265L42.6055 45.5404ZM53.5015 55.7792C54.7099 54.4936 55.4677 52.7811 55.5255 50.8912H53.5676C53.5115 52.2386 52.9709 53.4625 52.1152 54.3929L53.5015 55.7792ZM42.6056 55.779L43.9919 54.3927C43.1361 53.4623 42.5954 52.2383 42.5393 50.8911H40.5815C40.6393 52.7809 41.3971 54.4935 42.6056 55.779ZM42.9342 56.1077C44.2193 57.3157 45.9311 58.0735 47.82 58.1317V56.1738C46.4736 56.1173 45.2505 55.5767 44.3205 54.7213L42.9342 56.1077ZM47.8201 45.1457V43.1878C45.9311 43.2461 44.2193 44.0038 42.9342 45.2118L44.3204 46.598C45.2504 45.7426 46.4736 45.2022 47.8201 45.1457ZM51.7866 54.7215C50.8561 55.5775 49.6321 56.1181 48.2848 56.1739V58.1319C50.1744 58.0744 51.8871 57.3166 53.1729 56.1078L51.7866 54.7215ZM53.1093 50.6599C53.1093 53.4467 50.8411 55.7149 48.0542 55.7149C45.2656 55.7149 42.9973 53.4468 42.9973 50.6599C42.9973 47.8712 45.2655 45.6049 48.0542 45.6049C50.8411 45.6049 53.1093 47.8712 53.1093 50.6599ZM50.5641 50.5187L48.2383 47.4659C48.149 47.3506 47.9557 47.3506 47.8683 47.4659L45.5425 50.5187C45.4792 50.6023 45.4792 50.7176 45.5425 50.7994L47.8683 53.8539C47.9613 53.9766 48.1453 53.9748 48.2383 53.8539L50.5641 50.8013C50.6273 50.7175 50.6273 50.6023 50.5641 50.5187ZM53.4903 45.5515L52.1154 46.9263C52.9709 47.8563 53.5114 49.0796 53.5676 50.4263H55.5255C55.4676 48.5374 54.7097 46.8253 53.5014 45.54C53.4976 45.5438 53.4944 45.5481 53.4903 45.5515Z" fill="white"/>
<defs>
<radialGradient id="paint0_radial_98_188" cx="0" cy="0" r="1" gradientUnits="userSpaceOnUse" gradientTransform="translate(40 40) rotate(-90) scale(40)">
<stop stop-color="#772C8B"/>
<stop offset="1" stop-color="#482764"/>
</radialGradient>
</defs>
</svg>
