<svg width="48" height="48" viewBox="0 0 48 48" fill="none" xmlns="http://www.w3.org/2000/svg">
<g clip-path="url(#clip0_477_27073)">
<path d="M44 0H3.99999C1.79193 0.00260616 0.00260616 1.79193 0 3.99999V37.6C0.00260616 39.808 1.79193 41.5974 3.99999 41.6H15.9999V43.2H12.8C11.0327 43.2 9.6 44.6327 9.6 46.4C9.6 47.2836 10.3164 48 11.2 48H36.8C37.6836 48 38.4 47.2836 38.4 46.4C38.4 44.6327 36.9673 43.2 35.2 43.2H32V41.6H43.9999C46.208 41.5973 47.9973 39.808 47.9999 37.6V3.99999C47.9973 1.79193 46.208 0.00260616 44 0ZM3.99999 1.60003H43.9999C45.3254 1.60003 46.3999 2.67456 46.3999 3.99999V33.6H1.60003V3.99999C1.60003 2.67448 2.67448 1.60003 3.99999 1.60003ZM36.8 46.4H11.2C11.2 45.5163 11.9164 44.7999 12.8001 44.7999H35.2C36.0836 44.7999 36.8 45.5163 36.8 46.4ZM30.4 43.2H17.6V41.6H30.3999L30.4 43.2ZM44 39.9999H3.99999C2.67448 39.9999 1.60003 38.9254 1.60003 37.6V35.2H46.4V37.6C46.4001 38.9254 45.3254 39.9999 44 39.9999Z" fill="#0D4EE3"/>
<path fill-rule="evenodd" clip-rule="evenodd" d="M26.3988 36.7988H21.5988C21.157 36.7988 20.7988 37.157 20.7988 37.5988C20.7988 38.0407 21.157 38.3989 21.5988 38.3989H26.3988C26.8407 38.3989 27.1989 38.0407 27.1989 37.5988C27.1989 37.157 26.8407 36.7988 26.3988 36.7988Z" fill="#0D4EE3"/>
<path fill-rule="evenodd" clip-rule="evenodd" d="M3.99923 7.99846H43.9992C44.441 7.99846 44.7992 7.64031 44.7992 7.19845C44.7992 6.75659 44.441 6.39844 43.9992 6.39844H3.99923C3.55737 6.39844 3.19922 6.75659 3.19922 7.19845C3.19922 7.64031 3.55745 7.99846 3.99923 7.99846Z" fill="#0D4EE3"/>
<path d="M4.80001 4.79924C5.24185 4.79924 5.60003 4.44107 5.60003 3.99923C5.60003 3.5574 5.24185 3.19922 4.80001 3.19922C4.35818 3.19922 4 3.5574 4 3.99923C4 4.44107 4.35818 4.79924 4.80001 4.79924Z" fill="#0D4EE3"/>
<path d="M7.99923 4.79924C8.44107 4.79924 8.79925 4.44107 8.79925 3.99923C8.79925 3.5574 8.44107 3.19922 7.99923 3.19922C7.5574 3.19922 7.19922 3.5574 7.19922 3.99923C7.19922 4.44107 7.5574 4.79924 7.99923 4.79924Z" fill="#0D4EE3"/>
<path d="M11.1984 4.79924C11.6403 4.79924 11.9985 4.44107 11.9985 3.99923C11.9985 3.5574 11.6403 3.19922 11.1984 3.19922C10.7566 3.19922 10.3984 3.5574 10.3984 3.99923C10.3984 4.44107 10.7566 4.79924 11.1984 4.79924Z" fill="#0D4EE3"/>
<path d="M5.59918 27.1995H13.5992C14.1915 27.1975 14.7618 26.975 15.1992 26.5755C15.6365 26.975 16.2069 27.1975 16.7992 27.1995H20.7992V29.5995C20.7992 30.925 21.8737 31.9994 23.1992 31.9994H31.1991C31.7914 31.9974 32.3618 31.7749 32.7992 31.3754C33.2365 31.7749 33.8069 31.9974 34.3992 31.9994H42.3992C43.7247 31.9994 44.7992 30.9249 44.7992 29.5995V16.7995C44.7992 15.474 43.7247 14.3995 42.3992 14.3995H34.3991C33.8068 14.4016 33.2364 14.6241 32.7991 15.0235C32.3617 14.6241 31.7914 14.4016 31.1991 14.3995H27.1991V11.9996C27.1991 10.6741 26.1245 9.59961 24.7991 9.59961H16.7991C16.2068 9.60166 15.6365 9.82413 15.1991 10.2236C14.7617 9.82413 14.1914 9.60166 13.5991 9.59961H5.59918C4.27367 9.59961 3.19922 10.6741 3.19922 11.9996V24.7995C3.19914 26.125 4.27367 27.1995 5.59918 27.1995ZM34.3991 15.9995H42.3991C42.8409 15.9995 43.1991 16.3576 43.1991 16.7995V29.5995C43.1991 30.0413 42.8409 30.3995 42.3991 30.3995H34.3991C33.9572 30.3995 33.5991 30.0413 33.5991 29.5995V16.7995C33.5992 16.3577 33.9573 15.9995 34.3991 15.9995ZM31.1991 15.9995C31.641 15.9995 31.9991 16.3576 31.9991 16.7995V29.5995C31.9991 30.0413 31.641 30.3995 31.1991 30.3995H23.1992C22.7574 30.3995 22.3992 30.0413 22.3992 29.5995V27.1995H24.7992C25.1974 27.197 25.5884 27.0938 25.936 26.8995L26.576 27.6995C26.7276 27.8888 26.9568 27.9991 27.1992 27.9995C27.4422 27.9996 27.6721 27.8892 27.824 27.6995L31.024 23.6995C31.258 23.4072 31.258 22.9918 31.024 22.6995L27.824 18.6995C27.6691 18.5155 27.4397 18.4109 27.1992 18.4148V15.9996L31.1991 15.9995ZM27.1991 24.7995V20.4796L29.3751 23.1995L27.1991 25.9195L27.0215 25.6971C27.1382 25.4122 27.1984 25.1074 27.1991 24.7995ZM16.7991 11.1996H24.7991C25.241 11.1996 25.5991 11.5577 25.5991 11.9996V24.7995C25.5991 25.2414 25.241 25.5996 24.7991 25.5996H16.7991C16.3573 25.5996 15.9991 25.2414 15.9991 24.7995V11.9995C15.9991 11.5577 16.3573 11.1996 16.7991 11.1996ZM4.79917 11.9995C4.79917 11.5576 5.15732 11.1995 5.59918 11.1995H13.5992C14.041 11.1995 14.3992 11.5576 14.3992 11.9995V24.7995C14.3992 25.2413 14.041 25.5995 13.5992 25.5995H5.59918C5.15732 25.5995 4.79917 25.2413 4.79917 24.7995V11.9995Z" fill="#0D4EE3"/>
<path d="M9.2324 21.5108C9.46317 21.6304 9.7376 21.6304 9.96837 21.5108C13.1284 19.8756 13.6003 18.0244 13.6003 17.0668C13.6413 16.3936 13.4102 15.7321 12.9591 15.2307C12.5078 14.7294 11.8742 14.4302 11.2004 14.4004C10.6254 14.4013 10.0654 14.5839 9.60034 14.922C9.13526 14.5839 8.57533 14.4014 8.00032 14.4004C7.32651 14.4302 6.69289 14.7294 6.24163 15.2307C5.79037 15.7321 5.55937 16.3936 5.60036 17.0668C5.60044 18.0244 6.07239 19.8755 9.2324 21.5108ZM8.0004 16.0003C8.36858 16.0074 8.71275 16.1847 8.93238 16.4803C9.08014 16.6995 9.32654 16.8315 9.59079 16.8331H9.60042C9.86594 16.8312 10.1138 16.6998 10.2644 16.4811C10.4848 16.1841 10.8307 16.0064 11.2004 16.0003C11.7196 16.0003 12.0005 16.5499 12.0005 17.0667C12.0005 18.0051 11.1317 19.0211 9.6005 19.8907C8.06934 19.0211 7.20054 18.0051 7.20054 17.0667C7.20038 16.55 7.48122 16.0003 8.0004 16.0003Z" fill="#0D4EE3"/>
<path d="M36.3844 25.565L36.2724 26.0138C36.1533 26.4918 36.2608 26.998 36.5642 27.3861C36.8675 27.7743 37.3327 28.0011 37.8252 28.001H38.9757C39.4681 28.0008 39.9331 27.7739 40.2362 27.3858C40.5393 26.9977 40.6468 26.4916 40.5276 26.0138L40.4164 25.565C41.5639 25.3631 42.4005 24.3661 42.4004 23.201C42.4135 22.1931 41.7744 21.2921 40.8188 20.9714C40.8044 20.9392 40.798 20.9041 40.8004 20.8689C40.8156 20.2189 40.5692 19.5899 40.1164 19.1233C39.1633 18.1933 37.6422 18.1933 36.6892 19.1233C36.2371 19.5862 35.9891 20.2108 36.0004 20.8577C36.0004 20.9057 35.9916 20.9425 36.0116 20.9425C35.0447 21.2704 34.3958 22.18 34.4004 23.2009C34.4003 24.3661 35.237 25.363 36.3844 25.565ZM36.53 22.4562C37.2099 22.2078 37.6455 21.5418 37.6005 20.8193C37.5971 20.6021 37.681 20.3926 37.8333 20.2378C37.9829 20.086 38.187 20.0007 38.4001 20.0007C38.6132 20.0007 38.8173 20.086 38.9669 20.2378C39.1199 20.3937 39.2036 20.6049 39.1989 20.8234C39.1514 21.5442 39.5866 22.2094 40.2661 22.4546C40.5871 22.5613 40.8029 22.8626 40.8005 23.201C40.7929 23.4677 40.6552 23.7138 40.4319 23.86C40.2087 24.0062 39.9281 24.0341 39.6805 23.9346C39.4012 23.8178 39.0801 23.8686 38.8505 24.0658C38.6209 24.263 38.5223 24.5729 38.5957 24.8665L38.9757 26.4009H37.8245L38.2085 24.8665C38.2826 24.5721 38.1838 24.261 37.9532 24.0635C37.7226 23.866 37.4 23.816 37.1205 23.9346C36.8729 24.0341 36.5923 24.0063 36.369 23.86C36.1458 23.7138 36.0082 23.4677 36.0004 23.201C35.9981 22.8645 36.2115 22.5644 36.53 22.4562Z" fill="#0D4EE3"/>
<path d="M18.6988 21.1066L18.6732 21.2114C18.5535 21.6892 18.6606 22.1955 18.9634 22.5839C19.2662 22.9724 19.7311 23.1997 20.2236 23.2003H21.3764C21.8683 23.1999 22.3328 22.9734 22.6358 22.5858C22.9388 22.1983 23.0467 21.693 22.9284 21.2155L22.9012 21.1066C23.2949 21.0369 23.661 20.8575 23.9572 20.589C24.5327 20.0876 24.8437 19.348 24.7996 18.5859C24.6772 16.3194 21.6252 14.0115 21.2796 13.7554C20.9975 13.5477 20.613 13.5477 20.3308 13.7554C19.9837 14.0115 16.9308 16.3194 16.8109 18.5859C16.7664 19.3462 17.0759 20.0845 17.6492 20.5859C17.943 20.8548 18.3069 21.0353 18.6988 21.1066ZM20.7995 15.4194C21.7019 16.1794 23.1419 17.6051 23.1995 18.6722C23.2196 18.9558 23.1002 19.2314 22.8795 19.4107C22.6213 19.5671 22.3089 19.6072 22.0195 19.5211C21.7536 19.4794 21.4843 19.5712 21.2995 19.7667C21.1161 19.9646 21.0448 20.2416 21.1098 20.5035L21.3762 21.6003H20.2242L20.4962 20.5043C20.5555 20.2654 20.5016 20.0124 20.3499 19.8185C20.1982 19.6246 19.9657 19.5114 19.7194 19.5114C19.6744 19.5118 19.6295 19.5152 19.585 19.5219C19.2951 19.6068 18.9827 19.5662 18.7242 19.4099C18.504 19.2306 18.3847 18.9555 18.4042 18.6722C18.4532 17.6859 19.75 16.2938 20.7995 15.4194Z" fill="#0D4EE3"/>
</g>
<defs>
<clipPath id="clip0_477_27073">
<rect width="48" height="48" fill="white"/>
</clipPath>
</defs>
</svg>
