<svg width="54" height="54" viewBox="0 0 54 54" fill="none" xmlns="http://www.w3.org/2000/svg">
<path d="M25.6287 44.5308H3.73361C2.32254 44.5308 1.17578 43.3749 1.17578 41.9526V7.95513C1.17578 6.53284 2.32254 5.37695 3.73361 5.37695H25.6287C27.0397 5.37695 28.1865 6.53284 28.1865 7.95513V41.9526C28.1865 43.3749 27.0397 44.5308 25.6287 44.5308Z" stroke="#000066" stroke-width="1.76087" stroke-miterlimit="10" stroke-linecap="round" stroke-linejoin="round"/>
<path d="M17.7439 28.7356C18.9333 29.0149 20.1908 28.4047 20.7877 27.3434C21.7682 25.6074 20.5447 24.0691 19.2146 22.8187C17.5051 21.2116 15.4163 19.6733 14.6787 17.4775C13.9412 19.6776 11.8523 21.2116 10.1429 22.8187C8.81278 24.0691 7.58928 25.6074 8.56978 27.3434C9.26892 28.5809 10.8974 29.1782 12.2019 28.568" stroke="#000066" stroke-width="1.76087" stroke-miterlimit="10" stroke-linecap="round" stroke-linejoin="round"/>
<path d="M15.1354 32.4349H10.3906C13.8224 31.3821 14.6622 28.6664 14.7091 27.8457C14.756 28.6235 15.5276 31.3434 19.002 32.4349" stroke="#000066" stroke-width="1.76087" stroke-miterlimit="10" stroke-linecap="round" stroke-linejoin="round"/>
<path d="M6.25704 10.2869L6.77002 10.6572C6.86045 10.7225 6.94817 10.7916 7.02006 10.8483C7.02518 10.8523 7.03022 10.8563 7.03518 10.8602C7.11538 10.9233 7.17898 10.9729 7.24085 11.0169C7.35707 11.0994 7.42322 11.1291 7.46291 11.1403C7.46508 11.1397 7.46832 11.1386 7.47268 11.1365C7.48061 11.1328 7.48934 11.1272 7.4974 11.1198C7.50452 11.1133 7.50966 11.1067 7.51312 11.1011C7.51167 11.0975 7.50986 11.0933 7.50763 11.0885C7.49046 11.0513 7.45586 10.9945 7.39184 10.9171C7.32851 10.8405 7.24862 10.7582 7.1522 10.6676L7.15215 10.6676C7.08011 10.5998 6.99021 10.519 6.89175 10.4304C6.68528 10.2447 6.44119 10.0252 6.24532 9.82187C6.04681 10.0284 5.80172 10.2491 5.59492 10.4353C5.49889 10.5218 5.41111 10.6009 5.34009 10.6676L6.25704 10.2869ZM6.25704 10.2869L5.74245 10.655M6.25704 10.2869L5.74245 10.655M5.74245 10.655C5.66606 10.7096 5.54973 10.7985 5.45537 10.8706C5.4015 10.9118 5.35479 10.9475 5.32677 10.9682C5.207 11.0568 5.1227 11.1104 5.05684 11.142L5.74245 10.655ZM7.4596 11.141C7.4596 11.1409 7.45989 11.1409 7.46046 11.1409L7.4596 11.141ZM4.97352 11.1177C4.97394 11.1159 4.97539 11.1105 4.97919 11.1011L4.9741 11.1035C4.97415 11.1046 4.97418 11.1058 4.97418 11.107C4.97422 11.1126 4.97376 11.1162 4.97352 11.1177Z" fill="#000066" stroke="#000066" stroke-width="1.76087"/>
<mask id="path-5-inside-1_461_4389" fill="white">
<path d="M7.68738 13.03H4.81836C5.96086 12.7249 6.24222 11.9386 6.25501 11.7023C6.27206 11.9257 6.52783 12.7164 7.68738 13.03Z"/>
</mask>
<path d="M7.68738 13.03H4.81836C5.96086 12.7249 6.24222 11.9386 6.25501 11.7023C6.27206 11.9257 6.52783 12.7164 7.68738 13.03Z" fill="#000066"/>
<path d="M7.68738 13.03V14.7909L8.1472 11.3303L7.68738 13.03ZM4.81836 13.03L4.36407 11.3288L4.81836 14.7909V13.03ZM6.25501 11.7023L8.01077 11.5683L4.49671 11.6071L6.25501 11.7023ZM7.68738 11.2692H4.81836V14.7909H7.68738V11.2692ZM5.27265 14.7313C7.1504 14.2299 7.95925 12.7962 8.0133 11.7974L4.49671 11.6071C4.50248 11.5005 4.5187 11.4256 4.5279 11.3887C4.53852 11.3461 4.5495 11.3156 4.55769 11.2958C4.57411 11.2559 4.58839 11.2365 4.59378 11.2299C4.60088 11.2211 4.59715 11.229 4.57113 11.2457C4.54527 11.2623 4.48275 11.2971 4.36407 11.3288L5.27265 14.7313ZM4.49924 11.8363C4.56894 12.7496 5.29724 14.2076 7.22757 14.7298L8.1472 11.3303C8.02373 11.2969 7.96062 11.261 7.9363 11.2452C7.91208 11.2294 7.91077 11.2235 7.91985 11.2349C7.9273 11.2443 7.94123 11.2646 7.95625 11.3019C7.96372 11.3204 7.97312 11.3472 7.98231 11.384C7.99033 11.4162 8.00393 11.4787 8.01077 11.5683L4.49924 11.8363Z" fill="#000066" mask="url(#path-5-inside-1_461_4389)"/>
<path d="M23.1107 39.2389L23.6196 39.6063C23.71 39.6716 23.7978 39.7407 23.8697 39.7974C23.8748 39.8014 23.8798 39.8054 23.8848 39.8093C23.965 39.8724 24.0286 39.922 24.0904 39.966C24.2067 40.0485 24.2728 40.0782 24.3125 40.0894C24.3147 40.0888 24.3179 40.0877 24.3223 40.0856C24.3302 40.0819 24.3389 40.0763 24.347 40.0689C24.3541 40.0624 24.3593 40.0558 24.3627 40.0502C24.3613 40.0466 24.3595 40.0424 24.3572 40.0376C24.3401 40.0004 24.3055 39.9436 24.2414 39.8662C24.1781 39.7896 24.0982 39.7073 24.0018 39.6167L24.0018 39.6167C23.9297 39.5489 23.8398 39.4681 23.7414 39.3795C23.5349 39.1938 23.2908 38.9742 23.0949 38.771C22.8964 38.9775 22.6513 39.1982 22.4445 39.3844C22.3485 39.4709 22.2607 39.55 22.1897 39.6167L23.1107 39.2389ZM23.1107 39.2389L22.5975 39.6002M23.1107 39.2389L22.5975 39.6002M22.5975 39.6002C22.5049 39.6654 22.3862 39.7562 22.291 39.829C22.2442 39.8649 22.203 39.8963 22.1734 39.9183C22.0533 40.0075 21.9708 40.0601 21.9064 40.0911L22.5975 39.6002ZM24.3092 40.0901C24.3092 40.09 24.3095 40.09 24.31 40.09L24.3092 40.0901Z" fill="#000066" stroke="#000066" stroke-width="1.76087"/>
<mask id="path-8-inside-2_461_4389" fill="white">
<path d="M24.537 41.983H21.668C22.8105 41.6779 23.0918 40.8916 23.1046 40.6553C23.1217 40.8787 23.3774 41.6651 24.537 41.983Z"/>
</mask>
<path d="M24.537 41.983H21.668C22.8105 41.6779 23.0918 40.8916 23.1046 40.6553C23.1217 40.8787 23.3774 41.6651 24.537 41.983Z" fill="#000066"/>
<path d="M24.537 41.983V43.7439L25.0027 40.2849L24.537 41.983ZM21.668 41.983L21.2137 40.2818L21.668 43.7439V41.983ZM23.1046 40.6553L24.8604 40.5213L21.3463 40.5601L23.1046 40.6553ZM24.537 40.2222H21.668V43.7439H24.537V40.2222ZM22.1223 43.6843C24 43.1829 24.8089 41.7492 24.8629 40.7504L21.3463 40.5601C21.3521 40.4535 21.3683 40.3786 21.3775 40.3417C21.3881 40.2991 21.3991 40.2686 21.4073 40.2488C21.4237 40.2089 21.438 40.1895 21.4434 40.1829C21.4505 40.1741 21.4468 40.182 21.4207 40.1987C21.3949 40.2153 21.3324 40.2501 21.2137 40.2818L22.1223 43.6843ZM21.3489 40.7893C21.419 41.7084 22.1513 43.1547 24.0713 43.6812L25.0027 40.2849C24.8775 40.2505 24.8127 40.2138 24.787 40.1971C24.7615 40.1804 24.7595 40.1738 24.7684 40.1849C24.7757 40.1941 24.7898 40.2146 24.8052 40.2526C24.8128 40.2714 24.8223 40.2986 24.8317 40.3358C24.8398 40.3685 24.8535 40.4314 24.8604 40.5213L21.3489 40.7893Z" fill="#000066" mask="url(#path-8-inside-2_461_4389)"/>
<path d="M30.6001 9.41439L31.4102 8.10056C32.0575 7.04865 33.4272 6.72759 34.4712 7.38239L51.7805 18.2986C52.8204 18.9534 53.1378 20.339 52.4905 21.3951L35.9453 48.2462C35.298 49.2982 33.9283 49.6192 32.8843 48.9644L28.1738 45.9946" stroke="#CB0101" stroke-width="1.76087" stroke-miterlimit="10" stroke-linecap="round" stroke-linejoin="round"/>
<path d="M30.5215 34.0439L38.7389 31.1591L37.8937 21.1309L36.3595 21.6763" stroke="#CB0101" stroke-width="1.76087" stroke-miterlimit="10" stroke-linecap="round" stroke-linejoin="round"/>
<path d="M35.2171 22.3047L30.5215 23.4786" stroke="#CB0101" stroke-width="1.76087" stroke-miterlimit="10" stroke-linecap="round" stroke-linejoin="round"/>
<path d="M32.7138 12.9439L32.6387 12.1197L34.1752 11.6919L34.2622 12.4945L32.7138 12.9439Z" fill="#000066" stroke="#CB0101" stroke-width="1.76087"/>
<path d="M33.8289 44.4745L33.785 43.7334L34.2412 43.5435L34.2939 44.2731L33.8289 44.4745Z" fill="#000066" stroke="#CB0101" stroke-width="1.76087"/>
</svg>
