<svg width="27" height="27" viewBox="0 0 27 27" fill="none" xmlns="http://www.w3.org/2000/svg">
<g clip-path="url(#clip0_387_24982)">
<path d="M24.75 0H2.24999C1.00796 0.00146597 0.00146597 1.00796 0 2.24999V21.15C0.00146597 22.392 1.00796 23.3985 2.24999 23.4H8.99997V24.3H7.19999C6.20588 24.3 5.4 25.1059 5.4 26.1C5.4 26.597 5.80296 27 6.30001 27H20.7C21.197 27 21.6 26.597 21.6 26.1C21.6 25.1059 20.7941 24.3 19.8 24.3H18V23.4H24.75C25.992 23.3985 26.9985 22.392 27 21.15V2.24999C26.9985 1.00796 25.992 0.00146597 24.75 0ZM2.24999 0.900015H24.75C25.4956 0.900015 26.0999 1.50444 26.0999 2.24999V18.9H0.900015V2.24999C0.900015 1.50439 1.50439 0.900015 2.24999 0.900015ZM20.7 26.1H6.30001C6.30001 25.6029 6.70298 25.2 7.20003 25.2H19.8C20.297 25.2 20.7 25.6029 20.7 26.1ZM17.1 24.3H9.89999V23.4H17.1L17.1 24.3ZM24.75 22.5H2.24999C1.50439 22.5 0.900015 21.8955 0.900015 21.15V19.8H26.1V21.15C26.1 21.8955 25.4956 22.5 24.75 22.5Z" fill="#000C28"/>
<path fill-rule="evenodd" clip-rule="evenodd" d="M14.8512 20.7012H12.1512C11.9026 20.7012 11.7012 20.9026 11.7012 21.1512C11.7012 21.3997 11.9026 21.6012 12.1512 21.6012H14.8512C15.0997 21.6012 15.3012 21.3997 15.3012 21.1512C15.3012 20.9026 15.0997 20.7012 14.8512 20.7012Z" fill="#000C28"/>
<path fill-rule="evenodd" clip-rule="evenodd" d="M2.25079 4.50158H24.7508C24.9993 4.50158 25.2008 4.30012 25.2008 4.05157C25.2008 3.80302 24.9993 3.60156 24.7508 3.60156H2.25079C2.00224 3.60156 1.80078 3.80302 1.80078 4.05157C1.80078 4.30012 2.00228 4.50158 2.25079 4.50158Z" fill="#000C28"/>
<path d="M2.70098 2.7008C2.94952 2.7008 3.15099 2.49932 3.15099 2.25079C3.15099 2.00226 2.94952 1.80078 2.70098 1.80078C2.45245 1.80078 2.25098 2.00226 2.25098 2.25079C2.25098 2.49932 2.45245 2.7008 2.70098 2.7008Z" fill="#000C28"/>
<path d="M4.50079 2.7008C4.74932 2.7008 4.9508 2.49932 4.9508 2.25079C4.9508 2.00226 4.74932 1.80078 4.50079 1.80078C4.25226 1.80078 4.05078 2.00226 4.05078 2.25079C4.05078 2.49932 4.25226 2.7008 4.50079 2.7008Z" fill="#000C28"/>
<path d="M6.30059 2.7008C6.54913 2.7008 6.7506 2.49932 6.7506 2.25079C6.7506 2.00226 6.54913 1.80078 6.30059 1.80078C6.05206 1.80078 5.85059 2.00226 5.85059 2.25079C5.85059 2.49932 6.05206 2.7008 6.30059 2.7008Z" fill="#000C28"/>
<path d="M3.15076 15.3003H7.65074C7.98392 15.2992 8.30474 15.174 8.55076 14.9493C8.79677 15.174 9.1176 15.2992 9.45077 15.3003H11.7008V16.6503C11.7008 17.3959 12.3052 18.0003 13.0507 18.0003H17.5507C17.8839 17.9991 18.2047 17.874 18.4507 17.6493C18.6968 17.874 19.0176 17.9991 19.3508 18.0003H23.8507C24.5963 18.0003 25.2008 17.3959 25.2008 16.6503V9.45032C25.2008 8.70472 24.5963 8.10035 23.8507 8.10035H19.3507C19.0175 8.1015 18.6967 8.22664 18.4507 8.45133C18.2047 8.22664 17.8839 8.1015 17.5507 8.10035H15.3007V6.75037C15.3007 6.00477 14.6963 5.40039 13.9507 5.40039H9.45073C9.11755 5.40155 8.79673 5.52669 8.55071 5.75138C8.3047 5.52669 7.98387 5.40155 7.6507 5.40039H3.15076C2.40516 5.40039 1.80078 6.00481 1.80078 6.75037V13.9504C1.80074 14.6959 2.40516 15.3003 3.15076 15.3003ZM19.3507 9.00032H23.8507C24.0992 9.00032 24.3007 9.20178 24.3007 9.45032V16.6503C24.3007 16.8989 24.0992 17.1003 23.8507 17.1003H19.3507C19.1022 17.1003 18.9007 16.8989 18.9007 16.6503V9.45032C18.9008 9.20182 19.1022 9.00032 19.3507 9.00032ZM17.5507 9.00032C17.7993 9.00032 18.0007 9.20178 18.0007 9.45032V16.6503C18.0007 16.8989 17.7993 17.1003 17.5507 17.1003H13.0508C12.8022 17.1003 12.6008 16.8989 12.6008 16.6503V15.3003H13.9508C14.1747 15.2989 14.3947 15.2408 14.5902 15.1316L14.9502 15.5816C15.0355 15.6881 15.1644 15.7501 15.3008 15.7503C15.4375 15.7504 15.5668 15.6883 15.6522 15.5816L17.4522 13.3316C17.5838 13.1672 17.5838 12.9335 17.4522 12.7691L15.6522 10.5191C15.5651 10.4156 15.4361 10.3567 15.3008 10.3589V9.00036L17.5507 9.00032ZM15.3007 13.9504V11.5204L16.5247 13.0503L15.3007 14.5803L15.2008 14.4552C15.2664 14.2949 15.3003 14.1235 15.3007 13.9504ZM9.45073 6.30036H13.9507C14.1993 6.30036 14.4007 6.50182 14.4007 6.75037V13.9504C14.4007 14.1989 14.1993 14.4004 13.9507 14.4004H9.45073C9.20218 14.4004 9.00072 14.1989 9.00072 13.9504V6.75032C9.00072 6.50182 9.20223 6.30036 9.45073 6.30036ZM2.70075 6.75032C2.70075 6.50178 2.90221 6.30032 3.15076 6.30032H7.65074C7.89929 6.30032 8.10075 6.50178 8.10075 6.75032V13.9503C8.10075 14.1989 7.89929 14.4003 7.65074 14.4003H3.15076C2.90221 14.4003 2.70075 14.1989 2.70075 13.9503V6.75032Z" fill="#000C28"/>
<path d="M5.1931 12.0992C5.32291 12.1665 5.47728 12.1665 5.60708 12.0992C7.38459 11.1794 7.65006 10.1381 7.65006 9.59947C7.67312 9.22076 7.54314 8.84867 7.28935 8.56667C7.03551 8.28468 6.67911 8.1164 6.30009 8.09961C5.97669 8.10014 5.66168 8.20285 5.40007 8.39302C5.13846 8.20285 4.8235 8.10019 4.50006 8.09961C4.12104 8.1164 3.76463 8.28468 3.5108 8.56667C3.25696 8.84867 3.12702 9.22076 3.15008 9.59947C3.15012 10.1381 3.4156 11.1794 5.1931 12.0992ZM4.5001 8.99958C4.7072 9.00358 4.9008 9.10326 5.02434 9.26958C5.10746 9.39286 5.24606 9.46713 5.3947 9.46802H5.40012C5.54947 9.46691 5.68887 9.39304 5.77363 9.27003C5.89757 9.10295 6.09214 9.003 6.30013 8.99958C6.59217 8.99958 6.75014 9.30872 6.75014 9.59943C6.75014 10.1273 6.26144 10.6988 5.40016 11.1879C4.53888 10.6988 4.05018 10.1273 4.05018 9.59943C4.05009 9.30877 4.20806 8.99958 4.5001 8.99958Z" fill="#000C28"/>
<path d="M20.4666 14.3791L20.4036 14.6315C20.3366 14.9004 20.3971 15.1851 20.5677 15.4035C20.7383 15.6218 21 15.7494 21.2771 15.7493H21.9242C22.2012 15.7492 22.4627 15.6216 22.6332 15.4033C22.8037 15.185 22.8642 14.9003 22.7971 14.6315L22.7346 14.3791C23.3801 14.2655 23.8507 13.7047 23.8506 13.0493C23.858 12.4824 23.4984 11.9756 22.9609 11.7952C22.9528 11.7771 22.9492 11.7573 22.9506 11.7375C22.9591 11.3719 22.8205 11.0181 22.5658 10.7557C22.0297 10.2325 21.1741 10.2325 20.638 10.7557C20.3838 11.016 20.2442 11.3674 20.2506 11.7312C20.2506 11.7582 20.2456 11.779 20.2569 11.779C19.713 11.9634 19.348 12.475 19.3506 13.0493C19.3505 13.7047 19.8212 14.2655 20.4666 14.3791ZM20.5485 12.6304C20.931 12.4907 21.1759 12.116 21.1506 11.7096C21.1488 11.5875 21.1959 11.4696 21.2816 11.3825C21.3657 11.2972 21.4806 11.2492 21.6004 11.2492C21.7203 11.2492 21.8351 11.2972 21.9192 11.3825C22.0053 11.4703 22.0524 11.589 22.0498 11.7119C22.023 12.1174 22.2678 12.4915 22.65 12.6295C22.8306 12.6895 22.952 12.859 22.9507 13.0493C22.9463 13.1994 22.8689 13.3378 22.7433 13.42C22.6177 13.5023 22.4599 13.5179 22.3206 13.462C22.1636 13.3963 21.9829 13.4249 21.8538 13.5358C21.7246 13.6467 21.6692 13.821 21.7105 13.9862L21.9242 14.8493H21.2767L21.4926 13.9862C21.5344 13.8206 21.4787 13.6456 21.349 13.5345C21.2193 13.4234 21.0379 13.3953 20.8806 13.462C20.7414 13.5179 20.5835 13.5023 20.4579 13.42C20.3324 13.3378 20.255 13.1993 20.2506 13.0493C20.2493 12.8601 20.3693 12.6913 20.5485 12.6304Z" fill="#000C28"/>
<path d="M10.5185 11.8731L10.5041 11.932C10.4367 12.2008 10.497 12.4856 10.6673 12.7041C10.8376 12.9226 11.0991 13.0504 11.3761 13.0508H12.0246C12.3013 13.0506 12.5625 12.9231 12.733 12.7051C12.9034 12.4872 12.9641 12.2029 12.8976 11.9343L12.8823 11.8731C13.1038 11.8339 13.3097 11.7329 13.4763 11.5819C13.8 11.2999 13.9749 10.8838 13.9501 10.4552C13.8813 9.18029 12.1646 7.88207 11.9702 7.73805C11.8114 7.62117 11.5952 7.62117 11.4365 7.73805C11.2412 7.88207 9.52395 9.18029 9.45647 10.4552C9.43146 10.8829 9.60555 11.2981 9.92807 11.5802C10.0933 11.7314 10.298 11.833 10.5185 11.8731ZM11.7001 8.67405C12.2077 9.10153 13.0177 9.90346 13.0501 10.5038C13.0614 10.6633 12.9942 10.8183 12.8701 10.9191C12.7248 11.0071 12.5491 11.0297 12.3863 10.9812C12.2368 10.9578 12.0853 11.0094 11.9813 11.1194C11.8782 11.2307 11.838 11.3865 11.8746 11.5338L12.0245 12.1508H11.3765L11.5295 11.5343C11.5628 11.3999 11.5325 11.2576 11.4472 11.1485C11.3618 11.0395 11.231 10.9757 11.0925 10.9758C11.0672 10.976 11.042 10.9779 11.0169 10.9817C10.8538 11.0294 10.6782 11.0066 10.5327 10.9187C10.4089 10.8178 10.3417 10.6631 10.3527 10.5038C10.3803 9.9489 11.1097 9.1659 11.7001 8.67405Z" fill="#000C28"/>
</g>
<defs>
<clipPath id="clip0_387_24982">
<rect width="27" height="27" fill="white"/>
</clipPath>
</defs>
</svg>
