<svg width="49" height="40" viewBox="0 0 49 40" fill="none" xmlns="http://www.w3.org/2000/svg">
<g clip-path="url(#clip0)">
<path d="M25.143 39.4284C24.1716 39.4284 23.4287 38.6856 23.4287 37.7141V2.28557C23.4287 1.31415 24.1716 0.571289 25.143 0.571289H46.4573C47.4287 0.571289 48.1716 1.31415 48.1716 2.28557V37.7141C48.1716 38.6856 47.4287 39.4284 46.4573 39.4284H25.143Z" fill="white"/>
<path d="M46.4574 1.14286C47.086 1.14286 47.6003 1.65714 47.6003 2.28571V37.7143C47.6003 38.3429 47.086 38.8571 46.4574 38.8571H25.1431C24.5146 38.8571 24.0003 38.3429 24.0003 37.7143V2.28571C24.0003 1.65714 24.5146 1.14286 25.1431 1.14286H46.4574ZM46.4574 0H25.1431C23.886 0 22.8574 1.02857 22.8574 2.28571V37.7143C22.8574 38.9714 23.886 40 25.1431 40H46.4574C47.7146 40 48.7431 38.9714 48.7431 37.7143V2.28571C48.7431 1.02857 47.7146 0 46.4574 0Z" fill="#0A4586"/>
<path d="M44.8568 33.4286L44.6854 32.5714H43.9997L43.8282 33.4286H43.3711L43.9997 30H44.6282L45.2568 33.4286H44.8568ZM44.6282 32L44.514 31.2C44.514 31.1429 44.514 31.0286 44.4568 30.8571C44.3997 30.6857 44.3997 30.5143 44.3997 30.4571C44.3997 30.5714 44.3425 30.7429 44.3425 30.9143C44.3425 31.0857 44.2854 31.4286 44.1711 32H44.6282Z" fill="#0A4586"/>
<path d="M27.7142 6.57164L27.5428 5.7145H26.8571L26.6857 6.57164H26.2285L26.8571 3.14307H27.4857L28.1142 6.57164H27.7142ZM27.4857 5.14307L27.3714 4.34307C27.3714 4.28592 27.3714 4.17164 27.3142 4.00021C27.2571 3.82878 27.2571 3.65735 27.2571 3.60021C27.2571 3.7145 27.1999 3.88592 27.1999 4.05735C27.1999 4.22878 27.1428 4.57164 27.0285 5.14307H27.4857Z" fill="#0A4586"/>
<path d="M27.2572 7.54297C27.2 7.54297 27.2 7.54297 27.1429 7.54297C26.9143 7.7144 25.8857 8.34297 25.8857 9.14297C25.8857 9.54297 26.2286 9.88583 26.6286 9.88583C26.7429 9.88583 26.8572 9.82868 26.9715 9.77154C27.0286 9.77154 27.0286 9.77154 27.0286 9.82868C26.9715 10.0001 26.9143 10.1144 26.8 10.2858C26.7429 10.343 26.8 10.4001 26.8572 10.4001H27.6C27.6572 10.4001 27.7143 10.343 27.6572 10.2858C27.5429 10.1715 27.4857 10.0001 27.4286 9.82868C27.4286 9.77154 27.4286 9.77154 27.4857 9.77154C27.6 9.82868 27.7143 9.88583 27.8286 9.88583C28.2286 9.88583 28.5715 9.54297 28.5715 9.14297C28.5715 8.34297 27.5429 7.65725 27.2572 7.54297Z" fill="#0A4586"/>
<path d="M26.9143 9.82868C26.1143 9.37154 26.8572 8.00011 27.2 7.54297H27.1429C26.9143 7.7144 25.8857 8.34297 25.8857 9.14297C25.8857 9.54297 26.2286 9.88583 26.6286 9.88583C26.7429 9.88583 26.8 9.82868 26.9143 9.82868Z" fill="#093B73"/>
<path d="M27.0862 10.2858C27.1434 9.88577 27.1434 9.77148 27.0291 9.77148C27.0291 9.77148 27.0862 9.77148 27.0862 9.82863C27.0291 10.0001 26.9719 10.1143 26.8577 10.2858C26.8005 10.3429 26.8577 10.4001 26.9148 10.4001H27.2005C27.0862 10.4001 27.0862 10.2858 27.0862 10.2858Z" fill="#093B73"/>
<path d="M35.8856 16.7426C35.8284 16.6854 35.7141 16.6854 35.657 16.7426C35.0856 17.0854 32.5713 18.7426 32.5713 20.5711C32.5713 21.5426 33.3713 22.3426 34.3427 22.3426C34.6856 22.3426 34.9713 22.2854 35.1999 22.114C35.257 22.0569 35.3713 22.1711 35.3141 22.2283C35.1999 22.6283 34.9713 22.9711 34.7427 23.2569C34.6284 23.3711 34.7427 23.5426 34.9141 23.5426H36.6856C36.857 23.5426 36.9141 23.3711 36.857 23.2569C36.6284 22.9711 36.3999 22.5711 36.2856 22.2283C36.2284 22.1711 36.3427 22.0569 36.3999 22.114C36.6284 22.2283 36.9141 22.3426 37.257 22.3426C38.2284 22.3426 39.0284 21.5426 39.0284 20.5711C38.9713 18.6854 36.5141 17.0854 35.8856 16.7426Z" fill="#0A4586"/>
<path d="M35.0861 22.1713C33.1432 21.0855 34.9718 17.8284 35.8289 16.6855C35.7718 16.6855 35.7146 16.6855 35.7146 16.7427C35.1432 17.0855 32.6289 18.7427 32.6289 20.5713C32.6289 21.5427 33.4289 22.3427 34.4003 22.3427C34.6289 22.3427 34.8575 22.2855 35.0861 22.1713Z" fill="#093B73"/>
<path d="M35.4856 23.2571C35.5999 22.3428 35.5999 22.0571 35.3142 22.0571C35.3713 22.0571 35.4285 22.1143 35.3713 22.1714C35.2571 22.5714 35.0285 22.9143 34.7999 23.2C34.6856 23.3143 34.7999 23.4857 34.9713 23.4857H35.6571C35.4285 23.5428 35.4285 23.3714 35.4856 23.2571Z" fill="#093B73"/>
<path d="M45.2003 35.2C44.9717 35.2 44.7431 35.3143 44.6288 35.5428C44.6288 35.6 44.5717 35.6 44.5145 35.6571C44.4574 35.6571 44.4574 35.6571 44.4574 35.6C44.4574 35.4857 44.5145 35.4286 44.5145 35.3143C44.5145 35.2571 44.5717 35.2571 44.6288 35.2C44.8574 35.0857 44.9717 34.8571 44.9717 34.6286C44.9717 34.3428 44.686 34.0571 44.4003 34.0571C44.0574 34.0571 43.7717 34.3428 43.7717 34.6286C43.7717 34.8571 43.886 35.0857 44.1145 35.1428C44.1717 35.1428 44.1717 35.2 44.2288 35.2571C44.286 35.3714 44.286 35.4286 44.286 35.5428C44.286 35.6 44.2288 35.6 44.2288 35.6C44.1717 35.6 44.1145 35.5428 44.1145 35.4857C44.0003 35.2571 43.7717 35.1428 43.5431 35.1428C43.2574 35.1428 42.9717 35.4286 42.9717 35.7143C42.9717 36.0571 43.2574 36.3428 43.5431 36.3428C43.7717 36.3428 44.0003 36.2286 44.0574 36C44.0574 35.9428 44.1145 35.9428 44.1717 35.8857C44.2288 35.8857 44.2288 35.8857 44.2288 35.9428C44.1717 36.2286 44.0574 36.5143 43.886 36.6857C43.8288 36.7428 43.886 36.8 43.9431 36.8H44.7431C44.8003 36.8 44.8574 36.7428 44.8003 36.6857C44.6288 36.4571 44.5145 36.2286 44.4574 35.9428C44.4574 35.8857 44.5145 35.8857 44.5145 35.8857C44.5717 35.8857 44.6288 35.9428 44.6288 36C44.7431 36.1714 44.9145 36.3428 45.1431 36.3428C45.486 36.3428 45.7717 36.0571 45.7145 35.7143C45.7717 35.4286 45.5431 35.2 45.2003 35.2Z" fill="#0A4586"/>
<path d="M17.7143 39.4284C16.7429 39.4284 16 38.6856 16 37.7141V2.28557C16 1.31415 16.7429 0.571289 17.7143 0.571289H39.0286C40 0.571289 40.7429 1.31415 40.7429 2.28557V37.7141C40.7429 38.6856 40 39.4284 39.0286 39.4284H17.7143Z" fill="white"/>
<path d="M39.0287 1.14286C39.6573 1.14286 40.1716 1.65714 40.1716 2.28571V37.7143C40.1716 38.3429 39.6573 38.8571 39.0287 38.8571H17.7144C17.0859 38.8571 16.5716 38.3429 16.5716 37.7143V2.28571C16.5716 1.65714 17.0859 1.14286 17.7144 1.14286H39.0287ZM39.0287 0H17.7144C16.4573 0 15.4287 1.02857 15.4287 2.28571V37.7143C15.4287 38.9714 16.4573 40 17.7144 40H39.0287C40.2859 40 41.3144 38.9714 41.3144 37.7143V2.28571C41.3144 1.02857 40.2859 0 39.0287 0Z" fill="#0A4586"/>
<path d="M24.9717 18.9145C24.9717 17.886 25.8288 17.0288 26.8574 17.0288C27.3717 17.0288 27.8288 17.2574 28.1717 17.5431C28.286 17.6574 28.5145 17.6574 28.6288 17.5431C28.9717 17.2002 29.4288 17.0288 29.9431 17.0288C30.9717 17.0288 31.8288 17.886 31.8288 18.9145C31.8288 20.8574 29.3145 22.6288 28.6288 23.086C28.5145 23.1431 28.3431 23.1431 28.2288 23.086C27.4288 22.6288 24.9717 20.8574 24.9717 18.9145Z" fill="#ED2939"/>
<path d="M27.6002 17.2002C27.3717 17.086 27.086 17.0288 26.8574 17.0288C25.8288 17.0288 24.9717 17.886 24.9717 18.9145C24.9717 20.8574 27.486 22.6288 28.1717 23.086C28.2288 23.1431 28.286 23.1431 28.3431 23.1431C25.8288 19.6574 26.7431 17.7145 27.6002 17.2002Z" fill="#B32D11"/>
<path d="M37.4281 33.4286L37.2567 32.5714H36.571L36.3995 33.4286H35.9424L36.571 30H37.1995L37.8281 33.4286H37.4281ZM37.1995 32L37.0852 31.2C37.0852 31.1429 37.0852 31.0286 37.0281 30.8571C36.971 30.6857 36.971 30.5143 36.971 30.4571C36.971 30.5714 36.9138 30.7429 36.9138 30.9143C36.9138 31.0857 36.8567 31.4286 36.7424 32H37.1995Z" fill="#FF4019"/>
<path d="M20.2865 6.57164L20.1151 5.7145H19.4294L19.2579 6.57164H18.8008L19.4294 3.14307H20.0579L20.6865 6.57164H20.2865ZM20.0579 5.14307L19.9436 4.34307C19.9436 4.28592 19.9436 4.17164 19.8865 4.00021C19.8294 3.82878 19.8294 3.65735 19.8294 3.60021C19.8294 3.7145 19.7722 3.88592 19.7722 4.05735C19.7722 4.22878 19.7151 4.57164 19.6008 5.14307H20.0579Z" fill="#FF4019"/>
<path d="M18.4004 8.28583C18.4004 7.88583 18.7432 7.54297 19.1432 7.54297C19.3718 7.54297 19.5432 7.60011 19.6575 7.77154C19.7147 7.82868 19.7718 7.82868 19.829 7.77154C19.9432 7.65725 20.1718 7.54297 20.3432 7.54297C20.7432 7.54297 21.0861 7.88583 21.0861 8.28583C21.0861 9.08583 20.0575 9.82868 19.7718 10.0001C19.7147 10.0573 19.6575 10.0573 19.6004 10.0001C19.429 9.82868 18.4004 9.08583 18.4004 8.28583Z" fill="#ED2939"/>
<path d="M19.4866 7.60011C19.3723 7.54297 19.258 7.54297 19.2009 7.54297C18.8009 7.54297 18.458 7.88583 18.458 8.28583C18.458 9.08583 19.4866 9.82868 19.7723 10.0001H19.8294C18.7437 8.57154 19.1437 7.77154 19.4866 7.60011Z" fill="#B32D11"/>
<path d="M37.0286 34.3998C37.3714 34.8569 37.8857 35.3712 38.3429 35.7141C38.4 35.7712 38.4 35.8284 38.3429 35.8855C37.8857 36.2284 37.3714 36.7426 37.0286 37.1998C36.9714 37.2569 36.9143 37.2569 36.8571 37.1998C36.5143 36.7426 36 36.2284 35.5429 35.8855C35.4857 35.8284 35.4857 35.7712 35.5429 35.7141C36 35.3712 36.5143 34.8569 36.8571 34.3998C36.9143 34.3426 37.0286 34.3426 37.0286 34.3998Z" fill="#ED2939"/>
<path d="M36.9719 37.1999C36.8005 36.7428 36.5719 36.2285 36.3433 35.8856C36.3433 35.8285 36.3433 35.7713 36.3433 35.7142C36.5719 35.3713 36.8005 34.8571 36.9719 34.3999C36.9719 34.3999 36.9719 34.3428 37.029 34.3428C36.9719 34.3428 36.9719 34.3428 36.9148 34.3999C36.5719 34.8571 36.0576 35.3713 35.6005 35.7142C35.5433 35.7713 35.5433 35.8285 35.6005 35.8856C36.0576 36.2285 36.5719 36.7428 36.9148 37.1999C36.9148 37.1999 36.9719 37.2571 36.9719 37.1999Z" fill="#B32D11"/>
<path d="M9.71429 39.4284C8.74286 39.4284 8 38.6856 8 37.7141V2.28557C8 1.31415 8.74286 0.571289 9.71429 0.571289H31.0286C32 0.571289 32.7429 1.31415 32.7429 2.28557V37.7141C32.7429 38.6856 32 39.4284 31.0286 39.4284H9.71429Z" fill="white"/>
<path d="M31.0287 1.14286C31.6573 1.14286 32.1716 1.65714 32.1716 2.28571V37.7143C32.1716 38.3429 31.6573 38.8571 31.0287 38.8571H9.71443C9.08585 38.8571 8.57157 38.3429 8.57157 37.7143V2.28571C8.57157 1.65714 9.08585 1.14286 9.71443 1.14286H31.0287ZM31.0287 0H9.71443C8.45728 0 7.42871 1.02857 7.42871 2.28571V37.7143C7.42871 38.9714 8.45728 40 9.71443 40H31.0287C32.2859 40 33.3144 38.9714 33.3144 37.7143V2.28571C33.3144 1.02857 32.2859 0 31.0287 0Z" fill="#0A4586"/>
<path d="M29.4281 33.4286L29.2567 32.5714H28.571L28.3995 33.4286H27.9424L28.571 30H29.1995L29.8281 33.4286H29.4281ZM29.1995 32L29.0852 31.2C29.0852 31.1429 29.0852 31.0286 29.0281 30.8571C28.971 30.6857 28.971 30.5143 28.971 30.4571C28.971 30.5714 28.9138 30.7429 28.9138 30.9143C28.9138 31.0857 28.8567 31.4286 28.7424 32H29.1995Z" fill="#0A4586"/>
<path d="M12.2855 6.57164L12.1141 5.7145H11.4284L11.2569 6.57164H10.7998L11.4284 3.14307H12.0569L12.6855 6.57164H12.2855ZM12.0569 5.14307L11.9427 4.34307C11.9427 4.28592 11.9427 4.17164 11.8855 4.00021C11.8284 3.82878 11.8284 3.65735 11.8284 3.60021C11.8284 3.7145 11.7712 3.88592 11.7712 4.05735C11.7712 4.22878 11.7141 4.57164 11.5998 5.14307H12.0569Z" fill="#0A4586"/>
<path d="M28.972 34.0571C28.9149 34.0571 28.9149 34.0571 28.8577 34.0571C28.6292 34.2286 27.6006 34.8571 27.6006 35.6571C27.6006 36.0571 27.9434 36.4 28.3434 36.4C28.4577 36.4 28.572 36.3428 28.6863 36.2857C28.7434 36.2857 28.7434 36.2857 28.7434 36.3428C28.6863 36.5143 28.6292 36.6286 28.5149 36.8C28.4577 36.8571 28.5149 36.9143 28.572 36.9143H29.3149C29.372 36.9143 29.4292 36.8571 29.372 36.8C29.2577 36.6857 29.2006 36.5143 29.1434 36.3428C29.1434 36.2857 29.1434 36.2857 29.2006 36.2857C29.3149 36.3428 29.4292 36.4 29.5434 36.4C29.9434 36.4 30.2863 36.0571 30.2863 35.6571C30.2863 34.8571 29.2577 34.1714 28.972 34.0571Z" fill="#0A4586"/>
<path d="M28.6292 36.2857C27.8292 35.8286 28.572 34.4571 28.9149 34H28.8577C28.6292 34.1714 27.6006 34.8 27.6006 35.6C27.6006 36 27.9434 36.3429 28.3434 36.3429C28.4577 36.4 28.5149 36.3429 28.6292 36.2857Z" fill="#093B73"/>
<path d="M28.8011 36.7999C28.8582 36.3999 28.8582 36.2856 28.7439 36.2856C28.7439 36.2856 28.8011 36.2856 28.8011 36.3428C28.7439 36.5142 28.6868 36.6285 28.5725 36.7999C28.5154 36.8571 28.5725 36.9142 28.6296 36.9142H28.9154C28.8011 36.8571 28.8011 36.7999 28.8011 36.7999Z" fill="#093B73"/>
<path d="M11.8285 7.54297C11.7713 7.54297 11.7713 7.54297 11.7142 7.54297C11.4856 7.7144 10.457 8.34297 10.457 9.14297C10.457 9.54297 10.7999 9.88583 11.1999 9.88583C11.3142 9.88583 11.4285 9.82868 11.5427 9.77154C11.5999 9.77154 11.5999 9.77154 11.5999 9.82868C11.5427 10.0001 11.4856 10.1144 11.3713 10.2858C11.3142 10.343 11.3713 10.4001 11.4285 10.4001H12.1713C12.2285 10.4001 12.2856 10.343 12.2285 10.2858C12.1142 10.1715 12.057 10.0001 11.9999 9.82868C11.9999 9.77154 11.9999 9.77154 12.057 9.77154C12.1713 9.82868 12.2856 9.88583 12.3999 9.88583C12.7999 9.88583 13.1427 9.54297 13.1427 9.14297C13.1427 8.34297 12.1142 7.65725 11.8285 7.54297Z" fill="#0A4586"/>
<path d="M11.4856 9.82868C10.6856 9.37154 11.4285 8.00011 11.7713 7.54297H11.7142C11.4856 7.7144 10.457 8.34297 10.457 9.14297C10.457 9.54297 10.7999 9.88583 11.1999 9.88583C11.3142 9.88583 11.3713 9.82868 11.4856 9.82868Z" fill="#093B73"/>
<path d="M11.6575 10.2858C11.7147 9.88577 11.7147 9.77148 11.6004 9.77148C11.6004 9.77148 11.6575 9.77148 11.6575 9.82863C11.6004 10.0001 11.5432 10.1143 11.4289 10.2858C11.3718 10.3429 11.4289 10.4001 11.4861 10.4001H11.7718C11.6575 10.4001 11.6575 10.2858 11.6575 10.2858Z" fill="#093B73"/>
<path d="M20.4569 16.7426C20.3997 16.6854 20.2854 16.6854 20.2283 16.7426C19.6569 17.0854 17.1426 18.7426 17.1426 20.5711C17.1426 21.5426 17.9426 22.3426 18.914 22.3426C19.2569 22.3426 19.5426 22.2854 19.7711 22.114C19.8283 22.0569 19.9426 22.1711 19.8854 22.2283C19.7711 22.6283 19.5426 22.9711 19.314 23.2569C19.1997 23.3711 19.314 23.5426 19.4854 23.5426H21.2569C21.4283 23.5426 21.4854 23.3711 21.4283 23.2569C21.1997 22.9711 20.9711 22.5711 20.8569 22.2283C20.7997 22.1711 20.914 22.0569 20.9711 22.114C21.1997 22.2283 21.4854 22.3426 21.8283 22.3426C22.7997 22.3426 23.5997 21.5426 23.5997 20.5711C23.5426 18.6854 21.0854 17.0854 20.4569 16.7426Z" fill="#0A4586"/>
<path d="M19.6573 22.1713C17.7145 21.0855 19.5431 17.8284 20.4002 16.6855C20.343 16.6855 20.2859 16.6855 20.2859 16.7427C19.7145 17.0855 17.2002 18.7427 17.2002 20.5713C17.2002 21.5427 18.0002 22.3427 18.9716 22.3427C19.2002 22.3427 19.4288 22.2855 19.6573 22.1713Z" fill="#093B73"/>
<path d="M20.0569 23.2571C20.1712 22.3428 20.1712 22.0571 19.8855 22.0571C19.9426 22.0571 19.9998 22.1143 19.9426 22.1714C19.8283 22.5714 19.5998 22.9143 19.3712 23.2C19.2569 23.3143 19.3712 23.4857 19.5426 23.4857H20.2283C19.9998 23.5428 19.9998 23.3714 20.0569 23.2571Z" fill="#093B73"/>
<path d="M2.28557 39.4284C1.31415 39.4284 0.571289 38.6856 0.571289 37.7141V2.28557C0.571289 1.31415 1.31415 0.571289 2.28557 0.571289H23.5999C24.5713 0.571289 25.3141 1.31415 25.3141 2.28557V37.7141C25.3141 38.6856 24.5713 39.4284 23.5999 39.4284H2.28557Z" fill="white"/>
<path d="M23.6 1.14286C24.2286 1.14286 24.7429 1.65714 24.7429 2.28571V37.7143C24.7429 38.3429 24.2286 38.8571 23.6 38.8571H2.28571C1.65714 38.8571 1.14286 38.3429 1.14286 37.7143V2.28571C1.14286 1.65714 1.65714 1.14286 2.28571 1.14286H23.6ZM23.6 0H2.28571C1.02857 0 0 1.02857 0 2.28571V37.7143C0 38.9714 1.02857 40 2.28571 40H23.6C24.8571 40 25.8857 38.9714 25.8857 37.7143V2.28571C25.8857 1.02857 24.8571 0 23.6 0Z" fill="#0A4586"/>
<path d="M9.54297 18.9145C9.54297 17.886 10.4001 17.0288 11.4287 17.0288C11.943 17.0288 12.4001 17.2574 12.743 17.5431C12.8573 17.6574 13.0858 17.6574 13.2001 17.5431C13.543 17.2002 14.0001 17.0288 14.5144 17.0288C15.543 17.0288 16.4001 17.886 16.4001 18.9145C16.4001 20.8574 13.8858 22.6288 13.2001 23.086C13.0858 23.1431 12.9144 23.1431 12.8001 23.086C12.0001 22.6288 9.54297 20.8574 9.54297 18.9145Z" fill="#ED2939"/>
<path d="M12.1715 17.2002C11.943 17.086 11.6573 17.0288 11.4287 17.0288C10.4001 17.0288 9.54297 17.886 9.54297 18.9145C9.54297 20.8574 12.0573 22.6288 12.743 23.086C12.8001 23.1431 12.8573 23.1431 12.9144 23.1431C10.4001 19.6574 11.3144 17.7145 12.1715 17.2002Z" fill="#B32D11"/>
<path d="M22.0004 33.4286L21.8289 32.5714H21.1432L20.9718 33.4286H20.5146L21.1432 30H21.7718L22.4004 33.4286H22.0004ZM21.7718 32L21.6575 31.2C21.6575 31.1429 21.6575 31.0286 21.6004 30.8571C21.5432 30.6857 21.5432 30.5143 21.5432 30.4571C21.5432 30.5714 21.4861 30.7429 21.4861 30.9143C21.4861 31.0857 21.4289 31.4286 21.3146 32H21.7718Z" fill="#FF4019"/>
<path d="M20.1143 35.1428C20.1143 34.7428 20.4571 34.3999 20.8571 34.3999C21.0857 34.3999 21.2571 34.457 21.3714 34.6285C21.4285 34.6856 21.4857 34.6856 21.5428 34.6285C21.6571 34.5142 21.8857 34.3999 22.0571 34.3999C22.4571 34.3999 22.8 34.7428 22.8 35.1428C22.8 35.9428 21.7714 36.6856 21.4857 36.857C21.4285 36.9142 21.3714 36.9142 21.3143 36.857C21.1428 36.6856 20.1143 35.9428 20.1143 35.1428Z" fill="#ED2939"/>
<path d="M21.2004 34.457C21.0862 34.3999 20.9719 34.3999 20.9147 34.3999C20.5147 34.3999 20.1719 34.7428 20.1719 35.1428C20.1719 35.9428 21.2004 36.6856 21.4862 36.857H21.5433C20.4576 35.4285 20.8576 34.6285 21.2004 34.457Z" fill="#B32D11"/>
<path d="M4.85778 6.57164L4.68636 5.7145H4.00064L3.82921 6.57164H3.37207L4.00064 3.14307H4.62921L5.25778 6.57164H4.85778ZM4.62921 5.14307L4.45778 4.34307C4.45778 4.28592 4.45778 4.17164 4.40064 4.00021C4.3435 3.82878 4.3435 3.65735 4.3435 3.60021C4.3435 3.7145 4.28636 3.88592 4.28636 4.05735C4.28636 4.22878 4.22921 4.57164 4.11493 5.14307H4.62921Z" fill="#FF4019"/>
<path d="M2.97168 8.28583C2.97168 7.88583 3.31454 7.54297 3.71454 7.54297C3.94311 7.54297 4.11454 7.60011 4.22882 7.77154C4.28597 7.82868 4.34311 7.82868 4.40025 7.77154C4.51454 7.65725 4.74311 7.54297 4.91454 7.54297C5.31454 7.54297 5.65739 7.88583 5.65739 8.28583C5.65739 9.08583 4.62882 9.82868 4.34311 10.0001C4.28597 10.0573 4.22882 10.0573 4.17168 10.0001C4.00025 9.82868 2.97168 9.08583 2.97168 8.28583Z" fill="#ED2939"/>
<path d="M4.05787 7.60011C3.94358 7.54297 3.8293 7.54297 3.77215 7.54297C3.37215 7.54297 3.0293 7.88583 3.0293 8.28583C3.0293 9.08583 4.05787 9.82868 4.34358 10.0001H4.40073C3.31501 8.57154 3.71501 7.77154 4.05787 7.60011Z" fill="#B32D11"/>
</g>
<defs>
<clipPath id="clip0">
<rect width="48.7429" height="40" fill="white"/>
</clipPath>
</defs>
</svg>
