<svg width="48" height="48" viewBox="0 0 48 48" fill="none" xmlns="http://www.w3.org/2000/svg">
<g clip-path="url(#clip0_477_27091)">
<path d="M44 0H3.99999C1.79193 0.00260616 0.00260616 1.79193 0 3.99999V37.6C0.00260616 39.808 1.79193 41.5974 3.99999 41.6H15.9999V43.2H12.8C11.0327 43.2 9.6 44.6327 9.6 46.4C9.6 47.2836 10.3164 48 11.2 48H36.8C37.6836 48 38.4 47.2836 38.4 46.4C38.4 44.6327 36.9673 43.2 35.2 43.2H32V41.6H43.9999C46.208 41.5973 47.9973 39.808 47.9999 37.6V3.99999C47.9973 1.79193 46.208 0.00260616 44 0ZM3.99999 1.60003H43.9999C45.3254 1.60003 46.3999 2.67456 46.3999 3.99999V33.6H1.60003V3.99999C1.60003 2.67448 2.67448 1.60003 3.99999 1.60003ZM36.8 46.4H11.2C11.2 45.5163 11.9164 44.7999 12.8001 44.7999H35.2C36.0836 44.7999 36.8 45.5163 36.8 46.4ZM30.4 43.2H17.6V41.6H30.3999L30.4 43.2ZM44 39.9999H3.99999C2.67448 39.9999 1.60003 38.9254 1.60003 37.6V35.2H46.4V37.6C46.4001 38.9254 45.3254 39.9999 44 39.9999Z" fill="#0D4EE3"/>
<path fill-rule="evenodd" clip-rule="evenodd" d="M26.3988 36.7988H21.5988C21.157 36.7988 20.7988 37.157 20.7988 37.5988C20.7988 38.0407 21.157 38.3989 21.5988 38.3989H26.3988C26.8407 38.3989 27.1989 38.0407 27.1989 37.5988C27.1989 37.157 26.8407 36.7988 26.3988 36.7988Z" fill="#0D4EE3"/>
<path fill-rule="evenodd" clip-rule="evenodd" d="M3.99923 7.99846H43.9992C44.441 7.99846 44.7992 7.64031 44.7992 7.19845C44.7992 6.75659 44.441 6.39844 43.9992 6.39844H3.99923C3.55737 6.39844 3.19922 6.75659 3.19922 7.19845C3.19922 7.64031 3.55745 7.99846 3.99923 7.99846Z" fill="#0D4EE3"/>
<path d="M4.80001 4.79924C5.24185 4.79924 5.60003 4.44107 5.60003 3.99923C5.60003 3.5574 5.24185 3.19922 4.80001 3.19922C4.35818 3.19922 4 3.5574 4 3.99923C4 4.44107 4.35818 4.79924 4.80001 4.79924Z" fill="#0D4EE3"/>
<path d="M7.99923 4.79924C8.44107 4.79924 8.79925 4.44107 8.79925 3.99923C8.79925 3.5574 8.44107 3.19922 7.99923 3.19922C7.5574 3.19922 7.19922 3.5574 7.19922 3.99923C7.19922 4.44107 7.5574 4.79924 7.99923 4.79924Z" fill="#0D4EE3"/>
<path d="M11.1984 4.79924C11.6403 4.79924 11.9985 4.44107 11.9985 3.99923C11.9985 3.5574 11.6403 3.19922 11.1984 3.19922C10.7566 3.19922 10.3984 3.5574 10.3984 3.99923C10.3984 4.44107 10.7566 4.79924 11.1984 4.79924Z" fill="#0D4EE3"/>
<path d="M14.3992 31.9997H33.5992C39.7849 31.9997 44.7993 26.9852 44.7993 20.7996C44.7993 14.614 39.7849 9.59961 33.5992 9.59961H14.3992C8.21364 9.59961 3.19922 14.614 3.19922 20.7996C3.19922 26.9852 8.21364 31.9997 14.3992 31.9997ZM14.3992 11.1997H33.5992C38.9012 11.1997 43.1992 15.4978 43.1992 20.7997C43.1992 26.1017 38.9012 30.3997 33.5992 30.3997H14.3992C9.09728 30.3997 4.79924 26.1017 4.79924 20.7997C4.79924 15.4978 9.09728 11.1997 14.3992 11.1997Z" fill="#0D4EE3"/>
<path d="M22.4008 20.0001H25.6008C26.4844 20.0001 27.2008 19.2837 27.2008 18.4V13.6C27.2008 12.7164 26.4844 12 25.6008 12H22.4008C21.5172 12 20.8008 12.7164 20.8008 13.6V18.4C20.8008 19.2837 21.5172 20.0001 22.4008 20.0001ZM22.4008 13.6H25.6008V18.4H22.4008V13.6Z" fill="#0D4EE3"/>
<path d="M10.4008 22.4004H12.0008V25.6004C12.0008 26.4841 12.7172 27.2004 13.6009 27.2004H16.8008C17.6845 27.2004 18.4009 26.4841 18.4009 25.6004V20.8004C18.4009 19.9168 17.6845 19.2004 16.8008 19.2004H15.2008V16.0004C15.2008 15.1168 14.4844 14.4004 13.6008 14.4004H10.4008C9.51716 14.4004 8.80078 15.1168 8.80078 16.0004V20.8004C8.80078 21.6841 9.51716 22.4004 10.4008 22.4004ZM16.8008 20.8004V25.6004H13.6008V22.4004C14.4844 22.4004 15.2008 21.6841 15.2008 20.8004H16.8008ZM10.4008 16.0004H13.6008V20.8004H10.4008V16.0004Z" fill="#0D4EE3"/>
<path d="M31.1996 22.4004H32.7997V25.6004C32.7997 26.4841 33.516 27.2004 34.3997 27.2004H37.5997C38.4833 27.2004 39.1997 26.4841 39.1997 25.6004V20.8004C39.1997 19.9168 38.4833 19.2004 37.5997 19.2004H35.9996V16.0004C35.9996 15.1168 35.2833 14.4004 34.3996 14.4004H31.1996C30.316 14.4004 29.5996 15.1168 29.5996 16.0004V20.8004C29.5996 21.6841 30.316 22.4004 31.1996 22.4004ZM37.5997 20.8004V25.6004H34.3997V22.4004C35.2833 22.4004 35.9997 21.6841 35.9997 20.8004H37.5997ZM31.1996 16.0004H34.3996V20.8004H31.1996V16.0004Z" fill="#0D4EE3"/>
<path d="M22.4008 29.5997H25.6008C26.4844 29.5997 27.2008 28.8833 27.2008 27.9996V23.1996C27.2008 22.316 26.4844 21.5996 25.6008 21.5996H22.4008C21.5172 21.5996 20.8008 22.316 20.8008 23.1996V27.9996C20.8008 28.8834 21.5172 29.5997 22.4008 29.5997ZM22.4008 23.1997H25.6008V27.9997H22.4008V23.1997Z" fill="#0D4EE3"/>
</g>
<defs>
<clipPath id="clip0_477_27091">
<rect width="48" height="48" fill="white"/>
</clipPath>
</defs>
</svg>
