<svg width="54" height="54" viewBox="0 0 54 54" fill="none" xmlns="http://www.w3.org/2000/svg">
<rect width="54" height="54" rx="27" fill="#0D4EE3"/>
<g clip-path="url(#clip0_387_25882)">
<path d="M40.3333 11H13.6667C12.1946 11.0017 11.0017 12.1946 11 13.6667V36.0667C11.0017 37.5387 12.1946 38.7316 13.6667 38.7333H21.6666V39.8H19.5333C18.3551 39.8 17.4 40.7551 17.4 41.9333C17.4 42.5224 17.8776 43 18.4667 43H35.5333C36.1224 43 36.6 42.5224 36.6 41.9333C36.6 40.7551 35.6449 39.8 34.4667 39.8H32.3334V38.7333H40.3333C41.8053 38.7315 42.9982 37.5387 42.9999 36.0667V13.6667C42.9982 12.1946 41.8053 11.0017 40.3333 11ZM13.6667 12.0667H40.3333C41.217 12.0667 41.9333 12.783 41.9333 13.6667V33.4H12.0667V13.6667C12.0667 12.783 12.783 12.0667 13.6667 12.0667ZM35.5333 41.9333H18.4667C18.4667 41.3442 18.9443 40.8666 19.5334 40.8666H34.4667C35.0557 40.8666 35.5333 41.3442 35.5333 41.9333ZM31.2667 39.8H22.7333V38.7333H31.2666L31.2667 39.8ZM40.3333 37.6666H13.6667C12.783 37.6666 12.0667 36.9503 12.0667 36.0667V34.4667H41.9333V36.0667C41.9334 36.9503 41.217 37.6666 40.3333 37.6666Z" fill="white"/>
<path fill-rule="evenodd" clip-rule="evenodd" d="M28.6005 35.5332H25.4005C25.106 35.5332 24.8672 35.772 24.8672 36.0665C24.8672 36.3611 25.106 36.5999 25.4005 36.5999H28.6005C28.8951 36.5999 29.1339 36.3611 29.1339 36.0665C29.1339 35.772 28.8951 35.5332 28.6005 35.5332Z" fill="white"/>
<path fill-rule="evenodd" clip-rule="evenodd" d="M13.6671 16.3323H40.3338C40.6283 16.3323 40.8671 16.0935 40.8671 15.799C40.8671 15.5044 40.6283 15.2656 40.3338 15.2656H13.6671C13.3726 15.2656 13.1338 15.5044 13.1338 15.799C13.1338 16.0935 13.3726 16.3323 13.6671 16.3323Z" fill="white"/>
<path d="M14.2003 14.1995C14.4949 14.1995 14.7337 13.9607 14.7337 13.6662C14.7337 13.3716 14.4949 13.1328 14.2003 13.1328C13.9058 13.1328 13.667 13.3716 13.667 13.6662C13.667 13.9607 13.9058 14.1995 14.2003 14.1995Z" fill="white"/>
<path d="M16.3341 14.1995C16.6287 14.1995 16.8675 13.9607 16.8675 13.6662C16.8675 13.3716 16.6287 13.1328 16.3341 13.1328C16.0396 13.1328 15.8008 13.3716 15.8008 13.6662C15.8008 13.9607 16.0396 14.1995 16.3341 14.1995Z" fill="white"/>
<path d="M18.4669 14.1995C18.7615 14.1995 19.0003 13.9607 19.0003 13.6662C19.0003 13.3716 18.7615 13.1328 18.4669 13.1328C18.1724 13.1328 17.9336 13.3716 17.9336 13.6662C17.9336 13.9607 18.1724 14.1995 18.4669 14.1995Z" fill="white"/>
<path d="M20.6005 32.3338H33.4005C37.5242 32.3338 40.8672 28.9908 40.8672 24.8671C40.8672 20.7433 37.5242 17.4004 33.4005 17.4004H20.6005C16.4767 17.4004 13.1338 20.7433 13.1338 24.8671C13.1338 28.9908 16.4767 32.3338 20.6005 32.3338ZM20.6005 18.4671H33.4005C36.9351 18.4671 39.8005 21.3325 39.8005 24.8671C39.8005 28.4018 36.9351 31.2671 33.4005 31.2671H20.6005C17.0658 31.2671 14.2005 28.4018 14.2005 24.8671C14.2005 21.3325 17.0658 18.4671 20.6005 18.4671Z" fill="white"/>
<path d="M25.9329 24.3334H28.0662C28.6553 24.3334 29.1329 23.8558 29.1329 23.2667V20.0667C29.1329 19.4776 28.6553 19 28.0662 19H25.9329C25.3438 19 24.8662 19.4776 24.8662 20.0667V23.2667C24.8662 23.8558 25.3439 24.3334 25.9329 24.3334ZM25.9329 20.0667H28.0662V23.2667H25.9329V20.0667Z" fill="white"/>
<path d="M17.9329 25.933H18.9996V28.0663C18.9996 28.6554 19.4772 29.133 20.0663 29.133H22.1996C22.7887 29.133 23.2663 28.6554 23.2663 28.0663V24.8663C23.2663 24.2772 22.7887 23.7996 22.1996 23.7996H21.1329V21.6663C21.1329 21.0772 20.6553 20.5996 20.0662 20.5996H17.9329C17.3438 20.5996 16.8662 21.0772 16.8662 21.6663V24.8663C16.8662 25.4554 17.3438 25.933 17.9329 25.933ZM22.1995 24.8663V28.0663H20.0662V25.933C20.6553 25.933 21.1329 25.4554 21.1329 24.8663H22.1995ZM17.9329 21.6663H20.0662V24.8663H17.9329V21.6663Z" fill="white"/>
<path d="M31.8001 25.933H32.8668V28.0663C32.8668 28.6554 33.3444 29.133 33.9335 29.133H36.0668C36.6559 29.133 37.1335 28.6554 37.1335 28.0663V24.8663C37.1335 24.2772 36.6559 23.7996 36.0668 23.7996H35.0001V21.6663C35.0001 21.0772 34.5225 20.5996 33.9334 20.5996H31.8001C31.211 20.5996 30.7334 21.0772 30.7334 21.6663V24.8663C30.7334 25.4554 31.211 25.933 31.8001 25.933ZM36.0668 24.8663V28.0663H33.9335V25.933C34.5225 25.933 35.0001 25.4554 35.0001 24.8663H36.0668ZM31.8001 21.6663H33.9334V24.8663H31.8001V21.6663Z" fill="white"/>
<path d="M25.9329 30.7338H28.0662C28.6553 30.7338 29.1329 30.2562 29.1329 29.6671V26.4671C29.1329 25.878 28.6553 25.4004 28.0662 25.4004H25.9329C25.3438 25.4004 24.8662 25.878 24.8662 26.4671V29.6671C24.8662 30.2562 25.3439 30.7338 25.9329 30.7338ZM25.9329 26.4671H28.0662V29.6671H25.9329V26.4671Z" fill="white"/>
</g>
<defs>
<clipPath id="clip0_387_25882">
<rect width="32" height="32" fill="white" transform="translate(11 11)"/>
</clipPath>
</defs>
</svg>
