<svg width="27" height="27" viewBox="0 0 27 27" fill="none" xmlns="http://www.w3.org/2000/svg">
<g clip-path="url(#clip0_387_25032)">
<path d="M24.75 0H2.24999C1.00796 0.00146597 0.00146597 1.00796 0 2.24999V21.15C0.00146597 22.392 1.00796 23.3985 2.24999 23.4H8.99997V24.3H7.19999C6.20588 24.3 5.4 25.1059 5.4 26.1C5.4 26.597 5.80296 27 6.30001 27H20.7C21.197 27 21.6 26.597 21.6 26.1C21.6 25.1059 20.7941 24.3 19.8 24.3H18V23.4H24.75C25.992 23.3985 26.9985 22.392 27 21.15V2.24999C26.9985 1.00796 25.992 0.00146597 24.75 0ZM2.24999 0.900015H24.75C25.4956 0.900015 26.0999 1.50444 26.0999 2.24999V18.9H0.900015V2.24999C0.900015 1.50439 1.50439 0.900015 2.24999 0.900015ZM20.7 26.1H6.30001C6.30001 25.6029 6.70298 25.2 7.20003 25.2H19.8C20.297 25.2 20.7 25.6029 20.7 26.1ZM17.1 24.3H9.89999V23.4H17.1L17.1 24.3ZM24.75 22.5H2.24999C1.50439 22.5 0.900015 21.8955 0.900015 21.15V19.8H26.1V21.15C26.1 21.8955 25.4956 22.5 24.75 22.5Z" fill="#000C28"/>
<path fill-rule="evenodd" clip-rule="evenodd" d="M14.8512 20.7012H12.1512C11.9026 20.7012 11.7012 20.9026 11.7012 21.1512C11.7012 21.3997 11.9026 21.6012 12.1512 21.6012H14.8512C15.0997 21.6012 15.3012 21.3997 15.3012 21.1512C15.3012 20.9026 15.0997 20.7012 14.8512 20.7012Z" fill="#000C28"/>
<path fill-rule="evenodd" clip-rule="evenodd" d="M2.25079 4.50158H24.7508C24.9993 4.50158 25.2008 4.30012 25.2008 4.05157C25.2008 3.80302 24.9993 3.60156 24.7508 3.60156H2.25079C2.00224 3.60156 1.80078 3.80302 1.80078 4.05157C1.80078 4.30012 2.00228 4.50158 2.25079 4.50158Z" fill="#000C28"/>
<path d="M2.70098 2.7008C2.94952 2.7008 3.15099 2.49932 3.15099 2.25079C3.15099 2.00226 2.94952 1.80078 2.70098 1.80078C2.45245 1.80078 2.25098 2.00226 2.25098 2.25079C2.25098 2.49932 2.45245 2.7008 2.70098 2.7008Z" fill="#000C28"/>
<path d="M4.50079 2.7008C4.74932 2.7008 4.9508 2.49932 4.9508 2.25079C4.9508 2.00226 4.74932 1.80078 4.50079 1.80078C4.25226 1.80078 4.05078 2.00226 4.05078 2.25079C4.05078 2.49932 4.25226 2.7008 4.50079 2.7008Z" fill="#000C28"/>
<path d="M6.30059 2.7008C6.54913 2.7008 6.7506 2.49932 6.7506 2.25079C6.7506 2.00226 6.54913 1.80078 6.30059 1.80078C6.05206 1.80078 5.85059 2.00226 5.85059 2.25079C5.85059 2.49932 6.05206 2.7008 6.30059 2.7008Z" fill="#000C28"/>
<path d="M8.1008 18.0004H18.9008C22.3802 18.0004 25.2008 15.1798 25.2008 11.7004C25.2008 8.221 22.3802 5.40039 18.9008 5.40039H8.1008C4.62139 5.40039 1.80078 8.221 1.80078 11.7004C1.80078 15.1798 4.62139 18.0004 8.1008 18.0004ZM8.1008 6.30045H18.9008C21.8831 6.30045 24.3008 8.7181 24.3008 11.7004C24.3008 14.6828 21.8831 17.1004 18.9008 17.1004H8.1008C5.11844 17.1004 2.7008 14.6828 2.7008 11.7004C2.7008 8.7181 5.11844 6.30045 8.1008 6.30045Z" fill="#000C28"/>
<path d="M12.5992 11.25H14.3992C14.8963 11.25 15.2992 10.8471 15.2992 10.35V7.65001C15.2992 7.15296 14.8963 6.75 14.3992 6.75H12.5992C12.1022 6.75 11.6992 7.15296 11.6992 7.65001V10.35C11.6992 10.8471 12.1022 11.25 12.5992 11.25ZM12.5992 7.65001H14.3992V10.35H12.5992V7.65001Z" fill="#000C28"/>
<path d="M5.84923 12.5996H6.74925V14.3996C6.74925 14.8967 7.15221 15.2996 7.64926 15.2996H9.44925C9.9463 15.2996 10.3493 14.8967 10.3493 14.3996V11.6996C10.3493 11.2026 9.9463 10.7996 9.44925 10.7996H8.54923V8.99962C8.54923 8.50257 8.14627 8.09961 7.64922 8.09961H5.84923C5.35218 8.09961 4.94922 8.50257 4.94922 8.99962V11.6996C4.94922 12.1967 5.35218 12.5996 5.84923 12.5996ZM9.4492 11.6996V14.3996H7.64922V12.5996C8.14627 12.5996 8.54923 12.1967 8.54923 11.6996H9.4492ZM5.84923 8.99962H7.64922V11.6996H5.84923V8.99962Z" fill="#000C28"/>
<path d="M17.5504 12.5996H18.4504V14.3996C18.4504 14.8967 18.8534 15.2996 19.3504 15.2996H21.1504C21.6475 15.2996 22.0504 14.8967 22.0504 14.3996V11.6996C22.0504 11.2026 21.6475 10.7996 21.1504 10.7996H20.2504V8.99962C20.2504 8.50257 19.8474 8.09961 19.3504 8.09961H17.5504C17.0534 8.09961 16.6504 8.50257 16.6504 8.99962V11.6996C16.6504 12.1967 17.0534 12.5996 17.5504 12.5996ZM21.1504 11.6996V14.3996H19.3504V12.5996C19.8475 12.5996 20.2504 12.1967 20.2504 11.6996H21.1504ZM17.5504 8.99962H19.3504V11.6996H17.5504V8.99962Z" fill="#000C28"/>
<path d="M12.5992 16.6504H14.3992C14.8963 16.6504 15.2992 16.2475 15.2992 15.7504V13.0504C15.2992 12.5534 14.8963 12.1504 14.3992 12.1504H12.5992C12.1022 12.1504 11.6992 12.5534 11.6992 13.0504V15.7504C11.6992 16.2475 12.1022 16.6504 12.5992 16.6504ZM12.5992 13.0505H14.3992V15.7505H12.5992V13.0505Z" fill="#000C28"/>
</g>
<defs>
<clipPath id="clip0_387_25032">
<rect width="27" height="27" fill="white"/>
</clipPath>
</defs>
</svg>
