<svg width="126" height="34" viewBox="0 0 126 34" fill="none" xmlns="http://www.w3.org/2000/svg">
<g clip-path="url(#clip0)">
<path d="M122.64 0H3.1332C2.30222 0 1.50528 0.392981 0.917693 1.09249C0.330104 1.792 0 2.74074 0 3.73L0 30.27C0 31.2593 0.330104 32.208 0.917693 32.9075C1.50528 33.607 2.30222 34 3.1332 34H122.64C123.531 34 124.386 33.5786 125.016 32.8284C125.646 32.0783 126 31.0609 126 30V4C126 2.93913 125.646 1.92172 125.016 1.17157C124.386 0.421427 123.531 0 122.64 0V0ZM125.16 30C125.16 30.7956 124.895 31.5587 124.422 32.1213C123.949 32.6839 123.308 33 122.64 33H3.1332C2.52569 32.9974 1.94369 32.7089 1.51411 32.1975C1.08453 31.6861 0.842213 30.9932 0.84 30.27V3.73C0.842213 3.00677 1.08453 2.31391 1.51411 1.80251C1.94369 1.2911 2.52569 1.00263 3.1332 1H122.64C123.308 1 123.949 1.31607 124.422 1.87868C124.895 2.44129 125.16 3.20435 125.16 4V30Z" fill="#635BFF"/>
<path d="M13.0929 12.7825H9.77002V21.0975H11.2537V17.8828H13.0929C14.9476 17.8828 16.1068 16.9864 16.1068 15.3326C16.1068 13.6789 14.9476 12.7825 13.0929 12.7825ZM13.0157 16.6463H11.2537V14.0962H13.0388C14.1053 14.0962 14.6694 14.5521 14.6694 15.3713C14.6694 16.1904 14.0821 16.6077 13.0388 16.6077L13.0157 16.6463Z" fill="#635BFF"/>
<path d="M19.2982 14.9152C18.892 14.9105 18.4892 14.9909 18.1158 15.1511C17.7425 15.3112 17.4067 15.5478 17.1302 15.8454C16.8536 16.1431 16.6424 16.4953 16.5101 16.8794C16.3777 17.2635 16.3272 17.6711 16.3617 18.0759C16.3255 18.4829 16.3744 18.893 16.5053 19.2802C16.6362 19.6673 16.8463 20.0229 17.1221 20.3244C17.398 20.6259 17.7336 20.8666 18.1076 21.0314C18.4815 21.1961 18.8857 21.2812 19.2944 21.2812C19.703 21.2812 20.1072 21.1961 20.4812 21.0314C20.8551 20.8666 21.1907 20.6259 21.4666 20.3244C21.7424 20.0229 21.9525 19.6673 22.0834 19.2802C22.2144 18.893 22.2633 18.4829 22.227 18.0759C22.2627 17.6715 22.2132 17.2641 22.0818 16.8799C21.9503 16.4958 21.7399 16.1435 21.4639 15.8457C21.188 15.5479 20.8527 15.3113 20.4797 15.151C20.1066 14.9908 19.7042 14.9104 19.2982 14.9152ZM19.2982 20.0696C18.3554 20.0696 17.7527 19.2969 17.7527 18.0759C17.7527 16.8549 18.34 16.0821 19.2982 16.0821C20.2565 16.0821 20.8438 16.8549 20.8438 18.0759C20.8438 19.2969 20.2333 20.0619 19.2982 20.0619V20.0696Z" fill="#635BFF"/>
<path d="M28.3246 19.0497L27.235 15.0159H26.0913L25.0094 19.0497L23.9121 15.0159H22.4824L24.3139 21.1053H25.5194L26.6322 17.1178L27.745 21.1053H28.9505L30.782 15.0159H29.4065L28.3246 19.0497Z" fill="#635BFF"/>
<path d="M33.9037 14.9153C33.5027 14.9227 33.1075 15.0116 32.7419 15.1764C32.3764 15.3413 32.0481 15.5787 31.7771 15.8743C31.5061 16.1699 31.298 16.5174 31.1654 16.8959C31.0328 17.2744 30.9785 17.6758 31.0058 18.0759C30.9735 18.4822 31.0263 18.8907 31.161 19.2754C31.2956 19.6601 31.509 20.0125 31.7876 20.3099C32.0662 20.6074 32.4037 20.8435 32.7788 21.0031C33.1538 21.1626 33.558 21.2421 33.9655 21.2366C34.5258 21.2668 35.0814 21.1204 35.5541 20.8182C36.0269 20.516 36.3929 20.0731 36.6007 19.5519L35.4492 19.0728C35.3589 19.3714 35.1697 19.6305 34.9127 19.8074C34.6558 19.9843 34.3463 20.0686 34.0351 20.0465C33.8134 20.0518 33.593 20.012 33.3871 19.9296C33.1813 19.8472 32.9943 19.7239 32.8375 19.5671C32.6807 19.4103 32.5574 19.2234 32.475 19.0175C32.3926 18.8117 32.3529 18.5912 32.3581 18.3696H36.6239V17.9059C36.6393 16.2367 35.6965 14.9153 33.9037 14.9153ZM32.4122 17.3341C32.4664 16.9792 32.6474 16.656 32.9216 16.4244C33.1959 16.1928 33.5448 16.0685 33.9037 16.0744C34.0742 16.06 34.2459 16.0821 34.4072 16.1392C34.5685 16.1962 34.7159 16.287 34.8394 16.4054C34.963 16.5238 35.0599 16.6672 35.1237 16.826C35.1876 16.9848 35.2169 17.1553 35.2097 17.3263L32.4122 17.3341Z" fill="#635BFF"/>
<path d="M39.0736 15.9199V15.0158H37.6826V21.0975H39.0736V17.906C39.0612 17.6998 39.0927 17.4933 39.166 17.3001C39.2393 17.107 39.3527 16.9316 39.4988 16.7856C39.6448 16.6395 39.8202 16.5261 40.0133 16.4528C40.2065 16.3795 40.413 16.348 40.6192 16.3604C40.789 16.3484 40.9594 16.3484 41.1292 16.3604V14.9694C41.021 14.9694 40.8974 14.9694 40.7351 14.9694C40.3961 14.9519 40.0593 15.0321 39.7647 15.2006C39.4702 15.3692 39.2302 15.6189 39.0736 15.9199Z" fill="#635BFF"/>
<path d="M44.3207 14.9153C43.9197 14.9227 43.5245 15.0116 43.1589 15.1764C42.7934 15.3413 42.4651 15.5787 42.1941 15.8743C41.9231 16.1699 41.715 16.5174 41.5824 16.8959C41.4498 17.2744 41.3955 17.6758 41.4228 18.0759C41.3905 18.4822 41.4433 18.8907 41.578 19.2754C41.7126 19.6601 41.926 20.0125 42.2046 20.3099C42.4831 20.6074 42.8207 20.8435 43.1958 21.0031C43.5708 21.1626 43.975 21.2421 44.3825 21.2366C44.9376 21.2602 45.4864 21.1108 45.9529 20.809C46.4194 20.5072 46.7807 20.0679 46.9868 19.5519L45.7967 19.096C45.7063 19.3946 45.5171 19.6536 45.2602 19.8306C45.0032 20.0075 44.6937 20.0918 44.3825 20.0697C44.1654 20.0677 43.9508 20.0226 43.7513 19.9369C43.5517 19.8513 43.3712 19.7268 43.2202 19.5708C43.0692 19.4147 42.9508 19.2302 42.8717 19.028C42.7926 18.8258 42.7546 18.6098 42.7597 18.3928H47.0408V17.9291C47.0408 16.2367 46.0826 14.9153 44.3207 14.9153ZM42.8292 17.3341C42.8849 16.982 43.0655 16.6617 43.3379 16.4318C43.6104 16.2019 43.9565 16.0778 44.313 16.0822C44.4835 16.0678 44.6551 16.0898 44.8165 16.1469C44.9778 16.204 45.1252 16.2947 45.2487 16.4131C45.3722 16.5316 45.4692 16.6749 45.533 16.8337C45.5968 16.9925 45.6261 17.1631 45.6189 17.3341H42.8292Z" fill="#635BFF"/>
<path d="M52.1101 15.6881C51.8957 15.4365 51.6273 15.2363 51.325 15.1026C51.0227 14.9688 50.6941 14.9048 50.3637 14.9153C48.6558 14.9153 47.6821 16.345 47.6821 18.076C47.6821 19.807 48.6558 21.2366 50.3637 21.2366C50.6943 21.2488 51.0234 21.1856 51.326 21.0517C51.6286 20.9178 51.8968 20.7168 52.1101 20.4638V21.0975H53.5011V12.7825H52.1101V15.6881ZM52.1101 18.2769C52.1413 18.4972 52.1245 18.7217 52.0609 18.935C51.9973 19.1482 51.8884 19.3452 51.7417 19.5125C51.5949 19.6798 51.4138 19.8135 51.2106 19.9043C51.0075 19.9951 50.7871 20.041 50.5646 20.0388C49.5522 20.0388 49.019 19.266 49.019 18.0914C49.019 16.9168 49.56 16.144 50.5646 16.144C51.4223 16.144 52.1101 16.77 52.1101 17.9137V18.2769Z" fill="#635BFF"/>
<path d="M61.1903 14.9153C60.8536 14.9006 60.518 14.9625 60.2088 15.0964C59.8996 15.2302 59.6248 15.4326 59.4052 15.6881V12.7825H58.0142V21.0975H59.4052V20.4561C59.6208 20.7083 59.8904 20.9088 60.1941 21.0426C60.4978 21.1763 60.8277 21.24 61.1593 21.2289C62.8594 21.2289 63.8331 19.7915 63.8331 18.0682C63.8331 16.345 62.8904 14.9153 61.1903 14.9153ZM60.9507 20.0156C60.7282 20.0178 60.5078 19.9719 60.3046 19.8811C60.1015 19.7903 59.9203 19.6566 59.7736 19.4893C59.6268 19.3221 59.5179 19.125 59.4544 18.9118C59.3908 18.6985 59.374 18.474 59.4052 18.2537V17.8905C59.4052 16.7468 60.0543 16.1208 60.9507 16.1208C61.9553 16.1208 62.4962 16.8936 62.4962 18.0682C62.4962 19.2429 61.9167 20.0156 60.9507 20.0156Z" fill="#635BFF"/>
<path d="M67.0789 19.2893L65.5874 15.0159H64.1191L66.3602 20.8812L66.1283 21.4531C66.0889 21.649 65.9752 21.822 65.8109 21.9359C65.6466 22.0497 65.4447 22.0955 65.2474 22.0636C65.093 22.0748 64.9381 22.0748 64.7837 22.0636V23.2304C64.9704 23.2582 65.1591 23.2711 65.3479 23.2691C65.8303 23.3042 66.3098 23.1686 66.7024 22.8861C67.0951 22.6036 67.376 22.1921 67.4962 21.7235L69.9999 15.0622H68.5394L67.0789 19.2893Z" fill="#635BFF"/>
<path d="M103.29 12.43C102.895 12.4277 102.504 12.5034 102.138 12.6527C101.773 12.802 101.44 13.0219 101.16 13.3L101.02 12.61H98.6299V25.53L101.35 24.94V21.81C101.891 22.263 102.574 22.5109 103.28 22.51C105.22 22.51 107 20.92 107 17.4C107 14.18 105.2 12.43 103.29 12.43ZM102.64 20.06C102.401 20.0737 102.163 20.0342 101.941 19.9443C101.72 19.8543 101.521 19.7162 101.36 19.54V15.43C101.522 15.2473 101.723 15.1031 101.948 15.008C102.173 14.9128 102.416 14.8691 102.66 14.88C103.66 14.88 104.34 16.01 104.34 17.46C104.34 18.91 103.65 20.06 102.64 20.06Z" fill="#635BFF"/>
<path d="M112.02 12.4302C109.4 12.4302 107.81 14.6902 107.81 17.5402C107.81 20.9102 109.69 22.6202 112.37 22.6202C113.416 22.6372 114.449 22.3859 115.37 21.8902V19.6402C114.533 20.0623 113.607 20.275 112.67 20.2602C111.59 20.2602 110.67 19.8702 110.53 18.5602H115.91C115.91 18.4102 115.91 17.8202 115.91 17.5602C116 14.6902 114.64 12.4302 112.02 12.4302ZM110.55 16.5002C110.55 15.2402 111.32 14.7102 112 14.7102C112.68 14.7102 113.4 15.2402 113.4 16.5002H110.55Z" fill="#635BFF"/>
<path d="M91.2898 13.36L91.1198 12.54H88.7998V22.25H91.4798V15.67C91.7218 15.3762 92.0478 15.1632 92.4141 15.0595C92.7805 14.9559 93.1697 14.9665 93.5298 15.09V12.54C93.1207 12.3798 92.6671 12.3747 92.2545 12.5257C91.8419 12.6768 91.4988 12.9735 91.2898 13.36Z" fill="#635BFF"/>
<path d="M77.75 15.4601C77.75 15.0201 78.11 14.8501 78.68 14.8501C79.6247 14.8704 80.5506 15.1174 81.38 15.5701V12.9401C80.5225 12.5934 79.6049 12.4201 78.68 12.4301C76.47 12.4301 75 13.6101 75 15.5901C75 18.6901 79.14 18.1901 79.14 19.5201C79.14 20.0401 78.7 20.2101 78.14 20.2101C77.0835 20.1484 76.056 19.8401 75.14 19.3101V22.0001C76.0841 22.4212 77.1062 22.6392 78.14 22.6401C80.4 22.6401 81.96 21.4901 81.96 19.4801C81.91 16.1201 77.75 16.7201 77.75 15.4601Z" fill="#635BFF"/>
<path d="M85.5698 10.24L82.9198 10.82V19.75C82.9061 20.1263 82.9694 20.5015 83.1056 20.8526C83.2418 21.2036 83.4482 21.5233 83.7122 21.7919C83.9761 22.0605 84.292 22.2725 84.6406 22.4148C84.9893 22.5572 85.3633 22.627 85.7398 22.62C86.3968 22.6494 87.0513 22.5226 87.6498 22.25V20C87.2998 20.15 85.5898 20.66 85.5898 19V15H87.6498V12.66H85.5898L85.5698 10.24Z" fill="#635BFF"/>
<path d="M94.54 11.7L97.27 11.13V8.96997L94.54 9.53997V11.7Z" fill="#635BFF"/>
<path d="M97.27 12.6099H94.54V22.2499H97.27V12.6099Z" fill="#635BFF"/>
</g>
<defs>
<clipPath id="clip0">
<rect width="126" height="34" fill="white"/>
</clipPath>
</defs>
</svg>
