<svg width="44" height="32" viewBox="0 0 44 32" fill="none" xmlns="http://www.w3.org/2000/svg">
<rect x="0.75" y="0.75" width="42.5" height="30.5" rx="3.25" fill="white"/>
<rect x="0.75" y="0.75" width="42.5" height="30.5" rx="3.25" stroke="#E8E8E8" stroke-width="1.5"/>
<path fill-rule="evenodd" clip-rule="evenodd" d="M18.6369 24.5964L18.9184 22.6643L18.2913 22.6485H15.2969L17.3779 8.3903C17.3844 8.34712 17.4054 8.30704 17.436 8.27853C17.4667 8.25002 17.5059 8.23438 17.5469 8.23438H22.5961C24.2724 8.23438 25.4292 8.61122 26.0331 9.35514C26.3162 9.70413 26.4966 10.0689 26.5839 10.4702C26.6754 10.8914 26.6769 11.3945 26.5877 12.0082L26.5812 12.0529V12.4462L26.8643 12.6195C27.1027 12.7562 27.2922 12.9126 27.4376 13.0917C27.6797 13.3902 27.8364 13.7695 27.9026 14.219C27.971 14.6814 27.9484 15.2317 27.8364 15.8548C27.7072 16.5713 27.4984 17.1955 27.2162 17.7061C26.9569 18.1766 26.6264 18.567 26.2339 18.8694C25.8592 19.1568 25.4141 19.3749 24.9108 19.5146C24.4231 19.6518 23.867 19.721 23.2571 19.721H22.8642C22.5833 19.721 22.3104 19.8303 22.0961 20.0263C21.8812 20.2264 21.7392 20.4998 21.6956 20.7988L21.6659 20.9728L21.1685 24.3784L21.146 24.5034C21.14 24.543 21.1298 24.5627 21.1147 24.576C21.1013 24.5883 21.082 24.5964 21.0631 24.5964H18.6369Z" fill="#28356A"/>
<path fill-rule="evenodd" clip-rule="evenodd" d="M27.132 12.1016C27.1171 12.2057 27.0997 12.3121 27.0804 12.4214C26.4146 16.1156 24.1365 17.3918 21.2271 17.3918H19.7457C19.3898 17.3918 19.0899 17.6709 19.0346 18.0502L18.0613 24.7212C18.0253 24.9703 18.2029 25.1946 18.4354 25.1946H21.0629C21.3739 25.1946 21.6382 24.9504 21.6872 24.6189L21.713 24.4747L22.2077 21.0824L22.2395 20.8963C22.2879 20.5636 22.5529 20.3192 22.8639 20.3192H23.2568C25.8024 20.3192 27.7953 19.2025 28.3777 15.9707C28.621 14.6207 28.4951 13.4934 27.8512 12.7006C27.6564 12.4616 27.4147 12.2632 27.132 12.1016Z" fill="#298FC2"/>
<path fill-rule="evenodd" clip-rule="evenodd" d="M26.4381 11.8012C26.3363 11.7691 26.2314 11.7401 26.1237 11.7139C26.0155 11.6883 25.9046 11.6657 25.7905 11.6458C25.3911 11.576 24.9534 11.543 24.4846 11.543H20.5271C20.4296 11.543 20.337 11.5668 20.2542 11.6098C20.0716 11.7046 19.9361 11.8913 19.9032 12.1199L19.0612 17.8819L19.0371 18.0499C19.0924 17.6706 19.3923 17.3915 19.7482 17.3915H21.2296C24.139 17.3915 26.4171 16.1147 27.083 12.4211C27.1029 12.3118 27.1196 12.2054 27.1345 12.1013C26.9661 12.0047 26.7837 11.9221 26.5872 11.8517C26.5387 11.8343 26.4886 11.8175 26.4381 11.8012Z" fill="#22284F"/>
<path fill-rule="evenodd" clip-rule="evenodd" d="M19.9017 12.1188C19.9346 11.8902 20.0701 11.7035 20.2527 11.6093C20.3361 11.5662 20.4281 11.5424 20.5256 11.5424H24.4831C24.9519 11.5424 25.3896 11.5756 25.789 11.6454C25.9032 11.6651 26.014 11.6879 26.1222 11.7135C26.2299 11.7395 26.3348 11.7687 26.4366 11.8006C26.4871 11.8169 26.5372 11.8339 26.5862 11.8506C26.7826 11.921 26.9652 12.0043 27.1337 12.1002C27.3318 10.7351 27.132 9.80559 26.449 8.96391C25.6958 8.03719 24.3367 7.64062 22.5975 7.64062H17.5482C17.193 7.64062 16.8899 7.91972 16.835 8.29966L14.7319 22.7045C14.6905 22.9894 14.8939 23.2465 15.1599 23.2465H18.2771L19.9017 12.1188Z" fill="#28356A"/>
</svg>
