<svg width="17" height="16" viewBox="0 0 17 16" fill="none" xmlns="http://www.w3.org/2000/svg">
<path d="M4.03763 0.0275391C3.92238 0.0443799 3.65797 0.414878 2.12577 2.60419C1.14272 4.00198 0.342717 5.17241 0.335938 5.18926C0.335938 5.21452 1.1495 5.23136 2.15289 5.23136H3.97662L5.74611 2.66313C6.72238 1.25692 7.53594 0.0780615 7.5495 0.0528003C7.57662 0.00227776 4.29526 -0.0229834 4.03763 0.0275391Z" fill="white"/>
<path d="M9.14861 0.0475909C9.13505 0.0644318 9.93505 1.24329 10.9113 2.66634L12.7012 5.24299H14.5181C15.5215 5.24299 16.3351 5.22615 16.3351 5.20089C16.3283 5.18405 15.5215 4.01361 14.5317 2.59056L12.7351 0.0223298L10.9452 0.0139091C9.96895 0.00548872 9.15539 0.0223297 9.14861 0.0475909Z" fill="white"/>
<path d="M6.62647 2.69253C5.69087 4.0398 4.92477 5.16813 4.91799 5.18497C4.91121 5.20181 6.4502 5.22708 8.34172 5.22708C10.2332 5.22708 11.779 5.21866 11.779 5.20181C11.779 5.17655 11.2909 4.46924 9.04003 1.21896C8.67393 0.68847 8.36206 0.250608 8.3485 0.242188C8.33494 0.242188 7.55528 1.34526 6.62647 2.69253Z" fill="white"/>
<path d="M0.638374 6.40969C0.787527 6.60336 2.31295 8.59058 4.02143 10.8304C5.7299 13.0702 7.14007 14.9059 7.15363 14.9059C7.18075 14.9059 7.14685 14.8301 5.51973 10.3841L3.94685 6.08971L2.15702 6.07287L0.367188 6.06445L0.638374 6.40969Z" fill="white"/>
<path d="M4.69924 6.11498C4.76704 6.35075 8.31958 16.0005 8.33314 16.0005C8.35348 16.0005 11.8653 6.44337 11.967 6.13182C11.9806 6.07287 11.3501 6.06445 8.33314 6.06445C6.12297 6.06445 4.69246 6.08129 4.69924 6.11498Z" fill="white"/>
<path d="M12.67 6.23286C12.6428 6.32549 11.9581 8.19482 11.1581 10.3841C9.44284 15.0743 9.49708 14.9059 9.51741 14.9059C9.52419 14.9059 10.9344 13.0787 12.6496 10.8388C14.3649 8.599 15.8835 6.61178 16.0327 6.40969L16.3039 6.06445H14.5208H12.731L12.67 6.23286Z" fill="white"/>
</svg>
