<svg width="49" height="48" viewBox="0 0 49 48" fill="none" xmlns="http://www.w3.org/2000/svg">
<path opacity="0.4" d="M42.5 4V28.2C42.5 32 40.5 34 36.7 34H12.3C8.49999 34 6.5 32 6.5 28.2V4H42.5Z" fill="#3939A3"/>
<path d="M44.5 5.5H4.5C3.68 5.5 3 4.82 3 4C3 3.18 3.68 2.5 4.5 2.5H44.5C45.32 2.5 46 3.18 46 4C46 4.82 45.32 5.5 44.5 5.5Z" fill="#3939A3"/>
<path d="M33.8406 44.68C33.5806 45.2 33.0405 45.5 32.5005 45.5C32.2805 45.5 32.0406 45.44 31.8406 45.34L24.5005 41.68L17.1605 45.34C16.9605 45.44 16.7205 45.5 16.5005 45.5C15.9605 45.5 15.4205 45.2 15.1605 44.68C14.7805 43.92 15.0806 43.02 15.8406 42.66L23.0005 39.08V34H26.0005V39.08L33.1605 42.66C33.9205 43.02 34.2206 43.92 33.8406 44.68Z" fill="#3939A3"/>
<path d="M15.4999 23.5C15.0799 23.5 14.6399 23.32 14.3399 22.96C13.7999 22.32 13.8998 21.38 14.5398 20.84L20.8399 15.58C21.4199 15.1 22.1598 14.9 22.8598 15.02C23.5798 15.14 24.1999 15.5799 24.5799 16.2199L26.6798 19.7199L32.5398 14.84C33.1798 14.3 34.1198 14.4 34.6598 15.04C35.1998 15.68 35.0999 16.6199 34.4599 17.1599L28.1598 22.42C27.5798 22.9 26.8399 23.1 26.1399 22.98C25.4199 22.86 24.7998 22.42 24.4198 21.78L22.3199 18.28L16.4599 23.1599C16.1799 23.3799 15.8399 23.5 15.4999 23.5Z" fill="#3939A3"/>
</svg>
