<svg width="32" height="26" viewBox="0 0 32 26" fill="none" xmlns="http://www.w3.org/2000/svg">
<path d="M8.6274 24.3059C9.58675 25.2652 11.144 25.2652 12.1034 24.3059L24.0032 12.4061C24.3449 12.0644 24.6077 11.657 24.7785 11.2233C25.9744 11.5584 27.1375 11.7359 28.1625 11.7293C30.6989 11.7162 31.5399 10.6057 31.8159 9.94202C32.0919 9.28494 32.289 7.90506 30.5083 6.09151C30.4886 6.0718 30.4689 6.05209 30.4492 6.03237C29.3518 4.92847 27.742 3.90999 25.9284 3.15434C25.5933 3.01636 25.2582 2.89151 24.9297 2.77324V2.75352C24.91 1.2948 23.7272 0.118615 22.275 0.0989029L15.1391 0.000340276C14.1929 -0.0128014 13.2861 0.355166 12.6225 1.02539L0.722681 12.9252C-0.236662 13.8845 -0.236662 15.4418 0.722681 16.4012L8.6274 24.3059ZM17.8069 4.25825C18.6019 3.46317 19.8898 3.46317 20.6849 4.25825C21.158 4.73135 21.3486 5.38186 21.2566 5.99295C22.0385 6.5449 22.9716 7.05742 23.9703 7.47139C24.3251 7.61595 24.6668 7.74736 24.9954 7.85907L24.9559 4.99418C25.0151 5.02046 25.0677 5.04018 25.1268 5.06646C26.6841 5.71697 28.0837 6.59747 28.9839 7.49767C28.997 7.51081 29.0102 7.52395 29.0233 7.5371C29.8775 8.41102 29.9695 8.96954 29.8972 9.14038C29.6738 9.67262 27.2755 10.1457 23.6352 8.62785C22.5707 8.18104 21.572 7.62909 20.7638 7.03114C20.7375 7.06399 20.7046 7.09685 20.6783 7.1297C19.8833 7.92478 18.5954 7.92478 17.8003 7.1297C17.0118 6.3412 17.0118 5.05332 17.8069 4.25825Z" fill="white"/>
</svg>
