<svg width="18" height="19" viewBox="0 0 18 19" fill="none" xmlns="http://www.w3.org/2000/svg">
<path d="M13.2 6.61765V6.1999C13.2 4.3189 10.3628 2.8999 6.6 2.8999C2.83725 2.8999 0 4.3189 0 6.1999V9.1999C0 10.7667 1.96875 12.0117 4.8 12.3844V12.7999C4.8 14.6809 7.63725 16.0999 11.4 16.0999C15.1628 16.0999 18 14.6809 18 12.7999V9.7999C18 8.2474 16.0935 7.0009 13.2 6.61765ZM16.8 9.7999C16.8 10.7914 14.4908 11.8999 11.4 11.8999C11.1203 11.8999 10.8428 11.8902 10.569 11.8722C12.1868 11.2827 13.2 10.3249 13.2 9.1999V7.8304C15.4403 8.16415 16.8 9.07015 16.8 9.7999ZM4.8 11.1687V9.3844C5.39683 9.46217 5.99812 9.50075 6.6 9.4999C7.20188 9.50075 7.80317 9.46217 8.4 9.3844V11.1687C7.80405 11.2567 7.20241 11.3006 6.6 11.2999C5.99759 11.3006 5.39595 11.2567 4.8 11.1687ZM12 8.14465V9.1999C12 9.82915 11.0693 10.5049 9.6 10.9152V9.1624C10.5683 8.92765 11.388 8.57815 12 8.14465ZM6.6 4.0999C9.69075 4.0999 12 5.2084 12 6.1999C12 7.1914 9.69075 8.2999 6.6 8.2999C3.50925 8.2999 1.2 7.1914 1.2 6.1999C1.2 5.2084 3.50925 4.0999 6.6 4.0999ZM1.2 9.1999V8.14465C1.812 8.57815 2.63175 8.92765 3.6 9.1624V10.9152C2.13075 10.5049 1.2 9.82915 1.2 9.1999ZM6 12.7999V12.4872C6.19725 12.4947 6.39675 12.4999 6.6 12.4999C6.891 12.4999 7.17525 12.4902 7.45425 12.4737C7.76419 12.5846 8.0799 12.6787 8.4 12.7557V14.5152C6.93075 14.1049 6 13.4292 6 12.7999ZM9.6 14.7687V12.9799C10.1966 13.0601 10.798 13.1002 11.4 13.0999C12.0019 13.1008 12.6032 13.0622 13.2 12.9844V14.7687C12.0064 14.9436 10.7936 14.9436 9.6 14.7687ZM14.4 14.5152V12.7624C15.3683 12.5277 16.188 12.1782 16.8 11.7447V12.7999C16.8 13.4292 15.8693 14.1049 14.4 14.5152Z" fill="#4D6562"/>
</svg>
