<svg width="18" height="19" viewBox="0 0 18 19" fill="none" xmlns="http://www.w3.org/2000/svg">
<path opacity="0.3" fill-rule="evenodd" clip-rule="evenodd" d="M5.25 12.5C4.42157 12.5 3.75 13.1716 3.75 14V14.75C3.75 15.5784 4.42157 16.25 5.25 16.25C6.07843 16.25 6.75 15.5784 6.75 14.75V14C6.75 13.1716 6.07843 12.5 5.25 12.5ZM12.75 12.5C11.9216 12.5 11.25 13.1716 11.25 14V14.75C11.25 15.5784 11.9216 16.25 12.75 16.25C13.5784 16.25 14.25 15.5784 14.25 14.75V14C14.25 13.1716 13.5784 12.5 12.75 12.5Z" fill="white"/>
<path fill-rule="evenodd" clip-rule="evenodd" d="M4.25 3.5C3.14543 3.5 2.25 4.39543 2.25 5.5V12.75C2.25 13.8546 3.14543 14.75 4.25 14.75H13.75C14.8546 14.75 15.75 13.8546 15.75 12.75V5.5C15.75 4.39543 14.8546 3.5 13.75 3.5H4.25ZM14.25 9.125C14.25 10.5747 13.0747 11.75 11.625 11.75C10.1753 11.75 9 10.5747 9 9.125C9 7.67525 10.1753 6.5 11.625 6.5C13.0747 6.5 14.25 7.67525 14.25 9.125ZM11.625 10.25C12.2463 10.25 12.75 9.74632 12.75 9.125C12.75 8.50368 12.2463 8 11.625 8C11.0037 8 10.5 8.50368 10.5 9.125C10.5 9.74632 11.0037 10.25 11.625 10.25ZM5.25 6.5C4.83579 6.5 4.5 6.83579 4.5 7.25V8.75C4.5 9.16421 4.83579 9.5 5.25 9.5C5.66421 9.5 6 9.16421 6 8.75V7.25C6 6.83579 5.66421 6.5 5.25 6.5Z" fill="white"/>
</svg>
