<svg width="103" height="80" viewBox="0 0 103 80" fill="none" xmlns="http://www.w3.org/2000/svg">
<g clip-path="url(#clip0)">
<path d="M13.6673 35.3333H87.834C89.6673 35.3333 91.1673 36.8333 91.1673 38.6666V76.6666C91.1673 78.5 89.6673 80 87.834 80H13.6673C11.834 80 10.334 78.5 10.334 76.6666V38.6666C10.334 36.8333 11.834 35.3333 13.6673 35.3333Z" fill="#3DA8FB"/>
<path d="M8.66732 23.6667H92.834C94.6673 23.6667 96.1673 25.1667 96.1673 27V65C96.1673 66.8334 94.6673 68.3334 92.834 68.3334H8.66732C6.83398 68.3334 5.33398 66.8334 5.33398 65V27C5.33398 25.1667 6.83398 23.6667 8.66732 23.6667Z" fill="#0A4586"/>
<path d="M3.33333 0H98.8333C100.667 0 102.167 1.5 102.167 3.33333V53C102.167 54.8333 100.667 56.3333 98.8333 56.3333H3.33333C1.5 56.3333 0 54.8333 0 53V3.33333C0 1.5 1.5 0 3.33333 0Z" fill="#FF3333"/>
<path d="M93.5 39.5V15.1667C89.8333 15.1667 86.8333 12.1667 86.8333 8.5H85.1667H15.1667C15.1667 12.1667 12.1667 15.1667 8.5 15.1667V41C12.1667 41 15.1667 44 15.1667 47.6667H86.8333C86.8333 44 89.8333 41 93.5 41C93.5 41.1667 93.5 39.5 93.5 39.5Z" fill="white"/>
<path d="M50.9993 40C57.5347 40 62.8327 34.702 62.8327 28.1666C62.8327 21.6313 57.5347 16.3333 50.9993 16.3333C44.464 16.3333 39.166 21.6313 39.166 28.1666C39.166 34.702 44.464 40 50.9993 40Z" fill="#3DA8FB"/>
</g>
<defs>
<clipPath id="clip0">
<rect width="102.167" height="80" fill="white"/>
</clipPath>
</defs>
</svg>
