<svg width="18" height="19" viewBox="0 0 18 19" fill="none" xmlns="http://www.w3.org/2000/svg">
<path d="M17.6379 8.56882L12.4043 3.29951C11.0065 1.90454 9.11242 1.12109 7.13766 1.12109C5.16291 1.12109 3.26882 1.90454 1.87107 3.29951L1.86409 3.30649L0.795795 4.41047C0.685131 4.52939 0.625506 4.68697 0.62972 4.84936C0.633934 5.01176 0.701651 5.16603 0.818334 5.27906C0.935017 5.39208 1.09136 5.45486 1.25381 5.4539C1.41626 5.45295 1.57186 5.38834 1.6872 5.27394L2.75239 4.17384C3.18094 3.74538 3.66999 3.38206 4.20393 3.09547L7.81146 6.70687L0.363668 14.1547C0.248373 14.2699 0.156914 14.4068 0.0945153 14.5574C0.0321165 14.708 0 14.8695 0 15.0325C0 15.1955 0.0321165 15.357 0.0945153 15.5076C0.156914 15.6582 0.248373 15.795 0.363668 15.9103L1.96882 17.5155C2.08409 17.6308 2.22094 17.7222 2.37156 17.7846C2.52218 17.847 2.68362 17.8791 2.84665 17.8791C3.00969 17.8791 3.17112 17.847 3.32174 17.7846C3.47236 17.7222 3.60921 17.6308 3.72448 17.5155L11.1723 10.0677L12.2848 11.1802L13.6549 12.5487C13.7701 12.664 13.907 12.7555 14.0576 12.8179C14.2082 12.8803 14.3697 12.9124 14.5327 12.9124C14.6957 12.9124 14.8572 12.8803 15.0078 12.8179C15.1584 12.7555 15.2953 12.664 15.4105 12.5487L17.6363 10.3229C17.8689 10.0904 17.9997 9.77507 18 9.44619C18.0003 9.11731 17.8701 8.80175 17.6379 8.56882ZM2.84626 16.6373L1.24189 15.0321L6.5174 9.75658L8.12178 11.3617L2.84626 16.6373ZM10.7332 8.7488L9 10.4827L7.39485 8.87914L9.12878 7.1452C9.18649 7.08756 9.23227 7.01911 9.2635 6.94376C9.29474 6.86842 9.31081 6.78766 9.31081 6.70609C9.31081 6.62453 9.29474 6.54377 9.2635 6.46842C9.23227 6.39307 9.18649 6.32463 9.12878 6.26698L5.45609 2.59507C6.5172 2.29622 7.63875 2.28539 8.70542 2.56368C9.7721 2.84198 10.7454 3.39935 11.5253 4.1785L14.9559 7.63164L12.7239 9.86132L11.6114 8.7488C11.5537 8.6911 11.4853 8.64532 11.4099 8.61409C11.3346 8.58285 11.2538 8.56678 11.1723 8.56678C11.0907 8.56678 11.0099 8.58285 10.9346 8.61409C10.8593 8.64532 10.7908 8.6911 10.7332 8.7488ZM14.5346 11.6705L13.6037 10.7395L15.8271 8.51063L16.7581 9.4416L14.5346 11.6705Z" fill="#4D6562"/>
</svg>
