<svg width="47" height="42" viewBox="0 0 47 42" fill="none" xmlns="http://www.w3.org/2000/svg">
<path d="M22.8181 8.3C26.2702 8.10753 29.701 8.93563 32.5151 10.6969" stroke="black" stroke-width="1.5" stroke-linecap="round" stroke-linejoin="round"/>
<path d="M45.8485 16.7576C45.8485 18.7648 44.2194 20.3939 42.2122 20.3939" stroke="black" stroke-width="1.5" stroke-linecap="round" stroke-linejoin="round"/>
<path fill-rule="evenodd" clip-rule="evenodd" d="M18.7526 4.57623C16.8883 1.19977 12.6905 -0.0295014 9.34055 1.94898C11.1264 3.00751 12.4059 4.86346 12.7062 7.04481C8.59481 9.58971 5.72958 13.5346 5.07019 18.0741H1V26.1085H6.29281C9.06188 31.9957 15.7481 36.1515 23.5685 36.1515C33.8657 36.1515 42.2121 28.9587 42.2121 20.0827C42.2121 9.70219 30.818 1.7923 18.7526 4.57623V4.57623Z" stroke="black" stroke-width="1.5" stroke-linecap="round" stroke-linejoin="round"/>
<path fill-rule="evenodd" clip-rule="evenodd" d="M11.9091 16.7575C11.9091 17.4266 11.3661 17.9697 10.697 17.9697C10.0279 17.9697 9.48486 17.4266 9.48486 16.7575C9.48486 16.0933 10.0279 15.5454 10.697 15.5454C11.3661 15.5454 11.9091 16.0933 11.9091 16.7575V16.7575Z" stroke="black" stroke-width="1.5" stroke-linecap="round" stroke-linejoin="round"/>
<path d="M14.3333 34.9395V41.0001" stroke="black" stroke-width="1.5" stroke-linecap="round" stroke-linejoin="round"/>
<path d="M31.303 34.9395V41.0001" stroke="black" stroke-width="1.5" stroke-linecap="round" stroke-linejoin="round"/>
</svg>
