<svg width="49" height="44" viewBox="0 0 49 44" fill="none" xmlns="http://www.w3.org/2000/svg">
<path fill-rule="evenodd" clip-rule="evenodd" d="M32.3871 12.3553C32.1673 13.525 30.9215 14.3291 29.7489 14.0367C28.5772 13.8174 27.7703 12.6477 28.0642 11.4049C28.2833 10.2353 29.4558 9.4311 30.7016 9.72352C31.8749 10.0159 32.6077 11.1856 32.3871 12.3553M30.9955 8.33452C28.9436 7.89589 27.0375 9.21178 26.6711 11.1856C26.2321 13.1595 27.4779 15.1333 29.5298 15.4988C31.581 15.9374 33.4863 14.6216 33.8527 12.6477C34.2192 10.6739 32.9741 8.70005 30.9955 8.33452" fill="black"/>
<mask id="mask0" mask-type="alpha" maskUnits="userSpaceOnUse" x="12" y="30" width="37" height="14">
<path fill-rule="evenodd" clip-rule="evenodd" d="M12.4409 30.879H48.8834V44H12.4409V30.879Z" fill="white"/>
</mask>
<g mask="url(#mask0)">
<path fill-rule="evenodd" clip-rule="evenodd" d="M45.1518 42.2763C41.1731 40.25 33.8038 40.394 29.8981 40.9736C28.8657 41.1907 27.3918 41.2631 26.5075 40.6118C25.4766 39.7434 18.1065 35.9802 14.8641 34.3881C14.2008 34.0986 13.5383 33.5921 13.9068 33.0131C14.2753 32.5065 14.7904 32.3618 15.3062 32.5789L24.3704 35.546C24.5922 36.5592 25.6232 37.4992 27.2445 37.6447C28.2769 37.7171 29.3079 37.7171 30.3396 37.5723C30.708 37.4992 31.0765 37.2105 31.0035 36.7755C30.9291 36.4137 30.6351 36.0519 30.1922 36.125C29.0868 36.1973 27.9814 36.1973 27.3189 36.1973C25.3292 36.125 25.2547 34.171 27.2445 34.171C32.5503 33.9539 37.4141 32.6513 37.7088 32.5789C39.1097 32.0716 40.5836 32.5065 41.7619 33.375C43.3095 34.5328 45.0781 35.546 47.0686 36.4137L45.1518 42.2763ZM37.3404 31.1315C37.2674 31.1315 32.4029 32.5065 27.3189 32.6513C26.582 32.6513 25.1811 32.9407 24.6652 34.0263L15.9695 31.2039C13.4639 30.1184 10.3688 33.7368 14.3482 35.6184C15.5273 36.1973 24.6652 40.8289 25.6976 41.6973C26.5075 42.3486 28.2769 42.7828 30.2666 42.3486C34.3197 41.7697 41.689 41.6249 45.2262 43.8684C45.6677 44.1578 46.1835 43.9407 46.3316 43.5065L48.8364 36.1973C48.9838 35.8355 48.7628 35.4736 48.468 35.3282C46.3316 34.3881 44.4893 33.3026 42.8673 32.1447C40.9521 30.8421 38.9623 30.6242 37.3404 31.1315V31.1315Z" fill="black"/>
</g>
<path fill-rule="evenodd" clip-rule="evenodd" d="M1.49147 11.6454C6.26418 11.3551 7.83023 9.39497 9.91829 8.52381C11.1115 7.87045 13.125 7.21708 14.3181 7.72526C14.3181 7.79785 13.1995 12.807 13.2741 12.444C12.6029 12.3714 12.3046 12.0084 12.3046 12.0084C12.0809 11.718 11.6335 11.5729 11.2606 11.7906C10.8877 12.0084 10.8132 12.444 11.0369 12.807C12.2301 14.6219 15.735 13.6055 17.9722 13.8959C18.718 13.8959 19.3891 14.4767 19.3891 15.2753C19.3891 16.0738 18.7925 16.6546 17.9722 16.6546H11.7826C11.4843 16.6546 11.2606 16.7272 11.0369 16.7998C10.7386 16.945 10.2166 17.2353 9.84372 17.8161C8.94883 19.268 6.41333 20.1392 4.62356 20.1392C3.50496 20.1392 2.38636 19.8488 1.4169 19.1954V11.6454H1.49147ZM20.8806 15.1301C20.806 13.7507 19.762 12.6618 18.3451 12.5166L19.4637 7.43487C20.7315 7.43487 21.8501 6.70891 22.3721 5.61997L39.7477 9.17718C39.7477 9.75795 39.9715 10.3387 40.2697 10.8469C40.6426 11.3551 41.0901 11.718 41.6121 12.0084L40.568 16.7272C39.3749 16.7272 38.1817 17.4531 37.6597 18.5421L20.8806 15.1301ZM17.2265 1.55459L46.0865 7.50747L42.8053 22.6801C41.2392 22.3897 17.7485 17.5257 19.24 17.8161C19.8366 17.5257 20.284 17.0902 20.5823 16.582L38.0325 20.1392C38.4054 20.2118 38.8528 19.994 38.9274 19.5584C39.1511 18.6147 40.046 18.0339 41.0155 18.2517C41.3884 18.3243 41.8358 18.1065 41.9104 17.6709L43.1781 11.6454C43.2527 11.2825 43.029 10.8469 42.5815 10.7743C42.1341 10.7017 41.6866 10.4113 41.4629 10.0483C41.2392 9.68535 41.0901 9.17718 41.2392 8.7416C41.3138 8.52381 41.2392 8.37862 41.1646 8.16083C41.0901 8.01564 40.8663 7.87045 40.7172 7.87045L21.9992 4.09545C21.6263 4.02286 21.1789 4.24064 21.1043 4.67622C20.8806 5.61997 19.9112 6.20074 19.0163 5.98295C18.7925 5.91035 18.6434 5.98295 18.4197 6.05555C18.2705 6.12814 18.1214 6.34593 18.1214 6.49112L16.8536 12.444H14.8401C18.1214 -2.4382 17.0028 2.71613 17.2265 1.55459V1.55459ZM24.2364 21.8089C24.311 22.3171 23.9381 22.7526 23.4161 22.8252C22.8941 22.8978 22.4467 22.5349 22.3721 22.0267L22.1484 19.9214H22.2229L24.0127 20.2844L24.2364 21.8089ZM16.8536 23.9142C16.5553 24.2772 15.9588 24.3498 15.5859 24.0594C15.213 23.769 15.1384 23.1882 15.4367 22.8252L18.4943 19.1954L20.5077 19.631L16.8536 23.9142ZM13.4978 19.994L14.8401 18.3969L16.8536 18.8325L14.9147 21.1555C14.6164 21.5185 14.0198 21.5911 13.647 21.3007C13.2741 20.9377 13.1995 20.4296 13.4978 19.994V19.994ZM0.298294 20.2118C1.64062 21.1555 3.13209 21.5911 4.69814 21.5911C6.93535 21.5911 9.99286 20.5022 11.186 18.5421C11.3352 18.2517 11.5589 18.1065 11.6335 18.1065H11.8572H13.1995L12.3792 19.1228C11.5589 20.1392 11.7081 21.5911 12.6775 22.3897C12.9758 22.6801 13.4232 22.8252 13.7961 22.8978C13.647 23.6964 13.8707 24.5676 14.6164 25.1483C15.6605 25.9469 17.1519 25.8017 17.9722 24.8579L20.806 21.5185L20.8806 22.2445C21.0298 23.5512 22.2975 24.4224 23.5653 24.2772C24.9076 24.132 25.8025 22.9704 25.6533 21.6637L25.5787 20.6474L43.1781 24.2772C43.551 24.3498 43.9984 24.132 44.073 23.6964L47.6525 7.14449C47.7271 6.78151 47.5034 6.34593 47.0559 6.27333L16.7791 0.0300703C16.5553 -0.0425258 16.4062 0.0300703 16.1825 0.102666C16.0333 0.175262 15.8842 0.393051 15.8842 0.538243L14.6164 6.27333C12.9012 5.76516 10.7386 6.41853 9.17255 7.21708C7.53193 7.79785 5.44387 10.1935 0.745736 10.1935C0.522015 10.1935 0.372868 10.2661 0.223721 10.4113C0.0745736 10.5565 0 10.7017 0 10.9195V19.5584C0 19.8488 0.149147 20.0666 0.298294 20.2118V20.2118Z" fill="black"/>
</svg>
