<svg width="18" height="19" viewBox="0 0 18 19" fill="none" xmlns="http://www.w3.org/2000/svg">
<path opacity="0.3" fill-rule="evenodd" clip-rule="evenodd" d="M4.5 6.5C4.08579 6.5 3.75 6.83579 3.75 7.25V11.75C3.75 12.1642 4.08579 12.5 4.5 12.5C4.91421 12.5 5.25 12.1642 5.25 11.75V10.25H11.25C12.9069 10.25 14.25 8.90685 14.25 7.25V6.5H12.75V7.25C12.75 8.07843 12.0784 8.75 11.25 8.75H5.25V7.25C5.25 6.83579 4.91421 6.5 4.5 6.5Z" fill="#3800D8"/>
<path fill-rule="evenodd" clip-rule="evenodd" d="M1.5 14.75C1.5 16.4069 2.84315 17.75 4.5 17.75C6.15685 17.75 7.5 16.4069 7.5 14.75C7.5 13.0931 6.15685 11.75 4.5 11.75C2.84315 11.75 1.5 13.0931 1.5 14.75ZM6 14.75C6 15.5784 5.32843 16.25 4.5 16.25C3.67157 16.25 3 15.5784 3 14.75C3 13.9216 3.67157 13.25 4.5 13.25C5.32843 13.25 6 13.9216 6 14.75Z" fill="#3800D8"/>
<path fill-rule="evenodd" clip-rule="evenodd" d="M10.5 4.25C10.5 5.90685 11.8431 7.25 13.5 7.25C15.1569 7.25 16.5 5.90685 16.5 4.25C16.5 2.59315 15.1569 1.25 13.5 1.25C11.8431 1.25 10.5 2.59315 10.5 4.25ZM15 4.25C15 5.07843 14.3284 5.75 13.5 5.75C12.6716 5.75 12 5.07843 12 4.25C12 3.42157 12.6716 2.75 13.5 2.75C14.3284 2.75 15 3.42157 15 4.25Z" fill="#3800D8"/>
<path fill-rule="evenodd" clip-rule="evenodd" d="M1.5 4.25C1.5 5.90685 2.84315 7.25 4.5 7.25C6.15685 7.25 7.5 5.90685 7.5 4.25C7.5 2.59315 6.15685 1.25 4.5 1.25C2.84315 1.25 1.5 2.59315 1.5 4.25ZM6 4.25C6 5.07843 5.32843 5.75 4.5 5.75C3.67157 5.75 3 5.07843 3 4.25C3 3.42157 3.67157 2.75 4.5 2.75C5.32843 2.75 6 3.42157 6 4.25Z" fill="#3800D8"/>
</svg>
