<svg width="80" height="80" viewBox="0 0 80 80" fill="none" xmlns="http://www.w3.org/2000/svg">
<path d="M80 0H0V80H80V0Z" fill="url(#paint0_linear)"/>
<path d="M78 2H2V78H78V2Z" fill="white"/>
<path d="M40 25.449C38.239 25.449 36.517 25.9713 35.052 26.9499C33.588 27.9285 32.446 29.3194 31.772 30.9468C31.098 32.5742 30.922 34.3649 31.265 36.0924C31.609 37.82 32.457 39.4069 33.703 40.6525C34.948 41.898 36.535 42.7462 38.263 43.0899C39.99 43.4335 41.781 43.2571 43.408 42.583C45.036 41.909 46.427 40.7675 47.405 39.3029C48.384 37.8383 48.906 36.1164 48.906 34.355C48.903 31.9938 47.964 29.73 46.295 28.0604C44.625 26.3908 42.361 25.4516 40 25.449Z" fill="#411512"/>
<path d="M52.584 29.9409C51.672 27.3288 49.9711 25.065 47.7151 23.4631C45.4591 21.8613 42.7611 21.0007 39.9941 21.0007C37.2271 21.0007 34.5291 21.8613 32.2731 23.4631C30.0181 25.065 28.3161 27.3288 27.4041 29.9409C26.5851 30.0252 25.8271 30.4094 25.2751 31.0197C24.7221 31.6299 24.4151 32.4229 24.4131 33.2459V35.4729C24.4141 36.3584 24.7661 37.2074 25.3931 37.8335C26.0191 38.4597 26.8681 38.8119 27.7531 38.8129H29.813C29.191 37.4108 28.8691 35.8939 28.8691 34.3599C28.8691 32.826 29.191 31.3091 29.813 29.9069C30.617 28.0689 31.9031 26.4823 33.5341 25.3152C35.1661 24.148 37.082 23.4436 39.082 23.2766C41.081 23.1096 43.0881 23.4861 44.8901 24.3664C46.6931 25.2466 48.2241 26.5979 49.3221 28.277C50.4191 29.9562 51.043 31.9009 51.126 33.9053C51.208 35.9097 50.7481 37.8992 49.7931 39.6632C48.8371 41.4273 47.423 42.9003 45.699 43.9264C43.975 44.9524 42.0061 45.4934 40.0001 45.4919C39.7051 45.4919 39.4221 45.6093 39.2131 45.8181C39.0041 46.0269 38.8871 46.3101 38.8871 46.6054C38.8871 46.9008 39.0041 47.184 39.2131 47.3928C39.4221 47.6016 39.7051 47.7189 40.0001 47.7189C42.7661 47.7144 45.4631 46.852 47.7181 45.2507C49.9741 43.6493 51.6771 41.3879 52.5931 38.7779C53.4111 38.6941 54.169 38.3107 54.722 37.7015C55.274 37.0923 55.5821 36.3004 55.5861 35.4779V33.2459C55.5831 32.4213 55.275 31.6269 54.72 31.0165C54.166 30.406 53.405 30.0228 52.584 29.9409Z" fill="#D92400"/>
<path d="M49.598 46.6139C46.863 48.7718 43.4819 49.9455 39.9979 49.9459C39.1129 49.9448 38.264 49.5926 37.637 48.9665C37.011 48.3403 36.659 47.4914 36.658 46.6059C36.662 46.0629 36.7989 45.5291 37.0579 45.0519C35.7369 44.6842 34.4929 44.0787 33.3889 43.2649C31.9899 44.3075 30.852 45.662 30.067 47.2207C29.282 48.7795 28.8709 50.4997 28.8669 52.2449V55.6649C28.8679 56.5504 29.2199 57.3993 29.8459 58.0255C30.4729 58.6516 31.3219 59.0038 32.2069 59.0049H47.793C48.679 59.0038 49.5269 58.6516 50.1539 58.0255C50.7799 57.3993 51.1319 56.5504 51.1329 55.6649V52.2509C51.1299 50.269 50.601 48.3235 49.598 46.6139Z" fill="#411512"/>
<defs>
<linearGradient id="paint0_linear" x1="4.8" y1="-1.20779e-06" x2="80" y2="85.52" gradientUnits="userSpaceOnUse">
<stop stop-color="#D92400"/>
<stop offset="0.527" stop-color="#D90039" stop-opacity="0.098"/>
<stop offset="1" stop-color="#D90039"/>
</linearGradient>
</defs>
</svg>
