<svg width="48" height="48" viewBox="0 0 48 48" fill="none" xmlns="http://www.w3.org/2000/svg">
<g clip-path="url(#clip0_387_24817)">
<path d="M44 0H3.99999C1.79194 0.00260617 0.00260617 1.79194 0 3.99999V44C0.00260617 46.2081 1.79194 47.9974 3.99999 48H44C46.2081 47.9973 47.9974 46.2081 48 44V3.99999C47.9974 1.79194 46.2081 0.00260617 44 0ZM46.4001 44C46.4001 45.3255 45.3255 46.4 44.0001 46.4H3.99999C2.67448 46.4 1.60003 45.3254 1.60003 44V3.99999C1.60003 2.67448 2.67456 1.60003 3.99999 1.60003H44C45.3255 1.60003 46.4 2.67456 46.4 3.99999V44H46.4001Z" fill="#000C28"/>
<path fill-rule="evenodd" clip-rule="evenodd" d="M44.0002 6.39844H4.00021C3.55835 6.39844 3.2002 6.75659 3.2002 7.19845C3.2002 7.64032 3.55835 7.99847 4.00021 7.99847H44.0002C44.4421 7.99847 44.8002 7.64032 44.8002 7.19845C44.8002 6.75659 44.4421 6.39844 44.0002 6.39844Z" fill="#000C28"/>
<path d="M4.80001 4.79925C5.24185 4.79925 5.60003 4.44107 5.60003 3.99923C5.60003 3.5574 5.24185 3.19922 4.80001 3.19922C4.35818 3.19922 4 3.5574 4 3.99923C4 4.44107 4.35818 4.79925 4.80001 4.79925Z" fill="#000C28"/>
<path d="M8.00021 4.79925C8.44205 4.79925 8.80022 4.44107 8.80022 3.99923C8.80022 3.5574 8.44205 3.19922 8.00021 3.19922C7.55837 3.19922 7.2002 3.5574 7.2002 3.99923C7.2002 4.44107 7.55837 4.79925 8.00021 4.79925Z" fill="#000C28"/>
<path d="M11.2004 4.79925C11.6422 4.79925 12.0004 4.44107 12.0004 3.99923C12.0004 3.5574 11.6422 3.19922 11.2004 3.19922C10.7586 3.19922 10.4004 3.5574 10.4004 3.99923C10.4004 4.44107 10.7586 4.79925 11.2004 4.79925Z" fill="#000C28"/>
<path fill-rule="evenodd" clip-rule="evenodd" d="M20.1736 27.2185C19.7427 27.1264 19.3175 27.3971 19.2184 27.8265L18.0536 33.0689L16.6856 30.7881C16.5304 30.5623 16.274 30.4274 16 30.4274C15.7261 30.4274 15.4696 30.5623 15.3145 30.7881L13.9465 33.0689L12.7817 27.8265C12.6858 27.3948 12.2581 27.1226 11.8265 27.2184C11.3948 27.3143 11.1226 27.742 11.2184 28.1736L12.8185 35.3736C12.8888 35.6936 13.1472 35.9384 13.4706 35.9913C13.794 36.0443 14.117 35.8946 14.2857 35.6136L16 32.7544L17.7144 35.612C17.859 35.8527 18.1193 36 18.4 36C18.4429 36.0001 18.4857 35.9966 18.528 35.9896C18.8515 35.9375 19.1105 35.6934 19.1816 35.3736L20.7817 28.1736C20.8279 27.9663 20.7898 27.7491 20.6757 27.57C20.5616 27.3908 20.381 27.2644 20.1736 27.2185Z" fill="#000C28"/>
<path fill-rule="evenodd" clip-rule="evenodd" d="M24.0002 27.1992C23.5583 27.1992 23.2002 27.5574 23.2002 27.9992V35.1992C23.2002 35.6411 23.5583 35.9992 24.0002 35.9992C24.4421 35.9992 24.8002 35.6411 24.8002 35.1992V27.9992C24.8002 27.5574 24.442 27.1992 24.0002 27.1992Z" fill="#000C28"/>
<path fill-rule="evenodd" clip-rule="evenodd" d="M35.2003 27.1992C34.7584 27.1992 34.4002 27.5574 34.4002 27.9992V33.268L28.5658 27.4336C28.337 27.2049 27.993 27.1365 27.6941 27.2603C27.3952 27.3841 27.2003 27.6757 27.2002 27.9992V35.1992C27.2002 35.6411 27.5583 35.9992 28.0002 35.9992C28.4421 35.9992 28.8002 35.6411 28.8002 35.1992V29.9304L34.6346 35.7648C34.7846 35.9149 34.9881 35.9991 35.2003 35.9992C35.3055 35.9995 35.4096 35.9789 35.5067 35.9384C35.8055 35.8145 36.0004 35.5228 36.0003 35.1992V27.9992C36.0003 27.5574 35.6421 27.1992 35.2003 27.1992Z" fill="#000C28"/>
<path d="M39.0709 23.0623L39.7437 22.284C40.1095 21.8606 40.2274 21.2769 40.0548 20.7447C39.8822 20.2125 39.4443 19.8091 38.8997 19.6807L37.3797 19.3215L36.5653 17.9832C36.2751 17.5058 35.7568 17.2143 35.1981 17.2143C34.6393 17.2143 34.1211 17.5057 33.8309 17.9832L33.0572 19.2551C32.2316 18.9309 31.3871 18.6565 30.5285 18.4336L30.9421 17.9535C31.3078 17.5302 31.4257 16.9465 31.2532 16.4142C31.0807 15.882 30.6427 15.4786 30.0981 15.3503L27.015 14.6231L25.3653 11.9095C25.0751 11.4321 24.5569 11.1406 23.9981 11.1406C23.4394 11.1406 22.9212 11.432 22.6309 11.9095L20.9813 14.6231L17.8981 15.3503C17.3538 15.4787 16.9161 15.882 16.7436 16.4139C16.571 16.9458 16.6888 17.5293 17.0541 17.9527L17.4677 18.4327C16.6091 18.6556 15.7646 18.93 14.9389 19.2543L14.1653 17.9823C13.8751 17.5049 13.3568 17.2134 12.7981 17.2134C12.2393 17.2134 11.7211 17.5048 11.4309 17.9823L10.6165 19.3207L9.09645 19.6799C8.55216 19.8083 8.11448 20.2116 7.94192 20.7435C7.76944 21.2755 7.88711 21.8588 8.25245 22.2822L8.92445 23.0614C6.86155 24.9519 5.6605 27.6032 5.59961 30.4006C5.59961 37.4582 13.8532 43.2006 23.9996 43.2006C34.1461 43.2006 42.3997 37.4582 42.3997 30.4006C42.338 27.6029 41.1354 24.9518 39.0709 23.0623ZM34.3854 20.1528L35.1998 18.8144L36.0134 20.1512C36.2362 20.518 36.5966 20.7804 37.0141 20.88L38.5341 21.2376L37.5142 22.42C37.4012 22.5545 37.3114 22.707 37.2486 22.8711L37.243 22.8831C37.1515 23.1099 37.1135 23.3545 37.1318 23.5983L37.2598 25.1535L35.8198 24.5503C35.4243 24.3839 34.9785 24.3839 34.583 24.5503L33.1429 25.1535L33.271 23.5983C33.306 23.1698 33.168 22.7452 32.8878 22.4192L31.8686 21.2383L33.3014 20.8999C33.3175 20.8999 33.3326 20.8935 33.3479 20.8887L33.387 20.88C33.8034 20.7803 34.1628 20.5186 34.3854 20.1528ZM21.3502 16.1824C21.7668 16.0822 22.1265 15.8206 22.3502 15.4552L23.9998 12.7416L25.6502 15.4544C25.8732 15.8206 26.2332 16.0827 26.6502 16.1824L29.7326 16.9088L27.6622 19.3087C27.3832 19.6342 27.2456 20.0574 27.2798 20.4848L27.5413 23.6448L24.6182 22.4192C24.2225 22.2538 23.7771 22.2538 23.3813 22.4192L20.459 23.644L20.7189 20.4864C20.7543 20.0583 20.6166 19.6338 20.3365 19.308L18.2669 16.9081L21.3502 16.1824ZM10.9854 20.8807C11.4024 20.7815 11.7624 20.5197 11.9854 20.1535L12.7997 18.8144L13.6133 20.1512C13.8362 20.518 14.1966 20.7804 14.6141 20.88L14.6533 20.8887C14.6684 20.8935 14.6845 20.8959 14.7005 20.8999L16.1325 21.2376L15.1124 22.42C14.8327 22.7459 14.695 23.1702 14.73 23.5983L14.8581 25.1535L13.418 24.5503C13.0225 24.3839 12.5767 24.3839 12.1812 24.5503L10.7412 25.1535L10.8692 23.5983C10.8874 23.3549 10.8495 23.1104 10.758 22.8839L10.7516 22.8696C10.6887 22.7058 10.5989 22.5536 10.486 22.4192L9.46685 21.2383L10.9854 20.8807ZM23.9998 41.6008C14.7366 41.6008 7.1998 36.5768 7.1998 30.4008C7.2287 28.4878 7.91902 26.6439 9.1534 25.1823C9.15719 25.7125 9.42586 26.2057 9.8693 26.4963C10.3127 26.787 10.8721 26.8367 11.3598 26.6287L12.7998 26.0247L14.2398 26.6287C14.7556 26.8451 15.3468 26.7765 15.7993 26.4478C16.2517 26.1191 16.4998 25.578 16.4534 25.0207L16.3246 23.4646L17.3447 22.2838C17.8866 21.6666 17.8636 20.7367 17.2918 20.147C17.7358 20.0182 18.1934 19.907 18.6519 19.807L19.123 20.3534L18.8638 23.5127C18.8146 24.0709 19.0619 24.614 19.5153 24.9434C19.9687 25.2728 20.5617 25.3401 21.0774 25.1207L23.9998 23.8943L26.9222 25.1207C27.4379 25.3371 28.0292 25.2685 28.4816 24.9398C28.934 24.6111 29.1821 24.07 29.1358 23.5127L28.875 20.3534L29.3461 19.807C29.8077 19.9094 30.2653 20.019 30.7062 20.1478C30.1345 20.7372 30.1116 21.6669 30.6533 22.2838L31.6725 23.4654L31.5437 25.0223C31.4975 25.58 31.7461 26.1213 32.1992 26.4497C32.6523 26.7782 33.244 26.846 33.7597 26.6287L35.1998 26.0247L36.6398 26.6287C37.1549 26.8474 37.7472 26.779 38.199 26.4487C38.603 26.1529 38.8431 25.6831 38.8462 25.1823C40.0806 26.6438 40.7709 28.4878 40.7998 30.4007C40.7998 36.5768 33.263 41.6008 23.9998 41.6008Z" fill="#000C28"/>
</g>
<defs>
<clipPath id="clip0_387_24817">
<rect width="48" height="48" fill="white"/>
</clipPath>
</defs>
</svg>
