<svg width="54" height="54" viewBox="0 0 54 54" fill="none" xmlns="http://www.w3.org/2000/svg">
<rect width="54" height="54" rx="27" fill="#0D4EE3"/>
<g clip-path="url(#clip0_387_24677)">
<path d="M40.3337 15.2676H13.6671C13.3725 15.2676 13.1338 15.5064 13.1338 15.8009C13.1338 16.0955 13.3726 16.3342 13.6671 16.3342H40.3338C40.6284 16.3342 40.8671 16.0955 40.8671 15.8009C40.8671 15.5063 40.6283 15.2676 40.3337 15.2676Z" fill="white"/>
<path d="M14.2003 14.1994C14.4948 14.1994 14.7336 13.9607 14.7336 13.6661C14.7336 13.3716 14.4948 13.1328 14.2003 13.1328C13.9058 13.1328 13.667 13.3716 13.667 13.6661C13.667 13.9607 13.9058 14.1994 14.2003 14.1994Z" fill="white"/>
<path d="M16.3331 14.1994C16.6277 14.1994 16.8664 13.9607 16.8664 13.6661C16.8664 13.3716 16.6277 13.1328 16.3331 13.1328C16.0386 13.1328 15.7998 13.3716 15.7998 13.6661C15.7998 13.9607 16.0386 14.1994 16.3331 14.1994Z" fill="white"/>
<path d="M18.4669 14.1994C18.7614 14.1994 19.0002 13.9607 19.0002 13.6661C19.0002 13.3716 18.7614 13.1328 18.4669 13.1328C18.1724 13.1328 17.9336 13.3716 17.9336 13.6661C17.9336 13.9607 18.1724 14.1994 18.4669 14.1994Z" fill="white"/>
<path d="M40.3333 11H13.6667C12.1946 11.0018 11.0018 12.1946 11 13.6667V40.3334C11.0018 41.8054 12.1946 42.9982 13.6667 43H40.3334C41.8054 42.9982 42.9982 41.8054 43.0001 40.3333V13.6667C42.9982 12.1946 41.8054 11.0018 40.3333 11ZM41.9333 40.3333C41.9333 41.2169 41.2169 41.9333 40.3333 41.9333H13.6667C12.7831 41.9333 12.0667 41.2169 12.0667 40.3333V13.6667C12.0667 12.7831 12.7831 12.0667 13.6667 12.0667H40.3334C41.217 12.0667 41.9334 12.7831 41.9334 13.6667L41.9333 40.3333Z" fill="white"/>
<path d="M35.5114 28.6252C35.283 23.5259 31.6373 19.2253 26.6442 18.1652C21.6512 17.1051 16.5725 19.5531 14.2917 24.1196C12.0109 28.6861 13.1045 34.217 16.9515 37.572C20.7984 40.927 26.4265 41.2583 30.6405 38.3778C32.396 40.3362 35.2409 40.8858 37.5995 39.722C39.958 38.5581 41.2527 35.966 40.7664 33.3813C40.28 30.7966 38.1317 28.8522 35.5114 28.6252ZM29.1333 34.4658H28.9989L27.4325 32.246L28.8123 28.1393L31.3051 27.2951L33.4155 28.8236C30.8867 29.5348 29.138 31.839 29.1333 34.4658ZM19.6677 34.4658H15.7334C14.847 33.0425 14.3305 31.4201 14.231 29.7463L17.3414 27.4103L19.8587 28.1511L21.2341 32.2461L19.6677 34.4658ZM15.7392 23.7895L16.6144 26.622L14.2367 28.4076C14.3524 26.7685 14.8683 25.1828 15.7392 23.7895ZM22.209 31.7991L20.9077 27.925L24.3334 25.518L27.759 27.925L26.4576 31.7991H22.209ZM32.8347 23.6391C33.7313 25.0203 34.2774 26.5995 34.4256 28.2396L32.0134 26.4887L32.8347 23.6391ZM32.0347 22.5639L30.9595 26.2876L28.4763 27.1287L24.8667 24.5885V21.9431L28.0523 19.7031C29.5954 20.3125 30.9635 21.2945 32.0347 22.5613V22.5639ZM26.7749 19.2978L24.3333 21.0135L21.9034 19.3068C23.5015 18.9006 25.1755 18.8979 26.7749 19.2988V19.2978H26.7749ZM20.6245 19.7116L23.8 21.9431V24.5884L20.1787 27.1335L17.6597 26.3921L16.5162 22.6913C17.6119 21.367 19.0253 20.3418 20.6245 19.7116ZM16.4853 35.5324H19.5605L20.5695 38.533C18.9769 37.8933 17.5719 36.8611 16.4853 35.5324ZM21.8314 38.9404L20.5354 35.0855L22.1018 32.8657H26.5647L28.1311 35.0855L26.8304 38.9553C26.014 39.1615 25.1753 39.2658 24.3333 39.2657C23.489 39.2625 22.6485 39.1531 21.8314 38.9404ZM28.0949 38.5399L29.1061 35.5325H29.2352C29.3661 36.2376 29.6263 36.9124 30.0026 37.5228C29.4052 37.9295 28.7655 38.2705 28.0949 38.5399ZM35 39.2658C32.349 39.2658 30.2 37.1167 30.2 34.4658C30.2 31.8148 32.349 29.6658 35 29.6658C37.6509 29.6658 39.8 31.8148 39.8 34.4658C39.797 37.1155 37.6497 39.2628 35 39.2658Z" fill="white"/>
<path d="M36.5996 33.1324C36.5996 33.427 36.8384 33.6657 37.1329 33.6657C37.4275 33.6657 37.6663 33.427 37.6663 33.1324C37.6663 32.214 36.7644 31.4711 35.5329 31.3025V31.2657C35.5329 30.9712 35.2942 30.7324 34.9996 30.7324C34.7051 30.7324 34.4663 30.9712 34.4663 31.2657V31.3025C33.2349 31.4711 32.333 32.214 32.333 33.1324C32.333 34.0509 33.2349 34.7937 34.4663 34.9623V36.5457C33.8327 36.4225 33.3996 36.0988 33.3996 35.799C33.3996 35.5045 33.1608 35.2657 32.8663 35.2657C32.5718 35.2657 32.333 35.5045 32.333 35.799C32.333 36.7174 33.2349 37.4604 34.4663 37.6289V37.6657C34.4663 37.9603 34.7051 38.199 34.9996 38.199C35.2941 38.199 35.5329 37.9603 35.5329 37.6657V37.6289C36.7644 37.4604 37.6663 36.7175 37.6663 35.799C37.6663 34.8806 36.7644 34.1377 35.5329 33.9692V32.3857C36.1666 32.5095 36.5996 32.8332 36.5996 33.1324ZM33.3996 33.1324C33.3996 32.8332 33.8327 32.5095 34.4663 32.3857V33.879C33.8327 33.7554 33.3996 33.4317 33.3996 33.1324ZM36.5996 35.7991C36.5996 36.0983 36.1666 36.422 35.5329 36.5458V35.0525C36.1666 35.1762 36.5996 35.4999 36.5996 35.7991Z" fill="white"/>
</g>
<defs>
<clipPath id="clip0_387_24677">
<rect width="32" height="32" fill="white" transform="translate(11 11)"/>
</clipPath>
</defs>
</svg>
