<svg width="24" height="24" viewBox="0 0 24 24" fill="none" xmlns="http://www.w3.org/2000/svg">
<path d="M13.9893 17.999H9.48919C9.28941 17.999 9.11432 18.0745 8.96432 18.2242C8.81419 18.3743 8.73926 18.5492 8.73926 18.7492V23.2495C8.73926 23.4496 8.81445 23.6246 8.96432 23.7745C9.11432 23.9242 9.28921 23.9995 9.48919 23.9995H13.9893C14.1891 23.9995 14.3646 23.9244 14.514 23.7745C14.6644 23.6246 14.7395 23.4496 14.7395 23.2495V18.7492C14.7395 18.5492 14.6646 18.3743 14.514 18.2242C14.3646 18.0741 14.1891 17.999 13.9893 17.999Z" fill="#94B052"/>
<path d="M19.8954 4.52828C19.3827 3.58402 18.7204 2.78753 17.9077 2.13736C17.0955 1.48745 16.1824 0.968427 15.1701 0.581083C14.1576 0.193869 13.1514 0 12.1512 0C8.35133 0 5.45137 1.66253 3.4512 4.98767C3.35131 5.15008 3.31684 5.32504 3.34803 5.5126C3.37942 5.6999 3.47629 5.85621 3.63877 5.98118L6.71388 8.32515C6.87636 8.42498 7.03267 8.47495 7.18273 8.47495C7.40779 8.47495 7.6014 8.3748 7.76408 8.17482C8.66394 7.04996 9.33283 6.33123 9.77028 6.01855C10.3079 5.65616 10.9827 5.47504 11.7952 5.47504C12.5577 5.47504 13.2294 5.67508 13.8109 6.07477C14.3921 6.47485 14.6824 6.9374 14.6824 7.46239C14.6824 8.04965 14.5265 8.52487 14.2138 8.88739C13.9014 9.24977 13.3762 9.59962 12.6386 9.93725C11.6639 10.3747 10.7697 11.0529 9.95758 11.9717C9.14487 12.8905 8.73881 13.8687 8.73881 14.9061V15.7498C8.73881 15.9876 8.80409 16.2218 8.93557 16.4531C9.06691 16.6845 9.22617 16.8 9.4138 16.8H13.9138C14.1139 16.8 14.2887 16.7034 14.4388 16.509C14.5885 16.3158 14.6638 16.1126 14.6638 15.9004C14.6638 15.588 14.8357 15.1688 15.1792 14.644C15.523 14.119 15.951 13.7124 16.4639 13.4248C16.9511 13.1499 17.332 12.9283 17.6073 12.7593C17.8829 12.5908 18.242 12.3183 18.6859 11.9436C19.1296 11.5685 19.4734 11.1965 19.7169 10.8279C19.9607 10.4592 20.1796 9.98099 20.3733 9.39334C20.5675 8.80588 20.6641 8.17456 20.6641 7.49963C20.664 6.46211 20.4075 5.47155 19.8954 4.52828Z" fill="#94B052"/>
</svg>
