<svg width="40" height="32" viewBox="0 0 40 32" fill="none" xmlns="http://www.w3.org/2000/svg">
<path d="M8.33297 11.5729C9.83973 7.96772 9.11871 6.04497 12.0213 3.67852C13.9903 2.07007 16.1718 0.646497 18.5845 0.175055C22.8183 -0.666146 27.2369 1.60787 30.0378 5.20377C32.8387 8.79043 34.1883 13.5141 34.6875 18.21C34.9741 20.9647 34.9556 23.932 33.6337 26.2985C32.3395 28.628 29.9823 30.0146 27.5789 30.7356C23.2989 32.0298 18.7694 31.5306 14.3508 31.0222C12.9549 30.865 11.5406 30.6986 10.2187 30.1625C3.98831 27.6204 5.82785 17.563 8.33297 11.5729Z" fill="#F3F8F9"/>
<path d="M22.1545 21.8698C21.6674 21.836 21.2344 21.7142 20.8759 21.5113C20.3212 21.2001 19.9153 20.686 19.6582 19.9824C19.6041 19.8404 19.4553 19.7727 19.3132 19.8201C19.1712 19.8674 19.1035 20.023 19.1509 20.1651C19.4012 20.8551 19.7868 21.3963 20.2941 21.7751C19.1644 22.8169 17.967 23.3378 16.7358 23.304C15.0717 23.2634 13.7525 22.2419 13.2384 21.7751C14.4155 20.8889 14.6455 19.3263 14.6861 18.5754C15.1799 18.758 15.7482 18.8662 16.3908 18.8662C16.4043 18.8662 16.4111 18.8662 16.4246 18.8662C16.4382 18.8662 16.4449 18.8662 16.4585 18.8662C17.9873 18.8662 19.232 18.1154 20.1318 16.6947C20.2062 16.6474 20.2535 16.573 20.2603 16.485C20.8962 15.3959 21.3562 13.9414 21.5997 12.1623C21.7147 11.3437 21.7486 10.647 21.7689 10.2073C21.7959 9.30077 21.7824 9.20606 21.5659 9.14518C21.4239 9.10459 21.275 9.18577 21.2344 9.33459C21.2209 9.38195 21.2209 9.4293 21.2344 9.46989C21.2547 9.6796 21.2615 10.5117 21.1397 11.5873L19.6109 13.3056L16.8982 13.2244L12.9205 13.3056L11.7569 12.1961C11.7298 12.1691 11.696 12.1488 11.669 12.142C11.6351 11.6549 11.6351 11.2964 11.6487 11.1679C11.6622 11.1205 11.6622 11.0732 11.6487 11.0258C11.6081 10.8837 11.4592 10.8026 11.3172 10.8364C11.2157 10.8634 10.9384 10.9446 11.2225 13.0147C11.4525 14.6856 12.1425 17.2359 14.1652 18.3251C14.1719 18.8662 14.0772 20.686 12.6904 21.4842C12.6837 21.491 12.6769 21.491 12.6702 21.4978C12.3251 21.6939 11.9057 21.8225 11.3848 21.8563C7.45446 22.1201 5.99326 23.2769 6.00002 26.1317C6.00002 26.2805 6.12179 26.4023 6.27062 26.4023C6.41944 26.4023 6.54121 26.2805 6.54121 26.1317C6.53445 23.5813 7.76565 22.6343 11.4254 22.3975C11.9531 22.3637 12.3996 22.2419 12.7716 22.0592C13.2384 22.5125 14.7334 23.791 16.7291 23.8384C16.7696 23.8384 16.8035 23.8384 16.8441 23.8384C18.2241 23.8384 19.55 23.2363 20.7812 22.0592C21.1803 22.2554 21.6268 22.3704 22.1274 22.4043C25.7872 22.6478 27.0184 23.5881 27.0116 26.1384C27.0116 26.2873 27.1334 26.409 27.2822 26.409C27.431 26.409 27.5528 26.2873 27.5528 26.1384C27.5528 23.2904 26.0916 22.1337 22.1545 21.8698ZM20.1791 15.4771L20.01 13.6776L21.0044 12.5547C20.8421 13.5017 20.585 14.5435 20.1791 15.4771ZM12.5349 13.6911L12.4199 15.4703C12.0546 14.6179 11.8516 13.7047 11.7434 12.9403L12.5349 13.6911ZM13.3399 16.9856C13.1708 16.7962 13.0219 16.5865 12.8799 16.37C12.8934 16.343 12.9069 16.3091 12.9069 16.2685L13.0625 13.8535L16.8914 13.7723L19.4823 13.8535L19.7191 16.3633C19.5568 16.6203 19.3809 16.8639 19.1915 17.0803C18.5691 17.7839 17.8114 18.1965 16.9388 18.298C16.9185 18.298 16.8914 18.2912 16.8711 18.298C16.7291 18.3183 16.5802 18.3251 16.4314 18.3251C16.2826 18.3251 16.1337 18.3115 15.9917 18.298C15.9579 18.2912 15.9308 18.298 15.9037 18.3048C14.8755 18.1965 14.0096 17.7568 13.3399 16.9856Z" fill="#329EA1"/>
<path d="M21.7218 25.7192H19.1647C18.4815 25.7192 17.9268 26.274 17.9268 26.9572V27.7622C17.9268 28.4455 18.4815 29.0002 19.1647 29.0002H21.7218C22.4051 29.0002 22.9598 28.4455 22.9598 27.7622V26.9572C22.953 26.274 22.3983 25.7192 21.7218 25.7192ZM22.4186 27.7555C22.4186 28.141 22.1074 28.4522 21.7218 28.4522H19.1647C18.7791 28.4522 18.4679 28.141 18.4679 27.7555V26.9504C18.4679 26.5648 18.7791 26.2537 19.1647 26.2537H21.7218C22.1074 26.2537 22.4186 26.5648 22.4186 26.9504V27.7555Z" fill="#329EA1"/>
<path d="M20.4968 23.1149C20.3886 23.0066 20.2195 23.0066 20.118 23.1149C17.0535 26.1861 13.4073 23.2231 13.2585 23.1013C13.1435 23.0066 12.9743 23.0202 12.8796 23.1352C12.7849 23.2502 12.7984 23.4193 12.9134 23.514C12.9405 23.5343 14.767 25.0293 16.9926 25.0293C18.1224 25.0293 19.3468 24.6437 20.4968 23.5005C20.6051 23.3922 20.6051 23.2231 20.4968 23.1149Z" fill="#329EA1"/>
<path d="M11.4257 8.69196C11.933 8.30637 12.4878 7.98842 13.0763 7.73136C13.5498 7.52165 14.0504 7.35929 14.5578 7.23752C15.7349 6.96016 16.8375 6.96016 18.0146 7.23752C18.522 7.35253 19.0158 7.52165 19.4961 7.73136C20.0847 7.98842 20.6326 8.30637 21.1467 8.69196C21.2685 8.78667 21.4444 8.72579 21.4782 8.5702C21.6068 8.00195 21.282 6.64898 21.2009 6.34456C20.9506 5.41778 20.477 4.55865 19.7058 3.97011C18.7249 3.21245 17.4328 3.03656 16.2287 3.00274C15.0584 2.96891 13.8069 3.24627 12.8666 3.97011C12.1022 4.55865 11.6219 5.42455 11.3716 6.34456C11.2904 6.65575 10.9657 8.00195 11.0942 8.5702C11.128 8.72579 11.3039 8.78667 11.4257 8.69196Z" fill="#1F5274"/>
</svg>
