<svg width="48" height="48" viewBox="0 0 48 48" fill="none" xmlns="http://www.w3.org/2000/svg">
<path d="M32.5659 0.234375C32.4159 0.084375 32.2125 0 32.0003 0H8.80039C7.47495 0 6.40039 1.07456 6.40039 2.4V45.6C6.40039 46.9254 7.47495 48 8.80039 48H39.2004C40.5259 48 41.6004 46.9255 41.6004 45.6V9.6C41.6004 9.38784 41.516 9.18441 41.366 9.03441L32.5659 0.234375ZM32.8004 2.73122L38.8692 8.80003H33.6004C33.1585 8.80003 32.8004 8.44181 32.8004 8.00006V2.73122ZM39.2003 46.4H8.80039C8.35855 46.4 8.00042 46.0418 8.00042 45.6V2.4C8.00042 1.95816 8.35864 1.60003 8.80039 1.60003H31.2004V8.00006C31.2004 9.3255 32.2749 10.4001 33.6004 10.4001H40.0004V45.6C40.0004 46.0418 39.6422 46.4 39.2003 46.4Z" fill="#0D4EE3"/>
<path d="M32.8 38.4004H15.2C13.4327 38.4004 12 39.8331 12 41.6004C12 43.3676 13.4327 44.8003 15.2 44.8003H32.7999C34.5672 44.8003 35.9999 43.3676 35.9999 41.6004C36 39.8331 34.5673 38.4004 32.8 38.4004ZM32.8 43.2004H15.2C14.3163 43.2004 13.5999 42.484 13.5999 41.6004C13.5999 40.7167 14.3163 40.0003 15.2 40.0003H32.7999C33.6836 40.0003 34.4 40.7167 34.4 41.6004C34.4 42.484 33.6836 43.2004 32.8 43.2004Z" fill="#0D4EE3"/>
<path d="M21.14 27.3747C20.9743 27.2421 20.7627 27.1807 20.5517 27.2041C20.3407 27.2275 20.1477 27.3338 20.0152 27.4995L19.584 28.0387C19.4573 28.015 19.3289 28.0019 19.2 27.9995H14.4C13.0746 27.9995 12 29.074 12 30.3995V34.3995C12 35.725 13.0746 36.7995 14.4 36.7995H19.2C20.5254 36.7995 21.6 35.725 21.6 34.3995V30.3995C21.5977 29.8209 21.3848 29.2628 21.0008 28.8299L21.2648 28.4995C21.3975 28.3339 21.4589 28.1222 21.4355 27.9113C21.412 27.7003 21.3057 27.5073 21.14 27.3747ZM20 30.3996V34.3996C20 34.8415 19.6418 35.1996 19.2 35.1996H14.4C13.9582 35.1996 13.6 34.8415 13.6 34.3996V30.3996C13.6 29.9577 13.9582 29.5996 14.4 29.5996H18.3352L16.7351 31.5996L16.5671 31.4316C16.2533 31.1284 15.7542 31.1327 15.4457 31.4413C15.1372 31.75 15.1327 32.2489 15.4359 32.5628L16.2359 33.3627C16.3848 33.5138 16.5878 33.5991 16.7999 33.5995H16.8447C17.0717 33.587 17.2825 33.4785 17.4247 33.3011L19.9488 30.1467C19.9796 30.2276 19.9969 30.313 20 30.3996Z" fill="#0D4EE3"/>
<path fill-rule="evenodd" clip-rule="evenodd" d="M24.0011 31.1995H27.2011C27.643 31.1995 28.0011 30.8414 28.0011 30.3996C28.0011 29.9577 27.6429 29.5996 27.2011 29.5996H24.0011C23.5593 29.5996 23.2012 29.9578 23.2012 30.3996C23.2012 30.8413 23.5593 31.1995 24.0011 31.1995Z" fill="#0D4EE3"/>
<path fill-rule="evenodd" clip-rule="evenodd" d="M12.0011 7.19955H18.4012C18.843 7.19955 19.2011 6.84142 19.2011 6.39958C19.2011 5.95773 18.8429 5.59961 18.4012 5.59961H12.0011C11.5593 5.59961 11.2012 5.95783 11.2012 6.39958C11.2012 6.84142 11.5593 7.19955 12.0011 7.19955Z" fill="#0D4EE3"/>
<path fill-rule="evenodd" clip-rule="evenodd" d="M36.0011 32.7988H24.0011C23.5593 32.7988 23.2012 33.157 23.2012 33.5988C23.2012 34.0406 23.5594 34.3988 24.0011 34.3988H36.0011C36.443 34.3988 36.8011 34.0406 36.8011 33.5988C36.8011 33.157 36.443 32.7988 36.0011 32.7988Z" fill="#0D4EE3"/>
<path fill-rule="evenodd" clip-rule="evenodd" d="M36.0011 24H12.0011C11.5593 24 11.2012 24.3582 11.2012 24.8C11.2012 25.2417 11.5594 25.5999 12.0011 25.5999H36.0011C36.443 25.5999 36.8011 25.2418 36.8011 24.8C36.8011 24.3581 36.443 24 36.0011 24Z" fill="#0D4EE3"/>
<path fill-rule="evenodd" clip-rule="evenodd" d="M36.0011 20H12.0011C11.5593 20 11.2012 20.3582 11.2012 20.8C11.2012 21.2418 11.5594 21.5999 12.0011 21.5999H36.0011C36.443 21.5999 36.8011 21.2417 36.8011 20.8C36.8011 20.3582 36.443 20 36.0011 20Z" fill="#0D4EE3"/>
<path fill-rule="evenodd" clip-rule="evenodd" d="M36.0011 16H12.0011C11.5593 16 11.2012 16.3582 11.2012 16.8C11.2012 17.2417 11.5594 17.5999 12.0011 17.5999H36.0011C36.443 17.5999 36.8011 17.2418 36.8011 16.8C36.8011 16.3581 36.443 16 36.0011 16Z" fill="#0D4EE3"/>
<path fill-rule="evenodd" clip-rule="evenodd" d="M36.0011 12H12.0011C11.5593 12 11.2012 12.3582 11.2012 12.8C11.2012 13.2417 11.5594 13.5999 12.0011 13.5999H36.0011C36.443 13.5999 36.8011 13.2417 36.8011 12.8C36.8011 12.3582 36.443 12 36.0011 12Z" fill="#0D4EE3"/>
</svg>
