<svg width="48" height="48" viewBox="0 0 48 48" fill="none" xmlns="http://www.w3.org/2000/svg">
<g clip-path="url(#clip0_387_26190)">
<path fill-rule="evenodd" clip-rule="evenodd" d="M44.0002 6.39844H4.00021C3.55835 6.39844 3.2002 6.75659 3.2002 7.19845C3.2002 7.64032 3.55835 7.99847 4.00021 7.99847H44.0002C44.4421 7.99847 44.8002 7.64032 44.8002 7.19845C44.8002 6.75659 44.4421 6.39844 44.0002 6.39844Z" fill="#0D4EE3"/>
<path d="M4.80001 4.79925C5.24185 4.79925 5.60003 4.44107 5.60003 3.99923C5.60003 3.5574 5.24185 3.19922 4.80001 3.19922C4.35818 3.19922 4 3.5574 4 3.99923C4 4.44107 4.35818 4.79925 4.80001 4.79925Z" fill="#0D4EE3"/>
<path d="M8.00021 4.79925C8.44205 4.79925 8.80022 4.44107 8.80022 3.99923C8.80022 3.5574 8.44205 3.19922 8.00021 3.19922C7.55837 3.19922 7.2002 3.5574 7.2002 3.99923C7.2002 4.44107 7.55837 4.79925 8.00021 4.79925Z" fill="#0D4EE3"/>
<path d="M11.2004 4.79925C11.6422 4.79925 12.0004 4.44107 12.0004 3.99923C12.0004 3.5574 11.6422 3.19922 11.2004 3.19922C10.7586 3.19922 10.4004 3.5574 10.4004 3.99923C10.4004 4.44107 10.7586 4.79925 11.2004 4.79925Z" fill="#0D4EE3"/>
<path d="M44 0H3.99999C1.79194 0.00260617 0.00260617 1.79194 0 3.99999V44C0.00260617 46.2081 1.79194 47.9974 3.99999 48H44C46.2081 47.9973 47.9974 46.2081 48 44V3.99999C47.9974 1.79194 46.2081 0.00260617 44 0ZM46.4001 44C46.4001 45.3255 45.3255 46.4 44.0001 46.4H3.99999C2.67448 46.4 1.60003 45.3254 1.60003 44V3.99999C1.60003 2.67448 2.67456 1.60003 3.99999 1.60003H44C45.3255 1.60003 46.4 2.67456 46.4 3.99999V44H46.4001Z" fill="#0D4EE3"/>
<path d="M18.3996 29.6C18.8415 29.6 19.1996 29.2419 19.1996 28.8C19.1996 28.3582 18.8415 28 18.3996 28C17.9578 28 17.5996 28.3582 17.5996 28.8C17.5996 29.2419 17.9578 29.6 18.3996 29.6Z" fill="#0D4EE3"/>
<path d="M39.3179 35.2391L42.0843 33.5838C42.49 33.3349 42.7137 32.8726 42.6569 32.4C42.6001 31.9274 42.2734 31.5312 41.8203 31.3854L33.6003 28.7542C33.5936 26.7922 33.205 24.8502 32.4563 23.0366C32.4499 23.019 32.4563 23.0006 32.4458 22.983C32.4354 22.9654 32.4187 22.9477 32.4082 22.927C30.8601 19.2355 27.9201 16.3024 24.225 14.763L24.2171 14.7566H24.201C23.3036 14.3877 22.3726 14.1067 21.421 13.9174L22.221 12.5246C22.4674 12.1 22.4659 11.5757 22.217 11.1525C21.9341 10.6793 21.4203 10.3927 20.869 10.4005H15.9314C15.382 10.3936 14.8702 10.679 14.5874 11.1502C14.3386 11.5732 14.3371 12.0976 14.5834 12.5222L15.3786 13.915C14.4262 14.1047 13.4944 14.386 12.5962 14.755C12.5962 14.755 12.5865 14.755 12.5826 14.755L12.5738 14.7606C8.87991 16.3017 5.9415 19.2355 4.39462 22.927C4.3842 22.947 4.36659 22.9614 4.35703 22.983C4.34739 23.0045 4.35703 23.019 4.3466 23.0366C2.81639 26.7353 2.81813 30.8904 4.35142 34.5878C4.35142 34.5983 4.35142 34.6086 4.35703 34.6182C4.36264 34.6279 4.36666 34.6326 4.37061 34.6407C5.92128 38.3411 8.86475 41.2835 12.5658 42.8327C12.573 42.8327 12.577 42.8414 12.5834 42.8447C12.5898 42.8479 12.6059 42.8447 12.617 42.8511C18.8555 45.4295 26.0472 43.5727 30.2578 38.2967L31.3843 41.8166C31.5247 42.2709 31.92 42.5994 32.3923 42.6542C32.8721 42.7158 33.3429 42.4879 33.5923 42.0735L35.2419 39.3167L40.3323 44.4071C40.8549 44.9278 41.7002 44.9278 42.2228 44.4071L44.4123 42.2175C44.9325 41.695 44.9325 40.8504 44.4123 40.3279L39.3179 35.2391ZM27.2652 28.9462L28.246 32.0118L22.3203 29.5606C22.4226 29.0591 22.4226 28.5422 22.3203 28.0406L31.2348 24.3486C31.6692 25.601 31.9172 26.9105 31.9707 28.235L28.9435 27.2662C28.4669 27.1135 27.945 27.2399 27.5911 27.5938C27.2372 27.9477 27.1108 28.4697 27.2635 28.9463H27.2652V28.9462ZM19.3179 31.0142L19.3107 31.0191C18.7285 31.2612 18.0738 31.2612 17.4916 31.0191L17.4844 31.015C17.4788 31.015 17.4716 31.015 17.466 31.011C16.8921 30.7667 16.435 30.3097 16.1908 29.7358C16.1908 29.7302 16.1908 29.7246 16.1908 29.7182L16.186 29.7118C16.0653 29.423 16.0023 29.1135 16.0004 28.8006C16.0006 28.4886 16.0623 28.1798 16.1819 27.8918L16.1867 27.883C16.1867 27.8766 16.1867 27.871 16.1867 27.8646C16.4309 27.2916 16.8873 26.8353 17.4604 26.591C17.466 26.591 17.4724 26.591 17.4788 26.587L17.486 26.5822C18.0683 26.3406 18.7229 26.3406 19.3051 26.5822L19.3123 26.587C19.3179 26.587 19.3251 26.587 19.3315 26.591C19.9048 26.8355 20.3614 27.2922 20.6059 27.8654V27.8838L20.6108 27.8926C20.8529 28.4748 20.8529 29.1296 20.6108 29.7118L20.6059 29.719V29.7374C20.3617 30.3104 19.9053 30.7667 19.3323 31.011C19.3299 31.0127 19.3243 31.0119 19.3179 31.0142ZM4.80031 28.8006C4.80308 27.2842 5.06077 25.7789 5.56274 24.3478L14.4803 28.0398C14.3781 28.5413 14.3781 29.0583 14.4803 29.5598L5.56432 33.2526C5.06148 31.8221 4.80324 30.317 4.80031 28.8006ZM30.6339 22.8662L21.7123 26.5607C21.4262 26.1381 21.0624 25.7738 20.6403 25.4871L24.3323 16.5743C27.0787 17.906 29.298 20.1219 30.6339 22.8662ZM20.6724 12.0006L18.4003 15.9781L16.1283 12.0006H20.6724ZM17.0523 16.8446C17.3394 17.3141 17.85 17.6004 18.4003 17.6004C18.9506 17.6004 19.4613 17.3141 19.7483 16.8446L20.5772 15.3933C21.3506 15.516 22.1119 15.7058 22.8524 15.9605L19.1579 24.8806C18.6564 24.7778 18.1394 24.7778 17.6379 24.8806L13.9467 15.9614C14.6877 15.7062 15.4495 15.5162 16.2235 15.3934L17.0523 16.8446ZM12.4691 16.5742L16.1603 25.4887C15.7382 25.7749 15.3745 26.1386 15.0883 26.5607L6.16666 22.8662C7.50291 20.122 9.7225 17.9064 12.4691 16.575V16.5742ZM6.17953 34.7294L15.0884 31.0406C15.3744 31.4632 15.7382 31.8275 16.1604 32.1142L12.4732 41.0222C9.73189 39.6856 7.51649 37.4705 6.17953 34.7294ZM13.9499 41.6374L17.6427 32.7206C18.1442 32.8234 18.6613 32.8234 19.1627 32.7206L22.8603 41.6471C19.9753 42.652 16.8345 42.6475 13.9523 41.6343L13.9499 41.6374ZM24.3371 41.0406L20.6403 32.1126C21.0626 31.8264 21.4266 31.4627 21.7131 31.0406L28.8851 34.0086L29.6555 36.4167C28.3214 38.3999 26.4866 39.9952 24.3371 41.0406ZM41.2747 43.0926L35.6451 37.463C35.4951 37.3129 35.2917 37.2287 35.0795 37.2286C35.0466 37.2288 35.0137 37.2309 34.9811 37.235C34.7363 37.2651 34.519 37.4065 34.3922 37.6182L32.6506 40.5278L28.945 28.9453L40.5267 32.6509L37.6171 34.3925C37.4053 34.5191 37.2637 34.7362 37.2334 34.981C37.203 35.2258 37.2874 35.4709 37.4619 35.6453L43.0916 41.275L41.2747 43.0926Z" fill="#0D4EE3"/>
<path fill-rule="evenodd" clip-rule="evenodd" d="M33.5998 15.1996H43.1998C43.6416 15.1996 43.9998 14.8415 43.9998 14.3996C43.9998 13.9578 43.6417 13.5996 43.1998 13.5996H33.5998C33.158 13.5996 32.7998 13.9578 32.7998 14.3996C32.7998 14.8415 33.158 15.1996 33.5998 15.1996Z" fill="#0D4EE3"/>
<path fill-rule="evenodd" clip-rule="evenodd" d="M33.5998 18.4008H43.1998C43.6416 18.4008 43.9998 18.0427 43.9998 17.6008C43.9998 17.1589 43.6417 16.8008 43.1998 16.8008H33.5998C33.158 16.8008 32.7998 17.1589 32.7998 17.6008C32.7998 18.0427 33.158 18.4008 33.5998 18.4008Z" fill="#0D4EE3"/>
</g>
<defs>
<clipPath id="clip0_387_26190">
<rect width="48" height="48" fill="white"/>
</clipPath>
</defs>
</svg>
