<svg width="32" height="32" viewBox="0 0 32 32" fill="none" xmlns="http://www.w3.org/2000/svg">
<path d="M29.334 8.00002V11.2267C29.334 13.3334 28.0006 14.6667 25.894 14.6667H21.334V5.34669C21.334 3.86669 22.5473 2.66669 24.0273 2.66669C25.4807 2.68002 26.814 3.26669 27.774 4.22669C28.734 5.20002 29.334 6.53335 29.334 8.00002Z" fill="#3939A3"/>
<path opacity="0.4" d="M2.66602 9.33335V28C2.66602 29.1067 3.91936 29.7334 4.79936 29.0667L7.07935 27.36C7.61268 26.96 8.35936 27.0134 8.83936 27.4934L11.0527 29.72C11.5727 30.24 12.426 30.24 12.946 29.72L15.186 27.48C15.6527 27.0134 16.3994 26.96 16.9194 27.36L19.1993 29.0667C20.0793 29.72 21.3327 29.0934 21.3327 28V5.33335C21.3327 3.86669 22.5327 2.66669 23.9993 2.66669H9.33268H7.99935C3.99935 2.66669 2.66602 5.05335 2.66602 8.00002V9.33335Z" fill="#3939A3"/>
<path d="M15.6673 12.3334H13.0007V9.66669C13.0007 9.12002 12.5473 8.66669 12.0007 8.66669C11.454 8.66669 11.0007 9.12002 11.0007 9.66669V12.3334H8.33398C7.78732 12.3334 7.33398 12.7867 7.33398 13.3334C7.33398 13.88 7.78732 14.3334 8.33398 14.3334H11.0007V17C11.0007 17.5467 11.454 18 12.0007 18C12.5473 18 13.0007 17.5467 13.0007 17V14.3334H15.6673C16.214 14.3334 16.6673 13.88 16.6673 13.3334C16.6673 12.7867 16.214 12.3334 15.6673 12.3334Z" fill="#3939A3"/>
</svg>
