<svg width="1354" height="289" viewBox="0 0 1354 289" fill="none" xmlns="http://www.w3.org/2000/svg">
<path d="M353.612 292.572C418.783 210.344 355.235 209.583 329.167 225.325C303.099 241.067 397.245 144.636 340.967 120.642C295.069 101.078 252.704 218.172 239.67 208.162C226.636 198.152 221.581 146.631 184.102 160.936C146.606 175.241 117.275 273.972 114.012 298.304C191.27 310.055 327.527 325.476 353.612 292.572Z" fill="#F7EDFF" fill-opacity="0.75"/>
<path d="M118.677 217.023C123.664 217.937 128.212 220.659 132.404 224.531C134.534 226.459 136.563 228.691 138.507 231.125C140.468 233.56 142.243 236.232 144.12 239.005C144.12 239.005 144.035 238.532 143.883 237.686C143.714 236.858 143.528 235.657 143.308 234.203C142.869 231.311 142.277 227.473 141.685 223.635C141.144 219.78 140.671 215.924 140.299 213.033C140.113 211.579 139.961 210.378 139.843 209.533C139.741 208.687 139.69 208.197 139.69 208.197C139.014 208.298 133.96 206.912 129.294 201.772C125.186 197.325 122.261 190.984 120.689 187.281C120.063 185.81 120.351 184.389 121.213 184.626C125.067 185.691 128.448 188.16 131.407 191.559C132.894 193.266 134.247 195.194 135.549 197.308C136.867 199.421 138.101 201.704 139.251 204.122C139.251 204.122 139.048 202.279 138.761 199.506C138.439 196.733 138.118 193.047 137.797 189.344C137.628 187.501 137.459 185.641 137.307 183.916C137.172 182.174 137.053 180.568 136.952 179.164C136.749 176.391 136.614 174.531 136.614 174.531C136.394 174.768 136.073 174.853 135.718 174.65C132.607 172.874 130.054 170.338 128.076 167.007C126.065 163.676 124.695 159.516 123.935 154.528C123.766 153.361 124.408 152.567 125.152 153.023C131.086 156.709 134.484 162.611 136.326 170.439C136.326 170.439 136.123 166.855 135.904 163.27C135.735 159.685 135.566 156.101 135.566 156.101C135.38 155.982 135.21 155.779 135.075 155.475C131.643 147.173 131.255 138.431 134.467 129.588C134.839 128.556 135.718 128.573 136.073 129.588C139.166 137.991 139.521 146.48 136.681 155.391C136.58 155.712 136.428 155.932 136.242 156.05C136.242 156.05 136.411 159.516 136.563 162.983C136.766 166.449 136.969 169.915 136.969 169.915C137.898 162.036 140.823 156.084 146.267 152.195C146.96 151.688 147.687 152.431 147.619 153.564C147.433 156.422 146.791 161.478 144.796 165.942C142.767 170.406 139.809 173.162 138.101 174.481C137.814 174.7 137.527 174.7 137.29 174.548C137.29 174.548 137.425 176.391 137.628 179.164C137.729 180.551 137.848 182.174 137.983 183.899C138.135 185.624 138.304 187.467 138.473 189.327C138.794 193.013 139.116 196.716 139.437 199.472C139.741 202.228 139.927 204.071 139.927 204.071C140.35 201.383 140.891 198.796 141.567 196.378C142.26 193.96 143.139 191.677 144.137 189.614C146.165 185.488 148.819 182.191 152.353 180.078C153.13 179.621 153.705 180.838 153.434 182.377C153.113 184.305 152.606 186.959 151.845 189.817C151.068 192.675 150.037 195.735 148.735 198.474C145.726 204.697 141.077 208.366 140.35 208.146C140.35 208.146 140.4 208.637 140.502 209.516C140.62 210.378 140.772 211.629 140.958 213.117C141.364 216.093 141.821 220.067 142.395 224.024C143.004 227.98 143.596 231.937 144.052 234.896C144.255 236.384 144.508 237.602 144.661 238.464C144.813 239.326 144.897 239.817 144.897 239.817C145.117 238.701 145.438 237.348 145.878 235.877C146.334 234.389 146.892 232.766 147.535 231.125C148.802 227.828 150.408 224.413 152.217 221.673C156.173 215.806 160.585 213.219 163.054 212.137C164.034 211.714 164.575 213.151 164.068 214.842C162.276 220.642 160.467 225.241 158.438 228.978C156.427 232.698 154.364 235.488 152.539 237.517C148.836 241.592 145.759 242.674 145.354 242.37C145.945 245.599 146.436 248.626 147.027 251.433C147.619 254.24 148.177 256.844 148.701 259.262C149.665 264.132 150.78 268.19 151.643 271.673C153.299 278.639 154.77 283.036 155.581 285.91C157.255 291.642 157.002 291.118 156.748 291.203C156.494 291.287 156.579 291.879 154.838 286.062C154.009 283.154 152.522 278.673 150.865 271.605C149.986 268.071 148.904 263.946 147.923 259.008C147.399 256.54 146.841 253.902 146.233 251.061C145.675 248.203 145.151 245.143 144.559 241.863C144.238 242.218 142.345 242.032 139.741 241.102C137.155 240.172 133.774 238.481 130.731 235.86C125.27 231.21 120.621 224.244 118.339 220.152C117.46 218.478 117.612 216.821 118.677 217.023Z" fill="white"/>
<path d="M132.659 310.124C128.72 310.784 93.3707 315.366 63.2454 283.933C34.3913 253.809 42.789 163.019 43.5491 155.41L132.659 310.124ZM132.659 310.124C136.598 309.482 164.086 300.3 164.086 300.3L132.659 310.124ZM47.953 250.387C51.199 263.925 56.1657 275.819 63.6064 283.587C93.5632 314.844 128.704 310.28 132.576 309.631L132.578 309.631C133.522 309.477 135.941 308.795 139.086 307.84C142.213 306.89 146.015 305.683 149.696 304.496C153.377 303.308 156.935 302.141 159.573 301.27C160.892 300.835 161.98 300.474 162.739 300.222C163.089 300.105 163.369 300.012 163.569 299.946C160.172 227.633 119.102 180.168 81.432 167.821C81.432 167.821 81.432 167.821 81.432 167.821L48.1939 156.932L44.0392 155.57L44.0357 155.569C44.022 155.708 44.0063 155.869 43.9886 156.052C43.9194 156.773 43.8217 157.834 43.708 159.197C43.4806 161.922 43.1893 165.852 42.9336 170.666C42.4222 180.295 42.054 193.459 42.6259 207.603C43.1979 221.748 44.7097 236.859 47.953 250.387Z" fill="white" stroke="#333333"/>
<path d="M147.723 308.298C147.909 308.298 148.095 308.265 148.281 308.18C149.007 307.876 149.362 307.03 149.041 306.303C148.636 305.323 107.116 207.302 61.4883 173.416C60.8459 172.943 59.9499 173.078 59.4766 173.721C59.0032 174.363 59.1385 175.259 59.7809 175.733C104.783 209.162 145.998 306.455 146.404 307.436C146.624 307.96 147.165 308.298 147.723 308.298Z" fill="#333333"/>
<path d="M114.756 245.127C116.108 245.127 116.953 245.093 117.156 245.093L118.289 245.042L118.509 243.926C118.728 242.844 123.496 217.193 107.097 185.032C106.742 184.322 105.88 184.052 105.17 184.407C104.46 184.762 104.19 185.624 104.545 186.334C118.593 213.879 116.581 236.943 115.871 242.235C109.177 242.286 75.4168 241.576 53.034 223.213C52.4254 222.705 51.5126 222.807 51.0054 223.415C50.4982 224.024 50.5997 224.937 51.2082 225.445C73.5403 243.774 105.694 245.127 114.756 245.127Z" fill="#333333"/>
<path d="M103.666 288.633C120.487 288.633 138.795 285.099 139.86 284.896L140.418 284.795L140.756 284.338C141.094 283.865 149.158 272.232 148.499 240.68C148.482 239.885 147.823 239.259 147.028 239.276C146.233 239.293 145.608 239.953 145.625 240.747C146.2 267.954 140.114 279.824 138.711 282.208C133.96 283.087 102.482 288.583 86.5744 283.882C69.3478 278.775 59.5596 272.333 59.4582 272.265C58.7989 271.826 57.9029 272.012 57.4633 272.671C57.0238 273.331 57.2098 274.227 57.8691 274.667C58.2748 274.937 68.0799 281.396 85.7629 286.638C90.7669 288.109 97.1064 288.633 103.666 288.633Z" fill="#333333"/>
<path d="M57.1599 296.901C60.0676 294.246 63.6685 292.758 67.8441 292.268C69.9066 292.048 72.1043 292.082 74.3865 292.336C76.6349 292.657 79.0355 293.097 81.3853 293.858C81.3853 293.858 80.3203 292.877 78.6466 291.507C77.8014 290.831 76.8547 289.985 75.7896 289.157C74.7246 288.328 73.575 287.449 72.4423 286.57C70.1094 284.879 67.7596 283.205 65.9338 282.038C65.0378 281.446 64.2771 280.939 63.7361 280.618C63.1951 280.297 62.8908 280.094 62.8908 280.094C62.7556 280.33 61.8765 281.074 60.4057 281.835C58.9519 282.596 56.8894 283.442 54.4381 283.915C52.325 284.287 50.0596 284.507 48.0648 284.524C46.0192 284.625 44.2442 284.524 42.9256 284.524C41.8943 284.49 41.2012 283.864 41.6238 283.323C45.4445 278.487 52.3757 277.135 60.2874 278.504C60.2874 278.504 59.0871 277.828 57.2951 276.813C55.4694 275.833 53.035 274.565 50.533 273.415C48.031 272.248 45.4952 271.2 43.5511 270.49C42.5874 270.118 41.776 269.813 41.2012 269.627C40.6264 269.441 40.3052 269.323 40.3052 269.323C40.4067 269.56 40.3559 269.813 40.1193 269.999C35.8591 273.482 30.6523 274.801 24.2958 274.7C23.552 274.7 23.1294 274.108 23.5182 273.584C26.5274 269.39 31.4637 267.7 37.3975 268.393C37.3975 268.393 36.7551 268.207 35.8084 267.919C34.8448 267.649 33.56 267.328 32.2752 266.989C30.9735 266.719 29.6718 266.398 28.6912 266.228C27.7107 266.059 27.0514 265.941 27.0514 265.941C26.9331 266.059 26.764 266.161 26.5274 266.212C23.2646 266.939 20.2047 267.294 17.2125 267.344C15.7079 267.361 14.2371 267.361 12.7157 267.277C11.2111 267.26 9.70649 267.141 8.13428 267.378C7.40736 267.497 6.90018 267.023 7.44116 266.313C8.59073 264.893 10.2306 263.946 11.8535 263.32C13.4933 262.728 15.2176 262.407 16.9082 262.373C20.3062 262.289 23.6703 263.202 26.7302 264.96C26.95 265.096 27.0852 265.248 27.1528 265.4C27.1528 265.4 27.7952 265.518 28.742 265.687C29.7056 265.84 30.9566 266.161 32.2245 266.414C33.4755 266.736 34.7264 267.057 35.6731 267.294C36.6029 267.564 37.2285 267.75 37.2285 267.75C31.9709 265.011 28.1672 261.832 25.5807 257.081C25.2425 256.472 25.9526 256.015 26.9162 256.235C29.2998 256.81 33.4078 258.247 36.3156 260.936C39.2402 263.591 40.3221 266.55 40.711 268.19C40.7786 268.46 40.694 268.663 40.5081 268.799C40.5081 268.799 40.8293 268.917 41.4041 269.103C41.9789 269.289 42.7903 269.593 43.7539 269.965C45.6981 270.692 48.2508 271.741 50.7528 272.907C53.2717 274.057 55.706 275.342 57.5318 276.306C59.3407 277.321 60.541 277.997 60.541 277.997C54.9284 272.13 50.178 266.313 49.4003 259.803C49.3158 259.093 50.4823 259.11 51.5304 259.905C54.2522 261.798 58.5968 265.637 61.0312 269.83C63.8037 274.632 63.6177 279.248 63.1444 279.57C63.1444 279.57 63.4656 279.756 64.0235 280.111C64.5813 280.432 65.359 280.956 66.2888 281.582C68.1653 282.782 70.5997 284.524 73.0002 286.282C77.8014 289.833 82.2137 293.858 82.2137 293.858C80.7936 290.729 78.2747 284.676 77.159 279.502C75.9249 274.057 76.5334 269.999 77.0913 267.97C77.3111 267.158 78.5959 267.632 79.4243 268.934C85.1045 277.693 86.0343 284.389 85.7976 288.7C85.5102 293.046 84.0394 295.126 83.6506 295.143C85.4764 296.783 87.0655 298.406 88.6208 299.877C90.0916 301.416 91.4778 302.853 92.7457 304.189C93.9798 305.559 95.1125 306.844 96.1775 308.01C97.2087 309.194 98.1216 310.327 98.9838 311.358C100.725 313.387 102.01 315.163 103.126 316.583C104.241 318.003 105.053 319.17 105.695 320.066C108.282 323.702 107.961 323.38 107.792 323.499C107.622 323.617 107.825 324.023 105.188 320.371C104.529 319.458 103.717 318.291 102.585 316.854C101.452 315.416 100.15 313.624 98.409 311.561C94.9941 307.402 90.2268 301.839 82.9068 295.193C82.873 295.565 81.6051 296.36 79.6271 297.104C77.6492 297.848 74.9612 298.541 72.0197 298.829C66.8467 299.218 61.3524 298.66 58.3771 298.288C57.2275 298.22 56.5513 297.459 57.1599 296.901Z" fill="white"/>
<path d="M5.81692 239.073C9.77278 243.757 15.3516 245.566 15.3516 245.566C15.3516 245.566 14.4894 239.766 10.5335 235.082C6.57765 230.399 0.998872 228.589 0.998872 228.589C0.998872 228.589 1.86106 234.389 5.81692 239.073Z" fill="white"/>
<path d="M97.4434 160.446C100.943 165.079 106.082 167.125 106.082 167.125C106.082 167.125 105.541 161.63 102.025 156.997C98.5253 152.347 93.3861 150.318 93.3861 150.318C93.3861 150.318 93.944 155.796 97.4434 160.446Z" fill="white"/>
<path fill-rule="evenodd" clip-rule="evenodd" d="M318.797 192.193C318.797 192.193 237.519 239.288 237.495 306.44L245.669 328.119C245.669 328.119 244.739 332.85 260.429 320.323C262.842 322.079 271.55 325.568 294.332 310.815C322.164 292.759 342.649 247.636 342.649 247.636C342.649 247.636 321.597 251.285 298.603 269.538C312.658 234.406 318.797 192.193 318.797 192.193Z" fill="url(#paint0_linear)"/>
<path fill-rule="evenodd" clip-rule="evenodd" d="M207.371 197C207.371 197 167.349 267.903 196.843 318.08L212.477 330.684C212.477 330.684 213.862 334.627 220.077 318.372C222.651 318.624 230.69 317.406 241.227 296.37C254.084 270.649 249.557 227.937 249.557 227.937C249.557 227.937 235.433 239.915 226.277 263.658C221.337 231.234 207.371 197 207.371 197Z" fill="white"/>
<path d="M337.001 305.237C351.742 233.256 415.459 245.65 416.625 264.537C417.809 283.425 394.209 281.057 378.284 288.142C362.359 295.227 357.642 311.155 357.642 311.155L337.001 305.237Z" fill="#F7EDFF"/>
<path d="M341.716 318.223C342.358 318.223 342.967 317.868 343.288 317.259L351.554 301.331C357.015 290.797 372.754 265.941 400.918 262.745C401.882 262.626 402.592 261.764 402.473 260.783C402.355 259.82 401.493 259.109 400.512 259.228C370.658 262.626 354.124 288.666 348.41 299.708L340.143 315.636C339.687 316.498 340.025 317.563 340.904 318.02C341.158 318.155 341.445 318.223 341.716 318.223Z" fill="white"/>
<path d="M781.281 283.281C675.569 149.9 778.648 148.666 820.933 174.201C863.217 199.736 710.504 43.3159 801.792 4.39604C876.243 -27.3378 944.962 162.599 966.105 146.362C987.247 130.124 995.446 46.5524 1056.24 69.7562C1117.06 92.96 1164.64 253.11 1169.93 292.579C1044.61 311.641 823.593 336.655 781.281 283.281Z" fill="#F7EDFF" fill-opacity="0.75"/>
<path d="M1162.37 160.735C1154.28 162.216 1146.9 166.632 1140.1 172.913C1136.64 176.04 1133.35 179.66 1130.2 183.61C1127.02 187.56 1124.14 191.893 1121.1 196.391C1121.1 196.391 1121.23 195.623 1121.48 194.252C1121.75 192.908 1122.06 190.961 1122.41 188.602C1123.13 183.912 1124.09 177.686 1125.04 171.459C1125.92 165.206 1126.69 158.952 1127.29 154.262C1127.6 151.904 1127.84 149.956 1128.03 148.585C1128.2 147.213 1128.28 146.418 1128.28 146.418C1129.38 146.583 1137.58 144.333 1145.15 135.995C1151.81 128.782 1156.55 118.497 1159.1 112.49C1160.12 110.104 1159.65 107.8 1158.25 108.184C1152 109.912 1146.52 113.916 1141.72 119.429C1139.3 122.199 1137.11 125.326 1135 128.755C1132.86 132.183 1130.86 135.886 1128.99 139.808C1128.99 139.808 1129.32 136.818 1129.79 132.32C1130.31 127.822 1130.83 121.843 1131.35 115.836C1131.63 112.846 1131.9 109.829 1132.15 107.032C1132.37 104.207 1132.56 101.601 1132.72 99.3246C1133.05 94.8265 1133.27 91.8094 1133.27 91.8094C1133.63 92.1934 1134.15 92.3306 1134.72 92.0015C1139.77 89.1216 1143.91 85.0074 1147.12 79.6041C1150.38 74.2009 1152.6 67.4537 1153.84 59.3625C1154.11 57.47 1153.07 56.1809 1151.86 56.9214C1142.24 62.9007 1136.73 72.4729 1133.74 85.172C1133.74 85.172 1134.07 79.3573 1134.42 73.5426C1134.7 67.7279 1134.97 61.9133 1134.97 61.9133C1135.27 61.7213 1135.55 61.3921 1135.77 60.8984C1141.33 47.4314 1141.96 33.2513 1136.75 18.9067C1136.15 17.2336 1134.72 17.261 1134.15 18.9067C1129.13 32.5382 1128.55 46.3069 1133.16 60.7613C1133.33 61.2825 1133.57 61.639 1133.87 61.831C1133.87 61.831 1133.6 67.4537 1133.35 73.0763C1133.02 78.699 1132.7 84.3217 1132.7 84.3217C1131.19 71.5404 1126.44 61.8859 1117.61 55.5775C1116.49 54.7547 1115.31 55.9615 1115.42 57.7991C1115.72 62.4344 1116.76 70.6353 1120 77.8762C1123.29 85.1171 1128.09 89.5878 1130.86 91.7272C1131.32 92.0837 1131.79 92.0837 1132.17 91.8369C1132.17 91.8369 1131.96 94.8265 1131.63 99.3246C1131.46 101.574 1131.27 104.207 1131.05 107.004C1130.8 109.802 1130.53 112.792 1130.25 115.809C1129.73 121.788 1129.21 127.795 1128.69 132.265C1128.2 136.736 1127.9 139.726 1127.9 139.726C1127.21 135.365 1126.33 131.168 1125.24 127.246C1124.11 123.324 1122.69 119.621 1121.07 116.275C1117.78 109.583 1113.47 104.234 1107.74 100.806C1106.48 100.065 1105.55 102.04 1105.99 104.536C1106.51 107.663 1107.33 111.969 1108.56 116.604C1109.83 121.239 1111.5 126.204 1113.61 130.647C1118.49 140.74 1126.03 146.692 1127.21 146.336C1127.21 146.336 1127.13 147.131 1126.96 148.557C1126.77 149.956 1126.53 151.986 1126.22 154.399C1125.57 159.227 1124.83 165.672 1123.89 172.09C1122.91 178.508 1121.95 184.926 1121.21 189.726C1120.88 192.14 1120.47 194.115 1120.22 195.514C1119.97 196.912 1119.83 197.708 1119.83 197.708C1119.48 195.898 1118.96 193.703 1118.24 191.317C1117.5 188.903 1116.6 186.27 1115.56 183.61C1113.5 178.262 1110.9 172.721 1107.96 168.278C1101.54 158.76 1094.39 154.564 1090.38 152.809C1088.79 152.123 1087.92 154.454 1088.74 157.197C1091.64 166.605 1094.58 174.065 1097.87 180.127C1101.13 186.161 1104.48 190.686 1107.44 193.978C1113.45 200.588 1118.44 202.343 1119.09 201.849C1118.13 207.088 1117.34 211.998 1116.38 216.551C1115.42 221.104 1114.51 225.327 1113.66 229.25C1112.1 237.149 1110.29 243.731 1108.89 249.381C1106.21 260.682 1103.82 267.813 1102.5 272.476C1099.79 281.774 1100.2 280.923 1100.61 281.061C1101.02 281.198 1100.89 282.158 1103.71 272.722C1105.05 268.005 1107.47 260.737 1110.15 249.272C1111.58 243.539 1113.34 236.847 1114.93 228.838C1115.78 224.834 1116.68 220.555 1117.67 215.947C1118.57 211.312 1119.42 206.347 1120.38 201.026C1120.9 201.602 1123.98 201.301 1128.2 199.792C1132.39 198.284 1137.88 195.541 1142.81 191.29C1151.67 183.747 1159.21 172.447 1162.91 165.809C1164.34 163.094 1164.09 160.406 1162.37 160.735Z" fill="white"/>
<path d="M1139.69 311.753C1146.08 312.823 1203.42 320.256 1252.28 269.267C1299.53 219.938 1285.2 70.3101 1284.2 60.4757L1139.69 311.753ZM1139.69 311.753C1133.3 310.711 1088.71 295.817 1088.71 295.817L1139.69 311.753ZM1277.39 214.925C1272.12 236.906 1264.05 256.262 1251.92 268.922C1203.22 319.734 1146.09 312.318 1139.77 311.26L1139.77 311.259C1138.21 311.006 1134.26 309.892 1129.17 308.345C1124.1 306.803 1117.93 304.845 1111.96 302.918C1105.98 300.992 1100.21 299.098 1095.93 297.686C1093.79 296.98 1092.03 296.394 1090.8 295.985C1090.18 295.78 1089.7 295.62 1089.37 295.511L1089.23 295.463C1094.66 177.929 1161.39 100.717 1222.68 80.6287L1276.6 62.9653L1283.34 60.7574L1283.71 60.635C1283.74 60.9257 1283.78 61.3171 1283.83 61.8047C1283.94 62.9745 1284.1 64.6977 1284.28 66.9093C1284.65 71.3327 1285.12 77.71 1285.54 85.5225C1286.37 101.148 1286.97 122.512 1286.04 145.466C1285.11 168.423 1282.66 192.956 1277.39 214.925Z" fill="white" stroke="#333333"/>
<path d="M1115.25 308.791C1114.95 308.791 1114.65 308.736 1114.35 308.599C1113.17 308.106 1112.59 306.734 1113.11 305.555C1113.77 303.964 1181.12 144.966 1255.13 90.0006C1256.17 89.2327 1257.63 89.4521 1258.39 90.4944C1259.16 91.5366 1258.94 92.9903 1257.9 93.7583C1184.9 147.983 1118.05 305.802 1117.39 307.392C1117.03 308.243 1116.16 308.791 1115.25 308.791Z" fill="#333333"/>
<path d="M1168.73 206.321C1166.53 206.321 1165.16 206.266 1164.83 206.266L1163 206.183L1162.64 204.373C1162.28 202.618 1154.55 161.01 1181.15 108.843C1181.73 107.691 1183.12 107.252 1184.28 107.828C1185.43 108.404 1185.87 109.803 1185.29 110.954C1162.5 155.634 1165.77 193.046 1166.92 201.63C1177.78 201.713 1232.54 200.561 1268.85 170.774C1269.83 169.951 1271.31 170.116 1272.14 171.103C1272.96 172.091 1272.79 173.572 1271.81 174.395C1235.58 204.126 1183.43 206.321 1168.73 206.321Z" fill="#333333"/>
<path d="M1186.71 276.892C1159.43 276.892 1129.73 271.16 1128 270.831L1127.1 270.666L1126.55 269.925C1126 269.157 1112.92 250.287 1113.99 199.107C1114.02 197.818 1115.09 196.803 1116.38 196.831C1117.67 196.858 1118.68 197.928 1118.65 199.217C1117.72 243.348 1127.59 262.602 1129.87 266.47C1137.57 267.896 1188.63 276.81 1214.44 269.185C1242.38 260.902 1258.26 250.452 1258.42 250.342C1259.49 249.629 1260.95 249.931 1261.66 251C1262.37 252.07 1262.07 253.524 1261 254.237C1260.34 254.676 1244.44 265.153 1215.75 273.656C1207.64 276.042 1197.35 276.892 1186.71 276.892Z" fill="#333333"/>
<path d="M1262.15 290.304C1257.44 285.997 1251.59 283.584 1244.82 282.788C1241.48 282.432 1237.91 282.487 1234.21 282.898C1230.56 283.419 1226.67 284.132 1222.86 285.367C1222.86 285.367 1224.58 283.776 1227.3 281.554C1228.67 280.457 1230.21 279.086 1231.93 277.742C1233.66 276.398 1235.53 274.971 1237.36 273.545C1241.15 270.802 1244.96 268.087 1247.92 266.195C1249.37 265.235 1250.61 264.412 1251.49 263.891C1252.36 263.37 1252.86 263.04 1252.86 263.04C1253.08 263.424 1254.5 264.631 1256.89 265.866C1259.25 267.1 1262.59 268.471 1266.57 269.239C1270 269.842 1273.67 270.199 1276.91 270.227C1280.22 270.391 1283.1 270.227 1285.24 270.227C1286.91 270.172 1288.04 269.157 1287.35 268.279C1281.16 260.435 1269.91 258.241 1257.08 260.462C1257.08 260.462 1259.03 259.365 1261.93 257.72C1264.89 256.129 1268.84 254.072 1272.9 252.207C1276.96 250.314 1281.07 248.614 1284.23 247.462C1285.79 246.858 1287.11 246.364 1288.04 246.063C1288.97 245.761 1289.49 245.569 1289.49 245.569C1289.33 245.953 1289.41 246.364 1289.79 246.666C1296.7 252.316 1305.15 254.456 1315.46 254.291C1316.67 254.291 1317.35 253.331 1316.72 252.481C1311.84 245.679 1303.83 242.936 1294.21 244.06C1294.21 244.06 1295.25 243.759 1296.79 243.293C1298.35 242.854 1300.43 242.333 1302.52 241.784C1304.63 241.345 1306.74 240.824 1308.33 240.55C1309.92 240.275 1310.99 240.084 1310.99 240.084C1311.18 240.276 1311.46 240.44 1311.84 240.522C1317.13 241.702 1322.1 242.278 1326.95 242.36C1329.39 242.387 1331.78 242.387 1334.24 242.25C1336.69 242.223 1339.13 242.031 1341.68 242.415C1342.86 242.607 1343.68 241.839 1342.8 240.687C1340.94 238.383 1338.28 236.847 1335.64 235.832C1332.98 234.872 1330.19 234.351 1327.44 234.296C1321.93 234.159 1316.48 235.64 1311.51 238.493C1311.16 238.712 1310.94 238.959 1310.83 239.206C1310.83 239.206 1309.78 239.398 1308.25 239.672C1306.69 239.919 1304.66 240.44 1302.6 240.851C1300.57 241.373 1298.54 241.894 1297.01 242.278C1295.5 242.717 1294.48 243.018 1294.48 243.018C1303.01 238.575 1309.18 233.419 1313.38 225.711C1313.93 224.724 1312.77 223.983 1311.21 224.34C1307.34 225.273 1300.68 227.604 1295.96 231.965C1291.22 236.271 1289.46 241.071 1288.83 243.731C1288.72 244.17 1288.86 244.499 1289.16 244.719C1289.16 244.719 1288.64 244.911 1287.71 245.212C1286.78 245.514 1285.46 246.008 1283.9 246.611C1280.74 247.791 1276.6 249.491 1272.55 251.384C1268.46 253.249 1264.51 255.333 1261.55 256.897C1258.61 258.542 1256.67 259.639 1256.67 259.639C1265.77 250.122 1273.48 240.687 1274.74 230.127C1274.88 228.975 1272.98 229.003 1271.28 230.292C1266.87 233.364 1259.82 239.59 1255.87 246.392C1251.38 254.181 1251.68 261.669 1252.45 262.19C1252.45 262.19 1251.92 262.492 1251.02 263.068C1250.11 263.589 1248.85 264.439 1247.34 265.454C1244.3 267.401 1240.35 270.227 1236.46 273.079C1228.67 278.839 1221.51 285.367 1221.51 285.367C1223.82 280.292 1227.9 270.473 1229.71 262.08C1231.71 253.249 1230.73 246.666 1229.82 243.375C1229.47 242.058 1227.38 242.826 1226.04 244.938C1216.82 259.146 1215.32 270.007 1215.7 277.001C1216.17 284.05 1218.55 287.424 1219.18 287.451C1216.22 290.112 1213.64 292.745 1211.12 295.131C1208.73 297.627 1206.49 299.958 1204.43 302.125C1202.43 304.347 1200.59 306.431 1198.86 308.324C1197.19 310.243 1195.71 312.081 1194.31 313.754C1191.49 317.046 1189.4 319.925 1187.59 322.229C1185.78 324.533 1184.47 326.426 1183.42 327.879C1179.23 333.776 1179.75 333.255 1180.02 333.447C1180.3 333.639 1179.97 334.298 1184.25 328.373C1185.32 326.892 1186.63 325 1188.47 322.668C1190.31 320.337 1192.42 317.43 1195.24 314.083C1200.78 307.336 1208.51 298.312 1220.39 287.533C1220.44 288.137 1222.5 289.426 1225.71 290.633C1228.92 291.84 1233.28 292.964 1238.05 293.43C1246.44 294.061 1255.35 293.156 1260.18 292.553C1262.04 292.443 1263.14 291.209 1262.15 290.304Z" fill="white"/>
<path d="M1345.44 196.501C1339.02 204.098 1329.97 207.033 1329.97 207.033C1329.97 207.033 1331.37 197.625 1337.79 190.028C1344.2 182.43 1353.25 179.496 1353.25 179.496C1353.25 179.496 1351.85 188.903 1345.44 196.501Z" fill="white"/>
<path fill-rule="evenodd" clip-rule="evenodd" d="M837.755 120.459C837.755 120.459 969.595 196.852 969.633 305.777L956.375 340.943C956.375 340.943 957.883 348.617 932.433 328.297C928.518 331.146 914.393 336.803 877.441 312.874C832.295 283.585 799.067 210.393 799.067 210.393C799.067 210.393 833.214 216.311 870.511 245.918C847.713 188.93 837.755 120.459 837.755 120.459Z" fill="url(#paint1_linear)"/>
<path fill-rule="evenodd" clip-rule="evenodd" d="M1018.5 128.255C1018.5 128.255 1083.41 243.266 1035.57 324.657L1010.21 345.102C1010.21 345.102 1007.97 351.497 997.885 325.131C993.709 325.54 980.67 323.562 963.578 289.441C942.723 247.72 950.066 178.438 950.066 178.438C950.066 178.438 972.977 197.867 987.829 236.38C995.842 183.786 1018.5 128.255 1018.5 128.255Z" fill="white"/>
<path d="M808.227 303.825C784.315 187.065 680.962 207.17 679.069 237.807C677.15 268.443 715.431 264.603 741.263 276.096C767.094 287.588 774.745 313.425 774.745 313.425L808.227 303.825Z" fill="#F7EDFF"/>
<path d="M800.579 324.889C799.537 324.889 798.55 324.313 798.029 323.326L784.62 297.489C775.763 280.401 750.233 240.083 704.548 234.899C702.985 234.707 701.833 233.308 702.025 231.717C702.217 230.154 703.615 229.002 705.206 229.194C753.633 234.707 780.452 276.945 789.72 294.856L803.13 320.693C803.87 322.091 803.322 323.819 801.896 324.56C801.484 324.779 801.018 324.889 800.579 324.889Z" fill="white"/>
<defs>
<linearGradient id="paint0_linear" x1="250.983" y1="250.597" x2="333.446" y2="276.704" gradientUnits="userSpaceOnUse">
<stop stop-color="#BA58E1"/>
<stop offset="1" stop-color="#6F49BC"/>
</linearGradient>
<linearGradient id="paint1_linear" x1="947.755" y1="215.196" x2="813.995" y2="257.543" gradientUnits="userSpaceOnUse">
<stop stop-color="#BA58E1"/>
<stop offset="1" stop-color="#6F49BC"/>
</linearGradient>
</defs>
</svg>
