<svg width="54" height="54" viewBox="0 0 54 54" fill="none" xmlns="http://www.w3.org/2000/svg">
<rect width="54" height="54" rx="27" fill="#0D4EE3"/>
<g clip-path="url(#clip0_387_23953)">
<path d="M21.9538 34.5071C21.9769 34.5016 21.9996 34.4945 22.0215 34.4858C22.0786 34.4518 22.1322 34.4124 22.1815 34.3679C22.2122 34.3329 22.2382 34.294 22.2588 34.2522C22.2697 34.2351 22.2795 34.2173 22.2881 34.1989C22.304 34.1536 22.3135 34.1062 22.3163 34.0582C22.3163 34.0406 22.3264 34.0251 22.3264 34.0049C22.3264 33.9969 22.3237 33.9899 22.3232 33.982C22.3227 33.974 22.3275 33.9633 22.3264 33.9527L22.1617 32.3618C22.146 32.1692 22.0274 32.0002 21.8516 31.92C21.6759 31.8398 21.4704 31.861 21.3147 31.9754C21.159 32.0898 21.0773 32.2794 21.1013 32.4711L21.1402 32.8481C19.521 31.4801 18.4345 29.5862 18.0709 27.498C17.9772 26.9839 17.9322 26.4622 17.9366 25.9396C17.9393 25.5831 17.9637 25.2269 18.0096 24.8733H21.9591C22.3872 24.873 22.7343 24.5262 22.7348 24.0982V23.4088C22.7375 22.4702 22.2066 21.6116 21.3657 21.1947L19.0503 20.0372C18.9317 19.978 18.8569 19.8568 18.8573 19.7243V19.2487C18.8962 19.1986 18.9367 19.142 18.9783 19.085C19.2761 18.6623 19.5163 18.2019 19.6928 17.7159C20.0768 17.4915 20.3125 17.0799 20.3117 16.6352V15.6649C20.3109 15.3995 20.2259 15.1411 20.0691 14.927V13.754C20.1176 13.1052 19.9098 12.4632 19.4902 11.9659C18.799 11.2792 17.8413 10.9304 16.8703 11.0116C15.8993 10.9303 14.9415 11.2794 14.2505 11.9664C13.8315 12.4628 13.6237 13.1036 13.6715 13.7514V14.927C13.5147 15.1411 13.4298 15.3995 13.4289 15.6649V16.6341C13.4287 16.9803 13.5719 17.3112 13.8245 17.5479C13.9971 18.1538 14.2732 18.7252 14.6408 19.2369V19.7008C14.641 19.8288 14.571 19.9467 14.4585 20.0078L12.2966 21.1872C11.5007 21.6209 11.0056 22.455 11.0059 23.3613V24.0981C11.0064 24.5262 11.3535 24.873 11.7816 24.8733H16.9353C16.8942 25.2273 16.8725 25.5832 16.8703 25.9396C16.8687 26.5241 16.9212 27.1075 17.027 27.6824C17.4312 29.9913 18.6264 32.0876 20.4077 33.6114L20.156 33.637C19.8616 33.6518 19.6349 33.9024 19.6495 34.1968C19.6642 34.4913 19.9149 34.718 20.2093 34.7033C20.2274 34.7033 20.2461 34.7033 20.2626 34.7033L21.8535 34.5386C21.888 34.5316 21.9216 34.5211 21.9538 34.5071ZM12.072 23.807V23.3612C12.0717 22.8451 12.3539 22.37 12.8072 22.1233L14.9691 20.944C15.4239 20.6963 15.707 20.2197 15.707 19.7018V18.8653L15.5849 18.7171C15.2224 18.2451 14.9614 17.7032 14.8182 17.1256L14.7697 16.9124L14.5874 16.7951C14.532 16.7607 14.4977 16.7005 14.4963 16.6352V15.6649C14.4977 15.6103 14.5218 15.5589 14.5629 15.523L14.7389 15.3631V13.7258L14.733 13.656C14.7083 13.298 14.8229 12.9445 15.0529 12.6691C15.5469 12.2222 16.208 12.0071 16.8704 12.0778C17.5286 12.0087 18.1854 12.22 18.6798 12.66C18.9129 12.9376 19.0303 13.2942 19.0077 13.6559L19.0029 15.3641L19.1788 15.524C19.2199 15.5599 19.2441 15.6113 19.2455 15.6659V16.6351C19.2432 16.7198 19.1866 16.7934 19.1053 16.8174L18.8387 16.899L18.7539 17.1629C18.6061 17.6288 18.3876 18.0691 18.1062 18.4686C18.0491 18.5507 17.9879 18.63 17.9228 18.7058L17.7895 18.8572V19.723C17.7885 20.2609 18.0938 20.7524 18.5764 20.9897L20.8913 22.1472C21.3694 22.3854 21.6707 22.8745 21.6687 23.4086V23.8068H12.072V23.807Z" fill="white"/>
<path d="M31.4947 39.3215L29.1793 38.1641C29.0607 38.1049 28.9859 37.9836 28.9863 37.8511V37.3756C29.0252 37.3254 29.0657 37.2689 29.1073 37.2119C29.4051 36.7892 29.6453 36.3288 29.8217 35.8427C30.2057 35.6184 30.4414 35.2068 30.4407 34.7621V33.7917C30.4399 33.5263 30.3549 33.268 30.1981 33.0539V31.881C30.2459 31.233 30.038 30.5921 29.6191 30.0955C28.9284 29.4078 27.9707 29.058 26.9993 29.1385C26.0282 29.0573 25.0704 29.4063 24.3794 30.0934C23.9604 30.5898 23.7526 31.2305 23.8004 31.8784V33.0513C23.6436 33.2654 23.5587 33.5237 23.5578 33.7891V34.7584C23.5576 35.1046 23.7008 35.4354 23.9534 35.6722C24.126 36.2781 24.4021 36.8495 24.7697 37.3612V37.825C24.7709 37.954 24.7008 38.0732 24.5874 38.1348L22.4255 39.3141C21.6296 39.7479 21.1345 40.5819 21.1348 41.4882V42.225C21.1353 42.6531 21.4824 42.9999 21.9105 43.0002H32.0881C32.5162 42.9999 32.8633 42.6531 32.8638 42.225V41.5357C32.8664 40.5971 32.3356 39.7385 31.4947 39.3215ZM22.201 41.9339V41.4882C22.2007 40.972 22.4828 40.497 22.9362 40.2503L25.0981 39.0709C25.5529 38.8232 25.836 38.3466 25.8359 37.8287L25.8349 36.9911L25.7128 36.8429C25.3503 36.371 25.0893 35.8291 24.9461 35.2515L24.8976 35.0383L24.7153 34.921C24.6599 34.8866 24.6256 34.8264 24.6242 34.7611V33.7918C24.6256 33.7373 24.6497 33.6858 24.6908 33.65L24.8668 33.49V31.8527L24.862 31.7829C24.8372 31.425 24.9519 31.0714 25.1819 30.7961C25.6759 30.3492 26.3369 30.1341 26.9993 30.2048C27.6575 30.1356 28.3144 30.347 28.8088 30.7869C29.0418 31.0645 29.1592 31.4211 29.1367 31.7828L29.1319 33.491L29.3078 33.651C29.3489 33.6868 29.3731 33.7383 29.3745 33.7928V34.7621C29.3721 34.8468 29.3155 34.9204 29.2343 34.9444L28.9677 35.026L28.8829 35.2926C28.7351 35.7584 28.5166 36.1987 28.2351 36.5982C28.1781 36.6804 28.1169 36.7596 28.0518 36.8354L27.9185 36.9868V37.8499C27.9174 38.3878 28.2228 38.8793 28.7054 39.1167L31.0203 40.2741C31.4984 40.5124 31.7997 41.0014 31.7976 41.5355V41.9338H22.201V41.9339Z" fill="white"/>
<path d="M41.6256 21.1945L39.3106 20.036C39.1919 19.977 39.117 19.8556 39.1176 19.7231V19.247C39.1566 19.1974 39.1966 19.1403 39.2376 19.0838C39.5359 18.6614 39.7764 18.201 39.9525 17.7147C40.3364 17.4903 40.5719 17.0787 40.571 16.6341V15.6648C40.5704 15.3995 40.4856 15.1412 40.329 14.927V13.754C40.3772 13.1051 40.1691 12.4631 39.7494 11.9659C39.0584 11.2792 38.1009 10.9304 37.1301 11.0116C36.1591 10.9303 35.2013 11.2794 34.5103 11.9664C34.0913 12.4628 33.8834 13.1036 33.9313 13.7514V14.927C33.7745 15.1411 33.6896 15.3994 33.6887 15.6648V16.6341C33.6884 16.9803 33.8317 17.3112 34.0843 17.5479C34.2569 18.1538 34.533 18.7252 34.9006 19.2369V19.7007C34.9008 19.8288 34.8308 19.9467 34.7182 20.0078L32.5563 21.1871C31.7605 21.6209 31.2654 22.4549 31.2656 23.3613V24.0981C31.2662 24.5262 31.6132 24.873 32.0413 24.8732H35.9908C36.0368 25.2269 36.0612 25.5829 36.0639 25.9395C36.0656 26.4653 36.0181 26.99 35.9221 27.507C35.5546 29.5866 34.4719 31.4724 32.8613 32.8384L32.9002 32.4652C32.9237 32.1762 32.7119 31.9214 32.4235 31.8916C32.1351 31.8619 31.8758 32.0682 31.8399 32.3559L31.6751 33.9468C31.6751 33.9553 31.6778 33.9628 31.6751 33.9714C31.6724 33.9799 31.6714 33.9895 31.6714 33.9991C31.6742 34.0198 31.6785 34.0403 31.6842 34.0604C31.6871 34.1044 31.6959 34.1478 31.7103 34.1894C31.7193 34.209 31.7295 34.228 31.7406 34.2465C31.7619 34.289 31.7887 34.3285 31.8206 34.3637C31.8329 34.3765 31.8478 34.3861 31.8611 34.3979C31.8985 34.4317 31.9404 34.4598 31.9859 34.4816C32.004 34.4896 32.0232 34.4928 32.0424 34.4992C32.0766 34.5141 32.1124 34.5252 32.1491 34.5322L33.7399 34.697C33.7586 34.697 33.7767 34.697 33.7932 34.697C34.0877 34.7117 34.3383 34.4849 34.353 34.1905C34.3677 33.896 34.141 33.6454 33.8465 33.6307L33.5917 33.6046C35.3658 32.0851 36.5595 29.9985 36.9702 27.699C37.0778 27.1187 37.1313 26.5298 37.1301 25.9396C37.1279 25.5832 37.1062 25.2273 37.0651 24.8733H42.2195C42.6474 24.873 42.9944 24.5261 42.9946 24.0982V23.4088C42.9973 22.4701 42.4664 21.6115 41.6256 21.1945ZM32.3319 23.8069V23.3612C32.3316 22.845 32.6137 22.37 33.067 22.1233L35.2289 20.944C35.6838 20.6963 35.9669 20.2197 35.9668 19.7017V18.8652L35.8447 18.717C35.4822 18.2451 35.2213 17.7032 35.0781 17.1256L35.0295 16.9124L34.8472 16.7951C34.7917 16.7607 34.7574 16.7005 34.756 16.6352V15.6648C34.7574 15.6103 34.7816 15.5589 34.8227 15.523L34.9986 15.3631V13.7258L34.9938 13.6559C34.9691 13.298 35.0837 12.9445 35.3137 12.6691C35.8075 12.2225 36.4681 12.0075 37.1301 12.0778C37.7882 12.0088 38.445 12.2199 38.9396 12.6595C39.1726 12.9373 39.29 13.294 39.2675 13.6559L39.2627 15.3636L39.438 15.5235C39.4792 15.5595 39.5034 15.6112 39.5047 15.6658V16.6351C39.5023 16.7196 39.446 16.7931 39.365 16.8174L39.0984 16.899L39.0136 17.1656C38.8659 17.6316 38.6474 18.0722 38.3659 18.4718C38.2987 18.5667 38.2358 18.6472 38.1819 18.7096L38.0502 18.8605V19.7231C38.049 20.2607 38.3539 20.7522 38.8361 20.9898L41.151 22.1473C41.6291 22.3855 41.9304 22.8746 41.9283 23.4087V23.8069H32.3319Z" fill="white"/>
<path d="M21.1789 18.0792C21.1857 18.1169 21.1967 18.1538 21.212 18.189C21.212 18.1954 21.212 18.2029 21.2178 18.2088C21.2306 18.2277 21.2449 18.2455 21.2605 18.2621C21.2969 18.325 21.3513 18.3755 21.4167 18.4071C21.4445 18.4259 21.4741 18.4418 21.5052 18.4545C21.5154 18.4583 21.5229 18.4663 21.5335 18.4694L23.0636 18.9343C23.1139 18.9497 23.1662 18.9574 23.2187 18.9573C23.483 18.9573 23.7073 18.7636 23.746 18.5023C23.7848 18.2409 23.6262 17.9906 23.3733 17.914L23.0187 17.8073C25.5326 16.5688 28.4794 16.5698 30.9924 17.81L30.6458 17.9166C30.3929 17.9933 30.2344 18.2436 30.2731 18.505C30.3118 18.7664 30.5362 18.9599 30.8004 18.9599C30.853 18.9601 30.9053 18.9524 30.9555 18.937L32.4862 18.4721C32.4947 18.4721 32.5011 18.4631 32.5096 18.4599C32.5406 18.4471 32.5703 18.4311 32.5981 18.4125C32.655 18.3865 32.7031 18.3446 32.7368 18.2919C32.7611 18.2681 32.7828 18.2416 32.8013 18.213C32.8072 18.2029 32.8066 18.1907 32.8114 18.1805C32.8167 18.166 32.8211 18.1512 32.8247 18.1362C32.8445 18.0836 32.8556 18.0282 32.8578 17.9721V17.963C32.8564 17.9363 32.8528 17.9097 32.8471 17.8836C32.8465 17.8578 32.844 17.8322 32.8396 17.8068L32.3742 16.2767C32.3218 16.0908 32.173 15.9478 31.9852 15.9028C31.7975 15.8578 31.6 15.9179 31.4691 16.0598C31.3382 16.2018 31.2943 16.4034 31.3543 16.5869L31.4311 16.8397C28.6416 15.4757 25.3794 15.4726 22.5873 16.8311L22.6614 16.5869C22.704 16.4512 22.6906 16.3042 22.6242 16.1785C22.5579 16.0527 22.444 15.9587 22.3079 15.9173C22.1726 15.8761 22.0265 15.8904 21.9017 15.957C21.7769 16.0236 21.6837 16.137 21.6426 16.2724L21.1777 17.8025V17.8089C21.1627 17.8574 21.1548 17.9079 21.1543 17.9587C21.1543 17.9688 21.1591 17.9768 21.1596 17.9864C21.1634 18.0179 21.1699 18.0489 21.1789 18.0792Z" fill="white"/>
</g>
<defs>
<clipPath id="clip0_387_23953">
<rect width="32" height="32" fill="white" transform="translate(11 11)"/>
</clipPath>
</defs>
</svg>
