<svg width="18" height="18" viewBox="0 0 18 18" fill="none" xmlns="http://www.w3.org/2000/svg">
<path d="M8.99488 2.37275C5.07143 -1.05888 0.0828168 1.95625 0.0010144 6.04373C-0.0198317 7.08543 0.280872 8.10014 0.879432 9.03561H4.75912L5.44919 7.88546C5.64956 7.55154 6.13447 7.54078 6.3462 7.87368L7.80216 10.1616L9.92448 5.68123C10.1096 5.29028 10.6612 5.27787 10.8653 5.65697L12.6846 9.03561H17.1103C20.3888 3.91163 13.9094 -1.92566 8.99488 2.37275Z" fill="white"/>
<path d="M11.9047 9.81287L10.4305 7.07507L8.34581 11.476C8.16846 11.8504 7.64682 11.8829 7.4244 11.5333L5.91385 9.15965L5.50913 9.83417C5.41382 9.993 5.2422 10.0902 5.05698 10.0902H1.71289C1.81772 10.1999 1.25902 9.6423 8.62226 16.9674C8.82791 17.172 9.16035 17.1721 9.36604 16.9674C16.616 9.75501 16.1708 10.1997 16.2754 10.0902H12.3689C12.1749 10.0902 11.9966 9.98368 11.9047 9.81287Z" fill="white"/>
</svg>
