<svg width="46" height="42" viewBox="0 0 46 42" fill="none" xmlns="http://www.w3.org/2000/svg">
<path d="M15.6992 26.5001H4.39922C2.89922 26.5001 1.69922 25.3001 1.69922 23.8001V10.1001C1.69922 8.60015 2.89922 7.40015 4.39922 7.40015H41.6992C43.1992 7.40015 44.3992 8.60015 44.3992 10.1001V23.9001C44.3992 25.4001 43.1992 26.6001 41.6992 26.6001H29.6992" stroke="white" stroke-width="2" stroke-linecap="round" stroke-linejoin="round"/>
<path d="M15.7996 36.9001H9.59961C8.49961 36.9001 7.59961 36.2001 7.59961 35.2001V32.4001" stroke="#ED2939" stroke-linecap="round" stroke-linejoin="round"/>
<path d="M42.2996 26.5V29.6V38.3C42.2996 39.8 41.0996 41 39.5996 41H31.6996H6.29961C4.79961 41 3.59961 39.8 3.59961 38.3V26.5" stroke="white" stroke-width="2" stroke-linecap="round" stroke-linejoin="round"/>
<path d="M14.5996 5.8001V3.9001C14.5996 2.3001 15.8996 1.1001 17.3996 1.1001H28.7996C30.3996 1.1001 31.5996 2.4001 31.5996 3.9001V5.8001" stroke="white" stroke-width="2" stroke-linecap="round" stroke-linejoin="round"/>
<path d="M23.6984 17.6001C23.5984 17.6001 21.7984 17.6001 21.6984 17.6001C20.9984 20.1001 19.4984 21.1001 16.7984 21.1001C16.7984 21.1001 16.7984 21.1001 16.6984 21.1001C16.4984 21.7001 16.3984 23.9001 16.3984 24.6001C16.3984 31.6001 22.5984 34.7001 22.5984 34.7001C22.5984 34.7001 28.9984 31.6001 28.9984 24.6001C28.9984 24.1001 28.8984 22.0001 28.7984 21.5001C25.9984 21.4001 24.3984 20.2001 23.6984 17.6001Z" stroke="#3DA8FB" stroke-width="2" stroke-miterlimit="10" stroke-linecap="round" stroke-linejoin="round"/>
<path d="M22.798 29.0001C21.998 28.4001 20.498 27.0001 20.498 24.7001C20.498 24.4001 20.498 24.4001 20.498 23.9001" stroke="#ED2939" stroke-miterlimit="10" stroke-linecap="round" stroke-linejoin="round"/>
</svg>
