<svg width="178" height="183" viewBox="0 0 178 183" fill="none" xmlns="http://www.w3.org/2000/svg">
<path fill-rule="evenodd" clip-rule="evenodd" d="M55.0717 167.731C43.3343 156.183 43.8413 137.392 43.0922 120.83C42.5197 108.174 49.9402 97.1905 51.3102 84.5756C53.1999 67.1761 41.9094 47.3418 52.5857 33.4144C63.2136 19.5503 84.1115 19.527 101.446 19.1731C118.737 18.8201 137.123 20.4694 150.424 31.4169C163.315 42.0272 166.107 59.9187 170.588 76.0814C174.8 91.2721 180.138 106.858 175.55 122.034C170.947 137.257 158.221 147.937 145.841 157.926C133.087 168.218 119.655 178.462 103.452 180.212C86.418 182.052 67.2289 179.691 55.0717 167.731Z" fill="#FFF2E8"/>
<path d="M35.9195 71.4199C40.3756 67.5961 45.0286 64.0259 49.9142 60.7658C50.7135 60.2319 51.5218 59.7159 52.3331 59.2029C49.4877 60.2856 46.8331 61.6815 44.2978 63.2683C42.9795 64.0706 41.7119 64.9535 40.474 65.8751C39.8537 66.3374 39.2243 66.7789 38.6337 67.2829C38.0342 67.7721 37.4496 68.2791 36.8561 68.7772C36.5608 69.0278 36.2625 69.2753 35.9762 69.5348L35.1231 70.3312C34.5535 70.8591 33.9987 71.405 33.4409 71.9478C32.8981 72.5115 32.3731 73.0932 31.8392 73.6629L31.4485 74.0983L31.0727 74.5547C30.8221 74.8589 30.5716 75.1601 30.33 75.4703C29.3427 76.6932 28.4629 78.0265 27.6903 79.4194C27.5114 79.7803 27.3354 80.1442 27.1654 80.5051C26.9954 80.866 26.8671 81.2627 26.7269 81.6355C26.6703 81.7757 26.6345 81.9308 26.5957 82.0829C28.1228 79.4552 30.0317 77.1138 32.1733 74.9543C33.3843 73.7344 34.6191 72.5354 35.9195 71.4199Z" fill="#FFF2E8"/>
<path d="M102.935 34.7163C105.676 34.9101 108.298 35.5097 110.789 36.7027C113.753 38.1195 116.486 39.8942 119.054 41.9314C119.913 42.6114 120.757 43.3153 121.598 44.0192C123.372 45.4986 125.46 46.3785 127.635 47.0377C129.394 47.5716 130.993 48.3769 132.482 49.4268C133.767 50.3335 134.754 51.4878 135.521 52.8121C135.524 52.8121 135.524 52.8151 135.527 52.8151C135.774 53.012 136.013 53.2178 136.249 53.4295C136.043 52.6451 135.658 51.9024 135.187 51.2403C134.871 50.7929 134.516 50.3753 134.134 49.9816C133.755 49.5879 133.352 49.218 132.926 48.872C132.502 48.526 132.055 48.2069 131.59 47.9116C131.109 47.6163 130.608 47.3479 130.104 47.1212C129.093 46.6678 128.073 46.3248 127.107 45.9908C126.627 45.8148 126.155 45.6507 125.708 45.4688C125.263 45.2779 124.831 45.09 124.431 44.8663C124.33 44.8126 124.237 44.75 124.139 44.6933L123.993 44.6068L123.835 44.5024C123.623 44.3622 123.411 44.225 123.199 44.0789C122.779 43.7925 122.361 43.5002 121.95 43.199C120.294 42 118.708 40.6816 117.073 39.3931C116.253 38.7488 115.427 38.1135 114.571 37.4902C113.67 36.8429 112.718 36.2643 111.728 35.7662C109.739 34.7879 107.582 34.1764 105.414 33.9527C103.242 33.735 101.068 33.8692 98.9743 34.2808C97.987 34.4717 97.0236 34.7461 96.0781 35.0593C96.3138 35.0235 96.5524 34.9907 96.791 34.9668C98.8371 34.761 100.874 34.5731 102.935 34.7163Z" fill="#FFF2E8"/>
<path d="M76.7974 136.511C75.6491 136.294 74.5037 136.07 73.3673 135.795C68.6159 134.647 63.8138 133.734 59.0147 132.819C56.9328 132.422 54.8599 131.957 52.7959 131.471C51.048 131.059 49.4255 130.316 47.8089 129.532C46.5293 128.912 45.1632 128.461 43.8211 127.972C42.0285 127.322 40.218 126.722 38.5209 125.836C36.597 124.834 35.2101 123.361 34.2676 121.535C34.3213 121.696 34.3809 121.852 34.4495 122.004C34.9148 123.03 35.6038 123.907 36.3525 124.703C37.8706 126.284 39.6483 127.548 41.4886 128.649C41.9509 128.92 42.4222 129.177 42.9024 129.404C43.147 129.523 43.3677 129.639 43.6152 129.702C43.8598 129.768 44.1044 129.839 44.3341 129.944C45.2647 130.334 46.1863 130.737 47.1109 131.154C48.0415 131.566 48.9721 132.013 49.9892 132.428C50.4963 132.634 51.0242 132.828 51.5551 132.992C52.086 133.165 52.6289 133.293 53.1508 133.445C53.6788 133.603 54.2007 133.731 54.7346 133.791C55.2625 133.842 55.7935 133.899 56.3154 133.934C56.8374 133.973 57.3623 134.012 57.8783 134.039C58.3973 134.069 58.9193 134.095 59.4144 134.134C61.4247 134.268 63.441 134.501 65.4603 134.755C67.4825 135.011 69.5018 135.315 71.5181 135.658C73.5373 135.986 75.5566 136.344 77.5669 136.75L77.6087 136.604C77.3283 136.61 77.0599 136.559 76.7974 136.511Z" fill="#FFF2E8"/>
<path d="M165.21 66.3888C165.294 65.4791 165.097 64.638 164.638 63.8506C164.065 62.8723 163.304 62.052 162.493 61.2736C160.131 59.0097 157.688 56.8443 155.159 54.7684C152.853 52.8774 150.554 50.9744 148.352 48.9641C146.754 47.5026 145.289 45.889 143.822 44.2903C140.386 40.544 137.236 36.5532 134.003 32.634C132.789 31.1636 131.509 29.7438 130.191 28.3628C129.651 27.7961 129.087 27.2712 128.506 26.782C127.187 25.7769 125.809 24.8552 124.363 24.0797C122.797 23.3042 121.13 22.7137 119.364 22.2931C119.31 22.2812 119.253 22.2693 119.2 22.2573C119.182 22.3259 119.2 22.4005 119.277 22.4452C123.653 25.0133 127.668 27.9005 131.205 31.5632C134.465 34.9366 137.34 38.6441 140.353 42.2352C145.844 48.7762 152.764 53.7304 158.726 59.7942C160.56 61.6583 163.811 64.6171 163.149 67.5372C163.102 67.7519 163.122 67.9697 163.197 68.1695C163.534 68.074 163.865 67.9518 164.193 67.8265C164.84 67.573 165.148 67.0659 165.21 66.3888Z" fill="#FFF2E8"/>
<path d="M59.7152 87.515C60.3655 85.5405 61.4332 83.6972 62.7576 82.1343C65.5046 78.8951 69.0122 76.7744 72.9941 75.5933C81.0801 73.1952 90.2935 73.923 98.2573 76.4761C100.533 77.2039 102.746 78.1047 104.891 79.1784C105.902 79.6855 107.023 80.5206 108.184 81.1261C107.772 80.5505 107.322 80.0046 106.832 79.4916C104.682 77.2367 102.117 75.638 99.3131 74.436C94.8153 72.5151 90.1176 71.686 85.2677 71.6621C84.0091 71.7307 82.7474 71.7695 81.4917 71.8769C80.4656 71.9663 79.4396 72.1095 78.4225 72.2855C74.0082 73.0491 69.8563 74.5553 66.0534 77.0518C64.3145 78.1942 62.7516 79.5453 61.4392 81.2007C60.616 82.2357 59.927 83.3601 59.4289 84.6009C58.4894 86.9364 58.3253 89.2897 59.0054 91.6311C59.0173 91.2911 59.0232 90.9481 59.059 90.5991C59.1575 89.5522 59.3871 88.5142 59.7152 87.515Z" fill="#FFF2E8"/>
<path d="M107.588 76.2437C107.516 76.2109 107.448 76.1781 107.379 76.1453C107.51 76.2646 107.641 76.3868 107.773 76.5091C107.71 76.4226 107.65 76.3332 107.588 76.2437Z" fill="#FFF2E8"/>
<path d="M112.509 83.946C112.39 83.5374 112.208 83.1556 111.996 82.7917C112.181 83.2809 112.339 83.7731 112.467 84.2622C112.518 84.1697 112.542 84.0594 112.509 83.946Z" fill="#FFF2E8"/>
<path d="M111.527 93.794C111.56 93.6479 111.59 93.4987 111.62 93.3496C111.509 93.5942 111.393 93.8388 111.268 94.0834C111.354 93.9879 111.444 93.8925 111.527 93.794Z" fill="#FFF2E8"/>
<path d="M98.6552 99.6872C91.106 103.782 82.346 104.516 74.078 102.691C69.8814 101.763 66.0427 100.123 62.4844 97.7365C63.245 98.5478 64.1129 99.2696 65.1032 99.884C66.5259 100.764 67.9814 101.563 69.5115 102.222C73.389 103.887 77.4365 104.746 81.6182 104.969C86.8528 105.253 91.968 104.585 96.9223 102.777C99.9318 101.68 102.735 100.182 105.205 98.0557C106.992 96.5166 108.498 94.736 109.473 92.5169C109.936 91.464 110.24 90.42 110.389 89.3821C107.239 93.5906 103.38 97.1251 98.6552 99.6872Z" fill="#FFF2E8"/>
<path d="M110.845 80.3678C110.007 78.9092 108.96 77.6416 107.77 76.5082C107.641 76.3859 107.51 76.2636 107.376 76.1443C107.03 75.8311 106.675 75.5239 106.308 75.2316C103.639 73.099 100.656 71.5957 97.4526 70.5697C90.4881 68.3387 83.4311 68.0792 76.3085 69.648C72.5801 70.4683 69.0248 71.7777 65.7528 73.8387C63.1996 75.4464 60.9447 77.4239 59.176 79.9502C57.4908 82.3602 56.432 85.0326 56.3276 88.0302C56.2053 91.5677 57.2999 94.7054 59.5638 97.3511C60.3512 98.2727 61.2878 99.0601 62.1647 99.8983C64.4434 102.07 67.0682 103.653 69.9435 104.802C74.674 106.69 79.5924 107.447 85.4503 107.379C88.1646 107.328 91.6334 106.848 95.0336 105.873C98.9141 104.76 102.55 103.096 105.78 100.563C107.928 98.8782 109.777 96.9007 111.086 94.44C111.149 94.3207 111.203 94.2044 111.262 94.0851C111.385 93.8405 111.504 93.5959 111.614 93.3513C112.98 90.306 113.252 87.2726 112.458 84.2631C112.33 83.771 112.172 83.2818 111.987 82.7927C111.689 81.9814 111.307 81.1731 110.845 80.3678ZM59.3669 92.6832C59.2267 92.3342 59.1074 91.9853 59.006 91.6333C58.326 89.2949 58.49 86.9386 59.4296 84.6031C59.9306 83.3594 60.6196 82.2379 61.4399 81.2029C62.7522 79.5505 64.3152 78.1964 66.0541 77.054C69.854 74.5605 74.0058 73.0513 78.4232 72.2877C79.4403 72.1117 80.4663 71.9686 81.4923 71.8791C82.748 71.7687 84.0097 71.7329 85.2684 71.6643C90.1182 71.6882 94.8159 72.5174 99.3138 74.4382C102.12 75.6372 104.683 77.236 106.833 79.4938C107.322 80.0069 107.773 80.5527 108.184 81.1283C108.497 81.5638 108.79 82.0142 109.049 82.4914C110.278 84.7493 110.725 87.046 110.388 89.3754C110.239 90.4134 109.932 91.4603 109.473 92.5102C108.5 94.7263 106.994 96.507 105.205 98.049C102.735 100.176 99.9312 101.676 96.9217 102.771C91.9645 104.578 86.8522 105.246 81.6176 104.963C77.4389 104.739 73.3914 103.88 69.511 102.216C67.9809 101.56 66.5253 100.76 65.1026 99.8774C64.1123 99.263 63.2444 98.5412 62.4838 97.7299C61.1416 96.3071 60.1305 94.5951 59.3669 92.6832Z" fill="black"/>
<path d="M37.1455 73.5237C42.1087 69.348 47.1136 65.2199 52.1096 61.083C53.2877 60.1076 54.4599 59.1323 55.4591 57.9691C55.653 57.7424 55.814 57.4829 55.99 57.2383C55.9393 57.1817 55.8916 57.128 55.8409 57.0713C55.5545 57.2234 55.2563 57.3576 54.9848 57.5306C54.102 58.0884 53.2191 58.6372 52.3362 59.195C51.525 59.708 50.7167 60.227 49.9173 60.7579C45.0317 64.0179 40.3787 67.5912 35.9226 71.412C34.6222 72.5275 33.3874 73.7265 32.1794 74.9464C30.0378 77.1029 28.1289 79.4473 26.6018 82.075C26.4437 82.3464 26.2856 82.6149 26.1365 82.8922C25.9337 83.2681 25.7458 83.6558 25.6115 84.0585C25.5101 84.3687 25.6056 84.6819 25.8919 84.8847C26.1962 85.1024 26.5392 85.0994 26.8255 84.8787C27.076 84.6848 27.3117 84.4611 27.5234 84.2255C27.6338 84.2076 27.7412 84.1867 27.8426 84.148C28.2631 83.9899 28.6688 83.7841 29.0744 83.5812C32.1645 82.0362 34.9324 80.0229 37.584 77.8307C40.0864 75.7637 42.5471 73.6579 44.7036 71.2181C45.1122 70.7558 45.4821 70.2547 45.843 69.7536C45.9772 69.5657 46.0697 69.3301 46.1114 69.1004C46.186 68.6828 45.9354 68.4353 45.5268 68.5486C45.1868 68.6411 44.8706 68.82 44.5515 68.9811C41.7388 70.3889 39.2543 72.2799 36.8383 74.2604C35.5438 75.3193 34.2851 76.4139 33.0533 77.5413C34.3239 76.1186 35.6721 74.7615 37.1455 73.5237ZM41.4286 71.5999C42.5262 70.8065 43.7402 70.1771 44.9034 69.4762C44.975 69.4315 45.0675 69.4225 45.1868 69.3837C44.1071 71.7818 33.9302 80.1184 28.9342 82.5821C29.1878 82.3047 29.4323 82.0183 29.6978 81.7529C33.3516 78.0693 37.2201 74.6362 41.4286 71.5999Z" fill="black"/>
<path d="M68.2107 17.088C65.9677 16.8226 63.7337 16.9091 61.5027 17.1984C60.6288 17.3117 59.7638 17.4877 58.8958 17.6547C57.0496 18.0126 55.3465 18.7345 53.7179 19.6591C51.1797 21.0997 48.8263 22.8028 46.479 24.5298C41.3607 28.2939 36.5676 32.4547 31.7327 36.5648C28.5353 39.285 25.3796 42.0619 21.9525 44.4987C19.1071 46.521 16.2139 48.4657 13.1984 50.2165C12.93 50.3895 12.6615 50.5625 12.3901 50.7325C11.5311 51.2634 10.6542 51.7615 9.75939 52.2238C9.30901 52.4475 8.85862 52.6712 8.39333 52.8562C8.16068 52.9516 7.92803 53.0351 7.6924 53.1127C7.46274 53.1872 7.20623 53.2588 6.99446 53.2857L6.97656 53.5839C7.54923 53.6078 8.04436 53.4974 8.56036 53.3841C9.07039 53.2678 9.5685 53.1127 10.0636 52.9516C11.0539 52.6295 12.0053 52.2179 12.9538 51.7973C14.8448 50.9502 16.6732 49.9779 18.4568 48.9459C20.2435 47.9139 21.9853 46.8133 23.7123 45.6888C24.5653 45.1161 25.4243 44.5465 26.2684 43.9559L27.5361 43.076L28.7888 42.1752C35.461 37.3642 41.7932 32.1356 47.9465 26.725C48.719 26.0509 49.4825 25.3679 50.2431 24.6819L51.3855 23.6529L51.5286 23.5246L51.6151 23.4471C51.6837 23.3904 51.7643 23.3248 51.8478 23.2592C52.0118 23.1309 52.1938 22.9997 52.3757 22.8744C53.8611 21.8603 55.5672 21.0401 57.3299 20.4346C60.8733 19.2057 64.724 18.8388 68.5716 19.1371C69.0518 19.1848 69.535 19.2117 70.0182 19.2803L70.746 19.3698L71.5065 19.4801C72.5206 19.6322 73.5407 19.7605 74.5578 19.8887C76.595 20.1482 78.6381 20.3719 80.6902 20.536C82.432 20.6851 84.1769 20.7865 85.9307 20.8402C82.4261 20.363 78.9751 19.5696 75.551 18.639C73.1351 17.9798 70.7042 17.3833 68.2107 17.088Z" fill="#FFF2E8"/>
<path d="M94.0709 155.941C96.3765 156.552 98.6851 157.137 101.05 157.489C103.747 157.888 106.422 157.748 109.107 157.387C112.137 156.979 114.932 155.956 117.485 154.279C118.741 153.456 120.02 152.663 121.234 151.78C125.732 148.511 130.107 145.087 134.316 141.448C137.636 138.575 140.976 135.724 144.386 132.962C149.31 128.974 154.58 125.496 160.215 122.576C160.45 122.454 160.689 122.335 160.927 122.219C160.671 122.287 160.417 122.362 160.161 122.439C159.165 122.743 158.204 123.134 157.25 123.537C155.344 124.348 153.498 125.285 151.693 126.284C149.886 127.283 148.123 128.348 146.378 129.44C145.513 129.994 144.642 130.549 143.789 131.122L142.503 131.975L141.236 132.852C134.474 137.532 128.04 142.638 121.783 147.929C120.998 148.588 120.22 149.256 119.447 149.928L118.284 150.933L118.138 151.058L118.049 151.133C117.977 151.189 117.896 151.252 117.813 151.314C117.646 151.44 117.461 151.565 117.276 151.69C115.77 152.675 114.049 153.465 112.274 154.035C108.707 155.195 104.85 155.487 101.012 155.117C100.531 155.061 100.048 155.022 99.5679 154.947L98.8432 154.846L98.0826 154.721C97.0714 154.551 96.0544 154.402 95.0403 154.252C93.0091 153.954 90.9689 153.692 88.9228 153.486C86.8767 153.271 84.8216 153.116 82.7576 153.038C81.7256 153.003 80.6906 152.991 79.6556 153.021C78.8056 153.053 77.9525 153.101 77.1055 153.235C79.1963 153.331 81.2812 153.492 83.3631 153.748C86.987 154.196 90.5424 155.007 94.0709 155.941Z" fill="#FFF2E8"/>
<path d="M166.852 62.8606C166.262 61.59 165.427 60.4924 164.454 59.4962C162.572 57.5634 160.657 55.6694 158.558 53.9663C157.409 53.0327 156.3 52.0544 155.154 51.1179C153.496 49.7578 151.858 48.3619 150.143 47.0764C148.342 45.7222 146.669 44.2518 145.15 42.5874C143.495 40.771 141.875 38.9128 140.119 37.2007C137.3 34.4597 134.887 31.3845 132.501 28.2856C129.691 24.6348 126.118 22.1114 121.736 20.7066C118.253 19.5911 114.688 19.0632 111.032 19.1079C105.165 19.1795 99.2949 19.269 93.428 19.257C90.3021 19.2511 87.1793 18.9319 84.1131 18.3235C81.0052 17.706 77.9241 16.9484 74.843 16.2058C72.6149 15.6659 70.3839 15.1648 68.1051 14.9053C65.1851 14.5713 62.2949 14.8546 59.4166 15.3438C56.6517 15.8121 54.0806 16.7874 51.7094 18.2698C50.3344 19.1288 48.9475 19.9759 47.6321 20.9243C42.9643 24.2858 38.4246 27.8113 34.1087 31.6202C31.8717 33.5917 29.5691 35.4917 27.344 37.4781C23.0221 41.3377 18.2737 44.6127 13.4329 47.7683C11.5538 48.9912 9.64489 50.1694 7.72703 51.3296C6.91277 51.8218 6.03586 52.2095 5.19773 52.6659C4.92034 52.815 4.57137 52.9224 4.51172 53.4175C5.13808 53.7009 5.72865 53.5338 6.30132 53.4384C7.4914 53.2385 8.56218 52.7017 9.62699 52.1648C10.8409 51.5533 12.028 50.9001 13.2002 50.2231C16.2157 48.4752 19.1089 46.5275 21.9544 44.5053C25.3814 42.0685 28.5371 39.2916 31.7345 36.5714C36.5694 32.4613 41.3626 28.3005 46.4808 24.5363C48.8282 22.8124 51.1815 21.1063 53.7197 19.6657C55.3513 18.741 57.0544 18.0162 58.8977 17.6613C59.7626 17.4943 60.6306 17.3183 61.5045 17.205C63.7355 16.9156 65.9696 16.8291 68.2125 17.0946C70.709 17.3899 73.1369 17.9834 75.5559 18.6396C78.9799 19.5672 82.4309 20.3606 85.9355 20.8408C87.2479 21.0198 88.5633 21.157 89.8905 21.2345C93.1745 21.4314 96.4673 21.5268 99.7572 21.5447C103.79 21.5656 107.819 21.4344 111.852 21.4195C114.331 21.4105 116.779 21.6998 119.201 22.2636C119.255 22.2755 119.312 22.2874 119.365 22.2993C121.131 22.7199 122.801 23.3105 124.364 24.086C125.841 24.8167 127.225 25.7115 128.507 26.7883C129.092 27.2774 129.652 27.8053 130.192 28.3691C131.508 29.75 132.79 31.1698 134.004 32.6403C137.237 36.5595 140.387 40.5503 143.823 44.2965C145.291 45.8952 146.755 47.5088 148.354 48.9704C150.555 50.9807 152.855 52.8836 155.16 54.7746C157.69 56.8505 160.132 59.0189 162.495 61.2798C163.306 62.0583 164.066 62.8785 164.639 63.8568C165.101 64.6443 165.295 65.4854 165.212 66.3951C165.149 67.0692 164.842 67.5792 164.195 67.8268C163.867 67.952 163.536 68.0743 163.199 68.1698C163.079 68.2026 162.957 68.2324 162.838 68.2593C159.721 68.8916 156.678 68.5486 153.666 67.606C151.384 66.8902 149.38 65.7657 147.76 63.9911C146.713 62.8457 145.64 61.7272 144.637 60.5461C142.755 58.3329 140.739 56.2898 138.105 54.9595C137.914 54.8641 137.735 54.709 137.536 54.6732C137.5 54.6672 137.458 54.6613 137.419 54.6583C137.061 54.2139 136.671 53.8142 136.259 53.4384C136.023 53.2266 135.785 53.0238 135.537 52.824C135.534 52.824 135.534 52.821 135.531 52.821C134.765 51.4967 133.777 50.3424 132.492 49.4356C131.001 48.3828 129.402 47.5804 127.645 47.0465C125.471 46.3844 123.383 45.5075 121.608 44.0281C120.764 43.3242 119.923 42.6203 119.064 41.9402C116.496 39.906 113.764 38.1313 110.799 36.7116C108.309 35.5215 105.687 34.919 102.946 34.7251C100.888 34.579 98.8475 34.7699 96.8073 34.9757C96.5687 34.9995 96.3301 35.0323 96.0945 35.0681C94.9849 35.2352 93.9052 35.5275 92.8464 35.8973C92.4914 36.0226 92.1305 36.1837 91.8293 36.4044C91.3282 36.7712 91.3699 37.3827 91.8949 37.7048C92.0709 37.8152 92.2916 37.8927 92.4974 37.9106C92.9478 37.9494 93.4071 37.9971 93.8485 37.9434C95.9782 37.6899 98.1048 37.3976 100.234 37.1321C103.653 36.7056 106.925 37.1292 110.047 38.6772C113.281 40.2789 116.219 42.3041 118.843 44.7588C120.642 46.441 122.667 47.6639 125.002 48.4036C125.208 48.4693 125.405 48.5528 125.608 48.6214C127.571 49.2776 129.339 50.3155 131.039 51.4668C132.292 52.3139 133.178 53.504 133.834 54.8522C134.556 56.3405 134.335 57.6738 133.196 58.8639C132.17 59.9376 130.86 60.5073 129.435 60.7936C127.159 61.253 124.874 61.1486 122.607 60.725C120.582 60.3462 118.655 59.6364 116.752 58.8698C111.628 56.8118 106.361 55.228 100.983 53.9991C97.5232 53.2087 94.0096 52.8001 90.4692 53.2117C86.7766 53.6382 83.096 54.19 79.4184 54.7358C76.4894 55.1713 73.5604 55.5978 70.5927 55.4964C67.4311 55.389 64.3231 54.9446 61.3703 53.7307C60.0251 53.1789 58.6978 52.5883 57.3556 52.0246C56.9619 51.8576 56.5592 51.7025 56.1476 51.5861C55.742 51.4728 55.3453 51.5086 55.0083 51.9053C55.1663 52.3795 55.5422 52.5704 55.8911 52.7524C57.6002 53.6472 59.3212 54.5211 61.0422 55.398C61.6686 55.7171 62.3098 55.9856 62.96 56.2123C62.8467 56.3375 62.7513 56.5075 62.6797 56.7402C62.5544 57.1488 62.4619 57.5753 62.4291 57.9989C62.3218 59.4276 61.7849 60.6684 60.9318 61.8018C59.876 63.2066 58.5994 64.3669 57.1767 65.3989C55.5779 66.5621 54.0091 67.7701 52.4849 69.0318C51.8705 69.5388 51.3873 70.2159 50.8981 70.8571C50.6744 71.1494 50.5492 71.5342 50.4418 71.8951C50.3255 72.2829 50.4179 72.6587 50.749 72.9301C51.0831 73.2045 51.4678 73.2194 51.8168 72.9957C52.2553 72.7183 52.6997 72.4231 53.0785 72.0711C54.1821 71.0421 55.3542 70.1145 56.6219 69.3002C57.9492 68.4472 59.3272 67.6925 60.7916 67.105C62.5484 66.401 63.9145 65.202 65.0479 63.7166C65.6683 62.9054 66.0501 61.9897 66.1724 60.9696C66.2141 60.6266 66.2499 60.2836 66.2887 59.9406C66.3573 59.9495 66.3931 59.9436 66.3991 59.9555C66.5333 60.1792 66.6675 60.4059 66.7898 60.6356C67.6428 62.2372 68.9791 63.3289 70.5808 64.0984C72.093 64.8262 73.8229 64.4593 74.7535 63.3349C75.4843 63.6003 76.1822 63.9135 76.91 64.1044C78.3506 64.4862 79.5466 63.9582 80.519 62.9143C81.3512 62.0195 81.1424 60.8712 80.0805 60.2657C79.8181 60.1166 79.5109 59.9883 79.2126 59.9585C77.933 59.8302 76.6922 59.9913 75.529 60.5878C74.9414 60.8891 74.5716 61.3484 74.3986 61.9897C74.3061 62.3327 74.1719 62.6638 74.0466 62.9978C73.9184 63.3378 73.6529 63.5198 73.3129 63.6152C72.4569 63.8538 71.6098 63.8688 70.8074 63.4452C69.3728 62.6846 68.132 61.7063 67.3088 60.2657C67.0493 59.8094 66.8226 59.3291 66.5094 58.9116C66.2112 58.5119 66.0739 58.0884 65.9755 57.6141C65.9308 57.3934 65.8681 57.1727 65.7936 56.9579C66.8136 57.1488 67.8486 57.2801 68.8896 57.3815C71.6605 57.6499 74.4224 57.4859 77.1725 57.1816C78.7264 57.0116 80.2744 56.8207 81.8254 56.6298C82.9439 56.7909 84.0386 57.0772 85.1123 57.4262C88.3903 58.491 91.3878 60.0748 93.8485 62.5564C94.2154 62.9262 94.627 63.2633 95.0565 63.5586C95.6948 63.997 96.4643 63.8181 96.8312 63.135C96.9923 62.8338 97.0758 62.458 97.0817 62.115C97.1026 61.08 96.7477 60.1375 96.1691 59.3023C94.8119 57.3337 93.0522 56.1884 91.009 55.6485C93.5413 55.5441 96.0647 55.6963 98.582 56.1765C99.5514 56.3614 100.515 56.5702 101.472 56.7909C101.606 57.3845 101.869 57.9362 102.31 58.4343C102.931 59.1383 103.614 59.7557 104.443 60.2061C105.072 60.5461 105.708 60.8742 106.313 61.253C107.47 61.9748 108.07 63.0306 108.106 64.3997C108.127 65.2736 107.87 66.0909 107.584 66.9021C107.467 67.2332 107.387 67.5852 107.348 67.9371C107.333 68.0654 107.449 68.2533 107.563 68.3338C107.628 68.3786 107.846 68.298 107.93 68.2115C108.792 67.3137 109.594 66.3742 110.012 65.1692C110.408 64.0239 110.423 62.9083 109.961 61.7541C109.37 60.2717 108.377 59.1681 107.038 58.3449C106.951 58.2912 106.862 58.2375 106.775 58.1838C108.192 58.5954 109.606 59.0339 111.011 59.4842C113.278 60.215 115.512 61.0591 117.752 61.8674C121.259 63.135 124.853 63.6838 128.579 63.2484C130.356 63.0426 132.042 62.5594 133.575 61.6318C135.484 60.4775 136.578 58.6401 136.653 56.6656C137.205 57.4232 137.577 58.2792 137.753 59.2427C137.816 59.5946 137.911 59.9406 138.01 60.2836C138.756 62.9262 138.833 65.5748 138.284 68.2801C137.771 70.8035 136.653 72.9391 134.753 74.672C133.93 75.4236 132.99 75.9784 131.925 76.3005C131.615 76.396 131.224 76.5093 130.956 76.4019C130.33 76.1484 129.703 75.8322 129.169 75.4206C128.57 74.9613 128.03 74.4035 127.541 73.8249C126.491 72.5901 125.492 71.3105 124.46 70.0578C123.684 69.1153 122.73 68.4263 121.563 68.0415C120.797 67.791 120.027 67.7283 119.24 67.9192C117.91 68.2414 117.588 69.0198 117.99 70.2755C118.083 70.5649 118.25 70.8422 118.435 71.0868C118.736 71.4865 119.046 71.8862 119.41 72.2262C120.123 72.8943 120.871 73.5266 121.611 74.1619C122.363 74.8062 123.204 75.3192 124.146 75.6056C125.489 76.0142 126.858 76.3363 128.215 76.6972C128.337 76.73 128.459 76.7569 128.594 76.7897C128.555 76.8702 128.549 76.9 128.534 76.912C126.032 78.9133 123.83 81.2338 121.62 83.5394C120.919 84.2702 120.367 85.1113 120.039 86.0717C119.872 86.5579 119.771 87.0918 119.768 87.6048C119.765 88.4012 120.308 88.9798 121.077 89.1886C121.647 89.3437 122.199 89.2244 122.661 88.9381C123.365 88.5026 124.069 88.0313 124.665 87.4617C126.601 85.6184 127.958 83.3933 128.814 80.864C129.205 79.7097 129.652 78.5852 130.35 77.5682C130.589 77.2192 130.866 77.0671 131.275 77.0014C131.764 76.9239 132.262 76.8106 132.716 76.6167C135.421 75.4564 137.291 73.4312 138.371 70.7438C139.292 68.4501 139.731 66.0282 139.57 63.5317C139.445 61.6168 139.006 59.7616 138.472 57.9273C138.314 57.3874 138.022 56.8774 137.75 56.3793C137.706 56.2958 137.67 56.2302 137.64 56.1675C138.007 56.4837 138.383 56.7879 138.744 57.11C139.26 57.5694 139.8 58.0138 140.253 58.5298C141.121 59.5141 141.956 60.5282 142.764 61.5602C142.8 61.6049 142.839 61.6497 142.875 61.6974C142.878 61.7242 142.878 61.7541 142.881 61.7809C143.188 64.7009 143.03 67.5762 142.204 70.4157C141.544 72.6855 140.679 74.8778 139.811 77.07C139.689 77.3802 139.549 77.6934 139.495 78.0156C139.462 78.2243 139.51 78.5017 139.629 78.6688C139.802 78.9104 140.116 78.8805 140.345 78.7314C140.7 78.5017 141.091 78.278 141.342 77.9529C141.759 77.4101 142.135 76.8135 142.424 76.1931C143.769 73.3029 144.452 70.2517 144.554 67.0692C144.572 66.4816 144.557 65.891 144.557 65.3004C144.619 65.2945 144.685 65.2885 144.748 65.2826C144.882 65.6852 145.031 66.0849 145.147 66.4935C145.983 69.4702 146.164 72.4976 145.792 75.5608C145.756 75.8442 145.72 76.1335 145.747 76.4139C145.821 77.1715 146.463 77.5294 147.146 77.1893C147.375 77.076 147.611 76.912 147.754 76.7062C148.064 76.2617 148.39 75.8024 148.583 75.3043C149.374 73.291 149.448 71.224 148.926 69.1272C148.765 68.477 148.536 67.8745 148.255 67.3078C149.079 67.9013 149.961 68.3965 150.913 68.7753C154.355 70.1532 157.931 70.7349 161.636 70.3173C162.653 70.2039 163.67 70.0578 164.666 69.8311C166.136 69.4941 166.998 68.5008 167.327 67.0483C167.664 65.6017 167.476 64.2028 166.852 62.8606ZM75.0548 61.9658C75.192 61.584 75.4574 61.3305 75.8124 61.1516C76.5521 60.7757 77.3454 60.6415 78.1866 60.5371C78.6668 60.6475 79.1798 60.6863 79.6153 60.8891C80.343 61.2291 80.4504 61.8853 79.9046 62.4609C79.141 63.2722 78.2045 63.7077 77.074 63.4184C76.4805 63.2663 75.9018 63.0336 75.3441 62.7771C74.9205 62.5803 74.8997 62.4043 75.0548 61.9658ZM51.3784 72.2471C51.3575 72.3127 51.3127 72.3723 51.271 72.429C51.259 72.4469 51.2322 72.4529 51.1397 72.5006C51.089 72.3574 50.9787 72.2083 51.0085 72.095C51.0771 71.8206 51.1875 71.5521 51.3247 71.3046C51.7452 70.544 52.3089 69.8908 52.9979 69.3658C54.534 68.1966 56.0701 67.0244 57.6569 65.9268C59.2257 64.8441 60.5918 63.5765 61.7193 62.0404C62.5723 60.8771 63.1151 59.6125 63.1659 58.148C63.1837 57.6618 63.1569 57.1429 63.4701 56.7104C64.4603 56.9967 64.5647 57.1309 64.4096 58.1122C64.2426 59.1621 63.822 60.1255 63.2553 61.0173C62.0772 62.8696 60.6187 64.4325 58.7306 65.6136C57.0961 66.6367 55.5451 67.794 53.9673 68.9065C52.7653 69.7565 51.8556 70.8363 51.3784 72.2471ZM64.4752 63.493C63.4492 64.859 62.1577 65.8761 60.5709 66.5204C58.5248 67.3495 56.6487 68.474 54.8919 69.8013C54.191 70.3322 53.5497 70.9436 52.8816 71.5163C52.6937 71.6774 52.5028 71.8355 52.3149 71.9965C52.306 71.4626 52.5207 71.0689 52.822 70.7408C53.2395 70.2845 53.6601 69.8162 54.1552 69.4553C55.6943 68.3338 57.2303 67.2004 58.838 66.1803C60.4307 65.1722 61.8147 63.9761 62.969 62.4848C64.0189 61.1277 64.8153 59.6572 65.203 57.9691C65.6415 59.9048 65.7548 61.7898 64.4752 63.493ZM95.6829 62.6787C95.5069 62.5624 95.3548 62.4043 95.2116 62.2462C93.6159 60.4954 91.8412 58.9623 89.7593 57.808C89.7325 57.7931 89.7205 57.7483 89.6967 57.7125C91.4982 58.318 94.5793 60.6684 96.1631 62.6876C95.9185 62.6906 95.7664 62.7353 95.6829 62.6787ZM96.1064 61.3782C96.1273 61.4468 96.1392 61.5184 96.1452 61.587C96.1482 61.6049 96.1243 61.6288 96.0975 61.6795C93.6159 58.9802 90.6839 57.0265 87.0809 56.1407C87.8086 55.9587 88.5305 55.9587 89.2403 56.0989C90.7436 56.3942 92.1872 56.8804 93.4578 57.7662C94.7493 58.664 95.656 59.8571 96.1064 61.3782ZM105.415 58.2106C105.961 58.5507 106.498 58.9086 107.026 59.2725C108.094 60.0092 108.875 60.9756 109.364 62.1836C109.967 63.6659 109.591 65.5331 108.353 66.7858C108.482 66.3235 108.592 65.9417 108.69 65.554C109.215 63.4661 108.383 61.5005 106.516 60.4357C105.896 60.0808 105.257 59.7557 104.634 59.4067C103.808 58.9474 103.104 58.3329 102.606 57.5336C102.498 57.3606 102.412 57.1727 102.331 56.9848C103.077 57.1667 103.82 57.3546 104.559 57.5545C104.825 57.7961 105.105 58.0198 105.415 58.2106ZM120.582 72.1486C119.825 71.4089 119.01 70.711 118.745 69.5746C118.864 69.6611 118.992 69.7357 119.1 69.8311C119.881 70.5261 120.642 71.2479 121.447 71.919C121.936 72.3306 122.476 72.6855 123.016 73.0315C124.078 73.7116 125.158 74.3618 126.228 75.0299C126.422 75.1522 126.601 75.3043 126.786 75.4415C124.239 75.182 122.312 73.8398 120.582 72.1486ZM119.24 68.8021C119.795 68.6082 120.284 68.647 120.77 68.7603C121.924 69.0347 122.861 69.6641 123.63 70.547C124.585 71.6416 125.527 72.7482 126.476 73.8488C126.643 74.0426 126.816 74.2365 126.983 74.4274C124.179 72.8585 121.423 71.2717 119.24 68.8021ZM124.087 86.8502C123.604 87.3006 123.043 87.6794 122.491 88.0492C122.202 88.2431 121.862 88.3922 121.435 88.2789C123.717 84.9234 125.894 81.5291 128.785 78.5226C127.854 81.7528 126.497 84.6043 124.087 86.8502ZM121.095 88.1715C120.704 87.9836 120.627 87.7092 120.663 87.4169C120.704 87.065 120.767 86.71 120.889 86.3789C121.176 85.5885 121.59 84.8608 122.172 84.2493C124.143 82.1794 126.127 80.1213 128.113 78.0692C128.355 77.8187 128.653 77.6218 128.925 77.4011C128.972 77.4459 129.017 77.4906 129.065 77.5353C125.882 80.688 123.198 84.2135 121.095 88.1715ZM141.807 76.1365C141.586 76.6077 141.288 77.0462 140.981 77.4697C140.793 77.7292 140.524 77.9291 140.295 78.1557C140.235 78.114 140.172 78.0722 140.113 78.0305C140.238 77.7322 140.354 77.428 140.488 77.1327C141.404 75.0896 142.227 73.0106 142.854 70.8542C143.492 68.6559 143.749 66.4249 143.596 63.9911C143.945 64.6055 143.936 65.1513 143.948 65.6613C144.029 69.3121 143.364 72.8197 141.807 76.1365ZM147.838 75.2118C147.71 75.5399 147.516 75.8531 147.301 76.1335C147.158 76.3244 146.925 76.4467 146.731 76.5988C146.669 76.566 146.606 76.5302 146.543 76.4974C146.564 76.1216 146.561 75.7457 146.609 75.3729C147.05 71.8832 146.71 68.477 145.511 65.1632C145.496 65.1245 145.517 65.0738 145.529 64.9783C146.499 65.7807 147.241 66.7232 147.733 67.8417C148.81 70.2815 148.81 72.7452 147.838 75.2118Z" fill="black"/>
<path d="M5.2485 107.174C4.94128 107.884 4.79513 108.603 4.7832 109.322C4.8697 109.844 5.05761 110.342 5.335 110.816C5.90767 111.794 6.66825 112.615 7.47953 113.393C9.84181 115.657 12.2846 117.822 14.8139 119.898C15.7177 120.641 16.6184 121.387 17.5162 122.138C18.3245 122.717 19.1239 123.308 19.9113 123.916C20.6957 124.522 21.4623 125.148 22.2199 125.786C22.2079 125.798 22.196 125.813 22.1841 125.828C21.1103 124.954 20.0366 124.083 18.9658 123.203C18.8763 123.132 18.7779 123.114 18.6884 123.129C19.6786 123.973 20.6599 124.826 21.6174 125.703C23.2161 127.164 24.6806 128.778 26.1451 130.376C29.5811 134.123 32.7308 138.111 35.961 142.033C36.4979 142.683 37.0497 143.321 37.6074 143.954C37.6313 143.951 37.6522 143.945 37.676 143.939C37.7446 144.049 37.8162 144.156 37.8848 144.267C38.5201 144.974 39.1674 145.669 39.8265 146.355C42.2067 148.836 45.0164 150.569 48.1959 151.673C48.1452 151.535 48.0617 151.41 47.9454 151.33C46.463 150.286 44.912 149.618 43.6354 148.264C42.3439 146.891 41.3447 145.272 40.3783 143.661C38.2726 140.157 35.9789 136.795 33.378 133.637C27.9883 127.099 21.4772 121.485 14.1726 117.187C12.1504 115.997 10.0446 114.867 8.41907 113.14C6.88598 111.508 5.79433 108.892 6.33717 106.637C6.2119 106.679 6.08663 106.724 5.96136 106.763C5.66607 106.855 5.43044 106.998 5.2485 107.174Z" fill="#FFF2E8"/>
<path d="M164.228 121.143C163.044 121.268 161.97 121.703 160.923 122.216C160.685 122.333 160.449 122.452 160.211 122.574C154.579 125.494 149.309 128.972 144.382 132.96C140.969 135.722 137.629 138.573 134.312 141.446C130.107 145.087 125.731 148.512 121.23 151.778C120.016 152.66 118.737 153.454 117.481 154.277C114.925 155.953 112.133 156.976 109.103 157.385C106.418 157.746 103.743 157.886 101.046 157.486C98.6812 157.134 96.3726 156.55 94.067 155.938C90.5385 155.005 86.9831 154.194 83.3532 153.746C81.2713 153.49 79.1835 153.329 77.0956 153.233C74.8049 153.129 72.5083 153.102 70.2086 153.126C66.1999 153.167 62.1942 153.263 58.1855 153.266C55.5101 153.266 52.8644 152.941 50.2546 152.285C49.5507 152.109 48.8647 151.903 48.1936 151.67C45.0141 150.57 42.2044 148.834 39.8242 146.352C39.168 145.666 38.5178 144.971 37.8825 144.264C37.79 144.16 37.6976 144.055 37.6051 143.951C37.0444 143.322 36.4926 142.68 35.9587 142.03C32.7284 138.108 29.5758 134.12 26.1427 130.374C24.6752 128.775 23.2137 127.162 21.615 125.7C20.6546 124.823 19.6733 123.97 18.6861 123.126C18.2953 122.795 17.9046 122.464 17.5139 122.136C16.6161 121.384 15.7153 120.639 14.8116 119.896C12.2853 117.82 9.83947 115.651 7.47719 113.391C6.66591 112.612 5.90235 111.792 5.33266 110.814C5.05527 110.339 4.87034 109.841 4.78086 109.319C4.73612 109.051 4.71524 108.776 4.72718 108.493C4.74805 107.947 4.90912 107.497 5.24616 107.172C5.43108 106.993 5.66373 106.853 5.95902 106.757C6.08429 106.715 6.20956 106.674 6.33483 106.632C6.63906 106.528 6.94628 106.426 7.25946 106.375C9.6098 105.988 11.9482 105.937 14.2866 106.53C16.3775 107.061 18.4295 107.652 20.2162 108.923C21.451 109.799 22.4651 110.912 23.4822 112.016C25.0511 113.716 26.5752 115.458 28.165 117.137C29.1492 118.178 30.393 118.858 31.6249 119.556C32.0693 120.12 32.7792 120.313 33.4711 120.504C33.5815 120.534 33.6918 120.537 33.7933 120.519C33.9334 120.868 34.0885 121.208 34.2586 121.536C35.2011 123.362 36.588 124.835 38.5118 125.837C40.212 126.723 42.0195 127.323 43.812 127.973C45.1542 128.459 46.5203 128.909 47.7999 129.533C49.4165 130.317 51.039 131.06 52.7869 131.472C54.8509 131.958 56.9238 132.423 59.0057 132.82C63.8048 133.735 68.6069 134.648 73.3583 135.796C74.4917 136.071 75.6401 136.295 76.7884 136.512C77.0509 136.563 77.3223 136.611 77.5997 136.605C77.8502 136.599 78.1097 136.548 78.3841 136.408C78.2052 136.277 78.1067 136.178 77.9904 136.122C77.3193 135.811 76.6601 135.474 75.9711 135.212C72.7141 133.974 69.4003 132.915 66.012 132.107C62.8593 131.355 59.6858 130.681 56.5301 129.947C54.2275 129.414 51.9368 128.814 49.8549 127.651C47.7581 126.482 45.5509 125.605 43.2453 124.963C41.6019 124.507 40.0837 123.821 38.661 122.846C37.3754 121.963 36.5403 120.797 35.9796 119.413C35.4904 118.214 35.7141 117.068 36.5522 116.066C37.5305 114.897 38.8399 114.268 40.2806 113.945C42.7651 113.391 45.2765 113.459 47.7342 114.044C49.5358 114.473 51.3164 115.061 53.0374 115.744C57.9022 117.68 62.8892 119.201 67.9657 120.445C71.6015 121.336 75.2851 121.823 79.0314 121.506C81.1908 121.325 83.3413 121.011 85.4918 120.722C88.895 120.263 92.2833 119.69 95.6925 119.314C99.1047 118.938 102.508 119.213 105.849 120.042C107.802 120.528 109.631 121.348 111.465 122.151C112.121 122.437 112.771 122.744 113.445 122.971C113.791 123.087 114.197 123.111 114.561 123.06C114.975 123.004 115.053 122.685 114.749 122.401C114.543 122.207 114.301 122.04 114.051 121.909C112.446 121.068 110.839 120.236 109.228 119.407C108.291 118.923 107.331 118.548 106.353 118.249C106.827 117.301 107.623 116.609 108.488 115.983C109.636 115.15 110.904 114.563 112.231 114.074C115.754 112.779 117.794 110.202 118.558 106.575C118.862 105.126 118.57 103.679 118.423 102.235C118.391 101.91 118.409 101.505 117.946 101.484C117.499 101.463 117.442 101.86 117.365 102.176C117.057 103.44 116.407 104.52 115.494 105.418C114.77 106.134 113.982 106.802 113.165 107.41C111.146 108.905 109.58 110.742 108.599 113.068C108.294 113.79 107.913 114.482 107.555 115.183C107.45 115.386 107.307 115.568 107.182 115.759C107.253 114.727 107.391 113.74 107.575 112.758C107.883 111.127 108.539 109.621 109.299 108.159C109.541 107.694 109.824 107.249 110.039 106.772C110.275 106.25 110.006 105.916 109.443 106.012C108.569 106.158 107.737 106.417 106.985 106.924C104.751 108.433 103.579 111.401 104.104 114.145C104.312 115.234 104.811 116.215 105.118 117.265C105.207 117.575 105.318 117.829 105.494 118.017C103.698 117.557 101.843 117.34 99.9667 117.235C97.3628 117.089 94.7679 117.268 92.1819 117.569C88.5103 117.996 84.8446 118.479 81.1699 118.885C78.2887 119.204 75.4104 119.162 72.5381 118.709C71.7865 118.589 71.0408 118.449 70.2981 118.297C71.175 118.121 72.0281 117.811 72.8513 117.346C73.3822 117.047 73.8863 116.645 74.2949 116.194C75.2851 115.106 75.1241 113.799 73.9608 112.904C73.2301 112.341 72.383 112.081 71.4882 112.117C70.5874 112.153 69.6896 112.308 68.7948 112.433C67.3572 112.636 65.9225 112.884 64.4819 113.06C63.6915 113.155 62.91 113.012 62.1763 112.69C60.8759 112.117 60.4851 111.142 61.0459 109.835C61.204 109.465 61.4485 109.131 61.6186 108.765C61.6782 108.633 61.6991 108.404 61.6245 108.317C61.55 108.231 61.2994 108.204 61.1831 108.26C60.3211 108.684 59.4919 109.158 58.9461 109.987C58.3764 110.852 58.2869 111.768 58.7701 112.699C59.5337 114.172 60.8431 114.921 62.4 115.21C63.3067 115.377 64.2493 115.359 65.1769 115.401C65.9643 115.437 66.7517 115.428 67.5362 115.464C67.7927 115.476 68.0611 115.538 68.2938 115.646C68.947 115.947 69.0364 116.424 68.4578 116.833C68.085 117.095 67.7241 117.405 67.3005 117.605C65.8659 117.244 64.4402 116.848 63.0144 116.454C59.5396 115.49 56.1573 114.265 52.7809 113.012C49.3866 111.756 45.9029 111.076 42.264 111.353C40.7041 111.473 39.2008 111.762 37.7841 112.356C38.1718 110.614 38.998 109.128 40.376 107.911C41.7361 108.705 42.8188 108.633 43.6092 107.741C44.2803 106.984 44.3131 105.847 43.6868 105.045C43.0216 104.192 41.7719 103.939 40.7816 104.455C40.3193 104.696 39.9912 105.054 39.7825 105.531C39.4812 106.223 39.681 106.871 39.9763 107.494C38.2404 108.568 36.9131 111.076 36.937 112.755C36.758 112.848 36.5821 112.94 36.4061 113.045C34.5926 114.118 33.4801 115.872 33.322 117.757C32.7523 117.432 32.2274 117.021 31.771 116.549C31.7322 116.445 31.6756 116.343 31.6249 116.245C30.8941 114.876 30.7838 113.48 31.1745 111.959C31.9679 108.875 33.4473 106.265 36.0034 104.311C36.77 103.724 37.6111 103.276 38.5506 103.056C39.4544 102.844 40.3671 102.668 41.2797 102.492C43.2095 102.122 45.0767 101.567 46.8007 100.601C48.5992 99.5928 49.9862 98.182 50.878 96.3178C51.0808 95.8943 51.2478 95.429 51.3105 94.9637C51.4685 93.8034 50.6483 92.9265 49.494 93.0578C48.8677 93.1294 48.2145 93.3024 47.6537 93.5887C46.4696 94.1972 45.3034 94.8533 44.1908 95.5871C41.9687 97.0546 40.0956 98.9336 38.2553 100.843C38.0972 101.007 37.9302 101.162 37.7542 101.335C37.7274 101.266 37.7095 101.245 37.7125 101.233C37.7662 101.126 37.8228 101.022 37.8795 100.917C38.8131 99.2558 39.4365 97.4811 39.69 95.599C39.7884 94.8593 39.7884 94.054 39.6124 93.3352C39.1531 91.4561 37.2889 90.7611 35.7051 91.8587C35.1504 92.2435 34.6433 92.7595 34.2526 93.3113C33.1937 94.8056 32.6181 96.5028 32.627 98.3371C32.633 99.8851 32.7434 101.433 32.8478 102.978C32.9134 103.942 32.9581 104.875 32.4183 105.746C32.2184 106.065 32.114 106.444 31.9619 106.793C31.0045 109.012 30.1932 111.282 29.9933 113.71C29.9098 114.706 29.9218 115.696 30.1663 116.633C30.0172 116.49 29.8681 116.34 29.7309 116.185C28.848 115.186 27.9979 114.151 27.1747 113.101C25.9667 111.556 24.6872 110.086 23.2823 108.714C21.8566 107.324 20.2072 106.304 18.343 105.636C14.9697 104.422 11.5008 103.945 7.92758 104.395C7.05366 104.505 6.17675 104.628 5.32073 104.833C3.89799 105.179 2.99425 106.101 2.65422 107.53C2.31122 108.97 2.45737 110.369 3.06583 111.723C3.65043 113.024 4.49453 114.145 5.48179 115.159C7.34297 117.077 9.24293 118.956 11.3189 120.647C12.503 121.611 13.6513 122.619 14.8295 123.588C16.4699 124.934 18.0865 126.315 19.7837 127.585C21.6061 128.951 23.2883 130.449 24.8333 132.122C26.9033 134.368 29.018 136.569 31.1059 138.797C32.0186 139.772 32.9551 140.73 33.8022 141.759C35.1355 143.378 36.4001 145.055 37.7035 146.701C39.7496 149.284 42.2014 151.366 45.202 152.765C49.2912 154.674 53.6161 155.539 58.102 155.575C61.034 155.598 63.9719 155.518 66.9038 155.434C71.2466 155.312 75.5894 155.226 79.9202 155.622C82.0319 155.816 84.1556 156.022 86.2285 156.436C89.4975 157.09 92.7337 157.922 95.9819 158.688C98.9824 159.395 101.995 160.022 105.1 159.902C106.338 159.855 107.575 159.753 108.807 159.604C111.912 159.228 114.898 158.438 117.594 156.788C119.101 155.87 120.643 154.99 122.053 153.943C125.424 151.444 128.797 148.935 132.045 146.278C135.809 143.196 139.442 139.951 143.132 136.775C145.736 134.532 148.393 132.348 151.257 130.446C155.704 127.49 160.052 124.376 164.843 121.966C165.081 121.846 165.275 121.638 165.57 121.408C165.072 120.964 164.634 121.098 164.228 121.143ZM117.505 104.684C117.538 104.547 117.585 104.416 117.63 104.282C117.636 104.267 117.669 104.264 117.746 104.231C118.179 107.986 115.858 111.846 112.389 113.185C111.641 113.474 110.889 113.755 110 114.089C110.194 113.85 110.287 113.695 110.415 113.585C111.155 112.946 111.903 112.32 112.646 111.688C113.371 111.067 114.14 110.494 114.8 109.811C116.186 108.371 117.045 106.629 117.505 104.684ZM109.407 113.385C110.164 111.622 111.31 110.14 112.756 108.902C113.911 107.914 115.116 106.99 116.342 106C115.715 107.664 114.737 109.021 113.475 110.178C113.108 110.515 112.721 110.834 112.324 111.139C111.301 111.926 110.346 112.785 109.526 113.784C109.437 113.895 109.359 114.011 109.276 114.127C109.225 114.098 109.174 114.065 109.126 114.035C109.219 113.82 109.314 113.602 109.407 113.385ZM108.61 107.061C108.661 107.088 108.715 107.118 108.766 107.145C108.661 107.345 108.566 107.551 108.452 107.744C107.307 109.698 106.514 111.765 106.329 114.047C106.281 114.64 106.212 115.252 105.965 115.807C105.914 115.807 105.863 115.807 105.813 115.807C105.759 115.326 105.658 114.846 105.661 114.366C105.667 112.884 105.783 111.413 106.505 110.068C106.639 109.817 106.761 109.555 106.928 109.325C107.209 108.94 107.528 108.586 107.811 108.204C108.088 107.834 108.345 107.443 108.61 107.061ZM104.978 113.951C104.274 112.138 105.335 109.179 107.119 107.992C105.732 109.74 105.055 111.732 104.978 113.951ZM69.0514 117.185C69.7374 116.499 69.6718 115.684 68.8903 115.112C68.4727 114.804 67.9985 114.661 67.4855 114.649C66.701 114.631 65.9106 114.658 65.1262 114.614C64.0822 114.554 63.0264 114.524 62.0033 114.336C60.8759 114.127 59.9184 113.558 59.2951 112.526C58.8268 111.75 58.9103 111.013 59.4233 110.327C59.7007 109.955 60.0765 109.659 60.4076 109.328C60.4464 109.376 60.4822 109.424 60.5209 109.474C60.4553 109.677 60.3837 109.877 60.3271 110.08C59.9811 111.279 60.336 112.314 61.362 113.021C62.3672 113.71 63.5036 113.898 64.6967 113.862C66.537 113.808 68.3385 113.462 70.146 113.155C70.9036 113.027 71.6761 112.958 72.4098 113.215C72.8453 113.367 73.2718 113.62 73.6238 113.919C74.0652 114.291 74.0921 114.766 73.8177 115.279C73.7401 115.425 73.6447 115.568 73.5313 115.687C72.1742 117.119 70.4264 117.605 68.4936 117.701C68.6815 117.525 68.8724 117.364 69.0514 117.185ZM41.6436 105.042C42.4788 105.045 43.1558 105.674 43.135 106.435C43.1171 107.154 42.5086 107.67 41.6735 107.676C40.8204 107.682 40.2299 107.136 40.2388 106.346C40.2478 105.612 40.8652 105.039 41.6436 105.042ZM50.2606 95.6676C49.5895 96.9561 48.6738 98.0358 47.4897 98.8889C46.058 99.9209 44.4593 100.598 42.7562 101.001C41.232 101.362 39.687 101.615 38.148 101.913C38.1748 101.889 38.2016 101.863 38.2285 101.839C38.3627 101.722 38.5029 101.612 38.6431 101.496C38.6371 101.517 38.6311 101.538 38.6252 101.561C38.7266 101.543 38.8131 101.546 38.8757 101.511C40.543 100.589 42.2581 99.7628 44.0238 99.038C45.1423 98.5757 46.2161 97.9971 47.2868 97.4244C48.5604 96.7443 49.6163 95.7959 50.4813 94.4984C50.6155 95.0144 50.4306 95.3455 50.2606 95.6676ZM46.6724 94.8175C47.3495 94.4298 48.0802 94.1256 48.808 93.8392C49.145 93.705 49.5358 93.708 50.013 93.6304C49.7804 94.0629 49.6461 94.3314 49.497 94.5909C49.0466 95.3723 48.4262 96.0046 47.6477 96.4401C46.2787 97.2067 44.9067 97.9762 43.4839 98.6324C42.1 99.2737 40.722 99.9149 39.4365 100.735C39.3559 100.789 39.2575 100.828 39.0964 100.905C39.0815 100.902 39.0666 100.905 39.0517 100.914C39.1412 100.756 39.165 100.693 39.2068 100.652C41.5094 98.4653 43.9045 96.3984 46.6724 94.8175ZM38.664 101.221C38.658 101.227 38.652 101.23 38.649 101.236C38.6431 101.227 38.6371 101.221 38.6282 101.215C38.6282 101.212 38.6311 101.212 38.6311 101.209C38.6431 101.212 38.655 101.215 38.664 101.221ZM37.9511 92.4105C38.5983 92.8669 38.8906 93.4604 38.8966 94.1524C38.9026 94.8384 38.8698 95.5364 38.7445 96.2105C38.306 98.5817 37.459 100.798 35.9766 102.716C35.5292 103.294 34.8879 103.727 34.2854 104.183C35.1891 101.931 35.3562 99.5421 35.8871 97.2335C36.1824 95.948 36.5552 94.7102 37.3277 93.6155C37.5753 93.2725 37.7244 92.8609 37.9511 92.4105ZM33.4831 97.4095C33.6292 96.0106 34.1184 94.7281 34.9267 93.5768C35.3025 93.0429 35.7737 92.6044 36.3673 92.327C36.6357 92.2017 36.934 92.1421 37.2203 92.0526C37.2532 92.1033 37.2889 92.157 37.3218 92.2077C37.2532 92.324 37.1965 92.4553 37.113 92.5597C35.9945 93.9227 35.4278 95.5334 35.0728 97.2246C34.706 98.9694 34.3958 100.729 34.0498 102.48C33.9692 102.889 33.844 103.288 33.6799 103.682C33.5517 101.582 33.2653 99.5003 33.4831 97.4095ZM33.3131 118.482C33.3131 118.497 33.3131 118.509 33.3131 118.524C33.2444 118.488 33.1818 118.449 33.1162 118.41C33.1818 118.434 33.2474 118.461 33.3131 118.482Z" fill="black"/>
<path d="M133.984 90.9781C133.71 90.3875 133.358 89.8447 132.827 89.4569C132.311 89.0811 131.819 89.2213 131.542 89.7969C131.491 89.9043 131.452 90.0177 131.416 90.131C130.856 91.9057 130.387 93.7012 130.104 95.5475C129.376 100.281 127.628 104.552 124.416 108.152C122.218 109.975 120.017 111.794 117.818 113.614C116.64 114.589 115.471 115.567 114.478 116.733C114.287 116.957 114.135 117.217 113.965 117.461C114.001 117.503 114.036 117.548 114.072 117.589C114.379 117.434 114.699 117.306 114.988 117.124C116.703 116.044 118.433 114.986 120.115 113.858C124.959 110.622 129.573 107.078 133.993 103.291C135.312 102.16 136.565 100.943 137.79 99.7113C140.12 97.3669 142.172 94.8048 143.762 91.8908C143.967 91.5149 144.173 91.1362 144.325 90.7395C144.478 90.3398 144.361 89.9848 144.084 89.7731C143.777 89.5374 143.413 89.5434 143.037 89.8506C142.762 90.0743 142.509 90.3338 142.282 90.6082C141.355 91.7267 140.418 92.8422 139.523 93.9876C137.489 96.5855 135.309 99.0521 132.782 101.179C132.657 101.286 132.529 101.391 132.404 101.495C133.37 99.8604 134.062 98.0798 134.483 96.153C134.87 94.3753 134.757 92.6454 133.984 90.9781ZM133.63 95.3357C133.298 97.355 132.586 99.249 131.607 101.039C131.038 102.083 130.271 102.995 129.406 103.848C129.502 103.642 129.6 103.437 129.692 103.231C130.343 101.799 131.002 100.37 131.637 98.9299C132.174 97.707 132.272 96.3946 132.371 95.0852C132.383 94.9271 132.299 94.7631 132.261 94.605C132.195 94.602 132.132 94.596 132.067 94.5931C131.986 94.8496 131.885 95.1001 131.828 95.3596C131.613 96.3618 131.548 97.4147 131.187 98.3602C130.301 100.693 129.373 103.013 128.055 105.131C127.64 105.477 127.226 105.82 126.811 106.163C127.059 105.856 127.297 105.539 127.524 105.208C128.726 103.44 129.609 101.519 130.262 99.4846C130.841 97.6831 131.082 95.813 131.407 93.9577C131.619 92.7468 131.944 91.5627 132.368 90.3159C132.762 90.6619 132.964 91.0318 133.137 91.4195C133.704 92.6722 133.85 93.9876 133.63 95.3357Z" fill="black"/>
</svg>
