<svg width="18" height="19" viewBox="0 0 18 19" fill="none" xmlns="http://www.w3.org/2000/svg">
<path opacity="0.3" fill-rule="evenodd" clip-rule="evenodd" d="M3.75 5.75C3.75 7.40685 5.09315 8.75 6.75 8.75C8.40685 8.75 9.75 7.40685 9.75 5.75C9.75 4.09315 8.40685 2.75 6.75 2.75C5.09315 2.75 3.75 4.09315 3.75 5.75ZM11.25 8.75C11.25 9.99264 12.2574 11 13.5 11C14.7426 11 15.75 9.99264 15.75 8.75C15.75 7.50736 14.7426 6.5 13.5 6.5C12.2574 6.5 11.25 7.50736 11.25 8.75Z" fill="#3800D8"/>
<path fill-rule="evenodd" clip-rule="evenodd" d="M6.73751 10.25C3.19643 10.25 0.291194 12.0699 0.000488763 15.6494C-0.0153463 15.8444 0.357534 16.25 0.545627 16.25H12.935C13.4984 16.25 13.5072 15.7966 13.4984 15.65C13.2787 11.9699 10.3284 10.25 6.73751 10.25ZM17.592 16.25H14.7C14.7 14.5618 14.1422 13.0039 13.2009 11.7505C15.7558 11.7784 17.8419 13.0701 17.9989 15.8C18.0052 15.91 17.9989 16.25 17.592 16.25Z" fill="#3800D8"/>
</svg>
