<svg width="42" height="48" viewBox="0 0 42 48" fill="none" xmlns="http://www.w3.org/2000/svg">
<path d="M14.9004 45.5H15.5004C15.8004 45.5 16.1004 45.6 16.4004 45.7L17.7004 46.5C18.0004 46.7 18.3004 46.7 18.6004 46.7H27.3004" stroke="white" stroke-width="2" stroke-miterlimit="10" stroke-linecap="round" stroke-linejoin="round"/>
<path d="M27.3008 46.8001H28.9008C29.8008 46.8001 30.5008 46.1001 30.5008 45.2001C30.5008 44.3001 29.8008 43.6001 28.9008 43.6001" stroke="white" stroke-width="2" stroke-miterlimit="10" stroke-linecap="round" stroke-linejoin="round"/>
<path d="M28.9004 43.5999H30.5004C31.4004 43.5999 32.1004 42.8999 32.1004 41.9999C32.1004 41.0999 31.4004 40.3999 30.5004 40.3999H29.9004" stroke="white" stroke-width="2" stroke-miterlimit="10" stroke-linecap="round" stroke-linejoin="round"/>
<path d="M29.9004 40.4H31.5004C32.4004 40.4 33.1004 39.6999 33.1004 38.7999C33.1004 37.8999 32.4004 37.2 31.5004 37.2H30.5004" stroke="white" stroke-width="2" stroke-miterlimit="10" stroke-linecap="round" stroke-linejoin="round"/>
<path d="M29.1 33.9999H23.2C22.8 33.9999 22.5 33.4999 22.8 33.0999C23.2 32.4999 23.6 31.6999 23.6 30.4999C23.6 28.9999 23.6 29.0999 23.6 27.6999C23.6 26.2999 23.4 24.3999 22 24.3999C19.8 24.3999 20.4 29.8999 18 32.4999C16.5 34.0999 15 34.8999 15 34.8999" stroke="white" stroke-width="2" stroke-miterlimit="10" stroke-linecap="round" stroke-linejoin="round"/>
<path d="M30.5004 37.2C31.4004 37.2 32.1004 36.5 32.1004 35.6C32.1004 34.7 31.4004 34 30.5004 34H28.9004" stroke="white" stroke-width="2" stroke-miterlimit="10" stroke-linecap="round" stroke-linejoin="round"/>
<path d="M13.8996 47H8.59961C7.99961 47 7.59961 46.6 7.59961 46V34.7C7.59961 34.1 7.99961 33.7 8.59961 33.7H13.8996C14.4996 33.7 14.8996 34.1 14.8996 34.7V46C14.8996 46.6 14.3996 47 13.8996 47Z" stroke="white" stroke-width="2" stroke-miterlimit="10" stroke-linecap="round" stroke-linejoin="round"/>
<path d="M24.5 1H2.9C2.2 1 1.5 1.6 1.5 2.4V19.3C1.5 20 2.1 20.7 2.9 20.7H4.7C5.1 20.7 5.4 20.8 5.7 21.1L11.2 26.6C11.6 27 12.4 26.7 12.4 26.1V22C12.4 21.3 13 20.6 13.8 20.6H24.6C25.3 20.6 26 20 26 19.2V2.4C25.8 1.6 25.2 1 24.5 1Z" stroke="#3DA8FB" stroke-width="2" stroke-miterlimit="10" stroke-linecap="round" stroke-linejoin="round"/>
<path d="M5.90039 9.1001H21.4004" stroke="white" stroke-miterlimit="10" stroke-linecap="round" stroke-linejoin="round"/>
<path d="M21.4004 12.5H5.90039" stroke="white" stroke-miterlimit="10" stroke-linecap="round" stroke-linejoin="round"/>
<path d="M30.5996 5.1001H39.4996C39.9996 5.1001 40.3996 5.5001 40.3996 6.0001V17.6001C40.3996 18.1001 39.9996 18.5001 39.4996 18.5001H38.2996C38.0996 18.5001 37.7996 18.6001 37.5996 18.8001L33.7996 22.6001C33.4996 22.9001 32.9996 22.7001 32.9996 22.3001V19.5001C32.9996 19.0001 32.5996 18.6001 32.0996 18.6001H30.5996" stroke="#ED2939" stroke-width="2" stroke-miterlimit="10" stroke-linejoin="round"/>
<path d="M11.0992 44C11.5963 44 11.9992 43.597 11.9992 43.0999C11.9992 42.6029 11.5963 42.2 11.0992 42.2C10.6022 42.2 10.1992 42.6029 10.1992 43.0999C10.1992 43.597 10.6022 44 11.0992 44Z" stroke="#3DA8FB" stroke-miterlimit="10" stroke-linecap="round" stroke-linejoin="round"/>
</svg>
