<svg width="64" height="64" viewBox="0 0 64 64" fill="none" xmlns="http://www.w3.org/2000/svg">
<path d="M24.3922 14.589C24.5395 14.7325 24.6067 14.9394 24.572 15.1421L23.7367 20.0116C23.3822 21.8787 25.4672 23.6511 27.364 22.6469L31.737 20.3477C31.9191 20.2521 32.1365 20.2519 32.3186 20.3477L36.6917 22.6469C38.3636 23.6 40.6908 22.0521 40.319 20.0116L39.4837 15.1421C39.449 14.9394 39.5161 14.7326 39.6635 14.589L43.2013 11.1403C43.8877 10.4711 44.1301 9.48925 43.834 8.57763C43.5377 7.666 42.7645 7.014 41.8158 6.87625L36.9263 6.16575C36.723 6.13625 36.5471 6.00837 36.456 5.824L34.2696 1.3935C33.8454 0.534 32.9864 0 32.0279 0C31.0694 0 30.2104 0.534 29.7861 1.3935L27.5996 5.82387C27.5085 6.0085 27.3326 6.13625 27.129 6.16575L22.2396 6.87625C20.3102 7.09212 19.3619 9.7085 20.8542 11.1404L24.3922 14.589ZM22.0049 9.15713C22.041 9.046 22.1624 8.78212 22.5094 8.73175L27.3985 8.02125C28.2129 7.90312 28.9166 7.392 29.281 6.65387L31.4675 2.2235C31.6226 1.909 31.911 1.87513 32.0279 1.87513C32.1447 1.87513 32.4331 1.909 32.5882 2.2235L34.7748 6.654C35.1392 7.392 35.8428 7.90312 36.6571 8.02125L41.5463 8.73175C41.8933 8.78212 42.0148 9.04613 42.0508 9.15713C42.0868 9.26813 42.1438 9.553 41.8927 9.79762L38.3548 13.2463C37.7656 13.8206 37.4967 14.6479 37.6358 15.459L38.4711 20.3285C38.5303 20.6741 38.317 20.8711 38.2225 20.9398C38.128 21.0084 37.8748 21.1504 37.5643 20.9872L33.1912 18.6881C32.4629 18.3053 31.5931 18.3053 30.8646 18.6881L26.4915 20.9872C26.1811 21.1507 25.9279 21.0084 25.8334 20.9398C25.7389 20.8711 25.5255 20.6741 25.5847 20.3285L26.42 15.459C26.5591 14.6479 26.2902 13.8206 25.701 13.2463L22.1631 9.79775C21.912 9.553 21.9689 9.26825 22.0049 9.15713Z" fill="url(#paint0_linear)"/>
<path d="M42.7866 17.3752C42.5433 18.124 42.7424 18.9307 43.3063 19.4805L45.8335 21.9439C45.8756 21.985 45.8949 22.0441 45.885 22.1021L45.2884 25.5807C44.9785 27.1159 46.7305 28.541 48.2681 27.7455L51.392 26.1031C51.4441 26.0757 51.5064 26.0757 51.5584 26.1031L54.6823 27.7455C55.922 28.5102 58.0111 27.301 57.662 25.5807L57.0654 22.1021C57.0554 22.0441 57.0748 21.9849 57.1168 21.944L59.6443 19.4804C60.7839 18.4476 60.2173 16.2086 58.506 15.9776L55.0134 15.4701C54.9553 15.4617 54.9049 15.4251 54.8789 15.3724L53.3169 12.2076C52.6463 10.7924 50.4895 10.6479 49.6338 12.2075L48.0719 15.3722C48.0459 15.4251 47.9955 15.4617 47.9374 15.4701L44.4446 15.9776C43.6651 16.0909 43.0299 16.6264 42.7866 17.3752ZM44.5699 17.9546C44.5926 17.8845 44.6411 17.8436 44.714 17.833L48.2068 17.3255C48.8756 17.2282 49.4536 16.8082 49.753 16.2021L51.315 13.0372C51.3476 12.9712 51.4015 12.9376 51.4751 12.9376C51.5488 12.9376 51.6026 12.9711 51.6353 13.0371V13.0372L53.1974 16.2022C53.4966 16.8084 54.0746 17.2282 54.7436 17.3255L58.2363 17.833C58.3091 17.8436 58.3578 17.8845 58.3805 17.9546C58.4033 18.0247 58.3881 18.0864 58.3354 18.1377L55.8078 20.6015C55.3238 21.0734 55.1031 21.7529 55.2173 22.419L55.8139 25.8977C55.8264 25.9702 55.8025 26.0291 55.7429 26.0722C55.6833 26.1156 55.62 26.1201 55.5548 26.0857L52.4306 24.4434C51.8324 24.1289 51.118 24.1289 50.5195 24.4434L47.3955 26.0857C47.3303 26.1199 47.267 26.1155 47.2074 26.0722C47.1478 26.029 47.1239 25.9702 47.1364 25.8976L47.733 22.419C47.8473 21.7527 47.6264 21.0732 47.1424 20.6012L44.6151 18.1379C44.5623 18.0862 44.547 18.0246 44.5699 17.9546Z" fill="url(#paint1_linear)"/>
<path d="M6.81451 21.9437C6.85664 21.9848 6.87589 22.044 6.86601 22.102L6.26939 25.5806C6.00951 27.0915 7.61776 28.5713 9.24914 27.7453L12.373 26.103C12.4251 26.0756 12.4874 26.0756 12.5394 26.103L15.6634 27.7453C16.9978 28.51 18.9521 27.2795 18.6431 25.5806L18.0465 22.1018C18.0365 22.044 18.0558 21.9848 18.0979 21.9438L20.625 19.4802C21.7646 18.4475 21.198 16.2085 19.4868 15.9775L15.9943 15.47C15.936 15.4616 15.8856 15.425 15.8596 15.3722L14.2976 12.2073C13.6528 10.7826 11.3668 10.6625 10.6145 12.2073L9.05251 15.3721C9.02651 15.425 8.97614 15.4616 8.91801 15.47L5.42526 15.9775C3.86951 16.1572 3.05539 18.2638 4.28714 19.4803L6.81451 21.9437ZM5.55076 17.9545C5.57351 17.8843 5.62201 17.8435 5.69489 17.8328L9.18764 17.3253C9.85651 17.2281 10.4345 16.8081 10.7339 16.202L12.2959 13.037C12.3285 12.971 12.3824 12.9375 12.456 12.9375C12.5296 12.9375 12.5836 12.971 12.6161 13.0371L14.1781 16.2021C14.4774 16.8082 15.0554 17.2281 15.7244 17.3253L19.217 17.8328C19.2899 17.8435 19.3385 17.8843 19.3613 17.9545C19.384 18.0246 19.3689 18.0862 19.3161 18.1376L16.7886 20.6012C16.3045 21.0731 16.0838 21.7527 16.1981 22.4188L16.7948 25.8975C16.8073 25.9701 16.7833 26.029 16.7238 26.0721C16.6643 26.1155 16.6009 26.12 16.5356 26.0856L13.4116 24.4432C12.8133 24.1287 12.0989 24.1287 11.5004 24.4432L8.37639 26.0856C8.31126 26.12 8.24789 26.1153 8.18839 26.0721C8.12889 26.0288 8.10489 25.9701 8.11739 25.8975L8.71401 22.419C8.82839 21.7527 8.60751 21.0731 8.12339 20.6011L5.59614 18.1377C5.54326 18.0861 5.52801 18.0245 5.55076 17.9545Z" fill="url(#paint2_linear)"/>
<path d="M29.9524 15.2001C30.3773 15.4731 30.7212 15.6146 31.0905 15.6851V15.977C31.0905 16.4904 31.486 16.938 31.9991 16.9534C32.53 16.9694 32.9655 16.5437 32.9655 16.0162V15.5526C33.7713 15.2216 34.3794 14.4969 34.5311 13.5929C34.728 12.4205 34.0934 11.362 32.9519 10.959C32.7621 10.8819 32.4869 10.8325 31.8858 10.6069C31.7204 10.5259 31.6248 10.3427 31.665 10.163C31.6844 10.0881 31.7375 9.94024 31.9428 9.80024C32.2241 9.65636 32.573 9.95111 32.5883 9.96374C33.0091 10.3112 33.6424 10.2295 33.9586 9.77036C34.2458 9.35361 34.1241 8.78399 33.7254 8.47236C33.509 8.30324 33.2504 8.15311 32.9655 8.04611V7.77686C32.9655 7.26349 32.57 6.81586 32.0569 6.80049C31.526 6.78449 31.0905 7.21011 31.0905 7.73761V8.12399C31.0858 8.12636 31.081 8.12811 31.0763 8.13049C30.4295 8.46111 29.9734 9.07049 29.8249 9.80261C29.6869 10.4829 29.8443 11.1747 30.2458 11.6531C30.8193 12.3026 31.4842 12.468 32.3278 12.727C32.4323 12.7639 32.7503 12.8761 32.6821 13.2821C32.6455 13.5004 32.4573 13.8704 31.9843 13.8735C31.443 13.8769 31.3282 13.8592 30.9403 13.6059C30.4764 13.303 29.8437 13.4635 29.5877 13.974C29.3699 14.4081 29.5438 14.9376 29.9524 15.2001Z" fill="url(#paint3_linear)"/>
<path d="M59.7844 55.0976L55.0629 53.1521V51.3256C56.643 49.7657 57.9685 47.1057 58.198 44.906C59.8001 40.787 58.0654 37.3095 56.2902 35.6907C56.7884 32.892 54.4351 30.0693 51.5414 30.1253C48.6646 30.1331 46.3275 32.7276 46.7899 35.6748C45.7381 36.5896 44.879 37.9847 44.4416 39.5171C43.8816 41.4791 44.0556 43.4898 44.9256 45.2018C45.2517 47.3502 46.4581 49.7386 48.022 51.3216V53.1522L44.286 54.6917C43.8506 54.1527 43.2972 53.7055 42.6511 53.4C42.1831 53.1787 41.6242 53.3786 41.4029 53.8466C41.1815 54.3147 41.3815 54.8736 41.8495 55.095C42.8285 55.558 43.4611 56.5572 43.4611 57.6407V62.125H32.9646V57.401C33.9345 57.3675 34.713 56.5682 34.713 55.5905V53.0546C34.9924 52.8878 35.2561 52.6935 35.5021 52.4756L37.8492 53.4428C38.1922 53.5735 38.7891 53.5121 39.0732 52.9332C39.2706 52.4545 39.0424 51.9065 38.5636 51.7092L36.2191 50.7431V47.1883C38.4166 45.3695 39.72 42.4145 40.1267 39.2346C41.2229 37.389 43.0309 32.5445 39.8504 29.3241C38.5392 27.9967 36.683 27.7376 35.1714 28.0503C33.9522 25.3787 29.9325 25.0578 26.5326 27.0458C26.0871 27.3096 25.9399 27.8847 26.2037 28.3302C26.4675 28.7756 27.0427 28.923 27.4881 28.6591C30.1759 27.1883 32.9959 27.2167 33.5575 29.1285L32.3561 32.3343C31.6926 33.0712 30.8544 33.6403 29.9186 33.9808C27.5982 34.8253 26.0301 36.173 25.1056 37.1845C24.6385 35.6506 24.39 33.355 25.0914 31.4461C25.2699 30.96 25.0207 30.4213 24.5346 30.2427C24.0489 30.0643 23.51 30.3135 23.3314 30.7993C22.2429 33.7621 22.953 37.4643 23.9294 39.242C24.3597 42.4087 25.5169 45.2118 27.8374 47.1898V50.7432L21.6246 53.3031C20.8725 53.613 20.2351 54.1015 19.7499 54.7065L15.9781 53.1522V51.1087C17.7535 49.1701 19.215 45.609 19.1696 43.2202C19.1696 38.8648 16.6601 36.2646 12.4567 36.2646C10.792 36.2646 9.38486 36.6712 8.27486 37.473C7.8551 37.7762 7.76061 38.3622 8.06386 38.782C8.36711 39.2017 8.95311 39.2962 9.37273 38.993C10.1566 38.4267 11.1942 38.1396 12.4567 38.1396C16.4552 38.1396 17.2946 40.9025 17.2946 43.2202C17.4376 45.611 14.8792 50.9872 12.4567 51.2275C9.60785 50.6926 7.14173 44.987 7.68511 42.1571C7.75236 41.6437 7.39073 41.173 6.87736 41.1057C6.36411 41.0398 5.89336 41.4001 5.82598 41.9135C5.38986 44.8801 6.73086 48.5482 8.93711 51.1097V53.152L4.21561 55.0975C2.68673 55.7273 1.69873 57.203 1.69873 58.8566V61.811C1.69873 63.0178 2.68061 63.9998 3.88748 63.9998H60.1125C61.3194 63.9998 62.3012 63.018 62.3012 61.811V58.8566C62.3011 57.2031 61.3132 55.7275 59.7844 55.0976ZM38.5162 30.6416C40.4279 32.5771 39.761 35.5301 39.0056 37.2967C38.3216 36.6068 37.2997 35.6846 36.0467 34.8826C35.1979 34.3391 34.5309 33.6006 34.1757 32.8213L35.246 29.9655C36.1481 29.706 37.5811 29.6948 38.5162 30.6416ZM25.8245 39.2711C26.2576 38.648 27.7487 36.7657 30.5596 35.7427C31.4167 35.4307 32.2124 34.9726 32.9109 34.3953C33.4315 35.1883 34.1566 35.8987 35.0359 36.4616C36.5775 37.4485 37.7485 38.6688 38.2371 39.2166C37.7206 42.9196 35.5841 46.8232 32.027 46.8232C28.4894 46.8232 26.3536 42.9533 25.8245 39.2711ZM32.027 48.6982C32.8365 48.6982 33.6119 48.5545 34.344 48.2762V50.9965C33.1825 52.1593 30.9966 52.2372 29.7122 50.9972V48.2771C30.4437 48.5548 31.2184 48.6982 32.027 48.6982ZM18.7204 62.125H16.8474L18.7202 59.4622V62.125H18.7204ZM8.93698 60.1002L6.25386 56.2857L8.93698 55.1802V60.1002ZM10.812 56.8251C11.7246 57.2091 12.9965 57.2751 14.103 56.825V62.125H10.812V56.8251ZM15.978 55.1801L18.6621 56.2861L15.978 60.1022V55.1801ZM14.103 52.652V54.6491C13.285 55.4081 11.7787 55.5061 10.812 54.6485C10.812 54.171 10.812 53.1632 10.812 52.6526C11.7997 53.1665 12.9037 53.3006 14.103 52.652ZM3.57361 61.8111V58.8567C3.57361 58.129 3.92886 57.4656 4.50773 57.062L8.06886 62.125H3.88736C3.71436 62.125 3.57361 61.9842 3.57361 61.8111ZM20.5954 57.6406C20.5954 56.4951 21.2797 55.4728 22.3387 55.0366L28.5541 52.4756C29.6979 53.4378 31.174 53.9846 32.8379 53.7311V55.5281C31.868 55.5616 31.0895 56.3608 31.0895 57.3387V62.125H20.5954V57.6406ZM51.5414 32.0002C53.0269 32.0002 54.2572 33.1097 54.4495 34.5433C52.6455 33.8062 50.4797 33.814 48.6302 34.5672C48.8119 33.1221 50.0476 32.0002 51.5414 32.0002ZM48.3221 36.8522C49.1886 36.2447 50.3994 35.8703 51.6352 35.8703C52.7231 35.8703 53.8306 36.1603 54.7401 36.8368C55.6729 37.5307 57.6852 39.9941 56.699 43.4927C55.8825 42.8951 54.7565 41.3398 54.0241 39.9131C53.8816 39.6348 53.6097 39.4463 53.2994 39.4097C52.9891 39.3731 52.6806 39.494 52.4772 39.7311C51.5426 40.8225 48.767 43.5237 46.3999 43.9251C45.2772 41.1466 46.6815 38.0026 48.3221 36.8522ZM46.9432 45.7265C49.3866 45.2051 51.7577 43.1457 53.0042 41.905C53.6187 43.01 55.235 45.0083 56.2235 45.3716C55.5849 48.4293 53.153 51.2275 51.5412 51.2275C50.0292 51.2275 47.6956 48.6251 46.9432 45.7265ZM51.5414 53.1025C52.0755 53.1025 52.6314 52.9635 53.1877 52.6996C53.1879 52.693 53.1876 53.7128 53.1879 53.7927C53.2221 55.2428 52.6049 56.8688 51.5445 57.9857C50.557 56.9621 49.8767 55.3452 49.8964 53.8342C49.8971 53.7852 49.8965 52.863 49.8966 52.7025C50.4351 52.958 50.9881 53.1025 51.5414 53.1025ZM48.1249 55.1376C48.3587 56.5607 48.9834 57.8995 49.9421 59.0006L50.6049 59.7618V62.125H45.336V57.6406C45.336 57.2022 45.2727 56.7723 45.1551 56.3613L48.1249 55.1376ZM60.4261 61.8111C60.4261 61.9842 60.2854 62.125 60.1124 62.125H52.4797V59.7622L53.1202 59.0331C54.0946 57.9237 54.727 56.5747 54.9614 55.1383L59.0701 56.8313C59.8939 57.1707 60.4262 57.9657 60.4262 58.8568V61.8111H60.4261Z" fill="url(#paint4_linear)"/>
<path d="M36.5781 58.3611C36.0604 58.3611 35.6406 58.7807 35.6406 59.2986C35.6406 59.8165 36.0604 60.2361 36.5781 60.2361H40.1193C40.637 60.2361 41.0568 59.8165 41.0568 59.2986C41.0568 58.7807 40.637 58.3611 40.1193 58.3611H36.5781Z" fill="url(#paint5_linear)"/>
<defs>
<linearGradient id="paint0_linear" x1="20.1211" y1="11.4688" x2="43.9581" y2="11.4688" gradientUnits="userSpaceOnUse">
<stop stop-color="#4E2267"/>
<stop offset="1" stop-color="#9441C4"/>
</linearGradient>
<linearGradient id="paint1_linear" x1="42.6846" y1="19.5355" x2="60.238" y2="19.5355" gradientUnits="userSpaceOnUse">
<stop stop-color="#4E2267"/>
<stop offset="1" stop-color="#9441C4"/>
</linearGradient>
<linearGradient id="paint2_linear" x1="3.68896" y1="19.5378" x2="21.2188" y2="19.5378" gradientUnits="userSpaceOnUse">
<stop stop-color="#4E2267"/>
<stop offset="1" stop-color="#9441C4"/>
</linearGradient>
<linearGradient id="paint3_linear" x1="29.4932" y1="11.8769" x2="34.5667" y2="11.8769" gradientUnits="userSpaceOnUse">
<stop stop-color="#4E2267"/>
<stop offset="1" stop-color="#9441C4"/>
</linearGradient>
<linearGradient id="paint4_linear" x1="1.69873" y1="44.8826" x2="62.3012" y2="44.8826" gradientUnits="userSpaceOnUse">
<stop stop-color="#4E2267"/>
<stop offset="1" stop-color="#9441C4"/>
</linearGradient>
<linearGradient id="paint5_linear" x1="35.6406" y1="59.2986" x2="41.0568" y2="59.2986" gradientUnits="userSpaceOnUse">
<stop stop-color="#4E2267"/>
<stop offset="1" stop-color="#9441C4"/>
</linearGradient>
</defs>
</svg>
