<svg width="32" height="32" viewBox="0 0 32 32" fill="none" xmlns="http://www.w3.org/2000/svg">
<g clip-path="url(#clip0)">
<path d="M16.0002 13.3994C14.5295 13.3994 13.3335 14.5954 13.3335 16.0661C13.3335 17.5367 14.5295 18.7327 16.0002 18.7327C17.4708 18.7327 18.6668 17.5367 18.6668 16.0661C18.6668 14.5954 17.4708 13.3994 16.0002 13.3994Z" fill="#6C41BF"/>
<path d="M29.2946 0.0668945C27.8239 0.0668945 26.6279 1.26289 26.6279 2.73356C26.6279 4.20423 27.8239 5.40023 29.2946 5.40023C30.7653 5.40023 31.9613 4.20423 31.9613 2.73356C31.9613 1.26289 30.7653 0.0668945 29.2946 0.0668945Z" fill="#6C41BF"/>
<path d="M19.6093 3.05848C19.088 2.53715 18.2453 2.53715 17.724 3.05848C17.2027 3.57981 17.2027 4.42248 17.724 4.94381L18.2347 5.45448L13.544 10.1451C12.7427 9.96381 11.9227 9.87181 11.0973 9.87181C4.97867 9.87181 0 14.8505 0 20.9705C0 27.0905 4.97867 32.0678 11.0973 32.0678C17.216 32.0678 22.1947 27.0905 22.1947 20.9705C22.1947 20.1291 22.1 19.2958 21.9147 18.4838L26.5893 13.8105L27.0573 14.2785C27.3173 14.5371 27.6587 14.6678 28 14.6678C28.3413 14.6678 28.6827 14.5371 28.9427 14.2771C29.464 13.7558 29.464 12.9131 28.9427 12.3918L19.6093 3.05848ZM19.4853 17.1411C19.136 17.4905 19.008 18.0051 19.1533 18.4785C19.4027 19.2825 19.528 20.1198 19.528 20.9691C19.528 21.6238 19.4453 22.2598 19.304 22.8718C16.8907 22.7091 15.632 21.9025 14.316 21.0478C12.7653 20.0411 11.1627 19.0011 7.96267 19.0011C5.57733 19.0011 3.88 19.6118 2.70133 20.2838C3.052 15.9558 6.68 12.5385 11.0973 12.5385C11.9307 12.5385 12.7587 12.6625 13.556 12.9038C14.0253 13.0451 14.5373 12.9211 14.888 12.5718L20.12 7.33981L24.704 11.9238L19.4853 17.1411Z" fill="#6C41BF"/>
</g>
<defs>
<clipPath id="clip0">
<rect width="32" height="32" fill="white"/>
</clipPath>
</defs>
</svg>
