<svg width="57" height="50" viewBox="0 0 57 50" fill="none" xmlns="http://www.w3.org/2000/svg">
<g clip-path="url(#clip0)">
<path d="M54.1 50.0001H2C0.9 50.0001 0 49.1001 0 48.0001V7.1001H56.1V48.0001C56.1 49.1001 55.2 50.0001 54.1 50.0001Z" fill="#3DA8FB"/>
<path d="M54.1 0H2C0.9 0 0 0.9 0 2V7.1H56.1V2C56.1 0.9 55.2 0 54.1 0Z" fill="#ED2939"/>
<path d="M52.8996 4.30005H49.5996C49.0996 4.30005 48.5996 3.90005 48.5996 3.30005C48.5996 2.70005 48.9996 2.30005 49.5996 2.30005H52.8996C53.3996 2.30005 53.8996 2.70005 53.8996 3.30005C53.7996 3.90005 53.3996 4.30005 52.8996 4.30005Z" fill="#B32D11"/>
<path d="M51.3992 16.7001C51.3992 17.0001 51.0992 17.2001 50.7992 17.2001H5.29922C4.99922 17.2001 4.69922 17.0001 4.69922 16.7001V12.1001C4.69922 11.8001 4.99922 11.6001 5.29922 11.6001H50.7992C51.0992 11.6001 51.3992 11.8001 51.3992 12.1001V16.7001Z" fill="white"/>
<path d="M50.8 11.7H42.5V17.2H50.8C51.1 17.2 51.4 17 51.4 16.7V12.1C51.4 11.9 51.1 11.7 50.8 11.7Z" fill="#ED2939"/>
<path d="M14.1008 24.2999C14.1008 26.1999 12.6008 27.6999 10.7008 27.6999C8.80078 27.6999 7.30078 26.1999 7.30078 24.2999C7.30078 22.3999 8.80078 20.8999 10.7008 20.8999C12.6008 20.8999 14.1008 22.3999 14.1008 24.2999Z" fill="#0A4586"/>
<path d="M35.2992 23.9H16.8992C16.4992 23.9 16.1992 23.6 16.1992 23.2C16.1992 22.8 16.4992 22.5 16.8992 22.5H35.3992C35.7992 22.5 36.0992 22.8 36.0992 23.2C35.9992 23.6 35.6992 23.9 35.2992 23.9Z" fill="white"/>
<path d="M30.9992 26.0001H16.8992C16.4992 26.0001 16.1992 25.7001 16.1992 25.3001C16.1992 24.9001 16.4992 24.6001 16.8992 24.6001H30.9992C31.3992 24.6001 31.6992 24.9001 31.6992 25.3001C31.6992 25.7001 31.3992 26.0001 30.9992 26.0001Z" fill="white"/>
<path d="M14.1008 33.0001C14.1008 34.9001 12.6008 36.4001 10.7008 36.4001C8.80078 36.4001 7.30078 34.9001 7.30078 33.0001C7.30078 31.1001 8.80078 29.6001 10.7008 29.6001C12.6008 29.6001 14.1008 31.2001 14.1008 33.0001Z" fill="#0A4586"/>
<path d="M35.2992 32.7001H16.8992C16.4992 32.7001 16.1992 32.4 16.1992 32C16.1992 31.6 16.4992 31.3 16.8992 31.3H35.3992C35.7992 31.3 36.0992 31.6 36.0992 32C35.9992 32.4 35.6992 32.7001 35.2992 32.7001Z" fill="white"/>
<path d="M30.9992 34.7999H16.8992C16.4992 34.7999 16.1992 34.4999 16.1992 34.0999C16.1992 33.6999 16.4992 33.3999 16.8992 33.3999H30.9992C31.3992 33.3999 31.6992 33.6999 31.6992 34.0999C31.6992 34.4999 31.3992 34.7999 30.9992 34.7999Z" fill="white"/>
<path d="M14.1008 41.8C14.1008 43.7 12.6008 45.2 10.7008 45.2C8.80078 45.2 7.30078 43.7 7.30078 41.8C7.30078 39.9 8.80078 38.4 10.7008 38.4C12.6008 38.3 14.1008 39.9 14.1008 41.8Z" fill="#0A4586"/>
<path d="M35.2992 41.4H16.8992C16.4992 41.4 16.1992 41.1 16.1992 40.7C16.1992 40.3 16.4992 40 16.8992 40H35.3992C35.7992 40 36.0992 40.3 36.0992 40.7C35.9992 41.1 35.6992 41.4 35.2992 41.4Z" fill="white"/>
<path d="M30.9992 43.5001H16.8992C16.4992 43.5001 16.1992 43.2001 16.1992 42.8001C16.1992 42.4001 16.4992 42.1001 16.8992 42.1001H30.9992C31.3992 42.1001 31.6992 42.4001 31.6992 42.8001C31.6992 43.2001 31.3992 43.5001 30.9992 43.5001Z" fill="white"/>
<path d="M45.0004 28.1999C43.7004 26.8999 43.7004 24.7999 45.0004 23.5999C45.3004 23.2999 45.7004 22.9999 46.1004 22.8999C44.9004 22.3999 43.5004 22.5999 42.5004 23.5999C41.2004 24.8999 41.2004 26.9999 42.5004 28.1999C43.5004 29.1999 44.9004 29.3999 46.1004 28.8999C45.7004 28.7999 45.3004 28.4999 45.0004 28.1999Z" fill="#3799E6"/>
<path d="M50.6992 30.4999L48.2992 28.0999C49.2992 26.4999 49.0992 24.3999 47.6992 23.0999C46.8992 22.2999 45.8992 21.8999 44.7992 21.8999C43.6992 21.8999 42.6992 22.2999 41.8992 23.0999C40.2992 24.6999 40.2992 27.1999 41.8992 28.7999C42.6992 29.5999 43.6992 29.9999 44.7992 29.9999C45.5992 29.9999 46.2992 29.7999 46.8992 29.3999L49.2992 31.7999C49.4992 31.9999 49.6992 32.0999 49.8992 32.0999C50.0992 32.0999 50.3992 31.9999 50.4992 31.7999C51.0992 31.3999 51.0992 30.7999 50.6992 30.4999ZM47.0992 28.0999C46.4992 28.6999 45.6992 28.9999 44.8992 28.9999C44.0992 28.9999 43.2992 28.6999 42.6992 28.0999C41.4992 26.8999 41.4992 24.9999 42.6992 23.7999C43.2992 23.1999 44.0992 22.8999 44.8992 22.8999C45.6992 22.8999 46.4992 23.1999 47.0992 23.7999C48.2992 24.9999 48.2992 26.8999 47.0992 28.0999Z" fill="#0A4586"/>
</g>
<defs>
<clipPath id="clip0">
<rect width="56.1" height="50" fill="white"/>
</clipPath>
</defs>
</svg>
