<svg width="80" height="80" viewBox="0 0 80 80" fill="none" xmlns="http://www.w3.org/2000/svg">
<path d="M60 60C71.0457 48.9543 71.0457 31.0457 60 20C48.9543 8.95432 31.0457 8.95432 20 20C8.9543 31.0457 8.9543 48.9543 20 60C31.0457 71.0457 48.9543 71.0457 60 60Z" fill="#CB0101"/>
<path d="M40.0009 70.2752C34.0133 70.2752 28.16 68.4997 23.1814 65.1731C18.2029 61.8465 14.3225 57.1184 12.0311 51.5865C9.73971 46.0546 9.14015 39.9675 10.3083 34.0949C11.4764 28.2222 14.3597 22.8278 18.5936 18.5939C22.8274 14.3599 28.2218 11.4765 34.0944 10.3083C39.967 9.14015 46.0541 9.73962 51.5861 12.0309C57.118 14.3223 61.8462 18.2025 65.1728 23.181C68.4995 28.1596 70.2751 34.0127 70.2752 40.0004C70.2663 48.027 67.0738 55.7222 61.3982 61.3979C55.7227 67.0736 48.0275 70.2661 40.0009 70.2752ZM40.0009 13.7067C34.8008 13.7067 29.7175 15.2487 25.3937 18.1378C21.07 21.0268 17.7001 25.1331 15.7101 29.9373C13.7201 34.7416 13.1994 40.0281 14.2139 45.1283C15.2284 50.2285 17.7325 54.9133 21.4095 58.5904C25.0865 62.2674 29.7714 64.7715 34.8716 65.786C39.9718 66.8005 45.2582 66.2798 50.0625 64.2898C54.8668 62.2998 58.9731 58.9299 61.8621 54.6061C64.7511 50.2824 66.2931 45.1991 66.2931 39.999C66.2847 33.0284 63.5119 26.3458 58.583 21.4168C53.6541 16.4879 46.9715 13.7151 40.0009 13.7067Z" fill="#252122"/>
<path d="M61.1097 21.1815L43.4954 33.9455L45.7435 12.2995C41.9544 11.52 38.0463 11.52 34.2573 12.2995L36.5054 33.9455L18.891 21.1815C16.3147 24.0676 14.3588 27.4522 13.1445 31.1254L33.0109 40L13.1445 48.8742C14.3588 52.5474 16.3148 55.932 18.891 58.8181L36.5054 46.0541L34.2548 67.6996C38.0439 68.479 41.9519 68.479 45.741 67.6996L43.4929 46.0541L61.1073 58.8181C63.6835 55.932 65.6395 52.5474 66.8538 48.8742L46.9874 40L66.8538 31.1259C65.6403 27.4527 63.6852 24.0679 61.1097 21.1815Z" fill="white"/>
<path d="M39.9999 70.2741C37.936 70.2741 35.8775 70.0644 33.856 69.6482C33.3728 69.5484 32.9439 69.2726 32.6525 68.8745C32.3611 68.4763 32.228 67.9841 32.2789 67.4933L34.0669 50.2788L20.0594 60.4293C19.6603 60.7185 19.1679 60.8493 18.6778 60.7962C18.1877 60.7432 17.7348 60.5102 17.4067 60.1423C14.645 57.0558 12.551 53.4319 11.256 49.4979C11.1014 49.0296 11.1262 48.5207 11.3256 48.0697C11.525 47.6187 11.8847 47.2578 12.3351 47.057L28.1335 39.9993L12.3346 32.9421C11.8843 32.7411 11.5246 32.3802 11.3252 31.9291C11.1258 31.4781 11.101 30.9691 11.2555 30.5008C12.5508 26.5668 14.6449 22.9429 17.4067 19.8563C17.735 19.4887 18.1879 19.2559 18.6779 19.2029C19.1679 19.1499 19.6601 19.2805 20.0594 19.5694L34.0669 29.7198L32.2789 12.5023C32.2288 12.0121 32.3623 11.5206 32.6536 11.1231C32.9449 10.7255 33.3734 10.4502 33.856 10.3504C37.9109 9.52122 42.0917 9.52122 46.1466 10.3504C46.6298 10.4501 47.0587 10.7258 47.3501 11.1239C47.6415 11.522 47.7746 12.0141 47.7237 12.5048L45.9357 29.7223L59.9427 19.5718C60.3419 19.2825 60.8342 19.1517 61.3243 19.2047C61.8144 19.2577 62.2674 19.4908 62.5955 19.8588C65.3572 22.9453 67.4514 26.5692 68.7467 30.5032C68.9012 30.9715 68.8763 31.4805 68.6769 31.9316C68.4775 32.3826 68.1179 32.7436 67.6675 32.9446L51.8691 40.0018L67.6675 47.0595C68.1179 47.2604 68.4775 47.6214 68.6769 48.0725C68.8763 48.5235 68.9012 49.0325 68.7467 49.5008C67.4511 53.4347 65.3569 57.0585 62.5955 60.1452C62.2674 60.5132 61.8144 60.7463 61.3243 60.7994C60.8342 60.8524 60.3419 60.7215 59.9427 60.4322L45.9357 50.2817L47.7237 67.4963C47.7747 67.9871 47.6417 68.4793 47.3502 68.8775C47.0588 69.2757 46.6299 69.5514 46.1466 69.6512C44.1241 70.0665 42.0646 70.2753 39.9999 70.2741ZM36.4283 66.0527C38.7985 66.374 41.2012 66.374 43.5714 66.0527L41.5156 46.2594C41.4764 45.8774 41.5486 45.4922 41.7234 45.1503C41.8983 44.8084 42.1683 44.5244 42.501 44.3325C42.8336 44.1407 43.2147 44.0492 43.5982 44.069C43.9817 44.0889 44.3513 44.2193 44.6623 44.4445L60.7722 56.119C62.242 54.2319 63.4448 52.1513 64.3466 49.9359L46.178 41.8162C45.8272 41.6594 45.5293 41.4043 45.3203 41.0818C45.1113 40.7594 45 40.3833 45 39.9991C45 39.6148 45.1113 39.2387 45.3203 38.9163C45.5293 38.5938 45.8272 38.3388 46.178 38.1819L64.3466 30.0666C63.4452 27.851 62.2424 25.7704 60.7722 23.8836L44.6623 35.5581C44.3513 35.7833 43.9817 35.9137 43.5982 35.9335C43.2147 35.9534 42.8336 35.8619 42.501 35.67C42.1683 35.4781 41.8983 35.1941 41.7234 34.8522C41.5486 34.5103 41.4764 34.1251 41.5156 33.7431L43.5714 13.9494C41.2011 13.6293 38.7986 13.6293 36.4283 13.9494L38.4841 33.7431C38.5231 34.1252 38.4509 34.5103 38.2759 34.8522C38.101 35.194 37.8309 35.478 37.4983 35.6699C37.1656 35.8617 36.7846 35.9532 36.4011 35.9334C36.0176 35.9135 35.648 35.7832 35.3369 35.5581L19.227 23.8836C17.7571 25.7705 16.5544 27.8511 15.653 30.0666L33.8217 38.1819C34.1726 38.3386 34.4707 38.5936 34.6799 38.9161C34.889 39.2386 35.0004 39.6147 35.0004 39.9991C35.0004 40.3834 34.889 40.7596 34.6799 41.0821C34.4707 41.4045 34.1726 41.6595 33.8217 41.8162L15.653 49.9325C16.5545 52.148 17.7571 54.2286 19.227 56.1156L35.3369 44.441C35.648 44.2159 36.0176 44.0856 36.4011 44.0657C36.7846 44.0459 37.1656 44.1374 37.4983 44.3293C37.8309 44.5211 38.101 44.8051 38.2759 45.1469C38.4509 45.4888 38.5231 45.8739 38.4841 46.256L36.4283 66.0527Z" fill="#252122"/>
<path d="M46.7095 56.1973C55.655 52.4919 59.9031 42.2363 56.1977 33.2907C52.4923 24.3452 42.2367 20.0972 33.2911 23.8025C24.3456 27.5079 20.0975 37.7635 23.8029 46.7091C27.5083 55.6547 37.7639 59.9027 46.7095 56.1973Z" fill="#A53A35"/>
<path d="M40.941 27.0352L39.0667 28.909L40.4402 30.2824L39.4243 30.5356L37.6226 28.7339L36.023 30.3335L36.8628 31.1737L36.5979 33.6229L35.9646 33.7299L34.3096 32.0743L32.709 33.6749L33.225 34.191L33.8097 43.0357L36.7038 47.6736L36.9545 47.806L34.1452 50.6148L42.211 57.3792L46.8666 56.5502L56.2415 47.3665L57.0396 44.3051L54.067 39.0693L44.2516 29.2538L43.7046 29.8007L40.941 27.0352Z" fill="#770000"/>
<path d="M40.941 27.0352L39.0667 28.909L40.4402 30.2824L39.4243 30.5356L37.6226 28.7339L36.023 30.3335L36.8628 31.1737L36.5979 33.6229L35.9646 33.7299L34.3096 32.0743L32.709 33.6749L33.225 34.191L33.8097 43.0357L36.7038 47.6736L36.9545 47.806L34.1452 50.6148L41.9117 58.3813H47.1167L57.8593 47.6343V42.863L54.066 39.0697L44.2506 29.2543L43.7037 29.8013L40.941 27.0352Z" fill="#808080"/>
<path d="M41.2543 25.75L39.2201 27.7837L40.7132 29.2764L39.611 29.5511L37.6558 27.5959L35.9193 29.3318L36.8312 30.2437L36.5442 32.896L35.8575 33.0117L34.0612 31.2154L32.3242 32.9524L32.8844 33.5126L33.5192 43.1107L36.6624 48.144L36.9347 48.2873L33.8836 51.3383L41.4205 58.8753L46.343 57.3777L57.1208 47.0462L58.7278 42.034L55.5031 38.8093L44.8513 28.1575L44.2578 28.751L41.2543 25.75Z" fill="#770000"/>
<path fill-rule="evenodd" clip-rule="evenodd" d="M40.2402 25.334C40.0512 25.334 39.8641 25.3712 39.6895 25.4435C39.5149 25.5159 39.3563 25.6219 39.2227 25.7555C39.0891 25.8892 38.9831 26.0479 38.9109 26.2225C38.8386 26.3971 38.8014 26.5842 38.8015 26.7732V38.096C38.5601 38.114 38.3203 38.1433 38.0819 38.1838V28.6185C38.0819 28.2369 37.9303 27.8709 37.6604 27.601C37.3906 27.3312 37.0246 27.1796 36.6429 27.1796C36.2613 27.1796 35.8953 27.3312 35.6254 27.601C35.3556 27.8709 35.204 28.2369 35.204 28.6185V39.2914C34.9545 39.4495 34.7143 39.6216 34.4844 39.8069V32.2391C34.4844 31.8575 34.3328 31.4915 34.0629 31.2216C33.7931 30.9518 33.427 30.8002 33.0454 30.8002C32.6638 30.8002 32.2978 30.9518 32.0279 31.2216C31.758 31.4915 31.6064 31.8575 31.6064 32.2391V45.8434H31.6138C31.6126 47.5751 32.1899 49.2577 33.2541 50.6239C34.3183 51.9901 35.8084 52.9616 37.4877 53.3843C39.1671 53.8069 40.9396 53.6565 42.5237 52.9568C44.1078 52.2572 45.4128 51.0483 46.2315 49.5223L46.2369 49.5248L51.1618 40.3588C51.3836 39.9459 51.4323 39.4619 51.2972 39.0131C51.1621 38.5643 50.8543 38.1876 50.4415 37.9658C50.0286 37.744 49.5445 37.6952 49.0957 37.8303C48.647 37.9654 48.2702 38.2732 48.0484 38.6861L46.2094 42.1095C45.9469 41.6317 45.6348 41.1829 45.2784 40.7704V29.1826C45.2784 28.8011 45.1268 28.4351 44.857 28.1653C44.5872 27.8955 44.2213 27.7439 43.8397 27.7439C43.4581 27.7439 43.0922 27.8955 42.8224 28.1653C42.5526 28.4351 42.401 28.8011 42.401 29.1826V38.6783C42.1655 38.5802 41.9257 38.4932 41.6814 38.4173V26.7732C41.6814 26.3915 41.5297 26.0254 41.2598 25.7555C40.9899 25.4856 40.6239 25.334 40.2422 25.334H40.2402Z" fill="white"/>
<path d="M39.9995 59.5225C36.1383 59.5225 32.3637 58.3775 29.1532 56.2323C25.9426 54.087 23.4403 51.038 21.9627 47.4706C20.485 43.9033 20.0984 39.9779 20.8517 36.1908C21.605 32.4037 23.4644 28.925 26.1947 26.1947C28.925 23.4644 32.4037 21.605 36.1908 20.8517C39.9779 20.0984 43.9033 20.485 47.4706 21.9627C51.038 23.4403 54.0871 25.9426 56.2323 29.1531C58.3775 32.3637 59.5225 36.1382 59.5225 39.9995C59.5169 45.1756 57.4582 50.1381 53.7982 53.7982C50.1381 57.4582 45.1756 59.5169 39.9995 59.5225ZM39.9995 24.4586C36.9257 24.4586 33.9208 25.3702 31.3649 27.0779C28.8091 28.7857 26.8171 31.213 25.6407 34.0529C24.4644 36.8928 24.1566 40.0177 24.7563 43.0326C25.356 46.0474 26.8362 48.8167 29.0098 50.9903C31.1834 53.1638 33.9526 54.644 36.9675 55.2437C39.9823 55.8434 43.1073 55.5356 45.9472 54.3593C48.7871 53.183 51.2144 51.1909 52.9221 48.6351C54.6299 46.0792 55.5414 43.0744 55.5414 40.0005C55.5367 35.88 53.8978 31.9296 50.9841 29.0159C48.0705 26.1023 44.1201 24.4633 39.9995 24.4586Z" fill="#252122"/>
</svg>
