<svg width="48" height="48" viewBox="0 0 48 48" fill="none" xmlns="http://www.w3.org/2000/svg">
<g clip-path="url(#clip0_387_37141)">
<path d="M46.3991 40.0003H45.5991V12.0008C45.5991 10.6753 44.5246 9.60092 43.1992 9.60092H35.0873C35.0817 9.60092 35.0776 9.60092 35.0721 9.60092C34.2836 4.0916 29.5648 0 23.9994 0C18.4341 0 13.7153 4.0916 12.927 9.60084C12.9214 9.60084 12.9174 9.60084 12.9119 9.60084H4.7999C3.47442 9.60084 2.39999 10.6753 2.39999 12.0008V40.0002H1.59999C0.716365 40.0002 0 40.7165 0 41.6002V44.0001C0.00260611 46.2081 1.7919 47.9974 3.99991 48H43.9991C46.2071 47.9973 47.9964 46.2081 47.999 44.0001V41.6002C47.9991 40.7165 47.2828 40.0003 46.3991 40.0003ZM23.9994 1.60102C29.3013 1.60102 33.5993 5.89897 33.5993 11.2008C33.5993 16.5027 29.3013 20.8006 23.9994 20.8006C18.6976 20.8006 14.3996 16.5027 14.3996 11.2008C14.4054 5.90142 18.7 1.60679 23.9994 1.60102ZM3.99991 12.0008C3.99991 11.559 4.35805 11.2008 4.7999 11.2008H12.7997C12.7997 17.3863 17.814 22.4006 23.9995 22.4006C30.185 22.4006 35.1993 17.3863 35.1993 11.2008H43.1992C43.641 11.2008 43.9991 11.559 43.9991 12.0008V40.0003H3.99991V12.0008ZM32.4937 41.6002L31.9193 42.7578C31.7832 43.0303 31.504 43.2018 31.1993 43.2002H16.7996C16.4965 43.2003 16.2192 43.029 16.0837 42.7578L15.5053 41.6002H32.4937ZM46.3991 44.0002C46.3991 45.3257 45.3245 46.4001 43.9991 46.4001H3.99991C2.67442 46.4001 1.59999 45.3256 1.59999 44.0002V41.6003H13.7165L14.6525 43.4738C15.0569 44.2891 15.8896 44.8035 16.7996 44.8002H31.1993C32.1093 44.8035 32.9421 44.2891 33.3465 43.4738L34.2825 41.6003H46.399L46.3991 44.0002Z" fill="#02BE91"/>
<path d="M3.99922 44.7992C4.44104 44.7992 4.79921 44.441 4.79921 43.9992C4.79921 43.5574 4.44104 43.1992 3.99922 43.1992C3.55739 43.1992 3.19922 43.5574 3.19922 43.9992C3.19922 44.441 3.55739 44.7992 3.99922 44.7992Z" fill="#02BE91"/>
<path d="M7.20039 44.7992C7.64221 44.7992 8.00039 44.441 8.00039 43.9992C8.00039 43.5574 7.64221 43.1992 7.20039 43.1992C6.75856 43.1992 6.40039 43.5574 6.40039 43.9992C6.40039 44.441 6.75856 44.7992 7.20039 44.7992Z" fill="#02BE91"/>
<path fill-rule="evenodd" clip-rule="evenodd" d="M11.9996 43.1992H10.3996C9.95775 43.1992 9.59961 43.5574 9.59961 43.9992C9.59961 44.4411 9.95775 44.7992 10.3996 44.7992H11.9996C12.4415 44.7992 12.7996 44.4411 12.7996 43.9992C12.7996 43.5574 12.4415 43.1992 11.9996 43.1992Z" fill="#02BE91"/>
<path d="M24.7988 14.3999C24.7988 15.7254 25.8733 16.7998 27.1987 16.7998C28.5241 16.7998 29.5987 15.7253 29.5987 14.3999C29.5987 13.0745 28.5241 12 27.1987 12C25.8733 12 24.7988 13.0745 24.7988 14.3999ZM27.9988 14.3999C27.9988 14.8418 27.6407 15.1999 27.1988 15.1999C26.757 15.1999 26.3988 14.8418 26.3988 14.3999C26.3988 13.9581 26.757 13.5999 27.1988 13.5999C27.6407 13.5999 27.9988 13.9581 27.9988 14.3999Z" fill="#02BE91"/>
<path d="M20.7984 10.4014C22.1238 10.4014 23.1983 9.32688 23.1983 8.00148C23.1983 6.67607 22.1238 5.60156 20.7984 5.60156C19.4729 5.60156 18.3984 6.67607 18.3984 8.00148C18.3984 9.32688 19.4729 10.4014 20.7984 10.4014ZM20.7984 7.20148C21.2402 7.20148 21.5983 7.55962 21.5983 8.00148C21.5983 8.44333 21.2402 8.80147 20.7984 8.80147C20.3565 8.80147 19.9984 8.44333 19.9984 8.00148C19.9984 7.55962 20.3566 7.20148 20.7984 7.20148Z" fill="#02BE91"/>
<path fill-rule="evenodd" clip-rule="evenodd" d="M19.4335 15.7657C19.7459 16.0779 20.2523 16.0779 20.5647 15.7657L28.5644 7.76586C28.8676 7.45194 28.8633 6.95299 28.5547 6.64444C28.2462 6.33589 27.7472 6.33155 27.4333 6.63473L19.4335 14.6345C19.1211 14.9469 19.1211 15.4533 19.4335 15.7657Z" fill="#02BE91"/>
<path d="M28.7983 38.3993H36.7982C38.1236 38.3993 39.1981 37.3248 39.1981 35.9994V27.9995C39.1981 26.674 38.1236 25.5996 36.7982 25.5996H28.7983C27.4729 25.5996 26.3984 26.6741 26.3984 27.9995V35.9993C26.3984 37.3248 27.4729 38.3993 28.7983 38.3993ZM27.9984 27.9995C27.9984 27.5577 28.3566 27.1995 28.7984 27.1995H36.7982C37.2401 27.1995 37.5982 27.5577 37.5982 27.9995V35.9993C37.5982 36.4412 37.2401 36.7993 36.7982 36.7993H28.7983C28.3565 36.7993 27.9984 36.4412 27.9984 35.9993L27.9984 27.9995Z" fill="#02BE91"/>
<path d="M35.1984 30.4008C35.6403 30.4008 35.9984 30.0426 35.9984 29.6008C35.9984 29.159 35.6403 28.8008 35.1984 28.8008C34.7566 28.8008 34.3984 29.159 34.3984 29.6008C34.3984 30.0426 34.7566 30.4008 35.1984 30.4008Z" fill="#02BE91"/>
<path d="M32.8 32.7992C33.2418 32.7992 33.6 32.441 33.6 31.9992C33.6 31.5574 33.2418 31.1992 32.8 31.1992C32.3582 31.1992 32 31.5574 32 31.9992C32 32.441 32.3582 32.7992 32.8 32.7992Z" fill="#02BE91"/>
<path d="M30.3996 30.4008C30.8414 30.4008 31.1996 30.0426 31.1996 29.6008C31.1996 29.159 30.8414 28.8008 30.3996 28.8008C29.9578 28.8008 29.5996 29.159 29.5996 29.6008C29.5996 30.0426 29.9578 30.4008 30.3996 30.4008Z" fill="#02BE91"/>
<path d="M30.3996 35.1996C30.8414 35.1996 31.1996 34.8414 31.1996 34.3996C31.1996 33.9578 30.8414 33.5996 30.3996 33.5996C29.9578 33.5996 29.5996 33.9578 29.5996 34.3996C29.5996 34.8414 29.9578 35.1996 30.3996 35.1996Z" fill="#02BE91"/>
<path d="M35.2004 35.1996C35.6422 35.1996 36.0004 34.8414 36.0004 34.3996C36.0004 33.9578 35.6422 33.5996 35.2004 33.5996C34.7586 33.5996 34.4004 33.9578 34.4004 34.3996C34.4004 34.8414 34.7586 35.1996 35.2004 35.1996Z" fill="#02BE91"/>
<path d="M16.8 27.1996C17.2418 27.1996 17.6 26.8414 17.6 26.3996C17.6 25.9578 17.2418 25.5996 16.8 25.5996C16.3582 25.5996 16 25.9578 16 26.3996C16 26.8414 16.3582 27.1996 16.8 27.1996Z" fill="#02BE91"/>
<path d="M16.8 31.1996C17.2418 31.1996 17.6 30.8414 17.6 30.3996C17.6 29.9578 17.2418 29.5996 16.8 29.5996C16.3582 29.5996 16 29.9578 16 30.3996C16 30.8414 16.3582 31.1996 16.8 31.1996Z" fill="#02BE91"/>
<path d="M12.8 31.1996C13.2418 31.1996 13.6 30.8414 13.6 30.3996C13.6 29.9578 13.2418 29.5996 12.8 29.5996C12.3582 29.5996 12 29.9578 12 30.3996C12 30.8414 12.3582 31.1996 12.8 31.1996Z" fill="#02BE91"/>
<path d="M16.8 35.1996C17.2418 35.1996 17.6 34.8414 17.6 34.3996C17.6 33.9578 17.2418 33.5996 16.8 33.5996C16.3582 33.5996 16 33.9578 16 34.3996C16 34.8414 16.3582 35.1996 16.8 35.1996Z" fill="#02BE91"/>
<path d="M20.8 31.1996C21.2418 31.1996 21.6 30.8414 21.6 30.3996C21.6 29.9578 21.2418 29.5996 20.8 29.5996C20.3582 29.5996 20 29.9578 20 30.3996C20 30.8414 20.3582 31.1996 20.8 31.1996Z" fill="#02BE91"/>
<path d="M16.8419 38.3913C17.4595 38.382 18.0497 38.1351 18.4898 37.7017L24.1049 32.0874C25.0275 31.1515 25.0256 29.6476 24.1009 28.7139L18.4898 23.1028C18.0426 22.6525 17.434 22.3995 16.7994 22.4004H16.7906C16.1588 22.3998 15.5533 22.6535 15.1107 23.1044L9.50277 28.7114C9.05129 29.158 8.79715 29.7668 8.79715 30.4018C8.79715 31.0368 9.05121 31.6455 9.50277 32.0921L11.0116 33.6001H6.39961C5.95775 33.6001 5.59961 33.9583 5.59961 34.4001C5.59961 34.842 5.95775 35.2001 6.39961 35.2001H12.6115L14.2115 36.8001H7.9996C7.55775 36.8001 7.1996 37.1583 7.1996 37.6001C7.1996 38.042 7.55775 38.4001 7.9996 38.4001H16.7994C16.8147 38.4 16.8266 38.392 16.8419 38.3913ZM16.2442 36.5705L13.5116 33.8401L13.506 33.8345L10.6333 30.9602C10.4841 30.812 10.4001 30.6105 10.3997 30.4002C10.4005 30.192 10.4853 29.9929 10.6349 29.8482L16.2499 24.2339C16.394 24.085 16.5923 24.0008 16.7995 24.0003C17.01 24.0013 17.2114 24.0858 17.3595 24.2355L22.9706 29.8466C23.1192 29.994 23.2027 30.1946 23.2027 30.4038C23.2027 30.613 23.1192 30.8136 22.9706 30.9609L17.3595 36.5664C17.2109 36.7151 17.0097 36.7993 16.7995 36.8008H16.7883C16.5837 36.7984 16.3884 36.7156 16.2442 36.5705Z" fill="#02BE91"/>
</g>
<defs>
<clipPath id="clip0_387_37141">
<rect width="48" height="48" fill="white"/>
</clipPath>
</defs>
</svg>
