<svg width="34" height="32" viewBox="0 0 34 32" fill="none" xmlns="http://www.w3.org/2000/svg">
<path d="M33 19.963V25.6297C33 28.3911 30.7614 30.6297 28 30.6297H6C3.23858 30.6297 1 28.3911 1 25.6297V19.963H5.14815C8.11111 19.963 9.46223 19.3704 10.6059 19.3704C10.7304 19.3704 10.8726 19.4119 11.0089 19.4712C12.3126 20.0638 11.6667 20.8756 11.6667 22.3334C11.6667 27.9749 15.4119 28.2593 16.1585 28.2593C18.0548 28.2593 19.963 26.9793 19.963 24.1112C19.963 22.6771 19.4178 21.8712 19.0919 21.3852C18.9911 21.2371 18.9141 21.1186 18.8548 20.8993C18.7067 20.3186 19.003 19.7141 19.56 19.4712C19.7022 19.4119 19.8385 19.3704 19.963 19.3704C21.1126 19.3704 22.3333 19.963 25.2963 19.963H33Z" fill="#F3FBFF"/>
<path d="M22.3097 1.03564C21.9423 1.7112 16.4075 11.9097 16.4075 19.9631C16.4075 22.9023 17.5927 22.4579 17.5927 24.1112C17.5927 25.2964 17.089 25.889 16.1586 25.889C15.0504 25.889 14.0371 25.0356 14.0371 22.3334C14.0371 14.0075 21.8238 1.79416 22.3097 1.03564Z" fill="#DEF1FC"/>
<path d="M1 19.963H5.14815C8.11111 19.963 9.46223 19.3704 10.6059 19.3704C10.7304 19.3704 10.8726 19.4119 11.0089 19.4712C12.3126 20.0638 11.6667 20.8756 11.6667 22.3334C11.6667 27.9749 15.4119 28.2593 16.1585 28.2593C18.0548 28.2593 19.963 26.9793 19.963 24.1112C19.963 22.6771 19.4178 21.8712 19.0919 21.3852C18.9911 21.2371 18.9141 21.1186 18.8548 20.8993C18.7067 20.3186 19.003 19.7141 19.56 19.4712C19.7022 19.4119 19.8385 19.3704 19.963 19.3704C21.1126 19.3704 22.3333 19.963 25.2963 19.963H33" stroke="#50B1AF" stroke-linecap="round" stroke-linejoin="round"/>
<path d="M22.3097 1.03564C21.8238 1.79416 14.0371 14.0075 14.0371 22.3334C14.0371 25.0356 15.0504 25.889 16.1586 25.889C17.089 25.889 17.5927 25.2964 17.5927 24.1112C17.5927 22.4579 16.4075 22.9023 16.4075 19.9631C16.4075 11.9097 21.9423 1.7112 22.3097 1.03564Z" stroke="#50B1AF" stroke-linecap="round" stroke-linejoin="round"/>
<path d="M22.3096 1.03555C22.3096 1.03555 22.3096 1.02963 22.3214 1.0237C22.3214 1.01778 22.3214 1.01185 22.3214 1.01185V1" stroke="#50B1AF" stroke-linecap="round" stroke-linejoin="round"/>
<path d="M12.2595 13.4443C9.62251 13.4443 8.70399 11.8503 8.70399 9.88879C8.70399 11.8503 7.78547 13.4443 5.14844 13.4443C7.78547 13.4443 8.70399 15.0384 8.70399 16.9999C8.70399 15.0384 9.62251 13.4443 12.2595 13.4443Z" stroke="#50B1AF" stroke-linecap="round" stroke-linejoin="round"/>
<path d="M17.0001 4.55555C14.8016 4.55555 14.0372 3.22815 14.0372 1.59259C14.0372 3.22815 13.2727 4.55555 11.0742 4.55555C13.2727 4.55555 14.0372 5.88296 14.0372 7.51852C14.0372 5.88296 14.8016 4.55555 17.0001 4.55555Z" stroke="#50B1AF" stroke-linecap="round" stroke-linejoin="round"/>
<path d="M26.4816 14.037C24.2831 14.037 23.5186 12.7096 23.5186 11.074C23.5186 12.7096 22.7542 14.037 20.5557 14.037C22.7542 14.037 23.5186 15.3644 23.5186 17C23.5186 15.3644 24.2831 14.037 26.4816 14.037Z" stroke="#50B1AF" stroke-linecap="round" stroke-linejoin="round"/>
</svg>
