<svg width="56" height="54" viewBox="0 0 56 54" fill="none" xmlns="http://www.w3.org/2000/svg">
<path d="M54.0355 36.1753C54.0409 36.1753 54.0452 36.1797 54.0452 36.185V48.5356C54.0452 51.297 51.8066 53.5356 49.0452 53.5356H6C3.23858 53.5356 1 51.297 1 48.5356V41.1753C1 38.4139 3.18551 35.7428 5.91195 35.3047C6.27234 35.2468 6.63028 35.2109 6.98929 35.2109C7.19183 35.2109 7.42329 35.2784 7.64511 35.3748C9.76692 36.3393 8.71566 37.6606 8.71566 40.0332C8.71566 49.2148 14.811 49.6777 16.0263 49.6777C19.1125 49.6777 22.2181 47.5945 22.2181 42.9265C22.2181 40.5926 21.3308 39.2809 20.8003 38.49C20.6364 38.2489 20.511 38.056 20.4145 37.6992C20.1734 36.754 20.6557 35.7703 21.5622 35.3748C21.7937 35.2784 22.0155 35.2109 22.2181 35.2109C22.5171 35.2109 22.8257 35.2398 23.144 35.2784C24.5135 35.4616 25.9312 35.4616 27.3008 35.288C27.6576 35.2398 27.9759 35.2109 28.2074 35.2109C28.4099 35.2109 28.6414 35.2784 28.8632 35.3748C29.3936 35.6159 29.7216 35.8764 29.9241 36.1657C30.5317 37.0626 29.9241 38.2489 29.9241 40.0332C29.9241 49.2148 36.0195 49.6777 37.2347 49.6777C40.321 49.6777 43.4265 47.5945 43.4265 42.9265C43.4265 40.5926 42.5392 39.2809 42.0088 38.49C41.8448 38.2489 41.7194 38.056 41.623 37.6992C41.3818 36.754 41.8641 35.7703 42.7707 35.3748C43.0021 35.2784 43.224 35.2109 43.4265 35.2109C45.2976 35.2109 47.2843 36.1753 52.1066 36.1753H54.0355Z" fill="#F3FBFF"/>
<path d="M54.9613 1.50305C54.1029 2.41929 41.2756 16.1242 37.9289 28.7876C36.7041 33.4073 38.7294 33.2048 38.0447 35.8088C37.5432 37.6702 36.5208 38.3936 35.0741 37.9981C33.3574 37.5352 32.1422 35.7702 33.261 31.517C36.7234 18.4196 53.8907 2.4868 54.9613 1.50305Z" fill="#DEF1FC"/>
<path d="M26.0371 5.37054C25.4391 6.47003 16.4311 23.0683 16.4311 36.1753C16.4311 40.959 18.36 40.2357 18.36 42.9265C18.36 44.8554 17.5402 45.8199 16.026 45.8199C14.2225 45.8199 12.5732 44.4311 12.5732 40.0332C12.5732 26.4825 25.2462 6.60505 26.0371 5.37054Z" fill="#DEF1FC"/>
<path d="M26.0371 5.37054C25.2462 6.60505 12.5732 26.4825 12.5732 40.0332C12.5732 44.4311 14.2225 45.8199 16.026 45.8199C17.5402 45.8199 18.36 44.8554 18.36 42.9265C18.36 40.2357 16.4311 40.959 16.4311 36.1753C16.4311 23.0683 25.4391 6.47003 26.0371 5.37054V5.37054Z" stroke="#50B1AF" stroke-width="1.5" stroke-linecap="round" stroke-linejoin="round"/>
<path d="M26.0371 5.37055L26.0564 5.35126V5.33197V5.31268" stroke="#50B1AF" stroke-width="1.5" stroke-linecap="round" stroke-linejoin="round"/>
<path d="M54.0453 36.1753H52.1164C47.2941 36.1753 45.3073 35.2109 43.4363 35.2109C43.2337 35.2109 43.0119 35.2784 42.7804 35.3748C41.8739 35.7703 41.3916 36.754 41.6327 37.6992C41.7292 38.056 41.8546 38.2489 42.0185 38.49C42.549 39.2809 43.4363 40.5926 43.4363 42.9265C43.4363 47.5945 40.3307 49.6777 37.2445 49.6777C36.0292 49.6777 29.9339 49.2148 29.9339 40.0332C29.9339 38.2489 30.5318 37.0626 29.9339 36.1657C29.7313 35.8764 29.4034 35.6159 28.873 35.3748C28.6511 35.2784 28.4197 35.2109 28.2171 35.2109C27.9857 35.2109 27.6674 35.2398 27.3105 35.288C25.941 35.4616 24.5233 35.4616 23.1537 35.2784C22.8355 35.2398 22.5268 35.2109 22.2278 35.2109C22.0253 35.2109 21.8035 35.2784 21.572 35.3748C20.6654 35.7703 20.1832 36.754 20.4243 37.6992C20.5208 38.056 20.6461 38.2489 20.8101 38.49C21.3405 39.2809 22.2278 40.5926 22.2278 42.9265C22.2278 47.5945 19.1223 49.6777 16.036 49.6777C14.8208 49.6777 8.72543 49.2148 8.72543 40.0332C8.72543 37.6606 9.77669 36.3393 7.65488 35.3748C7.43305 35.2784 7.20159 35.2109 6.99906 35.2109C5.13765 35.2109 3.30518 36.1753 1.00977 36.1753" stroke="#50B1AF" stroke-width="1.5" stroke-linecap="round" stroke-linejoin="round"/>
<path d="M54.9613 1.50305C53.8907 2.4868 36.7234 18.4196 33.261 31.517C32.1422 35.7702 33.3574 37.5352 35.0741 37.9981C36.5208 38.3936 37.5432 37.6702 38.0447 35.8088C38.7294 33.2048 36.7041 33.4073 37.9289 28.7876C41.2756 16.1242 54.1029 2.41929 54.9613 1.50305V1.50305Z" stroke="#50B1AF" stroke-width="1.5" stroke-linecap="round" stroke-linejoin="round"/>
<path d="M54.9619 1.50306L55.0005 1.46448" stroke="#50B1AF" stroke-width="1.5" stroke-linecap="round" stroke-linejoin="round"/>
<path d="M48.2588 16.8861L54.0455 15.9217L52.1166 21.7084" stroke="#50B1AF" stroke-width="1.5" stroke-linecap="round" stroke-linejoin="round"/>
<path d="M54.0454 15.9217C49.1073 18.7572 45.8668 23.7531 45.3652 29.4241" stroke="#50B1AF" stroke-width="1.5" stroke-linecap="round" stroke-linejoin="round"/>
</svg>
