<svg width="54" height="55" viewBox="0 0 54 55" fill="none" xmlns="http://www.w3.org/2000/svg">
<path d="M53.1193 41.0345C53.1296 41.0345 53.1379 41.0428 53.1379 41.0531V50C53.1379 52.7614 50.8994 55 48.1379 55H6C3.23858 55 1 52.7614 1 50V45.0387C1 42.8272 2.66163 40.1035 4.87311 40.1035C5.03138 40.1035 5.19897 40.15 5.36655 40.2245C6.97724 40.9786 6.17655 41.9935 6.17655 43.8276C6.17655 50.9221 10.7852 51.2759 11.6976 51.2759C14.0345 51.2759 16.3807 49.6652 16.3807 46.0621C16.3807 44.2559 15.7103 43.2504 15.31 42.6359C15.189 42.4497 15.0866 42.3007 15.0121 42.0214C14.8352 41.2952 15.1983 40.5317 15.8872 40.2245C16.0548 40.15 16.2224 40.1035 16.3807 40.1035C16.6041 40.1035 16.8369 40.1221 17.079 40.15C18.1124 40.299 19.1831 40.299 20.2259 40.1593C20.4865 40.1221 20.7286 40.1035 20.9055 40.1035C21.0545 40.1035 21.2314 40.15 21.399 40.2245C21.7993 40.42 22.0507 40.6155 22.1997 40.839C22.6559 41.5372 22.1997 42.4497 22.1997 43.8276C22.1997 50.9221 26.8083 51.2759 27.7207 51.2759C30.0576 51.2759 32.4038 49.6652 32.4038 46.0621C32.4038 44.2559 31.7334 43.2504 31.3331 42.6359C31.2028 42.4497 31.1097 42.3007 31.0352 42.0214C30.8583 41.2952 31.2214 40.5317 31.901 40.2245C32.0779 40.15 32.2455 40.1035 32.4038 40.1035C32.5807 40.1035 32.7669 40.1034 32.9531 40.1407C34.1355 40.271 35.3552 40.2617 36.5283 40.1314C36.6772 40.1128 36.8076 40.1035 36.9286 40.1035C37.0776 40.1035 37.2545 40.15 37.4221 40.2245C37.8224 40.42 38.0738 40.6155 38.2228 40.839C38.679 41.5372 38.2228 42.4497 38.2228 43.8276C38.2228 50.9221 42.8221 51.2759 43.7438 51.2759C46.0714 51.2759 48.4176 49.6652 48.4176 46.0621C48.4176 44.2559 47.7472 43.2504 47.3469 42.6359C47.2259 42.4497 47.1328 42.3007 47.0583 42.0214C46.8721 41.2952 47.2352 40.5317 47.9241 40.2245C48.101 40.15 48.2686 40.1035 48.4176 40.1035C48.6503 40.1035 48.8831 40.1221 49.1159 40.15C50.1586 40.299 51.3131 41.0345 53.1193 41.0345Z" fill="#F3FBFF"/>
<path d="M48.557 1L33.5859 20.5517L29.3125 20.9428C29.4522 20.3469 29.6197 19.7603 29.7966 19.1738C29.9177 18.7735 30.0387 18.3638 30.169 17.9728L32.6921 17.3583L37.2822 10.5245L43.669 1H48.557Z" fill="#DEF1FC"/>
<path d="M51.229 17.8424C50.6052 18.9783 43.9576 31.361 43.9576 41.1648C43.9576 44.7959 45.4194 44.2465 45.4194 46.2855C45.4194 47.7472 44.7956 48.4828 43.6597 48.4828C42.2818 48.4828 41.0342 47.4307 41.0342 44.0976C41.0342 33.9214 50.4376 19.0621 51.229 17.8424Z" fill="#DEF1FC"/>
<path d="M28.1305 29.0614C28.1305 32.6924 29.5922 32.1431 29.5922 34.1821C29.5922 35.6438 28.9684 36.3793 27.8326 36.3793C26.4546 36.3793 25.207 35.3273 25.207 31.9942C25.207 29.6759 25.7005 27.1062 26.4732 24.5179L28.5122 24.6762C28.2701 26.1659 28.1305 27.6462 28.1305 29.0614Z" fill="#DEF1FC"/>
<path d="M28.7354 18.3172C28.5585 18.7269 28.3816 19.1458 28.214 19.5648C28.0092 20.0675 27.8044 20.5796 27.6182 21.0917L23.3447 21.4827V19.6206L26.3799 18.8851L28.7354 18.3172Z" fill="#DEF1FC"/>
<path d="M19.5737 17.8424C18.9499 18.9783 12.3024 31.361 12.3024 41.1648C12.3024 44.7959 13.7641 44.2465 13.7641 46.2855C13.7641 47.7472 13.1403 48.4828 12.0044 48.4828C10.6265 48.4828 9.37891 47.4307 9.37891 44.0976C9.37891 33.9214 18.7824 19.0621 19.5737 17.8424Z" fill="#DEF1FC"/>
<path d="M51.229 17.8424C50.4376 19.0621 41.0342 33.9214 41.0342 44.0976C41.0342 47.4307 42.2818 48.4828 43.6597 48.4828C44.7956 48.4828 45.4194 47.7472 45.4194 46.2855C45.4194 44.2465 43.9576 44.7959 43.9576 41.1648C43.9576 31.361 50.6052 18.9783 51.229 17.8424V17.8424Z" stroke="#50B1AF" stroke-width="1.5" stroke-linecap="round" stroke-linejoin="round"/>
<path d="M51.2295 17.8424C51.2295 17.8424 51.2667 17.7773 51.2667 17.7679" stroke="#50B1AF" stroke-width="1.5" stroke-linecap="round" stroke-linejoin="round"/>
<path d="M29.3125 20.9427C29.4522 20.3469 29.6197 19.7603 29.7966 19.1738C29.9177 18.7734 30.0387 18.3638 30.169 17.9727C32.1801 11.7162 35.0104 6.46516 35.4015 5.73895" stroke="#50B1AF" stroke-width="1.5" stroke-linecap="round" stroke-linejoin="round"/>
<path d="M27.6182 21.0917C27.8044 20.5797 28.0092 20.0676 28.214 19.5648C28.3816 19.1459 28.5585 18.7269 28.7354 18.3173C31.5006 11.8931 34.9361 6.45587 35.4016 5.73897C35.4202 5.70173 35.4389 5.6738 35.4389 5.66449" stroke="#50B1AF" stroke-width="1.5" stroke-linecap="round" stroke-linejoin="round"/>
<path d="M26.4732 24.5179C25.7005 27.1062 25.207 29.6759 25.207 31.9942C25.207 35.3273 26.4546 36.3793 27.8326 36.3793C28.9684 36.3793 29.5922 35.6438 29.5922 34.1821C29.5922 32.1431 28.1305 32.6924 28.1305 29.0614C28.1305 27.6462 28.2701 26.1659 28.5122 24.6762" stroke="#50B1AF" stroke-width="1.5" stroke-linecap="round" stroke-linejoin="round"/>
<path d="M19.5737 17.8424C18.7824 19.0621 9.37891 33.9214 9.37891 44.0976C9.37891 47.4307 10.6265 48.4828 12.0044 48.4828C13.1403 48.4828 13.7641 47.7472 13.7641 46.2855C13.7641 44.2465 12.3024 44.7959 12.3024 41.1648C12.3024 31.361 18.9499 18.9783 19.5737 17.8424V17.8424Z" stroke="#50B1AF" stroke-width="1.5" stroke-linecap="round" stroke-linejoin="round"/>
<path d="M19.5742 17.8424C19.5742 17.8424 19.6115 17.7773 19.6115 17.7679" stroke="#50B1AF" stroke-width="1.5" stroke-linecap="round" stroke-linejoin="round"/>
<path d="M1 41.0345C2.1731 41.0345 3.46724 40.1035 4.87311 40.1035C5.03138 40.1035 5.19897 40.15 5.36655 40.2245C6.97724 40.9786 6.17655 41.9935 6.17655 43.8276C6.17655 50.9221 10.7852 51.2759 11.6976 51.2759C14.0345 51.2759 16.3807 49.6652 16.3807 46.0621C16.3807 44.2559 15.7103 43.2504 15.31 42.6359C15.189 42.4497 15.0866 42.3007 15.0121 42.0214C14.8352 41.2952 15.1983 40.5317 15.8872 40.2245C16.0548 40.15 16.2224 40.1035 16.3807 40.1035C16.6041 40.1035 16.8369 40.1221 17.079 40.15C18.1124 40.299 19.1831 40.299 20.2259 40.1593C20.4865 40.1221 20.7286 40.1035 20.9055 40.1035C21.0545 40.1035 21.2314 40.15 21.399 40.2245C21.7993 40.42 22.0507 40.6155 22.1997 40.839C22.6559 41.5372 22.1997 42.4497 22.1997 43.8276C22.1997 50.9221 26.8083 51.2759 27.7207 51.2759C30.0576 51.2759 32.4038 49.6652 32.4038 46.0621C32.4038 44.2559 31.7334 43.2504 31.3331 42.6359C31.2028 42.4497 31.1096 42.3007 31.0352 42.0214C30.8583 41.2952 31.2214 40.5317 31.901 40.2245C32.0779 40.15 32.2455 40.1035 32.4038 40.1035C32.5807 40.1035 32.7669 40.1034 32.9531 40.1407C34.1355 40.271 35.3552 40.2617 36.5283 40.1314C36.6772 40.1128 36.8076 40.1035 36.9286 40.1035C37.0776 40.1035 37.2545 40.15 37.4221 40.2245C37.8224 40.42 38.0738 40.6155 38.2228 40.839C38.679 41.5372 38.2228 42.4497 38.2228 43.8276C38.2228 50.9221 42.8221 51.2759 43.7438 51.2759C46.0714 51.2759 48.4176 49.6652 48.4176 46.0621C48.4176 44.2559 47.7472 43.2504 47.3469 42.6359C47.2259 42.4497 47.1328 42.3007 47.0583 42.0214C46.8721 41.2952 47.2352 40.5317 47.9241 40.2245C48.101 40.15 48.2686 40.1035 48.4176 40.1035C48.6503 40.1035 48.8831 40.1221 49.1159 40.15C50.1586 40.299 51.3131 41.0345 53.1193 41.0345" stroke="#50B1AF" stroke-width="1.5" stroke-linecap="round" stroke-linejoin="round"/>
<path d="M52.2073 7.51724V1H48.5576" stroke="#50B1AF" stroke-width="1.5" stroke-linecap="round" stroke-linejoin="round"/>
<path d="M23.3447 22.4138V24.2758L26.473 24.5179L28.512 24.6762L35.4482 25.2069L52.2068 7.51721" stroke="#50B1AF" stroke-width="1.5" stroke-linecap="round" stroke-linejoin="round"/>
<path d="M48.5571 1L33.5861 20.5517L29.3127 20.9428L27.6182 21.0917L23.3447 21.4828" stroke="#50B1AF" stroke-width="1.5" stroke-linecap="round" stroke-linejoin="round"/>
<path d="M43.6689 1H48.5569" stroke="#50B1AF" stroke-width="1.5" stroke-linecap="round" stroke-linejoin="round"/>
<path d="M37.2822 10.5245L43.6691 1" stroke="#50B1AF" stroke-width="1.5" stroke-linecap="round" stroke-linejoin="round"/>
<path d="M32.6924 17.3583L37.2824 10.5245" stroke="#50B1AF" stroke-width="1.5" stroke-linejoin="round"/>
<path d="M23.3447 22.4138V21.4828V19.6207L26.3799 18.8852" stroke="#50B1AF" stroke-width="1.5" stroke-linejoin="round"/>
<path d="M25.207 45.2241L27.0691 48.0172L28.9312 45.2241" stroke="#50B1AF" stroke-width="1.5" stroke-linecap="round" stroke-linejoin="round"/>
<path d="M27.0693 47.5517V39.1724" stroke="#50B1AF" stroke-width="1.5" stroke-linejoin="round"/>
</svg>
