<svg width="54" height="56" viewBox="0 0 54 56" fill="none" xmlns="http://www.w3.org/2000/svg">
<path d="M42 5C42 11 33.93 10.08 31.62 12C27.5 15.44 28.83 22 26 22C23.17 22 23.25 19 21 19C18.75 19 18 21.58 18 24C15.75 28.38 18 32.31 18 34C18 37 16 38 15 38C13.31 38 7 32.94 7 18C7 1.88 13.88 1 26 1C38.75 1 42 2.25 42 5Z" fill="#DEF1FC"/>
<path d="M15 38V45C15 47.62 10.97 51.5 9 55" stroke="#50B1AF" stroke-width="1.5" stroke-linecap="round" stroke-linejoin="round"/>
<path d="M22 30C19.5 30 18 27.06 18 24C18 21.58 18.75 19 21 19C23.25 19 23.17 22 26 22C28.83 22 27.5 15.44 31.62 12C33.93 10.08 42 11 42 5C42 2.25 38.75 1 26 1C13.25 1 7 1.88 7 18C7 32.94 13.31 38 15 38C16 38 18 37 18 34C18 32.31 15.75 28.38 18 24" stroke="#50B1AF" stroke-width="1.5" stroke-linecap="round" stroke-linejoin="round"/>
<path d="M41.14 8C41.12 11.44 42.88 14.62 43 16.12C43.12 17.62 42.31 18.19 42.5 19.5C42.69 20.81 47 26.38 47 28C47 29.62 43 29.94 43 29.94C43 32.31 43.56 32.87 43.56 33.94C43.56 34.63 42.69 35.09 42.69 35.09C42.69 35.09 43.12 35.38 43.12 36.44C43.12 37.01 42 37.79 42 37.79C42 37.79 42.5 40.19 42.31 41.19C42.12 42.19 41.5 42.94 38.81 42.94C36.12 42.94 33 42.16 33 46V47.94C33 49.27 33.52 50.54 34.44 51.49C35.88 52.96 37.88 55 38 55" stroke="#50B1AF" stroke-width="1.5" stroke-linecap="round" stroke-linejoin="round"/>
</svg>
