<svg width="93" height="88" viewBox="0 0 93 88" fill="none" xmlns="http://www.w3.org/2000/svg">
<g clip-path="url(#clip0)">
<path d="M46.5999 80.3C67.9733 80.3 85.2999 62.9734 85.2999 41.6C85.2999 20.2266 67.9733 2.90002 46.5999 2.90002C25.2265 2.90002 7.8999 20.2266 7.8999 41.6C7.8999 62.9734 25.2265 80.3 46.5999 80.3Z" fill="url(#paint0_radial)"/>
<path opacity="0.28" d="M39.7 77.4C61.0734 77.4 78.4 60.0734 78.4 38.7C78.4 17.3266 61.0734 0 39.7 0C18.3266 0 1 17.3266 1 38.7C1 60.0734 18.3266 77.4 39.7 77.4Z" fill="#ED3261"/>
<path opacity="0.28" d="M46.4002 87.2C67.7736 87.2 85.1002 69.8735 85.1002 48.5C85.1002 27.1266 67.7736 9.80005 46.4002 9.80005C25.0268 9.80005 7.7002 27.1266 7.7002 48.5C7.7002 69.8735 25.0268 87.2 46.4002 87.2Z" fill="#ED3261"/>
<path opacity="0.28" d="M53.5999 77.4C74.9733 77.4 92.2999 60.0734 92.2999 38.7C92.2999 17.3266 74.9733 0 53.5999 0C32.2265 0 14.8999 17.3266 14.8999 38.7C14.8999 60.0734 32.2265 77.4 53.5999 77.4Z" fill="#ED3261"/>
<path d="M78.5999 41C78.5999 41 76.7999 40.1999 74.9999 37.7999C74.0999 36.5999 73.2999 35.1 72.5999 33.5C70.7999 29.9 68.6999 25.7999 64.2999 25.7999C63.5999 25.7999 62.8999 25.9 62.2999 25.9C62.3999 25.2 62.3999 24.5 62.3999 23.9C62.3999 19.4 58.1999 17.3 54.5999 15.5C52.9999 14.7 51.5999 14 50.3999 13.1C48.4999 11.7 47.1999 9.49995 47.1999 9.49995C47.0999 9.29995 46.8999 9.19995 46.6999 9.19995C46.4999 9.19995 46.2999 9.29995 46.1999 9.59995C46.1999 9.59995 45.3999 11.4 42.9999 13.2C41.7999 14.1 40.2999 14.9 38.6999 15.6C35.0999 17.4 30.9999 19.5 30.9999 23.9C30.9999 24.6 31.0999 25.3 31.0999 25.9C30.3999 25.8 29.6999 25.7999 29.0999 25.7999C24.6999 25.7999 22.5999 29.9 20.7999 33.5C19.9999 35.1 19.2999 36.5999 18.3999 37.7999C16.5999 40.1999 14.7999 41 14.7999 41C14.5999 41.1 14.4999 41.2999 14.3999 41.5C14.3999 41.7 14.4999 41.8999 14.6999 42.0999C14.6999 42.0999 16.8999 43.3999 18.2999 45.2999C19.1999 46.5 19.8999 47.9 20.6999 49.5C22.4999 53.2 24.5999 57.2999 29.0999 57.2999C29.7999 57.2999 30.4999 57.2 31.0999 57.2C30.9999 57.9 30.9999 58.6 30.9999 59.2C30.9999 63.6 35.0999 65.7 38.6999 67.5C40.2999 68.2999 41.7999 69 42.9999 69.9C45.3999 71.7 46.1999 73.5 46.1999 73.5C46.2999 73.7 46.4999 73.8 46.6999 73.9C46.8999 73.9 47.0999 73.7999 47.1999 73.6C47.1999 73.6 48.4999 71.4 50.3999 70C51.5999 69.0999 52.9999 68.3999 54.5999 67.5999C58.2999 65.7999 62.3999 63.7 62.3999 59.2C62.3999 58.5 62.2999 57.7999 62.2999 57.2C62.9999 57.2999 63.6999 57.2999 64.2999 57.2999C68.7999 57.2999 70.8999 53.0999 72.6999 49.5C73.4999 47.9 74.1999 46.5 75.0999 45.2999C76.4999 43.3999 78.6999 42.0999 78.6999 42.0999C78.8999 42 78.9999 41.7999 78.9999 41.5999C78.8999 41.2999 78.7999 41.1 78.5999 41ZM60.4999 32.5999H32.4999V27.7H60.4999V32.5999ZM59.9999 33.7999L46.5999 55.0999L33.0999 33.7999H59.9999ZM32.4999 35.2L45.4999 55.7H32.4999V35.2ZM60.4999 35.2999V55.7H47.6999L60.4999 35.2999ZM33.5999 26.5C37.0999 23.5 41.5999 21.7 46.5999 21.7C51.5999 21.7 56.0999 23.5 59.5999 26.5H33.5999ZM31.2999 54.7C28.2999 51.2 26.4999 46.7 26.4999 41.7999C26.4999 36.9 28.2999 32.4 31.2999 28.9V54.7ZM46.5999 56.9H59.6999C56.1999 60 51.5999 61.7999 46.5999 61.7999C41.5999 61.7999 36.9999 59.9 33.4999 56.9H46.5999ZM61.6999 54.9V28.5C64.7999 32 66.6999 36.6 66.6999 41.7C66.6999 46.7999 64.7999 51.4 61.6999 54.9ZM39.1999 16.8C40.7999 16 42.3999 15.2 43.6999 14.2C45.2999 13 46.1999 11.8 46.6999 11C47.2999 11.8 48.2999 13.1 49.6999 14.2C50.9999 15.1 52.4999 15.9 54.0999 16.7C57.7999 18.5 61.2999 20.2 61.2999 24C61.2999 24.7 61.1999 25.4 61.0999 26.1C57.2999 22.6 52.2999 20.5 46.6999 20.5C41.1999 20.5 36.0999 22.6 32.2999 26.1C32.1999 25.4 32.0999 24.7 32.0999 24C32.0999 20.3 35.4999 18.6 39.1999 16.8ZM21.6999 49C20.8999 47.5 20.1999 45.8999 19.1999 44.5999C18.1999 43.1999 16.8999 42.1999 15.9999 41.5999C16.7999 41.0999 17.9999 40.0999 19.1999 38.5999C20.1999 37.2999 20.9999 35.6999 21.7999 34.0999C23.5999 30.4999 25.2999 27 28.9999 27C29.6999 27 30.3999 27.1 31.0999 27.2C27.4999 31 25.2999 36.1 25.2999 41.7C25.2999 47.2 27.3999 52.2 30.7999 55.9C30.1999 56 29.4999 56 28.8999 56C25.2999 56.0999 23.4999 52.5999 21.6999 49ZM53.9999 66.5C52.4999 67.2999 50.8999 68 49.5999 69C48.1999 70 47.1999 71.2999 46.5999 72.1999C46.0999 71.3999 45.0999 70.2 43.5999 69C42.2999 68 40.6999 67.2 39.0999 66.4C35.4999 64.6 31.9999 62.9 31.9999 59.2C31.9999 58.6 32.0999 58 32.0999 57.2999C35.9999 60.7999 41.0999 63 46.5999 63C52.0999 63 57.1999 60.7999 60.9999 57.2999C61.0999 57.8999 61.0999 58.5 61.0999 59.2C61.0999 62.9 57.6999 64.7 53.9999 66.5ZM73.9999 44.5999C73.0999 45.8999 72.2999 47.4 71.4999 49C69.6999 52.7 67.9999 56.2 64.1999 56.2C63.5999 56.2 62.9999 56.0999 62.2999 56.0999C65.6999 52.2999 67.7999 47.3 67.7999 41.9C67.7999 36.3 65.5999 31.2 61.9999 27.4C62.6999 27.3 63.3999 27.2 64.0999 27.2C67.7999 27.2 69.4999 30.5999 71.2999 34.2999C72.0999 35.9 72.8999 37.5 73.8999 38.7999C75.0999 40.4 76.2999 41.2999 77.0999 41.7999C76.2999 42.2 74.9999 43.1999 73.9999 44.5999Z" fill="white"/>
</g>
<defs>
<radialGradient id="paint0_radial" cx="0" cy="0" r="1" gradientUnits="userSpaceOnUse" gradientTransform="translate(46.624 41.5788) scale(38.6621)">
<stop stop-color="#ED3261"/>
<stop offset="1" stop-color="#ED3261" stop-opacity="0"/>
</radialGradient>
<clipPath id="clip0">
<rect width="91.2" height="87.2" fill="white" transform="translate(1)"/>
</clipPath>
</defs>
</svg>
