<svg width="70" height="71" viewBox="0 0 70 71" fill="none" xmlns="http://www.w3.org/2000/svg">
<path d="M35 70.45C54.33 70.45 70 54.7799 70 35.45C70 16.12 54.33 0.449951 35 0.449951C15.67 0.449951 0 16.12 0 35.45C0 54.7799 15.67 70.45 35 70.45Z" fill="#0A4586"/>
<path d="M35 62.1699C49.757 62.1699 61.72 50.207 61.72 35.45C61.72 20.6929 49.757 8.72998 35 8.72998C20.243 8.72998 8.28003 20.6929 8.28003 35.45C8.28003 50.207 20.243 62.1699 35 62.1699Z" fill="#DAE6F2"/>
<path d="M35 59.27C48.1554 59.27 58.8199 48.6054 58.8199 35.45C58.8199 22.2945 48.1554 11.6299 35 11.6299C21.8446 11.6299 11.1801 22.2945 11.1801 35.45C11.1801 48.6054 21.8446 59.27 35 59.27Z" fill="white"/>
<path d="M35 53.26C44.8362 53.26 52.8101 45.2861 52.8101 35.45C52.8101 25.6138 44.8362 17.6399 35 17.6399C25.1638 17.6399 17.1899 25.6138 17.1899 35.45C17.1899 45.2861 25.1638 53.26 35 53.26Z" fill="#DAE6F2"/>
<path d="M35 61.9999C28.8665 62.0001 22.9227 59.8735 18.1814 55.9824C13.4401 52.0913 10.1948 46.6766 8.99841 40.6608C7.80205 34.6451 8.72863 28.4005 11.6204 22.9914C14.5121 17.5823 19.19 13.3434 24.8569 10.9968C30.5238 8.65018 36.8291 8.3412 42.6982 10.1225C48.5674 11.9038 53.6374 15.6651 57.0441 20.7656C60.4508 25.866 61.9835 31.9901 61.381 38.0939C60.7785 44.1978 58.0781 49.9039 53.74 54.2399C51.2842 56.7077 48.3635 58.6641 45.1469 59.996C41.9302 61.328 38.4815 62.0092 35 61.9999ZM35 65.32C40.9002 65.322 46.6686 63.5741 51.5754 60.2976C56.4823 57.021 60.3071 52.3628 62.5664 46.9123C64.8257 41.4618 65.4179 35.4636 64.2681 29.6765C63.1182 23.8894 60.278 18.5734 56.1066 14.4006C51.9352 10.2278 46.62 7.38564 40.8333 6.23383C35.0465 5.08203 29.0482 5.67217 23.5969 7.92964C18.1456 10.1871 13.4862 14.0105 10.208 18.9162C6.9298 23.8219 5.18005 29.5897 5.18005 35.4899C5.18005 43.3996 8.3214 50.9854 13.9135 56.5793C19.5055 62.1732 27.0903 65.3174 35 65.32Z" fill="#FF4019"/>
<path d="M35 65.28H36.15C37.831 65.2193 39.5037 65.0151 41.15 64.6699L40.3 60.6101C38.5508 60.9785 36.7676 61.1627 34.98 61.1599V65.3101L35 65.28ZM47.0699 62.73C48.9679 61.8938 50.7714 60.8579 52.45 59.6399L50.02 56.28C48.5761 57.3294 47.0239 58.2211 45.39 58.9399L47.0699 62.73ZM57.0699 55.51H57.13L57.2 55.4399L57.37 55.24C58.4883 53.932 59.492 52.5302 60.37 51.05L56.79 48.96C55.887 50.4979 54.828 51.9389 53.63 53.26L56.6899 56.05L57.0699 55.51ZM63.3101 44.8601C63.5501 44.1401 63.76 43.3999 63.95 42.6499V42.5801V42.51V42.4299H64.03V42.3501V42.29H64.09V42.23L59.97 41.77C59.7711 43.5414 59.3891 45.2874 58.83 46.98L62.76 48.28L63.3101 44.8601ZM60.5601 32.99L64.6899 32.6001C64.4916 30.5363 64.0794 28.4986 63.46 26.52L59.46 27.76C59.9766 29.4632 60.3118 31.2163 60.46 32.99H60.5601ZM57.39 22.8701L61 20.8701C60.4618 19.9179 59.8709 18.9965 59.23 18.1101H59H58.88H58.77H58.65H58.5601H58.48H58H57.9301H57.87L54.76 20.8401C55.9399 22.1812 56.9755 23.6424 57.85 25.2L57.39 22.8701ZM50.39 14.8701L52.88 11.55H52.8101C52.2401 11.13 51.6501 10.7201 51.0601 10.3401H51H50.9301L50.86 10.29H50.78H50.6801H50.45H49.8199H49.3199H49.23H49.16C48.74 10.07 48.31 9.8599 47.87 9.6499L46.13 13.4099C47.7468 14.1633 49.2816 15.0815 50.71 16.1499L50.39 14.8701ZM40.76 10.4099L41.6801 6.40991C40.7823 6.20047 39.8744 6.03694 38.96 5.91992H38.46C37.46 5.80992 36.52 5.73997 35.53 5.71997L35.46 9.87012C37.2442 9.89698 39.0207 10.1114 40.76 10.51V10.4099ZM25.03 11.78C26.6705 11.0847 28.38 10.5651 30.13 10.23L29.35 6.15991H29.1801H28.87C27.7754 6.39677 26.694 6.69063 25.63 7.04004H25.51H25.1899H25.08C24.53 7.23004 23.99 7.43991 23.46 7.65991L25.08 11.48L25.03 11.78ZM16.3101 17.8501C17.52 16.5525 18.8604 15.383 20.3101 14.3601L18 11L17.73 11.2H17.65H17.5699H17H16.25H16H13.6899H13.62L13.5699 11.26L16.5699 14.0901L16.3101 17.8501ZM10.78 26.9299C11.3735 25.2447 12.1409 23.6262 13.0699 22.1001L9.53003 19.95C8.48305 21.691 7.61519 23.5338 6.93994 25.45L10.84 26.8301L10.78 26.9299ZM5.29004 37.79L9.42004 37.47C9.37004 36.8 9.33997 36.12 9.33997 35.47C9.33954 34.36 9.40976 33.251 9.55005 32.1499L5.43994 31.6201V31.6699C5.31994 32.6699 5.23997 33.67 5.21997 34.74C5.21997 35.28 5.22003 35.8201 5.28003 36.3501C5.28003 36.4101 5.28003 36.47 5.28003 36.54L5.29004 37.79ZM8.78003 49.6201L12.42 47.6201C11.5875 46.049 10.9174 44.397 10.42 42.6899L6.42004 43.8601L6.63 44.54V44.6201V44.6699C7.15658 46.2797 7.82591 47.8394 8.63 49.3301L8.78003 49.6201ZM16.78 59.03L19.3199 55.75C17.9073 54.6589 16.6136 53.4221 15.46 52.0601L12.3 54.74H12.38H12.45H12.52H12.61H12.6801V54.8L12.75 54.8701L12.86 54.99C13.8026 55.9487 14.8046 56.8471 15.86 57.6799L16.78 59.03ZM27.88 64.3999L28.88 60.3999C27.1548 59.9725 25.479 59.3661 23.88 58.5901L22.0699 62.3201C22.8799 62.7101 23.71 63.0599 24.55 63.3799H24.66H24.78H26.35H26.47C26.89 63.5099 27.33 63.62 27.76 63.73L27.88 64.3999ZM35.04 65.27V61.1201H34.17L34.03 65.26H35.03L35.04 65.27Z" fill="white"/>
<path d="M35.5699 56.79L34.41 56.6699C34.41 50.9399 34.41 44.6701 34.41 37.6201V36.6201L33.6899 37.3301C29.2999 41.6601 24.69 45.84 19.36 50.48L18.73 49.8701C24.07 45.1901 28.61 40.9899 33 36.6599L33.73 35.9399H32.73H23.73H13.49V34.9399C16.87 34.9399 20.32 34.9399 23.74 34.9399H32.74H33.74L33.01 34.22C28.62 29.89 24.08 25.69 18.74 21.01L19.37 20.3899C24.75 25.0299 29.31 29.22 33.7 33.55L34.42 34.25V33.25C34.42 26.17 34.42 19.9299 34.42 14.1899L35.58 14.0801C35.45 20.3201 35.38 26.75 35.37 33.21V34.21L36.09 33.48C40.51 29 45.09 24.08 50.53 18L51.13 18.6001C45.73 24.7401 41.13 29.6999 36.76 34.1699L36.05 34.8899H37.05C43.49 34.8899 49.87 34.79 56.05 34.71V36.0601C49.89 35.9701 43.51 35.9099 37.05 35.8799H36.05L36.76 36.6101C41.16 41.0801 45.76 46.0299 51.13 52.1699L50.53 52.78C45.1 46.7 40.53 41.78 36.09 37.3L35.37 36.5601V37.5601C35.37 44.1201 35.4399 50.55 35.5699 56.79Z" fill="white"/>
<g style="mix-blend-mode:multiply" opacity="0.2">
<path d="M24.49 34.3602C24.6889 34.4178 24.9004 34.4151 25.0979 34.3528C25.2954 34.2906 25.4701 34.1714 25.6 34.0101L31.23 35.8702C31.1158 36.7871 31.2966 37.7165 31.7461 38.5237C32.1956 39.331 32.8904 39.9743 33.73 40.3602L32.35 46.1299C32.1238 46.1643 31.9162 46.2755 31.7619 46.4444C31.6076 46.6133 31.516 46.83 31.5022 47.0584C31.4884 47.2868 31.5533 47.513 31.6861 47.6993C31.819 47.8856 32.0116 48.0207 32.232 48.0821C32.4524 48.1435 32.6872 48.1273 32.8972 48.0364C33.1072 47.9456 33.2797 47.7857 33.386 47.5831C33.4922 47.3804 33.5257 47.1475 33.4809 46.9232C33.4362 46.6988 33.3159 46.4965 33.14 46.3502L35 40.72C35.9171 40.8358 36.8471 40.6558 37.6548 40.2061C38.4624 39.7564 39.1053 39.0606 39.49 38.22L45.26 39.6002C45.2871 39.8049 45.3735 39.9973 45.5085 40.1536C45.6435 40.31 45.8213 40.4234 46.02 40.48C46.1905 40.5124 46.3665 40.4997 46.5306 40.4434C46.6948 40.3871 46.8414 40.2892 46.9562 40.159C47.0709 40.0288 47.15 39.8709 47.1853 39.701C47.2206 39.5311 47.2111 39.3549 47.1577 39.1898C47.1043 39.0246 47.0088 38.8764 46.8807 38.7593C46.7526 38.6423 46.5962 38.5606 46.427 38.5223C46.2577 38.484 46.0814 38.4904 45.9154 38.5408C45.7493 38.5913 45.5993 38.6841 45.48 38.8101L39.85 36.95C39.9657 36.0329 39.7857 35.1029 39.336 34.2952C38.8864 33.4876 38.1905 32.8446 37.35 32.46L38.73 26.69C38.9562 26.6556 39.1638 26.5447 39.3181 26.3758C39.4724 26.2069 39.5641 25.9902 39.5779 25.7618C39.5917 25.5334 39.5267 25.3072 39.3939 25.1209C39.2611 24.9346 39.0683 24.7995 38.8479 24.7381C38.6275 24.6767 38.3927 24.6927 38.1827 24.7835C37.9727 24.8743 37.8002 25.0345 37.6939 25.2371C37.5877 25.4398 37.5542 25.6727 37.599 25.897C37.6437 26.1214 37.7641 26.3237 37.9399 26.47L36.0799 32.1002C35.163 31.986 34.2337 32.1665 33.4264 32.616C32.6191 33.0655 31.9758 33.7606 31.5899 34.6002L25.8199 33.22C25.8014 33.0137 25.7194 32.8183 25.5851 32.6607C25.4507 32.5031 25.2707 32.3911 25.0699 32.3402C24.9331 32.2804 24.785 32.2503 24.6357 32.2523C24.4864 32.2542 24.3392 32.2882 24.204 32.3516C24.0687 32.415 23.9487 32.5064 23.8517 32.6199C23.7546 32.7335 23.6828 32.8664 23.6412 33.0098C23.5996 33.1533 23.5892 33.3039 23.6104 33.4517C23.6317 33.5995 23.6842 33.7411 23.7645 33.867C23.8448 33.9929 23.9512 34.1004 24.0763 34.182C24.2014 34.2635 24.3424 34.3174 24.49 34.3402V34.3602Z" fill="black"/>
</g>
<path d="M23.62 33.49C23.82 33.5452 24.0317 33.5406 24.2291 33.4766C24.4264 33.4126 24.6005 33.292 24.73 33.1299L30.36 34.99C30.2443 35.9071 30.4244 36.8372 30.8741 37.6448C31.3237 38.4524 32.0195 39.0954 32.86 39.48L31.48 45.25C31.2918 45.2736 31.1134 45.3476 30.9639 45.4644C30.8144 45.5812 30.6994 45.7364 30.631 45.9134C30.5626 46.0903 30.5434 46.2825 30.5755 46.4695C30.6076 46.6565 30.6897 46.8311 30.8132 46.9751C30.9366 47.1192 31.0968 47.2271 31.2767 47.2874C31.4565 47.3477 31.6494 47.3582 31.8348 47.3177C32.0201 47.2771 32.1909 47.1871 32.3292 47.0572C32.4674 46.9273 32.568 46.7626 32.62 46.5801C32.6838 46.3807 32.6833 46.1662 32.6187 45.9671C32.5541 45.7679 32.4287 45.5941 32.2601 45.47L34.1301 39.8401C35.047 39.9543 35.9765 39.7735 36.7837 39.324C37.591 38.8745 38.2342 38.1797 38.62 37.3401L44.3801 38.72C44.4051 38.9647 44.5153 39.1928 44.6913 39.3645C44.8674 39.5363 45.0981 39.6409 45.3433 39.66C45.5885 39.679 45.8326 39.6113 46.033 39.4688C46.2334 39.3263 46.3774 39.1178 46.44 38.8799C46.4856 38.7475 46.5029 38.6069 46.4908 38.4673C46.4786 38.3278 46.4373 38.1924 46.3694 38.0699C46.3015 37.9473 46.2086 37.8403 46.0967 37.7559C45.9849 37.6715 45.8565 37.6117 45.72 37.5801C45.5206 37.5164 45.3062 37.5168 45.1071 37.5813C44.908 37.6459 44.7341 37.7713 44.61 37.94L38.98 36.0701C39.0934 35.1521 38.9113 34.2218 38.4599 33.4144C38.0085 32.6069 37.3114 31.9644 36.47 31.5801L37.85 25.8201C38.0947 25.795 38.3228 25.6849 38.4946 25.5088C38.6663 25.3328 38.7708 25.1019 38.7898 24.8567C38.8089 24.6115 38.7413 24.3675 38.5988 24.167C38.4563 23.9666 38.2479 23.8226 38.0101 23.7601C37.8899 23.6983 37.7587 23.661 37.6241 23.6499C37.4894 23.6389 37.354 23.6543 37.2254 23.6956C37.0968 23.7369 36.9776 23.8033 36.8746 23.8907C36.7716 23.9781 36.6868 24.085 36.625 24.2051C36.5633 24.3253 36.5259 24.4562 36.5148 24.5909C36.5038 24.7255 36.5194 24.8612 36.5607 24.9898C36.602 25.1184 36.6683 25.2376 36.7557 25.3406C36.8431 25.4436 36.9498 25.5284 37.07 25.5901L35.21 31.22C34.2916 31.1034 33.36 31.2844 32.5519 31.7361C31.7438 32.1879 31.1018 32.8866 30.72 33.73L24.95 32.3501C24.9265 32.1619 24.8524 31.9835 24.7356 31.834C24.6189 31.6845 24.4637 31.5694 24.2868 31.501C24.1098 31.4326 23.9176 31.4133 23.7306 31.4454C23.5437 31.4774 23.3688 31.5597 23.2248 31.6832C23.0807 31.8066 22.9729 31.9667 22.9126 32.1465C22.8524 32.3264 22.8418 32.5193 22.8824 32.7046C22.9229 32.89 23.013 33.061 23.1429 33.1993C23.2728 33.3375 23.4376 33.438 23.62 33.49Z" fill="#FF4019"/>
<path d="M34.67 37.6299C35.8298 37.6299 36.77 36.6898 36.77 35.53C36.77 34.3702 35.8298 33.4299 34.67 33.4299C33.5102 33.4299 32.5699 34.3702 32.5699 35.53C32.5699 36.6898 33.5102 37.6299 34.67 37.6299Z" fill="#0A4586"/>
<path d="M35.52 38.6001C36.2766 38.6001 36.89 37.9866 36.89 37.23C36.89 36.4734 36.2766 35.8601 35.52 35.8601C34.7634 35.8601 34.15 36.4734 34.15 37.23C34.15 37.9866 34.7634 38.6001 35.52 38.6001Z" fill="white"/>
<g style="mix-blend-mode:multiply" opacity="0.2">
<path d="M51.55 58.6799C52.4503 58.6799 53.1801 57.9503 53.1801 57.05C53.1801 56.1498 52.4503 55.4199 51.55 55.4199C50.6498 55.4199 49.92 56.1498 49.92 57.05C49.92 57.9503 50.6498 58.6799 51.55 58.6799Z" fill="#328FD9"/>
</g>
<path d="M50.83 58.6799C51.7302 58.6799 52.46 57.9503 52.46 57.05C52.46 56.1498 51.7302 55.4199 50.83 55.4199C49.9297 55.4199 49.2 56.1498 49.2 57.05C49.2 57.9503 49.9297 58.6799 50.83 58.6799Z" fill="#0A4586"/>
<path opacity="0.2" d="M50.29 57.95C50.7871 57.95 51.1899 57.5471 51.1899 57.05C51.1899 56.553 50.7871 56.1499 50.29 56.1499C49.793 56.1499 49.39 56.553 49.39 57.05C49.39 57.5471 49.793 57.95 50.29 57.95Z" fill="white"/>
<path d="M34.15 34.05C34.4041 34.05 34.61 33.8441 34.61 33.5901C34.61 33.336 34.4041 33.1299 34.15 33.1299C33.896 33.1299 33.6899 33.336 33.6899 33.5901C33.6899 33.8441 33.896 34.05 34.15 34.05Z" fill="white"/>
<path d="M35.63 13.48H34.6899L34.22 14.29L34.6899 15.1101H35.63L36.1 14.29L35.63 13.48Z" fill="#328FD9"/>
<path d="M35.63 55.22H34.6899L34.22 56.03L34.6899 56.8401H35.63L36.1 56.03L35.63 55.22Z" fill="#328FD9"/>
<path d="M56.84 35.6299V34.6899L56.03 34.22L55.22 34.6899V35.6299L56.03 36.1001L56.84 35.6299Z" fill="#328FD9"/>
<path d="M15.11 35.6299V34.6899L14.29 34.22L13.48 34.6899V35.6299L14.29 36.1001L15.11 35.6299Z" fill="#328FD9"/>
<path d="M50.16 50.8301L50.83 50.1599L50.58 49.26L49.67 49.01L49.01 49.6799L49.25 50.5801L50.16 50.8301Z" fill="#328FD9"/>
<path d="M20.65 21.3101L21.3101 20.6499L21.0699 19.74L20.16 19.5L19.5 20.1599L19.74 21.0701L20.65 21.3101Z" fill="#328FD9"/>
<path d="M19.5 50.1599L20.16 50.8301L21.0699 50.5801L21.3101 49.6799L20.65 49.01L19.74 49.26L19.5 50.1599Z" fill="#328FD9"/>
<path d="M49.01 20.6499L49.67 21.3101L50.58 21.0701L50.83 20.1599L50.16 19.5L49.25 19.74L49.01 20.6499Z" fill="#328FD9"/>
</svg>
