<svg width="100" height="100" viewBox="0 0 100 100" fill="none" xmlns="http://www.w3.org/2000/svg">
<path d="M49.9089 10.001C27.829 10.001 10.0059 28.0132 10.0059 50.0931C10.0059 72.1729 27.829 89.9961 49.9089 89.9961C71.9888 89.9961 90.0011 72.1762 90.0011 50.0931C90.0011 28.0132 71.9888 10.001 49.9089 10.001ZM49.9089 15.1835C52.2332 15.231 54.5578 15.5268 56.882 16.0094L55.1167 24.4074C53.4327 24.064 51.6883 23.8839 49.9026 23.8839C48.0984 23.8839 46.3361 24.0703 44.6381 24.4199L42.9358 15.814C45.26 15.3282 47.5847 15.1345 49.9089 15.1835ZM69.0818 20.8516C73.1492 23.5662 76.4403 26.853 78.9614 30.9206L71.6605 35.6929C69.707 32.7237 67.1855 30.1648 64.2271 28.2031L69.0818 20.8516ZM30.7297 21.0416L35.5025 28.2669C32.576 30.2304 30.0778 32.7727 28.1511 35.7317L20.8564 30.921C23.3743 26.8538 26.856 23.5658 30.7297 21.0416ZM49.9026 27.1128C51.4594 27.1128 52.9779 27.2698 54.4484 27.5668L49.7576 49.867L49.9089 50.0935L49.7386 49.9803L49.7131 50.0935L49.6802 49.9437L30.8226 37.498C32.5067 34.8985 34.7001 32.6679 37.2661 30.9473L49.6298 49.6726L45.2605 27.5869C46.7566 27.28 48.3087 27.1142 49.9009 27.1142L49.9026 27.1128ZM62.4681 30.8706C65.0806 32.5813 67.3278 34.7972 69.0566 37.3963L49.9089 49.9049L72.3918 45.3337C72.7159 46.8684 72.8899 48.4574 72.8899 50.0877C72.8899 51.649 72.7332 53.1705 72.436 54.6397L50.1863 49.9615L69.1323 62.5963C67.4155 65.194 65.1868 67.4145 62.5753 69.1215L50.1296 49.949L49.909 49.9049L62.4681 30.8711V30.8706ZM84.1881 42.932C84.9628 47.5771 84.9611 52.4189 83.9927 57.0673L75.5884 55.3015C75.9325 53.6182 76.118 51.8748 76.118 50.0877C76.1178 49.8733 76.075 49.6611 75.9919 49.4634C75.9514 47.8397 75.7472 46.2559 75.4245 44.7161L84.1882 42.932H84.1881ZM15.8189 43.1219L24.3997 44.9253C24.0676 46.5965 23.889 48.3217 23.889 50.0886C23.889 51.8961 24.0654 53.6583 24.4123 55.3599L15.8189 57.0682C14.8505 52.423 14.8505 47.7704 15.8189 43.1219ZM27.5584 45.587L49.827 50.2714L50.098 50.0962L54.5429 72.428C53.0445 72.7312 51.4919 72.8882 49.9026 72.8882C48.3592 72.8882 46.8538 72.7313 45.401 72.4468L50.098 50.0966L37.375 69.1808C34.7842 67.4888 32.5702 65.2905 30.8684 62.706L49.7513 50.3232L27.5836 54.7302C27.2811 53.2343 27.1171 51.683 27.1171 50.0899C27.1171 48.5491 27.2741 47.0441 27.5584 45.5883L27.5584 45.587ZM71.7992 64.3756L79.1506 69.2745C76.439 73.1481 73.1492 76.436 69.0818 79.1477L64.3217 71.8149C67.2948 69.8675 69.837 67.3323 71.7992 64.3756ZM28.1952 64.4558C30.1368 67.3954 32.6599 69.9036 35.6034 71.839L30.7297 79.1459C26.856 76.6311 23.3743 73.1434 20.8564 69.2664L28.1952 64.4558ZM55.1671 75.5901C55.1691 75.5897 55.1708 75.5905 55.1744 75.5901L56.8829 84.1835C52.4282 85.1552 47.5851 85.1552 42.9367 84.1835L44.7399 75.5963C46.4081 75.9287 48.134 76.1136 49.9035 76.1136C51.7058 76.1136 53.4655 75.9346 55.168 75.5901H55.1671Z" fill="#482764"/>
</svg>
