<svg width="80" height="80" viewBox="0 0 80 80" fill="none" xmlns="http://www.w3.org/2000/svg">
<path d="M0 10.2774C0 4.7545 4.47715 0.277344 10 0.277344H70C75.5229 0.277344 80 4.7545 80 10.2773V69.9996C80 75.5224 75.5229 79.9996 70 79.9996H10C4.47715 79.9996 0 75.5224 0 69.9996V10.2774Z" fill="url(#paint0_radial_98_185)"/>
<path d="M39.957 21.6006C29.8002 21.6006 21.6016 29.8862 21.6016 40.0429C21.6016 50.1997 29.8002 58.3983 39.957 58.3983C50.1137 58.3983 58.3994 50.2012 58.3994 40.0429C58.3994 29.8862 50.1137 21.6006 39.957 21.6006ZM39.957 23.9845C41.0261 24.0064 42.0955 24.1425 43.1646 24.3644L42.3525 28.2276C41.5779 28.0696 40.7755 27.9867 39.9541 27.9867C39.1241 27.9867 38.3135 28.0725 37.5324 28.2333L36.7494 24.2746C37.8185 24.0511 38.8878 23.962 39.957 23.9845ZM48.7765 26.5919C50.6475 27.8406 52.1614 29.3525 53.3211 31.2236L49.9627 33.4189C49.0641 32.053 47.9042 30.8759 46.5433 29.9736L48.7765 26.5919V26.5919ZM31.1345 26.6793L33.33 30.0029C31.9838 30.9061 30.8346 32.0756 29.9484 33.4367L26.5928 31.2238C27.751 29.3529 29.3526 27.8404 31.1345 26.6793ZM39.9541 29.472C40.6702 29.472 41.3687 29.5442 42.0451 29.6809L39.8874 39.939L39.9569 40.0432L39.8786 39.9911L39.8669 40.0432L39.8517 39.9742L31.1772 34.2492C31.952 33.0534 32.9609 32.0274 34.1413 31.2359L39.8286 39.8495L37.8187 29.6901C38.5069 29.5489 39.2209 29.4727 39.9533 29.4727L39.9541 29.472ZM45.7342 31.2006C46.9359 31.9876 47.9696 33.0068 48.7649 34.2024L39.957 39.9564L50.2991 37.8537C50.4482 38.5596 50.5282 39.2905 50.5282 40.0405C50.5282 40.7587 50.4561 41.4586 50.3194 42.1344L40.0846 39.9824L48.7997 45.7944C48.01 46.9894 46.9848 48.0108 45.7835 48.796L40.0585 39.9767L39.957 39.9564L45.7342 31.2008V31.2006ZM55.7254 36.7488C56.0818 38.8856 56.081 41.1128 55.6355 43.2511L51.7695 42.4388C51.9278 41.6645 52.0131 40.8625 52.0131 40.0405C52.0131 39.9419 51.9934 39.8442 51.9552 39.7533C51.9365 39.0064 51.8426 38.2778 51.6941 37.5696L55.7254 36.7488H55.7254ZM24.2756 36.8362L28.2227 37.6658C28.07 38.4345 27.9878 39.2281 27.9878 40.0409C27.9878 40.8724 28.069 41.683 28.2285 42.4657L24.2756 43.2515C23.8301 41.1147 23.8301 38.9745 24.2756 36.8362ZM29.6757 37.9702L39.9193 40.125L40.044 40.0444L42.0886 50.317C41.3993 50.4565 40.6851 50.5287 39.954 50.5287C39.2441 50.5287 38.5516 50.4566 37.8833 50.3257L40.044 40.0446L34.1913 48.8233C32.9996 48.045 31.9811 47.0338 31.1983 45.8449L39.8844 40.1488L29.6873 42.176C29.5482 41.4879 29.4727 40.7743 29.4727 40.0415C29.4727 39.3327 29.545 38.6404 29.6757 37.9708L29.6757 37.9702ZM50.0265 46.6129L53.4081 48.8664C52.1608 50.6483 50.6475 52.1607 48.7765 53.4081L46.5868 50.035C47.9544 49.1392 49.1239 47.973 50.0265 46.6129V46.6129ZM29.9687 46.6498C30.8618 48.002 32.0224 49.1558 33.3764 50.0461L31.1345 53.4072C29.3526 52.2505 27.751 50.6461 26.5928 48.8627L29.9687 46.6498V46.6498ZM42.3757 51.7716C42.3767 51.7714 42.3774 51.7717 42.3791 51.7716L43.165 55.7245C41.1158 56.1715 38.888 56.1715 36.7497 55.7245L37.5792 51.7744C38.3466 51.9274 39.1405 52.0124 39.9545 52.0124C40.7836 52.0124 41.593 51.93 42.3762 51.7716H42.3757Z" fill="white"/>
<defs>
<radialGradient id="paint0_radial_98_185" cx="0" cy="0" r="1" gradientUnits="userSpaceOnUse" gradientTransform="translate(40 40.1385) rotate(90) scale(39.8611 40)">
<stop stop-color="#772C8B"/>
<stop offset="1" stop-color="#482764"/>
</radialGradient>
</defs>
</svg>
