<svg width="40" height="40" viewBox="0 0 40 40" fill="none" xmlns="http://www.w3.org/2000/svg">
<path d="M20 40C31.0457 40 40 31.0457 40 20C40 8.95431 31.0457 0 20 0C8.95431 0 0 8.95431 0 20C0 31.0457 8.95431 40 20 40Z" fill="#0A4586"/>
<path d="M20 35.2686C28.4326 35.2686 35.2686 28.4326 35.2686 20C35.2686 11.5674 28.4326 4.73145 20 4.73145C11.5674 4.73145 4.73145 11.5674 4.73145 20C4.73145 28.4326 11.5674 35.2686 20 35.2686Z" fill="#DAE6F2"/>
<path d="M20.0001 33.6114C27.5175 33.6114 33.6115 27.5173 33.6115 19.9999C33.6115 12.4825 27.5175 6.38843 20.0001 6.38843C12.4827 6.38843 6.38867 12.4825 6.38867 19.9999C6.38867 27.5173 12.4827 33.6114 20.0001 33.6114Z" fill="white"/>
<path d="M19.9994 30.1771C25.6201 30.1771 30.1766 25.6206 30.1766 19.9999C30.1766 14.3792 25.6201 9.82275 19.9994 9.82275C14.3788 9.82275 9.82227 14.3792 9.82227 19.9999C9.82227 25.6206 14.3788 30.1771 19.9994 30.1771Z" fill="#DAE6F2"/>
<path d="M19.9999 35.1714C16.495 35.1715 13.0986 33.9562 10.3893 31.7327C7.68 29.5093 5.82552 26.4151 5.14188 22.9776C4.45825 19.54 4.98772 15.9717 6.64014 12.8808C8.29255 9.78985 10.9657 7.3676 14.2039 6.02669C17.4421 4.68577 21.0451 4.50921 24.3989 5.5271C27.7527 6.54499 30.6498 8.69431 32.5965 11.6089C34.5432 14.5234 35.419 18.0228 35.0748 21.5108C34.7305 24.9987 33.1874 28.2593 30.7085 30.7371C29.3052 32.1472 27.6362 33.2651 25.7981 34.0263C23.9601 34.7874 21.9894 35.1766 19.9999 35.1714ZM19.9999 37.0685C23.3715 37.0697 26.6677 36.0709 29.4716 34.1986C32.2755 32.3262 34.4611 29.6644 35.7522 26.5498C37.0432 23.4352 37.3816 20.0077 36.7245 16.7008C36.0675 13.3939 34.4445 10.3562 32.0608 7.97172C29.6772 5.58726 26.6399 3.96318 23.3332 3.30501C20.0265 2.64683 16.5989 2.98405 13.4839 4.27404C10.3689 5.56402 7.70634 7.7488 5.83308 10.5521C3.95982 13.3554 2.95996 16.6512 2.95996 20.0228C2.95996 24.5426 4.75502 28.8773 7.95047 32.0738C11.1459 35.2704 15.4801 37.067 19.9999 37.0685Z" fill="#FF4019"/>
<path d="M19.9996 37.0458H20.6567C21.6173 37.0111 22.5731 36.8944 23.5139 36.6972L23.0282 34.3773C22.0286 34.5878 21.0097 34.693 19.9881 34.6914V37.063L19.9996 37.0458ZM26.8967 35.5886C27.9812 35.1108 29.0118 34.5189 29.971 33.8229L28.5825 31.9029C27.7573 32.5026 26.8704 33.0121 25.9367 33.4229L26.8967 35.5886ZM32.611 31.4629H32.6453L32.6853 31.4229L32.7824 31.3086C33.4215 30.5612 33.995 29.7602 34.4967 28.9144L32.451 27.72C31.935 28.5989 31.3299 29.4223 30.6453 30.1772L32.3938 31.7715L32.611 31.4629ZM36.1768 25.3773C36.3139 24.9658 36.4338 24.5429 36.5424 24.1143V24.0744V24.0344V23.9886H36.5882V23.943V23.9087H36.6224V23.8743L34.2681 23.6115C34.1545 24.6237 33.9362 25.6214 33.6167 26.5886L35.8624 27.3315L36.1768 25.3773ZM34.6053 18.5943L36.9653 18.3715C36.8519 17.1922 36.6164 16.0278 36.2624 14.8972L33.9767 15.6058C34.2719 16.5791 34.4635 17.5808 34.5481 18.5943H34.6053ZM32.7939 12.8116L34.8567 11.6687C34.5492 11.1246 34.2115 10.598 33.8453 10.0916H33.7139H33.6453H33.5825H33.5139H33.4625H33.4167H33.1424H33.1025H33.0682L31.291 11.6515C31.9652 12.4179 32.557 13.2529 33.0567 14.1429L32.7939 12.8116ZM28.7939 8.24013L30.2167 6.34295H30.1768C29.851 6.10295 29.5139 5.86868 29.1768 5.65154H29.1424H29.1025L29.0624 5.62294H29.0167H28.9596H28.8281H28.4681H28.1824H28.131H28.091C27.851 5.49723 27.6053 5.37715 27.3539 5.25715L26.3596 7.40573C27.2835 7.83626 28.1605 8.36094 28.9767 8.97144L28.7939 8.24013ZM23.291 5.69144L23.8168 3.40573C23.3038 3.28605 22.7849 3.1926 22.2624 3.12573H21.9767C21.4053 3.06288 20.8682 3.0229 20.3025 3.01147L20.2624 5.38299C21.282 5.39834 22.2971 5.52086 23.291 5.74864V5.69144ZM14.3025 6.47437C15.2399 6.07705 16.2167 5.78013 17.2167 5.58862L16.771 3.26287H16.6739H16.4967C15.8713 3.39822 15.2533 3.56614 14.6453 3.7658H14.5767H14.3938H14.331C14.0167 3.87437 13.7081 3.9943 13.4053 4.12001L14.331 6.30291L14.3025 6.47437ZM9.31962 9.94298C10.011 9.20148 10.777 8.53319 11.6053 7.9487L10.2853 6.02863L10.131 6.14289H10.0853H10.0396H9.71387H9.2853H9.14244H7.82241H7.78244L7.75384 6.17721L9.46812 7.7944L9.31962 9.94298ZM6.1596 15.1315C6.49871 14.1685 6.93722 13.2436 7.46812 12.3715L5.44531 11.1429C4.84704 12.1378 4.35112 13.1908 3.96526 14.2857L6.19385 15.0744L6.1596 15.1315ZM3.02246 21.3372L5.38246 21.1543C5.35389 20.7715 5.3367 20.3829 5.3367 20.0115C5.33646 19.3772 5.37659 18.7435 5.45675 18.1143L3.10812 17.8116V17.84C3.03955 18.4114 2.99385 18.9829 2.98242 19.5943C2.98242 19.9029 2.98246 20.2115 3.01674 20.5144C3.01674 20.5487 3.01674 20.5829 3.01674 20.6229L3.02246 21.3372ZM5.01674 28.0973L7.09675 26.9544C6.62101 26.0567 6.23808 25.1126 5.95389 24.1372L3.66818 24.8058L3.78816 25.1944V25.2401V25.2686C4.08906 26.1885 4.47153 27.0797 4.93101 27.9315L5.01674 28.0973ZM9.58817 33.4744L11.0396 31.6001C10.2323 30.9766 9.49305 30.2698 8.83385 29.4915L7.02818 31.0229H7.07387H7.11384H7.15388H7.20529H7.24533V31.0572L7.2853 31.0973L7.34814 31.1658C7.88678 31.7136 8.45934 32.227 9.06243 32.7029L9.58817 33.4744ZM15.931 36.5429L16.5024 34.2572C15.5166 34.0129 14.559 33.6664 13.6453 33.223L12.611 35.3544C13.0738 35.5772 13.5482 35.7771 14.0282 35.96H14.091H14.1596H15.0567H15.1253C15.3653 36.0343 15.6167 36.0972 15.8624 36.1601L15.931 36.5429ZM20.0225 37.0401V34.6687H19.5253L19.4453 37.0344H20.0167L20.0225 37.0401Z" fill="white"/>
<path d="M20.3261 32.1943L19.6633 32.1256C19.6633 28.8513 19.6633 25.2686 19.6633 21.24V20.6686L19.2518 21.0743C16.7432 23.5486 14.109 25.9371 11.0633 28.5885L10.7033 28.24C13.7547 25.5657 16.349 23.1656 18.8576 20.6913L19.2747 20.2799H18.7033H13.5604H7.70898V19.7085C9.64041 19.7085 11.6118 19.7085 13.5661 19.7085H18.709H19.2804L18.8633 19.2971C16.3547 16.8228 13.7604 14.4228 10.709 11.7485L11.069 11.3942C14.1433 14.0456 16.749 16.44 19.2575 18.9143L19.669 19.3142V18.7428C19.669 14.6971 19.669 11.1314 19.669 7.85135L20.3318 7.78857C20.2575 11.3543 20.2176 15.0285 20.2118 18.7199V19.2914L20.6233 18.8742C23.149 16.3142 25.7661 13.5028 28.8747 10.0285L29.2176 10.3714C26.1319 13.88 23.5033 16.7142 21.0061 19.2685L20.6004 19.6799H21.1719C24.8519 19.6799 28.4976 19.6228 32.029 19.5771V20.3486C28.509 20.2971 24.8633 20.2627 21.1719 20.2456H20.6004L21.0061 20.6629C23.5204 23.2172 26.149 26.0456 29.2176 29.5542L28.8747 29.9028C25.7719 26.4285 23.1604 23.6171 20.6233 21.0571L20.2118 20.6343V21.2057C20.2118 24.9543 20.2518 28.6286 20.3261 32.1943Z" fill="white"/>
<g style="mix-blend-mode:multiply" opacity="0.2">
<path d="M13.9941 19.3772C14.1077 19.4101 14.2286 19.4086 14.3414 19.373C14.4543 19.3374 14.5541 19.2693 14.6283 19.1771L17.8455 20.2401C17.7802 20.764 17.8835 21.2951 18.1404 21.7564C18.3973 22.2177 18.7943 22.5853 19.2741 22.8058L18.4855 26.1028C18.3562 26.1224 18.2376 26.1859 18.1495 26.2825C18.0613 26.379 18.0089 26.5028 18.001 26.6333C17.9931 26.7638 18.0302 26.8931 18.1062 26.9995C18.1821 27.106 18.2921 27.1832 18.4181 27.2183C18.544 27.2534 18.6782 27.2441 18.7982 27.1922C18.9182 27.1403 19.0168 27.0489 19.0775 26.9331C19.1382 26.8173 19.1573 26.6843 19.1318 26.5561C19.1062 26.4278 19.0374 26.3123 18.9369 26.2286L19.9998 23.0114C20.5238 23.0776 21.0553 22.9747 21.5168 22.7177C21.9783 22.4608 22.3457 22.0632 22.5655 21.5828L25.8626 22.3715C25.8782 22.4885 25.9275 22.5984 26.0047 22.6877C26.0818 22.7771 26.1834 22.8419 26.2969 22.8743C26.3944 22.8927 26.4949 22.8855 26.5887 22.8533C26.6825 22.8212 26.7663 22.7652 26.8319 22.6908C26.8975 22.6164 26.9426 22.5262 26.9628 22.4291C26.983 22.332 26.9776 22.2313 26.947 22.137C26.9165 22.0426 26.862 21.9579 26.7888 21.891C26.7156 21.8241 26.6262 21.7774 26.5295 21.7555C26.4328 21.7337 26.332 21.7373 26.2372 21.7662C26.1423 21.795 26.0565 21.848 25.9883 21.92L22.7712 20.8571C22.8373 20.3331 22.7345 19.8016 22.4775 19.3401C22.2206 18.8786 21.8229 18.5112 21.3426 18.2914L22.1312 14.9942C22.2605 14.9746 22.3791 14.9112 22.4673 14.8147C22.5554 14.7182 22.6078 14.5943 22.6157 14.4638C22.6236 14.3333 22.5865 14.2041 22.5106 14.0976C22.4347 13.9912 22.3245 13.9139 22.1986 13.8789C22.0726 13.8438 21.9385 13.8529 21.8185 13.9048C21.6985 13.9567 21.5999 14.0482 21.5392 14.164C21.4785 14.2798 21.4593 14.4129 21.4849 14.5411C21.5105 14.6693 21.5792 14.7849 21.6797 14.8686L20.6169 18.0858C20.0929 18.0205 19.5619 18.1237 19.1006 18.3805C18.6393 18.6374 18.2717 19.0346 18.0512 19.5143L14.754 18.7257C14.7435 18.6078 14.6966 18.4962 14.6198 18.4061C14.5431 18.316 14.4402 18.252 14.3255 18.2229C14.2473 18.1887 14.1627 18.1715 14.0773 18.1727C13.992 18.1738 13.9079 18.1932 13.8306 18.2295C13.7534 18.2657 13.6848 18.3179 13.6293 18.3828C13.5739 18.4476 13.5328 18.5236 13.5091 18.6056C13.4853 18.6875 13.4793 18.7736 13.4915 18.8581C13.5036 18.9426 13.5336 19.0234 13.5795 19.0954C13.6254 19.1673 13.6862 19.2287 13.7577 19.2754C13.8291 19.322 13.9097 19.3528 13.9941 19.3658V19.3772Z" fill="black"/>
</g>
<path d="M13.4969 18.88C13.6111 18.9115 13.7321 18.9089 13.8449 18.8723C13.9576 18.8358 14.0572 18.7668 14.1312 18.6742L17.3483 19.7372C17.2822 20.2612 17.3851 20.7927 17.642 21.2542C17.899 21.7157 18.2966 22.0831 18.7769 22.3029L17.9883 25.6C17.8807 25.6135 17.7788 25.6558 17.6934 25.7225C17.608 25.7892 17.5423 25.878 17.5032 25.9791C17.4641 26.0802 17.4531 26.19 17.4714 26.2969C17.4898 26.4037 17.5367 26.5035 17.6072 26.5858C17.6778 26.6681 17.7693 26.7298 17.8721 26.7642C17.9749 26.7987 18.0851 26.8047 18.191 26.7815C18.2969 26.7584 18.3945 26.7069 18.4735 26.6327C18.5525 26.5584 18.61 26.4643 18.6397 26.3601C18.6762 26.2461 18.6759 26.1236 18.639 26.0098C18.6021 25.896 18.5304 25.7966 18.434 25.7257L19.5026 22.5086C20.0266 22.5739 20.5577 22.4706 21.019 22.2137C21.4803 21.9569 21.8478 21.5598 22.0683 21.0801L25.3598 21.8686C25.3741 22.0084 25.437 22.1387 25.5376 22.2369C25.6382 22.335 25.7701 22.3948 25.9102 22.4057C26.0503 22.4166 26.1898 22.3779 26.3043 22.2964C26.4188 22.215 26.5011 22.0959 26.5369 21.96C26.5629 21.8843 26.5728 21.8039 26.5659 21.7242C26.5589 21.6444 26.5353 21.5671 26.4965 21.4971C26.4578 21.427 26.4046 21.3659 26.3407 21.3177C26.2768 21.2694 26.2034 21.2353 26.1254 21.2172C26.0115 21.1808 25.889 21.181 25.7752 21.2179C25.6614 21.2548 25.5621 21.3265 25.4912 21.4228L22.274 20.3543C22.3388 19.8297 22.2347 19.2982 21.9768 18.8368C21.7189 18.3754 21.3205 18.0082 20.8397 17.7886L21.6283 14.4972C21.7681 14.4829 21.8985 14.4199 21.9966 14.3193C22.0948 14.2187 22.1545 14.0868 22.1653 13.9467C22.1762 13.8066 22.1376 13.6671 22.0562 13.5526C21.9747 13.4381 21.8557 13.3558 21.7198 13.32C21.6511 13.2848 21.5761 13.2634 21.4992 13.2571C21.4223 13.2508 21.3449 13.2596 21.2714 13.2832C21.1979 13.3068 21.1298 13.3447 21.0709 13.3947C21.012 13.4446 20.9636 13.5057 20.9283 13.5744C20.8931 13.643 20.8716 13.7178 20.8653 13.7948C20.859 13.8717 20.8679 13.9492 20.8916 14.0227C20.9152 14.0962 20.953 14.1643 21.003 14.2232C21.0529 14.2821 21.1139 14.3305 21.1826 14.3658L20.1197 17.5829C19.5949 17.5162 19.0626 17.6196 18.6008 17.8778C18.1391 18.1359 17.7722 18.5352 17.554 19.0172L14.2569 18.2286C14.2434 18.1211 14.2011 18.0192 14.1344 17.9337C14.0676 17.8483 13.979 17.7825 13.8779 17.7434C13.7768 17.7043 13.6669 17.6933 13.5601 17.7116C13.4532 17.73 13.3533 17.777 13.271 17.8475C13.1887 17.9181 13.1271 18.0095 13.0927 18.1123C13.0582 18.2151 13.0522 18.3253 13.0754 18.4312C13.0985 18.5371 13.15 18.6348 13.2242 18.7139C13.2984 18.7929 13.3926 18.8503 13.4969 18.88Z" fill="#FF4019"/>
<path d="M19.8114 21.2457C20.4741 21.2457 21.0114 20.7085 21.0114 20.0458C21.0114 19.383 20.4741 18.8457 19.8114 18.8457C19.1486 18.8457 18.6113 19.383 18.6113 20.0458C18.6113 20.7085 19.1486 21.2457 19.8114 21.2457Z" fill="#0A4586"/>
<path d="M20.2975 21.8001C20.7299 21.8001 21.0804 21.4495 21.0804 21.0172C21.0804 20.5848 20.7299 20.2344 20.2975 20.2344C19.8651 20.2344 19.5146 20.5848 19.5146 21.0172C19.5146 21.4495 19.8651 21.8001 20.2975 21.8001Z" fill="white"/>
<g style="mix-blend-mode:multiply" opacity="0.2">
<path d="M29.4568 33.2742C29.9712 33.2742 30.3883 32.8573 30.3883 32.3429C30.3883 31.8285 29.9712 31.4114 29.4568 31.4114C28.9424 31.4114 28.5254 31.8285 28.5254 32.3429C28.5254 32.8573 28.9424 33.2742 29.4568 33.2742Z" fill="#328FD9"/>
</g>
<path d="M29.0457 33.2742C29.5601 33.2742 29.9771 32.8573 29.9771 32.3429C29.9771 31.8285 29.5601 31.4114 29.0457 31.4114C28.5313 31.4114 28.1143 31.8285 28.1143 32.3429C28.1143 32.8573 28.5313 33.2742 29.0457 33.2742Z" fill="#0A4586"/>
<path opacity="0.2" d="M28.737 32.8572C29.021 32.8572 29.2512 32.627 29.2512 32.343C29.2512 32.059 29.021 31.8286 28.737 31.8286C28.4529 31.8286 28.2227 32.059 28.2227 32.343C28.2227 32.627 28.4529 32.8572 28.737 32.8572Z" fill="white"/>
<path d="M19.5139 19.2001C19.6591 19.2001 19.7767 19.0825 19.7767 18.9373C19.7767 18.7921 19.6591 18.6743 19.5139 18.6743C19.3687 18.6743 19.251 18.7921 19.251 18.9373C19.251 19.0825 19.3687 19.2001 19.5139 19.2001Z" fill="white"/>
<path d="M20.3594 7.4458H19.8223L19.5537 7.90869L19.8223 8.3773H20.3594L20.628 7.90869L20.3594 7.4458Z" fill="#328FD9"/>
<path d="M20.3594 31.2971H19.8223L19.5537 31.76L19.8223 32.2229H20.3594L20.628 31.76L20.3594 31.2971Z" fill="#328FD9"/>
<path d="M32.4794 20.1028V19.5657L32.0166 19.2971L31.5537 19.5657V20.1028L32.0166 20.3715L32.4794 20.1028Z" fill="#328FD9"/>
<path d="M8.63456 20.1028V19.5657L8.16602 19.2971L7.70312 19.5657V20.1028L8.16602 20.3715L8.63456 20.1028Z" fill="#328FD9"/>
<path d="M28.663 28.7886L29.0458 28.4056L28.903 27.8914L28.383 27.7485L28.0059 28.1313L28.143 28.6457L28.663 28.7886Z" fill="#328FD9"/>
<path d="M11.7997 11.9201L12.1769 11.5428L12.0397 11.0229L11.5197 10.8857L11.1426 11.2628L11.2797 11.7829L11.7997 11.9201Z" fill="#328FD9"/>
<path d="M11.1426 28.4056L11.5197 28.7886L12.0397 28.6457L12.1769 28.1313L11.7997 27.7485L11.2797 27.8914L11.1426 28.4056Z" fill="#328FD9"/>
<path d="M28.0059 11.5428L28.383 11.9201L28.903 11.7829L29.0458 11.2628L28.663 10.8857L28.143 11.0229L28.0059 11.5428Z" fill="#328FD9"/>
</svg>
