<svg width="62" height="62" viewBox="0 0 62 62" fill="none" xmlns="http://www.w3.org/2000/svg">
<g filter="url(#filter0_d_387_25520)">
<rect x="4" width="54" height="54" rx="27" fill="#0D4EE3" shape-rendering="crispEdges"/>
<path d="M18.3023 14.9043C18.1349 14.9043 17.9801 14.9937 17.8964 15.1387L17.1537 16.425C17.0243 16.6492 17.1011 16.9359 17.3253 17.0653C17.3991 17.1079 17.4797 17.1282 17.5592 17.1282C17.7212 17.1282 17.8788 17.044 17.9656 16.8937L18.3023 16.3105L18.639 16.8937C18.7684 17.118 19.0551 17.1947 19.2793 17.0653C19.5035 16.9359 19.5803 16.6492 19.4509 16.425L18.7083 15.1387C18.6246 14.9936 18.4698 14.9043 18.3023 14.9043Z" fill="white"/>
<path d="M24.4319 17.3008C24.3481 17.1558 24.1934 17.0664 24.026 17.0664C23.8585 17.0664 23.7038 17.1558 23.62 17.3008L22.8773 18.5871C22.7479 18.8113 22.8247 19.098 23.0489 19.2274C23.2731 19.3568 23.5598 19.28 23.6892 19.0558L24.026 18.4727L24.3627 19.0558C24.4495 19.2062 24.6071 19.2903 24.7691 19.2903C24.8486 19.2903 24.9292 19.27 25.003 19.2274C25.2272 19.098 25.304 18.8113 25.1746 18.5871L24.4319 17.3008Z" fill="white"/>
<path d="M29.783 23.054L30.1197 22.4707L30.4564 23.054C30.5858 23.2781 30.8725 23.355 31.0967 23.2255C31.3209 23.0961 31.3977 22.8094 31.2683 22.5852L30.5256 21.2988C30.442 21.1538 30.2871 21.0645 30.1197 21.0645C29.9523 21.0645 29.7975 21.1538 29.7138 21.2988L28.9711 22.5852C28.8416 22.8094 28.9185 23.0961 29.1426 23.2255C29.2165 23.2681 29.2971 23.2884 29.3766 23.2884C29.5385 23.2884 29.6961 23.2043 29.783 23.054Z" fill="white"/>
<path d="M36.2712 26.0656L36.608 25.4824L36.9447 26.0656C37.0741 26.2898 37.3608 26.3667 37.585 26.2372C37.8092 26.1077 37.886 25.821 37.7565 25.5969L37.0139 24.3105C36.9302 24.1655 36.7754 24.0762 36.608 24.0762C36.4405 24.0762 36.2858 24.1655 36.202 24.3105L35.4594 25.5969C35.3299 25.821 35.4067 26.1077 35.6309 26.2372C35.7047 26.2798 35.7854 26.3 35.8649 26.3C36.0269 26.3 36.1844 26.216 36.2712 26.0656Z" fill="white"/>
<path d="M44.6748 36.9321C44.4506 36.8026 44.164 36.8794 44.0345 37.1036L43.6978 37.6869L43.3611 37.1036C43.2316 36.8794 42.945 36.8026 42.7208 36.9321C42.4966 37.0615 42.4198 37.3482 42.5492 37.5724L43.2919 38.8587C43.3756 39.0037 43.5304 39.0931 43.6978 39.0931C43.8653 39.0931 44.0201 39.0037 44.1038 38.8587L44.8464 37.5724C44.9758 37.3482 44.899 37.0615 44.6748 36.9321Z" fill="white"/>
<path d="M44.5842 31.2411C44.5585 29.8387 43.3961 28.6896 41.9931 28.6798C41.9869 28.6797 41.9809 28.6797 41.9748 28.6797C41.2909 28.6797 40.6365 28.9506 40.1527 29.4213C39.6647 28.9466 39.0012 28.6754 38.3131 28.6798C36.8994 28.6893 35.7366 29.8469 35.7209 31.2604C35.7109 32.1634 36.1571 32.9926 36.9156 33.4827C37.372 33.8314 38.8293 34.9743 39.4918 35.8423C39.6512 36.0511 39.8931 36.1709 40.1555 36.1709C40.4174 36.1709 40.6589 36.0514 40.8181 35.8429C41.4896 34.9626 42.9671 33.8082 43.424 33.4604C44.1672 32.9634 44.6006 32.1351 44.5842 31.2411ZM42.894 32.6871C42.8853 32.6928 42.8769 32.6988 42.8686 32.7051C42.2924 33.1429 40.907 34.2359 40.1551 35.1691C39.411 34.2458 38.0394 33.1606 37.4688 32.7257C37.4582 32.7176 37.4472 32.7099 37.436 32.7028C36.9426 32.3894 36.6519 31.8541 36.6583 31.2709C36.6684 30.3651 37.4136 29.6233 38.3194 29.6173C38.3232 29.6172 38.3269 29.6172 38.3306 29.6172C38.8639 29.6172 39.3691 29.8743 39.684 30.3067C39.7928 30.4561 39.968 30.5452 40.1526 30.5452C40.3372 30.5452 40.5124 30.456 40.6213 30.3066C40.9384 29.8712 41.4479 29.6123 41.9864 29.6173C42.8855 29.6236 43.6303 30.3598 43.6468 31.2584C43.6574 31.8349 43.376 32.369 42.894 32.6871Z" fill="white"/>
<path d="M45.2004 21.5687H40.5125V19.9521C40.5125 19.1829 39.8867 18.5571 39.1175 18.5571H34.418V16.3587C34.418 15.3664 33.6107 14.5591 32.6184 14.5591H28.6947V13.7915C28.6947 13.0222 28.0689 12.3965 27.2998 12.3965H20.7797C20.5209 12.3965 20.311 12.6064 20.311 12.8652C20.311 13.1241 20.5209 13.334 20.7797 13.334H27.2997C27.552 13.334 27.7572 13.5392 27.7572 13.7915V14.5591H22.5229C21.5306 14.5591 20.7232 15.3664 20.7232 16.3587V18.3999C20.6614 18.4454 20.6059 18.499 20.5584 18.561C19.921 19.3962 18.5182 20.4924 18.0834 20.8233C17.3919 21.2861 16.9759 22.0565 16.9694 22.8877C16.9642 23.5612 17.2243 24.1973 17.702 24.6787C18.1727 25.1532 18.7953 25.4145 19.4548 25.4145C19.7921 25.4145 20.2188 25.3369 20.7232 25.1857V31.4924H16.395C16.1427 31.4924 15.9375 31.2871 15.9375 31.0349V13.7915C15.9375 13.5392 16.1428 13.334 16.395 13.334H18.8234C19.0823 13.334 19.2921 13.1241 19.2921 12.8652C19.2921 12.6064 19.0823 12.3965 18.8234 12.3965H16.395C15.6258 12.3965 15 13.0222 15 13.7915V31.0347C15 31.804 15.6258 32.4297 16.395 32.4297H20.7232V32.7927C20.7232 33.785 21.5306 34.5924 22.5229 34.5924H26.8177V37.1954C26.8177 37.9646 27.4436 38.5904 28.2128 38.5904H33.3053V39.8023C33.3053 40.7946 34.1126 41.6019 35.1049 41.6019H45.2003C46.1926 41.6019 46.9999 40.7946 46.9999 39.8023V23.3684C47 22.376 46.1926 21.5687 45.2004 21.5687ZM20.5813 24.2488C20.1193 24.3959 19.7193 24.4769 19.4549 24.4769C19.0471 24.4769 18.6609 24.314 18.3675 24.0184C18.0672 23.7157 17.9036 23.3167 17.9069 22.895C17.9109 22.3714 18.1751 21.886 18.6135 21.5967C18.6222 21.5909 18.6306 21.5849 18.6389 21.5787C19.076 21.2465 20.0019 20.5185 20.7232 19.7862V24.2268C20.6762 24.2268 20.6284 24.2338 20.5813 24.2488ZM26.8177 27.2497C26.3114 26.4634 25.5983 25.4591 24.7414 24.5289C25.2319 24.0725 26.051 23.2286 26.8177 22.0647V27.2497ZM28.2128 37.6529C27.9604 37.6529 27.7552 37.4477 27.7552 37.1954V19.9521C27.7552 19.6998 27.9605 19.4946 28.2128 19.4946H30.6411C30.9 19.4946 31.1099 19.2847 31.1099 19.0259C31.1099 18.767 30.9 18.5571 30.6411 18.5571H28.2128C27.4435 18.5571 26.8177 19.1829 26.8177 19.9521V20.3057C26.7539 20.3484 26.6997 20.4071 26.662 20.4801C25.6832 22.3754 24.3097 23.6652 23.912 24.0154C23.7772 24.134 23.6955 24.305 23.6878 24.4845C23.6801 24.6641 23.747 24.8416 23.8713 24.9716C25.2652 26.4285 26.2955 28.1503 26.6737 28.823C26.7102 28.8879 26.7603 28.9398 26.8177 28.9792V33.6549H22.5229C22.0475 33.6549 21.6607 33.2681 21.6607 32.7927V16.3587C21.6607 15.8834 22.0475 15.4966 22.5229 15.4966H32.6183C33.0937 15.4966 33.4804 15.8834 33.4804 16.3587V18.5571H32.5975C32.3386 18.5571 32.1287 18.767 32.1287 19.0259C32.1287 19.2847 32.3386 19.4946 32.5975 19.4946H39.1174C39.3697 19.4946 39.5749 19.6999 39.5749 19.9521V21.5687H35.1048C34.1125 21.5687 33.3052 22.376 33.3052 23.3683V24.4876C32.0928 24.6627 31.158 25.7082 31.158 26.9684C31.158 27.0219 31.1597 27.0753 31.1631 27.1285C30.1138 27.4605 29.3923 28.4456 29.4253 29.5902C29.4639 30.9316 30.5681 32.023 31.8866 32.023C32.3333 32.023 32.889 31.9257 33.3052 31.8364V37.6529H28.2128V37.6529ZM32.1482 27.3722C32.1133 27.2405 32.0956 27.1047 32.0956 26.9685C32.0956 26.2269 32.6128 25.6042 33.3053 25.4411V30.876C32.9968 30.9471 32.3379 31.0856 31.8867 31.0856C31.0704 31.0856 30.3866 30.4027 30.3624 29.5633C30.3392 28.7556 30.9481 28.0505 31.7489 27.958C31.8841 27.9424 32.0058 27.8689 32.0824 27.7564C32.1591 27.6439 32.1831 27.5037 32.1482 27.3722ZM46.0625 39.8023C46.0625 40.2777 45.6757 40.6644 45.2004 40.6644H35.1049C34.6295 40.6644 34.2428 40.2777 34.2428 39.8023V23.3684C34.2428 22.893 34.6295 22.5062 35.1049 22.5062H45.2003C45.6757 22.5062 46.0624 22.893 46.0624 23.3684V39.8023H46.0625Z" fill="white"/>
</g>
<defs>
<filter id="filter0_d_387_25520" x="0" y="0" width="62" height="62" filterUnits="userSpaceOnUse" color-interpolation-filters="sRGB">
<feFlood flood-opacity="0" result="BackgroundImageFix"/>
<feColorMatrix in="SourceAlpha" type="matrix" values="0 0 0 0 0 0 0 0 0 0 0 0 0 0 0 0 0 0 127 0" result="hardAlpha"/>
<feOffset dy="4"/>
<feGaussianBlur stdDeviation="2"/>
<feComposite in2="hardAlpha" operator="out"/>
<feColorMatrix type="matrix" values="0 0 0 0 0 0 0 0 0 0 0 0 0 0 0 0 0 0 0.25 0"/>
<feBlend mode="normal" in2="BackgroundImageFix" result="effect1_dropShadow_387_25520"/>
<feBlend mode="normal" in="SourceGraphic" in2="effect1_dropShadow_387_25520" result="shape"/>
</filter>
</defs>
</svg>
