<svg width="55" height="54" viewBox="0 0 55 54" fill="none" xmlns="http://www.w3.org/2000/svg">
<g clip-path="url(#clip0_461_4410)">
<path d="M38.3652 40.9218C46.0525 34.9198 47.4187 23.8225 41.4167 16.1352C35.4147 8.44785 24.3173 7.08163 16.63 13.0836C8.94273 19.0856 7.57651 30.183 13.5785 37.8703C19.5805 45.5576 30.6778 46.9238 38.3652 40.9218Z" stroke="#000066" stroke-width="1.76087" stroke-miterlimit="10" stroke-linecap="round" stroke-linejoin="round"/>
<path d="M32.1956 5.28235C32.1956 6.25339 31.4057 7.04322 30.4347 7.04322C29.4637 7.04322 28.6738 6.25339 28.6738 5.28235C28.6738 4.31132 29.4637 3.52148 30.4347 3.52148C31.4104 3.52148 32.1956 4.30667 32.1956 5.28235Z" stroke="#000066" stroke-width="1.76087" stroke-miterlimit="10" stroke-linecap="round" stroke-linejoin="round"/>
<path d="M27.5 9.3916V16.4351" stroke="#000066" stroke-width="1.76087" stroke-miterlimit="10" stroke-linecap="round" stroke-linejoin="round"/>
<path d="M32.1954 10.5653L31.0215 16.4349" stroke="#000066" stroke-width="0.586957" stroke-miterlimit="10" stroke-linecap="round" stroke-linejoin="round"/>
<path d="M36.8927 12.9131L34.5449 17.6087" stroke="#000066" stroke-width="0.586957" stroke-miterlimit="10" stroke-linecap="round" stroke-linejoin="round"/>
<path d="M41.5863 16.4347L36.8906 19.9564" stroke="#000066" stroke-width="0.586957" stroke-miterlimit="10" stroke-linecap="round" stroke-linejoin="round"/>
<path d="M17.498 30.3984C15.6243 24.8814 18.5854 18.871 24.1023 16.9972C29.6193 15.1234 35.6298 18.0845 37.5035 23.6015C39.3773 29.1185 36.4162 35.1289 30.8992 37.0027C25.3823 38.8764 19.3718 35.9153 17.498 30.3984Z" stroke="#000066" stroke-width="1.76087" stroke-miterlimit="10" stroke-linecap="round" stroke-linejoin="round"/>
<path d="M43.934 21.1309L38.0645 23.4787" stroke="#000066" stroke-width="0.586957" stroke-miterlimit="10" stroke-linecap="round" stroke-linejoin="round"/>
<path d="M45.1079 27H38.0645" stroke="#000066" stroke-width="1.76087" stroke-miterlimit="10" stroke-linecap="round" stroke-linejoin="round"/>
<path d="M43.934 31.6954L38.0645 30.5215" stroke="#000066" stroke-width="0.586957" stroke-miterlimit="10" stroke-linecap="round" stroke-linejoin="round"/>
<path d="M41.5863 36.3909L36.8906 32.8691" stroke="#000066" stroke-width="0.586957" stroke-miterlimit="10" stroke-linecap="round" stroke-linejoin="round"/>
<path d="M38.0667 41.0873L34.5449 36.3916" stroke="#000066" stroke-width="0.586957" stroke-miterlimit="10" stroke-linecap="round" stroke-linejoin="round"/>
<path d="M33.3693 43.4349L31.0215 37.5653" stroke="#000066" stroke-width="0.586957" stroke-miterlimit="10" stroke-linecap="round" stroke-linejoin="round"/>
<path d="M27.5 44.6088V37.5653" stroke="#000066" stroke-width="1.76087" stroke-miterlimit="10" stroke-linecap="round" stroke-linejoin="round"/>
<path d="M22.8047 43.4349L23.9786 37.5653" stroke="#000066" stroke-width="0.586957" stroke-miterlimit="10" stroke-linecap="round" stroke-linejoin="round"/>
<path d="M18.1094 41.0873L21.6311 36.3916" stroke="#000066" stroke-width="0.586957" stroke-miterlimit="10" stroke-linecap="round" stroke-linejoin="round"/>
<path d="M13.4141 37.5647L19.2836 34.043" stroke="#000066" stroke-width="0.586957" stroke-miterlimit="10" stroke-linecap="round" stroke-linejoin="round"/>
<path d="M11.0645 32.8693L16.934 30.5215" stroke="#000066" stroke-width="0.586957" stroke-miterlimit="10" stroke-linecap="round" stroke-linejoin="round"/>
<path d="M9.89062 28.1739L16.9341 27" stroke="#000066" stroke-width="1.76087" stroke-miterlimit="10" stroke-linecap="round" stroke-linejoin="round"/>
<path d="M11.0645 22.3047L16.934 24.6525" stroke="#000066" stroke-width="0.586957" stroke-miterlimit="10" stroke-linecap="round" stroke-linejoin="round"/>
<path d="M13.4141 17.6084L18.1097 21.1301" stroke="#000066" stroke-width="0.586957" stroke-miterlimit="10" stroke-linecap="round" stroke-linejoin="round"/>
<path d="M16.9355 12.9131L20.4573 18.7826" stroke="#000066" stroke-width="0.586957" stroke-miterlimit="10" stroke-linecap="round" stroke-linejoin="round"/>
<path d="M21.6309 10.5653L23.9787 16.4349" stroke="#000066" stroke-width="0.586957" stroke-miterlimit="10" stroke-linecap="round" stroke-linejoin="round"/>
<path d="M52.2112 34.4822C56.3436 20.8346 48.6299 6.42098 34.9822 2.2886C21.3346 -1.84378 6.92098 5.8699 2.7886 19.5176C-1.34378 33.1653 6.3699 47.5789 20.0176 51.7112C33.6653 55.8436 48.0789 48.1299 52.2112 34.4822Z" stroke="#000066" stroke-width="1.76087" stroke-miterlimit="10" stroke-linecap="round" stroke-linejoin="round"/>
<path d="M27.4997 49.3043C15.1999 49.3043 5.19531 39.2997 5.19531 27" stroke="#000066" stroke-width="1.76087" stroke-miterlimit="10" stroke-linecap="round" stroke-linejoin="round"/>
<path d="M36.8906 7.04297C44.5498 10.75 49.8037 18.3011 49.8037 26.9995" stroke="#000066" stroke-width="1.76087" stroke-miterlimit="10" stroke-linecap="round" stroke-linejoin="round"/>
<path d="M27.5 27.0004V21.1309" stroke="#CB0101" stroke-width="1.76087" stroke-miterlimit="10" stroke-linecap="round" stroke-linejoin="round"/>
<path d="M27.5 27V31.6957" stroke="#CB0101" stroke-width="1.76087" stroke-miterlimit="10" stroke-linecap="round" stroke-linejoin="round"/>
<path d="M27.5 27H32.1957" stroke="#CB0101" stroke-width="1.76087" stroke-miterlimit="10" stroke-linecap="round" stroke-linejoin="round"/>
<path d="M27.5003 27H22.8047" stroke="#CB0101" stroke-width="1.76087" stroke-miterlimit="10" stroke-linecap="round" stroke-linejoin="round"/>
<path d="M26.3262 21.1309H28.674" stroke="#CB0101" stroke-width="1.76087" stroke-miterlimit="10" stroke-linecap="round" stroke-linejoin="round"/>
<path d="M26.3262 31.6953H28.674" stroke="#CB0101" stroke-width="1.76087" stroke-miterlimit="10" stroke-linecap="round" stroke-linejoin="round"/>
<path d="M27.5 16.4347V18.7825" stroke="#000066" stroke-width="1.76087" stroke-miterlimit="10" stroke-linecap="round" stroke-linejoin="round"/>
<path d="M27.5 37.5656V35.2178" stroke="#000066" stroke-width="1.76087" stroke-miterlimit="10" stroke-linecap="round" stroke-linejoin="round"/>
<path d="M16.9355 27H19.2834" stroke="#000066" stroke-width="1.76087" stroke-miterlimit="10" stroke-linecap="round" stroke-linejoin="round"/>
<path d="M38.0666 27H35.7188" stroke="#000066" stroke-width="1.76087" stroke-miterlimit="10" stroke-linecap="round" stroke-linejoin="round"/>
</g>
<defs>
<clipPath id="clip0_461_4410">
<rect width="54" height="54" fill="white" transform="translate(0.5)"/>
</clipPath>
</defs>
</svg>
