<svg width="55" height="54" viewBox="0 0 55 54" fill="none" xmlns="http://www.w3.org/2000/svg">
<rect x="0.5" width="54" height="54" rx="27" fill="#0D4EE3"/>
<g clip-path="url(#clip0_387_25795)">
<path d="M40.8333 11H14.1667C12.6946 11.0017 11.5017 12.1946 11.5 13.6667V36.0667C11.5017 37.5387 12.6946 38.7316 14.1667 38.7333H22.1666V39.8H20.0333C18.8551 39.8 17.9 40.7551 17.9 41.9333C17.9 42.5224 18.3776 43 18.9667 43H36.0333C36.6224 43 37.1 42.5224 37.1 41.9333C37.1 40.7551 36.1449 39.8 34.9667 39.8H32.8334V38.7333H40.8333C42.3053 38.7315 43.4982 37.5387 43.4999 36.0667V13.6667C43.4982 12.1946 42.3053 11.0017 40.8333 11ZM14.1667 12.0667H40.8333C41.717 12.0667 42.4333 12.783 42.4333 13.6667V33.4H12.5667V13.6667C12.5667 12.783 13.283 12.0667 14.1667 12.0667ZM36.0333 41.9333H18.9667C18.9667 41.3442 19.4443 40.8666 20.0334 40.8666H34.9667C35.5557 40.8666 36.0333 41.3442 36.0333 41.9333ZM31.7667 39.8H23.2333V38.7333H31.7666L31.7667 39.8ZM40.8333 37.6666H14.1667C13.283 37.6666 12.5667 36.9503 12.5667 36.0667V34.4667H42.4333V36.0667C42.4334 36.9503 41.717 37.6666 40.8333 37.6666Z" fill="white"/>
<path fill-rule="evenodd" clip-rule="evenodd" d="M29.1005 35.5332H25.9005C25.606 35.5332 25.3672 35.772 25.3672 36.0665C25.3672 36.3611 25.606 36.5999 25.9005 36.5999H29.1005C29.3951 36.5999 29.6339 36.3611 29.6339 36.0665C29.6339 35.772 29.3951 35.5332 29.1005 35.5332Z" fill="white"/>
<path fill-rule="evenodd" clip-rule="evenodd" d="M14.1671 16.3323H40.8338C41.1283 16.3323 41.3671 16.0935 41.3671 15.799C41.3671 15.5044 41.1283 15.2656 40.8338 15.2656H14.1671C13.8726 15.2656 13.6338 15.5044 13.6338 15.799C13.6338 16.0935 13.8726 16.3323 14.1671 16.3323Z" fill="white"/>
<path d="M14.7003 14.1995C14.9949 14.1995 15.2337 13.9607 15.2337 13.6662C15.2337 13.3716 14.9949 13.1328 14.7003 13.1328C14.4058 13.1328 14.167 13.3716 14.167 13.6662C14.167 13.9607 14.4058 14.1995 14.7003 14.1995Z" fill="white"/>
<path d="M16.8341 14.1995C17.1287 14.1995 17.3675 13.9607 17.3675 13.6662C17.3675 13.3716 17.1287 13.1328 16.8341 13.1328C16.5396 13.1328 16.3008 13.3716 16.3008 13.6662C16.3008 13.9607 16.5396 14.1995 16.8341 14.1995Z" fill="white"/>
<path d="M18.9669 14.1995C19.2615 14.1995 19.5003 13.9607 19.5003 13.6662C19.5003 13.3716 19.2615 13.1328 18.9669 13.1328C18.6724 13.1328 18.4336 13.3716 18.4336 13.6662C18.4336 13.9607 18.6724 14.1995 18.9669 14.1995Z" fill="white"/>
<path d="M15.2338 29.1337H20.5671C20.962 29.1323 21.3422 28.984 21.6338 28.7177C21.9253 28.984 22.3056 29.1323 22.7004 29.1337H25.3671V30.7336C25.3671 31.6173 26.0835 32.3336 26.9671 32.3336H32.3004C32.6953 32.3322 33.0755 32.1839 33.3671 31.9176C33.6587 32.1839 34.0389 32.3322 34.4338 32.3336H39.7671C40.6508 32.3336 41.3671 31.6172 41.3671 30.7336V22.2003C41.3671 21.3166 40.6508 20.6003 39.7671 20.6003H34.4337C34.0388 20.6017 33.6586 20.75 33.367 21.0163C33.0755 20.75 32.6952 20.6017 32.3003 20.6003H29.6337V19.0004C29.6337 18.1167 28.9173 17.4004 28.0337 17.4004H22.7004C22.3055 17.4018 21.9253 17.5501 21.6337 17.8164C21.3421 17.5501 20.9619 17.4018 20.567 17.4004H15.2338C14.3501 17.4004 13.6338 18.1167 13.6338 19.0004V27.5337C13.6337 28.4173 14.3501 29.1337 15.2338 29.1337ZM34.4337 21.667H39.767C40.0616 21.667 40.3004 21.9057 40.3004 22.2003V30.7336C40.3004 31.0282 40.0616 31.267 39.767 31.267H34.4337C34.1391 31.267 33.9004 31.0282 33.9004 30.7336V22.2003C33.9004 21.9058 34.1392 21.667 34.4337 21.667ZM32.3004 21.667C32.595 21.667 32.8337 21.9057 32.8337 22.2003V30.7336C32.8337 31.0282 32.595 31.267 32.3004 31.267H26.9671C26.6726 31.267 26.4338 31.0282 26.4338 30.7336V29.1337H28.0338C28.2992 29.132 28.5599 29.0632 28.7917 28.9336L29.2183 29.467C29.3194 29.5932 29.4722 29.6667 29.6338 29.667C29.7958 29.667 29.9491 29.5934 30.0503 29.467L32.1836 26.8003C32.3396 26.6055 32.3396 26.3285 32.1836 26.1337L30.0503 23.467C29.9471 23.3443 29.7941 23.2746 29.6338 23.2772V21.667L32.3004 21.667ZM29.6337 27.5337V24.6537L31.0844 26.467L29.6337 28.2803L29.5153 28.132C29.5931 27.9421 29.6333 27.7389 29.6337 27.5337ZM22.7004 18.467H28.0337C28.3283 18.467 28.5671 18.7058 28.5671 19.0004V27.5337C28.5671 27.8283 28.3283 28.067 28.0337 28.067H22.7004C22.4058 28.067 22.1671 27.8283 22.1671 27.5337V19.0003C22.1671 18.7058 22.4059 18.467 22.7004 18.467ZM14.7004 19.0003C14.7004 18.7057 14.9392 18.467 15.2338 18.467H20.5671C20.8617 18.467 21.1004 18.7057 21.1004 19.0003V27.5336C21.1004 27.8282 20.8617 28.067 20.5671 28.067H15.2338C14.9392 28.067 14.7004 27.8282 14.7004 27.5336V19.0003Z" fill="white"/>
<path d="M17.6549 25.3399C17.8088 25.4196 17.9917 25.4196 18.1456 25.3399C20.2523 24.2498 20.5669 23.0156 20.5669 22.3772C20.5942 21.9284 20.4402 21.4874 20.1394 21.1532C19.8385 20.8189 19.4161 20.6195 18.9669 20.5996C18.5836 20.6002 18.2103 20.722 17.9002 20.9474C17.5902 20.722 17.2169 20.6003 16.8335 20.5996C16.3843 20.6195 15.9619 20.8189 15.6611 21.1532C15.3602 21.4874 15.2062 21.9284 15.2336 22.3772C15.2336 23.0156 15.5483 24.2497 17.6549 25.3399ZM16.8336 21.6662C17.0791 21.671 17.3085 21.7891 17.4549 21.9862C17.5534 22.1323 17.7177 22.2204 17.8939 22.2214H17.9003C18.0773 22.2201 18.2425 22.1326 18.343 21.9868C18.4899 21.7888 18.7205 21.6703 18.967 21.6662C19.3131 21.6662 19.5003 22.0326 19.5003 22.3772C19.5003 23.0028 18.9211 23.6801 17.9003 24.2598C16.8796 23.6801 16.3004 23.0028 16.3004 22.3772C16.3003 22.0327 16.4875 21.6662 16.8336 21.6662Z" fill="white"/>
<path d="M35.7563 28.0427L35.6816 28.3419C35.6022 28.6605 35.6739 28.998 35.8761 29.2568C36.0783 29.5156 36.3884 29.6668 36.7168 29.6667H37.4838C37.8121 29.6666 38.122 29.5153 38.3241 29.2566C38.5262 28.9978 38.5978 28.6604 38.5184 28.3419L38.4443 28.0427C39.2093 27.9081 39.767 27.2434 39.7669 26.4667C39.7757 25.7947 39.3496 25.1941 38.7125 24.9802C38.7029 24.9588 38.6987 24.9354 38.7002 24.912C38.7104 24.4786 38.5461 24.0593 38.2442 23.7482C37.6089 23.1282 36.5948 23.1282 35.9595 23.7482C35.6581 24.0568 35.4927 24.4732 35.5002 24.9045C35.5002 24.9365 35.4944 24.961 35.5077 24.961C34.8631 25.1796 34.4306 25.786 34.4336 26.4666C34.4335 27.2434 34.9913 27.908 35.7563 28.0427ZM35.8534 25.9701C36.3066 25.8045 36.597 25.3605 36.567 24.8789C36.5648 24.7341 36.6207 24.5944 36.7222 24.4912C36.8219 24.39 36.958 24.3331 37.1001 24.3331C37.2421 24.3331 37.3782 24.39 37.4779 24.4912C37.58 24.5952 37.6357 24.736 37.6326 24.8816C37.6009 25.3621 37.8911 25.8056 38.3441 25.9691C38.5581 26.0402 38.7019 26.2411 38.7003 26.4667C38.6952 26.6445 38.6035 26.8086 38.4546 26.906C38.3058 27.0035 38.1187 27.0221 37.9537 26.9557C37.7675 26.8779 37.5534 26.9118 37.4003 27.0432C37.2473 27.1747 37.1816 27.3813 37.2305 27.577L37.4838 28.6H36.7163L36.9723 27.577C37.0218 27.3808 36.9558 27.1734 36.8021 27.0417C36.6484 26.91 36.4334 26.8767 36.247 26.9557C36.0819 27.0221 35.8949 27.0035 35.746 26.906C35.5972 26.8086 35.5055 26.6445 35.5003 26.4667C35.4987 26.2424 35.641 26.0423 35.8534 25.9701Z" fill="white"/>
<path d="M23.9665 25.0711L23.9495 25.141C23.8697 25.4595 23.941 25.797 24.1429 26.056C24.3448 26.3149 24.6547 26.4665 24.983 26.4668H25.7516C26.0795 26.4666 26.3892 26.3156 26.5912 26.0572C26.7932 25.7989 26.8651 25.462 26.7862 25.1436L26.7681 25.0711C27.0306 25.0246 27.2746 24.905 27.4721 24.726C27.8558 24.3917 28.0631 23.8986 28.0337 23.3906C27.9521 21.8796 25.9175 20.341 25.6871 20.1703C25.499 20.0318 25.2427 20.0318 25.0545 20.1703C24.8231 20.341 22.7879 21.8796 22.7079 23.3906C22.6782 23.8975 22.8846 24.3897 23.2668 24.7239C23.4627 24.9032 23.7052 25.0236 23.9665 25.0711ZM25.367 21.2796C25.9686 21.7863 26.9286 22.7367 26.967 23.4482C26.9804 23.6372 26.9008 23.8209 26.7537 23.9404C26.5815 24.0447 26.3733 24.0715 26.1803 24.014C26.0031 23.9862 25.8235 24.0475 25.7003 24.1778C25.578 24.3097 25.5305 24.4944 25.5739 24.669L25.7515 25.4002H24.9835L25.1648 24.6695C25.2043 24.5103 25.1684 24.3416 25.0672 24.2123C24.9661 24.0831 24.8111 24.0076 24.6469 24.0076C24.6169 24.0078 24.587 24.0102 24.5573 24.0146C24.364 24.0712 24.1558 24.0441 23.9834 23.9399C23.8366 23.8204 23.7571 23.637 23.7701 23.4482C23.8028 22.7906 24.6673 21.8626 25.367 21.2796Z" fill="white"/>
</g>
<defs>
<clipPath id="clip0_387_25795">
<rect width="32" height="32" fill="white" transform="translate(11.5 11)"/>
</clipPath>
</defs>
</svg>
