<svg width="39" height="40" viewBox="0 0 39 40" fill="none" xmlns="http://www.w3.org/2000/svg">
<g clip-path="url(#clip0)">
<path d="M19.0655 34.2988C20.187 32.9904 20.0936 31.0278 18.7852 29.9063C17.4767 28.7848 15.5141 28.8783 14.3926 30.1867C13.2711 31.4951 13.3646 33.4577 14.673 34.5792C15.3272 35.1399 16.0749 35.4203 16.916 35.3269C17.6637 35.2334 18.5048 34.8596 19.0655 34.2988Z" fill="#3DA8FB"/>
<path d="M7.47662 34.7665C6.35512 36.0749 6.44858 38.0375 7.75699 39.159C9.0654 40.2805 11.028 40.187 12.1495 38.8786C13.271 37.5702 13.1775 35.6076 11.8691 34.4861C11.2149 33.9253 10.4673 33.645 9.62615 33.7384C8.87848 33.8319 8.03736 34.2057 7.47662 34.7665Z" fill="#0A4586"/>
<path d="M11.8693 28.8784C11.7759 27.1027 10.2805 25.7942 8.50482 25.9812C6.72912 26.0746 5.42071 27.5699 5.60763 29.3456C5.70108 31.1214 7.19641 32.4298 8.97211 32.2428C9.81323 32.1494 10.5609 31.7756 11.1216 31.2148C11.5889 30.4671 11.8693 29.7195 11.8693 28.8784Z" fill="#FF3333"/>
<path d="M10.5611 11.7757L1.86954 20.4673L3.45833 23.1776C3.55179 23.3645 3.64525 23.6449 3.55179 23.8318C3.45833 24.0187 3.36487 24.2056 3.17796 24.3925C3.0845 24.486 2.89758 24.486 2.71067 24.486C2.43029 24.486 2.14992 24.2991 1.963 24.1122L0.000386059 20.8411C-0.18653 20.4673 -0.18653 20.0935 0.093844 19.8131L19.72 0.280374C19.9069 0.093458 20.0938 0 20.3742 0C20.5611 0 20.6546 0 20.8415 0.093458L24.1125 2.05607C24.3929 2.33645 24.5798 2.80374 24.2994 3.27103C24.1125 3.5514 23.8322 3.64486 23.5518 3.64486C23.3649 3.64486 23.2714 3.64486 23.0845 3.5514L20.3742 1.96262L11.6826 10.6542L24.9537 23.9252L23.7387 25.1402L10.5611 11.7757Z" fill="#FF3333"/>
<path d="M23.8319 24.3927L24.3927 23.8319L11.1216 10.5609L20.374 1.30856L23.3646 3.08426C23.5515 3.17772 23.7384 3.08426 23.9254 2.99081C24.0188 2.80389 24.0188 2.61697 23.8319 2.43006L20.5609 0.5609C20.374 0.467442 20.187 0.467442 20.0936 0.654358L0.56088 20.0936C0.467423 20.1871 0.373965 20.374 0.467422 20.5609L2.43004 23.8319C2.5235 24.0188 2.80387 24.1123 2.99079 23.9254C3.1777 23.8319 3.27116 23.5516 3.08424 23.3646L1.30854 20.374L10.5609 11.1216L23.8319 24.3927Z" fill="#FF3333"/>
<path d="M38.1313 34.9532L28.5986 25.4205C27.7575 24.6728 26.449 24.7663 25.7014 25.514L25.5145 25.7009C24.9537 26.2616 24.6733 27.1962 25.0472 28.0373C25.1406 28.2242 25.3275 28.5046 25.5145 28.5981L35.0472 38.1308C35.8883 38.9719 37.3836 38.9719 38.2247 38.1308C38.9724 37.1962 38.9724 35.7943 38.1313 34.9532Z" fill="#0A4586"/>
</g>
<defs>
<clipPath id="clip0">
<rect width="38.785" height="40" fill="white"/>
</clipPath>
</defs>
</svg>
