<svg width="169" height="24" viewBox="0 0 169 24" fill="none" xmlns="http://www.w3.org/2000/svg">
<g clip-path="url(#clip0)">
<path fill-rule="evenodd" clip-rule="evenodd" d="M36.0958 19.9678C36.0958 22.2718 34.2718 24.0958 31.9678 24.0958C29.7598 23.9998 27.8398 22.1758 27.8398 19.9678C27.8398 17.7598 29.6638 15.8398 31.9678 15.8398C34.2718 15.8398 36.0958 17.6638 36.0958 19.9678Z" fill="#FF3333"/>
<path fill-rule="evenodd" clip-rule="evenodd" d="M3.456 8.16L15.648 16.608H6.432L0 24L3.072 22.944H18.912L25.152 15.84L11.52 6.336H42.336V0H10.656L3.456 8.16Z" fill="#FF3333"/>
<path fill-rule="evenodd" clip-rule="evenodd" d="M44.064 22.944H61.728V16.608H50.208V0H44.064V22.944Z" fill="#FF3333"/>
<path fill-rule="evenodd" clip-rule="evenodd" d="M150.912 22.944H168.672L163.488 16.608H157.056V14.592H163.392V8.352H157.056V6.336H163.488L168.384 0H150.912V22.944Z" fill="#FF3333"/>
<path fill-rule="evenodd" clip-rule="evenodd" d="M63.4561 0V22.944H81.2161L75.9361 16.608H69.6001V14.592H75.9361V8.352H69.6001V6.336H86.7841L78.1441 16.608L82.2721 21.6L92.0641 9.888V0H63.4561Z" fill="#FF3333"/>
<path fill-rule="evenodd" clip-rule="evenodd" d="M100.8 22.944C101.664 22.944 103.68 22.848 104.64 21.888C105.312 21.216 105.408 19.776 105.408 19.008V13.824L93.6961 0V9.888L99.3601 16.704H88.6081L83.3281 23.04H100.8V22.944Z" fill="#FF3333"/>
<path fill-rule="evenodd" clip-rule="evenodd" d="M143.04 0H149.184V19.104C149.184 19.776 149.088 21.312 148.416 21.984C147.456 22.944 145.536 23.04 144.576 23.04H133.728C132.864 23.04 130.848 22.944 129.888 21.984C129.216 21.312 129.12 19.872 129.12 19.104V6.336H112.992V16.704H121.344V14.688H114.432L118.656 9.888H122.976C123.84 9.888 125.856 9.984 126.816 10.944C127.488 11.616 127.584 13.056 127.584 13.824V19.104C127.584 19.776 127.488 21.312 126.816 21.984C125.856 22.944 123.936 23.04 122.976 23.04H111.456C110.592 23.04 108.864 23.04 107.808 21.888C106.944 21.024 106.944 19.488 106.944 18.912V6.432C106.944 4.704 107.136 2.88 108.48 1.632C109.728 0.384 111.456 0.096 113.088 0.096H135.36V14.784C135.36 15.456 135.552 16.032 135.84 16.416C136.128 16.704 136.416 16.8 136.8 16.8H141.6C141.984 16.8 142.272 16.704 142.56 16.416C142.848 16.128 143.04 15.456 143.04 14.784V0Z" fill="#FF3333"/>
</g>
<defs>
<clipPath id="clip0">
<rect width="168.672" height="24" fill="white"/>
</clipPath>
</defs>
</svg>
