<svg width="93" height="88" viewBox="0 0 93 88" fill="none" xmlns="http://www.w3.org/2000/svg">
<g clip-path="url(#clip0)">
<path d="M46.5999 80.2999C67.9733 80.2999 85.2999 62.9733 85.2999 41.5999C85.2999 20.2265 67.9733 2.8999 46.5999 2.8999C25.2265 2.8999 7.8999 20.2265 7.8999 41.5999C7.8999 62.9733 25.2265 80.2999 46.5999 80.2999Z" fill="url(#paint0_radial)"/>
<path opacity="0.28" d="M39.7 77.4C61.0734 77.4 78.4 60.0734 78.4 38.7C78.4 17.3266 61.0734 0 39.7 0C18.3266 0 1 17.3266 1 38.7C1 60.0734 18.3266 77.4 39.7 77.4Z" fill="#FF7D2F"/>
<path opacity="0.28" d="M46.4002 87.2C67.7736 87.2 85.1002 69.8735 85.1002 48.5C85.1002 27.1266 67.7736 9.80005 46.4002 9.80005C25.0268 9.80005 7.7002 27.1266 7.7002 48.5C7.7002 69.8735 25.0268 87.2 46.4002 87.2Z" fill="#FF7D2F"/>
<path opacity="0.28" d="M53.5999 77.4C74.9733 77.4 92.2999 60.0734 92.2999 38.7C92.2999 17.3266 74.9733 0 53.5999 0C32.2265 0 14.8999 17.3266 14.8999 38.7C14.8999 60.0734 32.2265 77.4 53.5999 77.4Z" fill="#FF7D2F"/>
<path d="M48.1 22.2999C47.6 22.1999 47.1 22.2 46.6 22.2C46.1 22.2 45.6 22.1999 45.1 22.2999C35.6 23.0999 28 31.0999 28 40.7999C28 51.0999 36.4 59.4 46.6 59.4C56.8 59.4 65.2 51.0999 65.2 40.7999C65.2 31.0999 57.7 23.0999 48.1 22.2999ZM60.1 36.9C60.1 44.3 54 50.4 46.6 50.4C39.2 50.4 33.1 44.3 33.1 36.9C33.1 29.9 38.4 24.2 45.2 23.5C45.7 23.5 46.1 23.4 46.6 23.4C47.1 23.4 47.5 23.4 48 23.5C54.8 24.2 60.1 29.9 60.1 36.9ZM46.6 58.2C37 58.2 29.2 50.4 29.2 40.7999C29.2 35.5999 31.5 30.9999 35.1 27.7999C33.1 30.2999 31.9 33.5 31.9 36.9C31.9 45 38.5 51.5999 46.6 51.5999C54.7 51.5999 61.3 45 61.3 36.9C61.3 33.5 60.1 30.2999 58.1 27.7999C61.7 30.9999 64 35.5999 64 40.7999C64 50.4 56.2 58.2 46.6 58.2Z" fill="white"/>
<path d="M74.5001 57.4C74.5001 57.4 73.6001 55.7999 73.4001 54C73.3001 52.9 73.4001 51.7 73.5001 50.5C73.7001 47.4 74.0001 44 71.0001 42.2C70.6001 42 70.2001 41.7 69.7001 41.5C70.1001 41.2999 70.6001 41.0999 71.0001 40.7999C74.0001 39.0999 73.7001 35.6 73.5001 32.5C73.4001 31.2 73.3001 30 73.4001 29C73.6001 27.2999 74.5001 25.7 74.5001 25.6C74.6001 25.4 74.6001 25.2 74.5001 25C74.4001 24.8 74.2001 24.7 73.9001 24.7C73.9001 24.7 72.5001 24.8 70.5001 24C69.5001 23.6 68.5001 22.9 67.4001 22.2C64.8001 20.5 61.9001 18.7 59.0001 20.4C58.8001 20.5 58.6001 20.6 58.5001 20.8C58.5001 20.6 58.5001 20.4 58.5001 20.2C58.5001 16.8 55.4001 15.2 52.6001 13.9C51.5001 13.3 50.4001 12.8 49.5001 12.2C48.1001 11.1 47.2001 9.59995 47.2001 9.49995C47.1001 9.29995 46.9001 9.19995 46.6001 9.19995C46.4001 9.19995 46.2001 9.29995 46.1001 9.59995C46.1001 9.59995 45.5001 10.9 43.8001 12.2C42.9001 12.9 41.8001 13.4 40.7001 14C38.0001 15.4 34.9001 16.9 34.9001 20.3C34.9001 20.5 34.9001 20.7 34.9001 21C34.7001 20.9 34.5001 20.8 34.4001 20.6C31.4001 18.9 28.5001 20.8 25.9001 22.4C24.8001 23.1 23.8001 23.8 22.8001 24.2C21.2001 24.9 19.3001 24.9 19.3001 24.9C19.1001 24.9 18.9001 25 18.8001 25.2C18.7001 25.4 18.7001 25.5999 18.8001 25.7999C18.8001 25.7999 19.6001 27 19.9001 29.1C20.0001 30.2 19.9001 31.4 19.9001 32.7C19.7001 35.7 19.4001 39.2 22.4001 40.9C22.8001 41.1 23.2001 41.2999 23.7001 41.5C23.3001 41.7 22.8001 41.8999 22.4001 42.0999C19.5001 43.7999 19.7001 47.2999 19.9001 50.2999C20.0001 51.5999 20.1001 52.8 19.9001 53.9C19.6001 56 18.8001 57.2 18.8001 57.2C18.7001 57.4 18.7001 57.5999 18.8001 57.7999C18.9001 58 19.1001 58.0999 19.3001 58.0999C19.3001 58.0999 21.2001 58.0999 22.8001 58.7999C23.8001 59.2 24.8001 59.8999 25.9001 60.5999C27.8001 61.7999 29.8001 63.0999 31.9001 63.0999C32.7001 63.0999 33.5001 62.9 34.4001 62.4C34.6001 62.3 34.8001 62.2 34.9001 62C34.9001 62.2 34.9001 62.4 34.9001 62.7C34.9001 66.1 38.0001 67.5999 40.7001 69C41.9001 69.5999 43.0001 70.1 43.8001 70.8C45.5001 72.1 46.1001 73.4 46.1001 73.4C46.2001 73.6 46.4001 73.7 46.6001 73.8C46.8001 73.8 47.0001 73.7 47.1001 73.5C47.1001 73.5 48.0001 71.9 49.4001 70.8C50.3001 70.2 51.3001 69.5999 52.5001 69.0999C55.3001 67.6999 58.4001 66.2 58.4001 62.7999C58.4001 62.5999 58.4001 62.3999 58.4001 62.0999C58.6001 62.1999 58.8001 62.2999 58.9001 62.5C59.7001 63 60.5001 63.2 61.3001 63.2C63.4001 63.2 65.4001 61.9 67.2001 60.7C68.3001 60 69.3001 59.3 70.3001 58.9C72.3001 58.1 73.7001 58.2 73.7001 58.2C73.9001 58.2 74.1001 58.1 74.3001 57.9C74.6001 57.9 74.6001 57.6 74.5001 57.4ZM59.6001 21.6C61.9001 20.3 64.2001 21.8 66.7001 23.4C67.8001 24.1 68.9001 24.7999 70.1001 25.2999C71.3001 25.7999 72.4001 26 73.1001 26C72.8001 26.7 72.4001 27.8 72.3001 28.9C72.2001 30.1 72.3001 31.4 72.4001 32.7C72.6001 35.7 72.8001 38.5 70.5001 39.9C70.1001 40.1 69.7001 40.2999 69.3001 40.5C68.9001 32.7999 64.7001 26.2 58.6001 22.4C58.8001 22.1 59.2001 21.8 59.6001 21.6ZM46.6001 62.9C34.8001 62.9 25.3001 53.2999 25.3001 41.5999C25.3001 29.7999 34.9001 20.3 46.6001 20.3C58.4001 20.3 67.9001 29.8999 67.9001 41.5999C68.0001 53.3999 58.4001 62.9 46.6001 62.9ZM41.2001 15.1C42.4001 14.5 43.6001 13.9 44.5001 13.2C45.6001 12.4 46.2001 11.6 46.7001 11C47.2001 11.6 47.9001 12.5 48.8001 13.2C49.7001 13.9 50.9001 14.5 52.1001 15.1C54.8001 16.4 57.3001 17.7 57.3001 20.4C57.3001 20.9 57.3001 21.3 57.2001 21.8C54.1001 20.1 50.5001 19.2 46.7001 19.2C42.9001 19.2 39.3001 20.1 36.2001 21.8C36.0001 21.2 36.0001 20.7 36.0001 20.3C36.0001 17.6 38.5001 16.4 41.2001 15.1ZM21.0001 32.7999C21.1001 31.5 21.2001 30.1 21.0001 29C20.8001 27.7 20.5001 26.7 20.2001 26C21.0001 25.9 22.1001 25.6999 23.2001 25.2999C24.3001 24.7999 25.4001 24.1 26.5001 23.4C29.0001 21.8 31.4001 20.2 33.7001 21.6C34.1001 21.8 34.5001 22.1 34.9001 22.4C28.7001 26.2 24.5001 32.9 24.2001 40.5C23.8001 40.2999 23.4001 40.1 23.0001 39.9C20.6001 38.6 20.8001 35.7999 21.0001 32.7999ZM33.7001 61.5C31.4001 62.9 29.0001 61.2999 26.5001 59.7C25.4001 59 24.3001 58.2999 23.2001 57.7999C22.1001 57.3999 21.0001 57.1999 20.2001 57.0999C20.5001 56.3999 20.8001 55.3999 21.0001 54.0999C21.1001 52.8999 21.1001 51.5999 21.0001 50.2999C20.8001 47.2999 20.6001 44.6 22.9001 43.2C23.3001 43 23.7001 42.7999 24.1001 42.5999C24.4001 50.2999 28.6001 56.9 34.8001 60.7C34.4001 61.1 34.1001 61.2999 33.7001 61.5ZM52.0001 68.1999C50.9001 68.7999 49.7001 69.3999 48.7001 70.0999C47.8001 70.7999 47.0001 71.7 46.6001 72.3C46.2001 71.7 45.5001 70.8999 44.4001 70.0999C43.4001 69.3999 42.2001 68.7999 41.1001 68.1999C38.5001 66.8999 35.9001 65.5999 35.9001 63C35.9001 62.5 35.9001 62.0999 36.0001 61.5999C39.1001 63.2999 42.7001 64.1999 46.5001 64.1999C50.3001 64.1999 53.9001 63.2999 57.0001 61.5999C57.1001 62.0999 57.1001 62.5 57.1001 63C57.2001 65.5999 54.7001 66.7999 52.0001 68.1999ZM70.0001 57.9C68.9001 58.4 67.7001 59.0999 66.6001 59.7999C64.1001 61.3999 61.8001 62.8999 59.5001 61.5999C59.1001 61.3999 58.7001 61.0999 58.4001 60.7999C64.5001 57 68.7001 50.2999 69.1001 42.7C69.5001 42.9 69.9001 43.0999 70.3001 43.2999C72.6001 44.7 72.4001 47.5 72.2001 50.5C72.1001 51.7999 72.0001 53.0999 72.1001 54.2999C72.2001 55.5 72.6001 56.5 72.9001 57.2C72.3001 57.2 71.3001 57.4 70.0001 57.9Z" fill="white"/>
</g>
<defs>
<radialGradient id="paint0_radial" cx="0" cy="0" r="1" gradientUnits="userSpaceOnUse" gradientTransform="translate(46.624 41.5787) scale(38.6621)">
<stop stop-color="#FF7D2F"/>
<stop offset="1" stop-color="#FF7D2F" stop-opacity="0"/>
</radialGradient>
<clipPath id="clip0">
<rect width="91.2" height="87.2" fill="white" transform="translate(1)"/>
</clipPath>
</defs>
</svg>
