<svg width="48" height="48" viewBox="0 0 48 48" fill="none" xmlns="http://www.w3.org/2000/svg">
<g clip-path="url(#clip0_387_29111)">
<path d="M37.6005 24.0004C37.6005 16.4894 31.5115 10.4004 24.0004 10.4004C16.4894 10.4004 10.4004 16.4894 10.4004 24.0004C10.4004 31.5115 16.4894 37.6005 24.0004 37.6005C31.5028 37.5794 37.5794 31.5028 37.6005 24.0004ZM12.0412 24.8004H16.0236C16.0654 26.3178 16.2625 27.827 16.6116 29.3044C15.5869 29.452 14.5706 29.6528 13.5668 29.906C12.679 28.3413 12.1574 26.5957 12.0412 24.8004ZM13.5668 18.0948C14.5706 18.348 15.5869 18.5489 16.6116 18.6964C16.2625 20.1737 16.0654 21.6829 16.0236 23.2005H12.0412C12.1574 21.4051 12.679 19.6595 13.5668 18.0948ZM35.9596 23.2005H31.9772C31.9354 21.683 31.7384 20.1738 31.3892 18.6964C32.4139 18.5489 33.4303 18.348 34.434 18.0948C35.3219 19.6595 35.8435 21.4051 35.9596 23.2005ZM30.378 23.2005H24.8005V19.1893C26.5245 19.1661 28.2013 19.0677 29.7605 18.8997C30.1199 20.307 30.3269 21.7488 30.378 23.2005ZM24.8004 17.59V12.11C26.6404 12.5644 28.27 14.5444 29.2884 17.3404C27.8708 17.4828 26.3588 17.5676 24.8004 17.59ZM23.2005 12.11V17.59C21.642 17.5676 20.13 17.4828 18.7125 17.3404C19.7309 14.5444 21.3604 12.5644 23.2005 12.11ZM23.2005 19.1893V23.2005H17.6229C17.6732 21.7489 17.8795 20.307 18.2381 18.8997C19.7996 19.0676 21.4764 19.166 23.2005 19.1893ZM17.6228 24.8004H23.2004V28.8116C21.4764 28.8347 19.7996 28.9332 18.2403 29.1012C17.881 27.6939 17.674 26.252 17.6228 24.8004ZM23.2005 30.4109V35.8908C21.3604 35.4364 19.7309 33.4564 18.7125 30.6604C20.13 30.518 21.642 30.4333 23.2005 30.4109ZM24.8004 35.8908V30.4109C26.3588 30.4333 27.8708 30.518 29.2884 30.6604C28.27 33.4564 26.6404 35.4405 24.8004 35.8908ZM24.8004 28.8116V24.8004H30.378C30.3276 26.2519 30.1214 27.6938 29.7628 29.1012C28.2013 28.9333 26.5245 28.8348 24.8004 28.8116ZM31.9772 24.8004H35.9596C35.8435 26.5957 35.3219 28.3413 34.434 29.906C33.4303 29.6528 32.4139 29.452 31.3892 29.3044C31.7384 27.8271 31.9354 26.3179 31.9772 24.8004ZM33.49 16.6836C32.7091 16.862 31.8492 17.0156 30.934 17.1444C30.4507 15.6337 29.7025 14.221 28.7244 12.9724C30.6023 13.7849 32.2424 15.062 33.49 16.6836ZM19.2804 12.9724C18.3023 14.2211 17.5541 15.6337 17.0708 17.1444C16.1556 17.0156 15.2956 16.862 14.5148 16.6836C15.7625 15.062 17.4026 13.7849 19.2804 12.9724ZM14.5109 31.3172C15.2917 31.1388 16.1517 30.9853 17.0669 30.8565C17.5514 32.3674 18.3009 33.7801 19.2805 35.0284C17.4012 34.2165 15.7596 32.9393 14.5109 31.3172ZM28.7244 35.0284C29.7025 33.7798 30.4507 32.3671 30.934 30.8565C31.8492 30.9853 32.7091 31.1388 33.494 31.3172C32.2452 32.9393 30.6037 34.2165 28.7244 35.0284Z" fill="#3C80FD"/>
<path d="M24 0C10.7452 0 0 10.7452 0 24C0 37.2548 10.7452 48 24 48C37.2548 48 48 37.2548 48 24C47.9876 10.7503 37.2497 0.012375 24 0ZM44.9856 31.8288L41.2904 30.2952C41.9333 28.5302 42.3008 26.6768 42.38 24.8001H46.38C46.2975 27.2028 45.8266 29.5764 44.9856 31.8288ZM40.384 39.2528L37.5568 36.4256C38.8274 35.0419 39.8796 33.4723 40.6768 31.7712L44.372 33.3048C43.3692 35.4879 42.0228 37.4962 40.384 39.2528ZM33.3048 44.368L31.772 40.6729C33.4726 39.8752 35.0418 38.8231 36.4255 37.5529L39.2528 40.3801C37.496 42.0187 35.4878 43.365 33.3048 44.368ZM8.74481 40.384L11.572 37.5568C12.9558 38.827 14.525 39.8791 16.2256 40.6768L14.6952 44.368C12.5124 43.3663 10.5043 42.0212 8.74725 40.384H8.74481ZM3.63197 33.3048L7.32712 31.7712C8.12316 33.472 9.17391 35.0416 10.4431 36.4256L7.61588 39.2528C5.97862 37.4959 4.6335 35.4877 3.63197 33.3048ZM1.62 24.8H5.62003C5.69916 26.6767 6.06666 28.5302 6.70959 30.2951L3.01444 31.8287C2.17341 29.5764 1.7025 27.2028 1.62 24.8ZM3.01444 16.1712L6.70959 17.7048C6.06666 19.4698 5.69916 21.3232 5.62003 23.1999H1.62C1.7025 20.7972 2.17341 18.4236 3.01444 16.1712ZM7.61597 8.74716L10.4432 11.5744C9.174 12.9584 8.12325 14.528 7.32722 16.2288L3.63206 14.6952C4.6335 12.5123 5.97862 10.5041 7.61597 8.74716ZM14.6952 3.63197L16.228 7.32712C14.5277 8.12362 12.9585 9.17428 11.5745 10.4431L8.74716 7.61597C10.5043 5.97881 12.5124 4.63378 14.6952 3.63197ZM39.2552 7.61597L36.428 10.4432C35.0439 9.17437 33.4748 8.12362 31.7744 7.32722L33.3048 3.63206C35.4876 4.63378 37.4957 5.97891 39.2528 7.61606L39.2552 7.61597ZM44.3704 14.6952L40.6752 16.2288C39.878 14.5277 38.8258 12.9581 37.5552 11.5744L40.3824 8.74716C42.0204 10.504 43.366 12.5122 44.368 14.6951L44.3704 14.6952ZM24 40.8C14.7217 40.8 7.2 33.2783 7.2 24C7.2 14.7217 14.7217 7.2 24 7.2C33.2783 7.2 40.8 14.7217 40.8 24C40.7894 33.274 33.274 40.7894 24 40.8ZM30.2952 6.70959C28.5302 6.06666 26.6768 5.69916 24.8001 5.62003V1.62C27.2026 1.7025 29.576 2.17341 31.828 3.01444L30.2952 6.70959ZM23.2 5.62003C21.3232 5.69916 19.4698 6.06666 17.7049 6.70959L16.1721 3.01444C18.4241 2.17341 20.7975 1.70259 23.2 1.62V5.62003ZM17.7048 41.2904C19.4698 41.9333 21.3232 42.3008 23.1999 42.38V46.38C20.7974 46.2975 18.424 45.8266 16.172 44.9856L17.7048 41.2904ZM24.8 42.38C26.6767 42.3008 28.5302 41.9333 30.2951 41.2904L31.8279 44.9856C29.5759 45.8266 27.2025 46.2974 24.8 46.38V42.38ZM42.38 23.2C42.3008 21.3232 41.9333 19.4698 41.2904 17.7049L44.9856 16.1713C45.8266 18.4237 46.2974 20.7973 46.38 23.2001H42.38V23.2Z" fill="#3C80FD"/>
</g>
<defs>
<clipPath id="clip0_387_29111">
<rect width="48" height="48" fill="white"/>
</clipPath>
</defs>
</svg>
