<svg width="50" height="50" viewBox="0 0 50 50" fill="none" xmlns="http://www.w3.org/2000/svg">
<g clip-path="url(#clip0)">
<path d="M24.9283 30.9828C24.0736 30.9828 23.3613 30.2706 23.3613 29.4159V19.9429C23.3613 19.0882 24.0736 18.376 24.9283 18.376C25.783 18.376 26.4952 19.0882 26.4952 19.9429V29.4871C26.4952 30.3418 25.783 30.9828 24.9283 30.9828Z" fill="#B32D11"/>
<path d="M24.9283 18.376C24.0736 18.376 23.3613 19.0882 23.3613 19.9429V29.4871C23.3613 30.3418 24.0736 31.054 24.9283 31.054V18.376Z" fill="#8A230D"/>
<path d="M35.2558 33.3333H14.5293C13.3185 33.3333 12.3926 34.2592 12.3926 35.47V47.8632C12.3926 49.074 13.3185 49.9999 14.5293 49.9999H35.2558C36.4667 49.9999 37.3926 49.074 37.3926 47.8632V35.47C37.3926 34.2592 36.4667 33.3333 35.2558 33.3333Z" fill="#ED2939"/>
<path d="M37.3926 42.6638H12.3926V47.792C12.3926 49.0028 13.3185 49.9288 14.5293 49.9288H35.2558C36.4667 49.9288 37.3926 49.0028 37.3926 47.792V42.6638Z" fill="#DB2635"/>
<path d="M32.693 40.0997H29.5591C28.7044 40.0997 27.9922 39.3875 27.9922 38.5328C27.9922 37.6781 28.7044 36.9658 29.5591 36.9658H32.693C33.5477 36.9658 34.26 37.6781 34.26 38.5328C34.26 39.3875 33.5477 40.0997 32.693 40.0997Z" fill="white"/>
<path d="M20.2282 47.7208H17.0943C16.2396 47.7208 15.5273 47.0086 15.5273 46.1539C15.5273 45.2992 16.2396 44.5869 17.0943 44.5869H20.2282C21.0829 44.5869 21.7951 45.2992 21.7951 46.1539C21.7951 47.0798 21.0829 47.7208 20.2282 47.7208Z" fill="white"/>
<path d="M21.7951 46.2251H15.5273C15.5273 47.0798 16.2396 47.792 17.0943 47.792H20.2282C21.0829 47.7208 21.7951 47.0798 21.7951 46.2251Z" fill="#DEDEDE"/>
<path d="M34.26 38.5327H27.9922C27.9922 39.3874 28.7044 40.0997 29.5591 40.0997H32.693C33.5477 40.0997 34.26 39.3874 34.26 38.5327Z" fill="#DEDEDE"/>
<path d="M49.7866 23.9316C49.4305 23.9316 49.0743 23.7179 48.8607 23.3618C46.6527 19.3732 40.9547 19.0171 38.3193 23.3618C38.1057 23.7179 37.7495 23.9316 37.3222 23.9316C37.3222 9.82906 30.5558 0.498575 25.2852 0C38.4618 0.2849 48.9319 10.8974 49.7866 23.9316Z" fill="#0A4586"/>
<path d="M25.4277 0C30.6984 0.569801 37.3935 9.82906 37.3935 23.9316C37.7497 23.9316 38.177 23.7179 38.3907 23.3618C39.6728 21.2251 41.6671 20.2279 43.6614 20.2279C43.4477 9.47293 35.8266 0.712251 26.2112 0C25.9263 0 25.6414 0 25.4277 0Z" fill="#3DA8FB"/>
<path d="M0 23.9316C0.356125 23.9316 0.712251 23.7179 0.925926 23.3618C3.06268 19.5869 8.76068 18.8746 11.4672 23.3618C11.6809 23.7179 12.037 23.9316 12.4644 23.9316C12.4644 9.82906 19.1595 0.498575 24.4302 0C11.3248 0.2849 0.925926 10.8974 0 23.9316Z" fill="#3DA8FB"/>
<path d="M23.5755 0.0712891C10.8974 0.712315 0.925926 11.1824 0 23.9317C0.356125 23.9317 0.712251 23.718 0.925926 23.3619C2.06553 21.3676 4.13105 20.228 6.19658 20.228C6.41026 9.54422 14.0313 0.78354 23.5755 0.0712891Z" fill="#0A4586"/>
<path d="M37.393 24.0028C37.0369 24.0028 36.6096 23.7892 36.3959 23.4331C35.2563 21.5812 33.3332 20.2991 31.1252 20.2991C28.9173 20.2991 26.9942 21.5812 25.8546 23.4331C25.6409 23.7892 25.2848 24.0028 24.8574 24.0028L24.9286 0C30.2705 0 37.393 9.47294 37.393 24.0028Z" fill="#0A4586"/>
<path d="M24.9297 0V24.0028C25.2858 24.0028 25.7132 23.7892 25.9268 23.4331C27.0664 21.5812 28.9895 20.2991 31.1975 20.2991C31.055 9.04558 28.2773 0 24.9297 0Z" fill="#3DA8FB"/>
<path d="M24.9282 0V24.0028C24.5721 24.0028 24.1447 23.7892 23.931 23.4331C21.4382 19.302 15.8826 19.302 13.3897 23.4331C13.1761 23.7892 12.8199 24.0028 12.3926 24.0028C12.3926 9.47294 19.5151 0 24.9282 0Z" fill="#3799E6"/>
<path d="M24.9292 0C19.5161 0 12.4648 9.47294 12.4648 24.0028C12.821 24.0028 13.2483 23.7892 13.462 23.4331C14.744 21.3675 16.7383 20.2991 18.7326 20.2991C18.7326 9.04558 21.5104 0 24.9292 0Z" fill="#0A4586"/>
</g>
<defs>
<clipPath id="clip0">
<rect width="49.7863" height="50" fill="white"/>
</clipPath>
</defs>
</svg>
