<svg width="40" height="40" viewBox="0 0 40 40" fill="none" xmlns="http://www.w3.org/2000/svg">
<path d="M20 30C17.25 30 15 27.75 15 25V21.875C15 21.5 15.25 21.25 15.625 21.25C16 21.25 16.25 21.5 16.25 21.875V25C16.25 27.125 17.875 28.75 20 28.75C22.125 28.75 23.75 27.125 23.75 25V21.875C23.75 21.5 24 21.25 24.375 21.25C24.75 21.25 25 21.5 25 21.875V25C25 27.75 22.75 30 20 30Z" fill="url(#paint0_linear_151_5998)"/>
<path d="M20 23.75C15.125 23.75 11.25 19.875 11.25 15V11.875C11.25 11.5 11.5 11.25 11.875 11.25C12.25 11.25 12.5 11.5 12.5 11.875V15C12.5 19.125 15.875 22.5 20 22.5C24.125 22.5 27.5 19.125 27.5 15V11.875C27.5 11.5 27.75 11.25 28.125 11.25C28.5 11.25 28.75 11.5 28.75 11.875V15C28.75 19.875 24.875 23.75 20 23.75ZM35.625 40H4.375C4 40 3.75 39.75 3.75 39.375V33.875C3.75 30.875 5.625 28.25 8.5 27.375L15.5 25H16C16.125 25.125 16.25 25.25 16.25 25.5C16.5 27.375 18.125 28.625 20 28.625C21.875 28.625 23.375 27.25 23.75 25.5C23.75 25.375 23.875 25.125 24 25C24.125 24.875 24.375 24.875 24.5 25L31.5 27.375C34.375 28.25 36.25 30.875 36.25 33.875V39.375C36.25 39.75 36 40 35.625 40ZM5 38.75H35V33.875C35 31.5 33.5 29.25 31.125 28.5L24.75 26.375C24.125 28.5 22.25 29.875 20 29.875C17.75 29.875 15.875 28.375 15.25 26.375L8.875 28.5C6.5 29.25 5 31.5 5 33.875V38.75Z" fill="url(#paint1_linear_151_5998)"/>
<path d="M35.625 40H28.125C27.75 40 27.5 39.75 27.5 39.375V38.125C27.5 34 30.625 30.5 34.625 30.125C34.875 30.125 35.125 30.25 35.25 30.375C35.875 31.5 36.25 32.625 36.25 33.875V39.375C36.25 39.75 36 40 35.625 40ZM28.75 38.75H35V33.875C35 33 34.75 32.125 34.375 31.375C31.125 32 28.75 34.75 28.75 38.125V38.75ZM11.875 40H4.375C4 40 3.75 39.75 3.75 39.375V33.875C3.75 32.625 4.125 31.375 4.75 30.375C4.875 30.125 5.125 30 5.375 30C9.5 30.5 12.5 34 12.5 38V39.25C12.5 39.75 12.25 40 11.875 40ZM5 38.75H11.25V38.125C11.25 34.75 8.875 32 5.625 31.375C5.25 32.125 5 33 5 33.875V38.75ZM28.125 12.5H27.5C26.5 12.5 25.625 11.625 25.625 10.625V8.125C25.625 7.75 25.375 7.5 25 7.5H15C14.625 7.5 14.375 7.75 14.375 8.125V10.625C14.375 11.625 13.5 12.5 12.5 12.5H11.875C11.5 12.5 11.25 12.25 11.25 11.875C11.25 11.5 11.5 11.25 11.875 11.25H12.5C12.875 11.25 13.125 11 13.125 10.625V8.125C13.125 7.125 14 6.25 15 6.25H25C26 6.25 26.875 7.125 26.875 8.125V10.625C26.875 11 27.125 11.25 27.5 11.25H28.125C28.5 11.25 28.75 11.5 28.75 11.875C28.75 12.25 28.5 12.5 28.125 12.5Z" fill="url(#paint2_linear_151_5998)"/>
<path d="M28.125 12.5H28C27.625 12.375 27.5 12.125 27.5 11.75L28.625 6.625C28.875 5.375 28.625 4 27.75 3C27 1.875 25.75 1.25 24.375 1.25H18.125C17.125 1.25 16.25 2.125 16.25 3.125C16.25 3.5 16 3.75 15.625 3.75C15.25 3.75 15 3.5 15 3.125C15 1.375 16.375 0 18.125 0H24.375C26.125 0 27.75 0.75 28.75 2.125C29.75 3.5 30.25 5.25 29.875 6.875L28.75 12C28.625 12.25 28.375 12.5 28.125 12.5Z" fill="url(#paint3_linear_151_5998)"/>
<path d="M12.4987 12.5H11.8737C11.6237 12.5 11.3737 12.25 11.2487 12L9.87368 6.75C9.49868 5.375 9.87368 4.125 10.6237 3C11.3737 1.875 12.8737 1.25 14.1237 1.25H14.3737C15.3737 1.25 16.2487 2.125 16.2487 3.125C16.2487 3.5 15.9987 3.75 15.6237 3.75C15.2487 3.75 14.9987 3.5 14.9987 3.125C14.9987 2.75 14.7487 2.5 14.3737 2.5H14.1237C13.1237 2.5 12.2487 3 11.6237 3.75C10.9987 4.5 10.8737 5.5 11.1237 6.375L12.3737 11.25H12.4987C12.8737 11.25 13.1237 11.5 13.1237 11.875C13.1237 12.25 12.8737 12.5 12.4987 12.5ZM30.6237 16.25H28.1237C27.7487 16.25 27.4987 16 27.4987 15.625V11.875C27.4987 11.5 27.7487 11.25 28.1237 11.25H29.3737C30.3737 11.25 31.2487 12.125 31.2487 13.125V15.625C31.2487 16 30.9987 16.25 30.6237 16.25ZM28.7487 15H29.9987V13.125C29.9987 12.75 29.7487 12.5 29.3737 12.5H28.7487V15Z" fill="url(#paint4_linear_151_5998)"/>
<path d="M26.875 20H23.125C22.75 20 22.5 19.75 22.5 19.375C22.5 19 22.75 18.75 23.125 18.75H26.875C28.625 18.75 30 17.375 30 15.625V13.125C30 12.75 30.25 12.5 30.625 12.5C31 12.5 31.25 12.75 31.25 13.125V15.625C31.25 18 29.25 20 26.875 20ZM11.875 16.25H10.625C9.625 16.25 8.75 15.375 8.75 14.375V13.125C8.75 12.125 9.625 11.25 10.625 11.25H11.875C12.25 11.25 12.5 11.5 12.5 11.875V15.625C12.5 16 12.25 16.25 11.875 16.25ZM10.625 12.5C10.25 12.5 10 12.75 10 13.125V14.375C10 14.75 10.25 15 10.625 15H11.25V12.5H10.625Z" fill="url(#paint5_linear_151_5998)"/>
<path d="M21.875 21.25H20.625C19.625 21.25 18.75 20.375 18.75 19.375C18.75 18.375 19.625 17.5 20.625 17.5H21.875C22.875 17.5 23.75 18.375 23.75 19.375C23.75 20.375 22.875 21.25 21.875 21.25ZM20.625 18.75C20.25 18.75 20 19 20 19.375C20 19.75 20.25 20 20.625 20H21.875C22.25 20 22.5 19.75 22.5 19.375C22.5 19 22.25 18.75 21.875 18.75H20.625Z" fill="url(#paint6_linear_151_5998)"/>
<defs>
<linearGradient id="paint0_linear_151_5998" x1="15" y1="25.625" x2="25" y2="25.625" gradientUnits="userSpaceOnUse">
<stop stop-color="#2047F4"/>
<stop offset="1" stop-color="#4D6CF5"/>
</linearGradient>
<linearGradient id="paint1_linear_151_5998" x1="3.75" y1="25.625" x2="36.25" y2="25.625" gradientUnits="userSpaceOnUse">
<stop stop-color="#2047F4"/>
<stop offset="1" stop-color="#4D6CF5"/>
</linearGradient>
<linearGradient id="paint2_linear_151_5998" x1="3.75" y1="23.125" x2="36.25" y2="23.125" gradientUnits="userSpaceOnUse">
<stop stop-color="#2047F4"/>
<stop offset="1" stop-color="#4D6CF5"/>
</linearGradient>
<linearGradient id="paint3_linear_151_5998" x1="15" y1="6.25" x2="29.9995" y2="6.25" gradientUnits="userSpaceOnUse">
<stop stop-color="#2047F4"/>
<stop offset="1" stop-color="#4D6CF5"/>
</linearGradient>
<linearGradient id="paint4_linear_151_5998" x1="9.72656" y1="8.75" x2="31.2487" y2="8.75" gradientUnits="userSpaceOnUse">
<stop stop-color="#2047F4"/>
<stop offset="1" stop-color="#4D6CF5"/>
</linearGradient>
<linearGradient id="paint5_linear_151_5998" x1="8.75" y1="15.625" x2="31.25" y2="15.625" gradientUnits="userSpaceOnUse">
<stop stop-color="#2047F4"/>
<stop offset="1" stop-color="#4D6CF5"/>
</linearGradient>
<linearGradient id="paint6_linear_151_5998" x1="18.75" y1="19.375" x2="23.75" y2="19.375" gradientUnits="userSpaceOnUse">
<stop stop-color="#2047F4"/>
<stop offset="1" stop-color="#4D6CF5"/>
</linearGradient>
</defs>
</svg>
