<svg width="18" height="19" viewBox="0 0 18 19" fill="none" xmlns="http://www.w3.org/2000/svg">
<path opacity="0.3" d="M10.7197 13.0303C10.4268 12.7374 10.4268 12.2626 10.7197 11.9697C11.0126 11.6768 11.4874 11.6768 11.7803 11.9697L14.7803 14.9697C15.0732 15.2626 15.0732 15.7374 14.7803 16.0303C14.4874 16.3232 14.0126 16.3232 13.7197 16.0303L10.7197 13.0303Z" fill="#7D7D8C"/>
<path fill-rule="evenodd" clip-rule="evenodd" d="M3 8.75C3 11.6495 5.35051 14 8.25 14C11.1495 14 13.5 11.6495 13.5 8.75C13.5 5.85051 11.1495 3.5 8.25 3.5C5.35051 3.5 3 5.85051 3 8.75ZM12 8.75C12 10.8211 10.3211 12.5 8.25 12.5C6.17893 12.5 4.5 10.8211 4.5 8.75C4.5 6.67893 6.17893 5 8.25 5C10.3211 5 12 6.67893 12 8.75Z" fill="#7D7D8C"/>
</svg>
