<svg width="140" height="125" viewBox="0 0 140 125" fill="none" xmlns="http://www.w3.org/2000/svg">
<path d="M14.817 108.17C14.703 109.216 14.5371 110.277 14.2961 111.301C14.0628 112.295 13.6819 113.343 13.9462 114.373C14.5682 116.809 18.0021 117.351 19.482 115.361C20.6534 113.781 20.0988 112.484 19.7126 110.733C19.5805 110.129 19.4016 106.502 19.3965 105.815C19.3835 103.809 19.285 99.0647 19.2669 98.8779C19.2669 98.8779 19.0699 96.2345 18.9611 94.7817H15.8692C15.7759 96.2448 15.6075 98.8779 15.6075 98.8779C15.5945 98.9531 15.0114 106.463 14.8222 108.173L14.817 108.17Z" fill="#0B1A47"/>
<path d="M71.3036 108.17C71.1896 109.216 71.0237 110.277 70.7827 111.301C70.5494 112.295 70.1659 113.343 70.4302 114.373C71.0548 116.809 74.4861 117.351 75.966 115.361C77.1374 113.781 76.5828 112.484 76.1966 110.733C76.0645 110.129 75.8856 106.502 75.8804 105.815C75.8649 103.809 75.7716 99.0647 75.7508 98.8779C75.7508 98.8779 75.5539 96.2345 75.4451 94.7817H72.3532C72.2599 96.2448 72.0914 98.8779 72.0914 98.8779C72.0785 98.9531 71.4954 106.463 71.3062 108.173L71.3036 108.17Z" fill="#0B1A47"/>
<path opacity="0.7" d="M71.8868 94.8673C67.0197 94.8673 62.334 94.8725 59.4961 94.8751C57.1792 94.8699 53.4731 94.8673 49.4172 94.8673H49.4043C49.2799 95.4355 47.5124 95.8868 45.3406 95.8868C43.1688 95.8868 41.4013 95.4355 41.2769 94.8673H41.1965C37.2417 94.8673 33.6082 94.8725 31.2524 94.8751C28.6219 94.8699 24.2005 94.8673 19.5097 94.8647H15.3993C8.45112 94.8647 1.87096 94.8725 0.512935 94.8803C0.0386638 97.9544 0.0568028 101.361 0.0568028 104.424C0.0568028 109.81 -0.617028 118.453 2.67695 122.454C5.46815 125.847 84.7621 125.738 87.3952 122.454C90.6347 118.412 90.4844 109.807 90.4844 104.424C90.4844 101.76 90.1501 96.6236 90.0283 94.8855C88.8957 94.8725 82.725 94.8673 75.9997 94.8673H71.8868Z" fill="#ED5A61"/>
<path opacity="0.7" d="M71.8881 94.8673C67.021 94.8673 62.3353 94.8725 59.4974 94.8751C57.1805 94.8699 53.4745 94.8673 49.4185 94.8673V115.805C49.4185 117.343 48.172 118.591 46.6351 118.591H43.9839C42.4444 118.591 41.2004 117.343 41.2004 115.805V94.8673C37.2456 94.8673 33.6121 94.8725 31.2563 94.8751C28.6258 94.8699 24.2044 94.8673 19.5136 94.8647H15.4032C8.45503 94.8647 1.87486 94.8725 0.516841 94.8803C0.0425701 97.9544 0.0607091 101.361 0.0607091 104.424C0.0607091 109.81 -0.613122 118.453 2.68086 122.454C5.47206 125.847 84.766 125.738 87.3991 122.454C90.6386 118.412 90.4883 109.807 90.4883 104.424C90.4883 101.76 90.154 96.6236 90.0322 94.8855C88.8997 94.8725 82.7289 94.8673 76.0036 94.8673H71.8907H71.8881Z" fill="#ED5A61"/>
<path d="M86.0459 92.5529C83.2599 91.9796 78.3539 91.6294 73.6448 91.6294C73.4764 91.6294 16.8179 91.6294 16.6468 91.632C16.4758 91.632 16.3047 91.6294 16.1337 91.6294C11.4273 91.6294 6.52127 91.9796 3.73525 92.5529C0.949235 93.1262 0.614933 94.2728 0.51645 94.8825C0.433518 95.3805 0.607157 96.5479 1.90816 97.0071C4.61902 97.9643 11.1888 98.0577 16.1337 98.0577C16.3022 98.0577 16.4758 98.0577 16.6468 98.0577C16.8179 98.0577 73.4764 98.0577 73.6448 98.0577C78.5923 98.0577 85.1336 97.8787 87.873 97.0071C88.9615 96.6595 90.0292 95.7282 90.0292 94.8877C90.0292 94.0005 88.8319 93.1288 86.0459 92.5555V92.5529ZM45.3493 95.8864C43.1023 95.8864 41.2804 95.4013 41.2804 94.8046C41.2804 94.208 43.1023 93.7203 45.3493 93.7203C47.5962 93.7203 49.4208 94.2054 49.4208 94.8046C49.4208 95.4039 47.5988 95.8864 45.3493 95.8864Z" fill="#FFC2C6"/>
<path d="M18.9515 93.8549C18.9048 93.4269 18.174 84.778 17.7827 77.587L16.3391 77.5818C16.2043 83.3745 16.2562 88.7237 15.9814 93.816C15.9737 93.9379 15.94 94.3348 15.9141 94.7966H19.0344C19.0033 94.3686 18.967 94.0002 18.9515 93.8575V93.8549Z" fill="#0B1A47"/>
<path d="M74.2826 77.8204L72.8183 77.8152C72.6913 83.5197 72.7379 88.7937 72.4658 93.8159C72.458 93.9379 72.4218 94.3348 72.3984 94.7965H75.5188C75.4877 94.3685 75.454 94.0001 75.4384 93.8574C75.3918 93.4346 74.6765 84.9673 74.2826 77.823V77.8204Z" fill="#0B1A47"/>
<path d="M48.7435 51.9284C41.0722 65.6541 40.7172 69.2444 41.0515 69.7891C41.3858 70.3339 42.1452 70.7983 42.8501 70.0434C43.5576 69.2885 49.1659 53.7832 55.2459 49.5184C57.8091 47.7207 61.6991 45.4975 65.8017 43.3132C67.7739 42.2626 120.708 16.3781 137.017 8.38811C138.116 7.84853 138.889 6.81086 139.086 5.59939C139.283 4.39052 138.883 3.15829 138.013 2.29704C137.712 1.99871 137.411 1.70557 137.116 1.4254C135.937 0.304725 134.177 0.0634686 132.741 0.82615C120.579 7.27262 64.4489 36.9212 63.1271 37.7487C57.7106 41.1471 52.2992 45.5597 48.7409 51.9284H48.7435Z" fill="#238482"/>
<path d="M46.672 60.1571C46.6124 60.1623 46.5528 60.1675 46.4932 60.1752C46.4284 60.1804 46.3688 60.1882 46.304 60.1934C46.2366 60.1986 46.1666 60.2038 46.0967 60.2064C46.0396 60.2116 45.98 60.2167 45.923 60.2193C45.8401 60.2245 45.7546 60.2245 45.669 60.2297C45.6198 60.2297 45.5731 60.2349 45.5265 60.2349C45.3917 60.2375 45.257 60.2401 45.117 60.2401C44.9771 60.2401 44.8423 60.2401 44.7075 60.2349C44.6713 60.2349 44.6376 60.2349 44.6013 60.2297C44.5002 60.2271 44.4017 60.2219 44.3032 60.2167C44.2825 60.2167 44.2618 60.2167 44.241 60.2116C44.0959 60.2038 43.956 60.1934 43.8186 60.1804C43.7227 61.6617 43.5957 63.641 43.5957 63.641C43.5828 63.7163 42.9996 71.2289 42.8104 72.9359C42.6964 73.9813 42.5305 75.0423 42.2895 76.067C42.0563 77.0632 41.6727 78.1086 41.9371 79.1385C42.5591 81.5744 45.993 82.1166 47.4728 80.1269C48.6468 78.547 48.0922 77.25 47.7035 75.4989C47.5687 74.8945 47.3925 71.2678 47.3873 70.5804C47.3717 68.5751 47.2784 63.8304 47.2577 63.6436C47.2577 63.6436 47.1074 61.602 46.996 60.1182C46.9519 60.1234 46.9078 60.1285 46.8638 60.1337C46.8016 60.1415 46.7394 60.1519 46.6746 60.1571H46.672Z" fill="#0B1A47"/>
<path d="M49.169 59.9991C49.169 59.9991 49.1639 59.9861 49.1613 59.9783C49.1483 59.9472 49.1302 59.9134 49.1069 59.8849C48.7337 59.3894 47.0931 59.0159 45.1183 59.0159C42.9439 59.0159 41.0987 59.4698 40.9795 60.0406C40.9717 60.038 40.9717 60.1651 40.9795 60.1625C41.0805 60.6528 42.4671 61.0575 44.2423 61.1612C44.2631 61.1612 44.2838 61.1638 44.3045 61.1664C44.403 61.1716 44.5015 61.1742 44.6026 61.1794C44.6389 61.1794 44.6726 61.182 44.7088 61.1846C44.8436 61.1872 44.981 61.1898 45.1183 61.1898C45.2557 61.1898 45.3904 61.1898 45.5278 61.1846C45.5744 61.1846 45.6211 61.1794 45.6703 61.1794C45.7559 61.1742 45.8414 61.1716 45.9243 61.169C45.9839 61.1664 46.0409 61.1612 46.098 61.1586C46.1679 61.1535 46.2379 61.1509 46.3053 61.1457C46.3675 61.1405 46.4297 61.1353 46.4945 61.1275C46.5541 61.1223 46.6137 61.1171 46.6733 61.1093C46.7381 61.1016 46.8003 61.0938 46.8625 61.086C46.9143 61.0782 46.9687 61.073 47.0206 61.0652C47.0854 61.0575 47.145 61.0471 47.2072 61.0367C47.2538 61.0289 47.3031 61.0211 47.3497 61.0134C47.4119 61.003 47.4715 60.99 47.5311 60.9796C47.5726 60.9719 47.6167 60.9641 47.6581 60.9537C47.7177 60.9407 47.7721 60.9278 47.8292 60.9148C47.8706 60.907 47.9069 60.8966 47.9458 60.8863C48.0002 60.8733 48.0521 60.8577 48.1013 60.8422C48.135 60.8318 48.1713 60.8214 48.2076 60.811C48.2568 60.7955 48.3008 60.7799 48.3449 60.7669C48.3812 60.754 48.4123 60.7436 48.4434 60.7306C48.4848 60.715 48.5237 60.6995 48.5626 60.6839C48.5937 60.6709 48.6222 60.658 48.6507 60.645C48.687 60.6294 48.7181 60.6139 48.7492 60.5957C48.7777 60.5827 48.8036 60.5672 48.8269 60.5516C48.8554 60.536 48.8814 60.5179 48.9073 60.5023C48.9306 60.4868 48.9513 60.4712 48.9721 60.4556C48.9954 60.4401 49.0135 60.4219 49.0317 60.4063C49.0498 60.3882 49.068 60.3726 49.0835 60.3544C49.0965 60.3389 49.112 60.3207 49.1224 60.3052C49.1353 60.287 49.1457 60.2688 49.1535 60.2481C49.1613 60.2325 49.1691 60.2144 49.1742 60.1988C49.1846 60.1703 49.1924 60.1391 49.1924 60.1106C49.1924 60.0769 49.1846 60.0432 49.1716 60.0094L49.169 59.9991Z" fill="#FFC2C6"/>
<path opacity="0.7" d="M49.1826 60.1673C49.1826 60.1673 49.1749 60.1829 49.1723 60.1907C49.1671 60.2062 49.1593 60.2244 49.1515 60.2399C48.9883 60.5746 48.3067 60.7847 47.9464 60.8781C47.5914 60.9715 47.2285 61.0286 46.8631 61.0779C46.8009 61.0856 46.7387 61.0934 46.6739 61.1012C45.9457 61.1816 45.15 61.205 44.3078 61.1609C44.287 61.1609 44.2663 61.1583 44.2456 61.1557C42.4729 61.0545 41.0838 60.6498 40.9827 60.1569C40.9749 60.1595 40.9697 73.2522 40.9697 81.0995C40.9697 82.6379 42.2163 83.8857 43.7531 83.8857H46.4044C47.9438 83.8857 49.1904 82.6379 49.1904 81.0995V60.0583C49.1904 60.0583 49.1852 60.1673 49.1826 60.1673Z" fill="#ED5A61"/>
<path d="M45.6215 40.5064L44.3205 40.4648C44.3076 40.9759 44.2946 41.4895 44.2816 42.0084C44.1391 47.7596 44.1909 53.0647 43.9395 58.1181C43.9292 58.3048 43.8644 59.4826 43.8203 60.183C43.9603 60.196 44.1002 60.2064 44.2428 60.2141C44.2635 60.2141 44.2842 60.2167 44.3049 60.2193C44.4034 60.2245 44.5019 60.2297 44.603 60.2323C44.6393 60.2323 44.673 60.2349 44.7093 60.2375C44.844 60.2401 44.9814 60.2427 45.1187 60.2427C45.2561 60.2427 45.3908 60.2427 45.5282 60.2375C45.5748 60.2375 45.6215 60.2323 45.6707 60.2323C45.7563 60.2297 45.8418 60.2271 45.9247 60.2219C45.9843 60.2193 46.0414 60.2141 46.0984 60.209C46.1684 60.2038 46.2383 60.1986 46.3057 60.196C46.3679 60.1908 46.4301 60.1856 46.4949 60.1778C46.5545 60.1726 46.6141 60.1674 46.6737 60.1597C46.7385 60.1519 46.8007 60.1441 46.8629 60.1363C46.907 60.1311 46.951 60.1259 46.9951 60.1208C46.9432 59.4437 46.8655 58.4553 46.8422 58.1751C46.6478 55.9545 45.9351 47.137 45.6215 40.5089V40.5064Z" fill="#0B1A47"/>
<path d="M51.6452 57.7704C43.1654 71.0109 42.5978 74.5727 42.8984 75.1382C43.1991 75.7038 43.9273 76.2096 44.6789 75.4988C45.4305 74.788 51.9562 59.6459 58.2798 55.7547C61.1902 53.9621 65.7153 51.7597 70.3621 49.661C72.609 48.6467 123.96 16.6686 138.162 8.1416C139.082 7.58904 139.725 6.67071 139.93 5.61749C140.134 4.56426 139.885 3.46953 139.238 2.61346C138.945 2.22433 138.647 1.83521 138.351 1.45646C137.149 -0.0870594 134.977 -0.455429 133.331 0.600391C120.368 8.91984 68.7526 43.4273 66.5212 44.6647C61.0192 47.7102 55.499 51.7493 51.6452 57.7704Z" fill="#50B1AF"/>
<path d="M50.3142 22.2721C49.3086 22.4667 48.2305 22.1398 47.9039 21.5457L46.9295 19.7713V30.205C46.9295 30.8276 46.0742 31.3335 45.0168 31.3335C43.9595 31.3335 43.1042 30.8276 43.1042 30.205V19.7713L42.1297 21.5457C41.8032 22.1398 40.7251 22.4641 39.7169 22.2721C38.714 22.0801 38.162 21.442 38.4885 20.8479L43.1975 12.2846C43.226 12.2353 43.2597 12.186 43.2986 12.1419C43.3038 12.1341 43.309 12.1264 43.3141 12.1186C43.366 12.0563 43.4308 12.0018 43.4981 11.9474C43.5163 11.9344 43.537 11.9214 43.5577 11.9084C43.6096 11.8695 43.6666 11.8332 43.7288 11.8021C43.7573 11.7865 43.7884 11.771 43.8195 11.758C43.8791 11.7294 43.9439 11.7035 44.0087 11.6776C44.0398 11.6672 44.0735 11.6542 44.1072 11.6438C44.2082 11.6101 44.3145 11.5816 44.4233 11.5608C44.5192 11.5427 44.6177 11.5271 44.7188 11.5193C44.7888 11.5115 44.8614 11.5115 44.9313 11.5089C44.9598 11.5089 44.9857 11.5063 45.0142 11.5063C45.0402 11.5063 45.0661 11.5089 45.092 11.5089C45.1646 11.5089 45.2371 11.5115 45.3097 11.5193C45.4108 11.5297 45.5093 11.5427 45.6026 11.5608H45.6077C45.7192 11.5842 45.8203 11.6127 45.9213 11.6438C45.9576 11.6542 45.9887 11.6672 46.0224 11.6802C46.0872 11.7035 46.1494 11.7294 46.2116 11.758C46.2427 11.7735 46.2738 11.7891 46.3049 11.8047C46.3645 11.8358 46.4215 11.8721 46.4759 11.911C46.4941 11.924 46.5174 11.937 46.5355 11.9525C46.6055 12.007 46.6677 12.0615 46.7196 12.1238C46.7248 12.1315 46.7299 12.1393 46.7351 12.1471C46.7714 12.1912 46.8077 12.2405 46.8362 12.2898L51.5426 20.8531C51.8692 21.4471 51.3197 22.0853 50.3142 22.2773V22.2721Z" fill="#50B1AF"/>
</svg>
