<svg width="54" height="54" viewBox="0 0 54 54" fill="none" xmlns="http://www.w3.org/2000/svg">
<rect width="54" height="54" rx="27" fill="#0D4EE3"/>
<g clip-path="url(#clip0_387_24373)">
<path d="M41.72 13.1969C40.44 13.1137 37.2512 12.7617 35.32 11.2886C34.82 10.9012 34.1213 10.9012 33.6213 11.2886C31.6891 12.7617 28.5013 13.1137 27.2213 13.1969C26.4997 13.2418 25.9364 13.8386 25.9333 14.5617V18.8678C25.9338 20.9514 26.4222 23.0059 27.3595 24.8667H13.6667C12.1946 24.8685 11.0018 26.0614 11 27.5334V40.3334C11.0018 41.8054 12.1946 42.9983 13.6667 43.0001H36.0667C37.5387 42.9983 38.7316 41.8054 38.7333 40.3334V28.6614C41.4457 26.1253 42.9897 22.5811 43 18.8678V14.5617C42.9972 13.8415 42.4385 13.2458 41.72 13.1969ZM37.6667 40.3334C37.6667 41.2171 36.9503 41.9334 36.0667 41.9334H13.6667C12.783 41.9334 12.0667 41.2171 12.0667 40.3334V27.5334C12.0667 26.6497 12.783 25.9334 13.6667 25.9334H27.96C28.0427 26.0662 28.12 26.2001 28.2069 26.3323C29.62 28.4367 31.5933 30.1041 33.904 31.1462C34.2628 31.308 34.6737 31.308 35.0325 31.1462C35.9675 30.7224 36.8512 30.1937 37.6667 29.5702V40.3334ZM41.9333 18.8678C41.9156 23.7505 39.0446 28.1719 34.5915 30.1745C34.5119 30.2099 34.4209 30.2099 34.3413 30.1745C32.2117 29.2142 30.3931 27.6774 29.0912 25.7377C27.7255 23.7071 26.9974 21.3149 27 18.8678V14.5617C27.0011 14.4022 27.1256 14.2709 27.2848 14.2614C28.9963 14.1505 32.1781 13.7281 34.2635 12.1366C34.3827 12.0434 34.5501 12.0434 34.6693 12.1366C36.7552 13.727 39.9371 14.1505 41.6485 14.2614C41.8077 14.2709 41.9322 14.4022 41.9333 14.5617V18.8678Z" fill="white"/>
<path d="M39.9565 15.1599C38.2212 14.9492 36.5382 14.4268 34.9885 13.618C34.6648 13.4346 34.2685 13.4346 33.9448 13.618C32.395 14.427 30.7118 14.9493 28.9763 15.1599C28.4543 15.2375 28.0675 15.685 28.0664 16.2127V18.8676C28.0641 21.1024 28.7287 23.287 29.9752 25.1418C30.9928 26.6525 32.3537 27.9007 33.9464 28.7844C34.2697 28.9615 34.661 28.9615 34.9843 28.7844C38.6024 26.7944 40.8549 22.9969 40.8664 18.8676V16.2127C40.8653 15.685 40.4785 15.2375 39.9565 15.1599ZM39.7997 18.8676C39.7888 22.61 37.7463 26.0511 34.4664 27.8532H34.4611C33.0162 27.0508 31.7818 25.9177 30.8589 24.5466C29.7313 22.8675 29.1304 20.8902 29.1331 18.8676L29.1272 16.2138C30.9942 15.9898 32.8041 15.4243 34.4664 14.5455C36.127 15.4233 37.9348 15.9884 39.7997 16.2127V18.8676Z" fill="white"/>
<path d="M15.266 31.7999H17.3993C18.283 31.7999 18.9993 31.0835 18.9993 30.1999V29.1332C18.9993 28.2495 18.283 27.5332 17.3993 27.5332H15.266C14.3824 27.5332 13.666 28.2495 13.666 29.1332V30.1999C13.666 31.0835 14.3824 31.7999 15.266 31.7999ZM14.7327 29.1332C14.7327 28.8387 14.9715 28.5999 15.266 28.5999H17.3993C17.6939 28.5999 17.9327 28.8387 17.9327 29.1332V30.1999C17.9327 30.4944 17.6939 30.7332 17.3993 30.7332H15.266C14.9715 30.7332 14.7327 30.4944 14.7327 30.1999V29.1332Z" fill="white"/>
<path d="M14.1993 34.4671H16.3327C16.6272 34.4671 16.866 34.2283 16.866 33.9337C16.866 33.6392 16.6272 33.4004 16.3327 33.4004H14.1993C13.9048 33.4004 13.666 33.6392 13.666 33.9337C13.666 34.2283 13.9048 34.4671 14.1993 34.4671Z" fill="white"/>
<path d="M20.6003 33.4004H18.4669C18.1724 33.4004 17.9336 33.6392 17.9336 33.9337C17.9336 34.2283 18.1724 34.4671 18.4669 34.4671H20.6003C20.8948 34.4671 21.1336 34.2283 21.1336 33.9337C21.1336 33.6392 20.8948 33.4004 20.6003 33.4004Z" fill="white"/>
<path d="M24.8659 33.4004H22.7326C22.438 33.4004 22.1992 33.6392 22.1992 33.9337C22.1992 34.2283 22.438 34.4671 22.7326 34.4671H24.8659C25.1604 34.4671 25.3992 34.2283 25.3992 33.9337C25.3992 33.6392 25.1604 33.4004 24.8659 33.4004Z" fill="white"/>
<path d="M29.1332 33.4004H26.9999C26.7053 33.4004 26.4666 33.6392 26.4666 33.9337C26.4666 34.2283 26.7053 34.4671 26.9999 34.4671H29.1332C29.4278 34.4671 29.6666 34.2283 29.6666 33.9337C29.6666 33.6392 29.4278 33.4004 29.1332 33.4004Z" fill="white"/>
<path d="M33.9324 33.9337C33.9324 33.6392 33.6936 33.4004 33.3991 33.4004H31.2658C30.9712 33.4004 30.7324 33.6392 30.7324 33.9337C30.7324 34.2283 30.9712 34.4671 31.2658 34.4671H33.3991C33.6936 34.4671 33.9324 34.2283 33.9324 33.9337Z" fill="white"/>
<path d="M17.9341 36.5996H16.3341C16.0396 36.5996 15.8008 36.8384 15.8008 37.1329C15.8008 37.4275 16.0396 37.6663 16.3341 37.6663H17.9341C18.2287 37.6663 18.4674 37.4275 18.4674 37.1329C18.4674 36.8384 18.2287 36.5996 17.9341 36.5996Z" fill="white"/>
<path d="M17.9327 38.7344H14.1993C13.9048 38.7344 13.666 38.9732 13.666 39.2677C13.666 39.5623 13.9048 39.801 14.1993 39.801H17.9327C18.2272 39.801 18.466 39.5623 18.466 39.2677C18.466 38.9732 18.2272 38.7344 17.9327 38.7344Z" fill="white"/>
<path d="M32.8674 18.4672V19.0005C32.2783 19.0005 31.8008 19.4781 31.8008 20.0672V23.2672C31.8008 23.8563 32.2783 24.3339 32.8674 24.3339H36.0674C36.6566 24.3339 37.1341 23.8563 37.1341 23.2672V20.0672C37.1341 19.4781 36.6566 19.0005 36.0674 19.0005V18.4672C36.0674 17.5835 35.3511 16.8672 34.4674 16.8672C33.5838 16.8672 32.8674 17.5835 32.8674 18.4672ZM33.9341 18.4672C33.9341 18.1726 34.1729 17.9339 34.4674 17.9339C34.762 17.9339 35.0008 18.1726 35.0008 18.4672V19.0005H33.9341V18.4672ZM35.5341 20.0672H36.0674V23.2672H32.8674V20.0672H35.5341Z" fill="white"/>
<path d="M34.4669 22.1995C34.7615 22.1995 35.0003 21.9607 35.0003 21.6661C35.0003 21.3716 34.7615 21.1328 34.4669 21.1328C34.1724 21.1328 33.9336 21.3716 33.9336 21.6661C33.9336 21.9607 34.1724 22.1995 34.4669 22.1995Z" fill="white"/>
<path d="M35.0008 39.2663H32.3341C32.0396 39.2663 31.8008 39.5051 31.8008 39.7996C31.8008 40.0942 32.0396 40.3329 32.3341 40.3329H35.5341C35.8287 40.3329 36.0674 40.0942 36.0674 39.7996V37.1329C36.0674 36.8384 35.8287 36.5996 35.5341 36.5996C35.2396 36.5996 35.0008 36.8384 35.0008 37.1329V39.2663Z" fill="white"/>
</g>
<defs>
<clipPath id="clip0_387_24373">
<rect width="32" height="32" fill="white" transform="translate(11 11)"/>
</clipPath>
</defs>
</svg>
