<svg width="60" height="60" viewBox="0 0 60 60" fill="none" xmlns="http://www.w3.org/2000/svg">
<path opacity="0.4" d="M52.2746 27.8C52.2746 40.025 43.3996 51.475 31.2746 54.825C30.4496 55.05 29.5496 55.05 28.7246 54.825C16.5996 51.475 7.72461 40.025 7.72461 27.8V16.825C7.72461 14.775 9.27465 12.45 11.1996 11.675L25.1246 5.97505C28.2496 4.70005 31.7746 4.70005 34.8996 5.97505L48.8246 11.675C50.7246 12.45 52.2997 14.775 52.2997 16.825L52.2746 27.8Z" fill="#000066"/>
<path d="M36.25 26.25C36.25 22.8 33.45 20 30 20C26.55 20 23.75 22.8 23.75 26.25C23.75 29.05 25.6 31.375 28.125 32.175V38.75C28.125 39.775 28.975 40.625 30 40.625C31.025 40.625 31.875 39.775 31.875 38.75V32.175C34.4 31.375 36.25 29.05 36.25 26.25Z" fill="#000066"/>
</svg>
