<svg width="75" height="75" viewBox="0 0 75 75" fill="none" xmlns="http://www.w3.org/2000/svg">
<g clip-path="url(#clip0)">
<path d="M37.5 27.3203C31.9775 27.3203 27.4951 31.8027 27.4951 37.3252C27.4951 42.8477 31.9775 47.3154 37.5 47.3154C43.0225 47.3154 47.5049 42.833 47.5049 37.3105C47.4902 31.8027 43.0225 27.3203 37.5 27.3203ZM37.5 44.8105C33.3545 44.8105 30 41.4561 30 37.3105C30 33.165 33.3545 29.8105 37.5 29.8105C41.6455 29.8105 45 33.165 45 37.3105C45 41.4561 41.6455 44.8105 37.5 44.8105Z" fill="#0C214C"/>
<path d="M39.1112 35.1854L36.2401 38.0565L35.8739 37.6903C35.3905 37.2215 34.5995 37.2215 34.1161 37.7049C33.6327 38.1883 33.6327 38.9647 34.1015 39.4627L35.3466 40.7079C35.83 41.1912 36.621 41.1912 37.119 40.7079L40.869 36.9578C41.3378 36.4745 41.3378 35.6834 40.8544 35.2C40.3856 34.7166 39.6093 34.702 39.1112 35.1854Z" fill="#0C214C"/>
<path d="M63.501 10.5178C63.4131 10.4006 63.2959 10.2834 63.1787 10.2102C48.7646 -3.39819 26.2354 -3.39819 11.8359 10.2102C11.7188 10.2834 11.6016 10.386 11.5137 10.5178C4.16016 17.5637 0 27.3049 0 37.5002C0 47.6956 4.14551 57.4368 11.499 64.4973C11.5869 64.6145 11.7041 64.7317 11.8213 64.8049C26.25 78.4133 48.7939 78.4133 63.1934 64.7756C63.2959 64.7024 63.3838 64.6145 63.457 64.5266C70.8252 57.4807 74.9854 47.7249 75 37.5295C75.0146 27.3342 70.8545 17.5784 63.501 10.5178ZM62.4756 36.2551C62.4023 28.301 60.4248 20.4934 56.6895 13.4915C58.9014 13.1692 60.7471 12.8469 62.0801 12.5979C68.4375 18.8528 72.1729 27.3196 72.4805 36.2405H62.4756V36.2551ZM51.2549 40.0637C51.2109 44.8391 48.6182 49.2043 44.458 51.5481L37.5 55.8401L30.542 51.5334C26.3818 49.2043 23.7891 44.8245 23.7451 40.0491V23.218C27.876 24.8293 32.5781 23.9211 35.8008 20.8743L37.4854 19.2336L39.1699 20.8743C42.4072 23.9211 47.0947 24.8293 51.2256 23.2034V40.0637H51.2549ZM38.7451 2.56372C44.0332 3.01782 48.8525 6.32837 52.5586 11.5286C47.9736 12.0999 43.3594 12.4221 38.7451 12.4954V2.56372ZM36.2549 12.4807C31.6406 12.4075 27.0264 12.0852 22.4414 11.5139C26.1475 6.31372 30.9521 3.00317 36.2549 2.54907V12.4807ZM36.2549 14.9856V16.9778L34.0723 19.1018C31.084 21.8704 26.6162 22.3098 23.1299 20.1711C22.749 19.9514 22.2656 19.9368 21.8848 20.1711C21.5039 20.3909 21.2549 20.801 21.2549 21.2551V36.2551H15.0293C15.0879 28.4036 17.1094 20.6985 20.9473 13.8577C26.0156 14.5168 31.1279 14.8977 36.2549 14.9856ZM21.2549 38.7454V40.0491C21.2842 45.6887 24.3311 50.8743 29.2383 53.6575L36.2549 58.0081V60.0149C31.1279 60.1028 26.0156 60.4836 20.9326 61.1575C17.1094 54.302 15.0732 46.5969 15.0146 38.76H21.2549V38.7454ZM36.2549 62.5198V72.4514C30.9668 71.9973 26.1475 68.6868 22.4414 63.4866C27.0264 62.9153 31.6406 62.593 36.2549 62.5198ZM38.7451 62.5198C43.3594 62.593 47.9736 62.9153 52.5586 63.4866C48.8525 68.6868 44.0479 71.9973 38.7451 72.4514V62.5198ZM38.7451 60.0149V58.0081L45.7617 53.6575C50.6689 50.8889 53.7158 45.6887 53.7451 40.0491V38.7454H59.9707C59.9121 46.5969 57.8906 54.302 54.0527 61.1428C48.9844 60.4836 43.8721 60.1028 38.7451 60.0149ZM53.7451 36.2551V21.2551C53.7451 20.8157 53.5107 20.3909 53.1152 20.1711C52.7344 19.9514 52.251 19.9514 51.8701 20.1711C48.3984 22.2952 43.9307 21.8557 40.9277 19.1018L38.7451 16.9778V14.9856C43.8721 14.8977 48.9844 14.5168 54.0674 13.843C57.8906 20.6985 59.9268 28.4036 59.9854 36.2405H53.7451V36.2551ZM59.7217 10.4739C58.4619 10.6936 56.9678 10.928 55.2832 11.1624C53.7012 8.70142 51.7529 6.50415 49.5117 4.6145C53.2178 5.99146 56.6748 7.969 59.7217 10.4739ZM19.7168 11.1624C18.0322 10.928 16.5381 10.6936 15.2783 10.4739C18.3252 7.95435 21.7822 5.97681 25.4883 4.6145C23.2471 6.50415 21.3135 8.71606 19.7168 11.1624ZM12.9346 12.5979C14.2676 12.8469 16.1133 13.1545 18.3252 13.4915C14.5752 20.4934 12.5977 28.301 12.5244 36.2551H2.53418C2.8418 27.3342 6.5625 18.8674 12.9346 12.5979ZM2.53418 38.7454H12.5244C12.5977 46.6995 14.5752 54.5071 18.3105 61.509C16.0986 61.8313 14.2529 62.1536 12.9199 62.4026C6.5625 56.1331 2.8418 47.6663 2.53418 38.7454ZM15.2783 64.5266C16.5381 64.3069 18.0322 64.0725 19.7168 63.8381C21.2988 66.2991 23.2471 68.4963 25.4736 70.386C21.7822 69.009 18.3252 67.0315 15.2783 64.5266ZM55.2832 63.8381C56.9678 64.0725 58.4619 64.3069 59.7217 64.5266C56.6748 67.0461 53.2178 69.0237 49.5117 70.386C51.7529 68.4963 53.6865 66.2844 55.2832 63.8381ZM62.0801 62.4026C60.7471 62.1536 58.9014 61.8459 56.6895 61.509C60.4248 54.4924 62.4023 46.6848 62.4756 38.7454H72.4658C72.1582 47.6663 68.4375 56.1331 62.0801 62.4026Z" fill="#0C214C"/>
</g>
<defs>
<clipPath id="clip0">
<rect width="75" height="75" fill="white"/>
</clipPath>
</defs>
</svg>
