<svg width="64" height="64" viewBox="0 0 64 64" fill="none" xmlns="http://www.w3.org/2000/svg">
<g clip-path="url(#clip0)">
<path d="M18.302 12.7947C24.5934 9.95668 29.2433 6.2933 31.7488 2.2008C31.787 2.13843 31.8418 2.1068 31.9117 2.1068C31.9815 2.1068 32.0363 2.13843 32.0745 2.2008C33.9259 5.22468 36.8978 7.98068 40.9079 10.3923C44.8309 12.7517 49.5495 14.6646 54.9322 16.0777C55.0609 16.1116 55.1532 16.2212 55.162 16.3507C55.2334 17.4008 55.2695 18.5054 55.2695 19.6342C55.2695 23.8196 54.1695 28.5147 52 33.5893C51.7972 34.0639 52.0174 34.6132 52.4922 34.8163C52.8282 34.9493 53.4327 34.8987 53.7192 34.3242C55.9884 29.0159 57.139 24.0736 57.139 19.6342C57.139 18.4634 57.1014 17.3161 57.0272 16.2241C56.964 15.2928 56.3129 14.5073 55.4069 14.2697C44.9938 11.5356 37.0707 6.78093 33.6688 1.22468C33.2903 0.606427 32.6334 0.237427 31.9115 0.237427C31.1897 0.237427 30.5328 0.606427 30.1543 1.22468C27.8454 4.99593 23.4812 8.40743 17.5332 11.0906C17.0627 11.3028 16.8532 11.8564 17.0654 12.3271C17.2778 12.7973 17.8315 13.0066 18.302 12.7947Z" fill="url(#paint0_linear)"/>
<path d="M41.4444 38.3265V30.7815C41.4444 29.0883 40.1388 27.6951 38.4814 27.5538V26.1213C38.4814 22.4986 35.5343 19.5514 31.9115 19.5514C28.2888 19.5514 25.3417 22.4985 25.3417 26.1213V27.5539C23.6843 27.6951 22.3787 29.0883 22.3787 30.7816V38.3266C22.3787 40.1134 23.8323 41.567 25.619 41.567H38.204C39.9909 41.5669 41.4444 40.1134 41.4444 38.3265ZM31.9117 21.4209C34.5034 21.4209 36.612 23.5295 36.612 26.1213V27.5413H27.2112V26.1213C27.2112 23.5294 29.3198 21.4209 31.9117 21.4209ZM24.2482 38.3265V30.7815C24.2482 30.0256 24.8632 29.4106 25.619 29.4106H38.204C38.9599 29.4106 39.5749 30.0256 39.5749 30.7815V38.3265C39.5749 39.0824 38.9599 39.6974 38.204 39.6974H25.619C24.8632 39.6975 24.2482 39.0825 24.2482 38.3265Z" fill="url(#paint1_linear)"/>
<path d="M31.8407 32.1902C30.8943 32.2501 30.121 33.0127 30.0492 33.9582C29.985 34.8027 30.4672 35.5424 31.1788 35.8622V37.0666C31.1788 37.2925 31.3618 37.4755 31.5877 37.4755H32.3438C32.5697 37.4755 32.7527 37.2925 32.7527 37.0666V35.8622C33.4218 35.5615 33.8881 34.8896 33.8881 34.1085C33.8881 33.0055 32.959 32.1195 31.8407 32.1902Z" fill="url(#paint2_linear)"/>
<path d="M61.2757 45.6015C60.1978 45.6015 59.2641 46.231 58.8228 47.1417H46.5747C47.1172 46.3395 47.6549 45.5196 48.1836 44.6841H54.5597C55.0091 44.6841 55.4315 44.5091 55.7495 44.1914L57.6541 42.2866H58.7724C59.1897 43.2565 60.1546 43.9375 61.2757 43.9375C62.7779 43.9375 64 42.7153 64 41.2132C64 39.7112 62.7779 38.4891 61.2757 38.4891C60.0506 38.4891 59.012 39.3022 58.6706 40.4171H57.5768C57.1273 40.4171 56.7049 40.5921 56.387 40.9097L54.4823 42.8146H49.3351C50.191 41.3858 51.014 39.9189 51.7842 38.4232C52.0206 37.9642 51.8401 37.4006 51.3811 37.1642C50.9221 36.928 50.3586 37.1083 50.1221 37.5673C44.2636 48.9436 35.011 58.9317 32.3148 61.7221C32.208 61.8326 32.0648 61.8935 31.9115 61.8935C31.7583 61.8935 31.615 61.8326 31.5082 61.7221C29.2509 59.386 23.4395 53.1056 18.2436 45.26C11.8138 35.551 8.5535 26.9292 8.5535 19.6342C8.5535 18.5055 8.58963 17.4008 8.661 16.3503C8.66975 16.2211 8.76213 16.1116 8.89087 16.0777C10.6321 15.6206 12.3334 15.1007 13.9473 14.533C14.4342 14.3616 14.69 13.828 14.5188 13.341C14.3472 12.854 13.8135 12.5983 13.3267 12.7695C11.7606 13.3206 10.1084 13.8253 8.41613 14.2696C7.50988 14.5075 6.85875 15.293 6.79588 16.2238C6.72162 17.3161 6.684 18.4635 6.684 19.6341C6.684 26.4043 9.30838 34.1886 14.4893 42.8145H9.341L7.43625 40.9097C7.1185 40.5921 6.696 40.4171 6.2465 40.4171H5.32925C4.98787 39.3022 3.94925 38.4891 2.72412 38.4891C1.22212 38.489 0 39.7111 0 41.2131C0 42.7152 1.22213 43.9373 2.72425 43.9373C3.84525 43.9373 4.81012 43.2563 5.22762 42.2865H6.16925L8.07388 44.1912C8.39175 44.509 8.81425 44.684 9.26363 44.684H15.6442C15.9825 45.2171 16.3283 45.7528 16.6854 46.2921C16.8744 46.5776 17.0645 46.8603 17.2549 47.1416H5.17725C4.73588 46.2308 3.80225 45.6013 2.72425 45.6013C1.22213 45.6015 0 46.8235 0 48.3256C0 49.8276 1.22213 51.0497 2.72425 51.0497C3.98962 51.0497 5.05613 50.1824 5.36088 49.0111H18.5511C19.1612 49.8714 19.7726 50.7068 20.3797 51.5151H13.0063C12.624 50.472 11.6213 49.7256 10.4474 49.7256C8.94525 49.7256 7.72312 50.9477 7.72312 52.4498C7.72312 53.952 8.94525 55.1741 10.4474 55.1741C11.6213 55.1741 12.624 54.4277 13.0063 53.3846H21.8129C22.4456 54.1935 23.0679 54.9686 23.6719 55.7044H19.6294C19.1801 55.7044 18.7578 55.8792 18.4395 56.1971L16.5349 58.1019H15.4289C15.0466 57.0587 14.0439 56.3124 12.8699 56.3124C11.3678 56.3124 10.1456 57.5345 10.1456 59.0366C10.1456 60.5386 11.3678 61.7607 12.8699 61.7607C14.0437 61.7607 15.0466 61.0144 15.4289 59.9714H16.6122C17.0614 59.9714 17.4838 59.7965 17.8021 59.4785L19.7066 57.5739H25.2364C27.355 60.0581 29.1284 61.9494 30.164 63.0212C30.6264 63.4996 31.247 63.763 31.9116 63.763C32.5762 63.763 33.1969 63.4996 33.6592 63.0212C34.8245 61.8154 36.5716 59.9445 38.598 57.5714C38.6149 57.5722 38.6315 57.5739 38.6486 57.5739H44.1166L46.0215 59.4789C46.3394 59.7965 46.7619 59.9714 47.211 59.9714H48.3944C48.7766 61.0144 49.7795 61.7607 50.9534 61.7607C52.4555 61.7607 53.6776 60.5386 53.6776 59.0366C53.6776 57.5345 52.4555 56.3124 50.9534 56.3124C49.7795 56.3124 48.7766 57.0587 48.3944 58.1019H47.2884L45.3834 56.1967C45.0656 55.8792 44.6431 55.7044 44.1939 55.7044H40.1615C40.7675 54.9667 41.3895 54.1922 42.0213 53.3846H50.8526C51.2349 54.4277 52.2376 55.1741 53.4115 55.1741C54.9136 55.1741 56.1357 53.952 56.1357 52.4498C56.1357 50.9477 54.9136 49.7256 53.4115 49.7256C52.2376 49.7256 51.2349 50.472 50.8526 51.5151H43.4543C44.061 50.7067 44.6716 49.8707 45.2806 49.0111H58.6391C58.9439 50.1824 60.0104 51.0497 61.2757 51.0497C62.7779 51.0497 64 49.8276 64 48.3256C64 46.8235 62.7779 45.6015 61.2757 45.6015ZM61.2757 40.3585C61.747 40.3585 62.1305 40.7419 62.1305 41.2131C62.1305 41.6844 61.747 42.0679 61.2757 42.0679C60.8045 42.0679 60.4211 41.6844 60.4211 41.2131C60.4211 40.7419 60.8045 40.3585 61.2757 40.3585ZM2.72425 42.0679C2.25288 42.0679 1.8695 41.6844 1.8695 41.2131C1.8695 40.7419 2.25288 40.3585 2.72425 40.3585C3.1955 40.3585 3.57888 40.7419 3.57888 41.2131C3.57888 41.6844 3.1955 42.0679 2.72425 42.0679ZM2.72425 49.1802C2.25288 49.1802 1.8695 48.7969 1.8695 48.3256C1.8695 47.8542 2.25288 47.4708 2.72425 47.4708C3.1955 47.4708 3.57888 47.8542 3.57888 48.3256C3.57888 48.7969 3.1955 49.1802 2.72425 49.1802ZM10.4474 53.3046C9.976 53.3046 9.59262 52.9212 9.59262 52.4498C9.59262 51.9785 9.976 51.5951 10.4474 51.5951C10.9186 51.5951 11.302 51.9785 11.302 52.4498C11.302 52.9212 10.9186 53.3046 10.4474 53.3046ZM12.8701 59.8912C12.3988 59.8912 12.0154 59.5079 12.0154 59.0366C12.0154 58.5654 12.3988 58.1819 12.8701 58.1819C13.3415 58.1819 13.7249 58.5654 13.7249 59.0366C13.7249 59.5079 13.3415 59.8912 12.8701 59.8912ZM50.9533 58.1819C51.4246 58.1819 51.808 58.5654 51.808 59.0366C51.808 59.5079 51.4246 59.8912 50.9533 59.8912C50.4819 59.8912 50.0985 59.5079 50.0985 59.0366C50.0985 58.5654 50.4819 58.1819 50.9533 58.1819ZM53.4116 51.5951C53.883 51.5951 54.2664 51.9785 54.2664 52.4498C54.2664 52.9212 53.883 53.3046 53.4116 53.3046C52.9404 53.3046 52.557 52.9212 52.557 52.4498C52.557 51.9785 52.9404 51.5951 53.4116 51.5951ZM61.2757 49.1802C60.8045 49.1802 60.4211 48.7969 60.4211 48.3256C60.4211 47.8542 60.8045 47.4708 61.2757 47.4708C61.747 47.4708 62.1305 47.8542 62.1305 48.3256C62.1305 48.7969 61.747 49.1802 61.2757 49.1802Z" fill="url(#paint3_linear)"/>
<path d="M33.5029 55.5486C33.8814 54.6354 33.4479 53.5882 32.5347 53.2097C31.6215 52.8312 30.5744 53.2646 30.1959 54.1778C29.8174 55.091 30.2508 56.1382 31.164 56.5167C32.0772 56.8952 33.1243 56.4618 33.5029 55.5486Z" fill="url(#paint4_linear)"/>
<path d="M32.1146 11.1552C33.0901 10.9971 33.7527 10.0782 33.5945 9.10277C33.4364 8.12738 32.5175 7.46485 31.542 7.62298C30.5665 7.78111 29.9039 8.70002 30.0621 9.67541C30.2202 10.6508 31.1391 11.3133 32.1146 11.1552Z" fill="url(#paint5_linear)"/>
<path d="M13.2568 18.2222C12.2685 18.2222 11.4674 19.0233 11.4674 20.0117C11.4674 20.9999 12.2685 21.801 13.2568 21.801C14.245 21.801 15.0463 20.9999 15.0463 20.0117C15.0462 19.0234 14.245 18.2222 13.2568 18.2222Z" fill="url(#paint6_linear)"/>
<path d="M50.5667 18.2222C49.5785 18.2222 48.7772 19.0233 48.7772 20.0117C48.7772 20.9999 49.5783 21.801 50.5667 21.801C51.555 21.801 52.3561 20.9999 52.3561 20.0117C52.3561 19.0234 51.555 18.2222 50.5667 18.2222Z" fill="url(#paint7_linear)"/>
</g>
<defs>
<linearGradient id="paint0_linear" x1="16.9825" y1="17.5574" x2="57.139" y2="17.5574" gradientUnits="userSpaceOnUse">
<stop stop-color="#4E2267"/>
<stop offset="1" stop-color="#9441C4"/>
</linearGradient>
<linearGradient id="paint1_linear" x1="22.3787" y1="30.5592" x2="41.4444" y2="30.5592" gradientUnits="userSpaceOnUse">
<stop stop-color="#4E2267"/>
<stop offset="1" stop-color="#9441C4"/>
</linearGradient>
<linearGradient id="paint2_linear" x1="30.0435" y1="34.8309" x2="33.8881" y2="34.8309" gradientUnits="userSpaceOnUse">
<stop stop-color="#4E2267"/>
<stop offset="1" stop-color="#9441C4"/>
</linearGradient>
<linearGradient id="paint3_linear" x1="2.38419e-07" y1="38.2396" x2="64" y2="38.2396" gradientUnits="userSpaceOnUse">
<stop stop-color="#4E2267"/>
<stop offset="1" stop-color="#9441C4"/>
</linearGradient>
<linearGradient id="paint4_linear" x1="31.164" y1="56.5167" x2="32.5347" y2="53.2097" gradientUnits="userSpaceOnUse">
<stop stop-color="#4E2267"/>
<stop offset="1" stop-color="#9441C4"/>
</linearGradient>
<linearGradient id="paint5_linear" x1="30.0621" y1="9.67541" x2="33.5945" y2="9.10277" gradientUnits="userSpaceOnUse">
<stop stop-color="#4E2267"/>
<stop offset="1" stop-color="#9441C4"/>
</linearGradient>
<linearGradient id="paint6_linear" x1="11.4674" y1="20.0116" x2="15.0463" y2="20.0116" gradientUnits="userSpaceOnUse">
<stop stop-color="#4E2267"/>
<stop offset="1" stop-color="#9441C4"/>
</linearGradient>
<linearGradient id="paint7_linear" x1="48.7772" y1="20.0116" x2="52.3561" y2="20.0116" gradientUnits="userSpaceOnUse">
<stop stop-color="#4E2267"/>
<stop offset="1" stop-color="#9441C4"/>
</linearGradient>
<clipPath id="clip0">
<rect width="64" height="64" fill="white"/>
</clipPath>
</defs>
</svg>
