<svg width="37" height="36" viewBox="0 0 37 36" fill="none" xmlns="http://www.w3.org/2000/svg">
<path opacity="0.4" d="M29.5392 6.96001L9.24422 27.255L7.59422 26.025C6.61922 25.29 5.82422 23.7 5.82422 22.47V10.335C5.82422 8.64001 7.11422 6.78001 8.68922 6.18001L16.9392 3.09001C17.7942 2.77501 19.2042 2.77501 20.0592 3.09001L28.3092 6.18001C28.7442 6.34501 29.1642 6.61501 29.5392 6.96001Z" fill="black"/>
<path opacity="0.4" d="M31.1755 10.335V22.47C31.1755 23.7 30.3805 25.29 29.4055 26.025L21.1555 32.19C19.6855 33.27 17.3155 33.27 15.8455 32.19L11.8105 29.19L31.1305 9.87C31.1605 10.02 31.1755 10.185 31.1755 10.335Z" fill="black"/>
<path d="M33.1553 3.34495C32.7053 2.89495 31.9703 2.89495 31.5203 3.34495L3.84531 31.0349C3.39531 31.4849 3.39531 32.2199 3.84531 32.6699C4.07031 32.8799 4.35531 32.9999 4.65531 32.9999C4.95531 32.9999 5.24031 32.8799 5.46531 32.6549L33.1553 4.96495C33.6203 4.51495 33.6203 3.79495 33.1553 3.34495Z" fill="black"/>
</svg>
