<svg width="38" height="40" viewBox="0 0 38 40" fill="none" xmlns="http://www.w3.org/2000/svg">
<g clip-path="url(#clip0)">
<path d="M13.4575 8.1943L2.39457 7.94663C1.23874 7.92599 0.268663 8.85478 0.248023 10.0106L0.000344909 21.0942C-0.0202949 22.25 0.887858 23.2201 2.06433 23.2407L13.1273 23.4884C14.2831 23.5091 15.2532 22.6009 15.2738 21.4244L15.5215 10.3615C15.5421 9.18502 14.634 8.21494 13.4575 8.1943Z" fill="#ED2939"/>
<path d="M14.51 8.50391C13.8702 8.85478 13.4368 9.51526 13.4161 10.2996L13.2304 19.0921C13.2097 20.3512 12.1571 21.3419 10.8981 21.3212L2.1055 21.1355C1.32119 21.1148 0.640072 21.5276 0.268555 22.1468C0.619432 22.7867 1.27991 23.2201 2.06422 23.2407L13.1272 23.4884C14.283 23.5091 15.2531 22.6009 15.2737 21.4244L15.5214 10.3615C15.542 9.57718 15.1292 8.87542 14.51 8.50391Z" fill="#B32D11"/>
<path d="M31.1459 31.5583L25.8208 21.8576C25.2635 20.8462 23.9839 20.4541 22.9519 21.032L13.2512 26.3571C12.2398 26.9144 11.8476 28.194 12.4256 29.226L17.7506 38.9267C18.3079 39.9381 19.5876 40.3302 20.6196 39.7523L30.3203 34.4273C31.3316 33.8493 31.7032 32.5697 31.1459 31.5583Z" fill="#0A4586"/>
<path d="M25.8202 21.8371C25.4487 21.156 24.7469 20.7638 24.0245 20.7432C23.653 21.3624 23.6117 22.1673 23.9832 22.8484L28.2144 30.5471C28.813 31.6616 28.4208 33.0445 27.3062 33.6431L19.6076 37.8742C18.9265 38.2457 18.5343 38.9475 18.5137 39.6699C19.1329 40.0414 19.9378 40.0827 20.6189 39.7112L30.3197 34.3861C31.331 33.8288 31.7232 32.5491 31.1453 31.5172L25.8202 21.8371Z" fill="#093B73"/>
<path d="M23.0346 27.678C23.9123 27.678 24.6238 26.9665 24.6238 26.0888C24.6238 25.2111 23.9123 24.4995 23.0346 24.4995C22.1569 24.4995 21.4453 25.2111 21.4453 26.0888C21.4453 26.9665 22.1569 27.678 23.0346 27.678Z" fill="#FFF9EB"/>
<path d="M20.5365 36.244C21.4143 36.244 22.1258 35.5324 22.1258 34.6547C22.1258 33.777 21.4143 33.0654 20.5365 33.0654C19.6588 33.0654 18.9473 33.777 18.9473 34.6547C18.9473 35.5324 19.6588 36.244 20.5365 36.244Z" fill="#FFF9EB"/>
<path d="M21.7758 31.971C22.6535 31.971 23.3651 31.2595 23.3651 30.3817C23.3651 29.504 22.6535 28.7925 21.7758 28.7925C20.8981 28.7925 20.1865 29.504 20.1865 30.3817C20.1865 31.2595 20.8981 31.971 21.7758 31.971Z" fill="#FFF9EB"/>
<path d="M31.8262 18.3284L37.4402 8.77212C38.0387 7.76077 37.6879 6.4811 36.6972 5.88254L27.1409 0.28915C26.1296 -0.309405 24.8499 0.0414718 24.2513 1.03218L18.6373 10.5884C18.0387 11.5998 18.3896 12.8794 19.3803 13.478L28.9366 19.092C29.9479 19.67 31.2276 19.3397 31.8262 18.3284Z" fill="#3DA8FB"/>
<path d="M37.4415 8.79276C37.8336 8.11165 37.813 7.32733 37.4621 6.6875C36.7397 6.6875 36.0173 7.05902 35.6252 7.71949L31.1669 15.2943C30.5271 16.3882 29.1236 16.7391 28.0503 16.0993L20.4549 11.6617C19.7738 11.2695 18.9894 11.2902 18.3496 11.6411C18.3496 12.3635 18.7211 13.0858 19.3816 13.478L28.9378 19.092C29.9492 19.6906 31.2289 19.3397 31.8274 18.349L37.4415 8.79276Z" fill="#3799E6"/>
<path d="M30.7533 10.5472C31.6311 10.5472 32.3426 9.83565 32.3426 8.95792C32.3426 8.08019 31.6311 7.36865 30.7533 7.36865C29.8756 7.36865 29.1641 8.08019 29.1641 8.95792C29.1641 9.83565 29.8756 10.5472 30.7533 10.5472Z" fill="#FFF9EB"/>
<path d="M25.1186 12.0535C25.9963 12.0535 26.7078 11.342 26.7078 10.4643C26.7078 9.58654 25.9963 8.875 25.1186 8.875C24.2408 8.875 23.5293 9.58654 23.5293 10.4643C23.5293 11.342 24.2408 12.0535 25.1186 12.0535Z" fill="#FFF9EB"/>
<path d="M4.66544 14.0765C5.54317 14.0765 6.25471 13.3649 6.25471 12.4872C6.25471 11.6095 5.54317 10.8979 4.66544 10.8979C3.78771 10.8979 3.07617 11.6095 3.07617 12.4872C3.07617 13.3649 3.78771 14.0765 4.66544 14.0765Z" fill="#FFF9EB"/>
<path d="M11.0014 14.221C11.8791 14.221 12.5906 13.5095 12.5906 12.6317C12.5906 11.754 11.8791 11.0425 11.0014 11.0425C10.1236 11.0425 9.41211 11.754 9.41211 12.6317C9.41211 13.5095 10.1236 14.221 11.0014 14.221Z" fill="#FFF9EB"/>
<path d="M4.54142 20.3924C5.41914 20.3924 6.13068 19.6809 6.13068 18.8031C6.13068 17.9254 5.41914 17.2139 4.54142 17.2139C3.66369 17.2139 2.95215 17.9254 2.95215 18.8031C2.95215 19.6809 3.66369 20.3924 4.54142 20.3924Z" fill="#FFF9EB"/>
<path d="M10.8568 20.5369C11.7346 20.5369 12.4461 19.8254 12.4461 18.9477C12.4461 18.0699 11.7346 17.3584 10.8568 17.3584C9.97912 17.3584 9.26758 18.0699 9.26758 18.9477C9.26758 19.8254 9.97912 20.5369 10.8568 20.5369Z" fill="#FFF9EB"/>
</g>
<defs>
<clipPath id="clip0">
<rect width="37.7296" height="40" fill="white"/>
</clipPath>
</defs>
</svg>
