<svg width="55" height="54" viewBox="0 0 55 54" fill="none" xmlns="http://www.w3.org/2000/svg">
<g clip-path="url(#clip0_461_4450)">
<path d="M35.0012 22.2559H50.0759C51.8718 22.2559 53.3263 23.6522 53.3263 25.3763V47.3094C53.3263 49.0334 51.8718 50.4298 50.0759 50.4298H27.2289C25.433 50.4298 23.9785 49.0334 23.9785 47.3094V37.4352" stroke="#000066" stroke-width="1.76087" stroke-miterlimit="10" stroke-linecap="round" stroke-linejoin="round"/>
<path d="M27.8662 33.9769H4.89937C3.11896 33.9769 1.67578 32.5334 1.67578 30.7525V7.78005C1.67578 5.9992 3.11896 4.55566 4.89937 4.55566H27.8662C29.6466 4.55566 31.0898 5.9992 31.0898 7.78005V30.7525C31.0898 32.5334 29.6466 33.9769 27.8662 33.9769Z" stroke="#CB0101" stroke-width="1.76087" stroke-miterlimit="10" stroke-linecap="round" stroke-linejoin="round"/>
<path d="M16.3428 20.786C17.1837 20.786 17.8654 20.1042 17.8654 19.2631C17.8654 18.4221 17.1837 17.7402 16.3428 17.7402C15.502 17.7402 14.8203 18.4221 14.8203 19.2631C14.8203 20.1042 15.502 20.786 16.3428 20.786Z" stroke="#CB0101" stroke-width="1.76087" stroke-miterlimit="10" stroke-linecap="round" stroke-linejoin="round"/>
<path d="M11.0119 12.4077C11.0119 13.246 10.3324 13.9306 9.48932 13.9306C8.65119 13.9306 7.9668 13.251 7.9668 12.4077C7.9668 11.5693 8.64623 10.8848 9.48932 10.8848C10.3275 10.8897 11.0119 11.5693 11.0119 12.4077Z" stroke="#CB0101" stroke-width="1.76087" stroke-miterlimit="10" stroke-linecap="round" stroke-linejoin="round"/>
<path d="M24.7931 12.3383C24.7931 13.1767 24.1136 13.8612 23.2705 13.8612C22.4324 13.8612 21.748 13.1816 21.748 12.3383C21.748 11.495 22.4275 10.8154 23.2705 10.8154C24.1136 10.8204 24.7931 11.5 24.7931 12.3383Z" stroke="#CB0101" stroke-width="1.76087" stroke-miterlimit="10" stroke-linecap="round" stroke-linejoin="round"/>
<path d="M9.48932 28.4607C10.3302 28.4607 11.0119 27.7789 11.0119 26.9378C11.0119 26.0967 10.3302 25.4149 9.48932 25.4149C8.64846 25.4149 7.9668 26.0967 7.9668 26.9378C7.9668 27.7789 8.64846 28.4607 9.48932 28.4607Z" stroke="#CB0101" stroke-width="1.76087" stroke-miterlimit="10" stroke-linecap="round" stroke-linejoin="round"/>
<path d="M24.7931 26.8686C24.7931 27.7069 24.1136 28.3915 23.2705 28.3915C22.4324 28.3915 21.748 27.7119 21.748 26.8686C21.748 26.0253 22.4275 25.3457 23.2705 25.3457C24.1136 25.3507 24.7931 26.0303 24.7931 26.8686Z" stroke="#CB0101" stroke-width="1.76087" stroke-miterlimit="10" stroke-linecap="round" stroke-linejoin="round"/>
<path d="M48.1498 29.6452C48.1498 30.4821 47.4714 31.1654 46.6296 31.1654C45.7927 31.1654 45.1094 30.487 45.1094 29.6452C45.1094 28.8084 45.7878 28.125 46.6296 28.125C47.4665 28.13 48.1498 28.8084 48.1498 29.6452Z" stroke="#000066" stroke-width="1.76087" stroke-miterlimit="10" stroke-linecap="round" stroke-linejoin="round"/>
<path d="M48.1498 36.6882C48.1498 37.525 47.4714 38.2084 46.6296 38.2084C45.7927 38.2084 45.1094 37.53 45.1094 36.6882C45.1094 35.8513 45.7878 35.168 46.6296 35.168C47.4665 35.168 48.1498 35.8464 48.1498 36.6882Z" stroke="#000066" stroke-width="1.76087" stroke-miterlimit="10" stroke-linecap="round" stroke-linejoin="round"/>
<path d="M32.5417 38.2084C33.3813 38.2084 34.0619 37.5278 34.0619 36.6882C34.0619 35.8486 33.3813 35.168 32.5417 35.168C31.7021 35.168 31.0215 35.8486 31.0215 36.6882C31.0215 37.5278 31.7021 38.2084 32.5417 38.2084Z" stroke="#000066" stroke-width="1.76087" stroke-miterlimit="10" stroke-linecap="round" stroke-linejoin="round"/>
<path d="M32.5417 45.2523C33.3813 45.2523 34.0619 44.5717 34.0619 43.7321C34.0619 42.8925 33.3813 42.2119 32.5417 42.2119C31.7021 42.2119 31.0215 42.8925 31.0215 43.7321C31.0215 44.5717 31.7021 45.2523 32.5417 45.2523Z" stroke="#000066" stroke-width="1.76087" stroke-miterlimit="10" stroke-linecap="round" stroke-linejoin="round"/>
<path d="M48.1498 43.7321C48.1498 44.569 47.4714 45.2523 46.6296 45.2523C45.7927 45.2523 45.1094 44.5739 45.1094 43.7321C45.1094 42.8953 45.7878 42.2119 46.6296 42.2119C47.4665 42.2169 48.1498 42.8953 48.1498 43.7321Z" stroke="#000066" stroke-width="1.76087" stroke-miterlimit="10" stroke-linecap="round" stroke-linejoin="round"/>
</g>
<defs>
<clipPath id="clip0_461_4450">
<rect width="54" height="54" fill="white" transform="translate(0.5)"/>
</clipPath>
</defs>
</svg>
