<svg width="64" height="64" viewBox="0 0 64 64" fill="none" xmlns="http://www.w3.org/2000/svg">
<path d="M31.9988 0C16.0437 0 3.54492 5.38879 3.54492 12.2697V18.9667C3.54492 25.845 16.0437 31.2339 31.9988 31.2339C47.9549 31.2339 60.4551 25.8451 60.4551 18.9667V12.2697C60.4551 5.38879 47.9549 0 31.9988 0ZM57.9368 18.9655C57.9368 24.7107 44.2683 28.7145 31.9986 28.7145C19.7314 28.7145 6.06289 24.7107 6.06289 18.9655V12.2684C6.06289 6.522 19.7302 2.51688 31.9986 2.51688C44.267 2.51688 57.9368 6.522 57.9368 12.2684V18.9655Z" fill="url(#paint0_linear)"/>
<path d="M4.80406 26.9504C4.10781 26.9504 3.54492 27.5146 3.54492 28.2096V34.9066C3.54492 41.7849 16.0437 47.1738 31.9988 47.1738C47.9549 47.1738 60.4551 41.785 60.4551 34.9066V28.2096C60.4551 27.5146 59.8924 26.9504 59.1959 26.9504C58.4997 26.9504 57.9368 27.5146 57.9368 28.2096V34.9066C57.9368 40.6518 44.2683 44.6557 31.9986 44.6557C19.7314 44.6557 6.06289 40.6518 6.06289 34.9066V28.2096C6.06304 27.5146 5.50031 26.9504 4.80406 26.9504Z" fill="url(#paint1_linear)"/>
<path d="M3.54499 51.734C3.54499 58.6122 16.0437 64 31.9988 64C47.955 64 60.4552 58.6124 60.4552 51.734V45.037C60.4552 44.342 59.8924 43.7778 59.196 43.7778C58.4998 43.7778 57.9369 44.342 57.9369 45.037V51.734C57.9369 57.478 44.2683 61.4817 31.9987 61.4817C19.7315 61.4817 6.06296 57.4778 6.06296 51.734V45.037C6.06296 44.342 5.50022 43.7778 4.80382 43.7778C4.10741 43.7778 3.54468 44.342 3.54468 45.037C3.54499 45.037 3.54499 51.734 3.54499 51.734Z" fill="url(#paint2_linear)"/>
<defs>
<linearGradient id="paint0_linear" x1="3.54492" y1="15.6169" x2="60.4551" y2="15.6169" gradientUnits="userSpaceOnUse">
<stop stop-color="#4E2267"/>
<stop offset="1" stop-color="#9441C4"/>
</linearGradient>
<linearGradient id="paint1_linear" x1="3.54492" y1="37.0621" x2="60.4551" y2="37.0621" gradientUnits="userSpaceOnUse">
<stop stop-color="#4E2267"/>
<stop offset="1" stop-color="#9441C4"/>
</linearGradient>
<linearGradient id="paint2_linear" x1="3.54468" y1="53.8889" x2="60.4552" y2="53.8889" gradientUnits="userSpaceOnUse">
<stop stop-color="#4E2267"/>
<stop offset="1" stop-color="#9441C4"/>
</linearGradient>
</defs>
</svg>
