<svg width="21" height="21" viewBox="0 0 21 21" fill="none" xmlns="http://www.w3.org/2000/svg">
<path d="M12.2626 6.111C12.2626 7.73174 11.6166 9.28609 10.4668 10.4321C9.31694 11.5782 7.75742 12.222 6.1313 12.222C4.50518 12.222 2.94566 11.5782 1.79582 10.4321C0.645974 9.28609 7.45073e-10 7.73174 0 6.111C0 4.49026 0.645974 2.9359 1.79582 1.78987C2.94566 0.643836 4.50518 0 6.1313 0C7.75742 0 9.31694 0.643836 10.4668 1.78987C11.6166 2.9359 12.2626 4.49026 12.2626 6.111Z" fill="#3800D8"/>
<path d="M20.8078 14.8869C20.8078 15.6897 20.6492 16.4846 20.3409 17.2263C20.0327 17.968 19.5809 18.6419 19.0114 19.2095C18.4418 19.7772 17.7657 20.2275 17.0216 20.5347C16.2774 20.8419 15.4799 21 14.6744 21C13.0477 21 11.4877 20.3559 10.3374 19.2095C9.18721 18.0631 8.54102 16.5082 8.54102 14.8869C8.54102 13.2656 9.18721 11.7107 10.3374 10.5643C11.4877 9.41786 13.0477 8.7738 14.6744 8.7738C15.4799 8.7738 16.2774 8.93192 17.0216 9.23914C17.7657 9.54635 18.4418 9.99664 19.0114 10.5643C19.5809 11.1319 20.0327 11.8058 20.3409 12.5475C20.6492 13.2892 20.8078 14.0841 20.8078 14.8869Z" fill="#3800D8"/>
<path opacity="0.05" fill-rule="evenodd" clip-rule="evenodd" d="M0.0214844 6.63394C0.116719 7.78857 0.537178 8.89258 1.23414 9.81804C1.9311 10.7435 2.87603 11.4525 3.95944 11.863C5.04285 12.2734 6.22039 12.3685 7.3556 12.1371C8.49082 11.9057 9.53724 11.3574 10.3736 10.5557C11.21 9.75405 11.8021 8.73177 12.0813 7.60736C12.3605 6.48296 12.3153 5.30245 11.9511 4.20265C11.5869 3.10284 10.9185 2.12875 10.0233 1.39325C9.12818 0.657747 8.04295 0.190947 6.89338 0.046936C5.33249 0.569073 3.90669 1.43058 2.71848 2.56953C1.53028 3.70847 0.609207 5.09654 0.0214844 6.63394Z" fill="black"/>
<path opacity="0.05" fill-rule="evenodd" clip-rule="evenodd" d="M20.7921 14.448C20.712 13.2793 20.2989 12.158 19.6015 11.2167C18.9042 10.2754 17.9519 9.55353 16.8572 9.13645C15.7626 8.71936 14.5713 8.62452 13.4245 8.86315C12.2776 9.10178 11.223 9.66389 10.3856 10.483C9.54811 11.3021 8.96276 12.3439 8.69877 13.4852C8.43478 14.6265 8.50319 15.8196 8.89591 16.9232C9.28864 18.0269 9.98924 18.995 10.9148 19.713C11.8404 20.431 12.9523 20.8689 14.119 20.9748C15.6372 20.4342 17.0201 19.5707 18.1722 18.4437C19.3243 17.3168 20.2181 15.9533 20.7921 14.4473V14.448Z" fill="black"/>
<path opacity="0.1" fill-rule="evenodd" clip-rule="evenodd" d="M0.310547 8.03112C0.632591 9.01629 1.19924 9.90369 1.95748 10.6103C2.71573 11.317 3.64081 11.8198 4.64621 12.0717C5.6516 12.3236 6.70446 12.3164 7.70632 12.0507C8.70818 11.7851 9.6263 11.2697 10.3748 10.5528C11.1233 9.83588 11.6778 8.94081 11.9864 7.95133C12.2949 6.96185 12.3475 5.91028 12.1391 4.89496C11.9308 3.87965 11.4683 2.93376 10.795 2.14577C10.1217 1.35777 9.25953 0.753418 8.28915 0.389221C6.37687 0.787616 4.61499 1.71525 3.20432 3.06638C1.79366 4.41751 0.790972 6.13779 0.310547 8.03112Z" fill="black"/>
<path opacity="0.1" fill-rule="evenodd" clip-rule="evenodd" d="M20.5134 13.0116C20.1961 12.0147 19.629 11.1157 18.866 10.4C18.1031 9.68425 17.1697 9.17567 16.1546 8.92261C15.1396 8.66956 14.0767 8.68045 13.067 8.95426C12.0574 9.22806 11.1346 9.75567 10.3865 10.4869C9.63834 11.2181 9.08978 12.1286 8.79296 13.1317C8.49615 14.1348 8.46096 15.1972 8.69074 16.2178C8.92052 17.2383 9.40764 18.1831 10.1057 18.9622C10.8038 19.7413 11.6897 20.3289 12.679 20.6689C14.5668 20.2452 16.2994 19.3046 17.6831 17.9522C19.0667 16.5999 20.0467 14.8892 20.5134 13.0116Z" fill="black"/>
<path opacity="0.1" fill-rule="evenodd" clip-rule="evenodd" d="M0.535156 8.61069C0.934088 9.50959 1.54353 10.2993 2.312 10.913C3.08046 11.5267 3.98536 11.9464 4.95022 12.1366C5.91509 12.3269 6.91158 12.2821 7.85548 12.006C8.79938 11.7299 9.66296 11.2307 10.3732 10.5505C11.0835 9.87032 11.6197 9.02915 11.9363 8.09808C12.253 7.16701 12.3408 6.17339 12.1925 5.2012C12.0442 4.229 11.6641 3.30679 11.0842 2.51249C10.5043 1.71819 9.74175 1.07515 8.86096 0.637695C6.82398 0.95476 4.93337 1.88931 3.44446 3.31513C1.95555 4.74094 0.940067 6.58934 0.535156 8.61069Z" fill="black"/>
<path opacity="0.1" fill-rule="evenodd" clip-rule="evenodd" d="M20.2877 12.4201C19.8908 11.5108 19.2791 10.7114 18.5051 10.0906C17.7311 9.46987 16.818 9.04627 15.8442 8.85623C14.8704 8.66618 13.8651 8.71538 12.9145 8.99959C11.9639 9.2838 11.0965 9.79452 10.3869 10.4879C9.67719 11.1813 9.14645 12.0365 8.84024 12.9803C8.53402 13.924 8.46149 14.9279 8.62886 15.9059C8.79623 16.8838 9.1985 17.8065 9.80112 18.5947C10.4037 19.3829 11.1887 20.013 12.0886 20.4309C14.1077 20.0878 15.9742 19.1372 17.4391 17.7059C18.9041 16.2747 19.8978 14.4307 20.2877 12.4201Z" fill="black"/>
<path d="M20.1156 10.5455C20.1156 11.8165 19.8644 13.0751 19.3763 14.2494C18.8883 15.4237 18.173 16.4907 17.2712 17.3895C16.3695 18.2883 15.2989 19.0012 14.1207 19.4876C12.9425 19.974 11.6797 20.2244 10.4045 20.2244C9.12918 20.2244 7.86639 19.974 6.68818 19.4876C5.50998 19.0012 4.43943 18.2883 3.53767 17.3895C2.63592 16.4907 1.9206 15.4237 1.43257 14.2494C0.944544 13.0751 0.693359 11.8165 0.693359 10.5455C0.693359 9.27443 0.944544 8.01582 1.43257 6.84152C1.9206 5.66722 2.63592 4.60023 3.53767 3.70146C4.43943 2.80269 5.50998 2.08975 6.68818 1.60334C7.86639 1.11693 9.12918 0.866577 10.4045 0.866577C11.6797 0.866577 12.9425 1.11693 14.1207 1.60334C15.2989 2.08975 16.3695 2.80269 17.2712 3.70146C18.173 4.60023 18.8883 5.66722 19.3763 6.84152C19.8644 8.01582 20.1156 9.27443 20.1156 10.5455Z" fill="#3800D8"/>
<path fill-rule="evenodd" clip-rule="evenodd" d="M7.67435 10.2095C7.28191 9.9512 6.95443 9.60575 6.71745 9.20009C6.48866 8.77151 6.37573 8.29061 6.38985 7.80499C6.37251 7.1887 6.58284 6.58761 6.98065 6.11659C7.39408 5.64358 7.92543 5.28854 8.52065 5.08759C9.16801 4.85889 9.85009 4.74403 10.5367 4.74809C10.9858 4.74385 11.4346 4.77828 11.8779 4.85099C12.1951 4.89999 12.5068 4.98042 12.8082 5.09109C13.0849 5.18476 13.3347 5.34427 13.5362 5.55589C13.6846 5.73 13.7644 5.95223 13.7609 6.18099C13.7661 6.29983 13.748 6.41855 13.7074 6.53037C13.6668 6.64219 13.6046 6.74492 13.5243 6.83269C13.4483 6.91357 13.356 6.97746 13.2536 7.02017C13.1512 7.06288 13.0409 7.08343 12.93 7.08049C12.7773 7.07923 12.6267 7.04534 12.4883 6.98109C12.147 6.82834 11.7954 6.69969 11.4362 6.59609C11.1055 6.50889 10.7645 6.46651 10.4226 6.47009C9.97682 6.45369 9.53586 6.56648 9.15275 6.79489C8.99108 6.89312 8.85876 7.03297 8.76961 7.19982C8.68046 7.36667 8.63775 7.5544 8.64595 7.74339C8.6436 7.99152 8.73801 8.23081 8.90915 8.41049C9.11252 8.62157 9.35286 8.79358 9.61825 8.91799C9.91552 9.06546 10.3589 9.26099 10.9483 9.50459C11.0135 9.52526 11.0772 9.55077 11.1387 9.58089C11.7138 9.80842 12.2653 10.0919 12.7851 10.4272C13.1956 10.6949 13.5417 11.0501 13.7987 11.4674C14.0516 11.906 14.1784 12.406 14.1648 12.9122C14.186 13.5319 14.0084 14.1422 13.658 14.6538C13.3011 15.1382 12.8074 15.5046 12.2405 15.7059C11.5572 15.95 10.8351 16.0677 10.1097 16.0531C9.11275 16.088 8.1206 15.9003 7.20535 15.5036C6.97137 15.3994 6.76621 15.2399 6.60755 15.0388C6.47582 14.8545 6.40753 14.6324 6.41295 14.406C6.40641 14.2866 6.42587 14.1671 6.46998 14.0559C6.51409 13.9447 6.58181 13.8445 6.66845 13.762C6.8501 13.6029 7.08591 13.5197 7.32715 13.5296C7.59595 13.5333 7.85996 13.6012 8.09715 13.7277C8.39208 13.8752 8.62472 13.9858 8.79505 14.0595C8.98958 14.1409 9.19107 14.2047 9.39705 14.2499C9.65104 14.3056 9.91053 14.3324 10.1706 14.3297C10.6304 14.3625 11.088 14.2406 11.4705 13.9832C11.6136 13.8712 11.7281 13.7266 11.8043 13.5615C11.8805 13.3965 11.9163 13.2156 11.9086 13.034C11.9091 12.7764 11.8109 12.5284 11.6343 12.341C11.4008 12.1 11.1275 11.9011 10.8265 11.753C10.4704 11.5654 9.96965 11.3367 9.32425 11.067C8.74703 10.837 8.1943 10.5497 7.67435 10.2095Z" fill="white"/>
</svg>
