<svg width="80" height="81" viewBox="0 0 80 81" fill="none" xmlns="http://www.w3.org/2000/svg">
<path d="M61.2451 42.2388V12.8965C61.2451 10.8524 59.6867 9.19531 57.7672 9.19531H10.2806C8.36007 9.19531 6.80273 10.8535 6.80273 12.8965V42.2388" fill="#9596C1"/>
<path d="M65.348 52.6738H2.70458C1.97982 52.6738 1.49432 52.0375 1.78842 51.4718L6.08359 42.5089C6.2441 42.1997 6.60398 42.0001 6.99976 42.0001H61.2282C61.625 42.0001 61.9839 42.1997 62.1444 42.5089L66.2642 51.4718C66.5583 52.0375 66.0728 52.6738 65.348 52.6738Z" fill="#000066"/>
<path d="M6.80273 52.5002V68.0475C6.80273 69.1623 7.67406 70.0653 8.74991 70.0653H60.664C61.7389 70.0653 62.6101 69.1623 62.6101 68.0475V65.2696H64.4254C64.7342 65.2696 64.9838 65.0102 64.9838 64.6905V63.9251H66.0228C66.2028 63.9251 66.3491 63.7737 66.3491 63.5863C66.3491 62.9024 66.3491 61.1323 66.3491 60.4484C66.3491 60.261 66.2028 60.1096 66.0228 60.1096H64.9838V59.3442C64.9838 59.0245 64.7342 58.7651 64.4254 58.7651H62.6101V52.4981" fill="#9596C1"/>
<path fill-rule="evenodd" clip-rule="evenodd" d="M49.1672 19.0977C49.6534 19.0977 50.0476 19.4918 50.0476 19.9781V21.2483C50.5632 21.3736 50.988 21.5931 51.3069 21.805C51.5503 21.9669 51.7397 22.1291 51.8709 22.2538C51.9368 22.3164 51.9889 22.3704 52.0267 22.4114C52.0456 22.4319 52.061 22.4493 52.0729 22.4629L52.088 22.4804L52.0936 22.487L52.0958 22.4897L52.0968 22.491C52.0971 22.4912 52.0978 22.4921 51.4189 23.0527L52.0978 22.4921C52.4074 22.867 52.3545 23.4219 51.9795 23.7316C51.6066 24.0396 51.0554 23.9888 50.7449 23.6192C50.7434 23.6174 50.7393 23.6128 50.7326 23.6056C50.7185 23.5903 50.6933 23.5639 50.6578 23.5301C50.586 23.4619 50.4757 23.3669 50.3322 23.2716C50.0428 23.0792 49.6488 22.9043 49.1727 22.9043C48.3184 22.9043 47.922 23.3921 47.8728 23.682C47.8504 23.8139 47.872 23.9945 48.059 24.2127C48.2587 24.4458 48.6653 24.7351 49.4196 24.9555C50.4967 25.2702 51.3143 25.743 51.8418 26.355C52.3845 26.9849 52.5915 27.736 52.4532 28.4671C52.2357 29.6168 51.2508 30.4562 50.0476 30.7335V32.1432C50.0476 32.6295 49.6534 33.0236 49.1671 33.0236C48.6809 33.0236 48.2867 32.6295 48.2867 32.1432V30.7346C47.7322 30.6133 47.2543 30.3978 46.8921 30.1959C46.6153 30.0416 46.3917 29.8873 46.2353 29.7699C46.1567 29.7109 46.0941 29.6606 46.0492 29.6232C46.0268 29.6045 46.0087 29.589 45.9951 29.5772L45.9783 29.5623L45.9725 29.5571L45.9702 29.5551L45.9692 29.5542C45.969 29.554 45.9684 29.5535 46.5601 28.9015L45.9684 29.5535C45.6083 29.2266 45.5814 28.6698 45.9082 28.3098C46.2341 27.9507 46.7888 27.9229 47.1489 28.247L47.1518 28.2495C47.156 28.2531 47.1641 28.2601 47.1762 28.2702C47.2003 28.2902 47.2395 28.322 47.2922 28.3615C47.3982 28.441 47.5549 28.5494 47.7494 28.6578C48.1415 28.8763 48.6335 29.0652 49.1462 29.0715C49.1532 29.0714 49.1601 29.0713 49.1671 29.0713C49.1754 29.0713 49.1835 29.0714 49.1917 29.0716C50.1479 29.0643 50.6531 28.5093 50.723 28.1398C50.7541 27.9754 50.7278 27.7598 50.5078 27.5045C50.2725 27.2314 49.7977 26.9005 48.9258 26.6457C47.9571 26.3627 47.2102 25.9282 46.722 25.3587C46.2212 24.7743 46.0203 24.0738 46.1368 23.3873C46.3183 22.3176 47.1926 21.5315 48.2867 21.2534V19.9781C48.2867 19.4918 48.6809 19.0977 49.1672 19.0977ZM47.1504 28.2483C47.1505 28.2483 47.1504 28.2483 47.1504 28.2483Z" fill="#000066"/>
<path fill-rule="evenodd" clip-rule="evenodd" d="M35.5558 19.0977C36.0421 19.0977 36.4363 19.4918 36.4363 19.9781V21.2483C36.9518 21.3736 37.3766 21.5931 37.6955 21.805C37.939 21.9669 38.1284 22.1291 38.2596 22.2538C38.3254 22.3164 38.3776 22.3704 38.4154 22.4114C38.4343 22.4319 38.4497 22.4493 38.4616 22.4629L38.4767 22.4804L38.4822 22.487L38.4845 22.4897L38.4855 22.491C38.4857 22.4912 38.4864 22.4921 37.8076 23.0527L38.4864 22.4921C38.7961 22.867 38.7431 23.4219 38.3682 23.7316C37.9952 24.0396 37.4441 23.9888 37.1336 23.6192C37.1321 23.6174 37.1279 23.6128 37.1213 23.6056C37.1072 23.5903 37.082 23.5639 37.0464 23.5301C36.9746 23.4619 36.8643 23.3669 36.7208 23.2716C36.4314 23.0792 36.0375 22.9043 35.5614 22.9043C34.7071 22.9043 34.3107 23.3921 34.2615 23.682C34.2391 23.8139 34.2606 23.9945 34.4477 24.2127C34.6474 24.4458 35.054 24.7351 35.8083 24.9555C36.8854 25.2702 37.703 25.743 38.2304 26.355C38.7732 26.9849 38.9801 27.736 38.8418 28.4671C38.6244 29.6168 37.6395 30.4562 36.4363 30.7335V32.1432C36.4363 32.6295 36.0421 33.0236 35.5558 33.0236C35.0696 33.0236 34.6754 32.6295 34.6754 32.1432V30.7346C34.1208 30.6133 33.643 30.3978 33.2808 30.1959C33.004 30.0416 32.7804 29.8873 32.6239 29.7699C32.5454 29.7109 32.4828 29.6606 32.4379 29.6232C32.4154 29.6045 32.3973 29.589 32.3838 29.5772L32.367 29.5623L32.3611 29.5571L32.3589 29.5551L32.3579 29.5542C32.3577 29.554 32.3571 29.5535 32.9488 28.9015L32.3571 29.5535C31.997 29.2266 31.9701 28.6698 32.2969 28.3098C32.6228 27.9507 33.1775 27.9229 33.5376 28.247L33.5405 28.2495C33.5446 28.2531 33.5528 28.2601 33.5648 28.2702C33.589 28.2902 33.6282 28.322 33.6809 28.3615C33.7869 28.441 33.9436 28.5494 34.138 28.6578C34.5302 28.8763 35.0222 29.0652 35.5349 29.0715C35.5418 29.0714 35.5488 29.0713 35.5558 29.0713C35.564 29.0713 35.5722 29.0714 35.5804 29.0716C36.5366 29.0643 37.0418 28.5093 37.1116 28.1398C37.1428 27.9754 37.1165 27.7598 36.8965 27.5045C36.6612 27.2314 36.1864 26.9005 35.3145 26.6457C34.3457 26.3627 33.5989 25.9282 33.1107 25.3587C32.6098 24.7743 32.4089 24.0738 32.5254 23.3873C32.707 22.3176 33.5813 21.5315 34.6754 21.2534V19.9781C34.6754 19.4918 35.0696 19.0977 35.5558 19.0977ZM33.5391 28.2483C33.5391 28.2483 33.5391 28.2483 33.5391 28.2483Z" fill="#000066"/>
<path fill-rule="evenodd" clip-rule="evenodd" d="M20.7218 19.0977C21.2081 19.0977 21.6023 19.4918 21.6023 19.9781V21.2483C22.1178 21.3736 22.5427 21.5931 22.8615 21.805C23.105 21.9669 23.2944 22.1291 23.4256 22.2538C23.4915 22.3164 23.5436 22.3704 23.5814 22.4114C23.6003 22.4319 23.6157 22.4493 23.6276 22.4629L23.6427 22.4804L23.6482 22.487L23.6505 22.4897L23.6515 22.491C23.6518 22.4912 23.6524 22.4921 22.9736 23.0527L23.6524 22.4921C23.9621 22.867 23.9091 23.4219 23.5342 23.7316C23.1612 24.0396 22.6101 23.9888 22.2996 23.6192C22.2981 23.6174 22.294 23.6128 22.2873 23.6056C22.2732 23.5903 22.248 23.5639 22.2124 23.5301C22.1407 23.4619 22.0304 23.3669 21.8868 23.2716C21.5974 23.0792 21.2035 22.9043 20.7274 22.9043C19.8731 22.9043 19.4767 23.3921 19.4275 23.682C19.4051 23.8139 19.4266 23.9945 19.6137 24.2127C19.8134 24.4458 20.22 24.7351 20.9743 24.9555C22.0514 25.2702 22.869 25.743 23.3964 26.355C23.9392 26.9849 24.1461 27.736 24.0079 28.4671C23.7904 29.6168 22.8055 30.4562 21.6023 30.7335V32.1432C21.6023 32.6295 21.2081 33.0236 20.7218 33.0236C20.2356 33.0236 19.8414 32.6295 19.8414 32.1432V30.7346C19.2869 30.6133 18.809 30.3978 18.4468 30.1959C18.17 30.0416 17.9464 29.8873 17.7899 29.7699C17.7114 29.7109 17.6488 29.6606 17.6039 29.6232C17.5815 29.6045 17.5634 29.589 17.5498 29.5772L17.533 29.5623L17.5271 29.5571L17.5249 29.5551L17.5239 29.5542C17.5237 29.554 17.5231 29.5535 18.1148 28.9015L17.5231 29.5535C17.163 29.2266 17.1361 28.6698 17.4629 28.3098C17.7888 27.9507 18.3435 27.9229 18.7036 28.247L18.7065 28.2495C18.7106 28.2531 18.7188 28.2601 18.7309 28.2702C18.755 28.2902 18.7942 28.322 18.8469 28.3615C18.9529 28.441 19.1096 28.5494 19.3041 28.6578C19.6962 28.8763 20.1882 29.0652 20.7009 29.0715C20.7078 29.0714 20.7148 29.0713 20.7218 29.0713C20.73 29.0713 20.7382 29.0714 20.7464 29.0716C21.7026 29.0643 22.2078 28.5093 22.2777 28.1398C22.3088 27.9754 22.2825 27.7598 22.0625 27.5045C21.8272 27.2314 21.3524 26.9005 20.4805 26.6457C19.5118 26.3627 18.7649 25.9282 18.2767 25.3587C17.7758 24.7743 17.5749 24.0738 17.6914 23.3873C17.873 22.3176 18.7473 21.5315 19.8414 21.2534V19.9781C19.8414 19.4918 20.2356 19.0977 20.7218 19.0977ZM18.7051 28.2483C18.7052 28.2483 18.7051 28.2483 18.7051 28.2483Z" fill="#000066"/>
<path fill-rule="evenodd" clip-rule="evenodd" d="M14.4316 63.1084C14.4316 62.6222 14.8258 62.228 15.3121 62.228H52.7412C53.2274 62.228 53.6216 62.6222 53.6216 63.1084C53.6216 63.5947 53.2274 63.9888 52.7412 63.9888H15.3121C14.8258 63.9888 14.4316 63.5947 14.4316 63.1084Z" fill="#000066"/>
<path fill-rule="evenodd" clip-rule="evenodd" d="M71.4557 37.6309C72.0797 37.6309 72.5857 38.1368 72.5857 38.7609V59.2022C72.5857 61.6949 70.9825 64.2387 68.4379 64.2387H66.3517C65.7276 64.2387 65.2217 63.7328 65.2217 63.1087C65.2217 62.4847 65.7276 61.9787 66.3517 61.9787H68.4379C69.2265 61.9787 70.3257 61.024 70.3257 59.2022V38.7609C70.3257 38.1368 70.8316 37.6309 71.4557 37.6309Z" fill="#000066"/>
<path d="M71.2533 39.4348C73.6023 39.4348 75.5066 37.0989 75.5066 34.2174C75.5066 31.3359 73.6023 29 71.2533 29C68.9043 29 67 31.3359 67 34.2174C67 37.0989 68.9043 39.4348 71.2533 39.4348Z" fill="#000066"/>
</svg>
