<svg width="80" height="80" viewBox="0 0 80 80" fill="none" xmlns="http://www.w3.org/2000/svg">
<path d="M0 10.2774C0 4.7545 4.47715 0.277344 10 0.277344H70C75.5229 0.277344 80 4.7545 80 10.2773V69.9996C80 75.5224 75.5229 79.9996 70 79.9996H10C4.47715 79.9996 0 75.5224 0 69.9996V10.2774Z" fill="url(#paint0_radial_98_172)"/>
<path d="M57.6824 29.4702C58.163 29.136 58.3996 28.6553 58.3996 28.032C58.3996 27.5062 58.2194 27.0631 57.8589 26.7026C57.4984 26.3422 57.0665 26.1619 56.5634 26.1619C56.0602 26.1619 55.6283 26.3422 55.2679 26.7026C54.9074 27.0631 54.7271 27.5062 54.7271 28.032C54.7271 28.6553 54.9674 29.136 55.4443 29.4702V40.8969H54.0061V26.9542H49.5601V25.4447H40.6455C40.454 24.7275 40.0597 24.1154 39.4589 23.6122C38.8618 23.109 38.1784 22.8574 37.4086 22.8574C36.6388 22.8574 35.9591 23.109 35.3583 23.6122C34.7575 24.1154 34.3632 24.7275 34.1717 25.4447H25.2646V26.9542H21.5996V57.1415H54.0136V46.7924H56.1691V46.5784C57.4158 46.0977 58.0391 45.189 58.0391 43.8484C58.0391 43.3678 57.919 42.9134 57.6786 42.4816V29.4702H57.6824ZM33.3869 29.902H42.2264V40.1797H33.3869V29.902ZM23.0378 29.902H31.8773V40.1797H23.0378V29.902ZM49.5601 53.4052H25.2646V48.302H49.5601V53.4052ZM52.5041 40.1797H43.6646V29.902H52.5041V40.1797Z" fill="white"/>
<path d="M37.7742 31.3398C36.8167 31.3398 35.8328 31.5802 34.8264 32.0571V31.3398H34.1055V35.7934H34.8227C34.8227 35.7446 34.834 35.6845 34.8602 35.6131C34.8865 35.5418 34.9203 35.4216 34.9691 35.2527C35.018 35.0837 35.0893 34.9297 35.1832 34.787C35.2771 34.6443 35.4235 34.5242 35.615 34.4265C35.8065 34.3289 36.0469 34.2838 36.3322 34.2838L37.3386 34.3214C38.0108 34.3439 38.4163 34.3327 38.559 34.2838C38.3187 34.4265 38.0333 34.6331 37.6953 34.8959C37.3611 35.1588 36.918 35.6732 36.366 36.443C35.814 37.2091 35.5399 37.9751 35.5399 38.7449H39.2762C39.2762 38.4107 39.2875 37.9901 39.3138 37.4869C39.3401 36.9838 39.5429 36.1464 39.9259 34.971C40.3089 33.7957 40.8121 32.8269 41.4354 32.0608L40.7182 31.3436C39.7607 31.8167 38.7806 31.8167 37.7742 31.3398Z" fill="white"/>
<path d="M45.3911 34.8585C45.6803 34.4755 46.0858 34.284 46.6115 34.284L47.6555 34.3215C48.3502 34.3441 48.7444 34.3328 48.8421 34.284C48.6017 34.4267 48.3276 34.6332 48.016 34.8961C47.7043 35.1589 47.2724 35.6734 46.7204 36.4432C46.1684 37.2092 45.8943 37.9753 45.8943 38.7451H49.5593C49.5593 38.4109 49.5818 37.9903 49.6306 37.4871C49.6795 36.9839 49.8822 36.1465 50.2427 34.9712C50.6032 33.7958 51.1177 32.827 51.7898 32.061L51.0726 31.3438C50.0662 31.8244 49.0824 31.8244 48.1249 31.3438C47.1185 31.3438 46.1346 31.5841 45.1771 32.061V31.3438H44.3848V35.7935H45.1771L45.3911 34.8585Z" fill="white"/>
<path d="M27.4949 31.3398C26.4885 31.3398 25.5047 31.5802 24.5472 32.0571V31.3398H23.8262V35.7934H24.5434C24.5434 35.6507 24.5547 35.493 24.5809 35.3278C24.6072 35.1625 24.7349 34.9447 24.9752 34.6819C25.2156 34.419 25.5498 34.2876 25.9816 34.2876C26.0304 34.2876 26.3872 34.2989 27.0593 34.3252C27.7315 34.3514 28.1145 34.3364 28.2084 34.2876C28.0169 34.4303 27.754 34.6368 27.4161 34.8997C27.0818 35.1625 26.6387 35.677 26.0867 36.4468C25.5347 37.2128 25.2606 37.9789 25.2606 38.7487H28.9256C28.9256 38.4145 28.9481 37.9939 28.997 37.4907C29.0458 36.9875 29.2485 36.1501 29.609 34.9748C29.9695 33.7994 30.484 32.8306 31.1561 32.0646L30.4389 31.3474C29.4325 31.8167 28.4525 31.8167 27.4949 31.3398Z" fill="white"/>
<defs>
<radialGradient id="paint0_radial_98_172" cx="0" cy="0" r="1" gradientUnits="userSpaceOnUse" gradientTransform="translate(40 40.1385) rotate(90) scale(39.8611 40)">
<stop stop-color="#772C8B"/>
<stop offset="1" stop-color="#482764"/>
</radialGradient>
</defs>
</svg>
