<svg width="32" height="32" viewBox="0 0 32 32" fill="none" xmlns="http://www.w3.org/2000/svg">
<g clip-path="url(#clip0_387_24178)">
<path d="M29.3333 0H2.66669C1.19463 0.00175 0.00175 1.19463 0 2.66669V29.3334C0.00175 30.8054 1.19463 31.9982 2.66669 32H29.3334C30.8054 31.9982 31.9982 30.8054 32.0001 29.3333V2.66669C31.9982 1.19463 30.8054 0.00175 29.3333 0ZM30.9333 29.3333C30.9333 30.2169 30.2169 30.9333 29.3333 30.9333H2.66669C1.78306 30.9333 1.06669 30.2169 1.06669 29.3333V2.66669C1.06669 1.78306 1.78306 1.06669 2.66669 1.06669H29.3334C30.217 1.06669 30.9334 1.78306 30.9334 2.66669L30.9333 29.3333Z" fill="#0D4EE3"/>
<path d="M29.3328 4.26562H2.66613C2.37156 4.26562 2.13281 4.50444 2.13281 4.79894C2.13281 5.0935 2.37163 5.33225 2.66613 5.33225H29.3328C29.6274 5.33225 29.8661 5.0935 29.8661 4.79894C29.8661 4.50438 29.6273 4.26562 29.3328 4.26562Z" fill="#0D4EE3"/>
<path d="M3.19933 3.19944C3.49387 3.19944 3.73264 2.96067 3.73264 2.66613C3.73264 2.37158 3.49387 2.13281 3.19933 2.13281C2.90479 2.13281 2.66602 2.37158 2.66602 2.66613C2.66602 2.96067 2.90479 3.19944 3.19933 3.19944Z" fill="#0D4EE3"/>
<path d="M5.33409 3.19944C5.62863 3.19944 5.86741 2.96067 5.86741 2.66613C5.86741 2.37158 5.62863 2.13281 5.33409 2.13281C5.03955 2.13281 4.80078 2.37158 4.80078 2.66613C4.80078 2.96067 5.03955 3.19944 5.33409 3.19944Z" fill="#0D4EE3"/>
<path d="M7.46691 3.19944C7.76145 3.19944 8.00022 2.96067 8.00022 2.66613C8.00022 2.37158 7.76145 2.13281 7.46691 2.13281C7.17237 2.13281 6.93359 2.37158 6.93359 2.66613C6.93359 2.96067 7.17237 3.19944 7.46691 3.19944Z" fill="#0D4EE3"/>
<path d="M16.0008 6.93359C9.81522 6.93359 4.80078 11.948 4.80078 18.1336C4.80078 24.3192 9.81522 29.3336 16.0008 29.3336C22.1863 29.3336 27.2008 24.3192 27.2008 18.1336C27.1899 11.9525 22.1818 6.94447 16.0008 6.93359ZM25.5437 21.5091L24.0658 20.8968C24.3127 20.1768 24.4611 19.4268 24.5069 18.667H26.1069C26.0575 19.6366 25.8678 20.5939 25.5437 21.5091ZM23.5208 24.9005L22.3901 23.7698C22.8935 23.1993 23.3185 22.5642 23.6541 21.8813L25.133 22.4941C24.7132 23.3691 24.1702 24.1794 23.5208 24.9005ZM20.3597 27.267L19.7475 25.788C20.4303 25.4525 21.0655 25.0274 21.636 24.524L22.7667 25.6547C22.0458 26.3042 21.2357 26.8472 20.3608 27.267H20.3597ZM9.23384 25.6536L10.3645 24.5229C10.9351 25.0263 11.5702 25.4513 12.2531 25.7869L11.6408 27.2658C10.7656 26.8462 9.95509 26.3032 9.23384 25.6536ZM6.86747 22.4931L8.34641 21.8803C8.68197 22.5632 9.10703 23.1983 9.61041 23.7688L8.47972 24.8995C7.83034 24.1787 7.28741 23.3688 6.86747 22.4942V22.4931ZM6.45784 14.7571L7.92559 15.3651C7.67991 16.087 7.53297 16.839 7.48878 17.6003H5.89466C5.94403 16.6307 6.13372 15.6733 6.45784 14.7582V14.7571ZM8.48078 11.3667L9.29997 12.1858C9.14978 12.4554 9.06984 12.7583 9.06741 13.0669C9.06741 13.0978 9.07484 13.1267 9.07647 13.157C8.79672 13.5445 8.54997 13.9549 8.33884 14.3837L6.86741 13.7741C7.28759 12.8988 7.83084 12.088 8.48078 11.3667ZM11.6418 9.00028L12.2509 10.4717C11.8221 10.6828 11.4118 10.9295 11.0242 11.2093C10.9938 11.2093 10.965 11.2003 10.9341 11.2003C10.6257 11.2025 10.3227 11.2821 10.053 11.4317L9.23384 10.6136C9.95484 9.96347 10.7654 9.42016 11.6408 9.00028H11.6418ZM22.7677 10.6136L21.637 11.7443C21.0665 11.2409 20.4313 10.8158 19.7485 10.4803L20.3607 9.00134C21.236 9.42109 22.0465 9.96403 22.7677 10.6136ZM25.1341 13.7742L23.6552 14.387C23.3196 13.7041 22.8945 13.069 22.3912 12.4984L23.5218 11.3677C24.1712 12.0885 24.7142 12.8985 25.1341 13.773V13.7742ZM16.0008 25.6003C11.8789 25.5958 8.53853 22.2555 8.53409 18.1336C8.52972 16.7974 8.88966 15.4853 9.57516 14.3384C10.0386 14.8387 10.7385 15.0455 11.3995 14.8774C12.0604 14.7093 12.5765 14.1932 12.7446 13.5323C12.9127 12.8713 12.7059 12.1714 12.2056 11.708C13.3526 11.0226 14.6647 10.6627 16.0008 10.6669C20.1245 10.6669 23.4675 14.0098 23.4675 18.1336C23.4675 22.2573 20.1245 25.6003 16.0008 25.6003ZM10.9341 12.267C11.3759 12.267 11.7341 12.6252 11.7341 13.067C11.7341 13.5088 11.3759 13.867 10.9341 13.867C10.4923 13.867 10.1341 13.5088 10.1341 13.067C10.1341 12.6251 10.4923 12.267 10.9341 12.267ZM18.764 10.0685C18.044 9.82166 17.2939 9.67328 16.5341 9.62747V8.02747C17.5037 8.07684 18.461 8.26653 19.3762 8.59066L18.764 10.0685ZM15.4675 9.62159C14.7065 9.66597 13.955 9.81272 13.2333 10.0578L12.6253 8.59066C13.5405 8.26653 14.4978 8.07684 15.4675 8.02747V9.62159ZM5.89466 18.667H7.49466C7.54047 19.4267 7.68884 20.1768 7.93572 20.8968L6.45784 21.5091C6.13372 20.5939 5.94403 19.6366 5.89466 18.667ZM13.2376 26.1987C13.9576 26.4455 14.7077 26.5939 15.4675 26.6397V28.2397C14.4978 28.1903 13.5405 28.0006 12.6253 27.6765L13.2376 26.1987ZM16.5341 26.6398C17.2938 26.594 18.044 26.4456 18.764 26.1987L19.3762 27.6766C18.461 28.0007 17.5037 28.1904 16.5341 28.2398V26.6398ZM24.5069 17.6003C24.4611 16.8405 24.3127 16.0904 24.0658 15.3704L25.5437 14.7582C25.8678 15.6733 26.0575 16.6307 26.1069 17.6003H24.5069Z" fill="#0D4EE3"/>
<path d="M20.8004 16.5332C20.1247 16.536 19.5237 16.9629 19.2985 17.5999H18.0579C17.8628 16.8536 17.28 16.2708 16.5337 16.0756V14.8351C17.2684 14.5753 17.7091 13.8241 17.5773 13.056C17.4456 12.2879 16.7796 11.7266 16.0004 11.7266C15.2211 11.7266 14.5552 12.2879 14.4234 13.056C14.2917 13.8241 14.7324 14.5753 15.4671 14.8351V16.0756C14.7207 16.2708 14.1379 16.8536 13.9428 17.5999H12.7022C12.4425 16.8652 11.6912 16.4245 10.9232 16.5563C10.1551 16.688 9.59375 17.3539 9.59375 18.1332C9.59375 18.9124 10.1551 19.5784 10.9232 19.7101C11.6912 19.8419 12.4425 19.4012 12.7022 18.6665H13.9428C14.1379 19.4128 14.7207 19.9956 15.4671 20.1907V21.4313C14.7324 21.6911 14.2917 22.4423 14.4234 23.2104C14.5552 23.9784 15.2211 24.5398 16.0004 24.5398C16.7796 24.5398 17.4456 23.9784 17.5773 23.2104C17.7091 22.4423 17.2684 21.6911 16.5337 21.4313V20.1907C17.28 19.9956 17.8628 19.4128 18.0579 18.6665H19.2985C19.5711 19.4316 20.3744 19.8704 21.1654 19.6862C21.9564 19.5021 22.4833 18.7536 22.3899 17.9468C22.2966 17.14 21.6126 16.5317 20.8004 16.5332ZM16.0004 12.7999C16.2949 12.7999 16.5337 13.0386 16.5337 13.3332C16.5337 13.6277 16.2949 13.8665 16.0004 13.8665C15.7058 13.8665 15.4671 13.6277 15.4671 13.3332C15.4671 13.0387 15.7058 12.7999 16.0004 12.7999ZM11.2004 18.6666C10.9058 18.6666 10.6671 18.4278 10.6671 18.1333C10.6671 17.8387 10.9059 17.5999 11.2004 17.5999C11.4949 17.5999 11.7337 17.8388 11.7337 18.1333C11.7337 18.4278 11.4949 18.6666 11.2004 18.6666ZM16.0004 23.4666C15.7058 23.4666 15.4671 23.2278 15.4671 22.9332C15.4671 22.6387 15.7059 22.3999 16.0004 22.3999C16.2949 22.3999 16.5337 22.6387 16.5337 22.9332C16.5337 23.2278 16.2949 23.4666 16.0004 23.4666ZM16.0004 19.1999C15.4112 19.1999 14.9337 18.7223 14.9337 18.1332C14.9337 17.5441 15.4112 17.0665 16.0004 17.0665C16.5895 17.0665 17.0671 17.5441 17.0671 18.1332C17.0671 18.7223 16.5895 19.1999 16.0004 19.1999ZM20.8004 18.6666C20.5058 18.6666 20.2671 18.4278 20.2671 18.1333C20.2671 17.8387 20.5058 17.5999 20.8004 17.5999C21.0949 17.5999 21.3337 17.8388 21.3337 18.1333C21.3337 18.4278 21.0949 18.6666 20.8004 18.6666Z" fill="#0D4EE3"/>
</g>
<defs>
<clipPath id="clip0_387_24178">
<rect width="32" height="32" fill="white"/>
</clipPath>
</defs>
</svg>
