<svg width="100" height="100" viewBox="0 0 100 100" fill="none" xmlns="http://www.w3.org/2000/svg">
<path d="M88.4389 27.1099C88.4401 27.1099 88.4414 27.1095 88.4424 27.1088C89.4862 26.3823 90 25.3378 90 23.9833C90 22.8405 89.6082 21.8772 88.8245 21.0936C88.0408 20.3099 87.102 19.918 86.0082 19.918C84.9143 19.918 83.9755 20.3099 83.1918 21.0936C82.4081 21.8772 82.0163 22.8405 82.0163 23.9833C82.0163 26.2678 83.5755 28.4702 83.5755 30.7546V50.3874C83.5755 51.2508 82.8756 51.9507 82.0122 51.9507C81.1489 51.9507 80.449 51.2508 80.449 50.3874V26.4732C80.449 23.8041 78.2853 21.6405 75.6163 21.6405H72.4245C71.5183 21.6405 70.7837 20.9059 70.7837 19.9997C70.7837 19.0935 70.049 18.3589 69.1428 18.3589H56.2278C53.3831 18.3589 51.0054 16.2017 48.8245 14.3752C47.5265 13.2813 46.0408 12.7344 44.3673 12.7344C42.6939 12.7344 41.2163 13.2813 39.9102 14.3752C37.7293 16.2017 35.3516 18.3589 32.5069 18.3589H19.6082C18.702 18.3589 17.9673 19.0935 17.9673 19.9997C17.9673 20.9059 17.2327 21.6405 16.3265 21.6405H13.9837C11.7836 21.6405 10 23.424 10 25.6242V77.265C10 82.7878 14.4772 87.265 20 87.265H70.4653C75.9881 87.265 80.4653 82.7878 80.4653 77.265V67.1099C80.4653 65.8159 81.5142 64.767 82.8082 64.767H84.8751C85.0275 64.767 85.151 64.6435 85.151 64.4911C85.151 64.377 85.2219 64.2748 85.3275 64.2316C87.92 63.1696 89.2163 61.2173 89.2163 58.367C89.2163 58.195 89.2092 58.0245 89.1951 57.8556C89.0529 56.1596 88.4326 54.5023 88.4326 52.8004V27.1161C88.4326 27.1127 88.4354 27.1099 88.4389 27.1099ZM35.6245 37.6568C35.6245 32.3504 39.9262 28.0487 45.2326 28.0487C50.5391 28.0487 54.8408 32.3504 54.8408 37.6568V40.7833C54.8408 46.0898 50.5391 50.3915 45.2326 50.3915C39.9262 50.3915 35.6245 46.0898 35.6245 40.7833V37.6568ZM13.1265 37.6568C13.1265 32.3504 17.4283 28.0487 22.7347 28.0487C28.0411 28.0487 32.3429 32.3504 32.3429 37.6568V40.7833C32.3429 46.0898 28.0411 50.3915 22.7347 50.3915C17.4283 50.3915 13.1265 46.0898 13.1265 40.7833V37.6568ZM70.7837 73.5956C70.7837 76.6591 68.3002 79.1425 65.2367 79.1425H23.5143C20.4508 79.1425 17.9673 76.6591 17.9673 73.5956C17.9673 70.5321 20.4508 68.0486 23.5143 68.0486H65.2367C68.3002 68.0486 70.7837 70.5321 70.7837 73.5956ZM77.1837 40.7833C77.1837 46.0898 72.8819 50.3915 67.5755 50.3915C62.2691 50.3915 57.9673 46.0898 57.9673 40.7833V37.6568C57.9673 32.3504 62.2691 28.0487 67.5755 28.0487C72.8819 28.0487 77.1837 32.3504 77.1837 37.6568V40.7833Z" fill="#482764"/>
<path d="M45.923 31.4955C45.4106 31.3083 44.8756 31.1663 44.3312 31.2021C42.7913 31.3034 41.221 31.686 39.6238 32.3466C39.2139 32.5161 38.7509 32.2226 38.7509 31.779C38.7509 31.4453 38.4804 31.1748 38.1467 31.1748H37.9673C37.5345 31.1748 37.1836 31.5257 37.1836 31.9585V40.0768C37.1836 40.5074 37.5326 40.8564 37.9632 40.8564H38.3405C38.5627 40.8564 38.7476 40.6731 38.8244 40.4646C38.8816 40.3095 38.955 40.0483 39.0611 39.6809C39.1673 39.3136 39.3224 38.9789 39.5265 38.6687C39.7305 38.3585 40.0489 38.0973 40.4652 37.885C40.8816 37.6728 41.404 37.5748 42.0244 37.5748L44.2122 37.6564C44.3359 37.6606 44.4555 37.6642 44.571 37.6673C44.8574 37.675 45.2138 38.7295 44.9877 38.9054C44.2611 39.4768 43.2979 40.5952 42.0979 42.2687C41.8257 42.6464 41.5846 43.0241 41.3745 43.4018C40.2843 45.362 42.1202 47.2728 44.3632 47.2728H45.6882C47.1994 47.2728 48.4272 46.0472 48.506 44.5381C48.5632 43.4442 49.004 41.6238 49.8367 39.0687C50.5131 36.993 51.3619 35.2136 52.3831 33.7262C52.7781 33.1508 52.743 32.3669 52.2495 31.8733C51.8368 31.4607 51.2107 31.3695 50.6598 31.5622C49.1094 32.1046 47.5316 32.0835 45.923 31.4955Z" fill="#482764"/>
<path d="M61.6244 39.2537C61.6893 38.9701 61.8066 38.6964 62.0107 38.4891C62.6113 37.8793 63.398 37.5745 64.376 37.5745L66.6454 37.6561C68.1556 37.7051 69.0127 37.6806 69.2249 37.5745C68.7025 37.8847 68.1066 38.3336 67.429 38.9051C66.7515 39.4765 65.8127 40.5949 64.6127 42.2683C64.3242 42.6687 64.0707 43.069 63.8519 43.4694C62.7971 45.4002 64.6003 47.2724 66.8005 47.2724H68.044C69.5573 47.2724 70.7931 46.044 70.9392 44.5377C71.0454 43.4438 71.4862 41.6234 72.2698 39.0683C72.9069 36.9913 73.7651 35.211 74.8488 33.723C75.2649 33.1516 75.2444 32.3531 74.7446 31.8533C74.3426 31.4513 73.7343 31.3574 73.1981 31.546C71.5851 32.1136 69.9997 32.1063 68.4452 31.524C67.921 31.3277 67.3737 31.1742 66.8151 31.2091C65.2262 31.3082 63.6641 31.6856 62.1318 32.3381C61.7244 32.5116 61.2576 32.2216 61.2576 31.7788C61.2576 31.4495 60.9907 31.1826 60.6614 31.1826H60.3964C59.9207 31.1826 59.5352 31.5682 59.5352 32.0438V39.8975C59.5352 40.4269 59.9643 40.8561 60.4937 40.8561C60.9407 40.8561 61.3283 40.5471 61.4281 40.1114L61.6244 39.2537Z" fill="#482764"/>
<path d="M23.5908 31.5122C23.0694 31.3179 22.5252 31.1665 21.9698 31.201C20.3792 31.2996 18.8153 31.6771 17.2814 32.3303C16.874 32.5037 16.4072 32.2138 16.4072 31.771C16.4072 31.4417 16.1403 31.1748 15.811 31.1748H15.6235C15.1907 31.1748 14.8398 31.5257 14.8398 31.9585V40.0768C14.8398 40.5074 15.1889 40.8564 15.6194 40.8564C16.05 40.8564 16.3951 40.5062 16.4476 40.0788C16.4571 40.0015 16.4681 39.9233 16.4807 39.8442C16.5378 39.485 16.8154 39.0115 17.3378 38.4401C17.8603 37.8687 18.5868 37.583 19.5256 37.583C19.6317 37.583 20.4072 37.6075 21.8684 37.6646C21.9831 37.6691 22.094 37.673 22.2009 37.6764C22.4166 37.6832 22.8143 38.7811 22.6439 38.9136C21.9174 39.485 20.9541 40.6034 19.7541 42.2768C19.4657 42.6772 19.2121 43.0775 18.9933 43.4779C17.9385 45.4087 19.7418 47.2809 21.9419 47.2809H23.1855C24.6988 47.2809 25.9345 46.0525 26.0807 44.5462C26.1868 43.4524 26.6276 41.6319 27.4113 39.0768C28.0477 37.0018 28.9049 35.2229 29.9871 33.7358C30.4048 33.1619 30.3842 32.36 29.8823 31.8581C29.4819 31.4577 28.8769 31.3612 28.3415 31.5455C26.7281 32.1005 25.1457 32.0916 23.5908 31.5122Z" fill="#482764"/>
</svg>
