<svg width="32" height="32" viewBox="0 0 32 32" fill="none" xmlns="http://www.w3.org/2000/svg">
<g clip-path="url(#clip0_387_29322)">
<path d="M2.66666 27.7333H10.6666V28.8H8.53332C7.35512 28.8 6.4 29.7551 6.4 30.9333C6.4 31.5224 6.87759 32 7.46668 32H24.5333C25.1224 32 25.6 31.5224 25.6 30.9333C25.6 29.7551 24.6449 28.8 23.4667 28.8H21.3334V27.7333H29.3333C30.8053 27.7315 31.9982 26.5387 31.9999 25.0667V2.66666C31.9982 1.19462 30.8053 0.00173744 29.3333 0H2.66666C1.19462 0.00173744 0.00173744 1.19462 0 2.66666V25.0667C0.00173744 26.5387 1.19462 27.7315 2.66666 27.7333ZM24.5333 30.9333H7.46668C7.46668 30.3442 7.94427 29.8666 8.53337 29.8666H23.4667C24.0557 29.8666 24.5333 30.3442 24.5333 30.9333ZM20.2667 28.8H11.7333V27.7333H20.2666L20.2667 28.8ZM29.3333 26.6666H2.66666C1.78298 26.6666 1.06668 25.9503 1.06668 25.0667V23.4667H30.9333V25.0667C30.9334 25.9503 30.217 26.6666 29.3333 26.6666ZM2.66666 1.06668H29.3333C30.217 1.06668 30.9333 1.78304 30.9333 2.66666V22.4H1.06668V2.66666C1.06668 1.78298 1.78298 1.06668 2.66666 1.06668Z" fill="#0D4EE3"/>
<path fill-rule="evenodd" clip-rule="evenodd" d="M17.6005 24.5332H14.4005C14.106 24.5332 13.8672 24.772 13.8672 25.0665C13.8672 25.3611 14.106 25.5999 14.4005 25.5999H17.6005C17.8951 25.5999 18.1339 25.3611 18.1339 25.0665C18.1339 24.772 17.8951 24.5332 17.6005 24.5332Z" fill="#0D4EE3"/>
<path fill-rule="evenodd" clip-rule="evenodd" d="M2.66713 5.33231H29.3338C29.6283 5.33231 29.8671 5.09354 29.8671 4.79897C29.8671 4.50439 29.6283 4.26562 29.3338 4.26562H2.66713C2.37256 4.26562 2.13379 4.50439 2.13379 4.79897C2.13379 5.09354 2.37261 5.33231 2.66713 5.33231Z" fill="#0D4EE3"/>
<path d="M3.20033 3.1995C3.49489 3.1995 3.73368 2.96071 3.73368 2.66615C3.73368 2.3716 3.49489 2.13281 3.20033 2.13281C2.90578 2.13281 2.66699 2.3716 2.66699 2.66615C2.66699 2.96071 2.90578 3.1995 3.20033 3.1995Z" fill="#0D4EE3"/>
<path d="M5.33412 3.1995C5.62868 3.1995 5.86747 2.96071 5.86747 2.66615C5.86747 2.3716 5.62868 2.13281 5.33412 2.13281C5.03957 2.13281 4.80078 2.3716 4.80078 2.66615C4.80078 2.96071 5.03957 3.1995 5.33412 3.1995Z" fill="#0D4EE3"/>
<path d="M7.46694 3.1995C7.76149 3.1995 8.00028 2.96071 8.00028 2.66615C8.00028 2.3716 7.76149 2.13281 7.46694 2.13281C7.17238 2.13281 6.93359 2.3716 6.93359 2.66615C6.93359 2.96071 7.17238 3.1995 7.46694 3.1995Z" fill="#0D4EE3"/>
<path d="M27.7336 7.4668H4.26697C3.38329 7.4668 2.66699 8.18315 2.66699 9.06677V18.6668C2.66699 19.5504 3.38334 20.2667 4.26697 20.2667H27.7336C28.6173 20.2667 29.3336 19.5504 29.3336 18.6668V9.06677C29.3336 8.1831 28.6172 7.4668 27.7336 7.4668ZM3.73362 18.6668V9.06677C3.73362 8.7722 3.97239 8.53343 4.26697 8.53343H11.2003V19.2001H4.26697C3.97239 19.2001 3.73362 18.9613 3.73362 18.6668ZM12.2669 19.2001V8.53343H19.7336V19.2001H12.2669V19.2001ZM28.2669 18.6668C28.2669 18.9613 28.0282 19.2001 27.7336 19.2001H20.8003V8.53343H27.7336C28.0282 8.53343 28.2669 8.7722 28.2669 9.06677V18.6668Z" fill="#0D4EE3"/>
<path fill-rule="evenodd" clip-rule="evenodd" d="M10.0729 10.953C9.98102 10.7766 9.79869 10.666 9.59983 10.666H5.33315C5.03857 10.666 4.7998 10.9048 4.7998 11.1994C4.7998 11.4939 5.03857 11.7327 5.33315 11.7327H8.57527L7.45525 13.3327H5.86644C5.57186 13.3327 5.33309 13.5714 5.33309 13.866C5.33309 14.1606 5.57186 14.3994 5.86644 14.3994H6.70857L5.42855 16.2271C5.31235 16.3829 5.29018 16.5896 5.37058 16.7666C5.45103 16.9436 5.62135 17.0628 5.81516 17.0777C6.00896 17.0926 6.19555 17.0009 6.30211 16.8383L8.01091 14.3994H9.06638C9.36096 14.3994 9.59973 14.1606 9.59973 13.866C9.59973 13.5714 9.36096 13.3327 9.06638 13.3327H8.75759L10.0376 11.5049C10.1514 11.3419 10.1649 11.1292 10.0729 10.953Z" fill="#0D4EE3"/>
<path fill-rule="evenodd" clip-rule="evenodd" d="M18.133 10.666H13.8664C13.5718 10.666 13.333 10.9048 13.333 11.1994C13.333 11.4939 13.5718 11.7327 13.8664 11.7327H17.1085L15.9885 13.3327H14.3996C14.1051 13.3327 13.8663 13.5714 13.8663 13.866C13.8663 14.1606 14.1051 14.3994 14.3996 14.3994H15.2418L13.9618 16.2271C13.8456 16.3829 13.8234 16.5896 13.9038 16.7666C13.9843 16.9436 14.1546 17.0628 14.3484 17.0777C14.5422 17.0926 14.7288 17.0009 14.8354 16.8383L16.5442 14.3994H17.5996C17.8942 14.3994 18.133 14.1606 18.133 13.866C18.133 13.5714 17.8942 13.3327 17.5996 13.3327H17.2908L18.5709 11.5049C18.6849 11.3419 18.6986 11.1289 18.6066 10.9526C18.5145 10.7763 18.332 10.6658 18.133 10.666Z" fill="#0D4EE3"/>
<path fill-rule="evenodd" clip-rule="evenodd" d="M26.6662 10.666H22.3996C22.105 10.666 21.8662 10.9048 21.8662 11.1994C21.8662 11.4939 22.105 11.7327 22.3996 11.7327H25.6417L24.5217 13.3327H22.9328C22.6383 13.3327 22.3995 13.5714 22.3995 13.866C22.3995 14.1606 22.6383 14.3994 22.9328 14.3994H23.775L22.495 16.2271C22.3788 16.3829 22.3566 16.5896 22.437 16.7666C22.5174 16.9436 22.6878 17.0628 22.8816 17.0777C23.0754 17.0926 23.262 17.0009 23.3685 16.8383L25.0773 14.3994H26.1328C26.4274 14.3994 26.6661 14.1606 26.6661 13.866C26.6661 13.5714 26.4274 13.3327 26.1328 13.3327H25.824L27.104 11.5049C27.218 11.3419 27.2318 11.1289 27.1397 10.9526C27.0478 10.7762 26.8652 10.6658 26.6662 10.666Z" fill="#0D4EE3"/>
</g>
<defs>
<clipPath id="clip0_387_29322">
<rect width="32" height="32" fill="white"/>
</clipPath>
</defs>
</svg>
