<svg width="54" height="54" viewBox="0 0 54 54" fill="none" xmlns="http://www.w3.org/2000/svg">
<rect width="54" height="54" rx="27" fill="#0D4EE3"/>
<g clip-path="url(#clip0_387_25492)">
<path d="M15.4256 28.0549L16.477 27.5358L17.5284 28.0549C17.6263 28.1033 17.7318 28.1272 17.8368 28.1271C17.9809 28.1271 18.1241 28.0821 18.2456 27.9939C18.4554 27.8415 18.5625 27.5873 18.5252 27.3307L18.3565 26.1703L19.175 25.3308C19.3561 25.1451 19.4188 24.8765 19.3386 24.6299C19.2585 24.3832 19.05 24.2028 18.7943 24.159L17.6386 23.9609L17.093 22.923C16.9723 22.6934 16.7363 22.5508 16.477 22.5508C16.2176 22.5508 15.9816 22.6934 15.861 22.923L15.3154 23.9609L14.1596 24.159C13.904 24.2028 13.6955 24.3832 13.6153 24.6299C13.5352 24.8765 13.5979 25.1451 13.779 25.3308L14.5975 26.1703L14.4288 27.3307C14.3915 27.5873 14.4986 27.8415 14.7084 27.9939C14.9182 28.1463 15.1929 28.1697 15.4256 28.0549ZM16.2631 23.3591L16.2634 23.3597C16.2633 23.3595 16.2633 23.3593 16.2631 23.3591ZM15.5913 24.8648C15.8033 24.8284 15.9896 24.693 16.0898 24.5026L16.477 23.7659L16.8641 24.5024C16.9641 24.6929 17.1505 24.8283 17.3626 24.8648L18.1829 25.0053L17.602 25.6012C17.4518 25.7552 17.3806 25.9743 17.4116 26.1872L17.5313 27.0108L16.785 26.6423C16.6886 26.5947 16.5828 26.571 16.477 26.571C16.3712 26.571 16.2654 26.5948 16.1689 26.6424L15.4226 27.0108L15.5424 26.1873C15.5734 25.9744 15.5022 25.7553 15.352 25.6012L14.771 25.0053L15.5913 24.8648Z" fill="white"/>
<path d="M29.8619 24.6298C29.7818 24.3832 29.5731 24.2028 29.3176 24.159L28.1619 23.9609L27.6163 22.923H27.6164C27.4957 22.6934 27.2596 22.5508 27.0003 22.5508C26.741 22.5508 26.5049 22.6934 26.3843 22.923L25.8388 23.9609L24.6831 24.159C24.4275 24.2028 24.2189 24.3832 24.1388 24.6298C24.0586 24.8765 24.1213 25.145 24.3023 25.3308L25.121 26.1703L24.9522 27.3307C24.9148 27.5873 25.022 27.8415 25.2318 27.9939C25.3533 28.0822 25.4965 28.1272 25.6406 28.1272C25.7456 28.1272 25.8511 28.1033 25.949 28.0549L27.0003 27.5358L28.0516 28.0549C28.2842 28.1698 28.5591 28.1463 28.7688 27.9939C28.9786 27.8415 29.0858 27.5873 29.0485 27.3307L28.8797 26.1703L29.6983 25.3308C29.8793 25.145 29.942 24.8765 29.8619 24.6298ZM28.1251 25.6013C27.9751 25.7553 27.9039 25.9743 27.9348 26.1873L28.0546 27.0108L27.3083 26.6425C27.1154 26.5472 26.885 26.5472 26.6922 26.6425L25.946 27.0109L26.0658 26.1873C26.0966 25.9744 26.0255 25.7554 25.8753 25.6013L25.2943 25.0055L26.1146 24.8649C26.3266 24.8285 26.513 24.6932 26.6131 24.5027L27.0003 23.7659L27.3875 24.5026C27.4876 24.693 27.6739 24.8284 27.886 24.8648L28.7063 25.0053L28.1251 25.6013Z" fill="white"/>
<path d="M39.64 24.4305L38.4843 24.2324L37.9387 23.1945C37.818 22.9649 37.582 22.8223 37.3227 22.8223C37.0633 22.8223 36.8272 22.9649 36.7066 23.1945L36.1611 24.2324L35.0053 24.4305C34.7497 24.4743 34.5412 24.6547 34.461 24.9014C34.3809 25.148 34.4436 25.4166 34.6247 25.6023L35.4432 26.4419L35.2745 27.6023C35.2372 27.8589 35.3443 28.113 35.5542 28.2655C35.6756 28.3536 35.8188 28.3986 35.9629 28.3986C36.0678 28.3986 36.1733 28.3748 36.2713 28.3265L37.3227 27.8074L38.3742 28.3265C38.6066 28.4412 38.8815 28.4179 39.0913 28.2655C39.3012 28.113 39.4083 27.8589 39.371 27.6023L39.2022 26.4419L40.0208 25.6023C40.2018 25.4166 40.2645 25.1481 40.1844 24.9015C40.1042 24.6548 39.8956 24.4743 39.64 24.4305ZM38.4477 25.8728C38.2975 26.0268 38.2263 26.2458 38.2573 26.4588L38.3771 27.2823L37.6309 26.914C37.5344 26.8663 37.4286 26.8425 37.3227 26.8425C37.2169 26.8425 37.1111 26.8663 37.0147 26.9139L36.2684 27.2823L36.3882 26.4586C36.4192 26.2457 36.348 26.0266 36.1978 25.8726L35.6168 25.2768L36.4371 25.1362C36.6492 25.0998 36.8355 24.9645 36.9355 24.774L37.3227 24.0373L37.7099 24.774C37.81 24.9645 37.9963 25.0998 38.2084 25.1362L39.0287 25.2768L38.4477 25.8728Z" fill="white"/>
<path d="M40.6352 19.3699H37.9978C37.4501 17.3836 36.3726 15.5814 34.8712 14.15C34.6839 13.9714 34.3871 13.9784 34.2084 14.1658C34.0298 14.3532 34.0369 14.6499 34.2242 14.8286C35.5396 16.0826 36.501 17.6458 37.0229 19.3699H35.6752C35.0751 17.6614 33.9567 16.1344 32.4991 15.0444C30.9017 13.8498 29.0002 13.2184 27.0001 13.2184C24.9954 13.2184 23.0904 13.8524 21.4909 15.052C20.0379 16.1418 18.9233 17.6652 18.3244 19.37H16.9771C17.5891 17.3552 18.8152 15.5431 20.474 14.2194C22.3447 12.7266 24.6014 11.9375 27.0001 11.9375C29.1232 11.9375 31.1674 12.5693 32.9117 13.7646C33.1253 13.9109 33.4171 13.8564 33.5634 13.6429C33.7097 13.4294 33.6552 13.1376 33.4417 12.9913C31.5407 11.6886 29.3132 11 27.0001 11C24.3867 11 21.9277 11.8599 19.8892 13.4866C18.0082 14.9876 16.6379 17.0659 16.0013 19.3699H13.3649C12.0841 19.3699 11.042 20.4119 11.042 21.6927V29.4641C11.042 30.7449 12.084 31.7869 13.3649 31.7869H15.0634V41.1984C15.0634 42.1918 15.8716 42.9999 16.865 42.9999H37.1351C38.1285 42.9999 38.9367 42.1918 38.9367 41.1984V31.787H40.6352C41.916 31.787 42.958 30.745 42.958 29.4642V21.6928C42.9581 20.412 41.9161 19.3699 40.6352 19.3699ZM22.0534 15.8019C23.4893 14.7251 25.1999 14.1558 27.0001 14.1558C28.7962 14.1558 30.5036 14.7227 31.9377 15.7951C33.1583 16.7079 34.1141 17.9614 34.6746 19.3699H19.3251C19.8844 17.9649 20.8368 16.7144 22.0534 15.8019ZM22.0244 30.8369V20.3075H31.9757V30.8369H22.0244ZM11.9796 29.4642V21.6928C11.9796 20.9289 12.601 20.3075 13.3649 20.3075H21.0869V30.8369L13.3649 30.8495C12.601 30.8495 11.9796 30.228 11.9796 29.4642ZM37.9992 41.1984C37.9992 41.6749 37.6116 42.0625 37.1352 42.0625H16.865C16.3885 42.0625 16.0009 41.6749 16.0009 41.1984V31.787H19.2294V35.1185C19.2294 35.8354 19.8126 36.4187 20.5296 36.4187H22.7549C23.0137 36.4187 23.2236 36.2088 23.2236 35.9499C23.2236 35.6911 23.0137 35.4812 22.7549 35.4812H20.5296C20.3296 35.4812 20.1669 35.3185 20.1669 35.1185V31.7996H33.8332V35.1185C33.8332 35.3185 33.6704 35.4812 33.4705 35.4812H24.6299C24.3711 35.4812 24.1612 35.6911 24.1612 35.9499C24.1612 36.2088 24.3711 36.4187 24.6299 36.4187H33.4705C34.1874 36.4187 34.7707 35.8354 34.7707 35.1185V31.787H37.9992V41.1984H37.9992ZM42.0206 29.4642C42.0206 30.2281 41.3991 30.8495 40.6352 30.8495L32.9132 30.8369V20.3075H40.6352C41.3991 20.3075 42.0206 20.9289 42.0206 21.6928V29.4642Z" fill="white"/>
<path d="M21.2625 37.2188C20.1813 37.2188 19.3018 38.0983 19.3018 39.1795C19.3018 40.2606 20.1813 41.1403 21.2625 41.1403C22.3437 41.1403 23.2233 40.2607 23.2233 39.1795C23.2233 38.0983 22.3437 37.2188 21.2625 37.2188ZM21.2625 40.2027C20.6983 40.2027 20.2393 39.7437 20.2393 39.1794C20.2393 38.6153 20.6983 38.1562 21.2625 38.1562C21.8268 38.1562 22.2858 38.6153 22.2858 39.1794C22.2858 39.7437 21.8268 40.2027 21.2625 40.2027Z" fill="white"/>
<path d="M26.9998 37.2207C25.9186 37.2207 25.0391 38.1003 25.0391 39.1815C25.0391 40.2626 25.9186 41.1422 26.9998 41.1422C28.0809 41.1422 28.9606 40.2626 28.9606 39.1815C28.9606 38.1003 28.081 37.2207 26.9998 37.2207ZM26.9998 40.2046C26.4356 40.2046 25.9766 39.7456 25.9766 39.1814C25.9766 38.6172 26.4356 38.1581 26.9998 38.1581C27.564 38.1581 28.0231 38.6172 28.0231 39.1814C28.0231 39.7456 27.5641 40.2046 26.9998 40.2046Z" fill="white"/>
<path d="M32.7371 37.2207C31.6559 37.2207 30.7764 38.1003 30.7764 39.1815C30.7764 40.2626 31.6559 41.1422 32.7371 41.1422C33.8183 41.1422 34.6979 40.2626 34.6979 39.1815C34.6979 38.1003 33.8183 37.2207 32.7371 37.2207ZM32.7371 40.2046C32.1729 40.2046 31.7139 39.7456 31.7139 39.1814C31.7139 38.6172 32.1729 38.1581 32.7371 38.1581C33.3014 38.1581 33.7604 38.6172 33.7604 39.1814C33.7604 39.7456 33.3014 40.2046 32.7371 40.2046Z" fill="white"/>
<path d="M25.5078 16.3438H28.4918C28.7507 16.3438 28.9606 16.1339 28.9606 15.875C28.9606 15.6161 28.7507 15.4062 28.4918 15.4062H25.5078C25.2489 15.4062 25.0391 15.6161 25.0391 15.875C25.0391 16.1339 25.2489 16.3438 25.5078 16.3438Z" fill="white"/>
<path d="M30.3168 17.3027H23.6836C23.4247 17.3027 23.2148 17.5126 23.2148 17.7715C23.2148 18.0304 23.4247 18.2402 23.6836 18.2402H30.3168C30.5757 18.2402 30.7855 18.0304 30.7855 17.7715C30.7856 17.5126 30.5757 17.3027 30.3168 17.3027Z" fill="white"/>
</g>
<defs>
<clipPath id="clip0_387_25492">
<rect width="32" height="32" fill="white" transform="translate(11 11)"/>
</clipPath>
</defs>
</svg>
