<svg width="21" height="21" viewBox="0 0 21 21" fill="none" xmlns="http://www.w3.org/2000/svg">
<path fill-rule="evenodd" clip-rule="evenodd" d="M0 10.4846C0 12.2939 1.47197 13.7659 3.28125 13.7659H17.7188C19.528 13.7659 21 12.2939 21 10.4846V3.92212C21 2.11284 19.528 0.640869 17.7188 0.640869H3.28125C1.47197 0.640869 0 2.11284 0 3.92212V10.4846ZM1.64062 3.92212C1.64062 3.01748 2.37661 2.28149 3.28125 2.28149H17.7188C18.6234 2.28149 19.3594 3.01748 19.3594 3.92212V10.4846C19.3594 11.3893 18.6234 12.1252 17.7188 12.1252H3.28125C2.37661 12.1252 1.64062 11.3893 1.64062 10.4846V3.92212ZM3.34437 9.34873C3.1701 9.76693 3.36783 10.2472 3.78603 10.4215C4.20484 10.596 4.68476 10.3973 4.85875 9.97984L6.43658 6.19361C6.52013 5.99316 6.5625 5.78091 6.5625 5.56274C6.5625 4.6581 5.82652 3.92212 4.92188 3.92212H3.28125C2.82819 3.92212 2.46094 4.28937 2.46094 4.74243C2.46094 5.19549 2.82819 5.56274 3.28125 5.56274L4.9222 5.5625L3.34437 9.34873ZM14.9423 10.4215C14.5241 10.2472 14.3263 9.76693 14.5006 9.34873L16.0785 5.5625L14.4375 5.56274C13.9844 5.56274 13.6172 5.19549 13.6172 4.74243C13.6172 4.28937 13.9844 3.92212 14.4375 3.92212H16.0781C16.9828 3.92212 17.7188 4.6581 17.7188 5.56274C17.7188 5.78091 17.6764 5.99316 17.5928 6.19361L16.015 9.97984C15.841 10.3973 15.3611 10.596 14.9423 10.4215ZM8.9225 9.34873C8.74822 9.76693 8.94596 10.2472 9.36415 10.4215C9.78296 10.596 10.2629 10.3973 10.4369 9.97984L12.0147 6.19361C12.0983 5.99316 12.1406 5.78091 12.1406 5.56274C12.1406 4.6581 11.4046 3.92212 10.5 3.92212H8.85938C8.40632 3.92212 8.03906 4.28937 8.03906 4.74243C8.03906 5.19549 8.40632 5.56274 8.85938 5.56274L10.5003 5.5625L8.9225 9.34873ZM4.10156 20.3284C2.7446 20.3284 1.64062 19.2244 1.64062 17.8674V16.2268C1.64062 15.7737 2.00788 15.4065 2.46094 15.4065C2.914 15.4065 3.28125 15.7737 3.28125 16.2268V17.8674C3.28125 18.3198 3.64924 18.6877 4.10156 18.6877H16.8984C17.3508 18.6877 17.7188 18.3198 17.7188 17.8674V16.2268C17.7188 15.7737 18.086 15.4065 18.5391 15.4065C18.9921 15.4065 19.3594 15.7737 19.3594 16.2268V17.8674C19.3594 19.2244 18.2554 20.3284 16.8984 20.3284H4.10156ZM6.39844 16.2268C6.39844 16.6799 6.76569 17.0471 7.21875 17.0471H13.7812C14.2343 17.0471 14.6016 16.6799 14.6016 16.2268C14.6016 15.7737 14.2343 15.4065 13.7812 15.4065H7.21875C6.76569 15.4065 6.39844 15.7737 6.39844 16.2268Z" fill="#CC0000"/>
</svg>
