<svg width="36" height="36" viewBox="0 0 36 36" fill="none" xmlns="http://www.w3.org/2000/svg">
<rect width="36" height="36" rx="18" fill="#0D4EE3"/>
<path d="M15.4331 26.8008C15.2305 26.8008 15.0664 26.9649 15.0664 27.1674C15.0664 27.3699 15.2305 27.5341 15.4331 27.5341H16.1664C16.3689 27.5341 16.5331 27.3699 16.5331 27.1674C16.5331 26.9649 16.3689 26.8008 16.1664 26.8008H15.4331Z" fill="white"/>
<path d="M25.6992 13.6H22.3992V12.5C22.3992 12.2975 22.235 12.1333 22.0326 12.1333C21.8301 12.1333 21.6659 12.2975 21.6659 12.5V13.6H16.1659C15.5584 13.6 15.0659 14.0925 15.0659 14.7V21.3C15.0659 21.9075 15.5584 22.4 16.1659 22.4H21.6659V24.9667H20.5659C20.3634 24.9667 20.1993 25.1308 20.1993 25.3333C20.1993 25.5358 20.3634 25.7 20.5659 25.7H21.6659V27.9C21.6659 28.1025 21.5018 28.2666 21.2993 28.2666H10.2993C10.0968 28.2666 9.93261 28.1025 9.93261 27.9V25.7H18.366C18.5685 25.7 18.7326 25.5358 18.7326 25.3333C18.7326 25.1308 18.5685 24.9667 18.366 24.9667H9.93257V10.6667H11.0326C11.2351 10.6667 11.3992 10.5025 11.3992 10.3C11.3992 10.0975 11.2351 9.93335 11.0326 9.93335H9.93257V8.1C9.93257 7.89749 10.0967 7.73335 10.2992 7.73335H21.2992C21.5017 7.73335 21.6659 7.89749 21.6659 8.1V9.93335H13.2326C13.0301 9.93335 12.8659 10.0975 12.8659 10.3C12.8659 10.5025 13.0301 10.6667 13.2326 10.6667H22.0326C22.2351 10.6667 22.3992 10.5025 22.3992 10.3V8.1C22.3992 7.49251 21.9067 7 21.2992 7H10.2992C9.69173 7 9.19922 7.49246 9.19922 8.1V27.9C9.19922 28.5075 9.69168 29 10.2992 29H21.2992C21.9067 29 22.3992 28.5075 22.3992 27.9V22.4H25.6992C26.3067 22.4 26.7992 21.9075 26.7992 21.3V14.7C26.7992 14.0925 26.3068 13.6 25.6992 13.6ZM26.0659 21.3C26.0659 21.5025 25.9017 21.6667 25.6992 21.6667H16.1659C15.9634 21.6667 15.7992 21.5025 15.7992 21.3V14.7C15.7992 14.4975 15.9634 14.3333 16.1659 14.3333H25.6992C25.9017 14.3333 26.0659 14.4975 26.0659 14.7V21.3Z" fill="white"/>
<path d="M25.0234 15.4381C24.927 15.4229 24.8286 15.4467 24.7499 15.5042L20.9333 18.281L17.1155 15.5042C17.0096 15.4272 16.8705 15.4126 16.7508 15.4658C16.6311 15.5191 16.549 15.6321 16.5352 15.7624C16.5215 15.8927 16.5783 16.0204 16.6843 16.0974L20.7177 19.0308C20.7295 19.0374 20.7418 19.0435 20.7543 19.0487C20.7661 19.0556 20.7784 19.0617 20.791 19.0671C20.8356 19.0879 20.884 19.0994 20.9333 19.1008C20.983 19.0995 21.0319 19.0881 21.077 19.0671C21.0896 19.0618 21.1018 19.0556 21.1136 19.0487C21.1262 19.0435 21.1384 19.0374 21.1503 19.0308L25.1836 16.0974C25.347 15.9779 25.3826 15.7487 25.2632 15.5852C25.206 15.5063 25.1197 15.4533 25.0234 15.4381Z" fill="white"/>
<path d="M18.2893 18.6576L16.6393 20.3076C16.544 20.3997 16.5057 20.536 16.5393 20.6642C16.5729 20.7924 16.673 20.8925 16.8012 20.9261C16.9293 20.9596 17.0657 20.9214 17.1578 20.8261L18.8078 19.1761C18.9467 19.0322 18.9447 18.8035 18.8033 18.6621C18.6619 18.5207 18.4332 18.5186 18.2893 18.6576Z" fill="white"/>
<path d="M23.5745 18.6576C23.4307 18.5187 23.2019 18.5206 23.0605 18.6621C22.9191 18.8035 22.9171 19.0322 23.0561 19.1761L24.7061 20.8261C24.8499 20.965 25.0786 20.9631 25.2201 20.8216C25.3615 20.6802 25.3635 20.4515 25.2245 20.3076L23.5745 18.6576Z" fill="white"/>
</svg>
