<svg width="64" height="64" viewBox="0 0 64 64" fill="none" xmlns="http://www.w3.org/2000/svg">
<path d="M51.8554 32.9375H54.6426C55.0788 35.0956 56.9898 36.7256 59.2745 36.7256C61.8801 36.7256 64 34.6058 64 32C64 29.3942 61.8801 27.2744 59.2744 27.2744C56.9896 27.2744 55.0786 28.9044 54.6425 31.0625H51.8553C51.6324 26.2871 49.7174 21.9466 46.6965 18.6292L51.717 13.6089C52.7052 14.3285 53.9204 14.7546 55.2337 14.7546C58.5358 14.7546 61.222 12.0682 61.222 8.76625C61.222 5.46425 58.5358 2.778 55.2337 2.778C51.9317 2.778 49.2455 5.46437 49.2455 8.76625C49.2455 10.0796 49.6715 11.2948 50.3913 12.283L45.3708 17.3034C42.0534 14.2826 37.7129 12.3675 32.9375 12.1447V9.3575C35.0956 8.92138 36.7256 7.01038 36.7256 4.72563C36.7256 2.11987 34.6058 0 32 0C29.3942 0 27.2744 2.11987 27.2744 4.72563C27.2744 7.01038 28.9044 8.92138 31.0625 9.3575V12.1446C26.2871 12.3675 21.9466 14.2825 18.6292 17.3032L13.6091 12.2832C14.3289 11.2949 14.755 10.0796 14.755 8.76625C14.755 6.77225 13.7674 4.91537 12.1131 3.79912C11.6836 3.50962 11.101 3.62263 10.8116 4.05188C10.522 4.48112 10.6351 5.06375 11.0642 5.35337C12.2013 6.1205 12.8799 7.39637 12.8799 8.76625C12.8799 11.0345 11.0344 12.88 8.76612 12.88C6.49787 12.88 4.6525 11.0345 4.6525 8.76625C4.6525 6.9345 5.88188 5.30638 7.64213 4.807C8.14025 4.66563 8.4295 4.14725 8.28813 3.64913C8.14675 3.151 7.62812 2.86212 7.13037 3.00312C4.56738 3.73037 2.7775 6.10025 2.7775 8.76625C2.7775 12.0685 5.464 14.755 8.76625 14.755C10.0798 14.755 11.295 14.3289 12.2832 13.6091L17.3034 18.6291C14.2825 21.9465 12.3675 26.287 12.1446 31.0624H9.3575C8.92138 28.9042 7.01038 27.2743 4.72563 27.2743C2.11987 27.2744 0 29.3942 0 32C0 34.6058 2.11987 36.7256 4.72563 36.7256C7.01038 36.7256 8.92138 35.0956 9.3575 32.9375H12.1447C12.3676 37.7129 14.2826 42.0534 17.3035 45.3708L12.283 50.3911C11.2948 49.6715 10.0796 49.2454 8.76625 49.2454C5.46425 49.2454 2.778 51.9317 2.778 55.2337C2.778 58.5358 5.46425 61.222 8.76625 61.222C12.0682 61.222 14.7545 58.5356 14.7545 55.2337C14.7545 53.9204 14.3285 52.7052 13.6088 51.717L18.6292 46.6966C21.9466 49.7174 26.2871 51.6325 31.0625 51.8553V54.6424C28.9044 55.0785 27.2744 56.9895 27.2744 59.2743C27.2744 61.8801 29.3942 64 32 64C34.6058 64 36.7256 61.8801 36.7256 59.2744C36.7256 56.9896 35.0956 55.0786 32.9375 54.6425V51.8554C37.7129 51.6325 42.0534 49.7175 45.3708 46.6968L50.3909 51.7168C49.6711 52.7051 49.245 53.9204 49.245 55.2337C49.245 58.5359 51.9315 61.2225 55.2337 61.2225C58.536 61.2225 61.2225 58.536 61.2225 55.2337C61.2225 54.5855 61.1193 53.9471 60.9156 53.336C60.7518 52.8449 60.2206 52.5794 59.7299 52.743C59.2386 52.9067 58.9731 53.4376 59.1369 53.9289C59.2766 54.3483 59.3476 54.7874 59.3476 55.2336C59.3476 57.5019 57.5021 59.3474 55.2339 59.3474C52.9656 59.3474 51.1201 57.502 51.1201 55.2336C51.1201 52.9652 52.9656 51.1199 55.2339 51.1199C55.753 51.1199 56.2592 51.2154 56.7385 51.4038C57.2199 51.5931 57.7645 51.356 57.954 50.8741C58.1434 50.3923 57.9062 49.8481 57.4244 49.6586C56.7257 49.3841 55.9889 49.2449 55.234 49.2449C53.9205 49.2449 52.7052 49.671 51.717 50.3908L46.6969 45.3708C49.7174 42.0534 51.6325 37.7129 51.8554 32.9375ZM59.2744 29.1494C60.8463 29.1494 62.125 30.4281 62.125 32C62.125 33.5719 60.8463 34.8506 59.2744 34.8506C57.7025 34.8506 56.4238 33.5719 56.4238 32C56.4238 30.4281 57.7026 29.1494 59.2744 29.1494ZM55.2337 4.653C57.5019 4.653 59.347 6.49825 59.347 8.76625C59.347 11.0344 57.5018 12.8796 55.2337 12.8796C52.9657 12.8796 51.1205 11.0344 51.1205 8.76625C51.1205 6.49812 52.9657 4.653 55.2337 4.653ZM29.1494 4.72563C29.1494 3.15375 30.4282 1.875 32 1.875C33.5718 1.875 34.8506 3.15375 34.8506 4.72563C34.8506 6.2975 33.5718 7.57625 32 7.57625C30.4282 7.57625 29.1494 6.29738 29.1494 4.72563ZM4.72563 34.8506C3.15375 34.8506 1.875 33.5719 1.875 32C1.875 30.4281 3.15375 29.1494 4.72563 29.1494C6.2975 29.1494 7.57613 30.4281 7.57613 32C7.57613 33.5719 6.29738 34.8506 4.72563 34.8506ZM32 13.997C41.9269 13.997 50.003 22.0731 50.003 32C50.003 41.9269 41.9269 50.003 32 50.003C22.0731 50.003 13.997 41.927 13.997 32C13.997 22.073 22.0731 13.997 32 13.997ZM8.76625 59.347C6.49812 59.347 4.653 57.5018 4.653 55.2337C4.653 52.9656 6.49825 51.1204 8.76625 51.1204C11.0342 51.1204 12.8795 52.9656 12.8795 55.2337C12.8795 57.5019 11.0342 59.347 8.76625 59.347ZM34.8506 59.2744C34.8506 60.8463 33.5718 62.125 32 62.125C30.4282 62.125 29.1494 60.8463 29.1494 59.2744C29.1494 57.7025 30.4282 56.4238 32 56.4238C33.5718 56.4238 34.8506 57.7026 34.8506 59.2744Z" fill="url(#paint0_linear)"/>
<path d="M21.3935 43.5438H26.6879C26.6908 43.5438 26.6936 43.5442 26.6964 43.5442C26.6993 43.5442 26.7021 43.5438 26.7049 43.5438H29.8123C30.3302 43.5438 30.7498 43.1241 30.7498 42.6063C30.7498 42.0886 30.3302 41.6688 29.8123 41.6688H27.6339V40.0813C27.6339 39.5635 27.2143 39.1438 26.6964 39.1438C26.1786 39.1438 25.7589 39.5635 25.7589 40.0813V41.6688H22.3311V37.0513C22.3311 34.7831 24.1759 32.9375 26.4434 32.9375H37.5559C39.8236 32.9375 41.6683 34.7831 41.6683 37.0513V41.6688H38.2404V40.0813C38.2404 39.5635 37.8208 39.1438 37.3029 39.1438C36.7851 39.1438 36.3654 39.5635 36.3654 40.0813V41.6688H34.1873C33.6694 41.6688 33.2498 42.0886 33.2498 42.6063C33.2498 43.1241 33.6694 43.5438 34.1873 43.5438H37.2947C37.2976 43.5438 37.3003 43.5442 37.3032 43.5442C37.3061 43.5442 37.3088 43.5438 37.3117 43.5438H42.6061C43.1239 43.5438 43.5436 43.1241 43.5436 42.6063V37.0513C43.5436 33.7491 40.8577 31.0625 37.5562 31.0625H36.8602C38.3274 29.7348 39.2509 27.8165 39.2509 25.6865C39.2509 21.6883 35.9982 18.4355 31.9999 18.4355C28.0017 18.4355 24.7489 21.6883 24.7489 25.6865C24.7489 27.8165 25.6724 29.7348 27.1397 31.0625H26.4437C23.1422 31.0625 20.4563 33.7491 20.4563 37.0513V42.6063C20.456 43.1241 20.8758 43.5438 21.3935 43.5438ZM26.6238 25.6865C26.6238 22.7223 29.0354 20.3105 31.9998 20.3105C34.9642 20.3105 37.3758 22.7222 37.3758 25.6865C37.3758 28.6509 34.9642 31.0625 31.9998 31.0625C29.0354 31.0625 26.6238 28.6509 26.6238 25.6865Z" fill="url(#paint1_linear)"/>
<defs>
<linearGradient id="paint0_linear" x1="2.38419e-07" y1="32" x2="64" y2="32" gradientUnits="userSpaceOnUse">
<stop stop-color="#4E2267"/>
<stop offset="1" stop-color="#9441C4"/>
</linearGradient>
<linearGradient id="paint1_linear" x1="20.4563" y1="30.9899" x2="43.5436" y2="30.9899" gradientUnits="userSpaceOnUse">
<stop stop-color="#4E2267"/>
<stop offset="1" stop-color="#9441C4"/>
</linearGradient>
</defs>
</svg>
