<svg width="48" height="48" viewBox="0 0 48 48" fill="none" xmlns="http://www.w3.org/2000/svg">
<g clip-path="url(#clip0_387_26426)">
<path fill-rule="evenodd" clip-rule="evenodd" d="M43.9992 6.40039H3.99923C3.55737 6.40039 3.19922 6.75854 3.19922 7.2004C3.19922 7.64227 3.55737 8.00042 3.99923 8.00042H43.9992C44.4411 8.00042 44.7993 7.64227 44.7993 7.2004C44.7993 6.75854 44.4411 6.40039 43.9992 6.40039Z" fill="#0D4EE3"/>
<path d="M4.80001 4.79925C5.24185 4.79925 5.60003 4.44107 5.60003 3.99923C5.60003 3.5574 5.24185 3.19922 4.80001 3.19922C4.35818 3.19922 4 3.5574 4 3.99923C4 4.44107 4.35818 4.79925 4.80001 4.79925Z" fill="#0D4EE3"/>
<path d="M7.99923 4.79925C8.44107 4.79925 8.79925 4.44107 8.79925 3.99923C8.79925 3.5574 8.44107 3.19922 7.99923 3.19922C7.5574 3.19922 7.19922 3.5574 7.19922 3.99923C7.19922 4.44107 7.5574 4.79925 7.99923 4.79925Z" fill="#0D4EE3"/>
<path d="M11.2004 4.79925C11.6422 4.79925 12.0004 4.44107 12.0004 3.99923C12.0004 3.5574 11.6422 3.19922 11.2004 3.19922C10.7586 3.19922 10.4004 3.5574 10.4004 3.99923C10.4004 4.44107 10.7586 4.79925 11.2004 4.79925Z" fill="#0D4EE3"/>
<path d="M44 0H3.99999C1.79194 0.00260617 0.00260617 1.79194 0 3.99999V44C0.00260617 46.2081 1.79194 47.9974 3.99999 48H44C46.2081 47.9973 47.9974 46.2081 48 44V3.99999C47.9974 1.79194 46.2081 0.00260617 44 0ZM46.4001 44C46.4001 45.3255 45.3255 46.4 44.0001 46.4H3.99999C2.67448 46.4 1.60003 45.3254 1.60003 44V3.99999C1.60003 2.67448 2.67456 1.60003 3.99999 1.60003H44C45.3255 1.60003 46.4 2.67456 46.4 3.99999V44H46.4001Z" fill="#0D4EE3"/>
<path d="M41.6008 11.1992H6.40081C5.51716 11.1992 4.80078 11.9156 4.80078 12.7992V30.3993C4.80078 31.2829 5.51716 31.9993 6.40081 31.9993H41.6008C42.4845 31.9993 43.2008 31.2829 43.2008 30.3993V12.7992C43.2008 11.9155 42.4845 11.1992 41.6008 11.1992ZM6.40081 19.1992H17.6009V23.9992H6.40081V19.1992ZM19.2008 19.1992H41.6008V23.9992H19.2008V19.1992ZM41.6008 17.5992H19.2008V12.7992H41.6008V17.5992ZM6.40081 12.7992H17.6009V17.5992H6.40081V12.7992ZM6.40081 25.5992H17.6009V30.3992H6.40081V25.5992ZM19.2008 30.3992V25.5992H41.6008V30.3992H19.2008Z" fill="#0D4EE3"/>
<path fill-rule="evenodd" clip-rule="evenodd" d="M15.2001 14.4004H8.80001C8.35815 14.4004 8 14.7585 8 15.2004C8 15.6423 8.35815 16.0004 8.80001 16.0004H15.2001C15.6419 16.0004 16.0001 15.6423 16.0001 15.2004C16 14.7585 15.6418 14.4004 15.2001 14.4004Z" fill="#0D4EE3"/>
<path fill-rule="evenodd" clip-rule="evenodd" d="M21.6008 16.0004H24.8008C25.2426 16.0004 25.6008 15.6423 25.6008 15.2004C25.6008 14.7585 25.2426 14.4004 24.8008 14.4004H21.6008C21.1589 14.4004 20.8008 14.7585 20.8008 15.2004C20.8008 15.6423 21.159 16.0004 21.6008 16.0004Z" fill="#0D4EE3"/>
<path fill-rule="evenodd" clip-rule="evenodd" d="M15.2001 20.8008H8.80001C8.35815 20.8008 8 21.1589 8 21.6008C8 22.0427 8.35815 22.4008 8.80001 22.4008H15.2001C15.6419 22.4008 16.0001 22.0427 16.0001 21.6008C16 21.159 15.6418 20.8008 15.2001 20.8008Z" fill="#0D4EE3"/>
<path fill-rule="evenodd" clip-rule="evenodd" d="M39.1992 20.8008H35.9992C35.5574 20.8008 35.1992 21.1589 35.1992 21.6008C35.1992 22.0427 35.5574 22.4008 35.9992 22.4008H39.1992C39.6411 22.4008 39.9992 22.0427 39.9992 21.6008C39.9992 21.159 39.6411 20.8008 39.1992 20.8008Z" fill="#0D4EE3"/>
<path fill-rule="evenodd" clip-rule="evenodd" d="M15.2001 27.2012H8.80001C8.35815 27.2012 8 27.5593 8 28.0012C8 28.4431 8.35815 28.8012 8.80001 28.8012H15.2001C15.6419 28.8012 16.0001 28.4431 16.0001 28.0012C16.0001 27.5593 15.6418 27.2012 15.2001 27.2012Z" fill="#0D4EE3"/>
<path fill-rule="evenodd" clip-rule="evenodd" d="M24.8008 27.2012H21.6008C21.1589 27.2012 20.8008 27.5593 20.8008 28.0012C20.8008 28.4431 21.1589 28.8012 21.6008 28.8012H24.8008C25.2426 28.8012 25.6008 28.4431 25.6008 28.0012C25.6008 27.5593 25.2426 27.2012 24.8008 27.2012Z" fill="#0D4EE3"/>
<path fill-rule="evenodd" clip-rule="evenodd" d="M27.9992 16.0004H39.1993C39.6411 16.0004 39.9993 15.6423 39.9993 15.2004C39.9993 14.7585 39.6411 14.4004 39.1993 14.4004H27.9992C27.5574 14.4004 27.1992 14.7585 27.1992 15.2004C27.1992 15.6423 27.5574 16.0004 27.9992 16.0004Z" fill="#0D4EE3"/>
<path fill-rule="evenodd" clip-rule="evenodd" d="M32.8008 20.8008H21.6008C21.1589 20.8008 20.8008 21.1589 20.8008 21.6008C20.8008 22.0427 21.1589 22.4008 21.6008 22.4008H32.8008C33.2427 22.4008 33.6009 22.0427 33.6009 21.6008C33.6009 21.159 33.2426 20.8008 32.8008 20.8008Z" fill="#0D4EE3"/>
<path fill-rule="evenodd" clip-rule="evenodd" d="M39.1992 27.2012H27.9992C27.5574 27.2012 27.1992 27.5593 27.1992 28.0012C27.1992 28.4431 27.5574 28.8012 27.9992 28.8012H39.1993C39.6411 28.8012 39.9993 28.4431 39.9993 28.0012C39.9993 27.5593 39.6411 27.2012 39.1992 27.2012Z" fill="#0D4EE3"/>
<path d="M29.6004 35.1992H18.4004C16.1912 35.1992 14.4004 36.99 14.4004 39.1992C14.4004 41.4084 16.1912 43.1992 18.4004 43.1992H29.6004C31.8096 43.1992 33.6004 41.4084 33.6004 39.1992C33.6004 36.9901 31.8095 35.1992 29.6004 35.1992ZM29.6004 41.5993H18.4004C17.0749 41.5993 16.0004 40.5247 16.0004 39.1993C16.0004 37.8738 17.0749 36.7993 18.4004 36.7993H29.6004C30.9259 36.7993 32.0004 37.8739 32.0004 39.1993C32.0004 40.5247 30.9259 41.5993 29.6004 41.5993Z" fill="#0D4EE3"/>
</g>
<defs>
<clipPath id="clip0_387_26426">
<rect width="48" height="48" fill="white"/>
</clipPath>
</defs>
</svg>
