<svg width="93" height="88" viewBox="0 0 93 88" fill="none" xmlns="http://www.w3.org/2000/svg">
<g clip-path="url(#clip0)">
<path d="M46.5999 80.2999C67.9733 80.2999 85.2999 62.9733 85.2999 41.5999C85.2999 20.2265 67.9733 2.8999 46.5999 2.8999C25.2265 2.8999 7.8999 20.2265 7.8999 41.5999C7.8999 62.9733 25.2265 80.2999 46.5999 80.2999Z" fill="url(#paint0_radial)"/>
<path opacity="0.28" d="M39.7 77.4C61.0734 77.4 78.4 60.0734 78.4 38.7C78.4 17.3266 61.0734 0 39.7 0C18.3266 0 1 17.3266 1 38.7C1 60.0734 18.3266 77.4 39.7 77.4Z" fill="#FFDC2F"/>
<path opacity="0.28" d="M46.4002 87.2C67.7736 87.2 85.1002 69.8735 85.1002 48.5C85.1002 27.1266 67.7736 9.80005 46.4002 9.80005C25.0268 9.80005 7.7002 27.1266 7.7002 48.5C7.7002 69.8735 25.0268 87.2 46.4002 87.2Z" fill="#FFDC2F"/>
<path opacity="0.28" d="M53.5999 77.4C74.9733 77.4 92.2999 60.0734 92.2999 38.7C92.2999 17.3266 74.9733 0 53.5999 0C32.2265 0 14.8999 17.3266 14.8999 38.7C14.8999 60.0734 32.2265 77.4 53.5999 77.4Z" fill="#FFDC2F"/>
<path d="M77.3 51.1999C77.3 51.1999 76.5 50.2999 76.1 49.1999C75.9 48.4999 75.8 47.6999 75.6 46.8999C75.3 44.9999 75 42.7999 73.1 41.7999C74.9 40.8999 75.3 38.6999 75.6 36.6999C75.7 35.7999 75.8 34.9999 76.1 34.3999C76.5 33.2999 77.3 32.3999 77.3 32.3999C77.5 32.1999 77.5 31.9999 77.4 31.7999C77.3 31.5999 77.1 31.3999 76.9 31.3999C76.9 31.3999 76 31.2999 74.8 30.4999C74.2 30.0999 73.6 29.4999 73 28.8999C71.6 27.4999 70.1 25.9999 68.1 26.2999C69 24.4999 68 22.4999 67.1 20.7999C66.7 19.9999 66.3 19.2999 66.1 18.5999C65.8 17.4999 65.9 16.2999 65.9 16.2999C65.9 16.0999 65.8 15.8999 65.6 15.6999C65.4 15.5999 65.2 15.5999 65 15.6999C65 15.6999 64.2 16.1999 62.8 16.1999C62.1 16.1999 61.3 16.0999 60.4 15.8999C58.5 15.5999 56.4 15.1999 54.9 16.5999C54.6 14.5999 52.6 13.5999 50.9 12.6999C50.1 12.2999 49.4 11.9999 48.8 11.4999C47.9 10.7999 47.3 9.7999 47.3 9.6999C47.2 9.4999 47 9.3999 46.8 9.3999C46.6 9.3999 46.4 9.4999 46.3 9.6999C46.3 9.6999 45.9 10.4999 44.8 11.3999C44.2 11.7999 43.5 12.1999 42.7 12.5999C41 13.4999 39.1 14.3999 38.7 16.3999C37.2 14.9999 35.1 15.2999 33.2 15.6999C32.4 15.7999 31.6 15.9999 30.8 15.9999C29.6 15.9999 28.5 15.4999 28.5 15.4999C28.3 15.3999 28.1 15.3999 27.9 15.5999C27.7 15.6999 27.6 15.9999 27.7 16.1999C27.7 16.1999 27.9 17.0999 27.5 18.4999C27.3 19.1999 26.9 19.8999 26.5 20.6999C25.6 22.3999 24.6 24.2999 25.5 26.0999C23.5 25.7999 21.9 27.3999 20.6 28.7999C20 29.3999 19.4 29.9999 18.8 30.3999C17.9 31.0999 16.7 31.2999 16.7 31.2999C16.5 31.2999 16.3 31.4999 16.2 31.6999C16.1 31.8999 16.2 32.0999 16.4 32.2999C16.4 32.2999 17.1 32.8999 17.6 34.2999C17.8 34.9999 18 35.7999 18.1 36.6999C18.4 38.5999 18.7 40.7999 20.5 41.6999C18.7 42.5999 18.4 44.7999 18.1 46.6999C18 47.5999 17.8 48.3999 17.6 49.0999C17.1 50.3999 16.5 51.0999 16.5 51.0999C16 51.2999 16 51.4999 16 51.6999C16.1 51.8999 16.2 52.0999 16.5 52.0999C16.5 52.0999 17.7 52.3999 18.6 52.9999C19.2 53.3999 19.7 53.9999 20.3 54.5999C21.6 55.8999 22.9 57.2999 24.7 57.2999C24.9 57.2999 25 57.2999 25.2 57.2999C24.3 59.0999 25.3 60.9999 26.2 62.6999C26.6 63.4999 27 64.1999 27.2 64.8999C27.6 66.2999 27.4 67.1999 27.4 67.1999C27.4 67.3999 27.4 67.6999 27.6 67.7999C27.8 67.8999 28 67.9999 28.2 67.8999C28.2 67.8999 29.3 67.3999 30.5 67.3999C31.2 67.3999 32 67.4999 32.9 67.6999C33.8 67.7999 34.7 67.9999 35.5 67.9999C36.6 67.9999 37.6 67.7999 38.4 66.9999C38.8 68.9999 40.7 69.8999 42.4 70.7999C43.2 71.1999 43.9 71.5999 44.5 71.9999C45.6 72.8999 46 73.6999 46 73.6999C46.1 73.8999 46.3 73.9999 46.5 74.0999C46.7 74.0999 46.9 73.9999 47 73.7999C47 73.7999 47.6 72.6999 48.5 71.9999C49.1 71.5999 49.8 71.1999 50.6 70.7999C52.4 69.8999 54.3 68.8999 54.6 66.8999C56 68.2999 58.2 67.9999 60.1 67.5999C61 67.4999 61.8 67.2999 62.5 67.2999C63.9 67.2999 64.7 67.7999 64.7 67.7999C64.8 67.8999 64.9 67.8999 65 67.8999C65.1 67.8999 65.2 67.8999 65.3 67.7999C65.5 67.6999 65.6 67.4999 65.6 67.1999C65.6 67.1999 65.5 65.9999 65.8 64.8999C66 64.1999 66.4 63.4999 66.8 62.6999C67.7 60.9999 68.7 58.9999 67.8 57.1999C68 57.1999 68.1 57.1999 68.3 57.1999C70.1 57.1999 71.4 55.7999 72.7 54.4999C73.3 53.8999 73.9 53.2999 74.5 52.8999C75.7 52.0999 76.6 51.9999 76.6 51.9999C76.8 51.9999 77 51.7999 77.1 51.5999C77.5 51.5999 77.4 51.3999 77.3 51.1999ZM72.1 29.6999C72.7 30.2999 73.4 30.9999 74.1 31.4999C74.7 31.8999 75.3 32.1999 75.8 32.3999C75.5 32.7999 75.2 33.3999 74.9 34.0999C74.6 34.8999 74.5 35.7999 74.4 36.5999C74.1 38.5999 73.8 40.3999 72.2 40.8999C71.9 40.9999 71.2 41.0999 70.6 41.0999C70.5 36.9999 69.4 33.1999 67.4 29.8999C67.1 29.2999 66.7 28.7999 66.4 28.2999C66.9 27.9999 67.5 27.6999 67.9 27.5999C69.5 26.9999 70.8 28.2999 72.1 29.6999ZM47.8 64.4999L67 31.3999C68.6 34.4999 69.5 38.0999 69.5 41.7999C69.5 53.9999 59.8 63.9999 47.8 64.4999ZM24 41.7999C24 38.0999 24.9 34.4999 26.5 31.3999L45.7 64.4999C33.6 63.9999 24 53.9999 24 41.7999ZM46.7 19.0999C54.7 19.0999 61.8 23.2999 65.9 29.5999H27.5C31.6 23.2999 38.7 19.0999 46.7 19.0999ZM65.9 30.7999L46.7 63.9999L27.5 30.7999H65.9ZM55.4 17.7999C56.4 16.3999 58.2 16.6999 60.1 17.0999C61 17.1999 61.9 17.3999 62.7 17.3999C63.5 17.3999 64.1 17.2999 64.6 17.0999C64.6 17.5999 64.7 18.2999 64.9 18.9999C65.1 19.7999 65.6 20.5999 66 21.3999C66.9 23.1999 67.8 24.7999 66.8 26.1999C66.6 26.4999 66.1 26.9999 65.6 27.2999C62.8 23.6999 59 20.8999 54.6 19.2999C54.9 18.6999 55.2 18.0999 55.4 17.7999ZM43.1 13.8999C43.9 13.4999 44.7 13.0999 45.4 12.5999C46 12.0999 46.5 11.6999 46.8 11.2999C47.1 11.6999 47.6 12.1999 48.1 12.5999C48.8 13.0999 49.6 13.4999 50.4 13.8999C52.2 14.7999 53.8 15.5999 53.8 17.2999C53.8 17.5999 53.7 18.2999 53.5 18.8999C51.4 18.2999 49.1 17.8999 46.7 17.8999C44.3 17.8999 42 18.2999 39.9 18.8999C39.8 18.2999 39.7 17.6999 39.7 17.2999C39.7 15.5999 41.3 14.7999 43.1 13.8999ZM27.4 21.3999C27.8 20.5999 28.2 19.7999 28.5 18.9999C28.7 18.2999 28.8 17.5999 28.8 17.0999C29.3 17.1999 30 17.3999 30.7 17.3999C31.5 17.3999 32.4 17.2999 33.3 17.0999C35.3 16.7999 37.1 16.4999 38.1 17.7999C38.3 18.0999 38.6 18.6999 38.8 19.1999C34.4 20.7999 30.6 23.5999 27.8 27.1999C27.4 26.7999 26.9 26.2999 26.7 25.9999C25.6 24.6999 26.5 23.0999 27.4 21.3999ZM19 36.5999C18.9 35.6999 18.7 34.7999 18.4 33.9999C18.1 33.2999 17.8 32.6999 17.6 32.2999C18.1 32.0999 18.7 31.7999 19.3 31.4999C20 30.9999 20.6 30.3999 21.2 29.7999C22.6 28.3999 23.9 27.0999 25.5 27.5999C25.8 27.6999 26.4 27.9999 26.9 28.2999C26.5 28.7999 26.2 29.2999 25.9 29.8999C24 33.1999 22.8 37.0999 22.7 41.1999C22.6 41.1999 22.6 41.1999 22.5 41.1999C22 41.0999 21.4 40.9999 21.1 40.8999C19.6 40.3999 19.3 38.5999 19 36.5999ZM21.2 53.8999C20.6 53.2999 20 52.5999 19.3 52.1999C18.7 51.7999 18.1 51.4999 17.6 51.3999C17.9 50.9999 18.2 50.3999 18.4 49.6999C18.7 48.8999 18.8 47.9999 19 47.0999C19.3 45.1999 19.6 43.2999 21.2 42.7999C21.5 42.6999 22 42.5999 22.6 42.4999C22.7 42.4999 22.7 42.4999 22.8 42.4999C22.9 47.2999 24.4 51.6999 27 55.3999C26.5 55.6999 25.9 56.0999 25.6 56.0999C23.9 56.5999 22.6 55.2999 21.2 53.8999ZM33.2 66.4999C32.3 66.3999 31.4 66.1999 30.6 66.1999C29.9 66.1999 29.2 66.3999 28.7 66.4999C28.7 65.9999 28.6 65.3999 28.4 64.5999C28.2 63.7999 27.7 62.9999 27.3 62.1999C26.4 60.4999 25.5 58.7999 26.5 57.4999C26.7 57.1999 27.1 56.6999 27.6 56.2999C30.4 59.8999 34.2 62.7999 38.6 64.2999C38.4 64.7999 38.1 65.4999 37.9 65.6999C37 67.1999 35.1 66.8999 33.2 66.4999ZM50.3 69.7999C49.5 70.1999 48.7 70.5999 48 71.0999C47.4 71.4999 47 71.9999 46.7 72.3999C46.4 71.9999 46 71.4999 45.4 70.9999C44.7 70.4999 43.9 70.0999 43.1 69.6999C41.3 68.7999 39.7 67.9999 39.7 66.2999C39.7 65.8999 39.8 65.2999 39.9 64.6999C42.1 65.2999 44.4 65.6999 46.7 65.6999C49.1 65.6999 51.3 65.3999 53.5 64.6999C53.6 65.1999 53.8 65.9999 53.8 66.2999C53.8 68.0999 52.1 68.8999 50.3 69.7999ZM66 62.2999C65.6 63.0999 65.2 63.8999 64.9 64.6999C64.7 65.3999 64.6 65.9999 64.6 66.5999C64.1 66.4999 63.5 66.2999 62.7 66.2999C61.9 66.2999 60.9 66.3999 60.1 66.5999C58.2 66.8999 56.3 67.1999 55.4 65.8999C55.2 65.5999 54.9 64.9999 54.6 64.4999C59 62.8999 62.8 60.0999 65.6 56.4999C66 56.8999 66.6 57.3999 66.7 57.5999C67.8 58.8999 67 60.5999 66 62.2999ZM74.1 52.0999C73.4 52.5999 72.8 53.1999 72.1 53.8999C70.7 55.2999 69.4 56.5999 67.8 56.0999C67.5 55.9999 66.9 55.6999 66.3 55.3999C68.9 51.6999 70.4 47.2999 70.5 42.4999C71.1 42.4999 71.8 42.5999 72.1 42.6999C73.7 43.1999 74 45.0999 74.3 46.9999C74.4 47.8999 74.6 48.7999 74.8 49.4999C75 50.1999 75.4 50.6999 75.7 51.1999C75.3 51.3999 74.7 51.6999 74.1 52.0999Z" fill="white"/>
</g>
<defs>
<radialGradient id="paint0_radial" cx="0" cy="0" r="1" gradientUnits="userSpaceOnUse" gradientTransform="translate(46.624 41.5787) scale(38.6621)">
<stop offset="0.00319786" stop-color="#FFDC2F"/>
<stop offset="1" stop-color="#FFDC2F" stop-opacity="0"/>
</radialGradient>
<clipPath id="clip0">
<rect width="91.2" height="87.2" fill="white" transform="translate(1)"/>
</clipPath>
</defs>
</svg>
