<svg width="92" height="92" viewBox="0 0 92 92" fill="none" xmlns="http://www.w3.org/2000/svg">
<g clip-path="url(#clip0)">
<path d="M46 92C71.4051 92 92 71.4051 92 46C92 20.5949 71.4051 0 46 0C20.5949 0 0 20.5949 0 46C0 71.4051 20.5949 92 46 92Z" fill="#94B052"/>
<path d="M92.0003 45.9995C92.0003 45.514 91.9928 45.0302 91.9779 44.5483L70.9823 23.5527L21.0186 81.1151L28.4267 88.5232C33.8411 90.7634 39.7763 91.9995 46.0003 91.9995C71.4054 91.9995 92.0003 71.4046 92.0003 45.9995Z" fill="#B6D868"/>
<path d="M58.3134 10.8838H21.0186V81.115H70.9821V23.5527L58.3134 10.8838Z" fill="#FEDA34"/>
<path d="M70.9818 23.5527L58.3131 10.8838H46V81.115H70.9818V23.5527Z" fill="#F8D671"/>
<path d="M35.2978 28.3839C35.2978 25.3727 37.7388 22.9316 40.75 22.9316C43.2497 22.9316 45.3563 24.6137 46 26.9076C46.6438 24.6137 48.7504 22.9316 51.2499 22.9316C54.2611 22.9316 56.7021 25.3727 56.7021 28.3839C56.7021 33.7253 46 40.1869 46 40.1869C46 40.1869 35.2978 33.8721 35.2978 28.3839Z" fill="#EA8249"/>
<path d="M46 40.1869C46 40.1869 35.2978 33.8723 35.2978 28.3839C35.2978 25.3727 37.7389 22.9316 40.7501 22.9316C43.2497 22.9316 45.3564 24.6137 46 26.9076V40.1869Z" fill="#F29456"/>
<path d="M58.3125 23.5527H70.9814L58.3125 10.8838V23.5527Z" fill="#FFCE00"/>
<path d="M26.498 43.3252H38.7037V55.5308H26.498V43.3252Z" fill="#E9EDF5"/>
<path d="M31.3062 55.8923L24.5918 49.1782L28.4035 45.3663L31.3062 48.2688L38.3582 41.2168L42.1699 45.0285L31.3062 55.8923Z" fill="#B6D868"/>
<path d="M26.498 61.8242H38.7037V74.0299H26.498V61.8242Z" fill="#E9EDF5"/>
<path d="M31.3062 74.3914L24.5918 67.6772L28.4035 63.8653L31.3062 66.7678L38.3582 59.7158L42.1699 63.5275L31.3062 74.3914Z" fill="#B6D868"/>
<path d="M50.2363 46.7334H66.7449V52.124H50.2363V46.7334Z" fill="#E9EDF5"/>
<path d="M50.2363 65.2324H66.7449V70.623H50.2363V65.2324Z" fill="#E9EDF5"/>
</g>
<defs>
<clipPath id="clip0">
<rect width="92" height="92" fill="white"/>
</clipPath>
</defs>
</svg>
