<svg width="24" height="24" viewBox="0 0 24 24" fill="none" xmlns="http://www.w3.org/2000/svg">
<path d="M23.3815 18.4609C23.7773 18.0435 23.9937 17.4988 23.9923 16.9203C23.9908 16.3223 23.7534 15.7779 23.3687 15.3753C23.7677 14.9571 23.9859 14.4103 23.9845 13.8294C23.9815 12.5962 22.9754 11.5904 21.7385 11.5874L20.676 11.5896V9.04589C20.676 7.84209 20.2894 6.72698 19.6342 5.81761V0.703125C19.6342 0.314812 19.3193 0 18.9309 0C18.5424 0 18.2275 0.314812 18.2275 0.703125V4.45331C17.3444 3.85763 16.2811 3.50953 15.1379 3.50953C14.0408 3.50953 12.9913 3.82636 12.0942 4.41619V0.703125C12.0942 0.314812 11.7793 0 11.3909 0C11.0025 0 10.6875 0.314812 10.6875 0.703125V5.73778C9.98063 6.67889 9.5989 7.8112 9.59979 8.99808L9.60214 12.3387C9.22542 12.5564 8.88153 12.8145 8.57506 13.1063H0.70335C0.314913 13.1063 0 13.4211 0 13.8094C0 14.1977 0.314913 14.5125 0.70335 14.5125H7.51867C7.15781 15.2108 6.95187 15.9923 6.93166 16.8101C6.93058 16.8553 6.93058 17.0373 6.9317 17.0824C6.94976 17.8125 7.1209 18.5153 7.41889 19.1551H0.70335C0.314913 19.1551 0 19.47 0 19.8583C0 20.2466 0.314913 20.5614 0.70335 20.5614H8.37573C8.79563 21.0047 9.29482 21.3795 9.85769 21.6624L9.85801 21.7423C9.86111 22.9755 10.8672 23.9812 12.1009 23.9843H12.1066C12.6831 23.9843 13.2255 23.7675 13.6417 23.373C14.044 23.7549 14.5863 23.9907 15.182 23.9922H15.1878C15.7619 23.9922 16.302 23.7772 16.7176 23.3859C17.1193 23.7648 17.6594 23.9985 18.2525 24H18.2582C18.8553 24 19.4159 23.7681 19.8376 23.3466C20.146 23.0383 20.3523 22.6554 20.4412 22.2381L21.7613 22.2386H21.767C22.364 22.2386 22.9248 22.0066 23.3464 21.5852C23.7693 21.1624 24.0014 20.5996 24 20.0006C23.9985 19.4053 23.7632 18.863 23.3815 18.4609ZM15.1379 4.91578C17.4159 4.91578 19.2693 6.76852 19.2693 9.04584V11.5924L13.7582 11.6039C13.3698 11.6047 13.0555 11.9201 13.0563 12.3084C13.0563 12.3089 13.0564 12.3093 13.0564 12.3097V12.31L13.0525 13.9155C13.0518 14.1882 12.945 14.4443 12.7516 14.6367C12.5588 14.8285 12.3031 14.934 12.0313 14.934C12.0304 14.934 12.0295 14.934 12.0287 14.934C11.4587 14.9326 11.0111 14.4624 11.0099 13.8645L11.0064 8.997C11.0058 8.05533 11.3316 7.1588 11.9313 6.43167C11.9337 6.42877 11.936 6.42572 11.9384 6.42272C12.0246 6.3188 12.1164 6.21839 12.2136 6.12178C12.9969 5.34413 14.0354 4.91578 15.1379 4.91578ZM12.6912 22.3366C12.5354 22.4924 12.3278 22.5781 12.1065 22.5781C12.1058 22.5781 12.1051 22.5781 12.1044 22.5781C11.6425 22.5769 11.2659 22.2004 11.2647 21.7378L11.258 19.978C11.2574 19.756 11.3432 19.5476 11.4995 19.3913C11.6554 19.2356 11.8629 19.1499 12.0843 19.1499H12.0864C12.5482 19.151 12.9249 19.5276 12.926 19.9892V19.9902L12.9328 21.75C12.9333 21.972 12.8476 22.1803 12.6912 22.3366ZM15.1876 22.5859C15.1869 22.5859 15.1862 22.5859 15.1855 22.5859C14.7236 22.5848 14.347 22.2083 14.3459 21.7465C14.3458 21.7158 14.3392 20.0162 14.3392 19.9859C14.3386 19.7638 14.4243 19.5555 14.5807 19.3992C14.7365 19.2434 14.9441 19.1577 15.1654 19.1577H15.1676C15.6106 19.1588 15.9742 19.5055 16.0042 19.9412C16.0038 19.9602 16.0108 21.7957 16.0113 21.8146C15.9984 22.0151 15.9152 22.2016 15.7724 22.3444C15.6165 22.5002 15.4089 22.5859 15.1876 22.5859ZM18.8428 22.3522C18.687 22.508 18.4794 22.5938 18.2581 22.5938C18.2574 22.5938 18.2567 22.5938 18.256 22.5938C17.8132 22.5926 17.4496 22.2462 17.4194 21.8099C17.4198 21.7913 17.4127 19.9557 17.4122 19.9367C17.4252 19.7362 17.5084 19.5498 17.6512 19.407C17.807 19.2512 18.0146 19.1655 18.2359 19.1655H18.2381C18.6999 19.1667 19.0765 19.5432 19.0776 20.0049V20.0058L19.0844 21.7656C19.085 21.9876 18.9992 22.196 18.8428 22.3522ZM22.3517 20.5908C22.1959 20.7466 21.9883 20.8323 21.7655 20.8323C21.7648 20.8323 21.7641 20.8323 21.7634 20.8323L20.4876 20.8319L20.4844 20.0004C20.4809 18.7676 19.475 17.7623 18.2416 17.7593C18.2397 17.7593 18.2378 17.7593 18.2359 17.7593C17.6617 17.7593 17.1216 17.9743 16.7061 18.3656C16.3043 17.9867 15.7642 17.753 15.1711 17.7515C15.1692 17.7515 15.1674 17.7515 15.1654 17.7515C14.5888 17.7515 14.0465 17.9684 13.6303 18.3628C13.228 17.981 12.6857 17.7452 12.09 17.7437C12.0881 17.7437 12.0862 17.7437 12.0842 17.7437C11.4872 17.7437 10.9265 17.9756 10.505 18.397C10.082 18.8198 9.84986 19.3826 9.85136 19.9825L9.85145 20.0047C8.93705 19.3 8.3671 18.2211 8.33803 17.0471C8.33714 17.0135 8.33714 16.8782 8.33798 16.8447C8.36161 15.8903 8.73125 15.0029 9.35535 14.3197C9.37781 14.2984 9.39915 14.276 9.41866 14.252C9.48064 14.1872 9.54502 14.1244 9.61165 14.0637C9.70979 15.3521 10.7351 16.3372 12.0252 16.3404H12.0315C12.6777 16.3404 13.2857 16.0895 13.7439 15.6337C14.2037 15.1763 14.4577 14.5673 14.4592 13.919L14.4614 13.0087L21.7382 12.9937C22.2001 12.9948 22.5767 13.3713 22.5779 13.833C22.5784 14.055 22.4927 14.2634 22.3363 14.4197C22.1805 14.5755 21.9729 14.6612 21.7516 14.6612C21.7503 14.6612 21.749 14.6612 21.7477 14.6612C21.5611 14.6612 21.3822 14.7353 21.2503 14.8672C21.118 14.9995 21.0439 15.1791 21.0443 15.3662L21.0444 15.3833C21.0454 15.7703 21.3589 16.0836 21.7459 16.0846C22.2078 16.0858 22.5844 16.4623 22.5856 16.9239C22.5862 17.146 22.5004 17.3543 22.344 17.5106C22.1882 17.6664 21.9806 17.7521 21.7593 17.7521C21.7581 17.7521 21.7567 17.7521 21.7554 17.7521C21.5692 17.7521 21.3906 17.8259 21.2587 17.9574C21.1264 18.0893 21.0521 18.2684 21.0521 18.4552V18.4618C21.0521 18.8494 21.3659 19.1639 21.7536 19.1649C22.2155 19.1661 22.5921 19.5426 22.5933 20.0042C22.5939 20.2262 22.508 20.4345 22.3517 20.5908Z" fill="url(#paint0_linear)"/>
<defs>
<linearGradient id="paint0_linear" x1="24" y1="12" x2="0" y2="12" gradientUnits="userSpaceOnUse">
<stop stop-color="#BA58E1"/>
<stop offset="1" stop-color="#6F49BC"/>
</linearGradient>
</defs>
</svg>
