<svg width="120" height="128" viewBox="0 0 120 128" fill="none" xmlns="http://www.w3.org/2000/svg">
<path fill-rule="evenodd" clip-rule="evenodd" d="M60.0785 0.00928178C78.9796 -0.375272 95.7343 11.2351 107.158 26.3404C118.213 40.9587 122.475 59.4537 118.593 77.3824C114.657 95.5614 103.384 111.307 86.9085 119.858C69.8169 128.728 49.3691 130.768 32.0854 122.28C14.925 113.852 4.13966 96.4242 0.780994 77.5616C-2.38276 59.7937 4.38339 42.5318 15.3351 28.2086C26.612 13.4601 41.5491 0.386271 60.0785 0.00928178Z" fill="#FFF2E8"/>
<path d="M89.3548 86.8479V87.0799C89.3549 88.2004 88.9632 89.2857 88.2476 90.1479C87.532 91.0101 86.5374 91.5949 85.4361 91.8012L68.7334 94.9332H50.6881L33.9854 91.8012C32.8841 91.5949 31.8895 91.0101 31.1739 90.1479C30.4583 89.2857 30.0667 88.2004 30.0668 87.0799V86.8479C30.0667 86.217 30.191 85.5923 30.4324 85.0094C30.6738 84.4266 31.0277 83.897 31.4738 83.4509C31.9199 83.0048 32.4495 82.6509 33.0323 82.4095C33.6152 82.1681 34.2399 82.0439 34.8708 82.0439H36.2934C36.4374 82.0439 36.5828 82.0506 36.7281 82.0639L50.6881 83.3332L51.5468 80.7559H51.5481L53.2668 75.5999L53.3108 70.3999H66.1108L66.1548 75.5999L67.8734 80.7559H67.8748L68.7334 83.3332L82.6934 82.0639C82.8388 82.0506 82.9841 82.0439 83.1281 82.0439H84.5508C85.1816 82.0439 85.8064 82.1681 86.3892 82.4095C86.9721 82.6509 87.5017 83.0048 87.9478 83.4509C88.3939 83.897 88.7477 84.4266 88.9891 85.0094C89.2306 85.5923 89.3548 86.217 89.3548 86.8479Z" fill="#FFF2E8"/>
<path d="M89.3548 86.8479V87.0799C89.3549 88.2004 88.9632 89.2856 88.2476 90.1478C87.532 91.01 86.5374 91.5949 85.4361 91.8012L68.7334 94.9332H50.6881L33.9854 91.8012C32.8841 91.5949 31.8895 91.01 31.1739 90.1478C30.4583 89.2856 30.0667 88.2004 30.0668 87.0799V86.8479C30.0667 86.217 30.191 85.5923 30.4324 85.0094C30.6738 84.4265 31.0277 83.8969 31.4738 83.4508C31.9199 83.0047 32.4495 82.6509 33.0323 82.4095C33.6152 82.1681 34.2399 82.0438 34.8708 82.0439H36.2934C36.4374 82.0439 36.5828 82.0505 36.7281 82.0639L50.6881 83.3332L51.5468 80.7559H67.8748L68.7334 83.3332L82.6934 82.0639C82.8388 82.0505 82.9841 82.0439 83.1281 82.0439H84.5508C85.1816 82.0438 85.8064 82.1681 86.3892 82.4095C86.9721 82.6509 87.5017 83.0047 87.9478 83.4508C88.3939 83.8969 88.7477 84.4265 88.9891 85.0094C89.2306 85.5923 89.3548 86.217 89.3548 86.8479Z" fill="url(#paint0_linear)"/>
<path d="M68.7334 54.9775V61.4228L66.1108 70.4001H53.3108L50.6881 61.4228V54.9775H55.1988C55.368 54.9776 55.5356 54.9444 55.692 54.8797C55.8484 54.8151 55.9906 54.7202 56.1103 54.6006C56.23 54.481 56.325 54.339 56.3899 54.1826C56.4547 54.0263 56.4881 53.8587 56.4881 53.6895V47.2441H62.9321V53.6895C62.9321 53.8587 62.9655 54.0263 63.0303 54.1826C63.0952 54.339 63.1902 54.481 63.3099 54.6006C63.4296 54.7202 63.5718 54.8151 63.7282 54.8797C63.8846 54.9444 64.0522 54.9776 64.2214 54.9775H68.7334Z" fill="#FFF2E8"/>
<path d="M62.9321 47.2441V51.0748C62.0348 51.844 60.892 52.2668 59.7101 52.2668C58.5282 52.2668 57.3854 51.844 56.4881 51.0748V47.2441H62.9321Z" fill="#FFEDDF"/>
<path d="M62.2885 34.3555V39.5109H66.1552V44.6665C66.1552 46.0339 66.6984 47.3452 67.6652 48.3121C68.6321 49.279 69.9434 49.8221 71.3108 49.8221V39.5109C71.3108 38.8339 71.1774 38.1635 70.9183 37.538C70.6592 36.9125 70.2795 36.3442 69.8007 35.8654C69.322 35.3867 68.7536 35.0069 68.1281 34.7479C67.5026 34.4888 66.8322 34.3555 66.1552 34.3555H62.2885Z" fill="#333333"/>
<path d="M53.9107 44.6665H55.8441V40.7998H53.9107C53.398 40.7998 52.9062 41.0035 52.5437 41.3661C52.1811 41.7286 51.9774 42.2204 51.9774 42.7331C51.9774 43.2459 52.1811 43.7376 52.5437 44.1002C52.9062 44.4628 53.398 44.6665 53.9107 44.6665Z" fill="#FFEDDF"/>
<path d="M65.5107 40.7998H63.5774V44.6665H65.5107C66.0235 44.6665 66.5152 44.4628 66.8778 44.1002C67.2404 43.7376 67.4441 43.2459 67.4441 42.7331C67.4441 42.2204 67.2404 41.7286 66.8778 41.3661C66.5152 41.0035 66.0235 40.7998 65.5107 40.7998Z" fill="#FFEDDF"/>
<path d="M59.7108 49.8224C58.6063 49.8224 57.5336 49.4532 56.663 48.7735C55.7925 48.0938 55.1741 47.1427 54.9062 46.0712L54.7524 45.4555C54.6214 44.9317 54.5552 44.3938 54.5552 43.8539V40.8001C54.5552 39.4328 55.0984 38.1214 56.0652 37.1546C57.0321 36.1877 58.3434 35.6445 59.7108 35.6445C61.0781 35.6445 62.3895 36.1877 63.3563 37.1546C64.3232 38.1214 64.8664 39.4328 64.8664 40.8001V43.8535C64.8664 44.3934 64.8001 44.9313 64.6692 45.4551L64.5153 46.0708C64.2475 47.1423 63.6292 48.0936 62.7586 48.7734C61.8881 49.4531 60.8153 49.8224 59.7108 49.8224Z" fill="#FFF2E8"/>
<path d="M60.9997 36.9331C60.9997 36.9331 62.2885 39.5108 65.7953 42.9197C66.0342 41.7992 66.1549 40.6568 66.1553 39.5111C66.1553 38.6647 65.9887 37.8267 65.6648 37.0448C65.3409 36.2629 64.8662 35.5524 64.2678 34.954C63.6694 34.3555 62.9589 33.8808 62.177 33.5569C61.3951 33.2331 60.5571 33.0664 59.7108 33.0664C58.0016 33.0664 56.3624 33.7454 55.1539 34.9539C53.9453 36.1625 53.2664 37.8016 53.2664 39.5108C53.2667 40.1738 53.3073 40.8362 53.3878 41.4943C55.3734 40.7731 58.2026 40.4664 60.9997 36.9331Z" fill="#333333"/>
<path d="M67.5687 61.9625L66.1554 54.9775H64.8666L63.4781 57.7546C63.1849 58.3557 62.754 58.8791 62.2204 59.2824C61.6869 59.6856 61.0657 59.9573 60.4074 60.0753C59.5261 60.2241 58.6203 60.0861 57.8234 59.6814C57.0265 59.2768 56.3805 58.6269 55.9807 57.8275L54.5557 54.9775H53.2669L51.8535 61.9625L51.1973 62.9979C49.5451 65.6033 50.5518 69.0203 53.3107 70.3998H66.1107C68.8697 69.0203 69.8763 65.6033 68.225 62.9979L67.5687 61.9625Z" fill="#FFD7B9"/>
<path d="M44.4668 93.1106C44.4668 93.594 44.6588 94.0576 45.0006 94.3994C45.3425 94.7412 45.8061 94.9333 46.2895 94.9333H59.9335L67.7095 93.9186L85.3948 91.6119C86.6049 91.4543 87.7097 90.842 88.4848 89.8994C89.2599 88.9568 89.6472 87.7545 89.5681 86.5368C89.489 85.319 88.9495 84.1769 88.059 83.3425C87.1685 82.5081 85.9938 82.0438 84.7734 82.0439C83.6851 82.0439 82.6019 82.192 81.5535 82.4839L66.3335 87.4933L59.9335 89.5999L57.8161 88.2853C57.2943 87.9616 56.6904 87.7949 56.0764 87.805C55.4624 87.8152 54.8643 88.0018 54.3535 88.3426L52.2001 89.7773H49.9348C48.084 89.7778 46.3092 90.5129 45.0001 91.8213C44.6588 92.1636 44.467 92.6272 44.4668 93.1106Z" fill="#FFEDDF"/>
<path d="M66.3334 87.4933L67.7094 93.9186L85.3948 91.6119C86.6049 91.4543 87.7096 90.842 88.4847 89.8994C89.2598 88.9568 89.6472 87.7545 89.5681 86.5368C89.489 85.319 88.9494 84.1769 88.059 83.3425C87.1685 82.5081 85.9938 82.0438 84.7734 82.0439C83.6851 82.0439 82.6018 82.192 81.5534 82.4839L66.3334 87.4933Z" fill="url(#paint1_linear)"/>
<path d="M75.1775 93.1106C75.1775 93.594 74.9854 94.0576 74.6436 94.3994C74.3018 94.7412 73.8382 94.9333 73.3548 94.9333H59.7108L51.9348 93.9186L34.2495 91.6119C33.0394 91.4543 31.9346 90.842 31.1595 89.8994C30.3844 88.9568 29.9971 87.7545 30.0761 86.5368C30.1552 85.319 30.6948 84.1769 31.5853 83.3425C32.4758 82.5081 33.6505 82.0438 34.8708 82.0439C35.9591 82.0439 37.0424 82.192 38.0908 82.4839L53.3108 87.4933L59.7108 89.5999L61.8281 88.2853C62.35 87.9616 62.9539 87.7949 63.5679 87.805C64.1819 87.8152 64.78 88.0018 65.2908 88.3426L67.4441 89.7773H69.7095C71.5602 89.7778 73.3351 90.5129 74.6441 91.8213C74.9855 92.1636 75.1772 92.6272 75.1775 93.1106Z" fill="#FFF2E8"/>
<path d="M53.3108 87.4933L51.9348 93.9186L34.2495 91.6119C33.0394 91.4543 31.9346 90.842 31.1595 89.8994C30.3844 88.9568 29.9971 87.7545 30.0761 86.5368C30.1552 85.319 30.6948 84.1769 31.5853 83.3425C32.4758 82.5081 33.6505 82.0438 34.8708 82.0439C35.9591 82.0439 37.0424 82.192 38.0908 82.4839L53.3108 87.4933Z" fill="url(#paint2_linear)"/>
<path d="M44.4447 58.5142L40.3774 71.7331L33.933 80.7554L32.644 84.6221V88.4887H39.0884V82.0442L46.8218 73.0221L50.6884 61.4221V54.9775H49.2332C48.1618 54.9775 47.1186 55.321 46.2568 55.9576C45.3949 56.5941 44.7598 57.4902 44.4447 58.5142Z" fill="#FFF2E8"/>
<path d="M85.4885 80.7554L79.0441 71.7331L74.9774 58.5142C74.6623 57.4902 74.0272 56.5941 73.1654 55.9576C72.3035 55.321 71.2603 54.9775 70.1889 54.9775H68.733V61.4221L72.5997 73.0221L80.333 82.0442V88.4887H86.7774V84.6221L85.4885 80.7554Z" fill="#FFF2E8"/>
<path d="M32.921 80.4183L32.5789 81.4449C31.3924 81.9479 30.4044 82.8273 29.7674 83.9475C29.1303 85.0677 28.8796 86.3664 29.054 87.6433C29.2283 88.9201 29.818 90.1041 30.732 91.0125C31.6461 91.9209 32.8337 92.5033 34.1116 92.6697L43.4868 93.8933C43.5268 93.9947 43.5708 94.1033 43.6156 94.2064C43.8314 94.738 44.2014 95.1929 44.6779 95.5125C45.1544 95.8321 45.7157 96.0019 46.2894 96H73.3547C74.1208 95.9991 74.8552 95.6945 75.3969 95.1528C75.9386 94.6111 76.2432 93.8767 76.2441 93.1106C76.2441 93.0209 76.2397 92.9305 76.2321 92.8528C76.1723 92.1778 75.877 91.5454 75.3979 91.0661C74.6525 90.3171 73.7659 89.7232 72.7895 89.3189C71.8131 88.9146 70.7662 88.7079 69.7094 88.7106H67.7669L67.1986 88.332L79.2663 84.36V88.4894C79.2663 88.7723 79.3787 89.0437 79.5788 89.2437C79.7788 89.4437 80.0501 89.5561 80.333 89.5561H86.7774C87.0603 89.5561 87.3316 89.4437 87.5317 89.2437C87.7317 89.0437 87.8441 88.7723 87.8441 88.4894V84.7168C88.21 85.2436 88.4341 85.8557 88.495 86.4942C88.5558 87.1327 88.4513 87.7761 88.1914 88.3625C87.9316 88.9489 87.5252 89.4586 87.0113 89.8424C86.4974 90.2263 85.8934 90.4714 85.2574 90.5543L77.8289 91.5229L78.1046 93.6382L85.5331 92.6696C86.835 92.5009 88.0427 91.9006 88.9632 90.9647C89.8837 90.0287 90.4638 88.8112 90.6108 87.5067C90.7578 86.2022 90.4632 84.8861 89.774 83.7688C89.0849 82.6515 88.0411 81.7975 86.8094 81.3433L86.501 80.4183C86.4674 80.3174 86.4189 80.2222 86.357 80.1357L80.0133 71.2541L75.9967 58.2008C75.6189 56.9561 74.8497 55.8665 73.8034 55.0938C72.7571 54.321 71.4895 53.9062 70.1888 53.9111H64.222C64.1631 53.9112 64.1066 53.8879 64.0649 53.8464C64.0231 53.8049 63.9995 53.7486 63.9993 53.6897V49.0961C64.6582 48.427 65.151 47.6125 65.4378 46.7183C65.8646 47.9359 66.6587 48.9911 67.7107 49.7382C68.7626 50.4853 70.0205 50.8875 71.3107 50.8893C71.5936 50.8893 71.865 50.7769 72.065 50.5769C72.265 50.3769 72.3774 50.1056 72.3774 49.8227V39.5107C72.3819 38.0394 71.8629 36.6144 70.9133 35.4905C69.9638 34.3667 68.6455 33.6171 67.1941 33.3759L66.84 35.48C67.7933 35.6388 68.6591 36.1314 69.2827 36.8698C69.9063 37.6082 70.247 38.5442 70.2441 39.5107V48.6148C69.4609 48.4013 68.7588 47.96 68.2269 47.3469C67.6949 46.7338 67.3569 45.9765 67.256 45.1711C67.6468 44.8916 67.9648 44.5223 68.1831 44.0942C68.4013 43.6662 68.5135 43.1919 68.5101 42.7114C68.5067 42.231 68.3879 41.7583 68.1636 41.3334C67.9393 40.9084 67.6162 40.5436 67.2214 40.2697V39.5455C67.2214 39.534 67.2214 39.5225 67.2214 39.5111C67.2214 37.519 66.4301 35.6085 65.0215 34.1999C63.6129 32.7913 61.7024 32 59.7104 32C57.7183 32 55.8078 32.7913 54.3992 34.1999C52.9906 35.6085 52.1993 37.519 52.1993 39.5111C52.1993 39.7584 52.2066 40.0076 52.2176 40.2577C51.7017 40.6097 51.3087 41.114 51.0934 41.7002C50.8782 42.2864 50.8514 42.9252 51.0168 43.5273C51.1823 44.1295 51.5317 44.6649 52.0162 45.0588C52.5008 45.4527 53.0963 45.6854 53.7196 45.7244L53.8714 46.3296C54.1311 47.3735 54.6663 48.3286 55.421 49.0952V53.6893C55.4208 53.7482 55.3972 53.8045 55.3555 53.846C55.3137 53.8875 55.2572 53.9108 55.1984 53.9107H53.266C53.0198 53.9107 52.7812 53.9958 52.5907 54.1516C52.4001 54.3075 52.2693 54.5245 52.2205 54.7657L50.8621 61.48L49.6766 61.0848L45.8766 72.4865L38.2786 81.3503C38.1129 81.5436 38.0218 81.7898 38.0218 82.0444V87.4222H33.7108V84.7956L34.8941 81.2453L41.2454 72.3535C41.3122 72.2601 41.3633 72.1565 41.3969 72.0468L45.4642 58.8279C45.7095 58.0202 46.2087 57.3131 46.8876 56.8116C47.5666 56.3102 48.3892 56.041 49.2333 56.0441H50.6885V53.9108H49.2333C47.9325 53.906 46.6649 54.3207 45.6186 55.0935C44.5723 55.8663 43.8031 56.9559 43.4252 58.2005L39.4088 71.2539L33.065 80.1357C33.0032 80.2222 32.9546 80.3174 32.921 80.4183ZM53.4881 43.4893C53.418 43.45 53.3537 43.4012 53.2969 43.3444C53.2164 43.2644 53.1525 43.1692 53.1091 43.0642C53.0657 42.9593 53.0436 42.8469 53.0441 42.7333C53.0449 42.6589 53.0552 42.5849 53.0749 42.5131C53.2086 42.5541 53.349 42.5684 53.4882 42.5552L53.4881 43.4893ZM31.1334 86.848C31.1321 86.23 31.2847 85.6215 31.5774 85.0773V88.4889C31.5778 88.5386 31.5816 88.5882 31.5889 88.6373C31.29 88.0883 31.1334 87.4731 31.1334 86.848ZM67.4441 90.844H69.7094C70.6762 90.8432 71.6284 91.0794 72.4827 91.5319C72.9606 91.7863 73.5057 92.0718 73.8455 92.5065C74.2354 93.0052 74.1644 93.8665 73.3552 93.8665H59.7801L53.2201 93.0108L54.1052 88.8774C54.1052 88.8774 56.4806 89.6597 57.415 89.9672C58.3578 90.2775 59.4138 90.9425 60.3997 90.4401C61.086 90.0904 61.7338 89.5991 62.3898 89.1916C63.9329 88.2335 65.6196 89.843 66.8526 90.6646C67.0278 90.7815 67.2336 90.8439 67.4441 90.844ZM64.7008 86.9084C64.1269 86.7432 63.5249 86.6998 62.9333 86.7808C62.3417 86.8619 61.7735 87.0657 61.2653 87.3792L59.572 88.4312L46.0586 83.9835L50.592 84.3956C50.6247 84.3985 50.6571 84.4 50.6892 84.4C50.9129 84.3999 51.131 84.3294 51.3125 84.1985C51.494 84.0676 51.6297 83.8829 51.7005 83.6707L52.3169 81.8223H67.1052L67.7215 83.6707C67.7923 83.8829 67.9281 84.0676 68.1096 84.1985C68.2911 84.3294 68.5091 84.3999 68.7329 84.4C68.765 84.4 68.7974 84.3985 68.8301 84.3956L73.6716 83.9556L64.7008 86.9084ZM54.3189 75.4247L53.6666 71.5111H65.7549L65.1026 75.4247C65.0739 75.5962 65.0877 75.7723 65.1426 75.9373L66.3936 79.6889H60.7774V75.6H58.6441V79.6889H53.0277L54.2786 75.9373C54.3337 75.7723 54.3475 75.5963 54.3189 75.4247ZM69.4781 82.1945L67.2505 75.5139L68.108 70.3689C68.8514 69.6742 69.4151 68.8095 69.7506 67.8489L71.5877 73.36C71.6313 73.4909 71.6999 73.6121 71.7897 73.7168L78.3641 81.3867L69.4781 82.1945ZM70.1882 56.0444C71.0323 56.0413 71.8549 56.3104 72.5339 56.8119C73.2129 57.3134 73.712 58.0204 73.9573 58.8281L78.0239 72.0471C78.0575 72.1568 78.1087 72.2604 78.1754 72.3537L84.5267 81.2456L85.7107 84.7953V87.422H81.3997V82.0444C81.3997 81.7898 81.3086 81.5436 81.1429 81.3503L73.5454 72.4867L69.7454 61.0849L68.5599 61.4801L67.4598 56.044L70.1882 56.0444ZM54.3434 40.068C54.3365 39.8813 54.333 39.6957 54.333 39.5111C54.333 38.0848 54.8996 36.717 55.9081 35.7084C56.9166 34.6999 58.2845 34.1333 59.7108 34.1333C61.137 34.1333 62.5049 34.6999 63.5134 35.7084C64.5219 36.717 65.0885 38.0848 65.0885 39.5111V39.5364C65.088 39.8954 65.0746 40.2549 65.0485 40.6148C62.8533 38.1972 61.9721 36.4921 61.953 36.4548C61.8725 36.2946 61.753 36.1573 61.6054 36.0555C61.4577 35.9537 61.2869 35.8908 61.1085 35.8725C60.9302 35.8543 60.7501 35.8813 60.5849 35.951C60.4198 36.0208 60.2748 36.131 60.1636 36.2716C58.12 38.8524 56.1208 39.524 54.3434 40.068ZM63.2473 55.8307L62.5241 57.2777C62.306 57.7282 61.9849 58.121 61.5867 58.4243C61.1885 58.7276 60.7245 58.9328 60.2322 59.0233C59.5758 59.1364 58.9003 59.0347 58.3063 58.7334C57.7122 58.4321 57.2311 57.9472 56.9345 57.3508L56.1745 55.8308C56.5856 55.6437 56.9343 55.3424 57.179 54.9627C57.4237 54.583 57.5542 54.141 57.5548 53.6893V50.4909C58.9426 51.0218 60.4776 51.0218 61.8654 50.4909V53.6893C61.8661 54.1412 61.9968 54.5833 62.2418 54.963C62.4868 55.3427 62.8358 55.6439 63.2473 55.8307ZM59.7108 48.756C57.1108 48.756 55.6214 46.2315 55.6214 43.8533V41.9021C57.147 41.4031 58.9906 40.6287 60.8421 38.7288C61.7277 40.0326 62.7169 41.2628 63.8001 42.4077V43.8533C63.7994 46.2757 62.3774 48.756 59.7108 48.756ZM52.0974 63.5693L52.7537 62.5333C52.8234 62.4232 52.8724 62.3011 52.8981 62.1733L54.0688 56.3889L55.0261 58.3037C55.5255 59.3093 56.3358 60.127 57.3368 60.6356C58.3377 61.1441 59.476 61.3163 60.5826 61.1267C61.4067 60.9804 62.1846 60.642 62.8534 60.1388C63.5222 59.6356 64.063 58.9819 64.4318 58.2307L65.3528 56.3889L66.5234 62.1733C66.5491 62.3011 66.5981 62.4232 66.6678 62.5333L67.3241 63.5687C67.6234 64.0409 67.8239 64.5688 67.9137 65.1206C68.0035 65.6724 67.9806 66.2367 67.8465 66.7794C67.7124 67.3221 67.4698 67.8321 67.1333 68.2786C66.7968 68.725 66.3734 69.0987 65.8886 69.3772H53.5329C53.0482 69.0987 52.6249 68.725 52.2884 68.2786C51.952 67.8322 51.7094 67.3223 51.5753 66.7796C51.4412 66.237 51.4183 65.6728 51.508 65.121C51.5977 64.5693 51.7982 64.0414 52.0974 63.5692V63.5693ZM47.6318 73.716C47.7216 73.6113 47.7902 73.4901 47.8338 73.3592L49.6708 67.8484C50.0063 68.8089 50.57 69.6737 51.3134 70.3684L52.1709 75.5133L49.9433 82.194L41.0574 81.3867L47.6318 73.716ZM39.0885 89.5556C39.3714 89.5556 39.6427 89.4432 39.8427 89.2432C40.0428 89.0431 40.1552 88.7718 40.1552 88.4889V84.2861L52.067 88.2071L51.0974 92.7341L34.3873 90.5543C33.5516 90.4453 32.7773 90.0572 32.1898 89.4529C32.3318 89.5204 32.4869 89.5555 32.6441 89.5556H39.0885Z" fill="#333333"/>
<defs>
<linearGradient id="paint0_linear" x1="89.3548" y1="87.8445" x2="30.0668" y2="87.8445" gradientUnits="userSpaceOnUse">
<stop stop-color="#FFD7B9"/>
<stop offset="1" stop-color="#FFB279"/>
</linearGradient>
<linearGradient id="paint1_linear" x1="89.5782" y1="87.9813" x2="66.3334" y2="87.9813" gradientUnits="userSpaceOnUse">
<stop stop-color="#FFD7B9"/>
<stop offset="1" stop-color="#FFB279"/>
</linearGradient>
<linearGradient id="paint2_linear" x1="53.3108" y1="87.9813" x2="30.066" y2="87.9813" gradientUnits="userSpaceOnUse">
<stop stop-color="#FFD7B9"/>
<stop offset="1" stop-color="#FFB279"/>
</linearGradient>
</defs>
</svg>
