<svg width="40" height="40" viewBox="0 0 40 40" fill="none" xmlns="http://www.w3.org/2000/svg">
<mask id="mask0_477_26774" style="mask-type:luminance" maskUnits="userSpaceOnUse" x="0" y="0" width="40" height="40">
<path d="M40 0H0V40H40V0Z" fill="white"/>
</mask>
<g mask="url(#mask0_477_26774)">
<path d="M38.5928 12.6868C38.4712 12.3835 38.1238 12.2362 37.8198 12.3662C37.5244 12.4875 37.3941 12.8255 37.5071 13.1201C38.7926 16.3783 39.1314 19.9225 38.4886 23.3887C38.3409 24.2033 38.1325 25.0092 37.8806 25.7891C32.5646 20.7457 26.0499 17.1322 18.9707 15.2778C19.6395 14.2813 20.4039 13.354 21.2725 12.5048C24.7296 9.15127 29.4636 7.41817 34.2671 7.75613C35.0662 8.68334 35.7698 9.67987 36.3692 10.7371C36.5255 11.0144 36.873 11.1183 37.1509 10.971C37.4463 10.8151 37.5505 10.4511 37.3941 10.1651C36.5081 8.59668 35.405 7.14954 34.1194 5.86705C30.3409 2.10621 25.3203 0.0351562 19.9783 0.0351562C14.6363 0.0351562 9.62432 2.10621 5.85451 5.87571C2.076 9.63654 0 14.6452 0 19.9658C0 25.2865 2.076 30.2951 5.85451 34.0646C9.63301 37.8341 14.5928 39.8792 19.8914 39.9052C24.9989 39.9312 29.9414 37.9901 33.6591 34.4979C36.7861 31.5603 38.8534 27.7821 39.6265 23.5967C40.304 19.9138 39.9479 16.153 38.5841 12.6868H38.5928ZM33.1292 6.55162C28.4126 6.55162 23.8523 8.37138 20.4473 11.6729C19.4224 12.6695 18.519 13.7873 17.7546 14.9832C15.9218 14.5586 14.063 14.2553 12.2041 14.0733C13.6113 11.1617 15.5223 8.52736 17.8762 6.24833C19.7524 4.42857 21.8632 2.88611 24.139 1.66427C27.5092 2.41817 30.6015 4.09062 33.1292 6.55162ZM19.9783 1.205C20.7687 1.205 21.5505 1.25699 22.3236 1.35231C20.43 2.49616 18.6667 3.85665 17.0597 5.41644C14.4973 7.90344 12.4473 10.7804 10.962 13.978C9.75461 13.8913 8.52986 13.8566 7.32248 13.874C7.59175 11.3436 7.52226 8.79599 7.13138 6.27432C10.6232 2.99876 15.1661 1.205 19.9783 1.205ZM6.08903 7.31419C6.36699 9.49789 6.37568 11.7076 6.13246 13.9C4.76873 13.952 3.40499 14.0733 2.04995 14.2553C2.86645 11.6989 4.23019 9.33325 6.08903 7.31419ZM1.17264 19.9658C1.17264 18.432 1.35505 16.9329 1.71118 15.4771C3.12704 15.2691 4.55157 15.1305 5.9848 15.0698C5.40282 18.8133 4.05646 22.4268 2.04126 25.6244C1.46797 23.822 1.17264 21.9156 1.17264 19.9658ZM19.987 38.7353C16.9729 38.7353 14.0717 38.0334 11.4571 36.7076C9.67644 32.3228 9.05103 27.5308 9.62432 22.8168C9.65907 22.5048 9.44191 22.2102 9.12921 22.1669C8.80782 22.1235 8.5038 22.3488 8.46037 22.6695C7.91314 27.0975 8.39957 31.5949 9.85885 35.7891C8.72096 35.0611 7.66124 34.2119 6.6797 33.2327C4.86428 31.4216 3.4658 29.3073 2.53637 27.0022C4.95114 23.4234 6.54072 19.3073 7.17481 15.0352C8.26059 15.0178 9.36374 15.0352 10.4582 15.1045C9.81542 16.6556 9.30293 18.2761 8.93811 19.9225C8.86862 20.2431 9.07709 20.5551 9.39848 20.6244C9.71118 20.6851 10.0152 20.4858 10.0847 20.1738C10.4669 18.4667 11.0054 16.8029 11.6916 15.1998C13.5157 15.3644 15.3398 15.6417 17.1379 16.0404C13.3941 22.9554 14.5581 31.569 20.0999 37.2535C20.5863 37.7475 21.0988 38.2241 21.646 38.666C21.0988 38.7093 20.5429 38.7353 19.987 38.7353ZM33.2856 33.2414C30.5233 35.997 27.0575 37.7908 23.2964 38.4494C22.4539 37.8514 21.6634 37.1755 20.9425 36.439C15.6786 31.049 14.6363 22.8341 18.3192 16.3176C25.5114 18.1287 32.1042 21.8116 37.4376 26.9849C36.4995 29.3073 35.101 31.4303 33.2856 33.2327V33.2414Z" fill="#0D4EE3"/>
</g>
</svg>
