<svg width="36" height="36" viewBox="0 0 36 36" fill="none" xmlns="http://www.w3.org/2000/svg">
<path d="M29.0827 18.2283L24.2176 16.8384L19.7303 14.5947L17.3989 2.9376V0.6C17.3989 0.521182 17.3835 0.44312 17.3534 0.370284C17.3233 0.297448 17.2791 0.231268 17.2233 0.175535C17.1676 0.119802 17.1014 0.0756098 17.0286 0.0454889C16.9557 0.015368 16.8777 -8.98403e-05 16.7989 3.92771e-07H15.5995C14.9083 0.000967958 14.2385 0.240191 13.703 0.677359C13.1676 1.11453 12.7991 1.72291 12.6599 2.4H4.79955C4.65081 2.39993 4.50735 2.4551 4.39699 2.55481C4.28664 2.65453 4.21725 2.79168 4.20229 2.93966L3.00229 14.9397C3.00125 14.9598 3.00125 14.9799 3.00229 15V28.2C3.00301 28.6767 3.19251 29.1337 3.52933 29.471C3.86614 29.8084 4.32285 29.9985 4.79955 30H5.39955V31.2H4.79955C4.67348 31.2001 4.55066 31.2399 4.44849 31.3137C4.34633 31.3876 4.27002 31.4918 4.2304 31.6114L3.0304 35.2114C3.00057 35.3015 2.99254 35.3975 3.00698 35.4913C3.02143 35.5851 3.05793 35.6742 3.11348 35.7511C3.16904 35.8281 3.24206 35.8908 3.32656 35.9341C3.41106 35.9773 3.50462 35.9999 3.59955 36H29.9995C30.7949 35.9991 31.5575 35.6827 32.1199 35.1203C32.6823 34.5579 32.9986 33.7954 32.9995 33V23.4206C32.9956 22.248 32.6118 21.1083 31.9057 20.1723C31.1996 19.2362 30.2091 18.5542 29.0827 18.2283ZM21.4576 16.8H17.9995C16.9015 16.8008 15.8471 16.3698 15.064 15.6H19.0576L21.4576 16.8ZM16.3072 3.6L16.5472 4.8H13.7995V3.6H16.3072ZM13.7995 6H16.7872L17.0272 7.2H13.7995V6ZM13.7995 10.8H17.7472L17.9872 12H13.7995V10.8ZM13.7995 9.6V8.4H17.2672L17.5072 9.6H13.7995ZM18.2272 13.2L18.4672 14.4H14.2055C14.0246 14.0206 13.9023 13.616 13.8427 13.2H18.2272ZM15.5995 1.2H16.1995V2.4H13.9024C14.0267 2.04921 14.2566 1.74553 14.5605 1.53066C14.8644 1.31579 15.2274 1.20028 15.5995 1.2ZM5.34263 3.6H12.5995V12.6C12.601 14.0317 13.1704 15.4044 14.1828 16.4168C15.1952 17.4292 16.5678 17.9985 17.9995 18H23.9152L28.7529 19.3817C29.6291 19.6352 30.3995 20.1657 30.9487 20.8939C31.498 21.622 31.7965 22.5085 31.7995 23.4206V26.4H17.5813L14.1321 24.1029C14.0337 24.0371 13.9179 24.002 13.7995 24.0021H10.1995V23.4021C10.1986 21.97 9.62949 20.5968 8.61704 19.584C7.6046 18.5711 6.23163 18.0015 4.79955 18H4.19955V15.0302L5.34263 3.6ZM4.19955 19.2H4.79955C5.91307 19.2013 6.98061 19.6442 7.76799 20.4316C8.55537 21.2189 8.99828 22.2865 8.99955 23.4V24H4.19955V19.2ZM4.19955 28.2V25.2H13.6178L17.067 27.4992C17.1657 27.565 17.2816 27.6 17.4002 27.6H31.8002V28.8H16.3586L12.2965 26.4789C12.2052 26.4267 12.1018 26.3995 11.9967 26.3999C11.8916 26.4002 11.7885 26.4282 11.6976 26.481C11.6067 26.5337 11.5313 26.6095 11.4788 26.7005C11.4264 26.7916 11.3988 26.8949 11.3989 27V28.2C11.3989 28.359 11.3357 28.5115 11.2234 28.624C11.111 28.7365 10.9586 28.7998 10.7995 28.8H4.79955C4.64053 28.7996 4.48813 28.7363 4.37568 28.6239C4.26324 28.5114 4.19991 28.359 4.19955 28.2ZM10.7995 30C11.2767 29.9993 11.7341 29.8094 12.0715 29.472C12.4089 29.1346 12.5988 28.6772 12.5995 28.2V28.0341L15.9019 29.9211C15.9927 29.9727 16.0952 29.9999 16.1995 30H19.7995V31.2H10.1995V30H10.7995ZM20.9995 30H23.3995V31.2H20.9995V30ZM24.5995 30H28.1995V30.6C28.1994 30.7591 28.1361 30.9116 28.0236 31.0241C27.9111 31.1365 27.7586 31.1998 27.5995 31.2H24.5995V30ZM6.59955 30H8.99955V31.2H6.59955V30ZM29.9995 34.8H4.432L5.23155 32.4H27.5995C28.0767 32.3993 28.5341 32.2094 28.8715 31.872C29.2089 31.5346 29.3988 31.0772 29.3995 30.6V30H31.7995V33C31.7988 33.4772 31.6089 33.9346 31.2715 34.272C30.9341 34.6094 30.4767 34.7993 29.9995 34.8Z" fill="#0D4EE3"/>
<path d="M22.7992 24C23.1304 24 23.3992 24.3312 23.3992 24.6C23.3992 24.7591 23.336 24.9117 23.2235 25.0243C23.111 25.1368 22.9583 25.2 22.7992 25.2C22.468 25.2 22.1992 24.8688 22.1992 24.6C22.1992 24.4409 22.2624 24.2883 22.375 24.1757C22.4875 24.0632 22.6401 24 22.7992 24Z" fill="#0D4EE3"/>
<path d="M25.1996 24C25.5308 24 25.7996 24.3312 25.7996 24.6C25.7996 24.7591 25.7364 24.9117 25.6239 25.0243C25.5114 25.1368 25.3587 25.2 25.1996 25.2C24.8684 25.2 24.5996 24.8688 24.5996 24.6C24.5996 24.4409 24.6628 24.2883 24.7753 24.1757C24.8879 24.0632 25.0405 24 25.1996 24Z" fill="#0D4EE3"/>
<path d="M27.6 24C27.9312 24 28.2 24.3312 28.2 24.6C28.2 24.7591 28.1368 24.9117 28.0243 25.0243C27.9117 25.1368 27.7591 25.2 27.6 25.2C27.2688 25.2 27 24.8688 27 24.6C27 24.4409 27.0632 24.2883 27.1757 24.1757C27.2883 24.0632 27.4409 24 27.6 24Z" fill="#0D4EE3"/>
<path d="M30.0004 24C30.3316 24 30.6004 24.3312 30.6004 24.6C30.6004 24.7591 30.5372 24.9117 30.4247 25.0243C30.3121 25.1368 30.1595 25.2 30.0004 25.2C29.6692 25.2 29.4004 24.8688 29.4004 24.6C29.4004 24.4409 29.4636 24.2883 29.5761 24.1757C29.6886 24.0632 29.8413 24 30.0004 24Z" fill="#0D4EE3"/>
</svg>
