<svg width="18" height="17" viewBox="0 0 18 17" fill="none" xmlns="http://www.w3.org/2000/svg">
<path d="M9 0.375C4.51316 0.375 0.875 4.01312 0.875 8.5C0.875 12.9869 4.51316 16.625 9 16.625C13.4872 16.625 17.125 12.9868 17.125 8.5C17.125 4.0132 13.4871 0.375 9 0.375ZM10.6075 15.7726C10.0796 15.8764 9.42281 15.9362 8.88871 15.9464C8.38275 15.9392 7.87884 15.8804 7.3848 15.7709C7.29611 15.7481 7.20751 15.725 7.11898 15.7015L6.1652 13.1455L6.93258 11.625H11.0675L11.0898 11.667L11.8452 13.1847L10.9227 15.6957C10.8182 15.7236 10.7131 15.7493 10.6075 15.7726ZM6.40539 1.51875L8.64844 3.05375V5.32512L5.87512 7.67148L3.94531 6.79219L3.78254 6.71801L2.9102 4.21727C3.76992 2.99836 4.9859 2.04805 6.40539 1.51875ZM15.0767 4.20574L14.2005 6.72461L12.0914 7.67727L9.3125 5.32512V3.05375L11.5623 1.5141C12.9827 2.04078 14.2149 2.98879 15.0767 4.20574ZM1.58375 9.18023L3.68359 7.36312L5.61871 8.2459L5.64055 8.25586L6.41078 11.2749L5.61262 12.7799L2.88371 12.7442C2.16699 11.7145 1.70348 10.4963 1.58375 9.18023ZM12.3875 12.7799L11.5893 11.2748L12.3608 8.25078L14.3138 7.3609L16.4162 9.18023C16.2965 10.4963 15.833 11.7145 15.1164 12.7441L12.3875 12.7799Z" fill="white"/>
</svg>
