<svg width="40" height="40" viewBox="0 0 40 40" fill="none" xmlns="http://www.w3.org/2000/svg">
<g clip-path="url(#clip0_477_26810)">
<path d="M36.1939 20.1931C35.6738 17.9033 34.7388 15.7281 33.4354 13.7751L31.6692 11.127V8.75689L32.7263 5.0578C32.9281 4.3476 32.8893 3.59058 32.6159 2.90476L32.2922 2.09442C32.0466 1.47494 31.6201 0.943808 31.0683 0.570227C30.5165 0.196647 29.865 -0.00205505 29.1986 1.60267e-05H28.8094C28.1436 -0.00160208 27.4928 0.197332 26.9416 0.570904C26.3905 0.944475 25.9647 1.47537 25.7196 2.09442L25.3952 2.90476C25.1225 3.59074 25.0837 4.34752 25.2847 5.0578L26.3418 8.75689V11.127L24.5764 13.7758C24.2535 14.2587 23.9534 14.7583 23.6762 15.2693C23.399 14.7583 23.0989 14.2587 22.7768 13.7758L21.0068 11.127V8.75689L22.0639 5.0578C22.2657 4.3476 22.2269 3.59058 21.9535 2.90476L21.6298 2.09442C21.3842 1.47494 20.9577 0.943808 20.4059 0.570227C19.8541 0.196647 19.2026 -0.00205505 18.5362 1.60267e-05H18.147C17.4812 -0.00160208 16.8304 0.197332 16.2792 0.570904C15.7281 0.944475 15.3023 1.47537 15.0572 2.09442L14.7328 2.90476C14.4601 3.59074 14.4213 4.34752 14.6223 5.0578L15.6794 8.75689V11.127L13.914 13.7758C13.5871 14.2643 13.2857 14.7624 13.01 15.2701C12.7328 14.7591 12.4327 14.2595 12.1106 13.7766L10.3444 11.127V8.75689L11.4015 5.0578C11.6033 4.3476 11.5645 3.59058 11.2911 2.90476L10.9674 2.09442C10.7218 1.47494 10.2953 0.943808 9.74352 0.570227C9.1917 0.196647 8.54016 -0.00205505 7.87378 1.60267e-05H7.48461C6.81881 -0.00160208 6.16796 0.197332 5.61684 0.570904C5.06572 0.944475 4.63988 1.47537 4.39479 2.09442L4.07035 2.90476C3.79767 3.59074 3.75885 4.34752 3.95992 5.0578L5.01702 8.75689V11.127L3.25163 13.7751C1.69477 16.1046 0.664134 18.7453 0.231414 21.5135C-0.201307 24.2817 -0.0257168 27.111 0.745968 29.8045L2.37351 35.5028C2.41337 35.6419 2.49742 35.7642 2.61298 35.8514C2.72853 35.9385 2.8693 35.9856 3.01401 35.9856H12.3436C12.4884 35.9856 12.6293 35.9385 12.745 35.8514C12.8607 35.7643 12.9449 35.6419 12.9849 35.5028L13.01 35.4129L13.0359 35.502C13.0758 35.6411 13.1598 35.7635 13.2754 35.8506C13.3909 35.9377 13.5317 35.9848 13.6764 35.9849H20.0411C21.1027 37.2382 22.4247 38.2452 23.915 38.9357C25.4054 39.6262 27.0283 39.9837 28.6708 39.9833C34.9159 39.9833 39.9996 34.9011 39.9996 28.6545C39.9997 27.0548 39.6603 25.4734 39.0039 24.0146C38.3475 22.5559 37.3889 21.2531 36.1916 20.1923L36.1939 20.1931ZM30.5002 7.99682H27.5078L27.127 6.66402H30.8817L30.5002 7.99682ZM30.3364 9.32962V10.6624H27.6708V9.32962H30.3364ZM27.3616 11.9952H30.6464L31.5352 13.328H26.4728L27.3616 11.9952ZM26.6289 3.3998L26.9534 2.58946C27.1006 2.21774 27.3565 1.89901 27.6876 1.67485C28.0186 1.45069 28.4096 1.3315 28.8094 1.33282H29.1986C29.5984 1.3315 29.9893 1.45069 30.3204 1.67485C30.6515 1.89901 30.9073 2.21774 31.0546 2.58946L31.379 3.3998C31.5434 3.81227 31.5664 4.26757 31.4445 4.69452L31.2625 5.33426H26.7455L26.5634 4.69452C26.4416 4.26757 26.4646 3.81227 26.6289 3.3998ZM25.5863 14.6608H32.4217C33.288 15.9859 33.9746 17.42 34.4635 18.9258C33.0344 18.0729 31.4347 17.5458 29.7785 17.3819C28.1224 17.218 26.4504 17.4214 24.8818 17.9776C24.7356 17.5684 24.5754 17.1655 24.4013 16.7689C24.7486 16.0406 25.1442 15.3363 25.5856 14.6608H25.5863ZM19.8378 7.99682H16.8454L16.4646 6.66402H20.2193L19.8378 7.99682ZM19.674 9.32962V10.6624H17.0084V9.32962H19.674ZM16.6992 11.9952H19.9847L20.8728 13.328H15.8104L16.6992 11.9952ZM15.9665 3.3998L16.291 2.58946C16.4382 2.21774 16.6941 1.89901 17.0252 1.67485C17.3562 1.45069 17.7472 1.3315 18.147 1.33282H18.5362C18.936 1.3315 19.3269 1.45069 19.658 1.67485C19.9891 1.89901 20.2449 2.21774 20.3922 2.58946L20.7166 3.3998C20.881 3.81227 20.904 4.26757 20.7821 4.69452L20.6001 5.33426H16.0831L15.901 4.69452C15.7792 4.26757 15.8022 3.81227 15.9665 3.3998ZM9.17536 7.99682H6.18303L5.80223 6.66402H9.55692L9.17536 7.99682ZM9.01161 9.32962V10.6624H6.34601V9.32962H9.01161ZM6.0368 11.9952H9.32235L10.2104 13.328H5.14802L6.0368 11.9952ZM5.30415 3.3998L5.62859 2.58946C5.77584 2.21774 6.03169 1.89901 6.36277 1.67485C6.69384 1.45069 7.08478 1.3315 7.48461 1.33282H7.87378C8.27361 1.3315 8.66455 1.45069 8.99562 1.67485C9.3267 1.89901 9.58255 2.21774 9.7298 2.58946L10.0542 3.3998C10.2186 3.81227 10.2416 4.26757 10.1197 4.69452L9.93772 5.33426H5.42067L5.23865 4.69452C5.11676 4.26757 5.13979 3.81227 5.30415 3.3998ZM11.841 34.6528H3.51667L2.02698 29.4359C1.31746 26.9569 1.14986 24.3543 1.53556 21.8049C1.92126 19.2555 2.85123 16.8189 4.26228 14.6608H11.0969C11.5378 15.3353 11.9324 16.0388 12.2781 16.7666C10.4801 20.8793 10.1728 25.4903 11.4091 29.8052L12.3154 32.9872L11.841 34.6528ZM14.1791 34.6528L12.6894 29.4359C11.9794 26.957 11.8116 24.3544 12.1971 21.8049C12.5827 19.2554 13.5127 16.8188 14.9239 14.6608H21.7593C22.2544 15.4188 22.6916 16.2131 23.0669 17.037C23.284 17.5122 23.4813 18.002 23.6564 18.4985C22.2368 19.1981 20.9797 20.1877 19.9663 21.4033C18.9528 22.6189 18.2056 24.0335 17.7728 25.5558C17.3401 27.0781 17.2314 28.6743 17.4538 30.2412C17.6762 31.8082 18.2247 33.311 19.064 34.6528H14.1791ZM28.6708 38.6512C26.3555 38.6535 24.111 37.8528 22.3199 36.3855C20.5289 34.9182 19.3021 32.8751 18.8487 30.6046C18.3954 28.3341 18.7434 25.9766 19.8336 23.934C20.9238 21.8914 22.6886 20.2901 24.8273 19.403C26.966 18.5159 29.3461 18.3979 31.562 19.0692C33.7779 19.7405 35.6924 21.1595 36.9792 23.0843C38.266 25.0091 38.8454 27.3206 38.6188 29.6249C38.3921 31.9291 37.3734 34.0834 35.7362 35.7206C33.8626 37.5953 31.3213 38.6494 28.6708 38.6512Z" fill="#0D4EE3"/>
<path d="M29.3383 21.3242C28.8753 21.3238 28.4266 21.484 28.0685 21.7775C27.7104 22.071 27.4652 22.4795 27.3746 22.9335C27.284 23.3876 27.3537 23.8589 27.5718 24.2673C27.7899 24.6757 28.1428 24.9959 28.5705 25.1731C28.9982 25.3504 29.4741 25.3739 29.9171 25.2396C30.3602 25.1053 30.7429 24.8215 31.0002 24.4365C31.2574 24.0516 31.3732 23.5894 31.3277 23.1286C31.2823 22.6679 31.0785 22.2372 30.7511 21.9099C30.3763 21.5352 29.8682 21.3246 29.3383 21.3242ZM29.3383 23.9898C29.2065 23.9898 29.0777 23.9507 28.9681 23.8775C28.8585 23.8043 28.7731 23.7002 28.7226 23.5784C28.6722 23.4567 28.659 23.3227 28.6847 23.1934C28.7104 23.0641 28.7739 22.9454 28.8671 22.8522C28.9603 22.759 29.079 22.6955 29.2083 22.6698C29.3376 22.6441 29.4715 22.6573 29.5933 22.7077C29.7151 22.7582 29.8192 22.8436 29.8924 22.9532C29.9656 23.0628 30.0047 23.1916 30.0047 23.3234C30.0048 23.411 29.9876 23.4977 29.9542 23.5786C29.9207 23.6595 29.8716 23.733 29.8097 23.7949C29.7478 23.8568 29.6743 23.9058 29.5934 23.9393C29.5125 23.9728 29.4258 23.9899 29.3383 23.9898Z" fill="#0D4EE3"/>
<path d="M34.6684 24.6563C34.2054 24.6559 33.7566 24.8161 33.3986 25.1095C33.0405 25.403 32.7952 25.8115 32.7047 26.2656C32.6141 26.7196 32.6838 27.191 32.9019 27.5994C33.1199 28.0078 33.4729 28.3279 33.9006 28.5052C34.3282 28.6825 34.8042 28.706 35.2472 28.5716C35.6903 28.4373 36.073 28.1535 36.3303 27.7686C36.5875 27.3836 36.7032 26.9214 36.6578 26.4607C36.6124 25.9999 36.4086 25.5692 36.0811 25.2419C35.7064 24.8672 35.1983 24.6566 34.6684 24.6563ZM34.6684 27.3219C34.5366 27.3219 34.4077 27.2828 34.2981 27.2095C34.1886 27.1363 34.1031 27.0322 34.0527 26.9105C34.0023 26.7887 33.9891 26.6547 34.0148 26.5254C34.0405 26.3962 34.104 26.2774 34.1972 26.1842C34.2904 26.091 34.4091 26.0276 34.5384 26.0019C34.6676 25.9761 34.8016 25.9893 34.9234 26.0398C35.0452 26.0902 35.1492 26.1756 35.2225 26.2852C35.2957 26.3948 35.3348 26.5236 35.3348 26.6555C35.3349 26.743 35.3177 26.8297 35.2842 26.9106C35.2508 26.9915 35.2017 27.065 35.1398 27.1269C35.0779 27.1888 35.0044 27.2379 34.9235 27.2713C34.8426 27.3048 34.7559 27.322 34.6684 27.3219Z" fill="#0D4EE3"/>
<path d="M29.3383 27.9883C28.8753 27.9879 28.4266 28.1481 28.0685 28.4416C27.7104 28.735 27.4652 29.1436 27.3746 29.5976C27.284 30.0516 27.3537 30.523 27.5718 30.9314C27.7899 31.3398 28.1428 31.6599 28.5705 31.8372C28.9982 32.0145 29.4741 32.038 29.9171 31.9037C30.3602 31.7693 30.7429 31.4855 31.0002 31.1006C31.2574 30.7157 31.3732 30.2534 31.3277 29.7927C31.2823 29.332 31.0785 28.9012 30.7511 28.574C30.3763 28.1993 29.8682 27.9886 29.3383 27.9883ZM29.3383 30.6539C29.2065 30.6539 29.0777 30.6148 28.9681 30.5416C28.8585 30.4683 28.7731 30.3643 28.7226 30.2425C28.6722 30.1207 28.659 29.9867 28.6847 29.8575C28.7104 29.7282 28.7739 29.6095 28.8671 29.5163C28.9603 29.4231 29.079 29.3596 29.2083 29.3339C29.3376 29.3082 29.4715 29.3214 29.5933 29.3718C29.7151 29.4222 29.8192 29.5077 29.8924 29.6173C29.9656 29.7268 30.0047 29.8557 30.0047 29.9875C30.0048 30.075 29.9876 30.1617 29.9542 30.2426C29.9207 30.3235 29.8716 30.397 29.8097 30.4589C29.7478 30.5208 29.6743 30.5699 29.5934 30.6034C29.5125 30.6368 29.4258 30.654 29.3383 30.6539Z" fill="#0D4EE3"/>
</g>
<defs>
<clipPath id="clip0_477_26810">
<rect width="40" height="39.984" fill="white"/>
</clipPath>
</defs>
</svg>
