<svg width="40" height="40" viewBox="0 0 40 40" fill="none" xmlns="http://www.w3.org/2000/svg">
<mask id="mask0_477_26837" style="mask-type:luminance" maskUnits="userSpaceOnUse" x="0" y="0" width="40" height="40">
<path d="M40 0H0V40H40V0Z" fill="white"/>
</mask>
<g mask="url(#mask0_477_26837)">
<path d="M39.9063 16.7932L36.2502 8.51044L36.5455 5.97062C36.5715 5.73497 36.4586 5.50804 36.2502 5.37712C36.1547 5.31603 36.0418 5.29857 35.9202 5.29857C34.7825 5.31603 33.6709 6.38956 33.1933 6.92196C32.2728 6.78232 31.3609 6.83469 30.4751 7.07034C30.1364 7.15762 29.9454 7.52419 30.0669 7.85585C30.1712 8.14387 30.4751 8.3097 30.7704 8.23115C31.5867 8.01295 32.4378 7.98677 33.3062 8.16133C33.5233 8.20497 33.7404 8.12642 33.8794 7.95186C34.192 7.56783 34.7304 7.03543 35.2602 6.72995L35.0865 8.22242C34.1573 8.7461 31.3435 10.579 30.3362 14.0178C30.2146 14.2621 29.8498 15.0738 29.8498 16.2696C29.8498 16.802 29.9193 17.3344 30.0583 17.8755C28.5646 18.0588 26.7582 17.858 24.6913 17.2645C25.0821 16.8369 25.2906 16.287 25.2732 15.711C25.2558 15.1611 25.0561 14.6549 24.6913 14.2621C25.525 12.6475 26.8016 10.6575 28.4951 9.37451C28.7469 9.18249 28.8077 8.83338 28.634 8.57154C28.443 8.28352 28.0522 8.21369 27.783 8.42316C26.628 9.30468 25.1256 10.8757 23.684 13.625C23.4669 13.5639 23.2411 13.529 23.0066 13.5377L19.8542 13.6075L18.4039 10.064C18.4039 10.064 18.3952 10.0378 18.3865 10.0204L18.0044 9.25232C18.2389 9.28723 18.4734 9.30468 18.7165 9.30468C21.0439 9.30468 22.9719 7.54165 23.2498 5.27239L24.0748 5.41204C24.0748 5.41204 24.1442 5.41204 24.179 5.41204C24.4829 5.41204 24.7435 5.17638 24.7695 4.86218C24.7956 4.54797 24.5611 4.27741 24.2571 4.22504L23.2411 4.05048C22.9284 1.82487 21.0179 0.105469 18.7165 0.105469C17.3184 0.105469 16.0591 0.742606 15.2254 1.74632C15.0344 1.65904 14.7999 1.57176 14.5394 1.50193C13.5841 1.25755 12.7417 1.46702 12.1164 2.0867C10.9528 3.25624 10.1798 3.42207 9.63273 3.42207C9.39826 3.42207 9.17246 3.55299 9.06825 3.77119C8.94667 4.04176 9.0422 4.36469 9.28536 4.52179C9.39826 4.60034 11.3783 5.86589 13.202 5.86589C13.5667 5.86589 13.9228 5.81352 14.2615 5.69133C14.4004 6.33719 14.6783 6.93069 15.0604 7.43691C14.357 7.59401 13.7578 8.05659 13.4191 8.72864C13.3149 8.94684 13.202 9.16504 13.0891 9.39196C12.9501 9.68871 13.0544 10.0553 13.3409 10.2037C13.6362 10.3608 14.0009 10.2386 14.1486 9.93309C14.2615 9.70617 14.3744 9.47924 14.4786 9.25232C14.687 8.83338 15.1125 8.57154 15.5815 8.57154C16.0591 8.57154 16.4673 8.82465 16.6844 9.25232L17.3097 10.5091L18.9076 14.4105C19.0031 14.6374 19.2289 14.7858 19.4721 14.7771L21.3566 14.7334V16.802L19.0292 16.8543L18.4039 16.8718C18.0478 16.8805 17.7178 16.7059 17.5268 16.4092C17.492 16.3568 17.4573 16.2957 17.4313 16.2346L15.3904 11.2423C15.2689 10.9368 14.9215 10.7884 14.6175 10.9193C14.3136 11.0415 14.1659 11.3907 14.2962 11.6961L15.6683 15.0476L12.2207 14.6985C12.4551 13.9043 12.8112 12.9006 13.367 11.6438C13.4973 11.347 13.3844 10.9804 13.0891 10.8408C12.7851 10.6924 12.4204 10.8321 12.2901 11.1375C11.0309 14.0003 10.5185 15.999 10.7096 17.2994C10.588 17.3431 10.4664 17.3867 10.3535 17.4391C9.763 16.3743 8.72088 15.1437 6.85375 14.4105C5.46426 13.8607 4.09213 14.0265 2.98923 14.8818C1.46078 16.0775 0.635774 18.4428 0.931041 20.7732C1.31315 23.7756 0.175504 25.3029 0.132083 25.3553C0.00181795 25.5211 -0.0329193 25.7481 0.0452396 25.9488C0.123398 26.1495 0.297085 26.2892 0.505509 26.3241C0.531562 26.3241 0.766038 26.359 1.1221 26.359C1.81684 26.359 2.95449 26.2281 3.78818 25.46C4.51767 24.7967 4.85635 23.8192 4.78688 22.5624C4.72609 21.3405 5.30794 20.2058 6.21111 19.7956C6.80164 19.5251 7.44428 19.6298 8.02613 20.0836C8.02613 20.1011 8.01745 20.1098 8.00876 20.1273C6.97533 22.7457 7.59192 24.6222 8.28666 25.7393C8.6514 26.3241 9.06825 26.7605 9.41563 27.0572C8.05219 27.9213 6.72348 27.1271 6.66269 27.0834C6.44559 26.9438 6.16769 26.9612 5.96795 27.1271L4.62188 28.2442C4.3874 28.4363 4.3353 28.7766 4.5003 29.0298C6.07216 31.4037 6.67138 33.4199 6.22848 34.8687C5.84637 36.1255 4.81293 36.5619 4.7782 36.5794C4.5524 36.6667 4.39609 36.8936 4.40477 37.1554C4.40477 37.2689 4.44819 37.3736 4.5003 37.4609L5.829 39.5818C5.90716 39.7127 6.03742 39.8174 6.18506 39.8611C6.23716 39.8785 6.28927 39.8785 6.34137 39.8785C6.48901 39.8785 6.62796 39.8262 6.74085 39.7214C9.60668 37.1118 9.33747 33.3413 8.97272 31.4823C10.0496 31.8314 10.9962 32.006 11.8038 32.006C12.7938 32.006 14.6783 31.6307 16.3544 29.1956H21.0787C21.4087 29.1956 21.6692 28.925 21.6692 28.6021V27.9388C21.6692 27.9388 21.6692 27.9126 21.6692 27.8951C22.0687 27.9126 22.4595 27.9475 22.8416 27.9999L25.8029 30.9761H25.0648L23.1629 29.5098C22.9284 29.3265 22.5897 29.3527 22.3813 29.5622L20.3318 31.6219C20.2363 31.718 20.1668 31.8401 20.1494 31.9711C20.1147 32.2416 20.2537 32.486 20.4795 32.5995L23.4755 34.0221C23.545 34.057 23.6145 34.0745 23.6927 34.0832C23.7274 34.0832 23.7708 34.0832 23.8055 34.0832L31.5607 33.289C31.7778 33.2628 31.9688 33.1231 32.047 32.9224C32.1338 32.7217 32.0991 32.486 31.9601 32.3202L29.9019 29.7542C31.5259 29.9287 33.0283 29.9549 33.8359 29.9549V33.4548L32.0296 34.0396C31.7691 34.1269 31.5954 34.38 31.6214 34.6505L31.8559 37.7489C31.8733 37.9322 31.9688 38.0981 32.1164 38.2028C32.212 38.2726 32.3249 38.2988 32.4465 38.2988C32.5072 38.2988 32.5767 38.2901 32.6375 38.2726C35.4078 37.3474 36.9797 35.2178 37.1794 32.1194C37.327 29.8589 36.6844 27.8951 36.6583 27.8166C36.5976 27.642 36.4673 27.5111 36.3023 27.45L31.9254 25.8004C32.1338 25.4251 32.3857 24.9015 32.5767 24.2905C33.1065 22.5624 32.9154 20.8779 32.0122 19.4203C31.8733 19.1934 31.7517 18.9752 31.6388 18.7483C32.1599 18.5824 32.6375 18.3555 33.0804 18.085C33.1065 18.0675 33.1325 18.05 33.1586 18.0326C33.3844 18.1199 33.6188 18.1984 33.8533 18.2595L35.1212 18.565L35.3991 18.8443C36.2154 19.6647 37.5528 19.6647 38.3692 18.8443L39.7587 17.4478C39.9323 17.2733 39.9844 17.0114 39.8802 16.7845L39.9063 16.7932ZM14.4873 3.01186C14.4873 3.01186 14.4612 3.06423 14.4525 3.09041C14.2962 3.50935 14.192 3.9632 14.1659 4.43451C13.532 4.87963 12.542 4.68762 11.7951 4.43451C11.6214 4.37342 11.4478 4.30359 11.2828 4.2425C11.8386 3.9632 12.3943 3.54426 12.9675 2.95949C13.4538 2.47073 14.1312 2.60165 14.5828 2.78494C14.5481 2.85476 14.5133 2.93331 14.4873 3.01186ZM18.7252 1.32738C20.2971 1.32738 21.6171 2.40964 21.9992 3.8672L15.9289 2.82858C16.5368 1.9296 17.5702 1.32738 18.7339 1.32738H18.7252ZM15.5033 5.75243C15.3991 5.42949 15.347 5.08038 15.347 4.72253C15.347 4.45197 15.3818 4.19886 15.4339 3.94575L16.8147 4.1814L15.5033 5.75243ZM16.1112 6.87833L18.1694 4.41706L20.0366 4.73999L19.9323 5.26366C19.8629 5.58659 20.0713 5.9008 20.3926 5.97062C20.436 5.97062 20.4708 5.97935 20.5142 5.97935C20.7921 5.97935 21.0352 5.78734 21.096 5.49932L21.2089 4.932L22.0947 5.08038C21.9124 6.78232 20.4795 8.11769 18.7339 8.11769C17.6831 8.11769 16.7452 7.62893 16.1199 6.87833H16.1112ZM35.3644 9.44433L37.5876 14.4891C37.4052 14.6113 37.1881 14.7771 36.9449 14.9866C35.3557 13.9305 33.9402 11.9056 33.4017 11.0677C34.1312 10.2909 34.8781 9.74981 35.3644 9.44433ZM22.555 14.7422H23.0413C23.3192 14.7247 23.5711 14.8207 23.7708 15.0127C23.9706 15.2047 24.0834 15.4579 24.0921 15.7284C24.0921 16.0077 23.9966 16.2608 23.8055 16.4616C23.6145 16.6623 23.3626 16.7758 23.0847 16.7845H22.5463V14.7334L22.555 14.7422ZM5.73347 18.7308C4.37003 19.3418 3.51897 20.9128 3.60581 22.6497C3.64923 23.5312 3.44949 24.1858 2.99791 24.6047C2.59843 24.9713 2.05132 25.1197 1.59105 25.172C1.97316 24.273 2.37264 22.7631 2.10342 20.651C1.86026 18.757 2.52896 16.7845 3.71871 15.8593C4.49161 15.2571 5.40347 15.1524 6.41953 15.5539C8.00876 16.1823 8.8772 17.2384 9.35484 18.1286C9.06825 18.3817 8.81641 18.6872 8.59061 19.045C7.69613 18.4341 6.68006 18.3206 5.74216 18.7396L5.73347 18.7308ZM6.45427 38.3512L5.83768 37.3649C6.07216 37.1991 6.34137 36.9809 6.59322 36.6754L7.26191 37.1467C7.03612 37.5744 6.76691 37.9759 6.45427 38.3424V38.3512ZM15.3123 28.541C15.3123 28.541 15.3123 28.6195 15.3123 28.6545C14.6349 29.5971 13.4365 30.8277 11.8212 30.8277C10.9093 30.8277 9.75431 30.5571 8.38219 30.016C8.16508 29.92 7.90455 29.9636 7.72218 30.1382C7.60929 30.2517 7.5485 30.4088 7.5485 30.5571C7.5485 30.627 7.55718 30.6968 7.58323 30.7579C7.62665 30.8975 8.01745 32.1282 8.02613 33.7166C8.02613 34.5371 7.93061 35.2964 7.73087 35.9946L7.23586 35.6455C7.28797 35.5233 7.34007 35.3924 7.38349 35.2528C7.92192 33.5246 7.39218 31.3601 5.81163 28.829L6.44559 28.3053C7.47034 28.7592 9.28536 29.0123 10.8312 27.4587C10.9614 27.3278 11.0222 27.1445 10.9962 26.9612C10.9701 26.778 10.8659 26.6121 10.7009 26.5248C10.5706 26.4463 7.53981 24.6309 9.13773 20.5811C9.60668 19.3941 10.2493 18.7046 11.1438 18.4341C12.2728 20.2146 15.0257 20.8866 16.2502 21.1048L15.321 28.5323L15.3123 28.541ZM11.9862 17.5176C11.8733 17.2645 11.7951 16.7845 11.9514 15.8943L16.1894 16.3219L16.3457 16.7147C16.3978 16.8456 16.4673 16.9765 16.5455 17.0987C16.971 17.7446 17.6831 18.1111 18.4473 18.0937H18.8729L19.1681 18.2944C19.5763 18.5737 19.7934 19.0625 19.75 19.5512L19.42 22.0998H17.301L17.4747 20.6859C17.492 20.5288 17.4486 20.3629 17.3531 20.2408C17.2576 20.1186 17.1099 20.0313 16.9536 20.0138C15.816 19.8916 12.6983 19.2021 11.9775 17.5176H11.9862ZM20.5055 28.0173H16.5802L17.1707 23.2868H19.281L18.8989 26.2543C18.8729 26.4288 18.925 26.5947 19.0379 26.7256C19.1508 26.8565 19.3158 26.9263 19.4808 26.9263C20.0452 26.9263 20.4968 27.3889 20.4968 27.9475V28.0086L20.5055 28.0173ZM23.5363 32.7217L21.7821 31.8838L22.8763 30.7841L24.1095 31.7354L23.5363 32.7217ZM30.3796 32.2154L24.8737 32.7828L25.2211 32.1805H27.2532C27.4964 32.1805 27.7135 32.0322 27.8003 31.814C27.8959 31.587 27.8438 31.3339 27.6701 31.1594L25.1429 28.6195C25.2124 28.6457 25.2819 28.6806 25.3514 28.7068C26.1764 29.0647 27.1751 29.3265 28.1998 29.5098L30.3709 32.2154H30.3796ZM33.0109 36.8587L32.872 35.0346L34.1833 34.6069L34.7304 35.5757C34.2788 36.1081 33.7057 36.5358 33.0109 36.8587ZM30.588 25.7306C30.4751 25.879 30.4317 26.0797 30.4838 26.263C30.5359 26.4463 30.6662 26.5947 30.8485 26.6558L35.6336 28.4624C35.7899 29.0472 36.1286 30.5048 36.0157 32.0758C35.9549 32.9748 35.7639 33.7603 35.4512 34.4411L35.0517 33.7341V29.3614C35.0517 29.2043 34.991 29.0472 34.8694 28.9337C34.7565 28.8203 34.6002 28.7592 34.4352 28.7679C34.3744 28.7679 28.7556 28.9076 25.8203 27.6246C24.4656 27.0311 22.9458 26.7256 21.2958 26.7169C21.0179 26.3066 20.6097 26.0012 20.1408 25.8528L20.9397 19.6996C20.9397 19.6996 20.9397 19.6909 20.9397 19.6822C20.9918 19.0974 20.8529 18.5301 20.5489 18.05L23.0153 17.989C25.2558 18.757 27.2359 19.1498 28.9467 19.1498C29.4851 19.1498 29.9888 19.1149 30.4664 19.0363C30.6227 19.3767 30.8051 19.7171 31.0135 20.0575C32.7417 22.8417 30.6575 25.6259 30.5706 25.7393L30.588 25.7306ZM31.2306 17.6311C31.1091 17.1773 31.0396 16.7234 31.0396 16.2783C31.3001 16.6798 31.6214 17.0289 31.9949 17.3344C31.7517 17.4478 31.4999 17.5526 31.2306 17.6311ZM33.063 16.6361C32.2554 16.1124 31.6822 15.2746 31.5085 14.2796C31.7691 13.4155 32.1686 12.6649 32.6201 12.0191C33.0283 12.6213 33.6709 13.5115 34.4612 14.3581C34.3483 14.8207 34.0009 15.807 33.063 16.6274V16.6361ZM35.1125 17.3256L34.2702 17.1249C34.8607 16.4965 35.2081 15.8244 35.4165 15.2833C35.6423 15.4753 35.8681 15.6586 36.1026 15.8244C35.7465 16.2434 35.3991 16.7321 35.1125 17.3169V17.3256ZM37.5615 17.9977C37.2055 18.3555 36.6236 18.3555 36.2676 17.9977L36.1547 17.8842C36.7018 16.7583 37.5441 15.999 38.0826 15.5888L38.6557 16.8892L37.5528 17.9977H37.5615Z" fill="#0D4EE3"/>
</g>
</svg>
