<svg width="38" height="38" viewBox="0 0 38 38" fill="none" xmlns="http://www.w3.org/2000/svg">
<g clip-path="url(#clip0_477_26791)">
<path d="M3.06445 4.29024V5.51602C3.71465 5.51602 4.33821 5.25773 4.79797 4.79797C5.25773 4.33822 5.51602 3.71465 5.51602 3.06445H4.29024C4.28987 3.38944 4.1606 3.701 3.9308 3.9308C3.701 4.1606 3.38944 4.28987 3.06445 4.29024Z" fill="#0D4EE3"/>
<path d="M36.086 30.032C35.5789 30.0332 35.0928 30.2346 34.7335 30.5924L34.082 31.2431L33.5791 30.7213C29.4423 26.4367 25.4182 21.9461 21.551 17.314L22.4973 16.3677L21.6309 15.5013L20.763 16.3691C19.2276 14.5115 17.7179 12.6334 16.2339 10.7347L15.2666 11.4884C16.7782 13.4268 18.3203 15.3439 19.8931 17.2398L17.2433 19.8896C12.6203 16.0604 7.87361 12.4041 3.00316 8.92055C2.50165 8.56242 2.08418 8.09934 1.77979 7.56351C1.47539 7.02769 1.29138 6.43198 1.24054 5.81783C1.18971 5.20368 1.27329 4.58582 1.48545 4.00725C1.69761 3.42867 2.03327 2.90325 2.46907 2.46755C2.90488 2.03184 3.43038 1.69631 4.00901 1.48428C4.58764 1.27226 5.20551 1.18883 5.81965 1.23981C6.43379 1.29079 7.02945 1.47494 7.56521 1.77946C8.10096 2.08399 8.56394 2.50157 8.92195 3.00316C10.4076 5.0842 11.9871 7.21776 13.755 9.53064L14.5164 10.519L15.4865 9.76949L14.7266 8.78256C12.9698 6.48299 11.3973 4.36063 9.91939 2.28941C9.45773 1.64283 8.86075 1.10458 8.16999 0.712102C7.47923 0.319621 6.71126 0.0823279 5.9195 0.0167264C5.12773 -0.0488752 4.33118 0.0587899 3.58525 0.332233C2.83931 0.605677 2.16189 1.03833 1.60011 1.60011C1.03833 2.16189 0.605677 2.83931 0.332233 3.58525C0.0587896 4.33118 -0.0488752 5.12773 0.0167264 5.9195C0.082328 6.71126 0.319621 7.47923 0.712102 8.16999C1.10458 8.86075 1.64283 9.45773 2.28941 9.91939C7.09915 13.353 11.7922 16.9668 16.3684 20.7609L15.4985 21.6309L16.3649 22.4973L17.3182 21.5468C21.9328 25.4021 26.4002 29.4129 30.7206 33.5791L31.241 34.082L30.5896 34.7335C30.3225 35.0013 30.1407 35.3423 30.0672 35.7133C29.9937 36.0844 30.0317 36.4689 30.1766 36.8184C30.3215 37.1678 30.5666 37.4665 30.8811 37.6768C31.1956 37.887 31.5653 37.9994 31.9436 37.9996C32.4506 37.998 32.9365 37.7967 33.2961 37.4393L37.4379 33.2975C37.7054 33.03 37.8875 32.6892 37.9613 32.3181C38.0351 31.9471 37.9973 31.5625 37.8525 31.2129C37.7077 30.8634 37.4626 30.5647 37.148 30.3545C36.8335 30.1443 36.4636 30.0321 36.0853 30.032H36.086ZM18.1882 20.6811L20.6804 18.1861C21.1618 18.7609 21.6449 19.3343 22.1296 19.9064L19.905 22.1317C19.3341 21.6456 18.7646 21.1581 18.1889 20.6776L18.1882 20.6811ZM20.8422 22.9302L22.9288 20.8436C23.2286 21.1938 23.5263 21.544 23.8268 21.89L21.8837 23.8331C21.5363 23.5284 21.1903 23.2265 20.8422 22.9267V22.9302ZM22.8034 24.6442L24.6358 22.8111C24.9384 23.1565 25.241 23.5032 25.5464 23.8457L23.8387 25.5541C23.4948 25.2494 23.1494 24.9475 22.8048 24.6435L22.8034 24.6442ZM24.7584 26.3659L26.3617 24.7626C28.4392 27.0811 30.5499 29.3526 32.6938 31.5772L32.9739 31.8665L31.8609 32.9795L31.5709 32.6994C29.3444 30.5513 27.0738 28.4397 24.7591 26.3645L24.7584 26.3659ZM36.5686 32.4346L32.4269 36.5763C32.3304 36.6715 32.2079 36.7361 32.0748 36.7618C31.9417 36.7876 31.804 36.7734 31.679 36.7211C31.5539 36.6687 31.4472 36.5806 31.3721 36.4677C31.297 36.3548 31.257 36.2223 31.2571 36.0867C31.2568 35.9965 31.2745 35.9071 31.3092 35.8237C31.3438 35.7404 31.3947 35.6648 31.4589 35.6013L35.5999 31.4589C35.696 31.3627 35.8185 31.2972 35.9518 31.2706C36.0852 31.2441 36.2234 31.2577 36.349 31.3097C36.4747 31.3617 36.582 31.4499 36.6575 31.563C36.733 31.6761 36.7733 31.809 36.7732 31.945C36.7734 32.0353 36.7557 32.1248 36.7211 32.2083C36.6864 32.2917 36.6356 32.3675 36.5714 32.4311L36.5686 32.4346Z" fill="#0D4EE3"/>
<path d="M7.9676 22.0645C6.39176 22.0645 4.8513 22.5317 3.54104 23.4072C2.23078 24.2827 1.20955 25.5271 0.606501 26.983C0.00345229 28.4389 -0.154333 30.0409 0.153099 31.5864C0.46053 33.132 1.21937 34.5517 2.33366 35.666C3.44795 36.7803 4.86764 37.5391 6.4132 37.8465C7.95876 38.154 9.56078 37.9962 11.0167 37.3931C12.4726 36.7901 13.7169 35.7689 14.5924 34.4586C15.4679 33.1483 15.9352 31.6079 15.9352 30.032C15.9328 27.9197 15.0926 25.8945 13.5989 24.4008C12.1052 22.9071 10.08 22.0669 7.9676 22.0645ZM1.22579 30.032C1.22407 28.4733 1.76522 26.9625 2.75627 25.7593C3.10901 26.188 3.40755 26.6585 3.64513 27.1602L3.09949 27.3598L3.51975 28.5121L4.0661 28.3131C4.1627 28.6757 4.22923 29.0456 4.26503 29.4192H3.67946V30.6449H4.26433C4.22837 31.0177 4.16112 31.3867 4.0633 31.7481L3.51975 31.552L3.09949 32.7043L3.64654 32.9032C3.40912 33.405 3.11056 33.8755 2.75767 34.3041C1.76713 33.1006 1.22627 31.59 1.22789 30.0313L1.22579 30.032ZM7.9676 36.7739C6.37656 36.774 4.8373 36.2084 3.62482 35.1782C4.10052 34.6173 4.49608 33.9931 4.80017 33.3235L5.40396 33.5434L5.82423 32.3912L5.22675 32.174C5.36462 31.6744 5.4533 31.1625 5.49151 30.6456H6.13313V29.4199H5.48801C5.44935 28.9044 5.36067 28.394 5.22324 27.8957L5.82073 27.6778L5.40046 26.5256L4.79737 26.7441C4.49403 26.0724 4.09843 25.4462 3.62202 24.8838C4.8945 23.8035 6.5237 23.236 8.19192 23.2918C9.86013 23.3476 11.4478 24.0228 12.6452 25.1856C12.277 25.6672 11.9649 26.1891 11.715 26.7413L11.1119 26.5221L10.6916 27.6736L11.2891 27.8915C11.1515 28.3911 11.0628 28.903 11.0244 29.4199H10.3841V30.6456H11.0251C11.0639 31.1624 11.1526 31.6743 11.2898 32.174L10.6923 32.3919L11.1126 33.5434L11.715 33.3242C11.9649 33.8756 12.2767 34.3968 12.6445 34.8777C11.3906 36.0932 9.71315 36.7732 7.9669 36.7739H7.9676ZM13.4661 33.9195C13.2378 33.5984 13.0385 33.2576 12.8707 32.9011L13.4164 32.7029L12.9961 31.5506L12.4498 31.7488C12.3534 31.3863 12.2871 31.0163 12.2515 30.6428H12.8357V29.4171H12.2515C12.2869 29.0451 12.3535 28.6768 12.4505 28.316L12.9968 28.5142L13.4171 27.3619L12.8707 27.1637C13.0391 26.8073 13.2383 26.4663 13.4661 26.1446C14.2745 27.2796 14.709 28.6385 14.709 30.032C14.709 31.4256 14.2745 32.7845 13.4661 33.9195Z" fill="#0D4EE3"/>
</g>
<defs>
<clipPath id="clip0_477_26791">
<rect width="37.9993" height="38" fill="white"/>
</clipPath>
</defs>
</svg>
