<svg width="96" height="96" viewBox="0 0 96 96" fill="none" xmlns="http://www.w3.org/2000/svg">
<rect width="96" height="96" rx="48" fill="#0D4EE3"/>
<g clip-path="url(#clip0_387_37019)">
<mask id="mask0_387_37019" style="mask-type:luminance" maskUnits="userSpaceOnUse" x="21" y="21" width="54" height="54">
<path d="M75 21H21V74.7303H75V21Z" fill="white"/>
</mask>
<g mask="url(#mask0_387_37019)">
<path d="M74.8702 43.5566L69.9344 32.4307L70.333 29.019C70.3682 28.7025 70.2158 28.3977 69.9344 28.2218C69.8055 28.1398 69.6531 28.1163 69.4889 28.1163C67.9531 28.1398 66.4525 29.5818 65.8076 30.2969C64.5649 30.1094 63.3339 30.1797 62.1381 30.4962C61.6809 30.6135 61.4229 31.1059 61.5871 31.5514C61.7277 31.9383 62.1381 32.161 62.5367 32.0555C63.6387 31.7624 64.7877 31.7273 65.9601 31.9617C66.2531 32.0203 66.5462 31.9148 66.7338 31.6804C67.1559 31.1645 67.8828 30.4494 68.5979 30.039L68.3634 32.0438C67.109 32.7472 63.3105 35.2092 61.9505 39.8284C61.7864 40.1567 61.294 41.247 61.294 42.8532C61.294 43.5683 61.3878 44.2835 61.5753 45.0104C59.5588 45.2566 57.1203 44.9869 54.33 44.1897C54.8576 43.6152 55.139 42.8766 55.1155 42.1028C55.0921 41.3642 54.8224 40.6843 54.33 40.1567C55.4555 37.9878 57.1789 35.3147 59.465 33.5913C59.805 33.3334 59.8871 32.8645 59.6526 32.5127C59.3947 32.1259 58.8671 32.0321 58.5037 32.3134C56.9444 33.4976 54.9162 35.6078 52.97 39.3008C52.6769 39.2188 52.3721 39.1719 52.0556 39.1836L47.7998 39.2774L45.8419 34.5175C45.8419 34.5175 45.8302 34.4824 45.8185 34.4589L45.3026 33.4272C45.6192 33.4741 45.9357 33.4976 46.264 33.4976C49.406 33.4976 52.0087 31.1293 52.3838 28.0811L53.4976 28.2687C53.4976 28.2687 53.5914 28.2687 53.6383 28.2687C54.0486 28.2687 54.4003 27.9522 54.4355 27.5301C54.4707 27.1081 54.1541 26.7446 53.7438 26.6743L52.3721 26.4398C51.9501 23.4502 49.3708 21.1406 46.264 21.1406C44.3765 21.1406 42.6765 21.9965 41.551 23.3447C41.2931 23.2275 40.9766 23.1102 40.6248 23.0164C39.3352 22.6882 38.198 22.9695 37.3539 23.8019C35.7829 25.3729 34.7395 25.5957 34.0009 25.5957C33.6843 25.5957 33.3795 25.7715 33.2388 26.0646C33.0747 26.4281 33.2036 26.8619 33.5319 27.0729C33.6843 27.1784 36.3574 28.8784 38.8194 28.8784C39.3118 28.8784 39.7924 28.808 40.2497 28.6439C40.4373 29.5114 40.8124 30.3087 41.3283 30.9886C40.3786 31.1997 39.5697 31.821 39.1125 32.7238C38.9718 33.0169 38.8194 33.31 38.667 33.6148C38.4794 34.0134 38.6201 34.5058 39.0069 34.7051C39.4056 34.9161 39.898 34.752 40.0973 34.3417C40.2497 34.0368 40.4021 33.732 40.5428 33.4272C40.8241 32.8645 41.3986 32.5127 42.0317 32.5127C42.6765 32.5127 43.2275 32.8527 43.5206 33.4272L44.3647 35.1154L46.5219 40.356C46.6509 40.6608 46.9557 40.8601 47.284 40.8484L49.8281 40.7898V43.5683L46.6861 43.6387L45.8419 43.6621C45.3613 43.6738 44.9158 43.4394 44.6578 43.0408C44.6109 42.9704 44.564 42.8883 44.5289 42.8063L41.7738 36.1002C41.6096 35.6899 41.1407 35.4906 40.7304 35.6665C40.32 35.8306 40.1207 36.2995 40.2966 36.7099L42.1489 41.2118L37.4946 40.7429C37.8111 39.676 38.2918 38.3278 39.0421 36.6395C39.218 36.2409 39.0656 35.7485 38.667 35.5609C38.2566 35.3616 37.7642 35.5492 37.5884 35.9596C35.8884 39.805 35.1967 42.4897 35.4546 44.2366C35.2905 44.2952 35.1264 44.3538 34.9739 44.4242C34.1767 42.9939 32.7699 41.3408 30.2492 40.356C28.3734 39.6174 26.5211 39.8401 25.0321 40.9891C22.9687 42.5952 21.855 45.7724 22.2536 48.9027C22.7694 52.9357 21.2336 54.9873 21.175 55.0577C20.9991 55.2804 20.9522 55.5853 21.0578 55.8549C21.1633 56.1246 21.3977 56.3121 21.6791 56.359C21.7143 56.359 22.0308 56.4059 22.5115 56.4059C23.4494 56.4059 24.9852 56.2301 26.1107 55.1984C27.0955 54.3074 27.5528 52.9943 27.459 51.3061C27.3769 49.6647 28.1624 48.1406 29.3817 47.5896C30.1789 47.2262 31.0465 47.3668 31.832 47.9765C31.832 47.9999 31.8202 48.0117 31.8085 48.0351C30.4134 51.5523 31.2458 54.0729 32.1837 55.5735C32.6761 56.359 33.2388 56.9452 33.7078 57.3438C31.8671 58.5045 30.0734 57.4376 29.9913 57.379C29.6982 57.1914 29.3231 57.2149 29.0534 57.4376L27.2362 58.9383C26.9197 59.1962 26.8493 59.6534 27.0721 59.9934C29.1941 63.1823 30.003 65.8905 29.4051 67.8367C28.8893 69.5249 27.4941 70.1111 27.4472 70.1345C27.1424 70.2518 26.9314 70.5566 26.9431 70.9083C26.9431 71.0607 27.0017 71.2014 27.0721 71.3186L28.8658 74.1675C28.9713 74.3434 29.1472 74.4841 29.3465 74.5427C29.4168 74.5662 29.4872 74.5662 29.5575 74.5662C29.7568 74.5662 29.9444 74.4958 30.0968 74.3551C33.9657 70.8497 33.6023 65.785 33.1099 63.2878C34.5636 63.7568 35.8415 63.9913 36.9318 63.9913C38.2683 63.9913 40.8124 63.4871 43.0751 60.2162H49.4529C49.8984 60.2162 50.2501 59.8527 50.2501 59.419V58.5279C50.2501 58.5279 50.2501 58.4928 50.2501 58.4693C50.7894 58.4928 51.317 58.5397 51.8328 58.61L55.8307 62.6078H54.8341L52.2666 60.6382C51.9501 60.392 51.4928 60.4272 51.2115 60.7086L48.4446 63.4754C48.3157 63.6044 48.2219 63.7685 48.1984 63.9444C48.1515 64.3078 48.3391 64.6361 48.6439 64.7885L52.6887 66.6995C52.7825 66.7464 52.8762 66.7698 52.9818 66.7815C53.0287 66.7815 53.0873 66.7815 53.1342 66.7815L63.6036 65.7147C63.8967 65.6795 64.1546 65.4919 64.2601 65.2223C64.3773 64.9526 64.3304 64.6361 64.1429 64.4133L61.3643 60.9665C63.5567 61.201 65.5849 61.2362 66.6752 61.2362V65.9374L64.2367 66.7229C63.8849 66.8401 63.6505 67.1801 63.6856 67.5436L64.0022 71.7055C64.0256 71.9517 64.1546 72.1745 64.3539 72.3152C64.4828 72.409 64.6353 72.4441 64.7994 72.4441C64.8815 72.4441 64.9753 72.4324 65.0573 72.409C68.7972 71.1662 70.9192 68.3056 71.1889 64.1437C71.3882 61.1072 70.5206 58.4693 70.4855 58.3638C70.4034 58.1293 70.2275 57.9535 70.0048 57.8714L64.096 55.6556C64.3773 55.1515 64.7173 54.448 64.9753 53.6274C65.6904 51.3061 65.4325 49.0434 64.2132 47.0855C64.0256 46.7807 63.8615 46.4876 63.7091 46.1827C64.4125 45.96 65.0573 45.6552 65.6552 45.2917C65.6904 45.2683 65.7256 45.2448 65.7607 45.2214C66.0656 45.3386 66.3821 45.4441 66.6987 45.5262L68.4103 45.9365L68.7855 46.3117C69.8875 47.4137 71.693 47.4137 72.7951 46.3117L74.6709 44.4359C74.9053 44.2014 74.9757 43.8497 74.835 43.5449L74.8702 43.5566ZM40.5545 25.0447C40.5545 25.0447 40.5193 25.115 40.5076 25.1502C40.2966 25.7129 40.1559 26.3226 40.1207 26.9556C39.2649 27.5536 37.9284 27.2956 36.9201 26.9556C36.6856 26.8736 36.4512 26.7798 36.2284 26.6977C36.9787 26.3226 37.7291 25.7598 38.5028 24.9743C39.1594 24.3178 40.0738 24.4936 40.6835 24.7398C40.6366 24.8336 40.5897 24.9391 40.5545 25.0447ZM46.2757 22.782C48.3977 22.782 50.1798 24.2357 50.6956 26.1936L42.5007 24.7985C43.3213 23.5909 44.7165 22.782 46.2875 22.782H46.2757ZM41.9262 28.7259C41.7855 28.2922 41.7152 27.8232 41.7152 27.3425C41.7152 26.9791 41.7621 26.6391 41.8324 26.2991L43.6965 26.6157L41.9262 28.7259ZM42.7469 30.2383L45.5254 26.9322L48.046 27.366L47.9053 28.0694C47.8116 28.5032 48.0929 28.9253 48.5267 29.019C48.5853 29.019 48.6322 29.0308 48.6908 29.0308C49.066 29.0308 49.3943 28.7728 49.4763 28.386L49.6287 27.6239L50.8246 27.8232C50.5784 30.1094 48.6439 31.9031 46.2875 31.9031C44.8689 31.9031 43.6027 31.2466 42.7586 30.2383H42.7469ZM68.7386 33.6851L71.7399 40.4615C71.4937 40.6256 71.2006 40.8484 70.8723 41.1298C68.7269 39.7112 66.8159 36.9913 66.089 35.8658C67.0738 34.8223 68.0821 34.0955 68.7386 33.6851ZM51.4459 40.8015H52.1025C52.4776 40.7781 52.8176 40.907 53.0873 41.1649C53.3569 41.4229 53.5093 41.7629 53.5211 42.1263C53.5211 42.5015 53.3921 42.8414 53.1342 43.1111C52.8762 43.3807 52.5363 43.5332 52.1611 43.5449H51.4342V40.7898L51.4459 40.8015ZM28.7369 46.1593C26.8962 46.98 25.7473 49.0903 25.8645 51.4233C25.9231 52.6074 25.6535 53.4867 25.0439 54.0494C24.5046 54.5418 23.766 54.7411 23.1446 54.8115C23.6604 53.6039 24.1997 51.5757 23.8363 48.7385C23.508 46.1945 24.4108 43.5449 26.0169 42.3022C27.0604 41.4932 28.2914 41.3525 29.663 41.8918C31.8085 42.7359 32.9809 44.1545 33.6257 45.3503C33.2388 45.6903 32.8988 46.1007 32.594 46.5814C31.3865 45.7607 30.0148 45.6083 28.7486 46.171L28.7369 46.1593ZM29.7099 72.5145L28.8776 71.1897C29.1941 70.9669 29.5575 70.6738 29.8975 70.2635L30.8003 70.8966C30.4954 71.4711 30.132 72.0104 29.7099 72.5028V72.5145ZM41.6683 59.3369C41.6683 59.3369 41.6683 59.4424 41.6683 59.4893C40.7538 60.7555 39.1359 62.4085 36.9553 62.4085C35.7243 62.4085 34.165 62.0451 32.3126 61.3182C32.0195 61.1893 31.6678 61.2479 31.4216 61.4823C31.2692 61.6348 31.1871 61.8458 31.1871 62.0451C31.1871 62.1389 31.1989 62.2327 31.234 62.3147C31.2927 62.5023 31.8202 64.1554 31.832 66.2891C31.832 67.3912 31.703 68.4111 31.4333 69.349L30.7651 68.8801C30.8354 68.716 30.9058 68.5401 30.9644 68.3525C31.6913 66.0312 30.9761 63.1237 28.8424 59.7238L29.6982 59.0203C31.0816 59.63 33.5319 59.97 35.6188 57.8831C35.7946 57.7073 35.8767 57.4611 35.8415 57.2149C35.8063 56.9687 35.6657 56.7459 35.4429 56.6287C35.267 56.5232 31.1754 54.0846 33.3326 48.6447C33.9657 47.0503 34.8333 46.1241 36.0408 45.7607C37.5649 48.1523 41.2814 49.0551 42.9344 49.3482L41.68 59.3252L41.6683 59.3369ZM37.178 44.5297C37.0256 44.1897 36.9201 43.5449 37.1311 42.349L42.8524 42.9235L43.0634 43.4511C43.1337 43.6269 43.2275 43.8028 43.333 43.9669C43.9075 44.8345 44.8689 45.3269 45.9006 45.3035H46.475L46.8736 45.5731C47.4247 45.9483 47.7178 46.6048 47.6591 47.2613L47.2136 50.6847H44.353L44.5875 48.7854C44.6109 48.5744 44.5523 48.3517 44.4234 48.1875C44.2944 48.0234 44.0951 47.9061 43.8841 47.8827C42.3482 47.7186 38.1394 46.7924 37.1663 44.5297H37.178ZM48.6791 58.6335H43.3799L44.1772 52.2791H47.0261L46.5102 56.2652C46.475 56.4997 46.5454 56.7225 46.6978 56.8983C46.8502 57.0742 47.0729 57.168 47.2957 57.168C48.0578 57.168 48.6674 57.7893 48.6674 58.5397V58.6217L48.6791 58.6335ZM52.7707 64.9526L50.4025 63.8271L51.8797 62.3499L53.5445 63.6278L52.7707 64.9526ZM62.0091 64.2726L54.5762 65.0347L55.0452 64.2257H57.7885C58.1168 64.2257 58.4099 64.0264 58.5271 63.7333C58.6561 63.4285 58.5858 63.0885 58.3513 62.854L54.9396 59.4424C55.0334 59.4776 55.1272 59.5245 55.221 59.5596C56.3348 60.0403 57.683 60.392 59.0664 60.6382L61.9974 64.2726H62.0091ZM65.5614 70.5097L65.3739 68.0594L67.1442 67.485L67.8828 68.7863C67.2731 69.5015 66.4993 70.0759 65.5614 70.5097ZM62.2905 55.5618C62.1381 55.7611 62.0795 56.0308 62.1498 56.277C62.2201 56.5232 62.396 56.7225 62.6422 56.8045L69.102 59.2314C69.3131 60.0169 69.7703 61.9748 69.6179 64.085C69.5358 65.2926 69.2779 66.3477 68.8558 67.2622L68.3165 66.3126V60.4389C68.3165 60.2279 68.2345 60.0169 68.0703 59.8645C67.9179 59.7121 67.7069 59.63 67.4842 59.6417C67.4021 59.6417 59.8168 59.8293 55.8541 58.1059C54.0252 57.3087 51.9735 56.8983 49.746 56.8866C49.3708 56.3356 48.8198 55.9253 48.1867 55.7259L49.2653 47.4606C49.2653 47.4606 49.2653 47.4489 49.2653 47.4372C49.3356 46.6517 49.1481 45.8896 48.7377 45.2448L52.0673 45.1628C55.0921 46.1945 57.7651 46.722 60.0747 46.722C60.8016 46.722 61.4815 46.6751 62.1264 46.5696C62.3374 47.0269 62.5836 47.4841 62.865 47.9413C65.198 51.6812 62.3843 55.4211 62.267 55.5735L62.2905 55.5618ZM63.1581 44.6821C62.9939 44.0725 62.9001 43.4628 62.9001 42.8649C63.2519 43.4042 63.6856 43.8731 64.1898 44.2835C63.8615 44.4359 63.5215 44.5766 63.1581 44.6821ZM65.6318 43.3456C64.5415 42.6421 63.7677 41.5167 63.5332 40.1801C63.8849 39.0195 64.4242 38.0112 65.0339 37.1437C65.5849 37.9526 66.4525 39.1484 67.5193 40.2857C67.3669 40.907 66.898 42.2318 65.6318 43.3338V43.3456ZM68.3986 44.2718L67.2614 44.0021C68.0586 43.158 68.5276 42.2553 68.8089 41.5284C69.1138 41.7863 69.4186 42.0325 69.7351 42.2553C69.2545 42.818 68.7855 43.4745 68.3986 44.26V44.2718ZM71.7047 45.1745C71.2241 45.6552 70.4386 45.6552 69.9579 45.1745L69.8055 45.0221C70.5441 43.5097 71.6813 42.4897 72.4082 41.9387L73.1819 43.6856L71.693 45.1745H71.7047Z" fill="white"/>
</g>
<path d="M68.6344 35.5382C68.353 35.3388 67.9661 35.3388 67.6847 35.5382C67.4034 35.7492 67.2861 36.1478 67.4268 36.4878C67.5558 36.8043 67.884 37.0036 68.224 36.9802C68.564 36.9567 68.8454 36.7223 68.9392 36.394C69.0212 36.0774 68.904 35.7257 68.6344 35.5264V35.5382Z" fill="white"/>
</g>
<defs>
<clipPath id="clip0_387_37019">
<rect width="54" height="53.7303" fill="white" transform="translate(21 21)"/>
</clipPath>
</defs>
</svg>
