<svg width="40" height="40" viewBox="0 0 40 40" fill="none" xmlns="http://www.w3.org/2000/svg">
<g clip-path="url(#clip0_477_26797)">
<path d="M34.1404 5.8596C30.3673 2.07781 25.3423 0 20.0043 0C14.6664 0 9.6153 2.10389 5.8596 5.8596C2.07781 9.63269 0 14.6577 0 20.0043C0 21.4562 0.156488 22.8994 0.460769 24.3078C0.53032 24.6294 0.860683 24.8381 1.18235 24.7511C1.49533 24.6729 1.68659 24.3599 1.61704 24.0469C1.33015 22.7255 1.18235 21.3693 1.18235 20.0043C1.18235 19.6218 1.19105 19.248 1.21713 18.8742L4.58161 16.3095L11.1367 17.7874L14.1534 27.0811L10.8759 32.9059L6.46816 33.0972C4.71202 31.2889 3.31232 29.1154 2.38209 26.6725C2.26907 26.3682 1.93871 26.2117 1.63443 26.316C1.32145 26.4203 1.15627 26.7768 1.26929 27.0811C4.19909 34.8359 11.6409 40 19.9783 40C25.3249 40 30.3412 37.9222 34.123 34.1404C37.8787 30.3847 39.9826 25.3075 39.9826 19.9957C39.9826 14.649 37.9048 9.63269 34.123 5.8509L34.1404 5.8596ZM38.6177 17.3006L36.2008 15.4575L37.2441 12.4669C37.9135 13.997 38.3743 15.6227 38.6177 17.2919V17.3006ZM20.0043 1.19105C20.8389 1.19105 21.6736 1.24321 22.4908 1.35623L20.0043 3.16453L17.5179 1.35623C18.3351 1.2519 19.1611 1.19105 20.0043 1.19105ZM1.391 17.2484C1.62573 15.614 2.07781 14.0317 2.72984 12.5277L3.75571 15.4488L1.391 17.2484ZM4.90328 15.1532L3.46012 11.0237C4.31211 9.45012 5.39883 7.98957 6.70289 6.6942C9.26755 4.12954 12.4408 2.39948 15.8922 1.63443L19.4132 4.19039V10.8672L11.4758 16.6312L4.91198 15.1445L4.90328 15.1532ZM12.3104 17.4918L20.0043 11.9018L22.9863 14.0665C23.2558 14.2578 23.621 14.1969 23.8122 13.9361C24.0035 13.6753 23.9426 13.3015 23.6818 13.1102L20.5955 10.8672V4.19039L24.1165 1.63443C27.5679 2.39948 30.7411 4.12954 33.3058 6.6942C34.5925 7.98087 35.6618 9.41534 36.5138 10.9715L35.0446 15.1532L28.5155 16.6312L25.9074 14.7359C25.6379 14.5447 25.2728 14.6055 25.0815 14.8663C24.8902 15.1358 24.9511 15.501 25.2119 15.6922L27.6983 17.5005L24.7598 26.5508H15.2489L12.3104 17.5005V17.4918ZM7.70267 34.2273L10.8498 34.0882L11.9365 36.9833C10.4064 36.253 8.98066 35.3228 7.70267 34.2187V34.2273ZM20.013 38.809C17.7266 38.809 15.5097 38.3917 13.4493 37.6266L11.9191 33.5318L15.1793 27.7331H24.8033L28.0635 33.5318L26.516 37.6614C24.4642 38.4177 22.2647 38.809 20.013 38.809ZM28.02 37.0267L29.1154 34.0882L32.3147 34.2273C31.002 35.3662 29.5588 36.3052 28.02 37.0267ZM33.5145 33.0885L29.0632 32.8972L25.8205 27.1332L28.8633 17.7701L35.3662 16.3008L38.7916 18.9089C38.809 19.2741 38.8263 19.6305 38.8263 19.9957C38.8263 24.925 36.9398 29.5675 33.5145 33.0885Z" fill="#0D4EE3"/>
</g>
<defs>
<clipPath id="clip0_477_26797">
<rect width="40" height="40" fill="white"/>
</clipPath>
</defs>
</svg>
