<svg width="32" height="32" viewBox="0 0 32 32" fill="none" xmlns="http://www.w3.org/2000/svg">
<g clip-path="url(#clip0_387_24161)">
<path d="M29.3333 0H2.66669C1.19463 0.00175 0.00175 1.19463 0 2.66669V29.3334C0.00175 30.8054 1.19463 31.9982 2.66669 32H29.3334C30.8054 31.9982 31.9982 30.8054 32.0001 29.3333V2.66669C31.9982 1.19463 30.8054 0.00175 29.3333 0ZM30.9333 29.3333C30.9333 30.2169 30.2169 30.9333 29.3333 30.9333H2.66669C1.78306 30.9333 1.06669 30.2169 1.06669 29.3333V2.66669C1.06669 1.78306 1.78306 1.06669 2.66669 1.06669H29.3334C30.217 1.06669 30.9334 1.78306 30.9334 2.66669L30.9333 29.3333Z" fill="#0D4EE3"/>
<path d="M29.3328 4.26562H2.66613C2.37156 4.26562 2.13281 4.50444 2.13281 4.79894C2.13281 5.0935 2.37163 5.33225 2.66613 5.33225H29.3328C29.6274 5.33225 29.8661 5.0935 29.8661 4.79894C29.8661 4.50438 29.6273 4.26562 29.3328 4.26562Z" fill="#0D4EE3"/>
<path d="M3.19933 3.19944C3.49387 3.19944 3.73264 2.96067 3.73264 2.66613C3.73264 2.37158 3.49387 2.13281 3.19933 2.13281C2.90479 2.13281 2.66602 2.37158 2.66602 2.66613C2.66602 2.96067 2.90479 3.19944 3.19933 3.19944Z" fill="#0D4EE3"/>
<path d="M5.33409 3.19944C5.62863 3.19944 5.86741 2.96067 5.86741 2.66613C5.86741 2.37158 5.62863 2.13281 5.33409 2.13281C5.03955 2.13281 4.80078 2.37158 4.80078 2.66613C4.80078 2.96067 5.03955 3.19944 5.33409 3.19944Z" fill="#0D4EE3"/>
<path d="M7.46691 3.19944C7.76145 3.19944 8.00022 2.96067 8.00022 2.66613C8.00022 2.37158 7.76145 2.13281 7.46691 2.13281C7.17237 2.13281 6.93359 2.37158 6.93359 2.66613C6.93359 2.96067 7.17237 3.19944 7.46691 3.19944Z" fill="#0D4EE3"/>
<path d="M17.222 16.8125C17.4312 17.0147 17.7639 17.0118 17.9696 16.806C18.1754 16.6003 18.1782 16.2677 17.9761 16.0584L17.3275 15.4125C17.5017 15.204 17.4879 14.8972 17.2958 14.705C17.1037 14.513 16.7968 14.4992 16.5883 14.6733L15.9397 14.0247C15.7305 13.8226 15.3978 13.8255 15.1921 14.0312C14.9864 14.237 14.9835 14.5696 15.1856 14.7788L15.8256 15.4188L15.2219 16.0226L14.5819 15.3826C14.3726 15.1805 14.0399 15.1833 13.8342 15.3891C13.6285 15.5948 13.6256 15.9275 13.8277 16.1367L14.4677 16.7767L13.8656 17.3783L13.2256 16.7383C13.0909 16.6035 12.8944 16.5507 12.7102 16.5998C12.526 16.649 12.3821 16.7928 12.3326 16.9769C12.2831 17.161 12.3357 17.3575 12.4704 17.4925L13.1104 18.1325L12.5072 18.7357L11.8672 18.0957C11.6579 17.8935 11.3252 17.8964 11.1195 18.1022C10.9138 18.3079 10.9109 18.6405 11.113 18.8498L11.753 19.4898L11.1493 20.0935L10.5093 19.4535C10.3 19.2514 9.96736 19.2543 9.76167 19.46C9.55598 19.6658 9.55304 19.9984 9.75517 20.2077L10.4037 20.8525C10.1989 21.0573 10.1989 21.3895 10.4037 21.5943C10.6086 21.7992 10.9407 21.7992 11.1456 21.5943L11.7942 22.2429C12.0034 22.445 12.3361 22.4422 12.5418 22.2364C12.7475 22.0307 12.7504 21.698 12.5483 21.4888L11.9083 20.8488L12.512 20.245L13.152 20.885C13.3613 21.0872 13.694 21.0843 13.8997 20.8785C14.1054 20.6728 14.1083 20.3402 13.9062 20.1309L13.2662 19.4909L13.8656 18.8867L14.5056 19.5267C14.7139 19.7352 15.0517 19.7355 15.2603 19.5272C15.4689 19.319 15.469 18.9811 15.2609 18.7725L14.6209 18.1325L15.224 17.5293L15.864 18.1693C16.0733 18.3715 16.406 18.3686 16.6117 18.1628C16.8174 17.9571 16.8203 17.6245 16.6182 17.4152L15.9782 16.7752L16.5819 16.1715L17.222 16.8125Z" fill="#0D4EE3"/>
<path d="M24.6537 17.7204C25.3613 14.9067 25.1506 11.9404 24.0526 9.2548C23.8096 8.66205 23.3392 8.19136 22.7465 7.94811C17.2169 5.68624 11.4558 7.30118 7.23934 11.5054C2.66865 16.0873 1.56146 21.8334 3.67934 27.0105C3.92227 27.6044 4.3934 28.0759 4.98709 28.3193C9.47921 30.1611 14.6123 29.4701 18.4575 26.506C19.8486 28.7964 22.6157 29.8519 25.1788 29.0701C27.742 28.2883 29.4489 25.8681 29.325 23.1912C29.2012 20.5144 27.2781 18.2622 24.6537 17.7204ZM23.466 17.5994C23.321 17.5994 23.1786 17.6106 23.0361 17.6212L13.9566 8.54067C14.7603 8.29511 15.587 8.13268 16.4238 8.05586L23.9438 15.5759C23.88 16.2607 23.7572 16.9388 23.5769 17.6026C23.5406 17.6042 23.5039 17.5994 23.466 17.5994ZM23.0628 9.65749C23.6294 11.0759 23.9421 12.583 23.9865 14.1097L17.8878 8.01105C19.4157 8.05492 20.9238 8.36818 22.3428 8.93636C22.6697 9.07061 22.9291 9.33036 23.0628 9.65749ZM11.306 28.2095L3.78921 20.6927C3.86502 19.855 4.02771 19.0274 4.27452 18.2234L13.7775 27.7236C12.9725 27.97 12.1443 28.1328 11.306 28.2095ZM4.66709 26.6095C4.10052 25.191 3.78784 23.684 3.74334 22.1572L9.84415 28.2543C8.31627 28.2103 6.80821 27.897 5.38921 27.329C5.06234 27.1948 4.8029 26.9351 4.66921 26.6079L4.66709 26.6095ZM14.8793 27.3183L4.67665 17.1145C5.45046 15.2937 6.57721 13.6442 7.99184 12.2612C9.37665 10.8444 11.0288 9.71655 12.8526 8.94286L21.7593 17.8537C20.2055 18.3213 18.9158 19.4138 18.1992 20.8697C17.4826 22.3257 17.4034 24.0139 17.9807 25.5306C17.0278 26.257 15.9855 26.8579 14.8793 27.3183ZM23.466 28.2661C20.8151 28.2661 18.666 26.117 18.666 23.4661C18.666 20.8151 20.8151 18.666 23.466 18.666C26.117 18.666 28.266 20.8151 28.266 23.4661C28.2631 26.1158 26.1158 28.2631 23.466 28.2661Z" fill="#0D4EE3"/>
<path d="M25.0674 22.1344C25.0674 22.4289 25.3062 22.6677 25.6007 22.6677C25.8953 22.6677 26.134 22.4289 26.134 22.1344C26.134 21.216 25.2322 20.4731 24.0007 20.3045V20.2677C24.0007 19.9731 23.7619 19.7344 23.4674 19.7344C23.1728 19.7344 22.9341 19.9732 22.9341 20.2677V20.3045C21.7027 20.4731 20.8008 21.2159 20.8008 22.1344C20.8008 23.0528 21.7027 23.7957 22.9341 23.9643V25.5477C22.3005 25.4245 21.8674 25.1008 21.8674 24.801C21.8674 24.5064 21.6286 24.2677 21.3341 24.2677C21.0396 24.2677 20.8008 24.5064 20.8008 24.801C20.8008 25.7194 21.7027 26.4623 22.9341 26.6309V26.6677C22.9341 26.9622 23.1729 27.201 23.4674 27.201C23.762 27.201 24.0007 26.9622 24.0007 26.6677V26.6309C25.2322 26.4623 26.134 25.7194 26.134 24.801C26.134 23.8826 25.2322 23.1397 24.0007 22.9711V21.3877C24.6343 21.5114 25.0674 21.8352 25.0674 22.1344ZM21.8674 22.1344C21.8674 21.8352 22.3005 21.5114 22.9341 21.3877V22.881C22.3005 22.7573 21.8674 22.4336 21.8674 22.1344ZM25.0674 24.8011C25.0674 25.1002 24.6343 25.424 24.0007 25.5478V24.0544C24.6343 24.1781 25.0674 24.5019 25.0674 24.8011Z" fill="#0D4EE3"/>
</g>
<defs>
<clipPath id="clip0_387_24161">
<rect width="32" height="32" fill="white"/>
</clipPath>
</defs>
</svg>
