<svg width="40" height="40" viewBox="0 0 40 40" fill="none" xmlns="http://www.w3.org/2000/svg">
<g clip-path="url(#clip0_477_26801)">
<mask id="mask0_477_26801" style="mask-type:luminance" maskUnits="userSpaceOnUse" x="0" y="0" width="40" height="40">
<path d="M40 0H0V40H40V0Z" fill="white"/>
</mask>
<g mask="url(#mask0_477_26801)">
<path d="M36.8905 3.10322C34.5974 0.806862 31.3661 -0.258996 27.7787 0.0962901C24.2434 0.442911 20.7863 2.14135 18.0502 4.87965C17.8069 5.12229 17.5811 5.36492 17.3553 5.61622C17.0947 5.0443 16.7298 4.50704 16.2608 4.03043C14.1674 1.94204 10.7537 1.94204 8.66036 4.03043C6.55829 6.12749 6.56698 9.55903 8.6951 11.6474C9.60715 12.54 10.8232 13.0859 12.1001 13.1725C12.5778 13.2072 13.0469 13.1725 13.4986 13.0859C13.1251 14.845 13.1077 16.5608 13.4117 18.1639H13.403C13.3857 19.767 13.0382 24.2297 11.6571 25.6076L8.85145 28.4065C8.72985 28.3719 8.59955 28.3545 8.46926 28.3545C8.09575 28.3545 7.73962 28.5018 7.47035 28.7705L3.10987 33.1206C2.87534 33.3545 2.87534 33.7271 3.10987 33.9611C3.3444 34.1951 3.7179 34.1951 3.95243 33.9611L8.31291 29.611C8.36503 29.559 8.43452 29.5504 8.46926 29.5504C8.50401 29.5504 8.56481 29.5504 8.62561 29.611L10.3455 31.3268C10.4323 31.4135 10.4323 31.5521 10.3455 31.6388L3.30097 38.6665C3.2141 38.7531 3.07512 38.7531 2.98826 38.6665L1.27708 36.9594C1.19022 36.8727 1.19022 36.7341 1.27708 36.6474L1.99803 35.9282C2.23256 35.6942 2.23256 35.3216 1.99803 35.0876C1.76351 34.8537 1.39 34.8537 1.15547 35.0876L0.434516 35.8069C-0.121401 36.3615 -0.121401 37.254 0.434516 37.7999L2.1457 39.507C2.42366 39.7843 2.77979 39.923 3.14461 39.923C3.50943 39.923 3.86557 39.7843 4.14353 39.507L11.188 32.4793C11.5616 32.1067 11.6832 31.5694 11.5442 31.1015L14.3498 28.3025C15.7309 26.9247 20.2043 26.5781 21.8113 26.5608C22.2108 26.6301 22.6278 26.6821 23.0447 26.7167C23.3922 26.7427 23.7396 26.7601 24.0958 26.7601C26.1457 26.7601 28.2564 26.2748 30.263 25.3389C30.567 25.1916 30.6973 24.8277 30.5496 24.5244C30.4019 24.2384 30.0632 24.1171 29.7678 24.2557C27.5963 25.2696 25.3205 25.7115 23.149 25.5296C20.7776 25.3389 18.7016 24.4117 17.1381 22.8519C14.6538 20.3736 13.8113 16.5781 14.8536 12.6526C15.3748 12.3927 15.8612 12.0547 16.2868 11.6301C17.5464 10.3736 18.0501 8.63182 17.7896 6.99404C18.1457 6.56076 18.5192 6.13615 18.9275 5.73754C21.4725 3.19854 24.669 1.62142 27.9351 1.3008C31.149 0.980172 34.0502 1.92471 36.0827 3.96111C40.3216 8.18988 39.5225 15.8675 34.3021 21.0755C33.6593 21.7167 32.9731 22.2973 32.2434 22.8173C31.9828 22.9992 31.922 23.3632 32.0958 23.6318C32.2868 23.9178 32.669 23.9871 32.947 23.7878C33.7201 23.2332 34.4584 22.6093 35.1446 21.9247C37.8808 19.1951 39.5833 15.7462 39.9394 12.2193C40.2955 8.64915 39.2271 5.41691 36.934 3.12922L36.8905 3.10322ZM9.50292 10.7722C8.81671 10.0876 8.41714 9.22107 8.31291 8.32852C9.23365 8.44118 10.0849 8.84846 10.7624 9.5157C11.4399 10.1829 11.8482 11.0322 11.9524 11.9594C11.0317 11.8467 10.1718 11.4394 9.50292 10.7722ZM17.7374 24.897C18.1023 25.1483 18.4845 25.3736 18.884 25.5729C18.745 25.5902 18.6061 25.6076 18.4584 25.6336C17.8069 25.7289 17.2076 25.8415 16.6604 25.9715L17.7288 24.9056L17.7374 24.897ZM16.2695 23.6838C16.4345 23.8485 16.6082 24.0131 16.7906 24.1691L10.8232 30.1223L9.82431 29.1258L15.8004 23.1639C15.9568 23.3372 16.1131 23.5105 16.2782 23.6838H16.2695ZM15.0534 22.2107L13.985 23.2765C14.1153 22.7306 14.2282 22.1413 14.3238 21.4828C14.3411 21.3355 14.3672 21.1968 14.3846 21.0495C14.5844 21.4481 14.8102 21.8294 15.0621 22.202L15.0534 22.2107ZM15.4182 10.7722C14.7928 11.3961 14.0111 11.7947 13.1511 11.9334C13.0295 10.7029 12.491 9.56769 11.605 8.67515C10.719 7.7826 9.57241 7.254 8.33897 7.13268C8.47795 6.3008 8.86014 5.51223 9.50292 4.87099C10.1457 4.22974 10.9361 3.84846 11.77 3.70981C11.8916 4.94031 12.4215 6.07549 13.3162 6.96804C14.2108 7.86059 15.3487 8.38918 16.5822 8.5105C16.4432 9.33372 16.061 10.131 15.4182 10.7722ZM14.1587 6.12749C13.4899 5.46024 13.073 4.61102 12.9687 3.68381C13.8634 3.7878 14.732 4.18641 15.4182 4.87099C16.1044 5.55556 16.504 6.42211 16.6082 7.31466C15.6875 7.20201 14.8363 6.79473 14.1587 6.12749Z" fill="#0D4EE3"/>
</g>
<path d="M34.8409 5.14648C33.1732 3.4827 30.7671 2.71147 28.0657 2.9801C25.1905 3.26607 22.3675 4.66988 20.1004 6.92291C17.8333 9.18461 16.4262 12.0096 16.1482 14.8692C15.8789 17.5642 16.652 19.9645 18.3198 21.6283C19.7703 23.0754 21.7855 23.8467 24.0613 23.8467C24.4001 23.8467 24.7475 23.8293 25.095 23.7947C27.9701 23.5087 30.7932 22.1049 33.0603 19.8519C35.3274 17.5988 36.7345 14.7652 37.0125 11.9056C37.2817 9.21061 36.5087 6.81026 34.8409 5.14648ZM34.3979 6.42898C34.9365 7.08756 35.336 7.85012 35.5793 8.70801L33.8507 6.98357L34.3979 6.43764V6.42898ZM20.9951 13.3874L23.3664 11.0217L25.7378 13.3874L23.3664 15.7531L20.9951 13.3874ZM22.5152 16.5936L20.1439 18.9593L17.7725 16.5936L20.1439 14.2279L22.5152 16.5936ZM24.2003 10.1811L26.5717 7.81546L28.943 10.1811L26.5717 12.5468L24.2003 10.1811ZM26.5717 14.2279L28.943 16.5936L26.5717 18.9593L24.2003 16.5936L26.5717 14.2279ZM27.4142 13.3874L29.7856 11.0217L32.1569 13.3874L29.7856 15.7531L27.4142 13.3874ZM30.6281 10.1811L32.9994 7.81546L35.3708 10.1811L32.9994 12.5468L30.6281 10.1811ZM33.5467 5.58842L32.9994 6.13435L31.2709 4.40991C32.1221 4.65255 32.8952 5.05116 33.5467 5.58842ZM29.7856 4.61788L32.1569 6.98357L29.7856 9.34925L27.4142 6.98357L29.7856 4.61788ZM28.1786 4.16728C28.3176 4.14995 28.4479 4.14128 28.5869 4.13262L26.5803 6.13435L25.3035 4.86052C26.2416 4.4879 27.2144 4.25393 28.1786 4.15861V4.16728ZM24.1395 5.39778L25.7291 6.98357L23.3578 9.34925L21.3686 7.36485C22.2285 6.57629 23.158 5.91771 24.1395 5.40645V5.39778ZM20.5174 8.19674L22.5065 10.1811L20.1352 12.5468L18.5456 10.961C19.0581 9.98184 19.7182 9.05463 20.5087 8.19674H20.5174ZM17.3208 14.9905C17.4164 14.02 17.6596 13.0581 18.0244 12.1222L19.3013 13.396L17.2948 15.3978C17.2948 15.2678 17.3122 15.1291 17.3295 14.9905H17.3208ZM18.7454 20.3458C18.2068 19.6872 17.8159 18.9246 17.564 18.0668L19.2926 19.7912L18.7454 20.3371V20.3458ZM19.5879 21.1863L20.1352 20.6404L21.8637 22.3649C21.0125 22.1222 20.2394 21.7236 19.5879 21.1863ZM23.3491 22.1569L20.9777 19.7912L23.3491 17.4255L25.7204 19.7912L23.3491 22.1569ZM24.956 22.6075C24.817 22.6248 24.6867 22.6335 24.5478 22.6421L26.563 20.6404L27.8398 21.9142C26.9017 22.2869 25.9289 22.5208 24.9647 22.6162L24.956 22.6075ZM28.9951 21.377L27.4055 19.7912L29.7769 17.4255L31.766 19.4099C30.9061 20.1985 29.968 20.8571 28.9951 21.3683V21.377ZM32.6173 18.578L30.6281 16.5936L32.9994 14.2279L34.589 15.8137C34.0765 16.7929 33.4164 17.7201 32.6259 18.578H32.6173ZM35.8138 11.7843C35.7182 12.7548 35.475 13.7167 35.1102 14.6525L33.8333 13.3787L35.8485 11.3683C35.8485 11.4983 35.8312 11.6369 35.8138 11.7756V11.7843Z" fill="#0D4EE3"/>
</g>
<defs>
<clipPath id="clip0_477_26801">
<rect width="40" height="40" fill="white"/>
</clipPath>
</defs>
</svg>
