<svg width="96" height="96" viewBox="0 0 96 96" fill="none" xmlns="http://www.w3.org/2000/svg">
<g clip-path="url(#clip0_387_36976)">
<rect width="96" height="96" rx="48" fill="#F3C934"/>
<g clip-path="url(#clip1_387_36976)">
<mask id="mask0_387_36976" style="mask-type:luminance" maskUnits="userSpaceOnUse" x="21" y="21" width="54" height="55">
<path d="M75 21H21V75.129H75V21Z" fill="white"/>
</mask>
<g mask="url(#mask0_387_36976)">
<path d="M73.1003 38.1674C72.9362 37.757 72.4671 37.5576 72.0567 37.7335C71.658 37.8977 71.4821 38.355 71.6345 38.7537C73.37 43.1628 73.8274 47.9589 72.9596 52.6495C72.7603 53.7518 72.4788 54.8423 72.1388 55.8977C64.9622 49.0729 56.1674 44.183 46.6104 41.6736C47.5134 40.325 48.5453 39.0703 49.7179 37.9211C54.385 33.383 60.7759 31.0378 67.2606 31.4951C68.3394 32.7498 69.2892 34.0983 70.0984 35.529C70.3094 35.9042 70.7785 36.0449 71.1537 35.8456C71.5524 35.6345 71.6932 35.142 71.4821 34.755C70.286 32.6325 68.7967 30.6742 67.0612 28.9387C61.9603 23.8495 55.1824 21.0469 47.9707 21.0469C40.759 21.0469 33.9928 23.8495 28.9036 28.9505C23.8026 34.0397 21 40.8176 21 48.0176C21 55.2176 23.8026 61.9954 28.9036 67.0964C34.0046 72.1974 40.7003 74.9648 47.8534 75C54.7485 75.0351 61.4208 72.4084 66.4397 67.6827C70.6612 63.7075 73.4521 58.5948 74.4958 52.9309C75.4104 47.9472 74.9296 42.858 73.0886 38.1674H73.1003ZM65.7244 29.8651C59.357 29.8651 53.2007 32.3277 48.6039 36.7954C47.2202 38.1439 46.0007 39.6566 44.9687 41.2749C42.4945 40.7003 39.985 40.2899 37.4756 40.0436C39.3752 36.1036 41.955 32.5387 45.1329 29.4547C47.6658 26.9922 50.5153 24.9049 53.5876 23.2514C58.1375 24.2716 62.312 26.5348 65.7244 29.8651ZM47.9707 22.6299C49.0378 22.6299 50.0932 22.7003 51.1368 22.8293C48.5805 24.3772 46.2 26.2182 44.0306 28.329C40.5713 31.6944 37.8039 35.5876 35.7987 39.9146C34.1687 39.7974 32.5153 39.7505 30.8853 39.7739C31.2489 36.3498 31.155 32.9022 30.6274 29.4899C35.3414 25.0573 41.4743 22.6299 47.9707 22.6299ZM29.2202 30.897C29.5954 33.8521 29.6072 36.8423 29.2788 39.8091C27.4378 39.8794 25.5967 40.0436 23.7674 40.2899C24.8697 36.8306 26.7107 33.6293 29.2202 30.897ZM22.5831 48.0176C22.5831 45.942 22.8293 43.9133 23.3101 41.9433C25.2215 41.6619 27.1446 41.4742 29.0795 41.3921C28.2938 46.4579 26.4762 51.3479 23.7557 55.6749C22.9818 53.2358 22.5831 50.656 22.5831 48.0176ZM47.9824 73.4169C43.9134 73.4169 39.9967 72.4671 36.4671 70.6729C34.0632 64.7394 33.2189 58.2547 33.9928 51.8755C34.0397 51.4534 33.7466 51.0547 33.3244 50.9961C32.8906 50.9374 32.4801 51.2423 32.4215 51.6762C31.6827 57.6684 32.3394 63.7544 34.3094 69.4299C32.7733 68.4449 31.3427 67.2957 30.0176 65.9706C27.5668 63.5198 25.6788 60.6586 24.4241 57.5394C27.684 52.6964 29.83 47.1264 30.686 41.3452C32.1518 41.3218 33.641 41.3452 35.1186 41.4391C34.2508 43.5381 33.559 45.7309 33.0664 47.9589C32.9726 48.3928 33.2541 48.815 33.6879 48.9088C34.1101 48.9908 34.5205 48.7211 34.6143 48.299C35.1303 45.9889 35.8573 43.7374 36.7837 41.568C39.2463 41.7908 41.7088 42.1661 44.1362 42.7055C39.0821 52.0632 40.6534 63.7192 48.1349 71.4117C48.7915 72.0801 49.4834 72.725 50.2221 73.3231C49.4834 73.3817 48.7329 73.4169 47.9824 73.4169ZM65.9355 65.9824C62.2065 69.7114 57.5277 72.1387 52.4502 73.0299C51.3127 72.2208 50.2456 71.3062 49.2723 70.3094C42.1661 63.0156 40.759 51.899 45.7309 43.0807C55.4404 45.5316 64.3407 50.5153 71.5407 57.5159C70.2743 60.6586 68.3863 63.5316 65.9355 65.9706V65.9824Z" fill="#000C28"/>
</g>
<path d="M66.8273 41.0045C66.5107 40.8755 66.1237 40.9693 65.9126 41.239C65.7133 41.497 65.6781 41.8488 65.8423 42.1419C66.0065 42.4234 66.3582 42.5875 66.6749 42.5172C66.9915 42.4468 67.2377 42.2006 67.2964 41.8722C67.355 41.5087 67.1556 41.1452 66.8156 41.0045H66.8273Z" fill="#000C28"/>
<path d="M70.0507 39.7508C69.8748 39.4577 69.5113 39.3052 69.183 39.3873C68.8664 39.4694 68.6318 39.7391 68.5849 40.0557C68.538 40.3958 68.7374 40.7593 69.0657 40.8766C69.3706 41.0056 69.7341 40.9235 69.9569 40.6772C70.1914 40.4192 70.2266 40.0323 70.0507 39.7391V39.7508Z" fill="#000C28"/>
<path d="M70.4376 43.4203C70.3321 43.1037 70.0272 42.8809 69.6871 42.8809C69.3471 42.8809 69.0656 43.0802 68.9484 43.3851C68.8194 43.7252 68.9484 44.1239 69.2415 44.3232C69.5347 44.5226 69.9334 44.4991 70.1914 44.2646C70.4259 44.0535 70.5197 43.7134 70.4259 43.4203H70.4376Z" fill="#000C28"/>
<path d="M56.5537 69.536C56.2957 68.9027 55.3576 68.891 55.0879 69.536C54.9589 69.8409 55.041 70.2044 55.2872 70.4272C55.5452 70.6617 55.9439 70.6969 56.2371 70.5093C56.5654 70.3099 56.6827 69.8878 56.5419 69.536H56.5537Z" fill="#000C28"/>
<path d="M52.6503 66.4512C52.0992 65.9704 51.2197 66.4512 51.3487 67.1783C51.4073 67.5535 51.7474 67.8349 52.1344 67.8349C52.8497 67.8349 53.1897 66.9203 52.662 66.4512H52.6503Z" fill="#000C28"/>
<path d="M56.0498 66.5334C55.5808 65.9823 54.6427 66.3341 54.6544 67.0611C54.6544 67.4246 54.9358 67.7413 55.2876 67.8233C56.0147 67.9758 56.5189 67.0963 56.0381 66.5334H56.0498Z" fill="#000C28"/>
<path d="M59.8266 67.6948C59.5686 67.0733 58.6656 67.0499 58.3842 67.6714C58.2435 67.988 58.3256 68.3749 58.5953 68.6095C58.8415 68.8205 59.2051 68.8557 59.4865 68.6916C59.8266 68.5039 59.979 68.0583 59.8266 67.6948Z" fill="#000C28"/>
<path d="M27.0735 58.3602C26.8038 57.727 25.8775 57.7152 25.6077 58.3602C25.3263 59.0403 26.0768 59.697 26.71 59.3569C27.0618 59.1693 27.2143 58.7237 27.0618 58.3602H27.0735Z" fill="#000C28"/>
<path d="M53.4937 70.0636C53.2357 69.4421 52.3445 69.4186 52.0513 70.0284C51.9106 70.3215 51.9692 70.6733 52.1803 70.9079C52.4266 71.1658 52.8253 71.2362 53.1301 71.072C53.4937 70.8844 53.6344 70.4505 53.4937 70.0753V70.0636Z" fill="#000C28"/>
<path d="M29.1378 60.8925C28.868 60.2475 27.9299 60.2593 27.672 60.9159C27.543 61.2326 27.6485 61.6078 27.9182 61.8189C28.1762 62.0182 28.528 62.0417 28.8094 61.8775C29.1495 61.6782 29.2785 61.256 29.1378 60.8925Z" fill="#000C28"/>
</g>
</g>
<defs>
<clipPath id="clip0_387_36976">
<rect width="96" height="96" fill="white"/>
</clipPath>
<clipPath id="clip1_387_36976">
<rect width="54" height="54.129" fill="white" transform="translate(21 21)"/>
</clipPath>
</defs>
</svg>
