<svg width="41" height="40" viewBox="0 0 41 40" fill="none" xmlns="http://www.w3.org/2000/svg">
<g clip-path="url(#clip0_477_26823)">
<path d="M39.729 0.312669C39.5222 0.112142 39.2455 0 38.9574 0C38.6693 0 38.3926 0.112142 38.1858 0.312669L27.5899 10.4494C27.693 9.58732 27.538 8.71401 27.1448 7.93993C26.7515 7.16586 26.1375 6.52578 25.3805 6.10065C24.6234 5.67551 23.7573 5.4844 22.8916 5.55149C22.026 5.61858 21.1997 5.94085 20.5172 6.47756C19.8347 7.01426 19.3266 7.74129 19.0573 8.56672C18.788 9.39214 18.7695 10.2789 19.0041 11.1148C19.2387 11.9508 19.716 12.6984 20.3755 13.2631C21.035 13.8278 21.8472 14.1843 22.7093 14.2875C22.9998 14.3289 23.2948 14.3289 23.5853 14.2875L0.6837 36.2294C0.475548 36.4266 0.308277 36.6628 0.191439 36.9247C0.0746013 37.1866 0.0104841 37.4689 0.002748 37.7555C-0.00498814 38.0421 0.0438082 38.3275 0.146352 38.5953C0.248895 38.863 0.403177 39.108 0.600389 39.3162C0.797601 39.5243 1.03388 39.6916 1.29574 39.8084C1.55759 39.9253 1.8399 39.9894 2.12653 39.9971C2.41317 40.0048 2.69852 39.956 2.9663 39.8535C3.23408 39.751 3.47903 39.5967 3.68719 39.3995L3.77085 39.3158L22.2087 20.1271C22.1599 20.9502 22.3328 21.7713 22.7093 22.5049C21.542 22.4772 20.4115 22.9143 19.5666 23.7201C18.7216 24.5259 18.2314 25.6344 18.2037 26.8016C18.176 27.9689 18.6131 29.0994 19.4189 29.9443C20.2247 30.7893 21.3332 31.2795 22.5005 31.3072C24.9619 31.3902 26.922 29.4715 27.0057 27.0101C27.0057 26.2592 26.8391 25.4669 26.4636 24.7997C27.6278 24.8162 28.7519 24.3753 29.5944 23.5718C30.4369 22.7682 30.9304 21.6661 30.9689 20.5025C31.0518 18.0833 29.0917 16.081 26.6717 15.9973C26.49 15.9904 26.3081 16.0045 26.1297 16.0395L39.7705 1.85589C40.1874 1.43826 40.1459 0.729582 39.729 0.311954V0.312669ZM23.2098 6.36112C25.1707 6.36112 26.7554 7.94653 26.7554 9.94885C26.7645 10.3175 26.7081 10.6848 26.5888 11.0337C26.3936 10.4899 26.0927 9.99008 25.7034 9.56316C25.3141 9.13624 24.8441 8.79064 24.3206 8.54631C23.797 8.30198 23.2302 8.16375 22.653 8.13961C22.0757 8.11547 21.4994 8.20588 20.9572 8.40563C20.5204 8.56088 20.1117 8.78623 19.7473 9.07284C20.1649 7.48743 21.583 6.36112 23.2098 6.36112ZM20.4567 12.1593C20.0258 11.6178 19.7517 10.9685 19.6643 10.2821C19.955 9.91447 20.316 9.60839 20.7262 9.38173C21.1364 9.15506 21.5876 9.01233 22.0536 8.96188C22.5195 8.91142 22.9909 8.95425 23.4401 9.08785C23.8893 9.22145 24.3075 9.44316 24.6701 9.74004C25.3748 10.2786 25.8393 11.0729 25.963 11.9512L24.7953 13.0775C24.0759 13.4427 23.2532 13.5508 22.464 13.3838C21.6747 13.2167 20.9663 12.7846 20.4567 12.1593ZM3.18661 38.7737C3.06334 38.9113 2.91334 39.0222 2.74576 39.0998C2.57818 39.1774 2.39654 39.22 2.21193 39.2251C2.02733 39.2301 1.84363 39.1975 1.67206 39.1291C1.5005 39.0608 1.34466 38.9582 1.21408 38.8276C1.08349 38.697 0.980897 38.5412 0.91256 38.3696C0.844224 38.1981 0.81158 38.0144 0.816622 37.8298C0.821664 37.6452 0.864286 37.4635 0.941885 37.2959C1.01948 37.1283 1.13043 36.9783 1.26795 36.8551L9.31872 29.1376L10.9041 30.723L3.18661 38.7737ZM22.6263 30.4727C21.686 30.4727 20.7842 30.0991 20.1192 29.4342C19.4543 28.7693 19.0808 27.8675 19.0808 26.9271C19.0808 25.9868 19.4543 25.085 20.1192 24.4201C20.7842 23.7551 21.686 23.3816 22.6263 23.3816C23.7111 23.3816 24.7123 23.8407 25.3795 24.6745C25.6784 25.0347 25.9028 25.4507 26.0396 25.8984C26.1764 26.346 26.2228 26.8164 26.1762 27.2821C26.1297 27.7479 25.991 28.1997 25.7683 28.6114C25.5456 29.0231 25.2433 29.3865 24.8789 29.6803C24.2396 30.1921 23.4453 30.4715 22.6263 30.4727ZM26.5888 16.8733C28.5496 16.8733 30.135 18.4587 30.135 20.4611C30.135 22.4634 28.5496 24.0066 26.5473 24.0066C26.2951 23.9996 26.044 23.9716 25.7964 23.9229C25.2914 23.338 24.6234 22.917 23.8778 22.7137C23.5788 22.3535 23.3545 21.9375 23.2177 21.4898C23.0809 21.0422 23.0345 20.5718 23.081 20.1061C23.1276 19.6403 23.2663 19.1885 23.489 18.7768C23.7117 18.3651 24.014 18.0017 24.3783 17.7079C24.9834 17.1607 25.773 16.8626 26.5888 16.8733ZM24.4613 16.623C23.7085 17.0481 23.0988 17.687 22.7093 18.4587L11.4877 30.1387L9.90297 28.5533C22.2924 16.7067 34.056 5.40143 36.142 3.4413L36.6426 3.94188L24.4613 16.623ZM39.1455 1.27164L37.1854 3.31616L36.7263 2.85705L38.7701 0.896204C38.8952 0.812535 39.0618 0.812535 39.1455 0.937681C39.1859 0.983933 39.2081 1.04326 39.2081 1.10466C39.2081 1.16606 39.1859 1.22539 39.1455 1.27164Z" fill="#0D4EE3"/>
<path d="M14.66 20.8372C15.2352 20.8372 15.8048 20.7239 16.3362 20.5038C16.8676 20.2836 17.3505 19.961 17.7572 19.5543C18.164 19.1475 18.4866 18.6647 18.7067 18.1333C18.9268 17.6019 19.0401 17.0323 19.0401 16.4571V16.1653C18.915 13.7454 16.7875 11.9097 14.3683 12.077C13.2339 12.1538 12.1737 12.6681 11.4113 13.5116C10.6489 14.3551 10.2439 15.4617 10.2817 16.598C10.3196 17.7344 10.7973 18.8116 11.6141 19.6025C12.431 20.3933 13.5231 20.836 14.66 20.8372ZM11.9068 14.2459C12.1975 13.8783 12.5585 13.5722 12.9687 13.3456C13.3789 13.1189 13.8302 12.9762 14.2961 12.9257C14.7621 12.8753 15.2334 12.9181 15.6826 13.0517C16.1319 13.1853 16.55 13.407 16.9127 13.7039C17.6174 14.2425 18.0818 15.0368 18.2056 15.915V16.0816C16.9541 17.6249 14.743 17.8337 13.1998 16.5822C12.8347 16.3031 12.5313 15.9515 12.3088 15.5494C12.0863 15.1473 11.9494 14.7035 11.9068 14.2459ZM11.2811 15.3308C11.4763 15.8745 11.7773 16.3743 12.1666 16.8011C12.5559 17.228 13.0259 17.5736 13.5495 17.8179C14.073 18.0622 14.6397 18.2004 15.217 18.2246C15.7942 18.2488 16.3705 18.1585 16.9127 17.9588C17.3495 17.8036 17.7582 17.5782 18.1226 17.2916C17.6635 19.2103 15.7034 20.3366 13.8262 19.8782C11.949 19.4198 10.7805 17.4582 11.2396 15.5811C11.233 15.4955 11.2473 15.4096 11.2811 15.3308Z" fill="#0D4EE3"/>
<path d="M22.9593 24.5919C21.6664 24.5919 20.623 25.6346 20.623 26.886C20.623 28.1789 21.6657 29.2223 22.9171 29.2223C24.1686 29.2223 25.2534 28.1797 25.2534 26.9282C25.2623 26.6226 25.2093 26.3183 25.0977 26.0336C24.9861 25.7489 24.8182 25.4897 24.6039 25.2715C24.3897 25.0533 24.1336 24.8807 23.851 24.7639C23.5684 24.6471 23.2651 24.5886 22.9593 24.5919ZM22.9593 28.3878C22.1248 28.3878 21.4576 27.7206 21.4576 26.9275C21.4576 26.0937 22.1248 25.4258 22.9179 25.4258C23.3144 25.4313 23.6932 25.5913 23.9736 25.8717C24.254 26.1522 24.414 26.5309 24.4196 26.9275C24.4611 27.7206 23.7939 28.3878 22.9593 28.3878Z" fill="#0D4EE3"/>
</g>
<defs>
<clipPath id="clip0_477_26823">
<rect width="40.0636" height="40" fill="white"/>
</clipPath>
</defs>
</svg>
