<svg width="18" height="18" viewBox="0 0 18 18" fill="none" xmlns="http://www.w3.org/2000/svg">
<g clip-path="url(#clip0)">
<path d="M4.65556 4.33522C5.77797 3.28814 7.23937 2.67797 8.77609 2.62524V0C6.54257 0.0489642 4.41074 0.934086 2.79492 2.47458L4.65556 4.33522Z" fill="white"/>
<path d="M4.33522 4.65535L2.47458 2.79471C0.934086 4.41053 0.0489642 6.54235 0 8.77211H2.62524C2.67797 7.23915 3.28437 5.77399 4.33522 4.65535Z" fill="white"/>
<path d="M2.62524 9.22412H0C0.0489642 11.4576 0.934087 13.5895 2.47458 15.2015L4.33145 13.3446C3.28437 12.2222 2.67797 10.7608 2.62524 9.22412Z" fill="white"/>
<path d="M15.201 2.47458C13.589 0.934086 11.4572 0.0489642 9.22363 0V2.62524C10.7566 2.67797 12.2217 3.28437 13.3442 4.33522L15.201 2.47458Z" fill="white"/>
<path d="M13.665 4.65537C14.7121 5.77778 15.3223 7.23917 15.375 8.77589H18.0003C17.9513 6.54237 17.0662 4.41055 15.5257 2.79849L13.665 4.65537Z" fill="white"/>
<path d="M2.79492 15.5217C4.40697 17.0659 6.5388 17.9473 8.77232 17.9962V15.371C7.23937 15.3183 5.77421 14.7119 4.6518 13.661L2.79492 15.5217Z" fill="white"/>
<path d="M9.22363 15.371V17.9962C11.4572 17.9473 13.589 17.0622 15.201 15.5217L13.3442 13.6648C12.2217 14.7119 10.7604 15.3183 9.22363 15.371Z" fill="white"/>
<path d="M13.665 13.3446L15.5219 15.2015C17.0662 13.5895 17.9475 11.4576 17.9965 9.22412H15.3713C15.3185 10.7608 14.7121 12.2222 13.665 13.3446Z" fill="white"/>
<path d="M8.9981 3.7627C6.10544 3.7627 3.7627 6.10544 3.7627 8.9981C3.7627 11.8908 6.10544 14.2335 8.9981 14.2335C11.8908 14.2335 14.2335 11.8908 14.2335 8.9981C14.2297 6.10921 11.8908 3.76646 8.9981 3.7627ZM9.18642 5.27305L11.0056 4.54612C11.2128 4.64028 11.4124 4.74575 11.6045 4.87004L11.6083 4.87381C11.7966 4.99433 11.9774 5.12616 12.1469 5.26929L12.1619 5.28059C12.2373 5.34462 12.3126 5.41241 12.3842 5.48398C12.3917 5.49151 12.403 5.50281 12.4105 5.51034C12.4859 5.58567 12.5612 5.661 12.629 5.7401C12.6365 5.74763 12.6403 5.75516 12.6478 5.75893C12.7118 5.83049 12.7683 5.90206 12.8286 5.97362C12.8437 5.99245 12.855 6.00752 12.87 6.02635C12.9341 6.10921 12.9943 6.19207 13.0508 6.27494L12.6892 7.81543L10.9039 8.41053L9.18266 7.03576L9.18642 5.27305ZM5.12616 6.02635C5.14123 6.00752 5.15253 5.99245 5.16759 5.97362C5.22409 5.90206 5.28435 5.83049 5.34462 5.75893C5.35215 5.7514 5.35592 5.74386 5.36345 5.73633C5.43501 5.65723 5.50657 5.5819 5.5819 5.50657C5.58944 5.49904 5.60074 5.48774 5.60827 5.48021C5.67983 5.41241 5.75516 5.34462 5.83049 5.28059L5.84932 5.26552C6.01882 5.12239 6.19584 4.99057 6.38416 4.87381L6.3917 4.87004C6.58379 4.74951 6.77964 4.64028 6.9868 4.54989L8.81354 5.27305V7.03576L7.09226 8.41053L5.30695 7.81543L4.94537 6.27494C5.00187 6.18831 5.06213 6.10544 5.12616 6.02635ZM4.91524 11.6761C4.86251 11.597 4.81354 11.5179 4.76834 11.4388L4.75705 11.4199C4.71185 11.3409 4.66665 11.258 4.62522 11.1751V11.1714C4.53859 10.9943 4.45949 10.8135 4.39546 10.629C4.36533 10.5424 4.3352 10.452 4.30883 10.3616L4.29754 10.3277C4.27494 10.2448 4.25234 10.1582 4.23351 10.0715C4.23351 10.064 4.22974 10.0565 4.22974 10.0452C4.18831 9.84932 4.15441 9.65347 4.13934 9.45384L5.20526 8.17701L6.97927 8.76834L7.49528 10.8248L6.65158 11.951L4.91524 11.6761ZM10.1619 13.7439C10.0753 13.7665 9.98492 13.7853 9.89452 13.8004C9.88322 13.8041 9.86816 13.8041 9.85686 13.8079C9.78153 13.823 9.70243 13.8343 9.6271 13.8418C9.60827 13.8456 9.58567 13.8456 9.56684 13.8493C9.49528 13.8569 9.42371 13.8644 9.34838 13.8682C9.32578 13.8682 9.30318 13.8719 9.28059 13.8719C9.18642 13.8795 9.09603 13.8795 9.00187 13.8795C8.91524 13.8795 8.82861 13.8757 8.74575 13.8719C8.73445 13.8719 8.72691 13.8719 8.71561 13.8682C8.64028 13.8644 8.56495 13.8569 8.48962 13.8493H8.48209C8.31637 13.8305 8.15441 13.8041 7.98868 13.7702L6.95667 12.1544L7.78906 11.0433H10.2222L11.0697 12.1619L10.1619 13.7439ZM13.7702 10.0452C13.7702 10.0527 13.7665 10.0602 13.7665 10.0715C13.7476 10.1582 13.725 10.2448 13.7024 10.3277L13.6949 10.3616C13.6685 10.452 13.6422 10.5424 13.6083 10.629C13.5442 10.8135 13.4651 10.9943 13.3785 11.1714V11.1751C13.3371 11.258 13.2919 11.3409 13.2467 11.4199L13.2354 11.4388C13.1902 11.5216 13.1412 11.6007 13.0885 11.6761L11.3672 11.9473L10.516 10.8248L11.032 8.76834L12.806 8.17701L13.8719 9.45384C13.8456 9.65347 13.8154 9.84932 13.7702 10.0452Z" fill="white"/>
</g>
<defs>
<clipPath id="clip0">
<rect width="18" height="18" fill="white"/>
</clipPath>
</defs>
</svg>
