<svg width="40" height="40" viewBox="0 0 40 40" fill="none" xmlns="http://www.w3.org/2000/svg">
<g clip-path="url(#clip0_477_26817)">
<path d="M22.5759 26.8018L23.2255 6.47152L23.2329 6.26507L21.6358 3.87097H20.6456V0H19.3553V3.87097H18.365L16.768 6.26507L17.4109 26.8144C16.5262 27.6321 13.5488 30.6927 13.5488 34.838C13.5488 39.1255 15.8279 39.9336 15.9252 39.9661L16.0248 39.9993H17.1064L19.7144 36.3488L20.0004 37.4983L20.2873 36.3502L22.8937 39.9993H23.9754L24.0749 39.9661C24.173 39.9336 26.4521 39.1255 26.4521 34.838C26.4521 30.6736 23.4445 27.6018 22.5759 26.8011V26.8018ZM18.7072 27.0046L18.3046 14.1935H21.6963L21.2937 27.0046L20.0004 32.1784L18.7072 27.0046ZM20.6456 11.61V7.73899H21.8954L21.7339 12.9003H18.2685L18.107 7.73899H19.3568V11.61H20.6456ZM19.0552 5.15834H20.9457L21.8054 6.44866H18.1925L19.0552 5.15834ZM16.4421 38.7067H16.2681C15.9555 38.5349 14.8392 37.7202 14.8392 34.8358C14.8392 31.8865 16.6581 29.4865 17.7236 28.334L19.3051 34.6986L16.4421 38.7067ZM23.735 38.7067H23.558L20.698 34.7023L22.2862 28.348C23.3531 29.5056 25.1617 31.8968 25.1617 34.8365C25.1617 37.7416 24.0292 38.5467 23.735 38.7075V38.7067Z" fill="#0D4EE3"/>
<path d="M36.1248 26.8018L36.7743 6.47152L36.7817 6.26507L35.1847 3.87097H34.1944V0H32.9041V3.87097H31.9139L30.3168 6.26507L30.9598 26.8144C30.075 27.6321 27.0977 30.6927 27.0977 34.838C27.0977 39.1255 29.3767 39.9336 29.4741 39.9661L29.5736 39.9993H30.6553L33.2632 36.3488L33.5493 37.4983L33.8361 36.3502L36.4433 39.9993H37.5249L37.6245 39.9661C37.7225 39.9336 40.0016 39.1255 40.0016 34.838C40.0016 30.6736 36.9941 27.6018 36.1255 26.8011L36.1248 26.8018ZM32.256 27.0046L31.8564 14.1906H35.2429L34.8425 27.0046L33.5493 32.1755L32.256 27.0046ZM34.1944 11.6129V7.74194H35.4479L35.2864 12.9032H31.821L31.6595 7.74194H32.9041V11.6129H34.1944ZM32.604 5.16129H34.4945L35.3542 6.45161H31.7413L32.604 5.16129ZM29.9909 38.7097H29.8169C29.5043 38.5379 28.388 37.7231 28.388 34.8387C28.388 31.8894 30.207 29.4894 31.2724 28.337L32.854 34.7016L29.9909 38.7097ZM37.2838 38.7097H37.1069L34.2468 34.7053L35.8365 28.348C36.9034 29.5056 38.712 31.8968 38.712 34.8365C38.712 37.7416 37.5795 38.5467 37.2853 38.7075L37.2838 38.7097Z" fill="#0D4EE3"/>
<path d="M9.0271 26.8018L9.67742 6.47152L9.68479 6.26507L8.087 3.87097H7.09677V0H5.80645V3.87097H4.81622L3.21917 6.26507L3.86212 26.8144C2.97733 27.6321 0 30.6927 0 34.838C0 39.1255 2.27908 39.9336 2.37641 39.9661L2.47594 39.9993H3.5576L6.16553 36.3488L6.45161 37.4983L6.73843 36.3502L9.34488 39.9993H10.4265L10.5261 39.9661C10.6241 39.9336 12.9032 39.1255 12.9032 34.838C12.9032 30.6736 9.89567 27.6018 9.0271 26.8011V26.8018ZM5.15834 27.0046L4.75871 14.1906H8.14525L7.74488 27.0046L6.45161 32.1755L5.15834 27.0046ZM7.09677 11.6129V7.74194H8.35023L8.18875 12.9032H4.72332L4.56184 7.74194H5.80645V11.6129H7.09677ZM5.50636 5.16129H7.39687L8.25659 6.45161H4.64369L5.50636 5.16129ZM2.89401 38.7097H2.72C2.40737 38.5379 1.29106 37.7231 1.29106 34.8387C1.29106 31.8894 3.11005 29.4894 4.17548 28.337L5.75705 34.7016L2.89401 38.7097ZM10.1869 38.7097H10.01L7.14986 34.7053L8.73954 28.348C9.80645 29.5056 11.6151 31.8968 11.6151 34.8365C11.6151 37.7416 10.4826 38.5467 10.1884 38.7075L10.1869 38.7097Z" fill="#0D4EE3"/>
</g>
<defs>
<clipPath id="clip0_477_26817">
<rect width="40" height="39.9993" fill="white"/>
</clipPath>
</defs>
</svg>
