<svg width="34" height="34" viewBox="0 0 34 34" fill="none" xmlns="http://www.w3.org/2000/svg">
<g clip-path="url(#clip0_288_5424)">
<path d="M17 34.0001C26.3888 34.0001 34 26.3889 34 17.0001C34 7.61122 26.3888 0 17 0C7.61116 0 0 7.61122 0 17.0001C0 26.3889 7.61116 34.0001 17 34.0001Z" fill="#FFBD13"/>
<path d="M19.8165 33.7618C19.8407 33.7591 19.865 33.7564 19.8892 33.7535C20.4477 33.6568 21.0011 33.5321 21.5472 33.38C22.0933 33.2285 22.6315 33.0498 23.1597 32.8446C23.6883 32.6396 24.2064 32.4083 24.7119 32.1515C25.2169 31.894 25.7086 31.6114 26.1853 31.3048C26.6622 30.9988 27.1234 30.6691 27.5674 30.317C28.0112 29.965 28.4371 29.591 28.8436 29.1964C29.2509 28.801 29.638 28.3854 30.0037 27.9513C30.3683 27.5184 30.7112 27.0675 31.0309 26.6003C31.351 26.1319 31.6474 25.6478 31.9191 25.1498C32.1907 24.6526 32.4372 24.1422 32.6578 23.6204C32.8787 23.0985 33.0733 22.5659 33.241 22.0245C33.4088 21.4827 33.5494 20.9328 33.6622 20.3768C33.7745 19.8218 33.859 19.2615 33.9154 18.698C33.9721 18.1339 34.0004 17.5674 34.0005 17.0005C33.9977 16.9105 33.9943 16.8206 33.9901 16.7307L29.3251 12.0657L27.2706 12.626L24.5168 9.87219C24.4031 9.75843 24.279 9.65469 24.1599 9.54639C24.0877 9.48067 24.0182 9.41289 23.9441 9.34924C23.6245 9.07488 23.2901 8.8191 22.9376 8.58557C22.8809 8.54803 22.8208 8.51617 22.7633 8.47974C22.4529 8.28298 22.1306 8.10512 21.7983 7.94226C21.7043 7.89615 21.6118 7.84857 21.5161 7.8053C21.1233 7.62764 20.7201 7.46775 20.3021 7.34045C20.0268 7.2566 19.7466 7.18731 19.4617 7.12671C19.3841 7.1102 19.3054 7.09786 19.2272 7.08313C18.992 7.03884 18.7541 7.00098 18.5133 6.97314C18.4339 6.96396 18.3547 6.95559 18.2747 6.94824C17.9637 6.91969 17.6491 6.89844 17.3304 6.89844C11.7635 6.89844 7.23047 11.4335 7.23047 17.0005C7.23047 19.784 8.36437 22.3097 10.1938 24.1392L19.8165 33.7618Z" fill="#C17042"/>
<path d="M17.3319 6.89844C11.7649 6.89844 7.23047 11.4329 7.23047 16.9998C7.23047 22.5668 11.7649 27.1012 17.3319 27.1012C22.9562 27.1012 27.4893 22.5668 27.4893 16.9998C27.4893 16.6714 27.4715 16.347 27.4407 16.0264L30.187 15.2774L29.2099 13.8427L29.3257 12.0641L26.5683 12.8169C24.9699 9.33243 21.4472 6.89844 17.3319 6.89844H17.3319ZM17.3319 8.85081C20.9463 8.85081 24.0081 11.1884 25.1036 14.4031L23.2167 14.9131C22.3508 12.5093 20.0396 10.8011 17.33 10.8011C13.9439 10.8011 11.1331 13.5564 11.1331 16.9998C11.1331 20.4433 13.9458 23.1986 17.3319 23.1986C20.7763 23.1986 23.5866 20.4433 23.5866 16.9998C23.5866 16.6006 23.5449 16.2117 23.4726 15.8341L25.3614 15.3223C25.4767 15.8646 25.5389 16.4248 25.5389 16.9998C25.5389 21.5337 21.8658 25.149 17.3319 25.149C12.8553 25.149 9.18088 21.5347 9.18088 16.9998C9.18088 12.5233 12.8553 8.85081 17.3319 8.85081ZM17.3319 12.7535C19.1324 12.7535 20.6557 13.8651 21.2756 15.4399L19.3645 15.9574C18.982 15.2177 18.2177 14.7038 17.3319 14.7038C16.0702 14.7038 15.0937 15.7373 15.0937 16.9998C15.0937 18.2625 16.0702 19.2959 17.3319 19.2959C18.5945 19.2959 19.6279 18.2625 19.6279 16.9998C19.6279 16.9584 19.6183 16.9202 19.6167 16.8804L21.5148 16.3665C21.546 16.5749 21.5784 16.7826 21.5784 16.9998C21.5784 19.3529 19.685 21.2463 17.3319 21.2463C15.0372 21.2463 13.0855 19.3529 13.0855 16.9998C13.0855 14.6468 15.0372 12.7535 17.3319 12.7535H17.3319ZM17.3319 16.3703C17.4451 16.3703 17.5416 16.3927 17.6289 16.4277L17.4365 16.4797C17.3743 16.4947 17.3158 16.522 17.2644 16.56C17.2129 16.598 17.1697 16.646 17.1371 16.701C17.1045 16.756 17.0833 16.817 17.0747 16.8804C17.0661 16.9438 17.0703 17.0083 17.087 17.07C17.1037 17.1317 17.1327 17.1894 17.1721 17.2398C17.2116 17.2901 17.2607 17.332 17.3166 17.363C17.3726 17.394 17.4341 17.4135 17.4977 17.4203C17.5613 17.4271 17.6256 17.4212 17.6868 17.4027L17.8606 17.3559C17.7543 17.5268 17.573 17.6286 17.3319 17.6286C17.0794 17.6286 16.7583 17.3595 16.7583 16.9991C16.7583 16.7075 16.9648 16.3695 17.3319 16.3695V16.3703Z" fill="white"/>
</g>
<defs>
<clipPath id="clip0_288_5424">
<rect width="34" height="34" fill="white"/>
</clipPath>
</defs>
</svg>
