<svg width="64" height="65" viewBox="0 0 64 65" fill="none" xmlns="http://www.w3.org/2000/svg">
<g clip-path="url(#clip0_387_24916)">
<path fill-rule="evenodd" clip-rule="evenodd" d="M16.5332 58.0432C16.5332 58.6324 17.0107 59.1099 17.5999 59.1099H41.0666C41.6557 59.1099 42.1332 58.6324 42.1332 58.0432C42.1332 57.4541 41.6557 56.9766 41.0666 56.9766H17.5999C17.0107 56.9766 16.5332 57.4542 16.5332 58.0432Z" fill="white"/>
<path fill-rule="evenodd" clip-rule="evenodd" d="M15.467 40.9765C16.0561 40.9765 16.5337 40.4989 16.5337 39.9098C16.5337 39.3206 16.0561 38.8431 15.467 38.8431H14.8494L17.4094 35.1876C17.6374 34.8615 17.665 34.4356 17.4808 34.0829C17.2968 33.7302 16.9316 33.5092 16.5337 33.5098H8.00028C7.41113 33.5098 6.93359 33.9873 6.93359 34.5765C6.93359 35.1656 7.41113 35.6431 8.00028 35.6431H14.4856L12.2455 38.8431H9.06697C8.47781 38.8431 8.00028 39.3206 8.00028 39.9098C8.00028 40.4989 8.47781 40.9765 9.06697 40.9765H10.7512L8.19119 44.6319C7.95879 44.9436 7.91446 45.357 8.07525 45.7109C8.23615 46.0649 8.5768 46.3033 8.9644 46.3331C9.35201 46.3629 9.72519 46.1795 9.93832 45.8544L13.3559 40.9765H15.467Z" fill="white"/>
<path fill-rule="evenodd" clip-rule="evenodd" d="M25.0669 35.6431H31.5522L29.3122 38.8431H26.1335C25.5443 38.8431 25.0668 39.3206 25.0668 39.9098C25.0668 40.4989 25.5443 40.9765 26.1335 40.9765H27.8177L25.2577 44.6319C25.0253 44.9436 24.981 45.357 25.1418 45.7109C25.3027 46.0649 25.6433 46.3033 26.0309 46.3331C26.4185 46.3629 26.7917 46.1795 27.0048 45.8544L30.4224 40.9765H32.5334C33.1225 40.9765 33.6001 40.4989 33.6001 39.9098C33.6001 39.3206 33.1225 38.8431 32.5334 38.8431H31.9158L34.4758 35.1876C34.7038 34.8615 34.7314 34.4356 34.5472 34.0829C34.3632 33.7302 33.998 33.5092 33.6001 33.5098H25.0667C24.4775 33.5098 24 33.9873 24 34.5765C24 35.1656 24.4778 35.6431 25.0669 35.6431Z" fill="white"/>
<path fill-rule="evenodd" clip-rule="evenodd" d="M41.0674 34.5765C41.0674 35.1656 41.5449 35.6431 42.1341 35.6431H48.6194L46.3793 38.8431H43.2006C42.6115 38.8431 42.134 39.3206 42.134 39.9098C42.134 40.4989 42.6115 40.9765 43.2006 40.9765H44.8849L42.3249 44.6319C42.0925 44.9436 42.0481 45.357 42.2089 45.7109C42.3698 46.0649 42.7105 46.3033 43.0981 46.3331C43.4857 46.3629 43.8589 46.1795 44.072 45.8544L47.4896 40.9765H49.6006C50.1897 40.9765 50.6672 40.4989 50.6672 39.9098C50.6672 39.3206 50.1897 38.8431 49.6006 38.8431H48.983L51.543 35.1876C51.771 34.8615 51.7986 34.4356 51.6144 34.0829C51.4302 33.7303 51.0652 33.5092 50.6672 33.5098H42.1339C41.5449 33.5098 41.0674 33.9873 41.0674 34.5765Z" fill="white"/>
<path d="M57.0669 0.443465C55.3929 0.435146 53.8702 1.41127 53.1792 2.93601C52.488 4.46075 52.7573 6.24927 53.867 7.50276V16.4435H52.8003C52.8003 15.2653 51.8451 14.3102 50.6669 14.3102H48.5335V7.91006C48.5288 3.78831 45.1887 0.448098 41.0668 0.443359H17.6003C13.4785 0.448098 10.1383 3.7882 10.1336 7.91006V27.1101H5.86695C4.09959 27.1101 2.66699 28.5428 2.66699 30.31V49.5101C2.66699 51.2774 4.0997 52.71 5.86695 52.71H10.1336V56.9767C10.1383 61.0984 13.4784 64.4386 17.6003 64.4434H41.067C45.1887 64.4386 48.5289 61.0985 48.5336 56.9767V52.71H52.8003C54.5676 52.71 56.0002 51.2773 56.0002 49.5101V30.3101C56.0002 28.5428 54.5675 27.1102 52.8003 27.1102H48.5336V24.9768H50.667C51.8452 24.9768 52.8004 24.0216 52.8004 22.8435H54.9338C57.8778 22.84 60.2636 20.4542 60.2671 17.5101V7.50265C61.3767 6.24916 61.6461 4.46065 60.9549 2.93591C60.2636 1.41127 58.741 0.435041 57.0669 0.443465ZM57.0669 2.57673C58.2451 2.57673 59.2003 3.5319 59.2003 4.7101C59.2003 5.8883 58.2451 6.84348 57.0669 6.84348C55.8887 6.84348 54.9336 5.8883 54.9336 4.7101C54.9336 3.5319 55.8887 2.57673 57.0669 2.57673ZM39.4915 2.57673L38.7448 4.4359C38.4236 5.24661 37.6392 5.77837 36.7671 5.77668H21.9C21.0267 5.77974 20.2408 5.24766 19.9192 4.4359L19.1758 2.57673H39.4915ZM4.80026 49.5101V30.3101C4.80026 29.721 5.27779 29.2435 5.86695 29.2435H19.7337V50.5768H5.86695C5.27779 50.5768 4.80026 50.0992 4.80026 49.5101ZM36.8002 50.5768H21.8669V29.2435H36.8003L36.8002 50.5768ZM46.4003 56.9768C46.3967 59.9208 44.011 62.3066 41.067 62.3101H17.6003C14.6562 62.3065 12.2704 59.9208 12.267 56.9768V52.7101H46.4003V56.9768ZM53.867 30.3101V49.5102C53.867 50.0993 53.3894 50.5769 52.8003 50.5769H38.9336V29.2435H52.8003C53.3893 29.2435 53.867 29.721 53.867 30.3101ZM37.8669 27.1101H12.2669V7.91006C12.2752 5.24092 14.2588 2.99045 16.9058 2.64707L17.9384 5.22839C18.5819 6.85179 20.1537 7.91574 21.9 7.90995H36.7671C38.5134 7.91574 40.0852 6.85179 40.7287 5.22839L41.7613 2.64707C44.4083 2.99035 46.392 5.24081 46.4003 7.91006V27.1101H37.8669ZM48.5336 22.8435V16.4434H50.667V17.5101V22.8435H48.5336ZM54.9336 20.7101H52.8002V18.5767H54.9336C55.5227 18.5767 56.0002 18.0992 56.0002 17.51V8.82532C56.697 9.02729 57.4368 9.02729 58.1336 8.82532V17.5101C58.1336 19.2774 56.7009 20.7101 54.9336 20.7101Z" fill="white"/>
<path d="M26.1339 16.443H25.0672V12.1763C25.0672 10.9981 24.112 10.043 22.9338 10.043H20.8005C19.6223 10.043 18.6671 10.9981 18.6671 12.1763V16.443H17.6004C16.7657 16.4373 16.006 16.9239 15.6623 17.6846C15.3024 18.4686 15.4502 19.3922 16.0367 20.0249L20.249 24.2297C20.6536 24.7027 21.2446 24.9754 21.8671 24.9764C22.4624 24.9828 23.0319 24.7334 23.4309 24.2916L27.7561 19.963C28.2976 19.3301 28.421 18.4399 28.0724 17.6834C27.7239 16.9268 26.9668 16.4425 26.1339 16.443ZM21.9227 22.7833C21.9067 22.7972 21.8587 22.7769 21.83 22.7769C21.8232 22.7758 21.8164 22.7782 21.8119 22.7833L17.6006 18.5764H19.734C20.3231 18.5764 20.8007 18.0988 20.8007 17.5097V12.1763H22.934V17.5097C22.934 18.0988 23.4116 18.5764 24.0007 18.5764L26.1895 18.5166L21.9227 22.7833Z" fill="white"/>
<path d="M41.0665 16.443H39.9998V12.1763C39.9998 10.9981 39.0447 10.043 37.8665 10.043H35.7331C34.5549 10.043 33.5997 10.9981 33.5997 12.1763V16.443H32.533C31.6984 16.4375 30.9389 16.9241 30.5949 17.6846C30.2351 18.4686 30.3828 19.3922 30.9693 20.0249L35.1773 24.2297C35.5829 24.7038 36.1758 24.9767 36.7997 24.9764C37.395 24.9829 37.9645 24.7335 38.3634 24.2916L42.6844 19.963C43.2254 19.3306 43.3492 18.4415 43.0016 17.6853C42.6542 16.9291 41.8987 16.4441 41.0665 16.443ZM36.8532 22.7833C36.8371 22.7972 36.7891 22.7769 36.7604 22.7769C36.7536 22.776 36.7469 22.7783 36.7423 22.7833L32.5332 18.5764H34.6666C35.2558 18.5764 35.7333 18.0988 35.7333 17.5097V12.1763H37.8667V17.5097C37.8667 18.0988 38.3442 18.5764 38.9334 18.5764L41.1221 18.5166L36.8532 22.7833Z" fill="white"/>
</g>
<defs>
<clipPath id="clip0_387_24916">
<rect width="64" height="64" fill="white" transform="translate(0 0.443359)"/>
</clipPath>
</defs>
</svg>
