<svg width="49" height="54" viewBox="0 0 49 54" fill="none" xmlns="http://www.w3.org/2000/svg">
<circle opacity="0.2" cx="24.334" cy="24.6387" r="24" fill="#F3C934"/>
<circle cx="24.3337" cy="25.4255" r="11.4098" fill="#F3C934"/>
<g clip-path="url(#clip0_387_36361)">
<path d="M27.8754 34.6855V28.6977C27.8863 27.8441 27.5967 27.0139 27.0573 26.3523C26.5178 25.6908 25.7629 25.24 24.9246 25.0788C24.4168 24.993 23.8963 25.019 23.3995 25.1549C22.9028 25.2909 22.4416 25.5337 22.0483 25.8662C21.655 26.1987 21.3389 26.613 21.1222 27.0803C20.9055 27.5475 20.7933 28.0564 20.7935 28.5714V37.5195L15.9293 42.3057C15.2655 42.9697 14.8926 43.8702 14.8926 44.8092C14.8926 45.7481 15.2655 46.6486 15.9293 47.3127L21.9738 53.3583H39.6787V37.0462L27.8754 34.6855ZM37.3181 50.9976H22.9511L17.5983 45.6437C17.3782 45.4236 17.254 45.1254 17.2527 44.8142C17.2514 44.5029 17.3731 44.2038 17.5912 43.9818L20.7935 40.8315V45.096H23.1541V28.5714C23.1539 28.3988 23.1915 28.2282 23.2643 28.0717C23.3372 27.9152 23.4435 27.7765 23.5757 27.6656C23.708 27.5546 23.8629 27.474 24.0297 27.4294C24.1965 27.3848 24.371 27.3774 24.541 27.4076C24.8269 27.478 25.0798 27.6447 25.2571 27.8796C25.4345 28.1146 25.5255 28.4035 25.5148 28.6977V36.6212L37.3181 38.9819V50.9976Z" fill="#000C28"/>
</g>
<defs>
<clipPath id="clip0_387_36361">
<rect width="28.3279" height="28.3279" fill="white" transform="translate(13.7109 25.0312)"/>
</clipPath>
</defs>
</svg>
