<svg width="70" height="70" viewBox="0 0 70 70" fill="none" xmlns="http://www.w3.org/2000/svg">
<g clip-path="url(#clip0)">
<rect y="3" width="70" height="70" fill="white"/>
<path d="M52.1429 7H17.8571C16.2835 7 15 8.25781 15 9.8V60.2C15 61.7422 16.2835 63 17.8571 63H52.1429C53.7165 63 55 61.7422 55 60.2V9.8C55 8.25781 53.7165 7 52.1429 7ZM53.0915 60.2C53.0915 60.7141 52.6674 61.1297 52.1429 61.1297H17.8571C17.3326 61.1297 16.9085 60.7141 16.9085 60.2V20.0703H53.1027L53.0915 60.2ZM53.0915 18.2H16.9085V9.8C16.9085 9.28594 17.3326 8.87031 17.8571 8.87031H52.1429C52.6674 8.87031 53.0915 9.28594 53.0915 9.8V18.2Z" fill="#26D6FE"/>
<path d="M21.6628 10.7305C20.0891 10.7305 18.8057 11.9883 18.8057 13.5305C18.8057 15.0727 20.0891 16.3305 21.6628 16.3305C23.2365 16.3305 24.52 15.0727 24.52 13.5305C24.52 11.9883 23.2476 10.7305 21.6628 10.7305ZM21.6628 14.4711C21.1383 14.4711 20.7141 14.0555 20.7141 13.5414C20.7141 13.0273 21.1383 12.6117 21.6628 12.6117C22.1874 12.6117 22.6115 13.0273 22.6115 13.5414C22.6115 14.0555 22.1874 14.4711 21.6628 14.4711Z" fill="#26D6FE"/>
<path d="M42.6229 12.6016H27.3774C26.8528 12.6016 26.4287 13.0172 26.4287 13.5312C26.4287 14.0453 26.8528 14.4609 27.3774 14.4609H42.6118C43.1363 14.4609 43.5604 14.0453 43.5604 13.5312C43.5604 13.0172 43.1475 12.6016 42.6229 12.6016Z" fill="#26D6FE"/>
<path d="M50.2345 10.7305H47.3774C46.8528 10.7305 46.4287 11.1461 46.4287 11.6602C46.4287 12.1742 46.8528 12.5898 47.3774 12.5898H50.2345C50.7591 12.5898 51.1832 12.1742 51.1832 11.6602C51.1832 11.1461 50.7591 10.7305 50.2345 10.7305Z" fill="#26D6FE"/>
<path d="M50.2345 13.5293H47.3774C46.8528 13.5293 46.4287 13.9449 46.4287 14.459C46.4287 14.973 46.8528 15.3887 47.3774 15.3887H50.2345C50.7591 15.3887 51.1832 14.973 51.1832 14.459C51.1832 13.9449 50.7591 13.5293 50.2345 13.5293Z" fill="#26D6FE"/>
<path d="M35.0001 38.7297C39.7323 38.7297 43.5716 34.9672 43.5716 30.3297C43.5716 25.6922 39.7323 21.9297 35.0001 21.9297C30.268 21.9297 26.4287 25.6922 26.4287 30.3297C26.4399 34.9672 30.268 38.7297 35.0001 38.7297ZM35.0001 23.8C38.6832 23.8 41.6631 26.7203 41.6631 30.3297C41.6631 33.9391 38.6832 36.8594 35.0001 36.8594C31.3171 36.8594 28.3372 33.9391 28.3372 30.3297C28.3372 26.7313 31.3171 23.8 35.0001 23.8Z" fill="#26D6FE"/>
<path d="M32.422 33.7959C32.7903 34.1569 33.393 34.1569 33.7725 33.7959L39.4868 28.1959C39.8439 27.835 39.8439 27.2444 39.4756 26.8834C39.1073 26.5225 38.5158 26.5225 38.1363 26.8725L33.0917 31.8162L31.864 30.6131C31.4957 30.2631 30.893 30.2631 30.5247 30.624C30.1564 30.985 30.1564 31.5647 30.5135 31.9365L32.422 33.7959Z" fill="#26D6FE"/>
<path d="M21.663 43.3984H48.326C48.8505 43.3984 49.2746 42.9828 49.2746 42.4688C49.2746 41.9547 48.8505 41.5391 48.326 41.5391H21.663C21.1385 41.5391 20.7144 41.9547 20.7144 42.4688C20.7144 42.9828 21.1385 43.3984 21.663 43.3984Z" fill="#26D6FE"/>
<path d="M45.4798 47.1289C46.0043 47.1289 46.4284 46.7133 46.4284 46.1992C46.4284 45.6852 46.0043 45.2695 45.4798 45.2695H24.5199C23.9954 45.2695 23.5713 45.6852 23.5713 46.1992C23.5713 46.7133 23.9954 47.1289 24.5199 47.1289H45.4798Z" fill="#26D6FE"/>
<path d="M42.6227 49H27.3772C24.7433 49 22.6116 51.0891 22.6116 53.6703C22.6116 56.2516 24.7433 58.3406 27.3772 58.3406H42.6116C45.2455 58.3406 47.3772 56.2516 47.3772 53.6703C47.3772 51.0891 45.2455 49 42.6227 49ZM42.6227 56.4703H27.3772C25.8035 56.4703 24.5201 55.2125 24.5201 53.6703C24.5201 52.1281 25.8035 50.8703 27.3772 50.8703H42.6116C44.1852 50.8703 45.4687 52.1281 45.4687 53.6703C45.4687 55.2125 44.1964 56.4703 42.6227 56.4703Z" fill="#26D6FE"/>
<path d="M40.7142 52.7305H29.2856C28.761 52.7305 28.3369 53.1461 28.3369 53.6602C28.3369 54.1742 28.761 54.5898 29.2856 54.5898H40.7142C41.2387 54.5898 41.6628 54.1742 41.6628 53.6602C41.6628 53.1461 41.2387 52.7305 40.7142 52.7305Z" fill="#26D6FE"/>
</g>
<defs>
<clipPath id="clip0">
<rect width="70" height="70" fill="white"/>
</clipPath>
</defs>
</svg>
