<svg width="300" height="225" viewBox="0 0 300 225" fill="none" xmlns="http://www.w3.org/2000/svg">
<rect width="300" height="225" rx="5" fill="white"/>
<path d="M300 197.47H0V197.62H300V197.47Z" fill="#A5D0EA"/>
<path d="M58.068 201.088H51.78V201.238H58.068V201.088Z" fill="#A5D0EA"/>
<path d="M271.152 205.03H247.2V205.18H271.152V205.03Z" fill="#A5D0EA"/>
<path d="M253.296 201.166H234.9V201.316H253.296V201.166Z" fill="#A5D0EA"/>
<path d="M199.602 204.586H169.71V204.736H199.602V204.586Z" fill="#A5D0EA"/>
<path d="M117.264 203.638H85.8V203.788H117.264V203.638Z" fill="#A5D0EA"/>
<path d="M236.34 205.03H228.372V205.18H236.34V205.03Z" fill="#A5D0EA"/>
<path d="M48.84 203.56H38.958V203.71H48.84V203.56Z" fill="#A5D0EA"/>
<path d="M142.206 170.71H26.346C24.456 170.71 22.92 169.174 22.92 167.284V4.426C22.92 2.536 24.456 1 26.346 1H142.206C144.096 1 145.632 2.536 145.632 4.426V167.284C145.632 169.174 144.096 170.71 142.206 170.71ZM26.346 1.15C24.54 1.15 23.07 2.62 23.07 4.426V167.284C23.07 169.09 24.54 170.56 26.346 170.56H142.206C144.012 170.56 145.482 169.09 145.482 167.284V4.426C145.482 2.62 144.012 1.15 142.206 1.15H26.346Z" fill="#A5D0EA"/>
<path d="M271.986 170.71H156.126C154.236 170.71 152.7 169.174 152.7 167.284V4.426C152.7 2.536 154.236 1 156.126 1H271.986C273.876 1 275.412 2.536 275.412 4.426V167.284C275.412 169.174 273.876 170.71 271.986 170.71ZM156.126 1.15C154.32 1.15 152.85 2.62 152.85 4.426V167.284C152.85 169.09 154.32 170.56 156.126 170.56H271.986C273.792 170.56 275.262 169.09 275.262 167.284V4.426C275.262 2.62 273.792 1.15 271.986 1.15H156.126Z" fill="#A5D0EA"/>
<path d="M41.448 140.662H131.868L131.868 15.5919L41.448 15.5919L41.448 140.662Z" fill="#A5D0EA"/>
<path d="M39.438 140.662H129.858L129.858 15.5919L39.438 15.5919L39.438 140.662Z" fill="#F3FBFF"/>
<path d="M126.252 137.008L126.252 19.2339L43.044 19.2339L43.044 137.008H126.252Z" fill="#F3FBFF"/>
<path d="M75.0781 137.008L75.0781 19.2339H69.6421V137.008H75.0781Z" fill="#A5D0EA"/>
<path d="M103.674 137.014L103.674 19.24H98.238V137.014H103.674Z" fill="#A5D0EA"/>
<path d="M73.1641 139.324L73.1641 16.522H67.7281V139.324H73.1641Z" fill="#F3FBFF"/>
<path d="M101.76 139.324L101.76 16.522H96.3241V139.324H101.76Z" fill="#F3FBFF"/>
<path d="M44.5681 137.008L44.5681 19.2339H43.0501L43.0501 137.008H44.5681Z" fill="#A5D0EA"/>
<path d="M37.9261 10.894H134.652C134.91 10.894 135.12 11.104 135.12 11.362C135.12 11.62 134.91 11.83 134.652 11.83H37.9261C37.6681 11.83 37.4581 11.62 37.4581 11.362C37.4581 11.104 37.6681 10.894 37.9261 10.894Z" fill="#A5D0EA"/>
<path d="M35.136 11.3619C35.136 12.6459 36.18 13.6899 37.464 13.6899C38.748 13.6899 39.792 12.6459 39.792 11.3619C39.792 10.0779 38.748 9.03394 37.464 9.03394C36.18 9.03394 35.136 10.0779 35.136 11.3619Z" fill="#A5D0EA"/>
<path d="M130.728 13.966C131.076 13.966 131.358 13.684 131.358 13.336V11.986C131.358 11.638 131.076 11.356 130.728 11.356C130.38 11.356 130.098 11.638 130.098 11.986V13.336C130.098 13.684 130.38 13.966 130.728 13.966Z" fill="#A5D0EA"/>
<path d="M44.9401 13.966C45.2881 13.966 45.5701 13.684 45.5701 13.336V11.986C45.5701 11.638 45.2881 11.356 44.9401 11.356C44.5921 11.356 44.3101 11.638 44.3101 11.986V13.336C44.3101 13.684 44.5921 13.966 44.9401 13.966Z" fill="#A5D0EA"/>
<path opacity="0.4" d="M38.0761 71.9619L128.43 71.9619V11.3619L38.0761 11.3619L38.0761 71.9619Z" fill="#A5D0EA"/>
<path d="M120.924 11.3619C120.924 12.6459 121.968 13.6899 123.252 13.6899C124.536 13.6899 125.58 12.6459 125.58 11.3619C125.58 10.0779 124.536 9.03394 123.252 9.03394C121.968 9.03394 120.924 10.0779 120.924 11.3619Z" fill="#A5D0EA"/>
<path d="M189.402 93.526C189.402 93.526 197.244 80.002 186.366 69.238C186.366 69.238 183.528 71.092 183.57 73.576C183.612 76.066 186.612 76.696 185.97 78.772C185.328 80.848 182.496 82.888 184.35 84.604C186.21 86.32 184.05 87.85 184.176 89.956C184.302 92.062 189.402 93.526 189.402 93.526Z" fill="#A5D0EA"/>
<path d="M188.172 95.7341C188.172 95.7341 184.992 80.4281 198.714 73.6421C198.714 73.6421 200.826 76.2941 199.998 78.6401C199.17 80.9861 196.128 80.6381 196.086 82.8161C196.044 84.9881 198.084 87.8141 195.78 88.8581C193.476 89.9021 195.042 92.0321 194.256 93.9881C193.476 95.9441 188.166 95.7281 188.166 95.7281L188.172 95.7341Z" fill="#DEF1FC"/>
<path d="M198.174 87.3879C198.174 87.3879 197.982 105.916 190.572 105.916C183.162 105.916 182.97 87.3879 182.97 87.3879H198.168H198.174Z" fill="#F3FBFF"/>
<path d="M242.694 98.9441C242.694 98.9441 242.28 105.916 226.458 105.916C210.636 105.916 210.222 98.9441 210.222 98.9441H242.7H242.694Z" fill="#DEF1FC"/>
<path d="M81.2461 176.488H89.5981C90.6386 176.488 91.4821 175.645 91.4821 174.604V160.792C91.4821 159.752 90.6386 158.908 89.5981 158.908H81.2461C80.2056 158.908 79.3621 159.752 79.3621 160.792V174.604C79.3621 175.645 80.2056 176.488 81.2461 176.488Z" fill="#F3FBFF"/>
<path d="M59.1 176.494H64.722C65.4212 176.494 65.988 175.927 65.988 175.228V165.928C65.988 165.229 65.4212 164.662 64.722 164.662H59.1C58.4008 164.662 57.834 165.229 57.834 165.928V175.228C57.834 175.927 58.4008 176.494 59.1 176.494Z" fill="#DEF1FC"/>
<path d="M65.562 164.836H58.26C58.026 164.836 57.834 164.644 57.834 164.41V163.924C57.834 163.69 58.026 163.498 58.26 163.498H65.562C65.796 163.498 65.988 163.69 65.988 163.924V164.41C65.988 164.644 65.796 164.836 65.562 164.836Z" fill="#F3FBFF"/>
<path d="M110.814 166.708C110.814 166.708 110.514 176.488 99.0601 176.488C87.6061 176.488 87.3061 166.708 87.3061 166.708H110.814Z" fill="#DEF1FC"/>
<path d="M139.302 176.488H121.968V179.908H139.302V176.488Z" fill="#A5D0EA"/>
<path d="M35.7901 179.908H121.968V176.488H35.7901V179.908Z" fill="#F3FBFF"/>
<path d="M139.302 185.614H121.968V189.034H139.302V185.614Z" fill="#A5D0EA"/>
<path d="M35.7901 189.034H121.968V185.614H35.7901V189.034Z" fill="#F3FBFF"/>
<path d="M133.056 197.464H136.254V179.902H133.056V197.464Z" fill="#A5D0EA"/>
<path d="M118.77 197.464H121.968V179.902H118.77V197.464Z" fill="#F3FBFF"/>
<path d="M46.8781 197.464H50.0761V179.902H46.8781V197.464Z" fill="#A5D0EA"/>
<path d="M35.7961 197.464H38.9941V179.902H35.7961V197.464Z" fill="#F3FBFF"/>
<path d="M242.694 192.964H259.086V110.266H242.694V192.964Z" fill="#DEF1FC"/>
<path d="M175.104 197.464H255.936V192.958H175.104V197.464Z" fill="#DEF1FC"/>
<path d="M242.694 110.266H171.96V192.964H242.694V110.266Z" fill="#F3FBFF"/>
<path d="M236.25 142.084H178.404V161.146H236.25V142.084Z" fill="#DEF1FC"/>
<path d="M236.25 165.4H178.404V184.462H236.25V165.4Z" fill="#DEF1FC"/>
<path d="M200.832 144.64H213.822C214.704 144.64 215.418 143.92 215.418 143.044C215.418 142.162 214.698 141.448 213.822 141.448H200.832C199.95 141.448 199.236 142.168 199.236 143.044C199.236 143.926 199.956 144.64 200.832 144.64Z" fill="#F3FBFF"/>
<path d="M236.25 118.774H178.404V137.836H236.25V118.774Z" fill="#DEF1FC"/>
<path d="M200.832 121.324H213.822C214.704 121.324 215.418 120.604 215.418 119.728C215.418 118.846 214.698 118.132 213.822 118.132H200.832C199.95 118.132 199.236 118.852 199.236 119.728C199.236 120.61 199.956 121.324 200.832 121.324Z" fill="#F3FBFF"/>
<path d="M200.832 167.956H213.822C214.704 167.956 215.418 167.236 215.418 166.36C215.418 165.478 214.698 164.764 213.822 164.764H200.832C199.95 164.764 199.236 165.484 199.236 166.36C199.236 167.242 199.956 167.956 200.832 167.956Z" fill="#F3FBFF"/>
<path d="M169.776 110.272L242.694 110.272V105.922L169.776 105.922V110.272Z" fill="#DEF1FC"/>
<path d="M261.378 105.916H242.694V110.266H261.378V105.916Z" fill="#A5D0EA"/>
<path d="M216.684 65.9919H250.098V28.0839L216.684 28.0839V65.9919Z" fill="#DEF1FC"/>
<path d="M212.94 65.9919H248.598V28.0839L212.94 28.0839V65.9919Z" fill="#F3FBFF"/>
<path d="M245.61 62.9979V31.0659L215.928 31.0659V62.9979H245.61Z" fill="#F3FBFF"/>
<path d="M238.416 55.2579V38.8059H223.122V55.2579H238.416Z" fill="#F3FBFF"/>
<path d="M180.288 45.01H205.362V16.888L180.288 16.888V45.01Z" fill="#DEF1FC"/>
<path d="M177.51 45.01H203.964V16.888L177.51 16.888V45.01Z" fill="#F3FBFF"/>
<path d="M201.75 42.7901V19.1021H179.73V42.7901H201.75Z" fill="#F3FBFF"/>
<path d="M190.734 24.958L196.758 35.392H184.716L190.734 24.958Z" fill="#F3FBFF"/>
<path d="M150 224.566C214.249 224.566 266.334 221.525 266.334 217.774C266.334 214.023 214.249 210.982 150 210.982C85.7505 210.982 33.666 214.023 33.666 217.774C33.666 221.525 85.7505 224.566 150 224.566Z" fill="#F3FBFF"/>
<path d="M234.894 66.604H184.932C180.906 66.604 177.612 69.898 177.612 73.924V100.954C177.612 104.98 180.906 108.274 184.932 108.274H189.99L188.022 116.218C188.022 116.218 196.632 115.936 202.692 108.274H234.894C238.92 108.274 242.214 104.98 242.214 100.954V73.924C242.214 69.898 238.92 66.604 234.894 66.604Z" fill="#50B1AF"/>
<path opacity="0.3" d="M234.894 66.604H184.932C180.906 66.604 177.612 69.898 177.612 73.924V100.954C177.612 104.98 180.906 108.274 184.932 108.274H189.99L188.022 116.218C188.022 116.218 196.632 115.936 202.692 108.274H234.894C238.92 108.274 242.214 104.98 242.214 100.954V73.924C242.214 69.898 238.92 66.604 234.894 66.604Z" fill="#0B1A47"/>
<path d="M229.008 93.6159C232.421 93.6159 235.188 90.849 235.188 87.4359C235.188 84.0227 232.421 81.2559 229.008 81.2559C225.595 81.2559 222.828 84.0227 222.828 87.4359C222.828 90.849 225.595 93.6159 229.008 93.6159Z" fill="#50B1AF"/>
<path d="M209.916 93.6159C213.329 93.6159 216.096 90.849 216.096 87.4359C216.096 84.0227 213.329 81.2559 209.916 81.2559C206.503 81.2559 203.736 84.0227 203.736 87.4359C203.736 90.849 206.503 93.6159 209.916 93.6159Z" fill="#50B1AF"/>
<path d="M190.83 93.6159C194.243 93.6159 197.01 90.849 197.01 87.4359C197.01 84.0227 194.243 81.2559 190.83 81.2559C187.417 81.2559 184.65 84.0227 184.65 87.4359C184.65 90.849 187.417 93.6159 190.83 93.6159Z" fill="#50B1AF"/>
<g opacity="0.1">
<path d="M229.008 93.6159C232.421 93.6159 235.188 90.849 235.188 87.4359C235.188 84.0227 232.421 81.2559 229.008 81.2559C225.595 81.2559 222.828 84.0227 222.828 87.4359C222.828 90.849 225.595 93.6159 229.008 93.6159Z" fill="#F3FBFF"/>
<path d="M209.916 93.6159C213.329 93.6159 216.096 90.849 216.096 87.4359C216.096 84.0227 213.329 81.2559 209.916 81.2559C206.503 81.2559 203.736 84.0227 203.736 87.4359C203.736 90.849 206.503 93.6159 209.916 93.6159Z" fill="#F3FBFF"/>
<path d="M190.83 93.6159C194.243 93.6159 197.01 90.849 197.01 87.4359C197.01 84.0227 194.243 81.2559 190.83 81.2559C187.417 81.2559 184.65 84.0227 184.65 87.4359C184.65 90.849 187.417 93.6159 190.83 93.6159Z" fill="#F3FBFF"/>
</g>
<path d="M112.398 27.7839H162.36C166.386 27.7839 169.68 31.0779 169.68 35.1039V62.1339C169.68 66.1599 166.386 69.4539 162.36 69.4539H157.302L159.27 77.3979C159.27 77.3979 150.66 77.1159 144.6 69.4539H112.398C108.372 69.4539 105.078 66.1599 105.078 62.1339V35.1039C105.078 31.0779 108.372 27.7839 112.398 27.7839Z" fill="#50B1AF"/>
<path opacity="0.1" d="M112.398 27.7839H162.36C166.386 27.7839 169.68 31.0779 169.68 35.1039V62.1339C169.68 66.1599 166.386 69.4539 162.36 69.4539H157.302L159.27 77.3979C159.27 77.3979 150.66 77.1159 144.6 69.4539H112.398C108.372 69.4539 105.078 66.1599 105.078 62.1339V35.1039C105.078 31.0779 108.372 27.7839 112.398 27.7839Z" fill="#F3FBFF"/>
<path d="M160.83 37.1919H113.928V41.6319H160.83V37.1919Z" fill="#50B1AF"/>
<path d="M150.102 46.396H113.928V50.836H150.102V46.396Z" fill="#50B1AF"/>
<path d="M154.824 55.5938H113.928V60.0338H154.824V55.5938Z" fill="#50B1AF"/>
<g opacity="0.3">
<path d="M160.83 37.1919H113.928V41.6319H160.83V37.1919Z" fill="#0B1A47"/>
<path d="M150.102 46.396H113.928V50.836H150.102V46.396Z" fill="#0B1A47"/>
<path d="M154.824 55.5938H113.928V60.0338H154.824V55.5938Z" fill="#0B1A47"/>
</g>
<path d="M178.83 154.816C178.494 154.816 178.158 154.828 177.822 154.852C170.694 155.356 164.928 161.398 164.472 168.826C164.37 170.524 164.538 172.162 164.934 173.704C166.578 180.058 167.19 186.652 167.19 193.228V212.398C167.19 213.79 168.27 214.918 169.608 214.918H217.218V154.81H178.83V154.816Z" fill="#50B1AF"/>
<path opacity="0.3" d="M178.83 154.816C178.494 154.816 178.158 154.828 177.822 154.852C170.694 155.356 164.928 161.398 164.472 168.826C164.37 170.524 164.538 172.162 164.934 173.704C166.578 180.058 167.19 186.652 167.19 193.228V212.398C167.19 213.79 168.27 214.918 169.608 214.918H217.218V154.81H178.83V154.816Z" fill="#0B1A47"/>
<path d="M231.606 169.804C231.606 161.176 224.61 154.252 216.21 154.852C209.082 155.356 203.316 161.398 202.86 168.826C202.758 170.524 202.926 172.162 203.322 173.704C204.966 180.058 205.578 186.652 205.578 193.228V212.398C205.578 213.79 206.658 214.918 207.996 214.918H226.44C227.772 214.918 228.858 213.79 228.858 212.398V192.1C228.858 185.926 229.506 179.752 231.084 173.806C231.426 172.534 231.606 171.19 231.606 169.798V169.804Z" fill="#50B1AF"/>
<path d="M197.388 178.426H136.692V214.918H197.388V178.426Z" fill="#50B1AF"/>
<path opacity="0.3" d="M197.388 178.426H136.692V214.918H197.388V178.426Z" fill="#0B1A47"/>
<path d="M104.472 134.716H171.492C177.624 134.716 182.604 139.696 182.604 145.828V186.676H93.354V145.828C93.354 139.696 98.334 134.716 104.466 134.716H104.472Z" fill="#50B1AF"/>
<path opacity="0.4" d="M104.472 134.716H171.492C177.624 134.716 182.604 139.696 182.604 145.828V186.676H93.354V145.828C93.354 139.696 98.334 134.716 104.466 134.716H104.472Z" fill="#0B1A47"/>
<path d="M117.648 134.716H174.936C180.774 134.716 185.514 139.456 185.514 145.294V186.676H107.07V145.294C107.07 139.456 111.81 134.716 117.648 134.716Z" fill="#50B1AF"/>
<path d="M140.16 174.628H196.602C198.408 174.628 199.878 176.098 199.878 177.904V186.682C199.878 188.488 198.408 189.958 196.602 189.958H140.16C139.62 189.958 139.182 189.52 139.182 188.98V175.606C139.182 175.066 139.62 174.628 140.16 174.628Z" fill="#50B1AF"/>
<path opacity="0.4" d="M140.16 174.628H196.602C198.408 174.628 199.878 176.098 199.878 177.904V186.682C199.878 188.488 198.408 189.958 196.602 189.958H140.16C139.62 189.958 139.182 189.52 139.182 188.98V175.606C139.182 175.066 139.62 174.628 140.16 174.628Z" fill="#0B1A47"/>
<path d="M87.462 214.918H217.944V214.954C217.944 215.938 217.14 216.742 216.156 216.742H89.25C88.266 216.742 87.462 215.938 87.462 214.954V214.918Z" fill="#50B1AF"/>
<path opacity="0.4" d="M87.462 214.918H217.944V214.954C217.944 215.938 217.14 216.742 216.156 216.742H89.25C88.266 216.742 87.462 215.938 87.462 214.954V214.918Z" fill="#0B1A47"/>
<path d="M165.432 128.674L165.672 129.652L165.948 130.708C166.14 131.416 166.344 132.13 166.566 132.838C166.986 134.266 167.448 135.694 167.928 137.116C168.414 138.538 168.906 139.966 169.452 141.376C169.716 142.084 169.98 142.792 170.262 143.494L170.592 144.334C170.64 144.454 170.724 144.586 170.85 144.736C171.342 145.36 172.47 146.05 173.706 146.536C174.948 147.064 176.34 147.448 177.762 147.796C179.19 148.132 180.66 148.408 182.148 148.636C183.624 148.888 185.16 149.056 186.624 149.212L186.678 152.242C183.45 152.56 180.282 152.596 177.012 152.242C175.38 152.068 173.736 151.774 172.05 151.282C171.21 151.024 170.358 150.706 169.494 150.274C168.636 149.836 167.748 149.296 166.926 148.468C166.518 148.054 166.128 147.568 165.798 147.01C165.714 146.872 165.642 146.722 165.564 146.578L165.414 146.278L165.156 145.744C164.808 145.03 164.46 144.316 164.136 143.59C163.482 142.138 162.846 140.674 162.276 139.18C161.694 137.692 161.16 136.18 160.68 134.638C160.446 133.864 160.224 133.09 160.014 132.298L159.708 131.104C159.612 130.678 159.534 130.324 159.438 129.814L165.444 128.668L165.432 128.674Z" fill="#E2988F"/>
<path d="M163.518 122.296C165.93 122.908 167.622 132.85 167.622 132.85L160.968 137.374C160.968 137.374 154.59 127.348 156.444 124.696C158.376 121.93 159.996 121.402 163.518 122.296Z" fill="#50B1AF"/>
<path opacity="0.5" d="M163.518 122.296C165.93 122.908 167.622 132.85 167.622 132.85L160.968 137.374C160.968 137.374 154.59 127.348 156.444 124.696C158.376 121.93 159.996 121.402 163.518 122.296Z" fill="#F3FBFF"/>
<path d="M163.734 125.908L158.562 127.108L158.064 132.16C159.414 134.95 160.962 137.374 160.962 137.374L165 134.632C164.826 132.31 164.388 127.48 163.734 125.908Z" fill="#50B1AF"/>
<path opacity="0.3" d="M163.734 125.908L158.562 127.108L158.064 132.16C159.414 134.95 160.962 137.374 160.962 137.374L165 134.632C164.826 132.31 164.388 127.48 163.734 125.908Z" fill="#F3FBFF"/>
<path d="M185.754 149.188L189.912 144.976L190.458 150.91C190.458 150.91 187.344 153.016 185.184 151.888L185.754 149.194V149.188Z" fill="#E2988F"/>
<path d="M194.796 144.346L194.982 149.338L190.458 150.904L189.912 144.976L194.796 144.346Z" fill="#E2988F"/>
<path d="M163.518 122.296C163.518 122.296 166.308 123.28 160.716 157.66H136.92C137.322 147.976 137.328 142.006 132.702 122.128C132.702 122.128 137.688 121.042 142.806 120.796C146.808 120.604 150.09 120.478 153.612 120.796C158.25 121.222 163.518 122.296 163.518 122.296Z" fill="#50B1AF"/>
<path opacity="0.5" d="M163.518 122.296C163.518 122.296 166.308 123.28 160.716 157.66H136.92C137.322 147.976 137.328 142.006 132.702 122.128C132.702 122.128 137.688 121.042 142.806 120.796C146.808 120.604 150.09 120.478 153.612 120.796C158.25 121.222 163.518 122.296 163.518 122.296Z" fill="#F3FBFF"/>
<path d="M156.372 121.108C155.46 120.988 154.524 120.88 153.612 120.796C150.09 120.472 146.808 120.604 142.806 120.796C141.972 120.838 141.144 120.898 140.346 120.976L140.52 121.522C140.616 121.828 142.998 129.076 151.584 132.922L153.228 133.66L154.392 132.28C158.088 127.93 157.218 123.406 156.372 121.108Z" fill="#50B1AF"/>
<path opacity="0.3" d="M156.372 121.108C155.46 120.988 154.524 120.88 153.612 120.796C150.09 120.472 146.808 120.604 142.806 120.796C141.972 120.838 141.144 120.898 140.346 120.976L140.52 121.522C140.616 121.828 142.998 129.076 151.584 132.922L153.228 133.66L154.392 132.28C158.088 127.93 157.218 123.406 156.372 121.108Z" fill="#0B1A47"/>
<path d="M138.3 131.356L135.228 133.972C135.882 137.446 136.32 140.344 136.608 142.918C137.178 140.338 138.642 133.33 138.3 131.356Z" fill="#50B1AF"/>
<path opacity="0.3" d="M138.3 131.356L135.228 133.972C135.882 137.446 136.32 140.344 136.608 142.918C137.178 140.338 138.642 133.33 138.3 131.356Z" fill="#F3FBFF"/>
<path d="M147.12 91.048C140.82 89.074 137.316 95.848 137.922 104.326C138.354 110.392 137.136 113.038 133.506 112.864C135.204 116.83 156.63 122.818 162.798 115.696C161.058 114.754 160.188 110.566 161.466 106.804C164.346 98.332 161.67 85.534 147.126 91.048H147.12Z" fill="#0B1A47"/>
<path d="M143.88 108.628C144.564 112.102 145.242 118.474 142.812 120.796C142.812 120.796 144.87 127.282 152.568 130.732C156.66 125.914 153.618 120.796 153.618 120.796C149.742 119.872 149.844 116.992 150.516 114.292L143.88 108.628Z" fill="#E2988F"/>
<path d="M146.58 110.938L150.504 114.286C150.342 114.928 150.216 115.576 150.168 116.206C148.686 115.99 146.652 114.364 146.496 112.816C146.418 112.042 146.448 111.298 146.574 110.938H146.58Z" fill="#9E4541"/>
<path d="M144.204 98.8961C142.842 104.548 142.146 106.912 144.072 110.62C146.97 116.2 154.212 116.638 157.236 111.502C159.96 106.882 161.73 98.4161 156.978 94.5401C152.298 90.7241 145.566 93.2441 144.204 98.8961Z" fill="#E2988F"/>
<path d="M143.202 102.22C143.202 102.22 154.902 98.5838 149.55 92.4338C143.25 93.9818 143.202 95.8358 143.202 95.8358V102.226V102.22Z" fill="#0B1A47"/>
<path d="M150.294 95.9261C154.704 96.3821 159.084 98.9741 160.482 101.326C161.298 97.3241 158.43 92.3261 155.244 91.6241C152.052 90.9221 148.206 92.4221 148.206 92.4221L150.3 95.9201L150.294 95.9261Z" fill="#0B1A47"/>
<path d="M141.294 102.646C141.258 103.84 141.768 104.962 142.44 105.682C143.448 106.774 144.666 106.06 144.99 104.71C145.278 103.492 145.11 101.458 143.808 100.87C142.53 100.288 141.336 101.278 141.294 102.646Z" fill="#E2988F"/>
<path d="M190.746 162.31C177.468 162.124 168.756 171.244 168.756 171.244C170.028 174.94 170.832 177.706 170.832 177.706C178.11 176.416 186.378 175.846 193.194 174.208C199.35 172.726 200.058 165.304 199.422 162.196C198.786 159.088 195.3 158.386 191.88 157.402C187.98 156.28 180.516 156.25 175.176 156.28C169.536 156.316 162.126 156.844 158.28 157.654C158.28 157.654 150.132 157.402 144.096 157.546C140.568 157.042 142.644 162.166 148.212 166.504C153.99 171.004 161.448 172.756 168.69 171.664H168.732" fill="#0B1A47"/>
<path d="M170.004 176.824L168.312 170.464C168.252 170.23 168.042 170.086 167.808 170.116L162.582 170.728C162.042 170.794 161.664 171.37 161.814 171.904C162.444 174.112 162.858 175.144 163.602 177.946C164.058 179.668 164.826 183.274 165.462 185.65C166.08 187.972 168.48 187.528 168.426 186.484C168.198 181.792 169.05 179.698 169.908 177.868C170.064 177.538 170.094 177.166 170.004 176.83V176.824Z" fill="#0B1A47"/>
<path d="M170.706 180.574C170.568 180.574 170.436 180.532 170.316 180.454C169.614 179.998 169.41 178.324 169.35 177.37C169.35 177.328 169.374 177.292 169.41 177.274C169.452 177.256 169.494 177.268 169.524 177.298C169.722 177.514 171.462 179.452 171.27 180.226C171.234 180.364 171.144 180.466 171 180.52C170.898 180.556 170.802 180.574 170.712 180.574H170.706ZM169.566 177.646C169.686 179.032 169.998 180.016 170.424 180.292C170.574 180.388 170.742 180.406 170.928 180.334C171.012 180.304 171.054 180.256 171.078 180.178C171.204 179.668 170.16 178.33 169.566 177.646Z" fill="#50B1AF"/>
<path d="M170.022 177.958L167.826 169.72L170.718 168.52L174.792 177.37L170.022 177.958Z" fill="#50B1AF"/>
<path opacity="0.6" d="M170.022 177.958L167.826 169.72L170.718 168.52L174.792 177.37L170.022 177.958Z" fill="#F3FBFF"/>
<path d="M171.756 178.792C171.054 178.792 169.794 177.946 169.368 177.43C169.344 177.406 169.338 177.364 169.35 177.334C169.362 177.304 169.392 177.28 169.422 177.274C169.488 177.262 171.03 176.992 171.798 177.532C172.026 177.694 172.17 177.916 172.212 178.186C172.272 178.54 172.122 178.684 171.99 178.744C171.924 178.774 171.84 178.792 171.75 178.792H171.756ZM169.638 177.436C170.232 178.048 171.51 178.744 171.912 178.564C171.948 178.546 172.062 178.498 172.02 178.21C171.984 177.988 171.876 177.82 171.69 177.682C171.132 177.286 170.064 177.376 169.638 177.43V177.436Z" fill="#50B1AF"/>
<path d="M141.474 157.972C134.088 157.024 123.162 156.658 122.538 164.356C121.914 172.054 127.224 179.956 141.672 180.382C156.114 180.808 159.228 177.178 159.75 174.088C160.41 170.176 161.532 169.18 158.1 167.41C154.668 165.64 154.014 159.58 141.48 157.972H141.474Z" fill="#0B1A47"/>
<path d="M157.098 178.138L155.406 171.778C155.346 171.544 155.454 171.316 155.67 171.226L160.512 169.162C161.016 168.946 161.628 169.264 161.76 169.804C162.312 172.03 162.468 173.134 163.212 175.93C163.668 177.652 164.796 181.162 165.432 183.538C166.05 185.86 163.746 186.664 163.272 185.734C161.136 181.552 159.354 180.154 157.704 178.996C157.404 178.786 157.194 178.48 157.104 178.144L157.098 178.138Z" fill="#0B1A47"/>
<path d="M157.992 181.852C157.878 181.852 157.776 181.81 157.698 181.726C157.146 181.15 157.698 178.606 157.758 178.318C157.764 178.276 157.8 178.246 157.842 178.24C157.884 178.24 157.926 178.258 157.944 178.294C158.364 179.152 159.018 180.706 158.64 181.45C158.532 181.666 158.34 181.798 158.082 181.846C158.052 181.846 158.028 181.852 157.998 181.852H157.992ZM157.89 178.642C157.716 179.536 157.476 181.21 157.842 181.588C157.896 181.648 157.962 181.666 158.046 181.648C158.244 181.612 158.382 181.516 158.466 181.36C158.784 180.742 158.214 179.338 157.896 178.642H157.89Z" fill="#50B1AF"/>
<path d="M156.288 180.802C156.15 180.802 155.976 180.73 155.856 180.424C155.76 180.166 155.772 179.908 155.886 179.65C156.282 178.798 157.758 178.264 157.818 178.24C157.848 178.228 157.89 178.24 157.914 178.258C157.938 178.282 157.956 178.312 157.95 178.348C157.824 179.092 156.978 180.73 156.324 180.796C156.312 180.796 156.3 180.796 156.282 180.796L156.288 180.802ZM157.722 178.492C157.332 178.654 156.354 179.11 156.072 179.734C155.976 179.944 155.964 180.148 156.048 180.358C156.15 180.628 156.276 180.61 156.318 180.61C156.756 180.568 157.518 179.32 157.728 178.498L157.722 178.492Z" fill="#50B1AF"/>
<path d="M157.368 178.06L155.988 170.35L152.616 170.224L152.88 180.046L157.368 178.06Z" fill="#50B1AF"/>
<path opacity="0.6" d="M157.368 178.06L155.988 170.35L152.616 170.224L152.88 180.046L157.368 178.06Z" fill="#F3FBFF"/>
<path d="M152.142 103.036C152.004 103.486 152.13 103.93 152.424 104.02C152.718 104.11 153.072 103.816 153.21 103.366C153.348 102.916 153.222 102.472 152.928 102.382C152.634 102.292 152.28 102.586 152.142 103.036Z" fill="#0B1A47"/>
<path d="M157.248 104.602C157.11 105.052 157.236 105.496 157.53 105.586C157.824 105.676 158.178 105.382 158.316 104.932C158.454 104.482 158.328 104.038 158.034 103.948C157.74 103.858 157.386 104.152 157.248 104.602Z" fill="#0B1A47"/>
<path d="M157.896 103.936L159.078 103.954C159.078 103.954 158.262 104.632 157.896 103.936Z" fill="#0B1A47"/>
<path d="M155.664 104.962C155.664 104.962 155.832 107.14 156.39 108.34C155.622 108.712 154.686 108.148 154.686 108.148L155.664 104.962Z" fill="#C46966"/>
<path d="M152.16 109.138C152.16 109.138 152.136 109.138 152.118 109.126C150.684 108.424 150.222 106.894 150.204 106.828C150.192 106.78 150.216 106.732 150.264 106.72C150.312 106.708 150.36 106.732 150.372 106.78C150.372 106.792 150.834 108.304 152.196 108.97C152.238 108.994 152.256 109.042 152.238 109.09C152.22 109.12 152.19 109.138 152.16 109.138Z" fill="#0B1A47"/>
<path d="M151.89 99.9939C151.83 99.9939 151.776 99.9639 151.74 99.9159C151.686 99.8319 151.71 99.7239 151.788 99.6699C153.024 98.8539 154.158 99.3279 154.206 99.3519C154.296 99.3939 154.338 99.4959 154.296 99.5859C154.26 99.6759 154.152 99.7179 154.062 99.6759C154.02 99.6579 153.054 99.2559 151.98 99.9639C151.95 99.9819 151.914 99.9939 151.884 99.9939H151.89Z" fill="#0B1A47"/>
<path d="M160.482 103.066C160.416 103.066 160.356 103.03 160.326 102.97C159.72 101.83 158.646 101.722 158.634 101.722C158.538 101.716 158.466 101.626 158.472 101.53C158.478 101.434 158.568 101.362 158.664 101.368C158.718 101.368 159.936 101.494 160.638 102.802C160.686 102.886 160.65 102.994 160.566 103.042C160.542 103.054 160.512 103.06 160.482 103.06V103.066Z" fill="#0B1A47"/>
<path d="M152.79 102.364L153.972 102.382C153.972 102.382 153.156 103.06 152.79 102.364Z" fill="#0B1A47"/>
<path d="M136.566 156.262L136.374 158.392C136.29 158.56 136.488 158.728 136.764 158.728H160.836C161.052 158.728 161.226 158.62 161.244 158.488L161.46 156.358C161.472 156.208 161.286 156.088 161.052 156.088H136.956C136.776 156.088 136.62 156.16 136.566 156.268V156.262Z" fill="#50B1AF"/>
<path opacity="0.3" d="M136.566 156.262L136.374 158.392C136.29 158.56 136.488 158.728 136.764 158.728H160.836C161.052 158.728 161.226 158.62 161.244 158.488L161.46 156.358C161.472 156.208 161.286 156.088 161.052 156.088H136.956C136.776 156.088 136.62 156.16 136.566 156.268V156.262Z" fill="#0B1A47"/>
<path d="M139.8 158.956H139.152C139.026 158.956 138.924 158.89 138.936 158.806L139.236 156.04C139.242 155.956 139.356 155.89 139.488 155.89H140.136C140.262 155.89 140.364 155.956 140.352 156.04L140.052 158.806C140.046 158.89 139.932 158.956 139.8 158.956Z" fill="#0B1A47"/>
<path d="M159.018 158.956H158.37C158.244 158.956 158.142 158.89 158.154 158.806L158.454 156.04C158.46 155.956 158.574 155.89 158.706 155.89H159.354C159.48 155.89 159.582 155.956 159.57 156.04L159.27 158.806C159.264 158.89 159.15 158.956 159.018 158.956Z" fill="#0B1A47"/>
<path d="M149.412 158.956H148.764C148.638 158.956 148.536 158.89 148.548 158.806L148.848 156.04C148.854 155.956 148.968 155.89 149.1 155.89H149.748C149.874 155.89 149.976 155.956 149.964 156.04L149.664 158.806C149.658 158.89 149.544 158.956 149.412 158.956Z" fill="#0B1A47"/>
<path d="M203.352 141.208H161.592L155.538 165.868H197.298L203.352 141.208Z" fill="#F3FBFF"/>
<path d="M182.196 161.278L156.654 167.236L140.262 162.64L140.43 161.278H182.196Z" fill="#F3FBFF"/>
<path d="M136.26 130.6C135.762 132.238 135.222 133.93 134.742 135.61C134.244 137.29 133.752 138.964 133.308 140.644C132.876 142.324 132.456 143.998 132.132 145.642C131.976 146.464 131.832 147.274 131.736 148.054C131.634 148.792 131.61 149.734 131.628 149.686C131.664 149.914 131.91 150.382 132.336 150.856C132.756 151.336 133.326 151.822 133.95 152.278C135.204 153.208 136.668 154.036 138.18 154.804C141.222 156.322 144.51 157.672 147.768 158.854L147.042 161.794C143.394 161.17 139.872 160.288 136.356 158.974C134.604 158.308 132.858 157.54 131.13 156.49C130.272 155.95 129.414 155.356 128.58 154.558C127.758 153.766 126.9 152.764 126.402 151.276C126.288 150.904 126.192 150.508 126.144 150.094L126.114 149.782L126.102 149.554L126.084 149.14C126.072 148.594 126.084 148.084 126.114 147.58C126.168 146.578 126.276 145.618 126.414 144.682C126.684 142.804 127.038 140.992 127.464 139.198C127.884 137.41 128.328 135.64 128.826 133.888C129.342 132.136 129.852 130.414 130.464 128.662L136.26 130.6Z" fill="#E2988F"/>
<path d="M132.702 122.128C130.32 122.854 126.666 132.208 126.666 132.208L135.918 138.82C135.918 138.82 140.076 130.822 139.074 127.738C138.03 124.528 135.42 121.3 132.702 122.128Z" fill="#50B1AF"/>
<path opacity="0.5" d="M132.702 122.128C130.32 122.854 126.666 132.208 126.666 132.208L135.918 138.82C135.918 138.82 140.076 130.822 139.074 127.738C138.03 124.528 135.42 121.3 132.702 122.128Z" fill="#F3FBFF"/>
<path d="M146.562 159.064L152.118 157.654L149.472 162.994C149.472 162.994 145.716 163.156 144.474 161.056L146.562 159.064Z" fill="#E2988F"/>
<path d="M156.612 159.682L154.152 164.032L149.472 162.994L152.118 157.66L156.612 159.682Z" fill="#E2988F"/>
<path d="M204.636 141.208H162.876L156.822 165.868H198.582L204.636 141.208Z" fill="#50B1AF"/>
<path d="M198.582 165.868L198.414 167.236H156.654L156.822 165.868H198.582Z" fill="#50B1AF"/>
<path d="M230.766 195.766H230.166V202.96H230.766V195.766Z" fill="#50B1AF"/>
<path opacity="0.3" d="M230.766 195.766H230.166V202.96H230.766V195.766Z" fill="#0B1A47"/>
<path d="M230.766 205.726H230.166V208.282H230.766V205.726Z" fill="#50B1AF"/>
<path opacity="0.3" d="M230.766 205.726H230.166V208.282H230.766V205.726Z" fill="#0B1A47"/>
<path d="M88.188 154.816C87.852 154.816 87.516 154.828 87.18 154.852C80.052 155.356 74.286 161.398 73.83 168.826C73.728 170.524 73.896 172.162 74.292 173.704C75.936 180.058 76.548 186.652 76.548 193.228V212.398C76.548 213.79 77.628 214.918 78.966 214.918H137.382V154.81H88.188V154.816Z" fill="#50B1AF"/>
<path opacity="0.3" d="M88.188 154.816C87.852 154.816 87.516 154.828 87.18 154.852C80.052 155.356 74.286 161.398 73.83 168.826C73.728 170.524 73.896 172.162 74.292 173.704C75.936 180.058 76.548 186.652 76.548 193.228V212.398C76.548 213.79 77.628 214.918 78.966 214.918H137.382V154.81H88.188V154.816Z" fill="#0B1A47"/>
<path d="M151.77 169.804C151.77 161.176 144.774 154.252 136.374 154.852C129.246 155.356 123.48 161.398 123.024 168.826C122.922 170.524 123.09 172.162 123.486 173.704C125.13 180.058 125.742 186.652 125.742 193.228V212.398C125.742 213.79 126.822 214.918 128.16 214.918H146.604C147.936 214.918 149.022 213.79 149.022 212.398V192.1C149.022 185.926 149.67 179.752 151.248 173.806C151.59 172.534 151.77 171.19 151.77 169.798V169.804Z" fill="#50B1AF"/>
</svg>
