<svg width="300" height="225" viewBox="0 0 300 225" fill="none" xmlns="http://www.w3.org/2000/svg">
<rect width="300" height="225" rx="5" fill="white"/>
<path d="M300 197.47H0V197.62H300V197.47Z" fill="#F3FBFF"/>
<path d="M269.94 207.124H250.068V207.274H269.94V207.124Z" fill="#F3FBFF"/>
<path d="M163.932 205.246H156.198V205.396H163.932V205.246Z" fill="#F3FBFF"/>
<path d="M209.802 205.876H193.518V206.026H209.802V205.876Z" fill="#F3FBFF"/>
<path d="M249.468 201.556H215.802V201.706H249.468V201.556Z" fill="#F3FBFF"/>
<path d="M47.394 208.498H31.476V208.648H47.394V208.498Z" fill="#F3FBFF"/>
<path d="M66.534 208.498H52.734V208.648H66.534V208.498Z" fill="#F3FBFF"/>
<path d="M115.086 205.168H78.6V205.318H115.086V205.168Z" fill="#F3FBFF"/>
<path d="M142.206 170.71H26.3459C24.4559 170.71 22.9199 169.174 22.9199 167.284V4.426C22.9199 2.536 24.4559 1 26.3459 1H142.206C144.096 1 145.632 2.536 145.632 4.426V167.284C145.632 169.174 144.096 170.71 142.206 170.71ZM26.3459 1.15C24.5399 1.15 23.0699 2.62 23.0699 4.426V167.284C23.0699 169.09 24.5399 170.56 26.3459 170.56H142.206C144.012 170.56 145.482 169.09 145.482 167.284V4.426C145.482 2.62 144.012 1.15 142.206 1.15H26.3459Z" fill="#F3FBFF"/>
<path d="M271.986 170.71H156.126C154.236 170.71 152.7 169.174 152.7 167.284V4.426C152.7 2.536 154.236 1 156.126 1H271.986C273.876 1 275.412 2.536 275.412 4.426V167.284C275.412 169.174 273.876 170.71 271.986 170.71ZM156.126 1.15C154.32 1.15 152.85 2.62 152.85 4.426V167.284C152.85 169.09 154.32 170.56 156.126 170.56H271.986C273.792 170.56 275.262 169.09 275.262 167.284V4.426C275.262 2.62 273.792 1.15 271.986 1.15H156.126Z" fill="#F3FBFF"/>
<path d="M267.798 14.8301H176.988V197.47H267.798V14.8301Z" fill="#F3FBFF"/>
<path d="M238.59 38.23H206.19V83.428H238.59V38.23Z" fill="white"/>
<path d="M267.792 197.464H268.356V14.8239H267.792V197.464Z" fill="#F3FBFF"/>
<path d="M263.292 197.47H262.692V19.9301H182.088V197.47H181.488V19.3301H263.292V197.47Z" fill="#A5D0EA"/>
<path d="M256.314 109.528H243.792C242.778 109.528 241.95 108.7 241.95 107.686C241.95 106.672 242.778 105.844 243.792 105.844H256.314C257.328 105.844 258.156 106.672 258.156 107.686C258.156 108.7 257.328 109.528 256.314 109.528ZM243.792 106.45C243.108 106.45 242.55 107.008 242.55 107.692C242.55 108.376 243.108 108.934 243.792 108.934H256.314C256.998 108.934 257.556 108.376 257.556 107.692C257.556 107.008 256.998 106.45 256.314 106.45H243.792Z" fill="#A5D0EA"/>
<path d="M118.044 66.094H33.582V73.342H118.044V66.094Z" fill="#F3FBFF"/>
<path d="M118.038 73.342H34.662V197.47H118.038V73.342Z" fill="#F3FBFF"/>
<path d="M118.044 197.47H124.164L124.164 66.1H118.044L118.044 197.47Z" fill="#F3FBFF"/>
<path d="M73.9139 80.542H41.6639V153.892H73.9139V80.542Z" fill="#F3FBFF"/>
<path d="M64.698 80.542H57.132L50.88 153.886H58.44L64.698 80.542Z" fill="white"/>
<path d="M109.992 191.794H42.714C41.928 191.794 41.286 191.152 41.286 190.366V159.766C41.286 158.98 41.928 158.338 42.714 158.338H109.992C110.778 158.338 111.42 158.98 111.42 159.766V190.366C111.42 191.152 110.778 191.794 109.992 191.794ZM42.714 159.088C42.342 159.088 42.036 159.394 42.036 159.766V190.366C42.036 190.738 42.342 191.044 42.714 191.044H109.992C110.364 191.044 110.67 190.738 110.67 190.366V159.766C110.67 159.394 110.364 159.088 109.992 159.088H42.714Z" fill="#F3FBFF"/>
<path d="M105.594 165.736C104.73 165.736 104.022 165.034 104.022 164.164C104.022 163.294 104.724 162.592 105.594 162.592C106.464 162.592 107.166 163.294 107.166 164.164C107.166 165.034 106.464 165.736 105.594 165.736ZM105.594 163.342C105.144 163.342 104.772 163.708 104.772 164.164C104.772 164.62 105.138 164.986 105.594 164.986C106.05 164.986 106.416 164.62 106.416 164.164C106.416 163.708 106.05 163.342 105.594 163.342Z" fill="#F3FBFF"/>
<path d="M42.4979 80.542H41.6639V153.892H42.4979V80.542Z" fill="#F3FBFF"/>
<path d="M111.042 80.542H78.792V153.892H111.042V80.542Z" fill="#F3FBFF"/>
<path d="M93.732 80.542H90.618L84.366 153.886H87.48L93.732 80.542Z" fill="white"/>
<path d="M98.4179 80.542H95.3039L89.0459 153.886H92.1599L98.4179 80.542Z" fill="white"/>
<path d="M79.626 80.542H78.792V153.892H79.626V80.542Z" fill="#F3FBFF"/>
<path d="M118.038 73.342H34.662V74.26H118.038V73.342Z" fill="#F3FBFF"/>
<path d="M134.598 13.45H48V55.2519H134.598V13.45Z" fill="#F3FBFF"/>
<path d="M102.42 49.8699C93.8639 49.8699 86.8979 42.9099 86.8979 34.3479C86.8979 25.7859 93.8579 18.8259 102.42 18.8259C110.982 18.8259 117.942 25.7859 117.942 34.3479C117.942 42.9099 110.982 49.8699 102.42 49.8699ZM102.42 19.4259C94.1939 19.4259 87.4979 26.1219 87.4979 34.3479C87.4979 42.5739 94.1939 49.2699 102.42 49.2699C110.646 49.2699 117.342 42.5739 117.342 34.3479C117.342 26.1219 110.646 19.4259 102.42 19.4259Z" fill="white"/>
<path d="M119.754 23.3319C120.444 21.4299 120.642 19.3719 120.126 17.2059C119.262 17.1759 118.506 17.1519 118.506 17.1519C118.506 17.1519 119.172 19.7799 117.81 22.9899C111.912 22.9419 110.868 29.1639 106.152 27.8079C104.682 27.3879 102.87 27.3339 101.01 27.6219H100.992C100.296 27.7359 99.588 27.8919 98.898 28.1019C92.658 29.7279 85.038 33.6159 83.676 39.4539C84.45 39.6039 85.122 39.7299 85.122 39.7299C85.122 39.7299 86.064 35.3979 92.334 32.3079C91.746 33.0939 91.29 33.9639 91.032 34.9179C87.186 49.0659 113.268 46.5759 120.186 41.6439C128.646 35.6139 125.046 25.4079 119.754 23.3259V23.3319Z" fill="#F3FBFF"/>
<path d="M78.402 18.1838H52.266V19.8518H78.402V18.1838Z" fill="#F3FBFF"/>
<path d="M71.802 22.438H52.266V24.106H71.802V22.438Z" fill="#F3FBFF"/>
<path d="M78.402 30.9399H52.266V32.6079H78.402V30.9399Z" fill="#F3FBFF"/>
<path d="M64.902 35.1941H52.266V36.8621H64.902V35.1941Z" fill="#F3FBFF"/>
<path d="M75.948 35.1941H66.948V36.8621H75.948V35.1941Z" fill="#F3FBFF"/>
<path d="M73.302 39.4419H52.266V41.1099H73.302V39.4419Z" fill="#F3FBFF"/>
<path d="M78.402 43.696H52.266V45.364H78.402V43.696Z" fill="#F3FBFF"/>
<path d="M162.246 197.47H137.574C136.998 197.47 136.506 197.038 136.434 196.468L131.454 156.838C131.37 156.154 131.904 155.548 132.594 155.548H167.22C167.91 155.548 168.444 156.154 168.36 156.838L163.38 196.468C163.308 197.044 162.822 197.47 162.24 197.47H162.246Z" fill="#F3FBFF"/>
<path opacity="0.7" d="M130.926 154.732C130.02 155.38 130.74 165.412 131.916 167.626C133.092 169.846 140.154 167.938 148.578 167.194C157.002 166.45 167.1 169.426 167.532 167.626C167.964 165.832 170.436 156.034 169.14 154.732C168.108 153.688 155.7 153.688 150.246 154.312C144.798 154.93 132.84 153.364 130.92 154.732H130.926Z" fill="#F3FBFF"/>
<path d="M150 224.566C214.249 224.566 266.334 221.525 266.334 217.774C266.334 214.023 214.249 210.982 150 210.982C85.7505 210.982 33.666 214.023 33.666 217.774C33.666 221.525 85.7505 224.566 150 224.566Z" fill="#F3FBFF"/>
<path d="M98.4179 28.8579C93.8879 24.6039 86.4059 23.7879 83.6219 28.2159C80.8379 32.6439 82.4039 37.3239 76.6859 42.2319C72.7799 45.5859 75.6779 55.8639 97.9199 54.9219C108.45 54.4779 104.892 43.5459 104.61 38.3439C104.328 33.1419 104.292 26.8359 98.4179 28.8579Z" fill="#0B1A47"/>
<path d="M89.634 209.482L84.246 209.692L84.144 203.86L89.532 203.65L89.634 209.482Z" fill="#E2988F"/>
<path d="M83.91 208.57H90.012C90.234 208.57 90.426 208.726 90.474 208.942L91.53 213.766C91.638 214.264 91.242 214.738 90.732 214.732C88.602 214.696 87.57 214.57 84.888 214.57C83.238 214.57 78.96 214.744 76.68 214.744C74.4 214.744 74.112 212.488 75.042 212.284C79.23 211.366 81.684 210.106 83.028 208.9C83.268 208.684 83.586 208.564 83.91 208.564V208.57Z" fill="#0B1A47"/>
<path opacity="0.2" d="M84.144 203.86L84.192 206.572L89.58 206.344L89.532 203.65L84.144 203.86Z" fill="#0B1A47"/>
<path d="M76.2059 92.0141C74.9879 98.4821 76.3919 130.102 78.2219 144.058C80.6519 162.598 83.1779 205.654 83.1779 205.654L90.4079 205.216C90.4079 205.216 92.2139 159.88 90.7319 144.994C91.5659 125.836 93.6359 92.3741 93.6359 92.3741L76.2119 92.0081L76.2059 92.0141Z" fill="#50B1AF"/>
<path opacity="0.2" d="M92.394 113.212C92.64 108.358 89.208 104.044 87.822 113.194C86.94 119.02 88.758 129.232 91.128 136.45C91.506 128.98 91.968 120.622 92.394 113.218V113.212Z" fill="#0B1A47"/>
<path d="M129.222 191.344L125.718 194.692L120.972 189.604L124.47 186.256L129.222 191.344Z" fill="#E2988F"/>
<path d="M124.824 194.782L128.412 189.85C128.544 189.67 128.766 189.622 128.958 189.73L133.128 192.196C133.56 192.454 133.68 193.096 133.368 193.504C132.09 195.202 131.388 195.952 129.81 198.124C128.838 199.462 127.716 201.298 126.378 203.14C125.07 204.946 123.21 203.668 123.606 202.768C125.394 198.748 124.644 197.638 124.548 195.718C124.53 195.37 124.632 195.034 124.824 194.776V194.782Z" fill="#0B1A47"/>
<path opacity="0.2" d="M120.972 189.604L123.42 192.226L126.894 188.848L124.476 186.256L120.972 189.604Z" fill="#0B1A47"/>
<path d="M84.552 92.1879C84.552 92.1879 92.304 133.006 94.32 148.834C95.526 158.29 121.98 192.334 121.98 192.334L126.498 187.576C126.498 187.576 116.814 162.652 105.15 147.868C104.688 130.534 106.656 102.016 99.96 92.5059L84.552 92.1819V92.1879Z" fill="#50B1AF"/>
<path d="M77.748 60.9041C77.742 64.4141 77.58 67.8521 77.328 71.3201C77.082 74.7881 76.7279 78.2501 76.1699 81.7361L76.068 82.3901L75.93 83.1281C75.828 83.6141 75.714 84.0881 75.582 84.5501C75.318 85.4681 75.012 86.3441 74.688 87.2021C74.034 88.9121 73.26 90.5201 72.45 92.0981C70.8 95.2421 68.958 98.1821 66.876 101.038C66.39 101.698 65.46 101.848 64.8 101.362C64.218 100.936 64.038 100.168 64.326 99.5381L64.344 99.5021C65.754 96.4541 67.122 93.3281 68.31 90.2321C68.916 88.6841 69.444 87.1181 69.9 85.5881C70.122 84.8201 70.314 84.0581 70.458 83.3081C70.536 82.9361 70.596 82.5701 70.6439 82.2161L70.7039 81.6821L70.764 81.0581C71.076 77.7401 71.25 74.3621 71.418 70.9841C71.556 67.6121 71.664 64.1981 71.766 60.8501V60.8201C71.814 59.1701 73.1939 57.8681 74.8439 57.9161C76.4639 57.9641 77.748 59.3021 77.748 60.9101V60.9041Z" fill="#E2988F"/>
<path d="M75.792 56.524C68.424 58.678 69.372 72.076 69.372 72.076L79.848 74.896C79.848 74.896 81.588 65.08 81.432 61.558C81.27 57.898 79.854 55.33 75.792 56.518V56.524Z" fill="#50B1AF"/>
<path d="M65.112 98.752L61.428 101.89L66.6 104.002C66.6 104.002 68.202 101.56 67.458 99.244L65.112 98.752Z" fill="#E2988F"/>
<path d="M62.0759 106.684L64.4399 106.978C64.9799 107.044 65.4959 106.738 65.6999 106.234L66.5999 104.002L61.4279 101.89L61.0319 105.358C60.9599 106.012 61.4219 106.6 62.0759 106.684Z" fill="#E2988F"/>
<path d="M73.41 60.0098C73.086 73.4498 76.17 83.2598 76.206 92.0198L99.966 92.5178C99.786 83.7398 99.864 78.0218 103.638 62.2958C104.334 59.4038 102.402 56.5418 99.462 56.1038C98.04 55.8938 96.456 55.7018 94.86 55.5878C90.864 55.3118 87.594 55.1138 84.072 55.3598C81.54 55.5398 78.816 55.9058 76.866 56.2058C74.958 56.4998 73.458 58.0838 73.41 60.0098Z" fill="#50B1AF"/>
<path d="M95.55 72.4119L88.512 72.3699C88.2 72.3699 87.972 72.1239 88.008 71.8299L88.398 68.4879C88.434 68.1939 88.716 67.9539 89.028 67.9539L96.066 67.9959C96.378 67.9959 96.6 68.2419 96.57 68.5359L96.18 71.8779C96.144 72.1719 95.862 72.4119 95.55 72.4119Z" fill="white"/>
<path opacity="0.4" d="M84.066 55.36C84.066 55.36 80.19 58.078 84.282 64.876C90.3 59.086 94.854 55.582 94.854 55.582L84.066 55.354V55.36Z" fill="white"/>
<path d="M94.038 43.4199C93.282 46.8759 92.472 53.2239 94.854 55.5879C94.854 55.5879 89.586 57.4419 84.648 61.8759C82.02 57.0459 84.066 55.3659 84.066 55.3659C87.954 54.5199 87.918 51.6459 87.3 48.9399L94.038 43.4259V43.4199Z" fill="#E2988F"/>
<path opacity="0.2" d="M93.306 44.02C93.234 45.046 93.072 47.386 91.74 49.948C91.086 51.208 89.358 51.754 87.582 51.85C87.672 50.932 87.522 49.924 87.3 48.94L93.306 44.026V44.02Z" fill="#0B1A47"/>
<path d="M99.6601 39.1899C97.8841 44.7159 97.2481 47.0979 93.6781 49.2579C88.3081 52.5039 81.9061 49.1139 81.9961 43.1679C82.0741 37.8159 84.9661 29.6739 91.0381 28.8399C97.0141 28.0179 101.442 33.6639 99.6661 39.1959L99.6601 39.1899Z" fill="#E2988F"/>
<path d="M84.99 31.9181C87.984 32.7641 95.298 33.3941 96.762 32.5001C95.388 34.6181 96.696 40.3841 98.82 41.7881C101.682 39.4841 102.318 33.9281 99.672 31.1801C97.026 28.4321 88.662 25.1501 84.99 31.9181Z" fill="#0B1A47"/>
<path d="M100.5 42.5739C100.092 43.7079 99.192 44.5419 98.292 44.9439C96.936 45.5499 96.036 44.3919 96.228 42.9939C96.402 41.7339 97.32 39.9039 98.772 39.8859C100.2 39.8679 100.968 41.2779 100.5 42.5739Z" fill="#E2988F"/>
<path d="M100.344 91.126L101.37 93.274C101.448 93.442 101.25 93.604 100.974 93.598L76.062 93.076C75.846 93.076 75.672 92.962 75.66 92.83L75.492 90.7C75.48 90.55 75.666 90.43 75.9 90.436L99.96 90.94C100.134 90.94 100.29 91.018 100.344 91.126Z" fill="#0B1A47"/>
<path d="M97.062 93.7479L97.704 93.7599C97.83 93.7599 97.932 93.6999 97.926 93.6159L97.68 90.8439C97.674 90.7599 97.56 90.6939 97.434 90.6939L96.792 90.6819C96.666 90.6819 96.564 90.7419 96.57 90.8259L96.816 93.5979C96.822 93.6819 96.936 93.7479 97.062 93.7479Z" fill="#50B1AF"/>
<path d="M77.868 93.346L78.51 93.358C78.636 93.358 78.738 93.298 78.732 93.214L78.486 90.442C78.48 90.358 78.366 90.292 78.24 90.292L77.598 90.28C77.472 90.28 77.37 90.34 77.376 90.424L77.622 93.196C77.628 93.28 77.742 93.346 77.868 93.346Z" fill="#50B1AF"/>
<path d="M87.462 93.5499L88.104 93.5619C88.23 93.5619 88.332 93.5019 88.326 93.4179L88.08 90.6459C88.074 90.5619 87.96 90.4959 87.834 90.4959L87.192 90.4839C87.066 90.4839 86.964 90.5439 86.97 90.6279L87.216 93.3999C87.222 93.4839 87.336 93.5499 87.462 93.5499Z" fill="#50B1AF"/>
<path d="M91.0259 38.728C90.9119 39.184 90.5699 39.496 90.2759 39.418C89.9759 39.34 89.8319 38.908 89.9459 38.452C90.0599 37.996 90.4019 37.684 90.6959 37.762C90.9959 37.84 91.1399 38.272 91.0259 38.728Z" fill="#0B1A47"/>
<path d="M85.8539 37.4079C85.7399 37.8639 85.3979 38.1759 85.1039 38.0979C84.8099 38.0199 84.6599 37.5879 84.7739 37.1319C84.8879 36.6759 85.2299 36.3639 85.5239 36.4419C85.8239 36.5199 85.9679 36.9519 85.8539 37.4079Z" fill="#0B1A47"/>
<path d="M85.65 36.502L84.63 35.908C84.63 35.908 84.972 36.91 85.65 36.502Z" fill="#0B1A47"/>
<path d="M87.018 38.542C87.018 38.542 85.74 40.312 84.642 41.044C85.104 41.764 86.196 41.764 86.196 41.764L87.018 38.542Z" fill="#C46966"/>
<path d="M87.288 43.564C87.246 43.528 87.228 43.474 87.24 43.42C87.264 43.348 87.336 43.306 87.414 43.324C89.394 43.9 90.738 42.784 90.75 42.772C90.81 42.724 90.894 42.73 90.948 42.79C90.996 42.85 90.99 42.934 90.936 42.988C90.876 43.036 89.472 44.218 87.342 43.594C87.324 43.594 87.306 43.582 87.294 43.57L87.288 43.564Z" fill="#0B1A47"/>
<path d="M93.846 36.616C93.81 36.586 93.78 36.55 93.756 36.502C93.276 35.362 92.274 35.17 92.262 35.164C92.112 35.134 92.01 34.99 92.04 34.84C92.07 34.69 92.214 34.588 92.364 34.618C92.418 34.63 93.672 34.87 94.266 36.286C94.326 36.43 94.26 36.592 94.116 36.652C94.02 36.694 93.918 36.676 93.84 36.616H93.846Z" fill="#0B1A47"/>
<path d="M84.834 34.4919C84.834 34.4919 84.81 34.4679 84.798 34.4559C84.696 34.3419 84.702 34.1679 84.816 34.0659C85.956 33.0399 87.198 33.3519 87.246 33.3699C87.396 33.4119 87.48 33.5619 87.444 33.7059C87.402 33.8559 87.252 33.9399 87.108 33.9039C87.06 33.8919 86.094 33.6639 85.188 34.4799C85.086 34.5699 84.936 34.5759 84.834 34.4919Z" fill="#0B1A47"/>
<path d="M103.626 60.3458C105.372 62.6558 107.004 64.9838 108.594 67.4018C109.374 68.6138 110.16 69.8318 110.898 71.1038C111.636 72.3878 112.374 73.6358 113.034 75.1718C113.202 75.5678 113.364 75.9698 113.52 76.5098C113.598 76.7858 113.682 77.0918 113.724 77.5838C113.736 77.7218 113.742 77.8238 113.736 78.0218L113.718 78.2918C113.712 78.3818 113.688 78.5318 113.664 78.6458L113.622 78.8318L113.598 78.9158V78.9338L113.568 78.9998L113.52 79.1318C113.244 79.8518 113.016 80.5718 112.686 81.2738C112.092 82.6898 111.342 84.0578 110.502 85.3718C109.632 86.6678 108.636 87.9038 107.466 88.9898C106.896 89.5418 106.248 90.0278 105.582 90.4838C105.246 90.7058 104.898 90.9218 104.532 91.1198C104.346 91.2218 104.16 91.3118 103.962 91.3958C103.752 91.4858 103.596 91.5578 103.284 91.6658L102.138 88.9298C102.15 88.8998 102.306 88.7918 102.396 88.7078L102.726 88.4198C102.948 88.2218 103.164 88.0058 103.374 87.7838C103.794 87.3278 104.184 86.8478 104.55 86.3378C105.282 85.3178 105.912 84.2138 106.464 83.0678C106.716 82.4738 106.992 81.9038 107.202 81.2858C107.448 80.6918 107.646 80.0738 107.838 79.4558C108.048 78.8438 108.18 78.1958 108.366 77.5718L108.396 77.4518L108.414 77.3918V77.3798L108.402 77.4278L108.372 77.5478C108.354 77.6198 108.342 77.7278 108.336 77.7758C108.33 77.8178 108.324 77.8658 108.324 77.9078C108.324 78.0218 108.324 78.0338 108.324 78.0818C108.33 78.2198 108.33 78.1778 108.3 78.1178C108.246 77.9798 108.132 77.7278 108 77.4818C107.454 76.4498 106.722 75.2738 105.978 74.1458C105.222 73.0118 104.448 71.8598 103.644 70.7258C102.06 68.4458 100.416 66.1538 98.808 63.8978L103.62 60.3398L103.626 60.3458Z" fill="#E2988F"/>
<path d="M104.928 90.922L100.302 94.192L98.226 89.464C98.226 89.464 101.028 87.964 103.248 88.966L104.934 90.922H104.928Z" fill="#E2988F"/>
<path d="M97.08 94.5819L95.928 92.9679C95.466 92.3199 95.604 91.4259 96.24 90.9519L98.232 89.4639L100.308 94.1919L99.036 94.9779C98.382 95.3799 97.53 95.2059 97.08 94.5819Z" fill="#E2988F"/>
<path d="M94.368 58.9181C92.79 65.1641 102.486 75.8501 102.486 75.8501L110.64 67.3901C110.64 67.3901 106.92 59.4341 102.054 56.9381C98.658 55.1921 95.064 56.1641 94.368 58.9181Z" fill="#50B1AF"/>
<path d="M90.822 37.822L89.802 37.228C89.802 37.228 90.144 38.23 90.822 37.822Z" fill="#0B1A47"/>
<path d="M80.376 75.6039C80.292 75.6039 80.208 75.5499 80.178 75.4659C80.136 75.3579 80.19 75.2319 80.304 75.1899L81.24 74.8359C83.034 74.1519 84.204 72.4719 84.216 70.5519L84.282 61.7799C84.294 60.0879 83.1 59.1879 82.074 58.9299C81.048 58.6719 79.572 58.9059 78.786 60.4119L74.73 68.1879C73.842 69.8919 74.088 71.9199 75.348 73.3659L76.008 74.1219C76.086 74.2119 76.074 74.3499 75.99 74.4219C75.9 74.4999 75.768 74.4939 75.69 74.4039L75.03 73.6479C73.65 72.0699 73.386 69.8499 74.352 67.9899L78.408 60.2139C79.146 58.7979 80.628 58.1319 82.182 58.5159C83.736 58.8999 84.726 60.1839 84.714 61.7859L84.648 70.5579C84.63 72.6579 83.358 74.4939 81.396 75.2379L80.46 75.5919C80.46 75.5919 80.406 75.6039 80.382 75.6039H80.376Z" fill="#0B1A47"/>
<path d="M84.474 63.7241C84.36 63.7241 84.264 63.6341 84.258 63.5141C84.222 61.8041 82.836 60.8561 81.66 60.5621C80.484 60.2681 78.816 60.4541 77.982 61.9481C77.922 62.0501 77.79 62.0861 77.688 62.0321C77.586 61.9721 77.55 61.8401 77.604 61.7381C78.39 60.3341 80.022 59.7101 81.762 60.1421C83.502 60.5741 84.648 61.8941 84.684 63.5021C84.684 63.6221 84.594 63.7181 84.474 63.7241Z" fill="#0B1A47"/>
<path d="M82.134 58.936C82.062 58.936 81.996 58.9 81.954 58.84C81.744 58.51 81.75 57.934 81.978 57.292C82.338 56.266 83.094 55.468 84 55.156C84.114 55.12 84.234 55.18 84.27 55.288C84.306 55.402 84.246 55.522 84.138 55.558C82.98 55.948 82.5 57.088 82.38 57.424C82.182 57.994 82.206 58.426 82.314 58.594C82.38 58.696 82.35 58.828 82.248 58.888C82.212 58.912 82.17 58.924 82.134 58.924V58.936Z" fill="#0B1A47"/>
<path d="M79.908 75.2678C79.812 75.6578 79.938 76.0298 80.202 76.0958C80.46 76.1618 80.748 75.8918 80.85 75.5018C80.946 75.1118 80.82 74.7398 80.556 74.6738C80.292 74.6078 80.01 74.8778 79.908 75.2678Z" fill="#0B1A47"/>
<path d="M96.936 64.9121C97.134 65.8181 97.776 66.4421 98.37 66.3101C98.964 66.1781 99.288 65.3441 99.09 64.4381C98.892 63.5321 98.25 62.9081 97.656 63.0401C97.062 63.1721 96.738 64.0061 96.936 64.9121Z" fill="#0B1A47"/>
<path d="M98.814 64.6418C98.7 64.6418 98.604 64.5518 98.598 64.4378C98.472 61.1198 97.218 56.9978 94.758 55.7798C94.65 55.7258 94.608 55.5998 94.662 55.4918C94.716 55.3838 94.842 55.3418 94.95 55.3958C97.578 56.6978 98.892 60.8678 99.024 64.4198C99.024 64.5398 98.934 64.6358 98.82 64.6418H98.814Z" fill="#0B1A47"/>
<path d="M96.294 64.984C96.42 65.758 96.978 66.316 97.542 66.22C98.106 66.124 98.46 65.428 98.334 64.648C98.208 63.868 97.65 63.316 97.086 63.412C96.522 63.508 96.168 64.204 96.294 64.984Z" fill="white"/>
<path d="M96.2459 65.056C96.4319 66.016 96.9299 66.724 97.3679 66.64C97.8059 66.556 98.0099 65.71 97.8239 64.756C97.6379 63.802 97.1399 63.088 96.7019 63.172C96.2639 63.256 96.0599 64.102 96.2459 65.056Z" fill="#0B1A47"/>
<path d="M75.372 74.1398C75.276 74.5298 75.402 74.9018 75.666 74.9678C75.924 75.0338 76.212 74.7638 76.314 74.3738C76.41 73.9838 76.284 73.6118 76.02 73.5458C75.762 73.4798 75.474 73.7498 75.372 74.1398Z" fill="#0B1A47"/>
<path d="M141.096 25.282C137.292 25.96 136.812 25.612 136.764 22.894C136.716 20.176 135.336 15.61 137.262 14.182C138.486 13.276 138.984 14.686 138.984 14.686C139.26 14.068 139.944 13.72 140.544 13.966C140.628 13.402 140.718 11.956 141.768 11.536C142.824 11.116 143.748 12.076 143.748 12.076C143.748 12.076 143.67 9.85601 145.17 10.066C146.67 10.276 146.97 11.83 146.97 11.83C146.97 11.83 147.84 10.57 149.01 11.068C150.18 11.566 149.946 13.018 149.946 13.018C149.946 13.018 151.194 12.424 152.118 13.102C153.042 13.78 152.364 14.86 152.364 14.86C152.364 14.86 153.204 12.7 154.806 13.9C156.246 14.98 154.944 16.666 154.944 16.666C154.944 16.666 156.528 16.408 156.906 17.206C158.208 19.924 153.264 22.96 153.108 27.55C145.524 30.454 141.09 25.288 141.09 25.288L141.096 25.282Z" fill="#0B1A47"/>
<path d="M113.724 98.206L111.192 97.738L107.844 100.936C107.478 101.284 107.274 101.776 107.286 102.28L107.334 104.896C107.352 105.82 108.066 106.588 108.984 106.666L110.148 106.768C111.024 106.846 111.828 106.288 112.056 105.436L112.638 103.3C112.638 103.3 115.956 99.406 113.724 98.194V98.206Z" fill="#E2A88F"/>
<path d="M139.296 50.386C137.598 54.784 135.906 59.2 134.274 63.622C132.624 68.032 131.022 72.502 129.504 76.876L129.228 77.686L129.042 78.214C128.97 78.412 128.898 78.616 128.826 78.778C128.544 79.486 128.262 80.08 127.98 80.674C127.422 81.85 126.852 82.948 126.27 84.028C125.112 86.188 123.918 88.276 122.712 90.346C120.318 94.504 117.882 98.566 115.434 102.688L107.79 97.936C110.31 94.018 112.74 89.974 115.068 85.948C116.214 83.92 117.342 81.886 118.392 79.87C118.914 78.862 119.424 77.854 119.862 76.888C120.072 76.414 120.282 75.928 120.426 75.532C120.468 75.418 120.492 75.346 120.516 75.262L120.618 74.95L120.888 74.074C122.334 69.472 123.858 65.02 125.316 60.502L129.714 46.99L139.29 50.386H139.296Z" fill="#50B1AF"/>
<path opacity="0.6" d="M139.296 50.386C137.598 54.784 135.906 59.2 134.274 63.622C132.624 68.032 131.022 72.502 129.504 76.876L129.228 77.686L129.042 78.214C128.97 78.412 128.898 78.616 128.826 78.778C128.544 79.486 128.262 80.08 127.98 80.674C127.422 81.85 126.852 82.948 126.27 84.028C125.112 86.188 123.918 88.276 122.712 90.346C120.318 94.504 117.882 98.566 115.434 102.688L107.79 97.936C110.31 94.018 112.74 89.974 115.068 85.948C116.214 83.92 117.342 81.886 118.392 79.87C118.914 78.862 119.424 77.854 119.862 76.888C120.072 76.414 120.282 75.928 120.426 75.532C120.468 75.418 120.492 75.346 120.516 75.262L120.618 74.95L120.888 74.074C122.334 69.472 123.858 65.02 125.316 60.502L129.714 46.99L139.29 50.386H139.296Z" fill="white"/>
<path d="M116.412 210.976L111.03 211.24L113.574 197.224L118.692 198.4L116.412 210.976Z" fill="#E2A88F"/>
<path d="M155.022 211.174H149.64L149.658 198.718H155.034L155.022 211.174Z" fill="#E2A88F"/>
<path d="M149.13 210.55H155.688C155.91 210.55 156.09 210.7 156.132 210.916L156.996 215.698C157.086 216.196 156.678 216.664 156.168 216.652C154.062 216.616 152.526 216.49 149.868 216.49C148.23 216.49 143.292 216.658 141.036 216.658C138.78 216.658 138.576 214.426 139.506 214.222C143.688 213.316 146.862 212.062 148.242 210.874C148.488 210.658 148.806 210.544 149.13 210.544V210.55Z" fill="#0B1A47"/>
<path opacity="0.2" d="M113.574 197.23L112.398 203.71L117.516 204.886L118.692 198.406L113.574 197.23Z" fill="#0B1A47"/>
<path opacity="0.2" d="M155.034 198.718H149.652V205.138H155.034V198.718Z" fill="#0B1A47"/>
<path d="M159.366 50.236C155.178 69.13 156.282 87.778 155.832 91.816C151.62 91.546 135.762 90.496 127.116 89.92C124.128 67.15 127.464 52.576 129.366 46.612C130.008 44.608 131.736 43.144 133.824 42.88C137.316 42.43 142.212 42.28 146.688 42.478C149.628 42.604 152.76 43.186 155.304 43.786C158.202 44.47 160.008 47.338 159.366 50.242V50.236Z" fill="#50B1AF"/>
<path d="M150.708 29.6621C149.766 33.2201 148.638 39.5261 150.444 42.7061C150.726 43.2041 150.18 43.6301 150.162 44.2061C150.096 45.9701 147.708 46.4981 143.436 46.5221C139.122 46.5461 137.334 44.7641 138.498 43.0841C138.678 42.8261 138.948 42.6641 139.254 42.5921C143.256 41.6981 143.334 38.5601 142.794 35.5661L150.708 29.6621Z" fill="#E2A88F"/>
<path opacity="0.4" d="M143.13 45.5441C143.13 45.5441 144.84 47.7101 145.2 50.8121C149.466 48.8081 151.5 43.9421 151.5 43.9421L150.216 42.5681C150.216 42.5681 145.476 43.4861 143.13 45.5441Z" fill="#0B1A47"/>
<path opacity="0.4" d="M142.71 45.562C142.71 45.562 140.814 46.9121 138.804 50.1461C135.822 48.3041 136.812 43.024 136.812 43.024L139.242 42.55C139.242 42.55 140.322 43.552 142.716 45.568L142.71 45.562Z" fill="#0B1A47"/>
<path d="M142.902 45.4421L141.978 45.5321L140.43 46.5581C140.34 47.2121 140.418 47.8241 140.742 48.3881C140.742 48.3881 142.242 48.6941 143.484 48.5741C144.594 47.9681 144.87 47.1461 144.87 47.1461L143.73 45.6881L142.908 45.4481L142.902 45.4421Z" fill="#0B1A47"/>
<path d="M142.902 45.4421C142.902 45.4421 144.606 47.4341 145.512 50.2781C149.778 48.2741 152.262 43.4801 152.262 43.4801L150.204 41.6621C150.204 41.6621 145.248 43.3721 142.902 45.4361V45.4421Z" fill="#50B1AF"/>
<path d="M142.902 45.4421C142.902 45.4421 140.736 46.6601 138.648 49.3781C135.666 47.5361 136.8 42.5741 136.8 42.5741L139.23 42.1001C139.23 42.1001 140.514 43.4321 142.902 45.4481V45.4421Z" fill="#50B1AF"/>
<path opacity="0.2" d="M147.48 32.0681L142.794 35.5601C142.932 36.2921 143.022 37.0361 143.028 37.7501C144.72 37.6181 147.138 35.9321 147.432 34.1921C147.576 33.3221 147.6 32.4821 147.48 32.0681Z" fill="#0B1A47"/>
<path d="M151.566 23.7821C150.888 29.0801 150.762 32.2121 147.894 34.7681C143.58 38.6081 137.178 35.7401 136.26 30.3461C135.432 25.4921 136.68 17.6441 142.026 15.8741C147.294 14.1281 152.244 18.4901 151.566 23.7881V23.7821Z" fill="#E2A88F"/>
<path d="M150.27 28.5701C149.04 27.4121 149.82 21.8681 150.426 20.2781C147.42 20.5661 137.73 20.5541 138.096 17.8781C138.462 15.2021 141.984 12.9281 147.75 14.8061C152.562 16.3721 153.756 18.7661 153.78 20.7221C153.828 24.7421 150.27 28.5701 150.27 28.5701Z" fill="#0B1A47"/>
<path d="M153.426 28.636C152.808 29.824 151.728 30.616 150.714 30.928C149.184 31.402 148.428 29.992 148.86 28.48C149.25 27.118 150.51 25.234 152.046 25.42C153.552 25.606 154.134 27.274 153.426 28.63V28.636Z" fill="#E2A88F"/>
<path d="M110.646 202.066L119.544 204.028C119.544 204.028 128.196 170.116 130.77 153.55C131.55 148.51 133.374 141.316 135.036 133.738C137.13 124.192 139.77 113.872 141.93 105.79C144.21 97.2761 145.902 91.1561 145.902 91.1561L127.122 89.9141C127.122 89.9141 118.38 134.26 116.61 150.586C114.768 167.56 110.652 202.06 110.652 202.06L110.646 202.066Z" fill="#0B1A47"/>
<path opacity="0.2" d="M135.036 133.738C137.13 124.192 139.77 113.872 141.93 105.79L139.956 101.578C135.294 107.158 134.1 124.384 135.042 133.732L135.036 133.738Z" fill="#0B1A47"/>
<path d="M136.062 90.5081C136.062 90.5081 139.95 135.82 141.486 151.516C143.166 168.7 147.672 203.896 147.672 203.896H156.708C156.708 203.896 157.116 166.408 155.49 149.818C155.262 117.19 155.832 91.8101 155.832 91.8101L136.062 90.5081Z" fill="#0B1A47"/>
<path d="M146.496 204.112H158.1V200.644L146.046 199.972L146.496 204.112Z" fill="#50B1AF"/>
<path d="M109.482 202.024L120.084 204.37L120.84 200.944L109.74 198.142L109.482 202.024Z" fill="#50B1AF"/>
<path d="M143.82 24.73C143.79 25.162 143.538 25.498 143.256 25.48C142.974 25.462 142.764 25.096 142.794 24.664C142.824 24.232 143.076 23.896 143.358 23.914C143.64 23.932 143.85 24.298 143.82 24.73Z" fill="#0B1A47"/>
<path d="M138.924 24.406C138.894 24.838 138.642 25.174 138.36 25.156C138.078 25.138 137.868 24.772 137.898 24.34C137.928 23.908 138.18 23.572 138.462 23.59C138.744 23.608 138.954 23.974 138.924 24.406Z" fill="#0B1A47"/>
<path d="M140.046 24.73C140.046 24.73 138.894 27.166 137.73 28.3C138.45 29.068 139.776 28.828 139.776 28.828L140.046 24.736V24.73Z" fill="#C47766"/>
<path d="M141.528 30.1C143.19 29.986 144.03 28.894 144.066 28.84C144.108 28.786 144.096 28.702 144.042 28.66C143.988 28.618 143.904 28.63 143.862 28.684C143.85 28.696 142.872 29.968 140.976 29.842C140.904 29.842 140.844 29.89 140.838 29.962C140.838 30.034 140.886 30.094 140.958 30.1C141.156 30.112 141.342 30.112 141.522 30.1H141.528Z" fill="#0B1A47"/>
<path d="M145.014 23.2539C145.056 23.2539 145.098 23.2359 145.134 23.2119C145.254 23.1339 145.284 22.9779 145.206 22.8579C144.432 21.6819 143.256 21.6699 143.202 21.6699C143.058 21.6699 142.95 21.7839 142.95 21.9279C142.95 22.0659 143.064 22.1799 143.202 22.1799C143.238 22.1799 144.156 22.1979 144.774 23.1339C144.828 23.2119 144.918 23.2539 145.002 23.2479L145.014 23.2539Z" fill="#0B1A47"/>
<path d="M136.506 22.588C136.59 22.588 136.668 22.534 136.71 22.462C137.268 21.484 138.18 21.412 138.222 21.406C138.36 21.394 138.468 21.274 138.462 21.136C138.45 20.998 138.336 20.89 138.192 20.896C138.144 20.896 136.968 20.98 136.272 22.204C136.2 22.324 136.242 22.48 136.368 22.552C136.416 22.576 136.464 22.588 136.512 22.582L136.506 22.588Z" fill="#0B1A47"/>
<path d="M147.312 211.492C147.81 211.492 148.35 211.39 148.728 211.3C148.776 211.288 148.818 211.246 148.83 211.198C148.842 211.15 148.818 211.096 148.776 211.072C148.584 210.952 146.892 209.884 146.286 210.19C146.19 210.238 146.076 210.34 146.052 210.55C146.022 210.838 146.1 211.06 146.286 211.222C146.52 211.426 146.904 211.498 147.312 211.498V211.492ZM148.368 211.12C147.444 211.306 146.748 211.27 146.46 211.024C146.334 210.916 146.286 210.766 146.304 210.562C146.316 210.46 146.358 210.43 146.388 210.412C146.706 210.256 147.672 210.712 148.362 211.12H148.368Z" fill="#50B1AF"/>
<path d="M148.698 211.306C148.698 211.306 148.746 211.3 148.77 211.288C148.812 211.264 148.836 211.216 148.83 211.174C148.83 211.108 148.764 209.554 148.158 209.044C148.002 208.912 147.822 208.858 147.624 208.882C147.318 208.918 147.228 209.11 147.204 209.218C147.066 209.818 148.092 210.994 148.638 211.3C148.656 211.312 148.68 211.318 148.698 211.318V211.306ZM147.702 209.122C147.804 209.122 147.9 209.158 147.99 209.236C148.38 209.566 148.512 210.466 148.554 210.922C148.02 210.502 147.366 209.614 147.45 209.254C147.456 209.224 147.474 209.146 147.642 209.128C147.642 209.128 147.678 209.128 147.702 209.128V209.122Z" fill="#50B1AF"/>
<path d="M110.226 208.864L116.538 210.652C116.748 210.712 116.886 210.91 116.862 211.126L116.394 215.962C116.346 216.466 115.824 216.802 115.338 216.658C113.316 216.046 111.876 215.512 109.32 214.786C107.748 214.342 102.63 212.506 100.764 211.234C98.94 209.986 99.99 208 100.878 208.36C104.844 209.974 107.634 209.71 109.284 208.942C109.584 208.804 109.92 208.78 110.226 208.864Z" fill="#0B1A47"/>
<path d="M108.216 209.278C108.696 209.416 109.242 209.464 109.632 209.476C109.686 209.476 109.734 209.452 109.758 209.404C109.782 209.356 109.776 209.302 109.74 209.266C109.59 209.098 108.252 207.61 107.586 207.736C107.484 207.754 107.34 207.82 107.262 208.018C107.154 208.282 107.172 208.522 107.304 208.732C107.472 208.99 107.82 209.164 108.216 209.278ZM109.332 209.206C108.396 209.134 107.73 208.906 107.526 208.594C107.436 208.456 107.43 208.294 107.502 208.108C107.538 208.018 107.586 207.994 107.628 207.988C107.976 207.922 108.78 208.63 109.332 209.206Z" fill="#50B1AF"/>
<path d="M109.602 209.47C109.602 209.47 109.65 209.476 109.674 209.47C109.722 209.458 109.752 209.422 109.764 209.374C109.782 209.308 110.142 207.796 109.698 207.142C109.584 206.974 109.422 206.866 109.224 206.836C108.918 206.788 108.786 206.944 108.732 207.046C108.438 207.586 109.104 209.002 109.548 209.44C109.566 209.452 109.584 209.464 109.602 209.47ZM109.236 207.1C109.338 207.13 109.416 207.19 109.482 207.286C109.764 207.706 109.65 208.612 109.566 209.062C109.164 208.51 108.78 207.478 108.96 207.16C108.978 207.13 109.014 207.064 109.182 207.088C109.182 207.088 109.218 207.094 109.236 207.1Z" fill="#50B1AF"/>
<path d="M150.798 42.238C150.522 42.19 150.288 42.412 150.306 42.694C150.516 45.91 145.488 51.676 144.318 69.01C143.604 79.552 142.95 112.396 143.43 129.484C143.46 130.444 144.384 131.116 145.308 130.858C154.164 128.386 158.346 134.38 160.05 127.312C159.954 118.846 157.392 88.45 158.052 81.25C158.712 74.044 161.454 54.46 162.138 49.246C162.732 44.71 153.27 42.688 150.792 42.238H150.798Z" fill="#50B1AF"/>
<path opacity="0.7" d="M150.798 42.238C150.522 42.19 150.288 42.412 150.306 42.694C150.516 45.91 145.488 51.676 144.318 69.01C143.604 79.552 142.95 112.396 143.43 129.484C143.46 130.444 144.384 131.116 145.308 130.858C154.164 128.386 158.346 134.38 160.05 127.312C159.954 118.846 157.392 88.45 158.052 81.25C158.712 74.044 161.454 54.46 162.138 49.246C162.732 44.71 153.27 42.688 150.792 42.238H150.798Z" fill="white"/>
<path opacity="0.2" d="M156.636 56.9141C156.246 59.5901 156.096 70.4081 158.676 75.6041C159.108 72.0281 159.666 67.7261 160.218 63.5921L156.636 56.9141Z" fill="#50B1AF"/>
<path d="M160.314 103.678L157.758 103.978L155.496 108.022C155.25 108.466 155.196 108.988 155.352 109.474L156.168 111.958C156.456 112.84 157.362 113.362 158.268 113.17L159.408 112.93C160.266 112.75 160.872 111.976 160.842 111.1L160.77 108.886C160.77 108.886 162.798 104.188 160.308 103.684L160.314 103.678Z" fill="#E2A88F"/>
<path d="M161.718 47.23C162.528 49.642 163.29 52 164.034 54.394C164.784 56.782 165.534 59.176 166.242 61.594C166.944 64.012 167.634 66.448 168.264 68.944C168.576 70.198 168.876 71.464 169.134 72.79C169.266 73.456 169.386 74.134 169.488 74.854C169.536 75.226 169.59 75.568 169.626 75.982L169.68 76.576L169.704 77.254C169.716 77.476 169.704 77.71 169.704 77.944C169.698 78.178 169.686 78.412 169.668 78.598L169.62 79.192L169.554 79.732C169.464 80.452 169.356 81.118 169.254 81.778C169.038 83.086 168.786 84.346 168.528 85.594C168.012 88.09 167.436 90.526 166.854 92.962C166.284 95.398 165.69 97.816 165.078 100.234L163.26 107.488L154.578 105.13C155.922 100.444 157.146 95.668 158.28 90.934C158.832 88.558 159.354 86.182 159.816 83.836C160.044 82.666 160.26 81.496 160.434 80.368C160.518 79.81 160.596 79.252 160.644 78.742C160.704 78.196 160.71 77.812 160.698 77.524L160.68 77.272L160.638 76.948C160.62 76.744 160.566 76.48 160.53 76.24C160.446 75.736 160.338 75.202 160.212 74.662C159.966 73.57 159.672 72.442 159.354 71.308C158.724 69.034 157.992 66.73 157.218 64.438C155.688 59.854 153.966 55.24 152.184 50.752L161.718 47.236V47.23Z" fill="#50B1AF"/>
<path opacity="0.7" d="M161.718 47.23C162.528 49.642 163.29 52 164.034 54.394C164.784 56.782 165.534 59.176 166.242 61.594C166.944 64.012 167.634 66.448 168.264 68.944C168.576 70.198 168.876 71.464 169.134 72.79C169.266 73.456 169.386 74.134 169.488 74.854C169.536 75.226 169.59 75.568 169.626 75.982L169.68 76.576L169.704 77.254C169.716 77.476 169.704 77.71 169.704 77.944C169.698 78.178 169.686 78.412 169.668 78.598L169.62 79.192L169.554 79.732C169.464 80.452 169.356 81.118 169.254 81.778C169.038 83.086 168.786 84.346 168.528 85.594C168.012 88.09 167.436 90.526 166.854 92.962C166.284 95.398 165.69 97.816 165.078 100.234L163.26 107.488L154.578 105.13C155.922 100.444 157.146 95.668 158.28 90.934C158.832 88.558 159.354 86.182 159.816 83.836C160.044 82.666 160.26 81.496 160.434 80.368C160.518 79.81 160.596 79.252 160.644 78.742C160.704 78.196 160.71 77.812 160.698 77.524L160.68 77.272L160.638 76.948C160.62 76.744 160.566 76.48 160.53 76.24C160.446 75.736 160.338 75.202 160.212 74.662C159.966 73.57 159.672 72.442 159.354 71.308C158.724 69.034 157.992 66.73 157.218 64.438C155.688 59.854 153.966 55.24 152.184 50.752L161.718 47.236V47.23Z" fill="white"/>
<path d="M139.128 41.788C139.716 41.776 140.058 42.472 139.674 42.922C138.246 44.578 137.346 46.852 135.654 54.148C133.614 62.95 129.27 107.236 128.448 128.938C128.418 129.7 127.722 130.252 126.978 130.114C122.748 129.334 119.838 131.386 119.382 128.668C118.872 125.656 120.774 97.012 124.326 83.53C123.768 71.578 125.784 47.602 129.816 44.422C132.03 42.676 136.65 41.842 139.128 41.788Z" fill="#50B1AF"/>
<path opacity="0.7" d="M139.128 41.788C139.716 41.776 140.058 42.472 139.674 42.922C138.246 44.578 137.346 46.852 135.654 54.148C133.614 62.95 129.27 107.236 128.448 128.938C128.418 129.7 127.722 130.252 126.978 130.114C122.748 129.334 119.838 131.386 119.382 128.668C118.872 125.656 120.774 97.012 124.326 83.53C123.768 71.578 125.784 47.602 129.816 44.422C132.03 42.676 136.65 41.842 139.128 41.788Z" fill="white"/>
<path d="M141.462 47.7341C141.462 47.7341 136.272 62.3021 134.454 74.5001C134.31 77.8181 135.888 84.2441 137.166 87.0461C139.836 81.2321 141.504 77.8001 141.768 74.5001C142.194 69.5201 142.896 47.8301 142.896 47.8301L141.462 47.7341Z" fill="#0B1A47"/>
<path d="M152.31 65.0561C152.226 65.0561 152.142 65.0081 152.1 64.9301C152.04 64.8161 152.082 64.6721 152.202 64.6061L153.186 64.0901C155.07 63.1061 156.138 61.1021 155.91 58.9841L154.842 49.3181C154.638 47.4521 153.204 46.6181 152.04 46.4681C150.876 46.3181 149.28 46.7681 148.614 48.5201L145.158 57.6101C144.402 59.6021 144.93 61.8041 146.514 63.2321L147.336 63.9761C147.432 64.0661 147.444 64.2161 147.354 64.3121C147.264 64.4081 147.114 64.4141 147.018 64.3301L146.196 63.5861C144.468 62.0261 143.892 59.6141 144.714 57.4421L148.17 48.3521C148.8 46.6961 150.342 45.7721 152.106 45.9941C153.864 46.2161 155.124 47.5001 155.322 49.2641L156.39 58.9361C156.642 61.2461 155.478 63.4361 153.414 64.5101L152.43 65.0261C152.394 65.0441 152.358 65.0501 152.322 65.0501L152.31 65.0561Z" fill="#0B1A47"/>
<path d="M155.286 51.4422C155.172 51.4422 155.07 51.3582 155.052 51.2382C154.788 49.3602 153.138 48.4962 151.806 48.3222C150.474 48.1542 148.662 48.5742 147.936 50.3262C147.888 50.4462 147.744 50.5062 147.624 50.4522C147.504 50.4042 147.444 50.2602 147.498 50.1402C148.182 48.4962 149.892 47.5902 151.872 47.8422C153.846 48.0942 155.28 49.3962 155.526 51.1602C155.544 51.2922 155.454 51.4122 155.322 51.4302C155.31 51.4302 155.298 51.4302 155.286 51.4302V51.4422Z" fill="#0B1A47"/>
<path d="M152.058 46.4681H152.046C151.914 46.4621 151.812 46.3481 151.824 46.2161C151.896 45.0461 151.728 42.9161 150.648 42.3581C150.528 42.2981 150.486 42.1541 150.546 42.0401C150.606 41.9261 150.75 41.8781 150.864 41.9381C152.46 42.7601 152.316 45.8921 152.298 46.2461C152.292 46.3721 152.184 46.4681 152.058 46.4681Z" fill="#0B1A47"/>
<path d="M147.708 64.2281C147.654 64.6721 147.366 65.0021 147.072 64.9661C146.778 64.9301 146.586 64.5401 146.646 64.0901C146.7 63.6461 146.988 63.3161 147.282 63.3521C147.576 63.3881 147.768 63.7781 147.708 64.2281Z" fill="#0B1A47"/>
<path d="M133.758 54.502C133.386 55.456 132.57 56.032 131.94 55.786C131.31 55.54 131.106 54.562 131.478 53.608C131.85 52.654 132.666 52.078 133.296 52.33C133.926 52.582 134.13 53.554 133.758 54.508V54.502Z" fill="#0B1A47"/>
<path d="M131.784 53.878C131.784 53.878 131.754 53.878 131.736 53.878C131.61 53.854 131.526 53.728 131.55 53.596C132.342 49.654 135.618 43.426 138.504 41.608C138.618 41.536 138.762 41.572 138.834 41.68C138.906 41.794 138.87 41.938 138.762 42.01C135.972 43.768 132.792 49.84 132.024 53.686C132 53.8 131.904 53.878 131.79 53.878H131.784Z" fill="#0B1A47"/>
<path d="M134.442 54.694C134.166 55.522 133.458 56.032 132.858 55.828C132.258 55.63 131.994 54.796 132.264 53.968C132.54 53.14 133.248 52.63 133.848 52.834C134.448 53.032 134.712 53.866 134.442 54.694Z" fill="white"/>
<path d="M134.484 54.7781C134.112 55.7981 133.44 56.4821 132.978 56.3141C132.516 56.1461 132.438 55.1861 132.81 54.1661C133.182 53.1461 133.854 52.4621 134.316 52.6301C134.778 52.7981 134.856 53.7581 134.484 54.7781Z" fill="#0B1A47"/>
<path d="M152.844 64.8821C152.79 65.3261 152.502 65.6561 152.208 65.6201C151.914 65.5841 151.722 65.1941 151.782 64.7441C151.836 64.3001 152.124 63.9701 152.418 64.0061C152.712 64.0421 152.904 64.4321 152.844 64.8821Z" fill="#0B1A47"/>
<path d="M186.864 38.8901C188.868 44.3681 183.534 47.1221 180.042 55.1861C176.55 63.2561 184.974 72.8801 197.904 73.0961C210.834 73.3061 211.242 60.9161 209.238 52.0361C207.234 43.1561 211.422 41.7041 210.534 34.9181C209.364 26.0021 196.548 19.2461 191.448 27.4301C186.912 27.0041 185.112 34.1021 186.864 38.8901Z" fill="#0B1A47"/>
<path d="M225.162 112.654L225.138 111.958C225.126 111.622 225.042 111.292 224.886 110.992L222.714 106.714L220.176 106.204C218.382 108.148 220.152 112.012 220.152 112.012V112.648C220.152 113.692 220.842 114.604 221.844 114.892L222.192 114.994C223.722 115.432 225.228 114.25 225.168 112.66L225.162 112.654Z" fill="#E2988F"/>
<path d="M214.38 57.5202L215.316 64.0842L216.3 70.6422C216.624 72.8262 216.966 75.0102 217.314 77.1942L218.352 83.6982L218.478 84.3402C218.514 84.5502 218.592 84.8202 218.646 85.0542L218.826 85.7862L219.036 86.5482C219.306 87.5562 219.618 88.6002 219.93 89.6322C220.554 91.7022 221.214 93.7962 221.892 95.8782C223.278 100.036 224.712 104.212 226.248 108.316L217.77 111.328L213.522 98.6442C212.82 96.5202 212.106 94.4082 211.428 92.2482C211.092 91.1622 210.75 90.0882 210.432 88.9662L210.192 88.1322L209.958 87.2622C209.88 86.9622 209.796 86.6982 209.724 86.3682L209.502 85.3842L208.254 78.8082C207.846 76.6302 207.432 74.4522 207 72.2742L205.71 65.7462L204.372 59.2302L214.386 57.5142L214.38 57.5202Z" fill="#50B1AF"/>
<path opacity="0.6" d="M214.38 57.5202L215.316 64.0842L216.3 70.6422C216.624 72.8262 216.966 75.0102 217.314 77.1942L218.352 83.6982L218.478 84.3402C218.514 84.5502 218.592 84.8202 218.646 85.0542L218.826 85.7862L219.036 86.5482C219.306 87.5562 219.618 88.6002 219.93 89.6322C220.554 91.7022 221.214 93.7962 221.892 95.8782C223.278 100.036 224.712 104.212 226.248 108.316L217.77 111.328L213.522 98.6442C212.82 96.5202 212.106 94.4082 211.428 92.2482C211.092 91.1622 210.75 90.0882 210.432 88.9662L210.192 88.1322L209.958 87.2622C209.88 86.9622 209.796 86.6982 209.724 86.3682L209.502 85.3842L208.254 78.8082C207.846 76.6302 207.432 74.4522 207 72.2742L205.71 65.7462L204.372 59.2302L214.386 57.5142L214.38 57.5202Z" fill="white"/>
<path d="M213.03 57.0101C213.312 60.2141 213.06 68.1641 209.85 87.8921H187.626C187.98 79.3181 188.01 73.8581 184.326 57.5081C183.978 55.9601 185.004 54.4241 186.57 54.1721C188.334 53.8901 190.71 53.5721 193.122 53.4581C196.86 53.2781 199.926 53.1581 203.214 53.4581C205.974 53.7101 208.968 54.2081 210.78 54.5381C212.004 54.7601 212.922 55.7681 213.03 57.0041V57.0101Z" fill="#0B1A47"/>
<path d="M194.124 42.1001C194.76 45.3461 195.396 51.2981 193.122 53.4641C193.122 53.4641 195.966 56.9201 200.316 56.9201C204.666 56.9201 203.214 53.4641 203.214 53.4641C199.596 52.6001 199.686 49.9121 200.316 47.3921L194.118 42.1001H194.124Z" fill="#E2988F"/>
<path opacity="0.2" d="M196.65 44.26L200.316 47.386C200.166 47.986 200.046 48.586 200.004 49.18C198.618 48.982 196.446 47.8 196.146 46.3C196.008 45.586 196.53 44.602 196.644 44.26H196.65Z" fill="#0B1A47"/>
<path d="M190.302 35.722C191.148 41.086 191.394 43.378 194.382 45.886C198.882 49.66 205.284 47.446 206.058 41.938C206.754 36.976 205.248 29.038 199.764 27.394C194.358 25.774 189.456 30.358 190.302 35.722Z" fill="#E2988F"/>
<path d="M191.196 39.5919C194.262 36.5499 195.324 32.3199 195.03 30.5979C197.994 31.4199 200.16 30.2559 200.028 29.7519C202.116 31.7919 205.902 33.3999 205.476 31.2099C205.05 29.0139 202.248 24.9639 196.404 26.3979C190.56 27.8259 188.31 33.8559 188.364 36.2919C188.418 38.7279 191.196 39.5979 191.196 39.5979V39.5919Z" fill="#0B1A47"/>
<path d="M198.024 36.3342C198.066 36.7722 198.33 37.1082 198.618 37.0782C198.906 37.0482 199.104 36.6702 199.062 36.2322C199.02 35.7942 198.756 35.4582 198.468 35.4882C198.18 35.5182 197.982 35.8962 198.024 36.3342Z" fill="#0B1A47"/>
<path d="M202.986 35.8601C203.028 36.2981 203.292 36.6341 203.58 36.6041C203.868 36.5741 204.066 36.1961 204.024 35.7581C203.982 35.3201 203.718 34.9841 203.43 35.0141C203.142 35.0441 202.944 35.4221 202.986 35.8601Z" fill="#0B1A47"/>
<path d="M203.31 35.0501L204.336 34.6421C204.336 34.6421 203.874 35.5181 203.31 35.0501Z" fill="#0B1A47"/>
<path d="M201.534 36.7961C201.534 36.7961 202.458 38.6141 203.37 39.4481C202.842 40.0421 201.834 39.8921 201.834 39.8921L201.54 36.7961H201.534Z" fill="#C46966"/>
<path d="M199.596 41.842C199.8 41.854 200.016 41.848 200.25 41.83C200.322 41.824 200.376 41.758 200.364 41.686C200.358 41.614 200.292 41.56 200.22 41.572C198.288 41.752 197.262 40.498 197.25 40.48C197.208 40.426 197.124 40.414 197.07 40.462C197.016 40.504 197.004 40.588 197.052 40.642C197.094 40.69 197.952 41.746 199.596 41.842Z" fill="#0B1A47"/>
<path d="M189.114 40.0901C189.528 41.1341 190.392 41.8901 191.244 42.2441C192.528 42.7721 193.338 41.6621 193.116 40.3601C192.918 39.1901 192.006 37.5041 190.65 37.5281C189.312 37.5521 188.634 38.8901 189.108 40.0901H189.114Z" fill="#E2988F"/>
<path d="M196.29 34.03C196.392 34.066 196.512 34.042 196.584 33.952C197.34 33.016 198.876 33.106 198.894 33.106C199.038 33.118 199.158 33.004 199.17 32.866C199.182 32.722 199.074 32.602 198.93 32.59C198.858 32.59 197.1 32.488 196.182 33.628C196.092 33.742 196.11 33.904 196.218 33.994C196.242 34.012 196.266 34.024 196.29 34.036V34.03Z" fill="#0B1A47"/>
<path d="M204.792 33.4841C204.882 33.4841 204.966 33.4481 205.02 33.3701C205.098 33.2501 205.068 33.0881 204.948 33.0101C203.76 32.2061 202.65 32.6621 202.608 32.6801C202.476 32.7341 202.416 32.8901 202.47 33.0221C202.524 33.1541 202.674 33.2141 202.812 33.1601C202.854 33.1421 203.718 32.8061 204.666 33.4421C204.708 33.4661 204.75 33.4841 204.798 33.4841H204.792Z" fill="#0B1A47"/>
<path d="M223.644 212.104L229.17 211.834L227.532 199.36L222.012 199.624L223.644 212.104Z" fill="#E2988F"/>
<g opacity="0.2">
<path d="M227.532 199.36L228.378 205.792L222.852 206.062L222.006 199.63L227.532 199.36Z" fill="#0B1A47"/>
</g>
<path d="M209.85 87.892C209.85 87.892 216.804 130.042 219.636 146.47C222.582 163.564 229.212 203.776 229.212 203.776L221.904 204.952C221.904 204.952 212.052 164.692 208.128 147.928C203.85 129.658 193.464 105.16 193.572 87.886H209.844L209.85 87.892Z" fill="#50B1AF"/>
<path opacity="0.2" d="M198.684 100.828C197.634 99.3102 195.63 97.1802 194.088 95.4402C195.486 106.18 199.5 118.642 203.142 130.378C204.114 121.426 203.562 107.866 198.684 100.828Z" fill="#0B1A47"/>
<path d="M189.552 211.258H195.024L195.39 198.586H189.918L189.552 211.258Z" fill="#E2988F"/>
<path d="M195.282 210.448H189.132C188.91 210.448 188.724 210.604 188.694 210.82L187.992 215.686C187.92 216.19 188.352 216.67 188.868 216.658C191.01 216.622 192.042 216.496 194.748 216.496C196.41 216.496 199.854 216.67 202.146 216.67C204.438 216.67 204.564 214.396 203.61 214.192C199.32 213.268 197.634 211.996 196.188 210.784C195.93 210.568 195.6 210.448 195.276 210.448H195.282Z" fill="#0B1A47"/>
<g opacity="0.2">
<path d="M195.384 198.592L195.198 205.12H189.726L189.912 198.592H195.384Z" fill="#0B1A47"/>
</g>
<path d="M203.604 87.8921C203.604 87.8921 201.378 130.576 199.878 147.202C198.318 164.494 196.428 203.68 196.428 203.68H189.03C189.03 203.68 187.71 164.644 188.22 147.592C188.778 129.004 184.314 105.166 187.326 87.8921H203.598H203.604Z" fill="#50B1AF"/>
<path d="M188.388 203.944L197.07 204.106L197.202 198.814L188.352 199.36L188.388 203.944Z" fill="#0B1A47"/>
<path d="M197.334 211.408C197.88 211.408 198.378 211.324 198.66 211.072C198.84 210.91 198.918 210.7 198.894 210.442C198.882 210.286 198.804 210.166 198.672 210.1C198 209.728 195.822 210.844 195.576 210.976C195.528 211 195.498 211.054 195.51 211.108C195.516 211.162 195.558 211.204 195.612 211.216C196.074 211.306 196.734 211.414 197.334 211.414V211.408ZM198.312 210.274C198.414 210.274 198.492 210.286 198.552 210.322C198.606 210.352 198.63 210.394 198.636 210.46C198.654 210.634 198.6 210.772 198.486 210.874C198.156 211.174 197.256 211.222 196.038 211.024C196.788 210.664 197.784 210.274 198.306 210.274H198.312Z" fill="#50B1AF"/>
<path d="M195.636 211.21C195.636 211.21 195.672 211.21 195.69 211.198C196.344 210.904 197.634 209.722 197.532 209.104C197.508 208.96 197.406 208.774 197.046 208.738C196.782 208.708 196.536 208.786 196.326 208.96C195.636 209.53 195.51 211.006 195.504 211.066C195.504 211.114 195.522 211.156 195.558 211.18C195.582 211.198 195.606 211.204 195.63 211.204L195.636 211.21ZM196.938 208.99C196.938 208.99 196.992 208.99 197.016 208.99C197.25 209.014 197.268 209.11 197.274 209.14C197.334 209.512 196.458 210.442 195.792 210.844C195.858 210.418 196.038 209.53 196.488 209.158C196.626 209.044 196.77 208.99 196.938 208.99Z" fill="#50B1AF"/>
<path d="M229.104 210.448H222.954C222.732 210.448 222.582 210.604 222.594 210.82L222.906 215.686C222.936 216.19 223.47 216.67 223.986 216.658C226.122 216.622 227.13 216.496 229.83 216.496C231.492 216.496 234.972 216.67 237.264 216.67C239.556 216.67 239.208 214.396 238.212 214.192C233.73 213.268 231.78 211.996 230.082 210.784C229.776 210.568 229.422 210.448 229.098 210.448H229.104Z" fill="#0B1A47"/>
<path d="M231.156 211.408C231.702 211.408 232.2 211.324 232.482 211.072C232.662 210.91 232.74 210.7 232.716 210.442C232.704 210.286 232.626 210.166 232.494 210.1C231.822 209.728 229.644 210.844 229.398 210.976C229.35 211 229.32 211.054 229.332 211.108C229.338 211.162 229.38 211.204 229.434 211.216C229.896 211.306 230.556 211.414 231.156 211.414V211.408ZM232.134 210.274C232.236 210.274 232.314 210.286 232.374 210.322C232.428 210.352 232.452 210.394 232.458 210.46C232.476 210.634 232.422 210.772 232.308 210.874C231.978 211.174 231.078 211.222 229.86 211.024C230.61 210.664 231.606 210.274 232.128 210.274H232.134Z" fill="#50B1AF"/>
<path d="M229.464 211.21C229.464 211.21 229.5 211.21 229.518 211.198C230.172 210.904 231.462 209.722 231.36 209.104C231.336 208.96 231.234 208.774 230.874 208.738C230.61 208.708 230.364 208.786 230.154 208.96C229.464 209.53 229.338 211.006 229.332 211.066C229.332 211.114 229.35 211.156 229.386 211.18C229.41 211.198 229.434 211.204 229.458 211.204L229.464 211.21ZM230.766 208.99C230.766 208.99 230.82 208.99 230.844 208.99C231.078 209.014 231.096 209.11 231.102 209.14C231.162 209.512 230.286 210.442 229.62 210.844C229.686 210.418 229.866 209.53 230.316 209.158C230.454 209.044 230.598 208.99 230.766 208.99Z" fill="#50B1AF"/>
<path d="M221.316 205.318L229.89 203.938L228.924 199.36L220.428 201.358L221.316 205.318Z" fill="#0B1A47"/>
<path d="M198.342 35.524L199.368 35.116C199.368 35.116 198.906 35.992 198.342 35.524Z" fill="#0B1A47"/>
<path d="M187.29 86.59L186.72 88.582C186.642 88.738 186.828 88.894 187.08 88.894H209.952C210.15 88.894 210.318 88.798 210.33 88.672L210.528 86.68C210.54 86.542 210.366 86.428 210.15 86.428H187.644C187.476 86.428 187.332 86.494 187.284 86.596L187.29 86.59Z" fill="#0B1A47"/>
<path d="M190.392 89.1039H189.792C189.672 89.1039 189.582 89.0439 189.588 88.9659L189.87 86.3799C189.876 86.3019 189.984 86.2419 190.104 86.2419H190.704C190.824 86.2419 190.914 86.3019 190.908 86.3799L190.626 88.9659C190.62 89.0439 190.512 89.1039 190.392 89.1039Z" fill="#50B1AF"/>
<path d="M208.266 89.1039H207.666C207.546 89.1039 207.456 89.0439 207.462 88.9659L207.744 86.3799C207.75 86.3019 207.858 86.2419 207.978 86.2419H208.578C208.698 86.2419 208.788 86.3019 208.782 86.3799L208.5 88.9659C208.494 89.0439 208.386 89.1039 208.266 89.1039Z" fill="#50B1AF"/>
<path d="M199.362 89.1039H198.762C198.642 89.1039 198.552 89.0439 198.558 88.9659L198.84 86.3799C198.846 86.3019 198.954 86.2419 199.074 86.2419H199.674C199.794 86.2419 199.884 86.3019 199.878 86.3799L199.596 88.9659C199.59 89.0439 199.482 89.1039 199.362 89.1039Z" fill="#50B1AF"/>
<path d="M192.162 53.2779C188.676 53.5959 183.354 52.9359 183.51 58.2819C183.666 63.6279 182.64 77.7879 182.922 84.4179C183.204 91.0479 181.47 133.978 184.266 146.422C184.758 148.618 202.818 148.336 205.002 148.12V146.146C205.002 146.146 218.124 144.382 221.37 144.946C221.088 137.47 213.822 99.7059 213.54 89.0979C213.258 78.4899 214.452 60.2559 214.38 57.3639C214.308 54.4719 208.56 53.1999 205.038 53.2719C205.812 55.8819 204.09 60.7899 201.336 66.2559C194.562 59.6559 192.564 56.3799 192.162 53.2719V53.2779Z" fill="#50B1AF"/>
<path opacity="0.7" d="M192.162 53.2779C188.676 53.5959 183.354 52.9359 183.51 58.2819C183.666 63.6279 182.64 77.7879 182.922 84.4179C183.204 91.0479 181.47 133.978 184.266 146.422C184.758 148.618 202.818 148.336 205.002 148.12V146.146C205.002 146.146 218.124 144.382 221.37 144.946C221.088 137.47 213.822 99.7059 213.54 89.0979C213.258 78.4899 214.452 60.2559 214.38 57.3639C214.308 54.4719 208.56 53.1999 205.038 53.2719C205.812 55.8819 204.09 60.7899 201.336 66.2559C194.562 59.6559 192.564 56.3799 192.162 53.2719V53.2779Z" fill="white"/>
<path opacity="0.2" d="M185.526 65.9561L183.294 67.5401C183.114 72.1541 182.88 77.3381 182.862 81.3161C184.932 76.7501 186.102 70.1201 185.526 65.9561Z" fill="#50B1AF"/>
<path d="M192.636 61.1621C192.522 61.3301 192.396 61.4981 192.264 61.6541L192.138 61.7981L192.072 61.8701L191.952 62.0021L191.712 62.2601L191.232 62.7881C190.908 63.1421 190.596 63.5141 190.284 63.8861C189.66 64.6301 189.048 65.3861 188.454 66.1601C187.266 67.7021 186.174 69.3041 185.172 70.9301C183.168 74.1761 181.584 77.6321 180.936 80.9201C180.78 81.7361 180.69 82.5341 180.654 83.3081C180.6 83.1401 180.69 83.7941 180.996 84.4541C181.596 85.8401 182.628 87.4841 183.726 89.0441C184.836 90.6221 186.102 92.1641 187.392 93.6941C188.04 94.4621 188.712 95.2061 189.39 95.9441C190.062 96.6761 190.776 97.4381 191.436 98.0921L184.962 104.344C184.176 103.486 183.48 102.706 182.76 101.884L180.642 99.4061C179.232 97.7441 177.888 96.0161 176.556 94.2041C175.236 92.3681 173.946 90.5021 172.824 88.0721C172.548 87.4541 172.284 86.7881 172.05 86.0141C171.936 85.6301 171.834 85.2041 171.75 84.7361C171.708 84.5021 171.678 84.2561 171.654 83.9861C171.63 83.7521 171.624 83.3801 171.624 83.1941C171.642 81.8741 171.756 80.5901 171.96 79.3481C172.38 76.8701 173.088 74.5541 173.964 72.3821C174.834 70.1981 175.836 68.1341 176.946 66.1541C178.05 64.1681 179.262 62.2841 180.516 60.4301C181.152 59.5061 181.8 58.6001 182.478 57.7061L183.51 56.3681L184.038 55.7021L184.308 55.3661L184.446 55.1981L184.512 55.1201L184.53 55.1021V55.0901L184.452 55.1861C184.344 55.3181 184.242 55.4561 184.146 55.6001L192.636 61.1801V61.1621Z" fill="#50B1AF"/>
<path opacity="0.7" d="M192.636 61.1621C192.522 61.3301 192.396 61.4981 192.264 61.6541L192.138 61.7981L192.072 61.8701L191.952 62.0021L191.712 62.2601L191.232 62.7881C190.908 63.1421 190.596 63.5141 190.284 63.8861C189.66 64.6301 189.048 65.3861 188.454 66.1601C187.266 67.7021 186.174 69.3041 185.172 70.9301C183.168 74.1761 181.584 77.6321 180.936 80.9201C180.78 81.7361 180.69 82.5341 180.654 83.3081C180.6 83.1401 180.69 83.7941 180.996 84.4541C181.596 85.8401 182.628 87.4841 183.726 89.0441C184.836 90.6221 186.102 92.1641 187.392 93.6941C188.04 94.4621 188.712 95.2061 189.39 95.9441C190.062 96.6761 190.776 97.4381 191.436 98.0921L184.962 104.344C184.176 103.486 183.48 102.706 182.76 101.884L180.642 99.4061C179.232 97.7441 177.888 96.0161 176.556 94.2041C175.236 92.3681 173.946 90.5021 172.824 88.0721C172.548 87.4541 172.284 86.7881 172.05 86.0141C171.936 85.6301 171.834 85.2041 171.75 84.7361C171.708 84.5021 171.678 84.2561 171.654 83.9861C171.63 83.7521 171.624 83.3801 171.624 83.1941C171.642 81.8741 171.756 80.5901 171.96 79.3481C172.38 76.8701 173.088 74.5541 173.964 72.3821C174.834 70.1981 175.836 68.1341 176.946 66.1541C178.05 64.1681 179.262 62.2841 180.516 60.4301C181.152 59.5061 181.8 58.6001 182.478 57.7061L183.51 56.3681L184.038 55.7021L184.308 55.3661L184.446 55.1981L184.512 55.1201L184.53 55.1021V55.0901L184.452 55.1861C184.344 55.3181 184.242 55.4561 184.146 55.6001L192.636 61.1801V61.1621Z" fill="white"/>
<path opacity="0.3" d="M201.336 66.262C201.966 79.06 205.392 123.718 205.002 146.152C205.962 146.026 206.046 146.02 206.046 146.02C206.046 146.02 204.426 111.52 203.694 96.418C202.962 81.322 201.342 66.262 201.342 66.262H201.336Z" fill="#50B1AF"/>
<path opacity="0.3" d="M190.968 98.248L184.56 105.16C184.56 107.488 182.94 112.144 187.242 113.836C191.544 115.528 191.664 103.252 190.968 98.248Z" fill="#50B1AF"/>
<path opacity="0.3" d="M211.86 98.0142L214.68 105.082C214.764 107.494 215.58 112.294 213.918 114.112C212.25 115.93 211.764 103.216 211.86 98.0202V98.0142Z" fill="#50B1AF"/>
<path d="M204.858 70.7141L211.896 70.6721C212.208 70.6721 212.436 70.4261 212.4 70.1321L212.01 66.7901C211.974 66.4961 211.692 66.2561 211.38 66.2561L204.342 66.2981C204.03 66.2981 203.808 66.5441 203.838 66.8381L204.228 70.1801C204.264 70.4741 204.546 70.7141 204.858 70.7141Z" fill="white" stroke="#50B1AF" stroke-width="0.5" stroke-miterlimit="10"/>
</svg>
