<svg width="70" height="70" viewBox="0 0 70 70" fill="none" xmlns="http://www.w3.org/2000/svg">
<g clip-path="url(#clip0)">
<rect y="3" width="70" height="70" fill="white"/>
<g clip-path="url(#clip1)">
<path d="M47.895 42.9736C46.66 42.3092 45.425 42.0244 44.38 42.4041C43.62 42.5939 42.955 43.1634 42.48 43.8278C41.53 44.9668 40.295 46.2956 40.01 46.5804C37.73 48.099 35.925 47.9092 34.025 46.0109L23.1 35.0956C21.2 33.1973 21.01 31.3939 22.53 29.116C22.72 28.8312 24.05 27.5973 25.285 26.6482C26.045 26.1736 26.52 25.5092 26.71 24.7499C26.995 23.7058 26.805 22.4719 26.045 21.238C25.855 20.9532 21.96 14.3092 18.35 12.4109C16.545 11.4617 14.265 11.7465 12.84 13.2651L10.465 15.638C3.43501 22.6617 4.76501 31.3939 14.265 40.8854L28.23 54.838C32.505 59.1092 36.685 61.7668 40.675 62.716C41.72 63.0007 42.765 63.0956 43.715 63.0956C47.23 63.0956 50.555 61.577 53.5 58.6346L55.875 56.2617C57.3 54.838 57.68 52.56 56.73 50.7566C54.83 47.0549 48.18 43.1634 47.895 42.9736ZM54.545 54.838L52.17 57.2109C45.9 63.4753 38.3 62.1465 29.56 53.4143L15.595 39.4617C6.85501 30.7295 5.52501 23.2312 11.795 16.9668L14.17 14.5939C14.74 14.0244 15.405 13.7397 16.165 13.7397C16.64 13.7397 17.02 13.8346 17.495 14.0244C20.63 15.638 24.43 22.0922 24.43 22.0922C24.81 22.8515 25 23.6109 24.905 24.1804C24.81 24.56 24.62 24.7499 24.24 24.9397L24.05 25.1295C23.195 25.7939 21.295 27.4075 20.915 28.0719C20.345 28.9261 19.965 29.7804 19.775 30.6346C19.11 29.3058 18.54 27.6922 18.35 25.9838C18.255 25.5092 17.875 25.1295 17.305 25.1295C16.83 25.2244 16.45 25.6041 16.45 26.1736C17.115 32.8177 22.245 37.0888 22.53 37.2787H22.625L32.695 47.3397L32.79 47.4346C32.79 47.5295 32.885 47.5295 32.885 47.6244C33.075 47.8143 37.35 51.9905 43.905 52.6549H44C44.475 52.6549 44.855 52.2753 44.95 51.8007C45.045 51.3261 44.665 50.8515 44.095 50.7566C42.1 50.5668 40.295 49.9973 38.87 49.238C39.63 49.0482 40.295 48.6685 41.055 48.1939C41.625 47.8143 43.24 45.821 44 45.0617L44.095 44.8719C44.285 44.4922 44.57 44.3024 44.855 44.2075C45.425 44.0177 46.185 44.2075 46.945 44.6821C48.75 45.7261 53.69 49.0482 55.02 51.6109C55.59 52.6549 55.4 53.9838 54.545 54.838Z" fill="#0CB2FF"/>
<path d="M32.0301 7C31.4601 7 31.0801 7.37966 31.0801 7.94915C31.0801 8.51864 31.4601 8.89831 32.0301 8.89831C48.0851 8.89831 61.1001 21.9017 61.1001 37.9424C61.1001 38.5119 61.4801 38.8915 62.0501 38.8915C62.6201 38.8915 63.0001 38.5119 63.0001 37.9424C63.0001 20.8576 49.1301 7 32.0301 7Z" fill="#0CB2FF"/>
<path d="M32.0301 15.5428C44.3801 15.5428 54.4501 25.6039 54.4501 37.9428C54.4501 38.5123 54.8301 38.892 55.4001 38.892C55.9701 38.892 56.3501 38.5123 56.3501 37.9428C56.3501 24.5598 45.4251 13.6445 32.0301 13.6445C31.4601 13.6445 31.0801 14.0242 31.0801 14.5937C31.0801 15.1632 31.4601 15.5428 32.0301 15.5428Z" fill="#0CB2FF"/>
<path d="M32.0301 22.2811C40.6751 22.2811 47.8001 29.3048 47.8001 38.0371C47.8001 38.6065 48.1801 38.9862 48.7501 38.9862C49.3201 38.9862 49.7001 38.6065 49.7001 38.0371C49.7001 28.3557 41.8151 20.3828 32.0301 20.3828C31.4601 20.3828 31.0801 20.7625 31.0801 21.332C31.0801 21.9015 31.4601 22.2811 32.0301 22.2811Z" fill="#0CB2FF"/>
</g>
</g>
<defs>
<clipPath id="clip0">
<rect width="70" height="70" fill="white"/>
</clipPath>
<clipPath id="clip1">
<rect width="57" height="56" fill="white" transform="translate(6 7)"/>
</clipPath>
</defs>
</svg>
