<svg width="70" height="70" viewBox="0 0 70 70" fill="none" xmlns="http://www.w3.org/2000/svg">
<g clip-path="url(#clip0)">
<rect y="3" width="70" height="70" fill="white"/>
<g clip-path="url(#clip1)">
<path d="M34.9999 25.3363C38.2058 25.3363 40.7999 22.7422 40.7999 19.5363C40.7999 16.3305 38.1945 13.7363 34.9999 13.7363C31.8054 13.7363 29.2 16.3305 29.2 19.5363C29.2 22.7309 31.7941 25.325 34.9999 25.3363ZM34.9999 15.6621C37.141 15.6621 38.8628 17.3953 38.8628 19.525C38.8628 21.6547 37.1296 23.3879 34.9999 23.3879C32.8589 23.3879 31.1371 21.6547 31.1371 19.525C31.1257 17.3953 32.8589 15.6734 34.9999 15.6621Z" fill="#4AE8EC"/>
<path d="M63.9207 62.6633L59.1176 51.2219C59.095 51.1199 59.0496 51.018 58.993 50.9273L52.1961 34.7168V34.7055L52.1848 34.6941L51.845 33.8785C51.4032 32.791 50.3383 32.0887 49.1715 32.0887H44.527C47.0079 27.2742 49.0922 22.3465 49.0922 19.4352C49.1036 12.0266 42.7711 6 35 6C27.2289 6 20.8965 12.0266 20.8965 19.4465C20.8965 22.3578 22.9809 27.2855 25.4618 32.1H20.8172C19.6504 32.1 18.5969 32.8023 18.1438 33.8785L14.6094 42.3066C14.5981 42.3406 14.5754 42.3633 14.5641 42.3973L6.06801 62.6633C6.04536 62.7199 6.03403 62.7766 6.0227 62.8332C6.0227 62.8445 6.01137 62.8672 6.01137 62.8785C5.98872 62.9918 6.00004 63.1051 6.0227 63.207C6.0227 63.2184 6.0227 63.2297 6.0227 63.241C6.0227 63.2523 6.03403 63.2637 6.03403 63.2863C6.05669 63.3656 6.09067 63.4562 6.13598 63.5242C6.14731 63.5355 6.14731 63.5469 6.15864 63.5582L6.16997 63.5695C6.22661 63.6488 6.28325 63.7168 6.36254 63.7734C6.3852 63.7848 6.39653 63.7961 6.41919 63.8187C6.47583 63.8641 6.54379 63.898 6.61176 63.9207C6.63442 63.932 6.65708 63.9434 6.69106 63.9547C6.78169 63.9887 6.88364 64 6.97426 64H63.0371C63.3657 64 63.6602 63.8414 63.8414 63.5695C64.0114 63.2977 64.0453 62.9578 63.9207 62.6633ZM22.8223 19.4465C22.8223 13.1027 28.2825 7.93711 34.9887 7.93711C41.695 7.93711 47.1551 13.1027 47.1551 19.4465C47.1551 22.1426 44.8215 27.4328 42.0461 32.6551C42.0348 32.6777 42.0235 32.6891 42.0235 32.7117C39.7579 36.9711 37.1977 41.1852 35.3512 43.9266C35.2606 44.0398 35.136 44.1078 34.9887 44.1078C34.8528 44.1078 34.7168 44.0398 34.6262 43.9266C32.7797 41.1852 30.2196 36.9711 27.954 32.723C27.9426 32.7004 27.9313 32.6891 27.9313 32.6664C25.1559 27.4328 22.8223 22.1426 22.8223 19.4465ZM36.9485 45.0141C37.7528 45.2746 38.4438 45.8297 38.8629 46.566C38.8063 46.9172 37.5942 48.5371 34.9887 48.5371C34.8075 48.5371 34.6375 48.5258 34.5016 48.5258C33.1309 48.5145 31.8508 47.8008 31.1258 46.6453C31.5223 45.8637 32.2133 45.2859 33.0403 45.0254C33.4821 45.6598 34.2184 46.0449 34.9887 46.0449C35.7704 46.0223 36.4954 45.6484 36.9485 45.0141ZM19.9336 34.6262C20.0809 34.2637 20.4321 34.0258 20.8172 34.0371H25.1672C22.675 35.2945 20.3415 36.8578 18.2231 38.693L19.9336 34.6262ZM16.286 43.2922C19.3219 39.8938 23.0036 37.1523 27.1383 35.2266C28.9282 38.4551 30.7293 41.4117 31.9754 43.3715C30.2762 44.1645 29.1887 45.5352 29.1887 46.5887C29.1887 47.982 31.1938 50.1684 34.3657 50.4402C34.5696 50.4516 34.7735 50.4629 34.9887 50.4629C38.4778 50.4629 40.7887 48.1406 40.7887 46.6C40.7887 45.5465 39.7012 44.1758 38.002 43.3828C39.4067 41.1738 41.5024 37.7301 43.5075 34.0371H49.1715C49.5227 34.0371 49.8512 34.241 50.0098 34.5582C47.5629 35.7023 45.4899 37.5148 44.0399 39.7918C43.5528 39.5879 43.009 39.8145 42.7938 40.2902C42.5786 40.766 42.7938 41.3211 43.2582 41.5477C45.977 42.8504 47.5403 44.6969 47.5403 46.6C47.5403 50.1457 42.1821 53.1816 35.5664 53.3629C35.3625 53.3742 35.1586 53.3742 34.9094 53.3742C28.1579 53.3516 22.4258 50.2477 22.4258 46.6C22.4258 44.6969 23.9891 42.8617 26.7079 41.5477C27.025 41.4004 27.229 41.0945 27.2516 40.7547C27.2743 40.4148 27.1157 40.075 26.8325 39.8824C26.5493 39.6898 26.1754 39.6559 25.8696 39.8145C22.4485 41.457 20.4887 43.9266 20.4887 46.6113C20.4887 49.7492 23.1395 52.4453 27.195 53.9633C22.6411 57.7582 12.695 60.5902 8.58286 61.6438L16.286 43.2922ZM14.2129 62.0629C19.4012 60.443 26.0961 57.8715 29.336 54.6203C31.1938 55.0734 33.0856 55.3 35 55.3C35.2266 55.3 35.4532 55.3 35.6684 55.2887C43.4282 55.0734 49.5 51.2672 49.5 46.6C49.5 44.391 48.1407 42.318 45.7504 40.7434C46.9852 38.8402 48.7297 37.3109 50.7914 36.348L57.1352 51.4598C53.3856 59.8766 39.7918 61.927 38.8063 62.0629H14.2129ZM46.6454 62.0629C50.7575 60.5789 55.4926 58.0188 58.0868 53.7707L61.5645 62.0629H46.6454Z" fill="#4AE8EC"/>
</g>
</g>
<defs>
<clipPath id="clip0">
<rect width="70" height="70" fill="white"/>
</clipPath>
<clipPath id="clip1">
<rect width="58" height="58" fill="white" transform="translate(6 6)"/>
</clipPath>
</defs>
</svg>
