<svg width="70" height="70" viewBox="0 0 70 70" fill="none" xmlns="http://www.w3.org/2000/svg">
<g clip-path="url(#clip0)">
<rect y="3" width="70" height="70" fill="white"/>
<g clip-path="url(#clip1)">
<path d="M20.5 13.7363H43.7C44.2324 13.7363 44.6629 13.3059 44.6629 12.7734C44.6629 12.241 44.2324 11.8105 43.7 11.8105H20.5C19.9676 11.8105 19.5371 12.241 19.5371 12.7734C19.5371 13.3059 19.9676 13.7363 20.5 13.7363Z" fill="#2A89FF"/>
<path d="M20.5 18.5625H43.7C44.2324 18.5625 44.6629 18.132 44.6629 17.5996C44.6629 17.0672 44.2324 16.6367 43.7 16.6367H20.5C19.9676 16.6367 19.5371 17.0672 19.5371 17.5996C19.5371 18.132 19.9676 18.5625 20.5 18.5625Z" fill="#2A89FF"/>
<path d="M20.5 23.4004H41.7629C42.2953 23.4004 42.7258 22.9699 42.7258 22.4375C42.7258 21.9051 42.2953 21.4746 41.7629 21.4746H20.5C19.9676 21.4746 19.5371 21.9051 19.5371 22.4375C19.5371 22.9699 19.9676 23.4004 20.5 23.4004Z" fill="#2A89FF"/>
<path d="M38.8629 27.2637C38.8629 26.7313 38.4324 26.3008 37.9 26.3008H20.5C19.9676 26.3008 19.5371 26.7313 19.5371 27.2637C19.5371 27.7961 19.9676 28.2266 20.5 28.2266H37.9C38.4324 28.2379 38.8629 27.7961 38.8629 27.2637Z" fill="#2A89FF"/>
<path d="M62.0629 40.8H61.1V33.0629C61.0887 27.1949 56.3309 22.4371 50.4629 22.4258V9.86289C50.4629 7.72187 48.7297 6 46.6 6H17.6C15.459 6 13.7371 7.7332 13.7371 9.86289V23.4566L6.3625 29.4152C6.35117 29.4266 6.33984 29.4379 6.32852 29.4492C6.30586 29.4719 6.27187 29.4945 6.24922 29.5285C6.23789 29.5398 6.22656 29.5512 6.21523 29.5625C6.20391 29.5738 6.19258 29.6191 6.16992 29.6418C6.14727 29.6758 6.12461 29.7098 6.10195 29.7551C6.09062 29.7891 6.0793 29.823 6.06797 29.857C6.05664 29.9023 6.04531 29.9477 6.03398 29.993C6.02266 30.0383 6.02266 30.0836 6.01133 30.1289C6.01133 30.1516 6 30.1629 6 30.1742V58.2113C6 59.2422 6.41914 60.2277 7.15547 60.9414V60.9527L7.1668 60.9641C7.20078 60.998 7.22344 61.032 7.24609 61.066C7.95977 61.723 8.88867 62.0855 9.85156 62.0855H38.9535C40.2109 63.3203 41.9102 64.0227 43.6773 64.0227H57.2145C60.9527 64.0227 63.9773 60.9867 63.9773 57.2598V42.7598C64 41.6609 63.1391 40.8 62.0629 40.8ZM50.4629 24.3629C55.266 24.3629 59.1629 28.2598 59.1629 33.0629V40.8H41.7629V33.0629C41.7629 28.2598 45.6598 24.3629 50.4629 24.3629ZM15.6629 9.86289C15.6629 8.79805 16.5238 7.92578 17.6 7.92578H46.6C47.6648 7.92578 48.5371 8.78672 48.5371 9.86289V22.6184C43.4961 23.5586 39.8484 27.9426 39.8371 33.0629V40.8H38.8742C37.8094 40.8 36.9371 41.6609 36.9371 42.7371V45.3199L32.1 49.2281L15.6629 35.9516V9.86289ZM13.7371 25.9488V34.3996L8.50352 30.1742L13.7371 25.9488ZM7.93711 58.2V32.1906L24.5781 45.6371L8.08437 58.9477C7.98242 58.7098 7.93711 58.4605 7.93711 58.2ZM9.86289 60.1371C9.81758 60.1371 9.76094 60.1258 9.71562 60.1258L26.1074 46.8832L31.4883 51.2219C31.8395 51.5051 32.3492 51.5051 32.7004 51.2219L36.9258 47.8008V57.2371C36.9258 58.2453 37.1523 59.2309 37.5828 60.1371H9.86289ZM62.0629 44.6629H59.1629C58.6305 44.6629 58.2 45.0934 58.2 45.6258C58.2 46.1582 58.6305 46.5887 59.1629 46.5887H62.0629V48.5258H59.1629C58.6305 48.5258 58.2 48.9562 58.2 49.4887C58.2 50.0211 58.6305 50.4516 59.1629 50.4516H62.0629V52.3887H59.1629C58.6305 52.3887 58.2 52.8191 58.2 53.3516C58.2 53.884 58.6305 54.3145 59.1629 54.3145H62.0629V56.2516H59.1629C58.6305 56.2516 58.2 56.682 58.2 57.2145C58.2 57.7469 58.6305 58.1773 59.1629 58.1773H61.9609C61.4965 60.4316 59.5254 62.0402 57.2258 62.0402H43.7C41.4004 62.0402 39.4293 60.4203 38.9648 58.1773H41.7629C42.2953 58.1773 42.7258 57.7469 42.7258 57.2145C42.7258 56.682 42.2953 56.2516 41.7629 56.2516H38.8629V54.3145H41.7629C42.2953 54.3145 42.7258 53.884 42.7258 53.3516C42.7258 52.8191 42.2953 52.3887 41.7629 52.3887H38.8629V50.4516H41.7629C42.2953 50.4516 42.7258 50.0211 42.7258 49.4887C42.7258 48.9562 42.2953 48.5258 41.7629 48.5258H38.8629V46.5887H41.7629C42.2953 46.5887 42.7258 46.1582 42.7258 45.6258C42.7258 45.0934 42.2953 44.6629 41.7629 44.6629H38.8629V42.7258H62.0629V44.6629Z" fill="#2A89FF"/>
<path d="M49.5 53.193V55.3C49.5 55.8324 49.9305 56.2629 50.4629 56.2629C50.9953 56.2629 51.4258 55.8324 51.4258 55.3V53.193C52.7512 52.7285 53.5555 51.3691 53.3176 49.9758C53.0797 48.5824 51.8676 47.5742 50.4629 47.5742C49.0469 47.5742 47.8461 48.5824 47.6082 49.9758C47.3703 51.3578 48.1746 52.7172 49.5 53.193ZM50.4629 49.5C50.9953 49.5 51.4258 49.9305 51.4258 50.4629C51.4258 50.9953 50.9953 51.4258 50.4629 51.4258C49.9305 51.4258 49.5 50.9953 49.5 50.4629C49.5 49.9305 49.9305 49.5 50.4629 49.5Z" fill="#2A89FF"/>
</g>
</g>
<defs>
<clipPath id="clip0">
<rect width="70" height="70" fill="white"/>
</clipPath>
<clipPath id="clip1">
<rect width="58" height="58" fill="white" transform="translate(6 6)"/>
</clipPath>
</defs>
</svg>
