<svg width="300" height="225" viewBox="0 0 300 225" fill="none" xmlns="http://www.w3.org/2000/svg">
<rect width="300" height="225" rx="5" fill="white"/>
<path d="M300 197.47H0V197.62H300V197.47Z" fill="#F3FBFF"/>
<path d="M269.94 203.182H215.4V203.332H269.94V203.182Z" fill="#F3FBFF"/>
<path d="M198.732 201.556H183.798V201.706H198.732V201.556Z" fill="#F3FBFF"/>
<path d="M232.866 208.756H209.712V208.906H232.866V208.756Z" fill="#F3FBFF"/>
<path d="M45.06 207.748H31.476V207.898H45.06V207.748Z" fill="#F3FBFF"/>
<path d="M66.534 207.748H50.4V207.898H66.534V207.748Z" fill="#F3FBFF"/>
<path d="M135.09 205.21H106.986V205.36H135.09V205.21Z" fill="#F3FBFF"/>
<path d="M142.206 170.71H26.346C24.456 170.71 22.92 169.174 22.92 167.284V4.426C22.92 2.536 24.456 1 26.346 1H142.206C144.096 1 145.632 2.536 145.632 4.426V167.284C145.632 169.174 144.096 170.71 142.206 170.71ZM26.346 1.15C24.54 1.15 23.07 2.62 23.07 4.426V167.284C23.07 169.09 24.54 170.56 26.346 170.56H142.206C144.012 170.56 145.482 169.09 145.482 167.284V4.426C145.482 2.62 144.012 1.15 142.206 1.15H26.346Z" fill="#F3FBFF"/>
<path d="M271.986 170.71H156.126C154.236 170.71 152.7 169.174 152.7 167.284V4.426C152.7 2.536 154.236 1 156.126 1H271.986C273.876 1 275.412 2.536 275.412 4.426V167.284C275.412 169.174 273.876 170.71 271.986 170.71ZM156.126 1.15C154.32 1.15 152.85 2.62 152.85 4.426V167.284C152.85 169.09 154.32 170.56 156.126 170.56H271.986C273.792 170.56 275.262 169.09 275.262 167.284V4.426C275.262 2.62 273.792 1.15 271.986 1.15H156.126Z" fill="#F3FBFF"/>
<path d="M31.47 197.47H103.206L103.206 38.824H31.47L31.47 197.47Z" fill="#F3FBFF"/>
<path d="M31.476 197.47H99.81L99.81 38.824H31.476L31.476 197.47Z" fill="#F3FBFF"/>
<path d="M96.21 193.87L96.21 42.4241L35.076 42.4241L35.076 193.87H96.21Z" fill="#F3FBFF"/>
<path d="M54.828 110.644H42.366C41.4812 110.644 40.764 111.36 40.764 112.243C40.764 113.126 41.4812 113.842 42.366 113.842H54.828C55.7127 113.842 56.43 113.126 56.43 112.243C56.43 111.36 55.7127 110.644 54.828 110.644Z" fill="white"/>
<path d="M36.0119 193.864L36.0119 42.418H35.0759L35.0759 193.864H36.0119Z" fill="#F3FBFF"/>
<path d="M136.818 194.464H147.498V148.144H136.818V194.464Z" fill="#F3FBFF"/>
<path d="M92.778 197.398H145.446V194.464H92.778V197.398Z" fill="#F3FBFF"/>
<path d="M136.818 148.138H90.726V194.458H136.818V148.138Z" fill="#F3FBFF"/>
<path d="M132.612 153.844H94.92V169.036H132.612V153.844Z" fill="#F3FBFF"/>
<path d="M132.612 173.566H94.92V188.758H132.612V173.566Z" fill="#F3FBFF"/>
<path d="M109.536 155.122H117.996C118.573 155.122 119.04 154.656 119.04 154.081C119.04 153.506 118.573 153.04 117.996 153.04H109.536C108.959 153.04 108.492 153.506 108.492 154.081C108.492 154.656 108.959 155.122 109.536 155.122Z" fill="#F3FBFF"/>
<path d="M109.536 174.85H117.996C118.573 174.85 119.04 174.384 119.04 173.809C119.04 173.234 118.573 172.768 117.996 172.768H109.536C108.959 172.768 108.492 173.234 108.492 173.809C108.492 174.384 108.959 174.85 109.536 174.85Z" fill="#F3FBFF"/>
<path d="M118.074 122.374C118.074 121.937 117.719 121.582 117.282 121.582C116.845 121.582 116.49 121.937 116.49 122.374V146.44C116.49 146.877 116.845 147.232 117.282 147.232C117.719 147.232 118.074 146.877 118.074 146.44V122.374Z" fill="#F3FBFF"/>
<path d="M124.692 146.296H109.872V148.162H124.692V146.296Z" fill="#F3FBFF"/>
<path d="M121.782 120.406C121.782 120.187 121.605 120.01 121.386 120.01C121.167 120.01 120.99 120.187 120.99 120.406V132.436C120.99 132.655 121.167 132.832 121.386 132.832C121.605 132.832 121.782 132.655 121.782 132.436V120.406Z" fill="#F3FBFF"/>
<path d="M105.756 124.564C105.756 124.564 106.05 113.236 117.276 113.236C128.502 113.236 128.796 124.564 128.796 124.564H105.75H105.756Z" fill="#F3FBFF"/>
<path d="M202.986 140.59C203.304 140.59 203.628 140.602 203.952 140.62C210.774 141.088 216.288 146.632 216.726 153.454C216.828 155.014 216.666 156.52 216.282 157.936C214.71 163.768 214.122 169.828 214.122 175.87V193.48C214.122 194.758 213.09 195.79 211.812 195.79H155.922V140.59H202.986Z" fill="#F3FBFF"/>
<path d="M142.152 154.36C142.152 146.44 148.842 140.08 156.882 140.626C163.704 141.094 169.218 146.638 169.656 153.46C169.758 155.02 169.596 156.526 169.212 157.942C167.64 163.774 167.052 169.834 167.052 175.876V193.486C167.052 194.764 166.02 195.796 164.742 195.796H147.09C145.812 195.796 144.78 194.764 144.78 193.486V174.844C144.78 169.174 144.162 163.504 142.65 158.044C142.326 156.874 142.152 155.638 142.152 154.366V154.36Z" fill="#F3FBFF"/>
<path d="M174.894 195.796H225.06V162.28H174.894V195.796Z" fill="#F3FBFF"/>
<path d="M266.52 169.852H199.374V118.444C199.374 112.696 204.042 108.028 209.79 108.028H256.098C261.846 108.028 266.514 112.696 266.514 118.444V169.852H266.52Z" fill="#A5D0EA"/>
<path d="M253.398 169.852H186.252V117.946C186.252 112.474 190.698 108.028 196.17 108.028H243.486C248.958 108.028 253.404 112.474 253.404 117.946V169.852H253.398Z" fill="#F3FBFF"/>
<path d="M221.772 172.87H175.53C173.862 172.87 172.506 171.514 172.506 169.846V162.244C172.506 160.576 173.862 159.22 175.53 159.22H221.772C222.27 159.22 222.678 159.622 222.678 160.126V171.97C222.678 172.468 222.276 172.876 221.772 172.876V172.87Z" fill="#A5D0EA"/>
<path d="M271.47 140.59C271.788 140.59 272.112 140.602 272.436 140.62C279.258 141.088 284.772 146.632 285.21 153.454C285.312 155.014 285.15 156.52 284.766 157.936C283.194 163.768 282.606 169.828 282.606 175.87V193.48C282.606 194.758 281.574 195.79 280.296 195.79H224.406V140.59H271.47Z" fill="#F3FBFF"/>
<path d="M210.636 154.36C210.636 146.44 217.326 140.08 225.366 140.626C232.188 141.094 237.702 146.638 238.14 153.46C238.242 155.02 238.08 156.526 237.696 157.942C236.124 163.774 235.536 169.834 235.536 175.876V193.486C235.536 194.764 234.504 195.796 233.226 195.796H215.574C214.296 195.796 213.264 194.764 213.264 193.486V174.844C213.264 169.174 212.646 163.504 211.134 158.044C210.81 156.874 210.636 155.638 210.636 154.366V154.36Z" fill="#F3FBFF"/>
<path d="M270.486 197.47H156.906C155.982 197.47 155.232 196.72 155.232 195.796H272.166C272.166 196.72 271.416 197.47 270.492 197.47H270.486Z" fill="#A5D0EA"/>
<path d="M224.172 68.752H260.706V28.906L224.172 28.906V68.752Z" fill="#A5D0EA"/>
<path d="M221.994 68.752H259.476V28.906L221.994 28.906V68.752Z" fill="#F3FBFF"/>
<path d="M256.332 65.614V32.0439H225.126V65.614H256.332Z" fill="white"/>
<path d="M240.732 40.342L249.264 55.12H232.2L240.732 40.342Z" fill="#F3FBFF"/>
<path d="M172.92 92.0139H209.454V52.1679L172.92 52.1679V92.0139Z" fill="#A5D0EA"/>
<path d="M170.742 92.0139H208.224V52.1679L170.742 52.1679V92.0139Z" fill="#F3FBFF"/>
<path d="M205.08 88.8759V55.3059H173.874V88.8759H205.08Z" fill="white"/>
<path d="M185.664 78.0761L181.962 71.662C180.264 68.722 182.388 65.05 185.778 65.05H193.182C196.578 65.05 198.696 68.722 196.998 71.662L193.296 78.0761C191.598 81.0161 187.356 81.0161 185.658 78.0761H185.664Z" fill="#F3FBFF"/>
<path d="M150 224.566C214.249 224.566 266.334 221.525 266.334 217.774C266.334 214.023 214.249 210.982 150 210.982C85.7505 210.982 33.666 214.023 33.666 217.774C33.666 221.525 85.7505 224.566 150 224.566Z" fill="#F3FBFF"/>
<path d="M189.9 27.604H51.588L60.69 215.974H199.002L189.9 27.604Z" fill="#50B1AF"/>
<path opacity="0.2" d="M189.9 27.604H51.588L60.69 215.974H199.002L189.9 27.604Z" fill="#0B1A47"/>
<path d="M191.178 27.604H52.866L61.974 215.974H200.286L191.178 27.604Z" fill="#50B1AF"/>
<path opacity="0.2" d="M183.876 33.9399H59.1899L67.9019 207.46L176.322 207.316L194.34 191.338L183.876 33.9399Z" fill="#0B1A47"/>
<path d="M184.83 33.9398C186.132 85.6538 190.314 137.506 197.37 189.25C187.488 196.048 177.66 202.84 167.88 209.632H74.658C65.826 151.126 60.666 92.4458 59.19 33.9338H184.83V33.9398Z" fill="white"/>
<path d="M197.37 189.256C187.488 196.054 177.66 202.846 167.88 209.638C170.022 200.638 172.248 191.638 174.558 182.632C182.154 184.84 189.762 187.048 197.37 189.256Z" fill="#F3FBFF"/>
<path d="M93.0059 49.8159C93.2399 56.1699 93.5159 62.5239 93.8339 68.8839H74.7659C74.4479 62.5299 74.1719 56.1699 73.9379 49.8159H93.0059ZM94.9499 47.8059C87.2519 47.8059 79.5539 47.8059 71.8559 47.8059C72.1259 55.4979 72.4619 63.1959 72.8579 70.8939H95.9519C95.5559 63.1959 95.2199 55.4979 94.9499 47.8059Z" fill="#50B1AF"/>
<path d="M170.892 56.974H105.594C105.534 55.54 105.474 54.1 105.42 52.666C127.188 52.666 148.95 52.666 170.718 52.666C170.772 54.1 170.832 55.54 170.892 56.974Z" fill="#A5D0EA"/>
<path d="M157.098 66.0341C140.064 66.0341 123.036 66.0341 106.002 66.0341C105.93 64.6001 105.864 63.1601 105.804 61.7261H156.9C156.966 63.1601 157.032 64.6001 157.098 66.0341Z" fill="#A5D0EA"/>
<path d="M94.8719 87.1599C95.2739 93.5199 95.7179 99.8799 96.2099 106.24H77.1419C76.6499 99.8799 76.2059 93.5199 75.8039 87.1599C82.1579 87.1599 88.5119 87.1599 94.8719 87.1599ZM96.7619 85.1499H73.6679C74.1419 92.8479 74.6819 100.552 75.2879 108.25C82.9859 108.25 90.6839 108.25 98.3819 108.25C97.7759 100.546 97.2419 92.8479 96.7619 85.1499Z" fill="#50B1AF"/>
<path d="M131.64 94.324H107.652C107.556 92.89 107.46 91.45 107.364 90.01H131.352C131.448 91.45 131.544 92.884 131.64 94.324Z" fill="#A5D0EA"/>
<path d="M154.362 94.324H136.716C136.62 92.89 136.524 91.45 136.428 90.01H154.074C154.17 91.45 154.266 92.884 154.362 94.324Z" fill="#A5D0EA"/>
<path d="M165.438 103.384H108.3C108.192 101.95 108.09 100.51 107.982 99.0701H165.12C165.222 100.504 165.33 101.944 165.438 103.384Z" fill="#A5D0EA"/>
<path d="M97.7339 124.522C98.3039 130.882 98.9219 137.242 99.5819 143.602C93.2279 143.602 86.8679 143.602 80.5139 143.602C79.8539 137.242 79.2419 130.882 78.6659 124.522H97.7339ZM99.5699 122.512H76.4759C77.1599 130.216 77.9039 137.914 78.7139 145.618H101.808C100.998 137.914 100.254 130.216 99.5699 122.512Z" fill="#50B1AF"/>
<path d="M176.46 136.438H111.162C111.306 137.878 111.45 139.312 111.594 140.752H176.892C176.748 139.312 176.604 137.878 176.46 136.438Z" fill="#A5D0EA"/>
<path d="M161.394 127.378C144.36 127.378 127.332 127.378 110.298 127.378C110.43 128.812 110.562 130.252 110.7 131.692C127.734 131.692 144.762 131.692 161.796 131.692C161.658 130.252 161.526 128.818 161.394 127.378Z" fill="#A5D0EA"/>
<path d="M101.592 161.884C102.336 168.244 103.122 174.598 103.95 180.958H84.8819C84.0539 174.604 83.2679 168.244 82.5239 161.884C88.8779 161.884 95.2319 161.884 101.592 161.884ZM103.374 159.874H80.2799C81.1679 167.572 82.1159 175.27 83.1299 182.968H106.224C105.21 175.27 104.256 167.572 103.374 159.874Z" fill="#50B1AF"/>
<path d="M180.054 169.048C158.286 169.048 136.524 169.048 114.756 169.048C114.582 167.614 114.408 166.174 114.24 164.74H179.538C179.706 166.174 179.88 167.614 180.054 169.048Z" fill="#A5D0EA"/>
<path d="M145.614 178.108H115.89C115.704 176.674 115.524 175.234 115.344 173.8H145.068C145.248 175.234 145.428 176.674 145.614 178.108Z" fill="#A5D0EA"/>
<path d="M163.362 178.108H150.528C150.342 176.674 150.162 175.234 149.982 173.8H162.816C162.996 175.234 163.176 176.674 163.362 178.108Z" fill="#A5D0EA"/>
<path d="M84.5819 66.1599C84.2999 65.7099 84.0179 65.2599 83.7359 64.8159C81.8939 61.8759 78.1199 59.2539 76.8239 58.4859C77.1479 57.9099 77.4659 57.3399 77.7899 56.7639C79.3259 57.6699 82.4459 59.9079 84.5519 62.5659C87.4559 58.6059 91.746 54.5259 97.626 50.1279C98.04 50.6679 98.4539 51.2139 98.8679 51.7539C92.5919 56.4519 88.194 60.7539 85.428 64.8939C85.146 65.3139 84.8639 65.7399 84.5819 66.1599Z" fill="#50B1AF"/>
<path d="M86.8799 103.516C86.5859 103.066 86.2919 102.616 85.9979 102.166C84.0779 99.226 80.2319 96.598 78.9119 95.836C79.2179 95.26 79.5239 94.69 79.8299 94.114C81.3899 95.02 84.5699 97.258 86.7479 99.922C89.5439 95.962 93.7259 91.882 99.4919 87.478C99.9239 88.018 100.35 88.564 100.782 89.104C94.6319 93.808 90.3479 98.11 87.6899 102.25C87.4199 102.67 87.1499 103.096 86.8799 103.516Z" fill="#50B1AF"/>
<path d="M90.192 140.968C89.886 140.518 89.58 140.068 89.274 139.618C87.276 136.678 83.358 134.05 82.02 133.288C82.314 132.712 82.602 132.142 82.896 131.566C84.48 132.472 87.72 134.71 89.97 137.374C92.664 133.414 96.732 129.328 102.378 124.93C102.822 125.47 103.266 126.016 103.71 126.556C97.686 131.26 93.522 135.562 90.972 139.702C90.714 140.122 90.456 140.548 90.192 140.968Z" fill="#50B1AF"/>
<path d="M150.678 199.3C147.138 199.3 145.098 197.992 143.298 196.84C141.576 195.736 139.956 194.698 136.962 194.698C133.974 194.698 132.642 195.742 131.232 196.84C129.762 197.992 128.094 199.3 124.554 199.3C121.014 199.3 118.974 197.992 117.174 196.84C115.452 195.736 113.832 194.698 110.838 194.698C107.85 194.698 106.518 195.742 105.108 196.84C103.638 197.992 101.97 199.3 98.4299 199.3C94.8899 199.3 92.8499 197.992 91.0499 196.84C89.3279 195.736 87.7079 194.698 84.7139 194.698C84.6359 194.122 84.5519 193.546 84.4739 192.97C88.0139 192.97 90.0479 194.278 91.8479 195.43C93.5639 196.534 95.1899 197.578 98.1839 197.572C101.172 197.572 102.504 196.528 103.914 195.43C105.384 194.278 107.058 192.97 110.598 192.97C114.138 192.97 116.172 194.278 117.972 195.43C119.688 196.534 121.314 197.578 124.308 197.572C127.296 197.572 128.628 196.528 130.038 195.43C131.508 194.278 133.182 192.97 136.722 192.97C140.262 192.97 142.296 194.278 144.096 195.43C145.812 196.534 147.438 197.578 150.432 197.572C150.516 198.148 150.594 198.724 150.678 199.3Z" fill="#F3FBFF"/>
<path d="M155.754 32.2659C153.732 26.8899 149.046 23.3259 144 23.3259H133.734C132.204 23.3259 130.764 22.3899 130.164 20.9499C128.718 17.5179 125.298 15.0759 121.422 15.0759C117.546 15.0759 114.366 17.5179 113.25 20.9499C112.782 22.3839 111.438 23.3259 109.908 23.3259H99.642C94.596 23.3259 90.2579 26.8899 88.7519 32.2659L88.1519 34.4139H156.57L155.76 32.2659H155.754Z" fill="#0B1A47"/>
<path d="M156.12 36.526H88.782C87.624 36.526 86.628 35.578 86.574 34.42C86.52 33.262 87.42 32.314 88.578 32.314H155.916C157.074 32.314 158.07 33.262 158.124 34.42C158.178 35.578 157.278 36.526 156.12 36.526Z" fill="#50B1AF"/>
<path opacity="0.2" d="M156.12 36.526H88.782C87.624 36.526 86.628 35.578 86.574 34.42C86.52 33.262 87.42 32.314 88.578 32.314H155.916C157.074 32.314 158.07 33.262 158.124 34.42C158.178 35.578 157.278 36.526 156.12 36.526Z" fill="#0B1A47"/>
<path d="M216.552 214.168H212.154L211.716 203.986H216.114L216.552 214.168Z" fill="#E2988F"/>
<path d="M242.946 214.168H238.548L236.34 203.986H240.732L242.946 214.168Z" fill="#E2988F"/>
<path d="M238.236 213.658H243.174C243.354 213.658 243.51 213.784 243.546 213.958L244.416 217.864C244.506 218.272 244.188 218.65 243.774 218.644C242.052 218.614 241.212 218.512 239.04 218.512C237.702 218.512 234.948 218.65 233.106 218.65C231.264 218.65 231.018 216.826 231.774 216.658C235.164 215.92 236.436 214.894 237.522 213.922C237.72 213.748 237.972 213.652 238.236 213.652V213.658Z" fill="#0B1A47"/>
<path d="M212.184 213.658H216.984C217.164 213.658 217.32 213.784 217.356 213.958L218.226 217.864C218.316 218.272 218.01 218.65 217.596 218.644C215.862 218.614 213.36 218.512 211.188 218.512C208.644 218.512 206.442 218.65 203.46 218.65C201.654 218.65 201.156 216.826 201.912 216.658C205.35 215.908 208.158 215.824 211.128 213.994C211.452 213.796 211.806 213.652 212.184 213.652V213.658Z" fill="#0B1A47"/>
<path d="M220.776 53.782C220.146 56.998 219.834 60.982 222.084 63.13C222.084 63.13 220.794 66.394 214.818 66.394C209.358 66.394 212.094 63.13 212.094 63.13C215.682 62.272 215.496 57.838 214.866 55.342L220.782 53.782H220.776Z" fill="#E2988F"/>
<path d="M210.396 63.5798C210.522 62.7818 211.92 61.8518 213.522 61.5038C215.124 61.1558 221.25 60.3758 223.122 61.1558C224.994 61.9298 222.798 64.2278 222.798 64.2278L210.396 63.5858V63.5798Z" fill="#50B1AF"/>
<path opacity="0.4" d="M210.396 63.5798C210.522 62.7818 211.92 61.8518 213.522 61.5038C215.124 61.1558 221.25 60.3758 223.122 61.1558C224.994 61.9298 222.798 64.2278 222.798 64.2278L210.396 63.5858V63.5798Z" fill="white"/>
<path opacity="0.2" d="M211.716 203.992L211.944 209.236H216.342L216.114 203.992H211.716Z" fill="#0B1A47"/>
<path opacity="0.2" d="M240.738 203.992H236.34L237.48 209.236H241.878L240.738 203.992Z" fill="#0B1A47"/>
<path d="M231.21 67.0898L225.912 70.6418C225.912 70.6418 233.52 84.1718 232.884 86.3378C232.014 89.2898 230.802 95.7458 229.152 99.0158C229.368 99.7238 230.466 101.338 231.078 101.614C235.266 98.4158 239.526 88.4018 239.364 85.6118C238.998 79.2458 231.21 67.0898 231.21 67.0898Z" fill="#E2988F"/>
<path d="M229.152 99.0159L224.97 98.6919L227.172 103.318C227.172 103.318 230.838 103.48 231.45 100.678L229.152 99.0159Z" fill="#E2988F"/>
<path d="M249.912 121.576L249.558 122.242L247.182 126.736L162.834 82.132L165.558 76.978L249.912 121.576Z" fill="#50B1AF"/>
<path d="M255.366 111.274L253.626 114.562L252.642 116.422L168.288 71.8241L171.012 66.6641L255.366 111.274Z" fill="#50B1AF"/>
<path d="M168.317 71.808L165.587 76.9617L249.906 121.625L252.636 116.472L168.317 71.808Z" fill="#50B1AF"/>
<path opacity="0.2" d="M168.318 71.8054L165.588 76.959L249.907 121.623L252.637 116.469L168.318 71.8054Z" fill="#0B1A47"/>
<path d="M159.198 67.3481L156.744 71.9861L162.834 82.1381L171.012 66.6641L159.198 67.3481Z" fill="#50B1AF"/>
<path opacity="0.8" d="M159.198 67.3481L156.744 71.9861L162.834 82.1381L171.012 66.6641L159.198 67.3481Z" fill="white"/>
<path d="M154.134 67.6419L156.744 71.9859L159.198 67.3479L154.134 67.6419Z" fill="#50B1AF"/>
<path d="M221.574 100.798L223.77 104.89L227.172 103.318L224.97 98.6919L221.574 100.798Z" fill="#E2988F"/>
<path d="M229.95 64.126C234.108 64.732 238.872 79.144 238.872 79.144L230.136 84.076C230.136 84.076 226.29 77.224 224.394 72.13C222.408 66.796 225.492 63.472 229.95 64.126Z" fill="#0B1A47"/>
<path opacity="0.2" d="M227.532 69.0638C225.642 67.3358 226.8 74.7338 227.7 79.4678C228.162 80.3918 228.6 81.2318 228.972 81.9338C231.078 78.2138 230.136 71.4458 227.532 69.0638Z" fill="#0B1A47"/>
<path d="M205.326 64.348C205.326 64.348 200.136 77.62 205.068 102.346H228.582C228.744 98.734 226.476 81.13 229.956 64.12C229.956 64.12 225.924 63.31 222.084 63.124C219.078 62.98 214.728 62.884 212.088 63.124C208.608 63.442 205.326 64.342 205.326 64.342V64.348Z" fill="#0B1A47"/>
<path d="M208.944 70.522L203.016 68.176C203.016 68.176 196.188 82.114 194.04 82.816C191.118 83.776 185.112 86.434 181.482 86.932C181.02 87.508 180.318 89.326 180.432 89.992C185.442 91.63 196.104 89.458 198.312 87.742C203.346 83.83 208.944 70.522 208.944 70.522Z" fill="#E2988F"/>
<path opacity="0.2" d="M209.61 68.938C208.632 66.682 206.76 65.74 204.786 66.07C204.03 68.836 202.752 74.914 202.962 84.064L204.36 84.736C204.36 84.736 211.284 72.796 209.61 68.938Z" fill="#0B1A47"/>
<path d="M210.546 67.3598C212.028 71.2958 204.522 82.8758 204.522 82.8758L195.732 78.0998C195.732 78.0998 197.784 72.3218 200.814 67.8098C203.928 63.1718 208.926 63.0458 210.552 67.3598H210.546Z" fill="#0B1A47"/>
<path d="M181.674 86.9199L176.436 88.0539L179.088 92.8959C179.088 92.8959 180.702 92.2359 183.018 90.0279L181.674 86.9199Z" fill="#E2988F"/>
<path d="M173.97 89.128L176.058 92.02L179.094 92.896L176.442 88.054L173.97 89.128Z" fill="#E2988F"/>
<path d="M210.829 49.1557C210.85 48.8017 210.679 48.5039 210.447 48.4906C210.216 48.4772 210.011 48.7534 209.991 49.1074C209.97 49.4613 210.142 49.7591 210.373 49.7725C210.605 49.7858 210.809 49.5097 210.829 49.1557Z" fill="#0B1A47"/>
<path d="M211.14 49.1858C211.14 49.1858 210.216 51.1838 209.274 52.1138C209.868 52.7318 210.948 52.5278 210.948 52.5278L211.14 49.1858Z" fill="#C46966"/>
<path d="M210.378 47.9258C210.348 47.9258 210.318 47.9138 210.288 47.8958C210.192 47.8358 210.162 47.7038 210.228 47.6078C210.852 46.6418 211.812 46.6238 211.854 46.6238C211.968 46.6238 212.064 46.7138 212.064 46.8338C212.064 46.9478 211.974 47.0438 211.86 47.0438C211.83 47.0438 211.08 47.0618 210.582 47.8358C210.54 47.9078 210.456 47.9378 210.384 47.9318L210.378 47.9258Z" fill="#0B1A47"/>
<path d="M222.756 48.8439C222.24 53.1759 222.156 55.7379 219.834 57.8439C216.336 61.0119 211.086 58.7079 210.3 54.3099C209.592 50.3499 210.558 43.9299 214.914 42.4479C219.204 40.9839 223.278 44.5119 222.762 48.8439H222.756Z" fill="#E2988F"/>
<path d="M214.026 49.6958C212.508 49.9958 210.084 46.6238 212.058 43.7618C211.056 43.2638 207.792 45.2258 206.556 43.3958C205.32 41.5658 208.74 40.5818 208.092 39.0278C210.408 39.5018 206.592 42.3938 208.794 42.1118C210.996 41.8298 213.534 37.7618 216.018 39.4298C220.368 42.3578 226.29 37.4798 223.872 43.5818C226.836 42.9818 228.864 46.4918 226.038 48.9158C220.41 53.7518 223.872 54.3818 220.302 54.6338C218.49 54.7598 214.332 52.6178 214.02 49.7018L214.026 49.6958Z" fill="#0B1A47"/>
<path d="M216.276 50.812C215.832 51.748 214.992 52.396 214.182 52.666C212.964 53.074 212.292 52 212.574 50.818C212.826 49.75 213.768 48.256 215.016 48.358C216.264 48.46 216.792 49.738 216.276 50.812Z" fill="#E2988F"/>
<path d="M213.402 102.346C213.402 102.346 218.388 135.94 221.13 148.528C224.13 162.31 235.428 208.222 235.428 208.222H243.48C243.48 208.222 236.028 163.426 234.318 149.776C232.458 134.968 228.576 102.346 228.576 102.346H213.402Z" fill="#50B1AF"/>
<path opacity="0.2" d="M213.402 102.346C213.402 102.346 218.388 135.94 221.13 148.528C224.13 162.31 235.428 208.222 235.428 208.222H243.48C243.48 208.222 236.028 163.426 234.318 149.776C232.458 134.968 228.576 102.346 228.576 102.346H213.402Z" fill="white"/>
<path opacity="0.2" d="M219.33 114.094C218.958 113.566 218.622 113.386 218.31 113.476C218.286 113.482 218.268 113.488 218.244 113.5C218.178 113.53 218.112 113.566 218.046 113.62C217.986 113.668 217.932 113.728 217.872 113.794C217.842 113.83 217.806 113.872 217.776 113.914C217.734 113.974 217.692 114.04 217.65 114.112C217.56 114.268 217.47 114.454 217.38 114.658C217.332 114.772 217.29 114.886 217.242 115.012C217.188 115.162 217.134 115.318 217.086 115.486C217.02 115.708 216.954 115.942 216.888 116.188C216.87 116.254 216.858 116.314 216.84 116.38C216.804 116.512 216.774 116.656 216.744 116.794C216.72 116.914 216.69 117.028 216.666 117.154C216.618 117.394 216.564 117.634 216.516 117.886C216.468 118.156 216.414 118.426 216.366 118.708C216.348 118.804 216.33 118.906 216.318 119.008C216.258 119.368 216.204 119.734 216.15 120.112C217.482 128.476 219.066 138.064 220.368 144.754C220.434 144.538 220.494 144.31 220.554 144.064C220.788 143.098 220.992 141.952 221.154 140.674C222.264 132.052 221.742 117.526 219.336 114.088L219.33 114.094Z" fill="#0B1A47"/>
<path d="M205.062 102.346C205.062 102.346 204.456 135.214 204.936 148.618C205.434 162.562 210.306 208.216 210.306 208.216H217.752C217.752 208.216 218.028 163.372 218.358 149.68C218.718 134.752 220.524 102.34 220.524 102.34H205.068L205.062 102.346Z" fill="#50B1AF"/>
<path opacity="0.2" d="M205.062 102.346C205.062 102.346 204.456 135.214 204.936 148.618C205.434 162.562 210.306 208.216 210.306 208.216H217.752C217.752 208.216 218.028 163.372 218.358 149.68C218.718 134.752 220.524 102.34 220.524 102.34H205.068L205.062 102.346Z" fill="white"/>
<path d="M218.244 205.942C218.28 205.942 218.244 208.378 218.244 208.378H209.658L209.298 205.642L218.244 205.942Z" fill="#0B1A47"/>
<path d="M243.48 206.122C243.516 206.122 243.882 208.372 243.882 208.372H235.032L234.246 205.786L243.48 206.122Z" fill="#0B1A47"/>
<path d="M236.784 214.426C236.448 214.426 236.136 214.372 235.938 214.204C235.782 214.072 235.71 213.886 235.722 213.652C235.734 213.478 235.824 213.394 235.902 213.358C236.382 213.112 237.804 213.982 237.966 214.078C238.002 214.102 238.02 214.144 238.014 214.186C238.008 214.228 237.978 214.258 237.936 214.27C237.63 214.342 237.192 214.426 236.784 214.426ZM236.13 213.514C236.076 213.514 236.028 213.52 235.992 213.538C235.962 213.55 235.932 213.58 235.926 213.658C235.914 213.826 235.962 213.946 236.07 214.036C236.31 214.24 236.886 214.264 237.63 214.114C237.132 213.826 236.466 213.508 236.13 213.508V213.514Z" fill="#50B1AF"/>
<path d="M237.906 214.27C237.906 214.27 237.87 214.27 237.858 214.258C237.402 214.012 236.526 213.046 236.616 212.56C236.634 212.47 236.7 212.32 236.946 212.29C237.108 212.272 237.258 212.314 237.39 212.422C237.9 212.842 238.008 214.108 238.008 214.162C238.008 214.198 237.99 214.234 237.96 214.258C237.942 214.27 237.924 214.276 237.906 214.276V214.27ZM237.018 212.488C237.018 212.488 236.988 212.488 236.97 212.488C236.832 212.506 236.82 212.566 236.82 212.59C236.766 212.878 237.324 213.61 237.78 213.952C237.726 213.58 237.588 212.842 237.264 212.572C237.192 212.512 237.108 212.482 237.024 212.482L237.018 212.488Z" fill="#50B1AF"/>
<path d="M210.354 214.426C209.916 214.426 209.514 214.36 209.286 214.156C209.142 214.03 209.076 213.856 209.094 213.652C209.106 213.526 209.16 213.43 209.268 213.376C209.802 213.076 211.566 213.976 211.77 214.078C211.812 214.096 211.83 214.144 211.824 214.186C211.818 214.228 211.782 214.264 211.74 214.276C211.368 214.348 210.84 214.432 210.36 214.432L210.354 214.426ZM209.556 213.514C209.478 213.514 209.406 213.526 209.364 213.55C209.322 213.574 209.304 213.604 209.298 213.664C209.286 213.802 209.328 213.916 209.424 214C209.694 214.24 210.42 214.282 211.386 214.12C210.78 213.832 209.97 213.514 209.556 213.514Z" fill="#50B1AF"/>
<path d="M211.716 214.27C211.716 214.27 211.686 214.27 211.674 214.264C211.146 214.024 210.09 213.076 210.174 212.578C210.192 212.464 210.276 212.314 210.564 212.29C210.774 212.266 210.972 212.326 211.14 212.47C211.698 212.932 211.818 214.114 211.824 214.162C211.824 214.198 211.812 214.234 211.782 214.258C211.764 214.27 211.74 214.276 211.722 214.276L211.716 214.27ZM210.642 212.488C210.642 212.488 210.6 212.488 210.582 212.488C210.396 212.506 210.384 212.578 210.378 212.608C210.33 212.908 211.044 213.652 211.584 213.976C211.53 213.628 211.368 212.92 211.002 212.62C210.894 212.53 210.774 212.482 210.642 212.482V212.488Z" fill="#50B1AF"/>
</svg>
