<svg width="40" height="32" viewBox="0 0 40 32" fill="none" xmlns="http://www.w3.org/2000/svg">
<path d="M6.2077 12.3608C5.69928 15.4575 6.02282 19.0072 8.32457 21.1425C11.5045 24.1006 16.829 23.0283 20.4989 25.3578C22.1166 26.3838 23.2998 28.0015 24.9637 28.9352C27.6352 30.4419 31.2034 29.8318 33.5421 27.8444C35.8808 25.8569 37.064 22.7232 37.1195 19.6542C37.175 16.5852 36.2136 13.5717 34.8547 10.817C33.9396 8.95898 32.8118 7.16565 31.2588 5.7883C28.3932 3.24621 24.446 2.39576 20.693 1.63776C17.0694 0.907486 12.1331 0.214189 9.16577 3.13528C7.08588 5.18744 6.65141 9.65228 6.2077 12.3608Z" fill="#F3F8F9"/>
<path d="M23.9334 14.988C22.9803 21.8578 20.5345 28.9793 17.7111 29.294C16.4252 29.4379 16.0835 27.5406 15.7508 24.852C15.4811 22.694 15.2293 20.6618 13.9165 20.482C13.8625 20.473 13.7996 20.482 13.7546 20.491C12.5138 20.7428 12.262 22.739 11.9923 24.852C11.6596 27.5406 11.3179 29.4379 10.032 29.294C7.2086 28.9793 4.76283 21.8578 3.80969 14.988C3.62087 13.6392 3.45901 10.3123 6.02168 8.46894C7.66719 7.29101 9.34866 7.58774 11.12 7.90245C12.0012 8.0643 12.9184 8.22616 13.8715 8.21717C14.8247 8.23515 15.7328 8.0643 16.623 7.90245C18.3944 7.58774 20.0759 7.28202 21.7214 8.46894C22.216 8.82861 22.6116 9.23324 22.9173 9.68283C23.1781 9.63787 23.4388 9.60191 23.6816 9.55695C23.277 8.90054 22.7555 8.34305 22.126 7.89346C20.2378 6.53569 18.3315 6.87738 16.4882 7.21008C15.6339 7.36294 14.7527 7.5158 13.8715 7.5158C13.8715 7.5158 13.8715 7.5158 13.8625 7.5158C12.9903 7.52479 12.0912 7.36294 11.2459 7.21008C9.40261 6.87738 7.50533 6.53569 5.60806 7.89346C3.5849 9.34114 2.66773 11.9668 3.10833 15.0779C4.10642 22.2264 6.60615 29.6087 9.9601 29.9864C12.0372 30.2202 12.3879 27.4057 12.7026 24.924C12.9094 23.2515 13.1522 21.3632 13.8805 21.1744C14.6089 21.3632 14.8517 23.2515 15.0585 24.924C15.3552 27.3068 15.6879 29.9954 17.5672 29.9954C17.6391 29.9954 17.72 29.9954 17.801 29.9864C21.1459 29.6177 23.6546 22.2354 24.6527 15.0779C24.8595 13.5673 24.7516 12.1736 24.356 10.9687C24.1132 10.9327 23.8435 10.8877 23.5557 10.8428C24.1582 12.4343 24.0503 14.1158 23.9334 14.988Z" fill="#777F87"/>
<path d="M9.08779 8.84659C5.2303 9.01744 4.95155 13.8011 4.95155 13.846C4.94256 14.0439 5.09542 14.2057 5.28425 14.2147C5.29324 14.2147 5.29324 14.2147 5.30223 14.2147C5.49106 14.2147 5.64392 14.0708 5.65291 13.882C5.65291 13.8371 5.89569 9.69182 9.11476 9.54795C9.31258 9.53896 9.45645 9.37711 9.45645 9.17929C9.44746 8.98147 9.27661 8.8376 9.08779 8.84659Z" fill="#777F87"/>
<path d="M26.9452 9.31417C26.7834 8.26212 26.109 4.05395 26.073 4C26.0371 4.05395 25.3717 8.25313 25.2008 9.31417C24.994 9.35013 24.4006 9.44005 23.6722 9.55694C23.4294 9.59291 23.1687 9.63787 22.9079 9.68283C21.4153 9.92561 19.7518 10.1954 19.7158 10.2133C19.7518 10.2403 21.9188 10.591 23.5284 10.8518C23.8161 10.8967 24.0858 10.9417 24.3286 10.9777C24.7333 11.0406 25.048 11.0945 25.1828 11.1125C25.3357 12.0567 26.0191 16.4357 26.064 16.4896C26.109 16.4357 26.7924 12.0747 26.9452 11.1215C27.5747 11.0226 32.3763 10.2673 32.4303 10.2223C32.3943 10.1684 27.5387 9.41308 26.9452 9.31417Z" fill="#8ACB8F"/>
</svg>
