<svg width="324" height="190" viewBox="0 0 324 190" fill="none" xmlns="http://www.w3.org/2000/svg">
<path d="M353.525 179.572C418.695 97.3438 355.147 96.5829 329.079 112.325C303.011 128.067 397.157 31.6359 340.879 7.64218C294.981 -11.9214 252.616 105.173 239.582 95.1626C226.548 85.1525 221.493 33.6311 184.014 47.9361C146.518 62.241 117.187 160.972 113.925 185.304C191.182 197.056 327.44 212.476 353.525 179.572Z" fill="#F7EDFF"/>
<path d="M294.582 195.968C277.034 140.473 331.875 80.2946 331.875 80.2946C331.875 80.2946 344.3 156.232 326.026 187.209C307.734 218.17 307.007 211.744 307.007 211.744L294.582 195.968Z" fill="white"/>
<path d="M182.671 202.31C153.177 152.133 193.199 81.2303 193.199 81.2303C193.199 81.2303 222.264 152.478 211.366 186.753C200.448 221.015 198.305 214.914 198.305 214.914L182.671 202.31Z" fill="white"/>
<path d="M118.589 104.024C123.576 104.937 128.124 107.659 132.316 111.531C134.446 113.459 136.475 115.691 138.419 118.126C140.38 120.56 142.155 123.232 144.032 126.005C144.032 126.005 143.947 125.532 143.795 124.686C143.626 123.858 143.44 122.657 143.22 121.203C142.781 118.312 142.189 114.473 141.597 110.635C141.056 106.78 140.583 102.924 140.211 100.033C140.025 98.5789 139.873 97.3783 139.755 96.5329C139.653 95.6874 139.603 95.1971 139.603 95.1971C138.926 95.2985 133.872 93.912 129.206 88.7717C125.098 84.3247 122.173 77.9839 120.601 74.2808C119.975 72.8097 120.263 71.3894 121.125 71.6261C124.979 72.6914 128.36 75.1601 131.319 78.5588C132.807 80.2666 134.159 82.1942 135.461 84.3078C136.779 86.4214 138.013 88.7041 139.163 91.1221C139.163 91.1221 138.96 89.279 138.673 86.5059C138.352 83.7329 138.03 80.0467 137.709 76.3437C137.54 74.5006 137.371 72.6406 137.219 70.9159C137.084 69.1743 136.965 67.568 136.864 66.1645C136.661 63.3915 136.526 61.5315 136.526 61.5315C136.306 61.7682 135.985 61.8528 135.63 61.6499C132.519 59.8744 129.966 57.3381 127.989 54.007C125.977 50.676 124.607 46.5164 123.847 41.5283C123.678 40.3616 124.32 39.5668 125.064 40.0234C130.998 43.7095 134.396 49.6107 136.238 57.4395C136.238 57.4395 136.036 53.8549 135.816 50.2702C135.647 46.6855 135.478 43.1008 135.478 43.1008C135.292 42.9825 135.123 42.7795 134.987 42.4752C131.556 34.1729 131.167 25.431 134.379 16.5877C134.751 15.5562 135.63 15.5731 135.985 16.5877C139.078 24.9914 139.433 33.4797 136.593 42.3906C136.492 42.7119 136.34 42.9317 136.154 43.0501C136.154 43.0501 136.323 46.5164 136.475 49.9827C136.678 53.449 136.881 56.9154 136.881 56.9154C137.811 49.0358 140.735 43.0839 146.179 39.1949C146.872 38.6876 147.599 39.4316 147.531 40.5645C147.345 43.4221 146.703 48.4778 144.708 52.9418C142.679 57.4057 139.721 60.1619 138.013 61.4808C137.726 61.7006 137.439 61.7006 137.202 61.5484C137.202 61.5484 137.337 63.3915 137.54 66.1645C137.642 67.5511 137.76 69.1743 137.895 70.899C138.047 72.6237 138.216 74.4668 138.385 76.3268C138.707 80.0129 139.028 83.716 139.349 86.4721C139.653 89.2283 139.839 91.0713 139.839 91.0713C140.262 88.3828 140.803 85.7958 141.479 83.3778C142.172 80.9598 143.051 78.6771 144.049 76.6142C146.077 72.4885 148.731 69.1912 152.265 67.0776C153.042 66.6211 153.617 67.8385 153.347 69.3772C153.025 71.3048 152.518 73.9595 151.757 76.8171C150.98 79.6748 149.949 82.7353 148.647 85.4745C145.638 91.697 140.989 95.3662 140.262 95.1464C140.262 95.1464 140.313 95.6367 140.414 96.516C140.532 97.3783 140.684 98.6296 140.87 100.118C141.276 103.094 141.733 107.067 142.307 111.024C142.916 114.981 143.508 118.937 143.964 121.896C144.167 123.384 144.421 124.602 144.573 125.464C144.725 126.326 144.809 126.817 144.809 126.817C145.029 125.701 145.35 124.348 145.79 122.877C146.246 121.389 146.804 119.766 147.447 118.126C148.715 114.828 150.321 111.413 152.129 108.673C156.085 102.806 160.498 100.219 162.966 99.1369C163.946 98.7142 164.487 100.151 163.98 101.842C162.188 107.642 160.379 112.241 158.351 115.978C156.339 119.698 154.276 122.488 152.451 124.517C148.748 128.592 145.672 129.674 145.266 129.37C145.858 132.6 146.348 135.626 146.939 138.433C147.531 141.24 148.089 143.844 148.613 146.262C149.577 151.132 150.692 155.19 151.555 158.673C153.211 165.64 154.682 170.036 155.494 172.91C157.167 178.642 156.914 178.118 156.66 178.203C156.406 178.287 156.491 178.879 154.75 173.063C153.921 170.154 152.434 165.673 150.777 158.605C149.898 155.071 148.816 150.946 147.835 146.008C147.311 143.54 146.754 140.902 146.145 138.061C145.587 135.204 145.063 132.143 144.471 128.863C144.15 129.218 142.257 129.032 139.653 128.102C137.067 127.172 133.686 125.481 130.643 122.86C125.182 118.21 120.533 111.244 118.251 107.152C117.372 105.478 117.524 103.821 118.589 104.024Z" fill="url(#paint0_linear)"/>
<path d="M132.571 197.124C128.632 197.784 93.2829 202.366 63.1575 170.933C34.3034 140.809 42.7011 50.0191 43.4612 42.4098L132.571 197.124ZM132.571 197.124C136.51 196.482 163.998 187.3 163.998 187.3L132.571 197.124ZM47.8652 137.387C51.1111 150.925 56.0778 162.819 63.5185 170.587C93.4753 201.844 128.616 197.28 132.488 196.631L132.49 196.631C133.434 196.477 135.853 195.795 138.998 194.84C142.125 193.89 145.927 192.683 149.608 191.496C153.289 190.308 156.847 189.141 159.485 188.27C160.804 187.835 161.893 187.474 162.652 187.222C163.001 187.105 163.281 187.012 163.481 186.946C160.084 114.633 119.014 67.1676 81.3441 54.8209C81.3441 54.8208 81.3441 54.8208 81.3441 54.8208L48.106 43.9315L43.9513 42.5704L43.9479 42.5692C43.9341 42.7077 43.9184 42.8689 43.9008 43.0521C43.8315 43.7726 43.7338 44.8341 43.6201 46.1967C43.3927 48.922 43.1014 52.8516 42.8457 57.6658C42.3343 67.295 41.9661 80.4592 42.538 94.6025C43.11 108.748 44.6218 123.859 47.8652 137.387Z" fill="white" stroke="#333333"/>
<path d="M147.634 195.298C147.82 195.298 148.006 195.264 148.192 195.18C148.919 194.876 149.274 194.03 148.952 193.303C148.547 192.322 107.027 94.3015 61.3994 60.4161C60.757 59.9426 59.861 60.0779 59.3877 60.7204C58.9143 61.363 59.0496 62.2591 59.692 62.7326C104.694 96.1615 145.909 193.455 146.315 194.436C146.535 194.96 147.076 195.298 147.634 195.298Z" fill="#333333"/>
<path d="M114.668 132.126C116.02 132.126 116.865 132.093 117.068 132.093L118.201 132.042L118.421 130.926C118.64 129.844 123.408 104.193 107.01 72.0323C106.655 71.3221 105.792 71.0515 105.082 71.4066C104.372 71.7617 104.102 72.624 104.457 73.3342C118.505 100.879 116.493 123.943 115.783 129.235C109.089 129.286 75.3289 128.576 52.9461 110.213C52.3375 109.705 51.4247 109.807 50.9175 110.415C50.4103 111.024 50.5118 111.937 51.1204 112.444C73.4524 130.774 105.606 132.126 114.668 132.126Z" fill="#333333"/>
<path d="M103.579 175.633C120.4 175.633 138.708 172.099 139.773 171.896L140.331 171.795L140.669 171.338C141.007 170.865 149.071 159.231 148.412 127.679C148.395 126.885 147.736 126.259 146.941 126.276C146.147 126.293 145.521 126.952 145.538 127.747C146.113 154.953 140.027 166.823 138.624 169.208C133.873 170.087 102.395 175.582 86.4875 170.882C69.2609 165.775 59.4727 159.333 59.3713 159.265C58.712 158.826 57.8159 159.012 57.3764 159.671C56.9369 160.33 57.1228 161.227 57.7822 161.666C58.1879 161.937 67.993 168.396 85.676 173.638C90.68 175.109 97.0195 175.633 103.579 175.633Z" fill="#333333"/>
<path d="M57.072 183.901C59.9797 181.246 63.5806 179.758 67.7562 179.268C69.8187 179.048 72.0164 179.082 74.2986 179.336C76.547 179.657 78.9476 180.097 81.2974 180.857C81.2974 180.857 80.2324 179.877 78.5588 178.507C77.7135 177.831 76.7668 176.985 75.7017 176.157C74.6367 175.328 73.4871 174.449 72.3545 173.57C70.0215 171.879 67.6717 170.205 65.8459 169.038C64.9499 168.446 64.1892 167.939 63.6482 167.618C63.1072 167.297 62.8029 167.094 62.8029 167.094C62.6677 167.33 61.7886 168.074 60.3178 168.835C58.864 169.596 56.8015 170.442 54.3502 170.915C52.2371 171.287 49.9717 171.507 47.9769 171.524C45.9313 171.625 44.1563 171.524 42.8377 171.524C41.8064 171.49 41.1133 170.864 41.5359 170.323C45.3566 165.487 52.2878 164.135 60.1995 165.504C60.1995 165.504 58.9992 164.828 57.2072 163.813C55.3815 162.833 52.9471 161.564 50.4451 160.415C47.9431 159.248 45.4073 158.2 43.4632 157.489C42.4996 157.117 41.6881 156.813 41.1133 156.627C40.5385 156.441 40.2173 156.323 40.2173 156.323C40.3188 156.559 40.2681 156.813 40.0314 156.999C35.7712 160.482 30.5644 161.801 24.2079 161.7C23.4641 161.7 23.0415 161.108 23.4303 160.584C26.4395 156.39 31.3758 154.699 37.3096 155.393C37.3096 155.393 36.6672 155.207 35.7205 154.919C34.7569 154.649 33.4721 154.327 32.1873 153.989C30.8856 153.719 29.5839 153.397 28.6033 153.228C27.6228 153.059 26.9635 152.941 26.9635 152.941C26.8452 153.059 26.6761 153.161 26.4395 153.211C23.1767 153.939 20.1168 154.294 17.1246 154.344C15.62 154.361 14.1493 154.361 12.6278 154.277C11.1232 154.26 9.6186 154.141 8.04639 154.378C7.31947 154.497 6.81229 154.023 7.35327 153.313C8.50284 151.893 10.1427 150.946 11.7656 150.32C13.4054 149.728 15.1298 149.407 16.8203 149.373C20.2183 149.289 23.5824 150.202 26.6423 151.96C26.8621 152.095 26.9973 152.248 27.0649 152.4C27.0649 152.4 27.7074 152.518 28.6541 152.687C29.6177 152.839 30.8687 153.161 32.1366 153.414C33.3876 153.736 34.6385 154.057 35.5853 154.294C36.515 154.564 37.1406 154.75 37.1406 154.75C31.883 152.011 28.0793 148.832 25.4928 144.081C25.1547 143.472 25.8647 143.015 26.8283 143.235C29.2119 143.81 33.3199 145.247 36.2277 147.936C39.1523 150.591 40.2343 153.55 40.6231 155.19C40.6907 155.46 40.6061 155.663 40.4202 155.799C40.4202 155.799 40.7414 155.917 41.3162 156.103C41.891 156.289 42.7024 156.593 43.666 156.965C45.6102 157.692 48.1629 158.741 50.6649 159.907C53.1838 161.057 55.6181 162.342 57.4439 163.306C59.2528 164.321 60.4531 164.997 60.4531 164.997C54.8405 159.13 50.0901 153.313 49.3124 146.803C49.2279 146.093 50.3944 146.11 51.4425 146.904C54.1643 148.798 58.5089 152.637 60.9433 156.83C63.7158 161.632 63.5298 166.248 63.0565 166.57C63.0565 166.57 63.3777 166.755 63.9356 167.111C64.4935 167.432 65.2711 167.956 66.2009 168.582C68.0774 169.782 70.5118 171.524 72.9123 173.282C77.7135 176.833 82.1258 180.857 82.1258 180.857C80.7057 177.729 78.1868 171.676 77.0711 166.502C75.837 161.057 76.4456 156.999 77.0034 154.97C77.2232 154.158 78.508 154.632 79.3364 155.934C85.0166 164.693 85.9464 171.389 85.7097 175.7C85.4223 180.046 83.9516 182.126 83.5627 182.143C85.3885 183.783 86.9776 185.406 88.5329 186.877C90.0037 188.416 91.3899 189.853 92.6578 191.189C93.8919 192.558 95.0246 193.844 96.0896 195.01C97.1209 196.194 98.0337 197.327 98.8959 198.358C100.637 200.387 101.922 202.163 103.038 203.583C104.153 205.003 104.965 206.17 105.607 207.066C108.194 210.702 107.873 210.38 107.704 210.499C107.535 210.617 107.737 211.023 105.1 207.371C104.441 206.458 103.629 205.291 102.497 203.854C101.364 202.416 100.062 200.624 98.3211 198.561C94.9062 194.402 90.1389 188.838 82.8189 182.193C82.7851 182.565 81.5172 183.36 79.5392 184.104C77.5613 184.848 74.8734 185.541 71.9318 185.829C66.7588 186.218 61.2645 185.66 58.2892 185.288C57.1396 185.22 56.4634 184.459 57.072 183.901Z" fill="url(#paint1_linear)"/>
<path d="M96.8832 11.1937C100.805 15.8436 107.28 16.8243 107.28 16.8243C107.28 16.8243 107.381 10.2806 103.459 5.63066C99.5374 0.980719 93.0626 0 93.0626 0C93.0626 0 92.9612 6.54373 96.8832 11.1937Z" fill="url(#paint2_linear)"/>
<path d="M5.72903 126.073C9.68489 130.756 15.2637 132.566 15.2637 132.566C15.2637 132.566 14.4015 126.766 10.4456 122.082C6.48976 117.398 0.910981 115.589 0.910981 115.589C0.910981 115.589 1.77317 121.389 5.72903 126.073Z" fill="url(#paint3_linear)"/>
<path d="M97.3555 47.4462C100.855 52.0792 105.994 54.1252 105.994 54.1252C105.994 54.1252 105.453 48.6298 101.937 43.9968C98.4374 39.3469 93.2982 37.3178 93.2982 37.3178C93.2982 37.3178 93.8561 42.7963 97.3555 47.4462Z" fill="url(#paint4_linear)"/>
<path d="M152.399 16.2152C150.201 21.6092 151.097 27.0538 151.097 27.0538C151.097 27.0538 155.544 23.7735 157.724 18.3796C159.905 12.9857 159.026 7.54102 159.026 7.54102C159.026 7.54102 154.597 10.8213 152.399 16.2152Z" fill="url(#paint5_linear)"/>
<path d="M316.355 201.065C324.402 141.478 366.091 119.869 366.091 119.869C366.091 119.869 360.968 162.513 342.694 184.714C324.402 206.899 316.355 201.065 316.355 201.065Z" fill="white"/>
<path d="M205.031 202.418C199.573 142.538 235.385 112.167 235.385 112.167C235.385 112.167 239.912 154.879 227.055 180.6C214.178 206.308 205.031 202.418 205.031 202.418Z" fill="white"/>
<path d="M380.064 155.618C379.584 155.476 379.584 155.476 379.585 155.475L379.585 155.474L379.585 155.474L379.585 155.474L379.585 155.473L379.586 155.469L379.588 155.463L379.6 155.421C379.611 155.384 379.627 155.329 379.649 155.256C379.691 155.109 379.753 154.892 379.833 154.607C379.993 154.037 380.223 153.201 380.503 152.133C381.064 149.999 381.825 146.942 382.629 143.258C384.238 135.888 386.013 126.017 386.687 115.995C387.362 105.963 386.928 95.8303 384.155 87.911C381.39 80.0165 376.327 74.3757 367.727 73.1472C350.185 70.6414 339.574 75.6591 333.76 83.8522C327.914 92.0885 326.823 103.658 328.616 114.413L328.616 114.413C330.411 125.213 333.11 136.199 335.362 144.488C336.488 148.632 337.501 152.099 338.233 154.531C338.599 155.747 338.895 156.703 339.098 157.355C339.2 157.682 339.279 157.932 339.333 158.1L339.394 158.291L339.409 158.339L339.413 158.351L339.414 158.354L339.414 158.354C339.414 158.354 339.414 158.354 339.362 158.371L339.414 158.354L338.505 158.758L338.554 158.73C338.505 158.758 338.505 158.758 338.505 158.758L338.505 158.757L338.502 158.752L338.49 158.732L338.444 158.653C338.402 158.583 338.34 158.478 338.257 158.341C338.092 158.067 337.844 157.664 337.519 157.153C336.87 156.13 335.909 154.674 334.669 152.943C332.189 149.48 328.596 144.923 324.14 140.543C315.206 131.758 302.927 123.799 289.265 126.534L289.167 126.044L289.265 126.534C276.802 129.027 269.894 135.599 265.994 143.314C262.077 151.06 261.177 159.987 260.818 167.191C260.603 171.552 261.588 176.822 262.811 181.481C263.963 185.87 265.316 189.679 266.039 191.607H436.296C435.358 183.271 435.24 174.852 436.097 166.472C438.26 145.329 427.356 132.486 415.224 127.32C409.145 124.731 402.771 124.077 397.58 125.257C392.393 126.437 388.436 129.43 387.03 134.115L381.354 153.056L380.644 155.423L380.555 155.719L380.548 155.745L380.544 155.756L380.544 155.756L380.544 155.759L380.543 155.761L380.543 155.762L380.543 155.762L380.543 155.762L380.543 155.762C380.362 156.019 380.064 156.118 380.064 155.618ZM380.064 155.618L379.584 155.476L379.394 156.118H380.064V155.618Z" fill="white" stroke="#333333"/>
<path d="M313.578 193.055C313.709 193.055 313.851 193.001 313.949 192.902C314.134 192.728 314.167 192.444 314.036 192.226C313.807 191.845 291.053 154.266 292.11 135.182C292.132 134.887 291.903 134.626 291.598 134.615C291.304 134.593 291.042 134.822 291.031 135.127C290.082 152.161 307.058 182.488 311.877 190.732C304.823 185.978 281.262 169.849 277.969 164.462C277.817 164.211 277.479 164.124 277.228 164.287C276.977 164.44 276.89 164.778 277.054 165.029C281.033 171.55 311.964 192.106 313.284 192.979C313.371 193.022 313.469 193.055 313.578 193.055Z" fill="#333333"/>
<path d="M313.578 193.056C313.786 193.056 313.971 192.947 314.058 192.761C317.242 186.393 326.367 169.555 330.347 168.138C330.63 168.039 330.772 167.723 330.674 167.451C330.576 167.167 330.26 167.025 329.987 167.123C325.582 168.694 316.849 185.008 314.004 190.504C313.644 183.666 312.837 160.515 317.351 143.961C317.427 143.677 317.264 143.372 316.969 143.296C316.686 143.219 316.38 143.383 316.304 143.677C310.929 163.383 313.022 192.271 313.044 192.554C313.066 192.794 313.24 193.001 313.48 193.045C313.502 193.045 313.535 193.056 313.578 193.056Z" fill="#333333"/>
<path d="M298.312 128.736C288.896 134.218 283.553 143.494 279.328 153.576C278.416 148.398 276.374 139.712 273.974 131.984C275.245 131.581 284.726 125.968 286.116 109.728C286.224 108.463 285.443 107.679 284.671 108.245C277.689 113.368 274.626 121.008 273.116 129.183C271.194 123.112 268.501 115.57 265.96 109.292C266.264 109.335 266.6 109.226 266.883 108.921C271.846 103.646 273.692 97.3353 271.781 90.1744C271.553 89.3352 270.64 89.1608 270.076 89.8475C265.504 95.2862 264.103 100.747 264.874 106.578C262.463 100.79 263.321 102.818 260.866 97.1827C261.659 96.278 262.55 85.8692 253.188 79.9727C252.482 79.5259 251.657 80.0272 251.635 80.8665C251.386 87.8202 253.786 93.2262 259.531 97.3244C259.737 97.477 259.965 97.5206 260.182 97.5206C261.746 101.117 262.647 103.134 264.048 106.589C260.508 102.12 255.675 99.8857 249.04 100.333C248.193 100.387 247.726 101.215 248.171 101.869C249.3 103.504 251.538 106.294 255.013 108.027C258.412 109.739 264.472 110.545 265.286 109.651C267.654 115.526 270.369 123.014 272.411 129.466C267.154 123.406 260.454 119.548 252.07 120.409C251.147 120.507 250.951 121.532 251.711 122.327C253.623 124.344 257.207 127.755 261.659 129.935C266.731 132.387 272.595 132.714 273.258 132.257C276.233 141.902 278.242 151.461 278.698 154.393C272.975 147.81 262.941 142.818 251.429 144.333C250.289 144.486 250.191 145.543 251.234 146.327C265.156 156.791 278.166 157.15 279.024 156.213C281.305 169.881 280.936 178.851 279.437 188.072C278.46 192.235 278.655 191.865 278.927 191.941C279.958 192.224 283.379 176.976 279.687 155.592C280.718 155.886 294.369 150.698 299.647 130.731C300.038 129.227 299.322 128.148 298.312 128.736Z" fill="#A6B6B6"/>
<defs>
<linearGradient id="paint0_linear" x1="117.679" y1="97.0398" x2="164.174" y2="97.0398" gradientUnits="userSpaceOnUse">
<stop stop-color="#BA58E1"/>
<stop offset="1" stop-color="#6F49BC"/>
</linearGradient>
<linearGradient id="paint1_linear" x1="7.12685" y1="176.876" x2="107.814" y2="176.876" gradientUnits="userSpaceOnUse">
<stop stop-color="#BA58E1"/>
<stop offset="1" stop-color="#6F49BC"/>
</linearGradient>
<linearGradient id="paint2_linear" x1="93.0623" y1="8.41217" x2="107.28" y2="8.41217" gradientUnits="userSpaceOnUse">
<stop stop-color="#BA58E1"/>
<stop offset="1" stop-color="#6F49BC"/>
</linearGradient>
<linearGradient id="paint3_linear" x1="0.910981" y1="124.077" x2="15.2637" y2="124.077" gradientUnits="userSpaceOnUse">
<stop stop-color="#BA58E1"/>
<stop offset="1" stop-color="#6F49BC"/>
</linearGradient>
<linearGradient id="paint4_linear" x1="93.2982" y1="45.7215" x2="105.994" y2="45.7215" gradientUnits="userSpaceOnUse">
<stop stop-color="#BA58E1"/>
<stop offset="1" stop-color="#6F49BC"/>
</linearGradient>
<linearGradient id="paint5_linear" x1="150.917" y1="17.2974" x2="159.201" y2="17.2974" gradientUnits="userSpaceOnUse">
<stop stop-color="#BA58E1"/>
<stop offset="1" stop-color="#6F49BC"/>
</linearGradient>
</defs>
</svg>
