<svg width="70" height="70" viewBox="0 0 70 70" fill="none" xmlns="http://www.w3.org/2000/svg">
<path d="M35 70C54.33 70 70 54.33 70 35C70 15.67 54.33 0 35 0C15.67 0 0 15.67 0 35C0 54.33 15.67 70 35 70Z" fill="url(#paint0_linear_226_7959)"/>
<path d="M35.0025 16.0332C39.8513 16.0332 44.6987 17.8851 48.4066 21.5931C55.8225 29.009 55.8225 40.9911 48.4066 48.4071C40.9908 55.823 29.0086 55.823 21.5927 48.4071C14.1768 40.9911 14.1768 29.009 21.5927 21.5931C25.3006 17.8851 30.1537 16.0332 35.0025 16.0332ZM43.6386 29.1639C43.3624 29.1892 43.094 29.2953 42.8752 29.4658L32.2226 37.4582L27.2836 32.5192C26.2121 31.4032 24.1054 33.5099 25.2214 34.5814L31.0548 40.4147C31.5453 40.9044 32.402 40.9659 32.9574 40.5514L44.6241 31.8014C45.606 31.0867 45.001 29.1813 43.7867 29.1639C43.7374 29.1614 43.6879 29.1614 43.6386 29.1639L43.6386 29.1639Z" fill="white"/>
<defs>
<linearGradient id="paint0_linear_226_7959" x1="0" y1="35" x2="70" y2="35" gradientUnits="userSpaceOnUse">
<stop stop-color="#DE4624"/>
<stop offset="1" stop-color="#D11C3A"/>
</linearGradient>
</defs>
</svg>
