<svg width="70" height="70" viewBox="0 0 70 70" fill="none" xmlns="http://www.w3.org/2000/svg">
<path d="M35 70C54.33 70 70 54.33 70 35C70 15.67 54.33 0 35 0C15.67 0 0 15.67 0 35C0 54.33 15.67 70 35 70Z" fill="url(#paint0_linear)"/>
<path d="M42.3657 69.174C43.0365 69.0435 43.7033 68.8935 44.3652 68.724C45.4881 68.411 46.5946 68.0422 47.6807 67.6188C48.769 67.1977 49.8356 66.7224 50.8765 66.1947C51.917 65.6646 52.9304 65.0828 53.9128 64.4515C54.8936 63.8214 55.8423 63.1426 56.7554 62.4178C57.6707 61.6913 58.5491 60.9194 59.3872 60.105C60.223 59.2926 61.0177 58.4389 61.7684 57.5472C62.5208 56.6546 63.228 55.7249 63.8875 54.7616C64.5463 53.7995 65.1566 52.8052 65.7161 51.7822C66.2753 50.7582 66.783 49.7068 67.2371 48.632C67.6924 47.5571 68.0935 46.4601 68.4391 45.3451C68.7347 44.3692 68.9875 43.3808 69.1968 42.3828L48.4041 21.5902C44.6963 17.8822 39.8542 16.0303 35.0057 16.0303C30.1569 16.0303 25.3038 17.8819 21.5959 21.5902C14.18 29.0061 14.18 40.9882 21.5959 48.4041L42.3657 69.174Z" fill="#32C65E"/>
<path d="M35.0025 16.0332C39.8513 16.0332 44.6987 17.8851 48.4066 21.5931C55.8225 29.009 55.8225 40.9911 48.4066 48.4071C40.9908 55.823 29.0086 55.823 21.5927 48.4071C14.1768 40.9911 14.1768 29.009 21.5927 21.5931C25.3006 17.8851 30.1537 16.0332 35.0025 16.0332ZM43.6386 29.1639C43.3624 29.1892 43.094 29.2953 42.8752 29.4658L32.2226 37.4582L27.2836 32.5192C26.2121 31.4032 24.1054 33.5099 25.2214 34.5814L31.0548 40.4147C31.5453 40.9044 32.402 40.9659 32.9574 40.5514L44.6241 31.8014C45.606 31.0867 45.001 29.1813 43.7867 29.1639C43.7374 29.1614 43.6879 29.1614 43.6386 29.1639L43.6386 29.1639Z" fill="white"/>
<defs>
<linearGradient id="paint0_linear" x1="1.30385e-07" y1="35" x2="70" y2="35" gradientUnits="userSpaceOnUse">
<stop stop-color="#26D04C"/>
<stop offset="1" stop-color="#4BE793"/>
</linearGradient>
</defs>
</svg>
