<svg width="78" height="78" viewBox="0 0 78 78" fill="none" xmlns="http://www.w3.org/2000/svg">
<g clip-path="url(#clip0_140_8054)">
<path d="M39 78.0003C60.5391 78.0003 78 60.5394 78 39.0002C78 17.4611 60.5391 0.000244141 39 0.000244141C17.4609 0.000244141 0 17.4611 0 39.0002C0 60.5394 17.4609 78.0003 39 78.0003Z" fill="url(#paint0_linear_140_8054)"/>
<path d="M44.6133 77.543C45.3271 77.4552 46.0383 77.3478 46.7461 77.2207C48.0211 76.9636 49.2824 76.6429 50.5254 76.2598C51.7676 75.8758 52.9898 75.4299 54.1875 74.9238C55.385 74.4163 56.5564 73.8492 57.6973 73.2246C58.838 72.6007 59.9468 71.9202 61.0195 71.1855C62.0933 70.4526 63.1297 69.6665 64.125 68.8301C65.1199 67.9915 66.0723 67.1037 66.9785 66.1699C67.8842 65.2369 68.7427 64.2591 69.5508 63.2402C70.359 62.222 71.1158 61.1641 71.8184 60.0703C72.5208 58.9764 73.1681 57.848 73.7578 56.6895C74.348 55.5312 74.8799 54.3442 75.3516 53.1328C75.8213 51.9196 76.23 50.6837 76.5762 49.4297C76.8697 48.3432 77.116 47.2445 77.3144 46.1367L59.959 28.7812L59.4844 29.1562L57.3516 27.0234H20.6777L38.5488 44.9004C38.3917 44.8467 38.2397 44.7676 38.1035 44.6602L18.0469 28.7695V50.9766L44.6133 77.543Z" fill="#32C65E"/>
<path d="M20.6777 27.0227L39.0293 41.5657L57.3574 27.0227H20.6777ZM18.0469 28.7688V50.9758H59.959V28.7805L39.9609 44.6594C39.4162 45.0888 38.6482 45.0888 38.1035 44.6594L18.0469 28.7688Z" fill="white"/>
</g>
<defs>
<linearGradient id="paint0_linear_140_8054" x1="1.45286e-07" y1="39.0002" x2="78" y2="39.0002" gradientUnits="userSpaceOnUse">
<stop stop-color="#26D04C"/>
<stop offset="1" stop-color="#4BE793"/>
</linearGradient>
<clipPath id="clip0_140_8054">
<rect width="78" height="78" fill="white"/>
</clipPath>
</defs>
</svg>
