<svg width="16" height="16" viewBox="0 0 16 16" fill="none" xmlns="http://www.w3.org/2000/svg">
<g clip-path="url(#clip0_6382_32909)">
<path d="M10.0915 14.8666L8.79257 14.1197C8.1706 13.7854 7.78799 13.8131 7.15688 14.1593L4.38258 15.7677C4.25666 15.8412 4.11399 15.9041 3.99448 15.9843L3.97741 15.9959C3.95686 15.7664 3.97358 15.5237 3.97358 15.293L3.97332 13.8549C3.97228 12.8635 3.91913 12.5556 2.88278 12.2992C1.7238 12.0124 0.828108 11.703 1.01436 10.3659L1.11062 9.8601C1.14146 9.70225 1.19519 9.51423 1.17449 9.35456L1.17177 9.33582C1.08745 8.71396 0.123398 8.32796 0.0117824 7.51216L0.00907456 7.49326C-0.109423 6.6004 0.968413 6.18846 1.15523 5.49156C1.31358 4.90085 0.688415 4.14983 1.15114 3.33396C1.44527 2.81543 2.04716 2.61739 2.61354 2.47538C3.52146 2.2477 3.641 2.24413 4.06094 1.44794C4.4239 0.759753 4.68714 0.104862 5.61275 0.0111125C6.04058 -0.0431318 6.5447 0.154784 6.91945 0.328741C8.01021 0.835063 8.10683 0.778152 9.18573 0.285923C10.251 -0.20009 11.0688 -0.104914 11.6321 0.869641L11.9951 1.53872C12.3197 2.13667 12.5139 2.26068 13.2075 2.42338C14.2965 2.67881 15.1988 3.08257 15.0258 4.31677C14.9765 4.66836 14.7818 5.12803 14.8576 5.47135C15.0197 6.20474 16.0746 6.52125 15.9958 7.49638C15.9567 7.9806 15.5563 8.35369 15.2299 8.69459C14.7982 9.14548 14.7915 9.29586 14.9037 9.86797C15.1671 11.2107 15.0115 11.8333 13.3955 12.2474C12.591 12.4536 12.0422 12.5394 12.0415 13.4701L12.0387 16L10.0915 14.8666ZM7.74768 2.57322C4.94587 2.74329 2.80603 5.05931 2.9879 7.68195C3.16299 10.2069 5.61669 12.1955 8.29566 12.0502C10.5868 11.9063 12.4839 10.3843 12.9572 8.24861C13.55 5.57393 11.4443 2.93753 8.58778 2.59583L7.74768 2.57322Z" fill="#0D9A88"/>
<path d="M8.23674 11.4631C7.96219 11.4655 7.68808 11.4705 7.41503 11.4382C5.4246 11.2026 3.78367 9.57568 3.61819 7.7055C3.40838 5.33468 5.30101 3.32619 7.80248 3.14402C10.1232 3.06679 12.2507 4.77788 12.4097 6.9788C12.5573 9.02237 11.2125 10.8562 9.05256 11.354C8.78239 11.4162 8.51358 11.4465 8.23674 11.4631ZM8.0058 4.86587C7.74822 4.90741 7.71479 5.10811 7.61487 5.3031L7.24869 5.96051C7.19282 6.05842 7.13654 6.1857 7.06169 6.26966L5.94873 6.38577C5.80785 6.39942 5.64366 6.3935 5.50709 6.42525C5.29846 6.47372 5.21691 6.70154 5.35291 6.85209C5.45616 6.96639 5.59374 7.06299 5.71216 7.16353L6.37484 7.7469C6.53197 7.89315 6.5145 7.85743 6.48215 8.06015L6.29827 9.11692C6.2694 9.29307 6.24089 9.40488 6.41185 9.51897C6.60707 9.64931 6.84492 9.45217 7.01381 9.36307L7.93346 8.88635C7.96904 8.86744 7.99224 8.84067 8.03507 8.85581L8.85394 9.26825C8.97638 9.33152 9.38571 9.59098 9.52763 9.54971C9.89553 9.44275 9.7109 9.0555 9.66391 8.80576L9.55327 8.14609C9.50248 7.86211 9.47752 7.89991 9.69806 7.70173L10.4778 7.0421C10.6118 6.93463 10.8216 6.79727 10.7352 6.60514C10.6234 6.35677 10.2903 6.40719 10.0594 6.38274L9.23927 6.3039C8.98262 6.27433 8.97122 6.29387 8.83945 6.08113L8.45462 5.38238C8.34892 5.17814 8.28853 4.88329 8.0058 4.86587Z" fill="#0D9A88"/>
</g>
<defs>
<clipPath id="clip0_6382_32909">
<rect width="16" height="16" fill="white"/>
</clipPath>
</defs>
</svg>
