<svg width="54" height="54" viewBox="0 0 54 54" fill="none" xmlns="http://www.w3.org/2000/svg">
<rect width="54" height="54" rx="27" fill="#0D9A88"/>
<g clip-path="url(#clip0_929_26071)">
<path d="M34.0733 19.9267C33.781 19.6344 33.398 19.4883 33.0149 19.4883C32.6318 19.4883 32.2487 19.6344 31.9565 19.9267C31.3719 20.5113 31.3719 21.459 31.9565 22.0435C32.2487 22.3358 32.6318 22.482 33.0149 22.482C33.398 22.482 33.7811 22.3358 34.0733 22.0435C34.6579 21.459 34.6579 20.5113 34.0733 19.9267ZM33.4932 21.4634C33.3654 21.5912 33.1956 21.6616 33.0148 21.6616C32.8342 21.6616 32.6642 21.5912 32.5365 21.4634C32.4087 21.3357 32.3384 21.1658 32.3384 20.9851C32.3384 20.8044 32.4087 20.6345 32.5365 20.5067C32.6643 20.379 32.8342 20.3086 33.0149 20.3086C33.1956 20.3086 33.3655 20.379 33.4932 20.5067C33.757 20.7705 33.757 21.1997 33.4932 21.4634Z" fill="white"/>
<path d="M39.8468 13.0002H37.3468C36.711 13.0002 36.1937 13.5175 36.1937 14.1533V15.1084C35.3155 15.7282 34.0515 16.7191 32.6995 18.0975C32.5823 18.1101 32.4667 18.1299 32.3532 18.1562L31.7594 17.5624C31.1619 16.965 30.1898 16.965 29.5925 17.5624C29.304 17.851 29.145 18.2357 29.145 18.6459C29.145 19.056 29.3039 19.4408 29.5924 19.7294L30.1827 20.3196C30.1612 20.3341 27.458 23.0338 27.4567 23.0351C27.4329 23.034 26.8663 22.926 26.2831 23.4898L15.1811 34.5918C14.2233 35.5496 13.5477 36.7286 13.2272 38.0012C13.0907 38.5436 13.0144 39.086 13.0005 39.6133C12.9907 39.9819 13.1302 40.3477 13.396 40.6041C13.8066 41.0001 14.3751 41 14.3867 40.9997C14.914 40.9858 15.4563 40.9095 15.9989 40.7729C17.2716 40.4524 18.4505 39.7768 19.4084 38.819L30.5103 27.717C31.2519 27.0002 30.9661 26.5789 30.9655 26.5608C30.9655 26.5608 33.673 23.8337 33.6834 23.8203L34.2708 24.4077C34.5594 24.6963 34.9442 24.8552 35.3543 24.8552C35.7644 24.8552 36.1492 24.6963 36.4378 24.4077C37.0352 23.8103 37.0352 22.8382 36.4378 22.2408L35.8426 21.6456C35.8689 21.5324 35.8882 21.4179 35.9008 21.3028C37.2817 19.9484 38.273 18.6831 38.8917 17.8063H39.8469C40.4827 17.8063 41 17.2891 41 16.6533V14.1533C40.9999 13.5175 40.4826 13.0002 39.8468 13.0002ZM30.1724 19.1493C30.0388 19.0157 29.9653 18.8369 29.9653 18.6459C29.9653 18.4549 30.0389 18.2761 30.1725 18.1424C30.306 18.0089 30.4848 17.9353 30.6758 17.9353C30.8669 17.9353 31.0457 18.0088 31.1792 18.1424L31.5262 18.4894C31.3227 18.6112 31.133 18.7589 30.9609 18.931C30.7873 19.1046 30.6406 19.2951 30.5201 19.497L30.1724 19.1493ZM30.5816 22.5716C30.6895 22.7371 30.8157 22.894 30.9609 23.0392C31.1049 23.1832 31.2616 23.3097 31.428 23.4187L30.7358 23.5839C30.6057 23.6149 30.5182 23.545 30.4867 23.5134C30.4551 23.4819 30.3851 23.3945 30.4162 23.2643L30.5816 22.5716ZM26.8632 24.0698C27.0026 23.9304 27.1879 23.8536 27.385 23.8536C27.5821 23.8536 27.7674 23.9304 27.9068 24.0698L28.6285 24.7915L26.3476 27.0724L25.1041 25.8289L26.8632 24.0698ZM24.5241 26.409L25.7676 27.6525L24.6629 28.7571L23.4194 27.5136L24.5241 26.409ZM13.8219 39.5981C13.8369 39.1425 13.904 38.6729 14.0227 38.2015C14.307 37.0725 14.9081 36.0249 15.7612 35.1719L17.1363 33.7968L16.0236 36.6589C15.9279 36.9051 15.9309 37.1658 16.0223 37.3977L13.8219 39.5981ZM18.8282 38.239C17.9752 39.092 16.9276 39.6931 15.7986 39.9774C15.3271 40.0961 14.8575 40.1633 14.4021 40.1781L16.6025 37.9777C16.7187 38.0235 16.9238 38.0881 17.3412 37.9766L20.2033 36.8639L18.8282 38.239ZM21.6433 35.4238L17.5744 37.0058L18.4306 36.1495C18.5908 35.9894 18.5908 35.7296 18.4306 35.5695C18.2704 35.4093 18.0107 35.4093 17.8505 35.5695L16.9943 36.4257L18.5762 32.3568L22.8394 28.0937L24.0829 29.3372L19.0263 34.3937C18.8661 34.5539 18.8661 34.8136 19.0263 34.9738C19.1064 35.0538 19.3574 35.1623 19.6064 34.9738L24.6629 29.9173L25.9063 31.1608L21.6433 35.4238ZM26.4865 30.5807L25.243 29.3371L26.3476 28.2325L27.5911 29.476L26.4865 30.5807ZM29.9302 27.1369L28.1712 28.896L26.9277 27.6524L29.2086 25.3715L29.9303 26.0933C30.0697 26.2326 30.1464 26.4179 30.1464 26.6151C30.1464 26.8122 30.0697 26.9976 29.9302 27.1369ZM30.6676 25.6968C30.6203 25.6323 28.3737 23.3846 28.3124 23.3391L29.9446 21.707L29.6184 23.074C29.5301 23.4437 29.6378 23.8248 29.9066 24.0936C30.1136 24.3006 30.3873 24.4121 30.6711 24.4121C30.7557 24.4121 30.8413 24.4021 30.9263 24.3819L32.2998 24.054L30.6676 25.6968ZM33.015 23.0698C32.4582 23.0698 31.9347 22.8529 31.541 22.4592C30.7282 21.6464 30.7282 20.3239 31.541 19.511C31.9347 19.1173 32.4582 18.9005 33.015 18.9005C33.5719 18.9005 34.0954 19.1173 34.4891 19.511C35.302 20.3238 35.302 21.6464 34.4891 22.4592C34.0954 22.8529 33.5719 23.0698 33.015 23.0698ZM35.8576 22.8209C36.1352 23.0985 36.1352 23.5501 35.8576 23.8277C35.5801 24.1052 35.1284 24.1053 34.8509 23.8277L34.504 23.4808C34.7074 23.3589 34.8972 23.2112 35.0692 23.0392C35.2428 22.8656 35.3896 22.6751 35.51 22.4732L35.8576 22.8209ZM35.8169 20.2234C35.689 19.7497 35.4403 19.3021 35.0691 18.931C34.7054 18.5672 34.262 18.3126 33.7785 18.1818C34.6774 17.3132 35.5146 16.6293 36.1937 16.1226V16.6534C36.1937 17.2891 36.7109 17.8064 37.3467 17.8064H37.8775C37.371 18.4851 36.687 19.3231 35.8169 20.2234ZM40.1796 16.6533C40.1796 16.8368 40.0303 16.986 39.8468 16.986H37.3468C37.1633 16.986 37.014 16.8368 37.014 16.6533V14.1533C37.014 13.9698 37.1633 13.8206 37.3468 13.8206H39.8468C40.0303 13.8206 40.1796 13.9698 40.1796 14.1533V16.6533Z" fill="white"/>
<path d="M39.6189 14.381C39.3754 14.1374 39.0523 13.9886 38.7091 13.9619C38.4815 13.9447 38.286 14.1133 38.2684 14.339C38.2509 14.5649 38.4197 14.7622 38.6455 14.7797C38.7938 14.7912 38.9335 14.8557 39.0389 14.961C39.2827 15.2048 39.2827 15.6016 39.0389 15.8455C38.795 16.0893 38.3982 16.0893 38.1544 15.8455C38.0252 15.7163 37.9591 15.5375 37.9731 15.355C37.9903 15.1291 37.8212 14.932 37.5953 14.9148C37.3695 14.8974 37.1724 15.0667 37.1551 15.2925C37.1229 15.714 37.2757 16.1269 37.5744 16.4256C37.8562 16.7074 38.2264 16.8483 38.5966 16.8483C38.9669 16.8483 39.3371 16.7074 39.6189 16.4256C40.1826 15.8619 40.1826 14.9447 39.6189 14.381Z" fill="white"/>
</g>
<defs>
<clipPath id="clip0_929_26071">
<rect width="28" height="28" fill="white" transform="translate(13 13)"/>
</clipPath>
</defs>
</svg>
