<svg width="40" height="40" viewBox="0 0 40 40" fill="none" xmlns="http://www.w3.org/2000/svg">
<path d="M23.25 27.5H16.75C16.375 27.5 16.125 27.25 16.125 26.875C16.125 26.5 16.375 26.25 16.75 26.25H23.25C23.625 26.25 23.875 26.5 23.875 26.875C23.875 27.25 23.625 27.5 23.25 27.5ZM20.75 30H16.75C16.375 30 16.125 29.75 16.125 29.375C16.125 29 16.375 28.75 16.75 28.75H20.75C21.125 28.75 21.375 29 21.375 29.375C21.375 29.75 21.125 30 20.75 30ZM9.375 30C8.375 30 7.5 29.125 7.5 28.125V20.625C7.5 19.625 8.375 18.75 9.375 18.75C10.375 18.75 11.25 19.625 11.25 20.625V28.125C11.25 29.125 10.375 30 9.375 30ZM9.375 20C9 20 8.75 20.25 8.75 20.625V28.125C8.75 28.5 9 28.75 9.375 28.75C9.75 28.75 10 28.5 10 28.125V20.625C10 20.25 9.75 20 9.375 20Z" fill="url(#paint0_linear_151_5992)"/>
<path d="M8.125 28.75H5.625C4.625 28.75 3.75 27.875 3.75 26.875V21.875C3.75 20.875 4.625 20 5.625 20H8.125C8.5 20 8.75 20.25 8.75 20.625V28.125C8.75 28.5 8.5 28.75 8.125 28.75ZM5.625 21.25C5.25 21.25 5 21.5 5 21.875V26.875C5 27.25 5.25 27.5 5.625 27.5H7.5V21.25H5.625ZM30.625 30C29.625 30 28.75 29.125 28.75 28.125V20.625C28.75 19.625 29.625 18.75 30.625 18.75C31.625 18.75 32.5 19.625 32.5 20.625V28.125C32.5 29.125 31.625 30 30.625 30ZM30.625 20C30.25 20 30 20.25 30 20.625V28.125C30 28.5 30.25 28.75 30.625 28.75C31 28.75 31.25 28.5 31.25 28.125V20.625C31.25 20.25 31 20 30.625 20Z" fill="url(#paint1_linear_151_5992)"/>
<path d="M34.375 28.75H31.875C31.5 28.75 31.25 28.5 31.25 28.125V20.625C31.25 20.25 31.5 20 31.875 20H34.375C35.375 20 36.25 20.875 36.25 21.875V26.875C36.25 27.875 35.375 28.75 34.375 28.75ZM32.5 27.5H34.375C34.75 27.5 35 27.25 35 26.875V21.875C35 21.5 34.75 21.25 34.375 21.25H32.5V27.5ZM23.125 38.75H21.875C20.875 38.75 20 37.875 20 36.875C20 35.875 20.875 35 21.875 35H23.125C24.125 35 25 35.875 25 36.875C25 37.875 24.125 38.75 23.125 38.75ZM21.875 36.25C21.5 36.25 21.25 36.5 21.25 36.875C21.25 37.25 21.5 37.5 21.875 37.5H23.125C23.5 37.5 23.75 37.25 23.75 36.875C23.75 36.5 23.5 36.25 23.125 36.25H21.875Z" fill="url(#paint2_linear_151_5992)"/>
<path d="M26.875 37.5H24.375C24 37.5 23.75 37.25 23.75 36.875C23.75 36.5 24 36.25 24.375 36.25H26.875C30.625 36.25 33.75 33.125 33.75 29.375V28.125C33.75 27.75 34 27.5 34.375 27.5C34.75 27.5 35 27.75 35 28.125V29.375C35 33.875 31.375 37.5 26.875 37.5ZM33 16.875C32 16.875 31.25 16.125 31.125 15.25C30.625 9.375 25.875 5 20 5C14.125 5 9.375 9.375 8.75 15.25C8.625 16.125 7.875 16.875 6.875 16.875C6.375 16.875 5.875 16.625 5.5 16.25C5.125 15.875 5 15.375 5 14.75C5.75 7.125 12.25 1.25 20 1.25C27.75 1.25 34.25 7.125 34.875 14.875C34.875 15.375 34.75 15.875 34.375 16.375C34.125 16.625 33.625 16.875 33 16.875ZM20 3.75C26.5 3.75 31.875 8.625 32.5 15.125C32.5 15.375 32.75 15.625 33.125 15.625C33.25 15.625 33.5 15.5 33.625 15.375C33.75 15.25 33.75 15.125 33.75 14.875C33 7.875 27.125 2.5 20 2.5C12.875 2.5 7 7.875 6.25 14.875C6.25 15 6.25 15.25 6.375 15.375C6.75 15.75 7.5 15.5 7.5 15.125C8.125 8.625 13.5 3.75 20 3.75Z" fill="url(#paint3_linear_151_5992)"/>
<path d="M6.875 21.25C6.5 21.25 6.25 21 6.25 20.625V16.875C6.25 16.5 6.5 16.25 6.875 16.25C7.25 16.25 7.5 16.5 7.5 16.875V20.625C7.5 21 7.25 21.25 6.875 21.25ZM33.125 21.25C32.75 21.25 32.5 21 32.5 20.625V16.875C32.5 16.5 32.75 16.25 33.125 16.25C33.5 16.25 33.75 16.5 33.75 16.875V20.625C33.75 21 33.5 21.25 33.125 21.25ZM16.875 35C16.75 35 16.625 35 16.625 34.875C16.375 34.75 16.25 34.5 16.25 34.375V32.5H15.625C14.625 32.5 13.75 31.625 13.75 30.625V25.625C13.75 24.625 14.625 23.75 15.625 23.75H24.375C25.375 23.75 26.25 24.625 26.25 25.625V30.625C26.25 31.625 25.375 32.5 24.375 32.5H20.875L17.25 34.875C17.125 35 17 35 16.875 35ZM15.625 25C15.25 25 15 25.25 15 25.625V30.625C15 31 15.25 31.25 15.625 31.25H16.875C17.25 31.25 17.5 31.5 17.5 31.875V33.25L20.25 31.375C20.375 31.25 20.5 31.25 20.625 31.25H24.375C24.75 31.25 25 31 25 30.625V25.625C25 25.25 24.75 25 24.375 25H15.625Z" fill="url(#paint4_linear_151_5992)"/>
<defs>
<linearGradient id="paint0_linear_151_5992" x1="7.5" y1="24.375" x2="23.875" y2="24.375" gradientUnits="userSpaceOnUse">
<stop stop-color="#2047F4"/>
<stop offset="1" stop-color="#4D6CF5"/>
</linearGradient>
<linearGradient id="paint1_linear_151_5992" x1="3.75" y1="24.375" x2="32.5" y2="24.375" gradientUnits="userSpaceOnUse">
<stop stop-color="#2047F4"/>
<stop offset="1" stop-color="#4D6CF5"/>
</linearGradient>
<linearGradient id="paint2_linear_151_5992" x1="20" y1="29.375" x2="36.25" y2="29.375" gradientUnits="userSpaceOnUse">
<stop stop-color="#2047F4"/>
<stop offset="1" stop-color="#4D6CF5"/>
</linearGradient>
<linearGradient id="paint3_linear_151_5992" x1="5" y1="19.375" x2="35" y2="19.375" gradientUnits="userSpaceOnUse">
<stop stop-color="#2047F4"/>
<stop offset="1" stop-color="#4D6CF5"/>
</linearGradient>
<linearGradient id="paint4_linear_151_5992" x1="6.25" y1="25.625" x2="33.75" y2="25.625" gradientUnits="userSpaceOnUse">
<stop stop-color="#2047F4"/>
<stop offset="1" stop-color="#4D6CF5"/>
</linearGradient>
</defs>
</svg>
