<svg width="64" height="64" viewBox="0 0 64 64" fill="none" xmlns="http://www.w3.org/2000/svg">
<g clip-path="url(#clip0)">
<path d="M51.9386 55.742L49.5489 48.5719C48.7138 46.0687 46.5832 44.221 43.9861 43.7482L37.0875 42.493V41.9582C38.288 41.2615 39.3326 40.3293 40.1646 39.2259H42.2488C43.9561 39.2259 45.3455 37.8364 45.3455 36.1291V23.742C45.3455 16.3428 39.3254 10.3226 31.9262 10.3226C24.527 10.3226 18.5068 16.3428 18.5068 23.742V30.9678C18.5068 32.958 19.9221 34.623 21.7987 35.0112C22.3778 37.9779 24.2317 40.4883 26.7649 41.9582V42.493L19.8653 43.7482C17.2691 44.221 15.1375 46.0687 14.3035 48.5719L13.8906 49.8117L10.3747 46.2958C9.97212 45.8932 9.97212 45.2377 10.3747 44.8351L14.4521 40.7588L6.79896 33.1056L2.19096 37.7136C0.826313 39.0782 0.0748291 40.893 0.0748291 42.8233C0.0748291 44.7536 0.826313 46.5673 2.19096 47.9319L16.1419 61.8829C17.5066 63.2475 19.3213 64.0001 21.2516 64.0001C23.1819 64.0001 24.9956 63.2475 26.3282 61.9139L31.3564 57.3069L29.7884 55.742H51.9386ZM43.281 36.1291C43.281 36.6989 42.8175 37.1613 42.2488 37.1613H41.3806C41.68 36.479 41.9071 35.7595 42.0537 35.0112C42.4955 34.9193 42.9022 34.7438 43.281 34.5229V36.1291ZM42.2488 32.7453V29.1902C42.863 29.5484 43.281 30.207 43.281 30.9678C43.281 31.7286 42.863 32.3871 42.2488 32.7453ZM21.6036 32.7453C20.9894 32.3871 20.5713 31.7286 20.5713 30.9678C20.5713 30.207 20.9894 29.5484 21.6036 29.1902V32.7453ZM21.6036 25.8065V26.9853C21.2361 27.0813 20.8913 27.2259 20.5713 27.4127V23.742C20.5713 17.4813 25.6655 12.3871 31.9262 12.3871C38.1868 12.3871 43.281 17.4813 43.281 23.742V27.4127C42.961 27.2259 42.6162 27.0803 42.2488 26.9853V25.8065H41.2165C38.1641 25.8065 35.2944 24.6173 33.135 22.4589L31.9262 21.2501L30.7174 22.4589C28.5579 24.6173 25.6882 25.8065 22.6359 25.8065H21.6036ZM23.6681 33.0323V27.8318C26.768 27.5985 29.6583 26.3195 31.9262 24.1631C34.1941 26.3195 37.0844 27.5995 40.1842 27.8318V33.0323C40.1842 34.5373 39.7734 35.9453 39.0673 37.1613H31.9262V39.2259H37.3703C35.9148 40.5069 34.0124 41.2904 31.9262 41.2904C27.3729 41.2904 23.6681 37.5856 23.6681 33.0323ZM35.023 42.879V42.9275L31.9262 46.0243L28.8294 42.9275V42.879C29.808 43.1866 30.8475 43.3549 31.9262 43.3549C33.0049 43.3549 34.0444 43.1866 35.023 42.879ZM16.2606 49.2243C16.8562 47.4364 18.3788 46.1162 20.2338 45.7776L27.4493 44.4666L31.9262 48.9435L36.4021 44.4677L43.6165 45.7786C45.4715 46.1172 46.9941 47.4364 47.5897 49.2253L49.0751 53.6775H27.7239L23.7032 49.6568L19.2356 53.6981C18.8464 54.0893 18.1662 54.0893 17.776 53.6981L15.5215 51.4437L16.2606 49.2243ZM6.79792 36.0248L11.5319 40.7588L10.4108 41.8798L5.67689 37.1459L6.79792 36.0248ZM24.8986 60.4253C23.9241 61.3977 22.6276 61.9355 21.2495 61.9355C19.8715 61.9355 18.575 61.3977 17.5995 60.4233L3.64851 46.4733C2.67405 45.4989 2.13728 44.2024 2.13728 42.8243C2.13728 41.4452 2.67405 40.1487 3.64851 39.1742L4.21625 38.6065L8.95018 43.3404L8.91302 43.3776C7.70631 44.5853 7.70631 46.5497 8.91302 47.7575L16.3153 55.1598C16.9006 55.7441 17.6779 56.0672 18.5058 56.0672C19.3337 56.0672 20.111 55.7451 20.6581 55.1959L20.7355 55.1268L25.4911 59.8824L24.8986 60.4253ZM27.0147 58.4847L22.2694 53.7394L23.633 52.5069L28.3701 57.2439L27.0147 58.4847Z" fill="url(#paint0_linear)"/>
<path d="M60.8294 0H46.3778C44.6704 0 43.281 1.38942 43.281 3.09677V11.3548C43.281 13.0622 44.6704 14.4516 46.3778 14.4516H49.1349L48.0676 20.6772L58.0289 14.4516H60.8294C62.5367 14.4516 63.9262 13.0622 63.9262 11.3548V3.09677C63.9262 1.38942 62.5367 0 60.8294 0ZM61.8617 11.3548C61.8617 11.9236 61.3982 12.3871 60.8294 12.3871H57.4364L50.8805 16.4841L51.5835 12.3871H46.3778C45.809 12.3871 45.3455 11.9236 45.3455 11.3548V3.09677C45.3455 2.528 45.809 2.06452 46.3778 2.06452H60.8294C61.3982 2.06452 61.8617 2.528 61.8617 3.09677V11.3548Z" fill="url(#paint1_linear)"/>
<path d="M59.7971 4.12903H47.41V6.19354H59.7971V4.12903Z" fill="url(#paint2_linear)"/>
<path d="M55.6681 8.25806H47.41V10.3226H55.6681V8.25806Z" fill="url(#paint3_linear)"/>
<path d="M59.7972 8.25806H57.7327V10.3226H59.7972V8.25806Z" fill="url(#paint4_linear)"/>
<path d="M31.9261 3.0968C18.4386 3.0968 6.82057 12.4264 3.80018 25.44L1.84405 22.1791L0.0737305 23.2413L3.70212 29.2873L9.74805 25.6589L8.68586 23.8885L5.88844 25.567C8.81386 13.662 19.5194 5.16132 31.9261 5.16132C34.6379 5.16132 37.3135 5.5639 39.8786 6.35874L40.4897 4.38712C37.7264 3.53035 34.8453 3.0968 31.9261 3.0968Z" fill="url(#paint5_linear)"/>
<path d="M63.4244 22.8563L57.3784 19.2279L53.7511 25.2749L55.5214 26.3371L57.3278 23.326C58.2786 26.1079 58.7648 29.0178 58.7648 32C58.7648 38.1389 56.6383 44.1404 52.7787 48.8981L54.3818 50.1988C58.5397 45.0746 60.8293 38.6106 60.8293 32C60.8293 28.8424 60.3204 25.759 59.3284 22.8067L62.3622 24.6266L63.4244 22.8563Z" fill="url(#paint6_linear)"/>
</g>
<defs>
<linearGradient id="paint0_linear" x1="0.0748293" y1="37.1613" x2="51.9386" y2="37.1613" gradientUnits="userSpaceOnUse">
<stop stop-color="#4E2267"/>
<stop offset="1" stop-color="#9441C4"/>
</linearGradient>
<linearGradient id="paint1_linear" x1="43.281" y1="10.3386" x2="63.9262" y2="10.3386" gradientUnits="userSpaceOnUse">
<stop stop-color="#4E2267"/>
<stop offset="1" stop-color="#9441C4"/>
</linearGradient>
<linearGradient id="paint2_linear" x1="47.41" y1="5.16129" x2="59.7971" y2="5.16129" gradientUnits="userSpaceOnUse">
<stop stop-color="#4E2267"/>
<stop offset="1" stop-color="#9441C4"/>
</linearGradient>
<linearGradient id="paint3_linear" x1="47.41" y1="9.29031" x2="55.6681" y2="9.29031" gradientUnits="userSpaceOnUse">
<stop stop-color="#4E2267"/>
<stop offset="1" stop-color="#9441C4"/>
</linearGradient>
<linearGradient id="paint4_linear" x1="57.7327" y1="9.29031" x2="59.7972" y2="9.29031" gradientUnits="userSpaceOnUse">
<stop stop-color="#4E2267"/>
<stop offset="1" stop-color="#9441C4"/>
</linearGradient>
<linearGradient id="paint5_linear" x1="0.0737306" y1="16.192" x2="40.4897" y2="16.192" gradientUnits="userSpaceOnUse">
<stop stop-color="#4E2267"/>
<stop offset="1" stop-color="#9441C4"/>
</linearGradient>
<linearGradient id="paint6_linear" x1="52.7787" y1="34.7133" x2="63.4244" y2="34.7133" gradientUnits="userSpaceOnUse">
<stop stop-color="#4E2267"/>
<stop offset="1" stop-color="#9441C4"/>
</linearGradient>
<clipPath id="clip0">
<rect width="64" height="64" fill="white"/>
</clipPath>
</defs>
</svg>
