<svg width="20" height="21" viewBox="0 0 20 21" fill="none" xmlns="http://www.w3.org/2000/svg">
<path d="M17.3536 2.20508H12.1823C12.0833 2.20507 11.9857 2.22921 11.8969 2.27566C11.808 2.3221 11.7304 2.38959 11.6701 2.47294L6.4988 9.61678L5.71826 8.78915C5.59819 8.66144 5.45561 8.56012 5.29867 8.49099C5.14172 8.42186 4.97349 8.38628 4.8036 8.38628C4.6337 8.38628 4.46547 8.42186 4.30853 8.49099C4.15158 8.56012 4.009 8.66144 3.88893 8.78915L3.18677 9.53608C3.06669 9.66364 2.97144 9.81508 2.90645 9.98176C2.84146 10.1484 2.80801 10.3271 2.80801 10.5075C2.80801 10.6879 2.84146 10.8666 2.90645 11.0333C2.97144 11.1999 3.06669 11.3514 3.18677 11.4789L4.96439 13.3677L2.37876 16.115C2.25868 16.2426 2.16343 16.394 2.09844 16.5607C2.03345 16.7274 2 16.906 2 17.0864C2 17.2668 2.03345 17.4455 2.09844 17.6122C2.16343 17.7789 2.25868 17.9303 2.37876 18.0579L3.08092 18.8031C3.32335 19.0605 3.65205 19.2051 3.99478 19.2051C4.33751 19.2051 4.66621 19.0605 4.90864 18.8031L7.49427 16.0558L9.27189 17.9445C9.39195 18.0722 9.53454 18.1736 9.69148 18.2427C9.84843 18.3118 10.0167 18.3474 10.1866 18.3474C10.3564 18.3474 10.5247 18.3118 10.6816 18.2427C10.8386 18.1736 10.9811 18.0722 11.1012 17.9445L11.8034 17.1976C11.9235 17.0701 12.0187 16.9186 12.0837 16.7519C12.1487 16.5852 12.1821 16.4066 12.1821 16.2262C12.1821 16.0458 12.1487 15.8671 12.0837 15.7004C12.0187 15.5338 11.9235 15.3823 11.8034 15.2548L11.0245 14.4271L17.7479 8.93253C17.8266 8.86819 17.8902 8.78547 17.9339 8.69078C17.9776 8.59609 18.0003 8.49197 18 8.3865V2.8919C18 2.70975 17.9319 2.53505 17.8107 2.40624C17.6894 2.27744 17.525 2.20508 17.3536 2.20508ZM16.7072 8.04824L10.1025 13.4467L9.21856 12.5075L13.2861 8.18561C13.4073 8.05673 13.4753 7.88198 13.4752 7.6998C13.4751 7.51763 13.407 7.34294 13.2857 7.21418C13.1644 7.08542 12.9999 7.01312 12.8285 7.0132C12.657 7.01328 12.4926 7.08573 12.3714 7.21461L8.30389 11.5356L7.42074 10.5964L12.5007 3.57873H16.7072V8.04824Z" fill="#01231F"/>
</svg>
