<svg width="88" height="88" viewBox="0 0 88 88" fill="none" xmlns="http://www.w3.org/2000/svg">
<rect width="88" height="88" rx="44" fill="#011955"/>
<path d="M24.954 25.8574C24.7028 25.8574 24.4707 25.9915 24.3451 26.209L23.231 28.1385C23.0369 28.4747 23.1521 28.9048 23.4884 29.0989C23.5991 29.1629 23.72 29.1932 23.8393 29.1932C24.0823 29.1932 24.3186 29.067 24.4488 28.8416L24.954 27.9667L25.459 28.8416C25.6532 29.178 26.0832 29.2931 26.4195 29.0989C26.7558 28.9048 26.871 28.4747 26.6768 28.1385L25.5629 26.209C25.4373 25.9914 25.2052 25.8574 24.954 25.8574Z" fill="white"/>
<path d="M34.1469 29.4531C34.0212 29.2356 33.7891 29.1016 33.538 29.1016C33.2867 29.1016 33.0547 29.2356 32.9291 29.4531L31.815 31.3826C31.6209 31.7189 31.7361 32.1489 32.0724 32.3431C32.4086 32.5372 32.8387 32.422 33.0328 32.0857L33.538 31.2109L34.0431 32.0857C34.1733 32.3113 34.4096 32.4374 34.6526 32.4374C34.7719 32.4374 34.8928 32.407 35.0036 32.3431C35.3398 32.1489 35.4551 31.7189 35.2609 31.3826L34.1469 29.4531Z" fill="white"/>
<path d="M42.1754 38.0839L42.6805 37.209L43.1856 38.0839C43.3797 38.4201 43.8098 38.5354 44.146 38.3412C44.4823 38.147 44.5975 37.717 44.4034 37.3807L43.2894 35.4512C43.1639 35.2337 42.9317 35.0996 42.6805 35.0996C42.4294 35.0996 42.1973 35.2337 42.0716 35.4512L40.9576 37.3807C40.7634 37.717 40.8787 38.147 41.2149 38.3412C41.3257 38.4051 41.4466 38.4355 41.5658 38.4355C41.8088 38.4355 42.0451 38.3094 42.1754 38.0839Z" fill="white"/>
<path d="M51.9059 42.6013L52.411 41.7266L52.916 42.6013C53.1102 42.9376 53.5402 43.0529 53.8765 42.8587C54.2128 42.6645 54.328 42.2345 54.1338 41.8982L53.0199 39.9688C52.8944 39.7512 52.6622 39.6172 52.411 39.6172C52.1598 39.6172 51.9277 39.7512 51.8021 39.9688L50.6881 41.8982C50.4939 42.2345 50.6091 42.6645 50.9454 42.8587C51.0561 42.9226 51.1771 42.953 51.2963 42.953C51.5393 42.953 51.7757 42.8269 51.9059 42.6013Z" fill="white"/>
<path d="M64.5113 58.901C64.1749 58.7068 63.745 58.8221 63.5508 59.1584L63.0458 60.0332L62.5406 59.1584C62.3465 58.822 61.9165 58.7068 61.5802 58.901C61.2439 59.0952 61.1287 59.5252 61.3228 59.8615L62.4369 61.791C62.5625 62.0085 62.7946 62.1426 63.0458 62.1426C63.297 62.1426 63.5291 62.0085 63.6547 61.791L64.7686 59.8615C64.9628 59.5252 64.8476 59.0952 64.5113 58.901Z" fill="white"/>
<path d="M64.3753 50.3617C64.3368 48.258 62.5932 46.5344 60.4886 46.5196C60.4794 46.5195 60.4704 46.5195 60.4612 46.5195C59.4353 46.5195 58.4538 46.9258 57.728 47.6319C56.996 46.9198 56.0008 46.5131 54.9687 46.5196C52.8482 46.5339 51.1039 48.2704 51.0803 50.3907C51.0653 51.7451 51.7346 52.9888 52.8724 53.7241C53.557 54.2471 55.743 55.9614 56.7367 57.2634C56.9759 57.5767 57.3387 57.7564 57.7323 57.7564C58.1252 57.7564 58.4874 57.5771 58.7261 57.2643C59.7335 55.9438 61.9496 54.2123 62.635 53.6907C63.7498 52.9452 64.4 51.7026 64.3753 50.3617ZM61.84 52.5306C61.827 52.5391 61.8143 52.5482 61.8019 52.5576C60.9376 53.2144 58.8595 54.8538 57.7317 56.2537C56.6155 54.8687 54.5581 53.2408 53.7022 52.5885C53.6863 52.5763 53.6699 52.5649 53.653 52.5542C52.9129 52.0841 52.4768 51.2811 52.4865 50.4063C52.5016 49.0477 53.6194 47.935 54.9782 47.9259C54.9838 47.9258 54.9894 47.9258 54.995 47.9258C55.7949 47.9258 56.5527 48.3115 57.025 48.96C57.1882 49.1841 57.451 49.3178 57.728 49.3178C58.0049 49.3178 58.2677 49.184 58.431 48.9599C58.9067 48.3068 59.6708 47.9184 60.4787 47.9259C61.8273 47.9353 62.9445 49.0396 62.9692 50.3876C62.9852 51.2523 62.563 52.0535 61.84 52.5306Z" fill="white"/>
<path d="M65.3006 35.854H58.2688V33.4291C58.2688 32.2753 57.33 31.3366 56.1763 31.3366H49.127V28.0391C49.127 26.5506 47.916 25.3396 46.4276 25.3396H40.5421V24.1882C40.5421 23.0343 39.6034 22.0957 38.4496 22.0957H28.6696C28.2813 22.0957 27.9665 22.4105 27.9665 22.7988C27.9665 23.1871 28.2813 23.502 28.6696 23.502H38.4495C38.828 23.502 39.1358 23.8098 39.1358 24.1882V25.3396H31.2843C29.7958 25.3396 28.5849 26.5506 28.5849 28.0391V31.1008C28.4921 31.1691 28.4088 31.2495 28.3377 31.3425C27.3815 32.5953 25.2773 34.2395 24.6252 34.7359C23.5879 35.4301 22.9638 36.5858 22.9541 37.8326C22.9463 38.8428 23.3365 39.7969 24.053 40.519C24.7591 41.2307 25.693 41.6227 26.6822 41.6227C27.1881 41.6227 27.8282 41.5064 28.5848 41.2795V50.7395H22.0925C21.714 50.7395 21.4062 50.4316 21.4062 50.0533V24.1882C21.4062 23.8097 21.7141 23.502 22.0925 23.502H25.7351C26.1234 23.502 26.4382 23.1871 26.4382 22.7988C26.4382 22.4105 26.1234 22.0957 25.7351 22.0957H22.0925C20.9387 22.0957 20 23.0343 20 24.1882V50.0531C20 51.207 20.9387 52.1456 22.0925 52.1456H28.5849V52.6901C28.5849 54.1786 29.7958 55.3895 31.2843 55.3895H37.7266V59.294C37.7266 60.4479 38.6653 61.3865 39.8191 61.3865H47.4579V63.2044C47.4579 64.6929 48.6688 65.9039 50.1573 65.9039H65.3005C66.7889 65.9039 67.9999 64.6929 67.9999 63.2044V38.5535C68 37.065 66.7889 35.854 65.3006 35.854ZM28.3719 39.8742C27.679 40.0949 27.0789 40.2164 26.6823 40.2164C26.0707 40.2164 25.4914 39.972 25.0512 39.5285C24.6008 39.0745 24.3554 38.4761 24.3603 37.8435C24.3664 37.058 24.7627 36.33 25.4202 35.896C25.4333 35.8874 25.4459 35.8784 25.4583 35.869C26.114 35.3707 27.5028 34.2787 28.5848 33.1802V39.8412C28.5144 39.8412 28.4427 39.8517 28.3719 39.8742ZM37.7266 44.3755C36.9671 43.1961 35.8975 41.6896 34.6121 40.2944C35.3478 39.6097 36.5765 38.3439 37.7266 36.598V44.3755ZM39.8191 59.9804C39.4407 59.9804 39.1329 59.6725 39.1329 59.2941V33.4291C39.1329 33.0507 39.4408 32.7429 39.8191 32.7429H43.4617C43.85 32.7429 44.1648 32.4281 44.1648 32.0398C44.1648 31.6515 43.85 31.3366 43.4617 31.3366H39.8191C38.6653 31.3366 37.7266 32.2754 37.7266 33.4291V33.9596C37.6309 34.0235 37.5495 34.1116 37.493 34.2211C36.0248 37.0641 33.9645 38.9988 33.368 39.524C33.1658 39.702 33.0433 39.9585 33.0317 40.2277C33.0202 40.4971 33.1205 40.7634 33.307 40.9584C35.3979 43.1438 36.9433 45.7264 37.5106 46.7355C37.5653 46.8328 37.6404 46.9107 37.7266 46.9697V53.9833H31.2843C30.5712 53.9833 29.9911 53.4031 29.9911 52.6901V28.0391C29.9911 27.326 30.5712 26.7459 31.2843 26.7459H46.4275C47.1405 26.7459 47.7207 27.326 47.7207 28.0391V31.3366H46.3962C46.0079 31.3366 45.6931 31.6515 45.6931 32.0398C45.6931 32.4281 46.0079 32.7429 46.3962 32.7429H56.1762C56.5546 32.7429 56.8624 33.0508 56.8624 33.4291V35.854H50.1572C48.6688 35.854 47.4578 37.065 47.4578 38.5534V40.2324C45.6391 40.495 44.237 42.0633 44.237 43.9536C44.237 44.0338 44.2395 44.1139 44.2447 44.1938C42.6707 44.6917 41.5885 46.1694 41.6379 47.8862C41.6959 49.8984 43.3521 51.5355 45.3299 51.5355C46 51.5355 46.8335 51.3895 47.4578 51.2556V59.9803H39.8191V59.9804ZM45.7223 44.5592C45.6699 44.3618 45.6433 44.1581 45.6433 43.9538C45.6433 42.8414 46.4191 41.9073 47.4579 41.6626V49.815C46.9952 49.9216 46.0068 50.1294 45.33 50.1294C44.1057 50.1294 43.0799 49.105 43.0437 47.8459C43.0088 46.6344 43.9222 45.5767 45.1233 45.438C45.3261 45.4146 45.5086 45.3043 45.6237 45.1355C45.7386 44.9668 45.7746 44.7565 45.7223 44.5592ZM66.5938 63.2044C66.5938 63.9175 66.0136 64.4976 65.3006 64.4976H50.1573C49.4443 64.4976 48.8641 63.9175 48.8641 63.2044V38.5535C48.8641 37.8405 49.4443 37.2603 50.1573 37.2603H65.3005C66.0135 37.2603 66.5937 37.8405 66.5937 38.5535V63.2044H66.5938Z" fill="white"/>
</svg>
