<svg width="48" height="48" viewBox="0 0 48 48" fill="none" xmlns="http://www.w3.org/2000/svg">
<g clip-path="url(#clip0_387_29082)">
<path d="M39.4029 3.67257L37.5873 4.71225C37.5403 2.09773 35.4084 0.00215565 32.7935 0H16.7979C14.4497 0.00262427 12.4484 1.70418 12.068 4.02131C11.0451 4.00173 10.0573 4.39396 9.32642 5.10982C8.41167 5.99673 7.92768 7.23763 8.00041 8.50965C8.00041 12.215 7.32616 21.0805 5.76903 24.7763C5.04127 26.4652 4.43534 28.2041 3.95595 29.9796C2.88187 34.0449 2.96182 37.4064 4.18473 40.5591C5.31803 43.4711 7.71577 45.6696 11.1164 46.9173C13.1857 47.6484 15.3664 48.0141 17.561 47.9978C20.479 48.0433 23.3647 47.3808 25.9706 46.0672C26.6105 45.7289 28.4499 44.5701 29.3721 43.9878H32.7935C35.4427 43.9852 37.5896 41.8382 37.5922 39.1891V35.1902H39.1918C40.9165 35.1948 42.4486 34.0899 42.9888 32.452C43.529 30.814 42.9547 29.0145 41.5655 27.9922C42.5915 27.2504 43.1967 26.0592 43.1907 24.7931C43.1871 23.5294 42.584 22.3423 41.5655 21.5941C42.5915 20.8522 43.1967 19.661 43.1907 18.395C43.1881 16.1876 41.3993 14.3988 39.1918 14.3961H37.5922V13.0029L42.9811 9.92292C44.7071 8.93479 45.3053 6.73462 44.3172 5.00869C43.3289 3.28268 41.1288 2.68444 39.4029 3.67257ZM32.3136 30.9321L30.9364 28.9647C31.3835 28.5912 31.7962 28.1784 32.1696 27.7315L34.1371 29.1087C33.5957 29.7795 32.9845 30.3908 32.3136 30.9321ZM27.6597 33.2307L27.2423 30.8633C28.0759 30.6438 28.8758 30.3121 29.6201 29.8772L30.9965 31.8446C29.9612 32.4739 28.836 32.9413 27.6597 33.2307ZM18.595 31.8447L19.9715 29.8773C20.7157 30.3122 21.5157 30.6438 22.3492 30.8634L21.9318 33.2308C20.7554 32.9413 19.6302 32.4739 18.595 31.8447ZM15.4575 29.1118L17.425 27.7347C17.7985 28.1817 18.2112 28.5945 18.6582 28.9679L17.2778 30.9321C16.6082 30.3916 15.998 29.7815 15.4575 29.1118ZM17.2778 12.2558L18.6549 14.2232C18.2079 14.5967 17.7951 15.0095 17.4217 15.4565L15.4575 14.076C15.998 13.4064 16.6082 12.7963 17.2778 12.2558ZM21.9285 9.95722L22.346 12.3246C21.5124 12.5441 20.7125 12.8759 19.9682 13.3108L18.5918 11.3433C19.628 10.7139 20.7543 10.2465 21.9316 9.95731L21.9285 9.95722ZM30.9932 11.3432L29.6168 13.3107C28.8725 12.8758 28.0726 12.5441 27.239 12.3245L27.6565 9.95712C28.8338 10.2463 29.9602 10.7137 30.9963 11.3431L30.9932 11.3432ZM34.1339 14.0761L32.1664 15.4533C31.793 15.0062 31.3802 14.5935 30.9332 14.2201L32.3104 12.2526C32.9813 12.7939 33.5925 13.4052 34.1339 14.0761ZM24.7957 29.5917C20.3787 29.5917 16.798 26.011 16.798 21.594C16.798 17.177 20.3787 13.5962 24.7957 13.5962C29.2127 13.5962 32.7935 17.177 32.7935 21.594C32.7886 26.009 29.2108 29.5869 24.7957 29.5917ZM12.7991 21.594C12.8 21.1627 12.824 20.7318 12.8711 20.3031L15.2424 20.7214C15.2168 21.0093 15.1984 21.2997 15.1984 21.594C15.1984 21.8883 15.2168 22.1786 15.2424 22.4665L12.8711 22.8848C12.824 22.4561 12.8 22.0252 12.7991 21.594ZM15.5262 19.1475L13.1589 18.73C13.4483 17.5537 13.9157 16.4286 14.5449 15.3934L16.5123 16.7698C16.0775 17.514 15.7458 18.3139 15.5262 19.1475ZM13.159 24.458L15.5263 24.0405C15.7458 24.8741 16.0776 25.674 16.5125 26.4183L14.5451 27.7947C13.9158 26.7595 13.4484 25.6343 13.159 24.458ZM34.0651 24.0404L36.4325 24.4579C36.1431 25.6342 35.6756 26.7594 35.0465 27.7945L33.079 26.4181C33.5138 25.674 33.8456 24.874 34.0651 24.0404ZM36.7924 21.594C36.7914 22.0252 36.7674 22.4561 36.7204 22.8848L34.3491 22.4665C34.3747 22.1786 34.393 21.8883 34.393 21.594C34.393 21.2997 34.3747 21.0093 34.3491 20.7214L36.7204 20.3031C36.7674 20.7318 36.7914 21.1627 36.7924 21.594ZM34.0651 19.1475C33.8456 18.3139 33.5138 17.514 33.0789 16.7697L35.0464 15.3933C35.6756 16.4285 36.143 17.5536 36.4324 18.73L34.0651 19.1475ZM25.6674 12.0406C25.3804 12.015 25.09 11.9966 24.7957 11.9966C24.5014 11.9966 24.2111 12.015 23.9232 12.0406L23.5049 9.6693C24.3627 9.57333 25.2286 9.57333 26.0866 9.6693L25.6674 12.0406ZM23.9223 31.1473C24.2102 31.1729 24.5006 31.1913 24.7949 31.1913C25.0892 31.1913 25.3795 31.1729 25.6674 31.1473L26.0857 33.5186C25.2279 33.6146 24.362 33.6146 23.504 33.5186L23.9223 31.1473ZM30.97 1.59958L30.7212 2.59287C30.6323 2.9493 30.312 3.19936 29.9446 3.19907H19.6467C19.2796 3.19945 18.9593 2.94977 18.8701 2.59362L18.6214 1.59949L30.97 1.59958ZM16.7979 1.59958H16.9738L17.3185 2.98239C17.586 4.05018 18.5458 4.79903 19.6467 4.79866H29.9446C31.0457 4.79894 32.0056 4.04971 32.2728 2.98154L32.6175 1.59949H32.7935C34.5602 1.59949 35.9925 3.03178 35.9925 4.79857V13.8984C33.4617 10.2054 29.2726 7.99783 24.7956 7.99783C20.3186 7.99783 16.1295 10.2054 13.5987 13.8984V4.79866C13.5988 3.03187 15.0311 1.59958 16.7979 1.59958ZM25.2148 44.6595C21.5022 46.6693 15.9309 46.9789 11.6674 45.4161C8.97748 44.5549 6.79203 42.5716 5.67465 39.9776C4.5614 37.1184 4.50939 34.1608 5.50267 30.3914C5.96211 28.6889 6.54347 27.0216 7.24218 25.4024C8.90813 21.4451 9.5999 12.4476 9.5999 8.50956C9.52848 7.67645 9.83337 6.85505 10.4309 6.27022C10.8491 5.85774 11.4118 5.62455 11.9992 5.61996V17.044C10.9328 19.9835 10.9328 23.2042 11.9992 26.1438V39.1889C12.0019 41.838 14.1488 43.985 16.7979 43.9876H26.352C25.8162 44.3156 25.4164 44.5531 25.2148 44.6595ZM35.9925 39.189C35.9925 40.9558 34.5602 42.3881 32.7935 42.3881H16.7979C15.0311 42.3881 13.5988 40.9558 13.5988 39.189V29.2894C16.1296 32.9824 20.3187 35.19 24.7957 35.19C29.2727 35.19 33.4618 32.9824 35.9926 29.2894V39.189H35.9925ZM41.591 31.1913C41.591 32.5164 40.5168 33.5906 39.1917 33.5906H37.5921V28.792H39.1917C40.5168 28.792 41.591 29.8662 41.591 31.1913ZM41.591 24.793C41.591 26.1181 40.5168 27.1924 39.1917 27.1924H37.5921V26.1439C38.0274 24.9378 38.283 23.6742 38.3511 22.3937H39.1917C40.5168 22.3937 41.591 23.468 41.591 24.793ZM39.1917 15.9956C40.5168 15.9956 41.591 17.0698 41.591 18.3949C41.591 19.72 40.5168 20.7942 39.1917 20.7942H38.3511C38.2813 19.514 38.0256 18.2507 37.5921 17.0441V15.9956H39.1917ZM42.1861 8.53524L37.5922 11.1697V6.55017L40.1963 5.06099C41.1557 4.51149 42.3789 4.84383 42.9284 5.80319C43.4779 6.76255 43.1454 7.98574 42.1861 8.53524Z" fill="#0D4EE3"/>
<path d="M31.9946 38.3887H17.5986C17.1569 38.3887 16.7988 38.7467 16.7988 39.1884C16.7988 39.6301 17.1569 39.9882 17.5986 39.9882H31.9946C32.4363 39.9882 32.7943 39.6301 32.7943 39.1884C32.7943 38.7467 32.4363 38.3887 31.9946 38.3887Z" fill="#0D4EE3"/>
<path d="M25.71 15.4845C25.1604 15.1015 24.4305 15.1015 23.8809 15.4845C22.7541 16.2754 18.3808 20.1232 19.2271 23.1311C19.4596 24.0485 20.0796 24.8195 20.9258 25.2434C21.3289 25.4401 21.7666 25.5559 22.2142 25.5841L22.1343 25.764C21.9225 26.2589 21.9737 26.8271 22.2708 27.2761C22.5678 27.725 23.0708 27.9945 23.6091 27.993H25.9829C26.5207 27.9933 27.0225 27.7235 27.3188 27.2747C27.6151 26.8259 27.666 26.2583 27.4544 25.7639L27.3745 25.584C27.8221 25.5558 28.2599 25.44 28.6629 25.2433C29.5091 24.8194 30.1291 24.0485 30.3616 23.131C31.211 20.1192 26.8377 16.2755 25.71 15.4845ZM28.8244 22.6985C28.7125 23.1783 28.3955 23.5848 27.9574 23.8102C27.4589 24.0396 26.8881 24.054 26.3787 23.8502C26.0782 23.7304 25.7351 23.8034 25.5094 24.0352C25.2837 24.267 25.2199 24.6119 25.3477 24.9091L25.9827 26.3935H23.6089L24.2439 24.9091C24.3718 24.6119 24.3079 24.267 24.0822 24.0352C23.8566 23.8034 23.5135 23.7304 23.213 23.8502C22.7037 24.0547 22.1325 24.0402 21.6342 23.8102C21.1961 23.5847 20.8791 23.1783 20.7672 22.6985C20.2994 21.035 23.1849 17.9254 24.7957 16.7961C26.4067 17.9254 29.2915 21.035 28.8244 22.6985Z" fill="#0D4EE3"/>
</g>
<defs>
<clipPath id="clip0_387_29082">
<rect width="48" height="48" fill="white"/>
</clipPath>
</defs>
</svg>
