<svg width="36" height="36" viewBox="0 0 36 36" fill="none" xmlns="http://www.w3.org/2000/svg">
<rect width="36" height="36" rx="5" fill="white"/>
<path d="M8.69666 13.8402C7.95494 12.341 6.48373 8.62545 8.58046 7.64785C8.89219 7.51809 9.23547 7.48393 9.56666 7.54974C9.89785 7.61554 10.202 7.77832 10.4404 8.0174L14.7737 12.6477C14.8555 12.7281 14.9208 12.8239 14.9656 12.9295C15.0105 13.0351 15.0341 13.1486 15.0351 13.2633C15.0361 13.3781 15.0145 13.4919 14.9715 13.5983C14.9285 13.7047 14.865 13.8016 14.7846 13.8834C14.7042 13.9653 14.6084 14.0305 14.5028 14.0754C14.3972 14.1202 14.2837 14.1438 14.169 14.1448C14.0542 14.1459 13.9404 14.1243 13.834 14.0813C13.7276 14.0383 13.6307 13.9748 13.5488 13.8944L9.27937 9.33397C9.38334 12.6337 11.3263 15.1 13.5087 17.5802C13.6762 17.7413 13.7729 17.9623 13.7775 18.1946C13.782 18.4269 13.6942 18.6515 13.5331 18.8191C13.3721 18.9866 13.1511 19.0833 12.9188 19.0879C12.6865 19.0924 12.4618 19.0046 12.2943 18.8435C10.8602 17.3578 9.64848 15.6726 8.69666 13.8402ZM23.2619 21.6697C23.1429 21.5393 22.9943 21.4395 22.8285 21.3787C22.6628 21.3179 22.4848 21.2978 22.3097 21.3203C21.2962 21.4563 20.2653 21.3699 19.2886 21.0669C19.1391 21.0228 18.9804 21.0201 18.8294 21.0592C18.6784 21.0983 18.541 21.1777 18.4316 21.2888C17.1264 23.2598 21.2919 23.1348 22.1987 23.106L26.9889 28.2072C27.0675 28.2908 27.1619 28.3581 27.2666 28.4053C27.3712 28.4525 27.4841 28.4786 27.5989 28.4821C27.7136 28.4856 27.828 28.4665 27.9353 28.4259C28.0427 28.3852 28.141 28.3238 28.2246 28.2452C28.3083 28.1665 28.3756 28.0722 28.4228 27.9675C28.47 27.8629 28.4961 27.7499 28.4996 27.6352C28.5031 27.5204 28.484 27.4061 28.4434 27.2987C28.4027 27.1914 28.3413 27.0931 28.2627 27.0094L23.2619 21.6697ZM20.6367 19.7477C21.2103 19.7486 21.7784 19.6361 22.3085 19.417C22.8387 19.1978 23.3203 18.8762 23.7259 18.4705L28.2434 13.952C28.3247 13.8709 28.3891 13.7746 28.4331 13.6686C28.4771 13.5626 28.4998 13.4489 28.4999 13.3341C28.5 13.2193 28.4774 13.1056 28.4336 12.9995C28.3897 12.8935 28.3254 12.7971 28.2443 12.7158C28.1632 12.6346 28.0669 12.5701 27.9609 12.5261C27.8548 12.4821 27.7412 12.4594 27.6264 12.4594C27.5116 12.4593 27.3979 12.4818 27.2918 12.5257C27.1857 12.5695 27.0893 12.6338 27.0081 12.715L22.4905 17.2334C22.1069 17.6137 21.6151 17.8662 21.0824 17.9563C20.5498 18.0463 20.0023 17.9696 19.5149 17.7366L25.6225 11.629C25.706 11.5484 25.7725 11.452 25.8183 11.3454C25.8641 11.2389 25.8882 11.1242 25.8892 11.0082C25.8902 10.8922 25.8681 10.7772 25.8242 10.6698C25.7802 10.5624 25.7154 10.4649 25.6333 10.3829C25.5513 10.3008 25.4538 10.236 25.3464 10.192C25.239 10.1481 25.124 10.126 25.008 10.127C24.892 10.128 24.7774 10.1521 24.6708 10.1979C24.5642 10.2437 24.4678 10.3103 24.3872 10.3937L18.2778 16.5013C18.0448 16.0139 17.9681 15.4665 18.0582 14.9338C18.1483 14.4012 18.4007 13.9093 18.7811 13.5257L23.3013 9.00811C23.4604 8.84334 23.5485 8.62266 23.5465 8.39359C23.5445 8.16453 23.4526 7.94541 23.2906 7.78343C23.1286 7.62145 22.9095 7.52957 22.6805 7.52758C22.4514 7.52559 22.2307 7.61364 22.0659 7.77278L17.5475 12.2904C16.837 13.0033 16.3939 13.9393 16.2929 14.9407C16.1918 15.9421 16.439 16.9477 16.9927 17.7882L7.78807 26.9928C7.62893 27.1576 7.54088 27.3783 7.54287 27.6073C7.54486 27.8364 7.63674 28.0555 7.79872 28.2175C7.9607 28.3795 8.17982 28.4714 8.40888 28.4734C8.63795 28.4753 8.85863 28.3873 9.0234 28.2281L18.228 19.0235C18.9426 19.4958 19.7802 19.7477 20.6367 19.7477Z" fill="#50B1AF"/>
</svg>
