<svg width="36" height="36" viewBox="0 0 36 36" fill="none" xmlns="http://www.w3.org/2000/svg">
<rect width="36" height="36" rx="5" fill="white"/>
<path d="M24.125 12.75H18.875C18.076 12.7529 17.2931 12.9752 16.6117 13.3926C15.9303 13.8099 15.3766 14.4064 15.011 15.1169C14.4863 14.7186 13.8462 14.502 13.1875 14.5C12.3753 14.5 11.5963 14.8227 11.022 15.397C10.4477 15.9713 10.125 16.7503 10.125 17.5625C10.1276 18.0175 10.2325 18.4661 10.4321 18.875H9.25V10.125C9.25 9.89294 9.15781 9.67038 8.99372 9.50628C8.82962 9.34219 8.60706 9.25 8.375 9.25C8.14294 9.25 7.92038 9.34219 7.75628 9.50628C7.59219 9.67038 7.5 9.89294 7.5 10.125V25.875C7.5 26.1071 7.59219 26.3296 7.75628 26.4937C7.92038 26.6578 8.14294 26.75 8.375 26.75C8.60706 26.75 8.82962 26.6578 8.99372 26.4937C9.15781 26.3296 9.25 26.1071 9.25 25.875V24.125H26.75V25.875C26.75 26.1071 26.8422 26.3296 27.0063 26.4937C27.1704 26.6578 27.3929 26.75 27.625 26.75C27.8571 26.75 28.0796 26.6578 28.2437 26.4937C28.4078 26.3296 28.5 26.1071 28.5 25.875V17.125C28.4986 15.9651 28.0372 14.8531 27.2171 14.0329C26.3969 13.2128 25.2849 12.7514 24.125 12.75ZM16.25 17.125C16.25 16.4288 16.5266 15.7611 17.0188 15.2688C17.5111 14.7766 18.1788 14.5 18.875 14.5H24.125C24.8212 14.5 25.4889 14.7766 25.9812 15.2688C26.4734 15.7611 26.75 16.4288 26.75 17.125V18.875H16.25V17.125ZM11.875 17.5625C11.875 17.3029 11.952 17.0492 12.0962 16.8333C12.2404 16.6175 12.4454 16.4492 12.6852 16.3499C12.9251 16.2506 13.189 16.2246 13.4436 16.2752C13.6982 16.3259 13.932 16.4509 14.1156 16.6344C14.2991 16.818 14.4241 17.0518 14.4748 17.3064C14.5254 17.561 14.4994 17.8249 14.4001 18.0648C14.3008 18.3046 14.1325 18.5096 13.9167 18.6538C13.7008 18.798 13.4471 18.875 13.1875 18.875C12.8394 18.875 12.5056 18.7367 12.2594 18.4906C12.0133 18.2444 11.875 17.9106 11.875 17.5625ZM9.25 22.375V20.625H26.75V22.375H9.25Z" fill="#50B1AF"/>
</svg>
