<svg width="36" height="36" viewBox="0 0 36 36" fill="none" xmlns="http://www.w3.org/2000/svg">
<rect width="36" height="36" rx="5" fill="white"/>
<path d="M23.25 14.5H21.4913L21.4746 12.75H23.25V7.5H12.75V12.75H14.5V14.5H12.75C12.0538 14.5 11.3861 14.7766 10.8938 15.2688C10.4016 15.7611 10.125 16.4288 10.125 17.125V28.5H25.875V17.125C25.875 16.4288 25.5984 15.7611 25.1062 15.2688C24.6139 14.7766 23.9462 14.5 23.25 14.5ZM14.5 9.25H21.5V11H14.5V9.25ZM24.125 26.75H11.875V17.125C11.875 16.8929 11.9672 16.6704 12.1313 16.5063C12.2954 16.3422 12.5179 16.25 12.75 16.25H16.25V12.75H19.7238L19.7587 16.25H23.25C23.4821 16.25 23.7046 16.3422 23.8687 16.5063C24.0328 16.6704 24.125 16.8929 24.125 17.125V26.75ZM18.875 20.625H20.625V22.375H18.875V24.125H17.125V22.375H15.375V20.625H17.125V18.875H18.875V20.625Z" fill="#50B1AF"/>
</svg>
