<svg width="36" height="37" viewBox="0 0 36 37" fill="none" xmlns="http://www.w3.org/2000/svg">
<rect y="0.5" width="36" height="36" rx="5" fill="white"/>
<path d="M18 29C16.5772 29 15.235 28.3752 14.318 27.2859C12.9705 27.4399 11.5819 26.9315 10.5756 25.9253C9.57025 24.919 9.06275 23.5278 9.18437 22.1085C8.12475 21.265 7.5 19.9228 7.5 18.5C7.5 17.0772 8.12475 15.735 9.215 14.818C9.06187 13.4731 9.56938 12.0819 10.5756 11.0756C11.5819 10.0694 12.9705 9.55925 14.3915 9.68437C15.235 8.62562 16.5772 8 18 8C19.4228 8 20.765 8.62475 21.682 9.71413C23.0312 9.56275 24.4181 10.0685 25.4244 11.0747C26.4298 12.081 26.9373 13.4722 26.8156 14.8915C27.8752 15.735 28.5 17.0772 28.5 18.5C28.5 19.9228 27.8753 21.265 26.785 22.182C26.9381 23.5269 26.4306 24.9181 25.4244 25.9244C24.4172 26.9306 23.026 27.4346 21.6085 27.3156C20.765 28.3744 19.4228 29 18 29ZM14.3889 25.5665C14.8798 25.5665 15.3348 25.7774 15.6559 26.158C16.2404 26.8519 17.0944 27.25 18 27.25C18.9056 27.25 19.7596 26.8519 20.3441 26.158C20.6967 25.7389 21.2104 25.5271 21.7581 25.5718C22.6629 25.6479 23.5466 25.3267 24.1871 24.6862C24.8267 24.0466 25.1496 23.1611 25.0726 22.2573C25.0254 21.7113 25.2389 21.1959 25.6589 20.8424C26.3519 20.2587 26.75 19.4039 26.75 18.4991C26.75 17.5944 26.3519 16.7395 25.6589 16.1559C25.2397 15.8033 25.0254 15.287 25.0726 14.741C25.1496 13.8371 24.8276 12.9516 24.1871 12.312C23.5466 11.6724 22.6576 11.3547 21.759 11.4265C21.2112 11.4755 20.6967 11.2594 20.3441 10.8411C19.7596 10.1472 18.9056 9.74913 18 9.74913C17.0944 9.74913 16.2404 10.1472 15.6559 10.8411C15.3024 11.2603 14.787 11.4703 14.2419 11.4274C13.3327 11.3486 12.4534 11.6724 11.8129 12.3129C11.1732 12.9525 10.8504 13.838 10.9274 14.7419C10.9746 15.2879 10.7611 15.8032 10.3411 16.1567C9.64812 16.7404 9.25 17.5953 9.25 18.5C9.25 19.4047 9.64812 20.2596 10.3411 20.8433C10.7603 21.1959 10.9746 21.7121 10.9274 22.2581C10.8504 23.162 11.1724 24.0475 11.8129 24.6871C12.4534 25.3267 13.3468 25.6453 14.241 25.5726C14.2909 25.5683 14.3399 25.5665 14.3889 25.5665ZM18.7009 21.2431L22.8475 17.2461C23.1949 16.911 23.2054 16.3562 22.8694 16.0089C22.5343 15.6615 21.9804 15.651 21.6321 15.9861L17.4741 19.9945C17.132 20.3366 16.5799 20.3366 16.2141 19.9726L14.2209 18.1202C13.8691 17.7921 13.3144 17.8114 12.9845 18.1658C12.6555 18.5192 12.6756 19.0731 13.03 19.4021L15.0005 21.2326C15.5132 21.7454 16.1879 22.0018 16.8608 22.0018C17.5301 22.0018 18.196 21.7489 18.7017 21.244L18.7009 21.2431Z" fill="#50B1AF"/>
</svg>
