<svg width="36" height="37" viewBox="0 0 36 37" fill="none" xmlns="http://www.w3.org/2000/svg">
<rect y="0.5" width="36" height="36" rx="5" fill="white"/>
<path d="M28.5 24.625V11.5C28.5 10.8038 28.2234 10.1361 27.7312 9.64384C27.2389 9.15156 26.5712 8.875 25.875 8.875H10.125C9.42881 8.875 8.76113 9.15156 8.26884 9.64384C7.77656 10.1361 7.5 10.8038 7.5 11.5V24.625H17.125V26.375H12.75V28.125H23.25V26.375H18.875V24.625H28.5ZM9.25 11.5C9.25 11.2679 9.34219 11.0454 9.50628 10.8813C9.67038 10.7172 9.89294 10.625 10.125 10.625H25.875C26.1071 10.625 26.3296 10.7172 26.4937 10.8813C26.6578 11.0454 26.75 11.2679 26.75 11.5V22.875H9.25V11.5ZM20.5944 15.875H25V17.625H21.5306L19.204 21.1145L16.579 15.8645L15.4056 17.625H11V15.875H14.4694L16.796 12.3855L19.421 17.6355L20.5944 15.875Z" fill="#50B1AF"/>
</svg>
