<svg width="36" height="36" viewBox="0 0 36 36" fill="none" xmlns="http://www.w3.org/2000/svg">
<rect width="36" height="36" rx="5" fill="white"/>
<path d="M28.5 15.375C28.502 14.8933 28.3714 14.4203 28.1225 14.0079C27.8736 13.5955 27.5161 13.2595 27.089 13.0367C26.6619 12.8139 26.1817 12.713 25.701 12.7449C25.2204 12.7768 24.7578 12.9404 24.3639 13.2177C23.97 13.495 23.66 13.8753 23.4679 14.317C23.2757 14.7588 23.2088 15.2448 23.2745 15.7221C23.3402 16.1993 23.5359 16.6492 23.8403 17.0226C24.1446 17.396 24.5458 17.6784 25 17.839V21.5C25 22.8924 24.4469 24.2277 23.4623 25.2123C22.4777 26.1969 21.1424 26.75 19.75 26.75C18.3576 26.75 17.0222 26.1969 16.0377 25.2123C15.0531 24.2277 14.5 22.8924 14.5 21.5V21.43C15.9561 21.2187 17.2876 20.4908 18.2514 19.3792C19.2153 18.2675 19.7472 16.8463 19.75 15.375V11.875C19.7486 10.7151 19.2872 9.60311 18.467 8.78294C17.6469 7.96277 16.5349 7.50139 15.375 7.5C15.1429 7.5 14.9204 7.59219 14.7563 7.75628C14.5922 7.92038 14.5 8.14293 14.5 8.375C14.5 8.60706 14.5922 8.82962 14.7563 8.99372C14.9204 9.15781 15.1429 9.25 15.375 9.25C16.0712 9.25 16.7389 9.52656 17.2311 10.0188C17.7234 10.5111 18 11.1788 18 11.875V15.375C18 16.5353 17.5391 17.6481 16.7186 18.4686C15.8981 19.2891 14.7853 19.75 13.625 19.75C12.4647 19.75 11.3519 19.2891 10.5314 18.4686C9.71093 17.6481 9.25 16.5353 9.25 15.375V11.875C9.25 11.1788 9.52656 10.5111 10.0188 10.0188C10.5111 9.52656 11.1788 9.25 11.875 9.25C12.1071 9.25 12.3296 9.15781 12.4937 8.99372C12.6578 8.82962 12.75 8.60706 12.75 8.375C12.75 8.14293 12.6578 7.92038 12.4937 7.75628C12.3296 7.59219 12.1071 7.5 11.875 7.5C10.7151 7.50139 9.60311 7.96277 8.78294 8.78294C7.96277 9.60311 7.50139 10.7151 7.5 11.875L7.5 15.375C7.50281 16.8463 8.0347 18.2675 8.99856 19.3792C9.96241 20.4908 11.2939 21.2187 12.75 21.43V21.5C12.75 23.3565 13.4875 25.137 14.8002 26.4497C16.113 27.7625 17.8935 28.5 19.75 28.5C21.6065 28.5 23.387 27.7625 24.6997 26.4497C26.0125 25.137 26.75 23.3565 26.75 21.5V17.839C27.26 17.6587 27.7019 17.3252 28.0152 16.8841C28.3284 16.443 28.4977 15.916 28.5 15.375Z" fill="#50B1AF"/>
</svg>
