<svg width="36" height="36" viewBox="0 0 36 36" fill="none" xmlns="http://www.w3.org/2000/svg">
<rect width="36" height="36" rx="5" fill="white"/>
<path d="M18.875 14.5H20.625V16.25H18.875V18H17.125V16.25H15.375V14.5H17.125V12.75H18.875V14.5ZM13.625 21.5H22.375V19.75H13.625V21.5ZM13.625 25H18.875V23.25H13.625V25ZM25.875 9.25V25.875C25.875 26.5712 25.5984 27.2389 25.1062 27.7312C24.6139 28.2234 23.9462 28.5 23.25 28.5H12.75C12.0538 28.5 11.3861 28.2234 10.8938 27.7312C10.4016 27.2389 10.125 26.5712 10.125 25.875V9.25H14.6496C14.8313 8.73856 15.1667 8.29582 15.6098 7.98251C16.053 7.6692 16.5823 7.50066 17.125 7.5H18.875C19.4177 7.50066 19.947 7.6692 20.3902 7.98251C20.8333 8.29582 21.1687 8.73856 21.3504 9.25H25.875ZM24.125 11H19.75V10.125C19.75 9.89294 19.6578 9.67038 19.4937 9.50628C19.3296 9.34219 19.1071 9.25 18.875 9.25H17.125C16.8929 9.25 16.6704 9.34219 16.5063 9.50628C16.3422 9.67038 16.25 9.89294 16.25 10.125V11H11.875V25.875C11.875 26.1071 11.9672 26.3296 12.1313 26.4937C12.2954 26.6578 12.5179 26.75 12.75 26.75H23.25C23.4821 26.75 23.7046 26.6578 23.8687 26.4937C24.0328 26.3296 24.125 26.1071 24.125 25.875V11Z" fill="#50B1AF"/>
</svg>
