<svg width="24" height="24" viewBox="0 0 14 14" xmlns="http://www.w3.org/2000/svg">
  <path d="M13.4651 10.8756L13.4002 10.6799C13.2463 10.2228 12.7422 9.74598 12.2791 9.62036L10.5649 9.1521C10.1001 9.02564 9.43701 9.19569 9.09691 9.53576L8.47656 10.1561C6.22199 9.54689 4.45405 7.77892 3.84565 5.52479L4.46602 4.90441C4.80613 4.56431 4.97615 3.9021 4.84968 3.43726L4.38227 1.72228C4.25581 1.25829 3.77814 0.754151 3.32185 0.602037L3.12618 0.536248C2.66902 0.384135 2.01704 0.537971 1.67696 0.878045L0.748971 1.80689C0.583185 1.9718 0.477228 2.44348 0.477228 2.4452C0.444771 5.39149 1.60004 8.2301 3.68413 10.3142C5.7631 12.3932 8.59105 13.5468 11.5288 13.522C11.5442 13.522 12.0296 13.4177 12.1953 13.2528L13.1233 12.3248C13.4634 11.9847 13.6172 11.3328 13.4651 10.8756Z" fill="#FFBD13" />
</svg>