<svg width="27" height="27" viewBox="0 0 27 27" fill="none" xmlns="http://www.w3.org/2000/svg">
<path d="M13.5 27C20.9558 27 27 20.9558 27 13.5C27 6.04416 20.9558 0 13.5 0C6.04416 0 0 6.04416 0 13.5C0 20.9558 6.04416 27 13.5 27Z" fill="#3800D8"/>
<path d="M11.0266 19.6875C10.5892 19.6875 10.6635 19.5224 10.5127 19.1059L9.22656 14.8733L19.1266 9" fill="#C8DAEA"/>
<path d="M11.0234 19.6875C11.3609 19.6875 11.51 19.5332 11.6984 19.35L13.4984 17.5997L11.2532 16.2458" fill="#A9C9DD"/>
<path d="M11.2551 16.2461L16.6956 20.2656C17.3164 20.6082 17.7644 20.4308 17.9191 19.6893L20.1337 9.25345C20.3604 8.34445 19.7872 7.93203 19.1932 8.20169L6.18929 13.2159C5.30167 13.572 5.30696 14.0672 6.02752 14.2878L9.36461 15.3295L17.0903 10.4554C17.455 10.2342 17.7898 10.353 17.5151 10.5969" fill="url(#paint0_linear_204_4102)"/>
<defs>
<linearGradient id="paint0_linear_204_4102" x1="15.193" y1="13.5011" x2="17.2998" y2="18.3013" gradientUnits="userSpaceOnUse">
<stop stop-color="#EFF7FC"/>
<stop offset="1" stop-color="white"/>
</linearGradient>
</defs>
</svg>
