<svg width="40" height="40" viewBox="0 0 40 40" fill="none" xmlns="http://www.w3.org/2000/svg">
<g clip-path="url(#clip0)">
<path fill-rule="evenodd" clip-rule="evenodd" d="M4.02647 4.02698C10.2681 -2.21463 19.4627 -0.872352 25.9728 5.63772C29.7983 9.46322 31.4761 13.8256 30.9392 18.0538C30.8721 18.5907 30.6037 18.7921 30.4023 18.9263C26.711 22.6176 23.0198 26.3089 19.2614 30.0672C18.8587 30.4699 18.5902 30.9397 17.4493 31.0068C13.4224 31.2753 9.19426 29.5975 5.5701 25.9733C-0.872856 19.4632 -2.21514 10.2686 4.02647 4.02698Z" fill="#0A4586"/>
<path fill-rule="evenodd" clip-rule="evenodd" d="M30.4701 12.752C31.007 14.4969 31.2083 16.309 31.007 18.054C30.9399 18.5909 30.6714 18.7922 30.4701 18.9265C26.7788 22.6177 23.0875 26.309 19.3291 30.0674C18.9264 30.4701 18.658 30.9399 17.5171 31.007C15.9063 31.1412 14.3627 30.9399 12.752 30.403L30.4701 12.752Z" fill="#3DA8FB"/>
<path fill-rule="evenodd" clip-rule="evenodd" d="M30.5367 18.9263C30.5367 21.0739 27.7179 23.0873 30.0669 26.3759C32.6172 30.0001 36.4427 32.2149 39.7313 35.3692C39.9998 35.6377 39.7984 35.839 39.53 36.0404C38.3219 37.2484 37.1139 38.4565 35.8387 39.7316C35.5702 40.0001 35.436 40.2014 35.1676 39.933C32.0132 36.5773 29.8655 32.8189 26.1743 30.2014C22.8857 27.8524 20.8051 30.6712 18.7246 30.6712C18.7246 30.6712 18.7246 30.6712 18.7917 30.6041L30.5367 18.9263Z" fill="#ED2939"/>
<path fill-rule="evenodd" clip-rule="evenodd" d="M26.5103 22.9531L30.2687 26.7115C32.8191 30.1343 36.5103 32.282 39.7318 35.3692C40.0003 35.6377 39.7989 35.839 39.5305 36.0404C38.3224 37.2484 37.1144 38.4565 35.8392 39.7317C35.5707 40.0001 35.4365 40.2014 35.1681 39.933C32.1479 36.7115 30.0003 33.0202 26.5103 30.4699L22.752 26.7115L26.5103 22.9531Z" fill="#ED2939"/>
<path fill-rule="evenodd" clip-rule="evenodd" d="M37.7177 37.8524L35.9056 39.6645C35.6372 39.9329 35.5029 40.1343 35.2345 39.8658C32.2143 36.6443 30.0667 32.9531 26.5767 30.4027L22.8184 26.6443L24.6976 24.7651L37.7177 37.8524Z" fill="#B32D11"/>
<path fill-rule="evenodd" clip-rule="evenodd" d="M36.7787 36.9799C37.6512 36.1074 37.6512 34.7651 36.7787 33.8926C35.9062 33.0202 34.564 33.0202 33.6915 33.8926C32.819 34.7651 32.819 36.1074 33.6915 36.9799C34.564 37.8524 35.9733 37.8524 36.7787 36.9799Z" fill="#0A4586"/>
<path fill-rule="evenodd" clip-rule="evenodd" d="M36.3748 36.5101C36.9788 35.906 36.9788 34.8993 36.3748 34.2953C35.7708 33.6913 34.7641 33.6913 34.1601 34.2953C33.556 34.8993 33.556 35.906 34.1601 36.5101C34.7641 37.1141 35.7708 37.1141 36.3748 36.5101Z" fill="white"/>
</g>
<defs>
<clipPath id="clip0">
<rect width="39.8658" height="40" fill="white"/>
</clipPath>
</defs>
</svg>
