<svg width="28" height="28" viewBox="0 0 28 28" fill="none" xmlns="http://www.w3.org/2000/svg">
<g clip-path="url(#clip0_451_24417)">
<mask id="mask0_451_24417" style="mask-type:luminance" maskUnits="userSpaceOnUse" x="0" y="0" width="28" height="28">
<path d="M27.5 0.5H0.5V27.5645H27.5V0.5Z" fill="white"/>
</mask>
<g mask="url(#mask0_451_24417)">
<path d="M25.401 2.59939C23.8531 1.04564 21.672 0.324469 19.2505 0.56486C16.8642 0.799387 14.5306 1.94857 12.6837 3.80134C12.5195 3.96551 12.3671 4.12968 12.2147 4.29971C12.0388 3.91274 11.7925 3.54922 11.4759 3.22675C10.0629 1.81372 7.75863 1.81372 6.3456 3.22675C4.9267 4.64564 4.93257 6.96746 6.36905 8.38049C6.98468 8.9844 7.80553 9.35378 8.66742 9.41242C8.98989 9.43587 9.30651 9.41242 9.61139 9.35378C9.35928 10.544 9.34755 11.7049 9.55276 12.7896H9.5469C9.53517 13.8743 9.30064 16.8938 8.3684 17.8261L6.47459 19.7199C6.3925 19.6965 6.30455 19.6847 6.21661 19.6847C5.96449 19.6847 5.7241 19.7844 5.54234 19.9662L2.59902 22.9095C2.44071 23.0678 2.44071 23.3199 2.59902 23.4782C2.75732 23.6365 3.00944 23.6365 3.16775 23.4782L6.11107 20.5349C6.14625 20.4997 6.19315 20.4938 6.21661 20.4938C6.24006 20.4938 6.2811 20.4938 6.32214 20.5349L7.48305 21.6958C7.54169 21.7544 7.54169 21.8482 7.48305 21.9069L2.72801 26.6619C2.66937 26.7206 2.57556 26.7206 2.51693 26.6619L1.36188 25.5069C1.30325 25.4482 1.30325 25.3544 1.36188 25.2958L1.84853 24.8092C2.00683 24.6509 2.00683 24.3987 1.84853 24.2404C1.69022 24.0821 1.4381 24.0821 1.2798 24.2404L0.793152 24.7271C0.417908 25.1023 0.417908 25.7062 0.793152 26.0756L1.9482 27.2307C2.13582 27.4183 2.37621 27.5121 2.62247 27.5121C2.86872 27.5121 3.10911 27.4183 3.29674 27.2307L8.05178 22.4756C8.3039 22.2235 8.38599 21.86 8.29218 21.5434L10.186 19.6496C11.1182 18.7173 14.1378 18.4828 15.2225 18.471C15.4922 18.518 15.7736 18.5531 16.055 18.5766C16.2896 18.5942 16.5241 18.6059 16.7645 18.6059C18.1482 18.6059 19.573 18.2776 20.9274 17.6443C21.1326 17.5447 21.2205 17.2984 21.1208 17.0932C21.0212 16.8997 20.7925 16.8176 20.5932 16.9114C19.1274 17.5974 17.5912 17.8965 16.1254 17.7733C14.5247 17.6443 13.1234 17.017 12.0681 15.9616C10.3912 14.2847 9.82247 11.7167 10.5261 9.06063C10.8778 8.88473 11.2062 8.65606 11.4935 8.36877C12.3436 7.51861 12.6837 6.3401 12.5078 5.23196C12.7482 4.9388 13.0003 4.6515 13.2759 4.3818C14.9938 2.66388 17.1515 1.59678 19.356 1.37984C21.5254 1.16291 23.4837 1.80199 24.8557 3.17984C27.7169 6.04108 27.1775 11.2359 23.6537 14.7596C23.2199 15.1935 22.7567 15.5864 22.2642 15.9381C22.0883 16.0613 22.0472 16.3075 22.1645 16.4893C22.2935 16.6828 22.5515 16.7297 22.7391 16.5948C23.2609 16.2196 23.7593 15.7974 24.2225 15.3342C26.0694 13.4873 27.2186 11.1538 27.459 8.76747C27.6993 6.35183 26.9782 4.16486 25.4303 2.61698L25.401 2.59939ZM6.91432 7.78831C6.45113 7.32512 6.18143 6.7388 6.11107 6.13489C6.73257 6.21111 7.30716 6.48668 7.76449 6.93815C8.22182 7.38962 8.49739 7.96421 8.56775 8.59157C7.94625 8.51535 7.36579 8.23978 6.91432 7.78831ZM12.4726 17.3453C12.7189 17.5153 12.9769 17.6678 13.2466 17.8026C13.1528 17.8144 13.059 17.8261 12.9593 17.8437C12.5195 17.9082 12.115 17.9844 11.7456 18.0724L12.4668 17.3512L12.4726 17.3453ZM11.4818 16.5245C11.5932 16.6359 11.7104 16.7473 11.8335 16.8528L7.80553 20.8808L7.13126 20.2066L11.1651 16.1727C11.2707 16.2899 11.3762 16.4072 11.4876 16.5245H11.4818ZM10.6609 15.5277L9.93973 16.2489C10.0277 15.8795 10.1039 15.4808 10.1684 15.0352C10.1801 14.9355 10.1977 14.8417 10.2094 14.7421C10.3443 15.0118 10.4967 15.2697 10.6668 15.5219L10.6609 15.5277ZM10.9072 7.78831C10.485 8.21046 9.95732 8.48017 9.37687 8.57398C9.29478 7.74141 8.93126 6.97333 8.33322 6.36942C7.73517 5.76551 6.96123 5.40786 6.12866 5.32577C6.22247 4.7629 6.48045 4.22935 6.91432 3.79548C7.3482 3.3616 7.88175 3.10362 8.44462 3.00981C8.5267 3.84238 8.88436 4.61046 9.48827 5.21437C10.0922 5.81828 10.8603 6.17593 11.6928 6.25802C11.599 6.81502 11.341 7.35444 10.9072 7.78831ZM10.057 4.64564C9.60553 4.19418 9.3241 3.61958 9.25374 2.99222C9.85765 3.06258 10.444 3.33229 10.9072 3.79548C11.3704 4.25867 11.6401 4.84499 11.7104 5.4489C11.0889 5.37268 10.5143 5.09711 10.057 4.64564Z" fill="#000C28"/>
</g>
<path d="M24.0163 3.98365C22.8906 2.85792 21.2665 2.3361 19.443 2.51786C17.5023 2.71134 15.5968 3.66118 14.0665 5.18561C12.5362 6.7159 11.5863 8.6273 11.3987 10.5622C11.217 12.3856 11.7388 14.0097 12.8645 15.1354C13.8437 16.1146 15.2039 16.6364 16.7401 16.6364C16.9687 16.6364 17.2033 16.6247 17.4378 16.6012C19.3785 16.4078 21.2841 15.4579 22.8144 13.9335C24.3446 12.4091 25.2945 10.4918 25.4821 8.55694C25.6639 6.73349 25.142 5.10939 24.0163 3.98365ZM23.7173 4.85141C24.0808 5.29701 24.3505 5.81297 24.5147 6.39343L23.3479 5.22665L23.7173 4.85727V4.85141ZM14.6704 9.55955L16.271 7.9589L17.8717 9.55955L16.271 11.1602L14.6704 9.55955ZM15.6964 11.7289L14.0958 13.3296L12.4951 11.7289L14.0958 10.1283L15.6964 11.7289ZM16.8339 7.39017L18.4345 5.78952L20.0352 7.39017L18.4345 8.99082L16.8339 7.39017ZM18.4345 10.1283L20.0352 11.7289L18.4345 13.3296L16.8339 11.7289L18.4345 10.1283ZM19.0033 9.55955L20.6039 7.9589L22.2046 9.55955L20.6039 11.1602L19.0033 9.55955ZM21.1727 7.39017L22.7733 5.78952L24.374 7.39017L22.7733 8.99082L21.1727 7.39017ZM23.1427 4.28268L22.7733 4.65206L21.6065 3.48528C22.1811 3.64945 22.7029 3.91916 23.1427 4.28268ZM20.6039 3.626L22.2046 5.22665L20.6039 6.8273L19.0033 5.22665L20.6039 3.626ZM19.5192 3.32111C19.613 3.30939 19.701 3.30352 19.7948 3.29766L18.4404 4.65206L17.5785 3.79017C18.2117 3.53805 18.8684 3.37974 19.5192 3.31525V3.32111ZM16.7929 4.15369L17.8658 5.22665L16.2652 6.8273L14.9225 5.48463C15.5029 4.95108 16.1303 4.50548 16.7929 4.15955V4.15369ZM14.3479 6.0475L15.6906 7.39017L14.0899 8.99082L13.017 7.91786C13.3629 7.25531 13.8085 6.62795 14.342 6.0475H14.3479ZM12.1902 10.6442C12.2547 9.98756 12.4189 9.33675 12.6652 8.70352L13.5271 9.56541L12.1727 10.9198C12.1727 10.8319 12.1844 10.7381 12.1961 10.6442H12.1902ZM13.1518 14.2677C12.7883 13.8221 12.5244 13.3061 12.3544 12.7257L13.5212 13.8924L13.1518 14.2618V14.2677ZM13.7205 14.8364L14.0899 14.467L15.2567 15.6338C14.6821 15.4696 14.1603 15.1999 13.7205 14.8364ZM16.2593 15.4931L14.6586 13.8924L16.2593 12.2918L17.86 13.8924L16.2593 15.4931ZM17.344 15.798C17.2502 15.8097 17.1622 15.8156 17.0684 15.8214L18.4287 14.467L19.2906 15.3289C18.6573 15.581 18.0007 15.7394 17.3499 15.8038L17.344 15.798ZM20.0704 14.9654L18.9974 13.8924L20.5981 12.2918L21.9407 13.6345C21.3603 14.168 20.7271 14.6136 20.0704 14.9595V14.9654ZM22.5153 13.0716L21.1727 11.7289L22.7733 10.1283L23.8463 11.2012C23.5003 11.8638 23.0547 12.4911 22.5212 13.0716H22.5153ZM24.673 8.47486C24.6085 9.13154 24.4443 9.78235 24.1981 10.4156L23.3362 9.55369L24.6964 8.19343C24.6964 8.28137 24.6847 8.37518 24.673 8.469V8.47486Z" fill="#000C28"/>
</g>
<defs>
<clipPath id="clip0_451_24417">
<rect width="27" height="27.0645" fill="white" transform="translate(0.5 0.5)"/>
</clipPath>
</defs>
</svg>
