<svg width="100" height="100" viewBox="0 0 100 100" fill="none" xmlns="http://www.w3.org/2000/svg">
<path d="M65.6589 27.5326C65.2211 27.493 64.7821 27.493 64.3497 27.5326C63.7713 27.584 63.1983 27.6945 62.6454 27.8526C60.4366 28.4924 58.5001 29.9689 57.3779 32.0209H57.3716L47.9052 48.4346C47.8918 48.4741 47.8799 48.4779 47.8684 48.5017C45.6959 52.8468 47.1627 58.0144 51.166 60.5618C51.1846 60.5618 51.2024 60.6014 51.2216 60.6014L67.9749 70.0867L67.9193 70.0471C72.0185 72.6554 77.5748 71.14 80.1214 66.7743L89.6065 50.3423C92.1354 46.0007 90.6216 40.7088 86.303 38.1895H86.2899L69.549 28.7109C69.5451 28.7085 69.5407 28.7109 69.5371 28.7109H69.5308C68.2928 27.9924 66.9725 27.6119 65.6591 27.5316L65.6589 27.5326ZM65.8812 32.5528C66.4944 32.62 67.105 32.8137 67.6658 33.1514C69.861 34.4686 70.7069 37.3849 69.364 39.6231C68.0469 41.8182 65.1306 42.6642 62.8924 41.3213C60.6972 40.0045 59.8513 37.0882 61.1942 34.85C62.1808 33.2058 64.045 32.3488 65.8812 32.5528ZM18.0111 35.8193C13.1899 35.8193 9.16211 39.8472 9.16211 44.6684V63.6386C9.16211 68.4598 13.1899 72.4872 18.0111 72.4872H37.2963C42.1175 72.4872 46.1453 68.4598 46.1453 63.6386V44.6684C46.1453 39.8472 42.1175 35.8193 37.2963 35.8193H18.0111ZM18.641 40.562C21.2377 40.562 23.3774 42.7015 23.3774 45.2984C23.3774 47.8952 21.2377 50.0348 18.641 50.0348C16.0443 50.0348 13.9047 47.8952 13.9047 45.2984C13.9047 42.7015 16.0443 40.562 18.641 40.562ZM81.3747 41.4077C81.9879 41.4749 82.5986 41.6691 83.1594 42.0072C85.3558 43.3248 86.1931 46.2423 84.8514 48.4785C83.5335 50.6752 80.6159 51.5121 78.3798 50.1704C76.1833 48.8524 75.3461 45.935 76.6878 43.6992C77.6753 42.0529 79.5424 41.2041 81.3747 41.4077ZM69.0429 44.5695C69.6561 44.6367 70.2667 44.8304 70.8275 45.1685C70.8771 45.2081 70.9246 45.2319 70.9695 45.2675C72.9022 46.8137 73.8305 49.4654 72.5257 51.6403C71.2078 53.8365 68.2902 54.6739 66.0541 53.3322C63.8589 52.0154 63.013 49.0986 64.3559 46.8604C65.3434 45.2146 67.2105 44.3658 69.0429 44.5695H69.0429ZM57.0322 48.046C57.6466 48.1132 58.2548 48.3109 58.8106 48.645C61.0058 49.9622 61.8517 52.8782 60.5088 55.1168C60.4791 55.1682 60.4461 55.2117 60.41 55.2592C58.8638 57.1921 56.2118 58.1205 54.0372 56.8159C51.842 55.4987 50.9961 52.5824 52.339 50.3442C53.3272 48.6972 55.1955 47.8429 57.0321 48.047L57.0322 48.046ZM27.8112 49.4106C30.4106 49.4106 32.5475 51.5568 32.5475 54.1533C32.5475 56.7501 30.4079 58.8897 27.8112 58.8897C25.2145 58.8897 23.0748 56.7501 23.0748 54.1533C23.0748 51.5568 25.2117 49.4106 27.8112 49.4106ZM72.5257 56.9019C73.1287 56.9691 73.7401 57.1549 74.3041 57.4946C76.4993 58.8114 77.3452 61.7277 76.0023 63.9659C74.6852 66.1614 71.7689 67.007 69.5307 65.6641C67.4415 64.4105 66.5839 61.6776 67.7831 59.2792C67.7986 59.2397 67.8148 59.2195 67.8325 59.1918C68.8217 57.5433 70.6929 56.6972 72.5257 56.9009L72.5257 56.9019ZM36.6664 58.2665C39.2631 58.2665 41.4028 60.4059 41.4028 63.0024C41.4028 65.5992 39.2631 67.7393 36.6664 67.7393C34.0697 67.7393 31.9238 65.602 31.9238 63.0024C31.9238 60.4032 34.0697 58.2665 36.6664 58.2665Z" fill="#482764"/>
</svg>
