<svg width="207" height="225" viewBox="0 0 207 225" fill="none" xmlns="http://www.w3.org/2000/svg">
<path fill-rule="evenodd" clip-rule="evenodd" d="M99.5693 26.7645C118.314 30.0751 123.209 55.8006 139.557 65.5511C158.817 77.0383 189.492 68.5029 201.405 87.5031C213.028 106.04 201.044 130.6 193.134 150.999C185.609 170.406 175.211 189.384 157.599 200.474C140.599 211.18 119.366 213.336 99.5693 209.919C81.8282 206.857 70.0217 191.746 54.4694 182.676C36.409 172.143 7.85454 172.382 1.20884 152.557C-5.42491 132.769 17.0119 115.58 25.6004 96.5586C32.9367 80.3101 34.843 61.5811 47.8094 49.3465C61.8445 36.1036 80.5676 23.4084 99.5693 26.7645Z" fill="#F29FA4"/>
<path d="M107.236 184.012C108.166 183.29 109.072 182.532 110.05 181.879C112.287 180.391 114.384 178.736 116.352 176.904C118.012 175.36 119.752 173.901 121.396 172.341C122.59 171.211 123.761 170.04 124.827 168.789C125.168 168.388 125.505 167.987 125.838 167.582C125.786 167.17 125.729 166.761 125.669 166.348C124.888 167.242 124.174 168.236 123.512 168.921C121.628 170.882 119.68 172.782 117.667 174.614C113.778 178.162 109.814 181.799 105.692 185.066C105.544 185.182 105.736 185.423 105.893 185.327C106.201 185.138 106.506 184.95 106.815 184.761C106.783 184.693 106.751 184.625 106.719 184.553C106.891 184.376 107.039 184.164 107.236 184.012Z" fill="#F29FA4"/>
<path d="M163.598 107.466C163.61 109.198 163.642 110.934 163.578 112.666C163.51 114.454 163.133 116.306 163.578 118.062C163.594 118.13 163.626 118.19 163.658 118.25C164.701 112.229 165.354 106.159 165.627 100.037C165.751 97.2149 165.835 94.3846 165.783 91.5582C165.715 87.8699 165.033 84.2377 164.464 80.5975C163.758 76.0873 163.021 71.5812 162.391 67.059C161.361 59.6904 162.339 52.5383 165.025 45.6267C166.228 42.5317 167.575 39.4888 168.898 36.438C169.608 34.4375 170.353 32.445 171.127 30.4685C171.576 28.9812 171.949 27.4778 172.246 25.9543C166.525 35.9288 160.864 45.8432 159.369 57.5255C157.681 70.7393 161.445 83.5762 162.937 96.6016C163.346 100.202 163.57 103.838 163.598 107.466Z" fill="#F29FA4"/>
<path d="M185.392 191.355C184.598 186.644 183.559 181.99 181.892 177.496C180.757 174.441 179.342 171.538 177.382 168.92C176.022 167.104 174.651 165.296 173.276 163.492C171.027 160.55 169.203 157.366 167.712 153.979C165.258 148.398 164.753 142.609 165.876 136.672C166.092 135.521 166.349 134.379 166.617 133.236C166.553 133.288 166.497 133.356 166.465 133.453C164.877 138.187 164.228 143.07 164.765 148.086C165.298 153.045 166.722 157.84 169.187 162.185C171.901 166.972 176.319 170.484 178.933 175.303C180.204 177.644 181.05 180.226 181.775 182.78C181.912 183.253 182.028 183.75 182.144 184.259C182.265 186.404 182.525 188.537 182.97 190.665C183.371 192.562 183.86 194.43 184.502 196.258C185.027 197.761 185.42 199.718 186.827 200.604C186.358 197.525 185.913 194.434 185.392 191.355Z" fill="#F29FA4"/>
<path d="M72.1887 65.6749C72.6978 62.2632 73.3112 58.1058 72.5976 54.5378C72.5174 52.5132 71.8479 50.3203 71.3348 48.889C71.0301 48.0391 70.6612 47.1972 70.2323 46.3874C69.2942 43.5691 67.8629 41.0233 65.8023 38.8665C65.7341 38.7582 65.662 38.65 65.5938 38.5457C60.6427 30.9647 56.2848 23.2072 53.2781 14.6319C53.242 14.5316 53.0576 14.5357 53.0736 14.6599C53.3101 16.48 53.4144 18.2079 53.8353 20.016C53.9235 20.3969 54.0238 20.7777 54.128 21.1586C54.1841 21.3109 54.2362 21.4673 54.2924 21.6196C56.7419 28.2987 59.8368 34.6891 63.0842 41.0033C64.4192 43.5971 65.694 46.219 66.7244 48.9532C68.9694 54.9146 69.1578 60.9562 67.5582 67.1021C66.9729 69.3552 66.2353 71.5361 65.3773 73.6649C65.1568 74.2903 64.9283 74.9117 64.6918 75.5331C63.9782 77.3812 63.1764 79.2013 62.3104 80.9894C61.9416 81.3301 61.5888 81.695 61.244 82.0758C60.9153 82.6491 60.5785 83.2224 60.2297 83.7917C57.3833 88.4903 54.1039 92.8802 50.7845 97.242C47.1964 101.957 43.468 106.559 39.8999 111.286C36.6165 115.635 33.3412 120.001 30.2823 124.507C27.6964 128.32 25.4113 132.277 23.3988 136.362C23.5992 136.166 23.8037 135.973 24.0041 135.781C23.9279 135.913 23.8438 136.045 23.7676 136.178C22.625 138.17 21.6348 140.219 20.6967 142.291C19.0289 146.268 17.5937 150.354 16.3749 154.539C16.0221 155.746 15.7014 156.961 15.3967 158.175C16.6796 155.265 18.0868 152.418 19.534 149.584C21.3982 145.932 23.7275 142.572 25.8563 139.072C30.1981 131.924 35.2174 125.273 40.5093 118.807C50.9127 106.098 62.2743 93.8263 68.5605 78.4156C70.2363 74.3143 71.5352 70.0688 72.1887 65.6749Z" fill="#F29FA4"/>
<path d="M106.212 207.748C106.208 204.244 106.104 200.744 105.9 197.244C105.503 190.425 104.881 183.637 102.817 177.127C102.757 177.239 102.697 177.351 102.636 177.467C102.608 177.523 102.58 177.576 102.552 177.632C102.865 179.219 103.162 180.807 103.426 182.402C104.392 188.216 105.05 194.073 105.339 199.966C105.519 203.614 105.751 207.262 105.912 210.911C105.988 212.631 106.012 214.35 105.96 216.062C106.489 213.38 106.216 210.365 106.212 207.748Z" fill="#F29FA4"/>
<path d="M128.47 83.211C130.832 84.6382 134.961 86.3461 137.707 85.2636C138.232 85.0552 138.505 84.554 138.465 84.085C138.457 84.073 138.453 84.0649 138.445 84.0529C138.333 84.0529 138.236 84.0289 138.16 84.0569C136.541 84.6863 134.941 84.526 133.321 84.0249C128.069 82.3972 124.878 78.8372 123.623 73.5573C122.974 70.8191 123.267 68.0489 123.948 65.3388C124.385 63.5988 124.918 61.887 125.435 60.1671C125.496 59.9667 125.572 59.7702 125.66 59.5818C120.821 63.1218 119.911 70.9233 122.156 76.111C123.443 79.0657 125.724 81.5513 128.47 83.211Z" fill="#F29FA4"/>
<path d="M133.025 100.647C132.844 100.984 132.664 101.321 132.484 101.658C132.131 102.62 131.762 103.554 131.329 104.468C131.297 104.328 131.068 104.279 131 104.424C130.507 105.466 130.054 106.48 129.533 107.451C129.457 107.551 129.385 107.651 129.304 107.751C127.721 109.744 125.889 111.115 123.932 112.518C123.427 112.694 122.93 113.015 122.505 113.24C122.429 113.28 122.353 113.32 122.277 113.36C122.148 113.368 122.016 113.38 121.888 113.396C120.95 113.805 119.963 114.15 118.925 114.422C117.097 114.903 115.217 115.204 113.373 115.633C113.14 115.709 112.903 115.777 112.671 115.858C111.051 116.407 109.007 117.461 108.117 119.065C108.053 119.233 108 119.406 107.952 119.586C107.86 119.947 107.764 120.308 107.672 120.664C107.668 120.809 107.672 120.953 107.684 121.105C107.704 121.314 107.972 121.414 108.093 121.218C109.905 118.271 112.927 117.93 116.071 117.16C118.496 116.567 122.18 116.174 124.012 114.378C124.093 114.302 124.137 114.206 124.153 114.106C129.465 111.764 134.119 104.664 133.69 99.0958C133.65 99.2121 133.606 99.3283 133.566 99.4406C133.414 99.8535 133.233 100.258 133.025 100.647Z" fill="#F29FA4"/>
<path d="M20.6961 142.297C21.534 140.292 22.436 138.316 23.3982 136.368C25.4147 132.282 27.6958 128.325 30.2817 124.513C33.3406 120.003 36.6159 115.641 39.8993 111.291C43.4674 106.564 47.1998 101.962 50.7839 97.2474C54.1033 92.8856 57.3827 88.4957 60.2291 83.7971C60.5739 83.2278 60.9107 82.6545 61.2434 82.0813C62.8069 79.3591 64.2101 76.5688 65.3767 73.6743C66.2387 71.5455 66.9723 69.3606 67.5576 67.1115C69.1572 60.9657 68.9688 54.9241 66.7238 48.9627C65.6934 46.2285 64.4186 43.6066 63.0836 41.0127C59.8363 34.6945 56.7453 28.3041 54.2918 21.6291C54.2356 21.4767 54.1835 21.3204 54.1274 21.168C53.2173 18.6624 52.3754 16.1367 51.4814 13.627C51.2088 12.8613 50.8721 12.1156 50.5634 11.3619C50.4872 11.378 50.415 11.398 50.3389 11.4141C50.3669 11.6706 50.3749 11.9352 50.4311 12.1838C51.2529 15.6837 51.9946 19.1996 52.9247 22.6714C54.7488 29.4948 57.511 35.9734 60.4456 42.3798C61.5241 44.7331 62.5784 47.1065 63.4925 49.5279C64.8515 53.12 65.501 56.8484 65.1643 60.7131C64.9438 63.2188 64.3985 65.6563 63.6689 68.0617C62.0813 73.2895 59.6117 78.1003 56.7212 82.7107C53.5701 87.738 49.9861 92.4566 46.3258 97.1111C41.3907 103.389 36.4115 109.631 31.6568 116.046C27.8762 121.141 24.3443 126.393 21.4017 132.022C15.0914 144.089 11.1345 156.878 9.69127 170.424C8.96563 177.232 8.74514 184.063 9.12199 190.902C9.31041 194.314 9.57902 197.722 10.1844 201.093C10.2445 201.438 10.3087 201.803 10.477 202.104C10.5853 202.296 10.8699 202.456 11.0984 202.501C11.4232 202.561 11.6637 202.324 11.7439 202.015C11.8321 201.675 11.9002 201.322 11.9083 200.973C11.9443 199.029 11.9884 197.084 11.9724 195.14C11.9604 193.52 11.8481 191.901 11.8241 190.281C11.7439 185.326 12.0085 180.387 12.4615 175.452C13.0027 169.61 13.9649 163.857 15.4001 158.185C15.7088 156.97 16.0295 155.759 16.3783 154.549C17.5971 150.363 19.0323 146.278 20.6961 142.297Z" fill="black"/>
<path d="M169.179 35.7773C169.083 35.9978 168.986 36.2183 168.89 36.4348C167.567 39.4816 166.22 42.5245 165.017 45.6235C162.335 52.535 161.353 59.6872 162.383 67.0558C163.017 71.5779 163.751 76.0841 164.456 80.5942C165.025 84.2344 165.707 87.8626 165.775 91.5549C165.827 94.3813 165.747 97.2117 165.619 100.034C165.346 106.156 164.693 112.226 163.65 118.247C163.217 120.757 162.724 123.258 162.151 125.748C161.477 128.675 160.836 131.609 160.223 134.548C160.022 135.518 159.882 136.508 159.982 137.506C160.054 137.522 160.122 137.543 160.195 137.563C160.371 137.102 160.567 136.649 160.728 136.183C161.341 134.403 161.954 132.619 162.552 130.831C163.566 127.789 164.665 124.766 165.559 121.687C167.555 114.787 168.642 107.719 169.291 100.575C169.868 94.233 169.712 87.9348 168.666 81.6406C167.768 76.2364 167.01 70.8082 166.22 65.388C165.354 59.4546 165.855 53.6175 167.687 47.9246C168.65 44.9299 169.824 41.9953 171.007 39.0767C172.807 34.6427 174.407 30.1566 175.056 25.3899C175.397 22.9083 175.729 20.4187 175.601 17.909C175.449 14.9303 174.864 12.0077 174.226 9.10119C174.166 8.82055 174.054 8.52789 173.893 8.29136C173.569 7.81028 173.007 7.83834 172.779 8.36753C172.618 8.73235 172.546 9.16533 172.558 9.56623C172.59 10.5966 172.683 11.6229 172.763 12.6532C172.963 15.2671 173.176 17.885 172.983 20.5069C172.847 22.351 172.594 24.1671 172.242 25.9592C171.945 27.4826 171.572 28.986 171.123 30.4733C170.578 32.2654 169.932 34.0374 169.179 35.7773Z" fill="black"/>
<path d="M105.913 210.911C105.752 207.263 105.516 203.615 105.339 199.966C105.051 194.073 104.393 188.216 103.427 182.403C103.162 180.807 102.866 179.216 102.553 177.632C102.581 177.576 102.609 177.524 102.637 177.468C102.697 177.356 102.757 177.243 102.818 177.127C103.639 175.576 104.461 174.02 105.283 172.469C106.746 169.71 108.222 166.96 109.669 164.194C110.9 161.841 111.894 159.387 112.836 156.909C114.957 151.313 115.815 145.532 115.418 139.57C115.234 136.78 114.985 133.99 114.752 131.204C114.7 130.59 114.66 129.965 114.512 129.367C114.247 128.301 113.321 128.036 112.495 128.766C112.191 129.039 111.926 129.363 111.666 129.68C108.122 134.03 105.079 138.732 102.268 143.571C100.043 147.4 98.2674 151.445 97.3854 155.827C97.3613 155.947 97.3172 156.064 97.2811 156.18C97.1969 155.719 97.201 155.282 97.1929 154.841C97.1689 153.574 97.1849 152.307 97.1007 151.044C96.9805 149.272 97.0446 147.508 97.2811 145.752C97.7261 142.425 98.1711 139.097 98.6963 135.782C99.3418 131.693 99.3097 127.623 98.4478 123.574C97.3733 118.543 96.6397 113.444 95.2967 108.46C95.3047 108.448 95.3167 108.408 95.3368 108.4C95.5332 108.34 95.7296 108.284 95.9301 108.236C97.4014 107.871 98.6963 107.169 99.6384 105.979C102.008 102.988 103.022 99.6084 102.268 95.8078C101.96 94.2483 101.262 92.8531 100.095 91.7346C99.0291 90.7123 97.7622 90.6081 96.5675 91.466C96.0464 91.8429 95.5893 92.3119 95.1122 92.7489C94.6432 93.1739 94.5871 93.1739 94.0619 92.809C93.6008 92.4923 93.1558 92.1395 92.6547 91.903C91.1473 91.1854 89.8644 91.6304 89.0867 93.0897C88.9504 93.3422 88.8261 93.6028 88.6737 93.8955C88.3691 93.7311 88.1205 93.5868 87.8599 93.4585C87.026 93.0496 86.2282 93.242 85.691 94.0117C85.5106 94.2723 85.3663 94.577 85.2701 94.8817C84.8612 96.1365 84.7489 97.4114 85.0897 98.7063C85.226 99.2195 85.3423 99.7366 85.5066 100.242C86.8176 104.255 89.3352 107.077 93.4806 108.28C93.8574 108.388 93.9977 108.605 94.0579 108.953C94.2062 109.823 94.3826 110.689 94.5309 111.559C95.1564 115.187 95.7497 118.82 96.4072 122.44C96.9764 125.575 97.5818 128.71 97.2892 131.909C97.0566 134.459 96.6998 136.997 96.3711 139.538C96.0905 141.699 95.7457 143.852 95.4691 146.013C95.2325 147.881 95.2806 149.753 95.3849 151.63C94.3425 149.32 93.1518 147.079 91.7968 144.902C89.668 141.479 87.3147 138.183 85.5507 134.539C85.4104 134.25 85.21 133.986 85.0095 133.733C84.8652 133.553 84.6928 133.364 84.4923 133.26C84.3039 133.164 84.0032 133.084 83.8629 133.172C83.7306 133.256 83.6625 133.585 83.6986 133.781C83.8228 134.475 84.0233 135.156 84.1596 135.85C84.4643 137.422 84.9694 138.925 85.6991 140.352C86.4327 141.779 87.1664 143.211 87.9 144.638C86.2964 142.333 84.5765 140.108 82.7284 137.967C78.8276 133.465 74.6662 129.215 70.3886 125.078C69.7993 124.508 69.1338 124.007 68.4602 123.534C68.1074 123.286 67.6785 123.105 67.2615 122.997C66.4196 122.781 65.7702 123.226 65.702 124.087C65.6579 124.669 65.6539 125.286 65.8143 125.839C66.2312 127.279 66.6321 128.738 67.2415 130.097C69.3623 134.816 72.0563 139.202 75.1152 143.367C76.3901 145.103 77.8895 146.642 79.465 148.118C83.3017 151.718 87.5873 154.741 91.8329 157.819C92.1857 158.076 92.5585 158.289 92.9474 158.469C93.1278 158.645 93.3202 158.81 93.5167 158.962C94.09 159.399 94.3866 159.952 94.555 160.642C94.9599 162.302 95.4209 163.945 95.8499 165.601C97.8304 173.246 99.6585 180.92 100.641 188.777C101.278 193.865 101.988 198.94 102.365 204.056C102.609 207.375 102.91 210.691 103.134 214.014C103.351 217.217 103.672 220.417 103.399 223.632C103.383 223.836 103.387 224.045 103.415 224.249C103.463 224.574 103.531 224.919 103.928 224.987C104.337 225.059 104.618 224.826 104.766 224.478C104.926 224.101 105.051 223.704 105.139 223.303C105.66 220.902 105.897 218.48 105.973 216.051C106.017 214.351 105.989 212.631 105.913 210.911ZM92.795 105.995C91.8609 105.506 90.9188 104.996 90.0929 104.351C87.5352 102.359 86.5289 99.6244 86.569 96.4532C86.581 95.6715 86.6973 95.3628 87.0942 94.7534C87.3909 94.9098 87.6915 95.0822 88.0002 95.2305C89.0185 95.7276 89.672 95.4951 90.137 94.4768C90.2733 94.1841 90.3856 93.8754 90.558 93.6068C90.8747 93.1097 91.2155 92.9975 91.7607 93.214C92.0574 93.3342 92.334 93.5106 92.5986 93.691C92.8151 93.8394 93.0035 94.0318 93.208 94.2002C94.3024 95.0982 95.2045 95.0822 96.2789 94.14C96.6317 93.8313 96.9604 93.4906 97.3252 93.1939C98.0188 92.6367 98.3956 92.6727 98.9569 93.3703C100.039 94.7133 100.448 96.2969 100.452 97.9807C100.464 100.254 99.7507 102.318 98.4959 104.195C97.9627 104.988 97.2571 105.602 96.3671 105.995C95.1724 106.524 93.9657 106.608 92.795 105.995ZM112.568 134.05C112.656 133.781 112.784 133.529 112.892 133.268C113.317 136.724 113.67 140.124 113.586 143.547C113.462 148.458 112.431 153.181 110.551 157.715C110.022 158.994 109.517 160.285 108.891 161.516C107.127 164.976 105.307 168.411 103.503 171.851C103.399 172.052 103.255 172.228 103.054 172.384C103.391 170.749 103.752 169.113 104.06 167.469C105.211 161.396 106.374 155.322 107.965 149.348C109.012 145.428 110.25 141.559 111.417 137.666C111.782 136.455 112.179 135.253 112.568 134.05ZM104.197 143.904C106.157 140.721 108.298 137.654 110.363 134.535C110.423 134.443 110.503 134.359 110.575 134.27C108.851 140.781 106.686 147.131 105.259 153.694C103.956 159.692 102.649 165.701 101.318 171.831C100.472 168.119 99.5342 164.422 98.56 160.738C98.6201 158.649 98.9088 156.545 99.4781 154.424C100.488 150.671 102.172 147.192 104.197 143.904ZM83.7266 149.761C80.0143 146.811 76.7068 143.471 74.2212 139.39C72.7499 136.977 71.2465 134.579 69.8594 132.118C69.0375 130.662 68.368 129.111 67.7266 127.567C67.3898 126.762 67.2495 125.876 67.033 125.022C66.9929 124.869 67.029 124.697 67.029 124.428C67.3096 124.569 67.5061 124.629 67.6544 124.749C68.1315 125.138 68.6286 125.519 69.0576 125.96C73.2831 130.358 77.5046 134.756 81.3893 139.462C84.3039 142.994 86.9058 146.735 89.1989 150.691C90.1651 152.359 91.1032 154.035 92.0333 155.683C91.9692 155.775 91.9211 155.867 91.881 155.959C91.4961 155.663 91.1032 155.362 90.6983 155.053C88.3691 153.293 86.0077 151.577 83.7266 149.761Z" fill="black"/>
<path d="M188.879 201.294C188.75 198.764 188.59 196.235 188.434 193.709C188.121 188.601 187.175 183.602 185.776 178.683C184.489 174.165 182.585 169.947 179.758 166.171C178.736 164.804 177.738 163.417 176.703 162.054C174.879 159.652 173.324 157.09 171.904 154.432C168.994 148.972 167.779 143.187 168.409 137.021C168.553 135.586 168.721 134.151 168.826 132.711C168.966 130.771 169.07 128.831 169.158 126.89C169.19 126.193 169.146 125.491 168.617 124.834C168.561 124.99 168.489 125.142 168.457 125.303C168.264 126.165 168.088 127.031 167.891 127.889C167.482 129.673 167.033 131.453 166.621 133.237C166.356 134.379 166.099 135.522 165.879 136.672C164.756 142.61 165.261 148.399 167.715 153.979C169.206 157.367 171.03 160.55 173.28 163.493C174.659 165.297 176.026 167.105 177.385 168.921C179.341 171.539 180.76 174.441 181.895 177.496C183.563 181.991 184.601 186.645 185.395 191.356C185.912 194.435 186.357 197.526 186.834 200.612C186.882 200.933 186.93 201.254 186.982 201.571C187.047 201.976 187.151 202.38 187.295 202.761C187.423 203.098 187.68 203.451 188.073 203.331C188.329 203.25 188.61 202.946 188.698 202.681C188.839 202.244 188.903 201.755 188.879 201.294Z" fill="black"/>
<path d="M145.569 62.9739C145.685 63.3147 145.882 63.6835 146.375 63.6835C146.804 63.2345 146.824 62.6652 146.852 62.116C146.884 61.4705 146.852 60.821 146.88 60.1716C146.972 57.9907 147.201 55.8298 147.682 53.693C148.411 50.4417 149.734 47.4469 151.35 44.5444C153.002 41.5777 154.397 38.4827 155.151 35.1552C156.377 29.715 156.345 24.2787 154.802 18.8986C153.359 13.8713 152.517 8.73568 151.919 3.552C151.819 2.67402 151.703 1.80006 151.555 0.930096C151.494 0.577301 151.466 0.148334 150.837 0C150.761 0.308696 150.677 0.557256 150.641 0.805816C150.067 4.7066 150.067 8.6114 150.484 12.5242C150.781 15.3145 151.458 18.0286 152.072 20.7588C153.339 26.4195 153.014 31.9921 151.057 37.4604C150.216 39.8217 149.161 42.0868 148.047 44.3359C147.289 45.8633 146.619 47.4389 146.01 49.0305C145.1 51.4078 145.02 53.9295 144.948 56.4311C144.9 58.0147 145.016 59.6063 145.128 61.1899C145.168 61.7912 145.369 62.3966 145.569 62.9739Z" fill="black"/>
<path d="M145.441 83.0905C145.694 83.5315 146.063 83.8121 146.588 83.764C147.113 83.7119 147.426 83.3752 147.574 82.882C147.634 82.6856 147.686 82.4852 147.71 82.2807C147.895 80.617 148.067 78.9492 148.256 77.2855C148.316 76.7603 148.368 76.2311 148.48 75.7179C148.584 75.2328 148.653 74.7718 148.224 74.419C147.759 74.0382 147.233 74.0983 146.724 74.3308C146.015 74.6555 145.59 75.2489 145.309 75.9505C144.896 76.9687 144.704 78.0351 144.66 79.6628C144.784 80.3043 145.004 81.4548 145.241 82.6014C145.269 82.7738 145.353 82.9382 145.441 83.0905Z" fill="black"/>
<path d="M164.044 154.755C163.394 154.459 162.637 154.383 161.923 154.234C161.682 154.186 161.422 154.226 161.093 154.226C161.237 153.853 161.354 153.589 161.446 153.312C161.883 151.997 161.891 150.702 161.209 149.463C160.572 148.309 159.421 147.992 158.267 148.63C157.497 149.055 156.928 149.68 156.515 150.454C156.382 150.702 156.25 150.955 156.13 151.183C155.488 150.598 154.935 149.985 154.278 149.52C153.263 148.806 152.129 148.678 151.03 149.323C149.952 149.957 149.427 150.959 149.467 152.206C149.519 153.829 150.16 155.168 151.519 156.118C151.668 156.223 151.8 156.343 152.073 156.559C145.414 157.826 139.087 159.606 133.347 163.03C133.579 162.697 133.816 162.361 134.04 162.02C137.255 158.917 140.394 155.73 143.894 152.927C145.827 151.38 147.695 149.752 149.343 147.896C150.778 146.276 152.037 144.536 152.842 142.516C153.099 141.87 153.247 141.157 153.316 140.463C153.396 139.661 153.127 138.94 152.349 138.531C151.772 138.226 151.159 138.238 150.541 138.399C149.695 138.615 148.982 139.076 148.308 139.617C146.989 140.676 145.855 141.91 144.864 143.278C144.035 144.428 143.229 145.599 142.411 146.761C142.403 146.753 142.395 146.745 142.387 146.741C142.299 146.685 142.142 146.681 141.986 146.709C143.189 142.724 144.407 138.9 145.434 135.031C146.548 130.834 147.434 126.58 148.416 122.358C149.467 122.415 150.108 122.262 150.802 121.797C152.69 120.534 153.259 117.72 152.009 115.828C151.387 114.89 150.493 114.401 149.391 114.461C147.691 114.557 146.56 115.519 145.903 117.046C145.289 118.478 145.386 119.821 146.572 120.935C146.881 121.224 146.929 121.505 146.845 121.877C146.661 122.683 146.476 123.485 146.324 124.295C145.205 130.112 143.754 135.845 141.918 141.482C141.842 141.71 141.737 141.927 141.649 142.151C141.549 141.91 141.553 141.706 141.577 141.506C141.774 140.046 142.01 138.591 142.166 137.128C142.559 133.431 142.796 129.727 142.419 126.015C142.263 124.459 141.966 122.924 141.232 121.513C140.803 120.691 140.21 120.017 139.216 120.005C138.213 119.993 137.56 120.647 137.187 121.484C136.746 122.475 136.317 123.497 136.101 124.551C135.339 128.276 134.834 132.044 134.669 135.849C134.401 141.999 134.176 148.153 133.94 154.306C133.896 155.461 133.731 156.576 133.407 157.634C131.835 159.839 130.236 162.024 128.58 164.165C128.616 162.288 128.728 160.412 128.66 158.54C128.443 152.494 127.706 146.505 126.495 140.575C126.158 138.932 125.761 137.292 125.016 135.777C124.735 135.207 124.378 134.63 123.921 134.197C123.144 133.455 122.037 133.7 121.576 134.674C121.392 135.063 121.255 135.516 121.251 135.945C121.227 137.653 121.171 139.365 121.299 141.065C121.608 145.182 122.358 149.239 123.091 153.296C123.881 157.662 125.02 161.964 125.665 166.358C125.725 166.766 125.781 167.179 125.834 167.592C125.497 167.997 125.164 168.402 124.823 168.799C123.757 170.05 122.586 171.22 121.392 172.351C119.744 173.907 118.004 175.366 116.348 176.913C114.384 178.745 112.283 180.397 110.046 181.889C109.068 182.538 108.162 183.296 107.232 184.021C107.035 184.174 106.887 184.386 106.719 184.571C106.751 184.639 106.783 184.707 106.815 184.779C106.823 184.795 106.831 184.811 106.839 184.831C107.404 184.711 108.001 184.667 108.535 184.458C111.73 183.208 114.777 181.7 117.419 179.459C118.156 178.834 118.898 178.22 119.644 177.603C119.672 177.615 119.7 177.631 119.728 177.643C119.916 177.715 120.125 177.767 120.325 177.775C120.822 177.795 121.323 177.799 121.825 177.787C122.811 177.767 122.903 177.847 122.927 178.798C122.947 179.563 122.963 180.329 122.999 181.095C123.091 183.059 123.496 184.947 124.418 186.703C125.316 188.411 126.527 189.814 128.283 190.7C128.508 190.813 128.7 191.009 128.888 191.181C129.277 191.534 129.562 191.59 129.999 191.318C130.219 191.181 130.428 191.001 130.592 190.797C132.172 188.844 132.885 186.655 132.436 184.13C132.04 181.881 130.769 180.213 129.033 178.834C128.788 178.637 128.536 178.453 128.287 178.26C133.551 178.673 138.542 179.892 143.241 182.426C142.158 184.057 141.649 185.761 141.441 187.573C141.08 190.728 141.505 193.735 143 196.57C143.546 197.604 144.287 198.462 145.193 199.192C145.51 199.448 145.807 199.729 146.095 200.013C146.408 200.322 146.753 200.402 147.138 200.202C147.37 200.082 147.599 199.933 147.787 199.757C149.635 198.025 150.658 195.912 150.75 193.362C150.834 191.025 150.172 188.888 149.11 186.844C148.99 186.615 148.737 186.407 148.874 186.014C151.315 187.894 153.504 189.931 155.328 192.348C155.565 192.661 155.496 192.913 155.4 193.246C155.003 194.589 154.887 195.956 155.088 197.351C155.52 200.406 156.892 203.008 158.964 205.233C159.698 206.023 160.604 206.66 161.494 207.282C162.324 207.859 162.781 207.759 163.535 207.061C164.116 206.524 164.477 205.855 164.677 205.105C165.274 202.888 165.094 200.727 164.108 198.65C163.053 196.437 161.386 194.749 159.437 193.322C158.583 192.697 157.697 192.104 156.763 191.618C156.358 191.41 156.018 191.206 155.745 190.849C154.446 189.161 152.931 187.682 151.331 186.278C151.111 186.086 150.898 185.89 150.601 185.625C150.762 185.565 150.814 185.525 150.862 185.529C151.155 185.553 151.447 185.593 151.74 185.621C154.009 185.817 156.282 185.918 158.503 185.34C160.716 184.767 162.552 183.608 163.687 181.532C164.052 180.862 164.228 180.149 164.108 179.403C164.052 179.054 163.883 178.601 163.615 178.429C162.833 177.916 162.019 177.386 161.137 177.106C159.521 176.597 157.834 176.516 156.154 176.781C153.989 177.118 152.049 178.028 150.241 179.223C148.773 180.193 147.334 181.207 145.811 182.253C143.197 180.646 140.35 179.287 137.247 178.216C137.476 178.1 137.572 178.028 137.684 177.996C140.234 177.198 142.291 175.65 144.087 173.738C145.943 171.766 147.462 169.573 148.156 166.903C148.412 165.917 147.971 165.327 146.953 165.391C145.574 165.48 144.187 165.564 142.82 165.772C140.082 166.189 137.857 167.532 136.141 169.717C135.371 170.695 134.762 171.766 134.297 172.92C133.759 174.251 133.198 175.57 132.653 176.881C132.497 176.881 132.408 176.897 132.324 176.877C129.951 176.396 127.545 176.172 125.132 176.083C123.893 176.039 122.65 176.079 121.412 176.124C122.181 175.482 122.951 174.841 123.709 174.183C124.795 173.241 125.83 172.223 126.788 171.148C128.159 169.613 129.498 168.049 130.781 166.446C135.932 163.046 141.565 160.765 147.691 159.33C147.362 159.827 147.069 160.192 146.861 160.601C146.296 161.703 146.568 162.802 147.627 163.431C148.088 163.704 148.661 163.888 149.194 163.924C150.485 164.012 151.612 163.527 152.602 162.705C152.806 162.537 152.951 162.224 153.316 162.292C153.336 162.617 153.328 162.914 153.376 163.202C153.668 165.095 154.759 166.722 156.715 167.215C158.696 167.717 161.269 166.165 160.704 163.499C160.572 162.878 160.371 162.268 160.191 161.599C160.403 161.607 160.572 161.619 160.744 161.623C162.777 161.651 164.328 160.797 165.347 159.037C166.257 157.474 165.675 155.501 164.044 154.755ZM147.611 118.402C147.735 117.852 148.012 117.303 148.348 116.846C148.685 116.389 149.222 116.172 149.836 116.321C150.465 116.473 150.71 116.97 150.882 117.516C150.95 117.736 150.938 117.977 150.978 118.345C150.902 118.618 150.85 119.035 150.678 119.396C150.285 120.218 149.768 120.482 149.11 120.282C148.128 119.981 147.434 119.195 147.611 118.402ZM158.158 193.687C160.259 195.182 162.123 196.898 163.162 199.34C163.875 201.02 163.935 202.764 163.466 204.515C163.358 204.924 163.126 205.301 162.777 205.67C162.717 205.494 162.645 205.321 162.592 205.145C162.071 203.281 161.606 201.4 161.021 199.556C160.46 197.784 159.538 196.173 158.527 194.617C158.355 194.353 158.191 194.08 158.026 193.815C158.07 193.767 158.114 193.727 158.158 193.687ZM156.639 194.248C156.831 194.465 156.988 194.609 157.108 194.778C158.615 196.979 159.794 199.332 160.472 201.922C160.716 202.852 160.981 203.774 161.261 204.796C158.844 203.176 156.074 198.538 156.639 194.248ZM161.398 178.545C157.581 180.008 153.7 181.011 149.723 181.536C151.628 178.982 158.283 177.238 161.398 178.545ZM162.665 179.688C162.853 180.265 162.645 180.63 162.456 180.987C161.506 182.779 159.942 183.837 158.03 184.202C154.586 184.859 151.171 184.663 147.875 183.328C147.823 183.308 147.787 183.252 147.615 183.099C152.814 182.478 157.826 181.508 162.665 179.688ZM145.791 184.31C147.903 186.579 149.25 189.209 149.455 192.34C149.591 194.461 148.978 196.353 147.623 198.001C147.547 198.093 147.47 198.181 147.382 198.261C147.342 198.297 147.282 198.314 147.154 198.37C146.488 193.527 145.823 188.704 145.141 183.753C145.402 183.969 145.614 184.122 145.791 184.31ZM145.702 197.504C142.864 194.012 142.058 187.421 144.103 184.398C144.636 188.792 145.157 193.054 145.702 197.504ZM134.617 177.31C138.715 174.845 142.555 172.119 146.063 168.947C144.291 173.185 137.68 178.004 134.617 177.31ZM134.453 175.59C134.838 174.7 135.207 173.802 135.632 172.928C135.964 172.243 136.341 171.573 136.75 170.932C138.358 168.414 140.703 167.155 143.65 166.935C144.371 166.879 145.093 166.819 145.815 166.762C145.839 166.835 145.867 166.907 145.891 166.983C142.455 170.483 138.418 173.233 134.321 176.192C134.385 175.875 134.393 175.723 134.453 175.59ZM129.478 181.111C130.701 182.334 131.218 183.813 131.286 185.489C131.342 186.848 130.849 188.046 130.075 189.169C129.758 187.12 129.486 185.088 128.588 183.207C127.706 181.367 126.495 179.772 125.064 178.304C126.736 178.946 128.211 179.844 129.478 181.111ZM128.407 189.109C125.577 186.768 124.835 183.552 124.707 180.08C126.892 182.698 128.239 185.665 128.407 189.109ZM145.947 143.983C146.965 142.676 148.1 141.478 149.467 140.531C149.916 140.219 150.441 139.978 150.966 139.818C151.592 139.629 151.936 139.922 151.772 140.547C151.552 141.389 151.255 142.239 150.838 143.005C150 144.536 148.926 145.915 147.651 147.106C146.039 148.614 144.367 150.057 142.712 151.516C141.453 152.627 140.182 153.721 138.915 154.82C138.787 154.932 138.65 155.036 138.518 155.148C138.658 154.739 138.823 154.351 138.995 153.966C139.721 152.747 140.447 151.528 141.18 150.313C141.465 149.908 141.749 149.508 142.034 149.103C143.269 147.351 144.624 145.679 145.947 143.983ZM136.101 135.215C136.241 131.768 136.714 128.352 137.356 124.964C137.504 124.191 137.793 123.437 138.061 122.691C138.177 122.366 138.374 122.054 138.59 121.777C138.959 121.312 139.348 121.308 139.641 121.821C139.929 122.326 140.15 122.884 140.298 123.445C140.719 125.048 140.855 126.692 140.839 128.348C140.803 131.679 140.559 134.995 140.126 138.302C139.552 142.688 138.723 147.026 137.512 151.28C137.404 151.652 137.287 152.021 137.167 152.39C136.554 153.224 135.944 154.062 135.343 154.904C135.539 153.184 135.568 151.436 135.632 149.696C135.812 144.873 135.904 140.042 136.101 135.215ZM122.634 136.49C122.65 136.097 122.735 135.713 122.803 135.199C123.34 135.544 123.528 135.957 123.645 136.358C124.082 137.821 124.591 139.277 124.851 140.776C126.05 147.631 126.643 154.551 126.683 161.511C126.683 161.775 126.683 162.04 126.559 162.34C126.495 162.152 126.403 161.964 126.367 161.771C125.445 156.884 124.487 152.005 123.621 147.106C123.007 143.602 122.47 140.074 122.634 136.49ZM157.91 151.264C158.138 150.803 158.499 150.382 158.888 150.041C159.377 149.608 159.706 149.736 159.942 150.37C160.207 151.083 160.203 151.813 159.995 152.538C159.654 153.713 158.912 154.599 157.97 155.405C157.609 155.076 157.325 154.82 156.996 154.523C157.172 153.416 157.401 152.294 157.91 151.264ZM151.099 152.093C151.074 151.46 151.323 150.931 151.896 150.63C152.454 150.333 152.987 150.498 153.472 150.839C154.63 151.648 155.208 152.783 155.332 154.102C154.59 154.527 153.913 154.916 153.123 155.369C151.876 154.743 151.159 153.633 151.099 152.093ZM151.062 161.771C150.477 162.156 149.816 162.288 149.126 162.188C148.376 162.08 148.16 161.627 148.609 161.026C149.647 159.626 151.042 158.788 152.79 158.428C153.055 158.829 153.263 159.145 153.504 159.51C152.75 160.34 152.001 161.158 151.062 161.771ZM154.342 157.397C154.45 156.139 154.919 155.641 156.078 155.637C157.024 155.633 157.505 156.283 157.453 157.377C157.413 158.255 156.695 158.913 155.817 158.873C155.039 158.841 154.278 158.123 154.342 157.397ZM157.565 165.732C156.759 165.672 156.106 165.315 155.677 164.606C155.264 163.912 154.999 163.17 155.063 162.349C155.112 161.711 155.176 161.074 155.232 160.452C155.974 160.308 156.623 160.184 157.313 160.047C157.998 161.046 158.575 162.096 158.964 163.243C159.056 163.519 159.117 163.812 159.145 164.1C159.249 165.115 158.587 165.808 157.565 165.732ZM163.927 158.656C163.001 160.063 161.081 160.484 159.538 159.59C159.165 159.374 158.84 159.069 158.487 158.801C158.615 158.348 158.788 158.035 158.776 157.726C158.748 157.008 159.181 156.712 159.722 156.415C160.772 155.838 161.851 155.553 163.025 155.966C164.264 156.403 164.645 157.562 163.927 158.656Z" fill="black"/>
<path d="M123.952 65.3377C123.271 68.0479 122.978 70.8181 123.628 73.5563C124.883 78.8362 128.074 82.3962 133.326 84.0238C134.945 84.525 136.545 84.6853 138.164 84.0559C138.237 84.0279 138.333 84.0519 138.449 84.0519C138.457 84.0639 138.461 84.072 138.469 84.084C139.111 85.1103 139.459 86.2449 139.768 87.3995C139.964 88.1371 140.117 88.8868 140.301 89.6325C140.357 89.857 140.401 90.1176 140.826 90.0093C140.818 87.7362 140.502 85.5232 139.487 83.4185C139.908 82.8572 139.952 82.2438 139.788 81.5783C139.243 79.3493 138.802 77.0962 138.176 74.8913C137.278 71.7281 136.016 68.7134 133.843 66.1877C132.596 64.7404 131.253 63.3733 129.946 61.9822C129.2 61.1884 128.431 60.4187 127.677 59.6369C127.412 59.3603 127.168 59.0676 126.891 58.803C126.542 58.4743 126.266 58.4903 126.033 58.8952C125.905 59.1197 125.781 59.3523 125.676 59.5888C125.588 59.7812 125.512 59.9777 125.452 60.1741C124.923 61.882 124.389 63.5978 123.952 65.3377ZM127.585 62.1145C127.733 62.1947 127.821 62.2187 127.873 62.2708C129.573 64.103 131.309 65.907 132.957 67.7873C134.151 69.1463 134.933 70.778 135.623 72.4418C136.777 75.22 137.539 78.1145 138.201 81.0411C138.116 81.1093 138.032 81.1814 137.948 81.2496C137.888 81.1133 137.86 80.9409 137.76 80.8407C136.3 79.3894 134.905 77.862 133.342 76.531C131.181 74.6908 129.737 72.4498 128.908 69.7677C128.202 67.4786 127.837 65.1253 127.585 62.7559C127.565 62.5675 127.585 62.3751 127.585 62.1145ZM127.733 70.6617C128.643 73.4079 130.178 75.7051 132.403 77.5853C133.947 78.8923 135.358 80.3596 136.821 81.7668C137.05 81.9833 137.222 82.2559 137.455 82.5405C136.725 82.9214 136.012 82.8733 135.334 82.761C129.894 81.871 126.418 78.319 125.179 73.873C124.626 71.8885 124.678 69.8519 125.003 67.8314C125.235 66.3841 125.556 64.9529 126.149 63.3693C126.246 63.7822 126.318 63.9907 126.346 64.2072C126.606 66.4001 127.035 68.557 127.733 70.6617Z" fill="black"/>
<path d="M106.742 122.159C106.938 122.179 107.195 121.966 107.363 121.794C107.471 121.686 107.463 121.465 107.508 121.293C107.564 121.084 107.616 120.872 107.672 120.663C107.764 120.302 107.86 119.942 107.953 119.585C107.997 119.404 108.053 119.232 108.117 119.064C108.542 117.925 109.348 117.091 110.482 116.582C111.336 116.197 112.238 115.9 113.148 115.684C113.22 115.668 113.297 115.652 113.373 115.636C115.217 115.207 117.093 114.906 118.925 114.425C119.964 114.153 120.95 113.808 121.888 113.399C125.46 111.839 128.29 109.298 130.291 105.697C131.036 104.358 131.762 103.011 132.484 101.66C132.664 101.324 132.845 100.987 133.025 100.65C133.233 100.261 133.414 99.8563 133.57 99.4434C133.61 99.3311 133.658 99.2149 133.694 99.0986C133.827 98.7057 133.891 98.3048 133.538 97.952C133.057 97.4709 132.54 97.7756 132.079 98.0202C129.842 99.1988 127.448 99.8724 124.967 100.317C122.477 100.762 119.996 101.259 117.626 102.206C115.093 103.22 113.048 104.84 111.448 107.036C110.105 108.881 108.987 110.861 108.325 113.046C107.596 115.468 106.998 117.925 106.349 120.371C106.273 120.655 106.233 120.948 106.205 121.076C106.205 121.385 106.148 121.569 106.217 121.669C106.353 121.866 106.545 122.139 106.742 122.159ZM110.406 111.07C111.601 108.66 113.156 106.543 115.417 105.008C117.374 103.677 119.587 102.967 121.856 102.426C123.371 102.065 124.911 101.797 126.434 101.468C128.222 101.083 129.966 100.558 131.622 99.7601C131.714 99.716 131.814 99.6839 132.043 99.5997C131.906 99.9365 131.85 100.161 131.738 100.349C130.531 102.438 129.397 104.579 128.074 106.592C126.522 108.957 124.337 110.653 121.776 111.847C119.599 112.862 117.294 113.459 114.928 113.84C113.469 114.072 112.038 114.389 110.655 114.918C110.554 114.958 110.434 114.946 110.129 114.978C110.47 114.598 110.691 114.337 110.931 114.096C112.174 112.854 113.641 111.924 115.177 111.102C116.448 110.42 117.755 109.807 119.021 109.113C120.132 108.508 121.222 107.858 122.289 107.185C123.271 106.563 124.061 105.73 124.69 104.747C124.77 104.623 124.855 104.503 124.923 104.37C125.071 104.086 125.308 103.737 124.991 103.497C124.606 103.204 124.438 103.669 124.241 103.881C123.195 105.024 121.968 105.93 120.597 106.644C119.19 107.381 117.763 108.087 116.355 108.821C113.838 110.131 111.404 111.555 109.48 113.704C109.452 113.736 109.38 113.732 109.199 113.772C109.62 112.822 109.981 111.932 110.406 111.07Z" fill="black"/>
</svg>
