<svg width="105" height="140" viewBox="0 0 105 140" fill="none" xmlns="http://www.w3.org/2000/svg">
<path d="M49.5982 120.629C49.4788 121.836 49.2997 123.059 49.037 124.242C48.7803 125.392 48.3534 126.602 48.6698 127.782C49.4191 130.579 53.3802 131.162 55.0578 128.849C56.3861 127.015 55.7324 125.527 55.2638 123.516C55.0996 122.819 54.8518 118.648 54.8369 117.854C54.7951 115.544 54.625 110.082 54.5981 109.867C54.5981 109.867 54.3384 106.825 54.1921 105.149L50.631 105.188C50.5444 106.876 50.3803 109.912 50.3803 109.912C50.3653 109.998 49.7892 118.657 49.5952 120.623L49.5982 120.629Z" fill="#0B1A47"/>
<path d="M17.0699 120.991C16.9505 122.198 16.7743 123.42 16.5087 124.603C16.252 125.754 15.8251 126.964 16.1415 128.144C16.8908 130.944 20.8519 131.523 22.5295 129.214C23.8608 127.379 23.2071 125.891 22.7354 123.88C22.5743 123.184 22.3235 119.013 22.3086 118.218C22.2668 115.908 22.0967 110.443 22.0698 110.231C22.0698 110.231 21.8101 107.19 21.6638 105.513L18.1027 105.552C18.0161 107.237 17.8519 110.276 17.8519 110.276C17.84 110.363 17.2609 119.022 17.0669 120.988L17.0699 120.991Z" fill="#0B1A47"/>
<path d="M82.1285 120.271C82.0091 121.478 81.83 122.7 81.5673 123.883C81.3106 125.034 80.8837 126.244 81.2001 127.424C81.9494 130.224 85.9105 130.803 87.5881 128.494C88.9194 126.659 88.2627 125.171 87.794 123.16C87.6329 122.464 87.3821 118.293 87.3702 117.498C87.3284 115.188 87.1582 109.724 87.1314 109.511C87.1314 109.511 86.8717 106.47 86.7284 104.793L83.1643 104.832C83.0777 106.52 82.9135 109.556 82.9135 109.556C82.9016 109.643 82.3225 118.302 82.1285 120.271Z" fill="#0B1A47"/>
<path d="M104.17 115.711C104.137 112.643 103.686 106.733 103.525 104.731C100.615 104.731 94.5313 104.784 87.9403 104.856L87.3642 104.862C87.5015 106.494 87.7284 109.237 87.7403 109.398C87.7702 109.649 87.9403 115.287 87.9791 117.42C87.9941 118.275 88.2478 122.348 88.3911 122.969C88.4538 123.235 88.5164 123.489 88.5821 123.737C89.003 125.389 89.4 126.949 88.0985 128.745C87.3463 129.781 86.1404 130.385 84.7941 130.4C82.8449 130.421 81.218 129.256 80.7494 127.499C80.4509 126.39 80.7255 125.276 80.9673 124.296C81.0151 124.095 81.0658 123.895 81.1106 123.698C81.3464 122.634 81.5345 121.436 81.6598 120.148C81.8031 118.705 82.1613 113.515 82.3344 111.02C82.415 109.84 82.4359 109.544 82.4449 109.455C82.4538 109.248 82.5673 106.535 82.6359 104.919L82.0718 104.925C77.1256 104.985 72.3406 105.047 68.7973 105.098C65.5377 105.113 60.6393 105.158 55.4155 105.218L54.8364 105.224C54.9737 106.855 55.2005 109.598 55.2125 109.756C55.2423 110.007 55.4155 115.646 55.4543 117.779C55.4692 118.631 55.7199 122.706 55.8662 123.328C55.9289 123.593 55.9946 123.847 56.0572 124.095C56.4781 125.748 56.8751 127.307 55.5737 129.103C54.8214 130.14 53.6155 130.744 52.2692 130.759C50.32 130.779 48.6932 129.614 48.2245 127.857C47.926 126.749 48.2006 125.634 48.4424 124.654C48.4932 124.454 48.5409 124.254 48.5857 124.057C48.8215 122.99 49.0096 121.795 49.1379 120.507C49.2812 119.064 49.6394 113.874 49.8126 111.379C49.8932 110.199 49.914 109.906 49.923 109.813C49.932 109.607 50.0454 106.894 50.114 105.278L49.5499 105.283C44.6037 105.343 39.8187 105.406 36.2754 105.457C33.0158 105.472 28.1174 105.517 22.8936 105.576L22.3175 105.582C22.4548 107.214 22.6816 109.957 22.6936 110.115C22.7234 110.366 22.8936 116.004 22.9324 118.138C22.9473 118.992 23.201 123.068 23.3443 123.686C23.407 123.952 23.4697 124.206 23.5353 124.454C23.9532 126.106 24.3532 127.666 23.0488 129.462C22.2966 130.499 21.0936 131.102 19.7444 131.117C17.7951 131.138 16.1683 129.973 15.6996 128.216C15.4011 127.107 15.6758 125.993 15.9175 125.013C15.9653 124.813 16.0161 124.612 16.0608 124.415C16.2996 123.351 16.4847 122.153 16.6101 120.865C16.7534 119.422 17.1116 114.232 17.2847 111.737C17.3653 110.557 17.3862 110.264 17.3951 110.172C17.4041 109.966 17.5175 107.253 17.5832 105.636L17.019 105.642C10.2818 105.723 3.83415 105.809 0.437182 105.869C-0.0672878 109.416 -0.00460166 113.336 0.0342037 116.865C0.102859 123.068 -0.562801 133.032 3.27893 137.598C6.53858 141.47 97.8596 140.335 100.851 136.516C104.531 131.819 104.248 121.911 104.179 115.711H104.17Z" fill="#ED5A61"/>
<path opacity="0.7" d="M104.17 115.711C104.137 112.643 103.687 106.733 103.525 104.731C101.018 104.731 77.0869 105 68.3587 105.11C61.329 105.173 43.186 105.376 35.8308 105.472C27.4638 105.543 3.36566 105.821 0.428393 105.869C-0.0760768 109.416 -0.0133907 113.336 0.0254147 116.865C0.0940703 123.068 -0.57159 133.032 3.27014 137.598C6.52979 141.47 97.8508 140.335 100.842 136.516C104.522 131.819 104.239 121.911 104.17 115.711Z" fill="#ED5A61"/>
<path d="M98.9076 102.095C95.6898 101.471 90.0361 101.13 84.6153 101.19C84.4183 101.19 51.6934 101.557 51.4964 101.56C51.2994 101.56 24.9774 101.85 19.5566 101.91C19.3626 101.91 7.312 102.448 4.10906 103.144C0.906125 103.84 0.538966 105.164 0.428519 105.869C0.338969 106.446 0.553891 107.784 2.06133 108.298C5.19561 109.365 18.8521 109.323 19.0521 109.32C19.2491 109.32 83.9138 108.603 84.1108 108.6C84.3079 108.6 84.5049 108.597 84.6989 108.594C90.3973 108.531 97.9256 108.241 101.072 107.202C102.322 106.789 103.537 105.702 103.528 104.731C103.517 103.709 102.125 102.72 98.9106 102.095H98.9076Z" fill="#FFC2C6"/>
<path d="M52.7262 86.821H50.9501C50.8993 92.9433 50.9919 98.6413 50.756 104.085C50.7501 104.226 50.7143 104.686 50.6934 105.215L54.2873 105.176C54.2455 104.683 54.2008 104.262 54.1829 104.094C54.1261 103.631 53.2784 94.7659 52.7262 86.821Z" fill="#0B1A47"/>
<path d="M20.171 86.821H18.4218C18.3651 93.0807 18.4666 98.8952 18.2248 104.447C18.2188 104.587 18.183 105.047 18.1621 105.576L21.7561 105.537C21.7143 105.047 21.6665 104.623 21.6486 104.456C21.5919 103.984 20.7203 94.8586 20.168 86.821H20.171Z" fill="#0B1A47"/>
<path d="M85.2775 86.821H83.4715C83.4267 92.8088 83.5133 98.3873 83.2834 103.727C83.2775 103.867 83.2417 104.327 83.2178 104.856L86.8118 104.817C86.77 104.327 86.7222 103.903 86.7043 103.736C86.6476 103.279 85.8267 94.6733 85.2745 86.821H85.2775Z" fill="#0B1A47"/>
<path opacity="0.2" d="M57.0181 129.342C57.0389 131.114 55.6181 132.569 53.848 132.587L50.7943 132.62C49.0241 132.641 47.5704 131.219 47.5525 129.447L47.0898 87.6517L56.5584 87.5471L57.021 129.342H57.0181Z" fill="white"/>
<path d="M53.8502 132.859L50.7965 132.892C48.8801 132.913 47.301 131.368 47.2801 129.45L46.8145 87.3828L56.8233 87.2722L57.2889 129.339C57.3098 131.257 55.7666 132.838 53.8502 132.859ZM47.3637 87.9206L47.8234 129.444C47.8413 131.063 49.1726 132.369 50.7905 132.351L53.8442 132.318C55.4621 132.3 56.7665 130.968 56.7486 129.345L56.2889 87.822L47.3637 87.9206Z" fill="#A5D0EA"/>
<path d="M59.3552 89.791C59.1164 90.4065 58.5284 90.8129 57.8687 90.8219L45.7883 90.9563C45.1614 90.9623 44.5853 90.6037 44.3137 90.039L33.9795 68.4393L67.8655 67.9314L59.3552 89.791Z" fill="#238482"/>
<path d="M67.8659 68.2868L67.6361 2.13424C60.2153 0.658208 58.4959 -0.0798087 50.6274 0.006841C42.7887 0.0934907 41.1141 0.995843 33.75 2.62127L33.9798 68.7918L67.8659 68.2839V68.2868Z" fill="#50B1AF"/>
</svg>
