<svg width="93" height="88" viewBox="0 0 93 88" fill="none" xmlns="http://www.w3.org/2000/svg">
<g clip-path="url(#clip0)">
<path d="M45.5999 80.2999C66.9733 80.2999 84.2999 62.9733 84.2999 41.5999C84.2999 20.2265 66.9733 2.8999 45.5999 2.8999C24.2265 2.8999 6.8999 20.2265 6.8999 41.5999C6.8999 62.9733 24.2265 80.2999 45.5999 80.2999Z" fill="url(#paint0_radial)"/>
<path opacity="0.28" d="M38.7 77.4C60.0734 77.4 77.4 60.0734 77.4 38.7C77.4 17.3266 60.0734 0 38.7 0C17.3266 0 0 17.3266 0 38.7C0 60.0734 17.3266 77.4 38.7 77.4Z" fill="#7369FF"/>
<path opacity="0.28" d="M45.4002 87.2C66.7736 87.2 84.1002 69.8735 84.1002 48.5C84.1002 27.1266 66.7736 9.80005 45.4002 9.80005C24.0268 9.80005 6.7002 27.1266 6.7002 48.5C6.7002 69.8735 24.0268 87.2 45.4002 87.2Z" fill="#7369FF"/>
<path opacity="0.28" d="M52.5999 77.4C73.9733 77.4 91.2999 60.0734 91.2999 38.7C91.2999 17.3266 73.9733 0 52.5999 0C31.2265 0 13.8999 17.3266 13.8999 38.7C13.8999 60.0734 31.2265 77.4 52.5999 77.4Z" fill="#7369FF"/>
<path d="M80.5998 41C80.5998 41 78.2998 39.9 75.9998 36.9C74.7998 35.4 73.8998 33.5 72.8998 31.5C70.4998 26.7 68.0998 21.7999 62.5998 21.7999C61.1998 21.7999 58.8998 22.2 56.5998 23.2C53.3998 21.3 49.6998 20.2 45.6998 20.2C41.6998 20.2 37.8998 21.2999 34.6998 23.2999C32.3998 22.2999 30.0998 21.9 28.6998 21.9C23.1998 21.9 20.6998 26.8 18.3998 31.6C17.3998 33.6 16.3998 35.5 15.2998 37C12.9998 40 10.6998 41.0999 10.6998 41.0999C10.4998 41.1999 10.3998 41.3999 10.2998 41.5999C10.2998 41.7999 10.3998 42 10.5998 42.2C10.5998 42.2 13.3998 43.7999 15.2998 46.2999C16.3998 47.7999 17.2998 49.6999 18.2998 51.5999C20.6998 56.3999 23.1998 61.4 28.7998 61.4C30.0998 61.4 33.2998 60.7 34.7998 60C37.9998 61.9 41.7998 63.0999 45.7998 63.0999C49.7998 63.0999 53.4998 62 56.6998 60.0999C58.2998 60.7999 61.3998 61.5 62.6998 61.5C68.2998 61.5 70.7998 56.5 73.1998 51.7C74.1998 49.7 75.0998 47.9 76.1998 46.4C78.0998 43.9 80.7998 42.2999 80.8998 42.2999C81.0998 42.1999 81.1998 42 81.1998 41.7C80.9998 41.3 80.7998 41.1 80.5998 41ZM62.5998 30.6H28.6998C32.2998 25 38.5998 21.4 45.6998 21.4C52.6998 21.4 58.9998 25.1 62.5998 30.6ZM65.7998 41.5999C65.7998 52.3999 57.2998 61.2 46.6998 61.7999L63.5998 32.5C64.9998 35.2 65.7998 38.2999 65.7998 41.5999ZM25.3998 41.5999C25.3998 38.2999 26.1998 35.2 27.5998 32.5L44.4998 61.7999C33.8998 61.2 25.3998 52.3999 25.3998 41.5999ZM28.5998 31.7999H62.5998L45.5998 61.2L28.5998 31.7999ZM28.5998 60.0999C23.6998 60.0999 21.3998 55.4 19.1998 51C18.1998 49.1 17.2998 47.1 16.0998 45.5C14.6998 43.7 12.9998 42.2999 11.8998 41.5999C12.8998 40.9999 14.4998 39.8 16.0998 37.7C17.2998 36.1 18.2998 34.0999 19.2998 32.0999C21.5998 27.4999 23.7998 23.1 28.5998 23.1C29.7998 23.1 31.5998 23.4 33.3998 24.1C30.7998 25.9 28.6998 28.2 27.0998 30.9C27.0998 30.9 26.9998 30.9 26.9998 31V31.1C25.1998 34.2 24.1998 37.8 24.1998 41.7C24.1998 49 27.7998 55.3999 33.3998 59.2999C31.8998 59.7 29.5998 60.0999 28.5998 60.0999ZM74.9998 45.5C73.7998 47.1 72.7998 49.1 71.8998 51C69.6998 55.5 67.3998 60.0999 62.4998 60.0999C61.4998 60.0999 59.2998 59.5999 57.7998 59.0999C63.3998 55.1999 66.9998 48.7999 66.9998 41.5C66.9998 37.6 65.9998 34 64.1998 30.9V30.7999C64.1998 30.7999 64.1998 30.8 64.0998 30.7C62.4998 28 60.3998 25.5999 57.7998 23.7999C59.5998 23.0999 61.3998 22.7999 62.4998 22.7999C67.2998 22.7999 69.4998 27.1999 71.7998 31.7999C72.7998 33.7999 73.7998 35.8 74.9998 37.4C76.5998 39.5 78.1998 40.6999 79.1998 41.2999C78.1998 42.2999 76.3998 43.7 74.9998 45.5Z" fill="white"/>
</g>
<defs>
<radialGradient id="paint0_radial" cx="0" cy="0" r="1" gradientUnits="userSpaceOnUse" gradientTransform="translate(45.624 41.5787) scale(38.662)">
<stop offset="0.00325858" stop-color="#7369FF"/>
<stop offset="1" stop-color="#7369FF" stop-opacity="0"/>
</radialGradient>
<clipPath id="clip0">
<rect width="91.2" height="87.2" fill="white"/>
</clipPath>
</defs>
</svg>
