<svg width="93" height="88" viewBox="0 0 93 88" fill="none" xmlns="http://www.w3.org/2000/svg">
<g clip-path="url(#clip0)">
<path d="M45.5999 80.2999C66.9733 80.2999 84.2999 62.9733 84.2999 41.5999C84.2999 20.2265 66.9733 2.8999 45.5999 2.8999C24.2265 2.8999 6.8999 20.2265 6.8999 41.5999C6.8999 62.9733 24.2265 80.2999 45.5999 80.2999Z" fill="url(#paint0_radial)"/>
<path opacity="0.28" d="M38.7 77.4C60.0734 77.4 77.4 60.0734 77.4 38.7C77.4 17.3266 60.0734 0 38.7 0C17.3266 0 0 17.3266 0 38.7C0 60.0734 17.3266 77.4 38.7 77.4Z" fill="#1ECDFF"/>
<path opacity="0.28" d="M45.4002 87.2C66.7736 87.2 84.1002 69.8735 84.1002 48.5C84.1002 27.1266 66.7736 9.80005 45.4002 9.80005C24.0268 9.80005 6.7002 27.1266 6.7002 48.5C6.7002 69.8735 24.0268 87.2 45.4002 87.2Z" fill="#1ECDFF"/>
<path opacity="0.28" d="M52.5999 77.4C73.9733 77.4 91.2999 60.0734 91.2999 38.7C91.2999 17.3266 73.9733 0 52.5999 0C31.2265 0 13.8999 17.3266 13.8999 38.7C13.8999 60.0734 31.2265 77.4 52.5999 77.4Z" fill="#1ECDFF"/>
<path d="M77.1998 41.1C77.1998 41.1 76.4998 40.7 76.0998 40.1C75.7998 39.7 75.5998 39.2001 75.2998 38.7001C74.7998 37.7001 74.1998 36.5 73.0998 36C73.8998 35.1 73.9998 33.8 74.0998 32.8C74.0998 32.2 74.1998 31.7001 74.2998 31.2001C74.4998 30.3001 74.8998 29.9 74.8998 29.9C75.0998 29.7 75.0998 29.5 74.9998 29.3C74.8998 29.1 74.6998 28.9 74.4998 28.9C74.4998 28.9 73.6998 28.8 73.0998 28.4C72.6998 28.2 72.2998 27.8 71.8998 27.4C71.0998 26.7 70.0998 25.8 68.9998 25.8C69.2998 24.7 68.8998 23.5 68.5998 22.5C68.3998 21.9 68.1998 21.4 68.1998 20.9C68.0998 20 68.2998 19.4 68.2998 19.4C68.3998 19.2 68.2998 19 68.1998 18.8C67.9998 18.6 67.7998 18.6 67.5998 18.6C67.5998 18.6 66.7998 18.8 66.0998 18.7C65.5998 18.6 65.0998 18.5 64.5998 18.3C63.4998 17.9 62.2998 17.5 61.1998 17.9C61.1998 16.7 60.2998 15.7 59.4998 14.9C59.0998 14.5 58.7998 14.1 58.4998 13.7C58.0998 13.1 57.9998 12.3 57.9998 12.3C57.9998 12.1 57.7998 11.9 57.5998 11.8C57.3998 11.7 57.1998 11.8 56.9998 11.9C56.9998 11.9 56.5998 12.3 55.6998 12.5C55.1998 12.6 54.6998 12.7 54.0998 12.7C52.9998 12.8 51.7998 12.9 50.8998 13.6C50.3998 12.6 49.1998 12 48.2998 11.5C47.7998 11.2 47.2998 11 46.8998 10.7C46.2998 10.3 45.8998 9.60005 45.8998 9.60005C45.7998 9.40005 45.5998 9.30005 45.3998 9.30005C45.1998 9.30005 44.9998 9.40005 44.8998 9.60005C44.8998 9.60005 44.5998 10.1 43.8998 10.7C43.4998 11 42.9998 11.2 42.4998 11.5C41.4998 12 40.3998 12.6 39.8998 13.6C38.9998 12.8 37.6998 12.7 36.5998 12.6C35.9998 12.6 35.4998 12.5 34.9998 12.4C34.2998 12.2 33.5998 11.7 33.5998 11.7C33.3998 11.6 33.1998 11.5 32.9998 11.6C32.7998 11.7 32.6998 11.9 32.6998 12.1C32.6998 12.1 32.6998 12.7 32.1998 13.5C31.9998 13.9 31.5998 14.3 31.1998 14.8C30.4998 15.6 29.6998 16.6 29.5998 17.7C28.4998 17.3 27.2998 17.7 26.2998 18.1C25.7998 18.3 25.1998 18.5 24.7998 18.5C24.0998 18.6 23.2998 18.4 23.2998 18.4C23.0998 18.3 22.8998 18.4 22.6998 18.6C22.4998 18.8 22.4998 19 22.5998 19.2C22.5998 19.2 22.7998 19.8 22.6998 20.7C22.5998 21.2 22.4998 21.7 22.2998 22.3C21.9998 23.3 21.4998 24.6 21.8998 25.7001C20.6998 25.7001 19.6998 26.6 18.8998 27.4C18.4998 27.8 18.0998 28.1 17.6998 28.4C17.0998 28.8 16.2998 28.9 16.2998 28.9C16.0998 28.9 15.8998 29.1 15.7998 29.3C15.6998 29.5 15.7998 29.7 15.8998 29.9C15.8998 29.9 16.2998 30.3001 16.4998 31.2001C16.5998 31.7001 16.6998 32.2 16.6998 32.8C16.7998 33.9 16.8998 35.1 17.5998 36C16.5998 36.5 15.9998 37.7 15.4998 38.6C15.1998 39.1 14.9998 39.6 14.6998 40C14.2998 40.6 13.5998 41 13.5998 41C13.3998 41.1 13.2998 41.3 13.2998 41.5C13.2998 41.7001 13.3998 41.9001 13.5998 42C13.5998 42 14.0998 42.3 14.6998 43C14.9998 43.4001 15.1998 43.9001 15.4998 44.4001C15.9998 45.4001 16.5998 46.5 17.5998 47C16.7998 47.9001 16.6998 49.2001 16.5998 50.3C16.5998 50.9 16.4998 51.4001 16.3998 51.9001C16.1998 52.6001 15.6998 53.3 15.6998 53.3C15.5998 53.5 15.4998 53.7001 15.5998 53.9001C15.6998 54.1001 15.8998 54.2001 16.0998 54.2001C16.0998 54.2001 16.6998 54.2001 17.4998 54.7001C17.8998 54.9001 18.2998 55.3 18.7998 55.7001C19.5998 56.4001 20.5998 57.2001 21.6998 57.3C21.2998 58.4 21.6998 59.6001 22.0998 60.7001C22.2998 61.2001 22.4998 61.8 22.4998 62.2001C22.5998 62.9001 22.3998 63.7001 22.3998 63.7001C22.2998 63.9001 22.3998 64.1001 22.5998 64.3001C22.7998 64.5001 22.9998 64.5 23.1998 64.4001C23.1998 64.4001 23.7998 64.2001 24.6998 64.3001C25.1998 64.4001 25.6998 64.5 26.2998 64.7C26.9998 64.9 27.8998 65.2 28.6998 65.2C28.9998 65.2 29.3998 65.2001 29.6998 65C29.7998 66.2001 30.5998 67.1 31.2998 68C31.6998 68.4001 32.0998 68.9001 32.2998 69.3001C32.7998 70.1001 32.7998 70.7 32.7998 70.7C32.7998 70.9 32.8998 71.1 33.0998 71.2C33.1998 71.2 33.2998 71.3001 33.3998 71.3001C33.4998 71.3001 33.6998 71.3 33.7998 71.2C33.7998 71.2 34.3998 70.7001 35.1998 70.5C35.6998 70.4001 36.1998 70.3001 36.7998 70.3001C37.8998 70.2001 39.1998 70.1001 39.9998 69.4001C40.4998 70.4001 41.5998 71 42.5998 71.4001C43.0998 71.7001 43.5998 71.9 43.9998 72.2C44.6998 72.8 44.9998 73.3 44.9998 73.3C45.0998 73.5 45.2998 73.6 45.4998 73.7C45.6998 73.7 45.8998 73.6 45.9998 73.4C45.9998 73.4 46.3998 72.7001 46.9998 72.3001C47.3998 72.0001 47.8998 71.8 48.3998 71.5C49.3998 71 50.5998 70.4001 51.0998 69.3001C51.9998 70.1001 53.2998 70.2001 54.2998 70.3001C54.8998 70.3001 55.3998 70.4001 55.8998 70.5C56.7998 70.7001 57.1998 71.1 57.1998 71.1C57.2998 71.2 57.4998 71.3001 57.5998 71.3001C57.6998 71.3001 57.6998 71.3001 57.7998 71.3001C57.9998 71.2001 58.1998 71.0001 58.1998 70.8001C58.1998 70.8001 58.2998 70 58.6998 69.4001C58.8998 69 59.2998 68.6 59.6998 68.2C60.3998 67.4 61.2998 66.4001 61.2998 65.3001C61.5998 65.4001 61.8998 65.4001 62.1998 65.4001C62.9998 65.4001 63.8998 65.1001 64.5998 64.9001C65.1998 64.7001 65.6998 64.5 66.1998 64.5C67.0998 64.4001 67.6998 64.6 67.6998 64.6C67.8998 64.7 68.0998 64.6 68.2998 64.5C68.4998 64.3 68.4998 64.1001 68.4998 63.9001C68.4998 63.9001 68.2998 63.1001 68.3998 62.4001C68.4998 61.9001 68.5998 61.4001 68.7998 60.9001C69.1998 59.8001 69.5998 58.6 69.1998 57.5C70.3998 57.4001 71.2998 56.6001 72.1998 55.9001C72.5998 55.5 73.0998 55.1001 73.4998 54.9001C74.2998 54.4001 74.8998 54.4001 74.8998 54.4001C75.0998 54.4001 75.2998 54.3 75.3998 54.1C75.4998 53.9 75.4998 53.7001 75.2998 53.5C75.2998 53.5 74.7998 52.9 74.5998 52.1C74.4998 51.6 74.3998 51.1 74.3998 50.5C73.9998 49.3 73.9998 48 73.1998 47.1C74.1998 46.6 74.7998 45.5 75.1998 44.5C75.4998 44 75.6998 43.5 75.9998 43.1C76.5998 42.4 77.0998 42.1 77.0998 42.1C77.2998 42 77.3998 41.8 77.4998 41.6C77.4998 41.4 77.3998 41.2 77.1998 41.1ZM46.1998 66.1L66.9998 30.1C68.7998 33.5 69.7998 37.4 69.7998 41.5C69.7998 54.7001 59.2998 65.6 46.1998 66.1ZM20.6998 41.5C20.6998 37.4 21.6998 33.5 23.4998 30.1L44.2998 66.1C31.1998 65.6 20.6998 54.7001 20.6998 41.5ZM45.1998 16.9C53.8998 16.9 61.5998 21.5 65.9998 28.4H24.3998C28.7998 21.5 36.4998 16.9 45.1998 16.9ZM45.1998 65.3001L37.1998 51.4001C39.3998 53.2001 42.1998 54.2001 45.1998 54.2001C48.1998 54.2001 50.9998 53.1001 53.1998 51.4001L45.1998 65.3001ZM45.1998 53.1C38.7998 53.1 33.5998 47.9001 33.5998 41.5C33.5998 35.1 38.7998 29.9 45.1998 29.9C51.5998 29.9 56.7998 35.1 56.7998 41.5C56.7998 47.9001 51.5998 53.1 45.1998 53.1ZM32.4998 41.5C32.4998 42.2001 32.5998 42.8 32.6998 43.5L24.6998 29.6H40.6998C35.7998 31.5 32.4998 36.1 32.4998 41.5ZM49.8998 29.6H65.8998L57.8998 43.5C57.9998 42.8 58.0998 42.2001 58.0998 41.5C57.9998 36.1 54.6998 31.5 49.8998 29.6ZM71.0998 28.3C71.5998 28.7 71.9998 29.1 72.4998 29.4C72.7998 29.6 73.1998 29.7 73.4998 29.8C73.3998 30.1 73.1998 30.4 73.0998 30.8C72.8998 31.4 72.8998 32 72.8998 32.6C72.7998 34.1 72.6998 35.1 71.7998 35.5C71.5998 35.6 70.8998 35.7 70.3998 35.8C69.7998 32.9 68.5998 30.2 67.0998 27.8C67.4998 27.5 68.0998 27.1 68.1998 27C69.0998 26.7001 69.8998 27.3 71.0998 28.3ZM64.0998 19.4C64.6998 19.6 65.2998 19.8 65.7998 19.9C66.1998 20 66.5998 20 66.8998 19.9C66.8998 20.2 66.8998 20.6 66.8998 21C66.9998 21.6 67.1998 22.2 67.3998 22.8C67.8998 24.3 68.0998 25.2 67.4998 25.9C67.2998 26.1 66.7998 26.4001 66.3998 26.7001C64.6998 24.3001 62.5998 22.2 60.2998 20.5C60.4998 20.1 60.8998 19.5 60.9998 19.4C61.5998 18.7 62.5998 18.9 64.0998 19.4ZM54.0998 13.9C54.6998 13.9 55.3998 13.8 55.8998 13.7C56.2998 13.6 56.6998 13.4 56.8998 13.3C56.9998 13.6 57.0998 14 57.2998 14.3C57.5998 14.8 57.9998 15.3 58.3998 15.7C59.3998 16.9 59.9998 17.6 59.6998 18.5C59.5998 18.7 59.1998 19.2 58.8998 19.6C56.4998 18.1 53.7998 16.9 50.8998 16.3C50.9998 15.8 51.0998 15.2 51.1998 15C51.5998 14.2 52.4998 14 54.0998 13.9ZM42.7998 12.7C43.3998 12.4 43.8998 12.1 44.3998 11.8C44.6998 11.5 44.9998 11.3 45.1998 11C45.3998 11.2 45.6998 11.5 45.9998 11.8C46.4998 12.1 46.9998 12.4 47.5998 12.7C48.9998 13.4 49.7998 13.9 49.7998 14.9C49.7998 15.1 49.6998 15.7 49.4998 16.2C48.0998 16 46.5998 15.8 45.1998 15.8C43.6998 15.8 42.1998 15.9 40.7998 16.2C40.6998 15.7 40.5998 15.1 40.5998 14.9C40.5998 13.8 41.4998 13.3 42.7998 12.7ZM31.8998 15.8C32.2998 15.3 32.6998 14.8 32.9998 14.3C33.1998 13.9 33.3998 13.6 33.4998 13.3C33.7998 13.4 34.0998 13.6 34.4998 13.7C35.0998 13.8 35.6998 13.9 36.2998 13.9C37.8998 14 38.7998 14.1 39.1998 15C39.2998 15.2 39.3998 15.8 39.4998 16.3C36.5998 17 33.8998 18.1 31.4998 19.7C31.1998 19.3 30.8998 18.8 30.7998 18.6C30.2998 17.7 30.8998 17 31.8998 15.8ZM23.0998 22.8C23.2998 22.2 23.4998 21.6 23.5998 21C23.6998 20.6 23.6998 20.2 23.5998 19.9C23.8998 19.9 24.2998 19.9 24.6998 19.9C25.2998 19.8 25.8998 19.6 26.3998 19.4C27.8998 18.9 28.7998 18.6 29.4998 19.3C29.5998 19.4 29.9998 20 30.1998 20.4C27.7998 22.1 25.7998 24.2 24.0998 26.6C23.6998 26.3 23.0998 26 22.9998 25.8C22.3998 25.2 22.5998 24.3 23.0998 22.8ZM17.9998 29.5C18.4998 29.2001 18.9998 28.8 19.3998 28.4C20.5998 27.4 21.2998 26.8 22.1998 27.1C22.3998 27.2 22.9998 27.6 23.2998 27.9C21.7998 30.3 20.6998 33.0001 19.9998 35.9001C19.4998 35.8001 18.7998 35.7 18.5998 35.6C17.6998 35.2 17.5998 34.3001 17.4998 32.7001C17.4998 32.1 17.3998 31.4 17.2998 30.9C17.1998 30.5 16.9998 30.1 16.8998 29.9C17.2998 29.8 17.5998 29.7001 17.9998 29.5ZM16.2998 44C15.9998 43.4001 15.6998 42.9001 15.3998 42.4001C15.0998 42.1001 14.8998 41.8 14.5998 41.6C14.7998 41.4 15.0998 41.1 15.3998 40.8C15.6998 40.3 15.9998 39.8001 16.2998 39.2001C16.9998 37.8001 17.4998 37 18.4998 37C18.6998 37 19.3998 37.2 19.8998 37.3C19.6998 38.7 19.4998 40.1 19.4998 41.5C19.4998 43 19.5998 44.5 19.8998 45.9001C19.3998 46 18.6998 46.1 18.4998 46.1C17.4998 46.2 16.9998 45.4001 16.2998 44ZM17.9998 53.8C17.5998 53.6 17.2998 53.4 16.9998 53.3C17.0998 53 17.2998 52.7001 17.3998 52.3C17.4998 51.7001 17.5998 51.1 17.5998 50.5C17.6998 48.9001 17.7998 48 18.6998 47.6C18.8998 47.5 19.5998 47.4 20.0998 47.3C20.7998 50.2001 21.8998 52.9 23.4998 55.3C23.0998 55.6 22.4998 56 22.2998 56.1C21.3998 56.5 20.5998 55.9001 19.4998 54.9001C18.9998 54.5 18.4998 54.1 17.9998 53.8ZM26.4998 63.7001C25.8998 63.5 25.2998 63.3 24.6998 63.2001C24.2998 63.1001 23.8998 63.1001 23.5998 63.2001C23.5998 62.9001 23.5998 62.5 23.5998 62.1C23.4998 61.5 23.2998 60.9001 23.0998 60.4001C22.5998 58.9001 22.2998 58 22.9998 57.3C23.0998 57.2001 23.7998 56.7001 24.1998 56.5C25.8998 58.9001 27.9998 60.9 30.2998 62.6C30.0998 63 29.5998 63.7001 29.4998 63.8C28.8998 64.5 27.8998 64.2001 26.4998 63.7001ZM36.3998 69.3001C35.7998 69.3001 35.1998 69.4001 34.5998 69.5C34.1998 69.6 33.8998 69.7001 33.5998 69.9001C33.4998 69.6001 33.3998 69.3001 33.0998 68.9001C32.7998 68.4001 32.3998 67.9001 31.9998 67.4001C30.9998 66.2001 30.3998 65.5 30.7998 64.6C30.8998 64.4 31.2998 63.8001 31.5998 63.4001C33.9998 64.9001 36.6998 66 39.5998 66.7C39.5998 67.2 39.3998 68 39.2998 68.2C38.8998 69 37.8998 69.2001 36.3998 69.3001ZM47.5998 70.5C47.0998 70.8 46.4998 71 45.9998 71.4001C45.6998 71.6001 45.3998 71.9 45.1998 72.2C44.9998 72 44.6998 71.7001 44.3998 71.4001C43.8998 71 43.3998 70.8 42.7998 70.5C41.3998 69.8 40.5998 69.3001 40.5998 68.4001C40.5998 68.2001 40.6998 67.4001 40.8998 66.9001C42.2998 67.1001 43.7998 67.3001 45.1998 67.3001C46.6998 67.3001 48.0998 67.2001 49.4998 66.9001C49.5998 67.4001 49.7998 68.2001 49.7998 68.4001C49.7998 69.4001 48.9998 69.9001 47.5998 70.5ZM58.5998 67.4001C58.1998 67.9001 57.7998 68.3001 57.4998 68.8001C57.2998 69.1001 57.1998 69.5001 57.0998 69.8001C56.7998 69.7001 56.4998 69.5 56.0998 69.4001C55.4998 69.2001 54.8998 69.2 54.2998 69.2C52.7998 69.1 51.7998 69 51.3998 68.1C51.2998 67.9 51.0998 67.2 51.0998 66.6C53.9998 65.9 56.6998 64.8 59.0998 63.3C59.3998 63.7001 59.8998 64.4001 59.9998 64.5C60.1998 65.5 59.5998 66.2001 58.5998 67.4001ZM67.3998 60.4001C67.1998 61 66.9998 61.6 66.8998 62.1C66.7998 62.5 66.7998 62.9001 66.8998 63.2001C66.5998 63.2001 66.1998 63.2001 65.7998 63.2001C65.1998 63.3 64.5998 63.5 63.9998 63.7001C62.4998 64.2001 61.5998 64.4 60.8998 63.8C60.6998 63.6 60.2998 63 60.0998 62.6C62.4998 60.9 64.4998 58.9001 66.1998 56.5C66.5998 56.7001 67.2998 57.2001 67.3998 57.3C68.0998 58 67.8998 58.9001 67.3998 60.4001ZM73.4998 53.2001C73.1998 53.3 72.8998 53.4001 72.4998 53.7001C71.9998 54 71.4998 54.4 70.9998 54.8C69.7998 55.8 69.0998 56.4001 68.1998 56C67.9998 56 67.3998 55.6 66.9998 55.3C68.4998 52.9 69.6998 50.2001 70.2998 47.3C70.7998 47.4 71.4998 47.5 71.6998 47.6C72.5998 48 72.6998 48.9001 72.7998 50.5C72.7998 51.1 72.8998 51.7001 72.9998 52.3C73.1998 52.6 73.3998 53 73.4998 53.2001ZM75.0998 42.4001C74.6998 42.9001 74.4998 43.4001 74.1998 44C73.4998 45.4001 72.9998 46.2001 72.0998 46.2001C71.8998 46.2001 71.1998 46.1001 70.6998 45.9001C70.9998 44.5 71.0998 43 71.0998 41.5C71.0998 40.1 70.9998 38.6 70.6998 37.3C71.1998 37.2 71.8998 37 72.0998 37C73.0998 37 73.5998 37.8001 74.2998 39.2001C74.5998 39.7001 74.7998 40.3 75.1998 40.8C75.3998 41.1 75.6998 41.4 75.9998 41.6C75.5998 41.8 75.3998 42 75.0998 42.4001Z" fill="white"/>
</g>
<defs>
<radialGradient id="paint0_radial" cx="0" cy="0" r="1" gradientUnits="userSpaceOnUse" gradientTransform="translate(45.624 41.5787) scale(38.6621)">
<stop offset="0.00390625" stop-color="#1ECDFF"/>
<stop offset="1" stop-color="#1ECDFF" stop-opacity="0"/>
</radialGradient>
<clipPath id="clip0">
<rect width="91.2" height="87.2" fill="white"/>
</clipPath>
</defs>
</svg>
