<svg width="25" height="24" viewBox="0 0 25 24" fill="none" xmlns="http://www.w3.org/2000/svg">
<path opacity="0.2" d="M12.875 22C18.3978 22 22.875 17.5228 22.875 12C22.875 6.47715 18.3978 2 12.875 2C7.35215 2 2.875 6.47715 2.875 12C2.875 17.5228 7.35215 22 12.875 22Z" fill="#50B975"/>
<path d="M11.4554 15.5801C11.2554 15.5801 11.0654 15.5001 10.9254 15.3601L8.09543 12.5301C7.80543 12.2401 7.80543 11.7601 8.09543 11.4701C8.38543 11.1801 8.86543 11.1801 9.15543 11.4701L11.4554 13.7701L16.5954 8.6301C16.8854 8.3401 17.3654 8.3401 17.6554 8.6301C17.9454 8.9201 17.9454 9.4001 17.6554 9.6901L11.9854 15.3601C11.8454 15.5001 11.6554 15.5801 11.4554 15.5801Z" fill="#50B975"/>
</svg>
