<svg width="24" height="25" viewBox="0 0 24 25" fill="none" xmlns="http://www.w3.org/2000/svg">
<path d="M12 23.25C6.07 23.25 1.25 18.43 1.25 12.5C1.25 6.57 6.07 1.75 12 1.75C17.93 1.75 22.75 6.57 22.75 12.5C22.75 18.43 17.93 23.25 12 23.25ZM12 3.25C6.9 3.25 2.75 7.4 2.75 12.5C2.75 17.6 6.9 21.75 12 21.75C17.1 21.75 21.25 17.6 21.25 12.5C21.25 7.4 17.1 3.25 12 3.25Z" fill="#CB0101"/>
<path d="M10.5799 16.0801C10.3799 16.0801 10.1899 16.0001 10.0499 15.8601L7.21994 13.0301C6.92994 12.7401 6.92994 12.2601 7.21994 11.9701C7.50994 11.6801 7.98994 11.6801 8.27994 11.9701L10.5799 14.2701L15.7199 9.1301C16.0099 8.8401 16.4899 8.8401 16.7799 9.1301C17.0699 9.4201 17.0699 9.9001 16.7799 10.1901L11.1099 15.8601C10.9699 16.0001 10.7799 16.0801 10.5799 16.0801Z" fill="#CB0101"/>
</svg>
