<svg width="23" height="23" viewBox="0 0 23 23" fill="none" xmlns="http://www.w3.org/2000/svg">
<g id="Info tooltip">
<path id="Vector" d="M11.5 2.5625C9.73233 2.5625 8.00436 3.08668 6.5346 4.06874C5.06483 5.05081 3.91929 6.44665 3.24283 8.07977C2.56637 9.71288 2.38938 11.5099 2.73424 13.2436C3.07909 14.9773 3.93031 16.5698 5.18024 17.8198C6.43017 19.0697 8.02268 19.9209 9.75638 20.2658C11.4901 20.6106 13.2871 20.4336 14.9202 19.7572C16.5534 19.0807 17.9492 17.9352 18.9313 16.4654C19.9133 14.9956 20.4375 13.2677 20.4375 11.5C20.435 9.1304 19.4926 6.85856 17.817 5.183C16.1414 3.50743 13.8696 2.565 11.5 2.5625ZM11.5 17C11.296 17 11.0967 16.9395 10.9271 16.8262C10.7575 16.7129 10.6253 16.5518 10.5473 16.3634C10.4692 16.175 10.4488 15.9676 10.4886 15.7676C10.5284 15.5675 10.6266 15.3838 10.7708 15.2395C10.915 15.0953 11.0988 14.9971 11.2988 14.9573C11.4989 14.9175 11.7062 14.9379 11.8946 15.016C12.0831 15.0941 12.2441 15.2262 12.3575 15.3958C12.4708 15.5654 12.5313 15.7648 12.5313 15.9688C12.5313 16.2423 12.4226 16.5046 12.2292 16.698C12.0358 16.8913 11.7735 17 11.5 17ZM12.1875 12.8131V12.875C12.1875 13.0573 12.1151 13.2322 11.9861 13.3611C11.8572 13.4901 11.6823 13.5625 11.5 13.5625C11.3177 13.5625 11.1428 13.4901 11.0139 13.3611C10.8849 13.2322 10.8125 13.0573 10.8125 12.875V12.1875C10.8125 12.0052 10.8849 11.8303 11.0139 11.7014C11.1428 11.5724 11.3177 11.5 11.5 11.5C12.637 11.5 13.5625 10.7266 13.5625 9.78125C13.5625 8.83594 12.637 8.0625 11.5 8.0625C10.3631 8.0625 9.4375 8.83594 9.4375 9.78125V10.125C9.4375 10.3073 9.36507 10.4822 9.23614 10.6111C9.10721 10.7401 8.93234 10.8125 8.75 10.8125C8.56767 10.8125 8.3928 10.7401 8.26387 10.6111C8.13494 10.4822 8.0625 10.3073 8.0625 10.125V9.78125C8.0625 8.07539 9.60422 6.6875 11.5 6.6875C13.3958 6.6875 14.9375 8.07539 14.9375 9.78125C14.9375 11.2748 13.755 12.5252 12.1875 12.8131Z" fill="#80918F"/>
</g>
</svg>
