<svg width="98" height="27" viewBox="0 0 98 27" fill="none" xmlns="http://www.w3.org/2000/svg">
<path d="M0 4.70996V0.600098H20.43V4.70996H12.43V25.71H8.00995V4.70996H0Z" fill="white"/>
<path d="M21.73 13.1798C21.7247 9.77118 23.0443 6.49397 25.41 4.03995C26.6012 2.82824 28.0269 1.87204 29.6 1.22989C31.2771 0.523925 33.0804 0.166626 34.9 0.17984C36.7122 0.159216 38.5104 0.499141 40.19 1.17984C41.7519 1.81297 43.1675 2.75907 44.35 3.95987C45.5064 5.15254 46.42 6.55875 47.04 8.10001C48.0128 10.4766 48.2746 13.0845 47.7935 15.6071C47.3124 18.1296 46.1092 20.4582 44.33 22.31C43.132 23.5156 41.7036 24.4678 40.13 25.11C38.4491 25.7983 36.6461 26.1385 34.83 26.11C32.449 26.1495 30.102 25.5411 28.04 24.35C26.0831 23.2339 24.471 21.6008 23.38 19.6298C22.2854 17.6571 21.7172 15.4358 21.73 13.1798ZM26.36 13.1798C26.3444 14.7458 26.7154 16.2915 27.44 17.6798C28.1476 19.0406 29.215 20.1812 30.526 20.9772C31.837 21.7732 33.3413 22.194 34.875 22.194C36.4087 22.194 37.913 21.7732 39.224 20.9772C40.535 20.1812 41.6025 19.0406 42.31 17.6798C43.036 16.2852 43.4036 14.7319 43.38 13.1598C43.3967 11.5957 43.022 10.0522 42.29 8.66983C41.6002 7.334 40.564 6.20807 39.29 5.40982C38.3132 4.80042 37.2208 4.40005 36.0816 4.23355C34.9424 4.06705 33.7811 4.13818 32.6707 4.44254C31.5604 4.74689 30.5251 5.27775 29.63 6.00186C28.735 6.72598 27.9995 7.62751 27.47 8.64981C26.7313 10.0449 26.3499 11.6013 26.36 13.1798Z" fill="white"/>
<path d="M71.0399 13.1799C71.0359 11.4632 71.376 9.76307 72.0399 8.17993C72.6597 6.63618 73.5771 5.22957 74.74 4.04004C75.9293 2.82614 77.3555 1.86963 78.93 1.22998C80.6038 0.524811 82.4036 0.167517 84.2199 0.179931C86.0355 0.158245 87.8371 0.498184 89.5199 1.17993C91.0754 1.83218 92.4835 2.79135 93.6599 4C94.8134 5.19307 95.7236 6.5991 96.3399 8.13989C96.9941 9.72602 97.3337 11.4242 97.3399 13.1399C97.3404 16.5554 96.0179 19.8386 93.6499 22.3C92.4573 23.5075 91.0318 24.4602 89.4599 25.1001C87.7753 25.7873 85.9692 26.1275 84.1499 26.1001C81.7723 26.1382 79.4289 25.5299 77.37 24.3401C75.4104 23.2242 73.7949 21.5915 72.6999 19.6201C71.6031 17.6515 71.0314 15.4335 71.0399 13.1799ZM75.6599 13.1799C75.6443 14.7459 76.0153 16.2916 76.74 17.6799C77.4298 19.0158 78.4659 20.1417 79.74 20.9399C80.722 21.5601 81.8223 21.9695 82.971 22.1418C84.1196 22.3142 85.2915 22.2458 86.4124 21.9412C87.5332 21.6365 88.5785 21.1022 89.4818 20.3721C90.3852 19.642 91.1269 18.7319 91.6599 17.7C92.3812 16.3036 92.7487 14.7515 92.73 13.1799C92.7467 11.6158 92.372 10.0723 91.6399 8.68994C90.9357 7.34502 89.8776 6.21783 88.5799 5.42993C87.6023 4.82353 86.5101 4.42539 85.3716 4.2605C84.233 4.0956 83.0727 4.16756 81.9632 4.47168C80.8537 4.7758 79.8189 5.30568 78.9236 6.02808C78.0283 6.75048 77.2917 7.64978 76.7599 8.66992C76.0325 10.0616 75.655 11.6096 75.6599 13.1799Z" fill="white"/>
<path d="M61.5 0.610107L57.3199 4.79004V25.75H61.74V4.70996H69.74V0.610107H61.5Z" fill="white"/>
<path d="M49.31 0.610107V4.70996H54.0699L58.17 0.610107H49.31Z" fill="#3BA8FF"/>
</svg>
