<svg width="64" height="64" viewBox="0 0 64 64" fill="none" xmlns="http://www.w3.org/2000/svg">
<path d="M32 45.4108C39.4095 45.4108 45.4375 39.3828 45.4375 31.9733C45.4375 24.5638 39.4095 18.5358 32 18.5358C24.5905 18.5358 18.5625 24.5638 18.5625 31.9733C18.5625 39.3828 24.5905 45.4108 32 45.4108ZM32 20.4108C38.3756 20.4108 43.5625 25.5976 43.5625 31.9733C43.5625 38.3489 38.3756 43.5358 32 43.5358C25.6244 43.5358 20.4375 38.3489 20.4375 31.9733C20.4375 25.5976 25.6244 20.4108 32 20.4108Z" fill="url(#paint0_linear)"/>
<path d="M27.0539 34.3713L26.4214 38.0588C26.3201 38.6493 26.5582 39.2348 27.043 39.5871C27.5275 39.9392 28.1581 39.9847 28.6886 39.7061L32.0001 37.9651L35.3118 39.7062C35.8399 39.984 36.4714 39.9404 36.9573 39.5872C37.4419 39.235 37.6801 38.6494 37.5789 38.059L36.9464 34.3714L39.6255 31.7599C40.0545 31.3417 40.206 30.7279 40.0209 30.1582C39.8358 29.5884 39.3524 29.1809 38.7595 29.0948L35.057 28.5568L33.4011 25.2017C33.4011 25.2017 33.4011 25.2017 33.4011 25.2016C33.1359 24.6644 32.599 24.3307 32 24.3307C31.401 24.3307 30.8641 24.6644 30.5989 25.2017L28.943 28.5568L25.2405 29.0948C24.6476 29.1809 24.1644 29.5884 23.9792 30.1582C23.7941 30.7279 23.9456 31.3417 24.3747 31.7599L27.0539 34.3713ZM29.3754 30.3887C29.8844 30.3147 30.3242 29.9952 30.5517 29.5339L32.0001 26.5993L33.4484 29.5338C33.676 29.9951 34.1157 30.3147 34.6249 30.3887L37.8634 30.8593L35.52 33.1436C35.1516 33.5026 34.9836 34.0197 35.0706 34.5264L35.6238 37.7519L32.7271 36.2291C32.2719 35.9898 31.7284 35.9897 31.273 36.2291L28.3765 37.7519L28.9296 34.5266C29.0166 34.0196 28.8486 33.5026 28.4802 33.1436L26.1369 30.8593L29.3754 30.3887Z" fill="url(#paint1_linear)"/>
<path d="M62.4375 2.84827H59.9375C59.0759 2.84827 58.375 3.54914 58.375 4.41077V4.72327H5.625V4.41077C5.625 3.54914 4.92413 2.84827 4.0625 2.84827H1.5625C0.700875 2.84827 0 3.54914 0 4.41077V10.6608C0 11.5224 0.700875 12.2233 1.5625 12.2233H4.0625C4.92413 12.2233 5.625 11.5224 5.625 10.6608V10.3483H7.625V11.9108C7.625 13.1169 8.60637 14.0983 9.8125 14.0983H10.75V43.8839C10.75 45.3725 11.467 46.7863 12.668 47.6658L30.3382 60.6059C31.3321 61.3336 32.6678 61.3337 33.6616 60.6059L51.3319 47.6658C52.533 46.7863 53.25 45.3725 53.25 43.8839V41.4406C53.25 40.9229 52.8302 40.5031 52.3125 40.5031C51.7948 40.5031 51.375 40.9229 51.375 41.4406V43.8839C51.375 44.777 50.9448 45.6254 50.2241 46.153L32.5539 59.0931C32.2228 59.3359 31.7775 59.3358 31.4461 59.0931L13.7759 46.153C13.0553 45.6253 12.625 44.777 12.625 43.8839V14.0983H14.5V43.6614C14.5 44.1584 14.7396 44.6301 15.1409 44.9231L31.0784 56.5649C31.6296 56.9675 32.3704 56.9675 32.9216 56.5649L48.8591 44.9233C49.2604 44.6301 49.5 44.1585 49.5 43.6615V14.0983H51.375V37.0656C51.375 37.5834 51.7948 38.0031 52.3125 38.0031C52.8302 38.0031 53.25 37.5834 53.25 37.0656V14.0983H54.3125C55.5186 14.0983 56.5 13.1169 56.5 11.9108V10.3483H58.375V10.6608C58.375 11.5224 59.0759 12.2233 59.9375 12.2233H62.4375C63.2991 12.2233 64 11.5224 64 10.6608V4.41077C64 3.54914 63.2991 2.84827 62.4375 2.84827ZM3.75 10.3483H1.875V4.72327H3.75V10.3483ZM5.625 8.47327V6.59827H7.625V8.47327H5.625ZM54.625 11.9108C54.625 12.083 54.4847 12.2233 54.3125 12.2233H19.8125C19.2948 12.2233 18.875 12.643 18.875 13.1608C18.875 13.6785 19.2948 14.0983 19.8125 14.0983H47.625V43.5026L32 54.9161L16.375 43.5026V13.1608C16.375 12.643 15.9552 12.2233 15.4375 12.2233H9.8125C9.64025 12.2233 9.5 12.083 9.5 11.9108V6.59827H54.625V11.9108ZM56.5 8.47327V6.59827H58.375V8.47327H56.5ZM62.125 10.3483H60.25V4.72327H62.125V10.3483Z" fill="url(#paint2_linear)"/>
<defs>
<linearGradient id="paint0_linear" x1="18.5625" y1="31.9733" x2="45.4375" y2="31.9733" gradientUnits="userSpaceOnUse">
<stop stop-color="#4E2267"/>
<stop offset="1" stop-color="#9441C4"/>
</linearGradient>
<linearGradient id="paint1_linear" x1="23.9016" y1="32.109" x2="40.0985" y2="32.109" gradientUnits="userSpaceOnUse">
<stop stop-color="#4E2267"/>
<stop offset="1" stop-color="#9441C4"/>
</linearGradient>
<linearGradient id="paint2_linear" x1="2.38419e-07" y1="32" x2="64" y2="32" gradientUnits="userSpaceOnUse">
<stop stop-color="#4E2267"/>
<stop offset="1" stop-color="#9441C4"/>
</linearGradient>
</defs>
</svg>
