<svg width="40" height="32" viewBox="0 0 40 32" fill="none" xmlns="http://www.w3.org/2000/svg">
<path d="M10.1449 1.68759C8.05576 2.55653 6.24395 3.95236 4.45062 5.32971C3.34134 6.18016 2.13963 7.20624 2.01021 8.59283C1.90853 9.73908 2.58334 10.8021 3.27663 11.7265C5.36577 14.4628 7.97257 16.8384 11.0416 18.4099C12.6777 19.2419 14.4156 19.8427 16.0795 20.6285C20.6645 22.7916 25.0647 26.4429 30.0934 25.8328C34.8448 25.2597 38.4869 20.5453 38.5424 15.7661C38.5978 10.987 35.5196 6.49445 31.369 4.10951C27.7269 2.02038 24.1033 1.95567 20.0637 1.73381C16.551 1.53045 13.6576 0.217803 10.1449 1.68759Z" fill="#F3F8F9"/>
<path d="M11.4779 18.3632C11.2509 18.3632 11.189 18.322 11.134 18.2945C11.0583 18.2463 10.9964 18.1775 10.9758 18.095C10.8726 17.7098 11.0514 17.5448 16.2305 15.5983C17.4754 15.1306 18.6515 14.6905 18.9197 14.5391C19.4287 14.0921 20.928 7.81948 21.4232 5.75612C21.7534 4.38743 21.7946 4.22236 21.8359 4.14671C21.9047 4.01603 22.0698 3.961 22.2073 4.02978C22.338 4.09856 22.3861 4.24987 22.3311 4.38055C22.2967 4.48372 22.1385 5.13024 21.9597 5.87993C20.4122 12.352 19.6831 14.7386 19.1879 15.0137C18.8853 15.1788 17.7986 15.5846 16.423 16.1004C15.1781 16.5681 13.328 17.2628 12.2688 17.7236C13.3074 17.5516 15.522 17.0702 20.2402 15.8184C20.7079 15.2888 22.283 9.91723 23.5485 5.06146C23.5898 4.91703 23.7342 4.82761 23.8786 4.86888C24.0231 4.91015 24.1125 5.05458 24.0712 5.19902C24.0643 5.22653 23.3559 7.92265 22.5856 10.6119C20.9762 16.1898 20.6529 16.2724 20.4191 16.3343C14.0158 18.0468 12.1175 18.3632 11.4779 18.3632Z" fill="#329EA1"/>
<path d="M16.3683 12.8062C15.3847 14.2711 14.4081 16.3482 13.6859 17.9508C12.8881 19.7184 12.1934 21.5548 11.8289 23.4668C11.5125 25.1519 11.2374 27.5523 12.1659 29.1067C12.4823 29.6363 13.2664 30.2553 13.8991 29.8907C14.4425 29.5812 14.5732 28.749 14.6351 28.185C15.0615 24.4641 15.1853 16.8022 16.3683 12.8062Z" fill="#777F87"/>
<path d="M20.9078 19.2779C20.5502 19.3604 19.3053 19.4704 17.7303 19.6149C16.3065 19.7456 14.195 19.9381 12.957 20.1101C14.0988 20.2132 16.5541 20.3164 21.8088 20.3164C22.3934 19.9656 25.3716 15.4675 28.1365 11.0038C27.6825 10.7837 27.2286 10.6049 26.7678 10.4604C22.3659 18.0123 21.3411 19.1816 20.9078 19.2779Z" fill="#F3F8F9"/>
<path d="M28.3838 11.1414C28.4663 11.1827 28.542 11.2239 28.6245 11.2652C29.0234 10.6187 29.2779 10.2129 29.2848 10.206C29.3604 10.0753 29.3261 9.91025 29.1954 9.82771C29.0991 9.76581 28.9753 9.77957 28.8859 9.84147L29.0509 10.0547C29.0509 10.0616 28.7965 10.4742 28.3838 11.1414Z" fill="#329EA1"/>
<path d="M27.7097 8.31445L27.8885 8.5483C27.916 8.50703 27.9298 8.47952 27.9435 8.45889C28.0192 8.32821 27.9848 8.16314 27.8541 8.0806C27.7303 8.00495 27.5584 8.03934 27.4758 8.17002C27.4346 8.23879 27.2901 8.49327 27.0632 8.87156C26.7743 9.37364 26.4923 9.85509 26.231 10.309C26.3204 10.3365 26.4098 10.3572 26.4992 10.3847C27.1595 9.26359 27.6272 8.45201 27.7097 8.31445Z" fill="#329EA1"/>
<path d="M20.7835 18.7481C20.4603 18.8238 19.1053 18.9476 17.6747 19.0783C11.746 19.6216 11.519 19.7385 11.519 20.1375C11.519 20.22 11.5534 20.3025 11.6153 20.3713C11.7804 20.5364 12.1243 20.8803 21.8427 20.8803C22.0834 20.8803 22.448 20.8803 25.9419 15.488C26.9736 13.8924 27.9846 12.2898 28.6174 11.2719C28.5349 11.2306 28.4592 11.1894 28.3767 11.1481C26.7053 13.8305 22.4273 20.612 21.8427 20.612C19.965 20.612 11.7873 20.612 11.7873 20.1443C11.7873 19.7592 19.9031 19.2365 20.8385 19.0232C21.4851 18.8788 24.7039 13.4728 26.499 10.3984C26.4096 10.3709 26.3202 10.3434 26.2308 10.3228C22.1247 17.3313 21.0449 18.6312 20.7835 18.7481Z" fill="#329EA1"/>
<path d="M28.8171 9.91692C28.5902 10.2814 28.3632 10.646 28.1362 11.0174C28.2188 11.0586 28.3013 11.093 28.377 11.1412C28.7896 10.4809 29.0441 10.0614 29.0441 10.0614L28.879 9.84814C28.8584 9.8619 28.8309 9.88941 28.8171 9.91692Z" fill="#329EA1"/>
<path d="M26.5063 10.3847C26.5958 10.4122 26.6852 10.4397 26.7746 10.4672C27.0222 10.0477 27.2767 9.60749 27.5449 9.14667C27.7031 8.87156 27.8269 8.66522 27.8957 8.5483L27.7169 8.31445C27.6274 8.45201 27.1597 9.2636 26.5063 10.3847Z" fill="#329EA1"/>
<path d="M21.8086 20.3301C16.5539 20.3301 14.1054 20.22 12.9568 20.1237C14.1948 19.9518 16.2994 19.7592 17.73 19.6285C19.3051 19.4841 20.5499 19.3672 20.9076 19.2915C21.3409 19.1952 22.3657 18.0191 26.7744 10.481C26.685 10.4535 26.5956 10.4259 26.5062 10.3984C24.711 13.466 21.4922 18.8651 20.8457 19.0164C19.9103 19.2296 11.7944 19.7523 11.7944 20.1375C11.7944 20.6052 19.9722 20.6052 21.8499 20.6052C22.4345 20.6052 26.7125 13.8305 28.3838 11.1412C28.3013 11.1 28.2187 11.0587 28.1431 11.0174C25.3644 15.4743 22.3932 19.9724 21.8086 20.3301Z" fill="#329EA1"/>
</svg>
