<svg width="40" height="40" viewBox="0 0 40 40" fill="none" xmlns="http://www.w3.org/2000/svg">
<path fill-rule="evenodd" clip-rule="evenodd" d="M25.8985 20.5697C25.3518 21.843 24.1018 22.4997 22.7152 22.4997H19.3752C15.9152 22.4997 17.5002 21.1063 10.8335 21.1063V14.1664H12.4552C15.4818 14.1664 17.1452 10.608 18.8868 6.82302C19.4602 5.58135 20.8335 4.90968 20.8335 7.50468V12.4997H27.5935C28.3102 12.4997 28.8935 12.973 28.8935 13.6913L25.8985 20.5697V20.5697Z" stroke="black" stroke-linecap="round" stroke-linejoin="round"/>
<path d="M7.01659 23.4457L0.833252 34.1373L7.25159 33.0507L9.47492 39.1673L14.9499 29.974" stroke="black" stroke-linejoin="round"/>
<path d="M32.9834 23.4457L39.1667 34.1373L32.7484 33.0507L30.525 39.1673L25.05 29.974" stroke="black" stroke-linejoin="round"/>
<path fill-rule="evenodd" clip-rule="evenodd" d="M35 15.8333C35 24.1183 28.285 30.8333 20 30.8333C11.715 30.8333 5 24.1183 5 15.8333C5 7.54831 11.715 0.833313 20 0.833313C28.285 0.833313 35 7.54831 35 15.8333V15.8333Z" stroke="black" stroke-linejoin="round"/>
</svg>
