<svg width="70" height="70" viewBox="0 0 70 70" fill="none" xmlns="http://www.w3.org/2000/svg">
<circle cx="35" cy="35" r="35" fill="#2949D1"/>
<g clip-path="url(#clip0)">
<path d="M49.25 48.5H20.75C18.6815 48.5 17 46.817 17 44.75V38.75C17 36.683 18.6815 35 20.75 35H49.25C51.3185 35 53 36.683 53 38.75V44.75C53 46.817 51.3185 48.5 49.25 48.5ZM20.75 36.5C19.5095 36.5 18.5 37.5095 18.5 38.75V44.75C18.5 45.9905 19.5095 47 20.75 47H49.25C50.4905 47 51.5 45.9905 51.5 44.75V38.75C51.5 37.5095 50.4905 36.5 49.25 36.5H20.75Z" fill="white"/>
<path d="M22.25 51.5C21.836 51.5 21.5 51.164 21.5 50.75V47.75C21.5 47.336 21.836 47 22.25 47C22.664 47 23 47.336 23 47.75V50.75C23 51.164 22.664 51.5 22.25 51.5Z" fill="white"/>
<path d="M43.25 36.5C42.836 36.5 42.5 36.164 42.5 35.75V28.25C42.5 27.836 42.836 27.5 43.25 27.5C43.664 27.5 44 27.836 44 28.25V35.75C44 36.164 43.664 36.5 43.25 36.5Z" fill="white"/>
<path d="M47.75 51.5C47.336 51.5 47 51.164 47 50.75V47.75C47 47.336 47.336 47 47.75 47C48.164 47 48.5 47.336 48.5 47.75V50.75C48.5 51.164 48.164 51.5 47.75 51.5Z" fill="white"/>
<path d="M46.25 44C45.0095 44 44 42.9905 44 41.75C44 40.5095 45.0095 39.5 46.25 39.5C47.4905 39.5 48.5 40.5095 48.5 41.75C48.5 42.9905 47.4905 44 46.25 44ZM46.25 41C45.8375 41 45.5 41.336 45.5 41.75C45.5 42.164 45.8375 42.5 46.25 42.5C46.6625 42.5 47 42.164 47 41.75C47 41.336 46.6625 41 46.25 41Z" fill="white"/>
<path d="M23.75 44C22.5095 44 21.5 42.9905 21.5 41.75C21.5 40.5095 22.5095 39.5 23.75 39.5C24.9905 39.5 26 40.5095 26 41.75C26 42.9905 24.9905 44 23.75 44ZM23.75 41C23.3375 41 23 41.336 23 41.75C23 42.164 23.3375 42.5 23.75 42.5C24.1625 42.5 24.5 42.164 24.5 41.75C24.5 41.336 24.1625 41 23.75 41Z" fill="white"/>
<path d="M31.25 44C30.0095 44 29 42.9905 29 41.75C29 40.5095 30.0095 39.5 31.25 39.5C32.4905 39.5 33.5 40.5095 33.5 41.75C33.5 42.9905 32.4905 44 31.25 44ZM31.25 41C30.8375 41 30.5 41.336 30.5 41.75C30.5 42.164 30.8375 42.5 31.25 42.5C31.6625 42.5 32 42.164 32 41.75C32 41.336 31.6625 41 31.25 41Z" fill="white"/>
<path d="M47.09 26.66C46.835 26.66 46.586 26.5295 46.445 26.294C45.7745 25.1705 44.5805 24.5 43.25 24.5C41.9195 24.5 40.7255 25.1705 40.055 26.294C39.8405 26.6495 39.377 26.7635 39.026 26.5535C38.6705 26.3405 38.5535 25.8815 38.765 25.5245C39.7115 23.9435 41.387 23 43.25 23C45.113 23 46.7885 23.9435 47.7335 25.526C47.9465 25.8815 47.828 26.342 47.4725 26.555C47.3525 26.6255 47.2205 26.66 47.09 26.66Z" fill="white"/>
<path d="M50.3149 23.435C50.0929 23.435 49.8724 23.336 49.7239 23.1485C48.1564 21.1475 45.7954 20 43.2499 20C40.7044 20 38.3434 21.1475 36.7759 23.1485C36.5194 23.474 36.0484 23.5295 35.7229 23.276C35.3974 23.021 35.3404 22.5485 35.5954 22.223C37.4494 19.856 40.2394 18.5 43.2499 18.5C46.2604 18.5 49.0504 19.856 50.9059 22.2215C51.1609 22.547 51.1039 23.0195 50.7784 23.2745C50.6404 23.3825 50.4769 23.435 50.3149 23.435Z" fill="white"/>
</g>
<defs>
<clipPath id="clip0">
<rect width="36" height="36" fill="white" transform="translate(17 17)"/>
</clipPath>
</defs>
</svg>
