<svg width="33" height="32" viewBox="0 0 33 32" fill="none" xmlns="http://www.w3.org/2000/svg">
<g clip-path="url(#clip0_7024_60058)">
<path fill-rule="evenodd" clip-rule="evenodd" d="M16.9454 1.00977C20.6967 1.00977 23.7492 4.06264 23.7492 7.81395C23.7492 11.565 20.6962 14.6173 16.9454 14.6173C13.1946 14.6173 10.1415 11.565 10.1415 7.81395C10.1414 4.06258 13.1941 1.00977 16.9454 1.00977ZM17.248 10.2297C17.248 11.1748 18.0181 11.9435 18.962 11.9435C19.9089 11.9435 20.676 11.1748 20.676 10.2297C20.676 9.28489 19.9089 8.5157 18.962 8.5157C18.0181 8.5157 17.248 9.28489 17.248 10.2297ZM19.6602 10.2297C19.6602 9.84527 19.3486 9.53214 18.962 9.53214C18.5784 9.53214 18.2638 9.84527 18.2638 10.2297C18.2638 10.6141 18.5784 10.9273 18.962 10.9273C19.3486 10.9273 19.6602 10.6141 19.6602 10.2297ZM13.9698 11.0568C13.793 11.3001 13.8499 11.6387 14.0927 11.8134C14.3354 11.9887 14.674 11.9336 14.8478 11.6903L19.9269 4.62239C20.1007 4.37995 20.0468 4.04045 19.8041 3.86577C19.5614 3.69045 19.2227 3.74558 19.0459 3.9892L13.9698 11.0568ZM14.9287 7.1112C15.8726 7.1112 16.6427 6.34258 16.6427 5.39752C16.6427 4.4527 15.8726 3.68352 14.9287 3.68352C13.9847 3.68352 13.2147 4.4527 13.2147 5.39752C13.2147 6.34264 13.9848 7.1112 14.9287 7.1112ZM14.9287 4.69995C14.5451 4.69995 14.2305 5.01308 14.2305 5.39752C14.2305 5.78164 14.5451 6.09483 14.9287 6.09483C15.3122 6.09483 15.6269 5.7817 15.6269 5.39752C15.6269 5.01308 15.3122 4.69995 14.9287 4.69995ZM8.54981 29.7052C8.52124 29.8053 8.45774 29.8888 8.36881 29.9393L6.60299 30.9385C6.41881 31.0435 6.18062 30.9781 6.07581 30.7917L0.886306 21.6218C0.781493 21.436 0.845056 21.1988 1.03243 21.093L2.79824 20.0942C2.85535 20.0618 2.91994 20.0448 2.98562 20.045C3.02056 20.045 3.05549 20.0498 3.09043 20.059C3.19206 20.0872 3.27468 20.1514 3.32543 20.241L8.51487 29.4108C8.54008 29.455 8.55616 29.5039 8.56217 29.5544C8.56817 29.605 8.56396 29.6563 8.54981 29.7052ZM31.3119 21.5446C31.8422 21.2193 32.0042 20.2646 31.639 19.6533C31.1086 18.7679 29.7049 18.8724 27.8819 19.9335L22.905 22.8323C21.9459 23.3925 20.9105 23.5738 19.745 23.3871C19.5348 23.3534 19.3252 23.3166 19.1162 23.2766C19.0717 23.2734 15.1939 22.2654 14.7493 22.1456C14.4603 22.0688 14.2888 21.7735 14.3682 21.4866C14.4444 21.1989 14.7398 21.0287 15.0256 21.1055C15.4797 21.2271 18.2301 22.0068 19.2623 22.2076C19.7895 22.2413 20.4024 22.0945 20.6121 21.3183C20.7836 20.6818 20.4088 20.0356 19.7387 19.8034C17.8554 19.4585 16.0356 18.8014 14.5746 18.2723C14.0633 18.0878 13.6219 17.9284 13.2407 17.8045C12.0402 17.4151 10.9001 17.9261 9.84887 18.5362L5.14218 21.2631L8.27362 26.7975L9.55031 26.0606C9.61168 26.0251 9.67947 26.0021 9.74979 25.9929C9.8201 25.9837 9.89154 25.9884 9.95999 26.007L18.2396 28.226C19.3004 28.5096 20.2976 28.3696 21.2091 27.8093L31.3119 21.5446ZM3.21424 21.6993C3.16656 21.3551 2.84581 21.1169 2.49962 21.1668C2.15662 21.2173 1.91843 21.5377 1.96924 21.8816C2.02006 22.2262 2.33768 22.4647 2.68381 22.4142C3.02687 22.3638 3.26506 22.044 3.21424 21.6993Z" fill="white"/>
</g>
<defs>
<clipPath id="clip0_7024_60058">
<rect width="32" height="32" fill="white" transform="translate(0.335938)"/>
</clipPath>
</defs>
</svg>
