<svg width="70" height="70" viewBox="0 0 70 70" fill="none" xmlns="http://www.w3.org/2000/svg">
<circle cx="35" cy="35" r="35" fill="#2949D1"/>
<g clip-path="url(#clip0)">
<path d="M34.7916 46.5988C34.5996 46.5988 34.4076 46.5253 34.2606 46.3798L24.6201 36.7393C24.3381 36.4573 24.3261 36.0058 24.5901 35.7088L31.8156 27.6148C36.8661 21.7063 45.0906 17.8828 52.2621 18.0043C52.6626 18.0133 52.9851 18.3358 52.9941 18.7363C53.1606 25.9123 49.2936 34.1323 43.3701 39.1933L35.2896 46.4083C35.1486 46.5358 34.9686 46.5988 34.7916 46.5988ZM26.1816 36.1798L34.8201 44.8183L42.3846 38.0653C47.7936 33.4423 51.3861 26.0743 51.4971 19.5028C44.9256 19.6123 37.5591 23.2048 32.9451 28.6018L26.1816 36.1798Z" fill="white"/>
<path d="M37.6641 52.0889C37.5921 52.0889 37.5186 52.0784 37.4496 52.0559C37.1796 51.9659 36.9576 51.7589 36.9186 51.4769L35.8896 44.2964C35.8311 43.8869 36.1161 43.5074 36.5256 43.4474C36.9351 43.3829 37.3146 43.6724 37.3746 44.0834L38.1786 49.6934C40.8066 46.5509 42.2676 42.5669 42.2676 38.5049C42.2676 38.0909 42.6036 37.7549 43.0176 37.7549C43.4316 37.7549 43.7676 38.0909 43.7676 38.5049C43.7676 43.4744 41.7546 48.3389 38.2446 51.8474C38.0946 51.9974 37.8756 52.0889 37.6641 52.0889Z" fill="white"/>
<path d="M26.8115 35.1179C26.777 35.1179 26.741 35.1164 26.705 35.1104L19.5245 34.0814C19.2425 34.0409 19.007 33.8444 18.9185 33.5729C18.83 33.3029 18.902 33.0044 19.1045 32.8049C22.664 29.2454 27.527 27.2324 32.4965 27.2324C32.9105 27.2324 33.2465 27.5684 33.2465 27.9824C33.2465 28.3964 32.9105 28.7324 32.4965 28.7324C28.415 28.7324 24.41 30.2069 21.3005 32.8199L26.918 33.6254C27.3275 33.6854 27.6125 34.0634 27.554 34.4744C27.4985 34.8479 27.1775 35.1179 26.8115 35.1179Z" fill="white"/>
<path d="M42.6995 32.0491C41.738 32.0491 40.778 31.6831 40.0475 30.9526C38.5865 29.4901 38.5865 27.1111 40.0475 25.6486C41.51 24.1861 43.889 24.1861 45.3515 25.6486C46.8125 27.1111 46.8125 29.4901 45.3515 30.9526C44.6195 31.6846 43.6595 32.0491 42.6995 32.0491ZM42.6995 26.0521C42.1235 26.0521 41.546 26.2711 41.108 26.7091C40.232 27.5866 40.232 29.0146 41.108 29.8921C41.9855 30.7681 43.4135 30.7666 44.291 29.8921C45.167 29.0146 45.167 27.5866 44.291 26.7091C43.8515 26.2726 43.2755 26.0521 42.6995 26.0521ZM44.8205 30.4231H44.8355H44.8205Z" fill="white"/>
<path d="M17.7501 54.0001C17.5536 54.0001 17.3631 53.9236 17.2191 53.7811C17.0241 53.5861 16.9521 53.2996 17.0316 53.0356C17.2776 52.2151 19.4811 44.9641 21.0861 43.3591C22.8936 41.5516 25.8351 41.5501 27.6426 43.3591C29.4501 45.1666 29.4501 48.1081 27.6426 49.9156C26.0376 51.5206 18.7866 53.7241 17.9661 53.9701C17.8941 53.9896 17.8221 54.0001 17.7501 54.0001ZM24.3651 43.5016C23.5611 43.5016 22.7586 43.8076 22.1466 44.4181C21.2811 45.2851 19.8411 49.1566 18.8901 52.1101C21.8421 51.1591 25.7151 49.7191 26.5806 48.8536C27.8031 47.6311 27.8031 45.6406 26.5806 44.4181C25.9701 43.8076 25.1676 43.5016 24.3651 43.5016Z" fill="white"/>
</g>
<defs>
<clipPath id="clip0">
<rect width="36" height="36" fill="white" transform="translate(17 18)"/>
</clipPath>
</defs>
</svg>
