<svg width="33" height="32" viewBox="0 0 33 32" fill="none" xmlns="http://www.w3.org/2000/svg">
<path fill-rule="evenodd" clip-rule="evenodd" d="M18.7199 0.927741C17.2647 -0.309247 15.079 -0.309247 13.6237 0.927741C13.2792 1.22064 12.8117 1.34109 12.361 1.25309C10.4576 0.881418 8.56455 1.9323 7.94758 3.70318C7.8015 4.12248 7.45925 4.45157 7.02317 4.59203C5.18147 5.18527 4.08855 7.00548 4.47508 8.83571C4.56661 9.26907 4.44134 9.71861 4.13672 10.0499C2.85026 11.4491 2.85026 13.5509 4.13672 14.9501C4.44134 15.2814 4.56661 15.7309 4.47508 16.1643C4.08855 17.9946 5.18147 19.8147 7.02317 20.408C7.45925 20.5484 7.8015 20.8775 7.94758 21.2969C8.56455 23.0677 10.4576 24.1186 12.361 23.7469C12.8117 23.6588 13.2792 23.7794 13.6237 24.0723C15.079 25.3092 17.2647 25.3092 18.7199 24.0723C19.0645 23.7794 19.532 23.6588 19.9828 23.7469C21.8862 24.1186 23.7792 23.0677 24.3961 21.2969C24.5423 20.8775 24.8845 20.5484 25.3205 20.408C27.1622 19.8147 28.2552 17.9946 27.8685 16.1643C27.7771 15.7309 27.9024 15.2814 28.207 14.9501C29.4935 13.5509 29.4935 11.4491 28.207 10.0499C27.9024 9.71861 27.7771 9.26907 27.8685 8.83571C28.2552 7.00548 27.1622 5.18527 25.3205 4.59203C24.8845 4.45157 24.5423 4.12248 24.3961 3.70318C23.7792 1.9323 21.8862 0.881418 19.9828 1.25309C19.532 1.34109 19.0645 1.22064 18.7199 0.927741ZM17.1268 7.89122C16.9295 7.58329 16.589 7.3971 16.2242 7.3971C15.8593 7.3971 15.519 7.58329 15.3215 7.89122L13.941 10.0438L11.469 10.6926C11.1157 10.7857 10.8338 11.0521 10.7208 11.4001C10.6078 11.7467 10.6808 12.1291 10.9111 12.4113L12.5305 14.3919L12.3831 16.9456C12.3617 17.3108 12.5276 17.6617 12.8237 17.8766C13.1184 18.0914 13.5032 18.1401 13.8437 18.0083L16.2242 17.0788L18.6046 18.0083C18.9451 18.1401 19.3299 18.0914 19.6247 17.8766C19.9207 17.6617 20.0867 17.3108 20.0653 16.9456L20.0388 14.0807L21.5373 12.4113C21.7676 12.1291 21.8406 11.7467 21.7276 11.4001C21.6146 11.0521 21.3326 10.7857 20.9793 10.6926L18.5073 10.0438L17.1268 7.89122Z" fill="white"/>
<path d="M19.2214 25.9324C18.5623 26.4864 17.8122 26.8639 17.029 27.0647C17.3015 27.7415 17.5948 28.4094 17.9086 29.0674C17.9398 29.133 17.9713 29.1982 18.0307 29.3218L18.6494 30.6062C18.7397 30.7939 18.8414 31.0054 18.9441 31.1748C19.0481 31.3462 19.2649 31.6725 19.6633 31.8561C20.0407 32.0299 20.468 32.0469 20.8573 31.9036C21.268 31.7522 21.5083 31.4443 21.6246 31.2816C21.7395 31.121 21.8566 30.9182 21.9606 30.7381L22.4972 29.8096C22.7709 29.3361 22.9296 29.0649 23.0663 28.8781C23.1279 28.7941 23.1663 28.7541 23.1865 28.7357C23.1957 28.7271 23.202 28.7228 23.202 28.7228L23.2038 28.7217L23.2058 28.7209C23.2058 28.7209 23.213 28.7188 23.2253 28.7171C23.2518 28.7131 23.3061 28.7088 23.4077 28.7147C23.6332 28.7276 23.9351 28.7781 24.4598 28.8689L26.3939 29.2035C27.5278 29.3996 28.4553 28.2729 28.0918 27.1409L27.9661 26.7493C27.435 25.0955 26.7445 23.5045 25.9064 22C25.7333 22.0915 25.5542 22.1743 25.3695 22.2478C24.416 24.8263 21.8494 26.3644 19.2214 25.9324ZM5.97434 22.2478C5.7897 22.1743 5.61057 22.0915 5.43736 22C4.59932 23.5045 3.90878 25.0955 3.37775 26.7493L3.25197 27.1409C2.88846 28.2729 3.816 29.3996 4.94989 29.2035L6.88404 28.8689C7.40874 28.7781 7.71062 28.7276 7.93616 28.7147C8.03771 28.7088 8.09209 28.7131 8.11853 28.7171C8.13082 28.7188 8.13805 28.7209 8.13805 28.7209L8.14004 28.7217L8.14185 28.7228C8.14185 28.7228 8.14809 28.7271 8.15738 28.7357C8.1774 28.7541 8.21584 28.7941 8.27742 28.8781C8.41415 29.0649 8.57286 29.3361 8.84655 29.8096L9.38327 30.7381C9.48722 30.9182 9.60436 31.121 9.71918 31.2816C9.83553 31.4443 10.0758 31.7522 10.4865 31.9036C10.8757 32.0469 11.3031 32.0299 11.6805 31.8561C12.0789 31.6725 12.2957 31.3462 12.3997 31.1748C12.5023 31.0054 12.6041 30.7939 12.6944 30.6062L13.3131 29.3218C13.3726 29.1982 13.4041 29.133 13.4353 29.0674C13.7488 28.4094 14.0421 27.7415 14.3148 27.0647C13.5316 26.8639 12.7815 26.4864 12.1224 25.9324C9.49439 26.3644 6.92787 24.8263 5.97434 22.2478Z" fill="white"/>
</svg>
