<svg width="32" height="32" viewBox="0 0 32 32" fill="none" xmlns="http://www.w3.org/2000/svg">
<g clip-path="url(#clip0_6953_108381)">
<path d="M31 23.0012C30.7348 23.0012 30.4804 23.1065 30.2929 23.294C30.1054 23.4816 30 23.7359 30 24.0012C30 27.3092 27.308 30.0012 24 30.0012C20.692 30.0012 18 27.3092 18 24.0012C18 20.6931 20.692 18.0011 24 18.0011C25.3652 18.0032 26.6882 18.4739 27.748 19.3345H26.3333C26.0681 19.3345 25.8138 19.4398 25.6262 19.6274C25.4387 19.8149 25.3333 20.0693 25.3333 20.3345C25.3333 20.5997 25.4387 20.8541 25.6262 21.0416C25.8138 21.2291 26.0681 21.3345 26.3333 21.3345H29.6667C29.9319 21.3345 30.1862 21.2291 30.3738 21.0416C30.5613 20.8541 30.6667 20.5997 30.6667 20.3345V17.0011C30.6667 16.7359 30.5613 16.4816 30.3738 16.294C30.1862 16.1065 29.9319 16.0011 29.6667 16.0011C29.4015 16.0011 29.1471 16.1065 28.9596 16.294C28.772 16.4816 28.6667 16.7359 28.6667 17.0011V17.5225C27.31 16.5369 25.6769 16.0045 24 16.0011C19.588 16.0011 16 19.5891 16 24.0012C16 28.4132 19.588 32.0012 24 32.0012C28.412 32.0012 32 28.4132 32 24.0012C32 23.7359 31.8946 23.4816 31.7071 23.294C31.5196 23.1065 31.2652 23.0012 31 23.0012ZM17.92 2.12115L5.81333 8.22781L1 5.89448L12.8933 0.107813C13.16 -0.0255208 13.48 -0.0255208 13.76 0.107813L17.92 2.12115ZM25.6667 5.89448L13.3467 11.9078L8.73333 9.66781L8.06667 9.33448L20.1867 3.22781L20.8533 3.56115L25.6667 5.89448ZM12.36 13.6411L12.3467 26.2945L0.546667 20.2278C0.382828 20.1428 0.245316 20.0147 0.148975 19.8572C0.0526333 19.6998 0.0011216 19.5191 0 19.3345L0 7.62781L5 10.0545V14.3211C5 14.8678 5.45333 15.3211 6 15.3211C6.54667 15.3211 7 14.8678 7 14.3211V11.0411L7.66667 11.3611L12.36 13.6411Z" fill="white"/>
<path d="M26.6794 13.6806C25.8127 13.454 24.906 13.334 23.9994 13.334C19.746 13.334 16.066 15.8406 14.3594 19.454V13.6273L26.666 7.64062C26.6794 9.09396 26.6794 12.334 26.6794 13.6806Z" fill="white"/>
</g>
<defs>
<clipPath id="clip0_6953_108381">
<rect width="32" height="32" fill="white"/>
</clipPath>
</defs>
</svg>
