<svg width="70" height="70" viewBox="0 0 70 70" fill="none" xmlns="http://www.w3.org/2000/svg">
<circle cx="35" cy="35" r="35" fill="#2949D1"/>
<path d="M35 42.7666C35.2912 42.7666 35.5273 42.5305 35.5273 42.2393C35.5273 41.948 35.2912 41.7119 35 41.7119C34.7088 41.7119 34.4727 41.948 34.4727 42.2393C34.4727 42.5305 34.7088 42.7666 35 42.7666Z" fill="white"/>
<path d="M51.0664 20.9023H26.3937C26.1024 20.9023 25.8663 21.1385 25.8663 21.4297C25.8663 21.7209 26.1024 21.957 26.3937 21.957H51.0664C51.5511 21.957 51.9453 22.3513 51.9453 22.8359V39.7367H45.0972C44.8059 39.7367 44.5699 39.9729 44.5699 40.2641C44.5699 40.5553 44.8059 40.7914 45.0972 40.7914H51.9453V42.8829C51.9453 43.3676 51.5511 43.7619 51.0664 43.7619H18.9336C18.4489 43.7619 18.0547 43.3676 18.0547 42.8829V40.7914H42.9879C43.2792 40.7914 43.5152 40.5553 43.5152 40.2641C43.5152 39.9729 43.2792 39.7367 42.9879 39.7367H18.0547V22.8359C18.0547 22.3513 18.4489 21.957 18.9336 21.957H24.2843C24.5755 21.957 24.8116 21.7209 24.8116 21.4297C24.8116 21.1385 24.5755 20.9023 24.2843 20.9023H18.9336C17.8674 20.9023 17 21.7698 17 22.8359V42.8829C17 43.9492 17.8674 44.8165 18.9336 44.8165H30.9361L30.4308 47.5118H28.6527C27.4573 47.5118 26.4849 48.4843 26.4849 49.6796V50.0433H23.9261C23.6348 50.0433 23.3987 50.2794 23.3987 50.5706C23.3987 50.8619 23.6348 51.098 23.9261 51.098H46.0739C46.3652 51.098 46.6012 50.8619 46.6012 50.5706C46.6012 50.2794 46.3652 50.0433 46.0739 50.0433H43.5151V49.6796C43.5151 48.4843 42.5426 47.5118 41.3473 47.5118H39.5691L39.0638 44.8165H51.0664C52.1326 44.8165 53 43.9492 53 42.8829V22.8359C53 21.7698 52.1327 20.9023 51.0664 20.9023ZM42.4605 49.6796V50.0434H27.5395V49.6796C27.5395 49.0659 28.0389 48.5665 28.6526 48.5665H41.3474C41.9611 48.5665 42.4605 49.0658 42.4605 49.6796ZM38.4961 47.5118H31.5039L32.0092 44.8166H37.9907L38.4961 47.5118Z" fill="white"/>
<path d="M42.2653 30.61C42.2653 26.6039 39.0061 23.3447 35.0001 23.3447C30.994 23.3447 27.7347 26.6039 27.7347 30.61C27.7347 34.616 30.9939 37.8753 35 37.8753C39.006 37.8753 42.2653 34.6161 42.2653 30.61ZM28.7894 30.61C28.7894 27.1855 31.5755 24.3994 35.0001 24.3994C38.4246 24.3994 41.2106 27.1855 41.2106 30.61C41.2106 34.0345 38.4246 36.8206 35 36.8206C31.5755 36.8206 28.7894 34.0345 28.7894 30.61Z" fill="white"/>
<path d="M35 34.2049C35.7807 34.2049 36.5232 33.9588 37.1475 33.4932C37.381 33.319 37.4291 32.9886 37.2549 32.7552C37.0808 32.5217 36.7505 32.4736 36.5169 32.6477C36.0762 32.9764 35.5517 33.1502 35 33.1502C33.8175 33.1502 32.8212 32.338 32.5393 31.2422L32.8492 31.552C32.9521 31.655 33.0871 31.7065 33.2221 31.7065C33.357 31.7065 33.492 31.6551 33.5949 31.552C33.8009 31.3461 33.8009 31.0122 33.5949 30.8062L32.347 29.5583C32.141 29.3523 31.8071 29.3523 31.6012 29.5583L30.3532 30.8062C30.1472 31.0122 30.1472 31.3461 30.3532 31.552C30.5591 31.758 30.893 31.758 31.0989 31.552L31.4536 31.1973C31.7351 32.9011 33.2178 34.2049 35 34.2049Z" fill="white"/>
<path d="M33.4596 28.5894C33.905 28.2492 34.4377 28.0694 35 28.0694C36.1825 28.0694 37.1789 28.8816 37.4606 29.9774L37.1507 29.6675C36.9447 29.4615 36.6109 29.4615 36.4049 29.6675C36.199 29.8734 36.199 30.2073 36.4049 30.4133L37.6529 31.6613C37.7518 31.7602 37.8859 31.8157 38.0259 31.8157C38.1657 31.8157 38.2999 31.7602 38.3988 31.6613L39.6468 30.4133C39.8527 30.2073 39.8527 29.8734 39.6468 29.6675C39.4408 29.4615 39.1069 29.4615 38.901 29.6675L38.5463 30.0221C38.2649 28.3185 36.7822 27.0146 35 27.0146C34.2044 27.0146 33.4503 27.2694 32.8194 27.7513C32.588 27.9281 32.5437 28.259 32.7205 28.4905C32.8973 28.722 33.2282 28.7662 33.4596 28.5894Z" fill="white"/>
</svg>
