<svg width="40" height="37" viewBox="0 0 40 37" fill="none" xmlns="http://www.w3.org/2000/svg">
<path fill-rule="evenodd" clip-rule="evenodd" d="M17.5 9.16665C17.5 13.77 13.7684 17.5 9.16671 17.5C4.56337 17.5 0.833374 13.77 0.833374 9.16665C0.833374 4.56331 4.56337 0.833313 9.16671 0.833313C13.7684 0.833313 17.5 4.56331 17.5 9.16665V9.16665Z" stroke="black" stroke-linejoin="round"/>
<path d="M12.5 10.8333H9.16663V5" stroke="black" stroke-linecap="round" stroke-linejoin="round"/>
<path d="M27.5 20.8333H35L39.1667 27.5V32.5H34.855" stroke="black" stroke-linecap="round" stroke-linejoin="round"/>
<path d="M18.1885 32.5H27.5185L27.5001 15.8333H19.1668" stroke="black" stroke-linecap="round" stroke-linejoin="round"/>
<path d="M9.16663 20.8333V32.5H13.4783" stroke="black" stroke-linecap="round" stroke-linejoin="round"/>
<path fill-rule="evenodd" clip-rule="evenodd" d="M35 33.3333C35 34.7133 33.8817 35.8333 32.5 35.8333C31.12 35.8333 30 34.7133 30 33.3333C30 31.9516 31.12 30.8333 32.5 30.8333C33.8817 30.8333 35 31.9516 35 33.3333V33.3333Z" stroke="black" stroke-linecap="round" stroke-linejoin="round"/>
<path fill-rule="evenodd" clip-rule="evenodd" d="M18.3334 33.3333C18.3334 34.7133 17.215 35.8333 15.8334 35.8333C14.4534 35.8333 13.3334 34.7133 13.3334 33.3333C13.3334 31.9516 14.4534 30.8333 15.8334 30.8333C17.215 30.8333 18.3334 31.9516 18.3334 33.3333V33.3333Z" stroke="black" stroke-linecap="round" stroke-linejoin="round"/>
<path d="M0.833374 24.1667L5.83337 24.175" stroke="black" stroke-linecap="round" stroke-linejoin="round"/>
<path d="M3.33337 27.5L5.83337 27.5083" stroke="black" stroke-linecap="round" stroke-linejoin="round"/>
<path d="M5 30.8333L5.83333 30.8416" stroke="black" stroke-linecap="round" stroke-linejoin="round"/>
<path d="M39.1667 27.5H27.5" stroke="black" stroke-linecap="round" stroke-linejoin="round"/>
<path d="M27.5178 32.5H30.1545" stroke="black" stroke-linecap="round" stroke-linejoin="round"/>
</svg>
