<svg width="70" height="70" viewBox="0 0 70 70" fill="none" xmlns="http://www.w3.org/2000/svg">
<circle cx="35" cy="35" r="35" fill="#2949D1"/>
<g clip-path="url(#clip0)">
<path d="M47.3333 51.0003H24.6667C22.0933 51.0003 20 48.907 20 46.3337C20 43.7603 22.0933 41.667 24.6667 41.667H47.3333C49.9067 41.667 52 43.7603 52 46.3337C52 48.907 49.9067 51.0003 47.3333 51.0003ZM24.6667 43.0003C22.828 43.0003 21.3333 44.4963 21.3333 46.3337C21.3333 48.171 22.828 49.667 24.6667 49.667H47.3333C49.172 49.667 50.6667 48.171 50.6667 46.3337C50.6667 44.4963 49.172 43.0003 47.3333 43.0003H24.6667Z" fill="white"/>
<path d="M26 48.333C24.8973 48.333 24 47.4357 24 46.333C24 45.2303 24.8973 44.333 26 44.333C27.1027 44.333 28 45.2303 28 46.333C28 47.4357 27.1027 48.333 26 48.333ZM26 45.6663C25.6333 45.6663 25.3333 45.965 25.3333 46.333C25.3333 46.701 25.6333 46.9997 26 46.9997C26.3667 46.9997 26.6667 46.701 26.6667 46.333C26.6667 45.965 26.3667 45.6663 26 45.6663Z" fill="white"/>
<path d="M32.6667 48.333C31.5641 48.333 30.6667 47.4357 30.6667 46.333C30.6667 45.2303 31.5641 44.333 32.6667 44.333C33.7694 44.333 34.6667 45.2303 34.6667 46.333C34.6667 47.4357 33.7694 48.333 32.6667 48.333ZM32.6667 45.6663C32.3001 45.6663 32.0001 45.965 32.0001 46.333C32.0001 46.701 32.3001 46.9997 32.6667 46.9997C33.0334 46.9997 33.3334 46.701 33.3334 46.333C33.3334 45.965 33.0334 45.6663 32.6667 45.6663Z" fill="white"/>
<path d="M51.1586 45.88C50.8346 45.88 50.5506 45.6427 50.5013 45.312L47.0213 22.032C46.8693 21.0493 46.0373 20.3333 45.04 20.3333H26.9599C25.9626 20.3333 25.1306 21.0493 24.9786 22.0333L21.4986 45.3107C21.4439 45.6747 21.0946 45.9173 20.7413 45.872C20.3786 45.8173 20.1266 45.4787 20.1813 45.1147L23.6613 21.8347C23.9119 20.192 25.2986 19 26.9599 19H45.04C46.7013 19 48.0879 20.192 48.3386 21.8333L51.8186 45.1147C51.8733 45.4787 51.6226 45.8173 51.2586 45.872C51.2253 45.8773 51.1933 45.88 51.1586 45.88Z" fill="white"/>
<path d="M35.9999 39C35.8292 39 35.6586 38.9347 35.5279 38.8053L28.8612 32.1387C28.6719 31.9467 28.6146 31.6613 28.7172 31.412C28.8199 31.1627 29.0639 31 29.3332 31H32.6666V24.3333C32.6666 23.5987 33.2639 23 33.9999 23H37.9999C38.7359 23 39.3332 23.5987 39.3332 24.3333V31H42.6666C42.9359 31 43.1799 31.1627 43.2826 31.412C43.3852 31.6613 43.3279 31.948 43.1386 32.1387L36.4719 38.8053C36.3412 38.9347 36.1706 39 35.9999 39ZM30.9426 32.3333L35.9999 37.3907L41.0572 32.3333H38.6666C38.2986 32.3333 37.9999 32.0347 37.9999 31.6667V24.3333H33.9999V31.6667C33.9999 32.0347 33.7012 32.3333 33.3332 32.3333H30.9426Z" fill="white"/>
</g>
<defs>
<clipPath id="clip0">
<rect width="32" height="32" fill="white" transform="translate(20 19)"/>
</clipPath>
</defs>
</svg>
