<svg width="70" height="70" viewBox="0 0 70 70" fill="none" xmlns="http://www.w3.org/2000/svg">
<circle cx="35" cy="35" r="35" fill="#2949D1"/>
<g clip-path="url(#clip0)">
<path d="M23.441 27.1176C23.682 27.1706 23.9058 27.1664 24.593 26.6385C24.8981 26.4042 25.3493 26.0091 25.7658 25.4584L25.9483 25.216C27.5085 23.141 31.1611 18.2829 36.4369 18.5463C40.7871 18.8638 43.8723 22.1493 45.3555 28.0487C45.4062 28.249 45.4366 28.3725 45.4707 28.4664C45.4979 28.5844 45.5289 28.7057 45.5612 28.8284H47.1633C47.0865 28.5816 47.0129 28.3145 46.9532 28.0584C46.9432 28.0151 46.929 27.973 46.9117 27.9316C46.8975 27.8809 46.8697 27.7715 46.8452 27.6736C46.6101 26.7388 45.9849 24.2549 44.4704 21.9188C42.5139 18.9031 39.8459 17.2525 36.5391 17.0147C36.5339 17.0139 36.5292 17.0139 36.5233 17.0131C30.4283 16.7019 26.4284 22.0221 24.7206 24.2938L24.5411 24.532C24.0736 25.15 23.5211 25.535 23.3307 25.6465C23.2667 25.672 23.2043 25.7065 23.1463 25.7503C22.9072 25.9313 22.7905 26.2401 22.8547 26.5331C22.9194 26.8249 23.1484 27.0534 23.441 27.1176Z" fill="white"/>
<path d="M31.6328 37.8584C29.5114 39.1398 26.8304 40.6697 24.7175 41.5727C24.3274 41.7397 24.1465 42.1905 24.313 42.5807C24.4379 42.8731 24.7215 43.0469 25.0198 43.0469C25.1208 43.0469 25.2232 43.027 25.3217 42.9859C28.3313 41.6982 32.4068 39.2154 34.556 37.8584H31.6328Z" fill="white"/>
<path d="M43.0309 28.8288C43.2161 27.7944 43.1155 26.7902 42.7178 25.959C42.2231 24.9238 41.2994 24.1745 40.0482 23.7904C38.2112 23.2283 35.9851 24.2487 33.9445 26.5855C33.9295 26.6022 32.9651 27.6162 31.5712 28.8286H33.8602C34.6192 28.1101 35.0872 27.6121 35.0975 27.6012C36.3365 26.1822 38.1688 24.8218 39.5981 25.2595C40.4395 25.5175 41.0236 25.9758 41.3327 26.6222C41.6242 27.2316 41.6639 28.0123 41.4641 28.8287H43.0309V28.8288Z" fill="white"/>
<path d="M32.9652 23.8978C33.0252 23.8472 33.0859 23.7972 33.1471 23.7474C33.1629 23.735 33.282 23.6406 33.3125 23.6163C33.8473 23.2068 34.4176 22.8422 35.0173 22.5344C35.5833 22.2428 36.1518 22.0394 36.8412 21.8957C37.0696 21.8484 37.1193 21.8434 37.2903 21.8259C37.7067 21.7826 38.0589 21.5085 38.0589 21.0576C38.0589 20.6714 37.7082 20.2463 37.2903 20.2897C34.5138 20.5769 32.1393 22.3132 30.3087 24.3285C29.9603 24.7132 29.6475 25.1257 29.3103 25.5191C28.869 26.035 28.3868 26.5171 27.8831 26.9714C27.3653 27.4392 26.9462 27.7737 26.3356 28.1248C25.9177 28.3646 25.4931 28.6004 25.0656 28.829H28.0328C29.1029 28.0146 30.0238 27.0646 30.8706 26.0248C31.2148 25.6029 31.5821 25.2001 31.9664 24.8149C32.1757 24.6042 32.3927 24.4011 32.6142 24.2013C32.7293 24.0981 32.8464 23.9976 32.9652 23.8978Z" fill="white"/>
<path d="M24.3304 39.0369C24.8126 38.8714 25.8744 38.4845 27.2521 37.8584H23.4336C23.277 38.0626 23.2249 38.3388 23.3229 38.5964C23.4393 38.9039 23.7314 39.0923 24.0417 39.0923C24.1285 39.0923 24.2173 39.078 24.3035 39.0472L24.3304 39.0369Z" fill="white"/>
<path d="M38.115 27.6478C37.8242 28.0555 37.5178 28.4489 37.2001 28.8286H39.1507C39.2227 28.7323 39.2951 28.6379 39.3655 28.5397C39.6117 28.1936 39.5318 27.715 39.1866 27.4679C38.8416 27.2219 38.3612 27.3017 38.115 27.6478Z" fill="white"/>
<path d="M45.2331 43.6099C44.1685 43.2554 42.8654 42.3277 41.6059 41.4302C39.7811 40.1298 38.2061 39.0083 36.9219 39.2291C35.9575 39.3961 34.2724 40.4725 31.6118 42.226C29.6941 43.49 27.5201 44.9234 26.5747 45.1773C26.165 45.2881 25.9223 45.7099 26.0326 46.1193C26.1249 46.4627 26.4349 46.6884 26.7741 46.6884C26.8401 46.6884 26.9072 46.6797 26.9737 46.6614C28.1592 46.3417 30.2474 44.9653 32.4579 43.509C34.2433 42.3317 36.4653 40.8671 37.1835 40.7433C37.8354 40.6317 39.4321 41.767 40.715 42.6811C42.0668 43.6436 43.4645 44.6394 44.7475 45.0679C45.15 45.2016 45.5845 44.984 45.719 44.5819C45.8525 44.1795 45.6352 43.7444 45.2331 43.6099Z" fill="white"/>
<path d="M43.3099 47.3739C42.6914 47.1499 41.6841 46.5279 40.7107 45.9267C38.6549 44.6561 37.3477 43.8856 36.4103 44.0465C35.4601 44.2112 33.4652 45.567 30.1174 48.0118C29.7072 48.311 29.3535 48.5689 29.1078 48.7431C28.7617 48.988 28.6791 49.4673 28.9234 49.8136C29.0738 50.0253 29.3109 50.1389 29.5517 50.1389C29.7049 50.1389 29.8596 50.093 29.9941 49.9979C30.2493 49.8174 30.6077 49.5551 31.0229 49.2532C32.3553 48.2797 35.8955 45.6954 36.6636 45.5626C37.1428 45.5302 38.8709 46.5961 39.9039 47.2333C40.9917 47.9053 42.0195 48.5408 42.7879 48.8186C43.1864 48.963 43.6273 48.7562 43.7718 48.3569C43.9157 47.958 43.7092 47.518 43.3099 47.3739Z" fill="white"/>
<path d="M40.7158 51.1927C40.2841 50.9114 39.888 50.6276 39.5033 50.3542C38.2441 49.4539 37.155 48.6767 35.9615 48.8853C34.6177 49.1168 32.4773 51.2691 32.0614 51.6976C31.7664 52.0024 31.7745 52.4892 32.0792 52.7847C32.2284 52.9279 32.4207 53.0004 32.6129 53.0004C32.8139 53.0004 33.0145 52.9223 33.165 52.7666C34.1943 51.7043 35.6555 50.4962 36.2226 50.3981C36.783 50.302 37.6311 50.9055 38.6112 51.6048C38.9891 51.8747 39.4169 52.1802 39.8752 52.4793C40.231 52.7108 40.7074 52.611 40.9389 52.2557C41.1701 51.9003 41.0703 51.4249 40.7158 51.1927Z" fill="white"/>
<path d="M45.9839 39.3444C45.4069 39.1663 44.9693 38.9416 44.359 38.5802C44.0033 38.3706 43.6609 38.1272 43.3388 37.8589H41.2374C42.321 39.2597 43.8904 40.3068 45.5755 40.8257C46.5252 41.1179 46.9281 39.6356 45.9839 39.3444Z" fill="white"/>
<path d="M20.8824 29.2651V36.6742H49.1176V29.2651H20.8824ZM47.902 35.4585H22.098V30.4807H47.9019V35.4585H47.902Z" fill="white"/>
<path d="M25.9032 34.1648L26.6919 34.6624L27.1636 33.6384L27.5971 34.6492L28.4505 34.1615L27.7693 33.3097L28.8229 33.4358V32.4939L27.7607 32.6346L28.4385 31.7428L27.6141 31.2759L27.1757 32.2834L26.7303 31.2843L25.8993 31.761L26.5667 32.6277L25.5397 32.4947V33.4374L26.5728 33.3044L25.9032 34.1648Z" fill="white"/>
<path d="M31.1153 34.1648L31.9038 34.6624L32.3759 33.6384L32.8091 34.6492L33.6626 34.1615L32.9818 33.3097L34.0354 33.4358V32.4939L32.9733 32.6346L33.6508 31.7428L32.8266 31.2759L32.3881 32.2834L31.9423 31.2843L31.1111 31.761L31.7785 32.6277L30.7522 32.4947V33.4374L31.7847 33.3044L31.1153 34.1648Z" fill="white"/>
<path d="M36.3272 34.1648L37.1162 34.6624L37.5889 33.6384L38.0217 34.6492L38.8758 34.1615L38.1939 33.3097L39.2478 33.4358V32.4939L38.1847 32.6346L38.863 31.7428L38.0388 31.2759L37.6003 32.2834L37.1543 31.2843L36.324 31.761L36.9909 32.6277L35.9644 32.4947V33.4374L36.9976 33.3044L36.3272 34.1648Z" fill="white"/>
<path d="M41.5404 34.1648L42.3284 34.6624L42.8004 33.6384L43.2334 34.6492L44.0874 34.1615L43.4064 33.3097L44.4602 33.4358V32.4939L43.3981 32.6346L44.0756 31.7428L43.2509 31.2759L42.8124 32.2834L42.3675 31.2843L41.5362 31.761L42.2029 32.6277L41.1768 32.4947V33.4374L42.2096 33.3044L41.5404 34.1648Z" fill="white"/>
</g>
<defs>
<clipPath id="clip0">
<rect width="36" height="36" fill="white" transform="translate(17 17)"/>
</clipPath>
</defs>
</svg>
