<svg width="70" height="70" viewBox="0 0 70 70" fill="none" xmlns="http://www.w3.org/2000/svg">
<circle cx="35" cy="35" r="35" fill="#2949D1"/>
<path d="M36 54.0001C35.9355 54.0001 35.8725 53.9926 35.8095 53.9746C35.661 53.9371 21 49.9201 21 36.2686V24.0001C21 23.6866 21.195 23.4046 21.4905 23.2966L35.7405 18.0466C35.907 17.9851 36.0915 17.9851 36.2595 18.0466L50.5095 23.2966C50.805 23.4046 51 23.6866 51 24.0001V36.2686C51 49.9216 36.339 53.9371 36.1905 53.9761C36.1275 53.9926 36.0645 54.0001 36 54.0001ZM22.5 24.5236V36.2686C22.5 48.0916 34.275 51.9676 36 52.4716C37.725 51.9676 49.5 48.0916 49.5 36.2686V24.5236L36 19.5496L22.5 24.5236Z" fill="white"/>
<path d="M40.695 42H30.522C28.1655 42 26.25 40.0485 26.25 37.65C26.25 35.4465 27.867 33.621 29.9565 33.3375C30.6255 30.54 33.123 28.5 36 28.5C38.2665 28.5 40.356 29.7675 41.4405 31.7625C43.89 32.124 45.75 34.2765 45.75 36.8505C45.75 39.69 43.482 42 40.695 42ZM36 30C33.663 30 31.6545 31.785 31.3275 34.1535C31.2765 34.524 30.9585 34.8 30.585 34.8C28.9935 34.8 27.75 36.078 27.75 37.65C27.75 39.222 28.9935 40.5 30.522 40.5H40.6965C42.657 40.5 44.2515 38.8635 44.2515 36.8505C44.2515 34.917 42.7845 33.321 40.9125 33.2145C40.635 33.1995 40.3875 33.03 40.272 32.7765C39.5025 31.0905 37.8255 30 36 30Z" fill="white"/>
</svg>
