<svg width="25" height="24" viewBox="0 0 25 24" fill="none" xmlns="http://www.w3.org/2000/svg">
<g clip-path="url(#clip0_387_23677)">
<path d="M12.448 24.0098L12.094 23.8528C11.7 23.6798 2.5 19.5248 2.5 12.0008V5.47677C2.50035 4.84894 2.69878 4.23722 3.06704 3.72874C3.4353 3.22025 3.9546 2.84092 4.551 2.64477L12.5 0.00976562L20.449 2.64477C21.0454 2.84092 21.5647 3.22025 21.933 3.72874C22.3012 4.23722 22.4996 4.84894 22.5 5.47677V12.0008C22.5 20.5778 13.212 23.7558 12.816 23.8878L12.448 24.0098ZM12.5 2.10677L5.184 4.53277C4.98495 4.59778 4.81157 4.72412 4.6887 4.89369C4.56584 5.06326 4.49978 5.26736 4.5 5.47677V12.0008C4.5 17.4948 10.94 21.0588 12.547 21.8618C14.151 21.2168 20.5 18.2638 20.5 12.0008V5.47677C20.5002 5.26736 20.4342 5.06326 20.3113 4.89369C20.1884 4.72412 20.0151 4.59778 19.816 4.53277L12.5 2.10677Z" fill="white"/>
<path d="M11.6108 14.5414H11.5778C11.3246 14.5375 11.075 14.4823 10.8438 14.3792C10.6126 14.2761 10.4047 14.1271 10.2328 13.9414L7.92676 11.5414L9.36776 10.1594L11.6118 12.4994L16.7927 7.31836L18.2067 8.73236L12.9458 13.9934C12.7705 14.1685 12.5623 14.307 12.3331 14.4011C12.104 14.4952 11.8585 14.5428 11.6108 14.5414Z" fill="white"/>
</g>
<defs>
<clipPath id="clip0_387_23677">
<rect width="24" height="24" fill="white" transform="translate(0.5)"/>
</clipPath>
</defs>
</svg>
