<svg width="36" height="36" viewBox="0 0 36 36" fill="none" xmlns="http://www.w3.org/2000/svg">
<g clip-path="url(#clip0_873_26614)">
<path d="M17.4437 4C9.89946 4 3.76172 10.1377 3.76172 17.6819C3.76172 25.2261 9.89946 31.3639 17.4435 31.3639C24.9878 31.3639 31.1255 25.2261 31.1255 17.6819C31.1255 10.1377 24.9879 4 17.4437 4ZM16.3432 5.06523H18.4656V7.18767H16.3432V5.06523ZM26.9989 17.6819C26.9989 22.9508 22.7124 27.2372 17.4437 27.2372C12.1749 27.2372 7.88856 22.9507 7.88856 17.6819C7.88856 12.4132 12.1751 8.12673 17.4437 8.12673C22.7124 8.12673 26.9989 12.4132 26.9989 17.6819ZM9.27275 8.01023L10.7735 9.51103L9.27275 11.0118L7.77195 9.51103L9.27275 8.01023ZM6.91012 18.7432H4.78768V16.6207H6.91012V18.7432ZM9.27275 27.3538L7.77195 25.853L9.27275 24.3522L10.7735 25.853L9.27275 27.3538ZM18.4656 30.2987H16.3432V28.1762H18.4656V30.2987ZM25.6146 27.3538L24.1138 25.853L25.6146 24.3522L27.1154 25.853L25.6146 27.3538ZM25.6146 11.0118L24.1138 9.51103L25.6146 8.01023L27.1154 9.51103L25.6146 11.0118ZM27.8987 18.7432V16.6207H30.0211V18.7432H27.8987Z" fill="#000066"/>
<path d="M9.66016 17.682C9.66016 21.9755 13.1531 25.4685 17.4466 25.4685C21.74 25.4685 25.2331 21.9755 25.2331 17.682C25.2331 13.3886 21.74 9.89551 17.4466 9.89551C13.1531 9.89551 9.66016 13.3886 9.66016 17.682ZM21.1698 17.0219C21.5371 17.6193 21.6555 18.1506 21.6555 18.7818C21.6555 20.3418 20.5546 21.1805 19.3031 21.1805C18.4494 21.1805 17.9633 20.7771 17.6981 20.4415L18.1506 22.0448H16.7281L17.1706 20.4783C16.8972 20.8038 16.4185 21.2119 15.5959 21.2119C14.3444 21.2119 13.2375 20.3576 13.2375 18.7975C13.2375 18.1662 13.353 17.6192 13.7201 17.0218C14.2927 16.0902 17.4548 13.4086 17.4548 13.4086C17.4548 13.4086 20.5972 16.0903 21.1698 17.0219Z" fill="#000066"/>
<path d="M27.9664 35.0003C33.0183 35.0003 37.1516 30.8669 37.1516 25.8151C37.1516 20.7632 33.0183 16.6299 27.9664 16.6299C22.9146 16.6299 18.7812 20.7632 18.7812 25.8151C18.7812 30.8669 22.9146 35.0003 27.9664 35.0003Z" fill="white"/>
<path d="M28.0147 32.5022C31.7203 32.5022 34.7521 29.4704 34.7521 25.7648C34.7521 22.0592 31.7203 19.0274 28.0147 19.0274C24.3092 19.0274 21.2773 22.0592 21.2773 25.7648C21.2773 29.4704 24.3092 32.5022 28.0147 32.5022Z" fill="white" stroke="#CB0101" stroke-width="1.86574" stroke-linecap="round" stroke-linejoin="round"/>
<path d="M25.1484 25.7652L27.0551 27.6719L30.8752 23.8585" stroke="#CB0101" stroke-width="1.24383" stroke-linecap="round" stroke-linejoin="round"/>
</g>
<defs>
<clipPath id="clip0_873_26614">
<rect width="36" height="36" fill="white"/>
</clipPath>
</defs>
</svg>
