<svg width="24" height="25" viewBox="0 0 24 25" fill="none" xmlns="http://www.w3.org/2000/svg">
<path d="M22.1618 6.15601C21.3984 6.4937 20.5888 6.71548 19.7598 6.81401C20.6336 6.29144 21.2875 5.46902 21.5998 4.50001C20.7798 4.98801 19.8808 5.33001 18.9438 5.51501C17.6497 4.13033 15.5861 3.7891 13.9151 4.68346C12.2441 5.57782 11.3834 7.48415 11.8178 9.32901C8.45483 9.16045 5.32155 7.572 3.19781 4.95901C2.8261 5.59746 2.63076 6.32323 2.63181 7.06201C2.63181 8.51201 3.36981 9.79301 4.49181 10.543C3.82782 10.5221 3.17844 10.3428 2.59781 10.02V10.072C2.59822 12.063 4.00132 13.7781 5.95281 14.173C5.33642 14.34 4.69011 14.3647 4.06281 14.245C4.60994 15.9492 6.18026 17.1168 7.96981 17.15C6.21775 18.526 3.99055 19.1491 1.77881 18.882C3.69051 20.1114 5.9159 20.7641 8.18881 20.762C15.8818 20.762 20.0888 14.389 20.0888 8.86201C20.0888 8.68201 20.0838 8.50001 20.0758 8.32201C20.8947 7.73017 21.6014 6.99703 22.1628 6.15701L22.1618 6.15601Z" fill="#6E737D"/>
</svg>
