<svg width="24" height="24" viewBox="0 0 24 24" fill="none" xmlns="http://www.w3.org/2000/svg">
<circle cx="12" cy="12" r="12" fill="#1DA1F2"/>
<path d="M16.7789 9.48193C17.2485 9.12048 17.6712 8.68675 18 8.18072C17.5773 8.37349 17.0841 8.51807 16.591 8.56627C17.1076 8.25301 17.4834 7.77108 17.6712 7.16867C17.2016 7.45783 16.6614 7.6747 16.1213 7.79518C15.6517 7.28916 15.0176 7 14.3131 7C12.9511 7 11.8474 8.13253 11.8474 9.53012C11.8474 9.72289 11.8708 9.91566 11.9178 10.1084C9.87476 9.98795 8.04305 8.9759 6.82192 7.45783C6.61057 7.81928 6.49315 8.25301 6.49315 8.73494C6.49315 9.60241 6.91585 10.3735 7.59687 10.8313C7.19765 10.8072 6.79843 10.7108 6.46967 10.5181V10.5422C6.46967 11.7711 7.31507 12.7831 8.44227 13.0241C8.2544 13.0723 8.01957 13.1205 7.80822 13.1205C7.64384 13.1205 7.50294 13.0964 7.33855 13.0723C7.64384 14.0843 8.55969 14.8072 9.63992 14.8313C8.79452 15.506 7.73777 15.9157 6.58708 15.9157C6.37573 15.9157 6.18787 15.8916 6 15.8675C7.08023 16.5904 8.37182 17 9.78082 17C14.3131 17 16.7789 13.1687 16.7789 9.81928C16.7789 9.6988 16.7789 9.60241 16.7789 9.48193Z" fill="white"/>
</svg>
