<svg width="48" height="48" viewBox="0 0 48 48" fill="none" xmlns="http://www.w3.org/2000/svg">
<rect width="48" height="48" rx="24" fill="#1D9FF3"/>
<path d="M33 18.7514C32.2782 19.0751 31.5726 19.2836 30.8954 19.2931C31.6545 18.8249 32.2264 18.1064 32.5124 17.2617C31.6619 17.7452 30.8629 18.0742 30.1465 18.1433C29.6347 17.6088 28.9747 17.2397 28.2514 17.0835C27.528 16.9273 26.7745 16.9912 26.0877 17.267C25.401 17.5427 24.8126 18.0177 24.3981 18.6308C23.9837 19.2439 23.7623 19.967 23.7623 20.707C23.7624 21.0026 23.7974 21.2972 23.8666 21.5846C20.5174 21.3801 17.9916 19.9974 16.1173 17.6856C15.256 19.5924 15.4727 21.2921 17.3253 22.6775C16.7296 22.684 16.1435 22.5266 15.6311 22.2225C15.7015 24.0616 16.6441 25.3143 18.6106 25.8791C18.0754 26.0351 17.5117 26.0671 16.9624 25.9725C17.4892 27.4853 18.6309 28.348 20.4321 28.5159C18.9072 29.7348 17.0992 30.2684 15 30.1018C21.6361 34.2486 31.1744 30.1343 31.1744 20.7057C31.1744 20.6718 31.1744 20.642 31.1744 20.6081C31.8096 20.1937 32.4136 19.5423 33 18.7514Z" fill="white"/>
</svg>
