<svg width="275" height="268" viewBox="0 0 275 268" fill="none" xmlns="http://www.w3.org/2000/svg">
<path fill-rule="evenodd" clip-rule="evenodd" d="M117.83 46.6834C138.154 49.9943 147.553 72.8796 164.59 84.3379C182.513 96.392 208.011 97.245 219.781 115.252C232.812 135.187 237.231 161.472 229.759 184.035C222.295 206.576 199.724 219.254 180.603 233.555C161.07 248.165 142.243 269.577 117.83 267.749C93.596 265.934 81.3991 238.59 61.597 224.645C41.4923 210.486 7.9734 209.033 1.13387 185.568C-5.74031 161.984 20.4488 142.307 31.1422 120.161C40.0098 101.796 42.7475 80.2742 58.3676 67.0343C74.6965 53.1937 96.6168 43.2279 117.83 46.6834Z" fill="#FADBC3"/>
<path d="M40.4306 177.041C36.8688 171.055 33.3001 165.061 29.7383 159.075C26.2922 153.279 22.8802 147.457 19.3865 141.695C16.3355 136.662 13.4751 130.935 9.55231 126.453C9.11644 126.467 8.68058 126.481 8.24471 126.494C8.15618 126.501 8.06764 126.59 7.87695 126.698C8.12894 127.155 8.3673 127.618 8.63291 128.074C12.3446 134.421 16.0494 140.769 19.7679 147.109C24.8621 155.799 29.9903 164.469 35.0572 173.179C38.7825 179.581 42.426 186.024 46.0968 192.453C46.3965 192.984 46.6485 193.42 47.384 193.522C48.1536 193.631 48.9163 193.76 49.6791 193.89C49.1751 190.784 46.7847 187.876 45.2183 185.186C43.6315 182.462 42.0378 179.751 40.4306 177.041Z" fill="#FADBC3"/>
<path d="M14.6113 61.6934C14.2095 66.2359 13.6988 70.7716 13.3582 75.321C12.9632 80.5854 12.7589 85.8635 12.3775 91.1347C12.0847 95.1528 11.7237 99.1642 11.247 103.169C10.7158 107.65 10.0348 112.118 9.38096 116.585C9.05406 118.785 8.63182 120.964 8.23682 123.246C8.65225 123.273 8.96553 123.321 9.27199 123.3C13.0313 113.663 14.8225 102.767 15.6874 92.5445C16.5387 82.2471 16.1028 71.909 14.6113 61.6934Z" fill="#FADBC3"/>
<path d="M59.9074 157.801C58.5453 152.073 57.2105 146.325 56.2025 140.523C55.2014 134.768 54.8268 128.877 53.6623 123.149C53.1583 123.619 52.6543 124.096 52.1436 124.58C55.7667 146.352 59.383 168.091 63.0197 189.925C63.1355 190.395 63.2377 190.872 63.3603 191.342C63.3466 191.499 63.3398 191.648 63.333 191.805C63.5033 192.813 63.6667 193.821 63.837 194.836C64.2116 194.57 64.4772 194.393 64.7223 194.195C65.7575 193.331 66.7927 192.472 67.8279 191.607C66.8404 186.214 65.308 180.84 64.0822 175.521C62.7201 169.603 61.3103 163.698 59.9074 157.801Z" fill="#FADBC3"/>
<path d="M53.9679 118.089C52.8918 111.552 50.4537 105.02 48.6626 98.6322C46.9055 92.3734 45.0939 86.1351 43.3028 79.89C40.0678 68.6324 37.0917 57.4157 34.531 46.0151C33.9521 45.9333 33.3664 45.8857 32.7671 45.9061C38.6308 70.9343 44.5423 95.8263 52.4696 120.269C52.4832 120.269 52.4968 120.262 52.5104 120.262C52.8986 119.921 53.2936 119.588 53.675 119.234C53.7567 119.159 53.8453 119.077 53.927 119.002C53.9951 118.73 54.0223 118.43 53.9679 118.089Z" fill="#FADBC3"/>
<path d="M151.522 12.5354C152.053 13.4003 166.968 5.29596 168.085 4.61492C168.105 4.6013 168.119 4.58768 168.139 4.57406C169.569 6.19493 172.001 7.23011 173.758 8.12908C176.243 9.40263 178.804 10.4855 181.419 11.4457C181.821 10.9282 182.223 10.4174 182.625 9.89978C182.1 9.62056 181.637 9.34134 181.154 9.11659C176.809 7.11434 172.443 5.15294 168.119 3.10302C167.118 2.6331 166.341 2.67396 165.388 3.21198C162.078 5.09846 158.713 6.87597 155.39 8.73521C153.64 9.7159 151.944 10.7851 150.01 11.9361C150.548 12.3243 151.093 12.7057 151.631 13.0939C151.658 12.9168 151.637 12.7261 151.522 12.5354Z" fill="#FADBC3"/>
<path d="M172.443 28.8592C172.463 28.4029 172.239 28.1237 171.932 28.0079C172.034 27.5448 172.13 27.0885 172.198 26.6322C171.994 26.8842 171.796 27.1361 171.592 27.3813C170.877 28.2599 169.753 28.9749 169.433 29.9625C169.092 31.0249 169.494 32.3189 169.549 33.5175C169.964 42.3301 170.427 51.136 170.768 59.9486C171.238 72.0847 171.66 84.2209 172.014 96.357C172.171 101.764 172.355 107.179 172.198 112.593C172.239 112.859 172.273 113.131 172.314 113.397C172.259 113.587 172.198 113.778 172.143 113.969C172.082 115.501 171.994 117.033 171.864 118.559C171.857 118.62 171.864 118.695 171.871 118.763C171.994 118.879 172.137 118.981 172.286 119.07C172.327 119.049 172.375 119.029 172.402 119.002C174.003 117.565 175.576 116.107 177.142 114.636C172.259 86.2708 171.224 57.5854 172.443 28.8592Z" fill="#FADBC3"/>
<path d="M166.817 218.197C167.055 207.389 167.593 196.581 168.397 185.8C169.207 175.019 170.372 164.272 171.673 153.539C172.933 143.112 174.894 132.604 175.419 122.095C175.718 120.856 176.004 119.644 176.317 118.472C176.624 118.288 176.869 118.036 177.046 117.744C175.568 119.078 174.07 120.4 172.524 121.666C172 122.102 171.829 122.545 171.85 123.199C171.877 124.173 171.857 125.167 171.72 126.134C171.087 130.554 170.549 134.988 169.711 139.373C167.668 150.079 166.34 160.887 165.067 171.696C164.951 172.703 164.842 173.711 164.726 174.719C164.549 176.47 164.379 178.227 164.215 179.977C164.147 180.27 164.086 180.569 164.025 180.869C163.705 183.736 163.385 186.61 163.071 189.477C163.058 189.757 163.037 190.043 163.024 190.322C162.983 190.485 162.955 190.649 162.921 190.812C162.71 192.774 162.492 194.735 162.281 196.69C161.335 205.353 160.381 214.009 159.469 222.671C159.21 225.109 158.965 227.541 158.719 229.979C158.726 230.803 158.719 231.627 158.74 232.451C158.733 232.465 158.726 232.471 158.719 232.485C158.597 232.771 158.488 233.064 158.379 233.357C158.106 236.129 157.834 238.907 157.562 241.679C157.282 244.546 157.058 247.42 156.806 250.287C156.812 250.294 156.826 250.294 156.833 250.301C157.03 250.124 157.235 249.947 157.439 249.777C157.664 249.586 157.902 249.409 158.14 249.232C158.181 249.198 158.222 249.171 158.263 249.137C160.626 246.419 162.942 243.654 165.387 241.012C167.287 233.738 166.66 225.184 166.817 218.197Z" fill="#FADBC3"/>
<path d="M168.357 63.8304C168.364 69.6192 168.534 75.408 168.875 81.1901C168.712 75.4012 168.541 69.6192 168.357 63.8304Z" fill="#FADBC3"/>
<path d="M114.472 242.74C114.908 237.489 113.893 231.857 113.478 226.606C113.056 221.226 112.634 215.852 112.211 210.472C111.387 199.937 110.563 189.408 109.732 178.872C108.091 157.971 106.818 136.825 103.501 116.107C103.48 115.985 103.44 115.876 103.378 115.794L103.371 115.787C103.324 115.719 103.269 115.678 103.208 115.631C103.154 115.631 103.099 115.631 103.051 115.624C103.051 115.828 103.045 116.039 103.051 116.244C103.555 125.492 104.073 134.734 104.57 143.982C105.449 160.354 106.32 176.727 107.199 193.099C108.003 208.163 108.854 223.228 109.569 238.3C109.664 240.363 110.277 241.698 111.918 243.046C112.47 243.503 113.008 243.966 113.553 244.429C114.05 244.034 114.411 243.462 114.472 242.74Z" fill="#FADBC3"/>
<path d="M77.9148 155.58C80.6594 162.867 83.4585 170.148 86.387 177.36C92.0941 191.41 98.7615 205.105 105.599 218.638C105.613 218.665 105.633 218.685 105.647 218.719C105.599 217.78 105.558 216.833 105.551 215.886C105.524 213.23 105.279 210.676 103.597 208.47C103.433 208.259 103.345 207.986 103.215 207.748C96.6911 195.299 91.0112 182.461 85.8081 169.405C81.32 158.134 76.5459 146.965 72.9705 135.353C72.8956 135.108 72.7662 134.877 72.5142 134.298C72.3644 135.108 72.2622 135.571 72.1941 136.035C72.126 136.47 72.0647 136.906 72.0034 137.335C72.2145 137.921 72.4393 138.486 72.6027 138.99C73.5153 144.684 75.9194 150.261 77.9148 155.58Z" fill="#FADBC3"/>
<path d="M265.105 124.526C262.163 125.105 258.724 125.425 256.095 126.896C255.945 126.978 255.822 127.08 255.72 127.189C255.999 127.897 256.279 128.598 256.565 129.307C261.972 128.34 267.189 127.366 272.48 125.336C271.248 120.467 270.042 115.7 268.823 110.871C268.585 110.898 268.347 110.919 268.108 110.946C268.278 115.046 269 119.718 270.226 123.749C268.537 123.64 266.699 124.213 265.105 124.526Z" fill="#FADBC3"/>
<path d="M203.538 214.082C203.811 213.898 204.083 213.707 204.349 213.516C205.261 213.087 206.126 212.583 206.848 211.923C206.964 211.814 207.039 211.684 207.087 211.541C209.899 209.471 212.651 207.312 215.409 205.221C221.593 200.522 227.749 195.789 233.899 191.049C233.967 190.995 234.035 190.94 234.097 190.879C233.402 190.906 232.707 190.933 232.013 190.96C231.352 190.981 230.903 191.253 230.426 191.642C228.819 192.949 227.232 194.277 225.563 195.503C216.921 201.864 208.258 208.191 199.602 214.531C198.417 215.396 197.239 216.268 196.061 217.133C196.095 217.201 196.135 217.269 196.17 217.337C196.319 217.31 196.483 217.303 196.626 217.255C198.076 216.738 199.527 216.254 200.984 215.764C201.618 215.355 202.244 214.947 202.864 214.524C203.109 214.395 203.334 214.245 203.538 214.082Z" fill="#FADBC3"/>
<path d="M240.335 178.519C242.46 173.39 244.557 168.242 246.6 163.079C248.643 157.91 250.612 152.707 252.457 147.463C254.235 142.417 256.448 137.125 257.265 131.813C256.884 131.901 256.503 131.983 256.121 132.072C249.549 151.352 241.581 169.999 232.332 188.326C232.319 188.38 232.305 188.441 232.298 188.496C232.278 188.509 232.251 188.53 232.23 188.543C232.169 188.666 232.115 188.782 232.053 188.904C232.918 188.904 233.552 188.938 234.171 188.898C234.696 188.864 235.227 188.795 235.751 188.727C236.48 187.542 236.964 186.201 237.59 184.818C238.53 182.721 239.463 180.63 240.335 178.519Z" fill="#FADBC3"/>
<path d="M201.477 148.886C204.514 147.368 207.381 145.052 210.085 143.295C214.423 140.476 218.761 137.663 223.072 134.803C231.51 129.211 239.949 123.613 248.38 118.022C248.816 117.736 249 117.32 249.013 116.912C248.571 115.829 248.114 114.732 247.638 113.554C235.059 122.455 222.568 131.295 210.065 140.135C209.452 140.612 208.832 141.075 208.219 141.552C208.185 141.579 208.171 141.606 208.151 141.633C207.545 142.022 206.925 142.41 206.292 142.805C203.302 144.916 200.319 147.034 197.329 149.145C197.574 149.554 197.847 150.01 198.133 150.46C198.14 150.473 198.146 150.48 198.153 150.494C199.29 150.099 200.646 149.717 201.463 148.9C201.47 148.893 201.477 148.886 201.477 148.886Z" fill="#FADBC3"/>
<path d="M220.156 97.2628C223.153 92.1277 226.04 86.9314 228.805 81.6738C231.618 76.3276 234.873 71.1653 237.598 65.7851C237.761 65.4718 237.788 65.1381 237.747 64.8249C237.618 64.9202 237.489 65.0155 237.359 65.1109C237.019 65.3697 236.637 65.6217 236.406 65.969C234.88 68.2233 233.334 70.4639 231.897 72.7726C230.229 75.4559 228.642 78.1869 227.055 80.9178C218.433 95.7441 209.818 110.577 201.23 125.417C200.89 126.003 200.753 126.738 200.644 127.419C200.597 127.712 200.549 128.012 200.501 128.305C203.948 123.558 206.944 118.429 210.118 113.512C213.571 108.166 216.955 102.752 220.156 97.2628Z" fill="#FADBC3"/>
<path d="M258.362 52.9274C258.185 52.1715 258.008 51.4019 257.824 50.6187C243.904 77.3291 230.515 104.039 217.793 131.274C218.147 131.07 218.379 130.947 218.59 130.804C226.279 116.959 232.762 102.466 239.722 88.2393C245.566 76.2871 251.906 64.5732 258.362 52.9274Z" fill="#FADBC3"/>
<path d="M107.375 88.0144C107.518 88.3957 107.743 88.6818 108.002 88.9065C108.206 88.4843 108.411 88.0688 108.608 87.6466C108.785 87.2788 108.717 86.6863 108.554 86.2845C107.518 83.7102 106.422 81.1631 105.339 78.6092C101.75 70.1439 98.2427 61.6513 95.3687 52.9068C92.0725 42.8751 88.2723 33.0341 84.009 23.3701C83.7775 22.8457 83.5187 22.3349 83.11 21.4632C83.0351 21.7629 82.9466 22.0625 82.8444 22.3485C82.6401 23.1454 82.4426 23.9422 82.2451 24.739C85.5073 33.5789 89.5799 42.1191 93.0192 50.8977C97.8613 63.2518 102.629 75.6331 107.375 88.0144Z" fill="#FADBC3"/>
<path d="M109.998 83.5756C110.053 83.7186 110.168 83.8412 110.366 84.1477C106.893 75.6892 103.467 67.2034 99.9868 58.7449C103.201 67.0672 106.654 75.301 109.998 83.5756Z" fill="#FADBC3"/>
<path d="M274.769 124.73C273.822 120.759 272.882 116.789 271.915 112.825C271.67 111.824 271.377 110.823 270.996 109.869C270.437 108.48 269.811 108.174 268.313 108.364C267.339 108.487 266.372 108.644 265.398 108.746C261.884 109.134 258.363 109.509 254.842 109.869C254.338 109.924 253.82 109.876 253.255 109.876C253.316 109.502 253.316 109.338 253.371 109.195C255.788 102.719 258.186 96.2351 260.637 89.772C262.217 85.5972 263.852 81.4429 265.507 77.2953C266.099 75.8107 266.317 74.3873 265.582 72.8822C265.343 72.4055 265.262 71.847 265.139 71.3158C264.145 66.855 263.123 62.3942 262.19 57.9198C261.407 54.1741 260.324 50.5441 258.601 47.1117C258.165 46.2399 257.62 45.9267 256.789 46.2399C256.34 46.4102 255.904 46.6758 255.523 46.9687C253.718 48.3716 251.886 49.7405 250.163 51.2388C245.191 55.5634 240.261 59.9356 235.323 64.3011C234.914 64.6621 234.513 65.0502 234.22 65.4929C232.17 68.5712 230.018 71.595 228.138 74.7755C223.65 82.3691 219.291 90.0376 214.899 97.6857C210.669 105.048 206.461 112.43 202.238 119.799C202.136 119.983 201.945 120.119 201.618 120.466C201.68 119.867 201.7 119.54 201.755 119.227C203.212 110.741 204.418 102.228 205.099 93.6471C205.425 89.5268 205.623 85.3725 204.887 81.2658C204.418 78.6438 203.75 76.0558 203.089 73.4747C201.53 67.359 199.712 61.2977 198.397 55.1275C196.191 44.7893 193.473 34.5942 190.381 24.4944C189.074 20.231 187.78 15.9609 186.629 11.65C186.104 9.67494 185.485 8.11536 183.367 7.19596C178.531 5.09836 173.805 2.73515 169.038 0.474097C167.485 -0.261426 166.034 -0.111596 164.522 0.719272C161.233 2.53765 157.875 4.213 154.586 6.02457C152.774 7.01889 151.004 8.10855 149.308 9.28675C148.388 9.92693 147.449 10.7169 146.89 11.6568C145.371 14.2311 144.037 16.9144 142.654 19.5704C142.102 20.6329 141.667 21.7498 141.101 22.7986C138.929 26.8235 136.606 30.7667 134.57 34.853C130.995 42.0107 127.59 49.2569 124.103 56.4623C123.851 56.9799 123.565 57.4839 123.17 58.2262C122.904 57.6542 122.734 57.3341 122.604 57.0004C120.432 51.3069 118.348 45.5725 116.066 39.9199C114.806 36.8007 113.24 33.8042 111.789 30.7599C111.006 29.1186 109.733 27.9608 108.098 27.2049C106.613 26.5238 105.136 25.8156 103.61 25.2435C97.5012 22.9348 91.3718 20.6873 85.4604 17.8815C85.1676 17.7384 84.8611 17.6227 84.5478 17.5273C82.4979 16.8871 81.8169 17.2958 81.2652 19.3593C79.4468 26.197 77.6557 33.0414 75.7624 39.8586C74.7477 43.5294 73.5627 47.1525 72.4458 50.7961C72.1802 51.661 72.0848 52.4919 72.5479 53.3228C73.1064 54.3171 73.6171 55.3454 74.2028 56.3193C78.0848 62.7551 81.8782 69.2455 85.8895 75.5996C90.3367 82.6415 94.6408 89.7856 99.7146 96.4121C100.668 97.6652 101.567 98.9592 102.534 100.28C102.071 101.166 101.615 102.031 101.172 102.896C100.654 103.91 100.144 104.939 99.6328 105.96C99.2719 106.682 99.1629 107.356 99.7282 108.092C99.987 108.432 100.028 108.998 100.048 109.468C100.171 113.002 100.205 116.544 100.382 120.078C100.859 129.49 101.397 138.895 101.901 148.307C101.928 148.825 101.908 149.349 101.908 149.935C94.239 144.173 86.6931 138.507 79.2561 132.916C79.2561 131.792 79.2766 130.757 79.2493 129.729C79.188 126.95 79.1063 124.178 79.0314 121.399C78.8952 116.278 78.8067 111.163 78.6092 106.042C78.507 103.331 78.5683 100.539 77.9213 97.9445C77.2743 95.3497 75.8237 92.9524 74.7272 90.4667C74.6387 90.2691 74.5434 90.0716 74.448 89.8741C69.994 80.1761 65.5468 70.4781 60.4663 61.0798C58.6275 57.6882 57.0407 54.1536 55.3789 50.6667C54.7728 49.4 53.9079 48.5623 52.5049 48.249C51.5515 48.0379 50.6253 47.6974 49.6922 47.4181C46.1985 46.3762 42.732 45.2456 39.211 44.333C37.5493 43.904 35.7854 43.8767 34.0624 43.6656C33.7968 43.6316 33.5107 43.6384 33.2724 43.5362C32.5777 43.2161 31.9716 43.4272 31.4404 43.8427C30.4529 44.6054 29.4654 45.3818 28.5392 46.2195C24.5347 49.8358 20.3803 53.2683 15.9672 56.3874C15.1295 56.9867 14.3463 57.6678 13.5699 58.3488C12.8412 58.9822 12.4462 59.7994 12.3577 60.7665C11.8197 66.5145 11.2067 72.2556 10.7572 78.0104C10.2465 84.5757 10.0694 91.1749 9.40196 97.7265C8.5098 106.498 7.35885 115.243 6.11935 123.974C5.91504 125.431 6.03082 126.664 6.59608 127.876C7.99902 130.886 9.46326 133.862 10.982 136.818C15.5926 145.781 20.5914 154.525 25.7333 163.188C31.3995 172.743 37.0385 182.318 42.7048 191.867C43.2837 192.847 43.9783 193.76 44.7002 194.652C44.9863 195.013 45.4357 195.34 45.8716 195.462C48.3914 196.144 50.9045 196.879 53.4652 197.349C55.7535 197.771 58.1031 198.05 60.4322 198.084C63.0134 198.119 65.5128 197.526 67.5491 195.742C69.3947 194.128 71.2335 192.514 73.0587 190.886C74.3186 189.769 75.4968 188.543 76.8248 187.515C77.7238 186.82 78.2142 186.016 78.3231 184.934C78.4049 184.082 78.4525 183.224 78.5138 182.366C78.6228 182.325 78.7318 182.291 78.8407 182.25C79.1131 182.707 79.4128 183.149 79.6648 183.612C81.1426 186.343 82.566 189.102 84.0847 191.805C90.8474 203.805 97.6374 215.792 104.434 227.778C104.7 228.248 104.965 228.833 105.394 229.065C106.355 229.589 106.355 230.42 106.402 231.299C106.579 234.398 106.763 237.496 106.947 240.595C107.022 241.828 107.165 243.006 108.663 243.38C108.895 243.435 109.058 243.741 109.263 243.925C114.629 248.713 119.996 253.494 125.363 258.282C126.166 258.997 126.97 259.596 128.128 258.929C128.42 258.765 128.877 258.888 129.251 258.874C130.668 258.833 132.084 258.847 133.494 258.731C137.996 258.37 142.504 258.002 146.999 257.56C149.485 257.314 151.957 256.879 154.443 256.586C155.396 256.477 155.88 255.973 156.18 255.115C156.357 254.618 156.588 254.1 156.935 253.719C159.98 250.375 163.004 247.01 166.123 243.741C171.503 238.102 176.944 232.531 182.359 226.933C182.624 226.661 182.876 226.368 183.19 226.157C184.667 225.149 186.152 224.148 187.657 223.174C188.291 222.765 188.951 222.35 189.653 222.084C191.328 221.444 193.024 220.831 194.733 220.307C202.579 217.882 210.438 215.485 218.297 213.095C220.163 212.529 222.111 212.121 223.201 210.227C223.255 210.139 223.357 210.078 223.446 210.009C225.938 207.98 228.417 205.944 230.924 203.928C235.97 199.862 241.051 195.837 246.07 191.744C246.853 191.111 247.664 190.314 248.038 189.415C250.088 184.552 251.954 179.615 253.99 174.738C257.43 166.505 260.869 158.264 264.465 150.092C267.666 142.818 271.071 135.64 273.781 128.155C273.856 127.951 273.918 127.679 274.074 127.59C275.341 126.889 275.021 125.806 274.769 124.73ZM268.108 110.946C268.347 110.918 268.585 110.898 268.823 110.871C270.042 115.699 271.248 120.466 272.481 125.336C267.189 127.365 261.972 128.339 256.565 129.306C256.285 128.598 255.999 127.897 255.72 127.188C253.82 122.428 251.934 117.695 250.02 112.893C256.04 112.239 261.999 111.599 268.108 110.946ZM230.372 187.297C230.174 187.678 229.929 188.032 229.596 188.591C228.499 187.869 227.505 187.297 226.606 186.609C220.647 182.066 215.144 177.061 211.064 170.679C207.816 165.592 204.567 160.498 201.312 155.411C200.263 153.769 199.208 152.135 198.159 150.493C198.152 150.48 198.145 150.473 198.138 150.459C197.852 150.01 197.58 149.547 197.335 149.145C200.324 147.027 203.314 144.916 206.297 142.805C207.55 141.919 208.81 141.027 210.063 140.142C222.567 131.295 235.057 122.462 247.636 113.561C248.12 114.739 248.576 115.835 249.012 116.918C249.23 117.456 249.448 117.994 249.659 118.532C251.157 122.326 252.642 126.126 254.106 129.933C254.242 130.294 254.276 130.798 254.14 131.152C250.388 141.013 246.71 150.909 242.815 160.709C239.198 169.808 234.853 178.586 230.372 187.297ZM263.457 73.2704C263.756 74.3873 263.77 75.3612 263.355 76.4304C260.93 82.6143 258.512 88.7981 256.149 95.0024C254.501 99.327 252.935 103.679 251.341 108.024C251.116 108.63 250.946 109.257 250.715 109.999C249.496 109.72 248.542 110.373 247.555 110.932C242.944 113.533 238.667 116.625 234.383 119.717C229.173 123.477 223.875 127.113 218.61 130.798C218.604 130.798 218.604 130.805 218.597 130.805C218.386 130.948 218.154 131.07 217.8 131.275C230.522 104.04 243.911 77.3294 257.831 50.619C258.015 51.409 258.192 52.1718 258.369 52.9277C258.724 54.4737 259.071 55.9652 259.439 57.4498C260.746 62.7279 262.054 68.0128 263.457 73.2704ZM252.901 52.1514C253.364 51.7291 253.841 51.3273 254.317 50.9119C254.392 50.9664 254.467 51.0277 254.535 51.0821C254.304 51.6065 254.099 52.1446 253.841 52.6553C247.248 65.67 240.547 78.6302 234.09 91.7129C227.947 104.156 221.975 116.693 216.104 129.272C214.579 132.534 212.651 135.095 209.621 137.131C205.698 139.767 202.109 142.893 198.37 145.808C198.213 145.93 198.029 146.026 197.675 146.244C197.743 145.638 197.764 145.229 197.832 144.827C198.717 139.318 199.603 133.815 200.508 128.312C200.556 128.019 200.604 127.719 200.651 127.427C200.767 126.746 200.903 126.01 201.237 125.424C209.825 110.578 218.44 95.7515 227.062 80.9253C228.649 78.1943 230.236 75.4633 231.904 72.7801C233.341 70.4713 234.887 68.2307 236.413 65.9765C236.644 65.6359 237.026 65.3772 237.366 65.1184C237.496 65.023 237.625 64.9277 237.754 64.8323C239.941 63.2046 242.188 61.6519 244.265 59.9016C247.221 57.409 250.027 54.7393 252.901 52.1514ZM187.787 25.2026C190.068 33.2049 192.438 41.1866 194.563 49.2365C196.204 55.4408 197.478 61.7404 199.017 67.9719C199.834 71.2954 200.897 74.5644 201.782 77.8742C202.443 80.3396 203.001 82.8322 203.553 85.1069C200.175 89.1522 196.878 92.9797 193.705 96.9229C188.617 103.25 183.033 109.086 177.149 114.637C175.589 116.108 174.009 117.565 172.409 119.002C172.375 119.029 172.334 119.05 172.293 119.07C172.198 119.125 172.082 119.172 171.918 119.247C171.905 119.05 171.884 118.9 171.877 118.764C171.871 118.696 171.864 118.628 171.871 118.56C172 117.027 172.089 115.495 172.15 113.969C172.17 113.513 172.191 113.05 172.204 112.594C172.361 107.179 172.177 101.772 172.02 96.3576C171.666 84.2215 171.244 72.0854 170.774 59.9493C170.434 51.1366 169.971 42.324 169.555 33.5181C169.501 32.3195 169.099 31.0255 169.439 29.9631C169.753 28.9756 170.883 28.2673 171.598 27.382C171.803 27.13 172 26.878 172.204 26.6328C175.971 21.9745 179.723 17.2958 183.482 12.6306C183.605 12.474 183.775 12.3582 184.089 12.0654C184.327 13.0597 184.497 13.8906 184.736 14.7078C185.743 18.2084 186.792 21.6953 187.787 25.2026ZM150.003 11.9428C151.937 10.7918 153.632 9.72261 155.383 8.74191C158.706 6.88268 162.071 5.09835 165.38 3.21868C166.334 2.67385 167.117 2.63299 168.111 3.10972C172.436 5.15284 176.801 7.12104 181.146 9.12329C181.63 9.34804 182.093 9.62726 182.617 9.90649C182.216 10.4241 181.814 10.9349 181.412 11.4525C177.285 16.7578 173.178 21.9813 168.758 27.1232C163.712 21.5999 157.712 17.4388 151.617 13.1074C151.079 12.7124 150.541 12.331 150.003 11.9428ZM86.8157 21.1777C90.5274 22.7373 94.2254 24.3105 97.9439 25.8496C100.709 26.9938 103.488 28.1039 106.266 29.214C107.805 29.8269 108.895 30.8348 109.569 32.3944C112.232 38.5306 114.97 44.6395 117.66 50.7689C118.995 53.8063 120.248 56.8846 121.624 59.9016C121.951 60.6167 121.807 61.1275 121.508 61.7336C118.45 67.9311 115.413 74.1421 112.355 80.3396C111.735 81.5927 111.074 82.8186 110.373 84.167C110.373 84.1602 110.366 84.1602 110.366 84.1534C110.169 83.8469 110.06 83.7244 109.998 83.5813C106.654 75.3067 103.208 67.0729 99.987 58.7506C99.6533 57.8925 99.3128 57.0344 98.9859 56.1695C95.4376 46.812 92.2436 37.3183 88.8588 27.8995C88.1437 25.9041 87.2515 23.97 86.4479 22.0086C86.3321 21.7225 86.2368 21.4229 86.0665 20.9461C86.4547 21.0619 86.6386 21.1028 86.8157 21.1777ZM88.6749 75.225C83.8804 67.645 79.7533 59.6496 74.3799 52.3897C77.9145 43.5771 79.9031 34.2605 82.2595 24.7395C82.457 23.9427 82.6545 23.1459 82.8588 22.3491C82.9406 22.0358 83.0155 21.7225 83.0972 21.4092C83.104 21.4297 83.1108 21.4433 83.1245 21.4637C83.5399 22.3355 83.7987 22.8531 84.0234 23.3706C88.2867 33.0346 92.0869 42.8756 95.3832 52.9073C98.2571 61.6519 101.764 70.1444 105.354 78.6097C106.436 81.1636 107.526 83.7107 108.568 86.2851C108.732 86.6869 108.8 87.2794 108.623 87.6471C108.425 88.0694 108.214 88.4848 108.016 88.9071C106.579 91.9241 105.108 94.9206 103.637 97.9172C103.596 98.0058 103.488 98.067 103.344 98.1964C98.3865 90.4462 93.4967 82.8526 88.6749 75.225ZM102.629 105.988C106.736 97.8832 110.795 89.7447 114.956 81.6676C122.843 66.3783 130.307 50.8846 137.587 35.2956C139.358 31.5022 141.401 27.8315 143.274 24.0857C144.663 21.3139 145.991 18.508 147.346 15.7226C147.605 15.1845 147.85 14.6465 148.205 13.8906C154.865 19.012 161.832 23.5477 167.607 29.7179C167.526 31.8768 167.301 34.1651 167.369 36.4398C167.56 43.0254 167.893 49.6043 168.111 56.1899C168.193 58.737 168.268 61.2841 168.35 63.8312C168.534 69.6132 168.704 75.402 168.867 81.1909C168.942 83.9627 169.031 86.7346 169.099 89.5132C169.296 97.352 169.371 105.191 169.48 113.036C169.514 115.59 169.487 118.137 169.487 120.596C152.979 127.842 136.845 135.32 119.928 141.041C117.905 135.688 115.29 130.927 112.586 126.201C109.828 121.386 107.138 116.53 104.455 111.674C103.774 110.435 103.249 109.114 102.609 107.854C102.275 107.2 102.316 106.607 102.629 105.988ZM96.071 148.764C97.9575 150.235 99.6737 151.917 101.485 153.476C102.071 153.98 102.234 154.6 102.275 155.349C102.888 166.825 103.522 178.293 104.148 189.769C104.386 194.066 104.618 198.357 104.843 202.654C104.884 203.397 104.85 204.153 104.85 204.895C104.741 204.915 104.632 204.936 104.523 204.963C93.0404 181.188 83.4718 156.602 73.8351 131.758C74.1892 131.922 74.3663 131.969 74.4957 132.071C81.6875 137.635 88.9065 143.165 96.071 148.764ZM51.4902 50.7076C52.6343 51.0277 53.3017 51.6065 53.7785 52.7371C55.4334 56.6462 57.1428 60.5281 58.9748 64.3556C62.9248 72.603 66.9498 80.8095 70.9679 89.016C72.473 92.0875 74.0598 95.125 75.6943 98.3463C73.1064 100.955 70.5048 103.726 67.7398 106.328C63.1836 110.612 58.5321 114.787 53.9147 119.009C53.833 119.084 53.7444 119.166 53.6627 119.241C53.2813 119.595 52.8795 119.928 52.4981 120.269C52.4845 120.276 52.4777 120.289 52.4641 120.296C52.4641 120.289 52.4573 120.283 52.4573 120.276C44.53 95.8332 38.6185 70.9412 32.7548 45.913C33.3541 45.8926 33.9398 45.9403 34.5187 46.022C35.3836 46.1378 36.2281 46.3353 37.059 46.5737C41.8807 47.9221 46.6752 49.3591 51.4902 50.7076ZM15.6675 59.9356C17.7719 58.2943 19.9308 56.728 21.9808 55.0185C24.9909 52.5055 27.9194 49.9039 30.8819 47.3432C31.0726 47.173 31.2838 47.03 31.6447 46.7507C31.8218 48.392 31.8694 49.8563 32.1487 51.2796C33.6333 58.8051 35.1316 66.3306 36.7116 73.8357C39.6197 87.6471 43.9851 101.064 47.7921 114.63C48.3506 116.619 48.909 118.614 49.4471 120.609C49.5833 121.12 49.6514 121.651 49.7467 122.149C47.0702 123.906 44.278 124.75 41.2065 124.9C36.3984 125.145 31.6311 124.757 26.8706 124.164C21.0273 123.443 15.1772 122.932 9.27938 123.306C9.27257 123.306 9.26576 123.306 9.26576 123.306C8.95929 123.327 8.64601 123.272 8.23058 123.252C8.62558 120.97 9.05463 118.784 9.37472 116.591C10.0353 112.124 10.7096 107.656 11.2408 103.175C11.7175 99.1771 12.0784 95.159 12.3713 91.1409C12.7527 85.8764 12.957 80.5916 13.352 75.3271C13.6925 70.7778 14.2033 66.2421 14.6051 61.6995C14.6119 61.6382 14.6187 61.5701 14.6255 61.5089C14.6936 60.7325 15.1499 60.3375 15.6675 59.9356ZM54.7728 194.761C53.0702 194.495 51.3744 194.175 49.6718 193.889C48.909 193.76 48.1395 193.631 47.3767 193.522C46.6412 193.413 46.396 192.977 46.0895 192.452C42.4187 186.023 38.7752 179.581 35.0499 173.179C29.983 164.468 24.8547 155.799 19.7606 147.109C16.0421 140.768 12.3372 134.421 8.62558 128.074C8.35997 127.617 8.1148 127.154 7.86963 126.698C8.06713 126.589 8.14885 126.494 8.23739 126.494C8.67325 126.473 9.10912 126.466 9.54498 126.453C16.2396 126.228 22.9138 126.289 29.5948 127.032C33.967 127.515 38.4006 127.447 42.8069 127.556C44.7411 127.604 46.5799 127.113 48.3029 126.201C48.7252 125.976 49.1747 125.806 49.8489 125.506C50.7206 131.016 51.5583 136.28 52.3823 141.551C53.4039 148.062 54.3301 154.587 55.4402 161.077C57.0338 170.359 58.7364 179.615 60.439 188.877C60.8408 191.056 61.4538 193.201 61.9918 195.49C59.4856 195.537 57.1292 195.136 54.7728 194.761ZM76.2664 179.022C76.0689 180.698 76.0008 182.387 75.7488 184.055C75.6603 184.641 75.3061 185.308 74.8566 185.69C72.5343 187.678 70.1847 189.64 67.8283 191.601C66.7931 192.466 65.758 193.324 64.7228 194.189C64.4776 194.393 64.212 194.564 63.8374 194.829C63.6672 193.821 63.5037 192.813 63.3335 191.798C63.2313 191.172 63.1223 190.545 63.0202 189.919C59.3834 168.085 55.7671 146.346 52.144 124.573C52.6548 124.09 53.1587 123.613 53.6627 123.143C55.5696 121.345 57.4152 119.615 59.2404 117.865C61.5628 115.645 63.8442 113.384 66.1734 111.177C69.0951 108.405 72.0439 105.667 74.986 102.916C75.2448 102.671 75.5377 102.46 75.851 102.201C76.0553 111.865 76.2596 121.413 76.4639 131.091C74.6864 130.042 73.0042 128.748 71.3152 127.079C71.1245 127.74 70.9543 128.176 70.8726 128.632C69.2994 137.69 67.7466 146.755 66.153 155.806C65.8669 157.433 66.0236 158.959 66.7727 160.403C67.9781 162.718 69.204 165.027 70.4776 167.302C72.2006 170.393 73.9577 173.458 75.7352 176.523C76.1915 177.326 76.3754 178.116 76.2664 179.022ZM105.64 224.359C105.483 224.107 105.32 223.862 105.176 223.603C100.259 214.75 95.3764 205.882 90.432 197.049C84.1051 185.744 77.7306 174.466 71.3901 163.168C70.641 161.84 69.96 160.477 69.2381 159.136C68.7069 158.142 68.5434 157.1 68.7545 155.976C69.6331 151.27 70.5048 146.564 71.3425 141.844C71.6081 140.346 71.8056 138.841 72.0235 137.336C72.0848 136.9 72.1461 136.464 72.2142 136.035C72.2823 135.572 72.3845 135.109 72.5343 134.298C72.7863 134.877 72.9089 135.109 72.9906 135.354C76.566 146.972 81.3401 158.135 85.8282 169.406C91.0245 182.461 96.7112 195.292 103.236 207.748C103.365 207.987 103.453 208.259 103.617 208.47C105.299 210.677 105.544 213.224 105.572 215.887C105.578 216.834 105.619 217.773 105.667 218.72C105.742 220.225 105.851 221.73 105.926 223.228C105.926 223.576 105.912 223.93 105.64 224.359ZM125.315 254.774C121.399 251.315 117.544 247.787 113.553 244.422C113.008 243.959 112.47 243.496 111.919 243.04C110.284 241.698 109.671 240.357 109.569 238.293C108.854 223.222 108.003 208.157 107.199 193.092C106.327 176.72 105.456 160.348 104.57 143.976C104.073 134.727 103.562 125.486 103.052 116.237C103.038 116.033 103.052 115.822 103.052 115.617C103.106 115.617 103.161 115.617 103.208 115.624C103.236 115.624 103.256 115.624 103.283 115.624C103.31 115.679 103.345 115.726 103.372 115.781L103.379 115.788C107.458 122.782 111.476 129.817 115.658 136.743C117.183 139.27 118.041 141.81 118.205 144.78C118.627 152.448 119.308 160.096 119.914 167.751C120.479 174.916 121.086 182.08 121.658 189.245C122.168 195.653 122.666 202.055 123.149 208.464C123.646 215.036 124.103 221.608 124.593 228.18C125.09 234.806 125.587 241.433 126.105 248.052C126.241 249.789 126.439 251.519 126.602 253.255C126.677 254.059 126.752 254.87 126.868 256.095C126.173 255.51 125.737 255.149 125.315 254.774ZM153.959 253.16C153.83 254.434 153.503 254.597 152.325 254.713C148.484 255.101 144.643 255.544 140.795 255.925C137.165 256.286 133.535 256.606 129.898 256.933C129.578 256.96 129.251 256.94 128.945 256.94C126.044 218.877 123.142 180.834 120.234 142.75C120.52 142.6 120.616 142.518 120.711 142.512C125.751 142.307 130.375 140.509 135.033 138.827C142.211 136.232 149.083 132.936 155.948 129.626C159.918 127.713 163.903 125.826 167.887 123.933C168.268 123.749 168.69 123.64 169.358 123.402C169.269 124.628 169.283 125.69 169.112 126.725C168.064 133.229 166.913 139.713 165.912 146.223C164.788 153.483 163.698 160.757 162.752 168.044C161.614 176.788 160.579 185.553 159.619 194.318C158.72 202.545 157.937 210.786 157.167 219.026C156.397 227.267 155.73 235.521 154.981 243.762C154.695 246.895 154.273 250.021 153.959 253.16ZM182.883 213.953C182.222 217.201 181.896 220.511 181.392 223.787C181.33 224.182 181.16 224.625 180.894 224.917C179.968 225.987 178.994 227.015 178.007 228.03C173.982 232.164 169.882 236.23 165.925 240.438C165.741 240.629 165.571 240.833 165.387 241.024C162.942 243.666 160.634 246.431 158.264 249.149C158.161 249.271 158.052 249.394 157.95 249.51C157.678 249.823 157.399 250.136 157.126 250.443C157.031 250.395 156.935 250.354 156.84 250.307C156.833 250.3 156.82 250.3 156.813 250.293C157.065 247.426 157.29 244.552 157.569 241.685C157.841 238.913 158.114 236.134 158.386 233.362C158.495 232.232 158.611 231.108 158.727 229.978C158.972 227.539 159.217 225.108 159.476 222.67C160.388 214.007 161.342 205.344 162.288 196.688C162.506 194.727 162.718 192.772 162.929 190.811C162.976 190.368 163.024 189.919 163.072 189.476C163.385 186.602 163.705 183.735 164.025 180.868C164.25 178.818 164.481 176.768 164.72 174.718C164.836 173.71 164.944 172.702 165.06 171.694C166.334 160.879 167.662 150.078 169.705 139.372C170.543 134.993 171.081 130.553 171.714 126.133C171.85 125.166 171.871 124.178 171.843 123.197C171.823 122.537 171.986 122.094 172.518 121.665C174.064 120.392 175.562 119.077 177.04 117.742C184.211 111.259 190.674 104.081 196.878 96.6573C198.758 94.4099 200.706 92.2169 202.824 89.7584C202.878 90.2623 202.946 90.4939 202.919 90.705C202.306 95.6766 201.734 100.648 201.046 105.613C200.27 111.218 199.385 116.816 198.547 122.414C197.73 127.903 197.035 133.42 196.048 138.882C195.203 143.595 193.97 148.232 193.01 152.925C190.981 162.848 189.346 172.845 188.195 182.904C187.003 193.344 184.974 203.649 182.883 213.953ZM184.524 221.975C184.402 219.122 184.858 216.568 185.417 214.007C187.003 206.775 188.658 199.556 189.986 192.275C191.049 186.439 191.587 180.514 192.499 174.65C193.623 167.39 194.89 160.144 196.102 152.898C196.143 152.652 196.272 152.421 196.456 151.924C196.885 152.714 197.178 153.272 197.491 153.831C201.38 160.777 205.65 167.479 210.329 173.921C214.299 179.383 219.176 183.973 224.352 188.25C225.475 189.183 226.769 189.905 228.022 190.75C213.55 201.136 199.092 211.515 184.524 221.975ZM242.869 191.512C238.177 195.231 233.484 198.963 228.765 202.647C226.184 204.663 223.63 206.693 221.539 209.24C221.314 209.512 220.974 209.771 220.64 209.86C214.034 211.651 207.475 213.592 200.992 215.764C199.534 216.255 198.077 216.738 196.633 217.256C196.49 217.31 196.327 217.31 196.177 217.337C196.143 217.269 196.102 217.201 196.068 217.133C197.246 216.268 198.431 215.396 199.609 214.532C208.265 208.191 216.928 201.864 225.571 195.503C227.239 194.277 228.826 192.949 230.433 191.642C230.91 191.254 231.359 190.981 232.02 190.961C232.715 190.94 233.409 190.906 234.104 190.879C237.107 190.763 240.118 190.634 243.121 190.505C243.278 190.498 243.441 190.532 243.802 190.573C243.427 190.961 243.175 191.274 242.869 191.512ZM270.744 130.178C268.932 134.435 267.1 138.684 265.302 142.948C261.386 152.223 257.464 161.499 253.589 170.795C251.559 175.671 249.632 180.589 247.65 185.478C247.425 186.03 247.153 186.568 246.921 187.12C246.669 187.733 246.274 188.005 245.559 188.039C242.569 188.189 239.58 188.407 236.597 188.618C236.311 188.638 236.025 188.673 235.739 188.713C235.214 188.775 234.69 188.843 234.159 188.884C233.532 188.924 232.905 188.89 232.04 188.89C232.102 188.768 232.156 188.652 232.218 188.53C232.252 188.455 232.286 188.386 232.327 188.312C241.575 169.985 249.543 151.345 256.115 132.058C256.497 131.969 256.878 131.887 257.259 131.799C261.884 130.764 266.528 129.729 271.268 128.673C271.091 129.197 270.941 129.701 270.744 130.178Z" fill="black"/>
<path d="M111.312 96.9771C116.931 86.7751 122.291 76.4437 127.167 65.8672C127.283 65.622 127.46 65.3632 127.46 65.1181C127.46 64.7844 127.31 64.4575 127.228 64.1237C126.888 64.2259 126.418 64.2327 126.241 64.4575C125.703 65.1317 125.205 65.8672 124.817 66.6368C121.712 72.807 118.565 78.9568 115.569 85.1815C113.75 88.9544 112.17 92.8364 110.502 96.6774C110.257 97.2359 110.134 97.8488 109.95 98.4345C110.052 98.4822 110.161 98.523 110.263 98.5707C110.618 98.0463 111.006 97.5355 111.312 96.9771Z" fill="black"/>
<path d="M157.173 183.871C156.962 184.804 156.703 185.723 156.546 186.663C155.348 193.909 154.06 201.142 153.012 208.409C152.106 214.654 151.459 220.933 150.723 227.198C150.553 228.635 150.798 229.248 151.452 229.228C152.514 229.194 152.514 228.302 152.637 227.566C153.066 224.992 153.57 222.424 153.876 219.83C154.987 210.431 156.056 201.026 157.084 191.614C157.363 189.081 157.432 186.527 157.602 183.98C157.459 183.946 157.316 183.912 157.173 183.871Z" fill="black"/>
<path d="M188.55 46.1363C190.123 54.1522 192.18 62.0386 194.774 69.782C194.979 70.4018 195.176 71.0351 195.51 71.5868C195.66 71.8388 196.164 72.0839 196.422 72.0158C196.681 71.9477 196.913 71.5051 197.001 71.185C197.083 70.8921 196.981 70.538 196.906 70.2247C196.388 67.9977 195.884 65.7707 195.326 63.5573C193.841 57.7072 192.309 51.8707 190.824 46.0274C189.408 40.4429 188.052 34.8379 186.643 29.2534C186.438 28.4566 186.091 27.687 185.812 26.9106C185.621 26.9651 185.43 27.0128 185.24 27.0673C185.417 28.7835 185.478 30.5269 185.791 32.2159C186.663 36.8674 187.637 41.4917 188.55 46.1363Z" fill="black"/>
<path d="M244.558 145.412C244.218 145.262 243.646 145.181 243.414 145.378C242.931 145.78 242.502 146.325 242.222 146.897C241.099 149.185 239.955 151.473 238.96 153.83C236.345 160.041 233.798 166.279 231.244 172.518C230.645 173.975 230.079 175.446 229.562 176.938C229.303 177.687 229.187 178.483 229.01 179.26C229.181 179.314 229.351 179.369 229.521 179.416C229.8 178.913 230.107 178.422 230.345 177.898C232.661 172.858 234.976 167.825 237.258 162.772C239.716 157.324 242.141 151.862 244.558 146.4C244.688 146.107 244.688 145.467 244.558 145.412Z" fill="black"/>
<path d="M41.0298 114.494C41.1115 114.753 41.2137 115.005 41.3363 115.25C41.5678 115.714 41.9083 116.19 42.4463 115.891C42.7324 115.734 42.9095 115.203 42.9435 114.821C42.9844 114.406 42.8413 113.963 42.7324 113.541C41.8266 110.068 41.0502 106.547 39.9605 103.135C37.8153 96.3925 35.4929 89.7046 33.2319 83.0032C33.048 82.4584 32.796 81.934 32.4759 81.1848C32.1967 81.6003 32.0877 81.6888 32.0945 81.7705C32.1082 82.0361 32.149 82.3086 32.1967 82.5742C34.2739 93.4504 37.7131 103.952 41.0298 114.494Z" fill="black"/>
<path d="M55.9163 183.891C54.275 175.623 52.6337 167.348 50.9788 159.081C50.8698 158.522 50.6859 157.97 50.5429 157.419C50.4748 157.432 50.4067 157.453 50.3386 157.466C50.3386 158.045 50.2705 158.631 50.3522 159.203C51.2172 165.51 52.0548 171.823 53.0219 178.109C53.3556 180.309 54.0094 182.461 54.527 184.626C54.6496 185.151 54.779 185.811 55.5077 185.689C56.2637 185.559 56.107 184.919 56.0185 184.374C55.9844 184.211 55.9504 184.054 55.9163 183.891Z" fill="black"/>
<path d="M66.6701 94.3143C66.8471 94.7093 67.0378 95.1247 67.3171 95.438C67.5009 95.6491 67.9709 95.8671 68.1275 95.7785C68.3863 95.6151 68.6723 95.1997 68.6451 94.9204C68.5838 94.2803 68.3727 93.6469 68.1547 93.034C65.0628 84.303 61.0583 75.9535 57.2921 67.5018C57.1287 67.1272 56.8631 66.7935 56.6452 66.4462C56.5294 66.4871 56.4136 66.5279 56.291 66.5688C56.4068 67.0864 56.4749 67.6108 56.6384 68.1079C59.5532 77.0091 62.7745 85.7877 66.6701 94.3143Z" fill="black"/>
<path d="M258.54 78.6787C256.027 83.8614 253.507 89.0373 251.055 94.2473C250.197 96.0656 249.516 97.9589 248.78 99.8318C248.583 100.336 248.419 100.962 249.053 101.269C249.72 101.596 250.013 101.017 250.285 100.54C250.469 100.206 250.639 99.8658 250.803 99.5253C252.866 95.0917 254.985 90.6854 256.953 86.211C257.913 84.0317 258.594 81.7297 259.377 79.4687C259.582 78.8694 259.67 78.2292 259.813 77.6094C259.67 77.5345 259.527 77.4664 259.384 77.3915C259.098 77.8206 258.764 78.2224 258.54 78.6787Z" fill="black"/>
<path d="M97.0723 42.2088C98.7136 48.1271 100.3 54.0589 101.921 59.9839C102.105 60.665 102.35 61.3324 102.596 61.993C102.773 62.4697 103.018 62.8988 103.849 62.6468C103.849 62.136 103.958 61.5503 103.835 61.0191C101.288 50.0408 98.809 39.042 93.7012 28.8673C93.6808 30.9513 94.2801 32.9127 94.8658 34.874C95.5945 37.319 96.3913 39.7503 97.0723 42.2088Z" fill="black"/>
<path d="M91.801 169.569C92.5025 171.394 93.4151 173.137 94.3072 174.881C94.7499 175.746 95.3833 175.971 95.8532 175.603C96.4865 175.106 96.1733 174.547 95.9213 173.989C95.4037 172.851 94.8316 171.734 94.4026 170.57C91.4605 162.656 88.1575 154.892 84.4458 147.306C84.078 146.556 83.6354 145.835 83.2336 145.106C83.0769 145.174 82.9135 145.242 82.7568 145.31C82.8999 145.814 83.002 146.332 83.1859 146.815C86.0394 154.409 88.8862 162.002 91.801 169.569Z" fill="black"/>
</svg>
