<svg width="140" height="137" viewBox="0 0 140 137" fill="none" xmlns="http://www.w3.org/2000/svg">
<path fill-rule="evenodd" clip-rule="evenodd" d="M59.9859 23.7661C70.3329 25.4517 75.1178 37.1023 83.7911 42.9356C92.9154 49.0723 105.896 49.5065 111.888 58.6738C118.523 68.8226 120.772 82.2041 116.968 93.6905C113.168 105.166 101.678 111.62 91.9432 118.901C81.9989 126.338 72.4145 137.239 59.9859 136.308C47.6488 135.385 41.4394 121.464 31.3584 114.364C21.1233 107.157 4.05918 106.417 0.577241 94.4708C-2.92233 82.4646 10.4103 72.4473 15.8542 61.1728C20.3686 51.8233 21.7623 40.8669 29.7144 34.1266C38.0273 27.0805 49.1866 22.0069 59.9859 23.7661Z" fill="#FADBC3"/>
<path d="M20.583 90.1296C18.7697 87.082 16.9529 84.031 15.1396 80.9834C13.3853 78.0329 11.6483 75.0685 9.86965 72.1354C8.31639 69.5732 6.86021 66.6573 4.86316 64.376C4.64127 64.3829 4.41937 64.3898 4.19748 64.3968C4.15241 64.4002 4.10733 64.4453 4.01025 64.5008C4.13854 64.7331 4.25989 64.9689 4.3951 65.2011C6.28467 68.4325 8.17077 71.6638 10.0638 74.8917C12.6572 79.3157 15.2679 83.7293 17.8474 88.1638C19.7439 91.4228 21.5988 94.7027 23.4676 97.9757C23.6202 98.2461 23.7484 98.468 24.1229 98.52C24.5147 98.5755 24.903 98.6414 25.2913 98.7072C25.0347 97.1262 23.8178 95.6458 23.0204 94.2763C22.2125 92.8894 21.4012 91.5095 20.583 90.1296Z" fill="#FADBC3"/>
<path d="M7.43894 31.4075C7.23438 33.72 6.97434 36.0291 6.80099 38.3451C6.5999 41.0252 6.49588 43.7122 6.30173 46.3958C6.15264 48.4414 5.96888 50.4835 5.72619 52.5221C5.45575 54.8035 5.10904 57.0779 4.7762 59.3523C4.60978 60.4722 4.39482 61.5817 4.19373 62.7432C4.40522 62.757 4.5647 62.7813 4.72072 62.7709C6.63457 57.8649 7.54642 52.3176 7.98674 47.1135C8.42013 41.8712 8.19823 36.6081 7.43894 31.4075Z" fill="#FADBC3"/>
<path d="M30.499 80.3347C29.8056 77.4189 29.126 74.4926 28.6129 71.5387C28.1032 68.609 27.9125 65.6099 27.3197 62.6941C27.0631 62.9333 26.8065 63.176 26.5465 63.4222C28.391 74.5065 30.232 85.5735 32.0835 96.689C32.1424 96.9283 32.1944 97.171 32.2568 97.4102C32.2499 97.4899 32.2464 97.5662 32.243 97.6459C32.3296 98.1591 32.4128 98.6722 32.4995 99.1888C32.6902 99.0536 32.8254 98.9634 32.9502 98.8629C33.4772 98.4226 34.0042 97.9857 34.5312 97.5454C34.0285 94.7995 33.2484 92.0639 32.6243 89.3561C31.9309 86.3432 31.2132 83.3372 30.499 80.3347Z" fill="#FADBC3"/>
<path d="M27.4752 60.1182C26.9274 56.7897 25.6862 53.4648 24.7744 50.2126C23.8798 47.0264 22.9576 43.8505 22.0457 40.6712C20.3989 34.94 18.8837 29.2297 17.5801 23.4258C17.2854 23.3842 16.9872 23.3599 16.6821 23.3703C19.6673 36.1119 22.6768 48.7842 26.7125 61.2276C26.7194 61.2276 26.7263 61.2242 26.7333 61.2242C26.9309 61.0508 27.132 60.8809 27.3261 60.7006C27.3677 60.6625 27.4128 60.6209 27.4544 60.5828C27.4891 60.4441 27.503 60.2915 27.4752 60.1182Z" fill="#FADBC3"/>
<path d="M77.1381 6.38175C77.4085 6.82207 85.0015 2.69622 85.5701 2.34951C85.5805 2.34258 85.5875 2.33564 85.5979 2.32871C86.326 3.15388 87.5637 3.68087 88.4582 4.13853C89.7237 4.78688 91.0274 5.33815 92.3587 5.82701C92.5633 5.56351 92.7678 5.30348 92.9724 5.03998C92.7054 4.89783 92.4697 4.75568 92.2235 4.64126C90.0115 3.62194 87.7891 2.62341 85.5875 1.57981C85.0778 1.34058 84.6825 1.36138 84.1971 1.63529C82.5121 2.59567 80.7994 3.50059 79.1074 4.4471C78.2164 4.94637 77.3531 5.4907 76.3684 6.07664C76.6423 6.27427 76.9197 6.46842 77.1936 6.66605C77.2074 6.5759 77.197 6.47883 77.1381 6.38175Z" fill="#FADBC3"/>
<path d="M87.7893 14.6918C87.7997 14.4596 87.6853 14.3174 87.5293 14.2585C87.5813 14.0227 87.6298 13.7904 87.6645 13.5581C87.5605 13.6864 87.4599 13.8147 87.3559 13.9395C86.9919 14.3867 86.4198 14.7508 86.2569 15.2535C86.0835 15.7944 86.2881 16.4531 86.3158 17.0633C86.5273 21.5498 86.7631 26.0327 86.9364 30.5192C87.1756 36.6976 87.3906 42.8759 87.5709 49.0543C87.6506 51.8072 87.7442 54.5635 87.6645 57.3199C87.6853 57.4551 87.7026 57.5938 87.7234 57.729C87.6957 57.8261 87.6645 57.9232 87.6368 58.0202C87.6056 58.8003 87.5605 59.5804 87.4946 60.3571C87.4912 60.3883 87.4946 60.4264 87.4981 60.4611C87.5605 60.52 87.6333 60.572 87.7096 60.6171C87.7304 60.6067 87.7546 60.5963 87.7685 60.5824C88.5833 59.8509 89.3842 59.1089 90.1816 58.36C87.6957 43.9195 87.1687 29.3161 87.7893 14.6918Z" fill="#FADBC3"/>
<path d="M84.9254 111.082C85.0467 105.58 85.3206 100.077 85.7298 94.5889C86.1423 89.1005 86.7352 83.6294 87.3974 78.1652C88.0388 72.8571 89.0374 67.5074 89.3043 62.1576C89.4569 61.5266 89.6025 60.9095 89.762 60.3131C89.918 60.2195 90.0428 60.0912 90.133 59.9421C89.3806 60.6217 88.6179 61.2943 87.8308 61.9392C87.5639 62.1611 87.4772 62.3864 87.4876 62.7193C87.5014 63.2151 87.491 63.7213 87.4217 64.2136C87.0993 66.4638 86.8254 68.7208 86.3989 70.9537C85.3588 76.4039 84.6827 81.9062 84.0343 87.4085C83.9754 87.9217 83.9199 88.4348 83.861 88.9479C83.7708 89.839 83.6842 90.7335 83.6009 91.6245C83.5663 91.7736 83.5351 91.9262 83.5039 92.0787C83.3409 93.5384 83.178 95.0015 83.0185 96.4611C83.0115 96.6033 83.0011 96.7489 82.9942 96.8911C82.9734 96.9743 82.9595 97.0575 82.9422 97.1407C82.8347 98.1392 82.7238 99.1377 82.6163 100.133C82.1344 104.543 81.649 108.95 81.1844 113.36C81.0526 114.601 80.9278 115.839 80.803 117.08C80.8065 117.5 80.803 117.919 80.8134 118.339C80.8099 118.345 80.8065 118.349 80.803 118.356C80.7406 118.502 80.6851 118.651 80.6296 118.8C80.491 120.211 80.3523 121.625 80.2136 123.036C80.0714 124.496 79.957 125.959 79.8287 127.419C79.8322 127.422 79.8391 127.422 79.8426 127.426C79.9432 127.336 80.0472 127.246 80.1512 127.159C80.2656 127.062 80.3869 126.972 80.5083 126.881C80.5291 126.864 80.5499 126.85 80.5707 126.833C81.7738 125.45 82.9526 124.042 84.1973 122.697C85.1646 118.994 84.8456 114.639 84.9254 111.082Z" fill="#FADBC3"/>
<path d="M85.7087 32.4954C85.7122 35.4424 85.7989 38.3894 85.9722 41.333C85.889 38.386 85.8023 35.4424 85.7087 32.4954Z" fill="#FADBC3"/>
<path d="M58.2773 123.577C58.4992 120.903 57.9826 118.036 57.7711 115.363C57.5561 112.624 57.3412 109.888 57.1262 107.149C56.7067 101.786 56.2872 96.4257 55.8642 91.062C55.0286 80.4215 54.3803 69.6561 52.6918 59.1092C52.6814 59.0468 52.6606 58.9913 52.6294 58.9497L52.6259 58.9462C52.6017 58.9116 52.5739 58.8908 52.5427 58.8665C52.515 58.8665 52.4872 58.8665 52.463 58.863C52.463 58.9671 52.4595 59.0745 52.463 59.1785C52.7195 63.8869 52.983 68.5917 53.2361 73.3001C53.6834 81.635 54.1272 89.9699 54.5744 98.3048C54.9835 105.974 55.4169 113.643 55.781 121.316C55.8295 122.367 56.1416 123.046 56.9771 123.733C57.258 123.965 57.5319 124.201 57.8092 124.436C58.0623 124.235 58.2461 123.944 58.2773 123.577Z" fill="#FADBC3"/>
<path d="M39.6657 79.2043C41.0629 82.9141 42.4879 86.6205 43.9788 90.2921C46.8842 97.4448 50.2785 104.417 53.7595 111.306C53.7664 111.32 53.7768 111.331 53.7837 111.348C53.7595 110.869 53.7387 110.387 53.7352 109.906C53.7213 108.553 53.5965 107.253 52.7401 106.13C52.6569 106.022 52.6119 105.884 52.546 105.762C49.2245 99.4245 46.3329 92.889 43.6841 86.2425C41.3992 80.5045 38.9688 74.8184 37.1486 68.907C37.1104 68.7822 37.0446 68.6643 36.9163 68.3696C36.84 68.7822 36.788 69.018 36.7533 69.2537C36.7187 69.4756 36.6875 69.6975 36.6562 69.916C36.7637 70.2141 36.8781 70.5019 36.9614 70.7585C37.4259 73.657 38.6498 76.4965 39.6657 79.2043Z" fill="#FADBC3"/>
<path d="M134.962 63.3949C133.464 63.6896 131.714 63.8526 130.375 64.6014C130.299 64.6431 130.237 64.6951 130.185 64.7505C130.327 65.1111 130.469 65.4682 130.614 65.8288C133.367 65.3365 136.023 64.8407 138.717 63.8075C138.09 61.3285 137.476 58.9015 136.855 56.4434C136.734 56.4572 136.613 56.4676 136.491 56.4815C136.578 58.5687 136.945 60.9471 137.569 62.9996C136.71 62.9442 135.774 63.2354 134.962 63.3949Z" fill="#FADBC3"/>
<path d="M103.62 108.987C103.758 108.893 103.897 108.796 104.032 108.699C104.497 108.481 104.937 108.224 105.305 107.888C105.364 107.832 105.402 107.766 105.426 107.693C106.858 106.639 108.259 105.54 109.663 104.476C112.811 102.084 115.945 99.6741 119.076 97.261C119.111 97.2333 119.145 97.2055 119.177 97.1743C118.823 97.1882 118.469 97.2021 118.116 97.2159C117.779 97.2263 117.55 97.365 117.308 97.5626C116.49 98.2283 115.682 98.9044 114.832 99.5285C110.432 102.767 106.022 105.988 101.616 109.216C101.012 109.656 100.413 110.1 99.8127 110.54C99.8301 110.575 99.8509 110.609 99.8682 110.644C99.9445 110.63 100.028 110.627 100.101 110.602C100.839 110.339 101.577 110.093 102.319 109.843C102.642 109.635 102.961 109.427 103.276 109.212C103.401 109.146 103.516 109.07 103.62 108.987Z" fill="#FADBC3"/>
<path d="M122.352 90.8819C123.434 88.2712 124.502 85.65 125.542 83.022C126.582 80.3904 127.584 77.7416 128.524 75.0719C129.429 72.5028 130.556 69.8088 130.972 67.1045C130.778 67.1496 130.583 67.1912 130.389 67.2362C127.043 77.0516 122.987 86.5445 118.279 95.8745C118.272 95.9023 118.265 95.9335 118.261 95.9612C118.251 95.9681 118.237 95.9785 118.227 95.9855C118.195 96.0479 118.168 96.1068 118.136 96.1692C118.577 96.1692 118.899 96.1866 119.215 96.1658C119.482 96.1484 119.752 96.1138 120.019 96.0791C120.39 95.4758 120.636 94.7928 120.955 94.089C121.434 93.0211 121.909 91.9567 122.352 90.8819Z" fill="#FADBC3"/>
<path d="M102.569 75.7967C104.116 75.0235 105.575 73.8447 106.952 72.9502C109.16 71.5148 111.369 70.0829 113.564 68.6267C117.859 65.7802 122.155 62.9302 126.447 60.0837C126.669 59.9381 126.763 59.7266 126.77 59.5186C126.544 58.9673 126.312 58.4091 126.069 57.8093C119.666 62.3408 113.307 66.8411 106.941 71.3414C106.629 71.5841 106.314 71.8199 106.002 72.0626C105.984 72.0765 105.978 72.0903 105.967 72.1042C105.659 72.3018 105.343 72.4995 105.021 72.7005C103.499 73.7754 101.98 74.8536 100.458 75.9284C100.583 76.1364 100.721 76.3687 100.867 76.5976C100.87 76.6045 100.874 76.608 100.877 76.6149C101.456 76.4138 102.146 76.2197 102.562 75.8036C102.566 75.8001 102.569 75.7967 102.569 75.7967Z" fill="#FADBC3"/>
<path d="M112.079 49.5155C113.605 46.9013 115.075 44.2559 116.483 41.5793C117.915 38.8576 119.572 36.2296 120.959 33.4906C121.042 33.3311 121.056 33.1612 121.035 33.0017C120.969 33.0502 120.903 33.0988 120.837 33.1473C120.664 33.2791 120.47 33.4074 120.352 33.5842C119.575 34.7318 118.788 35.8725 118.057 37.0478C117.207 38.4139 116.399 39.8042 115.592 41.1945C111.202 48.7424 106.816 56.2937 102.444 63.8485C102.271 64.1467 102.202 64.5211 102.146 64.8679C102.122 65.0169 102.098 65.1695 102.073 65.3186C103.828 62.902 105.353 60.2913 106.969 57.788C108.727 55.0664 110.45 52.31 112.079 49.5155Z" fill="#FADBC3"/>
<path d="M131.53 26.9449C131.44 26.56 131.349 26.1682 131.256 25.7695C124.169 39.3675 117.353 52.9655 110.876 66.8304C111.057 66.7264 111.174 66.664 111.282 66.5912C115.196 59.5426 118.497 52.1646 122.04 44.9218C125.015 38.837 128.243 32.8736 131.53 26.9449Z" fill="#FADBC3"/>
<path d="M54.6643 44.8073C54.7371 45.0014 54.8516 45.1471 54.9833 45.2615C55.0873 45.0465 55.1913 44.835 55.2919 44.62C55.382 44.4328 55.3474 44.1312 55.2641 43.9266C54.7371 42.6161 54.1789 41.3194 53.6277 40.0192C51.8005 35.7096 50.015 31.3861 48.5518 26.9344C46.8738 21.8273 44.9391 16.8174 42.7687 11.8975C42.6508 11.6306 42.5191 11.3705 42.3111 10.9268C42.2729 11.0793 42.2278 11.2319 42.1758 11.3775C42.0718 11.7831 41.9713 12.1888 41.8707 12.5944C43.5315 17.0947 45.6048 21.4425 47.3557 25.9116C49.8208 32.2009 52.2478 38.5041 54.6643 44.8073Z" fill="#FADBC3"/>
<path d="M55.9995 42.5475C56.0272 42.6204 56.0862 42.6828 56.1867 42.8388C54.4185 38.5326 52.6745 34.2126 50.9028 29.9065C52.5393 34.1433 54.2971 38.335 55.9995 42.5475Z" fill="#FADBC3"/>
<path d="M139.882 63.4987C139.4 61.4773 138.922 59.456 138.43 57.4382C138.305 56.9285 138.156 56.4188 137.961 55.9334C137.677 55.2262 137.358 55.0701 136.595 55.1672C136.1 55.2296 135.607 55.3094 135.111 55.3614C133.322 55.559 131.53 55.7497 129.737 55.9334C129.481 55.9612 129.217 55.9369 128.93 55.9369C128.961 55.7462 128.961 55.663 128.989 55.5902C130.219 52.293 131.44 48.9923 132.688 45.702C133.492 43.5767 134.324 41.4617 135.167 39.3503C135.469 38.5945 135.58 37.8698 135.205 37.1036C135.084 36.8609 135.042 36.5766 134.98 36.3062C134.474 34.0352 133.953 31.7643 133.479 29.4864C133.08 27.5795 132.529 25.7315 131.651 23.9841C131.429 23.5403 131.152 23.3808 130.729 23.5403C130.5 23.627 130.278 23.7622 130.084 23.9113C129.165 24.6255 128.233 25.3224 127.356 26.0851C124.825 28.2868 122.314 30.5126 119.801 32.735C119.593 32.9188 119.388 33.1164 119.239 33.3418C118.196 34.9089 117.1 36.4483 116.143 38.0675C113.858 41.9333 111.639 45.8372 109.403 49.7308C107.25 53.4787 105.107 57.2371 102.958 60.9885C102.906 61.0821 102.809 61.1514 102.642 61.3283C102.673 61.0231 102.684 60.8567 102.711 60.6972C103.453 56.3772 104.067 52.0434 104.414 47.6748C104.58 45.5772 104.681 43.4623 104.306 41.3716C104.067 40.0368 103.727 38.7193 103.391 37.4052C102.597 34.2918 101.671 31.2061 101.002 28.0649C99.8788 22.8018 98.4954 17.6115 96.9214 12.4698C96.2557 10.2994 95.5969 8.12555 95.011 5.93087C94.744 4.92541 94.4285 4.13145 93.3503 3.66339C90.8886 2.59552 88.4824 1.39244 86.0555 0.241358C85.265 -0.133089 84.5265 -0.0568126 83.7568 0.366174C82.0822 1.29189 80.3729 2.1448 78.6983 3.06705C77.776 3.57324 76.8746 4.12798 76.0113 4.72779C75.5432 5.0537 75.0648 5.45588 74.7805 5.93434C74.0073 7.24491 73.3277 8.61095 72.6239 9.96312C72.3431 10.504 72.1212 11.0726 71.8334 11.6065C70.7274 13.6556 69.5451 15.663 68.5085 17.7433C66.6882 21.3872 64.9547 25.0762 63.1795 28.7444C63.0513 29.0079 62.9056 29.2645 62.7045 29.6424C62.5693 29.3512 62.4826 29.1882 62.4168 29.0183C61.3108 26.1198 60.2498 23.2005 59.0884 20.3228C58.4469 18.7349 57.6495 17.2094 56.911 15.6596C56.5123 14.824 55.8639 14.2346 55.0318 13.8497C54.276 13.503 53.5237 13.1424 52.747 12.8512C49.637 11.6759 46.5166 10.5317 43.5072 9.10327C43.3581 9.03046 43.2021 8.97152 43.0426 8.92299C41.999 8.59708 41.6523 8.8051 41.3715 9.85564C40.4457 13.3366 39.5339 16.821 38.57 20.2916C38.0534 22.1604 37.4502 24.0049 36.8816 25.8598C36.7463 26.3001 36.6978 26.7231 36.9336 27.1461C37.2179 27.6523 37.4779 28.1758 37.7761 28.6716C39.7523 31.948 41.6835 35.2522 43.7256 38.487C45.9896 42.072 48.1809 45.709 50.7638 49.0824C51.2492 49.7204 51.7069 50.3791 52.1992 51.0518C51.9635 51.5025 51.7312 51.9428 51.5058 52.3831C51.2423 52.8997 50.9823 53.4233 50.7222 53.9433C50.5385 54.3108 50.483 54.6541 50.7708 55.0285C50.9025 55.2019 50.9233 55.4897 50.9337 55.7289C50.9961 57.5283 51.0135 59.3312 51.1036 61.1306C51.3463 65.9222 51.6202 70.7102 51.8768 75.5018C51.8906 75.7653 51.8802 76.0322 51.8802 76.3304C47.9763 73.3972 44.1347 70.5126 40.3487 67.6661C40.3487 67.094 40.3591 66.567 40.3452 66.0435C40.314 64.6289 40.2724 63.2178 40.2343 61.8032C40.1649 59.196 40.1198 56.5922 40.0193 53.9849C39.9673 52.605 39.9985 51.1835 39.6691 49.8625C39.3397 48.5416 38.6012 47.3212 38.043 46.0557C37.998 45.9551 37.9494 45.8546 37.9009 45.754C35.6334 40.8169 33.3694 35.8797 30.7829 31.0951C29.8468 29.3685 29.039 27.5691 28.193 25.7939C27.8844 25.149 27.4441 24.7226 26.7299 24.5631C26.2445 24.4556 25.773 24.2823 25.298 24.1401C23.5194 23.6096 21.7546 23.0341 19.9621 22.5695C19.1161 22.3511 18.2182 22.3372 17.341 22.2297C17.2058 22.2124 17.0601 22.2159 16.9388 22.1639C16.5852 22.0009 16.2766 22.1084 16.0061 22.3199C15.5034 22.7082 15.0007 23.1034 14.5292 23.5299C12.4905 25.3709 10.3756 27.1183 8.12889 28.7063C7.70244 29.0114 7.30372 29.3581 6.90847 29.7048C6.53749 30.0272 6.3364 30.4433 6.29133 30.9356C6.01743 33.8619 5.70539 36.7846 5.47656 39.7143C5.21653 43.0566 5.12638 46.4162 4.78661 49.7516C4.33242 54.2172 3.74648 58.669 3.11546 63.1138C3.01145 63.8558 3.07039 64.4833 3.35816 65.1005C4.07238 66.6329 4.81781 68.148 5.59097 69.6528C7.9382 74.2155 10.4831 78.6672 13.1007 83.0774C15.9853 87.9417 18.8561 92.8165 21.7407 97.6774C22.0354 98.1766 22.3891 98.6412 22.7566 99.0954C22.9022 99.2792 23.131 99.4456 23.3529 99.508C24.6358 99.8547 25.9151 100.229 27.2188 100.468C28.3837 100.683 29.5799 100.825 30.7656 100.843C32.0796 100.86 33.3521 100.559 34.3887 99.6501C35.3283 98.8284 36.2644 98.0067 37.1936 97.1781C37.835 96.6095 38.4348 95.9854 39.1109 95.4619C39.5686 95.1082 39.8182 94.6991 39.8737 94.1479C39.9153 93.7145 39.9396 93.2776 39.9708 92.8408C40.0262 92.82 40.0817 92.8026 40.1372 92.7818C40.2759 93.0141 40.4284 93.2395 40.5567 93.4752C41.3091 94.8655 42.0337 96.2697 42.8068 97.6462C46.2497 103.755 49.7064 109.857 53.1665 115.959C53.3018 116.199 53.437 116.497 53.6554 116.615C54.1443 116.882 54.1443 117.305 54.1685 117.752C54.2587 119.329 54.3523 120.907 54.4459 122.484C54.484 123.112 54.5569 123.712 55.3196 123.903C55.4375 123.93 55.5207 124.086 55.6247 124.18C58.3568 126.617 61.0889 129.051 63.8209 131.489C64.2301 131.853 64.6392 132.158 65.2286 131.818C65.3777 131.735 65.61 131.797 65.8007 131.79C66.5218 131.769 67.243 131.776 67.9607 131.717C70.2524 131.534 72.5476 131.346 74.8359 131.121C76.1014 130.996 77.36 130.774 78.6255 130.625C79.1109 130.57 79.357 130.313 79.5096 129.876C79.5997 129.623 79.7176 129.36 79.8944 129.166C81.4442 127.463 82.9836 125.75 84.5715 124.086C87.3106 121.216 90.0808 118.379 92.8371 115.529C92.9724 115.391 93.1006 115.242 93.2601 115.134C94.0125 114.621 94.7683 114.111 95.5345 113.616C95.857 113.408 96.1933 113.196 96.5504 113.061C97.4033 112.735 98.2666 112.423 99.1368 112.156C103.131 110.922 107.132 109.701 111.133 108.484C112.083 108.197 113.075 107.989 113.629 107.025C113.657 106.98 113.709 106.948 113.754 106.914C115.023 105.881 116.285 104.844 117.561 103.818C120.13 101.748 122.717 99.6987 125.272 97.615C125.671 97.2925 126.083 96.8869 126.274 96.4292C127.317 93.9537 128.267 91.44 129.304 88.9576C131.055 84.7659 132.806 80.5707 134.637 76.4101C136.266 72.7073 138 69.053 139.38 65.2426C139.418 65.1386 139.449 64.9999 139.529 64.9548C140.173 64.5977 140.011 64.0465 139.882 63.4987ZM136.491 56.4812C136.613 56.4674 136.734 56.457 136.855 56.4431C137.476 58.9013 138.09 61.3282 138.717 63.8072C136.023 64.8404 133.368 65.3362 130.615 65.8286C130.473 65.468 130.327 65.1109 130.185 64.7503C129.217 62.3268 128.257 59.9171 127.283 57.4728C130.348 57.14 133.381 56.8141 136.491 56.4812ZM117.28 95.3509C117.18 95.5451 117.055 95.7254 116.885 96.0097C116.327 95.6422 115.821 95.3509 115.363 95.0008C112.329 92.6882 109.528 90.1399 107.451 86.8912C105.797 84.3013 104.143 81.7079 102.486 79.118C101.952 78.2824 101.415 77.4503 100.881 76.6147C100.877 76.6078 100.874 76.6043 100.87 76.5974C100.725 76.3685 100.586 76.1328 100.461 75.9282C101.983 74.85 103.505 73.7752 105.024 72.7004C105.662 72.2496 106.303 71.7954 106.941 71.3447C113.307 66.841 119.666 62.3441 126.069 57.8126C126.315 58.4124 126.548 58.9706 126.77 59.5219C126.881 59.7958 126.992 60.0697 127.099 60.3436C127.862 62.2748 128.618 64.2094 129.363 66.1475C129.432 66.3313 129.45 66.5878 129.38 66.7681C127.47 71.7885 125.598 76.8262 123.615 81.8154C121.774 86.4474 119.562 90.9165 117.28 95.3509ZM134.123 37.3012C134.276 37.8698 134.283 38.3656 134.071 38.91C132.837 42.0581 131.606 45.2062 130.403 48.3647C129.564 50.5664 128.767 52.7818 127.955 54.9939C127.841 55.3024 127.754 55.6214 127.636 55.9993C127.016 55.8572 126.53 56.19 126.028 56.4743C123.68 57.7987 121.503 59.3728 119.322 60.9469C116.67 62.8607 113.973 64.7122 111.293 66.5879C111.289 66.5879 111.289 66.5913 111.286 66.5913C111.178 66.6641 111.06 66.7265 110.88 66.8305C117.356 52.9656 124.173 39.3676 131.26 25.7696C131.353 26.1718 131.443 26.5601 131.533 26.945C131.714 27.732 131.891 28.4913 132.078 29.2471C132.743 31.9341 133.409 34.6246 134.123 37.3012ZM128.749 26.5497C128.985 26.3348 129.228 26.1302 129.471 25.9187C129.509 25.9465 129.547 25.9777 129.581 26.0054C129.464 26.2724 129.36 26.5463 129.228 26.8063C125.872 33.4319 122.46 40.0298 119.173 46.6901C116.046 53.0245 113.005 59.4075 110.017 65.8112C109.24 67.472 108.259 68.7756 106.716 69.8123C104.719 71.154 102.892 72.7454 100.988 74.2293C100.909 74.2917 100.815 74.3403 100.635 74.4512C100.669 74.1427 100.68 73.9346 100.714 73.7301C101.165 70.9252 101.616 68.1238 102.077 65.3224C102.101 65.1733 102.125 65.0207 102.15 64.8716C102.209 64.5249 102.278 64.1505 102.448 63.8523C106.82 56.294 111.206 48.7461 115.595 41.1982C116.403 39.8079 117.211 38.4176 118.06 37.0516C118.792 35.8762 119.579 34.7356 120.356 33.588C120.473 33.4146 120.668 33.2829 120.841 33.1511C120.907 33.1026 120.973 33.054 121.039 33.0055C122.151 32.1768 123.296 31.3863 124.353 30.4953C125.858 29.2263 127.286 27.8672 128.749 26.5497ZM95.6004 12.8304C96.7619 16.9043 97.9684 20.9677 99.0502 25.0658C99.8857 28.2243 100.534 31.4314 101.318 34.6038C101.734 36.2958 102.275 37.96 102.725 39.645C103.062 40.9001 103.346 42.169 103.627 43.327C101.907 45.3865 100.229 47.335 98.6133 49.3425C96.0234 52.5634 93.1804 55.5347 90.1848 58.3604C89.3908 59.1093 88.5865 59.8513 87.7717 60.5828C87.7543 60.5967 87.7336 60.6071 87.7128 60.6175C87.6642 60.6452 87.6053 60.6695 87.5221 60.7076C87.5151 60.6071 87.5047 60.5308 87.5013 60.4615C87.4978 60.4268 87.4943 60.3921 87.4978 60.3575C87.5637 59.5774 87.6087 58.7973 87.6399 58.0206C87.6503 57.7883 87.6607 57.5526 87.6677 57.3203C87.7474 54.5639 87.6538 51.8111 87.5741 49.0547C87.3938 42.8763 87.1788 36.6979 86.9396 30.5196C86.7662 26.0331 86.5305 21.5467 86.319 17.0637C86.2912 16.4535 86.0867 15.7948 86.26 15.2539C86.4195 14.7512 86.9951 14.3906 87.3591 13.9399C87.4631 13.8116 87.5637 13.6833 87.6677 13.5585C89.585 11.187 91.4954 8.8051 93.4092 6.43014C93.4716 6.35039 93.5583 6.29145 93.7178 6.14237C93.8391 6.64856 93.9258 7.07155 94.0471 7.4876C94.5603 9.2697 95.0942 11.0449 95.6004 12.8304ZM76.3649 6.07996C77.3496 5.49402 78.2129 4.94968 79.1039 4.45042C80.7959 3.5039 82.5086 2.59552 84.1936 1.6386C84.679 1.36123 85.0778 1.34043 85.5839 1.58313C87.7856 2.62326 90.008 3.62525 92.22 4.64458C92.4662 4.75899 92.7019 4.90114 92.9689 5.0433C92.7643 5.3068 92.5598 5.56683 92.3552 5.83033C90.2541 8.5312 88.1635 11.1905 85.9133 13.8081C83.3442 10.9963 80.2897 8.87791 77.1866 6.67284C76.9127 6.47174 76.6388 6.27758 76.3649 6.07996ZM44.1972 10.7814C46.0867 11.5753 47.9694 12.3762 49.8624 13.1598C51.27 13.7423 52.6846 14.3074 54.0992 14.8725C54.8828 15.1846 55.4375 15.6977 55.7807 16.4917C57.1364 19.6155 58.5301 22.7255 59.8997 25.8459C60.5792 27.3922 61.2172 28.9594 61.9175 30.4953C62.0839 30.8593 62.0111 31.1194 61.8586 31.428C60.3018 34.583 58.7555 37.745 57.1988 40.9001C56.8833 41.538 56.547 42.1621 56.1899 42.8486C56.1899 42.8451 56.1864 42.8451 56.1864 42.8417C56.0858 42.6856 56.0304 42.6232 55.9992 42.5504C54.2968 38.3379 52.5425 34.1462 50.9025 29.9094C50.7326 29.4725 50.5593 29.0357 50.3929 28.5953C48.5865 23.8315 46.9604 18.9984 45.2373 14.2034C44.8732 13.1875 44.419 12.2029 44.0099 11.2043C43.951 11.0587 43.9024 10.9062 43.8158 10.6635C44.0134 10.7224 44.107 10.7432 44.1972 10.7814ZM45.1437 38.2963C42.7028 34.4374 40.6018 30.367 37.8662 26.6711C39.6656 22.1847 40.678 17.4417 41.8777 12.5946C41.9782 12.189 42.0788 11.7833 42.1828 11.3777C42.2244 11.2182 42.2625 11.0587 42.3041 10.8992C42.3076 10.9096 42.3111 10.9166 42.318 10.927C42.5295 11.3708 42.6612 11.6343 42.7756 11.8978C44.946 16.8176 46.8807 21.8275 48.5588 26.9346C50.0219 31.3863 51.8074 35.7098 53.6346 40.0194C54.1859 41.3196 54.7406 42.6163 55.2711 43.9269C55.3543 44.1314 55.389 44.4331 55.2988 44.6203C55.1983 44.8352 55.0908 45.0467 54.9902 45.2617C54.2587 46.7976 53.5098 48.3231 52.7609 49.8487C52.7401 49.8937 52.6846 49.9249 52.6118 49.9908C50.0878 46.0453 47.5984 42.1794 45.1437 38.2963ZM52.2478 53.9572C54.3384 49.8313 56.4048 45.6881 58.5232 41.5762C62.5381 33.7925 66.3381 25.9049 70.0444 17.9687C70.9458 16.0375 71.986 14.1687 72.9394 12.2618C73.6467 10.8507 74.3228 9.42225 75.0128 8.0042C75.1445 7.7303 75.2693 7.4564 75.4496 7.07155C78.8404 9.67881 82.3873 11.9879 85.3274 15.1291C85.2858 16.2282 85.1714 17.3931 85.206 18.5511C85.3031 21.9038 85.473 25.253 85.5839 28.6057C85.6255 29.9024 85.6637 31.1991 85.7053 32.4958C85.7989 35.4394 85.8856 38.3864 85.9688 41.3335C86.0069 42.7446 86.052 44.1557 86.0867 45.5703C86.1872 49.5609 86.2254 53.5515 86.2808 57.5456C86.2982 58.8458 86.2843 60.1425 86.2843 61.3941C77.88 65.0831 69.6665 68.89 61.0542 71.8024C60.0245 69.0772 58.6931 66.6537 57.3167 64.2476C55.9125 61.7963 54.543 59.3243 53.1769 56.8522C52.8302 56.2212 52.5633 55.5486 52.2374 54.9072C52.0675 54.5743 52.0883 54.2727 52.2478 53.9572ZM48.9089 75.7341C49.8693 76.483 50.743 77.3393 51.6653 78.1333C51.9635 78.3899 52.0467 78.7054 52.0675 79.0868C52.3795 84.9288 52.702 90.7674 53.0209 96.6095C53.1423 98.7972 53.2602 100.982 53.3746 103.169C53.3954 103.547 53.378 103.932 53.378 104.31C53.3226 104.32 53.2671 104.331 53.2116 104.345C47.3661 92.2409 42.4948 79.7247 37.5889 67.0767C37.7691 67.1599 37.8593 67.1842 37.9252 67.2362C41.5864 70.0688 45.2616 72.8841 48.9089 75.7341ZM26.2133 25.8147C26.7958 25.9777 27.1355 26.2724 27.3782 26.8479C28.2207 28.838 29.091 30.8143 30.0236 32.7628C32.0346 36.9614 34.0836 41.1393 36.1292 45.3172C36.8954 46.8808 37.7033 48.4272 38.5354 50.0671C37.2179 51.395 35.8934 52.8061 34.4858 54.1305C32.1663 56.3114 29.7983 58.4367 27.4476 60.5863C27.406 60.6244 27.3609 60.666 27.3193 60.7042C27.1251 60.8845 26.9206 61.0543 26.7264 61.2277C26.7195 61.2312 26.716 61.2381 26.7091 61.2416C26.7091 61.2381 26.7056 61.2346 26.7056 61.2312C22.6699 48.7877 19.6605 36.1155 16.6753 23.3739C16.9804 23.3635 17.2786 23.3877 17.5733 23.4293C18.0136 23.4883 18.4435 23.5888 18.8665 23.7102C21.3212 24.3967 23.7621 25.1282 26.2133 25.8147ZM7.97634 30.5126C9.04768 29.6771 10.1467 28.8796 11.1903 28.0094C12.7228 26.73 14.2137 25.4056 15.7218 24.102C15.8189 24.0153 15.9264 23.9425 16.1102 23.8003C16.2003 24.6359 16.2246 25.3813 16.3667 26.1059C17.1226 29.9371 17.8853 33.7682 18.6897 37.589C20.1701 44.6203 22.3925 51.4505 24.3307 58.3569C24.615 59.3693 24.8993 60.3852 25.1732 61.4011C25.2425 61.6611 25.2772 61.9315 25.3257 62.1846C23.9631 63.0791 22.5416 63.5091 20.978 63.5853C18.5302 63.7102 16.1032 63.5125 13.6797 63.2109C10.7049 62.8434 7.72671 62.5833 4.7242 62.774C4.72073 62.774 4.71727 62.774 4.71727 62.774C4.56125 62.7844 4.40176 62.7567 4.19026 62.7463C4.39136 61.5848 4.60978 60.4719 4.77274 59.3555C5.10905 57.081 5.45229 54.8066 5.72273 52.5253C5.96542 50.4901 6.14918 48.4445 6.29826 46.3989C6.49242 43.7188 6.59643 41.0284 6.79753 38.3483C6.97088 36.0323 7.23091 33.7232 7.43547 31.4106C7.43894 31.3794 7.44241 31.3447 7.44587 31.3135C7.48054 30.9183 7.71284 30.7172 7.97634 30.5126ZM27.8844 99.1509C27.0177 99.0157 26.1544 98.8527 25.2876 98.7071C24.8993 98.6412 24.5075 98.5753 24.1192 98.5199C23.7447 98.4644 23.6199 98.2425 23.4639 97.9755C21.5951 94.7026 19.7402 91.4227 17.8437 88.1636C15.2642 83.7292 12.6535 79.3156 10.0601 74.8916C8.16703 71.6637 6.28093 68.4324 4.39136 65.201C4.25614 64.9687 4.13132 64.7329 4.00651 64.5006C4.10705 64.4452 4.14866 64.3966 4.19373 64.3966C4.41563 64.3862 4.63752 64.3828 4.85941 64.3758C8.26758 64.2614 11.6653 64.2926 15.0666 64.6705C17.2924 64.9167 19.5495 64.882 21.7927 64.9375C22.7774 64.9618 23.7135 64.7122 24.5907 64.2476C24.8057 64.1331 25.0345 64.0465 25.3777 63.8939C25.8215 66.6988 26.248 69.3789 26.6675 72.0624C27.1876 75.377 27.6591 78.6984 28.2242 82.0026C29.0355 86.7282 29.9023 91.44 30.7691 96.1553C30.9736 97.2648 31.2857 98.3569 31.5596 99.5219C30.2837 99.5461 29.0841 99.3416 27.8844 99.1509ZM38.8266 91.1384C38.7261 91.9913 38.6914 92.8512 38.5631 93.7006C38.518 93.9988 38.3378 94.3385 38.1089 94.5327C36.9266 95.5451 35.7305 96.5436 34.5309 97.5421C34.0039 97.9825 33.4769 98.4193 32.9499 98.8596C32.8251 98.9637 32.6898 99.0503 32.4991 99.1856C32.4125 98.6724 32.3293 98.1593 32.2426 97.6427C32.1906 97.3237 32.1351 97.0047 32.0831 96.6858C30.2317 85.5702 28.3906 74.5032 26.5461 63.4189C26.8062 63.1727 27.0627 62.93 27.3193 62.6908C28.2901 61.7755 29.2297 60.8949 30.1589 60.0038C31.3411 58.8735 32.5026 57.7225 33.6884 56.5991C35.1758 55.188 36.677 53.7942 38.1748 52.3935C38.3065 52.2687 38.4556 52.1612 38.6151 52.0295C38.7191 56.9493 38.8231 61.8102 38.9272 66.7369C38.0222 66.203 37.1659 65.5442 36.306 64.6948C36.2089 65.0311 36.1223 65.253 36.0807 65.4853C35.2798 70.0965 34.4893 74.7113 33.678 79.3191C33.5323 80.1477 33.6121 80.9243 33.9935 81.6593C34.6071 82.8382 35.2312 84.0135 35.8796 85.1715C36.7568 86.7456 37.6513 88.3058 38.5562 89.866C38.7885 90.2751 38.8821 90.6773 38.8266 91.1384ZM53.7802 114.219C53.7005 114.091 53.6173 113.966 53.5445 113.834C51.0412 109.327 48.5553 104.813 46.0382 100.316C42.8172 94.5604 39.572 88.8189 36.3442 83.067C35.9628 82.3909 35.6161 81.6975 35.2486 81.0145C34.9781 80.5083 34.8949 79.9778 35.0024 79.4057C35.4497 77.01 35.8934 74.6142 36.3199 72.2115C36.4551 71.4487 36.5557 70.6825 36.6666 69.9163C36.6978 69.6944 36.729 69.4725 36.7637 69.2541C36.7984 69.0183 36.8504 68.7825 36.9266 68.3699C37.0549 68.6646 37.1173 68.7825 37.1589 68.9073C38.9792 74.8222 41.4096 80.5048 43.6944 86.2429C46.3398 92.8893 49.2349 99.4213 52.5563 105.763C52.6222 105.884 52.6673 106.023 52.7505 106.13C53.6069 107.254 53.7317 108.55 53.7455 109.906C53.749 110.388 53.7698 110.866 53.7941 111.348C53.8322 112.114 53.8877 112.881 53.9258 113.643C53.9258 113.82 53.9189 114 53.7802 114.219ZM63.7967 129.703C61.8031 127.942 59.8407 126.146 57.809 124.433C57.5316 124.197 57.2577 123.961 56.9769 123.729C56.1448 123.046 55.8327 122.363 55.7807 121.313C55.4167 113.64 54.9833 105.971 54.5742 98.3014C54.1304 89.9665 53.6866 81.6316 53.2359 73.2967C52.9828 68.5884 52.7228 63.8835 52.4627 59.1752C52.4558 59.0712 52.4627 58.9637 52.4627 58.8597C52.4905 58.8597 52.5182 58.8597 52.5425 58.8631C52.5563 58.8631 52.5667 58.8631 52.5806 58.8631C52.5945 58.8909 52.6118 58.9151 52.6257 58.9429L52.6291 58.9464C54.7059 62.5071 56.7515 66.0886 58.8803 69.6146C59.657 70.9009 60.0938 72.1942 60.177 73.7058C60.392 77.6098 60.7387 81.5033 61.0473 85.4003C61.335 89.0477 61.6436 92.6951 61.9348 96.3425C62.1949 99.6051 62.448 102.864 62.6941 106.127C62.9472 109.472 63.1795 112.818 63.4292 116.164C63.6823 119.537 63.9354 122.911 64.1989 126.281C64.2682 127.165 64.3687 128.046 64.452 128.93C64.4901 129.339 64.5282 129.752 64.5872 130.376C64.2335 130.077 64.0116 129.894 63.7967 129.703ZM78.3793 128.881C78.3134 129.53 78.147 129.613 77.5472 129.672C75.5918 129.869 73.6363 130.095 71.6774 130.289C69.8294 130.473 67.9815 130.636 66.13 130.802C65.9671 130.816 65.8007 130.806 65.6446 130.806C64.1677 111.428 62.6907 92.0607 61.2102 72.6726C61.3558 72.5963 61.4044 72.5547 61.4529 72.5513C64.0186 72.4473 66.3727 71.5319 68.7442 70.6756C72.3986 69.3546 75.8969 67.6765 79.3917 65.9915C81.413 65.0173 83.4413 64.0569 85.4695 63.093C85.6637 62.9994 85.8786 62.9439 86.2184 62.8226C86.1733 63.4467 86.1803 63.9875 86.0936 64.5145C85.5597 67.8256 84.9737 71.1263 84.4641 74.4408C83.892 78.1368 83.3373 81.8396 82.8553 85.5494C82.2763 90.0012 81.7493 94.4634 81.2605 98.9255C80.8028 103.114 80.4041 107.309 80.0123 111.504C79.6205 115.699 79.2808 119.901 78.8994 124.097C78.7538 125.692 78.5388 127.283 78.3793 128.881ZM93.1041 108.921C92.7678 110.575 92.6014 112.26 92.3448 113.928C92.3136 114.129 92.2269 114.354 92.0917 114.503C91.6202 115.048 91.1244 115.571 90.6216 116.088C88.5726 118.192 86.4854 120.262 84.471 122.405C84.3774 122.502 84.2907 122.606 84.1971 122.703C82.9524 124.048 81.7771 125.456 80.5705 126.839C80.5185 126.902 80.463 126.964 80.411 127.023C80.2723 127.182 80.1302 127.342 79.9915 127.498C79.943 127.474 79.8944 127.453 79.8459 127.429C79.8424 127.425 79.8355 127.425 79.832 127.422C79.9603 125.962 80.0747 124.499 80.2169 123.039C80.3556 121.628 80.4942 120.214 80.6329 118.802C80.6884 118.227 80.7473 117.655 80.8063 117.079C80.9311 115.838 81.0559 114.6 81.1877 113.359C81.6523 108.949 82.1376 104.539 82.6196 100.132C82.7305 99.1336 82.838 98.1385 82.9455 97.14C82.9698 96.9146 82.994 96.6858 83.0183 96.4604C83.1778 94.9973 83.3407 93.5376 83.5037 92.078C83.6181 91.0344 83.736 89.9908 83.8573 88.9472C83.9163 88.4341 83.9717 87.9209 84.0307 87.4078C84.679 81.902 85.3551 76.4032 86.3952 70.9529C86.8217 68.7236 87.0956 66.463 87.418 64.2129C87.4874 63.7206 87.4978 63.2178 87.4839 62.7186C87.4735 62.3823 87.5567 62.1569 87.8272 61.9385C88.6142 61.2901 89.3769 60.621 90.1293 59.9414C93.7802 56.6407 97.0705 52.9864 100.229 49.2073C101.186 48.0631 102.177 46.9467 103.256 45.6951C103.284 45.9516 103.318 46.0695 103.304 46.177C102.992 48.708 102.701 51.239 102.351 53.7665C101.956 56.6199 101.505 59.4699 101.078 62.3198C100.662 65.1143 100.309 67.9227 99.806 70.7033C99.3761 73.1025 98.7485 75.4636 98.2597 77.8525C97.2265 82.904 96.3944 87.9937 95.8084 93.1146C95.2017 98.4297 94.1685 103.675 93.1041 108.921ZM93.9397 113.005C93.8773 111.553 94.1096 110.253 94.3939 108.949C95.2017 105.267 96.0442 101.592 96.7203 97.8854C97.2611 94.9141 97.535 91.8977 97.9996 88.9125C98.5717 85.2166 99.2166 81.5276 99.8337 77.8386C99.8545 77.7138 99.9204 77.5959 100.014 77.3428C100.232 77.745 100.382 78.0293 100.541 78.3136C102.521 81.85 104.695 85.2617 107.077 88.5415C109.098 91.3222 111.58 93.659 114.215 95.8363C114.787 96.3113 115.446 96.6788 116.084 97.1088C108.716 102.396 101.356 107.68 93.9397 113.005ZM123.642 97.4971C121.253 99.3901 118.865 101.29 116.462 103.166C115.148 104.192 113.848 105.225 112.783 106.522C112.669 106.661 112.496 106.792 112.326 106.837C108.963 107.749 105.624 108.737 102.323 109.843C101.581 110.093 100.839 110.339 100.104 110.603C100.031 110.63 99.9482 110.63 99.8719 110.644C99.8545 110.61 99.8337 110.575 99.8164 110.54C100.416 110.1 101.019 109.656 101.619 109.216C106.026 105.988 110.436 102.767 114.836 99.5288C115.685 98.9047 116.493 98.2286 117.311 97.563C117.554 97.3653 117.783 97.2266 118.119 97.2162C118.473 97.2058 118.827 97.1885 119.18 97.1746C120.709 97.1157 122.242 97.0498 123.771 96.9839C123.85 96.9805 123.934 96.9978 124.117 97.0186C123.927 97.2162 123.798 97.3757 123.642 97.4971ZM137.833 66.2723C136.911 68.4393 135.978 70.6028 135.063 72.7732C133.069 77.4954 131.072 82.2175 129.1 86.9501C128.066 89.4326 127.085 91.9358 126.076 94.4252C125.962 94.706 125.823 94.9799 125.705 95.2608C125.577 95.5728 125.376 95.7115 125.012 95.7289C123.49 95.8051 121.968 95.9161 120.449 96.0236C120.304 96.034 120.158 96.0513 120.012 96.0721C119.745 96.1033 119.478 96.138 119.208 96.1588C118.889 96.1796 118.57 96.1622 118.13 96.1622C118.161 96.0998 118.189 96.0409 118.22 95.9785C118.237 95.9403 118.254 95.9057 118.275 95.8675C122.984 86.5376 127.04 77.0481 130.386 67.2293C130.58 67.1842 130.774 67.1426 130.968 67.0975C133.322 66.5705 135.687 66.0435 138.1 65.5061C138.01 65.7731 137.934 66.0296 137.833 66.2723Z" fill="black"/>
<path d="M56.6682 49.3701C59.5285 44.1764 62.2571 38.9168 64.7396 33.5324C64.7985 33.4075 64.8887 33.2758 64.8887 33.151C64.8887 32.9811 64.8124 32.8147 64.7708 32.6448C64.5974 32.6968 64.3582 32.7003 64.2681 32.8147C63.9941 33.1579 63.7411 33.5324 63.5434 33.9241C61.9624 37.0653 60.3606 40.1961 58.8351 43.3651C57.9094 45.2858 57.105 47.2621 56.2556 49.2175C56.1308 49.5018 56.0683 49.8139 55.9747 50.112C56.0267 50.1363 56.0822 50.1571 56.1342 50.1814C56.3145 49.9144 56.5121 49.6544 56.6682 49.3701Z" fill="black"/>
<path d="M80.0157 93.6067C79.9082 94.0817 79.7765 94.5497 79.6967 95.0282C79.0865 98.7172 78.4312 102.399 77.8973 106.099C77.4362 109.278 77.1068 112.475 76.7324 115.664C76.6457 116.396 76.7705 116.708 77.1033 116.698C77.6442 116.68 77.6442 116.226 77.7066 115.852C77.925 114.541 78.1816 113.234 78.3376 111.913C78.9028 107.128 79.4471 102.34 79.9706 97.5488C80.1128 96.259 80.1474 94.9589 80.2341 93.6622C80.1613 93.6448 80.0885 93.6275 80.0157 93.6067Z" fill="black"/>
<path d="M95.9887 23.4876C96.7896 27.5684 97.8367 31.5833 99.1577 35.5254C99.2617 35.8409 99.3622 36.1633 99.5321 36.4441C99.6084 36.5724 99.865 36.6972 99.9967 36.6626C100.128 36.6279 100.246 36.4025 100.291 36.2396C100.333 36.0905 100.281 35.9102 100.243 35.7507C99.9794 34.617 99.7228 33.4832 99.4385 32.3564C98.6827 29.3782 97.9026 26.4069 97.1467 23.4321C96.4256 20.5891 95.7356 17.7357 95.0179 14.8926C94.9139 14.487 94.7371 14.0952 94.5949 13.7C94.4979 13.7277 94.4008 13.752 94.3037 13.7797C94.3939 14.6534 94.4251 15.541 94.5845 16.4008C95.0283 18.7689 95.5241 21.123 95.9887 23.4876Z" fill="black"/>
<path d="M124.502 74.0279C124.329 73.9517 124.038 73.9101 123.92 74.0106C123.674 74.2152 123.455 74.4925 123.313 74.7838C122.741 75.9487 122.159 77.1136 121.652 78.3133C120.321 81.4753 119.024 84.6511 117.724 87.827C117.419 88.569 117.131 89.3179 116.868 90.0772C116.736 90.4585 116.677 90.8642 116.587 91.2594C116.674 91.2872 116.76 91.3149 116.847 91.3392C116.989 91.0826 117.145 90.833 117.266 90.566C118.445 88.0004 119.624 85.4382 120.786 82.8656C122.037 80.0919 123.271 77.3113 124.502 74.5307C124.568 74.3816 124.568 74.0557 124.502 74.0279Z" fill="black"/>
<path d="M20.888 58.2879C20.9296 58.4197 20.9816 58.548 21.044 58.6728C21.1619 58.9085 21.3352 59.1512 21.6091 58.9987C21.7548 58.9189 21.8449 58.6485 21.8622 58.4543C21.883 58.2429 21.8102 58.0175 21.7548 57.8025C21.2936 56.0343 20.8984 54.2418 20.3436 52.5048C19.2515 49.0724 18.0692 45.6677 16.9181 42.256C16.8245 41.9787 16.6963 41.7117 16.5333 41.3303C16.3911 41.5418 16.3357 41.5869 16.3391 41.6285C16.3461 41.7637 16.3669 41.9024 16.3911 42.0376C17.4486 47.5746 19.1995 52.9209 20.888 58.2879Z" fill="black"/>
<path d="M28.467 93.617C27.6314 89.408 26.7958 85.1954 25.9533 80.9864C25.8979 80.7021 25.8043 80.4212 25.7314 80.1404C25.6968 80.1473 25.6621 80.1577 25.6274 80.1647C25.6274 80.4594 25.5928 80.7575 25.6344 81.0488C26.0747 84.2593 26.5011 87.4733 26.9935 90.6734C27.1634 91.7933 27.4962 92.8889 27.7597 93.9915C27.8221 94.2584 27.888 94.5947 28.259 94.5323C28.6438 94.4665 28.5641 94.1405 28.519 93.8632C28.5017 93.78 28.4843 93.7002 28.467 93.617Z" fill="black"/>
<path d="M33.9413 48.0145C34.0315 48.2156 34.1286 48.4271 34.2707 48.5866C34.3643 48.6941 34.6036 48.805 34.6833 48.76C34.8151 48.6767 34.9607 48.4653 34.9468 48.3231C34.9156 47.9972 34.8081 47.6747 34.6972 47.3627C33.1231 42.9179 31.0844 38.6672 29.1671 34.3646C29.0839 34.1739 28.9487 34.004 28.8378 33.8271C28.7788 33.848 28.7199 33.8688 28.6575 33.8896C28.7164 34.1531 28.7511 34.42 28.8343 34.6731C30.3182 39.2046 31.9582 43.6737 33.9413 48.0145Z" fill="black"/>
<path d="M131.62 40.0545C130.341 42.6929 129.058 45.3279 127.81 47.9803C127.373 48.906 127.026 49.8698 126.652 50.8233C126.551 51.0799 126.468 51.3988 126.79 51.5548C127.13 51.7213 127.279 51.4266 127.418 51.1839C127.512 51.014 127.598 50.8406 127.681 50.6673C128.732 48.4102 129.81 46.167 130.812 43.8891C131.301 42.7796 131.648 41.6077 132.047 40.4566C132.151 40.1515 132.196 39.8256 132.268 39.5101C132.196 39.472 132.123 39.4373 132.05 39.3992C131.904 39.6176 131.735 39.8222 131.62 40.0545Z" fill="black"/>
<path d="M49.4185 21.4881C50.2541 24.501 51.0619 27.5208 51.8871 30.5372C51.9807 30.8839 52.1055 31.2237 52.2303 31.56C52.3205 31.8027 52.4453 32.0211 52.8683 31.8929C52.8683 31.6328 52.9237 31.3347 52.8613 31.0642C51.5646 25.4753 50.3026 19.8759 47.7023 14.696C47.6919 15.757 47.997 16.7555 48.2952 17.754C48.6661 18.9987 49.0718 20.2365 49.4185 21.4881Z" fill="black"/>
<path d="M46.7353 86.3256C47.0924 87.2548 47.557 88.1424 48.0112 89.03C48.2365 89.4703 48.559 89.5847 48.7982 89.3975C49.1206 89.1444 48.9612 88.8601 48.8329 88.5758C48.5694 87.9968 48.2781 87.4282 48.0597 86.8353C46.5619 82.8065 44.8804 78.8541 42.9908 74.9917C42.8036 74.6103 42.5782 74.2428 42.3737 73.8718C42.2939 73.9065 42.2107 73.9412 42.131 73.9758C42.2038 74.2324 42.2558 74.4959 42.3494 74.7421C43.8021 78.6079 45.2514 82.4737 46.7353 86.3256Z" fill="black"/>
</svg>
