<svg width="302" height="200" viewBox="0 0 302 200" fill="none" xmlns="http://www.w3.org/2000/svg">
<path d="M115.92 113.23L119.9 113.75L115.72 109.54L121.25 112.13L117.05 107.89L121.24 109.55L118.29 106.2L122.51 107.86L122.28 106.41L120.01 103.54L122.74 104.16L126.37 105.42L123.38 102.04L125.06 101.93L125.48 100.94L126.02 100.03L128.61 100.56L128.55 99.23L129.67 98.73L126.39 95.1499L127.87 94.8999L131.96 96.47L127.67 92.1799L129.75 92.3501L133.38 93.6001L132.78 91.8999L135.37 92.4199L136.46 91.9099L134.77 89.4299L133.38 87.1699L134.14 86.4099L133.6 84.75L135.9 85.0701L136.75 84.3799L136.28 82.76L140.63 84.52L136.92 80.6299L140.59 81.9199L141.98 81.6101L140.68 79.4099L141.26 78.53L144.49 79.51L141.13 75.8701L142.22 75.3501L145.14 76.1101L144.06 74.0701L147.22 75L143.06 70.79L145.36 71.1101L145.65 70.03L147.22 69.8401L147.68 68.8799L147.89 67.74L150.34 68.1699L148.95 65.9099L147.53 63.6201L150.62 64.49L153.52 65.24L153.48 63.9299L152.74 62.1101L151.53 59.98L152.39 59.28L152.57 58.1201L153.52 57.5L155.7 57.73L157.74 57.8701L154.03 53.99L156 54.0701L157.21 53.6299L158.55 53.28L159.81 52.8701L158.45 50.6299L163.34 52.76L160.77 49.6699L162.19 49.3601L162.31 48.1599L162.02 46.6499L163.14 43.8L164.57 47.04L164.94 48.28L164.01 51.3799L166.65 49.3799L169.16 47.5801L166.98 52.45L171.14 48.3L168.32 54.1001L169.97 53.51L172.92 51.0801L172.16 53.96L172.52 53.73L174.6 55.46L173.21 55.77L174.83 58.1899L172.94 58.1499L173.15 59.5801L167.75 57.0901L169.2 59.3899L166.5 58.79L166.1 59.79L166.07 61.0601L167.21 63.1499L169.49 66.03L163.13 62.8601L164.02 64.77L163.7 65.8301L163.57 67.02L164.95 69.27L161.58 68.2L160.68 68.8601L160.77 70.21L162.47 72.6899L159.01 71.55L156.73 71.24L156.89 72.6399L160.55 76.49L159.43 77L157.25 76.76L156.23 77.3201L157.34 79.3899L154.93 78.99L157.59 82.1499L152.77 80.05L151.82 80.6699L152.26 82.27L153.76 84.6101L150.13 83.3601L154.35 87.6001L152.91 87.8799L151.34 88.0701L149.29 87.9099L147.4 87.8799L149.56 90.6699L146.18 89.5901L148.92 92.79L146.82 92.6001L147.69 94.5L147.33 95.54L143.62 94.22L141.62 94.1101L143.04 96.3899L140.98 96.24L139.8 96.7L144.21 101.07L138.63 98.46L140.84 101.3L137.04 99.9199L141.28 104.18L138.39 103.45L136 103.06L138.42 106.05L133.71 104.04L138.49 108.68L138.23 109.79L137.66 110.68L137 111.51L134.74 111.21L133.39 111.55L134.05 113.31L130.15 111.87L129.73 112.87L132.65 116.2L129.36 115.19L131.54 118.01L126.66 115.89L128.25 118.3L126.23 118.18L126.92 119.33L127.36 117.87L126.41 117.45L123.93 119.23L123.35 118.28L123.82 115.83L122.23 116.33L122.08 114.77L121.84 113.34L117.66 117.53L117.05 116.62L118.96 110.59L115.92 113.23Z" fill="#26314D"/>
<path d="M140.07 83.9099C139.88 83.5557 139.609 83.2516 139.278 83.0222C138.948 82.7928 138.568 82.6447 138.17 82.5901L136.17 80.1001C136.17 80.1001 132.83 80.3199 130.91 80.6799C130.569 80.738 130.234 80.8284 129.91 80.95C129.733 81.0335 129.568 81.1412 129.42 81.27C127.466 81.6179 125.461 81.5395 123.54 81.04C123.07 82.6 122.36 84.3301 121.96 86.1001C123.421 86.2167 124.874 86.4237 126.31 86.72C126.319 86.9287 126.381 87.1317 126.49 87.3101C127.49 88.8001 132.49 90.55 134.49 90.04C135.61 89.74 137.43 85.97 137.43 85.97C137.43 85.97 140.6 85.0699 140.07 83.9099Z" fill="#C5D8EB"/>
<path d="M104.42 95.05C123.57 95.61 131.16 97.6999 128.88 113.4C126.6 129.1 129.16 140.32 129.16 140.32L116.55 143.91C114.97 138.068 113.774 132.128 112.97 126.13C112.13 118.36 114.55 113.54 114.55 113.54C114.55 113.54 98.32 118.33 88.31 117.62C78.3 116.91 67.3099 107.9 68.8599 98.76C70.4099 89.62 71.8599 86.8601 71.8599 86.8601C71.8599 86.8601 79.78 96.86 90.65 96.74C101.52 96.62 104.42 95.05 104.42 95.05Z" fill="#7A1F0C"/>
<path d="M119.3 80.2C117.3 79.68 110.5 77.8901 108.18 75.6001C105.86 73.3101 106.01 71.8999 106.01 71.8999C106.01 71.8999 107.91 69.9001 110.19 67.0901C105.72 67.2201 101.26 67.2501 96.8101 67.0901C96.1301 68.4801 95.6399 69.4999 95.4499 69.9199C94.4499 71.9699 92.23 76.6 95.98 79.05C99.73 81.5 111.45 84.57 115.8 85.51C118.29 86.04 120.07 86.22 122.16 86.51C122.23 84.71 122.87 83.63 124.31 80.76C122.61 80.51 120.23 80.44 119.3 80.2Z" fill="#B32D11"/>
<path d="M130.08 45.7599C137.46 56.5999 126.91 70.94 116.71 80.06C106.51 89.18 100.97 93.31 99.7099 96.59C98.4499 99.87 71.4 101.35 70.02 100.66C68.64 99.9698 60.53 103.23 65.39 90.12C70.25 77.01 88.94 57.05 105.53 48.12C122.12 39.19 127.84 42.4699 130.08 45.7599Z" fill="#B32D11"/>
<path d="M130.08 45.7599C129.871 45.4594 129.644 45.1721 129.4 44.8998C125.64 44.3498 119.76 45.4999 110.4 50.5399C93.8101 59.4699 75.1301 79.4499 70.2701 92.5399C68.7801 96.5399 68.5101 99.0099 68.8801 100.54C69.2801 100.496 69.6847 100.534 70.07 100.65C71.45 101.34 98.5501 99.86 99.7601 96.58C100.97 93.3 106.51 89.1799 116.76 80.0499C127.01 70.9199 137.46 56.5999 130.08 45.7599Z" fill="#FF3333"/>
<path d="M124.02 61.1499C128.239 61.1499 131.66 57.7295 131.66 53.51C131.66 49.2906 128.239 45.8701 124.02 45.8701C119.801 45.8701 116.38 49.2906 116.38 53.51C116.38 57.7295 119.801 61.1499 124.02 61.1499Z" fill="#B32D11"/>
<path d="M195.63 58.53C195.13 57.9 192.1 56.5299 191.51 55.6399C183.13 42.7499 166.96 39.9299 166.96 39.9299C166.96 39.9299 167.96 50.23 171.96 55.29C168.02 55.36 165.76 57.14 160.73 62.74C154.79 69.35 134.27 100.94 134.27 100.94C134.27 100.94 96.43 114.85 62.76 118.11C29.09 121.37 113.28 184.11 113.28 184.11C113.28 184.11 176.58 155 176 132C175.42 109 173.73 90.0001 179.06 88.3701C179.422 88.2663 179.789 88.1828 180.16 88.1201L180.44 88.51C185.44 95.15 192.81 91.7 192.81 91.7C194.761 94.496 197.441 96.703 200.56 98.0801C204.416 99.6459 208.388 100.91 212.44 101.86C212.44 101.86 212.26 105.72 216.07 105.35C219.88 104.98 219.5 101.18 219.5 101.18C220.809 101.674 222.144 102.094 223.5 102.44C225.18 102.82 229.39 95.2899 229.02 91.4399C228.67 88.3399 208.59 68 195.63 58.53Z" fill="#3697E3"/>
<path d="M229 91.49C228.73 88.7 213 72.4899 200.37 62.1899C199.504 61.7562 198.714 61.1855 198.03 60.5C197.95 60.37 197.87 60.2599 197.79 60.1399C197.06 59.5799 196.34 59.04 195.65 58.53C195.15 57.9 192.12 56.5299 191.53 55.6399C190.812 54.5369 190.003 53.4967 189.11 52.53C184.223 50.2029 178.801 49.2323 173.41 49.72C174.314 53.5103 176.019 57.0632 178.41 60.1399C174.47 60.2199 172.21 61.9901 167.18 67.6001C161.24 74.2001 140.72 105.8 140.72 105.8C140.72 105.8 98.32 119.69 64.65 122.95C37.03 125.63 68.2 167.07 80.41 183.26C91.62 178.52 177.7 165.04 173 130C170 107.22 173.73 90.0001 179.06 88.3701C179.422 88.2663 179.789 88.1828 180.16 88.1201L180.44 88.51C185.44 95.15 192.81 91.6999 192.81 91.6999C194.275 93.8027 196.161 95.577 198.35 96.9099C198.691 96.8135 199.025 96.6933 199.35 96.55C199.694 97.0704 200.075 97.565 200.49 98.03H200.6C204.456 99.5959 208.428 100.86 212.48 101.81C212.48 101.81 212.3 105.67 216.11 105.3C219.92 104.93 219.54 101.13 219.54 101.13C220.849 101.624 222.184 102.044 223.54 102.39C225.14 102.82 229.35 95.29 229 91.49Z" fill="#328FD9"/>
<path d="M211.57 92.5801C208.86 91.1301 171.86 67.0601 164.83 57.5801L167.9 55.3101C174.25 63.8801 209.7 87.25 213.37 89.22L211.57 92.5801Z" fill="#0A4586"/>
<path d="M210.1 102.4L206.53 101.03C208.53 95.8 216.1 83.0299 219.72 79.3999L222.44 82.0801C219.24 85.3201 211.92 97.6499 210.1 102.4Z" fill="#0A4586"/>
<path d="M190.58 67.0901C192.068 66.268 193.74 65.8367 195.44 65.8367C197.14 65.8367 198.812 66.268 200.3 67.0901C200.3 67.0901 195.3 68.0299 193.36 71.9199L190.58 67.0901Z" fill="white"/>
<path d="M194.33 65.8999C194.28 66.3284 194.28 66.7614 194.33 67.1899C194.415 68.0594 194.706 68.8959 195.18 69.6299C196.668 68.3739 198.439 67.4989 200.34 67.0801C198.511 66.0627 196.408 65.6495 194.33 65.8999Z" fill="#0A4586"/>
<path d="M198.9 67C198.879 66.7857 198.815 66.5779 198.71 66.3899C197.93 66.1252 197.121 65.9573 196.3 65.8899C196.087 66.0564 195.92 66.2738 195.814 66.522C195.707 66.7701 195.664 67.0412 195.69 67.3101C195.719 67.5798 195.814 67.838 195.968 68.0615C196.121 68.285 196.328 68.4668 196.57 68.5901C197.296 68.1551 198.063 67.7932 198.86 67.51C198.904 67.3438 198.917 67.171 198.9 67Z" fill="#26314D"/>
<path d="M187.71 56C184.2 48.12 171.83 44.9299 171.83 44.9299L177.99 57.49C177.99 57.49 188.71 58.26 187.71 56Z" fill="#2078BF"/>
<path d="M210.7 97.3401C213.412 97.3401 215.61 95.1416 215.61 92.4299C215.61 89.7182 213.412 87.52 210.7 87.52C207.988 87.52 205.79 89.7182 205.79 92.4299C205.79 95.1416 207.988 97.3401 210.7 97.3401Z" stroke="white" stroke-width="4" stroke-miterlimit="10"/>
<path d="M162.26 121.53C162.26 121.53 154.8 129.38 151.26 143.97C147.72 158.56 126.64 167.19 126.64 167.19L125.89 174.61C138.64 175.02 151.39 175.55 164.16 176.08C170.66 164.14 171.62 146.61 162.26 121.53Z" fill="#3697E3"/>
<path d="M161 119.6C161 119.6 148.67 133.81 145.15 148.41C141.63 163.01 120.01 166.19 120.01 166.19L119.34 174.41C132.93 174.8 146.54 175.35 160.16 175.91C164.59 164.2 166 143.32 161 119.6Z" fill="#328FD9"/>
<path d="M143 39.75C143.7 44.75 140.75 45.0901 140.4 47.5101C140.05 49.9301 143.14 54.0701 141.59 54.5801C140.459 54.8736 139.271 54.8736 138.14 54.5801C138.14 54.5801 135.88 58.19 135.71 59.4C135.54 60.61 132.94 61.47 130.71 59.91C128.48 58.35 122.77 60.23 120.88 57.99C118.99 55.75 116.24 49.1701 118.49 45.5601C120.74 41.9501 142.18 33.71 143 39.75Z" fill="white"/>
<path d="M135.1 43.4289C145.929 40.771 154.504 37.7857 154.252 36.7612C154.001 35.7368 145.018 37.061 134.189 39.7189C123.36 42.3768 114.785 45.3619 115.036 46.3864C115.288 47.4108 124.27 46.0868 135.1 43.4289Z" fill="#0A4586"/>
<path d="M126.63 42.3C131.1 48.86 135.76 50.7699 138.35 49.9199C140.94 49.0699 144.57 44.4101 143.89 40.6101C143.21 36.8101 143.05 32.8399 140.46 33.6999C137.87 34.5599 126.63 42.3 126.63 42.3Z" fill="#26314D"/>
<path d="M144.77 34.5702C141.84 25.7002 132.62 20.7802 124.18 23.5702C115.74 26.3602 111.27 35.81 114.18 44.68C114.398 45.3383 114.655 45.9829 114.95 46.6102C125.39 45.5102 135.69 42.61 145.64 39.44C145.578 37.7841 145.285 36.1451 144.77 34.5702Z" fill="#0A4586"/>
<path d="M118.75 91.46C116.33 91.11 107.88 89.88 104.75 87.46C101.62 85.04 101.65 83.3101 101.65 83.3101C101.65 83.3101 115.65 64.8801 113.11 57.1001C110.57 49.3201 101.56 50.0001 99.48 54.1001C96.71 59.6101 89.5799 79.7902 88.7099 82.3702C87.8399 84.9501 85.7099 90.82 90.5899 93.25C95.4699 95.68 109.9 97.7801 115.25 98.3101C117.119 98.4707 118.994 98.5374 120.87 98.51C121.13 96.2 121.78 93.8901 122.15 91.8401C120.8 91.7501 119.56 91.58 118.75 91.46Z" fill="#B32D11"/>
<path d="M110.31 69.4901C112.58 64.8901 114.15 60.1702 113.14 57.1002C110.57 49.3302 101.59 50.0002 99.51 54.1002C98.28 56.5402 96.1999 61.8501 94.1899 67.2401C100.55 65.1301 106.49 65.6801 110.31 69.4901Z" fill="#7A1F0C"/>
<path d="M98.72 96.9299C117.87 97.4999 125.46 99.59 123.18 115.28C120.9 130.97 123.46 142.2 123.46 142.2L110.85 145.8C109.276 139.956 108.08 134.017 107.27 128.02C106.43 120.25 108.86 115.42 108.86 115.42C108.86 115.42 92.62 120.21 82.62 119.5C72.62 118.79 61.62 109.79 63.16 100.64C64.7 91.4899 66.16 88.74 66.16 88.74C66.16 88.74 74.08 98.7401 84.95 98.6201C95.82 98.5001 98.72 96.9299 98.72 96.9299Z" fill="#7A1F0C"/>
<path d="M139.34 97.0601C139.131 96.6723 138.834 96.339 138.473 96.0872C138.112 95.8353 137.696 95.6719 137.26 95.6101L135.04 92.8701C135.04 92.8701 131.36 93.11 129.25 93.51C128.858 93.5717 128.472 93.6722 128.1 93.8101C127.904 93.8998 127.722 94.0175 127.56 94.1599C125.79 94.6699 123.22 94.3399 121.09 93.9099C120.57 95.6199 119.79 97.53 119.35 99.48C120.958 99.6107 122.558 99.8343 124.14 100.15C124.147 100.382 124.212 100.61 124.33 100.81C125.39 102.44 130.94 104.37 133.1 103.81C134.32 103.48 136.33 99.3301 136.33 99.3301C136.33 99.3301 139.93 98.3401 139.34 97.0601Z" fill="white"/>
<path d="M135 92.8701C135 92.8701 131.32 93.11 129.21 93.51C129.335 93.7622 129.5 93.992 129.7 94.1899C130.93 95.3999 137.22 95.6101 137.22 95.6101L135 92.8701Z" fill="url(#paint0_radial)"/>
<path d="M14.93 69.8601C10.73 78.4501 6.09 90.8599 9.53 105.39C9.98 107.29 15.23 111.77 18.53 111.28C21.83 110.79 25.27 98.1 25.27 90.01C25.27 81.92 18.82 73.1901 14.93 69.8601Z" fill="#C5D8EB"/>
<path d="M14.93 69.8601C11.6796 76.1552 9.54465 82.9659 8.62 89.99C14.4149 89.4659 20.2112 90.9795 25.01 94.27C25.1762 92.856 25.263 91.4338 25.27 90.01C25.27 81.92 18.82 73.1901 14.93 69.8601Z" fill="#26314D"/>
<path d="M56.71 35C56.7045 41.0366 57.3992 47.0534 58.78 52.9299C58.78 52.9299 48.85 57.82 43.67 56.49C38.49 55.16 38.03 54.27 38.03 54.27C39.0829 51.6061 39.7822 48.8156 40.11 45.97C40.26 42.55 56.71 35 56.71 35Z" fill="#C5D8EB"/>
<path d="M39.79 96.8701L38.63 134.87C38.4899 137.211 38.1554 139.535 37.63 141.82C35.24 132.9 35.5099 101.08 36.8199 98.9299C37.8462 98.2971 38.8377 97.6097 39.79 96.8701Z" fill="#343845"/>
<path d="M40.85 105.83C41.5072 105.83 42.04 105.297 42.04 104.64C42.04 103.983 41.5072 103.45 40.85 103.45C40.1928 103.45 39.66 103.983 39.66 104.64C39.66 105.297 40.1928 105.83 40.85 105.83Z" fill="#292C36"/>
<path d="M84 68.78C82.91 67.2 74.45 62.2301 68.88 59.0701C66.8766 57.8706 65.1516 56.2582 63.8199 54.3401C62.9275 53.1255 61.7258 52.1725 60.34 51.5801C60.34 51.5801 43.03 62.29 38.13 52.26C36.8461 52.7711 35.7452 53.656 34.97 54.8C33.3758 56.781 31.3958 58.4175 29.15 59.6101C22.7 63.0001 15.95 68.2701 14.64 69.8201C13.01 71.7401 23.38 83.45 23.38 83.45C23.38 83.45 25.16 123.32 24.38 129.1C23.6 134.88 22.6 139.77 22.9 142.43C23.2 145.09 34.31 145.43 36.24 144.51C36.7917 144.109 37.1818 143.524 37.34 142.86C37.4615 142.533 37.565 142.199 37.65 141.86C37.76 141.45 37.8499 141.01 37.9399 140.57C38.3199 142.49 38.79 143.77 39.35 144.09C45.7 147.8 65.88 143.2 65.88 140.98C65.88 138.76 63.5 125.72 63.65 120.09C63.8 114.46 68.99 88.22 68.99 88.22C68.99 88.22 85.61 71.15 84 68.78Z" fill="#0A4586"/>
<path d="M26.3199 87.71C25.0789 87.8485 23.8514 88.0893 22.65 88.4299C21.22 88.8899 20.85 93.97 21 93.75C21.15 93.53 28.42 91.8 28.42 91.8L26.3199 87.71Z" fill="white"/>
<path d="M19 93.1899C15.41 96.0299 14.21 111.94 18.56 111.28C21.56 110.84 34.77 103.06 42.97 98.1101C39.08 96.0301 35.32 93.69 31.61 91.26C26.28 92.12 21.47 92.9399 19 93.1899Z" fill="#C5D8EB"/>
<path d="M20.17 92.9C20.17 92.9 17.35 90.27 14.68 91.9C15.0881 91.7962 15.513 91.7766 15.929 91.8419C16.345 91.9072 16.7433 92.0563 17.1 92.2801C16.3264 92.4003 15.6165 92.7791 15.0861 93.3548C14.5558 93.9306 14.2363 94.6693 14.18 95.45C14.18 95.45 15.98 91.9 18.97 93.18L20.17 92.9Z" fill="#A3BDD6"/>
<path d="M52.5601 111.23C52.5601 111.23 68.01 106.15 74.91 97.8101C81.81 89.4701 83.91 69 83.91 69C83.91 69 73.12 73.5699 66.97 83.6599C62.32 86.3799 52.97 92.6599 52.97 92.6599L52.5601 111.23Z" fill="white"/>
<path d="M72.12 101.11C73.12 100.22 73.83 99 74.89 98.28C91.89 86.81 84.21 68.4299 84.21 68.4299C84.21 68.4299 73.03 73.1701 66.66 83.6201C66.07 83.9701 65.4 84.3701 64.66 84.8101C67.74 90.3101 70.68 96.1901 72.12 101.11Z" fill="#26314D"/>
<path d="M65.83 85.1499C62.876 85.0747 59.9233 85.3398 57.03 85.94C55.9211 86.2383 54.8745 86.7327 53.9399 87.3999C52.9816 87.8741 51.9761 88.2463 50.9399 88.51L48.51 88.93C43.89 89.29 37.51 90.3 31.62 91.26C35.33 93.69 39.09 96.0301 42.98 98.1101C46.79 95.8101 49.5 94.1101 49.6 94.1101H50.6H50.76L50.7 93.99L50.58 93.74C50.99 93.58 51.48 93.3701 52 93.1201C52.9313 93.0644 53.8284 92.749 54.59 92.21C56.76 91.44 57.67 91.8199 58.49 92.3799C59.31 92.9399 60.49 92.2101 60.09 91.3101H60.14C62.38 91.7101 63.26 91.2201 62.78 90.3701C64.57 91.2301 64.62 89.37 63.59 88.17C63.2499 87.7823 62.856 87.4455 62.42 87.17C63.1434 87.0583 63.8583 86.898 64.5601 86.69C66.5001 86 66.8 85.2099 65.83 85.1499Z" fill="#C5D8EB"/>
<path d="M52.5601 111.23C42.6701 107.4 23.92 90.03 23.92 90.03C23.92 90.03 25.27 87.03 27.67 86.74C32.02 88.74 46.57 92.74 53.01 92.74C55.11 95.6 52.5601 111.23 52.5601 111.23Z" fill="white"/>
<path d="M42.7801 8.54002C41.6226 8.92426 40.573 9.57796 39.7176 10.4472C38.8622 11.3165 38.2256 12.3765 37.86 13.54C36.915 16.443 36.4852 19.4889 36.59 22.54C36.6241 25.2929 36.1914 28.0316 35.3101 30.6399C34.3101 33.5799 38.14 46.39 39.19 47.55C40.24 48.71 46.9601 49.55 48.5401 48.81C50.1201 48.07 56.41 45.03 57.46 43.03C58.51 41.03 62.82 27.81 62.82 27.81C62.82 27.81 64.8201 20.5599 64.9201 16.6699C65.0201 12.7799 59.98 9.32005 59.98 9.32005C59.98 9.32005 54.74 6.45993 49.33 7.19993C47.1115 7.45329 44.9198 7.90178 42.7801 8.54002Z" fill="white"/>
<path d="M54.71 28.16C53.987 28.3037 53.2555 28.4006 52.52 28.45H51.8C51.5036 28.4649 51.2065 28.4649 50.91 28.45L50.04 28.3899C49.3965 28.3258 48.7623 28.1883 48.15 27.98C48.3313 27.1566 48.6099 26.3577 48.98 25.6001C49.3977 25.5386 49.8222 25.5386 50.24 25.6001H50.6899L51.9399 25.72L52.9399 25.8601C53.3642 25.902 53.7812 25.9993 54.1801 26.1499C54.8201 26.5299 54.71 28.16 54.71 28.16Z" fill="#EFF5FC"/>
<path d="M52.6099 27.0701C52.6099 27.3567 52.5352 27.6385 52.3931 27.8875C52.2511 28.1364 52.0467 28.3441 51.8 28.49C51.5035 28.5049 51.2065 28.5049 50.91 28.49L50.04 28.4299C49.8242 28.277 49.6481 28.0747 49.5263 27.8398C49.4046 27.605 49.3406 27.3446 49.3399 27.0801C49.3371 26.7766 49.4201 26.4785 49.5793 26.2202C49.7385 25.9619 49.9676 25.7539 50.2399 25.6201H50.6899L51.9399 25.74C52.1492 25.8925 52.3192 26.0927 52.4357 26.324C52.5523 26.5553 52.6119 26.8111 52.6099 27.0701Z" fill="#0A4586"/>
<path d="M44.7601 24.6499C44.8701 28.2299 42.65 32.1399 42.2 32.8899C41.75 33.6399 46.09 34.44 47.87 33.26C46.3035 33.6685 44.6414 33.487 43.2 32.75C43.15 32.51 45.7001 29.1199 44.7601 24.6499Z" fill="#DCECF7"/>
<path d="M43.2 27.9299H42.28H42.16C41.75 27.9299 41.37 27.9299 41.01 27.9299C40.65 27.9299 40.5301 27.9301 40.3101 27.8701L39.67 27.8101C39.0865 27.75 38.5081 27.6463 37.9399 27.5C37.9399 27.5 38.23 25.38 38.67 25.29C38.78 25.29 39.09 25.29 39.5 25.23H40.59H41.36C41.65 25.23 41.9401 25.23 42.1801 25.28C42.4701 25.2755 42.7573 25.337 43.02 25.46C43.37 25.8 43.2 27.9299 43.2 27.9299Z" fill="#EFF5FC"/>
<path d="M41.8 26.4299C41.8104 26.7257 41.7428 27.019 41.6041 27.2805C41.4655 27.542 41.2606 27.7625 41.01 27.9199C40.77 27.9199 40.5301 27.9201 40.3101 27.8601L39.67 27.8C39.4719 27.6317 39.3135 27.4215 39.2063 27.1846C39.0991 26.9477 39.0458 26.6899 39.05 26.4299C39.0472 25.9852 39.2072 25.5548 39.5 25.22H40.59H41.36C41.6551 25.5527 41.8125 25.9853 41.8 26.4299Z" fill="#0A4586"/>
<path d="M60.8199 11.76C55.0399 9.70003 40.82 11.1499 37.76 11.6499C34.7 12.1499 37.26 9.75992 37.09 9.64992C36.92 9.53992 33.81 9.88004 33.64 8.27004C33.47 6.66004 37.92 5.20998 37.92 5.20998C37.92 5.20998 36.87 4.14995 37.26 3.42995C37.65 2.70995 41.15 1.15003 49.59 1.76003C47.26 -0.239969 56.48 0.929982 61.65 3.20998C66.82 5.48998 66.49 9.26998 65.76 10.71C66.8163 11.8864 67.6146 13.2709 68.1037 14.7744C68.5929 16.278 68.7619 17.8672 68.6 19.44C68.49 21.66 64.04 29.8301 64.04 29.8301L61.78 32.1201L59.5 31.24C59.5 31.24 63.76 21.24 63.76 18.94C63.76 16.64 60.8199 11.76 60.8199 11.76Z" fill="#26314D"/>
<path d="M60.43 31.6398C62.68 28.7698 66.5399 28.2999 66.1199 31.6899C65.6999 35.0799 59.21 41.16 59.28 36.86C59.2853 35.0578 59.6775 33.2774 60.43 31.6398Z" fill="white"/>
<path d="M64.5 32C63.5 29.6 60.1699 34.1499 61.2099 36.1299C61.3199 33.9999 63.25 31.17 64.5 32Z" fill="#DCECF7"/>
<path d="M48.85 25.3201V25.77C48.85 25.77 53.9301 25.99 54.5601 26.77C54.7801 25.39 48.85 25.3201 48.85 25.3201Z" fill="#A3BDD6"/>
<path d="M38.67 25.2801C40.169 25.2595 41.6672 25.3599 43.15 25.5801L43.22 25.0601C43.22 25.0601 38.74 24.3601 38.67 25.2801Z" fill="#A3BDD6"/>
<path d="M48.32 20.72C50.52 22.3 55.32 20.5399 55.97 20.4399C56.62 20.3399 57.4001 23.6799 57.4001 23.6799C57.4001 23.6799 50.18 24.73 48.61 23.73C48.1485 22.7959 48.0453 21.725 48.32 20.72Z" fill="#26314D"/>
<path d="M44.68 16.8201C45.01 20.1001 44.51 20.6499 44.51 20.6499C44.51 20.6499 38.5099 20.2099 35.9499 21.6499C35.7869 21.0115 35.7726 20.3444 35.9078 19.6995C36.043 19.0546 36.3242 18.4491 36.73 17.9299C37.06 17.5399 44.68 16.8201 44.68 16.8201Z" fill="#26314D"/>
<path d="M44 37.05C47.2106 37.2254 50.3852 36.3012 53 34.4299C52.2055 35.8879 51.0556 37.1218 49.6571 38.0168C48.2586 38.9119 46.6567 39.4393 45 39.55L44 37.05Z" fill="#EFF5FC"/>
<path d="M196.23 168.36L172.57 192C170.622 193.946 167.983 195.042 165.23 195.05H17.06C16.7676 195.05 16.4781 195.108 16.2082 195.22C15.9382 195.332 15.693 195.497 15.4867 195.704C15.2804 195.911 15.1171 196.157 15.0061 196.427C14.8952 196.698 14.8387 196.988 14.84 197.28C14.84 197.87 15.0736 198.435 15.4896 198.853C15.9057 199.271 16.4703 199.507 17.06 199.51L170.06 199.46C172.814 199.456 175.454 198.359 177.4 196.41L205.52 168.3L196.23 168.36Z" fill="#328FD9"/>
<path d="M272.39 157.42L262 147C261.162 146.169 260.03 145.701 258.85 145.7H78.25C77.3688 145.699 76.5072 145.959 75.7741 146.448C75.0411 146.937 74.4696 147.632 74.1323 148.446C73.7949 149.26 73.7068 150.156 73.8791 151.02C74.0514 151.884 74.4762 152.678 75.0999 153.3L85.4899 163.68C85.9024 164.096 86.3931 164.426 86.9338 164.65C87.4745 164.875 88.0544 164.991 88.64 164.99H269.23C270.106 164.987 270.961 164.726 271.69 164.24C272.418 163.753 272.986 163.062 273.324 162.254C273.661 161.446 273.752 160.556 273.586 159.696C273.42 158.836 273.004 158.044 272.39 157.42Z" fill="#FF3333"/>
<path d="M67.51 185.05H258.86C259.445 185.05 260.025 184.934 260.566 184.709C261.106 184.484 261.597 184.155 262.01 183.74L284.26 161.49C284.883 160.868 285.308 160.076 285.48 159.212C285.653 158.349 285.566 157.454 285.229 156.641C284.893 155.827 284.324 155.132 283.592 154.642C282.861 154.152 282 153.891 281.12 153.89H98.67L67.51 185.05Z" fill="#0A4586"/>
<path d="M271.7 185.05C271.977 185.05 272.251 184.995 272.507 184.889C272.763 184.783 272.995 184.626 273.19 184.43L300.19 157.43C300.482 157.136 300.68 156.763 300.76 156.357C300.841 155.951 300.799 155.53 300.641 155.148C300.483 154.765 300.215 154.438 299.872 154.207C299.528 153.976 299.124 153.852 298.71 153.85C298.153 153.851 297.618 154.07 297.22 154.46L270.22 181.46C269.925 181.753 269.723 182.127 269.641 182.535C269.559 182.943 269.6 183.366 269.758 183.75C269.917 184.135 270.186 184.464 270.532 184.695C270.877 184.926 271.284 185.05 271.7 185.05Z" fill="#FF3333"/>
<path d="M289.05 176.14C289.169 176.141 289.286 176.118 289.396 176.074C289.506 176.029 289.606 175.963 289.69 175.88L301.24 164.33C301.367 164.205 301.453 164.045 301.489 163.87C301.525 163.696 301.508 163.514 301.44 163.349C301.373 163.184 301.258 163.043 301.11 162.944C300.962 162.844 300.788 162.791 300.61 162.79C300.369 162.792 300.139 162.889 299.97 163.06L288.42 174.61C288.292 174.734 288.204 174.894 288.167 175.068C288.131 175.243 288.148 175.424 288.215 175.589C288.283 175.754 288.399 175.894 288.548 175.993C288.697 176.091 288.872 176.142 289.05 176.14Z" fill="#0A4586"/>
<path d="M288.65 181.34C288.785 181.338 288.913 181.284 289.01 181.19L295.42 174.77C295.494 174.702 295.545 174.613 295.566 174.516C295.588 174.418 295.579 174.316 295.541 174.223C295.503 174.131 295.437 174.052 295.353 173.998C295.269 173.943 295.17 173.916 295.07 173.92C295.004 173.919 294.939 173.932 294.879 173.958C294.819 173.984 294.765 174.022 294.72 174.07L288.3 180.48C288.233 180.551 288.187 180.64 288.169 180.736C288.151 180.833 288.161 180.932 288.198 181.023C288.235 181.113 288.297 181.192 288.377 181.248C288.458 181.304 288.552 181.336 288.65 181.34Z" fill="#328FD9"/>
<path d="M89.58 133.12H4.45001C3.26888 133.123 2.13705 133.594 1.3028 134.43C0.468545 135.266 -2.96892e-06 136.399 0 137.58V180.58C0 181.164 0.115112 181.743 0.338745 182.283C0.562379 182.823 0.890124 183.313 1.30334 183.727C1.71657 184.14 2.20717 184.468 2.74707 184.691C3.28697 184.915 3.86563 185.03 4.45001 185.03H68.73C69.3131 185.03 69.8906 184.915 70.4293 184.692C70.9681 184.469 71.4576 184.142 71.87 183.73L99.99 155.6C100.647 154.948 101.084 154.106 101.238 153.193C101.392 152.28 101.257 151.342 100.85 150.51L93.58 135.6C93.2126 134.853 92.6429 134.225 91.9357 133.786C91.2284 133.348 90.4121 133.117 89.58 133.12Z" fill="#B32D11"/>
<path d="M1.90922e-05 186.53V143.53C1.90922e-05 142.35 0.468827 141.218 1.30336 140.383C2.1379 139.549 3.26982 139.08 4.45003 139.08H81.32C81.7364 139.083 82.1439 139.201 82.497 139.422C82.8501 139.643 83.1349 139.957 83.32 140.33L88.4 150.77C88.6063 151.189 88.6749 151.662 88.5958 152.122C88.5168 152.581 88.2942 153.004 87.96 153.33L52.57 188.15C52.3648 188.354 52.1215 188.516 51.8538 188.625C51.5861 188.735 51.2994 188.791 51.01 188.79H2.21999C1.92544 188.789 1.63412 188.729 1.36275 188.615C1.09138 188.5 0.845345 188.333 0.638935 188.123C0.432525 187.913 0.26978 187.664 0.160114 187.39C0.0504487 187.117 -0.0039463 186.825 1.90922e-05 186.53Z" fill="#FF3333"/>
<path fill-rule="evenodd" clip-rule="evenodd" d="M61.59 152C64.656 152.004 67.6543 151.099 70.2057 149.398C72.7571 147.698 74.7469 145.279 75.9235 142.448C77.1 139.616 77.4103 136.5 76.8153 133.492C76.2203 130.484 74.7467 127.721 72.5808 125.551C70.4149 123.38 67.6539 121.901 64.6473 121.301C61.6407 120.7 58.5235 121.004 55.6899 122.175C52.8563 123.346 50.4338 125.331 48.7285 127.879C47.0233 130.427 46.112 133.424 46.11 136.49C46.1153 140.597 47.7469 144.534 50.6479 147.441C53.549 150.348 57.4833 151.987 61.59 152Z" fill="white"/>
<path fill-rule="evenodd" clip-rule="evenodd" d="M57.22 121.62C54.6593 122.362 52.3332 123.751 50.4665 125.655C48.5997 127.558 47.2554 129.91 46.5635 132.485C45.8716 135.06 45.8554 137.769 46.5165 140.352C47.1777 142.935 48.4939 145.303 50.3378 147.229C52.1817 149.154 54.4911 150.571 57.0428 151.344C59.5945 152.116 62.3021 152.217 64.9042 151.637C67.5063 151.057 69.9149 149.815 71.8971 148.033C73.8794 146.25 75.3683 143.986 76.22 141.46C74.9734 142.951 73.4262 144.163 71.6795 145.016C69.9327 145.869 68.0258 146.344 66.0831 146.409C64.1403 146.475 62.2056 146.13 60.4052 145.397C58.6049 144.664 56.9794 143.56 55.6349 142.156C54.2905 140.752 53.2574 139.08 52.603 137.25C51.9485 135.419 51.6876 133.472 51.8372 131.533C51.9868 129.595 52.5436 127.711 53.4711 126.002C54.3987 124.294 55.6761 122.801 57.22 121.62Z" fill="#C5D8EB"/>
<path fill-rule="evenodd" clip-rule="evenodd" d="M57 151.28C57.35 151.39 57.69 151.49 58 151.57C57.6501 151.414 57.3392 151.181 57.09 150.89C56.6963 150.303 56.5458 149.586 56.67 148.89H56.33C56.2539 149.285 56.2581 149.691 56.3423 150.085C56.4265 150.478 56.5889 150.851 56.8199 151.18L56.97 151.35L57 151.28Z" fill="#0A4586"/>
<path fill-rule="evenodd" clip-rule="evenodd" d="M49 145.52C49.16 145.74 49.33 145.96 49.5 146.17C50.5163 146.794 51.7343 147.002 52.9 146.75L52.83 146.41C51.42 146.71 50.44 146.31 49 145.52Z" fill="#0A4586"/>
<path fill-rule="evenodd" clip-rule="evenodd" d="M46.12 135.92C46.12 136.11 46.12 136.3 46.12 136.49V136.69C46.28 136.36 46.45 136.03 46.64 135.69C47.0321 135.024 47.5058 134.409 48.05 133.86L47.8 133.62C47.2423 134.189 46.7553 134.824 46.35 135.51C46.27 135.64 46.2 135.77 46.13 135.9L46.12 135.92Z" fill="#0A4586"/>
<path fill-rule="evenodd" clip-rule="evenodd" d="M49 127.55C48.89 127.7 48.7899 127.85 48.6899 128.01V128.09C48.8299 129.76 49.0399 132.31 49.3199 134.27L49.67 134.22C49.38 132.27 49.18 129.73 49.04 128.07C49.04 127.88 49.04 127.71 49.04 127.55H49Z" fill="#0A4586"/>
<path d="M66 122.07C69.51 123.25 71.69 125.22 73.88 127.2L74.12 127.43L73.89 127.69L73.64 127.46C71.49 125.51 69.34 123.55 65.89 122.4L66 122.07Z" fill="#0A4586"/>
<path d="M63.4399 122.45C63.8199 123.74 64.1699 124.98 64.4399 126.22C64.7222 127.457 64.9095 128.714 65 129.98H64.65C64.5654 128.731 64.3849 127.491 64.11 126.27C63.83 125.05 63.49 123.82 63.11 122.52L63.4399 122.45Z" fill="#0A4586"/>
<path d="M58.49 122.7C57.2273 123.195 56.0419 123.869 54.97 124.7C54.0115 125.465 53.1723 126.368 52.48 127.38L52.2 127.18C52.9063 126.137 53.766 125.206 54.75 124.42C55.8477 123.558 57.0634 122.857 58.36 122.34L58.49 122.7Z" fill="#0A4586"/>
<path d="M52.5601 131.22L54.26 131.42C56.84 131.72 59.37 132.03 60.86 132.89L60.6899 133.19C59.2599 132.36 56.76 132.07 54.22 131.77L52.51 131.57L52.5601 131.22Z" fill="#0A4586"/>
<path d="M75.24 131.17C74.15 131.42 73.05 131.71 71.96 132C70.87 132.29 69.74 132.6 68.66 132.92L68.5699 132.59C69.6799 132.27 70.78 131.95 71.86 131.66C72.94 131.37 74.06 131.09 75.17 130.83L75.24 131.17Z" fill="#0A4586"/>
<path d="M76.84 134.72C76.7095 136.285 76.4351 137.835 76.02 139.35C75.5775 140.944 74.9287 142.474 74.09 143.9L73.79 143.73C74.6095 142.327 75.2448 140.825 75.6801 139.26C76.095 137.766 76.3695 136.235 76.5 134.69L76.84 134.72Z" fill="#0A4586"/>
<path d="M67.48 137C68.3476 138.154 69.117 139.378 69.78 140.66C70.4592 141.953 71.0538 143.29 71.5601 144.66L71.23 144.78C70.7273 143.434 70.1395 142.121 69.47 140.85C68.8134 139.587 68.0542 138.379 67.2 137.24L67.48 137Z" fill="#0A4586"/>
<path d="M63.17 137.25C62.3 138.59 61.34 139.9 60.33 141.2C59.32 142.5 58.25 143.75 57.14 145L56.87 144.78C57.98 143.53 59.05 142.27 60.05 140.99C61.05 139.71 62.05 138.39 62.88 137.06L63.17 137.25Z" fill="#0A4586"/>
<path d="M58.46 147.82C60.1148 148.346 61.8436 148.603 63.58 148.58C65.2053 148.545 66.8098 148.206 68.3101 147.58L68.4399 147.9C66.8988 148.53 65.2545 148.869 63.59 148.9C61.8161 148.922 60.0503 148.659 58.36 148.12L58.46 147.82Z" fill="#0A4586"/>
<path d="M49.64 134.26C49.9051 136.162 50.3299 138.039 50.91 139.87C51.3215 141.335 52.0953 142.673 53.16 143.76L52.92 144.01C51.8244 142.888 51.0209 141.515 50.58 140.01C49.993 138.156 49.5649 136.256 49.3 134.33L49.64 134.26Z" fill="#0A4586"/>
<path fill-rule="evenodd" clip-rule="evenodd" d="M69.41 149.88C71.1596 148.853 72.6916 147.494 73.92 145.88C74.5218 144.753 74.815 143.487 74.77 142.21C73.6273 143.084 72.2059 143.514 70.77 143.42C70.0917 145.478 68.6638 147.206 66.77 148.26C67.0325 148.714 67.4002 149.098 67.8423 149.38C68.2843 149.662 68.7878 149.833 69.3101 149.88H69.41Z" fill="#0A4586"/>
<path fill-rule="evenodd" clip-rule="evenodd" d="M77 135C76.725 132.033 75.5961 129.209 73.75 126.87C73.5265 126.761 73.2961 126.668 73.0601 126.59C73.576 127.228 73.93 127.981 74.0919 128.786C74.2539 129.59 74.2189 130.422 73.99 131.21C75.2186 132.52 76.0718 134.136 76.46 135.89C76.6905 135.627 76.8732 135.326 77 135Z" fill="#0A4586"/>
<path fill-rule="evenodd" clip-rule="evenodd" d="M61.59 121C60.5384 120.999 59.4896 121.107 58.46 121.32C58.2321 121.511 58.0468 121.748 57.9159 122.015C57.785 122.282 57.7114 122.573 57.7 122.87C62.41 123.1 63.16 123.62 63.7 124.15C64.16 123.23 65.81 123.02 67.45 122.8C66.9875 122.278 66.4179 121.862 65.78 121.58C64.407 121.192 62.9868 120.997 61.5601 121H61.59Z" fill="#0A4586"/>
<path fill-rule="evenodd" clip-rule="evenodd" d="M64.75 128.81C66.7231 129.656 68.5207 130.863 70.05 132.37C69.7935 134.495 69.2064 136.566 68.3101 138.51C66.1953 138.786 64.0596 138.866 61.9301 138.75C61.2501 136.7 60.4801 134.56 59.6801 132.62C61.1905 131.127 62.8959 129.846 64.75 128.81Z" fill="#0A4586"/>
<path fill-rule="evenodd" clip-rule="evenodd" d="M52.86 126.67C52.8311 128.35 53.1726 130.016 53.86 131.55C52.1082 132.778 50.7639 134.502 50 136.5C48.9283 136.137 47.9608 135.519 47.1801 134.7C47.2401 129.7 49.32 127.23 52.91 126.7L52.86 126.67Z" fill="#0A4586"/>
<path fill-rule="evenodd" clip-rule="evenodd" d="M52.1 142.58C54.037 143.299 56.0946 143.639 58.16 143.58C58.6792 145.354 59.5235 147.015 60.65 148.48C59.5165 149.47 58.0651 150.02 56.5601 150.03C55.4881 149.885 54.4604 149.509 53.5486 148.927C52.6368 148.345 51.8627 147.571 51.28 146.66C51.1251 145.235 51.4113 143.797 52.1 142.54V142.58Z" fill="#0A4586"/>
<path d="M187.67 176.89C191.768 176.89 195.09 173.568 195.09 169.47C195.09 165.372 191.768 162.05 187.67 162.05C183.572 162.05 180.25 165.372 180.25 169.47C180.25 173.568 183.572 176.89 187.67 176.89Z" fill="#FF4019"/>
<path d="M165.42 176.89C169.518 176.89 172.84 173.568 172.84 169.47C172.84 165.372 169.518 162.05 165.42 162.05C161.322 162.05 158 165.372 158 169.47C158 173.568 161.322 176.89 165.42 176.89Z" fill="#328FD9"/>
<path d="M222.54 164.27H204.74C203.508 164.27 202.51 165.266 202.51 166.495C202.51 167.724 203.508 168.72 204.74 168.72H222.54C223.772 168.72 224.77 167.724 224.77 166.495C224.77 165.266 223.772 164.27 222.54 164.27Z" fill="white"/>
<path d="M148.35 164.27H130.55C129.318 164.27 128.32 165.266 128.32 166.495C128.32 167.724 129.318 168.72 130.55 168.72H148.35C149.582 168.72 150.58 167.724 150.58 166.495C150.58 165.266 149.582 164.27 148.35 164.27Z" fill="white"/>
<path d="M223.29 170.95H203.99C203.173 170.95 202.51 171.613 202.51 172.43V172.44C202.51 173.257 203.173 173.92 203.99 173.92H223.29C224.107 173.92 224.77 173.257 224.77 172.44V172.43C224.77 171.613 224.107 170.95 223.29 170.95Z" fill="#328FD9"/>
<path d="M149.1 170.95H129.8C128.983 170.95 128.32 171.613 128.32 172.43V172.44C128.32 173.257 128.983 173.92 129.8 173.92H149.1C149.917 173.92 150.58 173.257 150.58 172.44V172.43C150.58 171.613 149.917 170.95 149.1 170.95Z" fill="#328FD9"/>
<defs>
<radialGradient id="paint0_radial" cx="0" cy="0" r="1" gradientUnits="userSpaceOnUse" gradientTransform="translate(139.67 108.964) rotate(-80.1588) scale(3.93874)">
<stop stop-color="#DCECF7"/>
<stop offset="1" stop-color="#DCECF7"/>
</radialGradient>
</defs>
</svg>
