<svg width="429" height="421" viewBox="0 0 429 421" fill="none" xmlns="http://www.w3.org/2000/svg">
<g clip-path="url(#clip0)">
<path fill-rule="evenodd" clip-rule="evenodd" d="M162.556 30.4705C219.808 20.9398 271.115 52.5201 318.544 86.1006C367.771 120.955 425.678 158.32 428.306 218.627C430.944 279.138 377.645 322.864 330.515 360.742C286.128 396.415 235.134 428.581 179.001 418.988C121.841 409.219 81.5236 362.986 51.7669 313.104C19.3472 258.757 -12.1153 196.184 10.9656 137.303C34.7287 76.6811 98.4163 41.1478 162.556 30.4705Z" fill="#EAEFDC"/>
<path d="M34.7335 314.605C40.5454 312.066 43.195 305.305 40.6516 299.504C38.1083 293.703 31.3351 291.058 25.5233 293.596C19.7114 296.135 17.0618 302.896 19.6051 308.698C22.1485 314.499 28.9217 317.144 34.7335 314.605Z" fill="#FBE698"/>
<g clip-path="url(#clip1)">
<path d="M89.0164 108.755C89.4815 108.755 90.0241 108.91 90.4116 109.142C91.9618 109.916 93.357 111 94.8297 111.929C96.3024 112.858 97.9301 113.632 99.7129 113.632C100.333 113.632 100.876 113.477 101.496 113.322C102.116 111.697 102.813 110.148 103.743 108.755C103.511 108.6 103.201 108.445 102.968 108.291C101.728 107.671 100.333 107.362 99.4029 106.355C98.4727 105.272 98.5502 103.414 99.5579 102.408C100.565 101.401 102.426 101.324 103.511 102.253C103.898 102.562 104.209 102.95 104.441 103.414C104.984 104.188 105.371 105.04 105.836 105.814C107.464 103.878 109.324 102.253 111.494 100.86C110.409 100.008 109.324 99.234 108.317 98.2277C108.007 97.918 107.696 97.531 107.619 97.1439C107.076 95.2862 109.092 93.5058 110.797 93.4284C111.727 93.4284 112.657 93.8154 113.2 94.5121C113.742 95.2862 113.82 96.2151 113.897 97.1439C113.975 97.9954 114.052 98.6147 114.285 99.234C115.525 98.6921 116.765 98.1503 118.083 97.7632C118.393 95.2088 118.315 92.5769 117.23 90.2547C116.533 88.6291 115.293 87.1584 115.293 85.378C115.293 83.5202 116.843 81.7398 118.781 81.585C120.641 81.4302 122.579 82.8235 122.889 84.6813C122.966 85.3006 122.966 85.9198 122.889 86.5391C122.656 88.7065 121.958 90.8739 122.036 93.0413C122.036 94.3573 122.346 95.7506 123.044 96.9117C123.741 96.8343 124.361 96.8343 125.059 96.8343C126.842 96.8343 128.547 96.9891 130.175 97.3762C130.175 97.2988 130.175 97.2988 130.175 97.2214C130.02 95.828 129.632 94.5121 129.632 93.1187C129.632 92.7317 129.632 92.3447 129.865 91.9576C130.64 90.4095 133.042 90.4869 134.205 91.4932C134.825 92.035 135.213 92.8865 135.135 93.6606C135.058 94.5121 134.515 95.2088 133.973 95.828C133.43 96.4473 133.042 97.2214 132.732 97.9954C134.36 98.5373 135.988 99.234 137.461 100.085H137.538C138.933 100.008 140.406 99.4662 141.491 98.6147C142.886 97.531 143.661 95.9054 144.282 94.2799C144.824 92.6543 145.289 90.9513 145.987 89.3258C146.219 88.8613 146.452 88.4743 146.839 88.1647C148.622 86.8487 151.335 88.3195 152.033 90.0998C152.42 91.0287 152.42 92.2673 151.8 93.1187C151.257 93.9702 150.25 94.5121 149.242 94.9765C147.149 95.9828 146.219 96.7569 145.057 98.7695C144.127 100.318 143.196 102.408 142.964 104.343C144.359 105.736 145.522 107.284 146.529 108.987C146.762 108.833 146.994 108.755 147.149 108.6C148.235 107.826 149.165 106.665 150.56 106.433C151.955 106.123 153.583 107.052 153.97 108.445C154.358 109.839 153.583 111.464 152.265 112.006C151.8 112.161 151.335 112.238 150.87 112.316C150.017 112.393 149.165 112.393 148.312 112.393C149.242 114.638 149.862 117.038 150.095 119.592C151.335 120.057 152.73 120.289 153.893 120.444C156.218 120.676 157.381 120.444 159.474 119.36C160.404 118.896 161.411 118.354 162.497 118.431C163.504 118.508 164.512 119.205 165.054 120.057C166.062 121.76 165.597 124.779 163.427 125.398C162.962 125.553 162.419 125.475 161.954 125.398C160.249 125.088 158.621 124.314 156.993 123.85C155.366 123.308 153.505 122.998 151.878 123.463C151.335 123.617 150.715 123.85 150.25 124.237C150.095 126.017 149.785 127.643 149.242 129.268C149.475 129.268 149.707 129.346 149.94 129.346C151.412 129.423 152.885 129.268 154.28 129.5C154.668 129.578 155.133 129.655 155.443 129.887C156.916 130.971 156.451 133.526 155.133 134.532C154.435 135.074 153.505 135.306 152.653 135.074C151.8 134.842 151.18 134.145 150.56 133.526C149.707 132.597 149.087 132.055 148.312 131.668C147.537 133.603 146.452 135.383 145.212 137.009C146.529 139.022 148.157 140.879 150.172 142.04C151.645 142.892 153.35 143.434 154.435 144.827C155.598 146.298 155.598 148.543 154.513 149.704C153.35 150.865 151.18 150.788 149.862 149.472C149.397 149.007 149.01 148.543 148.7 148.001C147.537 146.143 146.607 144.13 145.289 142.427C144.514 141.499 143.584 140.647 142.576 140.028C140.639 141.886 138.313 143.511 135.833 144.672C135.988 144.827 136.143 144.982 136.22 145.137C137.228 146.298 138.391 147.382 139.321 148.698C139.553 149.085 139.786 149.472 139.863 149.936C140.096 151.949 137.771 153.419 135.988 153.187C135.058 153.032 134.128 152.49 133.74 151.716C133.275 150.865 133.353 149.859 133.43 148.93C133.508 147.614 133.508 146.762 133.197 145.833C130.64 146.685 128.004 147.149 125.136 147.149C124.129 147.149 123.044 147.072 122.036 146.995C121.958 147.227 121.881 147.459 121.803 147.691C121.106 149.936 121.106 151.097 121.803 153.342C122.113 154.348 122.424 155.432 122.113 156.438C121.881 157.445 121.028 158.219 120.021 158.606C118.16 159.225 115.293 158.296 115.06 156.051C114.982 155.587 115.138 155.045 115.37 154.58C115.99 152.955 116.998 151.562 117.85 150.013C118.47 148.93 119.013 147.691 119.168 146.453C114.517 145.369 110.409 142.969 107.231 139.718C104.984 140.802 102.891 142.273 101.573 144.285C100.566 145.756 99.9454 147.536 98.4727 148.465C96.845 149.472 94.5197 149.085 93.357 147.536C92.1944 146.066 92.4269 143.666 93.8221 142.427C94.2871 141.963 94.8297 141.731 95.4498 141.421C97.4651 140.492 99.5579 139.873 101.418 138.712C102.503 138.015 103.511 137.009 104.131 135.848C102.891 134.067 101.961 132.055 101.263 129.965C99.7904 130.584 98.3177 131.358 96.7675 131.823C96.3024 131.977 95.7598 132.055 95.2948 131.977C93.1245 131.513 92.3494 128.571 93.202 126.791C93.6671 125.862 94.5197 125.088 95.6048 124.933C96.6124 124.779 97.6976 125.166 98.7052 125.553C99.3253 125.785 99.8679 126.017 100.333 126.094C100.1 124.701 99.9454 123.308 99.9454 121.914C99.9454 120.444 100.1 119.05 100.333 117.734C99.2478 117.038 98.0077 116.418 96.9225 116.031C94.7522 115.18 93.5896 115.103 91.2642 115.644C90.2566 115.877 89.1714 116.109 88.1638 115.799C87.1562 115.49 86.3811 114.561 86.1485 113.554C85.6059 111.697 86.7686 108.833 89.0164 108.755Z" fill="#94B052"/>
<path d="M135.446 123.23C136.453 125.166 136.608 127.488 135.988 129.5C135.368 131.513 134.051 133.293 132.268 134.377C130.485 135.461 128.315 135.771 126.145 135.538C125.059 135.383 124.052 135.151 123.044 134.687C122.036 134.222 121.184 133.603 120.409 132.829C121.029 133.758 121.959 134.455 122.889 134.996C123.897 135.538 124.904 135.925 126.067 136.158C128.237 136.545 130.64 136.235 132.655 135.074C134.671 133.913 136.066 131.9 136.531 129.655C136.763 128.572 136.841 127.41 136.686 126.327C136.453 125.166 136.066 124.082 135.446 123.23Z" fill="#7B9B30"/>
<path d="M140.871 113.167C140.018 113.477 139.088 113.477 138.313 113.244C137.538 113.012 136.763 112.548 136.298 111.851C135.833 111.154 135.678 110.303 135.755 109.451C135.833 108.6 136.143 107.748 136.763 107.052C135.91 107.516 135.368 108.368 135.135 109.374C134.903 110.303 135.058 111.387 135.678 112.238C136.298 113.09 137.228 113.631 138.158 113.786C139.088 113.941 140.096 113.786 140.871 113.167Z" fill="#7B9B30"/>
<path d="M114.983 120.908C115.525 122.069 115.525 123.385 115.215 124.546C114.905 125.707 114.208 126.791 113.2 127.41C112.192 128.107 110.952 128.339 109.712 128.185C108.472 128.03 107.309 127.565 106.379 126.636C107.077 127.72 108.317 128.494 109.634 128.726C110.952 128.959 112.425 128.726 113.587 128.03C114.75 127.256 115.525 126.017 115.758 124.701C115.99 123.385 115.758 121.915 114.983 120.908Z" fill="#7B9B30"/>
<path d="M116.998 111.309C118.161 110.767 119.479 110.767 120.641 111.077C121.804 111.387 122.889 112.083 123.509 113.09C124.207 114.096 124.439 115.334 124.284 116.573C124.129 117.811 123.664 118.973 122.734 119.901C123.819 119.205 124.594 117.966 124.827 116.65C125.059 115.334 124.827 113.864 124.129 112.703C123.354 111.541 122.114 110.767 120.796 110.535C119.479 110.303 118.006 110.535 116.998 111.309Z" fill="#7B9B30"/>
<path d="M49.4866 62.6973C49.4866 62.465 49.5641 62.2328 49.6416 62.0006C50.0291 61.2265 50.5717 60.5299 51.0368 59.8332C51.5018 59.1365 51.8894 58.285 51.8894 57.4335C51.8894 57.1239 51.8119 56.8143 51.7344 56.5821C50.9593 56.2724 50.1842 55.8854 49.4866 55.4984C49.4091 55.6532 49.3316 55.7306 49.254 55.8854C48.944 56.5047 48.789 57.2013 48.3239 57.6658C47.7813 58.1302 46.8512 58.0528 46.3861 57.5884C45.8436 57.0465 45.8436 56.195 46.3086 55.6532C46.4637 55.4984 46.6962 55.3435 46.8512 55.1887C47.2388 54.9565 47.6263 54.7243 48.0139 54.4921C47.0837 53.718 46.2311 52.7891 45.5335 51.7054C45.146 52.2472 44.6809 52.7891 44.2158 53.2535C44.0608 53.4083 43.9058 53.5632 43.6733 53.6406C42.7431 53.8728 41.8905 52.8665 41.813 52.0924C41.813 51.628 41.968 51.1635 42.3556 50.9313C42.7432 50.6217 43.2082 50.6217 43.6733 50.5443C44.0608 50.5443 44.4484 50.4668 44.6809 50.3894C44.3709 49.7702 44.1383 49.1509 43.9833 48.5317C42.7432 48.3768 41.4255 48.4542 40.2628 48.9187C39.4877 49.3057 38.7126 49.8476 37.86 49.8476C36.9298 49.8476 36.0772 49.0735 35.9997 48.1446C35.9222 47.2157 36.6198 46.2868 37.5499 46.132C37.86 46.0546 38.17 46.132 38.4801 46.132C39.5652 46.2868 40.5729 46.5965 41.658 46.5965C42.2781 46.5965 42.9757 46.4416 43.5958 46.132C43.5958 45.8224 43.5183 45.4353 43.5183 45.1257C43.5183 44.2742 43.5958 43.4227 43.7508 42.6487H43.6733C42.9757 42.7261 42.3556 42.8809 41.658 42.8809C41.503 42.8809 41.2704 42.8809 41.1154 42.8035C40.3403 42.4164 40.3403 41.2553 40.8829 40.6361C41.1154 40.3264 41.5805 40.1716 41.968 40.1716C42.3556 40.249 42.7431 40.4813 43.0532 40.7135C43.3632 40.9457 43.7508 41.1779 44.1383 41.3327C44.3709 40.4813 44.7584 39.7072 45.146 39.0105C45.0685 38.3138 44.8359 37.6172 44.4484 37.0753C43.9058 36.3786 43.1307 35.9916 42.2781 35.682C41.503 35.3723 40.6504 35.2175 39.8752 34.8305C39.6427 34.7531 39.4102 34.5983 39.2552 34.366C38.6351 33.5146 39.3327 32.1212 40.1853 31.8116C40.6503 31.5794 41.2705 31.6568 41.658 31.889C42.1231 32.1986 42.3556 32.6631 42.5881 33.1275C43.0532 34.2112 43.4407 34.5983 44.4484 35.2175C45.2235 35.682 46.2311 36.1464 47.2388 36.2238C47.9364 35.5272 48.7115 34.9853 49.4866 34.4434C49.4091 34.366 49.3316 34.2112 49.254 34.1338C48.8665 33.592 48.3239 33.1275 48.1689 32.4308C48.0139 31.7342 48.4789 30.9601 49.1765 30.7279C49.8741 30.4957 50.6492 30.8827 50.9593 31.5794C51.0368 31.8116 51.1143 32.0438 51.1143 32.276C51.1143 32.6631 51.1143 33.1275 51.1918 33.592C52.277 33.1275 53.5171 32.8179 54.7573 32.7405C54.9898 32.1212 55.1449 31.4245 55.1449 30.8827C55.2999 29.7216 55.1448 29.1797 54.6023 28.1734C54.3697 27.709 54.1372 27.2445 54.1372 26.7027C54.1372 26.1608 54.5248 25.6964 54.9123 25.4641C55.7649 24.9997 57.2376 25.1545 57.5477 26.2382C57.6252 26.4705 57.5477 26.7027 57.5477 26.9349C57.3927 27.7864 57.0051 28.5605 56.7726 29.4119C56.5401 30.2634 56.385 31.1149 56.54 31.9664C56.6175 32.276 56.7726 32.5083 56.9276 32.8179C57.7802 32.8953 58.6328 33.0501 59.4079 33.2823C59.4079 33.2049 59.4079 33.0501 59.4079 32.9727C59.4079 32.276 59.4079 31.502 59.4855 30.8053C59.4855 30.5731 59.563 30.4182 59.718 30.2634C60.2606 29.4894 61.5007 29.799 62.0433 30.4182C62.3533 30.7279 62.4308 31.1923 62.3533 31.6568C62.1983 32.0438 61.8883 32.3534 61.5782 32.6631C61.1132 33.0501 60.8806 33.3597 60.6481 33.8242C61.5782 34.2112 62.5084 34.7531 63.2835 35.3723C64.2911 34.7531 65.2212 33.9016 65.7638 32.8953C66.2289 32.1986 66.4614 31.3471 67.159 30.8053C67.8566 30.2634 69.0193 30.186 69.5618 30.8053C70.1044 31.3471 70.1044 32.4308 69.4843 33.1275C69.2518 33.3597 69.0193 33.5146 68.7092 33.6694C67.7791 34.2112 66.7714 34.6757 65.9188 35.3723C65.4538 35.7594 64.9887 36.2238 64.7562 36.7657C65.6863 37.772 66.4614 38.8557 67.0815 40.0942C67.159 40.0168 67.2365 39.9394 67.314 39.862C67.9341 39.3201 68.3992 38.7783 69.0968 38.3138C69.2518 38.159 69.4843 38.0816 69.7168 38.0816C70.7245 37.9268 71.4221 39.0879 71.3446 39.9394C71.2671 40.4038 71.0345 40.8683 70.5695 41.0231C70.1819 41.2553 69.6393 41.1779 69.1743 41.1779C68.5542 41.1005 68.0891 41.1779 67.6241 41.3327C68.0116 42.5713 68.2441 43.8872 68.2441 45.2805C68.2441 45.8224 68.2441 46.2868 68.1666 46.8287C68.3217 46.9061 68.3992 46.9061 68.5542 46.9835C69.6393 47.2931 70.2594 47.2931 71.3446 46.9835C71.8096 46.8287 72.3522 46.6739 72.8948 46.8287C73.3598 46.9835 73.8249 47.3705 73.9799 47.835C74.29 48.7639 73.8249 50.1572 72.7398 50.2346C72.5072 50.2346 72.2747 50.1572 72.0422 50.0798C71.2671 49.7702 70.5695 49.2283 69.7944 48.8413C69.2518 48.5317 68.6317 48.2994 68.0116 48.222C67.469 50.4669 66.3064 52.5569 64.6787 54.105C65.2212 55.1887 65.9188 56.195 66.9265 56.8917C67.6241 57.3561 68.5542 57.6658 69.0193 58.4398C69.4843 59.2139 69.3293 60.375 68.5542 60.9169C67.7791 61.4588 66.6164 61.3813 65.9963 60.6847C65.7638 60.4524 65.6088 60.1428 65.5313 59.9106C65.0662 58.9043 64.7562 57.898 64.2136 56.9691C63.9035 56.4272 63.361 55.8854 62.8184 55.6532C61.8883 56.2724 60.9582 56.7369 59.873 57.0465C60.1831 57.7432 60.5706 58.5173 60.8031 59.2913C60.8806 59.5236 60.9581 59.7558 60.8806 59.988C60.6481 61.0717 59.1754 61.4587 58.3228 60.9943C57.8577 60.7621 57.4702 60.2976 57.3927 59.8332C57.3151 59.2913 57.5477 58.8269 57.7027 58.285C57.8577 57.9754 57.9352 57.7432 58.0127 57.511C57.3151 57.5884 56.6176 57.6658 55.92 57.6658C55.2224 57.6658 54.5248 57.5884 53.8272 57.511C53.4396 58.0528 53.2071 58.6721 52.9745 59.2139C52.587 60.2976 52.5095 60.8395 52.8195 62.0006C52.9746 62.5425 53.0521 63.0843 52.8971 63.5488C52.742 64.0132 52.2769 64.4002 51.8119 64.5551C50.8818 64.4002 49.4866 63.781 49.4866 62.6973Z" fill="#94B052"/>
<path d="M56.617 39.7846C57.5472 39.3201 58.7098 39.2427 59.7175 39.5524C60.7251 39.862 61.5777 40.4813 62.1203 41.4102C62.6629 42.2616 62.8179 43.3454 62.6629 44.4291C62.5854 44.9709 62.4304 45.4354 62.1978 45.9772C61.9653 46.4417 61.6552 46.9061 61.2677 47.2931C61.7327 46.9835 62.0428 46.5191 62.3528 46.0546C62.5854 45.5902 62.8179 45.0483 62.8954 44.5065C63.1279 43.4228 62.9729 42.2616 62.3528 41.2553C61.8103 40.249 60.8026 39.5524 59.7175 39.3201C59.1749 39.1653 58.6323 39.1653 58.0897 39.2427C57.6247 39.2427 57.0821 39.475 56.617 39.7846Z" fill="#7B9B30"/>
<path d="M51.6561 37.1528C51.8112 37.6173 51.8112 38.0043 51.6561 38.4688C51.5011 38.8558 51.2686 39.2428 50.9586 39.4751C50.6485 39.7073 50.1835 39.7847 49.7959 39.7847C49.4084 39.7847 48.9433 39.5525 48.6333 39.3202C48.8658 39.7073 49.3309 40.0169 49.7959 40.0943C50.261 40.1717 50.8035 40.0943 51.1911 39.8621C51.5786 39.5525 51.8887 39.088 51.9662 38.6236C52.0437 38.0043 51.9662 37.4625 51.6561 37.1528Z" fill="#7B9B30"/>
<path d="M55.4541 49.8476C56.0742 49.6154 56.6943 49.538 57.2368 49.7702C57.7794 49.925 58.322 50.3121 58.632 50.7765C58.9421 51.2409 59.0971 51.8602 59.0196 52.4795C58.9421 53.0987 58.7096 53.6406 58.2445 54.105C58.7871 53.7954 59.1746 53.1761 59.2521 52.4795C59.4071 51.8602 59.2521 51.0861 58.8646 50.5443C58.477 50.0024 57.8569 49.6154 57.2368 49.4606C56.6943 49.3832 55.9967 49.4606 55.4541 49.8476Z" fill="#7B9B30"/>
<path d="M50.7262 48.9187C50.4936 48.2995 50.4161 47.6802 50.6487 47.1383C50.8037 46.5965 51.1913 46.0546 51.6563 45.745C52.1214 45.4354 52.7414 45.2805 53.3615 45.358C53.9816 45.4354 54.5242 45.6676 54.9893 46.132C54.6792 45.5902 54.0591 45.2031 53.3615 45.1257C52.7414 44.9709 51.9663 45.1257 51.4238 45.5128C50.8812 45.8998 50.4936 46.5191 50.3386 47.1383C50.2611 47.6802 50.3386 48.3769 50.7262 48.9187Z" fill="#7B9B30"/>
<path d="M253.727 111.232C253.727 110.922 253.804 110.613 253.959 110.381C254.425 109.374 255.122 108.6 255.665 107.671C256.207 106.742 256.75 105.736 256.672 104.652C256.672 104.265 256.595 103.956 256.517 103.569C255.51 103.182 254.58 102.717 253.649 102.175C253.572 102.33 253.417 102.485 253.339 102.64C252.952 103.414 252.797 104.265 252.177 104.807C251.479 105.349 250.394 105.349 249.696 104.73C249.076 104.111 248.999 102.949 249.619 102.253C249.851 102.021 250.084 101.866 250.316 101.711C250.782 101.401 251.324 101.092 251.789 100.859C250.627 99.8531 249.541 98.692 248.766 97.376C248.224 98.0727 247.759 98.7694 247.139 99.3112C246.906 99.466 246.751 99.6983 246.441 99.7757C245.278 100.085 244.193 98.8468 244.116 97.7631C244.116 97.2212 244.348 96.602 244.813 96.2923C245.278 95.9827 245.898 95.9053 246.441 95.8279C246.984 95.7505 247.371 95.7505 247.759 95.5957C247.371 94.8216 247.061 94.0475 246.828 93.2734C245.201 93.0412 243.573 93.1186 242.178 93.8153C241.17 94.2797 240.24 94.9764 239.155 94.9764C237.992 94.9764 236.907 93.9701 236.752 92.809C236.675 91.6479 237.527 90.4868 238.69 90.2545C239.077 90.1771 239.465 90.1771 239.853 90.2545C241.17 90.4093 242.488 90.7964 243.883 90.7964C244.736 90.7964 245.588 90.6416 246.286 90.1771C246.286 89.7901 246.208 89.3256 246.208 88.9386C246.208 87.8549 246.286 86.7712 246.518 85.7649H246.441C245.588 85.8423 244.736 86.0745 243.883 86.0745C243.651 86.0745 243.418 86.0745 243.185 85.9197C242.178 85.4552 242.255 83.9071 242.875 83.2104C243.185 82.8234 243.728 82.5912 244.271 82.6686C244.813 82.746 245.201 83.0556 245.588 83.3652C245.976 83.6749 246.441 83.9845 246.906 84.1393C247.216 83.133 247.681 82.1267 248.224 81.1978C248.224 81.1978 248.224 81.1978 248.224 81.1204C248.146 80.2689 247.836 79.34 247.371 78.7208C246.751 77.8693 245.666 77.4048 244.658 77.0178C243.651 76.6308 242.565 76.3985 241.635 75.9341C241.325 75.7793 241.093 75.6245 240.938 75.3922C240.085 74.3085 241.015 72.6056 242.1 72.1411C242.72 71.9089 243.418 71.9089 243.961 72.2959C244.503 72.683 244.813 73.3022 245.123 73.8441C245.743 75.16 246.208 75.7019 247.449 76.476C248.379 77.0952 249.696 77.6371 250.937 77.7919C251.789 76.9404 252.719 76.2437 253.804 75.5471C253.727 75.3922 253.649 75.2374 253.572 75.16C253.107 74.4634 252.409 73.9215 252.177 73.07C252.022 72.2185 252.564 71.2122 253.417 70.98C254.27 70.7478 255.277 71.2122 255.665 72.0637C255.742 72.3733 255.82 72.683 255.82 72.9152C255.897 73.4571 255.897 73.9989 255.897 74.5408C257.292 73.9989 258.765 73.6119 260.315 73.457C260.548 72.683 260.78 71.8315 260.858 71.1348C261.013 69.6641 260.858 68.9674 260.16 67.7289C259.85 67.187 259.54 66.5678 259.618 65.8711C259.695 65.2518 260.083 64.6326 260.625 64.3229C261.633 63.7037 263.493 64.0133 263.881 65.3292C263.958 65.6389 263.958 65.9485 263.881 66.2581C263.648 67.3418 263.261 68.2707 262.873 69.3544C262.563 70.3607 262.331 71.5219 262.641 72.5282C262.718 72.9152 262.873 73.2248 263.106 73.5345C264.191 73.6119 265.199 73.8441 266.206 74.1537C266.206 73.9989 266.206 73.8441 266.206 73.6893C266.284 72.7604 266.206 71.9089 266.361 70.98C266.439 70.7478 266.439 70.4381 266.594 70.2833C267.291 69.3544 268.842 69.6641 269.462 70.4381C269.772 70.8252 269.927 71.4444 269.772 71.9863C269.617 72.5282 269.229 72.9152 268.764 73.3022C268.221 73.8441 267.834 74.2311 267.601 74.6956C268.764 75.16 269.927 75.8567 270.934 76.5534C272.174 75.7019 273.337 74.773 274.035 73.5345C274.577 72.6056 274.887 71.5993 275.74 70.9026C276.67 70.2059 278.065 70.1285 278.763 70.9026C279.46 71.5993 279.383 72.9152 278.608 73.7667C278.375 74.0763 277.988 74.3085 277.678 74.4634C276.515 75.16 275.275 75.7019 274.19 76.5534C273.57 77.0178 273.027 77.6371 272.717 78.2563C273.88 79.4949 274.887 80.8882 275.585 82.4363C275.662 82.3589 275.817 82.2815 275.895 82.2041C276.593 81.5849 277.29 80.8108 278.065 80.2689C278.298 80.1141 278.53 79.9593 278.84 79.9593C280.081 79.8045 280.933 81.2752 280.856 82.3589C280.778 82.9008 280.468 83.5201 279.926 83.7523C279.383 84.0619 278.763 83.9845 278.22 83.9071C277.445 83.8297 276.825 83.9071 276.283 84.0619C276.825 85.6101 277.135 87.313 277.135 89.016C277.135 89.6353 277.058 90.2545 276.98 90.8738C277.135 90.9512 277.29 90.9512 277.445 91.0286C278.84 91.4156 279.538 91.4156 280.933 91.0286C281.553 90.8738 282.251 90.6416 282.871 90.7964C283.491 90.9512 284.034 91.493 284.189 92.1123C284.576 93.2734 283.956 95.0538 282.638 95.1312C282.328 95.1312 282.018 95.0538 281.708 94.9764C280.701 94.5894 279.848 93.9701 278.84 93.4282C278.143 93.0412 277.368 92.7316 276.593 92.6542C275.895 95.5183 274.422 98.0727 272.407 100.008C273.105 101.401 273.957 102.64 275.275 103.491C276.205 104.111 277.29 104.498 277.91 105.426C278.53 106.433 278.298 107.826 277.368 108.6C276.438 109.297 274.965 109.142 274.19 108.291C273.957 107.981 273.725 107.671 273.57 107.284C273.027 106.046 272.64 104.73 271.942 103.569C271.477 102.872 270.934 102.253 270.159 101.866C269.074 102.64 267.834 103.182 266.516 103.646C266.904 104.575 267.369 105.426 267.679 106.433C267.756 106.742 267.834 107.052 267.756 107.362C267.524 108.755 265.664 109.142 264.578 108.678C263.958 108.368 263.493 107.826 263.416 107.207C263.338 106.588 263.571 105.891 263.803 105.349C263.958 104.962 264.113 104.652 264.191 104.343C263.338 104.498 262.486 104.575 261.556 104.575C260.703 104.575 259.773 104.498 258.92 104.343C258.455 105.039 258.068 105.736 257.835 106.433C257.292 107.826 257.292 108.523 257.602 109.916C257.758 110.535 257.913 111.232 257.68 111.851C257.447 112.471 256.905 112.935 256.285 113.09C255.51 113.399 253.727 112.625 253.727 111.232Z" fill="#002F59"/>
<path d="M262.64 82.6688C263.881 82.0495 265.276 81.9721 266.516 82.3591C267.756 82.7462 268.841 83.5202 269.539 84.6814C270.236 85.7651 270.391 87.1584 270.236 88.4743C270.159 89.0936 270.004 89.7903 269.694 90.3321C269.461 90.9514 268.996 91.4932 268.531 91.9577C269.074 91.5706 269.539 91.0288 269.849 90.4095C270.159 89.7903 270.391 89.171 270.546 88.4743C270.779 87.081 270.624 85.6103 269.849 84.4491C269.151 83.2106 267.911 82.3591 266.516 82.0495C265.818 81.8947 265.121 81.8173 264.423 81.9721C263.803 81.9721 263.183 82.2043 262.64 82.6688Z" fill="#174968"/>
<path d="M256.44 79.3398C256.672 79.8817 256.595 80.4236 256.44 80.9654C256.285 81.4299 255.975 81.8943 255.587 82.2039C255.2 82.5136 254.657 82.591 254.114 82.591C253.572 82.5136 253.107 82.3587 252.642 81.9717C252.952 82.5136 253.494 82.8232 254.037 82.978C254.657 83.1328 255.277 82.978 255.82 82.6684C256.362 82.2813 256.672 81.7395 256.75 81.1202C256.905 80.4236 256.75 79.7269 256.44 79.3398Z" fill="#174968"/>
<path d="M261.167 95.2086C261.865 94.8989 262.717 94.8989 263.415 95.0538C264.113 95.286 264.81 95.673 265.198 96.2923C265.585 96.9115 265.74 97.6856 265.663 98.4597C265.585 99.2338 265.275 99.9304 264.733 100.55C265.43 100.085 265.895 99.3886 266.05 98.5371C266.205 97.6856 266.05 96.8341 265.585 96.1375C265.12 95.4408 264.345 94.9763 263.492 94.8215C262.717 94.5893 261.865 94.7441 261.167 95.2086Z" fill="#174968"/>
<path d="M255.277 94.0471C254.967 93.3504 254.967 92.4989 255.122 91.8022C255.354 91.1056 255.742 90.4089 256.362 90.0218C256.982 89.6348 257.757 89.48 258.532 89.5574C259.307 89.6348 260.005 89.9444 260.625 90.4863C260.16 89.7896 259.462 89.3252 258.61 89.1704C257.757 89.0155 256.904 89.1704 256.207 89.6348C255.509 90.0993 255.044 90.8733 254.889 91.7248C254.657 92.4989 254.812 93.3504 255.277 94.0471Z" fill="#174968"/>
<path d="M51.2688 222.699C51.4239 222.544 51.6564 222.466 51.8114 222.389C52.5865 222.157 53.3616 222.079 54.1367 221.847C54.9118 221.692 55.6869 221.383 56.2295 220.841C56.3845 220.686 56.5396 220.454 56.6946 220.222C56.3845 219.525 56.152 218.751 55.9195 218.054C55.7645 218.054 55.6869 218.132 55.5319 218.132C54.9893 218.364 54.3692 218.673 53.7492 218.673C53.1291 218.596 52.509 217.977 52.509 217.358C52.509 216.738 53.0516 216.119 53.7492 216.042C53.9817 216.042 54.2142 216.042 54.3693 216.119C54.7568 216.196 55.2219 216.351 55.6094 216.429C55.5319 215.268 55.6094 214.184 55.842 213.023C55.2219 213.1 54.6018 213.178 53.9817 213.178C53.7492 213.178 53.5941 213.177 53.4391 213.023C52.664 212.558 52.7415 211.397 53.2841 210.855C53.5942 210.546 53.9817 210.391 54.4468 210.468C54.8343 210.546 55.2219 210.778 55.5319 211.087C55.842 211.32 56.0745 211.475 56.307 211.629C56.5396 211.087 56.7721 210.468 57.0821 209.926C56.3845 208.997 55.4544 208.223 54.3693 207.759C53.5942 207.449 52.7415 207.372 52.199 206.83C51.5789 206.211 51.5014 205.127 52.1215 204.508C52.664 203.889 53.7492 203.734 54.4468 204.198C54.6793 204.353 54.9118 204.585 55.0669 204.817C55.6869 205.592 56.152 206.443 56.8496 207.14C57.2371 207.527 57.7797 207.914 58.3998 208.069C58.6323 207.836 58.7874 207.604 59.0199 207.372C59.5625 206.83 60.1826 206.366 60.8026 205.901C60.8026 205.901 60.7251 205.901 60.7251 205.824C60.2601 205.437 59.7175 205.127 59.2524 204.663C59.0974 204.508 59.0199 204.43 58.9424 204.198C58.7099 203.424 59.485 202.727 60.1826 202.65C60.5701 202.65 60.9577 202.727 61.1902 203.037C61.4227 203.347 61.5002 203.734 61.5002 204.121C61.5777 204.508 61.6553 204.895 61.8103 205.205C62.5079 204.817 63.2055 204.585 63.9806 204.353C64.3681 203.889 64.6782 203.269 64.7557 202.65C64.8332 201.876 64.6007 201.102 64.2906 200.405C63.9806 199.709 63.5155 199.012 63.283 198.315C63.2055 198.083 63.128 197.851 63.2055 197.696C63.3605 196.69 64.6782 196.303 65.4533 196.69C65.9183 196.844 66.2284 197.232 66.3834 197.696C66.4609 198.16 66.3059 198.625 66.1509 199.089C65.7633 200.096 65.7633 200.637 65.9959 201.644C66.2284 202.418 66.5384 203.424 67.081 204.121C67.9336 204.121 68.8637 204.276 69.7164 204.43C69.7164 204.353 69.7939 204.198 69.7939 204.121C69.8714 203.502 69.7939 202.882 70.1814 202.34C70.569 201.799 71.3441 201.566 71.8867 201.876C72.4292 202.186 72.7393 202.96 72.5067 203.579C72.4292 203.811 72.2742 203.966 72.1192 204.121C71.8867 204.43 71.5766 204.663 71.3441 204.972C72.3517 205.359 73.3594 205.979 74.212 206.675C74.7546 206.443 75.2971 206.056 75.6847 205.746C76.5373 205.05 76.7698 204.663 77.0799 203.656C77.2349 203.192 77.3899 202.727 77.7 202.418C78.0875 202.108 78.5526 202.031 79.0176 202.108C79.8703 202.34 80.7229 203.424 80.1803 204.276C80.1028 204.508 79.8702 204.585 79.7152 204.74C79.0951 205.204 78.32 205.437 77.6225 205.824C76.9249 206.211 76.2272 206.675 75.8397 207.295C75.6847 207.527 75.6072 207.759 75.5297 208.069C76.0722 208.688 76.4598 209.307 76.8473 210.004C76.9249 209.926 77.0024 209.849 77.0799 209.772C77.5449 209.307 78.01 208.843 78.5526 208.456C78.7076 208.378 78.8626 208.223 79.0176 208.223C79.8703 208.069 80.4903 209.075 80.4128 209.772C80.3353 210.159 80.1803 210.546 79.7927 210.7C79.4052 210.855 79.0176 210.855 78.6301 210.855C78.0875 210.855 77.7 210.855 77.3124 211.01C77.7 211.862 77.9325 212.79 78.0875 213.719C79.1727 213.952 80.2578 214.029 81.2654 213.719C82.0405 213.487 82.7382 213.177 83.5133 213.255C84.3659 213.332 85.0635 214.029 85.0635 214.803C85.0635 215.5 84.3659 216.196 83.5133 216.196C83.2032 216.196 82.9707 216.119 82.6606 216.119C81.7305 215.887 80.8004 215.577 79.7927 215.422C79.2502 215.345 78.6301 215.422 78.165 215.577C78.165 216.816 77.9325 218.054 77.4674 219.215C77.5449 219.215 77.6224 219.215 77.7775 219.215C78.4751 219.293 79.1727 219.215 79.8703 219.37C80.1028 219.37 80.2578 219.448 80.4128 219.602C81.1104 220.144 80.8779 221.383 80.1803 221.847C79.8703 222.079 79.4052 222.234 78.9401 222.079C78.5526 221.925 78.2425 221.615 77.9325 221.305C77.5449 220.841 77.2349 220.609 76.8473 220.376C76.3048 221.46 75.6072 222.466 74.677 223.395C74.367 223.705 73.9794 224.015 73.6694 224.324C73.7469 224.402 73.7469 224.556 73.8244 224.634C74.2895 225.563 74.677 225.95 75.6072 226.414C75.9947 226.646 76.4598 226.879 76.6923 227.266C76.9248 227.653 76.9248 228.195 76.6923 228.659C76.3048 229.433 75.0646 230.052 74.2895 229.433C74.1345 229.278 73.9794 229.046 73.9019 228.891C73.5919 228.195 73.4369 227.421 73.2043 226.646C73.0493 226.105 72.8168 225.563 72.5067 225.098C70.6465 226.182 68.6312 226.801 66.5384 226.724C66.1509 227.808 65.9958 228.891 66.2284 229.975C66.3834 230.749 66.771 231.523 66.6159 232.297C66.4609 233.149 65.5308 233.768 64.6782 233.613C63.8256 233.536 63.128 232.684 63.2055 231.833C63.2055 231.523 63.283 231.291 63.438 230.981C63.748 230.052 64.2906 229.201 64.5232 228.195C64.6782 227.653 64.6782 226.956 64.5232 226.414C63.593 226.259 62.5854 225.872 61.7328 225.485C61.5002 226.182 61.2677 226.879 60.8801 227.498C60.8026 227.73 60.6476 227.885 60.4926 228.04C59.64 228.582 58.4773 227.885 58.1673 227.033C58.0123 226.569 58.0123 226.027 58.3223 225.718C58.6324 225.331 59.0974 225.098 59.485 224.943C59.795 224.866 60.0275 224.711 60.1826 224.634C59.64 224.247 59.1749 223.86 58.7099 223.395C58.2448 222.931 57.8572 222.466 57.4697 221.925C56.8496 222.079 56.307 222.234 55.842 222.466C54.9118 222.931 54.4468 223.24 53.9042 224.169C53.6717 224.556 53.3616 225.021 52.9741 225.176C52.5865 225.408 52.0439 225.331 51.5789 225.098C51.1138 224.711 50.5712 223.473 51.2688 222.699Z" fill="#002F59"/>
<path d="M70.7244 212.558C71.6545 212.867 72.4296 213.564 72.8947 214.415C73.3597 215.267 73.5148 216.273 73.2822 217.125C73.0497 218.054 72.4296 218.828 71.732 219.447C71.3445 219.757 70.9569 219.989 70.4919 220.144C70.0268 220.298 69.5617 220.376 69.0192 220.376C69.4842 220.453 70.0268 220.376 70.4919 220.298C70.9569 220.144 71.422 219.911 71.8871 219.679C72.7397 219.137 73.3597 218.208 73.6698 217.202C73.9023 216.196 73.7473 215.112 73.2047 214.261C72.9722 213.796 72.5846 213.409 72.1971 213.177C71.6545 212.79 71.1895 212.635 70.7244 212.558Z" fill="#174968"/>
<path d="M69.252 207.604C69.0969 207.991 68.7869 208.3 68.4768 208.455C68.1668 208.61 67.7793 208.687 67.3917 208.61C67.0041 208.533 66.6941 208.3 66.4616 208.068C66.2291 207.758 66.074 207.371 65.9965 206.984C65.8415 207.371 65.9965 207.836 66.229 208.223C66.4616 208.61 66.8491 208.92 67.3142 208.997C67.7792 209.074 68.2443 208.997 68.6319 208.687C68.9419 208.378 69.1744 207.991 69.252 207.604Z" fill="#174968"/>
<path d="M63.4381 218.286C63.9807 218.518 64.4458 218.905 64.6783 219.37C64.9108 219.834 65.0659 220.454 64.9108 220.918C64.8333 221.46 64.4458 221.924 64.0582 222.234C63.5931 222.544 63.0506 222.776 62.508 222.776C63.0506 222.931 63.7482 222.776 64.2132 222.389C64.7558 222.079 65.1434 221.537 65.2209 220.918C65.3759 220.299 65.2209 219.679 64.8333 219.138C64.6008 218.751 64.0582 218.364 63.4381 218.286Z" fill="#174968"/>
<path d="M61.0358 214.57C61.2683 214.028 61.6559 213.564 62.1209 213.332C62.586 213.099 63.2061 212.945 63.6712 213.099C64.2137 213.177 64.6788 213.564 64.9888 213.951C65.2989 214.415 65.5314 214.957 65.5314 215.499C65.6864 214.957 65.5314 214.261 65.1439 213.796C64.8338 213.254 64.2912 212.867 63.6712 212.79C63.0511 212.635 62.431 212.79 61.8884 213.177C61.5008 213.486 61.1133 214.028 61.0358 214.57Z" fill="#174968"/>
<path d="M331.78 173.545C332.013 173.545 332.168 173.622 332.4 173.7C333.02 174.009 333.64 174.474 334.261 174.861C334.881 175.248 335.578 175.558 336.276 175.558C336.508 175.558 336.741 175.48 336.973 175.403C337.206 174.706 337.516 174.087 337.904 173.468C337.826 173.39 337.671 173.313 337.594 173.313C337.051 173.08 336.508 172.926 336.121 172.539C335.733 172.074 335.733 171.3 336.198 170.913C336.663 170.449 337.361 170.449 337.826 170.836C337.981 170.99 338.136 171.145 338.214 171.3C338.446 171.61 338.601 171.997 338.834 172.306C339.531 171.532 340.306 170.836 341.159 170.216C340.694 169.829 340.229 169.52 339.841 169.133C339.686 168.978 339.609 168.823 339.531 168.668C339.299 167.894 340.151 167.12 340.849 167.12C341.237 167.12 341.624 167.275 341.857 167.585C342.089 167.894 342.089 168.281 342.167 168.668C342.167 169.055 342.244 169.287 342.322 169.52C342.864 169.287 343.329 169.055 343.949 168.9C344.104 167.817 344.027 166.733 343.562 165.727C343.252 165.03 342.787 164.411 342.787 163.714C342.787 162.94 343.484 162.166 344.259 162.089C345.035 162.011 345.81 162.63 345.965 163.405C346.042 163.637 345.965 163.946 345.965 164.179C345.887 165.107 345.577 165.959 345.577 166.888C345.577 167.43 345.732 168.049 345.965 168.513C346.275 168.513 346.507 168.436 346.817 168.436C347.515 168.436 348.29 168.513 348.91 168.668V168.591C348.833 168.049 348.678 167.43 348.678 166.888C348.678 166.733 348.678 166.578 348.755 166.423C349.065 165.804 350.073 165.804 350.538 166.191C350.77 166.423 350.925 166.733 350.925 167.12C350.925 167.43 350.693 167.739 350.46 168.049C350.228 168.359 350.073 168.668 349.918 168.978C350.615 169.21 351.235 169.52 351.855 169.829C352.398 169.752 353.018 169.597 353.483 169.21C354.026 168.746 354.413 168.049 354.646 167.43C354.878 166.81 355.033 166.036 355.343 165.417C355.421 165.262 355.576 165.03 355.731 164.953C356.506 164.411 357.591 165.03 357.901 165.727C358.056 166.114 358.056 166.578 357.824 166.965C357.591 167.352 357.126 167.507 356.739 167.739C355.886 168.126 355.498 168.513 354.956 169.287C354.568 169.907 354.181 170.836 354.103 171.61C354.646 172.152 355.188 172.848 355.576 173.545C355.653 173.468 355.731 173.468 355.809 173.39C356.274 173.08 356.661 172.616 357.204 172.461C357.824 172.306 358.444 172.693 358.599 173.313C358.754 173.855 358.444 174.551 357.901 174.783C357.746 174.861 357.514 174.861 357.281 174.938C356.894 174.938 356.584 174.938 356.196 174.938C356.584 175.867 356.816 176.873 356.971 177.957C357.514 178.112 358.056 178.267 358.521 178.267C359.529 178.344 359.994 178.267 360.847 177.802C361.234 177.57 361.622 177.415 362.087 177.415C362.552 177.415 362.94 177.725 363.172 178.112C363.56 178.809 363.405 180.047 362.474 180.357C362.242 180.434 362.087 180.357 361.854 180.357C361.157 180.202 360.459 179.892 359.762 179.738C359.064 179.505 358.289 179.351 357.591 179.583C357.359 179.66 357.126 179.738 356.894 179.892C356.816 180.589 356.661 181.363 356.506 181.982C356.584 181.982 356.739 181.982 356.816 181.982C357.436 181.982 358.056 181.982 358.599 182.06C358.754 182.06 358.909 182.137 359.064 182.215C359.684 182.679 359.452 183.685 358.909 184.15C358.599 184.382 358.211 184.459 357.901 184.382C357.514 184.305 357.281 183.995 357.049 183.685C356.739 183.298 356.429 183.066 356.119 182.911C355.809 183.685 355.343 184.459 354.878 185.156C355.421 186.008 356.119 186.782 356.971 187.246C357.591 187.633 358.289 187.865 358.754 188.407C359.219 189.026 359.219 189.955 358.754 190.42C358.289 190.884 357.359 190.884 356.816 190.342C356.661 190.188 356.506 189.955 356.351 189.723C355.886 188.949 355.498 188.098 354.956 187.401C354.646 187.014 354.258 186.627 353.793 186.395C352.941 187.169 352.01 187.865 351.003 188.33C351.08 188.407 351.08 188.485 351.158 188.562C351.623 189.026 352.088 189.491 352.476 190.033C352.553 190.188 352.708 190.342 352.708 190.575C352.786 191.426 351.855 192.045 351.08 191.891C350.693 191.813 350.305 191.581 350.15 191.271C349.995 190.884 349.995 190.497 349.995 190.11C350.073 189.568 349.995 189.181 349.918 188.794C348.833 189.181 347.747 189.336 346.585 189.336C346.12 189.336 345.732 189.336 345.345 189.259C345.345 189.336 345.267 189.491 345.267 189.568C344.957 190.497 344.957 190.962 345.267 191.891C345.422 192.278 345.5 192.742 345.422 193.206C345.345 193.594 344.957 193.981 344.569 194.135C343.794 194.445 342.632 193.981 342.554 193.052C342.554 192.819 342.632 192.665 342.709 192.432C342.942 191.736 343.407 191.194 343.717 190.497C343.949 190.033 344.182 189.491 344.259 189.026C342.322 188.562 340.616 187.556 339.299 186.24C338.369 186.704 337.516 187.324 336.973 188.175C336.586 188.794 336.276 189.568 335.656 189.955C334.958 190.342 334.028 190.188 333.563 189.568C333.098 188.949 333.175 187.943 333.718 187.401C333.951 187.246 334.183 187.091 334.416 187.014C335.268 186.627 336.121 186.395 336.896 185.93C337.361 185.621 337.749 185.233 338.059 184.769C337.516 183.995 337.128 183.221 336.818 182.292C336.198 182.602 335.578 182.911 334.958 183.066C334.726 183.143 334.571 183.143 334.338 183.143C333.408 182.989 333.098 181.75 333.485 180.976C333.64 180.589 334.028 180.279 334.493 180.202C334.958 180.125 335.346 180.279 335.733 180.434C335.966 180.512 336.198 180.589 336.431 180.666C336.353 180.125 336.276 179.505 336.276 178.886C336.276 178.267 336.353 177.725 336.431 177.106C335.966 176.796 335.501 176.564 335.036 176.409C334.106 176.099 333.64 176.022 332.71 176.254C332.245 176.332 331.858 176.486 331.393 176.332C331.005 176.177 330.695 175.79 330.54 175.403C330.308 174.783 330.85 173.622 331.78 173.545Z" fill="#94B052"/>
<path d="M351.081 179.582C351.468 180.434 351.546 181.362 351.313 182.214C351.081 183.065 350.538 183.839 349.763 184.226C348.988 184.691 348.135 184.846 347.205 184.691C346.74 184.614 346.352 184.536 345.965 184.304C345.577 184.149 345.19 183.839 344.88 183.53C345.112 183.917 345.5 184.227 345.887 184.459C346.275 184.691 346.74 184.846 347.205 184.923C348.135 185.078 349.143 184.923 349.918 184.459C350.771 183.994 351.313 183.143 351.546 182.214C351.623 181.749 351.701 181.285 351.623 180.821C351.546 180.356 351.391 179.969 351.081 179.582Z" fill="#7B9B30"/>
<path d="M353.328 175.402C352.941 175.557 352.553 175.557 352.243 175.402C351.933 175.325 351.623 175.093 351.39 174.783C351.235 174.473 351.158 174.164 351.158 173.777C351.158 173.39 351.313 173.08 351.545 172.771C351.235 172.925 350.925 173.312 350.848 173.699C350.77 174.086 350.848 174.551 351.08 174.938C351.313 175.325 351.7 175.557 352.088 175.557C352.631 175.712 353.018 175.635 353.328 175.402Z" fill="#7B9B30"/>
<path d="M342.554 178.576C342.786 179.041 342.786 179.582 342.631 180.124C342.476 180.589 342.166 181.053 341.779 181.363C341.391 181.672 340.849 181.75 340.306 181.672C339.764 181.595 339.299 181.44 338.911 181.053C339.221 181.518 339.686 181.827 340.306 181.905C340.849 181.982 341.469 181.905 341.934 181.595C342.399 181.285 342.709 180.744 342.864 180.202C343.019 179.66 342.864 179.041 342.554 178.576Z" fill="#7B9B30"/>
<path d="M343.407 174.628C343.872 174.396 344.414 174.396 344.957 174.551C345.422 174.706 345.887 175.015 346.197 175.402C346.507 175.789 346.585 176.331 346.507 176.873C346.43 177.415 346.275 177.879 345.887 178.266C346.352 177.957 346.662 177.492 346.74 176.873C346.817 176.331 346.74 175.712 346.43 175.247C346.12 174.783 345.577 174.473 345.034 174.319C344.414 174.164 343.794 174.319 343.407 174.628Z" fill="#7B9B30"/>
<path d="M234.194 369C159.88 369 99.6359 361.48 99.6359 352.203C99.6359 342.926 159.88 335.405 234.194 335.405C308.509 335.405 368.753 342.926 368.753 352.203C368.753 361.48 308.509 369 234.194 369Z" fill="#D4DCBD"/>
<path d="M367.591 295.23C365.885 308.312 361.467 321.936 351.003 330.141C345.345 334.553 338.369 337.03 331.471 338.966C316.511 343.068 301.086 344.849 285.739 346.706C287.91 329.135 290.545 311.408 296.901 294.843C301.397 283.232 307.752 272.085 316.434 263.029C326.277 252.733 340.229 245.767 354.336 243.057C362.01 241.587 373.636 240.038 381 242.825C379.605 247.47 376.737 252.037 375.032 256.681C373.714 260.319 371.776 264.112 370.846 267.905C368.753 276.807 368.753 286.173 367.591 295.23Z" fill="#94B052"/>
<path d="M306.357 300.571V304.442L306.28 308.312C306.202 310.867 306.124 313.421 305.969 315.976C305.892 317.678 305.737 319.381 305.659 321.007C306.745 319.459 307.752 317.911 308.837 316.44C310.233 314.505 311.628 312.492 313.1 310.634C314.573 308.699 315.968 306.764 317.519 304.906C320.464 301.113 323.564 297.398 326.587 293.682C326.975 293.218 327.362 292.831 327.672 292.366C327.905 289.812 328.215 287.257 328.525 284.703C328.835 281.994 329.223 279.362 329.61 276.652L330.23 272.627L330.928 268.602C331.393 265.97 331.858 263.261 332.478 260.629C332.478 263.338 332.401 266.048 332.323 268.757L332.091 272.782L331.858 276.807C331.626 279.516 331.47 282.226 331.16 284.858C331.005 286.096 330.928 287.412 330.773 288.651C335.734 283 340.772 277.426 346.042 272.085C352.863 265.196 359.917 258.616 367.668 252.733C360.692 259.39 354.104 266.357 347.593 273.479L342.787 278.82L338.059 284.238L333.331 289.657L332.556 290.586C333.641 290.354 334.648 290.121 335.734 289.889C338.059 289.425 340.384 288.883 342.787 288.496C345.112 288.031 347.515 287.644 349.841 287.257C352.243 286.87 354.569 286.483 356.971 286.251C354.724 287.025 352.398 287.799 350.151 288.496C347.825 289.192 345.577 289.889 343.252 290.508C340.927 291.128 338.601 291.747 336.354 292.366C334.183 292.908 332.013 293.45 329.843 293.992L328.758 295.308C325.657 298.946 322.634 302.661 319.611 306.454C316.588 310.17 313.643 313.963 310.62 317.756C309.535 319.149 308.527 320.465 307.52 321.859C309.535 321.549 311.55 321.239 313.643 320.93C316.821 320.465 320.076 320.001 323.254 319.614C326.432 319.149 329.688 318.762 332.866 318.453C336.044 318.066 339.299 317.756 342.555 317.524C339.377 318.298 336.276 318.994 333.098 319.691C329.92 320.388 326.742 321.007 323.564 321.626C320.386 322.246 317.209 322.865 314.031 323.407C311.085 323.949 308.217 324.413 305.272 324.955C301.319 330.219 297.366 335.637 293.645 341.133C296.436 335.714 299.614 330.451 302.947 325.342H302.792L302.869 323.716C303.024 321.162 303.257 318.607 303.412 316.053C303.644 313.498 303.877 310.944 304.109 308.39L304.574 304.519L305.039 300.726C305.427 298.172 305.737 295.617 306.28 293.063C306.28 295.385 306.357 297.94 306.357 300.571Z" fill="white"/>
<path d="M266.749 238.49C270.547 214.494 282.329 191.736 299.847 174.706C303.645 170.991 309.225 167.353 313.953 169.83C316.201 170.991 317.596 173.236 318.527 175.558C323.487 187.247 319.612 200.561 316.511 212.868C310.465 236.942 307.443 261.868 307.675 286.638C307.753 296.701 310.388 316.44 301.087 323.562C293.258 329.599 286.902 324.103 281.864 317.911C265.587 297.785 262.874 263.183 266.749 238.49Z" fill="#94B052"/>
<path d="M292.871 323.794C292.018 319.924 291.088 316.131 290.313 312.26L290.468 312.105C292.018 310.403 293.414 308.545 294.654 306.687C295.274 305.758 295.894 304.752 296.437 303.745C296.979 302.739 297.522 301.733 297.987 300.727C298.917 298.637 299.692 296.469 300.235 294.302C300.777 292.057 301.01 289.812 300.855 287.567C300.545 289.812 300.079 291.979 299.382 294.069C298.684 296.159 297.754 298.172 296.747 300.185C295.739 302.12 294.576 304.055 293.336 305.913C292.251 307.461 291.166 309.009 289.926 310.48C289.693 309.164 289.461 307.925 289.306 306.61C288.298 300.804 287.755 294.921 287.368 289.115C287.213 287.258 287.135 285.4 287.135 283.619C288.53 282.304 289.926 280.91 291.166 279.439C292.638 277.659 294.034 275.879 295.196 273.943C296.437 272.008 297.444 269.996 298.219 267.828C298.994 265.661 299.614 263.493 299.769 261.249C299.227 263.416 298.529 265.583 297.522 267.519C296.592 269.531 295.429 271.466 294.111 273.247C292.871 275.105 291.476 276.808 290.003 278.433C289.073 279.517 288.065 280.523 287.058 281.529C286.98 278.201 286.98 274.872 287.058 271.544C287.213 265.661 287.678 259.855 288.298 253.972C288.375 253.121 288.53 252.269 288.608 251.418C290.313 250.334 291.863 249.096 293.414 247.78C295.119 246.309 296.824 244.683 298.297 242.98C299.769 241.277 301.165 239.42 302.327 237.407C303.412 235.394 304.42 233.382 304.963 231.137C304.11 233.227 303.025 235.162 301.707 237.02C300.467 238.878 298.994 240.581 297.444 242.129C295.894 243.754 294.266 245.225 292.483 246.619C291.321 247.547 290.081 248.476 288.918 249.328C289.538 245.07 290.236 240.813 291.011 236.556C292.096 230.75 293.491 225.099 295.041 219.371L295.119 219.294C296.747 218.365 298.297 217.436 299.769 216.352C301.242 215.268 302.637 214.107 303.955 212.791C305.273 211.553 306.435 210.159 307.521 208.689C308.606 207.218 309.536 205.67 310.233 204.044C308.296 207.063 305.815 209.618 303.18 211.94C301.862 213.101 300.467 214.185 298.994 215.191C297.909 215.888 296.824 216.662 295.739 217.281C297.134 212.327 298.684 207.45 300.467 202.574C302.405 197 304.653 191.504 307.133 186.163C305.66 188.718 304.265 191.349 303.025 194.059C301.785 196.768 300.545 199.4 299.382 202.186C297.444 206.754 295.739 211.475 294.266 216.197C293.724 215.268 293.181 214.34 292.716 213.333C291.941 211.63 291.243 209.85 290.701 208.069C290.158 206.289 289.771 204.354 289.616 202.496C289.383 200.638 289.383 198.703 289.461 196.768C288.995 198.626 288.84 200.638 288.84 202.574C288.84 203.58 288.918 204.509 288.995 205.515C289.15 206.521 289.306 207.45 289.461 208.379C289.926 210.314 290.546 212.172 291.321 213.952C292.018 215.423 292.716 216.817 293.569 218.21C293.491 218.442 293.414 218.674 293.336 218.984C290.313 228.66 288.143 238.568 286.748 248.554C285.973 247.238 285.275 245.922 284.655 244.529C283.647 242.361 282.795 240.039 282.097 237.717C281.477 235.394 281.012 232.995 280.702 230.595C280.392 228.195 280.469 225.718 280.624 223.241C280.082 225.641 279.927 228.118 279.927 230.595C279.927 231.834 280.082 233.072 280.159 234.311C280.314 235.549 280.547 236.788 280.857 238.026C281.399 240.426 282.252 242.826 283.26 245.148C284.19 247.16 285.197 249.096 286.438 250.953C286.283 251.882 286.205 252.811 286.05 253.74C285.43 259.623 285.042 265.583 284.887 271.466V275.879C284.887 276.653 284.887 277.349 284.887 278.123L284.965 280.368C284.965 280.833 284.965 281.297 285.042 281.684C283.88 280.368 282.795 278.975 281.864 277.582C280.469 275.569 279.307 273.479 278.299 271.312C277.291 269.144 276.439 266.822 275.819 264.5C275.121 262.177 274.811 259.7 274.501 257.301C274.346 259.778 274.578 262.255 274.966 264.655C275.199 265.893 275.509 267.054 275.819 268.293C276.206 269.454 276.594 270.692 277.059 271.853C277.989 274.176 279.152 276.421 280.547 278.511C281.942 280.523 283.337 282.458 285.12 284.239C285.12 284.471 285.12 284.703 285.12 284.935L285.507 289.348C286.128 296.392 287.29 303.281 288.918 310.17C288.065 309.551 287.29 308.854 286.515 308.235C285.275 307.151 284.035 306.068 282.95 304.907C281.787 303.745 280.702 302.584 279.617 301.346C278.532 300.107 277.524 298.791 276.516 297.475C277.291 298.946 278.144 300.34 279.074 301.733C280.004 303.126 281.089 304.365 282.175 305.681C283.26 306.919 284.422 308.158 285.663 309.241C286.903 310.403 288.143 311.486 289.538 312.493C290.468 316.131 291.553 320.001 292.871 323.794Z" fill="white"/>
<path d="M116.301 286.716C114.519 299.798 115.216 314.118 123.2 324.723C127.463 330.451 133.586 334.631 139.787 338.269C153.119 346.01 167.613 351.738 181.953 357.389C184.433 339.817 186.526 322.091 184.743 304.442C183.503 292.057 180.248 279.749 174.202 268.757C167.381 256.294 155.754 245.999 142.81 239.729C135.834 236.323 124.905 231.911 117.076 232.685C117.154 237.562 118.782 242.671 119.247 247.547C119.557 251.418 120.487 255.598 120.332 259.468C119.944 268.602 117.541 277.659 116.301 286.716Z" fill="#94B052"/>
<path d="M174.047 307.461L173.039 311.176L172.109 314.892C171.489 317.369 170.947 319.923 170.404 322.401C170.094 324.026 169.707 325.729 169.396 327.355C168.776 325.574 168.156 323.871 167.459 322.091C166.606 319.846 165.753 317.601 164.901 315.356C163.971 313.112 163.118 310.867 162.188 308.699C160.328 304.287 158.312 299.875 156.375 295.54C156.142 294.998 155.91 294.534 155.6 293.992C156.065 291.437 156.375 288.883 156.762 286.406C157.15 283.697 157.46 281.065 157.847 278.356L158.312 274.33L158.7 270.305C158.933 267.596 159.165 264.887 159.243 262.177C158.467 264.809 157.925 267.441 157.305 270.073L156.452 274.021L155.677 277.968C155.134 280.6 154.669 283.31 154.204 285.941C153.972 287.18 153.817 288.496 153.584 289.734C150.329 283 146.841 276.343 143.12 269.841C138.315 261.481 133.276 253.275 127.308 245.689C132.346 253.895 136.842 262.332 141.26 270.847L144.516 277.272L147.693 283.697L150.794 290.121L151.259 291.205C150.329 290.741 149.321 290.199 148.391 289.734C146.298 288.651 144.128 287.567 141.958 286.561C139.787 285.477 137.617 284.548 135.447 283.542C133.276 282.536 131.106 281.607 128.858 280.678C130.874 281.994 132.889 283.31 134.904 284.548C136.919 285.787 139.012 287.025 141.028 288.264C143.12 289.502 145.136 290.663 147.228 291.824C149.166 292.908 151.104 293.992 153.042 295.076L153.739 296.624C155.755 300.959 157.77 305.293 159.708 309.706C161.645 314.04 163.583 318.453 165.443 322.865C166.141 324.413 166.761 326.039 167.381 327.587C165.521 326.735 163.661 325.961 161.723 325.11C158.778 323.871 155.755 322.555 152.809 321.394C149.864 320.156 146.841 318.995 143.818 317.756C140.795 316.595 137.772 315.434 134.749 314.35C137.617 315.898 140.485 317.369 143.353 318.84C146.221 320.311 149.089 321.781 152.034 323.175C154.902 324.568 157.847 325.961 160.793 327.355C163.506 328.593 166.141 329.832 168.854 331.07C171.334 337.185 173.66 343.378 175.83 349.648C174.512 343.688 172.884 337.805 170.947 331.999L171.102 332.077L171.489 330.451C172.032 327.974 172.497 325.419 172.962 322.865C173.427 320.311 173.892 317.833 174.28 315.279L174.9 311.486L175.442 307.693C175.752 305.139 176.062 302.584 176.295 300.03C175.442 302.507 174.745 304.984 174.047 307.461Z" fill="white"/>
<path d="M185.518 248.941C185.595 257.92 198.229 253.895 205.98 250.102C207.376 248.554 209.081 247.16 211.174 246.077C218.692 242.284 227.994 242.439 235.202 246.851C241.403 250.644 248.611 255.366 253.107 261.016C263.571 274.253 273.57 287.877 283.181 301.733C285.584 305.216 287.909 308.622 290.622 311.873C297.521 320.079 306.667 326.968 310.387 336.953C311.86 340.746 313.41 345.468 312.248 349.571C312.093 350.268 311.783 350.809 311.55 351.351C312.015 351.274 312.403 351.119 312.79 350.809C316.278 348.332 318.836 345.468 320.696 342.372C331.393 324.336 317.518 296.856 306.512 282.458C298.063 271.389 291.087 260.397 284.344 248.322C278.608 238.104 277.523 225.022 269.772 215.81C264.966 210.082 253.495 207.683 246.441 206.367C234.737 204.199 222.413 205.438 211.329 209.695C205.128 212.095 197.609 216.43 194.586 222.545C191.098 229.589 188.773 238.181 186.215 245.612C185.905 246.696 185.518 247.78 185.518 248.941Z" fill="#FFBF5E"/>
<path d="M240.472 253.663C246.13 260.088 250.316 268.448 253.727 275.182C256.672 280.988 258.765 287.568 262.563 292.754C266.206 297.708 271.244 301.424 274.732 306.455C280.933 315.279 286.669 324.491 293.645 332.928C296.977 337.031 299.535 341.753 303.023 345.856C305.814 349.107 313.642 355.609 315.037 347.094C315.27 345.701 315.037 344.307 314.805 342.914C313.565 336.644 311.627 329.445 307.829 324.259C305.736 321.395 303.411 318.685 301.008 316.054C299.845 314.815 298.605 313.577 297.365 312.338C296.745 311.719 295.117 309.551 294.342 309.319C296.667 310.016 299.07 310.79 301.318 311.796C302.946 312.493 306.201 313.731 307.209 315.279C300.078 304.52 286.359 299.798 278.375 289.658C281.708 288.883 285.041 288.032 288.374 287.258C277.987 280.678 269.694 271.08 264.501 260.01C261.788 254.205 259.23 248.786 259.152 242.361C259.075 238.646 259.85 231.447 256.672 228.66C253.727 226.106 247.991 230.286 246.13 232.763C244.968 234.311 244.27 236.014 243.65 237.794C241.712 242.981 240.782 248.322 240.472 253.663Z" fill="#F0A83B"/>
<path d="M224.273 242.051C224.273 242.051 218.769 238.955 210.553 244.219C210.553 244.219 202.647 240.116 198.074 243.367V246.386L216.987 250.256L227.373 243.986L224.273 242.051Z" fill="#F0A83B"/>
<path d="M288.684 287.258C287.056 287.103 285.428 286.871 283.8 286.561C282.173 286.252 280.622 285.865 279.072 285.323C275.972 284.316 272.949 283.078 270.081 281.53C267.213 280.059 264.423 278.279 261.787 276.266C259.23 274.253 256.827 272.009 255.121 269.145C255.819 270.615 256.827 272.009 257.834 273.247C258.919 274.486 260.16 275.647 261.4 276.731C263.958 278.821 266.748 280.601 269.693 282.226C272.639 283.775 275.739 285.013 278.917 285.942C280.545 286.407 282.173 286.716 283.8 286.948C285.351 287.181 287.056 287.258 288.684 287.258Z" fill="#F0A83B"/>
<path d="M306.589 314.505C304.419 312.028 301.706 309.938 298.915 308.08C296.125 306.3 293.102 304.752 290.002 303.436C286.901 302.197 283.723 301.036 280.545 300.262C277.29 299.411 274.034 298.792 270.701 298.637C272.329 298.869 273.957 299.179 275.585 299.566C276.36 299.72 277.212 299.953 277.987 300.185L280.39 300.882C283.568 301.81 286.669 302.894 289.769 304.21C292.792 305.449 295.815 306.919 298.605 308.622C300 309.474 301.396 310.403 302.713 311.332C303.333 311.873 304.031 312.338 304.651 312.88C305.349 313.422 305.969 313.963 306.589 314.505Z" fill="#F0A83B"/>
<path d="M207.221 224.635C206.678 225.331 206.213 226.106 205.748 226.802C205.283 227.576 204.818 228.273 204.353 229.047C203.423 230.518 202.648 232.143 201.872 233.691C201.097 235.24 200.4 236.865 199.702 238.491C199.392 239.342 199.082 240.116 198.772 240.968C198.462 241.819 198.229 242.593 197.997 243.445C198.385 242.671 198.772 241.897 199.16 241.123L200.322 238.723L202.57 234.001L204.895 229.279C205.67 227.731 206.523 226.183 207.221 224.635Z" fill="#F0A83B"/>
<path d="M186.447 359.014C178.774 359.169 171.023 359.014 163.349 358.859C159.396 358.782 155.443 358.704 151.49 358.55C148.002 358.395 144.514 358.782 141.104 358.008C140.174 357.776 139.243 357.466 138.546 356.924C137.848 356.305 137.306 355.376 137.461 354.447C137.693 352.976 139.398 352.202 140.871 351.815C145.832 350.422 150.947 349.725 155.831 348.1C160.559 346.474 165.054 344.307 169.783 342.758C173.503 341.597 176.604 342.371 180.324 342.294C184.2 342.217 188.463 341.984 192.183 340.978C192.416 340.901 192.726 340.823 192.958 340.978C193.191 341.133 193.268 341.443 193.268 341.752C193.578 345.855 192.338 350.654 191.796 354.757C191.641 355.84 191.408 357.001 190.71 357.853C189.625 358.859 187.92 358.937 186.447 359.014Z" fill="#FFC5AB"/>
<path d="M166.838 343.534C166.838 343.611 166.838 343.689 166.838 343.689C167.07 344.695 168.078 345.392 169.085 345.856C171.876 347.095 175.441 347.172 178.464 347.404C181.177 347.636 183.89 347.636 186.68 347.404C188.541 347.249 191.176 347.559 192.571 346.011C192.881 345.624 193.114 345.237 193.269 344.772C193.424 344.385 193.501 343.998 193.656 343.534C194.276 340.979 194.276 338.193 194.586 335.561C195.129 331.381 195.594 327.278 196.059 323.098C196.989 315.435 197.842 307.771 198.617 300.108C198.694 299.566 198.772 299.024 198.772 298.405C199.082 295.618 199.315 292.909 199.237 290.122C199.16 288.807 199.78 283.93 199.16 283.078C201.95 286.639 203.035 292.522 204.508 296.78C205.05 298.25 205.593 299.721 206.058 301.192C209.391 310.79 213.964 320.234 219.39 328.826C223.033 334.555 226.366 340.902 231.326 345.624C239.155 352.978 247.991 357.312 258.3 360.176C269.539 363.35 281.863 361.183 293.18 359.48C294.265 359.325 295.505 359.093 296.125 358.164C296.59 357.545 296.668 356.693 296.668 355.919C296.513 351.584 292.947 348.875 290.932 345.469C288.529 341.289 286.592 337.032 283.801 333.084C278.375 325.498 271.865 318.841 265.896 311.719C263.183 308.468 260.858 304.985 258.455 301.579C248.844 287.723 238.845 274.176 228.381 260.862C223.963 255.212 216.677 250.412 210.476 246.697C206.368 244.22 201.64 243.059 196.912 243.291C193.269 243.446 189.703 244.297 186.448 246C178.154 250.257 176.371 258.772 175.054 267.365C173.736 275.957 172.806 284.549 172.263 293.219C172.031 296.857 171.876 300.573 171.798 304.211C171.566 314.351 172.341 324.569 170.326 334.632C169.861 336.799 168.388 339.199 167.38 341.134C167.148 341.986 166.683 342.76 166.838 343.534Z" fill="#002F59"/>
<path d="M211.096 359.014C203.422 359.169 195.671 359.014 187.998 358.859C184.045 358.782 180.092 358.704 176.139 358.55C172.651 358.395 169.163 358.782 165.752 358.008C164.822 357.776 163.892 357.466 163.194 356.924C162.497 356.305 161.954 355.376 162.109 354.447C162.342 352.976 164.047 352.202 165.52 351.815C170.48 350.422 175.596 349.725 180.479 348.1C185.207 346.474 189.703 344.307 194.431 342.758C198.152 341.597 201.252 342.371 204.972 342.294C208.848 342.217 213.111 341.984 216.832 340.978C217.064 340.901 217.374 340.823 217.607 340.978C217.839 341.133 217.917 341.443 217.917 341.752C218.227 345.855 216.987 350.654 216.444 354.757C216.289 355.84 216.057 357.001 215.359 357.853C214.351 358.859 212.646 358.937 211.096 359.014Z" fill="#FFC5AB"/>
<path d="M165.83 357.93C165.055 357.698 164.202 357.388 163.582 356.924C162.962 356.459 162.419 355.685 162.419 354.911C162.342 354.137 162.807 353.44 163.505 352.976C164.125 352.511 164.977 352.279 165.752 352.047C169.008 351.196 172.341 350.576 175.596 349.802C178.929 349.028 182.107 347.944 185.208 346.551L189.858 344.538C191.408 343.842 192.959 343.223 194.509 342.681C192.881 343.145 191.253 343.687 189.703 344.229L184.975 346.009C183.425 346.628 181.797 347.248 180.247 347.712C178.619 348.254 177.069 348.641 175.364 349.028C172.108 349.802 168.775 350.421 165.52 351.428C164.667 351.66 163.892 351.97 163.194 352.511C162.497 353.053 161.954 353.905 162.032 354.834C162.187 355.763 162.729 356.537 163.505 357.001C164.125 357.543 164.977 357.775 165.83 357.93Z" fill="#FFDACA"/>
<path d="M191.486 343.532C191.641 344.693 192.726 345.39 193.811 345.854C196.602 347.093 200.167 347.17 203.19 347.403C205.903 347.635 208.693 347.635 211.406 347.403C213.266 347.248 215.902 347.557 217.297 346.009C217.917 345.313 218.15 344.461 218.382 343.532C219.002 341.055 219.002 338.191 219.312 335.559C219.855 331.379 220.32 327.277 220.785 323.097C221.715 314.891 222.723 306.686 223.575 298.404C223.885 295.617 224.118 292.908 224.04 290.121C223.963 288.805 224.583 283.928 223.963 283.077C226.753 286.638 227.838 292.521 229.311 296.701C231.094 301.577 232.799 306.454 234.194 311.408C236.442 319.536 240.395 327.509 244.116 335.017C245.898 338.656 248.146 341.442 251.169 344.152C255.665 348.254 260.548 351.815 265.819 354.989C268.531 356.614 271.322 358.085 274.345 359.014C283.258 361.723 293.335 360.794 301.939 357.543C305.892 356.072 309.845 354.911 311.705 351.35C312.015 350.809 312.247 350.189 312.403 349.57C313.565 345.467 312.015 340.746 310.542 336.953C306.744 326.967 297.598 320.078 290.777 311.872C288.064 308.621 285.739 305.138 283.336 301.732C273.725 287.876 263.726 274.33 253.262 261.016C248.844 255.365 241.558 250.566 235.357 246.85C228.148 242.515 218.847 242.283 211.329 246.076C209.158 247.16 207.531 248.553 206.135 250.101C202.182 254.668 200.942 261.016 199.935 267.363C197.997 279.593 196.912 291.901 196.679 304.209C196.447 314.35 197.222 324.567 195.206 334.63C194.819 336.875 193.269 339.197 192.261 341.133C191.796 341.984 191.408 342.758 191.486 343.532Z" fill="#002F59"/>
<path d="M195.129 334.708C196.137 329.909 196.524 324.955 196.679 320.078C196.834 315.201 196.757 310.247 196.834 305.371C197.067 295.54 197.765 285.787 199.005 276.033C199.315 273.634 199.625 271.156 200.012 268.757C200.4 266.357 200.787 263.88 201.252 261.558C201.795 259.158 202.493 256.836 203.5 254.669C204.508 252.501 205.903 250.489 207.763 248.863C209.546 247.237 211.716 246.076 213.964 245.225C216.212 244.373 218.692 243.909 221.095 243.677C225.978 243.29 230.939 244.451 235.202 246.85C231.017 244.296 225.978 242.98 221.095 243.29C218.615 243.445 216.135 243.909 213.809 244.76C211.484 245.612 209.236 246.773 207.376 248.399C206.911 248.786 206.446 249.25 206.058 249.715C205.671 250.179 205.283 250.643 204.895 251.185C204.198 252.192 203.5 253.275 202.958 254.436C201.873 256.681 201.175 259.081 200.632 261.481C200.09 263.88 199.702 266.357 199.315 268.757C198.927 271.156 198.617 273.634 198.307 276.033C197.144 285.787 196.447 295.617 196.369 305.448C196.369 310.402 196.447 315.279 196.447 320.156C196.292 324.955 196.059 329.909 195.129 334.708Z" fill="#00426B"/>
<path d="M245.201 334.708C242.953 330.606 241.016 326.348 239.155 322.091C237.373 317.756 235.59 313.499 233.962 309.164C232.412 304.829 231.327 300.262 229.699 295.85C229.001 293.682 228.381 291.437 227.606 289.193C226.831 286.948 225.979 284.703 224.428 282.69L223.343 283.542C223.343 283.465 223.343 283.619 223.421 283.697C223.421 283.774 223.498 283.929 223.498 284.084C223.498 284.393 223.576 284.703 223.576 284.935C223.576 285.555 223.576 286.174 223.498 286.793C223.421 288.032 223.266 289.348 223.343 290.663C223.421 293.14 223.188 295.695 222.878 298.249L221.328 313.499L219.778 328.748L219.003 336.411L218.615 340.204L218.46 342.14C218.382 342.759 218.305 343.378 217.995 343.997C218.305 343.455 218.46 342.836 218.615 342.14L218.925 340.204L219.468 336.411L220.553 328.825C221.25 323.794 221.87 318.685 222.568 313.654C223.188 308.545 223.808 303.513 224.428 298.404C224.738 295.85 224.971 293.295 224.971 290.663C224.893 289.425 225.048 288.186 225.126 286.87C225.126 286.251 225.203 285.555 225.203 284.935C225.203 284.626 225.203 284.239 225.126 283.929C225.126 283.774 225.048 283.542 225.048 283.387C224.971 283.155 224.971 283 224.738 282.69L223.653 283.542C224.971 285.245 225.823 287.412 226.599 289.58C227.296 291.747 227.916 293.992 228.614 296.314C230.242 300.726 231.327 305.216 232.954 309.628C233.73 311.873 234.737 313.963 235.59 316.131C236.52 318.298 237.45 320.388 238.535 322.555C240.163 326.813 242.488 330.915 245.201 334.708Z" fill="#00426B"/>
<path d="M230.474 291.205C230.706 292.134 230.086 293.295 229.078 293.295C230.009 294.844 229.001 297.166 227.141 297.553C227.141 298.714 227.141 299.952 226.443 300.804C226.288 301.036 226.056 301.191 225.901 301.423C225.668 301.888 225.745 302.43 225.59 302.894C225.28 303.823 224.118 304.365 223.188 303.978C223.885 304.597 223.343 305.835 222.49 306.068C221.637 306.377 220.707 305.99 219.855 305.681C217.142 304.597 214.506 303.436 211.794 302.352C210.476 301.81 209.003 301.114 208.383 299.798C207.143 297.166 209.236 292.134 210.011 289.425C210.863 286.484 212.414 282.149 215.979 281.684C219.002 281.22 221.637 284.084 224.118 285.322C226.831 286.716 229.776 288.109 230.474 291.205Z" fill="#FFC5AB"/>
<path d="M161.334 278.201C161.412 277.35 161.489 276.576 161.644 275.724C162.264 271.854 163.737 268.216 165.287 264.577C166.45 261.713 167.38 258.927 169.163 256.45C171.023 253.818 172.883 251.109 174.589 248.399C177.457 243.677 179.704 238.181 182.96 233.769C186.293 229.28 190.168 225.177 194.199 221.307C196.292 219.294 207.996 207.373 209.546 214.804C210.554 219.681 203.578 224.016 202.492 228.351C202.105 229.976 199.16 243.368 197.144 243.445C193.501 243.6 189.936 244.451 186.68 246.154C180.324 249.406 177.767 255.211 176.371 261.559C177.379 261.481 178.387 261.481 179.394 261.636C182.572 262.178 185.363 263.803 188.076 265.506C193.269 268.835 197.377 272.318 203.035 275.028C204.198 275.569 215.824 281.065 217.452 281.762C217.607 281.839 217.607 281.839 217.685 281.839C215.902 285.168 214.352 288.574 212.956 292.057C211.949 294.612 211.096 297.321 209.236 299.411C209.003 299.643 208.848 299.875 208.616 300.03C207.841 300.804 207.066 301.191 206.291 301.346C205.128 301.578 203.888 301.346 202.26 300.959C201.097 300.727 199.935 300.495 198.772 300.185C194.586 299.256 190.323 298.405 186.138 297.476C182.34 296.702 178.619 295.85 174.976 294.457C174.124 294.147 173.271 293.76 172.496 293.373C165.597 290.045 160.792 286.097 161.334 278.201Z" fill="#FFBF5E"/>
<path d="M167.69 253.818C167.302 254.205 167.07 254.67 167.07 255.211C167.07 255.366 167.07 255.676 167.147 255.831C167.225 255.986 167.457 256.218 167.302 256.373C167.225 256.45 166.915 256.45 166.837 256.527C166.372 256.76 166.14 257.147 165.907 257.611C165.752 257.998 165.52 258.385 165.442 258.772C165.365 259.082 165.442 259.546 165.597 259.779C165.752 260.011 166.14 260.243 165.83 260.475C165.52 260.785 165.287 260.707 165.055 261.172C164.9 261.714 164.667 262.256 164.667 262.797C164.667 263.494 164.9 263.804 165.287 264.346C165.132 264.346 164.977 264.346 164.822 264.5C163.892 265.12 164.202 266.668 164.512 267.519C164.977 268.758 165.907 269.764 166.915 270.616C169.24 272.551 173.891 274.022 176.681 274.796C178.076 275.183 179.627 275.57 180.944 274.95C183.58 273.712 185.207 268.448 186.292 265.894C187.533 263.03 189.083 258.772 186.603 256.14C186.37 255.908 185.982 255.521 185.595 255.366C184.975 255.211 184.432 255.211 183.89 255.057C183.27 254.824 182.572 254.67 181.952 254.36C180.324 253.663 178.851 252.812 177.146 252.27C176.139 251.96 174.588 251.418 173.658 252.038C173.348 252.193 173.116 252.502 172.883 252.734C172.263 253.199 171.565 253.431 170.79 253.276C170.015 253.199 169.163 252.812 168.388 253.199C168.232 253.276 168.155 253.354 168 253.508C167.845 253.586 167.767 253.741 167.69 253.818Z" fill="#FFC5AB"/>
<path d="M260.005 244.606C258.842 247.393 257.68 250.18 256.517 252.966C254.114 258.849 251.789 264.732 249.386 270.615C246.751 277.195 243.805 284.162 237.992 288.342C235.357 290.277 232.256 291.438 229.078 292.212C222.955 293.683 216.444 293.451 210.476 291.593C206.833 290.432 203.345 288.729 199.857 287.026C194.974 284.549 190.013 282.149 185.13 279.672C182.417 278.356 180.867 277.505 180.712 274.176C180.634 271.467 181.642 268.758 182.494 266.203C183.657 262.642 184.665 259.004 185.362 255.366C185.362 255.443 199.779 258.849 201.097 259.159C203.81 259.778 206.445 260.398 209.158 260.939C210.941 261.326 214.196 262.797 215.669 261.326C216.211 260.785 216.521 260.088 216.832 259.314C220.009 253.044 222.722 246.387 225.048 239.73C226.443 235.704 227.761 231.679 230.086 227.964C231.171 226.183 231.791 224.016 232.644 222.003C233.419 220.3 234.194 218.597 235.202 216.972C236.209 215.424 237.449 214.108 238.612 212.637C238.845 212.405 239 212.095 239.31 211.863C239.697 211.553 240.085 211.321 240.55 211.166C242.1 210.47 243.728 209.85 245.355 209.308C247.293 208.689 248.921 208.302 250.936 208.844C253.107 209.386 254.889 210.082 256.362 211.863C257.912 213.643 258.842 215.965 259.617 218.133C260.703 220.997 261.788 223.938 262.175 227.035C262.408 228.66 262.485 230.286 262.95 231.911C263.105 232.453 263.338 233.073 263.415 233.614C263.648 235.163 262.718 237.175 262.253 238.646C261.555 240.659 260.78 242.594 260.005 244.606Z" fill="#FFBF5E"/>
<path d="M229.078 292.135C226.83 292.599 224.583 292.832 222.335 292.832C220.087 292.909 217.839 292.754 215.591 292.367C213.343 291.98 211.173 291.438 209.08 290.664C206.988 289.89 204.895 288.961 202.88 287.955L190.633 281.994L184.509 279.053C183.502 278.589 182.494 278.047 181.797 277.195C181.099 276.344 180.866 275.183 180.711 274.021C180.711 275.105 180.866 276.344 181.564 277.273C182.262 278.201 183.347 278.821 184.277 279.363L190.323 282.459C194.353 284.549 198.384 286.562 202.492 288.574C204.507 289.58 206.6 290.509 208.77 291.206C210.941 291.98 213.188 292.522 215.436 292.832C220.087 293.606 224.738 293.373 229.078 292.135Z" fill="#F0A83B"/>
<path d="M215.437 261.946C216.057 263.417 217.064 264.656 218.149 265.739C219.312 266.823 220.63 267.674 222.025 268.371C223.42 269.068 224.893 269.61 226.443 269.997C227.993 270.384 229.544 270.693 231.094 270.848C229.466 271.003 227.838 270.926 226.288 270.616C224.738 270.306 223.11 269.764 221.715 269.068C220.552 268.449 219.467 267.752 218.46 266.9C218.77 267.442 219.002 267.907 219.235 268.449C219.932 270.152 220.475 271.932 220.475 273.79C219.855 272.087 219.235 270.384 218.537 268.758C217.994 267.442 217.374 266.204 216.754 264.965C216.134 263.959 215.669 262.953 215.437 261.946Z" fill="#F0A83B"/>
<path d="M253.184 261.017C254.424 259.469 255.355 257.611 256.13 255.753C256.905 253.896 257.602 252.038 258.145 250.103C258.455 249.174 258.687 248.167 258.998 247.239C259.23 246.232 259.463 245.303 259.695 244.297L260.315 241.356C260.47 240.349 260.625 239.343 260.78 238.414C260.238 240.349 259.695 242.284 259.153 244.22C258.61 246.155 258.067 248.09 257.447 249.948C256.905 251.883 256.285 253.741 255.587 255.599C255.277 256.527 254.889 257.456 254.502 258.385C254.114 259.237 253.649 260.166 253.184 261.017Z" fill="#F0A83B"/>
<path d="M253.029 208.38C250.937 208.302 248.844 208.457 246.751 208.844C244.658 209.309 242.643 210.005 240.783 211.089C238.922 212.173 237.45 213.876 236.287 215.656C235.124 217.436 234.194 219.372 233.264 221.229C231.404 225.022 229.621 228.815 227.993 232.686C227.218 234.621 226.443 236.556 225.746 238.569C225.048 240.581 224.118 242.439 223.498 244.452C224.273 242.517 225.28 240.659 226.133 238.724C226.908 236.788 227.761 234.853 228.613 232.918C230.319 229.125 232.101 225.255 234.039 221.539C234.969 219.681 235.899 217.746 236.985 216.043C238.07 214.263 239.465 212.715 241.17 211.631C242.953 210.547 244.891 209.773 246.906 209.309C248.844 208.689 250.937 208.457 253.029 208.38Z" fill="#F0A83B"/>
<path d="M212.104 237.33C211.794 238.181 211.561 239.11 211.329 239.962C211.251 240.116 211.251 240.271 211.096 240.426C210.864 240.581 210.554 240.503 210.399 240.349C210.244 240.194 210.166 239.884 210.089 239.652C208.538 233.304 207.918 227.267 208.771 220.764C209.701 213.643 211.794 206.754 213.887 199.864C214.662 197.387 215.359 194.988 216.677 192.743C217.065 192.046 217.607 191.349 218.305 190.885C219.622 190.034 221.405 190.343 222.723 191.117C232.644 196.923 221.793 214.03 218.615 220.842C217.762 222.7 216.91 224.557 216.212 226.493C214.972 230.131 213.344 233.614 212.104 237.33Z" fill="#002F59"/>
<path d="M235.512 181.828C235.512 183.299 235.977 184.692 235.9 186.086C235.822 188.33 235.9 190.575 236.132 192.743C236.52 196.613 237.372 200.329 238.845 203.967C239.543 205.747 240.783 206.986 242.643 207.527C243.806 205.515 244.503 203.27 243.806 201.412C243.108 199.477 236.675 182.834 235.512 181.828Z" fill="#FFC5AB"/>
<path d="M194.277 190.575C194.2 190.498 194.2 190.343 194.122 190.266C194.2 190.343 194.2 190.498 194.277 190.575Z" fill="#FFC5AB"/>
<path d="M190.324 187.789C191.409 189.027 192.649 190.188 194.277 190.575C194.199 190.498 194.199 190.343 194.122 190.266C193.967 189.956 193.889 189.646 193.734 189.337V189.259C192.262 185.621 191.099 181.673 190.169 177.958C189.549 175.636 189.084 173.313 188.696 170.914C188.541 170.14 188.386 166.192 189.161 166.037C189.394 165.96 189.626 166.192 190.014 166.811C191.409 169.056 193.502 170.836 195.982 171.843C201.408 174.01 206.989 173.236 212.569 172.849C216.677 172.617 220.94 172.617 224.738 174.165C225.514 174.474 227.606 176.874 227.916 175.094C228.304 173.081 229.157 170.294 231.637 169.985C233.032 169.83 234.505 170.449 235.357 171.533C236.288 172.617 236.753 174.01 236.83 175.403C236.985 176.797 237.063 179.274 236.133 180.435C235.978 180.667 235.745 180.822 235.59 181.131C235.512 181.286 235.512 181.441 235.512 181.673C235.512 181.751 235.512 181.751 235.512 181.828V181.906C235.512 183.376 235.978 184.77 235.9 186.163C235.823 188.408 235.9 190.653 236.133 192.82C236.52 196.69 237.373 200.406 238.845 204.044C239.543 205.825 240.783 207.063 242.643 207.605C242.876 207.682 243.109 207.76 243.341 207.76C245.434 208.147 247.604 207.528 249.774 207.605C252.177 207.682 254.348 208.456 256.518 209.385C260.781 211.166 264.812 213.798 268.067 217.049C270.237 219.294 272.02 221.848 273.26 224.712C275.741 230.595 275.508 237.02 276.283 243.212C276.981 248.476 279.616 254.901 282.329 259.468C284.422 262.951 287.29 268.525 292.095 268.525C292.328 268.525 292.56 268.525 292.793 268.37C293.025 268.138 293.025 267.751 292.948 267.441C292.095 260.397 291.243 253.353 290.313 246.309C290.08 244.451 289.847 242.671 289.382 240.89C288.917 239.032 288.917 236.168 287.987 234.388C289.615 237.252 291.475 239.729 293.025 242.748C292.405 240.658 291.94 238.181 291.32 236.478C290.235 233.459 289.15 230.053 287.367 227.344C285.662 224.789 284.112 222.235 282.484 219.681C280.934 217.281 279.694 214.494 277.756 212.482C279.849 214.649 281.941 216.816 284.034 218.984C285.274 220.3 286.825 221.693 288.607 221.616C288.762 221.616 288.84 221.384 288.762 221.229L282.561 212.869C280.314 209.85 278.608 206.212 276.128 203.425C273.26 200.251 270.547 197 267.912 193.672C262.796 187.092 257.991 180.125 253.107 173.391C246.752 164.566 239.776 155.742 230.474 149.781C220.475 143.357 208.229 144.053 197.687 148.852C195.052 150.014 192.339 151.407 189.936 153.032C185.906 155.742 182.65 159.148 181.643 163.715C179.705 171.765 185.053 181.828 190.324 187.789Z" fill="#002F59"/>
<path d="M273.725 213.798C273.26 212.172 272.562 210.547 271.709 208.999C270.857 207.528 269.849 206.057 268.686 204.741C266.361 202.187 263.648 199.942 261.013 197.697C259.695 196.614 258.377 195.53 257.06 194.369C255.82 193.208 254.579 191.969 253.494 190.653C252.409 189.337 251.402 187.944 250.626 186.396C249.774 184.925 249.231 183.299 248.689 181.674C249.309 185.08 250.781 188.331 252.952 191.04C255.122 193.827 257.757 196.072 260.393 198.316C263.106 200.484 265.741 202.651 268.144 205.128C269.306 206.367 270.392 207.683 271.322 209.154C272.329 210.702 273.105 212.25 273.725 213.798Z" fill="#00426B"/>
<path d="M204.043 151.407C207.453 150.478 210.941 150.401 214.274 151.098C217.607 151.794 220.785 153.265 223.498 155.433C221.25 152.801 217.917 151.02 214.429 150.246C211.019 149.55 207.221 149.859 204.043 151.407Z" fill="#00426B"/>
<path d="M198.85 156.517C199.702 157.523 200.865 158.297 202.028 158.916C203.268 159.536 204.508 159.923 205.826 160.232C207.143 160.542 208.461 160.697 209.856 160.851C211.174 160.929 212.569 161.006 213.887 161.084C216.522 161.238 219.08 161.858 221.483 162.864C222.723 163.329 223.886 163.87 225.126 164.49C226.289 165.031 227.529 165.728 228.691 166.27C226.521 164.799 224.196 163.329 221.793 162.245C219.39 161.084 216.677 160.387 213.964 160.232C211.251 160.077 208.616 160.077 206.058 159.613C203.5 159.148 200.943 158.297 198.85 156.517Z" fill="#00426B"/>
<path d="M210.864 168.515C208.074 168.592 205.439 168.36 202.803 167.741C200.168 167.121 197.687 166.038 195.285 164.722C197.3 166.579 199.858 167.895 202.571 168.592C205.361 169.211 208.229 169.211 210.864 168.515Z" fill="#00426B"/>
<path d="M278.686 224.713C279.383 225.874 279.926 227.113 280.391 228.351C280.856 229.59 281.244 230.906 281.399 232.221C281.864 234.853 281.786 237.485 281.941 240.194C282.019 241.51 282.096 242.904 282.406 244.22C282.639 245.536 283.026 246.851 283.414 248.167C283.879 249.483 284.344 250.722 284.887 251.96C285.429 253.199 285.972 254.437 286.592 255.599C285.739 253.044 284.809 250.49 284.034 247.935C283.336 245.381 282.871 242.749 282.794 240.117C282.639 237.485 282.639 234.698 282.096 232.067C281.786 230.751 281.399 229.435 280.778 228.196C280.158 226.958 279.461 225.797 278.686 224.713Z" fill="#00426B"/>
<path d="M235.9 186.086C235.822 188.33 235.9 190.575 236.132 192.743C236.52 196.536 237.373 200.329 238.845 203.967C239.62 205.979 241.093 207.218 243.341 207.682C245.434 208.069 247.604 207.45 249.774 207.527C252.177 207.605 254.347 208.379 256.518 209.308C260.858 211.088 264.579 213.72 267.989 216.894C265.509 209.54 259.773 204.741 252.797 201.18C251.092 200.329 249.077 199.554 247.759 198.084C246.441 196.613 245.124 194.987 243.961 193.439C241.403 190.111 239.155 186.473 238.148 182.37C237.993 181.751 237.838 181.054 237.295 180.667C234.892 179.041 235.9 185.466 235.9 186.086Z" fill="#002C4C"/>
<path d="M188.618 170.836C189.006 173.236 189.548 175.558 190.091 177.88C191.021 181.673 192.183 185.544 193.656 189.182V189.259C193.811 189.569 193.966 189.878 194.044 190.188C194.121 190.266 194.121 190.42 194.199 190.498C194.199 190.575 194.199 190.575 194.199 190.653C194.199 190.807 194.121 190.885 194.044 191.04C193.966 191.427 194.121 191.814 194.199 192.201C194.431 192.975 194.741 193.671 194.974 194.446C195.516 195.839 196.137 197.232 196.912 198.548C197.919 200.251 199.159 201.877 200.477 203.347C201.795 204.818 203.112 205.747 204.818 206.831C207.298 208.379 210.709 209.308 213.654 209.463C214.739 209.54 215.824 209.463 216.909 209.153C216.909 209.153 216.909 209.153 216.987 209.153C217.762 208.921 218.46 208.611 219.08 208.224C219.312 209.23 219.312 212.482 219.312 212.714C219.545 214.572 219.622 216.816 221.172 218.21C221.948 218.906 222.955 219.293 223.963 219.526C224.505 219.68 224.971 219.758 225.513 219.758C227.296 219.68 228.846 218.829 230.319 217.978C232.024 216.971 233.729 215.888 235.279 214.726C237.295 213.178 239.387 211.553 241.093 209.617C241.635 208.998 242.178 208.224 242.565 207.45C240.705 206.908 239.465 205.747 238.767 203.889C237.295 200.251 236.442 196.458 236.055 192.665C235.822 190.498 235.744 188.253 235.822 186.008C235.9 184.537 235.434 183.144 235.434 181.751C235.357 181.673 235.357 181.673 235.357 181.673C235.357 181.673 235.434 181.673 235.434 181.596C235.434 181.518 235.434 181.441 235.434 181.441C235.434 181.286 235.434 181.054 235.512 180.899C235.589 180.667 235.822 180.435 236.055 180.203C236.985 179.041 236.907 176.564 236.752 175.171C236.597 173.778 236.132 172.384 235.279 171.301C234.349 170.217 232.954 169.598 231.559 169.752C229.156 170.062 228.226 172.771 227.838 174.861C227.528 176.642 225.513 174.32 224.66 173.932C220.862 172.384 216.599 172.384 212.491 172.617C206.911 172.926 201.33 173.7 195.904 171.61C193.424 170.604 191.331 168.824 189.936 166.579C189.548 165.96 189.238 165.805 189.083 165.805C188.308 166.114 188.463 170.14 188.618 170.836Z" fill="#FFC5AB"/>
<path d="M219.39 212.946C232.722 200.019 230.707 190.188 230.707 190.188C230.707 190.188 224.738 204.432 219.003 207.992L219.39 212.946Z" fill="#F4B69D"/>
<path d="M194.198 190.73C194.198 190.653 194.276 190.576 194.353 190.498C194.431 190.421 194.509 190.421 194.586 190.421C195.826 190.034 197.299 189.647 198.384 188.873C199.392 188.253 200.244 187.402 201.329 186.937C202.26 186.705 203.112 186.86 204.042 186.937C206.678 187.092 209.158 186.937 211.716 186.396C213.964 185.931 216.211 185.08 218.382 184.306C220.087 183.686 221.87 182.99 223.42 182.061C224.815 181.287 225.823 180.28 226.908 179.197C227.063 178.036 227.218 176.952 227.451 175.791C227.606 175.171 227.761 174.552 227.916 174.01C227.993 173.701 228.148 173.391 228.226 173.159C228.381 172.849 228.458 172.54 228.691 172.385C228.381 172.927 228.381 173.546 228.226 174.165C228.148 174.784 228.071 175.404 227.993 176.023L227.606 179.661V179.738C227.916 180.977 228.071 182.37 228.303 183.609C228.381 184.073 228.458 184.538 228.613 185.002C229.233 188.486 229.388 192.046 228.226 195.452C226.985 198.936 225.125 201.8 222.955 204.741C222.8 204.896 222.722 205.051 222.567 205.206C222.412 205.438 222.257 205.593 222.102 205.747C221.405 206.522 220.707 207.296 219.855 207.838C219.002 208.457 217.994 208.921 216.909 209.231C216.909 209.231 216.909 209.231 216.832 209.231C215.746 209.463 214.661 209.618 213.576 209.54C210.708 209.386 207.22 208.534 204.74 206.909C203.035 205.825 201.717 204.896 200.399 203.425C199.082 201.955 197.841 200.329 196.834 198.626C196.059 197.31 195.361 195.917 194.896 194.523C194.741 193.44 193.888 191.892 194.198 190.73Z" fill="#F6F6F6"/>
<path d="M233.574 183.764C234.349 182.525 235.124 181.364 236.132 180.28C235.434 181.519 234.814 182.757 234.194 184.073L232.334 187.866C231.094 190.421 229.853 192.898 228.381 195.375C229.233 192.666 230.319 190.034 231.559 187.479C232.179 186.241 232.876 185.002 233.574 183.764Z" fill="#F6F6F6"/>
<path d="M212.104 199.013C211.948 200.329 210.863 200.484 209.778 200.716C208.461 200.948 207.143 201.877 205.748 201.412C204.12 200.871 203.577 198.394 204.507 197.155C205.515 195.839 207.298 195.839 208.848 195.684C209.623 195.607 210.398 195.375 211.173 196.149C211.716 196.691 212.104 197.697 212.104 198.548C212.104 198.781 212.104 198.858 212.104 199.013Z" fill="#EAEAEA"/>
<path d="M210.476 180.203C209.081 180.59 207.686 180.435 206.446 179.893C206.213 179.816 206.136 179.429 206.291 179.196C206.446 178.964 206.756 178.887 206.988 179.041C207.996 179.506 209.158 179.583 210.244 179.274C210.554 179.196 210.786 179.351 210.864 179.661C210.941 179.816 210.709 180.125 210.476 180.203Z" fill="#002F59"/>
<path d="M193.579 184.847C194.819 184.537 195.827 183.763 196.447 182.757C196.602 182.524 196.369 182.215 196.214 182.137C195.982 181.983 195.672 182.137 195.594 182.292C195.052 183.066 194.277 183.686 193.269 183.918C193.036 183.995 192.881 184.227 192.959 184.46C193.036 184.769 193.346 184.924 193.579 184.847Z" fill="#002F59"/>
<path d="M206.755 183.299C206.988 183.996 207.763 184.383 208.461 184.228C209.158 183.996 209.623 183.299 209.391 182.525C209.158 181.829 208.383 181.442 207.685 181.596C206.988 181.751 206.6 182.603 206.755 183.299Z" fill="#002F59"/>
<path d="M195.362 186.627C195.594 187.324 196.369 187.711 197.067 187.556C197.765 187.324 198.23 186.627 197.997 185.853C197.765 185.157 196.989 184.77 196.292 184.925C195.594 185.157 195.129 185.931 195.362 186.627Z" fill="#002F59"/>
<path d="M201.562 183.764C201.872 185.854 201.64 187.944 201.562 190.034C201.562 190.576 201.562 191.117 201.562 191.659C201.64 192.201 201.64 192.743 201.95 193.362C202.105 193.672 202.415 193.904 202.725 193.981C203.035 194.059 203.345 194.059 203.655 193.981C204.198 193.827 204.663 193.517 205.128 193.207C204.585 193.362 204.12 193.517 203.578 193.517C203.035 193.594 202.648 193.362 202.57 193.053C202.415 192.666 202.415 192.124 202.415 191.659C202.415 191.117 202.415 190.653 202.493 190.111C202.493 189.027 202.57 187.944 202.493 186.937C202.26 185.776 202.027 184.693 201.562 183.764Z" fill="#002F59"/>
<path d="M75.2578 264.305C76.065 260.777 73.8548 257.265 70.3212 256.459C66.7876 255.653 63.2687 257.86 62.4615 261.387C61.6544 264.914 63.8645 268.427 67.3981 269.232C70.9317 270.038 74.4506 267.832 75.2578 264.305Z" fill="#2A393F"/>
<path d="M188.173 61.1291C191.882 59.6244 193.666 55.4038 192.158 51.7023C190.651 48.0007 186.423 46.2199 182.714 47.7246C179.006 49.2294 177.222 53.4499 178.729 57.1515C180.237 60.853 184.465 62.6339 188.173 61.1291Z" fill="#FBE698"/>
<path d="M190.142 10.2651C192.982 10.2651 195.284 7.96717 195.284 5.13254C195.284 2.2979 192.982 0 190.142 0C187.302 0 185 2.2979 185 5.13254C185 7.96717 187.302 10.2651 190.142 10.2651Z" fill="#94B052"/>
<path d="M336.734 127.605C342.545 125.066 345.195 118.305 342.652 112.504C340.108 106.703 333.335 104.058 327.523 106.596C321.711 109.135 319.062 115.896 321.605 121.698C324.148 127.499 330.922 130.144 336.734 127.605Z" fill="#FBE698"/>
</g>
<path d="M37.2578 141.305C38.065 137.777 35.8548 134.265 32.3212 133.459C28.7876 132.653 25.2687 134.86 24.4615 138.387C23.6544 141.914 25.8645 145.427 29.3981 146.232C32.9317 147.038 36.4506 144.832 37.2578 141.305Z" fill="#2A393F"/>
</g>
<defs>
<clipPath id="clip0">
<rect width="429" height="421" fill="white"/>
</clipPath>
<clipPath id="clip1">
<rect width="345" height="387" fill="white" transform="matrix(-1 0 0 1 381 -18)"/>
</clipPath>
</defs>
</svg>
