<svg width="382" height="352" viewBox="0 0 382 352" fill="none" xmlns="http://www.w3.org/2000/svg">
<path d="M371.979 310.403H342.054V310.629H371.979V310.403Z" fill="#F1F6F9"/>
<path d="M212.35 307.575H200.703V307.801H212.35V307.575Z" fill="#F1F6F9"/>
<path d="M281.418 308.524H256.896V308.75H281.418V308.524Z" fill="#F1F6F9"/>
<path d="M341.15 302.019H290.452V302.244H341.15V302.019Z" fill="#F1F6F9"/>
<path d="M36.846 312.472H12.875V312.698H36.846V312.472Z" fill="#F1F6F9"/>
<path d="M65.6702 312.472H44.8887V312.698H65.6702V312.472Z" fill="#F1F6F9"/>
<path d="M138.784 307.458H83.8398V307.684H138.784V307.458Z" fill="#F1F6F9"/>
<path d="M179.633 255.567H5.15923C2.31307 255.567 0 253.254 0 250.408V5.15923C0 2.31307 2.31307 0 5.15923 0H179.633C182.48 0 184.793 2.31307 184.793 5.15923V250.408C184.793 253.254 182.48 255.567 179.633 255.567ZM5.15923 0.225886C2.43957 0.225886 0.225886 2.43957 0.225886 5.15923V250.408C0.225886 253.128 2.43957 255.341 5.15923 255.341H179.633C182.353 255.341 184.567 253.128 184.567 250.408V5.15923C184.567 2.43957 182.353 0.225886 179.633 0.225886H5.15923Z" fill="#F1F6F9"/>
<path d="M375.062 255.567H200.588C197.742 255.567 195.429 253.254 195.429 250.408V5.15923C195.429 2.31307 197.742 0 200.588 0H375.062C377.908 0 380.221 2.31307 380.221 5.15923V250.408C380.221 253.254 377.908 255.567 375.062 255.567ZM200.588 0.225886C197.868 0.225886 195.655 2.43957 195.655 5.15923V250.408C195.655 253.128 197.868 255.341 200.588 255.341H375.062C377.782 255.341 379.996 253.128 379.996 250.408V5.15923C379.996 2.43957 377.782 0.225886 375.062 0.225886H200.588Z" fill="#F1F6F9"/>
<path d="M368.753 20.8271H232.002V295.866H368.753V20.8271Z" fill="#F8FBFD"/>
<path d="M324.769 56.0649H275.978V124.129H324.769V56.0649Z" fill="white"/>
<path d="M368.752 295.856H369.602L369.602 20.8178H368.752L368.752 295.856Z" fill="#F1F6F9"/>
<path d="M361.967 295.866H361.064V28.5071H239.682V295.866H238.778V27.6035H361.967V295.866Z" fill="#C3CACF"/>
<path d="M351.468 163.433H332.611C331.084 163.433 329.837 162.186 329.837 160.659C329.837 159.132 331.084 157.885 332.611 157.885H351.468C352.995 157.885 354.242 159.132 354.242 160.659C354.242 162.186 352.995 163.433 351.468 163.433ZM332.611 158.798C331.581 158.798 330.74 159.638 330.74 160.668C330.74 161.698 331.581 162.538 332.611 162.538H351.468C352.498 162.538 353.338 161.698 353.338 160.668C353.338 159.638 352.498 158.798 351.468 158.798H332.611Z" fill="#C3CACF"/>
<path d="M143.239 98.0254H16.0469V108.94H143.239V98.0254Z" fill="#F8FBFD"/>
<path d="M143.238 108.94H17.6816V295.865H143.238V108.94Z" fill="#F8FBFD"/>
<path opacity="0.2" d="M143.239 295.865H152.455L152.455 98.0344H143.239L143.239 295.865Z" fill="#C3CACF"/>
<path opacity="0.2" d="M76.7832 119.783H28.2178V230.241H76.7832V119.783Z" fill="#C3CACF"/>
<path d="M62.9043 119.783H51.5197L42.0957 230.232H53.4803L62.9043 119.783Z" fill="white"/>
<path d="M131.122 287.318H29.7989C28.6152 287.318 27.6484 286.351 27.6484 285.168V239.087C27.6484 237.903 28.6152 236.937 29.7989 236.937H131.113C132.297 236.937 133.264 237.903 133.264 239.087V285.168C133.264 286.351 132.297 287.318 131.113 287.318H131.122ZM29.8079 238.066C29.2477 238.066 28.7869 238.527 28.7869 239.087V285.168C28.7869 285.728 29.2477 286.189 29.8079 286.189H131.122C131.682 286.189 132.143 285.728 132.143 285.168V239.087C132.143 238.527 131.682 238.066 131.122 238.066H29.7989H29.8079Z" fill="#C3CACF"/>
<path d="M124.498 248.077C123.197 248.077 122.131 247.02 122.131 245.71C122.131 244.399 123.188 243.342 124.498 243.342C125.808 243.342 126.865 244.399 126.865 245.71C126.865 247.02 125.808 248.077 124.498 248.077ZM124.498 244.472C123.82 244.472 123.26 245.023 123.26 245.71C123.26 246.396 123.811 246.947 124.498 246.947C125.185 246.947 125.736 246.396 125.736 245.71C125.736 245.023 125.185 244.472 124.498 244.472Z" fill="#C3CACF"/>
<path d="M29.4737 119.783H28.2178V230.241H29.4737V119.783Z" fill="#F1F6F9"/>
<path opacity="0.2" d="M132.693 119.783H84.1279V230.241H132.693V119.783Z" fill="#C3CACF"/>
<path d="M106.626 119.783H101.936L92.5215 230.232H97.2109L106.626 119.783Z" fill="white"/>
<path d="M113.684 119.783H108.995L99.5801 230.232H104.269L113.684 119.783Z" fill="white"/>
<path d="M85.3839 119.783H84.1279V230.241H85.3839V119.783Z" fill="#F1F6F9"/>
<path d="M143.238 108.94H17.6816V110.323H143.238V108.94Z" fill="#F1F6F9"/>
<path d="M168.168 18.7485H37.7598V81.6984H168.168V18.7485Z" fill="#F8FBFD"/>
<path d="M119.711 73.5936C106.826 73.5936 96.3359 63.1125 96.3359 50.2189C96.3359 37.3253 106.817 26.8442 119.711 26.8442C132.604 26.8442 143.085 37.3253 143.085 50.2189C143.085 63.1125 132.604 73.5936 119.711 73.5936ZM119.711 27.7478C107.323 27.7478 97.2395 37.8313 97.2395 50.2189C97.2395 62.6065 107.323 72.69 119.711 72.69C132.098 72.69 142.182 62.6065 142.182 50.2189C142.182 37.8313 132.098 27.7478 119.711 27.7478Z" fill="white"/>
<path d="M145.813 33.6302C146.853 30.766 147.151 27.6668 146.374 24.405C145.073 24.3599 143.934 24.3237 143.934 24.3237C143.934 24.3237 144.937 28.2813 142.886 33.1152C134.004 33.0429 132.432 42.4127 125.33 40.3707C123.116 39.7382 120.388 39.6569 117.587 40.0906H117.56C116.512 40.2622 115.445 40.4972 114.406 40.8134C105.009 43.262 93.5344 49.117 91.4834 57.9084C92.649 58.1343 93.6609 58.3241 93.6609 58.3241C93.6609 58.3241 95.0795 51.8005 104.522 47.1472C103.636 48.3309 102.949 49.641 102.561 51.0776C96.7691 72.3832 136.046 68.6335 146.464 61.2064C159.204 52.1258 153.783 36.7565 145.813 33.6212V33.6302Z" fill="#F1F6F9"/>
<path d="M83.5449 25.8774H44.1865V28.3893H83.5449V25.8774Z" fill="#F1F6F9"/>
<path d="M73.6059 32.2837H44.1865V34.7955H73.6059V32.2837Z" fill="#F1F6F9"/>
<path d="M83.5449 45.0869H44.1865V47.5988H83.5449V45.0869Z" fill="#F1F6F9"/>
<path d="M63.2151 51.4932H44.1865V54.005H63.2151V51.4932Z" fill="#F1F6F9"/>
<path d="M79.8598 51.4932H66.3066V54.005H79.8598V51.4932Z" fill="#F1F6F9"/>
<path d="M75.8648 57.8896H44.1865V60.4015H75.8648V57.8896Z" fill="#F1F6F9"/>
<path d="M83.5449 64.2964H44.1865V66.8082H83.5449V64.2964Z" fill="#F1F6F9"/>
<path d="M209.814 295.865H172.66C171.793 295.865 171.052 295.214 170.943 294.356L163.444 234.677C163.317 233.647 164.121 232.734 165.161 232.734H217.304C218.343 232.734 219.147 233.647 219.021 234.677L211.521 294.356C211.413 295.223 210.681 295.865 209.805 295.865H209.814Z" fill="#F1F6F9"/>
<path opacity="0.7" d="M162.648 231.506C161.283 232.482 162.368 247.589 164.139 250.923C165.91 254.266 176.544 251.393 189.23 250.272C201.916 249.152 217.122 253.633 217.773 250.923C218.423 248.221 222.146 233.466 220.194 231.506C218.64 229.934 199.955 229.934 191.742 230.873C183.538 231.804 165.53 229.446 162.639 231.506H162.648Z" fill="#F1F6F9"/>
<g opacity="0.25" filter="url(#filter0_f_546_9789)">
<path d="M191.362 336.669C288.116 336.669 366.55 332.09 366.55 326.441C366.55 320.792 288.116 316.213 191.362 316.213C94.6082 316.213 16.1738 320.792 16.1738 326.441C16.1738 332.09 94.6082 336.669 191.362 336.669Z" fill="#C3CACF"/>
</g>
<path d="M113.693 41.9514C106.872 35.5453 95.6044 34.3164 91.4119 40.9846C87.2195 47.6527 89.5777 54.7004 80.967 62.0914C75.0849 67.1422 79.449 82.6199 112.943 81.2013C128.801 80.5327 123.443 64.0701 123.018 56.2364C122.593 48.4027 122.539 38.9064 113.693 41.9514Z" fill="#111C24"/>
<path d="M100.458 313.954L92.344 314.271L92.1904 305.488L100.304 305.172L100.458 313.954Z" fill="#B57D78"/>
<path d="M91.8384 312.581H101.027C101.362 312.581 101.651 312.816 101.723 313.141L103.313 320.405C103.476 321.155 102.88 321.869 102.112 321.86C98.9041 321.806 97.35 321.616 93.3112 321.616C90.8264 321.616 84.3841 321.878 80.9507 321.878C77.5172 321.878 77.0835 318.481 78.484 318.174C84.7907 316.791 88.4862 314.894 90.5102 313.078C90.8716 312.752 91.3505 312.572 91.8384 312.572V312.581Z" fill="#111C24"/>
<path opacity="0.2" d="M92.1904 305.488L92.2627 309.572L100.386 309.229L100.313 305.172L92.1904 305.488Z" fill="#215273"/>
<path d="M80.2359 137.058C78.4017 146.799 80.516 194.415 83.2718 215.432C86.9312 243.351 90.7351 308.189 90.7351 308.189L101.623 307.53C101.623 307.53 104.342 239.258 102.111 216.841C103.367 187.991 106.484 137.6 106.484 137.6L80.2449 137.049L80.2359 137.058Z" fill="#359D9E"/>
<path opacity="0.2" d="M104.624 168.981C104.994 161.671 99.8257 155.175 97.7386 168.954C96.4103 177.727 99.1481 193.105 102.717 203.975C103.286 192.726 103.982 180.14 104.624 168.99V168.981Z" fill="#215273"/>
<path d="M160.076 286.641L154.808 291.682L147.652 284.02L152.929 278.979L160.076 286.641Z" fill="#B57D78"/>
<path d="M153.451 291.817L158.854 284.39C159.053 284.119 159.387 284.047 159.676 284.21L165.956 287.923C166.607 288.312 166.787 289.278 166.317 289.893C164.393 292.45 163.336 293.579 160.959 296.85C159.496 298.865 157.806 301.63 155.791 304.404C153.821 307.123 151.02 305.199 151.617 303.844C154.309 297.79 153.18 296.118 153.035 293.227C153.008 292.703 153.162 292.197 153.451 291.808V291.817Z" fill="#111C24"/>
<path opacity="0.2" d="M147.652 284.02L151.339 287.969L156.57 282.882L152.929 278.979L147.652 284.02Z" fill="#215273"/>
<path d="M92.8154 137.321C92.8154 137.321 104.489 198.789 107.525 222.624C109.341 236.864 149.178 288.131 149.178 288.131L155.982 280.966C155.982 280.966 141.399 243.433 123.834 221.169C123.138 195.066 126.102 152.121 116.018 137.799L92.8154 137.312V137.321Z" fill="#359D9E"/>
<path d="M82.5658 90.2096C82.5568 95.4953 82.3128 100.673 81.9333 105.895C81.5629 111.118 81.0298 116.331 80.1895 121.581L80.0359 122.565L79.8281 123.677C79.6745 124.409 79.5028 125.123 79.304 125.818C78.9065 127.201 78.4457 128.52 77.9577 129.812C76.9729 132.387 75.8073 134.808 74.5875 137.185C72.1028 141.919 69.3289 146.347 66.1936 150.648C65.4617 151.642 64.0613 151.867 63.0674 151.136C62.1909 150.494 61.9199 149.337 62.3536 148.389L62.3807 148.335C64.504 143.745 66.5641 139.037 68.3531 134.375C69.2657 132.044 70.0608 129.685 70.7475 127.381C71.0818 126.225 71.3709 125.077 71.5878 123.948C71.7052 123.388 71.7956 122.837 71.8679 122.303L71.9582 121.499L72.0486 120.56C72.5184 115.563 72.7804 110.476 73.0334 105.389C73.2413 100.311 73.4039 95.17 73.5575 90.1283V90.0831C73.6298 87.5983 75.7079 85.6377 78.1927 85.7099C80.6322 85.7822 82.5658 87.7971 82.5658 90.2186V90.2096Z" fill="#B57D78"/>
<path d="M79.6115 83.6134C68.516 86.8571 69.9436 107.033 69.9436 107.033L85.7195 111.28C85.7195 111.28 88.3397 96.4979 88.1048 91.1941C87.8609 85.6825 85.7285 81.8153 79.6115 83.6044V83.6134Z" fill="#359D9E"/>
<path d="M63.5292 147.205L57.9814 151.931L65.77 155.111C65.77 155.111 68.1825 151.434 67.0621 147.946L63.5292 147.205Z" fill="#B57D78"/>
<path d="M58.9573 159.15L62.5173 159.593C63.3305 159.692 64.1075 159.231 64.4147 158.472L65.77 155.111L57.9815 151.931L57.3852 157.153C57.2767 158.138 57.9725 159.023 58.9573 159.15Z" fill="#B57D78"/>
<path d="M76.0261 88.8631C75.5382 109.103 80.1824 123.875 80.2367 137.067L116.017 137.817C115.746 124.598 115.863 115.988 121.547 92.3056C122.595 87.9506 119.685 83.6407 115.258 82.9811C113.117 82.6648 110.731 82.3757 108.328 82.204C102.31 81.7884 97.3859 81.4902 92.0821 81.8607C88.2692 82.1317 84.1671 82.6829 81.2306 83.1347C78.3573 83.5774 76.0984 85.9628 76.0261 88.8631Z" fill="#359D9E"/>
<path d="M109.365 107.54L98.7666 107.476C98.2967 107.476 97.9534 107.106 98.0076 106.663L98.5949 101.63C98.6491 101.188 99.0738 100.826 99.5436 100.826L110.142 100.889C110.612 100.889 110.946 101.26 110.901 101.703L110.314 106.735C110.26 107.178 109.835 107.54 109.365 107.54Z" fill="white"/>
<path opacity="0.4" d="M92.0727 81.8606C92.0727 81.8606 86.2358 85.9537 92.398 96.1908C101.46 87.4716 108.318 82.1949 108.318 82.1949L92.0727 81.8516V81.8606Z" fill="white"/>
<path d="M107.098 63.8804C105.959 69.0848 104.74 78.6443 108.327 82.2042C108.327 82.2042 100.394 84.9962 92.9574 91.6734C88.9998 84.3998 92.0809 81.8699 92.0809 81.8699C97.9359 80.5959 97.8817 76.268 96.951 72.193L107.098 63.8894V63.8804Z" fill="#B57D78"/>
<path opacity="0.2" d="M105.996 64.7837C105.887 66.3288 105.643 69.8526 103.637 73.7107C102.653 75.6081 100.05 76.4304 97.3758 76.5749C97.5114 75.1925 97.2855 73.6746 96.9512 72.1928L105.996 64.7927V64.7837Z" fill="#215273"/>
<path d="M115.556 57.5105C112.881 65.8321 111.924 69.4192 106.548 72.6719C98.4608 77.5601 88.82 72.4551 88.9555 63.501C89.073 55.4414 93.4281 43.1803 102.572 41.9244C111.571 40.6865 118.239 49.1889 115.565 57.5195L115.556 57.5105Z" fill="#B57D78"/>
<path d="M93.4629 46.5593C97.9716 47.8333 108.986 48.782 111.19 47.4357C109.121 50.6253 111.091 59.3083 114.29 61.4226C118.599 57.953 119.557 49.5862 115.573 45.448C111.588 41.3097 98.9926 36.3673 93.4629 46.5593Z" fill="#111C24"/>
<path d="M116.821 62.6062C116.206 64.3139 114.851 65.5699 113.496 66.1752C111.454 67.0878 110.098 65.344 110.387 63.2387C110.649 61.3413 112.032 58.5855 114.218 58.5584C116.369 58.5313 117.525 60.6546 116.821 62.6062Z" fill="#B57D78"/>
<path d="M116.595 135.721L118.14 138.956C118.257 139.209 117.959 139.453 117.543 139.444L80.0281 138.658C79.7029 138.658 79.4408 138.486 79.4228 138.287L79.1698 135.08C79.1517 134.854 79.4318 134.673 79.7842 134.682L116.016 135.441C116.278 135.441 116.513 135.558 116.595 135.721Z" fill="#111C24"/>
<path d="M111.643 139.67L112.609 139.688C112.799 139.688 112.953 139.598 112.944 139.471L112.573 135.297C112.564 135.17 112.393 135.071 112.203 135.071L111.236 135.053C111.046 135.053 110.893 135.143 110.902 135.27L111.272 139.444C111.281 139.57 111.453 139.67 111.643 139.67Z" fill="#359D9E"/>
<path d="M82.7471 139.064L83.7139 139.082C83.9037 139.082 84.0573 138.992 84.0482 138.866L83.6778 134.691C83.6688 134.565 83.4971 134.465 83.3073 134.465L82.3405 134.447C82.1508 134.447 81.9972 134.538 82.0062 134.664L82.3767 138.838C82.3857 138.965 82.5574 139.064 82.7471 139.064Z" fill="#359D9E"/>
<path d="M97.1954 139.372L98.1622 139.39C98.3519 139.39 98.5055 139.299 98.4965 139.173L98.126 134.998C98.117 134.872 97.9453 134.772 97.7556 134.772L96.7888 134.754C96.5991 134.754 96.4454 134.845 96.4545 134.971L96.8249 139.146C96.834 139.272 97.0056 139.372 97.1954 139.372Z" fill="#359D9E"/>
<path d="M102.553 56.8145C102.382 57.5012 101.867 57.971 101.424 57.8536C100.972 57.7361 100.755 57.0856 100.927 56.3989C101.099 55.7122 101.614 55.2423 102.056 55.3598C102.508 55.4773 102.725 56.1278 102.553 56.8145Z" fill="#111C24"/>
<path d="M94.764 54.8272C94.5923 55.5139 94.0773 55.9837 93.6346 55.8663C93.1919 55.7488 92.966 55.0983 93.1376 54.4116C93.3093 53.7249 93.8243 53.255 94.2671 53.3725C94.7188 53.49 94.9357 54.1405 94.764 54.8272Z" fill="#111C24"/>
<path d="M94.4579 53.4629L92.9219 52.5684C92.9219 52.5684 93.4369 54.0773 94.4579 53.4629Z" fill="#111C24"/>
<path d="M96.5263 56.5342C96.5263 56.5342 94.6017 59.1996 92.9482 60.302C93.644 61.3862 95.2884 61.3862 95.2884 61.3862L96.5263 56.5342Z" fill="#9A5C5B"/>
<path d="M96.9245 64.0973C96.8612 64.0431 96.8341 63.9618 96.8522 63.8805C96.8883 63.772 96.9967 63.7088 97.1142 63.7359C100.096 64.6033 102.12 62.9227 102.138 62.9046C102.228 62.8324 102.355 62.8414 102.436 62.9317C102.508 63.0221 102.499 63.1486 102.418 63.2299C102.328 63.3022 100.213 65.0822 97.0058 64.1425C96.9787 64.1425 96.9516 64.1244 96.9335 64.1063L96.9245 64.0973Z" fill="#111C24"/>
<path d="M106.799 53.6339C106.745 53.5887 106.699 53.5345 106.663 53.4622C105.94 51.7455 104.432 51.4563 104.413 51.4473C104.188 51.4021 104.034 51.1853 104.079 50.9594C104.124 50.7335 104.341 50.5799 104.567 50.6251C104.648 50.6432 106.537 51.0046 107.431 53.1369C107.522 53.3538 107.422 53.5977 107.205 53.6881C107.061 53.7513 106.907 53.7242 106.79 53.6339H106.799Z" fill="#111C24"/>
<path d="M93.2392 50.4358C93.2392 50.4358 93.203 50.3996 93.185 50.3816C93.0314 50.2099 93.0404 49.9479 93.2121 49.7943C94.9288 48.2492 96.7991 48.719 96.8714 48.7462C97.0973 48.8094 97.2238 49.0353 97.1696 49.2521C97.1064 49.478 96.8805 49.6045 96.6636 49.5503C96.5913 49.5322 95.1366 49.1889 93.7723 50.4177C93.6187 50.5532 93.3928 50.5623 93.2392 50.4358Z" fill="#111C24"/>
<path d="M121.527 89.3694C124.156 92.848 126.614 96.3538 129.008 99.9951C130.183 101.82 131.367 103.654 132.478 105.57C133.589 107.503 134.701 109.383 135.694 111.696C135.947 112.292 136.191 112.898 136.426 113.711C136.544 114.126 136.67 114.587 136.734 115.328C136.752 115.536 136.761 115.69 136.752 115.988L136.725 116.394C136.716 116.53 136.679 116.756 136.643 116.927L136.58 117.208L136.544 117.334V117.361L136.499 117.461L136.426 117.659C136.011 118.744 135.667 119.828 135.17 120.885C134.276 123.017 133.147 125.077 131.882 127.056C130.571 129.008 129.072 130.869 127.31 132.505C126.451 133.336 125.475 134.068 124.472 134.754C123.966 135.089 123.442 135.414 122.891 135.712C122.611 135.866 122.331 136.001 122.033 136.128C121.717 136.263 121.482 136.372 121.012 136.534L119.286 132.414C119.304 132.369 119.539 132.206 119.675 132.08L120.172 131.646C120.506 131.348 120.831 131.023 121.147 130.688C121.78 130.002 122.367 129.279 122.918 128.511C124.021 126.975 124.969 125.312 125.801 123.587C126.18 122.692 126.596 121.834 126.912 120.903C127.283 120.009 127.581 119.078 127.87 118.147C128.186 117.226 128.385 116.25 128.665 115.31L128.71 115.129L128.737 115.039V115.021L128.719 115.093L128.674 115.274C128.647 115.382 128.629 115.545 128.62 115.617C128.611 115.681 128.602 115.753 128.602 115.816C128.602 115.988 128.602 116.006 128.602 116.078C128.611 116.286 128.611 116.223 128.566 116.132C128.484 115.925 128.313 115.545 128.114 115.175C127.292 113.62 126.189 111.85 125.069 110.151C123.93 108.443 122.765 106.708 121.554 105.001C119.169 101.567 116.693 98.1157 114.271 94.7184L121.518 89.3604L121.527 89.3694Z" fill="#B57D78"/>
<path d="M123.499 135.414L116.533 140.338L113.406 133.218C113.406 133.218 117.626 130.959 120.969 132.468L123.508 135.414H123.499Z" fill="#B57D78"/>
<path d="M111.67 140.925L109.935 138.494C109.24 137.519 109.448 136.172 110.405 135.459L113.405 133.218L116.531 140.338L114.616 141.521C113.631 142.127 112.348 141.865 111.67 140.925Z" fill="#B57D78"/>
<path d="M107.595 87.219C105.218 96.6249 119.819 112.717 119.819 112.717L132.099 99.977C132.099 99.977 126.497 87.996 119.169 84.2373C114.055 81.608 108.643 83.0717 107.595 87.219Z" fill="#359D9E"/>
<path d="M102.245 55.4502L100.709 54.5557C100.709 54.5557 101.224 56.0646 102.245 55.4502Z" fill="#111C24"/>
<path d="M86.5163 112.347C86.3898 112.347 86.2633 112.265 86.2181 112.139C86.1549 111.976 86.2362 111.786 86.4078 111.723L87.8174 111.19C90.519 110.16 92.2809 107.63 92.299 104.739L92.3983 91.5289C92.4164 88.9809 90.6184 87.6256 89.0733 87.2371C87.5282 86.8486 85.3055 87.2009 84.1219 89.4688L78.0139 101.179C76.6767 103.745 77.0471 106.799 78.9446 108.976L79.9385 110.115C80.0559 110.25 80.0379 110.458 79.9114 110.567C79.7758 110.684 79.5771 110.675 79.4596 110.539L78.4657 109.401C76.3875 107.025 75.99 103.682 77.4447 100.881L83.5527 89.1707C84.664 87.0383 86.8958 86.0354 89.2359 86.6136C91.5761 87.1919 93.067 89.1255 93.0489 91.5379L92.9495 104.748C92.9224 107.91 91.0069 110.675 88.0523 111.795L86.6428 112.328C86.6428 112.328 86.5615 112.347 86.5253 112.347H86.5163Z" fill="#111C24"/>
<path d="M92.6879 94.4568C92.5162 94.4568 92.3717 94.3213 92.3626 94.1406C92.3084 91.5655 90.2212 90.1379 88.4503 89.6952C86.6793 89.2524 84.1675 89.5325 82.9116 91.7824C82.8212 91.936 82.6224 91.9902 82.4688 91.9088C82.3152 91.8185 82.261 91.6197 82.3423 91.4661C83.526 89.3518 85.9836 88.4121 88.6039 89.0627C91.2242 89.7132 92.9499 91.701 93.0041 94.1225C93.0041 94.3032 92.8686 94.4478 92.6879 94.4568Z" fill="#111C24"/>
<path d="M89.1637 87.2462C89.0553 87.2462 88.9559 87.192 88.8926 87.1016C88.5764 86.6047 88.5854 85.7373 88.9288 84.7705C89.4709 83.2254 90.6094 82.0237 91.9737 81.5538C92.1454 81.4996 92.3261 81.59 92.3803 81.7526C92.4345 81.9243 92.3442 82.105 92.1815 82.1592C90.4377 82.7465 89.7149 84.4633 89.5342 84.9692C89.236 85.8276 89.2721 86.4782 89.4348 86.7311C89.5342 86.8847 89.489 87.0835 89.3354 87.1739C89.2812 87.21 89.2179 87.2281 89.1637 87.2281V87.2462Z" fill="#111C24"/>
<path d="M85.8129 111.841C85.6683 112.428 85.8581 112.988 86.2556 113.088C86.6442 113.187 87.0779 112.78 87.2315 112.193C87.376 111.606 87.1863 111.046 86.7887 110.946C86.3912 110.847 85.9665 111.253 85.8129 111.841Z" fill="#111C24"/>
<path d="M111.453 96.2455C111.751 97.6098 112.718 98.5495 113.612 98.3507C114.507 98.152 114.995 96.896 114.697 95.5317C114.398 94.1673 113.432 93.2276 112.537 93.4264C111.643 93.6252 111.155 94.8811 111.453 96.2455Z" fill="#111C24"/>
<path d="M114.281 95.8389C114.109 95.8389 113.965 95.7033 113.956 95.5317C113.766 90.5351 111.878 84.3277 108.173 82.4935C108.01 82.4122 107.947 82.2225 108.029 82.0598C108.11 81.8972 108.3 81.8339 108.462 81.9153C112.42 83.876 114.399 90.1556 114.597 95.5046C114.597 95.6853 114.462 95.8298 114.29 95.8389H114.281Z" fill="#111C24"/>
<path d="M110.486 96.3538C110.675 97.5194 111.516 98.3597 112.365 98.2151C113.214 98.0706 113.747 97.0225 113.558 95.8478C113.368 94.6732 112.528 93.842 111.678 93.9865C110.829 94.1311 110.296 95.1792 110.486 96.3538Z" fill="white"/>
<path d="M110.415 96.4625C110.695 97.9081 111.445 98.9743 112.105 98.8478C112.764 98.7213 113.072 97.4473 112.791 96.0107C112.511 94.5741 111.761 93.4989 111.102 93.6253C110.442 93.7518 110.135 95.0258 110.415 96.4625Z" fill="#111C24"/>
<path d="M78.9906 110.142C78.8461 110.729 79.0358 111.289 79.4334 111.389C79.8219 111.488 80.2556 111.082 80.4092 110.494C80.5538 109.907 80.364 109.347 79.9665 109.247C79.5779 109.148 79.1442 109.555 78.9906 110.142Z" fill="#111C24"/>
<path d="M177.96 36.5663C172.232 37.5873 171.509 37.0633 171.437 32.9702C171.364 28.8772 169.286 22.0012 172.187 19.8508C174.03 18.4864 174.78 20.6097 174.78 20.6097C175.195 19.6791 176.225 19.155 177.129 19.5255C177.255 18.6762 177.391 16.4986 178.972 15.8661C180.562 15.2336 181.954 16.6793 181.954 16.6793C181.954 16.6793 181.836 13.3362 184.095 13.6524C186.354 13.9687 186.806 16.3089 186.806 16.3089C186.806 16.3089 188.116 14.4114 189.878 15.1614C191.64 15.9113 191.288 18.0979 191.288 18.0979C191.288 18.0979 193.167 17.2034 194.558 18.2244C195.95 19.2454 194.929 20.8718 194.929 20.8718C194.929 20.8718 196.194 17.619 198.606 19.4261C200.775 21.0525 198.814 23.5914 198.814 23.5914C198.814 23.5914 201.199 23.2029 201.769 24.4046C203.729 28.4977 196.284 33.0696 196.049 39.9817C184.628 44.3549 177.951 36.5753 177.951 36.5753L177.96 36.5663Z" fill="#111C24"/>
<path d="M136.741 146.383L132.928 145.678L127.886 150.494C127.335 151.018 127.028 151.759 127.046 152.518L127.118 156.458C127.145 157.849 128.22 159.005 129.603 159.123L131.356 159.277C132.675 159.394 133.885 158.554 134.229 157.271L135.105 154.054C135.105 154.054 140.102 148.19 136.741 146.365V146.383Z" fill="#FFD1BD"/>
<path d="M175.242 74.3704C172.685 80.9934 170.137 87.6435 167.679 94.3026C165.195 100.944 162.782 107.675 160.496 114.262L160.08 115.482L159.8 116.277C159.692 116.575 159.584 116.882 159.475 117.126C159.05 118.192 158.626 119.087 158.201 119.981C157.361 121.752 156.502 123.406 155.626 125.032C153.882 128.285 152.084 131.429 150.268 134.546C146.663 140.808 142.994 146.925 139.308 153.132L127.797 145.976C131.592 140.076 135.251 133.986 138.757 127.923C140.483 124.869 142.181 121.806 143.762 118.771C144.549 117.253 145.317 115.735 145.976 114.28C146.292 113.566 146.609 112.834 146.825 112.238C146.889 112.066 146.925 111.958 146.961 111.831L147.115 111.361L147.521 110.042C149.699 103.112 151.994 96.4078 154.189 89.6041L160.812 69.2563L175.233 74.3704H175.242Z" fill="#359D9E"/>
<path opacity="0.6" d="M175.242 74.3704C172.685 80.9934 170.137 87.6435 167.679 94.3026C165.195 100.944 162.782 107.675 160.496 114.262L160.08 115.482L159.8 116.277C159.692 116.575 159.584 116.882 159.475 117.126C159.05 118.192 158.626 119.087 158.201 119.981C157.361 121.752 156.502 123.406 155.626 125.032C153.882 128.285 152.084 131.429 150.268 134.546C146.663 140.808 142.994 146.925 139.308 153.132L127.797 145.976C131.592 140.076 135.251 133.986 138.757 127.923C140.483 124.869 142.181 121.806 143.762 118.771C144.549 117.253 145.317 115.735 145.976 114.28C146.292 113.566 146.609 112.834 146.825 112.238C146.889 112.066 146.925 111.958 146.961 111.831L147.115 111.361L147.521 110.042C149.699 103.112 151.994 96.4078 154.189 89.6041L160.812 69.2563L175.233 74.3704H175.242Z" fill="white"/>
<path d="M140.781 316.204L132.686 316.601L136.508 295.495L144.215 297.266L140.781 316.204Z" fill="#FFD1BD"/>
<path d="M198.93 316.502H190.825L190.843 297.745H198.948L198.93 316.502Z" fill="#FFD1BD"/>
<path d="M190.049 315.562H199.925C200.259 315.562 200.531 315.788 200.594 316.113L201.895 323.315C202.03 324.065 201.416 324.769 200.648 324.751C197.477 324.697 195.163 324.507 191.161 324.507C188.694 324.507 181.258 324.76 177.861 324.76C174.463 324.76 174.156 321.399 175.557 321.092C181.854 319.728 186.634 317.839 188.712 316.05C189.083 315.725 189.561 315.553 190.049 315.553V315.562Z" fill="#111C24"/>
<path opacity="0.2" d="M136.505 295.504L134.734 305.262L142.451 307.033L144.222 297.275L136.505 295.504Z" fill="#215273"/>
<path opacity="0.2" d="M198.941 297.745H190.836V307.413H198.941V297.745Z" fill="#215273"/>
<path d="M205.464 74.1448C199.157 102.597 200.82 130.679 200.142 136.76C193.799 136.354 169.919 134.773 156.899 133.905C152.399 99.6157 157.423 77.6686 160.287 68.6874C161.254 65.6695 163.856 63.4649 167 63.0673C172.259 62.3897 179.632 62.1638 186.372 62.462C190.8 62.6517 195.516 63.5281 199.347 64.4317C203.711 65.4617 206.431 69.7807 205.464 74.1538V74.1448Z" fill="#359D9E"/>
<path d="M192.427 43.1621C191.009 48.5201 189.31 58.0164 192.03 62.8051C192.454 63.5551 191.632 64.1966 191.605 65.064C191.506 67.7204 187.909 68.5155 181.476 68.5517C174.98 68.5878 172.287 65.9043 174.04 63.3744C174.311 62.9858 174.718 62.7419 175.178 62.6335C181.205 61.2872 181.323 56.5617 180.509 52.053L192.427 43.1621Z" fill="#FFD1BD"/>
<path opacity="0.4" d="M181.024 67.0787C181.024 67.0787 183.6 70.3405 184.142 75.0119C190.566 71.994 193.629 64.6663 193.629 64.6663L191.695 62.5972C191.695 62.5972 184.557 63.9796 181.024 67.0787Z" fill="#215273"/>
<path opacity="0.4" d="M180.382 67.1061C180.382 67.1061 177.527 69.1391 174.5 74.0092C170.009 71.2353 171.5 63.2841 171.5 63.2841L175.159 62.5703C175.159 62.5703 176.786 64.0792 180.391 67.1151L180.382 67.1061Z" fill="#215273"/>
<path d="M180.681 66.9253L179.29 67.0608L176.959 68.6059C176.823 69.5907 176.941 70.5124 177.428 71.3617C177.428 71.3617 179.687 71.8225 181.558 71.6418C183.229 70.7292 183.645 69.4914 183.645 69.4914L181.928 67.2957L180.69 66.9343L180.681 66.9253Z" fill="#111C24"/>
<path d="M180.68 66.9257C180.68 66.9257 183.246 69.9255 184.61 74.2083C191.034 71.1904 194.775 63.9711 194.775 63.9711L191.676 61.2334C191.676 61.2334 184.213 63.8085 180.68 66.9167V66.9257Z" fill="#359D9E"/>
<path d="M180.68 66.9253C180.68 66.9253 177.418 68.7595 174.273 72.8526C169.783 70.0787 171.491 62.6064 171.491 62.6064L175.15 61.8926C175.15 61.8926 177.084 63.8984 180.68 66.9344V66.9253Z" fill="#359D9E"/>
<path opacity="0.2" d="M187.565 46.7852L180.509 52.0438C180.717 53.1461 180.852 54.2665 180.861 55.3417C183.409 55.1429 187.05 52.604 187.493 49.9837C187.71 48.6736 187.746 47.4086 187.565 46.7852Z" fill="#215273"/>
<path d="M193.719 34.3076C192.698 42.2858 192.508 47.0023 188.189 50.8514C181.692 56.6341 172.052 52.3152 170.669 44.1923C169.422 36.8827 171.302 25.0643 179.352 22.3989C187.285 19.7695 194.74 26.3383 193.719 34.3166V34.3076Z" fill="#FFD1BD"/>
<path d="M191.768 41.5176C189.916 39.7738 191.09 31.4251 192.003 29.0307C187.476 29.4644 172.884 29.4463 173.435 25.4165C173.986 21.3867 179.29 17.9623 187.973 20.7904C195.22 23.1486 197.018 26.7537 197.054 29.6993C197.126 35.753 191.768 41.5176 191.768 41.5176Z" fill="#111C24"/>
<path d="M196.519 41.6171C195.589 43.4061 193.962 44.5988 192.435 45.0687C190.131 45.7825 188.993 43.6591 189.643 41.3822C190.231 39.3312 192.128 36.494 194.441 36.7741C196.709 37.0542 197.585 39.5661 196.519 41.6081V41.6171Z" fill="#FFD1BD"/>
<path d="M132.098 302.786L145.497 305.741C145.497 305.741 158.526 254.673 162.403 229.726C163.577 222.136 166.324 211.303 168.827 199.891C171.98 185.515 175.956 169.974 179.208 157.804C182.642 144.982 185.19 135.766 185.19 135.766L156.909 133.896C156.909 133.896 143.744 200.677 141.079 225.262C138.305 250.824 132.107 302.777 132.107 302.777L132.098 302.786Z" fill="#111C24"/>
<path opacity="0.2" d="M168.825 199.891C171.979 185.515 175.954 169.975 179.207 157.804L176.234 151.461C169.214 159.864 167.416 185.805 168.834 199.882L168.825 199.891Z" fill="#215273"/>
<path d="M170.37 134.791C170.37 134.791 176.225 203.026 178.538 226.663C181.068 252.54 187.854 305.542 187.854 305.542H201.461C201.461 305.542 202.075 249.089 199.627 224.106C199.284 174.971 200.142 136.751 200.142 136.751L170.37 134.791Z" fill="#111C24"/>
<path d="M186.083 305.868H203.557V300.645L185.405 299.633L186.083 305.868Z" fill="#359D9E"/>
<path d="M130.344 302.723L146.309 306.256L147.448 301.097L130.732 296.877L130.344 302.723Z" fill="#359D9E"/>
<path d="M182.054 35.7347C182.009 36.3853 181.63 36.8913 181.205 36.8642C180.78 36.8371 180.464 36.2859 180.509 35.6354C180.554 34.9848 180.934 34.4788 181.359 34.5059C181.783 34.533 182.099 35.0842 182.054 35.7347Z" fill="#111C24"/>
<path d="M174.68 35.2469C174.635 35.8975 174.256 36.4035 173.831 36.3764C173.406 36.3493 173.09 35.7981 173.135 35.1476C173.18 34.497 173.56 33.991 173.984 34.0181C174.409 34.0452 174.725 34.5964 174.68 35.2469Z" fill="#111C24"/>
<path d="M176.37 35.7354C176.37 35.7354 174.635 39.4037 172.882 41.1114C173.966 42.268 175.963 41.9066 175.963 41.9066L176.37 35.7444V35.7354Z" fill="#CE9264"/>
<path d="M178.603 43.8218C181.105 43.6501 182.37 42.0057 182.425 41.9243C182.488 41.843 182.47 41.7165 182.388 41.6533C182.307 41.59 182.181 41.6081 182.117 41.6894C182.099 41.7075 180.626 43.623 177.771 43.4332C177.663 43.4332 177.573 43.5055 177.563 43.614C177.563 43.7224 177.636 43.8127 177.744 43.8218C178.042 43.8398 178.322 43.8398 178.594 43.8218H178.603Z" fill="#111C24"/>
<path d="M183.853 33.5123C183.917 33.5123 183.98 33.4852 184.034 33.4491C184.215 33.3316 184.26 33.0967 184.142 32.916C182.977 31.145 181.206 31.127 181.125 31.127C180.908 31.127 180.745 31.2986 180.745 31.5155C180.745 31.7233 180.917 31.895 181.125 31.895C181.179 31.895 182.561 31.9221 183.492 33.3316C183.573 33.4491 183.709 33.5123 183.835 33.5033L183.853 33.5123Z" fill="#111C24"/>
<path d="M171.04 32.5093C171.167 32.5093 171.284 32.428 171.347 32.3195C172.188 30.8468 173.561 30.7383 173.624 30.7293C173.832 30.7112 173.995 30.5305 173.986 30.3227C173.968 30.1149 173.796 29.9523 173.579 29.9613C173.507 29.9613 171.736 30.0878 170.688 31.931C170.579 32.1117 170.642 32.3466 170.832 32.4551C170.904 32.4912 170.977 32.5093 171.049 32.5003L171.04 32.5093Z" fill="#111C24"/>
<path d="M187.31 316.981C188.06 316.981 188.873 316.828 189.443 316.692C189.515 316.674 189.578 316.611 189.596 316.539C189.614 316.466 189.578 316.385 189.515 316.349C189.226 316.168 186.678 314.56 185.765 315.021C185.621 315.093 185.449 315.247 185.413 315.563C185.368 315.996 185.485 316.331 185.765 316.575C186.117 316.882 186.696 316.99 187.31 316.99V316.981ZM188.9 316.421C187.509 316.701 186.461 316.647 186.027 316.277C185.837 316.114 185.765 315.888 185.792 315.581C185.81 315.427 185.874 315.382 185.919 315.355C186.398 315.12 187.852 315.807 188.891 316.421H188.9Z" fill="#359D9E"/>
<path d="M189.397 316.701C189.397 316.701 189.469 316.692 189.505 316.674C189.568 316.638 189.605 316.566 189.596 316.502C189.596 316.403 189.496 314.063 188.584 313.295C188.349 313.096 188.078 313.015 187.779 313.051C187.319 313.105 187.183 313.394 187.147 313.557C186.939 314.46 188.484 316.231 189.306 316.692C189.334 316.71 189.37 316.719 189.397 316.719V316.701ZM187.897 313.412C188.051 313.412 188.195 313.466 188.331 313.584C188.918 314.081 189.117 315.436 189.18 316.123C188.376 315.49 187.391 314.153 187.517 313.611C187.526 313.566 187.554 313.448 187.807 313.421C187.807 313.421 187.861 313.421 187.897 313.421V313.412Z" fill="#359D9E"/>
<path d="M131.464 313.023L140.97 315.716C141.286 315.806 141.494 316.104 141.458 316.43L140.753 323.712C140.681 324.471 139.894 324.977 139.163 324.76C136.118 323.839 133.949 323.035 130.1 321.941C127.733 321.273 120.025 318.508 117.215 316.592C114.469 314.713 116.05 311.722 117.387 312.264C123.36 314.695 127.561 314.297 130.046 313.141C130.498 312.933 131.004 312.897 131.464 313.023Z" fill="#111C24"/>
<path d="M128.446 313.647C129.169 313.855 129.991 313.927 130.578 313.945C130.66 313.945 130.732 313.909 130.768 313.837C130.804 313.764 130.795 313.683 130.741 313.629C130.515 313.376 128.5 311.135 127.497 311.325C127.344 311.352 127.127 311.451 127.009 311.75C126.847 312.147 126.874 312.509 127.073 312.825C127.326 313.213 127.85 313.475 128.446 313.647ZM130.127 313.539C128.717 313.43 127.714 313.087 127.407 312.617C127.271 312.409 127.262 312.165 127.371 311.885C127.425 311.75 127.497 311.713 127.56 311.704C128.085 311.605 129.295 312.671 130.127 313.539Z" fill="#359D9E"/>
<path d="M130.533 313.936C130.533 313.936 130.605 313.945 130.641 313.936C130.713 313.918 130.759 313.864 130.777 313.792C130.804 313.692 131.346 311.415 130.677 310.43C130.506 310.177 130.262 310.015 129.963 309.97C129.503 309.897 129.304 310.132 129.222 310.286C128.78 311.099 129.783 313.231 130.451 313.891C130.478 313.909 130.506 313.927 130.533 313.936ZM129.981 310.367C130.135 310.412 130.253 310.503 130.352 310.647C130.777 311.28 130.605 312.644 130.478 313.322C129.873 312.49 129.295 310.936 129.566 310.457C129.593 310.412 129.647 310.313 129.9 310.349C129.9 310.349 129.954 310.358 129.981 310.367Z" fill="#359D9E"/>
<path d="M192.563 62.1002C192.147 62.0279 191.795 62.3622 191.822 62.7869C192.138 67.6299 184.567 76.3129 182.805 102.416C181.729 118.292 180.745 167.752 181.467 193.484C181.513 194.93 182.904 195.942 184.296 195.554C197.632 191.831 203.93 200.857 206.496 190.214C206.351 177.465 202.493 131.691 203.487 120.849C204.481 109.997 208.61 80.5054 209.64 72.6536C210.534 65.8228 196.286 62.7779 192.554 62.1002H192.563Z" fill="#359D9E"/>
<path opacity="0.7" d="M192.563 62.1002C192.147 62.0279 191.795 62.3622 191.822 62.7869C192.138 67.6299 184.567 76.3129 182.805 102.416C181.729 118.292 180.745 167.752 181.467 193.484C181.513 194.93 182.904 195.942 184.296 195.554C197.632 191.831 203.93 200.857 206.496 190.214C206.351 177.465 202.493 131.691 203.487 120.849C204.481 109.997 208.61 80.5054 209.64 72.6536C210.534 65.8228 196.286 62.7779 192.554 62.1002H192.563Z" fill="white"/>
<path opacity="0.2" d="M201.354 84.2012C200.766 88.231 200.541 104.522 204.426 112.347C205.076 106.961 205.917 100.483 206.748 94.2576L201.354 84.2012Z" fill="#359D9E"/>
<path d="M206.893 154.623L203.044 155.075L199.637 161.165C199.267 161.833 199.185 162.619 199.42 163.351L200.649 167.092C201.083 168.42 202.447 169.206 203.812 168.917L205.528 168.556C206.82 168.285 207.733 167.119 207.688 165.8L207.579 162.466C207.579 162.466 210.633 155.391 206.884 154.632L206.893 154.623Z" fill="#FFD1BD"/>
<path d="M209.016 69.6182C210.236 73.2504 211.384 76.8013 212.504 80.4065C213.634 84.0026 214.763 87.6077 215.829 91.249C216.886 94.8903 217.925 98.5587 218.874 102.317C219.344 104.206 219.796 106.112 220.184 108.109C220.383 109.112 220.564 110.133 220.717 111.217C220.79 111.777 220.871 112.293 220.925 112.916L221.007 113.81L221.043 114.831C221.061 115.166 221.043 115.518 221.043 115.871C221.034 116.223 221.016 116.575 220.988 116.855L220.916 117.75L220.817 118.563C220.681 119.647 220.519 120.65 220.365 121.644C220.04 123.614 219.66 125.511 219.272 127.391C218.495 131.149 217.627 134.818 216.751 138.486C215.892 142.155 214.998 145.796 214.076 149.437L211.339 160.361L198.264 156.81C200.288 149.753 202.131 142.561 203.839 135.432C204.67 131.854 205.457 128.276 206.152 124.743C206.496 122.981 206.821 121.22 207.083 119.521C207.209 118.681 207.327 117.84 207.399 117.072C207.489 116.25 207.499 115.672 207.48 115.238L207.453 114.859L207.39 114.371C207.363 114.063 207.282 113.666 207.227 113.304C207.101 112.546 206.938 111.741 206.749 110.928C206.378 109.284 205.935 107.585 205.457 105.877C204.508 102.453 203.405 98.9833 202.24 95.5318C199.936 88.6287 197.343 81.6805 194.659 74.922L209.016 69.6272V69.6182Z" fill="#359D9E"/>
<path opacity="0.7" d="M209.016 69.6182C210.236 73.2504 211.384 76.8013 212.504 80.4065C213.634 84.0026 214.763 87.6077 215.829 91.249C216.886 94.8903 217.925 98.5587 218.874 102.317C219.344 104.206 219.796 106.112 220.184 108.109C220.383 109.112 220.564 110.133 220.717 111.217C220.79 111.777 220.871 112.293 220.925 112.916L221.007 113.81L221.043 114.831C221.061 115.166 221.043 115.518 221.043 115.871C221.034 116.223 221.016 116.575 220.988 116.855L220.916 117.75L220.817 118.563C220.681 119.647 220.519 120.65 220.365 121.644C220.04 123.614 219.66 125.511 219.272 127.391C218.495 131.149 217.627 134.818 216.751 138.486C215.892 142.155 214.998 145.796 214.076 149.437L211.339 160.361L198.264 156.81C200.288 149.753 202.131 142.561 203.839 135.432C204.67 131.854 205.457 128.276 206.152 124.743C206.496 122.981 206.821 121.22 207.083 119.521C207.209 118.681 207.327 117.84 207.399 117.072C207.489 116.25 207.499 115.672 207.48 115.238L207.453 114.859L207.39 114.371C207.363 114.063 207.282 113.666 207.227 113.304C207.101 112.546 206.938 111.741 206.749 110.928C206.378 109.284 205.935 107.585 205.457 105.877C204.508 102.453 203.405 98.9833 202.24 95.5318C199.936 88.6287 197.343 81.6805 194.659 74.922L209.016 69.6272V69.6182Z" fill="white"/>
<path d="M174.988 61.4226C175.873 61.4045 176.388 62.4526 175.81 63.1303C173.66 65.6241 172.304 69.0485 169.756 80.0356C166.684 93.2906 160.142 159.981 158.905 192.662C158.859 193.81 157.811 194.641 156.691 194.433C150.321 193.259 145.939 196.349 145.252 192.256C144.484 187.72 147.348 144.585 152.697 124.282C151.857 106.284 154.893 70.1779 160.965 65.3891C164.299 62.7598 171.256 61.5039 174.988 61.4226Z" fill="#359D9E"/>
<path opacity="0.7" d="M174.988 61.4226C175.873 61.4045 176.388 62.4526 175.81 63.1303C173.66 65.6241 172.304 69.0485 169.756 80.0356C166.684 93.2906 160.142 159.981 158.905 192.662C158.859 193.81 157.811 194.641 156.691 194.433C150.321 193.259 145.939 196.349 145.252 192.256C144.484 187.72 147.348 144.585 152.697 124.282C151.857 106.284 154.893 70.1779 160.965 65.3891C164.299 62.7598 171.256 61.5039 174.988 61.4226Z" fill="white"/>
<path d="M178.512 70.377C178.512 70.377 170.696 92.315 167.958 110.684C167.741 115.681 170.118 125.358 172.042 129.577C176.063 120.822 178.575 115.654 178.972 110.684C179.614 103.185 180.671 70.5215 180.671 70.5215L178.512 70.377Z" fill="#111C24"/>
<path d="M194.847 96.4618C194.721 96.4618 194.594 96.3895 194.531 96.272C194.44 96.1003 194.504 95.8835 194.684 95.7841L196.166 95.0071C199.003 93.5252 200.612 90.5074 200.268 87.3179L198.66 72.7618C198.353 69.9518 196.193 68.6959 194.44 68.47C192.688 68.2441 190.284 68.9218 189.281 71.5601L184.077 85.2488C182.938 88.2486 183.733 91.5646 186.119 93.715L187.357 94.8354C187.501 94.9709 187.519 95.1968 187.384 95.3414C187.248 95.4859 187.022 95.495 186.878 95.3685L185.64 94.2481C183.038 91.8989 182.17 88.2666 183.408 84.9958L188.613 71.3071C189.561 68.8133 191.883 67.4219 194.54 67.7562C197.187 68.0905 199.085 70.0241 199.383 72.6805L200.991 87.2456C201.371 90.7243 199.618 94.0222 196.51 95.6395L195.028 96.4166C194.974 96.4437 194.919 96.4527 194.865 96.4527L194.847 96.4618Z" fill="#111C24"/>
<path d="M199.321 75.9606C199.149 75.9606 198.995 75.8341 198.968 75.6534C198.571 72.8253 196.086 71.5242 194.08 71.2622C192.074 71.0092 189.345 71.6417 188.252 74.28C188.18 74.4607 187.963 74.5511 187.782 74.4698C187.602 74.3975 187.511 74.1806 187.593 73.9999C188.623 71.5242 191.198 70.1599 194.179 70.5393C197.152 70.9188 199.312 72.8795 199.682 75.5359C199.709 75.7347 199.574 75.9154 199.375 75.9425C199.357 75.9425 199.339 75.9425 199.321 75.9425V75.9606Z" fill="#111C24"/>
<path d="M194.46 68.4703H194.442C194.243 68.4612 194.09 68.2895 194.108 68.0908C194.216 66.3289 193.963 63.1213 192.337 62.281C192.156 62.1906 192.093 61.9738 192.183 61.8021C192.274 61.6304 192.491 61.5581 192.662 61.6485C195.066 62.8864 194.849 67.6029 194.822 68.1359C194.813 68.3257 194.65 68.4703 194.46 68.4703Z" fill="#111C24"/>
<path d="M187.909 95.2148C187.827 95.8834 187.394 96.3804 186.951 96.3262C186.508 96.272 186.219 95.6847 186.31 95.007C186.391 94.3384 186.825 93.8414 187.267 93.8956C187.71 93.9499 187.999 94.5372 187.909 95.2148Z" fill="#111C24"/>
<path d="M166.901 80.5685C166.341 82.0051 165.112 82.8725 164.164 82.5021C163.215 82.1316 162.908 80.6588 163.468 79.2222C164.028 77.7856 165.257 76.9182 166.206 77.2977C167.154 77.6772 167.462 79.1409 166.901 80.5775V80.5685Z" fill="#111C24"/>
<path d="M163.938 79.6291C163.938 79.6291 163.892 79.6291 163.865 79.6291C163.676 79.5929 163.549 79.4032 163.585 79.2044C164.778 73.2681 169.711 63.8894 174.057 61.1516C174.229 61.0432 174.446 61.0974 174.554 61.2601C174.663 61.4317 174.609 61.6486 174.446 61.757C170.244 64.4044 165.456 73.5482 164.299 79.3399C164.263 79.5116 164.118 79.6291 163.947 79.6291H163.938Z" fill="#111C24"/>
<path d="M167.932 80.8579C167.517 82.1048 166.451 82.8728 165.547 82.5656C164.644 82.2674 164.246 81.0115 164.653 79.7646C165.068 78.5177 166.134 77.7497 167.038 78.0569C167.941 78.3551 168.339 79.611 167.932 80.8579Z" fill="white"/>
<path d="M167.996 80.9843C167.435 82.5203 166.424 83.5504 165.728 83.2974C165.032 83.0444 164.915 81.5987 165.475 80.0627C166.035 78.5267 167.047 77.4966 167.743 77.7496C168.438 78.0026 168.556 79.4483 167.996 80.9843Z" fill="#111C24"/>
<path d="M195.644 96.1997C195.563 96.8683 195.129 97.3653 194.686 97.311C194.244 97.2568 193.955 96.6695 194.045 95.9919C194.126 95.3232 194.56 94.8263 195.003 94.8805C195.445 94.9347 195.734 95.522 195.644 96.1997Z" fill="#111C24"/>
<path d="M246.885 57.0587C249.903 65.3081 241.87 69.4553 236.612 81.5989C231.353 93.7516 244.039 108.244 263.51 108.57C282.981 108.886 283.596 90.2278 280.578 76.8553C277.56 63.4829 283.867 61.2963 282.53 51.0773C280.768 37.6506 261.468 27.4767 253.788 39.801C246.957 39.1595 244.246 49.8484 246.885 57.0587Z" fill="#111C24"/>
<path d="M304.549 168.14L304.513 167.092C304.494 166.586 304.368 166.089 304.133 165.638L300.862 159.195L297.04 158.427C294.339 161.355 297.004 167.174 297.004 167.174V168.131C297.004 169.703 298.043 171.077 299.552 171.511L300.076 171.664C302.38 172.324 304.648 170.544 304.558 168.149L304.549 168.14Z" fill="#FFC3BD"/>
<path d="M288.313 85.1135L289.723 94.9983L291.205 104.874C291.693 108.163 292.208 111.452 292.732 114.741L294.295 124.535L294.485 125.502C294.539 125.818 294.656 126.225 294.737 126.577L295.009 127.679L295.325 128.827C295.731 130.345 296.201 131.917 296.671 133.471C297.611 136.588 298.605 139.742 299.626 142.877C301.713 149.139 303.872 155.427 306.185 161.608L293.418 166.143L287.021 147.042C285.964 143.844 284.889 140.663 283.868 137.411C283.362 135.775 282.847 134.158 282.368 132.468L282.007 131.212L281.654 129.902C281.537 129.45 281.41 129.053 281.302 128.556L280.967 127.074L279.088 117.171C278.474 113.891 277.85 110.612 277.2 107.332L275.257 97.5011L273.242 87.6886L288.322 85.1045L288.313 85.1135Z" fill="#359D9E"/>
<path opacity="0.6" d="M288.313 85.1135L289.723 94.9983L291.205 104.874C291.693 108.163 292.208 111.452 292.732 114.741L294.295 124.535L294.485 125.502C294.539 125.818 294.656 126.225 294.737 126.577L295.009 127.679L295.325 128.827C295.731 130.345 296.201 131.917 296.671 133.471C297.611 136.588 298.605 139.742 299.626 142.877C301.713 149.139 303.872 155.427 306.185 161.608L293.418 166.143L287.021 147.042C285.964 143.844 284.889 140.663 283.868 137.411C283.362 135.775 282.847 134.158 282.368 132.468L282.007 131.212L281.654 129.902C281.537 129.45 281.41 129.053 281.302 128.556L280.967 127.074L279.088 117.171C278.474 113.891 277.85 110.612 277.2 107.332L275.257 97.5011L273.242 87.6886L288.322 85.1045L288.313 85.1135Z" fill="white"/>
<path d="M286.279 84.3458C286.704 89.1708 286.324 101.143 281.49 130.851H248.023C248.556 117.94 248.601 109.717 243.053 85.0958C242.529 82.7646 244.074 80.4516 246.433 80.0721C249.089 79.6474 252.667 79.1685 256.299 78.9969C261.928 78.7258 266.546 78.5451 271.497 78.9969C275.653 79.3763 280.162 80.1263 282.891 80.6232C284.734 80.9575 286.116 82.4755 286.279 84.3368V84.3458Z" fill="#111C24"/>
<path d="M257.808 61.8926C258.765 66.7807 259.723 75.7439 256.299 79.0057C256.299 79.0057 260.582 84.2101 267.132 84.2101C273.683 84.2101 271.496 79.0057 271.496 79.0057C266.048 77.7046 266.184 73.6567 267.132 69.8618L257.799 61.8926H257.808Z" fill="#FFC3BD"/>
<path opacity="0.2" d="M261.611 65.1455L267.132 69.853C266.906 70.7565 266.725 71.6601 266.662 72.5546C264.575 72.2564 261.304 70.4764 260.852 68.2176C260.644 67.1423 261.43 65.6605 261.602 65.1455H261.611Z" fill="#215273"/>
<path d="M252.053 52.2879C253.327 60.3656 253.698 63.8171 258.197 67.5939C264.974 73.2772 274.615 69.9432 275.78 61.6486C276.828 54.1763 274.56 42.2224 266.302 39.7467C258.161 37.3072 250.779 44.2102 252.053 52.2879Z" fill="#FFC3BD"/>
<path d="M253.409 58.116C258.026 53.535 259.625 47.1651 259.182 44.5719C263.646 45.8097 266.908 44.0569 266.709 43.2979C269.853 46.3699 275.555 48.7914 274.913 45.4935C274.272 42.1865 270.052 36.0876 261.252 38.2471C252.451 40.3975 249.063 49.4781 249.144 53.1465C249.225 56.8149 253.409 58.125 253.409 58.125V58.116Z" fill="#111C24"/>
<path d="M263.68 53.2094C263.744 53.869 264.141 54.375 264.575 54.3298C265.009 54.2846 265.307 53.7154 265.243 53.0558C265.18 52.3962 264.783 51.8902 264.349 51.9354C263.915 51.9806 263.617 52.5498 263.68 53.2094Z" fill="#111C24"/>
<path d="M271.162 52.496C271.225 53.1556 271.623 53.6616 272.056 53.6164C272.49 53.5713 272.788 53.002 272.725 52.3424C272.662 51.6829 272.264 51.1769 271.83 51.222C271.397 51.2672 271.099 51.8365 271.162 52.496Z" fill="#111C24"/>
<path d="M271.642 51.276L273.187 50.6616C273.187 50.6616 272.491 51.9808 271.642 51.276Z" fill="#111C24"/>
<path d="M268.966 53.9053C268.966 53.9053 270.357 56.643 271.731 57.8989C270.936 58.7934 269.418 58.5676 269.418 58.5676L268.975 53.9053H268.966Z" fill="#B18A87"/>
<path d="M266.05 61.5038C266.357 61.5219 266.683 61.5128 267.035 61.4857C267.143 61.4767 267.225 61.3773 267.207 61.2689C267.198 61.1605 267.098 61.0791 266.99 61.0972C264.08 61.3683 262.535 59.4799 262.517 59.4528C262.454 59.3714 262.328 59.3534 262.246 59.4257C262.165 59.4889 262.147 59.6154 262.219 59.6967C262.282 59.769 263.574 61.3592 266.05 61.5038Z" fill="#111C24"/>
<path d="M250.272 58.8658C250.896 60.438 252.197 61.5765 253.48 62.1096C255.414 62.9047 256.633 61.2331 256.299 59.2724C256.001 57.5105 254.627 54.9716 252.585 55.0077C250.571 55.0438 249.55 57.0588 250.263 58.8658H250.272Z" fill="#FFC3BD"/>
<path d="M261.079 49.7404C261.232 49.7946 261.413 49.7585 261.521 49.6229C262.66 48.2134 264.973 48.3489 265 48.3489C265.217 48.367 265.397 48.1953 265.416 47.9875C265.434 47.7707 265.271 47.59 265.054 47.5719C264.946 47.5719 262.298 47.4183 260.916 49.135C260.78 49.3067 260.807 49.5507 260.97 49.6862C261.006 49.7133 261.042 49.7314 261.079 49.7494V49.7404Z" fill="#111C24"/>
<path d="M273.873 48.9178C274.009 48.9178 274.135 48.8636 274.217 48.7462C274.334 48.5655 274.289 48.3215 274.108 48.204C272.319 46.9933 270.648 47.68 270.584 47.7071C270.386 47.7884 270.295 48.0233 270.376 48.2221C270.458 48.4209 270.684 48.5112 270.891 48.4299C270.955 48.4028 272.256 47.8968 273.683 48.8546C273.747 48.8907 273.81 48.9178 273.882 48.9178H273.873Z" fill="#111C24"/>
<path d="M302.27 317.902L310.583 317.496L308.125 298.711L299.804 299.108L302.27 317.902Z" fill="#FFC3BD"/>
<g opacity="0.2">
<path opacity="0.2" d="M308.116 298.711L309.39 308.397L301.069 308.804L299.804 299.118L308.116 298.711Z" fill="#215273"/>
</g>
<path d="M281.489 130.851C281.489 130.851 291.961 194.325 296.226 219.064C300.662 244.806 310.646 305.361 310.646 305.361L299.641 307.132C299.641 307.132 284.805 246.504 278.896 221.259C272.454 193.746 256.813 156.855 256.976 130.842H281.48L281.489 130.851Z" fill="#359D9E"/>
<path opacity="0.2" d="M264.684 150.331C263.103 148.045 260.085 144.838 257.763 142.217C259.868 158.391 265.913 177.157 271.397 194.831C272.861 181.35 272.03 160.93 264.684 150.331Z" fill="#215273"/>
<path d="M250.921 316.628H259.161L259.712 297.545H251.472L250.921 316.628Z" fill="#FFC3BD"/>
<path d="M259.55 315.409H250.288C249.954 315.409 249.674 315.644 249.629 315.969L248.571 323.297C248.463 324.056 249.114 324.778 249.891 324.76C253.116 324.706 254.67 324.516 258.745 324.516C261.248 324.516 266.435 324.778 269.886 324.778C273.338 324.778 273.527 321.354 272.091 321.047C265.63 319.655 263.091 317.74 260.914 315.915C260.525 315.589 260.028 315.409 259.54 315.409H259.55Z" fill="#111C24"/>
<g opacity="0.2">
<path opacity="0.2" d="M259.714 297.554L259.425 307.385H251.185L251.465 297.554H259.714Z" fill="#215273"/>
</g>
<path d="M272.092 130.851C272.092 130.851 268.74 195.129 266.481 220.166C264.132 246.206 261.286 305.217 261.286 305.217H250.145C250.145 305.217 248.157 246.432 248.925 220.754C249.766 192.762 243.043 156.864 247.579 130.851H272.083H272.092Z" fill="#359D9E"/>
<path d="M249.178 305.614L262.244 305.858L262.452 297.889L249.115 298.711L249.178 305.614Z" fill="#111C24"/>
<path d="M262.64 316.854C263.463 316.854 264.213 316.728 264.637 316.348C264.908 316.105 265.026 315.788 264.99 315.4C264.972 315.165 264.854 314.984 264.655 314.885C263.643 314.325 260.363 316.005 259.993 316.204C259.921 316.24 259.876 316.321 259.894 316.403C259.903 316.484 259.966 316.547 260.047 316.565C260.743 316.701 261.737 316.864 262.64 316.864V316.854ZM264.113 315.147C264.267 315.147 264.384 315.165 264.475 315.219C264.556 315.264 264.592 315.327 264.601 315.427C264.628 315.689 264.547 315.897 264.375 316.05C263.878 316.502 262.523 316.574 260.689 316.276C261.818 315.734 263.318 315.147 264.104 315.147H264.113Z" fill="#359D9E"/>
<path d="M260.093 316.556C260.093 316.556 260.148 316.556 260.175 316.538C261.159 316.095 263.102 314.315 262.948 313.385C262.912 313.168 262.759 312.888 262.217 312.834C261.819 312.789 261.449 312.906 261.132 313.168C260.093 314.026 259.904 316.249 259.895 316.339C259.895 316.412 259.922 316.475 259.976 316.511C260.012 316.538 260.048 316.547 260.084 316.547L260.093 316.556ZM262.054 313.213C262.054 313.213 262.135 313.213 262.171 313.213C262.524 313.249 262.551 313.394 262.56 313.439C262.65 313.999 261.331 315.4 260.328 316.005C260.428 315.364 260.699 314.026 261.376 313.466C261.584 313.294 261.801 313.213 262.054 313.213Z" fill="#359D9E"/>
<path d="M310.484 315.409H301.223C300.889 315.409 300.663 315.644 300.681 315.969L301.151 323.297C301.196 324.056 302 324.778 302.777 324.76C305.994 324.706 307.511 324.516 311.577 324.516C314.08 324.516 319.321 324.778 322.772 324.778C326.224 324.778 325.7 321.354 324.2 321.047C317.45 319.655 314.514 317.74 311.957 315.915C311.496 315.589 310.963 315.409 310.475 315.409H310.484Z" fill="#111C24"/>
<path d="M313.583 316.854C314.405 316.854 315.155 316.728 315.58 316.348C315.851 316.105 315.968 315.788 315.932 315.4C315.914 315.165 315.796 314.984 315.598 314.885C314.586 314.325 311.306 316.005 310.935 316.204C310.863 316.24 310.818 316.321 310.836 316.403C310.845 316.484 310.908 316.547 310.99 316.565C311.685 316.701 312.679 316.864 313.583 316.864V316.854ZM315.056 315.147C315.209 315.147 315.327 315.165 315.417 315.219C315.498 315.264 315.534 315.327 315.543 315.427C315.571 315.689 315.489 315.897 315.318 316.05C314.821 316.502 313.465 316.574 311.631 316.276C312.761 315.734 314.26 315.147 315.047 315.147H315.056Z" fill="#359D9E"/>
<path d="M311.026 316.556C311.026 316.556 311.08 316.556 311.107 316.538C312.092 316.095 314.035 314.315 313.881 313.385C313.845 313.168 313.691 312.888 313.149 312.834C312.752 312.789 312.381 312.906 312.065 313.168C311.026 314.026 310.836 316.249 310.827 316.339C310.827 316.412 310.854 316.475 310.908 316.511C310.945 316.538 310.981 316.547 311.017 316.547L311.026 316.556ZM312.987 313.213C312.987 313.213 313.068 313.213 313.104 313.213C313.456 313.249 313.484 313.394 313.493 313.439C313.583 313.999 312.264 315.4 311.261 316.005C311.36 315.364 311.631 314.026 312.309 313.466C312.517 313.294 312.734 313.213 312.987 313.213Z" fill="#359D9E"/>
<path d="M298.764 307.683L311.667 305.605L310.212 298.711L297.418 301.72L298.764 307.683Z" fill="#111C24"/>
<path d="M264.158 51.9899L265.703 51.3755C265.703 51.3755 265.008 52.6947 264.158 51.9899Z" fill="#111C24"/>
<path d="M247.526 128.89L246.668 131.89C246.55 132.125 246.83 132.36 247.21 132.36H281.653C281.951 132.36 282.204 132.215 282.222 132.026L282.52 129.026C282.538 128.818 282.276 128.646 281.951 128.646H248.059C247.806 128.646 247.589 128.746 247.517 128.899L247.526 128.89Z" fill="#111C24"/>
<path d="M252.188 132.676H251.284C251.103 132.676 250.968 132.586 250.977 132.468L251.402 128.574C251.411 128.457 251.573 128.366 251.754 128.366H252.658C252.838 128.366 252.974 128.457 252.965 128.574L252.54 132.468C252.531 132.586 252.368 132.676 252.188 132.676Z" fill="#359D9E"/>
<path d="M279.104 132.676H278.2C278.019 132.676 277.884 132.586 277.893 132.468L278.318 128.574C278.327 128.457 278.489 128.366 278.67 128.366H279.574C279.754 128.366 279.89 128.457 279.881 128.574L279.456 132.468C279.447 132.586 279.284 132.676 279.104 132.676Z" fill="#359D9E"/>
<path d="M265.704 132.676H264.801C264.62 132.676 264.485 132.586 264.494 132.468L264.918 128.574C264.927 128.457 265.09 128.366 265.271 128.366H266.174C266.355 128.366 266.49 128.457 266.481 128.574L266.057 132.468C266.048 132.586 265.885 132.676 265.704 132.676Z" fill="#359D9E"/>
<path d="M254.853 78.7258C249.603 79.2047 241.589 78.2108 241.824 86.2613C242.059 94.3119 240.514 115.636 240.938 125.62C241.363 135.604 238.752 200.252 242.962 218.992C243.703 222.299 270.9 221.874 274.189 221.549V218.576C274.189 218.576 293.949 215.92 298.837 216.769C298.413 205.511 287.471 148.642 287.046 132.667C286.621 116.693 288.419 89.234 288.311 84.8789C288.203 80.5238 279.547 78.6083 274.243 78.7168C275.408 82.6472 272.815 90.0381 268.668 98.2694C258.467 88.3305 255.458 83.3971 254.853 78.7168V78.7258Z" fill="#359D9E"/>
<path opacity="0.7" d="M254.853 78.7258C249.603 79.2047 241.589 78.2108 241.824 86.2613C242.059 94.3119 240.514 115.636 240.938 125.62C241.363 135.604 238.752 200.252 242.962 218.992C243.703 222.299 270.9 221.874 274.189 221.549V218.576C274.189 218.576 293.949 215.92 298.837 216.769C298.413 205.511 287.471 148.642 287.046 132.667C286.621 116.693 288.419 89.234 288.311 84.8789C288.203 80.5238 279.547 78.6083 274.243 78.7168C275.408 82.6472 272.815 90.0381 268.668 98.2694C258.467 88.3305 255.458 83.3971 254.853 78.7168V78.7258Z" fill="white"/>
<path opacity="0.2" d="M244.869 97.8174L241.508 100.203C241.237 107.151 240.885 114.958 240.857 120.948C243.975 114.072 245.737 104.088 244.869 97.8174Z" fill="#359D9E"/>
<path d="M255.577 90.5984C255.405 90.8514 255.215 91.1044 255.016 91.3393L254.827 91.5562L254.727 91.6646L254.547 91.8634L254.185 92.2519L253.462 93.0471C252.974 93.5801 252.505 94.1403 252.035 94.7005C251.095 95.8209 250.173 96.9594 249.279 98.125C247.49 100.447 245.846 102.86 244.337 105.308C241.319 110.196 238.933 115.401 237.958 120.352C237.723 121.581 237.587 122.783 237.533 123.948C237.452 123.695 237.587 124.68 238.048 125.674C238.951 127.761 240.506 130.237 242.159 132.586C243.831 134.962 245.737 137.285 247.68 139.589C248.656 140.745 249.668 141.866 250.689 142.977C251.7 144.079 252.776 145.227 253.77 146.212L244.02 155.626C242.837 154.334 241.789 153.16 240.704 151.922L237.515 148.19C235.392 145.687 233.368 143.085 231.362 140.357C229.374 137.592 227.431 134.782 225.742 131.122C225.326 130.192 224.928 129.189 224.576 128.023C224.404 127.445 224.251 126.803 224.124 126.099C224.061 125.746 224.016 125.376 223.98 124.969C223.944 124.617 223.935 124.057 223.935 123.777C223.962 121.789 224.133 119.855 224.441 117.985C225.073 114.253 226.139 110.766 227.458 107.495C228.769 104.206 230.277 101.098 231.949 98.1159C233.612 95.1252 235.437 92.2881 237.325 89.4961C238.283 88.1047 239.259 86.7403 240.28 85.394L241.834 83.3791L242.629 82.3762L243.035 81.8702L243.243 81.6172L243.343 81.4998L243.37 81.4727V81.4546L243.252 81.5992C243.09 81.7979 242.936 82.0057 242.792 82.2226L255.577 90.6256V90.5984Z" fill="#359D9E"/>
<path opacity="0.7" d="M255.577 90.5984C255.405 90.8514 255.215 91.1044 255.016 91.3393L254.827 91.5562L254.727 91.6646L254.547 91.8634L254.185 92.2519L253.462 93.0471C252.974 93.5801 252.505 94.1403 252.035 94.7005C251.095 95.8209 250.173 96.9594 249.279 98.125C247.49 100.447 245.846 102.86 244.337 105.308C241.319 110.196 238.933 115.401 237.958 120.352C237.723 121.581 237.587 122.783 237.533 123.948C237.452 123.695 237.587 124.68 238.048 125.674C238.951 127.761 240.506 130.237 242.159 132.586C243.831 134.962 245.737 137.285 247.68 139.589C248.656 140.745 249.668 141.866 250.689 142.977C251.7 144.079 252.776 145.227 253.77 146.212L244.02 155.626C242.837 154.334 241.789 153.16 240.704 151.922L237.515 148.19C235.392 145.687 233.368 143.085 231.362 140.357C229.374 137.592 227.431 134.782 225.742 131.122C225.326 130.192 224.928 129.189 224.576 128.023C224.404 127.445 224.251 126.803 224.124 126.099C224.061 125.746 224.016 125.376 223.98 124.969C223.944 124.617 223.935 124.057 223.935 123.777C223.962 121.789 224.133 119.855 224.441 117.985C225.073 114.253 226.139 110.766 227.458 107.495C228.769 104.206 230.277 101.098 231.949 98.1159C233.612 95.1252 235.437 92.2881 237.325 89.4961C238.283 88.1047 239.259 86.7403 240.28 85.394L241.834 83.3791L242.629 82.3762L243.035 81.8702L243.243 81.6172L243.343 81.4998L243.37 81.4727V81.4546L243.252 81.5992C243.09 81.7979 242.936 82.0057 242.792 82.2226L255.577 90.6256V90.5984Z" fill="white"/>
<path opacity="0.3" d="M268.668 98.2783C269.617 117.551 274.776 184.802 274.189 218.585C275.634 218.395 275.761 218.386 275.761 218.386C275.761 218.386 273.321 166.433 272.219 143.69C271.117 120.957 268.677 98.2783 268.677 98.2783H268.668Z" fill="#359D9E"/>
<path opacity="0.3" d="M253.057 146.446L243.407 156.855C243.407 160.361 240.968 167.372 247.446 169.92C253.924 172.468 254.105 153.982 253.057 146.446Z" fill="#359D9E"/>
<path opacity="0.3" d="M284.526 146.094L288.773 156.737C288.899 160.37 290.128 167.598 287.625 170.336C285.113 173.074 284.382 153.927 284.526 146.103V146.094Z" fill="#359D9E"/>
<path d="M273.972 104.983L284.57 104.92C285.04 104.92 285.384 104.549 285.329 104.106L284.742 99.0737C284.688 98.6309 284.263 98.2695 283.793 98.2695L273.195 98.3328C272.725 98.3328 272.391 98.7032 272.436 99.146L273.023 104.179C273.077 104.621 273.502 104.983 273.972 104.983Z" fill="white" stroke="#359D9E" stroke-width="0.5" stroke-miterlimit="10"/>
<defs>
<filter id="filter0_f_546_9789" x="1.17383" y="301.213" width="380.376" height="50.4561" filterUnits="userSpaceOnUse" color-interpolation-filters="sRGB">
<feFlood flood-opacity="0" result="BackgroundImageFix"/>
<feBlend mode="normal" in="SourceGraphic" in2="BackgroundImageFix" result="shape"/>
<feGaussianBlur stdDeviation="7.5" result="effect1_foregroundBlur_546_9789"/>
</filter>
</defs>
</svg>
