<svg width="72" height="72" viewBox="0 0 72 72" fill="none" xmlns="http://www.w3.org/2000/svg">
<rect width="72" height="72" rx="36" fill="#778086"/>
<path d="M51.099 52.211H21.2242C20.0484 52.211 19.0903 51.2529 19.0903 50.0771V28.9557C19.0903 27.7799 20.0484 26.8218 21.2242 26.8218H26.6026C26.951 26.8218 27.234 27.1048 27.234 27.4532C27.234 27.8016 26.951 28.0847 26.6026 28.0847H21.2242C20.7452 28.0847 20.3532 28.4766 20.3532 28.9557V50.0771C20.3532 50.5561 20.7452 50.9481 21.2242 50.9481H51.099C51.5781 50.9481 51.97 50.5561 51.97 50.0771V28.9557C51.97 28.4766 51.5781 28.0847 51.099 28.0847H45.6118C45.2634 28.0847 44.9804 27.8016 44.9804 27.4532C44.9804 27.1048 45.2634 26.8218 45.6118 26.8218H51.099C52.2749 26.8218 53.233 27.7799 53.233 28.9557V50.0771C53.233 51.2529 52.2749 52.211 51.099 52.211Z" fill="white"/>
<path d="M48.8346 49.3152H23.4889C22.8792 49.3152 22.3784 48.8144 22.3784 48.2047V31.068C22.3784 30.4583 22.8792 29.9575 23.4889 29.9575H25.6011C25.9495 29.9575 26.2325 30.2406 26.2325 30.589C26.2325 30.9374 25.9495 31.2204 25.6011 31.2204H23.6414V48.0522H48.704V31.2204H46.7878C46.4394 31.2204 46.1563 30.9374 46.1563 30.589C46.1563 30.2406 46.4394 29.9575 46.7878 29.9575H48.8346C49.4443 29.9575 49.9451 30.4583 49.9451 31.068V48.2047C49.9451 48.8144 49.4443 49.3152 48.8346 49.3152Z" fill="white"/>
<path d="M29.7163 32.1784C28.4534 32.1784 27.4953 31.8518 27.4082 31.83C27.1905 31.7647 27.038 31.5687 26.9945 31.351C26.9509 31.1332 27.038 30.8937 27.2122 30.7631C27.3429 30.6542 27.5389 30.4582 27.7784 30.0227C28.301 29.13 28.5841 28.063 28.5841 26.9525V25.2323C28.7147 22.4234 29.6945 21.1605 30.7833 20.0064C31.0228 19.7451 31.4148 19.7451 31.676 19.9846C31.9373 20.2241 31.9373 20.6161 31.6978 20.8774C30.718 21.9226 29.9558 22.9024 29.847 25.2541V26.9307C29.847 28.2808 29.4986 29.5655 28.8453 30.6542C28.8018 30.7195 28.7582 30.7848 28.7365 30.8502C29.8252 31.0244 31.6978 31.0244 33.0914 29.5655C33.3309 29.3259 33.7229 29.3042 33.9842 29.5655C34.2237 29.805 34.2454 30.1969 33.9842 30.4582C32.6341 31.8518 31.001 32.2002 29.6945 32.2002L29.7163 32.1784Z" fill="white"/>
<path d="M40.7565 45.2C40.4081 45.2 40.125 44.9169 40.125 44.5685V41.5636C40.125 41.2152 40.4081 40.9321 40.7565 40.9321C41.1049 40.9321 41.3879 41.2152 41.3879 41.5636V44.5685C41.3879 44.9169 41.1049 45.2 40.7565 45.2Z" fill="white"/>
<path d="M31.3058 45.2C30.9574 45.2 30.6743 44.9169 30.6743 44.5685V41.5636C30.6743 41.2152 30.9574 40.9321 31.3058 40.9321C31.6542 40.9321 31.9372 41.2152 31.9372 41.5636V44.5685C31.9372 44.9169 31.6542 45.2 31.3058 45.2Z" fill="white"/>
<path d="M36.0748 31.7431C34.5724 31.7431 33.2223 30.9374 32.5038 29.5874C32.3949 29.3696 32.286 29.1519 32.1772 28.8906C32.1554 28.847 32.1336 28.7817 32.1336 28.7164C31.9594 27.6494 31.8941 26.8002 31.9594 26.147C31.9812 25.8639 32.2207 25.6244 32.5038 25.5808C32.5473 25.5808 33.832 25.3849 34.7248 24.0348C34.8555 23.8389 35.0732 23.73 35.2909 23.7518C35.5087 23.7518 35.7264 23.9042 35.8135 24.1002C35.8135 24.1002 36.4885 25.2107 39.5152 25.1018C39.8636 25.1018 40.1467 25.3631 40.1685 25.6897C40.1685 25.7333 40.2338 27.0397 40.016 28.6728C39.9943 28.7817 39.9725 28.847 39.9289 28.9777C39.4064 30.5237 38.0781 31.5689 36.445 31.6995C36.3361 31.6995 36.2055 31.6995 36.0966 31.6995L36.0748 31.7431ZM33.353 28.4333C33.4401 28.6293 33.5272 28.8253 33.6143 28.9995C34.2458 30.1971 35.4434 30.5455 36.3361 30.4801C37.2071 30.4148 38.2958 29.8704 38.7313 28.6075C38.7313 28.564 38.7531 28.5204 38.7749 28.4986C38.8838 27.6494 38.9273 26.8873 38.9273 26.3865C36.9676 26.343 35.8789 25.8204 35.3127 25.3631C34.5724 26.1688 33.7449 26.5389 33.2224 26.7131C33.2224 27.1704 33.2877 27.7583 33.3966 28.4333H33.353Z" fill="white"/>
<path d="M45.46 45.1996H26.6031C26.2548 45.1996 25.9717 44.9165 25.9717 44.5681V38.1228C25.9717 35.7494 27.7354 33.7679 30.0871 33.4631L31.9815 33.2235C32.6129 33.1582 33.3751 32.6792 33.4839 32.113L33.7452 30.567C33.7888 30.3711 33.9194 30.1969 34.0936 30.1098C34.2678 30.0227 34.4856 30.0227 34.6815 30.1098C35.509 30.5888 36.5542 30.5888 37.4034 30.1533C37.5776 30.0662 37.7953 30.0662 37.9695 30.1533C38.1437 30.2404 38.2743 30.4146 38.3179 30.6106L38.5792 32.1348C38.6881 32.6792 39.472 33.1582 40.0817 33.2235L41.976 33.4631C44.3277 33.7461 46.0914 35.7494 46.0914 38.1228V44.5681C46.0914 44.9165 45.8084 45.1996 45.46 45.1996ZM27.2346 43.9367H44.8285V38.1228C44.8285 36.3808 43.522 34.922 41.8236 34.726L39.9292 34.4865C38.8623 34.3558 37.5776 33.5719 37.338 32.3743L37.2074 31.5904C36.4453 31.8082 35.6179 31.7864 34.8775 31.5687L34.7469 32.3525C34.5073 33.5719 33.2226 34.3558 32.1557 34.4865L30.2613 34.726C28.5411 34.9437 27.2564 36.4026 27.2564 38.1228V43.9367H27.2346Z" fill="white"/>
<path d="M31.8719 22.2929C31.7195 22.2929 31.5671 22.2493 31.4146 22.184C31.1751 22.0533 31.0009 21.8356 30.9138 21.5743L30.0646 18.5912C29.8686 17.9379 30.1953 17.2629 30.805 16.9799C31.6106 16.6097 33.3308 16 35.922 16C38.5132 16 40.2334 16.6097 41.039 16.9799C41.6487 17.2629 41.9753 17.9379 41.7794 18.5912L40.9302 21.5743C40.8648 21.8356 40.6689 22.0533 40.4293 22.184C40.1898 22.3146 39.9067 22.3364 39.6454 22.2493C38.2519 21.7703 35.922 21.7267 35.9002 21.7267C35.9002 21.7267 33.5703 21.7703 32.1767 22.2493C32.0679 22.2929 31.959 22.2929 31.8501 22.2929H31.8719ZM35.922 20.4638C36.0309 20.4638 38.2301 20.5073 39.8196 20.9646L40.6035 18.221C40.6035 18.221 40.6035 18.1121 40.5382 18.0904C39.8197 17.7637 38.2954 17.2194 35.922 17.2194C33.5486 17.2194 32.0243 17.7637 31.3058 18.0904C31.2622 18.1121 31.2404 18.1557 31.2404 18.221L32.0243 20.9646C33.5921 20.5073 35.7913 20.4638 35.9002 20.4638H35.922Z" fill="white"/>
<path d="M42.1496 32.1787C40.9085 32.1787 39.3407 31.8521 38.0342 30.6109C37.7729 30.3714 37.7729 29.9795 38.0125 29.7182C38.252 29.4569 38.6439 29.4569 38.9052 29.6964C40.277 30.9811 42.0625 30.9811 43.1295 30.8287C43.086 30.7634 43.0642 30.7198 43.0206 30.6545C42.3674 29.5658 42.019 28.2811 42.019 26.931V25.2108C41.9101 22.8809 41.148 21.9011 40.1682 20.8559C39.9286 20.5946 39.9286 20.2027 40.1899 19.9631C40.4512 19.7236 40.8432 19.7236 41.0827 19.9849C42.1714 21.139 43.1513 22.3801 43.2819 25.1891V26.931C43.2819 28.0415 43.565 29.1085 44.0876 30.0012C44.3271 30.415 44.5449 30.6327 44.6537 30.7416C44.8279 30.894 44.915 31.1118 44.8715 31.3295C44.8279 31.5472 44.6755 31.7432 44.4577 31.8085C44.3706 31.8303 43.4126 32.1569 42.1496 32.1569V32.1787Z" fill="white"/>
<path d="M36.0309 20.3332C35.6825 20.3332 35.3994 20.0502 35.3994 19.7018V18.0904C35.3994 17.7421 35.6825 17.459 36.0309 17.459C36.3793 17.459 36.6623 17.7421 36.6623 18.0904V19.7018C36.6623 20.0502 36.3793 20.3332 36.0309 20.3332Z" fill="white"/>
<path d="M36.837 19.5276H35.2257C34.8773 19.5276 34.5942 19.2445 34.5942 18.8961C34.5942 18.5477 34.8773 18.2646 35.2257 18.2646H36.837C37.1854 18.2646 37.4685 18.5477 37.4685 18.8961C37.4685 19.2445 37.1854 19.5276 36.837 19.5276Z" fill="white"/>
<path d="M32.3943 40.3442H32.2636C31.9152 40.3442 31.6322 40.0612 31.6322 39.7128C31.6322 39.3644 31.9152 39.0813 32.2636 39.0813H32.3943V37.9055C32.3943 37.2522 31.8935 36.7296 31.2402 36.7296C30.587 36.7296 30.0644 37.2522 30.0644 37.9055V39.0595H30.2168C30.5652 39.0595 30.8483 39.3644 30.8483 39.7128C30.8483 40.0612 30.5652 40.3442 30.2168 40.3442H30.0862C29.3894 40.3442 28.8232 39.7781 28.8232 39.0813V37.9272C28.8232 36.599 29.912 35.5103 31.2402 35.5103C32.5685 35.5103 33.6572 36.599 33.6572 37.9272V39.0813C33.6572 39.7781 33.0911 40.3442 32.3725 40.3442H32.3943Z" fill="white"/>
<path d="M31.2403 36.7514C30.8919 36.7514 30.6089 36.4684 30.6089 36.12V33.9425C30.6089 33.5941 30.8919 33.311 31.2403 33.311C31.5887 33.311 31.8718 33.5941 31.8718 33.9425V36.12C31.8718 36.4684 31.5887 36.7514 31.2403 36.7514Z" fill="white"/>
<path d="M40.7565 36.9039C40.4081 36.9039 40.125 36.6208 40.125 36.2724V33.9425C40.125 33.5941 40.4081 33.311 40.7565 33.311C41.1049 33.311 41.3879 33.5941 41.3879 33.9425V36.2724C41.3879 36.6208 41.1049 36.9039 40.7565 36.9039Z" fill="white"/>
<path d="M40.756 39.4515C39.7108 39.4515 38.8398 38.6023 38.8398 37.5353C38.8398 36.4684 39.689 35.6191 40.756 35.6191C41.823 35.6191 42.6722 36.4684 42.6722 37.5353C42.6722 38.6023 41.823 39.4515 40.756 39.4515ZM40.756 36.8821C40.3858 36.8821 40.1028 37.1651 40.1028 37.5353C40.1028 37.9055 40.3858 38.1885 40.756 38.1885C41.1262 38.1885 41.4093 37.9055 41.4093 37.5353C41.4093 37.1651 41.1262 36.8821 40.756 36.8821Z" fill="white"/>
<path d="M51.2515 56.0002H20.7888C18.6984 56.0002 17 54.3017 17 52.2114C17 51.5146 17.5661 50.9702 18.2412 50.9702H53.7774C54.4741 50.9702 55.0185 51.5364 55.0185 52.2114C55.0185 54.3017 53.3201 56.0002 51.2297 56.0002H51.2515ZM18.2629 52.2114C18.2629 53.6049 19.417 54.7372 20.8106 54.7372H51.2733C52.6668 54.7372 53.7991 53.6049 53.7991 52.2114H18.2629Z" fill="white"/>
</svg>
