<svg width="26" height="26" viewBox="0 0 26 26" fill="none" xmlns="http://www.w3.org/2000/svg">
<g clip-path="url(#clip0)">
<path d="M13 26C20.1797 26 26 20.1797 26 13C26 5.8203 20.1797 0 13 0C5.8203 0 0 5.8203 0 13C0 20.1797 5.8203 26 13 26Z" fill="#F0F0F0"/>
<path d="M12.4365 13.0016H26.0002C26.0002 11.8285 25.8428 10.691 25.5533 9.60938H12.4365V13.0016Z" fill="#D80027"/>
<path d="M12.4365 6.21641H24.0959C23.2986 4.91641 22.283 3.76875 21.0947 2.82422H12.4365V6.21641Z" fill="#D80027"/>
<path d="M13.0008 26.0004C16.0578 26.0004 18.8711 24.9441 21.0953 23.1719H4.90625C7.13047 24.9441 9.94375 26.0004 13.0008 26.0004Z" fill="#D80027"/>
<path d="M1.90977 19.7828H24.0961C24.7359 18.7418 25.2285 17.5992 25.5586 16.3906H0.447266C0.772266 17.5992 1.26992 18.7367 1.90977 19.7828Z" fill="#D80027"/>
<path d="M6.02266 2.03242H7.20586L6.10391 2.83477L6.52539 4.12969L5.42344 3.32734L4.32148 4.12969L4.68711 3.0125C3.71719 3.81992 2.86406 4.76953 2.16328 5.8207H2.54414L1.84336 6.32852C1.73164 6.51133 1.63008 6.69414 1.52852 6.88203L1.86367 7.91289L1.23906 7.46094C1.08164 7.79102 0.939453 8.12617 0.8125 8.47149L1.1832 9.60898H2.54414L1.44219 10.4113L1.86367 11.7063L0.761719 10.8988L0.101562 11.3762C0.0355469 11.9094 0 12.4477 0 12.9961H13C13 5.81563 13 4.96758 13 -0.00390625C10.4305 0.00117188 8.03867 0.747656 6.02266 2.03242ZM6.52539 11.7012L5.42344 10.8988L4.32148 11.7012L4.74297 10.4062L3.64102 9.60391H5.00195L5.42344 8.30898L5.84492 9.60391H7.20586L6.10391 10.4062L6.52539 11.7012ZM6.10391 6.61797L6.52539 7.91289L5.42344 7.11055L4.32148 7.91289L4.74297 6.61797L3.64102 5.81562H5.00195L5.42344 4.5207L5.84492 5.81562H7.20586L6.10391 6.61797ZM11.1871 11.7012L10.0852 10.8988L8.9832 11.7012L9.40469 10.4062L8.30273 9.60391H9.66367L10.0852 8.30898L10.5066 9.60391H11.8676L10.7656 10.4062L11.1871 11.7012ZM10.7656 6.61797L11.1871 7.91289L10.0852 7.11055L8.9832 7.91289L9.40469 6.61797L8.30273 5.81562H9.66367L10.0852 4.5207L10.5066 5.81562H11.8676L10.7656 6.61797ZM10.7656 2.82969L11.1871 4.12461L10.0852 3.32227L8.9832 4.12461L9.40469 2.82969L8.30273 2.03242H9.66367L10.0852 0.7375L10.5066 2.03242H11.8676L10.7656 2.82969Z" fill="#0052B4"/>
</g>
<defs>
<clipPath id="clip0">
<rect width="26" height="26" fill="white"/>
</clipPath>
</defs>
</svg>
