<svg width="53" height="50" viewBox="0 0 53 50" fill="none" xmlns="http://www.w3.org/2000/svg">
<path fill-rule="evenodd" clip-rule="evenodd" d="M18.8694 9.55372C18.1305 4.62688 13.6921 1.28489 9.12788 2.02777C4.55164 2.77289 1.29275 7.38918 2.03249 12.3235M18.8694 9.55372C18.8693 9.55281 18.8694 9.55487 18.8698 9.56027C18.8712 9.57868 18.8755 9.63586 18.8805 9.746C18.883 9.80088 18.8854 9.86123 18.8877 9.92511H9.73303L9.83552 10.9794L9.83649 10.989L10.6762 19.6279C6.54675 19.5216 2.66906 16.5681 2.03249 12.3235M10.8634 21.5533C5.81611 21.5285 0.929282 17.9691 0.125287 12.608C-0.756691 6.725 3.11024 1.05907 8.81719 0.129842C14.5351 -0.80082 19.8936 3.37729 20.7768 9.27037C20.7933 9.38088 20.8015 9.53916 20.807 9.65877C20.8107 9.741 20.8141 9.83187 20.8173 9.92511H47L42.8875 49.1384L42.7972 50H13.6287L12.7605 41.0738L10.8634 21.5533ZM12.7883 21.4241L14.6983 41.0726L41.7962 41.0565L44.8594 11.8482H20.9388L20.9389 11.8494L11.8681 11.8483L12.8947 21.4141L12.7883 21.4241ZM41.5941 42.9797L14.8852 42.9955L15.3792 48.077H41.0599L41.5941 42.9797Z" fill="#EF9D1B"/>
</svg>
