<svg width="35" height="50" viewBox="0 0 35 50" fill="none" xmlns="http://www.w3.org/2000/svg">
<path d="M17.6907 0.0147133C17.9713 0.0597854 18.2273 0.200951 18.4144 0.414838C26.7158 9.68397 34.5683 20.6824 34.5683 31.0844C34.5683 41.4434 26.9834 50 17.5 50C8.01665 50 0.431702 41.4431 0.431702 31.0844C0.431702 20.6825 8.28454 9.68375 16.5856 0.414838H16.5865C16.862 0.101034 17.2787 -0.0499133 17.6911 0.0147133H17.6907ZM17.5002 3.13871C9.72518 12.0179 2.87021 22.3057 2.87021 31.0837C2.87021 40.2611 9.48689 47.562 17.5002 47.562C25.5135 47.562 32.1302 40.2616 32.1302 31.0837C32.1302 22.3044 25.2757 12.0179 17.5002 3.13871ZM27.9774 29.2169C28.5561 29.2883 29.003 29.7594 29.0442 30.3411C29.438 34.6485 27.337 39.4699 24.0722 41.8089V41.8084C23.8116 42.0261 23.4718 42.1248 23.1351 42.081C22.7983 42.0376 22.4947 41.8556 22.2978 41.5788C22.1009 41.302 22.0286 40.9559 22.098 40.6234C22.1668 40.2909 22.3718 40.0026 22.6626 39.8274C24.941 38.195 26.9233 33.8328 26.6247 30.5693C26.5818 30.1989 26.7102 29.8294 26.9738 29.5657C27.2374 29.3021 27.6069 29.1737 27.9773 29.2167L27.9774 29.2169Z" fill="#D85D19"/>
</svg>
