<svg width="37" height="50" viewBox="0 0 37 50" fill="none" xmlns="http://www.w3.org/2000/svg">
<path d="M0.596793 0.776716C0.510543 1.72665 -0.0987074 10.2742 3.29072 12.8651C4.42114 13.7294 5.37722 14.1615 6.24522 14.5918C7.89681 15.3703 9.02723 15.8881 10.1558 18.6504C10.3301 18.9968 10.4182 19.3414 10.5907 19.6878C11.5468 22.1912 12.8497 25.6445 17.3696 26.1642V48.2752H12.068C11.8378 48.2752 11.617 48.366 11.4542 48.5278C11.2914 48.6895 11.2 48.9089 11.2 49.1376C11.2 49.3663 11.2914 49.5857 11.4542 49.7474C11.617 49.9091 11.8378 50 12.068 50H24.409C24.6392 50 24.86 49.9091 25.0228 49.7474C25.1856 49.5857 25.277 49.3663 25.277 49.1376C25.277 48.9089 25.1856 48.6895 25.0228 48.5278C24.86 48.366 24.6392 48.2752 24.409 48.2752H19.1955V26.2499C24.1503 25.9034 25.4532 22.3626 26.4093 19.686C26.5818 19.3414 26.6698 18.995 26.8423 18.6504C27.9728 15.8863 29.1894 15.3685 30.7548 14.5918C31.6228 14.1596 32.6651 13.7294 33.7093 12.8651C37.0987 10.2742 36.4895 1.72665 36.4032 0.776716C36.4032 0.344597 35.9683 0 35.5334 0H1.46663C1.03171 0 0.598627 0.344597 0.598627 0.776716H0.596793ZM32.6651 11.4831C31.8145 12.0785 30.913 12.5989 29.9712 13.0383C28.2334 13.815 26.4955 14.5918 25.1908 18.0469C25.0183 18.3915 24.9302 18.7361 24.7577 19.1682C23.7135 21.9323 22.7574 24.5214 18.5 24.6089C14.2407 24.5214 13.2847 21.9323 12.2423 19.1682C12.0588 18.8236 11.9817 18.3915 11.8074 18.0469C10.4164 14.6793 8.76664 13.9026 7.03615 13.0383C6.06015 12.6666 5.1506 12.1414 4.34223 11.4831C3.38431 10.7063 2.77689 8.97969 2.50713 7.07982C3.98438 7.42625 5.89655 7.68515 8.59048 7.68515C12.8497 7.68515 15.1968 6.99412 17.5421 6.38879C19.8011 5.78529 21.9738 5.17996 25.9725 5.17996C30.0574 5.17996 32.1421 5.78529 34.403 6.38879L34.5755 6.47449C34.313 8.63508 33.7937 10.7063 32.6633 11.4831H32.6651ZM2.24838 1.72665H34.7516V4.74784C32.4926 4.14433 30.1455 3.45331 25.9744 3.45331C21.7151 3.45331 19.368 4.14433 17.0227 4.74784C14.7619 5.35317 12.6772 5.95668 8.59231 5.95668C6.48587 5.98063 4.38438 5.74856 2.33463 5.26565C2.24838 3.97111 2.24838 2.67659 2.24838 1.72665Z" fill="#DEB992"/>
</svg>
