<svg width="48" height="48" viewBox="0 0 48 48" fill="none" xmlns="http://www.w3.org/2000/svg">
<g clip-path="url(#clip0_387_24509)">
<path d="M46.4 38.4001V11.2001C46.3974 8.99203 44.608 7.20272 42.4 7.20007H35.492C33.3572 2.79648 28.8938 0 24 0C19.1062 0 14.6428 2.79648 12.508 7.20007H5.6C3.39196 7.20272 1.60264 8.99203 1.6 11.2001V38.4001C0.716344 38.4001 0 39.1164 0 40.0001V42.4001C0.00352691 45.4914 2.50867 47.9966 5.6 48.0001H42.4C45.4913 47.9966 47.9965 45.4914 48 42.4001V40.0001C48 39.1164 47.2837 38.4001 46.4 38.4001ZM24 1.60007C30.1856 1.60007 35.2 6.61448 35.2 12.8001C35.2 18.9857 30.1856 24.0001 24 24.0001C17.8144 24.0001 12.8 18.9857 12.8 12.8001C12.8066 6.61722 17.8172 1.60668 24 1.60007ZM3.2 11.2001C3.2 9.87459 4.27452 8.80007 5.6 8.80007H11.8488C10.1002 14.081 11.9627 19.8867 16.457 23.1649C20.9514 26.4431 27.0486 26.4431 31.543 23.1649C36.0373 19.8867 37.8998 14.081 36.1512 8.80007H42.4C43.7255 8.80007 44.8 9.87459 44.8 11.2001V38.4001H3.2V11.2001ZM16.8 40.0001H31.2V40.8001C31.2 41.6837 30.4837 42.4001 29.6 42.4001H18.4C17.5163 42.4001 16.8 41.6837 16.8 40.8001V40.0001ZM46.4 42.4001C46.3974 44.6081 44.608 46.3974 42.4 46.4001H5.6C3.39196 46.3974 1.60264 44.6081 1.6 42.4001V40.0001H15.2V40.8001C15.2 42.5674 16.6327 44.0001 18.4 44.0001H29.6C31.3673 44.0001 32.8 42.5674 32.8 40.8001V40.0001H46.4V42.4001Z" fill="#0D4EE3"/>
<path d="M12.0008 41.5996H9.60078C9.15895 41.5996 8.80078 41.9578 8.80078 42.3996C8.80078 42.8414 9.15895 43.1996 9.60078 43.1996H12.0008C12.4426 43.1996 12.8008 42.8414 12.8008 42.3996C12.8008 41.9578 12.4426 41.5996 12.0008 41.5996Z" fill="#0D4EE3"/>
<path d="M4.8 43.1996C5.24183 43.1996 5.6 42.8414 5.6 42.3996C5.6 41.9578 5.24183 41.5996 4.8 41.5996C4.35817 41.5996 4 41.9578 4 42.3996C4 42.8414 4.35817 43.1996 4.8 43.1996Z" fill="#0D4EE3"/>
<path d="M7.20039 43.1996C7.64222 43.1996 8.00039 42.8414 8.00039 42.3996C8.00039 41.9578 7.64222 41.5996 7.20039 41.5996C6.75856 41.5996 6.40039 41.9578 6.40039 42.3996C6.40039 42.8414 6.75856 43.1996 7.20039 43.1996Z" fill="#0D4EE3"/>
<path d="M24.0004 22.3992C29.3023 22.3992 33.6004 18.1012 33.6004 12.7992C33.6004 7.49729 29.3023 3.19922 24.0004 3.19922C18.6985 3.19922 14.4004 7.49729 14.4004 12.7992C14.4061 18.0988 18.7008 22.3935 24.0004 22.3992ZM24.0004 4.79922C28.4187 4.79922 32.0004 8.38094 32.0004 12.7992C32.0004 17.2175 28.4187 20.7992 24.0004 20.7992C19.5821 20.7992 16.0004 17.2175 16.0004 12.7992C16.0052 8.38295 19.5841 4.80407 24.0004 4.79922Z" fill="#0D4EE3"/>
<path d="M16 31.1996C15.9983 30.6305 15.6934 30.1055 15.2 29.822V28.7996C15.2 27.0323 13.7673 25.5996 12 25.5996C10.2327 25.5996 8.8 27.0323 8.8 28.7996V29.822C8.3066 30.1055 8.00172 30.6305 8 31.1996V32.7996C8 34.5669 9.43269 35.9996 11.2 35.9996H12.8C14.5673 35.9996 16 34.5669 16 32.7996V31.1996ZM10.4 28.7996C10.4 27.916 11.1163 27.1996 12 27.1996C12.8837 27.1996 13.6 27.916 13.6 28.7996V29.5996H10.4V28.7996ZM14.4 32.7996C14.4 33.6833 13.6837 34.3996 12.8 34.3996H11.2C10.3163 34.3996 9.6 33.6833 9.6 32.7996V31.1996H14.4V32.7996Z" fill="#0D4EE3"/>
<path d="M20.7992 35.2008H38.3992C39.2829 35.2008 39.9992 34.4844 39.9992 33.6008V30.4008C39.9992 29.5171 39.2829 28.8008 38.3992 28.8008H20.7992C19.9156 28.8008 19.1992 29.5171 19.1992 30.4008V33.6008C19.1992 34.4844 19.9156 35.2008 20.7992 35.2008ZM20.7992 30.4008H38.3992V33.6008H20.7992V30.4008Z" fill="#0D4EE3"/>
<path d="M23.2004 32.7992C23.6422 32.7992 24.0004 32.441 24.0004 31.9992C24.0004 31.5574 23.6422 31.1992 23.2004 31.1992C22.7586 31.1992 22.4004 31.5574 22.4004 31.9992C22.4004 32.441 22.7586 32.7992 23.2004 32.7992Z" fill="#0D4EE3"/>
<path d="M26.3996 32.7992C26.8414 32.7992 27.1996 32.441 27.1996 31.9992C27.1996 31.5574 26.8414 31.1992 26.3996 31.1992C25.9578 31.1992 25.5996 31.5574 25.5996 31.9992C25.5996 32.441 25.9578 32.7992 26.3996 32.7992Z" fill="#0D4EE3"/>
<path d="M29.6008 32.7992C30.0426 32.7992 30.4008 32.441 30.4008 31.9992C30.4008 31.5574 30.0426 31.1992 29.6008 31.1992C29.159 31.1992 28.8008 31.5574 28.8008 31.9992C28.8008 32.441 29.159 32.7992 29.6008 32.7992Z" fill="#0D4EE3"/>
<path d="M32.8 32.7992C33.2418 32.7992 33.6 32.441 33.6 31.9992C33.6 31.5574 33.2418 31.1992 32.8 31.1992C32.3582 31.1992 32 31.5574 32 31.9992C32 32.441 32.3582 32.7992 32.8 32.7992Z" fill="#0D4EE3"/>
<path d="M35.9992 32.7992C36.441 32.7992 36.7992 32.441 36.7992 31.9992C36.7992 31.5574 36.441 31.1992 35.9992 31.1992C35.5574 31.1992 35.1992 31.5574 35.1992 31.9992C35.1992 32.441 35.5574 32.7992 35.9992 32.7992Z" fill="#0D4EE3"/>
<path d="M24 15.1996C23.5582 15.1996 23.2 15.5578 23.2 15.9996V16.7996H22.4C21.9582 16.7996 21.6 16.4414 21.6 15.9996C21.6 15.5578 21.2418 15.1996 20.8 15.1996C20.3582 15.1996 20 15.5578 20 15.9996C20 17.3251 21.0745 18.3996 22.4 18.3996H23.2V19.1996C23.2 19.6414 23.5582 19.9996 24 19.9996C24.4418 19.9996 24.8 19.6414 24.8 19.1996V18.3996H25.6C26.9255 18.3996 28 17.3251 28 15.9996V14.3996C28 13.0741 26.9255 11.9996 25.6 11.9996H22.4C21.9582 11.9996 21.6 11.6414 21.6 11.1996V9.59961C21.6 9.15778 21.9582 8.79961 22.4 8.79961H23.2V9.59961C23.2 10.0414 23.5582 10.3996 24 10.3996C24.4418 10.3996 24.8 10.0414 24.8 9.59961V8.79961H25.6C26.0418 8.79961 26.4 9.15778 26.4 9.59961C26.4 10.0414 26.7582 10.3996 27.2 10.3996C27.6418 10.3996 28 10.0414 28 9.59961C28 8.27413 26.9255 7.19961 25.6 7.19961H24.8V6.39961C24.8 5.95778 24.4418 5.59961 24 5.59961C23.5582 5.59961 23.2 5.95778 23.2 6.39961V7.19961H22.4C21.0745 7.19961 20 8.27413 20 9.59961V11.1996C20 12.5251 21.0745 13.5996 22.4 13.5996H25.6C25.8122 13.5996 26.0157 13.6839 26.1657 13.8339C26.3157 13.984 26.4 14.1874 26.4 14.3996V15.9996C26.4 16.4414 26.0418 16.7996 25.6 16.7996H24.8V15.9996C24.8 15.5578 24.4418 15.1996 24 15.1996Z" fill="#0D4EE3"/>
</g>
<defs>
<clipPath id="clip0_387_24509">
<rect width="48" height="48" fill="white"/>
</clipPath>
</defs>
</svg>
