<svg width="80" height="81" viewBox="0 0 80 81" fill="none" xmlns="http://www.w3.org/2000/svg">
<path opacity="0.4" d="M73.3337 26.5333V54.4666C73.3337 63.8333 69.0337 70.2665 61.467 72.6999C59.267 73.4665 56.7337 73.8333 53.967 73.8333H26.0337C23.267 73.8333 20.7337 73.4665 18.5337 72.6999C10.967 70.2665 6.66699 63.8333 6.66699 54.4666V26.5333C6.66699 14.4 13.9003 7.16663 26.0337 7.16663H53.967C66.1003 7.16663 73.3337 14.4 73.3337 26.5333Z" fill="#000066"/>
<path d="M61.4666 72.6999C59.2666 73.4665 56.7332 73.8333 53.9666 73.8333H26.0332C23.2665 73.8333 20.7332 73.4665 18.5332 72.6999C19.6999 63.8999 28.8999 57.0665 39.9999 57.0665C51.0999 57.0665 60.2999 63.8999 61.4666 72.6999Z" fill="#000066"/>
<path d="M51.9331 39.1C51.9331 45.7 46.5997 51.0666 39.9997 51.0666C33.3997 51.0666 28.0664 45.7 28.0664 39.1C28.0664 32.5 33.3997 27.1666 39.9997 27.1666C46.5997 27.1666 51.9331 32.5 51.9331 39.1Z" fill="#000066"/>
</svg>
