<svg width="60" height="60" viewBox="0 0 60 60" fill="none" xmlns="http://www.w3.org/2000/svg">
<path opacity="0.4" d="M52.7004 21.4501V38.55C52.7004 41.35 51.2004 43.9501 48.7754 45.3751L33.9254 53.9501C31.5004 55.3501 28.5004 55.3501 26.0504 53.9501L11.2004 45.3751C8.77539 43.9751 7.27539 41.375 7.27539 38.55V21.4501C7.27539 18.6501 8.77539 16.05 11.2004 14.625L26.0504 6.05C28.4754 4.65 31.4754 4.65 33.9254 6.05L48.7754 14.625C51.2004 16.05 52.7004 18.6251 52.7004 21.4501Z" fill="#000066"/>
<path d="M30.0008 30C33.2178 30 35.8258 27.392 35.8258 24.175C35.8258 20.9579 33.2178 18.3501 30.0008 18.3501C26.7837 18.3501 24.1758 20.9579 24.1758 24.175C24.1758 27.392 26.7837 30 30.0008 30Z" fill="#000066"/>
<path d="M36.7009 41.65C38.7259 41.65 39.9009 39.4001 38.7759 37.7251C37.0759 35.2001 33.7759 33.5001 30.0009 33.5001C26.2259 33.5001 22.9259 35.2001 21.2259 37.7251C20.1009 39.4001 21.2759 41.65 23.3009 41.65H36.7009Z" fill="#000066"/>
</svg>
