<svg width="25" height="24" viewBox="0 0 25 24" fill="none" xmlns="http://www.w3.org/2000/svg">
<g clip-path="url(#clip0_387_23696)">
<path d="M19.5 8V7.068C19.4987 5.72429 18.9643 4.43599 18.0142 3.48584C17.064 2.5357 15.7757 2.00132 14.432 2H13.5V0H11.5V2H10.568C9.36532 2.00128 8.20229 2.43023 7.28679 3.21018C6.3713 3.99012 5.76301 5.07022 5.57065 6.25742C5.3783 7.44462 5.61441 8.66154 6.23679 9.69066C6.85917 10.7198 7.82726 11.494 8.968 11.875L11.5 12.72V20H10.568C9.75456 19.9992 8.97466 19.6757 8.39947 19.1005C7.82428 18.5253 7.50079 17.7454 7.5 16.932V16H5.5V16.932C5.50132 18.2757 6.0357 19.564 6.98584 20.5142C7.93599 21.4643 9.22429 21.9987 10.568 22H11.5V24H13.5V22H14.432C15.6347 21.9987 16.7977 21.5698 17.7132 20.7898C18.6287 20.0099 19.237 18.9298 19.4293 17.7426C19.6217 16.5554 19.3856 15.3385 18.7632 14.3093C18.1408 13.2802 17.1727 12.506 16.032 12.125L13.5 11.28V4H14.432C15.2454 4.00079 16.0253 4.32428 16.6005 4.89947C17.1757 5.47466 17.4992 6.25456 17.5 7.068V8H19.5ZM15.4 14.021C16.0913 14.2511 16.6781 14.7196 17.0555 15.3428C17.4328 15.966 17.5761 16.7031 17.4597 17.4223C17.3433 18.1415 16.9747 18.7958 16.42 19.2681C15.8652 19.7403 15.1605 19.9998 14.432 20H13.5V13.387L15.4 14.021ZM11.5 10.613L9.6 9.979C8.90874 9.74893 8.32191 9.28037 7.94453 8.65718C7.56716 8.034 7.42387 7.29685 7.5403 6.57768C7.65674 5.8585 8.0253 5.20422 8.58003 4.73194C9.13476 4.25966 9.83946 4.00021 10.568 4H11.5V10.613Z" fill="white"/>
</g>
<defs>
<clipPath id="clip0_387_23696">
<rect width="24" height="24" fill="white" transform="translate(0.5)"/>
</clipPath>
</defs>
</svg>
