<svg width="64" height="64" viewBox="0 0 64 64" fill="none" xmlns="http://www.w3.org/2000/svg">
<g clip-path="url(#clip0)">
<path d="M63.9047 20.7032C61.1311 12.6549 55.5344 5.86363 48.1459 1.58015C47.7411 1.34572 47.27 1.28516 46.8186 1.40976C46.3669 1.53448 45.9933 1.82874 45.7661 2.23816L44.1606 5.13228C39.9224 2.98068 35.1862 1.84723 30.4033 1.84723C22.2823 1.84723 14.6475 5.00967 8.90489 10.7521C3.16244 16.4946 0 24.1294 0 32.2504C0 40.3715 3.16244 48.0063 8.90489 53.7487C14.6474 59.4912 22.2823 62.6536 30.4033 62.6536C37.2512 62.6536 43.7174 60.4301 49.1032 56.2233C49.5083 55.9068 49.5801 55.3219 49.2638 54.9168C48.9472 54.5116 48.3624 54.4398 47.9572 54.7564C45.8732 56.3842 43.6163 57.6948 41.2333 58.6741L38.051 49.9443C42.011 48.2262 45.2859 45.2173 47.3403 41.4505L55.659 45.5654C54.3899 47.9656 52.7695 50.1959 50.8234 52.1886C50.4643 52.5565 50.4713 53.1457 50.8391 53.5049C51.0201 53.6816 51.2548 53.7697 51.4892 53.7697C51.7311 53.7697 51.9729 53.676 52.1553 53.4892C57.7343 47.7763 60.8068 40.2335 60.8068 32.2503C60.8068 29.4118 60.4142 26.607 59.6417 23.8984L62.7844 22.9177C63.2346 22.7771 63.5999 22.4679 63.8129 22.0467C64.0254 21.6261 64.0582 21.1489 63.9047 20.7032ZM43.2567 6.76141L38.7557 14.875C36.1645 13.6297 33.2967 12.9729 30.4032 12.9729C27.7534 12.9729 25.1731 13.511 22.7956 14.5326L18.8113 6.15205C22.413 4.55085 26.3432 3.70855 30.4032 3.70855C34.871 3.70868 39.2944 4.76195 43.2567 6.76141ZM47.8192 32.2504C47.8192 34.6225 47.3418 36.8849 46.4793 38.9478L40.9819 36.2284C41.449 34.9904 41.7054 33.6498 41.7054 32.2504C41.7054 31.3357 41.5955 30.4463 41.3893 29.594L47.2334 27.7704C47.6203 29.2274 47.8192 30.7298 47.8192 32.2504ZM30.4032 43.5524C31.5036 43.5524 32.5675 43.3937 33.574 43.0991L35.671 48.8513C34.0083 49.3801 32.2387 49.6663 30.4032 49.6663C28.3207 49.6663 26.3226 49.2983 24.4699 48.625L26.9277 43.005C28.0422 43.3651 29.2122 43.5524 30.4032 43.5524ZM30.4032 41.6908C28.536 41.6908 26.7301 41.1455 25.1805 40.1141C24.7525 39.8293 24.1748 39.9453 23.8899 40.3731C23.6051 40.801 23.7212 41.3788 24.1489 41.6637C24.4923 41.8923 24.8462 42.1005 25.209 42.2888L22.7571 47.8953C19.3213 46.2093 16.5191 43.4245 14.8105 40.0015L20.4654 37.6327C20.6451 37.9637 20.8406 38.2875 21.0544 38.6016C21.3436 39.0266 21.9224 39.1366 22.3476 38.8474C22.7725 38.5582 22.8827 37.9792 22.5933 37.5542C21.5265 35.9867 20.9627 34.1527 20.9627 32.2503C20.9627 27.0449 25.1976 22.8099 30.4031 22.8099C35.6085 22.8099 39.8435 27.0449 39.8435 32.2503C39.8435 37.4558 35.6088 41.6908 30.4032 41.6908ZM12.9873 32.2504C12.9873 30.4838 13.2514 28.7493 13.764 27.0934L19.4967 29.2851C19.2395 30.2305 19.1012 31.2246 19.1012 32.2504C19.1012 33.5153 19.3103 34.7549 19.7144 35.929L14.0691 38.2938C13.3702 36.4102 12.9873 34.3742 12.9873 32.2504ZM30.4032 20.9485C28.9285 20.9485 27.519 21.2328 26.2262 21.7488L23.5954 16.2151C25.7252 15.3102 28.0335 14.8346 30.4032 14.8346C32.9816 14.8346 35.5368 15.411 37.8512 16.5054L34.8745 21.8714C33.5025 21.2781 31.9908 20.9485 30.4032 20.9485ZM40.8032 27.8268C39.9109 25.7372 38.4066 23.9689 36.5167 22.7487L41.0191 14.6328C45.0188 17.0429 48.0505 20.6945 49.6753 25.0583L40.8032 27.8268ZM10.2213 12.0685C12.2896 10.0002 14.62 8.29001 17.1368 6.96556L21.123 15.3503C19.7069 16.1298 18.3815 17.0913 17.1803 18.2241C16.8063 18.5768 16.7892 19.1658 17.1417 19.5399C17.3249 19.734 17.5716 19.832 17.819 19.832C18.0481 19.832 18.2777 19.7479 18.4575 19.5783C19.5156 18.5804 20.6806 17.7299 21.9241 17.0353L24.56 22.5794C22.6335 23.7478 21.0826 25.4754 20.1332 27.5353L14.4096 25.3471C14.8415 24.3481 15.3688 23.3864 15.9889 22.4739C16.2778 22.0488 16.1674 21.4698 15.7423 21.1809C15.317 20.8921 14.7382 21.0024 14.4493 21.4275C13.7475 22.4601 13.1542 23.5499 12.6702 24.6821L4.00151 21.3681C5.4178 17.9316 7.5138 14.7759 10.2213 12.0685ZM3.35033 23.1122L12.0232 26.4279C11.4322 28.2957 11.1259 30.2543 11.1259 32.2506C11.1259 34.6293 11.5601 36.9081 12.3514 39.0135L3.78855 42.6003C2.52355 39.3444 1.86157 35.8484 1.86157 32.2504C1.86157 29.0948 2.37177 26.0178 3.35033 23.1122ZM4.52039 44.3122L13.0902 40.7223C14.9876 44.5841 18.1388 47.7227 22.0104 49.6028L18.2901 58.1098C15.3299 56.7209 12.6021 54.8133 10.2213 52.4324C7.82667 50.0378 5.91124 47.2921 4.52039 44.3122ZM39.4887 59.3235C36.5965 60.2929 33.5428 60.7921 30.4032 60.7921C26.7858 60.7921 23.2716 60.1224 20.0007 58.8441L23.7226 50.3338C25.8051 51.1056 28.0556 51.5279 30.4032 51.5279C32.4625 51.5279 34.4469 51.202 36.3089 50.6013L39.4887 59.3235ZM37.412 48.192L35.3116 42.4299C37.3507 41.4426 39.05 39.8604 40.1829 37.9101L45.6697 40.6242C43.8291 43.9664 40.923 46.6424 37.412 48.192ZM58.945 32.2504C58.945 36.3228 58.0915 40.2724 56.4732 43.8915L48.1512 39.7749C49.1355 37.4618 49.6807 34.9187 49.6807 32.2506C49.6807 30.5414 49.4559 28.8519 49.0137 27.215L57.8639 24.4533C58.5808 26.9821 58.945 29.6003 58.945 32.2504ZM51.454 24.5033C49.6831 19.681 46.3412 15.6492 41.9225 13.0044L47.3289 3.25867C54.2334 7.29841 59.472 13.6546 62.1 21.1813L51.454 24.5033Z" fill="url(#paint0_linear)"/>
</g>
<defs>
<linearGradient id="paint0_linear" x1="2.38419e-07" y1="32" x2="64" y2="32" gradientUnits="userSpaceOnUse">
<stop stop-color="#4E2267"/>
<stop offset="1" stop-color="#9441C4"/>
</linearGradient>
<clipPath id="clip0">
<rect width="64" height="64" fill="white"/>
</clipPath>
</defs>
</svg>
