<svg width="47" height="34" viewBox="0 0 47 34" fill="none" xmlns="http://www.w3.org/2000/svg">
<rect width="47" height="34" rx="3" fill="#2A69C6"/>
<path d="M19.6405 22.9849H16.3428L18.4054 10.2312H21.7029L19.6405 22.9849Z" fill="white"/>
<path d="M31.5949 10.543C30.9444 10.2849 29.9128 10 28.6371 10C25.3805 10 23.0872 11.7366 23.0732 14.2194C23.0461 16.0512 24.7151 17.0686 25.9633 17.6794C27.2392 18.3035 27.6729 18.7109 27.6729 19.2672C27.6599 20.1216 26.6419 20.5155 25.6925 20.5155C24.3759 20.5155 23.6704 20.3124 22.5983 19.8371L22.1641 19.6333L21.7026 22.4962C22.4761 22.8486 23.9011 23.1613 25.3805 23.175C28.8407 23.175 31.0934 21.4653 31.1201 18.8195C31.1332 17.3676 30.252 16.2551 28.352 15.3461C27.1986 14.7625 26.4922 14.3691 26.4922 13.772C26.5058 13.2292 27.0897 12.6732 28.3917 12.6732C29.4637 12.646 30.2514 12.9037 30.8481 13.1616L31.1464 13.297L31.5949 10.543Z" fill="white"/>
<path d="M35.9781 18.4667C36.2497 17.7341 37.2947 14.8984 37.2947 14.8984C37.281 14.9256 37.5657 14.1521 37.7286 13.6773L37.959 14.7763C37.959 14.7763 38.5835 17.8291 38.7191 18.4667C38.2037 18.4667 36.6294 18.4667 35.9781 18.4667ZM40.0487 10.2312H37.4979C36.7113 10.2312 36.1137 10.4617 35.7743 11.2894L30.876 22.9848H34.3362C34.3362 22.9848 34.9058 21.4107 35.0283 21.0716C35.4079 21.0716 38.7739 21.0716 39.2623 21.0716C39.3569 21.5194 39.6558 22.9848 39.6558 22.9848H42.7091L40.0487 10.2312Z" fill="white"/>
<path d="M13.5885 10.2312L10.359 18.928L10.0061 17.1642C9.40901 15.129 7.53645 12.9178 5.44678 11.8183L8.40493 22.9714H11.8922L17.0756 10.2312H13.5885Z" fill="white"/>
<path d="M7.35998 10.2312H2.05428L2 10.4889C6.13878 11.5473 8.87981 14.0984 10.006 17.1648L8.85258 11.3033C8.66269 10.4887 8.07914 10.2581 7.35998 10.2312Z" fill="#FAA61A"/>
</svg>
