<svg width="44" height="32" viewBox="0 0 44 32" fill="none" xmlns="http://www.w3.org/2000/svg">
<rect x="0.75" y="0.75" width="42.5" height="30.5" rx="5.25" fill="white"/>
<rect x="0.75" y="0.75" width="42.5" height="30.5" rx="5.25" stroke="#E8E8E8" stroke-width="1.5"/>
<path fill-rule="evenodd" clip-rule="evenodd" d="M13.7118 21.1463H11.0849L9.11499 13.0585C9.02149 12.6864 8.82297 12.3575 8.53095 12.2025C7.80217 11.8129 6.99911 11.5029 6.12305 11.3465V11.0352H10.3548C10.9388 11.0352 11.3769 11.5029 11.4499 12.0461L12.472 17.8802L15.0976 11.0352H17.6515L13.7118 21.1463ZM19.1126 21.1463H16.6317L18.6746 11.0352H21.1555L19.1126 21.1463ZM24.3633 13.8351C24.4363 13.2905 24.8744 12.9791 25.3854 12.9791C26.1885 12.9009 27.0632 13.0573 27.7933 13.4455L28.2313 11.2685C27.5013 10.9571 26.6982 10.8008 25.9694 10.8008C23.5615 10.8008 21.8094 12.2013 21.8094 14.1451C21.8094 15.6238 23.0505 16.4003 23.9266 16.868C24.8744 17.3344 25.2394 17.6458 25.1664 18.1122C25.1664 18.8118 24.4363 19.1232 23.7076 19.1232C22.8315 19.1232 21.9554 18.89 21.1536 18.5004L20.7156 20.6787C21.5917 21.0669 22.5395 21.2233 23.4155 21.2233C26.1154 21.3001 27.7933 19.9009 27.7933 17.8008C27.7933 15.1561 24.3633 15.0011 24.3633 13.8351ZM36.4769 21.1463L34.507 11.0352H32.3912C31.9531 11.0352 31.5151 11.3465 31.3691 11.8129L27.7214 21.1463H30.2753L30.7851 19.6689H33.923L34.215 21.1463H36.4769ZM32.7551 13.7578L33.4839 17.5685H31.441L32.7551 13.7578Z" fill="#172B85"/>
</svg>
