<svg width="148" height="18" viewBox="0 0 148 18" fill="none" xmlns="http://www.w3.org/2000/svg">
<path d="M4.68667 0.297114L8.436 12.4292H8.48533L12.432 0.297114H17.0447L12.358 15.1527C11.766 17.0591 11.3467 17.4058 9.59533 17.4058H7.12867C5.64867 17.4058 5.13067 16.9353 4.53867 15.0041L0 0.297114H4.68667Z" fill="#3E3A39"/>
<path d="M29.6493 9.23521C29.6493 12.8005 28.4407 14.3109 25.5793 14.3109C24.3707 14.3109 23.458 14.0137 22.8907 13.4443C22.0027 12.553 21.5833 11.1912 21.5833 9.11141C21.5833 7.05639 21.9533 5.64512 22.718 4.70426C23.2607 4.03576 24.198 3.68913 25.5547 3.68913C27.0347 3.68913 27.8733 3.98624 28.4653 4.6795C28.8847 5.17469 29.2053 5.79367 29.3533 6.48693C29.5507 7.37827 29.6493 8.34387 29.6493 9.23521ZM34.3113 8.91334C34.3113 5.81843 33.596 3.73865 31.9433 2.07978C30.4387 0.569462 28.712 0 25.5053 0C22.4713 0 20.3993 0.693261 19.092 2.1293C17.6613 3.71389 16.9213 6.1403 16.9213 9.33425C16.9213 12.4044 17.6613 14.5089 19.2893 16.0688C20.6707 17.4058 22.57 18 25.4067 18C28.5147 18 30.6113 17.3067 32.0913 15.8212C33.5713 14.3356 34.3113 12.0825 34.3113 8.91334Z" fill="#3E3A39"/>
<path d="M41.9087 0.297114L46.768 8.19532H46.8173V0.297114H51.43V17.4058H48.2727C46.7927 17.4058 46.3733 17.1334 45.288 15.3508L40.7493 7.97249H40.7247V17.4058H36.112V0.297114H41.9087Z" fill="#3E3A39"/>
<path d="M63.5167 13.7166V3.98625H65.3667C66.5013 3.98625 66.7973 4.011 67.2167 4.15956C68.1293 4.48143 68.7707 5.32325 69.0667 6.56121C69.19 7.08115 69.264 7.89821 69.264 8.74002C69.264 10.8941 68.894 12.2063 68.0307 12.9986C67.4387 13.5433 66.8467 13.7166 65.49 13.7166H63.5167ZM58.904 17.4058H65.4407C67.9567 17.4058 70.152 16.7125 71.632 15.4498C73.0873 14.2118 73.8273 11.934 73.8273 8.69051C73.8273 7.55158 73.704 6.43741 73.482 5.5956C72.816 2.97112 71.3853 1.4608 68.82 0.718018C67.858 0.445666 66.8467 0.297114 65.9587 0.297114H58.904V17.4058Z" fill="#3E3A39"/>
<path d="M79.92 0.297114V11.6616C79.92 12.5777 80.068 13.0729 80.512 13.5186C80.956 13.9642 81.548 14.1623 82.5593 14.1623C83.8667 14.1623 84.5327 13.989 84.9767 13.5186C85.3713 13.0977 85.5687 12.4539 85.5687 11.5873V0.297114H90.206V10.8941C90.206 13.1472 89.7867 14.7813 88.948 15.7964C87.8133 17.1829 85.7167 17.8514 82.7073 17.8514C79.846 17.8514 77.8233 17.2572 76.7133 16.044C75.8993 15.1774 75.406 13.8404 75.332 12.2311C75.3073 11.8597 75.3073 11.3893 75.3073 10.8693V0.297114H79.92Z" fill="#3E3A39"/>
<path d="M96.644 8.24484V3.98625H100.27C101.651 3.98625 102.021 4.40715 102.021 6.0165C102.021 6.95736 101.849 7.62586 101.528 7.94773C101.306 8.17056 100.985 8.24484 100.245 8.24484H96.644ZM96.644 17.4058V11.934H100.763C101.207 11.934 101.577 11.934 101.873 11.9092C102.909 11.8845 103.847 11.6616 104.562 11.216C106.042 10.3741 106.683 8.81431 106.683 6.11555C106.683 4.03577 106.338 2.72352 105.499 1.80742C104.636 0.817053 103.181 0.297114 101.355 0.297114H92.0067V17.4058H96.644Z" fill="#3E3A39"/>
<path d="M112.776 7.15543V3.96148H116.723C117.759 3.96148 118.203 4.43191 118.203 5.52132C118.203 6.73452 117.808 7.13067 116.698 7.13067H112.776V7.15543ZM108.163 17.4058H112.776V10.8693H114.675C115.983 10.8693 116.575 11.0426 117.191 11.5626C117.783 12.0825 118.178 13.0481 118.178 14.0138V17.4058H122.815V13.0481C122.815 12.652 122.791 12.3549 122.791 12.132C122.766 11.6121 122.667 11.0922 122.445 10.5722C122.174 9.87896 121.829 9.50757 121.064 9.0619C121.607 8.64099 121.829 8.3934 122.1 7.94773C122.569 7.20495 122.791 6.21458 122.791 5.14993C122.791 2.0055 120.916 0.297114 117.463 0.297114H108.163V17.4058Z" fill="#3E3A39"/>
<path d="M129.87 0.297114H125.257V17.4058H129.87V0.297114Z" fill="#3E3A39"/>
<path d="M138.454 0.297114L143.338 8.19532H143.363V0.297114H148V17.4058H144.843C143.363 17.4058 142.943 17.1334 141.858 15.3508L137.319 7.97249H137.295V17.4058H132.682V0.297114H138.454Z" fill="#3E3A39"/>
</svg>
