<svg width="32" height="32" viewBox="0 0 32 32" fill="none" xmlns="http://www.w3.org/2000/svg">
<path d="M6.66732 20C3.72065 20 1.33398 22.3867 1.33398 25.3333C1.33398 26.3333 1.61399 27.28 2.10732 28.08C3.02732 29.6267 4.72065 30.6667 6.66732 30.6667C8.61398 30.6667 10.3073 29.6267 11.2273 28.08C11.7206 27.28 12.0007 26.3333 12.0007 25.3333C12.0007 22.3867 9.61399 20 6.66732 20ZM9.29399 24.8933L6.45398 27.52C6.26732 27.6934 6.01399 27.7867 5.77399 27.7867C5.52065 27.7867 5.26732 27.6933 5.06732 27.4933L3.74732 26.1733C3.36065 25.7867 3.36065 25.1467 3.74732 24.76C4.13399 24.3733 4.77398 24.3733 5.16065 24.76L5.80065 25.4L7.93399 23.4267C8.33399 23.0533 8.97398 23.08 9.34732 23.48C9.72065 23.88 9.69399 24.52 9.29399 24.8933Z" fill="#3939A3"/>
<path d="M23.6672 9.39992C23.3472 9.34658 23.0139 9.33327 22.6672 9.33327H9.33391C8.96057 9.33327 8.60057 9.35993 8.25391 9.41326C8.44057 9.03993 8.70724 8.69331 9.02724 8.37331L13.3606 4.02663C15.1872 2.21329 18.1472 2.21329 19.9739 4.02663L22.3072 6.38657C23.1606 7.22657 23.6139 8.29325 23.6672 9.39992Z" fill="#3939A3"/>
<path opacity="0.4" d="M29.3327 16V22.6667C29.3327 26.6667 26.666 29.3334 22.666 29.3334H10.1727C10.586 28.9867 10.946 28.56 11.226 28.08C11.7193 27.28 11.9993 26.3334 11.9993 25.3334C11.9993 22.3867 9.61268 20 6.66602 20C5.06602 20 3.63935 20.7067 2.66602 21.8134V16C2.66602 12.3734 4.85268 9.84004 8.25268 9.41337C8.59935 9.36004 8.95935 9.33337 9.33268 9.33337H22.666C23.0127 9.33337 23.346 9.34669 23.666 9.40002C27.106 9.80002 29.3327 12.3467 29.3327 16Z" fill="#3939A3"/>
<path d="M29.3327 16.6666H25.3327C23.866 16.6666 22.666 17.8666 22.666 19.3333C22.666 20.8 23.866 22 25.3327 22H29.3327" fill="#3939A3"/>
</svg>
