<svg width="37" height="36" viewBox="0 0 37 36" fill="none" xmlns="http://www.w3.org/2000/svg">
<path opacity="0.4" d="M32.1203 12.8701V23.13C32.1203 24.81 31.2203 26.3701 29.7653 27.2251L20.8553 32.3701C19.4003 33.2101 17.6002 33.2101 16.1302 32.3701L7.22025 27.2251C5.76525 26.3851 4.86523 24.825 4.86523 23.13V12.8701C4.86523 11.1901 5.76525 9.62999 7.22025 8.77499L16.1302 3.63C17.5852 2.79 19.3853 2.79 20.8553 3.63L29.7653 8.77499C31.2203 9.62999 32.1203 11.1751 32.1203 12.8701Z" fill="#A20101"/>
<path d="M18.5 20.625C17.885 20.625 17.375 20.115 17.375 19.5V11.625C17.375 11.01 17.885 10.5 18.5 10.5C19.115 10.5 19.625 11.01 19.625 11.625V19.5C19.625 20.115 19.115 20.625 18.5 20.625Z" fill="#A20101"/>
<path d="M18.5 25.875C18.305 25.875 18.11 25.83 17.93 25.755C17.735 25.68 17.585 25.5751 17.435 25.4401C17.3 25.2901 17.195 25.125 17.105 24.945C17.03 24.765 17 24.57 17 24.375C17 23.985 17.15 23.595 17.435 23.31C17.585 23.175 17.735 23.0701 17.93 22.9951C18.485 22.7551 19.145 22.89 19.565 23.31C19.7 23.46 19.805 23.61 19.88 23.805C19.955 23.985 20 24.18 20 24.375C20 24.57 19.955 24.765 19.88 24.945C19.805 25.125 19.7 25.2901 19.565 25.4401C19.28 25.7251 18.905 25.875 18.5 25.875Z" fill="#101010"/>
</svg>
