<svg width="225" height="166" viewBox="0 0 225 166" fill="none" xmlns="http://www.w3.org/2000/svg">
<g clip-path="url(#clip0)">
<g filter="url(#filter0_d)">
<path fill-rule="evenodd" clip-rule="evenodd" d="M91.7709 2.80554C105.835 2.53423 115.343 16.0343 127.619 22.8286C142.228 30.914 162.777 31.6341 170.452 46.352C178.246 61.2986 172.942 80.2373 165.421 95.3207C158.51 109.182 145.493 119.166 131.124 125.233C118.75 130.457 105.219 126.065 91.7709 126.417C77.7993 126.782 62.7733 134.59 50.878 127.33C38.8777 120.006 36.5617 104.036 32.9876 90.5415C29.6171 77.8156 26.4811 64.4835 30.9509 52.0936C35.3546 39.8869 46.7893 32.4054 56.9238 24.1924C67.7636 15.408 77.7615 3.0758 91.7709 2.80554Z" fill="#F7EDFF"/>
</g>
<path d="M201.456 137.294C199.639 139.09 197.342 140.084 194.904 140.746C193.99 140.995 193.052 140.962 192.126 140.866C189.291 140.57 186.581 139.756 183.919 138.793C180.034 137.386 176.305 135.63 172.596 133.802C168.182 131.629 164.153 128.874 160.163 126.036C156.391 123.349 152.895 120.318 149.431 117.255C144.792 113.158 140.181 109.024 135.731 104.722C130.466 99.6303 125.302 94.4342 120.134 89.2461C114.826 83.9137 109.582 78.5172 104.269 73.1848C101.054 69.9533 97.7302 66.83 94.5829 63.5223C91.7603 60.5554 88.9417 57.5885 86.1593 54.5855C84.8242 53.1462 83.5011 51.6948 82.2101 50.2153C78.8142 46.3343 75.4143 42.4533 72.0585 38.5402C69.1958 35.2044 66.5336 31.7123 64.2964 27.9114C62.837 25.4297 61.562 22.8838 61.133 19.989C61.0488 19.4197 60.9486 18.8544 60.8484 18.2891C59.4251 18.7702 58.4348 19.9249 58.984 22.2222C59.3769 23.854 59.9503 25.4176 60.8083 26.853C62.4321 29.5673 64.0358 32.2977 65.8079 34.9117C69.5767 40.4647 74.1072 45.4041 78.6297 50.3396C82.1179 54.1445 85.7543 57.817 89.1101 61.7341C94.7232 68.2894 100.629 74.56 106.719 80.6662C116.193 90.1723 125.631 99.7105 135.129 109.185C141.853 115.892 148.893 122.251 156.311 128.189C163.756 134.147 171.77 139.17 180.559 142.939C184.199 144.499 187.956 145.333 191.909 145.297C192.374 145.297 192.844 145.297 193.309 145.297C197.23 145.289 200.397 143.705 202.859 140.682C203.364 140.064 203.873 139.439 204.29 138.765C206.235 135.606 206.892 132.258 205.746 128.634C204.936 126.072 203.745 123.718 202.273 121.517C203.123 123.498 203.789 125.539 204.302 127.639C205.236 131.436 204.162 134.62 201.456 137.294Z" fill="#F7EDFF"/>
<path d="M42.0207 133.702C38.1597 129.123 35.1206 124.019 32.6429 118.562C29.6118 111.887 28.1444 104.871 27.9038 97.5817C27.7635 93.3919 27.7475 89.1982 28.2446 85.0204C28.5654 82.3422 29.0184 79.6921 29.7 77.078C30.6101 73.5979 31.7528 70.19 33.0678 66.8422C34.3107 63.6788 35.6819 60.5756 37.5423 57.7129C40.6134 52.9859 44.4744 48.9646 48.7162 45.288C49.061 44.9873 49.4379 44.7067 49.7827 44.3218C48.628 44.6265 47.4854 45.0475 46.3628 45.5847C40.8981 48.2028 36.4838 52.0638 33.2683 57.2398C31.4521 60.1626 29.9446 63.2338 28.7257 66.4492C25.5744 74.7726 24.2473 83.4087 24.2834 92.2773C24.2834 92.975 24.2674 93.6766 24.2874 94.3742C24.544 103.78 26.248 112.893 29.8965 121.602C32.3341 127.419 35.5175 132.776 39.8717 137.382C42.7584 140.433 46.0059 143.011 49.8589 144.743C52.8699 146.095 55.8448 146.808 58.7877 146.9C57.0677 146.199 55.3958 145.385 53.8281 144.371C49.3176 141.452 45.4607 137.783 42.0207 133.702Z" fill="#F7EDFF"/>
<path d="M22.9199 108.587C23.3369 110.884 23.8862 113.15 24.5878 115.387C25.0248 116.774 25.5059 118.145 26.0312 119.492C25.6382 118.422 25.2654 117.339 24.9206 116.241C24.1187 113.711 23.4532 111.157 22.9199 108.587Z" fill="#F7EDFF"/>
<path d="M35.522 136.455C35.6023 136.564 35.6867 136.672 35.775 136.769C35.6827 136.656 35.5943 136.54 35.502 136.427C35.51 136.435 35.514 136.447 35.522 136.455Z" fill="#F7EDFF"/>
<path d="M190.732 42.0117C190.94 42.0598 191.293 41.8553 191.446 41.6588C191.618 41.4383 191.642 41.1056 191.714 40.8129C192.075 39.4056 192.709 38.1386 193.655 37.0241C193.967 36.6552 194.308 36.3665 194.817 36.3344C195.876 36.2703 196.95 36.0498 197.993 36.154C201.401 36.4948 203.798 38.279 205.065 41.4985C205.667 43.026 205.667 44.6177 205.534 46.2255C205.382 48.0497 205.25 49.874 205.178 50.7921C205.009 55.7316 205.963 58.1773 207.463 61.934C207.82 62.8281 208.601 62.8562 209.111 62.0423C209.303 61.7336 209.435 61.3887 209.592 61.056C210.301 59.5525 211.003 58.045 211.717 56.5415C212.058 55.8198 212.462 55.1262 212.763 54.3885C214.022 51.2732 214.547 48.0577 213.934 44.7139C213.1 40.1513 210.734 36.5991 206.886 34.0171C205.049 32.7862 203.177 31.6475 200.956 31.2707C197.287 30.6492 194.998 31.3629 192.608 34.8751C192.532 34.9833 192.472 35.1036 192.4 35.2158C191.313 36.9679 190.74 38.9084 190.279 40.8931C190.243 41.0534 190.175 41.2539 190.235 41.3822C190.355 41.6268 190.523 41.9635 190.732 42.0117ZM198.161 32.3813C199.821 32.2489 201.413 32.5336 202.932 33.2032C205.402 34.2897 207.619 35.7932 209.391 37.8139C212.23 41.0534 213.369 44.9024 212.952 49.1924C212.719 51.5779 211.949 53.7951 210.819 55.9C210.017 57.3914 209.279 58.919 208.437 60.5708C208.293 60.2341 208.177 59.9895 208.08 59.7369C206.589 55.8799 206.44 51.8906 206.914 47.8372C207.106 46.1814 207.21 44.5135 206.898 42.8616C205.923 37.7137 201.481 34.5543 196.285 35.296C196.189 35.3081 196.088 35.3081 195.992 35.3161C197.083 34.5663 198.29 34.3338 199.585 34.438C202.223 34.6465 204.428 35.8012 206.348 37.5493C207.892 38.9525 208.614 40.8008 209.043 42.7895C209.231 43.6675 209.399 44.5496 209.604 45.4236C209.668 45.6922 209.812 45.9408 209.925 46.2174C210.414 46.0611 210.418 45.7524 210.398 45.4597C210.249 43.2185 209.917 41.0053 208.834 39.0087C207.158 35.9175 204.464 34.1373 201.08 33.4157C199.059 32.9867 197.933 32.8584 194.99 34.2015C195.671 33.131 196.77 32.4935 198.161 32.3813Z" fill="#333333"/>
<path d="M88.1223 36.1088C92.3321 39.3122 96.59 42.4636 100.832 45.6269C102.672 46.9981 104.589 48.2811 106.377 49.7164C113.962 55.7946 121.516 61.9128 129.078 68.0271C132.261 70.601 135.428 73.1991 138.616 75.7691C139.025 76.0978 139.494 76.3665 139.971 76.599C140.135 76.6792 140.484 76.6391 140.588 76.5148C140.685 76.3985 140.628 76.0738 140.532 75.8974C140.408 75.6728 140.191 75.4924 139.991 75.316C133.845 69.8513 127.751 64.3305 121.304 59.2105C115.334 54.4675 109.472 49.5881 103.221 45.21C98.7791 42.0947 94.3328 38.9835 89.9546 35.78C84.8467 32.0433 79.7067 28.3668 74.3623 24.9789C74.1779 24.8626 73.9854 24.7544 73.797 24.6421C73.7449 24.7102 73.6927 24.7824 73.6406 24.8506C74.0656 25.2074 74.4786 25.5803 74.9196 25.9211C79.3178 29.317 83.7 32.7409 88.1223 36.1088Z" fill="#333333"/>
<path d="M223.364 94.9627C223.019 95.0589 222.694 95.2113 222.221 95.3917C222.221 94.9146 222.249 94.5577 222.213 94.2089C222.169 93.7479 222.133 93.2748 221.993 92.8418C221.684 91.8835 221.002 91.6309 220.12 92.1081C219.84 92.2604 219.571 92.4368 219.234 92.6413C219.158 92.4128 219.11 92.2644 219.062 92.1161C218.705 91.0295 217.871 90.6206 216.793 90.9975C215.73 91.3703 214.876 92.509 214.796 93.6356C214.76 94.1648 214.708 94.6941 214.632 95.2193C214.331 97.3563 214.183 99.4692 215.498 101.325C215.449 101.446 215.433 101.518 215.397 101.57C215.233 101.779 215.065 101.983 214.892 102.188C212.41 105.138 209.331 107.319 205.943 109.096C204.38 109.913 202.816 110.735 201.465 111.886C200.807 112.443 200.162 113.033 199.613 113.69C199.452 113.887 199.316 114.091 199.208 114.3C196.91 111.766 194.449 109.388 191.819 107.187C191.851 107.151 191.883 107.115 191.915 107.079C189.942 104.22 187.97 101.358 185.997 98.4989C186.133 98.4107 186.181 98.3626 186.242 98.3426C189.842 97.0315 192.28 94.4295 194.124 91.1939C194.36 90.777 194.497 90.2598 194.541 89.7786C194.609 89.0289 194.413 88.8164 193.671 88.7362C193.009 88.664 192.34 88.6159 191.678 88.652C189.096 88.7843 185.973 90.4281 185.063 93.7158C184.93 94.1969 184.826 94.686 184.718 95.1712C184.674 95.3676 184.646 95.5681 184.61 95.7686C182.802 92.1081 181.891 88.2952 181.659 84.2217C182.204 84.4182 182.597 84.6186 183.01 84.7028C185.047 85.1158 187.12 85.3363 189.156 84.8632C191.69 84.2778 193.964 83.2314 194.99 80.5532C195.046 80.4048 195.182 80.2846 195.271 80.1442C195.579 79.6551 195.567 79.3664 195.102 79.0417C194.725 78.777 194.296 78.5686 193.867 78.4002C191.486 77.462 189.008 77.3377 186.498 77.6224C184.798 77.8148 183.415 78.6126 182.308 79.9077C182.124 80.1242 181.927 80.3327 181.739 80.5452C181.839 77.3217 182.609 74.2986 183.716 71.5081C185.135 71.5282 186.434 71.6605 187.709 71.5442C191.682 71.1874 194.621 69.1707 196.598 65.7307C196.858 65.2776 197.071 64.7885 197.007 64.2633C195.784 63.5095 194.397 63.301 192.717 63.6659C190.147 64.2232 187.777 65.2415 185.805 67.0457C185.748 67.0979 185.652 67.1099 185.48 67.174C185.732 66.4363 185.977 65.7868 186.173 65.1253C186.39 64.3956 186.707 63.7942 187.508 63.5336C187.841 63.4253 188.154 63.1727 188.411 62.9202C190.88 60.5105 192.143 57.6158 191.839 54.1277C191.77 53.3539 191.494 52.6402 190.888 52.091C190.56 51.7943 190.187 51.6419 189.794 51.8464C189.241 52.1351 188.655 52.4197 188.21 52.8407C185.776 55.1541 184.842 58.0408 185.115 61.3485C185.195 62.2987 185.556 63.273 185.404 64.1751C185.247 65.1253 184.63 65.9993 184.225 66.9094C183.88 67.6912 183.551 68.4811 183.142 69.4473C182.95 68.9782 182.822 68.6815 182.709 68.3849C182.248 67.1821 181.595 66.0915 180.62 65.2616C179.173 64.0267 177.593 62.9723 175.781 62.3268C174.574 61.8978 173.941 62.2706 173.724 63.5095C173.043 67.4306 175.324 71.6845 178.993 73.2241C179.586 73.4727 180.272 73.5088 180.921 73.621C181.13 73.6571 181.35 73.6251 181.619 73.6251C180.777 76.612 180.264 79.5749 180.28 82.5859C180.155 82.6059 180.111 82.63 180.099 82.618C179.959 82.4776 179.811 82.3413 179.686 82.189C178.852 81.1465 177.79 80.4249 176.547 79.9678C175.861 79.7152 175.18 79.4386 174.474 79.2461C173.48 78.9735 172.473 78.7369 171.463 78.5565C170.637 78.4082 170.509 78.6006 170.701 79.3905C170.902 80.2204 171.279 80.9541 171.848 81.5796C172.566 82.3654 173.279 83.1632 174.053 83.8889C175.982 85.7011 178.042 87.3049 180.797 87.6256C181.029 88.7643 181.254 89.8588 181.519 91.1418C179.606 90.0272 177.73 89.7185 175.661 90.2998C175.501 91.4946 176.042 92.4889 176.8 93.3269C178.608 95.3275 180.657 96.9232 183.559 96.7468C184.273 97.8494 184.91 98.9841 185.692 100.014C187.228 102.043 188.832 104.024 190.419 106.016C183.271 100.083 176.058 94.221 168.909 88.2872C162.655 83.0951 156.099 78.2919 149.604 73.4126C145.395 70.2492 141.161 67.1179 136.927 63.9906C137.38 63.0284 137.889 62.5914 139.304 61.5169C141.902 59.5403 144.797 58.1571 147.896 57.1628C152.752 55.6031 157.459 53.6786 161.921 51.1969C167.494 48.0937 172.032 43.8678 175.517 38.5234C177.1 36.0937 178.143 33.4476 178.451 30.5368C178.471 30.3363 178.528 30.1399 178.6 29.7831C178.82 30.188 178.925 30.4326 179.073 30.6451C179.638 31.463 180.143 32.337 180.809 33.0627C181.539 33.8605 182.545 33.9006 183.351 33.3514C184.097 32.8422 184.365 32.0483 183.948 31.05C183.631 30.2963 183.13 29.6187 182.685 28.9211C182.497 28.6284 182.244 28.3838 181.871 27.9388C182.272 28.019 182.429 28.047 182.585 28.0791C183.435 28.2355 184.277 28.452 185.135 28.5321C186.225 28.6324 187.26 28.3597 188.122 27.6461C189.052 26.8763 189.12 25.8018 188.274 24.9478C187.954 24.6271 187.553 24.3424 187.132 24.166C185.291 23.3882 183.375 23.0153 181.382 23.32C180.805 23.4082 180.416 23.312 179.959 22.9271C178.387 21.608 176.162 22.1653 175.46 23.5967C175.404 23.7129 175.304 23.8132 175.296 23.8252C174.655 23.9415 174.073 23.9615 173.564 24.158C172.049 24.7433 170.894 25.7938 170.156 27.2331C169.891 27.7463 169.747 28.3758 169.747 28.9531C169.747 30.3043 170.822 31.066 172.129 30.7212C172.433 30.6411 172.726 30.5168 173.155 30.3684C173.055 30.6932 172.987 30.8696 172.951 31.054C172.842 31.5712 172.666 32.0884 172.658 32.6096C172.642 33.7042 173.44 34.1612 174.414 33.6521C174.703 33.4997 174.999 33.3032 175.208 33.0587C175.769 32.4052 176.286 31.7115 176.82 31.034C176.948 30.8736 177.068 30.7092 177.197 30.5488C177.281 30.9337 177.257 31.2625 177.201 31.5832C176.643 34.7105 175.164 37.4168 173.243 39.8826C170.06 43.9721 166.259 47.376 161.737 49.9379C157.699 52.2233 153.453 54.0435 149.075 55.551C146.561 56.417 144.031 57.2349 141.698 58.554C140.154 59.428 138.535 60.1778 137.107 61.5971C137.195 61.2643 137.211 61.136 137.264 61.0197C138.707 57.696 140.05 54.3201 141.622 51.0565C143.819 46.4939 146.321 42.0877 149.576 38.1706C151.894 35.3801 154.311 32.6738 156.697 29.9394C157.134 29.4383 157.659 29.0093 158.068 28.4921C158.244 28.2715 158.345 27.8706 158.276 27.602C158.18 27.2371 157.787 27.2011 157.439 27.2852C155.434 27.7583 153.373 28.0751 151.433 28.7486C145.463 30.8215 140.571 34.3697 137.268 39.8505C133.743 45.6961 132.488 52.0669 133.242 58.8306C133.346 59.7568 133.515 60.6749 133.695 61.5931C130.556 59.2757 127.421 56.9503 124.293 54.6168C124.257 54.5326 124.225 54.4444 124.181 54.3683C123.127 52.3315 122.076 50.2908 121.018 48.258C120.513 47.2838 119.983 46.3215 119.478 45.3473C118.324 43.1141 118.127 40.7005 118.239 38.2548C118.356 35.6968 118.612 33.1429 118.773 30.5889C119.029 26.5596 119.025 22.5382 118.356 18.5409C118.003 16.432 117.514 14.3592 116.559 12.4347C116.134 11.5767 115.601 10.7628 115.028 9.99703C114.651 9.49586 114.098 9.07087 113.384 9.34351C112.735 9.59209 112.59 10.2055 112.55 10.8189C112.514 11.4484 112.482 12.0899 112.542 12.7154C112.899 16.424 113.172 20.1486 113.681 23.8372C114.398 29.0093 115.3 34.1572 116.122 39.3172C116.138 39.4135 116.11 39.5177 116.082 39.8264C115.778 39.3253 115.581 39.0246 115.401 38.7118C113.412 35.3119 111.243 32.0122 108.449 29.2298C106.492 27.2812 105.065 25.0721 103.946 22.6064C103.81 22.3017 103.645 22.013 103.501 21.7123C100.189 14.9686 95.3862 9.39964 89.8413 4.42406C88.1774 2.93259 86.3572 1.62154 84.2924 0.735481C83.4504 0.374641 82.5282 0.0859709 81.6221 0.00979366C80.0104 -0.122514 79.2125 1.10434 79.9302 2.56373C80.275 3.26537 80.7762 3.93492 81.3455 4.47217C82.841 5.89148 84.3485 7.31479 85.9602 8.59376C91.1162 12.6833 95.6989 17.3702 100.225 22.1172C100.27 22.1653 100.29 22.2335 100.414 22.458C100.105 22.3217 99.9889 22.2736 99.8726 22.2215C97.5392 21.171 95.2458 20.0163 92.8643 19.0902C87.7644 17.1096 82.8129 14.8563 78.1501 11.9736C76.7949 11.1357 75.3676 10.402 73.9282 9.72038C73.1584 9.35955 72.3004 9.09894 71.4585 8.99469C69.6864 8.7822 68.8484 9.96094 69.53 11.6288C69.7305 12.114 70.0031 12.5911 70.3319 13C70.7649 13.5413 71.254 14.0545 71.7752 14.5115C73.2667 15.8226 74.9827 16.7808 76.7949 17.5506C81.2453 19.439 85.8359 20.9024 90.5469 21.9769C92.6879 22.466 94.8569 22.8269 96.9738 23.4042C100.943 24.4827 104.363 26.4673 107.121 29.6107C110.08 32.9825 112.61 36.627 114.783 40.5441C116.88 44.3289 119.017 48.0896 121.182 51.8344C121.347 52.119 121.523 52.3997 121.703 52.6803C121.675 52.6603 121.647 52.6402 121.619 52.6162C110.004 43.9039 98.329 35.2758 86.3291 27.0968C81.2854 23.6608 76.0853 20.4975 70.5163 17.9716C68.3833 17.0053 66.1862 16.2355 63.8728 15.8627C63.095 15.7384 62.2691 15.7103 61.4953 15.8226C59.1819 16.1594 56.9888 18.4286 56.8685 20.5616C56.7282 23.0394 57.1572 25.4209 58.372 27.598C59.3142 29.2819 60.3085 30.9418 61.379 32.5455C64.386 37.068 67.6416 41.4021 71.0375 45.6199C65.7813 42.1117 59.9958 40.4278 53.5528 40.921C48.9381 41.2738 44.8245 42.7773 41.14 45.5958C34.7731 50.4632 30.1143 56.6255 26.9269 63.9425C26.8748 64.0628 26.8267 64.1831 26.7785 64.2994C27.0031 63.1567 27.2837 62.0261 27.6325 60.8994C28.683 57.4995 29.6853 54.0836 30.6435 50.6596C31.6779 46.951 31.8022 43.1782 31.2369 39.3774C30.5233 34.5702 28.6028 30.2602 25.8243 26.311C25.6399 26.0464 25.3873 25.7978 25.1147 25.6294C24.7699 25.4209 24.4251 25.6374 24.4251 26.0424C24.4251 26.299 24.4972 26.5676 24.5895 26.8121C24.826 27.4336 25.0786 28.051 25.3512 28.6564C28.2139 35.0353 28.9436 41.6747 27.9493 48.5708C27.3479 52.7324 26.4618 56.818 25.3512 60.8634C24.6175 63.5296 23.968 66.2158 24.0803 69.0183C24.0843 69.0785 23.9881 69.1466 23.8157 69.3752C23.3265 67.8757 22.8213 66.5446 22.4645 65.1694C21.9954 63.3692 21.6827 61.5249 21.2336 59.7167C20.504 56.7698 19.5457 53.8952 18.0783 51.2249C16.6309 48.5988 14.5621 46.6503 11.6955 45.6239C11.4549 45.5397 11.2264 45.4154 10.9658 45.2951C11.7275 43.8518 11.487 42.5087 10.7292 41.2457C9.54245 39.2611 7.66608 38.2628 5.47699 37.7656C5.31662 37.7295 5.14422 37.7376 4.97983 37.7496C4.28622 37.8057 3.90132 38.2067 3.86524 38.9083C3.85321 39.197 3.86123 39.4816 3.86123 39.7703C1.78039 39.7102 1.53181 39.9026 1.43158 41.6026C0.296939 42.4165 0.144584 43.6714 1.17097 44.6256C1.66813 45.0867 2.31764 45.4315 2.95913 45.668C3.79708 45.9767 4.68715 46.1451 5.5652 46.3416C6.9444 46.6543 8.3196 46.8267 9.68678 46.2413C9.85117 46.1692 10.0917 46.1572 10.2561 46.2213C12.1124 46.9069 13.8685 47.7408 15.2076 49.2844C16.3583 50.6115 17.1842 52.115 17.8538 53.7228C19.1368 56.8099 19.9948 60.0134 20.6723 63.281C21.3299 66.4363 22.1357 69.5355 23.972 72.2739C22.1558 78.761 21.3419 85.4526 21.2898 92.3286C19.3934 88.1629 17.108 84.1976 14.6944 80.3006C13.3232 78.0874 11.6955 76.0627 9.83112 74.2425C9.26581 73.6892 8.62431 73.2001 7.97079 72.747C7.35335 72.322 6.61965 72.0133 5.91802 72.4583C5.16025 72.9395 5.18431 73.7814 5.36473 74.5352C5.64137 75.6939 5.93004 76.8686 6.37909 77.9712C8.15522 82.3493 10.5728 86.3547 13.6239 89.9671C14.6744 91.214 15.7729 92.4208 16.8434 93.6516C16.9998 93.8321 17.1281 94.0365 17.2724 94.233C16.8835 94.1969 16.5949 94.0566 16.3222 93.8962C14.7185 92.946 13.1468 91.9437 11.515 91.0496C8.89294 89.6102 6.24678 88.211 3.58459 86.8478C2.85489 86.475 2.03298 86.2705 1.23913 86.0379C0.846217 85.9217 0.4092 85.9618 0.152603 86.3346C-0.124041 86.7436 0.0122764 87.1686 0.268873 87.5454C0.437265 87.79 0.625704 88.0266 0.838198 88.235C1.26319 88.656 1.69218 89.077 2.14925 89.4619C6.95643 93.5474 12.4372 96.4101 18.4231 98.3345C19.4495 98.6633 20.4839 98.8958 21.5544 98.8678C21.815 102.127 22.2801 105.367 22.9496 108.578C23.4869 111.148 24.1484 113.702 24.9503 116.232C25.2951 117.327 25.668 118.409 26.0609 119.484C27.4882 123.369 29.2403 127.085 31.3973 130.598C31.2971 130.566 31.2008 130.529 31.1006 130.501C29.7655 130.112 28.4144 129.627 27.0432 129.519C21.7428 129.094 17.076 130.746 13.0306 134.166C11.3787 135.565 10.188 137.237 9.97946 139.474C9.93135 139.991 9.63065 140.565 10.1839 140.942C10.7092 141.298 11.1542 140.878 11.5231 140.581C12.9905 139.414 14.6543 139.017 16.4866 139.222C16.7191 139.246 16.9517 139.242 17.1842 139.242C19.3372 139.246 21.3178 138.745 23.0699 137.409C24.834 136.066 26.8587 135.2 28.9636 134.547C29.8417 134.274 30.7518 134.114 31.6499 133.905C31.6739 133.965 31.694 134.03 31.718 134.09C31.3933 134.31 31.0645 134.531 30.7398 134.755C29.4568 135.645 28.1417 136.499 26.8948 137.442C24.6456 139.145 22.7452 141.194 21.3539 143.664C20.095 145.901 19.4695 148.287 20.0629 150.861C20.2313 151.59 20.5561 152.284 20.8327 153.07C20.4999 153.07 20.1912 153.014 19.9106 153.082C19.2049 153.246 18.4672 153.375 17.8217 153.683C16.8795 154.136 16.5548 155.059 16.8715 156.057C17.2123 157.123 18.0943 157.484 19.0927 157.641C19.4695 157.701 19.8544 157.693 20.3917 157.725C19.8985 158.194 19.5136 158.543 19.1448 158.911C18.6396 159.417 18.2627 159.994 18.1465 160.716C17.958 161.878 18.6356 162.684 19.8023 162.664C20.969 162.644 21.8912 162.075 22.7532 161.365C23.0178 161.149 23.2744 160.924 23.6673 160.587C23.6352 161.245 23.5991 161.674 23.5911 162.103C23.5831 162.536 23.5711 162.969 23.6072 163.398C23.7315 164.765 24.6937 165.419 25.9847 164.978C26.4097 164.833 26.8307 164.565 27.1594 164.256C28.0655 163.402 28.5587 162.327 28.6268 161.072C28.6429 160.748 28.6309 160.423 28.6309 159.986C29.2002 160.206 29.6532 160.391 30.1103 160.563C31.4855 161.081 32.8928 161.229 34.3201 160.832C35.6432 160.467 35.9759 159.561 35.2222 158.406C34.6809 157.576 33.9312 156.987 33.0211 156.59C32.7765 156.482 32.54 156.35 32.3315 156.245C33.009 155.808 33.6505 155.451 34.2199 155.006C34.8092 154.545 35.1741 153.908 35.2863 153.146C35.4387 152.112 34.9937 151.298 34.0314 150.909C33.3338 150.628 32.5841 150.536 31.8744 150.757C30.9923 151.025 30.1424 151.414 29.2924 151.775C29.0278 151.887 28.7952 152.08 28.3903 152.34C28.4544 151.827 28.5066 151.478 28.5427 151.133C28.6268 150.243 28.4585 149.405 27.9132 148.68C27.3358 147.918 26.4217 147.665 25.6038 148.01C25.0545 148.243 24.6616 148.648 24.4411 149.189C23.9359 150.444 23.6553 151.731 24.0241 153.082C24.0723 153.254 24.0682 153.443 24.1003 153.691C23.8197 153.647 23.6152 153.651 23.4428 153.579C22.1277 153.01 21.4943 151.935 21.2417 150.58C20.8287 148.331 21.4381 146.286 22.5367 144.366C23.8918 141.996 25.688 139.999 27.821 138.304C28.8634 137.478 29.966 136.724 31.0124 135.902C31.7421 135.329 32.4397 134.707 33.1173 134.07C33.2336 133.957 33.3458 133.849 33.4621 133.745C33.871 134.318 34.288 134.884 34.725 135.445C34.9856 135.778 35.2543 136.102 35.5189 136.427C35.6111 136.539 35.6993 136.656 35.7915 136.768C38.5539 140.08 41.7253 142.946 45.4821 145.159C49.5435 147.549 53.9016 148.968 58.6407 149.049C64.0372 149.141 68.9366 147.537 73.4191 144.59C73.9443 144.245 74.4535 143.885 74.9506 143.516C75.0188 143.568 75.0869 143.608 75.1551 143.636C75.548 143.792 75.993 143.832 76.418 143.885C78.7875 144.177 81.137 143.876 83.4865 143.604C88.8229 142.978 94.019 141.707 99.1389 140.088C104.351 138.436 109.435 136.475 114.262 133.901C115.108 133.448 115.91 132.899 116.68 132.326C117.041 132.057 117.341 131.664 117.558 131.263C117.915 130.61 117.678 129.98 116.988 129.72C116.596 129.571 116.15 129.515 115.721 129.499C113.424 129.407 111.231 129.956 109.058 130.618C102.848 132.506 96.7333 134.659 90.7313 137.133C90.4266 137.257 90.1139 137.369 89.8052 137.486C90.0417 137.181 90.3344 137.029 90.6231 136.868C93.4176 135.321 96.2361 133.817 98.9986 132.213C105.834 128.236 111.981 123.385 117.377 117.595C117.762 117.182 118.155 116.761 118.44 116.28C118.753 115.743 118.428 115.234 117.81 115.286C117.325 115.326 116.82 115.466 116.387 115.687C114.751 116.505 113.115 117.327 111.528 118.233C106.684 120.999 102.226 124.307 98.0163 127.959C96.8375 128.982 95.5906 129.928 94.3758 130.906C94.3157 130.85 94.2555 130.79 94.1954 130.734C94.48 130.469 94.7567 130.205 95.0454 129.944C98.5094 126.825 101.909 123.637 105.081 120.217C108.028 117.038 110.83 113.746 113.035 109.99C114.37 107.716 115.533 105.363 116.347 102.853C116.499 102.388 116.583 101.879 116.583 101.39C116.583 100.856 116.231 100.6 115.713 100.708C115.429 100.764 115.128 100.892 114.912 101.077C114.354 101.55 113.773 102.015 113.324 102.58C111.568 104.798 109.764 106.983 108.16 109.308C105.971 112.487 103.95 115.779 101.853 119.023C101.681 119.287 101.48 119.536 101.292 119.792C101.3 119.404 101.444 119.107 101.577 118.81C102.475 116.769 103.425 114.753 104.255 112.684C105.983 108.382 107.089 103.952 106.721 99.2567C106.664 98.5591 106.636 97.8574 106.516 97.1718C106.432 96.6867 106.267 96.1976 106.039 95.7646C105.538 94.8184 104.62 94.5658 103.782 95.2113C103.244 95.6242 102.775 96.1895 102.439 96.7789C102.062 97.4324 101.809 98.1742 101.601 98.9079C100.41 103.074 99.5719 107.307 99.1389 111.629C98.7781 115.238 98.2889 118.834 97.8158 122.431C97.7477 122.936 97.5392 123.461 97.2665 123.894C95.8793 126.095 94.2716 128.136 92.4553 130.004C92.2589 130.209 92.0384 130.389 91.8138 130.598C91.7738 130.501 91.7457 130.465 91.7537 130.445C91.8579 130.201 91.9702 129.964 92.0745 129.72C93.5379 126.26 95.0975 122.832 95.8753 119.123C96.3805 116.705 96.7974 114.28 96.5368 111.794C96.4767 111.204 96.3604 110.599 96.1279 110.058C95.8111 109.32 95.1255 109.272 94.6324 109.893C94.448 110.126 94.2956 110.395 94.1834 110.667C93.8867 111.409 93.5579 112.143 93.3534 112.912C92.2028 117.218 91.0842 121.533 89.9535 125.843C89.4163 127.899 89.0554 130.024 88.3017 132.001C86.9385 135.573 87.3916 134.775 84.5209 136.908C82.5924 138.344 80.4955 139.486 78.3666 140.573C80.6358 138.348 82.5924 135.826 84.3124 133.083C87.7083 127.671 89.9896 121.797 91.4731 115.607C94.468 103.134 94.2956 90.6647 91.3007 78.2197C89.9375 72.5586 87.9649 67.15 85.2305 62.0702C88.6906 65.8389 92.2188 69.5435 95.8031 73.192C103.156 80.6734 110.473 88.1909 117.947 95.548C122.409 99.9383 126.879 104.316 131.226 108.827C135.171 112.92 139.232 116.886 143.414 120.719C142.52 120.614 141.606 120.514 140.74 120.646C136.758 121.256 133.892 123.429 132.296 127.15C131.855 128.18 131.542 129.287 131.31 130.385C130.905 132.282 130.139 133.981 128.904 135.473C128.543 135.91 128.207 136.363 127.878 136.824C126.691 138.492 125.809 140.312 125.256 142.285C125.095 142.85 124.823 143.528 125.4 143.953C125.993 144.394 126.643 144.033 127.144 143.652C128.199 142.846 129.277 142.048 130.211 141.11C131.434 139.887 132.525 138.54 133.671 137.241C134.85 135.91 135.764 134.41 136.498 132.791C137.091 131.488 137.644 130.161 138.342 128.918C138.891 127.939 139.569 127.017 140.307 126.175C141.137 125.225 142.251 124.628 143.522 124.026C142.135 128.89 143.282 133.071 146.228 136.84C146.172 136.888 146.148 136.92 146.12 136.928C145.96 136.964 145.795 136.996 145.631 137.021C143.35 137.357 141.746 138.652 140.655 140.621C140.435 141.018 140.283 141.487 140.226 141.936C140.038 143.419 141.481 144.406 142.564 143.937C143.021 143.74 143.53 143.612 143.919 143.323C144.825 142.658 145.675 141.912 146.549 141.198C146.71 141.066 146.862 140.93 146.95 140.853C147.271 141.972 147.503 143.083 147.916 144.121C148.153 144.71 148.602 145.276 149.091 145.693C150.109 146.563 151.809 146.495 152.792 145.661C153.686 144.903 153.866 143.652 153.157 142.381C152.772 141.691 152.234 141.086 151.765 140.445C151.601 140.22 151.425 140.003 151.204 139.727C151.85 139.631 152.387 139.599 152.896 139.462C153.437 139.318 153.986 139.133 154.476 138.869C155.586 138.263 156.075 137.249 155.831 136.235C155.538 135.016 154.504 134.146 153.269 134.078C152.19 134.018 151.216 134.358 150.362 134.964C149.58 135.517 148.887 136.191 148.069 136.88C146.918 135.898 145.968 134.743 145.435 133.32C144.994 132.141 144.629 130.922 144.344 129.695C144.027 128.32 144.039 126.917 144.44 125.546C144.733 124.544 145.106 123.617 146 123.04C149.572 126.223 153.229 129.311 156.985 132.286C163.509 137.45 170.461 141.924 178.071 145.36C182.26 147.252 186.566 148.459 191.185 148.439C191.951 148.439 192.717 148.459 193.482 148.435C196.882 148.319 199.969 147.373 202.555 145.059C204.412 143.395 205.955 141.479 207.086 139.27C208.978 135.569 209.367 131.736 207.96 127.763C206.805 124.495 205.109 121.533 202.988 118.806C202.86 118.638 202.724 118.477 202.592 118.309C205.158 119.263 207.772 120.045 210.454 120.614C213.148 121.184 215.758 120.951 218.216 119.676C218.849 119.347 219.475 118.882 219.912 118.333C220.926 117.054 220.469 115.807 218.898 115.362C218.1 115.138 217.286 114.953 216.468 114.801C213.914 114.324 211.348 113.903 208.738 114.316C206.525 114.665 204.42 115.382 202.339 116.188C201.966 116.332 201.593 116.493 201.212 116.613C200.872 116.204 200.527 115.799 200.178 115.398C200.226 115.178 200.302 114.961 200.406 114.773C200.643 114.348 201.004 113.975 201.361 113.634C202.696 112.367 204.199 111.333 205.847 110.507C206.858 110.002 207.868 109.488 208.838 108.911C211.737 107.187 214.267 105.066 215.919 102.051C215.943 102.003 216.027 101.991 216.087 101.959C217.402 102.528 217.983 102.633 219.17 102.384C221.913 101.815 223.649 100.047 224.739 97.5728C224.92 97.1598 224.988 96.6707 225 96.2136C225.016 95.1471 224.37 94.674 223.364 94.9627ZM186.246 97.1919C187.633 94.0927 190.235 92.3045 193.13 90.8371C191.57 93.7398 189.401 95.9851 186.246 97.1919ZM192.488 89.7947C191.217 90.6527 190.006 91.3543 188.932 92.2243C187.885 93.0703 186.983 94.0887 186.077 94.9707C186.125 91.671 189.786 89.5621 192.488 89.7947ZM187.152 78.7169C189.128 78.6127 191.073 78.6888 192.961 79.3263C193.146 79.3865 193.318 79.4747 193.643 79.607C192.344 80.0921 191.137 80.3407 189.914 80.5291C188.142 80.8058 186.362 81.0463 184.594 81.347C183.852 81.4753 183.126 81.7159 182.22 81.9484C183.439 79.9598 184.951 78.8332 187.152 78.7169ZM182.26 82.7543C185.957 81.764 189.866 82.1088 193.522 80.8819C193.563 80.9461 193.607 81.0062 193.647 81.0704C193.378 81.3671 193.142 81.7038 192.833 81.9524C191.67 82.8746 190.383 83.5281 188.9 83.7767C187.063 84.0854 185.255 83.913 183.459 83.5241C183.026 83.4319 182.629 83.1753 182.216 82.9908C182.232 82.9107 182.248 82.8345 182.26 82.7543ZM190.612 53.3419C191.63 55.8557 189.982 60.5186 187.448 62.3067C188.511 59.2997 189.549 56.3569 190.612 53.3419ZM189.786 52.8166C188.864 56.0201 187.605 58.975 186.366 62.1824C185.524 58.7264 187.128 54.4043 189.786 52.8166ZM195.76 64.8406C192.272 66.3201 188.92 67.7434 185.476 69.2068C186.907 66.3922 193.033 63.7501 195.76 64.8406ZM194.938 66.1958C194.1 68.8259 188.908 71.003 185.155 70.2893C188.455 68.9101 191.694 67.5549 194.938 66.1958ZM173.384 79.9638C173.584 79.9919 173.801 79.9879 173.985 80.056C174.951 80.4128 175.938 80.7336 176.868 81.1666C178.315 81.8402 179.297 82.9949 179.931 84.4502C180.015 84.6467 180.027 84.8752 180.071 85.0877C180.019 85.1278 179.971 85.1679 179.919 85.204C177.718 83.504 175.521 81.8041 173.319 80.1081C173.344 80.06 173.364 80.0119 173.384 79.9638ZM173.031 81.1225C175.424 82.8746 177.814 84.6266 180.208 86.3787C177.012 85.7372 175.015 83.4359 173.031 81.1225ZM180.841 72.5666C179.121 72.4423 177.866 71.448 176.743 70.2452C175.06 68.441 174.338 66.316 174.739 63.726C174.927 63.9265 175.092 64.0508 175.196 64.2152C175.91 65.3739 176.543 66.5847 177.325 67.6912C178.375 69.1787 179.538 70.582 180.657 72.0213C180.753 72.1456 180.861 72.2619 180.965 72.3822C180.921 72.4463 180.881 72.5064 180.841 72.5666ZM176.29 63.8182C178.76 64.993 181.037 66.3602 181.944 69.1787C182.288 70.2452 182.32 71.2155 181.948 72.1496C179.678 69.5997 177.874 66.7932 176.29 63.8182ZM177.67 90.9894C179.117 91.0576 180.416 91.5467 181.583 92.4208C182.096 92.8057 182.268 93.3389 182.381 94.0646C180.709 93.0743 179.137 92.1441 177.569 91.218C177.601 91.1418 177.634 91.0656 177.67 90.9894ZM177.609 92.2564C179.41 93.3549 181.21 94.4575 183.078 95.5962C181.643 96.1013 178.359 94.1488 177.609 92.2564ZM181.078 24.4106C183.022 24.0818 184.866 24.4066 186.663 25.0641C187.216 25.2686 187.873 25.5612 187.833 26.2589C187.789 27.0006 187.087 27.2331 186.474 27.3735C186.001 27.4817 185.484 27.5138 185.003 27.4536C183.547 27.2692 182.16 26.8282 180.793 26.2308C180.885 25.6454 180.973 25.0721 181.078 24.4106ZM182.645 30.5288C182.886 30.8295 182.99 31.2384 183.138 31.6073C183.291 31.9882 183.206 32.329 182.874 32.5816C182.517 32.8502 182.108 32.8943 181.771 32.6096C181.422 32.317 181.065 31.9762 180.849 31.5832C180.135 30.2802 179.482 28.9451 178.752 27.5218C179.185 27.3574 179.43 27.2652 179.795 27.1249C180.741 28.2515 181.715 29.3701 182.645 30.5288ZM177.762 23.312C178.54 23.328 179.185 23.6127 179.598 24.2943C180.015 24.9879 179.75 25.7777 179.017 26.1185C178.135 26.5275 176.796 26.0744 176.339 25.2084C175.801 24.19 176.467 23.304 177.762 23.312ZM172.686 29.4463C172.173 29.747 171.611 30.0557 171.03 29.6187C170.617 29.31 170.561 28.6043 170.938 27.8626C171.788 26.1907 173.131 25.0962 174.923 24.5389C175.192 25.2846 175.416 25.894 175.689 26.6518C174.819 27.606 173.933 28.7126 172.686 29.4463ZM173.833 32.8021C173.592 31.491 174.799 29.1616 176.643 27.2452C176.727 27.2572 176.828 27.2532 176.916 27.2812C177.096 27.3454 177.273 27.4256 177.537 27.5378C176.443 29.4222 175.829 31.5552 173.833 32.8021ZM137.524 41.1535C141.253 34.5141 147.034 30.637 154.391 28.9972C154.861 28.893 155.342 28.8409 155.863 28.8489C151.477 33.8405 147.006 38.7158 143.65 44.4772C140.327 50.1825 137.58 56.1444 135.395 62.3789C135.279 62.3548 135.163 62.3268 135.042 62.3027C135.231 60.723 135.399 59.1434 135.612 57.5677C136.185 53.3178 138.053 49.5771 140.222 45.9647C140.856 44.9102 141.566 43.8999 142.223 42.8575C142.404 42.5688 142.72 42.2721 142.38 41.8872C141.674 42.24 139.87 44.361 138.506 46.7185C137.444 48.5587 136.502 50.4752 135.616 52.4077C134.742 54.3121 134.469 56.393 134.004 58.4457C133.988 58.3375 133.96 58.2252 133.952 58.117C133.595 52.131 134.573 46.4137 137.524 41.1535ZM96.0717 22.017C94.3878 21.6521 92.7039 21.3073 91.028 20.9224C86.5456 19.888 82.1794 18.4727 77.9215 16.7568C76.3298 16.1153 74.8223 15.2252 73.3389 14.3471C72.3045 13.7337 71.4304 12.8918 70.833 11.8173C70.6005 11.3963 70.2156 10.9152 70.5724 10.4381C70.9132 9.985 71.4545 10.2376 71.8715 10.3899C72.8056 10.7307 73.7438 11.0836 74.6299 11.5286C75.7284 12.0779 76.8029 12.6913 77.8494 13.3368C82.3318 16.1233 87.0909 18.3324 92.0304 20.1727C93.1209 20.5776 94.1994 21.0227 95.2779 21.4597C95.5666 21.576 95.8432 21.7323 96.1239 21.8727C96.1038 21.9208 96.0878 21.9689 96.0717 22.017ZM102.415 22.438C102.158 22.1974 101.921 21.9929 101.705 21.7684C99.8606 19.8479 98.0163 17.9235 96.172 16.003C93.165 12.8717 89.749 10.2095 86.4213 7.44309C84.9379 6.21222 83.4865 4.93325 82.0752 3.61819C81.6021 3.17716 81.2453 2.57977 80.9446 2.00243C80.7 1.52933 80.9526 1.20056 81.4858 1.26872C82.007 1.33287 82.5563 1.43711 83.0214 1.66965C84.2362 2.28308 85.427 2.94863 86.5937 3.65026C87.2472 4.04318 87.8566 4.52029 88.434 5.01744C94.031 9.84066 98.7901 15.3575 102.298 21.9007C102.362 22.017 102.411 22.1413 102.463 22.2616C102.471 22.2856 102.447 22.3177 102.415 22.438ZM117.614 31.3908C117.522 33.2832 117.445 35.1756 117.357 37.068C117.345 37.3246 117.317 37.5812 117.297 37.8338C117.249 37.8378 117.205 37.8418 117.157 37.8458C116.972 36.5428 116.804 35.2317 116.6 33.9327C116.082 30.6491 115.489 27.3775 115.036 24.0858C114.487 20.1005 114.046 16.1032 113.568 12.1099C113.496 11.4965 113.448 10.8671 113.657 10.2376C114.194 10.2336 114.442 10.5784 114.631 10.8991C115.1 11.697 115.577 12.5069 115.934 13.3568C116.864 15.5499 117.257 17.8794 117.522 20.2328C117.943 23.9455 117.79 27.6701 117.614 31.3908ZM27.7408 56.1444C28.6509 52.0789 29.2804 47.9734 29.4167 43.7997C29.561 39.4536 28.8313 35.2518 27.3158 31.1823C27.1634 30.7774 27.0231 30.3724 26.8788 29.9635C26.8708 29.9394 26.8908 29.9033 26.9429 29.7149C28.4986 32.5695 29.6532 35.4202 30.2105 38.4953C30.9442 42.5528 30.8641 46.5741 29.6773 50.5474C29.124 52.3957 28.5908 54.248 28.0375 56.0963C27.9733 56.3168 27.8651 56.5213 27.6686 56.7137C27.6927 56.5213 27.7007 56.3288 27.7408 56.1444ZM7.91065 45.3433C7.26114 45.3914 6.57956 45.2992 5.93806 45.1628C4.93573 44.9463 3.93741 44.6737 2.95913 44.357C2.32566 44.1525 1.76034 43.8077 1.6561 42.9577C3.53648 42.641 3.44426 42.4004 2.79475 41.0332C3.44426 40.937 4.11783 41.3941 4.72725 40.917C5.39279 40.3998 5.10011 39.7182 5.03997 39.0647C5.14422 39.0246 5.24044 38.9444 5.31662 38.9604C7.04464 39.3132 8.45993 40.1712 9.49835 41.6106C9.59457 41.7429 9.67075 41.8952 9.74692 42.0436C10.6851 43.8919 9.98347 45.1909 7.91065 45.3433ZM21.4902 161.117C21.1535 161.365 20.7285 161.526 20.3235 161.654C19.9226 161.778 19.4495 161.971 19.1247 161.53C18.788 161.068 18.8802 160.539 19.1969 160.134C19.5778 159.641 20.0308 159.188 20.512 158.791C20.9931 158.39 21.5464 158.074 22.1197 157.689C22.5487 158.27 22.9496 158.819 23.4388 159.489C22.7612 160.062 22.1518 160.627 21.4902 161.117ZM26.8146 163.173C26.4899 163.57 26.0569 163.923 25.5998 164.148C25.0185 164.432 24.4892 164.164 24.4291 163.514C24.3489 162.636 24.4251 161.738 24.4652 160.852C24.4772 160.559 24.5895 160.271 24.6416 160.038C25.692 159.769 26.6061 159.533 27.5564 159.288C27.7448 160.635 27.7689 162.007 26.8146 163.173ZM32.9529 157.6C33.4781 157.917 33.9633 158.354 34.3562 158.831C34.9455 159.549 34.8132 159.966 33.8751 160.11C33.0131 160.243 32.0709 160.291 31.2369 160.09C30.1624 159.83 29.1601 159.28 28.1137 158.851C28.5547 158.029 28.8915 157.396 29.2764 156.67C30.4751 156.807 31.7982 156.899 32.9529 157.6ZM32.3275 151.791C32.989 151.743 33.7387 151.707 34.0675 152.436C34.4003 153.17 33.9593 153.784 33.4701 154.301C32.6001 155.223 31.4414 155.5 30.2426 155.64C29.8858 155.68 29.5209 155.648 29.14 155.648C28.8233 155.163 28.4865 154.646 28.1217 154.084C29.2363 152.821 30.5714 151.911 32.3275 151.791ZM25.255 149.433C25.4354 149.02 25.7842 148.712 26.2613 148.724C26.7785 148.736 27.1434 149.073 27.2837 149.546C27.416 149.983 27.5283 150.464 27.4682 150.905C27.3559 151.751 27.1153 152.581 26.9269 153.431C26.1531 153.431 25.5637 153.431 24.9262 153.431C24.4491 152.011 24.7057 150.704 25.255 149.433ZM25.684 154.305C26.3977 154.393 27.1233 154.561 27.6646 155.123C28.3622 155.844 28.4344 156.766 27.7929 157.54C27.1755 158.29 26.3896 158.739 25.4234 158.743C24.0322 158.843 23.3145 157.532 23.3426 156.446C23.3746 155.155 24.4251 154.148 25.684 154.305ZM22.5928 154.658C22.4004 155.263 22.232 155.792 22.0355 156.402C21.0332 156.542 19.9988 156.698 18.9564 156.466C18.7038 156.41 18.4432 156.305 18.2347 156.157C17.5932 155.696 17.6293 154.83 18.3189 154.445C18.6556 154.257 19.0526 154.132 19.4335 154.068C20.544 153.888 21.6626 154.112 22.5928 154.658ZM30.6516 133.063C27.5724 133.689 24.7619 134.956 22.2119 136.76C20.6363 137.875 18.9042 138.283 17.0279 138.191C13.9447 138.039 13.9447 138.023 11.2424 139.322C11.3186 138.027 11.8919 137.085 12.6737 136.239C14.6664 134.094 17.1121 132.65 19.8584 131.7C21.8551 131.011 23.9199 130.674 26.0368 130.71C26.2814 130.714 26.526 130.754 26.7826 130.862C24.5694 131.592 22.3081 132.129 20.0589 133.144C20.524 133.597 20.8327 133.424 21.1334 133.356C22.9536 132.963 24.7699 132.554 26.5941 132.181C28.4504 131.8 30.2987 131.897 32.139 132.326C32.2553 132.354 32.3555 132.442 32.5961 132.57C31.8503 132.759 31.257 132.943 30.6516 133.063ZM109.178 109.721C110.646 107.548 112.273 105.479 113.861 103.386C114.294 102.813 114.839 102.324 115.413 101.714C115.621 102.292 115.361 102.633 115.236 102.969C113.741 106.995 111.544 110.627 108.91 113.995C106.488 117.09 103.778 119.929 100.979 122.683C100.911 122.751 100.827 122.803 100.747 122.864C100.703 122.84 100.662 122.819 100.618 122.795C100.678 122.687 100.739 122.579 100.803 122.475C103.593 118.221 106.336 113.939 109.178 109.721ZM99.7884 116.705C100.109 113.831 100.398 110.948 100.759 108.077C101.168 104.838 101.957 101.674 102.852 98.539C102.996 98.0298 103.22 97.5407 103.461 97.0676C103.722 96.5624 104.07 96.1134 104.752 95.9049C105.397 96.5023 105.486 97.2681 105.554 98.0218C105.758 100.255 105.562 102.472 105.253 104.685C104.96 106.806 104.371 108.847 103.569 110.828C102.635 113.141 101.705 115.454 100.739 117.752C100.422 118.505 100.009 119.219 99.6401 119.949C99.5719 119.929 99.5078 119.909 99.4396 119.889C99.5559 118.826 99.6721 117.764 99.7884 116.705ZM102.535 125.995C106.648 122.591 111.103 119.676 115.774 117.09C115.978 116.978 116.183 116.866 116.391 116.765C116.443 116.741 116.515 116.761 116.676 116.761C109.431 124.636 100.699 130.325 91.2004 134.988C91.3167 134.872 91.4209 134.735 91.5573 134.643C95.3862 131.977 98.9424 128.966 102.535 125.995ZM95.3862 110.731C95.4463 111.297 95.5265 111.746 95.5425 112.199C95.6147 114.384 95.1817 116.505 94.7126 118.618C93.9027 122.282 92.3391 125.67 90.8155 129.074C90.7474 129.226 90.6552 129.367 90.5629 129.503C90.5309 129.547 90.4507 129.551 90.3945 129.575C90.4186 127.567 94.5081 111.966 95.3862 110.731ZM80.3351 142.405C87.1911 139.751 94.019 137.025 100.911 134.479C104.463 133.164 108.116 132.121 111.748 131.047C112.851 130.722 114.042 130.67 115.196 130.545C115.609 130.501 116.042 130.61 116.66 130.67C115.974 131.588 115.248 132.065 114.483 132.446C112.129 133.617 109.8 134.843 107.374 135.85C100.967 138.508 94.3638 140.557 87.5158 141.752C85.3869 142.124 83.2339 142.357 81.0889 142.642C80.7641 142.686 80.4274 142.646 79.9502 142.646C80.1547 142.517 80.2349 142.445 80.3351 142.405ZM151.12 135.982C151.545 135.685 152.062 135.501 152.563 135.341C153.052 135.188 153.549 135.268 153.986 135.581C154.945 136.263 154.905 137.253 153.854 137.782C152.748 138.34 151.557 138.404 150.354 138.211C149.933 138.143 149.528 137.987 148.891 137.806C149.737 137.101 150.394 136.491 151.12 135.982ZM148.762 139.226C148.955 139.37 149.155 139.482 149.308 139.643C150.073 140.465 150.847 141.282 151.569 142.144C151.882 142.517 152.134 142.966 152.307 143.423C152.615 144.229 152.21 144.887 151.364 145.027C150.739 145.135 150.186 144.959 149.733 144.498C148.738 143.484 148.209 140.709 148.762 139.226ZM147.139 138.372C146.93 138.741 146.79 139.033 146.609 139.298C145.723 140.613 144.541 141.615 143.201 142.433C142.925 142.602 142.604 142.726 142.287 142.802C141.886 142.898 141.558 142.654 141.526 142.241C141.509 142.02 141.558 141.78 141.634 141.567C142.283 139.771 144.733 137.794 147.139 138.372ZM143.438 122.499C140.495 123.742 138.302 125.762 136.979 128.697C136.626 129.487 136.201 130.245 135.892 131.051C134.381 135.004 131.574 138.039 128.756 141.05C128.066 141.788 127.188 142.345 126.394 142.986C126.318 142.922 126.242 142.858 126.166 142.794C126.643 141.026 127.397 139.382 128.447 137.879C128.94 137.169 129.49 136.499 130.035 135.83C131.189 134.41 131.955 132.819 132.348 131.027C132.577 129.992 132.869 128.962 133.222 127.963C134.75 123.613 139.409 121.063 143.59 121.833C143.819 121.873 144.047 121.897 144.344 122.082C144.043 122.214 143.747 122.366 143.438 122.499ZM204.384 116.838C206.088 116.914 207.748 117.234 209.367 117.76C209.836 117.912 210.338 117.988 210.827 118.06C210.995 118.084 211.184 117.988 211.36 117.948C211.372 117.848 211.388 117.752 211.4 117.651C209.712 116.765 207.872 116.381 205.963 116.16C207.018 115.647 208.136 115.402 209.279 115.286C212.026 115.005 214.72 115.43 217.394 116C217.883 116.104 218.376 116.192 218.849 116.344C219.507 116.557 219.719 117.01 219.327 117.567C219.014 118.012 218.565 118.417 218.088 118.674C216.472 119.54 214.724 119.941 212.892 119.788C211.869 119.704 210.835 119.564 209.848 119.291C207.611 118.674 205.402 117.96 203.137 117.271C203.71 116.793 203.706 116.806 204.384 116.838ZM62.0446 18.0397C63.6002 17.8794 65.1237 18.172 66.5471 18.7494C68.6439 19.5954 70.7128 20.5215 72.7295 21.5399C77.6449 24.0257 82.2035 27.0928 86.702 30.2562C96.9137 37.4409 106.985 44.822 116.984 52.2994C119.667 54.3041 122.353 56.3048 125.039 58.3014C125.075 58.3896 125.111 58.4698 125.151 58.566C125.167 58.5139 125.188 58.4698 125.204 58.4257C132.697 63.9987 140.198 69.5516 147.672 75.1486C153.882 79.7994 160.081 84.4663 166.183 89.2534C173.989 95.3797 181.715 101.602 189.425 107.849C193.707 111.317 197.548 115.242 200.916 119.616C201.393 120.237 201.846 120.871 202.279 121.516C203.75 123.718 204.941 126.071 205.751 128.633C206.898 132.257 206.24 135.605 204.296 138.765C203.879 139.442 203.365 140.064 202.864 140.681C200.402 143.704 197.235 145.284 193.314 145.296C192.849 145.296 192.38 145.296 191.915 145.296C187.962 145.332 184.205 144.498 180.564 142.938C171.776 139.17 163.765 134.146 156.316 128.188C148.899 122.254 141.858 115.891 135.135 109.184C125.637 99.7057 116.199 90.1675 106.725 80.6654C100.638 74.5592 94.7286 68.2886 89.1156 61.7334C85.7638 57.8163 82.1233 54.1437 78.6352 50.3389C74.1127 45.4034 69.5821 40.4639 65.8134 34.911C64.0412 32.2969 62.4335 29.5666 60.8137 26.8522C59.9557 25.4209 59.3824 23.8573 58.9895 22.2215C58.4402 19.9241 59.4265 18.7694 60.8538 18.2883C61.2267 18.164 61.6276 18.0838 62.0446 18.0397ZM1.03866 86.8879C1.72827 87.1686 2.32967 87.349 2.87093 87.6377C5.07205 88.8164 7.2852 89.9671 9.4342 91.238C12.5294 93.0663 15.5685 94.9868 18.6276 96.8711C18.8802 97.0235 19.1167 97.1999 19.4455 97.4204C14.8909 96.8992 2.44594 89.8187 1.03866 86.8879ZM8.92902 80.6975C7.96678 78.7931 7.01657 76.8886 6.58356 74.7797C6.50739 74.4069 6.5114 74.022 6.45527 73.4246C6.97648 73.7213 7.34133 73.8736 7.63401 74.1142C8.17126 74.5552 8.73256 74.9962 9.16958 75.5335C10.5207 77.1773 11.948 78.777 13.1107 80.5492C15.9574 84.8953 18.5033 89.4178 20.6363 94.1608C20.8568 94.646 21.0813 95.1351 21.3219 95.6563C21.3299 95.8969 21.3419 96.1374 21.3539 96.378C16.659 91.5949 11.9962 86.7796 8.92902 80.6975ZM88.8309 115.527C87.1069 122.579 84.3806 129.19 80.0184 135.052C77.5326 138.396 74.6259 141.307 71.0455 143.476C67.0402 145.901 62.9467 147.032 58.781 146.904C55.8422 146.811 52.8632 146.098 49.8522 144.747C46.0033 143.014 42.7517 140.44 39.865 137.385C35.5109 132.779 32.3275 127.422 29.8898 121.605C26.2413 112.896 24.5333 103.787 24.2807 94.3773C24.2607 93.6797 24.2767 92.9781 24.2767 92.2804C24.2406 83.4118 25.5717 74.7717 28.7191 66.4524C29.9379 63.2369 31.4454 60.1657 33.2616 57.2429C36.4811 52.0669 40.8914 48.2059 46.3561 45.5878C47.4787 45.0506 48.6214 44.6336 49.7761 44.3249C52.7029 43.5511 55.7259 43.511 58.8171 44.1966C64.362 45.4315 69.1812 48.0415 73.4712 51.7502C78.535 56.1283 82.2195 61.4688 84.8577 67.575C88.5422 76.1108 90.4467 85.0436 90.8235 94.3172C91.1202 101.482 90.5349 108.558 88.8309 115.527ZM223.725 97.4806C222.923 99.1645 221.644 100.375 219.924 101.113C219.832 101.153 219.735 101.177 219.639 101.205C217.615 101.803 216.203 101.025 215.778 98.96C215.409 97.1558 215.401 95.3316 215.818 93.5193C215.979 92.8217 216.452 92.3526 217.033 92.0118C217.594 91.6831 217.991 91.8675 218.168 92.4729C218.577 93.8962 219.006 94.0526 220.249 93.2467C220.433 93.1264 220.634 93.0222 220.974 92.8297C221.075 93.379 221.179 93.816 221.223 94.257C221.259 94.6179 221.195 94.9908 221.223 95.3516C221.291 96.2938 221.82 96.6466 222.71 96.3499C223.111 96.2176 223.5 96.0452 223.917 95.8768C224.15 96.5023 223.949 97.0155 223.725 97.4806Z" fill="#333333"/>
<path d="M77.0773 63.6625C76.8247 63.0892 76.528 62.5359 76.2513 61.9746C76.2032 61.9987 76.1511 62.0227 76.103 62.0428C76.3195 62.6321 76.552 63.2135 76.7525 63.8069C79.0138 70.5385 80.81 77.3825 81.7161 84.4349C82.3054 89.0015 82.6302 93.5801 82.1972 98.1748C81.8925 101.386 81.5156 104.594 81.1628 107.801C80.5253 113.623 79.1341 119.256 76.961 124.697C76.1591 126.705 75.4374 128.742 74.6837 130.767C74.5434 131.14 74.4351 131.524 74.3148 131.905C74.1946 132.282 74.1665 132.663 74.6075 132.835C75.0445 133.004 75.2811 132.679 75.4695 132.35C75.6018 132.122 75.7181 131.881 75.8344 131.641C76.2553 130.775 76.6803 129.905 77.0973 129.039C79.4708 124.095 81.2951 118.959 82.1852 113.539C82.7745 109.93 83.2156 106.294 83.6285 102.657C84.246 97.2126 84.254 91.7679 83.5283 86.3232C82.4778 78.461 80.2847 70.9194 77.0773 63.6625Z" fill="#333333"/>
<path d="M164.201 91.6639C168.374 94.9716 172.6 98.2112 176.726 101.571C180.932 104.999 185.013 108.579 188.581 112.697C191.224 115.744 193.725 118.891 195.714 122.42C196.668 124.111 197.466 125.864 197.759 127.8C197.919 128.85 198.007 129.913 198.1 130.971C198.132 131.34 198.216 131.637 198.621 131.701C199.014 131.761 199.25 131.529 199.379 131.192C199.447 131.007 199.487 130.803 199.499 130.607C199.615 128.329 199.619 126.048 198.553 123.967C197.663 122.223 196.708 120.495 195.602 118.883C192.342 114.156 188.626 109.794 184.308 106.001C181.06 103.147 177.696 100.42 174.316 97.722C169.814 94.1297 165.067 90.8701 160.296 87.6466C159.646 87.2096 158.957 86.8367 158.283 86.4358C158.259 86.4759 158.239 86.52 158.215 86.5601C159.029 87.2898 159.827 88.0435 160.657 88.7492C161.823 89.7355 163.002 90.7137 164.201 91.6639Z" fill="#333333"/>
<path d="M127.308 10.5069C128.29 11.9303 129.353 13.2974 130.399 14.6766C131.739 16.4408 133.418 17.7718 135.515 18.5216C136.197 18.7662 136.923 18.8864 137.444 19.0187C139.625 18.7822 141.417 18.1928 142.832 16.7094C143.59 15.9155 144.348 15.1177 145.17 14.392C146.525 13.1932 146.621 13.2413 145.442 11.4612C145.386 11.377 145.314 11.3088 145.246 11.2366C142.776 8.54638 139.685 7.27542 136.065 7.4398C134.176 7.52801 132.296 7.83672 130.427 8.12139C129.301 8.29379 128.25 8.38199 127.388 7.45584C127.32 7.38367 127.236 7.32754 127.152 7.27141C126.867 7.07896 126.57 6.91859 126.238 7.16316C125.881 7.42777 125.861 7.78861 126.041 8.14143C126.438 8.9433 126.799 9.77323 127.308 10.5069ZM133.262 9.10367C135.114 8.94731 136.963 8.56642 138.823 8.99943C140.86 9.47253 142.776 10.1742 144.175 11.8621C139.272 13.9269 134.794 13.4859 130.864 9.44447C131.771 9.31617 132.512 9.16782 133.262 9.10367ZM129.602 10.1421C130.215 10.6513 130.808 11.1845 131.418 11.6977C134.693 14.4521 138.374 15.0936 142.423 13.8066C142.864 13.6663 143.297 13.4899 143.742 13.3576C144.047 13.2654 144.36 13.2092 144.673 13.1411C144.697 13.1932 144.721 13.2453 144.745 13.2934C143.598 14.38 142.548 15.6068 141.277 16.5209C139.585 17.7398 137.668 18.1086 135.628 17.2105C133.499 16.2724 131.751 14.9092 130.576 12.8765C130.019 11.9102 129.489 10.9239 129.072 9.82535C129.253 9.92959 129.449 10.0138 129.602 10.1421Z" fill="#333333"/>
<path d="M14.9534 121.893C15.3022 122.066 15.639 122.302 15.9237 122.567C16.7255 123.313 17.4873 124.103 18.2852 124.856C18.8184 125.361 19.1993 125.446 19.488 125.185C19.7766 124.924 19.7405 124.564 19.2835 123.95C18.6139 123.048 18.1328 122.054 18.0606 120.939C17.9123 118.658 17.0383 116.701 15.623 114.945C14.6607 113.754 14.2638 112.363 14.3119 110.852C14.34 110.026 14.4322 109.192 14.5685 108.374C14.777 107.095 15.0897 105.832 15.2742 104.553C15.3543 104.008 15.3102 103.41 15.1659 102.881C14.9213 101.975 14.0994 101.767 13.3858 102.384C13.1091 102.621 12.8565 102.897 12.648 103.194C11.4653 104.882 10.2705 106.558 9.13988 108.282C8.4182 109.38 8.0293 110.619 8.0293 112.155C8.00123 113.045 8.27788 114.067 8.70286 115.053C9.98986 118.052 11.9745 120.426 14.9534 121.893ZM9.95377 109.769C10.1863 109.328 10.459 108.911 10.7356 108.494C11.6176 107.167 12.5037 105.844 13.3898 104.521C13.5662 104.256 13.7506 104 14.0673 103.539C14.1997 104.324 14.0513 104.862 13.9431 105.391C13.6905 106.662 13.3737 107.921 13.1572 109.2C12.7202 111.814 13.1572 114.207 14.9213 116.308C16.1041 117.716 16.7255 119.376 16.7215 121.428C16.4369 121.043 16.2284 120.799 16.06 120.53C15.0135 118.87 13.9791 117.202 12.9327 115.547C12.7483 115.258 12.616 114.865 12.1228 114.905C11.8422 115.338 11.9825 115.759 12.1629 116.14C12.6801 117.218 13.2294 118.281 13.7707 119.347C13.899 119.6 14.0393 119.849 14.0714 120.185C13.919 120.085 13.7506 119.997 13.6103 119.881C11.6176 118.257 10.2705 116.188 9.54081 113.738C9.14389 112.383 9.28823 111.032 9.95377 109.769Z" fill="#333333"/>
<path d="M164.473 58.0322C164.565 57.6753 164.649 57.2824 164.293 57.0218C163.9 56.7332 163.543 56.9376 163.206 57.1902C162.168 57.964 161.117 58.7298 160.079 59.5076C158.864 60.4177 157.862 61.5163 157.12 62.8434C156.41 64.1143 155.949 65.4535 156.033 66.9409C156.19 70.3649 157.477 73.2837 160.115 75.4928C160.941 76.1864 161.59 76.872 161.855 77.9145C161.935 78.2312 162.115 78.5239 162.268 78.8206C162.344 78.9649 162.424 79.1614 162.557 79.2175C162.805 79.3217 163.154 79.4661 163.346 79.3698C163.535 79.2696 163.631 78.9008 163.671 78.6361C163.699 78.4637 163.571 78.2553 163.495 78.0748C162.941 76.7718 162.845 75.4166 163.162 74.0615C163.719 71.692 163.787 69.3265 163.33 66.9369C162.933 64.8681 163.094 62.8354 163.703 60.8267C163.98 59.8965 164.228 58.9623 164.473 58.0322ZM162.364 60.8708C161.727 62.9155 161.65 64.9803 161.991 67.0893C162.464 69.996 162.408 71.0705 161.739 73.7488C160.837 71.5075 161.117 69.2423 160.528 67.0893C159.846 67.2937 159.882 67.7388 159.862 68.1197C159.774 70.0562 159.79 71.9806 160.387 73.857C160.436 74.0054 160.456 74.1617 160.496 74.3502C160.367 74.3181 160.287 74.3221 160.255 74.286C158.295 72.0167 157.076 69.4588 157.272 66.3796C157.304 65.8584 157.441 65.3252 157.629 64.836C158.563 62.3863 160.44 60.8066 162.785 59.3593C162.609 59.9927 162.5 60.4338 162.364 60.8708Z" fill="#333333"/>
<path d="M7.07602 23.6642C7.21234 25.296 7.51705 26.8917 8.0984 28.4313C9.29318 31.6027 11.2938 33.8599 14.818 34.4052C15.2591 34.4733 15.5357 34.7019 15.68 35.1229C15.8083 35.4997 15.9406 35.8806 16.1171 36.2374C16.2975 36.5943 16.5942 36.8108 17.0151 36.6344C17.4321 36.462 17.5043 36.0971 17.372 35.7162C17.1996 35.2151 17.0031 34.7139 16.7545 34.2488C16.5741 33.912 16.5942 33.6554 16.7626 33.3267C17.372 32.1519 17.5724 30.873 17.6486 29.165C17.2998 25.729 15.5958 22.73 12.224 20.7775C11.0894 20.12 9.83845 19.7511 8.53942 19.5947C7.28049 19.4464 6.80338 19.9235 6.88357 21.1784C6.94371 22.0084 7.00786 22.8383 7.07602 23.6642ZM9.14483 21.0261C9.44152 21.0942 9.74222 21.1464 10.0349 21.2346C13.3466 22.2249 16.089 25.6248 16.3777 29.0888C16.4739 30.2555 16.1612 31.763 15.5638 32.7533C13.527 28.728 11.7669 24.6946 9.03257 21.2105C9.06465 21.1504 9.10474 21.0902 9.14483 21.0261ZM14.1445 32.7974C12.3844 32.3604 11.3099 31.3621 10.4639 30.0952C9.31723 28.3792 8.72385 26.4507 8.47126 24.418C8.34698 23.3996 8.29485 22.3732 8.27481 21.3268C10.4719 24.9632 12.2801 28.7841 14.1445 32.7974Z" fill="#333333"/>
<path d="M41.7364 35.8574C42.851 37.4731 44.7915 38.0545 46.1186 39.4016C46.1426 39.4257 46.1747 39.4497 46.2028 39.4497C46.4193 39.4337 46.74 39.4898 46.8242 39.3776C46.9525 39.2012 46.9926 38.8804 46.9204 38.6679C46.8402 38.4354 46.6117 38.2429 46.4193 38.0625C46.0304 37.7017 45.6254 37.3649 45.2606 37.0482C45.5693 36.2463 45.89 35.5888 46.0825 34.8911C46.8242 32.2169 46.8723 29.4866 46.4594 26.7722C46.1105 24.4749 45.5412 22.2096 45.0521 19.9363C44.9559 19.4833 44.8195 19.0342 44.6552 18.5972C44.3104 17.6951 43.721 17.5027 42.9793 18.1241C42.5302 18.501 42.1092 18.9741 41.8446 19.4913C41.0748 20.9988 40.313 22.5223 39.6956 24.098C38.9539 25.9864 38.7895 27.971 39.1062 29.9877C39.4551 32.1888 40.5015 34.0652 41.7364 35.8574ZM43.4042 20.0245C43.4804 19.7078 43.5766 19.3951 43.721 18.8658C43.8733 19.3029 43.9856 19.5354 44.0297 19.78C44.5228 22.354 45.1082 24.9159 45.461 27.5099C45.7818 29.8875 45.6414 32.2851 44.9959 34.6265C44.7754 35.4284 44.7634 35.4605 44.2101 36.106C44.0016 35.7371 43.7611 35.4284 43.6368 35.0756C43.0033 33.2834 42.5944 31.4471 42.5703 29.5266C42.5302 26.3272 42.6425 23.1478 43.4042 20.0245ZM42.1012 21.4278C41.9088 23.4204 41.6882 25.4892 41.5158 27.5621C41.3434 29.6269 41.5399 31.6716 41.9529 33.7204C39.3268 30.2964 39.5633 25.4171 42.1012 21.4278Z" fill="#333333"/>
</g>
<defs>
<filter id="filter0_d" x="-11.2637" y="-32.1985" width="225.552" height="207.607" filterUnits="userSpaceOnUse" color-interpolation-filters="sRGB">
<feFlood flood-opacity="0" result="BackgroundImageFix"/>
<feColorMatrix in="SourceAlpha" type="matrix" values="0 0 0 0 0 0 0 0 0 0 0 0 0 0 0 0 0 0 127 0" result="hardAlpha"/>
<feOffset dy="5"/>
<feGaussianBlur stdDeviation="20"/>
<feColorMatrix type="matrix" values="0 0 0 0 0 0 0 0 0 0 0 0 0 0 0 0 0 0 0.05 0"/>
<feBlend mode="normal" in2="BackgroundImageFix" result="effect1_dropShadow"/>
<feBlend mode="normal" in="SourceGraphic" in2="effect1_dropShadow" result="shape"/>
</filter>
<clipPath id="clip0">
<rect width="225" height="165.114" fill="white"/>
</clipPath>
</defs>
</svg>
