<svg width="18" height="19" viewBox="0 0 18 19" fill="none" xmlns="http://www.w3.org/2000/svg">
<path fill-rule="evenodd" clip-rule="evenodd" d="M2.5 3.5C1.94772 3.5 1.5 3.94772 1.5 4.5V5.5C1.5 6.05228 1.94771 6.5 2.5 6.5H14.75C15.3023 6.5 15.75 6.05228 15.75 5.5V4.5C15.75 3.94772 15.3023 3.5 14.75 3.5H2.5ZM7.75 8C7.19772 8 6.75 8.44772 6.75 9V14.5C6.75 15.0523 7.19772 15.5 7.75 15.5H14.75C15.3023 15.5 15.75 15.0523 15.75 14.5V9C15.75 8.44772 15.3023 8 14.75 8H7.75Z" fill="#7D7D8C"/>
<rect opacity="0.3" x="1.5" y="8" width="3.75" height="7.5" rx="1" fill="#7D7D8C"/>
</svg>
