<svg width="54" height="54" viewBox="0 0 54 54" fill="none" xmlns="http://www.w3.org/2000/svg">
<rect width="54" height="54" rx="27" fill="#0D4EE3"/>
<g clip-path="url(#clip0_387_23918)">
<path d="M13.6661 14.1995C13.9607 14.1995 14.1995 13.9607 14.1995 13.6661C14.1995 13.3716 13.9607 13.1328 13.6661 13.1328C13.3716 13.1328 13.1328 13.3716 13.1328 13.6661C13.1328 13.9607 13.3716 14.1995 13.6661 14.1995Z" fill="white"/>
<path d="M15.8009 14.1995C16.0955 14.1995 16.3342 13.9607 16.3342 13.6661C16.3342 13.3716 16.0955 13.1328 15.8009 13.1328C15.5064 13.1328 15.2676 13.3716 15.2676 13.6661C15.2676 13.9607 15.5064 14.1995 15.8009 14.1995Z" fill="white"/>
<path d="M17.9337 14.1995C18.2283 14.1995 18.4671 13.9607 18.4671 13.6661C18.4671 13.3716 18.2283 13.1328 17.9337 13.1328C17.6392 13.1328 17.4004 13.3716 17.4004 13.6661C17.4004 13.9607 17.6392 14.1995 17.9337 14.1995Z" fill="white"/>
<path d="M21.6661 14.1995H26.9995C27.294 14.1995 27.5328 13.9607 27.5328 13.6661C27.5328 13.3716 27.294 13.1328 26.9995 13.1328H21.6661C21.3716 13.1328 21.1328 13.3716 21.1328 13.6661C21.1328 13.9607 21.3716 14.1995 21.6661 14.1995Z" fill="white"/>
<path d="M41.4 28.0667H37.6667V13.6667C37.6649 12.1946 36.472 11.0018 35 11H13.6667C12.1946 11.0018 11.0018 12.1946 11 13.6667V33.9333C11.0018 35.4054 12.1946 36.5982 13.6667 36.6H16.3333V41.4C16.3333 42.2837 17.0497 43 17.9333 43H41.4C42.2837 43 43 42.2837 43 41.4V29.6667C43 28.783 42.2837 28.0667 41.4 28.0667ZM13.6667 12.0667H35C35.8837 12.0667 36.6 12.783 36.6 13.6667V15.2667H12.0667V13.6667C12.0667 12.783 12.783 12.0667 13.6667 12.0667ZM13.6667 35.5333C12.783 35.5333 12.0667 34.817 12.0667 33.9333V16.3333H36.6V28.0667H32.3253C32.3096 26.2976 31.6356 24.5978 30.4347 23.2987C29.1291 21.9102 27.3058 21.126 25.4 21.1333H23.2667V20.2C23.269 19.7331 22.9986 19.3078 22.5749 19.1118C22.1511 18.9158 21.6519 18.985 21.2976 19.2891L18.3483 21.8267C18.0839 22.0537 17.9318 22.3849 17.9318 22.7333C17.9318 23.0818 18.0839 23.4129 18.3483 23.64L21.2971 26.1787C21.6515 26.4832 22.1512 26.5526 22.5752 26.3562C22.9993 26.1599 23.2696 25.734 23.2667 25.2667V24.3333H25.4C25.9639 24.3213 26.5225 24.4448 27.0288 24.6933C28.3162 25.3245 29.1325 26.6329 29.1333 28.0667H17.9333C17.509 28.0667 17.102 28.2352 16.802 28.5353C16.5019 28.8354 16.3333 29.2423 16.3333 29.6667V35.5333H13.6667ZM23.2667 22.2H25.4C27.0126 22.1944 28.5551 22.8582 29.6597 24.0331C30.6733 25.1336 31.2433 26.5706 31.2597 28.0667H30.2C30.2027 26.2334 29.1629 24.558 27.5189 23.7467C26.8613 23.4191 26.1346 23.2545 25.4 23.2667H23.2667C22.6776 23.2667 22.2 23.7442 22.2 24.3333V25.2667C22.2027 25.319 22.1728 25.3676 22.1248 25.3888C22.0812 25.411 22.0283 25.4031 21.9931 25.3691L19.0443 22.8309C19.0159 22.8064 18.9997 22.7708 18.9997 22.7333C18.9997 22.6959 19.0159 22.6602 19.0443 22.6357L21.9941 20.0976C22.0288 20.063 22.082 20.055 22.1253 20.0779C22.1731 20.0992 22.2028 20.1478 22.2 20.2V21.1333C22.2 21.7224 22.6776 22.2 23.2667 22.2ZM41.9333 41.4C41.9333 41.6946 41.6946 41.9333 41.4 41.9333H17.9333C17.6388 41.9333 17.4 41.6946 17.4 41.4V29.6667C17.4 29.3721 17.6388 29.1333 17.9333 29.1333H41.4C41.6946 29.1333 41.9333 29.3721 41.9333 29.6667V41.4Z" fill="white"/>
<path d="M40.3335 32.3811C39.4369 32.3665 38.7213 31.6291 38.7335 30.7326C38.7335 30.438 38.4947 30.1992 38.2001 30.1992H21.1335C20.8389 30.1992 20.6001 30.438 20.6001 30.7326C20.6123 31.6291 19.8967 32.3665 19.0001 32.3811C18.7056 32.3811 18.4668 32.6199 18.4668 32.9144V38.1507C18.4668 38.4452 18.7056 38.684 19.0001 38.684C19.8967 38.6986 20.6123 39.436 20.6001 40.3326C20.6001 40.6271 20.8389 40.8659 21.1335 40.8659H38.2001C38.4947 40.8659 38.7335 40.6271 38.7335 40.3326C38.7213 39.436 39.4369 38.6986 40.3335 38.684C40.628 38.684 40.8668 38.4452 40.8668 38.1507V32.9144C40.8668 32.6199 40.628 32.3811 40.3335 32.3811ZM33.9335 35.5326C33.9335 37.889 32.0232 39.7992 29.6668 39.7992C27.3104 39.7992 25.4001 37.889 25.4001 35.5326C25.4001 33.1761 27.3104 31.2659 29.6668 31.2659C32.0221 31.2685 33.9308 33.1772 33.9335 35.5326ZM21.6135 39.7992C21.4085 38.7377 20.5901 37.9009 19.5335 37.6723V33.3928C20.5901 33.1643 21.4085 32.3274 21.6135 31.2659H26.4791C25.1282 32.268 24.3317 33.8506 24.3317 35.5326C24.3317 37.2145 25.1282 38.7971 26.4791 39.7992H21.6135ZM39.8001 37.6723C38.7435 37.9009 37.9251 38.7377 37.7201 39.7992H32.8529C34.2038 38.7971 35.0003 37.2145 35.0003 35.5326C35.0003 33.8506 34.2038 32.268 32.8529 31.2659H37.7201C37.9251 32.3274 38.7435 33.1643 39.8001 33.3928V37.6723Z" fill="white"/>
<path d="M29.6658 36.0673C29.9246 36.0676 30.1459 36.2535 30.1906 36.5084C30.2354 36.7632 30.0908 37.0135 29.8476 37.1019C29.6044 37.1903 29.3328 37.0914 29.2034 36.8673C29.0518 36.6222 28.7327 36.5419 28.4831 36.6861C28.2335 36.8303 28.1436 37.1468 28.2802 37.4007C28.4739 37.7253 28.7762 37.9709 29.1336 38.094V38.2007C29.1336 38.4952 29.3724 38.734 29.6669 38.734C29.9615 38.734 30.2002 38.4952 30.2002 38.2007V38.1025C30.9346 37.8439 31.3752 37.0932 31.243 36.3259C31.1109 35.5586 30.4444 34.9987 29.6658 35.0007C29.4071 35.0004 29.1858 34.8144 29.1411 34.5596C29.0963 34.3047 29.2409 34.0545 29.4841 33.9661C29.7273 33.8777 29.9989 33.9766 30.1282 34.2007C30.2799 34.4458 30.599 34.5261 30.8486 34.3819C31.0982 34.2377 31.1881 33.9212 31.0514 33.6673C30.8581 33.3429 30.5562 33.0973 30.1992 32.974V32.8673C30.1992 32.5728 29.9604 32.334 29.6658 32.334C29.3713 32.334 29.1325 32.5728 29.1325 32.8673V32.9655C28.3984 33.224 27.9577 33.9744 28.0896 34.7415C28.2215 35.5087 28.8875 36.0688 29.6658 36.0673Z" fill="white"/>
</g>
<defs>
<clipPath id="clip0_387_23918">
<rect width="32" height="32" fill="white" transform="translate(11 11)"/>
</clipPath>
</defs>
</svg>
