<svg width="80" height="80" viewBox="0 0 80 80" fill="none" xmlns="http://www.w3.org/2000/svg">
<path d="M80 0H0V80H80V0Z" fill="url(#paint0_linear)"/>
<path d="M78 2H2V78H78V2Z" fill="white"/>
<path d="M37.106 41.188H42.969V59.001H37.106V41.188Z" fill="#D92400"/>
<path d="M44.824 41.188H56.699V57.145C56.699 57.637 56.504 58.1088 56.156 58.4567C55.808 58.8045 55.336 59 54.844 59H44.824V41.188Z" fill="#411512"/>
<path d="M23.301 41.188H35.25V59.001H25.156C24.912 59.001 24.671 58.953 24.446 58.8597C24.221 58.7664 24.016 58.6297 23.844 58.4573C23.672 58.2849 23.535 58.0803 23.442 57.8552C23.349 57.63 23.301 57.3887 23.301 57.145V41.188Z" fill="#411512"/>
<path d="M22.781 30.0551H35.25V38.9611H22.781C22.309 38.9611 21.856 38.7734 21.522 38.4394C21.188 38.1054 21 37.6524 21 37.1801V31.8361C21 31.3637 21.188 30.9107 21.522 30.5767C21.856 30.2427 22.309 30.0551 22.781 30.0551Z" fill="#411512"/>
<path d="M37.105 30.0551H42.968V38.9611H37.105V30.0551Z" fill="#D92400"/>
<path d="M44.824 30.0551H57.219C57.691 30.0551 58.144 30.2427 58.478 30.5767C58.812 30.9107 59 31.3637 59 31.8361V37.1801C59 37.6524 58.812 38.1054 58.478 38.4394C58.144 38.7734 57.691 38.9611 57.219 38.9611H44.824V30.0551Z" fill="#411512"/>
<path d="M44.3019 27.828C45.8079 27.8307 47.2539 27.238 48.3249 26.1791C49.3959 25.1202 50.0049 23.6809 50.0189 22.175C50.0189 22.154 50.0189 22.134 50.0189 22.113V21H48.9059C47.0429 21.0353 45.2259 21.5835 43.6539 22.5843C42.0819 23.5851 40.8159 24.9998 39.9959 26.673C39.1789 25.0038 37.9179 23.5916 36.3519 22.591C34.7859 21.5904 32.9749 21.0399 31.1169 21H30.0039V22.113C30.0039 22.134 30.0039 22.154 30.0039 22.175C30.0179 23.6809 30.6269 25.1202 31.6979 26.1791C32.7689 27.238 34.2149 27.8307 35.7209 27.828H44.3019Z" fill="#D92400"/>
<defs>
<linearGradient id="paint0_linear" x1="4.8" y1="-1.20779e-06" x2="80" y2="85.52" gradientUnits="userSpaceOnUse">
<stop stop-color="#D92400"/>
<stop offset="0.527" stop-color="#D90039" stop-opacity="0.098"/>
<stop offset="1" stop-color="#D90039"/>
</linearGradient>
</defs>
</svg>
