<svg width="203" height="216" viewBox="0 0 203 216" fill="none" xmlns="http://www.w3.org/2000/svg">
<path fill-rule="evenodd" clip-rule="evenodd" d="M101.633 0.0157017C133.607 -0.634835 161.951 19.0061 181.276 44.5592C199.977 69.2884 207.188 100.576 200.62 130.905C193.961 161.658 174.89 188.295 147.02 202.76C118.107 217.765 83.5161 221.215 54.2778 206.857C25.2481 192.6 7.00293 163.118 1.32118 131.208C-4.03083 101.151 7.41523 71.9497 25.9419 47.7195C45.0186 22.77 70.2872 0.653441 101.633 0.0157017Z" fill="#FFF2E8"/>
<path d="M149.438 101.75H140.062C139.895 101.752 139.728 101.78 139.568 101.831C138.184 102.292 136.728 102.982 135.185 103.713C131.459 105.479 127.236 107.48 123.254 106.485C117.517 104.226 116.354 98.568 108.309 98.63C107.245 96.7065 107.146 94.4028 107.25 92.2116C110.081 90.2327 111.938 86.9518 111.938 83.2434V75.188C111.94 72.2212 110.726 69.4059 108.637 67.3684C109.72 62.6222 105.901 57.9462 101 58.0005C96.0986 57.946 92.2803 62.6223 93.3631 67.3684C91.3287 69.3557 90.0625 72.1263 90.0625 75.188V83.2436C90.0625 86.9518 91.9191 90.2329 94.75 92.2118C94.7826 94.2063 94.9465 96.8434 93.7223 98.6288C85.3568 98.6274 84.5664 104.289 78.8186 106.468C73.7648 107.479 70.1859 105.609 66.7248 103.8C65.2625 103.036 63.8811 102.314 62.4318 101.831C62.2723 101.779 62.1053 101.753 61.9377 101.75H52.5625C51.6996 101.75 51 102.45 51 103.313C51 107.621 54.5047 111.125 58.8125 111.125H61.1418C64.9209 116.022 72.7465 118.902 78.5043 118.901C78.541 118.901 78.5775 118.901 78.6143 118.901C82.3758 118.877 86.5521 117.432 89.1305 116.364C89.8018 118.802 90.751 123.864 89.5777 128.785C88.0533 135.178 83.4193 138.415 81.8031 139.37L70.8648 136.49C59.5223 134.03 56.1742 147.975 67.4252 150.646L90.7455 155.144C92.082 157.374 95.333 158.409 98.0609 157.762L134.492 150.036C134.509 150.033 134.526 150.029 134.543 150.025C139.161 148.883 142.2 144.791 141.318 140.902C140.939 139.228 139.871 137.776 138.312 136.815C136.342 135.599 133.777 135.257 131.274 135.876C131.257 135.88 131.24 135.885 131.223 135.89L119.798 139.124C117.921 137.925 113.835 134.71 112.422 128.784C111.249 123.863 112.198 118.802 112.87 116.364C115.448 117.432 119.624 118.877 123.386 118.901C123.423 118.901 123.459 118.901 123.496 118.901C129.254 118.901 137.079 116.022 140.858 111.125H143.188C147.495 111.125 151 107.621 151 103.313C151 102.45 150.3 101.75 149.438 101.75ZM60.375 108C57.8758 108.272 55.2133 107.396 54.3928 104.875H60.375V108ZM101 61.1255C103.434 61.1255 105.439 62.9602 105.666 65.2981C102.871 63.9138 99.1295 63.9138 96.3344 65.2981C96.5607 62.9602 98.5664 61.1255 101 61.1255ZM93.1875 75.188C93.1875 70.8802 96.6922 67.3755 101 67.3755C103.911 67.3755 106.454 68.977 107.797 71.3442C105.766 73.0329 103.432 74.3977 100.842 75.4081C98.4344 76.3473 95.866 76.9507 93.1877 77.2102V75.188H93.1875ZM93.1875 83.2436V80.3487C96.2602 80.0788 99.2111 79.3989 101.978 78.3194C104.463 77.3497 106.743 76.0852 108.784 74.5477C108.801 74.7591 108.812 83.2436 108.812 83.2436C108.812 87.5514 105.308 91.0561 101 91.0561C96.6922 91.0561 93.1875 87.5514 93.1875 83.2436ZM104.138 95.7022C104.405 97.6475 105.037 98.8749 105.618 100.296C104.832 103.491 103.414 106.258 101.396 108.524C101.267 108.668 101.134 108.811 101 108.952C100.865 108.811 100.733 108.668 100.604 108.524C98.5889 106.262 97.1723 103.5 96.3859 100.312C97.4443 98.4692 98.0939 96.1485 97.8748 93.7237C99.8389 94.3294 102.161 94.3294 104.125 93.7237C104.129 93.8214 104.113 95.6764 104.138 95.7022ZM89.9703 151.812L68.0436 147.583C60.8721 145.826 62.8938 138.034 70.0951 139.518L95.1338 146.111C92.2375 147.011 90.2303 149.316 89.9703 151.812ZM120.002 142.314C120.017 142.31 120.033 142.306 120.047 142.301L132.048 138.904C133.733 138.493 135.417 138.701 136.671 139.474C137.265 139.841 138.024 140.505 138.271 141.593C138.768 143.789 136.73 146.254 133.817 146.985L97.4125 154.705C95.3783 155.136 93.4496 154.293 93.1164 152.823C92.7762 151.321 94.1568 149.631 96.1941 149.054L120.002 142.314ZM116.013 140.196L101.039 144.435L85.7367 140.405C87.6037 138.875 89.9301 136.428 91.4848 132.889C98.5893 135.261 103.404 135.264 110.515 132.889C112.001 136.271 114.192 138.655 116.013 140.196ZM138.5 109.068C135.481 113.136 128.374 115.811 123.406 115.776C120.576 115.758 116.534 114.658 112.594 112.833C111.822 112.475 110.906 112.801 110.533 113.565C109.996 114.494 107.519 122.783 109.491 129.93C103.354 132.065 98.6521 132.067 92.5092 129.93C94.4807 122.776 92.0051 114.503 91.4668 113.565C91.0938 112.801 90.1775 112.475 89.4059 112.833C85.466 114.658 81.4244 115.758 78.5941 115.776C78.565 115.776 78.5357 115.776 78.5063 115.776C73.5455 115.776 66.5018 113.111 63.5002 109.068V105.663C64.0785 105.944 64.6701 106.252 65.2777 106.569C68.1568 108.074 71.6031 109.875 76.0445 109.875C77.1139 109.875 78.2412 109.771 79.4318 109.533C85.0104 108.256 87.2463 101.455 93.5377 101.766C94.4777 105.158 96.0654 108.126 98.2711 110.602C100.504 113.315 101.5 113.309 103.729 110.602C105.935 108.126 107.523 105.158 108.463 101.767C114.687 101.503 117.013 108.085 122.496 109.516C123.493 109.766 124.486 109.874 125.469 109.874C129.48 109.874 133.317 108.057 136.524 106.537C137.204 106.215 137.865 105.902 138.5 105.618V109.068H138.5ZM143.188 108H141.625V104.875H147.607C146.962 106.694 145.225 108 143.188 108Z" fill="black"/>
</svg>
