<svg width="269" height="200" viewBox="0 0 269 200" fill="none" xmlns="http://www.w3.org/2000/svg">
<g clip-path="url(#clip0)">
<path d="M0.5 10C0.5 4.7533 4.75329 0.5 10 0.5H259C264.247 0.5 268.5 4.75329 268.5 10V190C268.5 195.247 264.247 199.5 259 199.5H9.99999C4.75329 199.5 0.5 195.247 0.5 190V10Z" fill="#FBFBFB"/>
<rect width="269" height="200" fill="white"/>
<path opacity="0.1" d="M0 0C0 0 75.3493 0 134.5 0C193.651 0 269 0 269 0V200H0L0 0Z" fill="#F29FA4"/>
<path fill-rule="evenodd" clip-rule="evenodd" d="M161.545 58.9639C169.757 65.2181 171.51 76.2294 175.613 85.7039C179.028 93.5918 183.132 101.012 183.471 109.602C183.846 119.096 183.142 129.051 177.631 136.792C171.863 144.893 162.635 149.751 153.038 152.35C143.235 155.004 132.617 155.606 123.333 151.494C114.174 147.437 109.454 138.018 103.134 130.246C95.6147 120.999 84.1103 113.673 82.9323 101.81C81.6973 89.371 88.7506 77.4493 96.9553 68.0181C105.101 58.655 116.007 51.3903 128.294 49.6679C139.978 48.03 152.159 51.8162 161.545 58.9639Z" fill="#F29FA4"/>
<path d="M144.896 51.5475C145.034 52.4124 145.173 53.282 145.152 54.1699C145.136 54.791 145.182 55.412 145.231 56.0354C145.319 57.1488 145.291 58.2713 145.346 59.3893C145.407 60.613 145.446 61.8483 145.268 63.0743C145.15 63.8886 145.143 64.7191 145.011 65.5288C144.75 67.1344 144.473 68.74 144.056 70.3157C143.622 71.965 143.092 73.5867 142.537 75.1992C142.255 76.0158 141.927 76.814 141.548 77.5915C140.864 78.9993 140.02 80.3151 139.088 81.5734C138.346 82.5763 137.597 83.5815 136.674 84.4349C136.23 84.8467 135.759 85.2285 135.282 85.6035C134.24 86.4247 133.158 87.1838 131.911 87.6853C130.381 88.3018 128.834 88.5364 127.223 88.0418C126.749 87.8969 126.259 87.8026 125.782 87.66C124.471 87.2689 123.174 86.8365 122.06 86.0107C121.168 85.3505 120.393 84.5707 119.681 83.7196C118.795 82.6614 117.931 81.5895 117.179 80.4347C116.608 79.556 116.093 78.6451 115.547 77.7503C114.643 76.2666 113.959 74.6794 113.212 73.1244C112.625 71.9006 112.148 70.6239 111.691 69.345C111.309 68.2753 110.935 67.1988 110.722 66.0785C110.666 65.791 110.572 65.5104 110.532 65.2228C110.507 65.0342 110.491 64.8456 110.426 64.6661C110.454 65.071 110.486 65.4736 110.525 65.8761C110.863 69.4094 111.658 72.8437 112.944 76.1608C114.227 79.4663 115.933 82.5234 118.326 85.1687C119.836 86.8365 121.547 88.2649 123.579 89.261C127.674 91.2714 131.71 91.1403 135.655 88.84C137.611 87.6991 139.222 86.1648 140.614 84.3981C143.12 81.2214 144.734 77.61 145.795 73.7408C146.854 69.8809 147.289 65.9428 147.222 61.9472C147.143 57.2155 146.334 52.6195 144.69 48.173C144.214 46.8871 143.663 45.6519 143.025 44.4718C143.372 45.4655 143.707 46.4616 143.975 47.4783C144.338 48.824 144.674 50.1743 144.896 51.5475Z" fill="#F29FA4"/>
<path d="M143.005 105.922C141.814 107.919 141.111 110.104 140.565 112.349C139.946 114.9 139.611 117.483 139.587 120.612C139.59 122.413 139.86 124.697 140.286 126.958C140.896 130.195 141.64 133.401 142.697 136.525C144.304 141.266 145.784 146.046 147.092 150.874C148.089 154.555 148.805 158.295 149.226 162.086C149.335 163.061 149.356 164.046 149.386 165.028C149.471 165.279 149.598 165.562 149.749 165.659C150.204 165.948 149.996 164.906 150.003 164.771C150.53 154.514 148.308 143.803 145.148 134.059C142.484 125.847 140.323 116.121 144.154 107.898C145.562 104.873 147.76 102.281 150.102 99.8951C151.263 98.7128 152.47 97.5672 153.818 96.6011C154.456 96.1434 155.189 95.589 155.415 94.8943C153.718 95.8604 152.058 96.884 150.465 98.0135C147.451 100.148 144.903 102.738 143.005 105.922Z" fill="#F29FA4"/>
<path d="M174.141 87.7831C173.324 88.885 172.756 90.1202 172.224 91.3808C171.674 92.6851 171.061 93.9641 170.441 95.2384C169.847 96.4622 168.899 97.3869 167.796 98.1598C167.602 98.2955 167.383 98.399 167.163 98.4957C167.024 98.5578 166.881 98.5601 166.761 98.5026C166.613 98.8315 166.546 99.1696 166.638 99.4825C166.814 100.069 167.535 100.345 168.139 100.235C170.451 99.8137 171.727 96.9683 172.721 95.1625C173.942 92.9427 174.98 90.6286 176.071 88.3444C176.936 86.5318 177.83 84.7306 178.871 83.0123C179.527 81.9266 181.393 79.9138 181.215 78.4209C180.612 79.1961 180.006 79.969 179.414 80.7534C177.648 83.0882 175.886 85.4276 174.141 87.7831Z" fill="#F29FA4"/>
<path d="M188.155 43.5331C187.741 44.0299 187.233 44.3221 186.898 44.9363C186.405 45.838 186.144 46.8179 186.01 47.8231C185.765 49.6634 185.547 51.5105 185.337 53.3554C185.131 55.1473 184.84 56.9208 184.35 58.6507C184.371 58.6829 184.391 58.7105 184.421 58.7266C184.771 58.9313 185.314 58.2849 185.436 58.0227C185.705 57.4522 185.783 56.8081 185.982 56.2123C186.622 54.3008 187.122 52.2765 187.399 50.3305C187.587 49.0193 187.524 47.6575 187.943 46.3855C188.148 45.7575 188.456 45.164 188.985 44.7476C189.36 44.4532 190.308 44.2623 190.056 43.6067C189.792 42.9235 189.11 42.8798 188.389 43.1098C188.389 43.119 188.393 43.1282 188.393 43.1351C188.391 43.2846 188.28 43.3813 188.155 43.5331Z" fill="#F29FA4"/>
<path d="M84.0159 43.1648C85.3661 47.7102 87.084 52.1061 89.4214 56.2489C89.6017 56.5664 89.7913 56.8815 89.7867 57.406C89.641 57.1414 89.5578 56.9873 89.4676 56.8355C88.5567 55.3196 87.6966 53.7738 86.7164 52.3016C86.0875 51.3562 85.2968 50.5166 84.5546 49.6494C84.3558 49.417 84.0899 49.2238 83.8194 49.0743C83.4171 48.8535 83.0842 49.0329 83.0056 49.486C82.9778 49.6448 82.9825 49.8196 83.0102 49.9783C83.0726 50.321 83.142 50.6661 83.2391 50.9996C84.1523 54.0912 85.5026 56.9827 87.262 59.6879C88.8434 62.1193 90.6606 64.369 92.575 66.5428C92.7414 66.7337 92.8917 66.9545 92.9888 67.1846C93.8466 69.2433 94.8361 71.2377 95.9204 73.186C95.9967 73.3241 96.0638 73.469 96.1354 73.6093C95.9042 73.4943 95.7493 73.3287 95.5944 73.1584C94.4269 71.8772 93.2686 70.5867 92.0871 69.3192C90.8895 68.0334 89.5254 66.9292 88.1174 65.8803C87.8816 65.7055 87.625 65.5582 87.366 65.4156C87.1418 65.2914 86.9013 65.273 86.6909 65.4524C86.4828 65.6319 86.469 65.8757 86.543 66.1126C86.6193 66.3565 86.7117 66.6003 86.832 66.828C87.4285 67.9529 88.0804 69.0478 88.9451 69.9932C89.8283 70.9571 90.7207 71.9186 91.6687 72.8203C93.7841 74.8308 96.0545 76.6618 98.3688 78.4376C99.3722 79.2082 100.309 80.0225 100.984 81.106C101.139 81.3544 101.342 81.5752 101.518 81.8122C101.583 81.8996 101.633 81.9985 101.691 82.0928C101.398 81.9548 101.169 81.7685 100.928 81.5983C99.3792 80.4964 97.8463 79.3716 96.2695 78.3111C95.7124 77.9362 95.0557 77.6969 94.4269 77.437C94.198 77.3427 93.9182 77.3312 93.6662 77.3404C93.1507 77.3588 92.9079 77.7429 93.0952 78.2191C93.1599 78.387 93.2663 78.5457 93.3772 78.6907C94.9517 80.7103 96.7412 82.5023 98.896 83.9193C101.062 85.3408 103.347 86.5462 105.707 87.6066C106.244 87.8482 106.805 88.0437 107.369 88.2139C107.677 88.3059 107.947 88.4278 108.199 88.6257C109.261 89.4607 110.368 90.229 111.605 90.788C112.109 91.0157 112.634 91.1951 113.154 91.3814C113.339 91.4481 113.529 91.4205 113.647 91.2365C113.776 91.0341 113.718 90.8409 113.556 90.689C113.422 90.5648 113.267 90.459 113.112 90.3624C112.125 89.7482 111.138 89.1363 110.148 88.5268C109.767 88.2921 109.492 88.0046 109.517 87.5123C109.524 87.372 109.464 87.2248 109.425 87.0822C108.532 83.9055 107.964 80.6666 107.471 77.4071C107.208 75.6635 106.835 73.9359 106.482 72.2061C106.345 71.539 106.119 70.888 105.712 70.3268C105.522 70.0645 105.284 69.8115 105.014 69.6367C104.618 69.3813 104.197 69.5332 104.005 69.9633C103.911 70.1772 103.844 70.4211 103.832 70.6534C103.795 71.3688 103.751 72.0865 103.781 72.8019C103.876 75.1114 104.299 77.368 104.935 79.5855C105.589 81.8697 106.315 84.1286 107.524 86.1989C107.547 86.238 107.534 86.2955 107.541 86.3783C107.439 86.3001 107.363 86.2472 107.298 86.1851C105.774 84.7566 104.348 83.2384 103.053 81.6029C102.852 81.3498 102.711 81.037 102.595 80.731C101.751 78.5043 101.252 76.1833 100.718 73.8715C100.193 71.5965 99.7029 69.3123 99.1549 67.0419C98.8266 65.6802 98.3619 64.3575 97.6683 63.1314C97.4464 62.7404 97.1412 62.3677 96.7944 62.0802C96.2557 61.6339 95.7008 61.8341 95.5251 62.5034C95.4372 62.837 95.3979 63.1935 95.3956 63.5386C95.3864 65.3558 95.6222 67.1455 96.2326 68.8569C96.9169 70.7776 97.6984 72.6662 98.4382 74.5708C98.5029 74.7365 98.5723 74.8998 98.6393 75.0631C97.4972 73.5081 94.9979 68.781 94.3552 67.081C94.2974 66.9292 94.2535 66.7613 94.2489 66.6003C94.2095 65.4064 94.1263 64.2103 94.161 63.0164C94.2327 60.5528 94.3945 58.0915 94.4708 55.6278C94.5217 54.0107 94.554 52.389 94.4777 50.7765C94.4361 49.907 94.1702 49.0444 93.9506 48.1933C93.8604 47.8482 93.6547 47.5147 93.435 47.2271C93.0166 46.6751 92.4894 46.728 92.1634 47.3307C92.0594 47.5239 91.9831 47.7355 91.9253 47.9471C91.1277 50.8133 90.8248 53.7232 91.1323 56.6883C91.1785 57.146 91.2271 57.6015 91.2733 58.0593C91.0236 57.4727 90.8826 56.8654 90.7115 56.2673C90.5057 55.5473 90.4271 54.8296 90.6075 54.0912C90.6768 53.806 90.6999 53.5093 90.7346 53.2171C91.0121 50.8041 91.3958 48.4095 91.9045 46.031C92.5172 43.1694 93.0443 40.2917 93.2223 37.3657C93.2593 36.7631 93.2085 36.1558 93.1761 35.5531C93.1668 35.3921 93.1067 35.2265 93.0327 35.0815C92.827 34.6675 92.4478 34.61 92.1472 34.9573C92.0062 35.1207 91.886 35.3185 91.8097 35.5232C91.4721 36.418 91.1022 37.3036 90.8433 38.2215C90.3115 40.1031 90.1173 42.0492 89.8468 43.9791C89.7543 44.6347 89.7867 45.3248 89.5902 45.9436C89.3844 46.5923 89.3405 47.2363 89.3058 47.8919C89.2873 48.2692 89.2734 48.6441 89.2596 49.0214C89.137 48.9386 89.0954 48.8466 89.0746 48.7499C88.5845 46.6176 88.1221 44.4783 87.5995 42.3551C87.1718 40.623 86.6609 38.9093 85.8447 37.3082C85.5372 36.7056 85.1627 36.1305 84.772 35.5761C84.5153 35.2127 84.1639 34.886 83.6506 35.0447C83.1212 35.2081 83.0172 35.6888 82.9802 36.1512C82.9432 36.6066 82.9478 37.0736 82.9894 37.5291C83.1628 39.4383 83.4703 41.3246 84.0159 43.1648ZM104.641 72.3763C104.611 71.776 104.627 71.1802 104.741 70.4832C105.094 70.8282 105.263 71.1733 105.358 71.5367C105.605 72.496 105.857 73.4575 106.035 74.4328C106.574 77.3611 107.076 80.2963 107.601 83.2269C107.7 83.7835 107.834 84.3356 107.867 84.9199C107.799 84.8049 107.716 84.6945 107.668 84.5725C106.045 80.6551 104.849 76.6365 104.641 72.3763ZM105.319 86.1137C105.469 86.2311 105.603 86.3714 105.686 86.5761C105.605 86.5462 105.522 86.5209 105.446 86.4841C103.282 85.4513 101.15 84.3632 99.1457 83.0382C97.2498 81.7846 95.6476 80.225 94.2304 78.4652C94.1864 78.41 94.1541 78.3456 94.0616 78.1984C94.7113 78.3226 95.1783 78.5826 95.6129 78.8839C96.8707 79.7534 98.133 80.6183 99.3561 81.5338C101.361 83.0405 103.335 84.584 105.319 86.1137ZM96.577 67.2421C96.2326 65.9424 96.1008 64.6036 96.1563 63.2556C96.1632 63.1107 96.1817 62.9635 96.2094 62.8209C96.2187 62.7749 96.2695 62.7358 96.3158 62.6737C96.6788 62.8784 96.8915 63.2073 97.0371 63.557C97.4348 64.5231 97.8856 65.4823 98.1538 66.4853C98.7249 68.6315 99.1965 70.8029 99.7052 72.9652C100.027 74.3224 100.341 75.6819 100.66 77.0414C100.697 77.2001 100.732 77.3588 100.792 77.6348C100.676 77.5083 100.625 77.4692 100.6 77.4209C98.9168 74.1614 97.5157 70.7891 96.577 67.2421ZM97.5735 76.6434C97.4209 76.5882 97.3701 76.5836 97.3377 76.556C95.2754 74.8814 93.1969 73.2252 91.2895 71.3711C89.9231 70.0415 88.6584 68.6315 87.7383 66.9476C87.6666 66.8188 87.5949 66.69 87.5325 66.5589C87.5209 66.5336 87.5417 66.4922 87.5602 66.3818C87.7984 66.5635 88.0111 66.7199 88.2192 66.8855C89.5879 67.9828 90.8988 69.1444 92.0709 70.4533C93.768 72.3487 95.4627 74.2465 97.1574 76.1419C97.2753 76.2754 97.3862 76.418 97.5735 76.6434ZM91.7241 53.8635C91.7866 52.0026 92.0709 50.1715 92.5542 48.3727C92.6096 48.1703 92.6906 47.9747 92.7807 47.7171C93.0905 48.0092 93.183 48.329 93.2732 48.6372C93.5691 49.6471 93.731 50.6868 93.7148 51.7357C93.6894 53.4794 93.6131 55.2253 93.5483 56.9689C93.4674 59.1726 93.3772 61.374 93.2917 63.5777C93.2894 63.649 93.2778 63.7226 93.2709 63.7939C93.2362 63.7939 93.1992 63.7962 93.1645 63.7962C92.8871 62.6001 92.5912 61.4108 92.3391 60.2077C91.9022 58.1191 91.6525 56.0051 91.7241 53.8635ZM90.1381 50.2405C90.2213 48.6257 90.2491 47.004 90.4248 45.3961C90.6491 43.3327 90.9358 41.2717 91.3057 39.2313C91.4999 38.1548 91.9299 37.1219 92.2605 36.0707C92.3022 35.9373 92.3854 35.8153 92.4802 35.6267C92.6628 36.0224 92.6189 36.372 92.5819 36.7079C92.4386 37.9684 92.316 39.2336 92.1033 40.4827C91.6178 43.3442 91.0791 46.1989 90.5705 49.0582C90.4525 49.7253 90.3601 50.397 90.1867 51.0686C90.1682 50.7926 90.1242 50.5166 90.1381 50.2405ZM90.9381 61.6063C91.338 62.4597 91.5877 63.3845 91.9068 64.2747C88.7001 61.2912 83.8171 52.6283 83.7269 49.8288C83.9073 50.0013 84.0576 50.1255 84.187 50.2681C84.9847 51.14 85.7106 52.0624 86.3395 53.0653C88.0619 55.8119 89.5624 58.678 90.9381 61.6063ZM83.8009 35.7992C83.8541 35.7808 83.905 35.7624 83.9581 35.744C84.2055 36.1006 84.5084 36.4341 84.691 36.8206C85.1442 37.7844 85.6089 38.7505 85.9511 39.7558C86.9476 42.6817 87.6342 45.6928 88.2793 48.7131C88.5313 49.9001 88.7879 51.0847 89.0168 52.274C89.1555 52.9917 89.2411 53.7186 89.3497 54.4409C89.3127 54.4524 89.2757 54.4662 89.2387 54.4777C89.1902 54.4133 89.1301 54.3558 89.0977 54.2845C87.292 50.275 85.5927 46.2242 84.4668 41.9641C84.0391 40.3423 83.8032 38.6884 83.6576 37.0184C83.6206 36.6043 83.6206 36.1857 83.8009 35.7992Z" fill="black"/>
<path d="M146.979 89.0047C146.935 89.1795 146.771 89.3521 146.616 89.4648C146.153 89.8006 145.677 90.1181 145.191 90.4217C144.581 90.8012 143.952 91.1555 143.34 91.5327C143.185 91.6271 143.016 91.7421 142.93 91.8916C142.861 92.0112 142.859 92.2205 142.919 92.3424C142.967 92.4368 143.162 92.4966 143.291 92.5012C143.43 92.5058 143.573 92.4299 143.714 92.3839C145.374 91.8456 146.814 90.9209 148.179 89.865C148.535 89.589 148.898 89.382 149.344 89.2738C149.806 89.1634 150.255 88.9725 150.692 88.7793C152.923 87.7901 155.075 86.6538 157.145 85.3587C159.491 83.8888 161.449 82.0118 163.14 79.8403C163.262 79.6816 163.382 79.5091 163.454 79.325C163.641 78.8489 163.392 78.4532 162.876 78.4532C162.532 78.4532 162.159 78.4946 161.849 78.6303C161.209 78.9087 160.562 79.2054 159.988 79.5988C158.421 80.6753 156.893 81.8048 155.348 82.9135C155.196 83.0239 155.038 83.1297 154.883 83.2401C155.267 82.6099 155.711 82.0463 156.12 81.4574C156.419 81.0273 156.775 80.6684 157.184 80.3441C158.687 79.1502 160.187 77.9541 161.674 76.7395C163.519 75.2305 165.299 73.6525 166.917 71.902C167.974 70.7587 168.887 69.5119 169.609 68.1341C169.77 67.8258 169.928 67.5038 170.006 67.1702C170.136 66.6251 169.743 66.303 169.225 66.5169C168.957 66.6297 168.702 66.793 168.466 66.9678C167.042 68.0236 165.664 69.1416 164.453 70.4413C163.257 71.7225 162.09 73.0268 160.908 74.3219C160.767 74.476 160.622 74.6255 160.478 74.7773C160.453 74.6301 160.492 74.5335 160.543 74.4438C161.671 72.4333 162.693 70.3746 163.577 68.2468C163.653 68.0651 163.768 67.8902 163.896 67.7361C164.816 66.632 165.761 65.5462 166.663 64.4283C169.049 61.4701 171.042 58.2727 172.408 54.7187C172.85 53.5731 173.16 52.3747 173.509 51.1969C173.569 50.9945 173.562 50.7553 173.52 50.5436C173.442 50.148 173.13 49.9847 172.771 50.171C172.499 50.3136 172.223 50.4999 172.025 50.73C171.269 51.6087 170.464 52.4621 169.824 53.4213C168.843 54.8912 167.983 56.4393 167.072 57.9552C166.982 58.1024 166.904 58.2566 166.818 58.4084C166.765 58.2313 166.781 58.0863 166.832 57.9552C166.897 57.785 166.98 57.6171 167.07 57.4584C167.939 55.9379 168.725 54.3783 169.421 52.7703C170.859 49.4372 172.163 46.0581 172.968 42.5087C173.331 40.91 173.583 39.2906 173.588 37.6459C173.588 37.356 173.551 37.0524 173.463 36.7786C173.236 36.077 172.626 35.893 172.087 36.383C171.766 36.6751 171.463 37.0294 171.266 37.4112C170.785 38.3405 170.291 39.2745 169.939 40.2567C168.829 43.3644 168.14 46.5871 167.484 49.8122C167.461 49.9249 167.417 50.033 167.382 50.1457C167.276 49.681 167.271 49.2302 167.239 48.7793C167.204 48.3216 167.158 47.8638 167.086 47.4106C167.035 47.0886 166.908 46.7781 166.862 46.456C166.758 45.7268 166.709 44.9907 166.589 44.2661C166.309 42.5984 166.064 40.9215 165.68 39.2768C165.449 38.283 164.994 37.3399 164.612 36.3853C164.497 36.0954 164.298 35.8033 163.916 35.8608C163.54 35.9183 163.475 36.2611 163.387 36.5624C163.371 36.6153 163.362 36.6705 163.359 36.7257C163.338 37.2387 163.283 37.754 163.308 38.2646C163.424 40.5465 163.785 42.8008 164.222 45.039C164.802 47.9995 165.417 50.9485 165.778 53.9504C166.08 56.4761 166.131 56.4715 165.477 58.7741C165.438 58.9144 165.378 59.0479 165.329 59.1836C165.32 58.689 165.378 58.2175 165.424 57.7436C165.717 54.7785 165.412 51.8686 164.605 49.0047C164.55 48.8115 164.478 48.6183 164.381 48.4435C164.064 47.8615 163.565 47.8017 163.14 48.3009C162.999 48.4665 162.869 48.6574 162.784 48.8575C162.626 49.2279 162.476 49.6074 162.377 49.9985C162.067 51.1992 161.93 52.4253 161.977 53.6629C162.085 56.5681 162.203 59.4734 162.335 62.3764C162.411 64.0878 162.471 65.797 162.307 67.5038C162.275 67.8442 162.189 68.1939 162.053 68.5067C160.952 71.0439 159.632 73.4708 158.213 75.8424C158.134 75.9735 158.042 76.0931 157.956 76.2173C157.979 76.0011 158.06 75.8194 158.134 75.633C158.791 73.9745 159.463 72.3206 160.097 70.6529C160.707 69.0404 161.038 67.3635 161.126 65.6451C161.158 65.008 161.142 64.3524 161.038 63.7244C160.906 62.9216 160.273 62.7192 159.66 63.2666C159.336 63.5542 159.043 63.9153 158.853 64.3018C158.465 65.0931 158.109 65.9074 157.827 66.7401C157.091 68.9231 156.634 71.1774 156.16 73.4271C155.568 76.2334 154.967 79.0398 154 81.7519C153.843 82.1935 153.626 82.5869 153.33 82.9457C152.118 84.411 150.828 85.805 149.45 87.1162C149.318 87.2404 149.18 87.3577 149.043 87.4773C149.032 87.4566 149.02 87.4382 149.006 87.4175C149.351 86.7067 149.737 86.0143 150.033 85.2851C151.388 81.9635 152.379 78.5452 152.694 74.9568C152.786 73.9124 152.879 72.8635 152.722 71.8168C152.685 71.5638 152.638 71.3039 152.537 71.0715C152.347 70.6414 151.922 70.4942 151.529 70.7518C151.258 70.9266 151.022 71.1797 150.833 71.4442C150.428 72.0055 150.197 72.6565 150.065 73.3235C149.677 75.2903 149.284 77.2548 148.965 79.233C148.583 81.5931 148.209 83.9532 147.621 86.2766C147.392 87.1783 147.212 88.0984 146.979 89.0047ZM167.412 53.9389C168.14 50.5436 168.76 47.1231 169.72 43.7831C170.145 42.3017 170.626 40.8318 171.16 39.3872C171.423 38.6695 171.854 38.0116 172.23 37.3376C172.33 37.1582 172.503 37.0179 172.69 36.8062C172.933 37.2732 172.945 37.6919 172.894 38.1059C172.753 39.2538 172.633 40.4085 172.422 41.5449C171.886 44.4317 170.871 47.176 169.794 49.8927C169.095 51.6524 168.325 53.3822 167.583 55.1259C167.516 55.2869 167.421 55.4364 167.34 55.5905C167.306 55.5813 167.271 55.5698 167.236 55.5606C167.29 55.0177 167.299 54.4657 167.412 53.9389ZM165.581 47.8868C165.167 45.552 164.723 43.2218 164.335 40.8847C164.159 39.8334 164.071 38.7684 163.963 37.708C163.933 37.4089 163.896 37.0938 164.081 36.7004C164.196 36.9627 164.279 37.1398 164.353 37.3192C164.98 38.8443 165.331 40.4384 165.574 42.0601C165.981 44.7538 166.272 47.4566 166.393 50.1779C166.423 50.8358 166.397 51.4983 166.397 52.1585C166.369 52.1631 166.342 52.1654 166.314 52.17C166.071 50.7438 165.833 49.3153 165.581 47.8868ZM165.66 62.6087C166.977 59.8162 168.406 57.0765 170.039 54.4473C170.702 53.3799 171.449 52.3816 172.288 51.45C172.434 51.2866 172.57 51.1164 172.711 50.9485C172.764 50.9761 172.818 51.0014 172.871 51.029C172.815 51.2751 172.774 51.5259 172.702 51.7674C171.83 54.6359 170.54 57.3111 168.922 59.83C167.697 61.7346 166.335 63.5427 164.881 65.2817C164.837 65.3323 164.79 65.3806 164.744 65.4312C164.709 65.4128 164.675 65.3967 164.642 65.3783C164.973 64.4513 165.241 63.4944 165.66 62.6087ZM163.165 50.1434C163.269 49.7017 163.382 49.2555 163.752 48.8069C163.866 49.1359 163.972 49.3935 164.041 49.6603C164.645 51.9698 164.922 54.3138 164.813 56.6993C164.712 58.9283 164.305 61.1112 163.768 63.2735C163.634 63.8187 163.498 64.3662 163.364 64.9113C163.336 64.909 163.311 64.9044 163.283 64.9021C163.274 64.8216 163.26 64.7388 163.255 64.6583C163.114 61.0974 162.975 57.5343 162.832 53.9734C162.784 52.6829 162.869 51.4017 163.165 50.1434ZM159.288 77.3721C161.322 75.1109 163.32 72.8152 165.412 70.6092C166.409 69.558 167.586 68.6746 168.684 67.7177C168.772 67.6418 168.885 67.5912 168.987 67.5291C169.007 67.5475 169.028 67.5659 169.049 67.5843C168.97 67.7407 168.894 67.8994 168.811 68.0536C167.999 69.5372 166.92 70.8162 165.731 72.0101C164.219 73.526 162.592 74.9177 160.927 76.2633C160.326 76.751 159.729 77.2433 159.068 77.6895C159.14 77.5837 159.202 77.4664 159.288 77.3721ZM156.728 74.6002C157.244 72.3827 157.713 70.1537 158.294 67.9523C158.587 66.8413 159.07 65.7786 159.494 64.702C159.639 64.3294 159.88 64.0027 160.305 63.7037C160.344 64.0004 160.391 64.2097 160.398 64.4191C160.446 66.142 160.201 67.8327 159.681 69.4705C158.728 72.4678 157.572 75.3869 156.132 78.191C156.051 78.3497 155.956 78.5038 155.866 78.6579C155.841 78.6441 155.815 78.6303 155.79 78.6165C156.102 77.2778 156.416 75.939 156.728 74.6002ZM151.26 87.1944C153.156 85.7314 155.045 84.2569 156.96 82.8192C158.196 81.8899 159.463 81.002 160.737 80.1209C161.142 79.8403 161.607 79.6425 162.048 79.4193C162.155 79.3664 162.284 79.3595 162.478 79.3158C162.388 79.4585 162.349 79.5367 162.293 79.6034C160.828 81.4206 159.158 83.0147 157.186 84.2891C155.249 85.5428 153.198 86.5894 151.117 87.5831C151.039 87.6222 150.953 87.6475 150.87 87.6797C150.851 87.6498 150.83 87.6199 150.812 87.59C150.962 87.4566 151.103 87.3163 151.26 87.1944ZM148.65 85.6992C149.085 83.3322 149.517 80.9628 149.959 78.5981C150.283 76.8637 150.597 75.127 150.969 73.4041C151.087 72.8589 151.378 72.3482 151.589 71.8214C151.617 71.7524 151.647 71.6834 151.674 71.6144C151.718 71.6351 151.762 71.6558 151.806 71.6765C151.829 71.8099 151.878 71.9434 151.875 72.0768C151.859 72.9946 151.889 73.917 151.804 74.8279C151.452 78.5774 150.345 82.1314 148.921 85.6003C148.861 85.7475 148.77 85.8832 148.696 86.0235C148.676 86.0166 148.655 86.0097 148.634 86.0028C148.636 85.9016 148.632 85.7981 148.65 85.6992Z" fill="black"/>
<path d="M144.906 80.112C147.22 75.3987 148.355 70.384 148.672 65.1716C148.875 61.8154 148.679 58.4777 148.122 55.163C147.419 50.9971 146.168 47.0084 144.147 43.2796C142.48 40.2018 140.376 37.4736 137.574 35.3228C134.499 32.9604 131.041 31.7896 127.136 32.0311C125.055 32.1599 123.092 32.6706 121.316 33.8C119.908 34.6949 118.618 35.7392 117.423 36.8963C114.861 39.3691 113.025 42.3296 111.647 45.5822C109.527 50.59 108.649 55.8392 108.612 61.36C108.646 66.6185 109.553 71.8286 111.539 76.8341C112.887 80.2316 114.69 83.3647 117.187 86.0698C118.701 87.7076 120.41 89.1016 122.401 90.1321C125.459 91.7193 128.675 92.2645 132.072 91.5215C134.694 90.9487 136.975 89.6997 139.001 87.9698C141.553 85.7869 143.44 83.1024 144.906 80.112ZM112.66 47.0636C113.61 44.455 114.838 41.9822 116.53 39.7716C118.419 37.3057 120.824 35.4655 123.721 34.3199C125.852 33.478 128.06 33.3469 130.303 33.9335C133.336 34.7248 135.954 36.2269 138.263 38.327C140.245 40.1282 141.801 42.1939 143.031 44.4734C143.669 45.6535 144.219 46.8888 144.695 48.1746C146.339 52.6211 147.148 57.2171 147.227 61.9488C147.294 65.9468 146.857 69.8826 145.8 73.7425C144.739 77.6116 143.128 81.2231 140.619 84.3998C139.225 86.1664 137.616 87.7007 135.66 88.8417C131.716 91.1397 127.679 91.2708 123.584 89.2626C121.55 88.2643 119.841 86.8381 118.331 85.1704C115.936 82.5227 114.23 79.4679 112.949 76.1624C111.664 72.8454 110.868 69.4133 110.531 65.8778C110.491 65.4752 110.459 65.0704 110.431 64.6678C110.348 63.4946 110.295 62.3192 110.221 61.146C110.272 56.3108 111.002 51.609 112.66 47.0636Z" fill="black"/>
<path d="M169.889 83.3806C172.187 80.6156 174.465 77.8368 176.499 74.8671C177.394 73.5583 178.393 72.3184 179.576 71.2511C180.106 70.7749 180.709 70.3539 181.338 70.025C182.12 69.6155 182.89 69.9905 183.1 70.8462C183.22 71.3385 183.257 71.8629 183.248 72.3713C183.229 73.2753 182.894 74.0896 182.413 74.851C181.475 76.3347 180.402 77.7149 179.248 79.0353C177.061 81.5334 175.029 84.1558 173.075 86.8402C172.204 88.0387 171.51 89.336 170.997 90.7254C170.863 91.0889 170.719 91.4477 170.574 91.8043C169.686 93.985 168.629 96.0598 166.837 97.67C166.782 97.7183 166.733 97.7759 166.687 97.8334C166.553 98.0013 166.458 98.1968 166.611 98.3854C166.655 98.4406 166.708 98.4797 166.766 98.5073C166.888 98.5649 167.029 98.5626 167.168 98.5004C167.385 98.4038 167.607 98.3003 167.801 98.1646C168.904 97.3894 169.852 96.467 170.446 95.2432C171.064 93.9688 171.679 92.6899 172.229 91.3856C172.761 90.125 173.329 88.8875 174.146 87.7879C175.889 85.4324 177.653 83.093 179.422 80.7582C180.013 79.9761 180.622 79.2009 181.223 78.4257C181.683 77.8345 182.141 77.2411 182.589 76.6407C183.017 76.0679 183.403 75.4514 183.727 74.8119C184.432 73.4202 184.679 71.9596 184.233 70.4276C183.988 69.5856 183.454 69.0221 182.614 68.7529C181.93 68.5321 181.262 68.5988 180.622 68.9117C179.849 69.2866 179.167 69.7835 178.559 70.3862C177.285 71.649 176.097 72.9924 175.068 74.4531C173.175 77.1375 171.078 79.661 168.997 82.1982C165.397 86.5872 161.09 90.125 156.08 92.8118C154.075 93.886 152.152 95.0891 150.265 96.352C147.264 98.3624 144.822 100.936 142.772 103.874C141.193 106.135 140.24 108.679 139.558 111.341C138.347 116.079 138.09 120.85 138.925 125.674C139.542 129.249 140.497 132.745 141.373 136.258C142.675 141.468 144.108 146.646 145.442 151.847C146.284 155.127 146.966 158.442 147.43 161.798C147.595 162.98 147.837 164.151 148.059 165.327C148.103 165.557 148.184 165.796 148.309 165.991C148.531 166.346 149.019 166.385 149.248 166.067C149.356 165.915 149.416 165.692 149.409 165.504C149.405 165.347 149.4 165.189 149.396 165.032C149.366 164.05 149.342 163.065 149.236 162.09C148.818 158.299 148.101 154.559 147.102 150.878C145.794 146.05 144.312 141.27 142.707 136.529C141.648 133.405 140.906 130.199 140.296 126.962C139.87 124.701 139.6 122.417 139.597 120.616C139.623 117.487 139.956 114.904 140.575 112.353C141.121 110.108 141.824 107.925 143.014 105.926C144.913 102.742 147.458 100.152 150.475 98.0151C152.068 96.8879 153.728 95.862 155.425 94.8959C155.865 94.6474 156.304 94.4013 156.745 94.1598C161.804 91.3902 166.202 87.8132 169.889 83.3806Z" fill="black"/>
<path d="M191.226 42.5597C190.671 43.1923 190.937 44.4689 190.87 45.2717C190.789 46.2816 190.715 47.2914 190.666 48.3012C190.532 51.057 190.479 53.8174 190.322 56.5708C190.169 59.2208 189.755 61.8385 189.032 64.3965C188.19 67.3753 187.071 70.2576 185.758 73.0617C184.618 75.4931 184.033 78.0602 183.769 80.7148C183.626 82.1594 183.517 83.6109 183.321 85.0486C183.106 86.6243 182.685 88.1494 181.86 89.5319C181.064 90.8614 180.207 92.1519 179.169 93.3067C176.898 95.8278 174.665 98.3811 172.258 100.778C169.826 103.2 167.461 105.682 165.308 108.36C164.104 109.86 163.038 111.442 162.122 113.133C158.952 118.98 158.562 125.101 160.263 131.434C160.314 131.625 160.393 131.839 160.527 131.968C160.656 132.092 160.897 132.202 161.052 132.168C161.207 132.133 161.332 131.917 161.443 131.761C161.489 131.696 161.477 131.581 161.473 131.492C161.419 130.243 161.454 128.982 161.29 127.747C160.925 125.012 161.063 122.316 161.644 119.631C162.381 116.206 163.926 113.154 165.995 110.352C167.606 108.169 169.366 106.11 171.259 104.162C174.205 101.132 177.035 97.9993 179.754 94.7673C180.944 93.3527 182.001 91.8483 182.912 90.2403C183.388 89.403 183.742 88.5174 184.005 87.5927C184.521 85.7778 184.745 83.9168 184.882 82.0421C185.104 78.9896 185.742 76.0475 187.062 73.2572C188.403 70.4232 189.457 67.4743 190.208 64.4333C191.126 60.7183 191.459 56.9274 191.517 53.1089C191.545 51.287 191.554 49.4652 191.542 47.6457C191.535 46.0677 191.885 44.0503 191.226 42.5597Z" fill="black"/>
<path d="M182.151 62.9099C182.237 62.9582 182.424 62.9398 182.498 62.8754C182.646 62.7442 182.78 62.5786 182.863 62.3992C183.222 61.6332 183.608 60.8764 183.892 60.0828C184.061 59.6089 184.211 59.1305 184.348 58.6497C184.838 56.9199 185.129 55.1463 185.335 53.3544C185.545 51.5096 185.763 49.6624 186.008 47.8222C186.142 46.8169 186.403 45.837 186.895 44.9353C187.231 44.3211 187.742 44.029 188.153 43.5321C188.278 43.3826 188.389 43.286 188.387 43.1365C188.387 43.1296 188.382 43.1181 188.382 43.1112C188.38 43.0812 188.375 43.0513 188.364 43.0145C187.386 42.8765 186.512 43.7161 186.038 44.4315C185.608 45.0825 185.312 45.7956 185.106 46.5432C184.687 48.0568 184.503 49.6072 184.331 51.1645C184.146 52.8644 183.968 54.569 183.719 56.2597C183.423 58.2471 182.84 60.1679 182.184 62.0679C182.123 62.2428 182.045 62.4153 182.024 62.5947C182.015 62.6982 182.073 62.8639 182.151 62.9099Z" fill="black"/>
<path d="M108.534 150.644C109.843 145.815 111.325 141.035 112.929 136.294C113.988 133.17 114.73 129.964 115.341 126.727C115.766 124.466 116.037 122.182 116.039 120.381C116.014 117.252 115.681 114.669 115.061 112.118C114.515 109.873 113.813 107.69 112.622 105.691C110.724 102.507 108.178 99.9173 105.161 97.7803C103.568 96.6532 101.908 95.6273 100.211 94.6611C100.438 95.3558 101.171 95.9102 101.809 96.368C103.157 97.3341 104.363 98.4796 105.524 99.662C107.866 102.047 110.063 104.64 111.473 107.665C115.304 115.891 113.142 125.616 110.479 133.826C107.32 143.568 105.096 154.28 105.623 164.537C105.63 164.673 105.42 165.715 105.878 165.425C106.028 165.329 106.155 165.046 106.241 164.795C106.271 163.813 106.294 162.828 106.4 161.853C106.819 158.067 107.538 154.324 108.534 150.644Z" fill="#F29FA4"/>
<path d="M88.4624 98.2654C88.2451 98.1688 88.0232 98.0653 87.829 97.9296C86.7261 97.1544 85.7782 96.2319 85.184 95.0082C84.5667 93.7338 83.9517 92.4549 83.4015 91.1506C82.8697 89.89 82.301 88.6524 81.4848 87.5529C79.7416 85.1974 77.9775 82.858 76.2088 80.5232C75.617 79.7411 75.0089 78.9659 74.4078 78.1907C74.2298 79.6836 76.0955 81.6986 76.7522 82.7821C77.7926 84.5004 78.6873 86.3038 79.552 88.1142C80.6433 90.3984 81.6813 92.7125 82.9021 94.9323C83.8962 96.738 85.1725 99.5835 87.4845 100.004C88.0879 100.115 88.8115 99.8388 88.9849 99.2522C89.0774 98.9417 89.0081 98.6036 88.8624 98.2723C88.7445 98.3298 88.6012 98.3275 88.4624 98.2654Z" fill="#F29FA4"/>
<path d="M66.6488 44.5168C67.1783 44.9355 67.4835 45.5267 67.6916 46.1546C68.11 47.4267 68.0476 48.7885 68.2349 50.0997C68.5123 52.0457 69.0117 54.07 69.6521 55.9815C69.8487 56.575 69.9296 57.2214 70.1978 57.7919C70.3203 58.0518 70.8636 58.6982 71.2127 58.4958C71.2405 58.4797 71.2636 58.4521 71.2844 58.4199C70.7943 56.69 70.503 54.9165 70.2972 53.1246C70.0868 51.2797 69.8695 49.4326 69.6244 47.5923C69.4903 46.5871 69.229 45.6072 68.7366 44.7054C68.4013 44.0913 67.8904 43.7991 67.4789 43.3023C67.354 43.1527 67.243 43.0561 67.2453 42.9066C67.2453 42.8997 67.25 42.8882 67.25 42.8813C66.5286 42.6513 65.8443 42.695 65.583 43.3782C65.3264 44.0315 66.2743 44.2224 66.6488 44.5168Z" fill="#F29FA4"/>
<path d="M112.866 103.638C110.815 100.7 108.373 98.1264 105.372 96.1159C103.486 94.8531 101.562 93.65 99.5576 92.5758C94.5475 89.889 90.2403 86.3511 86.6405 81.9622C84.5597 79.4249 82.4627 76.9038 80.5691 74.2171C79.538 72.7564 78.3519 71.413 77.078 70.1501C76.47 69.5474 75.7879 69.0483 75.0157 68.6756C74.3753 68.3651 73.7071 68.2984 73.0228 68.5169C72.1835 68.786 71.6494 69.3496 71.4044 70.1915C70.9582 71.7235 71.2079 73.1865 71.9107 74.5759C72.2344 75.2131 72.6205 75.8296 73.0482 76.4046C73.4967 77.005 73.9545 77.5985 74.4146 78.1897C75.018 78.9649 75.6238 79.7378 76.2156 80.5222C77.9843 82.8593 79.7484 85.1987 81.4916 87.5519C82.3078 88.6538 82.8765 89.889 83.4083 91.1496C83.9585 92.4538 84.5712 93.7328 85.1908 95.0072C85.785 96.2309 86.7329 97.1557 87.8358 97.9286C88.03 98.0643 88.2496 98.1678 88.4693 98.2644C88.608 98.3265 88.7513 98.3288 88.8716 98.2713C88.9293 98.2437 88.9802 98.2046 89.0265 98.1494C89.179 97.9608 89.0843 97.7675 88.9502 97.5973C88.9039 97.5398 88.8554 97.4846 88.7999 97.434C87.0081 95.8238 85.9515 93.7489 85.0637 91.5682C84.918 91.2094 84.7747 90.8505 84.6406 90.4894C84.1273 89.1 83.4337 87.8026 82.5621 86.6042C80.6085 83.922 78.5785 81.2997 76.389 78.7993C75.233 77.4789 74.1603 76.0987 73.2239 74.615C72.743 73.8536 72.4055 73.0393 72.3893 72.1353C72.38 71.6269 72.417 71.1025 72.5373 70.6102C72.7453 69.7568 73.5152 69.3795 74.299 69.789C74.9302 70.1179 75.5336 70.5389 76.0607 71.015C77.2445 72.0801 78.2433 73.3222 79.138 74.6311C81.1726 77.6008 83.4499 80.3819 85.748 83.1445C89.4357 87.5772 93.8331 91.1542 98.8987 93.9214C99.3403 94.163 99.7819 94.4091 100.219 94.6575C101.916 95.6237 103.576 96.6473 105.169 97.7767C108.186 99.9137 110.732 102.504 112.63 105.687C113.82 107.684 114.523 109.869 115.069 112.115C115.688 114.666 116.024 117.249 116.047 120.377C116.045 122.178 115.774 124.463 115.349 126.724C114.738 129.96 113.994 133.167 112.937 136.291C111.33 141.032 109.851 145.812 108.542 150.64C107.546 154.32 106.829 158.061 106.408 161.852C106.299 162.827 106.279 163.811 106.249 164.794C106.244 164.95 106.239 165.109 106.235 165.265C106.228 165.454 106.288 165.677 106.397 165.829C106.625 166.146 107.113 166.105 107.335 165.753C107.46 165.555 107.541 165.318 107.585 165.088C107.807 163.915 108.05 162.742 108.214 161.56C108.678 158.201 109.361 154.886 110.202 151.608C111.538 146.407 112.972 141.229 114.271 136.019C115.147 132.507 116.102 129.008 116.72 125.436C117.554 120.61 117.298 115.841 116.086 111.102C115.397 108.443 114.442 105.899 112.866 103.638Z" fill="black"/>
<path d="M90.3211 108.136C88.1686 105.459 85.8034 102.974 83.3712 100.554C80.9644 98.1574 78.731 95.604 76.4606 93.0829C75.4202 91.9281 74.5625 90.6377 73.7695 89.3081C72.9418 87.9233 72.5233 86.3982 72.3083 84.8248C72.1118 83.3871 72.0031 81.9356 71.8598 80.491C71.5962 77.8365 71.0113 75.2694 69.8714 72.8379C68.5582 70.0339 67.4392 67.1516 66.5976 64.1727C65.874 61.6148 65.4601 58.997 65.3075 56.3471C65.1503 53.5936 65.0972 50.8333 64.9631 48.0775C64.9145 47.0654 64.8405 46.0555 64.7596 45.048C64.6949 44.2452 64.9584 42.9685 64.4036 42.3359C63.7446 43.8265 64.0937 45.8439 64.0822 47.4334C64.0706 49.2552 64.0776 51.0771 64.1076 52.8966C64.1677 56.7128 64.5007 60.5037 65.4162 64.221C66.1676 67.2643 67.2219 70.211 68.5628 73.045C69.883 75.8352 70.5234 78.775 70.7431 81.8298C70.8795 83.7046 71.1037 85.5632 71.6193 87.3804C71.8806 88.3052 72.2366 89.1908 72.7129 90.0281C73.6261 91.6337 74.6804 93.1381 75.8711 94.5551C78.5923 97.787 81.4199 100.92 84.3654 103.95C86.2589 105.896 88.0183 107.957 89.6298 110.14C91.699 112.941 93.2435 115.994 93.981 119.419C94.559 122.106 94.6977 124.802 94.3347 127.535C94.1706 128.77 94.2053 130.03 94.1521 131.279C94.1475 131.371 94.1359 131.484 94.1821 131.549C94.2931 131.705 94.418 131.919 94.5729 131.956C94.7301 131.99 94.9682 131.88 95.0977 131.756C95.2341 131.624 95.3104 131.413 95.3613 131.222C97.0629 124.889 96.6722 118.766 93.5024 112.921C92.5915 111.218 91.5256 109.634 90.3211 108.136Z" fill="black"/>
<path d="M67.4734 43.303C67.8873 43.7999 68.3959 44.092 68.7311 44.7062C69.2236 45.6079 69.4849 46.5879 69.619 47.5931C69.864 49.4333 70.0814 51.2805 70.2917 53.1253C70.4975 54.9173 70.7888 56.6908 71.279 58.4206C71.4154 58.9014 71.5633 59.3798 71.7344 59.8537C72.0188 60.6473 72.4072 61.4041 72.7633 62.1701C72.8465 62.3495 72.9806 62.5151 73.1286 62.6463C73.2026 62.7107 73.3898 62.7291 73.4754 62.6808C73.5563 62.6348 73.6141 62.4668 73.6025 62.3633C73.5817 62.1839 73.5031 62.0114 73.443 61.8366C72.7864 59.9388 72.2038 58.0181 71.9078 56.0283C71.6558 54.3376 71.4801 52.6331 71.2952 50.9331C71.1264 49.3781 70.9414 47.8254 70.5206 46.3118C70.3126 45.5619 70.0189 44.8511 69.5889 44.2002C69.1149 43.4848 68.241 42.6428 67.263 42.7832C67.2492 42.8177 67.2468 42.8499 67.2445 42.8798C67.2445 42.889 67.2399 42.8982 67.2399 42.9051C67.2376 43.0546 67.3486 43.1512 67.4734 43.303Z" fill="black"/>
</g>
<path d="M0.5 10C0.5 4.7533 4.75329 0.5 10 0.5H259C264.247 0.5 268.5 4.75329 268.5 10V190C268.5 195.247 264.247 199.5 259 199.5H9.99999C4.75329 199.5 0.5 195.247 0.5 190V10Z" stroke="#F29FA4"/>
<defs>
<clipPath id="clip0">
</clipPath>
</defs>
</svg>
