<svg width="36" height="36" viewBox="0 0 36 36" fill="none" xmlns="http://www.w3.org/2000/svg">
<rect width="36" height="36" rx="18" fill="#0D4EE3"/>
<g clip-path="url(#clip0_387_23032)">
<path d="M18.0364 7C12.0265 7 7.14568 11.8808 7.14568 17.8543C7.14568 19.7484 7.65562 21.5695 8.60264 23.2451L7 29L12.8642 27.4338C14.5761 28.3444 16.3609 28.8543 18.0364 28.8543C23.9735 28.8543 29 23.8278 29 17.8543C29 11.8808 24.0828 7 18.0364 7ZM18.0364 28.1258C16.4338 28.1258 14.7219 27.6159 13.0828 26.7053L12.9371 26.6325L8.01988 27.9801L9.36753 23.1358L9.29467 22.9901C8.38406 21.4239 7.87416 19.6391 7.87416 17.8543C7.87416 12.2815 12.4271 7.72848 18.0364 7.72848C23.6821 7.72848 28.2715 12.2815 28.2715 17.8543C28.2715 23.4272 23.5729 28.1258 18.0364 28.1258Z" fill="white"/>
<path d="M18.0363 8.82031C13.0463 8.82031 8.9668 12.8633 8.9668 17.8534C8.9668 19.6382 9.47674 21.3137 10.3873 22.8071L10.533 22.9892L9.5496 26.4495L13.1191 25.5389L13.3013 25.6481C14.7947 26.5587 16.4337 27.0322 18.0364 27.0322C23.0629 27.0322 27.1788 22.9163 27.1788 17.8534C27.1788 12.8633 23.0629 8.82031 18.0363 8.82031ZM17.9999 26.3402C16.543 26.3402 15.0496 25.8667 13.6655 25.029L13.2284 24.7376L10.5695 25.3932L11.298 22.8435L11.0066 22.37C10.1324 21.0223 9.69532 19.4561 9.69532 17.8535C9.69532 13.3005 13.447 9.54884 18.0364 9.54884C22.6622 9.54884 26.4503 13.3005 26.4503 17.8535C26.4503 22.5157 22.6622 26.3037 17.9999 26.3402Z" fill="white"/>
<path d="M23.4998 19.8577L21.2051 18.8014C20.8773 18.6557 20.5495 18.765 20.3309 19.0199L19.4568 20.1491C18.8012 19.8941 16.98 19.0928 15.9237 17.1259L16.725 16.1789C16.9072 15.9603 16.9436 15.6689 16.8343 15.414L15.8509 13.0829C15.7416 12.8279 15.5231 12.6458 15.2317 12.6458L14.5396 12.6094C14.2482 12.6094 13.9204 12.6822 13.7018 12.9008C13.374 13.1922 12.7548 13.8114 12.5727 14.6491C12.3177 15.8511 12.7184 17.2717 13.7382 18.6558C14.3575 19.5299 16.2515 22.116 19.8939 23.1359C20.2581 23.2452 20.6223 23.2816 20.9502 23.2816C21.5694 23.2816 22.1521 23.0994 22.6621 22.8081C23.2449 22.4439 23.6455 21.8246 23.7912 21.169L23.9005 20.659C23.9733 20.3312 23.7912 20.0034 23.4998 19.8577ZM23.0263 20.9868C22.917 21.4603 22.6256 21.8974 22.2249 22.1524C21.6057 22.553 20.8772 22.6259 20.0759 22.4073C16.6885 21.4603 14.9038 19.0199 14.321 18.2186C13.4468 17.0166 13.0826 15.7782 13.3011 14.7947C13.4468 14.1391 13.9203 13.6656 14.2117 13.4106C14.2846 13.3378 14.3939 13.3014 14.5031 13.3014L15.2316 13.3742L16.215 15.6689L15.3409 16.6524C15.1952 16.8345 15.1588 17.1259 15.268 17.3444C16.47 19.6756 18.6554 20.5862 19.3111 20.8047C19.566 20.8776 19.821 20.8047 20.0031 20.5862L20.8773 19.4206L23.172 20.4769L23.0263 20.9868Z" fill="white"/>
</g>
<defs>
<clipPath id="clip0_387_23032">
<rect width="22" height="22" fill="white" transform="translate(7 7)"/>
</clipPath>
</defs>
</svg>
