<svg width="34" height="34" viewBox="0 0 34 34" fill="none" xmlns="http://www.w3.org/2000/svg">
<g clip-path="url(#clip0_288_5414)">
<path d="M17 34.0001C26.3888 34.0001 34 26.3889 34 17.0001C34 7.61122 26.3888 0 17 0C7.61116 0 0 7.61122 0 17.0001C0 26.3889 7.61116 34.0001 17 34.0001Z" fill="#FFBD13"/>
<path d="M18.3291 33.9396C18.8512 33.9014 19.3712 33.8391 19.8876 33.7528C20.4461 33.6561 20.9995 33.5314 21.5457 33.3793C22.0917 33.2278 22.6299 33.0491 23.1581 32.8439C23.6867 32.6389 24.2048 32.4076 24.7103 32.1508C25.2153 31.8933 25.707 31.6107 26.1837 31.3041C26.6606 30.9981 27.1218 30.6684 27.5658 30.3163C28.0096 29.9643 28.4356 29.5903 28.842 29.1957C29.2493 28.8003 29.6364 28.3847 30.0021 27.9506C30.3668 27.5177 30.7096 27.0668 31.0293 26.5996C31.3494 26.1312 31.6458 25.6471 31.9175 25.1491C32.1891 24.6519 32.4356 24.1415 32.6562 23.6197C32.8771 23.0978 33.0717 22.5652 33.2394 22.0238C33.3854 21.5433 33.51 21.0565 33.6129 20.565L27.2732 14.2253C27.2558 14.2079 27.231 14.1965 27.213 14.1796C27.0753 14.0498 26.9264 13.9272 26.7544 13.8268H26.7502L22.2512 11.2785H22.2491H22.2471C21.9144 11.0854 21.5603 10.9846 21.2074 10.963C21.0898 10.9524 20.9708 10.9524 20.8546 10.963C20.6992 10.9769 20.5466 11.0056 20.3981 11.0481C19.953 11.1771 19.5498 11.4324 19.2484 11.7848C19.148 11.9023 19.0582 12.0309 18.9828 12.1687H18.9807L16.9885 15.6198L15.262 13.8932C15.1538 13.7851 15.0339 13.6868 14.9071 13.6006C14.527 13.3423 14.071 13.1897 13.5852 13.1897H8.40344C7.10804 13.1897 6.02734 14.2704 6.02734 15.5658V20.6646C6.02734 21.3123 6.29666 21.9071 6.72876 22.3393L18.3291 33.9396Z" fill="#C17042"/>
<path d="M21.2074 10.963C21.0897 10.9524 20.9718 10.9524 20.8556 10.963C20.7002 10.9769 20.5463 11.0065 20.3977 11.049C19.8042 11.221 19.2839 11.6177 18.9824 12.169H18.9807L16.4372 16.5792C16.4336 16.5898 16.4304 16.5908 16.4273 16.5972C15.8435 17.7647 16.2377 19.1532 17.3133 19.8376C17.3183 19.8376 17.3231 19.8483 17.3282 19.8483L21.8297 22.3969L21.8147 22.3862C22.9161 23.087 24.4091 22.6799 25.0933 21.5069L27.6418 17.0917C28.3213 15.9252 27.9146 14.5033 26.7542 13.8264H26.7507L22.2526 11.2796C22.2516 11.279 22.2504 11.2796 22.2494 11.2796H22.2477C21.9151 11.0866 21.5603 10.9844 21.2074 10.9628L21.2074 10.963ZM21.2671 12.3119C21.4319 12.33 21.596 12.382 21.7466 12.4728C22.3364 12.8267 22.5637 13.6103 22.2029 14.2116C21.849 14.8014 21.0654 15.0287 20.4641 14.6679C19.8742 14.3141 19.647 13.5305 20.0078 12.9292C20.2729 12.4874 20.7738 12.2571 21.2671 12.3119ZM8.40498 13.1896C7.10958 13.1896 6.02734 14.2719 6.02734 15.5673V20.6643C6.02734 21.9597 7.10958 23.0419 8.40498 23.0419H13.5867C14.8821 23.0419 15.9643 21.9597 15.9643 20.6643V15.5673C15.9643 14.2719 14.8821 13.1896 13.5867 13.1896H8.40498ZM8.57422 14.4639C9.27192 14.4639 9.84683 15.0388 9.84683 15.7365C9.84683 16.4343 9.27192 17.0091 8.57422 17.0091C7.87652 17.0091 7.30161 16.4343 7.30161 15.7365C7.30161 15.0388 7.87652 14.4639 8.57422 14.4639V14.4639ZM25.4301 14.6911C25.5948 14.7092 25.7589 14.7614 25.9096 14.8522C26.4997 15.2062 26.7247 15.9901 26.3642 16.591C26.0101 17.1812 25.2262 17.4061 24.6253 17.0456C24.0352 16.6914 23.8102 15.9076 24.1707 15.3068C24.4361 14.8645 24.9377 14.6364 25.4301 14.6911V14.6911ZM22.1166 15.5407C22.2814 15.5587 22.4455 15.6108 22.5961 15.7016C22.6095 15.7123 22.6222 15.7187 22.6343 15.7282C23.1536 16.1437 23.403 16.8561 23.0524 17.4405C22.6983 18.0306 21.9144 18.2556 21.3136 17.8951C20.7238 17.5413 20.4965 16.7576 20.8573 16.1562C21.1226 15.714 21.6243 15.4859 22.1166 15.5407H22.1166ZM18.8895 16.4748C19.0546 16.4928 19.218 16.5459 19.3673 16.6357C19.9571 16.9896 20.1844 17.7731 19.8236 18.3746C19.8156 18.3884 19.8068 18.4001 19.7971 18.4129C19.3816 18.9322 18.6691 19.1817 18.0848 18.8312C17.4949 18.4772 17.2677 17.6936 17.6285 17.0923C17.894 16.6497 18.396 16.4202 18.8895 16.475L18.8895 16.4748ZM11.0381 16.8414C11.7366 16.8414 12.3107 17.4181 12.3107 18.1157C12.3107 18.8135 11.7358 19.3883 11.0381 19.3883C10.3404 19.3883 9.76553 18.8135 9.76553 18.1157C9.76553 17.4181 10.3397 16.8414 11.0381 16.8414ZM23.0524 18.8542C23.2144 18.8723 23.3787 18.9222 23.5303 19.0135C24.1201 19.3673 24.3474 20.1509 23.9865 20.7523C23.6327 21.3422 22.8491 21.5694 22.2477 21.2085C21.6864 20.8717 21.4559 20.1374 21.7781 19.493C21.7823 19.4824 21.7866 19.477 21.7914 19.4695C22.0572 19.0266 22.56 18.7993 23.0524 18.854L23.0524 18.8542ZM13.4174 19.2209C14.1151 19.2209 14.69 19.7957 14.69 20.4934C14.69 21.1911 14.1151 21.7661 13.4174 21.7661C12.7197 21.7661 12.1432 21.1919 12.1432 20.4934C12.1432 19.795 12.7197 19.2209 13.4174 19.2209Z" fill="white"/>
</g>
<defs>
<clipPath id="clip0_288_5414">
<rect width="34" height="34" fill="white"/>
</clipPath>
</defs>
</svg>
