<svg width="24" height="25" viewBox="0 0 24 25" fill="none" xmlns="http://www.w3.org/2000/svg">
<path fill-rule="evenodd" clip-rule="evenodd" d="M3.35601 17.532L2.00401 22.5L6.97001 21.145C8.49667 22.0352 10.2328 22.5029 12 22.5C17.523 22.5 22 18.023 22 12.5C22 6.977 17.523 2.5 12 2.5C6.47701 2.5 2.00001 6.977 2.00001 12.5C1.99711 14.268 2.46515 16.0049 3.35601 17.532ZM8.02 7.908C8.13567 7.85003 8.26186 7.81602 8.391 7.808V7.807C8.52513 7.79766 8.6597 7.79633 8.794 7.803C8.848 7.807 8.902 7.813 8.956 7.819C9.115 7.838 9.29 7.934 9.349 8.068C9.647 8.744 9.937 9.425 10.217 10.109C10.279 10.26 10.242 10.455 10.124 10.645C10.0429 10.7738 9.95509 10.8983 9.861 11.018C9.748 11.162 9.505 11.428 9.505 11.428C9.505 11.428 9.406 11.546 9.444 11.693C9.46936 11.7653 9.50362 11.8342 9.546 11.898L9.605 11.993C9.88871 12.458 10.2316 12.8842 10.625 13.261C10.6573 13.2922 10.6894 13.3238 10.7216 13.3553C10.8087 13.4409 10.8959 13.5266 10.988 13.607C11.4562 14.0198 11.9859 14.3572 12.558 14.607L12.563 14.609C12.5876 14.6197 12.6087 14.629 12.6292 14.638C12.6797 14.6603 12.7269 14.6811 12.815 14.718C12.877 14.7445 12.9408 14.7666 13.006 14.784C13.1437 14.8194 13.2891 14.7681 13.374 14.654C14.097 13.778 14.164 13.721 14.169 13.721V13.723C14.2708 13.6281 14.4086 13.5818 14.547 13.596C14.608 13.5987 14.668 13.6126 14.724 13.637C15.255 13.879 16.125 14.258 16.125 14.258L16.707 14.519C16.804 14.566 16.893 14.677 16.897 14.784C16.8972 14.7878 16.8973 14.7917 16.8975 14.7957C16.9007 14.8634 16.9057 14.9701 16.883 15.157C16.851 15.416 16.773 15.727 16.695 15.89C16.64 16.005 16.568 16.106 16.485 16.192C16.373 16.309 16.29 16.38 16.155 16.48C16.073 16.542 16.03 16.57 16.03 16.57C15.891 16.658 15.813 16.702 15.647 16.79C15.3896 16.9271 15.1052 17.006 14.814 17.021C14.7817 17.0226 14.7493 17.0243 14.7171 17.026C14.5637 17.0341 14.4108 17.0423 14.258 17.034L13.689 16.947C12.2673 16.573 10.9524 15.8725 9.849 14.901C9.66048 14.7343 9.48319 14.557 9.30479 14.3786C9.27026 14.3441 9.23569 14.3095 9.201 14.275C8.312 13.39 7.639 12.435 7.23 11.533C7.03 11.087 6.902 10.61 6.9 10.12C6.89661 9.51342 7.09541 8.923 7.465 8.442C7.47607 8.42759 7.48703 8.4131 7.49808 8.39851C7.55983 8.31692 7.6242 8.23185 7.726 8.136C7.81249 8.04622 7.91152 7.96943 8.02 7.908Z" fill="#6E737D"/>
</svg>
