<svg width="140" height="137" viewBox="0 0 140 137" fill="none" xmlns="http://www.w3.org/2000/svg">
<path fill-rule="evenodd" clip-rule="evenodd" d="M97.5448 26.9639C105.757 33.2181 107.51 44.2294 111.613 53.7039C115.028 61.5918 119.132 69.0115 119.471 77.6016C119.846 87.0963 119.142 97.0506 113.631 104.792C107.863 112.893 98.6346 117.751 89.0379 120.35C79.2354 123.004 68.6166 123.606 59.3327 119.494C50.1744 115.437 45.4541 106.018 39.1341 98.2461C31.6147 88.9988 20.1103 81.673 18.9323 69.8097C17.6973 57.371 24.7506 45.4493 32.9553 36.0181C41.1009 26.655 52.0073 19.3903 64.294 17.6679C75.9783 16.03 88.159 19.8162 97.5448 26.9639Z" fill="#F29FA4"/>
<path d="M80.8957 19.5475C81.0344 20.4124 81.1731 21.282 81.1523 22.1699C81.1361 22.791 81.1823 23.412 81.2309 24.0354C81.3187 25.1488 81.291 26.2713 81.3465 27.3893C81.4066 28.613 81.4459 29.8483 81.2679 31.0743C81.15 31.8886 81.143 32.7191 81.0113 33.5288C80.75 35.1344 80.4726 36.74 80.0564 38.3157C79.6217 39.965 79.0923 41.5867 78.5374 43.1992C78.2553 44.0158 77.927 44.814 77.5479 45.5915C76.8635 46.9993 76.0196 48.3151 75.0879 49.5734C74.3457 50.5763 73.5967 51.5815 72.6742 52.4349C72.2303 52.8467 71.7586 53.2285 71.2823 53.6035C70.2396 54.4247 69.1576 55.1838 67.9115 55.6853C66.3809 56.3018 64.8342 56.5364 63.2227 56.0418C62.7488 55.8969 62.2586 55.8026 61.7823 55.66C60.4714 55.2689 59.1744 54.8365 58.06 54.0107C57.1676 53.3505 56.3931 52.5707 55.681 51.7196C54.7955 50.6614 53.9308 49.5895 53.1794 48.4347C52.6083 47.556 52.0927 46.6451 51.5471 45.7503C50.6431 44.2666 49.9588 42.6794 49.212 41.1244C48.6247 39.9006 48.1485 38.6239 47.6907 37.345C47.3092 36.2753 46.9347 35.1988 46.722 34.0785C46.6665 33.791 46.5717 33.5104 46.5324 33.2228C46.5069 33.0342 46.4908 32.8456 46.426 32.6661C46.4538 33.071 46.4861 33.4736 46.5254 33.8761C46.863 37.4094 47.6583 40.8437 48.9438 44.1608C50.227 47.4663 51.9332 50.5234 54.3261 53.1687C55.8359 54.8365 57.5468 56.2649 59.579 57.261C63.6736 59.2714 67.7103 59.1403 71.6546 56.84C73.6105 55.6991 75.222 54.1648 76.6138 52.3981C79.12 49.2214 80.7338 45.61 81.795 41.7408C82.8539 37.8809 83.2886 33.9428 83.2215 29.9472C83.1429 25.2155 82.3337 20.6195 80.6899 16.173C80.2136 14.8871 79.6634 13.6519 79.0252 12.4718C79.372 13.4655 79.7073 14.4616 79.9755 15.4783C80.3385 16.824 80.6737 18.1743 80.8957 19.5475Z" fill="#F29FA4"/>
<path d="M79.0045 73.9219C77.8139 75.9186 77.111 78.1039 76.5654 80.349C75.9458 82.9 75.6105 85.4833 75.5874 88.6117C75.5897 90.4128 75.8602 92.697 76.2856 94.9582C76.896 98.1947 77.6405 101.401 78.697 104.525C80.3039 109.266 81.7836 114.046 83.0922 118.874C84.0886 122.555 84.8053 126.295 85.2261 130.086C85.3348 131.061 85.3556 132.046 85.3857 133.028C85.4712 133.279 85.5984 133.562 85.7486 133.659C86.2041 133.948 85.996 132.906 86.003 132.771C86.5301 122.514 84.3083 111.803 81.1478 102.059C78.4843 93.8472 76.3226 84.1215 80.1536 75.8979C81.5616 72.873 83.7603 70.2806 86.1024 67.8951C87.263 66.7128 88.4699 65.5672 89.8178 64.6011C90.4559 64.1434 91.1888 63.589 91.4154 62.8943C89.7184 63.8604 88.0583 64.884 86.4654 66.0135C83.4505 68.1482 80.9027 70.7383 79.0045 73.9219Z" fill="#F29FA4"/>
<path d="M110.141 55.7831C109.324 56.885 108.756 58.1202 108.224 59.3808C107.674 60.6851 107.061 61.9641 106.441 63.2384C105.847 64.4622 104.899 65.3869 103.796 66.1598C103.602 66.2955 103.383 66.399 103.163 66.4957C103.024 66.5578 102.881 66.5601 102.761 66.5026C102.613 66.8315 102.546 67.1696 102.638 67.4825C102.814 68.0691 103.535 68.3451 104.139 68.2347C106.451 67.8137 107.727 64.9683 108.721 63.1625C109.942 60.9427 110.98 58.6286 112.071 56.3444C112.936 54.5318 113.83 52.7306 114.871 51.0123C115.527 49.9266 117.393 47.9138 117.215 46.4209C116.612 47.1961 116.006 47.969 115.414 48.7534C113.648 51.0882 111.886 53.4276 110.141 55.7831Z" fill="#F29FA4"/>
<path d="M124.155 11.5331C123.741 12.0299 123.233 12.3221 122.898 12.9363C122.405 13.838 122.144 14.8179 122.01 15.8231C121.765 17.6634 121.547 19.5105 121.337 21.3554C121.131 23.1473 120.84 24.9208 120.35 26.6507C120.371 26.6829 120.391 26.7105 120.421 26.7266C120.771 26.9313 121.314 26.2849 121.436 26.0227C121.705 25.4522 121.783 24.8081 121.982 24.2123C122.622 22.3008 123.122 20.2765 123.399 18.3305C123.587 17.0193 123.524 15.6575 123.943 14.3855C124.148 13.7575 124.456 13.164 124.985 12.7476C125.36 12.4532 126.308 12.2623 126.056 11.6067C125.792 10.9235 125.11 10.8798 124.389 11.1098C124.389 11.119 124.393 11.1282 124.393 11.1351C124.391 11.2846 124.28 11.3813 124.155 11.5331Z" fill="#F29FA4"/>
<path d="M20.0159 11.1648C21.3661 15.7102 23.084 20.1061 25.4214 24.2489C25.6017 24.5664 25.7913 24.8815 25.7867 25.406C25.641 25.1414 25.5578 24.9873 25.4676 24.8355C24.5567 23.3196 23.6966 21.7738 22.7164 20.3016C22.0875 19.3562 21.2968 18.5166 20.5546 17.6494C20.3558 17.417 20.0899 17.2238 19.8194 17.0743C19.4171 16.8535 19.0842 17.0329 19.0056 17.486C18.9778 17.6448 18.9825 17.8196 19.0102 17.9783C19.0726 18.321 19.142 18.6661 19.2391 18.9996C20.1523 22.0912 21.5026 24.9827 23.262 27.6879C24.8434 30.1193 26.6606 32.369 28.575 34.5428C28.7414 34.7337 28.8917 34.9545 28.9888 35.1846C29.8466 37.2433 30.8361 39.2377 31.9204 41.186C31.9967 41.3241 32.0638 41.469 32.1354 41.6093C31.9042 41.4943 31.7493 41.3287 31.5944 41.1584C30.4269 39.8772 29.2686 38.5867 28.0871 37.3192C26.8895 36.0334 25.5254 34.9292 24.1174 33.8803C23.8816 33.7055 23.625 33.5582 23.366 33.4156C23.1418 33.2914 22.9013 33.273 22.6909 33.4524C22.4828 33.6319 22.469 33.8757 22.543 34.1126C22.6193 34.3565 22.7117 34.6003 22.832 34.828C23.4285 35.9529 24.0804 37.0478 24.9451 37.9932C25.8283 38.9571 26.7207 39.9186 27.6687 40.8203C29.7841 42.8308 32.0545 44.6618 34.3688 46.4376C35.3722 47.2082 36.3086 48.0225 36.9837 49.106C37.1386 49.3544 37.3421 49.5752 37.5178 49.8122C37.5825 49.8996 37.6334 49.9985 37.6912 50.0928C37.3976 49.9548 37.1687 49.7685 36.9282 49.5983C35.3792 48.4964 33.8463 47.3716 32.2695 46.3111C31.7124 45.9362 31.0557 45.6969 30.4269 45.437C30.198 45.3427 29.9182 45.3312 29.6662 45.3404C29.1507 45.3588 28.9079 45.7429 29.0952 46.2191C29.1599 46.387 29.2663 46.5457 29.3772 46.6907C30.9517 48.7103 32.7412 50.5023 34.896 51.9193C37.0623 53.3408 39.3466 54.5462 41.7071 55.6066C42.2435 55.8482 42.8053 56.0437 43.3695 56.2139C43.677 56.3059 43.9475 56.4278 44.1995 56.6257C45.2607 57.4607 46.3681 58.229 47.605 58.788C48.1091 59.0157 48.6339 59.1951 49.1541 59.3814C49.3391 59.4481 49.5286 59.4205 49.6465 59.2365C49.776 59.0341 49.7182 58.8409 49.5564 58.689C49.4223 58.5648 49.2674 58.459 49.1125 58.3624C48.1252 57.7482 47.138 57.1363 46.1485 56.5268C45.767 56.2921 45.4919 56.0046 45.5173 55.5123C45.5242 55.372 45.4641 55.2248 45.4248 55.0822C44.5324 51.9055 43.9636 48.6666 43.4712 45.4071C43.2076 43.6635 42.8354 41.9359 42.4817 40.2061C42.3452 39.539 42.1187 38.888 41.7118 38.3268C41.5222 38.0645 41.284 37.8115 41.0135 37.6367C40.6182 37.3813 40.1974 37.5332 40.0055 37.9633C39.9107 38.1772 39.8437 38.4211 39.8321 38.6534C39.7951 39.3688 39.7512 40.0865 39.7812 40.8019C39.876 43.1114 40.2991 45.368 40.9349 47.5855C41.5892 49.8697 42.3152 52.1286 43.5244 54.1989C43.5475 54.238 43.5336 54.2955 43.5406 54.3783C43.4388 54.3001 43.3625 54.2472 43.2978 54.1851C41.7742 52.7566 40.3477 51.2384 39.053 49.6029C38.8518 49.3498 38.7108 49.037 38.5952 48.731C37.7513 46.5043 37.2519 44.1833 36.7178 41.8715C36.193 39.5965 35.7029 37.3123 35.1549 35.0419C34.8266 33.6802 34.3619 32.3575 33.6683 31.1314C33.4464 30.7404 33.1412 30.3677 32.7944 30.0802C32.2557 29.6339 31.7008 29.8341 31.5251 30.5034C31.4372 30.837 31.3979 31.1935 31.3956 31.5386C31.3864 33.3558 31.6222 35.1455 32.2326 36.8569C32.9169 38.7776 33.6984 40.6662 34.4382 42.5708C34.5029 42.7365 34.5723 42.8998 34.6393 43.0631C33.4972 41.5081 30.9979 36.781 30.3552 35.081C30.2974 34.9292 30.2535 34.7613 30.2489 34.6003C30.2095 33.4064 30.1263 32.2103 30.161 31.0164C30.2327 28.5528 30.3945 26.0915 30.4708 23.6278C30.5217 22.0107 30.554 20.389 30.4777 18.7765C30.4361 17.907 30.1702 17.0444 29.9506 16.1933C29.8604 15.8482 29.6547 15.5147 29.435 15.2271C29.0166 14.6751 28.4894 14.728 28.1634 15.3307C28.0594 15.5239 27.9831 15.7355 27.9253 15.9471C27.1277 18.8133 26.8248 21.7232 27.1323 24.6883C27.1785 25.146 27.2271 25.6015 27.2733 26.0593C27.0236 25.4727 26.8826 24.8654 26.7115 24.2673C26.5057 23.5473 26.4271 22.8296 26.6075 22.0912C26.6768 21.806 26.6999 21.5093 26.7346 21.2171C27.0121 18.8041 27.3958 16.4095 27.9045 14.031C28.5172 11.1694 29.0443 8.29173 29.2223 5.36575C29.2593 4.76307 29.2085 4.15579 29.1761 3.55311C29.1668 3.39209 29.1067 3.22647 29.0327 3.08155C28.827 2.66749 28.4478 2.60999 28.1472 2.95733C28.0062 3.12065 27.886 3.31848 27.8097 3.52321C27.4721 4.41802 27.1022 5.30364 26.8433 6.22146C26.3115 8.10311 26.1173 10.0492 25.8468 11.9791C25.7543 12.6347 25.7867 13.3248 25.5902 13.9436C25.3844 14.5923 25.3405 15.2363 25.3058 15.8919C25.2873 16.2692 25.2734 16.6441 25.2596 17.0214C25.137 16.9386 25.0954 16.8466 25.0746 16.7499C24.5845 14.6176 24.1221 12.4783 23.5995 10.3551C23.1718 8.62298 22.6609 6.90925 21.8447 5.30824C21.5372 4.70556 21.1627 4.13048 20.772 3.57611C20.5153 3.21266 20.1639 2.88602 19.6506 3.04474C19.1212 3.20806 19.0172 3.68883 18.9802 4.15119C18.9432 4.60665 18.9478 5.07361 18.9894 5.52907C19.1628 7.43832 19.4703 9.32457 20.0159 11.1648ZM40.6413 40.3763C40.6112 39.776 40.6274 39.1802 40.7407 38.4832C41.0945 38.8282 41.2632 39.1733 41.358 39.5367C41.6054 40.496 41.8574 41.4575 42.0354 42.4328C42.5741 45.3611 43.0758 48.2963 43.6007 51.2269C43.7001 51.7835 43.8342 52.3356 43.8665 52.9199C43.7995 52.8049 43.7163 52.6945 43.6677 52.5725C42.0447 48.6551 40.8494 44.6365 40.6413 40.3763ZM41.3187 54.1137C41.469 54.2311 41.6031 54.3714 41.6863 54.5761C41.6054 54.5462 41.5222 54.5209 41.4459 54.4841C39.2818 53.4513 37.1502 52.3632 35.1457 51.0382C33.2498 49.7846 31.6476 48.225 30.2304 46.4652C30.1864 46.41 30.1541 46.3456 30.0616 46.1984C30.7113 46.3226 31.1783 46.5826 31.6129 46.8839C32.8707 47.7534 34.133 48.6183 35.3561 49.5338C37.3606 51.0405 39.335 52.584 41.3187 54.1137ZM32.577 35.2421C32.2326 33.9424 32.1008 32.6036 32.1563 31.2556C32.1632 31.1107 32.1817 30.9635 32.2094 30.8209C32.2187 30.7749 32.2695 30.7358 32.3158 30.6737C32.6788 30.8784 32.8915 31.2073 33.0371 31.557C33.4348 32.5231 33.8856 33.4823 34.1538 34.4853C34.7249 36.6315 35.1965 38.8029 35.7052 40.9652C36.0265 42.3224 36.341 43.6819 36.66 45.0414C36.697 45.2001 36.7317 45.3588 36.7918 45.6348C36.6762 45.5083 36.6254 45.4692 36.5999 45.4209C34.9168 42.1614 33.5157 38.7891 32.577 35.2421ZM33.5735 44.6434C33.4209 44.5882 33.3701 44.5836 33.3377 44.556C31.2754 42.8814 29.1969 41.2252 27.2895 39.3711C25.9231 38.0415 24.6584 36.6315 23.7383 34.9476C23.6666 34.8188 23.5949 34.69 23.5325 34.5589C23.5209 34.5336 23.5417 34.4922 23.5602 34.3818C23.7984 34.5635 24.0111 34.7199 24.2192 34.8855C25.5879 35.9828 26.8988 37.1444 28.0709 38.4533C29.768 40.3487 31.4627 42.2465 33.1574 44.1419C33.2753 44.2754 33.3862 44.418 33.5735 44.6434ZM27.7241 21.8635C27.7866 20.0026 28.0709 18.1715 28.5542 16.3727C28.6096 16.1703 28.6906 15.9747 28.7807 15.7171C29.0905 16.0092 29.183 16.329 29.2732 16.6372C29.5691 17.6471 29.731 18.6868 29.7148 19.7357C29.6894 21.4794 29.6131 23.2253 29.5483 24.9689C29.4674 27.1726 29.3772 29.374 29.2917 31.5777C29.2894 31.649 29.2778 31.7226 29.2709 31.7939C29.2362 31.7939 29.1992 31.7962 29.1645 31.7962C28.8871 30.6001 28.5912 29.4108 28.3391 28.2077C27.9022 26.1191 27.6525 24.0051 27.7241 21.8635ZM26.1381 18.2405C26.2213 16.6257 26.2491 15.004 26.4248 13.3961C26.6491 11.3327 26.9358 9.27166 27.3057 7.23129C27.4999 6.15475 27.9299 5.12192 28.2605 4.07068C28.3022 3.93726 28.3854 3.81534 28.4802 3.62672C28.6628 4.02237 28.6189 4.37202 28.5819 4.70786C28.4386 5.96843 28.316 7.23359 28.1033 8.48266C27.6178 11.3442 27.0791 14.1989 26.5705 17.0582C26.4525 17.7253 26.3601 18.397 26.1867 19.0686C26.1682 18.7926 26.1242 18.5166 26.1381 18.2405ZM26.9381 29.6063C27.338 30.4597 27.5877 31.3845 27.9068 32.2747C24.7001 29.2912 19.8171 20.6283 19.7269 17.8288C19.9073 18.0013 20.0576 18.1255 20.187 18.2681C20.9847 19.14 21.7106 20.0624 22.3395 21.0653C24.0619 23.8119 25.5624 26.678 26.9381 29.6063ZM19.8009 3.79924C19.8541 3.78084 19.905 3.76244 19.9581 3.74403C20.2055 4.10058 20.5084 4.43412 20.691 4.82058C21.1442 5.7844 21.6089 6.75053 21.9511 7.75576C22.9476 10.6817 23.6342 13.6928 24.2793 16.7131C24.5313 17.9001 24.7879 19.0847 25.0168 20.274C25.1555 20.9917 25.2411 21.7186 25.3497 22.4409C25.3127 22.4524 25.2757 22.4662 25.2387 22.4777C25.1902 22.4133 25.1301 22.3558 25.0977 22.2845C23.292 18.275 21.5927 14.2242 20.4668 9.96405C20.0391 8.34234 19.8032 6.68842 19.6576 5.0184C19.6206 4.60435 19.6206 4.18569 19.8009 3.79924Z" fill="black"/>
<path d="M82.9786 57.0047C82.9347 57.1795 82.7706 57.3521 82.6157 57.4648C82.1533 57.8006 81.677 58.1181 81.1915 58.4217C80.5811 58.8012 79.9522 59.1555 79.3396 59.5327C79.1846 59.6271 79.0159 59.7421 78.9303 59.8916C78.861 60.0112 78.8587 60.2205 78.9188 60.3424C78.9673 60.4368 79.1615 60.4966 79.291 60.5012C79.4297 60.5058 79.5731 60.4299 79.7141 60.3839C81.3741 59.8456 82.8145 58.9209 84.1786 57.865C84.5346 57.589 84.8976 57.382 85.3438 57.2738C85.8062 57.1634 86.2548 56.9725 86.6917 56.7793C88.9228 55.7901 91.0753 54.6538 93.1445 53.3587C95.4912 51.8888 97.4495 50.0118 99.1396 47.8403C99.2621 47.6816 99.3823 47.5091 99.454 47.325C99.6413 46.8489 99.3916 46.4532 98.876 46.4532C98.5315 46.4532 98.1593 46.4946 97.8495 46.6303C97.209 46.9087 96.5617 47.2054 95.9883 47.5988C94.4208 48.6753 92.8925 49.8048 91.3481 50.9135C91.1955 51.0239 91.0383 51.1297 90.8834 51.2401C91.2672 50.6099 91.7111 50.0463 92.1203 49.4574C92.4186 49.0273 92.7746 48.6684 93.1838 48.3441C94.6866 47.1502 96.1871 45.9541 97.6737 44.7395C99.5187 43.2305 101.299 41.6525 102.917 39.902C103.974 38.7587 104.887 37.5119 105.609 36.1341C105.77 35.8258 105.928 35.5038 106.006 35.1702C106.136 34.6251 105.743 34.303 105.225 34.5169C104.957 34.6297 104.702 34.793 104.466 34.9678C103.042 36.0236 101.664 37.1416 100.453 38.4413C99.2575 39.7225 98.0899 41.0268 96.9085 42.3219C96.7674 42.476 96.6218 42.6255 96.4784 42.7773C96.453 42.6301 96.4923 42.5335 96.5432 42.4438C97.6714 40.4333 98.6933 38.3746 99.5765 36.2468C99.6528 36.0651 99.7684 35.8902 99.8956 35.7361C100.816 34.632 101.761 33.5462 102.663 32.4283C105.049 29.4701 107.042 26.2727 108.408 22.7187C108.85 21.5731 109.16 20.3747 109.509 19.1969C109.569 18.9945 109.562 18.7553 109.52 18.5436C109.442 18.148 109.13 17.9847 108.771 18.171C108.499 18.3136 108.223 18.4999 108.025 18.73C107.269 19.6087 106.464 20.4621 105.824 21.4213C104.843 22.8912 103.983 24.4393 103.072 25.9552C102.982 26.1024 102.904 26.2566 102.818 26.4084C102.765 26.2313 102.781 26.0863 102.832 25.9552C102.897 25.785 102.98 25.6171 103.07 25.4584C103.939 23.9379 104.725 22.3783 105.421 20.7703C106.859 17.4372 108.163 14.0581 108.968 10.5087C109.331 8.90998 109.583 7.29057 109.588 5.64585C109.588 5.35601 109.551 5.05237 109.463 4.77864C109.236 4.07705 108.626 3.89302 108.087 4.38299C107.766 4.67513 107.463 5.02937 107.266 5.41122C106.785 6.34054 106.291 7.27447 105.939 8.2567C104.829 11.3644 104.14 14.5871 103.484 17.8122C103.461 17.9249 103.417 18.033 103.382 18.1457C103.276 17.681 103.271 17.2302 103.239 16.7793C103.204 16.3216 103.158 15.8638 103.086 15.4106C103.035 15.0886 102.908 14.7781 102.862 14.456C102.758 13.7268 102.709 12.9907 102.589 12.2661C102.309 10.5984 102.064 8.92148 101.68 7.27677C101.449 6.28304 100.994 5.33991 100.612 4.38529C100.497 4.09545 100.298 3.80331 99.9164 3.86082C99.5395 3.91833 99.4748 4.26107 99.3869 4.56241C99.3708 4.61532 99.3615 4.67052 99.3592 4.72573C99.3384 5.2387 99.2829 5.75397 99.3083 6.26463C99.4239 8.54654 99.7846 10.8008 100.222 13.039C100.802 15.9995 101.417 18.9485 101.778 21.9504C102.08 24.4761 102.131 24.4715 101.477 26.7741C101.438 26.9144 101.378 27.0479 101.329 27.1836C101.32 26.689 101.378 26.2175 101.424 25.7436C101.717 22.7785 101.412 19.8686 100.605 17.0047C100.55 16.8115 100.478 16.6183 100.381 16.4435C100.064 15.8615 99.565 15.8017 99.1396 16.3009C98.9985 16.4665 98.8691 16.6574 98.7835 16.8575C98.6263 17.2279 98.476 17.6074 98.3766 17.9985C98.0668 19.1992 97.9304 20.4253 97.9766 21.6629C98.0853 24.5681 98.2032 27.4734 98.335 30.3764C98.4113 32.0878 98.4714 33.797 98.3072 35.5038C98.2749 35.8442 98.1893 36.1939 98.0529 36.5067C96.9524 39.0439 95.6322 41.4708 94.2127 43.8424C94.1341 43.9735 94.0416 44.0931 93.956 44.2173C93.9792 44.0011 94.0601 43.8194 94.1341 43.633C94.7907 41.9745 95.4635 40.3206 96.097 38.6529C96.7073 37.0404 97.0379 35.3635 97.1258 33.6451C97.1582 33.008 97.142 32.3524 97.0379 31.7244C96.9062 30.9216 96.2727 30.7192 95.66 31.2666C95.3363 31.5542 95.0427 31.9153 94.8531 32.3018C94.4647 33.0931 94.1086 33.9074 93.8266 34.7401C93.0914 36.9231 92.6336 39.1774 92.1596 41.4271C91.5677 44.2334 90.9666 47.0398 90.0002 49.7519C89.843 50.1935 89.6257 50.5869 89.3297 50.9457C88.1182 52.411 86.8281 53.805 85.4502 55.1162C85.3184 55.2404 85.1797 55.3577 85.0433 55.4773C85.0317 55.4566 85.0201 55.4382 85.0063 55.4175C85.3508 54.7067 85.7369 54.0143 86.0328 53.2851C87.3876 49.9635 88.3795 46.5452 88.6939 42.9568C88.7864 41.9124 88.8789 40.8635 88.7217 39.8168C88.6847 39.5638 88.6384 39.3039 88.5367 39.0715C88.3471 38.6414 87.9217 38.4942 87.5287 38.7518C87.2582 38.9266 87.0223 39.1797 86.8328 39.4442C86.4282 40.0055 86.197 40.6565 86.0652 41.3235C85.6768 43.2903 85.2837 45.2548 84.9647 47.233C84.5832 49.5931 84.2086 51.9532 83.6214 54.2766C83.3925 55.1783 83.2122 56.0984 82.9786 57.0047ZM103.412 21.9389C104.14 18.5436 104.76 15.1231 105.72 11.7831C106.145 10.3017 106.626 8.83177 107.16 7.38718C107.423 6.66949 107.854 6.0116 108.23 5.33761C108.33 5.15819 108.503 5.01787 108.69 4.80624C108.933 5.2732 108.945 5.69186 108.894 6.10591C108.753 7.25376 108.633 8.40852 108.422 9.54487C107.886 12.4317 106.871 15.176 105.794 17.8927C105.095 19.6524 104.325 21.3822 103.583 23.1259C103.516 23.2869 103.421 23.4364 103.34 23.5905C103.306 23.5813 103.271 23.5698 103.236 23.5606C103.29 23.0177 103.299 22.4657 103.412 21.9389ZM101.581 15.8868C101.167 13.552 100.723 11.2218 100.335 8.88468C100.159 7.83344 100.071 6.7684 99.9626 5.70796C99.9326 5.40892 99.8956 5.09378 100.081 4.70043C100.196 4.96266 100.279 5.13979 100.353 5.31921C100.98 6.84431 101.331 8.43842 101.574 10.0601C101.981 12.7538 102.272 15.4566 102.393 18.1779C102.423 18.8358 102.397 19.4983 102.397 20.1585C102.369 20.1631 102.342 20.1654 102.314 20.17C102.071 18.7438 101.833 17.3153 101.581 15.8868ZM101.66 30.6087C102.977 27.8162 104.406 25.0765 106.039 22.4473C106.702 21.3799 107.449 20.3816 108.288 19.45C108.434 19.2866 108.57 19.1164 108.711 18.9485C108.764 18.9761 108.818 19.0014 108.871 19.029C108.815 19.2751 108.774 19.5259 108.702 19.7674C107.83 22.6359 106.54 25.3111 104.922 27.83C103.697 29.7346 102.335 31.5427 100.881 33.2817C100.837 33.3323 100.79 33.3806 100.744 33.4312C100.709 33.4128 100.675 33.3967 100.642 33.3783C100.973 32.4513 101.241 31.4944 101.66 30.6087ZM99.165 18.1434C99.269 17.7017 99.3823 17.2555 99.7522 16.8069C99.8655 17.1359 99.9719 17.3935 100.041 17.6603C100.645 19.9698 100.922 22.3138 100.813 24.6993C100.712 26.9283 100.305 29.1112 99.7684 31.2735C99.6343 31.8187 99.4979 32.3662 99.3638 32.9113C99.3361 32.909 99.3107 32.9044 99.2829 32.9021C99.2737 32.8216 99.2598 32.7388 99.2552 32.6583C99.1141 29.0974 98.9754 25.5343 98.8321 21.9734C98.7835 20.6829 98.8691 19.4017 99.165 18.1434ZM95.2878 45.3721C97.3223 43.1109 99.3199 40.8152 101.412 38.6092C102.409 37.558 103.586 36.6746 104.684 35.7177C104.772 35.6418 104.885 35.5912 104.987 35.5291C105.007 35.5475 105.028 35.5659 105.049 35.5843C104.97 35.7407 104.894 35.8994 104.811 36.0536C103.999 37.5372 102.92 38.8162 101.731 40.0101C100.219 41.526 98.5916 42.9177 96.927 44.2633C96.3259 44.751 95.7294 45.2433 95.0681 45.6895C95.1398 45.5837 95.2022 45.4664 95.2878 45.3721ZM92.7284 42.6002C93.244 40.3827 93.7133 38.1537 94.2936 35.9523C94.5872 34.8413 95.0704 33.7786 95.4935 32.702C95.6392 32.3294 95.8796 32.0027 96.305 31.7037C96.3443 32.0004 96.3906 32.2097 96.3975 32.4191C96.4461 34.142 96.201 35.8327 95.6808 37.4705C94.7283 40.4678 93.5723 43.3869 92.1319 46.191C92.051 46.3497 91.9562 46.5038 91.866 46.6579C91.8406 46.6441 91.8151 46.6303 91.7897 46.6165C92.1018 45.2778 92.4163 43.939 92.7284 42.6002ZM87.2605 55.1944C89.1563 53.7314 91.0452 52.2569 92.9596 50.8192C94.1965 49.8899 95.4635 49.002 96.7374 48.1209C97.142 47.8403 97.6067 47.6425 98.0483 47.4193C98.1547 47.3664 98.2841 47.3595 98.4783 47.3158C98.3882 47.4585 98.3489 47.5367 98.2934 47.6034C96.8276 49.4206 95.1583 51.0147 93.1862 52.2891C91.2487 53.5428 89.1979 54.5894 87.1171 55.5831C87.0385 55.6222 86.953 55.6475 86.8698 55.6797C86.8513 55.6498 86.8304 55.6199 86.812 55.59C86.9622 55.4566 87.1033 55.3163 87.2605 55.1944ZM84.6502 53.6992C85.0849 51.3322 85.5172 48.9628 85.9588 46.5981C86.2825 44.8637 86.5969 43.127 86.9692 41.4041C87.0871 40.8589 87.3784 40.3482 87.5888 39.8214C87.6165 39.7524 87.6466 39.6834 87.6743 39.6144C87.7183 39.6351 87.7622 39.6558 87.8061 39.6765C87.8292 39.8099 87.8778 39.9434 87.8755 40.0768C87.8593 40.9946 87.8893 41.917 87.8038 42.8279C87.4524 46.5774 86.3449 50.1314 84.9207 53.6003C84.8606 53.7475 84.7705 53.8832 84.6965 54.0235C84.6757 54.0166 84.6548 54.0097 84.634 54.0028C84.6364 53.9016 84.6317 53.7981 84.6502 53.6992Z" fill="black"/>
<path d="M80.9056 48.112C83.2199 43.3987 84.3551 38.384 84.6719 33.1716C84.8753 29.8154 84.6788 26.4777 84.1216 23.163C83.4188 18.9971 82.168 15.0084 80.1473 11.2796C78.4803 8.20179 76.3764 5.47363 73.5743 3.32285C70.4993 0.960439 67.0406 -0.210414 63.1356 0.0311177C61.0548 0.159935 59.0919 0.670601 57.3163 1.80005C55.9083 2.69487 54.6182 3.7392 53.4229 4.89626C50.8612 7.36908 49.0254 10.3296 47.6475 13.5822C45.5274 18.59 44.6488 23.8392 44.6118 29.36C44.6465 34.6185 45.5528 39.8286 47.5388 44.8341C48.8867 48.2316 50.6901 51.3647 53.187 54.0698C54.7014 55.7076 56.41 57.1016 58.4006 58.1321C61.4594 59.7193 64.6754 60.2645 68.0717 59.5215C70.6935 58.9487 72.9755 57.6997 75.0008 55.9698C77.5532 53.7869 79.4398 51.1024 80.9056 48.112ZM48.6601 15.0636C49.6104 12.455 50.838 9.98222 52.5304 7.77163C54.4193 5.30571 56.8238 3.46547 59.7208 2.31992C61.8524 1.47801 64.0604 1.34689 66.303 1.93347C69.3364 2.72477 71.9536 4.22687 74.2633 6.32704C76.2446 8.12818 77.8006 10.1939 79.0306 12.4734C79.6687 13.6535 80.219 14.8888 80.6952 16.1746C82.3391 20.6211 83.1483 25.2171 83.2269 29.9488C83.2939 33.9468 82.857 37.8826 81.8004 41.7425C80.7392 45.6116 79.1277 49.2231 76.6192 52.3998C75.225 54.1664 73.6159 55.7007 71.6599 56.8417C67.7157 59.1397 63.6789 59.2708 59.5843 57.2626C57.5498 56.2643 55.8412 54.8381 54.3315 53.1704C51.9362 50.5227 50.23 47.4679 48.9491 44.1624C47.6637 40.8454 46.8683 37.4133 46.5308 33.8778C46.4915 33.4752 46.4591 33.0704 46.4314 32.6678C46.3481 31.4946 46.295 30.3192 46.221 29.146C46.2718 24.3108 47.0024 19.609 48.6601 15.0636Z" fill="black"/>
<path d="M105.889 51.3806C108.187 48.6156 110.465 45.8368 112.499 42.8671C113.394 41.5583 114.393 40.3184 115.576 39.2511C116.106 38.7749 116.709 38.3539 117.338 38.025C118.12 37.6155 118.89 37.9905 119.1 38.8462C119.22 39.3385 119.257 39.8629 119.248 40.3713C119.229 41.2753 118.894 42.0896 118.413 42.851C117.475 44.3347 116.402 45.7149 115.248 47.0353C113.061 49.5334 111.029 52.1558 109.075 54.8402C108.204 56.0387 107.51 57.336 106.997 58.7254C106.863 59.0889 106.719 59.4477 106.574 59.8043C105.686 61.985 104.629 64.0598 102.837 65.67C102.782 65.7183 102.733 65.7759 102.687 65.8334C102.553 66.0013 102.458 66.1968 102.611 66.3854C102.655 66.4406 102.708 66.4797 102.766 66.5073C102.888 66.5649 103.029 66.5626 103.168 66.5004C103.385 66.4038 103.607 66.3003 103.801 66.1646C104.904 65.3894 105.852 64.467 106.446 63.2432C107.064 61.9688 107.679 60.6899 108.229 59.3856C108.761 58.125 109.329 56.8875 110.146 55.7879C111.889 53.4324 113.653 51.093 115.422 48.7582C116.013 47.9761 116.622 47.2009 117.223 46.4257C117.683 45.8345 118.141 45.2411 118.589 44.6407C119.017 44.0679 119.403 43.4514 119.727 42.8119C120.432 41.4202 120.679 39.9596 120.233 38.4276C119.988 37.5856 119.454 37.0221 118.614 36.7529C117.93 36.5321 117.262 36.5988 116.622 36.9117C115.849 37.2866 115.167 37.7835 114.559 38.3862C113.285 39.649 112.097 40.9924 111.068 42.4531C109.175 45.1375 107.078 47.661 104.997 50.1982C101.397 54.5872 97.0897 58.125 92.0796 60.8118C90.0751 61.886 88.1515 63.0891 86.2649 64.352C83.2639 66.3624 80.8225 68.9365 78.7717 71.874C77.1926 74.1352 76.2401 76.6793 75.558 79.3407C74.3465 84.0794 74.0899 88.8502 74.9245 93.6739C75.5418 97.2486 76.4967 100.745 77.373 104.258C78.6746 109.468 80.1081 114.646 81.4421 119.847C82.2837 123.127 82.9657 126.442 83.4304 129.798C83.5946 130.98 83.8373 132.151 84.0593 133.327C84.1032 133.557 84.1841 133.796 84.309 133.991C84.5309 134.346 85.0187 134.385 85.2476 134.067C85.3563 133.915 85.4164 133.692 85.4095 133.504C85.4049 133.347 85.4002 133.189 85.3956 133.032C85.3656 132.05 85.3424 131.065 85.2361 130.09C84.8176 126.299 84.1009 122.559 83.1021 118.878C81.7935 114.05 80.3115 109.27 78.707 104.529C77.6481 101.405 76.9059 98.1986 76.2956 94.9621C75.8702 92.7009 75.5997 90.4167 75.5973 88.6156C75.6228 85.4871 75.9557 82.9039 76.5753 80.3529C77.121 78.1078 77.8238 75.9248 79.0145 73.9258C80.9126 70.7422 83.4581 68.1521 86.4753 66.0151C88.0683 64.8879 89.7283 63.862 91.4253 62.8959C91.8646 62.6474 92.3039 62.4013 92.7455 62.1598C97.8041 59.3902 102.202 55.8132 105.889 51.3806Z" fill="black"/>
<path d="M127.226 10.5597C126.671 11.1923 126.937 12.4689 126.87 13.2717C126.789 14.2816 126.715 15.2914 126.666 16.3012C126.532 19.057 126.479 21.8174 126.322 24.5708C126.169 27.2208 125.755 29.8385 125.032 32.3965C124.19 35.3753 123.071 38.2576 121.758 41.0617C120.618 43.4931 120.033 46.0602 119.769 48.7148C119.626 50.1594 119.517 51.6109 119.321 53.0486C119.106 54.6243 118.685 56.1494 117.86 57.5319C117.064 58.8614 116.207 60.1519 115.169 61.3067C112.898 63.8278 110.665 66.3811 108.258 68.778C105.826 71.2003 103.461 73.6823 101.308 76.3598C100.104 77.8596 99.0378 79.4422 98.1222 81.1329C94.9525 86.9803 94.5618 93.1014 96.2634 99.4342C96.3143 99.6251 96.3929 99.839 96.527 99.9678C96.6564 100.092 96.8969 100.202 97.0518 100.168C97.2067 100.133 97.3315 99.9172 97.4425 99.7608C97.4888 99.6964 97.4772 99.5814 97.4726 99.4917C97.4194 98.2426 97.4541 96.982 97.2899 95.7468C96.9246 93.0117 97.0634 90.3158 97.6437 87.6313C98.3812 84.2062 99.9256 81.1537 101.995 78.3519C103.606 76.1689 105.366 74.1101 107.259 72.1618C110.205 69.1323 113.035 65.9993 115.754 62.7673C116.944 61.3527 118.001 59.8483 118.912 58.2403C119.388 57.403 119.742 56.5174 120.005 55.5927C120.521 53.7778 120.745 51.9168 120.882 50.0421C121.104 46.9896 121.742 44.0475 123.062 41.2572C124.403 38.4232 125.457 35.4743 126.208 32.4333C127.126 28.7183 127.459 24.9274 127.517 21.1089C127.545 19.287 127.554 17.4652 127.542 15.6457C127.535 14.0677 127.885 12.0503 127.226 10.5597Z" fill="black"/>
<path d="M118.151 30.9099C118.237 30.9582 118.424 30.9398 118.498 30.8754C118.646 30.7442 118.78 30.5786 118.863 30.3992C119.222 29.6332 119.608 28.8764 119.892 28.0828C120.061 27.6089 120.211 27.1305 120.348 26.6497C120.838 24.9199 121.129 23.1463 121.335 21.3544C121.545 19.5096 121.763 17.6624 122.008 15.8222C122.142 14.8169 122.403 13.837 122.895 12.9353C123.231 12.3211 123.742 12.029 124.153 11.5321C124.278 11.3826 124.389 11.286 124.387 11.1365C124.387 11.1296 124.382 11.1181 124.382 11.1112C124.38 11.0812 124.375 11.0513 124.364 11.0145C123.386 10.8765 122.512 11.7161 122.038 12.4315C121.608 13.0825 121.312 13.7956 121.106 14.5432C120.687 16.0568 120.503 17.6072 120.331 19.1645C120.146 20.8644 119.968 22.569 119.719 24.2597C119.423 26.2471 118.84 28.1679 118.184 30.0679C118.123 30.2428 118.045 30.4153 118.024 30.5947C118.015 30.6982 118.073 30.8639 118.151 30.9099Z" fill="black"/>
<path d="M44.5343 118.644C45.8429 113.815 47.3249 109.035 48.9294 104.294C49.9883 101.17 50.7304 97.9638 51.3408 94.7273C51.7662 92.4661 52.0367 90.1819 52.039 88.3808C52.0136 85.2524 51.6807 82.6691 51.0611 80.1181C50.5154 77.873 49.8126 75.69 48.6219 73.6911C46.7237 70.5075 44.1782 67.9173 41.1611 65.7803C39.5681 64.6532 37.9081 63.6273 36.2111 62.6611C36.4376 63.3558 37.1705 63.9102 37.8087 64.368C39.1565 65.3341 40.3634 66.4796 41.524 67.662C43.8661 70.0474 46.0625 72.6398 47.4728 75.6647C51.3038 83.8906 49.1421 93.6163 46.4787 101.826C43.3205 111.568 41.0963 122.28 41.6235 132.537C41.6304 132.673 41.42 133.715 41.8778 133.425C42.0281 133.329 42.1552 133.046 42.2408 132.795C42.2708 131.813 42.2939 130.828 42.4003 129.853C42.8188 126.067 43.5378 122.324 44.5343 118.644Z" fill="#F29FA4"/>
<path d="M24.4624 66.2654C24.2451 66.1688 24.0232 66.0653 23.829 65.9296C22.7261 65.1544 21.7782 64.2319 21.184 63.0082C20.5667 61.7338 19.9517 60.4549 19.4015 59.1506C18.8697 57.89 18.301 56.6524 17.4848 55.5529C15.7416 53.1974 13.9775 50.858 12.2088 48.5232C11.617 47.7411 11.0089 46.9659 10.4078 46.1907C10.2298 47.6836 12.0955 49.6986 12.7522 50.7821C13.7926 52.5004 14.6873 54.3038 15.552 56.1142C16.6433 58.3984 17.6813 60.7125 18.9021 62.9323C19.8962 64.738 21.1725 67.5835 23.4845 68.0044C24.0879 68.1149 24.8115 67.8388 24.9849 67.2522C25.0774 66.9417 25.0081 66.6036 24.8624 66.2723C24.7445 66.3298 24.6012 66.3275 24.4624 66.2654Z" fill="#F29FA4"/>
<path d="M2.64884 12.5168C3.17829 12.9355 3.48348 13.5267 3.69156 14.1546C4.11003 15.4267 4.0476 16.7885 4.23488 18.0997C4.51232 20.0457 5.01171 22.07 5.65213 23.9815C5.84865 24.575 5.92957 25.2214 6.19777 25.7919C6.3203 26.0518 6.86362 26.6982 7.21274 26.4958C7.24048 26.4797 7.2636 26.4521 7.28441 26.4199C6.79426 24.69 6.50295 22.9165 6.29718 21.1246C6.08679 19.2797 5.86946 17.4326 5.62439 15.5923C5.49029 14.5871 5.22904 13.6072 4.73658 12.7054C4.40134 12.0913 3.89039 11.7991 3.47885 11.3023C3.354 11.1527 3.24303 11.0561 3.24534 10.9066C3.24534 10.8997 3.24996 10.8882 3.24996 10.8813C2.52862 10.6513 1.84427 10.695 1.58301 11.3782C1.32638 12.0315 2.2743 12.2224 2.64884 12.5168Z" fill="#F29FA4"/>
<path d="M48.8655 71.6379C46.8148 68.7004 44.3733 66.1264 41.3723 64.1159C39.4857 62.8531 37.5621 61.65 35.5576 60.5758C30.5475 57.889 26.2403 54.3511 22.6405 49.9622C20.5597 47.4249 18.4627 44.9038 16.5691 42.2171C15.538 40.7564 14.3519 39.413 13.078 38.1501C12.47 37.5474 11.7879 37.0483 11.0157 36.6756C10.3753 36.3651 9.70713 36.2984 9.02277 36.5169C8.18352 36.786 7.64944 37.3496 7.40437 38.1915C6.95815 39.7235 7.20785 41.1865 7.9107 42.5759C8.23438 43.2131 8.62048 43.8296 9.04821 44.4046C9.49673 45.005 9.95451 45.5985 10.4146 46.1897C11.018 46.9649 11.6238 47.7378 12.2156 48.5222C13.9843 50.8593 15.7484 53.1987 17.4916 55.5519C18.3078 56.6538 18.8765 57.889 19.4083 59.1496C19.9585 60.4538 20.5712 61.7328 21.1908 63.0072C21.785 64.2309 22.7329 65.1557 23.8358 65.9286C24.03 66.0643 24.2496 66.1678 24.4693 66.2644C24.608 66.3265 24.7513 66.3288 24.8716 66.2713C24.9293 66.2437 24.9802 66.2046 25.0265 66.1494C25.179 65.9608 25.0843 65.7675 24.9502 65.5973C24.9039 65.5398 24.8554 65.4846 24.7999 65.434C23.0081 63.8238 21.9515 61.7489 21.0637 59.5682C20.918 59.2094 20.7747 58.8505 20.6406 58.4894C20.1273 57.1 19.4337 55.8026 18.5621 54.6042C16.6085 51.922 14.5785 49.2997 12.389 46.7993C11.233 45.4789 10.1603 44.0987 9.22392 42.615C8.74302 41.8536 8.40547 41.0393 8.38928 40.1353C8.38004 39.6269 8.41703 39.1025 8.53725 38.6102C8.74533 37.7568 9.51523 37.3795 10.299 37.789C10.9302 38.1179 11.5336 38.5389 12.0607 39.015C13.2445 40.0801 14.2433 41.3222 15.138 42.6311C17.1726 45.6008 19.4499 48.3819 21.748 51.1445C25.4357 55.5772 29.8331 59.1542 34.8987 61.9214C35.3403 62.163 35.7819 62.4091 36.2189 62.6575C37.9159 63.6237 39.5759 64.6473 41.1688 65.7767C44.186 67.9137 46.7315 70.5039 48.6297 73.6875C49.8204 75.6841 50.5232 77.8694 51.0688 80.1145C51.6885 82.6656 52.0237 85.2488 52.0468 88.3772C52.0445 90.1783 51.774 92.4625 51.3486 94.7237C50.7382 97.9603 49.9938 101.167 48.9372 104.291C47.3303 109.032 45.8507 113.812 44.5421 118.64C43.5456 122.32 42.8289 126.061 42.4081 129.852C42.2994 130.827 42.2786 131.811 42.2486 132.794C42.2439 132.95 42.2393 133.109 42.2347 133.265C42.2277 133.454 42.2879 133.677 42.3965 133.829C42.6254 134.146 43.1132 134.105 43.3352 133.753C43.46 133.555 43.541 133.318 43.5849 133.088C43.8068 131.915 44.0496 130.742 44.2138 129.56C44.6785 126.201 45.3605 122.886 46.2021 119.608C47.5384 114.407 48.9719 109.229 50.2712 104.019C51.1475 100.507 52.1023 97.0079 52.7196 93.4356C53.5542 88.6095 53.2976 83.841 52.0861 79.1024C51.3971 76.4432 50.4423 73.8991 48.8655 71.6379Z" fill="black"/>
<path d="M26.3211 76.1361C24.1686 73.4585 21.8034 70.9742 19.3712 68.5543C16.9644 66.1574 14.731 63.604 12.4606 61.0829C11.4202 59.9281 10.5625 58.6377 9.76947 57.3081C8.94178 55.9233 8.5233 54.3982 8.30829 52.8248C8.11177 51.3871 8.0031 49.9356 7.85976 48.491C7.59619 45.8365 7.01125 43.2694 5.87144 40.8379C4.55822 38.0339 3.43921 35.1516 2.59764 32.1727C1.87399 29.6148 1.46014 26.997 1.30755 24.3471C1.15033 21.5936 1.09715 18.8333 0.963058 16.0775C0.914506 15.0654 0.840523 14.0555 0.759602 13.048C0.694866 12.2452 0.958434 10.9685 0.403554 10.3359C-0.255366 11.8265 0.093746 13.8439 0.082186 15.4334C0.070626 17.2552 0.0775617 19.0771 0.107618 20.8966C0.16773 24.7128 0.500658 28.5037 1.41621 32.221C2.16761 35.2643 3.22188 38.211 4.56284 41.045C5.883 43.8352 6.52342 46.775 6.74306 49.8298C6.87947 51.7046 7.10373 53.5632 7.61931 55.3804C7.88057 56.3052 8.23662 57.1908 8.71289 58.0281C9.62613 59.6337 10.6804 61.1381 11.8711 62.5551C14.5923 65.787 17.4199 68.92 20.3654 71.9495C22.2589 73.8956 24.0183 75.9566 25.6298 78.1396C27.699 80.9414 29.2435 83.9939 29.981 87.4191C30.559 90.1058 30.6977 92.8018 30.3347 95.5345C30.1706 96.7698 30.2053 98.0303 30.1521 99.2794C30.1475 99.3714 30.1359 99.4841 30.1821 99.5486C30.2931 99.705 30.418 99.9189 30.5729 99.9557C30.7301 99.9902 30.9682 99.8798 31.0977 99.7556C31.2341 99.6245 31.3104 99.4128 31.3613 99.2219C33.0629 92.8892 32.6722 86.7658 29.5024 80.9207C28.5915 79.2185 27.5256 77.6336 26.3211 76.1361Z" fill="black"/>
<path d="M3.47342 11.303C3.88726 11.7999 4.3959 12.092 4.73114 12.7062C5.2236 13.6079 5.48486 14.5879 5.61895 15.5931C5.86402 17.4333 6.08135 19.2805 6.29175 21.1253C6.49751 22.9173 6.78883 24.6908 7.27897 26.4206C7.41538 26.9014 7.56335 27.3798 7.73443 27.8537C8.01881 28.6473 8.40723 29.4041 8.76327 30.1701C8.84651 30.3495 8.9806 30.5151 9.12857 30.6463C9.20255 30.7107 9.38983 30.7291 9.47537 30.6808C9.55629 30.6348 9.61409 30.4668 9.60253 30.3633C9.58172 30.1839 9.50311 30.0114 9.443 29.8366C8.78639 27.9388 8.20377 26.0181 7.90783 24.0283C7.65583 22.3376 7.48011 20.6331 7.29515 18.9331C7.12638 17.3781 6.94142 15.8254 6.52063 14.3118C6.31255 13.5619 6.01893 12.8511 5.5889 12.2002C5.11494 11.4848 4.241 10.6428 3.26302 10.7832C3.24915 10.8177 3.24684 10.8499 3.24453 10.8798C3.24453 10.889 3.2399 10.8982 3.2399 10.9051C3.23759 11.0546 3.34857 11.1512 3.47342 11.303Z" fill="black"/>
</svg>
