<svg width="202" height="216" viewBox="0 0 202 216" fill="none" xmlns="http://www.w3.org/2000/svg">
<path fill-rule="evenodd" clip-rule="evenodd" d="M102.853 0.0376256C134.323 -0.783473 165.626 11.8455 184.693 36.846C203.301 61.2443 206.085 94.1421 196.951 123.417C188.631 150.081 165.328 167.095 140.211 179.404C114.773 191.87 86.5271 200.829 60.1645 190.451C31.5462 179.186 8.73869 154.914 1.93624 124.971C-4.85563 95.0739 6.93014 64.8471 26.2083 40.9811C45.3428 17.2929 72.376 0.832809 102.853 0.0376256Z" fill="#FFDCE2"/>
<path d="M83.8142 71.8739C86.3988 71.8739 88.5015 69.7713 88.5015 67.1866C88.5015 64.602 86.3988 62.4994 83.8142 62.4994C81.2296 62.4994 79.127 64.602 79.127 67.1866C79.127 69.7713 81.2296 71.8739 83.8142 71.8739ZM83.8142 65.6242C84.6757 65.6242 85.3766 66.3252 85.3766 67.1866C85.3766 68.0481 84.6757 68.7491 83.8142 68.7491C82.9527 68.7491 82.2518 68.0481 82.2518 67.1866C82.2518 66.3252 82.9527 65.6242 83.8142 65.6242Z" fill="black"/>
<path d="M101 59.3745C103.584 59.3745 105.687 57.2719 105.687 54.6873C105.687 52.1026 103.584 50 101 50C98.4151 50 96.3125 52.1026 96.3125 54.6873C96.3125 57.2719 98.4151 59.3745 101 59.3745ZM101 53.1248C101.861 53.1248 102.562 53.8258 102.562 54.6873C102.562 55.5487 101.861 56.2497 101 56.2497C100.138 56.2497 99.4373 55.5487 99.4373 54.6873C99.4373 53.8258 100.138 53.1248 101 53.1248Z" fill="black"/>
<path d="M118.187 71.8739C120.772 71.8739 122.875 69.7713 122.875 67.1866C122.875 64.602 120.772 62.4994 118.187 62.4994C115.603 62.4994 113.5 64.602 113.5 67.1866C113.5 69.7713 115.603 71.8739 118.187 71.8739ZM118.187 65.6242C119.049 65.6242 119.75 66.3252 119.75 67.1866C119.75 68.0481 119.049 68.7491 118.187 68.7491C117.326 68.7491 116.625 68.0481 116.625 67.1866C116.625 66.3252 117.326 65.6242 118.187 65.6242Z" fill="black"/>
<path d="M150.711 122.778C151.5 121.728 150.561 120.16 149.267 120.314C147.378 120.314 144.745 120.313 141.963 120.312C146.988 108.758 145.66 97.7198 145.645 97.6024C145.554 96.8863 144.984 96.3257 144.266 96.247C144.035 96.2216 138.92 95.6834 132.008 96.706C131.769 94.45 131.276 92.2363 130.528 90.1059C129.715 87.7856 128.604 85.5648 127.228 83.5049C126.906 83.0231 126.343 82.7594 125.767 82.819C122.148 83.1954 118.662 84.1746 115.685 85.6515C114.678 86.152 113.726 86.7098 112.839 87.3184C107.997 77.9632 102.326 72.5399 102.073 72.3008C101.471 71.7311 100.529 71.7311 99.9265 72.3008C99.673 72.5406 93.9868 77.9786 89.1415 87.3532C88.2418 86.7325 87.2729 86.163 86.2442 85.6509C83.2684 84.1744 79.7824 83.1952 76.1629 82.819C75.5866 82.7594 75.0243 83.0231 74.7022 83.5049C73.3256 85.5648 72.2153 87.7856 71.4024 90.1048C70.6558 92.2304 70.1628 94.4407 69.9228 96.6947C63.0497 95.6863 57.9619 96.2218 57.732 96.247C57.0116 96.3261 56.4399 96.8905 56.3518 97.6102C56.2928 98.0924 55.0509 108.874 60.0346 120.31C57.2532 120.31 54.6216 120.311 52.7327 120.312C51.4392 120.157 50.5004 121.726 51.2892 122.776C53.1075 125.348 56.1479 129.016 60.5977 132.464C57.8682 134.645 55.678 137.582 54.249 140.991C54.0814 141.39 54.0875 141.842 54.2658 142.237C54.4441 142.633 54.7787 142.936 55.1894 143.075C58.6898 144.258 63.2704 145.315 68.4688 145.314C73.2554 145.373 79.2475 144.201 84.1555 141.84C89.0337 142.685 98.7903 141.733 101 140.868C103.217 141.733 112.962 142.686 117.848 141.842C122.761 144.204 128.741 145.372 133.531 145.315C138.729 145.315 143.31 144.258 146.811 143.075C147.651 142.81 148.109 141.795 147.751 140.991C146.322 137.582 144.132 134.645 141.404 132.464C145.853 129.018 148.893 125.35 150.711 122.778ZM142.646 99.2592C142.822 102.469 142.824 111.327 138.53 120.312C127.185 120.679 127.415 119.048 119.262 122.575C120.063 116.345 119.872 110.078 118.674 103.94C124.483 100.639 137.439 98.6321 142.646 99.2592ZM117.074 88.4504C119.462 87.2657 122.234 86.4395 125.143 86.0411C127.245 89.4388 128.54 93.2745 128.923 97.2519C125.026 98.0538 121.357 99.2467 117.977 100.812C117.069 97.2001 115.811 93.631 114.225 90.1649C115.098 89.5339 116.051 88.9589 117.074 88.4504ZM101 75.6707C111.536 86.2485 119.473 107.943 115.812 124.497C113.073 126.204 110.157 128.429 107.068 131.172C107.68 129.638 108.259 127.957 108.757 126.137C109.828 122.221 110.372 118.157 110.375 114.06C110.405 112.032 107.221 112.032 107.25 114.058C107.248 117.878 106.741 121.664 105.743 125.313C104.426 130.128 102.506 133.906 101 136.386C99.4937 133.906 97.5747 130.128 96.2574 125.313C95.2594 121.664 94.7522 117.878 94.7504 114.058C94.7789 112.03 91.5947 112.033 91.6256 114.06C91.6277 118.157 92.172 122.221 93.2435 126.137C93.7411 127.957 94.3204 129.638 94.9324 131.171C91.8433 128.428 88.9265 126.203 86.1878 124.496C82.5114 107.974 90.4942 86.1903 101 75.6707ZM76.7863 86.0411C80.8832 86.626 84.5584 87.9006 87.7563 90.2024C86.1792 93.6589 84.9277 97.2151 84.0231 100.812C80.625 99.2379 76.933 98.0399 73.0084 97.237C73.3941 93.2616 74.6866 89.4364 76.7863 86.0411ZM59.3577 99.2588C64.6196 98.6362 77.4947 100.638 83.3254 103.94C82.1298 110.063 81.9323 116.351 82.7368 122.573C74.5823 119.045 74.8167 120.677 63.4692 120.309C59.2103 111.389 59.1915 102.487 59.3577 99.2588ZM57.8654 140.641C58.8718 138.728 60.4553 136.481 62.8849 134.64C63.0052 134.548 63.131 134.461 63.2552 134.372C67.1698 137.043 72.774 139.581 78.1581 140.786C70.3175 143.119 63.0905 142.16 57.8654 140.641ZM84.1527 138.697C73.4496 137.716 61.8521 131.304 55.7306 123.436C77.7378 124.449 76.7641 118.401 97.9518 138.35C95.0445 138.892 90.1587 139.438 84.1527 138.697ZM139.117 134.641C141.545 136.482 143.128 138.728 144.135 140.641C138.91 142.16 131.685 143.119 123.846 140.787C129.232 139.581 134.83 137.045 138.747 134.373C138.871 134.462 138.995 134.549 139.117 134.641ZM137.982 131.11C130.042 137.613 113.01 140.61 104.048 138.35C125.219 118.407 124.286 124.449 146.269 123.438C144.32 125.791 141.587 128.565 137.982 131.11Z" fill="black"/>
</svg>
