<svg width="18" height="18" viewBox="0 0 18 18" fill="none" xmlns="http://www.w3.org/2000/svg">
<path fill-rule="evenodd" clip-rule="evenodd" d="M15.3038 2.61588C13.6198 0.929915 11.3803 0.00102981 8.99434 0C4.07804 0 0.0767208 4.00106 0.074747 8.9189C0.0741463 10.4909 0.484782 12.0253 1.26538 13.3781L0 18L4.72836 16.7597C6.03115 17.4703 7.49794 17.8448 8.99073 17.8454H8.99442C13.9102 17.8454 17.9119 13.8438 17.9139 8.92585C17.9148 6.54271 16.9878 4.30176 15.3038 2.61588ZM8.99442 16.339H8.99142C7.66116 16.3385 6.3564 15.9811 5.2182 15.3056L4.94745 15.145L2.14157 15.881L2.8905 13.1453L2.71423 12.8647C1.97217 11.6844 1.58015 10.3202 1.58075 8.91933C1.58238 4.83186 4.90806 1.50644 8.99743 1.50644C10.9775 1.50712 12.839 2.27922 14.2386 3.68062C15.6383 5.08193 16.4086 6.9445 16.4078 8.92542C16.4062 13.0132 13.0805 16.339 8.99442 16.339ZM13.0609 10.7865C12.838 10.6751 11.7424 10.1359 11.538 10.0615C11.3338 9.98724 11.1852 9.95 11.0366 10.1731C10.8881 10.3962 10.4609 10.8982 10.3309 11.047C10.2008 11.1956 10.0708 11.2143 9.84805 11.1027C9.62509 10.9912 8.90706 10.7558 8.05575 9.99651C7.39324 9.40557 6.94596 8.67578 6.81595 8.45257C6.68594 8.22945 6.80205 8.10887 6.9137 7.99774C7.01393 7.89785 7.13656 7.73737 7.24804 7.60727C7.35952 7.47717 7.39659 7.38415 7.47091 7.23543C7.54523 7.0867 7.50807 6.95652 7.45229 6.84504C7.39659 6.73339 6.95086 5.63639 6.76515 5.19014C6.58424 4.75565 6.40051 4.81443 6.26372 4.80757C6.13387 4.80113 5.98515 4.79967 5.83652 4.79967C5.68797 4.79967 5.44656 4.85546 5.24223 5.07858C5.03799 5.30171 4.46224 5.8409 4.46224 6.9379C4.46224 8.0349 5.26077 9.09457 5.37225 9.24338C5.48364 9.3921 6.94382 11.6432 9.17944 12.6086C9.71108 12.8383 10.1263 12.9753 10.45 13.0781C10.9839 13.2478 11.4697 13.2238 11.8537 13.1664C12.2819 13.1024 13.1723 12.6272 13.358 12.1067C13.5437 11.586 13.5437 11.1398 13.488 11.0468C13.4323 10.954 13.2837 10.8982 13.0609 10.7865Z" fill="white"/>
</svg>
