<svg width="24" height="24" viewBox="0 0 24 24" fill="none" xmlns="http://www.w3.org/2000/svg">
<g clip-path="url(#clip0)">
<path d="M17.2071 8.79312C16.8171 8.40262 16.1831 8.40262 15.7931 8.79312L11.5001 13.0856L9.70712 11.2931C9.31712 10.9026 8.68312 10.9026 8.29312 11.2931C7.90262 11.6836 7.90262 12.3166 8.29312 12.7071L10.7931 15.2071C10.9881 15.4026 11.2441 15.5001 11.5001 15.5001C11.7561 15.5001 12.0121 15.4026 12.2071 15.2071L17.2071 10.2071C17.5976 9.81662 17.5976 9.18362 17.2071 8.79312Z" fill="#A89175"/>
<path d="M23.0001 11C22.4481 11 22.0001 11.448 22.0001 12C22.0001 17.514 17.5141 22 12.0001 22C6.48606 22 2.00006 17.514 2.00006 12C2.00006 6.486 6.48606 2 12.0001 2C14.6846 2 17.2046 3.049 19.0966 4.954C19.4851 5.3465 20.1186 5.3485 20.5106 4.959C20.9026 4.57 20.9046 3.937 20.5156 3.545C18.2456 1.259 15.2211 0 12.0001 0C5.38306 0 6.10352e-05 5.383 6.10352e-05 12C6.10352e-05 18.617 5.38306 24 12.0001 24C18.6171 24 24.0001 18.617 24.0001 12C24.0001 11.448 23.5521 11 23.0001 11Z" fill="#A89175"/>
</g>
<defs>
<clipPath id="clip0">
<rect width="24" height="24" fill="white"/>
</clipPath>
</defs>
</svg>
