<svg width="64" height="64" viewBox="0 0 64 64" fill="none" xmlns="http://www.w3.org/2000/svg">
<g clip-path="url(#clip0_387_23829)">
<path d="M58.6667 0H5.33332C2.38925 0.00347489 0.00347489 2.38925 0 5.33332V58.6667C0.00347489 61.6108 2.38925 63.9965 5.33332 64H58.6667C61.6108 63.9964 63.9965 61.6108 64 58.6667V5.33332C63.9965 2.38925 61.6108 0.00347489 58.6667 0ZM61.8667 58.6667C61.8667 60.434 60.434 61.8666 58.6668 61.8666H5.33332C3.56597 61.8666 2.13337 60.4339 2.13337 58.6667V5.33332C2.13337 3.56597 3.56608 2.13337 5.33332 2.13337H58.6667C60.434 2.13337 61.8666 3.56608 61.8666 5.33332V58.6667H61.8667Z" fill="white"/>
<path fill-rule="evenodd" clip-rule="evenodd" d="M58.6666 8.53516H5.33329C4.74414 8.53516 4.2666 9.01269 4.2666 9.60184C4.2666 10.191 4.74414 10.6685 5.33329 10.6685H58.6666C59.2558 10.6685 59.7333 10.191 59.7333 9.60184C59.7333 9.01269 59.2558 8.53516 58.6666 8.53516Z" fill="white"/>
<path d="M6.39969 6.40095C6.98881 6.40095 7.46638 5.92338 7.46638 5.33426C7.46638 4.74515 6.98881 4.26758 6.39969 4.26758C5.81058 4.26758 5.33301 4.74515 5.33301 5.33426C5.33301 5.92338 5.81058 6.40095 6.39969 6.40095Z" fill="white"/>
<path d="M10.6663 6.40095C11.2554 6.40095 11.733 5.92338 11.733 5.33426C11.733 4.74515 11.2554 4.26758 10.6663 4.26758C10.0772 4.26758 9.59961 4.74515 9.59961 5.33426C9.59961 5.92338 10.0772 6.40095 10.6663 6.40095Z" fill="white"/>
<path d="M14.9329 6.40095C15.522 6.40095 15.9996 5.92338 15.9996 5.33426C15.9996 4.74515 15.522 4.26758 14.9329 4.26758C14.3438 4.26758 13.8662 4.74515 13.8662 5.33426C13.8662 5.92338 14.3438 6.40095 14.9329 6.40095Z" fill="white"/>
<path fill-rule="evenodd" clip-rule="evenodd" d="M26.8985 36.2914C26.3239 36.1686 25.7569 36.5294 25.6249 37.1021L24.0718 44.0919L22.2478 41.0508C22.0409 40.7497 21.699 40.5699 21.3337 40.5699C20.9684 40.5699 20.6265 40.7497 20.4196 41.0508L18.5956 44.0919L17.0425 37.102C16.9147 36.5264 16.3445 36.1634 15.7689 36.2912C15.1934 36.4191 14.8304 36.9893 14.9582 37.5648L17.0916 47.1648C17.1854 47.5915 17.53 47.9179 17.9612 47.9885C18.3924 48.059 18.823 47.8595 19.0479 47.4848L21.3337 43.6725L23.6196 47.4827C23.8124 47.8037 24.1593 47.9999 24.5337 48C24.5908 48.0002 24.6479 47.9955 24.7044 47.9862C25.1357 47.9167 25.4809 47.5912 25.5758 47.1648L27.7092 37.5648C27.7708 37.2884 27.72 36.9989 27.5679 36.7599C27.4158 36.5211 27.175 36.3525 26.8985 36.2914Z" fill="white"/>
<path fill-rule="evenodd" clip-rule="evenodd" d="M32.0003 36.2676C31.4111 36.2676 30.9336 36.7451 30.9336 37.3343V46.9342C30.9336 47.5234 31.4111 48.0009 32.0003 48.0009C32.5894 48.0009 33.067 47.5234 33.067 46.9342V37.3343C33.067 36.7451 32.5893 36.2676 32.0003 36.2676Z" fill="white"/>
<path fill-rule="evenodd" clip-rule="evenodd" d="M46.9334 36.2676C46.3442 36.2676 45.8667 36.7451 45.8667 37.3343V44.3593L38.0874 36.5801C37.7824 36.2752 37.3237 36.184 36.9251 36.349C36.5266 36.5141 36.2667 36.9029 36.2666 37.3343V46.9342C36.2666 47.5234 36.7441 48.0009 37.3333 48.0009C37.9224 48.0009 38.4 47.5234 38.4 46.9342V39.9092L46.1792 47.6884C46.3792 47.8885 46.6504 48.0008 46.9334 48.0009C47.0736 48.0013 47.2125 47.9739 47.3419 47.9198C47.7404 47.7546 48.0001 47.3656 48 46.9342V37.3343C48 36.7451 47.5225 36.2676 46.9334 36.2676Z" fill="white"/>
<path d="M52.0952 30.7491L52.9923 29.7113C53.4799 29.1468 53.6371 28.3685 53.4071 27.6589C53.177 26.9493 52.593 26.4114 51.8669 26.2403L49.8402 25.7614L48.7544 23.9769C48.3674 23.3404 47.6764 22.9517 46.9314 22.9517C46.1864 22.9517 45.4955 23.3403 45.1085 23.9769L44.077 25.6728C42.9761 25.2405 41.8501 24.8747 40.7053 24.5774L41.2567 23.9374C41.7444 23.3729 41.9016 22.5946 41.6716 21.885C41.4415 21.1754 40.8575 20.6375 40.1315 20.4664L36.0206 19.4968L33.8211 15.8787C33.4341 15.2422 32.7431 14.8535 31.9982 14.8535C31.2532 14.8535 30.5622 15.2421 30.1752 15.8787L27.9757 19.4968L23.8648 20.4664C23.1391 20.6376 22.5555 21.1754 22.3254 21.8846C22.0953 22.5938 22.2524 23.3717 22.7395 23.9362L23.2909 24.5763C22.1461 24.8735 21.0201 25.2393 19.9192 25.6717L18.8877 23.9757C18.5007 23.3392 17.8098 22.9505 17.0648 22.9505C16.3198 22.9505 15.6288 23.3391 15.2418 23.9757L14.156 25.7602L12.1293 26.2392C11.4035 26.4104 10.82 26.9481 10.5899 27.6573C10.3599 28.3666 10.5168 29.1445 11.0039 29.709L11.8999 30.7479C9.14938 33.2685 7.54798 36.8036 7.4668 40.5335C7.4668 49.9436 18.4716 57.6001 32.0002 57.6001C45.5287 57.6001 56.5335 49.9436 56.5335 40.5335C56.4513 36.8032 54.8479 33.2684 52.0952 30.7491ZM45.8478 26.8697L46.9337 25.0852L48.0184 26.8676C48.3156 27.3567 48.7961 27.7066 49.3528 27.8393L51.3795 28.3161L50.0196 29.8926C49.8689 30.0721 49.7492 30.2754 49.6654 30.4942L49.658 30.5102C49.536 30.8125 49.4854 31.1387 49.5097 31.4638L49.6804 33.5374L47.7604 32.7331C47.233 32.5112 46.6386 32.5112 46.1113 32.7331L44.1912 33.5374L44.3619 31.4638C44.4087 30.8925 44.2246 30.3263 43.851 29.8916L42.4921 28.3171L44.4026 27.8659C44.4239 27.8659 44.4442 27.8574 44.4645 27.851L44.5167 27.8393C45.0718 27.7064 45.5511 27.3574 45.8478 26.8697ZM28.4676 21.5758C29.023 21.4423 29.5027 21.0935 29.8009 20.6062L32.0004 16.9882L34.2009 20.6052C34.4983 21.0935 34.9782 21.443 35.5342 21.5758L39.6441 22.5444L36.8835 25.7443C36.5116 26.1783 36.3281 26.7426 36.3737 27.3124L36.7224 31.5257L32.8249 29.8916C32.2973 29.6711 31.7034 29.6711 31.1758 29.8916L27.2793 31.5247L27.6259 27.3146C27.6731 26.7437 27.4894 26.1778 27.116 25.7434L24.3566 22.5434L28.4676 21.5758ZM14.6478 27.8403C15.2038 27.708 15.6839 27.3589 15.9811 26.8707L17.067 25.0852L18.1518 26.8676C18.4489 27.3567 18.9294 27.7066 19.4861 27.8393L19.5384 27.851C19.5586 27.8574 19.5799 27.8606 19.6013 27.8659L21.5106 28.3161L20.1506 29.8926C19.7776 30.3272 19.594 30.893 19.6407 31.4638L19.8114 33.5374L17.8914 32.7331C17.364 32.5112 16.7696 32.5112 16.2423 32.7331L14.3222 33.5374L14.4929 31.4638C14.5172 31.1392 14.4666 30.8132 14.3447 30.5113L14.3361 30.4921C14.2522 30.2737 14.1325 30.0708 13.982 29.8916L12.6231 28.3171L14.6478 27.8403ZM32.0004 55.4671C19.6494 55.4671 9.60038 48.7684 9.60038 40.5337C9.63892 37.9831 10.5593 35.5246 12.2052 33.5758C12.2102 34.2827 12.5685 34.9403 13.1597 35.3278C13.751 35.7154 14.4968 35.7816 15.147 35.5043L17.0671 34.6989L18.9871 35.5043C19.6747 35.7928 20.4631 35.7014 21.0664 35.2631C21.6696 34.8249 22.0004 34.1034 21.9386 33.3603L21.7668 31.2855L23.1269 29.7111C23.8494 28.8882 23.8188 27.6483 23.0564 26.862C23.6484 26.6903 24.2585 26.542 24.8698 26.4087L25.498 27.1373L25.1524 31.3496C25.0868 32.0939 25.4165 32.8181 26.021 33.2573C26.6256 33.6965 27.4162 33.7862 28.1039 33.4936L32.0004 31.8584L35.8969 33.4936C36.5845 33.7821 37.3729 33.6907 37.9761 33.2524C38.5794 32.8142 38.9101 32.0927 38.8483 31.3496L38.5006 27.1373L39.1288 26.4087C39.7443 26.5453 40.3544 26.6913 40.9422 26.8631C40.18 27.6489 40.1494 28.8885 40.8718 29.7111L42.2307 31.2866L42.0589 33.3624C41.9973 34.106 42.3288 34.8277 42.9329 35.2657C43.537 35.7036 44.326 35.794 45.0136 35.5043L46.9337 34.6989L48.8537 35.5043C49.5406 35.7958 50.3302 35.7046 50.9326 35.2643C51.4713 34.8698 51.7914 34.2435 51.7955 33.5757C53.4414 35.5245 54.3618 37.983 54.4003 40.5336C54.4003 48.7684 44.3513 55.4671 32.0004 55.4671Z" fill="white"/>
</g>
<defs>
<clipPath id="clip0_387_23829">
<rect width="64" height="64" fill="white"/>
</clipPath>
</defs>
</svg>
