<svg width="64" height="64" viewBox="0 0 64 64" fill="none" xmlns="http://www.w3.org/2000/svg">
<g clip-path="url(#clip0_387_22886)">
<path d="M16.4667 64H39.9334C44.0551 63.9953 47.3953 60.6552 47.4001 56.5333V46.0992C52.0704 42.9262 54.8664 37.6462 54.8664 32C54.8664 26.3537 52.0704 21.0737 47.4001 17.9007V7.46659C47.3953 3.34484 44.0551 0.00473849 39.9334 0H16.4667C12.3448 0.00473849 9.00463 3.34484 9 7.4667V56.5334C9.00463 60.6552 12.3448 63.9954 16.4667 64ZM52.7334 32.0001C52.7245 40.2439 46.0438 46.9246 37.8 46.9334C35.7409 46.9361 33.7039 46.5077 31.8202 45.6758C31.134 45.3794 30.4727 45.0285 29.8426 44.6262C28.3966 43.7133 27.1191 42.5574 26.0666 41.2097V22.7904C27.1183 21.4443 28.3942 20.2897 29.8383 19.3771C30.4728 18.9728 31.1388 18.62 31.8297 18.3223C33.7105 17.4922 35.744 17.0644 37.7999 17.0668C46.0438 17.0755 52.7245 23.7562 52.7334 32.0001ZM30.3333 16.673C29.7709 16.9418 29.2242 17.2424 28.696 17.5734C27.7551 18.1711 26.8746 18.8588 26.0667 19.6267V14.9334H30.3333V16.673ZM26.0667 44.3734C26.8741 45.1405 27.7543 45.8272 28.6949 46.4236C29.2233 46.7559 29.7704 47.0576 30.3333 47.3271V49.0668H26.0667V44.3734ZM38.3578 2.13337L37.6111 3.99254C37.2899 4.80325 36.5055 5.33501 35.6335 5.33332H20.7664C19.8931 5.33638 19.1072 4.8043 18.7856 3.99254L18.0422 2.13337H38.3578ZM11.1333 7.4667C11.1416 4.79756 13.1252 2.54709 15.7722 2.20371L16.8048 4.78503C17.4483 6.40843 19.0201 7.47238 20.7664 7.46659H35.6336C37.3799 7.47238 38.9517 6.40843 39.5951 4.78503L40.6277 2.20371C43.2747 2.54699 45.2584 4.79745 45.2667 7.4667V16.6774C41.2825 14.7093 36.6824 14.3934 32.4667 15.7984V14.9334C32.4667 13.7552 31.5115 12.8 30.3333 12.8H26.0667C24.8885 12.8 23.9333 13.7552 23.9333 14.9334V49.0667C23.9333 50.2449 24.8885 51.2001 26.0667 51.2001H30.3333C31.5115 51.2001 32.4667 50.2449 32.4667 49.0667V48.2017C36.6824 49.6067 41.2825 49.2908 45.2667 47.3227V56.5334C45.2631 59.4775 42.8774 61.8633 39.9334 61.8667H16.4667C13.5226 61.8632 11.1368 59.4775 11.1334 56.5334L11.1333 7.4667Z" fill="white"/>
<path fill-rule="evenodd" clip-rule="evenodd" d="M16.4671 58.6666H39.9337C40.5229 58.6666 41.0004 58.189 41.0004 57.5999C41.0004 57.0107 40.5229 56.5332 39.9337 56.5332H16.4671C15.8779 56.5332 15.4004 57.0107 15.4004 57.5999C15.4004 58.189 15.8779 58.6666 16.4671 58.6666Z" fill="white"/>
<path d="M36.734 20.2659V21.3998C33.1212 21.8083 30.334 24.2499 30.334 27.1993C30.334 30.1486 33.1212 32.5902 36.734 32.9987V40.4536C34.333 40.0964 32.4674 38.5677 32.4674 36.7992C32.4674 36.2101 31.9898 35.7325 31.4007 35.7325C30.8115 35.7325 30.334 36.2101 30.334 36.7992C30.334 39.7486 33.1212 42.1901 36.734 42.5987V43.7326C36.734 44.3217 37.2115 44.7993 37.8007 44.7993C38.3898 44.7993 38.8674 44.3217 38.8674 43.7326V42.5987C42.4802 42.1901 45.2674 39.7486 45.2674 36.7992C45.2674 33.8499 42.4802 31.4083 38.8674 30.9997V23.5448C41.2684 23.9021 43.134 25.4307 43.134 27.1993C43.134 27.7884 43.6115 28.2659 44.2007 28.2659C44.7898 28.2659 45.2674 27.7884 45.2674 27.1993C45.2674 24.2499 42.4802 21.8083 38.8674 21.3998V20.2659C38.8674 19.6768 38.3898 19.1992 37.8007 19.1992C37.2115 19.1992 36.734 19.6768 36.734 20.2659ZM32.4674 27.1993C32.4674 25.4307 34.333 23.9022 36.734 23.5448V30.8537C34.333 30.4963 32.4674 28.9678 32.4674 27.1993ZM43.134 36.7992C43.134 38.5677 41.2684 40.0963 38.8674 40.4536V33.1448C41.2684 33.5022 43.134 35.0307 43.134 36.7992Z" fill="white"/>
</g>
<defs>
<clipPath id="clip0_387_22886">
<rect width="64" height="64" fill="white"/>
</clipPath>
</defs>
</svg>
