<svg width="120" height="127" viewBox="0 0 120 127" fill="none" xmlns="http://www.w3.org/2000/svg">
<g clip-path="url(#clip0_390_4909)">
<path d="M60 126.402C93.1371 126.402 120 98.8331 120 64.8251C120 30.817 93.1371 3.24811 60 3.24811C26.8629 3.24811 0 30.817 0 64.8251C0 98.8331 26.8629 126.402 60 126.402Z" fill="#DEF1FC"/>
<path d="M94.9336 59.883C99.1794 34.533 89.011 2.31044 61.0318 0.468206C52.1103 -0.116455 43.393 3.2481 38.8892 9.74557C23.4539 15.9893 22.1533 43.8104 23.8838 53.3856C28.6133 79.6402 5.81504 75.1173 11.5979 99.7613L59.2475 97.0697H61.0748L107.875 97.6874C111.82 79.0996 92.9988 80.3462 94.9229 59.8941L94.9336 59.883Z" fill="#0B1A47"/>
<path d="M74.0272 56.717H45.9189V93.5176H74.0272V56.717Z" fill="#E2988F"/>
<path d="M111.562 96.2975C98.3302 90.5943 74.1991 86.2921 74.1991 86.2921C64.9336 94.3008 53.2174 94.2457 45.9297 86.2921C45.9297 86.2921 21.4868 90.0096 7.69604 94.9627C17.5527 112.933 35.9332 125.321 57.2267 126.314C58.1833 126.347 59.1292 126.38 60.0966 126.38C81.992 126.347 101.125 114.279 111.573 96.2864L111.562 96.2975Z" fill="#ED5A61"/>
<path d="M84.8515 52.2713C83.8089 52.2713 82.9597 53.8267 82.9597 55.7351C82.9597 57.6436 83.8089 59.199 84.8515 59.199C85.8942 59.199 86.7433 57.6436 86.7433 55.7351C86.7433 53.8267 85.8942 52.2713 84.8515 52.2713ZM84.8515 57.6877C84.1313 57.6877 83.5509 56.6177 83.5509 55.3049C83.5509 53.9922 84.1313 52.9222 84.8515 52.9222C85.5717 52.9222 86.1521 53.9922 86.1521 55.3049C86.1521 56.6177 85.5717 57.6877 84.8515 57.6877Z" fill="white"/>
<path d="M33.1062 55.7351C33.1062 57.6436 33.9554 59.199 34.998 59.199C36.0406 59.199 36.8898 57.6436 36.8898 55.7351C36.8898 53.8267 36.0406 52.2713 34.998 52.2713C33.9554 52.2713 33.1062 53.8267 33.1062 55.7351ZM33.6974 55.2939C33.6974 53.9812 34.2778 52.9111 34.998 52.9111C35.7182 52.9111 36.2986 53.9812 36.2986 55.2939C36.2986 56.6066 35.7182 57.6767 34.998 57.6767C34.2778 57.6767 33.6974 56.6066 33.6974 55.2939V55.2939Z" fill="white"/>
<path d="M59.9464 12.1503C41.8239 12.1724 37.7071 26.0939 38.0833 40.1148C38.0833 50.2195 38.0188 57.6766 38.9324 60.1697C39.8461 62.6628 46.1986 77.6985 59.9357 77.7316C73.6727 77.7096 80.0252 62.6738 80.9389 60.1697C81.8525 57.6656 81.7988 50.2195 81.7988 40.1148C82.175 26.0939 78.0582 12.1724 59.9357 12.1503H59.9464Z" fill="#E2988F"/>
<path d="M59.9464 78.1509C54.5613 78.1509 49.7028 75.8894 45.5 71.4769L46.0804 70.9033C50.122 75.1614 54.787 77.3235 59.9464 77.3345C65.0199 77.3345 69.6204 75.2275 73.619 71.1129L74.1886 71.6975C70.0396 75.9777 65.2456 78.1508 59.9464 78.1619V78.1509Z" fill="#C46966"/>
<path d="M38.8787 39.6404C38.8787 39.6404 35.2349 34.1358 31.4943 37.3569C27.7537 40.5781 31.3975 58.846 38.8787 55.6248C46.3599 52.4037 38.8787 39.6404 38.8787 39.6404Z" fill="#E2988F"/>
<path d="M81.0786 39.6404C81.0786 39.6404 84.7225 34.1358 88.4631 37.3569C92.2037 40.5781 88.5598 58.846 81.0786 55.6248C73.5974 52.4037 81.0786 39.6404 81.0786 39.6404Z" fill="#E2988F"/>
<path d="M38.2773 49.899L37.4734 49.9602L37.9001 55.8678L38.7041 55.8066L38.2773 49.899Z" fill="#C46966"/>
<path d="M81.6889 49.2633L81.2146 55.7978L82.0185 55.8592L82.4928 49.3247L81.6889 49.2633Z" fill="#C46966"/>
<path d="M33.3539 46.8108C32.4939 43.8764 32.4832 41.8356 33.3324 40.7546C33.9558 39.9493 34.8264 39.9934 34.8587 39.9934L34.8049 40.8208L34.8264 40.4126L34.8049 40.8208C34.8049 40.8208 34.3105 40.7987 33.945 41.2841C33.5796 41.7695 33.1066 43.1153 34.117 46.5791L33.3431 46.8218L33.3539 46.8108Z" fill="#C46966"/>
<path d="M86.905 46.8109L86.1311 46.5682C87.1415 43.1044 86.6793 41.7696 86.3031 41.2732C85.9376 40.7878 85.4646 40.8099 85.4431 40.8099L85.4001 39.9825C85.4001 39.9825 86.2923 39.9273 86.9265 40.7437C87.7756 41.8358 87.7649 43.8766 86.905 46.7999V46.8109Z" fill="#C46966"/>
<path d="M36.5996 56.6398C36.4706 56.6398 36.3308 56.6177 36.2126 56.5957C36.1804 56.5957 36.1481 56.5626 36.1266 56.5405C35.9009 57.2245 35.4924 57.6878 35.0195 57.6878C34.2993 57.6878 33.7189 56.6177 33.7189 55.305C33.7189 53.9923 34.2993 52.9333 35.0087 52.9222C35.4387 52.8671 35.3312 52.2604 35.0087 52.2824C33.9661 52.2824 33.1169 53.8378 33.1169 55.7463C33.1169 57.6547 33.9661 59.2101 35.0087 59.2101C35.8794 59.2101 36.6103 58.118 36.836 56.6508C36.7608 56.6508 36.6856 56.6508 36.5996 56.6508V56.6398Z" fill="white"/>
<path d="M84.8621 52.2713C84.5397 52.2603 84.4322 52.867 84.8621 52.9111C85.5823 52.9111 86.152 53.9812 86.152 55.2939C86.152 56.6066 85.5716 57.6767 84.8514 57.6767C84.4537 57.6767 84.099 57.3347 83.8625 56.8052C83.798 56.8604 83.7335 56.9155 83.6583 56.9707C83.497 57.07 83.3358 57.1692 83.1638 57.2685C83.4755 58.4048 84.1097 59.199 84.8514 59.199C85.894 59.199 86.7432 57.6436 86.7432 55.7352C86.7432 53.8267 85.9048 52.2824 84.8514 52.2713H84.8621Z" fill="white"/>
<path d="M37.965 38.5152C37.793 28.6642 44.9625 23.5457 44.9625 23.5457C51.4118 35.1507 69.1903 39.0889 85.4318 33.3305C85.4318 33.3305 83.8517 5.45429 58.4845 7.08693C33.1172 8.71957 37.9757 38.5042 37.9757 38.5042L37.965 38.5152Z" fill="#0B1A47"/>
</g>
<defs>
<clipPath id="clip0_390_4909">
<rect width="120" height="126" fill="white" transform="translate(0 0.402008)"/>
</clipPath>
</defs>
</svg>
