<svg width="80" height="80" viewBox="0 0 80 80" fill="none" xmlns="http://www.w3.org/2000/svg">
<path d="M80 0H0V80H80V0Z" fill="url(#paint0_linear)"/>
<path d="M78 2H2V78H78V2Z" fill="white"/>
<path d="M49.6531 40C49.6531 39.7048 49.7701 39.4217 49.9791 39.213C50.1881 39.0042 50.4711 38.887 50.7661 38.887H53.11C52.844 35.7937 51.4941 32.8938 49.2991 30.6984C47.1031 28.5031 44.203 27.1533 41.11 26.887V29.235C41.11 29.5303 40.9931 29.8135 40.7841 30.0223C40.5751 30.2312 40.292 30.3485 39.996 30.3485C39.701 30.3485 39.418 30.2312 39.209 30.0223C39 29.8135 38.8831 29.5303 38.8831 29.235V26.89C35.7901 27.1563 32.89 28.5061 30.694 30.7014C28.499 32.8968 27.1491 35.7967 26.8831 38.89H29.235C29.53 38.89 29.814 39.0073 30.022 39.2161C30.231 39.4249 30.3481 39.7081 30.3481 40.0035C30.3481 40.2988 30.231 40.582 30.022 40.7908C29.814 40.9997 29.53 41.117 29.235 41.117H26.8901C27.1561 44.2102 28.506 47.1101 30.701 49.3055C32.897 51.5008 35.7971 52.8507 38.8901 53.117V50.773C38.8901 50.4776 39.0071 50.1944 39.2161 49.9856C39.4251 49.7768 39.7081 49.6595 40.0031 49.6595C40.2991 49.6595 40.5821 49.7768 40.7911 49.9856C41.0001 50.1944 41.1171 50.4776 41.1171 50.773V53.117C44.2101 52.8507 47.1101 51.5008 49.3061 49.3055C51.5011 47.1101 52.8511 44.2102 53.1171 41.117H50.7731C50.6261 41.1179 50.4801 41.0897 50.3441 41.0339C50.2081 40.9781 50.084 40.8959 49.98 40.7921C49.876 40.6882 49.7931 40.5647 49.7371 40.4287C49.6811 40.2928 49.6521 40.1471 49.6531 40ZM46.7241 34.684L40.7991 40.776C40.6001 40.9804 40.3311 41.1008 40.0461 41.1124C39.7611 41.1239 39.4831 41.0257 39.2681 40.838L34.845 36.971C34.623 36.7766 34.487 36.5018 34.467 36.2072C34.447 35.9126 34.5461 35.6222 34.7401 35.4C34.9341 35.1777 35.2091 35.0418 35.5041 35.0221C35.7981 35.0024 36.089 35.1006 36.311 35.295L39.9351 38.467L45.1281 33.135C45.2301 33.0299 45.3521 32.9459 45.4861 32.8879C45.6201 32.8298 45.7651 32.7988 45.9111 32.7966C46.0571 32.7943 46.2031 32.821 46.3391 32.8749C46.475 32.9288 46.599 33.0091 46.704 33.111C46.809 33.2129 46.893 33.3345 46.951 33.4688C47.0091 33.6032 47.0401 33.7477 47.0421 33.894C47.0451 34.0403 47.0181 34.1857 46.9641 34.3217C46.91 34.4578 46.8301 34.5819 46.7281 34.687L46.7241 34.684Z" fill="#591D1C"/>
<path d="M40.0001 21C36.2421 21 32.5691 22.1143 29.4441 24.2021C26.3201 26.2898 23.8841 29.2572 22.4461 32.729C21.0081 36.2008 20.6321 40.0211 21.3651 43.7067C22.0981 47.3924 23.9081 50.7778 26.5651 53.435C29.2221 56.0922 32.6081 57.9018 36.2931 58.6349C39.9791 59.368 43.7991 58.9918 47.2711 57.5537C50.7431 56.1156 53.7101 53.6804 55.7981 50.5558C57.8861 47.4313 59.0001 43.7578 59.0001 40C58.9941 34.9627 56.9911 30.1333 53.4291 26.5714C49.8671 23.0095 45.0371 21.0058 40.0001 21ZM40.0001 55.385C36.9571 55.385 33.9831 54.4827 31.4531 52.7922C28.9231 51.1016 26.9511 48.6988 25.7861 45.8876C24.6221 43.0763 24.3171 39.9829 24.9111 36.9985C25.5041 34.0141 26.9701 31.2728 29.1211 29.1212C31.2731 26.9695 34.0141 25.5043 36.9991 24.9106C39.9831 24.317 43.0761 24.6217 45.8881 25.7861C48.6991 26.9506 51.1021 28.9225 52.7921 31.4526C54.4831 33.9826 55.3851 36.9571 55.3851 40C55.3811 44.0791 53.7591 47.9901 50.8741 50.8745C47.9901 53.7588 44.0791 55.381 40.0001 55.385Z" fill="#D92400"/>
<defs>
<linearGradient id="paint0_linear" x1="4.8" y1="-1.20779e-06" x2="80" y2="85.52" gradientUnits="userSpaceOnUse">
<stop stop-color="#D92400"/>
<stop offset="0.527" stop-color="#D90039" stop-opacity="0.098"/>
<stop offset="1" stop-color="#D90039"/>
</linearGradient>
</defs>
</svg>
