<svg width="14" height="14" viewBox="0 0 14 14" fill="none" xmlns="http://www.w3.org/2000/svg">
<g clip-path="url(#clip0_7560_35819)">
<path d="M6.99996 14C10.8597 14 13.9999 10.8598 13.9999 7.00004C13.9999 3.14022 10.8597 0 6.99996 0C3.14018 0 0 3.14022 0 7.00004C0 10.8598 3.14018 14 6.99996 14ZM2.43607 10.456C2.99072 10.2378 3.68906 10.064 4.47399 9.94486C4.58056 10.5847 4.722 11.1778 4.89636 11.701C4.9877 11.975 5.08388 12.2169 5.18324 12.4318C4.08008 12.0618 3.12584 11.3646 2.43607 10.456ZM1.27272 7.00004C1.27272 6.16238 1.45353 5.36617 1.77803 4.64835C2.46628 4.94299 3.33567 5.17093 4.31507 5.3181C4.26739 5.86159 4.2424 6.42549 4.2424 7.00004C4.2424 7.57455 4.26739 8.13849 4.31507 8.68194C3.33567 8.82915 2.46623 9.0571 1.77807 9.35173C1.45353 8.63392 1.27272 7.8377 1.27272 7.00004ZM6.99996 1.27272C7.13699 1.27272 7.53637 1.62191 7.89621 2.70147C8.0441 3.14523 8.16573 3.6485 8.25957 4.19344C7.85047 4.22203 7.42861 4.23714 6.99979 4.23714C6.57109 4.23714 6.14936 4.22208 5.74035 4.19344C5.83419 3.6485 5.95582 3.14527 6.10375 2.70152C6.46359 1.62191 6.86293 1.27272 6.99996 1.27272ZM6.99979 5.50986C7.48457 5.50986 7.9598 5.49204 8.4201 5.45806C8.46261 5.95463 8.4848 6.47161 8.4848 7.00004C8.4848 7.52847 8.46261 8.04537 8.42014 8.54194C7.95984 8.50796 7.48469 8.49014 6.99996 8.49014C6.51522 8.49014 6.04007 8.50796 5.57981 8.54194C5.53731 8.04537 5.51512 7.52843 5.51512 7.00004C5.51512 6.47161 5.53731 5.95467 5.57981 5.45806C6.04003 5.49204 6.51514 5.50986 6.99979 5.50986ZM12.7272 7.00004C12.7272 7.83766 12.5464 8.63383 12.2219 9.35165C11.5336 9.05701 10.6642 8.82911 9.68484 8.68194C9.73253 8.13849 9.75752 7.57459 9.75752 7.00004C9.75752 6.42545 9.73253 5.86155 9.68484 5.31806C10.6642 5.17089 11.5336 4.9429 12.2218 4.64823C12.5464 5.36608 12.7272 6.16234 12.7272 7.00004ZM6.99996 12.7273C6.86293 12.7273 6.46359 12.378 6.10379 11.2985C5.95586 10.8547 5.83423 10.3515 5.74035 9.80656C6.14944 9.77792 6.57118 9.76286 6.99996 9.76286C7.42874 9.76286 7.85052 9.77792 8.25957 9.80656C8.16573 10.3515 8.0441 10.8548 7.89621 11.2985C7.53637 12.3781 7.13703 12.7273 6.99996 12.7273ZM8.81676 12.4318C8.91608 12.2169 9.01225 11.975 9.10359 11.701C9.278 11.1778 9.41944 10.5847 9.52601 9.94486C10.3109 10.064 11.0092 10.2378 11.5638 10.4559C10.8741 11.3645 9.91992 12.0618 8.81676 12.4318ZM11.5638 3.54397C11.0092 3.76212 10.3109 3.93601 9.52597 4.0551C9.4194 3.41534 9.278 2.82217 9.10359 2.299C9.0123 2.02498 8.91608 1.78312 8.81672 1.5682C9.91983 1.93822 10.874 2.63538 11.5638 3.54397ZM5.18324 1.56824C5.08388 1.78308 4.98775 2.02498 4.89636 2.299C4.722 2.82226 4.58056 3.41539 4.47399 4.05518C3.68906 3.93605 2.99072 3.7622 2.43607 3.5441C3.1258 2.63546 4.08004 1.93818 5.18324 1.56824Z" fill="#0D9A88"/>
</g>
<defs>
<clipPath id="clip0_7560_35819">
<rect width="14" height="14" fill="white"/>
</clipPath>
</defs>
</svg>
