<svg width="18" height="18" viewBox="0 0 18 18" fill="none" xmlns="http://www.w3.org/2000/svg">
<path d="M9 5.27344C10.4562 5.27344 11.6367 4.09294 11.6367 2.63672C11.6367 1.1805 10.4562 0 9 0C7.54378 0 6.36328 1.1805 6.36328 2.63672C6.36328 4.09294 7.54378 5.27344 9 5.27344Z" fill="white"/>
<path d="M16.9095 15.8906C16.9095 14.7282 15.9666 13.7822 14.7733 13.7822C14.7723 13.7822 14.7718 13.7822 14.7708 13.7822C13.9252 13.8373 9.35829 16.0785 7.65627 17.0101L5.84766 18H14.8001C15.9635 18 16.9095 17.0539 16.9095 15.8906Z" fill="white"/>
<path d="M16.7124 11.7872C15.1102 10.506 14.6298 9.05129 14.2734 7.23059C14.2734 6.14971 13.3972 5.27344 12.3163 5.27344H5.68371C4.60283 5.27344 3.72656 6.14967 3.72656 7.23059C3.38087 8.99659 2.93586 10.4691 1.28756 11.7873L0 12.7266H1.61719C3.35268 12.7266 5.07684 11.8949 6.18922 10.6012L6.77816 14.0582C7.5549 14.4192 8.33013 14.7989 8.99831 15.1341C9.6685 14.797 10.4459 14.4149 11.2219 14.0522L11.8695 10.3921C12.987 11.8588 14.6236 12.7266 16.3828 12.7266H18L16.7124 11.7872Z" fill="white"/>
<path d="M3.22857 13.7822C3.22755 13.7822 3.22703 13.7822 3.22601 13.7822C2.03277 13.7822 1.08984 14.7282 1.08984 15.8906C1.08984 17.0539 2.03586 18 3.19922 18H3.4804C3.58991 17.9428 7.94626 15.6691 7.83678 15.7262C5.93835 14.7953 3.78341 13.8184 3.22857 13.7822Z" fill="white"/>
</svg>
