<svg width="75" height="75" viewBox="0 0 75 75" fill="none" xmlns="http://www.w3.org/2000/svg">
<circle cx="37.5" cy="37.5" r="37.5" fill="#FFA9B8"/>
<path d="M35.513 19.0847C30.2047 19.0847 26.9819 28.9066 26.9819 33.2256C26.9819 38.1214 30.8087 42.1047 35.5129 42.1047C40.2172 42.1047 44.0439 38.1214 44.0439 33.2256C44.044 28.9066 40.8212 19.0847 35.513 19.0847V19.0847Z" fill="white"/>
<path d="M52.6646 58.6064C55.8459 55.3766 51.9794 47.5294 49.4297 44.941C46.5397 42.0068 41.8949 41.948 39.0756 44.8103C36.2563 47.6725 36.3143 52.3881 39.2044 55.3222C41.7539 57.9107 49.4833 61.8362 52.6646 58.6064V58.6064Z" fill="white"/>
<path d="M21.9702 56.3077C24.5792 58.9564 30.9179 55.7372 33.0088 53.6144C35.3789 51.2082 35.4264 47.3411 33.1144 44.9938C30.8023 42.6465 26.9932 42.6948 24.6231 45.101C22.5322 47.2237 19.3613 53.659 21.9702 56.3077V56.3077Z" fill="white"/>
</svg>
