<svg width="303" height="236" viewBox="0 0 303 236" fill="none" xmlns="http://www.w3.org/2000/svg">
<path d="M25.5755 236.02C-1.14597 243.368 -11.683 253.999 17.4718 258.913C46.6266 263.827 131.681 258.086 151.928 257.283C172.176 256.456 209.434 263 232.942 263C256.426 263 275.871 253.999 271.83 249.108C267.79 244.195 117.126 227.846 117.126 227.846L25.5755 236.02Z" fill="#E6E6E6"/>
<path d="M136.135 4.31779C105.373 11.2521 108.196 54.9016 127.641 65.946C147.085 76.9903 171.694 69.0228 185.055 62.5706C198.416 56.1415 205.417 68.0814 218.48 75.4519C231.542 82.7996 276.491 78.8272 277.409 36.211C277.96 10.4255 266.16 15.9821 262.832 26.0851C259.48 36.211 244.604 48.1509 232.46 32.5143C220.316 16.8776 215.449 6.45319 194.192 13.5023C172.888 20.5744 170.156 -3.35129 136.135 4.31779Z" fill="#333333"/>
<path d="M118.171 86.5049L118.171 86.5047C118.93 81.6527 122.211 78.4321 126.221 76.2108C130.237 73.9863 134.916 72.8047 138.336 72.0127C140.24 71.5732 141.628 70.2137 142.595 68.3357C143.559 66.4637 144.13 64.0344 144.397 61.3428C144.912 56.1513 144.31 49.8588 143.076 44.3801H158.744C158.735 44.4672 158.726 44.5638 158.716 44.6696C158.665 45.2097 158.597 45.9881 158.527 46.9435C158.386 48.8538 158.237 51.4742 158.203 54.3131C158.17 57.1503 158.253 60.215 158.578 63.0112C158.902 65.7951 159.471 68.3642 160.441 70.177C161.463 72.0895 163.378 73.0371 165.579 73.63C167.017 74.0176 168.657 74.2708 170.327 74.5287C171.189 74.6618 172.059 74.7961 172.913 74.9509C175.466 75.413 177.955 76.0639 180.027 77.3887C182.08 78.7015 183.751 80.693 184.642 83.8979C185.539 87.1266 185.55 91.6679 184.977 96.9036C184.404 102.126 183.257 107.986 181.876 113.826C179.536 123.723 176.534 133.525 174.546 140.015C174.187 141.184 173.862 142.246 173.58 143.181C172.6 146.424 173.445 149.421 175.211 152.34C176.927 155.177 179.553 158.004 182.319 160.982L182.51 161.188C188.224 167.34 194.519 174.223 195.554 183.609L195.554 183.609C195.58 183.847 195.52 184.179 195.322 184.617C195.125 185.049 194.81 185.549 194.378 186.109C193.514 187.228 192.224 188.534 190.611 189.953C187.389 192.787 182.94 196.019 178.218 199.027C173.496 202.034 168.516 204.807 164.238 206.727C162.098 207.687 160.145 208.429 158.493 208.882C156.823 209.339 155.526 209.482 154.668 209.309L154.666 209.308C154.058 209.187 152.977 208.815 151.521 208.223C150.078 207.636 148.297 206.847 146.306 205.91C142.324 204.036 137.511 201.577 132.878 198.975C128.243 196.372 123.803 193.634 120.558 191.203C118.934 189.986 117.627 188.859 116.747 187.876C116.307 187.384 115.985 186.941 115.783 186.553C115.579 186.162 115.515 185.863 115.535 185.642L115.037 185.597L115.535 185.642C115.91 181.458 117.512 177.812 119.635 174.405C121.206 171.883 123.045 169.518 124.876 167.164C125.528 166.325 126.179 165.488 126.817 164.646C131.644 158.267 135.631 151.661 132.381 142.628L132.38 142.628C129.214 133.861 125.265 122.308 122.305 111.688C120.826 106.378 119.596 101.31 118.834 96.9447C118.071 92.5651 117.789 88.9443 118.171 86.5049Z" fill="white" stroke="#333333"/>
<path d="M30.7872 220.814C34.5213 216.746 41.91 212.106 51.0484 207.226C59.8962 202.501 70.3169 197.585 80.5044 192.78C80.8167 192.633 81.1289 192.485 81.4408 192.338C91.9162 187.396 102.089 182.579 109.947 178.23C113.876 176.055 117.241 173.99 119.782 172.076C122.096 170.333 123.794 168.667 124.569 167.111C124.639 167.13 124.717 167.15 124.803 167.173C125.224 167.284 125.842 167.443 126.628 167.636C128.2 168.022 130.446 168.542 133.149 169.082C138.552 170.161 145.788 171.32 153.1 171.631L153.122 171.132L153.1 171.631C166.797 172.214 179.959 168.227 185.84 166.446C186.131 166.358 186.404 166.275 186.659 166.199C187.185 166.815 188.044 167.448 189.135 168.099C190.418 168.866 192.088 169.697 194.072 170.59C198.041 172.376 203.319 174.431 209.393 176.739C211.045 177.367 212.757 178.013 214.519 178.679C225.719 182.91 238.922 187.899 251.572 193.588C266.221 200.175 280.077 207.679 289.206 215.997C293.768 220.154 297.12 224.49 298.815 228.986C300.504 233.466 300.556 238.128 298.482 242.988C296.087 248.6 292.691 251.769 287.619 253.284C282.495 254.814 275.621 254.669 266.25 253.506C259.568 252.676 251.662 251.336 242.271 249.745C238.506 249.106 234.502 248.428 230.242 247.725C215.367 245.272 197.402 242.534 175.672 240.23C132.232 235.626 115.734 237.3 104.534 241.095C101.737 242.043 99.2789 243.12 96.826 244.255C96.1691 244.558 95.5137 244.866 94.8525 245.176C93.0395 246.027 91.1835 246.897 89.1381 247.768C83.5725 250.139 76.6234 252.502 65.5754 254.333C43.447 257.998 31.109 253.515 26.1177 246.329C21.1403 239.163 23.2717 229.001 30.7872 220.814Z" fill="white" stroke="#333333"/>
<path d="M205.189 212.233C204.836 212.357 204.557 212.453 204.363 212.52L193.846 199.972C196.216 195.417 200.046 193.139 203.872 192.464C207.801 191.77 211.69 192.773 213.979 194.704L213.98 194.705C215.224 195.748 217.106 195.83 219.295 195.612C220.569 195.485 222.036 195.244 223.642 194.98C224.809 194.789 226.049 194.585 227.341 194.404C231.727 193.805 236.075 194.225 238.98 194.981C240.45 195.364 241.484 195.815 241.982 196.219C242.213 196.406 242.244 196.514 242.248 196.532C242.24 196.554 242.198 196.628 242.01 196.738L242.008 196.739C236.171 200.194 226.691 204.165 218.644 207.28C214.625 208.835 210.974 210.173 208.326 211.123C207.003 211.597 205.931 211.975 205.189 212.233ZM242.25 196.526C242.25 196.526 242.25 196.527 242.249 196.53C242.249 196.527 242.249 196.526 242.25 196.526Z" fill="white" stroke="#333333"/>
<path d="M142.227 208.093L142.227 208.093C159.15 206.977 171.104 204.347 179.196 202.156C181.707 201.476 183.87 200.831 185.677 200.292C186.763 199.969 187.721 199.683 188.548 199.451C189.668 199.138 190.559 198.919 191.253 198.817C191.915 198.719 192.322 198.74 192.56 198.824L208.971 211.849C208.646 212.059 208.188 212.354 207.603 212.724C206.33 213.531 204.458 214.695 202.065 216.124C197.279 218.984 190.41 222.906 182.081 227.154C165.419 235.652 142.935 245.442 119.611 250.641C96.2468 255.847 75.1644 258.294 58.5673 258.752C50.2683 258.981 43.0975 258.713 37.3276 258.046C31.545 257.378 27.2125 256.314 24.5608 254.976C19.363 252.355 17.9574 246.982 18.2322 241.323C18.5065 235.674 20.4567 229.91 21.7658 226.801C25.8042 217.294 33.1265 211.502 42.4247 208.122C51.7399 204.737 63.0232 203.781 74.9243 203.961C85.7486 204.126 97.0442 205.228 107.79 206.278C108.856 206.382 109.917 206.485 110.971 206.587C122.634 207.717 133.53 208.665 142.227 208.093Z" fill="white" stroke="#333333"/>
<path d="M106.979 189.792L106.979 189.792C109.33 187.818 112.191 186.786 115.163 187.738C118.102 188.681 121.297 191.608 124.268 197.858L110.924 208.862C110.779 208.808 110.577 208.734 110.322 208.641C109.755 208.435 108.927 208.137 107.88 207.773C105.787 207.044 102.818 206.047 99.3177 204.972C92.3202 202.825 83.1784 200.366 74.636 199.132L74.6352 199.132C74.5114 199.114 74.4753 199.082 74.4735 199.08C74.4727 199.079 74.4731 199.08 74.4726 199.079C74.4716 199.077 74.467 199.066 74.4649 199.041C74.454 198.912 74.5215 198.631 74.792 198.192C75.3128 197.345 76.393 196.216 77.8732 195.114C80.8356 192.91 85.2153 190.951 89.4867 191.535C92.6517 191.977 96.432 192.017 99.6925 191.721C101.324 191.573 102.836 191.34 104.084 191.027C105.313 190.719 106.353 190.317 106.979 189.792Z" fill="white" stroke="#333333"/>
<path d="M253.414 261.054C202.004 259.225 149.68 245.441 110.95 210.25L124.706 197.149C124.719 197.155 124.732 197.162 124.746 197.168C124.978 197.278 125.322 197.438 125.771 197.644C126.669 198.055 127.987 198.646 129.672 199.367C133.04 200.807 137.871 202.766 143.73 204.839C155.443 208.985 171.276 213.596 187.73 215.439C195.998 216.37 205.275 215.56 214.854 214.132C220.349 213.313 225.978 212.285 231.58 211.261C235.725 210.503 239.854 209.749 243.904 209.084C253.465 207.513 262.645 206.429 270.788 206.913C278.928 207.398 285.982 209.449 291.337 214.102C302.164 223.511 305.348 235.67 299.666 245.201C293.96 254.774 279.165 261.97 253.414 261.054Z" fill="white" stroke="#333333"/>
<path d="M128.237 74.5334C94.514 83.4195 78.2837 145.002 68.5042 161.212C63.1094 170.144 55.0517 180.156 47.6597 189.248C49.2666 192.141 56.0847 194.277 60.1709 199.328C71.1442 189.639 82.0026 178.548 87.5352 172.647C98.7839 160.684 103.743 128.493 116.69 125.622C125.482 123.694 128.834 141.971 128.834 141.971L177.846 140.754C177.846 140.754 181.519 120.869 188.383 121.122C198.92 121.535 210.261 152.189 219.168 166.494C222.841 172.418 238.957 186.194 254.406 196.228C259.985 192.348 263.222 191.223 266.665 186.814C252.088 167.389 235.077 152.166 233.654 148.699C217.148 108.011 203.282 80.9397 177.456 75.406C142.218 85.3712 128.237 74.5334 128.237 74.5334Z" fill="#333333"/>
<path d="M58.4493 197.57C58.772 197.988 59.0261 198.337 59.2011 198.583L43.8147 209.343L43.5928 209.498L43.6015 209.768L43.6015 209.768L43.6015 209.768V209.769L43.6016 209.772L43.602 209.788C43.6023 209.804 43.6026 209.827 43.6028 209.859C43.6031 209.922 43.6026 210.017 43.5994 210.141C43.593 210.388 43.5757 210.747 43.5316 211.189C43.4435 212.074 43.249 213.284 42.8253 214.583C41.9777 217.182 40.2302 220.097 36.6147 221.55L36.6135 221.55C32.9424 223.037 29.3054 222.73 26.6419 221.204C23.9874 219.682 22.2727 216.938 22.4249 213.448L22.425 213.446C22.574 209.778 22.9519 207.79 23.4409 206.692C23.6798 206.156 23.9349 205.858 24.1819 205.675C24.4304 205.492 24.7097 205.397 25.0522 205.329L25.0524 205.329C25.0555 205.328 25.0641 205.327 25.0866 205.334C25.1134 205.343 25.1584 205.364 25.2224 205.413C25.3553 205.514 25.5152 205.693 25.7043 205.957C25.9799 206.342 26.2621 206.829 26.5753 207.368C26.6953 207.575 26.8199 207.79 26.9504 208.01C27.4059 208.777 27.9254 209.591 28.5224 210.195C29.1184 210.798 29.8681 211.267 30.772 211.168C31.526 211.085 32.1703 210.85 32.6767 210.456C33.1863 210.06 33.5282 209.526 33.7067 208.896C34.0578 207.657 33.7765 206.067 32.9868 204.334C32.5375 203.334 31.7773 202.822 30.9235 202.607C30.0988 202.4 29.1926 202.47 28.4007 202.587C28.06 202.638 27.7276 202.699 27.4252 202.754C27.373 202.764 27.3216 202.773 27.2713 202.783C26.9218 202.846 26.6273 202.897 26.3858 202.918C26.2308 202.932 26.1272 202.93 26.0617 202.924C26.0976 202.761 26.2469 202.502 26.6478 202.186C27.0988 201.83 27.7865 201.472 28.6886 201.178C30.4881 200.593 33.0666 200.292 36.1077 200.741C37.2013 200.905 38.297 201.274 39.1283 201.609C39.5419 201.775 39.8854 201.931 40.1246 202.044C40.2442 202.101 40.3374 202.147 40.4002 202.179C40.4315 202.195 40.4553 202.207 40.4708 202.215L40.4879 202.224L40.4917 202.226L40.4923 202.226L40.4924 202.226L40.4924 202.226L40.9332 202.46L41.168 202.02L47.7186 189.724C50.6012 189.998 53.4717 192.17 55.7008 194.419C56.8417 195.57 57.788 196.714 58.4493 197.57Z" fill="white" stroke="#333333"/>
<path d="M270.177 207.319C270.177 207.319 269.878 216.527 277.477 219.58C285.076 222.657 292.674 218.363 292.353 210.993C292.055 203.645 290.838 202.704 289.323 202.405C288.667 202.276 288.012 203.406 287.258 204.705C286.269 206.41 285.111 208.407 283.561 208.237C280.829 207.939 280.209 205.482 281.747 202.107M270.177 207.319L270.677 207.335V207.335L270.677 207.339L270.676 207.355C270.676 207.37 270.676 207.394 270.675 207.426C270.675 207.489 270.676 207.584 270.679 207.708C270.685 207.955 270.703 208.314 270.747 208.756C270.835 209.641 271.029 210.85 271.453 212.149C272.3 214.748 274.048 217.663 277.664 219.116L277.665 219.117C281.336 220.603 284.973 220.297 287.636 218.771C290.291 217.249 292.006 214.505 291.853 211.015L291.853 211.013C291.704 207.345 291.326 205.356 290.837 204.259C290.598 203.723 290.343 203.424 290.096 203.242C289.848 203.059 289.569 202.963 289.226 202.896C289.223 202.895 289.215 202.893 289.192 202.901C289.165 202.909 289.12 202.931 289.056 202.98C288.923 203.081 288.763 203.259 288.574 203.524C288.298 203.909 288.016 204.395 287.703 204.935C287.583 205.142 287.458 205.357 287.328 205.577C286.872 206.344 286.353 207.158 285.756 207.762C285.16 208.364 284.41 208.833 283.506 208.735C282.752 208.652 282.108 208.417 281.602 208.023C281.092 207.627 280.75 207.092 280.572 206.462C280.221 205.224 280.502 203.634 281.291 201.901M270.177 207.319L254.383 196.275M270.177 207.319C270.677 207.335 270.677 207.335 270.677 207.335M281.291 201.901C281.291 201.901 281.291 201.902 281.291 201.902L281.747 202.107M281.291 201.901C281.292 201.9 281.292 201.9 281.292 201.899L281.747 202.107M281.291 201.901C281.741 200.901 282.501 200.388 283.355 200.174C284.18 199.967 285.086 200.037 285.878 200.154C286.218 200.204 286.551 200.266 286.853 200.321C286.905 200.331 286.957 200.34 287.007 200.349C287.357 200.413 287.651 200.464 287.893 200.485C288.048 200.499 288.151 200.497 288.217 200.491M281.747 202.107C282.666 200.06 285.037 200.496 286.761 200.813C287.88 201.018 288.726 201.174 288.726 200.568C288.726 199.03 284.318 196.895 278.097 197.813M278.097 197.813L278.171 198.308C278.171 198.308 278.171 198.308 278.171 198.308M278.097 197.813L278.17 198.308C278.17 198.308 278.17 198.308 278.171 198.308M278.097 197.813L274.16 199.014L274.16 199.014L274.161 199.014L274.164 199.013L274.179 199.01L274.237 198.998C274.288 198.988 274.364 198.972 274.463 198.952C274.661 198.913 274.948 198.857 275.308 198.79C276.026 198.656 277.03 198.479 278.171 198.308M288.217 200.491C288.223 200.52 288.226 200.546 288.226 200.568C288.226 200.574 288.226 200.576 288.226 200.576C288.226 200.576 288.226 200.573 288.227 200.568C288.23 200.56 288.235 200.544 288.248 200.525C288.272 200.489 288.298 200.476 288.301 200.474C288.301 200.474 288.301 200.474 288.301 200.474C288.287 200.48 288.26 200.486 288.217 200.491ZM288.217 200.491C288.181 200.327 288.031 200.068 287.631 199.752C287.18 199.397 286.492 199.038 285.59 198.745C283.79 198.16 281.212 197.859 278.171 198.308M270.677 207.335L270.677 207.335L270.685 207.065L270.463 206.909L255.058 196.136M270.677 207.335L274.16 199.014L273.823 199.085L273.636 198.796L266.083 187.081M270.677 207.335L254.383 196.275M255.058 196.136C255.219 195.884 255.458 195.522 255.763 195.086C256.378 194.211 257.261 193.043 258.338 191.868C260.451 189.564 263.209 187.346 266.083 187.081M255.058 196.136L254.669 195.865L254.383 196.275M255.058 196.136C255.057 196.137 255.057 196.138 255.056 196.139C254.975 196.265 254.914 196.364 254.873 196.431C254.853 196.464 254.837 196.489 254.827 196.506L254.816 196.524L254.813 196.529L254.813 196.53L254.813 196.53C254.813 196.53 254.813 196.53 254.383 196.275M266.083 187.081L265.923 186.833L266.343 186.562L266.367 187.061C266.272 187.066 266.177 187.072 266.083 187.081Z" fill="white" stroke="#333333"/>
<path d="M134.936 34.7061L134.936 34.7056C134.622 22.6615 143.045 16.0692 151.331 16.0688C159.575 16.0913 167.619 23.4242 167.912 35.5343C168.103 43.5645 164.999 49.7239 161.308 53.8297C159.461 55.8843 157.471 57.4196 155.682 58.4143C153.874 59.4197 152.336 59.8376 151.377 59.7536C148.654 59.507 144.64 57.1322 141.236 52.8154C137.853 48.5235 135.128 42.3751 134.936 34.7061Z" fill="white" stroke="#333333"/>
<path d="M129.454 12.2855C125.804 28.5422 147.98 30.999 156.795 32.216C165.61 33.4329 159.527 51.2279 177.754 49.6895C195.982 48.1511 178.053 16.2579 178.053 16.2579C178.053 16.2579 148.898 7.37183 147.98 7.37183C147.061 7.39479 129.454 12.2855 129.454 12.2855Z" fill="#333333"/>
<path d="M206.106 71.3646C202.387 66.1064 203.695 77.2427 212.648 79.9291C221.601 82.6156 225.251 80.4113 217.745 77.9774C210.238 75.5206 208.539 74.8088 206.106 71.3646Z" fill="#333333"/>
<path d="M273.001 65.7621C281.816 52.5593 280.186 40.8261 282.735 44.4999C285.283 48.1737 287.831 55.9806 280.416 62.5934C273.001 69.1833 269.856 70.4921 273.001 65.7621Z" fill="#333333"/>
<path d="M116.093 8.61152C121.855 -2.43287 136.892 -0.274507 130.67 1.2639C120.638 3.72076 115.795 17.819 115.473 14.7652C115.175 11.6883 116.093 8.61152 116.093 8.61152Z" fill="#333333"/>
</svg>
