<svg width="292" height="300" viewBox="0 0 292 300" fill="none" xmlns="http://www.w3.org/2000/svg">
<path d="M79.6055 104.076C81.6108 92.2067 81.6944 80.0954 85.0259 68.4783C87.8965 58.4985 92.4684 49.835 102.927 45.6434C111.516 42.1485 118.615 45.7558 124.826 51.0313C135.263 59.8064 142.481 71.2274 148.152 83.4706C154.543 97.4151 162.512 110.287 171.389 122.68C183.512 139.636 197.045 155.498 207.411 173.588C214.148 185.457 217.532 198.345 219.755 211.679C222.374 227.268 221.274 242.726 216.76 257.67C211.229 275.961 199.363 288.621 180.058 292.291C161.452 295.795 143.898 292.311 128.125 281.422C110.724 269.311 100.346 251.982 92.132 232.976C85.2208 217.101 81.2245 200.322 78.44 183.356C74.1388 156.875 75.0913 130.463 79.6055 104.076Z" fill="#F4BBB3"/>
<path d="M172.179 142.771C175.852 138.79 177.709 133.574 179.591 128.6C181.803 122.757 184.015 116.919 186.226 111.076C187.312 108.205 188.238 105.191 189.662 102.465C191.128 99.6617 193.181 97.8254 195.84 96.1795C196.272 95.912 196.143 95.0633 195.557 95.1353C194.425 95.2793 193.402 95.6651 192.471 96.2155C192.435 96.3955 192.347 96.6115 192.193 96.8687C191.545 97.9592 190.851 99.0136 190.213 100.109C189.374 101.56 188.531 103.01 187.77 104.502C186.576 106.842 185.465 109.224 184.298 111.575C182.616 114.964 181.484 118.554 180.43 122.171C178.943 127.288 177.148 132.283 174.504 136.933C173.851 138.085 173.1 139.191 172.323 140.266C171.48 141.439 170.358 142.313 169.072 142.982C167.236 143.939 165.348 144.72 163.275 144.983C162.658 145.06 162.061 145.019 161.475 144.895C161.125 145.07 160.796 145.271 160.488 145.518C159.839 146.042 160.148 147.03 160.734 147.421C164.15 149.71 169.947 145.188 172.179 142.771Z" fill="#F4BBB3"/>
<path d="M114.154 145.869C112.688 145.128 111.495 144.059 110.517 142.742C109.859 141.847 109.278 140.916 108.758 139.954C106.562 136.749 105.476 132.778 104.777 129.024C104.7 128.622 104.628 128.216 104.556 127.815C104.16 126.076 103.815 124.327 103.491 122.573C102.709 118.34 101.758 114.148 100.497 110.028C100.317 109.442 100.112 108.865 99.8904 108.305C99.4634 107.338 98.9851 106.386 98.4553 105.46C97.8741 104.529 97.2002 103.655 96.4081 102.842C95.9657 102.39 95.5388 101.906 94.937 101.613C94.9422 101.649 94.9473 101.68 94.9627 101.716C97.5037 107.528 99.7926 113.109 100.682 119.441C101.511 125.346 101.799 131.41 103.995 137.017C105.687 141.338 108.547 145.519 112.816 147.613C116.89 149.609 122.204 149.912 125.784 146.759C126.591 146.049 126.293 145.108 125.619 144.619C123.484 145.298 121.36 145.998 119.205 146.6C117.451 147.078 115.753 146.677 114.154 145.869Z" fill="#F4BBB3"/>
<path d="M128.041 70.4017C129.625 68.3443 131.137 66.2302 132.814 64.2499C133.781 63.1029 134.578 61.8992 135.227 60.639C130.746 67.1869 125.834 73.3182 119.981 78.7448C113.34 84.9018 106.124 90.4004 98.2383 94.8702C97.0398 95.5492 97.5079 97.082 98.4852 97.4935C105.836 93.6769 112.065 88.3995 117.887 82.5614C121.637 78.8014 124.821 74.5887 128.041 70.4017Z" fill="#F4BBB3"/>
<path d="M146.318 58.5804C148.072 61.466 150.243 64.007 152.784 66.2394C158.539 71.2956 164.239 76.4084 169.999 81.4543C172.669 83.7896 175.441 86.0065 178.625 87.6216C179.608 88.1205 180.631 88.5783 181.681 88.9024C184.129 89.6534 186.603 90.3169 189.072 91.001C189.437 91.1039 189.823 91.1142 190.194 91.1913C190.518 91.2582 190.867 91.4331 190.816 91.788C190.79 91.9629 190.672 92.184 190.523 92.3332C191.361 92.04 191.608 90.5741 190.703 90.1574C186.223 88.0948 181.66 86.5414 177.386 83.9902C172.988 81.3618 168.816 78.4402 164.748 75.3334C156.487 69.0272 146.935 62.3199 143.772 51.868C143.623 51.369 142.913 51.5799 143.005 52.0788C143.062 52.3977 143.129 52.7167 143.201 53.0304C143.525 53.5756 143.849 54.126 144.163 54.6815C144.888 55.9726 145.546 57.31 146.318 58.5804Z" fill="#F4BBB3"/>
<path d="M137.219 157.518C137.862 152.713 136.668 148.645 133.654 145.307C133.659 145.348 133.669 145.384 133.675 145.425C133.618 145.327 133.556 145.235 133.5 145.142C132.918 144.514 132.281 143.913 131.571 143.336C130.964 142.848 130.331 142.385 129.693 141.932C132.219 145.188 134.179 148.82 135.053 152.929C135.706 156.005 135.711 159.2 135.13 162.286C134.683 164.642 133.309 166.967 133.068 169.322C133.603 168.026 134.184 166.751 134.744 165.465C135.861 162.903 136.843 160.306 137.219 157.518Z" fill="#F4BBB3"/>
<path d="M139.292 157.2C139.271 157.395 139.24 157.591 139.214 157.786C139.605 156.68 139.554 155.446 139.4 154.242C139.43 155.199 139.4 156.181 139.292 157.2Z" fill="#F4BBB3"/>
<path d="M137.3 146.371C137.264 146.299 137.223 146.237 137.177 146.196C137.238 146.299 137.3 146.407 137.357 146.51C137.336 146.469 137.321 146.418 137.3 146.371Z" fill="#F4BBB3"/>
<path d="M114.689 209.791C114.118 206.643 113.388 203.526 112.498 200.45C111.634 197.462 110.579 194.545 109.376 191.691C108.609 189.15 107.73 186.676 106.716 184.227C104.525 176.697 101.938 169.254 98.7283 162.151C98.7078 162.099 98.6717 162.068 98.6357 162.037C99.9011 165.664 100.894 169.393 101.861 173.117C104.335 182.607 107.354 191.943 109.787 201.438C111.145 206.731 112.107 212.132 113.172 217.497C113.83 220.819 114.314 224.168 114.55 227.552C114.612 228.458 114.658 229.368 114.71 230.273C114.761 230.263 114.813 230.243 114.859 230.222C114.879 231.415 114.89 232.603 114.874 233.797C114.874 233.853 114.869 233.91 114.869 233.967C114.987 237.428 115.008 240.89 114.905 244.352C114.792 248.081 114.442 251.784 113.727 255.441C115.641 248.554 116.695 241.425 116.911 234.28C117.045 229.795 116.885 225.32 116.428 220.855C116.052 217.224 115.682 213.361 114.689 209.791ZM112.591 207.451C112.575 207.219 112.555 206.988 112.534 206.757C112.58 206.967 112.621 207.178 112.668 207.389C112.637 207.41 112.616 207.43 112.591 207.451Z" fill="#F4BBB3"/>
<path d="M174.756 242.242C174.915 243.06 175.085 243.873 175.27 244.685C175.28 244.706 175.296 244.726 175.306 244.742C174.982 242.978 174.648 241.213 174.329 239.449C174.318 239.47 174.308 239.49 174.298 239.516C174.432 240.426 174.581 241.337 174.756 242.242Z" fill="#F4BBB3"/>
<path d="M173.912 245.351C172.992 241.853 172.308 238.299 171.958 234.678C171.356 228.438 171.053 222.179 171.469 215.903C172.025 207.581 173.187 199.346 175.116 191.234C176.433 185.695 178.038 180.232 179.833 174.821C180.409 173.077 180.764 171.261 181.227 169.477C177.806 175.073 175.589 181.58 173.748 187.819C171.737 194.634 170.379 201.691 169.7 208.769C169.016 215.867 168.954 223.027 169.535 230.141C170.096 237.008 170.95 244.487 173.506 250.952C173.645 249.569 173.676 248.175 173.774 246.786C173.804 246.302 173.856 245.829 173.912 245.351Z" fill="#F4BBB3"/>
<path d="M175.508 250.702C175.498 251.145 175.493 251.582 175.534 252.014C175.544 252.117 175.555 252.22 175.565 252.323C175.704 252.256 175.837 252.163 175.95 252.05C175.945 252.029 175.94 252.004 175.935 251.978C175.791 251.561 175.652 251.134 175.508 250.702Z" fill="#F4BBB3"/>
<path d="M147.396 195.365C147.072 194.923 146.799 194.46 146.573 193.987C147.329 195.952 148.738 197.546 150.981 197.793C151.161 197.814 151.326 197.783 151.47 197.726C150.95 197.592 150.431 197.448 149.921 197.294C148.867 196.97 148.049 196.255 147.396 195.365Z" fill="#F4BBB3"/>
<path d="M147.479 188.009C147.252 189.552 147.237 191.1 147.757 192.607C148.322 194.248 149.336 195.472 150.992 196.11C151.409 196.269 151.825 196.424 152.237 196.583C152.263 196.223 152.16 195.858 151.887 195.601C150.776 194.567 149.716 193.919 149.161 192.427C148.569 190.843 148.554 189.109 148.713 187.443C149.022 184.212 150.2 180.437 151.928 177.68C151.99 177.582 151.985 177.485 151.949 177.397C151.548 178.055 151.146 178.709 150.745 179.367C149.125 182.047 147.937 184.897 147.479 188.009Z" fill="#F4BBB3"/>
<path d="M156.415 134.614C156.23 134.804 156.05 134.994 155.859 135.179C154.959 136.069 154.08 136.985 153.246 137.931C151.379 140.045 150.289 142.55 149.692 145.287C149.348 146.871 149.425 148.45 149.975 149.967C150.381 151.089 150.819 152.205 151.302 153.3C151.39 153.244 151.467 153.172 151.523 153.074C152.243 151.896 151.755 150.914 151.611 149.582C151.41 147.745 151.456 145.909 151.837 144.093C152.583 140.56 154.219 137.453 156.415 134.614Z" fill="#F4BBB3"/>
<path d="M154.773 207.363C153.755 206.941 152.685 206.622 151.61 206.381C149.763 205.959 147.886 205.666 146.034 205.259C142.294 204.442 139.136 202.682 136.78 199.57C133.915 195.785 132.609 191.449 132.187 186.794C131.786 182.385 132.398 178.085 133.632 173.852C134.45 171.049 135.674 168.405 136.827 165.735C137.933 163.174 138.838 160.556 139.208 157.783C139.234 157.588 139.265 157.392 139.285 157.197C139.393 156.184 139.424 155.201 139.393 154.239C139.306 151.426 138.637 148.849 137.351 146.519C137.295 146.411 137.233 146.308 137.171 146.205C136.117 144.384 134.682 142.717 132.856 141.21C132.223 140.686 131.565 140.187 130.886 139.724C126.966 137.059 123.762 133.659 120.912 129.91C120.243 129.03 119.636 128.094 119.096 127.132C116.89 123.197 115.774 118.938 115.563 114.448C115.362 110.168 115.882 105.976 117.435 101.959C119.179 97.4479 122.126 93.8113 125.799 90.7406C129.188 87.9064 132.964 85.7769 137.259 84.6247C137.459 84.5681 137.65 84.4601 138.01 84.3058C137.665 84.2235 137.49 84.1309 137.32 84.1464C136.472 84.2184 135.602 84.2235 134.785 84.4241C126.22 86.5382 118.33 93.6725 115.254 102.082C113.361 107.267 112.898 112.627 113.629 118.074C114.22 122.487 115.599 126.664 118.14 130.352C120.902 134.359 124.086 137.996 128.103 140.819C128.628 141.19 129.157 141.555 129.682 141.925C130.32 142.378 130.953 142.836 131.559 143.33C132.269 143.906 132.907 144.507 133.488 145.135C133.54 145.192 133.591 145.243 133.643 145.3C136.652 148.638 137.85 152.712 137.207 157.511C136.832 160.304 135.854 162.901 134.738 165.458C134.178 166.744 133.596 168.019 133.061 169.315C132.923 169.655 132.784 169.999 132.65 170.344C130.284 176.501 129.204 182.838 130.284 189.422C130.978 193.671 132.444 197.606 135.155 201.016C137.284 203.696 139.933 205.619 143.225 206.581C144.83 207.049 146.471 207.43 148.112 207.739C150.226 208.135 152.355 208.423 154.367 209.256C156.476 210.13 158.008 211.632 159.089 213.608C159.927 215.13 160.21 216.756 159.726 218.468C159.557 219.075 159.392 219.687 159.238 220.3C159.042 221.097 158.847 221.899 158.682 222.702C158.6 223.103 158.523 223.519 159.027 223.988C159.222 223.777 159.428 223.627 159.526 223.432C160.472 221.452 161.264 219.415 161.46 217.213C161.527 216.442 161.491 215.614 161.295 214.868C160.369 211.308 158.188 208.767 154.773 207.363Z" fill="black"/>
<path d="M114.868 233.97C114.826 232.74 114.775 231.511 114.703 230.282C114.652 229.376 114.605 228.466 114.544 227.561C114.307 224.176 113.823 220.822 113.165 217.505C112.105 212.14 111.138 206.739 109.781 201.446C107.348 191.951 104.328 182.615 101.854 173.125C100.882 169.406 99.8944 165.672 98.629 162.046C98.5621 161.855 98.5004 161.665 98.4336 161.475C96.9316 157.283 95.0542 153.224 93.331 149.109C91.7828 145.401 90.0339 141.769 88.7171 137.978C86.5465 131.734 84.9571 125.309 83.5426 118.844C83.3574 117.985 83.162 117.126 82.9768 116.267C82.8739 116.267 82.771 116.267 82.6682 116.267C82.5962 116.647 82.447 117.033 82.4573 117.414C82.5087 118.931 82.5293 120.454 82.7145 121.956C82.9768 124.07 83.3831 126.163 83.8409 128.241C83.7535 128.066 83.666 127.886 83.5786 127.712C81.9378 124.286 79.8649 121.164 77.0461 118.592C73.5073 115.367 70.6422 111.612 68.127 107.564C67.9778 107.322 67.8184 107.075 67.6023 106.895C67.1085 106.478 66.4913 106.736 66.4399 107.379C66.4141 107.687 66.4656 108.011 66.5324 108.32C66.7536 109.369 66.9851 110.418 67.2268 111.468C68.0858 115.248 69.31 118.895 71.2543 122.264C72.8797 125.083 74.8446 127.66 77.6325 129.424C79.7106 130.741 81.9069 131.878 84.0827 133.035C84.4016 133.205 84.7411 133.349 85.0908 133.483C85.1217 133.606 85.1526 133.724 85.1783 133.848C85.8984 136.8 86.7523 139.712 87.9199 142.525C89.3138 145.884 90.6255 149.279 92.0811 152.612C94.5758 158.327 96.7207 164.165 98.2947 170.193C97.6826 169.17 97.0756 168.146 96.4532 167.133C94.7301 164.335 92.2869 162.411 89.2418 161.223C88.033 160.749 86.8088 160.328 85.6052 159.839C84.7616 159.499 83.9438 159.098 83.1002 158.718C83.234 158.234 83.3471 157.843 83.45 157.452C83.9747 155.405 83.8306 153.43 82.7453 151.578C81.7577 149.891 80.4718 148.461 78.8567 147.345C78.4966 147.098 78.0954 146.872 77.6788 146.759C76.7169 146.496 75.8888 147.077 75.7756 148.07C75.7345 148.441 75.7962 148.826 75.8477 149.197C75.8888 149.5 75.9917 149.798 76.1203 150.323C75.3179 149.896 74.7212 149.541 74.0937 149.264C73.6101 149.048 73.0906 148.847 72.5711 148.775C71.563 148.636 71.0074 149.248 71.1412 150.246C71.172 150.483 71.2183 150.714 71.2595 150.971C70.7451 150.946 70.3079 150.884 69.8707 150.915C69.1866 150.961 68.7494 151.398 68.7339 152.077C68.7237 152.478 68.7802 152.916 68.95 153.27C69.2535 153.924 69.6187 154.567 70.0353 155.158C71.8613 157.74 74.392 159.448 77.185 160.796C77.7765 161.079 78.4298 161.264 79.0779 161.392C80.5387 161.686 81.0222 161.433 81.7886 160.122C81.8349 160.04 81.8966 159.968 81.9481 159.901C82.0252 159.906 82.0972 159.89 82.1435 159.916C83.9592 161.043 85.9807 161.706 87.9816 162.395C91.2736 163.532 93.8608 165.554 95.7434 168.485C96.2886 169.339 96.9007 170.147 97.4768 170.98C97.5643 171.109 97.6363 171.248 97.806 171.541C97.5025 171.392 97.3843 171.345 97.2814 171.284C94.5346 169.602 91.5873 168.732 88.3365 168.995C87.6215 169.051 86.8706 168.99 86.171 168.835C83.2751 168.197 80.8576 166.68 78.7538 164.633C77.8691 163.774 77.0718 162.827 76.2334 161.922C75.9094 161.572 75.6008 161.212 75.251 160.888C74.7881 160.456 74.4177 160.389 74.0628 160.631C73.6204 160.935 73.6256 161.367 73.7593 161.819C73.8673 162.184 73.9754 162.55 74.1194 162.899C74.9784 165.008 75.8271 167.122 76.7221 169.216C77.8125 171.752 79.119 174.169 80.8422 176.345C82.3698 178.274 84.2627 179.719 86.5259 180.666C88.3262 181.417 90.1985 181.849 92.1737 181.607C95.6303 181.185 98.2638 179.565 99.9047 176.499C100.455 178.495 101.077 180.47 101.859 182.399C102.142 183.099 102.322 183.844 102.538 184.57C102.765 185.321 102.986 186.077 103.207 186.833C103.068 186.864 102.914 186.905 102.744 186.967C102.451 187.08 102.168 187.229 101.885 187.368C100.748 187.913 99.6166 188.443 98.3461 188.685C95.5531 189.204 93.2282 190.614 91.2581 192.65C88.2954 195.706 86.4591 199.373 85.276 203.406C84.2216 206.996 83.9181 210.643 84.9262 214.275C85.883 217.716 87.0197 221.105 88.0793 224.521C88.1256 224.67 88.1873 224.819 88.2645 224.953C88.46 225.287 88.748 225.472 89.1338 225.328C89.5093 225.189 89.6533 224.876 89.5916 224.49C89.5504 224.243 89.4527 224.001 89.4013 223.754C89.1595 222.546 88.8817 221.342 88.7069 220.128C88.4137 218.086 88.9743 216.162 89.7253 214.3C91.0061 211.121 92.004 207.86 92.6881 204.507C93.2282 201.853 94.5038 199.6 96.515 197.774C97.1476 197.197 97.7855 196.632 98.413 196.05C100.383 194.24 102.05 192.167 103.464 189.909C103.608 189.677 103.752 189.451 103.906 189.245C104.812 192.362 105.732 195.479 106.89 198.519C107.26 199.492 107.636 200.479 107.867 201.492C108.572 204.574 109.246 207.665 109.868 210.767C111.205 217.469 112.445 224.186 112.867 231.033C113.299 238.054 113.607 245.065 112.815 252.081C112.764 252.523 112.712 252.97 112.656 253.413C112.363 254.4 111.817 255.27 111.164 256.139C108.505 259.673 105.609 262.965 102.08 265.655C100.296 267.018 98.4696 268.329 96.6744 269.682C92.7344 272.655 88.7686 275.603 84.88 278.637C83.6146 279.625 82.5139 280.823 81.3925 281.981C80.981 282.403 80.6673 282.948 80.4204 283.488C79.9729 284.475 80.2764 285.391 81.1816 285.952C81.5006 286.147 81.8658 286.286 82.2258 286.389C83.4191 286.723 84.6125 286.579 85.7852 286.265C89.2212 285.35 92.3229 283.724 95.2548 281.765C99.7658 278.756 103.392 274.857 106.519 270.459C106.715 270.181 106.91 269.903 107.106 269.631C107.152 269.651 107.204 269.672 107.25 269.698C107.162 269.991 107.075 270.289 106.988 270.582C106.617 271.858 106.221 273.128 105.876 274.409C104.858 278.18 104.148 282.001 104.153 285.921C104.153 286.924 104.261 287.953 104.508 288.925C104.848 290.288 105.984 290.555 106.91 289.511C107.445 288.904 107.867 288.174 108.212 287.433C109.138 285.442 109.673 283.323 110.151 281.194C110.953 277.609 111.54 273.987 111.9 270.33C112.28 266.488 112.707 262.651 113.114 258.814C113.155 258.448 113.196 258.083 113.232 257.723C113.412 256.967 113.577 256.206 113.726 255.439C114.441 251.782 114.79 248.079 114.904 244.35C115.012 240.893 114.986 237.431 114.868 233.97ZM82.8636 130.093C81.9429 129.28 81.0222 128.493 80.1272 127.676C79.2168 126.842 78.3115 126.004 77.4525 125.119C76.5935 124.24 75.8014 123.293 74.9629 122.388C74.1451 121.508 73.7285 120.289 72.6637 119.482C72.3962 120.068 72.6586 120.459 72.8335 120.829C73.5176 122.264 74.3354 123.617 75.4464 124.764C76.8095 126.168 78.2086 127.547 79.5974 128.931C79.7003 129.033 79.8083 129.131 79.87 129.285C78.8464 128.838 77.9411 128.221 77.1181 127.501C74.8189 125.5 73.0701 123.077 71.6967 120.371C70.3028 117.625 69.3203 114.724 68.6105 111.73C68.5745 111.586 68.5848 111.427 68.5539 111.077C68.8317 111.463 69.0066 111.674 69.1506 111.905C70.6885 114.359 72.5454 116.55 74.6235 118.561C75.1687 119.091 75.6933 119.636 76.2591 120.145C79.1653 122.789 81.1868 126.055 82.8739 129.553C82.9305 129.666 82.9614 129.79 82.9974 129.908C82.9922 129.934 82.9511 129.964 82.8636 130.093ZM82.1898 156.501C82.1589 156.717 82.0921 156.938 81.9944 157.128C81.5829 157.936 81.1508 158.738 80.7239 159.541C80.3844 160.178 80.2249 160.266 79.5151 160.106C79.1139 160.014 78.7178 159.906 78.3423 159.746C75.4464 158.512 72.9106 156.784 70.9817 154.248C70.5085 153.625 70.0662 152.982 69.8758 152.139C70.1896 152.139 70.4108 152.103 70.6114 152.149C70.884 152.216 71.1463 152.345 71.4087 152.447C71.8819 152.633 72.3808 152.91 72.8026 152.422C73.2089 151.964 72.9466 151.47 72.7409 151.002C72.6174 150.719 72.4991 150.426 72.2985 149.932C72.7717 150.097 73.0958 150.169 73.3838 150.323C74.1657 150.74 74.9269 151.192 75.6985 151.619C76.1717 151.882 76.6758 152.195 77.2004 151.825C77.7457 151.444 77.7097 150.848 77.5862 150.272C77.4833 149.778 77.3393 149.289 77.2313 148.795C77.185 148.595 77.1902 148.379 77.1541 147.967C77.5605 148.199 77.8331 148.322 78.0697 148.497C79.4585 149.531 80.585 150.801 81.4697 152.288C82.2412 153.605 82.4161 155.019 82.1898 156.501ZM101.412 190.536C100.044 192.409 98.485 194.106 96.7001 195.593C96.4584 195.793 96.2218 196.009 95.98 196.21C93.4596 198.319 91.8548 200.978 91.1964 204.193C90.5277 207.454 89.571 210.628 88.3571 213.724C87.9456 214.779 87.6678 215.884 87.3283 216.97C85.5229 213.858 85.4303 207.598 87.1175 202.521C88.6811 197.82 91.1655 193.798 95.3988 191.066C95.4554 191.113 95.5119 191.164 95.5685 191.21C95.2959 191.442 95.0233 191.683 94.7455 191.91C93.4699 192.944 92.4566 194.178 91.7776 195.68C90.9392 197.522 90.0957 199.363 89.2932 201.215C89.0772 201.714 88.8714 202.254 89.0772 202.892C89.6019 202.696 89.7253 202.254 89.9208 201.878C90.7849 200.191 91.6439 198.499 92.5029 196.807C93.3773 195.078 94.5861 193.633 96.1755 192.527C97.6003 191.534 99.0559 190.583 100.506 189.631C101.036 189.281 101.633 189.101 102.415 189.163C102.034 189.677 101.726 190.11 101.412 190.536ZM90.1882 174.951C90.502 175.193 90.9084 175.357 91.2941 175.45C93.5625 175.99 95.8411 176.258 98.1301 175.553C98.2792 175.507 98.4387 175.486 98.593 175.46C98.6547 175.45 98.7165 175.471 98.9222 175.496C98.1558 176.798 97.2917 177.914 96.0109 178.634C93.3876 180.115 90.6563 180.218 87.8736 179.164C85.7338 178.351 83.9181 177.06 82.4521 175.296C81.0068 173.557 79.8494 171.633 78.8516 169.617C78.1777 168.259 77.5656 166.865 76.933 165.487C76.8455 165.296 76.8044 165.091 76.7426 164.89C76.7992 164.844 76.861 164.803 76.9175 164.756C77.1336 165.024 77.329 165.312 77.5656 165.559C79.3402 167.405 81.4028 168.84 83.7895 169.802C85.1011 170.332 86.4436 170.625 87.8581 170.564C88.6811 170.528 89.5041 170.522 90.322 170.481C91.7365 170.414 93.115 170.636 94.3906 171.222C95.7948 171.865 97.1528 172.611 98.521 173.331C98.7576 173.454 98.9634 173.66 99.2205 173.866C99.2257 173.886 99.2308 173.907 99.236 173.933C96.5252 174.781 91.613 174.653 90.3991 173.742C89.7665 174.144 89.6687 174.555 90.1882 174.951ZM93.8042 280.937C91.1347 282.711 88.2799 284.141 85.1526 284.938C84.3244 285.149 83.4757 285.283 82.6219 285.082C82.4058 285.031 82.1898 284.98 81.9944 284.882C81.5057 284.63 81.372 284.352 81.6652 283.889C82.0458 283.277 82.4624 282.649 82.9871 282.171C84.4582 280.834 85.9344 279.481 87.5187 278.282C91.6285 275.176 95.7949 272.141 99.951 269.091C102.934 266.894 105.887 264.662 108.33 261.843C109.261 260.768 110.151 259.662 111.056 258.572C111.113 258.587 111.174 258.603 111.231 258.618C110.696 259.961 110.254 261.344 109.616 262.635C105.928 270.094 100.774 276.307 93.8042 280.937ZM109.93 275.829C109.436 279.141 108.808 282.433 107.692 285.607C107.42 286.379 107.09 287.135 106.735 287.87C106.55 288.251 106.242 288.57 105.866 289.084C105.465 288.174 105.429 287.454 105.419 286.734C105.388 284.511 105.655 282.315 106.067 280.139C107.06 274.862 108.731 269.775 110.511 264.729C110.917 264.112 111.272 263.474 111.576 262.815C111.473 263.705 111.375 264.595 111.262 265.485C110.83 268.931 110.444 272.388 109.93 275.829Z" fill="black"/>
<path d="M149.693 145.285C150.29 142.549 151.38 140.044 153.247 137.93C154.086 136.984 154.96 136.068 155.86 135.178C156.05 134.993 156.23 134.803 156.416 134.612C160.14 130.744 162.645 126.187 164.141 120.997C165.314 116.933 165.607 112.875 164.867 108.709C163.437 100.679 159.666 93.9824 153.612 88.5455C152.856 87.8666 152.049 87.275 150.969 87.0847C151.57 87.5888 152.234 88.0312 152.759 88.6072C154.626 90.675 156.462 92.7685 157.969 95.1243C160.69 99.373 162.315 104.033 163.128 108.992C163.643 112.114 163.745 115.246 162.897 118.317C162.31 120.447 161.544 122.53 160.777 124.603C160.124 126.362 159.126 127.946 157.995 129.443C156.421 131.521 154.61 133.378 152.733 135.168C150.238 137.544 148.618 140.42 147.702 143.732C147.023 146.191 147.013 148.619 147.887 151.01C148.453 152.553 149.086 154.076 149.77 155.568C151.241 158.793 152.182 162.157 152.62 165.67C153.036 169.029 152.609 172.238 150.824 175.186C150.398 175.89 149.986 176.605 149.59 177.325C149.009 178.38 148.402 179.419 147.893 180.504C146.463 183.58 145.563 186.79 145.681 190.221C145.727 191.558 146.015 192.813 146.581 193.981C146.812 194.454 147.08 194.917 147.404 195.359C148.057 196.249 148.87 196.964 149.929 197.288C150.444 197.442 150.958 197.586 151.478 197.72C152.332 197.941 153.196 198.147 154.055 198.353C154.194 198.384 154.461 198.281 154.512 198.168C154.574 198.039 154.528 197.756 154.42 197.663C154.168 197.437 153.87 197.231 153.556 197.103C153.119 196.918 152.681 196.748 152.239 196.578C151.822 196.419 151.406 196.264 150.994 196.105C149.338 195.472 148.325 194.243 147.759 192.602C147.239 191.095 147.255 189.542 147.481 188.004C147.939 184.892 149.127 182.042 150.747 179.362C151.149 178.704 151.55 178.051 151.951 177.392C152.208 176.97 152.465 176.544 152.728 176.122C154.79 172.799 155.346 169.183 154.883 165.356C154.404 161.431 153.345 157.677 151.663 154.091C151.539 153.829 151.421 153.562 151.303 153.299C150.819 152.209 150.382 151.093 149.976 149.966C149.431 148.449 149.348 146.87 149.693 145.285Z" fill="black"/>
<path d="M140.922 25.4321C141.379 26.8415 141.848 28.2509 142.336 29.6551C143.19 32.1035 144.131 34.521 144.913 36.9951C145.921 40.1945 146.791 43.4299 147.742 46.6498C148.375 48.7844 149.522 50.6156 151.08 52.205C153.267 54.4322 155.71 56.3405 158.41 57.8939C162.715 60.3732 167.052 62.7958 171.372 65.2391C175.75 67.7132 180.142 70.1719 184.509 72.6666C188.244 74.8012 191.962 76.9667 195.666 79.1579C197.986 80.5313 200.141 82.1361 202.198 83.8849C204.096 85.5001 205.424 87.4238 205.912 89.8979C206.051 90.6077 206.272 91.3073 206.499 91.9965C206.663 92.5058 206.874 93.0047 207.111 93.4882C207.291 93.8585 207.522 94.2083 208.201 94.2906C208.201 93.9048 208.253 93.5705 208.191 93.2619C207.898 91.6776 207.548 90.1036 207.28 88.5143C207.085 87.3672 206.74 86.287 206.056 85.356C205.326 84.3684 204.559 83.3911 203.69 82.5219C201.617 80.4541 199.251 78.7413 196.726 77.2804C188.892 72.754 181.063 68.2173 173.167 63.7989C168.61 61.2476 164.043 58.7323 159.604 55.9753C157.011 54.3653 154.599 52.5342 152.521 50.2864C151.451 49.1291 150.633 47.8277 150.129 46.3361C149.764 45.2559 149.419 44.1706 149.09 43.0801C147.85 39.0269 146.76 34.9274 144.965 31.0645C143.833 28.6264 142.712 26.1882 141.554 23.7604C141.313 23.2512 140.963 22.7883 140.634 22.3305C140.52 22.1762 140.304 22.1042 139.934 21.8676C140.058 22.3768 140.119 22.6751 140.207 22.9683C140.433 23.7964 140.659 24.6194 140.922 25.4321Z" fill="black"/>
<path d="M173.328 87.2571C177.865 90.7394 183.076 92.4008 188.734 92.7351C189.253 92.766 189.809 92.658 190.308 92.4882C190.385 92.4625 190.457 92.4008 190.524 92.3288C190.668 92.1796 190.791 91.9636 190.817 91.7836C190.868 91.4286 190.518 91.2537 190.194 91.1869C189.824 91.1097 189.438 91.0943 189.073 90.9966C186.604 90.3125 184.13 89.6489 181.682 88.8979C180.632 88.5739 179.609 88.1212 178.626 87.6172C175.442 85.9969 172.665 83.7851 170 81.4499C164.239 76.404 158.535 71.2911 152.784 66.2349C150.238 64.0026 148.073 61.4616 146.319 58.576C145.547 57.3055 144.889 55.9681 144.158 54.6771C143.845 54.1216 143.526 53.5763 143.197 53.0259C142.97 52.6505 142.744 52.275 142.518 51.8995C142.343 51.6166 142.085 51.3851 141.864 51.1279C141.808 51.1536 141.756 51.1845 141.7 51.2102C141.777 51.5034 141.833 51.8018 141.931 52.0847C142.43 53.5197 142.893 54.9703 143.464 56.3745C143.989 57.6604 144.596 58.9155 145.239 60.1448C146.957 63.447 149.415 66.1629 152.152 68.6421C157.141 73.1737 162.1 77.7413 167.13 82.2317C169.121 84.0012 171.224 85.6369 173.328 87.2571Z" fill="black"/>
<path d="M137.414 52.2376C137.245 55.2518 136.555 58.0602 135.228 60.6372C134.58 61.8974 133.783 63.101 132.816 64.2481C131.144 66.2284 129.627 68.3424 128.043 70.3999C124.817 74.5869 121.639 78.8047 117.889 82.5596C112.066 88.3976 105.837 93.675 98.487 97.4916C98.2607 97.6099 98.0343 97.7283 97.808 97.8466C97.1908 98.1552 96.6095 98.5512 96.0386 98.9473C95.802 99.1119 95.6322 99.3691 95.4316 99.5851C95.4779 99.6777 95.5242 99.7703 95.5757 99.868C95.9409 99.832 96.3164 99.8474 96.661 99.7497C97.2114 99.6006 97.7463 99.4051 98.271 99.1942C101.928 97.7128 105.328 95.8097 108.471 93.4024C114.319 88.912 119.746 83.9689 124.38 78.2337C128.14 73.5838 131.679 68.7539 135.269 63.9703C136.885 61.8203 137.888 59.3667 138.479 56.7383C139.276 53.2149 139.266 49.64 139.173 46.06C139.148 45.0159 139.091 43.9717 139.014 42.9327C138.978 42.4595 138.927 41.9657 138.5 41.5439C137.97 42.3617 137.949 43.1847 137.898 43.9974C137.728 46.739 137.569 49.4909 137.414 52.2376Z" fill="black"/>
<path d="M125.908 143.144C125.059 143.175 124.195 143.16 123.367 143.324C122.096 143.576 120.857 143.962 119.607 144.302C118.537 144.595 117.482 144.574 116.428 144.24C114.803 143.72 113.465 142.759 112.544 141.344C111.603 139.888 110.667 138.397 109.983 136.812C109.083 134.729 108.291 132.574 107.715 130.378C106.825 126.988 106.161 123.537 105.395 120.111C104.531 116.253 103.594 112.411 102.19 108.702C101.146 105.94 99.5104 103.615 97.1391 101.846C96.6196 101.46 95.9972 101.187 95.3903 100.94C95.0457 100.801 94.6393 100.827 94.3667 101.398C94.5776 101.45 94.7628 101.522 94.9376 101.604C95.5446 101.902 95.9664 102.381 96.4087 102.833C97.2009 103.646 97.8747 104.52 98.4559 105.451C99.0166 106.352 99.4898 107.303 99.891 108.296C100.117 108.856 100.318 109.433 100.498 110.019C101.753 114.139 102.71 118.331 103.492 122.564C103.816 124.318 104.16 126.067 104.556 127.806C105.05 129.982 105.621 132.137 106.336 134.261C107 136.231 107.771 138.139 108.754 139.95C109.273 140.912 109.854 141.843 110.513 142.738C111.49 144.06 112.678 145.13 114.149 145.865C115.749 146.673 117.446 147.074 119.2 146.585C121.356 145.984 123.48 145.284 125.615 144.605C125.769 144.554 125.923 144.507 126.083 144.456C126.463 144.338 126.792 144.101 126.71 143.638C126.643 143.211 126.268 143.134 125.908 143.144Z" fill="black"/>
<path d="M163.282 144.988C165.354 144.725 167.247 143.943 169.078 142.987C170.364 142.318 171.486 141.444 172.329 140.271C173.106 139.196 173.857 138.09 174.51 136.938C177.154 132.288 178.949 127.293 180.436 122.175C181.485 118.559 182.622 114.969 184.304 111.579C185.471 109.229 186.582 106.847 187.776 104.507C188.537 103.015 189.381 101.565 190.219 100.114C190.852 99.0185 191.551 97.9589 192.199 96.8736C192.348 96.6164 192.441 96.4055 192.477 96.2203C192.534 95.9374 192.451 95.7317 192.256 95.5877C191.932 95.3511 191.52 95.4436 191.032 95.9992C189.381 97.8766 187.663 99.7129 186.526 101.971C184.72 105.561 182.915 109.152 181.218 112.793C179.546 116.389 178.553 120.236 177.427 124.027C176.192 128.168 174.582 132.149 172.494 135.93C171.882 137.035 171.198 138.11 170.426 139.103C169.891 139.792 169.222 140.425 168.487 140.893C166.321 142.277 164.053 143.465 161.481 143.938C161.137 144 160.818 144.201 160.483 144.334C160.499 144.432 160.514 144.535 160.53 144.633C160.843 144.751 161.157 144.833 161.481 144.9C162.063 145.024 162.659 145.065 163.282 144.988Z" fill="black"/>
<path d="M135.845 184.343C135.984 186.925 136.606 189.405 137.707 191.755C138.736 193.952 140.366 195.664 142.146 197.259C142.434 197.516 142.774 197.815 143.288 197.557C142.342 196.369 141.452 195.263 140.567 194.157C139.564 192.907 138.854 191.503 138.345 189.991C136.776 185.351 137.059 180.897 139.682 176.679C140.068 176.062 140.444 175.44 140.85 174.833C141.781 173.439 142.743 172.06 143.669 170.661C144.908 168.784 146.055 166.86 146.889 164.756C147.681 162.766 147.938 160.734 147.65 158.615C147.393 156.711 146.817 154.916 145.958 153.209C144.903 151.12 143.849 149.027 142.794 146.938C141.987 145.344 141.678 143.646 141.838 141.877C141.987 140.241 142.203 138.606 142.383 136.975C142.445 136.43 142.589 135.874 142.367 135.262C141.709 135.458 141.565 135.962 141.467 136.44C141.117 138.112 140.804 139.789 140.485 141.466C140.207 142.921 140.258 144.382 140.701 145.786C141.03 146.836 141.488 147.854 141.956 148.852C142.913 150.884 143.998 152.859 144.877 154.921C146.297 158.27 146.539 161.66 144.8 165.008C144.42 165.739 144.091 166.495 143.653 167.189C142.362 169.252 140.999 171.278 139.718 173.346C138.854 174.745 138 176.16 137.291 177.636C136.282 179.74 135.717 181.987 135.845 184.343Z" fill="black"/>
<path d="M147.289 13.8432C148.04 14.7639 148.878 15.5714 149.922 16.127C150.421 16.3944 150.637 16.7596 150.792 17.2689C151.795 20.5351 152.823 23.791 153.837 27.047C153.878 27.1756 153.898 27.3145 153.96 27.5819C153.204 27.0778 152.587 26.6458 151.944 26.2497C149.835 24.9381 147.494 24.2797 145.051 24.0328C143.837 23.9093 143.451 24.5832 144.074 25.6119C146.044 28.8678 148.677 31.4808 151.908 33.4714C153.42 34.4024 155.045 34.7831 156.794 33.9138C159.551 39.3661 162.807 44.4326 166.804 49.0362C166.48 48.9899 166.187 48.8973 165.909 48.7842C163.82 47.9046 161.645 47.3645 159.397 47.1793C158.497 47.1073 157.566 47.2308 156.666 47.3594C156.383 47.4005 156.048 47.6937 155.915 47.9612C155.75 48.2904 156.074 48.491 156.342 48.6967C156.578 48.8768 156.753 49.1597 156.907 49.422C158.322 51.855 160.127 53.8507 162.761 55.044C164.597 55.8773 166.5 56.1654 168.481 56.1859C169.962 56.2014 171.197 55.6921 172.225 54.4679C173.12 55.2035 173.954 55.9287 174.828 56.6077C179.75 60.4449 184.966 63.8552 190.31 67.0751C192.167 68.1913 193.885 69.4669 195.387 71.0306C195.716 71.3701 196.066 71.6941 196.426 72.0079C196.709 72.2548 197.059 72.584 197.419 72.2445C197.81 71.8742 197.414 71.581 197.177 71.2878C195.351 69.0297 193.242 67.0802 190.732 65.604C189.791 65.0536 189.148 64.2924 188.639 63.3099C189.374 62.883 189.585 62.204 189.482 61.4428C189.256 59.7814 189.071 58.1097 188.716 56.4791C187.934 52.8425 186.026 49.8952 183.048 47.6474C182.045 46.8913 181.432 46.9633 180.645 47.9509C179.833 48.9693 179.586 50.1575 179.509 51.4075C179.349 54.005 180.141 56.3351 181.52 58.4954C181.767 58.8812 182.019 59.2567 182.394 59.8277C182.081 59.6733 181.967 59.6373 181.88 59.5756C177.94 56.7517 174.041 53.8867 170.677 50.3633C170.158 49.8181 169.751 49.2471 169.669 48.7585C170.41 46.809 171.253 45.1167 171.69 43.3267C172.678 39.2478 172.554 35.174 171.022 31.1979C170.739 30.4675 170.338 29.8812 169.653 29.3308C169.149 29.7834 168.635 30.2001 168.177 30.663C166.644 32.2164 165.389 33.9344 164.942 36.1359C164.587 37.8796 164.736 39.6078 165.163 41.3104C165.513 42.7095 165.965 44.0829 166.372 45.4614C166.361 45.4614 166.315 45.4716 166.305 45.4614C166.12 45.2453 165.935 45.0293 165.76 44.8081C162.509 40.6572 159.783 36.177 157.473 31.4397C157.375 31.2442 157.267 31.0385 157.237 30.8224C157.216 30.6527 157.257 30.4367 157.355 30.2978C158.101 29.2793 158.831 28.2455 159.634 27.2733C161.46 25.0615 162.704 22.5771 163.44 19.8098C163.892 18.1124 163.862 16.4304 163.502 14.733C163.337 13.946 163.116 13.802 162.303 13.9306C161.773 14.018 161.244 14.1312 160.739 14.3009C158.394 15.1034 157.046 16.8831 156.182 19.0846C155.431 20.9929 155.138 22.9886 155.21 25.041C155.215 25.2724 155.21 25.4987 155.21 25.7302C154.912 25.4062 154.757 25.0667 154.639 24.722C153.831 22.2942 153.044 19.8561 152.216 17.4283C151.892 16.4819 151.779 15.5509 151.882 14.5478C152.175 11.6674 151.836 8.8898 150.627 6.2048C149.254 3.15974 146.682 2.00241 143.647 1.49319C142.875 1.36459 142.603 1.66807 142.613 2.43962C142.613 2.75339 142.639 3.0723 142.69 3.38606C143.287 7.27468 144.784 10.7775 147.289 13.8432ZM183.14 49.6689C186.268 51.6029 188.258 57.4873 188.14 61.9726C187.697 62.1423 187.399 61.9211 187.193 61.5714C186.617 60.5941 185.969 59.6425 185.517 58.6086C184.282 55.8156 183.644 52.8477 183.114 49.8541C183.099 49.7923 183.13 49.7306 183.14 49.6689ZM181.515 48.8716C181.942 50.8211 182.271 52.7345 182.79 54.5965C183.315 56.4637 184.03 58.2743 184.642 60.0591C181.319 57.7805 179.534 51.6235 181.515 48.8716ZM168.311 51.4897C164.803 51.4126 161.696 50.0855 158.687 48.4601C162.164 48.6144 165.322 49.7718 168.311 51.4897ZM170.266 52.9094C170.507 52.9557 170.8 53.1306 170.914 53.3363C171.089 53.645 170.929 53.9896 170.62 54.1336C170.085 54.3856 169.525 54.7354 168.964 54.7611C164.978 54.9617 161.562 53.7581 159.057 50.497C158.965 50.3736 158.888 50.2398 158.805 50.1112C158.847 50.0701 158.888 50.0289 158.934 49.9878C159.417 50.2141 159.901 50.4302 160.379 50.6616C162.941 51.9115 165.652 52.5545 168.486 52.7242C169.077 52.7602 169.679 52.8014 170.266 52.9094ZM170.101 32.4118C170.24 32.7565 170.343 32.9674 170.41 33.1885C171.351 36.3828 171.382 39.6233 170.708 42.8484C170.435 44.1549 169.818 45.3945 169.355 46.6598C169.273 46.6444 169.185 46.6341 169.103 46.6187C167.925 41.8402 168.64 37.18 170.101 32.4118ZM166.151 39.7416C165.58 36.6451 166.644 34.0887 168.681 31.8358C168.712 31.7997 168.794 31.8049 168.985 31.7586C167.812 35.8375 166.881 39.901 167.467 44.1549C166.783 42.7455 166.428 41.259 166.151 39.7416ZM162.509 16.1218C162.617 16.9654 162.637 17.7061 162.488 18.4365C161.994 20.8437 161.197 23.1275 159.742 25.1438C159.047 26.1057 158.322 27.0418 157.53 28.0963C157.319 25.5245 160.168 18.7091 162.509 16.1218ZM157.627 19.4241C158.327 17.8089 159.304 16.4304 161.074 15.7823C159.284 18.6988 157.653 21.6718 156.83 25.0564C156.352 24.1871 156.727 21.497 157.627 19.4241ZM155.21 31.4654C155.657 31.5528 156.012 32.1392 155.951 32.6176C155.879 33.1217 155.488 33.1474 155.102 33.1783C154.248 33.2451 153.482 32.9674 152.751 32.5662C150.395 31.2699 148.487 29.4491 146.692 27.4893C146.733 27.4379 146.774 27.3865 146.81 27.3402C147.062 27.5099 147.325 27.6745 147.572 27.8494C149.907 29.5005 152.35 30.9202 155.21 31.4654ZM146.239 25.4782C149.495 26.1468 152.391 27.4482 154.495 30.1538C151.393 29.2176 148.832 27.3247 146.239 25.4782ZM148.297 4.78514C149.861 6.51856 151.049 10.2683 150.699 12.6653C149.248 9.10069 147.505 5.73672 144.876 2.87684C146.203 3.21117 147.381 3.77184 148.297 4.78514ZM149.999 14.7587C149.362 14.4398 149.007 14.0695 148.677 13.6786C146.389 10.9524 144.645 7.9485 143.997 4.39422C143.878 3.74612 143.745 3.09801 143.57 2.23388C146.548 6.08135 148.611 10.1294 149.999 14.7587Z" fill="black"/>
<path d="M231.687 76.2947C231.132 76.0478 230.473 76.0221 229.851 75.9347C229.532 75.8935 229.203 75.9398 228.786 75.9501C228.997 75.482 229.151 75.1734 229.28 74.8545C229.65 73.9646 229.871 73.0491 229.625 72.082C229.347 71.0173 228.858 70.1017 227.665 69.8805C226.482 69.6594 225.669 70.2766 225.052 71.2179C224.913 71.4288 224.8 71.6551 224.666 71.8712C224.558 72.0409 224.445 72.2055 224.255 72.4832C224.111 71.9483 224.033 71.5522 223.894 71.1768C223.684 70.6161 223.468 70.0503 223.179 69.5308C222.742 68.7541 222.079 68.3066 221.137 68.466C220.212 68.6203 219.841 69.3045 219.641 70.1069C219.383 71.1407 219.461 72.1798 219.687 73.2085C219.759 73.5274 219.836 73.8515 219.944 74.3247C219.265 73.9492 218.766 73.6046 218.216 73.3885C217.578 73.1365 216.899 72.869 216.23 72.8433C214.677 72.7919 213.823 74.2475 214.579 75.6003C214.816 76.0324 215.212 76.377 215.557 76.7474C215.721 76.9222 215.932 77.056 216.122 77.2154C215.639 77.4315 215.186 77.5755 214.795 77.8275C214.173 78.2236 213.797 78.8048 213.839 79.5712C213.88 80.3376 214.404 80.744 215.047 81.0115C215.397 81.1555 215.767 81.2429 216.127 81.3561C216.333 81.4178 216.534 81.4795 216.786 81.5567C216.59 81.8807 216.39 82.1328 216.282 82.426C216.066 83.0124 215.793 83.609 215.731 84.2211C215.618 85.4042 216.452 86.0934 217.593 85.8054C218.17 85.6614 218.715 85.3836 219.27 85.1624C219.486 85.075 219.692 84.9721 219.954 84.8538C219.857 85.3939 219.754 85.826 219.708 86.258C219.656 86.7518 219.754 87.225 220.217 87.5028C220.731 87.8063 221.23 87.6211 221.611 87.2662C221.976 86.9267 222.259 86.4998 222.542 86.0831C222.747 85.7797 222.897 85.4402 223.164 84.931C223.93 88.7527 223.334 92.1475 221.714 95.3881C220.474 97.8622 218.962 100.156 217.1 102.209C216.143 103.263 215.176 104.312 214.157 105.31C211.226 108.196 208.834 111.488 206.684 114.975C205.562 116.796 204.703 118.735 204.204 120.803C203.963 121.801 203.531 122.614 202.852 123.349C202.672 123.545 202.502 123.745 202.337 123.961C202.486 123.437 202.625 122.912 202.754 122.377C202.96 121.497 203.129 120.613 203.315 119.733C202.924 120.196 202.697 120.705 202.486 121.225C201.741 123.04 201.041 124.872 200.254 126.667C197.487 132.993 194.313 139.114 190.97 145.153C186.752 152.771 183.506 160.795 181.289 169.22C181.269 169.303 181.248 169.39 181.228 169.472C180.77 171.257 180.415 173.073 179.834 174.817C178.044 180.228 176.434 185.69 175.117 191.23C173.188 199.342 172.026 207.577 171.47 215.899C171.053 222.175 171.352 228.434 171.959 234.674C172.308 238.295 172.993 241.844 173.913 245.347C173.852 245.82 173.8 246.293 173.769 246.772C173.672 248.16 173.641 249.554 173.502 250.938C173.486 251.098 173.476 251.252 173.455 251.411C172.951 255.557 172.422 259.698 172.195 263.874C171.954 268.365 171.686 272.85 172.072 277.346C172.231 279.213 172.55 281.049 173.224 282.803C173.471 283.446 173.769 284.094 174.165 284.655C175.225 286.152 176.819 285.951 177.545 284.259C177.74 283.796 177.91 283.297 177.951 282.803C178.069 281.389 178.177 279.964 178.172 278.544C178.162 274.131 177.36 269.79 176.917 265.417C176.475 261.051 176.002 256.689 175.564 252.322C175.554 252.219 175.544 252.116 175.534 252.013C175.492 251.581 175.498 251.139 175.508 250.701C175.647 251.128 175.791 251.555 175.935 251.982C175.94 252.008 175.945 252.029 175.95 252.054C176.017 252.399 176.089 252.738 176.182 253.073C177.339 257.224 178.712 261.292 180.857 265.063C181.485 266.163 182.092 267.269 182.688 268.385C184.88 272.48 187.832 275.967 191.263 279.069C192.487 280.175 193.83 281.126 195.316 281.857C195.82 282.104 196.365 282.294 196.906 282.453C197.59 282.649 198.258 282.551 198.716 281.97C199.153 281.404 198.901 280.797 198.567 280.288C197.981 279.388 197.399 278.472 196.7 277.665C194.874 275.561 192.976 273.519 191.129 271.441C187.775 267.67 184.864 263.576 182.189 259.302C180.081 255.933 178.229 252.44 176.717 248.778C178.177 250.624 179.937 252.188 181.788 253.664C182.92 254.559 184.247 255.12 185.651 255.403C186.762 255.624 187.904 255.711 189.036 255.778C190.008 255.84 190.99 255.789 191.998 255.789C192.019 257.116 192.677 257.928 193.763 258.448C194.287 258.7 194.802 258.679 195.311 258.407C196.422 257.815 197.07 256.421 196.787 255.176C196.607 254.389 196.18 253.757 195.388 253.52C194.581 253.278 193.86 253.592 193.362 254.23C193.084 254.585 192.785 254.693 192.4 254.667C190.383 254.539 188.352 254.492 186.351 254.235C184.869 254.045 183.491 253.402 182.313 252.445C180.25 250.768 178.219 249.04 176.67 246.844C176.187 246.16 175.734 245.45 175.287 244.74C175.276 244.719 175.261 244.699 175.251 244.683C175.071 243.871 174.896 243.058 174.736 242.24C174.561 241.335 174.412 240.424 174.278 239.509C174.289 239.488 174.299 239.468 174.309 239.442C174.361 239.329 174.407 239.216 174.459 239.108C174.993 239.108 175.374 239.087 175.75 239.113C177.632 239.221 179.484 239.015 181.269 238.423C183.126 237.806 184.988 237.189 186.808 236.474C188.892 235.656 191.021 235.132 193.269 235.142C193.428 235.142 193.583 235.137 193.742 235.132C194.092 235.116 194.416 234.967 194.406 234.602C194.395 234.375 194.169 234.129 193.984 233.943C193.86 233.82 193.644 233.789 193.464 233.732C191.988 233.264 190.517 232.776 189.031 232.349C187.559 231.927 186.047 231.747 184.525 231.906C183.465 232.02 182.421 232.261 181.351 232.447C181.413 232.375 181.444 232.313 181.495 232.282C182.133 231.876 182.781 231.474 183.419 231.063C187.086 228.666 190.584 226.053 193.336 222.591C194.442 221.202 195.599 219.875 196.87 218.641C198.886 216.681 200.527 214.454 201.54 211.8C202.378 209.598 202.975 207.335 203.135 204.99C203.207 203.904 203.032 202.783 202.836 201.703C202.697 200.941 202.126 200.808 201.586 201.281C198.855 203.683 196.864 206.62 195.409 209.938C194.056 213.009 193.794 216.29 193.567 219.577C193.526 220.184 193.367 220.657 192.996 221.125C191.716 222.74 190.316 224.242 188.753 225.59C186.376 227.642 183.794 229.412 181.114 231.042C178.321 232.74 176.079 235.023 174.032 237.523C173.78 235.301 173.625 233.069 173.486 230.837C172.962 222.437 173.229 214.089 174.479 205.746C174.582 205.067 174.7 204.388 174.808 203.709C174.896 203.503 174.993 203.302 175.076 203.092C176.326 199.99 178.507 197.927 181.716 196.924C183.383 196.405 184.715 195.335 185.883 194.039C187.086 192.701 187.884 191.122 188.65 189.523C189.108 188.571 189.411 188.401 190.424 188.633C191.227 188.818 192.014 189.049 192.821 189.224C194.755 189.646 196.715 189.785 198.665 189.384C202.955 188.504 206.751 186.647 209.744 183.386C211.452 181.519 213.057 179.559 214.687 177.625C215.094 177.142 215.433 176.602 215.778 176.072C215.947 175.809 216.086 175.516 216.174 175.218C216.369 174.539 216.025 174.143 215.335 174.287C214.914 174.38 214.471 174.549 214.121 174.796C212.779 175.748 211.436 176.699 210.161 177.728C207.913 179.539 205.604 181.246 203.078 182.656C200.46 184.117 197.723 185.053 194.673 184.939C193.326 184.888 192.04 185.248 190.826 185.834C190.682 185.907 190.522 185.943 190.239 186.035C190.98 184.456 191.993 183.294 193.243 182.352C193.999 181.781 194.807 181.277 195.599 180.753C197.142 179.734 198.546 178.561 199.585 177.008C201.71 173.845 203.186 170.403 203.983 166.679C204.22 165.568 204.384 164.442 204.59 163.254C204.806 163.207 204.925 163.177 205.048 163.156C208.145 162.739 210.187 160.883 211.606 158.249C211.879 157.75 211.982 157.097 211.966 156.516C211.941 155.353 210.927 154.798 209.878 155.302C209.574 155.446 209.286 155.631 208.942 155.821C208.942 155.404 208.952 155.07 208.942 154.731C208.901 153.831 208.289 153.368 207.466 153.728C206.817 154.016 206.246 154.489 205.655 154.906C205.439 155.06 205.259 155.271 205.022 155.497C204.637 154.906 204.333 154.391 203.983 153.908C203.212 152.828 202.101 152.73 201.159 153.656C200.912 153.897 200.666 154.175 200.547 154.489C200.28 155.194 199.992 155.914 199.904 156.649C199.693 158.378 200.213 159.967 201.051 161.459C201.597 162.431 202.507 162.909 203.525 163.12C203.551 163.249 203.582 163.31 203.577 163.367C203.145 166.484 202.43 169.514 201.159 172.409C199.647 175.866 197.579 178.793 194.143 180.603C192.847 181.282 191.736 182.234 190.774 183.35C190.677 183.468 190.533 183.546 190.424 183.623C190.641 181.858 190.877 180.135 191.062 178.412C191.397 175.3 192.374 172.43 194.185 169.858C194.658 169.184 195.105 168.495 195.542 167.796C196.098 166.901 196.54 165.944 196.648 164.889C196.705 164.303 196.679 163.681 196.535 163.115C196.355 162.405 195.702 162.235 195.126 162.703C194.791 162.981 194.524 163.346 194.251 163.696C193.032 165.275 191.818 166.854 190.62 168.444C190.085 169.148 189.54 169.853 189.072 170.599C187.513 173.094 186.793 175.779 187.169 178.747C187.446 180.974 187.662 183.211 187.446 185.469C187.323 186.791 187.287 188.118 187.194 189.445C187.184 189.625 187.122 189.816 187.035 189.98C185.8 192.316 184.134 194.193 181.613 195.191C180.821 195.505 180.014 195.803 179.252 196.184C177.714 196.95 176.423 198.01 175.549 199.491C176.943 192.238 178.831 185.114 181.084 178.073C182.179 174.642 183.439 171.268 184.345 167.765C186.222 160.502 189.169 153.645 192.539 146.964C194.802 142.473 197.111 137.998 198.932 133.302C199.909 130.787 200.928 128.292 201.766 125.731C201.915 126.003 202.209 126.204 202.615 126.266C203.047 126.327 203.505 126.317 203.942 126.271C206.216 126.029 208.448 125.54 210.562 124.676C219.836 120.89 226.61 114.492 230.643 105.274C231.276 103.824 231.79 102.327 231.991 100.743C232.021 100.491 232.068 100.233 232.032 99.9916C231.939 99.3178 231.399 99.0915 230.864 99.5081C230.643 99.6779 230.437 99.8939 230.288 100.131C229.589 101.252 228.56 101.951 227.377 102.461C226.94 102.651 226.528 102.882 226.096 103.083C221.554 105.202 217.444 107.99 213.813 111.421C211.195 113.895 208.808 116.616 206.324 119.229C206.216 119.342 206.118 119.471 206.01 119.584C205.902 119.692 205.778 119.795 205.66 119.898C206.159 118.334 206.931 116.961 207.805 115.649C210.058 112.27 212.496 109.045 215.361 106.154C216.097 105.413 216.796 104.636 217.496 103.86C219.841 101.252 221.75 98.3508 223.169 95.1412C224.352 92.4613 224.928 89.6683 224.625 86.7261C224.568 86.1757 224.594 85.6151 224.579 84.9618C224.872 85.1264 225.103 85.2653 225.345 85.399C226.132 85.8414 226.976 86.0831 227.886 86.0523C229.583 85.9957 230.37 84.5915 229.511 83.1461C229.259 82.7192 228.951 82.3231 228.632 81.8602C228.971 81.7727 229.244 81.711 229.511 81.6236C230.648 81.2635 231.672 80.7028 232.438 79.7718C233.482 78.5322 233.138 76.9377 231.687 76.2947ZM176.83 281.558C176.783 282.181 176.634 282.803 176.47 283.41C176.382 283.729 176.171 284.012 175.986 284.357C175.282 284.135 175.086 283.652 174.875 283.204C174.15 281.672 173.795 280.041 173.589 278.369C173.162 274.902 173.265 271.42 173.45 267.948C173.641 264.348 173.924 260.757 174.17 257.162C174.201 256.699 174.294 256.236 174.464 255.783C174.613 257.172 174.741 258.566 174.911 259.955C175.379 263.751 175.883 267.542 176.346 271.338C176.763 274.738 177.087 278.138 176.83 281.558ZM194.02 254.924C194.683 254.091 195.517 254.261 195.877 255.264C196.175 256.097 195.681 257.254 194.848 257.553C194.647 257.625 194.318 257.599 194.154 257.476C193.763 257.188 193.434 256.817 193.068 256.467C193.434 255.881 193.675 255.362 194.02 254.924ZM201.962 202.737C202.97 206.682 200.017 214.799 196.623 217.597C197.888 212.468 200.167 207.757 201.962 202.737ZM200.002 204.799C199.961 204.984 199.945 205.175 199.879 205.35C199.611 206.059 199.349 206.774 199.04 207.464C197.929 209.948 196.931 212.474 196.17 215.087C195.861 216.141 195.465 217.175 194.771 218.255C195.064 213.106 196.813 208.688 200.002 204.799ZM176.999 236.047C178.995 234.818 181.037 233.666 183.393 233.306C185.775 232.94 188.089 233.306 190.389 234.123C188.686 234.756 187.071 235.378 185.435 235.949C183.563 236.603 181.68 237.24 179.782 237.832C178.373 238.269 176.917 238.218 175.462 238.094C175.59 237.498 176.285 236.484 176.999 236.047ZM202.296 160.903C201.463 159.437 201.005 157.868 201.345 156.176C201.458 155.61 201.751 155.055 202.08 154.571C202.363 154.155 202.697 154.221 202.991 154.648C203.273 155.065 203.495 155.528 203.793 155.934C204.616 157.066 205.331 157.081 206.221 156.022C207.095 154.978 207.111 154.967 208.072 154.618C208.021 155.132 207.949 155.533 207.939 155.934C207.928 156.783 208.505 157.128 209.261 156.726C209.595 156.552 209.873 156.279 210.202 156.089C210.783 155.754 211.22 155.981 211.215 156.644C211.215 156.978 211.133 157.344 210.989 157.647C210.079 159.555 208.602 160.893 206.694 161.736C205.742 162.158 204.709 162.076 203.705 161.947C203.063 161.87 202.6 161.438 202.296 160.903ZM191.237 186.853C192.384 186.354 193.603 186.107 194.843 186.153C197.698 186.261 200.254 185.392 202.692 184.003C205.537 182.388 208.165 180.475 210.67 178.381C211.544 177.651 212.424 176.931 213.334 176.247C213.885 175.83 214.497 175.496 215.207 175.239C215.119 175.408 215.058 175.604 214.934 175.748C214.404 176.375 213.869 177.003 213.314 177.61C211.992 179.06 210.634 180.475 209.338 181.946C206.699 184.929 203.366 186.781 199.601 187.907C197.466 188.545 195.296 188.53 193.12 188.129C192.163 187.954 191.217 187.748 190.044 187.516C190.548 187.234 190.877 187.007 191.237 186.853ZM188.506 175.223C188.815 173.752 189.38 172.384 190.234 171.149C190.805 170.316 191.458 169.539 192.06 168.727C193.104 167.302 194.138 165.867 195.172 164.432C195.311 164.241 195.45 164.046 195.686 163.722C195.836 164.421 195.717 164.951 195.522 165.414C195.131 166.34 194.709 167.266 194.185 168.125C193.218 169.719 192.158 171.252 191.479 173.006C190.707 175.002 190.286 177.07 190.131 179.189C189.951 181.663 189.355 184.05 188.773 186.447C188.737 186.591 188.645 186.719 188.439 186.827C188.49 186.421 188.526 186.015 188.588 185.608C188.907 183.556 188.763 181.514 188.506 179.467C188.331 178.057 188.208 176.643 188.506 175.223ZM191.818 273.791C193.238 275.365 194.673 276.929 196.057 278.529C196.592 279.146 197.019 279.856 197.476 280.535C197.59 280.705 197.631 280.926 197.723 281.178C197.158 281.26 196.741 281.023 196.329 280.807C194.838 280.026 193.475 279.048 192.22 277.932C188.866 274.944 185.98 271.569 183.81 267.609C183.445 266.94 183.064 266.282 182.683 265.623C182.688 265.618 182.694 265.618 182.699 265.613C182.529 265.145 182.375 264.667 182.179 264.209C181.629 262.933 181.068 261.657 180.492 260.387C179.535 258.273 178.676 256.128 177.915 253.952C181.639 261.195 186.356 267.748 191.818 273.791ZM226.929 104.153C221.991 110.711 215.562 115.438 208.283 119.286C213.556 112.964 219.497 107.64 226.929 104.153ZM209.811 119.877C211.442 118.854 213.129 117.912 214.78 116.925C217.835 115.104 220.613 112.928 223.097 110.366C225.319 108.072 227.474 105.717 229.403 103.165C229.676 102.805 230.005 102.497 230.309 102.162C230.376 102.203 230.437 102.245 230.504 102.286C230.376 102.697 230.273 103.119 230.113 103.52C227.413 110.387 223.2 116.055 216.93 120.067C214.399 121.688 211.786 123.179 208.854 123.966C207.512 124.326 206.144 124.584 204.786 124.856C204.42 124.928 204.035 124.882 203.453 124.897C204.009 124.11 204.498 123.457 205.171 122.989C206.699 121.924 208.237 120.87 209.811 119.877ZM225.813 72.2929C226.003 71.9072 226.271 71.5265 226.59 71.2385C227.135 70.7447 227.845 70.8527 228.195 71.4957C228.426 71.9226 228.601 72.4421 228.616 72.9205C228.658 74.1807 227.608 75.8781 226.482 76.5725C225.849 76.0993 225.227 75.6363 224.543 75.1322C224.939 74.227 225.345 73.2497 225.813 72.2929ZM220.68 70.3795C220.705 70.1995 220.788 70.0143 220.885 69.8548C221.168 69.3919 221.642 69.2993 221.981 69.7211C222.305 70.1326 222.603 70.6212 222.727 71.1253C223.046 72.401 223.262 73.7074 223.519 75.0036C222.897 75.1837 222.393 75.3277 221.796 75.5026C220.891 73.9183 220.397 72.2364 220.68 70.3795ZM215.582 75.0345C215.258 74.4996 215.531 73.9955 216.153 73.9749C216.518 73.9646 216.93 74.0315 217.244 74.2064C218.422 74.8545 219.574 75.5643 220.762 76.269C220.433 76.7782 220.17 77.1897 219.893 77.6218C218.663 77.2103 217.496 76.7319 216.472 75.9861C216.122 75.7341 215.803 75.3997 215.582 75.0345ZM215.649 79.9724C215.418 79.8747 215.114 79.6175 215.104 79.4221C215.094 79.2112 215.346 78.882 215.562 78.7843C215.953 78.6145 216.41 78.4808 216.832 78.5014C217.743 78.5476 218.643 78.7071 219.635 78.8305C219.646 79.2729 219.651 79.5867 219.661 79.9056C218.334 80.5845 216.986 80.528 215.649 79.9724ZM217.007 84.7561C216.698 83.141 217.779 81.6236 219.234 81.4384C219.512 81.4024 219.774 81.2789 220.14 81.1658C220.402 81.4641 220.747 81.8602 221.158 82.3282C220.032 83.5473 218.777 84.5092 217.007 84.7561ZM221.148 86.1449C221.081 86.1191 221.009 86.0934 220.942 86.0626C221.029 85.7025 221.065 85.327 221.209 84.9927C221.492 84.324 221.816 83.6707 222.166 83.0329C222.233 82.9043 222.475 82.8735 222.717 82.8838C222.315 84.0668 221.883 85.183 221.148 86.1449ZM221.132 79.9724C220.659 78.7277 221.225 76.9943 222.284 76.4696C223.972 75.626 225.746 76.7731 225.777 78.7225C225.798 79.4478 225.571 80.0959 225.108 80.6463C223.894 82.0814 221.801 81.7264 221.132 79.9724ZM227.85 84.9515C226.723 84.9361 225.772 84.4937 225.031 83.6399C224.805 83.3776 224.604 83.0998 224.378 82.8066C225.062 82.2974 225.659 81.855 226.281 81.3921C227.217 81.9579 227.989 82.7295 228.57 83.681C229.038 84.4474 228.755 84.9618 227.85 84.9515ZM231.481 79.2369C230.365 80.2759 228.745 81.1349 226.909 80.1885C226.94 79.4426 226.976 78.6968 227.012 77.8841C227.994 77.3286 229.095 77.0045 230.288 77.0354C230.535 77.0405 230.792 77.092 231.024 77.1794C232.083 77.5858 232.299 78.4756 231.481 79.2369Z" fill="black"/>
<path d="M217.397 132.378C217.15 132.337 216.893 132.337 216.641 132.332C214.609 132.27 212.598 132.491 210.623 132.949C206.909 133.808 204.018 135.778 202.434 139.358C201.76 140.886 201.189 142.465 200.629 144.039C200.428 144.594 200.351 145.212 200.325 145.803C200.315 146.06 200.531 146.467 200.747 146.549C200.968 146.637 201.338 146.456 201.59 146.307C201.796 146.184 201.92 145.932 202.084 145.736C202.989 144.651 204.013 143.72 205.397 143.298C206.693 142.902 207.989 142.475 209.316 142.234C214.254 141.328 216.409 138.952 218.04 134.091C218.117 133.854 218.132 133.597 218.158 133.428C218.184 132.682 218.045 132.486 217.397 132.378ZM202.917 141.935C203.766 139.224 205.109 136.905 207.706 135.521C209.604 134.513 211.641 134.004 213.874 133.68C213.735 133.824 213.683 133.901 213.606 133.952C213.529 134.004 213.436 134.029 213.349 134.076C212.228 134.652 211.101 135.228 209.98 135.809C207.326 137.188 205.134 139.111 203.298 141.457C203.175 141.621 203.046 141.776 202.917 141.935ZM210.222 140.68C209.666 140.804 209.11 140.927 208.555 141.025C207.182 141.267 205.849 141.657 204.584 142.244C204.368 142.342 204.142 142.419 203.848 142.393C203.982 142.228 204.106 142.053 204.245 141.899C206.06 139.934 208.077 138.237 210.499 137.049C212.48 136.077 214.444 135.068 216.42 134.076C216.466 134.127 216.517 134.173 216.564 134.225C215.478 137.378 213.74 139.893 210.222 140.68Z" fill="black"/>
<path d="M81.3824 77.4174C81.6602 77.1551 81.9379 76.8927 82.1694 76.5944C83.8205 74.4752 85.8677 72.8035 88.0178 71.2141C93.5729 67.1146 99.0253 62.8865 103.865 57.9331C103.953 57.8457 104.061 57.7788 104.154 57.7017C105.388 58.7253 106.165 59.1059 107.409 59.0596C109.416 58.9876 111.35 58.6172 113.17 57.6759C115.861 56.2923 117.661 54.132 118.911 51.447C119.096 51.0509 119.245 50.6651 119.641 50.3771C120.078 50.053 119.96 49.5695 119.451 49.338C119.255 49.2506 119.029 49.2095 118.813 49.1889C117.733 49.0809 116.668 49.1323 115.608 49.3946C113.638 49.8833 111.715 50.5005 109.92 51.4675C109.683 51.5961 109.426 51.6887 109.174 51.8019C112.707 46.8022 115.49 41.4425 117.769 35.8256C119.06 36.3143 120.042 36.3451 121.189 35.7587C122.084 35.301 122.964 34.7557 123.715 34.1025C125.952 32.1582 127.856 29.9207 129.286 27.3077C129.512 26.891 129.733 26.4641 129.877 26.0166C130.047 25.4714 129.779 25.0496 129.214 24.993C128.781 24.9519 128.319 24.9776 127.902 25.0908C125.279 25.8006 122.815 26.8345 120.768 28.6913C120.567 28.8714 120.341 29.0308 120.104 29.216C120.073 29.0874 120.037 29.0205 120.047 28.9691C120.809 25.4765 121.58 21.9891 122.336 18.4966C122.424 18.0954 122.65 17.8639 122.954 17.6016C123.736 16.9226 124.569 16.2488 125.176 15.4258C127.609 12.0978 128.92 8.34295 129.157 4.22287C129.178 3.84223 129.193 3.4616 129.157 3.08611C129.1 2.52031 128.936 2.37629 128.355 2.39172C128.077 2.39686 127.789 2.46373 127.521 2.55117C126.95 2.73634 126.385 2.94209 125.824 3.16327C123.864 3.93482 122.48 5.28761 121.704 7.25249C120.819 9.50028 120.408 11.8098 120.726 14.2273C120.85 15.1377 120.989 16.043 121.092 16.9535C121.133 17.3238 121.164 17.7199 121.081 18.0799C120.418 20.9758 119.729 23.8717 119.039 26.7625C118.972 27.0505 118.854 27.3231 118.762 27.606C118.53 26.6236 118.479 25.6514 118.293 24.7101C117.81 22.2463 116.92 19.9728 115.022 18.2085C113.731 17.0049 112.188 16.4545 110.449 16.4134C109.683 16.3928 109.498 16.5471 109.415 17.3238C109.261 18.7126 109.22 20.1117 109.637 21.4696C110.249 23.4808 111.051 25.42 112.353 27.0762C113.7 28.7891 115.146 30.4299 116.632 32.0244C117.064 32.4925 117.105 32.832 116.905 33.3515C114.986 38.3254 112.635 43.0885 109.714 47.5532C109.596 47.7332 109.436 47.8927 109.169 48.2167C109.436 47.0748 109.673 46.1644 109.858 45.2334C110.213 43.4228 110.388 41.5968 110.069 39.7605C109.616 37.1527 108.078 35.2238 106.113 33.5778C105.614 33.1612 105.069 32.796 104.39 32.2919C103.999 33.012 103.624 33.5007 103.459 34.051C101.679 40.0229 102.667 45.6346 105.841 50.8966C106.293 51.6476 106.129 52.1722 105.825 52.7946C105.717 53.0158 105.522 53.1958 105.362 53.3964C102.312 57.2387 98.6446 60.4484 94.936 63.6169C94.8486 63.6889 94.7457 63.7403 94.6377 63.8072C94.612 63.7249 94.5863 63.6889 94.5965 63.6683C94.8177 63.2517 95.0543 62.8402 95.2704 62.4184C96.5974 59.862 97.1118 57.1873 96.4534 54.3326C96.2219 53.3141 95.7539 52.4397 95.0132 51.7093C94.3239 51.0303 93.6758 50.9943 92.9351 51.663C90.6205 53.7462 88.9642 56.2306 88.239 59.3013C87.7709 61.2868 87.5908 63.2928 87.5548 65.3246C87.5394 66.3482 87.4674 67.3821 88.5527 67.9324C88.1104 68.9355 87.5651 69.7019 86.7421 70.314C85.6825 71.1061 84.6332 71.9548 83.7331 72.9218C82.6169 74.1203 81.6499 75.4628 80.6212 76.7436C80.436 76.975 80.2714 77.2476 80.5286 77.5048C80.8372 77.8083 81.1355 77.6488 81.3824 77.4174ZM128.103 3.29186C128.046 8.81102 125.33 14.073 122.882 16.1459C123.838 11.46 125.546 7.25249 128.103 3.29186ZM123.206 6.88729C123.972 5.39048 125.258 4.50062 126.858 3.98626C124.543 7.05703 123.118 10.529 122.012 14.3662C121.889 14.037 121.791 13.893 121.786 13.749C121.627 11.3314 122.105 9.03735 123.206 6.88729ZM127.408 26.6081C125.052 28.6656 122.691 30.7025 119.754 31.8958C121.555 29.0514 124.291 27.5392 127.408 26.6081ZM119.024 33.3206C122.095 32.4719 124.564 30.6151 126.935 28.5987C126.981 28.5576 127.048 28.5422 127.105 28.5164C127.156 28.5679 127.202 28.6142 127.254 28.6656C126.559 29.4732 125.886 30.3013 125.165 31.0883C124.075 32.2816 122.923 33.4081 121.534 34.2619C120.85 34.6837 120.13 34.9872 119.307 34.9769C118.962 34.9718 118.587 34.9718 118.484 34.5191C118.386 34.0819 118.638 33.4235 119.024 33.3206ZM110.64 18.6354C113.417 22.0611 115.67 25.6514 116.678 30.1058C113.078 27.1894 110.136 21.5879 110.64 18.6354ZM114.801 22.4675C113.937 20.9913 112.887 19.623 111.828 18.0748C112.666 18.2651 113.242 18.6149 113.767 19.0675C114.909 20.0654 115.686 21.305 116.236 22.7092C116.776 24.098 117.131 25.5228 117.172 27.1791C116.344 25.5125 115.665 23.9386 114.801 22.4675ZM117.162 50.5005C114.77 52.3882 110.274 54.2503 107.831 54.4046C108.917 53.1032 114.801 50.4748 117.162 50.5005ZM108.973 41.5557C108.973 43.3662 108.629 45.1305 108.176 46.8794C108.155 46.9617 108.083 47.0337 107.898 47.3217C107.96 44.9916 107.914 42.8673 107.353 40.815C106.803 38.7935 106.149 36.8081 105.491 34.6477C107.677 36.5663 108.978 38.7421 108.973 41.5557ZM104.395 35.6096C106.257 40.1309 107.322 44.6985 106.571 49.6364C103.706 46.2364 103.171 38.8501 104.395 35.6096ZM105.357 56.4363C105.455 56.2203 105.727 56.0043 105.964 55.9425C106.818 55.7316 107.687 55.5362 108.562 55.4282C111.283 55.0835 113.705 53.9828 116.041 52.6249C116.313 52.4654 116.586 52.306 116.858 52.1465C116.91 52.1156 116.977 52.1054 117.038 52.0848C116.529 53.2832 115.783 54.2863 114.796 55.0784C112.707 56.7552 110.305 57.5937 107.636 57.6914C106.952 57.7171 106.319 57.5576 105.738 57.2182C105.434 57.0433 105.213 56.7604 105.357 56.4363ZM94.3754 52.8563C94.864 53.2935 95.0389 53.7153 95.1881 54.1577C95.5841 55.351 95.6304 56.5803 95.4967 57.8148C95.2498 60.0575 93.8147 62.9174 92.1636 64.3936C93.5678 60.7262 94.005 56.8735 94.3754 52.8563ZM92.9351 53.7616C92.8425 54.6463 92.7757 55.4127 92.6882 56.174C92.4362 58.3755 92.0864 60.5667 91.3715 62.6653C90.9857 63.7918 90.425 64.8668 89.9209 65.9521C89.7461 66.3328 89.4837 66.6671 88.9694 66.5282C88.0229 62.9019 90.1473 55.8757 92.9351 53.7616Z" fill="black"/>
<path d="M64.4397 94.8862C64.4089 94.6084 64.3523 94.3358 64.2803 93.9089C64.7226 94.0529 65.021 94.1455 65.3141 94.2484C67.5002 95.0148 69.3931 96.2596 71.0802 97.8232C72.685 99.3046 74.3002 100.776 75.8793 102.283C76.7846 103.147 77.6641 104.032 78.5488 104.922C78.554 104.942 78.554 104.963 78.5591 104.983C78.698 105.817 78.9706 106.634 79.2587 107.432C79.4284 107.905 79.7679 108.306 80.4829 108.296C80.4829 107.905 80.5137 107.54 80.4777 107.185C80.3646 106.084 80.1279 104.994 80.1125 103.893C80.0662 100.359 80.6217 96.9642 82.6175 93.9192C83.9651 91.8669 85.4877 89.9637 87.3651 88.3949C90.8371 85.4938 94.3451 82.6288 97.8891 79.8204C101.51 76.9502 105.239 74.2189 108.845 71.3333C112.23 68.6226 115.578 65.8656 118.824 62.9902C121.457 60.6602 123.844 58.0626 125.83 55.1461C129.79 49.3286 132.485 42.935 134.281 36.1608C135.608 31.1509 136.801 26.0998 138.051 21.0693C138.164 20.6115 138.272 20.1434 138.339 19.6753C138.38 19.3873 138.349 19.089 138.349 18.7958C138.277 18.7803 138.2 18.7598 138.128 18.7443C137.964 19.0324 137.768 19.3101 137.645 19.6136C136.966 21.2853 136.204 22.9261 135.659 24.639C134.81 27.3188 134.039 30.0347 133.365 32.766C132.1 37.8891 130.248 42.791 127.938 47.5232C126.524 50.4294 124.863 53.2121 122.687 55.6245C119.693 58.9422 116.473 62.0387 113.006 64.8574C107.456 69.3684 101.798 73.7457 96.1042 78.0767C92.6322 80.7205 89.3043 83.5598 85.9712 86.3785C84.2275 87.8548 82.7255 89.5779 81.4344 91.4708C80.2874 93.1528 79.3358 94.9171 78.7649 96.8459C78.446 95.1074 77.9882 93.3997 77.2989 91.7434C76.121 88.935 74.2642 86.7077 71.6923 85.1132C70.0823 84.1153 68.3849 83.2563 66.7235 82.3356C66.5023 82.2122 66.2709 82.1042 66.0291 82.0321C65.6845 81.9293 65.3244 81.9138 65.0775 82.243C64.8306 82.5671 64.9078 82.9066 65.129 83.2101C65.3553 83.5135 65.597 83.8067 65.8491 84.0948C67.2173 85.6739 68.5649 87.2684 69.9692 88.8167C72.8239 91.9543 74.0635 95.8635 75.3597 99.9013C75.046 99.6338 74.8094 99.4435 74.5933 99.2377C73.7858 98.4765 72.9885 97.7152 72.1861 96.9488C69.2851 94.1712 65.8594 92.4995 61.8679 91.9594C59.9544 91.7023 58.4782 93.0499 58.6736 94.9633C58.7611 95.8172 59.1417 96.5322 59.7384 97.134C60.5974 98.0033 61.8319 98.2244 62.8812 97.7101C63.8636 97.2266 64.5529 95.9869 64.4397 94.8862ZM69.928 86.5277C69.532 86.1008 69.1462 85.6584 68.8633 85.0926C69.0227 85.1646 69.1822 85.2315 69.3416 85.3035C72.8959 86.9752 75.3083 89.6602 76.5994 93.3842C77.4944 95.9715 77.8441 98.6462 78.1013 101.342C78.0036 101.367 77.9059 101.398 77.8081 101.424C77.2629 100.261 76.7074 99.104 76.1725 97.9364C76.0284 97.6226 75.9153 97.2883 75.8433 96.9488C74.9071 92.8853 72.721 89.5368 69.928 86.5277ZM61.6415 96.3882C60.9111 96.3624 60.155 95.4314 60.1602 94.5673C60.1653 93.8729 60.6385 93.4357 61.3844 93.4305C62.1662 93.4254 62.948 94.2947 62.9223 95.1331C62.8966 95.8223 62.2948 96.4139 61.6415 96.3882Z" fill="black"/>
<path d="M82.436 246.286C84.4986 244.619 84.2414 242.078 81.8856 240.9C81.1089 240.514 80.4042 240.643 79.8539 241.312C79.6738 241.528 79.5658 241.8 79.4115 242.037C78.9486 242.773 78.5371 243.534 77.5958 243.817C76.8808 244.033 76.3201 244.547 75.9344 245.175C75.3943 246.059 74.8645 246.97 74.4633 247.921C73.6403 249.891 73.2339 251.964 73.1362 254.156C73.0282 253.97 72.8842 253.801 72.8173 253.605C72.4006 252.35 71.9274 251.1 71.6085 249.819C71.0941 247.752 70.4357 245.751 69.371 243.894C68.584 242.521 67.797 241.147 67.01 239.779C66.7889 239.393 66.5626 239.013 66.3465 238.627C66.1716 238.313 65.9813 238.009 65.5647 238.051C65.1532 238.092 65.004 238.426 64.8806 238.76C64.752 239.115 64.6234 239.475 64.5411 239.846C64.0164 242.243 64.181 244.624 64.7365 246.996C65.9196 252.016 68.26 256.192 73.1773 258.471C73.5323 258.636 73.6814 258.888 73.8049 259.227C73.9129 259.515 74.1701 259.582 74.4118 259.346C75.0239 258.759 75.2091 257.643 74.8953 256.805C74.7565 256.429 74.6742 256.028 74.6381 255.632C74.5867 255.097 74.6124 254.557 74.5919 254.022C74.4838 251.522 75.1422 249.197 76.2687 247.001C76.5259 246.502 76.8808 246.044 77.246 245.607C77.5495 245.247 77.9301 244.953 78.4599 244.948C78.6194 245.206 78.748 245.458 78.9177 245.679C79.8024 246.852 81.397 247.124 82.436 246.286ZM67.8382 248.724C68.6149 250.519 69.4019 252.314 70.1889 254.109C70.2763 254.305 70.3637 254.5 70.4872 254.773C67.3135 252.571 64.4845 243.868 65.7756 240.376C68.2137 244.167 70.2506 248.086 70.9141 252.741C70.5849 252.103 70.3072 251.584 70.05 251.054C69.5922 250.118 69.1447 249.171 68.6869 248.235C68.5737 248.009 68.4606 247.772 68.2908 247.597C68.1828 247.489 67.9308 247.412 67.8022 247.464C67.6839 247.51 67.5759 247.762 67.5913 247.911C67.6221 248.189 67.725 248.461 67.8382 248.724ZM80.5328 245.185C80.003 244.897 79.7201 244.434 79.8796 243.971C80.1265 243.266 80.3991 242.557 81.0266 241.996C81.1861 242.052 81.2787 242.068 81.3558 242.114C82.7446 242.886 82.8783 243.956 81.7262 245.051C81.3507 245.406 81.0112 245.447 80.5328 245.185Z" fill="black"/>
<path d="M91.4898 249.768C92.2665 249.378 93.0843 249.208 93.9433 249.115C94.6634 249.038 95.4041 248.951 96.0779 248.709C101.072 246.898 104.051 243.39 104.709 238.082C104.997 235.762 104.642 233.473 103.804 231.282C103.567 230.67 103.238 230.078 102.878 229.528C102.42 228.829 101.937 228.705 101.16 228.998C100.923 229.086 100.702 229.209 100.481 229.333C98.9018 230.181 97.7702 231.488 96.8289 232.974C95.6407 234.847 94.6326 236.817 93.8147 238.874C93.2181 240.371 92.6831 241.893 92.0762 243.385C91.32 245.247 90.7491 247.135 91.0114 249.161C90.6565 249.434 90.3479 249.671 89.9775 249.954C90.7388 250.113 90.7697 250.134 91.4898 249.768ZM102.009 230.593C103.619 232.568 104.045 237.804 102.775 240.798C101.196 244.512 98.5469 247.022 94.3908 247.721C96.5357 245.34 98.2126 242.686 99.4316 239.738C100.646 236.806 101.263 233.71 102.009 230.593ZM92.5545 245.9C93.9742 242.017 95.2395 238.067 97.4204 234.512C98.0737 233.442 98.8915 232.47 99.6734 231.483C99.9151 231.174 100.28 230.968 100.656 230.768C99.5294 237.29 97.3381 243.277 92.4825 247.989C92.3848 247.963 92.2922 247.937 92.1945 247.912C92.3076 247.238 92.3231 246.528 92.5545 245.9Z" fill="black"/>
<path d="M65.136 200.8C65.4343 200.445 65.7584 200.219 66.2265 200.121C67.8004 199.802 69.1429 199.01 70.1717 197.811C71.0512 196.788 71.8022 195.641 72.5172 194.494C73.5254 192.884 73.8597 191.099 73.6642 189.211C73.618 188.769 73.5511 188.332 73.4842 187.894C73.2116 186.171 72.8104 184.484 72.1469 182.864C71.6531 181.665 70.9329 180.637 69.8116 179.947C68.9063 179.392 68.2119 179.736 67.9959 180.765C67.8982 181.223 67.7387 181.665 67.5998 182.113C67.142 183.558 66.5557 184.973 66.2522 186.449C65.6555 189.329 65.172 192.23 64.7399 195.137C64.5342 196.505 64.4879 197.909 64.5136 199.293C64.5239 199.833 64.493 200.265 64.1741 200.692C63.8243 201.16 63.5106 201.659 63.1865 202.142C64.0764 201.962 64.2564 201.834 65.136 200.8ZM69.3538 185.4C69.3281 184.078 69.3487 182.751 69.3487 181.331C69.5493 181.475 69.7602 181.557 69.8579 181.712C70.2231 182.262 70.6295 182.802 70.8764 183.409C71.7354 185.503 72.2189 187.689 72.3938 189.942C72.4761 191.001 72.3115 192.025 71.8691 192.997C70.9895 194.91 69.9556 196.716 68.1708 197.95C67.7644 198.233 67.3118 198.454 66.7048 198.804C67.3066 197.179 67.8776 195.816 68.3199 194.406C69.2458 191.479 69.4207 188.455 69.3538 185.4ZM67.9444 184.849C68.5565 187.817 67.2809 195.466 65.8715 197.261C65.7738 195.692 67.3992 185.955 67.9444 184.849Z" fill="black"/>
<path d="M219.595 237.195C219.148 235.405 218.999 233.589 219.127 231.743C219.199 230.765 219.225 229.783 219.158 228.806C219.009 226.558 218.047 224.747 216.113 223.513C215.527 223.142 214.92 222.803 214.328 222.438C212.564 221.347 212.482 221.188 212.641 219.151C212.687 218.554 212.785 217.957 212.811 217.356C212.831 216.898 212.554 216.569 212.178 216.543C211.777 216.512 211.51 216.728 211.401 217.098C211.304 217.433 211.237 217.772 211.196 218.117C211.052 219.403 210.872 220.663 210.414 221.898C209.874 223.353 209.653 224.896 209.658 226.465C209.756 229.716 210.764 232.689 212.621 235.323C214.287 237.684 216.586 239.185 219.487 239.659C219.852 239.72 220.269 239.89 220.511 239.458C220.722 239.077 220.398 238.841 220.218 238.543C219.955 238.131 219.714 237.668 219.595 237.195ZM217.852 237.848C216.257 237.02 214.843 235.95 213.855 234.433C212.209 231.907 211.088 229.176 210.949 226.12C210.908 225.251 210.995 224.372 211.196 223.472C211.278 223.76 211.365 224.048 211.437 224.341C211.957 226.347 212.61 228.286 214.092 229.824C214.333 230.071 214.57 230.349 214.868 230.503C215.043 230.596 215.408 230.57 215.542 230.446C215.666 230.333 215.655 229.994 215.599 229.783C215.537 229.551 215.357 229.34 215.213 229.135C214.056 227.432 213.444 225.508 212.939 223.538C212.903 223.399 212.934 223.245 212.934 223.024C213.798 223.497 214.606 223.929 215.398 224.382C217.162 225.39 218.042 226.959 218.201 228.95C218.248 229.546 218.258 230.153 218.222 230.75C218.078 233.095 218.129 235.431 218.664 237.73C218.69 237.843 218.68 237.961 218.695 238.182C218.366 238.049 218.093 237.972 217.852 237.848Z" fill="black"/>
<path d="M188.427 208.458C189.492 207.25 190.628 206.092 191.6 204.817C193.324 202.553 193.586 199.951 193.087 197.23C192.938 196.417 192.619 196.216 191.817 196.386C189.646 196.839 187.918 197.991 186.616 199.771C185.248 201.643 184.497 203.783 184.014 206.03C183.71 207.43 183.535 208.834 183.849 210.264C184.008 210.994 184.183 211.694 184.986 211.961C185.022 212.193 185.042 212.378 185.083 212.558C185.15 212.856 185.279 213.108 185.639 213.088C186.03 213.072 186.194 212.805 186.236 212.465C186.261 212.249 186.261 212.018 186.21 211.807C186.081 211.323 186.241 210.943 186.549 210.593C187.177 209.883 187.804 209.168 188.427 208.458ZM185.099 208.391C185.454 204.673 186.39 201.231 189.548 198.84C187.419 201.72 185.737 204.811 185.099 208.391ZM191.765 198.264C192.099 200.465 191.616 202.301 190.438 203.911C189.543 205.13 188.489 206.231 187.491 207.368C187.105 207.81 186.663 208.206 186.189 208.577C186.879 204.565 188.951 201.314 191.765 198.264Z" fill="black"/>
<path d="M144.988 242.772C144.834 240.658 144.577 238.544 144.566 236.43C144.541 231.651 144.638 226.873 144.679 222.099C144.695 220.14 144.705 218.175 144.685 216.215C144.679 215.598 144.571 214.986 144.51 214.369C144.422 214.374 144.335 214.379 144.247 214.384C144.206 214.59 144.15 214.79 144.134 215.001C144.052 216.076 143.985 217.146 143.908 218.221C143.646 221.878 143.332 225.535 143.121 229.198C142.931 232.577 142.905 235.967 143.183 239.346C143.322 241.018 143.424 242.69 143.594 244.361C143.934 247.73 144.309 251.094 144.674 254.458C144.7 254.705 144.726 254.983 144.844 255.189C144.937 255.348 145.194 255.513 145.358 255.497C145.523 255.477 145.765 255.245 145.785 255.086C145.842 254.654 145.821 254.201 145.79 253.764C145.528 250.091 145.25 246.429 144.988 242.772Z" fill="black"/>
</svg>
