<svg width="271" height="426" viewBox="0 0 271 426" fill="none" xmlns="http://www.w3.org/2000/svg">
<path d="M207.674 93.3704L207.673 93.3707C206.684 94.1755 205.691 94.9863 204.693 95.8005C193.471 104.962 181.718 114.557 168.836 120.86C163.359 123.531 143.91 131.027 124.97 135.186C115.497 137.267 106.194 138.503 98.8456 137.903C91.4672 137.3 86.2723 134.872 84.6349 129.842C83.7659 127.172 83.9234 124.918 84.8647 122.972C85.8131 121.012 87.5843 119.308 90.0438 117.807C94.9741 114.799 102.503 112.702 111.074 110.947C116.18 109.902 121.614 108.986 127.054 108.068C130.748 107.445 134.445 106.821 138.046 106.156C146.917 104.518 155.181 102.633 161.158 99.8943C169.762 95.9698 178.102 91.2797 186.375 86.6272C189.576 84.8272 192.766 83.0329 195.959 81.2907C198.27 80.0318 200.572 78.7401 202.874 77.448C208.922 74.0546 214.974 70.6588 221.207 67.8501C223.988 66.6139 226.529 64.9757 229.014 63.3737C229.228 63.2355 229.442 63.0976 229.656 62.9602C231.812 61.582 235.761 59.4073 239.86 57.5087C243.978 55.6006 248.168 54.0096 250.832 53.7432L250.834 53.7429C254.103 53.3975 264.074 52.9979 267.805 52.9494C267.486 53.2593 266.964 53.6622 266.318 54.1005C265.535 54.6314 264.615 55.1844 263.76 55.643C262.895 56.1064 262.128 56.4562 261.642 56.5995L261.52 56.6356L261.508 56.6476C261.491 56.6535 261.472 56.6602 261.451 56.6677C261.345 56.705 261.189 56.7594 260.988 56.8288C260.588 56.9676 260.013 57.1656 259.313 57.406C257.913 57.8868 256.014 58.5365 254.012 59.2189C250.006 60.5845 245.593 62.0788 243.929 62.6152C242.931 62.9356 241.728 63.5831 240.389 64.4549C239.043 65.3308 237.535 66.4505 235.924 67.7366C232.702 70.3088 229.044 73.5649 225.417 76.9094C222.591 79.516 219.788 82.1712 217.221 84.6032C213.18 88.4323 209.722 91.7081 207.674 93.3704ZM268.101 52.5967C268.101 52.5967 268.1 52.5979 268.099 52.6005C268.1 52.598 268.1 52.5967 268.101 52.5967ZM261.589 56.6187C261.594 56.6166 261.597 56.6157 261.594 56.6165L261.589 56.6187Z" fill="white" stroke="#333333"/>
<path d="M118.151 64.0857C114.701 65.3822 111.385 68.0637 108.09 71.3854C107.477 72.0047 106.382 73.4493 105.073 75.3411C103.772 77.2203 102.282 79.5068 100.885 81.7818C99.4873 84.0582 98.188 86.3153 97.2656 88.1374C96.8039 89.0496 96.4418 89.8425 96.209 90.4689C96.0925 90.7824 96.0122 91.0442 95.9671 91.252C95.9194 91.471 95.9211 91.5855 95.9286 91.6264L95.9293 91.6298C96.0541 92.3314 96.4478 93.0716 97.0313 93.823C97.6117 94.5704 98.3551 95.2977 99.135 95.9725C99.9135 96.6463 100.717 97.258 101.413 97.778C101.527 97.8635 101.64 97.9471 101.749 98.0286C102.292 98.4323 102.762 98.7821 103.049 99.039L103.06 99.0484L103.07 99.0583C103.111 99.0995 103.154 99.1377 103.194 99.1715C103.208 99.1831 103.219 99.1923 103.23 99.2017C103.237 99.2071 103.243 99.2126 103.251 99.2187L103.253 99.2203C103.265 99.2308 103.294 99.2547 103.318 99.2789L103.318 99.279L103.342 99.3025L103.337 99.2986L103.329 99.2905C103.328 99.2895 103.323 99.2854 103.317 99.28C103.317 99.28 103.317 99.28 103.317 99.28C103.315 99.2785 103.313 99.2769 103.311 99.2752L103.311 99.275C103.308 99.2722 103.294 99.2611 103.276 99.2485C103.269 99.2437 103.244 99.2263 103.209 99.2094C103.179 99.1964 103.124 99.1778 103.099 99.1716C103.03 99.1694 102.962 99.1767 102.918 99.2102C102.909 99.2168 102.902 99.2244 102.895 99.2332C102.871 99.2642 102.862 99.3096 102.873 99.375L103.035 99.5617L103.387 99.967L102.992 99.66L103.387 99.967L103.387 99.9671L103.386 99.9676L103.385 99.9696L103.379 99.9772L103.355 100.007L103.263 100.125C103.183 100.229 103.063 100.382 102.909 100.579C102.601 100.972 102.155 101.543 101.6 102.248C100.489 103.659 98.944 105.611 97.2057 107.778C93.2159 112.753 88.1873 118.912 84.9821 122.342L122.428 121.974C119.854 113.952 121.966 107.809 123.896 104.528C123.753 104.187 123.74 103.807 123.853 103.411L123.853 103.411C124.486 101.205 125.937 99.0096 127.237 97.0424C127.462 96.7013 127.683 96.3671 127.894 96.0409C128.623 94.9155 129.239 93.8882 129.593 92.9641C129.949 92.0379 130.009 91.3007 129.748 90.7043C129.607 90.3804 129.441 90.1772 129.273 90.0475C129.107 89.9184 128.914 89.843 128.689 89.8109C128.215 89.7434 127.632 89.8701 126.97 90.0807C126.775 90.1426 126.568 90.2139 126.358 90.2864C125.909 90.4412 125.445 90.6014 125.05 90.6864C124.486 90.8076 123.728 90.8549 123.287 90.2078C122.929 89.6896 122.903 89.0029 122.995 88.2844C123.088 87.548 123.323 86.6528 123.618 85.6255C123.725 85.2562 123.84 84.8671 123.961 84.4578C124.52 82.5691 125.205 80.251 125.745 77.4751L118.151 64.0857ZM118.151 64.0857C118.167 64.093 118.19 64.1036 118.22 64.1176C118.287 64.1487 118.386 64.1963 118.513 64.2608C118.766 64.3898 119.129 64.5861 119.56 64.8519C120.424 65.3844 121.554 66.1915 122.624 67.2904C124.758 69.4814 126.643 72.812 125.745 77.4743L118.151 64.0857Z" fill="white" stroke="#333333"/>
<path d="M159.681 93.5929C159.185 93.2068 158.743 92.7656 158.33 92.2967C157.916 91.8279 157.558 91.3315 157.199 90.8075C156.538 89.7595 155.986 88.6563 155.545 87.498C155.518 87.4153 155.462 87.305 155.435 87.2223C157.144 88.8494 159.791 90.6144 163.431 91.0557C166.602 91.4142 175.977 86.3398 171.62 75.8048C169.056 69.5996 164.479 68.331 161.804 68.2758C161.832 68.2758 161.832 68.2758 161.859 68.2758C162.411 68.1655 162.99 68.1104 163.569 68.0828C164.699 68.0552 165.857 68.2207 166.933 68.6343C168.008 69.048 169.028 69.6823 169.911 70.4821C170.793 71.2819 171.565 72.2196 172.144 73.2951C171.675 72.1644 171.013 71.1164 170.214 70.1787C169.387 69.2411 168.422 68.4413 167.291 67.8621C166.161 67.283 164.892 66.9245 163.624 66.8141C162.99 66.759 162.328 66.759 161.694 66.7866C161.363 66.8142 161.06 66.8417 160.729 66.8969C160.398 66.952 160.067 67.0072 159.764 67.0899C158.468 67.3933 157.227 68.0276 156.179 68.855C155.104 69.6823 154.222 70.7027 153.477 71.8059C152.76 72.909 152.181 74.0949 151.712 75.3359C151.575 75.722 151.437 76.1081 151.326 76.4942C146.143 64.2769 130.84 56.8307 118.818 63.3393C118.625 63.422 118.46 63.5323 118.267 63.6426C118.267 63.6426 128.055 67.8621 126.18 77.5974C124.857 84.4093 122.651 88.5184 123.643 89.9525C124.636 91.4142 128.799 87.4429 130.15 90.5317C131.502 93.6205 125.711 98.5846 124.278 103.576C124.167 103.962 124.222 104.293 124.415 104.569C126.676 108.072 149.176 104.955 152.54 90.3111C152.733 89.4286 152.898 88.546 152.981 87.6911C153.146 87.9945 153.312 88.2703 153.505 88.546C154.222 89.7043 155.076 90.8075 156.014 91.8003C156.483 92.2967 157.006 92.738 157.53 93.1517C158.082 93.5653 158.661 93.9239 159.24 94.2272C159.846 94.5306 160.481 94.7788 161.115 94.9718C161.749 95.1649 162.411 95.2476 163.045 95.3028C162.411 95.1097 161.804 94.9167 161.253 94.6133C160.701 94.3099 160.177 93.979 159.681 93.5929Z" fill="#333333"/>
<path d="M99.0219 205.424C88.1031 194.668 76.1916 155.865 76.1916 155.865C76.1916 155.865 69.6017 144.806 73.9307 134.52C74.7854 132.506 75.9159 130.548 77.2118 128.645C77.9839 127.542 78.8386 126.439 79.721 125.391C89.4542 113.918 97.8362 104.9 97.8362 104.9C97.8362 104.9 126.65 115.408 126.843 128.535C126.981 136.285 121.383 164.497 128.966 174.701C132.275 179.142 154.416 187.332 154.416 187.332C154.416 187.332 165.362 184.051 175.564 191.056C178.321 192.958 181.023 195.606 183.422 199.274C191.06 210.912 187.145 227.625 183.174 238.518C180.803 245.027 178.376 249.439 178.376 249.439C178.376 249.439 121.246 227.294 99.0219 205.424Z" fill="#333333"/>
<path d="M11.0089 28.7837L10.5615 28.5606L10.4081 28.8682L10.6403 29.1216L11.0089 28.7837ZM11.0089 28.7837C10.6403 29.1216 10.6405 29.1217 10.6408 29.1221L10.6423 29.1237L10.6482 29.1302L10.6716 29.1557L10.7643 29.2567L11.1261 29.6513C11.4433 29.9972 11.9093 30.5052 12.5043 31.1536C13.6944 32.4504 15.4007 34.3087 17.4655 36.5549C21.5952 41.0474 27.1592 47.0918 32.8964 53.2991C44.3604 65.7024 56.5447 78.7874 59.3324 81.4093L59.3326 81.4095C64.1252 85.9104 71.3563 90.3369 79.2412 94.7244C82.4293 96.4984 85.7209 98.2643 89.0097 100.029C93.8854 102.644 98.7548 105.257 103.271 107.887C110.833 112.291 117.296 116.686 121.005 121.114C122.855 123.323 123.988 125.504 124.259 127.665C124.528 129.81 123.956 131.996 122.278 134.249C120.192 137.038 117.055 138.267 113.111 138.267L113.108 138.267C108.043 138.301 101.738 136.332 94.9758 133.2C88.2255 130.072 81.0714 125.81 74.3247 121.311C60.8269 112.309 49.0113 102.394 45.3856 98.8089C38.3458 91.8361 26.8136 75.3432 17.1776 60.0293C12.3649 52.3807 8.03633 45.0441 4.99028 39.3621C3.46654 36.5198 2.26848 34.1003 1.49137 32.2669C1.10232 31.349 0.823934 30.59 0.662103 30.0047C0.581156 29.712 0.532411 29.4734 0.511629 29.2867C0.489969 29.0922 0.503186 28.9912 0.514444 28.9532L0.514695 28.9523C0.798576 27.9869 1.55375 26.7228 2.59847 25.2971C3.634 23.8839 4.91844 22.3586 6.21526 20.8774C6.86303 20.1376 7.51198 19.4109 8.13301 18.7161L8.21896 18.6199C8.80812 17.9608 9.37129 17.3308 9.87991 16.7496C10.93 15.5498 11.7936 14.5082 12.164 13.8288C12.4815 13.2562 12.7126 12.3889 12.8795 11.4437C13.109 10.2217 13.2828 8.72406 13.4555 7.23697C13.5441 6.47364 13.6324 5.71308 13.7277 4.99398C13.8701 3.91944 14.0284 2.93132 14.2264 2.12701C14.4101 1.38037 14.6126 0.861501 14.8207 0.571061C14.9688 0.745663 15.1595 1.09931 15.3697 1.65017C15.8058 2.79301 16.237 4.53753 16.583 6.44144C16.9282 8.34009 17.1837 10.3692 17.2762 12.0711C17.3225 12.9227 17.3275 13.6829 17.2848 14.2993C17.2407 14.9339 17.1493 15.3546 17.0413 15.5706C16.3932 16.8671 14.7732 20.1147 13.3153 23.038L11.3917 26.8956L10.7867 28.1088L10.62 28.4432L10.5764 28.5307L10.5652 28.5531L10.5624 28.5587L10.5617 28.5602L10.5615 28.5605C10.5615 28.5606 10.5615 28.5606 11.0089 28.7837Z" fill="white" stroke="#333333"/>
<path d="M152.957 381.282L152.957 381.282C153.178 392.259 152.487 403.204 151.161 414.089L151.161 414.089C151.072 414.812 151.003 415.537 150.934 416.257C150.797 417.7 150.662 419.12 150.371 420.448C149.925 422.479 149.101 424.385 147.315 426.084L147.313 426.085C143.479 429.707 137.84 431.258 132.612 432.412C131.786 432.594 130.972 432.766 130.175 432.934C128.425 433.303 126.76 433.655 125.241 434.058C123.027 434.646 121.21 435.324 119.977 436.268L119.976 436.268C119.787 436.412 119.68 436.64 119.736 436.889C119.795 437.15 120.065 437.582 120.96 438.017C122.757 438.89 126.71 439.59 134.64 439.095C136.657 438.963 138.612 438.483 140.616 437.99C140.873 437.927 141.131 437.864 141.389 437.801C143.648 437.253 145.975 436.747 148.421 436.832C148.421 436.832 148.421 436.832 148.421 436.832L148.404 437.332C150.449 437.4 151.83 437.995 153.27 438.615C154.161 438.999 155.073 439.392 156.179 439.676L152.957 381.282ZM152.957 381.282C152.528 360.51 148.539 344.885 144.325 333.845C140.929 324.946 137.378 319.012 135.465 315.815C135.006 315.048 134.641 314.439 134.396 313.984C134.104 313.444 133.695 312.234 133.213 310.414C132.736 308.614 132.198 306.263 131.641 303.478C130.526 297.909 129.331 290.619 128.369 282.55C126.444 266.403 125.458 247.188 127.887 232.422C130.304 217.721 137.223 209.806 144.605 205.971C152.018 202.12 159.942 202.358 164.384 204.044C174.619 207.929 179.685 216.136 181.512 226.439C183.343 236.767 181.907 249.155 179.146 261.256C176.387 273.348 172.318 285.107 168.921 294.159C167.681 297.462 166.533 300.4 165.569 302.865C165.212 303.779 164.88 304.627 164.579 305.405C164.023 306.841 163.568 308.039 163.249 308.958C163.089 309.417 162.961 309.812 162.871 310.135C162.783 310.448 162.721 310.729 162.711 310.945C162.678 311.682 162.943 312.557 163.364 313.517C163.79 314.49 164.406 315.614 165.14 316.87C165.643 317.731 166.201 318.654 166.797 319.639C167.951 321.548 169.247 323.691 170.555 326.066C174.51 333.25 178.483 342.408 178.565 352.89C178.615 365.445 174.642 378.385 170.92 390.507C170.615 391.502 170.311 392.491 170.011 393.474L170.011 393.475C169.064 396.597 167.877 399.639 166.682 402.702C166.355 403.541 166.028 404.381 165.704 405.224C164.203 409.138 162.797 413.117 162.002 417.299L162.002 417.3M152.957 381.282L162.002 417.3M162.002 417.3C161.225 421.434 160.872 425.879 162.469 429.984L162.002 417.3Z" fill="white" stroke="#333333"/>
<path d="M184.045 237.54C185.897 232.258 187.66 225.769 188.149 219.185C188.674 212.13 187.742 204.918 183.84 198.972C181.556 195.481 178.996 192.893 176.366 190.984C191.046 178.021 206.551 171.627 218.43 168.473C224.432 166.879 229.507 166.114 233.078 165.747C234.864 165.563 236.273 165.48 237.233 165.442C237.714 165.423 238.082 165.415 238.329 165.412C238.402 165.411 238.465 165.411 238.517 165.411L239.258 166.06L239.965 165.356L238.63 163.814L238.626 163.791C238.612 163.678 238.59 163.511 238.563 163.293C238.51 162.858 238.435 162.221 238.35 161.416C238.18 159.805 237.972 157.525 237.815 154.847C237.503 149.486 237.401 142.551 238.236 136.212C238.532 133.978 239.603 130.281 241.119 125.83C242.629 121.392 244.568 116.244 246.577 111.126C250.597 100.892 254.896 90.7967 256.618 86.7856L256.62 86.7822C257.149 85.5246 256.755 84.0624 255.654 83.2614C254.834 82.6593 253.805 81.8687 252.861 81.0471C251.909 80.2175 251.076 79.3851 250.619 78.6993C250.368 78.3225 250.345 77.6951 250.657 76.7268C250.962 75.7836 251.538 74.656 252.263 73.4045C252.757 72.551 253.321 71.6391 253.9 70.7025C254.99 68.9405 256.134 67.091 256.967 65.3785L256.968 65.3773C257.418 64.4456 257.564 63.1941 257.568 61.8686C257.571 60.5299 257.43 59.0495 257.258 57.6229C257.186 57.0165 257.108 56.4253 257.034 55.8566C256.931 55.0705 256.834 54.3274 256.763 53.6471C256.701 53.0666 256.661 52.5507 256.653 52.1161C256.644 51.6749 256.67 51.351 256.725 51.1386C256.98 50.1903 257.595 49.2307 258.414 48.3105C259.231 47.3937 260.226 46.5447 261.198 45.8172C262.168 45.0907 263.105 44.4926 263.8 44.076C263.991 43.9614 264.164 43.8606 264.314 43.7748C264.337 43.9438 264.365 44.1418 264.396 44.3679C264.514 45.2247 264.685 46.4848 264.893 48.0971C265.309 51.3216 265.875 55.9544 266.476 61.5854C267.679 72.8482 269.022 88.1003 269.584 104.063C270.145 120.029 269.923 136.689 268.003 150.773C267.043 157.815 265.66 164.198 263.745 169.522C261.828 174.852 259.391 179.083 256.346 181.861L256.303 181.901L256.27 181.949C245.008 198.455 227.276 212.214 212.038 221.988C198.869 230.435 187.595 235.885 184.045 237.54Z" fill="white" stroke="#333333"/>
</svg>
