<svg width="75" height="75" viewBox="0 0 75 75" fill="none" xmlns="http://www.w3.org/2000/svg">
<circle cx="37.5" cy="37.5" r="37.5" fill="#A6B6B6"/>
<mask id="path-2-outside-1" maskUnits="userSpaceOnUse" x="13" y="22" width="51" height="33" fill="black">
<rect fill="white" x="13" y="22" width="51" height="33"/>
<path fill-rule="evenodd" clip-rule="evenodd" d="M31.6629 37.7795C31.6629 29.6164 38.5121 23 38.5121 23C38.5121 23 45.3606 29.6164 45.3606 37.7795C45.3606 45.9412 38.5121 52.5581 38.5121 52.5581C38.5121 52.5581 31.6629 45.9411 31.6629 37.7795ZM52.9224 42.1307C50.8498 45.654 47.5796 48.0745 44.6394 49.6743C46.583 46.6236 48.4776 42.4501 48.4776 37.7638C48.4776 34.2214 47.3952 30.9718 46.0277 28.2784C50.2674 25.484 54.527 24.4418 54.527 24.4418C54.527 24.4418 57.4454 34.4353 52.9224 42.1307ZM20.7002 43.8172C20.1079 42.7885 19.6352 41.7295 19.2447 40.6627C16.1903 41.1312 14 42.0764 14 42.0764C14 42.0764 17.0487 50.0378 23.7403 52.8692C25.7175 53.7054 27.7923 53.9999 29.7341 53.9999C30.6614 53.9999 31.5427 53.921 32.3837 53.8137C28.6293 52.0761 23.6691 48.9662 20.7002 43.8172ZM57.4185 40.6627C57.0273 41.7304 56.5554 42.7901 55.9621 43.8189C52.9933 48.967 48.0326 52.0761 44.2788 53.8137C45.12 53.921 46.0005 53.9999 46.9279 53.9999C48.8689 53.9999 50.9437 53.7055 52.9219 52.8692C59.6128 50.0378 62.6626 42.0764 62.6626 42.0764C62.6626 42.0764 60.4721 41.1313 57.4185 40.6627ZM32.0234 49.6743C30.0797 46.6236 28.1851 42.4501 28.1851 37.7638C28.1851 34.2214 29.2674 30.9718 30.6349 28.2784C26.3953 25.484 22.1357 24.4418 22.1357 24.4418C22.1357 24.4418 19.2174 34.4354 23.7405 42.1307C25.813 45.654 29.0833 48.0745 32.0234 49.6743Z"/>
</mask>
<path fill-rule="evenodd" clip-rule="evenodd" d="M31.6629 37.7795C31.6629 29.6164 38.5121 23 38.5121 23C38.5121 23 45.3606 29.6164 45.3606 37.7795C45.3606 45.9412 38.5121 52.5581 38.5121 52.5581C38.5121 52.5581 31.6629 45.9411 31.6629 37.7795ZM52.9224 42.1307C50.8498 45.654 47.5796 48.0745 44.6394 49.6743C46.583 46.6236 48.4776 42.4501 48.4776 37.7638C48.4776 34.2214 47.3952 30.9718 46.0277 28.2784C50.2674 25.484 54.527 24.4418 54.527 24.4418C54.527 24.4418 57.4454 34.4353 52.9224 42.1307ZM20.7002 43.8172C20.1079 42.7885 19.6352 41.7295 19.2447 40.6627C16.1903 41.1312 14 42.0764 14 42.0764C14 42.0764 17.0487 50.0378 23.7403 52.8692C25.7175 53.7054 27.7923 53.9999 29.7341 53.9999C30.6614 53.9999 31.5427 53.921 32.3837 53.8137C28.6293 52.0761 23.6691 48.9662 20.7002 43.8172ZM57.4185 40.6627C57.0273 41.7304 56.5554 42.7901 55.9621 43.8189C52.9933 48.967 48.0326 52.0761 44.2788 53.8137C45.12 53.921 46.0005 53.9999 46.9279 53.9999C48.8689 53.9999 50.9437 53.7055 52.9219 52.8692C59.6128 50.0378 62.6626 42.0764 62.6626 42.0764C62.6626 42.0764 60.4721 41.1313 57.4185 40.6627ZM32.0234 49.6743C30.0797 46.6236 28.1851 42.4501 28.1851 37.7638C28.1851 34.2214 29.2674 30.9718 30.6349 28.2784C26.3953 25.484 22.1357 24.4418 22.1357 24.4418C22.1357 24.4418 19.2174 34.4354 23.7405 42.1307C25.813 45.654 29.0833 48.0745 32.0234 49.6743Z" fill="white"/>
<path d="M38.5121 23L38.8595 22.6404C38.6657 22.4532 38.3585 22.4532 38.1647 22.6404L38.5121 23ZM38.5121 52.5581L38.1647 52.9177C38.3584 53.1049 38.6657 53.1049 38.8595 52.9177L38.5121 52.5581ZM44.6394 49.6743L44.2177 49.4057C44.0952 49.598 44.1183 49.8488 44.2739 50.0155C44.4295 50.1822 44.6781 50.2225 44.8784 50.1135L44.6394 49.6743ZM52.9224 42.1307L53.3533 42.3842L53.3534 42.384L52.9224 42.1307ZM46.0277 28.2784L45.7526 27.8609C45.5402 28.0009 45.4668 28.2779 45.5819 28.5047L46.0277 28.2784ZM54.527 24.4418L55.0069 24.3016C54.9319 24.0448 54.668 23.8925 54.4081 23.9561L54.527 24.4418ZM19.2447 40.6627L19.7143 40.4908C19.6324 40.2672 19.4043 40.1323 19.1689 40.1684L19.2447 40.6627ZM20.7002 43.8172L20.2669 44.0667L20.2671 44.0669L20.7002 43.8172ZM14 42.0764L13.8019 41.6173C13.5558 41.7235 13.4372 42.0049 13.5331 42.2552L14 42.0764ZM23.7403 52.8692L23.5454 53.3297L23.5455 53.3297L23.7403 52.8692ZM32.3837 53.8137L32.447 54.3097C32.6681 54.2814 32.8438 54.1103 32.8779 53.89C32.9119 53.6697 32.796 53.4535 32.5937 53.3599L32.3837 53.8137ZM55.9621 43.8189L55.5289 43.5691L55.5289 43.5691L55.9621 43.8189ZM57.4185 40.6627L57.4943 40.1684C57.259 40.1323 57.0309 40.2671 56.949 40.4907L57.4185 40.6627ZM44.2788 53.8137L44.0688 53.3599C43.8665 53.4535 43.7507 53.6697 43.7847 53.89C43.8187 54.1103 43.9945 54.2814 44.2156 54.3097L44.2788 53.8137ZM52.9219 52.8692L53.1166 53.3297L53.1167 53.3297L52.9219 52.8692ZM62.6626 42.0764L63.1295 42.2552C63.2254 42.0049 63.1068 41.7235 62.8606 41.6173L62.6626 42.0764ZM32.0234 49.6743L31.7844 50.1135C31.9847 50.2225 32.2333 50.1822 32.3889 50.0155C32.5445 49.8488 32.5676 49.598 32.445 49.4057L32.0234 49.6743ZM30.6349 28.2784L31.0808 28.5047C31.1959 28.2779 31.1225 28.0009 30.9101 27.8609L30.6349 28.2784ZM22.1357 24.4418L22.2546 23.9561C21.9947 23.8925 21.7308 24.0448 21.6558 24.3016L22.1357 24.4418ZM23.7405 42.1307L23.3095 42.384L23.3096 42.3842L23.7405 42.1307ZM38.5121 23C38.1647 22.6404 38.1645 22.6405 38.1644 22.6407C38.1643 22.6408 38.1641 22.6409 38.1639 22.6411C38.1636 22.6415 38.1631 22.6419 38.1626 22.6424C38.1614 22.6435 38.1599 22.645 38.158 22.6469C38.1541 22.6507 38.1486 22.6561 38.1415 22.6631C38.1273 22.677 38.1069 22.6973 38.0806 22.7238C38.0279 22.7767 37.9518 22.8544 37.8555 22.9556C37.663 23.158 37.3897 23.4547 37.0625 23.8356C36.4087 24.5971 35.5377 25.6981 34.6664 27.059C32.929 29.7727 31.1629 33.563 31.1629 37.7795H32.1629C32.1629 33.8328 33.8214 30.2334 35.5086 27.5982C36.3496 26.2846 37.1909 25.2212 37.8212 24.4871C38.1362 24.1202 38.398 23.8362 38.58 23.6449C38.671 23.5492 38.742 23.4768 38.7897 23.4288C38.8136 23.4049 38.8316 23.387 38.8433 23.3754C38.8492 23.3696 38.8535 23.3654 38.8562 23.3627C38.8576 23.3614 38.8585 23.3605 38.8591 23.36C38.8593 23.3597 38.8595 23.3596 38.8596 23.3595C38.8596 23.3595 38.8596 23.3595 38.8596 23.3595C38.8595 23.3595 38.8595 23.3596 38.5121 23ZM45.8606 37.7795C45.8606 33.563 44.0947 29.7727 42.3574 27.059C41.4862 25.6981 40.6153 24.5972 39.9615 23.8357C39.6344 23.4547 39.3611 23.158 39.1686 22.9556C39.0723 22.8544 38.9962 22.7767 38.9436 22.7238C38.9172 22.6973 38.8968 22.677 38.8826 22.6631C38.8756 22.6561 38.8701 22.6507 38.8662 22.6469C38.8642 22.645 38.8627 22.6435 38.8616 22.6425C38.861 22.6419 38.8606 22.6415 38.8602 22.6411C38.86 22.641 38.8599 22.6408 38.8598 22.6407C38.8596 22.6405 38.8595 22.6404 38.5121 23C38.1647 23.3596 38.1646 23.3595 38.1645 23.3595C38.1645 23.3595 38.1645 23.3594 38.1645 23.3595C38.1646 23.3595 38.1648 23.3597 38.165 23.36C38.1656 23.3605 38.1665 23.3614 38.1679 23.3627C38.1706 23.3654 38.1749 23.3696 38.1808 23.3754C38.1925 23.387 38.2106 23.4048 38.2344 23.4288C38.2821 23.4768 38.3531 23.5492 38.4441 23.6449C38.6261 23.8362 38.8878 24.1202 39.2028 24.4871C39.8331 25.2212 40.6743 26.2846 41.5152 27.5982C43.2022 30.2334 44.8606 33.8328 44.8606 37.7795H45.8606ZM38.5121 52.5581C38.8595 52.9177 38.8596 52.9176 38.8598 52.9174C38.8599 52.9173 38.8601 52.9172 38.8602 52.917C38.8606 52.9167 38.861 52.9162 38.8616 52.9157C38.8627 52.9146 38.8643 52.9131 38.8662 52.9112C38.8701 52.9074 38.8756 52.902 38.8827 52.895C38.8968 52.8811 38.9173 52.8608 38.9436 52.8343C38.9962 52.7814 39.0723 52.7037 39.1686 52.6025C39.3612 52.4001 39.6344 52.1034 39.9615 51.7224C40.6153 50.9609 41.4862 49.8599 42.3574 48.499C44.0947 45.7853 45.8606 41.9952 45.8606 37.7795H44.8606C44.8606 41.7254 43.2022 45.3246 41.5152 47.9599C40.6743 49.2734 39.8331 50.3368 39.2028 51.071C38.8878 51.4379 38.626 51.7219 38.4441 51.9133C38.3531 52.0089 38.2821 52.0814 38.2344 52.1293C38.2105 52.1533 38.1925 52.1712 38.1808 52.1828C38.1749 52.1886 38.1706 52.1928 38.1679 52.1954C38.1665 52.1967 38.1656 52.1977 38.165 52.1982C38.1648 52.1985 38.1646 52.1986 38.1645 52.1987C38.1645 52.1987 38.1645 52.1987 38.1645 52.1987C38.1646 52.1986 38.1646 52.1986 38.5121 52.5581ZM31.1629 37.7795C31.1629 41.9952 32.929 45.7853 34.6664 48.499C35.5377 49.8599 36.4087 50.9609 37.0625 51.7224C37.3896 52.1034 37.6629 52.4001 37.8555 52.6025C37.9518 52.7037 38.0279 52.7814 38.0806 52.8344C38.1069 52.8608 38.1273 52.8811 38.1415 52.8951C38.1486 52.902 38.1541 52.9074 38.1579 52.9112C38.1599 52.9131 38.1614 52.9146 38.1625 52.9157C38.1631 52.9162 38.1636 52.9167 38.1639 52.917C38.1641 52.9172 38.1643 52.9174 38.1644 52.9174C38.1645 52.9176 38.1647 52.9177 38.5121 52.5581C38.8595 52.1985 38.8596 52.1986 38.8596 52.1987C38.8596 52.1987 38.8596 52.1987 38.8596 52.1987C38.8595 52.1986 38.8594 52.1984 38.8591 52.1982C38.8586 52.1977 38.8576 52.1967 38.8563 52.1954C38.8536 52.1928 38.8492 52.1885 38.8433 52.1828C38.8316 52.1712 38.8136 52.1533 38.7897 52.1293C38.742 52.0813 38.671 52.0089 38.58 51.9133C38.398 51.7219 38.1362 51.4379 37.8212 51.071C37.1909 50.3368 36.3496 49.2734 35.5086 47.9598C33.8214 45.3246 32.1629 41.7253 32.1629 37.7795H31.1629ZM44.8784 50.1135C47.8601 48.4911 51.2169 46.0161 53.3533 42.3842L52.4914 41.8772C50.4827 45.2918 47.2992 47.6579 44.4004 49.2351L44.8784 50.1135ZM47.9776 37.7638C47.9776 42.3183 46.1343 46.3973 44.2177 49.4057L45.0611 49.943C47.0317 46.8498 48.9776 42.582 48.9776 37.7638H47.9776ZM45.5819 28.5047C46.9257 31.1515 47.9776 34.3227 47.9776 37.7638H48.9776C48.9776 34.1201 47.8648 30.7922 46.4736 28.052L45.5819 28.5047ZM54.527 24.4418C54.4081 23.9561 54.408 23.9561 54.4079 23.9562C54.4078 23.9562 54.4077 23.9562 54.4076 23.9562C54.4073 23.9563 54.407 23.9564 54.4066 23.9565C54.4058 23.9567 54.4048 23.9569 54.4035 23.9572C54.401 23.9579 54.3974 23.9588 54.3928 23.9599C54.3836 23.9622 54.3703 23.9656 54.3532 23.97C54.3189 23.9789 54.2689 23.992 54.2043 24.0096C54.0752 24.0447 53.8876 24.0977 53.6499 24.1699C53.1746 24.3142 52.4984 24.5355 51.6886 24.8452C50.0707 25.4638 47.911 26.4382 45.7526 27.8609L46.3029 28.6958C48.3841 27.3241 50.4741 26.3802 52.0458 25.7792C52.8309 25.479 53.4846 25.2651 53.9404 25.1267C54.1683 25.0575 54.3466 25.0072 54.467 24.9745C54.5272 24.9581 54.5728 24.9461 54.603 24.9383C54.6181 24.9344 54.6293 24.9316 54.6364 24.9298C54.64 24.9289 54.6426 24.9282 54.6442 24.9278C54.645 24.9277 54.6455 24.9275 54.6458 24.9275C54.6459 24.9274 54.646 24.9274 54.646 24.9274C54.646 24.9274 54.6459 24.9274 54.6459 24.9274C54.6459 24.9274 54.6458 24.9274 54.527 24.4418ZM53.3534 42.384C55.6844 38.4182 56.0867 33.8846 55.9202 30.3767C55.8368 28.618 55.6097 27.1043 55.4033 26.0292C55.3001 25.4914 55.2019 25.0625 55.129 24.7667C55.0926 24.6188 55.0625 24.504 55.0414 24.4255C55.0308 24.3863 55.0224 24.3561 55.0165 24.3353C55.0136 24.3249 55.0113 24.3169 55.0097 24.3113C55.0089 24.3084 55.0083 24.3062 55.0078 24.3046C55.0076 24.3038 55.0074 24.3032 55.0072 24.3027C55.0072 24.3024 55.0071 24.3021 55.007 24.302C55.007 24.3018 55.0069 24.3016 54.527 24.4418C54.047 24.5819 54.047 24.5818 54.047 24.5818C54.047 24.5818 54.047 24.5818 54.047 24.5818C54.047 24.5819 54.0471 24.5822 54.0472 24.5826C54.0474 24.5834 54.0479 24.5848 54.0484 24.5868C54.0496 24.5909 54.0514 24.5973 54.0539 24.606C54.0588 24.6236 54.0663 24.6504 54.0759 24.6862C54.0953 24.7579 54.1235 24.8654 54.158 25.0057C54.2271 25.2865 54.3216 25.6985 54.4213 26.2178C54.6208 27.2569 54.8406 28.7226 54.9214 30.4242C55.0834 33.8369 54.6834 38.1478 52.4913 41.8773L53.3534 42.384ZM18.7752 40.8345C19.1737 41.9233 19.6579 43.009 20.2669 44.0667L21.1335 43.5677C20.5579 42.5679 20.0967 41.5356 19.7143 40.4908L18.7752 40.8345ZM14 42.0764C14.1981 42.5354 14.198 42.5355 14.198 42.5355C14.198 42.5355 14.1979 42.5355 14.1979 42.5355C14.1979 42.5355 14.1979 42.5355 14.1979 42.5355C14.198 42.5355 14.1982 42.5354 14.1985 42.5353C14.1992 42.535 14.2004 42.5345 14.2021 42.5337C14.2055 42.5323 14.2111 42.5299 14.2186 42.5268C14.2338 42.5204 14.2571 42.5107 14.2883 42.4981C14.3507 42.4727 14.4445 42.4354 14.5672 42.3889C14.8126 42.2959 15.1731 42.1662 15.6282 42.0218C16.539 41.7328 17.8245 41.3864 19.3205 41.1569L19.1689 40.1684C17.6106 40.4075 16.2737 40.7679 15.3258 41.0686C14.8514 41.2191 14.4735 41.355 14.2127 41.4538C14.0823 41.5033 13.9812 41.5434 13.9119 41.5716C13.8772 41.5857 13.8505 41.5968 13.8321 41.6045C13.8228 41.6084 13.8157 41.6114 13.8106 41.6135C13.8081 41.6146 13.8061 41.6155 13.8047 41.6161C13.8039 41.6164 13.8033 41.6167 13.8029 41.6169C13.8027 41.617 13.8025 41.617 13.8023 41.6171C13.8022 41.6171 13.8021 41.6172 13.8021 41.6172C13.802 41.6172 13.8019 41.6173 14 42.0764ZM23.9351 52.4087C20.7144 51.046 18.3464 48.4353 16.7739 46.1293C15.9904 44.9804 15.4117 43.9177 15.0292 43.1432C14.8382 42.7562 14.6965 42.4419 14.6031 42.2257C14.5564 42.1176 14.5218 42.0341 14.4991 41.9783C14.4878 41.9504 14.4795 41.9295 14.4741 41.9159C14.4714 41.9091 14.4695 41.9042 14.4683 41.9011C14.4677 41.8995 14.4673 41.8985 14.4671 41.8979C14.4669 41.8976 14.4669 41.8974 14.4669 41.8974C14.4668 41.8973 14.4669 41.8974 14.4669 41.8974C14.4669 41.8974 14.4669 41.8976 14 42.0764C13.5331 42.2552 13.5331 42.2553 13.5332 42.2555C13.5332 42.2556 13.5333 42.2559 13.5334 42.2561C13.5336 42.2565 13.5338 42.2571 13.5341 42.2577C13.5346 42.2591 13.5353 42.2609 13.5362 42.2632C13.538 42.2678 13.5405 42.2743 13.5438 42.2827C13.5504 42.2994 13.56 42.3235 13.5726 42.3546C13.5979 42.4169 13.6353 42.5071 13.6851 42.6223C13.7845 42.8525 13.9333 43.1823 14.1326 43.5859C14.5309 44.3927 15.1326 45.4973 15.9477 46.6927C17.5725 49.0753 20.0746 51.861 23.5454 53.3297L23.9351 52.4087ZM29.7341 53.4999C27.8409 53.4999 25.8358 53.2126 23.935 52.4087L23.5455 53.3297C25.5992 54.1983 27.7436 54.4999 29.7341 54.4999V53.4999ZM32.3204 53.3177C31.4921 53.4234 30.6333 53.4999 29.7341 53.4999V54.4999C30.6896 54.4999 31.5933 54.4186 32.447 54.3097L32.3204 53.3177ZM20.2671 44.0669C23.3101 49.3447 28.3777 52.5107 32.1737 54.2674L32.5937 53.3599C28.8809 51.6416 24.028 48.5877 21.1334 43.5674L20.2671 44.0669ZM56.3952 44.0687C57.0054 43.0105 57.4889 41.9239 57.888 40.8347L56.949 40.4907C56.5657 41.5368 56.1053 42.5696 55.5289 43.5691L56.3952 44.0687ZM44.4889 54.2674C48.2842 52.5107 53.3522 49.3456 56.3952 44.0687L55.5289 43.5691C52.6344 48.5884 47.7811 51.6416 44.0688 53.3599L44.4889 54.2674ZM46.9279 53.4999C46.0286 53.4999 45.1706 53.4234 44.3421 53.3177L44.2156 54.3097C45.0694 54.4186 45.9724 54.4999 46.9279 54.4999V53.4999ZM52.7271 52.4087C50.8254 53.2127 48.8202 53.4999 46.9279 53.4999V54.4999C48.9176 54.4999 51.062 54.1984 53.1166 53.3297L52.7271 52.4087ZM62.6626 42.0764C62.1957 41.8975 62.1957 41.8974 62.1957 41.8973C62.1957 41.8973 62.1957 41.8973 62.1957 41.8973C62.1957 41.8974 62.1956 41.8975 62.1955 41.8978C62.1953 41.8984 62.1949 41.8995 62.1943 41.901C62.1931 41.9041 62.1912 41.9091 62.1885 41.9159C62.1831 41.9295 62.1748 41.9504 62.1635 41.9783C62.1408 42.034 62.1062 42.1176 62.0595 42.2257C61.966 42.4419 61.8243 42.7562 61.6332 43.1432C61.2507 43.9177 60.6718 44.9804 59.8882 46.1293C58.3155 48.4353 55.9474 51.046 52.727 52.4087L53.1167 53.3297C56.5873 51.861 59.0895 49.0753 60.7144 46.6927C61.5296 45.4974 62.1314 44.3927 62.5298 43.586C62.7291 43.1823 62.8779 42.8525 62.9774 42.6223C63.0272 42.5072 63.0646 42.4169 63.0899 42.3547C63.1026 42.3235 63.1122 42.2994 63.1188 42.2827C63.122 42.2744 63.1246 42.2679 63.1264 42.2633C63.1273 42.261 63.128 42.2591 63.1285 42.2578C63.1287 42.2571 63.129 42.2566 63.1291 42.2561C63.1292 42.2559 63.1293 42.2557 63.1293 42.2556C63.1294 42.2554 63.1295 42.2552 62.6626 42.0764ZM57.3427 41.1569C58.8383 41.3864 60.1237 41.7329 61.0344 42.0218C61.4895 42.1662 61.85 42.2959 62.0954 42.3889C62.2181 42.4354 62.3119 42.4727 62.3743 42.4981C62.4055 42.5107 62.4288 42.5204 62.444 42.5268C62.4515 42.5299 62.4571 42.5323 62.4605 42.5337C62.4622 42.5345 62.4634 42.535 62.4641 42.5353C62.4644 42.5354 62.4646 42.5355 62.4647 42.5355C62.4647 42.5356 62.4647 42.5356 62.4647 42.5355C62.4647 42.5355 62.4646 42.5355 62.4646 42.5355C62.4646 42.5355 62.4645 42.5355 62.6626 42.0764C62.8606 41.6173 62.8606 41.6172 62.8605 41.6172C62.8604 41.6172 62.8603 41.6171 62.8602 41.6171C62.8601 41.617 62.8599 41.6169 62.8597 41.6168C62.8592 41.6166 62.8586 41.6164 62.8579 41.6161C62.8564 41.6155 62.8544 41.6146 62.8519 41.6135C62.8469 41.6114 62.8397 41.6084 62.8305 41.6045C62.8121 41.5968 62.7853 41.5857 62.7507 41.5716C62.6814 41.5434 62.5802 41.5033 62.4498 41.4538C62.1891 41.355 61.8112 41.2191 61.3369 41.0687C60.389 40.7679 59.0523 40.4075 57.4943 40.1684L57.3427 41.1569ZM27.6851 37.7638C27.6851 42.582 29.631 46.8498 31.6017 49.943L32.445 49.4057C30.5284 46.3973 28.6851 42.3183 28.6851 37.7638H27.6851ZM30.1891 28.052C28.7979 30.7922 27.6851 34.1201 27.6851 37.7638H28.6851C28.6851 34.3227 29.737 31.1515 31.0808 28.5047L30.1891 28.052ZM22.1357 24.4418C22.0169 24.9274 22.0168 24.9274 22.0168 24.9274C22.0168 24.9274 22.0167 24.9274 22.0167 24.9274C22.0167 24.9274 22.0168 24.9274 22.0169 24.9275C22.0172 24.9275 22.0177 24.9277 22.0185 24.9278C22.0201 24.9282 22.0227 24.9289 22.0263 24.9298C22.0334 24.9316 22.0446 24.9344 22.0597 24.9383C22.0899 24.9461 22.1355 24.9581 22.1957 24.9745C22.3161 25.0072 22.4944 25.0575 22.7223 25.1267C23.1781 25.2651 23.8318 25.479 24.6169 25.7792C26.1886 26.3802 28.2786 27.3241 30.3598 28.6958L30.9101 27.8609C28.7516 26.4382 26.592 25.4638 24.9741 24.8452C24.1643 24.5355 23.4881 24.3142 23.0128 24.1699C22.7751 24.0977 22.5875 24.0447 22.4584 24.0096C22.3938 23.992 22.3438 23.9789 22.3095 23.97C22.2923 23.9656 22.2791 23.9622 22.2699 23.9599C22.2653 23.9588 22.2617 23.9579 22.2592 23.9572C22.2579 23.9569 22.2568 23.9567 22.2561 23.9565C22.2557 23.9564 22.2554 23.9563 22.2551 23.9562C22.255 23.9562 22.2549 23.9562 22.2548 23.9562C22.2547 23.9561 22.2546 23.9561 22.1357 24.4418ZM24.1716 41.8773C21.9795 38.1478 21.5795 33.837 21.7414 30.4242C21.8221 28.7226 22.042 27.257 22.2414 26.2178C22.3411 25.6985 22.4356 25.2865 22.5047 25.0057C22.5392 24.8654 22.5674 24.7579 22.5868 24.6862C22.5964 24.6504 22.6039 24.6235 22.6088 24.606C22.6113 24.5973 22.6131 24.5909 22.6143 24.5868C22.6148 24.5848 22.6153 24.5834 22.6155 24.5826C22.6156 24.5822 22.6157 24.5819 22.6157 24.5818C22.6157 24.5817 22.6157 24.5818 22.6157 24.5818C22.6157 24.5818 22.6157 24.5819 22.1357 24.4418C21.6558 24.3016 21.6557 24.3018 21.6557 24.302C21.6556 24.3021 21.6555 24.3024 21.6555 24.3027C21.6553 24.3032 21.6551 24.3038 21.6549 24.3046C21.6544 24.3062 21.6538 24.3084 21.653 24.3113C21.6514 24.3169 21.6491 24.3249 21.6462 24.3353C21.6403 24.3561 21.6319 24.3863 21.6213 24.4255C21.6001 24.5041 21.5701 24.6188 21.5337 24.7667C21.4608 25.0625 21.3626 25.4914 21.2594 26.0293C21.053 27.1044 20.826 28.6181 20.7425 30.3768C20.5761 33.8846 20.9785 38.4183 23.3095 42.384L24.1716 41.8773ZM32.2623 49.2351C29.3637 47.6579 26.1801 45.2918 24.1715 41.8772L23.3096 42.3842C25.4459 46.0161 28.8028 48.4911 31.7844 50.1135L32.2623 49.2351Z" fill="white" mask="url(#path-2-outside-1)"/>
</svg>
