<svg width="75" height="75" viewBox="0 0 75 75" fill="none" xmlns="http://www.w3.org/2000/svg">
<circle cx="37.5" cy="37.5" r="37.5" fill="#FF395D"/>
<path fill-rule="evenodd" clip-rule="evenodd" d="M44.2266 14.9749C43.711 14.3233 41.9794 13.3421 39.1774 14.63C35.6748 16.2398 34.3101 18.6929 33.5368 22.4875C32.8797 25.7118 32.8989 30.2645 32.9195 35.158C32.9231 36.0234 32.9268 36.8996 32.9268 37.7809H42.0733C42.0278 36.4394 41.843 32.9591 41.4063 29.7701C40.8604 25.7838 41.2698 24.6339 42.9984 21.6059C43.1086 21.4129 43.2162 21.2257 43.3207 21.044C44.8552 18.3756 45.7171 16.8769 44.2266 14.9749ZM30.7736 60.5869C31.2892 61.2385 33.0208 62.2198 35.8228 60.9319C39.3254 59.3221 40.6901 56.869 41.4634 53.0744C42.1205 49.8501 42.1013 45.2974 42.0807 40.404C42.0771 39.5385 42.0734 38.6623 42.0734 37.781H32.9269C32.9724 39.1225 33.1572 42.6028 33.5939 45.7918C34.1398 49.778 33.7304 50.9279 32.0018 53.9559C31.8916 54.149 31.784 54.3361 31.6795 54.5178C30.145 57.1862 29.2831 58.685 30.7736 60.5869Z" fill="white"/>
<path fill-rule="evenodd" clip-rule="evenodd" d="M51.1809 53.0224C49.5088 53.0995 46.1339 52.1118 46.0105 47.5433C45.8561 41.8327 47.3995 22 51.1809 22V53.0224ZM51.1809 53.0224C52.8529 53.0995 56.2278 52.1118 56.3513 47.5433C56.5056 41.8327 54.9622 22 51.1809 22V53.0224Z" fill="white"/>
<path fill-rule="evenodd" clip-rule="evenodd" d="M24.181 22.004C25.853 21.9268 29.2279 22.9146 29.3513 27.4831C29.5057 33.1937 27.9623 53.0264 24.1809 53.0264L24.181 22.004ZM24.1809 22.004C22.5089 21.9268 19.134 22.9146 19.0106 27.4831C18.8562 33.1937 20.3996 53.0264 24.1809 53.0264L24.1809 22.004Z" fill="white"/>
</svg>
