<svg width="48" height="48" viewBox="0 0 48 48" fill="none" xmlns="http://www.w3.org/2000/svg">
<circle cx="24" cy="24" r="24" fill="url(#paint0_linear)"/>
<path d="M22.7291 11.0222C19.3318 11.0222 17.2693 17.2139 17.2693 19.9366C17.2693 23.0228 19.7184 25.5339 22.7291 25.5339C25.7398 25.5339 28.1889 23.0228 28.1889 19.9365C28.189 17.2139 26.1264 11.0222 22.7291 11.0222Z" fill="white"/>
<path d="M33.7059 35.9365C35.7419 33.9004 33.2673 28.9536 31.6356 27.3218C29.7859 25.4722 26.8132 25.4351 25.0089 27.2394C23.2045 29.0438 23.2416 32.0165 25.0913 33.8661C26.723 35.4979 31.6698 37.9725 33.7059 35.9365Z" fill="white"/>
<path d="M14.0608 34.4875C15.7306 36.1572 19.7874 34.1278 21.1255 32.7896C22.6424 31.2728 22.6728 28.835 21.1931 27.3552C19.7134 25.8755 17.2755 25.9059 15.7587 27.4228C14.4205 28.761 12.3911 32.8178 14.0608 34.4875Z" fill="white"/>
<defs>
<linearGradient id="paint0_linear" x1="48" y1="24" x2="0" y2="24" gradientUnits="userSpaceOnUse">
<stop stop-color="#BA58E1"/>
<stop offset="1" stop-color="#6F49BC"/>
</linearGradient>
</defs>
</svg>
