<svg width="146" height="150" viewBox="0 0 146 150" fill="none" xmlns="http://www.w3.org/2000/svg">
<path d="M39.8029 52.0378C40.8055 46.1033 40.8473 40.0476 42.5131 34.2391C43.9484 29.2491 46.2343 24.9174 51.4638 22.8216C55.7582 21.0741 59.3079 22.8778 62.4129 25.5155C67.6315 29.9031 71.2405 35.6136 74.0762 41.7352C77.2715 48.7075 81.2559 55.1434 85.6948 61.34C91.7559 69.8178 98.5225 77.7488 103.706 86.7941C107.074 92.7286 108.766 99.1723 109.878 105.84C111.187 113.634 110.637 121.363 108.38 128.835C105.615 137.98 99.6816 144.31 90.029 146.145C80.7263 147.897 71.9489 146.155 64.0625 140.711C55.362 134.655 50.1732 125.991 46.0661 116.488C42.6105 108.55 40.6124 100.161 39.2201 91.6781C37.0695 78.4375 37.5458 65.2314 39.8029 52.0378Z" fill="#F4BBB3"/>
<g clip-path="url(#clip0)">
<path d="M86.0894 71.3857C87.9257 69.3951 88.8541 66.7872 89.7954 64.3002C90.9013 61.3786 92.0072 58.4596 93.1131 55.538C93.6558 54.1029 94.1187 52.5958 94.8311 51.2327C95.5641 49.8311 96.5902 48.9129 97.9199 48.0899C98.1359 47.9562 98.0716 47.5318 97.7784 47.5678C97.2126 47.6398 96.7008 47.8327 96.2353 48.1079C96.2173 48.1979 96.1736 48.306 96.0964 48.4345C95.7724 48.9798 95.4252 49.507 95.1063 50.0548C94.6871 50.7801 94.2653 51.5053 93.8847 52.2512C93.288 53.4213 92.7325 54.6121 92.1487 55.7874C91.3077 57.4823 90.7419 59.2774 90.2147 61.0854C89.4714 63.6444 88.5738 66.1417 87.2519 68.4666C86.9253 69.0427 86.5498 69.5957 86.1614 70.1332C85.7397 70.7196 85.179 71.1568 84.536 71.4911C83.6179 71.9695 82.674 72.3604 81.6376 72.4916C81.329 72.5301 81.0306 72.5096 80.7374 72.4478C80.5625 72.5353 80.3979 72.6356 80.2436 72.759C79.9196 73.0214 80.0739 73.5151 80.3671 73.7106C82.0748 74.8551 84.9732 72.5944 86.0894 71.3857Z" fill="#F4BBB3"/>
<path d="M57.0769 72.9348C56.3439 72.5644 55.7473 72.0295 55.2586 71.3711C54.9294 70.9236 54.6388 70.4581 54.379 69.9771C53.2809 68.3749 52.7382 66.3894 52.3884 64.512C52.3499 64.3114 52.3139 64.1082 52.2778 63.9076C52.0798 63.0383 51.9075 62.1639 51.7455 61.2869C51.3546 59.1703 50.8788 57.0742 50.2487 55.0142C50.1586 54.721 50.0558 54.4329 49.9452 54.1526C49.7317 53.6691 49.4925 53.1933 49.2276 52.7304C48.937 52.2649 48.6001 51.8277 48.204 51.4213C47.9829 51.195 47.7694 50.9532 47.4685 50.8066C47.4711 50.8246 47.4736 50.8401 47.4814 50.8581C48.7519 53.7643 49.8963 56.5547 50.3413 59.7206C50.7553 62.6731 50.8993 65.7053 51.9975 68.5086C52.8436 70.669 54.2736 72.7599 56.4082 73.8066C58.4451 74.8045 61.1018 74.9562 62.8918 73.3797C63.2956 73.0248 63.1464 72.5541 62.8095 72.3098C61.7422 72.6493 60.68 72.9991 59.6024 73.3C58.7254 73.5392 57.8767 73.3385 57.0769 72.9348Z" fill="#F4BBB3"/>
<path d="M64.0203 35.2009C64.8124 34.1722 65.5685 33.1152 66.4069 32.125C66.8904 31.5515 67.2891 30.9497 67.6131 30.3196C65.3731 33.5935 62.917 36.6592 59.9902 39.3725C56.67 42.4509 53.0617 45.2002 49.119 47.4352C48.5198 47.7747 48.7538 48.5411 49.2425 48.7468C52.9176 46.8385 56.0321 44.1998 58.9435 41.2808C60.8183 39.4007 62.4103 37.2944 64.0203 35.2009Z" fill="#F4BBB3"/>
<path d="M73.159 29.2903C74.036 30.733 75.1213 32.0035 76.3918 33.1197C79.2697 35.6478 82.1193 38.2042 84.9997 40.7272C86.3345 41.8948 87.7207 43.0033 89.3127 43.8108C89.8039 44.0603 90.3157 44.2892 90.8404 44.4512C92.0646 44.8267 93.3016 45.1585 94.5361 45.5005C94.7187 45.552 94.9116 45.5571 95.0968 45.5957C95.2588 45.6291 95.4337 45.7166 95.408 45.894C95.3951 45.9815 95.336 46.0921 95.2614 46.1666C95.6806 46.02 95.8041 45.2871 95.3514 45.0787C93.1113 44.0474 90.8301 43.2707 88.6929 41.9951C86.494 40.6809 84.4082 39.2201 82.3739 37.6667C78.2435 34.5136 73.4676 31.16 71.8859 25.934C71.8113 25.6845 71.4564 25.79 71.5027 26.0395C71.531 26.1989 71.5644 26.3584 71.6004 26.5152C71.7624 26.7879 71.9245 27.063 72.0813 27.3408C72.444 27.9863 72.7732 28.655 73.159 29.2903Z" fill="#F4BBB3"/>
<path d="M68.6092 78.759C68.9306 76.3569 68.334 74.3226 66.8269 72.6534C66.8294 72.674 66.8346 72.692 66.8372 72.7126C66.8089 72.6637 66.778 72.6174 66.7497 72.5711C66.4591 72.2574 66.1402 71.9565 65.7853 71.6684C65.4818 71.4241 65.1655 71.1926 64.8466 70.9663C66.1093 72.5943 67.0892 74.41 67.5264 76.4649C67.853 78.0029 67.8556 79.6 67.565 81.1431C67.3412 82.321 66.6546 83.4835 66.5337 84.6614C66.8012 84.0133 67.0918 83.3755 67.3721 82.7325C67.9302 81.4517 68.4214 80.1529 68.6092 78.759Z" fill="#F4BBB3"/>
<path d="M69.6459 78.5999C69.6356 78.6976 69.6202 78.7953 69.6073 78.8931C69.8028 78.3401 69.777 77.7229 69.6999 77.1211C69.7153 77.5994 69.6999 78.0907 69.6459 78.5999Z" fill="#F4BBB3"/>
<path d="M68.6502 73.1856C68.6322 73.1496 68.6116 73.1187 68.5885 73.0981C68.6194 73.1496 68.6502 73.2036 68.6785 73.2551C68.6682 73.2345 68.6605 73.2088 68.6502 73.1856Z" fill="#F4BBB3"/>
<path d="M57.3447 104.896C57.0592 103.322 56.694 101.763 56.2491 100.225C55.817 98.7311 55.2898 97.2728 54.688 95.8455C54.3048 94.575 53.865 93.3379 53.3583 92.1137C52.2627 88.3485 50.9691 84.6271 49.3643 81.0754C49.354 81.0497 49.336 81.0342 49.318 81.0188C49.9507 82.8319 50.447 84.6965 50.9305 86.5585C52.1676 91.3036 53.6773 95.9715 54.8937 100.719C55.5727 103.366 56.0536 106.066 56.586 108.748C56.9152 110.41 57.157 112.084 57.2753 113.776C57.3061 114.229 57.3293 114.684 57.355 115.137C57.3807 115.132 57.4064 115.121 57.4296 115.111C57.4399 115.708 57.445 116.302 57.4373 116.899C57.4373 116.927 57.4347 116.955 57.4347 116.983C57.4939 118.714 57.5041 120.445 57.4527 122.176C57.3961 124.041 57.2212 125.892 56.8638 127.721C57.8205 124.277 58.3477 120.713 58.4557 117.14C58.5226 114.898 58.4429 112.66 58.214 110.428C58.0262 108.612 57.8411 106.681 57.3447 104.896ZM56.2954 103.726C56.2877 103.61 56.2774 103.494 56.2671 103.378C56.2902 103.484 56.3108 103.589 56.334 103.695C56.3185 103.705 56.3082 103.715 56.2954 103.726Z" fill="#F4BBB3"/>
<path d="M87.3777 121.121C87.4574 121.53 87.5423 121.936 87.6349 122.343C87.64 122.353 87.6477 122.363 87.6529 122.371C87.4909 121.489 87.3237 120.607 87.1642 119.725C87.1591 119.735 87.1539 119.745 87.1488 119.758C87.2157 120.213 87.2903 120.668 87.3777 121.121Z" fill="#F4BBB3"/>
<path d="M86.9562 122.675C86.4959 120.927 86.1538 119.149 85.9789 117.339C85.678 114.219 85.5263 111.089 85.7346 107.952C86.0123 103.79 86.5936 99.6729 87.558 95.6171C88.2164 92.8473 89.0188 90.116 89.9164 87.4104C90.2045 86.5386 90.3819 85.6307 90.6134 84.7383C88.9031 87.5364 87.7946 90.7898 86.8739 93.9094C85.8683 97.3171 85.1894 100.846 84.8499 104.385C84.5078 107.934 84.477 111.514 84.7676 115.071C85.0479 118.504 85.4748 122.243 86.753 125.476C86.8225 124.784 86.8379 124.087 86.8868 123.393C86.9022 123.151 86.9279 122.915 86.9562 122.675Z" fill="#F4BBB3"/>
<path d="M87.754 125.351C87.7488 125.572 87.7463 125.791 87.7668 126.007C87.772 126.058 87.7771 126.11 87.7823 126.161C87.8517 126.128 87.9185 126.082 87.9751 126.025C87.9725 126.015 87.97 126.002 87.9674 125.989C87.8954 125.781 87.826 125.567 87.754 125.351Z" fill="#F4BBB3"/>
<path d="M73.698 97.6827C73.536 97.4615 73.3997 97.23 73.2865 96.9934C73.6646 97.9759 74.3692 98.7731 75.4906 98.8966C75.5806 98.9069 75.6629 98.8914 75.7349 98.8632C75.4751 98.7963 75.2154 98.7243 74.9608 98.6471C74.4335 98.4851 74.0246 98.1276 73.698 97.6827Z" fill="#F4BBB3"/>
<path d="M73.7393 94.0044C73.6261 94.776 73.6184 95.5501 73.8782 96.3037C74.1611 97.1241 74.6677 97.7362 75.4959 98.0551C75.7042 98.1348 75.9125 98.212 76.1183 98.2917C76.1311 98.1117 76.0797 97.9291 75.9434 97.8005C75.3879 97.2835 74.858 96.9595 74.5803 96.2137C74.2845 95.4215 74.2768 94.5548 74.3565 93.7215C74.5108 92.1064 75.0998 90.2187 75.964 88.8402C75.9948 88.7913 75.9923 88.7425 75.9743 88.6987C75.7736 89.0279 75.573 89.3545 75.3724 89.6837C74.5623 91.0237 73.9682 92.4485 73.7393 94.0044Z" fill="#F4BBB3"/>
<path d="M78.2075 67.3069C78.1149 67.402 78.0249 67.4972 77.9297 67.5898C77.4797 68.0347 77.0399 68.4925 76.6232 68.9657C75.6897 70.0227 75.1444 71.2752 74.8461 72.6434C74.6738 73.4356 74.7124 74.2251 74.9875 74.9838C75.1907 75.5445 75.4093 76.1025 75.6511 76.6503C75.6948 76.6221 75.7334 76.586 75.7617 76.5372C76.1217 75.9482 75.8774 75.457 75.8054 74.7909C75.7051 73.8728 75.7282 72.9546 75.9186 72.0468C76.2915 70.2799 77.1093 68.7265 78.2075 67.3069Z" fill="#F4BBB3"/>
<path d="M77.3866 103.682C76.8774 103.471 76.3424 103.311 75.8049 103.191C74.8816 102.98 73.9429 102.833 73.017 102.63C71.1473 102.221 69.5682 101.341 68.3903 99.7854C66.9578 97.8926 66.3045 95.7245 66.0936 93.397C65.893 91.1929 66.1991 89.0429 66.8163 86.9262C67.2252 85.5246 67.8373 84.2027 68.4134 82.8679C68.9664 81.5871 69.419 80.278 69.6042 78.8918C69.6171 78.7941 69.6325 78.6963 69.6428 78.5986C69.6968 78.092 69.7122 77.6007 69.6968 77.1198C69.6531 75.713 69.3187 74.4245 68.6758 73.2595C68.6475 73.2055 68.6166 73.154 68.5857 73.1026C68.0585 72.1922 67.341 71.3589 66.428 70.6053C66.1116 70.343 65.7824 70.0936 65.443 69.8621C63.4832 68.5299 61.881 66.8299 60.4562 64.955C60.1218 64.5152 59.8183 64.0472 59.5483 63.5662C58.445 61.5988 57.8869 59.4693 57.7814 57.2241C57.6811 55.0843 57.9409 52.9882 58.7176 50.9796C59.5894 48.7241 61.0631 46.9058 62.8994 45.3705C64.5943 43.9534 66.482 42.8886 68.6295 42.3125C68.7298 42.2843 68.8249 42.2302 69.005 42.1531C68.8326 42.1119 68.7452 42.0656 68.6603 42.0734C68.236 42.1094 67.8013 42.1119 67.3924 42.2122C63.1103 43.2693 59.1651 46.8364 57.6271 51.0414C56.6807 53.6338 56.4492 56.3136 56.8144 59.0372C57.1102 61.2439 57.7994 63.3322 59.0699 65.1762C60.451 67.1797 62.043 68.9979 64.0516 70.4099C64.3139 70.5951 64.5788 70.7777 64.8411 70.9628C65.1601 71.1892 65.4764 71.418 65.7799 71.6649C66.1348 71.953 66.4537 72.2539 66.7443 72.5677C66.77 72.596 66.7957 72.6217 66.8215 72.65C68.326 74.3191 68.9252 76.356 68.6038 78.7555C68.416 80.152 67.9274 81.4508 67.3693 82.729C67.0889 83.372 66.7983 84.0098 66.5308 84.6579C66.4614 84.8276 66.392 84.9999 66.3251 85.1722C65.1421 88.2507 64.602 91.4192 65.142 94.7112C65.4892 96.8355 66.2222 98.803 67.5776 100.508C68.6423 101.848 69.9668 102.81 71.6128 103.291C72.4152 103.525 73.2356 103.715 74.0561 103.87C75.1131 104.068 76.1778 104.212 77.1834 104.628C78.2379 105.065 79.0043 105.816 79.5444 106.804C79.9636 107.565 80.105 108.378 79.8633 109.234C79.7784 109.538 79.6961 109.844 79.619 110.15C79.5212 110.549 79.4235 110.95 79.3412 111.351C79.3 111.552 79.2615 111.76 79.5135 111.994C79.6112 111.889 79.7141 111.814 79.763 111.716C80.2362 110.726 80.6323 109.708 80.73 108.607C80.7634 108.221 80.7454 107.807 80.6477 107.434C80.1848 105.654 79.0943 104.384 77.3866 103.682Z" fill="black"/>
<path d="M57.4338 116.985C57.4132 116.37 57.3875 115.755 57.3515 115.141C57.3258 114.688 57.3027 114.233 57.2718 113.78C57.1535 112.088 56.9117 110.411 56.5825 108.752C56.0527 106.07 55.5692 103.37 54.8903 100.723C53.6738 95.9755 52.1641 91.3076 50.9271 86.5625C50.441 84.7031 49.9472 82.8359 49.3145 81.0228C49.2811 80.9276 49.2502 80.8325 49.2168 80.7373C48.4658 78.6413 47.5271 76.6121 46.6655 74.5546C45.8914 72.7003 45.017 70.8846 44.3586 68.9892C43.2733 65.867 42.4786 62.6547 41.7713 59.4219C41.6787 58.9924 41.581 58.5629 41.4884 58.1334C41.437 58.1334 41.3855 58.1334 41.3341 58.1334C41.2981 58.3237 41.2235 58.5166 41.2286 58.707C41.2544 59.4656 41.2646 60.2269 41.3572 60.9779C41.4884 62.0349 41.6916 63.0817 41.9205 64.1207C41.8767 64.0332 41.833 63.9432 41.7893 63.8558C40.9689 62.1429 39.9324 60.5818 38.5231 59.2959C36.7536 57.6834 35.3211 55.8059 34.0635 53.7819C33.9889 53.661 33.9092 53.5376 33.8012 53.4475C33.5543 53.2392 33.2456 53.3678 33.2199 53.6893C33.2071 53.8436 33.2328 54.0056 33.2662 54.1599C33.3768 54.6846 33.4925 55.2093 33.6134 55.7339C34.0429 57.6242 34.655 59.4476 35.6272 61.1322C36.4399 62.5416 37.4223 63.8301 38.8163 64.7122C39.8553 65.3706 40.9535 65.939 42.0413 66.5176C42.2008 66.6025 42.3705 66.6745 42.5454 66.7414C42.5609 66.8031 42.5763 66.8623 42.5891 66.924C42.9492 68.4002 43.3761 69.8559 43.9599 71.2627C44.6569 72.9421 45.3127 74.6395 46.0406 76.3061C47.2879 79.1634 48.3604 82.0824 49.1473 85.0966C48.8413 84.5848 48.5378 84.073 48.2266 83.5664C47.3651 82.1673 46.1434 81.2054 44.6209 80.6113C44.0165 80.3747 43.4044 80.1638 42.8026 79.9195C42.3808 79.7497 41.9719 79.5491 41.5501 79.3588C41.617 79.1171 41.6736 78.9216 41.725 78.7262C41.9873 77.7026 41.9153 76.715 41.3727 75.7891C40.8789 74.9455 40.2359 74.2306 39.4284 73.6725C39.2483 73.549 39.0477 73.4359 38.8394 73.3793C38.3585 73.2481 37.9444 73.5387 37.8878 74.0351C37.8672 74.2203 37.8981 74.4132 37.9238 74.5983C37.9444 74.7501 37.9958 74.8993 38.0601 75.1616C37.6589 74.9481 37.3606 74.7707 37.0468 74.6318C36.8051 74.5238 36.5453 74.4235 36.2856 74.3875C35.7815 74.318 35.5037 74.6241 35.5706 75.123C35.586 75.2413 35.6092 75.357 35.6297 75.4856C35.3726 75.4728 35.154 75.4419 34.9353 75.4573C34.5933 75.4805 34.3747 75.6991 34.367 76.0386C34.3618 76.2392 34.3901 76.4578 34.475 76.6352C34.6267 76.9619 34.8093 77.2834 35.0176 77.5791C35.9306 78.8702 37.196 79.724 38.5925 80.3978C38.8883 80.5393 39.2149 80.6319 39.5389 80.6962C40.2693 80.8428 40.5111 80.7168 40.8943 80.0609C40.9174 80.0198 40.9483 79.9838 40.974 79.9503C41.0126 79.9529 41.0486 79.9452 41.0718 79.9581C41.9796 80.5213 42.9904 80.8531 43.9908 81.1977C45.6368 81.7661 46.9304 82.7768 47.8717 84.2427C48.1443 84.6697 48.4504 85.0734 48.7384 85.4901C48.7821 85.5544 48.8181 85.6238 48.903 85.7704C48.7513 85.6958 48.6921 85.6727 48.6407 85.6418C47.2673 84.8008 45.7937 84.3662 44.1683 84.4974C43.8108 84.5257 43.4353 84.4948 43.0855 84.4176C41.6376 84.0987 40.4288 83.34 39.3769 82.3164C38.9346 81.8869 38.5359 81.4137 38.1167 80.9611C37.9547 80.7862 37.8004 80.6062 37.6255 80.4441C37.394 80.2281 37.2089 80.1947 37.0314 80.3155C36.8102 80.4673 36.8128 80.6833 36.8797 80.9096C36.9337 81.0922 36.9877 81.2748 37.0597 81.4497C37.4892 82.5042 37.9135 83.5612 38.361 84.6079C38.9063 85.8759 39.5595 87.0846 40.4211 88.1725C41.1849 89.137 42.1314 89.8596 43.263 90.3329C44.1631 90.7084 45.0993 90.9244 46.0868 90.8035C47.8151 90.5926 49.1319 89.7825 49.9523 88.2497C50.2275 89.2475 50.5387 90.2351 50.9296 91.1996C51.0711 91.5493 51.1611 91.9223 51.2691 92.2849C51.3823 92.6604 51.4929 93.0384 51.6034 93.4165C51.534 93.4319 51.4569 93.4525 51.372 93.4834C51.2254 93.5399 51.0839 93.6145 50.9425 93.684C50.3741 93.9566 49.8083 94.2215 49.1731 94.3424C47.7765 94.6021 46.6141 95.3068 45.6291 96.3252C44.1477 97.8529 43.2295 99.6866 42.638 101.703C42.1108 103.498 41.959 105.322 42.4631 107.137C42.9415 108.858 43.5099 110.553 44.0397 112.26C44.0628 112.335 44.0937 112.41 44.1323 112.476C44.23 112.644 44.374 112.736 44.5669 112.664C44.7546 112.595 44.8266 112.438 44.7958 112.245C44.7752 112.121 44.7263 112.001 44.7006 111.877C44.5797 111.273 44.4409 110.671 44.3534 110.064C44.2068 109.043 44.4872 108.081 44.8627 107.15C45.503 105.561 46.002 103.93 46.344 102.253C46.6141 100.926 47.2519 99.7998 48.2575 98.8868C48.5738 98.5988 48.8927 98.3159 49.2065 98.0252C50.1915 97.1199 51.0248 96.0835 51.732 94.9545C51.8041 94.8387 51.8761 94.7256 51.9532 94.6227C52.4059 96.1812 52.8662 97.7398 53.4449 99.2597C53.6301 99.7458 53.8178 100.24 53.9335 100.746C54.2859 102.287 54.6228 103.832 54.934 105.383C55.6027 108.734 56.2225 112.093 56.4334 115.516C56.6494 119.027 56.8037 122.532 56.4076 126.04C56.3819 126.261 56.3562 126.485 56.3279 126.706C56.1813 127.2 55.9087 127.635 55.5821 128.069C54.2524 129.836 52.8045 131.482 51.0402 132.827C50.1478 133.509 49.2348 134.165 48.3372 134.841C46.3672 136.328 44.3843 137.801 42.44 139.319C41.8073 139.812 41.2569 140.412 40.6963 140.99C40.4905 141.201 40.3336 141.474 40.2102 141.744C39.9864 142.238 40.1382 142.696 40.5908 142.976C40.7503 143.074 40.9329 143.143 41.1129 143.194C41.7096 143.362 42.3062 143.29 42.8926 143.133C44.6106 142.675 46.1614 141.862 47.6274 140.882C49.8829 139.378 51.696 137.428 53.2597 135.229C53.3574 135.091 53.4552 134.952 53.5529 134.815C53.576 134.826 53.6018 134.836 53.6249 134.849C53.5812 134.995 53.5375 135.145 53.4938 135.291C53.3086 135.929 53.1105 136.564 52.9382 137.205C52.429 139.09 52.0741 141.001 52.0767 142.96C52.0767 143.462 52.1307 143.976 52.2541 144.462C52.4239 145.144 52.9922 145.278 53.4552 144.756C53.7226 144.452 53.9335 144.087 54.1059 143.717C54.5688 142.721 54.8363 141.662 55.0754 140.597C55.4766 138.804 55.7698 136.994 55.9499 135.165C56.1402 133.244 56.3536 131.325 56.5568 129.407C56.5774 129.224 56.598 129.042 56.616 128.862C56.706 128.484 56.7883 128.103 56.8629 127.72C57.2204 125.891 57.3952 124.039 57.4518 122.175C57.5058 120.447 57.493 118.716 57.4338 116.985ZM41.4318 65.0465C40.9715 64.6402 40.5111 64.2467 40.0636 63.8378C39.6084 63.4211 39.1557 63.0019 38.7262 62.5596C38.2967 62.1198 37.9007 61.6466 37.4815 61.1939C37.0725 60.7541 36.8642 60.1446 36.3319 59.7408C36.1981 60.034 36.3293 60.2295 36.4167 60.4147C36.7588 61.1322 37.1677 61.8086 37.7232 62.3821C38.4048 63.0842 39.1043 63.7735 39.7987 64.4653C39.8501 64.5167 39.9041 64.5656 39.935 64.6428C39.4232 64.419 38.9706 64.1104 38.5591 63.7503C37.4095 62.7499 36.535 61.5385 35.8483 60.1858C35.1514 58.8124 34.6602 57.3619 34.3052 55.8651C34.2872 55.7931 34.2924 55.7133 34.277 55.5384C34.4158 55.7313 34.5033 55.8368 34.5753 55.9525C35.3443 57.1793 36.2727 58.2749 37.3117 59.2805C37.5843 59.5454 37.8467 59.818 38.1296 60.0726C39.5827 61.3945 40.5934 63.0276 41.437 64.7765C41.4652 64.8331 41.4807 64.8948 41.4987 64.954C41.4961 64.9668 41.4755 64.9822 41.4318 65.0465ZM41.0949 78.2504C41.0795 78.3584 41.046 78.469 40.9972 78.5641C40.7914 78.9679 40.5754 79.3691 40.3619 79.7703C40.1922 80.0892 40.1125 80.1329 39.7575 80.0532C39.5569 80.0069 39.3589 79.9529 39.1712 79.8732C37.7232 79.2559 36.4553 78.3918 35.4909 77.1239C35.2543 76.8127 35.0331 76.4912 34.9379 76.0694C35.0948 76.0694 35.2054 76.0514 35.3057 76.0746C35.442 76.108 35.5732 76.1723 35.7043 76.2237C35.9409 76.3163 36.1904 76.4552 36.4013 76.2109C36.6045 75.982 36.4733 75.7351 36.3704 75.5011C36.3087 75.3596 36.2496 75.213 36.1493 74.9661C36.3859 75.0484 36.5479 75.0844 36.6919 75.1616C37.0828 75.3699 37.4635 75.5962 37.8492 75.8097C38.0859 75.9409 38.3379 76.0977 38.6002 75.9126C38.8728 75.7222 38.8548 75.4239 38.7931 75.1359C38.7417 74.889 38.6697 74.6446 38.6156 74.3977C38.5925 74.2974 38.5951 74.1894 38.5771 73.9837C38.7802 74.0994 38.9166 74.1611 39.0349 74.2486C39.7293 74.7655 40.2925 75.4008 40.7348 76.144C41.1206 76.8024 41.2081 77.5097 41.0949 78.2504ZM50.7059 95.2682C50.0218 96.2044 49.2425 97.0531 48.3501 97.7963C48.2292 97.8966 48.1109 98.0047 47.99 98.105C46.7298 99.1594 45.9274 100.489 45.5982 102.096C45.2639 103.727 44.7855 105.314 44.1785 106.862C43.9728 107.389 43.8339 107.942 43.6642 108.485C42.7615 106.929 42.7152 103.799 43.5587 101.261C44.3406 98.9099 45.5828 96.8988 47.6994 95.5331C47.7277 95.5563 47.756 95.582 47.7843 95.6051C47.648 95.7209 47.5116 95.8417 47.3728 95.9549C46.735 96.4718 46.2283 97.0891 45.8888 97.8401C45.4696 98.7608 45.0478 99.6815 44.6466 100.607C44.5386 100.857 44.4357 101.127 44.5386 101.446C44.8009 101.348 44.8627 101.127 44.9604 100.939C45.3925 100.096 45.8219 99.2494 46.2514 98.4033C46.6887 97.5392 47.293 96.8165 48.0877 96.2635C48.8001 95.7672 49.528 95.2914 50.2532 94.8156C50.5181 94.6407 50.8165 94.5507 51.2074 94.5815C51.0171 94.8387 50.8628 95.0548 50.7059 95.2682ZM45.0941 87.4755C45.251 87.5964 45.4542 87.6787 45.6471 87.725C46.7812 87.9951 47.9206 88.1288 49.065 87.7765C49.1396 87.7533 49.2193 87.743 49.2965 87.7302C49.3274 87.725 49.3582 87.7353 49.4611 87.7482C49.0779 88.3988 48.6458 88.9569 48.0054 89.317C46.6938 90.0577 45.3282 90.1091 43.9368 89.5819C42.8669 89.1755 41.959 88.53 41.2261 87.6479C40.5034 86.7786 39.9247 85.8167 39.4258 84.8086C39.0889 84.1296 38.7828 83.4326 38.4665 82.7434C38.4228 82.6482 38.4022 82.5453 38.3713 82.445C38.3996 82.4219 38.4305 82.4013 38.4588 82.3782C38.5668 82.5119 38.6645 82.6559 38.7828 82.7794C39.6701 83.7027 40.7014 84.4202 41.8947 84.9011C42.5506 85.166 43.2218 85.3126 43.9291 85.2818C44.3406 85.2638 44.7521 85.2612 45.161 85.2406C45.8682 85.2072 46.5575 85.3178 47.1953 85.611C47.8974 85.9324 48.5764 86.3054 49.2605 86.6654C49.3788 86.7271 49.4817 86.83 49.6103 86.9329C49.6128 86.9432 49.6154 86.9535 49.618 86.9663C48.2626 87.3907 45.8065 87.3264 45.1996 86.8712C44.8832 87.0718 44.8344 87.2775 45.0941 87.4755ZM46.9021 140.468C45.5673 141.356 44.14 142.071 42.5763 142.469C42.1622 142.575 41.7379 142.641 41.3109 142.541C41.2029 142.515 41.0949 142.49 40.9972 142.441C40.7529 142.315 40.686 142.176 40.8326 141.945C41.0229 141.638 41.2312 141.325 41.4935 141.086C42.2291 140.417 42.9672 139.74 43.7593 139.141C45.8142 137.588 47.8974 136.07 49.9755 134.545C51.4671 133.447 52.9434 132.331 54.165 130.922C54.6305 130.384 55.0754 129.831 55.5281 129.286C55.5564 129.294 55.5872 129.301 55.6155 129.309C55.348 129.98 55.1269 130.672 54.808 131.318C52.964 135.047 50.387 138.154 46.9021 140.468ZM54.9648 137.914C54.7179 139.571 54.4042 141.217 53.8461 142.804C53.7098 143.189 53.5452 143.567 53.3677 143.935C53.2751 144.125 53.1208 144.285 52.9331 144.542C52.7325 144.087 52.7145 143.727 52.7093 143.367C52.6939 142.256 52.8276 141.158 53.0334 140.07C53.5298 137.431 54.3656 134.887 55.2555 132.364C55.4586 132.056 55.6361 131.737 55.7878 131.408C55.7364 131.853 55.6875 132.298 55.631 132.742C55.4149 134.466 55.222 136.194 54.9648 137.914Z" fill="black"/>
<path d="M74.8464 72.6428C75.1448 71.2746 75.69 70.0221 76.6236 68.9651C77.0428 68.4919 77.48 68.0341 77.9301 67.5892C78.0252 67.4966 78.1152 67.4014 78.2078 67.3063C80.0698 65.3722 81.3223 63.0936 82.0707 60.4986C82.6571 58.4669 82.8037 56.4377 82.4333 54.3545C81.7184 50.3399 79.8332 46.9913 76.8062 44.2729C76.4281 43.9334 76.0243 43.6376 75.4843 43.5425C75.7852 43.7945 76.1169 44.0157 76.3793 44.3037C77.3128 45.3376 78.231 46.3844 78.9845 47.5623C80.345 49.6866 81.1577 52.0167 81.5641 54.4959C81.8213 56.057 81.8727 57.6233 81.4483 59.1587C81.1551 60.2234 80.7719 61.265 80.3887 62.3015C80.0621 63.181 79.5632 63.9732 78.9974 64.7216C78.2104 65.7606 77.3051 66.689 76.3664 67.584C75.1191 68.7722 74.3089 70.2099 73.8511 71.8661C73.5117 73.0955 73.5065 74.3094 73.9437 75.5053C74.2266 76.2768 74.543 77.0381 74.885 77.7839C75.6206 79.3965 76.0912 81.0785 76.3098 82.835C76.5181 84.5144 76.3047 86.1193 75.4122 87.5929C75.1988 87.9453 74.993 88.3028 74.795 88.6628C74.5044 89.19 74.2009 89.7096 73.9463 90.2522C73.2313 91.7902 72.7813 93.395 72.8404 95.1104C72.8636 95.7791 73.0076 96.4066 73.2905 96.9904C73.4062 97.227 73.5399 97.4585 73.702 97.6797C74.0286 98.1246 74.4349 98.4821 74.9647 98.6441C75.2219 98.7213 75.4791 98.7933 75.7389 98.8602C76.1658 98.9707 76.5979 99.0736 77.0274 99.1765C77.0968 99.1919 77.2305 99.1405 77.2562 99.0839C77.2871 99.0196 77.264 98.8782 77.21 98.8319C77.0839 98.7187 76.9348 98.6158 76.7779 98.5515C76.5593 98.459 76.3407 98.3741 76.1195 98.2892C75.9112 98.2095 75.7029 98.1323 75.4971 98.0526C74.669 97.7363 74.1623 97.1216 73.8794 96.3012C73.6197 95.5476 73.6274 94.7709 73.7405 94.002C73.9694 92.446 74.5635 91.0212 75.3737 89.6813C75.5743 89.3521 75.7749 89.0254 75.9755 88.6963C76.1041 88.4854 76.2327 88.2719 76.3638 88.061C77.3951 86.3996 77.6729 84.5916 77.4414 82.6782C77.2022 80.7158 76.6724 78.8384 75.8315 77.0458C75.7697 76.9147 75.7106 76.7809 75.6514 76.6498C75.4097 76.1045 75.1911 75.5464 74.9879 74.9832C74.7153 74.2245 74.6741 73.435 74.8464 72.6428Z" fill="black"/>
<path d="M70.4608 12.7161C70.6897 13.4208 70.9238 14.1255 71.1681 14.8276C71.595 16.0518 72.0657 17.2606 72.4566 18.4976C72.9607 20.0973 73.3953 21.715 73.8711 23.325C74.1874 24.3923 74.761 25.3079 75.5402 26.1026C76.6333 27.2162 77.8549 28.1703 79.2051 28.947C81.3577 30.1866 83.5258 31.398 85.6862 32.6196C87.8748 33.8567 90.0711 35.086 92.2546 36.3333C94.1218 37.4007 95.9812 38.4834 97.833 39.579C98.9929 40.2657 100.07 41.0681 101.099 41.9425C102.048 42.7501 102.712 43.712 102.956 44.949C103.026 45.3039 103.136 45.6537 103.249 45.9983C103.332 46.2529 103.437 46.5024 103.555 46.7442C103.645 46.9293 103.761 47.1042 104.101 47.1454C104.101 46.9525 104.126 46.7853 104.095 46.631C103.949 45.8389 103.774 45.0519 103.64 44.2572C103.542 43.6837 103.37 43.1436 103.028 42.6781C102.663 42.1843 102.28 41.6956 101.845 41.261C100.809 40.2271 99.6255 39.3707 98.3628 38.6403C94.4458 36.3771 90.5315 34.1087 86.5837 31.8995C84.3051 30.6239 82.0213 29.3662 79.8018 27.9877C78.5056 27.1827 77.2994 26.2672 76.2603 25.1433C75.7254 24.5646 75.3165 23.9139 75.0644 23.1681C74.8818 22.628 74.7095 22.0853 74.5449 21.5401C73.9251 19.5135 73.3799 17.4637 72.4823 15.5323C71.9165 14.3132 71.3558 13.0942 70.7772 11.8803C70.6563 11.6257 70.4814 11.3942 70.3168 11.1653C70.2602 11.0881 70.1522 11.0521 69.967 10.9338C70.0288 11.1885 70.0596 11.3376 70.1033 11.4842C70.2165 11.8983 70.3297 12.3098 70.4608 12.7161Z" fill="black"/>
<path d="M86.664 43.6286C88.9324 45.3697 91.5376 46.2004 94.3667 46.3676C94.6264 46.383 94.9042 46.329 95.1537 46.2441C95.1922 46.2313 95.2282 46.2004 95.2617 46.1644C95.3337 46.0898 95.3954 45.9818 95.4083 45.8918C95.434 45.7143 95.2591 45.6269 95.0971 45.5934C94.9119 45.5549 94.719 45.5471 94.5364 45.4983C93.3019 45.1562 92.0649 44.8245 90.8407 44.449C90.316 44.2869 89.8042 44.0606 89.313 43.8086C87.721 42.9985 86.3322 41.8926 85 40.725C82.1195 38.202 79.2674 35.6456 76.3921 33.1175C75.119 32.0013 74.0362 30.7308 73.1592 29.288C72.7735 28.6527 72.4443 27.9841 72.0791 27.3385C71.9222 27.0608 71.7627 26.7882 71.5981 26.513C71.485 26.3252 71.3718 26.1375 71.2587 25.9497C71.1712 25.8083 71.0426 25.6926 70.932 25.564C70.9037 25.5768 70.878 25.5923 70.8497 25.6051C70.8883 25.7517 70.9166 25.9009 70.9655 26.0423C71.2149 26.7599 71.4464 27.4851 71.7319 28.1872C71.9942 28.8302 72.2977 29.4577 72.6192 30.0724C73.4781 31.7235 74.7075 33.0814 76.0757 34.3211C78.5704 36.5869 81.0497 38.8707 83.5649 41.1159C84.5602 42.0006 85.6121 42.8184 86.664 43.6286Z" fill="black"/>
<path d="M68.707 26.1188C68.6222 27.6259 68.2775 29.0301 67.614 30.3186C67.29 30.9487 66.8913 31.5505 66.4078 32.1241C65.572 33.1142 64.8133 34.1712 64.0212 35.2C62.4086 37.2935 60.8192 39.4024 58.9443 41.2798C56.033 44.1988 52.9185 46.8375 49.2434 48.7459C49.1302 48.805 49.017 48.8642 48.9039 48.9233C48.5953 49.0776 48.3047 49.2757 48.0192 49.4737C47.9009 49.556 47.816 49.6846 47.7157 49.7926C47.7388 49.8389 47.762 49.8852 47.7877 49.934C47.9703 49.916 48.1581 49.9238 48.3304 49.8749C48.6056 49.8003 48.873 49.7026 49.1354 49.5971C50.9639 48.8564 52.6639 47.9049 54.2353 46.7012C57.1595 44.456 59.8728 41.9845 62.19 39.1169C64.07 36.792 65.8394 34.377 67.6346 31.9852C68.4421 30.9102 68.9437 29.6834 69.2394 28.3692C69.6381 26.6075 69.6329 24.82 69.5866 23.03C69.5738 22.508 69.5455 21.9859 69.5069 21.4664C69.4889 21.2298 69.4632 20.9829 69.2497 20.772C68.9848 21.1809 68.9745 21.5924 68.9488 21.9987C68.8639 23.3695 68.7842 24.7455 68.707 26.1188Z" fill="black"/>
<path d="M62.954 71.5722C62.5296 71.5876 62.0976 71.5799 61.6835 71.6622C61.0483 71.7882 60.4285 71.9811 59.8035 72.1509C59.2686 72.2975 58.7413 72.2872 58.2141 72.12C57.4014 71.8603 56.7327 71.3793 56.2724 70.6721C55.8017 69.9442 55.3336 69.1984 54.9916 68.4063C54.5415 67.3647 54.1454 66.2871 53.8574 65.1889C53.4125 63.494 53.0807 61.7683 52.6975 60.0555C52.2654 58.1266 51.7974 56.2054 51.0952 54.3511C50.5732 52.9701 49.7553 51.8076 48.5697 50.9229C48.3099 50.73 47.9987 50.5937 47.6953 50.4702C47.523 50.4008 47.3198 50.4137 47.1835 50.6991C47.2889 50.7249 47.3815 50.7609 47.4689 50.802C47.7724 50.9512 47.9833 51.1904 48.2045 51.4167C48.6006 51.823 48.9375 52.2602 49.2281 52.7257C49.5084 53.1758 49.745 53.6516 49.9456 54.148C50.0588 54.4283 50.1591 54.7163 50.2491 55.0095C50.8766 57.0696 51.355 59.1656 51.7459 61.2823C51.9079 62.1593 52.0803 63.0337 52.2783 63.903C52.5252 64.9909 52.8107 66.0685 53.1681 67.1306C53.4999 68.1156 53.8857 69.0698 54.3769 69.9751C54.6367 70.456 54.9273 70.9215 55.2565 71.369C55.7451 72.03 56.3392 72.5649 57.0748 72.9327C57.8746 73.3365 58.7233 73.5371 59.6003 73.2928C60.6779 72.9919 61.7401 72.6421 62.8074 72.3026C62.8846 72.2769 62.9617 72.2537 63.0414 72.228C63.2318 72.1689 63.3964 72.0506 63.3552 71.8191C63.3218 71.6056 63.134 71.5671 62.954 71.5722Z" fill="black"/>
<path d="M81.6409 72.4938C82.6773 72.3626 83.6238 71.9717 84.5394 71.4934C85.1823 71.159 85.743 70.7218 86.1648 70.1354C86.5531 69.5979 86.9286 69.045 87.2552 68.4689C88.5771 66.1439 89.4747 63.6467 90.218 61.0877C90.7426 59.2797 91.311 57.4846 92.152 55.7897C92.7358 54.6144 93.2913 53.4236 93.888 52.2534C94.2686 51.5076 94.6904 50.7824 95.1096 50.0571C95.4259 49.5093 95.7757 48.9795 96.0998 48.4368C96.1743 48.3082 96.2206 48.2028 96.2386 48.1102C96.2669 47.9688 96.2258 47.8659 96.128 47.7939C95.966 47.6756 95.7603 47.7219 95.516 47.9996C94.6904 48.9383 93.8314 49.8565 93.263 50.9855C92.3603 52.7807 91.4576 54.5758 90.6089 56.3967C89.773 58.1944 89.2767 60.1181 88.7134 62.0136C88.0962 64.0839 87.2912 66.0745 86.2471 67.9648C85.941 68.5177 85.5989 69.0553 85.2132 69.5516C84.9457 69.8962 84.6114 70.2126 84.2436 70.4466C83.1609 71.1384 82.0267 71.7325 80.7408 71.9691C80.5684 72 80.409 72.1003 80.2418 72.1672C80.2495 72.216 80.2573 72.2675 80.265 72.3163C80.4218 72.3755 80.5787 72.4166 80.7408 72.4501C81.0314 72.5118 81.3297 72.5324 81.6409 72.4938Z" fill="black"/>
<path d="M67.9226 92.1718C67.992 93.4629 68.3032 94.7025 68.8536 95.8778C69.368 96.976 70.1832 97.8324 71.0731 98.6297C71.2171 98.7583 71.3869 98.9075 71.6441 98.7789C71.1708 98.1848 70.7259 97.6318 70.2835 97.0789C69.782 96.4539 69.4271 95.7518 69.1725 94.9957C68.3881 92.6759 68.5296 90.4487 69.8412 88.3398C70.0341 88.0312 70.2218 87.72 70.425 87.4165C70.8905 86.7195 71.3714 86.0303 71.8344 85.3307C72.4542 84.392 73.0277 83.4301 73.4443 82.3783C73.8404 81.383 73.969 80.3671 73.825 79.3075C73.6964 78.3559 73.4083 77.4583 72.9788 76.6045C72.4516 75.5603 71.9244 74.5136 71.3972 73.4694C70.9934 72.6722 70.8391 71.8234 70.9188 70.9387C70.9934 70.1209 71.1014 69.303 71.1914 68.4878C71.2223 68.2152 71.2943 67.9374 71.1837 67.6313C70.8545 67.7291 70.7825 67.9811 70.7336 68.2203C70.5587 69.0561 70.4019 69.8946 70.2424 70.733C70.1035 71.4608 70.1292 72.1912 70.3504 72.8933C70.515 73.418 70.7439 73.9272 70.9779 74.4261C71.4563 75.442 71.999 76.4296 72.4387 77.4609C73.1486 79.1352 73.2695 80.83 72.4002 82.5043C72.2099 82.8695 72.0453 83.2476 71.8267 83.5947C71.1811 84.6261 70.4996 85.6394 69.8592 86.6732C69.4271 87.3728 69.0002 88.08 68.6453 88.8182C68.1412 89.87 67.8583 90.9939 67.9226 92.1718Z" fill="black"/>
<path d="M73.6442 6.9217C74.0197 7.38206 74.4389 7.78584 74.961 8.0636C75.2105 8.19733 75.3185 8.37993 75.3956 8.63455C75.8972 10.2677 76.4115 11.8956 76.9182 13.5236C76.9387 13.5879 76.949 13.6573 76.9799 13.7911C76.6018 13.539 76.2932 13.323 75.9717 13.125C74.9173 12.4692 73.7471 12.14 72.5255 12.0165C71.9185 11.9548 71.7256 12.2917 72.0368 12.8061C73.0218 14.434 74.3386 15.7405 75.9537 16.7358C76.7099 17.2013 77.5226 17.3917 78.397 16.957C79.7755 19.6832 81.4035 22.2164 83.4018 24.5182C83.2398 24.4951 83.0932 24.4488 82.9543 24.3922C81.9101 23.9524 80.8222 23.6824 79.6983 23.5898C79.2483 23.5538 78.7828 23.6155 78.3327 23.6798C78.1912 23.7004 78.0241 23.847 77.9572 23.9807C77.8749 24.1453 78.0369 24.2456 78.1707 24.3485C78.289 24.4385 78.3764 24.58 78.4536 24.7111C79.1608 25.9276 80.0635 26.9255 81.3803 27.5221C82.2985 27.9388 83.25 28.0828 84.2402 28.0931C84.9809 28.1008 85.5981 27.8462 86.1125 27.2341C86.56 27.6019 86.9767 27.9645 87.4139 28.304C89.8751 30.2226 92.483 31.9277 95.1551 33.5377C96.0835 34.0958 96.9425 34.7336 97.6935 35.5154C97.8581 35.6852 98.033 35.8472 98.213 36.0041C98.3545 36.1275 98.5294 36.2921 98.7094 36.1224C98.9049 35.9372 98.7068 35.7906 98.5885 35.644C97.6755 34.515 96.6211 33.5402 95.366 32.8021C94.8954 32.5269 94.5739 32.1463 94.3193 31.6551C94.687 31.4416 94.7925 31.1021 94.7411 30.7215C94.6279 29.8908 94.5353 29.055 94.3578 28.2397C93.9669 26.4214 93.0128 24.9477 91.5237 23.8238C91.0222 23.4458 90.7161 23.4818 90.3226 23.9756C89.9163 24.4848 89.7928 25.0789 89.7542 25.7038C89.6745 27.0026 90.0706 28.1677 90.7598 29.2478C90.8833 29.4407 91.0093 29.6285 91.1971 29.9139C91.0402 29.8368 90.9836 29.8188 90.9399 29.7879C88.9698 28.376 87.0204 26.9435 85.3384 25.1818C85.0786 24.9092 84.8755 24.6237 84.8343 24.3794C85.2046 23.4046 85.6264 22.5585 85.845 21.6635C86.3388 19.624 86.2771 17.5871 85.5107 15.5991C85.3692 15.2339 85.1686 14.9407 84.8266 14.6655C84.5745 14.8918 84.3174 15.1002 84.0885 15.3316C83.3221 16.1083 82.6945 16.9673 82.4708 18.0681C82.2933 18.9399 82.3679 19.804 82.5814 20.6553C82.7563 21.3549 82.9826 22.0415 83.1858 22.7308C83.1806 22.7308 83.1575 22.7359 83.1523 22.7308C83.0597 22.6228 82.9672 22.5148 82.8797 22.4042C81.2543 20.3287 79.8912 18.0886 78.7365 15.72C78.6876 15.6222 78.6336 15.5194 78.6182 15.4113C78.6079 15.3265 78.6285 15.2185 78.6773 15.149C79.0502 14.6398 79.4154 14.1229 79.8166 13.6368C80.7296 12.5309 81.352 11.2887 81.7198 9.90504C81.9461 9.05633 81.9307 8.21534 81.7507 7.36663C81.6684 6.97314 81.5578 6.90113 81.1514 6.96542C80.8865 7.00914 80.6216 7.06572 80.3696 7.1506C79.1968 7.5518 78.523 8.44166 78.0909 9.54241C77.7154 10.4966 77.5689 11.4944 77.6049 12.5206C77.6074 12.6363 77.6049 12.7495 77.6049 12.8652C77.4557 12.7032 77.3785 12.5335 77.3194 12.3611C76.9156 11.1472 76.5221 9.92818 76.108 8.71427C75.946 8.24106 75.8894 7.77555 75.9409 7.27404C76.0875 5.83381 75.9177 4.44502 75.3133 3.10252C74.6267 1.57999 73.3407 1.00133 71.8233 0.746715C71.4376 0.682419 71.3013 0.834157 71.3064 1.21993C71.3064 1.37682 71.3193 1.53627 71.345 1.69315C71.6433 3.63746 72.3917 5.38889 73.6442 6.9217ZM91.57 24.8346C93.1336 25.8016 94.1289 28.7438 94.0698 30.9864C93.8486 31.0713 93.6995 30.9607 93.5966 30.7858C93.3085 30.2972 92.9845 29.8214 92.7582 29.3044C92.1409 27.9079 91.822 26.424 91.5571 24.9272C91.5494 24.8963 91.5648 24.8654 91.57 24.8346ZM90.7573 24.4359C90.9707 25.4107 91.1353 26.3674 91.3951 27.2984C91.6574 28.232 92.0149 29.1373 92.3209 30.0297C90.6595 28.8904 89.7671 25.8119 90.7573 24.4359ZM84.1553 25.745C82.4013 25.7064 80.848 25.0429 79.3434 24.2302C81.082 24.3073 82.6611 24.886 84.1553 25.745ZM85.1326 26.4548C85.2535 26.478 85.4001 26.5654 85.4567 26.6683C85.5441 26.8226 85.4644 26.9949 85.3101 27.0669C85.0426 27.1929 84.7623 27.3678 84.482 27.3807C82.4888 27.481 80.7811 26.8792 79.5286 25.2486C79.4823 25.1869 79.4437 25.12 79.4026 25.0557C79.4231 25.0352 79.4437 25.0146 79.4669 24.994C79.7086 25.1072 79.9504 25.2152 80.1896 25.3309C81.4703 25.9559 82.8257 26.2774 84.2428 26.3622C84.5385 26.3802 84.8394 26.4008 85.1326 26.4548ZM85.0503 16.206C85.1198 16.3784 85.1712 16.4838 85.2047 16.5944C85.6753 18.1915 85.6907 19.8118 85.3538 21.4243C85.2175 22.0776 84.9089 22.6974 84.6774 23.33C84.6363 23.3223 84.5926 23.3172 84.5514 23.3095C83.9625 20.9202 84.3199 18.5901 85.0503 16.206ZM83.0752 19.8709C82.7897 18.3227 83.3221 17.0445 84.3405 15.918C84.3559 15.9 84.3971 15.9026 84.4923 15.8794C83.9059 17.9189 83.4404 19.9506 83.7336 22.0776C83.3915 21.3729 83.214 20.6296 83.0752 19.8709ZM81.2543 8.06103C81.3083 8.48281 81.3186 8.85315 81.244 9.21836C80.9971 10.422 80.5985 11.5639 79.8706 12.572C79.5235 13.053 79.1608 13.521 78.7648 14.0483C78.6593 12.7623 80.0841 9.35466 81.2543 8.06103ZM78.8136 9.71215C79.1634 8.90459 79.652 8.21534 80.5368 7.89129C79.6418 9.34952 78.8265 10.836 78.415 12.5283C78.1758 12.0937 78.3636 10.7486 78.8136 9.71215ZM77.6049 15.7328C77.8286 15.7765 78.0061 16.0697 77.9752 16.3089C77.9392 16.561 77.7437 16.5738 77.5508 16.5892C77.1239 16.6227 76.7407 16.4838 76.3755 16.2832C75.1976 15.6351 74.2435 14.7247 73.3459 13.7448C73.3665 13.7191 73.387 13.6934 73.405 13.6702C73.5311 13.7551 73.6622 13.8374 73.7857 13.9248C74.9533 14.7504 76.1749 15.4602 77.6049 15.7328ZM73.1196 12.7392C74.7475 13.0735 76.1955 13.7242 77.2474 15.077C75.6965 14.6089 74.4158 13.6625 73.1196 12.7392ZM74.1483 2.39269C74.9301 3.2594 75.5242 5.13427 75.3494 6.33275C74.6241 4.55047 73.7522 2.86848 72.438 1.43854C73.1016 1.60571 73.6905 1.88604 74.1483 2.39269ZM74.9996 7.37949C74.6807 7.22004 74.5032 7.03486 74.3386 6.8394C73.1941 5.47633 72.3223 3.97437 71.9982 2.19723C71.9391 1.87318 71.8722 1.54913 71.7848 1.11706C73.2739 3.0408 74.3052 5.06483 74.9996 7.37949Z" fill="black"/>
<path d="M115.843 38.1474C115.566 38.024 115.236 38.0111 114.925 37.9674C114.766 37.9468 114.601 37.97 114.393 37.9751C114.498 37.7411 114.576 37.5868 114.64 37.4273C114.825 36.9824 114.936 36.5246 114.812 36.0411C114.673 35.5087 114.429 35.0509 113.832 34.9403C113.241 34.8297 112.834 35.1384 112.526 35.609C112.456 35.7145 112.4 35.8276 112.333 35.9356C112.279 36.0205 112.222 36.1028 112.127 36.2417C112.055 35.9742 112.017 35.7762 111.947 35.5884C111.842 35.3081 111.734 35.0252 111.59 34.7654C111.371 34.3771 111.039 34.1534 110.569 34.2331C110.106 34.3102 109.92 34.6523 109.82 35.0535C109.692 35.5704 109.73 36.0899 109.843 36.6043C109.879 36.7638 109.918 36.9258 109.972 37.1624C109.632 36.9747 109.383 36.8023 109.108 36.6943C108.789 36.5683 108.449 36.4346 108.115 36.4217C107.338 36.396 106.911 37.1238 107.289 37.8002C107.408 38.0163 107.606 38.1886 107.778 38.3737C107.86 38.4612 107.966 38.528 108.061 38.6078C107.819 38.7158 107.593 38.7878 107.398 38.9138C107.086 39.1119 106.899 39.4025 106.919 39.7857C106.94 40.1689 107.202 40.3721 107.524 40.5058C107.698 40.5778 107.884 40.6215 108.064 40.6781C108.166 40.709 108.267 40.7398 108.393 40.7784C108.295 40.9404 108.195 41.0665 108.141 41.2131C108.033 41.5062 107.896 41.8046 107.866 42.1106C107.809 42.7021 108.226 43.0468 108.797 42.9027C109.085 42.8307 109.357 42.6919 109.635 42.5813C109.743 42.5375 109.846 42.4861 109.977 42.427C109.928 42.697 109.877 42.913 109.854 43.1291C109.828 43.376 109.877 43.6126 110.108 43.7515C110.365 43.9032 110.615 43.8106 110.805 43.6331C110.988 43.4634 111.129 43.2499 111.271 43.0416C111.374 42.8899 111.448 42.7201 111.582 42.4655C111.965 44.3764 111.667 46.0738 110.857 47.6941C110.237 48.9311 109.481 50.0782 108.55 51.1043C108.071 51.6316 107.588 52.1562 107.079 52.6552C105.613 54.098 104.417 55.7439 103.342 57.4877C102.781 58.3981 102.352 59.3677 102.102 60.4015C101.981 60.9005 101.765 61.3068 101.426 61.6746C101.336 61.7723 101.251 61.8726 101.169 61.9807C101.243 61.7183 101.313 61.456 101.377 61.1885C101.48 60.7487 101.565 60.3064 101.657 59.8666C101.462 60.0981 101.349 60.3527 101.243 60.6124C100.87 61.5203 100.52 62.4359 100.127 63.3334C98.7433 66.4968 97.1564 69.5573 95.4847 72.5766C93.3758 76.3855 91.753 80.3976 90.6445 84.6103C90.6343 84.6514 90.624 84.6951 90.6137 84.7363C90.3848 85.6287 90.2073 86.5366 89.9167 87.4084C89.0217 90.114 88.2167 92.8453 87.5583 95.6152C86.5939 99.671 86.0126 103.788 85.7349 107.95C85.5266 111.087 85.6757 114.217 85.9792 117.337C86.1541 119.148 86.4962 120.922 86.9565 122.674C86.9256 122.91 86.8999 123.147 86.8845 123.386C86.8356 124.08 86.8202 124.777 86.7508 125.469C86.7431 125.549 86.7379 125.626 86.7276 125.706C86.4756 127.779 86.2107 129.849 86.0975 131.937C85.9766 134.182 85.8429 136.425 86.0358 138.673C86.1155 139.606 86.275 140.525 86.6119 141.402C86.7353 141.723 86.8845 142.047 87.0825 142.327C87.6123 143.076 88.4096 142.976 88.7722 142.129C88.87 141.898 88.9548 141.649 88.9754 141.402C89.0346 140.694 89.0886 139.982 89.086 139.272C89.0809 137.066 88.6797 134.895 88.4585 132.709C88.2373 130.525 88.0007 128.344 87.7821 126.161C87.7769 126.109 87.7718 126.058 87.7666 126.007C87.7461 125.791 87.7486 125.569 87.7538 125.351C87.8232 125.564 87.8952 125.778 87.9672 125.991C87.9698 126.004 87.9724 126.014 87.975 126.027C88.0084 126.199 88.0444 126.369 88.0907 126.536C88.6694 128.612 89.356 130.646 90.4285 132.531C90.7423 133.082 91.0457 133.635 91.3441 134.193C92.4397 136.24 93.9159 137.984 95.6313 139.534C96.2434 140.087 96.9147 140.563 97.6579 140.928C97.91 141.052 98.1826 141.147 98.4526 141.227C98.7947 141.324 99.129 141.276 99.3579 140.985C99.5765 140.702 99.4505 140.399 99.2834 140.144C98.9902 139.694 98.6995 139.236 98.3498 138.832C97.4368 137.78 96.4878 136.759 95.5645 135.72C93.8876 133.835 92.432 131.788 91.0946 129.651C90.0402 127.966 89.1143 126.22 88.3582 124.389C89.0886 125.312 89.9681 126.094 90.894 126.832C91.4598 127.28 92.1233 127.56 92.8255 127.701C93.381 127.812 93.9519 127.856 94.5177 127.889C95.0038 127.92 95.495 127.894 95.9991 127.894C96.0094 128.558 96.3386 128.964 96.8813 129.224C97.1436 129.35 97.4008 129.34 97.6554 129.203C98.2109 128.908 98.5349 128.211 98.3935 127.588C98.3035 127.195 98.09 126.878 97.6939 126.76C97.2902 126.639 96.9301 126.796 96.6806 127.115C96.5418 127.293 96.3926 127.347 96.1997 127.334C95.1915 127.269 94.1757 127.246 93.1752 127.118C92.4345 127.022 91.7453 126.701 91.1563 126.223C90.125 125.384 89.1091 124.52 88.335 123.422C88.0933 123.08 87.8669 122.725 87.6432 122.37C87.6381 122.36 87.6303 122.349 87.6252 122.342C87.5352 121.935 87.4477 121.529 87.368 121.12C87.2806 120.667 87.206 120.212 87.1391 119.754C87.1443 119.744 87.1494 119.734 87.1545 119.721C87.1803 119.664 87.2034 119.608 87.2291 119.554C87.4966 119.554 87.6869 119.544 87.8747 119.556C88.816 119.61 89.7418 119.508 90.6342 119.212C91.5627 118.903 92.4937 118.595 93.4041 118.237C94.4457 117.828 95.5105 117.566 96.6344 117.571C96.7141 117.571 96.7912 117.568 96.871 117.566C97.0458 117.558 97.2079 117.484 97.2027 117.301C97.1976 117.188 97.0844 117.064 96.9918 116.972C96.9301 116.91 96.8221 116.895 96.7321 116.866C95.994 116.632 95.2584 116.388 94.5152 116.174C93.7796 115.964 93.0235 115.874 92.2622 115.953C91.7324 116.01 91.2103 116.131 90.6754 116.223C90.7063 116.187 90.7217 116.156 90.7474 116.141C91.0663 115.938 91.3904 115.737 91.7093 115.531C93.543 114.333 95.2919 113.027 96.6678 111.296C97.2207 110.601 97.7994 109.938 98.4346 109.321C99.4428 108.341 100.263 107.227 100.77 105.9C101.189 104.799 101.487 103.668 101.567 102.495C101.603 101.952 101.516 101.392 101.418 100.851C101.349 100.471 101.063 100.404 100.793 100.641C99.4274 101.842 98.4321 103.31 97.7042 104.969C97.0278 106.504 96.8967 108.145 96.7835 109.789C96.7629 110.092 96.6832 110.329 96.498 110.563C95.8577 111.37 95.1581 112.121 94.3763 112.795C93.1881 113.821 91.897 114.706 90.5571 115.521C89.1606 116.37 88.0393 117.512 87.0157 118.762C86.8896 117.651 86.8125 116.535 86.7431 115.418C86.4807 111.219 86.6145 107.044 87.2394 102.873C87.2909 102.533 87.35 102.194 87.404 101.854C87.4477 101.752 87.4966 101.651 87.5377 101.546C88.1627 99.995 89.2532 98.9637 90.858 98.4622C91.6913 98.2024 92.3574 97.6675 92.9412 97.0194C93.543 96.3507 93.9416 95.5612 94.3248 94.7613C94.5537 94.2855 94.7055 94.2007 95.2121 94.3164C95.6133 94.409 96.0068 94.5247 96.4106 94.6122C97.3776 94.823 98.3575 94.8925 99.3322 94.6919C101.477 94.2521 103.375 93.3237 104.872 91.6931C105.726 90.7595 106.528 89.7797 107.344 88.8127C107.547 88.5709 107.716 88.3009 107.889 88.036C107.974 87.9048 108.043 87.7582 108.087 87.609C108.184 87.2696 108.012 87.0715 107.668 87.1435C107.457 87.1898 107.235 87.2747 107.061 87.3981C106.389 87.8739 105.718 88.3497 105.08 88.8641C103.956 89.7694 102.802 90.6232 101.539 91.3279C100.23 92.0583 98.8616 92.5264 97.3365 92.4698C96.6626 92.4441 96.0197 92.6241 95.4127 92.9173C95.3407 92.9533 95.261 92.9713 95.1195 93.0176C95.4899 92.2281 95.9965 91.6468 96.6215 91.1762C96.9996 90.8907 97.4033 90.6387 97.7994 90.3763C98.5709 89.8671 99.2731 89.2807 99.7926 88.504C100.855 86.9224 101.593 85.2018 101.992 83.3398C102.11 82.7843 102.192 82.221 102.295 81.6269C102.403 81.6038 102.462 81.5884 102.524 81.5781C104.072 81.3698 105.093 80.4413 105.803 79.1245C105.939 78.8751 105.991 78.5484 105.983 78.2578C105.97 77.6766 105.463 77.3988 104.939 77.6509C104.787 77.7229 104.643 77.8155 104.471 77.9106C104.471 77.7023 104.476 77.5351 104.471 77.3654C104.45 76.9153 104.144 76.6839 103.733 76.8639C103.409 77.0079 103.123 77.2445 102.827 77.4528C102.719 77.53 102.629 77.6354 102.511 77.7486C102.318 77.4528 102.166 77.1957 101.992 76.9539C101.606 76.4138 101.05 76.365 100.58 76.8279C100.456 76.9488 100.333 77.0876 100.274 77.2445C100.14 77.5969 99.9958 77.9569 99.952 78.3247C99.8466 79.1888 100.106 79.9835 100.526 80.7294C100.798 81.2154 101.253 81.4546 101.763 81.5601C101.775 81.6244 101.791 81.6552 101.788 81.6835C101.572 83.2421 101.215 84.7569 100.58 86.2048C99.8234 87.9331 98.7896 89.3965 97.0716 90.3017C96.4235 90.6412 95.8679 91.117 95.387 91.6751C95.3381 91.7343 95.2661 91.7728 95.2121 91.8114C95.3201 90.9293 95.4384 90.0677 95.531 89.2061C95.6982 87.6502 96.1868 86.2151 97.0921 84.9292C97.3287 84.5923 97.5525 84.2476 97.7711 83.8979C98.0489 83.4504 98.27 82.972 98.3241 82.4448C98.3523 82.1516 98.3395 81.8404 98.2675 81.5575C98.1775 81.2026 97.8508 81.1177 97.5628 81.3517C97.3956 81.4906 97.2619 81.6732 97.1256 81.8481C96.516 82.6377 95.9091 83.4272 95.3099 84.2219C95.0424 84.5743 94.7698 84.9266 94.5357 85.2995C93.7565 86.5469 93.3964 87.8894 93.5842 89.3733C93.723 90.4869 93.831 91.6057 93.723 92.7347C93.6613 93.3957 93.6433 94.0592 93.597 94.7227C93.5919 94.8128 93.561 94.9079 93.5173 94.9902C92.9 96.1578 92.0668 97.0965 90.8066 97.5955C90.4105 97.7524 90.0067 97.9015 89.6261 98.0919C88.8571 98.4751 88.2116 99.0049 87.7744 99.7455C88.4713 96.1192 89.4152 92.5573 90.5417 89.0364C91.0895 87.321 91.7196 85.6339 92.1722 83.8824C93.1109 80.251 94.5846 76.8227 96.2692 73.4819C97.4008 71.2367 98.5555 68.9992 99.466 66.6511C99.9546 65.3935 100.464 64.1461 100.883 62.8654C100.958 63.0017 101.104 63.102 101.307 63.1328C101.523 63.1637 101.752 63.1586 101.971 63.1354C103.108 63.0145 104.224 62.7702 105.281 62.3381C109.918 60.4453 113.305 57.2459 115.321 52.6372C115.638 51.9119 115.895 51.1635 115.995 50.3714C116.011 50.2454 116.034 50.1168 116.016 49.9959C115.969 49.659 115.699 49.5458 115.432 49.7541C115.321 49.839 115.218 49.947 115.144 50.0653C114.794 50.626 114.28 50.9758 113.688 51.2304C113.47 51.3255 113.264 51.4413 113.048 51.5416C110.777 52.6012 108.722 53.9951 106.906 55.7105C105.597 56.9476 104.404 58.3081 103.162 59.6146C103.108 59.6711 103.059 59.7354 103.005 59.792C102.951 59.846 102.889 59.8975 102.83 59.9489C103.079 59.1671 103.465 58.4804 103.902 57.8246C105.029 56.1349 106.248 54.5223 107.68 53.0769C108.048 52.7066 108.398 52.3183 108.748 51.9299C109.92 50.626 110.875 49.1755 111.584 47.5706C112.176 46.2307 112.464 44.8342 112.312 43.3631C112.284 43.0879 112.297 42.8076 112.289 42.481C112.436 42.5633 112.551 42.6327 112.672 42.6996C113.066 42.9208 113.488 43.0416 113.943 43.0262C114.792 42.9979 115.185 42.2958 114.756 41.5731C114.63 41.3596 114.475 41.1616 114.316 40.9301C114.486 40.8864 114.622 40.8556 114.756 40.8118C115.324 40.6318 115.836 40.3515 116.219 39.886C116.741 39.2662 116.569 38.4689 115.843 38.1474ZM88.4147 140.779C88.3916 141.09 88.317 141.402 88.2347 141.705C88.191 141.865 88.0856 142.006 87.993 142.178C87.6406 142.068 87.5429 141.826 87.4375 141.602C87.0748 140.836 86.8974 140.021 86.7945 139.185C86.581 137.451 86.6325 135.71 86.725 133.974C86.8202 132.174 86.9617 130.379 87.0851 128.581C87.1005 128.35 87.1468 128.118 87.2317 127.892C87.3063 128.586 87.3706 129.283 87.4554 129.978C87.6895 131.876 87.9415 133.771 88.173 135.669C88.3813 137.369 88.5433 139.069 88.4147 140.779ZM97.0098 127.462C97.3416 127.046 97.7582 127.13 97.9383 127.632C98.0874 128.049 97.8405 128.627 97.4239 128.776C97.3236 128.812 97.159 128.8 97.0767 128.738C96.8812 128.594 96.7167 128.409 96.5341 128.234C96.7167 127.941 96.8375 127.681 97.0098 127.462ZM100.981 101.368C101.485 103.341 100.009 107.399 98.3112 108.798C98.9439 106.234 100.083 103.878 100.981 101.368ZM100.001 102.4C99.9803 102.492 99.9726 102.587 99.9392 102.675C99.8054 103.03 99.6743 103.387 99.52 103.732C98.9644 104.974 98.4655 106.237 98.0849 107.543C97.9306 108.071 97.7325 108.588 97.3853 109.128C97.5319 106.553 98.4063 104.344 100.001 102.4ZM88.4996 118.024C89.4975 117.409 90.5185 116.833 91.6964 116.653C92.8872 116.47 94.0445 116.653 95.1941 117.062C94.3428 117.378 93.5353 117.689 92.7174 117.975C91.7813 118.301 90.84 118.62 89.891 118.916C89.1863 119.135 88.4585 119.109 87.7306 119.047C87.7949 118.749 88.1421 118.242 88.4996 118.024ZM101.148 80.4516C100.731 79.7186 100.502 78.9342 100.672 78.0881C100.729 77.8052 100.875 77.5274 101.04 77.2857C101.181 77.0774 101.349 77.1108 101.495 77.3242C101.637 77.5326 101.747 77.764 101.896 77.9672C102.308 78.533 102.665 78.5407 103.11 78.0109C103.547 77.4888 103.555 77.4837 104.036 77.3088C104.01 77.566 103.974 77.7666 103.969 77.9672C103.964 78.3916 104.252 78.5639 104.63 78.3633C104.797 78.2758 104.936 78.1395 105.101 78.0444C105.391 77.8772 105.61 77.9904 105.608 78.3221C105.608 78.4893 105.566 78.6719 105.494 78.8236C105.039 79.7778 104.301 80.4465 103.347 80.8682C102.871 81.0791 102.354 81.038 101.853 80.9737C101.531 80.9351 101.3 80.7191 101.148 80.4516ZM95.6185 93.4265C96.192 93.1771 96.8015 93.0536 97.4213 93.0768C98.8487 93.1308 100.127 92.6961 101.346 92.0017C102.768 91.1942 104.082 90.2375 105.335 89.1907C105.772 88.8255 106.212 88.4655 106.667 88.1234C106.942 87.9151 107.248 87.7479 107.603 87.6193C107.56 87.7042 107.529 87.8019 107.467 87.8739C107.202 88.1877 106.935 88.5015 106.657 88.8049C105.996 89.5302 105.317 90.2375 104.669 90.973C103.349 92.4647 101.683 93.3905 99.8003 93.9538C98.733 94.2727 97.6477 94.2649 96.5598 94.0643C96.0814 93.9769 95.6082 93.874 95.0218 93.7583C95.2738 93.6168 95.4384 93.5037 95.6185 93.4265ZM94.2528 87.6116C94.4071 86.8761 94.69 86.192 95.117 85.5747C95.4024 85.1581 95.7291 84.7697 96.03 84.3634C96.5521 83.651 97.069 82.9334 97.5859 82.2159C97.6554 82.1207 97.7248 82.023 97.8431 81.861C97.9177 82.2107 97.8585 82.4756 97.7608 82.7071C97.5654 83.17 97.3545 83.633 97.0921 84.0625C96.6086 84.8597 96.0788 85.6261 95.7394 86.5031C95.3536 87.501 95.1427 88.5349 95.0655 89.5945C94.9755 90.8315 94.6772 92.0249 94.3866 93.2234C94.3686 93.2954 94.3223 93.3597 94.2194 93.4137C94.2451 93.2105 94.2631 93.0073 94.294 92.8041C94.4534 91.778 94.3814 90.757 94.2528 89.7334C94.1654 89.0287 94.1037 88.3214 94.2528 87.6116ZM95.9091 136.896C96.6189 137.683 97.3365 138.465 98.0283 139.264C98.2958 139.573 98.5092 139.928 98.7381 140.267C98.7947 140.352 98.8153 140.463 98.8616 140.589C98.5787 140.63 98.3703 140.512 98.1646 140.404C97.4188 140.013 96.7372 139.524 96.1097 138.966C94.4329 137.472 92.9901 135.785 91.9047 133.804C91.7221 133.47 91.5318 133.141 91.3415 132.812C91.3441 132.809 91.3466 132.809 91.3492 132.807C91.2643 132.573 91.1872 132.333 91.0895 132.104C90.8143 131.467 90.5339 130.829 90.2459 130.194C89.7675 129.137 89.338 128.064 88.9574 126.976C90.8194 130.597 93.1778 133.874 95.9091 136.896ZM113.464 52.0765C110.996 55.3556 107.781 57.7191 104.142 59.6428C106.778 56.4821 109.748 53.8202 113.464 52.0765ZM104.905 59.9386C105.721 59.4268 106.564 58.9562 107.39 58.4624C108.917 57.5519 110.306 56.4641 111.548 55.1833C112.66 54.0362 113.737 52.8583 114.702 51.5827C114.838 51.4027 115.002 51.2484 115.154 51.0812C115.188 51.1018 115.218 51.1223 115.252 51.1429C115.188 51.3487 115.136 51.5596 115.056 51.7602C113.706 55.1936 111.6 58.0277 108.465 60.0338C107.199 60.8439 105.893 61.5897 104.427 61.9832C103.756 62.1633 103.072 62.2918 102.393 62.4282C102.21 62.4642 102.017 62.441 101.727 62.4487C102.004 62.0552 102.249 61.7286 102.586 61.4946C103.349 60.9622 104.118 60.435 104.905 59.9386ZM112.906 36.1465C113.002 35.9536 113.135 35.7633 113.295 35.6193C113.567 35.3724 113.922 35.4264 114.097 35.7479C114.213 35.9614 114.3 36.2211 114.308 36.4603C114.329 37.0904 113.804 37.9391 113.241 38.2863C112.924 38.0497 112.613 37.8182 112.271 37.5662C112.469 37.1135 112.672 36.6249 112.906 36.1465ZM110.34 35.1898C110.353 35.0998 110.394 35.0072 110.443 34.9275C110.584 34.696 110.821 34.6497 110.99 34.8606C111.152 35.0664 111.302 35.3107 111.363 35.5627C111.523 36.2005 111.631 36.8538 111.759 37.5019C111.448 37.5919 111.196 37.6639 110.898 37.7514C110.445 36.9592 110.198 36.1182 110.34 35.1898ZM107.791 37.5173C107.629 37.2498 107.765 36.9978 108.076 36.9875C108.259 36.9824 108.465 37.0158 108.622 37.1032C109.211 37.4273 109.787 37.7822 110.381 38.1346C110.216 38.3892 110.085 38.5949 109.946 38.811C109.332 38.6052 108.748 38.366 108.236 37.9931C108.061 37.8671 107.902 37.6999 107.791 37.5173ZM107.824 39.9863C107.709 39.9374 107.557 39.8088 107.552 39.7111C107.547 39.6056 107.673 39.4411 107.781 39.3922C107.976 39.3073 108.205 39.2404 108.416 39.2507C108.871 39.2739 109.321 39.3536 109.818 39.4153C109.823 39.6365 109.825 39.7934 109.83 39.9528C109.167 40.2923 108.493 40.264 107.824 39.9863ZM108.503 42.3781C108.349 41.5705 108.889 40.8118 109.617 40.7193C109.756 40.7013 109.887 40.6395 110.07 40.5829C110.201 40.7321 110.373 40.9301 110.579 41.1642C110.016 41.7737 109.388 42.2546 108.503 42.3781ZM110.574 43.0725C110.54 43.0596 110.504 43.0468 110.471 43.0313C110.515 42.8513 110.533 42.6636 110.605 42.4964C110.746 42.1621 110.908 41.8354 111.083 41.5165C111.116 41.4522 111.237 41.4368 111.358 41.4419C111.158 42.0335 110.942 42.5916 110.574 43.0725ZM110.566 39.9863C110.329 39.3639 110.612 38.4972 111.142 38.2349C111.986 37.8131 112.873 38.3866 112.888 39.3613C112.899 39.724 112.786 40.048 112.554 40.3232C111.947 41.0407 110.9 40.8633 110.566 39.9863ZM113.925 42.4758C113.362 42.4681 112.886 42.2469 112.515 41.82C112.402 41.6888 112.302 41.55 112.189 41.4034C112.531 41.1488 112.829 40.9276 113.14 40.6961C113.609 40.979 113.994 41.3648 114.285 41.8406C114.519 42.2238 114.377 42.481 113.925 42.4758ZM115.741 39.6185C115.182 40.138 114.372 40.5675 113.454 40.0943C113.47 39.7214 113.488 39.3485 113.506 38.9421C113.997 38.6644 114.547 38.5023 115.144 38.5178C115.267 38.5203 115.396 38.5461 115.512 38.5898C116.041 38.7929 116.149 39.2379 115.741 39.6185Z" fill="black"/>
<path d="M108.698 66.1891C108.575 66.1685 108.446 66.1685 108.32 66.166C107.305 66.1351 106.299 66.2457 105.311 66.4746C103.454 66.9041 102.009 67.8891 101.217 69.6791C100.88 70.4429 100.595 71.2325 100.314 72.0195C100.214 72.2972 100.175 72.6059 100.163 72.9016C100.157 73.0302 100.265 73.2334 100.373 73.2745C100.484 73.3183 100.669 73.2282 100.795 73.1537C100.898 73.0919 100.96 72.9659 101.042 72.8682C101.495 72.3255 102.007 71.86 102.698 71.6491C103.346 71.4511 103.995 71.2376 104.658 71.1168C107.127 70.6641 108.205 69.4759 109.02 67.0455C109.059 66.9272 109.066 66.7986 109.079 66.7138C109.092 66.3409 109.023 66.2431 108.698 66.1891ZM101.459 70.9676C101.883 69.6122 102.554 68.4523 103.853 67.7605C104.802 67.2564 105.821 67.0018 106.937 66.8398C106.867 66.9118 106.842 66.9504 106.803 66.9761C106.764 67.0018 106.718 67.0147 106.674 67.0378C106.114 67.3259 105.551 67.6139 104.99 67.9045C103.663 68.5938 102.567 69.5557 101.649 70.7284C101.587 70.8107 101.523 70.8879 101.459 70.9676ZM105.111 70.3401C104.833 70.4018 104.555 70.4635 104.277 70.5124C103.591 70.6333 102.925 70.8287 102.292 71.1219C102.184 71.1708 102.071 71.2093 101.924 71.1965C101.991 71.1142 102.053 71.0267 102.122 70.9496C103.03 69.9671 104.038 69.1184 105.25 68.5243C106.24 68.0383 107.222 67.5342 108.21 67.0378C108.233 67.0635 108.259 67.0867 108.282 67.1124C107.739 68.6889 106.87 69.9466 105.111 70.3401Z" fill="black"/>
<path d="M40.6912 38.7089C40.8301 38.5778 40.969 38.4466 41.0847 38.2974C41.9103 37.2379 42.9339 36.402 44.0089 35.6073C46.7865 33.5575 49.5126 31.4435 51.9327 28.9668C51.9764 28.9231 52.0305 28.8897 52.0768 28.8511C52.694 29.3629 53.0823 29.5532 53.7047 29.53C54.7077 29.494 55.6748 29.3089 56.5852 28.8382C57.9303 28.1464 58.8304 27.0662 59.4554 25.7237C59.548 25.5257 59.6225 25.3328 59.8206 25.1888C60.0392 25.0268 59.98 24.785 59.7254 24.6693C59.6277 24.6255 59.5145 24.605 59.4065 24.5947C58.8664 24.5407 58.334 24.5664 57.8042 24.6976C56.8192 24.9419 55.8574 25.2505 54.9598 25.734C54.8415 25.7983 54.7129 25.8446 54.5869 25.9012C56.3537 23.4014 57.7451 20.7215 58.8844 17.9131C59.53 18.1574 60.0212 18.1728 60.5947 17.8796C61.0422 17.6507 61.482 17.3781 61.8575 17.0515C62.9762 16.0793 63.9278 14.9606 64.6428 13.6541C64.7559 13.4458 64.8665 13.2323 64.9385 13.0086C65.0234 12.7359 64.8897 12.5251 64.6068 12.4968C64.3907 12.4762 64.1593 12.489 63.9509 12.5456C62.6393 12.9005 61.4074 13.4175 60.3838 14.3459C60.2835 14.4359 60.1703 14.5157 60.052 14.6082C60.0366 14.5439 60.0186 14.5105 60.0237 14.4848C60.4044 12.7385 60.7902 10.9948 61.1682 9.24853C61.2119 9.04793 61.3251 8.93219 61.4768 8.80103C61.8678 8.46155 62.2844 8.12464 62.5879 7.71314C63.8044 6.04916 64.4602 4.17172 64.5785 2.11168C64.5888 1.92136 64.5965 1.73105 64.5785 1.5433C64.5502 1.2604 64.4679 1.18839 64.1773 1.1961C64.0384 1.19867 63.8944 1.23211 63.7606 1.27583C63.4752 1.36842 63.1923 1.47129 62.9119 1.58188C61.9321 1.96765 61.2402 2.64405 60.8519 3.62649C60.4095 4.75038 60.2038 5.90514 60.3632 7.1139C60.425 7.56912 60.4944 8.02176 60.5458 8.47698C60.5664 8.66215 60.5818 8.86018 60.5407 9.04021C60.2089 10.4882 59.8643 11.9361 59.5197 13.3815C59.4862 13.5255 59.4271 13.6618 59.3808 13.8033C59.2651 13.312 59.2393 12.826 59.1467 12.3553C58.905 11.1234 58.4601 9.98665 57.5111 9.10451C56.8655 8.5027 56.094 8.22751 55.2247 8.20693C54.8415 8.19665 54.7489 8.2738 54.7077 8.66215C54.6306 9.35655 54.61 10.0561 54.8183 10.7351C55.1244 11.7406 55.5256 12.7102 56.1763 13.5384C56.8501 14.3948 57.5728 15.2152 58.316 16.0125C58.5321 16.2465 58.5527 16.4162 58.4523 16.676C57.4931 19.163 56.3177 21.5445 54.8569 23.7768C54.7978 23.8669 54.718 23.9466 54.5843 24.1086C54.718 23.5377 54.8363 23.0824 54.9289 22.6169C55.1064 21.7117 55.1938 20.7987 55.0344 19.8805C54.8081 18.5766 54.0391 17.6121 53.0566 16.7892C52.8072 16.5808 52.5345 16.3982 52.1951 16.1462C51.9996 16.5063 51.8119 16.7506 51.7296 17.0258C50.8397 20.0117 51.3335 22.8175 52.9203 25.4485C53.1466 25.824 53.0643 26.0864 52.9126 26.3975C52.8586 26.5081 52.7609 26.5982 52.6811 26.6985C51.156 28.6196 49.3223 30.2244 47.468 31.8087C47.4243 31.8447 47.3729 31.8704 47.3188 31.9039C47.306 31.8627 47.2931 31.8447 47.2983 31.8344C47.4089 31.6261 47.5272 31.4203 47.6352 31.2095C48.2987 29.9313 48.5559 28.5939 48.2267 27.1665C48.111 26.6573 47.8769 26.2201 47.5066 25.8549C47.162 25.5154 46.8379 25.4974 46.4676 25.8317C45.3102 26.8733 44.4821 28.1155 44.1195 29.6509C43.8854 30.6437 43.7954 31.6467 43.7774 32.6625C43.7697 33.1743 43.7337 33.6913 44.2764 33.9665C44.0552 34.468 43.7826 34.8512 43.3711 35.1572C42.8413 35.5533 42.3166 35.9776 41.8665 36.4612C41.3084 37.0604 40.8249 37.7316 40.3106 38.372C40.218 38.4878 40.1357 38.6241 40.2643 38.7527C40.4186 38.9044 40.5678 38.8247 40.6912 38.7089ZM64.0513 1.64617C64.023 4.40576 62.665 7.03675 61.4408 8.0732C61.9192 5.73025 62.773 3.62649 64.0513 1.64617ZM61.6029 3.44389C61.9861 2.69548 62.629 2.25056 63.4289 1.99337C62.2715 3.52876 61.5591 5.26475 61.0062 7.18334C60.9445 7.01874 60.8956 6.94673 60.893 6.87472C60.8133 5.66596 61.0525 4.51892 61.6029 3.44389ZM63.7041 13.3043C62.5261 14.3331 61.3457 15.3515 59.8772 15.9482C60.7773 14.5259 62.1455 13.7698 63.7041 13.3043ZM59.5119 16.6606C61.0473 16.2362 62.2818 15.3078 63.4674 14.2996C63.4906 14.279 63.524 14.2713 63.5523 14.2585C63.578 14.2842 63.6012 14.3073 63.6269 14.3331C63.2797 14.7368 62.9428 15.1509 62.5827 15.5444C62.0375 16.1411 61.4614 16.7043 60.767 17.1312C60.425 17.3421 60.0649 17.4938 59.6534 17.4887C59.4811 17.4861 59.2933 17.4861 59.2419 17.2598C59.193 17.0412 59.3191 16.712 59.5119 16.6606ZM55.3198 9.31797C56.7086 11.0308 57.8351 12.826 58.3392 15.0532C56.5389 13.5949 55.0678 10.7942 55.3198 9.31797ZM57.4005 11.234C56.9684 10.4959 56.4437 9.81176 55.9139 9.03764C56.3332 9.1328 56.6212 9.30768 56.8835 9.534C57.4545 10.0329 57.8428 10.6528 58.118 11.3549C58.3881 12.0493 58.5655 12.7617 58.5861 13.5898C58.172 12.7565 57.8325 11.9695 57.4005 11.234ZM58.5809 25.2505C57.385 26.1944 55.1372 27.1254 53.9156 27.2025C54.4583 26.5519 57.4005 25.2376 58.5809 25.2505ZM54.4866 20.7781C54.4866 21.6834 54.3143 22.5655 54.0879 23.4399C54.0776 23.4811 54.0416 23.5171 53.9491 23.6611C53.9799 22.4961 53.9568 21.4339 53.6764 20.4077C53.4013 19.397 53.0746 18.4043 52.7454 17.3241C53.8385 18.2834 54.4891 19.3713 54.4866 20.7781ZM52.1976 17.805C53.1286 20.0657 53.661 22.3495 53.2855 24.8184C51.853 23.1185 51.5855 19.4253 52.1976 17.805ZM52.6786 28.2184C52.7274 28.1104 52.8637 28.0024 52.982 27.9715C53.409 27.8661 53.8436 27.7683 54.2808 27.7143C55.6413 27.542 56.8527 26.9916 58.0203 26.3127C58.1566 26.2329 58.2929 26.1532 58.4292 26.0735C58.4549 26.0581 58.4884 26.0529 58.5192 26.0426C58.2646 26.6419 57.8917 27.1434 57.3979 27.5394C56.3537 28.3779 55.1527 28.7971 53.8179 28.8459C53.4758 28.8588 53.1595 28.7791 52.8689 28.6093C52.7171 28.5219 52.6066 28.3804 52.6786 28.2184ZM47.1877 26.4284C47.432 26.647 47.5194 26.8579 47.594 27.0791C47.7921 27.6758 47.8152 28.2904 47.7483 28.9077C47.6249 30.029 46.9073 31.4589 46.0818 32.197C46.7839 30.3633 47.0025 28.437 47.1877 26.4284ZM46.4676 26.8811C46.4213 27.3234 46.3878 27.7066 46.3441 28.0872C46.2181 29.188 46.0432 30.2836 45.6857 31.3329C45.4928 31.8961 45.2125 32.4337 44.9605 32.9763C44.873 33.1666 44.7419 33.3338 44.4847 33.2644C44.0115 31.4512 45.0736 27.9381 46.4676 26.8811Z" fill="black"/>
<path d="M32.2199 47.4433C32.2044 47.3044 32.1761 47.1681 32.1401 46.9546C32.3613 47.0266 32.5105 47.0729 32.6571 47.1243C33.7501 47.5075 34.6965 48.1299 35.5401 48.9118C36.3425 49.6525 37.1501 50.388 37.9396 51.1416C38.3923 51.5736 38.8321 52.016 39.2744 52.4609C39.277 52.4712 39.277 52.4815 39.2796 52.4918C39.349 52.9084 39.4853 53.3173 39.6293 53.716C39.7142 53.9526 39.8839 54.1532 40.2414 54.148C40.2414 53.9526 40.2569 53.77 40.2389 53.5925C40.1823 53.0421 40.064 52.4969 40.0563 51.9465C40.0331 50.1797 40.3109 48.4823 41.3087 46.9597C41.9826 45.9336 42.7438 44.982 43.6826 44.1976C45.4185 42.7471 47.1725 41.3146 48.9445 39.9103C50.7551 38.4752 52.6197 37.1096 54.4226 35.6668C56.1148 34.3114 57.7891 32.9329 59.4119 31.4953C60.7287 30.3302 61.9221 29.0315 62.9148 27.5732C64.8951 24.6645 66.2427 21.4677 67.1403 18.0806C67.8039 15.5756 68.4005 13.05 69.0255 10.5348C69.0821 10.3059 69.1361 10.0719 69.1695 9.83782C69.1901 9.69379 69.1746 9.54463 69.1746 9.39803C69.1386 9.39032 69.1001 9.38003 69.0641 9.37231C68.9818 9.51634 68.884 9.65522 68.8223 9.80696C68.4828 10.6428 68.1022 11.4632 67.8296 12.3196C67.4052 13.6596 67.0194 15.0175 66.6825 16.3831C66.0499 18.9447 65.124 21.3957 63.9692 23.7618C63.262 25.2148 62.4313 26.6062 61.3434 27.8124C59.8466 29.4712 58.2366 31.0195 56.5032 32.4289C53.7282 34.6844 50.8991 36.873 48.0521 39.0385C46.3161 40.3604 44.6521 41.7801 42.9856 43.1894C42.1137 43.9275 41.3628 44.7891 40.7172 45.7355C40.1437 46.5765 39.6679 47.4587 39.3824 48.4231C39.223 47.5538 38.9941 46.7 38.6495 45.8719C38.0605 44.4676 37.1321 43.354 35.8462 42.5568C35.0412 42.0578 34.1925 41.6283 33.3618 41.168C33.2512 41.1062 33.1354 41.0522 33.0146 41.0162C32.8422 40.9648 32.6622 40.9571 32.5388 41.1217C32.4153 41.2837 32.4539 41.4534 32.5645 41.6052C32.6776 41.7569 32.7985 41.9035 32.9245 42.0475C33.6087 42.8371 34.2825 43.6344 34.9846 44.4085C36.412 45.9773 37.0318 47.9319 37.6799 49.9508C37.523 49.8171 37.4047 49.7219 37.2967 49.619C36.8929 49.2384 36.4943 48.8578 36.093 48.4746C34.6425 47.0858 32.9297 46.2499 30.9339 45.9799C29.9772 45.8513 29.2391 46.5251 29.3368 47.4818C29.3805 47.9088 29.5709 48.2662 29.8692 48.5671C30.2987 49.0018 30.9159 49.1124 31.4406 48.8552C31.9318 48.6134 32.2764 47.9936 32.2199 47.4433ZM34.964 43.264C34.766 43.0506 34.5731 42.8294 34.4316 42.5465C34.5114 42.5825 34.5911 42.6159 34.6708 42.6519C36.448 43.4878 37.6542 44.8303 38.2997 46.6923C38.7472 47.9859 38.9221 49.3233 39.0507 50.6709C39.0018 50.6838 38.9529 50.6992 38.9041 50.7121C38.6315 50.1308 38.3537 49.5522 38.0862 48.9684C38.0142 48.8115 37.9576 48.6443 37.9216 48.4746C37.4536 46.4428 36.3605 44.7685 34.964 43.264ZM30.8208 48.1942C30.4556 48.1814 30.0775 47.7159 30.0801 47.2838C30.0827 46.9366 30.3193 46.718 30.6922 46.7154C31.0831 46.7128 31.474 47.1475 31.4612 47.5667C31.4483 47.9113 31.1474 48.2071 30.8208 48.1942Z" fill="black"/>
<path d="M41.218 123.143C42.2493 122.31 42.1207 121.039 40.9428 120.45C40.5545 120.257 40.2021 120.322 39.9269 120.656C39.8369 120.764 39.7829 120.9 39.7057 121.019C39.4743 121.387 39.2685 121.767 38.7979 121.909C38.4404 122.017 38.1601 122.274 37.9672 122.588C37.6971 123.03 37.4322 123.485 37.2316 123.961C36.8201 124.946 36.617 125.982 36.5681 127.078C36.5141 126.985 36.4421 126.901 36.4086 126.803C36.2003 126.175 35.9637 125.55 35.8043 124.91C35.5471 123.876 35.2179 122.876 34.6855 121.947C34.292 121.261 33.8985 120.574 33.505 119.89C33.3944 119.697 33.2813 119.507 33.1733 119.314C33.0858 119.157 32.9907 119.005 32.7823 119.026C32.5766 119.046 32.502 119.213 32.4403 119.38C32.376 119.558 32.3117 119.738 32.2705 119.923C32.0082 121.122 32.0905 122.312 32.3683 123.498C32.9598 126.008 34.13 128.096 36.5887 129.236C36.7661 129.318 36.8407 129.444 36.9024 129.614C36.9564 129.758 37.085 129.791 37.2059 129.673C37.512 129.38 37.6045 128.822 37.4477 128.403C37.3782 128.215 37.3371 128.014 37.3191 127.816C37.2934 127.549 37.3062 127.279 37.2959 127.011C37.2419 125.761 37.5711 124.599 38.1343 123.501C38.2629 123.251 38.4404 123.022 38.623 122.804C38.7747 122.624 38.9651 122.477 39.23 122.474C39.3097 122.603 39.374 122.729 39.4588 122.84C39.9012 123.426 40.6985 123.562 41.218 123.143ZM33.9191 124.362C34.3074 125.26 34.7009 126.157 35.0944 127.055C35.1381 127.153 35.1819 127.25 35.2436 127.387C33.6568 126.286 32.2422 121.934 32.8878 120.188C34.1068 122.083 35.1253 124.043 35.4571 126.371C35.2925 126.052 35.1536 125.792 35.025 125.527C34.7961 125.059 34.5723 124.586 34.3434 124.118C34.2869 124.005 34.2303 123.886 34.1454 123.799C34.0914 123.745 33.9654 123.706 33.9011 123.732C33.8419 123.755 33.7879 123.881 33.7956 123.956C33.8111 124.095 33.8625 124.231 33.9191 124.362ZM40.2664 122.593C40.0015 122.449 39.8601 122.217 39.9398 121.986C40.0632 121.633 40.1995 121.279 40.5133 120.998C40.593 121.026 40.6393 121.034 40.6779 121.057C41.3723 121.443 41.4392 121.978 40.8631 122.526C40.6753 122.703 40.5056 122.724 40.2664 122.593Z" fill="black"/>
<path d="M45.7449 124.884C46.1332 124.689 46.5422 124.604 46.9717 124.558C47.3317 124.519 47.7021 124.475 48.039 124.355C50.5362 123.449 52.0253 121.695 52.3545 119.041C52.4985 117.881 52.3211 116.737 51.9019 115.641C51.7836 115.335 51.619 115.039 51.4389 114.764C51.21 114.414 50.9683 114.353 50.5799 114.499C50.4616 114.543 50.3511 114.605 50.2405 114.666C49.4509 115.091 48.8851 115.744 48.4145 116.487C47.8204 117.423 47.3163 118.408 46.9074 119.437C46.609 120.186 46.3416 120.947 46.0381 121.693C45.66 122.624 45.3745 123.568 45.5057 124.581C45.3283 124.717 45.1739 124.835 44.9888 124.977C45.3694 125.057 45.3848 125.067 45.7449 124.884ZM51.0043 115.297C51.8093 116.284 52.0227 118.902 51.3875 120.399C50.598 122.256 49.2735 123.511 47.1954 123.861C48.2679 122.67 49.1063 121.343 49.7158 119.869C50.3228 118.403 50.6314 116.855 51.0043 115.297ZM46.2773 122.95C46.9871 121.009 47.6198 119.033 48.7102 117.256C49.0368 116.721 49.4458 116.235 49.8367 115.741C49.9576 115.587 50.1402 115.484 50.3279 115.384C49.7647 118.645 48.6691 121.639 46.2413 123.994C46.1924 123.982 46.1461 123.969 46.0972 123.956C46.1538 123.619 46.1615 123.264 46.2773 122.95Z" fill="black"/>
<path d="M32.5681 100.4C32.7173 100.223 32.8793 100.109 33.1133 100.06C33.9003 99.901 34.5716 99.505 35.086 98.9057C35.5257 98.3939 35.9012 97.8204 36.2587 97.2469C36.7628 96.4419 36.93 95.5495 36.8322 94.6056C36.8091 94.3844 36.7757 94.1658 36.7422 93.9472C36.6059 93.0857 36.4053 92.2421 36.0735 91.432C35.8266 90.8327 35.4666 90.3184 34.9059 89.9737C34.4533 89.696 34.1061 89.8683 33.9981 90.3826C33.9492 90.6115 33.8695 90.8327 33.8 91.0565C33.5711 91.7792 33.2779 92.4864 33.1262 93.2245C32.8279 94.6648 32.5861 96.1153 32.3701 97.5684C32.2672 98.2525 32.2441 98.9546 32.2569 99.6464C32.2621 99.9165 32.2466 100.133 32.0872 100.346C31.9123 100.58 31.7554 100.829 31.5934 101.071C32.0383 100.981 32.1283 100.917 32.5681 100.4ZM34.677 92.6999C34.6642 92.0389 34.6745 91.3754 34.6745 90.6656C34.7748 90.7376 34.8802 90.7787 34.9291 90.8559C35.1117 91.1311 35.3148 91.4011 35.4383 91.7046C35.8678 92.7513 36.1096 93.8443 36.197 94.9708C36.2381 95.5006 36.1558 96.0124 35.9347 96.4985C35.4949 97.4552 34.9779 98.3579 34.0855 98.9752C33.8823 99.1166 33.656 99.2272 33.3525 99.4021C33.6534 98.5894 33.9389 97.9079 34.1601 97.2032C34.623 95.7398 34.7105 94.2276 34.677 92.6999ZM33.9723 92.4247C34.2784 93.9086 33.6406 97.733 32.9359 98.6306C32.887 97.8461 33.6997 92.9776 33.9723 92.4247Z" fill="black"/>
<path d="M109.798 118.597C109.574 117.702 109.499 116.795 109.564 115.871C109.6 115.383 109.612 114.891 109.579 114.403C109.504 113.279 109.024 112.374 108.057 111.756C107.763 111.571 107.46 111.401 107.164 111.219C106.282 110.674 106.241 110.594 106.321 109.575C106.344 109.277 106.393 108.979 106.405 108.678C106.416 108.449 106.277 108.284 106.089 108.271C105.888 108.256 105.755 108.364 105.701 108.549C105.652 108.716 105.618 108.886 105.598 109.058C105.526 109.701 105.436 110.332 105.207 110.949C104.937 111.677 104.826 112.448 104.829 113.233C104.878 114.858 105.382 116.344 106.31 117.661C107.144 118.842 108.293 119.593 109.744 119.829C109.926 119.86 110.135 119.945 110.255 119.729C110.361 119.539 110.199 119.42 110.109 119.271C109.978 119.066 109.857 118.834 109.798 118.597ZM108.926 118.924C108.129 118.51 107.421 117.975 106.928 117.216C106.105 115.954 105.544 114.588 105.474 113.06C105.454 112.626 105.498 112.186 105.598 111.736C105.639 111.88 105.683 112.024 105.719 112.17C105.979 113.173 106.305 114.143 107.046 114.912C107.167 115.035 107.285 115.174 107.434 115.251C107.522 115.298 107.704 115.285 107.771 115.223C107.833 115.167 107.828 114.997 107.799 114.891C107.768 114.776 107.678 114.67 107.606 114.567C107.028 113.716 106.722 112.754 106.47 111.769C106.452 111.7 106.467 111.623 106.467 111.512C106.899 111.749 107.303 111.965 107.699 112.191C108.581 112.695 109.021 113.479 109.101 114.475C109.124 114.773 109.129 115.077 109.111 115.375C109.039 116.548 109.065 117.715 109.332 118.865C109.345 118.921 109.34 118.981 109.348 119.091C109.183 119.024 109.047 118.986 108.926 118.924Z" fill="black"/>
<path d="M94.2134 104.229C94.7458 103.625 95.3142 103.046 95.8002 102.408C96.6618 101.277 96.793 99.9754 96.5435 98.6149C96.4689 98.2086 96.3095 98.1083 95.9083 98.1931C94.8229 98.4195 93.9588 98.9956 93.3081 99.8854C92.624 100.822 92.2485 101.891 92.0068 103.015C91.855 103.715 91.7676 104.417 91.9245 105.132C92.0042 105.497 92.0916 105.847 92.4929 105.981C92.5109 106.096 92.5211 106.189 92.5417 106.279C92.5751 106.428 92.6394 106.554 92.8195 106.544C93.0149 106.536 93.0972 106.402 93.1178 106.233C93.1307 106.125 93.1307 106.009 93.1049 105.904C93.0406 105.662 93.1204 105.471 93.2747 105.297C93.5884 104.942 93.9022 104.584 94.2134 104.229ZM92.5494 104.196C92.7269 102.336 93.195 100.616 94.7741 99.4199C93.7093 100.86 92.8683 102.406 92.5494 104.196ZM95.8825 99.1319C96.0497 100.233 95.8079 101.151 95.219 101.956C94.7715 102.565 94.2443 103.116 93.7453 103.684C93.5524 103.905 93.3313 104.103 93.0947 104.288C93.4393 102.282 94.4757 100.657 95.8825 99.1319Z" fill="black"/>
<path d="M72.4942 121.386C72.417 120.329 72.2884 119.272 72.2833 118.215C72.2704 115.826 72.3193 113.436 72.3399 111.05C72.3476 110.07 72.3527 109.087 72.3424 108.108C72.3399 107.799 72.2859 107.493 72.255 107.184C72.2113 107.187 72.1676 107.189 72.1238 107.192C72.1033 107.295 72.075 107.395 72.0673 107.501C72.0261 108.038 71.9927 108.573 71.9541 109.111C71.8229 110.939 71.6661 112.768 71.5606 114.599C71.4655 116.289 71.4526 117.983 71.5915 119.673C71.6609 120.509 71.7124 121.345 71.7972 122.181C71.967 123.865 72.1547 125.547 72.3373 127.229C72.3501 127.353 72.363 127.492 72.4222 127.594C72.4684 127.674 72.597 127.756 72.6793 127.749C72.7616 127.738 72.8825 127.623 72.8928 127.543C72.9211 127.327 72.9108 127.101 72.8954 126.882C72.7642 125.046 72.6253 123.215 72.4942 121.386Z" fill="black"/>
</g>
<defs>
<clipPath id="clip0">
<rect width="145.805" height="145.805" fill="white"/>
</clipPath>
</defs>
</svg>
