<svg width="294" height="463" viewBox="0 0 294 463" fill="none" xmlns="http://www.w3.org/2000/svg">
<path d="M107.518 65.4142C89.4565 68.4111 79.9239 88.9997 85.0296 104.164C91.1683 122.445 99.9042 129.638 115.871 129.188C131.837 128.739 140.986 129.638 166.397 140.516C200.72 155.231 202.491 122.175 219.373 116.781C236.225 111.387 250.45 129.698 267.302 124.003C296.933 113.964 272.909 78.6305 243.337 85.5533C223.003 90.2884 196.884 94.574 166.987 76.233C144.174 62.2675 124.754 62.5372 107.518 65.4142Z" fill="#333333"/>
<path d="M116.677 244.438L116.677 244.438C117.413 244.586 118.537 244.462 119.997 244.058C121.44 243.659 123.148 243.006 125.022 242.16C128.767 240.468 133.129 238.026 137.267 235.378C141.406 232.728 145.304 229.883 148.126 227.388C149.539 226.14 150.667 224.991 151.422 224.009C151.799 223.518 152.073 223.082 152.242 222.706C152.414 222.325 152.463 222.043 152.442 221.846C151.533 213.598 146.029 207.54 141.021 202.108L140.858 201.932C138.433 199.303 136.126 196.801 134.618 194.289C133.067 191.705 132.321 189.045 133.188 186.165C133.426 185.374 133.698 184.48 133.998 183.499C135.741 177.779 138.394 169.077 140.459 160.29C141.668 155.144 142.673 149.98 143.176 145.379C143.68 140.766 143.673 136.771 142.894 133.936C142.123 131.125 140.671 129.383 138.885 128.234C137.081 127.074 134.91 126.502 132.673 126.095C131.931 125.96 131.174 125.842 130.422 125.725C128.951 125.496 127.502 125.271 126.233 124.926C124.296 124.399 122.595 123.554 121.686 121.841C120.829 120.235 120.328 117.962 120.044 115.505C119.759 113.036 119.687 110.33 119.716 107.826C119.746 105.32 119.878 103.006 120.002 101.319C120.064 100.476 120.124 99.7883 120.169 99.3113C120.175 99.2431 120.181 99.1793 120.187 99.1199H106.574C107.645 103.954 108.167 109.493 107.717 114.065C107.483 116.442 106.984 118.592 106.138 120.252C105.289 121.918 104.066 123.135 102.379 123.531C99.384 124.235 95.2917 125.279 91.7803 127.235C88.2748 129.187 85.4169 132.008 84.7561 136.248C84.4227 138.387 84.6694 141.57 85.3394 145.43C86.007 149.275 87.0851 153.74 88.3814 158.42C90.9737 167.78 94.4293 177.963 97.1872 185.69C100.055 193.682 96.5456 199.532 92.3129 205.16C91.7516 205.907 91.1784 206.649 90.6047 207.391C86.8162 212.296 83.0042 217.231 82.4286 223.635L116.677 244.438ZM116.677 244.438C116.15 244.332 115.207 244.006 113.931 243.484M116.677 244.438L113.931 243.484M113.931 243.484C112.666 242.968 111.107 242.272 109.362 241.446M113.931 243.484L109.362 241.446M109.362 241.446C105.873 239.793 101.656 237.624 97.5971 235.33M109.362 241.446L97.5971 235.33M97.5971 235.33C93.5357 233.034 89.647 230.621 86.8069 228.48M97.5971 235.33L86.8069 228.48M86.8069 228.48C85.385 227.409 84.2433 226.418 83.4756 225.556M86.8069 228.48L83.4756 225.556M83.4756 225.556C83.0918 225.125 82.8137 224.74 82.6396 224.404M83.4756 225.556L82.6396 224.404M82.6396 224.404C82.4638 224.065 82.4126 223.814 82.4286 223.635L82.6396 224.404Z" fill="white" stroke="#333333"/>
<path d="M128.209 91.2896L128.209 91.2896C128.382 98.3537 125.666 103.77 122.437 107.382C120.821 109.19 119.081 110.54 117.52 111.416C115.939 112.302 114.606 112.666 113.789 112.597C111.431 112.389 107.929 110.312 104.95 106.512C101.99 102.736 99.6042 97.3244 99.43 90.5755C99.1714 79.9791 106.5 74.2156 113.746 74.2156C120.948 74.2156 127.949 80.6269 128.209 91.2896Z" fill="white" stroke="#333333"/>
<path d="M159.965 256.95L159.965 256.95C160.148 277.316 155.468 297.606 152.201 311.771C151.277 315.777 150.466 319.294 149.91 322.183L149.91 322.184C147.449 334.998 146.398 343.874 144.757 357.73C143.797 365.831 142.636 375.634 140.874 388.923C138.49 406.897 133.052 424.207 127.774 436.965C125.136 443.345 122.541 448.575 120.396 452.176C119.322 453.979 118.37 455.358 117.589 456.266C117.197 456.721 116.862 457.041 116.59 457.237C116.35 457.41 116.215 457.446 116.163 457.451C116.152 457.442 116.134 457.427 116.11 457.401C116.039 457.324 115.947 457.192 115.84 456.986C115.628 456.576 115.397 455.958 115.155 455.136C114.675 453.498 114.177 451.133 113.693 448.203C112.726 442.348 111.824 434.289 111.219 425.386C110.01 407.565 110 386.446 113.024 372.884L113.024 372.884C113.819 369.306 114.576 366.096 115.276 363.125C116.905 356.209 118.23 350.586 119.041 344.616C120.202 336.057 120.31 326.777 118.788 311.888C117.272 297.06 117.484 273.993 118.078 254.609C118.375 244.921 118.767 236.163 119.085 229.826C119.243 226.657 119.384 224.094 119.484 222.324C119.534 221.438 119.575 220.751 119.603 220.285C119.609 220.174 119.615 220.075 119.62 219.989L151.126 216.034C152.094 217.569 153.105 219.895 154.086 222.768C155.119 225.799 156.108 229.407 156.97 233.274C158.695 241.013 159.906 249.757 159.965 256.95Z" fill="white" stroke="#333333"/>
<path d="M96.7354 332.955L96.7348 332.955C93.2039 331.712 89.0781 330.526 84.7637 329.286C82.7675 328.712 80.7309 328.127 78.6941 327.519C72.2344 325.591 65.7506 323.429 60.4091 320.665C44.6143 312.481 27.9145 301.686 16.1638 290.855C10.2862 285.437 5.67264 280.034 3.0208 274.966C0.36901 269.898 -0.285938 265.24 1.60545 261.235C6.85208 250.137 19.4638 241.411 34.6987 234.49C49.8788 227.593 67.5527 222.536 82.8408 218.705L82.8844 218.712C82.9776 218.726 83.1161 218.747 83.2965 218.775C83.6572 218.833 84.1851 218.919 84.8517 219.037C86.185 219.271 88.0725 219.628 90.2867 220.118C94.7186 221.097 100.444 222.604 105.652 224.713C110.882 226.831 115.495 229.521 117.804 232.82C118.947 234.453 119.516 236.222 119.333 238.151C119.149 240.088 118.2 242.246 116.196 244.636C112.155 249.448 106.341 253.364 99.8084 256.588C93.2796 259.81 86.0632 262.325 79.2463 264.348C73.7793 265.97 68.5816 267.272 64.2054 268.368C63.1239 268.639 62.0926 268.897 61.1199 269.144C58.6703 269.768 56.5835 270.324 55.0095 270.839C54.2227 271.097 53.5518 271.348 53.0222 271.597C52.5075 271.839 52.0687 272.104 51.8025 272.413C51.4094 272.869 51.5243 273.485 51.7269 273.991C51.9444 274.534 52.3505 275.176 52.8925 275.894C53.982 277.335 55.7062 279.188 57.8668 281.321C62.1932 285.591 68.3346 291.049 74.8248 296.709C77.1417 298.729 79.5029 300.775 81.8433 302.803C86.0649 306.461 90.2184 310.06 93.9207 313.344C99.686 318.457 104.313 322.766 106.392 325.321C107.251 326.375 108.103 327.393 108.917 328.365C110.122 329.806 111.244 331.146 112.176 332.354C112.954 333.361 113.579 334.252 113.996 335.005C114.425 335.781 114.581 336.322 114.547 336.661C114.531 336.808 114.481 336.908 114.399 336.988C114.31 337.075 114.15 337.169 113.867 337.237C113.289 337.375 112.343 337.367 110.911 337.134C108.067 336.67 103.536 335.359 96.7354 332.955Z" fill="white" stroke="#333333"/>
<path d="M202.786 85.5535C209.013 87.3516 221.438 88.85 237.11 83.156C245.344 80.1591 253.814 67.3324 242.717 73.8356C220.228 87.0519 194.404 83.126 202.786 85.5535Z" fill="#333333"/>
<path d="M273.795 126.102C287.784 120.647 292.152 107.461 293.037 112.286C293.923 117.081 291.857 124.603 282.383 126.701C272.909 128.829 269.958 127.6 273.795 126.102Z" fill="#333333"/>
<path d="M89.4565 98.7698C102.56 91.0978 108.758 77.3721 108.758 77.3721C108.758 77.3721 114.07 92.6862 128.945 96.3124C143.819 99.9087 145.147 93.1657 145.147 93.1657C145.147 93.1657 127.381 68.8309 123.633 68.3814C119.855 67.9318 95.6838 74.2253 95.6838 74.2253L89.4565 98.7698Z" fill="#333333"/>
<mask id="path-9-inside-1" fill="white">
<path fill-rule="evenodd" clip-rule="evenodd" d="M108.093 29.7836C112.509 30.9526 114.064 25.971 114.337 17.6439C114.406 15.5286 114.524 13.2649 114.637 11.0894C115.007 3.98784 115.328 -2.17389 113.746 0.831392C111.873 4.36407 106.093 22.7303 105.031 26.1248C92.5463 30.8851 60.2628 52.4683 56.6088 61.3388C52.1819 72.1575 59.265 111.806 71.69 129.398L71.9476 129.762C77.3973 137.465 88.7443 153.504 94.0018 167.249C99.3436 181.244 102 124.903 102 124.903C92.5557 122.655 86.8006 120.407 84.1445 114.983C81.4883 109.589 71.2768 78.481 72.6049 69.9099C73.2809 65.5468 83.3863 55.4683 92.9124 45.9675C99.1661 39.7304 105.17 33.7423 108.093 29.7836Z"/>
</mask>
<path fill-rule="evenodd" clip-rule="evenodd" d="M108.093 29.7836C112.509 30.9526 114.064 25.971 114.337 17.6439C114.406 15.5286 114.524 13.2649 114.637 11.0894C115.007 3.98784 115.328 -2.17389 113.746 0.831392C111.873 4.36407 106.093 22.7303 105.031 26.1248C92.5463 30.8851 60.2628 52.4683 56.6088 61.3388C52.1819 72.1575 59.265 111.806 71.69 129.398L71.9476 129.762C77.3973 137.465 88.7443 153.504 94.0018 167.249C99.3436 181.244 102 124.903 102 124.903C92.5557 122.655 86.8006 120.407 84.1445 114.983C81.4883 109.589 71.2768 78.481 72.6049 69.9099C73.2809 65.5468 83.3863 55.4683 92.9124 45.9675C99.1661 39.7304 105.17 33.7423 108.093 29.7836Z" fill="white"/>
<path d="M108.093 29.7836L108.349 28.8169L107.692 28.643L107.289 29.1896L108.093 29.7836ZM114.337 17.6439L113.337 17.6112L113.337 17.6112L114.337 17.6439ZM114.637 11.0894L113.638 11.0374L113.638 11.0374L114.637 11.0894ZM113.746 0.831392L114.63 1.29987L114.631 1.29707L113.746 0.831392ZM105.031 26.1248L105.388 27.0592L105.841 26.8863L105.986 26.4233L105.031 26.1248ZM56.6088 61.3388L55.6842 60.9579L55.6833 60.96L56.6088 61.3388ZM71.69 129.398L70.8732 129.975L70.8736 129.976L71.69 129.398ZM71.9476 129.762L71.1312 130.34L71.1312 130.34L71.9476 129.762ZM94.0018 167.249L94.9361 166.892L94.9358 166.892L94.0018 167.249ZM102 124.903L102.999 124.95L103.038 124.122L102.231 123.93L102 124.903ZM84.1445 114.983L85.0426 114.543L85.0416 114.541L84.1445 114.983ZM72.6049 69.9099L73.5931 70.063L73.5931 70.063L72.6049 69.9099ZM92.9124 45.9675L93.6186 46.6755L93.6186 46.6755L92.9124 45.9675ZM107.837 30.7503C109.135 31.0939 110.338 31.0093 111.383 30.423C112.404 29.8499 113.14 28.8718 113.679 27.6893C114.743 25.3536 115.2 21.851 115.336 17.6766L113.337 17.6112C113.201 21.7639 112.745 24.9156 111.859 26.8602C111.423 27.8179 110.925 28.3865 110.404 28.6789C109.907 28.958 109.259 29.0578 108.349 28.8169L107.837 30.7503ZM115.336 17.6766C115.405 15.5727 115.522 13.3189 115.636 11.1414L113.638 11.0374C113.525 13.2109 113.407 15.4845 113.337 17.6112L115.336 17.6766ZM115.636 11.1414C115.82 7.61294 115.996 4.24268 115.923 2.13565C115.905 1.60525 115.87 1.12717 115.809 0.73261C115.757 0.389371 115.663 -0.064986 115.424 -0.406431C115.288 -0.599706 115.025 -0.869646 114.599 -0.934924C114.178 -0.999516 113.847 -0.825067 113.658 -0.685012C113.318 -0.432497 113.062 -0.0153612 112.862 0.36571L114.631 1.29707C114.826 0.926824 114.906 0.879108 114.85 0.921103C114.803 0.955898 114.601 1.08867 114.296 1.04197C113.987 0.994578 113.828 0.802092 113.786 0.741821C113.733 0.666382 113.781 0.700224 113.832 1.03524C113.876 1.31894 113.907 1.70917 113.924 2.20501C113.993 4.2029 113.825 7.46429 113.638 11.0374L115.636 11.1414ZM112.863 0.362911C112.356 1.31919 111.621 3.1978 110.803 5.45627C109.977 7.73997 109.043 10.4825 108.136 13.2148C106.321 18.6805 104.608 24.1272 104.077 25.8263L105.986 26.4233C106.516 24.7279 108.225 19.2942 110.034 13.845C110.938 11.1199 111.867 8.39632 112.684 6.13671C113.511 3.85186 114.2 2.10993 114.63 1.29987L112.863 0.362911ZM104.675 25.1904C98.3123 27.6165 87.0373 34.2617 76.9329 41.3727C71.8694 44.9361 67.0677 48.639 63.2935 52.0188C61.4068 53.7084 59.7645 55.3283 58.4712 56.8187C57.1888 58.2965 56.2022 59.7005 55.6842 60.9579L57.5335 61.7196C57.929 60.7594 58.7505 59.5485 59.9818 58.1295C61.2021 56.7232 62.779 55.1643 64.6278 53.5087C68.3246 50.1981 73.0592 46.5445 78.084 43.0083C88.1562 35.9199 99.2655 29.3935 105.388 27.0592L104.675 25.1904ZM55.6833 60.96C54.489 63.8788 54.1148 68.5731 54.3513 74.1061C54.5897 79.6835 55.4568 86.2577 56.8505 93.0301C59.6313 106.544 64.543 121.013 70.8732 129.975L72.5068 128.821C66.4119 120.192 61.5696 106.04 58.8094 92.627C57.4325 85.936 56.5824 79.4699 56.3495 74.0207C56.1147 68.527 56.5152 64.2081 57.5344 61.7175L55.6833 60.96ZM70.8736 129.976L71.1312 130.34L72.7639 129.185L72.5063 128.821L70.8736 129.976ZM71.1312 130.34C76.5989 138.068 87.8638 154.001 93.0678 167.606L94.9358 166.892C89.6247 153.007 78.1957 136.862 72.7639 129.185L71.1312 130.34ZM93.0675 167.605C93.4141 168.513 93.7884 169.248 94.2207 169.74C94.6647 170.245 95.3654 170.682 96.2049 170.393C96.8742 170.162 97.3104 169.549 97.6009 169.018C97.9196 168.435 98.2036 167.683 98.4624 166.826C99.4932 163.41 100.333 157.591 100.998 151.431C101.666 145.244 102.166 138.623 102.499 133.553C102.666 131.017 102.791 128.867 102.874 127.351C102.915 126.593 102.947 125.993 102.967 125.583C102.978 125.378 102.986 125.22 102.991 125.113C102.993 125.059 102.995 125.019 102.997 124.992C102.997 124.978 102.998 124.968 102.998 124.961C102.998 124.957 102.998 124.954 102.999 124.953C102.999 124.952 102.999 124.951 102.999 124.951C102.999 124.95 102.999 124.95 102 124.903C101.001 124.856 101.001 124.856 101.001 124.856C101.001 124.857 101.001 124.857 101.001 124.858C101.001 124.86 101.001 124.862 101 124.866C101 124.872 101 124.882 100.999 124.896C100.998 124.922 100.996 124.962 100.993 125.015C100.988 125.121 100.98 125.277 100.97 125.481C100.949 125.889 100.918 126.486 100.877 127.242C100.794 128.752 100.669 130.894 100.503 133.422C100.171 138.479 99.6735 145.069 99.0098 151.217C98.343 157.393 97.5174 163.035 96.5477 166.248C96.3064 167.047 96.0694 167.65 95.8462 168.058C95.5947 168.518 95.468 168.532 95.5534 168.502C95.8091 168.414 95.905 168.627 95.7232 168.42C95.5297 168.199 95.2573 167.734 94.9361 166.892L93.0675 167.605ZM102.231 123.93C92.7349 121.67 87.4664 119.493 85.0426 114.543L83.2463 115.423C86.1349 121.322 92.3764 123.64 101.768 125.876L102.231 123.93ZM85.0416 114.541C83.7572 111.933 80.5608 102.885 77.8421 93.3632C76.4871 88.6172 75.2605 83.7871 74.456 79.6203C73.6425 75.4068 73.2909 72.0136 73.5931 70.063L71.6167 69.7567C71.2549 72.0917 71.6817 75.8011 72.4923 79.9995C73.3119 84.2446 74.5552 89.1357 75.919 93.9123C78.6382 103.436 81.8756 112.639 83.2473 115.425L85.0416 114.541ZM73.5931 70.063C73.724 69.2179 74.3594 67.9332 75.5436 66.2366C76.7017 64.5773 78.2959 62.6455 80.1854 60.5318C83.964 56.305 88.8494 51.432 93.6186 46.6755L92.2063 45.2594C87.4493 50.0037 82.519 54.9205 78.6943 59.1989C76.7823 61.3378 75.128 63.3375 73.9035 65.0919C72.7051 66.809 71.8238 68.4203 71.6167 69.7567L73.5931 70.063ZM93.6186 46.6755C99.8429 40.4678 105.918 34.4131 108.898 30.3775L107.289 29.1896C104.422 33.0714 98.4894 38.993 92.2063 45.2594L93.6186 46.6755Z" fill="#333333" mask="url(#path-9-inside-1)"/>
<mask id="path-11-inside-2" fill="white">
<path fill-rule="evenodd" clip-rule="evenodd" d="M121.749 29.9075C117.791 30.4793 116.366 25.5815 116.107 17.6439C116.037 15.5287 115.92 13.265 115.806 11.0896C115.436 3.98798 115.115 -2.17392 116.697 0.831392C118.508 4.24652 123.97 21.5245 125.29 25.7373C138.559 31.3634 168.91 51.8552 172.447 60.4399C176.903 71.2587 162.235 116.332 157.808 124.424C156.638 126.571 154.845 129.597 152.741 133.147C146.889 143.025 138.637 156.954 134.729 167.249C129.417 181.245 126.731 124.903 126.731 124.903C127.289 124.336 128.51 123.68 130.003 122.878C133.248 121.134 137.78 118.698 139.599 114.983C142.255 109.589 157.808 77.5821 156.451 69.011C155.775 64.648 145.669 54.5695 136.143 45.0686C130.407 39.3474 124.88 33.8356 121.749 29.9075Z"/>
</mask>
<path fill-rule="evenodd" clip-rule="evenodd" d="M121.749 29.9075C117.791 30.4793 116.366 25.5815 116.107 17.6439C116.037 15.5287 115.92 13.265 115.806 11.0896C115.436 3.98798 115.115 -2.17392 116.697 0.831392C118.508 4.24652 123.97 21.5245 125.29 25.7373C138.559 31.3634 168.91 51.8552 172.447 60.4399C176.903 71.2587 162.235 116.332 157.808 124.424C156.638 126.571 154.845 129.597 152.741 133.147C146.889 143.025 138.637 156.954 134.729 167.249C129.417 181.245 126.731 124.903 126.731 124.903C127.289 124.336 128.51 123.68 130.003 122.878C133.248 121.134 137.78 118.698 139.599 114.983C142.255 109.589 157.808 77.5821 156.451 69.011C155.775 64.648 145.669 54.5695 136.143 45.0686C130.407 39.3474 124.88 33.8356 121.749 29.9075Z" fill="white"/>
<path d="M121.749 29.9075L122.531 29.2842L122.174 28.8358L121.606 28.9178L121.749 29.9075ZM116.107 17.6439L115.107 17.6766L116.107 17.6439ZM115.806 11.0896L116.805 11.0376L115.806 11.0896ZM116.697 0.831392L115.812 1.29707L115.813 1.29987L116.697 0.831392ZM125.29 25.7373L124.336 26.0364L124.474 26.4775L124.9 26.6579L125.29 25.7373ZM172.447 60.4399L173.371 60.0591L173.371 60.0591L172.447 60.4399ZM157.808 124.424L156.931 123.944L156.93 123.945L157.808 124.424ZM152.741 133.147L153.602 133.657L153.602 133.657L152.741 133.147ZM134.729 167.249L133.794 166.894L133.794 166.894L134.729 167.249ZM126.731 124.903L126.019 124.201L125.711 124.513L125.732 124.951L126.731 124.903ZM130.003 122.878L129.529 121.997L129.529 121.997L130.003 122.878ZM139.599 114.983L138.702 114.542L138.701 114.544L139.599 114.983ZM156.451 69.011L155.462 69.1642L155.463 69.1675L156.451 69.011ZM136.143 45.0686L136.849 44.3606L136.849 44.3606L136.143 45.0686ZM121.606 28.9178C120.846 29.0276 120.283 28.8735 119.821 28.5389C119.331 28.1838 118.867 27.5607 118.466 26.5859C117.655 24.6179 117.235 21.5636 117.106 17.6112L115.107 17.6766C115.238 21.6618 115.66 25.0253 116.616 27.3476C117.099 28.518 117.75 29.5082 118.648 30.1587C119.574 30.8296 120.673 31.0734 121.892 30.8972L121.606 28.9178ZM117.106 17.6112C117.036 15.4846 116.918 13.211 116.805 11.0376L114.808 11.1416C114.921 13.3191 115.038 15.5727 115.107 17.6766L117.106 17.6112ZM116.805 11.0376C116.619 7.46447 116.45 4.20302 116.519 2.20507C116.536 1.70923 116.568 1.31899 116.611 1.03527C116.662 0.700246 116.71 0.666386 116.657 0.741813C116.615 0.802074 116.456 0.994563 116.147 1.04196C115.843 1.08868 115.64 0.955904 115.594 0.921105C115.537 0.879104 115.617 0.926814 115.812 1.29707L117.582 0.365714C117.381 -0.0153592 117.126 -0.432503 116.785 -0.68502C116.597 -0.825078 116.265 -0.999525 115.844 -0.934918C115.418 -0.869626 115.155 -0.599676 115.02 -0.406406C114.78 -0.0649599 114.687 0.389397 114.634 0.732645C114.574 1.12721 114.539 1.60531 114.52 2.13572C114.447 4.2428 114.624 7.61312 114.808 11.1416L116.805 11.0376ZM115.813 1.29987C116.228 2.08167 116.886 3.73512 117.678 5.91292C118.461 8.06659 119.352 10.6685 120.229 13.3013C121.983 18.5659 123.676 23.932 124.336 26.0364L126.245 25.4382C125.584 23.3298 123.886 17.9505 122.126 12.6691C121.247 10.0289 120.35 7.40772 119.558 5.22962C118.775 3.07565 118.071 1.28867 117.58 0.362916L115.813 1.29987ZM124.9 26.6579C131.437 29.4297 142.274 35.9116 151.938 42.7937C156.763 46.2298 161.27 49.747 164.781 52.9282C166.537 54.5191 168.032 56.015 169.19 57.3657C170.358 58.7281 171.14 59.8926 171.522 60.8208L173.371 60.0591C172.87 58.8411 171.929 57.4873 170.708 56.0639C169.478 54.6288 167.918 53.0714 166.124 51.446C162.535 48.1948 157.962 44.6278 153.098 41.1646C143.386 34.2481 132.413 27.671 125.681 24.8166L124.9 26.6579ZM171.522 60.8208C172.007 61.9972 172.262 63.7337 172.279 65.9709C172.295 68.1892 172.076 70.8171 171.671 73.7258C170.862 79.5422 169.319 86.3994 167.493 93.1949C165.668 99.9864 163.566 106.694 161.645 112.205C159.717 117.74 157.993 122.002 156.931 123.944L158.685 124.904C159.837 122.8 161.607 118.393 163.534 112.863C165.47 107.309 167.586 100.555 169.424 93.7139C171.262 86.8773 172.827 79.932 173.652 74.0015C174.065 71.0368 174.296 68.3052 174.279 65.9562C174.262 63.626 174.001 61.5874 173.371 60.0591L171.522 60.8208ZM156.93 123.945C155.77 126.072 153.988 129.081 151.881 132.638L153.602 133.657C155.701 130.114 157.505 127.069 158.686 124.902L156.93 123.945ZM151.881 132.638C146.045 142.488 137.74 156.5 133.794 166.894L135.664 167.604C139.534 157.407 147.733 143.563 153.602 133.657L151.881 132.638ZM133.794 166.894C133.475 167.736 133.204 168.202 133.011 168.422C132.83 168.629 132.928 168.413 133.187 168.503C133.274 168.533 133.147 168.52 132.896 168.059C132.673 167.651 132.437 167.048 132.196 166.248C131.227 163.035 130.401 157.393 129.732 151.217C129.067 145.069 128.566 138.479 128.232 133.422C128.064 130.894 127.939 128.752 127.855 127.241C127.814 126.486 127.782 125.889 127.761 125.481C127.751 125.277 127.743 125.12 127.738 125.015C127.735 124.962 127.733 124.922 127.732 124.895C127.731 124.882 127.731 124.872 127.73 124.865C127.73 124.862 127.73 124.859 127.73 124.858C127.73 124.857 127.73 124.856 127.73 124.856C127.73 124.856 127.73 124.855 126.731 124.903C125.732 124.951 125.732 124.951 125.732 124.951C125.732 124.952 125.732 124.953 125.732 124.953C125.732 124.955 125.733 124.958 125.733 124.961C125.733 124.968 125.734 124.979 125.734 124.992C125.736 125.02 125.738 125.06 125.74 125.114C125.745 125.22 125.753 125.378 125.764 125.584C125.785 125.994 125.816 126.594 125.858 127.352C125.942 128.868 126.068 131.018 126.236 133.554C126.571 138.623 127.074 145.244 127.744 151.432C128.411 157.592 129.252 163.411 130.281 166.825C130.539 167.683 130.823 168.435 131.141 169.017C131.43 169.548 131.865 170.162 132.533 170.393C133.374 170.684 134.075 170.244 134.517 169.738C134.947 169.246 135.319 168.512 135.664 167.604L133.794 166.894ZM127.444 125.605C127.626 125.419 127.975 125.168 128.529 124.838C129.067 124.516 129.724 124.163 130.476 123.759L129.529 121.997C128.789 122.395 128.089 122.771 127.504 123.12C126.934 123.46 126.394 123.82 126.019 124.201L127.444 125.605ZM130.476 123.759C132.091 122.891 134.095 121.815 135.926 120.477C137.752 119.142 139.485 117.488 140.497 115.423L138.701 114.544C137.893 116.193 136.451 117.615 134.745 118.862C133.044 120.107 131.16 121.121 129.529 121.997L130.476 123.759ZM140.496 115.425C141.827 112.722 146.39 103.349 150.453 93.5722C152.484 88.6855 154.398 83.6785 155.72 79.3433C156.381 77.1761 156.9 75.1596 157.21 73.3995C157.517 71.6573 157.634 70.0901 157.438 68.8546L155.463 69.1675C155.607 70.0747 155.535 71.3827 155.24 73.0525C154.949 74.7044 154.455 76.6368 153.807 78.7598C152.512 83.0051 150.626 87.944 148.606 92.8047C144.568 102.522 140.027 111.85 138.702 114.542L140.496 115.425ZM157.439 68.8579C157.232 67.5215 156.35 65.9102 155.152 64.1931C153.928 62.4387 152.273 60.4389 150.361 58.3C146.536 54.0216 141.606 49.1049 136.849 44.3606L135.437 45.7767C140.206 50.5332 145.092 55.4062 148.87 59.633C150.76 61.7467 152.354 63.6784 153.512 65.3378C154.696 67.0344 155.331 68.319 155.462 69.1642L157.439 68.8579ZM136.849 44.3606C131.093 38.6198 125.618 33.1565 122.531 29.2842L120.967 30.5308C124.143 34.5146 129.72 40.0749 135.437 45.7767L136.849 44.3606Z" fill="#333333" mask="url(#path-11-inside-2)"/>
<path d="M91.2404 151.087L91.2409 151.086C93.29 147.726 94.1505 144.049 94.4487 139.485C94.7028 135.594 94.5494 131.022 94.3616 125.422C94.3349 124.628 94.3076 123.812 94.2806 122.975C94.4414 122.966 94.637 122.956 94.859 122.946C95.5012 122.915 96.3619 122.881 97.2394 122.87C98.1198 122.859 99.005 122.87 99.7008 122.928C100.05 122.956 100.336 122.995 100.543 123.044C100.621 123.062 100.68 123.079 100.723 123.095C100.729 123.13 100.735 123.172 100.742 123.224C100.768 123.413 100.792 123.679 100.819 124.02C100.833 124.194 100.847 124.387 100.863 124.595C100.908 125.192 100.962 125.92 101.041 126.736C101.252 128.94 101.64 131.821 102.494 134.67C103.348 137.515 104.678 140.367 106.8 142.478C108.938 144.604 111.854 145.951 115.799 145.811C119.076 145.7 121.35 144.196 122.9 142.023C124.433 139.872 125.25 137.079 125.69 134.359C126.132 131.632 126.202 128.931 126.209 126.934C126.211 126.494 126.21 126.092 126.208 125.733C126.207 125.268 126.205 124.873 126.211 124.552C126.214 124.388 126.219 124.255 126.225 124.148C126.308 124.134 126.396 124.115 126.488 124.093C126.757 124.028 127.089 123.928 127.455 123.807C128.191 123.564 129.1 123.222 129.994 122.864C130.889 122.506 131.776 122.128 132.47 121.811C132.767 121.675 133.032 121.548 133.248 121.438C133.252 121.465 133.256 121.493 133.261 121.521C133.341 122.055 133.434 122.855 133.54 123.855C133.667 125.052 133.81 126.521 133.968 128.141C134.074 129.229 134.187 130.384 134.306 131.572C134.601 134.523 134.933 137.662 135.294 140.402C135.653 143.131 136.045 145.501 136.464 146.894C137.31 149.707 138.773 151.216 140.062 152.015C140.702 152.411 141.289 152.628 141.722 152.745C141.836 152.776 141.94 152.8 142.031 152.819C142.052 153.033 142.081 153.332 142.117 153.704C142.195 154.514 142.306 155.674 142.438 157.072C142.703 159.867 143.05 163.611 143.384 167.412C143.718 171.214 144.037 175.069 144.246 178.084C144.35 179.592 144.427 180.887 144.463 181.858C144.481 182.345 144.489 182.745 144.486 183.049C144.483 183.372 144.467 183.535 144.455 183.582L144.454 183.585C144.434 183.672 144.307 183.884 143.902 184.201C143.52 184.501 142.963 184.838 142.232 185.196C140.772 185.911 138.677 186.682 136.052 187.392C130.805 188.811 123.486 189.975 114.985 189.975C111.04 189.975 103.874 188.965 97.658 187.445C94.5511 186.686 91.7083 185.806 89.6373 184.873C88.5996 184.406 87.7801 183.936 87.2208 183.477C86.6487 183.008 86.4321 182.619 86.4141 182.326C86.3715 181.441 86.5398 174.272 86.7209 167.277C86.8112 163.786 86.9044 160.351 86.9749 157.788C87.0102 156.507 87.0398 155.445 87.0606 154.702L87.0784 154.07C87.3501 154.067 87.6973 154.026 88.0938 153.898C89.0258 153.597 90.1704 152.835 91.2404 151.087ZM100.703 123.003C100.701 122.999 100.7 122.996 100.7 122.996C100.7 122.996 100.701 122.998 100.703 123.003Z" fill="white" stroke="#333333"/>
<path d="M151.375 215.499C150.165 212.831 148.601 210.404 146.889 208.156C126.525 211.902 102.324 212.112 88.7777 208.965C86.5643 211.872 84.4688 214.869 83.1703 218.286C82.9342 218.256 82.7866 218.226 82.7866 218.226C52.1522 225.898 11.7784 238.515 1.12426 261.051C-5.95885 276.066 21.5472 299.801 52.1522 316.704C59.2058 313.137 68.9745 299.651 72.7817 294.257C61.0651 283.858 50.6175 274.567 52.1522 272.769C55.251 269.173 100.14 264.528 116.52 244.988C116.904 245.078 117.346 245.078 117.878 245.018C117.081 265.816 116.461 294.557 118.261 311.969C121.301 341.728 117.848 348.92 112.506 372.805C111.473 377.391 110.824 382.815 110.411 388.689C115.133 390.367 121.596 391.955 128.915 391.746C134.847 391.566 138.625 391.266 141.075 390.937C141.163 390.307 141.252 389.678 141.34 389.049C146.121 352.996 146.446 342.627 150.371 322.338C152.88 309.271 160.671 283.168 160.435 257.006C160.347 242.471 155.595 221.792 151.375 215.499Z" fill="#333333"/>
<path d="M104.101 324.322C104.21 324.025 104.311 323.763 104.397 323.544C107.161 326.439 110.729 326.403 113.559 326.287C113.699 326.282 113.836 326.276 113.971 326.27C114.578 326.244 115.143 326.22 115.669 326.223C116.312 326.228 116.858 326.275 117.308 326.398C117.751 326.519 118.078 326.709 118.313 326.987C118.549 327.267 118.73 327.682 118.796 328.323C119.086 331.113 118.877 337.609 118.001 344.742C117.124 351.875 115.589 359.56 113.26 364.749C112.971 365.391 112.714 365.855 112.488 366.17C112.253 366.497 112.091 366.605 112.016 366.633C112.014 366.633 112.012 366.634 112.01 366.635C111.991 366.642 111.969 366.651 111.895 366.588C111.787 366.495 111.644 366.296 111.483 365.94C111.166 365.239 110.868 364.133 110.571 362.707C110.275 361.29 109.987 359.595 109.679 357.735C109.632 357.453 109.585 357.166 109.537 356.876C108.957 353.362 108.296 349.36 107.387 345.655C106.406 341.658 105.12 337.931 103.282 335.521C102.669 334.717 102.407 333.555 102.401 332.189C102.396 330.832 102.645 329.34 102.987 327.941C103.328 326.545 103.757 325.26 104.101 324.322Z" fill="white" stroke="#333333"/>
<path d="M110.268 471.122L110.267 471.122C109.835 471.04 109.503 470.794 109.248 470.363C108.983 469.916 108.806 469.273 108.728 468.443C108.572 466.783 108.828 464.533 109.361 462.034C110.4 457.166 112.456 451.508 114.319 447.778H122.258L122.378 448.086L123.033 449.76C123.58 451.158 124.321 453.053 125.1 455.043C126.656 459.02 128.361 463.373 128.951 464.873C129.008 465.019 128.999 465.238 128.728 465.587C128.455 465.938 127.978 466.333 127.308 466.751C125.976 467.583 124.018 468.423 121.85 469.15C119.688 469.875 117.344 470.478 115.253 470.844C113.144 471.213 111.353 471.329 110.268 471.122Z" fill="white" stroke="#333333"/>
<path d="M119.324 328.272C118.97 324.705 115.251 325.964 111.237 325.784C110.942 331.089 109.968 343.016 107.253 347.182C109.88 358.87 110.322 372.536 113.746 364.954C118.468 354.435 119.914 333.996 119.324 328.272Z" fill="#333333"/>
<path d="M110.175 471.613C114.897 472.512 130.598 467.717 129.417 464.69C128.827 463.222 127.204 459.026 125.669 455.1C122.305 456.089 115.369 457.707 110.499 455.969C108.138 463.222 106.899 471.014 110.175 471.613Z" fill="#333333"/>
</svg>
