<svg width="432" height="466" viewBox="0 0 432 466" fill="none" xmlns="http://www.w3.org/2000/svg">
<path d="M376.5 145.08C400.248 145.08 419.5 125.828 419.5 102.08C419.5 78.3318 400.248 59.0801 376.5 59.0801C352.752 59.0801 333.5 78.3318 333.5 102.08C333.5 125.828 352.752 145.08 376.5 145.08Z" fill="url(#paint0_linear)"/>
<path d="M24.5031 315.088C24.5031 397.931 91.6604 465.088 174.503 465.088C257.346 465.088 324.503 397.931 324.503 315.088C324.503 232.245 257.346 165.088 174.503 165.088C91.6604 165.088 24.5031 232.245 24.5031 315.088Z" fill="url(#paint1_linear)"/>
<path d="M2 315.28H430C430.53 315.28 431.039 315.491 431.414 315.866C431.789 316.241 432 316.75 432 317.28V323.28C432 325.932 430.946 328.476 429.071 330.351C427.196 332.226 424.652 333.28 422 333.28H10C7.34784 333.28 4.80429 332.226 2.92892 330.351C1.05356 328.476 0 325.932 0 323.28V317.28C0 316.75 0.210712 316.241 0.585785 315.866C0.960858 315.491 1.46957 315.28 2 315.28Z" fill="#151E34"/>
<path d="M186.5 315.28V317.28C186.5 318.341 186.921 319.358 187.672 320.108C188.422 320.859 189.439 321.28 190.5 321.28H242.5C243.561 321.28 244.578 320.859 245.328 320.108C246.079 319.358 246.5 318.341 246.5 317.28V315.28H186.5Z" fill="#083566"/>
<path d="M60 87.28H372C375.713 87.28 379.274 88.755 381.899 91.3805C384.525 94.006 386 97.567 386 101.28V315.28H46V101.28C46 97.567 47.475 94.006 50.1005 91.3805C52.726 88.755 56.287 87.28 60 87.28Z" fill="#0A4586"/>
<path d="M375.5 299.8V103.8C375.5 102.695 374.605 101.8 373.5 101.8L65.5 101.8C64.3954 101.8 63.5 102.695 63.5 103.8V299.8C63.5 300.905 64.3954 301.8 65.5 301.8H373.5C374.605 301.8 375.5 300.905 375.5 299.8Z" fill="white"/>
<path d="M125.19 274.3C147.281 274.3 165.19 256.391 165.19 234.3C165.19 212.209 147.281 194.3 125.19 194.3C103.099 194.3 85.1901 212.209 85.1901 234.3C85.1901 256.391 103.099 274.3 125.19 274.3Z" fill="#0A4586"/>
<path d="M125.19 264.83C142.051 264.83 155.72 251.161 155.72 234.3C155.72 217.439 142.051 203.77 125.19 203.77C108.329 203.77 94.66 217.439 94.66 234.3C94.66 251.161 108.329 264.83 125.19 264.83Z" fill="#DAE6F2"/>
<path d="M125.19 261.52C140.223 261.52 152.41 249.333 152.41 234.3C152.41 219.267 140.223 207.08 125.19 207.08C110.157 207.08 97.97 219.267 97.97 234.3C97.97 249.333 110.157 261.52 125.19 261.52Z" fill="white"/>
<path d="M125.19 254.66C136.435 254.66 145.55 245.545 145.55 234.3C145.55 223.056 136.435 213.94 125.19 213.94C113.946 213.94 104.83 223.056 104.83 234.3C104.83 245.545 113.946 254.66 125.19 254.66Z" fill="#DAE6F2"/>
<path d="M125.19 264.6C118.18 264.602 111.386 262.174 105.965 257.729C100.545 253.283 96.8333 247.096 95.4635 240.221C94.0936 233.346 95.15 226.209 98.4526 220.025C101.755 213.842 107.1 208.995 113.576 206.31C120.051 203.625 127.258 203.269 133.967 205.302C140.676 207.335 146.472 211.632 150.368 217.459C154.264 223.287 156.02 230.285 155.334 237.262C154.649 244.239 151.566 250.762 146.61 255.72C143.805 258.544 140.467 260.783 136.79 262.308C133.113 263.832 129.17 264.611 125.19 264.6ZM125.19 268.38C131.93 268.38 138.518 266.382 144.122 262.638C149.726 258.894 154.094 253.573 156.674 247.346C159.254 241.12 159.93 234.269 158.617 227.659C157.303 221.048 154.059 214.976 149.295 210.209C144.531 205.442 138.461 202.195 131.851 200.877C125.241 199.56 118.39 200.232 112.162 202.808C105.934 205.385 100.61 209.75 96.8633 215.352C93.1161 220.953 91.1139 227.54 91.11 234.28C91.11 243.319 94.7006 251.987 101.092 258.378C107.483 264.769 116.151 268.36 125.19 268.36V268.38Z" fill="#FF4019"/>
<path d="M125.19 268.38H126.5C128.426 268.302 130.343 268.064 132.23 267.67L131.23 263.04C129.234 263.461 127.2 263.672 125.16 263.67V268.4L125.19 268.38ZM138.98 265.48C141.147 264.516 143.208 263.329 145.13 261.94L142.36 258.11C140.703 259.287 138.931 260.292 137.07 261.11L138.98 265.44V265.48ZM150.41 257.22H150.51V257.15L150.58 257.07L150.78 256.83C152.042 255.337 153.173 253.737 154.16 252.05L150.08 249.66C149.044 251.419 147.831 253.068 146.46 254.58L149.96 257.76L150.41 257.22ZM157.54 245.06C157.82 244.22 158.06 243.38 158.27 242.52V242.44H158.5V242.35H158.56V242.27H158.65V239.28V239.21H158.71V239.14L154 238.62C153.782 240.661 153.347 242.672 152.7 244.62L157.19 246.12L157.54 245.06ZM154.4 231.49L159.12 231.04C158.892 228.685 158.423 226.359 157.72 224.1L153.2 225.51C153.811 227.462 154.213 229.473 154.4 231.51V231.49ZM150.78 219.92L154.9 217.59C154.292 216.501 153.625 215.446 152.9 214.43H152.84H152.77H152.7H152.62H152.56L152.51 214.37L148.95 217.5C150.303 219.037 151.49 220.713 152.49 222.5L150.78 219.92ZM142.78 210.79L145.61 207L145.53 206.93C144.88 206.45 144.21 205.99 143.53 205.55H143.47L143.39 205.49H143.34H143.26H143.16H143.05H143H142.9H142.5H142.06H141.94H141.81H141.4H141.34H141.24H141.16C140.68 205.24 140.16 204.99 139.69 204.76L137.69 209.06C139.54 209.92 141.296 210.969 142.93 212.19L142.78 210.79ZM131.78 205.69L132.78 201.07C131.78 200.84 130.72 200.65 129.67 200.51H129.1C128 200.39 126.88 200.31 125.75 200.29L125.67 205.03C127.71 205.062 129.741 205.307 131.73 205.76L131.78 205.69ZM113.78 207.26C115.655 206.463 117.609 205.866 119.61 205.48L118.71 200.83H118.52H118.17C116.919 201.095 115.684 201.429 114.47 201.83H114.34H113.97H113.85H113.8C113.17 202.05 112.56 202.29 111.95 202.55L113.8 206.91L113.78 207.26ZM103.78 214.2C105.18 212.709 106.731 211.368 108.41 210.2L105.7 206.31L105.38 206.54H105.33H105.28H105.23H105.18H105.11H104.89H104.82H104.75H104.59H103.5H103.43H101.74H101.5H101.18H101.11H100.77H100.67H100.5L100.44 206.6L103.89 209.84L103.78 214.2ZM97.5 224.57C98.1735 222.647 99.0484 220.8 100.11 219.06L96.11 216.59H96.05C94.8402 218.58 93.835 220.687 93.05 222.88L97.52 224.45L97.5 224.57ZM91.22 236.98L95.94 236.61C95.88 235.85 95.85 235.07 95.85 234.3C95.8497 233.03 95.9298 231.76 96.09 230.5L91.4 229.9C91.256 231.062 91.1725 232.23 91.15 233.4V233.45C91.15 234.07 91.15 234.69 91.22 235.3C91.22 235.37 91.22 235.45 91.22 235.52V236.98ZM95.22 250.5L99.38 248.25C98.4107 246.456 97.6298 244.565 97.05 242.61L92.51 243.95C92.59 244.21 92.67 244.48 92.75 244.73V244.82H92.8C93.4165 246.658 94.1928 248.438 95.12 250.14L95.22 250.5ZM104.34 261.25L107.24 257.51C105.63 256.258 104.152 254.844 102.83 253.29L99.22 256.35V256.4H99.5H99.6H99.79H99.85H99.93L99.98 256.47H100.5L100.58 256.56L100.71 256.69C101.788 257.792 102.941 258.817 104.16 259.76L104.34 261.25ZM117.03 267.4L118.16 262.8C116.183 262.311 114.263 261.617 112.43 260.73L110.36 264.99C111.29 265.44 112.23 265.84 113.2 266.21H113.25H113.38H113.5H113.87H113.92H114.07H114.24H114.5H114.55H115.31H115.44H115.5C115.99 266.36 116.5 266.49 116.98 266.62L117.03 267.4ZM125.21 268.4V263.67H124.21L124.05 268.4H125.21Z" fill="white"/>
<path d="M125.83 258.68L124.51 258.55C124.51 252 124.51 244.87 124.51 236.78V235.63L123.69 236.43C118.69 241.38 113.46 246.16 107.31 251.43L106.59 250.72C112.69 245.38 117.88 240.57 122.9 235.63L123.73 234.81H122.5H112.25C108.34 234.81 104.41 234.81 100.55 234.81V233.71C104.41 233.71 108.35 233.71 112.26 233.71H122.5H123.67L122.84 232.89C117.84 227.95 112.63 223.14 106.53 217.8L107.25 217.09C113.4 222.4 118.61 227.18 123.63 232.09L124.45 232.9V231.74C124.45 223.65 124.45 216.53 124.45 209.97L125.77 209.84C125.63 216.97 125.55 224.32 125.54 231.71V232.89L126.36 232.05C131.41 226.93 136.66 221.3 142.86 214.35L143.55 215.04C137.38 222.04 132.16 227.72 127.13 232.83L126.32 233.66H127.5C134.85 233.66 142.15 233.54 149.18 233.45V234.99C142.18 234.9 134.85 234.83 127.5 234.79H126.34L127.15 235.62C132.15 240.73 137.4 246.39 143.57 253.41L142.88 254.1C136.68 247.1 131.43 241.52 126.38 236.41L125.56 235.57V236.75C125.61 244.2 125.69 251.55 125.83 258.68Z" fill="white"/>
<g style="mix-blend-mode:multiply" opacity="0.2">
<path d="M113.18 233.05C113.408 233.115 113.649 233.111 113.875 233.04C114.101 232.969 114.301 232.834 114.45 232.65L120.88 234.77C120.752 235.819 120.96 236.882 121.474 237.805C121.988 238.728 122.781 239.465 123.74 239.91L122.16 246.5C121.883 246.532 121.625 246.659 121.432 246.86C121.238 247.06 121.121 247.323 121.099 247.601C121.078 247.879 121.154 248.156 121.315 248.384C121.476 248.612 121.711 248.777 121.98 248.85C122.249 248.932 122.538 248.917 122.797 248.807C123.056 248.698 123.268 248.501 123.397 248.251C123.525 248.001 123.562 247.714 123.5 247.439C123.439 247.165 123.283 246.921 123.06 246.75L125.19 240.32C126.237 240.445 127.298 240.236 128.219 239.723C129.141 239.209 129.876 238.417 130.32 237.46L136.91 239.03C136.943 239.263 137.043 239.481 137.197 239.658C137.352 239.836 137.554 239.965 137.78 240.03C137.991 240.092 138.214 240.095 138.427 240.039C138.639 239.984 138.833 239.871 138.986 239.714C139.14 239.557 139.247 239.361 139.298 239.147C139.348 238.934 139.34 238.71 139.273 238.501C139.206 238.291 139.084 238.104 138.919 237.959C138.754 237.815 138.552 237.717 138.336 237.678C138.12 237.639 137.897 237.66 137.692 237.737C137.486 237.815 137.306 237.947 137.17 238.12L130.73 235.99C130.855 234.942 130.646 233.882 130.133 232.961C129.619 232.039 128.827 231.304 127.87 230.86L129.5 224.28C129.775 224.243 130.028 224.113 130.218 223.911C130.409 223.71 130.524 223.449 130.545 223.173C130.566 222.896 130.492 222.621 130.334 222.393C130.177 222.165 129.946 221.998 129.68 221.92C129.414 221.851 129.132 221.874 128.881 221.986C128.63 222.099 128.425 222.293 128.299 222.538C128.173 222.782 128.135 223.062 128.189 223.332C128.244 223.601 128.389 223.844 128.6 224.02L126.47 230.46C125.422 230.335 124.362 230.544 123.441 231.057C122.519 231.571 121.784 232.363 121.34 233.32L114.75 231.74C114.724 231.525 114.639 231.321 114.506 231.149C114.373 230.978 114.196 230.846 113.994 230.767C113.791 230.689 113.572 230.667 113.358 230.703C113.144 230.739 112.944 230.833 112.779 230.974C112.614 231.115 112.49 231.298 112.421 231.504C112.352 231.709 112.34 231.93 112.387 232.142C112.433 232.354 112.536 232.549 112.684 232.707C112.833 232.866 113.021 232.981 113.23 233.04L113.18 233.05Z" fill="black"/>
</g>
<path d="M112.18 232.05C112.408 232.115 112.649 232.111 112.875 232.04C113.101 231.969 113.301 231.834 113.45 231.65L119.88 233.77C119.752 234.819 119.96 235.882 120.474 236.805C120.988 237.728 121.781 238.465 122.74 238.91L121.16 245.5C120.885 245.536 120.632 245.665 120.442 245.866C120.251 246.068 120.137 246.329 120.117 246.605C120.098 246.881 120.174 247.156 120.334 247.382C120.493 247.608 120.726 247.772 120.993 247.846C121.26 247.92 121.544 247.9 121.797 247.788C122.051 247.677 122.258 247.481 122.384 247.234C122.509 246.988 122.546 246.705 122.487 246.434C122.428 246.164 122.277 245.922 122.06 245.75L124.19 239.32C125.238 239.445 126.298 239.236 127.219 238.723C128.141 238.209 128.876 237.417 129.32 236.46L135.91 238.03C135.943 238.263 136.043 238.481 136.197 238.658C136.352 238.836 136.554 238.965 136.78 239.03C137.078 239.089 137.388 239.034 137.647 238.876C137.906 238.717 138.096 238.467 138.18 238.174C138.263 237.882 138.233 237.569 138.096 237.298C137.959 237.026 137.725 236.817 137.44 236.71C137.211 236.646 136.969 236.651 136.743 236.724C136.518 236.797 136.318 236.935 136.17 237.12L129.73 234.99C129.855 233.942 129.646 232.882 129.133 231.961C128.619 231.039 127.827 230.304 126.87 229.86L128.5 223.28C128.775 223.243 129.028 223.113 129.218 222.911C129.409 222.71 129.524 222.449 129.545 222.173C129.566 221.896 129.492 221.621 129.334 221.393C129.177 221.165 128.946 220.998 128.68 220.92C128.414 220.851 128.132 220.874 127.881 220.986C127.63 221.099 127.425 221.293 127.299 221.538C127.174 221.782 127.135 222.062 127.19 222.332C127.244 222.601 127.389 222.844 127.6 223.02L125.48 229.46C124.431 229.332 123.368 229.54 122.445 230.054C121.522 230.568 120.785 231.361 120.34 232.32L113.75 230.74C113.722 230.505 113.624 230.285 113.469 230.106C113.314 229.928 113.109 229.8 112.88 229.74C112.728 229.694 112.567 229.68 112.409 229.697C112.251 229.714 112.098 229.762 111.958 229.839C111.819 229.915 111.696 230.019 111.597 230.144C111.498 230.269 111.425 230.412 111.382 230.565C111.339 230.718 111.327 230.878 111.346 231.036C111.365 231.194 111.416 231.347 111.495 231.485C111.574 231.623 111.68 231.744 111.806 231.841C111.932 231.938 112.076 232.009 112.23 232.05H112.18Z" fill="#FF4019"/>
<path d="M124.81 236.79C126.136 236.79 127.21 235.715 127.21 234.39C127.21 233.065 126.136 231.99 124.81 231.99C123.485 231.99 122.41 233.065 122.41 234.39C122.41 235.715 123.485 236.79 124.81 236.79Z" fill="#0A4586"/>
<path d="M125.78 237.89C126.642 237.89 127.34 237.192 127.34 236.33C127.34 235.469 126.642 234.77 125.78 234.77C124.918 234.77 124.22 235.469 124.22 236.33C124.22 237.192 124.918 237.89 125.78 237.89Z" fill="white"/>
<g style="mix-blend-mode:multiply" opacity="0.2">
<path d="M143.44 261.85C144.467 261.85 145.3 261.017 145.3 259.99C145.3 258.963 144.467 258.13 143.44 258.13C142.413 258.13 141.58 258.963 141.58 259.99C141.58 261.017 142.413 261.85 143.44 261.85Z" fill="#328FD9"/>
</g>
<path d="M142.61 261.85C143.637 261.85 144.47 261.017 144.47 259.99C144.47 258.963 143.637 258.13 142.61 258.13C141.583 258.13 140.75 258.963 140.75 259.99C140.75 261.017 141.583 261.85 142.61 261.85Z" fill="#0A4586"/>
<path opacity="0.2" d="M142 261.02C142.569 261.02 143.03 260.559 143.03 259.99C143.03 259.421 142.569 258.96 142 258.96C141.431 258.96 140.97 259.421 140.97 259.99C140.97 260.559 141.431 261.02 142 261.02Z" fill="white"/>
<path d="M124.22 232.69C124.507 232.69 124.74 232.457 124.74 232.17C124.74 231.883 124.507 231.65 124.22 231.65C123.933 231.65 123.7 231.883 123.7 232.17C123.7 232.457 123.933 232.69 124.22 232.69Z" fill="white"/>
<path d="M125.91 209.19H124.84L124.3 210.12L124.84 211.05H125.91L126.45 210.12L125.91 209.19Z" fill="#328FD9"/>
<path d="M125.91 256.89H124.84L124.3 257.82L124.84 258.75H125.91L126.45 257.82L125.91 256.89Z" fill="#328FD9"/>
<path d="M150.15 234.5V233.43L149.22 232.9L148.29 233.43V234.5L149.22 235.04L150.15 234.5Z" fill="#328FD9"/>
<path d="M102.45 234.5V233.43L101.52 232.9L100.59 233.43V234.5L101.52 235.04L102.45 234.5Z" fill="#328FD9"/>
<path d="M142.51 251.87L143.27 251.11L143 250.08L141.96 249.8L141.2 250.56L141.48 251.59L142.51 251.87Z" fill="#328FD9"/>
<path d="M108.78 218.14L109.54 217.38L109.27 216.35L108.23 216.07L107.47 216.83L107.75 217.86L108.78 218.14Z" fill="#328FD9"/>
<path d="M107.47 251.11L108.23 251.87L109.27 251.59L109.54 250.56L108.78 249.8L107.75 250.08L107.47 251.11Z" fill="#328FD9"/>
<path d="M141.2 217.38L141.96 218.14L143 217.86L143.27 216.83L142.51 216.07L141.48 216.35L141.2 217.38Z" fill="#328FD9"/>
<path d="M281.5 146.35H286.84C287.269 146.349 287.694 146.439 288.087 146.613C288.479 146.787 288.831 147.041 289.119 147.36C289.406 147.679 289.624 148.055 289.757 148.463C289.889 148.871 289.935 149.303 289.89 149.73L289.74 151.26C289.663 152.018 289.307 152.72 288.742 153.23C288.176 153.74 287.442 154.021 286.68 154.02H277.9L278.4 149.11C278.478 148.345 278.839 147.638 279.413 147.127C279.987 146.616 280.732 146.339 281.5 146.35Z" fill="#ED2939"/>
<path d="M285.39 148.82C285.652 149.254 285.755 149.766 285.682 150.268C285.608 150.77 285.363 151.231 284.988 151.572C284.612 151.913 284.13 152.113 283.624 152.138C283.117 152.164 282.617 152.012 282.21 151.71C282.15 151.667 282.099 151.613 282.06 151.55C281.793 151.115 281.687 150.6 281.759 150.095C281.831 149.589 282.078 149.125 282.457 148.782C282.835 148.439 283.321 148.24 283.831 148.217C284.341 148.195 284.843 148.352 285.25 148.66C285.307 148.704 285.354 148.758 285.39 148.82Z" fill="white"/>
<path d="M286.03 148.89C286.274 149.3 286.369 149.782 286.299 150.254C286.228 150.725 285.997 151.159 285.644 151.48C285.291 151.801 284.839 151.99 284.362 152.016C283.886 152.041 283.415 151.901 283.03 151.62C282.982 151.584 282.942 151.54 282.91 151.49C282.66 151.08 282.561 150.596 282.629 150.121C282.697 149.646 282.928 149.209 283.282 148.885C283.637 148.561 284.092 148.371 284.572 148.346C285.051 148.322 285.524 148.464 285.91 148.75C285.958 148.789 285.999 148.837 286.03 148.89Z" fill="#ED2939"/>
<path d="M283.97 150.28L283.72 150.08L283.43 150.28L283.57 149.95L283.32 149.74H283.65L283.79 149.41L283.86 149.74H284.19L283.9 149.95L283.97 150.28Z" fill="white"/>
<path d="M286.09 150.28L285.84 150.08L285.55 150.28L285.69 149.95L285.44 149.74H285.77L285.91 149.41L285.98 149.74H286.31L286.02 149.95L286.09 150.28Z" fill="white"/>
<path d="M285.11 149.45L284.86 149.24L284.57 149.45L284.71 149.11L284.46 148.91H284.79L284.93 148.57L285 148.91H285.33L285.04 149.11L285.11 149.45Z" fill="white"/>
<path d="M284.24 151.49L283.99 151.29L283.7 151.49L283.84 151.16L283.59 150.95H283.92L284.06 150.62L284.13 150.95H284.5L284.21 151.16L284.24 151.49Z" fill="white"/>
<path d="M285.57 151.49L285.32 151.29L285.03 151.49L285.16 151.16L284.91 150.95H285.25L285.38 150.62L285.45 150.95H285.79L285.5 151.16L285.57 151.49Z" fill="white"/>
<path d="M180.68 161.64L182.27 146.49H185.96C186.569 146.478 187.177 146.542 187.77 146.68C188.249 146.797 188.698 147.012 189.09 147.31C189.467 147.612 189.734 148.031 189.85 148.5C189.953 148.868 190.007 149.248 190.01 149.63C190.024 149.87 190.024 150.11 190.01 150.35C189.8 152.24 188.95 153.28 187.45 153.49C187.831 153.545 188.196 153.68 188.521 153.884C188.847 154.089 189.126 154.361 189.34 154.68C189.643 155.244 189.788 155.88 189.76 156.52C189.774 156.766 189.774 157.014 189.76 157.26C189.705 158.483 189.203 159.643 188.35 160.52C187.452 161.306 186.282 161.709 185.09 161.64H180.68ZM183.58 159.73H184.58C185.052 159.749 185.521 159.657 185.95 159.46C186.284 159.283 186.551 159.002 186.71 158.66C186.894 158.207 187.006 157.728 187.04 157.24C187.04 157.03 187.04 156.84 187.04 156.65C187.072 156.151 186.946 155.654 186.68 155.23C186.457 154.996 186.183 154.818 185.879 154.708C185.576 154.599 185.251 154.562 184.93 154.6H184.04L183.58 159.73ZM184.32 152.73H185.2C185.833 152.789 186.465 152.599 186.96 152.2C187.365 151.69 187.594 151.061 187.61 150.41C187.61 150.26 187.61 150.12 187.61 149.99C187.627 149.837 187.627 149.683 187.61 149.53C187.577 149.32 187.495 149.122 187.37 148.95C187.238 148.79 187.06 148.674 186.86 148.62C186.627 148.539 186.385 148.489 186.14 148.47C185.807 148.451 185.473 148.451 185.14 148.47H184.76L184.32 152.73Z" fill="#151E34"/>
<path d="M190.77 161.64L192.36 146.49H198.66L198.45 148.41H194.86L194.4 152.81H197.25L197.06 154.72H194.2L193.66 159.72H197.31L197.11 161.59L190.77 161.64Z" fill="#151E34"/>
<path d="M201.35 161.64L202.73 148.48H200.17L200.38 146.48H208.12L207.91 148.48H205.43L204.05 161.64H201.35Z" fill="#151E34"/>
<path d="M211.19 161.64L215.88 146.49H218.67L220.18 161.64H217.65L217.4 158.1H214.74L213.74 161.64H211.19ZM215.19 156.31H217.27L216.88 150.05L215.19 156.31Z" fill="#151E34"/>
<path d="M221.69 161.64L223.28 146.49H226.78C227.539 146.471 228.297 146.562 229.03 146.76C229.563 146.914 230.042 147.215 230.41 147.63C230.747 148.049 230.968 148.549 231.05 149.08C231.107 149.41 231.134 149.745 231.13 150.08C231.128 150.444 231.108 150.808 231.07 151.17L230.49 156.63C230.424 157.38 230.266 158.119 230.02 158.83C229.822 159.406 229.501 159.931 229.08 160.37C228.658 160.809 228.132 161.132 227.55 161.31C226.822 161.516 226.067 161.614 225.31 161.6L221.69 161.64ZM224.6 159.74H225.41C225.749 159.747 226.086 159.7 226.41 159.6C226.639 159.522 226.853 159.404 227.04 159.25C227.225 159.065 227.357 158.834 227.42 158.58C227.511 158.306 227.578 158.025 227.62 157.74C227.62 157.5 227.71 157.12 227.76 156.6L228.34 151.15C228.385 150.782 228.409 150.411 228.41 150.04C228.41 149.88 228.41 149.72 228.41 149.58C228.408 149.406 228.365 149.236 228.283 149.083C228.201 148.929 228.083 148.798 227.94 148.7C227.523 148.49 227.056 148.396 226.59 148.43H225.82L224.6 159.74Z" fill="#151E34"/>
<path d="M233.41 161.64L231.89 146.49H234.3L235.23 157.07L238.23 146.49H240.68L235.97 161.64H233.41Z" fill="#151E34"/>
<path d="M241.5 161.64L243.09 146.49H245.75L244.16 161.64H241.5Z" fill="#151E34"/>
<path d="M250.1 161.64C247.68 161.64 246.47 160.34 246.47 157.72C246.47 157.54 246.47 157.35 246.47 157.14L248.82 156.64C248.82 156.88 248.82 157.1 248.82 157.31C248.82 158.84 249.3 159.61 250.25 159.61C250.434 159.624 250.62 159.597 250.792 159.531C250.965 159.466 251.121 159.363 251.25 159.23C251.488 158.947 251.634 158.598 251.67 158.23C251.67 158.11 251.67 158.01 251.67 157.91C251.673 157.632 251.633 157.355 251.55 157.09C251.458 156.79 251.313 156.508 251.12 156.26C250.884 155.977 250.631 155.71 250.36 155.46L248.5 153.68C248.034 153.244 247.663 152.716 247.41 152.13C247.24 151.694 247.158 151.228 247.17 150.76C247.17 150.56 247.17 150.34 247.17 150.12C247.231 149.098 247.695 148.141 248.46 147.46C249.259 146.788 250.276 146.433 251.32 146.46H251.5C251.951 146.445 252.401 146.509 252.83 146.65C253.202 146.753 253.544 146.941 253.83 147.2C254.089 147.446 254.29 147.747 254.42 148.08C254.58 148.425 254.685 148.793 254.73 149.17C254.773 149.502 254.79 149.836 254.78 150.17V150.44L252.48 150.91C252.48 150.71 252.48 150.52 252.48 150.34C252.495 150.207 252.495 150.073 252.48 149.94C252.464 149.669 252.417 149.4 252.34 149.14C252.273 148.919 252.132 148.728 251.94 148.6C251.75 148.487 251.531 148.431 251.31 148.44H251.21C250.838 148.44 250.48 148.583 250.21 148.84C249.952 149.112 249.796 149.466 249.77 149.84C249.77 149.96 249.77 150.06 249.77 150.17C249.754 150.457 249.813 150.743 249.94 151C250.134 151.374 250.391 151.713 250.7 152L252.51 153.73C253.084 154.282 253.555 154.932 253.9 155.65C254.153 156.198 254.283 156.796 254.28 157.4C254.295 157.603 254.295 157.807 254.28 158.01C254.206 159.017 253.743 159.957 252.99 160.63C252.199 161.337 251.159 161.7 250.1 161.64Z" fill="#151E34"/>
<path d="M259.26 161.64C258.578 161.665 257.898 161.553 257.26 161.31C256.764 161.109 256.341 160.76 256.05 160.31C255.757 159.845 255.567 159.324 255.49 158.78C255.439 158.449 255.415 158.115 255.42 157.78C255.421 157.426 255.441 157.072 255.48 156.72L256.06 151.24C256.112 149.928 256.59 148.668 257.42 147.65C257.867 147.219 258.4 146.888 258.985 146.68C259.569 146.471 260.191 146.389 260.81 146.44C261.393 146.371 261.985 146.446 262.532 146.659C263.079 146.871 263.566 147.215 263.95 147.66C264.429 148.432 264.659 149.333 264.61 150.24C264.609 150.574 264.589 150.908 264.55 151.24L263.97 156.72C263.911 158.042 263.431 159.31 262.6 160.34C262.169 160.784 261.648 161.129 261.072 161.354C260.495 161.578 259.877 161.676 259.26 161.64ZM259.47 159.64C259.709 159.645 259.947 159.605 260.17 159.52C260.357 159.454 260.528 159.348 260.67 159.21C260.807 159.067 260.912 158.896 260.98 158.71C261.065 158.506 261.132 158.295 261.18 158.08C261.18 157.88 261.26 157.63 261.29 157.33L261.99 150.66C261.99 150.393 261.99 150.143 261.99 149.91C261.99 149.77 261.99 149.62 261.99 149.49C261.984 149.34 261.949 149.193 261.885 149.057C261.822 148.922 261.731 148.8 261.62 148.7C261.337 148.477 260.979 148.369 260.62 148.4C260.332 148.392 260.045 148.447 259.78 148.56C259.555 148.662 259.37 148.834 259.25 149.05C259.121 149.265 259.023 149.497 258.96 149.74C258.891 150.043 258.841 150.35 258.81 150.66L258.12 157.33C258.106 157.593 258.106 157.857 258.12 158.12C258.12 158.25 258.12 158.38 258.12 158.51C258.122 158.665 258.156 158.818 258.217 158.961C258.279 159.103 258.368 159.232 258.48 159.34C258.619 159.461 258.781 159.553 258.956 159.612C259.131 159.67 259.316 159.693 259.5 159.68L259.47 159.64Z" fill="#151E34"/>
<path d="M265.42 161.64L267.01 146.49H270.41C271.082 146.483 271.753 146.55 272.41 146.69C272.925 146.805 273.41 147.03 273.83 147.35C274.226 147.67 274.509 148.108 274.64 148.6C274.745 148.988 274.796 149.388 274.79 149.79C274.804 150.037 274.804 150.284 274.79 150.53C274.59 152.44 273.84 153.65 272.53 154.17L273.92 161.64H271.26L270.1 154.72H268.85L268.12 161.64H265.42ZM269.03 152.96H269.67C269.997 153.017 270.333 152.999 270.651 152.907C270.97 152.815 271.264 152.651 271.51 152.428C271.756 152.206 271.948 151.93 272.071 151.621C272.194 151.313 272.245 150.981 272.22 150.65C272.22 150.45 272.22 150.26 272.22 150.09C272.251 149.665 272.146 149.241 271.92 148.88C271.705 148.676 271.447 148.523 271.165 148.432C270.883 148.34 270.584 148.312 270.29 148.35H269.5L269.03 152.96Z" fill="#151E34"/>
<path d="M169.17 166.07H155.28L156.11 159.97C156.286 158.684 156.922 157.506 157.9 156.653C158.878 155.8 160.132 155.33 161.43 155.33H169.17C169.936 155.329 170.694 155.492 171.392 155.808C172.09 156.124 172.712 156.587 173.217 157.164C173.721 157.741 174.095 158.419 174.315 159.154C174.535 159.888 174.594 160.661 174.49 161.42C174.316 162.708 173.681 163.888 172.703 164.743C171.724 165.598 170.469 166.07 169.17 166.07Z" fill="#0A4586"/>
<path d="M169.17 166.07H158.32L159.15 159.97C159.329 158.685 159.965 157.508 160.943 156.656C161.92 155.803 163.173 155.332 164.47 155.33H169.17C169.936 155.329 170.694 155.492 171.392 155.808C172.09 156.124 172.712 156.587 173.217 157.164C173.721 157.741 174.095 158.419 174.315 159.154C174.535 159.888 174.594 160.661 174.49 161.42C174.316 162.708 173.681 163.888 172.703 164.743C171.724 165.598 170.469 166.07 169.17 166.07Z" fill="#328FD9"/>
<path d="M163.04 152.8H149.14L149.97 146.71C150.148 145.425 150.785 144.248 151.763 143.396C152.74 142.543 153.993 142.072 155.29 142.07H163.04C163.806 142.07 164.563 142.234 165.26 142.551C165.957 142.868 166.579 143.33 167.083 143.907C167.587 144.484 167.961 145.162 168.182 145.895C168.402 146.629 168.463 147.401 168.36 148.16C168.182 149.445 167.545 150.622 166.567 151.475C165.59 152.327 164.337 152.798 163.04 152.8Z" fill="#B32D11"/>
<path d="M163.04 152.8H152.18L153.02 146.71C153.194 145.424 153.83 144.244 154.808 143.391C155.787 142.537 157.042 142.068 158.34 142.07H163.04C163.806 142.07 164.563 142.234 165.26 142.551C165.957 142.868 166.579 143.33 167.083 143.907C167.587 144.484 167.961 145.162 168.182 145.895C168.402 146.629 168.463 147.401 168.36 148.16C168.182 149.445 167.545 150.622 166.567 151.475C165.59 152.327 164.337 152.798 163.04 152.8Z" fill="#ED2939"/>
<path d="M340.69 194.3H303.85C301.641 194.3 299.85 196.091 299.85 198.3V261.64C299.85 263.849 301.641 265.64 303.85 265.64H340.69C342.899 265.64 344.69 263.849 344.69 261.64V198.3C344.69 196.091 342.899 194.3 340.69 194.3Z" fill="#0A4586"/>
<path d="M332.03 202.96H295.19C292.981 202.96 291.19 204.751 291.19 206.96V270.3C291.19 272.509 292.981 274.3 295.19 274.3H332.03C334.239 274.3 336.03 272.509 336.03 270.3V206.96C336.03 204.751 334.239 202.96 332.03 202.96Z" fill="#328FD9"/>
<path d="M333.74 270.02V207.25C333.74 206.145 332.845 205.25 331.74 205.25H295.47C294.366 205.25 293.47 206.145 293.47 207.25V270.02C293.47 271.125 294.366 272.02 295.47 272.02H331.74C332.845 272.02 333.74 271.125 333.74 270.02Z" fill="white"/>
<path d="M313.9 233.52C315.316 235.306 316.934 236.924 318.72 238.34C318.764 238.376 318.799 238.421 318.824 238.472C318.848 238.523 318.861 238.578 318.861 238.635C318.861 238.692 318.848 238.747 318.824 238.798C318.799 238.849 318.764 238.894 318.72 238.93C316.934 240.343 315.317 241.957 313.9 243.74C313.866 243.786 313.821 243.823 313.77 243.848C313.719 243.873 313.662 243.887 313.605 243.887C313.548 243.887 313.491 243.873 313.44 243.848C313.389 243.823 313.345 243.786 313.31 243.74C311.897 241.957 310.283 240.343 308.5 238.93C308.454 238.896 308.418 238.851 308.392 238.8C308.367 238.749 308.353 238.692 308.353 238.635C308.353 238.578 308.367 238.522 308.392 238.47C308.418 238.419 308.454 238.375 308.5 238.34C310.283 236.924 311.897 235.306 313.31 233.52C313.346 233.476 313.391 233.441 313.442 233.417C313.493 233.392 313.549 233.38 313.605 233.38C313.662 233.38 313.717 233.392 313.768 233.417C313.819 233.441 313.864 233.476 313.9 233.52Z" fill="#FF4019"/>
<path d="M313.56 243.74C312.962 242.075 312.219 240.465 311.34 238.93C311.296 238.838 311.273 238.737 311.273 238.635C311.273 238.533 311.296 238.432 311.34 238.34C312.219 236.801 312.962 235.188 313.56 233.52C313.571 233.488 313.589 233.46 313.614 233.437C313.638 233.414 313.668 233.398 313.7 233.39C313.629 233.371 313.555 233.373 313.485 233.396C313.416 233.419 313.355 233.462 313.31 233.52C311.897 235.306 310.283 236.923 308.5 238.34C308.454 238.375 308.418 238.419 308.392 238.47C308.367 238.521 308.353 238.578 308.353 238.635C308.353 238.692 308.367 238.749 308.392 238.8C308.418 238.851 308.454 238.896 308.5 238.93C310.283 240.343 311.897 241.957 313.31 243.74C313.355 243.799 313.415 243.843 313.484 243.868C313.554 243.893 313.628 243.897 313.7 243.88C313.668 243.868 313.639 243.849 313.615 243.825C313.591 243.801 313.572 243.772 313.56 243.74Z" fill="#B32D11"/>
<path d="M299.05 216.93C299.658 217.695 300.353 218.386 301.12 218.99C301.139 219.006 301.154 219.026 301.165 219.048C301.175 219.071 301.181 219.095 301.181 219.12C301.181 219.145 301.175 219.169 301.165 219.192C301.154 219.214 301.139 219.234 301.12 219.25C300.353 219.854 299.658 220.546 299.05 221.31C299.035 221.329 299.016 221.344 298.994 221.354C298.973 221.365 298.949 221.37 298.925 221.37C298.901 221.37 298.877 221.365 298.856 221.354C298.834 221.344 298.815 221.329 298.8 221.31C298.193 220.548 297.502 219.857 296.74 219.25C296.719 219.235 296.703 219.216 296.691 219.193C296.679 219.171 296.673 219.145 296.673 219.12C296.673 219.095 296.679 219.07 296.691 219.047C296.703 219.024 296.719 219.005 296.74 218.99C297.502 218.383 298.193 217.692 298.8 216.93C298.815 216.911 298.834 216.896 298.856 216.886C298.877 216.875 298.901 216.87 298.925 216.87C298.949 216.87 298.973 216.875 298.994 216.886C299.016 216.896 299.035 216.911 299.05 216.93Z" fill="#FF4019"/>
<path d="M298.91 221.28C298.641 220.564 298.307 219.874 297.91 219.22C297.88 219.136 297.88 219.044 297.91 218.96C298.307 218.306 298.641 217.616 298.91 216.9C298.912 216.885 298.919 216.871 298.93 216.86C298.941 216.849 298.955 216.842 298.97 216.84C298.939 216.834 298.907 216.837 298.877 216.847C298.847 216.858 298.821 216.876 298.8 216.9C298.193 217.662 297.502 218.353 296.74 218.96C296.719 218.975 296.703 218.994 296.691 219.017C296.679 219.04 296.673 219.065 296.673 219.09C296.673 219.116 296.679 219.141 296.691 219.163C296.703 219.186 296.719 219.205 296.74 219.22C297.502 219.827 298.193 220.518 298.8 221.28C298.821 221.304 298.847 221.322 298.877 221.333C298.907 221.343 298.939 221.346 298.97 221.34C298.955 221.338 298.941 221.331 298.93 221.32C298.919 221.309 298.912 221.295 298.91 221.28Z" fill="#B32D11"/>
<path d="M300.41 215.37H299.67L298.47 212.65L298.09 213.12V215.35H297.46V209.35H298.1V212.19C298.27 211.87 298.45 211.56 298.62 211.26L299.69 209.37H300.41C299.72 210.58 299.23 211.44 298.93 211.95L300.41 215.37Z" fill="#FF4019"/>
<path d="M328 263.35C328.608 264.118 329.302 264.812 330.07 265.42C330.089 265.435 330.104 265.454 330.114 265.476C330.125 265.497 330.13 265.521 330.13 265.545C330.13 265.569 330.125 265.593 330.114 265.614C330.104 265.636 330.089 265.655 330.07 265.67C329.303 266.274 328.608 266.965 328 267.73C327.986 267.751 327.968 267.768 327.946 267.779C327.924 267.791 327.9 267.797 327.875 267.797C327.85 267.797 327.826 267.791 327.804 267.779C327.782 267.768 327.764 267.751 327.75 267.73C327.146 266.966 326.454 266.274 325.69 265.67C325.669 265.656 325.652 265.638 325.641 265.616C325.629 265.594 325.623 265.57 325.623 265.545C325.623 265.52 325.629 265.496 325.641 265.474C325.652 265.452 325.669 265.434 325.69 265.42C326.455 264.812 327.146 264.117 327.75 263.35C327.765 263.331 327.784 263.316 327.806 263.306C327.827 263.295 327.851 263.29 327.875 263.29C327.899 263.29 327.923 263.295 327.944 263.306C327.966 263.316 327.985 263.331 328 263.35Z" fill="#FF4019"/>
<path d="M327.86 267.73C327.591 267.014 327.257 266.324 326.86 265.67C326.83 265.589 326.83 265.501 326.86 265.42C327.257 264.762 327.591 264.069 327.86 263.35C327.869 263.345 327.879 263.342 327.89 263.342C327.901 263.342 327.911 263.345 327.92 263.35C327.895 263.334 327.865 263.326 327.835 263.326C327.805 263.326 327.775 263.334 327.75 263.35C327.146 264.117 326.455 264.812 325.69 265.42C325.669 265.434 325.652 265.452 325.641 265.474C325.629 265.496 325.623 265.52 325.623 265.545C325.623 265.57 325.629 265.594 325.641 265.616C325.652 265.638 325.669 265.656 325.69 265.67C326.454 266.274 327.146 266.966 327.75 267.73C327.769 267.756 327.795 267.776 327.826 267.786C327.856 267.797 327.889 267.798 327.92 267.79C327.905 267.788 327.891 267.781 327.88 267.77C327.869 267.759 327.862 267.745 327.86 267.73Z" fill="#B32D11"/>
<path d="M329.36 261.79H328.62L327.42 259.07L327.04 259.53V261.76H326.41V255.76H327.05V258.61C327.22 258.28 327.4 257.97 327.57 257.67L328.64 255.79H329.36C328.68 257 328.18 257.86 327.88 258.38L329.36 261.79Z" fill="#FF4019"/>
<path d="M260.75 206.6H186.19C182.876 206.6 180.19 209.286 180.19 212.6V256C180.19 259.314 182.876 262 186.19 262H260.75C264.064 262 266.75 259.314 266.75 256V212.6C266.75 209.286 264.064 206.6 260.75 206.6Z" fill="#0A4586"/>
<path d="M186.65 210.28H207.89V258.76H186.65C185.854 258.76 185.091 258.444 184.529 257.881C183.966 257.319 183.65 256.556 183.65 255.76V213.28C183.65 212.484 183.966 211.721 184.529 211.159C185.091 210.596 185.854 210.28 186.65 210.28Z" fill="white"/>
<path d="M201.74 248.66C201.4 248.66 201.12 248.84 201.12 249.07C201.12 249.3 201.27 249.38 201.49 249.44L198.19 251.81L196.08 249.44C196.34 249.39 196.53 249.24 196.53 249.05C196.53 248.86 196.26 248.64 195.92 248.64C195.58 248.64 195.3 248.82 195.3 249.05C195.3 249.28 195.5 249.4 195.76 249.44L193.9 251.8L190.35 249.4C190.56 249.34 190.71 249.2 190.71 249.03C190.71 248.86 190.44 248.62 190.1 248.62C189.76 248.62 189.49 248.8 189.48 249.03C189.47 249.26 189.76 249.44 190.09 249.44L190.5 254.03H201.06L201.68 249.43C202.02 249.43 202.29 249.24 202.29 249.02C202.29 248.8 202.07 248.66 201.74 248.66Z" fill="#FF4019"/>
<path d="M195.82 248.65C195.53 248.65 195.3 248.84 195.3 249.05C195.3 249.26 195.5 249.4 195.76 249.44L193.9 251.8L190.35 249.4C190.56 249.34 190.71 249.2 190.71 249.03C190.71 248.86 190.44 248.62 190.1 248.62C189.76 248.62 189.49 248.8 189.48 249.03C189.47 249.26 189.76 249.44 190.09 249.44L190.5 254.03H196.81L195.82 248.65Z" fill="#CC3314"/>
<path d="M201.93 216.28C201.93 213.81 199.76 211.77 196.98 211.28C196.859 211.084 196.687 210.923 196.484 210.814C196.28 210.705 196.051 210.652 195.82 210.66C195.59 210.654 195.363 210.711 195.162 210.823C194.962 210.936 194.795 211.101 194.68 211.3C191.91 211.78 189.86 213.85 189.9 216.3C189.94 218.75 192.04 220.79 194.78 221.24C194.884 221.477 195.057 221.676 195.276 221.812C195.496 221.948 195.752 222.013 196.01 222C196.268 222.012 196.523 221.943 196.74 221.804C196.957 221.664 197.125 221.46 197.22 221.22C199.95 220.84 201.97 218.77 201.93 216.28Z" fill="#FF4019"/>
<path d="M193.921 219.543C195.252 219.504 196.288 218.035 196.235 216.263C196.182 214.491 195.061 213.087 193.731 213.126C192.4 213.166 191.365 214.634 191.417 216.406C191.47 218.178 192.591 219.583 193.921 219.543Z" fill="#CC3314"/>
<path d="M235.59 210.24H211.35V258.72H235.59V210.24Z" fill="white"/>
<path d="M229.44 213.75C229.1 213.75 228.82 213.93 228.82 214.16C228.82 214.39 228.97 214.47 229.19 214.53L225.89 216.9L223.78 214.53C224.04 214.53 224.23 214.33 224.23 214.14C224.23 213.95 223.96 213.73 223.62 213.73C223.28 213.73 223 213.91 223 214.14C223 214.37 223.2 214.49 223.46 214.53L221.61 216.89L218.05 214.49C218.26 214.43 218.41 214.29 218.41 214.12C218.41 213.95 218.14 213.71 217.8 213.71C217.46 213.71 217.19 213.89 217.19 214.12C217.19 214.35 217.46 214.53 217.79 214.53L218.2 219.12H228.76L229.38 214.52C229.72 214.52 229.99 214.33 230 214.11C230.01 213.89 229.77 213.75 229.44 213.75Z" fill="#328FD9"/>
<path d="M223.5 213.74C223.21 213.74 222.98 213.93 222.98 214.14C222.98 214.35 223.18 214.49 223.44 214.53L221.59 216.89L218.03 214.49C218.24 214.43 218.39 214.29 218.39 214.12C218.39 213.95 218.12 213.71 217.78 213.71C217.44 213.71 217.17 213.89 217.17 214.12C217.17 214.35 217.44 214.53 217.77 214.53L218.18 219.12H224.49L223.5 213.74Z" fill="#0A4586"/>
<path d="M223.58 245.87L225.65 250.04L232.23 250.01L226.93 252.61L229 256.77L223.65 254.22L218.35 256.82L220.35 252.64L215 250.08L221.58 250.05L223.58 245.87Z" fill="#FF4019"/>
<path d="M225.21 253.18L219.91 255.78L221.91 251.6L218.7 250.06L215 250.08L220.35 252.64L218.35 256.82L223.65 254.22L229 256.77L227.83 254.43L225.21 253.18Z" fill="#CC3314"/>
<path d="M195.88 225.68L197.95 231.93L204.53 231.89L199.23 235.79L201.3 242.03L195.95 238.2L190.65 242.1L192.65 235.83L187.3 231.99L193.88 231.95L195.88 225.68Z" fill="#328FD9"/>
<path d="M197.51 236.64L192.21 240.54L194.21 234.27L191 231.97L187.3 231.99L192.65 235.83L190.65 242.1L195.95 238.2L201.3 242.03L200.13 238.52L197.51 236.64Z" fill="#0A4586"/>
<path d="M229.63 233.72C229.63 230.01 227.46 226.95 224.63 226.3C224.559 226.043 224.409 225.815 224.2 225.648C223.992 225.481 223.737 225.383 223.47 225.37C223.198 225.393 222.941 225.503 222.736 225.683C222.531 225.863 222.389 226.104 222.33 226.37C219.56 227.09 217.51 230.2 217.55 233.91C217.59 237.62 219.69 240.64 222.44 241.32C222.486 241.619 222.631 241.895 222.853 242.101C223.074 242.308 223.358 242.434 223.66 242.46C223.964 242.429 224.248 242.297 224.468 242.085C224.687 241.872 224.829 241.593 224.87 241.29C227.65 240.49 229.67 237.4 229.63 233.72Z" fill="#328FD9"/>
<path d="M221.475 238.62C222.806 238.605 223.86 236.439 223.83 233.783C223.799 231.126 222.695 228.985 221.365 229.001C220.034 229.016 218.98 231.182 219.01 233.838C219.041 236.494 220.144 238.635 221.475 238.62Z" fill="#0A4586"/>
<path d="M239.05 210.28H260.29C261.086 210.28 261.849 210.596 262.411 211.159C262.974 211.721 263.29 212.484 263.29 213.28V255.76C263.29 256.556 262.974 257.319 262.411 257.881C261.849 258.444 261.086 258.76 260.29 258.76H239.05V210.28Z" fill="white"/>
<path d="M257.14 229.86C257.059 229.859 256.979 229.873 256.904 229.904C256.828 229.934 256.76 229.978 256.702 230.035C256.645 230.092 256.599 230.16 256.567 230.234C256.536 230.309 256.52 230.389 256.52 230.47C256.521 230.59 256.556 230.708 256.622 230.809C256.687 230.91 256.78 230.99 256.89 231.04L253.59 234.59L251.48 231.03C251.609 230.997 251.723 230.922 251.804 230.817C251.886 230.712 251.93 230.583 251.93 230.45C251.932 230.333 251.901 230.218 251.841 230.118C251.781 230.019 251.694 229.938 251.59 229.885C251.486 229.832 251.369 229.81 251.253 229.821C251.136 229.832 251.026 229.875 250.933 229.946C250.841 230.017 250.77 230.113 250.729 230.222C250.688 230.332 250.679 230.45 250.703 230.564C250.727 230.679 250.782 230.784 250.863 230.868C250.944 230.952 251.047 231.012 251.16 231.04L249.31 234.57L245.75 230.98C245.857 230.93 245.948 230.852 246.012 230.752C246.075 230.653 246.11 230.538 246.11 230.42C246.11 230.258 246.046 230.103 245.931 229.989C245.817 229.874 245.662 229.81 245.5 229.81C245.42 229.809 245.34 229.824 245.265 229.854C245.19 229.884 245.123 229.929 245.066 229.986C245.009 230.043 244.964 230.11 244.934 230.185C244.904 230.26 244.889 230.34 244.89 230.42C244.89 230.582 244.954 230.737 245.069 230.851C245.183 230.966 245.338 231.03 245.5 231.03L245.91 237.92H256.48L257.09 231.03C257.252 231.028 257.407 230.963 257.522 230.849C257.638 230.736 257.705 230.582 257.71 230.42C257.696 230.274 257.632 230.138 257.527 230.036C257.423 229.934 257.286 229.871 257.14 229.86Z" fill="#FF4019"/>
<path d="M251.22 229.84C251.078 229.865 250.948 229.939 250.854 230.048C250.759 230.157 250.705 230.296 250.7 230.44C250.7 230.577 250.745 230.71 250.828 230.818C250.911 230.927 251.028 231.005 251.16 231.04L249.31 234.57L245.75 230.98C245.857 230.93 245.948 230.852 246.012 230.752C246.075 230.653 246.11 230.538 246.11 230.42C246.11 230.258 246.046 230.103 245.931 229.989C245.817 229.874 245.662 229.81 245.5 229.81C245.42 229.809 245.34 229.824 245.265 229.854C245.19 229.884 245.123 229.929 245.066 229.986C245.009 230.043 244.964 230.11 244.934 230.185C244.904 230.26 244.889 230.34 244.89 230.42C244.89 230.582 244.954 230.737 245.069 230.851C245.183 230.966 245.338 231.03 245.5 231.03L245.91 237.92H252.22L251.22 229.84Z" fill="#CC3314"/>
<path d="M251.28 210.96L253.35 215.13L259.93 215.1L254.63 217.7L256.7 221.86L251.35 219.31L246.05 221.91L248.05 217.72L242.7 215.17L249.28 215.14L251.28 210.96Z" fill="#328FD9"/>
<path d="M252.91 218.27L247.61 220.87L249.61 216.69L246.4 215.15L242.7 215.17L248.05 217.72L246.05 221.91L251.35 219.31L256.7 221.86L255.53 219.52L252.91 218.27Z" fill="#0A4586"/>
<path d="M257.33 251.28C257.33 248.81 255.16 246.77 252.33 246.28C252.208 246.086 252.038 245.926 251.837 245.815C251.636 245.704 251.41 245.646 251.18 245.646C250.95 245.646 250.725 245.704 250.524 245.815C250.322 245.926 250.153 246.086 250.03 246.28C247.26 246.76 245.21 248.83 245.25 251.28C245.29 253.73 247.39 255.77 250.14 256.22C250.241 256.458 250.414 256.66 250.634 256.796C250.854 256.932 251.112 256.996 251.37 256.98C251.626 256.99 251.879 256.92 252.094 256.781C252.309 256.641 252.475 256.438 252.57 256.2C255.35 255.75 257.37 253.68 257.33 251.28Z" fill="#328FD9"/>
<path d="M249.323 254.444C250.653 254.405 251.689 252.936 251.636 251.164C251.584 249.392 250.462 247.988 249.132 248.027C247.802 248.067 246.766 249.535 246.818 251.307C246.871 253.079 247.992 254.484 249.323 254.444Z" fill="#0A4586"/>
<path d="M266.75 222.87C267.668 222.87 268.548 223.235 269.197 223.883C269.845 224.532 270.21 225.412 270.21 226.33V242.6C270.21 243.518 269.845 244.398 269.197 245.047C268.548 245.696 267.668 246.06 266.75 246.06V222.86V222.87Z" fill="#0A4586"/>
<path d="M271.95 235.34H270.21V233.61H271.95C272.179 233.607 272.398 233.515 272.559 233.352C272.72 233.189 272.81 232.969 272.81 232.74V217.16H274.5V232.74C274.5 233.421 274.233 234.075 273.756 234.561C273.279 235.047 272.631 235.327 271.95 235.34Z" fill="#328FD9"/>
<path d="M273.76 220.36C275.097 220.36 276.18 219.277 276.18 217.94C276.18 216.604 275.097 215.52 273.76 215.52C272.424 215.52 271.34 216.604 271.34 217.94C271.34 219.277 272.424 220.36 273.76 220.36Z" fill="#FF4019"/>
<path d="M134.34 0H16.5C12.0817 0 8.5 3.58172 8.5 8V49.36C8.5 53.7783 12.0817 57.36 16.5 57.36H134.34C138.758 57.36 142.34 53.7783 142.34 49.36V8C142.34 3.58172 138.758 0 134.34 0Z" fill="#ED2939"/>
<path d="M17.1 70.74V57.36H30.49L17.1 70.74Z" fill="#ED2939"/>
<path d="M178.5 69.74H91.09C86.6717 69.74 83.09 73.3217 83.09 77.74V106.06C83.09 110.478 86.6717 114.06 91.09 114.06H178.5C182.918 114.06 186.5 110.478 186.5 106.06V77.74C186.5 73.3217 182.918 69.74 178.5 69.74Z" fill="#328FD9"/>
<path d="M89.74 124.4V114.06H100.08L89.74 124.4Z" fill="#328FD9"/>
<path d="M129.47 24.39H20.59C20.0377 24.39 19.59 24.8377 19.59 25.39V30.04C19.59 30.5923 20.0377 31.04 20.59 31.04H129.47C130.022 31.04 130.47 30.5923 130.47 30.04V25.39C130.47 24.8377 130.022 24.39 129.47 24.39Z" fill="white"/>
<path d="M106.6 37.6901H20.59C20.0377 37.6901 19.59 38.1378 19.59 38.6901V43.3401C19.59 43.8924 20.0377 44.3401 20.59 44.3401H106.6C107.152 44.3401 107.6 43.8924 107.6 43.3401V38.6901C107.6 38.1378 107.152 37.6901 106.6 37.6901Z" fill="white"/>
<path d="M175.58 88.9H91.91C91.3577 88.9 90.91 89.3477 90.91 89.9V93.04C90.91 93.5923 91.3577 94.04 91.91 94.04H175.58C176.132 94.04 176.58 93.5923 176.58 93.04V89.9C176.58 89.3477 176.132 88.9 175.58 88.9Z" fill="white"/>
<path d="M146.5 99.1801H91.91C91.3577 99.1801 90.91 99.6278 90.91 100.18V103.32C90.91 103.872 91.3577 104.32 91.91 104.32H146.5C147.052 104.32 147.5 103.872 147.5 103.32V100.18C147.5 99.6278 147.052 99.1801 146.5 99.1801Z" fill="white"/>
<path d="M132.74 78.62H91.91C91.3577 78.62 90.91 79.0677 90.91 79.62V82.76C90.91 83.3123 91.3577 83.76 91.91 83.76H132.74C133.292 83.76 133.74 83.3123 133.74 82.76V79.62C133.74 79.0677 133.292 78.62 132.74 78.62Z" fill="#0A4586"/>
<defs>
<linearGradient id="paint0_linear" x1="346.094" y1="132.49" x2="406.905" y2="71.6789" gradientUnits="userSpaceOnUse">
<stop stop-color="#ECF1FE" stop-opacity="0"/>
<stop offset="0.27" stop-color="#ECD9E6" stop-opacity="0.02"/>
<stop offset="0.62" stop-color="#EC94A2" stop-opacity="0.09"/>
<stop offset="1" stop-color="#ED2939" stop-opacity="0.2"/>
</linearGradient>
<linearGradient id="paint1_linear" x1="24.5031" y1="315.078" x2="324.503" y2="315.078" gradientUnits="userSpaceOnUse">
<stop stop-color="#ECF1FE"/>
<stop offset="0.1" stop-color="#ECF1FE" stop-opacity="0.94"/>
<stop offset="0.29" stop-color="#ECF1FE" stop-opacity="0.77"/>
<stop offset="0.56" stop-color="#ECF1FE" stop-opacity="0.5"/>
<stop offset="0.89" stop-color="#ECF1FE" stop-opacity="0.13"/>
<stop offset="1" stop-color="#ECF1FE" stop-opacity="0"/>
</linearGradient>
</defs>
</svg>
