<svg width="18" height="12" viewBox="0 0 18 12" fill="none" xmlns="http://www.w3.org/2000/svg">
<g clip-path="url(#clip0_7560_35815)">
<path d="M17.6025 1.87167C17.4992 1.5099 17.2978 1.1801 17.0183 0.915085C16.7388 0.650075 16.391 0.459107 16.0095 0.3612C14.6126 0 8.99087 0 8.99087 0C8.99087 0 3.36883 0.0109333 1.972 0.372133C1.59045 0.470047 1.24261 0.661024 0.963115 0.926047C0.683623 1.19107 0.482232 1.52089 0.378998 1.88267C-0.0435099 4.23587 -0.207408 7.8216 0.390599 10.0807C0.493844 10.4424 0.69524 10.7722 0.974731 11.0372C1.25422 11.3023 1.60206 11.4932 1.9836 11.5911C3.38043 11.9523 9.00233 11.9523 9.00233 11.9523C9.00233 11.9523 14.6242 11.9523 16.0209 11.5911C16.4025 11.4932 16.7503 11.3023 17.0298 11.0373C17.3093 10.7723 17.5107 10.4424 17.614 10.0807C18.0596 7.72413 18.197 4.1406 17.6025 1.87167Z" fill="#F70808"/>
<path d="M7.20312 8.53646L11.8668 5.97526L7.20312 3.41406V8.53646Z" fill="white"/>
</g>
<defs>
<clipPath id="clip0_7560_35815">
<rect width="18" height="12" fill="white"/>
</clipPath>
</defs>
</svg>
