<svg width="24" height="24" viewBox="0 0 24 24" fill="none" xmlns="http://www.w3.org/2000/svg">
<path d="M18.3385 0.0049936L15.049 0C11.3535 0 8.96524 2.31828 8.96524 5.90643V8.62969H5.65786C5.37206 8.62969 5.14062 8.84891 5.14062 9.11932V13.065C5.14062 13.3354 5.37232 13.5544 5.65786 13.5544H8.96524V23.5106C8.96524 23.781 9.19667 24 9.48247 24H13.7977C14.0835 24 14.3149 23.7808 14.3149 23.5106V13.5544H18.182C18.4678 13.5544 18.6992 13.3354 18.6992 13.065L18.7008 9.11932C18.7008 8.98948 18.6462 8.86514 18.5493 8.77326C18.4525 8.68138 18.3205 8.62969 18.1833 8.62969H14.3149V6.32115C14.3149 5.21157 14.5943 4.64829 16.122 4.64829L18.3379 4.64755C18.6235 4.64755 18.8549 4.42833 18.8549 4.15817V0.494367C18.8549 0.224462 18.6237 0.00549296 18.3385 0.0049936Z" fill="#FFBD13"/>
</svg>
