<svg width="60" height="60" viewBox="0 0 60 60" fill="none" xmlns="http://www.w3.org/2000/svg">
<path fill-rule="evenodd" clip-rule="evenodd" d="M29.9961 60C35.9297 60.0008 41.7303 58.2419 46.6643 54.946C51.5983 51.65 55.444 46.9649 57.7153 41.4832C59.9865 36.0015 60.5811 29.9693 59.424 24.1497C58.2669 18.33 55.41 12.9841 51.2146 8.78817C47.0191 4.59221 41.6737 1.73461 35.8541 0.576737C30.0346 -0.581131 24.0024 0.0127424 18.5204 2.28326C13.0384 4.55377 8.35279 8.39895 5.05617 13.3325C1.75956 18.2661 4.90403e-08 24.0664 0 30C0.0142718 37.9514 3.17903 45.5732 8.8012 51.1961C14.4234 56.819 22.0447 59.9847 29.9961 60Z" fill="#F31C45"/>
<path fill-rule="evenodd" clip-rule="evenodd" d="M29.996 58.9279C35.7173 58.9279 41.3102 57.2313 46.0674 54.0527C50.8245 50.8741 54.5323 46.3562 56.7217 41.0704C58.9112 35.7845 59.4841 29.9681 58.3679 24.3567C57.2517 18.7452 54.4966 13.5908 50.451 9.54519C46.4054 5.49958 41.2509 2.74448 35.6395 1.6283C30.0281 0.512116 24.2117 1.08499 18.9258 3.27446C13.64 5.46393 9.12206 9.17167 5.94344 13.9288C2.76482 18.686 1.06824 24.2788 1.06824 30.0002C1.08353 37.6676 4.13617 45.0166 9.55786 50.4383C14.9796 55.86 22.3286 58.9126 29.996 58.9279Z" fill="#F31C45"/>
<path fill-rule="evenodd" clip-rule="evenodd" d="M29.9965 1.88245C31.7901 1.88245 32.7659 3.91124 34.2971 4.1658C35.8284 4.42037 37.9305 3.00869 39.184 3.41754C40.8734 4.01152 41.1472 6.23317 42.5126 6.97372C43.878 7.71427 46.3272 7.04701 47.3763 7.84927C48.7803 8.96395 48.3174 11.1509 49.3704 12.2926C50.4234 13.4342 52.9536 13.604 53.6864 14.7032C54.6546 16.2113 53.5052 18.1321 54.1261 19.5554C54.7471 20.9786 57.0922 21.9544 57.4278 23.235C57.852 24.9745 56.1434 26.417 56.2706 27.9637C56.3979 29.5104 58.2956 31.1997 58.1992 32.5188C58.0333 34.3008 55.9467 35.1108 55.5648 36.615C55.183 38.1192 56.4326 40.3332 55.9119 41.5481C55.1791 43.1797 52.942 43.2684 52.0935 44.5682C51.2449 45.868 51.7078 48.3635 50.8168 49.3432C49.5941 50.6507 47.4496 50.0105 46.2231 50.9631C44.9965 51.9158 44.6224 54.4345 43.4653 55.067C41.8839 55.904 40.0634 54.6003 38.5977 55.1056C37.1321 55.6109 35.9595 57.8634 34.6558 58.091C32.8855 58.3725 31.5702 56.5481 30.0274 56.5481C28.4846 56.5481 26.6371 58.2992 25.3295 58.091C23.5669 57.7824 22.9305 55.634 21.4725 55.1326C20.0145 54.6312 17.7003 55.688 16.5316 55.067C14.9618 54.2031 15.0583 51.9814 13.8317 51.0133C12.6052 50.0452 10.0788 50.3113 9.17628 49.3471C7.97289 48.0164 8.79058 45.9336 7.94204 44.6338C7.09349 43.334 4.62113 42.7554 4.085 41.5481C3.37917 39.9012 4.82941 38.1964 4.44757 36.6921C4.06572 35.1879 1.91735 33.8341 1.79779 32.5188C1.66665 30.733 3.59131 29.5914 3.7263 28.0408C3.8613 26.4903 2.26063 24.5194 2.56919 23.235C3.02047 21.5032 5.21126 21.048 5.8361 19.6248C6.46094 18.2015 5.59696 15.8179 6.31051 14.7032C7.30177 13.2144 9.51956 13.496 10.5532 12.3504C11.5869 11.2049 11.5599 8.67082 12.5975 7.84927C14.0207 6.76159 16.0302 7.74899 17.3956 7.01229C18.761 6.2756 19.544 3.85724 20.7898 3.41754C22.4908 2.85055 24.0683 4.43579 25.5995 4.18894C27.1308 3.94209 28.6736 1.89402 29.9965 1.88245Z" fill="#1BA098"/>
<path fill-rule="evenodd" clip-rule="evenodd" d="M34.293 3.9419C35.9284 4.22732 36.5223 6.21755 37.8839 6.68425C39.2454 7.15095 41.3899 6.16355 42.4737 6.73439C43.9278 7.53665 43.843 9.61174 44.9808 10.495C46.1186 11.3783 48.4521 11.1391 49.3045 12.0378C50.4231 13.2682 49.6671 15.2006 50.4617 16.4078C51.2562 17.6151 53.5473 18.1474 54.0525 19.2659C54.7082 20.7894 53.366 22.3747 53.7208 23.7709C54.0757 25.1671 56.0736 26.4207 56.1893 27.6279C56.3128 29.2865 54.5308 30.3471 54.4113 31.7858C54.2917 33.2245 55.7766 35.0527 55.4874 36.2445C55.0708 37.8529 53.0382 38.2772 52.4596 39.6002C51.881 40.9231 52.691 43.1332 52.0315 44.1669C51.1135 45.5516 49.05 45.2931 48.078 46.3577C47.106 47.4222 47.1485 49.775 46.1881 50.5348C44.869 51.5492 43.0022 50.6351 41.737 51.3062C40.4719 51.9774 39.7507 54.2607 38.5936 54.685C37.0199 55.2173 35.5504 53.7477 34.131 53.9869C32.7116 54.226 31.2999 56.1121 30.0734 56.1237C28.411 56.1237 27.4969 54.2453 26.0775 54.01C24.6581 53.7747 22.6949 55.0707 21.5301 54.685C19.9641 54.1334 19.7057 52.0738 18.4444 51.3911C17.1832 50.7084 14.9037 51.3294 13.9278 50.585C12.6203 49.5551 13.0484 47.5225 12.0726 46.4618C11.0968 45.4011 8.74399 45.2546 8.0613 44.2324C7.16261 42.8362 8.22329 41.0543 7.64474 39.7351C7.06619 38.416 4.88696 37.5096 4.55911 36.3255C4.17341 34.7094 5.74708 33.3672 5.62751 31.9324C5.50795 30.4976 3.74142 28.9355 3.83014 27.7128C3.98056 26.0543 5.91293 25.3021 6.26392 23.9059C6.61491 22.5097 5.4578 20.4577 5.93993 19.3276C6.61491 17.8118 8.69 17.7269 9.47683 16.5197C10.2637 15.3124 9.83168 12.9944 10.6532 12.0841C11.7872 10.8691 13.7774 11.4631 14.896 10.576C16.0145 9.68889 16.3732 7.35538 17.4455 6.76139C18.915 5.98999 20.6044 7.18953 21.9659 6.71897C23.3274 6.24841 24.4113 4.1579 25.6185 3.9419C27.2577 3.67963 28.465 5.36901 29.9075 5.36901C31.3501 5.36901 33.0819 3.7722 34.293 3.9419Z" fill="#0B1014"/>
<path fill-rule="evenodd" clip-rule="evenodd" d="M34.3501 3.65674C35.3414 3.8303 35.9623 4.53614 36.5602 5.21883C37.0037 5.72796 37.4396 6.22551 37.9834 6.41065C38.5851 6.61507 39.399 6.50322 40.1896 6.41065C41.0961 6.28337 41.9754 6.16381 42.6157 6.49937C43.499 6.98535 43.8538 7.84933 44.201 8.69402C44.4555 9.31886 44.7062 9.92826 45.1614 10.2793C45.6165 10.6302 46.4689 10.827 47.248 10.9774C48.1506 11.1548 49.0222 11.3245 49.5159 11.8491C50.1948 12.5973 50.2488 13.5346 50.2874 14.441C50.261 15.0681 50.3937 15.6917 50.6731 16.2538C51.0202 16.7861 51.7337 17.1988 52.4203 17.5922C53.2187 18.055 53.9862 18.4986 54.2832 19.1543C54.6689 20.08 54.4298 20.9825 54.183 21.8542C54.0017 22.5022 53.8242 23.1386 53.967 23.6979C54.1097 24.2571 54.6651 24.9321 55.1858 25.53C55.7875 26.2242 56.3737 26.8915 56.4393 27.6128C56.5165 28.6156 55.9842 29.387 55.4673 30.1391C55.0816 30.6945 54.6959 31.2384 54.6651 31.8131C54.6149 32.4456 54.9235 33.2054 55.2243 33.9421C55.5715 34.7945 55.9032 35.6161 55.7335 36.3181C55.4789 37.2939 54.7268 37.8609 53.994 38.3932C53.455 38.7174 53.0066 39.1725 52.6903 39.7161C52.4357 40.2947 52.482 41.1162 52.5244 41.9108C52.5784 42.8287 52.6247 43.712 52.239 44.3214C51.6797 45.1661 50.7888 45.4477 49.9248 45.7215C49.2807 45.9259 48.652 46.1072 48.2624 46.5469C47.8729 46.9866 47.6106 47.8043 47.3946 48.5719C47.1439 49.4551 46.9047 50.3114 46.3377 50.7588C45.5393 51.3721 44.6021 51.3489 43.6918 51.3258C43.0168 51.3258 42.3573 51.2949 41.852 51.5688C41.3468 51.8426 40.8261 52.5485 40.3748 53.2003C39.8502 53.9717 39.3449 54.6853 38.6623 54.9282C37.7057 55.2522 36.8302 54.9282 35.9623 54.6081C35.3978 54.3278 34.7715 54.1951 34.1418 54.2224C33.5208 54.3265 32.8574 54.8125 32.2133 55.2869C31.4727 55.8308 30.7553 56.3553 30.0341 56.3631C29.0235 56.3631 28.2984 55.7614 27.5964 55.1867C27.1501 54.7677 26.6088 54.4633 26.0189 54.2995C25.3941 54.1993 24.6072 54.4423 23.8474 54.6853C22.9719 54.9591 22.1272 55.2252 21.4406 54.9977C20.4879 54.6621 19.9942 53.8637 19.5121 53.0923C19.2338 52.5282 18.8172 52.0439 18.301 51.6845C17.7417 51.3836 16.9202 51.3605 16.1256 51.3374C15.2076 51.3142 14.3205 51.2911 13.7458 50.8514C12.9744 50.2265 12.7469 49.3086 12.5463 48.4214C12.3959 47.7657 12.2493 47.1216 11.8559 46.6973C11.4625 46.2731 10.6563 45.9259 9.92737 45.6675C9.06725 45.3435 8.23799 45.035 7.83686 44.4333C7.28916 43.5847 7.38945 42.6513 7.48587 41.7333C7.61255 41.1173 7.58204 40.4793 7.39716 39.8781C7.14259 39.2957 6.50618 38.775 5.89292 38.2697C5.18322 37.6873 4.50053 37.1126 4.31539 36.4261C4.07626 35.4425 4.47353 34.5978 4.85923 33.7724C5.14465 33.163 5.42622 32.5652 5.37608 31.9866C5.32593 31.4081 4.89008 30.656 4.47353 29.981C3.9914 29.2096 3.52855 28.4382 3.58255 27.7207C3.67126 26.7141 4.3231 26.0429 4.95565 25.3872C5.43339 24.9781 5.80075 24.4556 6.02405 23.8676C6.17834 23.2543 5.99705 22.4521 5.82349 21.6768C5.62292 20.7781 5.43779 19.9141 5.71164 19.2507C6.12434 18.325 6.96131 17.9007 7.77129 17.488C8.37299 17.1795 8.95925 16.8825 9.27167 16.4004C9.58409 15.9182 9.70752 15.0504 9.79623 14.2597C9.89651 13.3456 9.99294 12.4662 10.4789 11.9455C11.1655 11.2049 12.095 11.0738 12.9937 10.9465C13.6226 10.9199 14.2344 10.7341 14.7718 10.4065C15.2694 10.0208 15.6204 9.27258 15.9598 8.55131C16.3455 7.72205 16.7312 6.91978 17.3599 6.56879C18.2547 6.09438 19.1727 6.27181 20.0598 6.44152C20.7232 6.5688 21.3712 6.69607 21.9189 6.50708C22.5129 6.30266 23.076 5.71253 23.643 5.14169C24.2832 4.48213 24.9042 3.84572 25.6139 3.71844C26.6129 3.5603 27.4229 4.02315 28.2136 4.48985C28.7998 4.82541 29.3707 5.15326 29.9492 5.15326C30.5278 5.15326 31.3146 4.76756 32.0243 4.42042C32.842 4.00386 33.6327 3.60274 34.3385 3.71459L34.3501 3.65674ZM36.1282 5.58525C35.5959 4.97584 35.0444 4.351 34.2498 4.21215C33.7214 4.13115 33.0156 4.48986 32.2789 4.86013C31.5422 5.2304 30.7168 5.65468 29.9454 5.65468C29.174 5.65468 28.5645 5.31526 27.9127 4.92955C27.2609 4.54385 26.4895 4.11186 25.6988 4.23914C25.1704 4.33171 24.6149 4.90255 24.0403 5.49268C23.4656 6.0828 22.8176 6.75007 22.0886 7.00078C21.402 7.23606 20.6769 7.09721 19.9364 6.95836C19.1958 6.8195 18.328 6.64593 17.6222 7.02392C17.1516 7.28234 16.8122 8.00361 16.465 8.74801C16.1179 9.49242 15.7168 10.3333 15.1112 10.8115C14.5057 11.2898 13.8037 11.3631 13.0593 11.4672C12.3149 11.5714 11.4355 11.6986 10.8878 12.2849C10.5291 12.6706 10.4404 13.4729 10.3516 14.2944C10.2629 15.116 10.1588 16.0378 9.73838 16.6819C9.31796 17.3261 8.68155 17.6308 8.01428 17.9702C7.34702 18.3096 6.55247 18.7184 6.22077 19.4474C6.00863 19.9411 6.18219 20.7202 6.36347 21.5225C6.54476 22.3248 6.74918 23.235 6.56018 23.9833C6.37119 24.7315 5.86977 25.2175 5.34907 25.7614C4.82837 26.3052 4.19197 26.9416 4.13411 27.74C4.09554 28.2723 4.51981 28.9511 4.94408 29.6686C5.36836 30.386 5.86592 31.1651 5.92763 31.9326C5.98934 32.7002 5.67692 33.325 5.35679 34.0077C5.03666 34.6904 4.66252 35.4965 4.85537 36.2795C4.99423 36.7963 5.60749 37.2978 6.24005 37.8223C6.8726 38.3469 7.59772 38.937 7.90629 39.6428C8.21485 40.3487 8.12228 41.0429 8.04128 41.7912C7.96028 42.5395 7.86772 43.4227 8.30356 44.1054C8.60441 44.549 9.34496 44.8267 10.1164 45.116C10.8878 45.4052 11.7595 45.7292 12.284 46.2962C12.8086 46.8632 12.9397 47.5497 13.1056 48.2826C13.2714 49.0154 13.4913 49.8832 14.1045 50.3847C14.5288 50.7086 15.3234 50.7279 16.1449 50.7511C16.9665 50.7742 17.8999 50.7974 18.5787 51.1638C19.2575 51.5302 19.6085 52.1357 20.0058 52.776C20.4031 53.4163 20.8698 54.1723 21.6296 54.4384C22.1387 54.6042 22.8947 54.369 23.6815 54.1221C24.4684 53.8753 25.3555 53.5976 26.1153 53.7364C26.8752 53.8753 27.4074 54.3188 27.9899 54.7971C28.5723 55.2754 29.2588 55.8385 30.0611 55.8424C30.5972 55.8424 31.2375 55.3679 31.9009 54.8781C32.5643 54.3883 33.3164 53.8367 34.0763 53.721C34.8361 53.6053 35.4841 53.856 36.1899 54.1067C36.9613 54.3883 37.7327 54.6775 38.5041 54.423C39.0094 54.2417 39.4645 53.5899 39.9312 52.911C40.3979 52.2322 40.9341 51.4685 41.609 51.1021C42.284 50.7357 42.986 50.7704 43.7381 50.7897C44.4902 50.8089 45.3774 50.8282 46.0176 50.3422C46.438 50.0067 46.654 49.243 46.8777 48.4484C47.1014 47.6539 47.356 46.7591 47.8767 46.1921C48.3974 45.6251 49.0724 45.4207 49.8052 45.2047C50.5381 44.9887 51.3712 44.711 51.8147 44.0476C52.1002 43.5963 52.0577 42.8017 52.0114 41.9802C51.9652 41.1586 51.915 40.2291 52.2236 39.5233C52.5321 38.8174 53.1068 38.4163 53.7124 37.9805C54.318 37.5446 55.0315 37.0046 55.2359 36.2294C55.3593 35.7087 55.0624 34.972 54.7499 34.2044C54.4375 33.4369 54.0904 32.5806 54.1521 31.8131C54.2138 31.0455 54.6304 30.4785 55.0546 29.8575C55.4789 29.2366 55.988 28.5076 55.9263 27.7015C55.8762 27.1692 55.3516 26.5714 54.8116 25.9504C54.2717 25.3294 53.6545 24.6274 53.4694 23.883C53.2843 23.1386 53.4694 22.4675 53.6893 21.7423C53.9091 21.0172 54.1328 20.161 53.8127 19.4281C53.589 18.9421 52.9024 18.5449 52.1927 18.136C51.483 17.7272 50.6692 17.2566 50.2642 16.6164C49.8592 15.9761 49.8207 15.2702 49.7782 14.5181C49.7281 13.7082 49.6818 12.8789 49.138 12.2811C48.7715 11.8954 47.9808 11.7411 47.1863 11.5829C46.3917 11.4248 45.4622 11.2474 44.8721 10.7768C44.282 10.3063 44.0158 9.6467 43.715 8.95243C43.4103 8.20417 43.094 7.43662 42.3881 7.04706C41.9137 6.80021 41.1269 6.90822 40.3131 7.02007C39.4992 7.13192 38.5735 7.26306 37.8446 7.02007C37.1156 6.77708 36.6142 6.16766 36.1205 5.60067L36.1282 5.58525Z" fill="#F31C45"/>
<path fill-rule="evenodd" clip-rule="evenodd" d="M29.9956 53.1579C34.576 53.1588 39.0538 51.8013 42.8627 49.2572C46.6715 46.7131 49.6404 43.0967 51.3939 38.8652C53.1473 34.6337 53.6066 29.9773 52.7135 25.4848C51.8205 20.9923 49.6152 16.8656 46.3767 13.6265C43.1382 10.3873 39.0119 8.18132 34.5196 7.28741C30.0273 6.3935 25.3707 6.85184 21.1389 8.60448C16.9071 10.3571 13.2901 13.3253 10.7453 17.1337C8.20046 20.9421 6.84216 25.4196 6.84216 30C6.8527 36.1378 9.29532 42.0213 13.635 46.3619C17.9747 50.7024 23.8578 53.1462 29.9956 53.1579V53.1579Z" fill="#DEB992"/>
<path fill-rule="evenodd" clip-rule="evenodd" d="M30.0114 1.43484C30.1168 1.43484 30.2199 1.40352 30.3075 1.34486C30.3951 1.2862 30.4634 1.20284 30.5035 1.10535C30.5437 1.00787 30.554 0.900655 30.5332 0.797301C30.5123 0.693947 30.4612 0.599115 30.3864 0.524832C30.3116 0.450549 30.2164 0.400164 30.1129 0.380064C30.0094 0.359964 29.9022 0.371049 29.805 0.411927C29.7078 0.452806 29.625 0.521626 29.567 0.609664C29.5089 0.697701 29.4784 0.800993 29.4791 0.906427C29.4791 0.976145 29.4929 1.04517 29.5197 1.10953C29.5465 1.17389 29.5858 1.23232 29.6353 1.28144C29.6847 1.33056 29.7435 1.3694 29.808 1.39572C29.8726 1.42205 29.9417 1.43535 30.0114 1.43484V1.43484Z" fill="#0B1014"/>
<path fill-rule="evenodd" clip-rule="evenodd" d="M37.6791 1.38871C37.7794 1.41589 37.8694 1.47203 37.938 1.55011C38.0065 1.62819 38.0505 1.72475 38.0645 1.8277C38.0784 1.93065 38.0618 2.03544 38.0165 2.12896C37.9712 2.22248 37.8994 2.30057 37.81 2.35347C37.7205 2.40638 37.6175 2.43176 37.5138 2.42643C37.41 2.4211 37.3101 2.3853 37.2266 2.32351C37.1431 2.26171 37.0796 2.17667 37.0442 2.079C37.0087 1.98134 37.0028 1.8754 37.0273 1.77441C37.0439 1.70579 37.0741 1.64119 37.1161 1.58443C37.1581 1.52768 37.211 1.47991 37.2718 1.44395C37.3325 1.408 37.3999 1.38458 37.4698 1.37509C37.5398 1.3656 37.611 1.37024 37.6791 1.38871V1.38871Z" fill="#0B1014"/>
<path fill-rule="evenodd" clip-rule="evenodd" d="M44.8228 4.35086C44.9128 4.40356 44.9853 4.48174 45.0309 4.57553C45.0766 4.66932 45.0935 4.77454 45.0795 4.87792C45.0655 4.9813 45.0212 5.07821 44.9522 5.15645C44.8831 5.23469 44.7925 5.29076 44.6917 5.31757C44.5909 5.34438 44.4844 5.34075 44.3856 5.30713C44.2868 5.27351 44.2002 5.21142 44.1367 5.12866C44.0732 5.0459 44.0356 4.9462 44.0286 4.8421C44.0217 4.73801 44.0457 4.63418 44.0977 4.54372C44.1686 4.42233 44.2846 4.33392 44.4205 4.29779C44.5563 4.26166 44.701 4.28074 44.8228 4.35086Z" fill="#0B1014"/>
<path fill-rule="evenodd" clip-rule="evenodd" d="M50.956 9.06016C51.031 9.13435 51.0824 9.22917 51.1034 9.33259C51.1245 9.43602 51.1143 9.54337 51.0742 9.641C51.0341 9.73863 50.9659 9.82212 50.8782 9.88089C50.7905 9.93965 50.6874 9.97104 50.5818 9.97104C50.4763 9.97104 50.3731 9.93965 50.2855 9.88089C50.1978 9.82212 50.1296 9.73863 50.0895 9.641C50.0494 9.54337 50.0392 9.43602 50.0603 9.33259C50.0813 9.22917 50.1326 9.13435 50.2077 9.06016C50.3073 8.9617 50.4418 8.90649 50.5818 8.90649C50.7219 8.90649 50.8563 8.9617 50.956 9.06016V9.06016Z" fill="#0B1014"/>
<path fill-rule="evenodd" clip-rule="evenodd" d="M55.6613 15.2006C55.7149 15.2916 55.7402 15.3965 55.734 15.502C55.7278 15.6074 55.6904 15.7086 55.6264 15.7928C55.5625 15.8769 55.475 15.94 55.3751 15.9743C55.2751 16.0085 55.1672 16.0122 55.0652 15.9849C54.9631 15.9576 54.8715 15.9005 54.802 15.821C54.7324 15.7415 54.6881 15.6431 54.6747 15.5383C54.6613 15.4335 54.6794 15.3271 54.7266 15.2326C54.7739 15.1381 54.8482 15.0598 54.9401 15.0077C55.0613 14.9378 55.2054 14.9188 55.3406 14.9549C55.4758 14.9911 55.5912 15.0794 55.6613 15.2006V15.2006Z" fill="#0B1014"/>
<path fill-rule="evenodd" clip-rule="evenodd" d="M58.6198 22.3477C58.6436 22.4167 58.6529 22.49 58.6471 22.5628C58.6414 22.6357 58.6207 22.7065 58.5863 22.771C58.552 22.8355 58.5047 22.8922 58.4475 22.9377C58.3903 22.9831 58.3243 23.0163 58.2538 23.0351C58.1832 23.054 58.1095 23.0581 58.0372 23.0472C57.965 23.0363 57.8957 23.0107 57.8338 22.9719C57.7719 22.9331 57.7187 22.8819 57.6774 22.8217C57.6361 22.7614 57.6076 22.6932 57.5938 22.6215C57.5684 22.4893 57.594 22.3523 57.6655 22.2382C57.737 22.1241 57.8491 22.0413 57.9792 22.0066C58.1093 21.9719 58.2478 21.9877 58.3667 22.051C58.4855 22.1143 58.576 22.2203 58.6198 22.3477Z" fill="#0B1014"/>
<path fill-rule="evenodd" clip-rule="evenodd" d="M59.6251 30C59.6258 30.1055 59.5953 30.2087 59.5373 30.2968C59.4792 30.3848 59.3964 30.4537 59.2992 30.4945C59.202 30.5354 59.0949 30.5465 58.9913 30.5264C58.8878 30.5063 58.7926 30.4559 58.7178 30.3816C58.643 30.3073 58.5919 30.2125 58.5711 30.1092C58.5502 30.0058 58.5605 29.8986 58.6007 29.8011C58.6409 29.7036 58.7091 29.6203 58.7967 29.5616C58.8843 29.5029 58.9874 29.4716 59.0928 29.4716C59.2333 29.4716 59.3681 29.5272 59.4678 29.6261C59.5675 29.7251 59.6241 29.8595 59.6251 30V30Z" fill="#0B1014"/>
<path fill-rule="evenodd" clip-rule="evenodd" d="M58.6112 37.6833C58.5851 37.7852 58.5295 37.8771 58.4512 37.9474C58.373 38.0177 58.2756 38.0632 58.1715 38.0782C58.0674 38.0933 57.9612 38.0771 57.8662 38.0318C57.7713 37.9865 57.6919 37.9141 57.6381 37.8237C57.5843 37.7333 57.5585 37.629 57.5639 37.5239C57.5694 37.4189 57.6058 37.3178 57.6687 37.2334C57.7315 37.1491 57.8179 37.0852 57.917 37.05C58.0161 37.0147 58.1235 37.0096 58.2255 37.0353C58.2937 37.0519 58.3579 37.082 58.4143 37.1237C58.4708 37.1655 58.5184 37.218 58.5543 37.2784C58.5902 37.3387 58.6137 37.4056 58.6235 37.4751C58.6333 37.5446 58.6291 37.6154 58.6112 37.6833V37.6833Z" fill="#0B1014"/>
<path fill-rule="evenodd" clip-rule="evenodd" d="M55.6499 44.8304C55.5977 44.9219 55.5195 44.9958 55.4252 45.0428C55.3309 45.0899 55.2248 45.1078 55.1203 45.0945C55.0158 45.0812 54.9176 45.0371 54.8381 44.9679C54.7587 44.8988 54.7015 44.8075 54.674 44.7059C54.6464 44.6042 54.6496 44.4966 54.6832 44.3967C54.7168 44.2969 54.7793 44.2093 54.8627 44.1449C54.9462 44.0806 55.0468 44.0425 55.1519 44.0354C55.2571 44.0284 55.3619 44.0527 55.4532 44.1052C55.514 44.1396 55.5674 44.1858 55.6103 44.241C55.6531 44.2962 55.6846 44.3593 55.7029 44.4267C55.7212 44.4942 55.726 44.5646 55.7169 44.6339C55.7078 44.7031 55.685 44.7699 55.6499 44.8304V44.8304Z" fill="#0B1014"/>
<path fill-rule="evenodd" clip-rule="evenodd" d="M50.9354 50.9628C50.8331 51.0621 50.6956 51.1166 50.5531 51.1144C50.4106 51.1123 50.2748 51.0536 50.1756 50.9513C50.0763 50.849 50.0218 50.7115 50.024 50.569C50.0262 50.4265 50.0848 50.2907 50.1871 50.1914C50.2378 50.1423 50.2976 50.1036 50.3632 50.0776C50.4288 50.0516 50.4989 50.0388 50.5695 50.0399C50.64 50.0409 50.7097 50.0559 50.7744 50.0839C50.8392 50.1119 50.8978 50.1524 50.947 50.203C50.9961 50.2537 51.0348 50.3135 51.0608 50.3791C51.0868 50.4447 51.0996 50.5148 51.0986 50.5853C51.0975 50.6559 51.0825 50.7255 51.0545 50.7903C51.0265 50.8551 50.9861 50.9137 50.9354 50.9628V50.9628Z" fill="#0B1014"/>
<path fill-rule="evenodd" clip-rule="evenodd" d="M44.7995 55.6686C44.7085 55.7217 44.6037 55.7467 44.4985 55.7403C44.3933 55.7338 44.2923 55.6963 44.2085 55.6324C44.1246 55.5685 44.0616 55.4811 44.0275 55.3814C43.9933 55.2817 43.9896 55.1741 44.0167 55.0722C44.0438 54.9703 44.1005 54.8788 44.1797 54.8092C44.2589 54.7396 44.3569 54.6951 44.4614 54.6813C44.5659 54.6675 44.6722 54.685 44.7667 54.7317C44.8612 54.7784 44.9398 54.8521 44.9924 54.9434C45.0276 55.0037 45.0506 55.0702 45.0599 55.1394C45.0693 55.2085 45.0649 55.2788 45.047 55.3462C45.0291 55.4136 44.998 55.4768 44.9555 55.5321C44.913 55.5875 44.86 55.6338 44.7995 55.6686Z" fill="#0B1014"/>
<path fill-rule="evenodd" clip-rule="evenodd" d="M37.6526 58.6229C37.5515 58.6476 37.4453 58.6419 37.3474 58.6064C37.2495 58.571 37.1643 58.5074 37.1024 58.4237C37.0405 58.34 37.0047 58.2399 36.9996 58.1359C36.9944 58.032 37.02 57.9288 37.0733 57.8393C37.1265 57.7499 37.205 57.6781 37.2988 57.6331C37.3927 57.5881 37.4978 57.5718 37.6009 57.5863C37.704 57.6008 37.8005 57.6454 37.8783 57.7146C37.9561 57.7837 38.0118 57.8743 38.0383 57.975C38.0562 58.0429 38.0604 58.1136 38.0506 58.1831C38.0408 58.2527 38.0173 58.3195 37.9814 58.3799C37.9455 58.4402 37.8979 58.4928 37.8414 58.5345C37.785 58.5762 37.7208 58.6063 37.6526 58.6229V58.6229Z" fill="#0B1014"/>
<path fill-rule="evenodd" clip-rule="evenodd" d="M29.9813 59.6299C29.8484 59.6185 29.7247 59.5578 29.6345 59.4596C29.5443 59.3613 29.4943 59.2329 29.4943 59.0995C29.4943 58.9662 29.5443 58.8377 29.6345 58.7395C29.7247 58.6413 29.8484 58.5805 29.9813 58.5692C30.0547 58.5629 30.1287 58.572 30.1984 58.5958C30.2682 58.6196 30.3322 58.6576 30.3865 58.7075C30.4408 58.7573 30.4842 58.8179 30.5138 58.8854C30.5435 58.9529 30.5588 59.0258 30.5588 59.0995C30.5588 59.1732 30.5435 59.2462 30.5138 59.3136C30.4842 59.3811 30.4408 59.4417 30.3865 59.4916C30.3322 59.5414 30.2682 59.5795 30.1984 59.6033C30.1287 59.6271 30.0547 59.6361 29.9813 59.6299V59.6299Z" fill="#0B1014"/>
<path fill-rule="evenodd" clip-rule="evenodd" d="M22.3137 58.6193C22.2429 58.6043 22.1759 58.575 22.1168 58.5332C22.0577 58.4914 22.0077 58.438 21.9699 58.3763C21.9321 58.3145 21.9074 58.2457 21.8971 58.174C21.8868 58.1024 21.8913 58.0294 21.9102 57.9595C21.9291 57.8896 21.9621 57.8243 22.0071 57.7676C22.0521 57.7109 22.1082 57.664 22.172 57.6297C22.2358 57.5954 22.3058 57.5745 22.378 57.5683C22.4501 57.562 22.5227 57.5705 22.5914 57.5933C22.6596 57.6099 22.7239 57.64 22.7803 57.6817C22.8368 57.7235 22.8843 57.7761 22.9202 57.8364C22.9561 57.8967 22.9797 57.9636 22.9894 58.0331C22.9992 58.1026 22.995 58.1734 22.9771 58.2413C22.9593 58.3102 22.9279 58.3749 22.8846 58.4314C22.8413 58.4879 22.7872 58.5353 22.7253 58.5705C22.6635 58.6058 22.5952 58.6282 22.5245 58.6366C22.4538 58.645 22.3821 58.6391 22.3137 58.6193V58.6193Z" fill="#0B1014"/>
<path fill-rule="evenodd" clip-rule="evenodd" d="M15.1691 55.6533C15.0777 55.6007 15.004 55.5222 14.9574 55.4277C14.9107 55.3332 14.8931 55.2269 14.9069 55.1224C14.9207 55.0179 14.9652 54.9198 15.0348 54.8406C15.1044 54.7614 15.1959 54.7047 15.2978 54.6776C15.3997 54.6505 15.5073 54.6543 15.6071 54.6884C15.7068 54.7226 15.7941 54.7856 15.858 54.8694C15.9219 54.9533 15.9594 55.0542 15.9659 55.1594C15.9723 55.2647 15.9474 55.3694 15.8942 55.4605C15.8595 55.521 15.8131 55.574 15.7578 55.6164C15.7024 55.6589 15.6392 55.69 15.5718 55.7079C15.5044 55.7259 15.4341 55.7303 15.365 55.7209C15.2959 55.7115 15.2293 55.6886 15.1691 55.6533V55.6533Z" fill="#0B1014"/>
<path fill-rule="evenodd" clip-rule="evenodd" d="M9.0368 50.9438C8.96173 50.8696 8.91041 50.7748 8.88936 50.6713C8.86831 50.5679 8.87848 50.4606 8.91858 50.3629C8.95868 50.2653 9.02689 50.1818 9.11456 50.123C9.20223 50.0643 9.30539 50.0329 9.41093 50.0329C9.51647 50.0329 9.61963 50.0643 9.7073 50.123C9.79497 50.1818 9.86319 50.2653 9.90329 50.3629C9.94339 50.4606 9.95356 50.5679 9.93251 50.6713C9.91146 50.7748 9.86013 50.8696 9.78506 50.9438C9.68543 51.0422 9.551 51.0974 9.41093 51.0974C9.27086 51.0974 9.13643 51.0422 9.0368 50.9438Z" fill="#0B1014"/>
<path fill-rule="evenodd" clip-rule="evenodd" d="M4.33089 44.8034C4.27952 44.7127 4.25616 44.6088 4.26372 44.5048C4.27129 44.4008 4.30945 44.3014 4.3734 44.219C4.43735 44.1367 4.52424 44.0751 4.62312 44.042C4.722 44.0089 4.82846 44.0058 4.92909 44.0331C5.02972 44.0604 5.12002 44.1169 5.18863 44.1954C5.25724 44.2739 5.30109 44.371 5.31466 44.4744C5.32823 44.5777 5.31091 44.6828 5.26489 44.7764C5.21886 44.8699 5.14619 44.9478 5.05601 45.0001C4.99558 45.0352 4.92879 45.0579 4.85951 45.067C4.79023 45.0761 4.71983 45.0714 4.6524 45.0531C4.58496 45.0348 4.52182 45.0033 4.46663 44.9605C4.41144 44.9176 4.36531 44.8642 4.33089 44.8034V44.8034Z" fill="#0B1014"/>
<path fill-rule="evenodd" clip-rule="evenodd" d="M1.37342 37.6563C1.34797 37.5545 1.35321 37.4473 1.38848 37.3484C1.42375 37.2496 1.48748 37.1633 1.57166 37.1005C1.65583 37.0378 1.75667 37.0013 1.86152 36.9957C1.96636 36.9902 2.07051 37.0157 2.16087 37.0692C2.25123 37.1226 2.32376 37.2016 2.36933 37.2962C2.4149 37.3908 2.43148 37.4968 2.41699 37.6008C2.40249 37.7047 2.35757 37.8021 2.28787 37.8806C2.21817 37.9591 2.1268 38.0153 2.02526 38.042C1.95712 38.0605 1.88596 38.0651 1.816 38.0556C1.74603 38.0461 1.67868 38.0227 1.61792 37.9868C1.55716 37.9508 1.50421 37.903 1.46222 37.8463C1.42022 37.7895 1.39003 37.7249 1.37342 37.6563Z" fill="#0B1014"/>
<path fill-rule="evenodd" clip-rule="evenodd" d="M0.366103 30.0001C0.365339 29.8946 0.395904 29.7913 0.453924 29.7033C0.511944 29.6153 0.594803 29.5464 0.691993 29.5056C0.789183 29.4647 0.896324 29.4536 0.999827 29.4737C1.10333 29.4938 1.19854 29.5442 1.27336 29.6185C1.34819 29.6927 1.39927 29.7876 1.42012 29.8909C1.44097 29.9943 1.43066 30.1015 1.39049 30.199C1.35032 30.2965 1.2821 30.3798 1.19449 30.4385C1.10687 30.4971 1.00381 30.5285 0.898375 30.5285C0.757874 30.5285 0.62307 30.4729 0.52336 30.3739C0.42365 30.275 0.367121 30.1406 0.366103 30.0001V30.0001Z" fill="#0B1014"/>
<path fill-rule="evenodd" clip-rule="evenodd" d="M1.38096 22.3207C1.40702 22.2188 1.46268 22.1269 1.54093 22.0566C1.61919 21.9863 1.71651 21.9407 1.82062 21.9257C1.92474 21.9107 2.03097 21.9268 2.1259 21.9721C2.22084 22.0174 2.30022 22.0899 2.35403 22.1802C2.40783 22.2706 2.43365 22.375 2.42821 22.48C2.42278 22.5851 2.38633 22.6861 2.32349 22.7705C2.26064 22.8548 2.17421 22.9187 2.07511 22.954C1.976 22.9892 1.86867 22.9943 1.76667 22.9687C1.69846 22.952 1.63426 22.9219 1.57781 22.8802C1.52135 22.8385 1.47378 22.7859 1.43788 22.7256C1.40197 22.6653 1.37844 22.5984 1.36867 22.5289C1.3589 22.4593 1.36308 22.3886 1.38096 22.3207V22.3207Z" fill="#0B1014"/>
<path fill-rule="evenodd" clip-rule="evenodd" d="M4.34302 15.1738C4.39571 15.0828 4.47416 15.0095 4.56847 14.963C4.66279 14.9166 4.76875 14.8991 4.87299 14.9128C4.97723 14.9265 5.07507 14.9708 5.15419 15.04C5.2333 15.1092 5.29014 15.2004 5.31753 15.3019C5.34492 15.4034 5.34163 15.5107 5.30809 15.6103C5.27455 15.71 5.21225 15.7975 5.12905 15.8617C5.04586 15.926 4.94549 15.9642 4.84061 15.9715C4.73573 15.9788 4.63104 15.9549 4.53974 15.9028C4.47879 15.868 4.42533 15.8215 4.38243 15.766C4.33953 15.7104 4.30802 15.647 4.28974 15.5792C4.27146 15.5115 4.26676 15.4408 4.2759 15.3712C4.28504 15.3016 4.30786 15.2345 4.34302 15.1738Z" fill="#0B1014"/>
<path fill-rule="evenodd" clip-rule="evenodd" d="M9.05582 9.0409C9.10554 8.98862 9.16537 8.94699 9.23167 8.91854C9.29798 8.8901 9.36937 8.87543 9.44152 8.87543C9.51367 8.87543 9.58506 8.8901 9.65137 8.91854C9.71767 8.94699 9.7775 8.98862 9.82722 9.0409C9.92592 9.14119 9.98124 9.27626 9.98124 9.41696C9.98124 9.55767 9.92592 9.69273 9.82722 9.79301C9.72749 9.89531 9.5912 9.95379 9.44834 9.9556C9.30548 9.95741 9.16776 9.9024 9.06546 9.80267C8.96317 9.70293 8.90468 9.56664 8.90288 9.42378C8.90107 9.28092 8.95608 9.14319 9.05582 9.0409V9.0409Z" fill="#0B1014"/>
<path fill-rule="evenodd" clip-rule="evenodd" d="M15.1933 4.33535C15.2843 4.28218 15.389 4.25725 15.4943 4.26369C15.5995 4.27014 15.7004 4.30767 15.7843 4.37156C15.8681 4.43544 15.9311 4.5228 15.9653 4.62253C15.9994 4.72227 16.0032 4.82989 15.9761 4.93176C15.949 5.03364 15.8923 5.12518 15.8131 5.19477C15.7339 5.26436 15.6358 5.30887 15.5313 5.32266C15.4268 5.33644 15.3206 5.31888 15.226 5.27221C15.1315 5.22553 15.053 5.15184 15.0004 5.06048C14.9303 4.93864 14.9112 4.79401 14.9473 4.65815C14.9835 4.5223 15.0719 4.40626 15.1933 4.33535V4.33535Z" fill="#0B1014"/>
<path fill-rule="evenodd" clip-rule="evenodd" d="M22.3445 1.38098C22.4466 1.35529 22.5539 1.36041 22.653 1.39568C22.7521 1.43095 22.8385 1.49478 22.9014 1.57914C22.9642 1.6635 23.0007 1.76459 23.0061 1.86964C23.0115 1.97469 22.9857 2.07899 22.9319 2.16938C22.8781 2.25977 22.7987 2.33221 22.7038 2.37751C22.6089 2.42282 22.5026 2.43897 22.3985 2.42395C22.2944 2.40892 22.1971 2.36339 22.1188 2.29309C22.0406 2.22279 21.9849 2.13089 21.9588 2.02897C21.941 1.96108 21.9368 1.8903 21.9466 1.82078C21.9563 1.75126 21.9799 1.68438 22.0158 1.62406C22.0517 1.56373 22.0992 1.51117 22.1557 1.46944C22.2121 1.4277 22.2763 1.39762 22.3445 1.38098V1.38098Z" fill="#0B1014"/>
<path fill-rule="evenodd" clip-rule="evenodd" d="M33.8528 0.625053C33.9925 0.644258 34.1191 0.717796 34.205 0.82971C34.291 0.941625 34.3293 1.0829 34.3117 1.2229C34.2979 1.3272 34.2535 1.42506 34.184 1.50411C34.1146 1.58317 34.0233 1.63988 33.9217 1.66707C33.82 1.69426 33.7126 1.69071 33.613 1.65689C33.5133 1.62306 33.426 1.56047 33.3619 1.47702C33.2978 1.39356 33.2599 1.29299 33.253 1.188C33.246 1.08301 33.2704 0.97833 33.3229 0.887163C33.3754 0.795997 33.4538 0.722436 33.5481 0.675785C33.6424 0.629134 33.7484 0.611481 33.8528 0.625053Z" fill="#0B1014"/>
<path fill-rule="evenodd" clip-rule="evenodd" d="M41.3248 2.61517C41.4209 2.65578 41.5028 2.72391 41.5602 2.81099C41.6177 2.89807 41.648 3.00019 41.6475 3.10449C41.647 3.2088 41.6156 3.31063 41.5574 3.39714C41.4991 3.48365 41.4165 3.55096 41.32 3.59062C41.2236 3.63029 41.1175 3.64051 41.0152 3.62C40.913 3.5995 40.819 3.54919 40.7453 3.4754C40.6716 3.40161 40.6214 3.30766 40.6009 3.20537C40.5805 3.10308 40.5908 2.99703 40.6305 2.90059C40.6571 2.83606 40.6962 2.77744 40.7456 2.72811C40.795 2.67878 40.8536 2.63972 40.9182 2.61318C40.9827 2.58665 41.0519 2.57315 41.1217 2.57349C41.1915 2.57383 41.2605 2.588 41.3248 2.61517V2.61517Z" fill="#0B1014"/>
<path fill-rule="evenodd" clip-rule="evenodd" d="M48.0246 6.49131C48.1069 6.55535 48.1685 6.64233 48.2015 6.74128C48.2345 6.84024 48.2374 6.94674 48.21 7.04738C48.1826 7.14802 48.1259 7.23828 48.0473 7.30681C47.9687 7.37533 47.8715 7.41905 47.7681 7.43245C47.6646 7.44585 47.5595 7.42833 47.466 7.38211C47.3725 7.33588 47.2948 7.26302 47.2426 7.17269C47.1904 7.08237 47.1662 6.97862 47.1728 6.87453C47.1795 6.77043 47.2169 6.67064 47.2802 6.58773C47.3225 6.53227 47.3755 6.48573 47.4359 6.45083C47.4963 6.41593 47.5631 6.39335 47.6323 6.38438C47.7015 6.37542 47.7718 6.38025 47.8391 6.3986C47.9065 6.41696 47.9695 6.44846 48.0246 6.49131V6.49131Z" fill="#0B1014"/>
<path fill-rule="evenodd" clip-rule="evenodd" d="M53.4975 11.9568C53.5621 12.0401 53.6005 12.1407 53.6078 12.2459C53.6151 12.351 53.5911 12.456 53.5387 12.5474C53.4863 12.6389 53.408 12.7128 53.3136 12.7596C53.2192 12.8065 53.113 12.8243 53.0084 12.8108C52.9039 12.7972 52.8058 12.753 52.7264 12.6836C52.6471 12.6142 52.5901 12.5228 52.5628 12.421C52.5354 12.3192 52.5389 12.2116 52.5728 12.1118C52.6067 12.012 52.6694 11.9245 52.7531 11.8604C52.8082 11.8176 52.8712 11.786 52.9386 11.7677C53.0059 11.7493 53.0762 11.7445 53.1454 11.7535C53.2146 11.7624 53.2814 11.785 53.3418 11.8199C53.4022 11.8548 53.4552 11.9014 53.4975 11.9568V11.9568Z" fill="#0B1014"/>
<path fill-rule="evenodd" clip-rule="evenodd" d="M57.3657 18.6526C57.4065 18.7498 57.4176 18.8569 57.3976 18.9604C57.3775 19.0638 57.3272 19.159 57.2529 19.2338C57.1787 19.3087 57.0839 19.3598 56.9806 19.3807C56.8773 19.4016 56.7701 19.3914 56.6726 19.3513C56.5752 19.3112 56.4918 19.2431 56.4331 19.1556C56.3743 19.068 56.3429 18.9651 56.3428 18.8597C56.3426 18.7543 56.3738 18.6512 56.4323 18.5635C56.4908 18.4759 56.574 18.4075 56.6714 18.3672C56.8014 18.3134 56.9473 18.3132 57.0774 18.3667C57.2075 18.4202 57.3112 18.523 57.3657 18.6526V18.6526Z" fill="#0B1014"/>
<path fill-rule="evenodd" clip-rule="evenodd" d="M59.3716 26.1429C59.3859 26.2472 59.369 26.3535 59.3229 26.4483C59.2768 26.543 59.2036 26.6219 59.1126 26.675C59.0216 26.7281 58.9169 26.753 58.8117 26.7466C58.7066 26.7401 58.6057 26.7026 58.5219 26.6388C58.438 26.575 58.375 26.4877 58.3408 26.3881C58.3066 26.2884 58.3028 26.1809 58.3297 26.079C58.3567 25.9772 58.4133 25.8857 58.4924 25.816C58.5714 25.7463 58.6693 25.7017 58.7738 25.6877C58.9134 25.6691 59.0546 25.7065 59.1667 25.7918C59.2788 25.8771 59.3524 26.0033 59.3716 26.1429V26.1429Z" fill="#0B1014"/>
<path fill-rule="evenodd" clip-rule="evenodd" d="M59.3715 33.8569C59.3629 33.9262 59.3407 33.9931 59.3061 34.0537C59.2716 34.1144 59.2254 34.1676 59.1701 34.2102C59.1149 34.2529 59.0518 34.2842 58.9844 34.3024C58.917 34.3205 58.8467 34.3251 58.7775 34.3159C58.7047 34.3113 58.6336 34.2918 58.5687 34.2586C58.5037 34.2254 58.4463 34.1791 58.4 34.1228C58.3536 34.0665 58.3194 34.0012 58.2993 33.9311C58.2793 33.8609 58.2738 33.7874 58.2834 33.7151C58.2929 33.6428 58.3172 33.5732 58.3548 33.5107C58.3923 33.4482 58.4423 33.394 58.5017 33.3516C58.561 33.3092 58.6285 33.2795 58.6998 33.2642C58.7711 33.249 58.8448 33.2485 58.9163 33.2629C58.9852 33.272 59.0517 33.2945 59.1119 33.3293C59.1721 33.364 59.2249 33.4103 59.2671 33.4655C59.3094 33.5207 59.3404 33.5837 59.3583 33.6508C59.3762 33.718 59.3807 33.788 59.3715 33.8569V33.8569Z" fill="#0B1014"/>
<path fill-rule="evenodd" clip-rule="evenodd" d="M57.3736 41.3321C57.3333 41.4282 57.2655 41.5102 57.1787 41.5679C57.0919 41.6256 56.9899 41.6562 56.8857 41.6561C56.7815 41.656 56.6796 41.6251 56.593 41.5672C56.5063 41.5094 56.4386 41.4272 56.3986 41.3309C56.3585 41.2347 56.3477 41.1288 56.3677 41.0266C56.3876 40.9243 56.4374 40.8302 56.5107 40.7561C56.584 40.682 56.6776 40.6312 56.7796 40.6102C56.8817 40.5891 56.9877 40.5987 57.0843 40.6378C57.2147 40.6916 57.3184 40.7949 57.3726 40.9251C57.4268 41.0553 57.4272 41.2016 57.3736 41.3321V41.3321Z" fill="#0B1014"/>
<path fill-rule="evenodd" clip-rule="evenodd" d="M53.5084 48.0316C53.4443 48.1153 53.3568 48.1781 53.257 48.2119C53.1572 48.2458 53.0495 48.2493 52.9478 48.222C52.846 48.1946 52.7546 48.1377 52.6852 48.0583C52.6158 47.979 52.5715 47.8808 52.558 47.7763C52.5445 47.6718 52.5623 47.5656 52.6091 47.4712C52.656 47.3768 52.7299 47.2984 52.8213 47.246C52.9128 47.1937 53.0178 47.1696 53.1229 47.1769C53.228 47.1843 53.3286 47.2227 53.412 47.2872C53.5231 47.3734 53.5956 47.5001 53.6137 47.6395C53.6318 47.779 53.5939 47.92 53.5084 48.0316V48.0316Z" fill="#0B1014"/>
<path fill-rule="evenodd" clip-rule="evenodd" d="M48.0437 53.501C47.9604 53.5656 47.8597 53.604 47.7546 53.6113C47.6495 53.6186 47.5445 53.5946 47.453 53.5422C47.3616 53.4898 47.2877 53.4115 47.2408 53.3171C47.194 53.2227 47.1762 53.1165 47.1897 53.0119C47.2033 52.9074 47.2475 52.8093 47.3169 52.7299C47.3863 52.6506 47.4777 52.5936 47.5795 52.5663C47.6812 52.5389 47.7889 52.5424 47.8887 52.5763C47.9885 52.6102 48.076 52.6729 48.1401 52.7566C48.1829 52.8117 48.2144 52.8747 48.2328 52.9421C48.2512 53.0094 48.256 53.0797 48.247 53.1489C48.2381 53.2181 48.2155 53.2849 48.1806 53.3453C48.1457 53.4057 48.0991 53.4586 48.0437 53.501Z" fill="#0B1014"/>
<path fill-rule="evenodd" clip-rule="evenodd" d="M41.3441 57.385C41.2474 57.4244 41.1412 57.4342 41.0389 57.4133C40.9366 57.3924 40.8427 57.3416 40.7693 57.2674C40.6958 57.1932 40.6459 57.0989 40.626 56.9964C40.6061 56.8938 40.617 56.7877 40.6574 56.6914C40.6977 56.5951 40.7657 56.5129 40.8528 56.4552C40.9398 56.3975 41.042 56.3669 41.1464 56.3672C41.2509 56.3675 41.3529 56.3988 41.4395 56.4571C41.5262 56.5153 41.5937 56.598 41.6334 56.6946C41.6599 56.7589 41.6734 56.8278 41.6732 56.8973C41.6729 56.9669 41.659 57.0357 41.6321 57.0998C41.6052 57.1639 41.566 57.2222 41.5165 57.2711C41.4671 57.32 41.4085 57.3587 41.3441 57.385V57.385Z" fill="#0B1014"/>
<path fill-rule="evenodd" clip-rule="evenodd" d="M33.8728 59.3752C33.7683 59.3889 33.6621 59.3713 33.5676 59.3245C33.4731 59.2778 33.3947 59.204 33.3421 59.1127C33.2896 59.0213 33.2654 58.9164 33.2726 58.8112C33.2798 58.7061 33.318 58.6054 33.3825 58.522C33.4469 58.4386 33.5347 58.3762 33.6346 58.3427C33.7345 58.3093 33.8422 58.3062 33.9438 58.334C34.0455 58.3617 34.1367 58.4191 34.2057 58.4987C34.2748 58.5783 34.3187 58.6766 34.3318 58.7812C34.341 58.8504 34.3363 58.9207 34.3182 58.9881C34.3001 59.0555 34.2688 59.1187 34.2261 59.1739C34.1834 59.2291 34.1302 59.2753 34.0696 59.3099C34.0089 59.3444 33.9421 59.3666 33.8728 59.3752Z" fill="#0B1014"/>
<path fill-rule="evenodd" clip-rule="evenodd" d="M26.1394 59.3791C26.0348 59.366 25.9365 59.3221 25.8569 59.2531C25.7772 59.184 25.7199 59.0929 25.6921 58.9912C25.6644 58.8895 25.6674 58.7819 25.7009 58.682C25.7344 58.582 25.7968 58.4943 25.8802 58.4298C25.9636 58.3654 26.0642 58.3271 26.1694 58.32C26.2745 58.3128 26.3794 58.337 26.4708 58.3895C26.5622 58.442 26.6359 58.5205 26.6827 58.6149C26.7294 58.7094 26.7471 58.8156 26.7334 58.9201C26.7248 58.9894 26.7026 59.0563 26.6681 59.1169C26.6335 59.1776 26.5873 59.2308 26.532 59.2734C26.4768 59.3161 26.4137 59.3474 26.3463 59.3656C26.2789 59.3837 26.2086 59.3883 26.1394 59.3791V59.3791Z" fill="#0B1014"/>
<path fill-rule="evenodd" clip-rule="evenodd" d="M18.6675 57.3849C18.5701 57.3448 18.4868 57.2768 18.428 57.1894C18.3693 57.102 18.3378 56.9992 18.3375 56.8938C18.3373 56.7885 18.3682 56.6855 18.4265 56.5978C18.4849 56.5101 18.5679 56.4417 18.6651 56.4012C18.7623 56.3607 18.8693 56.3499 18.9727 56.3703C19.076 56.3906 19.1709 56.4412 19.2455 56.5155C19.3201 56.5899 19.371 56.6846 19.3917 56.7879C19.4124 56.8911 19.402 56.9982 19.3618 57.0956C19.308 57.2259 19.2047 57.3296 19.0745 57.3838C18.9443 57.4381 18.798 57.4384 18.6675 57.3849V57.3849Z" fill="#0B1014"/>
<path fill-rule="evenodd" clip-rule="evenodd" d="M11.9804 53.5282C11.8965 53.4645 11.8334 53.3773 11.7991 53.2776C11.7647 53.178 11.7607 53.0705 11.7876 52.9686C11.8145 52.8667 11.8709 52.7751 11.9499 52.7053C12.0289 52.6356 12.1268 52.5908 12.2312 52.5767C12.3357 52.5627 12.4419 52.5799 12.5365 52.6263C12.6311 52.6726 12.7099 52.7461 12.7627 52.8372C12.8156 52.9284 12.8402 53.0332 12.8335 53.1383C12.8267 53.2435 12.7889 53.3442 12.7248 53.4279C12.6392 53.5396 12.5129 53.6129 12.3734 53.6317C12.2338 53.6505 12.0926 53.6133 11.9804 53.5282V53.5282Z" fill="#0B1014"/>
<path fill-rule="evenodd" clip-rule="evenodd" d="M6.49525 48.0471C6.43068 47.9638 6.39229 47.8632 6.38496 47.7581C6.37762 47.6529 6.40167 47.548 6.45405 47.4565C6.50643 47.3651 6.58479 47.2912 6.67919 47.2443C6.77359 47.1975 6.87978 47.1797 6.98431 47.1932C7.08884 47.2067 7.187 47.251 7.26634 47.3204C7.34568 47.3898 7.40263 47.4812 7.42998 47.5829C7.45733 47.6847 7.45384 47.7924 7.41996 47.8922C7.38608 47.992 7.32333 48.0795 7.23966 48.1436C7.18457 48.1864 7.12154 48.2179 7.05421 48.2363C6.98687 48.2546 6.91657 48.2595 6.84736 48.2505C6.77815 48.2415 6.71139 48.219 6.65096 48.184C6.59052 48.1491 6.5376 48.1026 6.49525 48.0471V48.0471Z" fill="#0B1014"/>
<path fill-rule="evenodd" clip-rule="evenodd" d="M2.62708 41.3513C2.58622 41.2541 2.57512 41.1471 2.59519 41.0436C2.61526 40.9401 2.6656 40.8449 2.73983 40.7701C2.81406 40.6953 2.90882 40.6442 3.01213 40.6232C3.11543 40.6023 3.22262 40.6126 3.3201 40.6527C3.41759 40.6927 3.50098 40.7608 3.55971 40.8484C3.61844 40.9359 3.64986 41.0389 3.64999 41.1443C3.65012 41.2497 3.61896 41.3527 3.56045 41.4404C3.50194 41.5281 3.41873 41.5964 3.32135 41.6367C3.19139 41.6905 3.04542 41.6907 2.91533 41.6372C2.78524 41.5838 2.68161 41.481 2.62708 41.3513V41.3513Z" fill="#0B1014"/>
<path fill-rule="evenodd" clip-rule="evenodd" d="M0.621165 33.8803C0.606825 33.7759 0.623782 33.6696 0.66989 33.5749C0.715998 33.4802 0.789183 33.4013 0.880174 33.3481C0.971165 33.295 1.07587 33.2701 1.18103 33.2766C1.28619 33.283 1.38707 33.3205 1.47089 33.3843C1.55472 33.4481 1.61773 33.5354 1.65193 33.6351C1.68613 33.7347 1.68998 33.8423 1.66301 33.9441C1.63604 34.046 1.57945 34.1375 1.50041 34.2072C1.42137 34.2768 1.32343 34.3215 1.21901 34.3354C1.07942 34.3541 0.938118 34.3167 0.826064 34.2314C0.71401 34.146 0.640334 34.0198 0.621165 33.8803V33.8803Z" fill="#0B1014"/>
<path fill-rule="evenodd" clip-rule="evenodd" d="M0.620874 26.143C0.634107 26.0383 0.678165 25.9399 0.747457 25.8602C0.816748 25.7806 0.908145 25.7234 1.01003 25.6959C1.11191 25.6683 1.21968 25.6717 1.31964 25.7055C1.41961 25.7394 1.50725 25.8022 1.57144 25.886C1.63563 25.9697 1.67347 26.0707 1.68015 26.176C1.68682 26.2814 1.66203 26.3863 1.60893 26.4775C1.55583 26.5687 1.47682 26.6421 1.38192 26.6883C1.28703 26.7345 1.18055 26.7514 1.076 26.737C1.00708 26.7279 0.940613 26.7054 0.880413 26.6706C0.820213 26.6359 0.767465 26.5896 0.725187 26.5344C0.682908 26.4792 0.651928 26.4162 0.634028 26.3491C0.616129 26.2819 0.61166 26.2119 0.620874 26.143V26.143Z" fill="#0B1014"/>
<path fill-rule="evenodd" clip-rule="evenodd" d="M2.61927 18.6719C2.65928 18.5745 2.7273 18.4912 2.8147 18.4324C2.90211 18.3737 3.00497 18.3422 3.11028 18.3419C3.21559 18.3417 3.31861 18.3726 3.40631 18.4309C3.49401 18.4892 3.56244 18.5723 3.60294 18.6695C3.64345 18.7667 3.6542 18.8737 3.63385 18.977C3.6135 19.0804 3.56296 19.1753 3.48862 19.2499C3.41428 19.3245 3.31948 19.3754 3.21623 19.3961C3.11297 19.4168 3.00589 19.4064 2.90855 19.3662C2.7782 19.3124 2.67453 19.2091 2.62029 19.0789C2.56606 18.9487 2.56568 18.8024 2.61927 18.6719V18.6719Z" fill="#0B1014"/>
<path fill-rule="evenodd" clip-rule="evenodd" d="M6.48297 11.9723C6.54668 11.8884 6.63387 11.8253 6.73349 11.7909C6.83311 11.7566 6.94068 11.7526 7.04257 11.7795C7.14446 11.8063 7.23609 11.8628 7.30585 11.9418C7.3756 12.0208 7.42034 12.1187 7.43441 12.2231C7.44848 12.3275 7.43124 12.4338 7.38487 12.5284C7.3385 12.623 7.26509 12.7018 7.17394 12.7546C7.08279 12.8075 6.978 12.8321 6.87284 12.8254C6.76769 12.8186 6.6669 12.7808 6.58325 12.7167C6.47149 12.6311 6.3982 12.5048 6.3794 12.3652C6.36061 12.2257 6.39785 12.0845 6.48297 11.9723Z" fill="#0B1014"/>
<path fill-rule="evenodd" clip-rule="evenodd" d="M11.953 6.50306C12.0362 6.44025 12.1362 6.4035 12.2403 6.39739C12.3444 6.39129 12.448 6.41611 12.538 6.46876C12.628 6.5214 12.7004 6.5995 12.7462 6.69322C12.7919 6.78695 12.8089 6.89209 12.7949 6.99544C12.781 7.09878 12.7368 7.1957 12.6679 7.27398C12.599 7.35226 12.5085 7.40841 12.4078 7.43536C12.3071 7.4623 12.2006 7.45885 12.1018 7.42541C12.003 7.39198 11.9164 7.33007 11.8527 7.24747C11.7676 7.13535 11.7304 6.99407 11.7492 6.85455C11.7679 6.71504 11.8412 6.58866 11.953 6.50306V6.50306Z" fill="#0B1014"/>
<path fill-rule="evenodd" clip-rule="evenodd" d="M18.6483 2.63439C18.7449 2.59533 18.8509 2.58573 18.953 2.60677C19.0551 2.62781 19.1486 2.67856 19.2219 2.75265C19.2952 2.82673 19.345 2.92085 19.3649 3.02314C19.3849 3.12543 19.3741 3.23133 19.3341 3.32753C19.294 3.42373 19.2263 3.50593 19.1397 3.56379C19.053 3.62165 18.9511 3.65259 18.8469 3.65271C18.7427 3.65283 18.6407 3.62213 18.5539 3.56447C18.4671 3.50681 18.3993 3.42477 18.359 3.32866C18.3319 3.26413 18.318 3.19488 18.3179 3.12491C18.3178 3.05494 18.3316 2.98565 18.3585 2.92106C18.3854 2.85648 18.4249 2.79788 18.4746 2.74867C18.5244 2.69946 18.5834 2.66061 18.6483 2.63439V2.63439Z" fill="#0B1014"/>
<path fill-rule="evenodd" clip-rule="evenodd" d="M26.1204 0.628718C26.225 0.615026 26.3312 0.632662 26.4256 0.679403C26.5201 0.726144 26.5986 0.799881 26.6511 0.891264C26.7036 0.982648 26.7278 1.08757 26.7206 1.19272C26.7134 1.29788 26.6752 1.39853 26.6108 1.48193C26.5463 1.56533 26.4586 1.62772 26.3586 1.66119C26.2587 1.69466 26.1511 1.69771 26.0494 1.66994C25.9477 1.64218 25.8566 1.58486 25.7875 1.50524C25.7184 1.42562 25.6746 1.32728 25.6615 1.2227C25.6523 1.15352 25.6569 1.08319 25.675 1.0158C25.6932 0.948403 25.7245 0.885272 25.7671 0.830045C25.8098 0.774818 25.863 0.728589 25.9237 0.694034C25.9843 0.659479 26.0512 0.637281 26.1204 0.628718V0.628718Z" fill="#0B1014"/>
<path d="M25.8962 28.606L28.1046 13.2337H32.1965L34.0799 28.606H25.8962Z" fill="#0B1014"/>
<path d="M22.3086 46.7038C22.4837 46.229 22.8171 45.8191 23.361 45.4962H36.5456C36.9843 45.8045 37.3081 46.2011 37.4963 46.6778C37.7914 47.426 37.3129 48.3451 36.5193 48.3646C32.28 48.4691 27.8879 48.4051 23.3028 48.3573C22.5228 48.3496 22.0351 47.4463 22.3086 46.7038Z" fill="#0B1014"/>
<path d="M23.3629 45.4958C21.893 41.1173 20.9806 36.6408 20.5611 32.0768C20.1611 27.7185 23.2592 23.7946 27.5468 23.3356C29.5092 23.1258 31.4843 23.3158 33.4694 23.8051C37.438 24.7829 39.9865 28.7025 39.3864 32.8059C38.7798 36.9568 37.8184 41.191 36.5483 45.4958H23.3629Z" fill="#1BA098"/>
<path d="M27.4239 15.8291C27.0845 16.7778 26.8764 17.8018 26.7591 18.8781C26.7267 19.1779 26.8069 19.4791 26.9837 19.7214C27.1605 19.9637 27.4208 20.1292 27.7126 20.1849C29.2742 20.4828 30.8745 20.5065 32.444 20.255C32.7365 20.2078 33.0009 20.0508 33.1849 19.8151C33.3689 19.5795 33.4591 19.2822 33.4378 18.9822C33.3609 17.8687 33.1707 16.7663 32.8703 15.6926L27.4239 15.8291Z" fill="#1BA098"/>
<path d="M28.3853 15.8287L28.0145 18.0822C27.9808 18.2818 28.0135 18.4872 28.1074 18.6659C28.2012 18.8446 28.3509 18.9865 28.5329 19.0694C29.4721 19.4965 30.5325 19.5606 31.5149 19.2496C31.7169 19.1843 31.8896 19.0484 32.0023 18.8659C32.115 18.6834 32.1603 18.4663 32.1302 18.2531L31.8036 15.8287H28.3853Z" fill="#0B1014"/>
<path d="M27.0816 13.3865L27.251 15.2519L33.1397 15.5671L33.32 13.3797C33.3505 13.0189 33.2505 12.6593 33.0388 12.368C32.8272 12.0767 32.5182 11.8737 32.1699 11.797C30.872 11.5118 29.5291 11.511 28.2308 11.7946C27.881 11.8718 27.5711 12.0762 27.3594 12.3695C27.1477 12.6627 27.0489 13.0244 27.0816 13.3865V13.3865Z" fill="#0B1014"/>
<path d="M28.2316 11.791C27.9626 11.8491 27.7155 11.984 27.5194 12.1799C28.3568 12.3277 29.2764 12.4229 30.2012 12.3982C31.0671 12.3692 31.9291 12.2651 32.7776 12.0871C32.6009 11.9421 32.3929 11.8415 32.1707 11.7934C30.8728 11.5082 29.5299 11.5074 28.2316 11.791V11.791Z" fill="#1BA098"/>
<path d="M31.7335 14.3918C30.8163 14.0078 29.8593 13.6655 28.8592 13.636C28.3687 13.6218 27.8901 13.7012 27.4176 13.83C27.3207 13.8563 27.2242 13.8847 27.1277 13.913L27.1392 14.0402C27.5727 13.9147 28.0078 13.7972 28.46 13.7709C29.4824 13.7073 30.4846 14.022 31.4233 14.402C32.0091 14.6389 32.5849 14.9059 33.1731 15.1372L33.1842 15.0039C32.6961 14.8115 32.2152 14.5944 31.7335 14.3918Z" fill="#1BA098"/>
<path d="M30.8075 15.0305C30.114 14.7064 29.3655 14.6298 28.6098 14.678C28.1433 14.7076 27.6791 14.7757 27.2141 14.8263L27.2253 14.9478C27.5559 14.9134 27.8821 14.8713 28.1955 14.8397C28.9867 14.7587 29.7854 14.7587 30.5371 15.0511C30.8084 15.1585 31.0666 15.2976 31.3063 15.4655L31.5356 15.4777C31.3101 15.3014 31.0659 15.1514 30.8075 15.0305Z" fill="#1BA098"/>
<path d="M27.4763 13.5765C27.9214 13.5765 28.3504 13.4805 28.7668 13.3237C29.2285 13.1496 29.6712 12.9219 30.1433 12.7753C30.6375 12.6178 31.1643 12.5981 31.6686 12.7181C32.2608 12.8579 32.7928 13.1386 33.3108 13.4473L33.3168 13.3744C33.3187 13.3509 33.3187 13.3278 33.3195 13.3047C32.9128 13.0617 32.4965 12.8417 32.0435 12.6906C31.5669 12.531 31.0629 12.4605 30.5648 12.5399C30.0903 12.6157 29.6476 12.8142 29.209 13.0025C28.7811 13.186 28.3441 13.3671 27.8791 13.4226C27.6141 13.4542 27.3463 13.4532 27.0815 13.4193L27.0935 13.5486C27.2205 13.5649 27.3483 13.5743 27.4763 13.5765V13.5765Z" fill="#1BA098"/>
<path d="M29.2971 14.1491C28.9817 14.0644 28.6686 14.0352 28.3584 14.158C28.2156 14.2143 28.0792 14.2872 27.9389 14.3488C27.7923 14.4125 27.6426 14.4685 27.4903 14.5165C27.3922 14.5473 27.2933 14.5736 27.194 14.5975L27.2055 14.7271C27.4927 14.6592 27.7731 14.5642 28.043 14.4436C28.1834 14.3727 28.3273 14.3092 28.474 14.2532C28.6334 14.2024 28.802 14.1885 28.9673 14.2127C29.2752 14.2532 29.5798 14.3638 29.8729 14.4634C30.1553 14.5598 30.4344 14.6659 30.7084 14.7846C31.1966 14.9954 31.6704 15.239 32.1268 15.5138L32.3944 15.5284C31.9455 15.2452 31.4786 14.9928 30.9967 14.7729C30.4479 14.5181 29.8795 14.3094 29.2971 14.1491V14.1491Z" fill="#1BA098"/>
<path d="M31.1905 13.0697C31.088 13.3127 31.3253 13.5295 31.4947 13.6587C31.9138 13.9779 32.431 14.1241 32.9303 14.2622C33.0328 14.2906 33.1361 14.3198 33.2394 14.3505L33.2497 14.2221C32.8111 14.0937 32.3585 13.9884 31.9513 13.7871C31.7404 13.683 31.4856 13.544 31.3532 13.3415C31.2802 13.2309 31.2698 13.0883 31.4082 13.028C31.5346 12.9725 31.679 13.028 31.8018 13.0685C32.3058 13.2399 32.7849 13.4792 33.2262 13.7802C33.2457 13.7932 33.2661 13.8069 33.2844 13.8207L33.2968 13.6741C32.8361 13.3598 32.3353 13.1112 31.8082 12.9352C31.6028 12.8692 31.2981 12.8194 31.1905 13.0697Z" fill="#1BA098"/>
<path d="M33.5178 15.5668C33.5178 16.0496 32.7146 16.4409 30.8225 16.4409C28.9303 16.4409 26.6656 16.048 26.6656 15.5668C26.6656 15.0856 27.5338 14.6926 29.426 14.6926C31.3181 14.6926 33.5178 15.0807 33.5178 15.5668Z" fill="#1BA098"/>
<path d="M21.8874 40.2843H37.9396C38.4867 37.9876 38.9358 35.7137 39.287 33.4628L20.691 33.3203C20.9523 35.6638 21.3518 37.9894 21.8874 40.2843V40.2843Z" fill="#0B1014"/>
<path d="M22.4108 31.4114L24.2726 42.7471H35.3585L37.4094 31.6075L34.6655 31.6885C34.6655 31.6885 33.3858 28.5353 30.314 28.351C26.292 28.1104 25.2265 31.415 25.2265 31.415L22.4108 31.4114Z" fill="#0B1014"/>
<path d="M34.7968 42.0064H24.845L23.1702 31.8089H25.7008C25.8407 31.4383 26.929 28.8879 30.2675 29.088C32.8197 29.2407 34.0128 31.7008 34.1699 32.0508L36.6423 31.9795L34.7968 42.0064ZM24.9539 41.8771H34.6915L36.4888 32.1148L34.0858 32.1824L34.069 32.1419C34.0579 32.1139 32.9126 29.3764 30.2588 29.2172C26.7779 29.0102 25.8136 31.8652 25.8045 31.8944L25.7901 31.9385H23.3189L24.9539 41.8771Z" fill="#1BA098"/>
<path d="M31.7061 36.9329C32.1523 36.4217 32.5718 35.6504 33.0455 33.9065C32.2266 34.5983 31.4921 35.3871 30.8575 36.256C30.9998 34.2261 29.6249 32.8533 29.6249 32.8533C29.6249 32.8533 29.855 33.623 29.4845 34.824C29.335 35.3077 29.2955 35.812 29.3166 36.2929C28.8848 35.4045 28.1386 34.5348 26.8442 34.1808C27.6693 35.3182 27.8711 36.243 28.3105 37.0807C27.7706 36.6704 27.0608 36.2195 26.1312 35.7675C26.4833 36.4437 26.921 37.0701 27.4332 37.6308C28.3472 38.6156 29.9024 38.7776 29.9024 38.7776C29.9016 38.7762 29.9009 38.7747 29.9004 38.7731L29.9072 38.7776C29.9072 38.7776 31.4652 38.6156 32.3776 37.6324C32.8898 37.0717 33.3276 36.4453 33.6796 35.7691C32.9905 36.0995 32.3302 36.4888 31.7061 36.9329V36.9329Z" fill="#1BA098"/>
<path d="M27.3628 31.4865L27.7855 31.7701C27.7855 31.7701 28.8355 30.6926 29.907 30.7477C30.9785 30.8027 32.0065 31.8819 32.0065 31.8819L32.4511 31.5837C32.4511 31.5837 31.1711 30.1984 29.9074 30.1984C28.3163 30.2012 27.3628 31.4865 27.3628 31.4865Z" fill="#1BA098"/>
<path d="M33.6357 40.6581H26.4426V41.1693H33.6357V40.6581Z" fill="#1BA098"/>
<path d="M26.734 22.7706L33.3812 22.9067L33.1311 20.8667L27.0167 20.8023L26.734 22.7706Z" fill="#0B1014"/>
<path d="M28.1 20.8118C28.3109 21.9189 29.0339 22.4475 30.0364 22.8372C31.1259 22.4994 31.805 22.0643 31.9729 20.8118H28.1Z" fill="#1BA098"/>
</svg>
